<?xml version="1.0" encoding="utf-8"?>
<!-- Generator: Adobe Illustrator 17.1.0, SVG Export Plug-In . SVG Version: 6.00 Build 0)  -->
<!DOCTYPE svg PUBLIC "-//W3C//DTD SVG 1.1//EN" "http://www.w3.org/Graphics/SVG/1.1/DTD/svg11.dtd">
<svg version="1.1" id="Layer_1" xmlns="http://www.w3.org/2000/svg" xmlns:xlink="http://www.w3.org/1999/xlink" x="0px" y="0px"
	 viewBox="0 0 288 216" enable-background="new 0 0 288 216" xml:space="preserve">
<g>
	<path d="M187,68.8c0.2-0.1,0.5-0.1,0.7-0.3c1-0.8,2.1-1.5,3.1-2.4c1.4-1.3,2.4-3,3.4-4.6c1.2-2,2.4-4.1,3.6-6.1
		c0.7-1.1,1.3-2.2,2.1-3.2c0.8-1.1,1.7-2.2,2.7-3.2c0.5-0.5,0.8-1,0.8-1.7c0.1-1.7,0.5-3.4,1.2-4.9c0.8-1.8,1.6-3.5,2.7-5.2
		c0.9-1.5,2.1-2.8,3.3-4.1c1.1-1.3,2.5-2.3,4-3.1c1.6-0.8,3.1-0.7,4.7-0.1c1.6,0.6,2.9,1.7,4.1,2.9c0.8,0.8,1.7,1.5,2.4,2.1
		c0.1-0.7,0.4-1.7,0.5-2.7c0.2-1.7,1-3.2,1.9-4.7c0.7-1.1,1.4-2.1,2.5-2.8c1.8-1.2,3.4-1,4.9,0.5c1.3,1.2,2.1,2.7,2.8,4.3
		c0.7,1.6,1.3,3.2,1.7,4.9c0.2,0.9,0.6,1.3,1.5,1.5c1.1,0.3,2.2,0.9,3.2,1.4c0.4,0.2,0.8,0.3,1.2,0.1c1.9-0.8,3.9-1.3,5.9-1.5
		c1.5-0.2,3-0.3,4.5-0.2c1.4,0.1,2.8,0.4,3.9,1.4c0.5,0.5,0.7,1,0.7,1.8c-0.1,1.9-1.2,3.4-2.2,4.9c-1.2,1.6-2.4,3.2-3.6,4.7
		c0.4,0,0.9-0.1,1.4-0.1c1.3-0.1,2.6-0.4,3.9-0.3c1.9,0.1,3.9,0.4,5.5,1.6c0.9,0.7,1.7,1.4,2,2.5c0.2,0.7,0.2,1.4,0.1,2.1
		c-0.1,1.1-0.4,2.1-0.7,3.2c-0.3,0.9-0.6,1.8-0.9,2.7c-1.2,3.2-3.2,6-5.3,8.7c-0.7,0.9-1.4,1.7-2.1,2.6c-0.1,0.2-0.3,0.4-0.3,0.6
		c-0.1,2.6-0.4,5.1-1.2,7.5c-0.7,2-1.5,3.9-2.3,5.8c-0.8,1.8-1.7,3.6-2,5.6c-0.1,0.8-0.2,1.6-0.3,2.3c-0.2,1.9-0.3,3.8-0.5,5.7
		c-0.2,2.3-0.7,4.5-1.5,6.6c-0.5,1.3-1.1,2.5-2,3.6c-0.9,1.1-1.8,2.1-3.1,2.9c-0.5,0.3-1,0.4-1.6,0.5c-0.1,0-0.3-0.2-0.4-0.4
		c-0.3-0.4-0.5-0.9-0.8-1.5c-0.1,0.2-0.2,0.4-0.2,0.5c-0.3,0.8-0.4,1.6-1.2,2.2c-0.4,0.3-0.7,0.1-0.9-0.2c-0.7-1.5-2.1-2.2-3.4-3
		c-1.5-0.9-3.1-1.5-4.8-1.8c-1.1-0.2-2.2-0.1-3.4,0c-0.1,0-0.2,0.3-0.1,0.4c0.3,0.8,0.7,1.5,0.9,2.3c0.3,1.2,0.6,2.3,0.8,3.5
		c0.2,1.3,0.3,2.6,0.2,3.9c0,1.4-0.2,2.8-0.5,4.2c-0.3,1.8-0.6,3.6-1,5.4c-0.2,1.1-0.5,2.1-0.8,3.3c0.2-0.3,0.3-0.4,0.5-0.6
		c0.9-1,1.9-1.9,3.3-2.3c0.8-0.2,0.9-0.2,1.4,0.5c0.7,1,0.7,2.2,0.6,3.3c-0.1,0.8-0.2,1.6-0.3,2.5c1.7-0.9,1.8-0.5,2.4,1.2
		c0.2,0.5,0.1,1,0.2,1.7c0.5-0.5,0.9-1.1,1.4-1.5c0.7-0.5,1.6-0.9,2.3-1.3c0.1,0,0.2,0.1,0.3,0.2c0.5,0.5,0.8,1.2,0.9,1.9
		c0.1,1.2,0.3,2.5,0.4,3.7c0,0.7-0.1,1.4-0.2,2.1c0.7-0.3,1.3-0.6,1.9,0c0.4,0.5,0.8,1,1.1,1.4c0.3-0.8,0.6-1.8,1-2.7
		c0.7-1.6,1.6-3.1,3-4.1c0.8-0.6,1.4-0.4,1.7,0.4c0.4,1,0.8,2,1,3c0.2,0.9,0.2,1.9,0.3,2.9c0.4-0.4,0.8-0.9,1.3-1.3
		c0.5-0.4,1.1-0.8,1.7-1.2c0.8-0.4,1.4-0.1,1.5,0.7c0.2,0.9,0.4,1.8,0.6,2.7c0.6-0.5,1.1-1.1,1.8-1.6c0.9-0.7,1.8-1.4,2.8-1.8
		c1.1-0.5,2-0.3,2,1.3c0,1.4-0.5,2.7-0.8,4.1c0,0,0,0.1,0,0.2c0.7-0.2,1.4-0.3,2.1-0.4c0.3-0.1,0.6-0.1,0.9-0.1
		c0.2,0,0.4,0.2,0.5,0.3c-0.1,0.2-0.2,0.4-0.4,0.5c-0.4,0.2-0.8,0.3-1.2,0.4c-1.3,0.5-2.4,1.4-3.1,2.6c-0.3,0.4-0.5,0.4-0.9,0.3
		c-0.4-0.2-0.6-0.5-0.4-0.9c0.4-1,0.7-1.9,1-2.9c0.3-0.9,0.4-1.9,0.6-2.8c0-0.1-0.1-0.4-0.1-0.4c-0.2,0-0.4,0-0.6,0.1
		c-0.6,0.4-1.2,0.8-1.7,1.2c-1.4,1.1-2.4,2.6-3.3,4.1c-0.2,0.3-0.3,0.8-0.9,0.5c-0.5-0.2-0.7-0.5-0.5-1c0.4-1.4,0.6-2.8,0.5-4.3
		c0-0.4-0.1-0.8-0.2-1.1c-0.1,0-0.1-0.1-0.2-0.1c-0.6,0.6-1.3,1.2-1.8,1.9c-0.6,0.9-1.2,1.8-1.7,2.7c-0.3,0.6-0.8,0.8-1.3,0.5
		c-0.1-0.1-0.2-0.4-0.2-0.6c0-0.3,0.1-0.7,0.2-1c0.1-1.4,0.2-2.9,0.2-4.3c0-1-0.2-2-0.8-3c-0.2,0.1-0.4,0.3-0.6,0.4
		c-1.2,1.2-2,2.6-2.5,4.1c-0.4,1.4-0.6,2.8-1,4.2c-0.1,0.4-0.1,0.8-0.6,0.8c-0.4,0-0.8-0.2-0.9-0.8c-0.2-1.2-0.3-2.4-1.1-3.5
		c-0.3-0.4-0.6-0.6-1-0.1c-0.4,0.6-0.7,1.3-1.1,1.9c-0.2,0.3-0.2,0.7-0.7,0.7c-0.7-0.1-0.9-0.4-0.7-1c0.5-1.2,0.8-2.5,0.9-3.8
		c0.1-0.8,0.2-1.6,0.2-2.4c0-0.8-0.3-1.7-0.5-2.5c-0.1-0.5-0.5-0.7-0.9-0.2c-0.9,1.1-1.9,2.2-2.5,3.6c-0.2,0.5-0.5,1-0.8,1.6
		c-0.2,0-0.3,0-0.5,0c-0.6,0-0.7-0.3-0.6-0.8c0.4-1.6,0.3-3.3-0.2-5c-0.2,0.3-0.5,0.4-0.6,0.7c-0.6,1-1.2,2-1.7,3.1
		c-0.2,0.4-0.4,0.5-0.8,0.5c-0.6-0.1-0.8-0.4-0.6-0.9c0.7-1.4,1.2-2.8,1.5-4.3c0.2-0.8,0.2-1.7,0.3-2.5c0.2-0.8-0.1-1.5-0.3-2.2
		c-0.2-0.5-0.4-0.6-0.8-0.2c-1,0.9-1.9,1.7-2.6,2.9c-0.5,0.8-1.1,1.7-1.3,2.6c-0.2,1.5-0.2,3-0.1,4.5c0.1,1.1,0.3,2.2,0.6,3.3
		c0.6,1.8,1.7,3.4,2.8,4.9c1.3,1.8,2.7,3.6,3.6,5.7c1.3,2.8,0.9,5.5-1,7.9c-0.3,0.4-0.7,0.7-1.1,0.8c-1.2,0.4-2,1.2-2.7,2.2
		c-1,1.4-2.5,2.1-4.2,2.3c-0.4,0-0.7,0.1-1.2,0.2c0.1,0.6,0.1,1.1,0.2,1.7c0.3,2.1,0.3,4.2,0.1,6.3c-0.1,1.4-0.1,2.8-0.3,4.1
		c-0.2,1.7-0.4,3.4-0.7,5.1c-0.4,2-0.9,3.9-1.5,5.8c-0.9,2.8-2.4,5.4-4.2,7.7c-1.6,1.9-3.3,3.7-5.3,5.1c-2.2,1.6-4.6,2.8-7.3,3.6
		c-2,0.5-3.9,0.8-5.9,0.9c-1.3,0-2.6,0.2-3.9,0.1c-1.7-0.1-3.5-0.3-5.2-0.6c-2.2-0.4-4.5-1-6.7-1.6c-1.2-0.3-2.3-0.7-3.4-1.3
		c-2.9-1.4-5.8-2.7-8.9-3.8c-1.8-0.6-3.6-0.9-5.5-0.7c-0.8,0.1-1.5,0.4-2.3,0.6c-0.4-0.4-0.5-0.9-0.5-1.5c0-0.9,0-1.8,0-2.8
		c-1.1,0.4-2.2,0.4-3.2,0.1c-0.4-0.1-1.8,0-2.2,0.2c-1.2,0.5-2.5,0.6-3.7,0.1c-1-0.4-1.8-1.1-2.4-2c-4,0.6-6.2-1.5-7.6-5
		c-1.3,0.8-2.7,1.1-4.1,0.9c-1.2-0.1-2.4-0.4-3.3-1.3c-0.5-0.5-0.9-0.1-1.3,0c-1.4,0.2-2.3-0.4-3.1-1.4c-0.2-0.3-0.4-0.6-0.6-0.9
		c-0.1-0.1-0.2-0.2-0.3-0.3c-1.4-0.5-2.3-1.6-2.9-3c-0.6-1.2-0.6-2.5-0.5-3.9c0.1-1.4,0.5-2.6,0.8-3.9c0.1-0.2,0.1-0.5,0.1-0.7
		c0.4-0.5,0.7-1,1.1-1.4c0,0-0.1-0.1-0.1-0.1c0,0.1,0.1,0.2,0.1,0.4c0.2-0.2,0.4-0.4,0.6-0.6c1-1,2-2,3-3c1.1-1.1,2.2-2.2,3.2-3.4
		c1-1.2,1.8-2.5,2.3-3.9c-0.8,0.3-1.5,0.7-2.3,0.9c-1.1,0.4-2.3,0.3-3.4,0c-0.7-0.2-1.2-0.1-1.8,0.2c-1.3,0.8-2.6,0.7-4,0.2
		c-0.7-0.3-1.3-0.7-1.9-1c-0.2-0.1-0.3-0.2-0.5-0.2c-3.1,0.2-5.1-1.4-6.6-3.8c-0.8-1.2-1.1-2.5-1.1-3.9c0-1.3,0-2.5,0.2-3.8
		c0.2-0.9,0.6-1.8,1-2.6c1-2.3,2.6-4.2,3.9-6.3c1-1.6,1.9-3.2,2.8-4.9c0.2-0.3,0.2-0.8,0.2-1.2c-0.1-0.7,0.4-1.1,0.6-1.7
		c0-0.1,0.2,0,0.5-0.1c1.1-2.7,2.2-5.6,3.3-8.5c-0.1,0.1-0.4,0.2-0.6,0.4c-0.2,0.2-0.4,0.4-0.6,0.6c-0.7,0.6-1.2,0.6-1.8-0.1
		c-0.5-0.5-0.9-1.2-1.3-1.9c-0.1-0.2-0.2-0.4-0.4-0.7c-0.4,0.5-0.7,0.9-1,1.3c-0.4,0.5-0.6,0.6-1.1,0.1c-1.5-1.4-2.1-3.2-2.4-5.1
		c-0.2-1.6,0.2-3.1,0.7-4.6c0.6-2,1.1-4,1.6-6c0.5-2.1,0.4-4.2,0.3-6.3c0-1.8-0.3-3.6-0.3-5.4c0-1.7,0.2-3.4,0.7-5.1
		c0.4-1.3,0.8-2.5,1.2-3.8c0.1-0.3,0-0.7-0.2-1c-0.5-1.6-1.1-3.1-1.6-4.7c-0.3-0.9-0.3-1.8-0.4-2.8c-0.1-1-0.1-1.9-0.1-2.9
		c0.1-2.5,0.4-4.9,1.2-7.2c0.7-1.8,1.9-2.9,3.8-3.5c1.7-0.5,3.4-1,5.2-1c2,0,4-0.1,6,0c1.3,0.1,2.6,0.3,3.8,0.6
		c0.7,0.1,1.1-0.3,1.7-0.6c1.4-0.7,2.7-1.4,4.2-2.1c1.6-0.7,3.2-1.3,4.9-1.8c1.9-0.6,4-1.1,6-1.3c1-0.1,2-0.2,2.9-0.2
		c1.4,0,2.8,0.1,4.2,0.2c0.6,0,1.2,0.2,1.7,0.3c0.1,0,0.3-0.1,0.5-0.1c1.2-0.9,2.2-1.9,3.5-2.7c1.2-0.8,2.6-1.5,4-2.2
		c1.3-0.7,2.8-0.7,4.3-1c1.5-0.2,3.2,0.8,3.7,2.3c0.9,2.5,1.6,5.1,1.9,7.8C186.7,66.9,186.8,67.8,187,68.8z M215.1,171.3
		c0.2,0.3,0.4,0.5,0.3,0.8c0,0.4-0.2,0.9-0.3,1.3c-0.3,0.7-0.8,1.4-1.2,2.1c-0.7,1.5-1.8,2.7-3.1,3.7c-2.3,1.8-5,2.6-7.8,2.7
		c-1.4,0.1-2.8-0.1-4.2-0.3c-1.6-0.2-3.1-0.6-4.6-0.9c-1.2-0.2-2.4-0.5-3.6-0.6c-1.8-0.1-3.5-0.1-5.3-0.1c-1.9-0.1-3.8,0.3-5.6,0.9
		c-1.7,0.5-3.3,1.3-4.8,2.1c-2.6,1.3-4.6,3.2-6.3,5.6c-0.8,1.1-1.4,2.4-2.1,3.6c-1.2,2-1.7,4.2-1.5,6.5c0.6-0.1,1.3-0.3,1.9-0.3
		c1.7-0.1,3.4,0,5,0.7c2.6,1,5.1,2.3,7.7,3.3c1.7,0.7,3.4,1.4,5.2,1.9c1.7,0.5,3.5,0.9,5.2,1.2c1,0.2,2.1,0.3,3.2,0.4
		c0.6,0.1,1.2,0.1,1.7,0.1c1.7,0,3.4,0.1,5.1,0c1.2-0.1,2.4-0.5,3.7-0.7c2.8-0.6,5.4-1.6,7.7-3.1c1.7-1.1,3.2-2.4,4.6-3.9
		c1.4-1.5,2.7-3.1,3.6-4.9c1.5-2.9,2.5-5.9,3-9.1c0.2-1.8,0.4-3.5,0.6-5.3c0.1-1.9,0.2-3.8,0.1-5.7c0-1.5-0.2-2.9-0.5-4.4
		c-0.2-1.3-0.6-2.5-0.9-3.8c-0.6-2.4-1.7-4.7-3-6.8c-0.9-1.4-1.8-2.8-2.8-4.1c-1.1-1.5-2.3-2.9-3.6-4.3c-1.6-1.6-3.3-3.2-5-4.7
		c-1.5-1.4-3.1-2.7-4.7-4c-1.5-1.2-2.9-2.5-4.4-3.7c-0.4-0.3-0.8-0.7-1.3-1.1c0,0.2-0.1,0.3-0.1,0.4c0,0.1,0,0.2,0,0.3
		c0.3,1.1,0.3,2.3,0,3.4c-0.6,2.4-2.4,3.9-5,4c-2.1,0-3.8-0.8-5.5-1.8c-1.3-0.8-2.6-1.8-3.6-3c-1.1-1.3-2.2-2.7-3-4.2
		c-0.6-1.2-1.1-2.5-1.6-3.7c-0.1-0.1-0.3-0.2-0.4-0.3c-0.1,0.2-0.2,0.3-0.3,0.5c0,0.1,0,0.2,0,0.3c0.4,1.5,0.8,3,1.1,4.5
		c0.5,2.5,1.3,5,0.9,7.6c-0.2,1.4-0.7,2.8-1.7,3.8c-1,0.9-2.2,1.5-3.5,1.8c-2.2,0.4-4.2,0.1-6.1-1.1c-0.7-0.5-1.3-1-2-1.4
		c-0.3-0.2-0.7-0.2-1-0.2c-1,0.2-2,0.3-3.1,0.3c-1.4,0-2.6-0.4-3.8-1.2c-1.2-0.8-2.1-1.8-2.2-3.3c-0.2-2.8,0.6-5.2,2-7.6
		c0.1-0.1,0.1-0.3,0.2-0.5c-6.7-0.2-12.7-2.4-18.1-6.4c-0.2,0.3-0.3,0.5-0.5,0.7c-0.6,1.2-0.9,2.4-1.1,3.7c-0.2,1.7-0.4,3.5-0.7,5.2
		c-0.3,2-1.2,3.7-2.7,5.1c-0.2,0.2-0.4,0.3-0.7,0.5c0.9,0.4,2,0.4,2.9,0c0.4-0.2,0.8-0.1,1.1,0.2c0.4,0.3,0.1,0.5-0.1,0.8
		c-0.7,1.4-1,2.9-1,4.4c0,0.9,0.1,1.8,0.2,2.6c0.1,0.6,0.4,1.1,0.7,1.8c0.5-0.5,0.8-0.9,1.2-1.3c0.5-0.5,0.8-0.4,1,0.3
		c0.1,0.4,0.1,0.8,0.3,1.2c0.8,2.4,1.8,4.7,3.1,6.8c1.7,2.7,3.9,4.7,6.5,6.5c0.8,0.5,1.6,0.9,2.5,1.5c0.6-2.3,1.1-4.4,1.7-6.5
		c0.1-0.5,0.3-1,0.4-1.4c0-0.1,0.3-0.2,0.5-0.2c0.1,0,0.3,0.2,0.3,0.3c0.1,0.5,0.1,1,0.1,1.5c0,0.6,0.1,1.2-0.1,1.7
		c-0.4,1.6-0.9,3.2-1.4,4.8c-0.6,1.6-1.2,3.2-1.9,4.8c-1.1,2.4-2.7,4.6-4.2,6.8c-0.7,1-1.4,2.1-1.9,3.2c-0.7,1.5-0.7,3.1-0.5,4.7
		c0.2,1.8,1,3.1,2.3,4.2c0.8,0.6,1.6,1,2.7,1c-0.1-0.3-0.2-0.7-0.3-1c-0.3-0.8-0.5-1.7-0.2-2.5c0.1-0.2,0.4-0.4,0.7-0.5
		c0.1,0,0.4,0.3,0.4,0.5c0.4,1.5,0.9,2.9,2,4.1c0.9,0.9,3,1.6,4.2,0.9c-0.1-0.1-0.1-0.3-0.2-0.4c-0.4-0.6-0.9-1.2-1.3-1.9
		c-0.5-0.7-0.5-1.5-0.4-2.3c0-0.3,0.4-0.5,0.7-0.6c0.1,0,0.5,0.3,0.5,0.5c0.3,1.3,1,2.3,1.9,3.2c1.2,1.1,2.5,1.7,4.1,1.3
		c0.2,0,0.4-0.2,0.5-0.4c0.4-1,0.7-2,1.1-3c1.2-2.8,2.7-5.4,4.9-7.5c2.1-2,4.5-3.5,7.3-4.4c0.3-0.1,0.6-0.2,0.6-0.6
		c0-2.2-0.2-4.4-0.8-6.6c-0.3-1.1-0.5-2.2-0.9-3.5c0.6,0.2,1,0.3,1.3,0.4c0-1.3,0-2.6,0-3.9c0-1.6,0.4-3.2,1-4.7
		c1.4-3.7,3.6-6.8,7-8.9c1.8-1.1,3.6-2.1,5.7-2.5c0.7-0.2,1.5-0.1,2.3-0.3c1.1-0.2,2.2-0.1,3.3,0c0.4,0,0.8,0.3,1.2,0.5
		c0.1,0.1,0.2,0.3,0.2,0.5c0,0.1-0.3,0.2-0.4,0.2c-0.3,0-0.6-0.1-0.9-0.1c-1.1,0.1-2.3,0.1-3.4,0.2c-2,0.3-3.9,1.1-5.6,2.1
		c-1.8,1.1-3.3,2.5-4.6,4.1c-0.5,0.6-1,1.1-1.4,1.8c-0.6,1.2-1.2,2.3-1.6,3.6c-0.5,1.4-0.8,2.9-1,4.4c-0.3,2.5,0.2,5,1,7.3
		c0.6,1.7,1.5,3.2,2.6,4.6c0.1,0.1,0.3,0.2,0.5,0.2c1.6,0,3.2-0.1,4.8,0.1c1.9,0.2,3.7,0.6,5.5,0.9c2.1,0.3,4.2,0.6,6.3,0.9
		c1.7,0.3,3.4,0.1,5.1-0.2c1.9-0.3,3.7-1,5.2-2c1.1-0.7,2.1-1.5,2.8-2.7C213.7,173.8,214.4,172.6,215.1,171.3z M245,110.5
		c0.6-0.6,1.3-1.3,1.9-2c1.3-1.6,2.1-3.4,2.6-5.4c0.3-1.2,0.5-2.5,0.7-3.8c0.2-1.6,0.4-3.3,0.6-5c0.2-1.2,0.2-2.5,0.6-3.6
		c0.5-1.6,1.1-3.1,1.7-4.7c0.9-2.5,1.8-5,2.8-7.5c0.9-2.3,1.3-4.7,1.4-7.1c0-0.4,0.1-0.8,0.3-1.1c0.4-0.5,0.9-1,1.3-1.5
		c1.1-1.3,2.3-2.6,3.3-4.1c1-1.4,1.9-3,2.6-4.6c0.7-1.6,1.5-3.1,1.8-4.8c0.3-1.9-0.5-3.6-2.1-4.5c-1.2-0.6-2.5-0.9-3.8-1
		c-1.2-0.1-2.4-0.1-3.6,0c-1.1,0.1-2.1,0.4-3.2,0.5c-0.4,0.1-0.4,0.3-0.3,0.6c0.2,0.5,0.5,1,0.7,1.5c0.2,0.5,0.1,0.8-0.4,1.1
		c-0.5,0.2-0.7-0.1-0.8-0.5c-1.2-2.3-2.8-4.4-4.7-6.2c-1.4-1.2-2.8-2.3-4.4-3.2c-1.2-0.7-2.5-1.3-3.7-1.9c-1.4-0.8-2.9-1.3-4.5-1.6
		c-1.2-0.3-2.4-0.5-3.6-0.7c-1-0.1-2-0.1-2.9-0.1c-0.8,0-1.6,0.1-2.4,0.2c-0.6,0.1-1.1-0.2-1.3-0.8c-0.8-1.7-1.9-3.2-3.2-4.5
		c-1.1-1.2-2.4-2.2-3.9-2.9c-0.5-0.2-1.1-0.5-1.5-0.4c-1,0.4-2.1,1-3,1.7c-1.1,0.9-2.1,2-3.2,3c-1.3,1.3-2.2,2.8-3.1,4.4
		c-1.2,2.2-1.7,4.6-2.2,7.1c0.8-0.4,1.6-0.8,2.3-1.2c0.2-0.1,0.5-0.2,0.7-0.2c0.2,0,0.4,0.1,0.6,0.1c-0.1,0.2-0.1,0.5-0.3,0.7
		c-0.6,0.5-1.2,0.9-1.8,1.4c-0.9,0.7-1.9,1.3-2.7,2.1c-1.2,1.3-2.4,2.7-3.4,4.1c-1.1,1.6-2,3.3-3,4.9c-0.9,1.4-1.8,2.9-2.7,4.3
		c-0.7,1-1.4,2-2.2,2.9c-0.7,0.8-1.4,1.5-2.3,2.1c-0.8,0.6-1.7,1-2.5,1.6c-0.5,0.4-1.2,0.8-1.2,1.7c0,0.6-0.1,1.1-0.2,1.7
		c-0.1,0.5,0,1,0.4,1.4c0.3,0.4,0.6,0.8,0.9,1.2c1.3,1.9,2.3,4.1,2.9,6.3c0.6,2.2,1,4.4,1.5,6.5c0.2,0.8,0.2,1.6,0.7,2.3
		c1.5,2.1,3.2,3.9,5.3,5.4c0.4,0.3,0.8,0.6,1.2,0.6c0.6,0.1,0.8,0.4,0.9,0.9c0.3,0.9,0.6,1.9,1,2.8c0.7,1.2,1.8,1.8,3,2.3
		c1.7,0.7,3.5,0.8,5.3,0.1c0.8-0.3,1-0.3,1.6,0.4c0.1,0.1,0.2,0.2,0.4,0.3c0.7,0.4,1.4,0.8,2.1,1.1c1.6,0.6,3.2,1.2,4.8,1.6
		c1.8,0.5,3.6,0.8,5.4,0.7c1.2,0,2.4-0.1,3.5-0.2c0.6,0,1.2-0.1,1.8-0.1c1.1,0,2.2,0,3.3,0.1c0.9,0.1,1.7,0.5,2.6,0.8
		c1.9,0.6,3.6,1.5,5,2.9c0.4,0.4,0.7,0.8,1.1,1.3c0.6-1.1,0.8-2,0.8-3.1c0-0.2,0.1-0.5,0.3-0.6c0.1-0.1,0.5,0,0.7,0.1
		C243.7,109,244.3,109.7,245,110.5z M175,120.5c0.3,0.1,0.5,0.2,0.7,0.1c1.4-0.5,2.8-0.9,4.2-1.6c1.5-0.7,2.8-1.6,4.2-2.5
		c1.5-0.9,2.9-1.7,4.3-2.6c2.6-1.6,5.4-2.4,8.6-1.9c-0.1-0.5-0.1-1.1-0.2-1.6c-0.3-0.8-0.6-1.6-0.9-2.4c-0.4-0.8-0.1-1.3,0.8-1.2
		c0.6,0.1,1.2,0.2,1.9,0.4c0-0.3,0-0.6-0.1-1c-0.4-2-1.6-3.6-2.7-5.3c-0.9-1.4-1.8-2.7-2.6-4.2c-1.1-2-1.9-4.1-2.4-6.3
		c-0.3-1.5-0.7-2.9-1.1-4.3c-0.7-3.3-1.7-6.4-3.3-9.4c-0.4-0.7-0.7-1.4-1.1-1.9c-0.4-0.5-0.7-0.9-0.2-1.5c0.1-0.1,0.1-0.2,0.1-0.3
		c0-1.3,0.1-2.6,0.1-3.8c-0.1-1.6-0.4-3.3-0.6-4.9c-0.2-1.2-0.5-2.5-0.8-3.7c-0.3-1-0.5-1.9-1.3-2.7c-0.1-0.1-0.2-0.2-0.3-0.2
		c-1-0.2-2-0.1-2.9,0.2c-2.1,0.5-4.1,1.4-6,2.5c-1,0.6-1.8,1.3-2.8,2c0.2,0.1,0.3,0.2,0.4,0.3c0.3,0.2,0.5,0.5,0.7,0.8
		c0.1,0.1,0,0.3-0.1,0.4c-0.1,0.1-0.3,0.1-0.4,0.1c-2.2-0.8-4.5-1-6.9-1c-1.6,0.1-3.1,0.1-4.6,0.5c-1.1,0.3-2.2,0.3-3.2,0.6
		c-1.7,0.4-3.4,0.9-5.1,1.5c-2.5,0.8-4.9,2-7.2,3.3c-0.2,0.1-0.4,0.1-0.7,0.1c-1-0.2-2-0.4-3.1-0.6c-1.1-0.1-2.2-0.2-3.3-0.2
		c-1.1,0-2.1-0.1-3.2,0c-1.3,0.1-2.6,0.4-3.9,0.7c-1.6,0.3-3.1,1-3.7,2.7c-0.1,0.2-0.2,0.5-0.3,0.7c-0.7,1.6-1.1,3.4-1.2,5.1
		c-0.1,1,0,1.9,0,2.9c0,0.9,0.1,1.8,0.2,2.7c0.2,2.3,0.9,4.5,1.9,6.6c0.1,0.2,0.1,0.4,0,0.6c-0.5,1.8-1,3.5-1.4,5.3
		c-0.3,1.3-0.4,2.7-0.4,4.1c-0.1,1.5,0.1,3.1,0.1,4.7c0,1.6,0,3.2,0,4.8c0,0.9-0.1,1.7-0.2,2.6c-0.3,1.4-0.7,2.7-1.1,4.1
		c-0.5,1.9-1,3.9-0.8,5.9c0.1,1,0.5,2,0.7,3c0.1,0,0.1,0,0.2,0c0.2-0.2,0.3-0.4,0.5-0.6c0.5-0.5,0.9-1,1.4-1.4
		c0.4-0.3,0.6-0.1,0.6,0.4c0,0.1,0,0.2,0,0.3c0.1,1.3,0.6,2.4,1.8,3.2c0.8-0.9,1.6-1.6,2.8-2c1.5-0.5,3.1-0.6,4.6-0.3
		c1.8,0.3,3.6,0.5,5.4,0.9c2.4,0.5,4.8,1,7.2,0.9c2.7,0,5.3,0.1,8-0.4c2.2-0.4,4.5-0.8,6.7-1.3c0.1,0,0.2-0.2,0.3-0.4
		c0.1-0.1,0.2-0.3,0.4-0.4c0.2-0.1,0.4,0,0.7,0c1.5,0.3,2.9,0.7,4.5,0.7c2,0,3.5-1,4.9-2.3C174.2,121.6,174.6,121,175,120.5z
		 M208.7,143.1c0.7,0.6,1.4,1.1,2.1,1.8c1.4,1.3,2.8,2.6,4,4.1c1.5,1.6,2.9,3.3,4.2,5c2,2.6,3.5,5.4,4.6,8.5
		c0.3,0.8,0.5,1.5,0.8,2.3c0.1,0,0.1,0,0.2,0c0-0.6,0-1.1-0.1-1.7c-0.1-0.6-0.4-1.2-0.5-1.9c0-0.2,0.1-0.6,0.2-0.7
		c0.2-0.1,0.5,0,0.7,0.2c1.2,1.6,1.8,3.3,1,5.3c0,0.1,0,0.2,0,0.4c1.3-0.4,2.1-1.1,2.8-2.1c1.1-1.7,1.3-3.5,0.9-5.4
		c0-0.2,0.1-0.5,0.2-0.6c0.1-0.1,0.5,0,0.6,0.2c0.3,0.5,0.6,1,0.7,1.5c0.2,0.7,0.2,1.3,0.4,2.1c0.2-0.1,0.4-0.2,0.5-0.4
		c0.9-0.8,1.4-1.9,1.6-3c0.3-1.3,0.4-2.6-0.3-3.8c-0.6-1.2-1.4-2.3-2.1-3.5c-1.3-2.1-2.7-4.1-3.7-6.4c-0.7-1.7-1.2-3.5-1.2-5.4
		c-0.1-2.4,0.1-4.7,0.6-7.1c0.4-2,0.9-4,1.3-6c0.2-1.1,0.4-2.2,0.6-3.3c0.1-0.6,0-1.2,0.2-1.8c0.4-1.7,0.7-3.5,0.4-5.3
		c-0.2-1.3-0.3-2.7-0.6-4c-0.2-0.9-0.5-1.7-0.8-2.6c-0.6,0.4-1.2,0.7-1.7,1.1c-2.7,1.8-5.8,2.5-9.1,2.7c-2.5,0.1-5.1-0.1-7.6-0.6
		c-2.2-0.5-4.3-1.3-6.3-2.4c-1-0.6-2-1.2-3-1.8c-0.1,0.2-0.3,0.5-0.4,0.7c-0.4,0.6-0.6,0.6-1.1,0.1c-0.1-0.1-0.3-0.3-0.4-0.4
		c-0.1-0.1-0.3-0.2-0.5-0.5c0.1,0.2,0.1,0.3,0.1,0.3c0.6,1.5,1.1,3,0.8,4.7c-0.1,0.6-0.5,0.8-1,0.6c-0.3-0.1-0.6-0.2-0.9-0.2
		c-1.5,0-3,0-4.5,0.4c-2.2,0.6-4.2,1.6-6.1,2.9c-0.3,0.2-0.5,0.5-0.8,0.7c0,0,0,0.1,0.1,0.1c0.3,0,0.7,0,1,0c2.2-0.1,4.3,0.4,6.4,1
		c2.1,0.7,4.1,1.6,5.7,3.1c1.2,1.2,2.2,2.5,2.7,4.1c0.3,0.9,0.6,1.8,0.7,2.8c0.1,1.6-0.6,2.8-1.7,3.9c-0.6,0.6-1.2,1.2-1.8,1.8
		c0.7,0.6,1.3,1.3,2,1.8c2.1,1.7,4.2,3.4,6.3,5c0.2,0.1,0.5,0.1,0.7,0.1c0.3-0.1,0.5-0.3,0.8-0.4c2.4-1.7,4.7-3.4,6.5-5.6
		c0.9-1.1,1.8-2.3,2.6-3.5c0.4-0.6,0.7-1.2,1.1-1.9c0.3-0.5,0.5-0.4,0.8,0c0.4,0.5,0.1,0.9,0,1.3c-1,2.2-2.4,4.3-4.1,6.1
		C213.1,139.6,211,141.5,208.7,143.1z M140,155.2c-0.5,0-1,0.1-1.4-0.1c-1-0.6-1.6-1.7-2.1-2.8c-0.3-0.7-0.5-1.5-0.5-2.2
		c-0.1-1.3-0.1-2.6,0-3.9c0-0.4,0-0.5-0.3-0.6c-0.9-0.2-1.7-0.6-2.4-1.4c-0.6-0.7-0.6-0.9,0.2-1.4c1.4-1,2.4-2.4,2.7-4
		c0.4-1.8,0.6-3.6,0.8-5.5c0.2-1.8,0.8-3.5,1.8-5c0.5-0.8,0.5-0.8-0.2-1.5c-0.2-0.2-0.4-0.3-0.6-0.3c-1.5-0.2-2.9-0.5-4.4-0.7
		c-0.4-0.1-0.7,0.1-0.9,0.4c-0.7,0.6-1.1,1.5-1.5,2.3c-0.5,1.2-0.8,2.4-1.2,3.6c-0.6,1.6-1.3,3.2-1.9,4.8c-1,2.4-2.3,4.7-3.7,7
		c-1.2,1.9-2.4,3.7-3.5,5.7c-1.4,2.4-1.8,5.1-1,7.8c0.7,2.2,1.9,4,4.4,4.5c0.7,0.1,1.4,0.2,2-0.3c0.8-0.7,1.5-1.4,1.5-2.6
		c0-0.1,0-0.3,0.1-0.4c0.1-0.2,0.4-0.4,0.5-0.4c0.3,0.1,0.6,0.3,0.7,0.5c0.1,0.7,0.1,1.4-0.4,2c-0.4,0.5-0.8,0.9-1.2,1.4
		c-0.2,0.2-0.3,0.4-0.5,0.6c1.3,0.7,2.7,0.9,4,0.3c1.5-0.7,2.1-2.2,2.3-3.7c1-0.3,1.2-0.2,1.2,0.9c0,0.2,0,0.4-0.1,0.5
		c-0.2,0.5-0.4,1-0.6,1.5c-0.3,0.6-0.2,0.7,0.4,0.7c0.8,0,1.7-0.1,2.5-0.2c1.2-0.2,2.4-0.8,3-1.9C140.8,158.8,141,156.9,140,155.2z
		 M152.4,170.1c-4.6-2.1-7.9-5.6-10.3-9.8c-0.4,1.3-0.8,2.7-1.3,4c-0.8,2.1-2.1,4-3.6,5.6c-1.4,1.5-2.9,2.8-4.3,4.2
		c-0.8,0.8-1.4,1.7-1.8,2.7c-0.6,1.5-0.9,3.1-0.8,4.7c0,1,0.3,1.9,0.8,2.7c0.2-1,0.3-2.1,0.5-3.2c0.1-0.4,0.3-0.6,0.7-0.6
		c0.4,0,0.6,0.3,0.6,0.7c0,1.4-0.1,2.8,0.3,4.1c0.3,1,1.4,2.4,2.6,2.5c-0.2-1-0.5-1.9-0.6-2.9c-0.1-0.7,0.1-1.5,0.3-2.2
		c0-0.2,0.4-0.5,0.6-0.4c0.3,0.1,0.5,0.3,0.6,0.7c0,0.9,0.2,1.9,0.3,2.8c0.2,0.7,0.3,1.4,0.9,1.9c1.8,1.3,3.7,1.6,5.8,1
		c0.4-0.1,0.6-0.4,0.6-0.9c-0.2-2.4,0.3-4.6,1.7-6.6c0.7-1.1,1.5-2.1,2.3-3.1C149.8,175.5,151.3,172.9,152.4,170.1z M172.8,134.4
		c0-0.1,0-0.2,0-0.4c0.1-0.7,0.3-1.3,0.4-2c0.1-1,0.3-2.1,0.1-3.1c-0.3-1.4-1.4-2.2-2.7-2.9c-0.1,0-0.3,0.2-0.3,0.3
		c-0.6,2.4-1.3,4.7-2.3,7c-0.9,2.2-1.9,4.3-3.3,6.1c-0.7,1-1.6,1.9-2.4,2.7c-1,0.9-2.2,1.5-3.6,1.6c0.3,0.3,0.5,0.5,0.7,0.7
		c0.6,0.6,1.5,0.8,2.3,1.1c1.8,0.6,3.5,0.4,5.2-0.2c0.9-0.4,1.8-0.8,2.7-1.2c0.4-0.2,0.9-0.4,1.4-0.4c0.3,0,0.7,0.2,1,0.3
		c-0.2,0.2-0.3,0.4-0.5,0.5c-1,0.4-1.9,0.9-2.9,1.3c0,0.1,0,0.2,0,0.3c0.5,0.3,0.9,0.6,1.4,0.8c1.7,1,3.4,1.4,5.4,0.8
		c1-0.3,1.9-0.6,2.2-1.7c0.5-1.5,0.9-3.1,0.7-4.7c-0.2-1.5-0.3-3.1-0.6-4.6c-0.3-1.7-0.9-3.3-1.3-4.9c-0.3-1-1-1.7-1.8-2.5
		C174.1,131.2,174,132.9,172.8,134.4z M194.4,142c0.8-0.5,1.2-1.6,1.1-2.2c-0.1-1.6-0.2-3.2-0.3-4.8c-0.1-1.5-0.2-3.1,0.1-4.6
		c0.1-0.3,0.2-0.5,0.4-0.8c0.1,0,0.1,0,0.2,0c0.1,0.3,0.3,0.6,0.3,0.9c0,1,0,1.9,0,2.9c0,0.5,0.1,0.9,0.2,1.4c0.1,0,0.2,0,0.2,0
		c0.8-1,1.6-2,2.4-3c1.1-1.3,0.9-2.7,0.6-4.2c-0.3-1.3-1.2-2.2-2.1-3.1c-1.2-1.4-2.7-2.3-4.3-3.1c-1.4-0.7-2.8-1.2-4.3-1.5
		c-1.2-0.2-2.4-0.4-3.7-0.4c-0.8-0.1-1.5,0.1-2.2,0.1c0,1,0,2,0,2.9c3.7,0.6,6.1,1.4,6.5,2.4c-2.1-1-4.3-1.3-6.5-1.1
		c-0.3,0.7,0.2,0.8,0.6,1c1.3,0.5,2.4,1.3,3.5,2.2c0.1,0.1,0.2,0.3,0.3,0.5c0,0-0.1,0.1-0.1,0.1c-0.1-0.1-0.2-0.1-0.3-0.2
		c-1-0.5-2-1.1-3-1.6c-1.1-0.5-1.1-0.4-1.4,0.7c0,0,0,0,0,0.1c-0.3,0.8-0.6,1.6-0.8,2.5c0.2,0.1,0.5,0.2,0.7,0.4
		c2.1,1.2,4.2,2.4,5.9,4c1.3,1.2,2.7,2.3,3.9,3.7C193.5,138.3,194.5,139.9,194.4,142z M226.7,108.8c0-0.1-0.1-0.2-0.1-0.2
		c-0.7,0.1-1.3,0.1-2,0.1c-1.1,0-2.2,0-3.2-0.1c-1.3-0.1-2.7-0.3-4-0.6c-2.7-0.6-5.1-1.7-7.5-3.1c-0.2-0.1-0.5-0.2-0.7-0.2
		c-0.9,0.1-1.9,0.2-2.8,0.3c-2.2,0.1-4-0.8-5.3-2.6c-0.7-1-1.3-2.1-1.5-3.4c0-0.2-0.2-0.3-0.3-0.4c-0.6-0.4-1.3-0.8-1.8-1.2
		c-1.1-1-2.2-2.1-3.3-3.1c-0.2-0.2-0.3-0.4-0.4-0.6c-0.1,0-0.1,0.1-0.2,0.1c0.2,0.6,0.4,1.2,0.7,1.7c0.9,1.5,1.9,3,2.9,4.4
		c1.2,1.8,2.3,3.7,3.1,5.8c0,0.1,0.1,0.3,0.2,0.4c0.6,0.4,1.1,0.9,1.7,1.3c1.4,1,3,1.7,4.6,2.4c2.4,1.1,4.8,1.6,7.4,1.7
		c0.6,0,1.2,0,1.8,0c1,0,2,0,3,0c2-0.1,4-0.7,5.9-1.5C225.4,109.7,226,109.2,226.7,108.8z M254.8,36.9c-1.3,0.1-2.2,0-3.1,0.2
		c-2.2,0.4-4.3,0.9-6.4,1.8c-0.8,0.3-1.1,0.9-1.3,1.6c-0.2,0.6,0,0.9,0.5,1.3c2.9,1.8,5.6,3.8,7.6,6.6c0.2,0.2,0.4,0.2,0.6,0
		c1-1,2.1-2,3-3.2c1.6-1.8,2.6-3.9,2.9-6.4c0.1-0.9-0.1-1.3-1.1-1.5C256.5,37.1,255.4,37,254.8,36.9z M238.8,35.9
		c-0.4-1.6-0.9-3.2-1.3-4.8c-0.5-2-1.8-3.6-3.5-4.7c-0.6-0.4-1.2-0.4-1.8,0c-1.6,1.2-2.8,2.8-3.5,4.7c-0.8,1.8-1.3,3.6-1.5,5.5
		c-0.1,0.8,0,1,0.9,1c1.1,0,2.2-0.1,3.3,0c1.6,0.1,3.1,0.4,4.7,0.5c0.2,0,0.6,0,0.6-0.2C237.2,37.1,237.9,36.4,238.8,35.9z
		 M166.5,125.7c-0.4-0.1-0.8-0.4-1.3-0.3c-1.3,0.4-2.7,0.7-4,1c-1.8,0.4-3.7,0.7-5.5,1c-1.3,0.2-2.7,0.4-4,0.4
		c-1.6,0.1-3.2,0-4.9-0.1c-0.9,0-1.8-0.2-2.7-0.3c-0.7-0.1-1.4-0.2-2.1-0.3c0,0,0,0.1,0,0.1c0.7,0.5,1.4,1,2.2,1.3
		c1.6,0.7,3.3,1.4,4.9,2c2,0.8,4.2,1.2,6.4,1.4c1.5,0.1,3,0.1,4.5,0.1c0.2,0,0.5-0.1,0.7-0.3c0.7-0.7,1.3-1.6,2-2.3
		C163.8,128.3,165.1,127,166.5,125.7z M168.9,126c-0.1,0-0.1-0.1-0.2-0.1c-0.2,0.1-0.4,0.3-0.6,0.4c-0.4,0.3-0.8,0.7-1.2,1.1
		c-1.2,1.1-2.4,2.1-3.5,3.3c-1.5,1.6-2.8,3.3-3.8,5.2c-0.8,1.4-1.6,2.9-1.4,4.6c0.1,1.2,0.7,1.8,1.6,1.3c1.1-0.5,2.3-1.2,3.1-2.2
		c1.1-1.3,2-2.9,2.7-4.5c1-2.2,1.8-4.5,2.7-6.8C168.6,127.6,168.7,126.8,168.9,126z M180.7,129.9c0,0.2,0,0.3,0,0.4
		c0.2,0.8,0.3,1.5,0.6,2.3c0.6,1.8,1.4,3.4,2.5,4.9c1.1,1.6,2.5,3,4.1,4.1c0.9,0.6,1.8,0.8,2.8,0.8c0.5,0,1.3-0.2,1.4-0.8
		c0.4-1.5,0.1-2.8-0.9-4c-0.8-0.9-1.8-1.8-2.7-2.6c-0.7-0.6-1.5-1.2-2.2-1.8c-1-0.7-2.1-1.5-3.2-2.1
		C182.3,130.7,181.6,130.3,180.7,129.9z M172.3,125.4c1.6,1.4,3.2,2.8,4.8,4.2c0.1,0,0.3-0.1,0.4-0.2c1.2-0.5,2.3-1,2.9-2.3
		c0.7-1.6,1.2-3.2,1.4-4.9c0.1-0.6,0-1.3,0-2c-0.4,0.2-0.7,0.4-1.1,0.5c-1.7,0.8-3.4,1.5-5.3,1.5c-0.2,0-0.4,0.2-0.5,0.4
		C174.3,123.7,173.4,124.7,172.3,125.4z M242.6,40.6c0.3-0.6,0.5-1.2,0.8-1.8c0.1-0.2,0-0.6-0.1-0.6c-0.7-0.4-1.5-0.8-2.3-1.2
		c-0.3-0.1-0.6-0.3-0.9-0.2c-1.1,0.2-2,0.9-2.6,1.8C239.3,39.3,240.9,39.9,242.6,40.6z M181.3,178.3c-0.9-1.8-1.8-3.5-2.5-5
		c0.3,1.6,0.7,3.4,1,5.2C180.3,178.5,180.8,178.4,181.3,178.3z"/>
	<path d="M239.1,190.4c-0.5,0.6-1,1.1-1.4,1.7c-0.7,1.2-1.3,2.5-1.8,3.8c-0.3,0.6-0.4,1.3-0.5,1.9c-0.1,0.6-0.4,0.5-0.8,0.5
		c-0.4-0.1-0.7-0.3-0.6-0.8c0.1-0.9,0.1-1.7,0.1-2.6c-0.1-1.9-0.5-3.8-1.5-5.7c-0.2,0.6-0.3,1.1-0.4,1.5c-0.4,1.4-0.7,2.8-0.7,4.2
		c0.1,0.9,0.4,1.8,0.5,2.7c0.1,0.3,0,0.6,0,0.9c-0.3,0-0.7,0.1-0.9-0.1c-1.4-0.8-2.9-0.9-4.5-0.9c-0.8,0-1.6,0.2-2.5,0.2
		c-0.2,0-0.3,0-0.5,0c0.1-0.2,0.1-0.5,0.2-0.6c0.5-0.3,1-0.6,1.5-0.7c1.2-0.3,2.5-0.4,3.8-0.1c0.2,0,0.5,0,0.7,0
		c-0.1-0.9-0.3-1.7-0.4-2.6c-0.1-1.2,0.4-2.3,0.8-3.3c0.3-0.9,0.6-1.7,0.9-2.6c0.3-0.9,0.9-1.1,1.6-0.4c1.2,1.3,1.8,2.9,2.2,4.5
		c0.1,0.3,0.1,0.6,0.2,1c0.5-0.8,0.9-1.5,1.3-2.1c0.8-1.3,1.7-2.3,3.2-2.8c0.5-0.2,0.8-0.1,0.9,0.5c0.1,0.6,0.2,1.2,0.2,1.8
		c0,1.3-0.1,2.5-0.1,3.7c0.5-0.4,1.1-1,1.8-1.5c0.5-0.3,1.1-0.5,1.7-0.7c0.4-0.1,0.6,0.1,0.7,0.5c0.3,1.4-0.2,2.6-0.6,3.8
		c-0.1,0.3-0.2,0.5-0.4,0.8c1.9,0.1,3.7,0.3,5.7,0.4c-0.2,0.2-0.3,0.4-0.4,0.5c-0.7,0.2-1.3,0.3-2,0.4c-1,0.1-2,0.1-3,0.3
		c-0.5,0.1-1,0.4-1.5,0.6c-0.2,0.1-0.3,0.2-0.5,0.3c-0.4,0.2-0.8,0.2-1.1-0.2c-0.2-0.4-0.1-0.7,0.2-1c0.8-0.8,1.2-1.9,1.6-3
		c0.2-0.4,0.3-0.8,0.4-1.2c-0.1,0-0.1-0.1-0.2-0.1c-0.7,0.6-1.4,1.2-2,1.9c-0.8,0.8-1.4,1.7-2.1,2.6c-0.4,0.5-1,0.5-1.3,0
		c-0.1-0.1-0.1-0.5,0-0.6c0.9-1.4,1.4-3,1.5-4.7c0.1-0.8,0-1.7-0.1-2.6C239.2,190.4,239.2,190.4,239.1,190.4z"/>
	<path d="M213.5,94.9c0.5-0.4,0.7-0.3,1.2,0.1c0.7,0.6,0.8,1,0.4,1.6c-0.2,0.3-0.4,0.5-0.9,0.5c0.1-0.2,0.1-0.4,0.2-0.6
		c-1.2,0.2-2.2,0.8-3.3,1.5c-0.9,0.6-1.9,1.1-3,1.5c-1.6,0.5-3.9-0.5-4.5-1.8c-0.4-1-0.3-2-0.3-3.1c0-0.5,0.1-1,0.1-1.5
		c0-0.1-0.2-0.3-0.3-0.4c-1.3-0.8-2-1.9-2.1-3.4c0-0.3,0-0.6-0.1-0.9c0,0-0.1,0-0.1,0c-0.2,0.1-0.5,0.1-0.7,0.2
		c0.1-0.2,0.1-0.6,0.2-0.7c0.8-0.9,1.9-0.8,2.7,0.2c-0.3,0.4-0.7,0.2-1.1,0.1c-0.3,0.9,0,1.7,0.4,2.5c0.9,1.7,2.8,2.2,4.3,1.9
		c0.2,0,0.4-0.3,0.5-0.5c0.3-0.6,0.5-1.3,0.9-2c0.2-0.3,0.2-0.5,0-0.8c-0.8-1.1-1.4-2.3-1.6-3.6c-0.1-0.5-0.1-1-0.1-1.6
		c0.1-0.7,0.7-1,1.4-1c2,0.1,3.7,0.9,5.3,2.1c0.9,0.7,1.9,1.4,2.2,2.6c0.3,0.9-0.1,1.7-1,1.9c-1,0.2-2,0.3-2.9,0.3
		c-0.7,0-1.4-0.1-2.1-0.1c-0.1,0-0.3,0.1-0.3,0.2c-0.5,0.9-0.9,1.7-1,2.8c0,0.8,0.4,1.3,0.8,1.9c1.1,1.5,2.6,2,4.4,1.6
		c0.3-0.1,0.6-0.1,0.9-0.2c0.3-0.1,0.4-0.3,0.1-0.5C213.9,95.2,213.7,95.1,213.5,94.9z M211.3,96.9c-0.4-0.1-0.8-0.1-1.1-0.2
		c-1.2-0.7-2.5-0.6-3.7-0.2c-0.3,0.1-0.5,0-0.8,0c0.2-0.2,0.3-0.5,0.5-0.7c0.3-0.2,0.2-0.4,0-0.5c-0.5-0.5-1.1-0.9-2-1
		c0,0.6,0,1.2,0,1.8c-0.1,1.5,1.3,2.4,2.5,2.5C208.4,98.7,209.8,97.9,211.3,96.9z M211,85.3c-0.1,1.3,1.8,2.8,3.1,2.7
		C214.2,86.8,212.4,85.2,211,85.3z M207.9,95.2c-0.3-0.8-0.6-1.5-0.9-2.2c-0.9,0.4-1.9,0.4-2.9,0.2c0.1,0.2,0.2,0.3,0.4,0.4
		c0.7,0.4,1.4,0.7,2,1.2C207,95.2,207.3,95.4,207.9,95.2z"/>
	<path d="M230.1,90.7c0.8,0.5,1.8,0.8,2.2,1.8c-0.2-0.1-0.3-0.1-0.5-0.2c-0.9-0.6-1.8-0.9-2.9-1c-1.3-0.1-2.7-0.1-4-0.4
		c-3-0.7-4.2-3.6-2.4-6.2c1.2-1.7,2.8-3.1,5-3.6c0.1,0,0.1-0.1,0.2-0.2c-0.8-1.1-1-2.2-0.7-3.5c0-0.1,0.2-0.2,0.3-0.3
		c0.7,2.8,0.9,3.2,1.9,3.8c-0.4-1.5-0.1-2.8,0.7-4c0.1,0,0.1,0,0.2,0c0,0.3,0,0.6-0.1,0.9c-0.2,1.1-0.3,2.1,0.3,3.1
		c0.1,0.3,0.4,0.5,0.7,0.7c0.2-1.3,0.7-2.5,1.7-3.3c0.1,0,0.1,0,0.2,0.1c-0.2,0.6-0.4,1.3-0.7,1.9c-0.4,1-0.2,1.9,0.1,2.8
		c0.2,0.7,0.5,1.4,0.7,2.1c0.1,0.4-0.1,0.8-0.2,1.2c-0.3,1.7-1.2,2.9-2.6,3.9C230.3,90.5,230.2,90.6,230.1,90.7z M222.3,87.4
		c0.1-0.2,0.2-0.2,0.2-0.3c0.9-1.3,2.1-2,3.8-1.8c0.8,0.1,1.5,0.3,1.9,1.1c0.5,1.1,0.3,2.1-0.3,3.1c-0.2,0.3-0.4,0.5-0.6,0.8
		c0.2,0,0.4,0,0.6,0c0.6,0,1.2,0.2,1.8-0.2c1.3-1,2.2-2.3,2.5-3.9c0.3-1.2,0.1-2.3-0.7-3.1c-1.3-1.4-2.9-1.5-4.6-0.9
		c-1.5,0.5-2.7,1.5-3.6,2.8C222.7,85.6,222.5,86.4,222.3,87.4z M226.1,89c0.5-0.2,0.8-0.6,0.9-1.1c0-0.2,0-0.3,0-0.5
		c-0.2,0.1-0.4,0.1-0.5,0.2C226.1,88,225.9,88.4,226.1,89z"/>
	<path d="M204.3,64.6c0.2,1.5-0.1,3,1.2,4.1c-0.2-1.6,0.1-3,0.9-4.3c0.1,0,0.1,0,0.2,0c-0.1,0.7-0.2,1.3-0.3,2
		c-0.1,0.8-0.2,1.7,0.4,2.5c0.4-1.1,0.9-2.2,2.2-2.6c-0.1,0.2-0.2,0.5-0.4,0.7c-0.5,0.8-0.8,1.6-0.7,2.5c0,0.4,0.1,0.8,0.3,1.1
		c0.8,1.2,0.8,2.8,0,4c-0.7,1.1-1.4,2.1-2.5,2.9c-1.2,0.9-2.5,1.7-4.1,1c-0.7-0.3-1.4-0.9-1.9-1.5c-1.2-1.4-2.5-2.4-4.4-2.3
		c0,0-0.1,0-0.2,0c0.4-0.7,1.3-0.7,3-0.2c0.5-0.7,1-1.4,1.5-2c1-1.2,2.1-2.1,3.5-2.7c0.4-0.2,0.8-0.3,1.2-0.5c0.1,0,0.1-0.3,0.1-0.4
		c-0.6-1.2-0.9-2.4-0.4-3.7C204,64.9,204.2,64.8,204.3,64.6z M203,77.8c0,0,0.1,0.1,0.1,0.1c0.8-0.5,1.7-0.8,2.4-1.4
		c1.2-1,2.4-2.2,2.2-4c-0.2-1.5-1.1-2.4-2.2-2.5c-1-0.2-2,0.2-2.9,0.7c-0.8,0.5-1.5,1-2.2,1.6c-0.6,0.6-1,1.4-1.5,2.1
		c0.1,0.1,0.1,0.1,0.2,0.2c0.1-0.2,0.2-0.3,0.3-0.5c0.7-0.8,1.6-1.2,2.7-1.1c1.2,0.1,2.1,0.8,2.1,2.1C204.2,76.2,203.6,77,203,77.8z
		 M202.7,74.9c-0.5,0.2-0.9,0.6-0.9,1.2c0,0.1,0,0.2,0,0.2c0.1,0,0.2,0,0.2,0C202.5,75.9,202.8,75.5,202.7,74.9z"/>
	<path d="M262.2,56.8c0,1.3-0.9,2.4-1.6,3.5c-0.5,0.7-1.2,1.2-1.9,1.8c-0.3,0.3-0.6,0.1-0.7-0.3c-0.2-0.5-0.5-1-0.6-1.5
		c-0.4-1.3-1.1-2.4-1.8-3.5c-0.5-0.8-0.1-2,0.8-2.3c1.9-0.5,3.7-0.6,5.6,0.2c0.4,0.2,0.7,0.4,1,0.6c0.3,0.3,0.4,0.9,0.1,1.2
		C262.9,56.8,262.5,56.7,262.2,56.8z M258.7,60.4c0.1,0,0.2-0.1,0.3-0.2c0.5-0.7,1.1-1.3,1.6-2.1c0.3-0.4,0.4-1,0.5-1.5
		c0.1-0.3,0-0.6-0.4-0.7c-1-0.4-2-0.2-3,0c-0.4,0-0.7,0.2-1,0.2C257.4,57.5,258.1,58.9,258.7,60.4z"/>
	<path d="M211.8,43.6c-0.4,0-0.8-0.6-0.6-1c0.3-0.7,0.4-1.5,0.7-2.2c0.8-1.5,1.6-2.8,3.2-3.7c0.6-0.3,1.2-0.2,1.7,0.2
		c1.1,0.9,1.6,2.2,2,3.5c0.1,0.4-0.2,0.5-0.5,0.6c-1.8,0.2-3.3,1-4.9,1.8c-0.4,0.2-0.8,0.4-1.2,0.6C212,43.4,211.9,43.5,211.8,43.6z
		 M212.9,41.2c1.5-0.6,3-1.1,4.5-1.7c0,0,0-0.1-0.1-0.2c-0.8-1.6-1.3-1.8-2.6-0.7C213.9,39.3,213.3,40.2,212.9,41.2z"/>
	<path d="M209.6,81.4c2.4,0.5,4.9,0.9,6.9,2.7c1,0.9,1.6,2.2,2.1,3.4c0.1,0.3,0.3,0.7,0.4,1c0.1,0.2,0,0.4,0,0.6
		c-0.3-0.1-0.6,0-0.8-0.2c-0.2-0.2-0.3-0.5-0.5-0.8c-0.9-1.6-2.1-2.9-3.6-3.9c-0.9-0.5-1.9-0.9-2.8-1.2c-1-0.3-2-0.5-3-0.7
		c-0.1,0-0.3-0.2-0.3-0.4c0-0.1,0.1-0.4,0.3-0.4C208.7,81.5,209.1,81.5,209.6,81.4z"/>
	<path d="M215.7,53.9c-0.3,0.1-0.4,0.3-0.6,0.2c-1.7-0.5-3.2-0.1-4.7,0.8c-0.4,0.2-0.7,0.6-1.1,0.8c-0.1,0.1-0.4,0.1-0.5,0.2
		c0-0.2,0-0.4,0.1-0.5c1.4-2.1,3.9-2.8,6.3-1.9C215.3,53.6,215.4,53.8,215.7,53.9z"/>
	<path d="M239.8,66.3c1.2,0.1,1.8,0.8,2.1,1.7c0.6,1.4,0.5,2.8,0.2,4.2c0,0.2-0.2,0.4-0.3,0.7c-0.3-0.2-0.4-0.3-0.3-0.7
		c0.3-1.9,0.1-3.8-1.4-5.2C240,66.8,240,66.6,239.8,66.3z"/>
	<path d="M170.4,116c2.5,1.1,5-0.2,6-2.2c0.2-0.4,0.1-0.6-0.4-0.8c-0.2-0.1-0.4-0.3-0.8-0.5c0.8-0.3,1.8-0.2,2.1,0.3
		c0.3,0.4,0.8,0.8,0.3,1.5c-0.2-0.1-0.3-0.2-0.5-0.4c-0.3,0.3-0.5,0.7-0.8,1c-0.6,0.8-1.3,1.5-2.2,1.9c-0.6,0.3-0.7,0.8-0.9,1.2
		c-0.4,0.8-0.7,1.7-1.1,2.5c-0.6,1-1.8,1.3-2.9,1.1c-1.1-0.3-2-0.9-2.8-1.7c-0.6-0.5-1.2-0.9-1.9-1.2c-0.7-0.3-1.3-0.6-2-1
		c-0.2-0.1-0.3-0.1-0.6-0.2c0,0.3,0,0.5,0,0.8c0,0.2-0.2,0.3-0.3,0.5c-0.2-0.1-0.4-0.2-0.5-0.4c-0.5-1,0.1-2.1,1.3-2.5
		c0.3-0.1,0.7-0.4,1,0.1c-0.4,0.3-0.7,0.5-1.1,0.8c1,0.8,2,1.2,3.1,1.4c1.9,0.3,3.8-0.9,4.1-2.8c0.1-0.8-0.1-1.8-0.3-2.6
		c-0.2-0.7-1-0.8-1.6-0.9c-0.8-0.2-1.6-0.3-2.3-0.6c-1.6-0.5-1.4-1.5-0.5-2.4c1.2-1.1,2.6-1.7,4.2-2.1c1.1-0.2,2.1-0.4,3.2-0.2
		c1.3,0.2,2,1.4,1.4,2.7c-0.6,1.4-1.7,2.4-2.9,3.2c-0.3,0.2-0.5,0.5-0.5,0.9C170.5,114.3,170.4,115.1,170.4,116z M170.7,117.8
		c0.3,0.3,0.4,0.5,0.5,0.7c0.1,0.1,0,0.3,0,0.4c-0.1,0-0.2,0-0.3,0c-0.4-0.2-0.7-0.4-1.1-0.5c-0.3-0.1-0.7-0.1-0.9,0
		c-0.5,0.3-1,0.7-1.6,1.1c0.5,0.4,1,0.9,1.6,1.1c0.6,0.2,1.3,0.3,1.8,0.2c0.9-0.2,1.8-1.5,1.8-2.5c0-0.1-0.1-0.2-0.2-0.2
		C171.9,117.9,171.3,117.9,170.7,117.8z M169,108.1c0,0.1,0,0.1,0,0.2c0.2,0.1,0.3,0.2,0.5,0.3c0.9,0.3,1.7,0.1,2.6-0.2
		c0.2-0.1,0.4-0.4,0.6-0.6c-0.3-0.2-0.5-0.4-0.8-0.5c-0.1-0.1-0.3,0-0.4,0c-0.3,0.1-0.7,0.1-1,0.2
		C169.9,107.6,169.5,107.8,169,108.1z"/>
	<path d="M143.9,111.2c0.9-1.1,2.2-1.4,3.6-1.6c-0.2-0.7-0.4-1.4-0.5-2.1c-0.3-2-0.2-4,1.4-5.6c0.4-0.4,0.9-0.7,1.2-1.2
		c0.5-0.8,0.7-1.7,0.5-2.7c0-0.1,0-0.2,0-0.4c0.6,0.5,0.6,0.6,0.2,3.2c1.2-1.1,1.8-2.4,2.1-3.9c0.5,0.4,0,2.3-0.9,3.8
		c0.5,0.1,1.1-0.3,1.6-0.9c0.3-0.5,0.7-1.1,1-1.6c0.1,0,0.1,0,0.2,0c0,0.1,0,0.3,0,0.4c-0.2,1.1-0.7,2-1.6,2.8
		c1.7,1.3,2.6,2.9,2.6,5.1c0,0.8,0,1.6-0.4,2.4c-0.4,0.9-1.1,1.4-1.9,1.9c-0.9,0.5-1.8,0.5-2.7,0.3c-0.9-0.1-1.7-0.4-2.6-0.5
		c-1.1-0.1-2,0.3-3,0.7c-0.2,0.1-0.5,0.1-0.8,0.1C143.9,111.4,143.9,111.3,143.9,111.2z M151.2,101.9c-1.1-0.1-2,0.3-2.6,1.2
		c-1.2,1.8-1.4,3.8-0.7,5.9c0.1,0.3,0.4,0.7,0.6,0.7c1.1,0.2,2.3,0.5,3.5,0.4c1.1-0.1,2.3-1.1,2.5-2.3c-0.2,0.1-0.3,0.2-0.5,0.2
		c-0.7,0.4-1.4,0.5-2.1,0.1c-0.5-0.3-1-0.8-1.3-1.2c-0.7-0.8-0.9-1.9-0.8-2.9C149.8,102.9,150.4,102.3,151.2,101.9z M150.9,104.3
		c0,0,0.1,0.1,0.1,0.1c0,0.1,0,0.2,0,0.3c0.1,0.2,0.2,0.3,0.2,0.4c0.1-0.1,0.3-0.2,0.4-0.3c0.1-0.1,0.1-0.3,0.1-0.4
		c0-0.4,0.1-0.8-0.4-0.9C151.3,103.5,151.1,104.1,150.9,104.3z"/>
	<path d="M177.6,92.8C178,93,178,93,178,94.1c0,0.5-0.1,1-0.1,1.6c1.6-0.8,2.1-2.2,2.6-3.7c0.5,1.6-0.4,2.7-1.2,3.9
		c1.9-0.2,2.9-1.6,3.7-3.2c0.5,0.8-0.6,2.7-2.3,3.9c1.7,1.5,3.2,3.1,3.4,5.5c0.9-0.1,1.8-0.2,2.8-0.3c0,0.1,0,0.2,0.1,0.3
		c-0.3,0.1-0.6,0.2-1,0.3c-1.4,0.3-2.7,1-3.9,1.8c-0.6,0.4-1.3,0.8-2,1.2c-1.4,0.6-2.8,0.1-3.7-1.1c-1-1.2-1.6-2.7-1.5-4.3
		c0.1-1.4,0.6-2.7,1.7-3.8c0.4-0.4,0.6-1.1,0.8-1.7C177.4,94,177.5,93.4,177.6,92.8z M178.2,96.8c-0.1-0.1-0.2-0.1-0.3-0.1
		c-0.7,0.1-1.2,0.4-1.7,1c-1.2,1.6-1,4,0,5.5c1.2,1.8,2.5,2.1,4.3,0.8c0.8-0.5,1.6-1.1,2.4-1.6c0.5-0.3,0.6-0.4,0.3-1
		c-1.2,1.2-2.8,1.3-4.1,0.3C177.5,100.4,177,98.3,178.2,96.8z M179.2,99.7c0.5-0.6,0.5-1.5-0.2-1.9
		C178.6,98.4,178.7,99.2,179.2,99.7z"/>
	<path d="M129.6,77.5c0.1-0.6,0.1-1.2,0.2-1.9c0.1-0.6,0.4-1,0.9-1.3c1-0.5,2.1-0.8,3.3-0.6c0.8,0.1,1.5,0.3,2.3,0.6
		c0.7,0.3,0.8,1,0.1,1.5c-1.9,1.5-3.4,3.2-4.3,5.5c-0.1,0.3-0.3,0.7-0.7,0.6c-0.4-0.1-0.8-0.3-1-0.6
		C129.7,80.1,129.5,78.8,129.6,77.5z M134.9,75.3c-1-0.4-1.9-0.5-2.9-0.2c-0.5,0.1-0.6,0.4-0.7,0.9c-0.2,1.2-0.1,2.3,0.1,3.6
		C132.3,77.8,133.3,76.4,134.9,75.3z"/>
	<path d="M181.1,63.1c0.3,0.8,0.6,1.5,0.8,2.3c0.3,1.3,0.3,2.5-0.1,3.8c0,0.1-0.1,0.2-0.1,0.4c-0.1,0.6-0.5,0.8-1,0.3
		c-1.3-1.3-2.9-2.4-4.5-3.3c-0.1-0.1-0.3-0.1-0.4-0.2c-0.7-0.3-0.9-1.1-0.3-1.7c0.8-0.8,1.5-1.7,2.5-2.2c1-0.5,2.1-0.8,3.2-0.7
		c0.3,0,0.5,0.2,0.7,0.4c0.3,0.2,0.2,0.6-0.2,0.7C181.4,63.1,181.3,63.1,181.1,63.1z M176.6,65.1c1.4,0.9,2.7,1.8,4,2.6
		c0.3-1.5,0-2.8-0.7-4.1c-0.2-0.3-0.4-0.3-0.6-0.2C178.4,64,177.5,64.6,176.6,65.1z"/>
	<path d="M174.3,106c-0.9,0-1.7,0.1-2.6,0.1c-2.7,0.1-5.3,0.8-7.7,2.2c-1.6,1-3,2.2-4.2,3.7c-0.2,0.3-0.7,0.5-1,0.6
		c-0.1,0-0.3,0-0.4-0.1c-0.1-0.1,0-0.3,0-0.4c0.9-1.6,2-3,3.4-4.2c1.4-1.2,3-2.1,4.8-2.5c0.9-0.2,1.8-0.4,2.7-0.4
		c0.9-0.1,1.8-0.1,2.7-0.1c0.6,0,1.2,0.2,1.7,0.3c0.2,0.1,0.4,0.4,0.6,0.6C174.4,105.8,174.3,105.9,174.3,106z"/>
	<path d="M142.6,91.2c0.3-1.8,0.8-3.5,2.6-4.5c0.1-0.1,0.2-0.1,0.4-0.1c0.2,0,0.3,0.1,0.5,0.1c-0.1,0.1-0.1,0.4-0.2,0.4
		c-1.7,1-2.1,2.7-2.6,4.4c-0.1,0.2-0.3,0.3-0.4,0.5c-0.1-0.2-0.2-0.4-0.2-0.6C142.6,91.3,142.6,91.2,142.6,91.2z"/>
	<path d="M176.5,81.5c0.4,0,0.8,0,1.2,0.1c1.4,0.4,2.7,1,3.1,2.6c0.1,0.3,0.2,0.6,0.2,0.9c0,0.1-0.1,0.3-0.2,0.4
		c-0.1-0.1-0.3-0.1-0.3-0.2c-0.4-0.6-0.7-1.1-1.1-1.7c-0.5-0.7-1.2-1.1-2.1-1.3C177,82.2,176.4,82.4,176.5,81.5z"/>
</g>
<g>
	<path d="M103.5,181.2c1.1,0.3,2.3,0.6,3.4,0.9c1.5,0.4,3.1,0.6,4.5,1.2c0.8,0.3,1.7,1.4,1.6,2.1c0,0.7-0.9,1.9-1.7,2.1
		c-1.8,0.4-3.8,0.6-5.6,0.6c-3-0.1-6-0.7-9.1-0.9c-2.1-0.1-2.4,0.6-1.5,2.4c2.1,4,0.9,6.6-3.7,7.2c-2.1,0.3-4.3,0.3-6.5,0
		c-6.1-0.8-11.3,1.3-16.4,4.3c-0.9,0.6-1.8,1.6-2.9,0.5c-0.1-0.1,0.9-1.9,1.7-2.4c5.4-3.5,11.3-5.1,17.9-4.3
		c2.3,0.3,4.8,0.1,7.2-0.4c2.3-0.5,2.4-1.5,1.3-3.5c-0.3-0.5-0.6-1.1-0.9-1.7c-0.7-1.9,0-3.5,1.9-3.8c2-0.3,4,0,6.1,0.1
		c2.7,0.2,5.3,0.4,8,0.6c0.7,0,1.5-0.3,2.2-0.5c0-0.2,0-0.5,0-0.7c-1.7-0.4-3.4-0.7-5.1-1.2c-1.4-0.4-2.7-1-4.1-1.4
		c-0.6-0.2-1.3-0.3-1.9-0.1c-11.6,4.2-23.9-3.3-26-15.3c-1.8-10.2,6-21.1,16.4-22.4c11.8-1.5,21.8,6.4,22.5,18.3
		c0.4,6.6-2,12.4-7.7,16.4c-0.6,0.4-1.2,0.9-1.8,1.3C103.5,180.8,103.5,181,103.5,181.2z M87.8,172.4c0.7,0.4,1.3,0.8,2.1,1.1
		c0.3,0.1,0.7,0,1.1,0c-0.1-0.4,0-0.9-0.3-1.1c-1.5-1.3-3.1-2.6-4.6-3.9c0,0.8,0.2,1.4,0.5,2C87,171.2,87.4,171.8,87.8,172.4
		c-0.3-0.1-0.7-0.3-1.1-0.4c-0.2,1.7,0.9,2.5,2,3.2c0.3,0.2,0.8-0.2,1.5-0.4C89.2,173.8,88.5,173.1,87.8,172.4z M102.9,175.2
		c-0.3-1.6-0.6-3.1-0.9-4.7c-0.1,0-0.3,0.1-0.4,0.1c0.2,1.2,0.4,2.4,0.6,3.7c-0.1,0-0.2,0-0.3,0c-0.3-0.8-0.6-1.5-0.8-2.3
		C101.3,173.3,100.7,175.2,102.9,175.2c-0.6,0.4-1.1,1-1.8,1.2c-3.5,1-7,1.9-10.3,2.8c4,1.9,18.9-4.4,20.1-9.1
		c-0.8,0.6-1.3,1.2-1.9,1.5C107.1,172.8,105,174,102.9,175.2z M83.8,179.2c1.2,0.6,2.5,1.3,3.7,1.9c1.3,0.6,2.7,1.1,4.1,1.7
		c-2.4-1.8-5.1-3.2-7.4-5c-1.7-1.3-3-3.2-4.5-4.8c0.5,0.4,1,0.7,1.4,1.2c3.5,3.7,7.6,6.5,12.5,8.1c0.7,0.2,1.4,0.3,2.2,0.4
		c-10.8-4-17.7-11.4-21-22.4c0,1.4,0,2.9,0.6,4.1c1.3,3,2.9,5.8,4.4,8.7c-1.8-2.5-3.5-4.9-5.5-7.7c0.4,1.4,0.7,2.5,1.1,3.5
		c0.4,1.1,0.9,2.1,1.4,3.1c-0.1,0.1-0.3,0.3-0.3,0.4c1.5,3.6,4.2,5.9,7.8,8.1C84.1,179.7,84,179.5,83.8,179.2z M98.1,174.8
		c-0.3,0.7-0.6,1.4-1,2.3c1.4-0.5,2.6-0.9,3.8-1.4c-0.2-1-0.4-1.9-0.5-2.7C99.5,173.7,98.8,174.3,98.1,174.8
		c0.4-0.6,0.7-1.3,1.1-1.9c4.9-7.3,6.4-15.2,4.5-23.7c-0.2-0.8-0.9-1.4-1.3-2.1c-0.2,0.1-0.3,0.2-0.5,0.3c3,11.5,0.4,21.5-7.7,30.2
		c0.1,0.1,0.2,0.2,0.3,0.3C95.7,176.8,96.9,175.8,98.1,174.8z M95.8,171.9c0.4-0.8,0.7-1.7,1.1-2.5c3.8-7,4.7-14.4,2.6-22.1
		c-0.2-0.6-0.5-1.1-0.8-1.6c-0.2,0-0.4,0-0.6,0.1c3,12.6-0.5,23.1-9.8,32c0.8,0.1,1.6,0,2-0.4c1.6-1.3,3-2.7,4.5-4.1
		c-1.2,1.6-2.4,3.1-3.6,4.7c0.2,0.1,0.4,0.3,0.5,0.4c4.5-3.2,7.3-7.8,9-13c2.1-6.2,2.1-12.5-0.4-18.7c1.2,5.4,1.3,10.8-0.1,16.1
		C99.4,166.1,98.3,169.4,95.8,171.9z M102.3,181.6c-0.1,0.1-0.1,0.1-0.2,0.2c0.9,0.4,1.8,0.8,2.8,1c1.9,0.5,3.9,0.8,5.8,1.3
		c0.5,0.1,0.8,0.8,1.2,1.2c-0.4,0.4-0.8,0.9-1.3,1.2c-0.5,0.3-1.2,0.5-1.8,0.4c-2-0.1-3.9-0.3-5.9-0.4c-2.4-0.2-4.8-0.5-7.2-0.5
		c-2.1,0-2.8,1.5-1.9,3.3c0.3,0.6,0.6,1.1,0.9,1.6c1,1.9,0.9,3-1.1,3.7c-1.9,0.7-4.1,1.2-6.1,1c-6.6-0.8-12.7,0-18.5,3.3
		c-1,0.6-1.8,1.3-2.8,1.9c0.1,0.2,0.2,0.3,0.3,0.5c0.5-0.3,1-0.5,1.5-0.8c5.4-3.4,11.1-5.7,17.8-4.5c1.8,0.3,3.9,0.3,5.7-0.1
		c3.8-0.9,5.5-2.5,3-6.2c-1.4-2.1-0.7-3.2,1.8-3.4c0.5-0.1,1.1,0,1.7,0c3.8,0.3,7.5,0.8,11.3,0.8c1,0,2.8-1,3-1.8
		c0.4-1.5-1.4-1.8-2.5-2.1C107.3,182.8,104.8,182.2,102.3,181.6z M86.1,146.9c-0.2-0.2-0.4-0.3-0.7-0.5c-0.7,0.9-1.7,1.6-1.9,2.6
		c-0.9,3.9-1.9,7.8-2.3,11.8c-0.4,4.2,1,10,2.2,12.2C81,164,82.1,155.3,86.1,146.9z M82.3,148.3c-0.5,1-1,1.6-1.2,2.3
		c-1.7,5-2.1,10.2-1.4,15.4c0.3,2,0.2,4.3,1.8,5.6c-0.3-3.7-1-7.5-0.9-11.3C80.7,156.3,81.7,152.5,82.3,148.3z M88.8,145.7
		c-5.3,1.9-7.9,22.8-3.7,29.3C82.1,164.5,83.4,155,88.8,145.7z M93.7,169.5c0.3-0.1,0.5-0.2,0.8-0.2c-0.2-0.6-0.3-1.2-0.6-1.7
		c-1.5-1.9-3.2-3.7-4.7-5.7c-1-1.3-1.7-2.9-2.8-4.8c0,1.6-0.4,2.9,0.1,3.7C88.1,164.3,90.7,167.1,93.7,169.5z M86.7,176.2
		c-1.4-5.1-2.2-10.2-1.6-15.5c0.6-5.3,2.4-10.2,4.9-14.9C83.5,154,82.8,169.1,86.7,176.2z M109.2,170.3c1.7-1.2-1-10.4-4.2-12.6
		C106.3,161.9,107.7,166.1,109.2,170.3z M98.3,158.3c-0.2-0.6-0.1-1.3-0.5-1.6c-2.6-2.3-5.3-4.5-8-6.6c-0.2-0.2-0.7,0-1.1,0
		c0.1,0.3,0.2,0.8,0.4,1C92.1,153.5,95.1,155.8,98.3,158.3z M79.2,167.5c-0.9-5.9-0.5-11.4,0.9-16.8
		C77.6,153.8,76.9,164.4,79.2,167.5z M95,167.5c0.2-0.1,0.4-0.3,0.6-0.4c-1.5-1.8-3.1-3.5-4.5-5.4c-1.4-1.9-2.5-4-3.8-6
		c-0.2,0.1-0.3,0.2-0.5,0.3C88.7,160.5,91.3,164.4,95,167.5z M86,162.3c-0.2,0.1-0.3,0.2-0.5,0.2c1,3.6,4,5.8,6.6,8.2
		c0.2,0.2,0.8,0,1.4,0C90.9,167.8,88.4,165.1,86,162.3z M98.5,155.7c-0.2-3-2.7-3.9-4.5-5.2c-2.9-2.2-3.5-2.3-4.4-1.8
		C92.4,151,95.3,153.2,98.5,155.7z M105.6,173.2c1.8-1.3,0.9-6.8-1.4-10C103.5,166.8,105.9,169.6,105.6,173.2z M89.3,158
		c2.1,2.7,4.1,5.3,6.4,8.3C96.5,164.1,92.9,159.6,89.3,158z M96.8,163.3c-0.5-2.6-7.2-9-9.5-8.9C90.4,157.4,93.6,160.4,96.8,163.3z
		 M105.5,153.9c-0.1,1.3,3.9,5,6.4,5.9C111,156.4,107.9,155.7,105.5,153.9z M93.3,180.3c6-0.3,11.4-2.4,16-6.4
		C104.4,177.4,99.1,179.4,93.3,180.3z M90.7,146.1c2.6,1.7,5,3.2,7.5,4.8C98,148.8,93.4,145.7,90.7,146.1z M76.8,162.3
		c0.3-2.9,0.6-5.7,0.9-8.7C75.4,156.3,75.1,159.2,76.8,162.3z M106.8,157.2c-0.3,0.3-0.6,0.6-0.9,0.9c2.1,1.7,4.1,3.3,6.5,5.2
		C111.4,160,108.8,158.9,106.8,157.2z M88.5,151.8c3.1,2.7,6.2,5.5,9.3,8.1C96.4,157.3,91.4,152.9,88.5,151.8z M91.9,172.1
		c-1.9-1.9-4-3.9-5.9-5.7C86,167.7,89.8,171.6,91.9,172.1z M107,177.1c-3.7,1.4-7.3,2.8-10.9,4.2C100,180.8,103.8,179.7,107,177.1z
		 M92.5,145.2c1.9,1.1,3.6,2,5.3,2.9C97.3,145.1,96.9,144.8,92.5,145.2z M97.4,161.6c-2.4-3.6-5.5-6.5-9.3-8.6
		C91.2,155.8,94.3,158.7,97.4,161.6z M108,171.1c0.2-0.1,0.3-0.1,0.5-0.2c-1-3.3-2-6.6-3-9.8c-0.2,0.1-0.4,0.1-0.6,0.2
		C105.9,164.6,106.9,167.9,108,171.1z M98.3,152.7c0.1-0.2,0.2-0.4,0.3-0.5c-2.6-1.7-5.3-3.5-7.9-5.2c-0.1,0.1-0.2,0.2-0.2,0.4
		C93,149.1,95.6,150.9,98.3,152.7z M104.5,173.6c0.3,0,0.5-0.1,0.8-0.1c-0.5-2.2-1.1-4.4-1.6-6.7c-0.3,0.1-0.5,0.1-0.8,0.2
		C103.5,169.2,104,171.4,104.5,173.6z M108.8,153.3c-0.7-1.8-2-2.9-4.1-3.2C105.3,152.4,107.5,152.2,108.8,153.3z M110.4,156.1
		c0.1-0.2,0.2-0.4,0.3-0.5c-1.7-1-3.3-2-5-3.1c-0.1,0.2-0.2,0.3-0.3,0.5C107.1,154,108.7,155.1,110.4,156.1z"/>
</g>
<g>
	<path d="M90.5,75.6c0.2-0.5,0.3-1.1,0.6-1.6c0.3-0.4,0.8-0.8,1.3-0.9c0.4-0.1,0.8,0.1,0.5,0.7c-0.3,0.8-0.2,1.4,0.4,2
		c0.3,0.3,0.6,0.8,0.8,1c0.8-0.5,1.3-0.9,1.9-1.2c0.7-0.3,1,0,0.9,0.7c-0.1,0.5-0.2,1-0.2,1.5c-0.1,1-0.1,2-0.2,3
		c-0.1,1.1-0.4,2-1.1,2.8c-0.2,0.2-0.4,0.4-0.4,0.7c-0.1,1.9-0.7,3.6-1.9,5.1c0,0.1,0.1,0.1,0.1,0.2c1.2-0.2,2.5-0.4,3.7-0.7
		c6.6-1.4,12.6-4.2,18-8.3c1-0.7,2-1.5,3.6-1.7c-0.2,0.9-0.2,1.7-0.6,2.3c-7,12.4-17.2,20.9-31,24.8c-14.2,4-27.7,2.2-40.3-5.5
		C33.3,92.2,25.1,80,22.7,64.3c-2.2-14.4,1.4-27.5,10.3-39C39.5,17,47.9,11.2,58,8c1.2-0.4,3.5-0.5,4.5-0.1C62,8.3,61.7,8.7,61.3,9
		c-10.2,7.7-16.2,17.8-17.9,30.5c-0.7,5-0.4,10,0.7,14.9c0.2,0.7,0.6,1.3,0.9,2.2c1.5-1.3,3-1.7,4.7-1.6c0.1-0.2,0.1-0.4,0.2-0.7
		c0.5-2.6,2.9-4.2,5.3-3.6c2.5,0.6,4,3.2,3.2,5.7c-0.2,0.6-0.1,0.9,0.3,1.3c1.1,1.1,1.4,2.5,1.4,3.9c0.5,0.2,0.7,0.2,1-0.3
		c0.5-1.1,1.2-2.2,2.7-2c1.4,0.1,2.1,1.2,2.5,2.4c1,3.1,0.9,6.1-1.1,8.9c4.8-1.4,9.3-1.1,13.7,1.6c0.6-1.7,1.5-3.1,2.9-4.1
		c-0.1-0.4-0.4-0.7-0.3-1c0.2-0.4,0.4-0.9,0.8-1.2c0.1-0.1,0.6,0.2,0.9,0.3c0.4-0.4,0.8-1,1.4-1.4c0.8-0.5,1.1-0.2,1.2,0.7
		c0.1,1.1,0.5,2,1.5,2.5c1.1,0.6,1.9,1.6,2.3,2.8c0.4,1.2,0.8,2.4,0.4,3.7C89.8,75.2,90,75.4,90.5,75.6z M84.7,90.3
		c1.6,1.1,3.4,1.5,5.1,0.4c2.2-1.5,3.5-3.7,3.8-6.4c0.1-0.6,0.2-1.2,0.4-1.7c1.2-2.3,0-4.8-2.5-5.5c-0.4-0.1-0.9-0.2-1.3-0.2
		c-2.5-0.5-4,0.3-4.9,2.7c-0.3,0.9-1,1.4-1.8,1.4c-0.1-0.3-0.1-0.7-0.3-0.8c-0.8-0.4-0.8-1.2-1.1-1.8c-0.5-1.3-1.2-2.6-2.4-3.5
		c-0.5-0.4-1.2-0.6-1.7-0.9c-3.5-2.2-7.2-2.7-11.2-1.7c-1.3,0.3-2.5,0.7-3.8,1.1c-0.4,0.1-0.8,0.4-1.1,0.7c-0.5,0.6-1.2,1.2-2,1.1
		c-0.8-0.1-1.6-0.4-2.4-0.7c-0.3-0.1-0.5-0.5-0.7-0.8c0.6,0,1.1,0.3,1.5,0.4c1.3,0.4,2.4,0,3-0.9c0.4-0.6,0.2-1-0.5-1
		c-1.1,0-2.2,0-3.3,0.1c-1.9,0.2-4.2-1.3-4.7-3.1c-0.1-0.4,0-0.9,0-1.3c0.1,0,0.2,0,0.2,0c0.1,0.2,0.2,0.4,0.3,0.6
		c0.6,1.6,1.8,2.5,3.5,2.6c1.3,0,2.7,0,4-0.1c1.3-0.1,2.4-0.7,3.1-1.9c0.8-1.4,0.7-2.9,0.6-4.3c-0.5-0.1-1,0-1.3-0.2
		c-1.2-0.9-2.5-1-3.9-1c-0.6,0-0.9-0.2-1.1-0.8c-0.7-1.8-1.4-3.6-2.1-5.4c-0.1-0.2,0.1-0.6,0.2-0.7c1-1.1,1.2-2.5,0.3-3.7
		c-0.9-1.3-2.8-1.7-4.2-1c-1.3,0.7-1.9,2.1-1.4,3.5c0.1,0.2,0.1,0.3,0.2,0.6c-2.8-0.3-5.5-0.4-7,2.7c-0.1-0.4-0.2-0.5-0.2-0.6
		c-0.3-1.4-1.2-2.2-2.6-2.4c-1.3-0.2-2.6,0.1-3.7,0.9c-1.1,0.8-1.8,1.8-1.7,3.2c0.1,1.4,0.9,2.5,2.2,3c0.5,0.2,1.1,0.4,1.6,0.5
		c0.5,0.1,0.9,0.4,0.7,0.9c-0.6,1.6-0.4,3.1-0.1,4.7c0.6,3.7,2.3,6.7,6.1,7.9c0.2,0.1,0.4,0.4,0.6,0.6c-0.1,0.1-0.1,0.1-0.2,0.2
		c-0.6-0.1-1.2-0.2-1.9-0.4c0,0.4-0.1,0.7-0.1,1c0,2.1,0.4,4,1.4,5.9c2.1,4.1,5.4,6.8,9.4,8.7c6.6,3.1,13.5,3.7,20.6,2.2
		c2.6-0.5,5.1-1.2,7.3-2.8C84.8,91.7,85,91.1,84.7,90.3L84.7,90.3z M114.3,83.6c-0.2,0.1-0.4,0.1-0.5,0.2c-6.4,4.3-13.4,6.8-21,7.7
		c-0.8,0.1-1.5,0.2-2.2,0.4c-1.1,0.5-2.2,0.6-3.4,0.4c-0.2-0.1-0.7,0.1-0.8,0.3c-1,1.2-2.2,2.1-3.5,2.8c-2.4,1.3-5,1.7-7.7,2.1
		C71.1,98,67,98,62.9,97.2c-5.6-1.1-10.6-3.4-14.7-7.6c-3.4-3.6-5.3-7.8-4.8-12.8c0.1-0.6-0.2-0.9-0.6-1.2
		c-3.3-2.9-4.8-6.5-4.1-10.9c0.1-0.6-0.2-0.6-0.5-0.8c-2-1-3.2-3.1-2.9-5.1c0.3-2.1,1.9-3.9,4.1-4.3c0.8-0.2,1.6-0.1,2.5-0.2
		c-0.2-1.1-0.4-2.2-0.5-3.4c-1.6-13.6,2.1-25.6,10.8-36.1c1.1-1.4,2.4-2.6,3.6-3.9c0,0,0,0,0-0.1c0,0,0,0,0,0.1
		C55.5,11,55.3,11,55,11.1c-8.1,3.3-15,8.4-20.4,15.3c-8.6,11.1-12.1,23.7-10,37.6c2.2,14.4,9.6,25.7,21.7,33.8
		c7.5,5.1,15.9,7.7,25,8.1c6.9,0.3,13.6-0.8,20-3.4c7.7-3.1,14.3-7.9,19.6-14.3C112.1,86.8,113.2,85.1,114.3,83.6L114.3,83.6
		L114.3,83.6z M84.8,69.3c-2-0.1-3.8,2-3.9,4.1c0,0.2,0.2,0.4,0.3,0.6c0.7,1.2,1.4,2.4,2,3.6c0.3,0.6,0.8,0.7,1.4,0.4
		c0.9-0.7,1.9-1.3,2.9-1.9c0.4-0.2,0.6-0.5,0.4-0.9c-0.3-0.6-0.2-1.1,0.2-1.6c0.1-0.1,0.2-0.3,0.2-0.4
		C88.1,71.4,86.8,69.2,84.8,69.3z M82.2,67.3C82.2,67.3,82.2,67.3,82.2,67.3C82.2,67.2,82.2,67.2,82.2,67.3
		C82.2,67.2,82.1,67.3,82.2,67.3C82.1,67.3,82.2,67.3,82.2,67.3z"/>
	<path d="M111.8,56.1c-1.5-1.1-2.8-2-4.1-2.9c-1-0.8-2.1-1.5-3.1-2.3c-0.5-0.4-0.8-0.4-1.3,0c-2.1,1.5-4.2,3.1-6.3,4.6
		c-0.2,0.2-0.5,0.3-0.9,0.6c0.1-0.5,0.2-0.7,0.3-1c0.8-2.5,1.6-5.1,2.4-7.6c0.2-0.5,0.1-0.8-0.4-1.1c-2.1-1.5-4.1-3.1-6.2-4.6
		c-0.3-0.2-0.5-0.4-0.7-0.8c0.3,0,0.5,0,0.8,0c2.6,0,5.1,0,7.7,0c0.7,0,1-0.2,1.2-0.9c0.8-2.5,1.6-4.9,2.4-7.4
		c0.1-0.2,0.2-0.5,0.4-1c0.3,0.8,0.5,1.3,0.6,1.8c0.7,2.2,1.5,4.5,2.2,6.7c0.2,0.5,0.4,0.7,1,0.7c2.6,0,5.3,0,7.9,0
		c0.3,0,0.5,0,1.1,0c-0.3,0.3-0.5,0.5-0.7,0.6c-2,1.5-4.1,3.1-6.1,4.5c-0.8,0.5-0.9,1-0.6,1.9c0.8,2.4,1.6,4.8,2.3,7.2
		C111.7,55.4,111.7,55.6,111.8,56.1z M109.4,52.7c-0.1-0.5-0.2-0.7-0.3-1c-0.5-1.5-1-3.1-1.5-4.6c-0.2-0.6-0.1-0.9,0.4-1.3
		c1.1-0.8,2.2-1.6,3.3-2.4c0.4-0.3,0.8-0.6,1.2-0.9c0-0.1,0-0.1-0.1-0.2c-1.4,0-2.9,0-4.3,0c-2.1,0-2.1,0-2.8-2.1
		c-0.4-1.4-0.9-2.7-1.3-4.1c-0.6,1.3-1.1,2.7-1.5,4c-0.7,2.1-0.7,2.1-3,2.1c-1.4,0-2.8,0-4.1,0c1.3,1.2,2.6,2.2,3.9,3.2
		c1.4,1.1,1.2,0.6,0.7,2.3c-0.5,1.6-1,3.1-1.5,4.7c1.5-0.9,2.9-1.9,4.3-2.9c1.3-0.9,0.8-0.9,2.1,0C106.4,50.5,107.8,51.6,109.4,52.7
		z"/>
	<path d="M79.2,27.7c-1-0.7-2-1.5-3-2.2c-1.3-0.9-1.3-0.9-2.6,0c-1,0.7-2,1.4-3.1,2.3c0.1-0.4,0.1-0.5,0.1-0.7
		c0.4-1.1,0.7-2.3,1.1-3.4c0.3-0.9,0.2-1.4-0.6-1.9c-1.1-0.7-2.2-1.6-3.5-2.5c0.4-0.1,0.6-0.1,0.8-0.1c1.3,0,2.6,0,3.9,0
		c0.6,0,0.9-0.2,1.1-0.7c0.4-1.4,0.9-2.9,1.5-4.5c0.2,0.4,0.3,0.6,0.4,0.8c0.4,1.2,0.8,2.5,1.2,3.8c0.2,0.5,0.4,0.7,1,0.7
		c1.5,0,3,0,4.7,0c-0.3,0.3-0.4,0.4-0.5,0.6c-1,0.8-2,1.6-3.1,2.3c-0.6,0.4-0.7,0.8-0.4,1.4c0.4,1.1,0.8,2.3,1.1,3.4
		c0.1,0.2,0.1,0.5,0.2,0.8C79.3,27.6,79.2,27.6,79.2,27.7z M72.2,25.1c0,0,0.1,0.1,0.1,0.1c0.7-0.5,1.3-1,2.1-1.5
		c0.2-0.1,0.7-0.1,0.9,0c0.7,0.4,1.4,1,2.3,1.6c-0.3-1-0.5-1.8-0.8-2.6c-0.2-0.5-0.1-0.7,0.3-1c0.7-0.5,1.3-1,1.9-1.4
		c0-0.1,0-0.1-0.1-0.2c-0.5,0-0.9,0-1.4,0c-2,0-1.6,0.3-2.2-1.6c-0.2-0.5-0.3-0.9-0.6-1.6c-0.3,1-0.6,1.6-0.8,2.4
		c-0.2,0.7-0.5,0.9-1.1,0.9c-0.7-0.1-1.5,0-2.2,0c0.6,0.7,1.3,1.2,1.9,1.7c0.2,0.2,0.3,0.6,0.3,0.9C72.7,23.5,72.5,24.3,72.2,25.1z"
		/>
	<path d="M79.6,49.2c-0.7-0.5-1.5-1-2.2-1.6c-0.7-0.6-1.2-0.5-1.8,0c-0.7,0.6-1.4,1.1-2.2,1.6c-0.1,0-0.1-0.1-0.2-0.1
		c0.3-0.9,0.6-1.9,0.9-2.8c0.2-0.6,0.2-1-0.4-1.4c-0.8-0.5-1.6-1.2-2.4-1.7c0-0.1,0-0.2,0-0.2c0.5,0,1,0,1.6,0c0.5,0,1,0,1.5,0
		c0.6,0.1,0.9-0.2,1-0.8c0.3-1,0.6-1.9,0.9-2.9c0.1,0,0.2,0,0.2,0c0.2,0.7,0.5,1.4,0.7,2.1c0.5,1.6,0.5,1.6,2.1,1.6
		c0.7,0,1.4,0,2.2,0c0,0.1,0,0.1,0.1,0.2c-0.8,0.6-1.6,1.3-2.5,1.8c-0.5,0.3-0.6,0.6-0.4,1.2c0.3,1,0.6,1.9,0.9,2.9
		C79.7,49.1,79.7,49.1,79.6,49.2z M74.1,47.9c0.7-0.5,1.3-0.9,1.8-1.3c0.4-0.4,0.7-0.3,1.2,0c0.5,0.4,1.1,0.8,1.6,1.2
		c-0.1-0.7-0.2-1.3-0.5-1.9c-0.2-0.5-0.1-0.9,0.4-1.2c0.5-0.4,1-0.8,1.5-1.1c-0.5-0.2-0.9-0.2-1.3-0.2c-1.7,0-1.4,0.1-1.9-1.3
		c-0.1-0.4-0.3-0.8-0.4-1.2c-0.4,0.6-0.6,1.2-0.8,1.8c-0.1,0.5-0.4,0.7-0.9,0.7c-0.6,0-1.3,0-1.9,0c0.5,0.6,1,1,1.5,1.4
		c0.4,0.3,0.5,0.5,0.3,1C74.6,46.4,74.4,47.1,74.1,47.9z"/>
	<path d="M58.1,89.8c1.5,0,3,0,4.5,0c1.8,0,3.4-0.7,4.8-1.8c0.6-0.5,1-1.1,1.4-1.7c0.4-0.7,0.8-1.2,1.7-1.3c0.8-0.1,1.6-0.9,2.1-1.5
		c1.1-1.4,1.1-3.1,0.2-4.6c-0.8-1.6-2.1-2.5-3.9-2.5c-0.9,0-1.6,0.3-2.3,0.9c-0.5,0.4-1.3,0.6-1.9,0.6c-1.5,0.1-3,0.1-4.5,0.2
		c-3.1,0.3-6.3,3.2-6.6,6.8c0,0.3-0.1,0.7-0.1,1c-0.1,0-0.2,0-0.3,0c-0.1-0.7-0.3-1.5-0.2-2.2c0.3-2.7,1.9-4.5,4.2-5.7
		c2-1.1,4.2-1.6,6.5-1.4c0.5,0,0.8,0,1.1-0.4c0.8-1,1.8-1.5,3-1.8c0.3-0.1,0.6-0.3,0.7-0.5c0.5-0.7,1.2-1.1,2-0.9
		c0.9,0.2,1.3,0.7,1.4,1.7c0.1,0.6,0.7,1,1.2,0.7c0.9-0.5,1.6-0.4,2.2,0.3c0.6,0.7,0.6,1.7,0,2.4c-0.6,0.8-0.4,1.4,0.6,1.6
		c1,0.2,1.7,1.2,1.6,2.3c-0.1,1.1-1,1.9-2.1,1.8c-0.4-0.1-0.6,0.1-0.8,0.4c-0.9,1.6-2.3,2.5-4,2.8c-0.4,0.1-0.7,0.3-1,0.6
		c-3.1,3-6.8,3.8-11,2.9c-0.2,0-0.3-0.1-0.5-0.2C58.1,90,58.1,89.9,58.1,89.8z"/>
	<path d="M47.7,63.5c0.6-1.2,1.7-1.6,2.9-1.9c-0.9-0.6-1.9-0.5-2.9-0.3c0-0.1-0.1-0.1-0.1-0.2c0.3-0.2,0.7-0.5,1-0.6
		c1.1-0.2,2.1,0.1,3,0.8c0.2,0.2,0.2,0.6,0.3,0.9c-0.2,0-0.5,0.1-0.7,0.1c-1-0.1-1.9,0.2-2.6,0.9c-0.2,0.2-0.4,0.3-0.6,0.5
		C47.8,63.7,47.7,63.6,47.7,63.5z"/>
	<path d="M55.9,61c0.2-0.5,0.5-0.9,0.7-1.4c0.3,0.3,0.5,0.4,0.8,0.6c-0.4,0.3-0.9,0.6-1.3,1C56,61.1,56,61.1,55.9,61z"/>
	<path d="M58.1,64.3c0.1,0.2,0.3,0.3,0.3,0.4c-0.1,0.1-0.2,0.2-0.3,0.4c-0.1-0.1-0.3-0.2-0.3-0.3C57.8,64.6,57.9,64.5,58.1,64.3z"/>
	<path d="M60.1,66.5c-0.1-0.2-0.3-0.3-0.3-0.4c0.1-0.1,0.2-0.2,0.4-0.3c0.1,0.1,0.2,0.2,0.2,0.3C60.4,66.2,60.2,66.3,60.1,66.5z"/>
	<path d="M57.8,67.4c-0.2-0.2-0.3-0.3-0.3-0.4c0-0.1,0.2-0.3,0.3-0.3c0.1,0,0.3,0.2,0.3,0.3C58,67.1,57.9,67.2,57.8,67.4z"/>
	<path d="M84.6,90.1c-0.1-0.1-0.3-0.2-0.4-0.2c0.1-0.1,0.1-0.1,0.2-0.2C84.4,89.9,84.5,90,84.6,90.1L84.6,90.1z"/>
	<path d="M84.6,90.1c0.1,0.1,0.1,0.1,0.2,0.2l0,0C84.7,90.2,84.6,90.2,84.6,90.1L84.6,90.1z"/>
</g>
</svg>
