<?xml version="1.0" encoding="utf-8"?>
<!-- Generator: Adobe Illustrator 17.1.0, SVG Export Plug-In . SVG Version: 6.00 Build 0)  -->
<!DOCTYPE svg PUBLIC "-//W3C//DTD SVG 1.1//EN" "http://www.w3.org/Graphics/SVG/1.1/DTD/svg11.dtd">
<svg version="1.1" id="Layer_1" xmlns="http://www.w3.org/2000/svg" xmlns:xlink="http://www.w3.org/1999/xlink" x="0px" y="0px"
	 viewBox="0 0 288 216" enable-background="new 0 0 288 216" xml:space="preserve">
<g>
	<path d="M60.7,118.7c-1.2-1.5-2.5-2.9-3.6-4.4c-2.5-3.2-4.1-6.8-4.5-10.8c-0.5-4.8,0.6-9.2,4.4-12.7c0.6-0.5,0.9-1,0.8-1.8
		c-0.3-2.6,0-5.1,0.5-7.6c0.1-0.6,0-1-0.6-1.3c-1.8-1-3.5-2-5.2-3.2c-3.4-2.5-6.1-5.5-7-9.8c-0.8-3.6,0.5-6.6,2.9-9.2
		c0.5-0.5,1-1,1.6-1.4c0.8-0.5,0.9-1.2,1-2.1c0.3-3.8,1.4-7.3,3.5-10.5c2.1-3.1,5-5,8.7-5.7c1.4-0.2,2.6-0.8,3.7-1.6
		c1.9-1.4,4-2,6.3-2.1c2.6,0,5,0.3,7.2,1.8c0.7,0.5,1.4,1.2,2,1.8c0.5,0.5,0.5,1.1,0.2,1.8c-0.1,0.3-0.3,0.6-0.3,1
		c0,0.3,0.1,0.7,0.3,0.9c3.8,2.7,5.8,6.4,6.3,11c0.1,1.2,0.2,2.4,0.2,3.6c0,0.7,0.2,1.2,0.7,1.6c1.7,1.5,3.2,3.2,4.1,5.2
		c1.6,3.6,1.4,7.1-1.2,10.2c-1.4,1.6-3.1,2.9-5,3.8c-1,0.5-2.1,1-3.1,1.5c-0.9,0.4-1,0.8-0.6,1.6c0.6,1.1,1.3,2.1,2,3.1
		c0.3,0.4,0.6,0.5,1.2,0.4c2.1-0.3,4.3-0.7,6.5-0.7c4.4,0,8.6,0.8,12.4,3.2c1,0.6,1.8,0.7,2.9,0.3c1-0.4,2.2-0.5,3.3-0.6
		c1.2-0.2,2.2-0.8,3-1.6c1.3-1.2,2.5-2.6,3.6-3.9c1.5-1.7,2-1.7,4-1.1c2.2,0.7,3.9,2.6,3.9,5.4c0,1.5,0,2.9-0.5,4.3
		c-0.2,0.5,0,0.9,0.3,1.3c1.1,1.4,2.2,2.7,2.5,4.5c0.2,0.7,0.1,1.4-0.3,2c-0.6,0.9-1.3,2-2.1,2.7c-1.1,0.9-1.2,2-1.1,3.3
		c0,1.5,0.1,3.1-0.1,4.6c-0.1,1.1-0.4,2.1-0.8,3.2c-0.8,2.6-2.5,4.4-4.8,5.8c-0.7,0.4-1.3,0.9-1.8,1.6c-1.6,2.3-3.7,4.1-6,5.7
		c-0.7,0.5-1.3,1-1.4,2c-0.2,1.9-1.4,3.2-2.7,4.4c-3.9,3.8-8.5,6.3-13.9,7.1c-2.3,0.4-4.8,0.4-7-0.9c-0.7-0.4-1.2-0.8-1.5-1.6
		c-0.1-0.6-0.5-0.7-1.1-0.6c-1.6,0.3-3.2,0.6-4.8,0.7c-0.7,0.1-1.5,0-1.8-0.8c-0.1-0.3-0.2-0.7-0.2-1c0.1-0.8,0-1-0.9-1
		c-1.4,0-2.8,0.1-4-0.6c-0.5-0.3-1-0.8-1.2-1.3c-0.2-0.6-0.5-0.6-1-0.6c-1.5,0.1-3,0.2-4.4,0.2c-1.2-0.1-2.1-0.7-2.6-1.9
		c-0.2-0.6-0.5-0.8-1.3-0.7c-1.2,0-2.4-0.1-3.5-0.4c-1-0.2-1.3-0.9-1.1-2c0.2-1,0.1-1.1-0.8-1.4c-0.2-0.1-0.4-0.2-0.6-0.2
		c-0.6-0.2-1.2-0.6-1.3-1.3c-0.1-0.8,0.3-1.4,1.1-1.7c1-0.4,2-0.8,3.1-1.1C59.9,118.9,60.3,118.8,60.7,118.7z M112.8,122.2
		c0-0.1-0.1-0.2-0.1-0.3c-0.6,0.2-1.2,0.4-1.7,0.7c-4.2,2-8.6,3-13.2,2.9c-2.6,0-5.3-0.2-7.9-0.5c-2.9-0.3-5.8-1.2-8.4-2.6
		c-2-1.1-3.7-2.4-4.5-4.6c-0.3-1-0.5-2-0.6-3.1c-0.3-2.5,0.8-4.6,2.1-6.7c0.2-0.4,0.7-0.7,1.1-1c0.1,0.1,0.2,0.1,0.2,0.2
		c-0.2,0.4-0.3,0.9-0.6,1.3c-0.8,1.2-1.2,2.5-1.4,3.9c-0.5,3.5,0.6,6.2,3.8,8.1c3.2,1.9,6.7,2.8,10.2,3.4c3.7,0.6,7.5,0.7,11.3,0.1
		c4.4-0.7,8.4-2.2,12.1-4.6c1.2-0.8,2.2-1.8,2.9-3.1c0.6-1.1,0.2-2.4-1-2.8c-0.6-0.3-1.4-0.4-2.1-0.4c-3-0.1-5.8,0.7-8.6,1.8
		c-0.5,0.2-1.1,0.4-1.6,0.5c0-0.1-0.1-0.1-0.1-0.2c0.2-0.2,0.4-0.3,0.6-0.5c2.2-1.4,4.7-2.1,7.3-2.6c0.9-0.2,1.4-0.8,1.5-1.7
		c0.1-0.8-0.5-1.2-1.1-1.4c-0.3-0.1-0.6-0.3-0.9-0.3c-2.3-0.4-4.6-0.5-6.9-0.1c-1.2,0.2-2.3,0.4-3.5,0.6c0-0.1,0-0.1-0.1-0.2
		c0.4-0.2,0.8-0.4,1.2-0.6c2.3-0.8,4.5-1.5,7-1.4c0.7,0,1-0.3,0.9-1.1c0-0.2-0.1-0.5-0.2-0.7c-0.8-1.8-2.4-2.5-4.2-2.8
		c-1.9-0.3-3.8-0.4-5.7-0.6c-0.3,0-0.6,0-0.9,0c0-0.1,0-0.2,0-0.3c0.9-0.1,1.9-0.2,2.8-0.3c1.9-0.3,3.8-0.1,5.6,0.5
		c2,0.6,4.1,2.3,3.8,4.8c0,0.2,0.3,0.6,0.5,0.7c1.8,0.8,3.2,1.7,2.8,4c-0.1,0.4,0.2,0.5,0.5,0.6c0.6,0.1,1.2,0.2,1.8,0.4
		c1,0.3,1.7,1,1.9,2c0,0.3,0.1,0.6,0.3,1.1c0.7-0.7,1.4-1.3,1.9-2c2.5-3,3.5-6.4,3.5-10.2c0-1.2,0-1.2-1.2-1.4
		c0.2-0.3,0.4-0.7,0.6-0.9c0.7-0.9,1.4-1.7,2.1-2.6c1.6-2.1,1.3-5.1-0.5-6.6c-0.4,0.3-0.7,0.7-1.2,1c-0.4,0.3-0.9,0.4-1.3,0.6
		c0.1-0.6,0.3-1.1,0.5-1.6c1-2.1,1.7-4.3,1.6-6.7c-0.1-2-1.1-3.3-2.7-4.2c-0.8-0.4-1.6-0.3-2.2,0.4c-0.5,0.6-1,1.2-1.5,1.9
		c-1.4,1.8-3.1,3-5.3,3.4c-1.2,0.2-2.3,0.5-3.5,0.9c-0.9,0.3-0.9,0.6-0.4,1.3c0.5,0.6,1,1.1,1.4,1.7c0.4,0.6,0.6,1.3,0.9,2
		c-0.1,0.1-0.2,0.1-0.3,0.2c-0.1-0.1-0.1-0.2-0.2-0.3c-0.7-0.8-1.4-1.7-2.2-2.4c-2.6-2.3-5.8-3.6-9.1-4.6c-3.6-1.1-7.3-1.2-11.1-0.9
		c-0.6,0-1.3,0.2-1.9,0.3c-1.3,0.3-2,0.1-2.6-1c-0.5-1-1-2-1.5-3c-0.1-0.2-0.3-0.4-0.5-0.8c-0.2,0.7-0.3,1.3-0.5,1.8
		c-0.5,2-1.7,3.4-3.8,3.9c-2.1,0.4-4.3,0.8-6.3-0.6c-1.2-0.9-2.4-1.9-3.6-2.9c-2-1.6-4-3.2-6-4.8c-1.7-1.3-3.1-2.8-3.9-4.9
		c-0.6-1.9-0.1-4.5,1.8-5.6c1.1-0.7,2.4-1.3,3.5-1.9c0.2-0.1,0.4-0.2,0.7-0.4c-0.5-0.4-0.9-0.7-1.3-1.1c-0.4-0.3-0.8-0.6-1.1-0.9
		c-1.7-1.8-2.3-4.1-2.3-6.5c0-1.5,0.4-3.1,1-4.6c0.6-1.6,1.9-2.5,3.8-2.4c1.6,0.1,2.7,0.9,3.6,2.1c1.8,2.3,2.3,5,1.7,7.9
		c0,0.2,0,0.4,0.1,0.6c0.2,0,0.4,0,0.5-0.1c0.2-0.1,0.5-0.2,0.7-0.3c1.1-0.8,2.4-0.9,3.7-0.6c0.8,0.2,1-0.1,0.9-0.9
		c-0.3-2,0-4,0.5-5.9c0.9-3.2,4.2-4.1,6.6-1.7c1.4,1.3,1.9,3.1,2.1,5c0.2,2.5-0.2,5-2,6.9c-0.4,0.4-0.7,0.8-1.1,1.3
		c1.1,1,2.2,1.8,3.7,2.1c1.1,0.2,2.2,0.6,3.3,1.1c0.9,0.4,1.8,1.1,1.9,2.1c0.1,1.4-0.6,3.3-2.4,3.7c-0.8,0.2-1.6,0.4-2.4,0.6
		c-0.5,0.1-1.1,0.3-1.3,0.7c-0.9,1.3-1.7,2.7-1.8,4.3c0,0.2,0,0.3,0,0.5c0.2,0,0.4,0,0.5-0.1c2.7-1.2,5.2-2.7,7.3-4.7
		c1.4-1.4,2.6-2.9,2.9-5c0.3-2.5-0.4-4.8-1.9-6.8c-0.9-1.2-2-2.3-2.9-3.5c-0.4-0.5-0.9-1.1-1-1.7c-0.2-1.2-0.2-2.4-0.3-3.6
		c-0.2-2.8-1.1-5.3-2.8-7.6c-1-1.3-2.1-2.6-3.5-3.3c-0.3-0.1-0.7-0.3-0.9-0.2c-1.5,0.8-3.2,0.9-4.8,0.6c-0.5-0.1-0.9-0.3-1.4-0.4
		c0-0.1,0-0.1,0.1-0.2c0.1,0,0.2,0,0.3,0c0.2,0,0.4,0,0.6,0.1c1.6,0.2,3.2,0.1,4.7-0.8c1.3-0.7,1.6-2.1,0.6-3.1
		c-0.5-0.6-1.2-1-1.8-1.4c-1.8-0.9-3.7-1-5.7-1c-2.1,0.1-4,0.8-5.6,2c-1.1,0.8-2.2,1.3-3.6,1.5c-4.3,0.7-7.5,3-9.5,6.9
		c-1.5,2.9-2.1,5.9-2.2,9.1c-0.1,1-0.3,1.9-1.2,2.5c-0.5,0.3-0.9,0.7-1.4,1.1c-1.8,1.4-2.8,3.3-2.8,5.6c0,2.8,1,5.3,2.7,7.5
		c3.1,4,7.1,6.7,11.7,8.5c0.4,0.1,0.7,0.3,1.1,0.5c-0.5,0.1-1,0.1-1.5,0.1c-1,0-1.2,0.1-1.3,1.1c-0.2,1.2-0.4,2.5-0.4,3.8
		c0,1.7,0.1,3.5,0.1,5.2c0,0.8,0.1,1.7,0.2,2.5c-0.1,0-0.2,0.1-0.3,0.1c-0.4-0.6-0.8-1.2-1.4-2c-0.6,1.1-1.3,2-1.7,3
		c-1.5,3.3-1.8,6.8-1.2,10.5c1,5.9,4.2,10.6,8.7,14.3c3.1,2.5,6.5,4.4,10.2,5.9c5.9,2.4,11.9,3.5,18.2,3.3c3.1-0.1,6.2-0.5,9.3-1.2
		c3.7-0.9,7.4-2,10.5-4.3C112.1,122.8,112.4,122.5,112.8,122.2z M82.4,64.9c-0.4-0.5-0.7-1-1-1.3c-1.5-1.2-2.9-2.5-4.5-3.6
		c-1.4-1-3.2-1.3-4.4-0.4c-1.3,1.1-2.5,2.1-3.7,3.3c-1.2,1.2-2.3,2.3-4,2.7c-1,0.2-1.9,0.7-2.8,1.2c-1.6,0.9-2.7,2.2-2.5,4.2
		c0.2,1.4,0.6,2.8,1.6,3.8c1,1,2.2,1.8,3.3,2.7c2.4,2,4.8,4,7.2,6c0.7,0.6,1.4,1.2,2.3,1.4c1.4,0.4,2.9,0.2,4.3-0.2
		c1.2-0.4,2.2-1.1,2.7-2.3c0.3-0.9,0.6-1.9,0.7-2.8c0.2-1.8,0.7-3.5,1.5-5.2c0.6-1.3,1.5-2.1,2.9-2.1c1.6-0.1,3-0.7,3.7-2.3
		c0.7-1.5,0.4-2.5-1.1-3.3c-2-1-4.2-1.4-6.5-1.3c-0.7,0-1.3,0-2,0c0-0.1,0-0.1,0-0.2C80.8,65.3,81.5,65.1,82.4,64.9z M73.1,130.5
		c2.3,1,4.6,0.6,7,0.1c-0.2,0.4-0.3,0.7-0.4,1c-0.1,0.3-0.2,0.6-0.3,0.9c-0.2,0.9,0.1,1.4,1,1.3c1.9-0.2,3.7-0.6,5.6-0.9
		c0.4-0.1,0.8-0.2,1.3-0.3c-0.1,0.4-0.1,0.8-0.2,1.1c-0.1,1.1,1,2.5,2,2.5c3.6,0.2,7-0.2,10.3-1.7c3.5-1.6,6.6-3.6,9.1-6.5
		c0.6-0.7,1.2-1.4,1.4-2.5c-0.4,0.1-0.7,0.2-1,0.3c-5.6,2.7-11.5,3.6-17.6,3.8c-2.1,0.1-4.2-0.1-6.3-0.2c-2.6-0.1-5.2-0.7-7.7-1.6
		c-0.8-0.3-1.4-0.2-2.1,0.1C73.7,128.4,73.1,129.2,73.1,130.5z M74.3,126.8c-0.3-0.1-0.5-0.3-0.8-0.4c-3.9-1.6-7.5-3.6-10.8-6.2
		c-0.5-0.4-1-0.6-1.6-0.4c-1.2,0.3-2.3,0.7-3.4,1.1c-0.3,0.1-0.7,0.6-0.7,0.9c0,0.3,0.5,0.6,0.8,0.7c0.7,0.2,1.5,0.3,2.4,0.5
		c-0.3,0.2-0.5,0.3-0.7,0.4c-0.9,0.8-0.9,1.3,0.2,1.9c1.2,0.7,2.6,0.8,4,0.7c0.6,0,1.2-0.1,1.8-0.2c-0.2,1.5,0.1,2.5,1.1,2.7
		C69.4,129.2,72.2,129.5,74.3,126.8z M69.3,56.9c-1.5,1.1-1.6,1.2-2.5,1.2c-1,0-1.2-0.3-1.2-1.2c0.1-1.7,0.1-1.7-1.6-1.9
		c-0.2,0-0.5-0.3-0.5-0.4c-0.1-1.4,0-2.8,0.9-4c0.2-0.2,0.1-0.5,0.2-0.8c-0.3,0-0.8-0.2-1,0c-1.1,0.7-2,1.6-2.4,2.9
		c-0.5,1.8-0.6,3.7-0.2,5.6c0.5,2.2,1.4,4.2,3.6,5.3c0.7,0.4,1.6,0.5,2.3,0c1.4-1.2,2.7-2.5,2.8-4.5C69.7,58.3,70.1,57.5,69.3,56.9z
		 M78.8,50.5c-0.1,0-0.3-0.1-0.4-0.1c-0.3,0.5-0.7,1-0.9,1.6c-0.6,1.7-0.7,3.6-0.6,5.4c0.1,0.8,0,1.7,0.7,2.3c1,0.9,2,1.7,3,2.6
		c0.6,0.5,1,0.5,1.6-0.1c1.1-1,1.8-2.3,2.1-3.8c0.2-0.9-0.1-1.1-0.9-1c-1,0.2-1.9,0.2-2.9-0.3c0.2-0.6,0.3-1.1,0.5-1.7
		c0.2-0.8,0-1.2-0.8-1.4c-0.3-0.1-0.6,0-0.9-0.1c-0.2,0-0.4-0.1-0.5-0.2c-0.1-0.4-0.1-0.9-0.1-1.3C78.7,51.8,78.8,51.2,78.8,50.5z"
		/>
	<path d="M63.9,68.9c-0.8,1.6-0.4,2.6,1.4,3.3c1.3,0.6,2.7,0.5,4,0.2c3.3-0.7,6.5-1.5,9.7-2.3c1.4-0.3,2.8-0.5,4.2-0.2
		c0.6,0.1,1.1,0.4,1.6,0.6c0,0.1,0,0.1,0,0.2c-0.1,0-0.3,0.1-0.4,0.1c-2.4,0-3.9,1.5-4,4c-0.1,1.5-0.2,3-0.5,4.4
		c-0.6,2.6-1.3,2.7-3.7,3.1c-0.3,0-0.6,0-1,0c-0.8,0-1.4-0.3-2-0.9c-2.1-2.3-4.2-4.5-6.4-6.7c-0.9-0.8-1.9-1.5-3-2.1
		c-0.7-0.5-1.1-1.1-1.2-1.9C62.5,69.7,62.9,69.1,63.9,68.9z M77.6,71.6c1,1.2,0.9,2.5,0.6,3.9c-0.4,2-1.8,3-3.4,2.4
		c-2.1-0.8-3.8-2-5.1-3.8c-0.5-0.7-1.7-0.9-2.6-0.3c0.2,0.2,0.4,0.5,0.6,0.7c2,2,4,4,5.9,6c1.8,1.8,4.1,1.4,5.1-0.9
		c0.7-1.7,0.9-3.5,0.8-5.4c0-1,0.3-1.9,1.1-2.5c0.3-0.2,0.6-0.4,1-0.6C80.6,70.4,78.6,70.8,77.6,71.6z M75.3,77.3
		c0.4-0.1,0.8-0.1,1-0.3c1-0.8,1.6-2.9,1.2-4.1c-0.3-0.9-0.9-1.2-1.9-1c-1.4,0.3-2.8,0.6-4.2,0.9c-0.6,0.1-1,0.8-0.5,1.3
		c0.7,0.9,1.6,1.7,2.5,2.4C74,77,74.7,77.1,75.3,77.3z"/>
</g>
<g>
	<path d="M214.6,69.8c-0.3,0.7-0.6,1.4-1,2c-1,1.6-2.5,2.8-4.3,3.8c-1.7,1-3.6,1.8-5.5,2.6c-3.2,1.2-6.5,2.1-9.9,2.6
		c-2.9,0.5-5.8,0.6-8.7,0.5c-2.4-0.1-4.8-0.4-7-1c-2.4-0.6-4.6-1.4-6.7-2.5c-2.9-1.5-5.8-3-8.5-4.7c-3.7-2.3-5.9-5.3-7-8.8
		c-0.6-2.1-0.9-4.3-0.8-6.5c0-0.9,0.1-1.8,0.2-2.8c0-0.8-0.3-1.5-0.6-2.3c-0.3-0.7-0.6-1.4-0.7-2.1c-0.3-1.3,0.1-2.6,0.9-3.8
		c1.2-1.7,3-2.8,5.5-3.3c1.9-0.3,3.5-1.1,5-2c1.2-0.8,2.3-1.6,3.7-2.1c1.2-0.5,2.5-0.9,3.7-1.4c1.5-0.5,2.9-1.2,3.8-2.3
		c0.5-0.5,0.9-1.1,1.4-1.6c1.6-1.4,3.6-2.3,5.9-2.9c1.7-0.4,3.5-0.6,5.3-0.5c2.2,0.1,4.3,0.5,6.4,1.1c2.9,0.9,5.6,2.1,8.1,3.6
		c1.8,1.1,3.2,2.5,4.4,4c2.2,2.8,4.4,5.5,6.6,8.3c0.1,0.1,0.2,0.2,0.2,0.3c0.3,0.3,0.6,0.4,1.1,0.2c0.7-0.3,1.4-0.7,2.1-1.1
		c1.6-0.8,3.1-1.5,4.9-2c1.3-0.4,2.7-0.7,4.2-0.6c2.9,0.1,5.4,1,6.8,3c0.8,1.1,0.8,2.4,0.2,3.5c-0.6,1.1-1.3,2.2-1.9,3.3
		c-0.5,0.9-0.9,1.7-1,2.7c-0.1,1.3,0.4,2.5,1.2,3.6c0.8,1.1,1.7,2.2,2.5,3.3c1.3,1.7,1.8,3.6,1.5,5.5c-0.2,1.7-1,3.2-2.4,4.5
		c-0.9,0.9-2.2,1.3-3.6,1.4c-2.7,0.2-5.3-0.2-7.7-1c-1.4-0.4-2.8-1-4.1-1.7C216.9,72,215.6,71,214.6,69.8z M169.5,75.8
		c0.2,0.2,0.3,0.3,0.4,0.4c1.4,1.3,3.3,2.2,5.3,2.8c3.1,1,6.4,1.4,9.8,1.6c2.8,0.1,5.5,0,8.3-0.4c3.8-0.5,7.4-1.5,10.8-2.9
		c1.9-0.8,3.7-1.8,5.4-2.8c2.2-1.4,3.6-3.3,4.4-5.4c0.7-1.9,1.2-3.8,1.6-5.8c0.4-2,0.6-4.1,0.6-6.1c0-1.6-0.1-3.2-0.2-4.8
		c-0.1-0.9-0.2-1.7-0.8-2.5c-1.2-1.7-2.5-3.3-4-4.9c-1.6-1.7-3.6-3.1-6-4.1c-2.2-0.9-4.4-1.7-6.6-2.5c-3-1-6.1-1.7-9.3-1.9
		c-2.5-0.2-5-0.2-7.5,0.1c-3.2,0.4-6.3,1-9.3,2.1c-4.5,1.7-8.4,4.1-11.3,7.2c-3.4,3.6-5.1,7.6-5.4,12c-0.2,3,0.5,5.8,2,8.5
		c1.4,2.6,3.5,4.8,6.6,6.5c4.1,2.2,8.6,3.2,13.7,2.3c1.8-0.3,3.5-0.9,4.8-1.9c0.4-0.4,0.8-0.8,1.2-1.2c0.5,0.6,1,1.1,1.5,1.7
		c-0.5,0-1.1,0.1-1.6,0.1c-1.1,0.1-2.1,0.6-3.1,0.9c-3,1.1-6.2,1.5-9.5,1.1C170.5,76,170,75.9,169.5,75.8z M226.7,45.6
		c-0.8,0.1-1.6,0.1-2.3,0.2c-2.5,0.3-4.8,1.1-6.7,2.4c-0.8,0.5-1.2,1.1-1.1,1.8c0.1,1.4,0.2,2.8,0.3,4.1c0.1,1.6,0.1,3.2,0.2,4.9
		c0,0.8-0.1,1.5-0.2,2.3c-0.2,1.5-0.5,3-1.1,4.5c-0.8,1.8-0.4,3.6,1.1,5.1c0.9,1,2.2,1.5,3.6,2c1.5,0.5,3,1,4.6,1.5
		c1.6,0.5,3.2,0.7,4.8,0.2c1.1-0.3,2.1-0.8,3-1.4c2.1-1.4,3-3.1,2.5-5.2c-0.4-1.6-1.3-3.1-2.3-4.5c-0.9-1.2-1.8-2.5-2.3-3.9
		c-0.5-1.3-0.7-2.7-0.1-4c0.5-1,1-1.9,1.6-2.8c0.7-1.1,1.2-2.3,1.2-3.5c-0.1-1.5-0.9-2.6-2.9-3.1C229.2,45.8,227.9,45.6,226.7,45.6z
		 M195.3,33c0,0.3,0,0.6,0,0.9c0,0.8,0.2,1.7-0.4,2.5c-0.1,0.2,0,0.4,0.2,0.5c0.4,0.2,0.8,0.4,1.2,0.5c0.9,0.3,1.8,0.6,2.8,0.5
		c0.4,0,0.5-0.2,0.6-0.4c0-0.8,0.1-1.5,0.2-2.3c0-0.4-0.2-0.6-0.6-0.8c-0.4-0.2-0.8-0.4-1.2-0.5C197.1,33.4,196.3,33.1,195.3,33z
		 M194.5,34.6c0-0.7-0.2-1.3-0.6-1.9c-0.2-0.3-0.4-0.5-0.8-0.5c-0.9-0.1-1.7-0.3-2.6-0.4c-0.4,0-0.5,0.1-0.5,0.4
		c0,0.3,0.1,0.6,0.2,0.9c0.2,0.6,0.4,1.2,0.2,1.8c-0.2,0.4,0,0.8,0.5,1.2c0.5,0.3,1,0.5,1.7,0.5c0.9,0,1.5-0.3,1.7-0.9
		C194.4,35.3,194.4,34.9,194.5,34.6z M187.2,35.5c0.4,0,0.7,0.1,1.1,0.1c0.9,0,1.6-0.5,1.5-1.1c-0.1-0.3-0.1-0.7-0.2-1
		c-0.2-0.9-0.8-1.6-2-1.9c-0.3-0.1-0.7-0.1-1,0c-0.5,0.1-0.7,0.5-0.4,0.8c0.1,0.1,0.2,0.2,0.3,0.4C187.2,33.6,187.3,34.5,187.2,35.5
		z M185.8,35.5c0-1.2-0.3-2.3-1.1-3.4c-0.1-0.2-0.3-0.2-0.6-0.2c-0.5,0.2-1,0.3-1.4,0.5c-0.4,0.2-0.5,0.3-0.3,0.7
		c0.3,0.7,0.6,1.4,1,2c0.1,0.1,0.2,0.3,0.3,0.4c0.1,0.1,0.3,0.1,0.4,0.1C184.6,35.5,185.2,35.4,185.8,35.5z M157.9,48.3
		c0.1-0.1,0.1-0.2,0.1-0.2c0.7-1.2,1.6-2.3,2.7-3.3c0.1-0.1,0.3-0.3,0.1-0.4c-0.1-0.1-0.4-0.2-0.5-0.2c-0.5,0.1-1,0.2-1.4,0.4
		c-0.9,0.5-1.7,1-2.5,1.5c-0.1,0-0.1,0.1-0.2,0.2C157.2,46.7,157.8,47.3,157.9,48.3z M182.5,35.5c0-0.1-0.1-0.3-0.2-0.5
		c-0.3-0.5-0.6-1.1-0.9-1.6c-0.2-0.4-0.6-0.4-0.9-0.1c-0.1,0.1-0.2,0.2-0.2,0.3c-0.4,0.7-0.2,1.4,0.1,2c0.3,0.5,0.6,0.6,1.3,0.5
		c0.1,0,0.2,0,0.3,0C182.4,36,182.5,35.9,182.5,35.5z M200.4,34.9c0,0.1,0,0.1,0,0.1c0,1,0,1.9,0.1,2.9c0,0.3,0.3,0.5,0.6,0.5
		c0.3,0,0.6-0.2,0.7-0.5c0.1-0.5,0.3-1,0.4-1.5c0-0.1,0-0.4-0.1-0.5C201.6,35.6,201,35.3,200.4,34.9z M204,39.9
		c0.2-0.8,0.3-1.6,0.4-2.3c0.1-0.3,0-0.7-0.3-1c-0.2-0.2-0.5-0.3-0.8-0.2c-0.3,0.1-0.4,0.3-0.4,0.5c0,0.4-0.2,0.9-0.2,1.3
		c0,0.2,0,0.4,0.1,0.6C203.2,39.2,203.6,39.5,204,39.9z M154.9,48.3c0,0.6,0.4,1,1.1,1c0.8,0,1.3-0.4,1.3-1c0-0.6-0.5-1-1.2-1
		C155.4,47.3,154.9,47.7,154.9,48.3z M206.5,39.4c-0.1-0.3-0.2-0.5-0.3-0.7c-0.3-0.4-0.8-0.4-1.1,0c-0.2,0.3-0.3,0.6-0.4,0.9
		c-0.1,0.3,0,0.6,0.3,0.7c0.4,0.2,0.8,0.2,1.1-0.1C206.2,40,206.4,39.7,206.5,39.4z M177.8,35.3c0.2,0.3,0.4,0.7,0.6,1
		c0.2,0.2,0.5,0.2,0.8,0.1c0.3-0.1,0.3-0.3,0.2-0.5c-0.1-0.3-0.2-0.6-0.3-1c-0.1-0.3-0.6-0.5-0.9-0.2
		C178.1,34.9,178,35.1,177.8,35.3z M155.5,53.3c0.6-1,1.2-1.9,1.8-2.9c-0.7,0.5-1.4,0.9-2,1.4C154.8,52.3,154.9,52.8,155.5,53.3z
		 M208.6,41.6C208.7,41.6,208.7,41.6,208.6,41.6c0-0.2,0-0.4-0.1-0.5c-0.4-0.3-0.8-0.5-1.2-0.8c-0.1-0.1-0.3,0-0.5,0
		c0,0.1,0,0.3,0.1,0.4C207.5,41,208.1,41.3,208.6,41.6z M176.8,36.8c0.3-0.2,0.5-0.3,0.7-0.4c-0.2-0.1-0.3-0.2-0.5-0.2
		c-0.3,0-0.5,0.1-0.5,0.3C176.5,36.6,176.6,36.6,176.8,36.8z"/>
	<path d="M197.9,62.2c1.5-3.7,1.8-7.5,0.8-11.3c0.3-0.1,0.7-0.1,1-0.2c1-0.2,1.8-0.6,2.6-1c1.1-0.5,2.2-1.1,3.3-1.6
		c0.8-0.4,1.8-0.5,2.8-0.4c1.5,0.2,2.4,0.8,2.8,2c0.4,1.2,0.6,2.4,0.7,3.6c0,0.9,0.3,1.7,0.9,2.5c0.7,0.9,1,2,1,3
		c0.1,1.9-0.4,3.7-1.1,5.4c-0.3,0.6-0.7,1.1-1.6,1.3c-0.4,0.1-0.7,0.4-0.9,0.7c-0.2,0.3-0.3,0.5-0.4,0.8c-0.1,0.2-0.2,0.5-0.4,0.7
		c-0.7,1.1-1.7,1.4-3.1,0.8c-1.1-0.4-1.9-1.1-2.7-1.7c-1.2-1-2.3-2-3.2-3.2C199.7,63.1,199.1,62.4,197.9,62.2z M213.2,59.7
		c-0.1-1.6-0.5-2.8-1.3-3.9c-0.3-0.4-0.5-0.8-0.5-1.3c-0.1-0.9-0.2-1.9-0.2-2.8c-0.1-0.9-0.3-1.8-1-2.5c-0.7-0.6-1.8-1.1-3.1-0.7
		c-1.9,0.5-3.6,1.2-5.3,2.1c-0.6,0.3-1.1,0.6-1.6,1c-0.3,0.2-0.5,0.6-0.5,0.9c0.1,0.3,0.1,0.6,0.2,0.9c0.2,1.3,0.2,2.6,0,3.9
		c-0.2,1-0.4,2-0.6,3c-0.1,0.8-0.1,1.5,0.5,2.2c1.3,1.3,2.5,2.5,3.9,3.8c0.6,0.6,1.3,1.2,2.2,1.6c1.3,0.6,2.8,0.4,3.3-0.9
		c0.1-0.2,0.1-0.4,0.3-0.6c0.2-0.3,0.4-0.7,0.7-1C212.3,63.7,213.2,61.7,213.2,59.7z"/>
	<path d="M178.8,50.7c0,1.3-0.4,2.5-1.2,3.6c-0.7,1.1-1.7,1.9-3.1,2.6c-2,1-4.2,1.4-6.6,0.9c-2.2-0.5-3.8-1.5-4.8-3.1
		c-1.3-2.2-1-4.4,0.5-6.5c0.7-1,1.6-1.9,2.8-2.7c2.1-1.3,4.4-1.6,6.9-0.9c3.1,0.8,4.8,2.6,5.3,5.1C178.8,50,178.8,50.3,178.8,50.7z
		 M163,52c0,0.8,0.1,1.5,0.5,2.2c1.3,2.5,4.9,3.8,8.3,3.2c2-0.4,3.5-1.3,4.7-2.6c1.3-1.4,2-3,1.8-4.8c-0.3-2.5-2.1-4.1-5-5
		c-2.7-0.8-5.2-0.1-7.2,1.4C164,47.9,163.1,49.9,163,52z"/>
	<path d="M175.2,60c0.4,0.2,0.4,0.5,0.4,0.8c0,0.1-0.1,0.3-0.2,0.4c-0.7,1-0.5,2,0.2,3c1.1,1.5,2.5,2.8,4.5,3.7
		c1.3,0.5,2.7,0.8,4.1,1c0.2,0,0.4,0.1,0.5,0.2c0.1,0.1,0.3,0.3,0.2,0.3c-0.1,0.1-0.3,0.2-0.4,0.2c-0.4,0-0.8-0.1-1.1-0.1
		c-1.5-0.2-2.9-0.6-4.2-1.1c-1.5-0.6-2.6-1.6-3.6-2.7c-0.5-0.5-1-1.1-1.3-1.7C173.7,62.6,174,61.3,175.2,60z"/>
	<path d="M161.2,64.7c0,0.4,0,0.8-0.1,1.2c0,0.3-0.3,0.6-0.7,0.7c-0.4,0.1-0.8-0.1-1.1-0.3c-0.1-0.1-0.3-0.3-0.3-0.4
		c-0.3-0.8-0.7-1.5-0.9-2.3c-0.2-0.5,0-0.9,0.4-1.3c0.6-0.6,1.6-0.5,2.2,0.2c0.4,0.5,0.5,1,0.5,1.5
		C161.2,64.2,161.2,64.4,161.2,64.7C161.2,64.7,161.2,64.7,161.2,64.7z M160.1,65.7c0.2-0.9,0.2-1.8-0.1-2.6
		c-0.1-0.2-0.3-0.4-0.6-0.4c-0.4,0-0.4,0.3-0.4,0.5C159.1,64.1,159.5,64.9,160.1,65.7z"/>
	<path d="M193.7,49.4c0.6,0,1,0.2,1.1,0.5c0.3,0.5,0.7,1.1,0.9,1.7c0.3,0.7,0.5,1.4,0.7,2.2c0,0.1,0,0.1,0,0.2c0,0.2,0,0.4-0.3,0.5
		c-0.4,0.1-0.5-0.1-0.6-0.3c-0.2-0.6-0.4-1.3-0.6-2c-0.2-0.5-0.4-1.1-0.7-1.6c-0.1-0.2-0.5-0.4-0.7-0.6c-0.1-0.1-0.3-0.3-0.3-0.3
		C193.4,49.5,193.6,49.5,193.7,49.4z"/>
	<path d="M193.7,53.9c0,0.1,0,0.3-0.1,0.5c-0.1,0.2-0.3,0.3-0.4,0.4c-0.3,0.1-0.4,0.1-0.4-0.2c-0.1-0.6-0.1-1.3-0.2-1.9
		c-0.1-0.5-0.3-1-0.7-1.4c-0.1-0.1-0.2-0.3-0.3-0.5c0-0.1,0-0.3,0.1-0.3c0.1,0,0.4,0,0.5,0c0.1,0,0.2,0.2,0.3,0.3
		C193.2,51.7,193.6,52.7,193.7,53.9z"/>
	<path d="M187.8,53.8c0-0.3,0-0.6-0.1-0.9c0-0.3-0.3-0.6-0.6-0.9c-0.1-0.1-0.3-0.2-0.3-0.4c-0.1-0.2-0.1-0.4,0.1-0.5
		c0.2-0.1,0.5-0.1,0.7,0.1c0.3,0.3,0.5,0.5,0.7,0.8c0.4,0.8,0.7,1.5,0.4,2.3c-0.1,0.2-0.2,0.3-0.4,0.4c-0.2,0.1-0.4,0.1-0.4-0.1
		C187.8,54.5,187.8,54.2,187.8,53.8C187.8,53.8,187.8,53.8,187.8,53.8z"/>
	<path d="M190.8,53.4c0,0.3,0,0.6,0,0.9c0,0.1,0,0.2-0.1,0.3c-0.1,0.1-0.3,0.1-0.4,0.1c-0.1,0-0.2-0.1-0.2-0.2c0-0.3,0-0.5,0-0.8
		c0-0.4,0-0.7,0-1.1c0-0.5-0.2-0.9-0.6-1.2c-0.1,0-0.1-0.1-0.2-0.2c-0.1-0.2-0.2-0.3,0-0.5c0.2-0.1,0.5-0.2,0.7,0
		c0.2,0.2,0.5,0.4,0.6,0.7c0.2,0.6,0.3,1.3,0.5,1.9C190.9,53.4,190.8,53.4,190.8,53.4z"/>
	<path d="M186.3,53.6c0,0.2,0,0.4,0,0.6c0,0.2,0,0.3-0.3,0.3c-0.2,0-0.4-0.1-0.5-0.3c-0.1-0.2-0.1-0.4-0.1-0.6
		c0.1-0.6-0.2-1.1-1-1.5c-0.2-0.1-0.5-0.2-0.3-0.4c0.1-0.2,0.4-0.3,0.7-0.2c0.6,0.1,1,0.4,1.2,0.9c0.2,0.4,0.2,0.8,0.4,1.2
		C186.4,53.6,186.3,53.6,186.3,53.6z"/>
	<path d="M187.6,64.4c-0.1,0.1-0.1,0.4-0.2,0.5c-0.3,0.5-0.9,0.8-1.5,0.9c-0.1,0-0.4,0-0.4-0.1c-0.1-0.1,0-0.3,0.1-0.3
		c0.1-0.1,0.3-0.1,0.4-0.2c0.3-0.2,0.6-0.3,0.8-0.5c0.4-0.4,0.1-0.9-0.6-1c-0.1,0-0.3-0.2-0.3-0.2c0-0.1,0.2-0.3,0.3-0.3
		c0.2,0,0.5,0,0.7,0.1C187.4,63.4,187.6,63.8,187.6,64.4z"/>
	<path d="M187.9,63.2c0.7,0,1.2,0.2,1.5,0.6c0.5,0.6,0.4,1.3,0,1.9c-0.1,0.1-0.3,0.2-0.4,0.3c-0.1,0-0.3,0-0.3-0.1
		c-0.1-0.1-0.1-0.2,0-0.3c0.6-0.8,0.5-1.3-0.4-1.9C188.1,63.6,188,63.4,187.9,63.2C187.9,63.2,187.9,63.2,187.9,63.2z"/>
	<path d="M189,62c-0.2-0.2-0.2-0.4-0.1-0.6c0.1-0.2,0.2-0.3,0.3-0.5c0.3-0.4,0.2-0.7-0.3-1c-0.2-0.1-0.3-0.2-0.5-0.3
		c-0.2-0.1-0.2-0.2,0-0.3c0.3-0.2,0.6-0.1,0.9,0c0.6,0.3,0.9,1,0.7,1.6C189.8,61.3,189.5,61.7,189,62z"/>
	<path d="M188.7,55.7c1,0,1.6,0.4,1.8,1c0.2,0.6-0.1,1.3-0.7,1.6c-0.2,0.1-0.4,0.1-0.7,0.1c0.1-0.2,0.1-0.3,0.2-0.5
		c0,0,0.1-0.1,0.1-0.1c0.7-0.3,0.7-0.7,0.1-1.2c-0.2-0.1-0.4-0.3-0.5-0.4C189,56,188.9,55.9,188.7,55.7z"/>
	<path d="M192.3,64.4c0,0.5-0.2,0.9-0.7,1.2c-0.2,0.1-0.4,0.1-0.4-0.1c0-0.2,0.1-0.3,0.2-0.5c0.4-0.6,0.3-1-0.5-1.4
		c-0.1,0-0.2-0.1-0.3-0.1c-0.1-0.1-0.2-0.2-0.2-0.3c0-0.1,0.2-0.2,0.3-0.2c0.2,0,0.5,0.1,0.7,0.2C191.9,63.5,192.2,63.9,192.3,64.4z
		"/>
	<path d="M192.7,60.3c0,0.5-0.2,0.9-0.8,1.2c-0.1,0-0.2,0.1-0.2,0.1c-0.2,0-0.5,0.1-0.6-0.1c-0.1-0.2,0.1-0.3,0.4-0.4
		c0.4-0.1,0.7-0.3,0.7-0.6c0.1-0.3-0.1-0.6-0.5-0.8c-0.1-0.1-0.2-0.2-0.3-0.3c0.2-0.1,0.4-0.2,0.6-0.1c0.4,0,0.7,0.4,0.8,0.8
		C192.7,60.1,192.7,60.2,192.7,60.3z"/>
	<path d="M194.3,64.7c-0.1,0.3-0.2,0.6-0.3,0.8c-0.1,0.2-0.3,0.3-0.5,0.2c-0.2-0.1-0.2-0.2-0.1-0.4c0.3-0.7,0.2-1.3-0.4-1.9
		c-0.1-0.1-0.3-0.3-0.1-0.4c0.2-0.1,0.5-0.1,0.6,0.1c0.2,0.4,0.4,0.8,0.6,1.2C194.3,64.4,194.2,64.6,194.3,64.7
		C194.3,64.7,194.3,64.7,194.3,64.7z"/>
	<path d="M185.6,59.6c0.2-0.3,0.4-0.4,0.7-0.2c0.4,0.2,0.7,0.4,0.7,0.7c0.1,0.6-0.1,1.2-0.6,1.7c-0.1,0.1-0.3,0.1-0.5,0.1
		c0-0.1-0.1-0.3,0-0.4c0-0.1,0.1-0.2,0.2-0.3C186.6,60.6,186.4,60.1,185.6,59.6z"/>
	<path d="M196.2,64.5c0,0.2,0,0.4-0.1,0.6c-0.1,0.1-0.2,0.4-0.4,0.4c-0.3,0-0.3-0.2-0.3-0.4c0-0.5,0-0.9-0.1-1.4
		c0-0.2-0.2-0.4-0.3-0.7c0-0.1,0-0.3,0.1-0.3c0.1,0,0.4,0,0.4,0c0.2,0.3,0.4,0.7,0.5,1C196.2,64,196.2,64.2,196.2,64.5z"/>
	<path d="M194.5,55.3c0.7,0.2,1.3,0.8,1.4,1.4c0,0.6-0.5,1.3-1.1,1.5c-0.2-0.2,0-0.4,0.1-0.6c0.6-0.7,0.5-1.1-0.1-1.7
		C194.5,55.7,194.5,55.6,194.5,55.3z"/>
	<path d="M187.9,57.8c0,0.1-0.1,0.3-0.2,0.5c0,0.1-0.2,0.2-0.3,0.1c-0.1,0-0.2-0.1-0.3-0.2c0-0.1,0-0.3,0.1-0.4c0.1-0.6-0.3-1-1-1.1
		c-0.1,0-0.3-0.1-0.4-0.2c-0.1-0.2,0.1-0.3,0.3-0.3c0.3,0,0.7,0.1,0.9,0.2C187.7,56.7,187.9,57.2,187.9,57.8z"/>
	<path d="M191.9,55.9c0.7,0.4,1,0.9,1,1.5c0,0.7-0.5,1.1-1.4,1.4c0-0.2,0.1-0.3,0.2-0.5c0.1-0.2,0.3-0.3,0.4-0.5
		c0.2-0.3,0.2-0.5,0.1-0.8c-0.1-0.3-0.2-0.5-0.3-0.8C191.8,56.1,191.9,56,191.9,55.9z"/>
	<path d="M194.1,59.5c0.3-0.2,0.5-0.1,0.7,0.1c0.7,0.5,0.6,1.6-0.2,2.1c-0.3,0.2-0.6,0.2-0.9,0c0.5-0.2,0.9-0.5,1-0.9
		C194.7,60.2,194.5,59.8,194.1,59.5z"/>
	<path d="M220.7,63.3c0.1-0.2,0.3-0.3,0.5-0.3c0.7,0,1.3,0.2,1.9,0.4c2.5,0.8,5,1.5,7.6,2c0.4,0.1,0.9,0.2,1.3,0.4
		c0.5,0.2,0.7,0.6,0.6,1c0,0.2-0.1,0.2-0.4,0.2c-0.6,0-1.1-0.1-1.7-0.3c-0.8-0.3-1.6-0.7-2.5-0.8c-1.8-0.3-3.4-1-5-1.7
		C222.4,63.9,221.6,63.6,220.7,63.3z"/>
	<path d="M230.2,72c-0.4,0-0.8-0.2-1-0.4c-1-1.1-2.5-1.7-4-2.3c-2-0.9-4.2-1.7-6.2-2.5c-0.3-0.1-0.6-0.3-0.8-0.5
		c-0.1,0-0.1-0.2-0.1-0.2c0-0.1,0.2-0.2,0.3-0.1c0.2,0,0.4,0,0.6,0.1c1.9,0.7,3.9,1.3,5.8,2c1.4,0.5,2.6,1.3,3.8,2.1
		c0.6,0.4,1.3,0.7,1.9,1.1c0.3,0.1,0.4,0.3,0.3,0.5C230.8,71.9,230.5,72,230.2,72z"/>
	<path d="M218.4,51.6c-0.1-0.1-0.3-0.1-0.4-0.2c-0.1-0.2,0-0.4,0.2-0.5c0.3-0.2,0.7-0.3,1-0.4c3.2-0.9,6.3-1.9,9.5-2.8
		c0.2-0.1,0.5-0.1,0.8-0.1c0.2,0,0.4,0.1,0.5,0.2c0.1,0.1,0.2,0.3-0.2,0.3c-1,0.2-1.8,0.6-2.7,1c-1,0.4-2,0.8-3.1,1.1
		c-1.3,0.4-2.7,0.8-4,1.2C219.6,51.5,219,51.5,218.4,51.6z"/>
	<path d="M223.2,54.9c-1,0-1.9,0-2.9,0c-0.4,0-0.8-0.2-1.1-0.5c-0.2-0.2-0.1-0.4,0.2-0.5c0.2,0,0.3,0,0.5,0c1,0,2,0,2.9-0.1
		c1.7-0.1,3.4-0.1,5.1-0.2c0.4,0,0.9,0.1,1.3,0.1c0.2,0,0.4,0.1,0.5,0.2c0.3,0.3,0.2,0.6-0.3,0.6c-0.9,0.1-1.7,0.2-2.6,0.2
		C225.7,54.9,224.5,55,223.2,54.9C223.2,55,223.2,55,223.2,54.9z"/>
	<path d="M225,59c1.3,0,2.6,0,3.9,0c0.2,0,0.3,0,0.5,0.1c0.2,0.1,0.4,0.2,0.5,0.3c0,0.1-0.2,0.3-0.3,0.4c-0.3,0.1-0.6,0.2-0.9,0.2
		c-1.4,0-2.8-0.1-4.2-0.1c-0.9,0-1.9-0.1-2.8-0.1c-0.2,0-0.4,0-0.7-0.1c-0.3,0-0.5-0.2-0.4-0.4c0-0.2,0.3-0.3,0.5-0.3
		C222.3,59,223.7,59,225,59C225,59,225,59,225,59z"/>
	<path d="M206,55c-1.2,0-2.4-0.1-3.5-0.1c-0.2,0-0.4,0-0.5-0.2c0-0.2,0.2-0.3,0.4-0.3c0.3,0,0.6,0,0.9-0.1c2.1,0,4.2,0,6.2,0.2
		c0.1,0,0.3,0,0.4,0c0.1,0.1,0.4,0.2,0.3,0.2c0,0.1-0.2,0.3-0.3,0.3c-0.2,0.1-0.4,0.1-0.5,0.1C208.3,55,207.1,55,206,55
		C206,55,206,55,206,55z"/>
	<path d="M208.5,63.8c-0.7-0.5-1.3-1.1-1.9-1.6c-1.2-1.1-2.5-2.1-3.7-3.2c-0.3-0.3-0.6-0.5-0.4-1c0.2,0.1,0.4,0.2,0.5,0.3
		c1.5,1.2,2.9,2.5,4.4,3.7c0.4,0.3,0.8,0.6,1.1,1C208.8,63.3,208.8,63.5,208.5,63.8z"/>
	<path d="M201.4,60.4c0.4-0.2,0.6-0.1,0.7,0.1c0.2,0.2,0.4,0.5,0.6,0.7c0.7,0.9,1.5,1.9,2.2,2.8c0.3,0.4,0.5,0.8,0.4,1.3
		c-0.2-0.1-0.4-0.2-0.5-0.3C203.7,63.4,202.6,61.9,201.4,60.4z"/>
	<path d="M204.3,56.9c0.2,0.1,0.4,0.1,0.6,0.2c1.2,0.6,2.5,1.2,3.7,1.7c0.1,0.1,0.3,0.2,0.4,0.3c0.1,0.1,0,0.3,0,0.4
		c0,0-0.3,0-0.4,0c-1.4-0.6-2.8-1.3-4.2-1.9c-0.1-0.1-0.3-0.1-0.4-0.2c-0.1-0.1-0.1-0.2,0-0.3C204.1,57,204.2,57,204.3,56.9z"/>
	<path d="M202.5,52.4c-0.1,0-0.3-0.1-0.3-0.2c0.1-0.1,0.2-0.3,0.3-0.3c0.6-0.2,1.3-0.4,1.9-0.5c0.8-0.2,1.6-0.3,2.5-0.5
		c0,0,0.1,0,0.1,0c0.2,0,0.4-0.1,0.5,0.1c0.1,0.2-0.1,0.4-0.4,0.4c-1.5,0.3-3,0.6-4.5,1C202.7,52.4,202.7,52.4,202.5,52.4z"/>
	<path d="M169.6,55c-1.2,0-2.2-0.1-2.9-0.6c-0.5-0.3-0.7-0.8-0.9-1.3c-0.4-1.2-0.3-2.4,0.4-3.5c0.8-1.2,2.1-2.1,3.9-2.2
		c1.6-0.1,2.8,0.4,3.8,1.3c2.4,2.3,0.4,5.4-2.5,6C170.7,54.9,170,54.9,169.6,55z M171.9,50c0-0.9-0.8-1.6-2.1-1.6
		c-1.2,0-2,0.7-2.1,1.6c0,1,0.8,1.7,2,1.7C171,51.7,171.9,51,171.9,50z"/>
</g>
<g>
	<path d="M271.8,76c-0.3-5.9-2.9-11.4-6.7-16.4c-0.6-0.7-0.7-2.1-0.4-2.9c3.4-9.3,0.3-19.7-8-26.1c-3.7-2.9-7.8-5.2-12.5-6.6
		c-0.7-0.2-1.5-1.1-1.8-1.8c-3.3-8.8-10.4-13.8-20-16.2c-10.5-2.6-20.2-0.8-28.8,5.1c-1.4,0.9-2.1,0.6-3.2-0.2
		c-5.6-4.2-12.1-6.1-19.4-6c-8.4,0.1-15.5,3-21,8.7c-1.4,1.4-2.3,1.6-4.1,0.6c-14.5-8.2-35.2-5.8-45.9,6.7C99,22,98.2,22,96.8,21.6
		c-14.8-5.1-29-4.1-42.3,3.7c-8.2,4.8-13.8,11.6-15.6,20.5c-0.5,2.3-0.3,4.6-0.6,6.9c-0.1,0.7-0.9,1.7-1.6,1.9
		C25.8,57,18.4,62.6,16,72.8c0,0.1-0.2,0.2-0.4,0.3v5.3c0.8,2,1.3,4.2,2.6,6c2.5,3.3,5.4,6.4,8.4,9.8c-2.4,2.7-4.5,6.2-5,10.4
		c-1,9.6,4,16.2,12.7,20.9c4.1,2.2,8.7,3.2,13.5,3.1c1.9,0,3.1,0.5,4.4,2c7.5,8.5,17.2,13.6,29.2,15.5c10.6,1.6,20.7,0.4,30.6-3.2
		c0.7-0.3,2.3,0.1,2.8,0.6c10.6,10.4,24,13.6,39,11.7c4.3-0.5,8.3-1.6,12-3.1c-1.7-0.2-3.1-0.7-4.2-1.6c-2.5,0.8-5.2,1.5-8.1,2
		c-14.8,2.3-32.7-2.2-42.3-18.5c-0.9,0.4-1.8,0.7-2.7,1.1c1,1.7,1.8,3.2,2.6,4.6c-22.2,9.9-48.4,0.9-56.4-11.4
		c1.1-0.4,2.2-0.8,3.3-1.3c-0.6-2.4-0.7-2.5-2.9-2c-6.9,1.5-13.4,0.8-19.7-2.4c-10.9-5.4-14.2-17.8-6.8-26.2c0.9-1,1.6-1.4,3.3-0.9
		c3.1,1,6.2,2.1,9.6,1.6c0.7-2-0.2-2.6-2.1-2.8c-4.8-0.5-9.3-2.1-12.9-5c-7.1-5.9-10-13.7-4.8-22.2c2.9-4.7,7.6-7.2,12.8-9.2
		c3.6-1.4,4.2-1.1,5.4,2.1c0,0.1,0.3,0.2,0.6,0.4c0.7-0.2,1.5-0.5,2.3-0.8c-0.1-0.6-0.2-1.1-0.4-1.5c-1.9-6.6-1.1-13,2.3-19.1
		c7.1-13,26.6-20.6,43.6-17c6.4,1.4,12.4,3.6,17.6,7.8c0.7-0.8,1.2-1.5,1.8-2.3c-2.1-1.5-3.9-2.8-6.1-4.2c0.8-0.8,1.5-1.7,2.3-2.5
		c11.2-9.9,27.7-11.4,41-3.9c1.4,0.8,1.7,1.6,1.1,3c-0.3,0.6,0.2,1.6,0.4,2.3c0.8-0.5,1.9-0.8,2.5-1.5c1.8-2.2,3-5,5.2-6.8
		C159.9,9,167,7,175,8c5.5,0.7,10.6,2.4,14.6,6.3c-1.2,1.6-2.3,3.1-3.5,4.6c1.5,1.1,2.6,1.7,3.8,0c6.9-9.1,16.8-12.3,28.3-10.8
		c8.8,1.1,16.2,5.2,20.1,12.9c1,2,1.2,4.3,2,6.4c0.3,0.8,1.4,1.4,2.4,2.3c0.6-1.3,0.8-1.9,1.1-2.4c14.6,3.7,25.7,19.8,14.1,34.2
		c-1.4,1.7-1.2,2.6,0.9,3.6c0.6-0.6,1.1-1.2,1.6-1.9c0.5-0.6,1-1.2,1.6-1.8c0.5,0.3,0.7,0.5,0.8,0.6c0.6,1,1.3,1.9,1.9,2.9
		c5.2,8.9,5.1,17.8-0.3,26.5c-5.3,8.6-13.8,13.4-24.2,15.8c-2,0.5-2.8,0.4-3-1.8c-0.3-2.6-1.4-5.1-2.1-7.6c-0.5,0-1,0-1.4,0.1
		c-0.3,1.1-1,2.3-0.7,3.2c2.6,6.7,1.8,13.1-1.8,19.1c-1.9,3.2-3.9,6.3-8.5,7.2c-2.5,0.5-4.7,2.5-7.1,3.7c-1.6,0.8-3.1,1.7-4.8,2.4
		c0.5,0.9,0.9,1.9,1.1,2.9c0.5-0.1,1-0.2,1.5-0.3c2.9-0.7,5.3-3,7.9-4.6c0.9-0.5,1.9-1,2.9-1.1c2.9-0.3,4.8-1.9,6.4-3.9
		c3.5-4.5,6.5-9.1,6.9-14.8c0-0.5,1.2-1.2,2-1.4c7-1.3,13.3-3.9,18.8-8C267.4,95.6,272.4,86.8,271.8,76z"/>
	<path d="M184.5,125.4c-1,4.7-2.8,8.9-5.3,12.4c0.7,0.3,1.4,0.7,1.9,1.2c0.3-3.5,2.2-6.8,5.8-7.9c-0.4-0.6-0.2-1.5,0.1-3.3
		C187.5,125.6,186.6,125.1,184.5,125.4z"/>
	<path d="M248.9,132.1c-1.7,0-3.5,0.3-5.1-0.1c-1.9-0.5-4.5-1.2-5.2-2.6c-1.8-3.4,1.1-9.9,4.6-11.7c5-2.5,11.7-1.8,14.1,2.6
		c1.5,2.8,0.6,6.6,0.6,10c0,0.4-1.1,0.9-1.8,1c-2.4,0.4-4.8,0.6-7.2,0.9C248.9,132.3,248.9,132.2,248.9,132.1z M251.3,130.3
		c1.8-0.6,4.5-1.2,4.9-2.3c0.6-1.9,0.1-4.3-0.9-6.1c-0.8-1.5-2.9-3.2-4.6-3.3c-4.5-0.4-7.9,1.7-9.9,5.3c-1.8,3.3,0.1,6.1,4.4,6.5
		c1.2,0.1,2.3,0,3.5,0C249.7,130.4,250.6,130.6,251.3,130.3z"/>
	<path d="M223.7,144.3c-1.2-1.1-1.3-3.6-1.2-5.5c0.2-2.7,1-5.5,4.5-6.2c5.1-1.1,8,0.1,9.6,3.7c0.5,1.2,0.5,2.6,0.5,3.9
		c0.1,6,0,6-6.8,6.7C228.1,146.2,225.2,145.8,223.7,144.3z M235.2,141c-0.2-3.4-2.4-6.7-4.8-6.7c-2.9,0-6.1,3.1-6.1,5.9
		c0,2.3,2.7,4.2,6.5,4.2C233.1,144.7,235.4,144.5,235.2,141z"/>
</g>
<g>
	<path d="M254.7,58.1c-0.4,1-0.6,2.2-1.2,3c-1.1,1.7-2.5,3.3-3.9,5c1.1,1.4,2.1,3.2,2.3,5.3c0.5,4.9-1.8,8.3-5.9,10.7
		c-1.9,1.1-4,1.6-6.2,1.6c-0.9,0-1.4,0.2-2,1c-3.5,4.3-7.9,7-13.5,7.9c-4.9,0.8-9.5,0.2-14.1-1.6c-0.3-0.1-1,0-1.3,0.3
		c-4.9,5.3-11,6.9-18,6c-5.2-0.7-9.5-3.2-12.6-7.5c-0.5-0.7-0.9-1.5-1.3-2.3c-0.4-0.7-0.7-1-1.6-0.6c-3.9,1.6-7.9,1.7-12,0.7
		c-1.3-0.4-2.4-1.6-3.6-2.3c-0.4-0.3-0.9-0.5-1.3-0.6c-1.3-0.2-2.2-0.9-2.9-2c-1.6-2.3-3-4.6-3.2-7.5c0-0.3-0.6-0.6-0.9-0.7
		c-3.2-0.7-6.1-2-8.6-4.1c-4.2-3.5-6.4-8-6.2-13.5c0.2-3,1.3-5.8,3.1-8.4c0.3-0.4,0.3-1.1,0.2-1.5c-1.6-4.8-0.1-10.1,3.7-13.3
		c1.7-1.5,3.6-2.7,5.7-3.4c0.3-0.1,0.7-0.5,0.8-0.9c1.5-4.5,4.8-7.1,9.2-8.3c4.8-1.3,9.3-0.4,13.3,2.6c0.6,0.5,1,0.3,1.5-0.1
		c2.6-2.2,5.6-3.1,8.9-3c3.9,0.1,7.1,1.6,9.7,4.4c0.7,0.7,1,0.8,1.9,0.3c6.7-4.2,16.2-3,21.1,3.4c0.4,0.5,0.8,0.6,1.4,0.3
		c6.8-2.6,13.4-2.1,19.5,1.9c3.8,2.5,6.3,5.9,7.2,10.5c0.2,1.2,0.1,2.4,0.3,3.5c0.1,0.4,0.4,0.9,0.7,1c5,1.3,8.4,4.1,9.5,9.3
		c0,0.1,0.1,0.1,0.2,0.1C254.7,56.3,254.7,57.2,254.7,58.1z M215.1,30c-0.4-0.4-0.7-0.9-1.1-1.3c-5.2-5.1-12.7-5.8-18.8-2
		c-0.6,0.4-0.8,0.8-0.5,1.5c0.1,0.3-0.1,0.8-0.2,1.2c-0.4-0.2-0.9-0.4-1.1-0.8c-0.8-1.1-1.4-2.5-2.4-3.5c-2.7-2.6-5.9-3.6-9.6-3.1
		c-2.5,0.4-4.9,1.2-6.7,3.2c0.6,0.8,1.1,1.6,1.6,2.4c-0.7,0.6-1.2,0.9-1.8,0c-3.2-4.6-7.7-6.3-13-5.5c-4.1,0.6-7.4,2.6-9.2,6.6
		c-0.5,1-0.5,2.2-0.9,3.3c-0.2,0.4-0.7,0.7-1.1,1.2c-0.3-0.7-0.4-0.9-0.5-1.2c-6.7,1.9-11.8,10.1-6.5,17.5c0.6,0.9,0.5,1.3-0.4,1.8
		c-0.3-0.3-0.5-0.6-0.7-0.9c-0.2-0.3-0.5-0.6-0.7-0.9c-0.2,0.2-0.3,0.2-0.4,0.3c-0.3,0.5-0.6,1-0.9,1.5c-2.4,4.5-2.3,9.1,0.2,13.5
		c2.5,4.4,6.4,6.8,11.1,8.1c0.9,0.2,1.3,0.2,1.4-0.9c0.1-1.3,0.6-2.6,1-3.9c0.2,0,0.4,0,0.7,0c0.1,0.5,0.5,1.2,0.3,1.6
		c-1.2,3.4-0.8,6.7,0.9,9.8c0.9,1.6,1.8,3.2,3.9,3.7c1.2,0.3,2.1,1.3,3.2,1.9c1,0.6,2.1,1.3,3.2,1.5c2.8,0.4,5.7,0.4,8.4-0.7
		c1.8-0.7,1.8-0.6,1.5-2.5c-0.2-1.1,0.2-1.4,1.2-1.2c1.5,7.6,6.4,12.4,14.2,13.7c6.8,1.2,15-1.1,19.5-9.4c0.4,0.2,0.8,0.4,1.3,0.6
		c-0.5,0.9-0.8,1.6-1.2,2.4c10.2,5.1,22.3,0.5,26-5.8c-0.5-0.2-1-0.4-1.5-0.6c0.3-1.2,0.3-1.3,1.4-1c3.2,0.7,6.2,0.4,9.1-1.2
		c5-2.8,6.5-9.1,3.1-13.4c-0.4-0.5-0.8-0.7-1.5-0.5c-1.4,0.5-2.9,1.1-4.4,0.8c-0.3-1,0.1-1.3,1-1.4c2.2-0.3,4.3-1.1,6-2.6
		c3.3-3,4.6-7,2.2-11.3c-1.3-2.4-3.5-3.7-5.9-4.7c-1.6-0.7-1.9-0.6-2.5,1.1c0,0.1-0.1,0.1-0.3,0.2c-0.3-0.1-0.7-0.3-1.1-0.4
		c0.1-0.3,0.1-0.6,0.2-0.8c0.9-3.4,0.5-6.6-1-9.7c-3.3-6.7-12.3-10.5-20-8.7c-3,0.7-5.7,1.8-8.1,4c-0.3-0.4-0.6-0.8-0.9-1.2
		C213.3,31.4,214.1,30.7,215.1,30z"/>
	<path d="M129,58.2c-1.3-0.2-2.5-0.3-3.8-0.5c-0.4-0.1-0.9-0.4-0.9-0.6c0-2-0.5-4.2,0.3-5.9c1.3-2.6,4.8-3,7.4-1.5
		c1.8,1,3.4,4.8,2.4,6.8c-0.4,0.8-1.7,1.2-2.7,1.5c-0.8,0.2-1.8,0-2.7,0C129,58.1,129,58.1,129,58.2z M129.1,57c0.6,0,1.2,0,1.9,0
		c2.3-0.2,3.3-1.9,2.3-3.8c-1.1-2.1-2.9-3.4-5.2-3.1c-0.9,0.1-2,1.1-2.4,1.9c-0.5,1.1-0.8,2.5-0.5,3.6c0.2,0.6,1.6,1,2.6,1.3
		C128.2,57.2,128.7,57,129.1,57z"/>
	<path d="M109.4,73c-2.4-0.3-2.4-0.3-2.4-2.6c0-0.5,0-1.1,0.2-1.5c0.5-1.4,1.6-1.9,3.4-1.5c1.2,0.3,1.5,1.4,1.6,2.4
		c0,0.7,0,1.7-0.4,2.2C111.2,72.6,110.2,72.7,109.4,73z M109.2,72c1.4,0,2.3-0.7,2.3-1.7c0-1.1-1.1-2.3-2.2-2.3
		c-0.8,0-1.6,1.3-1.7,2.6C107.6,72.1,108.4,72.1,109.2,72z"/>
	<path d="M114.4,62.7c0-1.6,1.1-3.3,3.1-3.6c1.1-0.2,2.5,0.6,3.6,1.2c0.8,0.5,0.5,3.5-0.3,4c-0.8,0.5-1.7,1-2.6,1.3
		C115.4,66.3,114.4,65.4,114.4,62.7z M115.3,63.1c0.3,0.4,0.9,1.4,1.2,1.4c1.2-0.2,2.4-0.7,3.4-1.3c0.4-0.2,0.4-1.1,0.5-1.6
		c0-0.1-0.1-0.3-0.3-0.4c-0.7-0.3-1.5-1.1-2-0.9c-1,0.3-1.9,1.1-2.8,1.8C115.3,62.2,115.3,62.5,115.3,63.1z"/>
</g>
<g id="XMLID_7_">
	<g>
		<path d="M271.6,200.1c0.3,1.1,0.4,2.5,0.2,3.7c-0.3,1.8-1.1,3.4-2.8,4.3c-0.4,0.2-0.8,0.6-1.1,0.9c-1.1,1-2.6,1.3-3.9,1.7
			c-2.2,0.7-4.5,0.7-6.8,0.7c-0.3,0-0.6,0-0.8-0.1c-1.4-1-3.2-0.7-4.7-1.1c-1-0.3-2-0.9-3-1.4c-0.2-0.1-0.3-0.2-0.5-0.3
			c-2.2-1.1-2.6-1.8-2.1-4.1c0.1-0.3,0.3-0.7,0.6-0.9c1.6-0.9,3.3-1.8,5.1-2.8c-0.1-0.5-0.3-1-1.3-0.6c-2.2,0.8-4.3,1.6-6.6,2.4
			c1.1,1.8,1.4,3.9,1.1,6c-0.2,1.6-1.6,2.5-3.1,3.2c-0.9,0.5-2,0.8-3,1.1c-1.9,0.7-3.9,1-6,0.8c-1.3-0.2-2.6-0.2-3.7-1
			c-1.8-1.3-3.9-1-5.9-1.1c-0.8-0.1-1.5-0.5-2.3-0.8c-1.5-0.8-3.2-0.6-4.8-0.5c-2.7,0-5.3,0.2-8,0.2c-1.4,0-2.9-0.1-4.3-0.2
			c-1.4-0.1-2.4-1.1-3.3-2c-0.5-0.5-1-1.1-1.6-1.4c-0.7-0.3-0.8-0.8-0.9-1.3c-0.1-0.5-0.5-1.1-0.4-1.6c0.1-0.8,0.5-1.5,0.9-2.2
			c0.3-0.4,0.7-0.8,1.2-1c1.5-0.6,3.1-1,4.7-1.6c0.6-0.2,1.1-0.5,1.8-0.9c-2.4-1.3-4.4-2.4-6.3-3.5c-1.5-1-3-2-4.4-3.2
			c-2.2-1.9-4.3-3.9-6.3-6.1c-1.4-1.5-2.4-3.4-3.7-5c-0.2-0.3-0.8-0.5-1-0.4c-2.1,0.9-4.1,2-6.2,2.8c-2.1,0.8-4.4,1.3-6.6,1.8
			c-1.5,0.3-3,0.7-4.5,0.7c-4,0.1-7.4-3.2-7.6-7.3c0-0.6,0-1.3,0.2-1.8c1-2.2,2-4.4,3.9-6.1c2.2-1.9,4.3-3.9,6.4-5.9
			c2.5-2.5,4.9-5.1,7.5-7.7c-1-0.4-2-0.8-2.9-1.1c-1.6-0.6-3.3-1-4.8-1.6c-3-1.1-6.1-2.2-9-3.5c-2.5-1.1-4.9-2.4-7.4-3.7
			c-0.9-0.5-2-0.7-2.9-1.3c-1.3-0.8-2.5-1.8-3.1-3.4c-0.4-1.3-1.2-2.4-1.7-3.6c-1.1-2.6-1.5-5.3,0.2-7.9c1.4-2,3.4-3,5.6-3.6
			c0.9-0.3,1.9-0.4,2.9-0.5c2.1-0.2,4.1,0.5,6,1.3c0.3,0.1,0.7,0.1,1.1,0c1.4-0.3,2.9-0.8,4.3-0.8c1.2,0,2.5,0.5,3.5,1
			c1.8,1,1.6,2.8,1.4,4.6c-0.1,0.6,0,0.8,0.5,1.1c1.8,1.1,3.5,2.3,5.3,3.4c1.2,0.7,2.4,1.3,3.7,2c0.4-1.3,0.7-2.5,1.1-3.6
			c0.6-1.7,2-2.9,3.3-4c2.2-1.9,4.5-1.5,7-0.4c1.3,0.6,2.6,0.5,4.1-0.1c3.5-1.5,7.1-3,10.9-1.1c2.7,1.3,4.8,3.3,5.3,6.5
			c0.1,1,0.4,2,0.5,3c0,0.5-0.2,1.1-0.3,1.7c0.6,1,1.4,2,2.1,3.1c0.4,0.8,0.8,1.6,0.9,2.4c0.1,1.8,0.1,1.7,1.4,2.8
			c1,0.8,2.1,1.7,2.8,2.7c1,1.6,1.8,3.5,2.4,5.3c0.6,2.1,0.6,4.4-0.4,6.4c-0.4,0.7-0.1,1,0.4,1.4c0.8,0.7,1.5,1.4,2.3,2.1
			c0.2,0.2,0.6,0.3,0.9,0.3c1.9,0.2,3.8,0.3,5.7,0.5c1.3,0.2,2.5,0.8,3.8,0.9c1.4,0.1,2.9,0,4.3-0.1c1.4-0.1,2-1,2.9-2
			c2-2.4,3.2-5.1,4-7.9c0.5-2,0.4-4.2,0.4-6.3c0-2.1-0.2-4.1-0.2-6.2c-0.1-2.5,2.3-4.1,4.2-3.6c1.2,0.4,2.5,1,3.4,1.8
			c2,1.9,3.9,3.8,5.5,6.1c1.8,2.4,3.2,5.1,4.5,7.8c0.9,1.8,1.2,3.8,1.9,5.6c1,2.7,1,5.5,1,8.4c0,0.8,0.5,1.7,0.4,2.5
			c-0.2,2.4-0.6,4.8-0.8,7.1c-0.1,0.4-0.1,0.9,0.1,1.2c3,3.2,2.6,7.2,2.3,11.1c0,0.4,0.2,1.1,0.5,1.2
			C270.9,196.5,271.1,198.4,271.6,200.1z M270.1,204.2c0.3-1,0.3-2.1,0.2-3.1c-0.1-0.9-0.5-1.7-0.8-2.5c-0.2-0.5-0.6-0.9-0.9-1.2
			c-0.4-0.3-1-0.5-1.4-0.8c-0.2-0.1-0.4-0.5-0.4-0.7c0.2-1.7,0.7-3.4,0.6-5.1c-0.1-1.9-0.5-3.9-2-5.4c-0.4-0.4-0.8-0.9-1.3-1.2
			c-1-0.6-1.9-1.3-3-1.8c-0.6-0.3-1.2-0.4-1.7-0.6c0.6-1.5,1.1-2.8,1.6-4.2c0.6-1.5,1.3-2.9,1.6-4.4c0.4-2.7,0.5-5.4,0.8-8.1
			c0.3-2.4-0.9-4.4-1.8-6.5c-0.3-0.8-0.8-1.6-1.3-2.3c-1.3-2.1-2.6-4.3-4-6.3c-1.6-2.1-3.3-4.2-5.9-5.1c-2-0.8-2-0.8-2.6,1.3
			c0,0.1-0.1,0.1-0.1,0.2c-0.1,0.8-0.4,1.6-0.3,2.3c0.1,1.5,0.5,2.9,0.6,4.4c0.1,2.3,0.1,4.6-0.7,6.9c-0.7,2.2-1.6,4.4-3.1,6.3
			c-0.7,0.9-1.3,1.9-1.9,2.9c2.4,0.5,4.6,0.9,6.9,1.3c-0.4,1.3-1.1,1.7-1.9,1.3c-2.1-1-4.4-0.8-6.7-0.9c1.6,0.9,3.1,1.6,4.5,2.5
			c1.2,0.7,1.1,1,0,1.7c-1.4-0.7-2.6-1.4-3.9-2c-1.5-0.6-3-1.3-4.6-1.7c-2-0.5-4-0.9-6-1.3c-1.5-0.3-3.1-0.4-4.6-0.6
			c0.4,1.9,2,3.7,0.2,5.8c-0.2-0.4-0.3-0.5-0.3-0.6c-0.2-3.1-1.8-5.5-4.1-7.5c-0.9-0.8-1.2-0.8-2,0.2c-0.4,0.5-0.9,1-1.4,1.4
			c-1.4,1-2.8,2-4.4,2.8c-2.2,1.1-4.4,2-6.7,2.9c-1.2,0.4-1.4,0.8-0.7,1.8c1.5,1.9,2.8,3.9,4.5,5.6c1.8,1.8,3.7,3.5,5.8,5
			c2.6,1.9,4.9,4,6.7,6.7c1.8,2.5,2.7,5.3,3.6,8.1c0.9,0.2,1.8,0.4,2.8,0.6c0,0.1,0.1,0.3,0.1,0.4c-0.4,0.3-0.8,0.8-1.2,0.8
			c-1.6-0.1-3.2,0.1-4.7,0.8c-1,0.4-2,0.8-2.7,1.6c-1.7,1.8-1.7,2.6-0.1,3.6c0.8-0.8,1.6-1.6,2.6-2.3c0.9-0.7,2-1.1,3.1-1.7
			c0.1,0.1,0.2,0.1,0.3,0.2c-0.2,0.5-0.4,1.1-0.7,1.3c-0.8,0.5-1.7,0.8-2.5,1.2c-0.7,0.4-0.8,1.2-0.2,1.8c0.5,0.5,3.3,1,3.9,0.7
			c0.1,0,0.1-0.1,0.2-0.1c1.1-1.1,2.4-2.2,3.4-3.5c0.6-0.8,1.3-0.8,2.5-0.8c-0.4,0.5-0.7,0.9-0.9,1.1c-0.9,0.8-1.8,1.6-2.6,2.4
			c-0.2,0.2-0.1,0.8,0,1.1c0.3,1.1,1.2,1.3,2.2,1.3c3,0.1,6-0.1,8.9-1.2c2.2-0.9,3.2-2.3,2.4-4.6c-0.6-1.7-1.6-3.4-2.7-4.9
			c-0.7-1-1.5-1.9-1.2-3.3c0.1-0.4,0-0.8,0-1.1c-0.3-1.7-0.2-3.5-1.8-4.6c-0.8-0.6-1.9-0.9-3-1.4c0.5-0.5,1.1-1,1.9-0.8
			c1.8,0.4,3,1.6,3.5,3.3c0.3,1.1,0.9,1.5,2,1.3c1.3-0.3,2.6-0.5,3.9-0.9c2.1-0.6,4.1-1.3,6.2-1.9c0.9-0.2,1.5-0.4,1.8-1.3
			c0.2-0.6,0.8-1.1,1.3-1.5c0.3-0.2,0.8-0.2,1.3-0.3c-0.3,0.7-0.3,1.2-0.6,1.6c-1.3,2-2.6,3.9-3.9,5.9c-1.2,1.7-1.2,1.6,0.3,3.1
			c0.3,0.3,0.6,0.8,1.1,1c0.3,0.2,0.8,0.3,1.1,0.2c0.8-0.2,1.5-0.7,2.3-0.7c1.6-0.2,3.3-0.4,4.9,0.3c-0.4,1.2-0.6,1.2-1.7,1
			c-1-0.2-2.2-0.2-3.2,0c-1.6,0.3-3.1,0.9-4.7,1.5c-1.9,0.7-3.9,1.3-5,3.5c1,0,0.9,1.7,2.1,1.1c-0.2-1.6,2.7-3.8,4.3-3.5
			c0.3,0.1,0.5,0.3,0.8,0.5c-0.3,0.2-0.6,0.5-0.9,0.5c-1,0-2,0.1-2.5,1.1c-0.2,0.4-0.3,0.9-0.5,1.5c0.6,0.5,1.1,1.1,1.8,1.7
			c0.5,0.4,1,0.4,1.3-0.3c0.2-0.5,0.5-1,0.9-1.3c1.2-0.9,2.6-1.6,3.7-2.6c1-0.9,1.4-0.3,2.3,0.2c-1.3,0.8-2.5,1.7-3.8,2.3
			c-0.9,0.4-1.3,1.3-1.1,1.8c0.2,0.6,1.1,1.3,1.8,1.3c1.6,0.1,3.2-0.2,4.8-0.4c2.5-0.4,4.7-1.4,6.3-3.3
			C269.2,205.7,269.8,205,270.1,204.2z M264.3,181.8c0.9-3.5,0.5-7.2,0.6-10.8c-0.2,0-0.4-0.1-0.5-0.1c-0.4,3.5-1.5,6.7-3.1,9.8
			C262.3,181.1,263.3,181.4,264.3,181.8z M252.4,193c-0.1-0.1-0.2-0.1-0.2-0.2c-0.8,0.2-1.7,0.5-2.5,0.7c-2.6,0.7-5.1,1.3-7.7,2
			c-0.2,0.1-0.6,0.1-0.6,0.3c-0.4,0.8,0,3.4,0.6,4.1c0.4,0.4,0.7,0.9,1,1.2c2.5-0.7,5-1.4,7.6-2.1c-0.2-0.5-0.2-0.9-0.4-1.1
			c-0.7-0.8-0.4-1.4,0.2-2.1C251.1,195.1,251.7,194,252.4,193z M224.4,201.9c1.1,0.3,1.4,0.1,0.8-1c-0.2-0.3-0.3-0.8-0.4-1.2
			c-0.4-2-1.3-3.7-2.5-5.3c-0.4-0.5-0.7-1.2-1.1-1.7c-1.3-1.3-2.5-2.7-3.9-3.8c-1.6-1.3-3.5-2.4-5.1-3.8c-1.7-1.5-3.2-3.3-4.6-5
			c-1.1-1.4-2-3-3.3-5c-4.3,1-9,2.1-13.7,3.2c0,0.1,0,0.2-0.1,0.3c3.2,0.9,6.4,1.8,9.6,2.7c-0.2,0.6-0.6,1.1-1.7,0.8
			c-1.1-0.3-2.4-0.2-3.5-0.5c-2.2-0.6-4.3-1.5-6.5-2.2c-0.6-0.2-1.2-0.4-1.9-0.5c-0.1,0.1-0.1,0.2-0.2,0.4c2,2.3,4,4.6,6.1,6.8
			c0.4,0.4,1,0.6,1.4,1c1.7,1.6,3.4,3.3,5.2,4.9c0.6,0.6,1.4,1,2.1,1.4c1.8,1,3.7,1.9,5.6,2.8c2.3,1,4.5,2,6.9,2.8
			c1.6,0.5,3.3,0.8,4.9,1.2C220.4,200.9,222.4,201.3,224.4,201.9z M220.9,159.8c0.1-1.2-0.4-2.6-1-3.8c-1-2.3-2.1-4.5-4.6-5.8
			c-1.5-0.8-2.9-1.8-4.6-2c-0.4-0.1-0.8-0.3-1.3-0.4c-1.4-0.4-2.7-0.9-4.1-1.2c-1.4-0.3-2.9-0.4-4.4-0.5c-2.7-0.3-5.4-0.6-8.1,0.4
			c-0.2,0.1-0.4,0-0.9,0.1c0.4-0.5,0.7-0.9,1.2-1.5c-1.3-0.1-2.4-0.3-3.5-0.4c0,0.1,0,0.2-0.1,0.3c0.2,0.2,0.4,0.3,0.6,0.5
			c-1,1.2-1.2,1.2-2,0c-0.5-0.7-1.2-1.3-1.9-1.7c-1.7-1-3.5-1.8-5.3-2.8c-1.2-0.7-2.3-1.4-3.5-2.1c-1.9-1.2-3.9-2.3-5.8-3.4
			c-0.6-0.3-1.1-0.7-1.8-1.1c-0.4,0.2-0.9,0.6-1.4,0.9c-0.7-0.7-0.3-1,0.3-1.5c1.5-1.1,2.1-3.1,0.4-4.2c-1.9-1.2-4.1-1.4-6.4-0.6
			c-0.9,0.3-2.1,0.4-3,0c-3.2-1.2-6.4-1.3-9.6-0.3c-1.7,0.5-3.4,1.8-3.6,3.8c-0.2,1.7,0.1,3.5,0.6,5.2c0.3,1.2,1.1,2.3,1.8,3.4
			c0.4,0.7,0.9,1.3,1.4,2c0.6-0.7,1.1-1.2,1.4-1.5c-0.6-1-1.4-1.9-1.6-3c-1-3.8,1.9-6,5-5.3c1.5,0.3,2.9,0.6,4.4,1
			c-0.1,0.9,0.6,1.7,1.8,1.8c0.4,0,0.9,0,1.2,0.2c0.6,0.5,1.7,1.4,1.6,1.8c-0.3,1.1,0.3,1.1,1,1.2c0.3,0,0.6,0.1,1.1,0.1
			c-0.3,0.5-0.6,0.7-0.8,1.1c1.1,0.8,2.2,1.6,3.3,2.4c1.6,1.2,3.3,2.3,4.8,3.6c1.4,1.1,2.6,2.3,4,3.4c1.4,1,2.8,2,4.3,2.9
			c1.6,0.9,3.1,1.7,4.8,2.4c1.2,0.5,2.4,0.8,3.7,0.9c1.4,0.2,2.9,0.5,4.3,0.2c2.2-0.5,4.2-1.4,6.3-2.2c0-0.1,0.1-0.2,0.1-0.3
			c-0.5-0.2-1.1-0.3-1.6-0.5c-0.6-0.2-1.3-0.3-1.9-0.4c0-0.1-0.1-0.2-0.1-0.3c0.5-0.2,0.9-0.5,1.4-0.5c2.6-0.1,5.2,1.2,6.5,3.8
			c0.9,1.7,0.3,2.9-1.3,3c0.4-1.2-0.4-3-1.9-4.2c-1.8,1.3-3.7,2.7-5.2,4.4c-1.7,1.9-3.3,3.7-4.9,5.6c-1.9,2.1-3.6,4.3-5.6,6.3
			c-2.7,2.8-5.3,5.7-8.6,7.8c-2.4,1.5-4.8,2.6-7.6,2.8c-1.1,0.1-2.2,0.7-3.5,0.3c-1.9-0.6-3.6-1.3-4.4-3.3c-0.1-0.4-0.3-0.8-0.4-1.1
			c-0.2,0-0.3,0.1-0.5,0.1c0.2,0.8,0.5,1.5,0.6,2.2c0.3,1.4,1.6,2.1,2.4,3.1c0.9,1,1.8,1.2,2.9,1.1c1.8-0.2,3.6-0.8,5.5-0.9
			c3.4-0.2,6.4-1.8,9.4-3c3.1-1.2,5.9-3,9-4.4c3.1-1.4,6.2-2.8,9.3-4c2.9-1.1,5.9-1.7,8.5-3.5c0.1-0.1,0.3,0,0.5,0.1
			c0.1,0.1,0.1,0.2,0.2,0.3c-0.6,0.6-1.2,1.4-1.9,1.8c-2.4,1.1-4.8,2.1-7.2,3.1c-2.3,0.9-4.7,1.8-7.1,2.7c-0.2,0.1-0.4,0.3-0.5,0.4
			c3.6-0.6,7-1.6,10.5-2.3c2.6-0.5,5-1.2,7.3-2.3c1.6-0.8,3.3-1.6,4.8-2.6c1.9-1.3,3.2-3,4.5-4.9
			C220.6,162.6,220.8,161.2,220.9,159.8z M222.1,202.8c-1.6-0.4-3.1-0.9-4.6-1.2c-1-0.2-2.1-0.3-3.1-0.6c-1.9-0.6-3.7-1.3-5.6-2.1
			c-1-0.4-1.6-0.2-1.7,0.8c-0.1,0.8-0.6,1-1.2,0.8c-1.9-0.6-3.5,0.2-5.1,0.9c-1,0.4-1.3,1.4-1.4,2.3c0,0.6,0.4,1.2,0.6,1.9
			c2.5-2.1,4.8-3.3,6.4-2.9c-1.1,0.6-1.9,1.3-2.7,1.6c-1.1,0.4-2.1,1.7-1.9,2.6c0.2,0.9,1.4,1.5,2.5,1.4c0.5-1.9,3.6-4.4,5.7-4.4
			c-0.4,0.5-0.7,1-1.2,1.3c-1.3,0.8-2.8,1.3-2.9,3.2c0.5,0.8,1.3,1,2.3,0.9c2.4-0.1,4.7-0.1,7.1-0.2c1,0,1.9-0.1,2.9-0.2
			C217.8,205.9,220.1,204.6,222.1,202.8z M214.2,147.5c-0.7-3-2.3-4.9-4.9-6.6c0.5-0.2,1.1-0.3,1.6-0.5c0.2-0.1,0.6-0.4,0.6-0.6
			c-0.1-1.1-0.2-2.2-0.3-3.2c0-0.3-0.2-0.5-0.3-0.7c-1.2-1.9-2.3-3.7-4.5-4.8c-2.6-1.3-5.1-1-7.4,0.2c-3,1.5-5.7,2.3-9,0.7
			c-1.1-0.6-2.9-0.5-4-0.1c-2.9,1.2-3.4,4.3-4.4,6.9c-0.1,0.3,0.3,0.8,0.5,1.2c0.3-0.3,0.6-0.5,0.9-0.8c0.2-0.2,0.2-0.5,0.4-0.7
			c1-1,1.9-2.2,3.1-3c1.1-0.8,2.9,0.9,3.1,2.6c0.1,1.7,0.1,3.4-0.9,4.9c1.9,0.4,3.7,0.7,5.6,1c0-0.4,0-0.8,0-1.1
			c0.2-2.8,0.9-5.5,3.2-7.4c1.3-1,2.7-2,4.5-1.7c1.1,0.2,2.4,0.1,3,1.4c0.4,0.9,0.9,1.9,0.9,2.8c0,1.2-0.4,2.4-0.7,3.6
			c-0.3,1.1-0.6,2.2-0.9,3.2C207.6,145.5,210.7,146.5,214.2,147.5z M204,140.5c0.1-1,0.2-2,0.1-3c-0.2-1.9-1.6-3.1-3.3-2.7
			c-0.7,0.1-1.3,0.6-1.9,1c-1.1,0.9-2.4,1.7-2.7,3.3c-0.3,1.4-0.3,2.9-0.4,4.4c0,0.2,0.4,0.6,0.6,0.6c1,0.1,2.1,0,3.1,0
			C200,141.6,201,140.7,204,140.5z M195.9,157.8c-0.1-0.1-0.1-0.3-0.2-0.4c-0.3,0-0.6-0.1-0.9-0.1c-2.2,0.4-4.3,0-6.4-0.6
			c-2.2-0.6-4.3-1.1-6.2-2.5c-2-1.4-4.3-2.6-6.4-4.1c-2.5-1.8-4.9-3.9-7.4-5.9c-1.7-1.3-3.4-2.5-5.1-3.6c-0.3-0.2-0.9-0.1-1.2,0.1
			c-0.6,0.3-1.1,0.7-1.7,0.9c-1.2,0.4-1.5-0.8-1.8-1.4c-0.3-0.7-0.3-1.7,0-2.5c0.4-1.1,0.3-1.6-0.7-2.1c-1.1-0.5-2.2-0.9-3.3-1.4
			c-1.1-0.5-2.1-0.4-3.1,0.2c-0.9,0.5-0.8,1.4-0.7,2.2c0.2,1.2,0.5,2.4,1.8,2.8c1.5,0.6,2.8,1.3,3.5,2.9c0.2,0.4,0.2,0.9,0.3,1.3
			c0.3,1.1,0.6,2.1,1,3.1c0.1,0.3,0.4,0.6,0.7,0.7c1.7,0.8,3.4,1.5,5.1,2.2c2.3,1,4.7,2.1,7.1,2.9c2.7,0.9,5.4,1.7,8.1,2.5
			c0.5,0.1,0.9,0.3,1.4,0.4c-0.3,0.6-0.4,1.1-0.6,1.4c-0.3,0.4-0.7,0.7-1,1.1c-3.9,4-7.8,8-11.7,12c-0.8,0.8-1.8,1.6-2.6,2.4
			c-0.9,0.9-1.4,1.9-1.2,3.2c0.2,0.7,0.6,1.4,0.7,2.1c0.2,1.9,2.2,2.9,3.7,2.7c2.2-0.3,4.3-0.9,6.6-1.4c-0.8-1.4-0.7-2.6,0.1-3.8
			c1.2-1.6,2.4-0.4,3.6,0.1c-0.1-0.7-0.2-1.3-0.2-1.9c0-2,0.2-3.8,0.8-5.8c0.7-2.2,1.6-4.1,2.8-6c1.8-2.6,4-2.7,5.7-1.2
			c1.9-0.6,3.7-1.2,5.6,0c0.3,0.2,0.9,0.1,1.1-0.2C194.1,159.6,194.9,158.7,195.9,157.8z M192,161.5c0-0.1,0-0.3-0.1-0.4
			c-0.8-0.1-1.7-0.4-2.5-0.3c-1.7,0.4-3.3,0.9-4.2,2.6c-0.8,1.5-1.6,3-2.4,4.5c-0.2,0.3-0.5,0.5-0.8,0.7c-0.2-0.3-0.6-0.7-0.5-0.9
			c0.6-1.4,1.1-2.9,1.9-4.2c0.5-0.9,1.3-1.6,1.9-2.4c-0.9-0.6-2.4-0.5-2.9,0.3c-1.5,2.3-3,4.6-3.5,7.5c-0.1,0.4-0.1,0.8-0.2,1.1
			c-0.8,1.8-0.8,3.6-0.2,5.8C183.6,171.3,187.7,166.2,192,161.5z M188.2,139.1c0-0.1,0.1-0.6,0-0.9c-0.3-0.5-0.6-1.1-1.1-1.3
			c-0.3-0.2-1,0.1-1.4,0.5c-0.5,0.5-0.9,1.1-1.4,1.7c-0.1,0.2-0.1,0.5-0.1,0.7c0,0.3-0.1,0.6-0.1,1c1.1,1,1.2,1,2.2,0
			C186.8,140.2,187.4,139.7,188.2,139.1z M177.3,176.9c0-0.2,0-0.3,0-0.5c-0.8-0.3-1.5-0.5-2.3-0.8c-0.1,0.8-0.3,1.5-0.3,2.3
			c0,0.1,0.5,0.2,1,0.4c-0.2-0.4-0.3-0.6-0.3-0.6C176,177.3,176.6,177.1,177.3,176.9z M162.5,138.6c0.3-0.7-1-1.9-1.9-1.9
			c-1,0.1-0.9,0.8-0.9,1.9c0.1,0.6,0,1.9,1.1,1.9C161.4,140.5,162.2,139.4,162.5,138.6z M155.3,145.8c0.1-0.1,0.1-0.2,0.2-0.3
			c-0.4-1-0.8-2-1.3-3c-0.2-0.3-0.8-0.7-1-0.5c-0.6,0.4-1.2,0.9-1.7,1.4c-0.4,0.4-0.4,1,0.1,1.2C152.8,145,154,145.3,155.3,145.8z"
			/>
		<path d="M170.3,173.7c-1.1,1.7-1.8,3.5-4.2,3.5c-1.5-1.2-1.4-3-1.3-4.9c0.1-0.8,0.8-1,1.6-0.6C167.7,172.4,168.9,173,170.3,173.7z
			 M167.1,176.6c0.6-0.9,1.2-1.8,1.8-2.7c-0.9-0.4-1.7-0.8-2.7-1.3c-0.3,1.4,0.6,2.7,0.4,4C166.8,176.5,166.9,176.5,167.1,176.6z"/>
		<path d="M168.1,131.4c-0.4,0.8-1,1.2-1.8,0.7c-0.8-0.5-1.4-0.5-2.1,0c-0.1,0.1-0.3,0-0.4-0.1C164.4,130.2,166.2,130,168.1,131.4z"
			/>
	</g>
	<g>
	</g>
</g>
</svg>
