<?xml version="1.0" encoding="utf-8"?>
<!-- Generator: Adobe Illustrator 17.1.0, SVG Export Plug-In . SVG Version: 6.00 Build 0)  -->
<!DOCTYPE svg PUBLIC "-//W3C//DTD SVG 1.1//EN" "http://www.w3.org/Graphics/SVG/1.1/DTD/svg11.dtd">
<svg version="1.1" id="Layer_1" xmlns="http://www.w3.org/2000/svg" xmlns:xlink="http://www.w3.org/1999/xlink" x="0px" y="0px"
	 viewBox="0 0 288 216" enable-background="new 0 0 288 216" xml:space="preserve">
<g>
	<path d="M55.8,42.6C55.8,42.6,55.8,42.6,55.8,42.6c0.1,0.1,0.2,0.2,0.3,0.3c0.7,1.3,2,1.8,3.3,2.2c0.6,0.2,1.3,0.2,2,0.3
		c0.2,0,0.3,0.1,0.4,0.2c-0.1,0.1-0.3,0.2-0.4,0.3C61.2,46,60.9,46,60.7,46c-1.1,0-2.1-0.4-3.1-1c-0.3-0.2-0.6-0.3-0.9-0.1
		c-1.4,0.9-2.7,1.7-4.1,2.6c-0.9,0.6-1.7,1.2-2.5,1.9c-0.9,0.8-1.7,1.6-2.5,2.5c-1.1,1.2-2.2,2.4-3.3,3.6c-1,1.2-2,2.5-3,3.8
		c-0.5,0.7-1.2,1.4-1.3,2.4c-0.1,0.8,0,1.6,0.6,2.2c0.4,0.4,0.8,0.8,1.2,1.3c0.4,0.4,0.8,0.8,1.3,1.3c0.3,0.3,0.8,0.4,1.3,0.5
		c1,0.2,2-0.5,3-0.2c0,0,0.1,0,0.1,0c2-0.5,4-1.1,5.8-2.2c0.7-0.4,1.5-0.8,2.2-1.4c0.9-0.8,1.7-1.7,2.6-2.5c0,0,0.1-0.1,0.2-0.1
		c-0.5,1.2-1.4,2-2.2,2.9c1.1-0.4,1.8-1.2,2.6-1.9c0.2-0.2,0.3-0.5,0.7-0.2c-0.7,0.7-1.3,1.3-1.9,1.9c-0.5,0.4-1,0.7-1.6,1
		c-0.4,0.2-0.9,0.5-1.3,0.6c-0.6,0-1.1,0.3-1.7,0.6c-0.3,0.1-0.4,0.3,0,0.6c1.5,1,2.9,2,4.3,3.1c1.4,1.1,3.1,1.8,4.7,2.7
		c1,0.5,2.1,0.9,3.3,1.1c1.7,0.2,3.3,0.5,4.9-0.3c0.4-0.2,0.8-0.4,1.2-0.3c1.1,0.1,2-0.3,3-0.6c1-0.3,1.6-1.1,2.4-1.6
		c0.8-0.6,1.7-1.2,2.3-2.1c0-0.1,0.2-0.1,0.4-0.2c-0.1,0.5-0.1,0.8-0.2,1.2c0.1,0,0.1,0,0.2,0.1c1-1,1.6-2.3,2.5-3.4
		c0.1,0.1,0.1,0.2,0.1,0.3c0,0.1,0.1,0.1,0.1,0.2c0.6-0.6,1-1.5,1-2.4c0-0.5-0.1-0.9-0.1-1.4c0-0.1,0.1-0.3,0.1-0.4
		c0.1,0.1,0.2,0.1,0.3,0.2c0.1,0.1,0.1,0.3,0.2,0.4c0.1,0.1,0.3,0.2,0.3,0.2c0.1-0.1,0.2-0.2,0.2-0.3c0-0.4-0.1-0.7-0.2-1.1
		c-0.2-0.9-0.4-1,0.6-1.8c0.6-0.5,1.4-0.8,2-1.2c0.9-0.6,1.8-1.2,2.7-1.9c0.1-0.1,0.2-0.3,0.4-0.5c-0.2-0.1-0.3-0.1-0.4-0.1
		c-0.9-0.1-1.6-0.6-2-1.3c-1.5-2.3-1.5-4.8-1-7.3c0-0.2,0.2-0.3,0.3-0.5c0.1,0,0.1,0,0.2,0.1c0,0.4-0.1,0.8-0.1,1.2
		c0,0.9-0.2,1.8-0.1,2.7c0.2,1.2,0.6,2.3,1.1,3.4c0.5,0.9,1.8,1.8,2.8,1.3c0.9-0.4,1.7-0.8,2.6-1.3c0.7-0.4,1.3-0.8,1.9-1.3
		c0.6-0.4,1.1-0.9,1.6-1.4c0.1-0.1,0.1-0.3,0.1-0.5c-0.1-0.8-0.6-1.3-1.3-1.7c-0.4-0.2-0.9-0.3-1.4-0.3c-1.4,0-2.8-0.4-4.1-0.7
		c-1.5-0.3-2.7-1-3.4-2.3c-0.2-0.5-0.4-1-0.5-1.5c-0.1-0.9,0.3-1.3,1-1.2c0.2,0,0.3,0.1,0.5,0.2c0.8,0.3,1.6,0.4,2.3-0.1
		c0.7-0.5,1.3-1.1,1.9-1.6c0.6-0.4,1.2-0.8,1.8-1.1c0.5-0.2,1-0.3,1.5-0.4c0-0.1-0.1-0.2-0.1-0.3c-0.7-0.8-1.4-1.7-2.2-2.4
		c-0.6-0.5-1.4-0.9-2.1-1.3c-0.9-0.4-1.8-0.7-2.7-1.1c-0.8-0.3-1.7-0.6-2.4-1.1c-0.8-0.5-1.4-1.1-2.1-1.7c-0.3-0.2-0.6-0.5-0.7-0.8
		c-0.4-0.9-0.8-1.7-1.1-2.6c-0.4-1.3-0.5-2.7-0.3-4c0.2-1.2,0.3-2.5,1.1-3.6c0.6-0.9,1.1-1.8,1.7-2.7c0.6-0.9,1.4-1.7,2.4-2.3
		c0.8-0.4,1.5-1,2.2-1.4c0.1-0.1,0.3-0.2,0.3-0.3c0-0.1-0.1-0.4-0.2-0.4c-0.3-0.1-0.7-0.2-1-0.1c-1.8,0.1-3.3,1-4.8,1.9
		c-0.8,0.5-1.4,1.2-2.1,1.8c-1.2,1.1-2.1,2.3-2.8,3.8c-0.1,0.3-0.3,0.6-0.3,1c-0.1,0.8-0.5,1.5-0.3,2.3c0.1,0.7,0.1,1.4,0.2,2.1
		c-0.1,0-0.1,0-0.2,0.1c-0.1-0.2-0.2-0.4-0.3-0.7c-0.5-2.1-0.5-4.3-0.1-6.5c0.2-1,0.4-2,0.9-2.9c0.1-0.2,0.1-0.5,0.1-0.8
		C78,16,78,16,77.9,16c-0.7,1.1-1.8,1.7-2.3,3c-0.5,1.2-1.1,2.2-1.3,3.5c-0.1,0.5-0.1,1-0.3,1.4c-0.3,0.6-0.2,1.1,0,1.6
		c0.5,1.2,0.9,2.3,1.4,3.5c-0.1,0-0.3-0.1-0.3-0.2c-0.3-0.3-0.6-0.7-0.8-1.1c-0.4-1-0.7-2-1.1-3c-0.3-0.7-0.5-1.5-0.7-2.3
		c-0.2,0.1-0.5,0.2-0.7,0.4c-0.6,0.7-1,1.5-0.9,2.4c0.1,1.2,0.3,2.3,0.7,3.5c0.3,0.9,0.7,1.7,1.1,2.5c0.1,0.1,0.1,0.3,0.2,0.4
		c-0.2,0-0.4,0-0.5-0.1c-0.3-0.1-0.7-0.4-1-0.5c-0.4-0.2-0.6,0-0.6,0.4c0,0.4,0.1,0.7,0.2,1.1c0.4,2.2,0.8,4.4,1.3,6.6
		c0.2,1,0.4,2,0.2,3c-0.1,0.3-0.2,0.6-0.3,1c-0.1,0-0.1,0-0.2,0c0-0.2,0-0.5-0.1-0.7c-0.1-0.8-0.1-1.6-0.2-2.3
		c-0.1-0.8-0.3-1.6-0.5-2.4c-0.2-0.9-0.5-1.8-0.7-2.7c-0.3-1.9-0.5-3.8-0.7-5.7c-0.1-1.2-0.3-2.3-0.3-3.5c0-2.8,0.3-5.5,0.8-8.2
		c0.2-1.2,0.2-2.5,0.2-3.7c0-0.2-0.1-0.3-0.2-0.5c-0.1,0.1-0.3,0.1-0.4,0.2c-0.9,0.7-1.4,1.6-1.7,2.6c-0.2,0.6-0.5,1.3-0.7,1.9
		c-0.3,0.9-0.5,1.7-0.8,2.6c0,0.1-0.1,0.2-0.1,0.2c-0.1,0-0.1,0-0.2,0c-0.1-0.4-0.2-0.9-0.3-1.3c-0.2-1.2-0.4-2.4-0.5-3.6
		c0-0.3-0.3-0.4-0.5-0.3c-0.3,0.2-0.5,0.5-0.7,0.8c-0.6,1.2-0.7,2.5-0.8,3.8c0,0.1-0.1,0.2-0.1,0.4c-0.1-0.2-0.3-0.3-0.3-0.5
		c-0.1-0.4-0.2-0.7-0.4-1.1c-0.2-0.5-0.5-1-0.8-1.4c-0.1-0.2-0.5-0.3-0.6,0c-0.2,0.5-0.4,1.1-0.4,1.7c-0.1,1,0,2.1,0,3.3
		c-0.2-0.3-0.3-0.4-0.4-0.6c-0.2-0.4-0.4-0.8-0.6-1.2c-0.3-0.4-0.8-0.4-1,0c-0.2,0.4-0.4,0.8-0.4,1.2c0,1.1,0,2.3,0,3.4
		c0,0.2,0,0.4-0.1,0.6c-0.2-0.1-0.3-0.2-0.5-0.3c-0.1-0.1-0.2-0.2-0.4-0.3c-0.2-0.1-0.5-0.3-0.5-0.3C57.2,25.5,57,25.8,57,26
		c0,1.1-0.2,2.1,0.3,3.2c0,0.1,0,0.2,0,0.3c-0.2-0.1-0.3-0.1-0.4-0.2c-0.5-0.4-1-0.2-1,0.4c0,0.9,0.1,1.8,0.6,2.6
		c0.1,0.2,0.2,0.4,0.2,0.5c-0.5,0.1-0.9,0.1-1.2,0.2c-0.4,0.2-0.4,0.7-0.3,1.1c0,0.2,0.1,0.4,0.2,0.6c0.1,0.4,0.2,0.7,0.4,1.2
		c-0.4-0.1-0.7-0.2-0.8-0.3c-0.1-0.4-0.1-0.7-0.2-1c-0.4-0.8-0.1-1.6,0.8-1.9c0.4-0.2,0.5-0.4,0.2-0.7c-0.2-0.2-0.5-0.4-0.8-0.6
		c0.1-0.1,0.2-0.3,0.3-0.5c0.1-0.2,0.2-0.5,0.2-0.7c0-0.7,0.2-1.2,0.9-1.5c0.4-0.1,0.4-0.3,0.3-0.6c-0.3-0.9-0.1-1.9,0.2-2.8
		c0.1-0.4,0.4-0.7,0.9-0.5c0.1,0.1,0.3,0.1,0.4,0.1c0.1-1.1,0.1-2.2,0.4-3.1c0.4-1.2,0.8-1.5,1.8-1.2c0.1,0,0.4-0.2,0.4-0.2
		c-0.2-0.9,0.3-1.6,0.5-2.3c0.2-0.5,0.9-0.8,1.4-0.5c0.2,0.1,0.3,0.4,0.5,0.5c0.2,0.2,0.4,0.3,0.5-0.1c0.3-0.7,0.6-1.4,1-2
		c0.2-0.3,0.7-0.5,1-0.6c0.3-0.1,0.6,0,0.6,0.4c0.1,0.4,0.2,0.8,0.3,1.2c0.1,0.4,0.4,0.4,0.5,0.2c0.3-0.4,0.5-0.8,0.8-1.2
		c0.3-0.6,0.6-1.2,1-1.7c0.2-0.3,0.5-0.6,0.8-0.9c0.3-0.3,0.7-0.5,1.1-0.7c0.1-0.1,0.3-0.1,0.4-0.1c0,0.5,0,0.9,0,1.3
		c0.1,1.5-0.1,3.1-0.3,4.6c-0.3,1.8-0.3,3.5-0.4,5.3c0,0.1,0,0.2,0.1,0.4c0.4-0.6,0.7-1.1,1-1.5c0.4-0.5,0.9-0.8,1.6-0.8
		c0.1,0.4,0.2,0.8,0.3,1.2c0.1,0,0.1,0,0.2,0c0.1-0.4,0.2-0.8,0.3-1.2c0-0.2,0.1-0.3,0.1-0.5c0.2-0.5,0.4-1.1,0.6-1.6
		c0.4-0.9,0.8-1.8,1.6-2.5c0.3-0.3,0.6-0.7,0.9-1c0.4-0.3,0.7-0.9,1.4-0.9c0.2,0,0.4,0,0.5,0c0,0.2,0,0.4-0.1,0.6
		c-0.2,0.6-0.5,1.1-0.6,1.7c-0.2,0.8-0.3,1.7-0.5,2.5c0,0.2,0,0.4,0,0.6c0.1,0,0.1,0,0.2,0c0.1-0.1,0.1-0.3,0.2-0.4
		c0.1-0.2,0.1-0.3,0.2-0.5c1.1-1.7,2.4-3.3,4-4.4c1.6-1.1,3.3-1.9,5.2-2.3c0.7-0.1,1.2,0.1,1.8,0.4c0.4,0.2,0.5,0.6,0.2,1
		c-0.1,0.2-0.3,0.4-0.5,0.5c-0.8,0.3-1.5,0.9-2.2,1.5c-0.2,0.2-0.5,0.2-0.7,0.4c-0.7,0.8-1.5,1.7-2.2,2.6c-0.3,0.3-0.4,0.8-0.6,1.2
		c-0.4,0.8-0.8,1.6-1,2.5c-0.3,1.1-0.4,2.3-0.3,3.5c0.2,2.1,0.6,4.1,2.5,5.4c0.5,0.3,0.9,0.7,1.4,0.9c0.7,0.3,1.4,0.6,2,0.8
		c1.1,0.5,2.3,1,3.4,1.4c2.1,0.9,3.6,2.3,4.4,4.5c0,0.1,0.1,0.2,0.2,0.3c0.9,0.7,1.8,1.4,2.7,2.3c0.6,0.6,1.1,1.3,1.5,2
		c0.5,0.9,0.7,1.9,0.9,2.9c0.3,1.4,0,2.6-0.5,3.8c-0.3,0.8-1,1.5-1.6,2.2c-0.3,0.3-0.6,0.3-1,0.1c-0.4-0.2-0.6-0.6-0.6-1
		c0-0.2-0.1-0.4-0.1-0.6c-0.4,0.3-0.8,0.6-1.2,0.9c-0.6,0.5-1.2,1-1.9,1.4c-0.9,0.5-1.8,0.8-2.7,1.3c-0.9,0.5-1.6,1.2-2.5,1.9
		c-0.5,0.4-0.9,0.8-1.4,1.1c-0.9,0.5-1.8,1-2.7,1.4c-0.5,0.2-0.7,0.8-0.5,1.3c0.1,0.5,0.2,1,0.2,1.5c0,0.3-0.1,0.6-0.5,0.4
		c-0.3-0.1-0.4,0.1-0.4,0.3c0,0.2,0,0.4,0,0.6c-0.1,0.4,0.1,0.5,0.5,0.5c0.3,0,0.7-0.1,1,0c1.3,0.2,2.7,0.4,3.9,0.8
		c0.8,0.2,1.6,0.8,2.4,1.2c0.1,0,0.1,0.2,0.2,0.3c-0.1,0-0.2,0-0.4,0c-0.9-0.4-1.8-0.9-2.8-1.1c-1.5-0.4-3.1-0.6-4.7-0.8
		c-0.3,0-0.4,0.1-0.5,0.3c-0.2,0.8-0.5,1.4-1.3,1.7c-0.1,0-0.2,0.2-0.3,0.4c-0.5,0.7-1,1.4-1.6,2.1c-0.5,0.6-1.1,0.6-1.6,0.1
		c-0.2,0.1-0.4,0.3-0.6,0.4c-0.5,0.4-1,0.9-1.4,1.3c-0.1,0.1,0,0.4,0.1,0.5c0.5,0.3,1.1,0.5,1.7,0.4c0.2-0.1,0.5-0.2,0.6-0.2
		c1.1,1.8,2.4,1.2,3.8,0.9c0,0.2,0,0.3,0,0.4c-0.1,0.7,0,0.9,0.8,0.8c0.6-0.1,1.2-0.3,1.7-0.5c0.5-0.2,0.7-0.1,1.1,0.2
		c0.2,0.3,0.5,0.5,0.8,0.6c0.5,0.2,1.2-0.4,1.2-1c0-0.7,0.2-0.8,0.8-0.4c0.4,0.2,0.7,0.5,1,0.7c0.4,0.3,0.8,0.6,1.3,0
		c0,0.3,0,0.6-0.1,0.7c-0.2,0.2-0.6,0.3-0.9,0c-0.4-0.3-0.9-0.6-1.3-1c-0.3-0.2-0.5-0.1-0.6,0.2c-0.1,0.1-0.1,0.3-0.1,0.4
		c-0.4,0.8-0.9,1.1-1.6,0.8c-0.2-0.1-0.4-0.3-0.6-0.5c-0.3-0.4-0.6-0.3-1-0.1c-0.4,0.2-0.8,0.4-1.2,0.5c-0.7,0.2-1.5,0-1.8-0.4
		c-0.3-0.4-0.6-0.4-1-0.3c-0.3,0.1-0.7,0-1.1-0.1c-0.4-0.2-0.8-0.5-1.2-0.7c-0.3-0.1-0.5-0.2-0.8-0.3c-0.7,0-1.4-0.1-1.9-0.7
		c-0.3-0.3-0.6-0.3-0.9-0.1c-1.1,0.7-2.3,0.8-3.5,0.6c-0.2,0-0.5,0.1-0.7,0.2c-0.2,0.1-0.3,0.2-0.5,0.3c-0.8,0.6-1.8,0.5-2.7,0.5
		c-0.7,0-1.4,0-2.1-0.2c-1.1-0.2-2.3-0.5-3.5-0.3c-2.2,0.3-4.3,0.6-6.5,0.9c-0.3,0-0.6-0.1-0.8-0.1c-0.4,0-0.7-0.1-1.1,0
		c-0.8,0.2-1.5,0.4-2.3,0.5c-0.5,0.1-1.2,0.1-1.7,0c-0.7-0.3-1.4-0.8-2.1-1.2c-0.1-0.1-0.4-0.1-0.5,0c-0.6,0.4-1.1,1-1.7,1.4
		c-0.9,0.6-1.8,1.2-2.8,1.6c-1.4,0.6-2.9,0.7-4.4,0.3c-1.4-0.4-2.2-1-2.4-2.6c-0.1-0.4-0.2-0.8-0.3-1.2c-0.1-0.4-0.2-0.8-0.2-1.2
		c0-0.4-0.1-0.6-0.5-0.8c-0.6-0.4-1.2-0.8-1.5-1.5c-0.1-0.2-0.3-0.5-0.5-0.6c-0.6-0.5-0.5-1.2-0.4-1.9c0.1-0.5,0.4-0.5,0.7-0.7
		c0.1,0,0.1-0.1,0.2-0.2c0.4-0.6,0.9-1.2,1.5-1.7c1-0.7,2-1.6,3-2.3c0.6-0.4,0.7-0.5,0.4-1.2c-0.1-0.1-0.1-0.2-0.2-0.3
		c-0.2-0.4-0.3-0.7-0.5-1.1c0.1,0,0.1-0.1,0.2-0.1c0.1,0.8,0.7,1.3,1.4,1.7c0.2,0.1,0.7,0.2,0.9,0c0.4-0.4,0.9-0.9,1-1.5
		c0.2-1,0.7-1.7,1.3-2.5c0.4-0.6,0.8-1.2,1.3-1.8c0.6-0.8,1.3-1.5,2-2.3c0.1-0.1,0.1-0.2,0.2-0.4c-0.2,0-0.4,0-0.5,0.1
		c-0.8,0.1-1.7,0.3-2.5,0.3c-1.8,0-3.7,0.1-5.4-0.4c-0.5-0.2-1,0-1.6,0c0-0.4,0.4-0.7,1-0.6c0.8,0.1,1.5,0.3,2.2,0.4
		c2.2,0.3,4.4,0.1,6.5-0.4c0.6-0.1,1.2-0.3,1.6-0.6c0.5-0.4,1.2-0.8,1.4-1.5c0-0.1,0.1-0.1,0.2-0.2c0.6-0.5,1.2-1,1.8-1.5
		c0.4-0.3,0.8-0.7,1.2-1c0.7-0.5,1.5-0.9,2.3-1.4c0.8-0.4,1.5-0.8,2.3-1.2c0.5-0.2,0.6-0.4,0.2-0.9c-0.3-0.4-0.5-0.8-0.7-1.2
		C55.7,42.7,55.7,42.6,55.8,42.6z M43.6,69.6c0.4,0.8,1.1,1.5,1.9,2c0.4,0.2,0.8,0.5,1.2,0.6c0.4,0.2,0.8,0.4,1.3,0.5
		c0.5,0.1,0.9,0.3,0.7,0.9c1.1,0.6,2.2,0.6,3.4,0.4c1.9-0.3,3.8-0.5,5.7-0.7c1.4-0.2,2.8-0.3,4.2-0.5c0.1,0,0.2-0.1,0.4-0.1
		c-0.1-0.2-0.2-0.3-0.3-0.4c-1.2-0.6-2.4-1.2-3.6-1.8c-0.6-0.3-1.1-0.8-1.7-1.1c-1.3-0.9-2.6-1.8-3.8-2.8c-0.7-0.6-1.1-0.4-1.8-0.2
		c-1.1,0.4-2.2,0.6-3.3,0.9c-0.1,0-0.2,0-0.3,0c-0.9-0.3-1.7,0.3-2.6,0.3c-0.5,0-1-0.2-1.5-0.3c-0.2,0-0.3-0.1-0.5-0.1
		c-0.1,0-0.1,0.1-0.2,0.1C43,68.1,43.2,68.9,43.6,69.6z M93.7,40.8c-0.6,0.4-1.2,0.8-1.7,1.3c-0.7,0.5-1.3,1.1-2,1.6
		c-0.8,0.6-1.6,0.3-2.4,0c-0.2-0.1-0.5-0.2-0.8-0.2c-0.1,0-0.3,0.2-0.3,0.4c0,0.3,0.2,0.6,0.3,0.9c0.1,0.3,0.3,0.6,0.4,0.9
		c0.3,0.9,1.1,1.4,1.9,1.7c1.6,0.5,3.3,0.8,5,1.1c0.5,0.1,1,0.1,1.6,0.2c1.2,0.1,1.5,1,1.8,1.9c0.2,0.7,0.3,1.5,0.5,2.2
		c0,0.2,0.2,0.5,0.3,0.5c0.2,0,0.4-0.1,0.5-0.3c0.8-0.9,1.2-2,1.4-3.1c0.2-1.2,0-2.4-0.2-3.5c-0.2-1.1-0.8-2-1.5-2.9
		c-0.7-0.8-1.4-1.6-2.1-2.3c0,0-0.1,0.1-0.1,0.1C95.5,40.3,94.6,40.3,93.7,40.8z M44.4,72.8c-1.8,0.8-3.6,1.5-5.5,1.6
		c-0.8,0-1.6-0.2-2.4-0.4c-0.1,0-0.3-0.1-0.4,0c-0.1,0-0.1,0.2,0,0.4c0.1,0.5,0.4,0.9,0.9,1.2c1.5,0.9,3.1,1,4.7,0.6
		c1.3-0.3,2.3-1,3.4-1.7c0.4-0.3,0.7-0.6,1.1-0.9c0.4-0.3,0.4-0.7-0.1-0.9c-0.8-0.4-1.5-1-2.1-1.7c-0.3-0.5-0.6-1-0.8-1.5
		c-0.2-0.4-0.3-0.5-0.8-0.4c-1.4,0.4-2.7,1.1-4.1,1.7c-0.7,0.3-1.6,0.4-2.4,0.6c-0.4,0.1-0.5,0.2-0.5,0.6c0,0.9,0.3,1.1,1.3,1.5
		c1.4,0.5,2.9,0.5,4.3,0c0.9-0.3,1.8-0.6,2.8-0.8c0.3-0.1,0.7-0.3,1-0.4c0,0.1,0.1,0.1,0.1,0.2C44.7,72.5,44.6,72.7,44.4,72.8z
		 M38.4,63.5c-0.7,0.6-1.4,1.3-2.1,1.8c-0.7,0.5-1.5,0.9-2.3,1.3c-0.2,0.1-0.5,0.2-0.8,0.3c-0.8,0.1-1.1,0.9-0.7,1.5
		c0.2,0.3,0.6,0.6,0.9,0.7c1.2,0.4,2.2,0.1,3.3-0.6c0.9-0.6,1.8-1,2.6-1.8c0.3-0.3,0.7-0.7,1.1-1c0.1-0.1,0.2-0.1,0.3-0.1
		c0,0,0.1,0.1,0.1,0.1c-0.2,0.2-0.3,0.5-0.5,0.7c-0.8,0.9-1.6,1.7-2.6,2.3c-0.6,0.3-1.2,0.7-1.8,0.9c-0.5,0.2-1.1,0.1-1.6,0.2
		c-0.2,0-0.3,0-0.5,0.1c0.1,0.1,0.2,0.3,0.3,0.4c1.1,0.9,2.3,0.6,3.5,0.2c0.6-0.2,1.2-0.4,1.7-0.8c0.8-0.5,1.5-1.2,2.3-1.8
		c0.3-0.2,0.5-0.6,0.8-0.9c0.2-0.3,0.2-0.4-0.2-0.7c-0.3-0.2-0.5-0.5-0.7-0.8c-0.1-0.2-0.3-0.3-0.5-0.5c-0.5-0.5-1-1-1.1-1.8
		c0-0.2-0.1-0.4-0.2-0.7C39.1,62.9,38.8,63.1,38.4,63.5z M38.9,62.1c-0.7,0.1-4.8,3.3-4.8,3.7C34.8,65.7,38.9,62.6,38.9,62.1z
		 M70.6,30.1c0.1,0.3,0.6,0.5,1,0.7c0.1,0,0.1-0.1,0.2-0.1c-0.4-0.9-0.7-1.8-1.1-2.7c-0.1,0-0.1,0-0.2,0
		C70.5,28.8,70.4,29.5,70.6,30.1z M42.5,68.3c0.1-0.1,0-0.4,0-0.5c-0.1,0.1-0.3,0.1-0.4,0.2c-0.2,0.2-0.3,0.4-0.5,0.6
		c0,0,0.1,0.1,0.1,0.1C42,68.5,42.3,68.5,42.5,68.3z"/>
	<path d="M78.1,41.4c0-0.4,0-0.8-0.1-1c-0.5-1-0.4-1.9-0.1-2.9c0.4-1.3,1.4-2.2,2.4-3c1-0.7,2-1.1,3.2-1c1.2,0.1,2.1,1.1,2.1,2.2
		c0,1.9-1,3.4-2.3,4.7c-0.2,0.2-0.4,0.4-0.1,0.7c0,0,0,0.1,0.1,0.3C81.6,40.7,79.9,40.4,78.1,41.4z M82.8,40.3
		c0.4-0.3,0.7-0.7,1-1.1c0.4-0.7,0.9-1.4,1.2-2.2c0.3-0.6,0.6-1.3,0.2-2c-0.5-0.8-1.2-1.2-2.2-1.1c-1.2,0.1-2.1,0.8-2.9,1.7
		c-0.6,0.7-1.2,1.4-1.7,2.2c-0.4,0.7-0.5,1.5-0.2,2.3c0.2,0.5,0.9,0.7,1.3,0.3c0.1-0.1,0.1-0.3,0-0.4c-0.5-0.6-0.3-1.3-0.2-1.9
		c0.4-1.6,1.6-2.7,3.1-3.3c0.5-0.2,1.1,0,1.5,0.3c0.2,0.2,0.4,0.6,0.4,0.8c-0.1,0.6-0.2,1.2-0.5,1.7c-0.4,0.8-1,1.4-1.6,2.1
		c-0.1,0.2-0.4,0.3-0.6,0.4c-0.1,0-0.1,0.2-0.1,0.3C82.1,40.7,82.5,40.5,82.8,40.3z M81.2,36.9c0,0.5,0.2,0.7,0.6,0.4
		c0.3-0.2,0.7-0.5,0.9-0.9c0.1-0.2,0-0.5-0.1-0.7c-0.2,0.1-0.5,0.1-0.7,0.2c-0.2,0.1-0.3,0.3-0.6,0.6C81.3,36.6,81.2,36.7,81.2,36.9
		z"/>
	<path d="M101.5,69.7c-1.8,0.8-3.6,0.9-5.6,0.8c0.5,0.5,1.1,0.5,1.7,0.6c0.1,0,0.2,0,0.3,0c0.1,0,0.3,0.1,0.4,0.2
		c-0.1,0.1-0.2,0.3-0.3,0.4c-0.6,0.2-1.3,0.3-1.9,0.4c-0.7,0.1-1.4,0.1-2.1,0.1c0,0-0.1,0-0.2,0.1c0.2,0.1,0.4,0.2,0.5,0.3
		c0.1,0.1,0.2,0.2,0.3,0.2c-0.1,0.1-0.2,0.2-0.3,0.3c-0.4,0.1-0.9,0.1-1.4,0.1c-0.5,0-1-0.1-1.5-0.1c-0.2,0-0.3,0.1-0.5,0.2
		c0.6,0.1,1.1,0.2,1.6,0.4c0.9,0.3,1.7,0.1,2.6-0.3c0,0,0.1,0,0.1-0.1c0.5-0.9,1.4-0.8,2.2-1c0.9-0.2,1.7-0.4,2.1-1.3
		c0.1-0.2,0.4-0.3,0.6-0.3c0.5-0.2,1-0.2,1.5-0.4c0.3-0.1,0.5-0.4,0.7-0.7c0.1-0.1-0.1-0.5-0.3-0.6c-0.6-0.3-1.2-0.4-1.7-0.6
		c-1-0.3-2-0.7-3-1c-0.9-0.3-1.8-0.7-2.7-1.1c-0.6-0.3-1.2-0.7-1.9-1c-0.7-0.4-1.5-0.7-2.2-1c0,0-0.1,0-0.1-0.1
		c-0.9-0.5-1.8-1-2.7-1.6c-0.9-0.6-1.7-1.3-2.5-1.9c-0.1-0.1-0.2-0.1-0.3-0.1c0,0-0.1,0.1-0.1,0.1c0.3,0.4,0.6,0.8,1,1.2
		c1.3,1.1,2.7,2,4.2,2.8c1.3,0.7,2.6,1.3,3.9,1.9c1.2,0.6,2.5,1.2,3.8,1.7c1.3,0.5,2.6,0.8,3.9,1.1c0,0,0.1,0,0.1,0.1
		C101.5,69.5,101.5,69.6,101.5,69.7z"/>
	<path d="M68.8,25.6c-0.1,0.3-0.3,0.7-0.3,1c-0.1,1.9-0.2,3.8-0.3,5.6c0,0.9,0,1.8-0.1,2.7c0,0,0,0.1,0,0.1c0.3,1.6-0.2,3.2-0.3,4.8
		c-0.1,1.1-0.3,2.2-0.8,3.3c-0.3,0.6-0.8,1.1-1.3,1.6c-0.1,0.1-0.2,0-0.4,0c-0.2,0-0.4,0.1-0.6,0.2c-0.1,0-0.1,0.3,0,0.4
		c0.4,0.3,1,0.2,1.3-0.3c0.1-0.1,0.2-0.3,0.3-0.3c0.8-0.2,1-1,1.2-1.6c0.4-1.2,0.5-2.5,0.7-3.8c0.4-1.9,0.1-3.7,0.1-5.5
		c0-1.9,0.1-3.8,0.1-5.7c0-0.6,0.2-1.3,0.3-1.9c0-0.2,0-0.4,0-0.5C68.9,25.7,68.8,25.7,68.8,25.6z"/>
	<path d="M79.9,56.8c0.2,0,0.4,0.1,0.5,0.1c0.2-0.6-0.5-2.2-1.2-2.6c0.3,0.6,0.5,1.2,0.8,1.8c-0.3,0-0.5-0.1-0.8-0.1
		c0.4,1.1,0.5,2.2,0.2,3.5c-0.2-0.3-0.3-0.5-0.6-0.9c-0.3,1-0.5,2.1-1.3,2.7c-0.7,0.6-1.5,1.2-2.2,1.9c0.9,0,1.6-0.4,2.2-1
		c0.5-0.6,0.9-1.3,1.4-2c0.7,0.3,0.9,0.2,1-0.6c0-0.7,0-1.5,0-2.2C79.9,57.2,79.9,57,79.9,56.8z"/>
	<path d="M54.5,35.7c-0.3,0.1-0.7,0.4-0.6,0.9c0.1,0.4,0.3,0.8,0.5,1.1c0.2,0.3,0.4,0.5,0.6,0.8c0.1,0.2,0,0.4-0.1,0.6
		c-0.1,0.3-0.4,0.6-0.5,0.9c-0.3,0.7,0,1.4,0.7,1.7c0.1,0.1,0.3,0.2,0.4,0.2c0.1,0,0.2,0,0.4,0c0-0.1-0.1-0.3-0.1-0.3
		c-0.2-0.3-0.6-0.5-0.8-0.8c-0.1-0.3-0.1-0.9,0.1-1.2c0.6-0.9,0.6-1,0-1.9c-0.2-0.3-0.4-0.6-0.5-1C54.4,36.4,54.5,36.1,54.5,35.7z"
		/>
	<path d="M37.4,59.2c0.2,0,0.5-0.1,0.7-0.1c0.1,0,0.3-0.1,0.3-0.2c0-0.1-0.1-0.3-0.2-0.3c-1.2-0.5-2-1.2-2.3-2.5c0,0,0-0.1-0.1-0.1
		c-0.2,0.4-0.1,1,0.4,1.7C36.6,58.2,37,58.7,37.4,59.2z"/>
	<path d="M35.5,53.2c0.2,0.9,0.3,1.7,0.5,2.6c0.2,0.1,0.5,0.1,0.8,0.2c0.2,0,0.5-0.1,0.5-0.1c0-0.2,0-0.5-0.1-0.5
		c-0.8-0.5-1.2-1.3-1.5-2.1C35.6,53.2,35.6,53.2,35.5,53.2z"/>
</g>
<g>
	<g id="XMLID_8_">
		<g>
			<path d="M182.2,61.7c1.6,0.4,3.5,2.6,3.7,4.3c0.2,1.5-0.4,2.7-2.1,3.4c0.4-3.1,0-5.8-3-7.7C181.3,61.7,181.8,61.6,182.2,61.7z"/>
			<path d="M149.4,80.5c0.2-0.3,0.6-0.5,0.6-0.8c0-0.2-0.3-0.5-0.7-0.9c-0.3,0.5-0.7,0.8-0.6,1C148.8,80.1,149.1,80.3,149.4,80.5z
				 M145.9,80.6c0-1.7,1.3-2.9,2.9-2.9c1.7,0,3,1.3,3,3c0,1.6-1.4,2.9-3,2.9C147.2,83.6,145.8,82.3,145.9,80.6z"/>
			<path d="M144.9,64.9c1.1,0.5,1.7,1.4,1.7,2.6c0,0.6-0.4,0.8-0.9,0.8c-0.5,0-1.1,0.2-1.3-0.5c-0.3-1.3-1.2-1.9-2.2-2.5
				c-0.8-0.4-1.7-0.9-2.5-1.3c0-0.1,0.1-0.2,0.1-0.3C141.6,63.9,143.3,64.1,144.9,64.9z"/>
			<path fill="#FFFFFF" d="M74.2,91.3c0.1,0.1,0.1,0.1,0,0.1C74.2,91.4,74.2,91.3,74.2,91.3z"/>
			<path fill="#FFFFFF" d="M74.2,91.3c0,0.1,0,0.1,0,0.1c0,0,0,0,0,0c-0.6,0-1.2-0.1-1.8-0.2c0-0.1,0-0.1,0-0.2
				C72.3,90.4,73.9,91,74.2,91.3z"/>
			<path d="M84.9,195.8c0,0,0.1,0,0.1,0c-0.4-2.4-0.7-4.9-1.1-7.3c0-0.1-0.2-0.3-0.3-0.4c-0.8-0.3-1.6-0.6-2.6-1
				C82.4,190.1,83.7,192.9,84.9,195.8z M71,98.2c0.4,0,0.8,0,1.2,0c0-0.3,0-0.5,0-0.8c0-0.3,0-0.5-0.1-0.8c-2.3-0.3-2.6-0.2-2.2,1.8
				C70.3,98.3,70.7,98.2,71,98.2z M71.6,94.8c0.3-0.2,0.5-0.4,0.8-0.7c-0.1-0.1-0.1-0.2-0.2-0.3c-0.6-0.1-1.2-0.2-1.8-0.1
				c-0.2,0-0.5,0.3-0.6,0.5c-0.1,0.3,0.1,0.7,0.2,1.1c0.3-0.1,0.7-0.2,1-0.3C71.2,95,71.4,94.9,71.6,94.8z M71.9,100.7
				c0-0.4,0.2-1.1-0.6-1c-0.7,0.1-1.6-0.3-1.6,0.9c0,4.8,0,9.5,0,14.3c0,0,0,0,0.1,0.1c0.4-0.3,0.7-0.5,1-0.8
				c0.4-0.4,0.9-0.9,0.9-1.3C71.9,108.9,71.9,104.8,71.9,100.7z M70.2,124.1c-3.7-0.4-4-0.7-3.6-3.1c-0.4,0-0.8,0-1.2,0
				c-1.1,0.1-2.2,0.2-3.3,0.2c-1.3,0.1-2.3,1.3-2,2.6c0.1,0.4,0.6,1,1,1.1c2.8,0.8,5.6,0.8,8.3-0.3
				C69.6,124.5,69.8,124.3,70.2,124.1z M66.8,119.4c0.5-0.6,1-1.3,1.7-2.2c-1.6-0.3-3.1-0.7-4.5-0.8c-1-0.1-2.1,0.2-3.1,0.5
				c-0.7,0.2-1.1,0.9-1,1.7c0.1,0.8,0.9,0.8,1.5,0.8C63.3,119.4,65.1,119.4,66.8,119.4z M69.4,127.6c-0.2-0.3-0.7-0.6-1.1-0.6
				c-1.9,0.1-3.8,0.4-5.7,0.6c0,1.1,0.3,1.8,1.1,2c1.8,0.4,3.7,0.2,5.3-0.9C69.3,128.6,69.6,127.9,69.4,127.6z M68.7,148.7
				c0,1.7-0.1,3.4-0.1,5.2c0,1.4,0,2.8,0,4.4c0.6-0.4,1.5,0,1.6-1c0.1-2.9,0.2-5.8,0.3-8.6c0-0.8-0.5-0.8-1.1-0.9
				C68.7,147.7,68.7,148.2,68.7,148.7z M167.7,90.7c-0.5-1.7-1.1-3.5-1.7-5.2c-1.6,0.7-3,1.3-4.5,1.9c-0.5,0.2-0.5,0.5-0.3,0.8
				c0.5,1.2,1,2.5,1.6,3.7c0.1,0.2,0.6,0.4,0.8,0.4c1.2-0.3,2.5-0.7,3.7-1.1C167.5,91.1,167.7,90.8,167.7,90.7z M170.4,83.5
				c-0.2,0-0.4,0-0.5,0c-0.9,0.5-1.9,1-3,1.6c0.9,1.7,1.7,3.4,2.6,5.1c0.1,0.1,0.4,0.3,0.6,0.2c1.9-0.8,3.9-1.4,5.8-2.3
				c1.2-0.6,1.2-1.1,0.1-2C174.3,84.8,172.4,84.1,170.4,83.5z M154.8,94.4c-0.3-0.8-0.5-1.4-0.8-2.2c-2.3,1.1-4.6,2.2-6.8,3.3
				c0,0,0,0.1,0,0.1C149.7,95.2,152.2,94.8,154.8,94.4z M161.4,92.9c-0.6-1.5-1.2-2.8-1.8-4.2c-1.5,0.9-2.9,1.7-4.4,2.6
				c0.5,0.8,0.9,1.5,1.4,2.1c0.1,0.2,0.4,0.4,0.6,0.4C158.6,93.5,160,93.2,161.4,92.9z M166,93.3c-7,2.2-14.1,3.7-21.4,3.8
				c-2.5,0-4.7,1.2-7.1,1.8c1.1,0.1,2.2,0.3,3.2,0.3c2.8,0,5.7-0.1,8.6-0.2c7.2-0.4,14.3-1.3,21.4-2.8c3.8-0.8,7.6-1.7,11.1-3.7
				c0.9-0.5,1.8-1.2,2.6-1.9c0.9-0.9,0.9-2.1,0.1-3.1c-0.5-0.6-1.1-1.2-1.8-1.7c-1.4-1-2.8-2.1-4.2-3.1c-1.2-0.8-2.3-1.7-3.5-2.5
				c-0.3-0.2-0.8-0.3-1-0.2c-0.8,0.5-1.4,1.2-2.2,1.8c1.5,0.6,2.8,1.1,4,1.8c0.5,0.3,1,0.6,1.4,0.9c0.8,0.5,1.5,1.2,2.1,1.8
				c0.6,0.7,0.9,1.9,1.2,2.8c0.1,0.2-0.3,0.5-0.4,0.8c-0.2-0.2-0.5-0.3-0.7-0.5c-0.2-0.3-0.3-0.7-0.5-1.1c-0.9,0.4-1.7,0.9-2.5,1.2
				C172.9,90.9,169.5,92.3,166,93.3z M145.3,86c1.9,1.3,3.9,1.9,6.2,1.8c0.5,0,1.1-0.1,1.6-0.1c0.2,0,0.4,0,0.5-0.1
				c4.1-0.7,7.9-2.3,11.4-4.6c4.1-2.8,7.8-5.8,10.8-9.8c0.7-1,1.3-2,1.8-3.2c0.5-1.2,0.1-2.2-1-2.8c-0.6-0.3-1.2-0.6-1.8-0.7
				c-1.5-0.2-3.1-0.5-4.6-0.4c-8.8,0.4-16.5,3.7-23.3,9.2c-1.4,1.2-2.6,2.6-3.4,4.3C142.4,82.1,143,84.4,145.3,86z M138,78.6
				c0.2-0.5-0.2-1-0.8-1c-0.4,0-0.7,0.4-1.1,0.6c0,0.1,0,0.3,0,0.4c0.3,0.3,0.7,0.7,1,0.7C137.4,79.3,137.9,78.9,138,78.6z
				 M137,162.4c3.6-4.6,7.5-8.8,11.6-12.9c4.8-4.8,9.7-9.4,15.3-13.2c0.3-0.2,0.5-0.6,0.6-1c0.2-0.7,0.4-1.5,0.5-2.2
				c0.1-0.6,0.5-0.7,1.1-0.6c0.9,0.3,1.9,0.6,2.9,0.7c0.7,0.1,1.5,0.4,2.2,0.2c5.1-1.2,10.3-2.2,15.5-2.8c3.4-0.4,6.8-1.2,10.2-1.9
				c0-0.1,0-0.2,0-0.3c-1.4-0.5-2.9-1.1-4.3-1.6c-5.3-1.9-10.7-3.3-16.4-3.1c-3.2,0.1-6.3,0.6-9,2.4c-2.4,1.6-4.9,3-7,4.9
				c-7.5,6.8-14,14.5-19.3,23.2c-1.8,3-3.9,5.9-5.9,8.9c-0.6,0.8-0.4,1.3,0.3,1.8C135.8,164,136.3,163.2,137,162.4z M149.8,164.9
				c-4.4,1.2-8.6,2.8-12.9,4.2c-0.8,0.3-1,0.7-0.8,1.5c0.3,0,0.6-0.1,0.8-0.1c4.4-0.8,8.7-1.6,13.1-2.4c8-1.4,16-2.7,24.1-4
				c0.8-0.1,1.5,0,2.2,0.5c3.1,1.9,6.3,3.8,9.4,5.6c2.8,1.6,5.6,3.3,8.5,4.8c2.2,1.2,4.5,2.2,6.8,3.3c0.4,0.2,0.9,0.2,1.4,0.3
				c0.1-0.1,0.2-0.2,0.2-0.3c-0.5-0.6-0.9-1.3-1.4-1.9c-3.2-3.8-6.7-7.1-10.5-10.2c-2.6-2.2-5.3-4.3-8.4-5.8
				c-1.1-0.6-2.3-0.9-3.6-0.8c-2,0.2-3.9,0.3-5.9,0.6C165.1,161.2,157.4,162.8,149.8,164.9z M136.3,165.8c-0.7,0.5-0.7,1-0.4,1.8
				c0.7-0.4,1.2-0.8,1.9-1.1c8.3-4.3,16.6-8.6,24.9-12.8c3.8-1.9,7.6-3.8,11.4-5.6c0.5-0.3,0.9-0.2,1.4,0c2.9,1.4,5.8,2.7,8.8,3.9
				c4.7,1.9,9.3,3.9,14.1,5.7c3.2,1.2,6.5,2.2,9.8,3.3c0.4,0.1,0.8,0.1,1.3,0.1c-0.1-0.3-0.1-0.5-0.2-0.6c-0.3-0.4-0.5-0.9-0.8-1.3
				c-4-4.9-8.4-9.4-13.5-13.2c-1.1-0.8-2.2-1.4-3.6-1.6c-3.5-0.4-7-1-10.5-1.3c-3.9-0.4-7.7,0.1-11.2,2c-3.9,2-7.8,4-11.6,6.1
				c-2.6,1.4-5.1,3-7.6,4.7C145.7,159.1,141,162.5,136.3,165.8z M133.4,40c-1.9,1.5-1.7,3.9,0.6,4.8c1.4,0.5,2.9,0.8,4.4,0.9
				c5.5,0.3,10.9-0.7,16.2-1.9c3.5-0.8,6.7-0.7,9.9,0.9c0.2,0.1,0.3,0.2,0.5,0.2c1.1,0.6,1.9,1.4,2.5,2.5c0.6,1.3,0.4,2-0.9,2.6
				c-0.7,0.3-1.5,0.6-2.2,0.7c-1.3,0.3-2.5,0.5-3.8,0.6c-3.8,0.4-7.7,0.5-11.5,0.7c-1.7,0.1-3.5,0.4-5.2,0.8c-1.3,0.3-1.4,1.2-0.3,2
				c1.1,0.9,2.5,1.1,3.9,1.1c3.6,0,7.1-0.9,10.6-1.5c1-0.2,1.9-0.3,2.9-0.5c1.4-0.2,2.7-0.3,4.1-0.4c1.8-0.2,3.1,0.8,3.8,2.4
				c0.7,1.5,0.3,3-0.2,4.5c-0.4,1.3-1,2.5-1.5,3.8c1.6-0.1,3.1-0.3,4.6-0.4c0.9-0.1,1.6-0.3,2.4-1c2.6-2.3,5.5-4.3,8.3-6.4
				c2.6-2,5.2-3.9,7.7-6c0.9-0.8,1.6-1.8,2.4-2.8c0.7-0.9,0.7-1.9,0-2.8c-0.7-0.9-1.4-1.8-2.3-2.6c-3.7-3.5-7.9-6.3-12.3-8.9
				c-2.4-1.4-4.9-2.8-7.7-3.5c-1.7-0.4-2.6,0.4-2.5,2.1c0.1,1.7,0.9,3,2.3,4c1.8,1.4,3.7,2.7,5.4,4.3c2,1.8,3.3,4,1.8,6.9
				c1.4,0.8,2.7-0.1,4.2,0c-0.7,1-1.6,1.3-2.6,1.5c-3.2,0.5-5.7-1.2-8.1-2.9c-1.1-0.8-2.1-1.7-3.1-2.6c-0.6-0.5-1.2-1.1-1.8-1.6
				c-4.3-3.4-9.1-5.4-14.6-5.7c-4-0.2-8,0.3-11.9,1.2C137.1,38,135.1,38.7,133.4,40z M126.6,68.2c-2.3,0.2-4.4,0.9-6.2,2.5
				c-1.1,1-1.8,2.2-2.2,3.7c4.1-0.7,8.1-0.7,12.1-0.1c4,0.6,7.9,1.4,12,2.2c-0.4-1.7-1.3-3.1-2.6-4.2
				C135.9,69.1,131.5,67.8,126.6,68.2z M118.3,77.6c1.1,3.1,3.6,4.6,6.5,5.4c3.9,1,7.8,1.1,11.7,0.3c1.4-0.3,2.8-0.6,4.3-1.1
				c0.2-0.1,0.4-0.4,0.5-0.6c0.2-0.9,0.4-1.8,0.6-2.9c-1.1-0.4-2.1-0.8-3.3-1.2c0.1,2.4-0.4,3.4-1.8,4c-0.2,0.1-0.4,0.1-0.6,0.2
				c-1,0.2-2.1-0.1-2.8-0.9c-1.2-1.5-1-2.9,0.1-4.4c-3.1-1-13.8-1-15.6-0.2c0,0.2,0,0.3,0.1,0.5C118.1,77.1,118.2,77.3,118.3,77.6z
				 M128,193.4c-3.7-2.3-7.3-4.5-11-6.8c-0.2-0.1-0.4-0.2-0.6-0.1c-0.9,0.3-1.9,0.6-2.9,1c0.3,0.2,0.5,0.4,0.6,0.5
				c2.3,1.3,4.5,2.6,6.9,3.8c1.7,0.9,3.6,1.5,5.4,2.2c0.7,0.3,1.3,0.1,1.8-0.4C128.1,193.5,128,193.4,128,193.4z M92.4,127
				c4.7,0.6,9.3,1.1,14,1.6c1.9,0.2,3.4-0.7,4.5-2.3c-0.1,0-0.2-0.1-0.2-0.1c-6.4-0.7-12.8-1.5-19.2-2.2c-4-0.4-8-0.8-12-1.1
				c-0.8-0.1-1.1-0.4-1.2-1.1c-0.1-0.6-0.2-1.3-0.2-1.9c-0.1-1-0.3-2-0.4-3c-0.1-1.1-0.3-2.1-0.5-3.2c-0.3-1.4-0.9-1.6-2.1-0.8
				c-2.7,1.9-4.7,4.4-6.4,7.2c-0.5,0.8-0.2,1.3,0.5,1.7c0.7,0.4,1.3,0.3,1.8-0.2c0.8-0.7,1.5-1.5,2.2-2.3c0.8-0.8,1.5-1.7,2.3-2.6
				c0,0.1,0,0.3,0.1,0.4c0.1,1-0.2,1.8-0.7,2.5c-0.6,0.8-1.2,1.6-1.8,2.4c-0.3,0.4-0.7,0.7-0.3,1.4c0.2,0.4-0.1,1.1-0.4,1.5
				c-0.5,0.6-1.1,1-1.8,1.6c0.2,0.1,0.3,0.3,0.4,0.4c1.1,1.1,1,1.1,2.6,0.6c1.1-0.4,2.4-0.8,3.5-0.7c1.1,0.1,1.9-0.4,2.7-1
				c0.3-0.2,0.8-0.4,1.1-0.3C84.8,126,88.6,126.5,92.4,127z M126.8,100.2c-7.8,0.8-15.6,1.3-23.4,1.3c-2.7,0-5.5-0.4-8.2-0.6
				c-0.2,0-0.4,0-0.5-0.1c-1.4-0.3-1.7-1-0.8-2.1c0.8-0.9,1.7-1.8,2.6-2.5c4.3-3.3,9.1-5.8,13.8-8.2c3-1.5,6-2.8,9.1-4.2
				c0.2-0.1,0.3-0.2,0.5-0.3c-3.4-2.1-4.4-5.3-4.1-9c0.1-1.7,0.7-3.1,1.8-4.3c3.8-4,8.4-5.3,13.7-4.2c4.1,0.8,7.7,2.7,10.7,5.6
				c0.9,0.9,1.6,2,2.4,3c2-2,4.4-3.5,6.9-4.9c4-2.1,8.1-3.7,12.6-4.5c0.6-0.1,0.9-0.3,1.1-0.9c0.6-1.9,1.4-3.7,1.8-5.7
				c0.4-2.1-0.8-3.4-2.9-3.1c-1.9,0.2-3.8,0.8-5.7,1.1c-3.6,0.5-7.1,1.1-10.7,1.3c-1.5,0.1-3.1-0.5-4.7-1c-1-0.3-1.7-1.1-2.1-2.1
				c-0.6-1.5-0.3-2.5,1.1-3c1.3-0.5,2.7-1,4-1.1c4.9-0.5,9.8-0.8,14.7-1.2c1.1-0.1,2.2-0.2,3.3-0.3c1.3-0.2,1.7-1.3,0.8-2.2
				c-0.6-0.6-1.4-1-2.2-1.3c-2.2-0.7-4.5-0.9-6.8-0.6c-2.1,0.3-4.1,0.8-6.2,1.2c-4.1,0.8-8.2,1.8-12.5,1.5c-1.8-0.1-3.6-0.5-5.2-1.5
				c-1.1-0.7-1.9-1.7-2.2-3c-0.4-1.7,0.1-3.3,1.6-4.2c9.8-5.6,19.9-6.9,30.3-1.7c2.2,1.1,4,2.7,6,4.2c2,1.6,3.9,3.3,5.9,4.9
				c0.5,0.4,1.1,1,1.8,0.5c0.8-0.5,0.8-1.4,0.5-2.2c-0.2-0.6-0.6-1.1-1-1.6c-1.1-1-2.3-2-3.4-2.9c-1.3-1.1-2.6-2.1-3.7-3.4
				c-1.4-1.5-2-3.4-1.9-5.4c0.1-1.6,1.1-2.4,2.4-2.9c0.8,0,1.7,0,2.5,0c6.2,1.7,11.5,5.1,16.6,8.8c2.7,2,5.2,4.2,7.1,7
				c1,1.6,1.6,3.9-0.2,5.7c-2.6,2.7-5.6,4.7-8.7,6.8c-2.6,1.8-5.3,3.6-7.9,5.4c-0.7,0.5-1.3,1.1-2.1,1.8c0.4,0.2,0.6,0.3,0.8,0.3
				c3.1,1,4.4,3.4,3.8,6.5c-0.6,3-2.3,5.3-4.6,7.4c0.3,0.2,0.6,0.4,0.9,0.6c2.3,1.6,4.8,3.2,7,5c1.3,1.1,2.4,2.5,3.5,3.8
				c0.4,0.5,0.7,1.2,0.9,1.8c0.4,1.3,0.1,1.9-1,2.6c-5.2,3.5-11.1,5.4-17.1,6.6c-5.8,1.2-11.6,1.9-17.5,2.4
				c-0.6,0.1-1.2,0.3-1.7,0.6c-4.5,3.4-8.4,7.5-12,11.9c-3,3.7-5.9,7.5-8.8,11.3c-0.3,0.4-0.5,1-0.6,1.5c-1.4,6.6-2.7,13.3-4,19.9
				c-0.5,2.6-1.2,5.1-1.8,7.7c0.4,0.1,0.9,0.2,1.3,0.4c1.4,0.4,1.9,1.2,1.7,2.6c-0.2,1.6-0.2,1.5,1.2,2.4c2,1.2,3.9,2.5,5.9,3.8
				c0.1-0.1,0.3-0.3,0.4-0.6c4.4-7.6,9.4-14.9,14.9-21.9c4.6-5.8,9.7-11,15.7-15.3c3.3-2.3,7-3.4,11-3.5c8.9-0.2,17.3,2.2,25.2,6
				c0.2,0.1,0.4,0.2,0.8,0.5c-0.6,0.4-1.1,0.8-1.6,1c-2.2,0.6-4.3,1.3-6.5,1.8c-3.3,0.7-6.7,1.4-10.1,2c-3.9,0.7-7.7,1.4-11.6,2
				c-0.5,0.1-1,0-1.5-0.1c-1-0.2-1.9-0.6-2.9-0.8c-0.9-0.2-1.2,0.2-0.9,1c0.5,1.1,0,1.6-0.8,2.2c-4.1,3.3-8.1,6.8-12.2,10.1
				c-3.9,3.2-7.4,6.8-10.7,10.6c-0.6,0.6-1,1.3-1.6,2c0.1,0,0.2,0.1,0.2,0c5-3.8,10.4-7,15.9-10.2c3.6-2.1,7.2-3.9,10.8-5.9
				c4.1-2.3,8.4-3.2,13-2.7c3.5,0.4,7.1,0.8,10.6,1.3c2.3,0.3,4.3,1.3,6,2.8c4.5,3.7,8.7,7.6,12.2,12.3c0.7,0.9,1.3,2,1.8,3.1
				c0.3,0.6,0.4,1.3,0.5,2c0,0.9-0.6,1.4-1.5,1.3c-4.1-0.6-7.9-2-11.7-3.6c-4.8-2-9.4-4.1-14.1-6.2c-3.2-1.4-6.4-2.9-9.6-4.4
				c-0.7-0.3-1.3-0.3-2,0.1c-8.5,4.3-16.9,8.5-25.4,12.7c-1.3,0.6-2.5,1.3-3.7,2.1c0.2,0,0.4,0,0.5-0.1c8.3-2.3,16.7-4.4,25.3-5.7
				c2.9-0.5,5.9-0.6,8.9-0.8c2.1-0.2,4,0.5,5.9,1.5c4.6,2.6,8.7,5.7,12.6,9.3c2.5,2.3,4.9,4.7,6.8,7.6c0.5,0.8,1,1.7,1.5,2.5
				c0.5,0.9,0.4,1.3-0.7,1.4c-1.1,0.1-2.3,0-3.3-0.3c-3.3-0.8-6.2-2.5-9.2-3.9c-5.9-2.9-11.4-6.5-16.9-10c-0.3-0.2-0.9-0.3-1.3-0.3
				c-3.1,0.4-6.1,0.8-9.2,1.3c-9.7,1.7-19.3,3.5-29,5.3c-0.4,0.1-0.8,0.4-1,0.7c-1.9,3-4.5,5.5-7.4,7.5c-2.4,1.6-5,3.1-7.4,4.6
				c-0.2,0.1-0.4,0.2-0.6,0.4c0.1,0.2,0.2,0.3,0.3,0.4c2.9,1.8,5.8,3.5,8.7,5.3c0.7,0.4,1.3,0.4,2,0.1c1.6-0.7,2.7-2,3.8-3.2
				c1.2-1.3,2.4-2.7,3.6-4.1c0.2-0.3,0.3-0.7,0.4-1.1c0.3-1.8,0.6-3.6,1-5.4c0-0.3,0.1-0.7,0.3-0.8c0.4-0.3,0.8-0.4,1.3-0.6
				c0.1,0.3,0.3,0.6,0.3,0.9c0,0.5-0.1,1-0.2,1.5c-1.3,3.8-0.8,7.6-0.2,11.4c0.8,5.1,3.3,9.5,5.6,14c0.6,1.1,1.1,2.2,1.6,3.3
				c0.1,0.3,0.2,0.6,0.3,0.9c-0.1,0.1-0.1,0.2-0.2,0.2c-0.5-0.3-1-0.4-1.4-0.8c-0.8-0.9-1.6-1.8-2.3-2.8c-2.3-3.6-3.6-7.7-4.8-11.8
				c0-0.2-0.1-0.3-0.1-0.5c-0.1,0-0.2,0-0.3,0c0,0.3-0.1,0.6,0,0.9c0.7,3.6,1.5,7.1,2.2,10.7c0.3,1.4,0.6,2.8,0.7,4.2
				c0.1,0.7-0.1,1.5-0.2,2.2c-0.1,0-0.3,0.1-0.4,0.1c-0.3-0.4-0.6-0.8-0.8-1.3c-0.6-2.3-1.3-4.5-1.7-6.8c-0.5-2.7-0.9-5.5-1.3-8.3
				c-0.3-1.8-0.5-3.6-0.8-5.6c-0.5,0.5-1,0.9-1.5,1.4c-1.3,1.4-2.6,2.8-3.9,4.2c-0.2,0.3-0.5,0.5-0.8,0.7c-1.5,1.2-3,1.5-4.9,0.9
				c-4.7-1.4-8.9-3.8-13.2-6.1c-1-0.5-1.8-0.7-2.9-0.4c-5.5,1.3-11.1,1.5-16.8,1c-1.8-0.2-3.6-0.6-5.4-0.9c-0.3-0.1-0.7-0.2-1.3-0.3
				c0.1,1.7,0,3.2,0.4,4.6c0.7,2.7,1.6,5.3,2.5,7.9c0.5,1.4,1.1,2.7,1.5,4.1c0.2,0.5,0.4,0.7,1,0.8c2.5,0.1,4.9,0.8,7.1,1.9
				c0.4,0.2,1,0.8,0.9,1c-0.3,0.7-0.9,0.4-1.5,0.2c-3.5-1.4-7.2-1.4-10.9-0.9c-7.1,0.9-14.2,2-21.3,2.9c-1.9,0.3-3.8,0.3-5.7,0.4
				c-0.4,0-0.9-0.1-1.3-0.2c0-0.1,0-0.2,0-0.3c0.5-0.2,1-0.4,1.5-0.5c3.9-0.7,7.9-1.3,11.8-2c2.4-0.4,4.9-0.7,7.3-1.1
				c0.2,0,0.3-0.1,0.5-0.3c-1.4-0.1-2.8-0.3-4.2-0.4c-1.4-0.1-2.9-0.1-4.3-0.2c-1.4,0-2.9-0.1-4.3-0.1c-1.4,0-2.8,0-4.2,0
				c-0.3-0.8,0-1.2,0.6-1.2c2.8-0.2,5.6-0.6,8.4-0.5c5.1,0.1,10.1,0.4,15.2,0.6c0.1,0,0.2,0,0.5,0c-0.2-0.5-0.3-0.9-0.5-1.3
				c-1.4-3.1-2.8-6.2-4.3-9.3c-1.4-3-2.8-5.9-4.2-8.9c-0.3-0.6-0.8-1.2-1.3-1.6c-2.8-2.2-5.4-4.6-7.6-7.4c-1.2-1.6-2.4-3.2-2.7-5.2
				c-0.5-3.4,0.5-6.5,2.7-9.2c0.6-0.8,1.4-1.5,2.2-2.2c0,0,0,0,0.1,0c2.4-2,4.8-4,7.2-5.9c4-3.4,8-6.7,12-10.1c1.2-1,2.3-2,3.5-3.2
				c-0.6-0.1-1.1-0.2-1.6-0.2c-3.3,0.1-6.6,0.3-9.9,0.5c-1.7,0.1-3.3,0.1-5,0.1c-0.6,0-0.9,0.2-0.9,0.8c0,1.1,0.1,2.2,0,3.3
				c0,0.8-0.2,1.5-0.4,2.3c-0.2,0.7-0.6,1-1.3,0.9c-0.8-0.1-1.6-0.3-2.3-0.5c-0.6-0.2-1-0.1-1,0.7c0,2-0.1,4.1-0.1,6.1
				c0,1.7,0,3.4-0.6,4.9c-1-0.1-1.9-0.2-2.8-0.2c-0.1,0.8-0.2,1.3-0.3,1.9c-1.6-0.7-1.6-0.9-1.6-2.4c0-3.5,0-7,0-10.6
				c-0.3,0.3-0.7,0.6-1,0.9c-1.2,1-2.3,2.1-3.6,3c-0.6,0.4-1.3,0.7-2.1,0.8c-1.6,0.2-2.8-0.7-3.2-2.2c-0.6-2.4-0.1-3.9,2.1-5.1
				c1-0.6,2.1-1.1,3.3-1.7c-0.4-0.2-0.7-0.4-0.9-0.6c-1-0.7-2-1.3-2.8-2.2c-1.2-1.2-1.1-2.6,0.2-3.8c0.5-0.5,1.1-0.9,1.7-1.3
				c-1.6-0.8-2.4-2.1-2.2-3.9c0.2-1.9,1.8-2.3,3.2-2.6c-0.4-1-0.9-1.9-1.3-3c-2.5-0.5-2.9-4.5-1-6.3c-0.2-0.2-0.4-0.5-0.6-0.7
				c-1.8-1.8-1.3-4.1,1.2-4.7c1.9-0.4,4-0.4,5.9-0.6c0.7-0.1,1.3,0,2.2,0c0.1-8,0.8-12.2,0.9-23l1.2,0c0,0.3,0,0.6,0,1.1
				c0.6-0.1,1.1-0.3,1.5-0.3c0.9-0.1,0.9-0.7,0.9-1.3c0.6,0.1,1.3,0.2,1.8,0.2c0,0,0,0,0,0c-0.3,9.2-0.7,13.1-0.9,20.3
				c0.7-0.4,1.3-0.7,1.8-1c2.4-1.3,3.3-0.9,3.8,1.7c0.5,2.4,0.8,4.9,1.1,7.4c0.1,0.8,0.3,1.2,1.3,1.3c6.1,0.6,12.2,1.3,18.3,2
				c4.2,0.4,8.3,0.8,12.4,1.3c1,0.1,1.8-0.1,2.6-0.7c2.6-1.9,5.1-3.9,7.3-6.3c4.1-4.7,8.3-9.4,12.5-14c0.7-0.8,1.2-1.7,1.9-2.6
				c-1.3-0.3-2.6-0.4-3.7-0.8C130.6,99.4,128.7,99.9,126.8,100.2z M100.7,99.3c5.9,0.1,11.7,0.1,17.6-0.6c5.2-0.6,10.4-1.2,15.4-2.4
				c6.1-1.4,12.3-3,18-5.6c0.2-0.1,0.4-0.2,0.7-0.4c-2.3-0.1-4.4-0.4-6.4-1.3c-1.8-0.8-3.4-1.9-4.3-3.7c-0.5-1-1.1-1-2-0.9
				c-4.5,0.8-9.1,1.5-13.6,0.6c-2.5-0.5-4.5,0-6.7,0.9c-2.2,1-4.4,1.9-6.6,2.9c-5.1,2.4-10,5-14.6,8.2c-0.7,0.5-1.3,1-2.1,1.7
				c0.5,0.1,0.8,0.3,1.1,0.3C98.4,99.1,99.6,99.3,100.7,99.3z M109.8,129.7c-1.5,1.1-2.8,2.6-4.4,4c0.6,0.1,0.9,0.2,1.3,0.2
				c1.4,0.1,2.8,0.1,4.2,0.2c0.7,0.1,1.5,0.2,2.2,0.4c0.3,0.1,0.4,0.4,0.7,0.6c-0.4,0.2-0.6,0.3-0.8,0.3c-4.2,0.1-8.3,0.1-12.5,0.2
				c-7.4,0.2-14.7,0.3-22.1,0.5c-0.4,0-0.9,0.4-1.3,0.6c-0.4,0.2-0.7,0.4-1.1,0.6c0-0.5-0.2-0.9-0.1-1.4c0.2-0.7,0.6-1.4,0.8-2.2
				c0.3-1,0.7-2,0.9-3c0.4-1.8-0.4-2.6-2.1-2.1c-2.2,0.6-4.3,1.5-6.5,2.3c1.1,0.6,2.2,1.1,3.3,1.6c0,0.1-0.1,0.2-0.1,0.3
				c-0.2,0-0.4,0-0.6-0.1c-2-0.4-3.9-0.8-5.9-1.1c-1.4-0.2-2.8-0.1-4.3-0.1c-0.7,0-1.3,0.5-1.4,1.3c-0.1,0.8,0.2,1.4,0.9,1.7
				c0.6,0.3,1.2,0.5,1.8,0.7c1,0.3,1.9,0.4,2.9,0.7c0.5,0.2,1,0.6,1.4,1c0.4,0.5,0.1,1-0.6,0.9c-0.6-0.1-1.2-0.1-1.6-0.3
				c-1.3-0.7-2.4-0.3-3.5,0.3c-1.7,0.9-1.9,2.3-0.3,3.4c1,0.8,2.2,1.2,3.4,1.8c0.8,0.4,1.7,0.7,2,1.7c-0.5,0.2-0.9,0.3-1.3,0.4
				s-0.8,0.3-1.1,0.5c-1.3,0.6-2.7,1.1-4,1.8c-1.3,0.7-1.5,1.9-0.9,3.2c0.3,0.6,0.8,1,1.5,0.6c1.2-0.8,2.3-1.7,3.4-2.7
				c0.3-0.3,0.6-0.6,0.9-0.8c0.9-0.8,1.8-1.5,2.9-1.9c0.6-0.2,1-0.1,1.6,0.1c1.3,0.5,2.8,1,4.2,1.2c1.3,0.2,1.8-0.4,1.9-1.6
				c0.1-1.1,0-2.2-0.1-3.3c0-0.6-0.1-1.1-0.2-1.8c3-0.2,5.8-0.4,8.7-0.5c4-0.2,7.9-0.3,11.9-0.4c4.7-0.1,9.4-0.3,14.1-0.4
				c0.4,0,0.9,0,1.3,0.2c0.5,0.2,1,0.5,1.5,0.8c0,0.1-0.1,0.2-0.1,0.3c-0.4,0.1-0.7,0.2-1.1,0.2c-4.2,0.2-8.3,0.3-12.5,0.4
				c-0.6,0-1.1,0.1-1.6,0.5c-4.4,3.7-8.9,7.3-13.3,11c-3.7,3.2-7.3,6.5-11,9.7c-1.3,1.1-2.2,2.5-2.8,4.1c-1.5,3.9-0.3,7.3,1.9,10.4
				c2.7,3.9,6.4,6.6,10.5,8.7c1.1,0.5,2.2,1,3.3,1.3c5.3,1.1,10.6,1.4,16,1.1c5.1-0.3,10.2-1,14.8-3.5c2.9-1.6,5.7-3.2,8.5-4.9
				c1.6-1,3-2.3,4.4-3.6c1.7-1.6,3-3.4,3.7-5.6c0.7-2.2,0.3-4-1.3-5.7c-1.5-1.6-3.2-2.8-5.2-3.6c-0.4-0.2-0.8-0.3-1.3-0.4
				c-0.6,1.5-1.2,3-1.7,4.4c-0.3-0.4-0.4-0.7-0.3-1.1c0-0.5,0.1-0.9,0.2-1.4c0.3-1.8,0.5-3.6,0.8-5.4c0.1-0.5-0.1-0.8-0.7-0.8
				c-1.1-0.1-1.8,0.1-2.2,1.3c-0.3,0.8-0.8,1.5-1.7,2c0-0.3,0.1-0.4,0.1-0.6c1.1-4.5,2.1-8.9,3.1-13.4c1.4-6.1,2.6-12.1,4-18.2
				c0.2-1.1,0.3-2.3,0.8-3.3c3.3-5.7,7.5-10.8,11.8-15.7c0.3-0.3,0.6-0.6,1-1c-2-0.4-3.8-0.7-5.6-1c-0.3,0-0.7,0.2-0.9,0.4
				c-0.9,1-1.8,2.1-2.6,3.1C125.1,117.6,117.8,124,109.8,129.7z M105.8,130.9c0.2-0.1,0.3-0.3,0.6-0.6c-0.6-0.1-1-0.2-1.4-0.2
				c-4.5-0.5-9-1-13.5-1.5c-3.3-0.4-6.5-0.8-9.8-1.1c-0.3,0-0.6,0-0.8,0.2c-0.9,0.8-1.5,1.7-1.5,3c0,0.7-0.3,1.3-0.5,2
				c-0.2,0.6-0.4,1.1-0.6,1.8c0.4,0,0.7,0.1,1,0.1c2.8-0.1,5.7-0.1,8.5-0.2c4.2-0.1,8.3-0.1,12.5-0.3c0.6,0,1.3-0.1,1.8-0.4
				C103.4,132.8,104.6,131.8,105.8,130.9z"/>
			<path d="M23,37.5c0-1.8,0.6-3.3,1.8-4.8c6.2-7.9,12.3-16,18.4-24c0.5-0.7,1.1-1,2-1.1c7.1-0.5,14.3-1.1,21.4-1.7
				c6-0.5,11.9-0.9,17.9-1.3c0.5,0,1.2,0.2,1.7,0.6c5,4.3,9.9,8.8,14.9,13.1c2.1,1.8,4.2,3.6,6.2,5.4c0.4,0.3,0.7,1,0.7,1.5
				c0.6,6.5,1.2,13.1,1.7,19.6c0.6,8,1.1,16,1.7,24.1c0.1,0.9-0.2,1.5-0.8,2.1c-6.3,5.5-12.6,11-18.8,16.5c-1,0.9-2.2,1.5-3.6,1.4
				c-2.5,0-5,0.2-7.5,0.3c-0.8,0-5.1,0.1-6.1,0.2l-0.1-2c3.6-0.2,7.1-0.4,10.7-0.5c2.4-0.1,4.2-0.8,5.8-2.5c0.4-0.4,0.8-0.8,1.3-1.2
				c5.5-4.8,11-9.6,16.4-14.4c0.4-0.3,0.7-1,0.6-1.5c-0.4-5.4-0.8-10.7-1.2-16.1c-0.5-6.5-1.2-13-1.7-19.5c0,0,0.1,0,0.1,0
				c-0.1-1.6-0.2-3.2-0.4-4.8c-0.1-0.6-0.4-1.4-0.9-1.8c-2-1.9-4.2-3.7-6.2-5.5C94.4,15.8,90.2,12,86,8.2c-0.4-0.3-0.9-0.6-1.4-0.6
				c-2.3,0.1-4.5,0.3-6.8,0.4c-10.6,0.8-21.1,1.5-31.6,2.2c-0.8,0.1-1.4,0.3-1.9,1c-3.1,4.1-6.2,8.3-9.4,12.4
				c-3.1,4.1-6.3,8.3-9.4,12.4C25.3,36.5,25,37,25,37.5L23,37.5z"/>
			<path d="M25.7,72.8c-0.9-11.5-1.7-23-2.7-34.5c0-0.3,0-0.6,0-0.8l2.1,0c0,0,0,0,0,0c0.1,1.4,0.3,2.9,0.5,4.3
				c1.1,9.8,2.3,19.7,3.5,29.5c0.1,0.6,0.4,1.2,0.8,1.6c5.4,5.2,10.9,10.3,16.3,15.5c0.5,0.4,1.3,0.7,1.9,0.7
				c7.2-0.4,14.5-0.9,21.7-1.4c1.5-0.1,3.1-0.2,4.6-0.3l0.1,2c0,0-0.1,0-0.1,0c0,0.6,0,1.3-0.1,1.9c-0.4-0.3-1.9-0.8-1.9-0.2
				c0,0.1,0,0.1,0,0.2c-1.3-0.2-2.4-0.3-2.4,0.5l-1.2,0c0-0.5,0-0.9,0-1.4c-0.9-0.1-0.8-0.2-1.6-0.2c-5.2,0.3-10.4,0.6-15.7,0.9
				c-1.7,0.1-3.4,0.3-5.2,0.3c-0.4,0-1-0.2-1.3-0.5c-6.2-5.5-12.4-11.1-18.5-16.6C26,73.9,25.7,73.3,25.7,72.8z"/>
		</g>
		<g>
			<path fill="none" stroke="#000000" stroke-miterlimit="10" d="M74.2,91.4c-0.3,9.2-0.7,13.1-0.9,20.3c0.7-0.4,1.3-0.7,1.8-1
				c2.4-1.3,3.3-0.9,3.8,1.7c0.5,2.4,0.8,4.9,1.1,7.4c0.1,0.8,0.3,1.2,1.3,1.3c6.1,0.6,12.2,1.3,18.3,2c4.2,0.4,8.3,0.8,12.4,1.3
				c1,0.1,1.8-0.1,2.6-0.7c2.6-1.9,5.1-3.9,7.3-6.3c4.1-4.7,8.3-9.4,12.5-14c0.7-0.8,1.2-1.7,1.9-2.6c-1.3-0.3-2.6-0.4-3.7-0.8
				c-2-0.7-3.9-0.1-5.8,0.1c-7.8,0.8-15.6,1.3-23.4,1.3c-2.7,0-5.5-0.4-8.2-0.6c-0.2,0-0.4,0-0.5-0.1c-1.4-0.3-1.7-1-0.8-2.1
				c0.8-0.9,1.7-1.8,2.6-2.5c4.3-3.3,9.1-5.8,13.8-8.2c3-1.5,6-2.8,9.1-4.2c0.2-0.1,0.3-0.2,0.5-0.3c-3.4-2.1-4.4-5.3-4.1-9
				c0.1-1.7,0.7-3.1,1.8-4.3c3.8-4,8.4-5.3,13.7-4.2c4.1,0.8,7.7,2.7,10.7,5.6c0.9,0.9,1.6,2,2.4,3c2-2,4.4-3.5,6.9-4.9
				c4-2.1,8.1-3.7,12.6-4.5c0.6-0.1,0.9-0.3,1.1-0.9c0.6-1.9,1.4-3.7,1.8-5.7c0.4-2.1-0.8-3.4-2.9-3.1c-1.9,0.2-3.8,0.8-5.7,1.1
				c-3.6,0.5-7.1,1.1-10.7,1.3c-1.5,0.1-3.1-0.5-4.7-1c-1-0.3-1.7-1.1-2.1-2.1c-0.6-1.5-0.3-2.5,1.1-3c1.3-0.5,2.7-1,4-1.1
				c4.9-0.5,9.8-0.8,14.7-1.2c1.1-0.1,2.2-0.2,3.3-0.3c1.3-0.2,1.7-1.3,0.8-2.2c-0.6-0.6-1.4-1-2.2-1.3c-2.2-0.7-4.5-0.9-6.8-0.6
				c-2.1,0.3-4.1,0.8-6.2,1.2c-4.1,0.8-8.2,1.8-12.5,1.5c-1.8-0.1-3.6-0.5-5.2-1.5c-1.1-0.7-1.9-1.7-2.2-3c-0.4-1.7,0.1-3.3,1.6-4.2
				c9.8-5.6,19.9-6.9,30.3-1.7c2.2,1.1,4,2.7,6,4.2c2,1.6,3.9,3.3,5.9,4.9c0.5,0.4,1.1,1,1.8,0.5c0.8-0.5,0.8-1.4,0.5-2.2
				c-0.2-0.6-0.6-1.1-1-1.6c-1.1-1-2.3-2-3.4-2.9c-1.3-1.1-2.6-2.1-3.7-3.4c-1.4-1.5-2-3.4-1.9-5.4c0.1-1.6,1.1-2.4,2.4-2.9
				c0.8,0,1.7,0,2.5,0c6.2,1.7,11.5,5.1,16.6,8.8c2.7,2,5.2,4.2,7.1,7c1,1.6,1.6,3.9-0.2,5.7c-2.6,2.7-5.6,4.7-8.7,6.8
				c-2.6,1.8-5.3,3.6-7.9,5.4c-0.7,0.5-1.3,1.1-2.1,1.8c0.4,0.2,0.6,0.3,0.8,0.3c3.1,1,4.4,3.4,3.8,6.5c-0.6,3-2.3,5.3-4.6,7.4
				c0.3,0.2,0.6,0.4,0.9,0.6c2.3,1.6,4.8,3.2,7,5c1.3,1.1,2.4,2.5,3.5,3.8c0.4,0.5,0.7,1.2,0.9,1.8c0.4,1.3,0.1,1.9-1,2.6
				c-5.2,3.5-11.1,5.4-17.1,6.6c-5.8,1.2-11.6,1.9-17.5,2.4c-0.6,0.1-1.2,0.3-1.7,0.6c-4.5,3.4-8.4,7.5-12,11.9
				c-3,3.7-5.9,7.5-8.8,11.3c-0.3,0.4-0.5,1-0.6,1.5c-1.4,6.6-2.7,13.3-4,19.9c-0.5,2.6-1.2,5.1-1.8,7.7c0.4,0.1,0.9,0.2,1.3,0.4
				c1.4,0.4,1.9,1.2,1.7,2.6c-0.2,1.6-0.2,1.5,1.2,2.4c2,1.2,3.9,2.5,5.9,3.8c0.1-0.1,0.3-0.3,0.4-0.6c4.4-7.6,9.4-14.9,14.9-21.9
				c4.6-5.8,9.7-11,15.7-15.3c3.3-2.3,7-3.4,11-3.5c8.9-0.2,17.3,2.2,25.2,6c0.2,0.1,0.4,0.2,0.8,0.5c-0.6,0.4-1.1,0.8-1.6,1
				c-2.2,0.6-4.3,1.3-6.5,1.8c-3.3,0.7-6.7,1.4-10.1,2c-3.9,0.7-7.7,1.4-11.6,2c-0.5,0.1-1,0-1.5-0.1c-1-0.2-1.9-0.6-2.9-0.8
				c-0.9-0.2-1.2,0.2-0.9,1c0.5,1.1,0,1.6-0.8,2.2c-4.1,3.3-8.1,6.8-12.2,10.1c-3.9,3.2-7.4,6.8-10.7,10.6c-0.6,0.6-1,1.3-1.6,2
				c0.1,0,0.2,0.1,0.2,0c5-3.8,10.4-7,15.9-10.2c3.6-2.1,7.2-3.9,10.8-5.9c4.1-2.3,8.4-3.2,13-2.7c3.5,0.4,7.1,0.8,10.6,1.3
				c2.3,0.3,4.3,1.3,6,2.8c4.5,3.7,8.7,7.6,12.2,12.3c0.7,0.9,1.3,2,1.8,3.1c0.3,0.6,0.4,1.3,0.5,2c0,0.9-0.6,1.4-1.5,1.3
				c-4.1-0.6-7.9-2-11.7-3.6c-4.8-2-9.4-4.1-14.1-6.2c-3.2-1.4-6.4-2.9-9.6-4.4c-0.7-0.3-1.3-0.3-2,0.1c-8.5,4.3-16.9,8.5-25.4,12.7
				c-1.3,0.6-2.5,1.3-3.7,2.1c0.2,0,0.4,0,0.5-0.1c8.3-2.3,16.7-4.4,25.3-5.7c2.9-0.5,5.9-0.6,8.9-0.8c2.1-0.2,4,0.5,5.9,1.5
				c4.6,2.6,8.7,5.7,12.6,9.3c2.5,2.3,4.9,4.7,6.8,7.6c0.5,0.8,1,1.7,1.5,2.5c0.5,0.9,0.4,1.3-0.7,1.4c-1.1,0.1-2.3,0-3.3-0.3
				c-3.3-0.8-6.2-2.5-9.2-3.9c-5.9-2.9-11.4-6.5-16.9-10c-0.3-0.2-0.9-0.3-1.3-0.3c-3.1,0.4-6.1,0.8-9.2,1.3
				c-9.7,1.7-19.3,3.5-29,5.3c-0.4,0.1-0.8,0.4-1,0.7c-1.9,3-4.5,5.5-7.4,7.5c-2.4,1.6-5,3.1-7.4,4.6c-0.2,0.1-0.4,0.2-0.6,0.4
				c0.1,0.2,0.2,0.3,0.3,0.4c2.9,1.8,5.8,3.5,8.7,5.3c0.7,0.4,1.3,0.4,2,0.1c1.6-0.7,2.7-2,3.8-3.2c1.2-1.3,2.4-2.7,3.6-4.1
				c0.2-0.3,0.3-0.7,0.4-1.1c0.3-1.8,0.6-3.6,1-5.4c0-0.3,0.1-0.7,0.3-0.8c0.4-0.3,0.8-0.4,1.3-0.6c0.1,0.3,0.3,0.6,0.3,0.9
				c0,0.5-0.1,1-0.2,1.5c-1.3,3.8-0.8,7.6-0.2,11.4c0.8,5.1,3.3,9.5,5.6,14c0.6,1.1,1.1,2.2,1.6,3.3c0.1,0.3,0.2,0.6,0.3,0.9
				c-0.1,0.1-0.1,0.2-0.2,0.2c-0.5-0.3-1-0.4-1.4-0.8c-0.8-0.9-1.6-1.8-2.3-2.8c-2.3-3.6-3.6-7.7-4.8-11.8c0-0.2-0.1-0.3-0.1-0.5
				c-0.1,0-0.2,0-0.3,0c0,0.3-0.1,0.6,0,0.9c0.7,3.6,1.5,7.1,2.2,10.7c0.3,1.4,0.6,2.8,0.7,4.2c0.1,0.7-0.1,1.5-0.2,2.2
				c-0.1,0-0.3,0.1-0.4,0.1c-0.3-0.4-0.6-0.8-0.8-1.3c-0.6-2.3-1.3-4.5-1.7-6.8c-0.5-2.7-0.9-5.5-1.3-8.3c-0.3-1.8-0.5-3.6-0.8-5.6
				c-0.5,0.5-1,0.9-1.5,1.4c-1.3,1.4-2.6,2.8-3.9,4.2c-0.2,0.3-0.5,0.5-0.8,0.7c-1.5,1.2-3,1.5-4.9,0.9c-4.7-1.4-8.9-3.8-13.2-6.1
				c-1-0.5-1.8-0.7-2.9-0.4c-5.5,1.3-11.1,1.5-16.8,1c-1.8-0.2-3.6-0.6-5.4-0.9c-0.3-0.1-0.7-0.2-1.3-0.3c0.1,1.7,0,3.2,0.4,4.6
				c0.7,2.7,1.6,5.3,2.5,7.9c0.5,1.4,1.1,2.7,1.5,4.1c0.2,0.5,0.4,0.7,1,0.8c2.5,0.1,4.9,0.8,7.1,1.9c0.4,0.2,1,0.8,0.9,1
				c-0.3,0.7-0.9,0.4-1.5,0.2c-3.5-1.4-7.2-1.4-10.9-0.9c-7.1,0.9-14.2,2-21.3,2.9c-1.9,0.3-3.8,0.3-5.7,0.4c-0.4,0-0.9-0.1-1.3-0.2
				c0-0.1,0-0.2,0-0.3c0.5-0.2,1-0.4,1.5-0.5c3.9-0.7,7.9-1.3,11.8-2c2.4-0.4,4.9-0.7,7.3-1.1c0.2,0,0.3-0.1,0.5-0.3
				c-1.4-0.1-2.8-0.3-4.2-0.4c-1.4-0.1-2.9-0.1-4.3-0.2c-1.4,0-2.9-0.1-4.3-0.1c-1.4,0-2.8,0-4.2,0c-0.3-0.8,0-1.2,0.6-1.2
				c2.8-0.2,5.6-0.6,8.4-0.5c5.1,0.1,10.1,0.4,15.2,0.6c0.1,0,0.2,0,0.5,0c-0.2-0.5-0.3-0.9-0.5-1.3c-1.4-3.1-2.8-6.2-4.3-9.3
				c-1.4-3-2.8-5.9-4.2-8.9c-0.3-0.6-0.8-1.2-1.3-1.6c-2.8-2.2-5.4-4.6-7.6-7.4c-1.2-1.6-2.4-3.2-2.7-5.2c-0.5-3.4,0.5-6.5,2.7-9.2
				c0.6-0.8,1.4-1.5,2.2-2.2c0,0,0,0,0.1,0c2.4-2,4.8-4,7.2-5.9c4-3.4,8-6.7,12-10.1c1.2-1,2.3-2,3.5-3.2c-0.6-0.1-1.1-0.2-1.6-0.2
				c-3.3,0.1-6.6,0.3-9.9,0.5c-1.7,0.1-3.3,0.1-5,0.1c-0.6,0-0.9,0.2-0.9,0.8c0,1.1,0.1,2.2,0,3.3c0,0.8-0.2,1.5-0.4,2.3
				c-0.2,0.7-0.6,1-1.3,0.9c-0.8-0.1-1.6-0.3-2.3-0.5c-0.6-0.2-1-0.1-1,0.7c0,2-0.1,4.1-0.1,6.1c0,1.7,0,3.4-0.6,4.9
				c-1-0.1-1.9-0.2-2.8-0.2c-0.1,0.8-0.2,1.3-0.3,1.9c-1.6-0.7-1.6-0.9-1.6-2.4c0-3.5,0-7,0-10.6c-0.3,0.3-0.7,0.6-1,0.9
				c-1.2,1-2.3,2.1-3.6,3c-0.6,0.4-1.3,0.7-2.1,0.8c-1.6,0.2-2.8-0.7-3.2-2.2c-0.6-2.4-0.1-3.9,2.1-5.1c1-0.6,2.1-1.1,3.3-1.7
				c-0.4-0.2-0.7-0.4-0.9-0.6c-1-0.7-2-1.3-2.8-2.2c-1.2-1.2-1.1-2.6,0.2-3.8c0.5-0.5,1.1-0.9,1.7-1.3c-1.6-0.8-2.4-2.1-2.2-3.9
				c0.2-1.9,1.8-2.3,3.2-2.6c-0.4-1-0.9-1.9-1.3-3c-2.5-0.5-2.9-4.5-1-6.3c-0.2-0.2-0.4-0.5-0.6-0.7c-1.8-1.8-1.3-4.1,1.2-4.7
				c1.9-0.4,4-0.4,5.9-0.6c0.7-0.1,1.3,0,2.2,0c0.1-8,0.8-12.2,0.9-23c0-0.5,0-0.9,0-1.4c-0.9-0.1-0.8-0.2-1.6-0.2
				c-5.2,0.3-10.4,0.6-15.7,0.9c-1.7,0.1-3.4,0.3-5.2,0.3c-0.4,0-1-0.2-1.3-0.5c-6.2-5.5-12.4-11.1-18.5-16.6
				c-0.4-0.3-0.7-0.9-0.7-1.4c-0.9-11.5-1.7-23-2.7-34.5c0-0.3,0-0.6,0-0.8c0-1.8,0.6-3.3,1.8-4.8c6.2-7.9,12.3-16,18.4-24
				c0.5-0.7,1.1-1,2-1.1c7.1-0.5,14.3-1.1,21.4-1.7c6-0.5,11.9-0.9,17.9-1.3c0.5,0,1.2,0.2,1.7,0.6c5,4.3,9.9,8.8,14.9,13.1
				c2.1,1.8,4.2,3.6,6.2,5.4c0.4,0.3,0.7,1,0.7,1.5c0.6,6.5,1.2,13.1,1.7,19.6c0.6,8,1.1,16,1.7,24.1c0.1,0.9-0.2,1.5-0.8,2.1
				c-6.3,5.5-12.6,11-18.8,16.5c-1,0.9-2.2,1.5-3.6,1.4c-2.5,0-5,0.2-7.5,0.3c-0.8,0-5.1,0.1-6.1,0.2c0,0-0.1,0-0.1,0
				c0,0.6,0,1.3-0.1,1.9C74.2,91.3,74.2,91.4,74.2,91.4z"/>
			<path fill="none" stroke="#000000" stroke-miterlimit="10" d="M64.8,147.9c0.9-0.8,1.8-1.5,2.9-1.9c0.6-0.2,1-0.1,1.6,0.1
				c1.3,0.5,2.8,1,4.2,1.2c1.3,0.2,1.8-0.4,1.9-1.6c0.1-1.1,0-2.2-0.1-3.3c0-0.6-0.1-1.1-0.2-1.8c3-0.2,5.8-0.4,8.7-0.5
				c4-0.2,7.9-0.3,11.9-0.4c4.7-0.1,9.4-0.3,14.1-0.4c0.4,0,0.9,0,1.3,0.2c0.5,0.2,1,0.5,1.5,0.8c0,0.1-0.1,0.2-0.1,0.3
				c-0.4,0.1-0.7,0.2-1.1,0.2c-4.2,0.2-8.3,0.3-12.5,0.4c-0.6,0-1.1,0.1-1.6,0.5c-4.4,3.7-8.9,7.3-13.3,11c-3.7,3.2-7.3,6.5-11,9.7
				c-1.3,1.1-2.2,2.5-2.8,4.1c-1.5,3.9-0.3,7.3,1.9,10.4c2.7,3.9,6.4,6.6,10.5,8.7c1.1,0.5,2.2,1,3.3,1.3c5.3,1.1,10.6,1.4,16,1.1
				c5.1-0.3,10.2-1,14.8-3.5c2.9-1.6,5.7-3.2,8.5-4.9c1.6-1,3-2.3,4.4-3.6c1.7-1.6,3-3.4,3.7-5.6c0.7-2.2,0.3-4-1.3-5.7
				c-1.5-1.6-3.2-2.8-5.2-3.6c-0.4-0.2-0.8-0.3-1.3-0.4c-0.6,1.5-1.2,3-1.7,4.4c-0.3-0.4-0.4-0.7-0.3-1.1c0-0.5,0.1-0.9,0.2-1.4
				c0.3-1.8,0.5-3.6,0.8-5.4c0.1-0.5-0.1-0.8-0.7-0.8c-1.1-0.1-1.8,0.1-2.2,1.3c-0.3,0.8-0.8,1.5-1.7,2c0-0.3,0.1-0.4,0.1-0.6
				c1.1-4.5,2.1-8.9,3.1-13.4c1.4-6.1,2.6-12.1,4-18.2c0.2-1.1,0.3-2.3,0.8-3.3c3.3-5.7,7.5-10.8,11.8-15.7c0.3-0.3,0.6-0.6,1-1
				c-2-0.4-3.8-0.7-5.6-1c-0.3,0-0.7,0.2-0.9,0.4c-0.9,1-1.8,2.1-2.6,3.1c-6.3,7.6-13.6,14-21.6,19.7c-1.5,1.1-2.8,2.6-4.4,4
				c0.6,0.1,0.9,0.2,1.3,0.2c1.4,0.1,2.8,0.1,4.2,0.2c0.7,0.1,1.5,0.2,2.2,0.4c0.3,0.1,0.4,0.4,0.7,0.6c-0.4,0.2-0.6,0.3-0.8,0.3
				c-4.2,0.1-8.3,0.1-12.5,0.2c-7.4,0.2-14.7,0.3-22.1,0.5c-0.4,0-0.9,0.4-1.3,0.6c-0.4,0.2-0.7,0.4-1.1,0.6c0-0.5-0.2-0.9-0.1-1.4
				c0.2-0.7,0.6-1.4,0.8-2.2c0.3-1,0.7-2,0.9-3c0.4-1.8-0.4-2.6-2.1-2.1c-2.2,0.6-4.3,1.5-6.5,2.3c1.1,0.6,2.2,1.1,3.3,1.6
				c0,0.1-0.1,0.2-0.1,0.3c-0.2,0-0.4,0-0.6-0.1c-2-0.4-3.9-0.8-5.9-1.1c-1.4-0.2-2.8-0.1-4.3-0.1c-0.7,0-1.3,0.5-1.4,1.3
				c-0.1,0.8,0.2,1.4,0.9,1.7c0.6,0.3,1.2,0.5,1.8,0.7c1,0.3,1.9,0.4,2.9,0.7c0.5,0.2,1,0.6,1.4,1c0.4,0.5,0.1,1-0.6,0.9
				c-0.6-0.1-1.2-0.1-1.6-0.3c-1.3-0.7-2.4-0.3-3.5,0.3c-1.7,0.9-1.9,2.3-0.3,3.4c1,0.8,2.2,1.2,3.4,1.8c0.8,0.4,1.7,0.7,2,1.7
				c-0.5,0.2-0.9,0.3-1.3,0.4s-0.8,0.3-1.1,0.5c-1.3,0.6-2.7,1.1-4,1.8c-1.3,0.7-1.5,1.9-0.9,3.2c0.3,0.6,0.8,1,1.5,0.6
				c1.2-0.8,2.3-1.7,3.4-2.7C64.2,148.4,64.5,148.1,64.8,147.9z"/>
			<path fill="none" stroke="#000000" stroke-miterlimit="10" d="M74.3,87.4c3.6-0.2,7.1-0.4,10.7-0.5c2.4-0.1,4.2-0.8,5.8-2.5
				c0.4-0.4,0.8-0.8,1.3-1.2c5.5-4.8,11-9.6,16.4-14.4c0.4-0.3,0.7-1,0.6-1.5c-0.4-5.4-0.8-10.7-1.2-16.1c-0.5-6.5-1.2-13-1.7-19.5
				c0,0,0.1,0,0.1,0c-0.1-1.6-0.2-3.2-0.4-4.8c-0.1-0.6-0.4-1.4-0.9-1.8c-2-1.9-4.2-3.7-6.2-5.5C94.4,15.8,90.2,12,86,8.2
				c-0.4-0.3-0.9-0.6-1.4-0.6c-2.3,0.1-4.5,0.3-6.8,0.4c-10.6,0.8-21.1,1.5-31.6,2.2c-0.8,0.1-1.4,0.3-1.9,1
				c-3.1,4.1-6.2,8.3-9.4,12.4c-3.1,4.1-6.3,8.3-9.4,12.4C25.3,36.5,25,37,25,37.5c0,0,0,0,0,0c0.1,1.4,0.3,2.9,0.5,4.3
				c1.1,9.8,2.3,19.7,3.5,29.5c0.1,0.6,0.4,1.2,0.8,1.6c5.4,5.2,10.9,10.3,16.3,15.5c0.5,0.4,1.3,0.7,1.9,0.7
				c7.2-0.4,14.5-0.9,21.7-1.4C71.2,87.5,72.7,87.4,74.3,87.4z"/>
			<path fill="none" stroke="#000000" stroke-miterlimit="10" d="M160.8,54.1c1.4-0.2,2.7-0.3,4.1-0.4c1.8-0.2,3.1,0.8,3.8,2.4
				c0.7,1.5,0.3,3-0.2,4.5c-0.4,1.3-1,2.5-1.5,3.8c1.6-0.1,3.1-0.3,4.6-0.4c0.9-0.1,1.6-0.3,2.4-1c2.6-2.3,5.5-4.3,8.3-6.4
				c2.6-2,5.2-3.9,7.7-6c0.9-0.8,1.6-1.8,2.4-2.8c0.7-0.9,0.7-1.9,0-2.8c-0.7-0.9-1.4-1.8-2.3-2.6c-3.7-3.5-7.9-6.3-12.3-8.9
				c-2.4-1.4-4.9-2.8-7.7-3.5c-1.7-0.4-2.6,0.4-2.5,2.1c0.1,1.7,0.9,3,2.3,4c1.8,1.4,3.7,2.7,5.4,4.3c2,1.8,3.3,4,1.8,6.9
				c1.4,0.8,2.7-0.1,4.2,0c-0.7,1-1.6,1.3-2.6,1.5c-3.2,0.5-5.7-1.2-8.1-2.9c-1.1-0.8-2.1-1.7-3.1-2.6c-0.6-0.5-1.2-1.1-1.8-1.6
				c-4.3-3.4-9.1-5.4-14.6-5.7c-4-0.2-8,0.3-11.9,1.2c-2.1,0.5-4.1,1.2-5.8,2.5c-1.9,1.5-1.7,3.9,0.6,4.8c1.4,0.5,2.9,0.8,4.4,0.9
				c5.5,0.3,10.9-0.7,16.2-1.9c3.5-0.8,6.7-0.7,9.9,0.9c0.2,0.1,0.3,0.2,0.5,0.2c1.1,0.6,1.9,1.4,2.5,2.5c0.6,1.3,0.4,2-0.9,2.6
				c-0.7,0.3-1.5,0.6-2.2,0.7c-1.3,0.3-2.5,0.5-3.8,0.6c-3.8,0.4-7.7,0.5-11.5,0.7c-1.7,0.1-3.5,0.4-5.2,0.8c-1.3,0.3-1.4,1.2-0.3,2
				c1.1,0.9,2.5,1.1,3.9,1.1c3.6,0,7.1-0.9,10.6-1.5C158.9,54.4,159.9,54.2,160.8,54.1z"/>
			<path fill="none" stroke="#000000" stroke-miterlimit="10" d="M96.1,98.7c0.5,0.1,0.8,0.3,1.1,0.3c1.2,0.1,2.3,0.3,3.5,0.3
				c5.9,0.1,11.7,0.1,17.6-0.6c5.2-0.6,10.4-1.2,15.4-2.4c6.1-1.4,12.3-3,18-5.6c0.2-0.1,0.4-0.2,0.7-0.4c-2.3-0.1-4.4-0.4-6.4-1.3
				c-1.8-0.8-3.4-1.9-4.3-3.7c-0.5-1-1.1-1-2-0.9c-4.5,0.8-9.1,1.5-13.6,0.6c-2.5-0.5-4.5,0-6.7,0.9c-2.2,1-4.4,1.9-6.6,2.9
				c-5.1,2.4-10,5-14.6,8.2C97.6,97.5,96.9,98,96.1,98.7z"/>
			<path fill="none" stroke="#000000" stroke-miterlimit="10" d="M151.5,87.8c0.5,0,1.1-0.1,1.6-0.1c0.2,0,0.4,0,0.5-0.1
				c4.1-0.7,7.9-2.3,11.4-4.6c4.1-2.8,7.8-5.8,10.8-9.8c0.7-1,1.3-2,1.8-3.2c0.5-1.2,0.1-2.2-1-2.8c-0.6-0.3-1.2-0.6-1.8-0.7
				c-1.5-0.2-3.1-0.5-4.6-0.4c-8.8,0.4-16.5,3.7-23.3,9.2c-1.4,1.2-2.6,2.6-3.4,4.3c-1.2,2.6-0.6,4.8,1.7,6.4
				C147.2,87.3,149.2,87.9,151.5,87.8z"/>
			<path fill="none" stroke="#000000" stroke-miterlimit="10" d="M135.9,167.5c0.7-0.4,1.2-0.8,1.9-1.1c8.3-4.3,16.6-8.6,24.9-12.8
				c3.8-1.9,7.6-3.8,11.4-5.6c0.5-0.3,0.9-0.2,1.4,0c2.9,1.4,5.8,2.7,8.8,3.9c4.7,1.9,9.3,3.9,14.1,5.7c3.2,1.2,6.5,2.2,9.8,3.3
				c0.4,0.1,0.8,0.1,1.3,0.1c-0.1-0.3-0.1-0.5-0.2-0.6c-0.3-0.4-0.5-0.9-0.8-1.3c-4-4.9-8.4-9.4-13.5-13.2c-1.1-0.8-2.2-1.4-3.6-1.6
				c-3.5-0.4-7-1-10.5-1.3c-3.9-0.4-7.7,0.1-11.2,2c-3.9,2-7.8,4-11.6,6.1c-2.6,1.4-5.1,3-7.6,4.7c-4.8,3.3-9.5,6.6-14.2,9.9
				C135.6,166.2,135.5,166.8,135.9,167.5z"/>
			<path fill="none" stroke="#000000" stroke-miterlimit="10" d="M196.8,128.8c0-0.1,0-0.2,0-0.3c-1.4-0.5-2.9-1.1-4.3-1.6
				c-5.3-1.9-10.7-3.3-16.4-3.1c-3.2,0.1-6.3,0.6-9,2.4c-2.4,1.6-4.9,3-7,4.9c-7.5,6.8-14,14.5-19.3,23.2c-1.8,3-3.9,5.9-5.9,8.9
				c-0.6,0.8-0.4,1.3,0.3,1.8c0.6-0.8,1.1-1.7,1.8-2.5c3.6-4.6,7.5-8.8,11.6-12.9c4.8-4.8,9.7-9.4,15.3-13.2c0.3-0.2,0.5-0.6,0.6-1
				c0.2-0.7,0.4-1.5,0.5-2.2c0.1-0.6,0.5-0.7,1.1-0.6c0.9,0.3,1.9,0.6,2.9,0.7c0.7,0.1,1.5,0.4,2.2,0.2c5.1-1.2,10.3-2.2,15.5-2.8
				C190.1,130.2,193.4,129.4,196.8,128.8z"/>
			<path fill="none" stroke="#000000" stroke-miterlimit="10" d="M202.4,178.6c0.1-0.1,0.2-0.2,0.2-0.3c-0.5-0.6-0.9-1.3-1.4-1.9
				c-3.2-3.8-6.7-7.1-10.5-10.2c-2.6-2.2-5.3-4.3-8.4-5.8c-1.1-0.6-2.3-0.9-3.6-0.8c-2,0.2-3.9,0.3-5.9,0.6
				c-7.8,1.1-15.6,2.7-23.1,4.8c-4.4,1.2-8.6,2.8-12.9,4.2c-0.8,0.3-1,0.7-0.8,1.5c0.3,0,0.6-0.1,0.8-0.1c4.4-0.8,8.7-1.6,13.1-2.4
				c8-1.4,16-2.7,24.1-4c0.8-0.1,1.5,0,2.2,0.5c3.1,1.9,6.3,3.8,9.4,5.6c2.8,1.6,5.6,3.3,8.5,4.8c2.2,1.2,4.5,2.2,6.8,3.3
				C201.4,178.5,201.9,178.5,202.4,178.6z"/>
			<path fill="none" stroke="#000000" stroke-miterlimit="10" d="M177.1,84.5c0.8,0.5,1.5,1.2,2.1,1.8c0.6,0.7,0.9,1.9,1.2,2.8
				c0.1,0.2-0.3,0.5-0.4,0.8c-0.2-0.2-0.5-0.3-0.7-0.5c-0.2-0.3-0.3-0.7-0.5-1.1c-0.9,0.4-1.7,0.9-2.5,1.2
				c-3.4,1.3-6.9,2.6-10.3,3.7c-7,2.2-14.1,3.7-21.4,3.8c-2.5,0-4.7,1.2-7.1,1.8c1.1,0.1,2.2,0.3,3.2,0.3c2.8,0,5.7-0.1,8.6-0.2
				c7.2-0.4,14.3-1.3,21.4-2.8c3.8-0.8,7.6-1.7,11.1-3.7c0.9-0.5,1.8-1.2,2.6-1.9c0.9-0.9,0.9-2.1,0.1-3.1c-0.5-0.6-1.1-1.2-1.8-1.7
				c-1.4-1-2.8-2.1-4.2-3.1c-1.2-0.8-2.3-1.7-3.5-2.5c-0.3-0.2-0.8-0.3-1-0.2c-0.8,0.5-1.4,1.2-2.2,1.8c1.5,0.6,2.8,1.1,4,1.8
				C176.1,83.9,176.6,84.2,177.1,84.5z"/>
			<path fill="none" stroke="#000000" stroke-miterlimit="10" d="M75.6,117.2c0.1,1-0.2,1.8-0.7,2.5c-0.6,0.8-1.2,1.6-1.8,2.4
				c-0.3,0.4-0.7,0.7-0.3,1.4c0.2,0.4-0.1,1.1-0.4,1.5c-0.5,0.6-1.1,1-1.8,1.6c0.2,0.1,0.3,0.3,0.4,0.4c1.1,1.1,1,1.1,2.6,0.6
				c1.1-0.4,2.4-0.8,3.5-0.7c1.1,0.1,1.9-0.4,2.7-1c0.3-0.2,0.8-0.4,1.1-0.3c3.8,0.5,7.6,1,11.4,1.5c4.7,0.6,9.3,1.1,14,1.6
				c1.9,0.2,3.4-0.7,4.5-2.3c-0.1,0-0.2-0.1-0.2-0.1c-6.4-0.7-12.8-1.5-19.2-2.2c-4-0.4-8-0.8-12-1.1c-0.8-0.1-1.1-0.4-1.2-1.1
				c-0.1-0.6-0.2-1.3-0.2-1.9c-0.1-1-0.3-2-0.4-3c-0.1-1.1-0.3-2.1-0.5-3.2c-0.3-1.4-0.9-1.6-2.1-0.8c-2.7,1.9-4.7,4.4-6.4,7.2
				c-0.5,0.8-0.2,1.3,0.5,1.7c0.7,0.4,1.3,0.3,1.8-0.2c0.8-0.7,1.5-1.5,2.2-2.3c0.8-0.8,1.5-1.7,2.3-2.6
				C75.6,116.9,75.6,117,75.6,117.2z"/>
			<path fill="none" stroke="#000000" stroke-miterlimit="10" d="M78.4,134.4c0.4,0,0.7,0.1,1,0.1c2.8-0.1,5.7-0.1,8.5-0.2
				c4.2-0.1,8.3-0.1,12.5-0.3c0.6,0,1.3-0.1,1.8-0.4c1.3-0.8,2.5-1.8,3.7-2.7c0.2-0.1,0.3-0.3,0.6-0.6c-0.6-0.1-1-0.2-1.4-0.2
				c-4.5-0.5-9-1-13.5-1.5c-3.3-0.4-6.5-0.8-9.8-1.1c-0.3,0-0.6,0-0.8,0.2c-0.9,0.8-1.5,1.7-1.5,3c0,0.7-0.3,1.3-0.5,2
				C78.8,133.2,78.6,133.7,78.4,134.4z"/>
			<path fill="none" stroke="#000000" stroke-miterlimit="10" d="M136.5,83.3c1.4-0.3,2.8-0.6,4.3-1.1c0.2-0.1,0.4-0.4,0.5-0.6
				c0.2-0.9,0.4-1.8,0.6-2.9c-1.1-0.4-2.1-0.8-3.3-1.2c0.1,2.4-0.4,3.4-1.8,4c-0.2,0.1-0.4,0.1-0.6,0.2c-1,0.2-2.1-0.1-2.8-0.9
				c-1.2-1.5-1-2.9,0.1-4.4c-3.1-1-13.8-1-15.6-0.2c0,0.2,0,0.3,0.1,0.5c0.1,0.3,0.2,0.6,0.3,0.9c1.1,3.1,3.6,4.6,6.5,5.4
				C128.8,84,132.7,84.1,136.5,83.3z"/>
			<path fill="none" stroke="#000000" stroke-miterlimit="10" d="M142.3,76.5c-0.4-1.7-1.3-3.1-2.6-4.2c-3.8-3.3-8.2-4.5-13.2-4.1
				c-2.3,0.2-4.4,0.9-6.2,2.5c-1.1,1-1.8,2.2-2.2,3.7c4.1-0.7,8.1-0.7,12.1-0.1C134.3,75,138.3,75.8,142.3,76.5z"/>
			<path fill="none" stroke="#000000" stroke-miterlimit="10" d="M166.9,85.1c0.9,1.7,1.7,3.4,2.6,5.1c0.1,0.1,0.4,0.3,0.6,0.2
				c1.9-0.8,3.9-1.4,5.8-2.3c1.2-0.6,1.2-1.1,0.1-2c-1.6-1.3-3.6-2-5.6-2.5c-0.2,0-0.4,0-0.5,0C169,84,168,84.5,166.9,85.1z"/>
			<path fill="none" stroke="#000000" stroke-miterlimit="10" d="M69.8,115.1c0.4-0.3,0.7-0.5,1-0.8c0.4-0.4,0.9-0.9,0.9-1.3
				c0.1-4.1,0.2-8.2,0.2-12.2c0-0.4,0.2-1.1-0.6-1c-0.7,0.1-1.6-0.3-1.6,0.9c0,4.8,0,9.5,0,14.3C69.7,114.9,69.8,115,69.8,115.1z"/>
			<path fill="none" stroke="#000000" stroke-miterlimit="10" d="M128.2,193.6c-0.1-0.1-0.1-0.2-0.2-0.2c-3.7-2.3-7.3-4.5-11-6.8
				c-0.2-0.1-0.4-0.2-0.6-0.1c-0.9,0.3-1.9,0.6-2.9,1c0.3,0.2,0.5,0.4,0.6,0.5c2.3,1.3,4.5,2.6,6.9,3.8c1.7,0.9,3.6,1.5,5.4,2.2
				C127.1,194.3,127.7,194.2,128.2,193.6z"/>
			<path fill="none" stroke="#000000" stroke-miterlimit="10" d="M66.6,121c-0.4,0-0.8,0-1.2,0c-1.1,0.1-2.2,0.2-3.3,0.2
				c-1.3,0.1-2.3,1.3-2,2.6c0.1,0.4,0.6,1,1,1.1c2.8,0.8,5.6,0.8,8.3-0.3c0.3-0.1,0.5-0.3,0.8-0.5C66.5,123.7,66.2,123.4,66.6,121z"
				/>
			<path fill="none" stroke="#000000" stroke-miterlimit="10" d="M166,85.4c-1.6,0.7-3,1.3-4.5,1.9c-0.5,0.2-0.5,0.5-0.3,0.8
				c0.5,1.2,1,2.5,1.6,3.7c0.1,0.2,0.6,0.4,0.8,0.4c1.2-0.3,2.5-0.7,3.7-1.1c0.2-0.1,0.4-0.4,0.4-0.5
				C167.2,88.9,166.6,87.2,166,85.4z"/>
			<path fill="none" stroke="#000000" stroke-miterlimit="10" d="M66.8,119.4c0.5-0.6,1-1.3,1.7-2.2c-1.6-0.3-3.1-0.7-4.5-0.8
				c-1-0.1-2.1,0.2-3.1,0.5c-0.7,0.2-1.1,0.9-1,1.7c0.1,0.8,0.9,0.8,1.5,0.8C63.3,119.4,65.1,119.4,66.8,119.4z"/>
			<path fill="none" stroke="#000000" stroke-miterlimit="10" d="M155.2,91.3c0.5,0.8,0.9,1.5,1.4,2.1c0.1,0.2,0.4,0.4,0.6,0.4
				c1.4-0.2,2.8-0.6,4.2-0.9c-0.6-1.5-1.2-2.8-1.8-4.2C158.2,89.5,156.8,90.4,155.2,91.3z"/>
			<path fill="none" stroke="#000000" stroke-miterlimit="10" d="M68.6,158.3c0.6-0.4,1.5,0,1.6-1c0.1-2.9,0.2-5.8,0.3-8.6
				c0-0.8-0.5-0.8-1.1-0.9c-0.7-0.1-0.7,0.4-0.7,0.9c0,1.7-0.1,3.4-0.1,5.2C68.6,155.3,68.6,156.7,68.6,158.3z"/>
			<path fill="none" stroke="#000000" stroke-miterlimit="10" d="M62.6,127.6c0,1.1,0.3,1.8,1.1,2c1.8,0.4,3.7,0.2,5.3-0.9
				c0.3-0.2,0.6-0.9,0.4-1.1c-0.2-0.3-0.7-0.6-1.1-0.6C66.4,127.2,64.6,127.4,62.6,127.6z"/>
			<path fill="none" stroke="#000000" stroke-miterlimit="10" d="M84.9,195.8c0,0,0.1,0,0.1,0c-0.4-2.4-0.7-4.9-1.1-7.3
				c0-0.1-0.2-0.3-0.3-0.4c-0.8-0.3-1.6-0.6-2.6-1C82.4,190.1,83.7,192.9,84.9,195.8z"/>
			<path fill="none" stroke="#000000" stroke-miterlimit="10" d="M147.1,95.5c0,0,0,0.1,0,0.1c2.5-0.4,5-0.8,7.6-1.2
				c-0.3-0.8-0.5-1.4-0.8-2.2C151.6,93.3,149.4,94.4,147.1,95.5z"/>
			<path fill="none" stroke="#000000" stroke-miterlimit="10" d="M69.9,91.8c0,0.3,0,0.6,0,1.1c0.6-0.1,1.1-0.3,1.5-0.3
				c0.9-0.1,0.9-0.7,0.9-1.3c0-0.1,0-0.1,0-0.2c0-0.6,1.5-0.1,1.9,0.2c0.1,0.1,0.1,0.1,0,0.1c0,0,0,0,0,0c-0.6,0-1.2-0.1-1.8-0.2
				C71.1,91.1,69.9,90.9,69.9,91.8z"/>
			<path fill="none" stroke="#000000" stroke-miterlimit="10" d="M69.9,98.4c0.4-0.1,0.7-0.2,1.1-0.3c0.4,0,0.8,0,1.2,0
				c0-0.3,0-0.5,0-0.8c0-0.3,0-0.5-0.1-0.8C69.8,96.3,69.6,96.5,69.9,98.4z"/>
			<path fill="none" stroke="#000000" stroke-miterlimit="10" d="M72.4,94.1c-0.1-0.1-0.1-0.2-0.2-0.3c-0.6-0.1-1.2-0.2-1.8-0.1
				c-0.2,0-0.5,0.3-0.6,0.5c-0.1,0.3,0.1,0.7,0.2,1.1c0.3-0.1,0.7-0.2,1-0.3c0.2,0,0.4-0.1,0.6-0.2C71.9,94.6,72.1,94.4,72.4,94.1z"
				/>
			<path fill="none" stroke="#000000" stroke-miterlimit="10" d="M136.1,78.2c0,0.1,0,0.3,0,0.4c0.3,0.3,0.7,0.7,1,0.7
				c0.3,0,0.8-0.4,0.9-0.8c0.2-0.5-0.2-1-0.8-1C136.8,77.6,136.5,78,136.1,78.2z"/>
		</g>
	</g>
	<path fill="none" stroke="#000000" stroke-width="2" stroke-miterlimit="10" d="M148.5,73.4c8.5-2.8,18-2.4,26.3,0.9"/>
</g>
<g>
	<path d="M184.9,101.5c0,0,0.2-0.1,0.6-0.2c0.4-0.1,1-0.3,1.8-0.5c0.4-0.1,0.8-0.2,1.3-0.3c0.5-0.2,0.9-0.3,1.4-0.5
		c0.5-0.1,1-0.3,1.6-0.4c0.6-0.2,1.2-0.4,1.8-0.6c0.6-0.2,1.3-0.3,2-0.6c0.7-0.2,1.4-0.4,2.1-0.6c1.4-0.4,3-0.9,4.5-1.4
		c1.6-0.6,3.2-1.2,4.8-1.8c1.7-0.6,3.3-1.3,5-1.9c1.7-0.7,3.4-1.4,5.1-1.9c1.7-0.6,3.4-1.2,5-1.7c0.8-0.3,1.7-0.5,2.5-0.7
		c0.8-0.2,1.6-0.4,2.4-0.6c0.8-0.2,1.5-0.3,2.3-0.5c0.7-0.1,1.5-0.2,2.1-0.3c0.7-0.1,1.3-0.2,2-0.2c0.6,0,1.2,0,1.8,0
		c0.6,0,1.1,0,1.6,0c0.5,0,0.9,0.1,1.3,0.1c1.6,0.2,2.5,0.3,2.5,0.3s-0.9,0.1-2.5,0.3c-0.4,0.1-0.8,0.1-1.3,0.2
		c-0.5,0.1-1,0.2-1.5,0.3c-0.5,0.1-1.1,0.2-1.7,0.3c-0.6,0.2-1.2,0.3-1.9,0.5c-1.3,0.3-2.7,0.8-4.1,1.3c-1.5,0.5-2.9,1.1-4.5,1.7
		c-1.5,0.7-3.1,1.3-4.7,2.1c-1.6,0.7-3.3,1.5-4.9,2.2c-1.7,0.7-3.3,1.5-5,2.2c-1.7,0.7-3.3,1.3-4.9,2c-0.8,0.3-1.6,0.6-2.4,0.8
		c-0.8,0.3-1.6,0.6-2.4,0.7c-1.6,0.4-3,0.7-4.5,0.9c-0.7,0.1-1.4,0.1-2,0.2c-0.7,0-1.3,0-1.9,0c-0.6,0-1.1-0.1-1.6-0.1
		c-0.5,0-0.9-0.2-1.3-0.3c-0.8-0.2-1.4-0.4-1.8-0.5C185.1,101.6,184.9,101.5,184.9,101.5z"/>
</g>
<g>
	<path d="M219.2,128.4c0,0,0.2,0,0.6-0.1c0.4,0,0.9,0,1.6-0.1c0.3,0,0.7-0.1,1.1-0.1c0.4,0,0.8-0.1,1.2-0.1c0.4-0.1,0.9-0.1,1.4-0.1
		c0.5-0.1,1-0.1,1.5-0.2c0.5-0.1,1-0.2,1.6-0.3c0.5-0.1,1.1-0.3,1.7-0.3c0.6-0.2,1.1-0.3,1.7-0.5c0.5-0.2,1.1-0.4,1.7-0.6
		c1.2-0.7,2.7-1.3,3.8-2c1.1-0.7,2.5-1.5,3.8-2.3c0.7-0.4,1.4-0.8,2.1-1.2l1.1-0.6l1-0.4c0.3-0.1,0.8-0.3,1.2-0.4
		c0.4-0.1,0.8-0.3,1.2-0.3c0.8-0.2,1.6-0.3,2.3-0.4c1.5-0.1,2.9-0.1,4.2-0.2c0.6,0,1.3,0,1.9-0.1c0.6,0,1.2-0.1,1.8-0.1
		c1.1,0,2.2-0.1,3.1-0.1c0.9,0,1.8,0,2.4,0.1c1.3,0.1,2.1,0.2,2.1,0.2s-0.8,0.1-2.1,0.3c-0.7,0.1-1.4,0.3-2.3,0.5
		c-0.9,0.2-1.9,0.5-3,0.7c-0.6,0.1-1.1,0.3-1.7,0.4c-0.6,0.1-1.3,0.2-1.9,0.3c-1.3,0.2-2.6,0.4-4,0.7c-0.6,0.1-1.3,0.3-1.9,0.5
		c-0.3,0.1-0.6,0.2-0.9,0.3c-0.3,0.1-0.5,0.2-0.9,0.4l-1,0.5c0,0,0.1-0.1,0.1,0l0,0l0,0l-0.1,0l-0.1,0.1l-0.2,0.1l-0.5,0.3
		c-0.6,0.4-1.2,0.8-1.8,1.2c-1.2,0.9-2.4,1.7-3.8,2.6c-1.4,0.9-2.6,1.5-3.9,2.2l-0.1,0l0,0l-0.1,0.1l-0.1,0.1l-0.3,0.1l-0.5,0.2
		c-0.4,0.1-0.7,0.3-1.1,0.4c-0.7,0.2-1.4,0.4-2.1,0.6c-0.7,0.1-1.4,0.2-2.1,0.3c-0.7,0-1.3,0-1.9,0c-0.6-0.1-1.2-0.1-1.8-0.2
		c-0.6-0.1-1.1-0.3-1.5-0.4c-0.2-0.1-0.5-0.1-0.7-0.2c-0.2-0.1-0.4-0.2-0.6-0.3c-0.4-0.2-0.8-0.4-1.1-0.5c-0.6-0.4-1-0.7-1.3-0.9
		C219.3,128.6,219.2,128.4,219.2,128.4z"/>
</g>
<g>
	<path d="M199,114.3c0,0,0.2-0.1,0.7-0.2c0.4-0.1,1.1-0.3,1.9-0.4c0.8-0.1,1.8-0.3,2.9-0.4c1.1-0.1,2.3-0.2,3.6-0.3
		c1.3-0.1,2.6-0.3,4-0.6c0.3-0.1,0.7-0.2,1-0.2c0.3-0.1,0.7-0.2,1-0.3c0.3-0.1,0.7-0.2,1-0.4c0.4-0.2,0.8-0.4,1.2-0.5
		c0.8-0.4,1.5-0.8,2.2-1.1c0.8-0.4,1.5-0.8,2.3-1.3c1.6-0.9,3.2-1.7,4.9-2.6c0.9-0.4,1.7-0.8,2.6-1.1l1.4-0.5l1.3-0.4
		c1.7-0.5,3.4-1.1,5-1.7c1.6-0.6,3.2-1,4.8-1.5c1.5-0.5,3-0.7,4.4-1c1.4-0.2,2.7-0.4,3.8-0.4c1.1,0,2.1-0.1,2.9,0
		c1.6,0.2,2.5,0.2,2.5,0.2s-0.9,0.1-2.5,0.3c-0.8,0-1.7,0.3-2.8,0.5c-1.1,0.2-2.3,0.6-3.6,1c-0.6,0.2-1.3,0.5-2,0.7
		c-0.7,0.2-1.4,0.5-2.1,0.8c-1.4,0.6-2.9,1.3-4.5,1.9c-1.6,0.7-3.2,1.4-4.9,2.1c-0.8,0.3-1.6,0.7-2.4,1c-0.8,0.3-1.6,0.8-2.3,1.1
		c-1.6,0.8-3.1,1.8-4.6,2.7c-0.8,0.5-1.6,0.9-2.4,1.4c-0.8,0.4-1.6,0.9-2.4,1.3c-0.4,0.2-0.8,0.4-1.1,0.6c-0.5,0.2-0.9,0.4-1.3,0.5
		c-0.4,0.2-0.9,0.3-1.3,0.5c-0.4,0.1-0.9,0.2-1.3,0.3c-1.7,0.4-3.4,0.4-4.8,0.2c-1.5-0.1-2.7-0.4-3.8-0.7c-1.1-0.3-2-0.6-2.8-0.8
		c-0.8-0.2-1.4-0.5-1.8-0.6C199.3,114.4,199,114.3,199,114.3z"/>
</g>
</svg>
