<?xml version="1.0" encoding="utf-8"?>
<!-- Generator: Adobe Illustrator 17.1.0, SVG Export Plug-In . SVG Version: 6.00 Build 0)  -->
<!DOCTYPE svg PUBLIC "-//W3C//DTD SVG 1.1//EN" "http://www.w3.org/Graphics/SVG/1.1/DTD/svg11.dtd">
<svg version="1.1" id="Layer_1" xmlns="http://www.w3.org/2000/svg" xmlns:xlink="http://www.w3.org/1999/xlink" x="0px" y="0px"
	 viewBox="0 0 288 216" enable-background="new 0 0 288 216" xml:space="preserve">
<g>
	<path d="M141.8,210.8c1.4-0.2,2.7-0.3,4.1-0.5c-0.2-1.3,0.3-2.1,1.8-2.6c2.4-0.7,4.8-1.2,7.2-1.9c2.1-0.7,4.1-1.7,6.2-2.6
		c1.4-0.6,2.7-1.2,4-1.8c-0.1-2.5-0.1-2.5,3-2.5c-2.3-3.6-4.7-7.4-7.2-11c-0.9-1.3-2.3-2.4-3.8-3.1c-0.9-0.5-2.3-0.2-3.4-0.3
		c-1.7,0-3.3-1.4-3-2.8c0.2-0.9,0.5-1.7,0.9-2.5c2-3.4,4.5-6.3,7.8-8.5c1.6-1,3.2-1.5,4.9-0.8c1.9,0.8,2.4,2.6,2.6,4.4
		c0.4,3.8,2,7.1,4.5,9.8c2.4,2.6,5.1,3.2,9.5,1.4c5.3-2.2,8.8-6.2,11-11.5c1.3-3.2,2-6.6,2.5-10c0.3-1.6-0.2-3.3-0.4-4.9
		c-0.5-3.2-1.4-6.4-3.1-9.3c-0.8-1.3-1.7-2.6-2.7-3.7c-0.5-0.6-1.3-0.9-2.1-1.1c-3.6-0.8-7.2-0.5-10.8,0.4c-3.7,0.9-7.3,2-11,2.7
		c-2.7,0.5-5.6,0.8-8.3,0.7c-2.8-0.1-5.5-1.1-7.1-3.7c-1.3-2.1-2.7-4.3-3.8-6.6c-0.7-1.4-0.9-3.1-1-4.7c-0.2-2.8-0.3-5.7,0.5-8.4
		c0.8-2.6,2.3-4.7,4.6-6.3c0.3-0.2,1.1-0.4,1.3-0.2c0.4,0.5,0.9,1.2,0.8,1.8c-0.3,2.2,0,4.3,0.8,6.3c1.2,3.2,2.9,5.9,6.2,7.1
		c0.9,0.3,2,0.5,3,0.4c4.6-0.6,8.9-2.4,13.2-4c2.7-1,5.6-1.7,8.5-1.9c2.8-0.3,5.4,1.1,7.5,2.6c1.6-0.7,3-1.4,4.9-2.3
		c0.6-1.7,1.2-3.9,0.5-6c-1.3-0.2-2.4-0.3-3.6-0.6c-1.3-0.3-1.5-1.1-0.9-2.2c0.6-1.1,1.1-2.3,1.8-3.8c-1.6,0.6-2.9,1.2-4.2,1.7
		c-2.5,1-5.1,2-7.6,2.9c-0.4,0.2-0.8,0.3-1.2,0.3c-2.4-0.1-3-1.7-2-3.4c1.1-1.8,2.4-3.5,3.7-5.2c0.3-0.4,0.6-0.7,0.9-0.9
		c-2.3-0.2-4.5-0.2-6.7-0.6c-5.6-0.9-9-4.3-10.6-9.7c-0.1-0.3-0.5-0.6-0.7-0.9c-0.3-0.5-0.6-0.9-0.9-1.4c-0.2-0.3-0.2-0.6-0.3-0.9
		c-0.1-0.3-0.3-0.6-0.5-1.1c0.5-0.3,1-0.9,1.6-1c3.5-1,7-2,10.5-2.8c2.3-0.5,4.7-0.8,7.1-1.1c1.4-0.2,2.9-0.3,4.6-0.5
		c-0.3-1.2-0.5-2.2-0.8-3.7c0.7,0.7,1.2,1.2,1.6,1.8c1,1.5,1.2,1.7,3.4,0.7c-2.1-2.3-4-4.5-6.2-6.9c-0.4,1.9,1,3.8-0.9,5.6
		c-0.2-1.2-0.4-2.1-0.6-3c-0.1-0.4-0.1-0.9,0-1.3c0.1-0.5,0.2-1.3,0.5-1.4c0.5-0.2,1.2,0,1.8,0c0.3,0,0.5,0.2,1,0.2
		c-0.5-1.2-0.8-2.5-1.5-3.5c-1.4-1.8-1.3-4-1.9-6c-1-3.1-1.2-6.4-2.1-9.5c-1-3.4-1.7-7.1-1.4-10.7c0.1-0.9-0.5-1.8-0.3-2.7
		c0.2-1,1-2,1.5-2.9c0.2-0.4,0.5-0.8,0.5-1.2c0.2-2,1.8-2.9,3.6-1.9c1.2,0.7,2.3,0.7,3.6,0.2c0.3-0.1,0.6-0.1,0.9-0.1
		c1.6-0.1,3.2-0.1,4.8-0.2c0.2,0,0.4-0.1,0.5,0c1.3,1.4,3.1,1.3,4.7,1.7c4.1,1.1,7.4,3.2,10,6.7c0.9,1.2,2.2,2,3.4,2.8
		c1.8,1.3,3.2,2.9,4,5c0.5,1.2,1.3,2.3,2,3.4c1,1.6,1.7,3.6,3.1,4.8c2.2,2.1,2.8,4.7,3.7,7.4c0.1,0.3,0.2,0.7,0.5,1
		c1.3,1.3,1.8,2.9,2.3,4.6c0.1,0.4,0.4,0.7,0.4,0.8c4.5-0.9,8.8-1.9,13.1-2.6c2.6-0.4,3.1,0,4,2.5c0.5,1.3-0.1,1.9-1.5,2
		c-4,0.2-8,0.3-11.9,1.3c-0.7,0.2-1.3,0.2-2.1,0.3c0.3,1.1,0.5,2.2,0.8,3.4c2.2,0.2,4.5,0.5,6.8,0.7c4.9,0.6,9.7,1.1,14.4,2.6
		c1.8,0.6,2.8,1.8,2.2,4.1c-0.2,0.9-0.7,1.2-1.7,1c-5.7-1.3-11.5-2.5-17.2-3.7c-1-0.2-2-0.2-3.1-0.3c0.3,1.5,0.6,2.9,0.9,4.4
		c0.9,3.6,1.9,7.3,1.4,11.1c-0.1,0.5,0.1,1.1,0.2,1.6c0.7,3.2,1.4,6.4,2,9.6c0.2,1.3,0,2.7,0,4c1-0.2,2-0.5,3-0.6
		c1.6-0.2,3,0.4,4.3,1.2c4.7,2.9,8.4,6.8,10.9,11.6c1.1,2.1,2.1,4.2,3.5,6.1c2.1,3.1,4.6,5.8,8.1,7.3c2,0.8,4.1,1.3,6.3,1.1
		c0.3,0,0.5,0.1,1.2,0.2c-1.3,1.6-2.2,3.2-3.5,4.4c-1.3,1.2-2.9,2-4.4,3.1c-2.5,1.8-5.3,2.8-8.4,3c-4.3,0.2-8.4-0.7-12-3
		c-1.4-0.9-2.6-2.2-3.9-3.4c-1.1-1-2.1-1.9-3.3-3c0.5,6.1-0.4,11.8-2.3,17.5c-1.4,4.2-3.4,8.1-5.7,11.9c-1.8,2.9-3.3,5.9-5,8.8
		c-0.9,1.6-1.7,3.3-2.5,5c0.7,0.8,1.5,1.8,2.2,2.8c0.5,0.6,0.8,1.3,0.3,1.7c0.8,0.9,1.4,2,2.3,2.7c0.8,0.6,1.9,0.8,2.9,0.9
		c4.6,0.3,9.3,0.5,13.9,0.8c1.3,0.1,2.4,0.3,2.9,1.8c0.1,0.4,0.9,0.7,1.4,0.8c1.7,0.2,3.4,0.2,5.1,0.3c1.6,0.1,3.1,0.3,4.7,0.6
		c0.4,0.1,0.9,0.3,1.1,0.6c0.3,0.3,0.5,0.8,0.4,1.1c-0.1,0.3-0.7,0.6-1.1,0.6c-4.1,0-8.3-0.1-12.4-0.1c-6-0.1-11.9-0.3-17.9-0.2
		c-3.9,0.1-7.9,0.6-11.8,0.8c-1.5,0.1-2.9-0.2-4.4,0.1c-8.5,1.5-17.2,0.9-25.7,0.9c-3.3,0-6.6-0.3-9.7-1.5c-1-0.4-2.3,0.1-3.5,0.1
		c-3.4,0-6.8-0.1-10.2-0.2c-2.1,0-4.2,0.2-6.3,0.2c-3,0-6-0.1-9-0.2c-2.2-0.1-4.4-0.2-6.6-0.2C141.8,211,141.8,210.9,141.8,210.8z
		 M199.6,161.8c-0.1,0.7-0.2,1.4-0.2,2c-0.9-2.9-1.7-6-2.9-8.9c-1.2-2.9-3.1-5.5-6.1-7.5c2.5,3.4,3.8,7,4.7,10.8
		c0.1-0.3,0.2-0.5,0.4-1c0.2,1.1,0.5,1.9,0.6,2.8c0,1.5-0.1,3-0.2,4.5c-0.3,4.6-1.5,9-3.8,13c-2.3,4-5.2,7.7-9.6,9.7
		c-3.5,1.6-6.3,2.3-10-0.6c-2-1.6-3.5-3.6-4.7-5.9c-0.8-1.5-1.8-1.7-3.1-0.6c-0.3,0.3-0.8,0.5-1.2,0.7c0-0.5,0-0.7,0.2-0.9
		c1.8-1.8,2.2-4.1,2-6.5c-0.1-0.8-0.6-2.2-1-2.2c-1.3-0.1-2.8-0.1-3.9,0.5c-2.7,1.4-4.9,3.6-6.7,6.1c-1,1.4-2,2.8-2,4.8
		c1.7-1.4,3.5-2.8,5.2-4.2c-0.9-0.7-1.3,0.2-1.9,0.6c-0.4,0.2-0.8,0.2-1.3,0.4c0.1-0.4,0.2-1,0.4-1.3c1.6-1.6,3.2-3.2,4.8-4.7
		c0.5,0.3,0.9,0.5,1.3,0.7c-0.5,0.5-0.9,1-1.2,1.4c0.6,0.3,1.4,0.5,1,1.4c-0.3,0.6-0.5,1.2-0.9,1.6c-1.7,1.5-3.5,3-5.5,4.7
		c2.5,0.2,4.5,0.1,6.5-1c0.4-0.2,0.9-0.1,1.5-0.2c-0.4,0.9-0.7,1.5-0.9,2.1c2.6,1.8,2.6,1.8,2.8,2.9c-0.6-0.4-1-0.8-1.8-1.3
		c0.2,0.9,0.1,1.5,0.4,1.9c0.7,1.3,1.3,2.6,2.2,3.7c1.7,2.4,3.3,4.9,5.3,7c2.6,2.8,6.1,4.3,9.6,5.7c2.4,1,4.5,0.4,6.6-1.1
		c-0.6-0.2-1-0.4-1.4-0.6c-2.2-1.1-4.6-1.8-6.4-3.2c-3.5-2.7-6.7-5.7-9.9-8.6c-1-0.9-1.6-2.2-2.4-3.3c0.1-0.1,0.2-0.1,0.3-0.2
		c0.8,1,1.6,2,2.5,2.9c2.3,2,4.7,3.9,7,6c4.3,4,9.4,5.7,15.1,6.2c4.1,0.4,7.8-1.3,11.6-2.3c0.2-0.1,0.5-0.2,0.6-0.4
		c0.4-1.2,1.2-0.8,1.9-0.5c1.1,0.4,2.1,0.9,3.2,1.4c1-1,2-1.9,3-2.9c1.1-1,2.4-1.9,4.1-1.2c0.1,0,0.3,0,0.3,0
		c-0.4-1.3-1-2.5-1.2-3.7c-0.4-3.1,0.4-4.8,4.1-4.9c1.8,0,4.9,2.8,5.3,4.7c0,0.1-0.1,0.2-0.1,0.3c-0.2,0.1-0.3,0.3-0.5,0.4
		c-1.1-1.3-2.1-2.8-3.3-3.9c-1.3-1.2-3.1-0.8-4.2,0.7c-0.9,1.2-0.5,2.4-0.2,3.5c0.6,1.8,1.3,3.5,2.1,5.4c0.9-0.1,2.2,0.4,3-0.2
		c-0.2-0.7-0.2-1-0.3-1.3c-0.3-0.9-0.5-2-1.1-2.5c-1-1-1.5-2.4-0.7-3.5c0.9,1.8,1.8,3.7,2.8,5.7c1.5-1.4,3.1-2.4,3-4.7
		c0-0.2,0.2-0.5,0.4-0.7c0.3-0.5,0.8-1,1.1-1.6c1.9-3.7,3.6-7.5,5.6-11.1c3.1-6,4.2-12.4,4.5-19c0.1-2.7-0.3-5.4-0.8-8.1
		c-0.4-1.9-1.1-3.8-2-5.5c-1.1-1.9-2.5-3.7-3.9-5.4c-1.6-1.9-3.4-3.2-6.2-3.1c-2.6,0.1-4.7,1-6.6,2.7c-2,1.7-4,3.5-5.8,5.4
		c-1.2,1.3-2.1,2.9-3.1,4.3c-0.1-0.3-0.1-0.6,0-0.8c0.9-1.6,1.7-3.3,2.8-4.8c2.1-2.8,4.6-5.4,7.8-7c2.7-1.4,5.6-1.5,8.4-0.2
		c2.9,1.3,4.7,3.8,6.4,6.4c2.8,4.2,5.7,8.2,9.6,11.4c1.7,1.5,3.5,3,5.3,4.3c1,0.7,2.3,1.1,3.5,1.6c-8.5-4-13.3-11.2-17.2-19.3
		c0.8,1.1,1.5,2.3,2.3,3.4c1.9,2.7,3.8,5.4,5.9,7.9c3.4,4,7.7,6.4,12.8,7.6c3,0.7,6.1,1.2,9-0.4c1.8-1,3.6-2.1,5.4-3.2
		c1-0.7,1.9-1.5,2.8-2.3c-3.2,0.1-5.7-1.1-8-2.8c-3.5-2.5-6-5.9-8-9.8c-1.9-3.8-4-7.4-7.2-10.2c-1.4-1.2-2.7-2.4-4.1-3.6
		c-2.2-1.9-3.8-2.7-6.4-1.2c-2.8,1.7-5.4,3.8-8.2,5.8c1.1,0.2,2,0.4,2.9,0.6c0.9,0.2,1.8,0.5,2.7,0.8c0.8,0.3,1.6,0.6,2.5,0.9
		c-0.9,0.2-1.7,0.2-2.4,0c-3.7-1.2-7.5-1.5-11.2-0.6c-2.9,0.7-6.1,1.4-8.6,2.9c-2.4,1.5-4.5,3.8-6.2,6.1c-3.3,4.6-5,10.2-7.1,15.4
		c-0.8,2-1.5,3.9-2.3,5.9c-0.1,0-0.2,0-0.3,0.1c-0.1-0.4-0.3-0.7-0.4-1.1C199.6,163.1,199.6,162.4,199.6,161.8
		c0-0.4,0.1-0.8,0.1-1.2c-0.2-4-1.8-7.5-4-10.8c-3.9-5.8-9.9-7.9-16.3-7c-2.4,0.3-4.9,0.6-7.3,1.1c-3.1,0.6-6.2,1.1-9.2,2
		c-3,0.9-5.9,1.6-9,0.6c-1.6-0.5-3.1-1.3-4.1-2.7c-1.7-2.5-2.6-5.2-3.1-8.1c-0.5-2.8-0.4-5.4,0.1-8.1c0.1-0.7,0.3-1.3,0.5-2
		c0.1,0,0.2,0,0.3,0.1c-0.2,2-0.5,4.1-0.5,6.1c0,3.5,0.5,7,2.2,10.1c1.7,3.2,4.6,4.5,8.1,4.2c2.4-0.2,4.9-0.8,7.3-1.3
		c3.2-0.7,6.5-1.4,9.7-2c2.3-0.4,4.6-0.4,6.8-0.8c3.5-0.6,6.7-0.1,9.5,2.1c1.5,1.2,3.1,2.3,4.8,3.6c-0.1-0.5-0.1-1.1-0.3-1.4
		c-1-1.2-2.1-2.3-3.1-3.5c-0.2-0.2-0.2-0.4-0.5-0.8c1.4,0.7,2.5,1.3,3.6,1.9c0.1-0.1,0.2-0.2,0.3-0.3c-0.4-0.7-0.8-1.4-1.1-2.1
		c0.5,0.1,0.9,0.4,1.2,0.7c0.3,0.3,0.5,0.8,0.8,1.2c1.1-1,1.3-2.1,0.8-4.1c-1.3,0.3-2.6,0.6-3.9,1c-1.6,0.5-3,0-4-1.4
		c-0.6-0.8-0.5-2,0.3-3.4c0.4-0.6,0.7-1.3,0.9-2.1c0.1-0.3-0.2-0.9-0.4-1c-1.6-0.7-3.3-1.7-5-1.8c-4.2-0.3-8.1,1.2-12,2.6
		c-2.6,0.9-5.1,1.8-7.7,2.6c-1.4,0.5-3.1,0.4-4.4,1.2c-1.7,1-3.1,2.5-4.6,3.8c-0.2,0.2-0.5,0.4-0.7,0.6c-0.1-0.1-0.3-0.2-0.4-0.4
		c1.2-1.6,2.5-3.2,3.7-4.8c-6.9-3.5-9-9.4-9-16.3c-2.9,2.6-4,6.1-4.3,9.8c-0.3,4.2,0,8.3,2,12.2c1.5,2.8,3.5,4.6,6.5,5.4
		c3.5,0.9,6.9,0.3,10.3-0.4c5-1.1,10-2.7,15.1-3.2c3.6-0.4,6.9-0.2,10,2c4.7,3.4,7.7,7.9,9.2,13.4
		C199.1,159.9,199.3,160.8,199.6,161.8z M229,90.5c0-0.2,0-0.7-0.2-1.1c-0.5-1.4-1-2.8-1.5-4.1c-0.9-2.2-1.8-4.3-2.7-6.4
		c-0.5-1.1-1-2.1-1.5-3.1c-0.9-2-1.2-4.4-3.2-5.8c-0.1,0-0.1-0.1-0.1-0.2c-1.4-2.3-2.8-4.5-4.3-6.8c-1.2-1.9-2.4-4-4-5.6
		c-1.3-1.3-3.1-2.2-4.4-3.7c-3.5-4.3-8.6-5.5-13.5-6.9c-0.1,0-0.2,0-0.4,0c-1.2,0.1-2.4,0.2-3.6,0.3c-1.9,0.1-3.9,0.2-5.7-0.9
		c-0.3-0.2-0.9-0.4-1.1-0.2c-0.3,0.2-0.4,0.9-0.3,1.2c0.3,0.8-0.1,1.2-0.5,1.7c-0.4,0.5-0.9,1.1-1,1.7c-0.2,1.9-0.3,3.8-0.3,5.7
		c0.1,2,0.5,4.1,0.7,6.1c0.2,2,0.6,3.9,1.8,5.5c0.1,0.1,0.1,0.2,0.1,0.3c0.6,3.4,1.1,6.9,1.7,10.3c0.1,0.4,0.3,0.8,0.5,1.2
		c0.6,1.5,1.2,3,1.7,4.6c0.1,0.2-0.3,0.5-0.5,0.9c1.5,1.6,3.2,3.4,5,5.2c1.7-2.7,3.4-5.2,6-7.1c2-1.4,4-2.8,6.5-3.4
		c0.7-0.2,1.2,0.1,1.8,0.9c-0.8-0.1-1.3-0.4-1.6-0.3c-2.7,1.2-5.3,2.4-7.3,4.6c-1.6,1.7-3,3.7-4.5,5.5c0.1,0.1,0.2,0.2,0.3,0.3
		c1.6-0.2,3.2-0.1,4.5-1.6c0.9-1,2.2-1.6,3.3-2.4c0.3-0.2,0.7,0,1.1,0c-0.3,1.5-2.6,1.3-2.3,3.2c1.4-0.1,2.6-0.2,3.9-0.2
		c3.4-0.1,6.9,0,10.3-0.2c1.4-0.1,2.5,0.2,3.1,1.4c2.1-0.2,4-0.4,6-0.5C225,90.4,227,90.5,229,90.5z M227.7,116.9
		c0,0,0.1-0.1,0.1-0.1c0.2,0.7,0.5,1.3,0.6,2c0.1,1.6,0,3.3,0,4.9c0,0.6,0.3,1.3,0.1,1.8c-0.9,2.1,0.7,4.1-0.1,6.2
		c0.2,0,0.4,0,0.5,0c0.3-3,0.6-6,0.9-9c0.1,0,0.2,0,0.2,0c0,2.7,0,5.5,0,8.6c1.6-1.3,2.9-2.3,4.2-3.4c0.4-0.3,0.7-0.8,0.8-1.2
		c0.4-2.5,0.4-4.9-0.1-7.4c-0.8-3.9-1.7-7.7-1.7-11.7c0-2.2-0.7-4.4-1.1-6.6c-0.3-1.5-0.7-3-1-4.5c-0.2-0.9-0.5-1.5-1.7-1.5
		c-1.2,0.1-2.5-0.2-3.7-0.2c-1.9,0-3.9,0.1-5.7,0.2c-0.2,1.3-0.2,2.4-0.6,3.3c-0.9,2.1-1.9,4.2-3.1,6.2c-1,1.8-2.5,3.4-4.5,4.2
		c-1,0.4-2.1,0.8-3.1,1.2c-2.1,0.7-4.3,0.6-6.4-0.1c-3.9-1.2-6.2-4.1-7.6-7.8c-0.1-0.3-0.4-0.7-0.7-0.7c-1.3-0.2-2.3,0.7-2.4,2.1
		c0.5-0.2,0.9-0.5,1.3-0.7c0.1,0.1,0.2,0.2,0.3,0.3c-0.2,0.4-0.3,0.9-0.6,1.2c-2,1.9-4.1,3.6-6,5.5c-2.3,2.3-4.6,4.8-6.8,7.3
		c-0.7,0.8-1,2-1.5,3c0.1,0.1,0.2,0.3,0.3,0.4c1.2-0.3,2.5-0.5,3.6-0.9c4.8-1.8,9.6-3.7,14.4-5.6c0.7-0.3,1.2-0.3,1.7,0.4
		c-1.2,0.4-2.4,0.9-3.6,1.4c-0.3,0.1-0.8,0.4-0.9,0.7c-0.6,1.6-1.1,3.3-1.8,5.3c0.9,0,1.8,0.1,2.7,0c1.9-0.4,3.8-0.9,5.8-1.3
		c3.6-0.7,6.7-2.5,9.8-4.3c3.3-1.9,6-4.7,8.4-7.7c0.9-1,1.7-2.1,1.2-3.7c-0.2-0.7,0.1-1.4,0.1-2.2c0.2,0,0.3,0,0.5,0
		c0.3,1.6,0.5,3.3,0.9,4.9c0.4,1.6,0.9,3.2,1.4,4.7c-0.1,0-0.2,0.1-0.3,0.1c-0.5-0.9-1.1-1.7-1.7-2.7c-0.7,4-0.5,8-2.3,11.6
		c-1.3,2.6-2.7,5-5,7c-2.8,2.3-6,3.8-9.3,5.2c-1.9,0.9-4,1.4-6.1,1.6c-1.6,0.2-3.1,0.1-4.6,0.7c-0.2,0.1-0.4,0.1-0.9,0.2
		c1.2-1.7,1.9-3.4,1.8-5.4c-1.2,0.6-2.5,1.2-3.1,2.3c-0.9,1.5-1.2,3.2-1.9,4.9c-0.3,0.7,0,1.2,0.7,1.2c0.9,0.1,1.8-0.1,2.7-0.2
		c1.7-0.2,3.4-0.7,5.1-0.5c2.7,0.4,5.3,0,7.9-0.7c5.1-1.4,9.2-4.5,13.2-7.8c1.1-0.9,2.3-1.9,3.4-2.8c-0.6,0.9-1.3,1.7-2,2.5
		c-2.4,2.5-4.8,5-7.9,6.6c-2.2,1.2-4.6,2.2-6.9,3c-1,0.3-1.5,0.6-1.5,1.7c0,0.7-0.3,1.4-0.4,2.2c-0.1,0-0.2-0.1-0.4-0.1
		c0.1-1.1,0.3-2.3,0.4-3.4c-0.1,0-0.3-0.1-0.4-0.1c-0.2,0.8-0.6,1.5-0.6,2.3c-0.2,1.8-0.1,3.6-0.3,5.4c-0.1,0.6-0.5,1.1-0.8,1.6
		c-0.1,0-0.2-0.1-0.3-0.1c0.1-0.8,0.3-1.7,0.4-2.5c0.2-1.7,0.4-3.5,0.5-5.2c0-0.4-0.2-0.8-0.3-1.2c-0.6,0.2-1.2,0.2-1.2,1.1
		c0,1.2-0.1,2.4-0.2,3.6c-0.1,0.7-0.3,1.3-0.4,2c-0.1,0-0.2,0-0.3-0.1c0-0.4-0.1-0.8-0.1-1.3c-0.3,1.5-0.5,3-0.8,4.4
		c-0.1,0-0.2,0-0.3-0.1c0.1-1.9,0.4-3.9,0.4-5.8c0-1.2-0.1-2.4-0.2-3.7c0-0.2-0.3-0.3-0.7-0.7c0,0.6-0.1,1-0.1,1.3
		c0,1.9,0.2,3.8,0,5.7c-0.3,2.8-1.2,5.3,0.8,8c1.2,1.6,1.3,3.8,1.9,5.7c1.3-3,2.6-6.3,4.1-9.5c1.4-3,2.8-6,4.7-8.6
		c3.4-4.6,8-7.3,13.7-8.2c0.9-0.1,1.9-0.3,2.8-0.6c0.4-0.1,0.7-0.7,0.8-1.1c0.1-0.8-0.2-1.8,0.1-2.6c0.7-2.2,0-4.4,0.5-6.6
		C228,120.7,227.7,118.7,227.7,116.9z M208.3,206.7c-1.1-1-2.1-2-3.3-2.8c-1-0.7-2.2-1.6-3.3-1.5c-2.3,0.1-4.6,0.8-7.1,1.3
		c1.4,0.9,2.6,1.5,3.7,2.3c0.3,0.2,0.5,0.8,0.7,1.3c-0.5,0-1,0.1-1.4-0.1c-1.1-0.7-2.2-1.6-3.3-2.4c-0.3-0.2-0.9-0.5-1.2-0.4
		c-4.2,1.4-8.4,2.8-12.6,4.3c-1.1,0.4-2.1,0.9-3.5,1.4c3.3,1.3,6.5,1.5,9.6,1.6c3.9,0.2,7.9,0,11.8,0.1c4.3,0,8.5-0.3,12.7-0.7
		c2-0.2,3.8-1.8,5.9-0.6c4.1-0.6,8.2-1.1,12.2-1.7c0.6-0.1,0.9-0.6,0.4-1c-1.6-1.6-3.3-3.2-4.9-4.8c-0.6-0.6-1.3-0.5-2-0.3
		c-1.6,0.3-3.2,0.6-4.7,0.6c-2.3,0-4.5,0.1-6.8-0.3c-1.4-0.2-2.5-0.4-3.7-1.2c-1.3-0.9-2.6-1.7-4.3-1.7c0.6,1,1.3,2,2.2,2.7
		C206.8,203.8,208.1,204.8,208.3,206.7z M253.5,97.9c0.6-1.2,0.4-1.8-0.9-2.2c-2.9-0.8-5.8-1.6-8.8-2.2c-2.5-0.5-5-0.8-7.5-1
		c-4.3-0.4-8.7-0.8-13-0.9c-2-0.1-3.9,0.3-5.9,0.5c-0.3,0-0.6-0.3-0.9-0.5c-0.3-0.2-0.6-0.6-0.9-0.6c-2.3,0-4.6,0.1-6.9,0.2
		c-4.1,0.2-8.2,0.4-12.2,0.7c-3.2,0.3-6.3,1-9.4,1.4c-1.4,0.2-2.8-0.1-4.2,0.1c-2.9,0.3-5.8,0.7-8.6,1.3c-2.9,0.6-5.7,1.5-8.5,2.5
		c-1.6,0.6-1.6,1.5-0.2,2.6c0.4,0.4,0.8,1,1,1.5c0.7,2.9,2.2,5.2,4.7,6.9c1.8,1.2,3.9,1.7,6,1.8c1.9,0.1,3.9,0.3,5.8-0.1
		c4.2-0.9,6.7-3.9,8.4-7.7c0.2-0.4,0.3-0.9,0.6-1.1c1.9-1.2,3-0.8,4,1.2c0.9,1.8,1.7,3.7,3.5,4.8c3.9,2.6,7.9,2.1,11.8,0
		c2.9-1.6,4.8-4.1,6.4-6.8c0.9-1.5,1.7-3.1,1.8-5c0-0.5,0.9-0.9,1.4-1.3c0.2-0.2,0.6-0.1,0.9-0.1c3.2-0.4,6.3-0.5,9.5-0.1
		c3.3,0.5,6.6,0.9,9.8,1.5C245.1,96,249.3,97,253.5,97.9z M195.2,134.1c1.3-0.2,2.4-0.2,3.4-0.4c3.1-0.5,5.9-1.9,8.6-3.4
		c2.9-1.6,5.6-3.3,7.8-5.9c2.3-2.6,3.6-5.6,3.9-9c0.1-0.9,0-1.8-1.1-2.4c-1-0.5-1.4,0.2-2,0.8c-0.1,0.1-0.2,0.2-0.3,0.2
		c-4,3.1-8.4,5.5-13.1,7c-1.8,0.6-2.9,1.7-3.8,3C196.7,127.1,196.3,130.6,195.2,134.1z M147.4,209c0,0.1,0,0.3,0.1,0.4
		c0.4,0.1,0.8,0.2,1.2,0.2c4.5,0.1,9,0.2,13.5,0.3c3.7,0.1,7.5,0.2,11.2,0.1c1.1,0,2.4,0,3.3-0.6c1.1-0.7,1.8-2,2.7-3.2
		c-0.6-0.5-1.1-1-1.7-1.4c-2.2-1.3-4.4-2.5-6.6-3.8c-1.6-1-3.3-1.6-5.3-1.3c0.3,1.5,0.9,2.7,2.2,3.6c0.8,0.5,1.4,1.3,2,2
		c-0.1,0.1-0.2,0.3-0.3,0.4c-0.3-0.2-0.6-0.4-0.9-0.6c-0.5-0.4-0.9-1-1.4-1.1c-2.5-0.5-4.8-0.6-7.2,0.7c-2.2,1.2-4.6,1.9-7,2.7
		C151.2,208.1,149.3,208.5,147.4,209z M223,198.6c-1.8,2.2-8.7,2-10-0.2c0.9-0.4,1.9-0.7,2.8-1.1c0-0.2,0-0.3,0-0.5
		c-0.9-0.1-2.2-0.6-2.8-0.2c-1.4,1.1-2.5,2.6-3.8,4c5.3,2.2,10.5,1.5,16,0c-0.9-1.3-1.8-2.4-2.6-3.6c-0.5,0.4-0.9,0.6-1.3,0.9
		C222,198.2,222.4,198.4,223,198.6z M245,84.5c0.1-2.1-0.1-2.4-2.1-2.3c-0.9,0-1.8,0.1-2.6,0.3c-3.4,0.7-6.7,1.4-10.1,2
		c-1.1,0.2-1.2,0.8-0.8,1.9C234.5,85.2,239.7,84.3,245,84.5z"/>
	<path d="M220,140.1c-0.6,1.3-1.3,2.6-1.6,3.9c-1,4-1.9,8.1-2.9,12.2c-0.8,3.2-1.6,6.4-2.7,9.5c-1.1,3.3-2.4,6.5-3.8,9.7
		c-1.4,3.6-3.9,6.5-6.6,9.2c-0.8,0.8-1.8,1.6-2.4,2.5c-2.2,3-5.4,4.2-8.9,5.1c-2.5,0.6-4.9,0.6-7.4,0.6c-2.8,0-6.5-1.4-8.1-3.1
		c1.2,0.4,2.3,1,3.5,1.3c6.2,1.1,12.2,0.6,17.6-3.1c5.1-3.5,9.2-8,11.7-13.8c1.8-4.2,3.2-8.6,4.5-13c1.8-5.9,3.2-11.9,4.9-17.8
		c0.4-1.3,1.3-2.3,2-3.5C219.9,140,219.9,140,220,140.1z"/>
	<path d="M227.3,167c0.5-2.3,1-4.4,1.4-6.4c0.2-1.1-0.1-2.6,0.6-3.4c0.9-1.1-0.4-2.4,0.8-3.4c0.3-0.2-0.2-1.4-0.3-2.3
		c0.4,0.2,0.7,0.4,1,0.6c-0.1-0.7-0.2-1.4-0.3-2.1c0.8,0.6,1.3,2.2,1.1,3.2c-0.3,1.8-0.6,3.7-0.9,5.5c-0.5,2.3-1,4.7-1.6,7
		C228.7,166.1,228,166.4,227.3,167z"/>
	<path d="M221.7,181.4c0.7-1.6,1.4-3.1,2.1-4.9c0.1,0.5,0.1,0.9,0.2,1.6c0.7-1.8,1.2-3.2,1.8-4.7c0.1,0.2,0.2,0.4,0.3,0.6
		c0.3-1.2,0.7-2.2,1-3.5c1.1,1,0.8,2.1,0.6,3c-0.4,1.5-1,2.9-1.7,4.2c-0.2,0.3-0.7,0.5-1,0.7c-0.3,0.2-0.5,0.4-0.8,0.7
		c-0.8,0.8-1.5,1.6-2.2,2.4C221.8,181.5,221.7,181.5,221.7,181.4z"/>
	<path d="M203.2,171.9c-0.5,0.4-1,0.9-1.6,1.3c-0.1-0.1-0.2-0.2-0.4-0.3c1.5-2.3,2.9-4.6,4.5-7.1c0.7,1.9-2.7,8.2-5,10.1
		c0.9-1.3,1.7-2.6,2.6-3.9C203.3,171.9,203.3,171.9,203.2,171.9z"/>
	<path d="M192.9,185.3c3.8-1.4,5.9-4.7,8.7-7.4C200.8,180.9,195.3,185.6,192.9,185.3z"/>
	<path d="M208.4,67c-1.4-2.5-2.6-4.7-3.8-6.8c-0.1-0.2-0.3-0.5-0.5-0.7c-1.4-1-2.4-2.3-3.4-3.8c-0.9-1.4-2.5-2.2-3.8-3.3
		c-0.4-0.4-1-0.6-1.3-1c-1.7-1.7-3.8-2.4-6.2-2.1c-0.1,0-0.3-0.1-0.5-0.2c2.9-1.1,5.6-0.2,7.5,2.1c1.1,1.3,2.4,2.4,3.9,3.3
		c1,0.7,1.7,1.4,2.3,2.5c0.4,0.8,1.4,1.3,2,2.1c1.4,1.8,2.7,3.6,3.8,5.5C208.7,65.2,208.4,66.2,208.4,67z"/>
	<path d="M189.3,73.6c-0.8-2.5-1.7-4.9-2.5-7.3c-0.2-0.7-0.6-1.3-0.9-2c-0.5-1.6-1-3.3-1.5-5c-0.3-0.9-0.5-1.8-0.8-2.6
		c-0.5-1.6-1.2-3.2-0.6-4.9c0.3-0.8,0.8-1.1,1.6-0.7c-0.3,0.6-0.9,1.1-0.9,1.7c0,0.5,0.6,1.1,0.7,1.6c0.1,0.5,0,1.2,0.1,1.7
		c0.1,0.4,0.3,0.8,0.4,1.1c0.2,0.7,0.7,1.5,0.4,2c-0.6,1.2,0.1,2.2,0.4,3.1c0.6,1.8,1.3,3.7,2,5.5c0.4,1.1,1,2.3,1.4,3.4
		c0.3,0.7,0.4,1.4,0.6,2.2C189.6,73.5,189.5,73.6,189.3,73.6z"/>
	<path d="M189.7,50.6c2.4-0.8,5.2,0.5,6.4,2.8c0.1,0.2,0.2,0.5,0.4,0.6c2.4,1.7,4.1,4.1,5.7,6.6c1.1,1.8,2.1,3.6,3.1,5.4
		c-0.1,0.1-0.2,0.1-0.3,0.2c-0.7-1.1-1.4-2.3-2.1-3.4c-1.6-2.4-3.3-4.7-4.9-7.1c0,0,0-0.1-0.1-0.1c-1.9-1.6-3.8-3.2-5.8-4.7
		C191.4,50.7,190.5,50.8,189.7,50.6z"/>
	<path d="M194.6,64.5c-1.9-1.4-7.5-12.1-6.8-13.2C190.1,55.8,192.4,60.1,194.6,64.5z"/>
	<path d="M185.9,51.4c1.1,0.3,3,4.4,3.3,6.6C188.2,55.8,187.1,53.7,185.9,51.4z"/>
	<path d="M196,98.9c-2,0.3-4.1,0.6-6.2,1.1c-0.5,0.1-1.2,0.8-1.2,1.3c-0.2,2.6-2.1,4-3.9,5.4c-3.5,2.7-7.6,2.3-11.5,1.2
		c-3.1-0.8-5-3.1-5.5-6.3c-0.1-0.3-0.3-0.7-0.3-1c-0.1-1.3,0.2-2.3,1.6-2.7c3.3-0.9,6.5-2.1,9.9-2.7c4.9-0.9,9.8-1.4,14.7-2.1
		c1.1-0.2,2.2-0.3,3.3-0.4c5.3-0.2,10.6-0.3,15.9-0.5c1.7,0,2.7,1,2.7,2.8c0,3.2-0.7,6.2-3.3,8.4c-2.4,2-5,3.7-8.4,2.8
		C200.1,105.1,197.3,102.9,196,98.9z M170.6,99.9c0.3,0.4,0.5,0.6,0.6,0.8c0.6,1.4,1.6,1.5,2.8,1.1c1.2-0.4,2.1-0.1,2.9,0.7
		c0.6,0.6,3.1,0.7,3.7,0.1c0.2-0.2,0.1-0.6,0.1-0.8c-0.2-0.9-0.6-1.7-0.7-2.6c-0.1-1-0.6-1-1.3-0.9c-0.3,0-0.5,0.1-0.8,0.2
		C175.4,99,173.1,99.4,170.6,99.9z M205.9,97.7c0.5,0,1,0.1,1.4,0c0.8-0.3,1.4-0.2,1.9,0.5c0.5,0.8,0.3,1.5-0.2,2.2
		c-0.3,0.3-0.2,0.9-0.3,1.4c0.1,0,0.3,0.1,0.4,0.1c2.1-1.4,3.9-2.9,4.2-5.7c0.1-0.7-0.1-0.9-0.7-0.8c-2.3,0.2-4.6,0.4-6.8,0.5
		C205.8,96.5,205.8,97,205.9,97.7z"/>
</g>
<g>
	<path d="M20.7,138.6c0-2.5,0-4.6,0-6.6c0-1.2,0.8-1.2,1.4-1.4c6.1-1.8,12.2-3.6,18.3-5.4c0.8-0.2,1.7-0.9,2.1-1.7
		c6.6-10.8,15.9-17,27.8-18.3c13.1-1.5,23.9,3.6,32.4,14.3c0.4,0.5,1.3,0.9,2,0.9c5.2-0.1,10.4-0.3,15.6-0.5c0.2,0,0.4,0,0.9,0.1
		c0,2,0.1,4.1-0.1,6.1c-0.1,0.6-1,1.2-1.7,1.6c-1.3,0.8-2,1.7-2.1,3.5c-0.3,4.2-1.2,8.4-4.4,11.2c-1.7,1.5-2.4,3-2.5,5.4
		c-0.3,3.5-1.3,7-2.1,10.6c3.5,1,7.1,0.7,10.6-0.9c0.7-0.3-2.8,0.4-2.2,0c0.9-0.4,1.2-1.1,1.2-2.1c0-2.7,0.9-5,3.6-5.8
		c1.1-0.3,0.8-1.2,0.7-1.9c-0.2-2.2-0.1-2.9,2-3.1c4-0.6,8.1-1,12.2-1.1c3,0,5.9,0.6,8.9,1c1.3,0.2,1.9,0.9,1.8,2.4
		c-0.4,5.4-0.8,10.9-1.2,16.3c-0.2,3-0.6,6-0.9,9.1c-0.1,1.4-0.8,2.1-1.9,2.2c-3,0.3-5.9,0.8-8.9,0.8c-2.5,0-5-0.3-7.5-0.7
		c-2.2-0.4-2.3-0.7-2.4-3.1c0-0.6-0.2-1.2-0.3-1.8c-4.4,0.7-5.8-0.2-6.4-3.4c-2.7,0.9-1.3,1-4.1,1.3c-3,0.4-6-0.1-9.1-0.1
		c-0.6,0-1.4,0.2-1.7,0.6c-4.7,6.1-10.5,10.4-17.5,13c-0.4,0.1-0.8,0.4-1,0.7c-1.3,2.8-2.5,5.7-3.7,8.6c-0.5,1.3,0.2,2.2,1.5,2.1
		c1.2,0,2.3-0.2,3,1.2c0.1,0.1,0.4,0.2,0.6,0.2c1.4-0.1,2.1,0.7,2.6,2.1c3-1.5,5.8-0.9,8.2,1.2c2.4,2.1,3.4,5,3,8.4
		c0,0.4,0.1,0.9,0.2,1.2c0.8,1.9,0.1,3.2-1.8,3.1c-7.2-0.1-14.4-0.3-21.6-0.3c-8.3,0-16.6,0.2-24.9,0.3c-1.2,0-2.4,0-3.6,0
		c-1.7,0-2.3-1-1.8-2.7c0.2-0.7,0.3-1.5,0.3-2.2c-0.4-5.1,3.5-9.8,8.3-9.9c1,0,2,0.4,3.1,0.7c0.3-1.4,1.2-2.1,2.6-2
		c0.2,0,0.6-0.1,0.7-0.3c0.5-1.2,1.5-1.1,2.4-1c2.1,0.1,2.8-0.7,2.5-3c-0.2-1.1-0.4-2.2-0.7-3.3c-0.7-2.9-2.1-4.8-5.1-5.9
		c-8.1-3.1-14.2-9-18.5-16.9c-0.1-0.2-0.3-0.5-0.4-0.7c0,0-0.1-0.1-0.3-0.2c-4.2,1.8-3.1,1.5-5.4,6.2c0.5,0.3,1,0.6,1.5,0.9
		c2.7,1.7,3.1,4.7,0.9,7c-1.4,1.5-1.3,2.1,0.3,3.2c1.7,1.1,2.1,2.5,1.4,4.6c-0.6,1.6-2.3,2.6-4,2.2c-2.8-0.6-4.7-3-5.3-6.8
		c-0.4-2.7-0.9-3-3.5-1.8c0.1,1.3,0.4,2.5,0.4,3.8c0,1.4-0.5,2.7-1.7,3.4c-1.2,0.6-2.3,0.2-3.4-0.6c-0.3-0.3-0.8-0.5-1.2-0.4
		c-4.1,1.4-7.4-1.8-6.6-6.4c0-0.2,0.1-0.3,0.1-0.5c0.7-2.7,1.8-5.2,2.3-7.9c0.5-2.9,4.2-5.4,7.3-5.4c1.9,0,3.8,0.3,5.6,0.5
		c1.7-2.2,3.3-4.8,5.4-7.1c2-2.2-0.2-0.7,1.9-2.7c0.4-0.4,0.8-1.1,0.7-1.6c-1.3-6.6-1.2-13.1,0.4-19.6c0-0.1,0-0.2,0-0.6
		C32.6,134.8,27,136.6,20.7,138.6z M108.9,145.5c-3.1,0-6.1,0.2-9,0c-4.9-0.4-8.7-2.7-10.6-7.9c-0.7-2-1.2-4.1-1.5-6.2
		c-0.2-1.2-0.6-2.1-1.8-2.1c-1.1,0-2,0.5-2,2c0,0.7-0.2,1.3-0.2,2c-0.9,7.3-4.2,11.6-10.5,13c-2.4,0.5-5,0.4-7.5,0.5
		c-2.2,0.1-4.2-0.7-6-2.1c-3.9-3.2-5.2-7.8-5.7-12.7c-0.3-3.3-0.6-3.6-3.6-3c-0.3,0.1-0.6,0.2-0.9,0.3c-2.6,0.8-5.2,1.7-7.8,2.5
		c-1,0.3-1.5,0.9-1.7,1.9c-1.9,7.6-1.7,15,0.7,22.4c5.5,16.9,20.6,27.6,37.1,25.7c12.7-1.5,21.8-8.8,27.6-21
		C107.7,155.9,108.8,150.8,108.9,145.5z M43.8,124.1c2.5-0.7,4.6-1.5,6.7-1.7c9.2-0.5,18.4-0.8,27.6-1.1c7.4-0.3,14.8-0.5,22.2-0.7
		c0.3,0,0.6-0.1,1.2-0.3c-8.5-10.7-19-15.8-31.8-14.3C58.4,107.3,50.1,113.7,43.8,124.1z M55.2,127.7c0,0.9-0.1,1.6,0,2.3
		c0.5,2.7,0.8,5.6,1.6,8.2c1.4,4.2,4.2,6.9,8.4,7.3c2.3,0.2,4.6,0,6.9-0.3c5.2-0.7,8.7-4,10-9.5c0.4-1.7,0.5-3.5,0.8-5.3
		c0.3-1.6,1.3-2.4,3.2-2.4c1.5,0,2.4,0.9,2.7,2.4c0.4,1.9,0.7,3.9,1.3,5.7c1.1,3.6,3.2,6.2,6.7,7.3c3.8,1.2,7.7,1.3,11.5,0.1
		c1.5-0.4,3-1.5,4.1-2.6c2.5-2.5,3.4-5.9,3.7-9.4c0.2-2,0.2-4.1,0.3-6.2c1.3-0.2,2.5-0.3,3.7-0.5c0-1.4,0-2.5,0-3.8
		c-0.7,0-1.3,0-1.8,0c-3.2,0.1-6.5,0.2-9.7,0.3c-6.9,0.2-13.7,0.5-20.6,0.7c-11.2,0.4-22.4,0.9-33.6,1.3c-3.6,0.1-3.6,0-3.2,3.8
		c0,0.1,0.1,0.2,0.2,0.4C52.5,127.7,53.8,127.7,55.2,127.7z M24.9,169.7c0,0.2,0.1,0.4,0.1,0.7c-1.1,0.2-2.3,0.5-3.4,0.7
		c-3.8,0.8-6.3,4.3-5.9,8.4c0.1,1.9,1.3,3.5,2.8,3.9c1.7,0.4,2.7-0.1,3.9-2c0.3-0.5,0.5-1,0.8-1.4c1.5-2.4,3.7-3.4,6.3-3.3
		c1,0,1.7,0.5,1.9,1.6c0.2,1.1,0.4,2.2,0.7,3.3c0.7,2.4,2.8,4,4.8,3.9c1.4-0.1,2.1-0.9,2.4-2.2c0.3-1.3-0.1-2.2-1.2-2.8
		c-0.2-0.1-0.5-0.3-0.7-0.4c-1.4-1.1-1.4-2.6,0.1-4.1c1.5-1.6,1.7-2.9,0.8-4.3c-1.2-1.7-2.7-2.4-4.7-2.1c-0.4,0.1-0.8,0-1.2,0.1
		c0.8-0.7,2-0.9,2.3-1.6c2.2-4.4,1-4.2,5.1-6.3c0.3-0.1,0.6-0.9,0.6-1.2c-0.6-1.8-1.3-3.5-2-5.4c-4.1,3.1-3.2,3-5.8,7.3
		c-0.8,1.3-1.9,2.6-1.1,4.6c-4.3-3.2-8.4-3.2-12.4,0.2c-1.4,1.2-2,3-1.7,4.5C19.8,170.2,22.2,169.3,24.9,169.7z M124.3,160.9
		c0.3,3.8,0.6,7.6,1.1,11.4c0.1,0.5,0.9,1.1,1.4,1.2c5.2,1.1,10.5,1.1,15.8,0c1-0.2,1.7-0.6,1.6-2c0-1.3,0.3-2.7,0.4-4
		c0.4-4.2,0.8-8.4,1.3-12.8c-4.3,1.6-8.6,1.5-12.9,1.4c-0.8,0-1.2,0.2-1.4,1.1c-0.7,2.5-2.2,3.6-4.7,3.6
		C126.1,160.9,125.4,160.9,124.3,160.9z M104.1,166.3c6.8,1.1,9.2,2.2,14.6-3.2c0,0.3,0,0.7-0.1,1.1c-0.8,2.6,0.4,5.3,4.1,4.6
		c0.9-0.2,1.4-0.7,1.2-1.7c-0.2-1.1-0.3-2.2-0.4-3.4c-0.8,0-1.5-0.1-2.2-0.1c2.6-0.9,2.9-2.1,1.1-4.3c-0.3-0.4-0.4-0.9-0.7-1.6
		c0.4,0,0.5,0,0.6,0c0.1,0.1,0.3,0.1,0.4,0.3c1.2,1.6,2.8,1.8,4.5,1.8c1.6,0,2.7-0.8,3.3-2.4c0.6-1.6,0.3-3-0.7-4.2
		c-1.4-1.8-3.2-2.8-5.2-3.1c-3.6-0.5-6,1.3-5.9,4.8c0.1,2.1-0.9,3-2.3,3.9c-3.7,2.3-3.7,1.2-7.8,0.7c-0.5-0.1-1.2,0.2-1.4,0.6
		C106.2,162.1,105.3,164.1,104.1,166.3z M82.5,205.4c0.4,0.1,0.7,0.4,1.1,0.4c3.3,0.3,6.7,0.7,10,0.8c1.4,0,2.8-0.4,4.1-0.8
		c0.4-0.1,1-0.8,1-1.3c0.6-4.1-3.7-9-7.6-8.6C87,196.4,82.9,200.9,82.5,205.4z M63.9,205.6c-0.9-5-3.7-7.8-7.8-9.3
		c-0.8-0.3-1.8-0.3-2.6-0.1c-3.3,0.8-5.3,3-5.9,6.6c-0.4,2.3-0.1,3,2,3.5C54.3,207.3,59,206.5,63.9,205.6z M22.1,136.8
		c1.9-0.6,3.4-1.1,4.9-1.6c7.2-2.3,14.4-4.7,21.6-7c0.5-0.2,1.2-0.6,1.2-1c0.1-1.1-0.1-2.2-0.2-3.4c-2.4,0.7-4.7,1.4-7,2
		c-6.3,1.9-12.7,3.7-19,5.6c-0.6,0.2-1.3,0.7-1.4,1.2C22,133.9,22.1,135.2,22.1,136.8z M62.4,198.7c0.8,2.2,1.5,4.2,2.3,6
		c0.1,0.3,0.6,0.7,0.9,0.7c2.4,0,4.8-0.1,7.2-0.2c0.4,0,1-0.8,1-1.2c-0.1-3.3-0.3-6.6-0.5-9.9c0-0.5-0.4-1.3-0.6-1.3
		c-2.2-0.1-4.4-0.1-6.9-0.1c0.4,0.7,0.6,1,0.8,1.3c0.9,1.4,0.6,2.4-0.8,3.1C64.5,197.6,63.4,198.2,62.4,198.7z M83.9,198.9
		c-0.6-0.4-1.4-1.3-2.2-1.5c-2.6-0.8-3-1.7-1.4-4.1c0.1-0.1,0-0.3,0-0.5c-2.1,0-4.1,0-6.2,0c0.2,4,0.4,7.9,0.7,11.8
		c0,0.3,0.7,0.7,1.1,0.8c1.5,0.1,3,0.2,4.6,0.1c0.4,0,0.9-0.5,1.1-0.9C82.3,202.7,83,200.9,83.9,198.9z M123.3,147.5
		c-0.3,1.2,0,1.5,1.1,1.8c1.5,0.3,2.8,1,4.3,1.5c0.9,0.3,1.7,0.7,2.6,0.7c4.9,0.1,9.8-0.4,14.8,1.5c0.2-1.9,0.4-3.7,0.6-5.5
		C135.2,149.3,131.6,149.3,123.3,147.5z M123.5,145.9c3.5,2.7,20.1,2.6,23.4-0.1C138.8,143.7,131.1,143.8,123.5,145.9z M82.7,181.9
		c-2.4,0.3-5,0.6-7.5,1c-0.4,0.1-1.1,0.8-1.1,1.2c-0.1,2.1-0.1,4.3,0,6.4c0,0.4,0.5,1,0.8,1.1c1.2,0.1,2.5,0.1,3.8,0
		c0.3,0,0.7-0.4,0.8-0.6C80.6,188,81.6,184.9,82.7,181.9z M65,182.1c0.6,1.8,1.2,3.6,1.7,5.4c0.4,1.3,0.2,3.4,1,3.9
		c1,0.7,2.7,0.2,4.1,0.2c0.1,0,0.2,0,0.3,0c0.3-0.3,0.9-0.6,0.9-1c0.1-2.2,0.1-4.4,0-6.6c0-0.4-0.5-1-0.9-1.1
		C69.8,182.6,67.5,182.4,65,182.1z M74.6,208.2c-0.2-1.1-0.2-2.2-1.5-2.1c-3.7,0.3-7.4,0.5-11.1,0.9c-4.6,0.5-9.1,1.6-13.7,0
		c-0.3-0.1-1.2,0.5-1.1,0.6c0.1,0.6,0.4,1.3,0.8,1.8c0.1,0.2,0.7,0.1,1.1,0.1c7-0.2,13.9-0.5,20.9-0.8
		C71.4,208.5,72.9,208.3,74.6,208.2z M130.6,152.3c0.4,0.8,0.7,1.2,0.8,1.7c0.2,1.5,1.1,1.8,2.4,1.7c2.4-0.2,4.8-0.2,7.2-0.4
		c1.5-0.2,2.9-0.7,4.4-1c0-0.3-0.1-0.5-0.1-0.8C140.5,152.1,135.7,151.8,130.6,152.3z M75.2,206c0.2,1.1,0.2,1.7,0.3,2.4
		c5.8,0.2,11.5,0.4,17.1,0.6c1.8,0.1,3.6,0.1,5.3,0c0.4,0,0.8-0.9,1.2-1.3c-0.4-0.2-0.9-0.8-1.2-0.7c-3.8,1.3-7.7,0.7-11.5,0.3
		C82.7,206.8,79.1,206.4,75.2,206z M86.1,194.3c-0.9,0.4-1.8,0.6-2.4,1.2c-0.4,0.4-0.4,1.3-0.6,2c0.8,0.1,1.5,0.5,2.2,0.4
		c0.5-0.1,1-0.6,1.4-1c0.3-0.4,0.7-1.1,0.6-1.5C87.2,194.9,86.6,194.7,86.1,194.3z M60.4,194.3c-0.6,0.4-1.1,0.6-1.5,1
		c-0.2,0.2-0.1,0.9,0.1,1.1c0.7,0.6,1.4,1.3,2.2,1.5c0.5,0.2,1.5-0.2,1.9-0.6c0.2-0.3,0-1.4-0.4-1.8C62.1,195,61.2,194.7,60.4,194.3
		z M81.3,196.7c0.5-0.4,0.8-0.6,1.1-0.9c0.5-0.4,0.9-0.9,1.3-1.4c0.2-0.3,0.5-0.7,0.4-0.9c-0.1-0.3-0.6-0.6-0.8-0.6
		c-1,0.3-2.1,0.7-3,1.2c-0.3,0.2-0.5,1.1-0.4,1.4C80.2,196,80.8,196.3,81.3,196.7z M61.8,193.7c0.7,0.9,1.4,1.8,2.2,2.4
		c0.4,0.3,1.2,0.2,1.7,0c0.3-0.1,0.7-1,0.6-1.1c-0.7-0.7-1.4-1.5-2.2-1.9C63.3,192.7,62.4,192.7,61.8,193.7z M23.8,184.1
		c0.1,0.2,0.3,0.4,0.4,0.6c0.7-0.4,1.6-0.6,1.9-1.2c0.6-0.9,1.1-2,0.3-3.2C24.6,181,24.1,182.4,23.8,184.1z"/>
	<path d="M94.4,165.5c-4.5-0.6-8.9-0.6-13.1,1.3c-4.2,1.9-7.4,5.1-9.6,9.6c-11.2-3.8-17.1-12.8-20.7-24.2c-0.8,0.6-1.4,1.2-2.1,1.7
		c0.7-3.5,5.1-5.7,9.7-4.8c-1.3,0.4-2.3,0.7-3.3,1c15.3,10.8,29.9,9.9,43.7-3.4c0.1,0.2,0.2,0.4,0.2,0.5c-0.3,0.4-0.5,1-0.9,1.3
		c-1.3,1.2-2.7,2.4-4.1,3.4c-0.9,0.7-1.2,1.4-1.2,2.5c0,1.7,0.4,4-0.4,5c-0.7,0.9-2.9,0.5-4.5,0.7c-1.9,0.2-3.7,0.4-5.6,0.7
		c-0.4,0.1-0.9,0.6-1,1c0,0.3,0.5,0.8,0.8,1.1c2.7,2.1,5.9,1.4,8.9,1.5c1,0,2,0.2,3,0.4C94.4,165,94.4,165.2,94.4,165.5z M84,164.8
		c-2.7-2-6.3-2-8.1-0.1c0.4,0.3,0.8,0.6,1.2,1c0,0.2-0.1,0.3-0.1,0.5c-2.4-0.9-4.8-0.9-7.1,0c-2.4,0.9-4.2,2.6-6.2,5
		c2.6,1.4,5,2.8,7.5,4.2C74.2,169.8,78.4,166.4,84,164.8z M59.4,162.4c0.8-0.1,1.6-0.2,2.3-0.5c0.4-0.2,0.8-0.8,0.8-1.3
		c0-1.2-0.3-2.3-0.3-3.5c0-1.4-0.6-2.1-1.8-2.6c-1.3-0.6-2.5-1.5-3.7-2.1c-0.6-0.3-1.5-0.3-2,0c-1.8,1.3-1.9,2-1.1,4.2
		c0.4,0.9,0.8,1.7,1.2,2.6C55.6,161.3,56.5,163.5,59.4,162.4z M62.6,155.9c0.2,1.5,0.2,3,0.5,4.4c0.1,0.4,0.7,1,1.1,1.1
		c1.9,0.1,3.8,0,5.6-0.2c0.4,0,1-0.8,1.1-1.4c0.2-0.8,0.2-1.7-1-1.9C67.6,157.3,65.2,156.6,62.6,155.9z M87.5,159.2
		c1.4-0.1,2.8-0.2,4.1-0.4c0.3-0.1,0.8-0.7,0.8-1.1c0-1.3-0.1-2.7-0.2-4.1c-1.1,0.6-2.1,1.1-3.1,1.5C87,156,86.8,156.5,87.5,159.2z
		 M86.3,156.5c-2,0.5-3.9,1-5.7,1.5c-0.4,0.1-0.6,0.7-0.9,1c0.4,0.3,0.7,0.8,1.1,0.8c1.1,0,2.3-0.2,3.4-0.3
		C86.6,159.5,86.8,159.3,86.3,156.5z M71.7,158.3c-0.3,2.3,0,2.8,1.5,2.6c1.5-0.2,3.1-0.4,4.6-0.7c0.4-0.1,0.7-0.6,1.1-0.9
		c-0.4-0.3-0.8-0.9-1.2-0.9C75.8,158.3,73.8,158.3,71.7,158.3z"/>
	<path d="M47.4,149.9c1.4-3.6,7.7-5.3,10-2.7c-1.6-0.1-3.6-0.6-5.2-0.1C50.4,147.5,48.9,148.9,47.4,149.9z"/>
	<path d="M42.2,154.6c-0.5-0.8-1-1.4-0.9-1.8c0.1-0.4,0.7-0.9,1.1-1c0.2,0,0.9,0.7,0.8,1.1C43.2,153.4,42.7,153.9,42.2,154.6z"/>
	<path d="M45.9,148.9c-0.8,0.5-1.4,1.1-1.8,1.1c-0.5-0.1-0.8-0.8-1.2-1.2c0.5-0.4,0.9-1.2,1.4-1.2C44.6,147.4,45.1,148.2,45.9,148.9
		z M43.4,148.8c0.4,0.2,0.6,0.5,0.8,0.5c0.1,0,0.4-0.4,0.4-0.6c-0.1-0.2-0.4-0.4-0.6-0.5C43.9,148.2,43.7,148.5,43.4,148.8z"/>
	<path d="M44.1,143.1c-0.7,0.5-1.1,1.1-1.5,1.1c-0.3,0-0.7-0.6-1-1c0.3-0.4,0.6-1,1.1-1.1C42.9,142,43.3,142.5,44.1,143.1z"/>
	<path d="M41.2,149.3c-0.4-0.6-0.9-0.9-0.9-1.2c0-0.4,0.5-0.7,0.8-1c0.4,0.3,0.9,0.6,1,1C42.2,148.2,41.6,148.7,41.2,149.3z"/>
	<path d="M74.1,111.5c-1.1-0.2-2.2-0.3-3.2-0.6c-0.4-0.1-0.7-0.6-1-0.9c0.3-0.3,0.6-1,0.9-1c2.2-0.1,4.3-0.1,6.5,0
		c0.3,0,0.6,0.6,0.9,1c-0.3,0.3-0.6,0.8-1,0.9C76.2,111.2,75.1,111.3,74.1,111.5z M77.2,110.3c0-0.2,0-0.4,0-0.6
		c-2.1-0.5-4.3-0.7-6.4,0.1c0,0.2,0,0.4,0,0.5C72.9,110.3,75.1,110.3,77.2,110.3z"/>
	<path d="M80.7,129.7c0,4.5-1,8.5-4.5,11.3c-4.4,3.5-13.3,3.8-16.6-2.8c-1.5-3.1-2.1-6.4-2-9.9c0-1.1,0.6-1.1,1.3-1.1
		c6.4-0.3,12.9-0.6,19.3-0.9c2.4-0.1,2.5-0.1,2.5,2.5C80.7,129,80.7,129.3,80.7,129.7z M62.9,128.1c0,0.2-0.1,0.3,0,0.4
		c2,4.4,4,8.8,6,13.1c0.5,1.2,1.4,0.8,2.3,0.3c-1.9-4.3-3.9-8.4-5.7-12.6C64.8,127.9,64.1,127.6,62.9,128.1z M67.5,127.6
		c0,0.3-0.1,0.5,0,0.6c1.8,4.2,3.6,8.4,5.4,12.5c0.1,0.3,0.6,0.4,1,0.7C73.7,138.9,68.6,128.1,67.5,127.6z"/>
	<path d="M114.1,125.6c0.4,5.3,0.3,10.6-3.9,14.4c-6.5,5.8-16.8,1.7-18.6-7.1c-0.3-1.7-0.4-3.5-0.6-5.2c-0.1-0.9,0.2-1.5,1.2-1.6
		c7.1-0.2,14.2-0.5,21.2-0.7C113.6,125.4,113.7,125.5,114.1,125.6z M104.3,141.1c-2.2-4.6-4.4-9.1-6.6-13.6
		c-0.5-1.1-1.3-0.7-2.2-0.3c0.2,0.5,0.3,0.9,0.4,1.3c1.8,3.8,3.6,7.6,5.3,11.4C101.9,141.5,102.7,141.6,104.3,141.1z M107.4,140.8
		c0.1-0.1,0.2-0.3,0.2-0.4c-2-4.3-4-8.6-6.1-12.9c-0.2-0.3-0.7-0.4-1-0.6c1.8,4.7,3.8,9.1,5.9,13.4
		C106.5,140.6,107,140.6,107.4,140.8z"/>
</g>
<g>
	<path d="M164.3,53.3c-0.2,0.6-0.4,1.2-0.7,1.7c-0.8,1.6-1.8,3.1-3.1,4.4c-1.3,1.3-2.8,2.4-4.4,3.3c-1.3,0.7-2.6,1.1-3.9,1.5
		c-1.2,0.3-2.3,0.5-3.5,0.6c-0.9,0.1-1.8,0.1-2.7,0.2c-0.1,0-0.2,0-0.3,0c0.3,0.4,0.7,0.8,0.9,1.3c0.6,0.9,1,2,1.4,3
		c0.5,1.4,1.1,2.7,2.4,3.6c1,0.7,2.2,0.8,3.4,0.4c0.3-0.1,0.5-0.2,0.8-0.2c-0.2,0.2-0.3,0.5-0.5,0.7c-1.3,1.7-2.9,2.9-4.9,3.7
		c-1.2,0.5-2.4,0.7-3.6,0.9c-1.4,0.2-2.9,0.1-4.3-0.2c-1.4-0.2-2.7-0.6-4-1.1c-0.2-0.1-0.4,0.1-0.4,0.3c0,0.2,0,0.5,0,0.7
		c0.1,2.3-0.2,4.6-1.2,6.7c-0.6,1.2-1.1,2.5-1.3,3.9c-0.4,2.6,0.5,4.7,3,6c0.3,0.2,0.7,0.3,1,0.5c-0.3,0.1-0.5,0.1-0.8,0.2
		c-1.4,0.2-2.9,0.2-4.3,0c-1-0.2-2-0.4-3-0.7c-1.7-0.5-3.2-1.3-4.6-2.4c-1.6-1.2-3-2.5-4.2-4.1c-0.1-0.1-0.2-0.3-0.3-0.4
		c0,0,0,0-0.1-0.1c-0.1,0.2-0.2,0.3-0.3,0.5c-0.7,0.9-1.4,1.9-2.1,2.8c-0.7,1-1.3,2-1.5,3.2c-0.3,1.6,0.4,2.9,1.7,3.9
		c0.1,0.1,0.3,0.2,0.4,0.4c-1.7,0.1-5.2-1-7.6-3.2c-2.1-1.9-3.5-4.3-4.4-7c-0.5,0.4-0.9,0.7-1.4,1.1c-1.1,0.8-2.3,1.4-3.6,1.8
		c-1.1,0.3-2.1,0.5-3.2,0.8c-1.9,0.6-3.6,1.4-4.7,3.1c-0.7,1-0.9,2.2-0.8,3.4c0.1,0.5,0.2,1.1,0.3,1.7c-0.1-0.1-0.2-0.1-0.3-0.2
		c-1.4-1.2-2.4-2.7-3.2-4.4c-0.5-1.1-0.9-2.2-1.2-3.4c-0.5-2.1-0.6-4.2-0.3-6.4c0.2-1.6,0.6-3.2,1.1-4.8c0,0,0,0,0,0
		c0.3-0.8,0.3-0.8-0.4-1.3c-0.1-0.1-0.2-0.1-0.4-0.1c-0.8,0.1-1.5,0.2-2.3,0.3c-1.1,0.2-2.1,0.4-3,1.1c-1.1,0.8-1.7,1.8-1.8,3.2
		c0,0.4,0,0.4-0.5,0.8c-2.5-3.8-2.7-7.8-1.3-11.9c-0.6-0.1-1.1-0.2-1.7-0.3c-1.4-0.3-2.7-0.8-3.8-1.6c-1.1-0.7-2.1-1.3-3.3-1.7
		c-1.1-0.4-2.3-0.5-3.4-0.3c-1.5,0.3-2.6,1.3-3.4,2.5c-0.2,0.3-0.4,0.6-0.5,0.9c0,0-0.1,0-0.1,0c0.1-0.9,0.1-1.7,0.2-2.6
		c0.2-1.5,0.6-2.9,1.1-4.3c0.7-1.7,1.6-3.2,2.8-4.7c1.6-1.9,3.5-3.5,5.7-4.7c1-0.5,2-1,2.9-1.5c0,0,0.1-0.1,0.2-0.1
		c-0.4-0.2-0.8-0.4-1.2-0.6c-1.7-0.8-3-2.1-4-3.7c-0.7-1.1-1.6-2-2.7-2.6c-1-0.5-2-0.7-3.1-0.2c-0.6,0.3-1.2,0.6-1.7,0.8
		c0.3-1.2,1.6-3.6,3.8-5.3c1.1-0.9,2-1.7,6.1-2.8c-0.1-0.4-0.3-0.7-0.4-1.1c-0.2-0.6-0.4-1.3-0.5-1.9c-0.1-0.5-0.3-0.9-0.3-1.3
		c-0.1-0.6-0.2-1.1-0.1-1.7c0.1-0.4,0.2-0.8,0.3-1.2c0-1.5-0.2-3-0.8-4.4c-0.6-1.3-1.5-2.2-2.8-2.7c-0.8-0.3-1.6-0.4-2.5-0.4
		c-0.2,0-0.3,0-0.6,0c0.1-0.1,0.1-0.1,0.1-0.2c1-0.8,2.1-1.3,3.3-1.7c1.4-0.5,2.8-0.8,4.2-1c1.4-0.1,2.8-0.1,4.2,0.1
		c2.6,0.4,5.1,1.3,7.3,2.7c0.8,0.5,1.5,1,2.3,1.5c0,0,0.1,0,0.1,0.1c0,0,0.1,0,0.1-0.1c-0.1-1.3,0.2-2.5,0.3-3.7
		c0.2-1.3,0.1-2.6-0.5-3.7c-0.6-1.2-1.6-1.9-2.9-2.1c-0.2,0-0.5-0.1-0.8-0.2c0.5-0.2,0.9-0.4,1.3-0.6c1.8-0.7,3.7-0.8,5.6-0.6
		c1.5,0.2,3,0.6,4.3,1.3c1.3,0.6,2.4,1.4,3.5,2.4c0.1,0,0.1,0.1,0.2,0.1c0.1-0.3,0.2-0.7,0.3-1c0.6-1.9,1.5-3.7,2.9-5.2
		c0.9-1,1.7-2.1,2.3-3.3c0.7-1.5,1-3.1,0.3-4.7c-0.5-1.1-1.3-2-2.2-2.7c-0.1,0-0.1-0.1-0.2-0.1c0,0,0,0,0-0.1c0.2,0,0.4,0,0.6,0
		c1.2,0.2,2.4,0.5,3.5,1c1.6,0.6,3,1.4,4.3,2.5c2.3,1.8,4.1,4.1,5.4,6.7c0.6,1.3,1.1,2.7,1.7,4c0.2-0.1,0.5-0.3,0.7-0.5
		c0.9-0.6,1.7-1.4,2.5-2.3c0.3-0.3,0.6-0.6,0.7-0.9c0.2-0.7,0.4-1.4,0.2-2.1c-0.2-0.7-0.4-1.4-1-2c-0.1-0.1-0.2-0.3-0.2-0.5
		c0.4,0.2,0.8,0.3,1.2,0.5c1.3,0.6,2.4,1.5,3.5,2.5c0.5,0.5,0.9,1.2,1.3,1.8c0.9,1.3,1.4,2.6,1.9,4.1c0.1,0.3,0.2,0.7,0.2,1.1
		c0,0.2,0.1,0.2,0.3,0.2c2.2-0.9,4.6-1.1,6.9-0.9c1,0.1,2.1,0,3.1-0.3c1.2-0.2,2.2-0.7,3-1.5c0.7-0.7,1.2-1.5,1.4-2.5
		c0.1-0.7,0.2-1.4,0.3-2.1c0.2,0.3,0.4,0.5,0.5,0.8c0.7,1.5,1.3,3.1,1.6,4.7c0.3,1.8,0.4,3.6,0.1,5.5c-0.3,2.2-0.9,4.2-1.8,6.2
		c0,0.1-0.1,0.2-0.1,0.3c0,1.1,0,2.1,0,3.2c0,0.2,0,0.3,0.2,0.3c1.3,0.3,2.5,0.9,3.6,1.6c1.1,0.7,2.3,1.2,3.7,1.2c1,0,1.8-0.4,2.5-1
		c0.3-0.3,0.7-0.6,1.1-0.9c0,2.6-0.7,5-2.1,7.2c-1.4,2.2-3.3,3.7-5.6,5c0.3,0.1,0.5,0.3,0.7,0.4c2.3,1.1,4,2.7,5.4,4.9
		c0.9,1.4,2,2.6,3.4,3.5c1.2,0.7,2.4,1,3.8,0.7c0.9-0.2,1.8-0.6,2.5-1.3C164,53.4,164.2,53.3,164.3,53.3
		C164.3,53.3,164.3,53.3,164.3,53.3z M82.3,38.4c0,0-0.1,0-0.1,0c-0.3,0.8-0.7,1.6-1,2.4c-0.8,2-1.4,4-1.7,6.1
		c-0.2,1.2-0.3,2.5-0.5,3.7c0,0.1,0,0.2,0,0.3c0,0.2,0.1,0.3,0,0.5c-0.1,0.5-0.2,1.1-0.3,1.6c0,0.1,0,0.1,0,0.2
		c0,0.2,0.1,0.3,0.1,0.5c0.1,1.3,0.1,2.6,0.3,3.9c0.2,1.3,0.4,2.5,0.8,3.7c0.4,1.4,0.8,2.8,1.4,4.2c0.5,1.3,1.2,2.5,1.8,3.7
		c1,1.8,2.2,3.5,3.5,5.1c1.9,2.3,4.1,4.3,6.5,6c1.7,1.2,3.4,2.2,5.2,3c1.4,0.6,2.8,1.1,4.2,1.6c1.2,0.4,2.5,0.7,3.7,0.9
		c1.3,0.2,2.7,0.4,4,0.5c3.3,0.3,6.5-0.1,9.7-0.8c1.7-0.4,3.4-0.9,5.1-1.6c1.5-0.7,3-1.4,4.5-2.3c2-1.1,3.8-2.5,5.5-4.1
		c2.2-2,4-4.2,5.6-6.7c1.1-1.7,2.1-3.6,2.8-5.5c0.6-1.6,1.2-3.3,1.5-5c0.3-1.4,0.6-2.9,0.7-4.4c0.1-1.7,0.1-3.4,0.1-5.2
		c0-1.8-0.3-3.5-0.7-5.2c-0.3-1.2-0.6-2.3-1-3.5c-0.6-1.9-1.4-3.7-2.3-5.4c0-0.1-0.1-0.1-0.2-0.1c-0.1,0.3-0.1,0.7-0.3,0.8
		c-0.3,0.2-0.2,0.4-0.2,0.7c0,0,0,0,0,0c-0.1,0.4-0.3,0.7-0.4,1.1c-0.1,0.2-0.2,0.4-0.3,0.6c-0.1,0.7-0.3,1.5-0.8,2
		c-0.6,0.7-1.2,1.4-1.8,2.1c-1,1-2.1,1.9-3.4,2.5c-0.7,0.3-1.4,0.5-2.1,0.7c-0.8,0.2-1.7,0.4-2.5,0.5c-1.2,0.2-2.4,0.1-3.6-0.1
		c-1-0.2-2.1-0.4-3.1-0.6c-1.3-0.3-2.5-0.9-3.6-1.7c-2.6-1.9-4.2-4.4-4.5-7.7c-0.1-0.9-0.5-1.7-1.4-2.1c-1-0.5-2.1-0.5-3.2-0.1
		c-0.5,0.2-1,0.5-1.3,1c-0.2,0.4-0.3,0.9-0.4,1.4c-0.2,1.6-0.8,3.1-1.7,4.4c-2.1,3-5,4.7-8.5,5.4c-0.8,0.1-1.5,0.3-2.3,0.3
		c-1,0.1-1.9,0.2-2.9,0.1c-1-0.1-2-0.4-3-0.5c-1-0.2-1.9-0.6-2.8-1.2c-2.5-1.7-4-4.1-5-7C82.5,39.2,82.4,38.8,82.3,38.4z M144.6,13
		c0,0-0.1,0-0.1,0c0,0.3-0.1,0.5-0.1,0.8c-0.1,0.9-0.5,1.8-1.1,2.5c-1.1,1.4-2.7,1.9-4.4,2.1c-1.3,0.1-2.5,0-3.8,0
		c-1.4,0-2.8,0.1-4.2,0.6c-0.6,0.2-1.3,0.4-1.9,0.6c0-0.1-0.1-0.3-0.1-0.4c-0.1-0.5-0.2-1-0.3-1.5c-0.4-1.1-0.7-2.1-1.2-3.2
		c-0.5-1.2-1.3-2.2-2.3-3c-0.4-0.3-0.7-0.6-1.1-0.9c-0.3-0.3-0.7-0.5-1.1-0.8c0.1,0.4,0.2,0.7,0.2,1.1c0.2,1.1,0.2,2.2-0.6,3.2
		c-1.3,1.6-2.9,2.8-4.5,4c0-0.1-0.1-0.2-0.1-0.3c-0.5-1.8-1.1-3.4-2-5.1c-1.2-2.1-2.6-3.9-4.4-5.5c-1.7-1.5-3.7-2.5-5.7-3.4
		c-0.3-0.1-0.5-0.2-0.9-0.3c0.1,0.1,0.1,0.2,0.2,0.3c0.7,0.8,1.2,1.6,1.5,2.6c0.3,1.2,0.3,2.3-0.2,3.4c-0.5,1.4-1.4,2.7-2.4,3.8
		c-1.4,1.5-2.5,3.2-3.1,5.1c-0.1,0.5-0.3,0.9-0.4,1.4c0,0,0.1,0,0.1,0.1c0.4-0.2,0.9-0.3,1.3-0.5c0.3-0.1,0.5-0.1,0.6,0.2
		c0.1,0.3,0.2,0.3,0.5,0.3c1.4-0.3,2.8-0.7,4.2-0.9c1.2-0.2,2.4-0.3,3.7-0.3c2.4-0.1,4.9,0,7.3,0.4c1.1,0.2,2.3,0.4,3.4,0.7
		c1.3,0.4,2.7,0.8,4,1.4c1.5,0.7,3,1.4,4.5,2.2c1.9,1.1,3.7,2.5,5.4,4c0.1,0.1,0.3,0.2,0.4,0.2c1.7,0.1,3.3,0.2,5,0.4
		c0.9,0.1,1.8,0.2,2.7,0.4c0.8,0.1,0.8,0.2,1.1-0.6c0,0,0-0.1,0.1-0.1c0.6-1.6,1.3-3.3,1.5-5c0.3-1.6,0.3-3.2,0.1-4.8
		c-0.2-1.1-0.5-2.2-0.8-3.3C145.1,14.1,144.8,13.5,144.6,13z M129.4,26.9c-0.5-0.3-0.9-0.5-1.4-0.8c-1.1-0.7-2.3-1.1-3.6-1.3
		c-0.9-0.2-1.9-0.4-2.8-0.6c-0.2,0-0.2-0.1-0.2-0.3c0.2-0.6,0.4-1.1,0.6-1.7c0.1-0.3,0.2-0.7,0.3-1c-0.1-0.1-0.2-0.1-0.3-0.1
		c-1.2-0.3-2.3-0.7-3.5-0.8c-1.6-0.3-3.2-0.4-4.9-0.5c-2.7-0.2-5.4,0.1-8,0.6c-0.8,0.2-1.6,0.4-2.4,0.6c-0.4,0.1-0.3,0.3-0.2,0.5
		c0.2,0.5,0.4,1.1,0.5,1.7c0,0.1,0,0.4-0.1,0.4c-0.5,0.2-0.9,0.3-1.4,0.4c-0.9,0.3-1.8,0.6-2.7,0.9c-1.2,0.5-2.2,1.2-3.2,2.1
		c-0.1,0.1-0.2,0.1-0.4,0.2c0,0-0.1,0-0.1-0.1c0-0.5-0.1-1.1,0-1.6c0.1-0.5,0.3-1,0.4-1.6c-2.2,1.2-4.1,2.6-6,4.3
		c1.8,0.1,3.6,0.1,5.3,0.2c1.4,0.1,2.8,0.2,4.1,0.4c1.3,0.2,2.6,0.4,3.9,0.7c0.7,0.1,1.4,0.4,2.2,0.5c0.8,0.2,1.6,0.5,2.3,0.5
		c2.6,0,5.2-0.1,7.7-0.1c1.3,0,2.4-0.5,3.7-0.8c1.3-0.3,2.5-0.7,3.8-0.9c1-0.2,2-0.4,3.1-0.5c1.7-0.2,3.4-0.3,5.2-0.4
		c0.8,0,1.5,0,2.3,0c0.1,0,0.2,0,0.4,0c0,0,0-0.1,0-0.1c-1.7-1.5-3.6-2.8-5.6-3.8C129,24.7,129.5,25.7,129.4,26.9z M155.5,34.2
		c-0.1,0-0.1,0-0.1,0c0,0-0.1,0.1-0.1,0.1c-0.7,0.9-1.5,1.6-2.6,1.7c-1.3,0.2-2.6-0.3-3.7-1c-0.6-0.4-1.2-0.8-1.8-1.1
		c-0.9-0.5-1.8-0.8-2.8-1c-0.3-0.1-0.6-0.1-0.8,0.2c-0.7,0.6-1.2,1.3-1.5,2.2c-0.1,0.2,0,0.4,0.1,0.5c0.2,0.3,0.4,0.6,0.6,1
		c0.1,0.2,0.2,0.4,0.2,0.6c0.2,0.4,0.4,0.9,0.7,1.3c0.9,2,1.7,4.1,2.2,6.3c0.4,1.6,0.6,3.2,0.8,4.9c0.3,2.6,0.2,5.2-0.2,7.8
		c-0.1,1.1-0.3,2.1-0.5,3.2c-0.3,1.1-0.6,2.2-0.9,3.3c-0.1,0.2,0,0.3,0.2,0.3c1-0.1,2-0.2,3-0.3c1.1-0.1,2.3-0.3,3.4-0.5
		c1.2-0.3,2.3-0.7,3.4-1.2c1.1-0.4,2.2-1.1,3.1-1.8c1.6-1.2,2.9-2.6,3.9-4.3c0.2-0.4,0.4-0.8,0.7-1.3c0,0-0.1,0-0.1-0.1
		c-0.2,0.1-0.4,0.2-0.7,0.4c-1.5,0.9-3.1,0.9-4.7,0.1c-1.2-0.7-2.2-1.7-3-2.8c-0.6-0.9-1.2-1.9-1.9-2.7c-1.2-1.5-2.8-2.6-4.5-3.5
		c-0.5-0.3-1.1-0.5-1.7-0.8C151.3,43.3,154.7,39.9,155.5,34.2z M77.7,54c0-0.3-0.1-0.4-0.1-0.6c0-0.7,0.1-1.3,0.2-1.9
		c0.1-1.5,0.2-3,0.5-4.5c0.3-1.9,0.8-3.7,1.5-5.5c0.6-1.5,1.3-3,2-4.5c0.1-0.2,0.2-0.4,0.1-0.5c-0.2-0.6-0.5-1.2-0.9-1.7
		c-0.5-0.6-1.1-1.1-1.7-1.6c-0.1-0.1-0.2-0.3-0.2-0.4c0-1,0.1-2,0.1-3c0-0.1,0.1-0.2,0.2-0.2c0.4-0.1,0.8-0.3,1.2-0.3
		c1.2-0.2,2.5-0.5,3.7-0.6c1.3-0.2,2.5-0.2,3.8-0.3c0.2,0,0.4-0.2,0.6-0.2c0,0,0-0.1,0-0.1c-0.8-0.5-1.7-1.1-2.5-1.6
		c-1.4-0.9-2.9-1.6-4.5-2.2c-1.2-0.5-2.5-0.8-3.8-0.9c-2.9-0.3-5.6,0-8.3,1c-0.3,0.1-0.6,0.3-0.9,0.4c0.1,0.1,0.3,0.1,0.4,0.1
		c0.6,0.1,1.2,0.2,1.8,0.4c1.7,0.6,2.6,1.9,3.1,3.6c0.5,1.5,0.5,3.1,0.4,4.6c-0.2,2.1,0.3,4.1,1,6c0.2,0.4,0.3,0.8,0.5,1.2
		c-2,0.4-4.1,0.8-5.9,2c-1.7,1.2-3.2,2.6-4.1,4.5c0.4-0.1,0.7-0.3,1-0.4c0.8-0.3,1.6-0.3,2.4,0c1,0.4,1.8,1.2,2.4,2
		c0.5,0.7,1,1.5,1.6,2.3c0.8,1.1,1.9,1.8,3.1,2.5C76.7,53.6,77.2,53.7,77.7,54z M65.1,70.4c0,0,0.1,0,0.1,0c0.1-0.1,0.2-0.3,0.3-0.4
		c0.8-1.1,1.9-1.7,3.3-1.9c0.8-0.1,1.5,0,2.3,0.2c1.2,0.3,2.3,0.9,3.4,1.6c0.8,0.5,1.6,1,2.5,1.3c1.3,0.5,2.7,0.8,4.1,0.9
		c0.2,0,0.3,0.1,0.5,0.1c-0.3,0.8-0.5,1.6-0.7,2.4c-0.2,0.7-0.3,1.4-0.5,2c-0.2,1.3-0.2,2.6,0.1,3.9c0.2,0.7,0.5,1.4,0.8,2.1
		c0.1,0.3,0.3,0.6,0.5,0.9c0,0,0.1,0,0.1-0.1c0-0.1,0-0.3,0-0.4c0.1-1.1,0.5-2,1.4-2.7c1-0.8,2.1-1,3.2-1.2c0.7-0.1,1.4-0.1,2-0.1
		c0.1,0,0.3-0.1,0.4-0.1c-7-6.5-10.8-14.4-11.4-23.9c-0.1,0-0.1,0-0.1,0c-1.7,0.8-3.4,1.8-5,2.9c-2.6,1.7-4.4,4-5.7,6.8
		c-0.6,1.2-1.1,2.4-1.3,3.7C65.3,69.1,65.2,69.8,65.1,70.4z M107,87.5C107,87.5,107,87.5,107,87.5c-5.9-1-11.1-3.3-15.9-6.9
		C91,80.8,91,81,90.9,81.2c-0.5,1.8-1,3.5-1.1,5.4c-0.2,1.9-0.1,3.7,0.3,5.6c0.4,1.9,1.3,3.7,2.5,5.3c0.1,0.2,0.3,0.3,0.5,0.5
		c0.1-0.1,0.1-0.2,0-0.4c-0.3-2,0.4-3.6,2-4.8c1.2-0.9,2.5-1.3,3.9-1.6c0.9-0.2,1.8-0.3,2.6-0.6c1.5-0.4,2.9-1.2,4.1-2.1
		C106.1,88.2,106.5,87.9,107,87.5z M136.6,94.5c-0.2-0.1-0.3-0.2-0.4-0.2c-0.4-0.2-0.8-0.5-1.1-0.8c-1.6-1.4-1.9-3.2-1.5-5.2
		c0.2-1.2,0.7-2.4,1.3-3.5c1-2,1.5-4,1.5-6.2c0-0.2,0-0.3,0-0.5c0,0-0.1,0-0.1,0c-4.3,4.1-9.2,6.9-14.9,8.6c0.1,0.1,0.1,0.2,0.2,0.3
		c0.9,1,1.8,2,2.7,2.9c1.3,1.3,2.9,2.4,4.6,3.3c1.3,0.6,2.6,1.1,3.9,1.3c1.2,0.2,2.4,0.3,3.6,0.2C136.3,94.6,136.4,94.6,136.6,94.5z
		 M137.8,76.5c0.1,0.1,0.2,0.2,0.3,0.2c1.2,0.5,2.4,0.9,3.6,1.1c2,0.3,4.1,0.1,6.1-0.4c1.9-0.5,3.5-1.5,4.9-2.9
		c0.1-0.1,0.2-0.2,0.3-0.4c-0.5,0.1-0.8,0.2-1.2,0.2c-1,0.1-1.9-0.2-2.6-0.9c-0.8-0.8-1.3-1.7-1.7-2.8c-0.4-1.4-0.8-2.7-1.7-3.9
		c-0.4-0.5-0.8-1-1.2-1.6C143.1,69.4,140.8,73.2,137.8,76.5z M120.8,86.8c-4.2,1.1-8.4,1.3-12.7,0.8c1,3.3,2.5,6.1,5.4,8.1
		c1.2,0.8,3.6,1.9,4.2,1.7c0,0-0.1-0.1-0.1-0.1c-0.5-0.5-1-1.1-1.2-1.8c-0.4-1.3,0-2.5,0.8-3.6c0.6-0.9,1.4-1.7,2.1-2.6
		C119.9,88.5,120.4,87.7,120.8,86.8z M89.3,27.3c0.1,0,0.1,0,0.1,0c0,0,0.1-0.1,0.1-0.1c2.1-1.8,4.3-3.3,6.8-4.6
		c0.4-0.2,0.8-0.4,1-0.7c0.5-0.5,0.9-1.1,1.6-1.4c0.3-0.1,0.2-0.2,0-0.3c-0.2-0.2-0.5-0.4-0.7-0.6c-1.9-1.5-3.9-2.6-6.3-3.1
		c-1.7-0.3-3.5-0.3-5.2,0.2c-0.1,0-0.1,0.1-0.2,0.2c0.2,0,0.3,0,0.4,0.1c1.7,0.6,2.6,1.8,2.8,3.6c0.1,1,0,2-0.2,3
		c-0.3,1.1-0.4,2.3-0.3,3.4C89.3,27.1,89.3,27.2,89.3,27.3z M135.4,29.5c-0.9,0-1.8,0-2.6,0c-0.3,0-0.4,0.1-0.6,0.3
		c-0.8,1-1.6,2-2.4,3c-2,2.5-4,4.9-6,7.4c-1.1,1.3-2.1,2.6-3.2,3.9c-0.1,0.1-0.2,0.3,0,0.4c0.4,0.3,0.9,0.6,1.3,0.8
		c0.2,0.1,0.4,0.1,0.5-0.1c0.4-0.5,0.8-1,1.3-1.5c1.9-2.4,3.9-4.7,5.8-7.1c1.5-1.9,3.1-3.8,4.6-5.6C134.7,30.5,135,30.1,135.4,29.5z
		 M102,31c-0.1-0.1-0.2-0.1-0.4-0.2c-0.3-0.1-0.7-0.1-1-0.2c-0.5-0.1-1-0.2-1.5,0.4c-2.8,3.5-5.7,7-8.5,10.5
		c-0.9,1.1-1.7,2.1-2.6,3.2c-0.1,0.2-0.3,0.3,0,0.5c0.5,0.2,0.9,0.5,1.4,0.7c0.2,0.1,0.4,0,0.6-0.2c1-1.2,2-2.5,3-3.7
		c2.5-3.1,5-6.2,7.5-9.2C101,32.3,101.5,31.7,102,31z M119.6,43.7c0.4,0.4,0.4,0.4,0.7,0c0.7-0.8,1.4-1.7,2.1-2.5
		c2.9-3.6,5.8-7.1,8.7-10.7c0.2-0.3,0.5-0.6,0.7-0.9c-0.4-0.1-0.7-0.1-1,0.3c-0.8,1-1.6,2-2.4,3c-1.9,2.4-3.9,4.7-5.8,7.1
		C121.7,41.2,120.6,42.4,119.6,43.7z M98.7,30.4c-0.3,0-0.5-0.1-0.7,0.1c-1.7,2.1-3.4,4.2-5.2,6.3c-1.9,2.3-3.7,4.6-5.6,6.8
		c-0.1,0.1-0.2,0.2-0.2,0.3c-0.1,0.2,0,0.4,0.1,0.5c0.1,0,0.2-0.1,0.3-0.1c0.9-1.1,1.9-2.3,2.8-3.4c0.9-1.1,1.9-2.3,2.8-3.4
		c1.5-1.8,2.9-3.6,4.4-5.4C97.8,31.5,98.2,31,98.7,30.4z M81.4,32.2c0.4-0.1,0.8-0.2,1.2-0.3c0.2-0.1,0.3-0.3,0.4-0.4
		c0-0.1-0.1-0.4-0.3-0.5c-0.8-0.4-1.6-0.5-2.4-0.1c-0.4,0.2-0.5,0.7-0.1,0.9C80.6,31.9,81,32,81.4,32.2z M142.3,31.5
		c0.4-0.1,0.8-0.2,1.1-0.3c0.2-0.1,0.3-0.3,0.3-0.4c0-0.1-0.1-0.4-0.3-0.5c-0.8-0.4-1.6-0.4-2.4-0.1c-0.4,0.2-0.5,0.6,0,0.8
		C141.5,31.3,141.9,31.4,142.3,31.5z"/>
	<path d="M136.7,49.5c0,0.7-0.3,1.2-0.7,1.7c-1,1.3-1.9,2.7-3.1,3.8c-1.6,1.5-3.3,2.8-5.2,3.7c-1.1,0.5-2.2,1-3.3,1.6
		c0.1,0.3,0.2,0.7,0.2,1c0.3,1.1,0.5,2.2,0.8,3.3c0.2,0.6,0.4,1.2,0.6,1.8c0.1,0.2,0.2,0.2,0.4,0.2c0.5,0,1,0,1.4-0.1
		c0.2,0,0.4,0,0.4,0.3c0.1,0.6,0.2,1.1,0.2,1.7c0.1,0.7,0.1,1.3,0.1,2c0,0.3,0,0.7,0,1.1c0.6-0.4,1.1-0.8,1.7-1.2c0,0,0,0,0.1,0.1
		c-0.3,0.3-0.6,0.6-1,0.9c-0.4,0.3-1,0.6-1.2,1.2c-0.1,0.1-0.2,0.2-0.3,0.3c-0.2,0.1-0.5,0.2-0.7,0.3c-0.4,0.2-0.8,0.3-1.2,0.5
		c-0.4,0.2-0.9,0.5-1.3,0.6c-0.4,0.2-0.9,0.3-1.3,0.4c-0.4,0.1-0.8,0.2-1.3,0.3c-0.5,0.1-1,0.3-1.4,0.4c-1.8,0.4-3.7,0.6-5.6,0.6
		c-1.4,0-2.8-0.2-4.2-0.4c-1.7-0.3-3.3-0.8-4.8-1.5c-3.1-1.4-5.8-3.5-7.9-6.1c-1.2-1.5-2.3-3.1-3.1-4.8c-0.7-1.3-1.2-2.8-1.5-4.2
		c0-0.1-0.1-0.3,0-0.5c0-0.7-0.4-1.1-0.9-1.6c-1.5-1.2-2.7-2.7-3.7-4.3c-0.2-0.3-0.4-0.6-0.6-1c-0.8,0.5-1.6,0.9-2.4,1.4
		c-0.1-0.2-0.3-0.6-0.5-0.9c0-0.1,0.1-0.2,0.1-0.2c0.7-0.7,1.6-1,2.5-1.3c1-0.3,2-0.3,3.1-0.2c1.4,0.2,2.6,0.9,3.6,1.8
		c0,0,0.1,0.1,0.1,0.1c-0.8-0.3-1.7-0.6-2.6-0.9c-0.9-0.3-1.8-0.2-2.8-0.1c0.4,0.6,0.7,1.2,1.1,1.7c1.2,1.6,2.5,3.1,4.1,4.3
		c1.4,1.1,2.8,1.9,4.4,2.6c1.1,0.5,2.3,0.8,3.5,1.2c1.1,0.3,2.2,0.5,3.3,0.7c2.3,0.4,4.6,0.4,6.9,0.3c1.3-0.1,2.6-0.2,3.9-0.4
		c1.4-0.2,2.8-0.5,4.2-0.8c1.8-0.4,3.5-1,5.2-1.8c3.2-1.4,6-3.6,8.4-6.2c0.8-0.9,1.5-1.8,2.2-2.8C136.5,49.7,136.6,49.6,136.7,49.5z
		 M115.6,75c1.1-0.1,2.4-0.3,3.8-0.4c0.5-0.1,0.5-0.1,0.4-0.6c-0.1-1-0.3-2-0.4-3.1c-0.1-1-0.3-2-0.4-2.9c0-0.2-0.1-0.3-0.3-0.3
		c-0.6,0-1.1,0-1.7,0c-1.7,0-3.3,0.1-5,0.1c-0.5,0-0.5,0.1-0.5,0.6c0.2,2,0.4,4,0.6,6c0,0.3,0.2,0.4,0.4,0.4
		C113.4,74.8,114.3,74.9,115.6,75z M106.9,67.3c0-1.7,0-3.3,0-4.9c-0.9-0.1-1.7-0.2-2.5-0.4c-0.6-0.1-1.1-0.2-1.6-0.3
		c-0.9-0.2-1.8-0.5-2.6-0.8c-0.1,0-0.3,0-0.3,0.1c-0.2,0.5-0.5,1-0.7,1.5c-0.4,1-0.8,2-1.2,3c0,0.1,0,0.3,0,0.4
		c0.3,0.4,0.6,0.9,0.9,1.3c0.1,0.2,0.3,0.3,0.5,0.2c1.4-0.1,2.9-0.1,4.3-0.1C104.8,67.4,105.8,67.4,106.9,67.3z M120.6,74.3
		c0.2,0,0.3,0,0.4,0c0.7-0.2,1.5-0.4,2.2-0.6c0.7-0.2,1.4-0.4,2.1-0.6c0.5-0.2,1.1-0.5,1.6-0.7c0.9-0.3,0.7-0.2,0.8-1.1
		c0.1-1.2,0-2.4,0-3.6c0-0.3-0.1-0.4-0.4-0.4c-1.2,0.1-2.4,0.1-3.5,0.1c-1.1,0-2.2,0.1-3.3,0.1c-0.5,0-0.5,0-0.5,0.5
		c0,0.2,0,0.3,0,0.5c0.1,0.9,0.2,1.7,0.4,2.6C120.3,72.2,120.5,73.2,120.6,74.3z M117,62.1c0.1,1,0.1,2,0.2,3c0,0.5,0.1,1,0.2,1.5
		c0,0.2,0.1,0.3,0.3,0.3c2-0.1,4-0.1,6.1-0.2c0.4,0,0.7-0.1,1.1-0.1c0.3,0,0.3-0.1,0.3-0.4c-0.1-0.3-0.1-0.6-0.2-0.9
		c-0.3-1-0.5-2-0.8-2.9c-0.2-0.6-0.4-1.1-0.6-1.7c-0.1-0.2-0.2-0.2-0.3-0.2c-0.5,0.2-1.1,0.3-1.6,0.5c-1,0.3-2,0.5-3,0.7
		C118.2,61.9,117.6,62,117,62.1z M116.3,62.2c-2.9,0.3-5.7,0.6-8.5,0.3c0,0.2,0,0.3,0,0.4c0,1.3,0,2.7,0,4c0,0.3,0.1,0.4,0.4,0.4
		c1.7-0.1,3.4-0.1,5.1-0.1c0.9,0,1.9-0.1,2.8-0.1c0.3,0,0.4-0.1,0.4-0.4C116.4,65.2,116.3,63.8,116.3,62.2z M111.3,74.6
		c-0.1-0.7-0.1-1.3-0.2-1.8c-0.2-1.5-0.4-2.9-0.5-4.4c0-0.3-0.2-0.4-0.5-0.4c-1.5,0-3.1,0.1-4.6,0.1c-0.5,0-1,0.1-1.6,0.2
		c0,1.2-0.1,2.3,0.2,3.5c0,0.2,0.1,0.3,0.3,0.4c1.1,0.5,2.2,1.1,3.3,1.5c0.9,0.3,1.8,0.6,2.7,0.8C110.7,74.5,111,74.5,111.3,74.6z
		 M94.3,58.1c0.4,2.5,1.6,4.8,3,6.9c0.6-1.5,1.3-2.9,1.9-4.4C97.4,60,95.8,59.2,94.3,58.1z M99.8,68.4c1,1.1,2.1,2.1,3.4,3
		c-0.1-1.1-0.2-2.2-0.3-3.2C101.9,68.2,100.9,68.3,99.8,68.4z"/>
</g>
</svg>
