<?xml version="1.0" encoding="utf-8"?>
<!-- Generator: Adobe Illustrator 17.1.0, SVG Export Plug-In . SVG Version: 6.00 Build 0)  -->
<!DOCTYPE svg PUBLIC "-//W3C//DTD SVG 1.1//EN" "http://www.w3.org/Graphics/SVG/1.1/DTD/svg11.dtd">
<svg version="1.1" id="Layer_1" xmlns="http://www.w3.org/2000/svg" xmlns:xlink="http://www.w3.org/1999/xlink" x="0px" y="0px"
	 viewBox="0 0 288 216" enable-background="new 0 0 288 216" xml:space="preserve">
<g>
	<path d="M96,207.1c-1.5-0.5-2.8-1.2-3.8-2.4c-0.5-0.7-1.1-1.4-1.4-2.2c-0.4-1-1-1.2-1.9-1.3c-1.5-0.1-3.1-0.3-4.6-0.5
		c-0.2,0-0.4-0.3-0.5-0.5c-0.1-1.1-0.3-2.1-0.3-3.2c-0.1-1.9-0.2-3.7-0.4-5.6c-1-0.4-1.9-0.9-2.9-1.3c0.2,3.3,0.5,6.6,0.7,9.8
		c-1.2,0.2-2.4,0.3-3.5,0.4c-2.4,0.2-4.8,0.9-7.1,1.8c-1.2,0.5-2.5,0.8-3.7,1.3c-0.4,0.2-0.7,0.6-1.1,0.9c-1.1,0.8-2.4,1.2-3.7,1.3
		c-1.9,0.1-3.8,0.3-5.6-0.7c-0.3-0.2-0.8-0.1-1.2,0c-1.6,0.4-3,0-4.5-0.6c-1.1-0.4-2.3-0.7-3.4-1.2c-3-1.2-4.5-4.4-3.5-7.5
		c0.9-2.9,2.9-5,5.5-6.5c2.7-1.5,5.6-2.1,8.7-2.1c3.8,0,7.5,0.6,10.8,2.3c1.8,0.9,3.3,2.2,5,3.3c0.3,0.2,0.6,0.2,1,0.2
		c-10.3-13.9-14.8-29.1-12-46.3c-1.8,0.2-3.6,0.5-5.4,1.2c-2.4,1-4.7,2.3-6.8,3.9c-0.6,0.5-0.8,1-0.8,1.6c-0.2,1.9-1.2,3.5-2.5,4.8
		c-1.1,1.1-2.4,2.1-3.6,3.1c-0.8,0.6-1.6,0.7-2.6,0.3c-2.6-1.1-5.3-2.1-7.9-3.2c-0.1,0-0.2-0.1-0.4-0.2c1.2-1.2,2.5-2.3,2.9-4
		c-2.5-0.6-4.6,0.2-6.6,1.3c-0.3,0.2-0.7,0.5-1,0.6c-0.2,0.1-0.5,0.1-0.7,0c-1.6-0.6-3.2-1.2-4.7-2c-0.6-0.3-1-1-1.3-1.6
		c-1.1-2.1-2.3-4.2-2.5-6.6c-0.1-0.6-0.1-1.1,0.7-1.3c0.4-0.1,0.8-0.4,1.2-0.6c-0.7-0.6-1.4-1.1-2.2-1.7c0.5-3,1.7-5.6,3.9-7.7
		c0.4-0.4,0.8-0.9,1.5-0.5c-0.1-0.3-0.2-0.6-0.3-1c1.3-0.8,2.6-1.7,3.9-2.6c1.1-0.7,2.3-0.7,3.5-0.5c4.2,0.8,7.9,2.8,11.3,5.5
		c1.1,0.9,2.2,1.9,3.4,3c3.3-3.3,7.2-5.9,11.8-7.8c-2.9-2.2-5.8-4.2-7.3-7.6c-0.1,0-0.2,0.1-0.2,0.1c0.6,1.8,1.2,3.5,1.8,5.4
		c-3.3-2.2-5.2-5.5-7.1-8.8c-0.1,0.1-0.2,0.1-0.2,0.2c1.2,2,2.4,4.1,3.6,6.1c0,0-0.1,0.1-0.1,0.1c-0.7-0.8-1.5-1.6-2.2-2.4
		c-0.7-0.9-1.4-1.7-2-2.7c-0.6-0.9-1.2-1.8-1.8-2.8c-0.6-0.9-1.1-1.9-1.7-2.8c-0.1,0-0.2,0.1-0.2,0.1c0.8,1.4,1.4,2.8,2.3,4.1
		c0.8,1.3,1.8,2.6,2.7,3.9c-3.4-1.1-7.6-8.7-8.4-15.2c-0.2,2.2,0.5,7.6,3.7,13.6c-2.8-2.6-4.3-5.8-5.2-9.4c-0.9-3.6-1-7.3-0.8-11
		c-0.1,0-0.2,0-0.3,0c-0.1,1.9-0.2,3.8-0.1,5.7c0,1.9,0.2,3.9,0.3,5.9c-0.5-0.8-1.3-4.4-1.3-5.8c0-2-0.1-4.1,0.2-6.1
		c0.3-2,0.9-3.9,1.3-5.8c-0.8,1-1.6,3.1-2,6.7c-0.2,2.4,0,4.9-0.1,7.4c-1-1.9-1.4-6-0.9-8.9c0.5-3,1.5-5.8,2.8-8.5
		c-1.2,1.7-2.3,3.5-3.5,5.2c-0.1,0-0.2,0-0.2-0.1c0.5-1.8,0.9-3.5,1.4-5.5c-2.9,1.3-5.5,2.5-8.2,3.7c0,0,0-0.1,0-0.1
		c0.2-0.1,0.4-0.2,0.6-0.3c2.6-1.2,5.1-2.4,7.7-3.6c0.2-0.1,0.4-0.3,0.5-0.5c0.9-2.2,2.2-4.1,3.7-5.8c0-0.1,0-0.1,0.1-0.4
		c-0.9,0.6-1.7,1.2-2.4,1.7c1.3-2.8,3.3-5.1,5.5-7.4c-0.2-0.1-0.4-0.2-0.5-0.2c-3.8-0.1-7.6-0.2-11.4-0.1c-2.4,0-4.8,0.3-7.2,0.5
		c-1.4,0.1-2.9,0.3-4.3,0.5c0-0.1,0-0.1,0-0.2c0.5-0.1,1.1-0.1,1.6-0.2c3.4-0.4,6.8-0.8,10.3-1.1c2.2-0.2,4.5-0.2,6.7-0.2
		c1.7,0,3.4,0.1,5.2,0.1c0.3,0,0.7-0.2,1-0.4c0.8-0.7,1.6-1.5,2.4-2.2c0.8-0.8,1.6-1.6,2.5-2.5c-3.3-1-6.4-2-9.6-2.8
		c-3.2-0.8-6.3-1.5-9.5-2.1c-3.2-0.6-6.3-1.1-9.5-1.7c1.1,0,2.1,0.1,3.2,0.2c2.4,0.3,4.8,0.7,7.2,1.1c3.1,0.6,6.2,1.2,9.3,1.9
		c2.7,0.6,5.5,1.3,8.1,2.2c1.2,0.4,1.9,0.3,2.7-0.7c0.7-1,1.7-1.7,2.4-2.6c2.2-2.6,3.6-5.7,5.1-8.7c0.2-0.5,0.1-0.7-0.3-1
		c-0.7-0.6-1.5-1.1-2.2-1.7c-2.5-2.2-3.8-5-4.4-8.2c-0.3-1.5-0.4-3.1-0.6-4.7c-0.7-0.1-1.4-0.1-2.1-0.2c1.7-1.2,3.5-1.7,5.5-1.3
		c0-0.1,0-0.2,0-0.3c-1.5-0.3-2.9-0.6-4.5-0.9c2.6-0.6,5.1-0.8,7.5,0.5c-0.3-0.4-0.7-0.7-1-1c-0.4-0.3-0.8-0.5-1.2-0.7
		c0-0.1,0.1-0.2,0.1-0.3c1.2,0.5,2.4,0.9,3.7,1.5c-0.5-0.4-0.9-0.7-1.5-1.2c2.4,0.4,4.2,1.5,5.9,3c0.1-0.1,0.1-0.2,0.2-0.3
		c-0.7-0.6-1.5-1.2-2.2-1.8c0.1-0.1,0.2-0.2,0.3-0.3c1.2,0.6,2.4,1.3,3.5,1.9c0.1-0.2,0.2-0.4,0.3-0.7c1.4-2.8,3.3-5.2,5.7-7.1
		c2.9-2.3,6.3-3.5,9.9-4.2c0.9-0.2,1.7-0.3,2.6-0.5c2.1,0,4.1,0,6.2,0c0.7,0.1,1.3,0.2,2,0.4c3.6,0.8,6.9,2.4,9.7,4.9
		c2.4,2.2,4.3,4.9,5.2,8.2c0.7-0.4,1.3-0.8,1.9-1.1c0,0.1,0.1,0.1,0.1,0.2c-0.3,0.3-0.6,0.7-0.9,1c1.2-0.8,2.4-1.7,3.8-2
		c-0.6,0.8-1.2,1.5-1.9,2.3c0.1,0.1,0.1,0.1,0.2,0.2c1.3-1.9,3.3-2.5,5.4-3.2c-0.7,0.6-1.4,1.3-2.1,2c1.1-0.6,2.1-1.3,3.2-1.6
		c1.1-0.4,2.4-0.4,3.6-0.5c0,0,0,0.1,0,0.1c-1.3,0.6-2.7,1.3-4,1.9c2.6-0.3,4.6-0.2,5.4,0.3c-3-0.4-5.8,0.6-8.5,2
		c0.1-0.2,0.1-0.4,0.2-0.5c-0.1-0.1-0.1-0.1-0.2-0.2c-0.7,0.7-1.5,1.4-2.4,2.3c0.2-1,0.4-1.7,0.5-2.4c-0.1,0-0.1-0.1-0.2-0.1
		c-1.1,1.3-2.1,2.6-3.3,4c0.1-0.8,0.2-1.6,0.4-2.3c0,0-0.1-0.1-0.1-0.1c-0.6,0.9-1.2,1.9-1.9,3c-0.1-0.7-0.2-1.2-0.3-1.9
		c-0.5,1-0.9,1.8-1.3,2.7c-0.1,0-0.1,0-0.2,0c-0.2-0.7-0.4-1.5-0.5-2.1c-0.8,1.1-0.1,2.4,0.1,3.7c-0.1-0.1-0.2-0.2-0.3-0.3
		c-0.1-0.1-0.1-0.3-0.2-0.4c-0.7-1.8-1.9-3.2-3.6-4.1c-2.4-1.2-4.9-0.8-7.4,0.1c-1,0.4-2,0.8-3.2,1.3c1.9-1.9,3.6-3.7,6-4.6
		c2.4-1,4.4-0.3,5.9,1.6c0.8,1.1,1.4,2.3,2.1,3.3c0-0.1-0.1-0.4-0.1-0.7c0-0.2-0.1-0.4,0-0.5c0.7-0.8,1.4-1.7,2.1-2.5
		c0.3-0.3,0.6-0.6,0.3-1.1c-0.2-0.3-0.3-0.6-0.4-0.9c-1.6-3-3.7-5.4-6.5-7.3c-4.1,1.6-5.3,3.8-6.4,6.4c2.4-1.5,4.4-1.1,6.2,0.6
		c-1.9-0.4-3.2,0.4-4.7,1.5c0.3-1.3,1.5-1.5,2.3-2.3c-2.7,0.2-4.6,1.5-6,3.8c0.4-3.6,1.9-6,5.7-9.5c-5,1-8.1,3.9-9.9,8.4
		c-0.9-1.5-0.7-3-0.2-4.7c-1.6,1.5-2.3,3.1-2.2,5.1c-0.1,0-0.2,0-0.3,0c-0.3-1.1-0.7-2.2-1-3.5c-0.2,0.7-0.5,1.3-0.6,1.9
		c-0.1,0.7,0,1.3,0,1.9c-1.4-2-0.6-4.2,1.6-5.7c0,0.8,0,1.7,0,2.5c0.7-1.9,2.1-2.9,3.7-3.6c-0.2,1-0.5,1.9-0.7,2.9
		c0.1,0.1,0.2,0.1,0.3,0.2c2.5-5,6.6-6.7,12.1-6c-0.2-0.2-0.2-0.3-0.3-0.3c-3-1.9-6.3-2.8-9.8-2.9c-2.6-0.1-5.1,0.1-7.7,0.6
		c-3.8,0.7-7.1,2.3-9.9,5c-1.6,1.6-2.9,3.5-3.7,5.6c-0.3,0.7-0.3,1.2,0.3,1.8c0.5,0.4,0.8,1,0.5,1.7c-0.7-0.7-1.4-1.4-2.1-2.2
		c0.1,1,0.2,1.9,0.4,2.8c-1.5-2.2-3.3-4-4.2-4.4c0.1,0.8,0.2,1.6,0.3,2.5c-1-1-2-2-2.9-3c-0.1,0-0.1,0.1-0.2,0.1
		c0.2,0.6,0.4,1.2,0.6,1.7c-1.3-0.8-2.7-1.6-4.2-2.4c0.5,0.9,0.8,1.5,1.1,2.1c-1.4-0.2-2.7-0.5-4-0.7c1.4,0.6,2.9,0.9,4.3,1.5
		c4.2,1.8,7.4,4.9,9.9,8.7c0.9,1.3,1.1,2.5,0.2,4c-0.2-0.4-0.4-0.7-0.6-1.1c-0.2-0.4-0.3-0.7-0.6-1.1c-2.1-3.2-4.4-6-7.5-8.3
		c-1.8-1.3-4.1-2.5-6.4-2.6c0.2,1.1,0.3,2.1,0.6,3.1c0.9,3.3,2.7,6,5.5,7.9c1.9,1.4,4,2.6,6,3.9c-3.6,3.7-6.2,11.4-5.3,14.2
		c4.7-1.8,9.6-1.9,14.6-1.5c-1-0.6-2.1-1.2-3.3-2c1.3,0.2,2.3,0.4,3.4,0.6c0-0.1,0-0.1,0-0.2c-1.5-1.7-2.6-3.7-3.4-5.8
		c-0.7-1.9-1-3.9-0.7-5.8c0.3-2.3,1.5-4.2,3.2-5.8c2.8-2.5,6.1-2.9,9.4-1.4c1.9,0.9,3.4,2.3,4.3,4.4c1.4-2.3,3.1-4.1,5.5-5.2
		c3.3-1.5,6.8-0.5,8.9,2.4c2.4,3.3,2.5,7,1.7,10.7C97.9,66.7,96.3,69,94,71c1.6-0.1,3.2-0.2,4.8-0.2c0,0,0,0.1,0,0.1
		c-1.8,0.5-3.6,1-5.4,1.5c0,0.1,0,0.2,0.1,0.3c0.6-0.1,1.2-0.2,1.9-0.2c3.9-0.1,7.8-0.1,11.5,1.4c0.4,0.2,1.1-0.3,1.1-0.8
		c0.1-2.1-0.4-4-1.2-5.9c-0.8-2.1-1.9-4.2-3.7-5.8c0.9-0.6,1.8-1.2,2.7-1.9c1.7-1.3,3.4-2.7,5-4.1c1.8-1.8,3.3-3.9,4.2-6.3
		c0.5-1.4,0.8-2.9,1.2-4.5c-3.5,1.2-6.3,3-8.8,5.4c-2.5,2.4-4.3,5.2-5.7,8.4c-0.2-0.8-0.6-1.7-0.4-2.3c1.3-3.5,3.8-6.3,6.8-8.3
		c1.7-1.1,3.6-2.1,5.4-3c1.7-0.8,3.5-1.4,5.5-1.3c-0.5,0.2-0.8,0.3-1.1,0.4c-1.3,0.4-1.3,0.4-1.3,1.7c0,0.3-0.1,0.7-0.2,1
		c-0.3,2.6-1.3,5-2.7,7.2c-1.3,2-2.7,3.8-4.5,5.3c-0.3,0.2-0.4,0.4-0.2,0.9c1.7,3.3,3.4,6.7,5.2,10.1c0.1,0.1,0.5,0.3,0.7,0.2
		c1.2-0.4,2.3-0.9,3.5-1.2c4-1.2,8.1-2.3,12.3-2.7c2.7-0.2,5.3-0.5,8-0.6c1.2-0.1,2.5,0,3.7,0c0.5,0,0.9,0.1,1.4,0.1
		c0.4,0,0.8,0,1.3,0c-10.3-0.1-20.3,1.8-30,5.3c0.1,0.1,0.1,0.2,0.1,0.3c1.4,2,2.8,4,4.3,6c0.2,0.2,0.6,0.4,0.9,0.4
		c1,0,2.1-0.3,3.1-0.3c2.3,0,4.6,0,7,0.2c2.3,0.2,4.6,0.5,6.8,1c2.6,0.5,5.1,1.4,7.4,2.7c-0.6-0.2-1.2-0.4-1.9-0.6
		c-4.1-1.5-8.4-2-12.7-2.1c-2.4-0.1-4.7,0.1-7.1,0.1c-0.7,0-1.4,0.1-2.3,0.2c4.9,4.6,10.3,8.3,14.2,13.7c-0.7-0.5-1.4-1-2.2-1.3
		c-0.7-0.4-1.5-0.6-2.3-0.9c0,0.1-0.1,0.1-0.1,0.2c4.4,1.6,5.3,5.7,6.7,9.5c-1.1-1.4-2.2-2.8-3.4-4.2c2.2,7.1,1.7,14-1.4,20.7
		c0.2-2.6,0.3-5.2,0.5-7.8c-1.4,4.3-2.7,8.5-6,11.7c-0.1,0-0.2-0.1-0.2-0.1c0.2-0.7,0.5-1.5,0.7-2.1c-1.2,1.5-2.4,3.1-3.8,4.8
		c0.5-1.6,1-3.1,1.5-4.5c-0.1,0-0.2-0.1-0.2-0.1c-1.3,2.7-3.2,5-5.7,6.8c0.9-1.8,1.8-3.5,2.7-5.2c-0.1,0-0.1-0.1-0.2-0.1
		c-2,3.2-6.6,7.2-8.8,8.8c0.6-1.2,1.1-2.3,1.7-3.4c-1.7,2.6-4,4.5-7,5.9c5.2,1.7,9.5,4.6,13.5,7.9c2.3-2.3,4.9-3.8,7.8-4.9
		c3.2-1.2,6.4-1.8,9.8-2c0.4,0,0.8,0.1,1.1,0.3c1.3,1.1,2.6,2.2,3.9,3.3c-0.1,0.4-0.2,0.5-0.3,0.8c1.3-0.1,1.8,0.5,1.9,1.6
		c0.1,1.1,0.2,2.2,0.3,3.3c0,0.9,0.2,1.8-0.1,2.5c-0.3,0.6-1.2,0.9-1.8,1.4c0.5,0.4,1,0.8,1.5,1.1c0.5,0.4,0.8,0.8,0.5,1.4
		c-0.7,2-1.4,4-2.2,5.9c-0.3,0.6-0.7,1.3-1.2,1.7c-1.3,0.8-2.7,1.4-4.1,2c-0.2,0.1-0.7,0-0.9-0.2c-1.9-1.3-3.8-2.2-6.2-1.4
		c-0.4,0.1-0.5,0.3-0.3,0.7c0.1,0.3,0.3,0.5,0.4,0.7c0.8,0.9,1.6,1.7,2.5,2.7c-1.8,2.2-4.7,2.6-7.1,3.5c1.2,1.1,2.5,2.1,3.5,3.3
		c1.5,1.7,2.4,3.6,1.9,5.9c-0.6,2.7-3.4,4.6-6.2,4c-2.3-0.4-4-2-5.4-3.7c-1.2-1.4-2.4-2.6-4-3.4c-2.1-1.1-4.2-1-6.2,0.8
		c-1.9,1.8-2.9,4.1-3.8,6.4c-1.3,3.5-3.1,6.6-5.9,9.2c-0.9,0.9-1.9,1.6-3,2.6c0.4-0.1,0.7-0.2,0.9-0.3c3.6-1.2,7.2-2.1,10.9-1.4
		c2.8,0.6,4.9,2,6.1,4.8c1,2.2,1,4.5,0.6,6.8c-0.5,3.1-3,5.1-6.1,5.2c-0.3,0-0.7,0.1-1,0.4c-1.9,1.5-3.9,2.2-6.4,1.4
		c-0.2-0.1-0.4-0.1-0.5,0c-0.9,0.3-1.8,0.7-2.7,1C98,207.1,97,207.1,96,207.1z M68.1,78.7c-0.2,0.7-0.1,1.4,0.2,2.1
		c0.8,1.4,2.1,2.4,3.3,3.3c-0.1-0.2-0.3-0.4-0.5-0.6c-1-0.9-1.8-2-2.3-3.2c-0.4-1-0.2-1.5,0.9-1.4c0.8,0.1,1.6,0.3,2.3,0.5
		c0,0,0.1-0.1,0.1-0.1c-0.5-0.4-0.9-0.9-1.4-1.2C69.7,77.5,68.8,78,68.1,78.7c0.3-0.9,1.1-1.2,1.9-1.5c2.4-0.7,4.8-1.4,7.2-2
		C70.1,73.3,63,72.8,56,75.6c2.2,1.2,4.4,2.3,6.6,3.4c0,0.1-0.1,0.1-0.1,0.2c-0.1,0-0.2,0-0.2,0c-2.1-0.9-4.2-1.8-6.3-2.7
		c-0.4-0.2-1-0.5-1.3-0.4c-1.6,0.8-3.2,1.7-4.8,2.5c0,0.1,0.1,0.1,0.1,0.2c3.3,0.6,6.6,1.3,9.8,2.6c0.8,0.3,1.5,0.8,2.2,1.2
		c0,0.1-0.1,0.2-0.1,0.3c-0.3-0.1-0.6-0.3-0.9-0.4c-3.4-0.9-6.9-1.9-10.4-2.7c-0.7-0.2-1.4-0.6-2.1,0.2c-1.7,2-2.9,4.3-3.5,6.8
		c3-0.3,6.1-0.6,9.1-0.8c3-0.2,6.1,0.2,9,1.1c-6.1-0.5-12.3-0.2-18.3,0.8c-0.2,1.9,0,3.8,0.8,5.5c1.7,3.3,4.4,5.4,7.8,6.6
		c3.5,1.3,7.1,1.8,10.9,1.3c1.9-0.2,3.8-0.4,5.7-0.8c3.9-0.9,7.3-2.8,9.8-6c0.2-0.3,0.4-0.7,0.3-1c-1-2.1-2-4.3-3.8-5.9
		c-1.6-1.4-3.4-2.5-5.1-3.8c-1-0.8-2-1.7-2.8-2.7C67.7,80.7,67.3,79.7,68.1,78.7z M67.7,201.4c0.2,0,0.4-0.1,0.6-0.2
		c3.5-0.8,7-1.5,10.5-2.3c0.5-0.1,0.7-0.3,0.6-0.7c-0.1-0.7-0.1-1.5-0.2-2.2c-0.2-2.2-0.4-4.4-0.6-6.6c-0.1-1.5-0.2-2.9-0.3-4.4
		c0-0.2-0.2-0.4-0.4-0.5c-1.1-0.5-2.3-0.9-3.4-1.5c-1.1-0.7-2.1-1.6-2.6-3.2c3,3.1,6.6,3.9,10.5,3.5c3.8-0.3,7.1-2,10-4.6
		c-1.8,3.3-4.9,4.7-8.3,5.9c0.1,1,0.2,1.9,0.2,2.9c0.1,2.8,0.1,5.6,0.2,8.3c0,1.3,0.2,2.6,0.2,4c1.4,0.1,2.8,0.2,4.3,0.3
		c0.8,0.1,1-0.3,1-1c0-0.6,0.1-1.1,0.2-1.7c0.2,0.5,0.3,0.9,0.4,1.4c0.2,2.2,1.5,3.8,3.2,5.1c2.6,1.9,5.4,1.5,8.3,0.6
		c0.2-0.1,0.3-0.2,0.4-0.4c0.7-1.2,1.6-2.4,2.2-3.7c1-2.4,0.6-4.6-1.3-6.4c-1.2-1.1-2.5-2-3.6-2.8c1.3,0.3,2.7,1.1,4,2
		c2.7,1.8,3.6,5,2.3,7.9c-0.6,1.3-1.4,2.6-2.2,3.9c0.5-0.1,1-0.1,1.6-0.3c2.4-0.7,3.6-2.4,4.5-4.6c1.3-3.2,0.3-6.5-2.6-8.3
		c-0.9-0.5-1.7-1-2.6-1.6c2.6,0.5,4.8,1.7,6.2,4c1.7,2.9,0.6,5.7-0.8,8.4c0.2,0,0.4,0.1,0.6,0c1.5-0.5,2.6-1.5,3.2-3
		c0.7-1.9,0.8-3.8,0.3-5.7c-0.6-2.5-2.1-4.1-4.5-4.7c-2.1-0.6-4.3-0.4-6.4-0.1c-3.1,0.5-6.1,1.4-9,2.5c-1.7,0.7-3.3,1.4-4.7,2
		c-0.4-0.3-0.7-0.5-1.1-0.7c0,0.1,0,0,0,0c3.3-4.8,6.2-9.8,8.6-15.1c1.5-3.4,2.8-6.8,3.9-10.4c0.8-2.8,1.4-5.7,1.5-8.7
		c0.1-2.6,0-5.2-0.2-7.8c-0.1-2-0.5-4-0.9-5.9c-0.8-3.6-2.3-6.8-4-10c-0.7,0.5-1.4,1-2.2,1.6c0.5-1.1,1-2.1,1.4-3.2
		c0.4-1,0.7-2.1,1-3.1c-0.1,0-0.1,0-0.2-0.1c-1.7,3.1-3.5,6.1-6,8.6c1-1.9,2.1-3.7,2.8-6c-1.3,1.9-2.4,3.5-3.6,5.2
		c-1.2,1.7-2.6,3.1-4.4,4.1c0.9-1.5,1.9-3.1,2.8-4.6c-0.1,0-0.1-0.1-0.2-0.1c-2.3,3.7-5,7-8,10.2c-0.5-1.3-0.9-2.4-1.3-3.5
		c0,0-0.1,0-0.1,0c0.2,0.7,0.3,1.4,0.5,2.2c-2.9-1.7-5-4.1-6.8-6.7c0,0.2,0.1,0.4,0.1,0.6c-2.3-1.8-3.9-4-5.6-6.3
		c0.7,1.5,1.5,3,2.2,4.5c-0.1,0.1-0.1,0.1-0.2,0.2c-0.3-0.4-0.6-0.8-0.9-1.2c-0.1,0-0.2,0-0.3,0.1c-0.9,2.1-1.8,4.1-2.6,6.2
		c-1.5,3.9-1.8,7.9-2.1,12c-0.2,2.4,0,4.9,0.2,7.3c0.2,2.2,0.5,4.5,1,6.6c0.9,3.7,2.2,7.3,4,10.7c1.7,3.3,3.6,6.6,5.5,9.9
		c0.6,1,1.3,2,2.1,2.9c0.8,0.8,1.2,1.4,1,2.5c-0.4-0.9-0.9-1.3-2-1.2c0,0.5,0,0.9-0.1,1.5c-0.3-0.2-0.4-0.3-0.5-0.5
		c-1.3-1.4-2.9-2.6-4.6-3.6c-2.7-1.5-5.6-2.3-8.7-2.6c-2.5-0.3-5-0.4-7.6,0.2c-2.4,0.6-4.7,1.5-6.5,3.4c-1.7,1.7-2.5,3.8-2.3,6.2
		c0.1,1.3,1.5,2.5,2.9,2.5c-0.1-0.2-0.2-0.4-0.3-0.7c-1-2.1-1.2-4.1,0-6.2c0.9-1.5,2.2-2.5,3.7-3.3c1-0.5,2.1-0.9,3.1-1.4
		c-0.5,0.5-1.1,0.8-1.7,1.2c-3.5,2.1-5,5.3-3.7,9.1c0.9,2.5,2.3,3.6,4.9,3.2c-0.6-1.1-1.3-2.2-1.8-3.4c-0.6-1.6-0.6-3.2,0.3-4.7
		c1-1.7,2.5-2.7,4.1-3.6c0.4-0.2,0.9-0.4,1.3-0.6c0.4-0.2,0.9-0.3,1.3-0.5c-1.5,1.1-2.9,2.2-4.1,3.4c-1.2,1.1-1.6,2.6-1.4,4.3
		c0.2,1.2,0.8,2.2,1.4,3.1c1.7,2.4,4.7,3.2,7.2,2.7c2.2-0.5,4-1.7,4.9-4c0.3-0.7,0.6-1.4,1-2c0.1,0,0.2,0,0.2,0.1
		C68.2,199.1,68,200.3,67.7,201.4z M118.6,90.1c-0.1,1.1-0.1,2.2-0.3,3.2c-0.7,3.9-2.8,6.7-6.2,8.6c-2.9,1.6-6,2.3-9.4,2.3
		c-0.8,0-1.6,0-2.3,0.5c-0.8,0.6-1.7,1.2-2.5,1.9c-2.1,1.9-3.9,4.1-5.3,6.6c-1,1.6-2.1,3.2-3.8,4.2c-0.5,0.2-0.7,0.6-0.9,1.1
		c-1.1,2.6-3.2,3.7-5.7,3.9c-1.6,0.1-3.4,0-5-0.3c-2.3-0.4-4.3-1.4-5.2-3.8c-0.1-0.2-0.3-0.3-0.5-0.4c-1.6-0.7-2.9-1.7-3.4-3.5
		c-0.2-0.7-0.2-1.5-0.3-2.2c-0.6-2.7-1.9-5.2-3.4-7.5c-0.6-1-1.4-1.4-2.6-1.4c-1.6,0-3.2-0.2-4.8-0.5c-4.4-0.8-8.3-2.5-11.2-6.2
		c-1.2-1.6-2.1-3.3-2.3-5.3c-0.1-0.9-0.2-1.8-0.3-2.8c-2.1,0.5-4.3,1-6.4,1.6c-0.3,0.1-0.6,0.2-0.7,0.4c-0.5,0.9-1,1.9-1.5,2.8
		c0.6-0.3,1.1-0.8,1.6-1.2c0.5-0.4,1-0.7,1.4-1.1c-0.8,2-1.7,4.1-2.5,6.1c0.1,0,0.2,0.1,0.2,0.1c0.5-0.6,1-1.3,1.5-1.9
		c0.5-0.6,1-1.2,1.6-1.8c-1.7,2.3-3,9-2.9,10.9c0.5-1.5,0.9-3.1,2.2-4.3c-0.1,3.6-0.1,7,0.7,10.5c0.2-1.7,0.4-3.3,0.6-4.8
		c0.1,0,0.2,0,0.2,0c0.4,3.3,0.9,6.5,2.7,9.4c0-1.5,0-3.1,0-4.6c0.1,0,0.2,0,0.2,0c1.2,3.6,2.6,7,4.6,10.2c0-1-0.1-2,0-3
		c0.1-1,0.3-2,0.5-3c1.8,3.5,3.3,7,5.9,10.1c0-1.8,0-3.4,0-5c0.1,0,0.1,0,0.2,0c1.3,2.4,2.7,4.9,4,7.3c0.1,0,0.1-0.1,0.2-0.1
		c-0.2-1.4-0.3-2.8-0.5-4.1c0,0,0.1,0,0.1,0c1.3,2.1,2.6,4.1,3.9,6.1c0.1-1.2,0.3-2.3,0.4-3.4c1.3,2,2.6,3.9,4,5.9
		c-0.3-1.8-0.5-3.5-0.7-5.1c0,0,0.1,0,0.1,0c1.2,2.3,2.3,4.5,3.5,6.8c0.1-0.8,0-1.6-0.1-2.3c-0.1-0.7-0.1-1.5-0.2-2.2
		c2,4.3,4.8,8,7.8,11.8c0.5-1.8,1-3.4,2.2-4.8c1,2.7,1.9,5.2,2.9,7.9c4.5-5.4,8.9-10.8,12-17.1c0.1,0,0.2,0.1,0.3,0.1
		c-0.3,2-0.6,4.1-0.9,6.3c1.1-1.8,2.1-3.4,3.1-5.2c-0.1,1.1-0.2,2.1-0.2,3.3c1.4-2.8,2.7-5.4,4-8c0.1,2.3,0.2,4.6,0.4,7.1
		c2-2.6,4-5.2,6-7.8c0.3,2.2-0.5,4.3-0.9,6.7c2.2-2.4,4.3-4.6,6.4-6.8c2-2.2,4-4.5,5.7-7.3c0.7,2.7-0.1,5-0.7,7.3
		c0.7-0.9,1.5-1.9,2.2-2.8c0.1,0.4,0,0.7-0.1,1c-0.1,0.3-0.1,0.6-0.2,1c1.9-2.6,3.7-5.2,4.6-8.2c0.1,0,0.1,0,0.2,0
		c0.2,1.6,0.3,3.2,0.5,4.9c1.4-2.8,1.9-5.8,1.8-8.8c0.1,0,0.2,0,0.3,0c0.3,1.9,0.6,3.7,0.9,5.7c0.8-3.7,1.4-7.4,0.9-11.2
		c0.1,0,0.2,0,0.3-0.1c0.7,2.6,1.5,5.2,2.2,7.5c0.5-3.3,1.4-6.9,0.7-10.7c1.2,0.8,1.7,2,2.4,3.2c-0.4-1.7-0.8-3.4-1.4-5
		c-0.6-1.7-1.4-3.3-2.8-4.5c0.9-0.3,1.7-0.5,2.5-0.8c-1.4-0.8-1.3-1.4-5.3-1.7c0.6-1.9,2.4-1.4,3.6-2.2c-0.4-0.4-0.9-0.8-1.4-1.2
		c-1.2-1.1-2.5-2.1-3.7-3.2c-1.8-1.7-3.7-3.3-5.3-5.1c-0.6-0.7-1.2-0.7-1.9-0.6c-0.6,0.1-1.2,0.2-1.8,0.3c-0.3,0-0.5,0.1-0.8,0.2
		c1.8,2.6,3.2,5.2,3.7,8.3c0,0.3,0.4,0.6,0.6,0.8c1.5,0.9,3.1,1.6,4.6,2.6c1.3,0.8,2.5,1.8,3.7,2.8c0.9,0.8,1.7,1.7,2.6,2.5
		C126.5,94,122.7,91.8,118.6,90.1z M23.1,151.8c4.6-1.1,9-2.5,13.6-1c-0.6,0.1-1.3,0.1-2.1,0.2c3.1,1.8,3.3,3.2,0.8,6.1
		c1.6,0.6,3.2,1.2,4.7,1.9c1.6,0.7,3,1,4.6-0.5c1.6-1.6,3-3.3,3.4-5.6c0.1-0.7,0.3-1.4,0.9-1.9c2.5-2.2,5.2-4.1,8.3-5.2
		c1.6-0.6,3.2-1,4.9-1.3c0.7-0.1,1.1-0.3,1.3-1c0.7-2.6,1.7-5.1,3.1-7.5c0.1-0.2,0.1-0.6,0-0.8c-0.8-1.2-1.7-2.4-2.5-3.6
		c0,0-0.1,0.1-0.1,0.1c0.6,1.2,1.2,2.4,1.8,3.5c-0.1,0.1-0.1,0.1-0.2,0.2c-1.4-1.4-2.9-2.7-4.3-4.1c0,0,0,0-0.1,0.1
		c0.5,0.7,1,1.3,1.5,2c-0.6-0.2-1.1-0.5-1.6-0.9c-0.4-0.4-0.8-0.4-1.3-0.2c-2.6,1.2-5.3,2.3-7.8,3.6c-2,1-3.7,2.2-5.3,3.8
		c-0.3,0.3-0.3,0.6-0.2,1c0.2,1.2,0.4,2.5,0.6,3.7c-0.1,0-0.2,0-0.3,0c-0.1-0.5-0.2-1-0.3-1.4c-0.3-1-0.4-2.2-1.3-2.9
		c-1.8-1.4-3.6-2.8-5.5-4.1c-2.6-1.8-5.4-3.2-8.5-3.9c-0.8-0.2-1.6-0.5-2.3-0.2c-1.1,0.4-2.2,1.1-3.4,1.7c1.9,1,3.8,1.5,5.2,3
		c-1.6-0.4-3.1-0.8-4.7-1.1c-0.9-0.2-2-0.6-2.8,0.5c-0.8,1.2-1.5,2.5-2.2,3.7c-0.2,0.5-0.3,1-0.4,1.6c2.8,0.6,5.6,0.7,8.1,1.8
		c-0.9,0.2-1.9,0.4-2.8,0.5c-1.5,0.3-3,0.5-4.3,1.4c-0.2,0.2-0.5,0.6-0.5,0.9C21.3,148,22.3,149.8,23.1,151.8z M141.6,154
		c1.3-1.9,1.9-3.8,2.3-5.8c0-0.1,0-0.3-0.1-0.4c-0.4-0.3-0.8-0.7-1.3-0.9c-1.6-0.7-3.2-1.4-5.1-2.2c2.3-0.4,4.4-0.7,6.6-1.1
		c-0.1-1.2-0.1-2.4-0.3-3.6c-0.2-1.6-0.8-2-2.4-2c-1.5,0-3,0-4.5,0c0-0.1,0-0.1,0-0.2c1.5-0.6,3-1.1,4.6-1.7c-0.7-0.6-1.3-1.3-2-1.9
		c-0.4-0.3-1.1-0.6-1.6-0.6c-1.2,0.1-2.4,0.2-3.6,0.5c-3.7,1-7.1,2.6-10.3,4.7c-1.9,1.2-3.6,2.5-4.3,4.8c0,0.2-0.1,0.3-0.2,0.5
		c-0.1,0-0.2,0-0.2-0.1c0.1-0.8,0.2-1.6,0.4-2.3c0.2-0.5,0-0.8-0.3-1c-2.4-1.7-4.7-3.5-7.1-5.1c-2-1.3-4-2.5-6.4-3
		c-1.2-0.3-2.3-0.4-3.3,0.5c-0.8,0.7-1.8,1.2-2.8,1.7c1.1-1.5,2.3-2.9,3-4.9c-1.4,1.6-2.7,2.9-3.9,4.2c1,2.6,2,5.1,3,7.7
		c0.1,0.3,0.4,0.6,0.6,0.7c2.7,0.6,5.1,1.9,7.4,3.2c2.8,1.5,5.3,3.5,7.7,5.6c0.2,0.2,0.3,0.5,0.3,0.8c0.1,0.7,0.1,1.4,0.2,2.1
		c0.6,3,2,5.6,4.4,7.5c0.6,0.5,1.2,1.3,2.3,0.9c1.1-0.4,2.2-0.6,3.3-1c1-0.4,1.9-0.9,3-1.5c-1.3-0.9-2.1-1.9-2.3-3.2
		c-0.2-1.3,0.5-2.4,1.2-3.4c-1.3,0.1-2.6,0.1-3.8,0.2C131.4,152,136.5,151.6,141.6,154z M86.5,75.7c0.3,0,0.5,0,0.8,0.1
		c1.9,0.4,3.7,0.9,5.6,1.3c1.4,0.3,2.2,1.8,1.9,3.2c-0.6,2-2.2,3.1-3.7,4.2c-1.1,0.8-2.7,1.1-3.4,2.5c-0.2,0.3-0.4,0.6-0.6,0.9
		c-1.1,1.9-2.2,3.7-3.3,5.6c-0.1,0.2-0.2,0.6-0.1,0.9c0.4,0.7,0.9,1.5,1.5,2.1c1.6,1.7,3.6,2.9,5.8,3.8c4.1,1.6,8.3,2.5,12.7,2.2
		c3-0.2,5.8-1,8.3-2.6c1.8-1.2,3.3-2.7,4-4.9c0.6-1.8,0.6-3.6,0.4-5.5c0-0.2-0.3-0.4-0.5-0.4c-2.4-0.6-4.8-1.2-7.2-1.8
		c-3-0.7-6-0.9-9-1c-0.2,0-0.5,0-0.7,0c0-0.1,0-0.2,0-0.2c2.9,0.1,5.8,0,8.6,0.3c2.8,0.3,5.6,0.9,8.5,1.4c-0.5-1.3-1-2.5-1.6-3.7
		c-0.6-1.2-1.4-2.3-2.1-3.4c-0.1-0.2-0.4-0.4-0.6-0.3c-2.5,0.5-4.9,1-7.4,1.5c-1,0.2-2,0.5-3,0.7c0-0.1,0-0.2-0.1-0.2
		c3.3-1,6.6-2,9.9-3.1c-1.5-1.6-3.3-2.7-5.4-3.5c-0.3-0.1-0.7-0.1-1,0.1c-1.2,0.6-2.3,1.2-3.5,1.8c0-0.1-0.1-0.1-0.1-0.2
		c1.1-0.7,2.3-1.4,3.5-2.2C98.5,73.3,92.5,73.8,86.5,75.7z M91.8,189.8c0,0.1,0.1,0.1,0.1,0.2c0.8-0.3,1.7-0.5,2.4-1
		c1.8-1,3.4-2.2,4.8-3.8c1.6-1.9,2.9-3.9,4.1-6c1.5-2.9,2.7-5.9,4.7-8.5c1.1-1.4,2.5-2.5,4.3-2.7c2.3-0.3,4.3,0.7,6,2.1
		c1.4,1.2,2.7,2.4,3.9,3.8c1.2,1.3,2.7,1.9,4.5,1.8c2.4-0.1,3.9-2,3.1-4.5c-0.6-1.7-1.7-2.9-3-4.1c-2.4-2.3-5.2-3.8-8.3-5
		c-2.4-0.9-4.8-1.3-7.3-0.5c-2.9,0.9-4.9,3-6.2,5.6c-1.8,3.5-3.2,7.2-5,10.8c-0.8,1.6-1.9,2.9-3,4.3c-0.6,0.8-1.6,1.4-2.1,2.2
		C93.9,186.1,92.9,188,91.8,189.8z M81.6,74.9c0.4,0,0.7,0.2,0.9,0.1c2.2-0.7,4.6-0.9,6.6-2.1c0.7-0.4,1.5-0.8,2.2-1
		c0.9-0.2,1.6-0.8,2-1.5c1-1.4,2-2.8,2.7-4.3c1.3-2.8,1.8-5.8,1-8.9c-1.1-4.4-5.4-6.9-9.6-4.5c-1.7,0.9-3,2.3-4.3,3.7
		c-0.2,0.3-0.5,0.6-0.5,0.9c-0.1,0.9-0.1,1.8-0.2,2.6c-0.1,2.3-0.2,4.6-0.3,6.8c0,0.8-0.1,1.7-0.2,2.5
		C81.9,71.1,81.8,72.9,81.6,74.9z M81.3,75c0.1-1.3,0.2-2.5,0.2-3.6c0.1-1.7,0.1-3.4,0.2-5.1c0.1-2.3,0-4.6,0.2-7
		c0.1-1.9-0.6-3.4-1.8-4.8c-1.7-2.1-3.9-2.7-6.5-2.2c-1.8,0.4-3.4,1.2-4.7,2.5c-1.5,1.6-2,3.5-2.1,5.6c-0.1,2.4,0.4,4.7,1.4,6.9
		c0.8,1.7,1.5,3.5,3.6,4c0.1,0,0.2,0.1,0.3,0.2c0.7,0.4,1.3,1,2,1.2c1.7,0.6,3.5,1.1,5.2,1.6C80,74.6,80.6,74.8,81.3,75z
		 M119.3,160.5c0-0.1,0-0.2-0.1-0.2c-0.1-0.1-0.2-0.3-0.2-0.4c-1.3-2.1-2.2-4.3-2.4-6.7c-0.1-0.5-0.1-1.2-0.4-1.6
		c-0.4-0.5-1-0.9-1.6-1.3c-3.1-2.4-6.5-4.1-10.3-5.1c-0.4-0.1-0.8-0.2-1.4-0.4c3.1,11.9,1,22.9-4.4,33.5c1.5-2.4,2.6-4.9,3.5-7.6
		c1.2-3.5,2.7-6.9,5.7-9.4c2.3-1.9,4.9-2.4,7.7-1.9C116.6,159.7,117.9,160.2,119.3,160.5z M78.8,110.4c-0.9-2.2-0.5-4,1.1-5.5
		c-0.9,0.1-1.8,0.1-2.7,0.3c-2.6,0.6-4.8,1.9-6,4.5c-0.1,0.2-0.1,0.5,0,0.7c0.3,1.4,1.4,2.1,2.6,2.6c2,0.9,4.2,1,6.3,1.1
		c1.4,0.1,2.7-0.2,4.1-0.3c1.7-0.2,3.4-0.6,4.7-1.7c0.6-0.5,1.3-1.3,1.2-1.9c-0.2-1.6-1.3-2.8-2.6-3.7c-1.5-1-3.2-1.3-5-1.6
		c-0.4-0.1-0.9,0.1-1.2,0.4c-1.3,0.7-1.8,2-2.1,3.3C79,109.1,78.9,109.7,78.8,110.4z M98.2,104.1c-1.1-0.5-2,0-2.7,0.9
		c-1.2,1.7-2.5,3.3-3.6,5.1c-1,1.8-2.3,3.3-4.3,4.1c-2.2,0.9-4.6,1.2-6.9,1.3c-1.6,0.1-3.2-0.1-4.7-0.3c-3.3-0.4-5.5-2.1-6.5-5.3
		c-0.8-2.5-2-4.8-3.5-6.9c-0.4,0.1-0.8,0.1-1.2,0.2c0.3,0.5,0.7,0.9,1,1.4c1.7,2.2,2.8,4.7,3.2,7.5c0.2,1.9,1.1,3.2,2.9,4.1
		c2.5,1.2,5.1,1.4,7.7,1.4c2.1,0,4.2-0.2,6.3-0.5c2-0.3,3.7-1.3,4.8-3.2c1-1.8,2.2-3.5,3.5-5.1C95.4,107.1,96.8,105.6,98.2,104.1z
		 M40.1,82.3c-2.2,2.4-4,4.9-5.4,7.8c0.8-0.6,1.6-1.2,2.3-1.8c0,0,0.1,0.1,0.1,0.1c-0.1,0.3-0.3,0.5-0.5,1c2.3-0.6,4.4-1.2,6.6-1.8
		c0.4-3,1.7-5.7,3.7-8.1c-1.5-0.2-2.8-0.4-4.2-0.5c-0.5-0.1-1.2-0.1-1.6,0.2c-1.2,0.9-2.2,1.9-3.3,2.9c0.1,0.1,0.1,0.2,0.2,0.3
		C38.6,82.3,39.3,82.3,40.1,82.3z M109.5,73.6c0.1,0.5,0.1,1,0.2,1.4c0.1,0.3,0.2,0.6,0.5,0.8c1,0.9,2.1,1.8,3.1,2.6
		c0.3,0.2,0.6,0.4,0.9,0.4c1.1-0.1,2.1-0.3,3.2-0.5c-1.4-2.1-2.8-4.2-4.2-6.3C111.9,72.5,110.8,73,109.5,73.6z M105.1,62.4
		c2.2,3.1,3.7,6.5,4.3,10.3c1.1-0.5,2.2-1,3.3-1.5c-2.2-3.3-4.2-6.6-5.4-10.4C106.6,61.4,105.9,61.9,105.1,62.4z M73.1,118.6
		c0.8,0.6,1.5,1.4,2.3,1.8c2.7,1.4,5.6,1.4,8.5,0.6c1.3-0.4,2.4-1.1,2.9-2.6C82.2,119.2,77.7,119.3,73.1,118.6z M42,78
		c1.6,0.2,3.2,0.3,4.7,0.5c0.7,0.1,1.1-0.2,1.5-0.6c1-1,2.2-2,3.3-3c-1.4-0.5-2.8-1-4.2-1.4c-0.2-0.1-0.4,0.1-0.6,0.2
		C45.3,75.1,43.7,76.5,42,78z M52.4,74.3c1-5,2.3-9.8,5.5-13.9c-0.6-0.5-1-0.6-1.3,0.3c-0.1,0.3-0.3,0.6-0.4,0.9
		c-1.3,3.3-3.2,6.1-5.7,8.7C49.7,71,49,72,48.4,72.8C49.4,73.2,50.9,73.7,52.4,74.3z M73.1,77.1c1.4,0.7,13.5,0.8,16.5,0
		c-2.7-0.6-5.4-1.6-8.2-1.7C78.6,75.4,75.8,76.2,73.1,77.1z M34.9,152.8c-2.6-1.7-8.3-0.8-10.7,0.4c1.1,0.6,2.1,1.1,3.2,1.6
		c0.1,0.1,0.3,0.1,0.5,0c0.8-0.4,1.6-0.9,2.4-1.2C31.7,152.9,33.2,152.5,34.9,152.8z M130.5,155.2c2.8-1,4.9,0.1,6.9,1.8
		c1.1-0.6,2.2-1.2,3.4-1.8C138.4,153.7,131.9,153.2,130.5,155.2z M82.9,189.1c-0.1-1.5-0.2-2.8-0.3-4.2c-0.9,0-1.8,0-2.6,0
		c-0.3,2,0.1,2.8,1.8,3.6C82.1,188.7,82.5,188.9,82.9,189.1z M90.7,84.1c1.3-0.7,2.5-1.6,3.3-2.8c0.5-0.7,0.7-1.5,0.4-2.4
		c-0.3-0.8-1.1-1.4-1.7-1c-0.6,0.3-1,0.9-1.6,1.3c0.1,0.1,0.1,0.1,0.2,0.2c0.3-0.2,0.7-0.4,1-0.6c0.8-0.4,1.2-0.2,1.4,0.6
		c0.3,1-0.3,1.7-0.8,2.4C92.3,82.7,91.5,83.4,90.7,84.1z M70.9,102.2c-0.8,0.2-1.5,0.3-2.3,0.5c0.7,1,1.3,1.9,1.9,2.8
		c0.1,0,0.1-0.1,0.2-0.1C70.8,104.3,70.9,103.3,70.9,102.2z M110.7,126.3C110.7,126.3,110.6,126.2,110.7,126.3
		c-1.8,1.5-3.5,3-5.3,4.6c0.5,0.3,0.9,0.3,1.3-0.2c0.9-1,1.9-2,2.8-3C109.9,127.3,110.3,126.8,110.7,126.3z M90.5,102.2
		c0,0.7,0,1.2,0,1.7c0,0.5-0.1,1-0.2,1.5c0.1,0,0.2,0.1,0.3,0.1c0.4-0.9,0.9-1.8,1.3-2.8C91.4,102.5,91,102.4,90.5,102.2z
		 M58.4,130.2c-0.9-1.3-1.8-2.6-2.6-3.8c-0.1,0-0.2,0.1-0.2,0.1c0.8,1.2,1.5,2.4,2.3,3.6C58,130.2,58.2,130.2,58.4,130.2z
		 M21.2,142.4c0.8,1.2,1.5,1.3,2.5,0.3C22.8,142.7,22,142.5,21.2,142.4z"/>
	<path d="M64.3,51.4c0.7-2.3,1.5-4.5,3.2-6.2c1.7-1.8,3.8-2.2,6.1-1.6c3.2,0.8,5.5,2.8,7.6,5.3C74.9,44.9,69.4,46,64.3,51.4z"/>
	<path d="M89.2,64.2c0.5,0.9,0.6,1.8,0.5,2.7c-0.1,1.4-0.5,2.7-1.7,3.6c-0.8,0.6-2,0.6-2.8-0.1c-1.2-1.1-1.7-2.6-1.5-4.2
		c0.1-0.9,0.4-1.7,0.7-2.5c0.4-0.9,1.1-1.3,2.2-1.5c-0.7,1.1-0.7,2,0.3,2.7C87.8,65.3,88.5,64.9,89.2,64.2z"/>
	<path d="M77.1,62.2c-0.7,1-0.6,1.7,0.2,2.4c0.7,0.6,1.2,0.6,2.4-0.3c1.1,2,0.4,5-1.4,6.3c-1,0.7-2.6,0.3-3.4-1
		c-1.3-2-1.2-5.1,0.6-6.7c0.4-0.4,0.9-0.5,1.4-0.8C77,62.1,77.1,62.1,77.1,62.2z"/>
</g>
<g>
	<path d="M196.2,200.7c-0.6-0.1-1.3-0.2-1.9-0.3c-2.9-0.3-5.6-1.2-8.4-2.5c0.2-0.9,0.3-1.9,0.6-2.8c1.1-3.2,3.2-5.6,6.2-7.1
		c1.5-0.8,3.2-1.2,4.8-1.7c0.5-0.1,0.6-0.3,0.6-0.7c0-1.2-0.6-2-1.5-2.8c-1.6-1.4-3.1-2.9-4.6-4.4c-0.9-0.9-1.7-1.8-2.5-2.8
		c-0.7,1.3-1.6,2.3-2.9,3c-1.8,0.9-3.8,1-5.6,0.4c-1.2-0.4-2.4-0.8-3.4-1.6c-2-1.7-3.4-3.8-3.9-6.6c-0.3-1.9,0.2-3.7,0.8-5.4
		c0-0.1,0.1-0.2,0.3-0.4c0,1.2,0,2.2,0,3.3c0,3,1.3,5.3,3.6,7.2c1.3,1,2.6,1.7,4.3,1.6c1.3-0.1,2.3-0.6,3.1-1.5
		c0.7-0.8,1.3-1.5,1.7-2.1c-0.8-1.8-1.4-3.5-2.1-5.1c-0.2-0.4-0.5-0.8-0.9-1.1c-3.8-2.8-6-6.6-6.9-11.1c-0.5-2.7-0.6-5.4,0.1-8.3
		c-0.6-0.1-1.2-0.2-1.8-0.3c-1-0.3-1.8,0.2-2.6,0.7c-2.6,1.6-5.2,3.1-7.8,4.7c-1.1,0.6-2.3,0.6-3.4,0.4c-1.7-0.3-3.4-0.6-5-1.2
		c-3.6-1.4-6.3-3.8-7.7-7.5c-0.6-1.5-0.7-3-0.9-4.5c-0.1-1.2,0.7-1.9,1.6-2.4c1.7-1,3.5-1.4,5.4-1.6c0.9-0.1,1.8-0.2,2.7-0.2
		c1.9,0,3.8,0.3,5.6,1.1c0.5,0.2,0.9,0.1,1.3-0.3c1.6-1.6,3.2-3.2,4.8-4.7c2.9-2.5,5.9-4.9,9.4-6.5c0.1,0,0.2-0.1,0.1-0.1
		c-1.5-1.3-3-2.6-4.4-4c-0.9-0.9-1.8-1.9-2.5-3c-0.8-1.2-2.1-1.7-3.2-2.4c-2.8-1.8-5.6-3.5-8.3-5.5c-2.1-1.5-4.1-3.3-6-5.1
		c-1.7-1.6-3.2-3.4-4.6-5.2c-1.9-2.4-3.5-5.1-4.8-7.9c-1.6-3.4-2.7-6.9-3.3-10.6c-0.2-1.3-0.3-2.7-0.5-4c0-0.1-0.1-0.2-0.1-0.2
		c0-2.7,0-5.4,0-8.2c0.1-0.1,0.1-0.2,0.1-0.2c0.3-2.2,0.5-4.4,0.8-6.6c0.4-2.7,1.8-4.9,3.7-6.7c2.9-2.6,6.6-3.6,10.4-3.9
		c2.9-0.2,5.8-0.1,8.6,0.5c3.3,0.6,6.5,1.4,9.7,2.3c3.4,1,6.9,1.8,10.4,2c2.6,0.2,5.2,0,7.7-0.6c1.2-0.3,2.6-0.7,3.6-1.5
		c1.9-1.6,4-2.8,6.4-3.3c3.1-0.6,6-0.4,8.8,1c2.4,1.2,5.1,1.9,7.7,2.5c1.8,0.4,3.7,0.8,5.5,0.9c1.6,0.1,3.3,0.2,4.8-0.1
		c1.7-0.3,3.3-1.1,5-1.7c3-1.2,6-2.5,9.1-3.7c2.4-0.9,4.8-1.5,7.3-2.2c0.9-0.3,1.9-0.4,2.9-0.6c1.6,0,3.1,0,4.7,0
		c0.1,0.1,0.2,0.1,0.3,0.2c2.1,0.3,3.9,1.2,5.4,2.6c2.4,2.4,4.3,5.1,5.7,8.3c1.1,2.6,1.8,5.3,2.2,8c0.1,0.6,0.2,1.2,0.3,1.8
		c0,2.4,0,4.7,0,7.1c-0.1,0.6-0.2,1.3-0.3,1.9c-0.4,2.1-0.6,4.2-1.2,6.2c-1,3.7-2.4,7.3-4.1,10.7c-2.3,4.6-5.2,8.8-8.6,12.5
		c-2.5,2.8-5.3,5.5-8.4,7.7c-0.6,0.5-1.4,1-1.7,1.7c-1.1,2.4-2.5,4.7-4.3,6.6c-0.6,0.6-1.2,1.3-1.7,1.9c6.4,3.6,10.9,9.1,15,15.1
		c0.8-0.2,1.5-0.4,2.2-0.5c2.5-0.5,5-0.6,7.4,0.4c1.1,0.5,2.6,1.8,2.3,3.2c-0.2,1-0.4,2.1-0.9,3c-1.5,3.1-4.2,5.1-7.2,6.5
		c-3.3,1.5-6.8,2.3-10.4,2.1c-0.7,0-1.5-0.1-2.1-0.4c-1.8-0.8-2.8-2.5-3.9-4c-1.4-2-2.8-4.1-4-6c-1.2-0.1-2.3-0.2-3.4-0.2
		c0.9,2.4,1.3,4.9,1.2,7.6c-0.1,1-0.2,1.9-0.3,2.8c-0.3,2.6-1,5.1-2.3,7.4c-0.6,1.1-1.3,2.1-1,3.4c0,0,0,0.1,0,0.2
		c-0.4,2.4-1.5,4.5-2.8,6.5c-1.7,2.4-3.5,4.6-5.8,6.5c-1.9,1.6-3.8,3.1-5.7,4.7c-0.3,0.3-0.7,0.9-0.6,1.3c0.1,0.7,0.6,1,1.3,1.2
		c1.7,0.4,3.5,0.6,5.2,1.2c3.8,1.4,6.4,4,7.5,8c0.4,1.4,0.4,2.7,0.3,4.2c-3.2,0.1-6.4,0.3-9.6,0.4c-1.9,0.1-3.8,0-5.7,0
		c-0.1,0-0.2,0-0.3,0c-1.9-0.3-3.7-0.5-5.6-0.8c-0.3,0-0.6,0-0.8,0.1c-2.5,1.1-5.1,1.6-7.7,1.9c-0.6,0.1-1.2,0.2-1.8,0.3
		C200.7,200.7,198.5,200.7,196.2,200.7z M193.1,105.3c-0.1,0.1-0.2,0.2-0.2,0.2c0.1,0.5,0.2,1,0.3,1.5c0.7,2.7,1.8,5.2,4.3,6.7
		c0.9,0.5,1.8,0.8,2.8,1.3c-1.2-2.2-2.2-4.2-3.4-6.1c-0.3-0.5-0.8-1-1.2-1.4C194.9,106.7,194,106,193.1,105.3
		c0.9,0.4,1.9,0.9,2.7,1.3c-0.8-3.2-1.5-6.5-2.3-9.7c-0.1,0.3-0.2,0.6-0.3,0.9c-0.2,1.2-0.4,2.5-0.4,3.7
		C192.8,102.8,193,104,193.1,105.3z M172.3,132.1c-0.1,0.1-0.1,0.1-0.2,0.2c-0.6,0.5-1.2,0.8-1.7,1.4c-1.4,1.5-2.8,3-4.3,4.4
		c0.7,0.6,1.4,1.1,2,1.7c-0.1,0.1-0.2,0.3-0.3,0.4c-0.2-0.1-0.4-0.2-0.6-0.3c-2-1.4-4.3-2.2-6.7-2.4c-2.8-0.2-5.6,0-8.3,1.3
		c-0.6,0.3-1.1,0.8-1.6,1.1c1.5,0.1,3,0.3,4.4,0.4c0.8,0.1,1.4,0.6,1.6,1.4c0.2,0.7-0.1,1.3-0.6,1.7c-0.9,0.8-1.9,1.5-2.9,2.3
		c0.3,0.3,0.6,0.6,0.9,0.8c1.4-0.5,2.7-1.1,4-1.5c1.3-0.4,2.2,0.3,2.1,1.6c-0.1,1.2-0.4,2.4-0.7,3.6c0.6,0.3,0.8,0.2,1.5-0.6
		c0.5-0.5,1-1,1.7-1.3c1.2-0.5,2.5,0.2,2.8,1.4c0.1,0.5,0.1,1,0.2,1.5c2.2-0.8,3.9-2.1,4.4-4.6c0.1,0,0.1,0.1,0.2,0.1
		c0.1,0.6,0.1,1.2,0.2,2.1c2.4-1.7,4.6-3.3,6.8-4.9c-0.3,0.5-0.5,1-0.8,1.6c0.8-0.2,1.5-0.3,2.2-0.6c0.3-0.1,0.6-0.3,0.7-0.6
		c1.1-2.6,2.6-4.8,4.5-6.9c0.8-0.9,1.8-1.7,2.6-2.6c-1.1-1.1-1.9-2.3-1.7-3.9c0.2-1.6,1.3-2.5,2.3-3.3c-1.5-0.3-3-0.7-4.6-1.1
		c-0.2,0-0.5-0.1-0.7,0c-1.8,0.9-3.6,1.7-5.3,2.7C174.8,130.1,173.6,131.1,172.3,132.1z M206,86.9c-0.8-0.5-1.5-1.1-2.4-1.5
		c-3.3-1.5-6.8-1.7-10.4-1.5c2-0.7,4-1.1,5.9-0.9c-1.9-2.2-4.4-3.5-7.3-4c0-0.1,0.1-0.2,0.1-0.3c1.4,0.2,2.8,0.4,4.2,0.6
		c-0.9-2.2-1.4-4.5-1.1-6.9c0.2-1.9,0.7-3.6,2.2-4.8c1.5-1.2,3.5-1.1,4.8,0.1c1.5,1.5,2.2,3.3,2.8,5.3c0.1-0.2,0.2-0.4,0.2-0.6
		c0.2-1.1,0.3-2.3,0.5-3.4c0.3-1.5,0.9-2.9,2-4c1.5-1.4,3.7-1.4,5.4-0.3c1.5,1,2.8,2.1,3.8,3.6c1.3,1.9,2,4,1.6,6.4
		c-0.3,1.6-0.8,3-1.7,4.5c0.7-0.3,1.3-0.5,1.9-0.7c0,0,0,0.1,0.1,0.1c-1.5,1.2-3,2.5-4.5,3.8c1-0.1,2-0.2,3-0.3c0,0.1,0,0.1,0,0.2
		c-3.6,1.3-7.4,2.3-10.8,4.6c1.4,0.1,2.7,0.1,3.9,0.2c-1.4,0.2-2.8,0.3-4.2,0.5c-3,0.4-5.5,1.7-7.6,3.8c-1.5,1.5-2.5,3.4-3.2,5.5
		c-0.1,0.3-0.2,0.7-0.2,1.1c0.1,0.7,0.3,1.3,0.5,1.9c0.2,0.6,0.3,1.3,0.6,2.1c3.1-5.8,7.9-8,14-7.9c-1,0.2-2,0.4-3.1,0.6
		c-4.6,0.9-8.2,3.4-10.7,7.3c-0.1,0.2,0,0.4,0,0.7c3.3-5.2,8.3-7.2,13.9-8.2c-0.1,0.1-0.2,0.2-0.3,0.2c-2.2,0.6-4.2,1.5-6.2,2.7
		c-2.8,1.7-4.9,4.1-6.3,7.1c-0.1,0.3-0.2,0.7-0.1,1c1.2,2.4,2.5,4.7,3.8,7c0.5,0.8,1.2,1.5,1.8,2.4c0.5-6.3,4.4-10.6,8-11.8
		c-2.3,1.4-4.1,3-5.5,5.2c-1.3,2.1-2.1,4.4-2.2,6.9c0.8-2.5,1.6-5,3-7.2c1.5-2.3,4.8-4.9,6-5c0,0-0.1,0.1-0.1,0.1
		c-2.7,1.6-4.5,3.9-5.7,6.7c-0.7,1.7-1,3.4-1.3,5.2c-0.3,1.4-0.1,2.5,1.1,3.3c2.8,2.1,5.7,3.7,9,4.6c0.7,0.2,1.4,0.3,2.1,0.5
		c-1.2-5.7-1.4-11.1,2.2-16c-0.2,0.5-0.5,0.9-0.7,1.4c-1.2,2.7-1.7,5.5-1.6,8.4c0.1,2,0.2,3.9,0.3,5.9c0,0.1,0.2,0.3,0.3,0.5
		c-0.1-2-0.4-3.8-0.3-5.6c0.1-1.8,0.3-3.7,0.6-5.5c0.5-2.4,1.4-4.6,3.1-6.6c0,0.2,0,0.3,0,0.3c-0.4,1.8-0.9,3.5-1.2,5.3
		c-0.2,1.2-0.3,2.4-0.4,3.5c-0.1,1.8-0.1,3.5-0.1,5.3c0,1,0.3,2,0.6,2.9c0,0.2,0.2,0.4,0.4,0.4c0.6,0.1,1.2,0.2,1.8,0.2
		c1.3,0,2.5,0,3.8-0.2c1.3-0.1,2.6-0.3,3.8-0.5c1.7-0.3,3.2-1.1,4.7-2.1c1.1-0.7,2.1-1.6,3.3-2.5c-4.1-1.1-5.6-4.5-5.3-6.7
		c0.1,0.4,0.2,0.9,0.3,1.4c0.7,2.4,2.5,3.8,4.6,4.9c0.2,0.1,0.5,0,0.8,0c0-0.1,0-0.2,0.1-0.2c-3.2-1.4-5.1-3.8-5.7-7.4
		c0.1,0.2,0.3,0.3,0.3,0.5c1.2,2.8,3.3,4.5,6.2,5.2c0.6,0.2,0.9-0.2,1.1-0.5c0.7-1,1.4-2,2-3.1c1.6-2.9,2.1-6,1.9-9.3
		c0-0.2-0.1-0.4-0.2-0.7c-1.6,0.8-5.3,0.1-6.2-0.9c2,0.9,3.9,0.7,5.9,0.7c0.1,0,0.3-0.2,0.4-0.3c-3.7,0.4-7.4-1.1-8.3-3.4
		c4.1,2,6.3,1.7,7.6,0.9c-1.3-2.7-1.9-5.6-2-8.6c-3.3-0.3-5.5-3.3-5-6.5c0.6,3.8,1.9,5.7,5,6.1c-0.1-0.3-0.3-0.5-0.5-0.6
		c-0.7-0.6-1.6-1.1-2.2-1.9c-1.4-1.5-1.8-3.4-2-5.4c0.6,1,1.2,1.9,1.8,2.7c0.7,0.9,1.6,1.7,2.4,2.4c0.5,0.4,1.2,0.6,1.9,0
		c1.1-1,2.3-1.7,3.7-2c0.4-0.1,0.9-0.1,1.4-0.2c-0.6-1.5-0.3-2.8,0.6-3.9c-0.4,1.3-0.4,2.6-0.1,3.9c0.1-0.7,0.1-1.4,0.1-2
		c0.1-0.6,0.3-1.3,0.4-1.9c0.1,0,0.2,0,0.3-0.1c-0.8,3.3,1.2,4.8,3.8,5.9c-0.2-1.4-0.5-2.8,0.2-4c0.6-1,1.4-1.9,2.1-2.8
		c1.2-1.4,2.3-3,2.9-4.9c-0.3,0.1-0.4,0.2-0.5,0.3c-1.3,1-2.8,1.3-4.3,1.4c-1.5,0.2-2.8-0.5-4.1-1.1c-1.9-0.9-3.9-1.3-5.9-0.6
		c-1.6,0.5-3.1,1.1-4.6,1.9c-3.8,2.1-5.8,5.4-6.2,9.7c-0.2,2.3,0.1,4.5,0.9,6.7c0.4,1.2,0.9,2.4,0.9,3.7c0,2.4-0.4,4.7-1,6.9
		c-0.1,0.4-0.2,0.8-0.3,1.4c1.6-0.2,3-0.4,4.3-0.6c0,0,0,0.1-0.1,0.1c-1.3,1.3-3,1.5-4.7,1.7c-1.4,0.2-2.6-0.6-3.8-1.1
		c-1.1-0.5-2.2-1.1-3.1-1.9c-1.9-1.5-2.7-3.7-3.2-6c-0.5-2.1-1-4.2-2-6.1c-1.1-2-2.5-3.6-4.6-4.5c-1-0.4-2-0.7-3-1
		c0.3-0.2,0.7-0.4,1.1-0.5c0.8-0.2,1.6-0.8,2.5-0.2c0.6,0.4,1.2,0.3,1.8,0c0.8-0.3,1.5,0,2.1,0.5c0.7,0.7,1.5,1.2,2.2,1.8
		c-0.6-2.2-2.3-3.5-4.1-4.6c0.6,0.2,1.1,0.4,1.6,0.7c1.7,1.1,3.3,2.4,3.9,4.5c0.1,0.2,0.2,0.5,0.4,0.6c1.9,1.3,3.8,2.5,5.7,3.8
		c0.4,0.3,0.9,0.5,1.3,0.7c-0.3-1.5-0.7-2.9-0.8-4.3c-0.2-2.8,0.2-5.5,1.7-7.9c0.5-0.7,0.7-1.5,0.6-2.4c-0.1-0.8,0-1.7-0.2-2.6
		c-0.3-2-1-3.8-2.4-5.2c-1.9-2-4.5-2.8-7-3.5c-1.7-0.5-3.4-0.7-5.1-1.1c0.3-0.3,0.7-0.6,1.1-0.9c-0.3-0.5-0.5-0.9-0.7-1.2
		c-1-1.9-1.9-3.9-3-5.7c-1.4-2.4-3.2-4.4-5.9-5.5c-2.1-0.9-4.3-1.1-6.6-0.7c-3,0.6-5.4,2.3-7,4.9c-1.5,2.5-2.8,5.2-4.2,7.8
		c-0.3,0.6-0.6,1.1-0.9,1.6c0.5,0.4,1,0.7,1.6,1.1c-0.7,0.1-1.2,0.1-1.8,0.2c-2.5,0.4-4.7,1.4-6.8,2.7c-1.9,1.1-3.5,2.6-4.7,4.5
		c-0.9,1.5-1.3,3.2-1.6,4.9c-0.2,1.8,0,3.4,0.5,5.1c0.7,2.6,2.6,4.3,4.8,5.7c0.8,0.5,1.6,0.1,1.9-0.8c0.6-2.4,2.5-3.8,4.9-4.3
		c-1.6,0.9-3.3,1.6-3.5,3.7c0.8-0.6,1.6-1.3,2.3-2c0.5-0.5,1-0.9,1.9-0.7c1.7,0.5,2.7,1.7,3.7,3c0.8,1.2,0.7,2.2-0.1,3.3
		c-0.3,0.4-0.7,0.8-1,1.2c0.4,0.1,0.8,0.2,1.2,0.2c0.2,0,0.6-0.2,0.7-0.4c0.5-0.9,0.8-1.9,1.3-2.8c1.6-2.8,4.1-4.5,7.3-5.1
		C204.8,87.2,205.4,87,206,86.9c0.1-0.1,0.2-0.1,0.3-0.1c1.8-1.5,3.7-2.8,5.9-3.7c0.4-0.1,0.9-0.3,1.1-0.6c1.1-1.4,2.4-2.7,3-4.4
		c0.5-1.4,0.9-2.8,0.7-4.2c-0.4-3-2.1-5.1-4.5-6.7c-1.2-0.7-2.5-1.1-3.9-0.1c-1.1,0.8-1.5,1.9-1.9,3.1c-1,3.1-1,6.3-1.1,9.4
		C205.6,82,205.8,84.4,206,86.9z M228.8,133.9c0.1-0.1,0.1-0.2,0.2-0.3c1.6-1,2.1-3,1-4.5c-0.8-1.2-2-2.2-3-3.2
		c-0.1-0.1-0.3-0.1-0.4,0c-2.2,0.4-4.4,0.4-6.6,0.2c-2.7-0.2-5.2-0.9-7.7-1.9c-0.2-0.1-0.4-0.2-0.7-0.2c-1.6,0-3.1,0.2-4.7,0.1
		c-1.1-0.1-2.2-0.5-3.2-1c-0.8-0.4-1.4-1.1-2.1-1.6c-0.8-0.7-1.7,0-2.6-0.4c-0.2-0.1-0.4-0.1-0.5-0.1c-2.1-0.4-4.1-1.1-5.7-2.7
		c-1.5-1.4-2.3-3.3-3-5.2c-1.4-3.4-2.9-6.7-4.4-10c-0.4-0.9-1.1-1.8-1.7-2.6c-2,1.2-3.9,2.4-5.9,3.4c-3.7,1.9-7.3,1.1-10.3-1.7
		c-2.1-2-3.5-4.3-4.2-7.1c-0.3-1.2-0.4-2.5-0.5-3.7c0.1,0,0.2,0,0.3-0.1c0.1,0.1,0.1,0.1,0.2,0.2c1.2,2.7,3.3,4.4,6,5.4
		c1.7,0.7,3.4,0.9,5.2,0.6c2-0.3,3.7-1.4,5.5-2.2c0.4-0.2,0.4-0.5,0.2-0.9c-1.6-3.8-3.4-7.5-3.7-11.7c-0.1-1.6-0.1-3.2,0.1-4.7
		c0.2-1.2,0.7-2.3,1.1-3.4c-0.3,0-0.6,0-0.9,0c-1.3-0.1-2.4-0.5-3.3-1.7c-1.6-2.3-3.7-4.2-5.9-5.9c-2.5-1.9-5.2-3.5-8.1-4.7
		c-3.3-1.3-5-1.2-7.4,1.5c-2.1,2.4-3.2,5.3-4.1,8.4c-0.5,1.9-0.8,3.8-1.2,5.7c0-0.4-0.1-0.8-0.1-1.2c-0.1-2.5,0-5,0.6-7.4
		c0.8-3.5,2.1-6.7,4.8-9.2c1.6-1.5,3.5-2,5.6-1.7c2.7,0.4,5.2,1.6,7.5,3c3.7,2.3,7.2,4.8,10.3,8c0.2,0.2,0.4,0.4,0.7,0.5
		c1.7,0.9,3.6,0.7,5.4,0.6c0.3,0,0.6-0.1,0.8-0.2c1.9-1.2,4-2,6.2-2.5c1.1-0.2,1.5-0.8,1.9-1.7c0.8-2.2,1.8-4.3,2.7-6.4
		c0.2-0.4,0.4-0.8,0.7-1.3c-1.1,0.1-2.1,0.3-3.1,0.3c-1.2,0-2.4-0.1-3.6-0.1c-1.8-0.1-3.6-0.2-5.3-0.5c-2.1-0.3-4.2-0.8-6.3-1.2
		c-4.8-1.1-9.6-2.3-14.5-2.7c-2.6-0.2-5.2-0.2-7.7,0.4c-3.3,0.7-5.9,2.4-7.4,5.6c-0.8,1.6-1.2,3.4-1.3,5.2c-0.2,2.5-0.6,4.9-0.6,7.4
		c0,2.5,0.2,5.1,0.6,7.6c0.3,2.2,0.8,4.4,1.5,6.5c0.9,2.7,2,5.3,3.5,7.8c1.6,2.8,3.5,5.4,5.7,7.8c1.5,1.6,3.1,3.2,4.8,4.6
		c1.8,1.5,3.6,3,5.5,4.3c2,1.4,4.3,2.6,6.3,4c2.1,1.6,4.2,3.3,6.2,5c2.2,2,4.6,3.5,7.5,4.2c2.1,0.6,4.2,0.6,6.4,0.2
		c1.5-0.3,3-0.7,4.5-1.1c-0.6,0.4-1.2,0.6-1.8,0.9c-2.7,1.3-5.5,2.4-7.5,4.7c-1.4,1.5-1.1,2.8,0.4,3.8c0.2,0.1,0.6,0.1,0.8,0
		c0.8-0.4,1.6-1,2.4-1.4c2.3-1.3,4.7-2.2,7.3-2.6c1.4-0.2,2.8-0.3,4.3-0.5c-0.7,0.3-1.3,0.6-2,0.7c-4.5,1-8.6,3-12.3,5.8
		c-2.7,2-4.7,4.5-6.2,7.4c-1.5,2.9-2,6-2.1,9.2c0,1.5,0.2,3,0.5,4.5c0.5,2.8,1.7,5.3,3.5,7.4c2.3,2.7,5.2,4.4,8.4,5.6
		c4.4,1.7,9.1,2.5,13.9,2.7c2.6,0.1,5.2,0,7.7-0.2c1.9-0.1,3.7-0.4,5.6-0.8c5.1-1.2,9.9-3.2,13.3-7.4c1.1-1.4,2-3,2.7-4.6
		c0.8-1.7,1.2-3.6,1.3-5.5c0-1.5,0.3-3.1,0.1-4.6c-0.4-2.7-1.3-5.2-2.7-7.6c-1.5-2.5-3.3-4.7-5.6-6.5c-2.1-1.7-4.5-3-7.1-4
		c-3-1.1-6.1-1.9-9.4-2c-1.1-0.1-2.2-0.1-3.3-0.2c0-0.1,0-0.1,0.1-0.2C215.9,128.1,222.6,130.3,228.8,133.9z M228.2,125.6
		c0.4,0.1,0.7,0.2,0.9,0.2c1.5,0,2.9,0.1,4.4,0c2.4-0.1,4.6-1,6.6-2.3c2.6-1.7,4.6-4.1,6.4-6.7c0.6-0.9,1.1-1.8,1.9-2.5
		c1.4-1.3,2.9-2.4,4.3-3.7c2.1-2.1,4.1-4.2,6-6.4c2.4-2.8,4.4-5.9,6.1-9.1c2.2-4.2,3.8-8.6,4.9-13.2c0.7-3,1-6,1.1-9
		c0-1.3-0.1-2.7-0.1-4.1c-0.1-1.2-0.1-2.4-0.3-3.5c-0.5-2.2-1.1-4.4-1.9-6.5c-1-2.6-2.5-4.9-4.9-6.5c-3.1-2-6.5-2.3-10.1-2
		c-2.4,0.2-4.7,0.8-7,1.7c-3.1,1.2-6.1,2.5-9.2,3.8c-2.8,1.2-5.4,2.6-8.6,2.9c-2.3,0.2-4.6,0.1-6.8-0.3c-1.5-0.3-3-0.7-4.5-1
		c0.3,0.4,0.5,0.8,0.7,1.1c1.1,2.2,2.2,4.4,3.4,6.6c0.2,0.3,0.6,0.6,0.9,0.7c1.4,0.4,2.8,0.7,4.1,1.1c1.2,0.4,2.5,0.8,3.7,1.2
		c0.5,0.2,1.1,0.1,1.7,0.1c1.1,0,2.2,0.1,3.2-0.6c1.3-0.9,2.5-1.9,3.8-3c1.4-1.2,2.7-2.5,4.1-3.6c2.3-1.8,4.7-3.5,7.1-5
		c1.7-1.1,3.7-1.9,5.8-2c3-0.1,5.3,1.4,7.2,3.5c2,2.2,3.1,4.9,3.7,7.8c0.5,2.1,0.7,4.1,1,6.2c0.2,2.3,0.3,4.5,0.4,6.8
		c-0.1,0-0.2,0-0.3,0c0-0.2-0.1-0.5-0.1-0.7c0-0.5,0.1-1.1,0-1.6c-0.4-2.4-0.8-4.8-1.4-7.1c-0.9-3.4-2.4-6.7-5.1-9.2
		c-2.6-2.4-5.1-2.9-8.4-1.6c-2.3,0.9-4.4,2.2-6.4,3.6c-1.4,1-2.7,2.1-3.9,3.3c-1.4,1.3-2.7,2.7-4,4c-1.2,1.2-2.1,2.8-4.1,3.1
		c1.2,2,1.7,4.2,1.3,6.5c2.5-2.2,4.2-3.3,7.5-4.3c2-0.6,4-0.8,6,0c1.4,0.5,2.8,1.1,4.2,1.6c2.4,0.8,4.3,0.1,5.7-2
		c0.5-0.7,0.9-1.5,1.3-2.2c0.4-0.7,0.9-1.4,1.3-2.3c0.1,0.4,0.2,0.6,0.3,0.9c1.5,3.9,2.7,7.8,2.2,12c-0.2,1.8-0.7,3.6-1.7,5.1
		c-1.9,2.9-4.8,4.4-7.9,5.8c-0.3-4.7-3.7-6.1-7.2-4.8c-0.1,1.4-0.2,2.8-0.5,4.2c-0.3,1.7-0.8,3.3-1.2,5c-0.1,0.3-0.1,0.7,0,1
		c1.5,3.3,1.6,6.7,0.8,10.1c-1.1,5.2-3.9,9.5-8.3,12.6C235.3,123.5,232,124.7,228.2,125.6z M231.6,128.6c1.5,2.5,0.6,4.5-1,6.4
		c0.4,0.3,0.7,0.5,1,0.8c1.5,1.5,3.2,2.9,4.3,4.8c0.2,0.4,0.5,0.9,0.8,1c1,0.4,2,0.5,3,0.8c0-0.1,0.1-0.1,0.1-0.2
		c-0.7-1.1-1.4-2.2-2-3.3c0.6,0.5,1.1,1.1,1.7,1.6c0.7,0.7,1.5,1.3,2,2.1c1.3,1.8,2.5,3.8,3.9,5.5c0.9,1.2,2.1,2.2,3.3,3.2
		c0.5,0.4,1.3,0.6,1.8,0.8c0.3-1,0.5-1.9,0.9-2.7c0.4-0.9,1.1-1.2,2.1-0.8c1.3,0.4,1.9,1.6,2.6,2.7c0.3,0.5,0.6,0.9,1.2,0.6
		c-0.3-0.6-0.6-1.2-0.8-1.9c-0.2-0.9-0.3-1.9,0.3-2.8c0.7-1,2.1-1.2,3.4-0.3c1.2,0.8,2.3,1.7,3.4,2.5c0.2-0.1,0.4-0.3,0.6-0.5
		c-0.8-0.7-1.6-1.2-2.3-1.9c-0.7-0.6-1.1-1.5-0.8-2.4c0.3-0.8,0.9-1.4,1.7-1.4c1-0.1,2,0.1,3,0.2c0.7,0.1,1.3,0.4,2,0.6
		c0.3-1.7,0.1-2.2-1.4-2.7c-1.3-0.4-2.6-0.6-4-0.8c-1-0.1-2,0-2.9,0.1c-1.2,0.1-2.3,0.3-3.4,0.4c-0.8,0.1-1.6,0.2-2.4,0.4
		c0-0.1,0-0.1,0-0.2c0.9-0.4,1.9-0.8,2.9-1.3c-1.9-2.1-3.7-4.1-5.5-6.2c-0.1,0.1-0.1,0.1-0.2,0.2c0,0.1,0,0.3,0,0.4
		c0,1.1-0.5,1.7-1.7,1.5c-1.1-0.2-2.2-0.7-2.8-1.7c-0.4-0.6-0.3-1.1,0.3-1.6c0.5-0.4,1.3-0.4,1.6,0.2c0.3,0.4,0.5,0.9,0.7,1.4
		c-1-1.1-1.3-1.2-2-0.8c0.3,0.9,1.3,1.6,2.2,1.7c0.8,0,1.1-0.3,0.8-1.1c-0.2-0.6-0.5-1.1-0.9-1.5c-0.6-0.6-1.2-1.1-1.9-1.6
		c-2.3-1.6-4.6-3.2-7-4.8C237.6,127.7,234.7,128.4,231.6,128.6z M213.9,174.1c-8.8,0.5-17.4-0.3-25.6-4.4c0.2,0.4,0.2,0.7,0.4,0.9
		c1.1,2,2.1,4.1,3.7,5.8c1.6,1.6,3.2,3.2,4.8,4.8c1.3,1.3,2.7,2.5,4.1,3.8c0,0-0.1,0.1-0.1,0.1c-0.5-0.1-0.9-0.3-1.5-0.4
		c0.1,0.6,0.1,1.2,0.2,1.7c1.4,0.2,2.7,0.3,3.9,1.5c-1-0.2-1.9-0.4-2.7-0.5c-1.8-0.2-3.6,0.3-5.2,1c-2.4,1.1-4.5,2.5-5.9,4.7
		c-0.7,1.1-1.1,2.4-0.9,3.8c0.2,0,0.4,0.1,0.6,0.1c0.4-0.9,0.8-1.7,1.3-2.5c0.6-0.9,1.2-1.8,2.4-2.1c0.8-0.2,1.4-0.1,1.7,0.7
		c0.3,0.8,0.5,1.7,0.6,2.5c0.1,1,0,2,0,3.1c0.6,0.1,1.2,0.2,1.8,0.3c0-0.1,0.1-0.1,0.1-0.2c0-0.1,0.1-0.2,0.1-0.4
		c0.4-1.7,0.7-3.3,1.7-4.7c0.5-0.8,1.1-1.4,2.1-1.3c0.9,0.1,1.3,0.8,1.4,1.6c0.3,1.7,0.6,3.4,0.9,5.1c0.6-0.1,1.4-0.1,2.3-0.2
		c0.1-0.7,0.2-1.4,0.3-2.1c0.3-1,0.6-2,1-3c0.1-0.3,0.7-0.7,1-0.7c0.3,0,0.8,0.4,1,0.8c0.4,1,0.5,2,0.8,3c0.1,0.2,0.2,0.6,0.3,0.7
		c0.3,0.2,1.4-0.6,1.6-1c0.4-1.1,0.1-2.1-0.3-3.1c-0.4-1.2-1.1-2.2-1.7-3.3c1,0.6,1.7,1.7,2.4,2.9c0-0.6,0-1.1,0-1.5
		c-0.1-1.4-0.3-2.8-0.3-4.3c0-2.4,0.2-4.9,0.3-7.3C212.4,177.8,212.9,175.9,213.9,174.1z M232.1,167.1c-0.3,0.2-0.5,0.2-0.6,0.4
		c-1.9,1.7-4.1,3-6.5,4c-2.5,1-5,1.8-7.7,2.1c-1.2,0.2-2.2,0.4-2.7,1.7c-1.1,2.9-1.7,5.9-1.7,9c0,3.2,0.2,6.3,0.3,9.5c0,1,0,2,0,3.1
		c3.5,0.6,7,0.7,10.3,0.7c0.4-1.3,0.6-2.6,1-3.7c0.8-1.8,2.5-1.9,3.7-0.4c1,1.2,1.5,2.6,1.6,4c0.6,0,1.2-0.1,1.8-0.1
		c0-1.2,0-2.3,0-3.5c0-0.2,0-0.5-0.1-0.7c-0.7-1.6-1.7-3-3.2-4c-1.2-0.7-2.5-1.4-3.8-1.9c-2.2-0.8-4.5-1.2-6.8-0.8
		c-0.7,0.1-1.3,0.1-2,0.2c0-0.1,0-0.1,0-0.2c0.9-0.3,1.8-0.7,2.6-1c0-0.7,0-1.3,0-1.9c-0.8,0.2-1.5,0.4-2.3,0.6c0,0,0-0.1,0-0.1
		c1.3-0.7,2.6-1.4,4-2.1c-1.2-0.6-1.4-1.6-0.7-2.8c0.8-1.2,2.2-1.8,4.4-0.4C227.4,175.6,230.3,171.8,232.1,167.1z M194,92.7
		c-0.9-1-1.5-1.9-2.2-2.7c-0.4-0.4-0.9-0.7-1.6-0.3c-1.7,1.2-3.3,2.4-5.1,3.5c-3.1,1.8-6.3,3.6-9.6,5.3c-1.6,0.8-3.3,0.9-5.1,0.6
		c-2-0.4-3.6-1.4-5.2-2.7c0,0.1,0,0.2,0,0.3c0.9,1.6,1.9,3.1,3.3,4.3c1.3,1.1,2.7,1.9,4.4,2c2.2,0.2,4.2-0.2,6.1-1.4
		C183.9,98.7,188.8,95.8,194,92.7z M205.8,86.7c-0.1-1.2-0.3-2.2-0.3-3.2c-0.2-2.8-0.4-5.5-0.6-8.3c0-0.2,0-0.4,0-0.5
		c-0.9-1.8-1.5-3.8-3.1-5.2c-0.8-0.7-2-0.9-2.9-0.3c-1.9,1.2-2.7,3.1-2.8,5.2c-0.1,1.9,0.5,3.8,1.5,5.4c1,1.6,1.9,3.2,3.9,3.8
		C203.2,84.1,204.5,85.2,205.8,86.7z M191.6,99.9c-0.1-1.7,0.2-2.8,1.2-4.1c-0.7,0.1-1.5,0.1-2.1,0.5c-2,1.1-3.9,2.3-5.8,3.4
		c1.5,2.7,3.1,5.2,4.5,7.9c1.3,2.4,2.4,4.8,3.6,7.2c0.8,1.6,1.9,2.9,3.6,3.4c2.2,0.7,4.4,0.7,6.6,0.6c0.2,0,0.3-0.1,0.6-0.2
		c-0.6-0.6-1.2-1.2-1.7-1.7c-0.2-0.1-0.4-0.2-0.6-0.2c-0.8-0.1-1.5-0.1-2.3-0.3c-5.3-1.3-7.9-5-8.1-10.2c-0.1-2,0.3-4,0.8-6
		c0.2-0.7,0.3-1.4,0.5-2.1c-0.1,0-0.1,0-0.2,0C192.1,98.7,191.8,99.3,191.6,99.9z M221.2,89c0.1,0.2,0.1,0.3,0.2,0.4
		c1.4,1.8,2.2,3.9,2.9,6c0.1,0.4,0.4,0.7,0.7,0.9c1.4,0.9,2.8,1.8,4.2,2.6c1.3,0.8,2.7,1.4,4.1,2.2c0-1,0-1.9,0-2.9
		c0-0.9-0.3-1.7-1.3-2.2c-1.1-0.5-2.1-1.2-3.1-1.9C226.4,92.5,223.8,90.8,221.2,89z M256.9,89.6c3.8-1.4,5.9-5.3,5.7-9.6
		C257.6,82.2,256,87.1,256.9,89.6z M202.6,198.9c-0.2-1.4-0.2-2.8-0.5-4.2c-0.1-0.4-0.6-0.9-1-1c-0.5-0.2-1,0.2-1.3,0.7
		c-0.8,1.4-1.2,2.9-1.5,4.5C199.7,198.9,201.1,198.9,202.6,198.9z M194.8,198.5c-0.2-1.4-0.3-2.6-0.5-3.8c-0.3-1.4-0.9-1.6-2-0.8
		c-1.2,0.8-1.6,2-2.1,3.4C191.7,197.6,193.1,198,194.8,198.5z M150.6,140.9c0.2,1.5,1,2.8,1.8,3.9c0.1,0.1,0.4,0.1,0.5,0
		c0.6-0.3,1.2-0.7,1.8-1.1c0.6-0.4,1-0.9,0.9-1.7c-0.1-0.8-0.8-1.1-1.4-1.1C153,140.8,151.9,140.9,150.6,140.9z M262.5,150.3
		c0-0.1,0.1-0.2,0.1-0.3c-1.1-0.8-2.1-1.6-3.2-2.3c-0.6-0.4-1.4-0.4-1.9,0.1c-0.3,0.3-0.4,1-0.3,1.5c0.1,0.5,0.5,1,0.6,1.5
		c0.2,0.8,0.7,0.9,1.4,0.6C260.3,151.1,261.4,150.7,262.5,150.3z M267.8,145.1c-1.7-0.5-3.1-1-4.6-0.7c-0.4,0.1-0.9,0.6-1,1
		c-0.1,0.3,0.2,0.9,0.5,1.2c0.7,0.6,1.4,1.1,2.2,1.6c0.1,0.1,0.5,0.1,0.6,0C266.2,147.2,266.9,146.2,267.8,145.1z M224.2,197.5
		c1.8,0,3.3,0,5,0c-0.2-0.7-0.4-1.4-0.6-2c-0.4-0.8-1-1.4-2-1.5c-0.7,0-1.3,0.3-1.6,0.9C224.7,195.8,224.5,196.6,224.2,197.5z
		 M229.8,104.6c0.3-0.8,0.5-1.5,0.8-2.1c0.2-0.5,0.1-0.8-0.4-1c-0.8-0.4-1.6-1-2.4-1.5c-0.4-0.3-0.8-0.5-1.2-0.8
		c-0.4-0.2-0.8-0.5-1.4-0.8C226.1,101,227.8,102.8,229.8,104.6z M158.4,149.9c0.2-0.5,0.4-0.9,0.5-1.2c0.1-0.7,0.3-1.5-0.3-2.1
		c-0.6-0.6-1.4-0.7-2.2-0.3c-0.6,0.3-1.2,0.6-2,1C155.8,148.2,157.1,149,158.4,149.9z M209.4,197.8c-0.1-0.9-0.2-1.8-0.4-2.6
		c-0.1-0.3-0.4-0.7-0.6-0.7c-0.3,0-0.8,0.2-1,0.5c-0.6,1.1-0.9,2.2-0.8,3.5C207.5,198.3,208.4,198.1,209.4,197.8z M255.2,152.3
		c0-0.1,0-0.2,0.1-0.3c-0.3-0.6-0.6-1.2-1-1.7c-0.3-0.4-0.7-0.7-1.1-0.8c-0.7-0.2-1.3,0.4-1.3,1.4c-0.1,1.4,0.1,1.4,1,1.4
		c0.4,0,0.7,0,1.1,0C254.4,152.3,254.8,152.3,255.2,152.3z M202.7,121.1c0.7,0.9,4.9,1.9,6.4,1.5c-0.8-0.5-1.6-1-2.3-1.6
		c-0.5-0.5-1-0.5-1.7-0.4C204.3,120.8,203.5,120.9,202.7,121.1z M164.1,151.4c0.1-0.4,0.2-0.8,0.2-1.2c0-1-0.7-1.5-1.6-1
		c-0.7,0.4-1.2,1-1.9,1.6c0.8,0.2,1.3,0.3,1.7,0.4C163.1,151.3,163.6,151.3,164.1,151.4z M222.7,179.9c0-0.1,0-0.3-0.1-0.4
		c-0.8-0.8-2.4-0.5-2.8,0.6c-0.1,0.3,0.1,0.9,0.1,0.9c0.5,0,1,0,1.4-0.2c0.2-0.1,0.5-0.6,0.4-0.7c-0.2-0.3-0.5-0.4-0.8-0.6
		c0-0.1,0-0.1,0-0.2C221.5,179.5,222.1,179.7,222.7,179.9z M244.6,93c0.7-1.4,1.5-2.7,2.2-4.1C244.9,89.6,244.6,91.2,244.6,93z
		 M181.2,92.3c0.3,0.6,0.6,1.1,0.9,1.6c0.5-0.3,1-0.7,1.5-1C182.8,92.7,182.1,92.5,181.2,92.3z"/>
	<path d="M172.3,132.1c0.3-0.1,0.7-0.1,1-0.2c-0.4,0.7-0.8,1.4-1.2,2.2c-0.3,0.6,0,1,0.7,1c1,0,1.8-0.5,2.3-1.7
		c-0.6,0-1.1-0.1-1.7-0.1c0.4-0.5,0.8-0.9,1.5-0.7c0.5,0.2,0.9,0.7,0.7,1.3c-0.1,0.3-0.3,0.6-0.5,0.8c-0.6,0.8-1.6,1-2.5,1.1
		c-1.2,0.1-1.8-1-1.2-2.2c0.2-0.5,0.5-0.9,0.8-1.4C172.2,132.2,172.3,132.1,172.3,132.1z"/>
	<path d="M206.9,63.2c1.4-2.7,4.2-3.7,6.8-2c2.3,1.5,3.8,3.6,4.4,6.3c0.1,0.4,0,0.7,0,1.3c-0.5-0.8-0.8-1.5-1.2-2.1
		c-0.8-1.2-1.7-2.4-2.9-3.3C211.7,61.8,209.4,61.8,206.9,63.2z"/>
	<path d="M194.6,70.2c-0.1-1.6-0.1-3.2,0.6-4.7c1-2.1,2.4-2.4,4.3-1.2c1,0.7,1.9,1.6,2.9,2.5c-1.6-0.6-3.2-1.3-5-0.6
		C195.4,66.8,195.1,68.6,194.6,70.2z"/>
	<path d="M201.3,179.9c-0.2,0.7-0.3,1.4-0.4,2c-0.1,0.6,0.2,1.1,0.9,1.2c0.5,0.1,1.1,0.2,1.6,0.1c0.6-0.1,0.9-0.6,0.9-1.3
		c0-0.6-0.2-1.1-0.9-1.3c-0.6-0.1-1.1,0.3-1.2,1.1c0,0.2,0,0.4,0,0.7c-0.6-0.8-0.4-1.8,0.5-2.4c0.7-0.5,1.4-0.3,2,0.6
		c0.8,1.2,0.5,2.7-0.7,3.5c-1,0.6-2.8,0.2-3.4-0.8c-0.6-1-0.1-1.9,0.3-2.8C201,180.4,201.2,180.2,201.3,179.9z"/>
	<path d="M212.7,78.4c-0.1,1.8-0.7,3.2-2.1,4.1c-1,0.6-2.3,0.1-2.7-1.4c-0.6-2,0-3.8,1.5-5.2c0.6-0.6,1.3-0.6,1.9-0.3
		c-0.3,0.4-0.7,0.8-1,1.3c-0.1,0.3,0,0.7,0.1,1C210.9,78.7,211.6,78.8,212.7,78.4z"/>
	<path d="M201.9,76.1c-0.8,0.3-1.3,0.9-1.3,1.6c0,0.6,0.6,1.2,1.2,1.3c0.7,0.1,1.4-0.4,1.7-1.2c0.7,1.2,0.9,2.5,0.5,3.8
		c-0.6,1.6-2,1.9-3.3,0.8c-1.3-1.1-2.1-4.1-1-5.8C200.2,75.9,201,75.6,201.9,76.1z"/>
</g>
<path d="M168.8,31.2c0.4-0.2,0.3-0.5,0.1-0.9c-0.1-0.3-0.1-0.6-0.2-0.9c-0.1-0.2-0.1-0.4-0.3-0.5c-1.2-1-2.5-1.9-3.8-2.8
	c-0.1-0.1-0.2-0.1-0.3-0.2c0-0.1,0.1-0.1,0.1-0.2c0.7,0.4,1.4,0.7,2,1.2c0.8,0.6,1.5,1.2,2.1,1.9c0.5,0.6,1,0.3,1.5,0.1
	c0.3-0.1,0.5-0.5,0.5-0.8c0.1-1.1,0.1-2.2-0.4-3.2c0-0.1-0.1-0.1,0-0.2c0.8,0.8,0.8,1.8,0.6,2.9c-0.1,1.1-0.2,2.2,0.6,3.2
	c0.2-0.4,0.3-0.8,0.5-1.1c0.1-0.4,0.2-0.7,0.3-1.1c0.2-2.5,1.4-4.6,2.9-6.7c2.4-3.4,5-6.6,8.4-9.1c1.6-1.2,3.4-2.2,5.4-2.5
	c0.4-0.1,0.8,0,1.2-0.1c0.8-0.1,1.2,0.3,1.5,1c0.4,1,0.5,2,0.1,3.1c0,0.1-0.1,0.2-0.1,0.2c0.1,0.7,0.1,1.4,0.3,2
	c0.3,1.1,0.5,2.1-0.1,3.2c0,0.1-0.1,0.2-0.1,0.3c0.4,0.6,0.1,1.2,0,1.8c0,0.2,0,0.4,0.1,0.7c0.2,0.8,0.5,1.6,0.7,2.4
	c0.2,0.8,0,1.5-0.8,2c-0.9,0.5-1.8,0.9-2.8,1.2c-2.3,0.6-4.7,1-7,1.5c-0.5,0.1-1,0.3-1.5,0.5c0,0.1,0,0.2,0.1,0.3
	c0.6-0.2,1.3-0.3,1.9-0.5c1.8-0.7,3.6-0.6,5.4-0.1c1.4,0.4,2.5,1.1,3.3,2.3c1.3,2,1.9,4.1,2.3,6.4c0.1,0.5-0.3,1-0.3,1.6
	c-0.1,0.6-0.2,1.2-0.1,1.9c0,0.5,0,0.7-0.5,1c-0.7,0.4-1.3,0.9-1.6,1.7c-0.1,0.2-0.2,0.3-0.4,0.4c-0.8,0.4-1.6,0.8-2.4,1.3
	c-1.8,0.9-3.6,0.7-5.2-0.3c-2.3-1.4-4.1-3.3-5.8-5.4c-0.7-0.8-1.3-1.7-2.1-2.5c-0.3-0.3-0.8-0.6-1.2-0.8c0,0.1-0.1,0.1-0.1,0.2
	c0,0.1,0.1,0.1,0.1,0.2c0.3,0.5,0.4,0.9,0.3,1.5c-0.1,1,0,2,0.3,3c0.3,1.2,0.9,2.3,1.4,3.4c0.1,0.3,0.3,0.5,0.5,0.8
	c0.1,0,0.1,0,0.2,0c0.1-0.2,0.2-0.5,0.1-0.7c-0.3-1.1-0.7-2.2-1.1-3.4c-0.2-0.7-0.8-3.7-0.9-4.4c0.9,2.4,2.7,6.9,2.5,9.6
	c-0.1,0.8-0.5,1.3-1.3,1.6c-1,0.4-2,0.4-2.9,0c-0.4-0.2-0.7-0.8-1-1.2c-0.1-0.1,0-0.3-0.1-0.3c-1.2-0.6-2-1.7-2.8-2.7
	c-0.8-1-1.4-2.2-0.8-3.7c0.3-0.8,0.7-1.5,1.6-1.9c0.3-0.1,0.4-0.5,0.7-0.6c0.5-0.4,1.1-0.7,1.8-1.1c-0.4,0-0.8-0.2-1-0.1
	c-1.3,0.3-2.4,1-3,2.3c-0.6,1.2-1.5,1.4-2.3,0.1c-1.4-2-2.9-4-4.3-6c-0.1-0.2-0.3-0.3-0.6-0.4c-1.3-0.5-2.2-1.3-3.1-2.3
	c-1-1.1-1.9-2.1-2.9-3.2c-0.1-0.1-0.1-0.2-0.2-0.3c-0.5-0.9-1-1.9-1.5-2.8c-0.2-0.5-0.1-1.7,0.4-2c0.2-0.1,0.6-0.1,0.8,0
	c1.7,0.9,3.4,1.7,5.1,2.8C162.6,27.2,165.6,29.2,168.8,31.2z M183.8,24.4c-0.7,0.1-1.9,0.1-3.1,0.4c-0.6,0.1-1.2,0.4-1.7,0.8
	c-1.8,1.7-3.6,3.5-5.4,5.2c-0.1,0.1-0.2,0.2-0.3,0.3c0,0.3-0.1,0.5,0,0.8c0,0.1,0.4,0.2,0.5,0.2c0.3,0,0.6-0.1,0.8-0.2
	c2.2-1,4.4-2,6.6-3c1.2-0.6,2.3-1.1,3.6-1.2c1-0.1,1.9-0.3,2.9-0.4c0.5-0.1,0.9-0.3,1-0.8c0-0.6-0.1-1.2-0.2-1.8
	c0,0-0.2-0.1-0.3-0.1C187,24.4,185.6,24.4,183.8,24.4z M180,20.6c-0.8,0.1-1.5,0.1-2.2,0.3c-0.5,0.1-1.1,0.2-1,1
	c0,0.1-0.2,0.3-0.2,0.4c-0.8,1.3-1.7,2.5-2.5,3.8c-0.3,0.5-0.4,1.1-0.6,1.6c-0.2,0.7-0.2,1.4-0.4,2c0,0.2-0.1,0.4-0.2,0.7
	c0.3,0,0.5-0.1,0.6-0.2c1.5-1.6,3-3.2,4.6-4.7c1.1-1.1,1.6-2.6,1.9-4.1C180,21.1,180,20.9,180,20.6z M185.2,23.8c0,0.1,0,0.2,0,0.2
	c0.8-0.1,1.6-0.2,2.3-0.2c1.1-0.1,1.4-0.4,1.4-1.5c0-0.3,0-0.6-0.1-0.9c-0.1-0.9-0.5-1.1-1.4-0.9c-0.4,0.1-0.9,0.2-1.3,0.3
	c-1.6,0.2-3.2,0.4-4.8,0.7c-1.1,0.2-1.3,0.6-1.4,1.7c-0.1,1,0.3,1.2,1.2,1.1C182.6,24.1,183.9,24,185.2,23.8z M173.9,34.9
	c-0.1,1.1,0.5,1.8,1.2,2.4c0.7,0.6,1.5,1.2,2.1,1.8c1.5,1.4,2.9,2.8,3.9,4.7c0.3,0.6,1.1,0.8,1.6,0.4c0.6-0.4,0.2-0.9-0.1-1.2
	c-0.7-1.1-1.4-2.1-2.1-3.2c-0.7-1.2-1.5-2.2-2.7-2.8c-1.1-0.7-2.2-1.3-3.4-2C174.4,34.9,174.2,34.9,173.9,34.9z M179.6,37.3
	c1.1,1.7,2.3,3.4,3.3,5c0.3,0.5,0.7,1,1,1.6c0.2,0.5,0.5,0.7,0.9,0.7c0.5,0,0.9-0.1,1.3-0.2c0.9-0.4,1.1-0.9,0.5-1.7
	c-1.1-1.4-1.9-3-3.5-4.1c-0.9-0.6-1.8-0.7-2.7-1.2C180.2,37.3,179.9,37.4,179.6,37.3z M185.1,37.3c-0.1-0.9-1.5-2.4-2.2-2.5
	c-0.1,0-0.1,0-0.2,0c-0.5,0.1-0.8-0.1-1.2-0.4c-0.3-0.2-0.6-0.5-0.9-0.5c-1.8,0-3.5,0.1-5.3,0.2c-0.2,0-0.4,0.3-0.6,0.5
	c0.1,0.1,0.3,0.3,0.5,0.4c0.4,0.2,0.8,0.3,1.2,0.5c1.7,0.6,3.3,1.3,5,1.8C182.6,37.5,183.8,37.7,185.1,37.3z M186.5,20.1
	c2.2-0.1,2.7-0.3,1.8-2.5c-0.2-0.6-0.6-0.8-1.2-0.6c-1.8,0.7-3.5,1.3-5.2,2c-0.4,0.2-0.7,0.7-1,1.2c-0.3,0.6-0.1,0.9,0.6,0.9
	c0.8-0.1,1.5-0.3,2.2-0.4C184.6,20.5,185.6,20.3,186.5,20.1z M186.5,34.6C186.5,34.6,186.5,34.6,186.5,34.6c0.8-0.1,1.7,0,2.5-0.1
	c0.2,0,0.4-0.2,0.4-0.3c-0.2-1.3-1.2-2.1-2.6-2c-0.4,0-0.8,0-1.2,0.1c-1.1,0.2-2.1,0.3-3.2,0.5c-0.2,0-0.6,0.3-0.6,0.5
	c0,0.2,0.2,0.6,0.4,0.7c0.6,0.3,1.2,0.5,1.8,0.6C184.9,34.7,185.7,34.6,186.5,34.6z M191,40c0-1-0.3-1.3-1.1-1.5
	c-1.1-0.2-2.1-0.5-3.1-1.1c-0.2-0.2-0.8,0.1-1.1,0.1c0.1,0.3,0,0.8,0.2,1c1.2,1.1,2.5,2.1,3.8,3.2c0.4,0.3,0.7,0.2,0.8-0.2
	C190.7,40.9,190.9,40.3,191,40z M165.2,37.1c0.3,0.5,0.5,1.1,0.8,1.6c0.3,0.5,0.6,0.4,0.9,0c0.4-0.5,0.9-1,1.4-1.5
	c0.4-0.4,0.8-0.7,1.2-1c0.5-0.5,0.5-1.1-0.2-1.6c-0.3-0.2-0.6-0.3-0.9-0.5c-0.4-0.2-0.8-0.2-1.1,0.1c-0.6,0.7-1.2,1.5-1.9,2.2
	C165.3,36.6,165.3,36.8,165.2,37.1z M184.8,35.1c-0.1,0.1-0.1,0.2-0.2,0.2c0.4,0.6,0.9,1.2,1.6,1.5c0.8,0.3,1.6,0.5,2.5,0.7
	c0.5,0.1,1,0.1,1.5,0.1c0.4,0,0.7-0.2,0.6-0.7c-0.1-0.5-0.1-1-0.3-1.4c-0.1-0.2-0.4-0.4-0.6-0.5c-1.2-0.1-2.4-0.1-3.6-0.2
	C185.9,35,185.4,35.1,184.8,35.1z M161.9,27.9c-0.2,0.8,0.1,1.3,0.8,1.5c0.3,0.1,0.5,0.3,0.7,0.5c1.7,1.2,3.5,2.5,5.2,3.7
	c0.4,0.3,0.9,0.6,1.4,1c0-0.2,0-0.4-0.1-0.5c-0.4-0.6-0.8-1.2-1.4-1.7c-0.9-0.8-1.9-1.5-2.9-2.2c-0.8-0.6-1.7-1.1-2.5-1.7
	C162.9,28.1,162.5,27.8,161.9,27.9z M167.3,33.7c-0.2-0.3-0.4-0.6-0.7-0.8c-0.4-0.3-0.9-0.5-1.3-0.8c-0.7-0.6-1-0.6-1.6,0.1
	c-0.2,0.2-0.4,0.4-0.5,0.7c-0.1,0.2-0.1,0.4-0.1,0.6c0.3,0.7,0.7,1.5,1.1,2.2c0.3,0.5,0.6,0.5,1,0.1c0.4-0.4,0.9-0.8,1.3-1.2
	C166.8,34.3,167.1,34,167.3,33.7z M175,33c0,0.1,0,0.1,0,0.2c0.2,0,0.4,0.1,0.6,0.1c0.3,0,0.7,0,1,0c1.4-0.1,2.8,0,4.1-0.4
	c1.3-0.4,2.6-0.9,4-1c0.3,0,0.5-0.2,0.9-0.3c-0.7-0.5-1.3-0.8-2.1-0.4c-0.3,0.1-0.6,0.2-0.9,0.2c-2.2,0.4-4.5,0.9-6.7,1.3
	C175.7,32.7,175.3,32.9,175,33z M183.5,38.2c0.6,0.7,1.1,1.4,1.6,2c0.7,0.9,1.5,1.8,2.3,2.6c0.4,0.4,1.2,0.2,1.6-0.3
	c0.4-0.6-0.2-0.8-0.5-1c-0.9-0.8-1.9-1.5-2.6-2.4C185.3,38.3,184.6,38.1,183.5,38.2z M161,29.3c-0.4,0.6-0.4,1.3-0.3,1.9
	c0.1,0.5,1.3,1.5,1.7,1.3c0.8-0.3,1.4-0.8,1.9-1.6C163.1,30.4,162.1,29.9,161,29.3z M172.3,43.4c0.1,0,0.2,0,0.3,0
	c1-1.4,1.2-3.1,1.3-4.8c0-0.1-0.1-0.2-0.2-0.3c-0.1,0-0.2,0-0.3,0.1c-0.6,0.9-1.7,1.7-1.5,3C172.1,42.1,172.2,42.8,172.3,43.4z
	 M174,41.6c-0.1,0-0.1,0-0.2,0c0,0.6-0.1,1.2-0.1,1.7c0,0.4,0.3,0.8,0.4,1.2c0.2,0.7,0.4,1.5,0.6,2.2c0.1,0.4,0.5,0.6,0.9,0.4
	c0.4-0.2,0.6-0.4,0.4-0.9C175.3,44.7,174.6,43.2,174,41.6z M169.9,43.7c0.6-0.7,1-1.2,1.4-1.8c0.3-0.4,0.4-0.9,0.2-1.3
	c-0.1-0.1-0.4-0.3-0.5-0.2c-0.8,0.4-1.4,0.9-1.6,1.7C169.4,42.6,169.7,43.1,169.9,43.7z M173.4,47.5c0-1.4-0.1-2.6-0.9-3.7
	C171.2,45.4,171.5,46.8,173.4,47.5z M171.5,42.3c-0.3,0.4-0.5,0.7-0.8,1c-0.8,1.2-0.7,1.2,0.3,2.2c0,0,0.1,0,0.1,0
	C172,44.8,172.2,43.3,171.5,42.3z M170.8,31.4c0.8,1.6,1.6,3.3,2.4,4.9C173.6,34,172.5,32.5,170.8,31.4z M169.8,40.9
	c0.3-0.3,0.6-0.6,0.9-0.8c0.3-0.2,0.8-0.4,1.1-0.6c0.4-0.3,0.8-0.6,1.1-1c0.2-0.2,0.2-0.5,0.3-0.7c-0.1,0-0.1-0.1-0.2-0.1
	c-0.7,0.5-1.4,0.9-2.1,1.4c-0.4,0.3-0.7,0.6-1,0.8C169.5,40.2,169.5,40.5,169.8,40.9z M174.6,47.2c-0.4-1.3-0.3-2.8-1.2-3.9
	c-0.2,0.3-0.3,0.6-0.2,0.9c0.2,0.9,0.4,1.7,0.6,2.5C173.7,47.3,174,47.5,174.6,47.2z M185.9,14.1c0.3,0.6,0.7,0.5,1.1,0.4
	c0.6-0.3,1.1-0.6,1.7-0.9c0.2-0.1,0.3-0.4,0.4-0.6c-0.2-0.1-0.5-0.2-0.7-0.1C187.5,13.3,186.7,13.7,185.9,14.1z M157.6,27.6
	c0,1.4,1,1.7,2.7,0.9C159.4,27.9,158.5,28,157.6,27.6z M155.3,24.8c0.2,0.9,2,2.1,3.1,1.8C157.1,26.3,156.7,24.7,155.3,24.8z
	 M189.6,14.7c0-0.1-0.1-0.1-0.1-0.2c-0.7,0.1-1.4,0.3-2.1,0.5c-0.3,0.1-0.5,0.3-0.3,0.6c0.1,0.1,0.4,0.2,0.6,0.2
	c0.4-0.1,0.8-0.4,1.2-0.6C189.2,15.1,189.4,14.9,189.6,14.7z M189.3,17.8c0.4-0.4,0.8-0.6,1-0.9c0.1-0.1-0.1-0.6-0.1-0.6
	c-0.3,0-0.6,0-0.9,0.2c-0.1,0.1-0.1,0.4-0.1,0.6C189.2,17.2,189.3,17.4,189.3,17.8z M184,15.8c0.7,0,1.2,0,1.1-0.7
	c0-0.2-0.3-0.4-0.5-0.4c-0.5,0-1,0.4-0.9,0.8C183.7,15.7,183.9,15.8,184,15.8z M179.8,17.9c-0.6,0.3-1,0.7-1.1,1.4
	c0.1,0.1,0.1,0.1,0.2,0.2c0.4-0.3,0.8-0.7,1.3-1C180,18.2,179.9,18.1,179.8,17.9z M182.6,16.2c-0.4,0.2-0.7,0.4-1,0.6
	c-0.1,0.1-0.2,0.3-0.1,0.4c0,0.1,0.3,0.3,0.3,0.3c0.3-0.1,0.7-0.3,0.9-0.5C182.8,16.9,182.6,16.6,182.6,16.2z M192.1,39
	c-0.1,0.5-0.2,0.9-0.3,1.4C192.7,40,192.8,39.7,192.1,39z M190.3,22.8c-0.1,0-0.2-0.1-0.3-0.1c-0.1,0.2-0.2,0.5-0.3,0.7
	c0,0,0.3,0.1,0.4,0.2C190.2,23.4,190.2,23.1,190.3,22.8z M191.6,41.9c0-0.1-0.1-0.1-0.1-0.2c-0.2,0.2-0.5,0.3-0.6,0.5
	c-0.1,0.1,0.1,0.3,0.2,0.5C191.3,42.3,191.5,42.1,191.6,41.9z"/>
<g>
	<path d="M119.2,29.2c0-0.5,0.1-1.1,0.1-1.6c0,0-0.2-2-0.1-2c0.3,0.9,0.8,3.8,1.1,4.8c1.4-1.5,0.3-3.6-1.1-4
		c0.1-0.3,0.2-0.5,0.4-0.8c-0.2,0-0.3,0-0.4,0c-0.5,0.5-1,1-1.5,1.6c-1.5,1.5-3,3.2-4.7,4.6c-2.3,1.8-5.1,1.2-6.8-1.2
		c-0.1-0.2-0.3-0.4-0.5-0.5c-0.7-0.3-0.9-0.8-0.7-1.6c0-0.1,0-0.3,0-0.4c-1.2-2,0.1-3.8,0.7-5.5c0.9-2.4,4-3.6,6.5-2.9
		c0.7,0.2,1.4,0.4,2.1,0.6c0-0.1,0.1-0.2,0.1-0.3c-1.2-0.3-2.4-0.5-3.5-0.8c-1.2-0.3-2.4-0.5-3.6-0.9c-2-0.7-2.3-1.3-1.7-3.3
		c0.2-0.8,0.3-1.7,0.3-2.6c0-1.2,0-2.4,0-3.6c0-0.7-0.1-1.4,0-2.1c0.1-1.4,0.7-2,2.1-1.6c1.4,0.4,2.8,0.8,3.9,1.6
		c3.7,2.5,6.3,6,8.4,9.8c0.5,0.9,0.6,2.1,0.9,3.1c0.1,0.4,0.2,0.7,0.6,1.1c0.2-0.5,0.3-1,0.5-1.5c0.5,0.2,1,0.4,1.6,0.6
		c-0.1,0.5-0.3,0.9-0.4,1.3c0.1,0,0.2,0.1,0.2,0.1c0.3-0.2,0.5-0.3,0.8-0.5c3.2-2,6.3-4,9.5-6c0.4-0.2,1.1-0.3,1.3-0.1
		c0.4,0.4,0.3,1,0,1.7c-0.9,1.8-2.2,3.1-3.5,4.6c-0.3,0.3-0.6,0.7-1,0.9c-2.2,1-3.2,3-4.5,4.8c-0.1,0.2-0.2,0.4-0.4,0.5
		c-0.9,1.3-1.3,1.3-2.1,0c-0.6-1-1.5-1.5-2.9-1.7c0.8,0.6,1.3,1,1.8,1.4c1.6,1.2,2,2.1,1,3.7c-0.6,1-1.7,1.7-2.6,2.6
		c-0.1-0.7,0-2-0.3-2.1c-0.7-0.3-0.8-0.7-1-1.2C119.6,29.5,119.4,29.4,119.2,29.2z M111.8,26.9c0.1-0.2,0.1-0.4,0.2-0.8
		c-2.1,0.4-2.7,2.4-4.3,3.2c0.7,0.9,1.3,1,1.8,0.2c0.2-0.2,0.4-0.4,0.6-0.6c-0.1,0.3-0.2,0.6-0.4,0.8c-0.4,0.5-0.5,0.9,0.1,1.2
		c0.6,0.4,1.4,0.7,1.9-0.1c1.1-1.7,2.2-3.5,3.5-5.5C113.9,26,112.8,26.5,111.8,26.9z M118.8,23.8c-0.2-0.2-0.4-0.6-0.7-0.7
		c-0.9-0.1-1.8-0.2-2.7-0.2c-1.7,0-3.1,0.7-4.2,1.9c-0.2,0.2-0.2,0.4-0.3,0.7c1.8,0.4,3.4-0.3,4.9-0.8
		C116.8,24.5,117.8,24.2,118.8,23.8c-0.1,0.1-0.1,0.2-0.2,0.3c-3.1,1.1-4.5,3.7-6,6.3c-0.1,0.1,0,0.3,0,0.4c0.6,0.4,1,0.3,1.5-0.2
		c1.4-1.6,2.8-3,4.2-4.6c0.4-0.5,0.9-1,1.2-1.5C119.6,24,119.3,23.7,118.8,23.8z M109.2,15.7c-1,0.1-1.6,0.8-1,1.6
		c0.2,0.3,0.8,0.5,1.2,0.6c1.8,0.2,3.6,0.6,5.2,1.5c1.3,0.8,2.8,1.3,4.3,1.9c0.3,0.1,0.8,0,1.2,0c-0.2-0.4-0.3-0.8-0.5-1.1
		c-1.2-1.2-2.4-2.4-3.6-3.5c-0.5-0.4-1.3-0.7-1.9-0.8C112.3,15.8,110.7,15.7,109.2,15.7z M120,20.3c0.1-0.1,0.3-0.1,0.4-0.2
		c-0.5-1.4-1-2.9-1.6-4.3c-0.3-0.7-1-1.2-1.3-1.9c-0.6-1.4-1.6-1-2.7-1.2C115.2,16.4,118,18.1,120,20.3z M111,15.4
		c0-0.1,0-0.1,0-0.2c0.9,0.1,1.8,0.2,2.7,0.3c1,0.1,1.3-0.1,1-1c-0.1-0.4-0.6-0.9-1-1c-1.6-0.4-3.3-0.6-4.9-0.8
		c-0.2,0-0.6,0.1-0.6,0.3c-0.1,0.6-0.2,1.2-0.1,1.8c0.1,0.2,0.6,0.4,1,0.5C109.7,15.4,110.4,15.4,111,15.4z M114.1,13.2
		c0.1-0.1,0.2-0.2,0.3-0.4c-0.3-0.4-0.5-1-0.9-1.2c-1.3-0.6-2.6-1.1-4-1.5c-0.3-0.1-0.8,0.2-1,0.5c-0.7,1.2-0.4,1.7,1,1.9
		c0.4,0.1,0.7,0,1.1,0.1C111.7,12.8,112.9,13,114.1,13.2z M107.7,23.6c1.3,0,2.6,0,3.9,0c0.4,0,0.9-0.1,1.2-0.3
		c0.2-0.1,0.5-0.4,0.5-0.6c0-0.2-0.3-0.5-0.6-0.5c-1.1-0.2-2.1-0.4-3.2-0.4C108.3,21.6,107.8,22.2,107.7,23.6z M106.3,27.2
		c0,1.3,0.6,2.1,1.1,1.7c1-0.7,1.9-1.5,2.7-2.3c0.2-0.1,0.1-0.5,0.2-0.8c-0.3,0-0.6-0.2-0.9-0.1c-0.8,0.2-1.6,0.5-2.4,0.8
		C106.8,26.7,106.5,27.1,106.3,27.2z M125.5,27.2c0.2-0.9,0.6-1.6,0.4-2.2c-0.2-0.6-0.8-1.2-1.4-1.6c-0.7-0.6-1.2,0-1.7,0.4
		c-0.2,0.2,0,0.9,0.2,1.2C123.8,25.7,124.5,26.3,125.5,27.2z M111.3,24c-1.6,0-2.9-0.1-4.2,0.1c-0.2,0-0.5,0.8-0.6,1.3
		c0,0.1,0.4,0.6,0.6,0.6C108.6,25.7,110.1,25.6,111.3,24z M128.9,18.5c-0.1-0.1-0.2-0.2-0.3-0.2c-2.3,1.4-4.5,2.8-6.1,5
		c2.1-1.2,4-2.6,6-3.9C128.7,19.2,128.7,18.8,128.9,18.5z M126.6,24.8c0.4-0.8,0.8-1.4,1.1-2.1c0.2-0.5-0.7-1.6-1.2-1.3
		c-0.7,0.3-1.3,0.9-2.1,1.4C125.2,23.5,125.8,24.1,126.6,24.8z M118.6,22.4c-0.2-0.1-0.4-0.2-0.5-0.3c-2.2-0.5-4.3-0.9-6.5-1.4
		c-0.3-0.1-0.7,0.2-1,0.3C113.3,21.5,115.7,23.3,118.6,22.4z M126.8,20.8c0.8,0.7,1.2,1.6,2.3,0.8c0.8-0.6,0.7-1.3,0.3-2.1
		C128.5,19.9,127.8,20.3,126.8,20.8z M121.4,28c-0.4,1.3,0.6,1.7,1.1,2.4C123.2,29.3,123,28.8,121.4,28z M121.3,32.2
		c1.2-1.1,1.2-1.4-0.3-2.5C121.1,30.4,121.2,31.2,121.3,32.2z M122.6,28.4c0.1-0.1,0.2-0.2,0.3-0.4c-0.9-0.7-1.7-1.3-2.6-2
		c-0.1,0.1-0.2,0.3-0.3,0.4C120.9,27.1,121.7,27.7,122.6,28.4z M121.6,21.5c-1.2,0.6-1.7,1.6-1.5,2.9
		C120.6,23.4,121.1,22.5,121.6,21.5z M110,8.3c0.1-0.2,0.2-0.4,0.3-0.6c-0.7-0.3-1.4-0.7-2.2-1c-0.1,0.2-0.1,0.3-0.2,0.5
		C108.5,7.6,109.2,8,110,8.3z M131.9,18.2c-0.6,0.2-1.2,0.3-2,0.5C131.4,19.4,131.6,19.4,131.9,18.2z"/>
	<path d="M118.2,31.6c0,0.2-0.1,0.4-0.1,0.6c0,0.3,0.1,0.7,0.1,1c0.3-0.2,0.5-0.4,0.8-0.7c0.1-0.1,0.1-0.3,0.3-0.6
		c-0.1,0.6-0.1,1-0.1,1.3c0.3,0.8,0.7-1.3,0.9,0.2c0.4-0.2,0.7-0.3,1-0.4c0,1.3-1.2,1.6-2.2,1.6c-1.3-0.1-1.9-0.6-1.8-1.8
		c0.2-1.6,1.4-5.7,1.7-7.2c0.1,0,0.3,0.1,0.4,0.1c-0.4,1.3-1.4,5.2-1.8,6.5c0.1,0,0.1,0.1,0.2,0.1C117.8,32,118,31.8,118.2,31.6z"/>
</g>
<g>
	<path d="M157.6,167.2c-0.5,1-0.8,2.1-0.9,3.2c-0.2,2.3-0.3,4.6-0.5,6.9c-0.3,2.6-1.2,5-2.3,7.4c-1.5,3.3-3.4,6.5-5.4,9.6
		c0,0.1-0.1,0.1-0.1,0.2c0.3,0.1,0.6,0.1,0.8,0.2c2.5,0.6,4.4,2,5.7,4.2c1.1,1.9,1.1,3.9,0,5.8c-2.9,4.9-8,7.1-13.5,5.2
		c-2.6-0.9-4.8-2.4-6.2-4.9c-0.4-0.8-0.8-1-1.7-0.9c-3.2,0.3-5.9-0.8-8.3-2.9c-1.6-1.4-2.8-3.1-3.4-5.1c-0.7-2.3-0.6-4.5,0.4-6.6
		c0.7-1.7,1.8-3.2,3-4.5c2.1-2.1,4.5-2.4,7-0.8c1.6,1,2.8,2.3,3.8,3.8c0.1,0.2,0.3,0.4,0.4,0.7c0.4-0.3,0.8-0.5,1.1-0.8
		c3.5-2.6,6.8-5.3,9.5-8.7c1.6-1.9,2.8-4,4-6.2c1.4-2.7,2.5-5.4,3.2-8.3c0.1-0.4,0.3-0.5,0.6-0.5c1,0.1,2,0.3,2.8,1.1
		c0.2,0.3,0.5,0.5,0.8,0.7c1.7,1,3.2,2.2,4,4.1c0.1,0.3,0.3,0.5,0.3,0.8c0,0.5,0.3,0.7,0.8,0.8c3.1,1,5.9,2.3,8.4,4.4
		c1.9,1.5,3.4,3.3,4.3,5.5c0.7,1.8,0.8,3.8,0.5,5.7c-0.4,2.7-1.2,5.3-2,7.9c-0.4,1.3-0.8,2.7-1.1,4c-0.3,1.3-0.4,2.7,0,4.1
		c-0.6-0.3-1.2-0.5-1.8-0.7c-4.1-1.8-7.6-4.4-10.2-8c-1.7-2.3-2.9-4.8-3.5-7.7c-0.3-1.5-0.3-2.9-0.1-4.4c0.4-3.3,1.6-6.3,3-9.3
		c0.1-0.2,0.2-0.5,0.4-0.7c0.5-0.6,0.4-1.2,0-1.8C160.7,169.3,159,167.8,157.6,167.2z M173.1,202.1c-0.1-0.6-0.1-1-0.1-1.4
		c-0.1-2.1,0.7-4.1,1.2-6.1c0.7-2.4,1.4-4.8,1.9-7.2c0.4-1.8,0.3-3.7-0.4-5.5c-0.6-1.5-1.5-2.8-2.6-3.9c-2.9-2.9-6.4-4.6-10.3-5.7
		c-0.3-0.1-0.4,0.1-0.5,0.3c-1.5,2.7-2.7,5.6-3.3,8.6c-0.4,1.6-0.6,3.3-0.3,5c0.6,3.3,2.1,6.2,4.2,8.8c2,2.5,4.6,4.4,7.5,5.9
		C171.3,201.3,172.2,201.7,173.1,202.1z M153.8,205c1.6-2.6,1.3-5.1-0.8-7.3c-1.2-1.2-2.7-2-4.4-2.4c-0.5-0.1-0.8-0.2-1.1,0.3
		c-0.1,0.3-0.9,0.4-1.2,0.2c-0.3-0.2-0.4-0.6-0.1-0.8c0.3-0.4,0.1-0.6-0.2-0.8c-1.5-1.1-3.2-1.8-5.1-2c-2.1-0.2-3.7,0.6-4.6,2.4
		c-0.6,1.1-1,2.4-1.2,3.6c-0.5,2.5-0.2,4.9,1.4,7.1c1.3,1.8,3,2.9,5,3.6C146.4,210.8,150.9,209.2,153.8,205z M137.6,191.8
		c-0.7-0.5-1.2-0.9-1.8-1.2c-0.3-0.2-0.8-0.2-0.7-0.6c0-0.3,0.4-0.5,0.6-0.8c0,0,0-0.1,0.1-0.1c-1.1-1.8-2.6-3.4-4.6-4.3
		c-1.8-0.8-3.6-0.6-5,0.8c-1.7,1.5-2.9,3.4-3.5,5.6c-0.5,1.9-0.5,3.8,0.4,5.6c1.4,3.2,3.9,5.3,7.2,6.3c1.4,0.4,2.8,0.5,4.2,0.2
		c-0.1-0.9-0.3-1.8-0.3-2.7c0-0.9,0-1.8,0.2-2.7C134.7,195.6,135.2,193.3,137.6,191.8z M146.9,193.8c5.1-7.4,8.4-15.5,7.9-24.9
		c-0.2,0.3-0.4,0.5-0.5,0.8c-0.6,1.4-1.3,2.8-1.9,4.2c-1.1,2.5-2.6,4.7-4.4,6.7c-3,3.3-6.5,6.1-10.1,8.7c-0.1,0.1-0.3,0.2-0.4,0.3
		c0.7,0.5,1.3,1,2,1.5c0.1,0.1,0.3,0.1,0.5,0.1c1.3,0.1,2.5,0.3,3.6,0.9C144.8,192.6,145.8,193.2,146.9,193.8z M146.9,195.2
		c0.1,0,0.1,0.1,0.2,0.1c0.2-0.1,0.3-0.3,0.5-0.4c0.4-0.6,0.9-1.2,1.3-1.8c1.4-2.3,2.8-4.7,4-7.1c1.6-3.5,2.8-7.1,3.2-10.9
		c0.2-1.9,0.3-3.8,0.5-5.7c0.1-1,0.3-1.9,1-2.9c1,0.7,2,1.2,2.7,2c0.8,0.8,1.4,1.9,2.1,2.8c0.1,0.1,0.2,0.2,0.4,0.4
		c0-0.2,0-0.3,0-0.4c0-0.1-0.1-0.3-0.1-0.4c-0.4-1.2-1.2-2.2-2.1-3c-1.1-0.9-2.3-1.8-3.5-2.7c-0.1-0.1-0.3-0.2-0.4-0.3
		c-0.6-0.3-0.9,0-0.9,0.6c0,2.4,0,4.8-0.1,7.2c-0.1,2.9-0.5,5.8-1.5,8.6c-1.6,4.7-4.1,9-6.8,13.2C147,194.7,146.9,195,146.9,195.2z
		 M135.9,189.7c0,0.1,0.1,0.1,0.1,0.2c0.3-0.1,0.6-0.2,0.8-0.4c2.6-1.7,5-3.6,7.3-5.7c3-2.7,5.6-5.7,7.5-9.3
		c0.9-1.8,1.8-3.7,2.7-5.5c0.2-0.4,0.6-0.7,0.6-1.1c0.1-0.7-0.1-1.5-0.1-2.2c-0.2,0.1-0.2,0.2-0.3,0.4c-1.1,3.2-2.5,6.3-4.2,9.2
		c-1.8,3.3-4.3,6.1-7.2,8.5c-2.2,1.9-4.5,3.6-6.8,5.4C136.2,189.3,136,189.5,135.9,189.7z"/>
</g>
</svg>
