<?xml version="1.0" encoding="utf-8"?>
<!-- Generator: Adobe Illustrator 17.1.0, SVG Export Plug-In . SVG Version: 6.00 Build 0)  -->
<!DOCTYPE svg PUBLIC "-//W3C//DTD SVG 1.1//EN" "http://www.w3.org/Graphics/SVG/1.1/DTD/svg11.dtd">
<svg version="1.1" id="Layer_1" xmlns="http://www.w3.org/2000/svg" xmlns:xlink="http://www.w3.org/1999/xlink" x="0px" y="0px"
	 viewBox="0 0 288 216" enable-background="new 0 0 288 216" xml:space="preserve">
<g>
	<path d="M146.3,99c0.4-1.5,2-1,2.7-1.7c-0.6-2.8-2.8-1.3-4.1-2.2c0.7-0.8,1.3-1.3,1.7-2c0.5-0.7,0.5-1.5-0.2-2.3
		c-0.7,0.4-1.4,0.9-2.2,1.3c-0.9,0.5-1.8,1.3-2.9,1.1c0.1-1.2-0.4-2.2-0.4-3.4c0-0.1-0.3-0.3-0.5-0.5c-1.9,1.1-2.9,3.2-3.8,5.6
		c-0.6-1.1-0.9-2-1.5-2.7c-0.3-0.4-0.8-0.5-1.6-0.9c0.2,1.2,0.3,1.9,0.5,2.6c0.7,3,0.6,3.9-1.8,5.3c-1.9,1.1-3.8,2.2-5.7,3.4
		c-1.2,0.7-2.2,0.7-3.2-0.5c-3.3-3.9-6.8-7.6-9.4-12.2c-1.1-2-1.8-3.6-0.6-5.6c3.5-0.3,7-0.3,10.3-1.1c1.7-0.4,3.6,0,5-0.8
		c1.9-1,3.6-0.5,5.4-0.6c2.2-0.1,3.8-1.2,5.4-2.5c0.8-0.7,1.4-1.6,2.1-2.4c0.2-1.7,0.3-3.1-1.7-3.7c-0.7-0.2-1.3-1.3-1.9-2.1
		c-0.1,0.2-0.3,0.5-0.4,0.5c-1.1,0.4-2.2,0.5-3.3,0.9c-0.9,0.3-1.9,1.5-2.9,0.7c-1.4-1.2-1.6,2-2.9,0.9c-0.1-0.1-2.9,0-3-0.1
		c-0.8-1.3-1.9-1.2-3.1-1.6c-0.8-0.2-1.6-0.6-2.4-0.6c-1.4,0-2.4-0.8-3.4-2c1-0.4,2.2-1.1,2.4-0.9c0.8,1.2,1.6-0.3,2.1,0.1
		c1.4,0.9,2.4,0.7,3.4-0.6c0.1-0.1,0.5-0.2,0.7-0.1c0.5,0.5,1,0.5,1.4-0.1c0.9-1.4,2.9-0.9,3.7-2.6c1.1,0.9,2-2,3.2-0.1
		c0.1,0.2,0.8,0.1,0.8,0c0.8-2,2.9-0.7,3.9-2c0.1-0.1,0.8,0.4,0.9,0.3c0.8-1.5,2.1-1.1,3.4-1.2c0-1,0.1-1.8,0-2.7
		c-0.4-4.1-2.7-6.3-6.4-6.4c-3.4,0-5.6,2-7.1,5.1c-2-1.2-4.1-0.1-6.2-0.8c-0.6-3-1.7-5.7-5.9-4.9c-0.4,0.5-1.4,1.6-2.4,2.8
		c-0.4-0.5-1-1.3-1.7-1.9c-0.6-0.5-1.3-0.9-1.9-1.1c-0.1,0.3-0.3,0.7-0.4,1c0,0.2,0,0.3-0.1,0.5c0.2,0,0.4,0,0.6,0
		c0.2,0,0.4,0.5,0.5,0.7c0.9,0.8,1.8,1.5,2.6,2.3c0.8,0,1.7,0.2,2.4-0.8c0.5-0.8,1.2-1.4,1.8-2.2c2.1-0.1,2.3,1.9,3,3.7h-4.5
		c3.9,2.2,7.5,1.1,11.3,1.6c-0.4,0.5-0.7,0.8-0.9,1.1c-0.2,0.2-0.4,0.5-0.9,1.2c0.8-0.2,1.3-0.2,1.5-0.4c0.9-1.3,2.2-2.2,2.9-3.9
		c0.8-1.8,2.6-2.9,4.6-2.6c1.3,0.2,2.9-0.7,3.7,1.1c-0.2,0.6-0.4,1.1-0.8,2c0.8-0.4,1.2-0.6,1.9-1c0.3,1.3,1.4,2.2,0.9,3.8
		c-0.4-0.1-0.9-0.4-1.3-0.5c-0.2,0.5-0.3,1-0.5,1.5c-0.1,0.3-0.5,0.4-0.6,0c-0.1-0.4-0.2-0.7-0.3-1.1c-0.3,0.1-0.6,0.2-0.9,0.3
		c-0.1,0.4-0.1,0.9-0.3,1.3c-0.1,0.2-0.2,0.2-0.4,0.2c-0.5-0.1-0.8-0.5-1.1-1c-0.3,0.1-0.5,0.1-0.8,0.2c-0.1,0.4-0.2,0.9-0.1,1.4
		c0,0.3-0.3,0.5-0.5,0.3c-0.4-0.3-0.7-0.7-1-1.1c-0.6,0.2-1.3,0.2-1.9,0.2c0,0.5-0.1,1.1-0.3,1.6c-0.1,0.1-0.2,0.2-0.4,0.2
		c-0.4-0.2-0.8-0.5-1-0.9c0-0.1,0-0.2,0-0.3c-0.1,0.1-0.2,0.2-0.3,0.3c-0.4,0.5-1,0.8-1.6,1.1c0,0.2,0,0.4,0,0.6
		c0,0.3-0.3,0.5-0.6,0.3c-0.1-0.1-0.3-0.3-0.4-0.4c-0.3,0.1-0.7,0.3-1,0.5c-0.2,0.1-0.6,0.2-1,0.2c0,0.4,0,0.8,0,1.2
		c0,0.3-0.4,0.5-0.6,0.3c-0.3-0.4-0.6-0.9-1-1.3c-0.7,0-1.3,0-1.8,0c-0.1,0-0.3,0-0.4,0c-0.1,0.6-0.3,1.2-0.6,1.7
		c-0.1,0.3-0.4,0.2-0.6,0c-0.2-0.4-0.5-0.8-0.7-1.1c-0.5,0.1-1,0.3-1.4,0.5c0.1,0.4,0.1,0.7,0.1,1.1c0,0.3-0.3,0.5-0.5,0.3
		c-0.4-0.3-0.7-0.6-1.1-1c-1.5,0.5-3.1,0.8-4.8,0.6c-0.8-0.1-1.6,0.2-2.4-0.6c-0.4-0.4-1.4-0.1-2.3,0.1c2,0.4,2.3,2.6,3.2,4
		c0.9,1.4,1.4,2.7,3.1,2.5c1.2,1,2.5,1.4,3.8,1.5c0,0,0,0,0.1-0.1c0.5-0.4,1-0.9,1.6-1.2c0.2-0.1,0.4,0,0.5,0.2
		c0.1,0.4,0.2,0.8,0.4,1.1c0.4,0,0.7,0,1.1,0c0.1,0,0.2,0,0.4,0c0.2-0.6,0.6-1.2,1.2-0.7c0.3,0.2,0.5,0.5,0.6,0.9
		c0.2,0.1,0.4,0.1,0.6,0.2c0.3,0.2,0.7,0.4,1,0.5c0.1-0.4,0.4-0.7,0.7-1c0.1-0.1,0.4,0,0.5,0.1c0.3,0.6,0.7,1,1.1,1.5
		c0.4,0,0.8,0,1.2-0.1c0.1-0.4,0.3-0.7,0.5-1c0.1-0.1,0.3-0.2,0.4-0.1c0.2,0.2,0.4,0.4,0.6,0.6c0.1,0,0.2-0.1,0.2-0.1
		c0.1-0.1,0.2-0.1,0.3-0.1c0.1-0.7,0.4-1.3,1.1-0.9c0.4,0.2,0.7,0.6,1,0.9c0.3,0,0.6,0,0.9,0c0.2-0.3,0.4-0.6,0.5-1
		c0.1-0.3,0.3-0.4,0.6-0.2c0.4,0.3,0.7,0.8,1.1,1.1c0.1,0,0.3-0.1,0.4-0.1c0-0.7,0-1.5,0.5-1.9c0.6-0.4,1.3,0.1,1.8,0.4
		c0.1,0.1,0.1,0.1,0.1,0.2c0.9-0.4,1.9,0,2.6,1.2c-1.9,2.3-4.1,3.3-7,3.5c-2.7,0.2-5.4,0.4-8.1,1.3c-2.2,0.7-4.6,0.8-7,0.8
		c-1.7,0-3.1,0.8-4.7,0.8c-1.7,0-3.3-0.2-4.9,0.1c-1,0.2-1.8-0.7-2.9-0.4c-0.9,0.3-1.8-0.8-2.5-1.6c-0.6-0.6-1.3-1.2-2.1-1.6
		c-2.7-1.3-3.4-3.7-3.2-6.8c0-0.2,0-0.5,0-0.7c-0.7-0.5-1.4-0.7-1.3,0.5c0.3,2.3,0.3,4.8,2.1,6.6c0.6,0.6,1,1.5,1.5,2.3
		c0.1-0.1,0.4-0.4,0.9-0.9c-0.2,0.8-0.1,1.6-0.3,1.7c-3.6,2-4.9,6.1-6.9,9.6c0.6,1.9-1.9,2.5-1.3,4.3c0,0.1-0.2,0.5-0.4,0.5
		c-1.9,0.9-3.8,2-5.3,3.8c0,0-0.4-0.5-0.6-0.6c-0.5,0.7-0.9,1.8-1.6,2.1c-2.6,1.4-5.1,3.1-7.5,5c-0.8,0.6-1.8,0.7-2.7-0.1
		c-0.8-0.6-1.5-1.3-2.3-1.8c-0.9-0.5-1.8-1.3-2.7-1.2c-0.9,0.1-1.8,0.9-2.7,1.5c-0.6,0.4-1.1,1-2.1,1.8c0.3-1.2,0.4-1.8,0.6-2.4
		c0.2-0.5,0.4-1.1,0.6-1.8H62c1.8-1.3,3.1-2.3,4.3-3.2c-0.3-0.7-0.6-1.2-1-2.2c1.3,0,2.4,0.3,3.2-0.1c0.6-0.3,1-1.4,1.4-1.9
		c0.8,1.2,1.4,2.8,2.5,3.9c1.6,1.7,3.6,1.5,5.4-0.2c0.3-0.2,0.5-0.5,0.7-0.8c1.7-2.5,3.7-4.6,5.2-7.4c0.5-0.9,1.3-1.8,2.1-2.4
		c2.1-1.7,2.4-4.3,3-6.8c0.1-0.2-0.8-0.8-0.1-0.9c1.6-0.2,1.7-1.9,2.1-2.9c0.3-0.9,0.4-1.8,1.1-2.5c0.1-0.1-0.2-0.7-0.2-1
		c-0.1-0.7-0.1-1.2,0.7-1.2c0.7,0,1-0.1,1.3-1.1c0.4-1.2,0.6-2.8,2.1-3.5c1.2-0.6,2.1-2,3.3-2.8c0.5-0.4,0.8-0.7,1.2-1.2
		c0.2-0.3,0.4-0.5,0.6-0.8C100,63.8,99.1,64,98,64c-0.1,0-0.2,0-0.3,0c-0.2,0.1-0.4,0.3-0.7,0.4c-3.6,2.4-4.4,3.3-5.3,7H90
		c0.2,1,0.4,1.9,0.6,2.8c-1.9,0.9-0.8,3-1.3,4.5C87,79,87.2,81.4,87,82.9c-0.3,1.7-0.8,2.9-2,3.5c-0.6,0.3-0.6,0.8-0.9,1.2
		c-2.4,3.2-4.9,6.2-7.4,9.4c-0.9,1.1-1.6,1.1-2.8,0.2c-1-0.7-1.9-1.2-2.3-2.7c-0.3-1-0.9-1.8-1.3-2.8c-0.5-1.4-1.4-1.7-2.4-1.3
		c-1.1,1.7,1.2,3.8-0.7,5.3c-1.1-0.6-2.2-1.2-3.3-1.8c-1.6-0.9-1.6-0.9-2.9,1.4c1.4,1.2,2.7,2.5,4.1,3.7c-1.7,2.2-4.7,1.2-6.2,4
		c2.2,0.5,4.3-0.1,6.5,0.5c-1.1,2-2,3.7-2.9,5.4c0.3,0.3,0.6,0.7,0.9,1c1.4-1.1,2.9-2.3,4.3-3.4c1.9-1.5,2.7-1.5,4.5-0.1
		c2.4,1.9,3.3,2.3,5.2,2c0.6-0.1,1.3-0.5,2.2-1c-3.1,7.5-3.7,14.9-3.4,22.3c-0.1,0.1-0.2,0.3-0.3,0.4c0.2,0.9,0.2,1.8,0.1,2.7v5.8
		c-1.4,0.3-3.1-0.6-3.8,1.5c-0.1,0.3-0.5,0.6-0.8,0.9c-0.3-0.4-0.5-0.9-0.8-1.3c-0.8,1-1.7,2-2.4,2.9h-2.8c-0.6,0.7-1.2,1.4-1.2,1.3
		c-1.1-1-2-0.6-3.2-0.1c-1,0.4-2.1,0.2-2.8,1.4c-0.1,0.2-0.7,0.4-0.8,0.2c-0.6-0.7-1-0.9-1.9-0.2c-0.4,0.4-1.5-0.4-2.3-0.5
		c-0.5,0-1.2,0.1-1.5,0.4c-0.9,1.2-1.6,0.8-2.7,0.4c-0.8-0.3-1.8-0.4-2.8,0.3c-0.5,0.4-1.7-0.4-2.6-0.4c-0.4,0-0.7,0.9-1.1,1.5
		c-0.8-0.5-1.6-1-2.6-1.6c-0.8,0.8-1.7,1.8-2.6,2.7c-1-0.6-2-0.9-3.1,0.2c-0.9,0.9-1.8,1.6-2.8,2.3c-1.3,1-3,1.7-3.7,3.1
		c-0.8,1.4-1.6,2.8-2.4,4.2c-1.3,2.3-2.2,5-3.4,7.5c-1.2,2.5-1.7,5.3-2.6,7.8c-1.1,2.9-1.7,6-2.3,9.1c-0.8,3.9-0.3,7.2,2.1,10
		c2.2,2.7,4.4,5.3,6.8,7.7c2.5,2.6,5.4,4.3,8.7,5c0.8,0.2,1.6,0.6,2.4,0.7c0.9,0.1,1.8-0.1,2.6,0.2c2.2,0.8,4.4,1.5,6.8,1.3
		c4.2-0.3,8.5,0.7,12.6-0.7c4.4,0.7,8.7-1.1,13-1.6c2-0.2,4-1,6-1.6c1.9-0.6,3.6-1.7,5.5-2c3.6-0.7,7-2.1,10.4-3.2
		c2.8-0.9,5.3-2.7,6.2-7.1c-1.7,0.8-3.2-0.4-4.6,1c-0.4,0.4-1.7,0.4-2.2,0c-2-1.6-4.8,0.5-6.5-2.2c-0.1-0.1-0.4,0-0.6,0
		c-1.3-0.2-2.4,0.5-3.5,1.3c-0.3,0.2-0.6,0.2-0.9,0.4c-0.2-0.5-0.3-1-0.5-1.5h-4.2c0,0.1-0.2,0.8-0.5,1.8c-0.9-2.7-0.4-4.4,1.3-6.5
		c0.8-1,1.4-0.4,2.1,0.1c0.2-1.3,0.2-2.4-0.6-3.5c-2.2-3.3-2.5-6.9-1.3-11.2c0.2-0.7,0.2-1.6,0.5-2c2.6-2.7,5.2-5.4,9-5.1
		c0.8,0.1,1.4,0,2.1-0.7c0.3-0.3,1,0,1.8,0c-1,2.4-1.7,4.5-1.7,6.8c0,2.9,0.8,4.8,3.3,5.5c0.6,0.2,1.2,0.4,1.8,0.5
		c2,0.3,4.1,0.1,5.9,1c1.4,0.7,2.9-0.1,4,0.7c1.5,1.1,3,0.2,4.4,0.5c0.1,0,0.3-0.3,0.5-0.5c-0.3-0.7-0.5-1.4-0.7-1.9
		c0.8-0.7,1.4-1.2,1.9-1.6c-0.8-0.6-1.4-1-1.8-1.4c0.2-0.8,0.4-1.4,0.5-2.1c-2.2,0-4.1,0.3-5.9-0.1c-1.5-0.3-3.5,0-4.1-2.3
		c1.7-2.3,3.3-4.4,4.9-6.6c0.8-1,2.1-6,1.7-7.1c-1-3.3-1.6-6.8-3.2-9.4c1.4-4.1,2.7-7.9,3.9-11.6c0-0.5,0.1-1.1,0.2-1.6
		c-0.1,0-0.2,0-0.3,0c2-4.3,2.4-8.8,3.2-13.1c0.7-3.6,1.8-7.2,1.5-11.1c0-0.5,0.5-1,0.9-1.6c0.3,0.6,0.4,1.1,0.7,1.6
		c1.5,2.3,3.1,4.6,4.7,6.9c2.4,3.5,4.1,4.1,7.3,3.1c0.8-0.3,1.3-0.9,1.8-1.4c2.9-3.3,5.7-6.6,8.7-9.9c1.1-1.2,2.2-2.3,3.5-3.1
		c1.3-0.8,2.7-1.3,4.2-0.4c1.3,0.7,2.6,0.5,4,0.1C147.6,101.2,145.8,100.7,146.3,99z M113.1,73.5c-1.6-0.3-2.3-1.4-3-4.3
		c0.6,0.2,1.3,0.3,1.9,0.5c0.6,0.2,1.2,0.9,1.7,0c0.3,0.2,0.6,0.5,0.9,0.7c0.4,0.4,0.9,0.8,1.4,1.3
		C115.5,73.8,114.2,73.7,113.1,73.5z M102.7,82.5c1,0.6,1.7,2,3.3,1.7c2-0.3,3,0.6,3.3,2.8c0.4,2.7,1.2,5.4,0.5,8.3
		c-5,0.7-9.7-1.1-14.4-2.4C97.1,88.7,99.5,85.4,102.7,82.5z M35.2,153c0-0.5,0-1,0.1-1.5c0-0.5,0-1,0-1.7c1.4,0.3,2.6,0.6,3.9,1
		v-2.7c2-1.8,2.7,2.2,4.6,0.7c0.1-0.4,0.2-1.1,0.3-1.9c0.8,0.5,1.6,1,2.6,1.6c0.5-0.5,1-1,1.7-1.7c0.7,0.4,1.5,0.8,2.9,1.6
		c0.5-0.7,1.1-1.5,1.7-2.4c0.9,0.6,1.7,1.1,2.6,1.6c0.3-0.4,0.7-0.8,1-1.1c0.8,0.1,1.7,0.5,2.3,0.2c0.5-0.3,0.7-1.3,1.1-2.2
		c0.6,0.6,1,1.1,1.7,1.8c0.4-0.6,0.8-1.2,1.3-2c0.7,0.7,1.3,1.2,1.9,1.9c0.4-0.6,0.8-1.3,1.4-2.3c0.7,0.1,1.6,0.3,2.7,0.4
		c0.3-0.7,0.7-1.6,1.1-2.8c0.5,0.3,1.1,0.6,1.8,1c1-1.1,2.1-2.2,3.4-3.5c0.7,1.7,0.3,3.2,0.4,4.3c-1,1.5-1.9,2.9-2.9,4.4
		c-0.4,0-0.9,0-1.5,0c-3.1,0.2-6.2,0.3-9.3,0.8c-3,0.6-6,1.1-9,1.5c-1.3,0.2-2.6,0.8-4,0.7c-1.5-0.2-2.8,1.1-4.4,0.8
		c-1.3-0.2-2.6,1.2-4,0.7c-2.2,1.3-4.9,0.8-7.1,2.2c-0.5,0.3-1.3,0-1.9,0C32,151.8,32,151.8,35.2,153z M27.9,159.5
		c1.5-3.2,4.1-4,7-4.3c1.1-0.1,2.2-0.5,3.4-0.7c1.1-0.2,2.2,0.1,3.4-0.6c1.2-0.7,2.8-0.3,4.3-0.8c2.3-0.7,4.9-0.5,7.3-0.9
		c2-0.4,4.1-0.4,6.1-1.3c0.8-0.3,1.7,0,2.6-0.2c0.8-0.1,1.6-0.6,2.4-0.7c2-0.3,4-0.5,6-0.8c0.6-0.1,1.1-0.6,2.1-1.1
		c-0.9,3.4-1.7,6.4-2,9.5c-0.3,3.4-0.1,6.8-0.1,10.3c-0.4,0.3-0.8,1-1.2,1c-3,0.3-6,0.5-9,0.8c-2,0.2-4,0.7-6,0.7
		c-2,0-3.9,0.9-5.8,1.3c-1.9,0.4-3.9,1-5.6,1.9c-2.4,1.2-4.7,2.7-6.5,5.5c-0.4-1.9-1.1-2.8-2.3-3.3c-0.9-0.4-1.4-1.1-1.2-2.3
		c0.1-0.8-0.1-1.7-0.7-1.9c-2.9-0.9-3.1-3.8-3.9-6.4c-0.1-0.2-0.1-0.5-0.2-0.6C25.8,162.8,27.1,161.2,27.9,159.5z M64.3,187.5
		c1-0.7,1.9-1.4,3-2.2c0.6,1.5,0.3,3,0.3,4.4c0,0.4-0.7,0.8-1.2,1.1c-0.1,0-0.4-0.6-0.7-0.9c-1.3-1.4-2.8-1.8-4.6-1.1
		c-0.6,0.2-1.6,0.6-1.7,0.3c-1.3-2.1-3.2-1.2-4.8-1.4c-0.5-0.1-1.1,0-1.9,0c-0.3-2-1.6-2.7-3.2-3c-1.8-0.3-3.4-0.8-4.8-2.4
		c-0.9-1-2.1-1.5-3.4-1.4c-1.9,0.1-1.9,0-4-1.9c4.2-3.9,9.1-5.4,13.8-7.2c0.1,0,0.2,0,0.3,0c2.9-0.3,5.8-0.5,8.6-0.8
		c1.3-0.1,2.7-0.6,4-0.7c1.3-0.1,2.5,0.1,3.7-0.7c0.5-0.3,1.2-0.1,1.9-0.1c-1.3,6.7-4.3,12.1-7.4,17.4
		C62.9,188.1,63.6,187.9,64.3,187.5z M82.5,195.2c1.9-0.6,3.9-1.5,5.8-2c2.3-0.6,4.8-0.1,7.2-0.2c1,0,2,1.3,3.1-0.1
		c-1.5,2.9-3.9,3.6-6.1,4.7c-2.3,1.1-4.7,1.5-7.1,2.2c-3.1,0.9-6.2,1.9-9.2,2.9c-1.2,0.4-2.4-0.1-3.7,0.8c-1.3,0.9-3.3,0.5-4.9,0.9
		c-3.3,0.9-6.7,0.2-9.9,0.9c-3.1,0.7-6.2,0.5-9.3,0.6c-1.5,0-2.9,0.2-4.4-0.6c-1.1-0.6-2.7-0.5-4-0.7c-2.5-0.5-4.9-1.2-7.2-2
		c-2.6-0.9-4.8-2.8-6.8-4.8c-0.9-0.9-1.8-1.8-2.4-3c-0.6-1.2-1.7-1.5-2.5-2.5c-2.3-2.9-2.6-6.5-2.1-9.9c0.4-2.6,0.9-5.3,1.8-7.8
		c0.9-2.3,1.6-4.8,2.4-7.2c0.1-0.3,0.4-0.5,0.7-0.8c0.5,4.9,2.4,8.9,5.3,12.3c4.9,5.7,4.9,6.6,13.7,11.2c1.4,0.7,2.7,1.6,4.1,2.2
		c1.3,0.6,2.7,1,4.1,1.6c1.4,0.6,3,0.5,4.4,1.4c0.9,0.6,2.2,0.1,3.4,0.7c1.8,0.8,3.9,0.6,5.9,0.9c0.8,0.1,1.6-0.1,2.5,0.5
		c0.8,0.5,2.4,0.7,3.1,0.1c1.4-0.9,2.7-0.6,4.1-0.6C77.3,196.9,79.9,196,82.5,195.2z M77.2,191.7H81c-0.4,1-0.7,1.9-1,2.7
		c-5.1,1.1-10.3,2.3-15.5,1.5c-3.3-0.5-6.7-1.3-10-2.4c-1.4-0.5-2.8-1.1-4.1-1.6c-0.5-0.3-1.2-0.1-1.6-0.4
		c-4.1-2.8-8.8-4.4-12.9-7.4c-5.1-3.8-8.7-9-10.9-15.3c-0.6-1.7-1.9-3.9,0.3-5.9c0.9,2.1,2,4.2,2.6,6.5c0.3,1.2,0.3,2.2,1.6,2.7
		c0.7,0.2,1.2,1.3,1.9,2c-0.3,0.5-0.6,0.9-0.8,1.3c0.1,0.1,0.2,0.4,0.4,0.5c1.1,0.6,2.7,0.7,3.3,1.7c0.7,1.3,1.6,2.3,2.5,3.3
		c1,1.2,2.2,1.8,3.7,1.7c0.6-0.1,1.3,0,1.9,0.2c1.6,0.6,1.9,1,2.3,3.4c4.4,0.2,4.4,0.2,6.6,1.6c-0.5,0.8-1.1,1.5-1.6,2.2
		c0.3,0.6,0.5,1.1,0.8,1.6c1.9-2.2,4.4-2.5,7.3-2.2c-0.3,0.7-0.6,1.3-0.8,1.9c-0.1,0.6,0,1.2,0,2.2c1.5-1.1,2.6-2,3.7-2.7
		c2.3-1.4,2.7-1.2,4.2,1.6c0.1,0.2,0.2,0.4,0.4,0.7c1.3-0.5,2.2-2.6,4-1.5c-0.1,0.8-0.3,1.8-0.4,2.7c2.3-0.4,3.5-2.9,5.9-2.9v2.9
		C75.8,193.3,76.6,192.4,77.2,191.7z M68.7,189.7c1.5-1.3,2.6-2.3,4-3.5c0.7,1.1,1.5,2.3,2.5,3.8c-0.9,0-1.4-0.2-1.9,0
		c-0.4,0.2-0.7,1-1.2,0.1c0-0.1-0.2-0.1-0.2-0.1c-0.4,0.2-1.8,0.1-2.1-0.1C69.6,189.9,69.4,189.9,68.7,189.7z M82.3,135.7
		c-0.4,1.5-0.1,3.3-0.1,4.9c0.2,5.7-1.2,11.3-0.7,17.1c0.1,1-0.1,2.3,0.4,2.8c1.1,1.2-1,2.5,0.3,3.5c-0.5,0.5-0.9,1.1-1.4,1.6
		c-0.5,0.4-1,0.9-1.6,1c-1.7,0.5-2.3,1.8-2.3,3.8c0,1.7-0.6,3.2-0.7,5c-0.1,3,0.9,5.4,2.7,7.5c-1.6,0.9-2.9,2.1-3.5,4.3
		c-2.6-3-2.6-3-5.3-0.6c-0.8-1.2-1.4-2.3-2.2-3.6c-0.7,0.7-1.3,1.2-2,1.8c-0.1-0.4-0.3-0.7-0.2-0.9c2.2-3.6,3.8-7.5,4.8-11.7
		c0.5-2.2,1.4-4.3,1.1-6.6c-0.4-4.1,0.6-8.1,0.8-12.2c0.1-2.5,1.1-5.1,2.7-7c1.4-1.6,1.6-3.5,1.9-5.6c1-7.2,0.3-14.4,0.6-21.6
		c0.2-3.4,1.2-6.7,2.1-9.9c0.3-0.9,0.4-1.8,0.6-2.8c3.5-2.6,7.1-5.4,10.7-8.1c0.1,0.1,0.3,0.3,0.4,0.4c-0.2,0.5-0.3,1-0.5,1.4
		c-0.8,2.4-1.5,4.8-2.3,7.2c-1.2,3.5-2.5,6.9-3.3,10.5c-0.7,3.1-1.9,6-1.8,9.3c0,1.5-1,2.6-0.7,4.2
		C83.1,132.9,82.7,134.3,82.3,135.7z M83.5,146.6c0.1-2.4,0-4.7,0-7.3c2,1.1,3.6,2.1,5.4,2.8c1.3,0.6,2.8,0.9,4.2,1
		c1.6,0.2,3.3-0.1,4.9,0.1c1.7,0.2,3-0.5,4.6-1.3c-1,2.4-1.5,5-3.2,6.8c-0.2,2.9-2.1,4.6-3.6,6.4c-4.4,0.3-8.8,0-12.7-1.7
		C83.9,151.2,83.4,148.9,83.5,146.6z M91.4,161.9c-2.9,0.4-5.6,0.7-8.4,1.1v-8.6c3.6,3.2,7.7,2.2,12.3,2.4
		C93.7,158.9,92.5,160.4,91.4,161.9z M105.2,154c0.5,0.9-0.4,5-1.1,6.1c-1.5,2.3-3.1,4.6-4.7,6.8c-1.1,1.5-1,2.6,0.6,3.4
		c1.6,0.8,3.2,1.7,5,1.6c0.9-0.1,1.7,0,2.6,0l1.5,1.7c-0.8,0.9-1.5,1.7-2.5,2.8c-0.9,0-2.1,0.1-3.4-0.7c-1.1-0.6-2.5,0.4-3.7-0.7
		c-0.5-0.5-1.7,0-2.6-0.1c-1.2-0.2-2.5-0.3-3.7-0.8c-0.7-0.3-1.3-1-1.7-1.6c-0.6-0.9,0.3-2.5-0.8-3.3c1.3-1.1,0.2-2.8,0.9-4.1
		c0.8-1.9,1.5-3.8,2.8-5.4c3.2-3.9,5.8-8.3,7.7-13.2C104.4,148.4,103.9,151.6,105.2,154z M107.3,127.3c-1.1,3.8-2.4,7.5-3.2,11.3
		c-0.3,1.4-0.7,1.2-1.6,1.6c-2.3,0.9-4.6,1.7-7.1,1.4c-3.2-0.4-6.3-1.3-9.4-2.3c-0.7-0.2-1.3-1.2-1.9-1.7v-8.4
		c1.6-2.1-0.5-5.2,1.8-7.1c2.2,1.1,4.4,2.5,6.8,3.3c2.5,0.8,5.2,1.7,7.8,1.1c2.4-0.6,4.8-1.7,7.4-2.7
		C107.8,124.9,107.6,126.1,107.3,127.3z M109,118.1c0,0.6-0.4,1.2-0.3,1.7c0.1,1.3-0.6,2.1-1.3,2.4c-1.7,0.7-3.2,2.1-5.2,2.1
		c-2.1-0.1-4.2,0.2-6.3-0.1c-2.1-0.3-4.2-1.1-6.3-1.7c-1.1-0.3-2.1-0.9-3.4-1.5c0-0.9-0.4-2.3,0.1-3c1.8-2.9,1.6-6.8,3.5-9.6
		c2.8,0.9,5,3.1,8,3.1c1.5,1.6,3.3,0.6,5,0.7c1.5,0.1,3.1-0.3,4.7-0.7c0.7-0.2,1.3-1.1,2.5-2C110.2,112.8,109.1,115.4,109,118.1z
		 M110.6,106.9c0.1,0.8-0.9,1.1-1.5,1.6c-2,1.7-4.4,1.3-6.5,2.2c-2.9-0.9-5.8-1-8.7-1.6c-1.2-0.3-2.4-1.2-3.8-2
		c1.1-4.5,3.1-8.8,5.2-13.2c4.8,3.2,9.8,3.9,15.4,2.8c0,1.1,0,2.6,0,4.1c0,0.8,0.1,1.8,0.4,2.4C112,104.6,110.4,105.5,110.6,106.9z
		 M144.4,98.1c-0.4,0.6-0.1,1.6-0.2,2.4c-0.2,0.1-0.3,0.2-0.4,0.2c-1.5,0-3.3-0.5-4.5,0.2c-2,1.1-3.7,3.1-5.6,4.7
		c-1.5,1.4-2.5,3.4-4,4.8c0,1.5-1.6,0.8-2,2c-0.4,1-1.3,1.7-2,2.4c-1.7,1.5-3.2,1.4-4.7-0.4c-2-2.2-3.6-4.7-5.2-7.3
		c-1-1.6-2.5-2.7-3.2-4.5c-0.2-0.4-0.6-0.8-0.6-1.2c0.1-2.6-0.9-5-0.8-7.6c0.1-1.9,0.7-4-0.6-5.7c-0.2-0.2-0.2-0.9,0-1.1
		c1-1.3-0.2-1.7-0.8-2.7c1-0.1,1.8-0.1,2.7-0.2c-0.9,2.3-0.6,4.2,0.5,6.1c1.8,3,3.6,6,6,8.5c2,2.1,3.9,4.4,5.8,6.6
		c0.7-0.5,1.4-1.1,2.1-1.4c2.4-0.9,4.4-2.4,6.6-3.8c1.2-0.7,2.1-1.3,2.3-3.1c0.2-1.4,1-0.7,1.6,0c0.6-1.4,1.2-2.9,1.9-4.3
		c0.6,0.9,1.3,1.9,1.8,2.6c0.8-0.3,1.5-0.5,2.3-0.7c0.2,0.9,0.3,2.3,0.7,2.3C145,97.1,145,97.2,144.4,98.1z"/>
	<path d="M111.3,55.4H110c-0.1,0.2-0.2,0.5-0.3,0.7c0.7,0,1.3,0.4,1.7,1.2c0.1,0.2,0,0.4-0.1,0.5c0.1,0.3-0.2,0.6-0.5,0.4
		c-0.1,0.2-0.3,0.4-0.6,0.2c0,0-0.1-0.1-0.1-0.1c0,0.1,0,0.1,0,0.2c-0.1,0.3-0.4,0.8-0.8,0.8c-0.1,0-0.2,0-0.2-0.1
		c0,0.1-0.1,0.1-0.1,0.2c0,0,0,0,0,0c0.3,0.4,0.6,0.7,0.9,0.9c0.9,0.6,1.5-0.9,1.5-1.7c0-0.5,0.6-0.5,0.7,0c0.1,1.1-0.7,2.8-1.9,2.6
		c-1-0.1-2.1-1.6-2.2-2.7c0,0,0-0.1,0-0.1c-0.1,0.1-0.2,0.1-0.2,0.2c-0.4,0.6-0.8,1.2-1.4,1.6c0.2,0.6,0.4,1,0.6,1.4
		c0.7,1.4,1.4,2,2.6,1.4c2.1-1,4.7-1.6,4.7-5.2C113,56.9,112.2,56.1,111.3,55.4z"/>
</g>
<g>
	<path d="M159.3,42.7c-2.1-1.7-3.1-4.1-3.6-6.8c-0.9-5.1-0.4-9.9,3.4-13.6c1.4-1.4,3.1-2,5-1.7c0.5,0.1,1.1,0,1.7,0
		c-0.6-2.1-0.7-4-0.2-6.1c1.4-5.1,5.7-8.2,10.7-6.3c3.6,1.3,5.2,2.6,7.8,7c0.4-1,0.8-2,1.3-2.9c2-3.5,4.9-3.9,8-3.4
		c2.8,0.5,5.3,2.1,7.3,4.2c1.5,1.6,2.6,3.6,2.7,6c0.8-1.1,1.6-2.2,2.4-3.2c2.8-3.1,6.6-3.6,10.3-1.1c4.3,2.9,7.2,6.8,8.4,12
		c0.7,3,0.9,6.2,1.3,9.3c0.1-0.1,0.5-0.2,0.8-0.5c4.1-3.5,8.1-1.8,10.7,2.5c2.4,4.1,3.7,8.6,3.6,13.5c-0.1,3.9-0.5,7.8-2.3,11.2
		c-1.5,3.1-4,5.1-7.4,5.1c-0.8,0-1.6,0-2.5,0c0.3,1.3,0.6,2.4,0.9,3.6c-0.1,0.1-0.2,0.2-0.3,0.4c-1-0.5-1.9-1-3.1-1.6
		c-0.2,1.5-0.5,2.8-0.7,4.2c-0.8,5.3-2.4,10.4-6.3,14c-2.7,2.4-3.5,5.6-4.7,8.8c-2.4,6.4-4.8,12.8-7.2,19.3c-3,8-6,15.9-8.9,23.9
		c-0.4,1.2,0,2.8,0.1,4.3c0.1,0.7,0.3,1.4,0.4,2.2c-0.5-0.5-0.9-1-1.4,0.3c-0.2-1.6-0.2-3-0.6-4.3c-0.8-2.4-1.8-4.6-2.6-7
		c-1.6-4.4-3.1-8.7-4.8-13.1c-1.6-4.2-3.2-8.3-4.9-12.5c-2.2-5.2-4.4-10.3-6.7-15.4c-1.9-4.1-3.9-8.1-5.8-12.2
		c-0.4-0.9-1-0.9-1.7-0.8c-1.8,0.2-1.8,0.2-1.7-1.7c0-0.2,0.1-0.4,0.1-0.4c-2.2-0.5-4.4-0.7-6.5-1.5c-6.9-2.7-10.9-8.1-12.4-15.8
		c-0.9-4.2-0.5-8.1,1.2-12C152.7,46.7,155.6,44.3,159.3,42.7z M225.7,70.3c0-4.6-0.9-8.9-3.3-12.6c-0.7-1.2-1.7-2.2-2.4-3.3
		c-1.4-2.2-3.4-2.2-5.4-1.4c-3.4,1.4-6,4.1-8.1,7.2c-0.8,1.3-1.2,2.9-1.9,4.2c-2.7,4.8-3.3,9.9-2.6,15.3c0.5,4.2,2.1,7.7,5.3,10.3
		c2.5,2,6.6,2.5,9.2,0.1c1.3-1.2,2.5-2.5,3.6-3.9C223.9,81.6,225.4,76.2,225.7,70.3z M150.3,58.4c0.1,1.2,0.2,2.4,0.3,3.6
		c0.4,4.5,2.4,8.1,5.3,11.2c2,2.1,4.4,3.9,7.2,4.4c2,0.4,4.2,0.7,6.1,0.2c3.9-1.1,6.2-4.5,7.7-8.4c0.5-1.4,0.7-3.1,0.4-4.5
		c-0.6-3.3-2.2-6.3-3.9-9.1c-2.3-3.7-5.2-6.8-8.9-8.9c-1.9-1.1-3.6-2.4-6.1-1.5C154.1,46.8,149.9,52.1,150.3,58.4z M214.4,51
		c0.9-0.1,1.7-0.5,2.4-0.2c1.6,0.6,2.4-0.3,3.3-1.4c2.3-2.9,3.5-6.4,4.3-10c0.7-3.3,0.9-6.7,0.2-10c-1.1-5.2-3.6-9.5-7.6-12.7
		c-1.5-1.2-3.1-2.4-5-2.5c-2.9-0.1-4.9,1.7-6.4,4.1c-2.9,4.8-4.1,10-2.6,15.8c0.4-0.1,0.7-0.1,1.1-0.2c3.3-0.9,6.7,0.8,8.5,4
		C214.7,41.9,215.3,46.2,214.4,51z M198.2,41.9c1-2,2-4,3.1-5.9c0.3-0.5,0.5-0.9,0.4-1.4C201,30.7,201,26.9,202,23
		c0.3-1.2,0.9-2.4,0.4-3.9c-0.8-2.3-1.8-4.3-3.4-6c-2.2-2.3-4.5-3.9-7.7-3.9c-2.7,0-5.4,3.1-5.9,5.6c-0.5,2.1-0.7,4.2-1,6.3
		c-0.5,3.9-0.4,7.7,1.3,11.2c1.4,2.9,3.1,5.8,4.7,8.6c0.2,0.4,0.9,0.6,1.4,0.8c0.7,0.2,1.5,0.4,2.2,0.5c0.3,0.1,0.5,0.2,0.8,0.1
		C196,42.3,197.1,42.1,198.2,41.9z M180.6,56.1c3-0.1,5.3-1.4,7.2-3.9c2.1-2.8,2.5-6,1.8-9.3c-0.6-3-1.8-5.7-3.7-8.2
		c-2.7-3.7-6-6.2-10.4-6.8c-1.6-0.2-3.2-0.4-4.3,1.4c-2.8,4.2-3.2,9.1-2.7,13.9c0.4,4,2.4,7.5,5.4,10.1
		C175.9,54.9,178,56.3,180.6,56.1z M225.9,65.9c0.9,0.2,1.7,0.4,2.5,0.6c2.3,0.7,4.5,0.6,6.6-0.7c2.2-1.4,3.1-3.7,3.8-6.1
		c1.3-4.3,1.8-8.7,0.8-13.2c-0.7-3.3-1.9-6.5-4.1-9c-1.2-1.4-2.7-2.4-4.5-2.1c-1.5,0.3-2.9,0.9-4.3,1.5c-0.3,0.1-0.6,0.5-0.7,0.8
		c-0.8,2.4-1.4,5-2.4,7.3c-1.1,2.4-2.6,4.6-3.9,7.1C223.7,55.4,225.1,60.5,225.9,65.9z M200.3,79.6c0.3-3.6,0.3-6.6,0.7-9.6
		c0.4-3.1,1.7-5.9,3.1-8.7c1-1.9,0.8-3.7-0.1-5.6c-1.1-2.4-2.8-4.1-4.8-5.8c-1-0.8-1.7-0.7-2.6-0.2c-2.7,1.6-5,3.6-6.6,6.5
		c-3.3,6-3.5,13.8,0.3,19.7c1.3,2,2.8,3.8,5.2,4C197.2,80,198.9,79.7,200.3,79.6z M183.6,30.2c-1.1-3.6-0.8-7.1-0.5-10.5
		c0.1-1.1,0.4-2.2,0.2-3.2c-0.6-2.4-1.9-4.4-3.8-5.9c-2.8-2.2-5.8-3.1-9-1.2c-2.2,1.4-3.9,3.5-4.3,6.4c-0.2,1.6-0.2,3.4,0.7,4.8
		c0.4,0.7,1.4,1.1,2.1,1.6c0.3,0.2,0.6,0.4,0.9,0.7c1.8,1.8,3.6,3.3,6.4,3.3C179.1,26.2,181.3,28.4,183.6,30.2z M168.7,48.1
		c0,0,0.1-0.1,0-0.2c-0.1-0.4-0.2-0.8-0.4-1.2c-1-3.3-2.1-6.5-1.4-10c0.7-3.5,1.5-6.8,4.2-9.3c0.9-0.8,0.7-1.6-0.3-2.4
		c-1-0.8-1.9-1.6-3-2.2c-4.2-2.3-7.7-1.5-10,2.9c-1.5,2.7-1.9,5.8-1.6,9c0.4,3.6,1.9,6.5,4.6,8.5C163.4,45,166.1,46.5,168.7,48.1z
		 M205.8,58.4c2.6-2.2,5.3-4.4,7.9-6.7c0.1-0.1,0.2-0.4,0.2-0.6c0-3,0.4-6-0.5-8.9c-0.8-2.6-1.8-4.9-4.2-6.3c-1.7-1-4.9-0.7-6.3,0.7
		c-2.4,2.4-3.3,5.5-3.6,8.8c-0.1,1.6,0,3.4,1.4,4.5C203.5,52.2,205.2,55,205.8,58.4z M173.1,81.8c3.9,8.8,7.8,17.5,11.6,26.3
		c3.7,8.7,7.3,17.6,10.9,26.3c-4.5-21-11.6-41-19.2-60.8c-0.6,0.5-1.3,0.9-1.8,1.5c-0.5,0.6-0.9,1.3-1.4,2c-0.8,1.2,0.4,1.7,0.8,2.4
		c0.3,0.5,0.5,1,0.9,1.5C174.3,81.3,173.7,81.6,173.1,81.8z M197.3,86.5c0,0.5,0,0.9,0,1.3c0.2,3.2,0.4,6.5,0.5,9.7
		c0.1,6.1,0.2,12.2,0.3,18.4c0,4.8,0,9.5,0,14.3c0,0.4,0,0.8,0,1.2c0.4-2,0.6-4,0.8-5.9c0.4-3.1,0.8-6.3,1.2-9.4
		c0.4-2.9,0.6-5.8,1.1-8.6c0.5-3.7,1.1-7.4,1.7-11.1c0.4-2.3,0.6-4.7,1.1-7c0.1-0.7,0.2-1.2-0.1-1.9c-1.1-2.2-2.1-4.4-3.2-6.8
		c-1.1,0-1.6,0.5-1.5,1.8c0.2,1.4,0.5,2.8,0.7,4.4C198.9,86.7,198.1,86.6,197.3,86.5z M200.5,132.5c0.1,0,0.2,0.1,0.3,0.1
		c5-13.6,10-27.2,15.1-41c-2.2,0.3-4.1,0.6-6.1,0.9c0,2.1,0.1,4,0,5.9c-0.1,0.9-0.5,1.8-1.7,1C205.5,110.5,203,121.5,200.5,132.5z
		 M195.5,126.9c0.1,0,0.2-0.1,0.3-0.1c-2.7-22-6.4-43.8-11.6-65.2c-0.5,0-1,0-1.7,0C186.9,83.4,191.2,105.2,195.5,126.9z
		 M199.1,131.4c0.1,0,0.2,0.1,0.3,0.1c2.7-10.8,5.4-21.6,8.2-32.5c-0.7-0.2-1.2-0.3-1.7-0.4c-1.1-0.2-1.4-0.8-0.8-1.9
		c0.4-0.9,1-1.6,1.4-2.5c0.9-1.8,1.1-4-1.8-4.8C202.8,103.4,201,117.4,199.1,131.4z M175.8,55.8c6.4,15,8.9,31.1,13.6,46.6
		c-2.5-13.7-5.1-27.4-7.6-41.2c-1,0-1.8,0-2.6,0c0.4-1.5,0.8-2.8,1.2-4C178.8,56.7,177.4,56.3,175.8,55.8z M188.2,74.1
		c3.2,14.1,5,28.5,7.3,42.8c-0.1-1.9-0.3-3.9-0.4-5.8c-0.3-3.3-0.5-6.5-0.7-9.8c-0.3-5.1-0.5-10.1-0.7-15.2c-0.1-1.5,0-3,0-4.6
		c0-0.3-0.1-0.8-0.3-1C191.4,78.6,189.3,76.7,188.2,74.1z M186.5,66.6c0.2-1,0.3-1.7,0.4-2.5c0.5-5.5,2.6-10.3,6.3-14.1
		c1.1-1.1,1.3-2.1,1-3.4c-0.6-0.5-1.9,0.5-1.9-1.1c0-0.8,0.1-1.7,0.1-2.5c-0.3,0-0.8,0-1.4,0c0,0.3,0,0.6,0,0.9
		c0.4,5.5-2,9.4-6.2,12.3c-0.3,0.2-0.4,1-0.3,1.4c0.5,1.6,1.6,2.8,1.1,4.8C185.5,63.5,186.2,65,186.5,66.6z M187.1,100.6
		c0.1-0.1,0.1-0.1,0.2-0.2c-2.8-11.2-5.5-22.3-8.3-33.7c-0.7,2-1.3,3.5-1.7,5.1c-0.1,0.4,0,1,0.2,1.4c3.1,6.5,5.2,13.4,7.4,20.3
		C185.6,95.8,186.4,98.2,187.1,100.6z M194.7,86.3c0,0.2-0.1,0.3-0.1,0.5c0.2,3.4,0.3,6.7,0.5,10.1c0.1,1.5,0.1,3,0.2,4.5
		c0.3,4.9,0.6,9.7,1,14.6c0.2,2.3,0.4,4.6,0.6,7c0.1-0.2,0.1-0.4,0.1-0.5c0-4.2,0-8.4,0-12.5c0-3.1-0.1-6.2-0.2-9.2
		c-0.1-3.4-0.3-6.8-0.5-10.3c-0.1-1.4-0.2-2.7-0.4-4.2C195.6,86.3,195.2,86.3,194.7,86.3z M198.5,43.3c-0.3,0-0.6-0.1-0.9-0.1
		c-0.8-0.1-1.2,0.3-1,1.1c0.3,2,0.3,2-1.5,2.5c0.1,0.5,0.2,0.9,0.3,1.5c1-0.2,2-0.5,3.1-0.7C198.5,46.1,198.5,44.7,198.5,43.3z
		 M196.1,81.4c-0.3,1.2-0.6,2.4-0.9,3.7c1.1,0.1,2,0.3,3,0.4C198.4,82.5,197.9,81.4,196.1,81.4z M184.5,60.3c-0.6-1.3-1-2.3-1.6-3.2
		c-0.2-0.2-1.3-0.1-1.4,0.2c-0.3,0.9-0.4,1.9-0.7,3C182,60.3,183,60.3,184.5,60.3z M208.4,93.1c-0.8,1.4-1.5,2.5-2.4,3.9
		c1,0.2,1.8,0.4,2.8,0.6C208.7,96.1,208.5,94.7,208.4,93.1z M173.1,80.6c-1.1-2.2-1.3-2.2-3.1-1.7c0,0.6,0,1.2,0,2
		C171.1,80.8,172.1,80.7,173.1,80.6z M193.2,44.7c0.1,0.1,0.1,0.2,0.2,0.3c0.7,0.1,1.3,0.2,2,0.2c0.1-0.1,0.2-0.2,0.3-0.3
		c-0.4-0.5-0.7-1-1.1-1.5C194.1,43.9,193.6,44.3,193.2,44.7z M226.5,67.4c-0.2,1.4,0.3,2.1,1.7,2.5C227.6,69,228.2,67.3,226.5,67.4z
		"/>
</g>
<g>
	<path d="M266.4,199.9c-1.8-1.4-2.9-3.2-2.6-5.6c0.4-3.4,1-6.9,1.2-10.3c0.2-4.7-0.3-9.3-2.3-13.7c-2.1-4.5-5.2-8-10.3-9
		c-2.5-0.4-5.1-0.4-7.6-0.5c0.7-1.6,1.6-3.4,2.2-5.3c1.4-4.3,1.7-8.4,0.6-12.2c-0.4,0.1-0.9,0.2-1.3,0.2c0.6,2.1,0.7,4.3,0.5,6.7
		c-0.4,4.3-2.3,8-4,11.8c-1.1,2.4-2.2,4.8-3.3,7.2c-1.1,2.3-1.6,4.7-1.4,7.3c0,0.4-0.2,0.9-0.5,1.3c-1.3,1.5-2.7,2.9-4.1,4.3
		c-0.2,0.2-0.5,0.4-0.8,0.4c-6.8,0.6-14.4-5.8-15-12.6c0-0.2,0-0.5,0-0.8c1.1,0.2,2.2,0.5,3.3,0.7c1.1,0.1,2.2,0,3.6,0
		c-7-1.3-13.3-4.7-15.4-8.1c1.6-1.2,3.4-1.5,5.2-0.7c0.9,0.4,1.7,1,2.5,1.5c2.4,1.6,4.6,1.3,6.5-0.8c0.2-0.3,0.8-0.3,1.2-0.4
		c0.4,0,0.8,0.1,1.3-0.1c-0.6-0.3-1.2-0.6-1.8-0.9c-0.5-0.4-1-0.8-1.4-1.1c0,0.4,0.2,1.2,0,1.8c-0.6,1.5-2,2.1-3.5,1.6
		c-1.2-0.4-2.3-1-3.3-1.7c-2.4-1.6-4.8-1.7-7.1,0c-2.2,1.6-4.5,0.5-5.2-1.4c-0.7-1.9-1.2-3.9-1.4-5.8c-0.5-7.7,1.6-14.6,7-20.3
		c2.4-2.5,5.1-4,8.1-4.7c-0.2-0.3-0.3-0.5-0.4-0.8c-5,1.3-8.7,4.3-11.4,8.9c-4.1,7-5.4,14.4-3.5,22.3c0.7,2.8,2.5,3.9,5.3,3.8
		c0.4,0,0.9,0.2,1.3,0.4c2.3,1.6,4.5,3.3,6.8,5c0.3,0.3,0.6,0.7,0.8,1.1c0.6,1.7,1,3.5,1.7,5.1c0.4,1.1,1.1,2,1.7,3.1
		c-2.4,1.5-4.2,3.4-5.6,5.9c-1.2,2.3-1.9,4.5,0.1,6.6c0.8,0.9,2,1.9,3.1,2.1c1.1,0.3,2.4,0.3,3.6,0.6c2.5,0.6,4.7-0.4,6.9-1.6
		c0.8,0.5,1.6,1.1,2.4,1.7c-1.5,2.4-2.1,4.9-1.9,7.6c0,0.4-0.2,0.9-0.4,1.2c-1,1.5-0.9,2.3,0.8,3c3.9,1.7,7.9,2.4,12.1,1.7
		c0.8-0.1,1.5-0.1,2.3-0.1c0.2,1.7,1.3,2.3,2.5,2.5c2.5,0.4,5.1,0.9,7.6,1c2,0.1,4.1-0.1,6.1-0.5c2.5-0.5,3.6-2.2,3.7-4.7
		c0-0.6,0-1.1,0-1.8c1.9,0.2,3.7,0.2,5.1-1.5C267.3,200.6,266.9,200.3,266.4,199.9z M264.2,180.3c-0.7-1.2-1-2.2-1.7-2.9
		c-2.1-2.4-2.7-5.2-2.7-8.3c0-0.8-0.2-1.7-0.3-2.5C262.7,170.5,264.1,175,264.2,180.3z M259.7,177.3c0.1-0.3,0.1-0.6,0.1-0.9
		c0-0.3,0.1-0.5,0.1-0.9c3.4,2.7,5.1,8.5,4.1,13.4c-1-1.8-1.7-3.8-3-5.3C259.3,181.7,258.9,179.7,259.7,177.3z M257.5,180.5
		c0.2,0.3,0.4,0.7,0.3,1c-0.3,1.2-0.8,2.4-1.3,3.8c-4.3-4.7-9.1-8.4-14.6-11.6c1.2-1.4,2.3-2.8,3.5-4.2
		C250.2,172.6,254.1,176.3,257.5,180.5z M246.5,168.7c1.1-0.7,2.3-1.5,3.6-2.2c0.2-0.1,0.7,0.1,1,0.2c3.2,1.7,5.7,4.1,7.7,7
		c0.2,0.2,0.4,0.5,0.3,0.8c-0.2,1.8-0.4,3.5-0.6,5.2C254.5,176,250.6,172.5,246.5,168.7z M257.5,185.5c0.3-1.1,0.7-2.2,1.2-3.5
		c0.7,1,1.4,1.7,1.9,2.6c1,1.9,2.1,3.7,2.9,5.7c0.3,0.9-0.1,2.1-0.1,3.3c-2-2.6-3.8-4.8-5.6-7.1
		C257.6,186.3,257.4,185.8,257.5,185.5z M257,164.5c0.6,0.1,1.4,0.5,1.5,1c0.7,2.3,1,4.6,0.9,6.8c-2.5-2.2-5-4.4-7.4-6.6
		C253.4,164.8,255.1,164.3,257,164.5z M244.5,162c3.8-0.5,7.5-0.5,11,1.3c0.1,0.1,0.3,0.2,0.3,0.2c-1.5,0.5-3,1-4.5,1.4
		c-0.4,0.1-0.9,0.1-1.3,0c-2.1-0.7-4.2-1.5-6.5-2.3C243.9,162.4,244.1,162,244.5,162z M243,163.9c0.1-0.2,0.6-0.3,0.8-0.2
		c1.8,0.6,3.6,1.2,5.6,1.9c-1.5,1-2.7,1.9-3.9,2.7c-0.2,0.1-0.5,0.1-0.8,0c-1-0.4-2.1-0.8-3.3-1.4C242,165.9,242.5,164.9,243,163.9z
		 M241.1,167.6c1.2,0.5,2.3,0.9,3.5,1.3c-1.2,1.5-2.3,2.9-3.5,4.4c-0.6-0.3-1.2-0.6-2-1C239.8,170.7,240.4,169.2,241.1,167.6z
		 M239,173.4c0.5,0.3,1,0.5,1.4,0.8c8.4,4.3,15,10.6,20.6,18.1c0.6,0.8,1.1,1.9,1.5,2.9c0.6,1.5,0.3,2-1.3,2.8
		c-1.9-4.5-6.1-6.8-9.6-9.7c-2.8-2.3-5.8-4.5-8.6-6.9c-2-1.6-3.8-3.4-4-6.1c0-0.2-0.1-0.4-0.1-0.6C238.9,174.2,239,173.9,239,173.4z
		 M238.6,178.1c2.3,3.5,5.8,5.5,8.9,8c0.3,0.2,0.5,0.8,0.5,1.2c-0.5,4.2-1.3,4.8-5.5,4.8c-0.2,0-0.4,0-0.7,0c-0.4-1.5-0.6-3.1-2.6-3
		c-0.4-1.4-1.1-2.5-2.7-2.3c-0.1,0-0.3-0.1-0.4-0.2c-0.7-1-1.6-1.2-3-0.8C234,182.3,236.4,180.4,238.6,178.1z M238.3,190.1
		c0.4-0.3,1.3-0.5,1.6-0.2c0.5,0.4,0.6,1.1,0.8,1.7c0,0.1-0.4,0.5-0.6,0.6c-0.9,0.1-1.8,0-2.7,0c-0.1-0.2-0.1-0.4-0.2-0.6
		C237.6,191.1,237.8,190.5,238.3,190.1z M237.1,190.6c-0.4,0.3-1,0.7-1.3,0.6c-0.5-0.3-0.8-0.9-1.2-1.4c0.4-0.8,0.7-1.5,1.1-2
		c0.6-0.7,1.4-0.8,2.1-0.1c0.7,0.6,0.6,1.8,0,2.3C237.6,190.2,237.4,190.4,237.1,190.6z M233.7,186.2c0.5-0.6,1.5,0,2,0.7
		c-0.5,0.9-1,1.8-1.6,3c-0.3-0.3-1-0.6-1-0.9C233.1,188.1,233.1,186.9,233.7,186.2z M213.6,188.1c-0.1-0.9-0.1-1.8-0.1-2.8
		c0.1,0,0.2,0,0.3,0c0.3,0.9,0.6,1.9,1,3.3C214.3,188.4,213.6,188.3,213.6,188.1z M214.3,189.2c1.2-0.8,1.6,0.4,2.2,1
		C215.2,190.8,214.7,190.5,214.3,189.2z M214.9,186.4c-0.8-1.8-0.1-3.6,1.1-5c0.9-1.1,2.1-2.1,3.2-3c0.7-0.7,1.1-0.2,1.2,0.6
		c0.2,1.1,0.3,2.3,0.6,3.4c0.8,3.1,3,5.2,5,7.4c0.2,0.2,0.3,0.4,0.6,0.6C221.3,194.3,217.1,191.6,214.9,186.4z M223.5,184.9
		c-0.9-1.5-1.5-3.2-2.2-4.7c0.2-0.1,0.3-0.2,0.5-0.3c3.1,2.7,6.6,4,10.5,3.7c0,1.8,0,3.6,0,5.3c0,0.4,0.2,0.9,0.4,1.1
		c2.2,1.3,4,3.3,6.9,3.1c1.8-0.2,3.6-0.1,5.4-0.2c1.9,0,2.9-1.2,3.3-2.9c0.2-0.8,0.3-1.7,0.5-2.7c1.2,0.9,2.4,1.8,3.7,2.7
		c-3.2,1.9-5.5,4.4-6.8,8c-1.6-0.4-3.2-0.6-4.7-1.1c-2.8-1-5.5-2.1-8.2-3.3C229,191.6,225.9,188.6,223.5,184.9z M229.1,204
		c-0.5-0.4-1-0.7-1.5-1.1c0.6-0.5,1.1-1.2,1.7-1.6c0.4-0.2,1-0.2,1.6-0.2c-0.6,1.1-1.1,2-1.6,2.9C229.3,204,229.2,204,229.1,204z
		 M231.6,204.8c-0.5-0.2-1.2-0.6-1.3-1c-0.3-1.7,1.1-2.8,2.8-2.4c0.6,0.1,1.2,0.3,1.7,0.5c-0.6,0.9-1.1,1.9-1.8,2.7
		C232.7,204.9,232,204.9,231.6,204.8z M240.1,205.8c-2-0.1-3.9-0.2-5.8-0.4c-0.2,0-0.5-0.4-0.5-0.4c0.3-0.8,0.6-1.6,1.1-2.2
		c0.2-0.2,1.1-0.1,1.5,0.1c1.3,0.7,2.6,1.6,3.9,2.3C240.2,205.4,240.2,205.6,240.1,205.8z M243,205.3c-0.7,0.2-1.7-0.3-2.3-0.7
		c-3-2.2-6-4.2-9.9-4.1c-0.6,0-1.2,0.1-2,0.2c-0.8-2.7,0.3-5.1,1.4-7.3c5.1,2,10,3.9,15.1,5.8c-0.2,1.3-0.6,2.6-0.7,4
		C244.5,204.3,243.8,205.1,243,205.3z M245,207.7c-0.5-0.3-1.3-0.9-1.2-1.1c0.1-0.6,0.7-1.3,1.2-1.5c1-0.3,2.1-0.2,3.2-0.3
		c-0.7,1.1-1.2,2.1-1.9,3.2C245.9,207.9,245.4,207.9,245,207.7z M250,208.6c-0.8-0.1-1.6-0.3-2.4-0.4c-0.1-0.1-0.3-0.3-0.4-0.4
		c0.5-0.8,0.8-2,1.6-2.4c1.3-0.8,2.4,0.4,3.5,0.7c-0.6,0.8-1.1,1.5-1.7,2.1C250.5,208.4,250.2,208.6,250,208.6z M256.5,208.5h-5
		c0-1.4,1.2-2.2,2.4-1.7c0.9,0.4,1.7,0.9,2.6,1.3C256.5,208.3,256.5,208.4,256.5,208.5z M261.6,205.3c-0.2,1.7-1.5,2.9-3.2,3
		c-0.4,0-0.9-0.2-1.2-0.4c-2.8-1.6-5.7-3.1-8.9-3.5c-1-0.1-2-0.1-3.2-0.2c0.7-5.4,2.5-10.1,7.2-13.2c0.3-0.2,1-0.3,1.3-0.2
		c3.8,2.6,7,5.8,7.9,10.6C261.7,202.7,261.7,204,261.6,205.3z M262.5,201.3c-0.4-0.5-0.7-1.4-0.5-2c0.1-0.6,0.8-1.1,1.1-1.4
		c1.1,1.1,2.2,2.1,3.3,3.1C265.5,201.8,263.1,202.1,262.5,201.3z"/>
	<path d="M232.3,142.6c4.7-0.1,7.2,2,8,6.1c1.1,5.5-2.2,10.7-7.5,11.4c-3.3,0.4-6.4-0.5-8.4-3.4c-1.9-2.7-1.9-5.6-0.4-8.6
		C225.8,144.3,229,142.6,232.3,142.6z M239.3,152.9c-3,3.8-6.5,4.2-9.9,1.3c-2.8-2.4-2.4-6.5,1-10c-3,0.3-5.7,3.1-6.4,6.6
		c-0.7,3.3,0.7,6,3.7,7.4c1.6,0.8,3.3,1,5.1,0.8C236.2,158.6,238.9,156.1,239.3,152.9z M231.8,144.8c-1.1,0-2,0.8-2,1.9
		c0,1,0.7,1.8,1.8,1.8c1.1,0,2-0.9,2-1.9C233.6,145.5,232.9,144.8,231.8,144.8z"/>
	<path d="M215.5,137.5c-1,0.7-1.6,1.3-2.4,1.8c0,0-0.5-0.5-0.4-0.5c0.6-0.6,1.1-1.2,1.8-1.8C214.6,136.9,215,137.2,215.5,137.5z"/>
	<path d="M211.4,134.7c0.1,1.3-0.1,2.1-1.3,2.6C209.8,136,210.3,135.4,211.4,134.7z"/>
</g>
<g>
	<path d="M198.7,141.7c-0.1,0.6-0.2,1.2-0.2,1.8c0,0.6-0.1,1.2-0.1,1.8c0,1.2,0.1,2.4,0.1,3.6l0.2,3.7c0,1.3,0,2.5,0.1,3.6
		c0.1,0.6,0.1,1.2,0.2,1.7c0.1,0.6,0.2,1.1,0.4,1.6c0.2,0.5,0.4,1,0.7,1.4c0.2,0.5,0.7,0.8,1,1.1c0,0,0.3,0.2,0.3,0.2
		c0.1,0,0.1,0.1,0.3,0.1c0.2,0.1,0.5,0.2,0.7,0.2c0.5,0.1,1.1,0.2,1.6,0.2c0.5,0,1.1,0,1.6-0.1c0.2,0,0.5-0.1,0.6-0.2
		c0.2-0.1,0.2-0.2,0.4-0.2l-0.2,0.6c0-0.1,0.1-0.2,0.2-0.3c0.1-0.1,0.1-0.1,0.2-0.2c0.1-0.1,0.2-0.1,0.3-0.2h0.5
		c0.1,0.1,0.2,0.1,0.3,0.2c0.1,0.1,0.2,0.1,0.2,0.2c0.1,0.1,0.2,0.3,0.2,0.4l0,0.2l-0.2,0.4c-0.3,0.5-0.7,0.7-1.1,0.9
		c-0.4,0.2-0.7,0.3-1.1,0.4c-0.7,0.2-1.4,0.2-2.1,0.2c-0.7,0-1.3-0.1-2-0.3c-0.3-0.1-0.7-0.2-1-0.3c-0.2-0.1-0.4-0.2-0.6-0.3
		c-0.3-0.1-0.2-0.1-0.5-0.3c-0.5-0.5-1.1-1-1.4-1.6c-0.4-0.6-0.7-1.2-1-1.9c-0.2-0.7-0.4-1.3-0.5-2c-0.1-0.7-0.1-1.3-0.2-1.9
		c0-1.3,0-2.5,0.1-3.7l0-3.6c0-1.2,0-2.5,0.1-3.7c0-0.6,0.1-1.3,0.2-1.9c0.1-0.6,0.2-1.2,0.4-1.8L198.7,141.7z"/>
</g>
<g>
	<path d="M103.1,62.3c-0.2,0.1-0.6,0.3-0.9,0.6c-0.7,0.6-1.4,0.9-2.2,1c-0.3,0-0.7,0.2-1,0.4c-0.4,0.5-0.9,0.6-1.5,0.6
		c-0.4,0-0.7,0.1-1.1,0.1c-0.7,0.1-1.3,0.6-1.8,1.1c-0.6,0.6-1.1,0.7-1.8,0.3c-0.3-0.2-0.6-0.3-1-0.3c-0.2,0-0.5-0.2-0.8-0.3
		c-0.2-0.1-0.4-0.2-0.5-0.2c-1.1,0.2-1.7-0.6-1.7-1.8c0-0.8,0.4-1.5,0.7-2.1c0.1-0.2,0.1-0.4,0.1-0.6c-0.4-1.7-0.9-3.4-1.3-5.1
		c-0.6-2.5-1.2-5.1-1.8-7.6c-0.4-1.6-0.7-3.1-1-4.7c-0.3-1.5-0.7-2.9-1-4.4c-0.2-1-0.4-2-0.6-3.1c-0.2-0.9-0.4-1.8-0.5-2.6
		c-0.3-1.7-0.6-3.4-0.9-5.1c-0.1-0.6-0.1-1.2-0.2-1.7c-0.1-0.6-0.4-0.7-0.6-0.3c-0.4,0.8-1.1,0.5-1.7,0.6c-1.1,0.2-1.8-0.6-2.5-1.5
		c-0.2-0.3-0.4-0.6-0.5-0.9c-0.1-0.2,0-0.5,0-0.7c0-0.3-0.2-0.6-0.2-0.9c0-0.8,0-1.6,0.7-2.2c0.2-0.2,0.4-0.6,0.6-0.9
		c0.4-0.5,0.8-1.1,1.4-1.3c0.7-0.1,1.4-0.2,2.1-0.1c0.8,0.1,1.4,1.1,1.5,2.2c0,0.2,0.1,0.3,0.2,0.4c1.1,1.1,2.1,2.3,3.2,3.4
		c1.2,1.3,2.5,2.7,3.7,4c1.1,1.2,2.2,2.4,3.3,3.6c1.1,1.1,2.2,2.2,3.3,3.3c1.6,1.6,3.2,3.1,4.8,4.7c1.1,1,2.2,2,3.2,3
		c0.9,0.8,1.8,1.7,2.6,2.5c0.4,0.4,0.7,0.5,1.1,0.1c0.6-0.4,1.1-0.4,1.7,0.1c0.1,0.1,0.2,0.2,0.4,0.2c1,0.3,1.8,1.6,1.8,2.8
		c0,0.6,0,1.2,0,1.8c0,0.3,0,0.5-0.1,0.8c-0.1,0.2-0.2,0.4-0.3,0.6c-0.3,0.4-0.5,0.9-0.8,1.3c-0.3,0.6-0.6,1.3-0.9,1.8
		c-0.2,0.3-0.6,0.5-0.9,0.8c-0.4,0.4-0.7,0.8-1,1.2c-0.4,0.6-0.9,1.2-1.6,1.4c-0.6,0.2-0.9,0.7-1.3,1.2
		C104.9,61.1,104.3,62,103.1,62.3z M102.8,61.9c0.9-0.2,1.3-0.6,1.8-1.1c0.5-0.6,1.1-1.2,1.7-1.8c0.6-0.5,1.2-1.1,1.8-1.8
		c0.4-0.5,0.7-1,1-1.4c0.3-0.4,0.7-0.6,1-1c0.5-0.7,0.8-1.4,1.2-2.1c0.1-0.2,0.4-0.4,0.4-0.6c0.1-0.4,0.2-0.8,0.2-1.2
		c0-0.7-0.1-1.3-0.1-2c0-0.8-0.4-1.6-1.1-1.9c-0.2-0.1-0.5-0.2-0.6-0.4c-0.4-0.4-0.8-0.4-1.2-0.1c-0.4,0.2-0.5,0.4-0.2,0.8
		c0.1,0.2,0.2,0.4,0.3,0.7c0.2,0.5,0,1-0.1,1.5c-0.2,0.8-0.5,1.4-0.9,2c-0.5,0.8-1,1.6-1.4,2.4c-0.1,0.2-0.2,0.4-0.4,0.5
		c-0.4,0.4-0.7,0.7-1.1,1.1c-0.9,0.9-1.8,1.9-2.8,2.7c-1,0.9-2.1,1.7-3.4,2.1c-0.1,0-0.3,0.1-0.4,0.2c-0.7,0.6-1.4,1-2.3,1
		c-0.2,0-0.3,0.1-0.5,0.1c-0.6,0.2-1.3,0.5-1.9,0.7c-1.1,0.3-2.2,0.4-3.3,0c-0.1,0-0.3,0.1-0.4,0.2c-0.3,0.6-0.5,1.1-0.7,1.7
		c-0.2,0.6,0,1,0.4,1.1c0.6,0.1,1.3,0.1,1.9,0.3c0.2,0.1,0.4,0,0.6,0c0.2,0,0.4,0,0.5,0.1c0.5,0.3,0.8,0.2,1.2-0.2
		c0.9-1,2-1.2,3.2-1c0.2,0,0.6-0.1,0.8-0.2c0.7-0.6,1.4-0.9,2.2-0.8c0.4,0.1,0.6-0.1,0.9-0.3C101.7,62.7,102.3,62.3,102.8,61.9z
		 M90,60.7C90,60.7,90,60.7,90,60.7c0.1,0.3,0.2,0.5,0.3,0.8c0.1,0.3,0.2,0.4,0.5,0.4c0.5-0.1,1-0.1,1.5-0.3
		c0.5-0.2,1.1-0.3,1.6-0.7c1.1-1,2.2-2,3.2-3.1c1.3-1.5,2.4-3.1,3.4-4.9c1.5-2.9,2.6-5.9,2.7-9.3c0-0.5-0.1-1-0.4-1.3
		c-0.3-0.3-0.6-0.6-0.9-0.8c-0.6-0.5-0.5-0.5-0.7,0.3c-0.3,1.3-0.5,2.6-1,3.9c-0.5,1.5-1.3,2.8-2.2,4c-0.8,1.1-1.6,2.2-2.5,3.3
		c-0.6,0.7-1.4,1.3-2.1,2c-1.1,0.9-2.2,1.7-3.6,1.9c-0.5,0.1-0.6,0.3-0.5,0.8C89.5,58.7,89.7,59.7,90,60.7z M87.5,49.8
		c0,0.2,0.1,0.5,0.2,0.8c0.2,0.8,0.4,1.6,0.6,2.4c0,0.1,0.2,0.3,0.3,0.3c0.6-0.2,1.3-0.3,1.9-0.6c1.3-0.7,2.5-1.7,3.6-2.8
		c1.3-1.4,2.5-3,3.3-4.8c0.8-1.7,1.4-3.5,1.5-5.4c0-0.6,0-1.1-0.4-1.6c-0.4-0.5-0.9-0.9-1.4-1.3c-0.1-0.1-0.2-0.1-0.3-0.1
		c-0.1,0-0.1,0.2-0.1,0.3c0,0.9,0.1,1.8-0.3,2.7c-0.2,0.5-0.4,1-0.5,1.5c-0.2,0.9-0.6,1.6-1,2.4c-0.8,1.4-1.8,2.7-2.9,3.7
		c-0.7,0.6-1.5,1.3-2.3,1.7C89,49.4,88.3,49.6,87.5,49.8z M86.5,45.9c0.4,1.2,0.5,1.3,1.2,0.8c1-0.6,1.9-1.3,2.8-2.1
		c1.1-0.9,2-2,2.8-3.3c1-1.6,1.8-3.2,1.9-5.2c0.1-0.9-0.1-1.6-0.8-2.2c-0.5-0.4-1-1-1.5-1.4c-0.2-0.2-0.4-0.3-0.7-0.5
		c0,0.3-0.1,0.6-0.1,0.9c0,1.8-0.4,3.4-1.2,4.9c-0.5,1-1.2,1.9-1.9,2.8c-0.6,0.9-1.4,1.5-2.3,1.9c-0.2,0.1-0.4,0.2-0.5,0.2
		c-0.2,0.1-0.3,0.3-0.3,0.5C86.1,44.2,86.4,45.2,86.5,45.9z M100.2,58.8c0.1,0.1,0.1,0.1,0.1,0.1c0,0,0.1,0,0.1,0
		c1-0.4,1.8-1.1,2.5-1.9c0.5-0.5,1-1.1,1.5-1.6c0.4-0.4,0.9-0.9,1.3-1.3c0.5-0.7,1-1.4,1.5-2.1c0.2-0.3,0.3-0.7,0.5-1
		c0.1-0.3,0.2-0.7,0.3-1.1c0.1-0.3,0.2-0.6,0.3-1c0.2-0.8-0.2-1.7-0.8-2.1c-0.8-0.5-1.5-1.1-2.1-1.8c-0.2-0.3-0.5-0.5-0.7-0.7
		c0,0-0.1,0-0.1,0C104.7,49.8,103.1,54.5,100.2,58.8z M99.1,39.1c0,0.6,0.1,1.2,0.1,1.7c-0.3,2.3-1,4.4-2.2,6.3
		c-0.7,1.2-1.5,2.3-2.4,3.2c-0.8,0.8-1.7,1.5-2.7,2.2c-1,0.6-2,1-3.2,1.1c-0.2,0-0.4,0.1-0.3,0.4c0.1,0.6,0.2,1.2,0.4,1.8
		c0.1,0.4,0.3,0.6,0.6,0.5c0.4-0.1,0.8-0.1,1.1-0.3c0.8-0.4,1.6-0.9,2.3-1.5c1.4-1,2.6-2.4,3.7-3.9c1.2-1.6,2.2-3.4,2.8-5.4
		c0.4-1.4,0.8-2.8,0.9-4.3C100.3,40.3,99.8,39.4,99.1,39.1z M92.9,62c0,0.1,0.1,0.1,0.1,0.2c0.4-0.1,0.7-0.1,1.1-0.2
		c0.6-0.2,1.1-0.6,1.7-0.7c0.7-0.1,1.3-0.3,1.9-0.6c0.3-0.2,0.7-0.3,0.9-0.5c1.3-1.5,2.4-3.1,3.3-5c0.5-1.1,0.8-2.3,1.2-3.4
		c0.8-2.4,1-5,1-7.6c0-0.4-0.2-0.6-0.5-0.8c-0.2,4-1.6,7.5-3.4,10.8C98.3,57.4,96,60.1,92.9,62z M89.2,28.7c0,0-0.1,0.1-0.1,0.1
		c0,0.1,0,0.2,0,0.4c-0.1,0.5-0.1,1.1-0.2,1.6c-0.3,1.3-0.9,2.3-1.6,3.3c-0.4,0.6-0.8,1.2-1.5,1.5c-0.3,0.1-0.5,0.3-0.8,0.4
		c-0.3,0.1-0.4,0.3-0.3,0.6c0.2,1.1,0.4,2.1,0.6,3.2c0.1,0.4,0.2,0.5,0.6,0.3c1.3-0.6,2.2-1.6,3.1-2.9c1-1.5,1.7-3.2,2-5.1
		c0.1-0.6,0.1-1.3-0.2-1.7C90.3,29.7,89.7,29.2,89.2,28.7z M78.9,20C78.9,19.9,78.9,19.9,78.9,20c-0.3,0.1-0.6,0.3-0.7,0.6
		c-0.3,0.6-0.6,1.2-0.7,1.8c-0.1,0.5-0.3,1.1,0.2,1.6c0.1,0.1,0.1,0.4,0.1,0.5c0,0.2-0.1,0.6,0,0.7c0.3,0.5,0.7,0.9,1.1,1.4
		c0.6,0.6,1.3,0.4,1.9,0.3c0.1,0,0.2-0.1,0.2-0.1c0.5-0.5,0.9-1.1,1-1.8c0.1-0.5,0.1-1-0.3-1.4c-0.4-0.5-0.4-0.5-0.2-1.2
		c0.1-0.3,0.2-0.4,0.5-0.3c0.1,0,0.3,0,0.4-0.1c0.3-0.3,0.4-0.7,0.3-1c-0.2-0.5-0.5-0.9-0.8-1.3c-0.1-0.1-0.2-0.1-0.3-0.1
		c-0.8,0-1.7-0.3-2.4,0.5C79.1,19.9,79,19.9,78.9,20z M95.6,35.6c0,0.3,0,0.6,0,0.8c-0.2,1.9-0.8,3.5-1.8,5C93,42.8,92.1,44,90.9,45
		c-0.6,0.6-1.3,1.1-2,1.5c-0.6,0.3-1.2,0.5-1.8,0.8c-0.1,0-0.2,0.2-0.2,0.3c0.1,0.5,0.2,0.9,0.3,1.3c0.1,0.4,0.3,0.5,0.6,0.4
		c1.4-0.4,2.6-1.2,3.7-2.2c1-1,1.8-2.1,2.6-3.2c0.5-0.8,1-1.7,1.3-2.6c0.4-1.1,0.6-2.2,0.8-3.3c0.1-0.5,0.1-1,0-1.6
		C96.2,36,96.1,35.6,95.6,35.6z M83.9,32.9c0.2,0.4,0.3,0.5,0.6,0.2c0.3-0.3,0.6-0.5,0.9-0.8c1.1-1.2,1.9-2.6,2.3-4.3
		c0.1-0.4,0.1-0.8-0.2-1.1c-0.3-0.4-0.7-0.7-1-1.1c-0.1-0.1-0.2-0.1-0.3-0.2c-0.1,0.1-0.1,0.2-0.2,0.4c-0.1,0.4-0.2,0.8-0.3,1.1
		c-0.4,0.9-1.2,1.4-2,2c-0.2,0.1-0.3,0.2-0.2,0.5c0.1,0.3,0.1,0.7,0.1,1C83.6,31.3,83.7,32.1,83.9,32.9z M91.3,31.1
		c0,0.4,0,0.7,0,1.1c-0.5,2-1.2,3.9-2.4,5.5c-0.4,0.5-0.8,1.1-1.3,1.5c-0.6,0.5-1.3,0.8-1.9,1.2c-0.1,0.1-0.2,0.3-0.2,0.4
		c0.1,0.5,0.2,1,0.3,1.4c0.1,0.2,0.2,0.3,0.4,0.2c0.5-0.3,1.1-0.6,1.6-1c0.9-0.7,1.6-1.6,2.2-2.6c0.9-1.3,1.5-2.9,1.7-4.6
		c0.1-0.8,0.1-1.7,0.1-2.5C91.8,31.4,91.6,31.3,91.3,31.1z M88,27.6c-0.1,0.5-0.3,1-0.4,1.5c-0.6,2-1.4,3.7-3.3,4.4
		c-0.1,0-0.2,0.3-0.2,0.4c0.1,0.5,0.2,1,0.2,1.5c0.1,0.3,0.2,0.4,0.4,0.2c0.5-0.4,1.1-0.8,1.5-1.3c1.3-1.5,2.1-3.4,2.4-5.5
		C88.8,28.2,88.6,27.9,88,27.6z M82.7,24.3C82.7,24.3,82.8,24.3,82.7,24.3c0.1,0.1,0.1,0.3,0.1,0.4c0,0.5,0,1,0,1.5
		c0,0.1,0.1,0.2,0.1,0.3c0,0,0.2,0,0.2-0.1c0.5-0.6,0.9-1.2,1.1-2c0.1-0.4,0.2-0.8-0.1-1.2c-0.3-0.4-0.7-0.8-1-1.2
		c-0.1-0.2-0.3-0.5-0.5-0.2c-0.2,0.2-0.6,0.4-0.5,0.9C82.4,23.2,82.6,23.7,82.7,24.3z M85.6,24.9c-0.2-0.3-0.4-0.5-0.6-0.7
		c0,0-0.3,0-0.3,0.1c-0.1,0.1-0.1,0.3-0.1,0.4c-0.3,0.8-0.7,1.6-1.3,2.1c-0.1,0.1-0.2,0.4-0.2,0.6c0,0.2,0.1,0.4,0.1,0.6
		c0.1,0.7,0.1,0.7,0.7,0.3c0,0,0,0,0.1,0c0.6-0.6,1.2-1.3,1.5-2.3C85.6,25.7,85.6,25.3,85.6,24.9z"/>
	<path d="M100.6,61.2c0.5,0,1.1,0.1,1.6,0.1c-0.1,0.3-0.2,0.6-0.5,0.6C101.4,61.9,100.8,61.5,100.6,61.2z"/>
	<path d="M109.9,51.4c0.3,0.4,0.3,0.9,0.3,1.4c0,0.2-0.1,0.5-0.4,0.5c0-0.3,0.1-0.6,0.1-0.9c0-0.3,0-0.6,0-0.9
		C109.8,51.4,109.9,51.4,109.9,51.4z"/>
	<path d="M110.5,48.6c0.3,0,0.6,0.6,0.6,1c0,0.1,0,0.3-0.1,0.3c-0.1,0.1-0.2,0.2-0.3,0.3c0-0.1,0-0.2-0.1-0.3
		C110.7,49.4,110.6,49,110.5,48.6z"/>
	<path d="M93.6,64.6c-0.5-0.1-0.8-0.5-1-0.9C93,63.5,93.6,64.1,93.6,64.6z"/>
	<path d="M108.4,54c0.4,0.5,0.3,1.3-0.2,1.5C108.3,55,108.3,54.5,108.4,54z"/>
	<path d="M103.2,59.7c0.3-0.1,0.6-0.1,0.9-0.1c0,0,0.1,0.2,0.1,0.2c-0.1,0.1-0.2,0.3-0.3,0.3c-0.2,0-0.5-0.1-0.7-0.2
		C103.2,59.8,103.2,59.8,103.2,59.7z"/>
	<path d="M80.3,25.7c-0.8-0.1-1.1-0.8-0.9-1.8C79.7,24.6,80,25.1,80.3,25.7z"/>
	<path d="M80.5,21.3c0.3-0.5,0.8-0.6,1.2-0.2C81.4,21.5,80.9,21.2,80.5,21.3z"/>
	<path d="M81.1,19.8c0.4-0.1,0.6,0,0.9,0.2c0.1,0.1,0.2,0.4,0.3,0.5c0,0-0.1,0.1-0.1,0.1C81.8,20.4,81.5,20.1,81.1,19.8z"/>
	<path d="M78.9,22.1c-0.1,0.4-0.3,0.8-0.4,1.2C78.2,23.1,78.4,22.4,78.9,22.1z"/>
	<path d="M81.2,24.8c-0.1-0.5-0.1-0.9-0.2-1.3C81.3,23.6,81.4,24.1,81.2,24.8z"/>
</g>
<g>
	<path d="M227.6,138.4c-0.3-0.2-0.7-0.5-1.3-0.8c-1.1-0.5-2-1.2-2.5-2.3c-0.2-0.4-0.6-0.8-1.1-1c-0.9-0.3-1.3-0.9-1.6-1.5
		c-0.3-0.4-0.5-0.9-0.8-1.3c-0.5-0.9-1.5-1.3-2.4-1.7c-1.1-0.4-1.5-1-1.4-2.1c0.1-0.5,0.1-1-0.2-1.5c-0.2-0.3,0-0.8-0.1-1.1
		c0-0.3,0.1-0.6-0.1-0.8c-0.8-1.3-0.2-2.6,1.4-3.3c1.1-0.5,2.1-0.3,3.1-0.3c0.3,0,0.6-0.1,0.8-0.2c2-1.5,3.9-3,5.8-4.5
		c2.9-2.2,5.8-4.5,8.8-6.7c1.8-1.3,3.6-2.6,5.4-3.9c1.7-1.2,3.3-2.5,5-3.7c1.2-0.9,2.4-1.7,3.6-2.5c1-0.7,2-1.5,3.1-2.2
		c2-1.3,4-2.6,6-3.9c0.7-0.4,1.4-0.8,2.1-1.2c0.7-0.4,0.7-0.9,0-1c-1.3-0.1-1.3-1.1-1.7-1.8c-0.9-1.3-0.2-2.7,0.5-4
		c0.2-0.4,0.5-0.9,0.9-1.2c0.2-0.2,0.6-0.3,0.9-0.4c0.4-0.2,0.7-0.6,1-0.8c1-0.4,2.1-0.9,3.2-0.4c0.4,0.2,1,0.2,1.5,0.3
		c0.9,0.2,1.9,0.4,2.4,1.1c0.6,0.8,1.1,1.7,1.3,2.7c0.3,1.1-0.7,2.4-2,3.1c-0.2,0.1-0.4,0.3-0.5,0.5c-0.9,2-1.7,4-2.6,6
		c-1,2.3-2.1,4.7-3.1,7c-0.9,2.1-1.8,4.2-2.7,6.3c-0.8,2-1.6,4.1-2.4,6.1c-1.1,2.9-2.2,5.8-3.3,8.7c-0.7,1.9-1.3,3.9-2,5.8
		c-0.6,1.6-1.2,3.2-1.7,4.8c-0.3,0.8-0.2,1.1,0.4,1.5c0.8,0.5,1.1,1.3,0.8,2.2c-0.1,0.2-0.1,0.4-0.1,0.6c0.2,1.5-1,3.2-2.6,3.8
		c-0.8,0.3-1.5,0.7-2.3,1.1c-0.3,0.1-0.7,0.3-1,0.3c-0.3,0-0.7,0-1-0.1c-0.7-0.1-1.4-0.2-2.2-0.2c-1-0.1-2,0-2.9-0.2
		c-0.6-0.1-1-0.5-1.6-0.7c-0.7-0.3-1.4-0.5-2.1-0.6c-1-0.2-2-0.5-2.6-1.3c-0.6-0.7-1.4-0.7-2.2-1C230.1,140,228.6,139.8,227.6,138.4
		z M227.9,137.7c0.7,1,1.5,1.4,2.4,1.6c1.1,0.3,2.2,0.7,3.2,1.2c1,0.5,2.1,1,3.3,1.3c0.8,0.2,1.6,0.3,2.4,0.6
		c0.7,0.2,1.2,0.6,1.9,0.7c1.1,0.2,2.3,0.3,3.4,0.4c0.4,0,0.7,0.2,1.1,0.2c0.6-0.1,1.1-0.2,1.6-0.5c0.9-0.4,1.6-0.9,2.5-1.3
		c1-0.5,1.8-1.4,1.8-2.4c0-0.3,0-0.7,0.2-1c0.4-0.7,0-1.2-0.5-1.6c-0.5-0.4-0.7-0.4-1.2,0.2c-0.2,0.3-0.5,0.5-0.7,0.7
		c-0.6,0.6-1.3,0.5-2,0.7c-1.1,0.2-2.1,0.1-3.1-0.1c-1.3-0.2-2.6-0.3-3.8-0.5c-0.3,0-0.6-0.1-0.9-0.2c-0.7-0.3-1.3-0.6-2-0.8
		c-1.7-0.7-3.5-1.2-5.1-2c-1.7-0.9-3.4-1.7-4.6-3.2c-0.1-0.1-0.3-0.3-0.5-0.4c-1.1-0.5-2.1-1.2-2.6-2.3c-0.1-0.2-0.3-0.4-0.5-0.5
		c-0.6-0.7-1.3-1.3-1.9-2.1c-1-1.2-1.8-2.6-1.9-4.2c0-0.2-0.3-0.4-0.4-0.4c-0.9,0-1.7-0.1-2.6,0.1c-0.8,0.1-1.3,0.5-1.1,1.1
		c0.2,0.9,0.6,1.7,0.6,2.6c0,0.3,0.3,0.5,0.4,0.7c0.1,0.2,0.2,0.5,0.2,0.7c-0.1,0.8,0.2,1.2,1,1.4c1.8,0.6,2.7,1.8,3.1,3.5
		c0.1,0.3,0.4,0.7,0.7,0.9c1.1,0.5,2,1.2,2.2,2.4c0.1,0.5,0.4,0.8,0.9,1C226.3,136.8,227.2,137.3,227.9,137.7z M222.2,120.6
		C222.2,120.6,222.2,120.6,222.2,120.6c-0.3,0.3-0.5,0.5-0.8,0.8c-0.3,0.3-0.4,0.5-0.2,0.8c0.4,0.6,0.7,1.2,1.1,1.7
		c0.5,0.6,1.1,1.3,1.8,1.6c1.8,0.9,3.7,1.7,5.7,2.3c2.6,0.8,5.3,1.4,8.2,1.6c4.5,0.3,9,0,13.4-1.8c0.7-0.3,1.2-0.6,1.5-1.2
		c0.3-0.5,0.4-1.1,0.5-1.7c0.3-1,0.3-0.9-0.8-0.7c-1.8,0.4-3.7,0.8-5.6,1c-2.2,0.2-4.3-0.1-6.3-0.6c-1.9-0.4-3.8-0.8-5.6-1.4
		c-1.3-0.4-2.5-1-3.7-1.6c-1.8-0.9-3.4-1.9-4.4-3.5c-0.4-0.6-0.7-0.6-1.3-0.1C224.6,118.8,223.4,119.7,222.2,120.6z M234.8,111.3
		c-0.2,0.2-0.6,0.4-0.9,0.6c-0.9,0.7-1.8,1.3-2.7,2c-0.2,0.1-0.3,0.5-0.2,0.6c0.6,0.7,1.1,1.5,1.8,2c1.7,1.3,3.6,2.3,5.6,3
		c2.6,0.9,5.2,1.5,8,1.6c2.6,0.1,5.2-0.2,7.7-1.1c0.7-0.3,1.5-0.6,1.8-1.4c0.3-0.8,0.7-1.7,1-2.5c0-0.1,0-0.3,0-0.4
		c-0.1-0.1-0.3,0-0.4,0c-1.2,0.5-2.3,1.1-3.6,1.2c-0.8,0.1-1.5,0.1-2.3,0.2c-1.2,0.3-2.4,0.2-3.6,0c-2.3-0.3-4.4-0.8-6.4-1.7
		c-1.2-0.6-2.4-1.2-3.5-2C236.2,113,235.6,112.1,234.8,111.3z M239.4,107.8c-1.3,1.1-1.3,1.4-0.4,2c1.4,0.9,2.8,1.7,4.2,2.4
		c1.8,0.8,3.7,1.4,5.7,1.7c2.6,0.4,5.1,0.5,7.7-0.4c1.2-0.4,2-1.1,2.3-2.2c0.3-0.9,0.7-1.8,1-2.8c0.1-0.4,0.2-0.8,0.3-1.1
		c-0.4,0.1-0.8,0.2-1.2,0.3c-2.3,1-4.6,1.4-7,1.3c-1.6-0.1-3.1-0.5-4.6-0.9c-1.4-0.3-2.7-0.9-3.7-1.9c-0.2-0.2-0.4-0.4-0.6-0.6
		c-0.2-0.2-0.5-0.2-0.8,0C241.3,106.4,240.1,107.2,239.4,107.8z M230.5,132.6c0,0.1-0.1,0.2-0.1,0.2c0,0.1,0,0.1,0.1,0.2
		c1.1,1,2.4,1.7,3.9,2.2c1,0.3,1.9,0.7,2.9,1.1c0.8,0.3,1.6,0.6,2.4,0.9c1.2,0.3,2.4,0.5,3.6,0.7c0.5,0.1,1.1,0,1.6,0
		c0.5,0,1-0.1,1.6-0.2c0.5-0.1,0.9-0.1,1.4-0.2c1.2-0.2,2.1-1.1,2.2-2.2c0.2-1.3,0.5-2.5,1.2-3.7c0.2-0.4,0.3-0.9,0.5-1.3
		c0,0-0.1-0.1-0.1-0.1C244.6,133.4,237.5,133.9,230.5,132.6z M255.2,120.2c-0.7,0.4-1.4,0.8-2.2,1c-3.1,0.8-6.2,1.1-9.3,0.7
		c-1.9-0.2-3.7-0.7-5.4-1.3c-1.5-0.6-2.9-1.4-4.3-2.2c-1.4-0.9-2.5-2-3.3-3.4c-0.1-0.3-0.4-0.4-0.7-0.2c-0.7,0.5-1.4,1-2.1,1.5
		c-0.4,0.3-0.5,0.7-0.3,1.1c0.3,0.5,0.6,1,1.1,1.3c1,0.8,2.1,1.5,3.2,2.2c2.1,1.3,4.5,2.1,7,2.6c2.7,0.6,5.5,0.9,8.5,0.5
		c2-0.3,4.1-0.5,6-1.3C254.2,122.4,255.2,121.3,255.2,120.2z M222.3,125c-0.1,0.1-0.1,0.2-0.2,0.2c0.3,0.4,0.6,0.9,0.9,1.2
		c0.6,0.6,1.4,1.1,1.8,1.8c0.5,0.8,1.1,1.5,1.8,2.1c0.4,0.3,0.7,0.7,1.2,0.8c2.7,0.8,5.4,1.4,8.3,1.4c1.7,0,3.4-0.2,5.1-0.3
		c3.6-0.3,7-1.5,10.3-3c0.5-0.2,0.7-0.6,0.7-1.1c-5.3,2-10.5,2.2-15.8,1.6C231.2,129.4,226.4,128,222.3,125z M263,101.6
		c-0.1,0-0.1-0.1-0.2-0.1c-0.2,0.1-0.3,0.1-0.5,0.2c-0.7,0.2-1.4,0.5-2.2,0.6c-1.8,0.3-3.5,0.1-5.2-0.3c-1-0.2-2-0.4-2.8-1
		c-0.3-0.3-0.6-0.6-0.9-0.9c-0.3-0.3-0.6-0.3-0.9-0.1c-1.2,0.8-2.5,1.7-3.7,2.5c-0.5,0.3-0.5,0.6-0.1,0.9c1.5,1.3,3.4,1.9,5.4,2.3
		c2.5,0.5,5.1,0.4,7.7-0.3c0.8-0.2,1.6-0.6,2.1-1.2C262.3,103.5,262.6,102.5,263,101.6z M268.4,83.5c0,0,0-0.1,0.1-0.1
		c-0.4-0.2-0.8-0.4-1.2-0.5c-0.9-0.1-1.8-0.1-2.7,0.1c-0.7,0.1-1.5,0.3-1.9,1.1c-0.1,0.2-0.4,0.3-0.7,0.4c-0.3,0.1-0.8,0.2-0.9,0.4
		c-0.4,0.7-0.8,1.5-1.1,2.2c-0.4,1.1,0.2,1.8,0.7,2.6c0.1,0.1,0.2,0.2,0.3,0.2c0.9,0.4,1.9,0.5,3,0.3c0.7-0.1,1.4-0.5,1.7-1.2
		c0.4-0.9,0.4-0.9,1.4-1c0.4,0,0.6,0,0.6,0.4c0,0.2,0.2,0.4,0.3,0.4c0.5,0.2,1.1,0.2,1.5-0.2c0.5-0.5,0.8-1.1,1.2-1.7
		c0.1-0.1,0.1-0.3,0-0.4c-0.5-1.1-0.6-2.4-2-2.9C268.6,83.7,268.5,83.6,268.4,83.5z M257.7,113.8c-0.4,0.2-0.7,0.4-1,0.5
		c-2.5,0.8-5,0.9-7.5,0.5c-2.2-0.3-4.3-0.8-6.3-1.7c-1.1-0.5-2.1-1.1-3-1.8c-0.8-0.5-1.4-1.3-2.1-1.9c-0.1-0.1-0.4-0.2-0.5-0.1
		c-0.5,0.4-1,0.8-1.6,1.2c-0.5,0.3-0.5,0.7-0.2,1c1.3,1.5,3,2.7,4.9,3.4c1.8,0.7,3.7,1.2,5.6,1.5c1.3,0.3,2.7,0.3,4.1,0.2
		c1.6-0.1,3.2-0.5,4.7-0.8c0.7-0.2,1.4-0.5,2-0.9C257.5,114.8,257.9,114.4,257.7,113.8z M254.6,97.1c-0.4,0.5-0.4,0.6,0.1,0.9
		c0.5,0.2,1,0.5,1.5,0.7c2.2,0.8,4.4,0.9,6.8,0.5c0.6-0.1,1.1-0.3,1.3-0.9c0.3-0.6,0.6-1.2,0.8-1.9c0.1-0.1,0-0.3,0.1-0.5
		c-0.2,0-0.4,0-0.6,0c-0.5,0.1-1.1,0.2-1.6,0.2c-1.5,0-2.5-0.8-3.7-1.4c-0.3-0.1-0.4-0.3-0.7-0.1c-0.4,0.3-0.8,0.5-1.2,0.7
		C256.5,95.9,255.6,96.5,254.6,97.1z M261,105.7c-0.5,0.2-0.9,0.5-1.4,0.5c-2.9,0.5-5.7,0.7-8.4,0c-0.9-0.2-1.8-0.4-2.6-0.9
		c-1-0.5-1.7-1.2-2.6-1.8c-0.2-0.1-0.5-0.1-0.7,0c-0.6,0.4-1.1,0.8-1.7,1.2c-0.3,0.2-0.3,0.4,0,0.6c0.7,0.5,1.4,1,2.2,1.4
		c1.4,0.7,2.9,1.1,4.5,1.4c2.3,0.4,4.5,0.3,6.8-0.4c1.1-0.3,2.2-0.9,3.2-1.2C260.9,106.5,261,106.2,261,105.7z M263.6,99.5
		c-0.7,0.1-1.4,0.2-2.1,0.3c-2.9,0.3-5.5,0.2-7.5-1.7c-0.1-0.1-0.5-0.1-0.6,0c-0.6,0.3-1.2,0.7-1.7,1.1c-0.4,0.2-0.4,0.5,0,0.7
		c0.8,0.4,1.6,0.9,2.5,1.2c2.7,0.9,5.5,0.8,8.4,0C263.4,100.8,263.7,100.4,263.6,99.5z M265,90.8c0,0,0.1,0.1,0.1,0.1
		c-0.2,0.1-0.3,0.2-0.5,0.3c-0.7,0.3-1.3,0.6-2,0.9c-0.1,0.1-0.3,0.2-0.3,0.3c0,0.1,0.1,0.2,0.3,0.2c1,0.3,2.1,0.5,3.3,0.3
		c0.6-0.1,1.2-0.2,1.5-0.9c0.3-0.6,0.6-1.3,0.9-1.9c0.1-0.3,0.4-0.6,0-0.7c-0.4-0.1-0.8-0.5-1.4-0.1C266.2,89.8,265.6,90.3,265,90.8
		z M265.9,94.9c0.2-0.4,0.4-0.8,0.6-1.1c0-0.1-0.2-0.3-0.3-0.3c-0.2,0-0.4,0.1-0.6,0.1c-1.2,0.1-2.4,0-3.5-0.5
		c-0.2-0.1-0.6,0-0.9,0.1c-0.3,0.1-0.5,0.3-0.7,0.5c-0.9,0.6-0.9,0.6,0,1c0,0,0.1,0,0.1,0.1c1.2,0.5,2.4,0.8,3.8,0.7
		C264.8,95.3,265.3,95,265.9,94.9z"/>
	<path d="M227.6,134.6c0.3,0.7,0.5,1.4,0.8,2.1c-0.4,0-0.9,0-1.1-0.3C227.1,135.9,227.3,134.9,227.6,134.6z"/>
	<path d="M245.4,140.9c-0.3,0.6-1,0.9-1.7,1.1c-0.3,0.1-0.7,0.2-0.9-0.3c0.4-0.1,0.8-0.3,1.2-0.4c0.4-0.2,0.8-0.4,1.2-0.6
		C245.4,140.8,245.4,140.9,245.4,140.9z"/>
	<path d="M249.4,140.2c0.1,0.4-0.4,1.1-1,1.3c-0.2,0.1-0.3,0.1-0.5,0.1c-0.2,0-0.4-0.1-0.5-0.2c0.1-0.1,0.3-0.2,0.4-0.3
		C248.3,140.8,248.8,140.5,249.4,140.2z"/>
	<path d="M219.3,127.4c-0.1-0.7,0.2-1.3,0.6-1.9C220.3,126,220,127.1,219.3,127.4z"/>
	<path d="M241.2,140.5c-0.4,0.8-1.5,1.2-2,0.6C239.9,140.9,240.5,140.7,241.2,140.5z"/>
	<path d="M230.9,137.1c0.2,0.4,0.5,0.7,0.7,1.1c0,0-0.1,0.2-0.2,0.2c-0.2,0-0.5-0.1-0.5-0.2c-0.1-0.3-0.1-0.7-0.2-1
		C230.8,137.1,230.9,137.1,230.9,137.1z"/>
	<path d="M261.8,88.6c-0.3-1.1,0.4-1.9,1.8-2.2C262.9,87.1,262.4,87.8,261.8,88.6z"/>
	<path d="M267.6,86.3c0.8,0.1,1.2,0.7,0.9,1.4C267.8,87.5,267.9,86.8,267.6,86.3z"/>
	<path d="M269.8,86.2c0.4,0.4,0.4,0.8,0.3,1.2c-0.1,0.3-0.3,0.5-0.5,0.7c-0.1,0-0.1-0.1-0.2-0.1C269.5,87.5,269.6,86.9,269.8,86.2z"
		/>
	<path d="M265.6,84.6c-0.6,0.1-1.2,0.1-1.8,0.2C264,84.4,264.9,84.2,265.6,84.6z"/>
	<path d="M263.5,89.1c0.6-0.4,1.1-0.6,1.5-0.9C265,88.7,264.5,89.1,263.5,89.1z"/>
</g>
<g>
	<path d="M163.4,145.3c0.4,0.7,0.2,1.4,0.3,2.1c0,0.6-0.1,1.3-0.2,1.9c-0.1,0.6,0.1,0.9,0.7,0.8c0.5,0,1.1,0,1.6-0.1
		c0.1,0,0.3-0.4,0.3-0.6c0-2.4,0-4.8,0-7.2c0-0.4,0.1-0.7,0.1-1.1c0-0.2,0.2-0.3,0.3-0.4c0.6-0.3,0.8-0.9,0.2-1.2
		c-1-0.5-1.1-1.4-1.3-2.2c-0.1-0.8,0-1.7,0.3-2.4c0.8-1.7,1.8-3.4,2.7-5.1c0,0.1,0.1,0.2,0.1,0.4c0.2,1.5,0.3,3.1,0.5,4.6
		c0.2,1.9,0,3.7-1.5,5.1c-0.2,0.1-0.2,0.4-0.2,0.6c0,0.1,0.4,0.2,0.6,0.3c0.9,0.1,1.1,0.3,1.1,1.2c-0.1,2.6-0.3,5.2-0.4,7.8
		c0,0.3-0.2,0.7,0.3,0.8c0.7,0.1,1-0.1,1.1-0.7c0.1-1.3,0.1-2.6,0.2-3.9c0-0.6,0.1-1.2,0.8-1.5c0.1,0,0.1-0.4,0.1-0.5
		c-0.2-0.8-0.6-1.5-0.8-2.3c-0.2-0.9,0-1.7,0.4-2.5c0.7-1.4,1.4-2.8,2.1-4.1c0.2-0.3,0.3-0.7,0.5-1.3c0.4,2.3,0.8,4.4,1,6.5
		c0.1,1.3-0.4,2.5-1.5,3.3c-0.2,0.1-0.3,0.3-0.5,0.4c0,0-0.1,0.1-0.1,0.3c0.3,0.1,0.7,0.1,1,0.3c0.2,0.1,0.4,0.4,0.4,0.6
		c-0.1,1.7-0.1,3.3-0.2,5c0,0.5,0.3,0.7,0.7,0.7c0.8,0.2,1.6,0.3,2.4,0.5c0.5,0.1,0.6,0,0.6-0.5c0-0.9,0-1.9,0-2.8
		c0-1.2,0.1-2.5,0.1-3.7c0-0.2,0.1-0.3,0.2-0.5c0.2-0.2,0.6-0.3,0.6-0.4c-0.1-0.4-0.1-0.9-0.4-1.1c-1.6-1.7-1.6-4,0.1-5.7
		c0.7-0.8,1.6-1.4,2.4-2.1c0.6-0.6,1-1.3,1.5-2c-0.2,1.1-0.5,2.2-0.7,3.3c-0.1,0.5,0,1,0,1.4c0,1.1,0.1,2.2-0.1,3.3
		c-0.1,0.9-0.7,1.5-1.6,1.8c-0.3,0.1-0.6,0.2-0.7,0.4c-0.2,0.3-0.3,0.6-0.2,0.9c0,0.2,0.4,0.3,0.7,0.4c0.1,0.1,0.3,0,0.5,0
		c0.7-0.1,0.9,0.3,0.9,0.9c0,1.6,0,3.3,0,4.9c0,0.2,0,0.4,0,0.6c-0.1,0.7,0,1.1,0.9,1.1c1,0,2,0.2,2.9,0.3c0.2,0,0.5,0,0.7,0.2
		c0.8,0.5,1.6,1,2.3,1.7c0.3,0.3,0.3,0.8,0.5,1.2c0.2,0.4,0.5,0.9,0.8,1.2c0.4,0.5,0.8,2.5,0.5,3.2c-0.2,0.4-0.3,0.8-0.5,1.1
		c-0.2,0.3-0.5,0.5-0.9,0.9c0.5,0.3,0.9,0.5,1.2,0.8c0.8,0.6,0.8,1.8,0.1,2.4c-0.3,0.3-0.3,0.5-0.3,1c0.1,0.5-0.1,1.1-0.2,1.6
		c0,0.4-0.2,0.9,0,1.3c0.5,1,0.5,2.1,0.2,3.1c-0.1,0.4-0.5,0.8-0.8,0.9c-0.9,0.5-1.4,1.2-1.5,2.2c-0.2,1.2-0.5,2.4-0.2,3.6
		c0.1,0.3,0.3,0.7,0.5,1c0.2,0.6,0.4,1.2,0.6,1.9c0.1,0.5,0.2,0.9,0.2,1.4c0,0.6-0.1,1.2-0.2,1.8c-0.2,0.9-0.2,1.6,0.5,2.3
		c0.2,0.1,0.2,0.7,0,1c-0.2,0.3-0.5,0.6-0.9,0.8c-0.2,0.1-0.6,0-0.8,0c-0.2,1-0.4,1.9-0.6,2.9c0,0.1,0.2,0.3,0.3,0.4
		c0.3,0.4,0.7,0.6,1,1c0.2,0.3,0.4,0.8,0.3,1.1c-0.5,0.8,0,1.4,0.2,2c0.1,0.3,0.1,0.7,0,1c-0.3,0.7,0,1.2,0.4,1.8
		c0.4,0.5,0.9,1,1.1,1.6c0.3,0.9-0.2,1.7-1.1,2.3c-1.9,1.1-3.8,2.3-6,2.9c-1.9,0.6-3.9,1-5.8,1.4c-1.3,0.3-2.6,0.5-4,0.7
		c-1.9,0.3-3.8,0.5-5.7,0.7c-1.7,0.2-3.5,0.4-5.3,0.6c-0.5,0.1-1.1,0.1-1.6,0.1c-1.8,0.1-3.6,0.1-5.4,0.2c-0.7,0-1.4,0.1-2.1,0.1
		c-2.2-0.1-4.5-0.1-6.7-0.3c-1.9-0.2-3.8-0.5-5.6-0.7c-1.8-0.2-3.5-0.3-5.3-0.6c-1.3-0.2-2.5-0.4-3.8-0.7c-1.5-0.4-3.1-0.7-4.6-1.3
		c-2.2-0.9-4.5-1.7-6.1-3.6c-0.4-0.5-0.9-1.1-1.2-1.7c-0.6-0.9-0.4-1.5,0.5-2.2c0.5-0.3,1.1-0.6,1-1.3c0-0.1,0-0.2,0-0.2
		c-0.8-1,0.1-1.9,0.1-2.9c0-0.2,0-0.3,0-0.5c-0.2-1.6,0.6-2.5,1.9-3.2c0.5-0.3,0.7-0.5,0.2-1c-0.2-0.3-0.3-0.7-0.5-1.1
		c-0.1-0.2-0.2-0.6-0.4-0.7c-0.6-0.5-0.3-0.9-0.1-1.5c0.2-0.3,0.3-0.6,0.3-0.9c0.1-0.6-0.2-1.3,0.4-1.9c0.1-0.1-0.1-0.4-0.2-0.6
		c-0.3-0.7-0.3-1,0.3-1.5c0.9-0.6,0.9-0.6,0.1-1.4c-0.6-0.7-0.5-1.2,0.2-1.7c0.2-0.1,0.4-0.5,0.4-0.7c-0.1-1-0.4-1.9-0.5-2.9
		c-0.1-0.7-0.4-1.2-0.8-1.7c-0.7-0.9-1-1.9-0.2-2.9c0.1-0.1,0.2-0.4,0.1-0.6c-0.2-0.9-0.5-1.9-0.7-2.8c-0.1-0.5-0.1-1.1,0.1-1.7
		c0.1-0.4,0.1-0.6-0.4-0.7c-0.8-0.1-1.4-0.6-1.3-1.4c0-0.8,0.7-1.4,1.4-1.8c0.3-0.2,0.7-0.3,1.1-0.4c-0.2-0.3-0.4-0.6-0.6-0.9
		c-0.5-0.6-0.6-1.3-0.2-1.9c0.2-0.4,0.1-0.5-0.1-0.8c-0.4-0.5-1-0.9-0.5-1.6c0.5-0.7,1-1.3,2-1.3c0.7,0,1.5-0.2,2.2-0.3
		c0.1,0,0.2-0.1,0.3-0.2c0.6-0.9,1.5-0.9,2.5-1c0.9-0.1,1.7-0.3,2.5-0.4c0.1,0,0.2-0.4,0.2-0.6c0-1.3,0-2.5,0-3.8c0-0.3,0-0.6,0-0.9
		c0-1.3,0.1-2.5,0.1-3.8c0-0.4,0.2-0.7,0.6-0.8c0.2,0,0.4-0.2,0.8-0.3c-0.4-0.3-0.6-0.6-0.8-0.7c-1.6-1-1.9-1.8-1.3-3.6
		c0.5-1.3,1-2.6,1.4-3.9c0.2-0.7,0.3-1.4,0.4-2.1c0.1,0,0.1,0,0.2,0c0.1,0.3,0.2,0.7,0.2,1c-0.3,0.9,0.1,1.7,0.4,2.5
		c0.2,0.9,0.7,1.8,1,2.6c0.4,1.2,0,2.5-0.9,3.2c-0.3,0.2-0.4,0.6-0.6,0.9c0.3,0.1,0.5,0.3,0.8,0.4c0.9,0.3,1.1,0.6,1,1.5
		c-0.1,2.2,0,4.5,0,6.8c0.7-0.1,1.4-0.1,2-0.3c0.3-0.1,0.6-0.4,0.7-0.7c0.1-0.6,0.1-1.2,0-1.8c0-1.1-0.1-2.2-0.1-3.3
		c0-0.7,0.7-1.1,1.3-1c0.4,0.1,0.9,0.2,1.3,0.3c0.5,0,0.7,0.2,0.7,0.7c-0.1,1.4-0.1,2.9-0.1,4.3c0,1,0,1,1,1c0.5,0,1,0,1.5,0
		c0-0.2,0.1-0.3,0.1-0.5c0-3.1,0.1-6.1,0.1-9.2c0-0.9,0-0.9,0.9-0.9c0.5,0,0.9-0.1,1.4,0c0.2,0,0.6,0.3,0.6,0.5
		c0.1,1.8,0.2,3.5,0.2,5.3c0,1.5,0,3,0,4.7c1-0.1,1.9-0.1,2.8-0.2c0.1,0,0.2-0.2,0.2-0.4c0.1-1.1,0.2-2.3,0.3-3.4
		c0-0.5,0.1-1,0.2-1.5c0.1-0.2,0.3-0.5,0.5-0.5c0.6-0.2,0.7-0.5,0.3-1c0,0-0.1-0.1-0.1-0.1c-1.2-0.7-1.3-1.9-1.2-3.1
		c0.2-2.2,1.1-4.2,2.3-6c0-0.1,0.1-0.1,0.4-0.1c-0.1,0.4-0.1,0.8-0.2,1.1c-0.5,1.4-0.3,2.7,0.4,4c0.6,1,1,2.2,0.7,3.4
		c-0.1,0.5-0.4,0.8-0.9,1c-0.3,0.1-0.5,0.2-0.9,0.5c0.3,0.2,0.5,0.3,0.6,0.4c1.3,0.3,1.4,0.6,1.3,1.8c-0.1,1.1-0.1,2.3-0.2,3.4
		c0,0.4,0.2,0.7,0.6,0.6c0.6-0.1,1.3-0.2,1.9-0.2c0.2,0,0.3,0,0.5,0c0.7,0.1,0.9,0,0.9-0.7c0-2.7,0.1-5.4,0.1-8.1
		c0-0.3,0-0.6,0.5-0.7c0.5-0.1,0.3-0.6,0.1-0.8c-1.6-2.6-1.6-4.6,0.1-7c0.3-0.4,0.6-0.9,0.8-1.4c0.2-0.5,0.3-1,0.6-1.6
		c0.1,0.5,0.2,1.1,0.3,1.6c0,1.5,0.2,3,0.9,4.4c0.6,1.4,0.1,3.2-1,4.2c-0.2,0.2-0.6,0.3-1.1,0.6c0.4,0.1,0.7,0.1,0.9,0.2
		c0.7,0.1,1,0.5,1,1.2c0,2.5,0,5.1,0,7.6c0,0.6,0.2,0.9,0.8,0.9c0.9,0,1.2-0.1,1.2-0.8c0.1-0.9,0.1-1.9,0.1-2.8
		c0-0.2,0.1-0.4,0.3-0.5c0.8-0.4,0.9-0.8,0.1-1.3c-0.9-0.5-1.2-1.4-1.1-2.2c0.1-0.9,0.5-1.7,0.9-2.6c0.3-0.8,0.8-1.4,1.2-2.2
		c0.3-0.6,0.4-1.2,0.7-2c0.1,0.6,0.2,1,0.3,1.4c0.3,1.4,0.4,2.9,0.8,4.3c0.3,1.2-0.1,2.3-0.7,3.3c-0.1,0.2-0.5,0.3-0.7,0.4
		c-0.2,0.1-0.2,0.3-0.4,0.5c0.2,0.1,0.4,0.3,0.7,0.3C163,145.5,163.2,145.4,163.4,145.3z M154.3,170.1c-0.2,0.8-0.4,1.6-0.9,2.3
		c-0.5,0.6-0.6,1.5-1,2.2c-0.3,0.6-0.6,1.4-1.1,1.5c-1.6,0.4-2.3,1.7-3.2,2.9c-0.7,1-1.7,1.7-2.9,1.8c-0.7,0.1-1.3,0.3-1.7,1
		c-0.5,0.9-1.5,1.4-2.4,1.7c-1.2,0.4-2.4,0.7-3.6,0.8c-1,0.1-2.1,0.3-3-0.3c-0.2-0.1-0.5-0.2-0.8-0.3c-0.6-0.2-1.3-0.2-1.9-0.4
		c-0.7-0.4-1.3-1-2.1-1.3c-0.7-0.3-0.9-0.8-1.2-1.3c-0.5-0.8-1-1.6-1.5-2.4c-0.4-0.6-0.8-1.1-1.1-1.6c-0.8-1.3-1.3-2.8-2.9-3.4
		c-0.5,1.5,0.7,2.8,0.4,4.2c1.7,0.6,1.9,0.8,1.8,2.5c0,0.9,0.3,1.4,1,1.8c0.7,0.5,0.8,0.8,0.4,1.6c-0.3,0.6-0.3,1.1,0,1.7
		c0.2,0.3,0.3,0.7,0.2,1c-0.5,1.6-1.2,3.1-3.2,3.4c-0.2,0-0.4,0.1-0.6,0.1c-0.1,0.6-0.2,1.2-0.2,1.7c0,0.2,0.1,0.5,0.3,0.7
		c0.3,0.5,0.8,0.8,1.1,1.3c0.4,0.7,0.9,1,1.7,0.9c0.7,0,1.4,0.1,1.9,0.7c0.6,0.8,1.3,1.4,2.2,1.9c0.7,0.3,1.3,0.6,2,0.4
		c0.4-0.1,0.8-0.1,1.2,0c1.7,0.3,3.5,0.6,5.2,1.1c1,0.3,1.9,0.3,2.8,0.1c0.7-0.2,1.5-0.1,2.2-0.1c0.8,0,1.6,0.2,2.4,0.3
		c0.6,0.1,1.3-0.1,1.8,0.2c1.1,0.6,2.2,0.9,3.4,0.8c0.1,0,0.2,0.1,0.3,0.1c0.7,0,1.4,0.2,2,0.1c1.5-0.2,2.9-0.4,4.4-0.6
		c0.4-0.1,0.8-0.1,1.2-0.2c1.1-0.3,2.2-0.6,3.4-0.9c0.8-0.1,1.6-0.2,2.4-0.1c2,0.3,4,0.2,5.9-0.2c0.9-0.2,1.8-0.4,2.7-0.5
		c0.7-0.1,1.3,0,2,0c0.3,0,0.7-0.2,1-0.3c0.6-0.2,1.2-0.6,1.7-0.6c1,0.1,1.7-0.3,2.5-0.7c0.5-0.3,1.1-0.4,1.7-0.3
		c1.1,0.3,2.1-0.5,2.1-1.7c0-0.6-0.1-1.2-0.1-1.9c-1.7-0.2-1.6-1.5-1.4-2.9c-0.8,0.4-1.5,0.7-2.1,1.1c-0.5,0.3-0.8,0.1-1-0.3
		c-0.5-0.8-0.6-2.4,0.6-2.9c0.2-0.1,0.5-0.3,0.7-0.4c0.6-0.4,0.6-0.6,0.2-1.2c-0.2-0.3-0.4-0.8-0.4-1.1c0.2-0.9,0.9-1.6,1.9-1.6
		c1.5-0.1,1.9-0.8,1.8-2c0-0.8,0.2-1.6,1.1-1.8c-0.4-1-0.3-1.9,0-2.9c0.3-1,0.6-2.1,0.2-3.1c-0.1-0.2,0-0.4,0-0.5
		c0.1-0.7,0.2-1.5,0.2-2.2c-0.2,0.2-0.3,0.4-0.4,0.7c-0.2,0.6-0.3,1.3-0.6,1.9c-0.4,0.7-0.9,1.4-1.4,2.1c-1.1,1.5-2.3,3-3.5,4.5
		c0,0.1-0.1,0.1-0.2,0.1c-0.9,0.7-1.9,1.4-2.7,2.3c-1.2,1.3-2.7,1.9-4.4,2c-1.1,0-2.2-0.5-3.3,0c-0.1,0-0.3,0-0.4-0.1
		c-0.7-0.2-1.3-0.4-2-0.7c-0.9-0.3-1.9-0.5-2.7-0.9c-0.8-0.4-1.6-1-2.3-1.6c-0.5-0.3-0.8-0.9-1.3-1.1c-0.8-0.4-1.6-0.7-2.2-1.5
		c-0.3-0.4-0.7-0.8-1-1.2c-0.3-0.5-0.6-1-0.8-1.5c-0.3-0.5-0.5-1.1-0.8-1.6C155.3,172.3,154.4,171.5,154.3,170.1z M122.1,190.5
		c-1.2,0.6-1.6,1.1-1.6,2.4c-0.1,0.8-0.3,1.6-0.5,2.4c-0.2,0.7,0,1.2,0.5,1.6c0.3,0.2,0.6,0.4,0.8,0.7c0.8,1.1,2,1.5,3.3,1.5
		c0.5,0,1,0.3,1.4,0.6c0.5,0.4,0.9,1,1.4,1.4c0.4,0.3,0.8,0.7,1.3,0.8c2,0.6,4.1,1.2,6.2,1.7c0.9,0.2,1.8,0.4,2.7,0.5
		c1.4,0.1,2.9,0.2,4.3,0.3c1.2,0.1,2.3,0.5,3.5,0.5c1,0,2-0.2,3-0.3c0.2,0,0.5,0,0.7,0.1c0.4,0.1,0.7,0.2,1.1,0.2
		c1.4-0.1,2.8-0.3,4.2-0.5c0.5,0,1,0,1.5,0.1c0.5,0.1,0.9,0.2,1.4,0.2c1.4,0,2.9,0,4.3-0.1c0.9-0.1,1.9-0.2,2.8-0.3
		c0.7-0.1,1.5-0.3,2.2-0.2c1.7,0.2,3.3-0.2,4.9-0.6c0.4-0.1,0.7-0.2,1.1-0.2c0.7,0.1,1.4-0.1,2.1-0.3c0.8-0.2,1.7-0.2,2.4-0.4
		c1.7-0.6,3.3-1.3,5-2c1.1-0.5,2.2-1.1,3.3-1.7c0.7-0.4,1.4-0.9,1.4-2c0-0.6-0.1-1.1-0.2-1.7c-0.1-0.4-0.2-0.9-0.1-1.3
		c0.1-1-0.3-1.8-1.4-2.1c-0.1,0.6-0.2,1.1-0.3,1.9c0.3-0.2,0.4-0.3,0.5-0.4c0.1-0.1,0.2-0.2,0.4-0.4c0,0.2,0,0.3-0.1,0.3
		c0,0.1-0.1,0.1-0.1,0.2c0.1,0.8-0.3,1-1,1.4c-0.9,0.6-1.7,1.1-2.9,1.1c-0.2,0-0.5,0-0.7,0.1c-0.6,0.2-1.2,0.4-1.8,0.6
		c-0.7,0.3-1.7-0.1-2.3,0.6c-0.4,0.4-0.8,0.4-1.2,0.4c-1.3,0-2.6,0-3.9,0.2c-0.5,0.1-1,0.6-1.5,0.6c-1.1,0.2-2.3,0.4-3.4,0.2
		c-1.4-0.2-2.9-0.4-4.3-0.2c-0.9,0.2-1.9,0.3-2.8,0.5c-1,0.2-2.1,0.4-3.1,0.6c-0.9,0.2-1.8,0.3-2.6,0.4c-0.3,0.1-0.7,0.2-1,0.2
		c-1.4-0.1-2.7-0.2-4-0.3c-0.2,0-0.4-0.1-0.5-0.3c-1-0.8-2.1-0.8-3.3-0.7c-0.5,0-1.1-0.1-1.6-0.1c-0.6-0.1-1.3-0.2-1.9-0.2
		c-0.8,0-1.6,0.2-2.3,0.1c-1.3-0.1-2.4-0.6-3.7-0.8c-1.4-0.1-2.7-0.6-4.1-0.3c-0.3,0-0.6,0.1-0.8-0.1c-1.1-0.7-2.5-1-3.3-2.2
		c-0.4-0.6-1.1-0.9-1.9-0.8c-0.8,0.1-1.2-0.3-1.6-0.9c-0.2-0.3-0.3-0.6-0.5-0.9c-0.3-0.3-0.6-0.6-1-0.6c-0.2,0-0.6,0.4-0.8,0.6
		c-0.2,0.3-0.2,0.7-0.4,1c-0.2-0.2-0.4-0.5-0.3-0.7c0.2-0.4,0.4-1,0.8-1.2C122.5,191.7,122.4,191.2,122.1,190.5z M178.4,159.3
		c-0.2-0.1-0.3-0.2-0.4-0.3c-1-0.7-1.2-0.6-2.1,0.1c-0.1,0.1-0.3,0.1-0.4,0.1c-1-0.6-1.9-0.2-2.8,0c-0.4,0.1-0.8,0.1-1.2,0.1
		c-0.8,0-1.5,0.1-2.3,0.1c-0.6,0-1.2,0.1-1.7,0.2c-1,0.1-2.1-0.1-2.9,0.3c-1,0.5-1.8,0.5-2.7,0.2c-0.3-0.1-0.5-0.2-0.8-0.3
		c-0.6,0-1.2-0.4-1.8,0.2c-0.1,0.1-0.4,0-0.5,0c-0.5-0.1-0.9-0.4-1.3-0.4c-0.7,0-1.5,0-2,0.3c-0.6,0.4-1,0.2-1.5,0.1
		c-0.6-0.2-1.4-0.4-2-0.3c-0.6,0.1-1.1,0-1.7-0.1c-0.8-0.2-1.6-0.3-2.4-0.3c-0.8,0-1.4,0.7-2.3,0.3c0,0-0.1,0-0.1,0
		c-0.4,0.5-0.7,0.1-1.1-0.1c-1.3-0.7-2.7-1.2-4.2-0.3c-1.2-0.4-2.3-1.2-3.5,0.1c-0.3-0.2-0.5-0.3-0.7-0.5c-0.8-0.6-1.7-0.7-2.5-0.6
		c-0.7,0.1-1.4,0.1-2.1-0.1c-0.4-0.1-0.8-0.2-1.2-0.3c-0.5,0-1.2-0.2-1.4,0.6c-1-0.7-1.8-1.5-2.7-2.1c-0.6-0.4-1.3-0.7-2.1-0.4
		c-0.2,0.1-0.4,0-0.6-0.1c0.1-0.2,0.3-0.4,0.5-0.5c0.1-0.1,0.3,0,0.5,0c0.4-0.1,0.9-0.2,1.2-0.3c1.3-0.5,2.3-1.5,3.8-1.5
		c0.6,0,0.5-0.6,0.4-1c0-0.4-0.4-0.4-0.7-0.4c-0.3,0-0.6,0.2-0.9,0.2c0.1,0.3,0.1,0.5,0.3,0.8c-1.4-0.8-2.5-1.1-3.2,0.3
		c-0.6,0.2-1.1,0.4-1.6,0.5c-0.2,0.1-0.4,0.1-0.6,0.1c-1-0.3-1.8,0.1-2.2,1c-0.3,0.7,0,1.2,0.8,1.3c0.3,0,0.5,0,0.8,0
		c1.3-0.1,2.1,0.5,2.7,1.5c0.2,0.3,0.4,0.5,0.8,0.6c0.6,0.1,0.9,0.5,0.7,1c-0.1,0.2-0.1,0.3-0.1,0.5c0.2,0,0.4,0.1,0.6,0
		c0.8-0.2,1.4,0,1.7,0.7c0.2,0.5,0.3,1.1,0.3,1.7c0,0.4,0.4,1.8,0.8,1.8c0.6,0,1.2,0,1.8-0.2c0.7-0.2,1.3-0.4,2,0
		c0.6,0.3,1.4,0.7,1.9,0.1c0.6-0.6,1-0.4,1.6,0c0.2,0.2,0.5,0.3,0.7,0.4c0.7,0.1,1.5,0.3,2,0c0.6-0.3,0.9-0.3,1.3,0.1
		c0.8,1,1.8,1.1,2.9,0.8c0.4-0.1,0.7-0.2,1-0.4c0.5-0.3,0.8-0.1,1.2,0.3c0.6,0.7,1.1,0.8,1.7,0.4c0.6-0.4,1.3-0.8,1.9-1.2
		c-0.1-0.1-0.1-0.2-0.2-0.3c-1-1.5-0.9-2.1,0.5-3.2c0.2-0.1,0.4-0.3,0.6-0.2c0.6,0.2,1.3,0.4,1.8,0.7c0.9,0.5,1.1,0.9,2.2,0
		c1.2-0.9,2.6-1.1,3.6,0c0.8,0.9,0.8,1.1-0.2,1.8c-0.4,0.3-0.3,0.6,0,0.8c0.2,0.2,0.5,0.3,0.8,0.4c0.3,0.2,0.5,0.3,0.8,0.5
		c0.3,0.2,0.6,0.6,1,0.7c1,0.4,2,0.8,2.9,0.1c0.8-0.5,1.5-1.1,2.3-1.7c0.3,0.3,0.6,0.6,0.9,0.9c0.1,0.1,0.3,0.3,0.5,0.3
		c1.1,0.1,2.3,0.4,3.4,0.2c1-0.2,1.9-0.7,2.8-1.3c0.6-0.4,0.9-0.3,1.4,0.1c0.3,0.2,0.5,0.5,0.9,0.7c0.3,0.1,0.8,0.3,1.1,0.2
		c0.4-0.2,0.9-0.6,1.2-0.9c0.6-0.7,1-0.9,1.9-0.6c0.1,0,0.2,0.1,0.3,0.1c0.5-0.1,0.9-0.2,1.3-0.4c0.1,0-0.1-0.6-0.2-0.9
		c-0.3-0.7,0-1.4,0.8-1.6c0.5-0.1,1.1,0,1.6,0c0-0.6-0.2-1.2-0.1-1.8c0.1-0.8,0.9-0.9,1.6-1.1c0.4-0.1,0.8-0.1,1.2,0.1
		c1,0.4,0.9,1.3,0.9,2.1c0.7-0.4,1.5-1.8,1.3-2.4c-0.3-0.8-0.7-1.6-1.1-2.4c-0.1-0.3-0.3-0.5-0.4-0.8c-0.1-0.7-0.5-1.3-1.1-1.7
		c-0.9-0.6-1.8-1.3-3-1.1c-0.3,0-0.6-0.1-0.9-0.2c-1.5-0.4-1.6-0.3-1.9,1.2c0,0.1-0.1,0.2-0.1,0.3c0.2,0.4,0.3,0.9,0.6,1.1
		c0.5,0.3,1.2,0.4,1.8,0.5c0-0.7,0.5-1.2,1.3-1.7c-0.4,0.7-0.7,1.3-1,1.9c0.4,0.2,0.7,0.4,1,0.5c0.6-0.8,1.2-1.3,2.1-1.5
		c-0.2,0.2-0.3,0.4-0.6,0.5c-0.2,0.1-0.4,0.2-0.7,0.3c0.7,0.5,1.1,0.7,1.6,1c-0.2,0.1-0.2,0.2-0.3,0.2c-0.1,0-0.2,0-0.3-0.1
		c-0.9-0.3-1.6-0.2-2.3,0.5c-0.2,0.2-0.5,0.3-0.8,0.4c-1,0.2-2,0.4-3,0.7c-0.3,0.1-0.5,0.2-0.7,0.4
		C178.8,158.7,178.6,159,178.4,159.3z M149.8,168.7c-0.6-0.3-1.5-0.5-1.6-0.9c-0.2-1-0.9-1.2-1.6-1.5c-0.1,0-0.3-0.1-0.3-0.2
		c-0.5-0.5-1.1-0.4-1.6-0.2c-0.3,0.1-0.6,0.2-1,0.3c-1.1,0.1-2-0.3-2.7-1.1c-0.9,0.3-1.7,0.8-2.7,0.3c-0.4-0.2-0.7-0.5-1.1-0.7
		c-0.2-0.1-0.7-0.2-0.8-0.1c-0.4,0.5-0.8,0.3-1.3,0.3c-1.3,0-2.6-0.4-3.9,0c-0.7,0.2-1.4,0-1.7-0.5c-0.5-1-1.2-0.9-2-0.7
		c-0.6,0.2-0.8,0.5-0.4,1c0.1,0.2,0.2,0.3,0.4,0.4c0.5,0.6,0.5,1.4-0.1,1.7c-1.3,0.8-0.8,1.7-0.4,2.6c0.1,0.3,0.3,0.5,0.4,0.8
		c0.5,1.1,0.8,2.3,1.5,3.2c0.9,1.2,2.1,2.2,3.3,3.2c0.7,0.7,1.6,1.2,2.4,1.9c0.1,0.1,0.2,0.1,0.3,0.1c0.4,0,0.8-0.1,1.2-0.2
		c0.9,0,1.8,0,2.7-0.1c0.2,0,0.5,0,0.7-0.2c1.6-1.3,3.2-2.7,4.7-4c0.3-0.3,0.7-0.5,0.9-0.9c0.5-1.1,1.4-1.6,2.4-2.1
		c0.2-0.1,0.5-0.2,0.6-0.4c0.4-0.4,0.7-0.9,1.1-1.3C149.4,169.2,149.6,168.9,149.8,168.7z M140.1,156.8c0,0.1,0,0.1,0,0.2
		c-0.2,0.1-0.5,0.1-0.7,0.2c-0.6,0.1-1.2,0.2-1.8,0.3c-0.7,0.1-2-0.4-2.3-1c0.6-0.1,0.6-0.6,0.6-1.1c0-0.5,0-1,0-1.5
		c0-0.2-0.1-0.5-0.2-0.5c-0.7-0.1-1.3-0.1-2-0.1c-0.1,0-0.2,0.2-0.3,0.3c-0.1,0.4-0.2,0.7-0.3,1.1c0.2,0.1,0.4,0.2,0.6,0.3
		c-1.5-0.1-3,1.1-4.4-0.4c0.1-0.1,0.3-0.2,0.4-0.2c0.1-0.1,0.1-0.2,0.1-0.3c-0.1,0-0.3-0.2-0.3-0.1c-1.2,0.5-2.5,0.9-3.8,1.4
		c0.6,0.5,1,0.9,1.4,1.2c0.6,0.6,1.3,0.8,2.2,0.8c0.9,0,1.8,0.2,2.7,0.4c0.2,0,0.4,0,0.5,0c0.5,0,1,0,1.6,0c1.2-0.1,2.4,0.9,3.7,0.2
		c0.2-0.1,0.6,0,0.9,0.1c0.7,0.1,1.3,0.3,1.9,0.2c0.8-0.1,1.5-0.2,2.3,0c1,0.2,1.9,0.9,3,0.5c0,0,0,0,0.1,0c0.5,0,1-0.1,1.5-0.1
		c0.5,0,0.9-0.1,1.4,0c1.4,0.2,2.8,0.6,4.3,0.5c0.3,0,0.7,0.2,1,0.2c0.2,0,0.5,0.1,0.7,0c0.9-0.5,1.9-0.8,3-0.4
		c0.5,0.2,1,0.3,1.5,0.2c0.9-0.2,1.8-0.1,2.6,0.3c0.6,0.2,1.2,0.4,1.8,0.1c1-0.5,2.1-0.7,3.2-0.5c0.5,0.1,1.1,0,1.6,0
		c0.8-0.1,1.6-0.3,2.4-0.4c1.1-0.1,2.2-0.2,3.3-0.3c0.3,0,0.5,0,0.8,0c0.3,0,0.6,0,0.9-0.2c0.5-0.3,1-0.4,1.6-0.1
		c0.3,0.1,0.6,0.1,0.9,0c0.6-0.2,1.2-0.5,1.8-0.7c0.8-0.3,1.6-0.4,2.3-0.7c0.3-0.1,0.5-0.3,0.7-0.4c0-0.1,0-0.1,0-0.2
		c-0.9-0.2-1.3-1.1-2.3-1.1c-0.2,0-0.4,0-0.6,0.1c0.1,0.2,0.1,0.5,0.2,0.7c0,0.1,0.2,0.2,0.4,0.4c-1.5,0.1-2.9,0.6-4.2-0.1
		c0.2,0,0.4-0.1,0.7-0.1c0-0.4,0.1-0.8,0-1.1c-0.1-0.3-0.3-0.6-0.5-0.7c-1.1-0.3-2.2-0.5-3.4-0.8c-0.1,0.9-0.1,1.6-0.2,2.4
		c-0.1,0.7-0.2,1.4,0.9,1.4c-0.2,0.2-0.4,0.3-0.6,0.3c-0.7,0-1.4,0-2.2,0c-0.7,0-1.2-0.4-1.2-1c0-0.9,0-1.8,0-2.8
		c0-0.4-0.2-0.6-0.6-0.6c-0.2,0-0.4,0-0.7,0c-0.1,1.1-0.1,1.4,0.6,2c-0.3,0.1-0.5,0.3-0.7,0.2c-0.5-0.1-1-0.3-1.5-0.4
		c-0.6-0.1-1.2-0.2-2.1-0.3c1.1-0.5,0.7-1.2,0.7-1.9c-0.8,0-1.5,0-2.3,0c-0.1,0-0.4,0.3-0.4,0.5c-0.1,1.2-0.2,2.3-0.3,3.5
		c-0.1,0.7,0,0.8,0.8,0.8c0.4,0,0.8,0,1.1,0.1c0,0.1,0,0.1,0,0.2c-0.1,0-0.1,0.1-0.2,0.1c-0.8,0.1-1.7,0.2-2.5,0.3
		c-0.1,0-0.2-0.1-0.2-0.1c-0.7-0.2-1.4-0.3-2.1-0.4c-0.4-0.1-0.7,0-1.1,0c0-0.1,0-0.1,0-0.2c0.3,0,0.7,0,1-0.1
		c0.2,0,0.5-0.2,0.5-0.4c0.1-1.4,0.2-2.8,0.3-4.2c0-0.6-0.4-0.7-0.8-0.8c-0.3,0-0.6,0.2-1.1,0.3c0.2,0.3,0.4,0.6,0.6,0.9
		c-1.5,0-2.9,0-4.3,0c0-0.1,0-0.1-0.1-0.2c0.2-0.1,0.5-0.2,0.8-0.3c-0.2-0.2-0.3-0.4-0.4-0.4c-1.1-0.1-2.2-0.1-3.3-0.1
		c-0.4,0-0.7,0.2-0.7,0.7c0,1.1-0.1,2.1-0.1,3.2c0,1,0,1,1.1,1.2c0.1,0,0.2,0.1,0.3,0.1c-0.2,0.2-0.4,0.3-0.7,0.3c-0.5,0-1,0-1.6,0
		c-0.3,0-0.6,0.1-0.9,0.1c-0.7-0.1-1.4-0.2-2.1-0.3c0.1-0.2,0.3-0.6,0.3-0.9c0.1-1.2,0.2-2.4,0.3-3.6c0-0.2-0.2-0.5-0.3-0.5
		c-0.9,0-1.8,0-2.7,0c-0.1,0.1-0.1,0.1-0.2,0.2c0.3,0.5,0.5,1,0.8,1.5c-0.4,0.2-0.8,0.1-1.1-0.2c-0.1-0.1-0.2-0.3-0.3-0.3
		c-0.9,0-1.8-0.3-2.6,0.3c-0.1,0.1-0.3,0-0.4,0c0.2-0.4,0.4-0.7,0.7-1c-0.5-0.2-0.8-0.3-1.2-0.4c-1-0.3-1.5,0.1-1.6,1.1
		c0,0.7,0,1.4,0,2.1c0,0.6-0.1,1.1,0.8,0.9C139.9,156.6,140,156.7,140.1,156.8z M159.1,208.3c0,0,0-0.1,0-0.1c0.3,0,0.6,0,0.8,0
		c1.8-0.2,3.6-0.4,5.5-0.6c2-0.2,4.1-0.4,6.1-0.7c2.5-0.4,4.9-0.9,7.3-1.4c3.1-0.7,5.9-2.2,8.7-3.8c0.3-0.2,0.5-0.5,0.6-0.8
		c0.3-0.7-0.5-2.1-1.2-2.3c-0.1,0-0.3,0-0.4,0.1c-1.4,0.8-2.8,1.8-4.3,2.4c-1.1,0.5-1.9,1.5-3.2,1.4c-1.6,1-3.5,0.9-5.3,1.3
		c-1.3,0.3-2.7,0.3-4,0.5c-1.9,0.2-3.9,0.5-5.8,0.7c-0.4,0.1-0.8,0.1-1.2,0.2c-1.6,0.1-3.2,0.1-4.7,0.2c-0.3,0-0.7,0.1-1,0
		c-1.2-0.4-2.4-0.5-3.6-0.2c-1.1,0.2-2.3,0.3-3.5,0.3c-0.6,0-1.2-0.1-1.8-0.1c-0.9,0.1-1.7,0.3-2.6,0.4c-0.1,0-0.2,0-0.3-0.1
		c-1-0.3-1.9-0.9-3.1-0.5c-0.1,0-0.1,0-0.2,0c-1.2-0.1-2.4-0.3-3.6-0.4c-0.8-0.1-1.6,0-2.4-0.2c-2.2-0.5-4.5-1.2-6.7-1.7
		c-1.1-0.3-1.8-1.1-2.6-1.8c-0.6-0.6-1.2-1.3-2.1-1.2c-1.2,0-2.1-0.6-3-1.2c-0.4-0.3-0.8-0.8-1.1-0.7c-0.4,0.1-0.8,0.5-1.2,0.9
		c-0.5,0.5-0.6,1-0.2,1.6c0.2,0.3,0.5,0.6,0.7,0.9c2.9,2.9,6.7,4.1,10.6,5c1.6,0.4,3.3,0.6,5,0.8c1.7,0.2,3.4,0.4,5,0.6
		c1.6,0.2,3.3,0.3,4.9,0.5c1.5,0.1,3,0.4,4.5,0.4C152.8,208.5,155.9,208.4,159.1,208.3z M160.6,166.7c-0.3,1.1-0.7,1.6-1.6,1.6
		c-0.2,0-0.6,0.2-0.6,0.3c0,0.3,0.1,0.6,0.3,0.8c0.2,0.3,0.7,0.4,0.8,0.7c0.5,0.9,0.8,1.9,1.3,2.9c0.1,0.2,0.2,0.4,0.3,0.4
		c0.9,0.4,1.7,1,2.2,1.8c0.1,0.2,0.5,0.3,0.7,0.5c0.2,0.2,0.4,0.3,0.6,0.5c0.3,0.5,0.8,0.7,1.4,0.8c0.8,0.2,1.7,0.4,2.5,0.7
		c0.5,0.2,1,0.3,1.5,0.1c0.6-0.1,1.2-0.1,1.7-0.1c0.2,0,0.4,0,0.5-0.1c1.1-1,2.5-1.1,3.8-1.5c1.1-0.3,2-0.8,2.4-2
		c0.2-0.4,0.4-0.8,0.7-1.2c0.4-0.5,0.8-1,1.1-1.5c0.2-0.4,0.4-0.8,0.6-1.2c0.1-0.2,0.2-0.3,0.4-0.4c0.4-0.2,1.2-1.8,1.1-2.2
		c0-0.1-0.1-0.3-0.2-0.3c-0.6-0.5-0.6-1.2-0.2-1.8c0.3-0.5,0.8-1,1.2-1.5c0-0.1-0.1-0.1-0.1-0.2c-0.3,0.1-0.6,0.2-0.8,0.4
		c-0.8,0.7-1,0.7-1.9,0.3c-0.4-0.2-0.9-0.2-1.2,0.2c-0.3,0.3-0.6,0.6-0.8,0.9c-0.3,0.4-0.6,0.5-1.1,0.5c-0.9,0.1-1.4-0.6-2-1
		c-0.2-0.1-0.6-0.3-0.6-0.3c-0.3,0.6-0.8,0.8-1.5,0.6c-0.1,0-0.2,0.2-0.4,0.3c-0.6,0.3-1.1,0.6-1.7,0.7c-1.7,0.2-3.4,0.1-4.6-1.2
		c-0.9,0.5-1.7,1.3-2.6,1.5C162.7,167.1,161.6,166.8,160.6,166.7z M132.2,177.4c-1.1-1.2-2.2-0.5-3.3-0.1c0-0.1,0-0.2-0.1-0.3
		c0.6-0.2,1.2-0.5,1.8-0.8c-0.8-0.8-1.5-1.6-2.3-2.4c-0.3-0.3-0.6-0.6-1.1-0.4c-0.1,0-0.3-0.1-0.4-0.1c0-0.1,0-0.1,0-0.2
		c0.3-0.1,0.7-0.2,1.1-0.3c-0.1-0.3-0.2-0.5-0.3-0.7c-0.5-1.1-1-2.1-1.5-3.2c-0.4-0.7-0.8-1.3-1.2-2c-0.3-0.4-0.7-0.5-1.1-0.4
		c-0.6,0.2-1.3,0.4-2,0.7c0.3,0.9,0.3,1.9-0.2,2.8c-0.5,1-0.2,1.8,1,2.6c0-0.7,0-1.4,0-2c0.1,0,0.1,0,0.2,0c0.1,0.1,0.1,0.2,0.2,0.3
		c0.2,0.7,0.4,1.3,0.7,2c0.1,0.2,0.4,0.5,0.6,0.5c0.6,0.2,0.9,0.5,1,1.1c0.1,0.5,0.3,1,0.6,1.4c0.9,1.4,1.9,2.7,2.8,4
		c0.4,0.5,0.8,1,1.3,1.3c0.8,0.5,1.6,0.9,2.4,1.4c0.1,0,0.2,0.1,0.3,0.1c1-0.3,1.8,0.2,2.6,0.7c0.8,0.4,1.5,0.7,2.4,0.3
		c0.8-0.3,1.6-0.5,2.3-0.8c0.7-0.2,1.4-0.4,2-0.8c0.5-0.3,0.9-0.7,1.2-1.1c0.2-0.4,0.5-0.6,0.9-0.7c0.6-0.1,1.3-0.3,1.8-0.5
		c1.1-0.5,1.7-1.4,2.3-2.3c0.5-0.8,1.2-1.3,2.1-1.7c0.5-0.2,0.9-0.7,1.2-1.1c0.4-0.6,0.5-1.4,0.8-2.1c0-0.1-0.2-0.4-0.3-0.5
		c-0.7-0.4-1.1-1-1.3-1.7c-0.1-0.4-0.1-0.8-0.1-1.2c-1,0.5-1.7,1.1-2.2,2c-0.1,0.2-0.4,0.5-0.7,0.6c-1.2,0.3-1.9,1.1-2.5,2
		c-0.3,0.4-0.6,0.7-1,1c-1.4,1.1-2.8,2.1-4.2,3.3c-0.6,0.5-1.1,1.1-1.9,1.3c-0.3,0.1-0.6,0.3-0.9,0.5c-0.2,0.1-0.5,0.1-0.7,0.2
		c0-0.1-0.1-0.2-0.1-0.3c0.6-0.3,1.1-0.6,1.7-0.8c-1.1-0.3-2.1-0.2-3.1,0.1c-0.5,0.1-0.8,0.2-0.9-0.5c0-0.2-0.2-0.5-0.4-0.5
		c-0.5-0.1-1,0-1.5,0c-0.2,0-0.3,0-0.5,0.1c0-0.1,0-0.1,0-0.2C131.8,177.8,132,177.6,132.2,177.4z M184.4,167c-1,0.5-1.8,0.9-2.1,2
		c-0.1,0.5-0.6,0.9-0.9,1.3c-0.2,0.3-0.4,0.5-0.6,0.8c-0.2,0.3-0.3,0.7-0.5,1c-0.4,0.6-1.1,1.2-1.3,1.9c-0.5,1.6-1.8,2.2-3.2,2.6
		c-1.1,0.3-2.2,0.4-3.1,1.3c-0.2,0.2-0.6,0.3-0.9,0.3c-0.5,0.1-1.1-0.1-1.6,0.1c-0.8,0.3-1.4,0.2-2-0.2c-0.3-0.1-0.6-0.3-0.8-0.3
		c-1.7,0.1-2.8-0.8-3.9-2c-0.5-0.5-1-1.1-1.6-1.4c-1-0.4-1.4-1-1.7-1.9c-0.3-0.8-0.7-1.6-1.1-2.3c-0.4-0.6-0.6-0.5-1,0
		c-0.2,0.4-0.5,0.7-1,0.6c-0.5,0-1,0-1.6,0c0.3,0.5,0.5,0.8,0.8,1.2c0.3,0.5,0.7,1,1,1.5c0.4,0.7,0.6,1.5,1.1,2.1
		c0.4,0.6,0.9,1.1,1.5,1.7c0.3,0.3,0.7,0.6,1.1,0.8c0.7,0.3,1.4,0.6,1.8,1.4c0.1,0.3,0.4,0.5,0.7,0.7c1.1,0.6,2.1,1.3,3.3,1.4
		c0.4,0,0.8,0.2,1.1,0.3c0.8,0.4,1.7,0.7,2.7,0.6c0.6-0.1,1.3,0,1.9,0c0.7,0,1.5,0.1,2.1-0.2c1.1-0.4,2.1-1.1,3.1-1.7
		c1-0.7,1.8-1.5,2.7-2.2c0.1-0.1,0.2-0.3,0.3-0.4c0.4-0.6,0.7-1.2,1.2-1.8c0.9-1.2,1.9-2.3,2.6-3.5c0.5-0.8,0.7-1.9,1.1-2.8
		C182.9,169.6,184.3,168.2,184.4,167z M157.1,163.8c0.5-0.4,0.8-0.6,1-0.9c0.1-0.1,0.2-0.4,0.2-0.6c-0.4-0.8-1.2-1-2-0.6
		c-0.6,0.3-1.1,0.6-1.7,0.9c-0.5,0.3-0.9,0.3-1.4-0.1c-0.6-0.4-1.3-0.6-2-0.8c-0.7-0.2-1.1,0.2-1.4,0.7c-0.3,0.5-0.2,0.9,0.1,1.4
		c0.2,0.3,0.4,0.5,0.6,0.8c0.1,0.2,0.1,0.5,0.1,0.6c-0.5,0.5-1,1-1.6,1.3c-0.4,0.2-0.5,0.5-0.5,0.9c0.1,0.5,0.5,0.4,0.8,0.4
		c0.2,0,0.5-0.1,0.7-0.2c0.4-0.2,0.9-0.3,1.1,0c0.2,0.3,0.4,0.9,0.2,1.3c-0.4,1.1,0.1,1.8,0.8,2.5c0.4,0.4,1,0.2,1.1-0.4
		c0.1-0.2,0.1-0.4,0.1-0.7c0.1-0.9,0.4-1.1,1.3-0.7c0.5,0.2,0.9,0.5,1.4,0.7c0.5,0.3,1,0.2,1.4-0.3c0.4-0.5,0.5-1.1,0.1-1.6
		c-0.3-0.3-0.2-0.5,0.2-0.6c0.4,0,0.8,0,1.2-0.1c0.2,0,0.4,0,0.6-0.2c0.6-0.4,0.6-1.3,0.1-1.8c-0.3-0.3-0.6-0.5-0.9-0.7
		C158.2,164.7,157.7,164.3,157.1,163.8z M126,159.3c0,0-0.2,0-0.3,0c-0.4,0-0.6-0.1-0.7-0.5c-0.4-1.4-1.4-2-2.8-1.6
		c-1,0.2-1.3,1.1-0.7,1.9c0.2,0.3,0.5,0.5,0.7,0.8c0.5,0.7,0.4,0.9-0.4,1c-0.9,0.1-1.6,0.4-2,1.3c-0.2,0.7-0.1,0.9,0.6,1
		c0.3,0,0.7,0.1,0.9,0.3c0.5,0.4,0.3,0.9,0.1,1.4c-0.4,0.9-0.3,1.3,0.6,1.5c0.3,0.1,0.6-0.1,0.9-0.2c1-0.4,1.4-0.4,1.9,0.3
		c0.5,0.7,1.2,0.7,1.9,0.2c0.7-0.5,0.7-0.9,0.1-1.7c-0.1-0.1-0.2-0.1-0.2-0.2c-0.1-0.3-0.3-0.7-0.2-1c0.1-0.3,0.5-0.5,0.9-0.7
		c0.1-0.1,0.4,0,0.5-0.1c0.7-0.2,1-0.7,0.9-1.5c-0.1-0.7-0.4-0.8-1.2-0.7c-0.5,0-1-0.1-1.4-0.3C125.9,160.4,126,159.8,126,159.3z
		 M186.3,182.1c0-0.1,0.1-0.3,0.1-0.4c0.1-0.6,0.5-1.3,0-1.9c-0.2-0.2-0.5-0.4-0.8-0.4c-0.1,0-0.4,0.4-0.4,0.6
		c-0.1,0.4-0.1,0.8-0.1,1.2c0,1-0.4,1.4-1.3,1.5c-0.4,0.1-0.7,0.1-1.1,0.2c-0.9,0.3-1.3,1.1-0.9,1.9c0.5,1.2,0.5,1.3-0.6,2
		c-0.7,0.5-1.2,1-1.1,2c0.1,0.7,0.5,1,1.2,0.7c0.3-0.2,0.5-0.5,0.9-0.6c0.3-0.1,0.8-0.1,1.1,0c0.1,0,0.1,0.6,0.1,0.9
		c0,0.2-0.1,0.3-0.1,0.5c0,0.6,0.5,1.2,1.1,1.2c0.5,0.1,1-0.4,1-1.1c0-0.4,0-0.8,0-1.2c0-1,0-0.9,0.9-1c0.4,0,0.8-0.1,1.1-0.4
		c0.3-0.4,0.2-0.9-0.2-1.3c-0.8-0.9-0.7-1.8-0.3-2.8C187.3,182.6,187.3,182.4,186.3,182.1z M186.2,167.6c0.4,0.3,0.8,0.5,1.2,0.8
		c0.3-0.7,0.6-1.3,0.9-2c0.1-0.3,0.2-0.7,0-0.9c-0.5-0.6-0.2-0.9,0.3-1.3c0.9-0.8,0.7-1.7-0.5-2.1c-1.1-0.4-1.3-0.8-1.2-2
		c0.2-1-0.4-1.5-1.4-1.2c-0.2,0.1-0.5,0.2-0.7,0.3c-0.7,0.3-0.8,0.7-0.6,1.4c0.1,0.4,0.2,0.9,0.3,1.4c-0.4-0.1-0.9-0.1-1.3-0.2
		c-0.8-0.2-1.5,0.3-1.3,1c0.1,0.6,0.6,0.6,1.1,0.7c0.3,0,0.5,0.2,0.8,0.4c-0.1,0.2-0.2,0.4-0.4,0.6c-0.4,0.5-0.9,1-1.3,1.6
		c-0.3,0.6,0,1,0.7,1c0.4,0,0.9-0.2,1.3-0.4c0.5-0.2,0.9-0.1,0.9,0.5c0,0.3-0.1,0.5-0.2,0.8c-0.1,0.3-0.2,0.6-0.3,0.8
		c0,0.2,0,0.6,0.1,0.6c0.2,0.1,0.5,0,0.7-0.1c0.2-0.1,0.3-0.4,0.4-0.6C185.9,168.3,186.1,168,186.2,167.6z M148.9,143.9
		c-0.1,1.2-0.3,2.3-0.3,3.5c-0.1,2.9-0.2,5.7-0.3,8.6c0,1,0.1,1.1,1.1,1.2c0.1,0,0.2,0,0.3,0c0.6,0.1,0.8-0.1,0.8-0.8
		c0.1-2.1,0.3-4.3,0.4-6.4c0.1-1.8,0.1-3.6,0.1-5.4c0-0.2-0.2-0.5-0.4-0.5C150.1,144.1,149.6,144,148.9,143.9z M123.7,180.3
		c-0.4,0.3-0.8,0.5-1.1,0.7c-0.8,0.6-0.8,1.2,0.1,1.7c0.4,0.2,0.9,0.3,1.3,0.5c0.8,0.4,1.4,1.5,1.1,2.4c-0.1,0.3-0.5,0.8-0.8,0.8
		c-1-0.1-1.6-1-1.6-2c0-0.3,0-0.6,0-0.9c-0.8-0.1-0.9,0.1-0.8,0.8c0.1,0.5,0.2,1-0.3,1.5c-0.2,0.2-0.2,0.6-0.1,0.9
		c0.1,0.5,0.4,0.9,0.6,1.3c0.3,0.9,1.1,1.3,1.9,0.7c0.6-0.4,1.2-1.1,1.7-1.6c0.6-0.7,0.7-1.4,0.4-2.2c-0.2-0.5-0.4-1.3-0.2-1.7
		c0.4-0.8,0-1.2-0.5-1.7c-0.2-0.2-0.5-0.4-0.7-0.7c-0.1-0.2-0.2-0.6-0.1-0.7c1-1.3-0.2-2.5-1.5-2.3c-0.3,0.1-0.7,0.3-0.9,0.6
		c-0.1,0.2,0.1,0.6,0.3,0.9C122.9,179.7,123.3,179.9,123.7,180.3z M156,140.5c0,1.2,0,2.3,0,3.4c0,2.6,0,5.2,0,7.8
		c0,0.8,0.2,1.3,1.1,1.1c0.1,0,0.2,0.1,0.3,0.1c0.5,0.2,0.8,0.1,0.8-0.5c0-0.8,0-1.5,0-2.3c0-3,0-5.9,0-8.9c0-0.2,0-0.5-0.1-0.7
		C157.4,140.5,156.8,140.5,156,140.5z M170.7,152.7c0,0-0.1,0-0.1,0c0,1.2,0,2.4,0,3.7c0,0.6,0.3,0.7,0.8,0.7
		c0.9-0.1,1.2-0.3,1.2-1.3c0.2-3.5,0.4-6.9,0.6-10.4c0-0.1,0-0.3-0.1-0.4c-0.7-0.6-1.9-0.2-2.1,0.6c-0.1,0.4-0.2,0.8-0.2,1.2
		C170.7,148.8,170.7,150.7,170.7,152.7z M142.4,139.7c0,0.3,0,0.6,0,0.8c0,3.1,0,6.1,0,9.2c0,0.3,0,0.7-0.1,1
		c-0.4,2.2-0.1,2.6,1.7,2.5c0,0,0.1,0,0.1-0.1c0.1-2.2,0.2-4.5,0.2-6.7c0-1.7-0.1-3.5-0.1-5.2C144.2,139.4,144.2,139.4,142.4,139.7z
		 M132.5,154.7c0.1-0.7,0.2-1.4,0.2-2.1c0-2,0-4.1,0-6.1c0-0.9,0.1-1.9,0.1-2.8c0-1.1-0.5-1.5-1.5-1.4c-0.2,0-0.6,0.3-0.6,0.5
		c-0.1,1-0.2,2.1-0.3,3.1c0,0.7,0.1,1.5,0.1,2.2c0,1.6-0.1,3.3-0.1,4.9c0,1.9,0,1.9,1.9,1.7C132.4,154.8,132.4,154.8,132.5,154.7z
		 M136.4,152.6C136.4,152.6,136.3,152.6,136.4,152.6c-0.1,1.2-0.1,2.5-0.1,3.7c0,0.2,0.1,0.5,0.3,0.6c0.7,0.3,1.8-0.5,1.9-1.3
		c0-3.4,0.1-6.8,0.2-10.2c0-1.4,0.1-1.4-1.3-1.5c-0.4,0-0.7,0.1-0.7,0.6C136.6,147.1,136.5,149.9,136.4,152.6z M179.7,155.7
		c0.1-0.9,0.2-1.8,0.2-2.6c0.1-2.6,0.1-5.2,0.2-7.9c0-0.5-0.2-0.8-0.7-0.8c-0.5,0-0.9,0-1.4,0c-0.1,0.5-0.2,1-0.2,1.5
		c0,2.8-0.1,5.5,0,8.3C178,155.9,177.5,156.2,179.7,155.7z M168.3,154.8c0-0.2,0-0.5,0-0.7c0-1.3,0-2.6,0.1-3.9
		c0.1-2.8,0.2-5.5,0.3-8.3c0-0.7-0.5-0.7-1-0.8c-0.6,0-0.8,0.1-0.8,0.7c0,1.6,0,3.1-0.1,4.7c0,1.2-0.1,2.4-0.2,3.6
		c-0.1,1.4-0.1,2.8-0.2,4.1C167,154.4,167.6,154.6,168.3,154.8z M161.3,145.8c0,0.3-0.1,0.5-0.1,0.7c-0.1,3.1-0.2,6.3-0.2,9.4
		c0,0.4,0.1,0.8,0.1,1.2c0.1,0.6,0.5,0.6,0.9,0.5c0.2,0,0.4-0.4,0.4-0.6c0.1-0.9,0.1-1.9,0.1-2.8c0-0.6-0.1-1.2,0-1.7
		c0.1-0.6,0.3-1.3,0.4-1.9c0.1-1.5,0.2-3,0.3-4.5C162.5,145.9,162,145.9,161.3,145.8z M178.7,142.2c1.2-0.3,2.1-1.5,2-2.7
		c0-1.4-0.2-2.8-0.3-4.3c-0.6,0.5-1.3,1.1-2,1.7c-1.5,1.3-1.7,3.3-0.5,5.2c0.1-0.3,0.1-0.5,0.2-0.7
		C178.4,141.8,178.5,142,178.7,142.2z M157.2,131.5c-1.1,1.5-1.3,2-1.6,3.7c-0.2,1.1,0,2.3,0.5,3.3c0.3,0.6,0.8,0.7,1.3,0.2
		c1-0.9,1.3-2.2,0.9-3.6C158,134,157.6,132.7,157.2,131.5z M171.9,143.7c2.7-1.8,2.4-5.2,1.2-7.7c-0.7,1.4-1.5,2.7-2,4
		c-0.4,0.8-0.2,1.8,0.2,2.7c0.2-0.2,0.3-0.3,0.5-0.5C171.8,142.9,171.9,143.2,171.9,143.7z M168.4,131.9c-0.1,0-0.2,0-0.3-0.1
		c-0.6,1.5-1.3,2.9-1.9,4.4c-0.3,0.8-0.1,1.8,0.4,2.5c0.2,0.3,0.7,0.5,1.1,0.6c0.1,0,0.4-0.3,0.5-0.5c0.9-1.6,0.8-3.3,0.6-5
		C168.7,133.1,168.5,132.5,168.4,131.9z M162.7,137.7c-0.1,0-0.2,0-0.3-0.1c-0.5,0.9-1,1.9-1.5,2.8c-0.4,0.8-0.4,1.7-0.2,2.6
		c0.2,0.7,0.7,0.9,1.3,1c0.5,0.1,0.7-0.3,0.9-0.7c0.2-0.5,0.4-1,0.4-1.4C163.2,140.6,163,139.2,162.7,137.7z M131.4,134.3
		c-0.1,0-0.2,0.1-0.2,0.1c-0.4,1.2-0.9,2.4-1.2,3.6c-0.3,1.3,0,2.1,0.9,2.6c0.1,0.1,0.4,0.1,0.5,0.1c0.8-0.4,1.4-1.6,1.2-2.5
		C132.3,136.8,131.8,135.6,131.4,134.3z M149.5,136.3c-0.8,1.6-1.2,3.3-0.7,5.1c0.1,0.4,0.5,0.7,0.8,0.9c0.6,0.4,1,0.2,1.3-0.4
		c0.4-0.7,0.3-1.5,0-2.2C150.4,138.6,150,137.5,149.5,136.3z M151.6,150.1c-0.1,0.6-0.1,1.1-0.2,1.7c1.4,0,2.7,0,4,0
		c0-0.3,0-0.6,0-0.8c0-0.9-0.1-1.1-0.9-1.1C153.6,149.9,152.6,150,151.6,150.1z M174.5,152.1c0-0.1-0.1-0.1-0.1-0.2
		c0.2-0.1,0.3-0.1,0.5-0.2c0-0.1-0.1-0.2-0.1-0.2c-0.4,0-0.9-0.1-1.1,0c-0.3,0.4-0.3,1-0.5,1.5c0.8,0.2,1.4,0.4,2,0.5
		c0.6,0.1,1.2,0.2,1.8,0.2c0-0.2,0.1-0.3,0.1-0.4c0.1-1.5-0.2-1.8-1.7-1.4C175.2,152,174.9,152,174.5,152.1z M147.9,149.9
		c-1,0.1-1.9,0.2-2.8,0.4c-0.1,0-0.2,0.2-0.2,0.2c0,0.5,0.1,1,0.1,1.3c0.7,0.1,1.2,0.2,1.7,0.4c0.9,0.2,1.2-0.1,1.2-0.9
		C147.9,150.9,147.9,150.5,147.9,149.9z M139.1,152c0.9,0.1,1.7,0.2,2.5,0.2c0-0.8,0-1.4,0-2.1c-0.4,0-0.7,0-1.1,0
		c-1.3-0.2-1.4-0.1-1.5,1.2C139.1,151.6,139.1,151.8,139.1,152z M188,168.9c-0.4,0-0.8-0.1-1.2-0.1c-0.1,1-0.1,2-0.2,3
		c0,0.1,0,0.3,0,0.4c0.1,0.1,0.4,0.3,0.5,0.2c0.9-0.3,1.4-1.1,1.2-2.1C188.2,169.9,188.1,169.4,188,168.9z M135.9,152.7
		c0-0.6,0-1.2,0-1.7c0-0.2-0.2-0.5-0.3-0.5c-0.6,0-1.3,0.1-1.9,0.2c-0.1,0-0.2,0.3-0.2,0.5c0,0.5,0,1,0,1.5
		C134.3,152.7,135.1,152.7,135.9,152.7z M166.2,152.3c-0.2-0.7-0.3-1.6-0.5-1.6c-0.6-0.1-1.4,0-2.1,0.2c-0.2,0.1-0.2,0.8-0.4,1.2
		C164.3,152.1,165.1,152.2,166.2,152.3z M160.5,150.3c-1.8-0.7-1.8-0.4-1.6,1.3c0.5,0,1.1,0.1,1.6,0.1c0-0.3,0-0.4,0-0.6
		C160.5,150.9,160.5,150.6,160.5,150.3z M170.2,152.7c0-1.5-0.1-1.8-0.7-1.8c-0.5,0-0.7,0.5-0.6,1.3
		C168.9,152.7,169.3,152.8,170.2,152.7z M123.5,183.8c-0.4,0.7-0.2,1.7,0.5,1.9c0.2,0,0.5-0.1,0.5-0.3
		C124.7,184.8,124.6,183.9,123.5,183.8z"/>
	<path d="M143.9,128.6c0.4,1.1,0.9,2.3,1.2,3.4c0.3,1,0.7,2,0.8,3c0,1.3-0.7,2.4-1.6,3.3c-0.5,0.6-1.4,0.4-1.8-0.3
		c-0.8-1.3-0.8-2.6-0.2-3.9c0.5-1.3,1.1-2.5,1.6-3.8C144,129.8,143.8,129.2,143.9,128.6C143.9,128.6,143.9,128.6,143.9,128.6z
		 M144.3,130.9c-0.2,0.2-0.2,0.3-0.3,0.4c-0.5,1.1-1.1,2.2-1.4,3.4c-0.2,0.9-0.2,1.9,0,2.8c0.2,0.9,1.1,1,1.6,0.3
		c0.4-0.7,0.8-1.5,1-2.3C145.5,133.9,145,132.4,144.3,130.9z"/>
	<path d="M137.2,142.7c-0.1-0.1-0.4-0.3-0.6-0.4c-0.9-0.6-1.1-1.1-0.7-2.2c0.4-1.1,1-2.2,1.5-3.3c0.4-0.9,0.8-1.8,1.2-2.7
		c0,0.1,0.1,0.2,0.2,0.4c0.3,1.5,0.5,3,0.9,4.4c0.3,1.2,0.3,2.3-0.7,3.2c-0.2,0.2-0.5,0.3-0.8,0.4
		C137.9,142.5,137.6,142.6,137.2,142.7z M137.9,142.1c1.4-0.7,1.6-4,0.4-5.8c-0.5,0.8-1,1.6-1.4,2.4c-0.3,0.5-0.4,1.1-0.6,1.7
		c-0.2,0.7,0.1,1.4,0.8,1.8c0.1-0.2,0.2-0.4,0.4-0.7C137.7,141.8,137.8,141.9,137.9,142.1z"/>
	<path d="M155.5,184.7c0.5,0.1,1,0.1,1.6,0.3c1.4,0.3,2,0.9,1.9,2.4c0,0.7-0.4,1.5-0.7,2.2c-0.1,0.2-0.5,0.4-0.9,0.4
		c-0.4,0.1-0.7,0-1.1,0c-0.8,0-1,0.4-0.7,1.1c0.5,0.8,0.3,1.5-0.2,2.2c-0.4,0.5-0.8,0.7-1.4,0.4c-0.6-0.3-1.2-0.3-1.9-0.1
		c-1.2,0.3-2-0.2-2.4-1.3c-0.2-0.6-0.7-0.8-1.3-0.8c-0.6,0-1.2,0-1.8-0.1c-0.9-0.2-1.4-1-1-1.8c0.2-0.5,0.7-0.9,1.1-1.3
		c0.4-0.4,1-0.6,1.5-0.9c0.4-0.2,0.4-0.4,0.1-0.7c0,0,0,0-0.1,0c-1.3-0.9-0.9-1.8,0.3-2.6c0.4-0.2,0.8-0.3,1.2-0.4
		c0.6-0.1,0.9-0.3,0.9-1c-0.1-1.4,0.4-2,1.5-2.3c1.5-0.4,2.3,0,3,1.2c0.5,0.9,0.5,1.8,0.4,2.7C155.4,184.4,155.5,184.6,155.5,184.7
		c-0.4,0-0.3-0.3-0.3-0.7c0-0.7,0-1.5-0.2-2.2c-0.3-1.1-1.7-1.5-3-1.1c-0.8,0.2-1.1,0.7-1,1.5c0.2,1.3-0.2,1.7-1.5,1.8
		c-0.4,0-0.8,0.2-1.1,0.3c-0.7,0.4-0.8,1-0.2,1.6c0.9,0.8,0.7,1.5-0.3,2c-0.4,0.2-0.9,0.4-1.3,0.7c-0.6,0.4-0.7,1-0.7,1.6
		c0.1,0.8,0.7,1.1,1.8,0.8c1.4-0.4,1.8,0.1,2.4,1c0.4,0.7,1.2,1.2,2,0.9c0.7-0.3,1.2-0.1,1.8,0.1c0.4,0.1,0.9,0,1.2-0.2
		c0.4-0.3,0.6-0.9,0.3-1.5c-0.7-1.3-0.3-1.9,1.1-1.8c1,0.1,1.5-0.3,1.9-1.2c0.6-1.5,0-2.8-1.6-3.2
		C156.3,185.1,155.9,184.9,155.5,184.7z"/>
	<path d="M178.1,163.5c-0.9,1.2-2.4,1.1-2.9,0c0.4,0.1,0.9,0.4,1.3,0.4C177,164,177.4,163.7,178.1,163.5z"/>
	<path d="M170.9,163.5c-0.6,0.7-1.5,0.8-2.3,0.3C169.4,163.7,170.2,163.6,170.9,163.5z"/>
	<path d="M152.3,166.1c0-1.4,0.6-2.1,1.8-2.1c0.9,0,2.2,1.3,2.2,2.2c0,1.2-1.2,2.2-2.5,2.2C153.1,168.3,152.3,167.1,152.3,166.1z
		 M155.9,166.2c0-0.6-1.1-1.6-1.9-1.7c-0.6,0-1.3,0.8-1.3,1.6c0,0.7,0.8,1.6,1.3,1.6C155,167.8,155.9,167,155.9,166.2z"/>
	<path d="M125,164c-0.4,0-0.7,0-1.1,0.1c-0.6,0.1-0.9-0.3-1.2-0.8c-0.3-0.6-0.4-1.2,0.2-1.7c0.4-0.4,0.6-0.7,0-1.1
		C124.5,160.4,125.5,162.4,125,164z M123.6,161.2c-0.4,0.6-0.9,1.1-0.5,1.9c0.2,0.5,0.7,0.7,1.1,0.3
		C124.9,162.8,124.6,161.7,123.6,161.2z"/>
	<path d="M185,183.4c-0.2,0.2-0.3,0.3-0.5,0.6c1.5,0.8,1.2,1.9,0.5,3.1c0.2,0,0.3,0,0.4,0.1c0,0.1,0,0.1,0.1,0.2
		c-0.2,0.1-0.5,0.3-0.7,0.3c-0.4-0.2-0.9-0.4-1.1-0.8c-0.7-1.1,0-3,1.2-3.5C184.8,183.3,184.9,183.4,185,183.4z M184.5,187.1
		c0.3-0.4,0.5-0.6,0.6-0.9c0.3-0.7,0.2-1.3-0.3-1.7c-0.4-0.2-0.6-0.3-0.8,0.3C183.8,185.7,184,186.3,184.5,187.1z"/>
	<path d="M185.7,166.5c0-1.4,0-2.7,0-4.2c0.6,0.5,1.2,0.9,1.7,1.5c0.6,0.7,0.1,2-0.9,2.4C186.3,166.3,186,166.4,185.7,166.5z
		 M186.1,165.6c0.7,0,1.1-0.5,1.1-1.2c0-0.6-0.3-0.8-0.8-0.9C186.2,164.2,186.2,164.9,186.1,165.6z"/>
	<path d="M154.3,187.8c0,1.4-2,2.8-3,2.6c-0.2,0-0.5-0.2-0.6-0.3c-0.7-0.6-1.1-1.4-1.2-2.3c0-0.3,0-0.9,0.3-1.1
		c0.7-0.6,1.4-1.1,2.2-1.5c0.8-0.4,1.5-0.1,1.9,0.8C154.1,186.5,154.2,187.1,154.3,187.8z M153.9,187.4c-0.1-1.2-0.6-1.8-1.4-1.9
		c-1.3-0.1-2,0.9-2.5,1.9c-0.2,0.3,0.1,1,0.4,1.4c0.7,1.3,2,1.4,2.8,0.2C153.5,188.6,153.7,187.9,153.9,187.4z"/>
</g>
</svg>
