<?xml version="1.0" encoding="utf-8"?>
<!-- Generator: Adobe Illustrator 17.1.0, SVG Export Plug-In . SVG Version: 6.00 Build 0)  -->
<!DOCTYPE svg PUBLIC "-//W3C//DTD SVG 1.1//EN" "http://www.w3.org/Graphics/SVG/1.1/DTD/svg11.dtd">
<svg version="1.1" id="Layer_1" xmlns="http://www.w3.org/2000/svg" xmlns:xlink="http://www.w3.org/1999/xlink" x="0px" y="0px"
	 viewBox="0 0 288 216" enable-background="new 0 0 288 216" xml:space="preserve">
<g>
	<path d="M207,25.9c2.4-0.3,4.8-0.8,7.2-1c1.4-0.1,2.9,0,4.1,0.6c1.1,0.5,1.9,0.8,3.1,0.4c2.5-0.8,4.5,0.3,6.2,2
		c0.8,0.7,1.4,1,2.3,0.6c2-0.7,3.6,0,5.2,1.1c0.7,0.5,1.5,0.8,2.3,1.2c0.9,0.4,1.8,0.6,2.7,1.1c3.1,1.7,6.1,3.4,9.1,5.3
		c1.2,0.8,2.5,1.8,3.2,3.1c3.4,5.8,6.8,11.7,9,18.1c2,5.7,1.7,11.6,0.9,17.4c-0.3,2.4-0.8,4.7-1.5,7c-1.4,4.2-2.5,8.6-4.6,12.5
		c-2.1,3.9-5,7.5-8,10.8c-9,9.8-19.9,17.2-31,24.4c-2.9,1.9-6,3.7-9,5.6c-0.4,0.2-1,0.5-1,0.9c-0.6,2.5-2.5,2.8-4.4,2.8
		c-1.9,0-3.9-0.3-5.8-0.8c-1.7-0.4-2.5-1.6-3.3-3.2c-1.2-2.3-2.8-4.5-4.4-6.6c-8-10.5-15.7-21.3-22.4-32.7
		c-3.1-5.3-6.2-10.7-7.2-16.8c-0.6-3.7-0.5-7.5-0.3-11.3c0.3-4.2,0.8-8.4,1.7-12.5c2.1-9,7.5-15.5,15.2-20.3c1.6-1,3.4-1.8,5-2.8
		c1.7-1,3.3-2.1,4.9-3.3c2.8-2,5.8-2.9,9.2-3.1c3.2-0.2,6.4-0.6,9.5-1c0.6-0.1,1.3,0,1.9,0C206.9,25.7,206.9,25.8,207,25.9z
		 M222.1,39.3c-0.6,0.4-0.8,0.5-0.9,0.6c-4.2,3.5-6.7,8.1-8.9,13c-6,13.5-7.7,28-9,42.5c-0.5,5.4-0.7,10.8-1,16.2
		c-0.4,7.5-0.8,14.9-1.2,22.4c-0.1,2,1.2,2.8,3.1,1.9c0.6-0.3,1.1-0.7,1.5-1.1c1.4-1.6,3-3.1,4.2-4.8c6.6-9.3,11.4-19.6,15.8-30.1
		c2.2-5.4,3.8-11,4.2-16.8c0.4-6.3,0.2-12.6-1.3-18.8C226.6,56,224.4,47.8,222.1,39.3z M219.4,39.6c-3.1,1.1-6.2,2.2-9.2,3.5
		c-7.1,3-13.6,6.9-18,13.3c-9.3,13.3-12.5,27.9-8.6,43.9c2.7,10.9,6.6,21.3,10.9,31.7c1.2,2.8,2.3,3.6,5.5,3.7
		c0-0.2,0.1-0.3,0.1-0.5c0.5-9.7,1.1-19.4,1.6-29.1c0.5-10.4,1.5-20.7,3.3-31c1.3-7.4,3.1-14.6,6.1-21.5
		C213.1,48.6,215.7,43.9,219.4,39.6z M223.6,40.1c-0.1,0.1-0.3,0.2-0.4,0.3c0.2,0.7,0.4,1.4,0.6,2.1c3.1,9.7,6.1,19.5,7,29.8
		c0.8,9.5-0.1,18.7-3.9,27.4c-5.5,12.9-11,25.8-20.8,36.6c0.5-0.3,0.9-0.4,1.2-0.6c2.5-1.5,5-3.1,7.5-4.6
		c7.6-4.7,15.1-9.8,21.3-16.4c12.2-12.9,15.1-31.8,7.2-47.6c-3.5-6.9-8-13.2-12.9-19.3C228.2,45.1,225.8,42.6,223.6,40.1z
		 M193.6,133.5c0.1-0.1,0.2-0.1,0.3-0.2c-0.9-2.3-1.8-4.5-2.7-6.8c-4.1-10.1-7.7-20.4-9.6-31.2c-1.2-7.1-0.8-14.2,1.1-21.2
		c2.3-8.1,5.7-15.6,11.6-21.8c4.6-4.9,10.4-8,16.5-10.5c2.5-1,5.1-1.9,7.7-2.9c0-0.2,0-0.4-0.1-0.6c-4,0.3-8.1,0.4-12,1.1
		c-12.5,2.1-22.3,8.7-30.2,18.4c-8.7,10.8-11.1,22.8-7,36.1c2.3,7.6,7.1,13.7,10.6,20.7c0.7,1.3,1.6,2.5,2.5,3.7
		C186.1,123.4,189.8,128.4,193.6,133.5z M238.2,114.3c0.7-0.6,1.9-1.6,3.1-2.7c5.6-5.1,10.9-10.4,14.5-17.2
		c2.3-4.2,3.5-8.8,3.5-13.5c0-3.7-1.1-7.5-2.3-11c-2.9-8.7-8.9-15.1-16.4-20.1c-4.5-3-9.3-5.7-14-8.5c-0.1,0.1-0.2,0.2-0.2,0.4
		c0.2,0.2,0.3,0.4,0.5,0.6c6.4,6.9,11.8,14.5,16.4,22.7c6.8,12.3,7.2,25.1,1.7,37.9C243.1,107.1,240.3,110.8,238.2,114.3z
		 M215.2,37.2c-2.5-0.3-5.1-0.7-7.7-1c-7.9-0.9-15.6,0-23,3.2c-8.3,3.7-15.6,8.5-19.9,17c-3.4,6.6-4.8,13.3-3.7,20.7
		c1,6.7,3.5,12.8,6.7,18.7c0.8,1.5,1.8,3,2.7,4.5c-0.6-2.4-1.5-4.6-2.2-6.9c-2.9-9.7-2.5-19.1,2.1-28.3c3.1-6.1,7.4-11.3,12.7-15.8
		c5.7-4.8,12-8.5,19.3-10.2C206.5,38.3,210.9,37.9,215.2,37.2z M260.5,79.2c1.3-4.8,1.7-9.6,1.3-14.4c-0.6-6.4-3.2-11.7-8.3-15.9
		c-6.7-5.5-19.6-8.3-28.8-9.6c0.6,0.3,1,0.6,1.4,0.8c5,2.9,10.1,5.7,15,8.9c5.9,3.8,10.8,8.6,14.3,14.7
		C258.1,68.5,259.7,73.7,260.5,79.2z M217.1,36.5c-0.5-0.3-0.8-0.4-1-0.5c-4.5-2.2-9.3-3.6-14.3-4.4c-7.1-1.2-14.1-0.4-20.6,2.6
		c-5.7,2.5-10.5,6.3-14.2,11.4c-3.4,4.6-5.3,9.9-5.8,15.8c0.2-0.2,0.3-0.3,0.3-0.3c3.4-9.2,9.5-15.9,18.4-20.4
		c8.6-4.4,17.6-6.4,27.2-5.3C210.3,35.6,213.5,36,217.1,36.5z M227.5,38.2c21.1,5.6,21.1,5.6,29.5,12.2c-1-1.9-2.1-3.6-3.2-5.4
		c-1.2-1.9-2.8-3.4-5-3.9c-4-1-7.9-2.2-11.9-2.8C233.7,37.9,230.6,38.2,227.5,38.2z M185.8,31.3c12.2-2.9,23.2-0.3,33.9,5.2
		c-0.5-0.6-1-1.1-1.6-1.6c-6.8-5.3-14.4-7.9-23-7.4C191.8,27.8,188.7,28.9,185.8,31.3z M213.4,26.2c0.2,0.2,0.2,0.3,0.3,0.3
		c0.2,0.1,0.5,0.3,0.7,0.4c3.6,2.2,5.6,5.6,6.9,9.5c0.6,1.6,0.8,1.8,2.1,0.7c0.3-0.2,0.6-0.5,0.9-0.7c3.4-2,6.8-4,10.2-5.9
		c-1.3-1.4-2.8-1.8-4.8-1c-3,1.2-5,3.4-6.2,6.3c-0.2,0.4-0.5,0.7-0.8,1c-0.2-0.4-0.4-0.8-0.5-1.2c-0.2-1.4-0.2-2.8-0.6-4.1
		C220.5,27.7,217.5,24.5,213.4,26.2z M224.9,37.7c9.3-1.4,18.2-0.3,26.9,3.6C247.6,34.2,232.8,33.5,224.9,37.7z M219.4,34.7
		c-3.9-8-7.4-8.8-17.3-7.9C208.4,28,214.2,30.4,219.4,34.7z M220.8,27.2c0.9,2.3,1.7,4.5,2.4,6.5c1.3-1.4,2.8-2.9,4.3-4.5
		C225.3,26.8,223.1,26.1,220.8,27.2z M241.9,34.1c-3.9-3.2-9.5-3-12.8,0.7c2.1-0.2,4.3-0.6,6.4-0.7C237.8,34.1,240,34.1,241.9,34.1z
		 M194.8,135.5c0.7,2.5,3.3,3.6,7.8,3.4c1.3-0.1,2.8-0.1,3.5-1.7c-2.1-0.2-4-0.2-5.8-0.5C198.5,136.5,196.7,136,194.8,135.5z"/>
</g>
<g>
	<path d="M55.3,156.2c-1-0.6-2-1.2-3-1.9c-0.7,0.6-1.4,1.1-2.1,1.7c-0.2,0.2-0.6,0.1-0.9,0.1c0-0.3-0.1-0.8,0-1
		c0.5-0.7,1.1-1.2,1.7-1.9c-0.8-0.9-1.6-1.8-2.5-2.9c-0.8,0.5-1.7,1.1-2.5,1.6c-0.3,0.2-0.6,0.4-0.9,0.6c-0.3,0.1-0.7,0.1-1,0.1
		c0.1-0.4,0-0.9,0.2-1.1c0.7-0.7,1.5-1.2,2.3-1.8c0.3-0.3,0.7-0.5,0.9-0.6c-0.6-1.9-1.2-3.7-1.6-5.6c-0.2-1-0.3-2.2-0.3-3.2
		c0-0.8-0.2-1.3-0.8-1.9c-2.3-2.3-3.5-5-3.5-8.3c0-2.3,0.7-3.4,3-3.9c2.4-0.5,4.8-0.7,7.2-1.1c0.4-0.1,0.8-0.2,1.1-0.4
		c2.2-1.3,4.4-2.6,6.6-4c0.4-0.3,0.9-0.7,1-1.2c0.9-3,3.3-4.3,6.3-3.4c0.7,0.2,1.2,0.1,1.6-0.4c0.7-0.9,1.5-1.8,2.2-2.6
		c-6.6-12.7-13-25.4-18-38.9c-0.7,0.3-1.3,0.6-1.9,0.9c-1.1,0.5-1.3,0.4-1.3-0.8c0-0.2,0-0.4,0-0.7c-0.9,0.2-1.7,0.4-2.6,0.5
		c-8,1.2-15.5-3.7-18.8-10.8c-3.4-7.5-1.8-16.4,4.2-21.8c4.5-4.1,9.9-5.3,15.8-3.8c0.3,0.1,0.7,0.2,0.9,0.2C48,36,47.3,34.1,47,32.2
		c-1.4-9.2,4.5-18.5,14.3-20c6.7-1,13.7,2.9,17.1,9.4c3.5,6.9,2.3,15.4-3.1,20.9c-1.5,1.5-3.3,2.6-5.1,4c0.4,1,1.3,0.9,2.5,0.7
		c7.4-1.1,14.3,2.2,18.2,8.7c0.1,0.2,0.3,0.5,0.3,0.5c1.3-1.8,2.7-3.6,3.9-5.5c0.4-0.6,0.4-1.5,0.6-2.4c-0.8-0.1-1.5-0.2-2.1-0.4
		c-0.3-0.1-0.7-0.3-1-0.5c0.2-0.3,0.3-0.6,0.5-0.9c0.1-0.2,0.2-0.3,0.2-0.3c-1.7-1.1-3.6-2-5.1-3.2c-7.2-5.8-8.4-17.1-2.8-24.5
		c3.4-4.5,7.9-7.1,13.6-7.1c7.4-0.1,14.2,5.3,16,12.7c2,8.2-1.1,15.9-8.2,20.4c-0.2,0.1-0.3,0.2-0.8,0.6c5.6-0.4,10.2,1.1,14,4.9
		c3.8,3.7,5.6,8.3,5.4,13.6c-0.2,9.3-7.1,18.2-18.3,18.7c0.1,0.5,0.2,0.9,0.4,1.3c0.3,0.9-0.1,1.1-0.8,1c-0.6-0.1-1.2-0.2-1.6-0.3
		c-1.8,7.7-3.5,15.3-5.5,22.9c-2,7.6-4.3,15-6.5,22.7c0.5-0.1,1-0.2,1.5-0.2c0.3,0,0.6,0.2,0.9,0.4c-0.2,0.3-0.4,0.6-0.6,0.8
		c-0.4,0.3-0.9,0.4-1.4,0.6c-1.4,0.6-2.2,2.4-1.5,3.8c0.1,0.2,0.5,0.3,0.8,0.3c1,0,2-0.1,2.9,0c0.4,0,0.7,0.4,1.1,0.6
		c-0.4,0.3-0.7,0.7-1.1,0.8c-1,0.2-1.9,0.2-2.9,0.2c-0.8,0-1.1,0.3-1.1,1c3.4,0.7,4.7,1.9,5.1,4.7c0.5,3.1,0.3,5.8-3.7,7.8
		c2.1,0.2,4,0.5,5.8,0.7c1.9,0.1,3.2,1.1,4.2,2.7c1.8,2.9,1.2,10.7-2.7,13.3c-1,0.7-2.2,1.1-3.4,1.8c0-0.1,0,0,0,0.1
		c1.3,3.7-0.4,6.4-2.9,8.8c-4.5,4.5-10.5,4.2-15.5,1.1c-1-0.6-1.9-1.3-2.9-2.1c-2.1,1.2-4.4,1.8-7,1.3c-1.2-0.2-1.8-0.9-1.9-2
		c-0.2-1.7-0.3-3.4-0.5-5.2c-0.7,0-1.3,0.1-1.9,0.1c-3.7-0.3-5-4.2-4.5-6.6c0.2-1.1,0.6-2.2,1.2-3.2c0.5-0.9,0.7-1.8,0.6-2.9
		c0-0.5,0-0.9,0.1-1.6c-1.1-0.1-2.3-0.1-3.4-0.4c-1.4-0.4-2.1,0.2-2.7,1.3c-0.4,0.7-0.8,1.4-1.3,2.1c-0.2,0.3-0.6,0.3-1,0.5
		c-0.1-0.4-0.3-0.8-0.2-1.1c0.3-0.8,0.8-1.5,1.3-2.3C54.8,157,55,156.6,55.3,156.2z M59.6,122.6c-2,1.3-4,2.5-5.9,3.8
		c-0.8,0.5-1.5,0.7-2.4,0.8c-2.1,0.2-4.2,0.4-6.3,0.8c-0.6,0.1-1.4,0.7-1.6,1.3c-0.9,2,0.6,6.1,2.3,7.2c0.6-0.2,1-0.3,1.5-0.4
		c0.1,0.4,0.3,0.9,0.2,1.3c-0.4,3.4,0,6.7,1.5,9.8c0.3,0.8,0.7,1,1.5,0.6c0.5-0.2,1-0.4,1.5-0.4c0.2,0,0.5,0.2,0.7,0.3
		c-0.1,0.3-0.2,0.6-0.4,0.8c-0.6,0.4-1.2,0.7-2.1,1.1c0.8,1,1.5,1.8,2.2,2.6c0.6-0.4,1.1-0.7,1.6-1c0.2-0.1,0.6,0,0.9,0.1
		c-0.1,0.2-0.1,0.6-0.2,0.7c-0.3,0.3-0.7,0.6-1.2,1.1c1,0.6,1.8,1.2,2.7,1.4c0.4,0.1,1-0.7,1.4-1.1c0.1,0,0.1-0.1,0.2-0.1
		c0.3-0.1,0.6-0.1,0.9-0.1c0,0.3,0.1,0.6,0,0.9c-0.1,0.4-0.3,0.7-0.5,1.1c0.7,0.1,1.2,0.2,1.7,0.2c1.6,0.1,3.3,0.4,4.8-0.7
		c0.6-0.5,1.5-0.7,2.3-0.7c2.1-0.1,4.1-0.2,6-1.1c0.8-0.4,1.7-0.7,2.5-1.1c4.3-2,8.2-4.4,11.4-8c0.4-0.4,0.6-1,0.8-1.5
		c0.4-0.7,0.8-1.5,1.2-2.3c0.3-0.6,0.7-1.2,1.1-1.9c-0.4-0.1-0.5-0.1-0.6-0.1c-0.4-0.2-0.8-0.4-1.1-0.5c0.3-0.3,0.6-0.8,1-0.8
		c0.8-0.1,0.9-0.5,0.9-1.2c-0.1-0.8-0.1-1.6-0.2-2.1c-0.8-0.1-1.4-0.2-1.9-0.3c0-1.3,1.9-0.8,1.3-2.1c-0.3-0.8-0.6-1.5-1-2.4
		c-0.6,0.4-1,0.8-1.5,1.1c-0.4,0.2-0.9,0.2-1.4,0.3c0.2-0.4,0.3-0.9,0.6-1.2c0.3-0.4,0.8-0.6,1.1-1c0.2-0.2,0.3-0.6,0.2-0.8
		c-0.6-0.8-1.2-1.6-1.9-2.4c-0.2,0.2-0.2,0.2-0.2,0.3c-1.1,3.3-4.5,5.3-8.1,2.9c-0.2-0.1-0.5-0.1-0.7,0c-1.7,1-3.4,0.9-5.1,0
		c-0.5,0.6-0.9,1.1-1.4,1.6c-1,1-2.1,1.9-3.6,2c-2.4,0.2-4.1-0.9-5.1-3.4C60.5,126.1,60.2,124.4,59.6,122.6z M53.5,72.3
		c-0.6-0.4-1.1-0.7-1.6-1.1c-0.2-0.1-0.3-0.5-0.2-0.6c0.1-0.2,0.4-0.3,0.6-0.4c0.5-0.2,1.1-0.2,1.4-0.5c1.1-1.1,2.3-2.1,3.2-3.4
		c0.6-0.8,1-1.9,1.3-2.9c0.6-2.1,1.1-4.2,1.7-6.4c0.1-0.4,0.2-0.8,0.2-1.2c0-5.3-2.1-9.7-5.9-13.4c-5.6-5.2-14.1-5.8-20.3-1.5
		c-5.5,3.9-8,11.1-6.4,18.3C29.6,69,39,74.9,48.1,72.6c0.5-0.1,1.1-0.1,1.1-0.9c0-0.1,0.4-0.3,0.6-0.4c0.1,0.2,0.3,0.4,0.4,0.7
		c0.1,0.6,0,1.2,0,1.9C51.3,73.4,52.3,72.9,53.5,72.3z M80.3,84.6c-0.5-0.6-0.8-1.1-1.2-1.6c-0.1-0.2-0.1-0.5,0-0.7
		c0.1-0.1,0.4-0.1,0.6-0.2c0.4,0,0.9,0.1,1.2,0c4.9-1.6,8.1-5,10.1-9.6c0.2-0.4,0.2-0.9,0-1.3c-1.4-4-1.7-8-0.5-12.1
		c0.1-0.5,0.1-1.2-0.2-1.6c-0.9-1.4-1.7-2.9-2.8-4.1c-6-6.8-16.5-7.2-23-0.9c-6.3,6.1-7.2,16.4-1.9,23.5c3.2,4.3,7.4,6.8,12.7,7
		c0.3,0,0.7-0.2,1-0.3c0.2-0.1,0.5-0.2,0.7-0.3c0.1,0.3,0.2,0.6,0.2,0.9c-0.1,0.5-0.4,1.1-0.7,1.8C78,84.9,79.1,84.8,80.3,84.6z
		 M97.5,47.6c-0.2-0.6-0.4-1-0.5-1.4c0-0.2,0.1-0.5,0.2-0.6c0.1-0.1,0.4,0,0.6,0.1c0.4,0.1,0.8,0.4,1.2,0.3c1.4-0.2,2.8-0.3,4.1-0.7
		c9.5-3,14.2-14.4,9.6-23.6c-4-8.1-13.4-11.1-21.1-6.9c-5.9,3.3-9.4,10.2-8.4,17c0.9,6.4,4.3,10.9,10.3,13.3c0.3,0.1,0.8,0,1.2,0.1
		c0.2,0,0.6,0,0.6,0.1c0.1,0.2,0.1,0.6,0,0.7c-0.2,0.4-0.6,0.7-1,1.2C95.5,47.3,96.4,47.5,97.5,47.6z M105.4,81.2c0.4,0,0.7,0,1,0
		c0.3,0,0.7,0.2,1,0.2c2.4-0.1,4.8-0.6,7-1.7c8.4-4.3,12-14.2,8.5-23c-3.4-8.5-12.8-12.4-21.1-9c-8,3.3-12.5,12.3-10.4,20.7
		c1.4,5.8,4.9,9.9,10.5,12.1c0.4,0.1,0.8,0.1,1.2,0.1c0.3,0,0.5,0,0.8,0c0,0.3,0.1,0.6-0.1,0.8c-0.4,0.5-0.8,1-1.3,1.6
		c1.3,0.3,2.4,0.5,3.7,0.7C105.9,82.9,105.7,82.1,105.4,81.2z M69.5,47.1c-0.5-0.3-0.7-0.4-0.9-0.6c-0.2-0.3-0.4-0.6-0.6-0.9
		c0.3-0.1,0.7-0.1,1-0.2c0.2,0,0.4-0.1,0.6-0.2c1-0.5,2-1,2.9-1.7c6.5-4.7,8.5-13.6,4.9-21.1c-3.7-7.7-12.6-11.2-20-7.9
		c-9,4-12.3,15.4-7.2,23.9c0.2,0.4,0.6,0.7,1,0.9c2.2,1.2,4.1,2.8,5.7,4.8c0.6,0.9,1.4,1.5,2.4,1.6c1.8,0.2,3.6,0.4,5.5,0.6
		c0.3,0,0.5-0.3,0.8-0.4c0.2-0.1,0.5-0.1,0.7-0.2c0.1,0.2,0.2,0.5,0.2,0.7c-0.1,0.5-0.2,0.9-0.4,1.5C67.3,47.6,68.2,47.4,69.5,47.1z
		 M78.9,85.9c0.3,2.3,0.4,4.6,0.8,6.9c1,7.3,2.1,14.5,3.2,21.7c0.1,0.3,0.2,0.8,0.4,1c2.1,1.4,2.5,3.5,2.4,5.8
		c0,0.3-0.1,0.7,0.1,0.9c0.9,1.1,1.9,2.2,3,3.4c0.1-0.4,0.1-0.7,0.1-0.9c0.3-2.8,0.6-5.5,0.9-8.3c0.5-4.3,1-8.7,1.4-13
		c0.5-4.6,1-9.2,1.4-13.8c0.4-4.2,0.8-8.4,1.2-12.6c0-0.4-0.1-0.9-0.3-1.2c-0.5-0.8-1-1.6-1.4-2.1c-1.5,1.9-3,4-4.7,5.9
		c-1.8,1.9-4.1,3-6.6,3.9c0.2,0.3,0.4,0.6,0.6,0.9c0.6,0.9,0.5,1.1-0.6,1.3C80.3,85.7,79.7,85.8,78.9,85.9z M76.2,109.3
		c0-0.3,0-0.6-0.1-0.9c-1.4-8-2.7-15.9-4.1-23.9c-0.1-0.4-0.5-0.9-0.8-1C64.9,81.3,60.9,77,59,70.8c-0.4-1.3-0.6-2.6-0.7-3.3
		c-1.3,1.1-2.7,2.4-4,3.6c0.3,0.6,1,1.3,0.8,1.6c-0.3,0.5-1.1,0.7-1.7,1.1c4.9,13.3,11.3,25.9,17.8,38.5
		C72.6,110.8,73.9,109.3,76.2,109.3z M67.9,171.4c0.1,1.2,0.2,2.3,0.2,3.4c0.2,2.7,0.2,2.6,2.9,2.6c0,0,0.1,0,0.1,0
		c3.3-0.2,4.5-1.3,5.1-4.5c0.2-0.9,0.7-1.1,1.5-0.6c1.1,0.8,2.3,0.9,3.5,0.6c2.4-0.6,3.7-2.4,3.6-5.2c0-1.1,0.2-1.3,1.3-1.1
		c0.9,0.1,1.8,0.2,2.7,0.1c2.2-0.3,3.6-1.8,3.5-3.9c0-0.8-0.2-1.6-0.4-2.3c-0.5-1.5-0.5-1.5,1.1-1.7c2.9-0.4,3.8-1.4,3.8-4.3
		c0-0.1,0-0.3,0-0.4c0.1-0.8-0.3-1-1-1.1c-0.9-0.1-1.9-0.1-2.8-0.4c-2.9-1-5.7-2.2-8.6-3.3c-0.3-0.1-0.7-0.1-1.1-0.1
		c0,0.3,0,0.7,0.2,1c0.9,2.2,0.3,3.9-1.8,4.9c-2.5,1.3-5.1,1.2-7.5-0.3c-0.7-0.4-1.3-0.4-1.8,0c0.6,0.8,1.2,1.5,1.7,2.3
		c2.1,3.3,1.1,6.7-1.5,8.5c-0.6,0.5-0.9,1.6-1.2,2.4c-0.2,0.6-0.2,1.2-0.5,1.7C70.3,170.9,69.2,171.3,67.9,171.4z M90.1,125.6
		c1-0.4,1.9-0.8,2.8-1.1c0.6-0.2,0.9-0.5,1-1.1c3-10.2,6-20.3,8.2-30.7c0.6-2.7,1.1-5.5,1.6-8.3c-0.3-0.1-0.4-0.1-0.6-0.2
		c-0.3-0.1-0.6-0.1-1-0.2c-0.4-0.1-0.8-0.4-1.3-0.5c0.2-0.4,0.4-0.8,0.6-1.2c0.1-0.2,0.3-0.4,0.3-0.4c-2.3-1.4-4.6-2.8-6.7-4.2
		C93.4,93.5,91.8,109.5,90.1,125.6z M76.9,176.1c0,0.1-0.1,0.2-0.1,0.4c1.8,1,3.5,2.2,5.3,3c6.5,2.5,11.4-1.3,13.3-5.6
		c1.4-3.2-0.7-6.3-4.4-6.2c-1.6,0-3.1,0.5-4.8,0.8c-0.2,1.9-0.9,3.8-2.7,5c-1.8,1.2-3.8,1.3-5.9,0.6
		C77.4,174.8,77.1,175.4,76.9,176.1z M73,83.9c0.2,1.4,0.4,2.6,0.6,3.8c1.2,6.9,2.4,13.8,3.7,20.8c0.1,0.7,0.3,1.4,0.7,2
		c1,1.4,2.1,2.7,3.1,4c0.1,0.2,0.4,0.3,0.7,0.6c-1.4-9.8-2.8-19.4-4.1-29c-2.6,0.3-2.6,0.3-2-2C74.8,84.1,74,84,73,83.9z M92.7,166
		c0.9,0.5,1.8,1.1,2.7,1.5c0.2,0.1,0.6,0.3,0.8,0.2c1.1-0.4,2.2-0.7,3.2-1.3c2.4-1.6,2.9-4.2,3.1-6.8c0.1-1.9,0-3.7-1.3-5.2
		c-0.8-0.9-1.7-1.2-2.4-0.9c-0.5,1.6-0.7,3.2-1.3,4.5c-0.7,1.5-2.4,1.7-3.9,2.1C93.9,162.2,94,164.2,92.7,166z M73.8,160.9
		c-0.3-4-2.9-6.5-7.1-5.6c-1.7,0.3-3.1,1.1-3.5,3c-0.4,1.7,0.1,2.6,1.7,3.2c1.8,0.7,3.7,1.5,5.5,2.1c1.7,0.6,2.4,0.3,3-1.4
		C73.7,161.8,73.7,161.2,73.8,160.9z M61.4,122.2c-0.1,0-0.2,0.1-0.2,0.1c0.5,1.7,0.8,3.5,1.6,5.1c1.1,2.4,3.4,2.8,5.4,1.1
		c0.5-0.4,0.9-0.8,1.3-1.3c0.2-0.3,0.3-0.7,0.3-1c-0.1-0.2-0.6-0.3-0.9-0.3c-1.7-0.1-2.9-1.2-2.8-2.8c0-1.6,1.1-2.6,2.9-2.7
		c0.3,0,0.6-0.2,0.9-0.4c-0.2-0.3-0.3-0.7-0.5-0.9c-1.2-0.6-2.3-1.2-3.5-1.6c-2.1-0.6-3.6,0.5-4,2.7
		C61.5,120.9,61.5,121.5,61.4,122.2z M62.4,162.1c-0.3,1.3-0.8,2.5-0.9,3.7c-0.2,3.1,2.1,4.7,5,3.8c0.3-0.1,0.8,0,1.1,0.1
		c1,0.3,1.9-0.3,2.1-1.3c0.2-1,0.4-2,0.6-3.2c0.1,0.1,0.1,0,0,0C67.7,164.2,65.2,163.2,62.4,162.1z M95.8,145.2
		c-0.1,0-0.2-0.1-0.3-0.1c0.1-1.4-0.4-2.7-1.3-3.8c-1.1-1.2-2.7-1.4-4-0.5c-1.2,0.8-1.4,2-0.7,3.6c0.2,0.5,0.2,1.1,0.1,1.6
		c-0.3,1.6,0,2.6,1.3,3.2c1.3,0.6,2.9,0.4,3.7-0.8C95.1,147.3,95.4,146.2,95.8,145.2z M84.5,121.2c-0.1,0-0.2-0.1-0.3-0.1
		c0-0.4,0-0.7,0-1.1c-0.3-2.1-1.3-3.3-2.8-3.5c-1.3-0.2-3.6,1-4.3,2.2c-0.3,0.6,0.1,1.3,0.8,1.4c0.2,0,0.5,0,0.8,0
		c1.1,0.1,1.9,0.7,2.2,1.7c0.3,1.1-0.1,2-1.2,2.6c-0.3,0.2-0.7,0.2-1,0.4c-0.3,0.3-0.6,0.7-0.7,1.1c0,0.1,0.4,0.5,0.7,0.6
		c1.7,0.7,3.4,0.3,4.2-1.3C83.7,124.1,84,122.6,84.5,121.2z M79.3,114.8c-0.9-0.9-1.9-2-2.9-3.1c-0.7-0.7-1.5-0.6-2.1,0
		c-1.7,1.8-3.4,3.6-5.2,5.4c0.6,0.4,1,0.7,1.3,1c0.6,0.6,1.1,0.6,1.9,0.4c0.8-0.2,1.6-0.1,2.4-0.2c0.3,0,0.7-0.1,0.9-0.3
		C76.8,117.1,78,116,79.3,114.8z M77,123.3c0-1.9-1.4-3.4-3.1-3.5c-1.9,0-3.5,1.5-3.5,3.3c0,2,1.5,3.6,3.4,3.6
		C75.7,126.7,77,125.3,77,123.3z M59.2,47c0.7,2.4,1.5,4.9,2.2,7.2c1.8-1.7,3.7-3.5,5.8-5.3c-0.6,0.1-1.3,0.4-1.8,0.2
		c-0.3-0.2-0.4-1-0.5-1.5C62.9,47.4,61,47.2,59.2,47z M75.1,153.7c1.7,1.1,4.1,1.1,6,0.2c1.8-0.9,2.2-2.2,1.1-3.9
		C79.8,151.3,77.4,152.5,75.1,153.7z M91.2,130.8c0.1,0,0.2,0,0.3,0c0.5-1.6,1-3.2,1.6-5.1c-1.3,0.7-2.3,1.3-3.3,1.8
		C90.4,128.8,90.8,129.8,91.2,130.8z M85,147.8c1.3,0.6,2.5,1.1,3.6,1.7c-0.2-0.7-0.4-1.3-0.7-1.8c-0.3-0.5-0.7-1-1.1-1.6
		C86.2,146.7,85.7,147.2,85,147.8z M68.8,121.9c-1,0-1.5,0.4-1.4,1.3c0.1,0.8,0.5,1.3,1.4,1.1C68.8,123.5,68.8,122.8,68.8,121.9z
		 M78.8,123.5c0.1,0,0.2,0.1,0.3,0.1c0.2-0.4,0.5-0.8,0.4-1.2c0-0.3-0.5-0.6-0.8-0.9c-0.1,0.1-0.2,0.1-0.3,0.2
		C78.6,122.3,78.7,122.9,78.8,123.5z"/>
	<path d="M72.5,142.1c1.3,0,2,0.6,1.9,1.8c0,1.3-1.5,2.4-3.3,2.4c-1.1,0-1.9-0.8-1.9-1.8C69.3,143.3,70.9,142.1,72.5,142.1z
		 M71.5,145.6c0.7-0.7,1.3-1.1,1.8-1.6c-0.3-0.2-0.6-0.7-1-0.7c-0.8-0.1-1.8,0.7-1.7,1.3C70.6,144.8,71,145.1,71.5,145.6z"/>
	<path d="M59.2,144.1c1.1,0,2.1,1.2,2.1,2.6c0,1-0.7,1.8-1.6,1.8c-1,0-2-1.4-2-2.7C57.7,144.7,58.2,144.1,59.2,144.1z"/>
	<path d="M82.1,136.2c0,0.9-0.6,1.6-1.5,1.7c-1.1,0-2.2-1.2-2.2-2.6c0-1,0.7-1.8,1.5-1.8C81,133.5,82.1,134.9,82.1,136.2z"/>
	<path d="M114.6,75.3c-1.3,0.7-1.6,1.8-1.2,3.4c-1.3-1.1-2.3-1.4-3.6-0.4c0.5-1.4,0.3-2.5-0.9-3.5c1.5,0.2,2.5-0.4,3-1.9
		C112.3,74.5,113.1,75.3,114.6,75.3z"/>
	<path d="M94.1,59.2c1.6,0.2,2.4-0.6,3-2.2c0.4,1.7,1.1,2.6,2.7,2.6c-1.1,0.8-1.9,1.7-1.2,3.3c-1.2-0.9-2.3-1.2-3.6-0.3
		C95.3,61.3,95.5,60.1,94.1,59.2z"/>
	<path d="M109.5,66.1c-1.2-1-2.3-1-3.6-0.2c0.6-1.4,0.4-2.5-0.9-3.4c1.9-0.3,1.9-0.3,3.2-2c0.3,1.4,1,2.3,2.6,2.3
		C109.7,63.7,108.9,64.5,109.5,66.1z"/>
	<path d="M99.6,70.4c0.4,1.4,1.2,2.2,2.7,2.2c-1.2,0.8-1.7,1.8-1.2,3.4c-1.3-1-2.4-1.4-3.6-0.4c0.5-1.4,0.4-2.5-0.9-3.4
		C98.1,72.2,99.1,71.8,99.6,70.4z"/>
	<path d="M119.7,55.1c0.2,1.6,1.1,2.3,2.8,2.3c-1.4,0.9-2,1.8-1.6,3.3c-1.1-0.9-2.2-1.1-3.5-0.2c0.5-1.4,0.4-2.5-1.1-3.4
		C118.4,56.8,118.4,56.8,119.7,55.1z"/>
	<path d="M108.7,48.9c0.3,1.5,1.2,2.1,2.6,2.2c-1.1,0.8-1.8,1.8-1.3,3.3c-1.2-1-2.3-1-3.7,0c0.6-1.6,0.8-2.7-0.7-3.6
		C107.3,50.8,108.2,50.2,108.7,48.9z"/>
	<path d="M116,70.7c0.6-1.4,0.4-2.5-0.8-3.4c1.6,0.2,2.4-0.5,3-2.2c0.5,1.6,1,2.6,2.7,2.5c-1.2,0.9-1.9,1.8-1.3,3.3
		C118.4,69.9,117.2,69.8,116,70.7z"/>
	<path d="M63.9,14.9c0.4,1.5,1.2,2.2,2.7,2.3C65.4,18,65,19,65.3,20.5c-1.1-1-2.2-1.1-3.5-0.2c0.5-1.3,0.4-2.5-0.8-3.4
		C62.4,16.8,63.5,16.5,63.9,14.9z"/>
	<path d="M75,26.1c-1.1-1-2.2-1-3.7,0c0.7-1.6,0.6-2.7-0.6-3.6c1.5,0.1,2.4-0.5,3-1.9c0.3,1.5,1.2,2.2,2.7,2.3
		C75.1,23.6,74.6,24.6,75,26.1z"/>
	<path d="M49.3,23.8c1.5,0.1,2.4-0.5,2.9-1.9c0.4,1.3,1.1,2.2,2.7,2.2c-1.1,0.9-1.8,1.8-1.2,3.3c-1.2-0.9-2.3-1.1-3.6-0.2
		C50.6,25.8,50.6,24.7,49.3,23.8z"/>
	<path d="M67.1,37.5c0.4,1.5,1.1,2.3,2.7,2.3c-1.1,0.8-1.8,1.7-1.3,3.2c-1.1-0.8-2.2-1.2-3.5-0.2c0.4-1.4,0.4-2.5-1-3.4
		C65.6,39.6,66.7,39.1,67.1,37.5z"/>
	<path d="M52.3,34.6c1.5,0.2,2.5-0.4,2.9-1.9c0.4,1.4,1.1,2.3,2.7,2.3c-1.2,0.8-1.8,1.8-1.3,3.3c-1.2-0.9-2.3-1.1-3.5-0.2
		C53.8,36.7,53.4,35.6,52.3,34.6z"/>
	<path d="M73.2,29.9c1,1.7,1,1.7,2.8,2.4c-1.2,0.7-1.8,1.6-1.3,3.1c-1.2-0.7-2.2-1.3-3.5-0.1c0.5-1.4,0.4-2.5-0.9-3.5
		C71.8,31.9,72.8,31.4,73.2,29.9z"/>
	<path d="M65.9,27.5c-1.3,0.7-1.6,1.8-1.2,3.4c-1.3-1.1-2.4-1.4-3.6-0.4c0.4-1.3,0.5-2.5-0.9-3.4c1.5,0.1,2.5-0.4,3-1.9
		C63.7,26.5,64.4,27.4,65.9,27.5z"/>
	<path d="M69.1,171.7c1.6,0.1,2.6-0.4,3.1-2c0.5,1.3,1.1,2.4,2.8,2.3c-1.2,0.9-1.8,1.9-1.4,3.4c-1.2-0.9-2.3-1.2-3.6-0.2
		C70.5,173.8,70.7,172.6,69.1,171.7z"/>
	<path d="M84.5,160.9c1.5,0.1,2.5-0.5,3.1-1.9c0.4,1.4,1.2,2.3,2.8,2.3c-1.2,0.8-1.7,1.9-1.4,3.4c-1.2-0.9-2.3-1.2-3.7-0.2
		C85.9,162.9,85.7,161.8,84.5,160.9z"/>
	<path d="M77.2,167.2c1.6,0.1,2.5-0.5,3.1-2c0.4,1.5,1.2,2.3,2.8,2.4c-1.3,0.8-1.8,1.9-1.3,3.4c-1.2-1-2.3-1.2-3.6-0.3
		C78.5,169.4,78.5,168.2,77.2,167.2z"/>
	<path d="M91,152.2c0.9,1.3,1.9,1.5,3.3,1c-0.8,1.2-1,2.2,0.3,3.6c-1.6-0.4-2.8-0.5-3.5,1.1c-0.2-1.4-0.5-2.6-2.2-2.8
		C90.3,154.5,91,153.7,91,152.2z"/>
</g>
<g>
	<path d="M200.5,203.9c-0.7-0.1-1.4-0.2-2-0.3c-0.1,0-0.2-0.1-0.3-0.1c-0.9-0.2-1.1-0.4-1.2-1.3c-0.6-0.1-1.1-0.1-1.7-0.2
		c0,0.4-0.1,0.6-0.5,0.7c-1.1,0.2-2.2,0.2-3.3-0.1c-1-0.3-2-0.6-3.1-0.7c-0.1,0-0.3-0.1-0.4-0.1c-0.4-0.2-0.6-0.4-0.5-0.8
		c0.2-0.8,0.5-1.5,1.3-1.9c0.2-0.1,0.2-0.2,0.2-0.4c0-0.8,0-1.7,0.1-2.5c0-0.4,0-0.5-0.4-0.5c-1-0.1-1.9-0.2-2.9-0.3
		c-0.6-0.1-1.1-0.1-1.7-0.2c-0.2,0.6-0.4,1.3-0.7,1.9c-0.3,0.8-0.8,1.1-1.6,1c-0.5,0-1-0.1-1.5-0.1c-0.1,0-0.2,0-0.3,0.1
		c-0.2,0.4-0.6,0.6-1,0.6c-1,0.1-1.9,0-2.8-0.4c-0.2-0.1-0.4-0.1-0.6-0.1c-1.1,0.2-2.1,0-3.1-0.3c-0.4-0.1-0.7-0.4-0.7-0.9
		c0-0.7,0.3-1.3,1-1.7c0.2-0.1,0.2-0.2,0.2-0.5c-0.1-0.6-0.2-1.2-0.2-1.8c-0.1-1.2,0.2-2.3,0.4-3.5c0.1-0.4,0.2-0.8,0.3-1.3
		c-0.9,0.4-1.7,0.7-2.5,1.1c-1.7,0.9-3.3,1.9-5,3c-1.5,0.9-3,1.3-4.7,1c-0.8-0.1-1.5-0.3-2.3-0.5c-0.2-0.1-0.4,0-0.6,0.1
		c-0.4,0.4-0.8,0.8-1.2,1.2c-0.2,0.3-0.5,0.3-0.8,0.2c-1.6-0.5-3.2-1.2-4.6-2.2c-4.4-3-6.4-7.3-6.4-12.5c0-0.5,0-1,0-1.4
		c0.1-1,0.3-2.1,0.4-3.1c0.1-0.3,0.2-0.7,0.3-1c0.5-2.4,1.3-4.7,2.4-6.9c1.4-2.8,3.2-5.1,5.8-6.9c2.1-1.5,4.5-2.3,7-2.7
		c1.7-0.3,3.5-0.5,5.2-0.2c2.9,0.5,5.5,1.8,8,3.4c1,0.7,1.8,1.7,2.6,2.6c0.2,0.2,0.3,0.3,0.6,0.1c3.4-2.3,7.2-3.9,11.2-5
		c2.7-0.7,5.4-1.1,8.1-1c0.5,0,1.1,0,1.6,0c1.1,0.2,2.3,0.3,3.4,0.5c0.1,0,0.2,0.1,0.3,0.1c1.2,0.3,2.4,0.6,3.6,1
		c5.1,1.8,9.2,5,12.5,9.3c2.2,2.9,3.9,6.2,5,9.7c0.5,1.5,0.9,3.1,0.9,4.7c0,0.5,0.1,0.9,0.4,1.2c0.4,0.6,0.8,1.2,0.3,2
		c0.7,0.2,1.3,0.3,1.9,0.4c0.9,0.2,1.9,0.4,2.8,0.6c0,0,0,0.1,0,0.1c-0.1,0.1-0.2,0.2-0.4,0.3c-1.1,1.1-2.2,2.1-3.8,2.4
		c-0.5,0.1-1,0.1-1.5,0.2c-0.4,0.1-0.7,0.2-0.9,0.6c-0.3,0.6-0.7,1.1-1,1.7c-0.1,0.2-0.1,0.4-0.1,0.6c0.1,1,0.2,1.9,0.2,2.9
		c0.1,2.4,0.2,4.9-0.4,7.2c-0.2,0.7-0.4,1.4-0.9,1.8c-0.3,0.2-0.5,0.5-0.5,0.9c0,0.4-0.2,0.6-0.7,0.6c-0.3,0-0.5,0-0.8,0
		c-0.7-0.1-1.4-0.2-2-0.3c-0.1,0-0.2-0.1-0.3-0.1c-0.7-0.2-1.2-0.4-1.2-1.3c0,0,0,0,0-0.1c-0.5-0.1-1.1-0.1-1.6-0.2
		c-0.1,0.3-0.1,0.7-0.5,0.7c-1,0.1-2,0.1-3.1-0.1c-1.1-0.2-2.2-0.5-3.2-0.8c-0.2,0-0.3-0.1-0.5-0.1c-0.2-0.1-0.4-0.3-0.4-0.6
		c0.1-0.7,0.3-1.3,0.8-1.7c0.2-0.2,0.4-0.3,0.7-0.5c0,0,0-0.1,0-0.1c-0.4,0-0.9-0.1-1.3-0.1c-0.7,0-1.4,0-2-0.1
		c-0.3,0-0.6-0.2-0.9-0.4c0,0,0,0,0,0c-0.2,0.5-0.3,1.2-0.8,1.5c-0.4,0.3-0.6,0.6-0.6,1c0,0.3-0.2,0.5-0.5,0.5
		C201.1,203.9,200.8,203.9,200.5,203.9z M159.6,191.7c0,0.1,0,0.1,0,0.2c0.6,0.1,1.2,0.3,1.8,0.4c1.2,0.2,2.4,0.1,3.5-0.6
		c1-0.6,2-1.2,3-1.9c2.1-1.4,4.3-2.4,6.8-2.9c2.9-0.7,5.8-1.1,8.7-1.4c0.6-0.1,1.1-0.3,1.3-0.8c0.3-0.6,0.6-1.2,0.7-1.8
		c0.3-1.2,0.1-2.3-0.5-3.3c-0.2-0.4-0.5-0.5-0.9-0.6c-0.5-0.1-0.9-0.2-1.3-0.4c-0.7-0.3-1.1-0.8-1.3-1.6c-0.2-0.8-0.4-1.7-0.7-2.5
		c-1-3.2-2.1-6.4-3.9-9.3c-0.9-1.4-1.9-2.8-3.4-3.7c-1.6-1-3.3-2-5.1-2.5c-1.5-0.5-3-0.8-4.5-0.7c-1.4,0.1-2.8,0.4-4.2,0.7
		c-2,0.5-3.8,1.4-5.5,2.6c-2.2,1.8-3.8,4-5.1,6.5c-0.9,1.9-1.5,3.9-2,6c-0.5,2.2-0.8,4.5-0.7,6.8c0.2,2.5,0.9,4.8,2.3,6.9
		c1.8,2.7,4.3,4.5,7.3,5.6c0.5,0.2,0.8,0.2,1.3-0.2c1.1-1,2.2-2,3.2-3c0.9-0.8,2-1.3,3.2-1.2c0.4,0,0.9-0.1,1.2-0.3
		c0.4-0.2,0.7-0.6,1.1-0.9c0.3-0.3,0.6-0.6,0.9-0.9c0,0,0.1,0.1,0.1,0.1c-0.3,0.4-0.6,0.8-0.9,1.2c-0.7,0.9-1.6,1.2-2.7,1.2
		c-0.6,0-1.2,0.1-1.6,0.4C161.1,190.4,160.4,191.1,159.6,191.7z M190.2,159c0.2,0.1,0.2,0.2,0.3,0.2c0.8,0.5,1.7,1,2.5,1.6
		c2,1.3,4,2.6,5.6,4.4c1,1.2,1.9,2.4,2.9,3.6c0.2,0.2,0.4,0.5,0.7,0.6c2.7,1.1,5.3,2.2,8,3.2c0.2,0.1,0.5,0.1,0.7-0.1
		c1.3-0.8,2.7-1.5,4-2.3c1.4-0.8,1.1-0.3,1.4-2c0.1-0.7-0.1-1.2-0.5-1.7c-4.2-4.5-9.4-7.2-15.5-8.1c-2-0.3-3.9-0.3-5.9-0.1
		C193,158.5,191.7,158.8,190.2,159z M179.5,163.3c0.8,0.5,1.5,1,2.2,1.5c1.6,1,2.9,2.3,3.7,4c0.3,0.6,0.6,1.2,0.9,1.8
		c0.2,0.3,0.4,0.5,0.7,0.5c0.7,0.2,1.4,0.3,2.1,0.5c1.4,0.5,2.7,1,4,1.6c0.4,0.2,0.7,0.2,1.1,0c1.6-0.8,3.2-1.6,4.7-2.4
		c0.8-0.4,1.6-0.8,2.3-1.2c-1.4-2.2-3.1-4.2-5.1-5.8c-2.1-1.7-4.4-3.1-6.7-4.4c-0.2-0.1-0.4-0.1-0.6,0c-1.7,0.6-3.5,1.1-5.2,1.8
		C182.4,161.7,181,162.5,179.5,163.3z M208.9,202.5c1-0.6,2-0.5,3-0.4c0.6,0.1,1.1,0.3,1.4,0.8c0.1,0.2,0.3,0.4,0.5,0.4
		c0.9,0.2,1.7,0.6,2.7,0.1c1-0.6,2.2-0.4,3.1,0.4c0.1,0.1,0.2,0.2,0.3,0.3c0.2,0.2,0.4,0.1,0.5-0.1c0.2-0.5,0.5-1,0.6-1.5
		c0.4-2.1,0.5-4.2,0.3-6.4c-0.1-1.2-0.2-2.5-0.4-3.7c-0.2-1.3-0.9-2.3-2-3c-0.5-0.3-1-0.5-1.5-0.8c-1.7-0.8-3.4-0.6-4.9,0.6
		c-1.8,1.5-2.9,3.5-3.5,5.8c-0.3,1.5-0.5,3-0.5,4.5C208.6,200.5,208.6,201.5,208.9,202.5z M195.1,179.8c0,0,0.1,0,0.1,0
		c1.1-0.1,2.1,0,3,0.5c1.3,0.6,2.6,1.4,3.9,2c0.5,0.3,1.1,0.6,1.6,0.8c0.8,0.3,1.5,0.1,2.2-0.2c1.6-0.5,3.2-1.1,4.9-1.6
		c0.5-0.2,0.5-0.1,0.5-0.7c0-0.8,0-1.6,0-2.4c0-1.6-0.3-3.2-0.8-4.7c-0.1-0.3-0.3-0.4-0.5-0.6c-2.5-1-5.1-2-7.6-3
		c-0.3-0.1-0.5-0.1-0.8,0c-2.4,1.2-4.8,2.4-7.2,3.6c-0.3,0.1-0.3,0.3-0.2,0.6c0.3,1,0.5,1.9,0.7,2.9
		C195.1,178,195.1,178.9,195.1,179.8z M190.4,200c1.4-0.5,1.7-0.6,2.8-0.4c0.7,0.1,1.4,0.3,1.8,1c0.1,0.2,0.3,0.3,0.6,0.4
		c0.5,0.1,1,0.2,1.6,0.2c0.2,0,0.5,0,0.7-0.2c1.2-0.7,2.5-0.6,3.5,0.4c0.4,0.4,0.7,0.3,0.9-0.2c0.2-0.4,0.3-0.8,0.4-1.3
		c0.1-1.1,0.3-2.2,0.3-3.3c0-2.1-0.2-4.2-0.7-6.2c-0.3-1.1-0.7-2.2-1.5-3.1c-1-1.1-2.3-1.5-3.7-1.7c-1.7-0.2-3.1,0.4-4.2,1.6
		c-1.1,1.2-1.6,2.6-1.9,4.2c-0.5,2.2-0.8,4.4-0.7,6.7C190.1,198.8,190.1,199.4,190.4,200z M188.7,185.9c0.7,0.2,1.4,0,2.1-0.2
		c1.2-0.4,2.4-0.9,3.6-1.4c1.3-0.6,2.6-0.5,3.8,0c1.7,0.7,3.3,1.4,5,2.1c1.2,0.5,2.5,0.5,3.7,0c1.3-0.5,2.6-0.9,3.9-1.2
		c1.5-0.4,3.1-0.4,4.6,0.1c1.6,0.5,3.2,1.1,4.8,1.7c1.6,0.6,3,0.2,4.1-1c0.4-0.5,0.5-0.8,0.2-1.3c-0.4-0.6-0.9-1.1-1.5-1.5
		c-1.1-0.6-2.2-1-3.4-1.3c-2.8-0.6-5.6-0.6-8.3,0.2c-1.8,0.5-3.5,1.1-5.3,1.7c-0.7,0.2-1.4,0.4-2.1,0.2c-0.6-0.2-1.2-0.4-1.8-0.7
		c-1.2-0.6-2.4-1.3-3.6-2c-1.4-0.8-2.9-0.9-4.5-0.5c-1.3,0.4-2.5,1-3.7,1.7c-0.4,0.3-0.7,0.5-0.9,1.1
		C189.3,184.3,189,185,188.7,185.9z M223.4,182.5C223.4,182.5,223.4,182.4,223.4,182.5c0-0.3,0-0.6,0-0.8c-0.6-3.7-2-7-3.9-10.2
		c-0.3-0.5-0.7-0.9-1.2-1c-0.3-0.1-0.5-0.1-0.7-0.2c-0.6-0.2-1.1-0.1-1.7,0.2c-1.4,0.8-2.7,1.6-4.1,2.3c-0.7,0.4-0.7,0.4-0.5,1.1
		c0.6,2,0.8,4.1,0.8,6.2c0,0.4,0,0.7,0,1.1c2-0.4,3.9-0.6,5.9-0.3C219.8,181.1,221.7,181.5,223.4,182.5z M175.5,187.7
		c0.1,0.1,0.1,0.2,0.2,0.3c0.6,0.7,1.1,1.5,1.7,2.2c1.9,2,4.3,3.3,7,3.8c1.5,0.3,3.1,0.4,4.7,0.6c0.3,0,0.3-0.1,0.4-0.3
		c0.1-0.8,0.3-1.6,0.4-2.3c0.2-1.6,0.7-3.1,1.5-4.4c1.1-1.8,2.7-2.9,4.9-2.9c0.5,0,1.1,0,1.6,0c-0.7-0.4-1.4-0.5-2.2-0.2
		c-1,0.4-2.1,0.8-3.1,1.2c-1.2,0.5-2.5,1-3.9,0.8c-0.1,0-0.2,0.1-0.3,0.2c-0.9,1.2-2.1,1.5-3.5,1.5c-1.3-0.1-2.5-0.4-3.6-0.9
		c-0.5-0.2-1.1-0.3-1.6-0.2c-0.3,0.1-0.7,0.1-1,0.2C177.4,187.4,176.5,187.5,175.5,187.7z M200.4,185.9
		C200.4,185.9,200.4,185.9,200.4,185.9c0.3,0.4,0.7,0.7,1,1c0.9,1.1,1.4,2.4,1.7,3.7c0.3,1.5,0.4,3,0.6,4.5c0.1,0.6,0,0.6,0.6,0.6
		c1.1,0.1,2.2,0.2,3.4,0.2c0.2,0,0.3-0.1,0.4-0.3c0.3-2.2,1.2-4.2,2.6-6c1-1.3,2.2-2.2,3.9-2.5c1.3-0.2,2.5,0.1,3.7,0.6
		c1.2,0.5,2.3,1.2,3,2.3c0.2,0.4,0.4,0.7,0.7,1.1c0.7-0.8,1.5-3.1,1.4-3.7c-0.1,0-0.2,0-0.2,0.1c-0.8,0.2-1.6,0.3-2.4,0
		c-1.4-0.5-2.7-0.9-4.1-1.5c-1.8-0.7-3.5-0.9-5.4-0.4c-1.5,0.4-2.9,0.9-4.4,1.3c-0.5,0.1-1,0.3-1.5,0.2c-1.3,0-2.5-0.5-3.7-1
		C201.1,186.2,200.8,186,200.4,185.9z M189.7,182.1c0.1,0,0.1-0.1,0.2-0.1c1.4-0.9,2.8-1.6,4.4-2c0.2,0,0.3-0.2,0.3-0.4
		c0-0.3,0-0.5,0-0.8c0-1.6-0.3-3.1-0.9-4.5c-0.1-0.2-0.3-0.4-0.4-0.5c-0.6-0.3-1.1-0.6-1.7-0.8c-1.5-0.5-2.9-0.9-4.4-1.4
		c-0.6-0.2-0.7-0.2-1,0.4c-0.7,1.2-1.3,2.4-1.9,3.6c-0.3,0.6-0.5,1.2-0.8,1.8c1.7-0.7,3.1-0.4,4.5,0.5
		C189.4,178.9,189.8,180.4,189.7,182.1z M177.9,164.4c1.4,2.3,2.5,4.7,3.3,7.2c0.5,1.5,0.9,3.1,1.4,4.7c0.1,0.2,0.2,0.5,0.2,0.8
		c0.1-0.1,0.1-0.1,0.1-0.1c0.8-2,1.6-3.9,2.9-5.6c0.1-0.1,0.1-0.4,0.1-0.5c-0.6-1.3-1.2-2.6-2.2-3.7c-1.3-1.4-2.9-2.4-4.5-3.3
		c-0.1-0.1-0.3,0-0.4,0C178.5,164,178.2,164.2,177.9,164.4z M175.9,196.2c0.2-0.2,0.3-0.3,0.5-0.4c1.2-0.8,3.1-0.2,3.6,1.2
		c0.1,0.2,0.2,0.3,0.4,0.3c0.6,0,1.1,0.1,1.7,0.1c0.3,0,0.5-0.1,0.6-0.4c0.2-0.5,0.4-1,0.6-1.6c0.1-0.1,0.1-0.3,0.1-0.4
		c-4-1.1-7.1-3.3-9.2-6.9c-0.5,1.3-0.8,2.6-0.9,3.9c-0.1,0.9-0.1,1.7,0.1,2.6c0.1,0.3,0.3,0.5,0.6,0.5
		C175,195.1,175.5,195.5,175.9,196.2z M228.9,187.3c-1.2-0.3-2.4-0.5-3.5-0.8c-0.6-0.1-1,0.1-1.1,0.7c-0.1,0.5-0.2,0.9-0.3,1.4
		c-0.1,0.3-0.1,0.6-0.2,0.9C225.8,189.4,227.5,188.9,228.9,187.3z M204.7,199.2c0.8,0.3,1,0.5,1.4,1.2c0.1,0.1,0.2,0.2,0.3,0.2
		c0.4,0.1,0.8,0.1,1.2,0.1c0.1-1.2,0.1-2.5,0.2-3.7c-0.8,0-1.5-0.1-2.2-0.1c-0.2,0-0.3,0.1-0.4,0.3
		C205.1,197.8,204.9,198.5,204.7,199.2z M192.8,200c-0.5,0-0.9,0-1.4,0.1c-0.6,0.1-1,0.6-1,1.2c0,0.3,0.1,0.4,0.3,0.5
		c1.2,0.4,2.5,0.5,3.8,0.4c0.3,0,0.4-0.1,0.3-0.4c0-0.7-0.3-1.2-0.9-1.5C193.6,200.3,193.2,200.2,192.8,200z M211.4,202.5
		C211.4,202.5,211.4,202.5,211.4,202.5c-0.2,0-0.4,0-0.6,0c-1.1,0-1.6,0.3-1.9,1.1c-0.1,0.4-0.1,0.6,0.4,0.7
		c1.2,0.5,2.5,0.4,3.7,0.4c0.2,0,0.3-0.1,0.3-0.4c0-0.7-0.3-1.2-0.9-1.5C212.1,202.7,211.8,202.6,211.4,202.5z M178,195.8
		c-0.4,0.1-0.8,0.1-1.2,0.2c-0.4,0.2-0.7,0.7-0.7,1.1c0,0.4,0.3,0.7,0.8,0.8c0.7,0.3,1.5,0.3,2.3,0.2c0.5-0.1,0.6-0.3,0.5-0.8
		C179.6,196.6,178.9,196,178,195.8z M175.7,197.7c0.2-1.2-0.4-2.1-1.5-2.3c-0.9-0.2-1.7,0.5-1.8,1.3c0,0.4,0.1,0.6,0.5,0.7
		C173.7,197.7,174.7,197.8,175.7,197.7z M199.5,203.3c0.5,0,1.1,0,1.6,0c0.3,0,0.5-0.2,0.3-0.5c-0.2-0.5-0.6-1-1.1-1.3
		c-0.9-0.5-2.2-0.2-2.7,0.6c-0.2,0.4-0.1,0.5,0.2,0.7C198.4,203,199,203.1,199.5,203.3z M218.1,205.7c0.5,0,1,0,1.5,0
		c0.4,0,0.5-0.2,0.3-0.5c-0.2-0.3-0.4-0.7-0.7-0.9c-0.9-0.8-2.4-0.7-3,0.3c-0.2,0.4-0.1,0.7,0.3,0.8
		C217.1,205.5,217.6,205.6,218.1,205.7z M218.6,170.3c0,0,0-0.1,0.1-0.1c-0.6-0.8-1.3-1.5-1.9-2.3c-0.1,0.6-0.2,1.2-0.2,1.9
		C217.3,170,218,170.2,218.6,170.3z M203.6,199.9c0,0,0.1,0,0.1,0c0.1-0.3,0.3-0.5,0.4-0.8c0.2-0.5,0.2-1,0.4-1.5
		c0.1-0.3,0.1-0.6,0.2-0.9c-0.3,0-0.6,0-0.9-0.1C203.8,197.8,203.7,198.9,203.6,199.9z M189.1,199.6c-0.5,0.3-0.7,0.7-0.9,1.2
		c-0.1,0.3,0,0.4,0.3,0.5c0.3,0,0.6,0.1,0.9,0.1c0.4,0,0.5-0.1,0.4-0.5C189.6,200.5,189.4,200.1,189.1,199.6z M207.7,202.1
		c-0.5,0.3-0.7,0.8-0.9,1.3c-0.1,0.2,0,0.4,0.2,0.4c0.4,0.1,0.9,0.1,1.4,0.2c0-0.2,0-0.4-0.1-0.6C208.2,203,207.9,202.6,207.7,202.1
		z M205.8,200.8c-0.2-0.5-0.5-0.8-0.9-1c-0.3-0.2-0.6-0.1-0.8,0.2c-0.4,0.5-0.4,0.7,0.2,0.8C204.9,200.9,205.3,201,205.8,200.8z"/>
	<path d="M158,174.3c0.3-1.9,1-3.5,2.4-4.8c2-1.8,4.6-1.6,6.4,0.3c1.3,1.3,1.8,3,1.9,4.7c0.1,1.9-0.2,3.7-1.2,5.3
		c-0.7,1.1-1.6,2-2.9,2.4c-1.8,0.6-3.7-0.1-4.9-1.6c-1.3-1.6-1.7-3.4-1.7-5.4C157.9,174.9,157.9,174.6,158,174.3z M158.6,174.7
		C158.6,174.7,158.5,174.7,158.6,174.7c-0.2,1.9,0.1,3.6,1.1,5.1c0.7,1,1.6,1.9,2.8,2.1c1.6,0.3,2.9-0.3,3.8-1.5
		c1.4-1.8,1.9-3.8,1.7-6c-0.2-1.8-0.9-3.3-2.3-4.4c-0.6-0.5-1.2-0.8-2-0.8c0,0.1,0.1,0.2,0.1,0.2c0.9,1.6,0.4,3.5-0.8,4.7
		c-0.9,0.9-2,1.5-3.4,1.2C159.3,175,158.9,174.8,158.6,174.7z"/>
	<path d="M165.9,166.3c-0.4,0-0.7,0-0.8-0.3c-0.5-1.1-1.5-1.5-2.6-1.7c-0.6-0.1-1.2-0.3-1.9-0.4c-0.4-0.1-0.4-0.3-0.2-0.6
		c0.4-0.7,0.8-0.9,1.5-0.6c1,0.4,2,0.9,2.8,1.6C165.4,164.8,165.7,165.5,165.9,166.3z"/>
	<path d="M153.4,188c0,0.1,0,0.1,0,0.1c-0.5,0.3-0.9,0.6-1.4,0.9c0,0-0.1,0-0.1,0c0-0.1,0-0.1,0-0.2
		C152.3,188.4,152.7,188,153.4,188z"/>
</g>
<line fill="none" stroke="#000000" stroke-miterlimit="10" x1="196.1" y1="158" x2="194.8" y2="135.5"/>
<line fill="none" stroke="#000000" stroke-miterlimit="10" x1="205.1" y1="159.4" x2="206.1" y2="137.3"/>
<line fill="none" stroke="#000000" stroke-miterlimit="10" x1="198.4" y1="157.7" x2="198.7" y2="139"/>
<line fill="none" stroke="#000000" stroke-miterlimit="10" x1="201.4" y1="158.8" x2="202.6" y2="139"/>
</svg>
