<?xml version="1.0" encoding="utf-8"?>
<!-- Generator: Adobe Illustrator 17.1.0, SVG Export Plug-In . SVG Version: 6.00 Build 0)  -->
<!DOCTYPE svg PUBLIC "-//W3C//DTD SVG 1.1//EN" "http://www.w3.org/Graphics/SVG/1.1/DTD/svg11.dtd">
<svg version="1.1" id="Layer_1" xmlns="http://www.w3.org/2000/svg" xmlns:xlink="http://www.w3.org/1999/xlink" x="0px" y="0px"
	 viewBox="0 0 288 216" enable-background="new 0 0 288 216" xml:space="preserve">
<g>
	<path d="M248.5,116.7c-1.9,0.4-3.7,0.9-5.8,1.4c1.8-1.9,3.4-3.5,4.8-5.3c2.8-3.5,5-7.4,4.8-12.1c-0.2-4.4-3-6.3-7.1-4.8
		c-1.3,0.5-2.5,1.1-3.4,1.5c0-3.6,0.5-7.2-0.1-10.6c-0.8-4.2-3.9-5.1-7.5-2.8c-0.8,0.6-1.6,1.2-2.5,1.8c-0.2-1.5-0.3-2.9-0.6-4.3
		c-0.7-3-2-5.8-5.3-6.5c-3.3-0.7-5.4,1.6-7.1,4c-1.3,1.8-2.3,3.8-3.5,5.8c-0.4-0.8-0.8-1.6-1.2-2.3c-1.9-3.4-4.5-5-6.7-4.4
		c-2.4,0.7-3.5,3.2-3.2,7.3c0.3,4.2-1.1,7.6-5,9.5c-2.8,1.3-5.7,2.7-8.7,3.5c-5.1,1.3-10.4,2.3-15.5,3.5c0.4,1,0.5,2.2,0.4,3.3
		c3.8-0.9,7.7-1.6,11.5-2.6c4.4-1.2,8.8-2.7,13-4.6c5.2-2.3,7.8-6.5,7.2-12.4c-0.1-0.6-0.2-1.2-0.1-1.8c0.2-1,0.6-2.1,0.9-3.1
		c1.1,0.6,2.4,1,3.2,1.8c3.2,4,2.7,9.6-0.9,13.7c-3,3.3-6.7,5.5-10.9,6.9c-4.6,1.6-9.3,2.8-14,4.2c-5.5,1.6-10.7,3.9-14.3,8.6
		c-0.9,1.2-1.6,2.6-2.4,4.1c0.6,0.1,0.7,0.2,0.8,0.1c0.9-0.4,1.8-0.8,2.6-1.2c-0.1,1,0.2,2.3-0.3,3.1c-1.5,2.4-3.3,4.6-4.6,7.4
		c1.1-0.7,2.2-1.5,3.4-2.1c0.9-0.4,2-0.6,3-0.9c-0.1,1.2,0.3,2.6-0.3,3.4c-1.6,2-3.6,3.8-5.4,5.6c-0.4,0.4-0.8,0.6-1.7,1.3
		c2.2-0.6,3.8-1.1,5.4-1.5c0.8-0.1,1.6,0.1,2.4,0.2c-0.3,0.9-0.3,2-0.8,2.5c-1.9,1.7-4.1,3.2-6.2,4.8c-0.8,0.6-1.6,1.1-2.3,1.6
		c0.1,0.2,0.1,0.4,0.2,0.6c1.5-0.4,2.9-0.7,4.4-1.2c1.5-0.5,3.2-1.1,3.8,0.7c0.3,0.9-0.7,2.9-1.7,3.5c-2.6,1.4-5.6,2.4-8.4,3.9
		c1.6,0,3.2-0.1,4.8,0c1.1,0.1,2.1,0.6,3.2,0.9c-0.6,1-1.1,2.5-1.9,2.8c-3.1,1.1-6.3,1.7-9.5,2.5c-0.5,0.1-1,0.2-1.5,0.2
		c0,0.2-0.1,0.5-0.1,0.7c1.3,0.2,2.6,0.6,3.9,0.6c1.6,0,3,0.5,2.9,2.2c-0.1,0.7-1.9,1.6-2.9,1.6c-1.9,0.1-3.9-0.5-6.2-0.3
		c1.5,1,3.1,1.9,4.6,2.9c-1.4,1-1.8,1.3-4.8,0.2c0,1.6-0.5,3.2-1.6,4.3c-0.1,0.2-0.3,0.4-0.4,0.6c0.3,0.8,0.5,1.6,0.5,2.4
		c0.7,0.8,1.2,1.8,1.4,3.4c-0.6-0.4-1.1-0.8-1.7-1.3c-0.2,0.5-0.4,1-0.7,1.5c0.5,0.3,1,0.6,1.5,1c0.5,0.4,1.9,0.4,2.2,0.1
		c1-1.2,1.7-0.3,2.7,0c2.1,0.5,4.6,1.4,6.4,0.8c1.5-0.5,2.5-0.5,3.9-0.3c3.5,0.6,6.6,1.6,9,4.4c0.7,0.8,1.9,1.1,2.9,1.8
		c0.9,0.6,1.6,1.4,2.9,2.5c-7.3-0.1-11.8-4.2-16.3-8.3c-0.2,0.2-0.4,0.5-0.6,0.7c2.2,2.5,4.3,5.1,6.7,7.8c-5.1-0.6-8.2-4.1-11.7-6.9
		l-0.7,0.7c1.8,2.1,3.5,4.2,5.4,6.4c-5.7,0-8.7-4.2-12.3-7.7c0.5,1.4,1.1,2.8,1.6,4.2c-0.2,0.1-0.3,0.2-0.5,0.3
		c-1.3-1.5-2.6-3-3.9-4.5c-0.2,0.5-0.5,1-0.9,1.4c0.5,1,1.1,1.9,1.9,2.7c3.7,3.6,8.7,4.7,13.7,5.6c0.5,0.1,1.2,0.1,1.5-0.2
		c1.2-1.3,2.5-0.6,3.8-0.2c1.8,0.6,3.6,0.8,4.5-1.2c2,0.5,3.9,1,5.8,1.3c2.6,0.4,3.7-0.7,3.6-3.4c5-0.2,5.2-0.3,6.2-3.1
		c5.2,0.4,6.1-0.4,4.8-4.7c6-0.7,6.7-1.3,6.1-4.8c3-0.8,6.7-0.6,6.9-5.1c4.8-0.9,10.5,0.6,12.9-5.6c1.8-0.4,3.7-0.6,5.5-1.1
		c3.9-1.2,4.6-3.1,3.2-6.3c2.1-1.3,4.5-2.2,5.9-4c2-2.5-0.4-4.4-2.5-6.1c1.2-0.3,2.3-0.4,3.2-0.8c3-1.2,6-2.3,8.7-4
		c1.2-0.7,2.3-2.8,2.1-4c-0.2-1.2-2.1-2.2-3.4-3c-0.9-0.5-2-0.5-3.4-0.8c1.9-1.2,3.6-2,5.1-3.1c3.1-2.2,5.4-5,5.8-8.9
		C253.5,117.4,252,116,248.5,116.7z M245.5,98.7c2.9-1.7,5.1-0.1,4.3,3.1c-0.8,3.2-2.2,6.5-4.1,9.1c-3.7,5.2-9,8.8-14.4,12.1
		c-6.1,3.7-12.7,5.9-19.5,7.7c-0.9,0.2-2-0.2-3.6-0.3c5.5-2,10.3-3.8,15.1-5.5c-0.1-0.3-0.2-0.7-0.3-1c-7.4,3.5-14.9,6.1-23.2,4
		c-0.1-0.3-0.1-0.5-0.2-0.8c2.6-1,5.1-2.1,7.8-2.9c12.1-3.5,22.9-9,30.7-19.6C239.7,102.1,242.7,100.2,245.5,98.7z M172.9,117.5
		l-0.5-1c2.4-1.5,4.6-3.3,7.1-4.3c5-1.8,10.2-2.9,15.2-4.8c4.8-1.8,9.5-3.9,13.9-6.4c3.3-1.9,5.2-5.1,6.6-8.8
		c1.6-4.1,3.7-8.1,5.9-11.9c0.8-1.3,3-2.8,4.1-2.5c1.4,0.3,2.7,2.3,3.3,3.8c1.3,3.1,0.4,6.2-0.9,9.1c-3.4,7.1-8.7,12.7-15.2,17
		c-4.9,3.2-10.3,5.8-15.5,8.6c-0.8,0.4-1.6,0.8-2.3,1.5c13.2-5.1,26-10.9,34-23.6c1.9-3,4.5-5.5,7.2-7.9c1.8-1.6,3.3-1.1,3.4,1.3
		c0.1,3.4,0.1,7.1-1,10.2c-2.4,6.7-7,12-13.2,15.6c-6.7,3.8-13.5,7.2-21,11.2v-3.1c4.5-1.7,9-3.5,13.1-5.1c0.2,0-0.3-0.1-0.8-0.2
		c1.7-1.2,3.3-2.4,4.9-3.6c-0.1-0.1-0.2-0.3-0.3-0.4c-1.7,1-3.4,2.2-5.2,3.1c-2.5,1.3-5,2.5-7.6,3.6c-2.4,1-4.7,1.4-7.5,0.9
		c-3.2-0.7-6.7,0.1-9.5,0.3c0.9-1.5,2.2-3.5,3.7-5.8c4.7-2.3,9.8-4.8,15-7.4c-0.1-0.3-0.2-0.6-0.4-0.9c-0.6,0.1-1.3,0.1-1.8,0.3
		c-4,2.1-8,4.3-12,6.3c-1,0.5-2.4,0-3.6,0c-2.1,0-4.3-0.5-6.2,0.1c-3.8,1.1-7.4,2.8-11.2,4.3C174.1,117.1,173.5,117.3,172.9,117.5z
		 M178.9,120.1c-1.4,0.7-2.9,1.4-4.2,2c-0.9-2.8,0.5-3.9,2.8-4.6c3.7-1.1,7.4-2.2,11.2-3.2c1-0.2,2.1,0.2,3.9,0.4
		c-4.7,6.1-11.1,8.2-16.7,11.3c-0.8-0.7-1.6-1.3-2.5-2.1c1.9-1.2,3.8-2.4,5.7-3.5C179,120.3,178.9,120.2,178.9,120.1z M160.2,170
		c0.1,3.5,2.8,5.1,5.3,7.7c-5.2,0.2-8.3-2.6-11.6-5c0.9-1.2,1.6-2.2,2.4-3.4c2.2-0.1,5,0.4,5.8-3.1c0-0.2,0.6-0.3,0.9-0.4
		c4.1-1.5,4.5-2.4,3.1-6.3c6.7-2.9,8.1-5.1,5.9-8.2c1.2-2.2,2.6-4,3.2-6.1c0.3-1-1.2-2.4-2.1-4c3.9-4.4,4-5.9,0.3-8.6
		c1.1-0.6,2-1.1,3-1.6c0.9-0.5,1.9-0.9,2.7-1.6c-1.1,0.3-2.2,0.6-3.4,0.9c-0.3-2.3,0.7-3.4,2.9-3.9c6-1.6,11.8-3.5,17.8-5
		c1.6-0.4,3.5,0.1,5.5,0.2c-1.2,3.3-3.5,4.6-5.8,5.5c-5.3,2.1-10.8,4-16.2,5.9c-0.5,0.2-0.9,0.4-1.1,1.2c4-1,8.1-1.8,12-3.1
		c4.2-1.4,8.5-1.8,12.8-1.1c1.7,0.2,3.2,1.2,4.8,2.3c-7.9,6.1-17,5.5-26.1,5.5c2.5,1.5,9.2,2,13.7,1.4c2.8-0.4,5.6-0.7,8.5-0.7
		c1.1,0,2.3,0.9,3.5,1.4c-1.3,3.1-3.7,3.8-6.2,3.7c-6.6-0.3-13.2-0.8-19.8-1.3c-0.6,0-1.2-0.1-1.8-0.2c-0.1,0.3-0.1,0.5-0.2,0.8
		c3.9,0.8,7.9,1.4,11.8,2.4c2.1,0.5,4.2,1.3,6.1,2.3c0.7,0.4,1.3,2.1,1.1,2.9c-0.3,0.7-1.8,1.5-2.7,1.5c-4.1-0.2-8.1-0.6-12.2-1.2
		c-2-0.3-4-0.9-6.1-1.4c-0.1,0.2-0.2,0.5-0.3,0.7c3.3,1.1,6.5,2.4,9.8,3.3c3.1,0.8,4.6,3,6.3,5.8c-3.5,1.3-6.7,0.5-9.7-0.2
		c-3.1-0.8-6.1-1.8-9.5-2.1c2.2,1.1,4.3,2.6,6.6,3.3c3.2,1,4.2,3.3,5.1,6.4c-6.8,0.5-11.7-3.5-17-6.1c-0.1,0.2-0.3,0.5-0.4,0.7
		c2.7,1.9,5.4,3.8,8.2,5.5c2.2,1.4,3.5,3.2,4.1,6c-6.9,1.5-11.5-3.1-16.6-5.7c-0.2,0.2-0.3,0.4-0.5,0.6c2.1,1.7,4.3,3.3,6.4,5.1
		c1.4,1.2,2.5,2.7,4.1,4.5C170.3,177.9,166.1,175.7,160.2,170z M176.2,179.7c-0.1-1.8-0.2-3.3-0.4-4.9c1.1,0.2,2.5,0,3.4,0.6
		c3.6,2.6,6.9,5.4,10.9,8.4C184.3,184.7,180.2,181.9,176.2,179.7z M183.9,172.1c2,3.4,5.1,4.2,8.1,5.4c1.4,0.5,2.5,1.7,4.2,2.8
		c-3.8,1.2-10.9-1.2-15.8-4.9c3.6-1.7,3.8-2.4,1.8-6.4c3.2-0.3,6.2-0.2,9.1,1.9c1.9,1.4,4.7,1.6,7.1,2.4c1,0.4,2,0.9,2.9,1.8
		C195,177.3,189.8,173.9,183.9,172.1z M204.8,170.9c-3.7-0.1-7.3-0.5-10.9-1c-1.9-0.3-3.8-1-5.8-1.6c0.3-0.9,0.5-1.6,0.7-2.3
		c2.3,0.9,4.5,1.8,6.8,2.7c-3.2-2-6.9-3.1-9-6.6h7.2c3.6,4.5,8.8,5.7,14.1,6.5c0.1,0.2,0.1,0.5,0.2,0.7
		C207,169.8,205.9,170.9,204.8,170.9z M226.3,159.9c-5.5,1.3-10.9,0.6-16.2-1c-3.6-1.1-7.1-2.3-10.8-3.6c1.8,2.5,4.6,4.3,9.6,5.6
		c3.7,1,7.4,1.6,12,2.5c-1.5,0.8-2.5,1.4-3.5,1.7c-7.8,1.9-15.1,0.6-22.3-2.7c-0.4-0.2-0.8-0.4-1.3-0.6c0.8-0.6,1.6-1.3,2.4-1.9
		c1.6,0.7,3.2,1.5,4.5,2.1c-2.5-2.3-5.1-4.8-7.7-7.2c0.1-0.3,0.3-0.6,0.4-0.9h10.9c-1.1-0.4-2.3-0.9-3.5-1.4c0.3-0.7,0.6-1.3,1-2
		c7.2,3.4,14.7,4.4,22.5,4.5c0.5,0,1,0,1.6,0c1.9-0.1,3.8,0.4,4,2.3C229.9,158.2,227.7,159.6,226.3,159.9z M246.5,127.4
		c-5,3.8-10.8,6-17,7c-6.4,1.1-12.9,2-19.3,3.1c7.6,0.9,15,0.2,22.4-1.4c3.4-0.7,6.9-0.6,10.4-0.6c1.3,0,2.6,0.7,3.8,1.1
		c0.1,0.3,0.2,0.6,0.3,0.9c-1.5,1-2.9,2.3-4.5,3c-6.6,2.9-13.6,3.8-20.7,3.8c-3.8,0-7.7,0-11.6,0.5c2.1,0.5,4.2,1.3,6.3,1.4
		c3.5,0.3,7.1,0,10.7,0.3c2.3,0.2,4.6,0.7,6.8,1.3c0.7,0.2,1.6,1.3,1.5,1.9c-0.1,0.7-1,1.8-1.7,1.9c-3.4,0.6-6.9,1.5-10.3,1.2
		c-6.9-0.6-13.7-1.8-20.6-2.9c-0.7-0.1-1.3-0.8-1.7-1.6c2.6,0.6,5.3,1.1,7.9,1.7c0-0.1,0-0.2,0.1-0.2c-3.1-1.1-6.3-2.2-9.4-3.3
		l0.1-0.6c1.2-0.1,2.4-0.1,3.6-0.3c1.2-0.2,2.7-0.3,3.4-1.1c3.5-3.8,7.7-1.5,11.6-1.7c0.3,0,0.6-0.1,0.9-0.5
		c-2.4-0.3-4.9-0.4-7.3-0.9c-0.8-0.2-1.4-1.1-2-1.7c-1-1.1-1.8-2.3-2.7-3.3c1.9-0.2,4.4-0.4,6.9-0.6c0-0.1,0-0.3,0-0.4h-5.1
		c0.5-1.3,0.9-2.4,1.5-3.8c9.2,0.4,17-4,25.1-7.7c3.9-1.8,7.9-3.1,11.9-4.5c0.9-0.3,2-0.3,3.1-0.4
		C250.7,122.8,249.1,125.4,246.5,127.4z"/>
	<path d="M135.5,180.9c-1,1.1-1.9,2.2-2.9,3.4c-0.2-0.1-0.4-0.3-0.6-0.4c0.4-1.2,0.8-2.4,1.2-3.7c-3.5,3.7-6.7,7.7-12.6,7.8
		c4.4-4.1,5.2-5,4.9-6.9c-8.7,6.6-8.9,6.7-11.8,6.3c1.4-1.2,2.8-2.3,3.9-3.6c1-1.2,1.8-2.7,2.6-4.1c-4.8,3.8-9.3,7.8-16,7.6
		c5-3.7,9.4-8.7,16.8-8.6c1.3,1.8,3.5,1.4,5.8,0.7c1.7-0.5,3.3-2.4,5.3-0.6c0.2,0.2,0.9,0,1.2-0.2c0.8-0.6,1.8-1.2,2.6-1.8
		c-0.4-0.4-0.7-0.9-0.9-1.3c-0.8,0.6-1.7,1.2-2.5,1.8l-0.6-0.6c0.7-1.1,1.3-2.2,2-3.3c0.1,0,0.1,0,0.2-0.1c-0.4-1.4-0.5-3-0.2-4.4
		c-0.3-0.8-0.5-1.6-0.6-2.5c-1.8,0.8-3.6,1.4-5.8,0.2c1.8-1.1,3.3-2.1,4.8-3.1c-0.1-0.1-0.2-0.3-0.3-0.4c-2.2,0.2-4.4,0.6-6.6,0.6
		c-0.8,0-1.6-1-2.4-1.5c0.8-0.7,1.5-1.8,2.5-2.1c1.4-0.5,3-0.5,4.5-0.7c0-0.2,0-0.4,0-0.7c-1.8-0.3-3.7-0.4-5.5-0.9
		c-2.1-0.6-4.2-1.2-6.1-2.2c-0.8-0.4-1-1.8-1.5-2.7c1-0.3,1.9-0.7,2.9-0.8c1.8-0.1,3.5,0,5.4-0.5c-2-0.7-4-1.2-5.9-2
		c-1.2-0.5-2.5-1-3.4-1.9c-0.7-0.7-0.8-2.1-1.1-3.1c1.1-0.3,2.3-0.9,3.3-0.7c1.7,0.3,3.2,1,5,1.3c-3-3.2-7.8-4.5-9.7-9.2
		c2.4-1.7,4.6,0.5,7.1,0.2c-1.4-1.2-2.6-2.2-3.6-3.3c-1-1.2-2-2.4-2.7-3.8c-0.3-0.6,0.1-1.6,0.2-2.5c0.8,0.1,1.7,0.1,2.3,0.4
		c1.3,0.7,2.6,1.7,4.1,2.4c-1.5-3.6-5.6-5.9-5.3-11c1.4,0.8,2.3,1.3,3.2,1.9c0.2-0.1,0.4-0.3,0.6-0.4c-1.2-1.7-2.2-3.6-3.6-5.1
		c-4-4.3-9.4-6.2-14.8-7.8c-4.6-1.4-9.3-2.4-13.7-4.3c-3.4-1.5-6.6-3.6-9.3-6.1c-4.3-4-4.4-10.5-0.8-14.4c0.6-0.7,1.7-0.9,2.6-1.3
		c0.4,0.9,0.8,1.8,1.2,2.7c0,0.1,0,0.2,0,0.3c-0.3,9.6,1.5,12.9,10.6,16c7.1,2.4,14.7,3.7,22,5.6c0.8,0.2,1.6,0.4,2.4,0.7
		c-0.1-0.6-0.2-1.2-0.2-1.8c-0.2-0.5-0.3-1.1-0.4-1.6c-1.2-0.3-2.4-0.6-3.7-0.8c-7.6-1.4-15.3-2.7-22.3-6.3c-4-2-6-5.2-5.7-9.7
		c0.1-1,0.1-1.9,0-2.9c-0.2-2-0.9-4.1-3-4.4c-1.5-0.2-3.6,0.5-4.8,1.6c-1.5,1.2-2.3,3.1-3.5,4.8c-0.7-1.3-1.4-2.8-2.2-4.1
		c-0.9-1.4-1.9-2.7-3.1-3.8c-3.2-3-6.9-2.6-8.9,1.2c-1.2,2.3-1.6,5-2.4,7.5c-0.8-0.6-1.8-1.5-3-2.1c-2.8-1.6-5.1-0.8-6.3,2.2
		c-0.5,1.2-0.9,2.5-0.9,3.8c0.1,2.7,0.4,5.5,0.6,8.1c-1-0.5-2.1-1.2-3.3-1.7c-4.3-1.7-7.6,0.4-7.2,4.9c0.3,3.1,1.3,6.3,2.8,9
		c1.6,2.9,4.1,5.3,6.3,8c-0.9-0.2-1.8-0.5-2.7-0.7c-1-0.3-2-0.6-3-0.7c-3.3-0.6-5,1.2-4.4,4.5c0.7,3.6,2.7,6.4,5.7,8.5
		c1.7,1.2,3.5,2.2,5.4,3.4c-0.5,0.1-0.7,0.2-0.9,0.2c-2.5,0.3-5,0.5-6,3.3c-0.7,1.9,0.9,3.9,4.2,5.6c0.2,0.1,0.5,0.3,0.7,0.4
		c3,1.1,6,2.1,9.1,3.2c-2.1,1.6-4.2,3.5-2.2,6c1.4,1.8,4,2.6,6.1,3.8c-1.8,2.7-1.3,4.6,2.1,6c1.5,0.6,3.2,0.7,4.8,1.2
		c0.7,0.2,1.4,0.6,2,1.1c1.3,1.1,2.4,2.9,3.9,3.4c2.8,0.9,5.8,1.1,8.7,1.5c0.2,4.5,4.3,4,7.1,5.1c-0.9,3.4-0.2,3.9,6,4.7
		c-1.5,4.2-0.6,5,4.9,4.6c0.4,4.1,3.8,2.7,6.2,3.2c-0.4,2.6,0.3,3.6,2.8,3.3c2.1-0.2,4.1-0.8,6.3-1.3c0.9,2.2,2.8,1.6,4.6,1.2
		c0.9-0.2,2.1-0.7,2.6-0.4c2.2,1.5,4.4,0.8,6.5,0.1c1.8-0.6,3.6-1.3,5.3-1.9c2.3-0.8,4.2-2.3,5.6-4.1
		C135.8,182.5,135.6,181.7,135.5,180.9z M114.4,132.7c-3.7,3.1-3.6,4.4,0.3,8.6c-0.7,1.6-2.1,3.2-1.9,4.5c0.3,1.8,1.8,3.5,3,5.5
		c-1.9,3.5-0.6,5.6,5.7,8.1c-0.1,1.5-0.6,3.1-0.1,4.2c0.6,1.1,2.3,1.6,3.5,2.3c0.3,0.2,0.8,0.3,0.8,0.5c0.8,3.3,3.5,2.9,6,2.9
		c0.8,1.3,1.5,2.6,2.3,3.9c-1.7,1-3.3,2.1-5,2.9c-1.8,0.8-3.7,1.3-5.5,2c-0.2-0.4-0.5-0.8-0.7-1.2c1.1-0.9,2.4-1.7,3.2-2.8
		c0.9-1.1,1.4-2.5,1.7-4c-2,1.7-3.9,3.6-6.1,4.9c-2.3,1.3-4.9,2-7.8,3.2c0.2-2.7,1-4.2,2.7-5.4c2.4-1.6,4.7-3.5,6.8-5.6
		c-5.4,2.3-10,6.9-17,5.5c0.6-2.8,1.9-4.7,4.2-6.1c2.6-1.6,5.1-3.4,7.4-5.4c-5.4,2-10.1,5.8-16.3,5.4c0-3.1,1.5-5.3,4-6.2
		c1.5-0.5,2.9-1.1,4.3-1.8c0.8-0.4,1.4-1,2-1.7c-6,1.1-11.7,4.1-18.4,2.5c1.8-2.8,3.3-5.1,6.5-5.9c3.3-0.8,6.5-2.1,9.7-3.2l-0.2-0.7
		c-3.8,0.8-7.6,1.7-11.5,2.4c-1.9,0.3-3.9,0.4-5.7,0.2c-1.3-0.2-2.6-1-3.8-1.5c0.8-1.4,1.2-3.1,2.4-3.9c1.3-0.9,3.2-1,4.9-1.3
		c3.9-0.8,7.8-1.5,11.7-2.3c0-0.3-0.1-0.5-0.1-0.8c-3.3,0.4-6.5,0.9-9.8,1.1c-4,0.3-8,0.4-12,0.3c-3.2-0.1-5.8-1.9-5.4-3.4
		c0.3-1.3,3.9-2.4,6.4-1.9c5.4,1.2,10.8,1.6,16.3,0.6c0.9-0.2,1.8-0.4,2.7-0.8c-9-0.3-18.2,0.4-26.1-5.1l-0.2-1.1
		c1.6-0.6,3.1-1.6,4.8-1.8c4.3-0.6,8.6-0.3,12.9,1.1c4,1.4,8.2,2.2,12.3,3.2c0.1-0.2,0.1-0.4,0.2-0.7c-2.7-0.9-5.3-1.8-8-2.7
		c-2.9-1-5.8-2-8.6-3.2c-2.7-1.2-5.4-2.5-6.8-5.5c2.5-1.6,5.3-1.2,7.7-0.6c5.8,1.5,11.5,3.4,17.2,5.4c0.8,0.3,1.2,1.9,2.1,3.5
		c-2-0.6-3.1-0.9-4.3-1.2c-0.1,0.1-0.1,0.2-0.2,0.3C110.4,130.8,112.3,131.7,114.4,132.7z M112.1,126.1c-5.6-3.2-12.1-5.3-16.1-10.7
		c0.1-0.3,0.2-0.6,0.2-0.9c1.8,0,3.8-0.4,5.4,0.1c3.6,1,7.1,2.3,10.5,3.8c0.9,0.4,1.2,2.2,1.8,3.4c-0.2,0.1-0.4,0.3-0.6,0.4
		c-1.4-0.7-2.8-1.4-4.2-2.2c-0.1,0.1-0.2,0.2-0.3,0.4c1.8,1.1,3.6,2.3,5.6,3.5C113.7,124.7,112.9,125.3,112.1,126.1z M48.4,88.9
		c0.6-3.7,2-4.3,4.7-1.8c2.1,1.9,4.2,4,5.7,6.4c4.2,6.9,9.8,12.3,16.8,16.1c5.7,3.1,11.6,5.9,17.4,8.8c0.1-0.3,0.3-0.6,0.4-0.8
		c-2.3-1.1-4.5-2.2-6.8-3.3c-8.8-4.2-16.9-9.6-22.6-17.7c-2.2-3.1-3.9-6.7-4.8-10.3c-0.5-2.2,0.7-5,1.7-7.3c0.8-1.8,2.8-1.9,4.2-0.5
		c1.6,1.6,3.1,3.4,4.1,5.4c1.6,3,2.8,6.2,4,9.3c1.6,4.2,4.6,7.1,8.3,9.4c6,3.8,12.9,5.2,19.6,7.1c5.2,1.4,10.4,3,14.1,7.7
		c-0.7-0.2-1.4-0.5-2.1-0.7c-4.4-1.5-8.8-3.1-13.3-4.4c-1.3-0.4-2.8,0.4-4.3,0.6c-0.6,0.1-1.4,0.3-1.9,0c-4.4-2.1-8.7-4.4-13-6.6
		c-2-1.1-4-2.2-6.3-3.6c3.1,3.7,10.7,8,18.9,11.1c1.7,2.7,2.9,4.7,4,6.5c-2.1-0.3-5.1-1.5-7.5-0.8c-7.7,2.1-13.3-2.2-19.4-5.4
		c-1.3-0.7-2.4-1.6-4-1.9c1.8,1.3,3.5,2.6,5.4,4c-0.8,0.3-1.5,0.5-2.2,0.8c0,0,0,0-0.1,0c-10.6-4.7-18.2-12-20.8-23.6
		C48.1,91.9,48.2,90.3,48.4,88.9z M84,121.6v2.7c-5-2.5-9.8-4.9-14.5-7.3c2.1,0.4,4.2,0.6,6.1,1.3C78.4,119.2,81.1,120.5,84,121.6z
		 M41.2,109.5c-1.5-2.4-2.5-5.2-3.1-7.9c-0.6-3.2,1.4-4.6,4.2-3c2.9,1.7,5.9,3.6,7.9,6.3c7.9,10.6,18.8,16,31.1,19.4
		c2.4,0.7,4.7,1.8,7,2.8c-0.1,0.2-0.1,0.5-0.2,0.7c-7.9,2.1-15.2-0.3-22.3-3.3c3.8,3.3,8.6,4.2,13.3,5.1c0,0.2,0.1,0.5,0.1,0.7
		c-0.9,0.2-1.9,0.8-2.7,0.6c-7.6-1.8-15-4.4-21.6-8.7C49.7,118.7,44.6,114.9,41.2,109.5z M54.4,151.8c-0.9-0.3-1.5-1.3-2.3-1.9
		c0.7-0.8,1.3-2.1,2.2-2.3c2.2-0.6,4.6-1.1,6.9-1c5.5,0.3,10.9-0.1,16.2-2.1c-12.5-0.4-25.4,1.1-36.5-6.6c0-0.4,0-0.9,0-1.3
		c1.7-0.4,3.4-1.3,5-1.2c4.9,0.4,9.8,1.2,14.7,1.7c5.6,0.5,11.3,0.9,16.9,1.3c0-0.3,0.1-0.5,0.1-0.8c-0.3-0.1-0.5-0.4-0.8-0.4
		c-4.9-0.6-9.8-1.1-14.7-1.9c-7.3-1.2-14.5-3-20.6-7.6c-2.8-2.1-4.4-4.8-4.5-8.8c1.9,0.4,3.5,0.6,5,1.1c4.5,1.7,9,3.3,13.3,5.5
		c6.9,3.5,13.9,6.4,21.7,6.2c0.5,1.2,1,2.3,1.6,3.6h-5.2c0,0.2,0,0.3,0,0.5c2.5,0.2,5,0.5,6.9,0.6c-0.8,1.2-1.7,2.6-2.8,3.9
		c-0.5,0.6-1.3,1.1-2,1.2c-2.4,0.4-4.8,0.6-7.2,1.3c2.6-0.2,5.3-0.3,7.9-0.5c0.7,0,1.6-0.2,1.9,0.1c2.5,3.1,6,3.2,9.8,3.9
		c-2.4,0.9-4.9,1.8-7.3,2.7c0,0.2,0.1,0.3,0.1,0.5c1.8-0.4,3.6-0.9,5.4-1.3c0.1,0.1,0.2,0.2,0.3,0.3c-0.5,0.4-1,1.1-1.6,1.3
		c-8.8,1.7-17.5,3.7-26.6,2.7C57.1,152.5,55.7,152.3,54.4,151.8z M92.6,181.4c0.2-2.6,1.2-3.5,3-4c3.2-0.9,6.3-1.9,8.4-5.3
		c-5.9,1.8-11.2,5.3-17.3,3.5c-0.1-0.3-0.2-0.7-0.3-1c1.2-0.5,2.4-1.2,3.7-1.4c3.9-0.8,7.5-2.2,10.4-5c-4.2,1-8.4,2.3-12.6,3
		c-1.9,0.3-3.9-0.2-5.9-0.5c-0.8-0.1-1.4-0.9-2.7-1.8c2.8-0.6,4.9-1,6.9-1.6c2.9-1,5.7-2,7.2-5c-8.4,3.9-16.9,5.6-25.8,1.5
		c7.8-1.4,15.6-2.5,21.8-8.7c-10.6,3.5-20.7,8.4-32.1,3.4c1.2-2.4,2.7-3.1,4.8-3.1c8.3,0.1,16.3-0.9,24-4.5c0.3,0.6,0.6,1.2,0.9,2
		c-1.2,0.5-2.4,0.9-3.5,1.3h10.9c-1.9,4.3-4.7,7-9.2,8c0.1,0.2,0.2,0.4,0.3,0.6c2-0.8,4-1.6,6.3-2.5c0.4,0.5,1.1,1.3,1.7,2h8.2
		c-2.3,1.8-4.4,3.5-6.5,5.2c0,0.1,0.1,0.2,0.1,0.3c1.2-0.6,2.4-1.2,3.6-1.8c0.5,0.8,1,1.5,1.5,2.3c1.7,0.3,3.5,0.7,5.3,1
		c-0.1,0.2-0.5,0.7-0.7,1.2c-1,2.1-0.8,3.7,1.6,4.6c0.4,0.2,0.8,0.5,1.2,0.8c-2.8,1.3-5.5,2.7-8.3,3.7
		C97.4,180.3,95.1,180.8,92.6,181.4z M97.9,183.3c0.7-0.5,1.4-1.1,2.1-1.6c2.6-2,5.2-4,7.8-6c0,0,0,0,0,0c1.4-0.4,2.8-0.7,4.1-1.1
		c-0.1,1.7-0.2,3.2-0.3,5C107.8,181.8,103.7,184.8,97.9,183.3z"/>
</g>
<g>
	<g id="XMLID_4_">
		<g>
			<path d="M143.5,207.7c-0.7,0.9-2,0.6-2.9-0.3c-1.3-1.3-1.6-3-1.7-4.7c-0.1-0.9-0.5-1.8-0.8-2.7c-0.1-0.2-0.3-0.4-0.3-0.6
				c-0.3-2-0.6-4-0.9-5.9c-0.2-1.6,0-3.5-0.8-4.8c-1.4-2.1-1.1-4.4-0.9-6.5c0.2-2.7-0.3-5.1-0.9-7.5c-0.5-1.9-0.8-3.8-1-5.8
				c-0.2-1.7,0.1-3.5-0.3-5.1c-0.9-3.8-1.5-7.7-1.8-11.6c-0.1-0.8-0.6-1.6-0.8-2.4c-0.2-0.5-0.5-1-0.4-1.4c0.6-2.8-0.1-5.1-1.7-7.4
				c-0.3-0.5-0.6-1.4-0.3-1.9c0.5-1.2-0.2-1.6-1-2.2c-2.5-1.8-2.9-3.4-1.6-6.2c0.3-0.7,0.4-1.9,0-2.3c-3.8-4.3-5.1-9.6-6.2-14.9
				c-0.4-1.8-0.8-3.4-2.3-4.6c-0.7-0.6-1-1.8-1.3-2.7c-0.4-1.4-0.6-2.9-1.1-4.2c-0.8-2.1-0.8-4.1,0-6.2c0.6-1.4,0.8-2.6-0.3-3.9
				c-1.1-1.4-0.6-3.3,0.8-4.4c1.8-1.4,2.1-1.9,0.7-3.8c-2.3-3.1-2-6.3-1-9.7c0.9-3,2.8-5.3,5.8-6.1c2.9-0.8,4-4.5,2.2-6.7
				c-0.8-1.1-1.7-2.2-2.3-3.4c-1.4-2.7-0.3-5.1,2.6-5.8c1.7-0.4,2.7-1.2,3.6-2.6c0.6-0.9,1.4-1.6,2.3-2.3c1.3-1,1.8-2,1-3.5
				c-0.9-1.9-1.5-3.8-1-6c0.6-2.4,2.2-4.1,4-5.6c1.4-1.1,3-2,4.5-3.2c1.5-1.3,2.9-2.8,4.4-4.2c-1.7-1.6-3.2-2.7-4.2-4.1
				c-2.4-3-2.2-6,0.8-8.9c3.3-3.2,9.2-3.6,13.1-1.2c5.3,3.3,9.1,7.7,9.7,14.2c0.2,2.9-0.1,5.9,0.2,8.7c0.2,1.7,1,3.4,1.8,5.1
				c0.5,1.1,1.5,2,2.3,3c1.6,1.9,2.1,4.1,1.2,6.4c-0.6,1.7,0.2,2.6,1.3,3.6c2.4,2.4,5,4.7,7.1,7.5c3.7,5,3.6,9.2-0.8,13.6
				c-1.9,1.9-1.8,3.6,0.2,5.3c3.2,2.8,5.6,6.2,6.7,10.3c0.7,2.7-0.4,4.8-2.5,6.4c-1,0.8-2.1,1.5-3,2.3c-1.8,1.6-1.9,2.7-0.5,4.6
				c1.5,2,2,2.5-0.1,5c-1.1,1.3-1.6,3.3-2.2,5.1c-1.2,3.3-2.1,6.8-3.5,10c-1,2.4-2.4,4.5-3.8,6.7c-0.6,0.9-0.6,1.6-0.1,2.5
				c1.8,3.4,1.3,5.4-2.1,7.2c-1.7,0.9-2.4,2.2-2.5,3.9c-0.1,1.7-0.1,3.5-0.2,5.2c0,0.6-0.3,1.3-0.7,1.9c-1.2,2.2-2.1,4.4-1.7,7
				c0.1,0.8-0.4,1.6-0.6,2.4c-0.5,2.1-1,4.1-1.5,6.2c-0.2,0.8-0.4,1.5-0.7,2.3c-0.5,1.5-1.2,2.9-1.6,4.4c-0.8,3.6-1.3,7.4-2.1,11
				c-0.5,2.1-1.4,4.1-1.9,6.1c-0.4,1.6-0.4,3.3-0.7,4.9c-0.1,0.6-0.2,1.3-0.6,1.7c-1.8,2.1-1.8,4.6-2.3,7.1
				C145.8,204.2,144.7,206,143.5,207.7z M140.6,205.3c0.6-0.1,1.2-0.2,1.8-0.4c0.6-0.3,1.1-0.8,1.7-1.1c0.4-0.2,1-0.3,1.5-0.5
				c-0.3-0.7-0.5-1.5-0.9-2c-1.3-1.3-2.8-2.4-4.2-3.6c-0.8-0.6-1.3-1.4-0.3-2.1c1.4-0.9,1.7-3.7,4.2-2.7c0.3,0.1,0.4,0.3,0.7,0.5
				c0.7,0.6,1.5,1.2,2.2,1.8c2.2-2.9-1.1-3.3-2.1-4.7c1.9-3.1,5.5-5.3,5.4-9.8c-1.7,1.1-3,0.6-4.2-0.2c-2.5-1.7-2.6-1.9-0.5-4.1
				c3.2-3.3,2.1-3.3,5.6-1.4c0.1,0,0.2,0,0.7,0c-0.2-0.8-0.2-1.8-0.6-2.3c-1-1.1-0.6-1.6,0.2-2.6c1.2-1.4,2.1-3,3.1-4.6
				c0.2-0.3,0.1-0.9,0.1-1.3c-2,0.3-4.9-1.6-6.2-3.9c0.7-0.8,1.4-1.6,2.2-2.4c0.7-0.8,1.5-1.7,2.2-2.6c1.3,0.7,2.6,1.3,3.8,1.9
				c0.2-0.2,0.3-0.4,0.5-0.6c-0.7-0.9-1.4-1.8-2.3-3c0.8,0.2,1.3,0.4,1.9,0.6c0.2-0.9,0.4-1.6,0.7-2.9c-0.9,0.9-1.4,1.4-2,1.9
				c-0.1-0.1-0.2-0.2-0.3-0.3c1.1-1.3,2.3-2.6,3.3-4s0.8-2.3-0.5-3.4c-0.9-0.7-1.6-1.6-2.6-2.3c-1-0.8-1.5-1.5-0.3-2.8
				c-1.6,0.2-3,0.2-4.3,0.4c-0.3,0-0.6,0.5-0.8,0.8c-1.1,1.1-2.2,2.2-3.4,3.2c-0.2,0.1-0.9-0.3-1.2-0.6c-0.9-0.9-1.7-1.9-2.5-2.8
				c-1-1.2-3.6-1.1-4.6,0.2c-3,3.7-4.1,3.6-6.4-0.6c-0.1-0.1,0-0.2,0-0.4c0.3-0.3,0.6-0.7,1.2-1.3c-0.8-0.3-1.3-0.6-1.9-0.8
				c-0.5-0.1-1.2-0.2-1.4,0c-0.3,0.4-0.5,1.1-0.3,1.6c0.6,1.5,1.2,2.9,2,4.3c0.5,0.9,1.2,1.5,0.2,2.5c-0.3,0.3-0.3,1-0.3,1.5
				c0,0.9,0.6,1.3,1.2,0.8c1.5-1.3,2.2-0.3,3,0.8c0.5,0.7,1.1,1.3,1.6,2c0.3,0.3,0.6,1,0.5,1.2c-0.9,1.1-1.7,2.3-2.8,3.2
				c-0.3,0.2-1.4-0.5-2.2-0.8c0.3,0.7,0.8,1.4,0.8,2.1c-0.3,2.5,1.1,3.9,2.8,5.4c2.2,2,2.1,2-0.1,4.1c-0.6,0.6-1.1,1.6-1.3,2.4
				c-0.2,0.6,0,1.4,0.1,2.1c0.1,0.8,0.2,1.8,0.7,2.3c1.2,1.4,2.6,2.6,4.1,4c-0.6,0.8-1.3,1.6-1.9,2.5c-0.4,0.5-0.9,1.1-1,1.8
				c-0.4,2.8-0.3,5.5,2.7,7c1.3,0.7,1.5,1.6,0.3,2.6c-1.3,1.1-2,2.5-0.8,4.2c0.2,0.3,0,0.8,0.2,1.2c0.4,1.1,0.7,2.4,1.4,3.3
				c0.7,0.9,1.1,1.5,0.3,2.6C140.2,203.7,140.5,204.6,140.6,205.3z M144.4,199.9c0.8,0.6,1.3,0.4,1.4-0.6c0.4-3.8,1.2-3.5-2.5-5.8
				c-0.9,0.9-1.9,1.9-2.9,2.9c0.5,0.5,0.9,1,1.4,1.4C142.5,198.5,143.5,199.2,144.4,199.9z M146.3,190.4c0.6,0.4,1,0.8,1.7,1.3
				c0.4-1.6,0.6-2.9,1.1-4.8C147.9,188.3,147.1,189.3,146.3,190.4z M138.2,192.3c0.6-0.6,0.9-0.9,1.5-1.5c-0.7-0.5-1.2-0.9-1.7-1.3
				c-0.1,0.1-0.2,0.2-0.3,0.3C137.8,190.5,138,191.3,138.2,192.3z M149.2,180.4c1.5-0.2,1.6-2,1.8-3.4c0.3-1.8-1.3-1.7-2.3-2.7
				c-1.3,1.5-2.5,2.8-4.1,4.6C146.6,179.6,148,180.5,149.2,180.4z M136.4,180.5c2.3-2.1,2.2-2.2-0.7-4.5
				C136,177.7,136.2,179,136.4,180.5z M152.8,163.2c0.4,0.2,1.5,0,1.6-0.3c0.6-1.2,1-2.5,1.4-3.8c0.4-1.4-1-1.5-1.6-2
				c-0.4-0.3-1.3-0.3-1.6-0.1c-1.1,1.1-2,2.3-3.1,3.6C150.7,161.5,151.7,162.5,152.8,163.2z M134.3,167.6c1-0.9,1.7-1.6,2.6-2.4
				c-0.9-0.8-1.8-1.7-3-2.8C134,164.4,134.2,165.8,134.3,167.6z M134.3,155.8c0.8-0.8,1.5-1.6,2.3-2.4c-0.9-1.2-1.5-2.1-2.3-3
				c-0.2-0.3-0.8-0.6-1.1-0.4c-0.4,0.1-1,0.7-1,1C132.5,152.6,132.3,154.7,134.3,155.8z M155.4,141.8c1.2,1.1,2.3,2.1,3.7,3.4
				c0.3-2.1,0.5-3.7,0.8-5.4C156.5,140.3,156.5,140.3,155.4,141.8z M146.6,144.2c1-0.9,1.8-1.6,2.6-2.4c0-0.2-0.1-0.4-0.1-0.6
				c-1.6,0-3.2,0.1-5.1,0.1C144.9,142.5,145.7,143.3,146.6,144.2z M138.1,139.4c8.3,1.6,16.4,0.8,24.1-2.7c3.3-1.5,3.8-3.3,1.6-6.1
				c-12.3,4.4-24.4,3.6-36.6-0.6c-2.3,3.9-1.9,5.1,2.4,7.1c0.2,0.1,0.3,0.2,0.5,0.2C132.8,138,135.4,138.9,138.1,139.4z
				 M134.5,143.6c0,0,0.2,0.1,0.2,0.1c1-0.8,2-1.6,3.1-2.5c-1.8-1.2-4-1.6-4.6-0.7C132.2,142,134,142.5,134.5,143.6z M155.2,131.9
				c4.8-0.4,8.8-2.4,10.9-6.9c1.9-4.1,3.5-8.4,5.1-12.7c0.2-0.6-0.2-1.4-0.4-2.2c0-0.1,0-0.1-0.1-0.2c0.9-1.1,2.1-2.3,1.6-4.2
				c-2.7-1-4.5,0.2-6.2,2.1c-1.2,1.4-2.7,2.3-4.7,1.9c-0.5-0.1-1.1,0.1-1.6,0.4c-2.4,1.2-4.8,1.1-7.3,0.4c-1.6-0.4-3.7-0.5-5.1,0.1
				c-2.5,1.1-4.8,1.8-7.4,1c-1.6-0.5-3.1-1.3-4.7-2c-0.5-0.2-1.1-0.4-1.6-0.2c-3.9,1.4-7.5,1-11-1.1c-1.9-1.1-3.8-2-5.8-3.1
				c-0.2,1.8,0.7,3.1,2,3.7c3.5,1.6,6.9,3.3,10.6,4.4c5.8,1.7,11.9,2,17.9,1.8c7.3-0.3,14.5-1.2,21.2-4.4c0.5-0.2,1-0.3,1.5-0.5
				c0,0.3,0.1,0.6,0.1,0.9c-16.5,6.4-33.2,6.7-50-0.2c1,5.1,2.2,10.1,5.2,14.2c1.4,1.9,3.6,3.6,5.8,4.7c3.9,2,8.2,2.4,12.5,2.6
				C147.3,132.6,151.2,132.3,155.2,131.9z M159.6,109.2c1.7-0.4,3.2-1.2,4.7-2.2c2.8-1.9,5.5-3.3,8.9-2.3c0.5,0.2,1.2-0.2,1.8-0.3
				c-0.2-0.6-0.2-1.3-0.5-1.7c-1.6-2-3.4-3.7-4.9-5.8c-3.9-5.3-7.7-10.8-11.6-16.2c-2.7-3.7-5.4-7.4-8.2-11
				c-2.1-2.7-4.7-4.6-7.8-5.8c5.5,0.2,8,5.7,12.8,7.6c-1.5-3.1-3.8-5.2-6.3-7c-3.4-2.5-7-4.7-10.5-7.1c-0.7-0.5-1.4-1.2-2.1-1.8
				c0.1-0.1,0.2-0.2,0.3-0.3c0.3,0.2,0.5,0.3,0.8,0.5c1.5,1,3.1,2,4.6,3c1,0.7,2,1.3,3,2c4.2,2.9,8.4,5.8,11.1,10.3
				c0.5,0.9,1.5,1.7,2.5,2c0.8,0.3,1.8-0.2,2.9-0.4c-0.2,0.4-0.3,1.2-0.6,1.3c-1.2,0.5-2.5,0.7-3.8,1c4.1,8.5,9.7,16.3,15.8,23.9
				c1.5-3.1,1.5-3.1,4.6-4.8c2.9-1.6,3.8-3.6,2.6-6.7c-0.5-1.4-1.3-2.8-2.2-4.1c-3.1-4.3-7.2-7.1-12.1-9c-1.1-0.4-2.1-1.1-3.1-1.7
				c0.1-0.1,0.2-0.3,0.2-0.4c1.9,0.8,3.8,1.5,5.7,2.3c0.2-0.1,0.4-0.3,0.6-0.4c-0.5-2.4-0.7-5-1.7-7.2c-0.9-2.3-2.3-4.5-3.9-6.4
				c-1.6-1.9-3.6-3.5-5.7-5c-2-1.4-4.2-2.4-6.3-3.6c1.4,0.2,2.6,0.7,3.7,1.3c7.9,4.2,13.4,10.2,14.1,19.5c0.1,1.6,0.4,2.8,1.7,2.8
				c0.1-0.2,0.3-0.4,0.4-0.6c1.1-1.7,2.1-3.2,3.2-4.6c1.3-1.8,2.3-3.7,1.5-5.9c-0.8-2.2-1.7-4.4-3.1-6.2c-2-2.5-4.6-4.6-6.9-6.9
				c-0.3-0.3-0.9-0.6-1.4-0.5c-2.6,0.1-5.3,0.3-8.1,0.5c4.3,2.7,7.8,6.1,10.8,9.9c2.6,3.3,3.6,7.1,3.7,11.2c0,0.8-0.3,1.6-0.4,2.1
				c-0.5-2.8-0.5-6-1.7-8.6c-3.5-7.7-9.9-12.6-17.4-16.1c-2-1-4-0.8-6,0.4c-1,0.5-2.4,0.6-3.6,0.4c-2-0.4-4-1.2-6.3-1.9
				c1.3,2.8,3,4.8,5.5,6.1c5.2,2.7,10,6,13.9,10.5c0.2,0.3,0.4,0.7,0.7,1c-0.8-0.2-1.2-0.6-1.7-1c-3.3-2.3-6.5-4.9-10-6.8
				c-0.5-0.3-1-0.6-1.5-0.9c-3.5-2.2-6.2-4.9-8.3-8.4c-0.6-1-1.4-1.8-2.2-2.7c-0.5,0.5-0.8,0.7-1.1,1c-1.7,1.6-3.3,3.3-5.2,4.8
				c-1.5,1.2-1.8,1.5-0.9,3.3c0.4,0.8,0.8,1.5,1.2,2.3c-0.2,0.1-0.3,0.1-0.5,0.2c-1.5-1.2-2.2-2.9-2.2-4.9c-1.7,0.5-2.5,1.6-1.9,3
				c1.2,2.7,2.1,5.8,5.6,6.6c0.5,0.1,1,0.5,1.4,0.9c2.8,2.9,6.1,3.7,9.8,2.1c0.9-0.4,1.8-0.5,2.7-0.8c0,0.2,0.1,0.4,0.1,0.5
				c-3,1.4-6.1,2.9-9.5,1.3c-1.3-0.6-2.5-1.5-3.7-2.4c-1.4-1.1-2-1.1-2.8,0.4c-0.6,1.3-1.2,2.9-1.2,4.4c-0.2,4.6,2.5,7.6,5.9,10
				c2.8,1.9,5.9,3.5,8.9,5.1c4.3,2.2,7.8,5.2,10.5,9.4c2.9,4.6,5.1,9.9,9.9,13.3c-0.4,0.1-0.6,0.2-0.7,0.1c-0.4-0.1-0.8-0.2-1.1-0.4
				c-2.8-1.9-5.7-3.8-8.4-5.9c-3.2-2.5-5.8-5.8-10.1-6.9c0.7-0.2,1.5-0.3,2.2,0c1.2,0.5,2.4,1.2,3.4,2c2.6,2.1,5.1,4.3,7.7,6.5
				c-1.1-2.1-2.4-4-3.1-6.1c-1.7-5.1-5.3-8.3-9.8-10.7c-3.6-2-7.2-4-10.8-6.1c-3.6-2.1-5.7-5.2-6-9.4c0-0.4-0.2-0.8-0.3-1.2
				c-6.6,2-8.9,9.7-4.5,14.8c2.9,3.4,6.1,6.7,9.1,10c1.9,2,4.1,2.8,6.8,1.8c0.8-0.3,1.7-0.5,2.6-0.8c0.1,0.2,0.1,0.3,0.2,0.5
				c0,0.1,0.1,0.1,0.1,0.2c-1.6,1-3.2,2-4.9,3.1c1.4,1.5,2.9,3.1,4.4,4.7c-0.1,0.1-0.2,0.2-0.3,0.3c-0.8-0.8-1.7-1.6-2.5-2.4
				c-1.1-1.1-2.1-2.2-3.2-3.2c-1.1-0.9-2.4-1.6-3.5-2.6c-0.2-0.2-0.4-0.3-0.6-0.5c-1.4-1.4-2.4-3.1-3.4-4.5c-1.3,0.9-2.4,2-3.6,2.4
				c-2.1,0.6-2.8,2-3.2,3.9c-0.7,3.4,0.2,6.5,2.9,8.1c2.6,1.5,5.2,2.9,7.9,4.1c2.5,1.1,6.3,0.2,7.9-1.8c-2.8-3.7-5.7-7.3-8.6-11
				c0.1-0.1,0.2-0.2,0.3-0.3c1.3,1.4,2.7,2.7,3.9,4.2c2,2.5,3.7,5.2,5.9,7.6c2.6,2.8,5.9,3.7,9.5,2.4c3-1.1,5.9-1,8.9-0.4
				C156,109.7,157.9,109.6,159.6,109.2z M115.4,91.1c0.4,0.5,1.4,1.3,1.8,1.1c1.3-0.5,3.2-0.5,3.6-2.4c0.5-2.1-1.6-2.4-2.5-3.8
				c-0.8,0.7-1.5,1.3-2.1,2C115.3,88.8,114.7,89.9,115.4,91.1z M162.3,49.4c0.5,1.2,1,0.8,1.6,0.3c2-2,2.4-4.9,0.5-7
				c-3.3-3.8-4.4-8.1-4.2-13c0.3-4.3,0-8.6-2.8-12.3c-3.3-4.4-7.1-8-13-7.5c-2.7,0.2-5.4,1.1-6.7,3.8c-1.5,3.2-0.3,5.7,3,8.2
				c2.1,1.6,4.5,2.7,6.8,3.9c1.5,0.8,3,0.4,3.5-0.8c0.5-1.3-0.2-2.3-1.9-2.9c-0.3-0.1-0.7-0.1-1-0.2c-1.7-0.3-3.5-0.6-5.2-1
				c-2.4-0.6-3.3-2-3.1-4.4c0.2-2.9,2.9-4.7,5.8-4.1c3.2,0.6,5.3,2.7,7.1,5.1c3.2,4.2,5,8.8,2.7,14.2c-1.1,2.4-1.4,4.9-0.9,7.6
				c0.8,3.9,3.4,6.5,6.4,8.9C161.5,48.4,162.1,48.8,162.3,49.4z M154.2,49.9c2.3,0.5,4.7,1,7.3-0.2c-0.7-0.6-1.2-1-1.8-1.3
				c-3.3-1.9-5.2-5.1-6.9-8.4c-1.5-3-0.1-5.6,1.3-8.2c0.8-1.5,1.4-3.2,1.5-4.8c0.1-5.7-3.1-9.8-7.5-13c-1.8-1.3-3.8-1.4-6,0.3
				c3.9-0.4,4.8,1.2,3.7,6.3c1.4,0.3,2.7,0.6,4.1,1c2,0.5,2.8,3,1.5,4.5c-1,1.2-2.7,1.4-4.4,0.4c-1.1-0.6-2.1-1.3-2.9-1.8
				c-1.2,1.5-2.1,2.9-3.1,4.1c-1,1.3-2.1,2.5-3.2,3.8c-1,1.2-1.7,2.6-1.3,4.3c0.5,1.8,1,3.6,1.6,5.4c-1-1.4-1.8-3-2.2-4.6
				c-0.4-1.7-0.2-3.4,0.9-4.9c1-1.3,2.1-2.7,3.1-4c-2.5,1.4-4.8,3-7,4.7c-2.9,2.4-3.2,5-2.1,8.5c0.9,2.8,3.2,4.2,5.3,5.7
				c1.4,1,3.5,0.9,5.1,1.7c1.6,0.8,3,0.8,4.5-0.1c1.7-1.1,3.6-1.1,5.4-0.4C152.2,49.2,153.2,49.7,154.2,49.9z M143.2,19.5
				c0.7,0,1.3-1.3,2-1.9c-0.2-1.5-0.9-2.2-2-2.2c-1.1-0.1-1.9,0.4-2,1.8C141.1,18.6,142,19.5,143.2,19.5z"/>
			<path d="M143.4,187.9c-0.2,0.2-0.5,0.2-0.9,0.4c-1.4-1.1-2.9-2.2-4.3-3.4c-0.1-0.1,0.1-0.7,0.3-1c0.3-0.4,0.6-0.8,1-1.2
				c0.9-0.8,2.1-2.3,2.9-2.1c1.5,0.4,2.9,1.6,4.3,2.6c0.3,0.2,0.4,1.1,0.2,1.3C145.7,185.7,144.5,186.8,143.4,187.9z M139.2,184.4
				c2.7,3.3,4.5,3.1,6.9-0.5C143,180.5,141.4,180.9,139.2,184.4z"/>
			<path d="M144.4,173.9c-3.6,3.2-2.6,3.2-6.9,0c-0.7-0.5-1.2-1.2-2.3-2.2c1.7-1.3,3.2-2.6,4.8-3.7c0.4-0.3,1.3-0.2,1.7,0.1
				c1.4,0.8,2.7,1.8,3.9,2.7c0.9,0.6,1,1.4,0,2.1C145.2,173.2,144.8,173.6,144.4,173.9z M141,175.4c1.5-1.4,2.8-2.6,4.3-3.9
				c-1.4-0.9-2.8-1.9-4.3-2.9c-0.2-0.1-0.8,0-1,0.2c-1.1,0.9-2.2,2-3.5,3.1C138.1,173.2,139.6,174.4,141,175.4z"/>
			<path d="M151.1,167.3c-3.8,3.4-2.6,3.3-6.7,0.2c-2.2-1.6-2.1-1.8-0.1-3.5c0.8-0.7,1.5-1.4,2.1-1.9c1.6,1.1,3,2.1,4.5,2.9
				C152.1,165.7,152.2,166.3,151.1,167.3z M143.8,165.6c3.3,3.7,4.8,3.8,7,0.5c-1.4-0.9-2.8-1.9-4.4-2.9
				C145.6,163.9,144.7,164.7,143.8,165.6z"/>
			<path d="M143.1,161.2c-3.8,3.2-2.8,2.8-5.7-0.2c-0.6-0.7-1.3-1.2-2-1.9c1.5-1.3,2.6-2.4,3.8-3.3c0.3-0.2,0.9-0.2,1.2,0
				c1.1,1,2.3,2.1,3.2,3.3c0.3,0.3,0,1.2-0.1,1.8C143.4,160.9,143.2,161.1,143.1,161.2z M139.1,161.5c0.7,0.8,1.3,0.8,2.1,0.1
				c2.2-1.9,2.3-1.9,0.2-3.9c-0.2-0.2-0.5-0.6-0.8-0.7c-0.5-0.1-1.1-0.2-1.6,0c-0.8,0.4-1.5,1.1-2.4,1.8
				C137.6,159.9,138.4,160.7,139.1,161.5z"/>
			<path d="M146.8,157.7c-0.6,0.3-2.2-0.8-3-1.5c-0.8-0.8-2-2.5-1.8-2.9c0.9-1.4,2.4-2.5,3.7-3.7c0.2-0.2,0.8,0,1.1,0.2
				c1.2,1.1,2.4,2.2,3.6,3.3c-0.1,0.2-0.3,0.3-0.4,0.5c-0.7-0.6-1.4-1.3-2.1-1.9c-1.9-1.7-1.9-1.7-3.7,0c-0.6,0.6-1.2,1.2-2,2
				c1.2,1.1,2.3,2.1,3.5,2.9c0.4,0.3,1.4,0,1.9-0.3c1-0.7,1.8-1.6,2.7-2.5c0,0,0.1-0.1,0.1-0.1c0.2,0.2,0.4,0.4,0.5,0.6
				C149.6,155.5,148.3,156.9,146.8,157.7z"/>
			<path d="M153.6,150.8c-0.3,0.4-1.4,0.5-1.9,0.2c-1.1-0.7-2-1.7-3-2.5c-0.8-0.7-0.8-1.4,0-2c1.1-0.9,2.3-1.8,3.7-2.8
				c1.1,1.1,2.3,2.4,3.5,3.6c0,0,0.1,0.1,0.1,0.1C156.1,149.2,154.5,149.8,153.6,150.8z M152.4,150.6c1-1,1.8-1.9,2.7-2.8
				c-1.1-1.2-2.1-2.3-3.1-3.4c-1.1,1-2.1,1.9-3.4,3C150,148.6,151.2,149.6,152.4,150.6z"/>
			<path d="M140.4,151.3c-0.2,0.2-1-0.1-1.3-0.5c-1.1-1.2-2.1-2.6-3.2-4.1c1.4-1.3,2.8-2.5,4.2-3.7c0.1,0.1,0.2,0.2,0.4,0.4
				c-1.1,1.1-2.2,2.2-3.7,3.7c1,1.2,2.1,2.4,3.3,3.7c1.3-1.2,2.4-2.1,3.5-3.1c0.1,0.1,0.3,0.3,0.4,0.4
				C142.7,149.2,141.6,150.3,140.4,151.3z"/>
			<path d="M144.5,147c-0.2,0.2-0.3,0.3-0.5,0.5c-1.2-1.3-2.4-2.5-3.5-3.8c0.2-0.2,0.4-0.3,0.5-0.5
				C142.2,144.4,143.3,145.7,144.5,147z"/>
			<path d="M170.5,101.9c0,0,0,0.1-0.1,0.1c-1-0.9-2.1-1.8-2.9-2.8c-3.7-5.2-7.3-10.5-11-15.8c-0.5-0.8-1.1-1.5-1.6-2.3
				c0.2-0.1,0.4-0.2,0.5-0.4C160.5,87.7,165.5,94.8,170.5,101.9z"/>
			<path d="M129.8,106.6c-1.1-0.3-1.1-0.3-3-3.3c-0.9-1.4-1.8-2.7-2.7-4.1c0.1-0.1,0.2-0.2,0.3-0.3
				C126.2,101.6,128,104.2,129.8,106.6z"/>
			<path d="M177.9,90.7c-1.9-7-6.7-10.9-12.2-14.2C170.9,77.6,178.4,85,177.9,90.7z"/>
			<path d="M132.2,93.7c-2,0.2-3.6-0.5-4.9-1.8c-3.4-3.1-6.1-6.6-8.3-10.6c-0.6-1.1-0.8-2.3-1-3.5C121.3,84.4,125,90.5,132.2,93.7z"
				/>
			<path d="M142.3,83.2c-0.1,0.2-0.3,0.3-0.4,0.5c-3.8-2.7-7.7-5.2-11.2-8c-2.2-1.8-3.7-4.2-3.8-7.2c0-0.9,0.1-1.7,0.5-2.6
				c-0.3,3.9,1.5,6.9,4.2,9.3c1.9,1.7,4.2,3,6.3,4.5C139.3,80.7,140.8,82,142.3,83.2z"/>
			<path d="M156.8,48.6c-0.2,0.1-0.3,0.3-0.5,0.4c-1.7-1.7-3.3-3.5-5-5.2c0.1-0.1,0.2-0.2,0.3-0.3C153.3,45.3,155.1,47,156.8,48.6z"
				/>
			<path d="M151.6,43.6c-0.1,0.1-0.2,0.2-0.3,0.3c-2.9-2.7-3.1-6.7-1.2-9.4C148.5,37.9,149.5,40.9,151.6,43.6z"/>
			<path d="M158.5,28.1c0.1,3.1,0.5,6.1,2,9c-1.8-1.6-2.5-3.7-2.6-6c-0.1-2.4,0.2-4.7-0.2-7c-0.5-2.8-1.6-5.5-2.4-8.4
				c0.8,1.5,1.9,2.8,2.2,4.3C158.1,22.6,158.5,25.4,158.5,28.1z"/>
		</g>
		<g>
		</g>
	</g>
</g>
</svg>
