<?xml version="1.0" encoding="utf-8"?>
<!-- Generator: Adobe Illustrator 17.1.0, SVG Export Plug-In . SVG Version: 6.00 Build 0)  -->
<!DOCTYPE svg PUBLIC "-//W3C//DTD SVG 1.1//EN" "http://www.w3.org/Graphics/SVG/1.1/DTD/svg11.dtd">
<svg version="1.1" id="Layer_1" xmlns="http://www.w3.org/2000/svg" xmlns:xlink="http://www.w3.org/1999/xlink" x="0px" y="0px"
	 viewBox="0 0 288 216" enable-background="new 0 0 288 216" xml:space="preserve">
<g>
	<path d="M194.4,139.6c4-1,7.6-1.8,11.2-2.6c0.9-0.2,2.2-0.8,2.5,0.7c0.3,1.4-0.5,2-1.9,2.4c-2.9,0.7-5.7,1.6-8.5,2.4
		c-0.6,0.2-1.1,0.6-1.7,0.8c0.1,0.2,0.1,0.3,0.2,0.5c2-0.8,4-1.7,6.1-2.2c10.8-2.5,20.2-0.5,27.5,8.5c4,5,6.8,10.5,7.8,16.8
		c0.8,5-1.2,9.7-2.2,14.5c-2.9,12.9-22.4,21.3-35,15.7c-7.5-3.3-13.3-8-17.4-15.1c-2.1,1-3.1,0.1-3.6-1.9c-3.8-13.6-2-26.6,9.8-36.9
		c1.5-1.3,1.5-2.3,0.2-3.8c-0.6-0.7-0.8-1.6-1.3-2.6c-3.2,4.3-6.5,8.9-9.9,13.4c-3.8,5-7.6,9.9-11.5,14.8c-2.1,2.6-4.7,4.4-8.1,4.7
		c-0.3,0-0.6,0.3-0.9,0.4c-0.6,7.3-3.6,11.1-9.6,12.4c0,3-1.3,4.8-3.4,4.7c-2.1-0.1-3.1-1.7-3-5c-0.8-0.2-1.6-0.4-2.7-0.7
		c-0.8,1.9-1.5,3.8-2.4,5.6c-8.4,15.9-27.2,23.1-43.3,14.2c-9.9-5.4-16-16.6-14.7-28c0.3-2.5,0.7-5,1.3-7.5c0.6-2.4,1.6-4.8,2.2-7.3
		c-1.6,2.7-3.3,5.4-5.1,8.5c-1.2-2.3-0.8-4.1,0.3-5.8c4.6-7.1,10.2-13.2,17.8-17.4c0.2-0.1,0.2-0.3,0.5-0.7
		c-2.3,0.2-4.4,0.4-6.4,0.7c-0.5,0.1-0.9,0.7-1.2,1.2c-3.2,4.4-6.3,9-10.9,12.3c-4,2.9-8.4,3.2-12.1,0.6c-0.8-0.6-1.3-1.8-1.9-2.7
		c0.9-0.6,1.8-1.1,2.7-1.7c0.4-0.3,1-0.5,1.2-0.8c0.6-1.6,1-3.3,1.5-4.9c-1.8,0-3.6,0-5.3,0c-5.4,0-10.9-2.5-12.7-8
		c-0.6-1.8-0.5-4.1,0-6c0.3-1.1,1.9-2.1,3.1-2.4c0.9-0.2,2.8,0.4,3.2,1.2c1.1,2.3,2.5,1.5,4.1,0.7c-0.7-0.6-1.5-1-2-1.6
		c-1.6-1.8-1.2-4.5,0.7-6c0.5-0.4,1.1-0.7,1.4-1.2c1.6-3,3.1-6,4.8-9.4c-5.2,0.5-7.2-3.3-9.5-6.7c-1.1-1.7-1.1-3.3-0.3-5.3
		c1.4-3.3,2.4-6.8,3.6-10.2c2.7-7.4,6.7-13.5,15-15.4c6.8-1.6,11.6,1.7,15.7,6.6c0.9,1.1,1.7,2.2,2.9,3.7c-0.3-2.5-0.6-4.5-0.8-6.5
		c-0.8-8.9,0.3-17.7,2.6-26.3c1.1-4.2,2.1-8.5,3.7-12.5c1-2.5,3-4.5,4.6-6.8c0.6-0.9,1.4-1.7,1.9-2.7c5.3-9.6,13.7-15.3,23.8-18.7
		c2.4-0.8,5-0.9,7.5-1.2c6.4-0.9,12.8-1.7,19.1-2.6c7.1-1,14.1-1.4,20.7,2.4c0.9-3.9,2.8-6.7,7-6.9c2.4-0.2,5,1.9,6,4.6
		c1.4,3.8,0.6,6.8-2.9,9.9c1.7,3.1,3.3,6.2,5.1,9.3c1.9,3.2,2.9,6.6,3.2,10.3c0.3,3.8,1.1,7.7,1.7,11.5c0.5,3.2-0.5,5.8-3,7.8
		c-4.4,3.5-9.2,4.9-14.8,3c-0.9-0.3-2.1-0.3-3-0.1c-2.2,0.6-4.4,1.4-6.8,2.2c1.2,4.4,2,9.1,3.7,13.4c1.6,4.1,4.1,7.7,9.3,8.3
		c4.5,0.6,5.7,3.1,4.8,7.6c-0.6,2.7-1.8,4.9-3.7,6.7c-0.9,0.8-1.2,1.6-0.7,2.9c0.8,2.2,1.4,4.4,2.2,6.6c0.2,0.6,0.9,1,1.7,1.8
		c0.1-3.2,0.2-5.7,0.4-8.2c0-0.5,0-1,0.2-1.4c0.6-1.7,0.8-3.3,0.3-5.2c-0.8-2.9,1.1-4.4,4-3.6c0.3,0.1,0.9,0.2,1.1,0
		c4-3.4,8.7-2.3,13.2-2c1.1,0.1,2.2,0,3.3-0.3c2.2-0.6,4.9,1,4.7,3.5c-0.2,2.1,0.7,3.5,2.4,5.2c0.1-0.9,0.4-1.7,0.2-2.2
		c-0.9-2.6-0.8-4.1,0.7-5c1.5-0.9,3.9-0.4,5.5,1.1c0.4,0.4,0.8,0.9,1.2,1.4c3.5-1.3,5.3,0,4.8,3.8c-0.3,2.5-1.2,4.9-2,7.7
		c1.1,1.1,1.2,2.5-1.1,3.5c-0.4,0.2-0.5,1-0.6,1.6c-0.6,5.7-1.1,11.5-1.6,17.2c-0.3,3-0.8,3.9-3.9,4.4c-6.4,1-12.9,1.9-19.3,2.6
		c-3.3,0.4-5.3-1.5-6.4-4.6c-1.7-4.9-3.4-9.8-5.2-14.7c-0.2-0.6-0.6-1.1-1-1.7c-0.2,0.1-0.4,0.2-0.6,0.3c1.3,4.2,2.6,8.5,3.8,12.7
		C191.1,131.8,193.7,135.4,194.4,139.6z M206.1,126.2c-0.2-0.8-0.4-1.5-0.6-2.3c0.8,0.1,1.7,0.2,2.7,0.4c-0.3-1.3-0.5-2.2-0.7-3.1
		c-0.8,0.1-1.5,0.2-2,0.2c0,1,0,1.8,0,2.5c-0.3-0.7-0.5-1.3-0.8-2.1c-0.8,0.6-1.3,1-1.9,1.4c1,1.5,1.9,2.9,3,4.6
		C205.9,127,206,126.6,206.1,126.2c0.5,0.9,1.2,1.6,2.5,0.8c-0.2-0.8-0.4-1.6-0.6-2.3c-0.2-0.1-0.4-0.2-0.6-0.3
		C207,125,206.5,125.6,206.1,126.2z M209.5,127.7c1.3-0.7,3.4-1,1.8-3.5c-0.9,0.2-1.8,0.4-2.9,0.6
		C208.9,125.9,209.2,126.8,209.5,127.7c0.2,1.2,0.5,2.3,0.7,3.7c0.9-0.2,1.7-0.5,2.5-0.7c-0.3-1.2-0.5-2.2-0.7-3.2
		C211.1,127.5,210.3,127.6,209.5,127.7z M200.1,109.9c1.1-0.1,2.2-0.3,3.3-0.3c4,0,7.4-1.1,8.6-5.6c0.2-0.6,0.8-1.1,1.2-1.7
		c1.2-1.6,0.2-3.8-1.7-4.6c-1.2-0.5-2.7-1.3-3.3-2.4c-1-1.8-2.4-2.3-4.2-2.4c-1.4-0.1-2.9-0.2-4.3-0.4c-3-0.6-5.4,0.7-7.4,2.6
		c-1.3,1.2-2.2,2.8-3.1,4.3c-2,3.7-1.9,7.5-1.2,11.8C192.2,110.7,196.2,110.2,200.1,109.9L200.1,109.9z M194,50.8
		c-0.4-2.5-1.2-4.9-1.1-7.3c0.4-8.6-3.6-15.5-8.3-21.8c-6.6-8.7-16-11.3-26.6-9.9c-4.8,0.6-9.5,1.7-14.2,2.2
		c-8.1,0.8-16.1,1.4-23.3,5.8c-5.6,3.5-10.4,7.7-13.7,13.8c0.5,0,0.7-0.1,1-0.1c9.6-1.6,17.4,1.3,23.5,8.9c5.4,6.7,7.9,14,6.1,22.6
		c-1.3,6.2,1,11.1,6.1,14.8c3.8,2.7,7.5,5.6,11.4,8.2c2.4,1.6,4.8,3.3,7.9,3.2c3.2-0.2,6,0.5,7.9,3.4c0.7-0.5,1.3-1,1.8-1.4
		c0.6-0.4,1.1-0.8,1.7-1.2c2.1-1.5,2.3-1.7,0.6-3.8c-2-2.4-4.1-4.7-6.3-7.1c-5.2-5.7-9.1-12.2-10.8-19.8c-0.2-0.9-0.9-1.7-1.6-2.3
		c-1.9-1.7-4-3.3-5.8-5.1c-0.6-0.6-0.7-1.7-1-2.6c0.2-0.1,0.3-0.2,0.5-0.3c3.3,4.3,7.3,7.6,12.6,9.2c3.9,1.2,7.7,2.6,11.8,0.6
		c1.8-0.9,3.4-1,5.3-0.3c4.7,1.6,9,0.7,12.5-2.4c-1.5-1.5-3-2.9-4.2-4.5c-0.4-0.5-0.1-1.5,0.2-2.2c0.1-0.2,1.1-0.4,1.4-0.2
		C190.8,52.7,192.4,51.9,194,50.8z M95.7,58.5c-0.1,0.6-0.2,1.2-0.3,1.8c-0.1,0.6-0.2,1.2-0.4,1.8c-1.8,8.7-1.9,17.4,0.1,26.1
		c2.2,9.8,5.2,19.1,11.7,27.1c5.2,6.4,12.1,8,19.9,8.1c-2.9-7.8-4.7-15.2,2.9-21.3C110.4,93.7,98.9,79.4,95.7,58.5z M97.4,102.8
		c-2.2-8.2-4.2-12.1-9.3-18.1c-3.5-4.1-7.6-6.7-13.3-5.6c-7.4,1.5-11.5,6.8-13.6,13.5c-1.3,3.9-2.1,7.9-4.2,11.5
		c-0.2,0.4-0.2,1.2,0,1.5c0.3,0.3,1,0.4,1.5,0.4c0.5,0,1-0.5,1.4-0.4c0.7,0.2,1.4,0.5,1.8,1c0.2,0.3,0.1,1.2-0.2,1.6
		c-0.6,0.8-1.3,1.5-2,2.2c2.6,4,5.9,4.1,8.8,0.4c1.4-1.8,2.7-3.6,4.4-5.1c1.3-1.1,2.9-2,4.6-2.4c2.6-0.7,5.4-0.8,8.1-1.3
		C89.4,101,93.3,100.9,97.4,102.8z M154.2,150.1c2.1,2.4,2.2,3.3-0.4,5.5c-1.7,1.4-3.8,2.2-6,3.5c0.7,0.2,1.3,0.5,1.9,0.6
		c1.2,0.1,2.5,0,3.7,0c3.7-0.1,6.6-1.4,8.7-4.8c5.5-8.9,11.2-17.7,16.8-26.6c1.4-2.2,2.8-4.4,3.9-6.7c0.3-0.7,0.1-2.1-0.4-2.6
		c-1.8-1.8-2.1-4-2.3-6.2c-0.2-2.2-0.5-4.7-1.5-6c-1.9,3.3-4,6.7-6,10.1c-0.6,0.9-1.6,1.8-1.8,2.7c-1,6.3-3.6,11.9-7.2,17
		C160.6,141.1,157.4,145.6,154.2,150.1z M103.6,115c-2.7,4.9-7.1,6.8-11.8,6.9c-3.6,0.1-5.6,2.3-8.3,3.8c2.1,2.2,4,4.2,4.1,7.3
		c0.1,3.1-1.1,5.5-3.3,7.7c3.9-0.1,7.7-0.2,11.4-0.9c3.9-0.8,7.2-2.9,8-7.2C104.8,126.8,105.1,121.1,103.6,115z M106.1,117
		c0,7.7,1.5,15.5-4.4,22c6-0.5,11.9-1.1,17.7-1.6c1.1-0.1,2.5-0.2,2.4,1.3c0,0.7-1.3,1.6-2.2,1.8c-1.6,0.4-3.3,0.4-5,0.6
		c0.6,0.5,1.2,0.7,1.8,0.9c5.2,1.5,5.2,1.5,8.2-3c1-1.5,0.3-2.5-0.4-3.7c-0.4-0.7-0.7-1.5-1.2-2.4c-6.2-0.5-9.3-5.3-6.4-9.1
		C112.4,122.7,108.9,120.4,106.1,117z M184.7,125c-2.8,4.4-5.6,8.5-8.2,12.7c-4.2,6.6-8.3,13.4-12.7,19.9c-1.2,1.8-3.3,3-5.1,4.2
		c-1.2,0.8-2.7,1.1-4.1,1.6c2.5,3.9,4.5,3.4,7.7,1.5c2-1.2,3.8-3,5.2-4.9c6.4-8.9,12.6-17.8,18.7-26.8c0.4-0.6,0.6-1.7,0.5-2.5
		C186.2,128.8,185.4,127,184.7,125z M83.2,178.3c6.3-1.9,12.4-3.7,18.6-5.5c0.1-0.3,0.2-0.6,0.3-1c-5.5-2.8-11.1-5.2-16.7-8.3
		C83.7,168.4,82.4,173,83.2,178.3z M122.5,196.8c-4.6-6.8-8.8-13.2-13.5-20.2c-0.6,2-1.7,3.7-1.3,5c1.8,5.8,4.1,11.4,6.3,17.1
		c0.2,0.4,1.1,0.9,1.5,0.8C117.7,198.7,120,197.8,122.5,196.8z M110.9,177.3c-0.1,0.2-0.3,0.4-0.4,0.6c4.2,6.1,8.4,12.2,12.7,18.7
		c2.5-2.3,4.8-4.5,7.4-6.8c-6-4.1-11.6-8-17.2-11.7C112.7,177.5,111.7,177.5,110.9,177.3z M165.8,105.3c2.3,3.1,4.9,6.2,5.3,10.4
		c5.3-4.6,7.1-13.6,5.6-21.2c-1.8,1.9-5,2-5,5.6c0,0.8-0.9,1.7-1.6,2.3C168.9,103.5,167.4,104.3,165.8,105.3z M232.8,178.6
		c-6.8-2.6-13.2-5.1-19.7-7.5c-0.8,1.2-1.2,2.1,0,3c5.2,3.8,10.4,7.6,15.8,11.5C230.3,183.1,231.5,180.9,232.8,178.6z M115.1,148.3
		c-3.3-0.1-6.2-0.3-9.2-0.2c-0.4,0-1.1,0.8-1.1,1.2c0.3,5,0.7,9.9,1.2,15.4c1.3-0.8,2.8-1.2,3.2-2
		C111.3,158.2,113,153.5,115.1,148.3z M89.5,192.5c4.4-3.7,8.7-7.5,13.1-11.1c1.4-1.2,2.1-2.5,2-4.2c0-0.6-0.3-1.4-0.7-1.7
		c-0.4-0.2-1.3-0.1-1.7,0.3c-4.3,3.4-8.6,6.8-12.8,10.3C86.3,188.8,86.3,189.1,89.5,192.5z M207.8,171.5c-0.8,1.3-2,2.7-2.5,4.2
		c-0.7,2.3-0.8,4.8-1.2,7.3c-0.6,3.6-1.1,7.1-1.8,11.4c1.5-0.3,3.3-0.3,3.5-0.8c1.8-5.9,3.4-11.8,4.9-17.8
		C211.1,174.1,210.7,172.1,207.8,171.5z M101.7,170.9c0-1.6,0.5-3.2-0.1-3.8c-3.7-3.8-7.7-7.3-12-11.3c-1.5,2.5-2.8,4.7-4.2,7
		C90.9,165.6,96.1,168.1,101.7,170.9z M185.4,173.9c6.5-1.3,12.9-2.5,19.3-3.8c1.4-0.3,1.4-1.1,0.5-1.8c-0.8-0.6-1.9-1.1-2.9-1.2
		c-1.7-0.2-3.4,0-5.1,0c-3.9,0-7.8,0-11.8,0C185.4,169.4,185.4,171.5,185.4,173.9z M104.9,200.9c3.1-0.3,5.8-0.5,8.7-0.8
		c-2.3-6.3-4.5-12.3-6.8-18.7c-0.7,1.8-1.7,3.1-1.8,4.5C104.7,190.7,104.9,195.6,104.9,200.9z M187.7,182.2c6-3.4,11.5-6.5,17-9.7
		c0.4-0.2,0.6-1,1-1.8c-7.1,1.4-13.7,2.6-20.8,4C185.9,177.3,186.6,179.4,187.7,182.2z M230.4,157.1c-5.9,4.2-11.3,8-16.8,11.8
		c0.1,0.2,0.2,0.4,0.3,0.6c6.6-0.4,12.6-3.1,19.4-4.6C232.4,162.3,231.5,159.9,230.4,157.1z M213.7,168.1
		c5.5-3.9,10.8-7.6,16.2-11.5c-1.5-1.8-2.8-3.3-4.1-4.9c-3.6,3.4-6.7,6.8-10.3,9.7C213.2,163.3,213.2,165.3,213.7,168.1z M204.7,176
		c-0.1,0-0.3-0.1-0.4-0.1c-3.7,4.1-7.5,8.2-11.6,12.6c3.1,1.9,6,3.5,9,5.3C202.8,187.5,203.7,181.8,204.7,176z M126.8,132.3
		c2.4,6.1,4.7,11.8,7,17.6c-0.5-7.3,0.8-14.1,4-21.4C133.9,129.9,130.5,131.1,126.8,132.3z M131,189.1c1.3-2.9,2.5-5.5,3.7-8.3
		c-6.8-0.9-13.1-1.8-19.4-2.7c0,0.1,0,0.2,0,0.4C120.4,181.9,125.5,185.4,131,189.1z M197.4,147.9c2.5,6.1,5.8,11.6,11.1,16.3
		c-1.1-4.8-2.1-9.1-3.1-13.5c-1.5-6.4-2.1-6.6-7.7-3.1C197.6,147.6,197.6,147.7,197.4,147.9z M204.7,144.9c1.4,6.3,2.8,12.1,4.1,18
		c1.5-2,3.3-4,3.4-6.1c0.2-3.9-0.5-7.9-0.8-11.9C209.3,144.9,207.2,144.9,204.7,144.9z M139.1,127c-2.9-0.4-5.3-0.7-7.6-1.1
		c-0.9-0.2-1.6-0.8-2.5-0.9c-3.1-0.2-6.1-0.4-9.2-0.4c-0.8,0-1.7,0.8-2.5,1.2c0.6,0.6,1.1,1.6,1.8,1.8c1.9,0.5,4,0.6,6,0.9
		c-3,0.6-5.8,0.5-8.6-1.5c1.2,3.1,3.8,4.9,7,4.2C128.6,130.2,133.6,128.5,139.1,127z M85.3,186c5.9-4.4,12.3-7.1,17.4-11.8
		c-0.1-0.3-0.2-0.5-0.4-0.8c-6.3,1.8-12.6,3.6-19.1,5.5C83.9,181.3,84.5,183.5,85.3,186z M166.3,99.2c0.2,0.2,0.4,0.5,0.6,0.7
		c2.2-1.5,4.3-3,6.6-4.4c2.3-1.4,4.6-2.7,7-3.8c0.6-0.3,2.1,0.1,2.5,0.7c0.4,0.5,0.1,1.8-0.3,2.5c-0.7,1.1-1.9,1.8-2.7,2.8
		c-0.5,0.6-1.1,1.5-1,2.2c0.7,3.5,1.6,6.9,2.4,10.3c0.4,1.4,1.2,1.5,2.5,0.8c-0.9-2.6-1.6-5.3-2.7-7.8c-0.8-1.8-0.3-2.7,0.9-4
		c1.2-1.2,2.3-2.7,2.8-4.2c0.4-1.3,0.4-3.1-0.3-4.2c-0.9-1.5-2.9-1.6-4.5-0.9c-2.2,0.9-4.3,2-6.3,3.4
		C171.2,95.1,168.8,97.2,166.3,99.2z M91.4,194.6c2.1,1.4,3.8,2.6,5.6,3.9c2.4-4.5,4.8-8.6,6.9-12.9c0.6-1.2,0.3-2.8,0.4-4.2
		c-0.2,0-0.4-0.1-0.5-0.1C99.7,185.6,95.6,190,91.4,194.6z M214.9,194.6c2.5-1.1,4.7-2.1,6.9-3.1c-3.4-5.8-6.6-11.4-9.8-16.9
		c-0.2,0-0.4,0.1-0.6,0.1C212.5,181.2,213.6,187.7,214.9,194.6z M228.6,186.1c-5.3-3.9-10.3-7.5-15.3-11.1c-0.1,0.1-0.3,0.2-0.4,0.3
		c3.1,5.2,6.2,10.5,9.5,16C224.5,189.5,226.4,187.9,228.6,186.1z M103.2,167.5c0.2-1.3,0.7-2.3,0.4-2.9c-2.4-4.6-5.1-9-7.8-13.8
		c-2,1.7-3.8,3.2-5.6,4.7C94.6,159.5,98.6,163.2,103.2,167.5z M213.5,162.6c4.1-3.9,7.9-7.5,11.8-11.3c-1.6-1.2-2.9-2.1-4.1-3.1
		c-1.2-1-1.9-0.5-2.6,0.6c-1.2,1.9-2.2,3.9-3.6,5.7C213.1,156.7,212.9,159.2,213.5,162.6z M121,151.3c-1.8-0.9-3.4-1.6-5.2-2.5
		c-2,4.9-3.9,9.6-6,14.5c1.6-0.2,2.9-0.4,4.1-0.6c0.6-0.1,1.5-0.4,1.7-0.8C117.5,158.4,119.2,155,121,151.3z M192.4,188
		c4.5-4.9,8.6-9.6,12.8-14.2c-0.1-0.1-0.3-0.2-0.4-0.4c-5.5,3-10.9,6-16.7,9.2C189.5,184.3,190.8,186,192.4,188z M104.7,164.9
		c0.2,0,0.4-0.1,0.6-0.1c-0.4-5.4-0.9-10.8-1.4-16.7c-2.5,0.7-4.9,1.4-7.5,2.2C99.3,155.5,102,160.2,104.7,164.9z M186.9,159.7
		c5.6,2.3,10.8,4.5,16.1,6.6c0.2-0.2,0.3-0.4,0.5-0.7c-4.2-4-8.5-8-12.9-12.1C189.3,155.6,188.2,157.4,186.9,159.7z M214.2,194.6
		c-1-5.6-2-10.9-3-16.1c-0.1,0-0.2,0-0.3,0.1c-1.5,5.3-2.9,10.5-4.5,16C209,194.6,211.5,194.6,214.2,194.6z M214.9,170.4
		c0,0.2-0.1,0.4-0.1,0.6c6,2.2,11.9,4.5,18.1,6.8c0.4-2.1,0.7-3.9,1-6.1C227.4,171.3,221.1,170.9,214.9,170.4z M181.1,113.1
		c0.1,0.2,0.2,0.5,0.3,0.7c1.2,0,2.3,0.1,3.5,0c7.4-0.8,14.8-1.7,22.2-2.6c5.4-0.7,10.8-1.5,16.3-2.3c0.7-0.1,1.4-0.7,2.1-1
		c-0.7-0.4-1.1-0.4-1.6-0.4c-8.8,1.2-17.6,2.5-26.4,3.6c-4.6,0.6-9.3,0.7-13.9,1.2C182.8,112.3,182,112.8,181.1,113.1z M121.7,151.7
		c-1.8,3.7-3.5,7.1-5.4,11c2.2-0.4,4.3-0.1,5.4-1c2-1.7,3.3-4,5-6.2C124.9,154.1,123.4,153,121.7,151.7z M200.5,166.4
		c0-0.1,0-0.2,0-0.3c-4.5-1.9-9-3.8-13.8-5.8c-0.5,2.1-0.9,4-1.4,6.2C190.6,166.4,195.5,166.4,200.5,166.4z M104.2,200.9
		c0-4.8,0-9.1,0-13.4c-0.2,0-0.3-0.1-0.5-0.1c-2,3.7-4,7.5-6.2,11.5C99.9,199.6,101.9,200.2,104.2,200.9z M120.6,139.4
		c0-0.3-0.1-0.5-0.1-0.8c-0.4,0-0.8,0-1.2,0c-7.6,0.7-15.3,1.5-22.9,2.2c-3.5,0.3-7,0.5-10.4,0.8c-0.5,0.1-1,0.6-1.5,0.9
		c0.5,0.2,1,0.6,1.5,0.6c1.8,0,3.6-0.1,5.3-0.3c7.4-0.7,14.6-2.9,22.2-2.5C115.8,140.5,118.2,139.7,120.6,139.4z M218.1,169.8
		c0,0.1,0,0.2,0,0.3c5.2,0.3,10.4,0.6,15.8,0.9c-0.2-1.8-0.4-3.5-0.6-5.3C228,167.1,223.1,168.5,218.1,169.8z M219,146.8
		c-2.3-0.8-4.3-1.4-6.8-2.2c0.3,4,0.6,7.5,0.9,11c0.1,0,0.3,0,0.4,0C215.3,152.8,217,150,219,146.8z M145.5,170.1
		c-0.1-1.7-0.1-3.8-0.3-5.8c-0.1-1.4-0.2-2.7,1.7-3.1c0.3-0.1,0.8-1,0.6-1.4c-0.1-0.4-0.9-0.7-1.4-0.7c-1.1-0.1-2.3,0-3.5,0.1
		c-0.5,0.1-0.9,0.4-1.3,0.6c0.3,0.4,0.5,0.9,0.8,1.3c0.4,0.5,1.3,0.9,1.3,1.4c0.3,3.1,1.5,6.1,0.3,9.3c-0.2,0.6,0.3,1.7,0.8,2.3
		c0.2,0.3,1.3,0.5,1.6,0.2c0.6-0.5,1.2-1.4,1.1-2C147.1,171.7,146.3,171.1,145.5,170.1z M132.3,161.6c-1.9-2.2-3.3-3.9-4.9-5.8
		c-1.7,2.2-3.2,4-5,6.3C125.8,162,128.7,161.8,132.3,161.6z M193.5,149.9c-0.9,1-1.7,1.9-2.7,3c2.3,2.1,4.5,4.1,6.7,6
		c0.1-0.1,0.2-0.2,0.3-0.3C196.5,155.9,195.1,153.1,193.5,149.9z M182.4,160.1c2.1-5.4,5.4-10.1,9.6-14c0.2-0.2,0-0.7,0-1.5
		C186.6,148.7,183.8,154,182.4,160.1z M209.6,165.7c3-1.7,3.6-3.5,2.4-7C211.4,161.2,209.3,162.9,209.6,165.7z M124.4,145.2
		c1.6,1,3.1,1.9,5.1,3.2c-1.1-2.4-2-4.2-2.9-6.2C125.7,143.3,125.1,144.1,124.4,145.2z M142.7,177.4c4.2,1.6,8.8-0.5,9.2-4.2
		C149.8,177.1,146,176.7,142.7,177.4z M182.8,92.7c-4-0.5-4.7,0.4-3.6,4.5C180.5,95.6,181.5,94.3,182.8,92.7z M86.5,187.8
		c2.7-2.3,5.2-4.4,7.7-6.5c-0.1-0.1-0.1-0.2-0.2-0.3c-2.8,1.8-5.6,3.6-8.4,5.4C85.9,187,86.1,187.3,86.5,187.8z M90.1,192.9
		c0,0.2,0,0.4,0,0.6c0.5,0,1.2,0.3,1.4,0.1c2.1-2.2,4.2-4.4,6.2-6.6c-2.3,1.5-4.3,3.2-6.3,4.9C90.9,192.2,90.5,192.5,90.1,192.9z
		 M211.4,123.6c-0.2-1.7-1.2-2.4-2.6-2.7c-0.2,1-0.3,2-0.5,3.2C209.6,123.9,210.5,123.8,211.4,123.6z M215.2,129.8
		c1.9-0.6,2.3-1.8,1.8-3.7c-0.7,0.2-1.4,0.4-2,0.6C215,127.8,215.1,128.7,215.2,129.8z M216.9,123c-0.8,0.2-1.5,0.4-2.3,0.6
		c0.1,0.8,0.1,1.6,0.2,2.2C217.1,126.1,217.6,125.1,216.9,123z M203.6,112.7c0.2,2.9,0.7,3.3,2.3,2.7c-0.1-1.1-0.1-2-0.2-3
		C204.9,112.5,204.3,112.6,203.6,112.7z M214.7,127c-3.2,0.1-1.5,1.7-1.6,2.6c0,0.3,0.6,0.6,0.9,1
		C214.2,129.4,214.5,128.3,214.7,127z M214.4,123.9c-1.9-0.3-2.4,0.3-2.1,1.5c0.1,0.4,0.7,0.7,1.1,1.1
		C213.7,125.7,214,124.9,214.4,123.9z M219.9,124.5c0.2,0.1,0.3,0.2,0.5,0.3c0.5-0.9,1-1.8,1.7-3
		C219.1,121.6,219.8,123.2,219.9,124.5z M217.7,125.4c2.2-0.3,1.4-1.7,1.5-2.9C217,122.6,217.7,124,217.7,125.4z M210.7,166.3
		c0.7,0.7,1.2,1.3,1.8,2c0-1.5,0-2.6,0-4.1C211.8,165.1,211.4,165.6,210.7,166.3z"/>
	<path d="M152.3,24.1c0-3.8,1.7-6.8,4.2-9.2c3.8-3.6,8.5-2.4,10.4,2.7c1,2.5,0.8,5.1-0.5,7.6c-0.7,1.4-1.9,2.2-3.4,1.3
		c-1.5-0.8-2.2,0.1-2.8,1.1c-1.1,1.8-1.8,3.8-4.6,2.8c-2.2-0.8-3.4-2.8-3.3-5.8C152.3,24.3,152.3,24.1,152.3,24.1z"/>
	<path d="M171.9,45.1c0.1-4.5,1.6-7.9,5-10.3c3.5-2.5,7.9-1.3,9.1,2.4c0.6,1.9-0.4,4-2.3,4.3c-2,0.3-2.6,1.5-2.9,3.2
		c-0.2,1.1-0.3,2.2-0.6,3.2c-0.5,1.7-1.4,3.2-3.5,3.3c-2,0.1-3.8-1.3-4.4-3.4C172,46.8,172,45.7,171.9,45.1z"/>
	<path d="M79.7,80.5c6,0.3,7,5.1,5.8,8.9c-0.8,2.6-4.3,3.3-6.2,1.2c-1.5-1.6-2.8-3.5-3.8-5.5C74.2,82.6,76.4,80.3,79.7,80.5z"/>
	<path d="M71.6,102.6c-0.1,0.4-0.1,1.5-0.7,2.1c-0.7,0.8-1.8,1.6-2.8,1.6c-0.8,0-1.8-1-2.4-1.8c-1-1.3-1.7-2.8-2.7-4.1
		c-0.9-1.1-1.3-2.3-0.5-3.6c0.8-1.3,1.9-2.3,3.7-2.1C69.4,95.3,71.6,98.2,71.6,102.6z"/>
	<path d="M205.1,99c3.3,0.1,5.8,2.3,5.6,4.7c-0.1,0.9-0.8,2.1-1.6,2.6c-0.5,0.3-1.8,0-2.5-0.5c-1.4-0.9-2.7-2-4-3
		c-1.1-0.9-0.9-2.7,0.4-3.2C203.8,99.2,204.7,99.1,205.1,99z"/>
	<path d="M194.5,100.6c0.2,0.1,0.9,0.3,1,0.6c0.2,0.8,0.3,1.9-0.1,2.5c-1,1.3-1.8,2.6-1.9,4.4c0,0.6-1,1.4-1.6,1.5
		c-0.6,0.1-1.6-0.5-1.9-1.1C188.4,106,191.4,100.7,194.5,100.6z"/>
	<path d="M200.1,109.8c-0.7-0.1-1.4-0.2-2-0.4c-0.5-0.2-0.8-0.8-1.2-1.1c0.5-0.3,0.9-0.8,1.4-0.9c0.9-0.3,1.9-0.5,2.8-0.6
		c0.4-0.1,1.1,0.1,1.2,0.3c0.2,0.4,0.2,1.2-0.1,1.4C201.7,109,200.8,109.4,200.1,109.8C200.1,109.9,200.1,109.8,200.1,109.8z"/>
</g>
</svg>
