<?xml version="1.0" encoding="utf-8"?>
<!-- Generator: Adobe Illustrator 17.1.0, SVG Export Plug-In . SVG Version: 6.00 Build 0)  -->
<!DOCTYPE svg PUBLIC "-//W3C//DTD SVG 1.1//EN" "http://www.w3.org/Graphics/SVG/1.1/DTD/svg11.dtd">
<svg version="1.1" id="Layer_1" xmlns="http://www.w3.org/2000/svg" xmlns:xlink="http://www.w3.org/1999/xlink" x="0px" y="0px"
	 viewBox="0 0 288 216" enable-background="new 0 0 288 216" xml:space="preserve">
<g>
	<path d="M29.9,146.7c1.1-1.3,2.3-2.6,3.4-3.9c0.1,0.1,0.3,0.2,0.4,0.3c-0.3,0.6-0.6,1.2-1,2c2-0.8,4-0.8,6-0.6c0,0.1,0,0.3,0.1,0.4
		c-0.7,0.1-1.3,0.2-2,0.3c-0.6,0.1-1.2,0.1-1.7,0.3c-0.2,0.1-0.3,0.4-0.5,0.6c-0.1,0.1-0.2,0.3-0.2,0.3c-0.9,0-1.8,0-2.9,0
		c-0.1,0.1-0.3,0.5-0.5,0.9c1.6-0.2,3.1-0.4,4.6-0.6c0,0.1,0.1,0.2,0.1,0.4c-1.4,0.5-2.8,0.9-4.3,1.4c0,0.1,0.1,0.2,0.1,0.3
		c0.7,0,1.4-0.1,2.2-0.1c0,0.1,0,0.2,0.1,0.3c-0.9,0.4-1.9,0.7-2.9,1.2c0.3,0.2,0.5,0.3,0.7,0.4c-0.2,0.2-0.3,0.5-0.6,0.6
		c-1.1,0.7-2.2,1.3-3.3,2c1.5,1.8-1.2,1.9-0.8,3.3c0.6,0.1,1.4,0.3,2.2,0.5c0,0.1,0,0.3,0,0.4c-0.7,0.1-1.3,0.1-2,0.2
		c1.3,1.1,2.9,0.9,4.5,1c0,0.1,0,0.2,0,0.3c-1.6,0.2-3.3,0.4-4.6,0.5c-0.1-0.5-0.1-1-0.3-1.4c-0.3-0.4-0.9-0.7-1.5-1.2
		c0.5-0.1,0.8-0.2,1.1-0.2c-0.4-0.9-0.6-2-1.8-2.1c-0.3,0-0.6-0.1-0.9-0.1c-0.8,0.1-1.4-0.6-1-1.3c0.5-0.8,0.3-1.3-0.3-1.9
		c-0.1-0.2-0.2-0.4-0.3-0.6c-0.7-0.8-0.3-1,0.9-1c-0.5-0.3-0.7-0.4-0.9-0.5c-1.4-0.3-1.7-1.7-1.7-3c0-1,0.7-2,0.1-3.2
		c-0.3-0.6,0.5-1.7,0.8-2.6c0.1-0.2,0.1-0.3,0.1-0.5c-0.2,0.2-0.3,0.6-0.5,0.6c-0.3,0-0.8-0.1-0.8-0.2c0-1.4,0-2.8,0.1-4.1
		c0,0-0.2,0.1-0.6,0.2c0.3-1.8,0.8-3.5,0.9-5.2c0.1-1.3,0.3-2.4,1.3-3.3c0.3-0.3,0.5-0.8,0.4-1.1c-0.2-1.2,0.6-1.8,1.2-2.6
		c0.2-0.3,0.4-0.6,0.5-1c0.3-1.3,1.3-2,1.9-3c0.7-1.3,1.9-2.1,2.6-3.3c0.7-1.3,1.5-2.2,2.9-2.8c1.6-0.7,3-1.9,4.6-2.7
		c2.6-1.5,5.2-2.7,8.3-2.7c1.5,0,2.9-0.3,4.4-0.4c1,0,2.1,0,3.1,0.2c2.5,0.5,5.1,1.2,7.6,1.6c2.2,0.3,4.1,1.2,5.9,2.3
		c1.3,0.8,2.6,1.4,3.9,2.1c0.9,0.5,1.4,1.7,2.2,2.5c1.1,1.1,2.4,2.2,3.4,3.3c0.7,0.7,1.1,1.7,1.7,2.5c0.5,0.7,1,1.5,1.4,2.2
		c0.5,1,0.8,2,1.3,3c0.1,0.3,0.2,0.6,0.4,0.9c1.4,1.6,2.3,3.5,2.7,5.6c0.2,1,1.2,1.1,1.9,1.1c1.3,0.1,2.2,0.6,3.2,1.4
		c0.6,0.5,1.5,0.8,2.1,1.3c0.4,0.3,0.7,0.9,1,1.4c0.2,0.3,0.4,0.8,0.7,0.9c1.6,0.7,2,2.2,2.3,3.7c0.1,0.3,0,0.6,0.2,0.7
		c1.3,1.3,1.1,3,1.5,4.7c0.4,1.9,1,3.8,1.7,5.5c0.4,0.9,1.4,1.6,2.2,2.2c2.2,1.9,4.5,3.8,6.8,5.6c2.5,2,5.1,3.9,7.6,5.9
		c1.2,0.9,2.3,1.8,3.4,2.8c0.3,0.3,0.3,0.9,0.5,1.3c-0.4,0.1-0.9,0.3-1.3,0.2c-2.2-0.2-3.7-1.9-5.5-3c-1.3-0.8-2.6-1.6-3.8-2.5
		c-0.8-0.6-1.6-1.3-2.4-1.9c-0.8-0.6-1.6-1-2.4-1.5c-2.3-1.4-4.5-2.8-6.9-4c-1.1-0.6-2.5-0.8-3.8-1.1c-0.5-0.1-1,0.1-1.5,0.3
		c-2.6,1.1-5.1,2.4-8.1,2.4c-1.5,0-3,0.1-4.5,0.1c-1.4,0-2.5,0.8-3.6,1.6c-2.6,1.8-5.5,2.5-8.5,2.7c-1.4,0.1-2.9-0.2-4.3-0.2
		c-0.3,0-0.6,0.2-0.9,0.4c-1.2,0.6-2.3,0.8-3.7,0.7c-1.8-0.2-3.5,0-5.5,0c0.4,1.3,0.8,2.5,1.1,3.7c0.2,0.6,0.3,1.6,0.7,1.9
		c0.5,0.3,1.4,0.2,2.1,0.1c1.1-0.1,2.2-0.2,3.6-0.1c-0.3,0.2-0.5,0.6-0.8,0.7c-0.4,0.2-0.9,0.2-1.4,0.3c-0.5,0.1-0.9,0.2-1.4,0.6
		c1.8,0.6,3.6,1.1,5.4,1.7c0.4,0.1,0.9,0.7,0.8,0.9c-0.2,0.6-0.6,0.4-1.2,0.2c-2.9-1-5.9-1.8-8.8-2.6c-0.8-0.2-1.7,0.2-2.5,0.3
		c-0.8,0.1-1.5,0.1-2.3,0.2c0-0.1-0.1-0.3-0.1-0.4c1.7-0.4,3.4-0.8,5.1-1.2c-0.4-1.5-0.8-2.9-1.1-4.2c0.1,0,0.2,0,0.3-0.1
		c-0.3-0.2-0.5-0.5-0.9-0.8c0.4-0.1,0.7-0.1,1.2-0.3c-3.8-1.3-7.4-0.9-11.1-0.3c0.3,1.4,0.6,2.5,0.9,3.6c0.5,1.7,1,3.4,1.6,5
		c0.3,0.6,0.9,1.2,1.6,1.5c2.1,1,4.3,1.8,6.5,2.7c0.2,0.1,0.5,0.2,0.7,0.4c0.2,0.2,0.3,0.5,0.4,0.8c-0.3,0.1-0.6,0.4-0.8,0.4
		c-1.7-0.2-3.3-0.5-5-0.8c-0.5-0.1-0.9-0.2-1.7-0.3c1.1,1.1,2,2.1,2.9,3.1c-0.5,0-1.1,0-1.6,0c-0.6-0.7-1.2-1.4-1.9-2.1
		c-0.6-0.6-1.6-0.8-1.8-2.3c2.5,0.5,4.7,1,6.9,1.5c0-0.1,0.1-0.3,0.1-0.4c-1.5-0.6-3.1-1-4.6-1.7c-1.1-0.5-2.3-1.1-2.7-2.4
		c-0.5-1.7-1-3.3-1.5-5c-0.3-1.1-0.4-1.2-1.3-0.8c0.5,2,1,4,1.4,6c0.1,0.5,0,1.2-0.3,1.4c-1.3,1-2.7,1.8-4,2.7c0,0-0.1,0-0.1,0
		c-1.2,0.3-1.3,0.4-1.8,1.9c0.5-0.4,0.8-0.7,1.2-1c0.3-0.2,0.6-0.4,1-0.5c0.7-0.3,1.5-0.4,2.2-0.8c0.8-0.4,1.4-0.4,2,0.2
		c0.2,0.2,0.5,0.4,0.8,0.6c1.3,0.9,2.5,1.8,3.8,2.7c-0.5,0-1.1,0-1.6,0c-1.2-0.8-2.4-1.7-3.7-2.5c-0.2-0.1-0.4-0.2-0.5-0.2
		c-1.3,0.5-2.7,0.8-4,1.5c-0.8,0.4-2.3,0.7-3.2,0c1.4-0.7,1.9-2.5,3.8-2.8c0.9-0.1,1.6-1.1,2.4-1.7c0.3-0.2,0.6-0.4,1-0.6
		c-0.5-2.1-0.9-4.3-1.4-6.5c-0.3-1.1-0.5-2.3-1-3.4c-0.1-0.3-0.9-0.4-1.4-0.5c-0.8-0.1-1.6-0.1-2.4-0.2c-0.2,0-0.4-0.3-0.7-0.5
		c0.9-0.2,1.6-0.3,2.5-0.5c-0.4-0.3-0.7-0.6-1-0.7c-1.1-0.2-1.7-0.8-2.3-1.7c-0.3-0.5-1.2-0.8-1.9-1c-0.7-0.2-0.8-0.2-0.8-1.1
		c0-0.1-0.4-0.1-0.4-0.3c-0.1-0.4-0.1-0.8-0.1-1.1c2,0,3.9,0,5.8,0c0,0.1,0.1,0.3,0.1,0.4c-0.5,0.2-1.1,0.4-1.9,0.8
		c0.8,0.2,1.4,0.3,2,0.5c0,0.1,0,0.2,0,0.3c-0.7,0.2-1.3,0.5-2,0.7c0,0.1-0.1,0.2-0.1,0.3c1.2,0.4,2.3,0.8,3.5,1.2
		c1.1,0.4,2.4-0.7,3.8,0.3c-1.3,0.6-2.3,1.1-3.4,1.6c0,0.1,0.1,0.3,0.1,0.4c0.4-0.1,0.9-0.1,1.2-0.2c0.6-0.3,1.2-0.4,1.8,0.1
		c0.2,0.2,0.7,0.2,1.1,0.1c1.6-0.4,3.1-0.9,4.8-1c1.9-0.1,3.7-0.8,5.6-1.3c0.1,0,0.3,0,0.5,0.2c-0.8,0.4-1.5,0.8-2.3,1.1
		c0.1,0.1,0.1,0.3,0.2,0.4c2.5-0.7,5-1.3,7.8-2c-0.7,0.5-1.3,0.9-1.9,1.3c2,1,3.7-0.4,5.6-0.4c-0.4,0.2-0.7,0.4-1.1,0.7
		c0,0.1,0,0.1,0.1,0.2c1-0.3,2-0.6,3-1.1c1-0.4,1.9-1,3-1.3c-0.6,0.4-1.2,0.8-1.8,1.2c0.1,0.1,0.1,0.3,0.2,0.4
		c1.6-0.5,3.2-1,5.1-1.6c-0.4,0.5-0.6,0.7-0.8,1c1.5,0.1,6.4-1.8,7.6-2.9c-0.5-0.2-0.9-0.3-1.4-0.5c0.2-0.1,0.3-0.2,0.5-0.3
		c-0.6-0.2-1.3-0.5-2.1-0.7c3-0.6,5.8-1.1,8.4-1.6c-0.1,0.2-0.1,0.2-2.2,1.1c-0.8,0.3-1.7,0.6-2.8,1c2.3,0.4,4.1-1,6-1.1
		c0,0.1,0.1,0.2,0.1,0.3c-1,0.4-1.9,0.8-2.9,1.3c0,0.1,0.1,0.2,0.1,0.3c1.5-0.5,2.9-1.1,4.4-1.6c0,0,0,0.1,0.1,0.1
		c-0.3,0.3-0.7,0.5-1.2,0.9c0.3,0.1,0.5,0.3,0.7,0.3c1.3-0.6,2.5-1.2,3.8-1.7c1.5-0.6,3-1.2,4.6-1.6c0.7-0.2,1.6,0.1,2.2,0.5
		c2.6,1.7,5.1,3.5,7.7,5.2c2.4,1.6,4.8,3.2,7.2,4.8c2.2,1.4,4.5,2.8,6.7,4.3c0.2,0.1,0.5,0.2,0.8,0.3c0.1-0.1,0.1-0.2,0.2-0.3
		c-0.6-0.5-1.2-1.1-1.8-1.6c-1.5-1.1-3.1-2-4.6-3.1c-1.1-0.8-2.1-1.9-3.2-2.8c-1.6-1.3-3.3-2.6-5-3.8c-1-0.7-1.9-1.7-2.9-2.3
		c-1.1-0.6-1.6-1.7-2.6-2.3c-0.5-0.3-0.9-0.9-1-1.5c-0.6-2.2-1.1-4.5-1.7-6.8c0-0.2,0.1-0.3,0.1-0.5c-0.1-0.4,0.1-0.9-0.4-1.3
		c-0.3-0.2-0.6-0.6-0.6-0.9c0.1-1.9-1-3.2-2-4.6c-0.5-0.6-0.9-1.3-1.4-1.9c-0.1-0.2-0.3-0.4-0.5-0.5c-2.5-1.2-5.1-2.3-7.9-2.7
		c-0.7-0.1-1.5-0.2-2.2-0.1c1.7-0.1,3.4,0.4,4.6,2c-2.5-1.9-5.1-1.4-7.7-0.4c1.3,0.1,2.5,0.2,3.8,0.3c0,0.1,0,0.2,0,0.4
		c-1.5,0.1-2.9,0.2-4.4,0.3c0,0.1,0,0.2,0,0.3c0.9,0,1.8,0.1,2.7,0.1c0,0.2,0,0.3,0.1,0.5c-2.6-0.2-5,0.3-6.7,2
		c-1.4-2.4-2.8-4.7-4.2-7c1.8,1.4,2.9,3.4,4.1,5.3c-0.1-2.2-1.6-3.7-2.5-5.6c0.1-0.1,0.2-0.1,0.4-0.2c1.1,1.8,2.2,3.5,3.2,5.3
		c0.1,0,0.2,0,0.2,0c0-0.4,0-0.9-0.2-1.3c-0.7-1.4-1.4-2.7-2.1-4.1c-0.2-0.4-0.4-0.8-0.5-1.2c0.1-0.1,0.2-0.1,0.4-0.2
		c1.2,2,2.3,4,3.5,6c1.5-0.8,1.4-1.3,0.8-2.8c-1.2-3.1-3.1-5.7-5.4-8.1c1.1,0,3.9,3.5,6.1,7.4c-0.6-1.2-1.1-2.4-1.7-3.5
		c-0.7-1.2-1.5-2.2-2-3.5c0.2,0.1,0.3,0.3,0.5,0.5c1,1.3,2.1,2.6,3,4.1c0.5,0.9,0.8,2,1.1,3c0.2,0.7,0.3,0.9,1,0.5
		c1.3-0.6,2.6-1.3,4.2-0.8c0.2,0.1,0.4,0,0.8-0.1c-0.1-0.5-0.2-1-0.4-1.7c-0.3,0.4-0.4,0.6-0.6,0.8c-0.4-1.4-0.8-2.7-1.2-4.1
		c-0.1,0-0.3,0.1-0.4,0.1c0,0.5,0.1,1.1,0.1,1.6c-0.1,0.1-0.1,0.1-0.2,0.2c-0.2-0.3-0.5-0.5-0.5-0.8c-0.4-1.7-0.7-3.4-1.3-5
		c0,0.6,0.1,1.2,0.1,1.9c-0.1,0-0.1,0-0.2,0c-0.2-0.9-0.4-1.7-0.7-2.6c-0.3-0.8-0.7-1.5-1.1-2.3c-0.1,0-0.2,0.1-0.3,0.1
		c0,0.3-0.1,0.6-0.1,0.8c-0.1,0.1-0.2,0.1-0.2,0.2c-1-3.7-3.4-6.4-6-8.8c0.4,0.5,0.9,1.1,1.2,1.6c0.2,0.3,0.3,0.7,0.4,1.1l-0.1,0.1
		c-0.9-1.1-1.7-2.3-2.8-3.2c-1.3-1.1-2.8-2-4.2-3c-0.1,0.1-0.2,0.2-0.2,0.3c0.8,0.7,1.6,1.5,2.5,2.2c-2.9-1.4-5.4-3.4-8.7-3.9
		c1.6,1,3.1,1.9,4.7,2.9c0,0.1-0.1,0.2-0.1,0.3c-0.3-0.1-0.7-0.2-1-0.4c-2.2-1.1-4.4-2.2-6.7-3.2c-0.6-0.3-1.3-0.3-2-0.2
		c1,0.5,1.9,0.9,2.9,1.4c0,0.1-0.1,0.3-0.1,0.4c-4.7-2.4-9.6-3.1-14.6-1.3c0,0.1,0,0.3,0,0.4c1.7,0,3.5,0,5.2,0c0,0.1,0,0.3,0,0.4
		c-3.2,0.5-6.6,0-9.6,1.8c2.2-0.3,4.4-0.6,6.6-0.9c0,0.1,0.1,0.3,0.1,0.4c-0.6,0.2-1.2,0.4-1.9,0.6c-2.4,0.5-4.7,0.9-7.1,1.4
		c-1.2,0.3-2.3,0.8-3.1,2c2.6-0.3,4.8-2,7.4-1.4c-1.7,0.5-3.4,1-5,1.6c-1.6,0.6-3.4,1-4.6,2.6c2.3-0.8,4.5-2,7.1-1.8
		c-3.6,1.4-7.5,2.3-10.1,5.3c0.1,0.1,0.1,0.2,0.2,0.4c1-0.6,2-1.1,3-1.7c0.1,0.1,0.1,0.1,0.2,0.2c-1.7,1.5-3.3,2.9-5,4.4
		c0.1,0.1,0.1,0.2,0.2,0.3c1.3-1,2.5-2,3.8-3c0.4-0.3,0.8-0.6,1.2-0.8c0.1-0.1,0.4,0.1,0.6,0.2c-0.1,0.2-0.1,0.4-0.2,0.5
		c-0.5,0.4-1.1,0.8-1.7,1.2c-2,1.6-4,3.2-5.2,5.5c2.2-1.9,4-4.2,6.4-5.7c0.1,0.1,0.2,0.2,0.3,0.4c-0.6,0.6-1.2,1.2-1.8,1.8
		c-1.9,2-3.8,3.9-5.6,6c-0.4,0.5-0.5,1.3-0.7,2c0.1,0,0.2,0.1,0.3,0.1c0.6-0.9,1.1-1.8,1.8-2.6c1.2-1.4,2.4-2.6,3.6-3.9
		c0.2-0.2,0.6-0.1,1-0.1c-0.1,0.3-0.2,0.6-0.4,0.8c-1.3,1.4-2.9,2.6-3.9,4.1c-1,1.6-1.5,3.5-2.3,5.3c-0.1,0.2,0,0.5,0.2,0.8
		c1.3-2.9,2.7-5.6,5.2-7.6c0.1,0.1,0.2,0.1,0.3,0.2c-0.2,0.4-0.4,0.8-0.6,1.1c-0.8,1.1-1.7,2.3-2.5,3.4c-0.1,0.1,0,0.3,0,0.4
		c1.5-1.5,3-3.1,4.5-4.7c0.2,0.1,0.3,0.3,0.5,0.4c-0.2,0.3-0.4,0.7-0.7,1c-1.3,1.6-2.7,3.2-3.9,4.9c-0.6,0.8-0.9,1.8-1.2,2.5
		c1.1-1.3,2.3-2.7,3.6-4.2c0,0,0.2,0.2,0.4,0.3c-2.4,2.6-4,5.6-4.7,9.1c-0.1,0.4,0.2,1,0.4,1.7c0.7-1.7,1.1-3.3,1.8-4.7
		c0.7-1.4,1.6-2.7,2.4-4c0.2,0.1,0.3,0.1,0.5,0.2c-0.1,0.3-0.1,0.6-0.2,0.8c-0.6,0.9-1.4,1.7-1.8,2.7c-0.6,1.4-1,2.9-1.5,4.4
		c-0.1,0.4-0.1,0.8-0.1,1.3c0.7-1.5,1.3-3.1,2-4.6c0.4-0.8,0.8-1.5,1.3-2.1c0.1-0.2,0.5-0.2,0.8-0.1c-2.3,3.3-3.7,6.7-3.7,10.7
		c0.1,0,0.2,0.1,0.3,0.1c0.2-1,0.5-2,0.6-3c0.2-1.5,1.4-3.8,2.7-4.6c-1.1,2.2-2.5,4.3-1.7,7c0-3.1,2.1-5.3,3.5-8
		c0.2,0.1,0.5,0.3,0.8,0.5c-3,4.1-4.1,7.2-3.1,8.9c0.2-0.5,0.3-0.9,0.4-1.2c0.1-0.3,0-0.7,0.1-1c0.8-1.9,1.7-3.8,2.5-5.7
		c0.1-0.3,0.1-0.7,0.1-1.1c0.6-0.2,1.2-0.5,2-0.8c-0.1,0.2-0.1,0.5-0.3,0.8C31,144.9,30.5,145.8,29.9,146.7
		c-1.4,1.2-2.2,3.6-1.7,5.1c0.2-0.8,0.4-1.4,0.6-2C29.2,148.8,29.6,147.7,29.9,146.7z"/>
	<path d="M41.4,159.7c0.9-0.3,1.8-0.5,2.7-0.7c2.5-0.6,4.5-2.3,6.7-3.6c0.4-0.2,0.8-0.4,1.2-0.6c0.1,0.1,0.1,0.3,0.2,0.4
		c-2.4,1.7-4.8,3.4-7.1,5c0.9-0.3,2-0.6,3.2-0.9c1.2-0.4,2.5-0.7,3.7-1.3c1.1-0.5,2.1-1.3,3.1-2c0.1,0.2,0.2,0.3,0.3,0.5
		c-2.3,1.4-4.6,2.8-6.9,4.2c2.7,0.1,5.1-1.2,7.6-1.9c-0.9,0.7-1.9,1.3-2.8,2c0.1,0.2,0.2,0.3,0.3,0.5c1.5-0.7,3-1.4,4.5-2.1
		c0,0,0.1,0.1,0.1,0.1c-0.4,0.4-0.8,0.9-1.2,1.1c-1.7,1-3.2,2.2-5.3,2.2c-1,0-1.1-0.4-0.6-1.3c-0.9,0.1-1.7,0.3-2.5,0.2
		c-0.5,0-0.9-0.3-1.4-0.5c-0.2-0.1-0.5-0.1-0.8,0c-0.5,0.1-1,0.2-1.4,0.2c-0.3,0-0.7-0.2-1-0.3c0.1-0.3,0.2-0.6,0.3-0.9
		c-1.1,0.2-2.3,0.5-3.5,0.7c-0.2,0-0.5-0.2-0.7-0.3c0.2-0.3,0.5-0.5,0.7-0.8C41,159.8,41.2,159.8,41.4,159.7z"/>
	<path d="M34.9,133.3c2-0.3,3.8-0.5,5.6-0.7c0,0.1,0.1,0.2,0.1,0.3c-1.6,0.7-3.2,1.3-4.8,2c0,0.1,0.1,0.3,0.1,0.4
		c2.6-0.1,5.1-1.4,7.7-0.2c-1.5,0.2-3.1,0.3-4.6,0.5c-2,0.3-3.8,1-5.5,2.1c-0.3,0.2-0.8,0.2-1.2,0.2c0.2-0.4,0.2-0.9,0.5-1.1
		c0.7-0.7,1.6-1.4,2.2-2.2c-0.9,0.3-1.8,0.6-2.6,0.9c-0.1-0.1-0.1-0.3-0.2-0.4c1.1-1.1,2.1-2.4,3.5-3.2c0.1,0.1,0.1,0.1,0.2,0.2
		C35.6,132.5,35.3,132.8,34.9,133.3z"/>
	<path d="M63.3,140.9c0.3,0.3,0.7,0.6,0.9,0.9c0.8,1,1.5,2,2.3,3c0.4,0.5,0.8,0.5,1.3,0.2c0.4-0.2,0.9-0.3,1.4-0.4
		c-0.2-1.3,2.6-2.6,4.6-1.7c-0.5,0-1.1,0-1.6,0.1c-0.6,0.1-1.1,0.5-1.8,0.8c1.2,0.3,2.2-0.9,3.1-0.1c0,0.2,0,0.3,0,0.5
		c-1.3,0.2-2.5,0.3-4,0.5c0.8,0.6,1.9,0.3,1.9,1.7c-0.5-0.1-1-0.2-1.5-0.2c-1.1,0.1-2.3,0.2-3.4,0.3c0,0-0.1,0.1-0.1,0.2
		c-0.2,0.3-0.3,0.6-0.5,0.9c-0.2-0.3-0.4-0.7-0.6-1c-0.6-0.9-1.2-1.7-1.8-2.6c-0.2-0.3-0.5-0.6-0.7-0.9c0.1-0.1,0.2-0.2,0.2-0.2
		c0.8,0.7,1.6,1.4,2.3,2c0.1,0,0.1-0.1,0.2-0.1c-0.9-1.3-1.7-2.5-2.6-3.8C63.2,141,63.2,140.9,63.3,140.9z"/>
	<path d="M46.5,135.6c-2.7,0.7-5.5,1.3-8.2,2c0,0,0.1,0.1,0.1,0.1c1.3,0,2.6-0.1,3.9,0c1.2,0.1,2.6-0.3,3.7,0.5c0,0.1,0,0.2,0,0.4
		c-0.3,0-0.6,0.1-0.9,0c-3.2-0.7-6.4-0.2-9.4,1c-0.8,0.3-1.4,0.7-2.5,0.1C37.4,137,41.7,135.5,46.5,135.6z"/>
	<path d="M53.2,121.6c-2.6-1.4-5.3-2.5-8.2-3.1c0,0.1-0.1,0.2-0.1,0.3c0.6,0.3,1.2,0.7,1.8,1c0,0.1,0,0.2-0.1,0.3
		c-1.6-0.1-3-1.3-4.6-1c0.2,0.2,0.4,0.5,0.6,0.8c-0.1,0.1-0.1,0.1-0.2,0.2c-0.7-0.3-1.4-0.6-2.1-1c-0.1-0.1-0.2-0.5-0.2-0.6
		c0.2-0.2,0.4-0.5,0.7-0.5c0.9,0,1.9,0.2,2.8,0.3c0-0.1,0-0.2-0.1-0.3c0.4-0.2,0.9-0.5,1.3-0.4c2,0.6,4,1.3,5.9,2.1
		c1,0.4,1.8,1.1,2.8,1.6C53.3,121.3,53.3,121.4,53.2,121.6z"/>
	<path d="M64.6,158.8c0,0.8,0.3,1,1,0.7c0.8-0.4,1.7-0.6,2.8-0.7c-0.2,0.2-0.3,0.5-0.6,0.6c-0.9,0.6-1.8,1.1-2.7,1.7
		c-1.9,1.1-4.1,0.6-6.1,0.7c-0.2,0-0.5-0.4-0.7-0.6c0.3-0.1,0.5-0.4,0.8-0.4c1.5-0.4,3-0.7,4.5-1.1c0.3-0.1,0.4-0.7,0.6-1
		C64.3,158.7,64.5,158.7,64.6,158.8z"/>
	<path d="M37.2,121.5c0.4,0.1,0.9,0.2,1.3,0.3c0,0.1,0,0.3,0,0.4c-2.2,0.2-4.3,0.4-6.5,0.5c-0.1-0.1-0.2-0.2-0.2-0.3
		c0.3-0.3,0.5-0.7,0.8-0.9c2.6-1.1,5.4-1.3,8.2-1c1.2,0.1,2.4,0.2,3.6,0.3c0,0.1,0,0.2,0,0.3c-2.4,0-4.8,0-7.2,0
		C37.2,121.3,37.2,121.4,37.2,121.5z"/>
	<path d="M69.7,142.7c-1.7-2.4-3.3-4.7-4.8-7c0.1-0.1,0.2-0.2,0.3-0.2c1.1,1.3,2.3,2.6,3.3,4c0.5,0.6,0.7,1.5,1.1,2.1
		c0.1,0.2,0.6,0.4,0.8,0.3c0.8-0.4,1.6-1,2.4-1.4c0.6-0.3,1.3-0.4,1.9-0.5c0.1,0,0.3,0.3,0.5,0.5c-0.5,0.4-0.9,1-1.5,1.3
		c-1.2,0.4-2.4,0.7-3.6,0.9C69.9,142.7,69.6,142.7,69.7,142.7z"/>
	<path d="M41.4,159.7c-0.2,0-0.4,0.1-0.6,0.1c-1.1,0-2.3,0-3.4-0.1c-0.9-0.1-1.8-0.5-2.7-0.8c0-0.2,0-0.3,0.1-0.5
		c1.1,0.1,2.2,0.2,3.3,0.2c1.2,0,2.3,0,3.5-0.2c1.1-0.2,2.3-0.6,3.5-0.6c-0.7,0.4-1.5,0.7-2.2,1.1C42.3,159.2,41.9,159.5,41.4,159.7
		z"/>
	<path d="M44.3,139.3c-1.1,0.1-2,0.2-2.9,0.3c0,0.1,0,0.2,0,0.3c1.4,0.2,2.9,0.4,4.3,0.6c0.3,0.1,0.7,0.3,1,0.5
		c-0.4,0.1-0.9,0.4-1.2,0.4c-1.7-0.2-3.3-0.5-5-0.8c-0.6-0.1-1.2-0.3-1.9-0.4C39.8,138.8,43.1,138.4,44.3,139.3z"/>
	<path d="M67.9,153.7c1.7,0,3.5,0,5.2,0c0,0.1,0,0.2,0.1,0.3c-0.4,0.1-0.9,0.3-1.3,0.4c0,0.1,0,0.1,0,0.2c1.3,0.1,2.6,0.1,4.2,0.2
		C74.4,155.9,69.8,155.3,67.9,153.7z"/>
	<path d="M31.4,133.3c0.1-0.5,0.1-0.7,0.3-0.9c2.8-2.4,6.2-3.2,9.7-3.6c0.2,0,0.5,0.4,0.8,0.5c-0.3,0.1-0.6,0.3-0.9,0.4
		c-3,0.3-5.9,0.6-8.3,2.7C32.6,132.8,32.2,133,31.4,133.3z"/>
	<path d="M35.9,156.2c1.5-0.2,3.1-0.3,4.6-0.5c0,0.1,0,0.3,0,0.4c-1.7,0.6-3.5,1.3-5.4,0.9c-0.6-0.1-1.2-0.7-0.5-1.2
		c1.1-0.8,2.5-1.4,3.7-2c0.1,0,0.2,0.2,0.5,0.4c-1.1,0.6-2.1,1.1-3.1,1.6C35.8,156,35.9,156.1,35.9,156.2z"/>
	<path d="M41.8,127.5c-3.2,0.7-6.2,1.4-9.3,2.2C33.3,128.1,39.6,126.6,41.8,127.5z"/>
	<path d="M77.2,156.2c-2.1,1.3-5.3,1.4-7.7,0C72.2,156.2,74.6,156.2,77.2,156.2z"/>
	<path d="M35.4,143.5c0.4-0.3,0.7-0.7,0.9-0.7c2.1,0,4.2,0.1,6.3,0.2c0.3,0,0.6,0.3,1.1,0.6C40.8,143.5,38.2,143.5,35.4,143.5z"/>
	<path d="M73.7,130.1c-1.7-1.9-3.4-4-5.3-6.1C70.2,124.1,73.5,128.1,73.7,130.1z"/>
	<path d="M87.1,150c0.1,0.4,0.3,1,0.2,1.1c-0.4,0.3-0.9,0.4-1.4,0.4c-0.3,0-0.7-0.5-0.7-0.8c-0.3-1.2,0.7-2.3,1.7-2
		c0.3,0.1,0.5,0.4,0.8,0.5C87.4,149.5,87.2,149.8,87.1,150z"/>
	<path d="M45.3,149.4c-3-0.2-5.6-0.4-8.2-0.6C37.9,147.6,43.2,147.8,45.3,149.4z"/>
	<path d="M47.7,148.4c-1.8-0.6-3.5-1.1-5.4-1.7C43.2,145.7,46.5,146.7,47.7,148.4z"/>
	<path d="M36.9,127.1c-1.3,0.5-2.5,1-3.7,1.4c-0.5,0.2-0.9,0.5-1.4,0.7c-0.3,0.1-0.6,0-1-0.1c0.2-0.2,0.3-0.5,0.5-0.7
		c1.6-1,3.4-1.4,5.3-1.6C36.7,126.8,36.8,126.9,36.9,127.1z"/>
	<path d="M49.1,117.8c1.1-0.4,4.9,1.9,6.5,4.1C53.3,120.4,51.2,119.1,49.1,117.8z"/>
	<path d="M40.4,142.2c1.8-0.9,5.6-0.3,6.1,1C44.4,142.8,42.5,142.5,40.4,142.2z"/>
	<path d="M74.3,152.7c-0.1,1-4.1,0.8-6.1-0.6C70.3,152.3,72.3,152.5,74.3,152.7z"/>
	<path d="M77.3,146.5c1.7-0.8,4.9,0.1,5.6,1.2C81,147.3,79.1,146.9,77.3,146.5z"/>
	<path d="M67,119.3c1.7,0.2,3.7,2,4,3.8C69.5,121.8,68.3,120.6,67,119.3z"/>
	<path d="M68.4,143.9c-1-1.6-1.9-3-2.9-4.6C66.9,139.6,68.5,142.2,68.4,143.9z"/>
	<path d="M68.6,149.1c0.3-1.7,1.7-2.6,3.7-2.1C71.1,147.7,69.9,148.4,68.6,149.1z"/>
	<path d="M72.1,158.3c2.1-0.4,4.1-0.8,6.2-1.2C76.8,158.3,74.2,158.7,72.1,158.3z"/>
	<path d="M69.9,159.6c-0.8,1.5-3.3,2.5-5,1.9C66.6,160.9,68.2,160.2,69.9,159.6z"/>
	<path d="M78,152c1.6-0.3,3-0.6,4.5-0.8C81.9,152.5,78.8,153.1,78,152z"/>
	<path d="M56,121c-1.4-1.1-2.5-2.1-3.8-3.1C53.2,117.6,55.6,119.4,56,121z"/>
	<path d="M82.4,153.7c-0.5,0-1.1,0.1-1.6,0.1c0.3-0.3,0.6-0.7,1-1c0.4-0.3,0.8-0.5,1.4-0.9c-0.1,0.5-0.1,0.8-0.1,1
		C82.8,153.2,82.6,153.5,82.4,153.7z"/>
	<path d="M80.7,143.8c1.8,0.1,3.8,1.1,4.5,2.4C83.7,145.4,82.3,144.7,80.7,143.8z"/>
	<path d="M82.4,149.2c-1.4-0.2-2.7-0.4-4.1-0.7C79.6,147.6,82.1,148,82.4,149.2z"/>
	<path d="M79.7,150.6c0.7-0.3,1.4-0.6,2.1-0.8c0.1,0,0.5,0.1,0.5,0.2c0,0.2-0.1,0.6-0.2,0.6c-0.8,0.2-1.6,0.3-2.3,0.5
		C79.8,151,79.8,150.8,79.7,150.6z"/>
	<path d="M87.6,144.1c0.3,0.9,0.6,1.8,0.9,2.9c-0.9-0.2-0.9-0.2-1.2-2.7C87.4,144.2,87.5,144.2,87.6,144.1z"/>
	<path d="M82.4,153.7c0.2-0.2,0.4-0.5,0.7-0.7c0.5-0.2,0.7,0,0.6,0.5c0,0.2-0.1,0.5-0.3,0.6c-0.3,0.3-0.6,0.5-0.9,0.7
		C82.4,154.4,82.4,154.1,82.4,153.7z"/>
	<path d="M84.8,143.7c1.3,0.9,2,1.9,1.9,3.1c-0.8-1.1-1.4-2-2.1-2.9C84.7,143.8,84.7,143.8,84.8,143.7z"/>
	<path d="M80.2,145.4c1.1,0.3,2.4,0.1,3.2,1.1c0,0.1-0.1,0.2-0.1,0.3c-1.1-0.4-2.1-0.7-3.2-1.1C80.1,145.6,80.2,145.5,80.2,145.4z"
		/>
	<path d="M65.3,139.2c-0.7-0.7-1.4-1.5-2.1-2.2c0.1-0.1,0.2-0.2,0.2-0.2c0.7,0.7,1.5,1.5,2.2,2.2C65.6,139,65.4,139.1,65.3,139.2z"
		/>
	<path d="M89.9,146.5c0.6,1.2,0.1,2.3-1,2.3C89.3,148,89.6,147.3,89.9,146.5z"/>
	<path d="M88.7,144.4c0.1,1,0.3,2.1,0.4,3.1c-0.2,0-0.3,0-0.5,0.1c-0.1-1-0.2-2.1-0.3-3.1C88.5,144.4,88.6,144.4,88.7,144.4z"/>
	<path d="M69.8,118c0.7,0.8,1.3,1.7,2,2.5c-0.1,0.1-0.3,0.2-0.4,0.3C70.9,119.9,70.3,119,69.8,118L69.8,118z"/>
	<path d="M71.7,151.7c-0.7-0.1-1.4-0.2-2.1-0.3c-0.1,0-0.2-0.2-0.2-0.3c0-0.1,0.2-0.3,0.3-0.3c0.7,0.2,1.4,0.3,2.1,0.5
		C71.7,151.5,71.7,151.6,71.7,151.7z"/>
	<path d="M64.8,147.8c-0.5-0.9-0.8-1.4-1.2-2c0.1-0.1,0.2-0.2,0.3-0.2c0.4,0.4,0.8,0.8,1.2,1.3C65.1,147,64.9,147.3,64.8,147.8z"/>
</g>
<g>
	<path d="M183.1,150.7c-2.7-0.6-4.8-1.9-6.5-4c-0.2-0.2-0.6-0.2-0.9-0.2c-2.6-0.2-4.8-1.1-6.4-3.4c-0.2-0.3-0.9-0.5-1.3-0.6
		c-3.2-0.1-6.4-0.3-9.2-1.8c-6-3.3-9.8-8.2-11.2-15c-1.5-7.3,0.1-14,4-20.2c0.6-0.9,1.1-1.9,1.6-2.9c1.2-2.4,1-4.4-0.9-6.3
		c-1.1-1.2-1.5-2.6-1.4-4.2c0.2-2,1.5-2.8,3.3-2.1c0.7,0.2,1.4,0.5,2.2,0.9c-0.4-1-0.8-1.8-1.2-2.6c-0.7-1.8-0.3-3.2,1.3-4.5
		c1.5-1.2,3.4-1.4,4.8-0.3c5,3.8,7.2,7.5,5.5,14.2c-1,4.1-2.8,7.9-5.1,11.5c-1,1.6-0.5,3.4-0.1,5c0.6,2.2,3.1,4.2,5.4,4.4
		c1.2,0.1,2.1-0.3,2.8-1.2c1.3-1.6,1.7-3.6,1.8-5.6c0.2-3.7,0.3-7.4,0.5-11.1c0.2-5.4,2.7-9.8,6.3-13.7c5.8-6.2,13-9.4,21.4-9.6
		c10.9-0.3,20.5,3.5,29.4,9.5c1.6,1.1,3.2,2.4,4.7,3.6c0.6,0.5,1.1,0.6,1.9,0.4c3.5-0.8,7.1-1.4,10.7-0.7c1,0.2,2,0.9,2.7,1.7
		c2,2.1,3.3,4.6,4.1,7.4c0.1,0.4,0.6,0.9,1,1c8.1,1.2,12.6,8.2,13.8,15.1c1.2,7.3-0.8,14-4.1,20.4c-2.8,5.4-6.4,10.1-11.4,13.6
		c-1.4,1-3,1.7-4.6,2.3c-2.2,0.7-3.8-0.2-4.5-2.4c-0.1-0.2-0.1-0.4-0.2-0.6c-0.5-1.6-1.2-1.9-2.7-1.6c-1.4,0.3-2.8,0.7-4.2,0.9
		c-2.3,0.4-4.6-0.1-6.7-1c-0.3-0.1-0.7-0.2-1-0.1c-1.6,0.8-3.2,1.7-4.9,2.6c0.3,1.5,1,2.9,2.4,3.8c2.1,1.4,4.1,2.7,6.3,3.8
		c4.8,2.3,7.7,6.2,9.3,11.1c0.6,1.8,0.8,3.7,1.3,5.5c0.1,0.4,0.5,0.9,0.8,1c1,0.2,2,0.3,2.9,0.3c3-0.2,4.1-2.2,2.4-4.6
		c-0.9-1.3-2.2-2.3-3.4-3.3c-0.3-0.3-0.6-0.5-1.1-0.8c2-2.1,4.5-2.9,7.1-2.8c1.7,0.1,3.5,0.5,5.1,1.2c2.3,1.1,3,3.7,2.1,6.5
		c-0.9,2.7-2.6,4.6-5.6,5.1c-0.3,0-0.6,0.3-0.7,0.5c-2.8,5-4.8,6-10.5,5.4c0,0-0.1,0-0.3,0c-0.3,1-0.7,2-1.1,3
		c-1,3.1-2.5,5.9-4.6,8.4c-0.2,0.3-0.2,0.9,0,1.2c0.4,0.7,1,1.3,1.5,1.9c1.2,1.5,1.2,2.7,0.2,4.3c-2.2,3.3-5.2,5.4-9,6.4
		c-6.5,1.8-13,1.4-19.4-0.8c-1.8-0.6-3.5-1.6-3.1-3.9c-3,0.3-6,0.6-8.9,0.8c-4.9,0.4-9.6-0.6-14.1-2.8c-1.4-0.7-1.8-1.5-1.1-3.2
		c0.8-2.1,1.9-4.1,2.9-6.1c0.4-0.7,0.8-1.4,1.3-2.2c-0.9-1-1.8-1.9-2.7-2.9c-2.7-3.2-4.3-7-5.5-11.1c-0.3-0.9-0.7-1.3-1.6-1.5
		c-2.6-0.6-4.8-1.9-6.6-3.9c-0.6-0.7-0.8-1.3-0.5-2.3c1.7-6,5-10.6,10.8-13.3c0.5-0.2,0.8-0.9,1.2-1.4
		C182.4,152,182.7,151.4,183.1,150.7z M224,138c1.7,4.3,4.5,7.4,9.1,8.3c2.2,0.5,4.3,0,6.4-0.6c3.2-0.9,4.9-0.4,5.5,2.8
		c0,0,0,0.1,0,0.1c0.5,1.3,1.2,1.8,2.4,1.5c1.5-0.5,3-1.1,4.3-2c6.7-4.6,10.8-11.2,13.6-18.6c2-5.2,2.7-10.6,1.2-16
		c-1.6-5.6-4.7-10.1-10.6-11.8c-4.5-1.3-9.2-1.3-13.8-0.4c-2.6,0.5-5.1,1.5-7.5,2.2c1.7-1.7,4.2-2.4,6.8-3.2
		c-3-4.7-6.8-8.5-11.2-11.6c-8.8-6.3-18.5-10.4-29.6-10.3c-7.4,0.1-13.9,2.5-19.4,7.4c-3.8,3.4-6.8,7.4-7.5,12.7
		c-0.5,3.5-0.5,7.1-0.6,10.7c-0.2,2.8-0.1,5.7-1.7,8.2c1.9,1.4,3,3.1,2.8,4.2c-0.7-0.7-1.4-1.7-2.3-2.5c-0.4-0.3-1.1-0.5-1.6-0.4
		c-1.3,0.3-2.5,0.8-3.7,1.2c0,1.5,0,3.3,0,5.1c-0.5-5.3-0.5-5.3-4.4-7.6c-0.5,1.8-1.4,3.4-2.9,4.5c0.1-0.3,0.4-0.5,0.6-0.8
		c1.1-1.4,1.9-3.1,1.5-4.9c-0.3-1.6-0.8-3.2-1.2-4.7c-0.8,0.6-1.6,1.4-2.5,2.1c3.7-4.3,6.2-9.2,7.8-14.6c2-6.5,0.6-10.5-4.5-14.3
		c-1.1-0.8-2.2-0.9-3.3-0.2c-1.2,0.7-1.8,1.8-1.4,3c0.4,1.2,1,2.4,1.6,3.8c0.6-0.6,1-1,1.5-1.4c-0.4,1.2-1,2-2.2,1.8
		c-1.1-0.1-2.2-0.5-3.2-0.8c-1.2-0.3-1.8,0-2,1.2c-0.2,1.3,0,2.5,1,3.5c2.1,2.2,2.5,4.8,1.2,7.6c-0.6,1.1-1.2,2.3-1.8,3.3
		c-3.6,5.7-4.8,11.8-3.8,18.4c1.1,6.7,4.8,11.5,10.5,14.9c2.8,1.6,6,1.8,9.3,1.8c-0.6-3.7-0.3-5.2,1.2-7.7c1.8-2.8,3.7-2.8,5.6-0.1
		c0.9,1.3,1.7,2.8,2.7,4c2.3,2.8,6.6,2.8,9,0.1c-0.3-0.7-0.6-1.4-0.9-2.1c2.7,2.7,4.2,3.1,8.4,2.2c-1.2,2.2-3.1,2.4-6.5,0.9
		c-1.1,1.2-2.6,2-4.2,2.3c-0.3,0-0.7,0.3-0.8,0.6c-0.8,2.3-2.4,3.7-4.8,4.5c1.7,1.9,3.7,2.9,6,3.4c2.3,0.5,4.6,0.4,6.8-0.7
		c-1.4,1.6-3.1,2.1-5.2,2.1c-0.5,0-1.2,0.2-1.4,0.6c-2.8,4.7-4.7,9.8-4.8,15.3c-0.2,8,2.9,14.8,7.9,20.8c0.7,0.8,0.7,1.3,0.2,2.1
		c-0.7,1.1-1.4,2.3-2.1,3.4c2.9,0.8,3.2,3.3,4,5.5c0.6-0.7,1-1.4,1.5-1.9c0.5-0.6,1.1-1.1,1.7-1.5c1.5-1,2.6-0.8,3.4,0.8
		c1,1.9,1.7,3.9,2.6,6.3c2.3-0.3,5.1-0.7,7.8-1c0.2,0,0.5-0.3,0.6-0.5c1.3-2.3,2.5-4.6,3.9-7c-0.4-0.9-0.8-2.1-1.3-3.2
		c-5.9,0.4-10.9-1.4-15.1-5.4c4.6,2.9,9.5,4.4,15,4.3c0.1-2.5,0.2-4.9,1.7-7.2c-0.8,5.3-0.8,10.2,3,14.3c-0.8-0.6-1.7-1.1-2.6-1.7
		c-0.6,0.9-1.3,1.8-1.7,2.4c0.7,1,1.4,1.7,1.9,2.5c0.5,0.8,0.8,1.8,1.2,2.8c0.3-0.6,0.5-1.1,0.8-1.6c1.8-3.2,4.5-3.4,6.7-0.4
		c0.7,0.9,1.1,2,1.7,3c0.3-0.6,0.5-1.2,0.9-1.8c0.4-0.6,0.8-1.1,1.3-1.6c1.5-1.4,3.4-1.4,4.7,0.1c1.1,1.4,1.9,3.1,2.9,4.7
		c2.4-1.1,4.3-3,5.8-5.3c0.6-1,0.6-1.9-0.2-2.8c-0.7-0.8-1.4-1.6-2-2.5c-1,0.7-2,1.5-3,2.2c3.8-3.8,6-8.5,7.6-13.4
		c1.4-4.2,2.2-8.4,1.2-12.8c-1.5-5.9-4.6-10.4-10.3-13.1c-3.5-1.6-7-3.6-8-8c-1,0.2-2,0.4-2.9,0.5c-1,0.1-2,0.1-3,0.1
		c-0.9,0-1.9,0-2.8,0c4.9-0.4,9.5-1.5,13.5-4.8C225.5,143.2,223.7,141.1,224,138z M253,171.4c0.4-1.9-0.2-5.3-1.3-6.9
		c-0.2-0.2-0.6-0.5-0.9-0.5c-1.6,0.2-3.1,0.7-4.5,1.7c0.4,0.3,0.6,0.5,0.9,0.7c1.6,1.2,2.8,2.6,3.6,4.5c0.6,1.6,0.4,2.7-1.1,3.6
		c-0.6,0.4-1.3,0.8-2,0.8c-1.5,0.1-3,0-4.4,0c-0.3,1.7-0.6,3.5-1,5.4c0.2,0.1,0.4,0.2,0.6,0.2c4.1,0.8,7.3-0.9,8.9-4.8
		c0.3-0.7,0.6-1.1,1.4-1.2c2.6-0.5,4.2-2.2,5-4.7c0.4-1.4,0.4-2.7-0.3-3.9c-0.4,1.7-0.9,3.3-1.3,4.9c-0.2,0-0.4,0-0.5,0
		c-0.1-0.3-0.2-0.7-0.2-0.9c0.1-0.6,0.4-1.1,0.5-1.6c1-3.7,0.1-4.8-3.8-4.8c-0.1,0-0.1,0.1-0.2,0.1c0.9,2.3,1.8,4.7,1.2,7.4
		C253.6,171.5,253.3,171.5,253,171.4z M236.7,92.5c2.1,2.6,4.1,5.1,6,7.5c3.3,0,6.7,0,10.1,0c-0.9-3-2.3-5.5-4.2-7.6
		c-0.8-0.9-1.7-1.2-2.9-1.3C242.6,91,239.6,91.5,236.7,92.5z M181.8,141.2c-3-1.1-3.8-1.8-5.6-4.6c-0.7-1.1-1.3-2.2-2.1-3.2
		c-1-1.3-2-1.3-3,0c-1.5,1.9-2.2,4.1-1.6,6.6c0.7,2.7,3.1,4.8,5.6,5C178.3,145.3,180.6,144,181.8,141.2z M221.7,207.2
		c-0.5-2.8-1-5.1-2.9-6.9c-1.5-1.3-2.8-1.3-3.8,0.3c-1,1.6-1.6,3.3-2.6,5.3C215.7,206.5,218.6,206.8,221.7,207.2z M174.8,168.7
		c0.8-0.5,1.7-1,2.6-1.7c0.2-0.2,0.3-0.6,0.4-0.9c0.2-1.4,0.3-2.9,0.7-4.4c0.5-2.1,1.2-4.1,1.8-6.1c-2.8,1.6-5.5,4.4-6.7,7.1
		c-0.1,0.2-0.2,0.5-0.1,0.8C174,165.3,174.4,167,174.8,168.7z M221.8,206.8c0.2,0.2,0.3,0.3,0.5,0.5c2.8-0.5,5.6-0.9,8.7-1.4
		c-0.9-1.7-1.4-3.1-2.3-4.2c-1.2-1.8-3.1-1.9-4.3,0C223.3,203.2,222.7,205,221.8,206.8z M197.2,202.5c0.1-0.1,0.2-0.3,0.4-0.4
		c-0.7-1.8-1.3-3.7-2.1-5.4c-0.6-1.2-1.2-1.3-2.4-0.5c-1.9,1.2-2.8,3.2-4,5.2C191.9,201.8,194.6,202.2,197.2,202.5z M188.7,201.2
		c-0.3-2.4-0.5-4.5-2-6.2c-0.9-1.1-1.6-1-2.2,0.3c-0.3,0.6-0.5,1.2-0.7,1.8c-0.2,1.1-0.1,2.1,1.2,2.6
		C186.2,200.1,187.4,200.6,188.7,201.2z M209.4,198.4c-2.6,4.9-1.4,6.4,3.1,7.2C211.8,203.1,211.7,200.4,209.4,198.4z M177.7,167.7
		c-1.4,1.2-2.6,2.1-4,3.3c1.6,0.7,2.9,1.2,4.3,1.7C178,171.1,177.9,169.6,177.7,167.7z M172.7,163.8c-0.4,1.2-0.7,2.1-1,3
		c-0.6,1.9-0.2,2.7,1.7,3.5C173.9,168.2,173.5,166.2,172.7,163.8z"/>
	<path d="M201.8,135.4c-4.6-0.3-8.4-1.5-11.4-4.8c-2.1-2.4-2.3-5.2-1.9-8.1c0.8-5.4,3.2-9.9,7.6-13.3c5.6-4.2,11.6-2.6,15.4,2.1
		c3.7,4.5,4.6,9.5,2.4,15.1c-1.7,4.5-4.7,7.3-9.2,8.6C203.7,135.3,202.6,135.3,201.8,135.4z M209.9,111.5c-3.5-3.4-6.9-3.9-10.6-1.3
		c-4,2.8-5.6,7.1-5.7,11.9c-0.1,6,5.4,11.3,11.1,11.2c2.6,0,4.5-1.2,5.9-3.2c-2.1,1.3-4.3,1-6.4,0.5c-3.3-0.8-6.8-3.6-7.1-7.8
		c-0.2-2.8,0.7-5.3,2-7.7C201,111.3,204.6,108.9,209.9,111.5z M200.5,108.7c-0.5,0.1-0.6,0.1-0.7,0.1c-0.4,0.2-0.8,0.4-1.2,0.6
		c-4.8,2.8-7.5,7.1-8.6,12.4c-0.7,3.6-0.5,6.9,2.6,9.4c1.9,1.5,4.1,2.5,6.5,3c1.9,0.4,3.7,0.4,5.6-0.1c-6.5-0.2-10.5-5.4-11.5-9.2
		C191.9,119.5,195,111.3,200.5,108.7z M204.1,116.5c0-1.5-1.1-2.6-2.4-2.6c-1.3,0-2.5,1.3-2.5,2.7c0,1.4,1.1,2.6,2.5,2.5
		C203.1,119.1,204.1,118,204.1,116.5z"/>
	<path d="M199.4,155c0.3,2.3,0.5,4.7,0.8,7c1-0.1,2-0.2,3-0.3c-3,0.9-5.3,2.8-7.1,4.9c0.6,1.8,1.1,3.5,1.6,5.1c0.5-0.3,1.2-0.7,2-1
		c2-0.8,3.4-0.1,4,2c0.3,1.1,0.4,2.2,0.6,3.4c0.7-0.6,1.3-1.2,2.1-1.7c2.6-1.9,4.7-1,5.2,2.3c0.1,0.4,0.1,0.8,0.2,1.5
		c7.9-2.5,11.7-8.3,13.9-15.7c-0.4,1.8-0.6,3.7-1.3,5.4c-1.5,3.9-3.9,7.3-7.4,9.6c-1.9,1.2-4.3,1.8-6.5,2.3c-5.1,1-9.9,0.2-14.2-2.8
		c-1.6-1.1-2.8-2.8-4.1-4.2c-0.2-0.2-0.1-0.7-0.1-1c0.9-3.5,3.3-6,6-8.2c0.6-0.4,1-0.8,1-1.7c0-2.3,0.2-4.6,0.3-6.9
		C199.3,155,199.4,155,199.4,155z M202.8,178.7c0.4-2.1,0.5-4.1-0.1-6.1c-0.4-1.2-1-1.5-2.3-1.2c-2.3,0.5-3.3,2.4-4.7,4.2
		C197.9,177.2,200.1,178.3,202.8,178.7z M211.1,178.7c-0.5-1.5-0.7-2.7-1.2-3.8c-0.3-0.8-1-1-1.9-0.6c-2.1,0.9-3.4,2.6-4.7,4.4
		c0,0.1,0.1,0.3,0.1,0.4C205.8,179,208.2,178.9,211.1,178.7z M195.5,167.9c-3.1,2.5-3,5.5,0.1,7.4
		C196.5,172.9,197.2,170.4,195.5,167.9z"/>
	<path d="M258,120.5c0.1-1.8-0.2-3.4-1.4-4.9c-1.5-1.9-3.1-2.3-5.2-1.1c-2.6,1.5-5.1,3.3-7.8,4.7c-4.3,2.2-9,1.1-11.9-2.5
		c-0.6-0.7-1-1.6-1.2-2c0.6,0.5,1.4,1.2,2.3,1.9c3.1,2.5,6.5,3,10.1,1.3c1.9-0.9,3.7-2.1,5.5-3.2c0.8-0.5,1.7-1.1,2.5-1.5
		c2.3-1.1,4.1-0.8,5.8,0.9C258.5,115.8,259,118.4,258,120.5z"/>
	<path d="M217.8,108c-1.1-6.7-3.9-9.3-8.1-9.3c0.7-1.2,1.9-1.6,3.4-1.2c2.6,0.7,5,3.8,5.1,6.9c0.1,1.2,0,2.4,0,3.6
		C218,108,217.9,108,217.8,108z"/>
</g>
<g>
	<g>
		<path d="M90.3,74.5c0.4-0.3,0.5-0.4,1-0.6c0.2-0.1,0.3-0.1,0.5-0.2c0.2-0.1,0.4-0.1,0.6,0c0.2-0.3,0.4-0.5,0.5-0.6
			c9.3-8.6,13-19.2,10.9-31.7c-3.6-21.3-25.6-33-45.1-25.6c-14,5.3-24,20.3-21.2,37.3c2.5,15.5,15.7,27.9,32.5,28.4
			c7,0.2,13.5-1.7,19.4-5.7c0.1-0.1,0.2-0.1,0.3-0.2C89.8,75.2,90,74.7,90.3,74.5z M70.7,80.1c-17.4,0.1-32-14.7-32.1-32.3
			c-0.1-17,13.2-32.6,32.1-32.6c18.6,0,32.1,14.7,32.1,32.5C103,65.4,88.5,80,70.7,80.1z"/>
	</g>
	<g>
		<path d="M47.6,34.1c4.1-5.5,9.9-9.7,16.9-11.6c0-0.5,0-1,0-1.4c0,0,0-0.1,0-0.1c-1.1,0.3-2.2,0.6-3.3,1.1
			c-5.9,2.3-11.1,6.3-14.9,11.4C46.7,33.7,47.2,33.9,47.6,34.1z"/>
		<path d="M89.3,69.1c-2.5,2.2-5.4,4-8.5,5.3c0.2,0.5,0.3,1,0.5,1.5c2-0.8,3.9-1.9,5.8-3.2c0.1-0.1,0.2-0.1,0.3-0.2
			c0-0.5,0.2-0.9,0.6-1.2c0.4-0.3,0.5-0.4,1-0.6c0.2-0.1,0.3-0.1,0.5-0.2c0.2-0.1,0.4-0.1,0.6,0c0.1-0.2,0.2-0.3,0.3-0.4
			C90,69.9,89.6,69.5,89.3,69.1z"/>
	</g>
</g>
<g>
	<g>
		<path d="M241.4,37.6c-1.7-10.2-12.3-15.9-21.7-12.3c-6.7,2.6-11.5,9.8-10.2,17.9c1.1,6.6,6.2,12,13,13.3c0-0.2,0-0.5,0.1-0.7
			c-7-1.4-12.5-7.8-12.5-15.3C210,32.5,216.4,25,225.5,25c9,0,15.4,7.1,15.4,15.6c0,3.3-1,6.4-2.8,8.9c0.2,0.1,0.4,0.3,0.6,0.5
			C241.3,46.4,242.2,42.3,241.4,37.6z"/>
	</g>
	<g>
		<path d="M214.4,34.1c2-2.6,4.8-4.7,8.1-5.6c0-0.2,0-0.5,0-0.7c0,0,0,0,0,0c-0.5,0.1-1,0.3-1.6,0.5c-2.9,1.1-5.4,3-7.2,5.5
			C214,33.9,214.2,34,214.4,34.1z"/>
	</g>
</g>
<g>
	<g>
		<path d="M149.5,85.9c-2.5-14.8-17.8-23-31.5-17.8c-9.8,3.7-16.7,14.2-14.8,26c0,0,0,0,0,0.1c0.1,0,0.3,0,0.4,0c0.2,0,0.5,0,0.7,0
			c-0.2-1.3-0.4-2.6-0.4-3.9c-0.1-11.9,9.2-22.7,22.4-22.7c13,0,22.4,10.3,22.4,22.7c0.1,12.4-10,22.6-22.4,22.6
			c-2.8,0-5.6-0.6-8.1-1.6c0,0.4-0.1,0.7-0.2,1c2.4,0.9,5,1.5,7.8,1.6c4.9,0.1,9.5-1.2,13.5-4c0.1,0,0.1-0.1,0.2-0.1
			c0-0.3,0.2-0.6,0.4-0.8c0.3-0.2,0.4-0.3,0.7-0.4c0.1,0,0.2-0.1,0.3-0.1c0.1,0,0.3,0,0.4,0c0.2-0.2,0.3-0.3,0.4-0.4
			C148.4,102,151,94.6,149.5,85.9z"/>
	</g>
	<g>
		<path d="M110.2,80.8c2.8-3.8,6.9-6.8,11.8-8.1c0-0.3,0-0.7,0-1c0,0,0,0,0-0.1c-0.8,0.2-1.5,0.4-2.3,0.7c-4.1,1.6-7.8,4.4-10.4,8
			C109.6,80.5,109.9,80.7,110.2,80.8z"/>
		<path d="M139.3,105.2c-1.8,1.5-3.8,2.8-6,3.7c0.1,0.3,0.2,0.7,0.4,1c1.4-0.6,2.8-1.3,4.1-2.2c0.1,0,0.1-0.1,0.2-0.1
			c0-0.3,0.2-0.6,0.4-0.8c0.3-0.2,0.4-0.3,0.7-0.4c0.1,0,0.2-0.1,0.3-0.1c0.1,0,0.3,0,0.4,0c0.1-0.1,0.2-0.2,0.2-0.3
			C139.8,105.8,139.6,105.5,139.3,105.2z"/>
	</g>
</g>
<g>
	<g>
		<g id="XMLID_9_">
			<g>
				<path d="M107.6,122.9c1.5-0.6,2.8-1.5,4-2.5c0.2,0.2,0.3,0.4,0.5,0.5c0,0-0.1,0.1-0.2,0.2c-0.1,0-0.2,0-0.3,0
					c-0.1,0-0.2,0-0.2,0.1c-0.2,0.1-0.3,0.1-0.5,0.3c-0.2,0.1-0.3,0.3-0.3,0.6c-0.1,0-0.1,0-0.1,0.1c-0.9,0.6-1.8,1.1-2.8,1.5
					C107.8,123.3,107.7,123.1,107.6,122.9z"/>
				<path d="M99.9,97.6c0,0.2,0,0.4,0,0.7c-3.3,0.9-6.1,2.9-8,5.5c-0.2-0.1-0.4-0.2-0.6-0.3c1.8-2.4,4.3-4.3,7.1-5.4
					C98.9,97.9,99.4,97.7,99.9,97.6C99.9,97.6,99.9,97.6,99.9,97.6z"/>
				<path d="M102.9,125.5c8.4,0,15.2-6.9,15.2-15.3c0-8.4-6.4-15.4-15.2-15.4c-9,0-15.3,7.3-15.2,15.4
					C87.8,118.6,94.7,125.6,102.9,125.5z M113.2,122.5c-0.1,0-0.2,0-0.3,0c-0.1,0-0.2,0.1-0.2,0.1c-0.2,0.1-0.3,0.1-0.5,0.3
					c-0.2,0.1-0.3,0.3-0.3,0.6c-0.1,0-0.1,0.1-0.1,0.1c-2.8,1.9-5.9,2.8-9.2,2.7c-7.9-0.2-14.2-6.1-15.4-13.4
					c-1.3-8,3.4-15.1,10-17.6c9.2-3.5,19.6,2,21.3,12.1c1,5.9-0.8,10.9-5.2,15C113.3,122.3,113.3,122.4,113.2,122.5z"/>
			</g>
			<g>
			</g>
		</g>
	</g>
</g>
<g>
	<g>
		<g id="XMLID_11_">
			<g>
				<path d="M243.1,56.2c0.7,3.9-0.5,7.3-3.4,10c0,0-0.1,0.1-0.2,0.2c-0.1,0-0.1,0-0.2,0c-0.1,0-0.1,0-0.2,0.1
					c-0.1,0.1-0.2,0.1-0.3,0.2c-0.1,0.1-0.2,0.2-0.2,0.4c0,0-0.1,0-0.1,0.1c-1.8,1.3-3.9,1.9-6.1,1.8c-5.3-0.1-9.5-4.1-10.3-9
					c-0.9-5.4,2.3-10.1,6.7-11.8C235,45.8,242,49.5,243.1,56.2z M232.7,68.4c5.6,0,10.2-4.6,10.1-10.2c0-5.6-4.3-10.3-10.1-10.3
					c-6,0-10.2,4.9-10.1,10.3C222.6,63.7,227.2,68.4,232.7,68.4z"/>
				<path d="M238.9,65.3c0,0-0.1,0.1-0.1,0.1c-0.1,0-0.1,0-0.2,0c0,0-0.1,0-0.2,0c-0.1,0.1-0.2,0.1-0.3,0.2
					c-0.1,0.1-0.2,0.2-0.2,0.4c0,0-0.1,0-0.1,0.1c-0.6,0.4-1.2,0.7-1.8,1c-0.1-0.2-0.1-0.3-0.2-0.5c1-0.4,1.9-1,2.7-1.7
					C238.6,65,238.7,65.2,238.9,65.3z"/>
				<path d="M230.7,49.8c0,0.1,0,0.3,0,0.4c-2.2,0.6-4,1.9-5.3,3.7c-0.1-0.1-0.3-0.1-0.4-0.2c1.2-1.6,2.8-2.9,4.7-3.6
					C230,49.9,230.3,49.8,230.7,49.8C230.7,49.7,230.7,49.7,230.7,49.8z"/>
			</g>
			<g>
			</g>
		</g>
	</g>
</g>
<g>
	<g>
		<g id="XMLID_10_">
			<g>
				<path d="M158.3,176.4c1.3,7.6-1,14-6.6,19.2c-0.1,0.1-0.2,0.2-0.3,0.3c-0.1,0-0.3,0-0.4,0c-0.1,0-0.2,0.1-0.3,0.1
					c-0.3,0.1-0.4,0.2-0.6,0.3c-0.2,0.2-0.3,0.4-0.4,0.7c-0.1,0-0.1,0.1-0.2,0.1c-3.5,2.4-7.5,3.6-11.7,3.5
					c-10.2-0.3-18.1-7.8-19.7-17.2c-1.7-10.3,4.3-19.4,12.8-22.6C142.8,156.4,156.1,163.5,158.3,176.4z M138.3,199.8
					c10.8-0.1,19.5-8.9,19.5-19.6c0-10.8-8.2-19.7-19.5-19.7c-11.5,0-19.5,9.4-19.5,19.7C118.9,191,127.7,199.9,138.3,199.8z"/>
				<path d="M150.2,193.9c-0.1,0.1-0.1,0.1-0.2,0.2c-0.1,0-0.3,0-0.4,0c-0.1,0-0.2,0.1-0.3,0.1c-0.3,0.1-0.4,0.2-0.6,0.3
					c-0.2,0.2-0.3,0.4-0.4,0.7c-0.1,0-0.1,0.1-0.2,0.1c-1.1,0.8-2.3,1.4-3.5,1.9c-0.1-0.3-0.2-0.6-0.3-0.9c1.9-0.8,3.6-1.9,5.2-3.2
					C149.7,193.4,150,193.7,150.2,193.9z"/>
				<path d="M134.5,164.1c0,0.3,0,0.6,0,0.9c-4.2,1.2-7.8,3.7-10.2,7c-0.3-0.1-0.6-0.3-0.8-0.4c2.3-3.1,5.5-5.5,9.1-6.9
					C133.2,164.4,133.8,164.2,134.5,164.1C134.5,164.1,134.5,164.1,134.5,164.1z"/>
			</g>
			<g>
			</g>
		</g>
	</g>
</g>
<g>
	<path d="M166,21.3c-0.1,0.1-0.2,0.2-0.2,0.2c-0.1-1.1,0-2.3-0.4-3.4c-0.6-2-1.9-3.5-3.7-4.7c-1-0.7-2.1-0.9-3.2-0.3
		c-0.6,0.3-1.2,0.8-1.8,1.1c-1.8-4.4-6.1-5.5-9-1.5c0,0,0,0-0.1,0c-1.4-2.6-3.4-4.4-6.5-4.7c-0.2,0-0.5-0.2-0.7-0.2
		c-0.6,0.2-1.2,0.5-1.8,0.9c-1.1,0.6-1.4,1.3-1,2.4c0.3,0.7,0.6,1.4,1,2.1c0.8,1.5,1.5,3,2.3,4.4c-0.7,0.7-1.3,1.5-1.9,2.2
		c-0.2-0.2-0.6-0.6-0.9-0.9c-1.5-1.6-3.3-2.2-5.5-2.2c-1,0-1.6,0.5-2.2,1.2c-0.7,0.9-0.6,1.6,0.3,2.9c2,2.7,4,5.3,6,8
		c0.9,1.2,1.9,2.5,2.2,4c0.5,2.1,1.8,3.6,3.6,4.8c1,0.6,1.9,1.3,2.9,2c-2.4,0.7-4.5,1.7-6.4,3.1c-0.5,0.4-1,0.6-1.7,0.5
		c-0.6-0.1-0.9,0.4-0.8,1.1c0,0.2,0,0.5-0.1,0.7c-1,1.2-1.2,2.6-1.1,4.1c0.1,0.9,0.3,1.7,0.4,2.7c-5.7,1.6-11.4,3.2-17.2,4.9
		c0,0,0,0,0,0c-0.4,0.2-0.9,0.5-1.3,0.7c0,0.1,0,0.2,0,0.3c0.2,0,0.5,0,0.7,0.1c0.1-0.1,0.3-0.2,0.5-0.2c6.5-0.7,13.1-1.5,19.6-2.2
		c0.2,0,0.5,0,0.7,0.1c1.2,0.8,2.6,1.1,3.9,1.1c1.6,0,3.1,0.5,4.6,0.9c0.7,0.2,1.3,0.5,1.9,0.8c1.1,0.5,2.2,1.2,3.4,1.5
		c2.5,0.8,5,1.3,7.5,2.1c3.7,1.1,7.4,1.6,11.2,1.3c0.4,0,0.8,0,1.2,0.2c3.8,2,7.5,4.3,10.8,7c1.1,0.9,2.2,1.7,3.4,2.4
		c1,0.6,2.2,0.9,3.4,0.6c0.8-0.2,0.9-0.6,0.4-1.3c-0.2-0.2-0.3-0.4-0.5-0.6c-0.6-0.6-1.3-1.2-1.9-1.9c-0.2-0.2-0.4-0.6-0.3-0.9
		c0.2-0.6,0.1-1-0.3-1.4c-1.2-1.2-2.5-2.4-3.8-3.5c-0.4-0.3-0.7-0.7-1.2-1.1c1.5,0.1,2.9,0.2,4.2,0.2c1.6,0.1,3.2,0.1,4.8,0.1
		c0.8,0,1.4-0.4,1.9-1.2c0.4-0.7,1-1.1,1.8-0.9c0.4,0.1,0.7,0.1,1.1,0.1c0.7,0.1,1.5,0.2,2.2,0.2c0.2,0,0.5-0.1,0.6-0.3
		c0.1-0.1-0.1-0.4-0.2-0.6c-0.4-0.4-0.8-0.8-1.3-1.1c-3-2.3-6.2-3.5-10-3.2c-2.5,0.2-5,0.3-7.5,0.3c-1.4,0-2.7-0.3-3.7-1.6
		c-2.3-2.9-5.3-5.1-8.6-7c0.1-0.3,0.2-0.6,0.4-0.8c1-1.3,2.1-2.6,3.1-3.9c1.6-2.1,2.6-4.4,3-7c0.2-1.3-0.2-2.3-1.3-3
		c-0.7-0.5-1.5-0.9-2.2-1.3c0.9-0.7,1.6-1.6,1.6-2.9c-0.1-1.3-0.2-2.5-0.4-3.8c-0.4-2-1.7-3.3-3.6-4.1
		C167.3,20.5,166.6,20.5,166,21.3z M142.4,36.6c-1.3-1-2.3-2.1-2.7-3.8c-0.4-1.9-1.5-3.4-2.7-4.9c-1.9-2.6-3.9-5.2-5.8-7.8
		c-0.9-1.2-0.1-2.7,1.4-2.8c2.4-0.1,4.3,1,5.8,2.8c0.5,0.7,1,1.4,1.5,2.1c0.2,0.2,0.4,0.3,0.7,0.5c0.1-0.1,0.1-0.1,0.2-0.2
		c-0.2-0.4-0.4-0.8-0.7-1.1c-0.5-0.6-0.5-1.2-0.1-1.7c0.4-0.5,0.8-0.9,1.3-1.5c1.5,3,3.5,5.5,3.7,8.8c0.1,2.7,1.6,4.7,3.5,6.5
		c1.1,1,2.2,2,3.1,3.2c1.3,1.7,1.6,3.8,1.8,6c-1-0.9-2-1.7-3-2.5c-1-0.8-2.1-1-3.4-0.9c-0.5,0.1-0.9,0-1.2-0.3
		C144.7,38.1,143.5,37.4,142.4,36.6z M137.2,43.6c1.4,0.3,2.7,0.5,4.1,0.7C139.5,44.9,137.5,44.6,137.2,43.6z M124.2,55.6
		c4.9-1.4,9.8-2.8,14.7-4.2c0.4,0.6-0.3,2-0.9,2.1c-4.6,0.7-9.2,1.4-13.8,2.2C124.2,55.7,124.2,55.7,124.2,55.6z M133.6,54.9
		c1.2-0.2,2.3-0.4,3.5-0.6c1.1-0.1,2.2-0.3,2.4-1.8c0.5,0.9,0.1,1.8-0.7,1.9C137.1,54.6,135.4,54.9,133.6,54.9z M139.8,55.2
		c0.1-0.4,0.2-0.7,0.3-0.9c0.3-0.8,0.5-1.5-0.1-2.3c-0.1-0.2,0-0.7,0.2-0.8c1.1-0.7,2-1.8,3.4-2c0.2,0,0.3-0.4,0.5-0.5
		c-0.2-0.1-0.4-0.1-0.5-0.2c-0.2-0.1-0.4-0.2-0.5-0.3c-0.8-0.7-1.6-1.4-2.5-2c-1-0.6-2.1-0.3-3.2,0.2c-0.8,0.4-1.1,1.3-0.9,2.2
		c0.3,1,0.9,1.7,1.9,2.3c-0.7,0.2-1.3,0.4-1.9,0.6c-0.4-1.9-0.9-3.7,0-5.5c0.5-1,0.6-1,1.7-0.9c1.3,0.2,2.7,0.2,3.9-0.4
		c0.2-0.1,0.3-0.4,0.4-0.6c-0.2-0.1-0.4-0.3-0.6-0.3c-0.9-0.2-1.8-0.3-2.7-0.4c0-0.1,0-0.1-0.1-0.2c0.6-0.4,1.2-0.8,1.9-1.2
		c1.6-0.9,3.2-1.6,5-2c1.5-0.3,2.9-0.2,4.2,0.8c0.8,0.7,1.6,1.5,2.5,2.2c0.7,0.6,0.7,1.4,0.6,2.3c-1.2-0.2-2.5-0.3-3.7,0.3
		c-0.7,0.4-1.5,0.8-2,1.3c-1.2,1.1-2.3,2.3-3.3,3.6c-1.1,1.4-1.1,3.3-0.4,5.4C142.5,55.7,141.2,55.5,139.8,55.2z M139.6,47.2
		c0.5,0.6,0.5,1.4-0.1,2c-0.5,0.5-1.4,0.5-1.9,0c0.3-0.3,0.8-0.7,0.8-1c0-0.3-0.4-0.8-0.6-1.2C138.4,46.6,139.1,46.6,139.6,47.2z
		 M140.1,46.8l0.1-0.2c0.5,0.4,1.1,0.7,1.5,1.1c0.3,0.3,0.1,1.2-0.5,1.5c-0.6,0.4-1.2,0.6-1.8,1C140.7,49.2,141,48,140.1,46.8z
		 M158.4,59.6c0.3,0.4,0.7,0.8,1.2,1.3c-0.9-0.2-1.7-0.4-2.6-0.7c-2.1-0.7-4.3-1.3-6.3-2.2c-1.6-0.7-3.1-1.5-4.8-1.9
		c-1.5-0.3-1.7-0.8-1.8-2.3c-0.1-1.5,0.3-2.8,1.3-3.9c1.3-1.4,2.5-2.9,4.2-3.8c1.3-0.7,2.7-0.7,4-0.2c1.1,0.4,1.5,2.4,0.7,3.2
		c-0.3,0.3-0.6,0.6-1,0.8c-0.6,0.4-0.8,1.2-0.5,1.9c0.2,0.5,0.6,0.8,1.1,0.6c1.5-0.6,2.6,0.3,3.9,0.8c-0.9,0.6-1,1-0.2,1.7
		c0.3,0.3,0.7,0.6,1.1,0.9c-0.2,0.1-0.4,0.2-0.5,0.2c-0.5,0.3-0.5,0.7,0,1c0.4,0.3,0.9,0.6,1.5,0.9c-0.5,0.2-0.8,0.3-1.1,0.4
		C158.2,58.8,158,59.1,158.4,59.6z M178.1,56.7c0.7,0.1,1.3,0.2,1.8,0.1c2.1-0.1,4.1-0.2,6.2-0.2c2-0.1,4.1-0.3,6.1,0.3
		c2.3,0.7,4.2,1.9,6,3.5c-0.9-0.1-1.8-0.2-2.7-0.3c-1-0.1-1.9,0.1-2.4,1c-0.5,0.9-1.3,1.1-2.2,1.1c-1.8,0-3.6-0.1-5.4-0.2
		c-1,0-1.9-0.1-2.9-0.2c-0.2,0-0.5,0.2-0.8,0.3c0.1,0.2,0.1,0.6,0.3,0.7c1.5,1.3,2.9,2.7,4.4,4c0.5,0.5,1.1,1,0.7,1.9
		c-0.1,0.3,0.2,0.8,0.5,1.1c0.8,0.9,1.6,1.7,2.5,2.5c0,0.1-0.1,0.2-0.1,0.3c-0.7-0.1-1.5,0-2.1-0.3c-1.2-0.6-2.5-1.2-3.5-2.1
		c-3.3-2.7-6.8-5.2-10.7-7.2c0,0-0.1-0.1-0.1-0.1c1.1-0.1,2.1-0.2,3.2-0.4c0.9-0.2,1.8-0.5,2.6-0.9c0.6-0.2,0.7-0.8,0.7-1.4
		c0.1-1.1-0.7-1.8-1.3-2.6C178.7,57.5,178.5,57.2,178.1,56.7z M175.5,54.7c-2.8-2.1-5.5-4.2-9.1-5.1c0.3-0.5,0.6-0.9,1-1.4
		C170.5,50,173.2,52.1,175.5,54.7z M167.3,47c-0.8,1.7-2.1,3.1-3.3,4.5c-0.4,0.4-0.4,0.4,0,0.9c0.5-0.6,1-1.1,1.5-1.7
		c0.4-0.5,0.7-0.7,1.4-0.5c2.9,0.9,5.4,2.5,7.7,4.5c1.4,1.2,2.7,2.6,4.1,3.9c0.1,0.1,0.2,0.2,0.3,0.3c1.1,1.6,0.9,2.3-1,2.7
		c-1.4,0.3-2.8,0.5-4.2,0.6c-3.8,0.3-7.6,0.3-11.4-0.6c-1.6-0.4-2.4-1.5-3.5-2.5c0.5-0.2,0.9-0.3,1.2-0.5c0.6-0.3,0.7-0.8,0.1-1.2
		c-0.4-0.3-0.7-0.5-1.1-0.7c0.2-0.3,0.6-0.5,0.6-0.7c0-0.3-0.3-0.6-0.5-0.8c-0.3-0.4-0.7-0.7-1.1-1.1l0.8-0.8
		c-0.3-0.3-0.7-0.6-1-0.8c-0.6-0.3-1.3-0.6-2-0.8c-0.5-0.1-1-0.1-1.5,0c-0.4,0-0.8,0.3-0.9-0.2c-0.1-0.3,0.1-0.7,0.3-1
		c0.2-0.3,0.5-0.4,0.7-0.7c1.2-1.1,1.2-2.9,0.1-4c-0.4-0.4-0.5-0.7-0.5-1.2c0-2.9-0.1-5.8-1.8-8.2c-1-1.5-2.4-2.7-3.7-4
		c-1.6-1.5-2.8-3.1-2.8-5.3c-0.1-2.9-1.5-5.3-2.9-7.7c-1.5-2.7-2.9-5.4-4.3-8.2c-0.5-0.9-0.4-1.2,0-1.6c1.2,2.3,2.3,4.6,3.5,6.9
		c1.2,2.1,2.4,4.2,3.7,6.3c0.5,0.9,0.9,1.8,0.9,2.9c0,1.5,0.8,2.6,1.7,3.6c1.1,1.1,2.2,2.1,3.2,3.3c1.6,1.8,3.1,3.7,3.6,6.1
		c0.3,1.5,0.3,3.2,0.5,4.8c0.2,1.7,0.5,3.3,0.8,4.9c0,0.1,0.2,0.2,0.3,0.3c0.1-0.1,0.3-0.2,0.3-0.3c0-0.4-0.1-0.8-0.1-1.1
		c-0.3-2.4-0.7-4.7-0.9-7.1c-0.2-2-1-3.8-2.2-5.5c1.7-0.1,3.2,0,4.7,0.7c0.6,0.3,1.3,0.6,1.8,0.9c1.1,0.7,1.9,1.6,2.2,2.9
		c0.3,1.1,1,1.9,1.9,2.7c1,0.8,1.8,1.8,2.7,2.8C167.9,45.3,167.7,46.2,167.3,47z M171,24.5c0.3,1.4,0.5,2.9,0.5,4.4
		c0,0.5-0.4,1.1-0.7,1.6c-0.3,0.5-0.8,0.8-1.2,1.2c-0.2,0.2-0.3,0.5-0.3,0.9c0.9-0.4,1.7-0.2,2.4,0.2c1.6,0.9,2.1,1.8,1.7,3.6
		c-0.5,2.3-1.4,4.4-2.8,6.2c-0.7,1-1.5,1.9-2.3,2.9c-0.8-2.1-2.5-3.4-4-4.8c-0.4-0.4-0.7-0.9-0.9-1.4c-0.9-3.5-3.7-4.6-6.7-5.3
		c-0.9-0.2-1.8-0.1-2.7-0.2c-0.4,0-0.8-0.2-1-0.5c-1.1-1.1-2.2-2.3-3.4-3.5c-0.6-0.6-1.2-1.2-1.7-1.9c-0.3-0.4-0.7-1-0.7-1.5
		c0-2.2-1.2-3.9-2.2-5.7c-1.9-3.5-3.8-7.1-5.7-10.6c-0.3-0.6-0.1-1,0.4-1.2c0.6-0.2,1.2-0.3,1.8-0.3c1.9,0.2,3.4,1.3,4.5,2.9
		c0.7,1.1,1.3,2.3,1.9,3.4c0.2,0.3,0.3,0.6,0.5,0.8c0.1,0,0.2-0.1,0.3-0.1c-0.1-0.3,0-0.7-0.2-1c-0.6-1.2-0.7-1.9,0.8-3
		c2.3-1.6,4.8-0.9,6.1,1.5c0.4,0.7,0.6,1.6,0.9,2.3c0.2,0.5,0.4,1.1,0.7,1.5c0.1,0.1,0.3,0.1,0.5,0.2c0-0.2,0-0.3,0-0.5
		c0-0.1-0.1-0.1-0.1-0.2c-0.7-1.5-0.7-1.7,0.3-2.5c0.9-0.9,2.3-1.1,3.2-0.5c1.8,1.1,3.1,2.6,3.7,4.5c0.3,1.1,0.1,2.3,0.1,3.5
		c0,0.4-0.1,0.9-0.1,1.3c0,0.2,0.1,0.5,0.2,0.7c0.1,0,0.2,0,0.3,0c0.1-0.2,0.2-0.5,0.3-0.7c0.3-0.5,0.7-1.1,1.1-1.6
		c0.2-0.2,0.6-0.3,0.9-0.2C169.2,21.7,170.6,22.7,171,24.5z"/>
	<path d="M134.6,25.5c-0.1,0-0.2,0-0.3,0c0,0,0,0,0,0c0.1,0.1,0.2,0.3,0.2,0.4C134.6,25.8,134.6,25.6,134.6,25.5z"/>
</g>
</svg>
