<?xml version="1.0" encoding="utf-8"?>
<!-- Generator: Adobe Illustrator 17.1.0, SVG Export Plug-In . SVG Version: 6.00 Build 0)  -->
<!DOCTYPE svg PUBLIC "-//W3C//DTD SVG 1.1//EN" "http://www.w3.org/Graphics/SVG/1.1/DTD/svg11.dtd">
<svg version="1.1" id="Layer_1" xmlns="http://www.w3.org/2000/svg" xmlns:xlink="http://www.w3.org/1999/xlink" x="0px" y="0px"
	 viewBox="0 0 288 216" enable-background="new 0 0 288 216" xml:space="preserve">
<g>
	<path d="M185.5,148.6c-0.4-1.5,0.3-3.3,1-5.3c0.3-0.9-0.3-2.1-0.7-3.1c-0.5-1.1-1.3-2.2-1.9-3.3c-1.2-2.2-1-4.4,0.3-6.5
		c0.3-0.6,1-1.2,1.6-1.4c1.3-0.5,1.7-1.4,1.7-2.6c-0.1-5.5,1.3-10.8,3-16c0.3-0.8,0.4-1.6,0.3-2.5c0-1.9,0.5-3.7,2-4.8
		c2.1-1.7,3.2-3.8,4.4-6.1c1.4-2.7,3.5-5.2,5.6-7.4c2.2-2.3,4.7-4.3,7.1-6.3c0.8-0.6,2-0.8,3-1.1c0.3-0.1,0.6,0,0.8-0.2
		c2.1-2,5.3-2.2,7.2-4.6c0.9-1.2,2.2-2.2,3.6-2.9c1-0.5,2.3-0.4,3.5-0.5c0.7-0.1,1.5,0.1,2.2-0.1c1.8-0.5,3.4-0.3,5.2,0.2
		c1.3,0.4,2.7,0.2,4,0.4c0.8,0.1,1.5,0.3,2.3,0.5c1.4,0.4,2.8,0.8,4.2,1.3c0.7,0.3,1.4,0.7,2,1.1c0.8,0.6,1.5,1.5,2.4,2
		c3.1,1.8,6,3.7,8.3,6.5c0.6,0.8,1.1,1.7,1.7,2.5c0.6,0.8,1.3,1.6,2,2.2c1.1,1,2.3,1.8,3.4,2.7c0.1,0.1,0.2,0.2,0.2,0.3
		c0.2,2.2,1.9,3.2,3.4,4.3c1.1,0.8,1.3,1.8,0.9,2.9c-0.4,1.1-0.1,2,0.6,2.8c3.3,3.7,4.7,8.3,5.9,12.8c0.5,2,1.1,3.8,2.2,5.5
		c1.3,2,0.4,3.8-0.9,5.1c-1.7,1.6-1.2,3-0.4,4.7c0.7,1.6,1.3,3.3,1.8,5c0.3,1.2,0.5,2.4,0.7,3.6c0.1,0.5,0.2,1.1,0,1.5
		c-0.8,1.5-0.5,3-0.5,4.6c0,6.7-2.6,12.3-7.9,16.4c-2,1.5-4.3,2.6-6.4,4c-0.8,0.5-1.6,1.2-2.2,2c-2.1,3.1-3.9,6.4-7.3,8.3
		c-1.3,0.7-2.6,1.4-3.9,1.8c-3.1,0.9-5.2,3.3-7.3,5.4c-0.4,0.4-0.5,1.1-0.8,1.6c-0.4,0.8-0.9,1.5-1.3,2.2c-0.3,0.5-0.6,1-0.8,1.6
		c-0.4,1.2-1.1,2-2.4,2.2c-0.5,0.1-1.1,0.5-1.6,0.8c-1.4,0.9-2.9,1.7-4.3,2.7c-0.8,0.6-1.8,1.4-2.1,2.3c-0.9,2-2.1,3.5-4.1,4.3
		c-0.6,0.3-1.1,0.9-1.6,1.4c-1.3,1.3-2.7,1.8-4.6,1.2c-1.8-0.6-3.6-1.2-5.7-1.1c-1.5,0.1-3.1-0.7-4.6-0.9c-1.2-0.2-2.5-0.1-3.7-0.3
		c-0.8-0.1-1.7-0.4-2.4-0.9c-1.4-1.1-2.6-2.2-3.8-3.5c-0.5-0.6-1-1.3-1.2-2.1c-0.6-2.3-1.2-4.5-2.9-6.3c-0.2-0.2-0.3-0.7-0.4-1
		c-0.5-1.1-0.8-2.2-1.5-3.1c-1.4-2-2-4.2-2.2-6.5c-0.1-1.8-0.4-3.6-0.8-5.4c-0.6-3.4-1.2-6.9-2.1-10.2c-0.6-2.4-1.6-4.6-2.6-6.9
		C186.2,154,185.4,151.7,185.5,148.6z M202.3,192.8c-0.2,1.8,0.4,3.2,2.2,4.6c-0.2-0.6-0.1-1.1-0.3-1.3
		C203,195.3,202.5,194.2,202.3,192.8c-0.5-1.8-0.9-3.7-1.4-5.5c-0.1,0-0.3,0.1-0.4,0.1c0,0.4-0.1,0.8-0.1,1.3c-0.1,0-0.2,0-0.3,0.1
		c-0.5-1.6-1-3.2-1.6-4.9c-1,0.5-1.3,1-0.5,1.6c0.2,0.2,0.4,0.4,0.5,0.6C199.7,188.3,201,190.6,202.3,192.8z M217.1,90.7
		c-0.3,1.1-0.5,2.1-0.8,3.4c0.3-0.4,0.4-0.6,0.7-1c0.1,0.9,0.1,1.6,0.2,2.4c0.1,0,0.1,0,0.2,0c0.2-1.6,0.4-3.2,0.6-4.9
		C217.6,90.6,217.3,90.7,217.1,90.7c0.4-1.1,0.9-2.3,1.3-3.5c0.5-0.6,0.9-1.3,1.4-1.9c0.2-0.4,0.3-0.9,0.5-1.3
		c-0.8,0.3-1.4,0.7-2,1.2c-2,1.6-2.4,4-3.1,6.3c-0.4,1.3-0.8,2.6-1.2,3.9c-0.1,0-0.2-0.1-0.4-0.1c0.3-1.7,0.6-3.3,0.8-5
		c-1.2,2.9-1.5,5.8-0.1,8.6c0.6-2.2,1.2-4.4,1.8-6.5C216.4,91.8,216.8,91.3,217.1,90.7z M252.1,116.7c-1.1,0.8-1.4,1.8-0.8,3
		c0.2,0.5,0.2,1.1,0.3,1.6c0.4,2.6,0.6,5.2,3.4,6.7c0.7,0.4,1.5,1.2,1.7,2c0.4,1.4,0.5,3,0.7,4.6c1.2-0.8,1.3-1.7,0.7-2.8
		c-0.9-1.6-1.8-3.3-2.6-5c-0.2-0.4-0.2-1-0.4-1.5c-0.2-0.5-0.4-1-0.6-1.5c-0.5-1.3-1.9-2.4-1.5-4.1c0.3-1,0.6-2.1-0.8-2.6
		C252.2,117.3,252.2,116.9,252.1,116.7c0.7-0.9,0.5-1.9,0.3-2.9c-0.2-0.8,0.2-1.7,0.4-2.6c0.1-0.3,0.3-0.6,0.6-1.3
		c-2.2,0.3-3.2-2.4-5.6-1.7c3.1,1.4,3.3,1.7,2.4,4.4C251.7,113.5,252.3,114.9,252.1,116.7z M239.9,97.3c-0.3-1-0.7-2.1-1.1-3.5
		c-1.8,1.1-3.4,2.1-5.1,3.1c0.6,0.2,1.3,0.1,1.8-0.2C237,95.7,238.6,95.9,239.9,97.3c0.7,1.1,1.7,1.6,3,1.6c0.8,0,1.9,0.3,2.3,0.9
		c1,1.3,1.8,2.8,2.7,4.2c0.9,0,2-0.1,3,0c2.1,0.4,4.3,0.9,6.4,1.4c0.6,0.1,1.5,0,1.7,0.3c1.3,2,3.5,2.8,5.5,3.8
		c1.9,0.9,4.3,0.9,5.4,3.1c-0.6-1.8-1.9-2.8-3.3-3.8c-0.2-0.1-0.5-0.3-0.6-0.5c-1.8-2.7-3.9-4.9-7.5-5.1c-2.3-0.1-4.7-0.7-6.9-1.5
		c-1.6-0.5-3-1.7-4.5-2.5c-1-0.5-2.1-1-3.1-1C242.5,98.4,241.1,98.2,239.9,97.3z M195.2,141c-0.3-0.1-0.7-0.1-1-0.1
		c0-0.7-0.1-1.3-0.2-2.1c-0.8,0.6-1.3,0.9-1.8,1.3c1.2-1.9,2.9-2.8,5.1-2.6c1.9,0.2,3.4,1,4.7,2.2c-0.1,0.1-0.1,0.2-0.2,0.3
		c-0.5-0.3-1-0.5-1.6-0.8c0,0.9,0,1.7,0,2.6c0.9-0.2,1.6-0.4,2.2-0.7c0.3-0.2,0.7-1,0.5-1.2c-0.7-1.1-1.4-2.1-2.3-3
		c-0.4-0.4-1.3-0.2-2-0.2c-1.8,0.1-3.7-0.2-5.4,0.9c-0.8,0.5-1.8,0.8-2.6,1.2c-0.1-0.1-0.1-0.3-0.2-0.4c1.2-0.6,2.4-1.3,3.7-2
		c-2.1-0.9-3.2,0.7-4.6,1.4c-1.7,0.8-2,1.8-1.2,3.6c0.7,1.5,0.6,2.8,0.1,4.3c-0.4,1.4-0.9,2.8-0.9,4.2c0,3,1.4,5.5,2.9,8
		c0.1,0.2,0.5,0.4,0.8,0.6c0.2-0.5,0.3-0.9,0.4-1c3.2,3.2,3.2,7.8,5.1,11.8c0.7-0.8,1.6-1.8,1.4-2.5c-0.7-2.6,0.3-4.8,1.3-7.1
		c0.7-1.5,1.6-3.1,1.6-4.7c0.1-3.7,0.7-7.2,2.5-10.5c0.5-0.9,0.5-2.1,0.7-3.1c-0.1-0.1-0.3-0.2-0.4-0.3c-1.3,0.4-2.5,0.8-3.8,1.3
		c-2.5,1.1-4.9,1.2-7.2-0.3c-0.2-0.2-0.4-0.4-0.6-0.7c0.8,0.2,1.5,0.3,2.5,0.6c-0.1-0.2,0,0.1,0.1,0.2c0.1,0.2,0.3,0.3,0.5,0.4
		C195.4,142.1,195.3,141.5,195.2,141c0.3,0.4,0.6,0.7,1,1.1c0.2-0.1,0.5-0.2,0.7-0.3c-2.4-0.9-0.5-2-0.4-3
		C194.9,139.5,194.9,139.5,195.2,141z M245,113.1c1.1-0.9,1.9-1.5,2.9-2.2c-0.8-0.3-1.5-0.6-2.2-0.9c-0.7-0.3-1.5-0.6-2.3-1
		c0.8-0.8,0.8-2.2,2.4-1.5c0-0.2,0-0.3,0-0.5c-0.9-0.4-1.9-0.7-3.1-1.2c0.7-0.7,1.2-1.2,1.7-1.6c-0.7-0.6-1.3-1.1-2-1.7
		c-1.1-0.4-2.2-0.9-3-1.7c-1.4-1.4-1.4-1.4-2.8,0.1c-0.9,1-2.2,0.9-3.1,0c-0.3-0.3-0.8-0.4-1.2-0.4c-0.8-0.1-1.7,0-2.5,0
		c-0.6,0.3-0.9,1.1-1.4,1.7c-0.4,0.4-1.1,0.7-1.6,0.7c-0.3,0-0.6-0.9-0.8-1.4c-0.1-0.5,0-1.1,0-1.6c-0.2-0.1-0.3-0.1-0.5-0.2
		c-0.4,0.8-0.9,1.6-1.2,2.4c-0.6,1.5-1.2,3-3.6,2.4c0.9,1.2,0.2,1.7-0.6,1.8c-1.7,0.3-3.4,0.3-5.1,1c-0.8,0.3-2-0.2-3-0.3
		c-0.3,0-0.6,0-0.9-0.1c0.1,0.3,0.1,0.6,0.2,1c0,0.2,0.1,0.3,0.1,0.7c-4.1-0.4-4.5-3.8-5.7-6.8c-2.6,3.3-5.9,5.3-9.2,7.3
		c-1.9,1.1-2.8,2.7-3.4,4.6c-0.4,1.2-0.8,2.5-1,3.8c-0.8,3.6-2.2,7.1-1.6,11c0.2,1-0.8,2.3-1.4,3.6c0.8,0.8,1.7-0.2,2.7-0.5
		c0.9-0.3,1.9-0.7,2.8-0.6c1.5,0.1,2.7,1.1,3.7,2.1c1.9,1.9,4.6,3.1,5,6.2c0,0.2,0.3,0.3,0.4,0.5c0.4,0.8,1,1.6,1,2.3
		c-0.1,1.4-0.5,2.9-0.8,4.3c-0.5,1.8-1.4,3.5-1.5,5.3c-0.1,2.2-0.4,4.3-1.2,6.3c-0.7,1.6-1.5,3.2-2.1,4.9c-0.6,1.7-0.2,3.5,1.1,4.6
		c1.6,1.3,4.4,1.1,6.1-0.5c0.9-0.8,2.8-1.3,3.6-0.8c2.1,1.6,4.2,1.1,5.6,0.2c1.6,1.4,3.1,3,4.8,4c1.4,0.9,2.7,1.7,3.4,3.3
		c0.9,2,2.7,2.7,4.6,2.9c3.4,0.2,3.7-0.4,2.8-3.6c-0.3-1.2-0.5-2.2,0.4-3.4c0.5-0.7,1.1-1.1,1.6-1.7c1-1.1,1.5-2.5,2.2-3.9
		c2.3,0.8,2.3,0.8,2.8-1.8c0-0.1,0-0.2,0.1-0.3c0.1-0.1,0.2-0.2,0.3-0.3c0.2,0.3,0.4,0.6,0.8,1.3c0.7-1.2,1.2-2.1,1.5-2.7
		c0.5,0.1,1.2,0.5,1.4,0.3c0.5-0.4,0.6-1.1,0.8-1.5c0.4,0.4,0.7,1.1,1.1,1.2c0.5,0,1.1-0.5,1.4-0.9c0.4-0.7,0.6-1.5,0.8-2
		c1.4-0.6,2.6-1.2,3.8-1.7c0.1,0.6,0.3,1.2,0.4,1.9c0.8-0.7,1.5-1,2-1.6c1.1-1.4,3.3-1.7,3.8-3.6c0-0.1,0.4-0.2,0.5-0.1
		c0.2,0.2,0.3,0.4,0.4,0.6c0.2,0.7,0.1,1.5,0.4,2.2c0.9,2.6,0.8,5-0.8,7.3c-0.8,1.3-0.6,2,0.6,2.9c0.2,0.1,0.4,0.4,0.4,0.6
		c0.3,0.9,0.4,1.8,0.7,2.7c0.4,0.9,1,1.7,1.4,2.4c0.2-0.8,0.3-1.4,0.6-1.9c1.1-1.7,1.1-1.9-0.5-3.2c-0.8-0.7-1-1.5-0.4-2.6
		c0.2,0.3,0.3,0.6,0.4,0.9c0.4,1.5,2.3,2.3,3.7,1.6c1.3-0.7,2.6-1.5,3.9-2.2c5-2.9,8.4-6.9,8.9-12.8c0.2-2.4-0.3-4.8-0.4-7.2
		c0-1-0.4-1.7-1.4-2c-1.1-0.2-2.2-1.2-3.3,0.1c-0.5,0.6-1.2,0.9-1.9,1.5c0.1,0.8,0,1.8-1.3,2.3c-0.1,0-0.2,0.4-0.3,0.6
		c-0.4,2.1-3.2,3.4-4.7,2c-0.9-0.8-1.8-0.8-2.8-0.7c-1.3,0.2-2.5,0.4-4,0.7c-1,1.5-1.9,1.8-2.8,0.5c-1.5-2.2-2.4-4.7-1.7-7.4
		c0.5-1.7,1.3-3.4,2.1-5c0.4-0.8,0.5-1.3-0.3-1.9c-0.3-0.2-0.6-1-0.4-1.4c0.5-1.7,0.5-1.7-1.2-2.4c-1.6-0.7-2.7-2-2.9-3.6
		c-0.1-1.2-0.1-2.2-0.9-2.7c0.1-0.8,0.5-1.7,0.3-2c-0.5-0.6-1.4-0.8-2.1-1.2c0.4-0.7,1.1-1.1,0.9-2.3c-0.2-0.8,1.1-1.8,1.8-2.8
		C247.9,114.7,246.6,114,245,113.1z M267.9,101.6c0.5-0.7,1.2-1.4,1.2-1.8c-0.1-0.6-0.9-1.2-1.4-1.6c-0.6-0.4-1.4-0.7-2.1-1
		c-0.7-0.3-1-0.7-0.7-1.7c0.2-0.5-0.2-1.5-0.6-1.9c-1.1-1-2.4-1.7-3.6-2.6c-0.5-0.4-1.1-0.9-1.3-1.5c-0.8-2.2-2.1-4.1-4-5.4
		c-2.4-1.6-5-3-7.5-4.4c-0.4-0.2-1-0.5-1.1-0.8c-0.1-1.4-1.1-1.4-2.1-1.6c-1.2-0.2-2.5-0.3-3.5-0.8c-1.5-0.7-2.5-0.9-4,0.1
		c0.5,0,1,0,1.4,0c0.6,1.7,3,2.5,4.7,1.5c0,1.7,1.4,1.9,2.5,2.4c2.5,1.1,5.2,2,7.5,3.5c1.5,1,3,2.5,3.7,4.1c1,2.1,1.8,4,4.1,4.9
		c0.3,0.1,0.5,0.7,0.4,1c0,0.2-0.6,0.4-1.2,0.7c2.1,1.4,2.9,3.6,4.2,5.6c0.7,1,1.6,1.9,2.5,2.8c3,3.3,5.7,6.8,6.6,11.3
		c0.1,0.7,0.1,1.4,0.1,2.1c-0.1,0-0.2,0.1-0.4,0.1c-0.5-1.2-1-2.4-2.5-2.1c-0.4,0.1-0.7,1-1,1.5c0.9-0.4,1.6-0.6,2.4-0.9
		c0.2,0.8,0.1,1.3,0.4,1.7c0.9,1.5,2.1,2.9,2.9,4.4c1.8,3.1,1.3,3.6-0.9,5.3c-0.1,0-0.1,0.2-0.2,0.5c0.7-0.1,1.4,0.1,1.9-0.2
		c1.8-1,2.2-3.2,1.1-4.9c-0.9-1.5-1.7-3-2.1-4.9c-0.7-3.5-1.6-7.1-3.7-10.1C270.5,105.1,269.1,103.3,267.9,101.6z M243,92.9
		c0,0.2,0,0.4,0,0.6c5.4,0.3,10.6,1.3,15.4,4.1c-2.4-2.7-5.1-4.9-5.9-8.6c-0.4-1.6-1.8-2.4-3.4-2.9c-1.2-0.3-2.3-0.9-3.4-1.4
		c-0.4-0.2-0.8-0.7-1.4-1.3c0.3,2.5-1.3,3-2.8,3.8c0.8,0.1,1.5,0,2.3-0.1c1.3-0.2,2.7-0.5,4-0.6c2.1,0,3.7,1.3,3.8,2.8
		c0,1.5-1.4,2.5-3.6,2.8C246.3,92.4,244.6,92.7,243,92.9z M272.2,127.2c-0.1,0.2-0.2,0.3-0.3,0.5c0.7,0.6,1.5,1.2,2.2,1.9
		c0.4,0.3,0.8,0.7,0.9,1.1c0.5,1.2,0.9,2.4,1.2,3.7c0.5,2,1,4.1,1.4,6.2c-0.1,0-0.3,0.1-0.4,0.1c-0.6-0.9-1.2-1.8-1.8-2.7
		c-0.1,0.1-0.2,0.2-0.3,0.2c0.4,0.5,0.8,0.9,1.2,1.4c-1,0.1-1.8-0.1-2.6-0.1c-0.8,0-1.6,0.2-2.4,0.3c1.3,0.3,2.5,0.3,3.6,0.7
		c0.7,0.2,1.7,0.9,1.8,1.5c0.4,2.3,0.7,4.7,0.5,7.1c-0.2,2.4-1,4.7-1.5,7.1c0.2-0.3,0.6-0.7,0.8-1.1c1.6-3.5,2-7.1,1.8-10.9
		c0-0.4-0.3-1-0.2-1.2c1.3-1.4,0.6-2.9,0.4-4.4c-0.6-3.9-1.9-7.5-4.4-10.6C273.7,127.4,273.1,126.8,272.2,127.2z M214.2,174.9
		c-1.5,1-4,0.9-5.3,0c-0.3-0.2-0.8-0.2-1.2-0.3c-1.6-0.2-3.1,1.6-4.7-0.2c-0.8,0.9-1.5,1.8-2.3,2.7c1.5,0,2.7,0,3.8,0
		c1.4,0.1,2.9,0.3,4.3,0.3c2.5,0.1,4.9-0.4,7.3,0.5c0.9,0.4,1.9,0.6,3.2,1C218.2,176.2,215.5,176.5,214.2,174.9z M201.1,178
		c0.2,1.8,1.7,2.8,3.7,3c4,0.5,7.6-1.2,11.3-1.9c0-0.2,0-0.3,0-0.5C211.1,178.5,206.2,178.2,201.1,178z M228.5,96.7
		c0.4-1.2-0.2-1.6-1-1.8c-1.2-0.3-1.4-1.2-1.4-2.2c0.1-1.4,0.1-2.8,0.2-4.5c-1.5,2.8-3.2,5.3-3.4,8.8
		C224.9,94.8,226.7,95.8,228.5,96.7z M254.8,110.5c-0.1,0.1-0.1,0.3-0.2,0.4c0.1,0.1,0.3,0.2,0.4,0.3c3.6,1.8,7,4.1,11.2,4.6
		c1.2,0.2,2.3,0.7,2.6,2.1c0.1,0.3,0.6,0.5,0.9,0.7c0-0.8-0.2-1.2-0.3-1.7c-0.2-1.2-0.8-1.7-2-1.7c-0.3,0-0.6-0.1-1-0.1
		c-3.3-0.5-6.3-2-9.1-3.7C256.6,111,255.7,110.8,254.8,110.5z M250.3,160.5c1.7,0.4,2.8,1.5,3,3.3c2.5-0.6,2.6-2.9,3.7-4.5
		c-0.6-0.3-1-0.5-1.7-0.7c-0.6,1.4-1.2,2.7-1.8,3.9C252.8,159.7,252.8,159.7,250.3,160.5z M260.7,125.3c0,0.1-0.1,0.3-0.1,0.4
		c1.5,0.3,3,0.6,4.6,0.8c1.6,0.2,3.4,0,4.2,1.7c0-1.1,0-2.3,0-3.3c-0.5-0.1-1.2-0.3-1.9-0.5C265.6,127,263,125.5,260.7,125.3z
		 M228.2,85.3c0.1,0.1,0.2,0.2,0.2,0.3c1.4-0.9,2.9-1.7,4.2-2.6c0.4-0.3,0.6-1.2,0.4-1.7c-0.4-1.2-2-2-3.5-1.9
		c2.3,1.6,2.4,2.5,0.2,4.4C229.2,84.3,228.7,84.8,228.2,85.3z M223.3,84.9c-0.1,0-0.3-0.1-0.4-0.1c-1.4,3.5-3.7,6.7-3.4,11.1
		C220.9,92,222.1,88.5,223.3,84.9z M264.7,131.9c1.2,1.3,4.7,1.5,6.9,0.5c-0.4-0.3-0.7-0.9-1-0.9
		C268.6,131.5,266.8,131.7,264.7,131.9z M255,143.8c1.3-0.1,2.4-0.2,3.5-0.3c0.1-0.1,0.1-0.3,0.2-0.4c-0.7-0.5-1.4-1.1-2.1-1.5
		c-0.6-0.3-1.2-0.5-1.8-0.8c0,0.8-0.1,1.5-0.1,2.3C254.7,143.4,254.9,143.6,255,143.8z M221.7,198.8c0.1-0.3,0.1-0.5,0.2-0.8
		c-2.4,0.2-3.5-1.5-5-2.8c-0.7-0.6-1.5-1.4-2.5-0.4c1.9,0.7,2.7,3,4.8,3.4C220.1,198.4,220.9,198.6,221.7,198.8z M207.1,98
		c0.4,0.8,0.8,1.4,1,1.9c0.3,0.6,0.4,1.3,0.6,2c0.6,2.1,0.7,2.1,2.8,1.5C209.8,102,209.7,99.2,207.1,98z M273.6,137.8
		c0-0.1,0-0.3,0-0.4c-0.3-0.1-0.7-0.1-1-0.2c-2,0-4.1,0.1-6.1-0.1c-1.3-0.1-2.6-0.7-3.8-1c-0.3-0.1-0.6,0-1,0.1c0,0.2,0,0.3,0,0.5
		C265.6,137.7,269.5,137.9,273.6,137.8z M256.4,107.2c3.9,2,7.1,5.4,11.8,5.6C263.6,112.2,260.5,108.6,256.4,107.2z M214.5,171.7
		c0.6,0.5,1.1,1.2,1.8,1.4c2.9,0.6,4.8,2.5,6.1,5c0.3,0.5,0.8,1,1.1,1.5C221.2,174.7,221.2,174.7,214.5,171.7z M239.7,186.8
		c0.2-0.8-0.1-1.1-1-1.3c-0.7-0.1-2.2,1.3-2.3,2.3c-0.1,1.2,0.9,1.1,1.4,1.3c0.1-0.8,0.1-1.6,0.3-2.3
		C238.2,186.7,239.1,186.8,239.7,186.8z M245,170.6c0.7,1.1,1.6,2.5,3.9,2.9c-1.2-1.6-2.2-2.8-3.1-4
		C245.5,169.8,245.3,170.1,245,170.6z M233.7,176.4c1.3-1.7,2.7-1.3,4.2-0.1c0-0.4,0-0.9-0.2-1c-1.1-0.6-2.3-1.2-3.4-1.8
		C234.1,174.5,233.9,175.4,233.7,176.4z M255.6,171.4c0.7,0.1,1.1,0.2,1.3,0.1c0.4-0.2,0.7-0.6,1-1c0.1-0.2,0-0.7-0.2-0.8
		c-0.7-0.5-1.6,0.1-2.4,1.3c-0.5,0.9-0.1,1.5,0.5,2c0.1,0.1,0.4-0.2,0.7-0.3C256.2,172.3,256,172,255.6,171.4z M252.5,97.3
		c1.4,0.7,2.8,1.6,4.3,2.1c1.6,0.6,3.3,0.8,5,1.1c0.3,0.1,0.7-0.3,1-0.4c0-0.1-0.1-0.3-0.1-0.4C258.7,100.9,255.9,98.1,252.5,97.3z
		 M212.6,87.9c-3,1.7-4.3,5.3-3.5,9C209.3,93.5,210,90.3,212.6,87.9z M229.1,188.8c-0.1,0.1-0.2,0.2-0.3,0.3
		c1.3,0.8,1.5,1.7,0.5,2.9c-0.3,0.4,0.2,1.4,0.3,2.2c0.1,0,0.3,0,0.4-0.1c0-1.6-0.6-3.4,2.1-4.1C230.8,189.5,230,189.2,229.1,188.8z
		 M233.3,180.8c1.7-3.2,1.7-3.2,0.7-3.8c-0.6,0.8-1.2,1.5-1.8,2.4C232.5,179.9,232.8,180.3,233.3,180.8z M248.2,177.8
		c0.1-0.7,0.2-1.5,0.3-2.3c-0.2-0.1-0.4-0.2-0.6-0.2c-0.8,0.7-1.5,1.5-2.4,2.3C246.5,177.6,247.2,177.7,248.2,177.8z M206.7,100.5
		c0,3.3,1.5,5.9,3.6,6.6c0-0.4,0.1-0.8,0.1-0.9c-0.6-0.1-1.1,0-1.2-0.1c-0.6-0.8-1.1-1.6-1.5-2.5C207.3,102.6,207,101.6,206.7,100.5
		z M205.4,184c0.7,1.7,1.3,3,2,4.5c0.2-0.8,0.8-1.8,0.5-2.4C207.4,185.4,206.4,184.8,205.4,184z M216.1,188.8
		c-0.4-1.7-2.6-2.9-4.3-2.1C213.3,187.4,214.7,188.1,216.1,188.8z M251.8,170.8c0.3,0.3,0.5,0.6,0.8,0.9c-0.7-0.1-1.4-0.3-2.1-0.5
		c-0.4,1.1-0.8,2.3-1.3,3.7C250.2,173.4,251,172.1,251.8,170.8z M258.7,115.1c2.4,1.7,5.4,2.6,8.5,2.9
		C264.3,117,261.4,116.1,258.7,115.1z M205.2,196.4c0.6,1.3,0.5,2.7,1.7,3.5c0-1.2,0-2.3,0-3.5C206.4,196.4,205.9,196.4,205.2,196.4
		z M254.6,130.8c0.7-0.5,0.6-0.8-0.1-1.3c-1.1-0.8-2-1.7-3-2.6c-0.3-0.3-0.6-0.6-0.9-1c-0.1,0.1-0.3,0.3-0.4,0.4
		C251.6,127.7,253,129.2,254.6,130.8z M238.5,178.6c0,0.1,0,0.2,0,0.4c0.9,0.7,1.8,1.3,3,2.2c-0.2-0.8-0.1-1.7-0.5-1.9
		C240.3,178.9,239.4,178.8,238.5,178.6z M267.8,129.2c0-0.2,0.1-0.3,0.1-0.5c-2.5-0.6-5.1-1.2-7.6-1.8c0,0.1-0.1,0.2-0.1,0.3
		C262.7,127.9,265.3,128.5,267.8,129.2z M255.8,117.9c1.4,0.8,2.6,1.5,4,2.3C259.1,118.5,257.4,117.6,255.8,117.9z M224.1,86.3
		c-1.4,2.5-2.9,4.9-3,7.7C222,91.5,223,88.9,224.1,86.3z M245.2,104.1c0.2-0.1,0.4-0.2,0.6-0.2c-0.1-0.3-0.2-0.7-0.4-0.8
		c-1.3-0.3-1.9-0.9-1.1-2.6c-0.7,0.2-1.1,0.3-1.9,0.6C243.5,102.2,244.4,103.1,245.2,104.1z M195.8,182.6c0.2,0,0.4,0,0.6,0
		c0.1-1.8,0.2-3.6,0.3-5.4c-0.1,0-0.3,0-0.4,0C196.2,179,196,180.8,195.8,182.6z M192.5,110.4c-0.1,0-0.3-0.1-0.4-0.1
		c-0.7,2.4-1.4,4.8-2.1,7.2c0.1,0,0.2,0.1,0.3,0.1C191,115.2,191.8,112.8,192.5,110.4z M209.6,199.7c0.1-0.1,0.2-0.1,0.2-0.2
		c-0.2-0.8-0.3-1.7-0.5-2.6c-0.3,0-0.9,0.1-1.8,0.1C208.3,198,209,198.8,209.6,199.7z M227.3,99.5c-0.2-0.5-0.4-1-0.6-1.4
		c-0.1,0.1-0.3,0.1-0.4,0.2c0.3,1,0.5,2,0.7,2.6c0.6-0.3,1.3-0.6,2-0.8c-0.1-0.1-0.3-0.3-0.4-0.4c-0.2,0.1-0.4,0.2-0.6,0.3
		c0-0.3,0.1-0.6,0.1-1.2C227.7,99.1,227.5,99.3,227.3,99.5z M218.8,90.8c-0.8,3.3-0.7,6.1,0,7C218.8,95.7,218.8,93.3,218.8,90.8z
		 M203.3,98.7c-0.2-0.1-0.3-0.2-0.5-0.3c-1,1.6-2,3.3-3,4.9c0.1,0.1,0.2,0.1,0.3,0.2C201.2,101.9,202.2,100.3,203.3,98.7z
		 M259.6,146.3c2-1.1,3.3,0.5,5.1,1.3C263.3,145.5,261.7,144.8,259.6,146.3z M223.4,201c0.1,0.1,0.2,0.1,0.4,0.2
		c0.4-0.5,0.9-1,1-1.3c-0.4-0.8-0.6-1.3-1.1-2.2C223.6,199.1,223.5,200,223.4,201z M221.6,182.6c-1.2-0.9-2.9-0.5-3.3,0.8
		c1.7-0.8,1.7-0.8,2.3,0.1C220.9,183.2,221.3,182.9,221.6,182.6z M247.4,106.6c0-0.1,0.1-0.3,0.1-0.4c-0.3-0.1-0.6-0.2-0.9-0.3
		c-0.3-0.1-0.7-0.2-0.8-0.4c-0.7-0.8-0.8-0.8-1.8-0.1C245.2,105.8,246.3,106.2,247.4,106.6z M238.1,98.2c-0.1,0.2-0.2,0.3-0.2,0.5
		c1.3,0.9,2.5,1.7,3.8,2.6c0.1-0.1,0.1-0.2,0.2-0.3C240.6,100,239.4,99.1,238.1,98.2z M236.4,76.7c0-0.2,0.1-0.4,0.1-0.6
		c-1.2-0.3-2.4-0.6-3.6-0.8c0,0.2-0.1,0.3-0.1,0.5C234,76,235.2,76.3,236.4,76.7z M206.6,194.8c0-0.1,0.1-0.3,0.1-0.4
		c-0.6-0.3-1.2-0.6-1.8-0.8c-0.2-0.1-0.5,0.2-0.7,0.4c0.2,0.2,0.3,0.6,0.5,0.7C205.3,194.7,206,194.7,206.6,194.8z M230.1,184.8
		c0.1,0,0.2,0,0.3-0.1c-0.1-1.6-0.2-3.2-0.3-4.8c-0.2,0-0.4,0-0.5,0.1C229.8,181.5,230,183.2,230.1,184.8z M222.4,102.8
		c0.1,0.1,0.3,0.2,0.4,0.2c0.7-1.3,1.4-2.6,2.1-3.8c-0.1-0.1-0.2-0.1-0.4-0.2C223.8,100.3,223.1,101.6,222.4,102.8z M270.7,120.8
		c0-0.1,0-0.3,0-0.4c-1.5,0-3.1,0-4.6,0c0,0.1,0,0.1,0,0.2C267.6,120.6,269.1,120.7,270.7,120.8z M259.7,122.1
		c-0.1,0.1-0.1,0.3-0.2,0.4c1.3,0.5,2.6,1.1,3.9,1.6c0.1-0.1,0.1-0.3,0.2-0.4C262.3,123.1,261,122.6,259.7,122.1z M241.4,182.3
		c-0.6-0.1-1-0.1-1.7-0.2c0.6,0.7,1.1,1.3,1.6,2c0.1-0.1,0.3-0.2,0.4-0.3C241.5,183.3,241.4,182.7,241.4,182.3z M221.3,101.3
		c0.2,0.1,0.3,0.2,0.5,0.3c0.6-1.1,1.2-2.3,1.7-3.4c-0.1-0.1-0.3-0.1-0.4-0.2C222.5,99.1,221.9,100.2,221.3,101.3z M225.6,193.5
		c0.9-0.1,1.5-0.2,2.5-0.3c-0.7-0.5-1.1-0.8-1.8-1.2C226.1,192.5,225.9,192.9,225.6,193.5z M216.8,199.8c0.2-0.1,0.3-0.2,0.5-0.4
		c-0.8-0.9-1.6-1.9-2.3-2.8c-0.1,0.1-0.2,0.1-0.3,0.2C215.4,197.8,216.1,198.8,216.8,199.8z M253.1,144.4c0.5,1,1,1.9,1.6,2.9
		C255.7,145.5,253.3,145.6,253.1,144.4z M262.2,140.6c0,0.1-0.1,0.3-0.1,0.4c1.2,0.3,2.4,0.6,3.7,0.8c0-0.1,0.1-0.3,0.1-0.4
		C264.7,141.1,263.4,140.9,262.2,140.6z M220.9,97.4c0,1,0,1.7,0,2.5c0.1,0,0.2,0,0.3,0c0.3-0.7,0.5-1.4,0.8-2.2
		C221.5,97.6,221.2,97.5,220.9,97.4z M211.6,199.3c0.1-0.1,0.2-0.1,0.3-0.2c-0.2-0.8,0.1-2-1.7-1.9
		C210.8,198,211.2,198.6,211.6,199.3z M202.3,186c0.8-1.2,0.6-1.8-0.7-2.7C201.8,184.2,202,185.1,202.3,186z M192.3,108.6
		c0.5-1.3,0.9-2.5,1.4-3.7C192.4,105.8,192.3,107.1,192.3,108.6z M247,112.7c-0.1,0.2-0.1,0.3-0.2,0.5c0.6,0.3,1.2,0.6,1.6,0.9
		c0-0.6,0-0.9,0-1.3C248,112.7,247.5,112.7,247,112.7z M245,107.8c-0.1,0.1-0.2,0.3-0.3,0.4c0.5,0.4,0.9,0.7,1.3,1.1
		c0.3-0.5,0.5-0.8,0.8-1.3C246.1,108,245.6,107.9,245,107.8z M198.1,141.3c0.9,0.4,1.2,0.5,1.7,0.7c0-0.7,0-1.2,0-1.7
		c-0.1-0.1-0.3-0.2-0.4-0.3C199,140.4,198.7,140.7,198.1,141.3z"/>
	<path d="M218.4,87.2c-0.7,1.1-1.4,2.2-2.1,3.4c-0.4-1.6,1.5-5.2,3.1-5.6c0.1,0,0.2,0.2,0.4,0.3C219.3,85.9,218.8,86.6,218.4,87.2z"
		/>
	<path d="M222.8,130.9c0.3-0.4,0.5-0.7,0.7-1c0.3,0.3,0.6,0.5,0.9,0.9c0.3-0.4,0.6-0.8,1.4-1.8c0.5,0.3,0.9,0.6,1.3,0.9
		c0-0.7,1.2-0.2,2.3-0.3c1.8-0.1,3.5-0.6,5.3-0.8c0.3-0.1,0.7,0,1.1,0.2c-0.2,0.1-0.5,0.3-0.8,0.4c1.6,0.7,2.9,1.6,3,3.7
		c0.3-0.3,0.5-0.5,0.7-0.7c0.1,0.1,0.2,0.1,0.3,0.2c-0.2,0.3-0.4,0.9-0.6,1c-1.6,0.5-3.3,0.9-5,1.3c-1,0.2-2,0.3-3.2,0.5
		c0.9,0.8,1.7,1.6,2.7,2.5c-1.1-0.5-2.1-0.9-3-1.3c-2.6-1.1-5.4-1.2-8.1-1c-0.8,0.1-1.5,1-2.2,1.5c-0.9,0.8-1.8,1.6-2.6,2.5
		c-0.1-0.1-0.2-0.2-0.3-0.3c1.1-1.1,2.2-2.3,3.3-3.4c-0.1-0.1-0.2-0.3-0.3-0.4c-2.4-0.1-4.7-0.2-6.7,1.7c-0.9,0.8-1.8,1.6-2.8,2.2
		c-1.3,0.8-2.8,0.2-3.2-1.2c-0.3-1.1-0.3-2.3-0.4-3.5c0.2,0,0.4,0,0.6-0.1c0,0.5-0.1,1.1,0,1.6c0.3,0.9,0.5,2.2,1.2,2.6
		c0.5,0.3,1.8-0.3,2.5-0.9c1.4-1,2.7-2.2,4.1-3.4c-0.1-0.9-0.2-2.1-0.3-3.3c0.7-0.7,2,2,2.5-0.4c0.9,0.7,1.7,1.7,2.5,0
		c0-0.1,0.3-0.2,0.4-0.1c0.8,0.4,1.5,0.3,2.1-0.3C222.1,130.3,222.5,130.6,222.8,130.9z"/>
	<path d="M231.9,138.8c0.7,0.3,1.4,0.5,2.1,0.8c-0.4,0.2-0.9,0.2-1.1,0.5c-2.8,3.6-6.4,3.1-10.1,1.9c-1-0.3-1.9-0.7-2.9-0.8
		c-0.8-0.1-1.6,0.1-2.6,0.2c0.5-0.5,0.9-0.9,1.3-1.3c1.1-0.8,2.2-1.8,3.4-2.4c0.8-0.4,1.9-0.4,2.9-0.5c0.7-0.1,1.5,0.2,2.2,0.1
		c1.5-0.3,2.7,0,3.8,1.1c-0.3,0-0.8,0-0.8,0.1c-0.2,1.2-0.4,2.3-0.6,3.7c0.9-0.6,1.8-1.2,2.6-1.9
		C232.5,139.8,232.5,139.3,231.9,138.8z M223.4,141.6c0.2-1.3,0.5-2.6,0.7-4.1c-2,0.3-3.4,1.5-4.8,2.6
		C220.7,140.6,222,141.1,223.4,141.6z M227.2,140.9c0.1,0.1,0.3,0.3,0.4,0.4c0.9-0.3,1.9-0.5,1.8-1.7c-0.1-1.2-1-1.5-2.2-1.4
		c0.2,0.4,0.6,0.6,0.8,0.9c0.2,0.3,0.4,0.8,0.3,0.9C228.1,140.5,227.6,140.7,227.2,140.9z"/>
	<path d="M262.1,162.5c1.3-0.7,2.5-1.4,3.8-2c2-1,3.5-2.5,4.6-4.4c1.1-2,2.2-4,3.3-5.9c0.1-0.1,0.1-0.3,0.1-0.4
		c0.7-3.4,0-5.2-3.5-4.3c-0.3,0.1-0.6,0-1,0c0-0.1,0-0.2,0-0.4c0.3-0.1,0.5-0.2,0.8-0.2c1,0,1.9,0.1,2.9,0.2
		c1.1,0.1,1.8,0.7,1.8,1.9c0.1,2.4-0.5,4.7-1.9,6.7c-1.1,1.5-2.1,3.1-3.2,4.5c-1.8,2.3-4.5,3.3-7.1,4.5c-0.1,0.1-0.3,0-0.5,0
		C262.2,162.7,262.1,162.6,262.1,162.5z"/>
	<path d="M261.9,157.7c1.8-0.6,3.3-1.1,5.3-1.7c0.3-0.9,1.1-2.2,1.3-3.6c0.2-1.9-2.2-1.6-3-2.8c3.1,0.7,4.7,2.5,3.7,4.7
		c-0.3,0.5-0.9,0.8-1.3,1.3c-0.2,0.3-0.2,0.8-0.5,0.9c-1.6,0.6-3.2,1.2-4.8,1.7C262.5,158.2,262.3,158,261.9,157.7z"/>
	<path d="M232.9,143.7c-1.7,2.6-6.3,2.9-9.9,1.7c0.5-0.2,0.9-0.5,1-0.4c2.9,1.1,5.4,0.1,7.9-1.1
		C232.3,143.9,232.6,143.8,232.9,143.7z"/>
	<path d="M211.7,165.2c2.5-0.7,3.8-2.3,3.7-5.1c0.2,0.2,0.5,0.4,0.5,0.6C215.6,164.2,214.5,165.4,211.7,165.2z"/>
	<path d="M215,143.8c1.6-1.6,3.5-1.1,5,1c0.5,0.7,1.2,1.3,2,2.1c-0.2,0-0.7,0.1-0.9,0c-0.5-0.4-1.1-0.9-1.5-1.5
		c-1.2-1.9-2-2.2-4.1-1.5C215.4,144,215.3,143.9,215,143.8z"/>
	<path d="M234.6,141.5c1.8,1.7,2.2,1.7,4.8,0.4c0.2,0.2,0.4,0.5,0.8,1c-1.1,0.3-2,0.7-3,0.7C235.7,143.7,234.6,142.6,234.6,141.5z"
		/>
	<path d="M262.2,151.2c1.6,2.4,0.7,5.5-1.9,6.3C262.7,155.9,262.4,153.6,262.2,151.2z"/>
	<path d="M204.9,164.7c1-1.4,2.5-1.8,3.9-1.9c0.6-0.1,1.3,0.5,1.9,1.1C208.6,163.1,206.7,163.9,204.9,164.7z"/>
	<path d="M221.1,164.7c1.4,1.7,2.8,3.5,4.2,5.2C224,169.8,220.8,165.8,221.1,164.7z"/>
	<path d="M191.8,144.3c2.5,0.2,5.1,0.4,7.6,0.7C198,146.3,192.7,145.8,191.8,144.3z"/>
	<path d="M195.8,148.4c1.6-0.5,3.1-1,4.6-1.5C200.2,147.9,198,148.9,195.8,148.4z"/>
</g>
<g>
	<path d="M173.4,47.2c-0.5,4.5-1.8,10-4.8,15c-1.3,2.2-2.6,4.4-3.8,6.6c-1.1,2-1.8,4.1-3,5.9c-1.6,2.5-3.7,4.5-6.5,5.6
		c-4.9,1.9-8.5-0.8-10.1-4.7c-0.9-2.2-0.7-4.4-0.4-6.7c0.2-1.5,0.7-3,0.6-4.5c-0.1-3.1-0.5-6.1-0.9-9.2c-0.1-0.8-0.6-1.6-1-2.3
		c-1.5-2.5-2.3-5.1-2.3-8.1c0-3.5,0.2-6.9,0.9-10.3c0.6-2.9,2.2-5.1,4.6-6.7c2.5-1.8,5.5-2.5,8.4-3.5c0.7-0.2,1.4-0.4,2-0.6
		c1.9-0.5,3.8,0.1,5.5,0.8c3.5,1.5,5.8,4,7.6,7.4C172.5,36.4,173.3,41.1,173.4,47.2z M171.7,45.9c-0.3-2-0.4-4.1-0.8-6.1
		c-0.9-4.2-2.5-8.1-5.8-10.9c-3-2.6-6.5-3.6-10.4-2.2c-1.3,0.4-2.5,1.2-3.7,1.6c-3.5,1.1-5.6,3.4-6.9,6.7c-1.5,4-1.1,8.1-1,12.2
		c0.1,1.7,0.7,3.2,1.5,4.6c0.5,0.8,1,1.7,1.2,2.7c0.5,2.9,0.9,5.8,1.2,8.7c0.2,1.8,0.3,3.7-0.2,5.4c-0.7,2.7-0.4,5.1,0.7,7.5
		c0.8,1.8,2.4,2.6,4.3,2.7c2.7,0.1,4.9-1,6.8-2.9c1.9-2,3-4.5,4.2-6.9c1-2.1,1.9-4.4,3.2-6.3c1.3-2.1,2.5-4.2,3.4-6.6
		C170.7,52.7,171.8,49.5,171.7,45.9z M166.3,27.9c4.8,6,6.8,12.9,6.3,20.5c0.1-3.8,0.5-7.7-0.9-11.4
		C170.4,33.7,169.1,30.3,166.3,27.9z M141.8,45.3c-0.1-5.8,0.1-11.5,4.2-16.1C141.5,33.7,141.5,39.4,141.8,45.3z"/>
	<path d="M146.9,44.6c1.2-0.4,2.2-0.8,3.2-1.1c2.5-0.7,4.9-0.8,7.4-0.1c2.7,0.7,4.6,2.4,5.5,5c0.6,1.7,0.8,3.5,1.1,5.3
		c0.2,1.2-0.2,2.2-1.1,3.1c-1,1-1.9,2.1-3,3c-1.9,1.7-3,3.8-3.8,6.1c-0.5,1.3-1.1,2.5-1.7,3.8c-0.1,0.2-0.3,0.5-0.5,0.7
		c-1.3,1.5-3.1,1.5-4.1-0.3c-1-1.8-1.5-3.6-0.2-5.6c0.6-1,1-2.2,1.3-3.4c0.4-1.8-0.3-3.3-1.7-4.5c-0.2-0.2-0.3-0.5-0.4-0.8
		c0.3,0,0.6-0.1,0.9-0.1c1.1,0,2.2,0,3.2,0.1c0.4,0,0.7,0.3,1.1,0.4c-0.2,0.3-0.4,0.7-0.7,0.9c-0.6,0.3-0.9,0.8-1,1.4
		c0,0.5-0.2,1.1-0.2,1.6c-0.1,2-0.9,3.6-2.2,5.1c-1.1,1.3-0.2,4.1,1.3,4.9c0.9,0.4,1.7,0.1,2.1-0.6c0.6-1,1.2-2.1,1.6-3.3
		c1-2.7,2.3-5,4.4-7c0.7-0.6,1.3-1.3,1.9-2c3.1-3.4,1.6-8.2-2.9-9.2c-2.6-0.6-5.2-1.1-7.9-0.6c-0.8,0.1-1.5,0.5-2.2,0.8
		c-0.2,0.1-0.3,0.6-0.2,0.9c0.5,2.5,2,4.1,4.6,4.6c0.4,0.1,0.7,0.4,0.9,0.7c-1.7,0.5-3.2,0-4.5-1.1c-1.2-1-1.9-2.3-2-3.9
		c-0.1-0.9-0.5-1.7-0.6-2.5c-0.5-2.3-0.7-4.6-0.3-6.9c0.7-3.7,3.5-5.7,6.6-7.2c0.9-0.4,1.9-0.7,2.8-1.1c2.4-1,4.5-0.5,6.4,1.2
		c1.9,1.6,3.3,3.5,4.1,5.9c1.2,3.8,2.4,7.5,2.3,11.6c-0.1,4.3-1.3,8.2-4.2,11.5c-0.6,0.7-1.1,1.4-1.7,2c-0.2,0.2-0.5,0.2-0.8,0.4
		c0.1-0.3,0.1-0.6,0.2-0.8c0.7-1,1.4-1.9,2.1-2.8c3.1-4.1,3.9-8.7,3.1-13.6c-0.2-1.3-0.5-2.6-0.7-3.9c-0.7-4.2-3.1-6.6-7.3-7.2
		c-2.3-0.3-4.7-0.3-7.1-0.5c-1.5-0.1-2.4,0.6-3.3,1.6C147.1,39.3,146.6,41.7,146.9,44.6z"/>
</g>
<g>
	<path d="M59.4,149.8c1.6,1.8,3.4,3.4,5.1,5.1c0.6,0.5,1,1,0.9,1.9c-0.8,5.1-0.8,10.2-0.2,15.4c0.2,1.7,0.7,3.4,1.4,4.9
		c1.2,2.5,3.2,4.6,6.1,5c1.6,0.2,2.9,0.8,4.2,1.7c1.8,1.2,3.6,2,5.5,0.3c3.1,2.7,5.4-0.1,8.1-1.2c-1.4,2.4-3.6,4.2-5.6,4.5
		c-4.8,0.6-9.5,0.6-14-1.5c-0.3-0.1-0.6-0.2-1-0.3c4.3,2.8,9,3.1,14.1,2.6c-1,2.6-1.9,5-2.8,7.5c2,1,3.6,1.2,5.2-0.4
		c0.8-0.8,1.7-1.5,2.5-2.2c2.9-2.4,5.6-5.1,9-6.8c0.7-0.4,1.6-0.6,2.4-0.6c4.8-0.1,9.7-0.1,14.5-0.1c0.7,0,1.3-0.1,2.3-0.2
		c-3.8-7.6-7.1-15.1-13.8-20.5c-1.8,2.7-3.5,5.2-5.2,7.6c1.4-3.3,3.1-6.3,4.7-9.4c1.6-3.2,2.5-6.6,3-10.1c0.5-3.4,1.3-6.8,0.5-10.3
		c-0.5,0.7-0.9,1.5-1.2,2.3c-2,4.5-3,5.2-7.9,4.8c-0.7,0-1.4-0.1-2-0.2c-0.6-0.1-1.1-0.1-1.7-0.2c0-0.1,0-0.3,0-0.4
		c0.6,0,1.1-0.1,1.7-0.1c1.5-0.1,3.1-0.2,4.6-0.4c1.3-0.2,1.9-1,1.7-2.4c-0.1-0.7-0.5-1.3-0.8-2.2c-0.9,1.3-1.2,2.8-3.1,2.7
		c-1.3-0.1-1.7-1-1.9-2.4c-0.7,0.4-1.2,0.7-1.6,1.1c-0.4,0.3-0.8,0.9-1.2,1c-0.5,0.2-1.2,0.3-1.7,0.1c-0.2,0-0.2-0.9-0.2-1.3
		c0-0.6,0.1-1.2,0.2-1.8c0.2-1,0.7-1.8,1.9-1.9c0.8-0.1,1.7-0.5,2.5-0.8c3.2-1.3,6.6-1.5,10-2c1.6-0.2,2.1,0.3,2.7,1.9
		c0.1,0.3,0.4,0.6,0.6,0.9c-0.2-4,0.5-7.7,1.4-11.8c0.9,0.9,1.7,1.4,2,2.1c0.5,1.3,0.6,2.7,0.9,4.1c1.6,0.5,1.8,0.9,1.2,3.4
		c-0.4-0.3-0.9-0.6-1.5-1.1c-0.3,0.6-0.6,1.1-1,1.8c2.5-0.4,2.7-0.2,1.9,1.9c-0.2,0.6-0.4,1.2-0.5,1.8c-0.2,1.9,0.4,3.5,2,4.5
		c2,1.3,4.2,1.3,6.6,1.1c-1.1-1.7-2-3.1-3-4.5c0.2-0.2,0.4-0.4,0.7-0.7c-0.7-0.8-1.3-1.6-1.9-2.3c1.5-0.5,2.1,0.3,2.7,1.4
		c0.3,0.7,0.9,1.4,1.5,1.6c1.2,0.4,2.5,0.4,4.2,0.6c-0.6-0.5-1-0.8-1.4-1.2c1.3-0.2,2.5-0.5,3.6-0.7c0.1-0.2,0.2-0.3,0.3-0.5
		c-0.5-0.3-1-0.6-1.6-1c0.1-0.1,0.2-0.2,0.2-0.3c1.8,0.6,3.7,1.1,4.7,2.9c0.9,1.7,1.4,3.6,2.1,5.6c-3.3,0.2-5,2.8-7.4,4.3
		c0.1,0.5,0.2,1,0.2,1.4c-0.1,0.1-0.2,0.1-0.3,0.2c-0.8-0.6-1.5-1.1-2.3-1.7c0.9-0.6,1.6-1,2.3-1.4c-0.1-0.1-0.1-0.3-0.2-0.4
		c-1.4,0.5-2.9,1-4.5,1.6c0.9,0.7,1.6,1.2,2.3,1.8c-0.1,0.1-0.1,0.1-0.2,0.2c-0.9-0.2-1.8-0.4-2.7-0.6c0,0.3,0.2,0.4,0.3,0.5
		c0.2,0.1,0.4,0.2,0.3,0.2c-1.4,1-2.8,1.9-4.2,2.8c0.1-0.5,0.1-1.1,0.2-1.7c0.5-1.8,0-3.3-1.1-4.7c-1.8-2.4-3.7-4.8-5.5-7.2
		c-0.1-0.1-0.2-0.1-0.3-0.1c-0.8,1.8-0.4,3.9,1.1,5.3c0.6,0.6,1.3,1.1,1.9,1.8c2.2,2.5,2.8,6.1,1.4,8.6c-0.2-1.1-0.1-2.3-0.2-3.4
		c-0.1-1.6-0.6-2.2-1.8-2.4c-3-0.5-3.2-0.7-3.6-3.7c-0.1-0.6-0.1-1.1-0.2-1.7c-0.2-1.2-0.9-2.1-2.1-2.7c0.2,5-0.7,9.6-2.4,14.1
		c-0.4,1-0.1,1.6,0.6,2.3c3,3.3,5.5,6.8,7.5,10.8c1.5,3,3.1,6.1,4.6,9.1c0.5,1,0.9,2.1,1.4,3.3c-0.5,0.1-0.7,0.2-0.9,0.2
		c-4.9,0.1-9.9,0.4-14.8,0.3c-4-0.1-7.4,1.1-10.3,3.9c-4.2,4.1-8.5,8.2-12.7,12.3c-0.8,0.8-1.6,1.7-2.4,2.6c-1-0.6-1.9-1-2.6-1.6
		c-2.5-2.3-5-4.6-7.3-7.1c-4-4.4-7.9-8.7-13.2-11.5c-1.7-0.9-3.3-1.4-5.3-1.5c-6-0.2-12-0.5-18-0.8c-2.4-0.1-4.9-0.5-7.3-0.7
		c0-0.6-0.1-0.9,0-1.3c0.7-4.3,1.4-8.7,2.2-13c0.8-4.4,1.7-8.9,2.6-13.3c0.4-2.2,1.6-3.8,3.9-4.5c1.7-0.5,3.3-1.3,5.1-2.1
		c-2.9-4.9-3.7-9.6-0.1-14.7c0.2,0.6,0.3,0.9,0.4,1.2c0.6,2.9,2.3,4.3,5.2,4.4c0.5,0,1,0.1,1.4,0.3c1.5,0.9,2.9,1.8,4.4,2.8
		c1-2.2,0.3-4.1-0.4-5.9c-1.5-0.1-2.8-0.3-4.2-0.4c-1.9-0.2-3.4-1-4.7-2.3c-1.6-1.6-1.4-3,0.5-4c1.7-0.9,3.5-1.5,5.3-2.3
		c0.1,0,0.2,0.1,0.2,0.1c-0.3,0.4-0.6,0.8-1,1.4c2.6-0.8,7.2-5.4,6.3-6.4c-0.3,0.1-0.7,0.1-1,0.2c-0.4-0.7-0.8-1.5-1.2-2.3
		c1.1-0.5,2.5-0.5,2.4-2.1c-0.5-0.6-0.8-1.1-1.3-1.6c-0.6,0.5-1.3,1-1.9,1.6c-0.6,0.6-1.1,1.4-1.7,2c-0.6,0.7-1.4,1.2-2.1,1.8
		c-1.5,1.4-2.8,3-4.3,4.3c-2.3,2-4,4.4-5.3,7.1c-0.4,0.9-0.7,2-0.6,3c0,1.8,0.4,3.5-1.4,4.7c-0.1,0.1-0.2,0-0.5,0
		c-0.5-2.5-1.1-5-1.6-7.5c-0.2,0-0.3,0-0.5,0c-0.8,1.5-1.5,3-2.3,4.5c-0.1,0-0.3-0.1-0.4-0.1c-0.2-3.2-0.9-6.4,0-9.6
		c0.2-0.9,0.9-1.9,1.7-2.3c1.2-0.7,2.7-1.1,4.1-1.5c1.7-0.4,3.4-0.5,5.1-0.7c0.8-0.1,1.3-0.5,1.2-1.5c-1.8,0-3.6,0.8-5.4-0.3
		c0.7-0.3,1.4-0.5,2.4-0.9c-2.5-0.1-4.7-0.3-7,1.4c0.9,0.1,1.5,0.1,2,0.2c0.1,0.1,0.1,0.2,0.2,0.3c-2.6,0.3-3.9,2.2-5.2,4.2
		c-1.2-1.8,0.2-3.3,0.5-4.9c-0.7,0.5-1.2,1.1-1.7,1.7c-1.2,1.6-1.2,2.1,0.2,3.7c0.5,0.6,0.6,1,0.2,1.7c-0.9,1.7-0.7,3.4-0.2,5.2
		c0.9,3.1,1.7,6.2,2.6,9.4c-0.9,0-1.6,0-2.3,0c-0.6,0-1.2,0.2-1.7,0.1c-1.9-0.6-3.7-1.3-5.6-2c-0.5-0.2-0.9-0.6-1.3-1
		c-0.9-1-1.6-2.4-2.7-3.1c-1.8-1.1-2.7-2.7-3.6-4.3c-1.5-2.7-1.3-3.7,1.2-5.6c0.3-0.3,0.8-0.4,1.1-0.7c1.1-0.8,2.1-1.5,3.2-2.3
		c-0.1-0.1-0.2-0.3-0.2-0.4c-1.7,0.5-3.3,1-5,1.5c0.3,0.2,0.6,0.3,1.1,0.7c-0.9,0.8-1.7,1.5-2.5,2.2c-0.1,0-0.3,0-0.4,0
		c0.4-1.9-1-2.6-2-3.6c1.5-1.1,2.8-2.1,4.1-3.2c0.5-0.5,1-1.1,1.3-1.7c0.9-1.5-0.2-2.4-1.4-3.5c1.1-0.3,2.1-0.5,2.9-0.8
		c1.8-0.7,3.4-1.1,5.2,0.2c1.2,0.9,2.3,0.4,3.3-0.9c0.4-0.6,1.1-1,1.6-1.4c0.7-0.6,1.5-1,1.9-1.7c1.9-3,3.7-6,5.3-9.1
		c1.6-3.1,2.7-6.3,4.1-9.5c1.1-2.5,2.3-4.9,4.4-6.8c2.9-2.5,2.9-2.6,6.7-2.3c1.4,0.1,2.7,0.2,4.5,0.3c-1.2,0.8-2.1,1.3-3,1.8
		c0.1,0.1,0.1,0.3,0.2,0.4c1,0,1.9,0.1,3.1,0.2c-1.6,1.5-3.8,1.9-4.7,3.9c3.7-0.9,6.9-3.2,10.9-3.1c-3.8,0.5-6.8,2.5-9.8,4.6
		c0,0.1,0.1,0.3,0.1,0.4c0.8,0,1.7,0,2.5,0c0.3,0.4,0.6,0.8,1,1.4c0.5-0.6,1-1,1.2-1.5c0.7-1.4,1.8-2,3.3-2.4
		c1.2-0.3,2.3-0.9,3.3-1.5c1.6-1,2.3-0.9,3.8,0.6c-2.2,1-4.5,1.8-6.4,3.1c-2,1.4-2.8,3.8-3.6,6.1c1.7-1.6,2.6-4,5.4-4.1
		c-0.7,1.1-1.5,2-2.2,3c-0.4,0.6-1,1.8-0.8,2.1c0.9,1,0.2,1.7-0.1,2.5c-0.6,2-1.3,4-2,6c0.1,0.1,0.2,0.1,0.4,0.2
		c1.2-1.5,2.5-3,3.7-4.5c0.6-0.7,1.1-1.5,1.8-2.1c1.5-1.2,1.5-1.1,0.5-2.6c1.6-1.3,3.5-1.4,5.8-1.9c-0.8-0.3-1.2-0.5-1.9-0.8
		c1.6-0.2,3-0.3,4.3-0.4c0-0.1,0-0.2,0-0.3c-1.4-0.7-2.8-1.3-4.2-2c2-0.6,3.6-0.3,5.1,0.9c1.8,1.4,3.9,2.3,6.5,2.9
		c-1-2.1-2.4-3.4-3.9-4.4c-1.4-0.9-3-1.5-4.3-2.5c-1.8-1.2-3.9-2.2-5-4.3c-0.6-1.2-1.6-1.6-2.9-1.6c-1.4,0-2.8,0-4.3,0
		c3.3-2.1,6.5-1.1,9.7,0.2c-0.9-0.9-1.9-1.7-2.9-2c-2.3-0.6-4.5-0.6-6.9,0.1c-3.3,0.8-6.7,0.3-10.1-0.3c4.3-1.8,8.9-1.4,13.4-2.4
		c-0.6-2.5-1.1-4.9-1.8-7.6c1.8,1,3.2,1.8,4.6,2.7c0.8,0.6,1.5,0.6,2.2-0.8c0.3,1.5,0.5,2.4,0.7,3.4c-0.1,0.1-0.3,0.2-0.4,0.2
		c-0.9-0.5-1.8-1-3-1.6c1.5,2.2,3.6,3.1,5.7,4.1c-0.6,0.2-1.2,0.3-1.7,0.5c2,2.7,4.1,5.5,6.2,8.3c0.2-3.2-1.8-5.1-3.6-7.3
		c0.8,0.2,1.4,0.6,1.8,1.1c1.5,1.8,2.4,4,3,6.3c0.2,0.7,0.4,1.3,0.7,2.2c1-2,1-3.8,0-5.6c-0.7-1.1-1.5-2.1-2.3-3.2
		c-0.4-0.6-0.7-1.2-1.2-2c0.8-0.2,1.3-0.4,2.2-0.6c-1-0.8-1.8-1.4-2.7-2.1c-0.3,1.5-1.3,1-2,0.8c-1.5-0.3-2.2-1.1-2.2-2.6
		c0.7,0.2,1.4,0.4,2.5,0.7c-0.8-1.1-1.4-1.9-2-2.7c0.8,0.1,1.3,0.4,1.9,0.7c0.6,0.3,1.2,0.6,1.8,0.9c0.4-0.4,0.8-0.8,1-1.1
		c1.5-2.2,3.4-3.1,6.3-3.1c2.7,0,5,0.6,7.4,1.6c0.7,0.3,1.4,0.6,2.1,0.8c0.4,0.1,0.9,0.3,1.2,0.2c1.2-0.5,2,0.1,2.9,0.7
		c2.9,2,5.8,4,8.7,6c1.1,0.8,2.3,1.4,3.6,2.3c0.3-1,0.5-1.8,0.7-2.7c2.2,1.1,2,3.7,3.3,5.6c0.7-2.6-1-4.3-1.8-6.3
		c0.1-0.1,0.3-0.2,0.4-0.2c0.9,1.2,1.8,2.3,2.7,3.5c0.2-0.3,0.4-0.5,0.7-0.9c0.7,1.6,1.2,3,2.1,4.4c1,1.6,1,3.8,0.2,5.7
		c-0.3,0.8-0.7,1.7-0.1,2.8c1.3-1.4,1.5-2.8,1.6-4.5c2.3,1.9,0.6,3.9,0.4,5.2c1.6,1.8,2.9,3.2,4.1,4.7c1.3,1.5,2.6,3,3.6,4.7
		c3.4,5.5,5.6,11.5,6,18.1c0.1,1.8,0.2,4,2.4,5c0.1,0.1,0.3,0.3,0.3,0.5c0.2,1.4,1.3,2,2.3,2.7c0.5,0.3,1,0.7,1.2,1.1
		c1,2.1,1.9,4.2,2.8,6.5c-2.2,1-2.4,2.5-1.1,4.2c-1.4,0-1.5,0-2-0.8c-0.7-1.3-1.5-2.2-3.2-1.6c0-0.8,0-1.5,0-2.1
		c-0.6-0.5-1.2-1-1.8-1.5c-1.6,0.5-3.2,1-4.8,1.6c-0.8,0.3-1.5,0.6-2.3,0.8c-0.8,0.2-1.7-0.3-1.4-0.9c0.4-1.3-0.4-2.2-0.7-3.3
		c-0.3-1.1-0.5-2.3-0.7-3.4c0.2-0.1,0.3-0.2,0.5-0.3c0.9,2.2,2.8,2.4,4.6,2.5c1.7,0.1,3.8,1.1,5.2-1.2c-3,0.5-5.2,0.4-6.7-0.3
		c-0.7-0.3-1.4-1-1.9-1.7c-1.1-1.5-0.6-2.9,0.6-4.2c1.7-1.9,1.8-4.4-0.6-7.3c-0.8,1.4-1.6,2.7-2.3,4.2c-1.5,3.3-2.6,6.6-1.4,10.3
		c-0.9,0.1-1.2-0.5-1.4-1.2c-0.4-2.2-1.7-3.9-3.3-5.5c-0.5-0.5-1-1.4-1-2.1c0-0.4,0.9-0.9,1.4-1.3c-2.3-0.6-3-1.6-3.3-4.7
		c1.1-0.4,2.2-0.7,3.3-1.1c0-0.1,0-0.3,0-0.4c-1.6,0.3-2.8-0.2-3.8-1.4c-0.3-0.3-0.8-0.4-1.2-0.5c-2.3-0.6-4.3-1.9-6.1-3.4
		c-0.7-0.6-1.5-1.1-2.2-1.6c-0.1,0.1-0.2,0.2-0.3,0.3c0.8,1.2,1.5,2.4,2.3,3.5c-0.7-0.3-1.3-0.7-1.7-1.2c-2.1-2.2-4.7-3.3-7.6-4
		c-0.7-0.2-1.6-0.1-1.5-1.2c0.1-1,0.3-1.8,1.6-1.9c1.3-0.1,2.6-0.2,4-0.3c0,0.1,0,0.3,0.1,0.4c-0.5,0.2-1,0.4-1.8,0.7
		c3.9,0.9,7.8,0.4,10.9,3.2c-0.8,0-1.6,0-2.7,0c0.3,0.5,0.4,0.8,0.6,1c2.4,2.2,5.2,3.8,8.5,4.3c1.9,0.3,3.6-0.2,5.3-1.9
		c-0.8,0.1-1.3,0.2-1.8,0.2c0.6-0.7,1.1-1.4,1.6-2c-2.9,0.6-5.6,1.8-8.5-0.5c2.6-0.3,5-0.6,7.3-0.9c0.1-0.5,0.1-0.9,0.2-1.4
		c0.4,0.1,0.7,0.2,0.9,0.4c0.3,0.2,0.6,0.4,0.9,0.6c0.8-1.9,0.6-2.2-1.1-2.7c-0.5-0.1-1-0.2-1.4-0.4c-1.6-0.7-3.2-1.4-4.8-2.1
		c0.3-1,0.4-1.6,0.6-2.3c1.2-3.7,0.6-7.3-0.9-10.8c-0.2-0.5-0.6-1-0.9-1.4c-1-1-2.1-1.9-3-3c-2.4-2.8-5.1-5.2-8.5-6.8
		c-1.1-0.5-2.1-0.9-3.4-0.5c-0.6,0.2-1.4,0-2-0.2c-3-1.1-6-2.3-8.9-3.5c-0.5-0.2-1.1-0.5-1.6-0.7c-0.1,0.1-0.2,0.3-0.3,0.4
		c1.7,1.2,3.3,2.5,5.2,3.9c-1-0.1-1.7,0-2.3-0.3c-2-1.1-3.9-2.3-5.9-3.5c0.5,0.9,1,1.7,1.6,2.7c-1.8-0.4-3.4-1.6-5.4-0.9
		c0.6,1.1,1,2.4,1.7,3.1c0.9,0.9,2.2,1.4,3.3,2c1,0.6,2.1,1.1,3.2,1.7c0.2-0.2,0.3-0.4,0.5-0.6c-0.7-0.4-1.3-0.9-2-1.3
		c1.3,0.4,2.4,1.3,3.5,1.7c2.1,0.7,3.6,2.2,4.8,4c2,2.9,1.8,4.6-0.6,7.3c-1.2,1.4-2.4,2.8-3.6,4.2c-0.1,0.1-0.1,0.3-0.1,0.6
		c0.6,0,1.1,0,1.6,0c0.3,2.6,2.3,3.7,4.5,5.1c-1.6,0.4-2.8,0.6-3.9,0.9c0,0.1,0,0.2,0.1,0.3c0.6,0,1.3,0.1,2.3,0.1
		c-1.3,0.9-2.2,1.6-3.2,2.2c-0.2,0.2-0.6,0.3-0.9,0.3c-2.5-0.2-4.9-0.5-7.4-0.7c-1-0.1-2-0.1-3-0.2c-1.8-0.3-3.3-1.4-4.7-2.5
		c-1.4-1.2-2.8-2.4-4.4-3.6c-0.3,2.2,1.7,2.4,2.5,3.7c-1.3,0.5,0.1,1.3-0.1,2c-0.5,0.1-1,0.3-1.7,0.4c2,1.2,3.7,2.3,5.7,3.5
		c-1.2,0.4-2.3,0.5-3.1,0.9c-1.1,0.6-2.1,0.5-3.1-0.1c-1-0.6-1.8-0.5-2.6,0.3c-0.3,0.2-0.6,0.4-1,0.7c0.1-0.6,0.1-1.1,0.2-1.6
		c-0.9,0-1.7,0-2.6,0c1.7-1.8,3-3.7,3.1-6.2c-0.2-0.2-0.5-0.6-0.9-1c-1-1-2-1-3,0.1c-0.3,0.3-0.6,0.6-0.8,1c-2.2,3.1-4.9,5.6-8,7.7
		c-0.5,0.3-0.9,0.7-1.6,1.3c2.4,0,4.8-0.9,6.1-2.2c0.7-0.8,1.4-1.6,2.1-2.3c0.6-0.6,1.2-1.4,2.3-1.3c-0.2,3.4-2.2,6-3.8,8.9
		c1.9-0.3,3.6-0.6,5.3-0.9c0.1,0.1,0.1,0.3,0.2,0.4c-1.5,1.3-3,2.5-4.7,4c2.5-0.2,3.8-0.6,5.2-1.7c1.2-0.9,2.4-1.9,3.6-2.8
		c0.5-0.4,1.2-0.7,1.8-1c0.1,0.1,0.3,0.2,0.4,0.3c-0.1,1.1,0.1,2.3-0.3,3.2c-1.1,3.1-1.7,6.3-1.9,9.6c-0.1,0.8-0.3,1.6-0.4,2.4
		c-0.1,0.5,0,1.1,0,1.8c0.6,0.1,1.2,0.3,1.8,0.3c2.6-0.1,5,0.6,7.5,1.2c4.4,1,8.6,2.7,12.4,5.2c1.9,1.2,2,1.7,0.4,3.4
		c-0.5,0.6-1.1,1.1-1.7,1.7c-0.5,0.6-0.7,1.3-0.2,2c1.3,2,1,4.2,1,6.6c-0.7,0-1.3-0.1-1.8,0c-0.6,0.1-1.3,0.3-1.6,0.7
		c-0.2,0.4,0,1.2,0.3,1.6c0.9,1.2,1.6,2.5,1.9,4c0.1,0.4,0.2,0.8,0.4,1.2c0.7,1.7,1.4,2.1,3.3,1.9c1.2-0.1,2.5-0.3,3.9-0.4
		c-1.3,1.1-6.3,3.9-7.7,4.1c-0.6,0.1-1.4,0-2-0.2c-1.9-0.7-3.7-1.4-5.5-2.2c-1.8-0.8-2.3-1.8-1.6-3.5c1-2.4,2.4-4.7,3.5-7.1
		c0.8-1.7,1.5-3.5,2.2-5.2c0.4-1,0-1.7-1-2.1c-1.2-0.5-2.4-1-3.6-1.5c-0.6-0.3-1.4-0.5-1.1-1.4c0.4-1.3-0.4-1.8-1.5-2.2
		c-0.7,1.3-1.6,1.8-3.2,1.4c-1.6-0.4-1.9-1.5-2.2-2.7c-1.6,0.1-1.8,0.3-1.7,1.5c0.1,1.2,0.6,2.2,1.7,2.7c1.2,0.6,2.4,1.1,3.5,1.6
		c-0.8,0.4-1.5,0.8-2.5,1.4c-2.4-1.1-5.1-2.4-7.5-4.3c-1.1-0.9-2.1-1.7-3.7-1.7C57.4,145,57.5,147.6,59.4,149.8z M68.9,194.5
		c2.2,0,4.3-0.1,6.3,0c1.8,0.2,2.8-0.4,3.4-2c0.2-0.6,0.6-1.2,0.9-1.9c-1.8-0.4-3.1,0.3-4.2,1.3c-0.6,0.5-1.2,0.8-2,0.8
		c-5.5-0.2-3.9,0.9-7.1-3.5c-3-4.2-5.8-8.5-8.5-12.8c-3.5-5.8-7.9-10.9-12.3-16c-1.7-2-3.5-4-5.2-6c-1.8-2-4.2-2.2-6.6-2.4
		c-1.2-0.1-1.7,1.1-2,2.1c-0.6,2.1-1.2,4.3-1.6,6.5c-1.2,6.1-2.2,12.1-3.3,18.2c-0.3,1.8,0,2.2,1.8,2.5c3.4,0.6,6.8,1.1,10.3,1.4
		c3.1,0.3,6.2,0.4,9.3,0.5c3.7,0.1,7.1,0.8,10,3.3c2.4,2,4.8,3.9,7.1,6c1.3,1.1,2.5,2.4,4,3.8C69.1,195.4,69,195.1,68.9,194.5z
		 M25,121.2c0.6-0.2,1.1-0.8,1.7,0.1c0.1,0.1,0.7-0.1,0.9-0.3c0.3-0.3,0.5-0.8,0.8-1.4c-0.7-0.2-1.3-0.4-2.2-0.6
		c0.9-0.5,1.5-0.8,2.1-1.1c0-0.1,0-0.1-0.1-0.2c-1.7,0.3-3.4,0.6-5,0.9c0,0.1,0,0.3,0,0.4c0.6,0.2,1.3,0.4,1.9,0.6
		c0,0.1,0,0.2,0,0.3c-1.2,0.5-2.3,1-3.7,1.7C23,122.2,24,121.6,25,121.2z M79.4,157.9c-0.8-0.1-1.4,0.5-1,1.2
		c0.3,0.6,0.8,1.2,1.3,1.4c1,0.5,2.1,0.8,3.3,1.2C82.5,159.6,81,158.1,79.4,157.9z M118.3,113.9c0.9,1.7,1.8,3.4,2.8,5.2
		C122.6,117.3,121.2,114.7,118.3,113.9z M131.7,148.2c-0.6-2.8-1.2-3.2-3.4-2.7C129.6,146.5,130.6,147.3,131.7,148.2z M123.3,124.5
		c0.8-1.6,0.4-3-1-4.5c-0.1,0-0.3,0.1-0.4,0.1C122.4,121.5,122.8,122.9,123.3,124.5z"/>
	<path d="M99.4,95.6c0.6-4.4-0.5-7.9-3.6-10.6c-0.1,0.1-0.2,0.1-0.4,0.2c0.7,1.2,1.4,2.4,2.2,3.6c-0.1,0.1-0.2,0.2-0.3,0.3
		c-0.7-0.4-1.4-0.7-2.4-1.2c0.7,2.8,0.3,5.3-0.8,7.8c-0.1,0.3,0,0.8,0,1.2c0,0.3,0,0.7,0.1,1.1c1.8,0.1,3.6,0,5.3-0.8
		c2.4-1,2.8-1.7,2.5-4.3c-0.1-0.5-0.2-1.1-0.4-1.8C100.7,92.6,101.1,94.4,99.4,95.6z"/>
	<path d="M75,173.2c0.4,0.9,0.5,1.3,0.8,1.9c-1.6,0.4-3.1,0.7-4.6,1.1c0.2,1.4,1,1.8,1.8,1.8c1,0.1,2.1,0.2,3.1,0
		c2.9-0.5,5.7-0.4,8.6,0.4c0.9,0.2,1.8,0.3,2.2-1c0.4-1.3,0.2-1.8-1.1-2.2c-0.9-0.3-1.8-0.3-2.7-0.5c-1.6-0.4-3.2-0.9-4.8-1.2
		C77.3,173.3,76.4,173.3,75,173.2z"/>
	<path d="M93,173.9c-0.1-1.9-1.2-2.3-2.3-2.4c-2-0.2-3.9-0.3-5.9-0.4c-0.4,0-1,0.1-1.3-0.1c-2-1.7-4.5-0.5-6.7-1
		c-1.8-0.4-3.7-0.5-5.5-0.8c-2-0.3-2.7,0.5-2.7,2.9c1.5,0.1,3,0.4,4.5,0.4c4,0.1,8,0.1,12,0C87.8,172.5,90.4,172.6,93,173.9z"/>
	<path d="M106.9,100.6c-0.6-1.2-0.6-2.3,0.3-3.3c0.8-0.9,1-1.7-0.4-2.5c-1.6,3.7-4.1,6.5-7.8,8.1c1.5,0.6,2.6-0.3,4-0.7
		c-0.2,0.5-0.3,0.8-0.5,1.3C105.2,104.4,106,102.5,106.9,100.6z"/>
	<path d="M108.7,94.2c0,1.4,0,2.9,0,4.3C109.6,97,109.2,95.6,108.7,94.2z"/>
</g>
<path d="M195.7,50.3c0-22.3-18.1-40.4-40.4-40.4s-40.4,18.1-40.4,40.4c0,17.1,10.7,31.7,25.7,37.6c-2.1,7.3-4.1,14.6-6.3,22.2
	c0.2-0.3,0.3-0.4,0.4-0.5c4.3-6.5,8.7-13.1,13-19.6c2.5,0.5,5,0.7,7.6,0.7c4.7,0,9.2-0.8,13.4-2.3c4.4,6.6,8.7,13.1,13.1,19.7
	c0.1,0.1,0.1,0.2,0.4,0.5c-2.2-8-4.4-15.6-6.6-23.4c0.9-0.6,1.8-1.1,2.7-1.7c0.3-0.2,0.6-0.5,0.9-0.7c0,0,0,0,0,0
	C189.2,75.5,195.7,63.7,195.7,50.3z M172.9,81l0.5,2.1c0,0,0,0,0,0l0.8,3.2c1.1,3.9,2.3,7.8,3.4,11.9c-0.1-0.2-0.2-0.2-0.2-0.3
	c-2.3-3.4-4.5-6.7-6.8-10.1c0,0,0,0,0,0l-2.7-4.3c-3.9,1.5-8.2,2.4-12.7,2.4c-2.3,0-4.6-0.2-6.8-0.7l-0.7,1.1c0,0,0,0,0,0l-0.9,1.4
	l-1.2,1.9c0,0,0,0,0,0c-2.2,3.3-4.4,6.5-6.6,9.8c0,0.1-0.1,0.1-0.2,0.3c1.2-4,2.3-8,3.4-11.9l0.2-0.9l0.9-3.2
	c-13.7-4.9-23.5-18-23.5-33.3c0-19.5,15.9-35.4,35.4-35.4s35.4,15.9,35.4,35.4C190.7,63.4,183.5,74.9,172.9,81z"/>
</svg>
