<?xml version="1.0" encoding="utf-8"?>
<!-- Generator: Adobe Illustrator 17.1.0, SVG Export Plug-In . SVG Version: 6.00 Build 0)  -->
<!DOCTYPE svg PUBLIC "-//W3C//DTD SVG 1.1//EN" "http://www.w3.org/Graphics/SVG/1.1/DTD/svg11.dtd">
<svg version="1.1" id="Layer_1" xmlns="http://www.w3.org/2000/svg" xmlns:xlink="http://www.w3.org/1999/xlink" x="0px" y="0px"
	 viewBox="0 0 288 216" enable-background="new 0 0 288 216" xml:space="preserve">
<path d="M216.9,208.5c-0.2-2.9-0.4-4.9-0.5-7.3c-3,0-5.8,0-8.4,0c-0.2-2.2,0.1-4.9-0.7-5.3c-4.2-2.1-2.6-5.7-2.6-8.7
	c-0.2-13.2-0.2-26.3,0-39.5c0.1-9.6-1.7-19.6,4.1-28.5c2.3-0.1,4.9-0.3,7.4-0.4c1.1-7.4,0.9-7.6-6-7.5c-9.7,0.1-19.3,0.2-29,0.2
	c-11.1,0-22.2,0-33.2,0c0,3.2,0,5.7,0,8.5c3.1,0.1,5.8,0.3,8.5,0.4c-0.3,0.4-0.5,0.8-0.8,1.2c1.4,2,2.8,4,4.2,6
	c0.9,20,0.9,40.5,0.8,61c0,1.6-1.7,3.2-2.6,4.9c-0.3-0.2-0.6-0.3-1-0.5c-0.2,2.1-0.4,4.2-0.6,6.6c-3.1,0.2-5.8,0.4-8.6,0.6
	c-0.1,2.6-0.3,5.2-0.4,7.8c-4,0.3-7.6,0.5-11.2,0.7c0,0.5,0.1,1,0.1,1.5c31.5,0,62.9,0,94.4,0c0-0.5,0-1.1,0-1.6
	C226.1,208.5,221.5,208.5,216.9,208.5z M188.6,117.6c0.2-1,0.5-2.1,1.3-2.8c0.9-0.8,2.2-0.8,3.4-0.8c2.6,0,5.3-0.2,7.9-0.1
	c0.4,0,3.9,0.4,5.7,1c0.8,0.3,1.3,0.6,1.2,0.9c-1,3-3.4,5.5-6.4,6.6c-2.4,0.9-5.1,0.9-7.5,1.9c-0.9,0.4-1.7,0.8-2.5,1.1
	c-0.9,0.3-1.9,0.4-2.7,0C186.3,124.2,188.1,119.7,188.6,117.6z M202.3,136.1c0,18.7,0,37.4,0,56.1c-0.1,0-0.3,0-0.4,0
	c0-18.7,0-37.4,0-56.1C202,136.1,202.1,136.1,202.3,136.1z M198.8,134.2c0,19.2,0,38.5,0,57.7c-0.2,0-0.4,0-0.6,0
	c0-19.2,0-38.5,0-57.7C198.4,134.2,198.6,134.2,198.8,134.2z M195.2,133.1c0,19.8,0,39.7,0,59.5c-0.3,0-0.5,0-0.8,0
	c0-19.8,0-39.7,0-59.5C194.7,133.1,195,133.1,195.2,133.1z M191.4,131.3c0,20.4,0,40.8,0,61.2c-0.2,0-0.4,0-0.6,0
	c0-20.4,0-40.8,0-61.2C191,131.3,191.2,131.3,191.4,131.3z M187,131.4c0.2,0,0.5,0,0.7,0c0,20.4,0,40.8,0,61.3c-0.2,0-0.5,0-0.7,0
	C187,172.2,187,151.8,187,131.4z M184.6,202.5c-0.2,1.8-2.1,4.9-3.3,4.9c-10.6,0.4-21.2,0.2-31.8,0.2c-0.5-5.9-0.5-5.9,8-6.4
	c0.6-2.2,1.2-4.6,1.9-7.2c1.2-0.2,2.7-0.4,4.9-0.8c0-20.1,0-40.1,0-60.1c0.7,0,1.3,0.1,2,0.1c0,19.7,0,39.4,0,59c0.4,0,0.9,0,1.3,0
	c0-20.2,0-40.5,0-60.7c0.6-0.1,1.3-0.2,1.9-0.3c0.3,1.6,0.8,3.1,0.8,4.7c0.1,17.2,0,34.3,0,51.5c0,1.6,0.1,3.2,0.2,4.8
	c0.4,0,0.9,0,1.3,0c0-20.6,0-41.2,0-61.7c0.6,0,1.1,0,1.7,0c0,20.6,0,41.1,0,61.7c0.6,0,1.1,0,1.7,0c0-20.7,0-41.4,0-62
	c0.6,0,1.2,0,1.8,0c0,20.7,0,41.3,0,62c0.6,0,1.2,0,1.8,0c0-20.5,0-41,0-61.6c0.6,0,1.2,0,1.8,0c0,20.6,0,41.2,0,61.9
	c0.6,0,1.2,0,1.9,0c0-20.6,0-41.1,0-61.7c0.5,0,1.1-0.1,1.6-0.1c0.1,1.5,0.4,3,0.4,4.5c0,18.2,0,36.3,0.1,54.5
	C184.7,194,185.1,198.3,184.6,202.5z M162,189.1c0-16.8,0-33.6,0-50.4c0.1,0,0.2,0,0.3,0c0,16.8,0,33.7,0,50.5
	C162.2,189.2,162.1,189.2,162,189.1z M184.9,117.3c-0.6,1.9-0.3,4.1-0.4,6.2c0,0.5,0,1.1,0,1.6c-7.4,0-14.8,0.3-22.1-0.3
	c-1.7-0.1-3.1-3.5-4.7-5.4c0.3-0.4,0.6-0.8,0.9-1.2c-2,0-4,0.3-5.9-0.1c-1.2-0.2-2.2-1.3-3.3-2c1-0.9,1.9-2.4,3-2.5
	c5.8-0.6,11.5-1,17.3-1.1c4-0.1,8,0.1,11.9,0.3C184.3,112.9,185.9,114,184.9,117.3z M204.3,206.9c-0.7,0.3-1.6,0.3-2.4,0.3
	c-3,0-6,0.1-9,0c-1.8,0-4.4,0.7-5.7-0.8c-1.9-2.4,0.1-7.3,1.7-9.4c0.6-0.8,1.7-1.3,2.6-0.9c1,0.5,1.3,1.7,1.8,2.7
	c0.8,1.5,2.4,2.4,4.1,2.9c1.6,0.5,3.4,0.6,5,0.8c0.4,0.1,0.9,0.1,1.3,0.3c0.3,0.1,0.6,0.2,0.9,0.4c0.6,0.4,1.1,1.1,1.1,1.9
	C205.7,206,205.1,206.6,204.3,206.9z"/>
<g>
	<path d="M228.1,110.3c0-0.1-0.1-0.2-0.1-0.2h-99.4v-7.4c-1.4-0.4-2.9-1.3-3.8-2.3c-0.1-0.1-0.2-0.2-0.2-0.3V114h107.4
		C230.4,113.2,229,111.9,228.1,110.3z"/>
</g>
<g>
	<g id="XMLID_1_">
		<g>
			<path d="M231.8,46.4c-0.1,0-0.1,0-0.2,0.1c0,0,0-0.1,0-0.1C231.7,46.4,231.7,46.4,231.8,46.4z"/>
			<path d="M150.9,72.4L150.9,72.4C150.8,72.4,150.8,72.4,150.9,72.4C150.8,72.4,150.8,72.4,150.9,72.4L150.9,72.4z"/>
			<path d="M149.3,60.8c0,0.1,0.1,0.3,0.1,0.4c-4.6,1.1-9.2,2.2-13.4,3.2c0.4-0.3,1.2-0.9,1.8-1.4C141.6,62.2,145.5,61.5,149.3,60.8
				z"/>
			<path d="M142.4,87.9c4.3-1.1,8.4-2.9,12.2-4.3c-7.5,5.1-16.2,7.2-25.9,6.7C133.4,89.4,138,89,142.4,87.9z"/>
			<path d="M144.5,68.6c0,0.2-0.1,0.4-0.1,0.5c-2.5-0.3-5.1-0.7-7.6-1c0-0.2,0.1-0.4,0.1-0.6C139.4,67.9,142,68.3,144.5,68.6z"/>
			<path d="M143.4,56c0.1,0.2,0.3,0.3,0.4,0.5c-3.1,2.2-6.2,4.5-9.3,6.7c-0.1-0.2-0.3-0.4-0.4-0.5C137.2,60.5,140.3,58.3,143.4,56z"
				/>
			<path d="M141.2,13.6C141.2,13.6,141.2,13.6,141.2,13.6C141.2,13.6,141.2,13.6,141.2,13.6z"/>
			<path d="M139,65.6c0,0.6,0.1,1.2,0.1,1.8c-0.2,0-0.4,0-0.5,0c0-0.6,0-1.2,0-1.8C138.8,65.6,138.9,65.6,139,65.6z"/>
			<path d="M138.5,69.5c0,0.4,0,0.8,0,1.2c-0.1,0-0.3,0-0.4,0c0-0.4,0-0.8,0-1.2C138.2,69.5,138.4,69.5,138.5,69.5z"/>
			<path d="M138.1,29.2c-2-0.4-4.5,1.7-6.4,2.6c0.3-2.2,3.3-4.6,6.5-4.5c3.2,0.1,4.6,2.1,4.9,6.4C141.8,32.3,140.1,29.5,138.1,29.2z
				"/>
			<path d="M133.9,57.5c0.1,0.5-0.2,1-0.6,1.4c0-0.4,0-0.7,0-1.5c-0.5,1.4-0.9,2.3-1.2,3.3c-0.2-0.1-0.5-0.1-0.7-0.2
				c0.2-1.1,0.2-2.3,0.6-3.4c0.2-0.5,0.9-0.9,1.3-1.4C133.5,56.3,133.8,56.8,133.9,57.5z"/>
			<path d="M127.7,71.7c0.2,0.4,0.3,0.8,0.5,1.1c-0.1,0.1-0.3,0.1-0.5,0.2c-0.2-0.4-0.3-0.8-0.4-1.1
				C127.4,71.8,127.6,71.7,127.7,71.7z"/>
			<path d="M127.5,7.8c0.1,0,0.1,0.1,0.2,0.1c0,0-0.1,0.1-0.1,0.1C127.5,7.9,127.5,7.8,127.5,7.8z"/>
			<path d="M119.6,60.7c2.6,0.7,5.3,1.3,7.9,2c0,0.2-0.1,0.4-0.2,0.6c-2.6-0.7-5.2-1.3-7.8-2C119.5,61.1,119.5,60.9,119.6,60.7z"/>
			<path d="M129.8,60.7c-1-0.8-2.1-1.4-2.9-2.3c-0.3-0.3,0-1.3,0.1-2c0.5,0.2,1.2,0.2,1.5,0.6c0.7,1,1.3,2.1,1.9,3.2
				C130.1,60.3,129.9,60.5,129.8,60.7z M127.3,57.3c-0.1,0-0.2,0.1-0.3,0.1c0.2,0.4,0.4,0.7,0.5,1.1c0.1,0,0.2-0.1,0.3-0.1
				C127.6,58,127.4,57.6,127.3,57.3z"/>
			<path d="M122.8,72.4c1.9-1.1,3.8-2.3,5.7-3.4c0.1,0.2,0.2,0.3,0.3,0.5c-1.9,1.1-3.8,2.2-5.7,3.3
				C122.9,72.7,122.8,72.5,122.8,72.4z"/>
			<path d="M126.8,69c-0.2,0-0.4,0.1-0.5,0.1c-0.1-0.5-0.2-1-0.3-1.5c0.2,0,0.3-0.1,0.5-0.1C126.5,68,126.7,68.5,126.8,69z"/>
			<path d="M126,64.3c-0.1,0.3-0.2,0.5-0.3,0.7c-0.1,0-0.2-0.1-0.3-0.1c0.1-0.3,0.2-0.5,0.3-0.8C125.8,64.2,125.9,64.2,126,64.3z"/>
			<path d="M126.7,65.8c0,0.2,0,0.4,0.1,0.6c-2.6,0.6-5.1,1.2-7.7,1.8c0-0.2-0.1-0.3-0.1-0.5C121.6,67.1,124.2,66.4,126.7,65.8z"/>
			<path d="M128.7,31.4c-6.8-0.6-7.2-0.4-10.8,7.9c-0.1,0.2-0.2,0.4-0.3,0.7c-0.6-1.8-0.1-3.9,1-5.8c1.7-2.9,4.7-5.1,7.4-4.7
				C127,29.6,127.8,30.7,128.7,31.4z"/>
			<path d="M107.9,93.4c0,0-0.1,0-0.2,0c0,0,0-0.1,0-0.1C107.8,93.4,107.8,93.4,107.9,93.4C107.8,93.4,107.9,93.4,107.9,93.4z"/>
			<path d="M106.2,51.7c0,0,0,0.1,0,0.1c-0.1-0.1-0.1-0.1-0.2-0.1C106.1,51.7,106.2,51.7,106.2,51.7z"/>
			<path d="M105.9,51.6C105.9,51.6,106,51.7,105.9,51.6C105.9,51.7,105.9,51.7,105.9,51.6L105.9,51.6z"/>
			<path d="M105.9,51.6L105.9,51.6C105.9,51.7,105.9,51.6,105.9,51.6C105.9,51.6,105.9,51.6,105.9,51.6z"/>
			<path d="M110,73.2c-1.1-2.5-3-4.7-4.7-7.3c-2.1,6,1.3,13.3,6.5,15.4C111.2,78.7,111.1,75.8,110,73.2z M100.8,62.4
				c0.3-2.7,0.6-5.5,0.9-8.2c-0.3,0-0.6-0.1-0.9-0.1c-0.4,2.7-0.7,5.5-1.1,8.2C100.2,62.4,100.5,62.4,100.8,62.4z M161.4,70.5
				c5.9-8.7,6.1-10.2,2.1-14.5c-0.6,1.5-1.1,3.1-1.9,4.6c-0.7,1.5-1.7,2.9-2.5,4.4c-0.2,0.3-0.2,0.9,0,1.2
				C159.7,67.6,160.5,68.9,161.4,70.5z M167,59.7c2.5-5.3,1.7-11.2-2.2-13.5C165,50.9,161.9,56,167,59.7z M168.3,48.6
				c0.3-0.1,0.6-0.3,0.9-0.4c-1.3-3-2.3-6.2-3.8-9.1c-0.4-0.8-2-0.9-3-1.4c0.6,2.2,1.8,3.7,1.9,5.3C164.5,45.9,167,46.7,168.3,48.6z
				 M132.5,85.7c0.2,0.3,0.8,0.8,1.1,0.7c3.2-0.6,6.3-1.3,9.7-2.1c-0.9-2.1-1.6-3.8-2.4-5.4c-0.2-0.4-0.8-0.8-1.2-0.8
				c-3.1,0.6-6.3,1.3-9.7,1.9C130.8,81.9,131.6,83.9,132.5,85.7z M120.5,85c-0.7-2.5-1.3-4.9-2-7.4c-0.1-0.3-0.3-0.6-0.5-0.8
				c-2.3-1.4-4.7-2.7-7.1-4C110.9,80.2,114.8,85.1,120.5,85z M121.3,84.4c0.2,0.4,0.5,1,0.9,1.1c3.1,0.5,6.3,0.9,9.7,1.3
				c-0.8-2.5-1.5-4.5-2.3-6.6c-0.1-0.2-0.4-0.5-0.6-0.5c-3.2-0.7-6.5-1.4-10.1-2.1C119.8,80,120.5,82.2,121.3,84.4z M116,75.3
				c10.7,5.6,21.2,4.5,31.6-1.1c0.4-0.3,0.9-0.5,1.4-0.7c-2.5,1.5-5.1,3-7.7,4.5c0.3,0.8,0.8,1.8,1.2,2.8c0.4,1,0.9,1.9,1.4,3
				c1.4-0.8,2.7-1.4,4-2.1c4.7-2.6,4.7-2.6,2.5-7.4c-0.2-0.4-0.9-0.5-1.4-0.7c0,0,0,0,0.1,0c0.6-0.4,1.2-0.8,1.8-1.2c0,0,0,0,0,0.1
				c0,0,0,0,0.1,0c0.6,2.1,1.3,4.1,1.9,6.2c0.4,0.1,0.7,0.3,1.1,0.4c2.1-2.4,4.3-4.9,6.4-7.3c0.3-0.3,0.5-0.9,0.4-1.1
				c-0.8-1.5-1.6-2.9-2.3-4.1c-2.6,2-5,4-7.5,5.9v0c2.8-3,6.1-5.8,8.4-9.2c4.2-6.1,6-13,4.3-20.4c-0.1-0.4-0.2-0.9-0.4-1.3
				c-1.4-3.5-2.6-3.7-5.1-0.9c-0.7,0.8-1.3,1.7-2,2.6c0-2.2,2.7-4.7,5.8-5.4c3-0.8,5.3,0,6.8,2.8c-1-0.9-1.7-1.4-2.4-2.1
				c4.9,10.1,4,19.8-1.8,28.8c-8.2,12.8-19.7,20.4-35.3,19.9c-13-0.4-23-5.9-28.4-18.3c-2.2-5.1-1.8-10.1,0.1-15.2
				c0.2-0.6,0.5-1.2,0.7-1.8c-1.8,0.2-1.8,0.2-6.6,6.2c0.4-4.1,5.8-8.3,9.6-7.3c0.5,0.1,0.9,0.5,1.3,0.8c-3.7-0.4-4.1-0.2-3.7,3.7
				c0.3,2.8,1.4,5.6,2.1,8.4c0,0,0,0,0,0c-0.8-1.2-1.6-2.3-2.3-3.5c-2,3.3-0.9,10.3,2.3,12.8c0-3.3,0-6.3,0-9.3
				C107.2,68.5,110.9,72.6,116,75.3z"/>
			<path d="M151.8,102c2-1.3,2.8-6,1.7-8.2c-0.2-0.5-0.9-1.1-1.3-1.1c-1.6,0.4-3.1,1-4.1,1.3c0,2.9,0,5.4,0,8.2
				C149.1,102.3,150.8,102.7,151.8,102z M158.5,90.8c-0.4-0.4-1.2-0.7-1.6-0.5c-1.2,0.5-2.3,1.3-3.5,1.9c2.5,3.9,1,7.3-1,10.7
				c1.3,0.4,2.5,0.9,3.8,1.2c0.5,0.1,1.3,0.1,1.6-0.2C160.7,101.5,161.2,93.5,158.5,90.8z M114.4,95.3c-0.4-4.6-2.9-7.8-7.2-9.6
				C106.5,91,110.1,95.6,114.4,95.3z M93.2,67.6c-0.7-1.3-1.2-2.4-1.9-3.7c-2.6,4.5-6.8,8-6.1,13.7C85.5,72.4,88.7,69.5,93.2,67.6z
				 M94.3,71.9c0.3-0.5,0.4-1.5,0.1-2c-0.6-1.4-1.7-1.4-3-0.7c-3.6,2.1-5.4,5.3-5.4,9.3c0.1,4.6,3.9,6.8,7,9.2
				c-0.2-0.4-0.4-0.9-0.5-1.4C91.3,81.2,91.2,76.4,94.3,71.9z M100.2,79.2c0.1-0.4,0.1-0.9-0.1-1.1c-1.4-2.1-3-4.1-4.8-6.5
				c-3.1,4.4-3.2,8.9-2.2,13.5c0.8,4,3.8,5.3,7.5,5.9C99,87,99.2,83.1,100.2,79.2z M100.8,79c-0.2,0.9-0.3,1.6-0.5,2.2
				c-1.3,7.8,0.2,10.4,7.3,12.2c0,0,0,0.1,0,0.1c0.1,0,0.1,0,0.2,0c0,0,0,0,0,0c0,0-0.1,0-0.1,0c-0.4-2.8-0.8-5.5-1.2-8.2
				c0-0.3-0.2-0.6-0.3-0.8C104.5,82.7,102.8,81,100.8,79z M165.9,104.3c4.8-6.2,4.3-12.9-1.4-18.3c-0.3-0.3-1.2-0.4-1.6-0.1
				c-1.6,1.1-3.1,2.3-4.6,3.5c4.1,5.1,3.4,10.2,0.2,15.4c1.2,0.3,2.3,0.6,3.3,1C163.6,106.4,164.7,105.8,165.9,104.3z M146.6,27.2
				c2.8-1.9,5.1-3.6,7.5-5.2c-2.8,0.2-5.9-0.2-7.7,2.5C146,25.1,146.6,26.3,146.6,27.2z M131.3,104.2c1.8,0.1,3.5-0.3,5.3-0.5
				c0.1,0,0.3,0,0.5,0.1c-0.3,0.3-0.6,0.5-1,0.9c1.1,0,2.1,0.2,2.8,0c2.1-0.7,4.1-1.6,6.2-2.3c2.5-0.8,3.7-5.4,1.8-7.2
				c-0.2-0.2-0.5-0.4-0.8-0.4c-2.1,0.4-4.3,0.9-6.8,1.4c1.4,1.1,2.4,1.8,3.6,2.8c-0.4,1.8-2,3.2-4,3.2c-2.9-0.1-5.9-0.8-8.8-1.3
				c-0.6-0.1-1.3-0.2-1.9-0.2c0.1,0.8-0.1,1.8,0.4,2.3C129.4,103.5,130.4,104.1,131.3,104.2z M131.5,49.3c0.4,0,0.9,0.1,1.7,0.3
				c-0.7-1.4-1.2-2.6-1.9-4c-0.3,0.9-0.5,1.4-0.7,2c-0.2,0.5-0.4,1-0.6,1.6C130.6,49.3,131,49.3,131.5,49.3z M131,8.5
				c1.5,2.3,3.1,4.9,4.7,7.5c0.6-0.4,1.3-0.9,2.2-1.6C135.8,11.8,133.8,9.2,131,8.5z M129.2,95.8c1.9,2.1,5.7,2.2,7.7,0.4
				C134.4,96.1,131.9,96,129.2,95.8z M114.1,90c-0.4,4.2,2.9,7.2,7.2,7C121.7,91.8,116.6,92.6,114.1,90z M125.8,50.9
				c-2.9,1.3-3.5,4.8-1,6.9c1.7,1.5,3.8,2.5,5.7,3.7c0.2,0.1,0.7,0,0.9-0.2c1.2-0.9,2.5-1.7,3.7-2.7c1.5-1.3,2.7-3.2,1.7-5.1
				c-0.8-1.4-2.6-2.4-4.1-3.3c-0.6-0.4-1.5-0.3-2.8-0.5C128.8,50,127.2,50.2,125.8,50.9z M123.7,51.2c-0.4-2.5,0.5-4.1,2.3-4.3
				c1.5-0.1,2.6,0.5,2.4,2.8c2.4-3.2,2.5-6.3,1.6-9.5c-0.9-3.2-2.7-4.9-4.9-5c-2.5-0.1-5,1.7-6.1,4.6c-0.3,0.8-0.5,1.6-0.6,2.4
				C118,46.3,120.6,50.8,123.7,51.2z M124,22.1c-2.4-3.1-5.1-5.6-9.3-5.6C115.3,19.7,118.4,21.6,124,22.1z M116.1,15.8
				c3.9,0.7,6.6,2.7,8.5,5.8c0.2,0.3,0.7,0.7,1,0.6c1.3-0.2,2.5-0.6,3.8-0.9C127.6,16.6,121,13.8,116.1,15.8z M121.5,93.9
				c0.4,2.8,2.8,6.1,5.1,6.8c-0.1-0.3-0.3-0.5-0.2-0.7c0.2-0.5,0.7-1.3,0.8-1.2c2.7,0.8,5.3,1.8,7.9,2.6c1.3,0.3,2.8,0.4,4.2,0.1
				c0.6-0.1,1.5-1.4,1.4-2.1c-0.1-0.9-0.8-2.1-1.5-2.4c-0.7-0.3-1.9,0.1-2.8,0.5c-3.8,1.8-5.2,1.6-7.9-1.4c-0.2-0.2-0.5-0.5-0.8-0.6
				C125.8,94.9,123.7,94.4,121.5,93.9z M269.5,89.7c-1.4-10.4-8.2-19.6-15.8-20.6c0.7,1.8,1,3.5,2,4.8c6.5,8.4,8.2,17.6,4.7,27.7
				c-1.2,3.6-3.1,6.9-4.7,10.3C263.1,108.8,270.5,96.9,269.5,89.7z M255.1,68.5c4.5,1.4,8.1,3.9,10.4,8c1.6,2.8,2.7,5.8,3.8,8.3
				c0.7-10-9.6-23.3-21.5-27.4c1.8,3.1,3.6,6.3,5.6,9.5C253.8,67.6,254.4,68.3,255.1,68.5z M227.5,109.2c2.7,4.5,4.5,5,9.3,2.8
				c12.5-5.7,18.1-18.6,17.5-30.8c-0.6,1.9-1.2,3.8-1.8,5.6c0.2-3,0.9-5.8,1.1-8.7s0.1-5.8,0.1-8.7c-1,3.3-1.3,6.7-1.9,10
				c-2.6,15.2-10,25-26,27C226.4,107.5,226.9,108.4,227.5,109.2z M233.5,114.2c4.8,1.7,9.2,1.7,13.6,0.8c2.3-0.5,5.3-0.8,6.5-2.4
				c5.5-7.2,8.8-15.3,7.4-24.7c-0.7-5.2-2.9-9.7-6.2-14C256.2,91.8,252.8,107,233.5,114.2z M233.3,94.5c5.9-3.8,10.2-11.1,11.6-20.3
				c1.6-9.8-3-20.6-10.7-25.4c-11.9-7.4-27.2-6.4-38.2,2.4c-0.4,0.3-0.9,0.5-1.3,0.7c0.2,0.2,0.3,0.3,0.5,0.5
				c1.2-0.5,2.3-1.1,3.5-1.4c11.5-3.1,22.4-1.3,32.5,4.8c9.9,5.9,13,15.8,8.5,26.5C237.9,86.5,235.4,90.5,233.3,94.5z M233.1,43.9
				c0.3,1.8,0.5,3.3,2.8,3.3c0.1-14.2-13.8-37.2-22.6-38.2c0.7,0.7,1.5,1.6,2.3,2.5c0,0,0,0,0,0c0.5,0.3,1,0.6,1.4,1
				C226.1,21.1,231.3,31.6,233.1,43.9z M245.9,71.8c-0.6,9.6-4.4,17.7-12.6,23.4c-3.7,2.5-6.9,5.8-10.9,9.3c1.9,0.5,3.1,1.2,4.2,1.1
				c8.6-1.2,15.6-5,19.9-12.8c3.3-5.9,4.6-12.3,5.7-18.9c0.8-5.1-0.3-9.3-3.6-13.6c-4.7-5.9-9.7-11-16.7-13.9c0,0,0,0,0,0
				c-0.1,0-0.1,0-0.2,0c0,0,0,0.1,0,0.1c0.1,0,0.1-0.1,0.2-0.1c0,0,0,0,0.1,0c0.2,0.3,0.4,0.6,0.7,0.8
				C241.9,52.7,246.6,60.9,245.9,71.8z M187.5,100.6c0.8-4.3,1-8.8,1.4-13.2c-0.1,0-0.2,0-0.3,0.1c-1.9,5.3-3.7,10.5-5.6,15.8
				C186.6,103.9,186.9,104,187.5,100.6z M196.9,99.2c-2.3-4.7-4.8-9.3-7.2-13.9c-0.1-0.3-0.3-0.5-0.4-0.7c0,3.1,0.2,6.3-0.1,9.3
				c-0.2,3.1-0.9,6.2-1.4,9.9c2.9-0.9,5.8-1.8,8.7-2.8C196.8,100.9,197.1,99.7,196.9,99.2z M187.9,73.4c1.9,14.2,7.9,26.1,19.8,34.7
				c1.7,1.2,3.2,2.4,5,0.4c0.4-0.4,0.9-0.5,1.4-0.7c12-4.6,19.4-13.8,24.3-25.1c4.8-10.8,1.6-20.9-7.8-26.3c-9-5.1-18.7-7.2-29-5.3
				c-6.3,1.2-11.7,3.6-13.3,10.6c-0.5,2.2-0.7,4.5-0.9,6.1C187.6,70.1,187.7,71.8,187.9,73.4z M193.2,6.8c5,0.8,9.6,2.5,13.5,5.6
				c3.3,2.7,6.3,5.7,9.4,8.6c6,5.9,10.8,12.7,12.3,21.2c0.5,2.6,2,3.1,4.2,3.6c-0.5-5.5-2-10.6-4.1-15.5
				c-3.1-7.1-7.4-13.3-12.9-18.7c-3.7-2.8-7.4-5.4-12.4-5.2C199.9,6.5,196.5,6.6,193.2,6.8z M173.3,23.1c8.5,1.8,16.6,4.7,22.1,11.9
				c2.6,3.4,4.1,7.6,6.2,11.5c1.5-0.6,3.7-1.5,5.8-2.4C203.8,25,171.9,12.1,155,23.1C161.2,21.8,167.3,21.8,173.3,23.1z
				 M173.6,101.9c2.4-5.3,2.2-10.6-0.2-15.8c-2.1-4.8-5.4-5.2-9.1-1.3c3.5,2.6,5.1,6.2,5.3,10.4c0.2,4.3-0.9,8-4.3,11
				C170.1,106.9,171.7,106.1,173.6,101.9z M176.8,29.5c0.3,0.4,0.1,1.1,0.1,1.9c8.2,2.9,10.8,6.4,15.3,21.7c2.6-1.9,5.1-3.7,7.5-5.6
				c0.3-0.2,0.4-0.9,0.3-1.3c-1.2-5.1-3.3-9.8-7.3-13.1c-7.4-6-15.6-9.3-24.4-10.1c-4.2-0.4-8.6-0.1-13.1,0.7
				c-2.6,0.5-4.9,2.2-7.4,3.3c0.1,0.5,0.2,0.9,0.3,1.4c1.9,0.1,4,0.7,5.7,0.2c2.9-0.8,5.5-2.4,8.2-3.6c2.1-1,4.2-1.4,6.2-1.3
				C171.7,24.1,174.8,26,176.8,29.5z M162.8,85c10.3-9,17.7-19.7,16.2-34.4c-0.4-4.6-0.9-9.2-4.6-12.7c-4.1-3.8-8.8-6.1-14.4-6.7
				c-0.7-0.1-1.9,0.4-2.2,1c-1.7,3-3.1,6.1-4.6,9.2c-0.9,1.9-1.7,3.8-2.6,5.7c-0.1-0.1-0.3-0.1-0.4-0.2c0.2-0.6,0.4-1.1,0.7-2.1
				c-1.3,0.6-2.4,1-3.4,1.5c-2.4,1.3-4.8,2.6-7.2,3.9c0,0,0,0,0,0c2.8-2.1,4-4.8,3.6-8.3c-0.5-4.5-4.4-7.4-7.8-5.9
				c-3.8,1.7-5.5,7.1-3.4,10.7c3.1-0.6,4.8,1,4,4.1c1.3-0.3,2.5-0.5,3.7-0.7c-1.1,0.4-2.2,0.9-3.3,1.4c1.3,3.6,0.3,6.7-3.5,9.3
				c-2.4,1.6-2.7,3.5-2.2,5.8c0.8,3.5,1.7,7,2.5,10.3c-0.5-0.9-1.5-2.1-1.8-3.4c-0.6-2.6-1.1-5.3-1.1-8c0-2.3-0.6-3.6-2.8-4.6
				c-3.3-1.7-6.3-3.9-5-8.4c-2.3-0.9-4.5-1.7-6.9-2.6c1.2,1.8,2.3,3.5,3.4,5.2c-0.4,0.1-0.6,0-0.7-0.2c-1.7-2.2-3.3-4.4-5.1-6.6
				c-2.9-3.6-6.2-4.5-10.6-3.1c-2,0.7-3.9,1.5-5.7,2.4c-5.8,3-8.2,9.3-5.8,15.4c2.6,6.6,6.8,12.3,11.6,17.4
				C120.2,98.7,144.7,100.7,162.8,85z M179.3,70.9c1.2-4.5,1.3-9,0.6-13.6c-0.7,2.6-1.2,5.1-2,7.6c-0.9,2.5-2,4.9-3,7.3
				c1.2-0.2,2.4-0.4,3.6-0.7C178.8,71.4,179.2,71.2,179.3,70.9z M194.1,14.5c-9.9-5-21.5-4.4-29.9,4.3c1.8-0.3,3.4-0.6,5.1-0.8
				c12.9-1.7,34.5,9.5,38.8,25.1c0.1,0.3,0.6,0.8,0.9,0.8c3.9-0.4,7.7-0.8,12-1.3c-1.2-2.5-2.2-5.3-3.8-7.7
				C211.2,26.4,203.6,19.3,194.1,14.5z M181.8,103c3-6.1,1.5-16.1-3.2-21c-2.1-2.2-6.3-2.5-8.4-0.8c7.3,7.8,8.1,15.9,1.5,25.3
				c3-0.5,5.5-0.8,7.9-1.5C180.4,104.8,181.4,103.9,181.8,103z M187.2,88.1c1.4-5.4-1.3-12.1-6-15.1c-2.2-1.4-5.4-1.4-7.1,0.6
				c-2.2,2.4-4.1,5-6.3,7.8c1.2-0.5,2.1-1,3-1.3c3.5-1.4,6.2-1,8.5,1.9c1.5,1.8,2.8,3.9,3.5,6.1c0.9,2.9,1.2,6,1.8,9.2
				C185.5,94.1,186.4,91.1,187.2,88.1z M186.8,64.2c-0.3-4.9-2.6-9.1-5.2-13.1c-0.5-0.8-1.1-1.6-2.1-2.9c0.1,1.8,0.2,2.9,0.3,4.1
				c0.3,5.3,0.9,10.6,0.8,16c0,2.3-0.1,3.5,2,5c2.3,1.7,3.6,4.6,4.7,6C187.2,75,187.2,69.6,186.8,64.2z M178,10.7
				c3.4,0.4,7.5,0.4,11.3,1.4c8.5,2.1,14.8,7.9,21,13.7c5.1,4.7,9.6,9.9,11.4,16.9c0.1,0.2,0.2,0.6,0.4,0.6c1.9,0.4,3.8,0.7,6,1
				c-0.4-1.7-0.7-3.2-1.2-4.5c-4.4-12.9-13.4-22.3-24.7-29.2C194.1,5.5,185.6,7.4,178,10.7z M179.8,47.4c3.5,4.1,5.8,8.7,7.3,13.8
				c1-1.5,2.2-2.9,2.9-4.4c0.6-1.4,1.4-3.2,1-4.5c-0.9-3.7-2.1-7.5-3.8-10.9c-2.5-5.1-6.7-8.5-12.7-9.6c3.1,4.1,3.6,5.6,2.3,7.6
				c1.2-4.9-3.1-6.5-6-9.8c2.3,0.3,3.8,0.5,5.3,0.7c-2.3-4.7-7.4-7-12.1-5.3c-3,1.1-5.9,2.8-8.9,4.1c-2.6,1.2-5.3,1.2-7.7-0.6
				c-3-2.2-2.8-5,0.7-6.4c2-0.8,4.2-1.1,6.5-1.6c-1.8-3-4.7-3.4-8-3.7c1.9-1.1,3.8-2.2,6-3.5c-5.8-1.5-10.3,0.7-15,3.1
				c0.9-0.6,1.7-1.3,2.6-1.9c-2.8,0.2-5.9,2.6-8.6,6c-0.4,0.5-0.8,1.1-1.4,1.2c-3.8,1.3-7.6,2-11.3-0.5c-0.5-0.3-1.1-0.4-1.7-0.5
				c-2.6-0.3-5.3-0.5-7.7,1.6c1.4,0.3,2.7,0.4,3.8,0.8c1.2,0.4,2.2,1,3.3,1.5c-6.4,0.3-10.4,1.8-12,5.1c1.6-0.6,3.1-1.4,4.6-1.8
				c1.5-0.5,3.1-0.8,4.6-1.1c-5,4-5.6,4.7-5.3,7.2c1.6-1,3.1-2.1,4.7-2.9c1.5-0.8,3.2-1.4,4.7-2c-0.2,1-0.3,1.6-0.4,2.2
				c-0.1,0.6-0.1,1.3-0.3,1.9c0,0,0,0.1,0,0.1c-2.4,6.4-8,8.7-14.3,6c-1.4-0.6-2.8-1.2-4.8-2c1.6,1.7,2.7,2.9,3.8,4.1
				c-7.6-1.7-13.9-0.3-15.1,3.6c3.1-0.7,5.8-3.3,9.2-1.4c-2.4,1.1-4.8,1.9-6.9,3.1c-2.5,1.5-3.9,4.2-3.7,6.1c1.3-1,2.6-2.1,3.9-3.2
				c-2,4-1.8,8.1,0.6,9.3c0-0.1,0.1-0.3,0.1-0.4c0.1-6.8,4.4-10.3,9.9-13c5.4-2.7,10.2-2.4,14.6,2c1.5,1.5,3.6,2.3,5.4,3.4
				c-2.3-4.1-2.8-8.1-1.3-11.5c0.3-0.7,0.7-1.4,1.1-2.1c2.7-3.9,7.7-3.8,10.1,0.3c0.6,1,1,2,1.6,3.2c1.5-3.8,3.5-7.1,7.9-5.7
				c5.7,1.8,5.7,6.8,5.2,11.6c1.7-0.8,3.5-1.4,5.1-2.3c0.9-0.6,1.8-1.5,2.3-2.5c1.6-3.2,2.8-6.6,4.6-9.6c0.6-1.1,2.5-2.2,3.8-2.2
				c6.2,0.1,12.5,4.1,16.2,9.5c1.4,2.1,2.4,4.4,2.9,6.7C179.4,46.7,179.6,47.1,179.8,47.4z M183.2,104c-0.3-0.1-0.8-0.1-1,0.1
				c-2.8,3.3-6.9,2.6-10.5,3.1c-6.1,0.9-11.9-0.7-17.6-2.7c-1.3-0.5-2.7-0.7-4-1.2c-2.6-0.9-4.8-0.2-7.3,0.8c-2,0.8-4.4,0.7-6.6,1.2
				c-5.3,1-8.7-1.8-12.1-5.4c-1.7-1.8-5-2.2-7.6-3c-6.9-2.1-13.9-4-20.7-6.3c-4.6-1.6-7.8-5.2-10.5-9.3c-2.1-3.2-2.1-6.4-0.2-9.5
				c1.6-2.6,3.6-5,5.2-7.6c0.3-0.5,0.2-1.5,0-2.2c-0.1-0.5-0.6-1-0.9-1.5c-1.7-2.7-3.1-5.4-1.1-9.3c-1.4,1.4-2.2,2.3-3.3,3.4
				C84,51,85.5,49,92.7,44c-1,0.3-2.1,0.7-3.1,1c-1,0.3-2,0.6-3.2,0.9c1.1-4.7,5.8-6.3,14-5.4c-1.2-0.7-2.4-1.5-3.6-2.2
				c0.2-0.3,0.4-0.6,0.6-1c1.1,0.1,2.2,0.1,3.2,0.4c1.4,0.4,2.6,1.1,4,1.6c5.1,2.1,11.3-1.5,12.1-7c0.1-0.4,0-0.9,0-1.6
				c-1.6,0.9-2.9,1.6-4.3,2.4c-1.4,0.7-2.8,1.4-4.3,2.2c-0.9-3,1.1-4.6,2.9-6.7c-2.7,1-4.9,1.8-7.5,2.7c1.6-5.1,5.8-5.8,10.2-6.9
				c-2-0.5-3.5-0.9-5.2-1.3c1.7-2.9,4.5-2.7,7.3-2.9c-0.3-0.6-0.6-1-0.8-1.5c-1.5-2.4-1.3-3.2,1.5-3.9c4.4-1.1,8.4-0.1,12.3,3.5
				c-0.7-3.4-1.3-6.2-1.8-9c0-0.3,0.2-0.9,0.5-1.3c1,4.9,1.8,9,2.7,13.5c0.9-1.1,1.3-1.7,1.8-2.1c2.8-1.7,2.6-3.9,1.2-6.3
				c-0.4-0.7-0.7-1.5-1.2-2c-1.2-1.1-2.6-2-4.3-3.3c0.1-0.1,0.2-0.2,0.2-0.2c1.9,0.3,3.9,0.4,5.6,1.2c1.4,0.7,2.5,2.1,3.6,3.2
				c1,1,1.8,2.5,3.7,1.3c0.1-0.1,0.4,0.1,0.4,0.2c0,0,0,0,0,0c0,0,0,0,0,0c3.5-0.4,6.6-0.9,9.8-1.1c0.8-0.1,1.7,0.7,3,1.2
				c-2.1,1.1-3.7,1.9-5.6,2.9c3.2,0.6,6.1,1.2,7.1,4.4c4.7-0.4,8.4-2.7,11.9-5.6c6.4-5.3,14.3-7.8,22.4-8.9
				c5.7-0.8,11.6-0.9,17.4-0.5c8.3,0.6,13.6,6.1,18.5,12.2c6.1,7.7,9.5,16.5,10.9,26.1c0.4,2.9,1.8,5,4.4,6.4
				c0.9,0.5,1.7,1.1,2.3,1.9c2,2.6,4.6,3.9,7.4,5.3c12.5,6.2,19.7,15.9,19.8,30.2c0.1,14.3-9.8,25.7-24,27.9
				c-2.7,0.4-5.4,0.5-8.1,0.4c-5.1-0.3-9.1-2.6-11.9-7c-1-1.6-2.2-3.5-3.7-4.1c-1.3-0.5-3.3,0.8-4.8,1.5c-2.3,1.1-4.4,2.6-6.6,3.8
				c-0.3,0.2-1,0-1.4-0.2c-3.6-2.8-7.2-5.7-10.8-8.5c-0.5-0.3-1.4-0.6-1.8-0.3C192.9,103.7,188.2,104.8,183.2,104z"/>
		</g>
		<g>
		</g>
	</g>
</g>
<g>
	<path d="M30.1,127.3c-2.1-0.7-3.9-1.6-5.3-3c-1.4-1.4-2.3-3-1.7-4.9c0.7-2.2,3.1-3.7,6.3-3.9c5.9-0.3,11.8-0.7,17.7-0.8
		c16-0.2,32-0.3,48-0.3c6.5,0,12.9,0.2,19.4,0.5c3.9,0.2,7.9,0.4,11.8,0.8c3.6,0.4,5.6,2.3,5.3,4.9c-0.2,1.7-1.1,3.2-2.6,4.3
		c-1.1,0.8-2.5,1.4-3.7,2.1c-0.2,0.1-0.5,0.2-0.8,0.4c1,0.9,2.1,1.7,3,2.6c4.1,4.1,6.5,8.8,7.9,13.9c1.8,6.1,2.3,12.4,1.8,18.7
		c-0.5,7.1-2.6,13.9-6.6,20.2c-2.6,4.1-5.9,7.8-10.1,11.1c-5.5,4.3-12,7.2-19.1,9.3c-0.4,0.1-0.8,0.2-1,0.5
		c-3.1,3.1-7.4,4.8-12.1,5.9c-4.5,1-9.1,1.4-13.7,1.1c-5.8-0.3-11.5-1.3-16.5-4c-1.5-0.8-2.8-2-4.2-3c-0.4-0.3-0.9-0.7-1.4-0.9
		c-8.4-2.6-15.9-6.3-21.8-11.9c-1.9-1.8-3.5-3.7-5.1-5.7c-3.6-4.5-5.7-9.5-7.1-14.6c-1.3-5-1.7-10-1.4-15c0.3-4.6,1-9.1,2.5-13.6
		c1.5-4.3,3.7-8.4,7.3-11.9C28,129,29,128.2,30.1,127.3z M128.6,133.7c-1,1.4-2.5,1.6-4,1.7c-6.4,0.4-12.8,0.8-19.2,1.1
		c-3.6,0.2-7.2,0.1-10.8,0.1c-4.7,0.1-9.5,0.1-14.2,0.2c-1.2,0-2.5,0-3.7,0c-6.5,0-13.1,0-19.6-0.1c-3.6,0-7.1-0.2-10.7-0.4
		c-5-0.2-10.1-0.4-15.1-0.7c-1.9-0.1-4.1,0-5.6-1.7c-1,1.9-2,3.6-2.8,5.4c-2.1,4.8-3,9.8-3.3,14.9c-0.3,4.2-0.2,8.4,0.6,12.5
		c1.1,5.1,3,10,5.9,14.7c1.2,1.9,2.8,3.6,4.3,5.3c3,3.5,6.7,6.4,11.1,8.8c4.9,2.7,10.2,4.7,15.8,6.1c6.5,1.6,13.1,2.2,19.9,2.3
		c7.3,0,14.5-0.8,21.4-2.6c8.2-2.2,15.6-5.4,21.6-10.6c3.4-2.9,6.3-6.1,8.5-9.7c3.3-5.5,5.2-11.4,5.8-17.5c0.4-4,0.3-7.9-0.1-11.9
		c-0.5-4.1-1.3-8.1-3-12C130.7,137.6,129.7,135.8,128.6,133.7z M84.9,127C84.9,127.1,84.9,127.1,84.9,127c1.2,0,2.4-0.1,3.6-0.1
		c4.6-0.1,9.3-0.2,13.9-0.4c4.1-0.2,8.2-0.4,12.3-0.7c2.5-0.2,4.9-0.4,7.3-0.8c3-0.5,5.5-1.8,6.8-4.2c1.1-2.1,0.1-3.8-2.7-4.1
		c-3.8-0.4-7.7-0.7-11.6-0.8c-6-0.2-12-0.4-18.1-0.5c-6.6-0.1-13.3-0.1-19.9-0.1c-11.5,0.1-23.1,0.3-34.6,0.6
		c-4.1,0.1-8.1,0.4-12.2,0.7c-1.8,0.1-3.4,0.7-4.1,2.2c-0.7,1.5,0.2,2.7,1.4,3.8c1.7,1.6,3.9,2.4,6.4,2.7c4.4,0.5,8.8,0.9,13.2,1.2
		c7,0.3,13.9,0.5,20.9,0.7C73.2,127.1,79.1,127,84.9,127z M126.7,133.4c0-0.1,0-0.2,0-0.3c-0.4-0.1-0.7-0.3-1.1-0.4
		c-1.4-0.3-2.7-0.6-4.1-0.7c-3.1-0.3-6.3-0.5-9.5-0.7c-6.4-0.3-12.9-0.5-19.3-0.6c-3.7-0.1-7.5,0-11.2,0c-5.9,0-11.8-0.1-17.7,0
		c-10.5,0.1-20.9,0.3-31.3,1.4c-1.4,0.1-2.8,0.5-4.3,0.7c-0.2,0-0.4,0.3-0.7,0.4c0.2,0.1,0.4,0.3,0.7,0.4c0.6,0.2,1.2,0.4,1.7,0.4
		c2.7,0.3,5.4,0.7,8.1,0.8c7.2,0.3,14.4,0.7,21.6,0.8c6.4,0.1,12.7,0,19.1,0.1c3.5,0,7,0.1,10.5,0c5.4-0.1,10.8-0.1,16.1-0.4
		c5.9-0.3,11.8-0.7,17.7-1.2C124.5,134.1,125.6,133.7,126.7,133.4z M126.7,131.7c-1.5-1.8-3.5-3.4-5.8-4.8c-0.2-0.1-0.6-0.2-0.9-0.2
		c-3.2,0.2-6.3,0.4-9.4,0.6c-7.5,0.3-15,0.8-22.5,0.9c-7.9,0.1-15.9,0-23.8-0.1c-6.5-0.1-13.1-0.4-19.6-0.7
		c-2.8-0.1-5.6-0.2-8.3-0.5c-1.9-0.3-3.2,0.1-4.5,1.1c-0.1,0.1-0.3,0.2-0.4,0.3c-1.3,1.2-2.7,2.4-4,3.5c1.3,0,2.5-0.3,3.6-0.3
		c4.5-0.3,9-0.5,13.5-0.6c8.8-0.2,17.6-0.4,26.4-0.5c4.7-0.1,9.4,0,14.1,0.1c9.5,0.2,18.9,0.3,28.4,0.6
		C117.8,131,122.3,131.4,126.7,131.7z M60.7,204.6c6.8,3.8,26.9,4,31.7,0.5C81.8,206.6,71.4,206.5,60.7,204.6z"/>
	<path d="M37.2,161.4c-1-1.4-2.1-2.6-2.7-4c-1.6-3.4-1.2-6.8,0.1-10.2c1.4-3.6,3.9-6.7,6.6-9.7c0.6-0.6,1.3-0.9,2.2-0.8
		c0.9,0.2,1.7,0.5,1.9,1.5c0.3,1.4,1.5,2.4,2.7,3.3c1.5,1.2,3.2,2.2,4.7,3.5c1.6,1.4,2.7,3,3.6,4.8c0.1,0.1,0.2,0.2,0.2,0.3
		c1.4-1.3,2.8-2.6,4.2-3.8c2.2-1.9,4.7-3.3,7.7-4.3c0.5-0.2,1-0.6,1.4-0.9c0.5-0.5,1-1,1.6-1.4c2-1.4,3.3-1.5,5.7-0.3
		c3-1.5,3.2-1.4,5.8,0.2c1-0.2,1.8-0.6,2.8-0.7c1.3-0.2,2.3,0.4,2.9,1.3c0.3,0.4,0.5,0.6,1.1,0.4c2.8-0.8,4.4,0.7,4.7,2.7
		c0.1,0.4,0.2,0.9,0.5,1.2c0.2,0.2,0.7,0.4,1.1,0.3c4.7-0.9,8.7,0.3,12.1,2.8c3.8,2.7,5.9,6.2,6.6,10.3c0.6,3.5-0.1,6.9-2.3,10
		c-0.2,0.3-0.2,0.7-0.1,1.1c0.2,0.8,0.6,1.7,0.9,2.5c0.1,0.2,0.3,0.5,0.5,0.7c2.5,1.7,2.1,3.3,0.5,5.1c-0.2,0.2-0.4,0.4-0.6,0.6
		c0.4,0.6,0.9,1.1,1.2,1.7c0.6,1.3,0,2.6-1.5,3.3c-1.3,0.6-2.7,0.9-4.2,0.8c-0.4,0-0.8,0.3-1.1,0.5c-1.6,1.5-3.1,2.9-4.7,4.4
		c-1.9,1.9-4.4,3.3-6.8,4.7c-3.7,2.3-7.7,3.9-12.3,4.6c-3.8,0.6-7.5,0.4-11.1-0.7c-0.6-0.2-1-0.2-1.5,0.2c-1.9,1.5-3.9,2.6-6.6,3
		c-1.6,0.2-3.9-0.2-4.9-1.9c-1.4-2.3-1.3-4.6-0.6-7c0.1-0.2,0.1-0.5,0.2-0.7c0.8-1,0.1-1.7-0.6-2.5c-2.2-2.4-4.3-4.8-5.7-7.5
		c-0.6-1.1-0.9-2.3-1.3-3.5c-0.1-0.3-0.2-0.7-0.2-0.8c-1.1,0.8-2.3,1.6-3.3,2.4c-2.2,1.7-4.8,2.6-7.6,3.4c-1.5,0.4-3.1,0.9-4.5,1.5
		c-0.8,0.3-1.4,0.9-2.1,1.4c-0.6,0.5-1.2,1.1-2.1,0.9c-1-0.1-1.7-0.6-1.9-1.4c-0.5-1.9-1.1-3.9-1.4-5.8c-0.5-3-0.4-5.9,0.5-8.8
		c1.1-3.6,3.5-6.5,7.7-8.3C36.9,161.6,37.1,161.5,37.2,161.4z M110.5,171.3c-0.7-1.3-1.3-2.6-1.9-3.7c-0.7-1.2-1.6-2.3-2.2-3.5
		c-1-2-1.9-4.1-2.9-6.1c-1.6-3.4-3.4-6.7-6.5-9.3c-4.1-3.6-9.3-5.4-15.2-6.3c-4.2-0.7-8.2-0.3-12.1,1.1c-4.9,1.8-8.7,4.8-11.5,8.5
		c-2.4,3.1-4.4,6.4-6.7,9.6c-1.3,1.7-1.3,3.5-0.6,5.4c0.5,1.2,0.9,2.4,1.4,3.6c1.4,3.5,2.1,7.3,4.1,10.7c1.3,2.2,2.9,4.3,5,6.1
		c1-1.1,1.9-2.2,2.9-3.2c1.2-1.2,2.4-2.4,3.8-3.3c2-1.3,4.2-1,5.7,0.7c2.6,2.9,3.2,6.2,2.3,9.7c-0.3,1.2-1.1,2.3-1.7,3.6
		c1.1,0.1,2.2,0.3,3.3,0.3c4.3,0.2,8.3-0.9,11.9-2.6c3-1.4,5.8-3.2,8.4-5.1c2.3-1.7,4.3-3.7,6.4-5.5c1.4-1.2,0.5-2.8,1.3-4.1
		c0-0.1-0.1-0.2-0.2-0.3c-0.6-1.4-0.4-2.9,0.4-4.2C107,172,108.5,171.5,110.5,171.3z M50.1,172.1c-1.6,1.1-3.1,2.3-4.8,3.3
		c-1.5,1-3.4,1.4-5.3,1.3c-0.8,0-1.7-0.2-2.1-1c0.1,0,0.2-0.1,0.3-0.1c0.2,0,0.3,0,0.5,0c3.1,0.1,5.8-0.7,8.1-2.5
		c0.9-0.7,1.6-1.4,2.4-2.1c0.2-0.2,0.4-0.5,0.3-0.7c-0.2-0.8-0.6-1.6-0.9-2.4c-5.7,1-8.8,0.6-9.3-1.1c2.2,0.6,4.5,0.8,6.8,0.5
		c2.1-0.3,2.1-0.3,1.8-1.9c0-0.1,0-0.2,0-0.2c-0.2-1.5-0.2-1.5-2-1.7c-0.1,0-0.2,0-0.3,0c-0.9-0.2-1.6-0.6-2.1-1.5
		c1.3,0.2,2.5,0.3,3.7,0.5c0.8,0.1,1.2,0.1,1.6-0.6c0.4-0.7,0.9-1.4,1.5-2.1c0.5-0.5,0.4-1,0-1.4c-1.2-1.6-3.1-2.4-5.3-2.8
		c-0.4-0.1-0.9-0.2-1.6-0.3c0.6-0.3,0.9-0.6,1.1-0.6c0.9,0,1.8,0,2.7,0.2c1.9,0.5,3.3,1.6,4.5,3c0.9-1.2,1.8-2.1,0.9-3.6
		c-1.6-2.6-3.8-4.5-6.9-5.8c-0.3-0.1-0.6-0.3-0.8-0.4c0-0.1,0.1-0.2,0.1-0.3c0.5,0,1.1-0.1,1.6,0c3.8,1.1,5.8,3.6,7.7,6.3
		c0.3-0.6,0.8-1.3,0.7-1.8c-0.9-3-2.9-5.5-5.9-7.5c-2.4-1.5-4.7-3.2-5.8-5.7c-0.1,0-0.2,0.1-0.2,0.1c-3.1,3.4-5.6,7.1-6.7,11.4
		c-1,4,0.2,7.5,3.7,10.4c0.5,0.4,1,0.7,1.6,1c-0.4,0.2-0.4,0.3-0.5,0.3c-0.2,0.1-0.4,0.1-0.7,0.2c-2.7,0.9-5.1,2.1-6.8,4
		c-1.9,2.2-2.5,4.7-2.6,7.3c-0.1,2.5,0.3,5,0.6,7.5c0.1,0.9,0.5,1.8,0.8,2.7c0.7-0.5,1.2-1.1,1.8-1.3c1.9-0.7,3.8-1.4,5.8-2
		c0.9-0.3,1.8-0.5,2.7-0.8c2.6-0.9,4.7-2.5,6.6-4.2C50.1,174.6,51.4,173.5,50.1,172.1z M66.8,186.7c0.1,0,0.2,0.1,0.3,0.1
		c-0.2,0.3-0.4,0.6-0.6,0.9c-2.2,2.9-3.9,5.9-4.8,9.3c-0.2,0.8,0.2,1.2,1,1.7c3.2-3.2,5-6.9,6.5-10.7c-0.6,3.9-2.2,7.5-5.3,10.7
		c1.3,0.2,2.5-0.1,3-0.9c1-1.3,2.1-2.6,2.8-4c0.9-1.7,1.5-3.5,2.2-5.3c0.1-0.3,0.2-0.5,0.4-0.8c0.1,0,0.2,0.1,0.2,0.1
		c-0.4,3.2-1.5,6.2-3.7,9c0.3-0.1,0.4-0.1,0.4-0.1c2.1-1.5,3.9-3.2,4.8-5.4c1.3-3.2,0.4-6.1-1.9-8.8c-0.9-1-1.7-1-3-0.3
		c-0.3,0.2-0.6,0.4-0.9,0.6c-2.4,1.8-4.1,4-5.7,6.3c-0.7,1.1-1.2,2.3-1.6,3.6c-0.3,0.9-0.2,1.8-0.3,2.8c0.1,0,0.2,0,0.4,0
		C62.3,192.2,64.1,189.2,66.8,186.7z M111,167c0.3-0.2,0.4-0.3,0.4-0.4c0.3-0.4,0.6-0.8,0.8-1.2c1.8-3.4,1.7-6.9,0.4-10.3
		c-1.9-4.8-5.4-8.3-11.7-9.5c-1.2-0.2-2.6-0.2-4,0.1c2.6,1.8,4.6,3.7,6.1,6c1.5,2.3,2.7,4.6,4.1,6.9c0.4,0,0.8,0,1.4,0.1
		c-0.7,1.1-0.6,1.2,0.8,1.7c-0.1,0.2,0,0.5-0.2,0.7c-0.9,0.9-0.3,1.7,0.2,2.5C109.7,164.8,110.3,165.9,111,167z M107.4,176.2
		c-0.1,1.2,0.4,2,1.4,2.1c2.4,0.2,4.4-0.7,5.3-2.6c0.4-0.8-0.2-1.8-1.2-2.2C110,172.4,107.6,173.6,107.4,176.2z M107.5,179.4
		c-0.1,1,0.5,1.8,1.6,2.1c1.5,0.4,3.2,0.1,3.9-0.8c0.6-0.8,0.5-1.5-0.2-2.1C111,178.9,109.3,179.2,107.5,179.4z M75.8,140.4
		c0-0.1,0.1-0.2,0.1-0.3c-0.5-0.2-1-0.6-1.5-0.6c-1,0-1.7,0.6-2.5,1.4C73.4,140.8,74.6,140.6,75.8,140.4z M92.3,143.3
		c0.1-0.1,0.2-0.1,0.4-0.2c-0.4-0.5-0.7-1.2-1.3-1.4c-0.5-0.2-1.3,0.2-2.1,0.3c0.3,0.2,0.3,0.3,0.4,0.3
		C90.6,142.7,91.4,143,92.3,143.3z M87.2,141.6c-0.5-1.7-1.5-1.9-3.2-0.8C85.1,141.1,86.1,141.3,87.2,141.6z M81.2,140.4
		c-1.2-1.1-2.1-1.1-2.8,0C79.3,140.4,80.2,140.4,81.2,140.4z"/>
	<path d="M132.6,153.2c-0.6,7.4-2.6,14-6.5,20.2c-0.1,0.1-0.1,0.2-0.2,0.3c-0.3,0.4-0.7,0.8-1.3,0.5c-0.3-0.2-0.6-0.8-0.5-1.1
		c0.6-2.7,1.5-5.4,2-8.1c1.1-5.7,0.9-11.3-2.1-16.6c-0.4-0.7-0.1-1,0.6-1.2c2-0.5,4-0.9,6-1.4c0.9-0.2,1.4,0.1,1.5,0.8
		C132.3,148.9,132.5,151.3,132.6,153.2z M125.6,172.3c4.4-8.3,7.1-16.7,5.6-25.9c-2.2,0.5-4.3,1-6.4,1.5
		C129.2,156,127.6,164.2,125.6,172.3z"/>
	<path d="M131.2,143.2c-0.2,0.2-0.4,0.6-0.8,0.7c-1.8,0.5-3.6,1-5.4,1.5c-0.6,0.2-1,0-1.2-0.5c-0.9-2-1.8-4-2.7-6
		c-0.4-0.9-0.2-1.1,0.9-1.4c1.8-0.4,3.6-0.8,5.4-1c0.4-0.1,1.1,0.3,1.2,0.5c0.9,1.9,1.7,3.9,2.5,5.9
		C131.1,142.9,131.1,142.9,131.2,143.2z M124.7,144.7c1.7-0.4,3.4-0.9,5.1-1.3c0.1,0,0.3-0.4,0.2-0.5c-0.7-1.7-1.4-3.4-2.2-5.1
		c-0.1-0.2-0.6-0.4-0.9-0.3c-1.5,0.2-2.9,0.5-4.4,0.7c-0.7,0.1-0.9,0.4-0.6,0.9C122.9,140.8,123.7,142.7,124.7,144.7z"/>
	<path d="M123.8,175.5c0,1.5-1.4,2.6-3.3,2.6c-1.9,0-3.2-1.2-3.2-2.7c0-1.5,1.4-2.7,3.3-2.6C122.5,172.8,123.8,173.9,123.8,175.5z
		 M118.4,174.6c-0.4,0.7-0.2,1.6,0.6,2.1c0.8,0.5,2,0.6,2.9,0.1c0.8-0.4,1.2-1.3,0.9-2c-0.4-0.9-1.2-1.3-2.1-1.3
		c0.1,0.5,0.4,1,0.4,1.5c0,0.2-0.8,0.7-1,0.6C119.4,175.3,119,174.9,118.4,174.6z M120,175.5c0.4-0.4,0.8-0.7,0.7-0.9
		c-0.1-0.3-0.5-0.6-0.8-0.6c-0.2,0-0.8,0.4-0.8,0.6C119.2,174.8,119.6,175.1,120,175.5z"/>
	<path d="M114.7,144.9c-1.9,0-3.3-1.1-3.4-2.6c0-1.5,1.3-2.7,3-2.7c2,0,3.5,1.1,3.5,2.6C117.9,143.7,116.5,144.9,114.7,144.9z
		 M114.8,140.2c0.1,0.5,0.3,1.1,0.2,1.6c0,0.2-0.9,0.5-1.1,0.4c-0.5-0.2-0.9-0.7-1.3-1c-0.6,0.7-0.5,1.4,0.3,2.1
		c0.8,0.7,2,0.8,2.9,0.3c0.8-0.4,1.4-1.5,1.1-2.2C116.5,140.7,115.7,140.2,114.8,140.2z M114,140.4c-0.4,0.5-0.8,0.7-0.7,0.9
		c0.1,0.3,0.5,0.6,0.8,0.6c0.2,0,0.7-0.4,0.7-0.6C114.8,141.1,114.4,140.9,114,140.4z"/>
	<path d="M50.4,185.6c0,1.5-1.5,2.7-3.3,2.7c-1.7,0-3.2-1.3-3.2-2.7c0-1.4,1.6-2.6,3.4-2.6C49,183,50.4,184.2,50.4,185.6z
		 M45.3,184.5c-0.7,1.2-0.4,2.3,0.9,2.7c1.3,0.5,2.7,0.1,3.2-1c0.5-1-0.2-2.2-1.5-2.6c-0.9-0.3-1.7,0-2,0.8c-0.3,0.8,0.5,1,1.3,1
		C46.2,186,45.7,185.7,45.3,184.5z"/>
	<path d="M123.2,162.3c0,1.4-1.5,2.5-3.3,2.5c-1.8-0.1-3.1-1.2-3.1-2.6c0-1.5,1.5-2.6,3.3-2.6C122,159.6,123.3,160.8,123.2,162.3z
		 M117.6,162.1c0,1.2,1.1,2,2.5,2c1.2,0,2.3-1,2.3-2c0-1-1.1-1.9-2.3-2C118.9,160,117.6,161.1,117.6,162.1z"/>
	<path d="M52.8,142.1c-1.3,0-2.3-0.8-2.3-1.8c0-0.9,1.1-1.8,2.2-1.8c1.1,0,2.3,0.9,2.3,1.9C55,141.3,54,142.1,52.8,142.1z
		 M51.3,140.1c-0.1,0.6,0.3,1.2,1.1,1.3c0.8,0.1,1.7-0.3,1.8-1c0.1-0.7-0.3-1.1-0.9-1.3c-0.2,0.4-0.2,1-0.5,1.1
		C52.4,140.4,51.8,140.2,51.3,140.1z M53,139.7c-0.3-0.2-0.5-0.4-0.7-0.4c-0.2,0-0.4,0.3-0.5,0.4c0.2,0.1,0.4,0.3,0.6,0.4
		C52.5,140.1,52.7,139.9,53,139.7z"/>
	<path d="M124.4,169.1c0,1.1-1,1.9-2.3,1.9c-1.1,0-2-0.9-2-1.9c0-1,0.9-1.7,2.2-1.7C123.4,167.4,124.4,168.2,124.4,169.1z
		 M123.6,168.9c0.1-0.6-0.3-1-1.1-1c-0.8-0.1-2,0.8-2,1.3c0,0.7,0.7,1.1,1.6,1.1C123.1,170.2,123.6,169.8,123.6,168.9z"/>
	<path d="M30.4,157.3c0,0.9-1,1.8-2.1,1.8c-1.2,0-2.2-0.8-2.2-1.7c0-0.9,1-1.7,2.2-1.8C29.4,155.6,30.4,156.4,30.4,157.3z
		 M29.8,157.3c0-0.6-0.5-1.2-1.2-1.2c-0.8,0-2,0.7-2,1.2c0,0.7,0.7,1.3,1.5,1.3C29,158.6,29.8,158,29.8,157.3z"/>
	<path d="M27.3,118.7c1.5-0.2,3-0.4,4.5-0.7c0.1,0.1,0.2,0.2,0.2,0.3c-0.3,0-0.7,0.1-1,0.1c0.1,0.2,0.2,0.3,0.3,0.5
		c1.3,0.2,2.6,0.5,3.8,0.5c7.6,0.3,15.3,0.8,23,0.9c11.8,0.2,23.5,0.2,35.3,0.1c7,0,14-0.4,20.9-0.7c2.7-0.1,5.4-0.5,8.1-0.8
		c0.2,0,0.4-0.1,0.6-0.2c-0.3-0.2-0.5-0.3-1-0.6c1.9,0.1,3.5,0.2,5,0.8c0,0.1,0,0.2,0,0.3c-0.4,0.1-0.9,0.4-1.3,0.4
		c-3,0.4-5.9,0.8-8.9,1c-3.8,0.3-7.6,0.6-11.4,0.8c-2.8,0.2-5.6,0.3-8.5,0.3c-8.7,0.1-17.3,0.3-26,0.3c-6.1,0-12.2-0.2-18.3-0.5
		c-5.1-0.2-10.2-0.6-15.3-1c-3-0.2-5.9-0.6-8.9-1c-0.5-0.1-1-0.3-1.5-0.4C27.2,119,27.3,118.8,27.3,118.7z"/>
	<path d="M67.8,159.7c0-2.2,0.6-4.6,2.1-6.7c2.6-3.7,6.4-6,11.9-5.9c4.9,0,8.5,2,11.5,4.9c4.1,3.9,6,8.4,5.7,13.6
		c-0.2,3.8-1.7,7.2-5.1,9.9c-3.6,2.8-7.9,3.5-12.7,2.2c-4.2-1.1-7.4-3.4-9.6-6.4C69.1,167.8,67.7,164,67.8,159.7z M97.8,164.1
		c-0.1-1-0.2-2-0.4-3.1c-0.9-4.4-3.4-8.2-7.8-10.9c-3-1.8-6.4-2.8-10.2-2.1c-4.3,0.8-7,3.1-8.5,6.5c-1,2.3-1.5,4.7-1.2,7.2
		c0.4,3.4,1.8,6.5,4.4,9.2c1.9,2,4.1,3.5,6.9,4.5c4.9,1.7,10.7,0.5,13.7-3C96.9,169.9,97.9,167.1,97.8,164.1z"/>
	<path d="M55.2,163c1.1,0.1,1.9,0.5,1.9,1.3c0,0.6-0.5,1.1-1.3,1.2c-1,0.2-2-0.1-2.4-0.7c-0.5-0.8,0.1-1.3,0.6-1.7
		c-0.5-0.4-1-0.8-1.3-1.2c-0.1-0.1,0-0.5,0.2-0.7c0.5-0.7,1.9-0.8,2.6-0.3C56.4,161.5,56.3,162,55.2,163z M55.4,165.3
		c0.4-0.3,0.8-0.6,1.1-0.9c-0.4-0.3-0.9-0.7-1.3-0.8c-0.6-0.1-1.3,0.1-1.3,0.8C53.9,165,54.5,165.1,55.4,165.3z M54.4,162.7
		c0.5-0.4,0.8-0.6,1.1-0.8c-0.4-0.2-0.7-0.6-1.1-0.6c-0.4,0-0.8,0.4-1.1,0.6C53.6,162.1,53.9,162.3,54.4,162.7z"/>
	<path d="M66.8,175.7c0,0.8-1.2,1.6-2.5,1.6c-1.2,0-2.4-0.8-2.4-1.7c0-0.8,1.4-1.6,2.7-1.6C65.7,174,66.8,174.8,66.8,175.7z
		 M64.4,174.6c-1.1,0-1.8,0.4-1.8,1.1c0,0.6,0.8,1.1,1.8,1.1c0.9,0,1.7-0.5,1.8-1.1C66.2,175,65.5,174.6,64.4,174.6z"/>
	<path d="M61.1,157.7c0,0.9-1.1,1.6-2.4,1.6c-1.3,0-2.4-0.8-2.4-1.7c0-0.8,1.1-1.6,2.3-1.6C59.9,156.1,61.1,156.8,61.1,157.7z
		 M58.7,158.8c1.1,0,1.7-0.4,1.7-1.1c0-0.7-0.7-1.1-1.8-1c-1,0-1.6,0.4-1.7,1C56.9,158.4,57.6,158.8,58.7,158.8z"/>
	<path d="M74.9,179.3c-1.3,0-2.4-0.8-2.4-1.6c0-0.8,1.2-1.6,2.5-1.6c1.3,0,2.4,0.8,2.4,1.6C77.3,178.6,76.2,179.3,74.9,179.3z
		 M74.9,178.8c1,0,1.9-0.5,1.9-1c0-0.6-0.9-1.1-1.9-1.1c-0.9,0-1.8,0.5-1.8,1.1C73.1,178.2,73.9,178.8,74.9,178.8z"/>
	<path d="M60.7,176.4c1,0,1.9,0.6,1.9,1.3c0,0.6-0.9,1.3-1.8,1.3c-1,0-1.9-0.6-2-1.3C58.9,177.1,59.7,176.4,60.7,176.4z M60.8,178.8
		c0.6-0.5,0.9-0.8,1.3-1c-0.4-0.3-0.8-0.7-1.2-0.7c-0.4,0-0.8,0.5-1.2,0.7C59.9,178,60.2,178.3,60.8,178.8z"/>
	<path d="M66.2,156.5c0,0.7-0.9,1.3-1.9,1.3c-1,0-1.8-0.6-1.8-1.4c0-0.7,0.9-1.3,1.9-1.2C65.4,155.2,66.2,155.8,66.2,156.5z
		 M64.3,157.5c0.5-0.5,1.1-0.7,1.2-1.1c0.2-0.6-0.6-0.8-1.1-0.8c-0.6,0-1.4,0.1-1.2,0.8C63.2,156.8,63.8,157.1,64.3,157.5z"/>
	<path d="M68.2,152.6c-1,0-1.9-0.6-1.9-1.3c0-0.7,0.8-1.2,1.8-1.2c1.1,0,1.9,0.5,2,1.2C70.1,151.9,69.2,152.6,68.2,152.6z
		 M68.2,150.2c-0.6,0.4-1.2,0.7-1.3,1c-0.1,0.6,0.6,0.9,1.2,0.8c0.5-0.1,0.9-0.5,1.3-0.7C69.1,151,68.7,150.7,68.2,150.2z"/>
	<path d="M78.1,181.9c-1,0-1.8-0.6-1.8-1.3c0-0.6,1-1.2,1.9-1.2c0.9,0,1.7,0.6,1.8,1.2C80.1,181.4,79.3,181.9,78.1,181.9z
		 M78.2,181.8c0.5-0.4,0.9-0.7,1.2-1c-0.4-0.3-0.8-0.8-1.2-0.8c-0.4,0-0.8,0.5-1.3,0.7C77.3,181,77.7,181.3,78.2,181.8z"/>
	<path d="M64.3,167.4c-0.5-0.2-1.2-0.3-1.6-0.6c-0.9-0.6-0.9-1.5,0.1-2.1c0.8-0.5,1.6-0.5,2.5-0.3c1,0.2,1.6,1,1.4,1.6
		C66.5,166.7,65.5,167.2,64.3,167.4z M64.4,164.6c-1,0-2,0.5-2,1.2c0,0.6,0.9,1.2,1.8,1.2c1,0,1.9-0.5,2-1.1
		C66.3,165.1,65.5,164.6,64.4,164.6z"/>
	<path d="M80.9,191.1c-0.8,0-1.8-0.6-1.8-1.1c0-0.6,1-1.4,1.9-1.4c0.8,0,1.8,0.7,1.7,1.3C82.6,190.5,81.8,191.1,80.9,191.1z
		 M80.9,190.8c0.5-0.4,1.2-0.7,1.3-1c0.1-0.6-0.6-0.9-1.3-0.8c-0.5,0.1-0.8,0.5-1.3,0.7C80,190.1,80.4,190.4,80.9,190.8z"/>
	<path d="M61.4,171.6c0,0.6-0.8,1.2-1.7,1.3c-0.9,0-1.9-0.6-1.9-1.2c0-0.6,0.8-1.2,1.7-1.2C60.6,170.4,61.4,170.9,61.4,171.6z
		 M59.6,172.8c0.6-0.5,1.3-0.8,1.3-1.1c0.1-0.6-0.6-0.9-1.3-0.9c-0.7,0-1.4,0.2-1.3,0.9C58.5,172,59.1,172.3,59.6,172.8z"/>
	<path d="M61.4,169.6c-0.9,0-1.8-0.6-1.8-1.2c0-0.6,0.9-1.2,1.9-1.2c0.9,0,1.8,0.6,1.7,1.2C63.3,169.1,62.4,169.6,61.4,169.6z
		 M61.3,169.3c0.7,0,1.4-0.1,1.4-0.8c0-0.6-0.6-0.8-1.2-0.8c-0.7,0-1.4,0.1-1.4,0.8C60.1,169.1,60.7,169.2,61.3,169.3z"/>
	<path d="M65.4,171.1c-1,0-1.8-0.5-1.9-1.1c0-0.7,0.8-1.2,1.8-1.2c1,0,1.8,0.5,1.8,1.2C67.2,170.6,66.4,171.1,65.4,171.1z
		 M65.3,168.7c-0.5,0.5-1.2,0.8-1.2,1.2c-0.1,0.6,0.6,0.8,1.3,0.8c0.7,0,1.4-0.3,1.3-0.9C66.6,169.5,65.9,169.2,65.3,168.7z"/>
	<path d="M83,165.8c0,1-0.6,1.6-1.3,1.6c-0.7,0-1.4-0.6-1.4-1.4c0-0.6,0.4-1.1,0.7-1.7c0.1-0.2,0.6-0.2,1.2-0.3
		C81.3,165.3,81.5,165.6,83,165.8z"/>
</g>
<g>
	<path d="M68.5,102.8c-3.4-4.4-6.6-8.8-10-13.2c-1.7-2.2-3.7-4.1-6.9-2.9c-0.7,0.3-1.6,0.3-2.4,0.4c-8.9,0.4-16.5-2.9-21.8-9.8
		c-6.2-8-7.6-17.3-5.3-27.1c1.4-6.1,4.9-10.6,10.3-13.7c7.9-4.6,16.2-6.9,25.3-3.6C63.4,35,68.4,38.4,72.4,43
		c6.1,7.1,9.2,15.2,6.6,24.5c-1.7,6.1-5.2,11.1-10.6,14.6c-1.4,0.9-1.8,1.9-1.2,3.4c1.3,3.6,2.5,7.2,3.7,10.9
		c1,3.2,1.6,6.5,1.2,10.4C70.7,105.4,69.5,104.2,68.5,102.8z M68.9,95.5c-1-3.3-2.1-6.5-3.2-9.8c-0.6-1.6-0.2-2.7,1.3-3.6
		c5.5-3.3,8.9-8.4,10.7-14.3c2-6.3,0.8-12.5-2.6-18c-4.6-7.5-11.2-12.7-19.6-15.6c-8.6-3-16.5-0.7-23.6,4.2
		c-6,4.1-8.4,10.4-8.7,17.5c-0.4,8.5,2.1,15.9,8,21.8c4.5,4.5,10.1,7.1,16.5,7.9c1.4,0.2,3-0.2,4.4-0.5c3-0.5,5.5,0.1,7.4,2.8
		c3.5,4.9,7,9.7,10.6,14.5c0.2,0.2,0.3,0.4,0.5,0.6c0.1-0.1,0.3-0.1,0.4-0.2C70.3,100.4,69.7,97.9,68.9,95.5z"/>
	<path d="M46.5,37.1c0.3,0,0.7,0,1,0c3.4,0,4.5,0.7,5.7,3.9c1.1,3,2.2,6,3.1,9.1c1.4,5,2.5,10,2.3,15.2c-0.1,2.5-0.6,3.5-2.3,3.7
		c-1.9,0.2-3.8,0.1-5.7-0.1c-1.3-0.1-2.2-0.9-2.6-2.3c-0.6-2.3-1.5-4.5-2.2-6.8c-1.9-6.1-3.7-12.1-5.5-18.2c-0.7-2.4,0-3.5,2.5-4.1
		c1.2-0.3,2.4-0.3,3.6-0.5C46.5,37,46.5,37,46.5,37.1z M48.3,60.5c0.5,1.8,0.8,3.6,1.3,5.3c0.6,1.8,1.6,2.4,3.4,2
		c1.1-0.2,2.3-0.3,3.4-0.5c1-9.1-1.1-17.6-4.5-25.9c-0.9-2.1-2-2.9-4.2-2.7c-1.7,0.2-3.5,0-5.8,0C44.3,46.4,46.3,53.4,48.3,60.5z"/>
	<path d="M52.7,80.8c-2.2-0.3-3.8-2.3-3.9-4.8c-0.1-2.2,1.1-3.7,3.4-4.2c2-0.5,3.7,0.2,5.4,1.1c2,1.2,2.6,3.6,1.5,5.7
		c-1,1.9-2.8,2.3-4.8,2.4C53.8,80.9,53.2,80.9,52.7,80.8z M50.9,77c0.9,1.6,2.1,2.7,4,2.8c1.4,0,2.7-0.1,3-1.8
		c0.4-2.1-0.4-4.2-1.9-4.7c-0.9-0.3-1.8-0.4-2.7-0.6C50.2,72.3,49.7,75,50.9,77z"/>
</g>
</svg>
