<?xml version="1.0" encoding="utf-8"?>
<!-- Generator: Adobe Illustrator 17.1.0, SVG Export Plug-In . SVG Version: 6.00 Build 0)  -->
<!DOCTYPE svg PUBLIC "-//W3C//DTD SVG 1.1//EN" "http://www.w3.org/Graphics/SVG/1.1/DTD/svg11.dtd">
<svg version="1.1" id="Layer_1" xmlns="http://www.w3.org/2000/svg" xmlns:xlink="http://www.w3.org/1999/xlink" x="0px" y="0px"
	 viewBox="0 0 288 216" enable-background="new 0 0 288 216" xml:space="preserve">
<g>
	<path d="M45.4,210.4c2.1,0,4-0.5,6-1c2-0.5,4.1-0.2,6.1,0.2c0.2,0,0.3,0.1,0.7,0.2c-1.3-0.1-2.4-0.3-3.4-0.2
		c-1.5,0.1-3,0.2-4.4,0.5c-1.6,0.4-3.2,0.6-4.9,0.5C45.4,210.6,45.4,210.5,45.4,210.4z"/>
	<path d="M45.4,210.8c0.5,0.2,0.9,0.4,1.4,0.5c0,0.1,0,0.1,0,0.2c-0.5,0-0.9,0.1-1.4,0.1C45.4,211.4,45.4,211.1,45.4,210.8z"/>
	<path d="M48.6,186.9c0.2,0.1,0.4,0.2,0.6,0.4c2.3,2.5,4.7,4.9,7,7.4c2.4,2.6,4.2,5.6,4.6,9.3c0-0.5,0-1,0-1.6
		c0-0.5-0.1-1.1-0.1-1.6c-0.3-3.4-0.7-6.8-2.1-10c-1-2.2-2.3-4.2-3.5-6.3c-1.3-2.3-2.6-4.7-4-7c-0.1-0.1-0.1-0.3-0.2-0.4
		c2.2,2.3,4.4,4.6,6.4,7c2.4,2.7,4.2,5.8,5.4,9.3c0,0.1,0,0.2,0.1,0.3c0.7-6.1,2.7-11.3,8-14.7c-3.4,4.7-5.2,9.9-5.9,15.8
		c1.1-2,2.2-3.8,3.2-5.7c2-3.9,4-7.8,5.9-11.7c1.2-2.6,1.9-5.3,2.5-8.3c-0.5,0.3-0.9,0.4-1.3,0.7c-2.8,1.9-5.9,3.2-9.3,3.7
		c-3.5,0.6-6.7,0-9.4-2.5c-1.4-1.3-2.1-3-2.2-5c-0.1-1.2-0.1-2.4-0.2-3.6c0-4.7,1.4-9.1,3.5-13.3c3.6-7.1,9.3-11.6,16.7-14.1
		c5-1.7,10.1-2.7,15.4-2.9c5.1-0.1,9.8,1.2,14.5,3c3.9,1.5,6.8,4.1,9.2,7.3c1.4,1.9,1.5,4.2,0.1,6.1c-1.1,1.6-2.5,2.9-3.8,4.4
		c-0.3,0.4-0.7,0.6-1.2,1.1c1.2,0.2,2.1,0.2,3,0.5c3.5,0.9,6.8,2.3,9.5,4.8c1.8,1.6,3.8,1.9,6,1.2c2.3-0.7,3.2-0.2,3.3,2.2
		c0.2,2.2-1,3.8-2.6,5.1c-4,3.3-8.6,5.2-13.6,6.1c-1.2,0.2-2.4,0.1-3.6,0.2c-1,0-1.9,0.4-2.6,1c-0.7,0.6-1.4,1-2.2,1.6
		c-0.2,0.1-0.3,0.3-0.3,0.5c-0.2,2.8-0.3,5.6,0.4,8.3c1,3.8,3,6.9,6.1,9.3c0.8,0.6,1.6,1.2,2.5,1.9c-1.8-5.6-0.3-10.4,2.7-14.9
		c-0.3,1.1-0.6,2.1-0.9,3.2c-0.5,2.2-0.6,4.4-0.4,6.6c0.1,1.7,0.2,3.4,0.3,5.1c0.1,0.9,0.4,1.8,1.1,2.5c0.7,0.7,1.3,1.7,1.9,2.5
		c0.1-3.8,1.3-7.3,3.1-10.6c1.8-3.3,4.1-6.1,7.4-8.3c-1.2,1.2-2.5,2.1-3.5,3.3c-3.7,4.3-6,9.2-6.6,14.9c-0.1,1-0.1,1.9,0.2,2.8
		c0.6,1.9,0.3,3.8-1.1,5.2c-0.8,0.8-2,1.3-3.1,1.9c-0.2,0.1-0.7,0-0.1,0.6c-0.1,0-0.1,0-0.2,0.1c-1.2-0.2-2.4-0.4-3.6-0.5
		c-0.7-0.1-1.3,0-2,0.1c-3.2,0.4-6.3,0.3-9.3-0.9c-0.7-0.3-1.4-0.8-2.2-1.2c-1.2,0.6-2.6,0.2-4.1-0.1c-2.2-0.5-4.4-1-6.6-1.4
		c-4.4-0.8-8.7-0.5-12.9,0.6c-1.7,0.4-3.5,0.8-5.3,0.7c-2.5-0.1-4.1-1.5-5.2-3.6c-0.8-1.4-0.8-3-1-4.6c-0.3-2.5-0.5-5.1-1.2-7.6
		c-1.1-3.7-3.3-6.9-5.9-9.8c-1.2-1.3-2.4-2.6-3.5-4c-0.1-0.1-0.2-0.2-0.4-0.2c0.1,0.2,0.2,0.4,0.3,0.6c1.6,2.6,3.2,5.1,4.8,7.7
		c2.1,3.3,3.3,6.9,3.6,10.8c0.2,2.4,0.1,4.8,0.2,7.1c0,0.3,0,0.6-0.1,0.9c-0.1-0.7-0.3-1.4-0.4-2.1c-0.6-3.4-2.3-6.3-4.5-8.9
		c-2.3-2.6-4.6-5.2-6.9-7.7c-0.1-0.2-0.4-0.3-0.5-0.4C48.6,187,48.6,186.9,48.6,186.9z M100.8,162.3c-0.3-0.2-0.5-0.5-0.8-0.8
		c-0.3,0.1-0.6,0.3-1.1,0.4c-1.4,0.4-2.6,1.3-4.1,1.1c-0.1,0-0.2,0.1-0.3,0.2c-0.6,0.4-0.7,1-0.6,1.5c1.7-0.6,3.4-1.1,5.1-1.7
		c0.7-0.2,1.4-0.4,2.1-0.6c0.6,0,1.1-0.1,1.7-0.1c1.4-0.1,2.8-0.3,4.1-0.4c1.6-0.2,2-0.9,1.2-2.3c0.9,0.7,0.8,1.6-0.3,2.4
		c0.6,0.1,1.3,0.1,1.9,0.3c2.2,0.4,4.4,0.8,6.6,1.2c3.5,0.6,6.8,0.1,9.9-1.5c0.5-0.2,0.9-0.6,1.3-0.9c-2.4,0.8-4.7,0.6-6.7-1
		c-0.9,1.1-1.5,1.3-2.9,1.3c-2-0.1-3.8-0.6-5.6-1.3c-0.8-0.3-1.5-0.7-2.2-1.2c-1.3-0.9-1.4-2.3-0.3-3.4c0.2-0.2,0.4-0.4,0.6-0.6
		c-0.5-0.1-0.9-0.1-1.3-0.2c-0.6-0.2-0.9,0-1.3,0.5c-1,1.1-1.4,2.5-1.8,3.8c0.4,0.1,0.8,0.1,1.2,0.2c-0.6,0-1.2-0.1-1.7,0.1
		c-1.4,0.6-2.8,1.2-4.3,1.9C100.2,161.4,100.1,161.5,100.8,162.3z M93.2,163.5c0-0.9,0-1.7,0-2.6c0-1.5-0.5-2.9-1.2-4.3
		c-0.4-0.8-1-1.2-1.8-1.3c-3.5-0.5-6.8,0.2-9.8,1.8c-1.6,0.8-2.5,2.4-2.6,4.3c-0.1,2-0.1,4-0.3,6c-0.7,5.6-2.5,10.8-5.2,15.7
		c-2.2,4-4.4,7.9-6.6,11.9c-1.4,2.5-2,5.3-1.6,8.2c0.5,3.2,3.1,5.3,6.3,5c1.4-0.1,2.9-0.3,4.3-0.7c3.3-0.8,6.5-1.2,9.9-1
		c2.8,0.2,5.5,0.8,8.2,1.4c1.5,0.4,3,0.6,4.5,0.7c1,0.1,1.2-0.2,0.9-1.2c-1-3.2-2-6.4-3.8-9.2c-2.7-4.3-4-8.9-3.6-13.9
		c0.2-2.8,0.7-5.6,1.2-8.4C92.5,171.7,93.4,167.7,93.2,163.5z M103.4,143.4c-0.1-0.6-0.2-1-0.3-1.5c-0.1-0.5-0.3-0.7-0.8-0.7
		c-1.8,0.1-3.5,0.3-5.1,1c-0.5,0.2-0.9,0.4-1,1.1c0,0.2-0.4,0.4-0.5,0.4c-0.5-0.5-1-0.1-1.5,0.1c-3.4,0.9-6.8,1.9-10.3,2.8
		c-1.6,0.4-2.9,1-3.3,2.8c-0.1,0.4-0.4,0.5-0.8,0.3c-0.6-0.3-1.2-0.5-1.8-0.7c-0.3-0.1-0.6-0.1-0.9,0c-6.2,2.9-12,6.4-16.9,11.2
		c-1.9,1.9-3.4,4.1-4,6.8c-0.5,2.3-0.1,3.3,1.8,4.6c0.2,0.1,0.4,0.3,0.6,0.4c1.7,1,3.5,1.8,5.5,1.6c2.8-0.3,5.4-1.2,7.9-2.4
		c1.4-0.7,2.8-1.6,4.2-2.4c0.3-0.2,0.5-0.5,0.6-0.7c0.2-0.7,0.3-1.5,0.3-2.2c0.1-1.4,0.1-2.7,0.2-4.1c0-0.8,0-1.7,0.3-2.4
		c0.5-0.9,1.3-1.6,2.2-2.6c-5.9-0.4-11.2,1.2-16.5,3.1c0.3-0.2,0.6-0.3,0.9-0.5c3.4-1.4,6.9-2.5,10.6-2.8c1.6-0.2,3.1,0.1,4.7,0.1
		c0.3,0,0.6,0,0.9-0.1c3-1.3,6.1-2.1,9.4-1.8c1.5,0.2,2.5,0.8,3,2.1c0.7,1.5,1.1,3,1.1,4.6c0,0.5,0,1,0,1.3c0.6,0,1,0,1.5-0.1
		c0.3,0,0.5-0.1,0.8-0.2c0.5-0.1,1-0.3,1.4-0.5c2.4-1,4.8-2,7.2-3c0.4-0.2,0.7-0.6,0.9-1c0.4-1.2,0.9-2.3,1.7-3.2
		c0.9-0.9,1.8-1.9,2.7-2.8c1.1-1.2,2.1-2.4,3.1-3.7c0.8-1.1,0.8-2.4,0.5-3.6c-0.2-0.7-0.6-1.5-1.2-1.9c-1.6-1.2-3.5-1.5-5.5-1.5
		c-0.2,0-0.4,0.1-0.6,0.3C105.5,141.9,104.6,142.6,103.4,143.4z M96.5,193.4c-0.1,0-0.1,0-0.2,0c-0.1,1.8-0.1,3.7-0.8,5.4
		c-0.1,0.1,0,0.3,0.1,0.5c0.6,1.5,1.3,2.9,1.8,4.4c0.5,1.3,1,2.6,1.3,4c0.2,0.9,0.5,1.4,1.3,1.7c1.1,0.4,2.3,0.8,3.4,1
		c2.1,0.5,4.2,0.3,6.3,0.1c0.9-0.1,1.9-0.4,2.7-0.1c1.5,0.4,2.7-0.1,3.9-0.7c0.7-0.4,1.5-0.8,2-1.4c0.9-1.4,1.3-3,0.8-4.7
		c-0.8-2.7-2.7-4.6-4.9-6.2c-1.7-1.3-3.5-2.6-4.9-4.1c-4.5-4.9-5.6-10.7-4.6-17.1c0.2-1.3,0.4-2.5,0.5-3.8c0.1-1.2-0.5-2-1.6-2.3
		c-1.1-0.3-2.2-0.5-3.3-0.6c-3.8-0.2-6.5,2.5-6.2,6.3c0.2,2.2,0.7,4.4,1,6.6C95.6,185.9,96,189.7,96.5,193.4z M104.5,136
		c-3.2-1.5-7.4-2.9-12.1-3c-3.7-0.1-7.4,0.2-11.1,1c-1.7,0.4-3.3,0.8-5.1,1.3c1,0.8,1,1.7,0.7,2.6c-0.2,0.5-0.4,1.1-0.7,1.6
		c-1.6,3.1-4.1,5.4-6.9,7.4c-1.8,1.3-3.7,2.4-5.9,2.8c-2.2,0.5-3.5-0.2-4-2.1c-0.8,1.7-1.7,3.4-2.5,5.1c0.4-0.1,0.6-0.2,0.9-0.3
		c0.9-0.4,1.8-0.8,2.7-0.2c0.9,0.6,1.1,1.6,1,2.6c-0.2,2.4-3.3,6-6.5,5.4c-0.1,2.1-0.2,4.1-0.2,6.1c0,1.1,0.4,2.2,1,3
		c0-0.6,0-1.2,0-1.9c0.1-1.6,0.8-3,1.6-4.4c1.4-2.2,3.3-4,5.3-5.7c4.2-3.6,9-6.3,14-8.7c0.4-0.2,0.5-0.4,0.6-0.9
		c0.3-1.5,0.6-3,1-4.5c0.2-0.6,0.5-0.6,0.8-0.1c0.7,1,1.5,2.1,2.1,3.1c0.3,0.5,0.6,0.5,1.1,0.4c3.6-1,7.3-2,10.9-3.1
		c0.5-0.1,1-0.3,1.5-0.4c-0.1-0.6-0.2-1.2-0.3-1.7c0.1,0,0.1-0.1,0.2-0.1c0.4,0.3,0.8,0.6,1.2,0.8c0.2,0.1,0.5,0.2,0.7,0.1
		c1.3-0.4,2.6-0.8,3.9-1.2c0.7-0.2,1.4-0.2,2.1-0.2c-0.9-1.9-2.7-3-4.1-4.5c0.6-0.1,1.2,0,1.7,0.1c2.5,0.6,4.8,1.6,6.3,3.9
		c0.1,0.1,0.3,0.2,0.4,0.2c1.7,0,3.4,0.1,5.1,1c-0.7-0.7-1.3-1.3-1.9-1.8c-0.1-0.1-0.4-0.2-0.5-0.2c-2.1,0-3.7-0.9-5.1-2.3
		C104.1,136.9,104,136.4,104.5,136z M129,160.7c-0.7,0.6-1.3,1.3-2.1,1.6c-1.7,0.7-3.4,1.4-5.2,1.8c-2.8,0.6-5.7,0.1-8.5-0.5
		c-2.1-0.4-4.2-1.1-6.4-1c-2.5,0-5,0.3-7.5,0.9c-1.7,0.4-3.3,1-4.9,1.5c-0.2,0.1-0.5,0.3-0.5,0.5c-0.1,1-0.1,2-0.2,3
		c0.9,0.1,1.8,0.2,2.6,0.3c-0.4,0.1-0.7,0.1-1.1,0c-2.1-0.2-1.5-0.3-1.8,1.4c0,0.2,0.1,0.5,0.2,0.7c-0.1,0.2-0.3,0.4-0.4,0.7
		c-0.1,0.5-0.2,1.1-0.3,1.7c-0.2,0.9-0.3,1.8-0.5,2.7c0.4,0.2,0.7,0.4,1,0.6c0-0.4-0.1-0.7-0.1-1c0-1.4,0-2.8,0.9-4
		c2.7-3.2,6.6-3.4,9.8-1.8c1,0.5,1.5,1.3,1.4,2.4c0,1.3,0,2.6,0,4c0.4-0.3,0.9-0.6,1.2-0.9c1-1,2.1-1.7,3.5-1.8
		c1.3-0.1,2.7-0.1,4-0.4c2-0.4,4-1,5.9-1.7c2.8-1,5.5-2.4,7.7-4.6c0.9-0.9,1.7-1.9,1.9-3.2C129.9,162.6,129.9,161.6,129,160.7z
		 M62.2,149.3c0,0,0,0.1,0,0.1c1-0.3,2.1-0.4,3-0.9c3.9-1.7,7.1-4.2,9.6-7.7c0.8-1.2,1.5-2.4,1.8-3.8c0.2-1-0.7-1.8-1.6-1.5
		c-3.9,1.3-7.6,3.1-10.6,6c-1.5,1.4-2.8,3-4.1,4.6c-1.1,1.4-0.4,2.9,1.4,3.1C61.9,149.3,62.1,149.3,62.2,149.3z M118.3,161.2
		c0.4-0.1,1.1-0.3,1.7-0.6c0.7-0.4,0.7-0.8,0.1-1.3c-2.6-2.2-5.6-3.5-8.8-4.4c-0.3-0.1-0.6,0-0.9,0.2c-1.4,0.9-1.5,2.5-0.1,3.5
		C112.6,160.3,115.2,160.9,118.3,161.2z M92.4,176.6c-1.3,5.7-1.7,11.3,0.2,16.8c0.1-0.1,0.1-0.2,0.1-0.2c0.1-2.8,0.8-5.4,2-7.8
		c0.2-0.3,0.2-0.7,0.1-1.1c-0.3-2.1-0.8-4.1-1-6.2C93.7,177.1,93.1,176.9,92.4,176.6z M61,154c0-1.3-0.5-2-1.4-2.1
		c-1-0.1-2.9,0.8-3.2,2.1c-0.4,1.7-0.9,3.3-1.3,5c-0.2,0.6,0.1,0.8,0.7,0.8C58.3,159.5,61,156.5,61,154z M70,179.9
		c-4.5,2.7-8.6,14.4-6.4,18.7c0.3-1.5,0.6-2.8,0.9-4.1c0.4-1.9,0.6-4,1.1-5.9C66.6,185.5,68.1,182.6,70,179.9z M116.6,183
		c-0.1,0-0.1-0.1-0.2-0.1c-0.5,1.2-1.1,2.4-1.5,3.6c-1.1,3.2-1.4,6.5-0.3,9.8c0.3,0.8,0.8,1.1,1.5,1.5
		C115.6,192.8,115,187.8,116.6,183z M103.9,142.8c0.6-0.4,1.2-0.9,1.8-1.3c0.6-0.3,0.6-0.7,0.3-1.2c-0.2-0.2-0.3-0.5-0.5-0.7
		c-1-1.1-2.3-1.8-3.7-2.4c-0.8-0.3-1.7-0.5-2.5-0.8c0,0.1-0.1,0.1-0.1,0.2C101.3,138.3,103.1,140,103.9,142.8z M78.6,143.3
		c-0.5,1.8-1.1,3.4-0.9,5.1c0.8,0.3,1.6,0.5,2.4,0.8c0.3-0.6,0.6-1.1,0.8-1.7c0.1-0.2,0.1-0.5,0-0.6
		C80.2,145.8,79.5,144.6,78.6,143.3z M95.2,186.3c-0.1,0-0.1,0-0.2,0c-1,3.4-1.2,8.1-0.5,10c0.3-1,0.7-2.1,1.1-3.2
		c0-0.1,0.1-0.3,0.1-0.4C95.5,190.5,95.4,188.4,95.2,186.3z M94.8,185.7c-1.1,2.3-1.7,4.7-1.9,7.2c-0.1,1.5,0.7,2.5,1.3,3.6
		C93.2,192.8,94.1,189.3,94.8,185.7z M109.5,139.2c-1.3-1.4-2.8-2.4-4.5-3c-0.1-0.1-0.5,0.1-0.5,0.2c0,0.2,0,0.5,0.1,0.7
		C106,138.4,107.6,139.1,109.5,139.2z M95.8,193.9c-0.1,0-0.2,0-0.3,0c-0.5,1.4-1.1,2.8-0.6,4.4c0.1,0,0.2,0,0.3,0
		C95.4,196.8,95.6,195.3,95.8,193.9z M95.8,143.4c0.3-0.8,0.3-0.9-0.9-1.5C94.9,142.6,95,143.2,95.8,143.4z"/>
	<path d="M122.2,199.6c3.9-11.2,15.3-18.8,21.9-19.2c-8.7,4.4-14.5,11.4-18.8,19.9c0,0,0.1,0.1,0.1,0.1c1.3-0.9,2.6-1.9,4-2.7
		c1.4-0.8,2.9-1.3,4.6-1.4c-3.5,1.7-6,4.4-8.1,7.6c3.7-3.5,8.5-4.7,13.3-5.7c-4.2,2-8,4.8-11.8,7.5c3-2.7,6.4-4.9,9.9-6.9
		c-1.2,0.4-2.5,0.7-3.6,1.2c-1.2,0.5-2.4,0.9-3.5,1.5c-1.1,0.6-2.2,1.4-3.2,2.2c-1,0.7-1.7,1.9-2.8,2.4c2.3-3.1,3.7-6.2,8.9-9.5
		c-2.1,0.5-3.9,1.3-5.5,2.6c-1.7,1.3-3,2.8-3.6,4.8c-0.2,0.6-0.5,1.1-0.7,1.7c-0.1,0.2-0.2,0.3-0.3,0.4c-0.1,0-0.1-0.1-0.2-0.1
		c0.1-0.3,0.3-0.6,0.4-0.9c0.8-2.2,1.6-4.4,2.5-6.4c1.8-3.9,4.4-7.1,7.2-10.2c2.7-2.9,5.7-5.4,9.3-7.2c0.1,0,0.1-0.1,0.1-0.2
		c-0.4,0.1-0.7,0.2-1.1,0.3c-8.4,3.2-14.5,8.9-18.3,17.1c-0.8,1.7-1.3,3.6-1.4,5.5c0,0.2-0.1,0.4-0.2,0.8
		c-0.6-8.9,3.2-15.8,9.2-21.8c-2.1,2.5-4.1,5-5.6,7.8C123.6,193.4,122.6,196.4,122.2,199.6z"/>
	<path d="M48.6,186.9c0,0.1,0,0.1,0,0.2c1.8,3.3,3.8,6.5,6.2,9.5c1.7,2.2,3.3,4.5,4.4,7c0.6,1.2,0.9,2.5,0.8,3.8
		c0,0.5-0.2,1.1-0.4,1.6c-0.1-2.9-2-4.8-4.1-6.4c-1.1-0.9-2.3-1.5-3.5-2.3c-1.3-0.9-2.6-1.7-3.9-2.6c0.8,0.9,1.5,1.9,2.4,2.8
		c1.7,1.6,3.5,3,5.2,4.6c1,0.9,1.9,2,2.2,3.4c0.1,0.3,0.1,0.6,0,1c-0.7-2.8-2.8-4.4-4.8-6.2c-1.5-1.4-3.1-2.8-4.4-4.4
		c-0.8-0.9-1.3-2.2-1.9-3.3c-0.1-0.1-0.1-0.2-0.1-0.4c0.1-0.1,0.2-0.1,0.2-0.2c0.1,0.2,0.1,0.3,0.2,0.5c1.3,2.2,3.2,3.7,5.4,4.9
		c2.2,1.3,4.3,2.7,5.8,4.9c0.4,0.7,0.8,1.4,1.3,2.1c0-1.1-0.2-2.1-0.6-3c-1.1-2.6-2.6-4.9-4.4-7.1c-2.1-2.7-4-5.5-5.5-8.6
		c-0.6-1.1-1.2-2.2-1.7-3.4C47.7,185.7,48.2,186.3,48.6,186.9z"/>
	<path d="M107.8,144c-6.4,2-13.6,6.2-15.6,9.7c0.2-0.3,0.3-0.7,0.5-1c1.5-2.1,3.4-3.7,5.6-5c2.8-1.8,5.9-3,9.1-3.7
		C107.5,144,107.7,144,107.8,144z"/>
	<path d="M62.1,165.7c2-2.9,9.7-6.6,13.5-6.4C70.6,160.5,66.1,162.5,62.1,165.7z"/>
	<path d="M88.6,153.9c-0.6-2,3.8-7.4,7-8.5C92.5,147.7,89.8,150.2,88.6,153.9z"/>
	<path d="M74.2,161.9c-3.5,2-6,4.8-8,8.3C68,166.5,70.5,163.7,74.2,161.9z"/>
	<path d="M93.7,154.9c3.6-2.2,7.5-2.6,11.5-2C101.2,152.6,97.3,153,93.7,154.9z"/>
	<path d="M75.3,150.7c3.6-0.5,6.6,0.9,7.9,3.8C81.1,151.8,78.5,150.5,75.3,150.7z"/>
	<path d="M85,154.6c-0.9-1.3-0.2-4.3,1.9-6.3c-0.5,0.9-1.1,1.9-1.5,2.9C84.9,152.2,84.7,153.3,85,154.6z"/>
	<path d="M101.2,157.8c-2.1-0.1-4.5-0.2-6.7-0.3C96.7,156.8,99,157.3,101.2,157.8z"/>
	<path d="M76.2,165.1c-0.5,1-1.1,2-1.6,3c-0.1,0-0.1-0.1-0.2-0.1c0.5-1,1.1-2,1.6-3C76.1,165,76.1,165.1,76.2,165.1z"/>
	<path d="M91.2,134.2c0.7,0.1,1.4,0.2,2,0.4c1.3,0.5,1.8,1.7,1,2.8c-0.5,0.7-1.1,1.4-1.8,1.8c-2.6,1.6-5.5,2.3-8.5,1.9
		c0,0-0.1,0-0.1,0c-0.9-0.2-1.8-0.4-2.1-1.4c-0.3-1,0.3-1.6,0.9-2.2c1.6-1.5,3.5-2.5,5.8-2.8C89.3,134.6,90.2,134.4,91.2,134.2z
		 M84.9,141c2.7-0.1,4.9-0.6,6.9-1.8c0.7-0.4,1.4-1,1.9-1.7c0.8-1,0.4-2.1-0.8-2.6c-0.2-0.1-0.3-0.1-0.5-0.2c-2.3-0.4-4.5,0-6.6,0.9
		c-1.4,0.6-2.6,1.4-3.5,2.7c-0.7,1.1-0.5,1.9,0.8,2.3C83.8,140.8,84.6,140.9,84.9,141z"/>
	<path d="M123.7,168.4c-1.5,0.8-3.1,1.2-4.8,1.2c-2.3,0-4.6-0.2-6.9-0.3c-2.1-0.1-4.1,0.1-6.1,0.9c-0.1,0-0.1,0-0.2,0
		c0-0.1,0-0.1,0-0.2c1.2-0.3,2.3-0.7,3.5-0.8c1.8-0.1,3.6-0.1,5.4,0C117.7,169.5,120.7,169.5,123.7,168.4z"/>
	<path d="M114.2,165.1c-3.6,0.5-7.1,1.5-9.7,4.4c0.3-0.4,0.6-0.9,1-1.3C108,166,110.9,165.1,114.2,165.1z"/>
	<path d="M113.6,172.9c-0.9-0.1-1.8-0.2-2.7-0.4c-1.7-0.3-3.3-0.6-4.9-1C108.6,171.4,111,172.6,113.6,172.9z"/>
	<path d="M102,168c0.9-1.8,2.5-2.9,4.2-3.7c-0.8,0.5-1.6,1-2.3,1.6C103.2,166.5,102.7,167.3,102,168z"/>
	<path d="M98.6,167.7c-0.5-1.2-1.6-1.8-2.7-2.4C97,165.4,98.5,166.6,98.6,167.7z"/>
</g>
<g>
	<path d="M210.9,114.9c-1.9,1-3.9,2-5.9,2.9c0.1,0.4,0.2,0.9,0.3,1.3c1.3-0.5,2.6-1.2,3.7-2.2c0.4-0.4,1-0.7,1.6-0.8
		c0.4-0.1,0.7-0.2,1-0.4c0-0.5,0-1,0.1-1.4C211.4,114.6,211.2,114.8,210.9,114.9z"/>
	<path d="M214.1,110.6C214.1,110.6,214.1,110.6,214.1,110.6c0.4-0.3,0.7-0.5,1.1-0.6c0.3-0.7,0.7-1.4,1.1-2.1
		c2.9-5.1,4.3-10.6,3.4-16.5c-0.4-2.3-0.8-4.6-1.8-6.7c-0.1,0.6-0.3,1.2-0.7,1.7C219.4,95.2,218.1,103.1,214.1,110.6z"/>
	<path d="M205.2,122.2c2.4-0.2,4.8-0.8,7.2-1.1c-0.1-0.2-0.2-0.4-0.2-0.6c-0.1-0.2-0.1-0.3-0.1-0.5c-0.2,0-0.5,0.1-0.7,0.2
		c-2,0.7-4.1,1.1-6.1,1.3C205.3,121.7,205.3,122,205.2,122.2z"/>
	<path d="M264.3,62.3c-0.6-3.2-2.3-5.5-5.4-6.8c-0.6-0.3-1.5-0.9-1.5-1.3c0.1-1.5,0.5-3,0.8-4.5c0.3-1.3,0.7-2.6,0.8-3.9
		c0.1-1.9-1.1-3.4-2.6-4.6c2.2-2.1,2.6-4.5,1.6-7.1c-0.9-2.5-2.7-4.2-5.5-4.7c2.6-3.6,2.1-6.6,0-9.1c-3.5-4.1-6.1-5.7-10.6-4
		c-6-5.1-8.4-4.6-12-3.4c-0.8-2-2.6-3.1-4.5-3.8c-2.2-0.8-4.5-0.5-6.7,0.2c-2.4,0.8-4.2,2.3-5,4.8c-4.3-2.4-8.1-1.3-11.6,1.3
		c-3.7,2.8-4.9,6.4-3.2,10.5c-1.8,0.9-3.4,1.5-4.8,2.4c-1.4,0.9-1.4,2.4-1.3,3.9c0.3,0.1,0.6,0.2,0.8,0.4c-0.3-1.3,0.1-2.5,1.3-3.4
		c1.5-1.2,3.6-1.6,5.4-2.4c-1.5-4.6-1.5-7.3,2.8-10.6c2-1.5,4.3-2.4,6.8-2.2c2.5,0.2,4.1,2,6.1,3.5c-0.2-0.5-0.3-1.2-0.6-1.6
		c-1.2-1.3-0.6-2.4,0.4-3.4c2.2-2.4,7.4-3.9,11-1.6c1.1,0.7,2.2,1.3,3.3,1.9c0,0,0,0,0,0c-0.9,0.6-1.8,1.2-2.8,1.8
		c0,0.2,0,0.4,0.1,0.6c6.8-4.5,11.4-0.9,15.8,3.8c-0.1-0.6-0.2-1.2-0.3-2c3.3-1.4,5.5,0.3,7.7,2.4c3.5,3.2,3.4,6.8,0.5,10.7
		c3.6,0,5.3,1.9,6.2,4.8c0.9,3.3-1.4,5.1-3.5,7.3c1-0.3,1.6-0.4,2.3-0.6c2.6,2.3,3,5.7,0.8,8.2c-0.4-0.4-0.9-0.8-1.3-1.2
		c0.4,1.6,1.8,2.9,0.9,4.6c-0.7,1.4-1.7,2.7-2.6,4c0.1,0.1,0.2,0.2,0.3,0.3c0.6-0.4,1.3-0.8,1.8-1.3c0.7-0.8,1.4-0.8,2.4-0.5
		c3.2,1.1,5.4,4.7,4.8,8c-0.6,3.8-2.6,5.9-6.3,6.6c-0.5,0.1-1.1,0.2-1.6,0.3c-1.7,0.3-1.9,0.3-3.4-0.9c1.1,3.8,0,6.6-3.3,8.3
		c-3.6,1.9-7.1,2-10.5-0.7c0.5,0.6,0.9,1.2,1.4,1.8c-0.8,2.5-3,2.4-5,2.6c0.3,1.8-0.4,2.6-2.9,3.1c0.4-2.1,0.7-4.2,1.1-6.2
		c0.1-0.4,0.6-0.8,1.1-1.1c3-1.9,5.2-4.4,6.1-8c0.3-1.1,0.9-1.6,2-1.2c1.8,0.6,3.4,0.1,4.5-1.5c1.1-1.7,1.7-3.5,0.6-5.4
		c-1.4,0.2-2.7,0.3-4.3,0.6c0.5-3.3,1.8-6.5-1.1-9.1c-1.4,0.4-1.5,1.6-2,2.6c-1.1,2.5-2,5.1-3.2,7.6c-0.7,1.3-1.8,2.5-2.8,3.6
		c-0.4,0.4-1.1,0.6-2,1.1c0.1-3.8,0.5-7.1,1.7-10.4c1-2.5,1.6-5.1,2.3-7.7c0.5-1.9-0.2-3.4-1.6-4.7c-1.1-1-2.2-2.2-3.1-3.3
		c-2.6-3.2-6.7-4.4-10.7-2.7c1.3,0,2.3,0,3.2,0c3.6,0.2,6.1,2,7.6,5.1c1.3,2.5,0.7,4.9-1.3,6.8c-0.2,0.2-0.4,0.4-0.6,0.7
		c-0.6,0.2-1.1,0.4-1.5,0.5c1.1,1.1,2.3,2.1,3.1,3.3c0.9,1.3,0.8,2.4-0.5,3.4c-1.4,1.1-3,1.9-4.7,2.9c0-0.1,0,0,0,0.1
		c1.1,3.3,0.1,5.1-3.3,5.8c-2.2,0.4-4.1-0.1-6.1-0.9c-0.6-0.2-1.2-0.5-1.7-0.8c-0.1,0.1-0.2,0.3-0.2,0.4c1.1,0.6,2.1,1.4,3.3,1.9
		c1,0.4,1.4,1,1.3,1.9c0,1,0,2-0.1,3c-0.1,1.1-0.7,2.1-1.8,2.1c-0.2,0-0.3,0-0.5-0.1c0.4,0.4,0.8,0.8,1.1,1.2
		c0.2-0.1,0.5-0.2,0.7-0.4c0.8-0.8,1.4-2,1.6-3.1c0.2-1.2-0.1-2.6-0.2-4c2.1,0.1,4.2,0,5.9-1.4c1.9-1.5,2.1-3.5,1.2-5.5
		c1.7-0.7,3.2-1.4,4.8-2c-1.5,6-1.4,9.5,0.4,9.5c0.1-0.4,0.1-0.7,0.2-1.1c2.6-0.3,4.1-2,5.1-4.1c1.3-2.6,2.4-5.4,3.6-8.1
		c0.3-0.7,0.6-1.3,1-2.4c1,2.3,1.7,4,0.5,6c-1.1,1.8-0.3,3,1.8,3.1c0.8,0,1.6-0.1,2.5-0.2c-0.7,4.1-1.5,4.9-5.3,5
		c-1.5,0-1.9,1-2.5,1.9c-1.2,1.8-2.4,3.6-3.8,5.1c-1.3,1.5-3.1,2.3-3.3,4.8c-0.2,3-1.5,5.9-1.6,8.9c-0.3,5.1-0.2,10.2,0,15.3
		c0,0.9,0.2,1.8,0.4,2.6c0.5,0.1,1,0.2,1.5,0.5c-1.1-6.1-0.8-12.3-0.6-18.5c0-0.8,0.2-1.6,0.3-2.2c1-0.6,2-0.9,2.6-1.5
		c0.7-0.6,1.2-1.6,1.8-2.5c2.2,0.3,3.7-0.8,4.3-3c1.1,0.3,2,0.6,2.9,0.8c4.2,0.8,9.1-1.8,10.1-5.5c0.5-2,1.8-2.7,3.5-3.2
		c0.8-0.2,1.6-0.3,2.4-0.5C262.3,70.4,265,66,264.3,62.3z M228.6,52c2-0.4,3.3-1.7,3.6-3.8c0.1-0.8,0.1-1.6,0.1-2.5
		c1.6,0.8,2.3,2.1,2,3.7c-0.5,2.6-1.2,5.1-1.9,7.9C231,55.3,229.8,53.7,228.6,52z"/>
	<path d="M250.7,46.3c-1-0.8-2.3-1.3-3.5-1.9c2.1-2.3,2.5-4.2,0.7-6.1c-0.8-0.9-1.9-1.6-3-1.9c-1.4-0.4-2.9-0.5-4.3-0.7
		c0-0.8,0.1-1.7,0.1-2.6c0-4.4-2.6-7.3-7.1-7.4c-4.5-0.2-8.3,1.2-10.8,5.2c-5-5.9-9.2-7-14.9-4c-2.1,1.1-3.8,2.8-4.7,5.1
		c-0.5,1.2-0.7,2.3-0.8,3.5c0.3,0.1,0.6,0.2,0.9,0.4c0.1-2.9,1.6-5.5,3.8-7.2c4.4-3.3,10.1-2.7,13.5,1.5c1,1.2,1.8,2.5,2.7,3.7
		c-0.6-3.1,1.3-4.6,3.6-5.7c1.6-0.8,3.4-1.3,5.2-1.5c5.4-0.5,9,4.3,7.2,9.4c-0.2,0.6-0.4,1.1-0.8,2.1c2.2-2.1,4.9-2.3,7.4-0.5
		c0.7,0.5,1.3,1.3,1.7,2.2c0.9,2-0.8,3.3-1.7,4.9c2.5,0.6,4.6,1.7,5,4.3c0.4,2.6-1.7,4-3.4,5.8c2.8-0.7,4.5-2.5,4.6-4.8
		C252.4,48.6,251.9,47.2,250.7,46.3z"/>
</g>
<g>
	<g id="XMLID_6_">
		<g>
			<path d="M183.4,70.4c0,0-0.1,0-0.1,0C183.3,70.4,183.3,70.4,183.4,70.4L183.4,70.4C183.3,70.4,183.3,70.4,183.4,70.4z"/>
			<path d="M164,84.1C164,84.1,164,84.1,164,84.1C163.9,84.1,163.9,84.1,164,84.1C163.9,84.1,164,84.1,164,84.1z"/>
			<path d="M159.1,91.4c-0.9,1-1.9,2-3.1,2.5c-2.4,1.1-4.4,0.2-5.8-2.5c2.1,1.8,4.2,2.7,6.8,0.9c2.3-1.5,1.8-3.6,1.2-5.7
				c1.9-1.1,4.6-1.4,4.6-4.3c-0.1-2.4-1.6-3.9-3.7-4.7c2.3-0.2,4.5,1.8,4.8,4.4c0.1,0.7,0,1.5,0,2.2l0,0c-1.2,1.5-2.7,2.7-5,2.7
				C159.4,88.4,160.3,90,159.1,91.4z"/>
			<path d="M205.5,64.7c1.2,0.9,1.7,2.3,1.6,3.8c-0.1,2.3-1.7,4.2-4.6,4.8c1.7-1.8,3.8-3.3,3.4-5.8c-0.5-2.6-2.5-3.7-5-4.3
				c0.8-1.7,2.6-3,1.7-5c-0.4-0.8-1-1.6-1.7-2.1c-2.5-1.8-5.2-1.7-7.4,0.5c0.4-0.9,0.6-1.5,0.8-2.1c1.8-5.2-1.8-10-7.2-9.4
				c-1.8,0.2-3.6,0.8-5.2,1.5c-2.3,1.1-4.2,2.6-3.6,5.6c-0.9-1.3-1.7-2.5-2.7-3.7c-3.4-4.2-9.1-4.7-13.5-1.5
				c-3.9,2.9-5.5,8.8-1.5,14c-1,0.2-2,0.3-3,0.5c-2.4,0.5-4.1,2.2-4.4,4.2c-0.2,1.3,0.1,1.9,1.4,2.5c-2.2,1.6-2.1,3.6-0.5,5.8
				c-2-1.2-2.4-2.7-1.7-4.5c0.2-0.6,0.5-1.3,0.3-1.8c-0.8-3.4,1.2-6.5,4.7-7c0.5-0.1,1.1-0.1,1.9-0.2c-2.2-3.3-2.6-6.6-1.1-10.2
				c0.9-2.3,2.6-3.9,4.7-5.1c5.7-3,9.9-1.9,14.9,4c2.5-4,6.3-5.4,10.8-5.2c4.4,0.2,7,3,7.1,7.4c0,0.9-0.1,1.7-0.1,2.6
				c1.5,0.2,3,0.2,4.3,0.7c1.1,0.4,2.2,1.1,3,1.9c1.8,1.9,1.4,3.8-0.7,6.1C203.1,63.4,204.4,63.9,205.5,64.7z"/>
			<path d="M190.2,139.6c-1-0.1-1.9-0.3-2.9-0.3c-1.2-0.1-2.5-0.1-3.7-0.2c-0.5-0.1-1-0.4-1.7-0.7c-0.4,1.3-0.9,2.9-1.3,4.4
				c-0.4,1.4-0.9,1.7-2.1,1c-0.6-0.3-1.1-0.8-1.5-1.3c-1.2-1.3-2.3-2.8-3.5-4.1c-0.1,0.1-0.1,0.3-0.2,0.4c-0.9-0.1-1.8-0.2-2.7-0.2
				c-1.4,0-3-0.4-4.3,0c-3.5,1.2-7,1.5-10.5,1.5c-0.4,0-0.9-0.1-1.4-0.3c0.4-0.6,0.8-1.1,1.1-1.6c-0.3,0.1-0.6,0.2-0.7,0.4
				c-0.3,0.4-0.6,0.8-0.9,1.2c0.4,0.3,0.8,0.7,1.3,0.7c1,0.2,2,0.1,3,0.2c4.4,0.2,8.5-1.7,13-1.3c1.4,0.1,2.6,0.1,3.5,1.4
				c0.6,0.8,1.3,1.6,1.8,2.4c0.8,1.1,1.8,1.6,3.1,1.4c1.3-0.2,1.5-1.2,1.8-2.1c0.6-1.8,2.6-3.2,4.3-2.6c1.3,0.5,2.6,0.6,3.9,0.7
				C189.7,140.1,190,139.8,190.2,139.6z"/>
			<path d="M188.8,132.3C188.8,132.3,188.7,132.3,188.8,132.3c-1.2-1.6-2-3.5-2.5-5.4c-0.2-0.2-0.4-0.5-0.6-0.7
				c-0.2,0.1-0.4,0.1-0.7,0.1c-0.1,0-0.1,0-0.2,0c0.8,2.9,2.5,5.4,4.4,7.8c0,0,0-0.1,0-0.1C188.8,133.5,188.7,132.9,188.8,132.3z"/>
			<path d="M219,80.7c-0.6-3.2-2.3-5.5-5.4-6.8c-0.6-0.3-1.5-0.9-1.5-1.3c0.1-1.5,0.5-3,0.8-4.5c0.3-1.3,0.7-2.6,0.8-3.9
				c0.1-1.9-1.1-3.4-2.6-4.6c2.2-2.1,2.6-4.5,1.6-7.1c-0.9-2.5-2.7-4.3-5.5-4.7c2.6-3.6,2.1-6.6,0-9.1c-3.5-4.1-6.1-5.7-10.6-4
				c-6-5.1-8.5-4.6-12-3.4c-0.8-2-2.6-3.1-4.5-3.8c-2.3-0.8-4.5-0.5-6.7,0.2c-2.4,0.8-4.2,2.3-5,4.8c-4.3-2.4-8.1-1.3-11.6,1.3
				c-3.7,2.8-4.9,6.4-3.2,10.5c-1.8,0.9-3.4,1.5-4.8,2.4c-1.6,1.1-1.4,3-1.3,4.8c-4.3-0.6-8.7,1.4-10.3,5c-2.3,5.3,0,9.4,4,13
				c-1.9,1.8-2.5,4.1-1.7,6.5c0.5,1.6,1.5,3,2.2,4.5c0.2,0.4,0.7,1,0.5,1.4c-0.9,2.4-0.5,4.6,0.6,6.7c-3.4,2.4-4.5,5.1-3.7,8.5
				c1.1,4.5,3.7,7.1,7.5,7.7c2.9,0.5,5.6-0.2,8.2-1.4c0.4,0.6,0.7,1.2,1.1,1.8c3.1,4.1,8,4.3,11.4,0.5c0.6-0.7,1-1.5,1.6-2.1
				c0.5-0.5,1.2-0.8,1.9-1.3c3.6,10.6,1.8,20-3.8,28.9c-0.5,0.7-1.1,1.5-1.8,1.9c-2.5,1.3-5.2,2.5-7.8,3.8c-0.6,0.3-1.1,0.7-1.7,1.1
				c2.8-0.1,5.4-1,7.5-2.9c0.4-0.4,1-0.7,1.6-0.8c1.5-0.4,2.4-1.4,3-2.8c0.9-1.8,1.6-3.7,2.6-5.4c2.9-5.1,4.3-10.6,3.4-16.5
				c-0.7-4.5-1.7-8.9-6.1-11.5c-0.5-0.3-0.7-1.1-1.1-1.7c-4-0.8-6-2.6-6.2-5.3c1.4,1.3,3,2.3,5.1,2c-2.6-4.7-2.8-6.3-0.8-8.3
				c0.3,3.1,1.2,6,2.9,8.5c1.2,1.7,3.1,2.3,4.3,1.1c0.8-0.8,1.4-2,1.6-3.1c0.2-1.2-0.1-2.6-0.2-4c2.1,0.2,4.2,0,5.9-1.4
				c1.9-1.5,2.1-3.5,1.2-5.5c1.7-0.7,3.2-1.4,4.8-2c-1.5,6-1.4,9.5,0.4,9.5c0.1-0.3,0.1-0.7,0.2-1.1c2.6-0.3,4.1-2,5.2-4.1
				c1.3-2.6,2.4-5.4,3.6-8.1c0.3-0.7,0.5-1.3,1-2.4c1,2.3,1.7,4,0.5,6.1c-1.1,1.8-0.3,3,1.8,3.1c0.8,0,1.6-0.1,2.5-0.1
				c-0.7,4.1-1.5,4.9-5.3,5c-1.5,0-1.9,1-2.5,1.9c-1.2,1.8-2.4,3.6-3.8,5.1c-1.3,1.5-3.1,2.3-3.3,4.8c-0.2,3-1.5,5.9-1.6,8.9
				c-0.3,4.9-0.2,9.9,0,14.8c0.1-0.1,0.3-0.2,0.4-0.2c0.1-0.9,0.3-1.8,0.7-2.6c-0.2-4,0-8,0.1-12.1c0-0.8,0.2-1.6,0.3-2.2
				c1-0.6,2-0.9,2.6-1.5c0.7-0.6,1.2-1.5,1.8-2.5c2.2,0.3,3.7-0.8,4.3-3c1.1,0.3,2,0.6,2.9,0.8c4.2,0.8,9.1-1.8,10.1-5.5
				c0.5-2,1.8-2.7,3.5-3.2c0.8-0.2,1.6-0.3,2.4-0.5C217,88.8,219.7,84.4,219,80.7z M217.6,82.4c-0.6,3.8-2.6,5.8-6.4,6.6
				c-0.5,0.1-1.1,0.2-1.6,0.3c-1.7,0.3-1.9,0.3-3.4-0.9c1.1,3.8,0,6.6-3.3,8.3c-3.6,1.9-7.1,2-10.5-0.7c0.4,0.6,0.9,1.2,1.4,1.9
				c-0.8,2.5-3,2.4-5,2.6c0.3,1.8-0.4,2.6-2.9,3.1c0.4-2.1,0.7-4.2,1.1-6.2c0.1-0.4,0.6-0.8,1.1-1.1c3-1.9,5.2-4.4,6.1-8
				c0.3-1.2,0.9-1.6,2-1.2c1.8,0.6,3.4,0.1,4.4-1.5c1.2-1.7,1.7-3.5,0.6-5.4c-1.4,0.2-2.7,0.3-4.3,0.6c0.5-3.3,1.8-6.5-1.1-9.2
				c-1.4,0.4-1.6,1.6-2,2.6c-1.1,2.5-2,5.1-3.3,7.6c-0.7,1.3-1.8,2.5-2.9,3.6c-0.4,0.4-1.1,0.6-2,1.1c0.1-3.8,0.5-7.1,1.7-10.4
				c1-2.5,1.6-5.1,2.3-7.7c0.5-1.9-0.2-3.4-1.7-4.7c-1.1-1-2.2-2.2-3.1-3.3c-2.6-3.2-6.7-4.4-10.7-2.7c1.3,0,2.3,0,3.2,0
				c3.6,0.1,6.1,2,7.7,5.1c1.3,2.5,0.7,4.9-1.3,6.8c-0.2,0.2-0.4,0.4-0.6,0.7h0c0,0,0,0,0,0c2.1-0.4,3.3-1.7,3.6-3.8
				c0.1-0.8,0.1-1.6,0.1-2.5c1.6,0.8,2.3,2.1,2,3.7c-0.5,2.5-1.2,5.1-1.9,7.9c-1.4-2-2.6-3.6-3.8-5.3c0,0-0.1,0-0.1,0
				c0,0,0,0,0.1-0.1c-0.6,0.2-1.1,0.4-1.5,0.5c1.1,1.1,2.3,2.1,3.1,3.3c0.9,1.3,0.8,2.4-0.5,3.4c-1.4,1.1-3,1.9-4.7,2.9v0
				c0,0,0,0.1,0,0.2c1.2,3.3,0.1,5.1-3.3,5.8c-2.2,0.4-4.1-0.1-6.1-0.9c-0.6-0.3-1.2-0.5-1.7-0.8c-0.1,0.1-0.2,0.3-0.2,0.4
				c1.1,0.6,2.1,1.4,3.3,1.9c1,0.4,1.4,0.9,1.3,1.9c0,1,0,2-0.1,3c-0.1,1.1-0.7,2.1-1.8,2.1c-0.8,0-1.8-0.7-2.2-1.4
				c-1.5-2.3-2.4-5-2.5-7.8c0-0.5-0.1-0.9-0.2-1.6c-0.8,0.3-1.5,0.6-2.2,0.9c-1.6,3.5-1.6,3.9-0.3,8.1c-1.2-1-2.1-1.8-3.1-2.6
				c-0.7,1-0.8,2.1-0.4,3.3c0.8,2.1,2.3,3.7,4.5,4.3c1.1,0.3,2,0.8,2.7,1.8c0.5,0.8,1.4,1.4,2.4,2.3c-2.1,2.3-3.4,5.6-7.1,5.9
				c-3.3,0.3-5.3-1.7-7.2-3.9c0.4-0.8,0.8-1.5,1.1-2.2c-3.1,2.8-6.8,3-10.5,2.3c-3.4-0.7-4.7-3.6-5.6-6.6c-0.8-3.1,0.5-5.5,2.9-7.5
				c0.8,0.5,1.6,1.1,2.5,1.6c-1.6-2.5-3.8-4.8-2.6-8c1.1-3,3.6-4.6,6.8-5c-3.1-1.2-5,0.8-6.9,2.7c-3.1-2.8-3.4-6.8-0.7-11.8
				c-0.5-0.4-1.2-0.7-1.7-1.2c-2.1-2-3-4.6-3.1-7.5c-0.1-4.4,5.4-8.5,9.8-7.4c0.5,0.1,1,0.3,1.8,0.6c-1.3-2-1.6-4.2,0.3-5.6
				c1.5-1.2,3.6-1.6,5.4-2.4c-1.5-4.6-1.5-7.4,2.8-10.6c2-1.5,4.3-2.4,6.8-2.2c2.5,0.1,4.1,2,6.1,3.5c-0.2-0.5-0.3-1.2-0.6-1.6
				c-1.2-1.3-0.6-2.4,0.4-3.4c2.2-2.4,7.4-3.9,11-1.6c1,0.7,2.2,1.3,3.3,1.9c-0.9,0.6-1.8,1.2-2.8,1.8c0,0.2,0,0.4,0.1,0.6
				c6.8-4.5,11.4-0.9,15.8,3.8c-0.1-0.6-0.2-1.2-0.3-1.9c3.3-1.4,5.5,0.3,7.7,2.4c3.5,3.2,3.4,6.8,0.5,10.7c3.6,0,5.3,1.9,6.2,4.8
				c0.9,3.3-1.4,5.1-3.5,7.3c1-0.3,1.6-0.4,2.3-0.6c2.6,2.3,3,5.7,0.9,8.2c-0.4-0.4-0.9-0.8-1.3-1.2c0.4,1.6,1.8,2.9,0.9,4.6
				c-0.7,1.4-1.8,2.7-2.6,4c0.1,0.1,0.2,0.2,0.3,0.3c0.6-0.4,1.3-0.8,1.8-1.3c0.7-0.8,1.4-0.8,2.4-0.5
				C215.9,75.4,218.1,79.1,217.6,82.4z"/>
		</g>
		<g>
		</g>
	</g>
</g>
<g>
	<path d="M26,97c0.8-1.2,1.5-2.3,2.2-3.4c1.2-1.9,0.8-3.9,0.5-6c-0.3-1.8-0.2-3.6-0.2-5.4c0-0.5,0-1-0.4-1.4
		c-4.1-4.9-3.3-11.5,1.8-15c0.7-0.5,1.6-0.9,2.5-1.3c-0.6-1.6-1.3-3.1-1.9-4.8c-1-2.8-1.7-5.7-1.3-8.7c0.2-1,0.6-2,0.8-3.1
		c0.2-0.8,0.4-1.7,0.2-2.5c-2.9-11.1,0.4-20.6,7.8-28.8c3.9-4.3,8.8-7.5,14.5-9c7.1-1.9,13.8-1.1,19.8,3.3c1.7,1.2,3,2.8,3.9,4.7
		c0.1,0.2,0.2,0.3,0.3,0.6c1.7-1.3,3.4-2.7,5.6-2c2.1,0.7,2.9,2.7,3.5,4.6c1.7-0.6,3.3-1.3,5-1.9c-1.1-1.5-1.3-3.3-0.8-5.2
		c0.2-0.6,0.6-1.2,1.1-1.6c1.1-0.8,2.5-0.9,3.8-0.5c2.1,0.8,3.9,2,5.4,3.7c1.2,1.3,1.6,2.9,1.9,4.6c0.1,0.4,0.3,0.8,0.6,1
		c2.7,1.8,4.9,4,7,6.5c1,1.2,2.2,2.1,3.7,2.9c0.7,0.4,1.4,0.8,2,1.3c1.1,1,1.2,2.1,0.6,3.4c-0.1,0.3-0.1,0.9,0,1
		c0.8,0.7,1.6,1.3,2.5,1.8c0.4,0.3,1,0.3,1.5,0.5c1,0.4,1.7,1.1,1.7,2.3c0.1,1.7,1.2,3,2.2,4.3c3.5,4.3,5.9,9.1,7.1,14.5
		c0.6,3,0.6,6.1-0.2,9.1c-0.2,0.8-0.6,1.7-1.2,2.3c-0.6,0.6-0.6,1.1-0.4,1.7c1.8,9.5,0.8,18.6-3.4,27.3
		c-5.4,11.2-14.1,19.1-25.6,23.8c-5.7,2.3-11.6,3.5-17.8,3.9c-9.8,0.5-19.2-1.3-27.9-6c-5.8-3.1-10.6-7.4-15.1-12.2
		c-0.4-0.4-0.9-0.9-1.2-1.3c-1.3-1.7-3.2-2.2-5.2-2.5c-0.3,0-0.7,0.2-0.9,0.4c-1,1.6-2.3,2.4-4.2,2.2c-1.7-0.2-3.4-0.1-5-0.4
		c-3.5-0.7-4.8-3.9-2.9-6.9c0.4-0.7,1-1.4,1.6-1.9C23,95.9,24.5,96,26,97z M117.4,51c-1,1.6-2.3,2.7-4,3.4c-0.1,0-0.1,0.1-0.2,0.1
		c-0.8,0.5-0.9,1.1-0.6,1.9c0.1,0.4,0.2,1,0,1.4c-0.9,2.3-3.3,3.6-5.8,3.3c-0.9-0.1-1.8-0.3-2.7-0.2c-1.6,0.1-3.1,0.5-4.7,0.7
		c-2.6,0.4-5.3,0.4-7.8-0.4c-0.5-0.2-0.9-0.1-1.4,0.2c-1.6,0.9-3.2,1.8-5.1,1c-0.9-0.4-1.7-0.9-2.5-1.4c-0.6-0.3-1.3-0.6-1.8-0.8
		c-0.4,1-0.8,1.9-1.2,2.7c-0.1,0.2-0.1,0.6,0,0.8c1.6,2.4,3.2,4.9,4.9,7.3c2.9,3.8,6.4,6.8,10,9.8c1.6,1.3,2.2,3,2.1,5.1
		c0,0.4-0.2,1-0.4,1.3c-1.8,2.3-4.2,3.6-7.2,3.5c-2.4-0.1-4.8-0.6-7-1.6c-6.6-3-11.2-8-14.6-14.2c-0.3-0.6-0.6-0.9-1.4-0.9
		c-3.3-0.2-4.3-1.3-3.8-4.3c0.1-0.6,0.1-1.4-0.2-1.9c-0.7-1.4-1.6-2.8-2.3-4.2c-0.3-0.5-0.6-0.7-1-0.5c-0.8,0.3-1.5,0.6-2.2,0.9
		c-0.6,0.3-1.1,0.3-1.6-0.2c-1.7-1.5-3-3.2-4.1-5.1c-0.8,0.2-1.5,0.5-2.2,0.7c0.5,5-1.7,9.6-2.1,14.5c0.3-0.3,0.5-0.7,0.7-1
		c0.2-0.3,0.4-0.7,0.6-1c0.1,0,0.2,0.1,0.2,0.1c-2,4.6-3.3,9.4-2.7,14.5c-0.1,0-0.2,0-0.3,0c-0.2-1-0.4-2-0.6-3.1
		c-2.5,1.5-3.9,3.9-5,6.5c-0.1,0-0.1-0.1-0.2-0.1c0.3-0.9,0.6-1.8,0.8-2.6c-1.9-0.5-3.8-0.9-5.6-1.7c-1.8-0.7-3.4-1.9-5.2-2.8
		c-0.3,1.9,0,3.9,0.4,5.9c0.4,1.9,0.9,3.8,1.3,5.8c0,0-0.1,0-0.1,0c-0.4-0.8-0.8-1.6-1.3-2.5c-0.1,1-0.2,1.9-0.3,2.7
		c-0.1,0-0.2,0-0.3,0C29,94.4,29,94.3,29,94.2c-0.7,1-1.4,2.2-2.3,3.1c-0.9,0.9-2.1,1.5-3.4,2.4c0.5,0.8,1.1,1.7,1.7,2.6
		c-0.7-0.4-1.3-0.9-1.8-1.4c-0.9-1.2-0.5-2.4,1-2.9c0,0.2-0.1,0.4-0.1,0.7c0.6-0.5,1.1-0.9,1.7-1.4c-1-0.5-1.9-0.6-2.7-0.2
		c-1.3,0.7-2.3,1.8-2.7,3.3c-0.6,2.2,0.3,3.7,2.5,4.3c2.3,0.6,4.6,0.9,7,0.5c0.9-0.2,1.4-0.7,1.8-1.9c-0.8,0.2-1.4,0.4-2,0.6
		c-0.8,0.3-2.2,0.1-2.8-0.8c1.2,0.6,2.1,0.3,3.1-0.1c1.4-0.5,2.8-0.6,4.3-0.3c0.6,0.1,1.2,0.2,1.8,0.3c0-0.1,0.1-0.1,0.1-0.2
		c-0.6-0.5-1.2-1-2-1.5c1.1,0,1.8,0.5,2.4,1.2c2.4,2.4,4.7,4.9,7.1,7.3c8.1,8.1,17.9,12.5,29.2,13.8c5.5,0.6,11,0.5,16.4-0.5
		c9-1.6,17.3-5.1,24.1-11.3c11.1-10.1,16.5-22.6,15.1-37.7c-0.5-5.1-1.9-10-4.3-14.6C122.4,56.5,120.2,53.6,117.4,51z M35,40.4
		c0.1,0.1,0.2,0.1,0.3,0.2c-0.2,0.4-0.4,0.8-0.7,1.2c-2.4,2.9-3.9,6.1-4.1,9.9C30.2,56,31.5,60,33,64c0.1,0.2,0.5,0.4,0.7,0.4
		c1.9,0,3.7,0.6,4.8,2.2c1.2,1.7,1.9,3.7,2.9,5.5c0.1,0.1,0.1,0.3,0.1,0.5c-0.5-0.5-0.9-1-1.2-1.6c-0.9-1.4-1.8-2.8-2.7-4.1
		c-0.5-0.8-1.3-1.1-2.2-1.2c-3.1-0.5-7.3,1.9-8.2,5c-0.4,1.4-0.5,2.8-0.7,4.2c0.1,0,0.2,0,0.2,0.1c0.1-0.1,0.1-0.3,0.2-0.4
		c1-2.3,2.9-3.4,5.4-3.5c1.6,0,2.8,0.9,3.9,1.9c1.8,1.7,3.3,3.6,5,5.4c1,1.1,2.1,2.1,3,3.2c0.5-1.7,0.9-3.2,1.3-4.7
		c0.1-0.3,0.2-0.7,0.2-1c-0.1-2.7,0.4-5.4,1-8.1c0.8-3.5,1.2-7,0.5-10.6c-0.8-4.5-2.5-8.7-4.6-12.8c-0.9-1.8-2.1-3.1-4.1-3.7
		c-0.2-0.1-0.3-0.3-0.5-0.5c0.1-0.1,0.1-0.1,0.2-0.2c1.1,0.2,2.2,0.5,3.1,1.4c3,2.9,4.6,6.5,5.7,10.4c0.6,2.3,1.1,4.6,1.7,7
		c0.7-0.2,1.3-0.4,2-0.6c-2.8-8.6-1.6-16.7,3.2-24.1c4.9-7.6,12-11.5,21.2-11.4c-0.2-2,0.2-3.8,1.1-5.6c0.1-0.1,0-0.4-0.1-0.5
		c-1-1.2-1.9-2.5-3-3.6c-1.7-1.7-4-2.6-6.2-3.5c-4.3-1.8-8.7-1.9-13.1-0.6c-6.5,1.9-11.9,5.6-16.2,10.8c-5.2,6.3-7.9,13.4-7.1,21.7
		c0.1,1.2,0.4,2.3,0.6,3.7C32.3,43.1,33.3,41.4,35,40.4z M109.2,29.7c0.7,0.6,1.3,1.3,1,2.4c-0.2,0.7-0.3,1.5-0.5,2.3
		c-0.2,1.4-0.5,2.8,0.1,4.1c1.6-0.2,3-0.4,4.6-0.6c-0.6-1.2-0.2-2.3,0.3-3.5c0.1-0.3,0.3-0.6,0.4-1c0.7-1.7,0-2.8-1.7-3.5
		c-0.3-0.1-0.6-0.2-0.9-0.3c-0.2-0.1-0.5-0.3-0.6-0.5c-0.1-0.9-1-1.2-1.5-1.8c-2.3-2.1-4.4-4.3-6.8-6.4c-1.2-1-2.5-2.1-4-2.5
		c-3.9-1.1-7.8-0.9-11.7,0.4c-2.1,0.7-2.1,0.7-2.2,2.9c-0.1,1.3-0.4,2.6-1.2,3.6c0-1.5,0.1-3,0.1-4.5c0-1.9-0.5-3.7-1.8-5.1
		c-0.5-0.5-1-0.9-1.8-0.8c-2,0.1-4.2,1.8-4.7,3.9c-0.5,1.9-0.4,3.8,0.1,5.7c0.3,1.3,0.8,2.5,1.2,3.9c-0.4-0.3-0.6-0.5-1.1-0.8
		c-0.4,1.5-0.8,2.9-1.1,4.3c-0.6,3.3-0.1,6.4,2.4,8.9c0.7,0.7,1.3,1.6,1.6,2.5c0.7,1.9,1.3,3.8,1.8,5.8c0.6,2.5,1,5,2.2,7.3
		c0.4,0.7,0.8,1.2,1.6,1.4c1.1,0.4,2.2,0.8,3.3,1.3c4.1,1.8,8.4,1.8,12.8,1.3c1.9-0.2,3.9-0.4,5.8-0.2c1.4,0.2,2.4-0.2,3.4-1
		c1.6-1.2,1.6-1.8,1-3.8c-0.8,0.4-1,1.2-0.4,2.2c-0.6,0.4-1.2,0.8-1.9,1.2c-0.2,0.1-0.5,0.1-0.7-0.1c-0.1-0.1-0.2-0.5-0.1-0.7
		c0.5-0.8,0.9-1.7,1.6-2.4c0.6-0.7,1.5-1.2,2.3-1.6c2.9-1.3,4.5-3.8,5.5-6.6c0.3-1,0.5-2,0.8-3.1c-2.3,1.3-4.1,0.8-5.5-1.2
		c-0.9-1.4-0.5-2.6,1.4-4.2c-1.2,0-2.2-0.1-3.3,0c-1.5,0.2-2.2-0.2-2.3-1.7c-0.1-1.2,0.1-2.4,0.3-3.6
		C109.5,32.3,110.1,31,109.2,29.7z M65.7,72.3c-0.3-3.2,0.1-6,1.4-8.8c0.7-1.4,1.5-2.5,2.9-3.2c2.7-1.3,5.3-1.7,7.9,0.2
		c0.4,0.3,1.1,0.5,0.7,1.3c-0.1,0.1,0.2,0.4,0.4,0.7c0.8-1.4,0.8-2.6,0.4-3.9c-0.1-0.4-0.6-0.8-0.9-1.1c-0.8-0.5-1.7-0.9-2.5-1.4
		c-0.7-0.5-1.2-1.1-1.8-1.7c0.1-0.1,0.1-0.1,0.2-0.2c0.7,0.5,1.4,1,2.1,1.5c-0.5-2.9-1.4-5.6-1-8.5c0.1,0,0.1,0,0.2,0
		c0,0.3,0.1,0.6,0.1,1c0.1,0,0.1,0,0.2,0c-0.1-1.9-0.3-3.8-0.4-5.6c0.8,1.4,1.2,2.9,0.9,4.6c-0.1,0.7-0.2,1.4-0.3,2.2
		c-0.1,2.4,0.9,4.5,1.7,6.8c0.1,0.5,0.7,0.9,1.2,1.1c0.9,0.3,1.2,0.9,1.4,1.8c0,0.2,0.2,0.6,0.4,0.7c1.4,0.7,2.9,1.3,4.3,1.9
		c0.3,0.1,0.6,0.4,0.9,0.3c1.3-0.3,2.6-0.6,4.1-1c-1.7-0.8-3.1-1.5-4.6-2.2c0,0.1-0.1,0.1-0.1,0.2c0.5,0.3,0.9,0.6,1.4,1
		c-1.3-0.4-2.4-1.2-3.2-2.3c-1.5-1.9-2.3-4.2-2.7-6.5c-0.7-3.6-1.8-6.9-4-9.9c-0.9-1.2-1.6-2.6-2.3-4c-0.5-1.1-0.9-2.2-0.5-3.6
		c0.1,0.4,0.2,0.8,0.3,1c0.1-1.8,0.2-3.6,0.3-5.4c-2.8,1-3.4,3.8-4.8,6c0.5-2.8,1.8-5.1,4.4-6.3c1-0.5,1.4-1.2,1.7-2.1
		c-2.2,0-4.1,0.9-6,1.9c1.4-1.8,3.4-2.5,5.6-2.5c-0.1-0.6-0.2-1-0.3-1.5c-0.3-1.1-0.5-1.3-1.6-1.2c-0.4,0-0.9,0.1-1.3,0.1
		c-7,0.8-12.9,3.9-17.1,9.6c-4.7,6.3-6,13.6-4.7,21.3c0.5,3.1,1.9,5.9,4.1,8.3c0.3,0.3,0.7,0.6,1,0.6c1.1-0.2,2.1-0.6,3.2-1
		c-0.1-1.2-1.2-1.1-2.2-1.5c0.6-0.2,1-0.4,1.4-0.6c0-0.9-0.1-1.7-0.8-2.4c-0.5-0.6-0.9-1.4-1.3-2.2c-0.2-0.5-0.3-1-0.4-1.5
		c0.1,0,0.1,0,0.2-0.1c0.6,1.1,1.2,2.2,1.8,3.3c0.1,0,0.2-0.1,0.3-0.1c0-1.3,0-2.6,0-3.9c0.5,2.2,0.8,4.4,1.3,6.5
		c0.5,2.2,1.3,4.2,2.9,5.9c-0.1-0.9-0.1-1.9-0.2-2.8c0.3,0.4,0.5,0.7,0.6,1.1c0.5,2.2,0.6,4.4,0.4,6.6c0,0.4,0,0.9,0.3,1.2
		c0.8,0.9,1.8,1.3,3.1,1.4c-0.2-0.6-0.4-1-0.6-1.6C66,71.9,65.9,72,65.7,72.3z M89.4,89.7c2.5,0,5.1-1.3,6.2-2.9
		c0.1-0.1,0.1-0.2,0.2-0.3c0.5-1.6-0.5-4.2-1.8-5.2c-2.2-1.6-4.4-3.3-6.3-5.1c-4.3-4.2-7.7-9.1-10.1-14.6c-0.2-0.5-0.5-0.8-1.1-0.9
		c-2.2-0.5-4.4-0.3-6.4,0.8c-0.5,0.3-1,0.7-1.3,1.2c-1.2,2-1.8,4.2-2.2,6.4c-0.2,0.9-0.1,1.7,0.4,2.6c2.4,4.4,5.3,8.4,8.8,12
		C79.7,87.3,84.6,88.9,89.4,89.7z M32.8,71.6c-1.7,0-3.2,0.5-4.2,1.4c-1.7,1.5-2,2.9-1,4.8c2.7,4.9,7.2,7.2,12.4,8.3
		c0.2,0,0.5-0.1,0.7-0.2c1.2-1.1,2.3-2.2,3.5-3.2c0.4-0.3,0.4-0.6,0-0.9c-0.5-0.4-1-0.7-1.4-1.1c-2.3-2.5-4.5-4.9-6.7-7.5
		C35.1,72.2,33.9,71.6,32.8,71.6z M118.7,51.2c5.4,4.6,8.2,10.7,10.2,17.3c0.3-0.5,0.6-0.9,0.8-1.4c1-3.6,0.8-7.1-0.1-10.7
		c-1.4-5.1-4-9.5-6.7-13.9c0,0-0.1,0-0.2,0C122.3,45.9,122.3,45.9,118.7,51.2z M101.5,18.2c0-0.3,0-0.4-0.1-0.5
		c-0.8-2.8-2.6-4.7-4.9-6.4c-1.3-0.9-2.7-1-4.2-0.8c-0.5,0.1-1.3,0.6-1.5,1c-0.5,1.6-0.5,3.2,0.5,4.6c0.2,0.3,0.7,0.6,1,0.6
		C95.5,16.7,98.5,17,101.5,18.2z M115.6,34.6c-0.3,0.7-0.5,1.1-0.7,1.6c-0.4,1.3,0.2,2,1.5,2.1c0.5,0,0.9,0,1.4,0
		c1.3,0,2,0.4,2.1,1.8c0.1,1,0,1.9-0.2,2.9c-0.3,2.4-0.6,4.8-1.8,7c-0.1,0.2,0.1,0.5,0.1,0.8c1.7-2.1,2.9-4.3,3.4-6.9
		c0.3-1.9,0.2-3.7-0.5-5.5c-0.5-1.3-1.4-2-2.5-2c0.1,0.3,0.2,0.7,0.3,1c0,0-0.1,0.1-0.1,0.1C117.7,36.7,116.7,35.7,115.6,34.6z
		 M109,58.1c1.4-0.1,1.6-0.5,1.3-1.9C109.8,56.9,109.4,57.4,109,58.1z"/>
	<path d="M25,120.2c0.2,2,0.5,3.9,0.7,5.8c-0.1,0-0.1,0-0.2,0c-0.3-1.5-0.7-3-1-4.6c-0.2-1.1-0.1-2.3-1.1-3.2
		c-0.2-0.2-0.2-0.6-0.1-1c0.2,0.2,0.5,0.3,0.7,0.5c0.2-1.2,0.3-2.4,0.5-3.6c0.2-1.3-0.6-2.2-1.4-3.2c0.1-0.1,0.2-0.1,0.3-0.2
		c0.3,0.4,0.6,0.9,0.8,1.3c1.1-1.9,1-3.9,2.3-5.4c0.1,0,0.2,0.1,0.3,0.1c-0.1,0.4-0.2,0.9-0.3,1.3c-0.4,1.4-0.7,2.7-1.2,4.1
		c-0.2,0.5,0.1,0.8,0.5,1c0.9,0.4,1.8,0.8,2.7,1.4c-1.1-0.3-2.1-0.5-3.3-0.8c-0.5,1.5-0.4,3.3-0.3,5c0,0.3,0.5,0.6,0.8,1
		c0.3-1.4,0.5-2.6,0.7-3.8c0.1,0,0.2,0,0.3,0c0.4,1.7-0.9,3.6,0.6,5c-0.2,0.3-0.5,0.5-0.4,0.7c0.4,4.4,1.3,8.6,3.5,12.5
		c0.4,0.6,0.7,1.2,1,2c-0.2-0.2-0.4-0.4-0.6-0.7c-2.9-4.2-4.5-8.9-4.7-14C26,120.9,25.9,120.4,25,120.2z"/>
	<path d="M22.6,107.3c-1.3,5-1.1,9.8-0.1,14.7C20.6,119.6,20.6,109.4,22.6,107.3z"/>
	<path d="M98.3,35.3c0-0.7-0.1-1.2,0-1.6c0.6-1.7,1.7-3,3.1-3.9c0.6-0.4,0.8-0.2,1.1,0.8c-0.8,0.7-1.5,1.3-2.2,2.1
		C99.6,33.4,99.1,34.3,98.3,35.3z"/>
	<path d="M103.3,40.2c-0.3,0.5-0.5,1.1-0.9,1.5c-0.2,0.2-0.6,0.2-0.9,0.2c-0.1,0-0.3-0.5-0.2-0.7c0.2-0.6,0.5-1.1,0.8-1.6
		c0.1-0.2,0.6-0.3,0.8-0.2C103.1,39.4,103.1,39.8,103.3,40.2z"/>
	<path d="M111.5,38c-0.2-0.9-0.1-1.6,0.7-1.9c0.1-0.1,0.6,0.2,0.6,0.3C113,37,112.3,37.8,111.5,38z"/>
	<path d="M69.8,41.1c2.3-0.4,3.6,1.5,4.7,4C72.9,43.5,72.2,41.3,69.8,41.1z"/>
</g>
<g>
	<g id="XMLID_5_">
		<g>
			<path d="M254.8,178.8c0.3,0.1,0.7,0.3,1.1,0.4c-0.3,0.3-0.4,0.5-0.6,0.6c-0.7,0.5-1.5,1.1-2.3,1.5c-0.8,0.4-1.6,0.6-2.4,0.6
				c-0.8,0-1.6-0.4-2.5-0.6c-0.2-0.1-0.5,0.1-0.6,0.3c-0.8,0.6-1,1.6-2.1,2.1c-1.4,0.6-2.5,0.9-3.9,0.3c-0.7-0.3-1.4-0.4-1.3,0.7
				c-1.6,0.8-3.2,1.5-4.8,2.3c-0.2-0.8-5.6-2.5-8.8-3c-0.3,0.5-0.6,0.9-0.9,1.3c-0.5,0.5-1,1-1.5,1.5c-1.4,1.5-2.8,3.3-4.4,4.6
				c-1.2,1-2.8,1.4-3,3.4c-0.1,1-0.1,1.5,1.1,1.5c1,0,1.9,0.4,2.1,1.5c0.2,1,0,1.8-1,2.2c-1.7,0.7-3.5,1.1-5,2.1
				c-2.4,1.6-4.6,3.5-6.9,5.3c-0.9,0.7-2.5,1.1-3.4,0.6c-1.1-0.5-0.8-1.5-0.7-2.4c0,0-0.1-0.1-0.1-0.2c-0.8,0-1.6,0.3-2.3,0.1
				c-0.6-0.1-1.4-0.6-1.6-1.1c-0.2-0.5,0.1-1.3,0.5-1.8c0.4-0.6,1.2-1.1,1.8-1.6c-0.3-0.5-0.6-1.1-0.9-1.6c-0.1-0.1-0.4-0.1-0.5-0.1
				c-1.1,0.5-2.1,1.1-3.1,1.7c-1.5,0.9-2.8,1.9-4.4,2.6c-0.5,0.2-1.5-0.2-2.1-0.6c-0.3-0.2-0.2-1-0.3-1.5c0-0.2,0-0.4,0-0.6
				c-0.2,0-0.5,0.1-0.7,0c-0.8-0.3-1.7-0.5-2.3-1c-0.3-0.2-0.1-1.3,0.2-1.7c0.7-0.9,1.7-1.4,1.5-2.9c-0.1-0.8,2-1.6,3.1-1.5
				c1.9,0.3,3.9,0.5,5.8,0.7c0.2,0,0.5-0.1,0.6-0.2c0.5-0.7,0-3-0.6-3.6c-0.9-1-1.8-2.1-2.6-3.1c-0.2-0.2-0.4-0.5-0.7-0.5
				c-3.1-0.9-5.7-2.6-7.8-5c-2.3-2.6-3.8-5.6-4.2-9.2c-0.1-1,0-2.3-0.6-3c-2-2.3-3.5-4.8-3.6-7.9c-0.1-1.8,0.1-3.6,0.5-5.3
				c0.3-1.4,1.1-2.6,1.8-3.9c0.8-1.4,1.6-2.8,2.5-4.1c0.6-0.9,1.4-1.6,2.4-2.6c0.9-0.1,1.7-0.8,2.2-2c0.6-1.4,1.2-2.7,1.9-4.1
				c0.5-1.1,1-2.2,1.5-3.3c-0.7-0.1-1.6,0-1.8-0.4c-0.5-0.6-0.6-1.5-0.8-2.4c-0.2-1.2-0.3-2.4-0.3-3.6c0-0.2,0.1-0.5,0.2-0.7
				c0.7-1.2,0.1-3.2-1-3.3c-1.3-0.1-2.6,0-3.9-0.1c-0.5,0-1.2-0.1-0.8-0.9c0.5-1.2,1.1-2.3,1.6-3.5c0.7-1.5,1.4-2.9,1.8-4.4
				c0.5-2.1,1.9-3.4,3.5-4.6c2.3-1.6,4.9-2.1,7.6-1.6c0.8,0.1,1.9,0.2,2.4,0.8c0.8,0.9,2.1,0.9,2.9,1.9c0.8,0.9,1.8,1.8,2.2,2.9
				c0.4,1.1,0.8,0.8,1.5,0.3c1-0.8,1.9-1.8,3.4-1.4c0.1,0,0.5-0.3,0.6-0.5c0.4-1.8,1.5-3.2,2.9-4.3c3.2-2.7,7-3.6,11-2.8
				c0.3,0.4,0.4,0.8,0.5,0.8c0.9-0.5,1.7-1.1,2.5-1.3c2.7-0.6,5.5-0.9,8.1,0.2c1.9,0.7,3.9,1.4,4.8,3.5c0.1,0.3,0.8,0.7,1.1,0.6
				c2-0.5,4-0.3,5.8,0.6c3.1,1.5,5.7,3.5,6.3,7.2c0.1,0.4,0.5,1,0.8,1c2.6,0.3,4.7,1.5,6.4,3.4c1.5,1.6,2.7,3.3,3,5.5
				c0.2,1.2,0,2.4,0,3.8c4.6,2.1,5.9,6.2,5.6,11.1c-0.1,1.7-1,2.9-2.2,4.1c0-0.1-0.1-0.2-0.1-0.2c-0.1-0.4-0.1-0.8,0-1.2
				c0.3-0.9,0.9-1.8,0.9-2.8c0.1-2.1,0.2-4.2-1-6.2c-0.7-1.1-1.1-2.3-2.4-3c-0.6-0.3-1-0.8-1.5-1.2c-2.5,1.5-5.1,3.1-7.5,4.6
				c0.9,1.6,2.2,3.2,2.7,5.1c0.5,1.8,0.4,3.8,0.5,5.8c0.1-0.1,0.4-0.3,0.8-0.4c1.3-0.2,2.7-0.4,4-0.6c0.6-0.1,1.2-0.2,1.9-0.3
				c0.3,0,0.6,0,0.9,0c0,0,0.1,0.1,0.1,0.3c0,0.1,0,0.2,0,0.2c-0.1,0.1-0.1,0.1-0.2,0.2c-0.1,0.2-0.3,0.5-0.5,0.5
				c-1.7,0.3-3.5,0.5-5.2,0.7c-1.3,0.1-1.8,0.6-1.5,1.9c0.1,0.7,0.4,1.5,0.3,2.2c-0.3,2.2-0.8,4.4-1.2,6.6c-0.1,0-0.3,0-0.4-0.1
				c-0.2,0.1-0.4,0.1-1,0.2c0.5,0.2,0.7,0.3,0.9,0.3c2,0.3,3.9,0.4,5.8,0.9c1.3,0.3,2.1,0.6,3.2-0.7c1.2-1.5,1.4-3.1,1.8-4.7
				c0.2-0.9-0.2-2.1-0.5-3.1c-0.3-1-0.6-2.1-1.2-2.8c-0.7-0.8-0.5-1.2,0-1.8c0,0,0.1-0.1,0.1-0.1c2,2.3,2.8,4.9,2.7,7.8
				c-0.2,2.8-1.4,5.3-4.4,7.3c-1.7-0.4-4-0.9-6.3-1.4c-0.3-0.1-0.7-0.1-1-0.2c0,0.4-0.1,0.8,0,1.2c0.3,0.9,0.7,1.7,1,2.6
				c0.6,1.9,1.2,3.9,1.9,5.7c0.9,2.2,0.8,4.5,0.5,6.5C258.8,179.9,256.8,178.7,254.8,178.8z M262.1,132.1c0.1-0.3,0.4-0.6,0.4-0.8
				c-0.4-1.4-0.7-2.9-1.4-4.1c-0.8-1.4-1.9-2.7-3.2-3.7c-1.1-0.9-2.3-1.8-3.9-1.6c-0.6,0.1-1.2,0.7-1.7,1.2
				c-0.5,0.6-0.9,1.3-1.4,1.9c-1.1,1.3-2.2,2.5-3.3,3.8c-0.4,0.5-0.7,1.2-0.6,1.7c0.1,0.4,0.9,0.7,1.4,0.8c2.3,0.4,3.7,2,4.7,3.9
				c0.4,0.8,0.5,1.9,0.7,2.8c2.7-1.6,5.4-3.2,7.8-4.7C262,132.8,262,132.4,262.1,132.1z M259.9,177.7c0.2,0,0.4-0.4,0.4-0.7
				c-0.2-1.8-0.3-3.7-0.7-5.5c-0.2-1.1-1.1-2.1-1.3-3.2c-0.2-1.5-0.7-2.8-1.8-3.9c-0.2-0.2-0.1-0.7,0.1-1c0.1-0.4,0.3-0.8,0.4-1.1
				c0-0.1-0.5-0.5-0.5-0.4c-0.3,0.2-0.4,0.4-0.8,0.9c-0.4-1.1-0.8-2.2-1.3-3.3c-0.1-0.3-0.6-0.5-0.9-0.8c0.1,1.6,0.4,3.1,0.4,4.5
				c0,1,0,2.2-0.4,3c-0.4,0.8-1.3,1.3-2.1,1.9c-1.4,1.1-2.9,1-4.5,0.8c-0.4-0.1-1,0.5-1.3,0.9c-1.7,1.9-3.8,2.6-6.3,2
				c-0.7-0.2-1.4-0.6-2.1-0.7c-0.4-0.1-1,0.3-1.3,0.6c-0.6,0.5-1.1,1.4-1.9,1.7c-1,0.5-2.2,0.5-3.3,0.9c-1.3,0.5-2.5,0-3.6-0.5
				c-0.1,0-0.4,0.1-0.5,0.2c-1.7,2-3.8,2.2-6.2,1.4c-0.5-0.2-1.3,0-1.9,0.2c-1,0.4-1.9,0.9-2.9,1.4c5.6,4.4,12,6.1,18.5,7.8
				c0-0.1,0-0.3,0.1-0.8c1,2.1,2.2,0.6,3.3,0.5c1.4-0.1,2.2-1.2,2.4-2.7c1.5,0.9,3,1.9,4.7,1.3c1.8-0.7,2.2-2.3,1.9-4.4
				c0.5,0.3,0.9,0.4,1.1,0.7c1.6,1.9,5.2,2,6.7,0.1c0.2-0.2,0.3-0.6,0.2-0.7c-1.1-0.8-0.4-1.7-0.3-2.5c1.1,0.6,2.1,1.3,3.3,1.6
				C258.1,178.2,259.1,177.9,259.9,177.7z M257.4,148.2c0.1-0.9,0-1.9,0-2.9c0-2.1-1.3-3.6-2.6-5.1c-0.9-1.1-1.7-0.4-2.5-0.1
				c-0.1,0.1-0.2,0.6-0.1,0.8c0.5,0.9,1,1.8,1.6,2.6c0.9,1.2,1.1,2.5,1.1,3.9c0,0.9-0.4,1.9,0.6,2.5c0.4-0.2,0.9-0.3,1.1-0.5
				C257,149.1,257.4,148.7,257.4,148.2z M256,160.8c2.3-3.3,2.4-6.6,1.3-10.2c-0.6,0.2-1.2,0.3-1.9,0.5c0.9,1.8,0.4,3.6,0.5,5.4
				c0,0.9-0.4,1.7-0.4,2.6C255.5,159.5,255.8,160.1,256,160.8z M255.3,154.8c0.1-1.1-0.2-2.2-0.5-3.3c-0.1-0.2-0.9-0.4-1.2-0.3
				c-1.7,0.7-3.4,0.5-5.1,0.1c0-0.1,0-0.3,0-0.4c1.3-0.1,2.6-0.3,3.8-0.5c0.7-0.1,1.8-0.3,1.9-0.7c0.3-1.1,0.3-2.3,0-3.3
				c-0.4-1.4-1.2-2.7-1.9-4c-0.8-1.7-1.1-1.7-2.7-0.6c-1.9,1.3-3.9,2.3-5.8,3.4c-0.8,0.4-1.5,1-2.1,1.5c0.9,0.5,1.6,1.2,2.4,1.4
				c1.9,0.6,2.7,2.5,4.1,3.7c1.3,1.1,2.4,2.4,3.6,3.6c0.9,0.8,1.7,1.7,2.6,2.5C254.8,157,255.2,155.9,255.3,154.8z M251.4,139.7
				c0.8-0.8,2.2-0.8,1.8-2.1c-0.6-1.9-0.9-4-3.2-4.8c-1-0.3-2-0.8-3-1.2c-0.3-0.1-0.6-0.4-1-0.7c-0.5,0.6-1,1.4-1.7,2.3
				c0.4,0.2,0.9,0.6,1.2,0.6c1.7-0.2,2.9,1,3.9,1.8c0.9,0.8,1.2,2.2,1.8,3.4C251.3,139.2,251.3,139.4,251.4,139.7z M252.1,166
				c1.4-2.2,0.8-4.3,0.6-6.5c-0.1-1.4-0.4-2.6-1.9-3.2c-0.1-0.1-0.2-0.3-0.3-0.5c-0.1,0.1-0.2,0.1-0.4,0.2c-0.2-0.4-0.4-0.7-0.6-1.1
				c-0.1-0.1-0.1-0.2-0.2-0.3c-1.5-1.5-2.8-3.2-4.4-4.4c-2.1-1.6-4.5-2.8-7.2-4.4c0.5,2,0.7,3.7-0.8,5.1c-1.4,1.4-3.1,1.8-4.8,1.5
				c-0.2,0.9-0.3,1.7-0.7,2.5c-0.9,2-2.2,2.7-4.3,2.5c-0.8-0.1-0.9,0.1-0.9,0.9c0,1.5-1.7,3.6-3.2,3.8c-1,0.2-2.1,0.2-3,0.6
				c-0.5,0.2-0.9,1-1.3,1.6c-0.8,1.1-1.6,2.3-3.1,2.5c-0.6,0.1-1.1,0.5-1.7,0.4c-0.6,0-1.2-0.3-1.8-0.5c-0.2,0-0.5-0.1-0.5,0
				c-1.4,1.8-3.4,2.1-5.8,1.9c0.6,0.7,0.9,1.1,1.3,1.5c0.7,0.7,1.4,1.5,2.2,2.1c1.3,1,2.6,1.9,3.9,2.8c0.7,0.5,4.4,0,4.6-0.7
				c0.5-1.4,0.9-1.1,2-0.5c1.5,0.8,3.3,0.9,4.8-0.4c0.6-0.5,1-1.3,1.5-2c3.6,3.1,8.4,1.2,9.7-2.8c0.1,0,0.3,0,0.3,0.1
				c0.8,1.8,2.7,1.6,4.1,1.8c1.5,0.2,3.2-0.2,4.2-1.8c0.4-0.6,1.1-1.1,0.5-2c-0.1-0.1,0.2-0.4,0.3-0.6
				C247.1,168.2,250.6,168.3,252.1,166z M252.2,121.4c0.2-0.2,0.3-0.6,0.2-0.8c-0.7-2.2-1.6-4.3-3.5-5.7c-2.2-1.6-4.7-2.3-7.5-1.9
				c-0.3,0.1-0.7,0.4-0.9,0.7c-0.8,1.8-1.6,3.6-2.2,5.5c-0.8,2.6-1.5,5.3-2.2,7.8c0.4,0.2,0.7,0.3,1,0.5c0.2,0.1,0.4,0.3,0.5,0.2
				c1.4-0.2,2.6,0.4,3.5,1.4c0.7,0.7,1.4,1.4,2.2,2.1c0.2,0.2,0.8,0.2,0.8,0.1c0.3-0.5,0.8-1.3,0.6-1.7c-0.8-1.9-2.2-3.3-4.2-4
				c-0.9-0.3-1.8-0.2-2.7-0.4c-0.3-0.1-0.5-0.3-0.7-0.5c0.1-0.2,0.3-0.6,0.4-0.6c1.1,0.1,2.2,0.2,3.2,0.5c1,0.3,1.9,0.9,2.7,1.6
				c0.7,0.7,1.2,1.6,1.8,2.4c0.1,0.1,0.2,0.3,0.3,0.6c0.6-0.7,1.2-1.3,1.8-1.9c0.4-0.4,0.6-0.9,0.9-1.4
				C249.7,124.5,250.9,122.9,252.2,121.4z M248.7,141.2c0.7-0.4,1.3-0.8,2-1.1c-0.4-0.9-0.7-1.6-0.9-2.3c-0.7-1.8-2.1-2.7-3.9-3.1
				c-0.4-0.1-0.7-0.3-1-0.5c-1.5-0.7-2.1,0.6-2.9,1.4c-0.4,0.5-0.7,1-1.1,1.5c-1.4,1.8-2.8,3.6-4.2,5.4c-0.3,0.3-0.5,0.7-0.8,1
				c1.3,0.7,2.7,1.5,4.1,2.3c0.2,0.1,0.6,0.2,0.8,0.1c1.3-0.8,2.5-1.6,3.8-2.3C245.8,142.8,247.3,142,248.7,141.2z M239.4,137.1
				c1.3-1.5,2.6-3,3.9-4.6c-1.6-2.9-4-4.6-7.7-4.2c-1.3,4.5-2.7,9.1-4.1,13.8c0.9,0.3,1.7,0.6,2.5,0.9c0,0.1-0.1,0.2-0.1,0.4
				c0.1,0,0.2,0,0.3,0c1.5-1.8,3-3.6,4.5-5.4C239,137.6,239.2,137.3,239.4,137.1z M239.1,112.8c0.1-0.3,0-0.8-0.3-1.1
				c-0.9-1.1-2-1.9-3.4-2.5c-1.6-0.7-3.3-0.8-5-0.9c-1.5-0.1-3,0.6-4.4,1c-0.3,0.1-0.6,0.6-0.6,1c0.1,3.7,0.3,7.5,0.4,11.2
				c0,0.3,0,0.7,0,1c1.9-0.2,3.6-0.6,5.3-0.5c1.6,0.1,3.2,0.8,4.9,1.3C237.1,120,238.2,116.4,239.1,112.8z M237.2,145.9
				c0-0.1,0.1-0.1,0.1-0.2c-0.4-0.2-0.9-0.7-1.3-0.7c-1.5,0.3-2.2-1-3.3-1.4c-1.2-0.4-2.3-0.7-3.5-1c-1.3-0.3-2.7-0.6-4-0.6
				c-2-0.1-4,0-6,0c-1.5,0-3.1,0.1-4.6,0.3c-1.3,0.2-2.6,0.6-3.9,0.9c-1.4,0.3-2.8,0.6-4.1,1.1c-2.1,0.8-4.2,1.7-6,3
				c-1.2,0.8-1.7,2.4-1.8,4c0,1.4-0.1,2.8,0.1,4.2c0.1,1,0.6,2,1,2.9c0.6,1.6,1.3,3.2,2,4.8c0.8,1.9,2.1,3.4,4,4.2
				c2.3,1.1,4,0.4,5.1-2.1c0.1-0.1,0.7-0.2,0.9-0.1c2.1,1.7,5,1,6-1.6c0.3-0.8,0.5-1.7,0.7-2.6c1.5,1.3,3.1,1,4.7-0.2
				c1.6-1.2,2.1-2.8,1.8-4.9c2.7,1.6,5.8-0.3,5.9-3.8c1.4-0.4,3-0.7,4.4-1.3c1.5-0.7,2.1-2.6,1.1-4.5c-0.1-0.1-0.1-0.3-0.2-0.5
				C236.7,145.8,236.9,145.8,237.2,145.9z M235,126.8c0.3-0.8,0.8-1.6,0.6-2.1c-0.2-0.6-1-1-1.7-1.3c-1.2-0.5-2.4-0.7-3.6-1.1
				c-0.1,0-0.3,0-0.4,0.1c-1.3,0.4-2.6,0.8-4.1,1.2c0,0.5,0.1,1.2,0.2,2C229.2,125.1,232.3,124.2,235,126.8z M230.9,140.8
				c1.4-4.5,2.7-9,4-13.5c-2.9-1.4-5.8-2.1-8.9-0.1c0.2,3.3,0.4,6.7,0.5,10c0.1,0.9,0,1.9,0,2.8c0,0.7,0.3,1,1,1
				c0.8,0,1.6,0.3,2.3,0.3C230.2,141.4,230.8,141.1,230.9,140.8z M225.7,140.8c0-1.3,0-2.3,0-3.3c-0.1-1.9-0.2-3.7-0.3-5.6
				c-0.1-1.5,0-3.1-0.2-4.6c-0.1-0.5-0.8-1.2-1.3-1.2c-2.3-0.3-4.4,0.1-6.2,1.7c-0.6,0.5-1.3,0.8-2,1.2c1.4,4,2.9,8.2,4.4,12.3
				c0.1,0,0.2-0.1,0.3-0.1c0-0.2,0-0.4,0.1-0.5c0.4-0.1,0.8-0.2,1.2-0.3c0.1,0.2,0.2,0.5,0.2,0.5c0.6-0.1,1.2-0.1,1.8-0.2
				c0.5-0.1,1-0.1,1.6-0.1c0-0.1,0-0.3,0-0.4C225.3,140.3,225.4,140.4,225.7,140.8z M225.3,184.1c0.1-0.2,0.2-0.4,0.3-0.6
				c-1.2-0.3-2.3-0.7-3.4-1c0.1-0.1,0.1-0.1,0.2-0.2c-0.2-0.2-0.5-0.5-0.7-0.5c-1.4,0.2-2.3-0.8-3.2-1.5c-1.8-1.2-3.5-2.4-5.3-3.7
				c-1.9-1.4-4-2.7-5.8-4.3c-1.4-1.3-2.5-3-3.8-4.6c-0.7-0.8-1.3-1.7-1.9-2.6c-0.8-1.4-1.6-2.9-2.3-4.4c-0.6-1.3-1.2-2.7-1.4-4.1
				c-0.1-1.7-1.2-3.4-0.3-5.2c0.3-0.5,0.2-1.3,0.1-2c0-0.2-0.6-0.4-0.9-0.4c-2.1,0.5-4.1,0.5-6-0.5c-1.2-0.7-2.4-1.4-3.7-2
				c-0.2-0.1-0.6,0.1-0.8,0.2c-1.4,1.4-2.9,2.7-4.2,4.3c-0.9,1.1-1.4,2.5-1.9,3.8c-0.5,1.2-0.7,2.4-1.2,3.6
				c-0.6,1.5-0.1,2.9,0.1,4.4c0.4,2.4,1.5,4.3,3.2,6c0.4,0.3,0.6,0.9,0.6,1.4c0.1,2.2,0.4,4.4,1.4,6.4c0.7,1.3,1.3,2.6,2.2,3.7
				c1.1,1.3,2.3,2.5,3.6,3.5c0.9,0.7,2.1,1,3.1,1.4c0.7,0.2,1.4,0.3,2.1,0.5c0.2,0.1,0.5,0.5,0.5,0.8c0.1,1.3,1.7,3.1,3,3.3
				c0.8,0.1,1.5,0.4,2.3,0.5c1.4,0.2,2.5-0.7,3.6-1.3c0.3-0.2,0.8-0.2,1,0c1.3,1.2,2.8,2,4.5,2.5c2.2,0.7,4.3,0.5,6.3-0.2
				c1.4-0.5,2.6-1.4,3.7-2.4C222.3,187.6,223.8,185.8,225.3,184.1z M225.1,124.2c0.1-0.8,0-1.3-1.1-1.3c-0.7,0-1.4-0.4-2.1-0.4
				c-2.3,0-4.2,0.9-5.9,2.3c-0.5,0.4-1,0.9-1.5,1.3c0.2,0.6,0.5,1.4,0.8,2.1c3-1.9,5.8-4.3,9.8-2.7
				C225.1,125,225.1,124.6,225.1,124.2z M225.1,122.1c-0.3-4.5-0.6-8.6-0.9-12.6c-0.8-0.2-1.2-0.5-1.6-0.4c-1.8,0.2-3.6,0.2-5.3,0.7
				c-1.1,0.3-2,1.5-3.1,2c-1.6,0.7-2.2,2.2-2.9,3.6c-0.1,0.3-0.2,0.8-0.1,1.1c0.9,3,1.9,5.9,2.9,8.8
				C217.3,122.3,220.7,120.7,225.1,122.1z M218.5,198.8c0.3-0.2,0.5-0.7,0.4-1c0-0.2-0.6-0.4-0.9-0.5c-0.2-0.1-0.4,0-0.6,0
				c-1.8,0.1-2.1-0.3-1.7-2.3c0.1-0.6,0.2-1.2,0.3-1.8c-1.1,0-2,0-3,0c-0.2,0-0.6,0.4-0.6,0.5c0.1,0.9,0.3,1.9,0.5,2.8
				c0.2,0.8,0.4,1.4-0.8,1.4c-2.4,0-4.8,0-7.2,0.2c-1,0.1-2.3-0.1-3,1.4c1.5,0,2.9,0,4.2,0c0.1,0.1,0.1,0.3,0.1,0.4
				c-0.7,0.3-1.4,0.6-2.1,1c-1.3,0.7-2.5,1.3-3.8,2c-0.2,0.1-0.3,0.6-0.4,0.8c0.3,0.1,0.5,0.3,0.8,0.3c2,0.2,3.5-1.1,5.2-2
				c0.6-0.3,1.1-0.7,1.6-1.1c0.1,0,0.1,0.1,0.1,0.1c-0.9,1-1.7,2.1-2.6,3.1c-0.3,0.4-0.6,0.9-0.8,1.3c-0.1,0.3-0.3,0.8-0.1,0.9
				c0.2,0.2,0.7,0.4,0.9,0.3c0.7-0.2,1.4-0.5,1.9-0.9c1.6-1.3,3-2.9,4.7-4.1c1.1-0.8,2.6-1.2,3.9-1.7
				C216.6,199.7,217.6,199.3,218.5,198.8z M218.6,140.7c0-0.3,0-0.6-0.1-0.9c-1-2.7-2-5.3-3-8c-0.2-0.6-0.2-1.2-0.5-1.7
				c-0.1-0.3-0.7-0.5-1-0.4c-2.3,0.4-4.3,1.6-5.5,3.7c-0.4,0.6-0.5,1.3-0.8,2c-0.1,0.2-0.3,0.4-0.5,0.7c1.2,1.8,2.4,3.6,3.7,5.4
				c0.1,0.2,0.7,0.2,1.1,0.2c0.6,0,1.3-0.2,1.9-0.3c1-0.2,1.9-0.4,2.9-0.6c0.3-0.1,0.7-0.1,1-0.1
				C218.1,140.6,218.3,140.7,218.6,140.7z M214.4,128.9c-0.1-0.5-0.3-1.3-0.4-2.1c-1.8-0.2-3.6,0.5-5.2,1.9c-1.5,1.3-2.7,2.8-3,5.1
				c0.1,0.1,0.4,0.2,0.7,0.5c0,0.1-0.1,0.2-0.3,0.4c0.3,0.1,0.6,0.2,1,0.4c0.1-1.6,0.8-2.9,2.1-3.8c0.9-0.6,1.6-1.4,2.5-1.9
				C212.6,128.9,213.6,129,214.4,128.9z M213.4,125.9c-0.3-0.9-0.6-1.8-0.9-2.6c-0.7-2.1-1.4-4.2-2.1-6.3c-0.1-0.2-0.9-0.4-1.2-0.3
				c-0.8,0.4-1.4,1-2.1,1.5c-0.4,0.2-0.8,0.3-1.2,0.5c-0.1-0.1-0.2-0.2-0.3-0.3c-0.1,0.4-0.2,0.8-0.3,1.3c-0.1,2-0.1,4.1-0.4,6.1
				c-0.1,0.9-0.6,1.7-1,2.5c-0.4,0.8-1,1.6-0.1,2.5c0.5,0.5,0.8,1.1,1.2,1.7C206.7,128.9,209.1,126.2,213.4,125.9z M211.6,196.6
				c0.5-1-0.5-3.3-1.4-3.8c-1.5-0.7-2.8-1.7-4.3-2.2c-0.5-0.2-1.5,0.4-1.8,0.9c-0.5,0.7-0.6,1.7-0.9,2.7c1.6,0.2,2.5,0.8,2.6,2.3
				c0,0.3,0.7,0.7,1,0.7c1.4,0,2.8-0.1,4.2-0.2C211.3,196.9,211.6,196.8,211.6,196.6z M210.4,141.9c-1.2-1.7-2.3-3.2-3.6-4.8
				c-1.5,1.8-2.1,3.6-1.6,6C206.9,142.7,208.5,142.3,210.4,141.9z M205.8,136.8c0.7-0.9,0.3-1.6,0-2.4c-0.1-0.2-0.6-0.3-0.7-0.3
				c-0.7,0.8-1.3,1.6-2,2.4c0.1,0.1,0.2,0.1,0.3,0.2c-0.2,0.6-0.6,1.3-0.7,1.9c-0.3,1.6-0.4,3.2-0.6,4.8c0,0.1,0.4,0.5,0.4,0.5
				c0.4-0.3,1.1-0.6,1.2-1c0.4-1.3,0.5-2.7,0.9-4C204.9,138.1,205.3,137.3,205.8,136.8z M204.2,196.9c0.2-0.1,0.4-0.3,0.6-0.5
				c-0.2-0.2-0.4-0.6-0.7-0.7c-0.4-0.2-0.9-0.2-1.3-0.2c-0.7,0-0.9-0.3-0.8-0.9c0.1-0.7,0.2-1.3,0.5-1.9c0.3-0.7,0.2-1.1-0.6-1.1
				c-0.6,0-1.3-0.1-1.9-0.1c-0.2,0-0.5,0.4-0.5,0.6c-0.1,1.1,0.2,2.8-0.2,3c-1,0.5-2.4,0.3-3.6,0.2c-1.3-0.1-2.5-0.5-3.8-0.6
				c-0.6-0.1-1.2,0.3-1.8,0.4c0,0.2,0,0.3,0,0.5c1.2,0.2,2.4,0.5,3.9,0.8c-2.2,0.8-4.2,1.5-6.4,2.4c1.3,1.2,2.5,0.8,3.5,0.5
				c1-0.3,2-0.8,3.4-1.3c-0.4,0.5-0.5,0.7-0.7,0.9c-0.8,0.9-1.6,1.8-2.4,2.7c-0.1,0.1,0.4,0.7,0.4,0.7c1.1-0.5,2.3-1.1,3.4-1.7
				c1.3-0.7,2.6-1.5,4-2.1C200.8,197.9,202.5,197.4,204.2,196.9z M204.3,122.6c0-1.3-0.3-2.5-0.4-3.8c-0.1-0.8-0.1-1.6-0.4-2.3
				c-0.1-0.4-0.5-0.9-0.8-1.1c-1.4-0.9-2.8-1.6-4.2-2.5c-1.5-1-3.2-0.7-4.7-0.4c-2.6,0.5-5,1.6-6.2,4.3c-0.1,0.2,0.2,0.7,0.4,0.8
				c0.4,0.2,0.8,0.3,1.3,0.4c0.7,0.2,1.3,0.5,2,0.5c1.5,0.1,3,1.3,3.7,2.5c0.9,1.6-0.3,2.8-0.1,4.2c0.1,1.1,0.1,2.2,0.5,3.1
				c1,2,0.7,3.7-1.2,5c-0.1,0.1-0.2,0.2-0.3,0.3c-0.8,1.4-1.6,2.8-2.3,4.3c-0.7,1.5-1.3,3-1.9,4.5c-0.3,0.8-0.7,1.6-1,2.3
				c-0.5,1.3,0.5,1.9,1.3,2.2c1.6,0.7,3.4,1.1,5.1,1.6c0-0.1,0.1-0.3,0.1-0.4c1.6,0.1,3.1,0.1,4.4-1.1c1.2-1,1.3-2,0.6-3.3
				c-0.4-0.7-0.5-1.6-0.5-2.4c-0.1-1.6-0.2-3.2,0-4.7c0.2-1.6,0.8-3.2,1.4-4.7c0.6-1.3,1.5-2.5,2.1-3.8c0.4-0.8,0.4-1.6,0.6-2.5
				C203.9,124.6,204.3,123.6,204.3,122.6z M203.9,133.7c0.4-0.5,0.3-0.9,0-1.3c-0.4-0.5-0.7-1-1.1-1.5c-2.6,3.3-3.4,11.3-1.2,13.3
				c0.3-2.3-0.3-4.7,0.4-6.7c0.4-0.7,0.6-1,0.8-1.4c0,0-0.1,0-0.1,0C203,135.2,203.4,134.4,203.9,133.7z M192.6,132.9
				c1.1-0.1,2.2-0.8,2.2-1.8c-0.1-0.9-0.4-1.7-0.4-2.5c-0.1-2.2,0-4.4,0-6.6c0-1.3-0.9-2.4-2.2-2.3c-1.6,0.2-2.7-0.5-4-1.3
				c-0.3-0.2-1-0.1-1.2,0.1c-0.3,0.4-0.3,1-0.4,1.5c0,0.1,0.3,0.3,0.4,0.3c1.5-0.2,2.9-0.3,4.2,0.8c0.2,0.3,0.3,0.8,0.6,1.2
				c0.7,1,0.1,1.9,0,2.8c-0.2,1.6,0,3.2,0,4.8c0,0.5-0.1,0.9,0,1.4C191.7,132,191.2,133,192.6,132.9z M192.8,134.5
				c0.1-0.1-0.3-0.4-0.5-0.6c-0.8-0.4-1.4-0.8-1.4-1.9c0.1-2.1,0-4.3,0-6.5c-0.7,0.2-1.5,0.4-2.3,0.6c0,0,0,0.1,0,0.1
				c1.4,0.9,0.5,2.1,0.5,3.1c0,0.6,0.2,1.2,0.3,1.6c-0.1,1.1-0.4,2.1-0.3,3.1c0.1,0.5,0.7,1.3,1.2,1.4
				C191.3,135.9,192.3,135.6,192.8,134.5z M190.4,124.7c0.9-0.3,1.1-1.5,0.5-2.3c-0.9-1.2-2.1-1.3-3.4-1.2c-2.1,0.2-2.4,2-3.2,3.4
				c-0.1,0.1,0.4,0.6,0.7,0.7c0.4,0.1,0.9,0,1.3,0c0,0.1,0,0.1,0,0.2C187.6,125.2,189.1,125.1,190.4,124.7z"/>
			<path d="M197.1,116c1.1,0,2.1,1.4,1.8,3.1c-0.1,0.6-1.1,1.3-1.8,1.6c-0.9,0.3-1.9-1.1-1.9-2.2C195.2,117.4,196.2,116.1,197.1,116
				z M198.4,118.2c0-0.1,0-0.6-0.2-0.7c-0.4-0.3-1.2-0.8-1.4-0.6c-0.5,0.4-0.7,1.1-0.9,1.5C196.8,118.3,197.5,118.3,198.4,118.2z"/>
		</g>
		<g>
		</g>
	</g>
</g>
</svg>
