<?xml version="1.0" encoding="utf-8"?>
<!-- Generator: Adobe Illustrator 17.1.0, SVG Export Plug-In . SVG Version: 6.00 Build 0)  -->
<!DOCTYPE svg PUBLIC "-//W3C//DTD SVG 1.1//EN" "http://www.w3.org/Graphics/SVG/1.1/DTD/svg11.dtd">
<svg version="1.1" id="Layer_1" xmlns="http://www.w3.org/2000/svg" xmlns:xlink="http://www.w3.org/1999/xlink" x="0px" y="0px"
	 viewBox="0 0 288 216" enable-background="new 0 0 288 216" xml:space="preserve">
<g>
	<path d="M173,111.2c-1.7,2.9,0.8,8.2,4.9,9.9c-0.7,0.4-1.1,0.7-1.6,1c-0.3,0.2-0.6,0.2-0.9,0.4c-3.6,2.2-7.6,1.9-11.6,1.6
		c-0.4,0-0.8-0.5-1-0.9c-1.3-2.5-1.5-5.2-0.8-7.8c0.8-3.1,2-6.1,4.5-8.3c0.8-0.6,0.7-1.1,0-1.7c-1.1-1.2-2.1-2.6-3.3-3.9
		c-1.3-1.5-2.3-3.2-2.9-5.1c-0.2-0.8-0.7-1-1.5-1.2c-1.4-0.4-2.9-0.8-4-1.7c-2.3-1.9-2.2-5.2,0.1-7.4c0.3-0.3,0.7-0.6,1.1-1
		c-0.5-0.5-0.9-0.9-1.3-1.4c-1.6-2.1-1.2-4.9,1.2-6c1.6-0.8,3.5-1,5.3-1.6c0.5-0.2,1.1-0.4,1.3-0.8c1.6-3,3.9-5.3,6.8-7
		c0.7-0.4,0.9-0.8,0.8-1.7c-0.8-6.3,4.7-10,9-10.1c1.8,0,3.6,0.1,5.2,1.1c0.3,0.2,1,0.1,1.3-0.1c1.7-1,3.6-1.6,5.6-1.6
		c0.4,0,0.9-0.2,1.3-0.5c7.4-5,15.4-8.2,24.4-8.7c1.2-0.1,2.3,0.2,3.5,0.3c0,0.1,0,0.3,0,0.4c-0.5,0.1-1,0.3-1.5,0.3
		c-1.4,0.1-2.4,0.7-3.2,1.9c-0.9,1.4-0.5,2.9,1.2,3.3c2.7,0.6,5.4,1.1,8.1,1.6c0.2,0,0.4,0.1,0.7,0.3c-0.4,0.1-0.7,0.2-1.1,0.2
		c-1.8,0-3.3,0.4-4.4,2c-0.6,0.9-0.7,2.1,0.5,2.6c2.2,0.9,4.4,1.6,6.7,2.3c0.4,0.1,0.8,0.1,1.4,0.1c-1.3,0.9-2.4,1.6-3.8,2.5
		c0.6,0.3,0.8,0.4,1.1,0.5c3,1,6,2.1,8.6,3.9c0.2,0.1,0.6,0.2,0.7,0.1c0.9-0.6,1.7-1.2,2.8-2c2.4,2.8,5.6,5,9.7,5.9
		c-0.1,0.2-0.2,0.3-0.2,0.5c-2.1,0.7-4.2,1.4-6.4,2.1c1.6,3.1,4.4,4.4,7.3,5.7c0.1-0.2,0.3-0.4,0.3-0.6c1.6-5,5.5-7.5,10.2-8.8
		c3.6-1,3-1.1,4.4,2.4c1.7,4.4,0.3,8.5-2,12.4c-0.1,0.2-0.3,0.4-0.4,0.6c-0.9,1-0.8,1.8,0.1,2.9c3.4,4,4,8.6,2.3,13.5
		c-0.5,1.3-1.1,2.7-1.8,3.9c-0.2,0.4-1.1,0.8-1.5,0.6c-1.7-0.4-3.6-0.7-5.1-1.6c-3.4-1.9-6.1-4.6-7.6-8.2c-0.3-0.8-0.7-1.2-1.6-0.9
		c-4.2,1.3-7.6,3.7-10.4,7.6c2.5-0.2,4.7-0.3,7.2-0.5c-0.9,1.4-1.6,2.4-2.3,3.5c-1.4,2.1-2.8,4.3-4.3,6.4c-0.2,0.3-0.7,0.6-1.1,0.6
		c-2.4-0.1-4.1-1.4-5.6-3.2c-0.7-0.9-1.2-0.8-2-0.2c-1.6,1.1-3.3,2-4.9,2.9c0.9,1.9,1.9,3.7,2.6,5.6c0.6,1.7,0.8,3.5-0.2,5.2
		c-0.2,0.3-0.4,0.6-0.6,0.7c-5.4,1.8-10.7,3.7-16.2,5.4c-1.7,0.5-3.6,0.5-5.3,0.7c-0.4,0-0.9-0.2-1.3-0.2c0.6-1.6,1.3-3,1.8-4.4
		c0.8-2.5,0.6-5,0.4-7.5c0-0.2-0.5-0.6-0.8-0.6c-2.9-0.2-5.8-0.3-8.6-0.4c-1.4-0.1-2.8-0.2-4.2-0.3c-4.3-0.3-7.9-2.2-11.6-4.1
		c-1.6-0.8-3.2-1.8-4.8-2.8C173.6,111.5,173.3,111.3,173,111.2z M242.9,72.5c-0.8-1.1-1.8-1-3.4,0.4c0.6,0.1,1,0.2,1.3,0.1
		C241.5,72.9,242.2,72.6,242.9,72.5c-0.8,0.4-1.6,0.8-2.4,1.2c0.6,0.9,3,0.6,4.4-0.7C244.2,72.8,243.5,72.6,242.9,72.5z
		 M208.5,107.1c0.7,0.2,1.1,0.4,1.5,0.5c3.6,1,7.1,2.2,9.9,4.7c0.9,0.8,1.6,0.8,2.6,0.3c5.2-2.8,9.8-6.2,13.7-10.7
		c1.8-2.1,3.6-4.5,6.8-4.9c1.8-0.2,3.6-0.9,5.3-1.5c0.5-0.2,1.1-0.5,1.3-0.9c2-3.5,1.8-7.2,0.9-11c-0.1-0.2-0.3-0.6-0.5-0.6
		c-1.3-0.5-2.6-0.9-4-1.4c0,0.3,0,0.5,0,0.8c-0.1,0.1-0.2,0.2-0.3,0.2c-1.6-1.8-3.4-3.5-4.7-5.5c-3.2-5-7.6-8.2-13.3-9.7
		c-4.2-1.1-8.4-1.9-12.7-2.9c-0.2-0.1-0.5,0-0.4,0c3.1,3.9,6.4,7.9,9.5,12c1.4,1.9,2.4,4.2,3.6,6.4c1.9-0.5,5-2.4,7.2-4.4
		c0.9-0.8,1.6-0.7,2,0.4c0.4,0.9,0.8,1.8,1,2.7c1.2,5.1,1.1,10.2,0,15.3c-0.1,0.4-0.4,0.8-0.7,1.4c-3-2.7-5.7-5.5-9.9-5.7
		c-0.1,0.2-0.2,0.3-0.2,0.5c-0.5,2.6-0.9,5.1-1.3,7.7c-0.5,3-2,5.4-4.2,7.5c0.2-0.7,0.4-1.3,0.7-2c0.6-1.4,1.5-2.8,1.9-4.3
		c1.3-5.1,1.1-10.4,1.3-15.6c0.2-4.8-1.8-8.5-4.9-11.9c-1.6-1.8-3.3-3.5-4.8-5.4c-2.3-2.8-4.9-5.3-8.3-6.8c-2-0.9-4.2-1.7-6.2-2.5
		c0.8,1.9,1.6,3.7,2.4,5.4c0.2,0.4,0.5,0.8,0.8,1.1c2.3,2.6,2.1,5.2,0.6,7.9c-0.1,0.2-0.4,0.3-0.7,0.5c0.3-5,0.3-5.6-0.7-6.6
		c-1.2,9.2-11.9,12.9-20.3,6.6c0.2,0.7,0.5,1.4,1,1.9c3.5,3.1,7.6,4.2,12.3,4c-0.6,1.1-1.5,1.1-2.5,1.1c-2.5,0.1-4.9-0.5-7.2-1.6
		c-4.2-1.9-6.5-5-6.3-9.8c0.1-1.4-0.4-2.8-0.6-4.2c-4.6-0.3-13.5,5.6-14.4,9.6c1.3,0,2.6-0.1,3.9,0c5.2,0.5,10,2.2,14.3,5.2
		c4.1,2.8,8.1,5.8,12.1,8.7c4,2.9,8.4,3.4,13.1,2.3c2.5-0.6,3.3-2.1,2.9-4.6c-0.2-1.2-0.8-1.4-1.8-1.4c-0.7,0-1.4,0-2.4,0
		c3-2.5,8.8,0.1,9.2,3.7c-1.1-0.9-2.1-1.7-3.3-2.7c-0.1,1.1,0,1.8-0.2,2.5c-1.4,4.2-3.9,7.3-8.5,8.3c-6,1.3-11.8,0.4-17.4-2
		c-4.7-2-9.5-3.5-14.8-3.2c-3.7,0.2-7.1,1.2-10.5,2.4c0.1,0.3,0.2,0.6,0.3,0.8c3.8,6.9,9,12.6,16.1,16.1c7.1,3.5,14.7,5.2,22.6,5.8
		c0.7,0,1.4,0,2.1,0c-0.3-2.6-1.1-4.3-2.6-5.6c-0.6,0.2-0.9,1.5-1.8,0.4c1.6-3.5,9.3-7.2,11.6-6.1c-0.3,0.2-0.5,0.3-0.7,0.4
		C209.4,106.7,209.1,106.8,208.5,107.1z M248.6,96.9c0,0.1,0,0.2,0,0.3c2.6,4.7,6.4,8,11.6,9.5c0.7,0.2,1.1-0.1,1.4-0.7
		c1.4-2.9,1.8-5.9,1.6-9.1c-0.2-2.3-1.2-4-2.6-5.7c-1.6-1.9-3.5-2.1-5.8-1.8c-0.5,0.1-1.1-0.2-1.7-0.3c0-0.1,0-0.3,0.1-0.4
		c1.2-0.1,2.5-0.2,3.7-0.4c0.9-0.2,1.9-0.5,2.4-1.1c3.7-3.8,4.5-8.4,3.2-13.5c-0.2-0.9-0.6-1.2-1.5-0.9c-2.9,0.9-5.5,2.3-7.8,4.2
		c-1.4,1.2-2.4,2.8-3.1,4.5c0.8,0.5,1.2,0.4,1.8-0.2c1.4-1.4,2.9-2.7,4.3-4c0.2-0.2,0.5-0.3,0.8-0.5c-0.2,0.5-0.5,0.8-0.8,1.1
		c-1.3,1.3-2.6,2.6-3.8,4c-0.3,0.4-0.4,1-0.6,1.5c0.1,0,0.2,0.1,0.4,0.1c2-2.2,4.5-3.8,7.3-4.8c-2.1,1.7-4.2,3.3-6.4,4.9
		c-1,0.8-1.1,1.6-0.2,2.7c1.9-1.5,3.8-3,6.6-3.8c-2.3,1.5-4.3,2.8-6.3,4.2c-0.3,0.2-0.6,0.6-0.6,0.9c-0.6,2.9,0,3.9,2.8,4.9
		c0.6,0.2,1.2,0.3,1.8,0.4c0.4,0.1,0.7,0.3,1,0.4c-2.2,0.5-4.1-0.1-6.1-1.2c-0.1,0.7-0.2,1.5,0.2,1.8c1.5,1.5,3.3,2.6,5.3,3.2
		c0.8,0.2,1.6,0.4,2.4,0.6c-3.4,0.5-6.2-0.7-8.6-3.2c-0.1,0.4-0.3,0.9-0.1,1.1c1.5,1.6,3,3.3,4.6,4.7c0.9,0.8,2.2,1.3,3.6,2.1
		c-4.7-0.2-6.8-3.4-8.9-6.6C249.8,96.2,249.2,96.6,248.6,96.9z M200.4,96.3c-0.4-0.1-0.9-0.2-1.3-0.3c-3.2-0.5-6.1-1.8-8.9-3.6
		c-2.1-1.3-4.2-2.6-6.4-3.8c-6.1-3.4-12.5-5.2-19.5-4.1c-2.7,0.4-5.4,1-7.6,2.7c-1.3,0.9-1.9,2.6-1.4,3.5c0.7,1.5,2.8,2.7,4.2,2.3
		c1.7-0.5,3.4-1.2,5.1-1.6c4.9-1,9.8-1.2,14.7-0.1c4.8,1,9.4,3,14,4.8C195.6,96.8,198,97.2,200.4,96.3z M205.7,94.2
		c-0.2,0-0.4-0.1-0.6-0.1c-2.3,0-4.5-0.5-6.6-1.5c-4.1-1.9-7.7-4.7-11.2-7.6c-4.4-3.7-9.4-6.1-15-7.3c-5-1.1-9.8-0.5-14.6,1
		c-2,0.6-2.3,2.3-1,3.9c0.9,1.1,2,1.6,3.4,1c0.5-0.2,1.1-0.3,1.6-0.5c5.1-1.3,10.1-0.9,15,0.7c4.9,1.6,9.2,4.3,13.7,6.7
		c2.9,1.5,5.7,3.4,9,4C201.5,95,203.6,95.1,205.7,94.2z M190.7,57.5c-1.7,0-2.4,0.3-4.8,1.9c-3.2,2.1-4.6,6.9-3.1,10.5
		c1.2,2.9,3.8,4.2,6.5,5.4c3.8,1.6,7.3,0.5,10.1-1.9c3.3-2.9,3.2-8.2,1.2-11.6c-0.1-0.2-0.3-0.4-0.5-0.5
		C197.4,58.7,194.3,57.5,190.7,57.5z M218.1,126.4c2.1-0.1,2.8-0.8,2.3-2.8c-0.4-1.6-0.8-3.3-1.8-4.7c-2.6-3.8-5.9-6.7-10-8.9
		c-2.3-1.2-4.2-1.5-6.3,0.3c-0.5,0.5-0.6,0.7-0.2,1.2c0.7,1,1.5,1.9,2,3c0.6,1.2,1.4,2.5,1.5,3.9c0.4,3.9,0.3,7.8-1.5,11.4
		c0,0,0,0.1,0.1,0.3c1.1-0.3,2.3-0.4,3.3-0.8c0.3-0.1,0.7-0.7,0.7-1.1c0.3-4,0.2-7.9-1.8-11.5c-0.8-1.5-1.4-3.1-2.1-4.6
		c-0.1-0.1,0-0.3,0-0.6c2.4,2.4,3.7,5.1,4.5,8.1c0.8,3,0.8,6.1,0.2,9.4c1.4-0.4,2.6-0.7,3.8-1c-0.1-1.4-0.2-2.6-0.4-3.9
		c-0.8-4.5-2.9-8.5-6.1-11.8c-0.5-0.5-0.9-1.1-1.4-1.7c0.1-0.1,0.3-0.2,0.4-0.2c5.7,4.3,8.7,9.9,8.2,17.4c0.8-0.2,1.5-0.5,2.3-0.7
		c0.9-0.2,1.2-0.6,1-1.5c-0.1-0.4-0.1-0.8-0.2-1.2c-0.9-4-3.3-7.2-5.9-10.2c-1.4-1.7-2.9-3.3-3.8-4.3
		C213.1,113.3,217.1,118.7,218.1,126.4z M194.4,56.2c1.1,0.5,2.2,0.8,3.1,1.4c1.8,1.2,3.9,0.9,5.8,1.3c0.3,0.1,0.6-0.1,0.9-0.2
		c2.9-1.6,6.1-2.3,9.2-3c1.6-0.4,3.1-0.7,4.9-1c-4.9-1.6-4.9-1.7-3.2-6.4C210.9,47.9,199.2,52.4,194.4,56.2z M164.8,117.3
		c-0.2-3.8,0.9-7.2,3.6-10c-0.3,0-0.5,0-0.7,0.2c-3.2,3.9-5.4,8.2-4.5,13.5c0.4,2.2,0.3,2.2,2.4,2.1c0.5,0,1.1,0,1.6-0.1
		c2.6-0.4,5.2-0.9,8.1-1.4c-3.3-3.4-5.4-6.8-4.3-11.4c-1.2,2.8-1.4,5.6-0.8,8.5c-0.2-0.1-0.3-0.3-0.4-0.5c-1.2-2.7-1-5.4,0.1-8.1
		c0.2-0.5,0.3-1,0.4-1.5c-0.1,0-0.2,0-0.3-0.1c-1.9,3.3-2.9,6.9-2.8,10.7c-1.1-3.8-0.3-7.4,1.5-10.8c-0.4,0.3-0.7,0.5-0.8,0.9
		c-0.9,2.1-1.8,4.3-2.7,6.4C165.2,116.3,165,116.8,164.8,117.3z M223.9,61.8c-0.7-0.3-1.2-0.3-1.6-0.5c-1-0.5-2.1-1-3-1.7
		c-1-0.8-1-1.7-0.1-2.7c0.3-0.4,0.7-0.8,1.1-1.3c-3,0-13.8,3.1-14.4,4.1C220.6,64.3,218.1,62.6,223.9,61.8z M234.4,87.3
		c0,0.1,0,0.2,0.1,0.4c-1.9,1.2-4,1-6.1,1.2c-0.3,0-0.7,0.2-1,0.4c0.3,0.1,0.7,0.4,1,0.4c2.5-0.1,5,0.3,7.3,1.3
		c0.3,0.1,0.5,0.3,0.7,0.5c-0.5,0.1-0.9,0-1.2,0c-2.3-0.4-4.6-0.7-6.9-1c-0.3,0-0.6,0.3-0.9,0.4c0.3,0.2,0.5,0.5,0.8,0.5
		c2.8,0.4,5.4,1.5,7.7,3.2c0.3,0.2,0.6,0.4,1.1,0.7c0.5-3.9,0.4-7.6-0.2-11.3c-1.5,0.6-2.8,1.2-4.1,1.6c-1.6,0.4-3.2,0.6-4.8,1
		c-0.3,0.1-0.5,0.5-0.8,0.7c0.3,0.3,0.5,0.6,0.8,0.8c0.3,0.1,0.7,0,1.1,0C230.8,87.6,232.6,87.4,234.4,87.3z M206.2,108.3
		c0,0.1,0,0.2,0,0.3c0.2,0.1,0.4,0.2,0.6,0.3c4.7,1.1,8.4,3.8,11.6,7.4c1.6,1.8,2.7,3.9,2.8,6.4c0.1,0.9,0.1,1.7,0.2,2.6
		c1.7-0.3,2.4-0.8,2.3-1.8c-0.2-2.3-0.3-4.7-1.8-6.7c-3.7-4.9-9.1-6.8-14.6-8.5C207,108,206.6,108.2,206.2,108.3z M184.2,58.5
		c-3.2-1.2-6.2-1.3-8.9,0.6c-2.6,1.7-3.8,4.3-3.8,7.6c1.4-0.5,2.5-1,3.7-1.5c0.2-0.1,0.4-0.6,0.4-0.9c0.2-3.4,3-5.2,6.3-4.1
		c0.3,0.1,0.9-0.1,1.2-0.3C183.5,59.6,183.8,59.2,184.2,58.5z M238.4,108.2c-1.7-0.4-3.3-0.7-4.9-1c-0.3-0.1-0.8,0.1-1.1,0.3
		c-0.6,0.4-1,0.9-1.6,1.3c-0.8,0.7-0.9,1.5-0.1,2.1c1,0.8,2.1,1.4,3.3,2c0.3,0.2,0.9-0.2,1.6-0.4c-1.5-0.7-2.6-1.3-3.8-1.8
		c1.1,0.1,2,0.4,2.9,0.7c1.5,0.5,1.8,0.3,2.1-1.1c-1.5-0.4-2.9-0.7-4.4-1.1c0-0.1,0.1-0.2,0.1-0.3c1.4,0.2,2.7,0.4,4.1,0.6
		C237.6,109.5,238.2,109.1,238.4,108.2z M235.7,80c-0.2,0.1-0.5,0.3-0.7,0.4c-2.4,1.2-4.7,2.5-7.1,3.7c-0.4,0.2-0.6,0.7-0.9,1
		c0.4,0.1,0.9,0.4,1.3,0.4c1.9-0.4,3.8-0.7,5.6-1.3c3.3-0.9,3.1-0.4,2.1-4C236,80.2,235.9,80.2,235.7,80z M238.7,70.9
		c0,0.3,0,0.6,0,0.9c0.6,0,1.3,0,1.9-0.1c0.2,0,0.4-0.4,0.6-0.6c0,0-0.1-0.2-0.2-0.3c-1.1-1.3-1.9-1.3-3.3,0.1
		C238.2,70.9,238.6,70.9,238.7,70.9z M239.6,106.3c-0.8,0-1.6,0.1-2.3,0c-0.8-0.1-1.6-0.4-2.3-0.4c-0.4,0-0.8,0.4-1.3,0.6
		C235.3,107.3,238.7,107.1,239.6,106.3z M225.8,62.6c-1.4,0.2-2.9,0.4-4.3,0.6C223.9,64.5,224.2,64.5,225.8,62.6z M182.1,61.3
		c-1.1-0.3-1.8,0-2,0.8c-0.1,0.3,0.4,0.8,0.8,1.5C181.4,62.6,181.7,62.1,182.1,61.3z"/>
	<path d="M192.9,62.8c4.1,0,7.1,2.5,7,5.9c0,3.4-2.8,5.8-5.9,5.8c-3.8,0-6.5-2.8-6.5-6.7C187.5,65.1,189.9,62.8,192.9,62.8z
		 M195.9,69.6c1.4,0,2-0.5,2-1.7c-0.1-1.5-1.2-2.5-2.7-2.5c-1.1,0-1.7,0.7-1.7,1.9C193.5,68.7,194.6,69.6,195.9,69.6z"/>
</g>
<g>
	<path d="M142.8,58.1c-1.2,6.9,0.1,15.6,6.7,20.3c-2.5,0.5-4.7,0.1-6.8-0.7c-5.3-2-7.6-6.4-8.7-11.6c-0.5-2.3-0.6-4.7-0.7-7.1
		c-0.1-1-0.3-1.3-1.3-1.6C120.8,54,114,46.6,112.2,35c-1.1-7,1-13.4,5.4-19c6-7.6,14.1-10.5,23.6-10.7c10.5-0.3,22.3,8,25.6,18.1
		c1.3,3.9,1.5,7.8,0.9,11.9c-0.5,4.1-1.4,8.1-3.4,11.7c-3.2,5.7-8.5,8.4-14.5,10.1C147.6,57.7,145.2,57.8,142.8,58.1z M146.7,77.6
		c-1.2-1.3-2.2-2.3-3-3.4c-3.5-4.8-3.8-10.4-3.6-16c0-1.1,0.7-1.7,2.1-1.7c2,0,4,0.1,5.9-0.4c4.5-1,8.6-3,11.7-6.7
		c3.5-4.2,5.1-9,5.7-14.4c0.9-9.6-1.8-17.6-9.7-23.3c-5.9-4.3-12.5-6.2-19.8-4.3c-7.2,1.9-13,5.9-17.6,11.7
		c-3.7,4.7-5.2,10.1-4.5,16c0.7,5.3,2.8,10,6.4,13.9c3.5,3.8,7.7,6.6,12.9,7.5c1.2,0.2,1.8,0.7,1.8,2c0,2.3,0,4.5,0.3,6.8
		C136.3,71.3,139.5,76.6,146.7,77.6z"/>
	<path d="M145.6,41c-2.7,0.3-5.3,0.7-8,0.8c-2.9,0.1-4-1.1-4.4-4c-0.4-2.7-0.4-5.2,0.3-7.9c0.7-2.4,2-4,4.3-4.8c1-0.4,2.1-0.8,3-1.4
		c1.3-0.7,1.8-1.9,1.3-3.3c-0.6-1.5-2-1.2-3-0.9c-2.6,0.9-5.4,1.8-6.2,5.1c-0.3,1.1-1,1.1-1.8,0.5c-1.2-1.1-2.5-2.1-3.3-3.3
		c-0.4-0.6-0.3-2.1,0.1-2.7c2.7-3.7,6-6.9,10.6-7.9c6.1-1.3,12,1,13.6,6.9c0.9,3.2-0.1,6-2.6,8c-3.9,3.1-4.9,7-4,11.6
		C145.6,38.7,145.5,39.8,145.6,41z M143.8,40.3c0-2.6-0.1-5.2,0-7.8c0.2-2.9,2-5.1,4.2-6.9c4.2-3.3,3.6-9.2,0.4-11.7
		c-2.7-2-5.7-2.6-9-2c-4.1,0.9-7,3.6-9.5,6.7c-1.7,2-1.1,3.6,1.4,4.7c1.6-3.1,5.1-5.4,8.6-5.4c2.7,0,4.5,1.8,3.7,4.3
		c-0.3,1.1-1.6,2.1-2.6,2.9c-1.4,1.1-3.2,1.7-4.3,3c-2.9,3.4-2.6,7.4-1.5,11.4c0.1,0.4,0.8,0.8,1.2,0.8
		C139.1,40.4,141.6,40.3,143.8,40.3z"/>
	<path d="M144.8,49.2c-0.2,1.5-0.8,3.1-2.7,3.9c-2.3,1-4.4,0.5-6.4-0.9c-0.7-0.5-1.4-1.2-1.8-2c-1.6-2.7-0.4-5.1,3.1-6.2
		C141.5,42.8,144.9,44.8,144.8,49.2z M138.3,51.7c0.5,0,0.9,0,1.4,0c1.8-0.2,3.2-1.5,3.4-3.2c0.2-1.4-0.3-2.6-1.7-3
		c-1.3-0.3-2.8-0.4-4.1-0.1c-2,0.4-3,2.1-2.7,3.9C134.8,50.7,136.2,51.7,138.3,51.7z"/>
</g>
<g>
	<path d="M26.8,186.1c2.2-1.1,2.9-4.5,5.8-4.3c2.5-2.8,0.7-4.9-0.8-7.2c-0.3-0.5-0.6-1-0.9-1.5c-1.9-3.6-1.8-3.9,1.3-6.5
		c4.6-3.8,9.9-6.8,12.9-12.5c1-1.9,2.9-3.3,4.6-4.7c2.6-2.2,5.2-4.4,8-6.4c1.8-1.4,3.9-1.9,6.2-1c0.7,0.3,1.4,0.5,2.1,0.6
		c4.1,0.4,8.3,0.6,12.4,1.1c1.4,0.2,2.9,0.7,4,1.6c4.8,4.2,10.2,7.8,12.8,14.2c3.4-0.7,6.6-1.3,9.7-2c0.5-0.1,1.5-0.5,1.5-0.7
		c-0.1-2.1,1.6-3.1,2.3-4.6c1.5-2.9,3.6-6.3,0.9-10.1c-1.3-1.8-0.1-3.5,2.1-3.9c2.2-0.4,4.1,1.1,4.2,3.4c0.1,1.7-0.2,3.4-0.3,5.2
		c0.8-0.2,1.4-0.6,2.1-0.6c1.9-0.1,4.1-1.1,5.6,1c-2.2,0.1-4.4,0.2-6.6,0.3c-2.8,0.8-1.9-1.3-2-2.5c-0.1-1.3,0.2-2.8-0.2-4
		c-0.3-0.7-1.5-1.4-2.4-1.6c-1.9-0.3-2.6,0.8-1.7,2.5c1.3,2.6,1.4,5,0.2,7.7c-0.7,1.6-0.5,3.6-0.7,5.1c-0.5-0.2-1.3-0.7-2.1-1.1
		c-0.1,1-0.5,2-0.4,2.9c0.1,1.1,0.7,2.1,1,3.2c-0.1,0.1-0.2,0.2-0.3,0.2c-0.4-0.2-0.8-0.5-1.1-0.5c-3.6,0.8-7.2,1.6-10.8,2.5
		c5.4,16.7-2.9,30.2-12.7,36.1c-11.2,6.6-27.8,6.1-38.9-7.4c-0.4,0.2-1,0.3-1.2,0.7c-1.6,2.6-4.6,2.5-6.9,3.7
		c-0.5,0.3-1.3,0.3-1.8,0c-3.4-1.4-6.4-3.2-8-6.7C26.8,187.8,26.8,187,26.8,186.1z M41.8,179.2c2.9,12.4,14.6,21.2,28.2,21.1
		c11.7-0.1,22.9-9.4,25.7-21c3-12.5-3.1-24.5-9.6-28.3c0.3,5.9-0.9,11.1-7.1,13.4c-3,1.1-5.6-0.3-8.6-4.1c-0.6,0.8-1.1,1.5-1.7,2.3
		c-3.4,4-8.1,4.2-11.7,0.4c-3.6-3.9-4.1-8.5-3.3-13.7C44.4,154,39,167.5,41.8,179.2z M67.5,145.8c-2.9-4.5-8.7-4-11.4,0.6
		c-2.6,4.6-2.1,11.5,1.3,15.7c3.3,4,8.8,3.5,11.2-1.3c1-2,1.4-4.3,2.2-7C69.7,151.2,69,148.2,67.5,145.8z M70.9,157.6
		c-0.4,3.2,4.2,7.2,7.2,6c1.8-0.7,3.6-2,4.8-3.5c2.6-3.2,2.7-9.1,0.7-12.3c-1.7-2.7-4.4-3.8-7.1-3c-3,0.9-5.4,4-5.3,6.9
		c0,0.6,0,1.1,0,1.7c0.1,0,0.1,0,0.2,0C71.2,154.9,71.1,156.2,70.9,157.6z M39.5,180.3c-2.6,0.4-5.2,1.6-6.3,3.9
		c-0.9,2.1-0.5,4.8-0.7,7.5c-0.4-1-0.7-1.9-1.1-2.8c-0.4-0.9-0.9-1.9-1.5-2.7c-0.2-0.3-1-0.5-1.3-0.4c-0.4,0.3-0.7,0.9-0.7,1.4
		c-0.1,2.8,5.5,8,7.8,6.9c2.3-1.1,5.7-0.4,6.9-3.5c0.1-0.3,0.8-0.5,1.2-0.7C42.4,186.6,41,183.6,39.5,180.3z M39.6,164.1
		c-2,1.6-4,3.2-5.9,4.8c-0.2,0.2-0.7,0.6-0.6,0.7c0.9,2.2,1.8,4.5,3,6.6c0.4,0.7,1.6,0.8,2.7,1.3C39,172.7,39.3,168.5,39.6,164.1z
		 M67.9,144.4c1,1.7,1.8,3,2.6,4.5c1-1.2,2-2.4,3.3-3.9C71.8,144.8,70,144.6,67.9,144.4z M34.1,181.3c2-0.8,3.6-1.5,5.3-2.1
		C37.3,177.8,36.2,178.3,34.1,181.3z M32.1,183.6c-0.2-0.1-0.3-0.2-0.5-0.3c-0.3,0.6-0.7,1.2-1,1.8c0.3,0.1,0.5,0.2,0.8,0.3
		C31.6,184.8,31.8,184.2,32.1,183.6z"/>
	<path d="M108.7,159.9c2.4,2.1,2.8,2,3.5-0.8c0.7,0.5,1.3,0.9,2,1.3c0.3,0.2,0.6,0.3,0.6,0.3c0.2-1.4,0.4-2.8,0.6-4.2
		c0.1,0.9-0.1,2,0.3,2.6c0.8,0.9,1.9,1.9,3,2.1c1.1,0.1,2.5-0.6,3.4-1.3c1-0.8,0.6-1.6-0.8-1.9c-1.7-0.4-3.3-1.1-4.9-1.6
		c-0.3-0.1-0.7,0.2-1,0.3c-0.2-0.3-0.6-0.8-0.5-0.8c1.3-1.5,1.4-2.8,0.4-4.6c-0.8-1.4-0.4-2.7,1.6-3c-0.1,1.1-0.5,3.1-0.3,3.1
		c1.5,0.4,3.1,0.8,4.6,0.5c0.9-0.2,1.8-1.4,2.4-2.3c0.3-0.4,0.1-1.3,0.1-1.9c0.3,0.8,0.7,1.6,0.9,2.5c0.3,1,0.4,2,0.6,3
		c0,0.8,0,1.6,0,2.5c-0.6,1.1-1.6,2.1-1.8,3.2c-0.3,2.1-1.6,3.1-3.4,3.2c-2.4,0-4.8-0.4-7.7-0.7c-1.4,1.7-2.5,1.5-4-1.2
		C108.5,160.1,108.6,160,108.7,159.9z M123.7,155.9c0.5-0.6,0.5-1.9,0.4-2.8c0-0.3-1.4-0.5-2.1-0.5c-1,0-1.9,0.3-2.8,0.6
		c-0.7,0.2-1.4,0.7-2.1,1c0.5,0.8,0.8,1.7,1.5,2.3c0.5,0.4,1.3,0.4,2.3,0.6C121.7,156.8,123,156.7,123.7,155.9z"/>
	<path d="M55.5,142.9c2.9-1.6,5.4-2.9,8.3-4.4c-0.6-1-1.2-2.8-2-3c-1.1-0.2-2.7,0.6-3.7,1.4C56.3,138.2,55.2,140.1,55.5,142.9z"/>
	<path d="M78.5,136.9c-0.7,1-1.4,2.1-2.2,3.1c2.2,1.4,4.1,2.6,6.1,3.8C83.3,141.1,82.3,139.3,78.5,136.9z"/>
	<path d="M76.7,190.6c-6,3.2-14.4,1.5-19.6-3.7c-2.8-2.8-4.9-6-5.9-10c-1-3.8-2.5-7.5-3.8-11.3c-0.1-0.2-0.1-0.4-0.2-0.7
		c-0.7,0.1-1.2,0.2-2,0.4c1.4-1.8,2.6-2,4.3-1.1c-0.3,1.3-0.9,2.4-0.7,3.4c1.2,5,2.9,9.8,8.6,11.5c4.4,1.3,8.7,1.7,13.2,0.6
		c8.2-2,14.9-5.7,18.9-13.5c0.1-0.2,0.4-0.3,0.7-0.5c-1.7,5.9-6.1,9.6-11.1,12.5c0.5,2.4,1,4.7,1.5,7.1c1.3-0.8,2.4-1.3,2.8,0.5
		c0.1,0.6,0,1.3-0.1,2c-0.1,0-0.3,0-0.4,0c-0.3-0.6-0.6-1.1-0.8-1.7C80.2,187.7,78.7,189.5,76.7,190.6z M64.5,181.5
		c-0.2,2.5-0.4,5.1-0.6,7.6c0,0.4,0.2,1,0.4,1c2.3,0.4,4.6,0.7,6.9,1c0.2,0,0.7-0.7,0.7-1c-0.4-3-0.9-6.1-1.3-9.1
		C68.3,181.2,66.5,181.3,64.5,181.5z M71.8,180.6c0.5,3.5,1,6.9,1.6,10.4c0.8-0.3,1.4-0.4,2-0.7c4.1-1.8,4.5-2.7,3.6-7.1
		c-0.3-1.5-0.6-3-1-4.7C75.7,179.2,73.8,179.9,71.8,180.6z M62.6,189.3c0.2-2.6,0.4-5,0.6-7.6c-2-0.4-3.8-0.8-5.6-1.2
		C56.7,186,57.2,187,62.6,189.3z M52,177.4c1.3,2.4,2.3,4.4,3.5,6.7C57.6,180.1,54.8,179.1,52,177.4z"/>
	<path d="M58.8,154.5c1.1,1.5,2,2.6,2.9,3.7c0.7-1.1,2-2.1,1.9-3.1c-0.1-1.3-1.3-2.6-2-3.8C60.8,152.2,60,153.1,58.8,154.5z"/>
	<path d="M77.3,155c-1-1.3-1.7-2.2-2.4-3.2c-0.6,0.9-1.8,1.9-1.7,2.8c0.1,1.1,1.2,2.2,1.8,3.3C75.7,157,76.4,156.2,77.3,155z"/>
</g>
<g>
	<path d="M43.5,13c1.1,0.9,2.2,1.6,3.1,2.6c1.4,1.4,2.7,2.8,4,4.3c0.7,0.7,1.2,1.5,1.9,2.2C65,34.5,77.5,47,90,59.5
		c2.7,2.7,5.7,5.1,8.4,7.8c5.7,5.6,11.2,11.3,16.9,17c5.8,5.7,11.6,11.4,17.5,17c2.7,2.6,5.6,4.9,8.3,7.5c2.7,2.6,5.3,5.3,7.9,7.9
		c0.9,0.9,1.9,1.7,2.9,2.6c0.4,0.3,0.8,0.6,1,1c1.3,2.5,3.5,4,5.4,5.9c3,2.8,5.8,5.7,8.7,8.5c0.8,0.7,1.3,1.9,2.8,1.5
		c0.3-0.1,1,0.5,1.4,0.9c4.4,4.3,8.7,8.5,13,12.9c2.4,2.5,4.7,5.1,7.1,7.6c0.6,0.6,1.4,1,2.2,1.5c2.4,1.5,4.6,3.3,5.9,6
		c0.9,1.8,2.1,3.4,4.1,4.1c0.6,0.2,1,0.8,1.5,1.2c5.7,5.5,11.3,11,17,16.5c4.8,4.6,9.7,9.1,14.6,13.7c1,1,2,2,2.7,3.4
		c0.6,1.2,2,2.1,3,3.1c0,0.3,0,0.7,0,1c-1.1,1-2.1,2-3.3,3.1c-2.1-1.7-4.3-3.1-6.1-4.9c-10.1-9.9-20.1-20-30.1-30
		c-1.8-1.8-3.4-3.8-5.1-5.7c-0.4-0.5-1-0.9-1.6-1.1c-3.4-0.9-5.3-3.6-7.1-6.2c-0.7-1-1.2-1.3-2.1-0.9c-2.5,1.2-4.7,5.2-4.3,8.4
		c1.3-0.7,2.6-1.3,4.1-2c-0.5-0.9-1-1.5-1.3-2.2c-0.2-0.5-0.1-1.3,0.2-1.7c0.2-0.3,1.2-0.4,1.5-0.2c1.7,1.6,3.4,3.2,5,4.9
		c0.2,0.3,0.2,1.2-0.1,1.5c-0.4,0.4-1.2,0.7-1.7,0.6c-0.6-0.1-1.2-0.6-1.6-1c-0.9-0.9-1.7-0.7-2.6-0.2c-0.1,0-0.1,0.1-0.2,0.1
		c-3.7,2.1-3.6,2.3-4.1,6.7c-0.2,2.1-1,4.1-1.7,6c-0.6,1.6-1.7,1.9-3.4,1.6c-2-0.3-3.4-1.2-4.3-3.1c-0.7-1.5-1.8-2.9-2.8-4.3
		c-0.2,0-0.4-0.1-0.5,0c-2.2,1.8-2.4,1.8-4.9,0.3c-2.7-1.6-5.6-3-7.7-5.5c-0.6-0.7-1-1.3,0.3-2c1.6,2,4.8,1.8,6.5,4
		c-0.7-0.9-1.4-1.7-2.1-2.6c0.5-0.7,0.9-1.2,1.5-2c-0.7-0.9-1.5-1.8-2.3-2.8c-0.9,0.7-1.6,1.3-2.3,1.9c-1.5-1.6-1.7-2.5-0.6-3.8
		c1.8-2,3.7-3.9,5.7-5.6c1.1-0.9,2.5-0.6,4,0.6c-0.5,0.7-1.1,1.3-1.8,2.3c0.9,1.1,1.8,2.2,2.8,3.4c0.8-0.5,1.4-0.9,1.9-1.3
		c0.1-1.1,0.2-2.2,0.3-3.5c0,0-0.2-0.2-0.4-0.4c-1.1-1.1-3-0.8-3.7-2.8c-0.4-1.2-2.3-1.9-3.5-2.8c-1.3-1-2.6-1.9-3.9-2.9
		c-5-3.7-9.2-8.2-13.1-13c-5.7-7-10.3-14.6-14.3-22.6c-0.3-0.6-0.6-1.1-1-1.8c-0.7,0.5-1.2,1.2-1.9,1.5c-0.7,0.3-1.6,0.3-2.6,0.4
		c0.1-1.9,1.8-2.5,2.8-3.7c-1.9-1.1-3.6-2.1-5.3-3.1c-9.7-5.6-18.9-12.1-26.7-20.3c-4.5-4.8-8.3-10-10.3-16.4
		c-0.1-0.3-0.2-0.6-0.3-0.9c-1.1,0.6-2.2,1.1-3.4,1.7c-0.1-1.8,1-2.4,1.9-3.4c-2-0.8-3.9-1.6-5.8-2.4c-5.6-2.3-10.6-5.7-15-9.8
		c-10.1-9.2-16.6-20.7-21-33.5c-0.2-0.7-0.5-1.3-0.8-2.1c-5.4,4.1-9.6,9-12.9,14.6c-2.4,4.2-4.3,8.6-5.1,13.4
		c-0.8,4.9-0.8,9.9,0.2,14.8c1.5,6.9,4.1,13.2,8.7,18.6c2.2,2.6,4.8,4.8,7.5,7c3.7,3,7.6,5.8,11.4,8.7c4.6,3.5,8,8,11.1,12.9
		c3.8,6,6.6,12.5,7.8,19.6c0.6,3.4,0.4,6.8,0.1,10.2c0,0.4-0.3,0.7-0.7,1.6c-0.2-0.9-0.4-1.3-0.3-1.7c1.1-5.3,0.2-10.4-1.4-15.4
		c-2.4-7.8-6.4-14.7-11.7-20.9c-3.7-4.4-8.3-7.7-12.9-11.1c-3-2.2-6-4.5-8.7-7c-6-5.3-9.2-12.3-11.3-19.9c-0.6-2.1-0.9-4.2-1.4-6.4
		c0-2.9,0-5.9,0-8.8c0.1-0.3,0.3-0.6,0.3-0.9c0.7-2.7,1.1-5.4,2.1-8c3.1-8.4,8.4-15.3,14.9-20.8c0.1-0.8-0.1-1.5,0.2-1.8
		c0.9-1.1,2.1-1.7,3.5-2c0.7-0.1,1.5-0.3,2.5-0.6c-1.2-1.4-2.1-2.5-3-3.7c-0.4-0.6-0.7-1.2-1-1.9C42.6,13,43,13,43.5,13z M90,67.6
		c-0.7,0.8-1.2,1.8-2,2.4c-0.9,0.8-0.9,1.5-0.6,2.6c1.1,3.5,2.8,6.8,4.9,9.7c3.9,5.5,8.7,10.3,14.1,14.4c5,3.8,10.3,7.3,15.6,10.8
		c2.5,1.6,5.2,3,7.8,4.4c0-0.2,0-0.3,0.1-0.5c1.2-0.3,2.5-0.5,3.7-0.8c-0.6,0.9-1.3,1.9-1.9,2.9c0.2,0.4,0.3,0.9,0.5,1.4
		c0.2,0.6,0.5,1.2,0.8,1.8c6.3,12.6,14.1,24,24.9,33.1c2.5,2.1,5.4,3.9,8.1,5.8c0.4,0.3,1.2,0.3,1.8,0.2c2.1-0.3,2.8-0.2,3.3,1.8
		c1,3.2,2.8,5.8,4.8,8.4c1.9,2.5,2.7,2.6,0,5.5c-0.1,0.1,0,0.3,0,0.5c0.2,0.1,0.4,0.2,0.7,0.2c2.3,0.6,2.6,0.5,3.3-1.8
		c0.2-0.8,0.4-1.6,0.5-2.4c0.4-2.5,2.2-4.1,3.6-6c1.2-1.6,1.1-2.9-0.3-4.3c-1-1-2.2-1.7-3.1-2.7c-4.4-4.6-8.8-9.4-13.2-14
		c-0.9-1-1.3-1.9-0.7-3.4c-9.5-8.8-18.9-17.5-28.3-26.2c-0.8-0.7-1.9-1.1-2.9-1.7c-0.4-3.1-2.6-5.2-4.6-7.2
		c-11.1-11.1-22.3-22-33.4-33c-1.9-1.9-3.7-3.3-6.4-2.3c0.7-0.5,1.4-1,2.2-1.5c-1.6-1.8-3-3.8-4.7-5.5C76.6,48.4,64.9,36.6,53,24.9
		c-1.8-1.8-3.8-3.3-5.6-5c-0.7-0.7-1.5-0.6-2.3-0.3c-1.8,0.8-2.4,1.9-1.7,3.9c1.2,3.2,2.3,6.4,3.7,9.5c4.7,10.5,11.1,19.6,20.1,26.9
		c5,4,10.6,6.9,16.6,9c1.1,0.4,2.1,0.5,3.2-0.3C87.9,68,89.1,67.9,90,67.6z"/>
</g>
</svg>
