<?xml version="1.0" encoding="utf-8"?>
<!-- Generator: Adobe Illustrator 17.1.0, SVG Export Plug-In . SVG Version: 6.00 Build 0)  -->
<!DOCTYPE svg PUBLIC "-//W3C//DTD SVG 1.1//EN" "http://www.w3.org/Graphics/SVG/1.1/DTD/svg11.dtd">
<svg version="1.1" id="Layer_1" xmlns="http://www.w3.org/2000/svg" xmlns:xlink="http://www.w3.org/1999/xlink" x="0px" y="0px"
	 viewBox="0 0 288 216" enable-background="new 0 0 288 216" xml:space="preserve">
<g>
	<path d="M45.6,159.4c-0.3-2.1-0.5-4.1-0.8-6.2c-0.1-0.7-0.5-1.4-0.9-2.1c-0.3-0.6-0.2-1,0.4-1.2c2.2-0.9,4.4-1.1,6.5,0.3
		c0.9,0.6,1.2,1.6,0.8,2.7c-0.9,2.6-2.1,5-3.9,7.1c0,0.1-0.1,0.1-0.2,0.4c3.2-2.3,6.6-3.7,10.2-4.7c3.6-1,7.3-1.5,11.1-1.5
		c0-0.9,0-1.7-0.1-2.5c-0.2-2,1.8-3.3,3.7-3c1.2,0.2,1.3,0.1,1.3-1.1c0-0.7,0.2-1.5-0.1-2c-0.3-0.5-1.1-0.6-1.8-0.8
		c-3.3-1.3-6.6-2.7-9.6-4.7c-2.3-1.5-4.3-3.2-5.5-5.7c-0.8-1.6-1.5-3.2-1.9-4.9c-0.6-2.3-0.6-4.7-0.1-7c0.3-1.5,0.8-2.9,1.2-4.3
		c0.1-0.2,0.1-0.6-0.1-0.8c-1.3-1.2-2.7-2.3-4.1-3.5c-0.8-0.7-1.7-1.3-2.6-2c-0.9,0.9-1.2,2-1.5,3.1c-0.3,1.3-0.2,1.4-1.5,1.4
		c-2.8,0-4.7,1.6-6.4,3.6C39,121,39,121.1,38,120c-2-2.1-3-4.7-3.5-7.6c-0.4-2.4-0.1-4.7,1.1-6.9c0.3-0.5,0.1-0.7-0.3-1
		c-1.2-0.5-2.4-1.1-3.5-1.7c-0.4-0.2-0.7-0.5-1.2-0.8c1.4-0.7,2.6-0.4,3.8-0.2c0.9,0.2,1.7,0.6,2.6,0.7c0.5,0,1.2-0.3,1.6-0.6
		c0.9-0.6,1.6-1.5,2.4-2.1c1.7-1.3,3.8-1.8,6-2c2.9-0.3,5.7,0.1,8.4,1.5c1.2,0.6,1.2,0.8,0.6,2c-1,1.8-2,3.7-1.8,5.7
		c-1.1,0.7-2,1.3-3.1,2c1.5,0.9,2.8,1.7,4,2.6c1,0.7,2,1.3,3,2.1c0.4,0.3,0.6,0.4,1,0c2.9-2.8,6.4-4.2,10.4-4.6
		c1.3-0.1,2.7-0.1,4-0.1c0.1,0,0.2,0,0.3-0.1c1.4-0.6,2.5,0.1,3.7,0.8c2.2,1.4,4.5,2.8,6.7,4.2c3.4,2.2,6.6,4.8,9.3,7.9
		c1.8,2.1,3.2,4.4,4.7,6.7c1.2,1.8,2.3,3.6,3.3,5.5c1.9,3.7,3.2,7.7,4,11.8c0.2,0.9,0.1,1.9,0,2.8c0,0.3-0.4,0.7-0.7,0.8
		c-1.5,0.5-3.1,1-4.7,1.3c-3.6,0.7-7.1,0.4-10.7-0.4c-3.1-0.7-5.8-1.9-8.5-3.6c-0.8-0.5-2-0.3-2.8-0.4c-0.2,1.7-0.3,3.2-0.4,4.7
		c0,0.4,0.1,0.9,0.4,1.2c1.3,1.5,2.3,3.2,2.8,5.2c0.5,2-1,4.4-3.1,4.7c-0.5,0.1-1.1-0.1-1.7-0.1c0,0.3-0.1,0.5,0,0.7
		c0.2,3.3-0.6,6.5-1.8,9.5c-1.2,3.1-2.9,6-5.2,8.5c-0.3,0.4-0.9,0.5-1.4,0.8c-0.1-0.1-0.1-0.2-0.2-0.2c-0.4,0.5-0.7,1-1.1,1.5
		c2.4-0.1,4.5-1.1,6.6-2c3.5-1.5,6.8-3.5,10.4-4.5c3.2-0.9,6.5-1.4,9.8-0.5c2.7,0.7,5.2,1.9,7.1,4c1.4,1.6,1.3,3.3-0.2,4.9
		c-1.4,1.5-3.2,2.5-5.1,3.1c-2.6,0.8-5.3,1.5-8,2.1c-1.8,0.4-3.6,0.5-5.5,0.6c-1.6,0.1-3.2,0.2-4.8,0.2c-2.8-0.1-5.5-0.2-8.3-0.4
		c-2.3-0.2-4.6-0.4-6.9-0.7c-0.8-0.1-1.5-0.4-2.3-0.7c-0.6,2.1-2.4,3.3-3.9,4.8c-2.3,2.2-5.1,3.6-7.9,4.9c-3.5,1.7-7.2,3-11.1,3.5
		c-2,0.3-4,0.5-6,0.4c-3.3-0.2-6.5-0.9-9.2-2.8c-1.6-1.1-2.8-2.6-2.9-4.6c-0.1-2.1,0.6-4,2-5.5c2.8-3,6.2-4.5,10.3-4.1
		c2.9,0.3,5.7,0.9,8.6,1.3c2,0.3,3.9,0.6,5.9,0.8c1.7,0.2,3.3,0.2,5,0.3c0.1,0.6-0.2,0.7-0.7,0.7c-3,0.1-6-0.3-9-0.8
		c-2.5-0.4-4.9-1.3-7.5-1.2c-1.4,0-2.7-0.4-4.1-0.3c-3.5,0.3-6.7,1.5-8.7,4.6c-1.2,1.9-2,4.1-0.6,6.3c0.6,0.9,1.4,1.7,2.3,2.2
		c2.4,1.4,5,2.1,7.9,2.3c3.7,0.2,7.4-0.2,10.9-1.1c3.9-1,7.6-2.6,11-4.8c2-1.3,3.8-2.8,5.6-4.3c0.7-0.6,1-1.5,1.5-2.3
		c0.1-0.3,0-0.7,0-1c-0.1-0.1-0.2-0.1-0.3-0.2c-0.4,0.4-1,0.7-1.3,1.1c-0.5,0.7-1.3,1.1-2,1.1c-1.5,0.1-2.8,0-3.9-1.3
		c-1.3-1.6-2.1-3.3-2.8-5.3c-0.9,0.5-1.3-0.2-1.6-0.8c-2-3.8-3.4-7.7-3.7-12c-0.2-2.2,0.2-4.2,1-6.1c0.2-0.6,0.6-1.1,0.8-1.9
		c-1.2,0.3-2.4,0.6-3.5,1.1c-2.2,0.9-4.2,2.1-5.9,3.8c-0.3,0.3-0.5,0.8-0.8,1.1c-0.3,0.3-0.6,0.5-0.9,0.6c-0.2,0-0.5-0.5-0.6-0.8
		c-0.6-2.1-0.5-4.2,0.3-6.2c0.1-0.4,0.5-0.7,0.8-0.9c1.7-1.1,3.6-1.6,5.6-1.6c1.8,0,3.5,0.6,5.2,1.6c-2.2-2.6-4.7-4.1-8-4.2
		c-1,0-2.1,0.1-3.1,0.2c-0.8,0-0.9-0.3-0.7-1c0.6-2.1,1.8-3.7,3.4-5.1c0.9-0.8,2-0.8,3.1-0.1c2.6,1.6,4.4,3.9,5.3,6.8
		c0.2,0.5,0.4,1,0.6,1.5C45.4,159.4,45.5,159.4,45.6,159.4z M82.2,132.7c0.1,0.1,0.2,0.2,0.2,0.3c-0.2,0.2-0.3,0.5-0.5,0.6
		c-0.4,0.2-0.9,0.4-1.4,0.5c-1.4,0.2-2.8,0.3-4.1,0.6c-0.3,0.1-0.9,0.5-0.9,0.8c0.2,4.7,2.5,8.2,6.2,10.9c1.8,1.3,3.9,2.1,6.1,2.7
		c1.5,0.4,3.1,0.8,4.7,0.9c2,0.2,4,0.2,6,0c1.9-0.2,3.7-0.7,5.5-1.1c0.5-0.1,0.8-0.5,0.8-1.1c0.1-2.5-0.6-4.8-1.4-7.1
		c-1.3-4.3-3.4-8.2-5.8-12c-3.2-5.1-7.1-9.5-12-12.9c-2.2-1.6-4.6-3-6.9-4.4c-1.1-0.7-2.2-1.3-3.4-1.8c-0.9-0.4-1.7,0.1-1.8,1.1
		c0,0.2-0.2,0.5-0.3,0.7c-0.1,0-0.2-0.1-0.2-0.1c0-0.5,0-1-0.1-1.7c-2.1,0.3-4.2,0.3-6.2,0.8c-4,0.9-7.1,3.1-9.1,6.7
		c-1.2,2.1-1.9,4.3-2.2,6.7c-0.3,2.4-0.2,4.7,0.5,7c1,3.2,2.9,6,5.7,7.9c4,2.8,8.3,4.8,13,6.1c1.6,0.4,3.2,0.9,4.9,0.7
		c-3.9-4.7-3.9-5.6-4.6-10.6c-1.1,0.4-2.2,0.8-3.3,1.2c0-0.1-0.1-0.2-0.1-0.3c0.7-0.9,1.8-1.2,2.8-1.4c2-0.4,4.1-0.7,6.1-1.1
		C80.9,133.2,81.5,132.9,82.2,132.7z M64.9,177.6c0.1,0.1,0.2,0.1,0.4,0.2c-0.6,3.3-2.6,5.9-4.8,8.4c0.4,0,0.9,0,1.2-0.1
		c4.2-2.2,6-6.3,8-10.3c0.3,0.9-0.2,1.7-0.6,2.4c-0.4,0.8-0.8,1.7-1.2,2.5c0.1,0,0.1,0.1,0.2,0.1c0.3-0.3,0.6-0.7,0.9-1
		c0.4-0.5,0.8-1,1.2-1.6c3.4-4.8,5.3-10,5.1-16c0-0.3-0.2-0.6-0.5-0.7c-1.9-1.1-3.6-2.5-4.5-4.5c-0.7-1.5-1.5-2.2-3.3-1.8
		c-1.5,0.3-3.2,0.1-4.7,0.4c-4.5,0.9-8.9,2-12.8,4.4c-1.6,1-3.2,2-4.4,3.6c-2,2.7-2,5.9-1.5,9c0.4,2.3,1.2,4.5,1.9,6.7
		c0.4,1.3,1.1,2.6,1.7,3.8c0.1,0,0.2,0,0.3-0.1c0.1-0.4,0.2-0.8,0.1-1.2c-0.1-1.6-0.2-3.3-0.3-4.9c0-0.2,0.2-0.5,0.3-0.7
		c0.3,0.3,0.3,0.5,0.3,0.7c-0.1,2.7,0.3,5.3,1.1,7.8c0.4,1.2,0.9,2.4,2,3.3c0.2-0.3,0.3-0.5,0.4-0.7c0.3-1.3,0.6-2.7,0.7-4
		c0.1-1.1-0.2-2.2-0.3-3.4c0-0.4,0-0.9,0.1-1.3c0.3,0.1,0.5,0.2,0.5,0.3c0.3,1.7,0.4,3.3,0.8,5c0.3,1.3,0.6,2.5,1.1,3.7
		c0.3,0.8,0.8,0.8,1.2,0c0.2-0.5,0.4-1,0.5-1.5c0.3-0.9,0.5-1.7,0.7-2.6c0.1,0,0.2,0,0.3,0c0,0.3,0.1,0.5,0,0.8
		c-0.1,0.7-0.4,1.3-0.5,2c-0.1,0.4,0.2,0.8,0.2,1.2c0.3-0.1,0.6-0.1,0.9-0.2c0.2-0.1,0.5-0.2,0.7-0.4c2.6-2.4,4.9-5.1,6.1-8.5
		C64.6,178.3,64.8,177.9,64.9,177.6z M58.6,187.5c0.6,1,1.4,1.3,2.2,1.4c2.1,0.3,4.2,0.6,6.3,0.7c3,0.2,6,0.3,9,0.4c1,0,2-0.1,3-0.2
		c1-0.1,2.1-0.1,3.1-0.2c3.3-0.2,6.5-0.7,9.7-1.6c2.7-0.8,5.4-1.8,7.5-3.8c1.5-1.4,1.2-3-0.2-4.2c-1.4-1.3-3-2.2-4.8-2.8
		c-4-1.3-7.9-0.9-11.8,0.2c-3.7,1-7,3.2-10.6,4.6c-1.6,0.6-3.2,1-4.8,1.6c-0.8,0.3-1.7-0.2-2.4,0.7c-0.4,0.5-0.9,0.9-1.4,1.3
		c-1,0.7-2,2-3.5,1c0,0-0.2,0.2-0.4,0.3c2.4,1.3,4.8-0.2,5.5-2.3c0.1,0.3,0.3,0.7,0.2,1c-0.8,2-3.8,3.5-5.8,2.2
		C59.3,187.6,59.1,187.6,58.6,187.5z M73.4,149.6c-0.3,0-0.5-0.1-0.8-0.1c-2.2-0.5-3.5,0.4-3.4,2.7c0,2,0.9,3.7,2.1,5.2
		c1.4,1.8,3,3.3,5.3,3.7c1.8,0.3,3.7-1.4,3.5-3.3c-0.3-1.9-1.3-3.5-2.6-4.9c-0.3-0.4-0.5-0.2-0.7,0.2c-0.3,0.7-0.7,1.5-1.1,2.3
		c0.4,0,0.8,0,1.1,0c0.1,0.8-0.3,1.1-1,0.8c-1.6-0.5-2.6-1.7-3.4-3.1c-0.3-0.4-0.3-1-0.4-1.5C72.8,151.6,73,151.3,73.4,149.6z
		 M40.9,112.9c0.4-4.8,2.1-8.4,7.4-9.4c-1.8-1.4-3.8-1.5-5.6-1.4c-1.3,0-2.7,0.5-3.9,1c-1.7,0.7-2.3,0.9-2.1,3c0,0.7,0,1.4,0.2,2.1
		C37.4,110.4,38.8,111.9,40.9,112.9z M42.7,108.1c-0.7,1.2-1.2,2.4-1,3.7c0.1,1-0.2,1.9-1,2.5c-0.2,0.1-0.3,0.3-0.4,0.4
		c-1.2,1.5-1.5,3.2-1.4,5.2c0.3-0.2,0.4-0.3,0.5-0.5c1.9-2.4,4.3-3.9,7.3-4.2c0.2,0,0.4-0.2,0.4-0.4c0.4-1.1,0.8-2.3,1.3-3.6
		C46.6,110.3,44.7,109.3,42.7,108.1z M44.5,105.7c1.9,0.9,3.7,1.9,5.6,2.7c0.2,0.1,0.6-0.1,0.8-0.2c0.7-0.5,1.4-0.9,2-1.5
		c0.2-0.2,0.4-0.5,0.5-0.8c0.5-1.5,1-3,1.5-4.4c0.1-0.4,0.2-0.7,0.4-1.1c-0.4-0.1-0.9-0.2-1.3-0.3c-0.2,0-0.5,0.1-0.7,0.1
		c-2,0.3-3.5,1.2-4.2,3.2c-0.2,0.5-0.3,0.7-0.8,0.7C47,104.5,45.7,104.8,44.5,105.7z M45.3,161.1c-0.4-1.2-0.8-2.3-1.3-3.5
		c-0.8-1.9-1.8-3.7-3.6-5c-2.7-1.8-2.9-2.1-5,0.3c-0.9,1-1.6,2.3-2,3.8C38.4,155.6,42.3,157.1,45.3,161.1z M46,161.3
		c0.1,0,0.1,0,0.2,0.1c0.8-1.1,1.5-2.2,2.3-3.4c1.2-1.8,2.2-3.5,2.7-5.7c0.2-0.9-0.2-1.3-0.8-1.7c-1.6-1-3.4-0.7-5.1-0.4
		c-0.7,0.1-0.9,0.4-0.5,1.1c0.9,1.7,1.3,3.6,1.3,5.5C46,158.3,46,159.8,46,161.3z M45.4,162.3c-0.3-0.2-0.3-0.3-0.4-0.3
		c-2.5-1-5-1.7-7.7-1.3c-2.1,0.4-3.7,1.6-4,3.4c-0.1,0.4-0.2,0.8-0.2,1.2c0,1.1,0.1,2.3,0.2,3.4c0.1,0,0.2,0,0.3,0
		c1.2-2.1,3.1-3.4,5.1-4.5C40.6,163.1,42.7,162.1,45.4,162.3z M56.5,117c0.5-0.7,1-1.2,1.4-1.8c0.2-0.3,0.4-0.6-0.1-0.9
		c-2.5-1.6-4.9-3.3-7.4-4.7c-2.1-1.2-4.3-2.2-6.6-3.3c-0.3,0.5-0.6,0.9-0.9,1.4C47.9,110.2,52.7,112.8,56.5,117z M38.1,119.2
		c0.3-2.2,0.6-4.2,2.3-5.4c-1.1-1.1-2.2-2.1-3.1-3.2c-0.9-1.2-1.3-2.6-1.3-4.3C33.6,109.6,35.7,117,38.1,119.2z M53.5,99.3
		c-4.2-1.9-11.1-0.7-13.8,2.4c3.1-0.9,6.1-0.9,8.8,0.9c0.7-0.7,1.4-1.6,2.2-2.1C51.6,100,52.6,99.7,53.5,99.3z M74.2,145.5
		c0,0.4,0,0.8,0,1.1c0.2,1.9-0.2,3.7-1.1,5.3c-0.4,0.8-0.2,1.4,0.3,1.9c0.4,0.4,0.7,0.8,1.2,1.4c0.5-0.6,0.8-1.1,1.1-1.6
		c1.3-2.2,1.4-4.6,1.3-7.1c0-0.2-0.3-0.6-0.6-0.6C75.9,145.8,75.1,145.7,74.2,145.5z M56.2,187.9c-0.2,0.2-0.3,0.4-0.4,0.5
		c-0.8,0.8-1.3,0.8-1.9-0.2c-0.6-1.1-1.1-2.3-1.5-3.3c0,0.2-0.1,0.7-0.1,1.1c-0.1,0.7-0.2,1.4-0.5,2c-0.3,0.7-0.1,1.1,0.5,1.1
		c1.1,0.1,2.2,0.1,3.3,0C56,189.1,56.5,188.8,56.2,187.9z M32.1,102.2c0,0.1,0,0.1,0,0.2c1.4,0.6,2.8,1.2,4.1,1.9
		c0.2-0.3,0.4-0.6,0.6-0.9C35.2,103,33.6,102.6,32.1,102.2z"/>
	<path d="M43.6,192.9c-2.2-2.5-4.8-4-7.7-5.3C37.4,187.1,43.5,191.1,43.6,192.9z"/>
	<path d="M45.4,191.5c-0.2,0-0.4,0-0.5-0.1c-1-1-2.3-1.5-3.6-2c-0.1-0.1-0.2-0.3-0.3-0.4c0.2-0.1,0.4-0.2,0.5-0.2
		c1.7,0.3,2.9,1.3,4.1,2.5C45.4,191.3,45.4,191.4,45.4,191.5z"/>
	<path d="M76.9,119.8c1.3,0.7,2.7,1.2,3.9,2.1c1.2,0.9,2.2,2.1,3.2,3.2c0.1,0.1,0.2,0.2,0.2,0.4c0,0.5,0.2,1.3-0.1,1.5
		c-0.3,0.3-1.1,0.3-1.5,0.1c-2.7-1.1-5-2.6-6.4-5.2c-0.2-0.4-0.2-1-0.1-1.5C76.2,120.2,76.6,120.1,76.9,119.8z"/>
	<path d="M80.4,116c0.8,0.3,1.6,0.5,2.3,1c1.7,1,3.4,1.9,4.5,3.5c0.1,0.2,0.4,0.4,0.4,0.6c0.1,0.5,0.2,1.2,0,1.6
		c-0.4,0.6-1,0.2-1.5,0c-2.2-0.8-4.2-2-5.7-3.8c-0.4-0.4-0.7-1-0.9-1.5C79.2,116.6,79.6,116.1,80.4,116z"/>
	<path d="M70.9,122c-1.3-1.9-2.2-4-2.1-6.4c0.1-1.2,0.7-2,1.8-2.2c0.2,0,0.5,0.2,0.8,0.3c-0.2,0.2-0.4,0.4-0.6,0.5
		c-1.2,0.3-1.8,1-1.4,2.3c0.4,1.3,0.8,2.7,1.2,4c0.1,0.3,0.4,0.6,0.6,0.9c0.1,0.2,0.1,0.5,0.2,0.7C71.1,122,71,122,70.9,122z"/>
	<path d="M80.8,180.3c1.2,0.6,2.3,1.1,3.1,2.3c-2-1.1-3.9-2.4-6.3-2.5c0-0.1,0-0.3,0.1-0.4c0.4,0,0.7-0.2,1.1-0.1
		c0.6,0.1,1.2,0.2,1.9-0.1c0.9-0.4,1.9,0.1,2.7,0.6c0.2,0.2,0.4,0.4,0.8,0.7C82.8,181.3,82,179.6,80.8,180.3z"/>
</g>
<g>
	<path d="M71,88.8c1,1,1.4,2,1.4,3.3c0,1.1,0.7,2.1,1.7,2.6c0.5,0.3,1,0.7,1.4,1.2c0.2,0.2,0.2,0.8,0,1.1c-0.6,1.1-1.4,1.9-2.9,1.8
		c-0.9-0.1-1.6-0.4-2-1.1c-0.4-0.6-0.8-1.2-1.2-1.9c-1-1.6-2.2-1.9-4.2-0.8c-1.5,0.9-3,1.7-4.5,2.6c-1.9,1-3.7,0.5-5-0.8
		c-1.4-1.3-1.1-2.4,0.5-3.1c0.1,0,0.2-0.1,0.2-0.1c-0.8-0.5-1.8-1-2.6-1.6c-0.6-0.4-0.9-1.1-0.7-1.9c0.3-0.9,1.1-1.1,1.9-1.1
		c0.2,0,0.5,0,0.8,0c-0.2-1.1,0.5-1.6,1.4-1.9c3-1.2,5.9-2.6,9.1-3.4c1.3-0.3,2.5-1.1,3.6-1.9c2.7-2,5-4.5,8.1-6.1
		c-7.3-2.9-12.9-7.3-14.7-15.3c-1.6-0.5-2.6-1.9-3.7-3.1c-1.7-2-3.2-4.2-4.8-6.4c-1.9-2.7-3.7-5.6-5.6-8.3c-1.3-1.8-2.8-3.5-4.3-5.2
		c-3.1-3.6-5.8-7.4-7.7-11.8c-0.5-1.1-1.1-2.2-1.3-3.4c-0.3-1.9-1-3.7-0.1-5.7c0.9-1.9,2.8-2.5,4.6-1.3c3.2,2.3,5.7,5.2,8,8.3
		c1.1,1.5,2.1,3.1,3.4,4.5c0.7,0.8,1.8,1.2,2.7,1.7c1.6,0.9,3.8,2.8,3.7,4.9c-0.1,0.9-0.6,2-1.2,2.7c-1.4,1.7-1.4,1.6-0.2,3.6
		c0.9,1.5,1.7,3.1,2.5,4.7c1.2,2.2,2.4,4.4,3.6,6.8c0.5-1.1,0.9-2,1.4-2.9c0.3-0.6,0.6-1.2,1-1.8c0.4-0.5,0.3-0.9-0.2-1.3
		c-1.7-1.6-3-3.4-4-5.5c-1.3-2.7-1.2-5.4,0.4-7.9c0.4-0.6,0.4-0.9-0.2-1.4c-0.9-0.8-1.6-1.9-2.4-2.9c-1.4-1.9-2.8-3.7-4-5.7
		c-1.3-2.1-2.1-4.5-2.1-7.1c0-1.7,0-3.4,0.5-5.2c0.5-2,3.6-2.8,5.2-1.4c1.9,1.8,3.3,3.9,4.6,6.1c1.2,2.1,2.4,4.2,4.2,5.9
		c1.4,1.2,2.9,2.2,4.4,3.3c0.5,0.4,1,0.8,1.4,1.3c1.1,1.2,1,2.5,0.5,3.9c-0.2,0.5-0.1,0.8,0.3,1c4.3,2,8,4.9,11.1,8.4
		c1.9,2.1,3.6,4.4,5.3,6.6c0.6,0.8,0.9,1.9,1.3,2.8c0.1,0,0.2,0,0.3,0c0-0.5,0-0.9,0-1.4c-0.1-4.6,0.4-9.2,1.9-13.6
		c0.9-2.5,1.7-5,3.4-7.1c1.4-1.7,2.9-3.5,5.1-4.1c2.5-0.7,4.8-0.2,6.9,1.7c2.7,2.4,3.5,5.4,2.7,8.8c-0.5,2.1-1.4,4.1-2.1,6.1
		c-0.1,0.2-0.1,0.4-0.2,0.7c2.7,0,4.4,1.3,4.7,4.1c2.8-1.5,5.7-2.1,8.8-2c0.8-1.3,1-1.3,2.1-1c0.8,0.2,1,0.9,1,1.5
		c0.1,0.6-0.2,1.1-0.8,1.4c-0.6,0.3-1.2,0.5-1.6-0.1c-0.8-1.2-1.9-1-3-0.9c-2.4,0.2-6.7,1.8-8.5,3.5c1.1,1,2.5,1.8,2.7,3.5
		c0.1,1.7-0.5,2.9-2,3.9c2.2,2.6,3.8,5.6,4.4,8.9c0.7,3.2,1.3,6.5,0.9,9.7c2.1,0.6,4,1.2,5.9,1.8c1-0.7,2-1.7,3.1-2.3
		c1.4-0.8,2.9-1.5,4.7-1.1c0.2,0.1,0.5-0.1,0.7-0.3c0.3-0.2,0.5-0.4,0.8-0.5c0.6-0.4,1.2-0.8,1.9-0.3c0.7,0.6,0.8,1.3,0.5,2.1
		c-0.2,0.7-0.5,1.4-0.8,2.1c0.2,0,0.5,0.1,0.7,0c1.1-0.2,2.2,0.8,1.9,1.9c-0.3,1.3-1,2.5-2.3,3c-1.3,0.5-2.6,1-4,1.5
		c-1.1,0.3-1.7,1.2-1.6,2.4c0,1.3,0.2,2.6-0.6,3.8c-0.9,1.2-2.7,1.4-3.7,0.3c-0.2-0.3-0.3-0.9-0.1-1.3c0.5-1.1,0.4-1.8-0.7-2.7
		c-0.7-0.6-1.1-1.7-1.3-2.6c-0.2-1.1-1-1.2-1.7-1.4c-1.5-0.4-3.1-0.8-4.6-1.3c-0.5-0.2-0.9-0.3-1.4,0.3c-0.9,1-1.8,2-2.8,2.8
		c-1.3,1-2.7,1.8-4.2,2.5c-3.3,1.6-6.8,1.4-10.2,1c-2.1-0.2-4-1.2-5.6-2.6c-1.3-1.1-2.6-2.3-3.8-3.4c-0.1-0.1-0.4-0.2-0.6-0.2
		c-0.3,0-0.7,0.1-0.8,0c-0.8-0.6-1.3,0-1.9,0.4c-1.6,1.2-3.2,2.4-4.9,3.6c-2,1.5-4.1,3-6.1,4.5c-0.9,0.6-1.9,1.2-2.8,1.8
		C71.5,88.2,71.3,88.5,71,88.8z M109.5,53.8c-0.3-0.2-0.6-0.3-0.9-0.5c-1.7-1.5-3.5-2.9-5.2-4.4c-1.1-1-1.3-1.1-2.5-0.2
		c-2.7,1.9-5.5,3.7-7.8,6.1c-1.9,1.9-3.7,3.9-4.8,6.4c-1.6,3.7-2.3,7.6-0.9,11.6c0.8,2.4,1.9,4.5,3.7,6.2c1,1,2.1,1.8,3.3,2.5
		c0.9,0.5,1.9,1.1,3,1.3c3.8,0.7,7.6,0.8,11.3-0.9c3-1.4,5.6-3.2,7-6.3c0.6-1.3,1.2-2.7,1.4-4.2c0.4-2.8-0.4-5.6-0.8-8.3
		c-0.5-3.2-2.1-6-3.9-8.6c-0.4-0.5-0.7-0.6-1.2-0.4c0.4,0.6,0.9,1.2,1.1,1.8c0.1,0.2-0.1,0.6-0.2,1c-0.2-0.2-0.5-0.3-0.6-0.5
		c-0.5-1.2-1.2-1.6-2.5-1.5C109.2,54.4,109.4,54.1,109.5,53.8z M87.9,58.2c1.5-1.5,2.8-2.7,4-4c0.3-0.3,0.5-0.9,0.4-1.2
		c-0.9-2.2-1.5-4.6-2.8-6.5c-1.9-2.8-4.1-5.5-6.5-8c-2.1-2.2-4.6-4.1-7.4-5.6c-1.1-0.5-2.1-1.3-3.2-1.4c-2.2-0.2-4.5-0.2-6.8,0
		c-1,0.1-2.2,0.6-2.9,1.3c-1.4,1.4-1.8,3.3-1.4,5.3c0.5,2.6,2,4.7,3.7,6.6c1.6,1.8,3.5,3.3,5.5,4.6c3.8,2.4,7.5,4.9,11.6,6.7
		C84.1,56.8,86.1,57.5,87.9,58.2z M98.1,44.7c0.3-2,0.4-4,0.8-6c0.4-1.7,1-3.3,2.6-4.3c0.9-0.5,1.9-0.8,2.9-1.2
		c0.6-0.3,1.6-0.4,1.9-0.9c0.4-0.7,0.9-1.3,1.7-1.3c0.9,0,1.3,0.8,1.6,1.6c0.4,0.8,0,1.5-0.7,1.7c-0.6,0.2-1.6,0.2-1.9-0.1
		c-0.6-0.7-1.2-0.5-1.8-0.3c-0.4,0.1-0.8,0.4-1.2,0.5c-1.5,0.3-2.5,1.3-3.1,2.7c-0.8,1.7-1,3.6-1.3,5.5c-0.1,0.5,0,0.9,0,1.6
		c1.2-1.6,2.3-3.1,3.4-4.4c1.5-1.9,3.4-0.9,3.7,1c0,0,0.1,0.1,0.3,0.2c0.5-0.5,1.3-0.9,1.7-1.5c0.5-0.7,0.7-1.6,1-2.4
		c0.8-2.1,1.7-4.1,1.6-6.5c-0.1-1.7-0.4-3.2-1.4-4.6c-0.5-0.8-1.4-1.3-2.1-1.9c-1.2-1.2-3.3-1.6-4.8-0.8c-2.6,1.3-4.6,3.4-5.8,6
		c-1.5,2.9-2.7,6-3.1,9.3c-0.3,2.9-0.6,5.9-0.9,8.8c-0.1,1.1,0,2.3,0,3.4c0,0.7,0.1,1.3,0.2,2.2c0.6-0.5,1-0.8,1.5-1.1
		c-0.7-0.7-1.1-1.4-0.5-2.3c0.5-0.7,1.1-1.3,1.4-1.6c-0.2-1.1-0.8-2.2-0.4-2.8C95.8,43.8,97.2,44.5,98.1,44.7z M62.5,87.5
		c0,0.1,0.1,0.3,0.1,0.4c-0.9,0.4-1.8,1-2.8,1.2c-1.5,0.3-3.1,0.4-4.6,0.6c-0.5,0.1-1.1,0.3-1.3,0.7c-0.3,0.5,0.1,1,0.6,1.4
		c1.3,0.9,2.8,0.9,4.2,0.7c1.9-0.2,3.6-1.2,5.1-2.4c0.3-0.2,0.7-0.3,1-0.4c0.1,0.1,0.1,0.2,0.2,0.4c-1.1,1.6-2.8,2.1-4.5,2.8
		c-1.7,0.7-3.4,1.4-5.1,2.1c0.6,1.4,2.2,2.3,3.4,1.9c1.1-0.3,2.1-0.8,3.1-1.3c1.1-0.6,2.2-1.4,3.3-1.9c2.1-0.9,3.3-0.6,4.4,1.2
		c0.4,0.5,0.7,1.1,1,1.7c0.8,1.2,2.1,1.4,3.2,0.5c0.9-0.7,0.8-1.4-0.3-1.8c-1.2-0.4-1.9-1.3-2.2-2.5c-0.3-1.2-0.1-2.5-1.1-3.5
		c-0.5-0.5,0-1.5,1.1-2.2c2.3-1.6,4.7-3.1,6.9-4.7c2.2-1.6,4.3-3.3,6.4-4.9c0.7-0.6,1.7-1,1.8-2.1c-0.3-0.1-0.6-0.3-0.9-0.3
		c-1.9-0.4-3.8,0-5.5,0.7c-3.1,1.2-5.8,3.1-8.2,5.4c-2.1,1.9-4.3,3.2-7.1,3.9c-2.4,0.6-4.6,1.7-6.8,2.6c-0.4,0.2-0.9,0.4-1.3,0.6
		c0,0.1,0.1,0.2,0.1,0.3C58.9,89.4,60.6,87.8,62.5,87.5z M38.6,26.2c0.4,0.7,0.6,1.4,0.9,1.9c2,2.8,3.9,5.6,6,8.3
		c1.2,1.6,2.8,3,3.9,4.7c2.4,3.4,4.7,6.8,7,10.3c1.8,2.7,3.7,5.3,6.1,7.5c0.3,0.3,0.9,0.3,1.3,0.5c0.1-0.5,0.3-1,0.2-1.4
		c-0.6-1.6-1.2-3.1-2-4.6c-1.4-2.7-2.8-5.3-4.3-8c-1-1.9-2-3.8-2.9-5.7c-0.2,0.1-0.3,0.1-0.4,0.1c-0.3,0.1-0.5,0.1-0.8,0.2
		c0.1-0.2,0.2-0.5,0.3-0.7c0.6-0.7,1.2-1.3,1.8-2c1.1-1.2,1.3-2.1,1-3.2c-0.1,0.2-0.3,0.4-0.4,0.6c-0.7,1.1-2.6,1.8-3.8,1.3
		c-1.1-0.5-2.2-0.9-3.3-1.3c-2.6-1-4.9-2.5-7-4.4C41.2,28.9,40,27.6,38.6,26.2z M48.8,25.9c0-0.1-0.1-0.2-0.2-0.3
		c-2.2-3.3-4.8-6.2-7.7-8.9c-0.4-0.4-0.9-0.8-1.4-1c-1.4-0.6-1.8-0.9-2.7,0.6c-0.7,1.1-0.5,2.4-0.2,3.6c0.5,2.3,1.7,4.3,3.2,6.1
		c2.7,3.4,5.9,6.2,10,7.8c1.5,0.6,2.8,1.6,4.5,1.2c0.6-0.1,1.3-0.4,1.6-0.8c0.5-0.7,0.6-1.6,0-2.3c-0.6-0.7-1.4-1.2-2.1-1.7
		c-0.7-0.4-1.5-0.5-2.2-1c-1.5-1-3.1-1-4.8-0.8c-0.9,0.1-1.8,0.1-2.8,0.2c0.8-1.2,1.9-1,2.9-1.1c1,0,2,0,3.1,0c0-0.1,0-0.2,0.1-0.2
		c-0.2-0.1-0.4-0.2-0.7-0.2c-0.4,0-0.9,0-1.3-0.1c-1.1-0.1-2.2-0.1-3.3-0.2c-0.3,0-0.5-0.1-0.8-0.2c0.3-0.2,0.5-0.5,0.8-0.5
		C46,25.9,47.4,25.9,48.8,25.9z M62.4,23.7c0.7-1.9,2.6-1.5,4.3-1.6c-0.4-0.3-0.5-0.5-0.6-0.5c-1.5,0-3.1,0-4.6-0.1
		c-0.2,0-0.4-0.1-0.7-0.2c0-0.1,0-0.3,0.1-0.4c1.5,0,2.9,0,4.5,0c-0.3-0.5-0.5-0.7-0.6-0.9c-1.8-2.7-3.5-5.4-5.3-8.1
		c-0.9-1.3-2-2.4-3.7-2.2c-0.3,0-0.8,0.2-0.9,0.5c-0.3,0.7-0.8,1.6-0.6,2.3c0.5,2.1,1,4.3,2,6.1c1.2,2.1,2.9,3.9,4.5,5.7
		c2.8,3,6.3,4.4,10.5,3.6c0.4-0.1,1-0.4,1.2-0.8c0.1-0.2-0.3-0.9-0.6-1.1c-1-0.8-2.1-1.5-3.1-2.3c-0.6-0.5-1.2-0.6-1.9-0.6
		C65.3,22.9,63.8,22.9,62.4,23.7z M116.7,76.6c0.2,0.1,0.4,0.2,0.7,0.3c1.8,0.5,3.5,0.9,5.3,1.3c0.8,0.2,1.3,0.5,1.4,1.4
		c0.1,1.3,0.7,2.3,1.8,3.1c0.6,0.4,0.8,1,0.4,1.8c-0.3,0.6-0.3,1.5,0.4,1.9c0.7,0.4,1.5,0.1,1.8-0.5c0.4-0.8,0.7-1.8,0.6-2.6
		c-0.3-2,0.6-3.6,2.5-4.1c0.7-0.2,1.4-0.4,2-0.6c1.3-0.5,2.5-1,3.1-2.3c0.2-0.3,0.3-0.9,0.1-1.1c-0.2-0.3-0.8-0.3-1.2-0.3
		c-0.2,0-0.5,0.1-0.7,0.2c-1.3,0.4-2.5,0.9-3.8,1.3c-0.2,0.1-0.5-0.1-0.7-0.2c0.2-0.2,0.4-0.6,0.6-0.6c2.2-0.3,3.5-1.8,4.1-3.8
		c0.1-0.4-0.1-0.9-0.1-1.4c-0.4,0.1-0.9,0.1-1.3,0.4c-1.5,1-3.1,2.1-4.6,3.2c-0.2,0.1-0.4,0.1-0.6,0.2c-0.1-0.1-0.1-0.2-0.2-0.3
		c1-0.7,2.1-1.5,3.1-2.2c-0.1-0.1-0.1-0.2-0.2-0.3c-2.5,0.2-4.5,1.3-6.2,3c0.3,0.4,0.5,0.7,0.7,0.9c-0.1,0.1-0.1,0.2-0.2,0.3
		c-0.5-0.1-1-0.2-1.4-0.4c-1.7-0.8-3.4-1.6-5.4-1.7c-0.3,0-0.7,0.1-0.7,0.3C117.5,74.6,117.1,75.6,116.7,76.6z M102.1,46.5
		c0.2,0.1,0.7,0.3,1,0.5c1.7,1.5,3.4,3.2,5.2,4.7c0.7,0.6,1.7,1.1,2.6,1.3c1.2,0.3,2.3-0.4,2.8-1.3c0.6-1.1,0.4-2.3-0.6-3.2
		c-1-0.9-2.1-1.6-3.3-2.5c0.4-0.2,0.8-0.5,1.3-0.7c1.3-0.5,2.1-1.5,1.9-2.4c-0.2-1.2-1.3-2.1-2.7-2.1c-2,0-3.5,1-4.7,2.5
		c-0.4,0.5-0.7,1.6-1.4,1.1c-0.9-0.6,0.2-1.2,0.5-1.7c0.5-0.8,0.5-2-0.1-3c-0.3,0.2-0.7,0.4-0.9,0.6c-0.7,0.9-1.4,1.7-2.1,2.7
		c-0.8,1.1-1.6,2.3-2.3,3.5c-0.4,0.5-0.8,0.5-1.2,0c-0.4-0.4-0.8-0.8-1.3-1.1c-0.6-0.3-1,0.2-0.9,0.6c0.2,0.6,0.7,1.1,1.2,1.7
		c0.1,0.2,0.4,0.2,0.7,0.4c-3.1,1.9-3.5,2.4-2.7,3.3c2-1.3,4-2.6,6-3.9C101.5,47.1,101.8,46.8,102.1,46.5z M87.9,59.2
		c-2-0.7-4-1.4-6.1-2.2c-0.7,0.7-1.6,1.5-2.4,2.4c-2.9,3.2-3.7,7.1-3.3,11.3c0.1,1,0.5,2,0.9,3c0.4,0.8,2,1.4,2.7,1.1
		c0.7-0.3,1.5-0.5,2.3-0.7c0-0.3-0.1-0.6-0.1-0.9c-0.1-2.7,0.4-5.4,1.4-7.9c0.6-1.5,1.5-3,2.9-3.9C86.9,60.8,87.8,60.4,87.9,59.2z
		 M68,49c-1.5,1.7-2.1,3.7-2.8,5.7C65,55.4,65,56.2,64.9,57c0,0.8,0.3,1.7,0.2,2.5c-0.2,1.2-0.4,2.4,0.1,3.6
		c0.6,1.6,1.6,2.9,2.7,4.2c-0.7-2.8-0.1-5.5,0.7-8.2c0.7-2.7,2-5.1,4.1-7.2C71,50.9,69.5,50,68,49z M73.3,27.9
		c-0.5,0.2-0.8,0.4-1.2,0.5c-3.7,1.2-7.1,0.4-10.1-1.9c-1.6-1.2-2.9-2.8-4.2-4.2c-1.4-1.5-2.5-3.2-3.1-5.2c-0.2-0.7-0.4-1.4-0.6-2
		c0.1,6.9,4.4,11.5,8.1,16.2c1.9-0.5,3.6-1,5.3-1.2c1.7-0.2,3.5,0,5.4,0C72.9,29.5,73.1,28.7,73.3,27.9z"/>
	<path d="M112.1,67.4c1.5,0,3-0.5,4.3,0.3c0,0.1,0,0.2,0,0.3c-0.4,0-0.8,0.1-1.2,0.1c-0.8,0-1.7-0.1-2.5,0c-0.5,0-1,0.2-1.4,0.5
		c-0.7,0.4-1.4,0.3-1.8-0.4c-1.5-2.4-3.1-1.8-5.2-0.4c-0.4,0.3-0.6,0.7-0.8,0.9c-0.5-0.3-0.8-0.6-1.1-0.7c-1.2-0.6-2.1-1.4-2.7-2.7
		c-0.9-2.2-0.4-4.4,0.1-6.6c0.5-2,2.1-3,4.1-2.5c0.7,0.2,1.4,0.9,2,1.4c0.3,0.2,0.4,0.6,0.7,1c0.6-1,1.4-1.3,2.5-1.1
		c1,0.1,1.8,0.6,2.5,1.4c1.6,2.1,1.9,4.3,0.5,6.7c-0.1,0.2-0.2,0.4-0.3,0.7c1.5,0,2.9-0.9,4.3-0.2c0,0.1,0,0.2,0.1,0.3
		c-1.4,0.2-2.8,0.4-4.3,0.7C112.1,67.2,112.1,67.3,112.1,67.4z M103.5,60.7c-2.6,0.5-3.5,1.6-3.1,3.9c0.2,1.2,1.6,3,3.1,2.8
		c0.7-0.1,1.3-0.6,1.9-1c0.7-0.4,1.2-1.8,1.1-2.7c-0.7,0.7-1.4,0.9-2.3,0.4C103.3,63.7,103.1,62.6,103.5,60.7z M107.7,60.5
		c-0.2,1.9-0.3,3.7-0.4,5.5c0.4,0.1,1,0.2,1.4,0.4c0.4,0.2,0.8,0.7,1.2,1c1.1-0.9,2.2-3,2-4.3c-0.2,0.4-0.3,0.7-0.3,0.9
		c-0.1,0.6-0.6,1.1-1.1,1c-0.5-0.1-1-0.5-1.2-0.9c-0.5-0.9-0.3-1.8,0.3-2.7C108.9,61.1,108.2,60.8,107.7,60.5z M106.2,59.1
		c-0.7-0.6-1.3-1.3-2-1.8c-0.9-0.7-2.4-0.3-2.9,0.6c-0.6,1-0.9,2.2-0.8,3.5C102,59.9,104.1,59.8,106.2,59.1z M112.1,61.7
		c-0.4-0.8-0.7-1.6-1.2-2.4c-0.7-1-1.8-1.2-2.8-0.9c-0.4,0.1-0.7,0.8-0.9,1.1C109,60.2,110.5,60.9,112.1,61.7z"/>
	<path d="M115,71.6c-0.2,0-0.5,0-0.7,0.1c-0.4,0-0.9-0.1-1.2,0.1c-1.3,0.7-2.5,1.4-3.7,2.3c-0.4,0.3-0.6,1-0.8,1.6
		c-0.8,2.2-4.4,4.9-6.3,4.7c-0.9-0.1-1.5-0.5-1.9-1.3c-0.7-1.5-0.6-3.1-0.6-4.7c0-0.7,0-1.2-0.8-1.6c-1.3-0.8-2.4-2-3.5-3
		c-0.2,0-0.6,0.1-0.9,0.2c0-0.1-0.1-0.2-0.1-0.4c0.6-0.3,1.2-0.6,1.9-0.9c0.1-0.1,0.5,0.2,0.5,0.2c-0.3,1.4,1,1.9,1.7,2.4
		c2.2,1.7,4.8,2.6,7.6,2.6c2,0,3.6-1,5.2-2c0.7-0.4,1.4-0.9,2.2-1.2c0.4-0.1,1,0.3,1.4,0.4C115,71.3,115,71.4,115,71.6z M100.7,76.2
		c0,0.5,0,0.8,0.1,1.1c0.2,0.7,0.4,1.5,0.8,1.9c0.7,0.6,1.6,0.1,2.3-0.2c0.1,0,0.3-0.5,0.2-0.7C103.4,77.2,102.2,76.6,100.7,76.2z"
		/>
	<path d="M99.2,66.6c-0.4,0-0.7,0.1-0.9,0.1C96.6,66,94.8,66,93,66.1c-0.2,0-0.5,0-0.9-0.3c0.2-0.2,0.5-0.5,0.7-0.6
		c2.1-0.3,4.1,0,6,1C99,66.2,99,66.3,99.2,66.6z"/>
	<path d="M92.3,64.2c0.7-0.1,1.4-0.4,2-0.3c1.1,0.1,2.1,0.4,3.2,0.7c0.2,0.1,0.3,0.5,0.4,0.6c-1.6-0.1-3-0.2-4.4-0.3
		c-0.4,0-0.8-0.2-1.2-0.3C92.3,64.5,92.3,64.3,92.3,64.2z"/>
	<path d="M104.8,52.3c-1.5,0.4-2.8,0.7-4.2,1.1c-0.4-0.9,0.4-1,0.8-1.3C102.9,51.2,104,51.3,104.8,52.3z"/>
</g>
<g>
	<path d="M184.4,44.3c2.9,0.4,5.5,1.5,7.3,3.9c1.1,1.5,1.7,3.3,2.7,4.8c0.4,0.6,1.2,1.3,1.9,1.5c3,0.6,4.1,2.9,4.9,5.5
		c0.4,1.3,1.1,2.5,1.4,3.8c0.3,1.2,0.4,2.5,0.6,3.8c0.6,4.2,1.5,8.4,1.9,12.6c0.2,2.4-0.4,4.8-0.5,7.2c-0.2,2.5-0.3,5.1-0.5,7.6
		c0,0.3-0.2,0.6-0.5,1.1c-0.7-1-1.5-1.8-1.9-2.8c-1.8-4.1-4.9-6.8-8.7-8.9c-0.6-0.3-1.3-0.7-1.7-1.2c-0.4-0.6-0.8-1.3-0.8-2
		c0-0.9,0.4-1.9,0.8-3c-0.6,0.5-1,0.9-1.5,1.2c-1.1,0.7-1.6,0.5-2.2-0.7c-1.8-3.5-3.7-7-5.7-10.8c-0.5,1.4-0.9,2.5-1.3,3.8
		c0.6-0.3,1.1-0.5,1.8-0.9c-0.3,0.6-0.5,0.9-0.7,1.3c0.3,0.1,0.6,0.1,1,0.2c-0.4,0.4-0.8,0.7-0.9,0.8c1.9,3.2,3.7,6.2,5.5,9.3
		c0.6,1.1,0.2,2-1.1,2.2c-1.3,0.2-2.5,0.2-4,0.7c0.4,0.2,0.7,0.6,1.1,0.6c0.6,0.1,1.2,0,1.8-0.1c5-1.1,8.9,1.1,12.2,4.5
		c2.2,2.3,3.5,5.2,4.6,8.1c0.8,2.1,0.8,4,0.3,6.1c-0.5,2.4-0.4,4.8,0.8,7.1c-1.1,1.1-2.2,1-3.3,0.2c-2.2-1.5-4.1-3.3-5.6-5.6
		c-2.4-3.7-4.9-7.4-7.4-11.1c-0.8-1.1-1-2,0-3c0.2-0.3,0.5-0.6,0.5-0.9c0-0.5-0.2-1-0.3-1.5c-0.4,0.3-0.8,0.5-1.2,0.8
		c-0.1,0.1-0.1,0.4-0.3,0.5c-0.5,0.5-1,0.9-1.5,1.3c-0.3-0.6-0.8-1.1-1-1.7c-1.1-3.9-2.1-7.8-4.5-11.1c-0.2-0.3-0.2-0.8-0.4-1.2
		c-0.2-0.3-0.6-0.5-1-0.8c0.4-1,0.9-2,1.3-3c1-2.5,2.1-5.1,2.8-7.7c1-3.5,1.7-7,2.5-10.5c0.4-1.7,0.7-2,2.2-2.2
		c-0.1-0.4-0.2-0.9-0.2-1.1c-1,0.2-1.8,0.4-2.7,0.6c0.8-6.1,1.5-11.9,2.2-17.6c0.1,0,0.2,0,0.2,0c-0.1,2-0.2,4.1-0.3,5.9
		c1.7,1,3.3,2,4.8,3c0.1-0.1,0.3-0.2,0.4-0.3c-1.5-4.5-1.6-9.4-3.5-13.9c-2.4,1.6-5.6,0.8-6.7-1.8c-0.3-0.6-0.4-1.8,0-2.1
		c0.5-0.5,1.6-0.8,2.3-0.6c1.3,0.4,2.5,1.2,3.8,1.9c-0.4-1.2-0.8-2.5-1.2-3.7c0,0,0-0.1-0.1-0.1c-0.3-1.7-0.8-3.1-2.9-3.7
		c-1.7-0.5-2.5-3.8-1.9-5.9c1.4,0.8,2.7,1.6,4,2.4c-1.2-0.5-2.4-1-3.7-1.6c-0.4,2.6,1.4,5.1,3.8,5.3c0.2,0,0.5-0.3,0.8-0.5
		c-0.8-0.3-1.4-0.6-2-0.9c0.6-0.5,1.1-1,1.5-1.4c-0.1-0.3-0.3-0.6-0.4-1c0.6,0.8,1.1,1.7,1.6,2.4c0.5,0.5,1.1,0.8,1.4,1.3
		c0.9,1.5,1.6,3.2,2.5,5c0.6-2.6,1.1-4.9,1.6-7.3c-0.6-0.4-1.3-0.9-1.9-1.3c-1.4-1.1-2.4-2.5-2.6-4.3c-0.1-1-0.3-2-0.4-3
		c-0.1-0.9,0-1.3,1.1-1c2.7,0.7,4.7,1.9,5.2,4.9c0.2,0.9,0.5,1.9,1.5,2.3c0.2,0.1,0.3,0.5,0.2,0.7c-1,3.8-2.1,7.7-3.2,11.5
		c-0.2,0.9-0.5,1.9-0.4,2.8c0.2,2,0.6,3.9,0.9,6.3c1.2-2.1,2.2-3.9,3.3-5.7c0.5-0.8,1.2-1.5,1.7-2.3c0.2-0.3,0.3-0.8,0.3-1.2
		c0.1-2,1.7-5.1,3.3-5.7c1.1-0.4,1.5-0.2,1.6,1c0,0.2,0,0.5,0,0.7c-0.1,3.8-0.3,4.2-4.7,3.6c0.4,0.7,0.6,1.2,0.9,1.7
		c0.5,0.7,0.6,1.1,0,2c-1.4,2.1-2.3,4.6-3.8,6.7c-1.7,2.4-1,4.6-0.3,7c1,3.1,2.5,5.9,5.1,8.3c1.6-2.7,3.2-5.2,4.8-7.7
		c-3.3-0.7-4.7-2.4-3.9-6c3.6,0.1,5.3,1.7,4.9,4.5c1-0.3,2.2-0.4,2.9-1c0.5-0.4,0.6-1.6,0.5-2.4c-0.1-0.6-0.9-1.1-1.3-1.8
		c-0.4-0.5-0.6-1.1-0.8-1.8c1.2,1.3,2.8,2.4,2.8,4.5c0,0.9,0,1.8-0.1,2.8c0,0.4-0.3,0.8-0.5,1c-2.5,2.6-4.1,5.7-5.4,9
		c-0.1,0.3-0.1,0.7,0,1c0.4,1.8,0.7,3.6,1.3,5.3c0.3,0.8,1,1.5,1.7,2c1.7,1,3.5,1.8,5.2,2.7c2.2-3.9,3.3-8.2,4-12.6c0.3-2,0.7-4,1-6
		c0.1-0.4-0.2-1-0.5-1.4c-1.3-1.6-2.8-3-4-4.7c-0.6-1-0.7-2.4-1.1-3.8c-0.2-0.1-0.8-0.2-1.2-0.5c-0.9-0.6-1-1.5-0.2-2.2
		c0.3-0.2,1.1,0.1,1.6,0.3c0.1,0,0.3,0.2,0.4,0.4c0.5,1.7,2.1,2.2,3.6,3.1c-0.5-4.6-0.5-9.3-2.9-13.4c-2.4,1.1-4.1,0.8-5-1.1
		c0-0.1,0.2-0.3,0.3-0.5c0.9,1.9,2.4,2.2,4.2,0.8c-0.4-0.7-0.9-1.4-1.3-2c-0.1,0.1-0.3,0.2-0.4,0.2c0.3,0.6,0.7,1.2,1.2,2.1
		c-1.3-0.4-2.5-0.7-3.6-1c-0.2-0.3-0.4-0.5-0.7-0.9c-0.2,0.4-0.4,0.7-0.6,1c-0.6-0.4,0.3-1.6,1.3-1.8c1.4-0.2,2.9-0.7,3.9,0.8
		c0.3,0.4,0.5,0.8,1,1.6c-0.2-2-0.3-3.6-0.4-5.2c2.3-0.2,2.6,0.1,2.7,2.6c0,1.1,0.3,2.1,0.9,3.4c0.7-1,1.4-2.1,2.1-3.1
		c1.4-2,2.7-4,4.2-5.9c0.3-0.4,0.8-0.8,1.2-0.8c0.7,0,1.5,0.1,1.9,0.5c0.3,0.2,0.1,1.2-0.2,1.7c-0.8,1.3-1.8,2.6-2.8,4
		c3.8,0.6,5.3,2.3,4.8,4.1c-1.2,1.2-2,2-2.9,2.9l0,0c-2.9,0-4-0.6-4.8-2.8c-1.4,1.1-1.7,2.7-1.7,4.3c0.1,3.1,0.3,6.1,0.5,9.2
		c0,0.3,0.1,0.5,0.1,0.6c1.6-1.3,3.1-2.5,4.7-3.8c0.3,0.9,0.3,1.9-0.5,2.9c-0.7,0.8-1,1.9-1.3,3c1.7-1.2,3.2-2.6,4.1-4.4
		c1.8-3.5,3.4-7.2,5.1-10.7c0.2-0.5,0.6-0.9,0.9-1.5c-2.8-2.2-1.9-5-1.2-7.9c2.2,0.4,4.5,3.7,2.5,6.9c0.5-0.2,0.9-0.4,1.6-0.7
		c-0.5,0.7-0.8,1.1-1.1,1.6c1.5,1.3,0.5,2.6,0,3.8c-0.7,1.6-1.6,3.2-2.4,4.8c-0.2,0.4-0.3,0.9-0.5,1.4c0.1,0.1,0.2,0.2,0.3,0.3
		c1.8-1.4,3.6-2.7,5.2-4.3c2-1.8,3.8-3.8,5.7-5.7c0.2-0.2,0.3-0.6,0.4-0.8l0,0c0.6-0.9,1.2-1.7,1.9-2.7c0.1,0,0.5,0.2,0.9,0.5
		c0.7,0.4,0.8,0.8,0.4,1.6c-3.2,6.6-8,11.6-14.5,14.6c-3.1,1.4-4.1,4.4-6.5,6.2c0.1,0.1,0.2,0.2,0.2,0.3c1.4-0.5,2.7-0.9,4.1-1.5
		c1.2-0.5,2.1-0.3,2.7,1c-0.2,0.1-0.6,0.3-0.6,0.4c0.1,2-1.6,1.8-2.8,2.2c-1.3,0.5-2.7,0.8-4.4,1.4c2.5,2,4.7,3.9,7,5.7
		c2.6-2.9,5.3-5.7,7.7-8.6c0.5-0.6,0.5-1.8,0.7-2.7c0.1-0.7,0-1.5,0.3-2.1c0.2-0.5,0.9-0.9,1.5-0.9c0.3,0,0.9,0.8,0.9,1.2
		c0,1.1-0.3,2.1-0.6,3.4c4.5-3.6,9.1-6.7,12.2-11.3c-0.6-2.2-1.3-4.4-1.9-6.7c-0.1-0.5,0.4-1.1,0.6-1.8c2.3,1.4,1.3,4.2,3.2,5.8
		c0.4-0.8,0.9-1.5,1.2-2.4c0.3-1,0.9-1.3,1.7-0.9c0.8,0.4,1.6,0.9,0.9,2.1c-2.1,3.9-4.5,7.5-7.7,10.7c1.5-0.6,3.1-1.2,4.6-1.8
		c0.6-0.2,1.2-0.6,1.5,0.4l0,0c-2.1,0.8-4.1,1.5-6.2,2.2c-0.4,0.1-0.9,0-1.4,0c0.2-0.5,0.2-1.2,0.6-1.6c1-1.2,2.3-2.1,3.2-3.4
		c1.8-2.3,3.4-4.8,5.1-7.3c-0.6-0.4-0.9-0.6-1.1-0.8c-0.1,0.1-0.3,0.1-0.3,0.2c-2.3,5.3-6.1,9.4-10.5,12.9c-2.1,1.7-4.3,3.5-6.4,5.2
		c-0.2,0.2-0.4,0.3-0.6,0.5c0.4-2,0.9-3.9,1.3-5.9c-1.6,0.2-1.7,0.2-1.6,1.7c0.2,2.8-1.2,4.7-3.1,6.5c-1.7,1.6-3.2,3.4-4.8,5.1
		c-0.7,0.8-1.3,0.8-2.1,0.2c-2-1.7-4-3.4-5.9-5.1c-0.7-0.6-1.3-0.6-2.2-0.2c3,2.8,5.8,5.5,8.8,8.3c0.4-0.1,1.1-0.2,1.8-0.4
		c0.1,0.1,0.1,0.2,0.2,0.4c-0.6,0.4-1.2,0.7-2,1.2c1,0,1.8-0.1,2.6-0.1c0,0.2,0.1,0.3,0.1,0.5c-0.8,0.1-1.6,0.3-2.1,0.4
		c-0.6,7.2-1.1,14.4-1.7,21.9c-2.7-1.2-2.4-3.5-2.9-5.4c-0.8,0.6-1.1,1.1-0.6,2.1c0.7,1.3,1.3,2.6,1.8,4c0.2,0.4,0.3,1,0.2,1.4
		c-0.3,4-0.4,8-1.2,11.9c-0.6,2.8-2,5.6-3.6,8.1c-2.6,4.1-5.6,8-8.5,12c-1.4,1.8-2.9,3.5-4.4,5.3c-0.3,0.3-0.4,0.8-0.8,1.6
		c-0.5-0.8-1.1-1.4-1.1-2c0-3.3,1-6.1,3.5-8.7c2.9-3,6-6,6.9-10.6c0.5-2.6,0.8-4.9-0.1-7.3c-0.5-1.3-0.2-2.5,0.8-3.5
		c1-1,1.8-2.2,2.7-3.3c0.2-0.2,0.1-0.6,0.1-1.3c-0.8,1-1.2,1.7-1.8,2.2c-0.9,0.9-1.8,0.6-2.1-0.6c-0.7-4.3-1.4-8.6-2.1-12.9
		c-0.2-1,0-2.1,0-3c-0.7-0.1-1.3-0.3-1.9-0.4c0-0.2,0-0.3,0-0.5c0.4,0,0.9,0,1.3-0.1c0.3-0.1,0.7-0.2,0.8-0.4
		c1.2-2.9,3.7-4.6,6.2-6.2c1.9-1.2,3.8-2.4,5.7-3.7c1.3-0.9,1.3-1.1,0.5-2.7c-1.6,1.1-3.2,2.2-4.7,3.4c-1.9,1.5-3.8,3.2-5.7,4.7
		c-0.3,0.2-0.9,0.4-1.1,0.2c-0.3-0.2-0.6-0.8-0.5-1.1c0.8-4.7,1.6-9.4,2.6-14c0.5-2.4,1.5-2.9,3.9-2.6c0.4,0.1,0.9,0.1,1.4-0.1
		c1.5-0.5,3-1,4.6-1.5c0.9-0.3,1.2-0.8,0.8-1.7c-2.2,0.7-4.4,1.3-6.5,2c-0.4,0.1-0.9-0.1-1.4-0.1c1.7-2.1,3.3-3.9,4.8-5.7
		c0.9-1.1,1.8-2,3.2-2.4c1.4-0.4,2.7-1.2,3.8-2.2c2.9-2.6,5.6-5.3,8.3-8c0.6-0.6,0.9-1.3,1.2-2.2c-0.3,0.2-0.7,0.4-0.9,0.8
		c-2.5,3.5-6,6-9.3,8.7c-0.5,0.4-1,0.7-1.5,0.9c-0.4,0.1-1,0.1-1.2-0.1c-0.3-0.2-0.4-0.9-0.3-1.2c0.6-1.5,1.2-3,1.9-4.4
		c0.5-1.2,1.1-2.4,1.7-3.7c-1.3-0.6-1.6,0.1-1.9,0.8c-0.7,1.8-1.2,3.6-2.1,5.3c-1.6,3.4-3.1,6.9-5.9,9.6c-0.6,0.5-1.5,0.7-2.2,1
		c-0.3,0.1-0.6,0.3-1,0.5c-1.2-1.8,1-2.8,0.9-4.3c-0.1-0.1-0.3-0.1-0.4-0.2c-0.6,1.3-1.6,2.6-1.9,4c-0.9,4.3-1.3,8.6-2.3,12.8
		c-0.8,3.5-2.1,6.8-3.1,10.2c-0.3,1-1,0.6-1.5,0.4c-1.4-0.7-2.8-1.5-4.3-2.2c-0.4-0.2-0.8-0.4-1.3-0.6c0.9,3.4,1.6,6.7,2.7,9.9
		c1.1,3.1,1.3,6.2,1.1,9.3c-0.2,2.6,1.3,4.1,2.8,5.6c0.2,0.2,0.4,0.3,0.6,0.3c0.2,0.1,0.3,0.1,0.7,0.1c-0.5-2.7-1.1-5.3-1.5-7.9
		c-0.4-2.5-0.6-5-0.8-7.5c-0.3-3.1-1.5-5.7-4.3-7.4c-0.2-0.1-0.3-0.3-0.2-0.7c0.5,0.3,1,0.7,1.5,1c2.7,1.8,4,4.3,4.3,7.5
		c0.3,4,0.9,7.9,1.5,11.8c0.2,1.2,0.6,2.3,0.9,3.5c-2.5,0.5-3.9-0.9-5.1-2.6c-0.1,0-0.2,0.1-0.3,0.1c0.1,0.6,0.2,1.2,0.5,1.7
		c1.7,2.8,3.4,5.6,5.1,8.3c-0.8,1.2-1.5,2.2-2,3.2c-0.5,0.9-1,1.8-0.4,2.9c0.1,0.2-0.1,0.7-0.3,1c-1.9,2.8-3.7,5.6-5.7,8.4
		c-0.7-0.2-1.1-0.4-1-1.4c0.1-1.4-0.5-2.9-0.4-4.3c0.3-3.6,0.7-7.1,1.2-10.6c0.9-6.1,2.2-12.2,1.4-18.4c-0.4-3.5-1.5-7-2.5-10.4
		c-1.1-3.9-2.6-7.7-3-11.8c-0.1-0.7,0-1.5,0.3-2.1c1.6-3,3.2-6,4.9-9.1c-0.4,0.1-1,0.1-1.3,0.5c-1.4,1.9-2.7,4-4.1,6
		c-0.5,0.8-1,1.6-1.6,2.4c-0.8,1.1-1.6,1.2-2.6,0.2c-2.5-2.4-3.9-5.4-5-8.6c-1.3-3.4-0.5-6.2,1.5-9c1-1.3,1.8-2.8,2.6-4.2
		c0.3-0.5,0.4-1.1,0.7-1.6c-0.2-0.1-0.4-0.2-0.5-0.3c-0.5,0.6-1,1.1-1.3,1.7c-1.4,2.3-2.8,4.6-4.2,6.9c-0.1,0.2-0.3,0.3-0.5,0.6
		c-0.4-2.5-1.1-4.8-1.1-7.2c0-1.7,0.7-3.5,1.2-5.2c0.7-2.4,1.4-4.8,2.2-7.3c-0.6-0.1-1-0.1-1.5-0.2c-0.6,2.6-1.1,5.2-1.7,7.7
		c-0.1,0.6-0.6,1.2-0.9,1.8c-1.1-2.7-2.1-5.1-3.1-7.5c-0.2,0-0.4,0-0.5,0c-0.1,0.6-0.4,1.3-0.2,1.9c1.9,5.9,3.6,11.9,4.5,18.1
		c0.1,1,0.6,1.9,0.7,2.9c0.1,0.5-0.2,1.2-0.6,1.6c-0.3,0.2-1.1,0.1-1.4-0.1c-1.2-0.7-2.2-1.5-3.5-2.4
		C184.8,43.1,184.6,43.7,184.4,44.3c-0.2,2.3-0.5,4.5-0.7,6.8c-0.1,0.6,0.2,1.2,0.3,1.8c0.9-0.5,1.5-0.8,2.2-1.2
		c0.1,1.1,0.1,2,0.2,3.1c-1.6-0.9-1.9,0-2.2,1.1c-0.7,3.4-1.4,6.7-2.1,10.1c-0.1,0.3-0.1,0.8,0,1c2,3.7,4,7.4,6,11.1
		c0.2,0.4,0.7,1,0.8,1c0.5-0.2,1.2-0.5,1.4-1c0.7-1.6,1.4-3.3,1.9-5c0.5-2,0.7-4,1-6.1c0.1-0.8,0.4-1.6,1.3-1.3
		c0.5,0.2,1.2,0.9,1.3,1.4c0.1,0.9,0,1.8-0.3,2.7c-1.1,3.2-2.4,6.4-3.5,9.7c-0.6,1.8-0.5,3.3,1.3,4.3c1.2,0.7,2.3,1.5,3.4,2.3
		c1.8,1.3,3.5,2.6,4.5,4.7c0.4,0.9,1.1,1.7,1.8,2.9c0.3-3.1,0.6-5.8,0.8-8.5c0-0.2-0.1-0.6-0.3-0.7c-3-2.2-4.9-5.3-7-8.3
		c-0.6-0.9-0.6-2.2-0.7-3.4c-0.1-0.8,0.2-1.6,0.4-2.4c0.1-0.3,0.2-0.8,0.5-0.9c0.2-0.1,0.7,0.1,0.9,0.3c0.9,0.9,1.7,1.8,2.6,2.9
		c-0.5-1.6-0.9-3.1-1.4-4.6c2.1-1,2.9-0.6,3.3,1.5c0.2,1,0.3,2.1,0.5,3.1c0.3,1.9,0.7,3.8,1.1,5.6c0.1,0,0.3,0,0.4-0.1
		c0-0.5,0.1-1,0-1.5c-0.7-3.6-1.4-7.1-2-10.7c-0.3-1.7-1.1-2.6-2.7-2.9c-0.3-0.1-0.6-0.2-0.9-0.3c-2.4-0.9-4.9-1.8-7.3-2.8
		c-1.1-0.4-1.5-1.2-0.6-2.5c1.4,0.1,2.9,0.2,4.4,0.3c-0.1-3-1.1-5.8-3.2-8.3c-0.2,1.2-0.1,2.4-1.7,2.6c-1,0.1-2.8-1-3.2-2.2
		c-0.6-1.7,0.4-2.7,1.8-3.4C187,45.9,185.7,45.1,184.4,44.3z M218.6,85.6c0.3-0.4,0.5-0.8,0.7-1.2c0.4-0.6,0.9-1.2,1.7-0.7
		c0.7,0.4,1.1,2.1,0.7,2.6c-0.7,0.9-1.3,1.9-2.1,2.7c-1.6,1.6-1.8,3.2-0.9,5.2c0.4,1,0.9,2.2,0.7,3.1c-0.5,2.4-1.2,4.9-2.3,7.1
		c-1,1.9-2.7,3.4-4.1,5.1c-1.2,1.4-2.6,2.6-3.5,4.1c-0.8,1.4-1.5,3-1.2,4.9c1.4-1.7,2.6-3.1,3.7-4.7c3.1-4.2,6.2-8.3,9.1-12.6
		c2.1-3.1,3.7-6.4,4-10.3c0.2-2.2,0.4-4.5,0.5-6.7c0.1-1.3,0.1-2.7-0.2-3.9c-0.5-1.7-1.4-3.3-2-4.8c0.4-0.5,0.8-1,1.2-1.6
		c-3.9-1-5.1-4-3.5-7.8c2.8,0.2,4.7,2.9,3.9,5.7c-0.2,0.6,0,1.4,0.2,2.1c0.2,0.7,0.5,1.3,0.7,2c0.2,0.9,0.4,1.7,0.6,2.6
		c1.5-6.6,2.3-18,1.8-19.5c-2.7,1.9-5.4,3.8-8.1,5.7c-3.1,2.1-4.8,5-4.1,8.8C216.8,77.7,217.8,81.5,218.6,85.6z M193.3,88.5
		c0.1,0,0.2,0,0.4,0c0.2,1,0.3,2-0.3,3c-1.6,2.5-3.8,2.6-6.5,1.5c0,0.6,0.1,1.1,0.3,1.5c0.9,1.4,1.9,2.7,2.8,4c1,1.5,2.1,3,3.2,4.6
		c0.3-1.8,0.6-3.3,0.8-4.8c2.7,0.5,4.2,3.8,2.9,5.9c-1.4,2.2-1.4,2.5,0.5,4.3c0.6,0.6,1.2,1.2,1.9,1.8c0.4,0.3,1,0.5,1.6,0.9
		c0-0.6,0.1-0.9,0-1.2c-0.8-2.6-0.4-5.2,0.1-7.7c0.2-0.8,0.2-1.8-0.1-2.6c-0.4-1.3-1-2.6-1.6-3.9c-0.5-1-1-2-1.6-3.1
		c-1.5,3.3-3.2,3.8-5.6,1.9c0.6-2.2,2-3.4,4.3-3.6c-3.2-4.4-8.4-6.1-13.8-4.5c0.4,1.6,0.8,3.2,1.3,5c2.1-3.1,2.1-3.1,4.4-1.6
		c1.3-1.6,2.8-1,4.4-0.4C192.9,89.1,193.1,88.8,193.3,88.5z M219.7,48.3c-1.8,5-2.6,9.9-3,15c3.5-2.7,6.9-5.3,10.4-8
		C224.8,53.1,222.4,50.9,219.7,48.3z M209.4,88.7c-0.1,0-0.3,0-0.4,0c-0.6,6.5-2.4,12.9-2.2,19.9c1.3-2,2.4-3.7,3.5-5.4
		c0.5-0.7,0.8-1.4,0.4-2.4c-0.2-0.5,0.1-1.2,0.3-1.8c0.5-0.9,1.1-1.8,1.6-2.7c0.2-0.4,0.3-0.9,0.1-1.3
		C211.7,92.9,210.5,90.8,209.4,88.7z M213,38c-0.3,2.9,2.1,4,3.4,6c0.6-2.2,0.8-4,0.4-6.1c-0.6-3-0.6-6.2-0.7-9.3c0-1,0.4-2.1,1-3
		c2-3.1,4.2-6.2,6.3-9.3c0.2-0.3,0.3-0.8,0.4-1.2c-2,0.8-3,2.4-4,4c-1.1,1.7-2,3.6-3.3,5.2c-1.3,1.7-2.1,1.5-3-0.5
		c0,0-0.1,0-0.6-0.1c2.4,5.1,2.6,10.4,3,16C214.8,39.1,214,38.6,213,38z M179.8,72.8c-0.4,0.9-0.6,1.5-1,2.1
		c-0.5,0.9-0.9,1.8-0.2,2.9c0.7,1.1,1.2,2.3,1.8,3.5c0.5,1,0.9,2.4,1.7,2.8c0.9,0.4,2.2,0,3.4-0.1c0.3,0,0.5-0.1,1-0.1
		C185.3,79.6,182.6,76.3,179.8,72.8z M200.7,63c0.1-0.1,0.3-0.3,0.4-0.4c-0.6-0.6-1.2-1.4-1.9-1.9c-1.4-1-2.3-2.2-2.2-4
		c0-0.7-0.1-1.5-1.3-1.6c0.3,1.4,0.6,2.7,1,4.2c-0.6-0.1-1.3-0.1-1.9-0.3c-1.3-0.7-2.5-1.1-3.8,0.4C194.2,60.7,197.5,61.9,200.7,63z
		 M225.2,23.5c-0.4-1.8-2.2-2.6-3.3-1.6c-0.6,0.6-1.1,1.5-1.4,2.3c-0.2,0.7-0.3,1.8,0.1,2.4c0.7,0.9,1.9,0.8,2.9,0.2
		c0.5-0.3,1-0.9,1.4-1.3c-1.4,0.7-2.6,1.6-4.4,0.6c2.8-0.1,3.9-1,4-2.9c0.1,0.1,0.2,0.2,0.4,0.2C224.9,23.4,225,23.5,225.2,23.5z
		 M185.2,30.5c0.1,0,0.3,0,0.4,0c0-0.7,0.2-1.6-0.2-2c-1-0.9-2.1-1.6-3.3-2.1c-0.4-0.2-1.6,0.2-1.7,0.6c-0.1,0.6,0.1,1.5,0.5,2
		c0.4,0.6,1.1,1,1.7,1.3c0.6,0.3,1.3,0.4,1.9,0.6c0.2-0.9,0.3-1.5,0.5-2c0.1,0,0.2,0,0.2,0C185.2,29.4,185.2,30,185.2,30.5z
		 M199.9,78.4c-0.1,0.1-0.1,0.2-0.2,0.3c1.3,1.6,2.6,3.1,3.9,4.7c0.1-0.1,0.2-0.1,0.4-0.2c-0.1-1,0.1-2.1-0.3-2.9
		c-1.3-2.7-1.8-5.6-2.3-8.6c-0.2-1.1-0.5-2.3-0.7-3.4c-0.2,0-0.4,0.1-0.6,0.1c0.8,3.7,1.5,7.3,2.4,11.4
		C201.3,79.2,200.6,78.8,199.9,78.4z M224.4,73.5c-0.1-1.8,0-3.3-0.3-4.8c-0.1-0.6-1-1-1.6-1.4c-0.3,0.5-0.7,1-1,1.6
		c-0.1,0.2-0.2,0.5-0.1,0.7c0.3,1.1,0.6,2.3,1.1,3.3C222.6,73.1,223.4,73.2,224.4,73.5z M197.9,77.2c1.7-4.1,1.1-6.1-0.9-6.5
		C195.7,73.8,195.9,76,197.9,77.2z M187.1,9.7c-0.1,3.5,1.9,5.4,4.8,7.3c-0.1-1,0.1-1.8-0.2-2.3C190.2,13,188.7,11.4,187.1,9.7z
		 M187.9,92.5c2.1,1.3,4.5,0,4.7-2.5C190.3,88.8,189.4,89.3,187.9,92.5z M200.1,26.6c1.5-1.2,1.2-2.7,1.1-4.2
		c-2.5,1-3.6,2.4-3.6,4.5c0.6,0,1.1-0.1,1.7-0.1c-0.1-0.4-0.1-0.7-0.2-1.2C199.6,26,199.8,26.3,200.1,26.6z M190.7,48.2
		c-0.2-0.1-0.4-0.2-0.6-0.4c-1,0.5-2.1,1-3.1,1.5c0.5,0.6,1,1.4,1.7,1.7c0.5,0.2,1.8,0,1.9-0.4C190.9,49.9,190.7,49,190.7,48.2z
		 M195.3,105.3c1.6-3.5,1.6-4.4-0.3-5.5C194.2,101.7,193.9,103.5,195.3,105.3z M197,91.7c-2-0.4-3.4,1.1-3.7,3
		C195,95.5,196,94.8,197,91.7z M231.2,23.8c-0.6-1.9,1.4-4.1-0.7-5.7C229.6,20.9,229.8,23,231.2,23.8z M194.6,66.2
		c-0.2,0-0.4-0.1-0.6-0.1c-0.3,2.4-0.6,4.9-0.9,7.3C193.9,71,195.3,68.8,194.6,66.2z M200.3,41c-0.1,1.9,1.6,3.3,4.1,3
		C203.1,42.9,201.7,42,200.3,41z M201,77.8c-0.2-1.3-0.4-2.7-0.7-4.1c-0.1,0-0.3,0-0.4,0c-0.3,1.4-0.5,2.7-0.7,3.9
		C200,77.7,200.4,77.7,201,77.8z M198,55.8c0.2,1.8,0.1,3.6,2.2,4.6C199.8,58.6,199.6,56.9,198,55.8z M251.7,25.5
		c-0.6,2.2,0.9,4,1.2,6.2c0.3-0.3,0.5-0.5,0.5-0.6C252.8,29.2,252.2,27.3,251.7,25.5z M189.8,10.2c-0.1,0.1-0.3,0.2-0.4,0.3
		c0.7,1,1.5,2,2.2,3c0.1-0.1,0.3-0.2,0.4-0.3C191.2,12.2,190.5,11.2,189.8,10.2z M200.7,40.2c0.8,0.6,1.4,1.1,2,1.6
		C203.3,40.4,202.7,39.9,200.7,40.2z"/>
	<path d="M198.2,128.2c-0.1-0.3-0.2-0.5-0.3-0.7c-1.3-2.9-4-4.5-6.3-6.3c-1.4-1.1-2.9-2-4.9-1.8c-0.8,0.1-1.7-0.1-2.5-0.5
		c0.1,0.3,0.1,0.6,0,0.8c0.8,0.2,1.7,0.5,2.5,0.7c-0.1,0-0.2,0-0.2,0c-1.1,0.3-2.1,1.8-2.1,2.9c0,1.1,0.8,1.4,1.6,1.5
		c1.3,0.2,2.2-0.5,2.7-2c0.2-0.7,0.3-1.4,0.6-2.4c2.5,2.1,5.4,3.4,6.8,6.3c1,2,1.7,4.2,2.4,6.4c0.2,0.6,0.4,1.3,0.5,2
		c0.2,4.1,0.5,8.1,0.2,12.2c0.2,0,0.4,0.1,0.6,0.2c0.2-0.1,0.5-0.3,0.8-0.4c0.7-3.5,0.2-7-0.2-10.5
		C200.1,133.9,199,131.1,198.2,128.2z M187.4,123.6c-0.2,0.4-0.8,0.5-1.2,0.8c-0.3-0.4-0.7-0.9-0.7-1.3c-0.1-1.4,1.2-2.3,2.8-1.8
		C188,122,187.8,122.9,187.4,123.6z"/>
	<path d="M202.4,117.1c0-0.1,0-0.2,0-0.3c-1.4-0.1-2.7-0.2-4.1-0.3c0-0.2,0-0.3,0-0.5c0.5,0,1-0.1,1.6-0.1c0.5-0.1,0.9-0.2,1.4-0.3
		c-3.3-0.4-3.3-0.4-3.6-0.8c1.3-0.2,2.7-0.4,4.2-0.6c-1.9-0.5-4,0.6-5.8-1.2c0.5-0.3,0.8-0.5,1.2-0.8c0-0.2,0.1-0.3,0.1-0.5
		c-1.7,0.7-2.6,0-3.4-1.2c-2.9-4.1-5.8-8.2-8.7-12.3c-0.5-0.4-1-0.7-1.6-1.1c-0.2-0.1-0.3-0.1-0.5-0.2c0,0.3-0.2,0.5-0.4,0.7
		c0.8,0.4,1.4,1,1.9,1.7c2.4,3.5,4.8,7,7.2,10.5c1,1.5,2.3,2.8,3.3,4.3c0.8,1.2,1.3,2.5,1.8,3.8c0.2,0.5,0.1,1.1,0.1,1.8
		c-1.9,0.1-3.3-0.8-4.5-1.8c-1.5-1.3-3.1-1.9-5.1-1.6c0,0.2,0,0.4,0,0.6c1.2-0.2,2.2,0.1,3.2,0.9c2.3,2.1,5.2,2.6,8.4,3
		c-0.1-1.2-0.2-2.3-0.3-3.7H202.4z"/>
	<path d="M184.2,35c-1.3,0.2-1.5,1-1.5,2.1c0,1-0.1,1.9-0.2,3c-1.1-0.6-2.1-1.2-3.1-1.8c-0.8-0.5-1.2-0.2-1.4,0.6
		c-0.4,1.1,0.1,1.3,1.2,1.7c2.3,0.8,4.1,2.2,3.3,5.1c-0.1,0.3,0.1,0.6,0,1c-0.3,1.8,0.1,3.9-1.9,5.1c-0.3,0.2-0.4,0.7-0.4,1.1
		c0.1,2.4,0.4,4.8,0.3,7.2c-0.2,3-0.4,6.1-1.9,9c-0.2-0.3-0.3-0.4-0.3-0.6c-0.7-2.9-2.1-5.6-3.6-8.1c-0.7-1.1-1.5-2.2-1.7-3.4
		c-0.4-2.6-1.7-4.6-3.3-6.5c-0.2-0.3-0.4-0.6-0.6-0.9c-1.9-3.1-3.7-6.2-5.6-9.3c-0.7-1.1-1.2-2.4-1.8-3.5c0.2-0.1,0.3-0.2,0.5-0.3
		c0.4,0.5,0.8,0.9,1.1,1.5c0.3,0.5,0.4,1.1,0.7,1.6c0.5,1,1.3,1.1,2,0.2c0.4-0.4,0.6-1,0.8-1.4c0.2,1.8,0,3.7,0.7,5.4
		c0.9,2.3,2.4,4.4,3.7,6.5c0.4,0.7,0.8,1.5,1.3,2.2c0.6,0.8,1.2,0.6,1.5-0.3c0.2-0.6,0.2-1.2,0.3-1.7c0.1,0,0.2,0,0.4,0
		c0,0.7,0,1.4-0.1,2.1c-0.3,2.6-0.3,5.2,1.1,7.6c0.8,1.4,1.7,2.8,2.7,4.2c0.2,0.3,0.7,0.4,1,0.7l0.2-0.3c-0.3-0.5-0.5-1-0.8-1.4
		c-1-1.7-2-3.4-3-5c-0.4-0.7-0.3-1.2,0.6-1.6c1.9-0.7,2.6-2.6,1.6-4.6c-0.9,0.6-1.8,1.1-2.8,1.7c0-0.4,0.1-0.9,0-1.3
		c-0.2-1.1,0.1-1.7,1.2-2.2c2-0.9,2.5-3.1,1.2-5.1c-0.6-1-1.3-1.9-2-2.8c-0.4,0.4-0.7,0.9-1.1,1.2c-1.5,1.1-1.7,2.6-1.4,4.3
		c0.2,1.3,0.2,2.6,0.3,3.9l-0.4,0.1c-1.3-2.1-2.6-4.2-3.9-6.3c-0.6-1-1-2.1-1.5-3.3c4.8-0.9,5.8-2.7,6.1-7.1c0-0.7,0-1.4-1-1.1
		c-2.2,0.6-4.4,3.4-4.5,5.7c0,0.2,0.2,0.5,0.3,0.7c-0.1-2.3,1.9-4.5,4.5-4.5c0.1,3.1-1.8,5.4-5.3,5.5c0.2-1.9,0-3.8,0.5-5.5
		c0.7-2.2,1.8-4.3,2.9-6.3c1.5-2.9,0.1-6.6-3-7.2c0.5,0.7,1.2,1.4,1.8,1.9c1.9,1.6,2,3.5,0,5.3c0-3.3-1.9-5.9-2.7-8.7
		c-1.3,2.2-1.1,6,0.5,8.2c-2,3.2-0.5,7.2-2.6,10.5c-0.8-1.8-2-3.4-2.3-5.2c-0.3-1.8-0.8-3.4-1.9-4.8c-0.9-1.1-2-2-3.6-2
		c-0.2,0-0.7,0.5-0.7,0.6c0.3,1.8,0.6,3.6,1.1,5.4c0.2,0.6,0.8,1.2,1.2,1.7c0.4,0.5,0.9,1,1.2,1.6c0.5,1,1,2,1.5,3.1
		c0.2,0.4,0.5,0.8,0.8,1.4c-0.8-0.1-1.4-0.1-1.9-0.1c-0.6,0-1.2-0.1-1.8-0.1c-0.4,0-1,0.3-1.1,0.6c-0.4,1.2,0.6,3.1,1.9,3.5
		c0.3,0.1,0.5,0.2,0.8,0.3c-0.5,2.2,0.6,3.3,3.2,3.2c-0.9-0.4-1.7-0.5-2.3-0.9c-0.4-0.2-0.5-0.9-0.6-1.4c0-0.1,0.7-0.6,1.1-0.5
		c1.5,0.3,2.9,0.7,4.3,1l0,0.5c-0.6,0.5-1.2,1.1-1.8,1.6c0.1,0.1,0.1,0.1,0.2,0.2c0.6-0.4,1.2-0.8,1.8-1.3c1.1,1.6,2.2,3.2,3.4,4.7
		c0.3,0.4,0.7,0.8,0.8,1.2c0.5,2.9,1.8,5.5,3.3,8c1.4,2.3,2.4,4.8,3.2,7.3c0.3,0.9,0.4,1.6-0.1,2.4c-0.9,1.6-1.6,3.3-2.4,4.9
		c-0.1,0.3-1,0.4-1.3,0.3c-1.3-0.8-2.5-1.7-3.8-2.7c1.4-1.1,3.5-1.6,2.2-4c-0.8-1.5-1.8-0.5-2.9-0.6c-0.5-1.7-0.7-3.6-1.4-5.2
		c-0.9-2.1-2.1-4.2-3.4-6.1c-0.3-0.5-1.6-0.3-2.4-0.4c-0.1,0-0.3,0.8-0.2,1.1c0.7,2.1,1.6,4.1,2.3,6.1c0.7,1.8,1.3,3.7,2,5.6
		c-0.8-0.5-1.4-1.2-2-1.8c-1.1-1-2.2-2-2.4-3.6c0-0.3-0.4-0.7-0.7-0.8c-2.2-0.8-3.2-2.6-3.7-4.6c-0.4-1.6-0.2-3.3-0.4-5
		c-0.2-2.6-0.5-5.2-0.7-7.8c-1.4-0.2-1.4-0.2-1.4-2.1c0.1-3.1-2.5-5.6-5.7-5.2c0.3,3.1,0.1,4.9,2.5,7.1c1.1,1,2.4,1.9,2,3.9
		c-0.3,1.7,0.2,3.5,0.4,5.5c-0.8-1.4-1.6-2.7-2.4-4.1c-0.3,0.3-0.5,0.6-0.8,0.9c-2.5-2.3-4.5-3.1-6.3-2.7c0.1,4.8,2.9,5,6.4,4.7
		c1.6,3,3.2,6.2,4.9,9.3c0.4,0.8,1.2,1.4,1.9,2.1c1.2,1.3,2.4,2.6,3.5,3.9c1.5,1.7,3,3.4,4.5,5.1c0.3,0.4,0.8,0.7,0.8,1.1
		c0.3,2,0.5,4,0.7,6c0.2,2.2,0.4,4.3,0.6,6.7c-3.5-1.7-7.8-0.6-10.7-3.6c4.1-3.4,4.2-5,0.4-9.7c-1.4,1.2-2.5,2.8-2.5,4.5
		c-0.1,1.7,0.7,3.3,1,4.7c-1.6-1.6-3.3-3.4-2.8-6.6c0.4-2.5,0.4-5.2,0.4-7.8c0-2.7-0.2-2.7-2.8-3.2c-0.1,0-0.2-0.1-0.1,0
		c-0.3-0.6-0.5-1-0.7-1.4c0,0-0.1,0.1-0.1,0.1c-0.1,0.8,0,1.6-0.3,2.2c-0.1,0.2-1.2,0.1-1.8-0.1c-0.5-0.2-0.9-0.6-1.3-1
		c-0.8-0.9-1.4-1.8-2.2-2.9c0.4,2.2,2.3,4,5,4.7c0.7,3.6,1.4,7.2,2.1,10.8c-0.2,0.1-0.3,0.1-0.5,0.2c-0.4-0.3-0.8-0.5-1.1-0.9
		c-1.5-1.8-3-3.7-4.5-5.5c-0.9-1.2-2.6-1.3-3.3,0c-0.3,0.6,0,1.5,0.1,2.1c-1.5-0.3-3.1-0.6-4.7-1c-0.3,3.5,0.5,3.4,3.2,5
		c1.1,0.7,2.8,0.2,4.2-1.1c0.8,1.2,1.5,2.3,2.2,3.3c-1.9,0.4-3.8,0.8-5.6,1.2c-1.5,0.4-2.5,1.7-2.5,2.8c1.3-0.3,2.4-0.1,3.5,0.8
		c2.3,2.1,5.1,1.3,6-1.5c0.1-0.4,0.2-0.8,0.2-0.9c2.5,1.3,5,2.7,7.6,3.9c3.3,1.4,6.9,2.1,10,4c0.3,0.2,0.7,0.2,1.1,0.3
		c0.5,0.1,1,0.2,1.5,0.3l0,0.3c-0.8,0.1-1.6,0.5-2.4,0.4c-2.5-0.4-4.9-0.9-7.4-1.4c-1.5-0.3-2.9-0.5-4,0.9c-0.2,0.3-0.8,0.4-1.2,0.3
		c-4.3-1-8.7-1.6-12.7-3.6c-0.2-0.1-0.3-0.2-0.5-0.2c-0.9-0.2-1.9,0.6-2.2,1.7c-0.3,1,0.4,1.2,1.1,1.4c1.2,0.4,2.3,0.9,3.6,1.4
		c-0.4,0.5-0.7,0.8-0.9,1.2c-1.3,1.9-1.1,4.2,0.5,5.8c0.7,0.7,1.3,0.9,2.3,0.3c2.8-1.7,3.3-3,2-6c0,0,0.1-0.1,0,0
		c1.9,0.6,3.6,1.1,5.6,1.7c-1.1,1-2.2,1.9-3.2,2.9c0.1,0.1,0.2,0.2,0.2,0.3c0.8-0.6,1.6-1.3,2.4-1.9c0.1,0.1,0.1,0.2,0.2,0.2
		c-0.6,0.5-1.2,1-1.7,1.6c0.1,0.1,0.2,0.2,0.3,0.3c0.5-0.4,0.9-0.7,1.4-1.1c1.1-1,2-2.1,3.2-3.1c0.4-0.4,1.1-0.7,1.6-0.6
		c3.5,0.4,6.9,0.8,10,1.2c0.3-0.5,0.6-0.9,1-1.2c-0.8,0.1-1.7,0-2.6-0.1c-2-0.2-3.9-0.6-5.8-0.9c-1.9-0.3-3.7-0.1-5,1.5
		c-0.3,0.3-0.7,0.6-1.1,1c0.1-0.6,0.1-1.1,0.2-1.4c-5.2-0.5-9.7-2.8-14.4-4.5l0-0.6c0.4,0,0.9-0.1,1.3,0c3.4,1,6.8,2.1,10.2,3.1
		c0.9,0.3,1.9,0.5,2.8,0.5c0.6,0,1.3-0.2,1.7-0.6c1-1,2-1,3.2-0.7c2.4,0.6,4.8,1.1,7.2,1.4c0.9,0.1,2-0.1,2.9-0.5
		c0.9-0.4,1.5-0.4,2,0.3c0.1,0,0.3,0,0.4,0c0.2,0,0.3,0,0.4,0c-0.8-1-2.2-1.8-3.4-2.3c-1-0.4-2.1-0.4-2.5-1.7
		c-0.1-0.2-0.3-0.5-0.6-0.5c-1.8-0.6-3.6-1.1-5.3-1.6c-4.4-1.3-8.6-3.1-11.5-7.1c-1.1-1.6-2.6-2.9-3.8-4.4c-0.7-0.9-1.2-1.9-1.8-2.9
		c1.1-0.6,1.6-0.1,2.1,0.5c1.5,1.9,3.1,3.8,4.6,5.7c0.7,0.8,1.6,1.4,2.6,0.4c0.9,2.6,2.3,4.8,4.8,5.9c1.8,0.8,3.8,1.2,5.7,1.8
		c2.1,0.6,4.5,0.3,6.3,2.1c0.1,0.1,0.8,0,0.8-0.2c0.2-0.6,0.4-1.3,0.3-1.9c-0.1-1.1-0.5-2.2-0.6-3.3c-0.3-2.7-0.6-5.4-0.8-8.1
		c-0.4-5.6-1.9-10.9-4.4-15.9c-0.5-0.9-0.6-2-0.9-3c0.8,0.7,1.6,1.4,1.9,2.3c1.1,2.8,2.2,5.6,3.1,8.4c0.6,1.9,0.5,1.9,2.3,0.9
		c0.1,0,0.2,0,0.3,0c0.7,1.1,0.2,1.8-0.8,2.5c-0.4,0.3-1,0.8-1,1.2c0.2,2.6,0.5,5.3,0.9,7.9c0.4,2.8,0.8,5.5,1.4,8.2
		c0.4,1.8,1.1,3.4,1.7,5.1c0.1,0.3,0.6,0.4,0.8,0.7c0.2,0.1,0.3,0.3,0.5,0.4c0.5,0,0.9,0.2,1.3,0.3c0.1,0,0.3-0.1,0.4-0.1
		c0,0,0.1,0,0.1,0c-0.2-0.4-0.4-0.9-0.7-1.4c1.1,0.2,2.1,0.3,3,0.6c0.4,0.1,0.8,0.3,1.2,0.4c0.3-0.2,0.6-0.3,1-0.3
		c0.2,0,0.4,0,0.6,0.1c-1.2-0.4-2.4-0.8-3.6-1.2c-0.4-0.1-1-0.2-1.3,0c-1.6,0.8-2.1-0.3-2.8-1.6c1.7,0.3,3.1,0.7,4.5,0.8
		c1.5,0.1,2.9,0,4.7,0c-0.2-0.8-0.3-1.2-0.5-1.6c-0.9-2.3-1.9-4.6-2.7-6.9c-1-2.7-2.3-5-5.1-6.1c-0.8-0.3-1.5-0.7-2.3-0.9
		c-1.6-0.3-1.8-1.4-1.6-2.9c0.8,0.6,1.4,1.2,2,1.6c1.9,1.3,3.5,0.8,4.4-1.3c0.5-1.2,1.1-2.4,1.7-3.6c1.2-2.7,2.8-5.3,2.9-8.4
		c0.2-3.5,0.3-6.9,0.2-10.4c0-1.2,0.1-2.2,1.2-2.9c0.4-0.3,0.6-1,0.6-1.6c0.1-3.6,0.1-7.2,0.2-10.7C183.2,37.2,182.8,35.8,184.2,35z
		 M182.3,41.4c-1.3-0.7-2.6-1.3-4-2c0.1-0.1,0.2-0.5,0.3-0.8c1.4,0.9,2.6,1.7,3.9,2.6C182.5,41.2,182.4,41.3,182.3,41.4z
		 M177.9,53.1c0.1,1.7-1.2,2.2-2.4,2.9C175.2,54.5,176.3,53.2,177.9,53.1z M175.6,43.8c0.4,0.6,0.8,1.2,1.3,1.7
		c1.1,1.3,1.1,1.8-0.1,3c-0.3,0.3-0.7,0.6-1,0.9C172.5,48,172.4,46.4,175.6,43.8z M167.6,23.8c0.1,0.8,0.1,1.7,0.2,2.9
		c0.2-0.7,0.4-1.1,0.5-1.5l0.3,0.1c-0.1,0.8-0.2,1.5-0.3,2.3c0.1,0,0.2,0.1,0.2,0.1c0.2-0.2,0.3-0.5,0.5-0.8
		c0.2,0.9,0.4,1.7,0.6,2.5C167.6,28.2,166.8,26.3,167.6,23.8z M168,30.1c1.4,0.4,1.6,0.8,1.1,2c-0.4,1-1,1.9-1.5,2.9
		c-0.1,0-0.1,0-0.2,0C167.7,33.4,167.8,31.8,168,30.1z M157.8,28.1c0.9,0.7,1.6,1.1,2,1.7c0.5,0.8,0.8,1.7,1.8,2.3
		c0.6,0.3,0.7,1.4,1,2.2c-0.1,0.1-0.2,0.1-0.3,0.2l-3.2-4.7l-0.5,0.3c0.5,0.8,1,1.6,1.5,2.4c0.5,0.8,1.1,1.6,1.7,2.5
		C159.6,35.7,157.9,33,157.8,28.1z M159.4,44.2c-0.3-0.2-0.7-0.7-0.6-1c0.1-0.4,0.6-0.9,1-0.9c1-0.1,2.1-0.3,3.1,0
		c0.7,0.2,1.2,1.1,1.9,1.7C162.8,45.2,161.1,45.1,159.4,44.2z M145.1,51.5c2.1-0.1,3.7,1,5.3,2.5C147.3,55,145,53.9,145.1,51.5z
		 M146.9,98.4c0,1.1-1.4,2.9-2.3,2.9c-2.1,0-3-0.7-3-2.4c0-1.5,1.1-3.1,2.1-3.2C145.5,95.6,146.9,96.8,146.9,98.4z M142.4,87.1
		c-0.8-0.5-1.6-1-2.5-1.6c2-1.1,4.2-1.7,6.7-1.2l-4.2,1.5c0,0.1,0,0.1,0.1,0.2c1.5-0.2,3.1-0.4,4.7-0.7
		C146.7,87.7,144.4,88.5,142.4,87.1z M143.8,79c-1.2,1-2.6,1-3.8,0.5c-1.2-0.5-2.7-1-2.6-2.9C139.4,75.8,142.5,77,143.8,79z
		 M151.5,77.5c-0.5-2.6-1-5.1-1.5-7.7c1.1-0.5,1.5-0.4,1.6,0.8c0.2,2.3,0.2,4.5,0.3,6.8C151.8,77.4,151.7,77.4,151.5,77.5z
		 M157.2,77.4c3.2,2.4,3,5.1-0.7,7.9C154.4,82.3,154.3,80.3,157.2,77.4z M149.7,41.4c3.4,0.4,4.5,1.9,4.3,5.8
		C151.5,46.3,149.7,43.9,149.7,41.4z M166,75.1c-1.6-1.9-3.2-3.5-4.4-5.4c-1.2-1.8-2.4-3.4-4.3-4.5c-0.6-0.4-1.1-1.2-1.4-1.9
		c-1.7-3.1-3.3-6.2-4.9-9.4c0.1-0.1,0.1-0.1,0.2-0.2c0.9,1.4,1.9,2.8,2.8,4.3l0.4-0.2c0-0.9,0.1-1.8,0-2.6c-0.1-1.8-0.4-3.5-0.5-5.3
		c0-0.4,0.5-0.8,0.9-1.4c1.2,3,1.3,5.8,1.1,8.6c-0.3,3.5,1.6,7.4,4.5,9.1c0.2,0.1,0.5,0.4,0.5,0.6c0.2,1.8,1.6,2.7,2.6,3.9
		c1,1.2,2.5,2,2.7,3.8C166.2,74.5,166.1,74.6,166,75.1z M177.2,84.5c-0.7,0.1-1.5,0.1-2.1,0.2c-0.7,0.2-1.4,0.4-1.3,1.4
		c0.1,1,0.6,1.5,1.7,1.3c0.4-0.1,0.9-0.1,1.4-0.1c0.9,0,1.6,0.3,2,1.3c0.5,1.3,1.1,2.5,1.7,3.7c0.5,0.9,0,1.2-0.8,1.2
		c-1.2-0.1-2.4-0.3-3.7-0.5c-0.8-0.1-1.6-0.4-2.3-0.3c-1.4,0.2-1.6-0.6-1.7-1.6c-0.5-3.2-1-6.4-1.6-9.6c-0.1-0.8-0.3-1.7-0.4-2.7
		C173.2,79.9,176.2,80.9,177.2,84.5z M177.9,86.8c-0.7,0-1.5,0.2-2.1,0.1c-0.4-0.1-0.7-0.6-1-1c0.3-0.3,0.6-0.8,0.9-0.8
		C177.2,84.8,177.5,85.1,177.9,86.8z"/>
	<path d="M267.1,98.7c0.4,0.3,1.3,0.1,2,0c0.5-0.1,1-0.3,1.5-0.4c-1.1-0.7-2.3-1.4-3.1-2c-0.1-1.3-0.2-2.3-0.3-3.2
		c-0.1-1-0.8-1.5-1.6-1.5c-0.6,0-1.4,0.4-1.8,0.8c-1.1,1-0.7,2.2,0.2,3.3h-9.4c1.9-1.7,3.5-3,5-4.4c0.7-0.7,1.4-1.4,1.8-2.3
		c0.8-1.3,1.4-2.7,1.9-4.2c0.2-0.6,0.3-1.6,0-2.1c-0.4-0.6-1.3-0.9-2-1.1c-0.1-0.1-0.8,0.7-0.7,0.9c0.2,0.6,0.6,1.2,1,1.8
		c0.1,0.2,0.5,0.2,0.9,0.4c-3.3,3-6.5,6-9.8,8.9c0.3-1.4,0.9-2.6,1.5-3.9c0.5-1,0-1.5-0.9-1.7c-0.6-0.1-1.3-1-1.9,0.5
		c-1.2,3.3-2.6,6.4-4.1,9.6c-0.5,1.2-1.3,2-2.7,2.3c-2.3,0.4-4.7,1-7,1.2c-4,0.4-7.8,0.9-11.1,3.5c-0.4,0.3-0.8,0.4-1.2,0.7
		c0.5-1.5,1.2-2.8,1.8-4.1c0.6-1.3,1.2-2.7,1.8-4.1c1-2.1,2.4-3.7,4.7-4.8c-0.2,1.5,0.2,2.5,1.4,2.8c0.5,0.1,1.5-0.5,1.8-1.1
		c0.6-1.2-0.4-1.8-1.4-2.4c1.3-0.5,2.5-1,3.6-1.5c2.1,3.8,2.6,4,7.1,2.7c-0.1-0.9-0.2-1.7-0.3-2.6c-0.1-1.1-0.7-1.9-1.7-2.1
		c-1.1-0.2-2.3-0.2-3.5-0.1c-1,0.1-1.9,0.4-2.9,0.6c0-0.1-0.1-0.2-0.1-0.3c3.2-2.8,6.5-5.5,9.9-8.4c-0.3,3.2,0.3,4.5,2.1,5
		c1.6,0.5,3.5-0.5,4.5-2.3c0.9-1.7,0.6-3-1.2-4.6c4.2-0.8,8.4-1.6,12.4-2.4c-0.7-2.3-2.2-1.9-3.7-1.6c-0.9,0.2-1.8,0.2-2.7,0.4
		c-1.4,0.3-2.8,0.6-4.2,0.9c0.8-0.9,1.7-1.7,2.8-2.3c1.9-1.1,3.4-2.5,4.4-4.4c0.6-1.1,1.1-1.1,2.1-0.6c2.2,1.1,5.2-0.3,6.2-2.7
		c-2-0.5-3.8-2.4-6-0.3c0.3-0.6,0.8-0.9,1.2-1.3c0.2-0.2,0.5-0.3,0.5-0.5c0.3-1.3,0.8-2.6,0.8-3.9c0-1.2-0.3-2.5-0.8-3.5
		c-0.4-1-1.2-0.9-1.6,0.1c-1,2.4-2.5,4.7-0.4,7.4c-2.3-0.4-3.3,0.8-4.5,2.3c-1.5,2-3.4,3.7-5.2,5.6c-0.1-0.1-0.2-0.2-0.3-0.2
		c0.4-2.2,0.4-4.3-0.7-6.3c-0.1-0.2-0.3-0.7-0.4-0.6c-0.4,0.1-0.8,0.2-1,0.5c-1.2,1.8-0.7,4.8,0.8,6.5c0.2,0.3,0.3,1.1,0.2,1.2
		c-1.9,1.7-3.8,3.3-5.8,4.9c0-0.8,0.3-1.4,0.5-2c0.5-1.3,1.1-2.5,1.6-3.8c0.1-0.4,0.1-1.1-0.2-1.4c-0.3-0.2-1-0.2-1.4,0
		c-0.7,0.4-1.2,1-1.7,1.3c-0.5-0.4-1.1-0.8-1.7-1.3c0.1,0.2,0.2,0.4,0.2,0.5h-3.2c0.7,0.4,1.4,0.7,1.9,1c0.5,0,1.1-0.2,1.4,0
		c0.4,0.2,0.5,0.8,0.8,1.2l0,0c0,0.2,0.1,0.5,0.1,0.7c-0.5,1.3-0.9,2.7-1.4,4c-1.1,2.7-3,4.8-5.7,6.7c1.1-1.8,1.1-3.4,0.5-4.9
		c-0.4-1-1.2-1.9-1.9-3c-1.2,0.8-1.6,2.2-1.8,3.7c-0.3,2.1-0.8,4.2,1.6,5.3c-2.1,1.7-4,3.3-6,4.9c-0.1-0.1-0.3-0.1-0.4-0.2
		c0-0.9-0.2-1.8-0.1-2.6c0.3-3,0.6-5.9,1.1-8.8c0.3-2.1,0.8-4.2,1.3-6.3c0.6-2.8,2.4-4.7,4.5-6.4c0.6,0.5,1.2,1,1.8,1.5
		c0.2-0.1,0.4-0.2,0.5-0.4c-0.3-0.8-0.5-1.7-0.8-2.6c0.3-0.3,0.8-0.7,1.3-1c2.9-2.1,5.9-4.1,8.8-6.2c0.7-0.5,1.5-1.1,1-2.3
		c-0.1-0.2,0.3-0.6,0.5-1.1c0.8,1.7,2.1,2.3,3.6,1.9c1.8-0.5,3.5-1.2,4.5-3.5c-0.8,0.5-1.2,0.9-1.7,1.2c-2-2.1-4.1-2.7-5.9-1
		c-1.5,1.4-3.4,1.1-4.6,2.1c0.1-0.5,0.1-1,0.3-1.5c0.7-1.9,0.6-3.8-0.5-5.6c-0.2-0.3-0.7-0.7-1.1-0.7c-0.3,0-0.8,0.3-1,0.7
		c-0.3,0.6-0.5,1.3-0.7,1.9c-0.8,2.1-0.4,3.6,1.4,4.9c0.3,0.2,0.7,0.3,0.8,0.4c-4,3.2-7.6,6.2-11.4,9.3c0.4-4-0.8-8,1.8-11.7
		c0.1,0.6,0,0.8,0.1,1.1c0.5,2,2.6,2.8,4.1,1.4c0.5-0.4,0.6-1.3,0.9-1.9c0.7-1.6,0.5-2.4-0.9-3.4c-0.2-0.2-0.4-0.3-0.8-0.6
		c2.9-2.7,5.2-5.9,9.6-6.8c-0.3,1.2-0.6,2.1-0.7,3.1c-0.2,2.5,3.4,4.9,5.1,3.4c-1.3,0-0.8-1.1-0.7-1.5c0.5-2,0.5-3.8-1.4-5.2
		c1.3-0.5,2.4-0.9,3.4-1.4c1.1-0.5,2.2-1.1,3.3-1.6c0.2-0.1,0.6-0.1,0.8-0.1c2.6,0.9,5.2-0.3,6.3-3.1c-0.3,0-0.6,0-0.8-0.1
		c-3.2-1.7-5.6-0.8-7.4,2.1l0,0c0.3,0.9-0.4,1.2-1,1.4c-2.5,0.9-5.1,1.8-7.7,2.5c-2.1,0.5-3.9,1.4-5.5,2.9c-2.3,2.3-4.8,4.6-7,6.9
		c-0.8,0.8-1.7,1.9-1.9,3c-0.3,2.9-0.3,5.9-0.4,8.9c0,1.3,0.7,1.6,1.8,0.9c0.5-0.4,1.1-0.7,1.5-1.2c3-3.2,6.8-5.4,10.3-7.9
		c0.6-0.4,1.4-0.9,2.1,0.4c-1.8,1.4-3.7,2.8-5.6,4.1c-2.1,1.5-4.2,2.9-6.2,4.5c-3.1,2.4-5.6,5.3-6.1,9.5c-0.3,2.9-1.1,5.6-1.5,8.5
		c-0.3,2.5-0.3,5.1-0.3,7.6c0,1.2,0.8,1.5,1.9,0.9c0.9-0.6,1.7-1.3,2.6-2c0.9-0.7,1.8-1.4,2.7-2.1c2.3-1.8,5-3.3,6.6-5.6
		c1.8-2.6,2.7-6,4-9c0.2-0.5,0.6-1,0.9-1.5c0.2,0.1,0.4,0.2,0.6,0.3l-2.5,6.8c0.1,0.1,0.2,0.3,0.3,0.4c0.6-0.2,1.2-0.4,1.7-0.7
		c1.8-1.4,3.5-3,5.3-4.4c2.9-2.3,5.9-4.5,7.9-7.7c0.7-1.1,1.6-1.3,2.4-0.8c-2.4,5.2-6.5,8.9-11.4,11.9c0.7,0.1,1.3,0.1,1.9,0
		c2.9-0.5,5.8-1.1,8.8-1.6c0.4-0.1,0.8,0.2,1.1,0.2c-0.3,0.2-0.6,0.6-1,0.6c-3.2,0.6-6.4,1.3-9.6,1.9c-2.3,0.4-4.7,0.8-6.5,2.3
		c-3.1,2.5-6.1,5.2-9.2,7.8c-0.9,0.8-2,1.4-2.8,2c0.1,0.2,0.2,0.5,0.4,0.9c0.7-0.3,1.5-0.6,2.3-0.9c0.7-0.2,1.4-0.9,2.4,0.1
		c-3.7,1.2-7.2,2.4-10.7,3.5c0,0,0.1,0.2,0.2,0.5c-0.4,0.2-0.8,0.3-1.3,0.6c0.5,0.3,0.9,0.5,1.6,0.9c-1.1,0.6-2,1.1-2.9,1.5
		c1.4,0.7,1.6,1.3,0.8,2.7c-0.4,0.7-0.8,1.3-1.2,2c-1.1,1.9-2.2,3.8-3.3,5.8c0.2,0,0.5,0,0.7-0.1c1.5-0.8,3.1-1.6,4.5-2.5
		c1.6-1,3.1-1.8,5-2c2.5-0.2,5-0.6,7.5-0.9c1.1-0.1,2.4-0.6,3.3-0.3c0.9,0.3,1.5,0.1,1.9-0.4c1.3-1.8,2.5-3.7,3.5-5.7
		c1.1-2.1,1.8-4.3,2.7-6.4c0.1-0.2,0.5-0.4,0.8-0.5c-0.6,2.7-2.5,4.8-2,7.7c3.2-2.9,6.2-5.6,9.3-8.4c-0.3,1-0.6,2.1-1.3,2.7
		c-2,1.8-4.1,3.5-6.2,5.2c0.1,0.3,0.1,0.7,0.2,0.9c1.8,0,3.5,0,5.2,0c2.1,0,4.2,0.1,6.3-0.1c1.7-0.2,3,0.3,4.1,1.8
		c-0.6,0.1-1.2,0-1.8-0.1c-1.1-0.2-2.3-0.7-3.4-0.7c-3.1,0-6.3,0.1-9.4,0.5c-1.3,0.2-2.7,0.9-3.8,1.7c-1.1,0.8-1.9,1.9-3,3.1
		c1.5,0.3,3,0.6,4.5,0.9c1,0.2,1.9,0.4,1.9,1.8c-0.5-0.1-1.1,0-1.5-0.2c-3.1-1-6.3-1.1-9.5-1c-0.6,0-1.3,0.4-1.7-0.5
		c0-0.1-0.6-0.1-0.8,0c-1.5,1-3.5,1.2-4.6,0.3c-0.7,1.5-1.3-0.4-2-0.1c0.1,0.2,0.1,0.3,0.2,0.5c0.1,0.1,0.1,0.3,0.2,0.4
		c-4.2,1.3-8.2,2.8-10.6,6.8c-0.1,0.1-0.3,0.3-0.4,0.3c-2.8,0.8-4.2,3.3-6,5.3c-0.5,0.6-0.8,1.4-1.4,1.6c-0.6,0.2-1.4-0.1-2.4-0.2
		c0.7,0.4,1.3,0.8,1.8,1.1c-0.4,0.6-0.7,1.1-1.1,1.7c-0.5-0.3-0.9-0.4-1.3-0.6c-0.1,0.1-0.2,0.2-0.3,0.3c0.4,0.3,0.8,0.5,1.4,1
		c-0.8-0.2-1.1-0.3-1.9-0.5c0.6,0.6,1,0.9,1.4,1.2c-0.4,0.7-0.7,1.3-1.3,2.4c1.4-0.2,2.5-0.1,3.4-0.4c1.8-0.7,3.5-1.6,5.2-2.4
		c3.3-1.5,6.8-2.7,8.3-6.5c0.1-0.3,0.9-0.4,1.4-0.6c-0.1,0.4-0.1,0.9-0.3,1.3c0,0.2-0.2,0.3-0.3,0.5c-0.6,0.9-0.3,1.6,0.8,1.8
		c1.2,0.2,1.9-0.5,2.6-1.2c1.5-1.6,3.3-2.8,5.6-3.2c1.7-0.3,3.4-1.1,5-1.8c2.4-1,4.8-2.2,7.1-3.3c0.1,0.1,0.2,0.3,0.3,0.4
		c-0.6,0.4-1.2,0.8-1.9,1.2c-0.7,0.4-1.5,0.7-2.1,1.2c-0.5,0.4-0.7,0.9-1.1,1.4c0.6,0.1,1.2,0.4,1.8,0.4c3.7-0.1,7.4-0.3,11.1-0.5
		c1.5-0.1,2.4,0.8,3.2,2c-1.2-0.1-2.3-0.4-3.4-0.4c-5.9,0.1-11.7,0.1-17.6,0.5c-2.2,0.1-4.3,1.2-6.4,1.9c-0.1,0-0.2,0.3-0.4,0.7
		c1,0.3,1.8,0.7,2.7,0.7c1.6,0.1,3.3,0,4.9,0.1c0.5,0,1,0.4,1.6,0.6l-0.2,0.4c-3.2,0-6.5-0.1-9.7,0c-3.3,0.1-6.6,0.9-9.5,2.4
		c-2.8,1.5-5.5,3.1-8.5,4.9c0.8,0,1.3,0.1,1.7,0.1c0,0.1,0,0.2,0,0.2c-1.3,0.5-2.6,0.9-3.8,1.3c0.2,0.5,0.3,0.9,0.4,1.2
		c0.6,0.1,1.2,0.1,1.8,0.2c0,0.1,0,0.3,0.1,0.4c-1.1,0.4-2.2,0.8-3.3,1.2c0,0.1,0,0.2,0,0.3h2.7c0,0.1,0,0.2,0,0.3
		c-0.8,0.4-1.6,0.7-2.8,1.3c0.9,0.1,1.5,0.2,2.3,0.3c-1,0.3-1.7,0.5-2.8,0.9c0.9,0.3,1.4,0.4,1.9,0.5c0,0.1,0.1,0.2,0.1,0.3
		c-0.8,0.3-1.6,0.6-2.5,1c0,0.1,0,0.2,0,0.2c0.7,0.1,1.3,0.1,2,0.2c0,0.1,0,0.2,0,0.3c-1,0.2-1.9,0.5-2.9,0.7c0,0.1,0.1,0.1,0.1,0.2
		c0.8,0.1,1.7,0.2,2.5,0.3c0,0.1,0,0.1,0,0.2c-1,0.1-1.9,0.3-2.9,0.4c0,0.1,0,0.2,0,0.3c0.8,0.1,1.7,0.2,2.6,0.3
		c-0.5,1.7-2.1,0.5-3.1,1.5c1,0.1,1.8,0.1,2.8,0.2c-0.5,1.6-2.2,0.8-3.1,1.8c1.1-0.1,2-0.1,3-0.2c-0.4,1.7-2.1,0.5-2.8,1.8
		c1-0.2,1.8-0.3,2.6-0.4l0.2,0.2c-0.5,0.5-1,1-1.5,1.5c0,0,0.1,0.1,0.1,0.1c0.5-0.2,0.9-0.4,1.8-0.7c0,0.6,0.1,1.2,0.1,1.7
		c0.3,0.1,0.6,0.1,0.9,0.2c-0.7-2.3-0.6-4.7,0.1-7c0.8-2.6,1.4-5.3,2.4-7.9c0.9-2.3,1.7-4.7,3.7-6.3c1-0.8,2.4-1.3,3.2-2.2
		c1.3-1.5,3.1-2.1,4.9-2.5c4.5-1.2,9-1.3,13.6-0.8c0.8,0.1,1.6-0.1,2.4-0.1c-0.3-1.9-1-2.4-2.9-2.4c-0.9,0-1.8,0-2.8,0
		c-0.9,0-1.7-0.1-2.6-0.2c2.3-1.1,4.5-2.1,7-2c0.8,0,1.6-0.1,2,1c0.1,0.3,0.6,0.4,1,0.6l0.1-0.2c-0.3-0.4-0.7-0.8-1-1.2
		c0.1-0.1,0.2-0.2,0.3-0.2c0.5,0.5,1.1,1,1.7,1.5c0-0.4-0.1-0.9-0.1-1.5c5.6,0.1,11.3-0.7,17,0.5c-0.6-0.8-1.1-1.5-1.7-2.3
		c3.2-0.7,5-2.8,6.4-6.1c-1.8,0.4-3.3,0.6-4.7,0.9c0.3-1.1,0.6-2.3,1-3.5c-0.1-0.1-0.3-0.3-0.4-0.4c-1.4,0.8-2.9,1.5-4.2,2.4
		c-1.8,1.2-1.5,3.3-1.9,5.1h-1.5c0.8-2.1,1.6-4.1,0.5-6.3c-2,1.7-4,3.3-3.3,6.4c-2.5,0.3-5,0.5-7.8,0.8c0.5-0.3,0.8-0.5,1-0.7
		c1.2-0.6,2.4-1.2,3.4-2c0.4-0.3,0.4-0.9,0.7-1.4c-0.6-0.1-1.2-0.5-1.6-0.3c-2.4,1-4.7,2.1-7,3.1c-1.1,0.5-2.2,1.2-3.3,1.3
		c-3.2,0.4-5.7,1.9-7.8,4.2c-0.3,0.3-0.9,0.4-1.4,0.6c0.1-0.6,0.3-0.9,0.5-1.2c0.6-0.7,0.8-1.6,0-2.2c-0.8-0.6-1.7-0.5-2.5,0.2
		c-0.3,0.3-0.5,0.6-0.7,0.9c-0.9,2-2.5,3.2-4.4,4.2c-2.2,1.1-4.4,2.1-6.6,3.1c-0.9,0.4-1.7,0.8-2.8,1.3c0.2-1.6,0.7-2.8,1.5-3.8
		c1.2-1.6,2.3-3.3,3.7-4.8c1.5-1.6,2.7-3.5,5.1-4c0.4-0.1,0.8-0.6,1.1-1c0.7-0.7,1.2-1.6,2-2.2c3.3-2.6,7.1-3.7,11.3-3.9
		c4.8-0.2,9.6-0.5,14.3,0.8c0.2,0.1,0.4,0.1,0.5,0.1c0.5-0.2,1.2-0.4,1.3-0.7c0.1-0.4-0.2-1.1-0.6-1.4c-0.7-0.4-1.6-0.7-2.4-0.9
		c-0.9-0.2-1.8-0.3-2.8-0.5c2.3-3.7,5.2-4.8,9.2-3.7c-1.3,3.9,0.1,5.9,3.7,5.4c0.7-2.1,0.3-4.1-1.6-5.9
		C262.6,98.1,264.9,97.1,267.1,98.7z M261.6,83.9c-0.1-0.3-0.5-0.9-0.4-1c0.3-0.3,0.8-0.5,1.2-0.8c0.1,0.2,0.3,0.4,0.4,0.6
		C262.4,83.1,262,83.5,261.6,83.9z M255.1,53.4c-1.6,0.1-3,0.2-4.7,0.3C252.3,52.3,253.9,52.2,255.1,53.4z M252.8,55.8
		c-1-0.4-1.6-0.7-2.5-1.1C251.8,54.1,251.8,54.1,252.8,55.8z M244.4,54.1c-2-1-1.5-2.9,0-5.7V54.1z M262.7,36.2
		c-1.4,0.3-2.9,0.7-4.3,1C259.5,35.6,261,35.6,262.7,36.2z M249.7,43.2c0,0.8-0.1,1.6,0,2.4c0.1,0.8,0.3,1.6,0.4,2.4
		C247.9,47.6,248.3,45.5,249.7,43.2z M236.5,53.4c0.3-0.9,0.3-1.9,1.5-2.3c0.2-0.1,0.3-0.7,0.5-1.1c1.4,0.4,1.7,1,1.2,2.2
		c-0.2,0.6-0.3,1.3-0.7,1.8c-0.4,0.5-1.2,1.1-1.7,1C236.5,55,236.2,54.3,236.5,53.4z M244.7,53.4c0.2-1.4,0.3-2.9,0.5-4.3
		c0.2,0,0.4,0,0.5,0c-0.1,1.4-0.2,2.9-0.4,4.3C245.1,53.5,244.9,53.5,244.7,53.4z M236.2,84.4c-1-1.5-0.9-3.5,0.3-5.6
		C236.4,80.6,236.3,82.4,236.2,84.4z M253.1,71.3c-1.8-1.2-2-3.6-0.4-6C253.3,67.3,254.1,69.2,253.1,71.3z M268.1,65.7
		c-1.5,0.6-2.7,1.1-4.3,1.8C265.8,64.8,266.1,64.7,268.1,65.7z M263.5,62.2c-0.2-2.1,0.4-3.9,1.5-5.6c0.1,0,0.3,0,0.4,0
		c0.2,1,0.4,2.1,0.4,3.1c0,1.1-0.3,2.2-0.5,3.2c0,0.2-0.4,0.4-0.6,0.6c-0.2-0.2-0.5-0.5-0.4-0.7c0.3-1.2,0.7-2.3,0.9-3.6
		C264.7,60.2,264.1,61.2,263.5,62.2z M266.6,67.7c-2.2,0.9-2.2,0.9-3.1,0H266.6z M248.2,81.5c0.4,0,0.8-0.1,1.2-0.2
		c-0.2-0.2-0.4-0.3-0.7-0.6c0.9-0.2,1.8-0.4,2.6-0.7l0-0.2c-0.3-0.1-0.7-0.2-1.4-0.3c1.2-0.7,2.2-0.6,2.8,0c0.6,0.6,1,1.6,0.9,2.4
		c0,1.3-2,2.9-3.3,3c-1.3,0.1-1.9-0.4-2.3-2.1c0.5,0.2,0.8,0.3,1.2,0.5C248.8,82.7,248.5,82.1,248.2,81.5z M241.3,90.4
		c0.2,0.6,0.4,1.2,0.8,2.2c0.1-0.8,0.1-1.2,0.2-1.5c0.1,0.6,0.3,1.4,0.4,2.1C241.1,93.2,241.1,93.1,241.3,90.4z M244.8,90.5
		c-1.6-0.4-3.1-0.7-4.9-1.1C242.4,88.1,244.3,88.5,244.8,90.5z M235.5,92.8c0.2,0.3,0.7,0.7,0.6,0.8c-0.2,0.5-0.7,1-1.2,1.8
		c-0.4-0.7-0.9-1.1-0.8-1.2C234.5,93.7,235.1,93.2,235.5,92.8z M265.2,94.7c0.1-0.5,0.2-0.9,0.4-1.4c0-0.1,0.6,0,0.7,0.1
		c0.2,0.3,0.3,0.9,0.2,0.9C266.1,94.6,265.6,94.6,265.2,94.7c0.2,0.2,0.3,0.4,0.5,0.7c-1,0.2-1.7,0.2-2-0.9
		c-0.2-0.9,0.4-2.2,1.3-2.4c0.5-0.1,1.1,0.2,1.6,0.6c-0.7,0-1.5-0.9-1.9,0.4C264.4,93.7,264.1,94.4,265.2,94.7z M267.6,108.8
		c-1.4,2-2.7,4-5.4,4.7C263.2,110,264.8,108.6,267.6,108.8z M263.9,106.1c-0.5,1.4-0.9,2.6-1.4,3.9c-0.8-0.3-1.3-0.5-1.8-0.7
		c-0.8,1.3,0.6,0.9,1,1.4c-0.8,1.5-1.6,0-2.4,0.2C259.5,108.3,260.9,106.8,263.9,106.1z M256.4,108.5c0.1-0.4,0.1-0.8,0.2-1.3
		c0.2,0,0.4,0,0.5,0c0,0.7,0.1,1.5,0.1,2.3c-0.8-0.1-1.4-0.1-2-0.2c0-0.2-0.1-0.3-0.1-0.5C255.6,108.8,256,108.6,256.4,108.5z
		 M261,103.2c0,0.2-0.4,0.5-0.6,0.5c-0.5,0-1.1,0-1.4-0.3c-1-1-1-2.4-0.1-3.8c0.3,1.1,0.5,2.1,0.8,3.1l0.3-0.1
		c-0.1-1.2-0.2-2.4-0.3-3.5C261.1,100.2,261.1,101.7,261,103.2z"/>
	<path d="M212.2,15.6c-3.5,0.2-4-0.4-5-2.6c-0.3-0.7-0.2-2.4,0-2.5c1-0.3,2.2-0.3,3.2-0.1c0.7,0.2,1.2,0.9,1.7,1.4
		c1.8-4.3,6-5.3,9.2-2.5c-1.2,3.1-3.2,4.9-8.8,4C212.4,14.1,212.3,14.9,212.2,15.6L212.2,15.6z M208.8,12.3c0.8,0.8,1.7,1.6,2.5,2.4
		c0.4-1.3,0.4-2.5-0.6-3.5c-0.8-0.8-1.7-0.9-2.7-0.5C208.3,11.3,208.6,11.8,208.8,12.3c-0.4-0.2-0.8-0.5-1.2-0.9
		c-0.3,1.7,0.2,2.2,2.6,2.9C209.8,13.6,209.3,12.9,208.8,12.3z M213.1,12.2c1.7-1.1,3.4-2.3,5.3-3.6c-2.2-0.9-4.4,0.7-6.2,4.2
		c0.5,0,1,0,1.7,0C213.5,12.5,213.3,12.3,213.1,12.2z M216.4,11c0,0.1,0,0.1,0,0.2c0.6,0.1,1.2,0.2,1.8,0.3c0,0.1,0,0.2,0,0.3
		c-1.2,0-2.4,0-3.5,0c0.6,0.3,1.4,0.1,1.9,0.3c1.5,0.9,1.9-0.2,2.9-1.1C218.2,11,217.3,11,216.4,11z M216.9,10.4c1,0,1.6,0.1,2.2,0
		c0.3-0.1,0.7-0.3,1-0.6c0.1-0.1-0.1-0.6-0.2-0.7c-0.4-0.1-0.9-0.1-1.2,0.1C218.2,9.5,217.7,9.9,216.9,10.4z"/>
	<path d="M241.2,23.7L241.2,23.7c-2.1,1.3-3.2,1-4.5-1.1c-1.3-2.1-1.3-4.1-0.3-7.1c2.4,0.4,4.1,2.3,4.5,5
		C241,21.5,241.1,22.6,241.2,23.7z M237.1,18.1c-0.9,2.4-0.1,5,1.5,5.5C238.1,21.9,237.6,20.1,237.1,18.1z M240,21
		c-0.5,0.3-0.9,0.6-1.3,0.9c0.1,0.4,0.2,0.9,0.3,1.3c0.1,0.3,0.5,0.4,0.7,0.6c0.1-0.3,0.4-0.6,0.4-0.9C240.2,22.4,240,21.7,240,21z
		 M238.2,19.8c0.1,0.3,0.2,0.8,0.4,1.4c0.6-0.4,0.9-0.6,1.3-0.9c-0.2-0.5-0.3-0.9-0.5-1.2C239.1,19.3,238.8,19.5,238.2,19.8z
		 M238.1,19.2c0.5-0.4,0.9-0.6,1.3-0.9c-0.6-0.6-1-1.1-1.4-1.6c-0.1,0-0.2,0.1-0.3,0.1C237.8,17.5,237.9,18.2,238.1,19.2z"/>
	<path d="M215.9,5.1c0,0.2,0,0.6-0.1,0.9c-0.3,0.8-0.7,1.5-1.1,2.3c-0.8-0.5-1.8-0.7-2.3-1.4c-0.9-1.4-1.4-3-0.8-4.8
		c0.4-1.1,1.1-1.1,2-0.8C215,1.9,215.9,3.3,215.9,5.1z M213.3,3c0.1,0,0.2,0,0.3-0.1c0.4,1.2,0.7,2.5,1.1,3.7c0.1,0,0.2,0,0.4,0
		c0.1-1,0.3-2,0.1-2.9c-0.2-0.7-0.9-1.5-1.6-1.8c-0.3-0.2-1.1,0.5-1.7,0.8c0.7,1,1.1,1.7,1.6,2.4c-0.2,0.1-0.3,0.2-0.5,0.3
		c-0.3-0.5-0.6-1-1-1.7c0.2,2.2,0.3,2.2,1.8,1.8C213.6,4.7,213.5,3.9,213.3,3z"/>
	<path d="M260.4,64.2c-2.1-1.1-3-5-1.5-6.9c0.2-0.2,1-0.1,1.3,0.1C261.8,59,261.9,62.3,260.4,64.2z M260.1,63.4
		c-0.3-1.7-0.6-3.2-0.9-4.7C258.4,60.7,258.8,62.7,260.1,63.4z M260.6,58.7c-0.2,0-0.4,0-0.7,0c0.1,1.2,0.2,2.5,0.3,3.7
		c0.2,0,0.4,0,0.6,0C260.7,61.2,260.6,59.9,260.6,58.7z"/>
	<path d="M200.7,35c-1.7-1.3-1.8-2.7-0.1-4.2c0.9-0.8,2.2-1.1,3.3-1.6c0,1.1,0.1,2.3,0,3.4c-0.2,1.2-0.6,2.4-2.3,2
		C201.3,34.5,201,34.8,200.7,35z M204,30.7c-1.6-0.2-2.6,0-3.4,0.9c-0.4,0.5-0.5,1.1-0.8,1.7c0.6,0.2,1.1,0.3,1.5,0.5
		c0.3-0.7,0.5-1.1,0.7-1.6c0.1,0.1,0.2,0.1,0.4,0.2c-0.1,0.3-0.3,0.6-0.4,1c0.1,0.1,0.3,0.1,0.4,0.2C203,32.7,203.4,31.8,204,30.7z"
		/>
	<path d="M244.4,63.4c3.3,0.7,4.1,3.5,1.8,6.5C243.7,68.3,242.7,66.3,244.4,63.4z M245.9,68.8c1.1-2.3,1-3.4-0.3-4.4
		C243.7,65.7,243.9,68.1,245.9,68.8z"/>
	<path d="M242.6,27.2c0.7-0.8,1.4-1.5,2-2.2c0.7-0.7,1.6-0.8,2.3-0.1c0.6,0.6,1.6,1.1,0.8,2.4C246.4,29.9,245,30,242.6,27.2z
		 M247.8,26.4c-0.8-0.6-1.4-1.4-1.6-1.3c-0.8,0.5-1.5,1.2-2.3,1.8c0.1,0.1,0.2,0.3,0.3,0.4C245.2,27,246.3,26.7,247.8,26.4z
		 M243.6,27.8c0.6,0.3,1.3,0.8,1.7,0.7c0.7-0.2,1.2-0.8,1.8-1.3c-0.1-0.1-0.1-0.1-0.2-0.2C245.9,27.3,244.9,27.6,243.6,27.8z"/>
	<path d="M225.4,10.2c1.7,1,2.8,2,3.3,3.9c0.4,1.3,0.1,1.6-0.9,1.9C225.9,13.9,225.8,13.6,225.4,10.2z M227.2,14.9
		c0.2-0.1,0.4-0.1,0.6-0.2c-0.2-0.9-0.5-1.8-0.7-2.7c-0.2,0.1-0.4,0.1-0.5,0.2C226.7,13.1,226.9,14,227.2,14.9z"/>
	<path d="M167.1,54.9c-2-0.9-3.6-0.6-5.4,0.6c1.2-1.9,3.4-2.3,6.2-1.4c-0.6,2.1-2.4,3.7-4.4,3c0.7-0.3,1.4-0.4,1.9-0.7
		C165.9,56,166.4,55.5,167.1,54.9z"/>
	<path d="M245.2,73.1c-1.8,1.5-3.4,1.2-4.7-0.6c-0.3-0.4-0.5-0.9-0.8-1.3c-0.3-0.3-0.7-0.4-1-0.6c1.6-1.3,3.4-1.3,5.3-0.2l0,0
		c-1.3-0.2-2.6-0.8-3.8,0.2c0.1,0.2,0.1,0.3,0.2,0.3c0.2,0.1,0.4,0.1,0.7,0.1l0,0c0.4,0.5,0.8,1,1.2,1.5c-0.1,0-0.1,0.1-0.2,0.1
		c-0.5-0.4-0.9-0.8-1.6-1.4c0.9,2.5,1.2,2.6,3.4,2.3C244.3,73.3,244.8,73.3,245.2,73.1L245.2,73.1z"/>
	<path d="M257.2,48.4c-2.4-0.5-2.9-1.1-2.3-3.2C256.8,45.2,257.2,45.8,257.2,48.4z"/>
	<path d="M205.3,58.8c0.8,0.3,1.7-1.1,2.3,0.3c0.2,0.5,0.1,1.3-0.1,1.8c-0.1,0.3-0.9,0.5-1.3,0.3C205.3,60.8,205.2,59.9,205.3,58.8z
		"/>
	<path d="M242.5,32.6c-1,0.1-1.1,2.1-2.5,1.2c-0.6-0.4-0.8-1.3-1-2.1c0-0.2,0.7-0.9,1.2-0.9C241.2,30.8,242.2,31.1,242.5,32.6z
		 M239.8,33.2c0.2,0.2,0.3,0.3,0.5,0.5c0.4-0.4,1-0.7,1.2-1.2c0.1-0.2-0.3-0.8-0.6-1.6C240.4,32,240.1,32.6,239.8,33.2z"/>
	<path d="M223.6,27.8c0.7,0.4,1.6,0.6,2.1,1.1c0.3,0.3-0.2,1.2-0.3,1.8c-0.4-0.1-1.1-0.1-1.2-0.3c-0.3-0.5-0.4-1.2-0.5-1.9
		C223.6,28.3,223.6,28,223.6,27.8C223.6,27.8,223.6,27.8,223.6,27.8z"/>
	<path d="M212.1,15.6c2.4-0.9,2.9-0.7,3.4,1.2C213.9,17.4,212.7,17,212.1,15.6C212.2,15.6,212.1,15.6,212.1,15.6z"/>
	<path d="M229.6,111.7c1.1-0.1,2.2-0.3,2.5,1c0.1,0.4-0.4,1.3-0.9,1.4C230.5,114.5,229.6,113.2,229.6,111.7z"/>
	<path d="M257.7,63.1c-0.8,0.3-1.5,0.7-2.3,0.7c-0.3,0-0.7-0.8-0.9-1.3c-0.1-0.3,0.1-0.9,0.3-1c0.2-0.2,0.8-0.1,1.1,0.1
		C256.5,62,257,62.5,257.7,63.1z"/>
	<path d="M231,49.4c-0.1-0.5-0.2-0.9-0.4-1.6c-0.4,0.4-0.8,0.9-1.2,1.3c0.6,0.4,1.1,0.7,2,1.2c-1.8-0.1-3.1-1-2.7-1.6
		c0.4-0.6,1.3-1.2,1.9-1.2c0.9,0.1,1.2,0.9,0.9,1.8C231.3,49.3,231.2,49.3,231,49.4z"/>
	<path d="M185.3,98.2c-0.5-0.4-1-0.7-1.6-1.1c0.8-0.5,1.6-0.9,2.3-1.4c0.1,0.1,0.1,0.2,0.2,0.2c-0.2,0.3-0.4,0.5-0.6,0.9
		c0.3,0,0.6,0.1,0.5,0.1c0.4,0.6,0.6,0.9,0.9,1.3C186.5,98.2,185.9,98.2,185.3,98.2z"/>
	<path d="M220.9,108.4c0.1,0.6,0.3,1.2,0.5,2c0.4,0,1-0.1,1.6-0.1c0,0.1,0.1,0.3,0.1,0.4c-0.5,0.2-1,0.5-1.4,0.5
		c-1-0.1-1.5-1.2-1.3-2.6C220.6,108.5,220.8,108.5,220.9,108.4z"/>
	<path d="M149.6,66.6c-1.7-1-3.3-1.9-5-2.9c0.1-0.1,0.2-0.3,0.3-0.4c1.7,0.9,3.6,1.5,4.8,3.2C149.7,66.5,149.6,66.6,149.6,66.6z"/>
	<path d="M268.2,56.4c-0.8-0.3-1.9-0.3-1.8-1.6c0-0.2,0.7-0.6,0.9-0.5C268.2,54.6,268.6,55.3,268.2,56.4z"/>
	<path d="M263.5,69.2c1.6,1,1.6,1.3,0.5,2.3C263.1,71,262.8,70.3,263.5,69.2z"/>
	<path d="M206,41.4c-1.7-1.9-2-3.3-0.9-5.1c-0.1,0.9-0.4,1.8-0.2,2.6C205.1,39.8,205.6,40.5,206,41.4z"/>
	<path d="M266.9,114.7c0.3,0.1,0.5,0.3,0.8,0.4c-0.7,1.8-2.4,2.6-3.7,1.9C265.9,117.1,267.1,116.1,266.9,114.7L266.9,114.7z"/>
	<path d="M267,114.7c-1.2-0.7-2.4-0.9-3.7,0.1C264.1,113.3,265.8,113.4,267,114.7L267,114.7z"/>
	<path d="M231.2,124.1c0-0.5,0-0.9,0-1.5c-0.6-0.3-1.2-0.5-1.8-0.7c0.1-0.1,0.1-0.3,0.2-0.4c0.7,0.4,1.6,0.7,2.2,1.2
		c0.2,0.2-0.1,1-0.2,1.5C231.5,124.2,231.4,124.1,231.2,124.1z"/>
	<path d="M199,82.3c-0.6,0-1.3,0.2-1.7,0c-0.7-0.3-1.2-1-0.6-2.2c0.9,0.5,1.7,1,2.5,1.5C199.1,81.7,199.1,82,199,82.3z"/>
	<path d="M221.3,75.7c-0.3-0.2-0.6-0.5-0.9-0.7c0.1-0.1,0.2-0.2,0.3-0.3c0.5,0.5,1.1,0.9,1.5,1.4c0.1,0.2-0.1,0.8-0.4,1.2
		c-0.1,0.2-0.8,0.2-0.9,0.1c-0.3-0.4-0.4-1-0.6-1.4C220.6,75.8,220.9,75.8,221.3,75.7z"/>
	<path d="M226.1,63.3c0.4,0.5,0.9,1,1,1.6c0.1,0.4-0.4,0.9-0.7,1.3c-0.1,0.2-0.6,0.2-0.8,0c-0.1-0.1-0.1-0.5-0.1-0.8
		C225.6,64.9,225.8,64.2,226.1,63.3z"/>
	<path d="M175.3,88.3c1.3-0.4,2.4-0.1,2.5,0.7c0,0.4-0.6,1.1-1,1.1C175.7,90.2,175.4,89.4,175.3,88.3z"/>
	<path d="M157.3,83.7c0.1-1.6,0.2-3.2,0.3-4.7C157.8,80.6,158.8,82.3,157.3,83.7z"/>
	<path d="M138.2,77.4c1.3,0.5,2.8,1,4.1,1.5C140.8,79.6,138.8,78.8,138.2,77.4z"/>
</g>
<g>
	<g id="XMLID_3_">
		<g>
			<path d="M153.7,113.3c0,0.2,0,0.3,0,0.5c0,0-0.1-0.1-0.1-0.1C153.6,113.6,153.7,113.4,153.7,113.3z"/>
			<path d="M157,195.8c-3.9,0.7-3.9,0.7-3.6,2.6c-0.4,0.1-0.7,0.1-1,0.2c1.9,0,3.7,0.1,5.6,0.9c-0.3,0.4-0.6,0.6-0.7,0.9
				c-0.3,0.5-0.5,1.1-0.7,1.6c0.5,0.2,1.1,0.3,1.6,0.5c1,0.3,2.1,0.4,3,0.9c1.2,0.6,2.1,1.6,3.2,2.3c2,1.3,4.1,2.6,6.3,3.7
				c1,0.5,2.3,0.6,3.5,0.9c-0.7-0.9-1.5-1.4-2.1-2.1c-0.5-0.5-1-1.2-1-1.9c0-2.4,0-4.7,0.4-7c0.5-3.3,1.3-6.6,2.1-9.9
				c0.4-1.6,0.3-1.9-1.5-2.6c-0.2,0.4-0.4,0.8-0.5,1.3c-0.6,2.6-1.1,5.2-1.7,7.8c-0.3,1.4-0.4,2.8-0.7,4.2c-0.4,1.5-1.5,1.7-2.6,0.7
				c-0.4-0.4-0.8-0.8-1-1.3c-0.7-1.1-1.4-2.3-2.1-3.4c-1.4-2.1-4.7-3.4-7-2.7c0,0.3,0.1,0.6,0.1,1c-0.5-0.1-0.9-0.2-1.3-0.2
				C155.7,194.7,156.3,195.2,157,195.8z M155.9,106.6c-1.1,0.5-1.6,1.5-1.7,2.9c1.8-0.2,3.5-0.4,5.2-0.6c0.1-1-0.1-2.1-1.1-2.4
				C157.6,106.3,156.6,106.3,155.9,106.6z M154.5,111.4c0.2-0.3,1.1-0.3,1.5,0c1.2,0.7,0.9,1.9,0.7,3c0.9,0.3,1.5,0.2,1.8-0.8
				c0.3-0.9,0.6-1.9,0.8-2.8c0.1-0.3-0.4-1-0.6-1c-1.5,0.1-3,0.4-4.5,0.7c-0.2,0-0.5,0.5-0.5,0.8c-0.1,0.7,0,1.4,0,2.1
				c0,0.1-0.1,0.3-0.1,0.4c0.1,0.1,0.1,0.1,0.1,0.1c0-0.2,0-0.3,0-0.5C153.9,112.6,154.1,111.9,154.5,111.4z M115.7,123.3
				c1.7,4.1,3.5,8.1,6.4,11.5c2.2,2.5,4.9,4.2,8.3,4.4c3.5,0.3,7,0.4,10.5,0.9c6.2,0.9,12.1,0.1,17.4-3.3c0.5-0.3,1.1-0.9,1.3-1.5
				c1.4-3.9,2.3-7.8,2.2-12.4c0.1-2-0.2-4.4-1.2-6.7c-0.4-0.8-0.9-1.1-1.8-1.1c-6.4,0-12.3-1.8-17.5-5.5c-2.6-1.8-5.4-2.9-8.5-3.2
				c-2.2-0.2-4.3,0.2-5.7,2.2c-0.4,0.6-1.1,1.1-1.8,1.4c-4.8,2.6-7.6,6.7-9.5,11.5C115.6,122.1,115.5,122.8,115.7,123.3z
				 M120.2,135.3c-1.8-2.7-3.2-5.6-4.8-8.5c-0.2-0.4-0.4-0.8-0.6-1.2c-0.4,0.6-0.5,1.1-0.6,1.7c-0.3,2.5-0.4,5-0.9,7.5
				c-0.4,2.5,0.2,4.6,1.7,6.5c1.1,1.4,2.1,2.9,3.2,4.3c1.2,1.6,1.2,1.6,2.8,0.4c2.4-1.9,4.8-3.8,7.4-5.8
				C124.8,139.8,122.1,138.1,120.2,135.3z M115.1,124.4c1.6,4.1,3.3,8.1,6.3,11.4c2.1,2.4,4.7,3.8,7.9,3.8c-4.6-0.9-7.6-3.8-9.8-7.6
				c-1.5-2.6-2.8-5.4-4.4-8.3C115.1,124.1,115,124.3,115.1,124.4z M250,163.7c-2.1-0.9-4.2-0.8-6-0.5
				C245.8,163.4,247.8,163.6,250,163.7z M238.3,168c5,2.2,9.9,4.5,12.3,10c0.6,1.3,1.6,1.1,2.3-0.1c0.9-1.6,0.6-3.8-0.8-5.2
				c-4.4-4.6-10.2-5.7-16.2-6.4c-0.1,0.2-0.1,0.3-0.2,0.5C236.5,167.2,237.4,167.6,238.3,168z M252.7,165.6c-3.5-1.8-7.3-2-11.1-1.4
				c-2,0.3-4,0.8-6,1.1c0,0.1,0,0.2,0.1,0.3c1.5,0.2,3,0.4,4.4,0.6c4.6,0.6,9.2,1,12.7,4.7c1,1,2.1,0.4,2.3-1
				C255.4,168,254.5,166.5,252.7,165.6z M236.2,162.9c4.6-3.1,9.2-5.8,15.1-5.3c1.5,0.1,2.1-1.2,1.5-2.6c-0.8-1.6-2.3-2.3-4.1-2
				c-6.1,1.3-9.9,5.7-13.4,10.4C235.6,163.3,235.9,163.1,236.2,162.9z M238.3,164c4.4-1.3,8.8-2.4,13.2-0.4c1.2,0.6,1.9-0.1,1.8-1.4
				c-0.1-2-1.6-3.6-3.9-3.7c-2.4-0.1-4.7,0.3-6.9,1.2c-2.8,1.2-5.3,2.9-7.7,4.8c0.1,0.1,0.1,0.2,0.2,0.4
				C236.2,164.7,237.2,164.4,238.3,164z M224.5,212.6c-2.4,1.6-5,2.2-7.8,2.1c-0.3,0-0.8-0.2-0.9-0.3c-0.1-0.3,0.1-0.8,0.3-1
				c0.3-0.3,0.7-0.6,1-0.7c1.2-0.5,1.9-1.4,2.1-2.6c0.9-4,0.5-7.8-2.3-11.1c-1.2-1.5-2.4-3-3.5-4.6c-0.6-0.9-1.1-1.1-2.2-0.7
				c-5,2.1-10.2,3.1-15.7,3.1c-6-0.1-11.3-2.1-16.4-5.1c-1.5-0.9-3-1.9-4.5-2.9c-0.1,0.1-0.2,0.1-0.3,0.1c-1,3.6-2.4,7.1-2.4,11
				c0,2-0.2,4-0.4,6c-0.1,1.2,0.6,1.9,1.4,2.6c0.8,0.7,1.7,1.3,2.5,1.9c0,0.2-0.1,0.3-0.1,0.5c-0.6,0-1.2,0-1.8,0
				c-3.8-0.3-6.8-2.2-9.7-4.4c-0.6-0.5-1.3-1-1.9-1.5c-1.9-1.5-3.9-2.4-6.3-1.2c-0.3,0.1-0.6,0.1-1,0.1c-0.1-0.1-0.2-0.2-0.3-0.3
				c0.7-1.2,1.4-2.4,2.3-3.9c-1.9-0.1-3.7-0.2-5.5-0.3c0-2,1.4-3.4,4.1-3.8c-0.6-0.4-1.1-0.8-1.7-1.3c1.3-1.4,2.8-1.9,4.5-1.6
				c2.7,0.4,4.9,1.6,6.2,4.1c0.6,1.1,1.2,2.1,1.9,3c0.3,0.4,0.9,0.7,1.4,1c0.3-0.5,0.7-0.9,0.8-1.5c0.5-2.9,1-5.7,1.5-8.6
				c0.3-1.3,0.8-2.4,1.1-3.7c0.1-0.4,0.1-1-0.2-1.3c-2.6-2.7-3.3-6-3.7-9.5c-0.1-0.5-0.2-1.1-0.5-1.4c-4.1-4.2-4.6-9.1-3.1-14.5
				c0.4-1.4,0.8-2.8,1.4-4.1c1.9-4.7,2.6-9.6,2.5-14.6c0-0.1,0-0.3,0-0.4c-0.2-2.7-0.2-2.7-2.8-2.2c-2.5,0.5-4.9,0.7-7.3-0.4
				c-0.3-0.2-0.9-0.1-1.2,0.1c-5.5,2.8-11.3,2.8-17.2,1.9c-2-0.3-4-0.4-6-0.6c-2.1-0.3-4,0.5-5.6,1.8c-2.2,1.7-4.4,3.5-6.6,5.1
				c-1.8,1.3-1.8,1.2-3.1-0.5c-0.9-1.2-1.8-2.5-2.8-3.7c-2.1-2.4-2.8-5.1-2.2-8.4c0.5-2.8,0.5-5.6,1.1-8.4
				c1.4-6.9,4.8-12.5,11.1-16.1c0.6-0.3,1.2-0.8,1.5-1.3c1.5-2.1,3.6-2.6,5.9-2.5c3.4,0.2,6.5,1.5,9.5,3.4c2.2,1.4,4.5,2.3,6.8,3.5
				c0.7,0.3,1,0.1,1.3-0.7c0.7-1.6,1.7-3,2.5-4.5c0.2-0.4,0.3-0.8,0.4-1.3c0.2-1,0.3-2.1,0.6-3.1c0.8-2.1,2.4-3.2,4.6-3.3
				c1.9-0.1,3.8-0.2,5.5-1.5c0.4-0.3,1-0.6,1.4-0.4c1.3,0.4,1.8-0.3,2.5-1.1c1.7-2.1,4.1-2.3,6.5-2.6c0.1,0.1,0.1,0.2,0.2,0.3
				c-0.3,0.2-0.6,0.3-0.8,0.5c-0.3,0.4-0.5,0.8-0.7,1.2c0.4,0.2,0.9,0.5,1.3,0.5c1.9-0.3,3.7-0.9,5.5-1c1.5-0.1,3.1,0.3,4.7,0.5
				c0.2,0,0.4,0.3,0.7,0.6c-1.5,0.6-2.8,1.1-4.1,1.6c0,0.2,0.1,0.3,0.1,0.5c0.4,0,0.9,0.1,1.3,0.1c1.7,0.2,3.2,0.8,3.9,2.5
				c0.1,0.3,0.1,0.8,0.1,1.2c-0.4,0-0.7,0-1.1-0.1c-0.7-0.2-1.5-0.4-2.3-0.4c4,2.2,4.6,6.1,5.2,10c0,0.1,0,0.2,0,0.3
				c-1.4,2.3,0.2,4.5,0.2,6.8c0,0.3,0,0.7,0,1c-0.1,0-0.3,0.1-0.4,0.1c-1-1.8-2-3.5-2.9-5.3c-0.2,0-0.3,0.1-0.5,0.1
				c0.4,5.6-1.4,11.3,0.9,17.1c-0.8-0.1-1.5-0.2-2.5-0.4c-0.4,3.4-1,6.9-1.1,10.4c-0.1,3.6,1.2,6.9,2.7,10.2c0.2,0,0.4,0,0.4,0
				c4.9-3.4,10.5-4.5,16.2-5.4c4.3-0.7,8.5-0.6,12.8,0.3c6.7,1.4,11.8,5.2,15.8,10.5c1.4,1.9,2.8,3.9,4.3,6c0.9-1.1,1.8-2.1,2.6-3.1
				c2.7-3.1,5.7-5.9,9.8-7.3c1.1-0.4,2.2-0.6,3.4-0.7c1.6-0.1,2.7,0.7,3.4,2c1,1.9,0.2,3.4-1.9,3.5c-0.3,0-0.6,0-0.6,0
				c0.6,0.4,1.6,0.7,2.1,1.4c0.6,0.7,1,1.7,1.2,2.6c0.3,1.3-0.5,2-1.9,2.5c2.4,0.9,3.9,2.4,3.6,4.9c-0.1,0.8-0.6,1.8-1.2,2.1
				c-0.6,0.3-1.7,0-2.3-0.4c-1.5-1.2-3-2.6-5-3c1.4,1,2.9,1.9,4.3,2.9c1.7,1.3,2.9,2.9,2.5,5.2c-0.1,0.6-0.2,1.2-0.5,1.7
				c-0.9,1.8-2.9,1.9-3.7,0.1c-2.2-5.3-7-7.3-11.6-9.5c-0.8-0.4-1.6-0.6-2.5-1c-1.9,4.9-4.3,9.5-7.6,13.7c-3.3,4.1-7.2,7.4-12,10.2
				c2.4,3,4.7,6,7.2,8.8c1.5,1.6,3.6,1.8,5.7,1.6c1.4-0.1,2.8-0.2,4.2-0.2c0.3,0,0.6,0.2,1.2,0.3c-0.7,0.5-1,0.7-1.3,0.9
				c-2.6,0.9-4.1,2.9-5.2,5.3C227.2,209.9,226.1,211.5,224.5,212.6z M201.4,195.7c16.2-2.7,27-12,33-27.1c0.4-1.1,0.4-2.1-0.3-3
				c-2.1-3-4.1-6.1-6.4-9c-2.6-3.3-5.9-5.9-9.9-7.5c-4.5-1.8-9.2-2.3-14-1.9c-8.3,0.7-16.1,2.4-22.3,8.6c-0.2,0.3-0.6,0.4-0.9,0.6
				c-0.1-0.1-0.1-0.2-0.2-0.4c0.7-0.7,1.4-1.4,2.3-2c0.9-0.7,1-1.3,0.6-2.4c-2.2-5-3.2-10.1-1.8-15.5c0.4-1.6,0.4-3.2,0.6-4.8
				c0.1-0.5,0.3-0.9,0.4-1.4c0.4,0.2,0.9,0.4,1.1,0.5c0-4.7,0-9.5,0-14.4c0-1.1,0-2.1,0-3.2c0.2-0.1,0.3-0.1,0.5-0.2
				c0.9,1.1,1.8,2.2,2.7,3.3c0.1-3.2-1.8-5.3-3.8-7.5c0.1-0.2,0.3-0.3,0.4-0.5c1.1,0.4,2.1,0.8,3.5,1.3c-0.8-1.6-1.2-3.2-2.1-4.4
				c-0.9-1.2-2.4-2-3.6-3.1c1.2-0.9,2.6-0.4,4-0.4c-1.3-2.4-3.7-1.9-5.8-2.1c0.6-1.7,2-2.2,3.3-2.9c-1-0.1-1.9-0.2-2.8-0.1
				c-1.7,0.2-3.4,0.6-5.1,0.9c-2,0.4-2.6,0.1-3.3-1.8c-1.5,0-2.6,0.8-3.5,2c-0.7,1-1.5,1.9-3,1.2c-0.2-0.1-0.7,0-0.9,0.2
				c-1.6,1.4-3.7,1.5-5.7,1.7c-2.7,0.2-4.2,1.8-4.3,4.7c2-1,3.9-1.3,5.8,0.1c-0.7,0.1-1.4,0.1-2,0c-1.9-0.6-3.5,0.2-4.2,2.1
				c-0.1,0.2-0.3,0.4-0.4,0.6c-0.8,1.3-1.8,2.4-2.3,3.8c-0.7,1.7,0,2.3,1.9,2c0-0.3,0-0.7,0.1-1c0.3-1.6,0.5-3.2,1.1-4.7
				c0.6-1.6,2.4-2.5,4-2.1c1.3,0.3,2.1,1.4,1.9,3.3c-0.1,1.2-0.5,2.4-0.7,3.6c-0.1,0.5-0.3,1-0.5,1.7c1.6-0.2,2,0.8,2.4,1.8
				c1.3,3.3,1.4,6.7,1,10.1c-0.4,2.9-1.1,5.8-1.7,8.9c3.9-3.2,6.1-7.3,7.7-12.2c-1.4,0.7-2.5,1.2-3.5,1.7c1.2-2.1,7.5-4.2,9.8-3.3
				c-0.8,0.2-1.4,0.4-1.9,0.4c-2.2,0.1-3.6,0.8-4.4,3.2c-1.7,5.2-4.9,9.4-9.8,12.2c-0.2,0.1-0.5,0.2-0.7,0.3
				c0.6,0.5,0.8,0.6,1.1,0.7c0.3,0.1,0.6,0.2,0.9,0.2c3.6,0.3,7.1-0.2,10.1-2.3c5.6-3.9,9.5-9.2,11.4-15.9c1.1-4,1.2-7.9-2.6-10.9
				c-0.2-0.1-0.2-0.4-0.3-0.6c0.4,0,0.6,0.1,0.8,0.3c2.4,1.9,3.3,4.3,3.3,6.9c0,0.8-0.1,1.7-0.3,2.5c-1.5,8.2-6.1,14.4-13.1,18.9
				c-0.7,0.4-0.9,0.8-0.8,1.6c0.2,1.2,0.4,2.4,0.4,3.6c-0.1,4.7-0.7,9.2-2.5,13.6c-0.6,1.4-1,2.8-1.4,4.3c-1.7,6.2-0.2,11.4,5,15.4
				c1,0.8,1.9,1.6,2.9,2.4c0.3,0.3,0.6,0.7,0.9,1.1c-0.1,0.1-0.2,0.2-0.4,0.4c-1.4-1.2-2.9-2.4-4.3-3.6c-0.2,0.2-0.2,0.2-0.3,0.3
				c0,0.1,0,0.2,0,0.3c0.5,3.8,1.6,7.3,4.9,9.7c1.7,1.2,3.3,2.4,5,3.6C185.3,194.8,192.9,197.2,201.4,195.7z M220.2,208.2
				c-0.2,1.7-0.5,3.4-2.1,4.5c-0.3,0.2-0.3,0.7-0.5,1.1c-0.2,0-0.6,0-0.9,0c4.4,0.6,8.3-1.5,10.4-5.5c1-1.9,2.3-3.6,3.6-5.6
				c-0.5-0.1-1.2-0.5-1.9-0.4c-2.6,0.3-4.8-0.4-6.5-2.3c-1.1-1.2-2.1-2.6-3.2-3.9c-1-1.3-1.9-2.6-2.9-3.9c-0.9-1.1-1.6-0.2-2.3,0.2
				c-0.9,0.4-0.2,1,0.1,1.4c1.1,1.5,2.2,3.1,3.4,4.5C219.9,201.3,220.6,204.6,220.2,208.2z"/>
		</g>
		<g>
		</g>
	</g>
	<path d="M185.5,170.8c0.2-1,0.3-2,0.6-3c0.7-1.9,1.4-3.9,2.2-5.7c0.5-1,1.1-1.9,1.9-2.7c1.4-1.5,2.8-1.4,4.4-0.2
		c0.3,0.2,1,0.3,1.3,0.2c1.6-0.6,3-0.6,4.2,0.8c0.2,0.3,0.9,0.3,1.4,0.2c2.6-0.5,4,0.4,4.8,3c0.1,0.4,0.6,0.8,1,1
		c1.7,0.8,2.8,1.9,2.6,4c0,0.3,0,0.6,0.1,0.9c0.8,2.3-0.2,4-1.8,5.5c-2.4,2.3-5.3,3.8-8.4,4.8c-1.6,0.5-3.3-0.1-4.9,0.5
		c-0.8,0.3-2.1-0.4-3-0.9c-1.5-0.9-2.9-2-4.2-3.1C186.2,174.7,185.5,172.9,185.5,170.8z M204.5,167.1c0-0.1-0.1-0.2-0.1-0.2
		c-1.1,0.4-2.4,0.6-3.2,1.4c-2.5,2.5-4,5.7-4.3,9.2c-0.1,1.4,0.7,2.1,2.1,1.7c3.5-0.9,6.6-2.5,9.1-5.1c2.8-2.9,2-5.8-1.9-6.8
		C205.6,167.1,205.1,167.1,204.5,167.1z M185.8,171c0.5,1.3,0.8,2.7,1.5,3.6c1.7,2.2,4,3.8,6.7,4.8c0.4,0.1,0.8,0.2,1.1,0.2
		c0.9,0,1.3-0.5,1.3-1.4c0.1-2.5-0.6-4.9-1.5-7.2c-0.7-1.7-1.6-3.4-2.8-4.9c-1.4-1.9-3.4-1.8-4.6,0.2
		C186.7,167.7,186.4,169.4,185.8,171z M196.8,174.6c0.1-0.4,0.2-0.6,0.2-0.8c-0.1-2.5,0-5-0.4-7.4c-0.3-2.1-1.1-4.2-2-6.2
		c-0.7-1.5-2.1-1.7-3.5-0.8c-1.8,1.2-2.5,3-3,5.2c2.2-1,3.7,0,4.8,1.6c0.7,0.9,1.3,2,1.8,3.1C195.5,170.9,196.1,172.7,196.8,174.6z
		 M197.7,170c0.3-0.7,0.5-1,0.6-1.3c1.2-2.7,3.1-4.4,6.2-4.7c1.4-0.1,1.7-0.8,0.8-1.9c-0.4-0.5-1-0.9-1.5-1
		c-2.2-0.6-5.7,1.2-6.6,3.2c-0.1,0.2-0.2,0.4-0.1,0.6C197.2,166.4,197.4,168,197.7,170z M197.7,172.3c0.5-0.9,0.9-1.6,1.4-2.4
		c2.2-3.6,5.8-4.4,9.4-2.3c0.3,0.2,0.6,0.3,1,0.6c0-1.3-0.5-2.2-1.4-2.8c-1.3-0.8-2.8-1.1-4.3-0.7
		C200.7,165.3,198.1,168.5,197.7,172.3z M196.7,163.4c0.9-0.7,1.8-1.4,2.6-2.1c0.2-0.1,0.2-0.3,0.4-0.5c-0.6-0.4-1.3-1-1.9-1.1
		c-0.8-0.1-1.7-0.1-2.1,1c0,0,0,0.1,0,0.1C196.1,161.6,196.4,162.5,196.7,163.4z"/>
	<path d="M175.3,109.2c-0.3,4.4-1.4,7.7-4.4,10c-3.1,2.4-7,1.5-8.8-2c-2.3-4.3-0.8-11,3-14.1c3.5-2.7,7.4-1.8,9.2,2.2
		C175,106.8,175.1,108.4,175.3,109.2z M161.3,112.7c0.4,1.5,0.7,3,1.3,4.4c1.5,3.1,4.8,4,7.7,2c2.4-1.6,3.6-4,4.2-6.7
		c0.1-0.3-0.2-0.9-0.5-1c-2.7-1.5-5.7-2.5-8.8-2.3C163.2,109.1,161.3,109.8,161.3,112.7z M161.9,109.4c4.6-2,8.7-0.3,12.7,1.3
		c0.4-1.7-0.1-4.4-1.3-6.1c-1.4-2.2-3.8-3.1-6.1-2.1C164.3,103.9,162.8,106.3,161.9,109.4z"/>
	<path d="M178.6,103.7c-0.7,0.8-1.4,0.8-2.2,0.4c-1-0.6-2-1.3-3-2c-3-2.2-4.5-2.2-7.6-0.1c-1.1,0.7-2.1,1.6-3.2,2.3
		c-0.5,0.3-1.2,0.5-2.1,0.8c0.2-0.5,0.2-0.7,0.3-0.8c1.8-1.3,3.6-2.7,5.5-3.7c2.9-1.6,5.9-1.5,8.7,0.6
		C176.1,102,177.3,102.8,178.6,103.7z"/>
	<path d="M153.7,115.5c0.4,0.2,1.2,0.4,1.8,0.7c0.9,0.5,0.7,1.3-0.2,1.7c-0.9,0.4-2.8,0-3.5-0.7c-0.6-0.6-0.4-1.3,0.4-1.6
		C152.6,115.5,153,115.5,153.7,115.5z M154.2,117.9c0.5-0.3,0.9-0.5,1.3-0.8c-0.3-0.3-0.5-0.8-0.9-0.9c-0.8-0.1-1.6-0.1-2.5,0
		c-0.1,0-0.2,0.5-0.1,0.5C152.7,117.1,153.4,117.5,154.2,117.9z"/>
	<path d="M166.3,114c0,1.5-0.7,2.4-1.8,2.4c-1.2,0-2.1-1.2-2.2-2.7c0-1.4,0.8-2.5,1.8-2.5C165.3,111.1,166.3,112.4,166.3,114z"/>
</g>
</svg>
