<?xml version="1.0" encoding="utf-8"?>
<!-- Generator: Adobe Illustrator 17.1.0, SVG Export Plug-In . SVG Version: 6.00 Build 0)  -->
<!DOCTYPE svg PUBLIC "-//W3C//DTD SVG 1.1//EN" "http://www.w3.org/Graphics/SVG/1.1/DTD/svg11.dtd">
<svg version="1.1" id="Layer_1" xmlns="http://www.w3.org/2000/svg" xmlns:xlink="http://www.w3.org/1999/xlink" x="0px" y="0px"
	 viewBox="0 0 288 216" enable-background="new 0 0 288 216" xml:space="preserve">
<g>
	<path d="M228.7,112c0.7-1.1,1.5-2.1,2.1-3.2c0.3-0.6,0.6-1.2,0.7-1.9c0.3-1.6,1.2-3.2,2.6-4.3c-0.1,0.2-0.2,0.3-0.3,0.5
		c-0.9,1.3-1.6,2.5-1.9,4.1c-0.4,1.9-1.6,3.4-3,4.7C228.9,111.9,228.8,111.9,228.7,112z"/>
	<path d="M232.5,138.7c0.4,0.1,0.8,0.2,1,0.4c0.9,0.6,1.7,1.3,2.6,2c0.1,0.1,0.2,0.1,0.3,0.2c0,0-0.1,0.1-0.1,0.1
		c-1.3-0.8-2.5-1.6-3.8-2.5C232.4,138.9,232.4,138.8,232.5,138.7z"/>
	<path d="M239,142c-1.1-0.7-2.1-1.4-3.2-2.1c0-0.1,0.1-0.1,0.1-0.2C237.1,140.2,238.1,141,239,142z"/>
	<path d="M197.6,166.1c0.3-0.8,0.6-1.6,1-2.5c0.1,0,0.2,0.1,0.4,0.1c-0.3,0.8-0.7,1.6-1,2.4C197.8,166.2,197.7,166.1,197.6,166.1z"
		/>
	<path d="M199.7,161.8c0.5-0.9,0.9-1.8,1.4-2.7c0.1,0,0.2,0.1,0.2,0.1c-0.2,1-1,1.8-1.4,2.7C199.8,161.9,199.8,161.9,199.7,161.8z"
		/>
	<path d="M207.3,149.4c-0.4,0.8-0.8,1.6-1.2,2.4c-0.1,0-0.1-0.1-0.2-0.1c0.4-0.8,0.7-1.6,1.1-2.4
		C207.1,149.3,207.2,149.4,207.3,149.4z"/>
	<path d="M224.3,115.9c0.4-0.7,0.9-1.5,1.3-2.2c0.1,0,0.2,0.1,0.2,0.1c-0.5,0.7-0.9,1.5-1.4,2.2C224.4,116,224.3,116,224.3,115.9z"
		/>
	<path d="M237.7,98c-0.4,0.6-0.7,1.2-1.1,1.9c-0.1,0-0.2-0.1-0.2-0.1c0.3-0.6,0.7-1.3,1-1.9C237.5,97.9,237.6,97.9,237.7,98z"/>
	<path d="M196.1,167.5c0.2-0.6,0.4-1.2,0.7-1.7c0.1,0,0.2,0.1,0.3,0.1c-0.2,0.6-0.4,1.2-0.6,1.7
		C196.3,167.6,196.2,167.6,196.1,167.5z"/>
	<path d="M236.7,166.3c-0.3-0.6-0.7-1.2-1-1.9C236.4,164.7,236.8,165.4,236.7,166.3z"/>
	<path d="M174.9,151.1c-0.4-1.3-0.8-2.6-1.2-3.8c0.1,0,0.1-0.1,0.2-0.1c0.1,0.3,0.3,0.5,0.3,0.8c0.4,1.4,0.8,2.8,1.2,4.2
		c0.2,0.6,0.3,1.3,1,1.5c0.1-0.2,0.1-0.4,0.2-0.6c0.1,0.1,0.2,0.1,0.3,0.2c0.2,1.1,1.1,1.4,1.9,1.9c0.5,0.3,0.8,0.8,1.3,1.2
		c0.1,0.1,0.2,0.3,0.3,0.3c1.7,0.4,1.9,1.8,2.3,3.1c-0.7-0.9-0.9-2.3-2.6-2.6c-0.2-1.1-1.2-1.7-2.4-2c-0.1,0-0.2,0.1-0.3,0.1
		c0.1,0.5,0.1,1,0.4,1.4c0.5,0.9,1.2,1.8,1.7,2.6c0.2,0.4,0.5,0.7,0.6,1.2c-1.2-1.4-2.6-2.6-2.9-4.5c-0.2-1.2-0.6-1.7-1.7-2
		c-0.3-0.1-0.5-0.4-0.7-0.7c-0.5-1.2-1-2.5-1.6-3.8c-0.2-0.4-0.3-0.8-0.5-1.2c-0.1-0.2,0-0.4,0.1-0.6c0-0.1,0.3-0.1,0.4-0.1
		c0.1,0.1,0.1,0.3,0.2,0.5c0.3,1,0.7,2.1,1,3.1C174.8,151.2,174.9,151.1,174.9,151.1z"/>
	<path d="M172.7,136.7c0.2,1.7,0.3,3.3,0.5,4.9c0.1,0.7,0.4,1.5,0.7,2.1c0.7,1.6,1.5,3.3,1.6,5.3c-0.1-0.3-0.2-0.4-0.3-0.5
		c-0.7-1.5-1.4-3.1-2-4.6c-0.3-0.9-0.5-1.9-0.7-2.8c-0.1-0.3,0-0.7,0-1.1c0-1.2-0.1-2.4-0.6-3.6c-0.4-0.9-0.5-2-0.7-3
		C171.7,134.5,172.2,135.6,172.7,136.7L172.7,136.7z"/>
	<path d="M171.8,116.8c-0.2,0.3-0.5,0.7-0.6,1c-0.8,1.6-1.1,3.2-1.2,4.9c-0.2,2.1-0.2,4.2-0.3,6.3c0,0.2,0,0.4,0,0.7
		c0.2-0.1,0.4-0.1,0.4-0.2c0,1.7,0,3.4,0,5.1c0,0-0.1,0-0.1,0c0-0.4,0-0.8-0.1-1.2c-0.1-0.6-0.4-1.1-0.5-1.7c-0.1-0.7-0.2-1.3-0.2-2
		c0-0.5,0.2-1.1,0.2-1.6c0.3-2.9,0-5.8,0.9-8.6c0.3-0.9,0.8-1.7,1.2-2.6c0.1-0.1,0.2-0.2,0.3-0.2
		C171.7,116.8,171.7,116.8,171.8,116.8z"/>
	<path d="M191.8,171.2c-0.2-0.3-0.4-0.6-0.6-0.9c-0.8-0.9-1.6-1.8-2.9-2.1c-0.5-0.1-0.9-0.5-1.2-0.9c-0.7-0.8-1.4-1.8-2.1-2.6
		c-0.6-0.7-1.3-1.3-2-1.9c-0.2-0.2-0.3-0.4-0.4-0.6c0.8,0.2,1.4,0.4,1.9,1.1c0.8,1,1.6,2,2.3,3c0.5,0.7,1.2,1.3,2,1.6
		c1.5,0.5,2.3,1.7,3.1,3c0.1,0.1,0.1,0.2,0.1,0.4C191.9,171.2,191.9,171.2,191.8,171.2z"/>
	<path d="M181.7,102.5c-0.9,0.1-1.9-0.4-2.1-0.9c-0.2-0.7,0.2-1.9,0.8-2.3c0.6-0.4,1.3-0.3,1.9,0.3c0.3,0.3,0.7,0.7,0.3,1.3
		c-0.3-0.3-0.5-0.6-0.7-0.8C181.1,100.9,180.7,101.6,181.7,102.5z"/>
	<path d="M201.9,174.8c-0.2-0.2-0.3-0.2-0.4-0.3c-0.3,0.2-0.5,0.5-0.8,0.7c0.3,0.2,0.6,0.4,1,0.7c-0.5,0.5-1,0.3-1.5,0
		c-0.6-0.5-0.9-1.4-0.6-1.9c0.3-0.5,1.3-0.5,2-0.1C202,174,202.3,174.3,201.9,174.8z"/>
	<path d="M170.4,129.7c0.1-0.7,0.1-1.5,0.3-2.2c0.2-0.9,0.4-1.7,0.1-2.6c-0.2-0.6-0.1-1.4,0.1-2.1c0.2-1.1,0.6-2.2,1-3.2
		c0-0.1,0.1-0.2,0.2-0.3c0.1,0,0.2,0.1,0.2,0.1c-0.2,0.6-0.3,1.3-0.5,1.9c-0.6,1.4-1,2.7-0.3,4.2c0.1,0.2,0.1,0.4,0.1,0.6
		c-0.3,1.2-0.6,2.5-0.9,3.7C170.6,129.7,170.5,129.7,170.4,129.7z"/>
	<path d="M197.3,173.3c-0.1-0.1-0.2-0.2-0.4-0.3c-0.7-0.7-1.4-1.3-2.4-1.6c-1.6-0.5-2.9-1.8-4.2-2.9c0-0.1,0.1-0.1,0.1-0.2
		c0.2,0.1,0.5,0.2,0.7,0.4c0.7,0.5,1.4,1.1,2.1,1.5c0.6,0.4,1.2,0.6,1.8,0.9C196,171.5,196.8,172.2,197.3,173.3z"/>
	<path d="M176.2,105.8c-0.9,2-1.8,4-2.6,5.8c0-0.3,0.1-0.8,0.2-1.4c-0.2,0.2-0.3,0.3-0.5,0.4C173.7,108.7,175.1,107.4,176.2,105.8z"
		/>
	<path d="M177.8,158.3c0.7,0.9,1.3,2,2.1,2.8c0.8,0.8,1.8,1.5,2.6,2.2C180.8,163.2,178.2,160.1,177.8,158.3z"/>
	<path d="M175,114.6c-1.3,2-1.7,4.3-2.1,6.7C172.4,119.8,173.8,115.4,175,114.6z"/>
	<path d="M188.6,166.6c-1.5-1.5-3-3-4.5-4.4c0.1-0.1,0.1-0.2,0.2-0.2c1.5,1.5,3,3,4.5,4.4C188.7,166.5,188.6,166.5,188.6,166.6z"/>
	<path d="M171.3,140.2c-0.3-2.1-0.6-4.1-0.8-6.2C171.3,136,171.1,138.1,171.3,140.2z"/>
	<path d="M193.3,172.8c1.1-0.2,3.2,1.1,3.4,2C195.6,174.2,194.6,173.6,193.3,172.8z"/>
	<path d="M176.5,108.5c0,1.7-1.1,2.8-2.1,4.1C175.1,111.3,175.8,109.9,176.5,108.5z"/>
	<path d="M175.4,108.7c0.7-1.5,1.5-2.9,2.2-4.4c0.4,0.5,0.1,0.8-0.1,1.3c-0.7,1-1.3,2.1-1.9,3.2
		C175.5,108.8,175.5,108.7,175.4,108.7z"/>
	<path d="M171.9,129.6c0.2-1.7,0.4-3.3,0.7-5c0.1,0,0.2,0,0.3,0c-0.1,1.7-0.6,3.3-0.8,5C172,129.6,171.9,129.6,171.9,129.6z"/>
	<path d="M172.7,136.7c-0.1-1-0.2-1.9-0.3-2.9c0.1,0,0.1,0,0.2,0C172.8,134.7,172.9,135.7,172.7,136.7
		C172.7,136.7,172.7,136.7,172.7,136.7z"/>
	<path d="M261,111.6c-0.5-1.3-1.1-2.7-1.6-4c0.1,0,0.2-0.1,0.2-0.1c0.2,0.3,0.4,0.6,0.6,0.9c0.1,0,0.1-0.1,0.2-0.1
		c-0.4-0.6-0.7-1.2-1.1-1.8c-0.7-0.9-1.5-1.8-2.2-2.8c-0.9-1.1-1.7-2.3-2.6-3.4c-0.1-0.2-0.2-0.3-0.3-0.5c0.1,0,0.1-0.1,0.2-0.1
		c0.6,0.6,1.2,1.2,1.7,1.9c0,0,0.1,0,0.1-0.1c-0.2-0.5-0.4-0.9-0.5-1.4c0,0,0.1,0,0.1-0.1c0.3,0.6,0.7,1.3,0.9,1.9
		c0.5,1.4,1.3,2.5,2.3,3.5c1.8,1.8,3.1,4,3.5,6.7c-0.5-1.2-1-2.5-1.6-3.7c-0.1,0-0.2,0-0.3,0.1c0,0.5,0,1,0.1,1.4
		c0.1,0.5,0.3,1,0.4,1.5C261.2,111.5,261.1,111.6,261,111.6z"/>
	<path d="M220,83.3c-0.9,0.3-1.8,0.3-2.7,0.1c-1.5-0.3-2.9-0.3-4.3,0.3c-1,0.4-2,0.5-3.1,0.2c-0.1,0-0.1-0.1-0.2,0
		c-1.6,0.2-3.3-0.3-4.8,0.4c-0.5,0.2-1,0.5-1.4,0.9c-0.4,0.4-1.4,0.8-2.3,0.8c0.4-0.3,0.7-0.4,1-0.6c0,0,0-0.1,0-0.1
		c-0.8,0.2-1.6,0.3-2.3,0.5c0-0.1-0.1-0.1-0.1-0.2c0.2-0.1,0.3-0.3,0.5-0.3c1-0.3,2-0.6,3-0.9c0.4-0.1,0.9-0.2,1.3-0.4
		c1.3-0.7,2.6-0.7,3.9-0.4c1.8,0.4,3.5,0.6,5.2-0.2c1.2-0.5,2.5-0.6,3.9-0.2C218.2,83.2,219.1,83.2,220,83.3z"/>
	<path d="M189.4,94.6c-0.3-0.1-0.5-0.1-0.7-0.1c-0.4-0.1-0.7-0.5-1,0.1c-0.2,0.4,0.2,1.1,0.6,1.3c0.2,0.1,0.4,0.1,0.6,0.1
		c-0.5,0.7-1.5,1-2.1,0.7c-0.5-0.2-0.8-0.9-0.6-1.7c0.2-1.1,0.8-1.8,1.7-1.8C188.6,93.1,189.1,93.5,189.4,94.6z"/>
	<path d="M223.6,84.2c0.5,0.1,1,0.1,1.5,0.2c0-0.1,0-0.1,0.1-0.2c-0.5-0.2-1.1-0.4-1.7-0.6c0.8-0.1,8.3,3.3,8.8,4
		c-0.8-0.3-1.6-0.5-2.4-0.9c-1.6-0.8-3.1-1.4-4.9-1.6c-0.5-0.1-1-0.5-1.5-0.7C223.6,84.3,223.6,84.2,223.6,84.2z"/>
	<path d="M263.7,116.6c-0.1-0.3-0.2-0.6-0.3-0.9c-0.3,0.2-0.5,0.3-0.8,0.5c-0.1-0.2-0.2-0.5-0.4-0.9c-0.8,0.9-0.1,1.7,0,2.4
		c-0.4-0.2-0.8-0.3-1-0.5c-0.2-0.2-0.4-0.4-0.5-0.7c-0.1-0.2-0.1-0.6,0-0.8c0.2-0.3,0.3-0.6,0.5-0.9c0.1-0.2,0.2-0.3,0.4-0.4
		c0.5-0.3,1.6-0.1,2.1,0.4C264.1,115.3,264.1,116,263.7,116.6z"/>
	<path d="M247,91.8c-0.1,0.2-0.2,0.3-0.3,0.5c-1-1.5-2.5-2.4-4-3.4c0.3,0.1,0.6,0.1,0.9,0.3c0.6,0.4,1.2,0.8,1.8,1.2
		c0.4,0.2,0.8,0.3,1.2,0.6c0.3,0.1,0.6,0.3,0.8,0.6c0.7,1.2,1.7,2.1,2.9,2.8c1.1,0.6,1.8,1.6,2.5,2.9c-0.3-0.2-0.4-0.3-0.5-0.5
		c-0.1-0.1-0.2-0.3-0.3-0.4c-0.5-0.4-0.9-1-1.4-1.3c-1.3-0.8-2.5-1.6-3.3-3C247.2,91.9,247.1,91.9,247,91.8z"/>
	<path d="M229,83.4c-0.1-0.1-0.1-0.1-0.2-0.2c-0.2,0-0.4-0.1-0.6-0.1c-0.5-0.1-0.9-0.3-1.4-0.3c-0.2,0-0.4,0.1-0.5,0.1
		c0.1,0.1,0.2,0.3,0.4,0.4c0.9,0.2,1.8,0.5,2.7,0.7c0.1,0,0.1,0,0.2,0C229.3,83.7,229.1,83.5,229,83.4z"/>
	<path d="M189.6,91.6c1.2-1.2,2.6-2,4.3-2.4c0,0.1,0.1,0.1,0.1,0.2c-1.4,0.8-2.8,1.6-4.3,2.4C189.6,91.7,189.6,91.7,189.6,91.6z"/>
	<path d="M240.1,89.3c-1.3-0.7-2.6-1.4-3.9-2.1C237.8,87.5,239.1,88.2,240.1,89.3z"/>
	<path d="M200.2,86.7c-1,0.3-1.9,0.6-2.9,0.9c0.4-0.6,1.7-1.1,2.9-1.1C200.2,86.6,200.2,86.6,200.2,86.7z"/>
	<path d="M192.1,92.3c0.7-0.8,2.4-1.6,3.2-1.4C194.2,91.4,193.2,91.8,192.1,92.3z"/>
	<path d="M241.1,88.8c1,0.8,2,1.5,3.1,2.3c-0.1,0.1-0.1,0.1-0.2,0.2c-1-0.8-2-1.6-3-2.4C241,88.9,241.1,88.8,241.1,88.8z"/>
	<path d="M258.3,106.7c-0.6-0.8-1.2-1.7-1.7-2.5c0.1-0.1,0.2-0.1,0.3-0.2c0.6,0.9,1.1,1.7,1.7,2.6
		C258.5,106.6,258.4,106.6,258.3,106.7z"/>
	<path d="M196.8,88.1c-0.5,0.2-1,0.4-1.6,0.7c0-0.1-0.1-0.2-0.1-0.3c0.5-0.2,1-0.4,1.6-0.7C196.7,87.9,196.7,88,196.8,88.1z"/>
	<path d="M257.8,154.6c0.3-0.5,0.6-0.9,0.8-1.4c0.8-1.5,1.5-3.1,2.3-4.6c0.7-1.4,1.5-2.7,2.2-4.1c0.3-0.6,0.4-1.2,0.6-1.8
		c0.2-1.1,0.4-2.2,0.6-3.2c0.1-0.3,0.1-0.6,0.1-0.9c0.1,0.1,0.2,0.1,0.2,0.1c0.2,2.4-0.1,4.7-1.6,6.7c-0.3,0.5-0.6,0.9-0.9,1.4
		c-0.1,0.3-0.4,0.5,0,0.9c0.1,0.1,0,0.5-0.1,0.6c-0.7,1.1-1.4,2.1-1.6,3.5c0,0.1-0.1,0.2-0.2,0.3
		C259.4,152.8,258.7,153.7,257.8,154.6C257.9,154.6,257.9,154.6,257.8,154.6z"/>
	<path d="M244.1,170.2c-1.5,1.2-3,2.5-5,2.9c0.2-0.1,0.5-0.3,0.7-0.4c1.2-0.6,2.2-1.3,2.6-2.7c0.1-0.4,0.9-0.9,1.3-0.9
		c0.9-0.1,1.4-0.5,1.9-1.1c0.5-0.6,1.3-1,2-1.6C246.9,168.2,245.7,169.4,244.1,170.2c0.1-0.2,0.3-0.4,0.4-0.6
		c-1.1-0.3-1.7,0.2-1.7,1.2C243.2,170.6,243.7,170.4,244.1,170.2z"/>
	<path d="M211,176.7c-0.6,0.2-1,0.4-1.7,0.6c0.2,0.2,0.4,0.5,0.5,0.5c0.4-0.1,0.8-0.3,1.3-0.4c0.1,0.5-0.6,1-1.6,1.1
		c-0.9,0.1-1.4-0.4-1.5-1.6c0-0.8,0.6-1.4,1.6-1.4C210.3,175.6,211.1,176.3,211,176.7z"/>
	<path d="M249.4,165.1c0.6-0.4,1.1-0.9,1.7-1.3c0.4-0.3,0.8-0.7,1-1.1c0.3-1,1-1.6,1.7-2.2c0.5-0.4,0.9-0.8,1.4-1.1
		c-0.3,0.3-0.6,0.7-0.9,1c-0.4,0.5-0.7,1.1-1.1,1.7c-0.3,0.4-0.5,0.7-0.8,1c-0.9,0.8-1.8,1.6-2.7,2.3
		C249.6,165.3,249.5,165.2,249.4,165.1z"/>
	<path d="M236.9,173.1c-2.4,2-5.2,3.3-8.5,3.6c0.1-0.1,0.1-0.1,0.2-0.1c1.6-0.4,3.2-0.8,4.7-1.4c0.6-0.2,1.1-0.6,1.5-0.9
		C235.8,173.5,236.4,173.1,236.9,173.1z"/>
	<path d="M217.6,178.4c-1.3,0.6-2.5-0.1-3.8-0.3c0-0.1,0-0.2,0-0.2c0.3,0,0.7-0.2,1-0.1C215.8,177.9,216.7,178.2,217.6,178.4z"/>
	<path d="M264.7,131.4c-0.7-0.6-0.7-2.5,0-3.2C264.7,129.3,264.7,130.4,264.7,131.4z"/>
	<path d="M220.8,177.3c-1.2,0.5-1.6,0.4-1.9-0.1C219.5,177.2,220.1,177.3,220.8,177.3z"/>
	<path d="M253.7,159.8c0.4-0.5,0.9-1.1,1.3-1.6c0.1,0,0.1,0.1,0.2,0.1c-0.4,0.6-0.8,1.1-1.3,1.7
		C253.8,159.9,253.7,159.9,253.7,159.8z"/>
	<path d="M219.1,112.5c-0.3-0.5-0.5-1-0.7-1.4c-0.1-0.1-0.1-0.3-0.1-0.4c0.1-1.1,0.2-2.2,0.3-3.3c0-0.1,0.1-0.1,0.1-0.3
		C219.4,108.9,218.9,110.7,219.1,112.5z"/>
	<path d="M218.5,91c0.5,1,0.3,4.1-0.3,5.2C218.3,94.5,218.4,92.8,218.5,91z"/>
	<path d="M197.8,118.9c0.8,0.4,1.7,0.9,2.5,1.3c0,0.1-0.1,0.2-0.1,0.2c-0.8-0.5-1.7-0.9-2.5-1.4C197.7,119,197.8,118.9,197.8,118.9z
		"/>
	<path d="M197.7,130.5c-0.3-0.1-0.5-0.2-0.7-0.3c0.6-0.5,1.9-0.2,2.4,0.5c-1,0.2-2.1,0.7-2.9,0.5c-1.9-0.6-3.9-0.1-5.8-0.3
		c-0.5,0-0.9-0.1-1.4-0.2c0-0.1,0-0.1,0-0.2c0.8,0,1.7,0.1,2.5,0.1c0.4,0,0.7,0,1.1,0c0.7,0,1.4,0,2.1,0.1
		C195.9,130.8,196.8,130.9,197.7,130.5z"/>
	<path d="M175.9,131.2c1.6-0.4,7-0.4,8.6,0c-1,0-2.2,0-3.4,0c-0.7,0-1.4,0.3-2.1,0.3C177.9,131.6,176.9,131.6,175.9,131.2z"/>
	<path d="M201.6,139.5c0.4,0.7,0,1-1.7,1.2C200.6,140.3,201.1,139.9,201.6,139.5z"/>
	<path d="M204.7,105c-0.2,0-0.3-0.1-0.6-0.1c0.4,0.7,0.4,1.4,1.2,2c0.5,0.3,0.7,1.2,1,1.9c-1.6-1.8-3-3.7-4-6
		c-0.2-0.4-0.5-0.8-0.8-1.2c-0.2-0.3-0.4-0.6-0.4-0.9c0.7,0.5,1.3,1.1,1.6,1.9c0.4,0.9,0.9,1.7,1.8,2.2
		C204.6,104.8,204.6,104.9,204.7,105z"/>
	<path d="M230.3,129.8c0.1,8.1-5.8,13.4-13,13.3c-6.6-0.1-12.1-5.6-12.2-12.5c-0.1-6.8,5.3-12.9,13-12.8
		C224.6,117.9,230.4,123.4,230.3,129.8z M229,127.6c-0.8-5.4-7.1-9.9-12-8.9c0.3,0.1,0.6,0.3,0.9,0.5c0,0.1,0,0.1-0.1,0.2
		c-1.4-0.3-2.7-0.1-3.9,0.6c1.1-0.1,2.3-0.2,3.5-0.2c0.3,0,0.6,0,1-0.1c0.9-0.3,2,0,2.6,0.8c-0.3-0.1-0.5-0.2-0.7-0.2
		c-0.2,0-0.4,0-0.6-0.1c0,0.1,0,0.1,0,0.2c2.5,0.5,4.6,1.8,6.2,3.7c1.7,2,2.4,4.3,2.3,6.9c-0.4,5.4-3.5,8.6-8.5,10
		c0,0.4,0,0.7,0,0.9c-0.3,0.1-0.6,0.2-0.8,0.3c-0.3-1.1-0.3-1.1-1.5-1.1c-0.4,0-0.9,0-1.3-0.1c-0.7-0.1-1.4-0.4-1.8,0.5
		c0-0.3,0-0.6,0-0.9c0,0-0.1,0-0.1,0c-0.1,0.3-0.2,0.5-0.4,0.8c-0.6-0.3-0.8-0.7-0.7-1.2c-1-0.8-2-1.5-2.8-2.4
		c-0.8-0.9-1.9-1.4-2.4-2.5c-0.1-0.2-0.3-0.4-0.4-0.6c-0.1,0-0.1,0-0.2,0.1c0.1,0.3,0.1,0.8,0.3,1c0.5,0.8,1.1,1.6,1.7,2.4
		c0.1,0.1,0.1,0.2,0.1,0.3c0,0-0.1,0-0.1,0.1c-0.4-0.5-0.9-0.9-1.3-1.4c0,0.2,0.1,0.4,0.2,0.5c4.7,6.4,12.7,6.3,17.4,2.1
		c1.7-1.5,3.1-3.2,3.4-5.5c0.1-0.4,0-0.8,0-1.2c0-0.4-0.2-0.8-0.2-1.1c0-1.8,0.5-3.7-0.4-5.5c0,0,0,0,0.1-0.2
		C228.5,126.6,228.8,127.1,229,127.6z M227.5,130.1c0.1-4.4-4.6-9.4-10.1-9.4c-4.9,0-9.3,4.5-9.4,9.5c-0.1,5.5,4.2,9.9,9.5,10
		C222.8,140.3,227.6,136.3,227.5,130.1z M207.7,124.2c0.3-0.2,0.5-0.3,0.6-0.5c0.8-0.8,1.5-1.6,2.3-2.4c0.3-0.3,0.8-0.6,1.2-0.8
		c1.1-0.5,2.1-1,3.2-1.5C211.9,119.2,208,122.6,207.7,124.2z M205.9,128.9c-0.4,1.9-0.1,3.7,0.6,5.6
		C206.3,132.6,206.1,130.8,205.9,128.9z M206.5,127.3c0.1,0,0.1,0.1,0.2,0.1c0.4-0.9,0.8-1.7,1.1-2.6c-0.1,0-0.1-0.1-0.2-0.1
		C207.1,125.5,206.6,126.3,206.5,127.3z M229.3,128.9c-0.1,0-0.2,0-0.3,0c0.1,0.8,0.1,1.6,0.2,2.5c0.1,0,0.2,0,0.3,0
		C229.4,130.6,229.3,129.7,229.3,128.9z M207.2,129.5C207.2,129.5,207.2,129.5,207.2,129.5c0,0.8,0,1.7,0,2.5c0.1,0,0.1,0,0.2,0
		c0-0.2,0-0.4,0-0.5C207.3,130.8,207.3,130.2,207.2,129.5z"/>
	<path d="M217.6,121.6c5.4,0,8.9,4.2,9,8.8c0.1,6-4.4,9.1-9.4,9.1c-4.3,0-8.4-4.1-8.4-8.9C208.8,125.3,213.4,121.4,217.6,121.6z
		 M219,138L219,138c0.1,0,0.2,0.2,0.3,0.2c1.1-0.1,2-0.7,2.9-1.4c-0.5-0.1-0.7-0.1-1-0.1c0.4-0.3,0.7-0.4,1.1-0.6
		c1.5-0.7,2.8-1.5,3.2-3.3c0.2-1.1,0.7-2.2,0.2-3.3c-0.1-0.3-0.3-0.5-0.4-0.8c0.2-0.1,0.3-0.2,0.5-0.3c-0.2-0.5-0.5-0.9-0.8-1.5
		c-0.3,0.6-0.5,1-0.7,1.4c-0.6-0.7-0.4-1.1,0.2-1.4c-0.2-0.2-0.3-0.3-0.4-0.5c-0.4,0.2-0.9,0.4-1.3,0.7c0.5,0.8,0.9,1.5,1.4,2.2
		c0.3-0.1,0.5-0.2,0.7-0.3c0,0,0.1,0.1,0.1,0.1c-0.5,0.8,0.7,1.4,0,2.3c0-0.4-0.1-0.6-0.1-0.9c-0.4,0.7-0.3,1.2,0.3,1.5
		c-0.2,1.4-0.9,2.5-1.8,3c-0.2-0.9,0.4-1.6,0.7-2.4c0.2-0.8,0.6-1.6,0.3-2.6c-0.1,0.2-0.2,0.4-0.3,0.5c-0.1-0.2-0.2-0.5-0.3-0.8
		c-0.2,0.2-0.2,0.4-0.2,0.5c-0.1,2.3-1.1,4.1-3,5.4c-0.3,0.2-0.5,0.5-0.8,0.5c-0.8,0.1-1.6,0-2.4,0c-1,0-1.9-0.1-2.9-0.2
		c0,0,0,0.1,0,0.1c0.3,0.2,0.7,0.4,1.2,0.7c-0.8-0.1-1.4-0.2-2-0.2c0.1-0.3-0.1-0.5-0.6-0.5c-0.5,0-0.7-0.3-0.6-0.7
		c0.5,0.1,1,0.2,1.5,0.2c0.4-1.1-0.4-1.5-0.9-2c0.1,0.3,0.3,0.7,0.4,1.1c-0.8-0.5-1.1-1-1.9-3.5c-0.3,0.1-0.7,0.1-1,0.2
		c0-0.1-0.1-0.2-0.1-0.3c0.3-0.2,0.5-0.3,0.8-0.5c0.2-0.1,0.4-0.2,0.4-0.4c0.3-0.9,0.6-1.8,0.8-2.7c0.1-0.7,0.5-1.1,1-1.5
		c0.2-0.1,0.4-0.3,0.7-0.6c-0.3,0-0.4,0-0.5,0c0-0.1,0-0.1,0-0.2c3.3-1.4,6.3-0.8,9.1,1.3c0.5-0.5,0.2-0.7-0.4-0.9
		c0.3-0.2,0.6-0.4,0.8-0.6c0.1,0,0.1,0.1,0.2,0.1c-0.1,0.5-0.1,0.9-0.2,1.4c0.1,0,0.1,0.1,0.2,0.1c0.2-0.2,0.6-0.4,0.6-0.6
		c0.2-0.9-0.4-1.8-1.5-2.2c-0.1,0.5-0.2,0.9-0.3,1.6c-0.2-0.3-0.3-0.5-0.3-0.7c-0.1-0.4-0.4-0.5-0.8-0.3c-0.5,0.3-0.8,0-1-0.4
		c-0.1-0.1-0.1-0.3-0.1-0.5c0.2,0,0.4,0,0.6,0.1c0.7,0.4,0.9,0.4,1.5-0.2c-1.9-1.6-6.1-1.4-8.9,0.4c-2.9,1.9-4.1,6-3,9.5
		c1,3.1,4.1,5.3,6.5,5.4c0.1-0.4,0.2-0.9,0.3-1.3c0.1,0,0.2,0,0.3,0c0,0.5,0,0.9-0.1,1.4C217.8,139.1,218.4,138.6,219,138z
		 M217.6,133.4c-1.2-0.1-1.8-0.9-2.5-2.1c0,0.6,0.1,0.9,0.1,1.2c-0.1,0-0.2,0-0.2,0c-0.1-0.2-0.2-0.5-0.2-0.7
		c-0.1-1.4,0.7-2.8,2-3.4c0.9-0.4,1.8-0.7,2.8-1.1c0-0.1,0-0.4,0-0.9c0.5,0.4,0.9,0.7,1.3,1.1c0.4,0.4,0.6,0.9,1.3,0.8
		c-0.1-1.5-2.8-3.3-4.6-3c-3.6,0.6-4.9,3.1-4.7,6.4c0.6,1,1,2.2,2.2,2.9c0.8,0.5,1.7,0.9,2.8,0.7c0-0.2,0-0.4-0.1-0.4
		c-1-0.3-1.9-0.6-3-0.9c-0.1-0.6-0.8-1.1-0.2-1.8c0.5,0.6,0.9,1.1,1.4,1.6c0.8,0.8,1.2,0.8,2.1,0.2
		C217.8,133.8,217.7,133.6,217.6,133.4z M219.6,128.1c0.4,0.8,0.7,1.5,1,2.2c0.1,0.3,0.3,0.5,0.5,0.7c0.1,0.1,0.5-0.1,0.5-0.1
		c0.1-1-0.2-1.8-0.9-2.4C220.4,128.2,220,128.2,219.6,128.1z M218.7,133.1c0.3-0.1,0.5-0.2,0.8-0.2c0.1,0.3,0.2,0.7,0.3,1.1
		c0.9-0.1,0.7-1,1-1.6c0.1-0.1,0-0.3,0-0.5c-0.2,0-0.4,0-0.5,0.1C219.6,132.3,219.2,132.7,218.7,133.1z M218.6,129.3
		c0-0.1,0-0.2,0-0.2c-0.7-0.2-1.4-0.4-2.1,0.1c-0.1,0.1-0.2,0.5-0.2,0.6c0.1,0.2,0.4,0.4,0.5,0.4
		C217.3,129.9,217.9,129.6,218.6,129.3z"/>
	<path d="M219,138c-0.2-1.1-0.4-1.2-2.3-1.6c0.5,0,1,0,1.5,0c0.5,0,1.1,0,1.8,0c-0.4,0.2-0.7,0.3-0.9,0.5c0.1,0,0.1,0.1,0.2,0.1
		C219.2,137.3,219.1,137.7,219,138C218.9,138,219,138,219,138z"/>
	<path d="M210.9,128.4c0-1.2,0.6-2,1.5-2.7C211.9,126.6,211.4,127.5,210.9,128.4z"/>
	<path d="M212,134.1c-0.9,0.6-1.2,0.6-1.4-0.1C211.1,134,211.5,134,212,134.1z"/>
	<path d="M215.3,124c0.2-0.2,0.4-0.4,0.6-0.7c0.1,0.1,0.3,0.3,0.4,0.4c-0.3,0.2-0.5,0.4-0.8,0.6C215.5,124.2,215.4,124.1,215.3,124z
		"/>
	<path d="M217.2,123c0.6-0.4,1-0.2,1.2,0.7C217.9,123.5,217.6,123.3,217.2,123z"/>
	<path d="M214.6,136.9c0.3,0.2,0.6,0.5,0.9,0.7c-0.1,0.1-0.2,0.2-0.2,0.3c-0.3-0.2-0.6-0.5-0.9-0.7
		C214.5,137.1,214.6,137,214.6,136.9z"/>
	<path d="M214.5,127.7c0.2,0.2,0.3,0.4,0.5,0.6c-0.3,0-0.4,0.1-0.5,0.1c-0.2,0.4-0.3,0.8-0.5,1.1c-0.1,0.1-0.3,0.2-0.4,0.2
		c-0.1,0-0.2-0.2-0.3-0.4c-0.1-0.5,0-0.9,0.5-1.1C214.1,128,214.3,127.9,214.5,127.7z"/>
	<path d="M218.3,127.4c-0.3-0.3-0.8-0.6-0.9-1c-0.1-0.2,0.9-0.6,1.3-0.4c1,0.6-0.2,0.9-0.1,1.3C218.4,127.3,218.4,127.3,218.3,127.4
		z"/>
	<path d="M216.6,127.6c-0.4-0.2-0.8-0.4-1.2-0.7c0.3-0.5,0.7-0.4,1-0.1c0.2,0.2,0.2,0.5,0.3,0.8
		C216.7,127.5,216.6,127.6,216.6,127.6z"/>
	<g>
		<path d="M267.2,122.3c-0.9-5.4-2.6-10.5-5.1-15.4c-3.2-6.1-7.4-11.4-12.8-15.7c-3.5-2.8-7.2-5-11.2-6.8c-0.2,0.2-0.4,0.4-0.6,0.6
			c2.4,1,4.8,2.3,7.1,3.8c5.7,3.7,10.4,8.4,14.1,14.2c3,4.8,5.3,9.8,6.6,15.3c0.1,0.2,0.1,0.5,0.1,0.6c-0.8,0.3-1.4,0.7-2.1,0.7
			c-0.7,0-1.5-0.3-2.2-0.6c-0.2-0.1-0.2-0.5-0.3-0.7c-0.4-1.4-0.8-2.9-1.3-4.3c-1.1-3.4-2.4-6.6-4.5-9.6c-1-1.4-2-2.8-2.9-4.1
			c0-0.1-0.1-0.1-0.1-0.2c-2.5-1.8-4.1-4.4-6.7-6.1c-0.4-0.3-0.9-0.6-1.4-0.9c-1.6-0.9-3.1-2-4.7-2.8c-1.9-0.9-3.9-1.8-6-2.4
			c-1.8-0.5-3.6-0.7-5.4-1c-2.2-0.3-4.4-0.7-6.6-0.8c-2.2-0.1-4.4-0.3-6.6,0.2c-1.5,0.3-3,0.3-4.5,0.4c0.9-0.9,3-1.4,4-1
			c0.3-0.4,0.1-0.7-0.3-0.8c-0.4-0.1-0.8,0-1.2,0.1c-1.7,0.3-3.5,0.7-5.2,1.1c-0.1,0-0.3,0-0.5,0c0-0.1,0-0.2,0-0.2
			c0.7-0.1,1.4-0.3,2.1-0.4c0-0.1,0-0.1,0-0.2c-0.4,0-0.9-0.1-1.3,0c-2,0.5-3.9,1-5.9,1.6c0.6-0.1,1.2-0.1,1.8-0.2
			c0.6-0.1,1.2-0.2,1.9-0.2c-0.3,0.2-0.5,0.4-0.8,0.6c0.9-0.1,1.7,0.3,2.6-0.2c0.5-0.3,1.3-0.1,1.9-0.1c0,0.1,0,0.2,0,0.2
			c-0.5,0.1-1,0.2-1.4,0.4c-2.9,0.9-5.8,1.7-8.6,2.8c-1.9,0.7-3.6,1.9-5.4,3c-1,0.6-2,1.2-2.9,1.9c-1.1,0.9-2.1,1.9-3.2,2.9
			c-0.8,0.7-1.6,0.6-2.2-0.2c-0.3-0.5-0.7-0.9-1-1.4c-0.1,0-0.2,0.1-0.3,0.1c0.2,0.4,0.3,0.7,0.5,1c-0.6-0.2-0.6-0.5-1-1.1
			c-0.6-1.1-0.1-1.7,0.7-2.4c3.8-3.4,7.9-6.2,12.5-8.3c4.2-1.9,8.5-3.4,13.1-4c2.2-0.2,4.4-0.6,6.7-0.6c2.6,0,5.3,0.1,7.9,0.4
			c0.8,0.1,1.5,0.2,2.2,0.4c-0.4-0.2-0.7-0.6-0.9-0.9c-2.2-0.3-4.4-0.5-6.7-0.5c-1.4,0-2.7-0.1-4.1,0c-2.6,0.2-5.2,0.5-7.8,0.9
			c-1.1,0.2-2.2,0.7-3.3,1.1c-1.9,0.7-3.8,1.3-5.7,2c-4.9,2.1-9.4,4.7-13.3,8.3c-1,0.9-2.1,1.6-3,2.5c-1,1.1-1.9,2.3-2.9,3.5
			c-4.6,5.5-7.6,11.9-9.7,18.6c-0.6,1.8-0.7,3.7-1.1,5.5c-0.8,4.4-0.8,8.7-0.3,13.1c0.5,4.5,1.5,8.8,3.2,12.9
			c1.4,3.5,3.1,6.9,5.3,10.1c3.4,4.8,7.4,9.1,12.2,12.5c2.4,1.7,4.9,3.2,7.4,4.6c2.4,1.3,5.1,2.1,7.8,2.9c5.9,1.6,11.8,2.4,17.9,1.8
			c5-0.4,9.9-1.6,14.6-3.6c7.6-3.2,14.1-7.9,19.5-14.3c4.4-5.3,7.5-11.3,9.7-17.8c1.1-3.4,1.8-6.9,2.1-10.5
			C267.9,130.4,267.9,126.4,267.2,122.3z M260.4,127c0,0.3,0,0.6,0,0.8c0,0.1,0,0.3-0.1,0.4c-1,0-1.9,0-2.9,0c-4.1,0-8.3,0-12.4-0.1
			c-2.5,0-5-0.1-7.5-0.2c-0.8-0.1-1.7-0.4-2.5-0.7c-0.8-0.3-1.1-1-1.4-1.7c-0.4-1.2-0.4-1.2,0.6-1.8c2.6-1.5,5.2-2.9,7.8-4.4
			c4.5-2.6,9-5.3,13.5-7.9c0.2-0.1,0.5-0.3,0.7-0.2c0.2,0,0.4,0.2,0.5,0.4c0.2,0.6,0.2,1.2,0.4,1.8C259,117.7,260,122.2,260.4,127z
			 M251.7,128.8c0,0.1,0,0.1,0,0.2h-2.5c0-0.1,0-0.2,0-0.3C250,128.7,250.8,128.8,251.7,128.8z M237.5,91.8c0-0.7,0.4-0.9,1-0.6
			c0.7,0.3,1.5,0.5,2.1,0.9c1,0.7,1.1,1.2,0.7,2.1c0.3,0,0.8-0.2,1.1,0c0.4,0.2,0.7,0.6,1,1c0.2,0.2,0.3,0.5,0.5,0.7
			c0.9,0.6,1.8,1.2,2.6,1.9c0.9,0.8,1.8,1.7,2.6,2.6c1.3,1.4,2.5,2.9,3.7,4.3c0.4,0.5,0.7,1,1.1,1.6c-1.1,0.6-2,1.3-3,1.8
			c-3.4,2-6.9,3.9-10.3,5.9c-1.3,0.7-2.5,1.5-3.8,2.2c-1.7,0.8-3.6,1.6-5.3,2.3c-0.5,0.2-0.8,0.1-1.2-0.4c-0.3-0.4-0.7-0.8-1.1-1.1
			c-0.6-0.4-0.6-0.8-0.3-1.3c0.7-1.1,1.3-2.3,2-3.4c1.1-1.9,2.2-3.7,3.3-5.5c1.3-2.2,2.6-4.5,4-6.6c1-1.6,2.1-3.1,3.2-4.7
			c0.2-0.2,0.3-0.4,0.5-0.7l-0.2-0.2c-0.5,0.5-1.1,0.9-1.5,1.4c-2,3.1-3.8,6.3-5.8,9.4c-0.6,0.9-1.3,1.8-1.8,2.8
			c-0.8,1.3-1.5,2.8-2.3,4.1c-0.3,0.6-0.8,1.1-1.3,1.8c-0.1-0.3-0.2-0.4-0.3-0.6c-0.6,1-1.1,1.9-1.6,2.8c0,0,0.1,0.1,0.1,0.1
			c0.4-0.4,0.8-0.8,1.2-1.3c-0.2,0.5-0.4,1-0.5,1.5c-0.1,0.8-0.2,1.5-0.1,2.3c0.1,1.1,1.2,1.5,2.6,1.4c1.3-0.1,2.6-0.7,3.6-1.5
			c0.7-0.6,1.4-1,2.2-1.5l0.2,0.3c-1.7,1.1-3.4,2.2-5,3.2c2.5-0.5,4.8-1.9,7.3-3.3c-0.2-0.1-0.3-0.1-0.6-0.1
			c0.3-0.2,0.5-0.4,0.7-0.4c0.6,0.2,0.8-0.3,1.2-0.5c1.3-0.9,2.7-1.7,4-2.6c0.6-0.4,1.2-0.7,1.8-1.1c0.7-0.5,1.4-1,2.4-1
			c0.6,0,1.3-0.4,1.7-0.8c1.3-1.1,2.5-2.1,4-2.8c0.3-0.1,0.5-0.5,0.7-0.8c0.3-0.4,0.6-0.5,1.1-0.1c0.8,0.6,1.1,1.5,1.3,2.4
			c0,0.3-0.3,1-0.6,1.1c-0.7,0.2-1.2,0.7-2,0.6c-0.5,0-1.1,0.7-1.6,1.1c-0.4,0.3-0.8,0.6-1.2,0.9c0-0.1-0.1-0.1-0.1-0.2
			c0.1-0.1,0.1-0.2,0.2-0.4c-0.1,0-0.2,0-0.2,0c-0.3,0.3-0.6,0.6-1,0.9c-0.4,0.3-0.8,0.7-1.2,0.9c-1.6,0.9-3.2,1.7-4.8,2.6
			c-1.3,0.7-2.5,1.5-3.7,2.2c-0.3,0.2-0.8,0.1-1.1,0.2c-0.6,0.2-1.2,0.5-1.7,0.8c-1.6,1.1-3.3,2.1-4.9,3.3c-0.8,0.6-1.3,1.4-1.3,2.5
			c0,0.3,0.1,0.6,0.3,0.8c0.7,0.8,1.6,1.5,2.8,1.7c0.3,0,0.6,0.3,0.9,0.4c0.3,0.1,0.6,0.2,0.9,0.2c1,0,2.1,0,2.9,0
			c-0.7,0.1-1.5,0.3-2.5,0.5c1.3,0.9,10.2,1.3,11.7,0.5c-3.3,0.1-6.6,0.2-9.9-0.6c0.4,0,0.9-0.1,1.3-0.1c2.2,0,4.4,0,6.5,0
			c0.8,0,1.6-0.1,2.5-0.1c0.2,0,0.5,0,0.7,0c1.5,0.5,3,0.4,4.5,0.4c0.3,0,0.6,0,0.8-0.2c0.5-0.4,1.1-0.2,1.6-0.2
			c0.7,0,1.4-0.1,2.2-0.1c0.8,0,1.6,0,2.4,0.1c0.2,0,0.6,0.4,0.6,0.7c0.1,0.6,0.1,1.2,0,1.8c-0.1,0.5-0.5,0.7-1.1,0.7
			c-2.6-0.1-5.3-0.1-7.9-0.2c-0.7,0-1.4,0-2-0.1c-0.2,0-0.3-0.2-0.5-0.4c-0.1-0.1-0.1-0.2-0.2-0.2c-1.1-0.1-2.2-0.3-3.3-0.4
			c0,0.1,0,0.2,0,0.3c1,0.2,2.1,0.4,3.1,0.5c0,0.1,0,0.2,0,0.2c-1.5-0.1-3-0.2-4.5-0.3c-1.8-0.2-3.6-0.3-5.4-0.5
			c-0.3,0-0.6,0-0.8,0.1c-0.1,0-0.2,0.2-0.3,0.4c-1.5,0-3.1,0-4.8,0c-0.6,0-1.1,0.1-1.5,0.6c-0.2,0.2-0.5,0.3-0.7,0.5
			c-0.1,0-0.1,0-0.2,0.1c-0.3,0.2-0.3,1.9-0.1,2.2c1,1.4,2.5,2.2,3.9,3.1c1.2,0.8,2.6,1.3,3.8,2.1c1.3,0.8,2.5,1.6,3.8,2.4
			c0.1,0.1,0.2,0.2,0.5,0.4c-0.6-0.1-1.1-0.2-1.5-0.2c0,0.1-0.1,0.2-0.1,0.2c0.3,0.1,0.6,0.3,0.9,0.4c0.8,0.4,1.6,0.8,2.5,1.1
			c0.4,0.1,0.8,0,1.2,0.2c1.1,0.5,2.2,1.1,3.3,1.7c1.3,0.7,2.6,1.5,3.9,2.3c0.8,0.5,1.5,1,2.2,1.6c0.5,0.4,0.5,1.1,0.3,1.7
			c-0.3,0.8-0.9,1.4-1.7,1.7c-0.5,0.2-1.4-0.3-1.8-0.9c-0.2-0.3-0.5-0.6-0.8-0.8c-0.3-0.3-0.6-0.5-0.9-0.9c0.3,0.1,0.6,0.2,0.8,0.2
			c0,0,0-0.1,0.1-0.1c-0.1-0.1-0.3-0.3-0.4-0.4c-1.1-0.6-2.2-1.3-3.5-1.2c-0.2,0-0.4-0.1-0.6-0.2c-1.8-1.2-3.7-2.3-5.5-3.5
			c-0.6-0.4-1.1-0.7-1.6-1.2c1,0.2,2,0.3,2.8,1.1c0.5,0.5,1.2,0.7,1.9,1.1c0.6,0.3,1.2,0.5,1.8,0.8c0.2,0.1,0.3,0.5,0.5,0.9
			c0.3,0.1,0.7,0.4,1.2,0.6c0.1,0,0.1,0.1,0.2,0.1c1.5-0.4,2.4,0.8,3.5,1.4c0.2,0.1,0.4,0.2,0.7,0.3c0,0,0.2-0.3,0.2-0.3
			c-0.2-0.2-0.3-0.5-0.6-0.6c-1.4-0.6-2.8-1-4.1-1.7c-1.3-0.7-2.4-1.6-3.6-2.3c-2.5-1.5-5.1-2.9-7.6-4.4c-0.2-0.1-0.5,0-0.7,0
			c-0.2,0-0.4-0.1-0.6-0.2c-0.7-0.5-1.4-1-2.1-1.5c-0.5-0.4-1.1-0.6-1.8-0.3c-0.4,0.2-0.9,0.1-1.5,0.2c0.1,0.2,0.1,0.3,0.2,0.5
			c-0.5,0-1-0.1-1.5-0.1c-1.2,0-1.6,0.5-1.5,1.7c0.1,2.4,1.1,4.4,2.3,6.4c1.3,2.1,2.3,4.3,3.4,6.5c0.4,0.8,0.8,1.8,1.4,2.5
			c1.6,1.9,2.6,4.1,3.8,6.2c0.5,0.9,1,1.8,1.4,2.7c0.8,1.5-0.6,3.3-2.1,3.4c-0.4,0-1-0.4-1.3-0.8c-0.4-0.5-0.6-1.2-0.8-1.9
			c0.2,0.2,0.3,0.3,0.5,0.5c0.1,0,0.1,0,0.2,0c0-0.3,0-0.6-0.1-0.8c-0.2-0.5-0.4-1-0.7-1.4c-1-1.1-1-2.7-1.6-3.9
			c-0.6-1.3-1.1-2.6-1.8-3.9c-0.8-1.4-1.9-2.8-2.8-4.1c-0.1-0.1-0.2-0.2-0.4-0.3c0,0.3-0.1,0.4-0.1,0.6c-0.1-2.1-1.1-3.8-2.2-5.6
			c-0.9-1.5-2.1-2.7-3.4-3.8c-0.6-0.5-1.3-0.5-1.9-0.1c-0.3,0.2-0.6,0.4-0.9,0.6c-0.6,0.5-1,1-1,1.9c0,0.9-0.1,1.9-0.2,3
			c-0.4-0.4-0.6-0.7-0.9-1.2c0,0.3,0,0.5,0,0.6c0.8,1.8,0.5,3.5,0.1,5.3c-0.3,1.4-0.4,2.8-0.6,4.2c0,0.1,0,0.2,0.2,0.3
			c0.2-1.5,0.5-3,0.7-4.5c0.1,0,0.1,0,0.2,0c0.1,0.9,0.2,1.8,0.2,2.7c0,3,0.1,6.1,0.1,9.1c0,2.3-0.2,4.7-0.2,7c0,1.2,0,1.2-1.1,1.4
			c-0.7,0.1-1.5,0-2.2-0.1c-0.7-0.1-0.8-0.8-0.9-1.4c-0.1-0.5,0-1.1,0.1-1.6c0.1,0.7,0.2,1.4,0.3,2.1l0.2,0c0.1-0.3,0.2-0.6,0.4-0.8
			c0.2-0.3,0.4-0.5,0.5-0.7c0.1-0.2,0.2-0.5,0.2-0.8c-0.1-1.8-0.3-3.6-0.3-5.3c0-1.7-0.6-3.2-0.5-4.9c0.1-1.6,0-3.3,0-4.9
			c0-0.9-0.1-1.7-0.1-2.6c1.1,1.5,0.4,3.2,1,4.8c0-0.3,0-0.6,0-0.9c-0.1-1.9-0.2-3.7-0.3-5.6c-0.1-1.2,0-2.4-0.4-3.5
			c-0.4-0.9-0.2-1.9-0.5-2.8c-0.2-0.9-0.6-1.2-1.7-1.3c-0.7,0-1.4-0.2-1.7,0.7c-0.2,0.4-0.1,0.6,0.2,0.7c0.3,0.1,0.7,0.3,1.1,0.3
			c1,0.2,1.2,0.3,1.2,1.4c0,5.2-0.1,10.3-0.2,15.5c0,3.3-0.1,6.7-0.2,10c0,0.9-0.3,1.1-1.2,0.9c-1.2-0.2-2.5-0.4-3.7-0.7
			c-0.7-0.2-1.3-0.6-2-0.8c-0.5-0.1-1-0.1-1.5-0.2c-0.3,0-0.7-0.1-1-0.2c-1.1-0.4-2.3-0.7-3.4-1.1c-0.9-0.4-1.8-1-2.7-1.5
			c-0.1-0.1-0.2-0.4-0.2-0.6c0.1-0.3,0.2-0.7,0.4-1c1.3-2.1,2.1-4.5,3.4-6.6c1.3-2.2,2.6-4.4,3.8-6.6c1.3-2.2,2.6-4.4,3.9-6.6
			c0.5-0.8,1-1.7,1.5-2.5c0,0-0.1-0.1-0.1-0.1c-0.2,0.2-0.5,0.3-0.7,0.5c-0.8,1.1-1.6,2.2-2.3,3.3c-0.9,1.4-1.8,2.9-2.6,4.4
			c-0.3,0.6-0.6,1.2-1,1.8c-1,1.9-1.9,3.8-2.9,5.7c-1.3,2.3-2.6,4.5-3.9,6.8c0,0.1-0.1,0.1-0.1,0.2c-0.5,0.9-0.6,0.9-1.5,0.4
			c-0.6-0.3-1.1-0.7-1.8-1c1.1-2.5,2.5-4.9,4.2-7.1c-0.1-0.1-0.2-0.1-0.3-0.2c-0.3,0.3-0.6,0.6-0.9,1c0,0-0.1,0-0.1,0
			c0.3-0.5,0.7-1,1-1.5c0.4-0.6,0.8-1.3,1.2-1.9c0.3-0.4,0.6-0.6,0.9-0.9c0.3-0.3,0.6-0.5,0.8-0.8c1.2-1.9,2.4-3.7,3.3-5.8
			c0.4-1,1.4-1.9,2-2.8c0.5-0.7,0.8-1.4,1.2-2.1c0.2-0.5,0.4-1,0.6-1.5c0-0.1,0.1-0.2,0.1-0.3c-0.2-0.6-0.1-0.9,0.6-1.1
			c0.7-0.2,1.3-0.2,1.9,0.1c2.3,1.1,4.8,1.8,7.4,1.8c1.8,0,3.3-0.7,4.9-1.3c4.6-1.8,7.2-5.4,8.2-10c0.7-3.3,0-6.5-1.7-9.5
			c-1.5-2.7-3.8-4.5-6.5-5.8c-0.3-0.1-0.5-0.3-0.9-0.4c0.1-0.2,0.3-0.4,0.4-0.6c-0.3-0.1-0.5-0.2-0.8-0.2c-0.1,0-0.1-0.1-0.2-0.1
			c0.9-0.7,1.9-1.3,2.8-2c0.2-0.2,0.5-0.3,0.6-0.6c0.9-1.3,1.7-2.7,2.6-4.1c0.2-0.3,0.4-0.5,0.7-0.8c0.1,1.1-0.6,1.8-1,2.7
			c0,0,0.1,0.1,0.1,0.1c0.4-0.6,0.8-1.2,1-1.8c0.4-1.1,0.8-2.2,1.2-3.2c0.5-1.4,1.5-2.4,2.6-3.5l-0.3,0.8c0,0,0.1,0,0.1,0.1
			c0.2-0.2,0.4-0.4,0.5-0.7c0.4-0.8,0.9-1.6,0.9-2.4c0-1.1,0.6-1.9,1-2.8c0.1-0.2,0-0.6,0.1-0.8c0.1-0.3,0.4-0.5,0.6-0.7
			c0,0,0.2,0.1,0.2,0.1c-0.1,0.2-0.2,0.5-0.3,0.9c0.6-0.5,1.1-0.9,1.6-1.4c-0.3-0.1-0.5-0.1-0.6-0.2c-0.9-0.4-0.9-0.5-0.4-1.4
			c0.5-0.8,1-1.6,1.6-2.4C237.4,92.1,237.5,92,237.5,91.8z M241,114.9l-4.2,2.2c1.3-1,2.6-1.9,4.1-2.4
			C240.9,114.8,240.9,114.8,241,114.9z M262.3,137.4c0.3,0.6,0.2,1.1-0.3,1.7C261.7,138.5,261.8,137.9,262.3,137.4z M262,136.7
			l0.2-1.8c0.1,0,0.2,0,0.4,0.1l-0.3,1.8C262.3,136.7,262.1,136.7,262,136.7z M260.3,134.6c-0.6,4-1.4,7.9-3,11.7
			c-0.2,0.4-0.1,0.9-0.2,1.4c0,0.2-0.1,0.3-0.2,0.4c-0.3,0.4-0.7,0.8-1.1,1.2c-0.1,0.1-0.5,0.1-0.7,0.1c-1.8-1.1-3.6-2.2-5.4-3.2
			c-1.1-0.6-2.3-1.1-3.3-1.8c-2.4-1.4-4.8-2.9-7.2-4.4c-1.8-1.1-3.7-2.1-5.5-3.2c-1.1-0.6-1.1-0.8-0.8-1.9c0.1-0.3,0.2-0.6,0.3-0.9
			c0.1-0.3,0.1-0.6,0.2-0.9c1.2,0,2.4,0,3.6,0c5.6,0.1,11.2,0.1,16.8,0.2c1.2,0,2.4,0.4,3.5,0.5c0.7,0.1,1.4,0,2.1,0
			C260.2,133.6,260.4,133.7,260.3,134.6z M246.3,162.4c-1.6,1.4-3.3,2.6-4.9,3.9c-0.3,0.3-0.7,0.4-0.9-0.1c-0.7-2.2-2.4-3.9-3.4-5.9
			c-2.6-4.9-5.3-9.7-8-14.4c-0.6-1.1-1-2.2-1-3.4c0-0.9,0.3-1.2,1.2-1.2c0-0.1,0-0.1,0.1-0.2c0.9,0.3,1.8,0.6,2.6,1
			c4.5,2.5,8.9,5.1,13.3,7.7c2.4,1.4,4.8,2.8,7.2,4.1c0.8,0.4,0.8,0.5,0.3,1.2C250.8,157.8,248.7,160.3,246.3,162.4z M248.7,163.6
			c-1.4,1.3-2.7,2.6-4.1,3.9l-0.2-0.2c1.1-1.6,2.5-2.8,4.2-3.8L248.7,163.6z M232.6,140.4l2.4,1.6
			C233.7,142.1,232.8,141.5,232.6,140.4z M239.4,144.1c0.2-0.1,0.6,0.3,0.9,0.4l-0.1,0.3c-0.4,0-0.9-0.1-1.4-0.1
			c0.2,0.3,0.4,0.6,0.6,0.9c0,0.1-0.1,0.1-0.1,0.2c-1.4-1.1-2.7-2.1-4.1-3.2c0,0,0.1-0.1,0.1-0.1c1.1,0.3,2.2,0.6,3.3,0.9l0,0.2
			c-0.1,0-0.3-0.1-0.6-0.1C238.4,143.7,238.6,144.3,239.4,144.1z M252.6,159c0.1-0.1,0.3-0.1,0.4-0.2c0,0.1,0,0.3-0.1,0.4
			c-0.5,0.5-0.9,1-1.4,1.5c0-0.1-0.1-0.1-0.1-0.2C251.8,160,252.2,159.5,252.6,159z M221.3,146.9c1.9-0.5,1.5-0.7,2.4,0.8
			c3.2,5.8,6.4,11.6,9.5,17.4c0.6,1.1,1.3,2.2,1.9,3.4c0.2,0.3,0.4,0.7,0.5,1.1c-2.6,1.9-12.5,4.5-15.9,4.3c0-5,0-10.1,0-15.1
			c0-3.2,0.1-6.4,0.1-9.7C219.8,148,220,147.2,221.3,146.9z M220.3,146.3c0.6-0.7,1.2-0.8,2-0.2C221.6,146.2,221,146.2,220.3,146.3z
			 M225.7,150c0.1,0,0.2-0.1,0.2-0.1c0.6,1.1,1.2,2.1,1.8,3.2c-0.1,0.1-0.2,0.1-0.3,0.2C226.8,152.2,226.2,151.1,225.7,150z
			 M234.4,165.5c-0.1,0-0.1,0.1-0.2,0.1c-1.5-2.7-3.1-5.5-4.6-8.2c0.1,0,0.1-0.1,0.2-0.1C231.3,160.1,232.9,162.8,234.4,165.5z
			 M232.3,160.8c0.1-0.1,0.2-0.1,0.3-0.2c0.2,0.4,0.4,0.9,0.6,1.3c-0.1,0-0.2,0.1-0.3,0.1C232.8,161.7,232.6,161.3,232.3,160.8z
			 M184.7,110.1c2.7,1.6,5.5,3.1,8.2,4.7c2.4,1.4,4.7,3,7,4.5c0.8,0.5,1.6,1.2,2.7,1.3c0.5,0,1,0.5,1.2,0.6c0.1,0.3,0.2,0.5,0.3,0.7
			c0.1,0.3,0.2,0.6,0.1,0.8c-0.6,1.5-1.6,1.7-2.8,0.8c-1.5-1-2.9-2.1-4.4-3.1c-0.4-0.3-0.8-0.5-1.2-0.7c-1.7-0.9-3.5-1.8-5.2-2.7
			c-0.2-0.1-0.4-0.4-0.8-0.7c1.4,0.1,2.6-0.1,3.6,0.9c0.3,0.3,0.8,0.4,1.2,0.6c0.8,0.4,1.6,0.9,2.4,1.3c-0.1-0.1-0.2-0.3-0.4-0.5
			c-1.4-0.9-2.8-1.7-4.2-2.6c-0.2-0.1-0.5-0.1-0.8-0.1c-0.9,0-1.8-0.1-2.5-0.9c0,0.2-0.1,0.3-0.1,0.6c-0.8-0.5-1.6-1.1-2.4-1.5
			c-0.8-0.4-1.6-0.8-2.4-1.2c-0.1-0.1-0.3-0.1-0.4-0.1c-1.1-0.6-2.1-1.3-3.2-1.9c-0.9-0.5-0.9-1.5-0.1-2.1c0.1-0.1,0.3-0.1,0.3-0.2
			c0.1-0.5,0.3-0.7,0.9-0.5c0.4,0.1,0.7,0.2,1,0.5C183.3,109.1,184,109.6,184.7,110.1z M183.3,107.7c0-0.1,0.1-0.1,0.1-0.2
			c0.7,0.5,1.4,0.9,2.1,1.4c0,0.1-0.1,0.1-0.1,0.2L183.3,107.7z M186.9,111.2c1.2-0.2,2.7,0.6,3.7,2
			C189.4,112.5,188.2,111.9,186.9,111.2z M185.9,114.7c4.9,2.9,9.7,5.9,14.6,8.8c0.8,0.5,1.4,1.8,1.2,2.7c-0.2,0.9-1.1,1.6-2.2,1.6
			c-3,0-6,0-9-0.1c-3.5-0.1-7.1-0.1-10.6-0.2c-1.5,0-2.9-0.1-4.4-0.1c-0.8,0-0.9-0.2-0.8-1c0.4-2,0.6-4,1.1-6
			c0.8-3.3,1.8-6.5,3.7-9.5C181.7,112.2,183.8,113.4,185.9,114.7z M175.5,128.8c1.2,0.2,2.3,0.4,3.5,0c0.3-0.1,0.7,0,1,0
			c0,0.1,0,0.1,0,0.2c-0.3,0.1-0.5,0.2-0.8,0.2l0,0.1c0.3,0,0.6,0,1,0c2-0.1,4.1-0.4,6.1-0.3c2.7,0,5.4,0.4,8.1,0.5
			c1.2,0,2.5-0.1,3.7-0.2c0.4,0,0.8-0.1,1.1-0.1c0.4,0.1,0.7,0.3,1.2,0.5c0.1-0.2,0.2-0.3,0.3-0.5c0.2,0,0.5,0,0.7,0
			c1.1,0.2,1.3,0.4,1.2,1.5c0,1.2-0.5,1.6-1.6,1.5c-1.7-0.1-3.4-0.3-5-0.5c-0.9-0.1-1.8-0.4-2.6,0.3c-0.1,0.1-0.4,0.1-0.6,0.1
			c-3.1,0-6.3,0-9.4-0.1c-2.7,0-5.3-0.1-8-0.1c-0.5,0-0.9-0.1-1-0.5c-0.2-0.5-0.5-1.1,0.1-1.6c0.1-0.1,0.2-0.3,0.2-0.5
			C174.7,128.9,175.1,128.7,175.5,128.8z M176.3,132.8c1.1,0,2.3-0.2,3.4-0.2c4.4,0,8.9,0.1,13.3,0.2c1.9,0,3.8,0.1,5.6,0.2
			c0.3,0,0.6,0,0.8,0c0.8-0.1,1.6,0.2,1.9,0.8c0.4,0.7,0.4,1.9-0.2,2.4c-0.5,0.5-1.1,1-1.8,1.4c-2.5,1.5-5.1,2.9-7.7,4.3
			c-4.3,2.5-8.6,4.9-12.8,7.4c-0.1,0-0.1,0-0.1,0c-0.7-1.1-1.4-2.1-1.9-3.2c-0.7-1.7-1.3-3.5-1.7-5.3c-0.4-2-0.5-4.1-0.7-6.2
			C174.5,132.4,174.5,132.8,176.3,132.8z M181.3,150.1c-0.1,0.2-0.1,0.3-0.2,0.5c-0.5,0.2-1.1,0.5-1.7,0.8
			C179.4,150.5,179.7,150.7,181.3,150.1z M181.1,150.6c1.4-1,2.9-1.9,4.3-2.9c1.6-1,3.2-2,5-2.7c0.7-0.2,1.3-0.7,1.9-1.1
			c1.8-1.1,3.6-2.2,5.4-3.4c0.3-0.2,0.5-0.6,0.8-0.9c0.2-0.2,0.5-0.3,0.8-0.5c0.3-0.1,0.6-0.2,0.8-0.3c1.1-0.6,2.1-1.1,3.2-1.7
			c0.1-0.1,0.3-0.1,0.5,0c0.4,0.1,1.3,1.5,1.1,2c-0.1,0.3-0.4,0.7-0.7,0.9c-1.4,0.8-2.8,1.5-4.2,2.2c-1.7,1-3.4,2-5.3,2.6
			c-0.5,0.1-1,0.4-1.4,0.7c-1.3,1.4-3.1,2.1-4.7,3.1c-2.4,1.5-4.8,2.9-7.1,4.4c-0.6,0.4-1,0.4-1.4-0.2c-0.1-0.2-0.3-0.4-0.5-0.6
			C180.3,151.6,180.7,151.1,181.1,150.6z M206,114.5l1.3,2.2c-0.1,0-0.1,0.1-0.2,0.1c-0.5-0.7-0.9-1.4-1.4-2.1
			C205.9,114.6,205.9,114.6,206,114.5z M205.6,112c-0.9-1.5-1.7-2.9-2.5-4.4c0.1-0.1,0.2-0.1,0.3-0.2c1,1.6,2,3.2,2.9,4.8
			c0,0.1-0.1,0.1-0.1,0.2C205.9,112.3,205.7,112.2,205.6,112z M207.2,114.9c0.7,0.6,1.2,1.2,1.2,2.1c-0.1,0-0.1,0.1-0.2,0.1
			C207.9,116.4,207.6,115.7,207.2,114.9z M207.8,119.7c-0.3,0.9-1.1,1.2-1.7,0.8C206.7,120.2,207.3,120,207.8,119.7z M216,117.4
			c7.2-0.8,13.4,3.6,14.7,10.7c0.7,3.9,0.1,7.5-2.6,10.6c-2.9,3.4-6.6,5.3-11.1,5.1c-6-0.2-11.5-4.6-12.5-11.1
			c-0.1-0.7-0.1-1.5-0.2-2.2C204.4,123.7,209.3,118.1,216,117.4z M208,143.7c-0.2,0.3-0.4,0.7-0.6,1.1c-0.2-0.2-0.2-0.3-0.4-0.5
			c-0.3,0.4-0.6,0.7-0.9,1.1c0,0-0.1,0-0.1-0.1c0.5-0.7,1-1.5,1.4-2.2C207.6,143.3,207.7,143.5,208,143.7z M181.9,153.6
			c0.7-0.5,1.5-1,2.3-1.5c4.8-2.8,9.6-5.5,14.4-8.3c1.5-0.9,3-1.8,4.5-2.7c0.5-0.3,0.8-0.3,1.3,0c0.3,0.2,0.8,0.3,1,0.6
			c0.3,0.4,0.5,0.9,0.8,1.4c-0.3,0.9-0.5,1.7-0.9,2.4c-2.8,4.9-5.6,9.8-8.5,14.7c-1,1.7-2,3.4-3,5.1c-0.5,0.8-0.8,0.8-1.7,0.4
			c-2-0.8-3.2-2.5-4.6-3.9c-1.4-1.5-2.9-3-4.2-4.6c-0.7-0.9-1.2-1.9-1.7-2.9C181.5,154.1,181.7,153.7,181.9,153.6z M204.3,148.2
			c0.1,1.2-0.3,1.8-0.9,2.5c-0.4,0.4-0.7,0.9-1.1,1.4l-0.2-0.1C202.8,150.8,203.5,149.6,204.3,148.2z M220.4,103.9
			c0-3.4,0.1-6.9,0.1-10.3c0-1.7,0.1-3.5,0.1-5.2c0-0.6,0.3-0.8,0.9-0.9c2.3-0.1,4.5,0.5,6.7,0.9c2.8,0.5,5.2,1.7,7.7,2.7
			c0.6,0.2,0.8,0.6,0.5,1.1c-0.3,0.7-0.7,1.4-1,2c-3.4,5.8-6.7,11.6-10.2,17.4c-0.4,0.7-1.1,1.3-1.7,1.9c-0.1,0.1-0.5,0.1-0.8,0.1
			c-0.4-0.1-0.7-0.3-1.1-0.4c-0.2,0-0.5,0.1-0.7,0.2c0,0.1,0,0.1,0,0.2c-0.6-0.1-0.6-0.5-0.6-0.9
			C220.4,109.7,220.4,106.8,220.4,103.9z M216.7,96.7c0.1,0,0.1,0.3,0.1,0.5c0,1.3,0,2.6,0,3.9c0,0.1,0,0.3,0.1,0.4
			c0.1,0,0.1,0,0.2,0c0.1-0.7,0.1-1.5,0.2-2.2c0.1-1.3,0.2-2.5,0.3-3.8c0-0.8-0.1-1.5-0.1-2.3c-0.1,0-0.1,0-0.2,0
			c-0.1,0.1-0.2,0.3-0.3,0.4c-0.1-0.1-0.1-0.2-0.1-0.3c0-0.9,0-1.8,0-2.8c0-0.9-0.1-1.9,0-2.8c0-0.7,0.7-1.1,1.3-1
			c0.1,0,0.3,0.1,0.4,0.1c1.6,0.3,1.9,0.7,1.5,2.3c-0.2,0.7-0.1,1.4-0.1,2.1c0,1.4-0.1,2.7-0.2,4.1c0,1.5,0,3,0.1,4.5
			c0,0.1,0,0.1,0,0.2c-0.9,1.2-0.5,2.6-0.4,3.9c0,0.7,0,1.4,0,2.1c0,1.3,0,2.6,0,3.9c0,0,0.1-0.1,0.2-0.1c0.3,2.1-0.6,4.4,0.9,6.3
			c-0.9,0.3-1.8,0-1.8-0.6c-0.7-0.1-1.5-0.2-2.3-0.4c-0.2,0-0.4-0.3-0.4-0.4c0.1-1.1,0.3-2.1,0.5-3.2c0-0.1,0.1-0.1,0.2-0.4
			c0.1,0.9,0.2,1.7,0.3,2.6c0.1-0.2,0.1-0.3,0.1-0.3c-0.1-2.5-0.1-5.1-0.2-7.6c-0.1-1.1-0.3-2.1-0.5-3.2c-0.1-0.7-0.1-1.4-0.1-2
			c0-1.2,0.1-2.4-0.3-3.5c-0.2-0.5,0-1.1,0.1-1.7c0,0.2,0,0.4,0.1,0.5C216.4,96.1,216.2,96.5,216.7,96.7z M216.6,110.2v-4.5
			c0.1,0,0.1,0,0.2,0v4.4C216.7,110.2,216.6,110.2,216.6,110.2z M216.2,87.4c0.1,1.1,0.2,2.2,0.2,3.3c0,0.1-0.1,0.2-0.2,0.3
			c-0.1,0-0.3-0.1-0.3-0.2C215.9,89.7,215.8,88.5,216.2,87.4z M199.5,91.3c1.6-0.8,3.3-1.4,5.2-1.8c1.6-0.3,3.2-0.9,4.9-1.3
			c1.6-0.3,3.2-0.6,4.8-0.8c0.8-0.1,0.9,0,0.9,0.8c0,1.9,0,3.8,0,5.6c0,0,0,0-0.1,0c-0.1,5.6-0.2,11.1-0.4,16.7
			c0,0.9-0.3,1.9-0.7,2.8c-0.4,0.9-1.4,0.9-2.3,1c-0.7,0.1-0.9-0.5-1.2-0.9c-2.9-5.2-5.8-10.5-8.7-15.7c-0.6-1.1-1.2-2.3-1.8-3.5
			c-0.3-0.5-0.7-1-1-1.5C198.7,92.1,198.8,91.7,199.5,91.3z M209.7,112.9c-0.7,0.1-1-0.3-0.9-1.6
			C209.1,111.8,209.4,112.3,209.7,112.9z M196.6,93.7c0.5,0.8,1.1,1.5,1.6,2.3c0.1,0,0.1-0.1,0.2-0.1c-0.3-0.5-0.6-0.9-0.9-1.4
			c-0.2-0.5-0.4-1-0.6-1.5c0-0.1,0.2-0.4,0.3-0.5c0.1-0.1,0.4,0.1,0.5,0.2c0.9,0.7,1.5,1.6,1.9,2.7c0.4,1,1.1,1.9,1.7,2.9
			c0.5,0.9,0.9,1.8,1.3,2.6c0.3,0.6,0.6,1.1,1,1.7c1,1.6,2,3.3,3,4.9c1,1.6,1.2,3.4,1.8,5.1c0.2,0.5,0.4,0.8,0.9,1.1
			c0.4,0.2,0.6,0.7,0.9,1c0,0,0.1-0.1,0.3-0.2c0.5,0.6,0.4,1.2,0.1,1.8c-0.2,0.6-0.7,0.9-1.3,0.9c-0.8-1.2-1.5-2.3-2.2-3.5
			c-0.3-0.5-0.5-1-0.8-1.5c-1-2-1.9-3.9-3.5-5.5c-0.7-0.6-1.1-1.4-1.4-2.2c-0.3-0.7-0.6-1.4-0.9-2.1c0-0.1-0.2-0.2-0.4-0.1
			c-0.7-0.9-1.5-1.8-1.6-3.2c-0.1-0.8-0.8-1.5-1.3-2.3c-0.6-1-1.3-2-2-3C195.9,93,196.1,93,196.6,93.7z M195.3,95.3
			c0.3,0.5,1,0.8,0.7,1.8c-0.3-0.7-0.6-1.2-0.9-1.7C195.2,95.4,195.3,95.4,195.3,95.3z M186.4,100.6c0.5-0.5,0.8-1.1,1.3-1.7
			c0.2-0.3,0.6-0.4,0.9-0.6c0.1-0.1,0.3-0.2,0.3-0.3c0.1-0.6,0.5-0.7,0.9-0.9c0.7-0.4,1.4-0.9,2-1.3c0.5-0.3,1-0.6,1.5-1
			c0.5-0.3,0.8-0.2,1,0.3c0.7,1.3,1.4,2.5,2.1,3.8c3.2,5.7,6.4,11.4,9.6,17.1c0.6,1,0.4,1.6-0.6,2.1c-0.2,0.1-0.4,0.2-0.6,0.4
			c-0.5,0.6-0.8,0.7-1.6,0.3c-2-1.2-3.9-2.3-5.9-3.5c-5.1-3.1-10.2-6.2-15.2-9.4c-0.1-0.1-0.2-0.1-0.3-0.2c0.3-0.6,0.6-1.1,1-1.6
			C184,103.1,185.2,101.9,186.4,100.6z M203.9,178.3c-0.8-0.3-1.5-0.5-2.3-0.7c-6-2-11.3-5.1-16-9.2c-6.7-5.8-11.4-12.9-14.4-21.2
			c-0.2-0.5-0.1-1.1-0.2-1.6c-0.2-1-0.5-2-0.8-3c-1.1-3.7-1.6-7.4-1.7-11.2c-0.1-2.5,0.3-4.9,0.6-7.3c0.2-1.8,0.3-3.6,0.8-5.3
			c0.4-1.7,1-3.3,1.8-4.9c0.9-1.8,1.5-3.7,2.2-5.6c0.2-0.5,0.6-1,0.9-1.5c1-1.6,1.9-3.3,3-4.9c1.3-1.8,2.7-3.4,4.1-5.1
			c0.6-0.7,0.7-0.6,1.3,0.2c0.6,0.8,1.3,1.5,2,2.2c0.7,0.7,0.8,0.8,0.1,1.5c-0.6,0.7-1.3,1.2-1.9,1.8c-0.8,0.7-1.5,1.5-2.3,2.2
			c0.1,0.1,0.1,0.2,0.2,0.2c0.4-0.4,0.8-0.7,1.2-1.1l0.1,0.1c-0.4,0.5-0.8,1-1.1,1.6c-1,1.5-1.9,3.1-2.9,4.6
			c-0.2,0.3-0.2,0.9-0.9,0.7c0,0-0.2,0.1-0.2,0.2c-0.3,0.6-0.5,1.1-0.7,1.7c0,0,0.1,0,0.1,0.1c0.3-0.4,0.6-0.8,0.8-1.2
			c0.1,0,0.1,0.1,0.2,0.1c-0.5,0.8-1,1.7-1.5,2.5v-1.7c-0.1,0-0.1,0-0.2,0c-0.1,0.6-0.3,1.2-0.4,1.7c0,0,0,0.1,0,0.1
			c0.7,0.7-0.1,1.2-0.2,1.8c-0.1,0.8-0.3,1.7-0.4,2.5c-0.1,0.3-0.4,0.5-0.4,0.7c-0.4,1.2-0.7,2.4-1,3.7c-0.3,1.3-0.4,2.5-0.6,3.8
			c-0.1,0.7-0.2,1.4,0.1,2.2c0.3,0.9,0.1,1.9,0.2,2.8c0.2,2.6,0,5.3,0.6,7.9c0.6,2.7,1.7,5.3,2.7,8c0.1,0.4,0.4,0.8,0.6,1.2
			c0.3,0.6,0.5,1.2,0.3,1.9c-0.1,0.4,0.1,0.8,0.1,1.2c0.1,0,0.1,0,0.2,0c0.1-0.2,0.1-0.5,0.2-0.9c0.8,1.5,1.5,2.9,2.4,4.2
			c0.6,1,1.4,2,2.2,2.9c1,1.3,2.2,2.5,3.2,3.8c1.3,1.7,2.9,3.2,4.6,4.5c1.4,1,2.7,2.1,4.1,3.1c0.4,0.3,0.9,0.5,1.3,0.7
			c1.7,0.8,3.3,1.6,5,2.4c0.4,0.2,0.8,0.3,1.2,0.5c1,0.4,2.1,0.7,3.1,1.1c0.9,0.3,0.9,0.6,0.5,1.7c-0.4,0.8-0.7,1.7-1,2.5
			C204.4,178.3,204.2,178.4,203.9,178.3z M266.6,133.1c0,0.3-0.1,0.6-0.3,0.8c0-0.5-0.1-0.9-0.1-1.4c0-1.2,0-2.3,0-3.5
			c0-0.4-0.2-0.7-0.4-1.1c0,2.1,0.1,4.2,0.1,6.3c0,0.1,0,0.2,0,0.3c0.9,1.2,0.3,2.5,0.1,3.8c-0.7,4-1.8,7.8-3.5,11.5
			c-0.5,1.2-1.3,2.3-1.9,3.5c-0.1-0.2-0.2-0.4-0.3-0.5c-0.9,1.4-1.7,2.8-2.5,4.2c0,0,0,0,0,0.1l2.3-2.8c0,0.1,0.1,0.1,0.1,0.2
			c-5.4,9.8-13.2,17-23.5,21.5c-8.1,3.5-16.5,4.7-25.3,3.6c-2-0.2-4.1-0.5-6-1.2c0.2-0.5,0.3-0.9,0.4-1.3c0.2-0.8,0.5-1.6,0.8-2.4
			c0.1-0.1,0.4-0.3,0.5-0.3c1.8,0.4,3.7,0.8,5.5,1.1c0.9,0.2,1.8,0.3,2.7,0.3c1.9,0,3.9,0,5.8-0.1c1.3-0.1,2.7-0.2,4-0.4
			c0.9-0.1,1.8-0.4,2.7-0.6c0.8-0.2,1.5-0.5,2.3-0.7c0,0,0,0.1-0.1,0.2c0,0.1,0,0.1,0.1,0.2c0.9-0.3,1.9-0.6,2.8-1
			c0.3-0.1,0.5-0.3,0.8-0.4c0.9-0.4,1.8-0.8,2.7-1.2c0.4-0.2,0.9-0.3,1.4-0.5c1-0.5,2-1.1,3-1.6c0.7-0.4,1.5-0.6,2.2-0.9
			c0.2-0.1,0.5-0.2,0.7-0.4c1.1-0.8,2.2-1.5,3.2-2.4c1.1-1,2.1-2,3-3.1c0.7-0.8,1.4-1.5,2.1-2.3c1-1.2,2-2.4,2.8-3.7
			c0.9-1.5,1.8-3.1,2.5-4.7c0.9-2,1.7-4.1,2.6-6.2c0.2-0.4,0.3-0.7,0.5-1.1c0.2-0.5,0.4-1,0.5-1.6c0.3-0.8,0.6-1.6,0.9-2.4
			c0.1-0.1,0.3-0.2,0.5-0.3c0.1,0.1,0.2,0.1,0.2,0.2c0.3-1.8,0.5-3.7,0.8-5.5c-0.7-1,0-2,0-3c-0.1,0.1-0.2,0.2-0.3,0.2
			c0.6-0.9,0.6-1.9,0.5-2.9c-0.1-1,0.4-2,0-2.9c-0.1,0-0.1,0-0.2,0c-0.1,0.3-0.2,0.5-0.3,0.8l-0.1,0c-0.2-1.3-0.4-2.6-0.6-3.9
			l0.2-0.1c0.1,0.2,0.1,0.5,0.3,0.7c0.3,0.4,0.6,0.8,1,1.1c0.1,0.1,0.5,0,0.7-0.2c-0.4-0.2-0.8-0.4-1.1-0.5c0.5-0.4,0.9-0.8,1.3-1.1
			c0.1-0.1,0.4-0.1,0.5,0c0.2,0.2,0.4,0.5,0.6,0.7c0.3-0.6,0.2-1.8-0.3-2.1c-1.1-0.8-2.1-0.3-3.1,0.6c-0.2-0.6-0.5-1-0.6-1.5
			c-0.2-0.8,0.2-1.2,1.1-1.1c0.3,0,0.7-0.1,1-0.3c1.1-0.7,2.1-0.4,2.4,0.9c0.3,1.8,0.6,3.5,0.7,5.3
			C266.6,128.4,266.6,130.8,266.6,133.1z"/>
		<path d="M269,124.7v-0.8c-0.1-0.4-0.1-0.7-0.2-1.1c0,0,0,0,0,0v0c-0.1-0.6-0.2-1.2-0.3-1.8c-1-5.2-2.6-10.2-5-14.8
			c-3.4-6.4-7.8-12-13.5-16.5c-3.5-2.7-7.1-4.9-11-6.6c-0.1,0.2-0.2,0.5-0.4,0.7c1.5,0.6,2.9,1.3,4.3,2.1c2.6,1.4,4.9,3.3,7.4,5
			c1.9,1.3,3.5,2.9,5.1,4.5c2.8,3,5.2,6.4,7.2,10.1c2.3,4.2,3.9,8.7,5,13.3c0.7,3.2,1.1,6.3,1.2,9.5l-0.1,5.4
			c-0.1,0.7-0.1,1.5-0.2,2.2c-0.8,6.9-3.1,13.4-6.4,19.5c-1.7,3.2-4,6.1-6.3,8.9c-2.6,3-5.5,5.6-8.7,7.9c-5.6,4.1-11.8,6.8-18.5,8.3
			c-1.9,0.4-3.9,0.6-5.9,0.8c-2,0.2-3.9,0.3-5.9,0.4c-2.6,0.1-5.2-0.4-7.8-0.9c-4.7-0.9-9.3-2.3-13.6-4.5c-6.4-3.2-12-7.6-16.5-13.1
			c-5.4-6.6-9.1-14.2-10.8-22.6c-0.6-2.8-0.6-5.7-0.9-8.6c0-0.3,0-0.7-0.1-1c-0.1-8.9,2-17.3,6.3-25.2c2.2-4.1,4.9-7.8,8.2-11.1
			c0.7-0.8,1.5-1.6,2.4-2.1c1.6-0.9,2.6-2.4,4.1-3.5c4.4-3,9.1-5.5,14.2-7.2c3.4-1.1,6.8-1.8,10.4-2.2c4.3-0.5,8.6-0.3,12.9,0.2
			c0.1,0,0.2,0,0.3,0c-0.1-0.3-0.2-0.6-0.2-0.9c-1-0.2-2-0.3-3-0.4H214c-1.1,0.1-2.2,0.3-3.3,0.4c-6.3,0.7-12.1,2.8-17.7,5.7
			c-5.4,2.8-10.1,6.4-14.2,10.9c-2.9,3.2-5.3,6.7-7.4,10.5c-2.4,4.5-4.1,9.3-5.1,14.3c-0.4,2-0.6,4-0.9,6.1v7.5
			c0,0.2,0.1,0.4,0.1,0.6c0.3,1.9,0.4,3.8,0.8,5.7c1.8,8.7,5.4,16.4,11.1,23.2c3.6,4.3,7.8,8,12.7,10.9c4.9,2.9,10,5.2,15.6,6.4
			c1.8,0.4,3.7,0.7,5.5,1c1.2,0.2,2.4,0.3,3.5,0.4h2.3c0.3,0,0.6-0.1,1-0.1c3.2-0.1,6.4-0.5,9.6-1.1c4.7-0.9,9.1-2.7,13.4-4.9
			c4.9-2.5,9.3-5.8,13.1-9.8c2.8-2.9,5.3-6.1,7.4-9.7c3.2-5.7,5.5-11.6,6.7-18c0.2-1.1,0.4-2.3,0.6-3.5
			C269.5,132.4,269.2,127.4,269,124.7z"/>
	</g>
</g>
<path d="M166.6,161c-1-0.5-2.2-0.6-3.2-0.8c-0.9-3.3-1.9-6.5-2.6-9.7c-0.7-3.2-1.1-6.6-1.7-10c2.4-0.2,4.5-0.3,6.4-0.4
	c0.3-0.3,0.8-0.4,1.4-0.4c1.8,0.3,3.6-0.2,5.3-0.7c0.4-0.1,0.7-0.1,1,0c5.3-0.9,10.4-1.8,15.5-2.6c8.5-1.3,17-2.6,25.6-3.7
	c3.1-0.4,3.8-0.9,2.7-4c-1.2-3.4-2.5-7-4.3-10.1c-3.6-6.3-7.6-12.3-11.4-18.5c-6.2-10.1-12.3-20.3-18.6-30.3
	c-1.1-1.8-1.5-3.2-0.8-5.2c0.7-2.1,2.1-4.8,1.3-6.4c-1.7-3.6,0.6-5.9,1.1-8.7c13.7,1.9,23.5-3,22.1-11.1c-1.3,0.1-2.6,0.1-3.9,0.4
	c-6.4,1.5-12.9,2.6-19.5,1.2c-3.4-0.7-6.9-1.4-10.3-1.9c-4-0.6-8-0.4-11.1,2.7c-0.8,0.7-1.1,1.9-1.8,3.1c10.3,0,13.7,0.6,17.7,3.2
	c-0.8,2.3-1,5.2-2.5,6.9c-1.3,1.4-2.4,2.7-2.8,4.6c-0.5,2.2-1.7,2.7-3.9,2.2c-3.1-0.7-6.4-1.1-9.6-1.3c-12.2-0.8-24.4-1.3-36.6-2.2
	c-7.6-0.6-15.1-1.7-22.9-2.6c0.3-1.1,0.6-2,0.8-2.8c0.8-2.7,1.8-5.3,2.2-8c0.2-1.3-0.2-3.5-1-3.9c-2.5-1.2-5.2-1.9-8.3-1.1
	c-4.2,1.1-8.4,1.7-12.7,2.4c-3.5,0.6-7.1,0.9-10.6,1.4c-2.4,0.4-4,1.9-5,4.1c-1.5,3.2-2,6.5-1.2,10c1.6,7.1,8.6,11.7,16.9,11
	c0.8-0.1,2-0.8,2.2-1.5c0.5-1.5-0.8-1.8-2-2.2c-3.2-0.9-6.5-1.6-9.5-2.8c-4.4-1.8-6.2-4.4-5.9-7.4c0.4-3.5,3.3-6.2,7.8-7
	c0.7-0.1,1.4-0.1,2.1-0.2c5.4-0.8,10.8-1.6,16.2-2.4c1.3-0.2,2.6-0.5,3.9-0.7c-1,3.6-2,7-3,10.6c-2.2-0.3-2.8,1.4-3.5,3.4
	c-1.4,4.6-3.2,9.1-4.8,13.7c-0.4,1.3-0.7,2.7-0.8,4.1c-0.1,2.7-2.7,5-5.3,4.4c-3.2-0.7-6.5-1.5-9.8-1.8
	c-19.7-1.8-37.8,9.3-45.4,27.8c-1.8,4.4-2.6,9.1-3.8,13.7v11.3c1.4,5.4,2.3,10.9,4.4,16c5.7,14.3,15.6,24.1,31.2,27.4
	c7.2,1.5,14.4,1.5,21.7,0.9c17.3-1.5,28.2-11.4,35.1-26.4c3.6-8,3.7-16.6,3.1-25.2c-0.8-11-4.5-21-11.7-29.5
	c-2.8-3.3-6.2-5.9-10.4-7.2c-1.6,3.4-1.2,5.1,1.6,7c4.7,3.2,8.6,7.1,11.5,11.9c4.9,8.3,6.7,17.2,5.9,26.9
	c-1.8,21.8-18,37.6-39.8,38.7c-26.3,1.3-46.5-16-48.8-41.7C19.5,98,48.5,74.8,79.1,84.4c-2.3,13.3-6.4,25.9-13.9,37.2
	c-0.4,0.6-1,1-1.6,1.3c-1.9,1-2.1,2.7-1.6,4.4c0.3,1.1,1.1,2.4,2.1,2.8c1.7,0.7,2.9-0.4,4.1-1.7c6.5-7.9,11.2-16.9,15.9-25.9
	c2.5-4.9,4.6-10.1,6.5-15.3c1.1-2.9,0.4-6.5,4-8.3c0.1,0.1,0.4,0.3,0.6,0.5c9.8,11.5,19.6,23.1,29.5,34.6
	c5.1,5.9,10.2,11.8,15.3,17.7c2.9,3.4,6.3,6.3,9.4,9.4c5,5.1,6.2,12.4,7.1,19.5c-2.1,0.3-3.9,0.5-5.8,0.7c-1.3,0.2-2.8,0.6-2.3,2.2
	c0.3,0.9,1.6,2,2.5,2.1c4.5,0.2,9,0.2,13.4,0.1c0.9,0,2-0.4,2.7-1c0.6-0.5,1.3-1.4,1.3-2.1C168.2,162.2,167.3,161.3,166.6,161z
	 M89.4,82.9c-3.9,9.2-8.2,18.3-12.5,27.3c-1.5,3.2-3.8,6.1-5.7,9.1c1.9-5.8,3.9-11.6,5.8-17.4c2.2-6.7,4.3-13.4,6.5-20.1
	c0.5-1.4,1.3-2.8,1.9-4.1C89.9,78.1,91,79.2,89.4,82.9z M94.4,54c1-3.1,1.9-6.2,3-9.2c0.2-0.4,1.4-0.5,2.1-0.7
	c0.1,0.2,0.3,0.5,0.4,0.7c-1.4,3.2-2.4,6.7-4.3,9.6C95.2,54.3,94.8,54.2,94.4,54z M199,44.1c-3.5,2.8-12.8,2.8-17.9,0H199z
	 M179.7,48c0.3,0,0.6,0.1,0.8,0.1c1.1,2.8-1.3,5.3-0.9,8c-0.2,0.1-0.5,0.2-0.7,0.4c-0.4-0.5-1.3-1.1-1.2-1.5
	C178.2,52.6,179,50.3,179.7,48z M178,74.8c9.6,17,18.9,33.3,28.4,50.1c-15.3,2.1-30.7,4.2-46.1,6.3c-0.3-0.3-0.5-0.6-0.8-0.9
	C165.6,112.2,171.6,94,178,74.8z M102.9,67.4l0.6-1.4c21.4,2,42.8,3.3,64.4,5.9c-3.5,10.7-6.8,20.9-9.9,30.4c-2.6,0-4.9,0-7.2,0
	c-0.6,0-1.5,0.3-1.7,0c-2.1-2.6-4.1-0.8-6.2-0.2c-2,0.6-4.2,0.9-6.8,1.5C125.4,92,114.1,79.7,102.9,67.4z M156,107.3
	c-0.9,2.7-1.6,5.1-2.4,7.5c-0.2,0-0.3,0-0.5-0.1c-0.5-2.2-1.1-4.4-1.7-6.9C152.9,107.6,154.2,107.5,156,107.3z M139.7,108.1
	c3.7-0.9,3.7-0.9,3.8,4.8C142.3,111.3,141.1,109.7,139.7,108.1z M145.2,107.3c-0.1-0.7,0.7-1.8,1.3-2.1c0.5-0.2,1.8,0.4,2.1,1
	c0.7,1.4,1.3,2.9,1.5,4.5c0.5,3.1,0.6,6.2,1,9.8C146.5,116.8,145.9,112,145.2,107.3z M158,159c-0.2-8.4-2.5-16-7.7-22.8
	c-1.8-2.4-1.5-4.3,0.5-5.9c2.4-1.9,4.7-1.4,5.8,1.4c0.6,1.6,1.1,3.5,0.9,5.2c-1,7.8,0.2,15.2,2.8,22.5c0.1,0.2,0.1,0.5,0.1,0.9
	C158.8,161.2,158.1,160.8,158,159z"/>
<g>
	<path d="M201.8,34.7c0.8-0.1,1.6-0.4,2.4-0.4c1.7,0,3.1,0.8,4.1,2.1c1.4,1.9,2.6,4,3.9,5.9c0.2,0.3,0.3,0.5,0.5,0.8
		c0.6-0.6,1.1-1.2,1.7-1.8c0.3-0.3,0.6-0.5,1-0.6c1.8-0.7,3.6-1.4,5.4-2.1c2.1-0.8,4.1-1.7,6.2-2.4c0.3-0.1,0.8-0.1,1.2,0
		c8,2.9,16,5.8,24,8.7c2.7,1,5.4,1.9,8,2.9c1.2,0.4,1.4,0.8,0.9,2c-3.4,9.3-6.7,18.5-10.1,27.8c-0.4,1.1-0.8,1.3-1.9,0.9
		c-1.2-0.4-2.4-0.8-3.5-1.3c-0.3-0.1-0.5-0.1-0.8,0.2c-3.3,3.6-6.6,7.2-9.9,10.8c-0.1,0.1-0.2,0.2-0.3,0.3c-0.7,0.7-1.2,0.7-1.9,0
		c-3.4-3.1-6.7-6.1-10.1-9.2c-5-4.6-10-9.1-15-13.7c-0.5-0.5-0.8-0.9-0.8-1.6c-0.4-4-0.8-8.1-1.3-12.1c-0.1-0.6,0.1-1,0.5-1.4
		c0.6-0.6,1.2-1.3,1.8-2c-1.3-0.6-2.5-1.2-3.7-1.9c-1.2-0.7-2.4-1.3-3.6-2.1c-3-1.9-3.3-6.4-0.5-8.8c0.1-0.1,0.1-0.2,0.2-0.2
		C200.8,35.2,201.3,35,201.8,34.7z M252.8,65.6c-0.2-0.2-0.3-0.3-0.4-0.4c-8-7.3-16-14.6-24-21.9c-0.2-0.2-0.5-0.3-0.8-0.3
		c-3.8-0.1-7.5-0.1-11.3-0.2c-0.3,0-0.6,0.1-0.8,0.3c-0.7,0.7-1.4,1.5-2.1,2.2c-0.7,0.8-1.4,1.5-2.1,2.4c1.2,0.5,2.2,1,3.3,1.5
		c0.3,0.2,0.6,0.1,0.9-0.1c1.4-0.8,2.8-0.8,4.1,0.2c1.3,1,1.8,2.3,1.4,3.8c-0.4,2.1-2.5,3.3-4.5,2.8c-2-0.5-3.3-2.4-2.8-4.5
		c0.1-0.4,0-0.5-0.3-0.6c-1.1-0.5-2.2-1-3.2-1.5c-0.2-0.1-0.5,0-0.6,0.1c-0.6,0.6-1.1,1.1-1.6,1.8c-0.2,0.2-0.3,0.6-0.3,0.9
		c0.4,3.7,0.8,7.4,1.1,11.1c0,0.5,0.2,0.8,0.6,1.1c7.9,7.2,15.8,14.5,23.7,21.7c0.2,0.1,0.3,0.3,0.5,0.4
		C240,79.6,246.4,72.6,252.8,65.6z M253.7,63.6c1.7-4.7,3.4-9.4,5.1-14.1c-0.1,0-0.3-0.1-0.4-0.2c-10.1-3.7-20.2-7.3-30.4-11
		c-0.3-0.1-0.7-0.1-1,0c-1.8,0.7-3.7,1.4-5.5,2.2c-0.1,0.1-0.3,0.1-0.4,0.2c2.4,0.1,4.7,0.1,7.1,0.2c0.4,0,0.9,0.2,1.3,0.5
		c6.5,5.9,13.1,11.9,19.6,17.9C250.6,60.8,252.2,62.2,253.7,63.6z M200.5,41.5c0.4,0.4,0.7,1,1.2,1.2c2.4,1.4,4.9,2.7,7.4,4
		c0.1,0.1,0.4,0,0.5-0.2c0.5-0.5,1-1,1.4-1.5c0.1-0.1,0.2-0.4,0.1-0.5c-1.4-2.3-2.8-4.5-4.4-6.7c-1.1-1.6-3.2-1.9-4.9-0.9
		C200.4,37.8,199.8,39.8,200.5,41.5z M249.1,76.3c0.7-2,1.5-4,2.2-6.1c-1.6,1.7-3.2,3.5-4.7,5.2C247.5,75.7,248.4,76,249.1,76.3z
		 M217.2,50.8c-0.1,1-0.3,1.3-1.4,1.3c-0.2,1.1,0.5,2,1.6,2c1,0.1,1.8-0.7,1.8-1.7C219.1,51.4,218.3,50.7,217.2,50.8z"/>
	<path d="M231.1,50.5c0,0.1,0.1,0.4,0.1,0.6c0.4,9,0.8,18,1.2,27c0,0.2,0,0.4,0,0.6c-0.1,0.6-0.4,0.8-1,0.9c-0.5,0-0.9-0.2-1-0.8
		c-0.1-0.9-0.1-1.8-0.2-2.7c-0.4-8.3-0.7-16.5-1.1-24.8c0-0.9,0.2-1.3,0.8-1.4C230.4,49.7,230.8,49.9,231.1,50.5z"/>
	<path d="M244.7,62.6c1.1,2.4,0.1,5.3-2.4,6.4c-2.4,1.1-5.2,0.1-6.4-2.3c-1.1-2.4-0.1-5.3,2.3-6.4C240.7,59.1,243.6,60.1,244.7,62.6
		z M241.4,67.1c1.4-0.6,2.1-2.3,1.5-3.7c-0.6-1.4-2.3-2-3.7-1.4c-1.3,0.6-2,2.2-1.4,3.6C238.4,67.1,240,67.7,241.4,67.1z"/>
	<path d="M219,60.3c2.4-1.1,5.4,0,6.4,2.4c1.1,2.4,0,5.3-2.4,6.4c-2.4,1.1-5.3,0-6.4-2.4C215.5,64.3,216.6,61.4,219,60.3z
		 M223.6,63.5c-0.7-1.4-2.3-2-3.7-1.4c-1.4,0.6-2,2.3-1.3,3.7c0.7,1.4,2.3,2,3.7,1.4C223.6,66.5,224.2,64.9,223.6,63.5z"/>
</g>
</svg>
