<?xml version="1.0" encoding="utf-8"?>
<!-- Generator: Adobe Illustrator 17.1.0, SVG Export Plug-In . SVG Version: 6.00 Build 0)  -->
<!DOCTYPE svg PUBLIC "-//W3C//DTD SVG 1.1//EN" "http://www.w3.org/Graphics/SVG/1.1/DTD/svg11.dtd">
<svg version="1.1" id="Layer_1" xmlns="http://www.w3.org/2000/svg" xmlns:xlink="http://www.w3.org/1999/xlink" x="0px" y="0px"
	 viewBox="0 0 288 216" enable-background="new 0 0 288 216" xml:space="preserve">
<g>
	<path d="M150.7,45.4c-1-0.4-2-0.9-2.9-1.5c-3-2.1-6.4-2.6-10-2.4c-5.4,0.4-10.4,2.4-15.3,4.5c-1.7,0.7-3.4,1.5-5.2,2.3
		c-1.1,0.5-1.4,0.3-1.5-0.9c-0.6-4.6-2.8-7.9-7.4-9.3c-6-1.8-12.1-3.4-18.2-5c-14.8-3.8-29.5-8-43.6-14c-3.3-1.4-6.3-3.4-9.4-5
		c-2.5-1.3-5.1-2.3-7.7-3.4c-0.5-0.2-1.1-0.2-2.1-0.4c0.4,1.2,0.5,2.3,1,3.1c1.1,2.1,2.9,3.6,4.9,4.7c4,2.2,8,4.2,12.1,6.2
		c0.4,0.2,0.9,0.4,1.2,0.8c-2-0.5-4.1-1.1-6.1-1.6c-1.7-0.4-3.3-1-5-1.3c-1.1-0.2-2.3-0.2-3.7-0.3c0.2,1.5,1,2.5,2,3
		c2.6,1.3,5.3,2.6,8.1,3.7c1.9,0.8,4,1.1,6,1.7c0.3,0.1,0.6,0.2,0.8,0.5c-3.3-0.2-6.6-0.5-9.9-0.7c-4.5-0.3-9-0.5-13.6-0.8
		c-0.2,0-0.3,0-0.5,0c-0.7,0.2-1.7-0.2-2,0.9c-0.3,1.1,0.5,1.8,1.3,2.3c2.3,1.4,4.9,1.8,7.6,2.2c6.9,1.1,13.8,1.4,20.8,0.8
		c0.5,0,1,0,1.4-0.1c0,0.1,0,0.2,0.1,0.3c-2.7,0.5-5.5,1-8.2,1.4c-2.8,0.5-5.5,0.9-8.3,1.3c-0.3,2-0.1,2.3,1.8,3.3
		c-0.9,1.2-0.8,1.5,0.5,2.2c0.1,0.1,0.2,0.1,0.3,0.2c2,0.7,3.7,1.8,5.6,2.7c1.8,0.9,4,1,6,1.4c0.8,0.1,1.6,0.1,2.4,0.4
		c-1.6,0.4-3.2,0.8-4.8,1.2c0.5,1.7,1.5,2.4,3.6,2.5c1.2,0.1,2.4,0.1,3.5,0.1c0.2,0.6,0.3,1.1,0.4,1.7c-3.3,1-6.7,2.1-10.1,3.2
		c-5,1.6-10.1,3.2-15.1,4.7c-2.7,0.8-5.5,1.3-8.3,1.9c-0.6,0.1-1.2,0.3-1.7,0.7C21.3,65,21,65.6,21,66c0,0.4,0.4,1.1,0.7,1.2
		c1.3,0.3,2.6,0.7,3.9,0.7c2.4,0,4.7-0.2,7-0.2c-1,0.5-2.2,0.9-3.3,1.5c-1.3,0.7-1.6,1.9-1.6,3.4c3.7,1.1,6.9-1.3,10.5-1.7
		c-1.5,1.1-3.5,1.6-4.2,3.9c2-0.3,3.9-0.4,5.7-0.8c4.9-1,9.4-3.2,14-5.1c1.2-0.5,2.4-1,3.7-1.3c-2.5,1.6-5,3.1-7.5,4.7
		c-0.7,0.5-1.5,0.9-2.1,1.4c-0.3,0.2-0.3,0.8-0.3,1.2c0,0.2,0.5,0.4,0.8,0.4c2,0,3.9-0.1,5.7-1.1c1.3-0.7,2.7-0.9,4.3-0.6
		c1.1,0.2,2.3-0.3,3.4-0.7c1.1-0.4,2.2-0.7,3.4-0.4c1.2,0.2,2.4-0.2,3.7-0.3c0.4,0,1,0.1,1.3,0.3c0.9,0.8,1.9,0.7,2.8,0.2
		c1.1-0.5,2.3-0.7,3.5-0.6c1.2,0.1,2.2-0.4,3.3-0.9c2.1-1.1,4.2-2,6.3-3c0.4-0.2,0.9-0.1,1.2-0.2c0.2,0.9,0.2,1.9,0.7,2.5
		c0.5,0.5,1.5,0.5,2.3,0.5c0,0,0.1,0,0.1,0.1c1,2.3,1,2.4-1,4.1c-2.8,2.3-5.7,4.5-8.7,6.7c-1.5,1.1-1.6,1.9-0.1,3.1
		c0.1,0.1,0.2,0.2,0.4,0.5c-1.6,1.2-3.2,2.3-4.8,3.4c-0.4,0.3-0.6,0.8-0.9,1.1c0.4,0.3,0.8,0.7,1.3,0.8c0.8,0.2,1.7,0.1,2.7,0.2
		c-0.5,0.8-0.9,1.5-1.4,2.2c-0.7,0.9-1.5,1.6-2.1,2.5c-0.7,0.9-1.5,1.7-1.7,2.7c-1.5,5.2-4.7,9.4-7.3,13.9
		c-4.2,7.2-8.7,14.2-12.9,21.5c-2,3.4-3.6,7.1-5.2,10.7c-3.9,8.6-7.7,17.3-11.5,25.9c-1.3,2.9-2.1,6.1-3.3,9
		c-0.6,1.7-0.4,3.3,0.2,5.3c0.5-0.6,1-1,1.3-1.5c4.7-9.3,9.6-18.4,13.9-27.9c5.2-11.4,11.5-22.1,17.9-32.8
		c3.2-5.3,6.5-10.5,9.8-15.7c0.2-0.3,0.4-0.7,0.8-0.9c-0.5,2-1,3.9-1.5,5.9c-2.9,11.3-5.6,22.6-7.3,34.2c-0.9,6.1-1.9,12.2-1.6,18.4
		c0.1,2.4,0.9,4.6,2,6.6c0.2,0.3,0.7,0.5,1.4,0.9c0.4-3.1,0.9-5.8,1.1-8.6c0.4-8.4,2-16.7,3.5-25c1.4-7.3,2.8-14.6,5.3-21.7
		c0.8-2.3,1.7-4.5,2.6-6.8c0.1,0,0.2,0.1,0.3,0.1c-0.2,2.7-0.4,5.3-0.7,8c-1.2,8.8-1.9,17.7-2.2,26.6c-0.2,6.3-0.3,12.5,0.3,18.8
		c0.5,5.9,1.4,11.6,4.3,17c0.1,0,0.3,0,0.6,0c0.2,0,0.4,0,0.9-0.1c-0.1-1.6-0.1-3.1-0.2-4.7c-0.4-7.1-0.9-14.1-1.2-21.2
		c-0.1-3.3,0-6.6,0.1-9.9c-0.3-0.1-0.5-0.3-0.6-0.7c-0.1-0.5-0.3-0.9-0.6-1.2c-0.3,10-0.1,20.1,0.3,30.2c-1.3-3.5-1.9-6.9-2.1-10.4
		c-0.4-6.4-0.8-12.7-0.1-19.1c0.1-0.8,0.2-1.6,0.2-2.4c-0.4-0.4-0.3-1.1,0.1-1.4c0.7-6.9,1.2-13.8,1.9-20.7
		c0.4-4.3,1.3-8.6,1.5-12.9c0.1-3.1,1.1-5.9,2.2-8.8c0.4-1.2,0.8-2.4,1.2-3.3c-0.4-0.4-0.7-0.6-0.9-0.8c-1.6,3.7-2.4,7.9-4.8,11.3
		c-0.1-0.5-0.1-0.9,0-1.3c0.7-2.3,1.4-4.6,2.1-6.9c0.6-1.9,1.2-3.9,1.8-5.8c-0.7,0.8-1.4,1.6-1.8,2.5c-1.2,3-2.4,6-3.3,9.1
		c-0.6,1.8-0.8,3.7,0.1,5.5c0.1,0.2,0,0.6-0.1,0.9c-2.3,5.4-4.1,11-5.5,16.8c-2.4,9.6-4.9,19.2-5.8,29.2c-0.2,2.3-0.6,4.5-0.9,6.8
		c-0.2-0.8-0.1-1.5-0.1-2.3c0.2-9.1,1.4-18,3.6-26.8c3.1-12.5,6.6-24.9,10-37.4c0.1-0.5,0.5-1,0.7-1.5c0.9-1.7,1.9-3.4,2.9-5.1
		c-0.1-0.1-0.2-0.1-0.3-0.2c-7.5,8.8-9.5,10.8-11.5,11.3c0.7-1.2,1.2-2.4,2-3.4c3.4-4,6.8-7.9,10.3-11.8c0.5-0.6,1.1-1.1,1.8-1.5
		c0.6-0.4,1.4-0.6,2.1-0.9c-0.6,1.7-1.4,3.2-2,4.7c-0.4,1-0.6,2.1-0.7,3.1c0,0.3,0.3,0.9,0.6,1c0.2,0.1,0.8-0.1,1-0.3
		c0.8-0.7,1.5-1.5,2.2-2.2c0.6-0.6,1.2-1.9,1.7,0c0,0.1,0.3,0.1,0.4,0.2c0.2,0.3,0.4,0.6,0.4,0.8c-0.7,4-1.6,7.9-3.4,11.6
		c-0.2,0.4-0.4,0.7-0.7,1.3c-0.1-3.6,0.6-6.8,1.6-9.9c0.2-0.6,0.1-1.4,0.2-2c-0.2,0-0.4,0-0.6,0c-5,16-7.2,32.3-8,48.8
		c0.4-0.2,0.7-0.4,1.1-0.5c0.4-10.6,2.2-21.1,3.8-31.6c0.1-0.3,0.2-0.7,0.2-0.9c0.7,0.4,1.4,0.8,2.2,1.3c1.1-4,2.1-7.7,3.1-11.4
		c0.5-1.7,0.8-3.4,1.4-5c1-2.9,3.1-4.9,5.4-6.8c1.9-1.6,3.9-2.9,6.5-3.3c0.7-0.1,1.4-0.2,1.9-0.6c1.7-1.2,3.4-0.9,5.1,0.1
		c3.1,1.9,5.7,0,8.4-1.1c0.2-0.1,0.4-0.6,0.4-0.9c0.1-2.1,0.9-3.9,2.5-5.4c0.4-0.4,0.7-1,0.9-1.5c1-2.4,2.7-4,5.3-4.5
		c2.2-0.4,4.3-1.2,6.1-2.7c0.4-0.4,1.1-0.6,1.6-0.8c1.4-0.7,2.5-1.7,3-3.2c0.4-1.2,1.1-1.6,2.2-1.6c0.7,0,1.3-0.1,2-0.1
		c0,0.5,0,0.9,0.1,1.7c1.2-0.7,2.5-1.2,3.4-2.1c2-1.9,3.2-4.2,3.4-7C154.3,48.1,153.1,46.3,150.7,45.4z M80,96.6
		c0.3-0.5,0.9-0.8,1.3-1.1c0.2,0.4,0.1,0.7,0,0.9c-1.9,3.2-3.6,6.7-5.9,9.6c-5.1,6.7-9.8,13.6-13.9,21C53.4,141.8,46,157,39.3,172.6
		c-1.2,2.8-2.6,5.5-3.9,8.2c-0.2-0.1-0.3-0.1-0.5-0.2c0.5-1.2,1.1-2.4,1.5-3.6c2.2-7.2,5.6-13.9,8.9-20.6c0.9-1.9,2.3-3.6,3-5.5
		c3.5-10,8.9-18.9,14.2-28c3.4-5.9,7.3-11.5,11.1-17.2C75.6,102.6,77.8,99.6,80,96.6z M35.3,69.7c-1.2,0.4-2.4,0.6-3.6,0.9
		c-0.1-0.2-0.1-0.3-0.2-0.5c0.3-0.2,0.7-0.5,1-0.7C42,65.7,51.6,61.8,61.2,58c0.6-0.2,1.2-0.5,1.8-0.8c-0.2-0.2-0.3-0.3-0.4-0.3
		c-0.3,0-0.6,0-0.8,0c-4.2,0.3-8.2,1.4-12.1,3.1c-6.4,2.8-13.1,4.8-20.1,5.4c-1.7,0.1-3.3,0.1-5,0.2c0-0.1-0.1-0.2-0.1-0.3
		c0.3-0.2,0.6-0.4,0.9-0.5c1.9-0.6,3.8-1.3,5.7-1.8c9.4-2.7,18.9-5.4,28.3-8c1.5-0.4,3.3-0.2,5-0.3c-1.4,1.7-1.9,1.6,0.4,3.4
		c-0.3,0.2-0.5,0.3-0.7,0.4c-4.3,1.7-8.6,3.3-12.9,5C46,65.6,40.6,67.7,35.3,69.7z M57.2,65.5c-4.5,1.9-8.9,3.8-13.4,5.6
		c-1.3,0.5-2.8,0.6-4.2,1c-0.1-0.2-0.3-0.4-0.4-0.6c0.3-0.1,0.5-0.2,0.8-0.3c3.1-1.6,6.1-3.5,9.3-4.8c5.3-2.1,10.4-4.7,15.3-7.4
		c0.5-0.3,0.9-0.8,1.4-0.9c1.3-0.2,2.7-0.1,3.6-0.2c-0.2,0.3-0.7,0.8-0.9,1.4c-0.4,1.5-1.6,2.1-2.9,2.6C63,63.1,60.1,64.3,57.2,65.5
		z M64.1,70.5c-1,0.5-2.1,0.6-3.2,0.8c0-0.1-0.1-0.2-0.1-0.3l9.9-6.4c-0.1-0.2-0.2-0.4-0.3-0.5c-0.4,0.2-0.9,0.3-1.3,0.6
		c-4.8,3.1-9.7,6.1-15.1,8.1c-0.5,0.2-1,0.3-1.5,0.4c0-0.1-0.1-0.3-0.1-0.4c0.6-0.3,1.4-0.5,1.9-1c2.4-1.7,4.8-3.5,7.2-5.2
		c2.5-1.8,5-3.9,7.7-5.4c1.2-0.7,2.9-0.6,4.2-0.8c0.3,1.4,0.6,2.7,0.8,4c0,0.3-0.2,0.7-0.4,0.8C70.6,67,67.4,68.8,64.1,70.5z
		 M78.3,89.9c-0.3,0.1-0.7-0.1-1-0.2c2.5-1.9,4.3-4.7,8-4.9C83.3,87.3,81.2,89.1,78.3,89.9z M86.4,81.9c-0.2,1-0.7,1.4-1.6,1.4
		c-0.4,0-0.8,0.1-1.2,0.1c-0.5-0.1-0.9-0.3-1.3-0.5c0.2-0.4,0.4-0.8,0.7-1.1c3.3-2.8,6.7-5.5,10.1-8.2c0.3-0.2,0.6-0.3,0.9-0.5
		c0,0.1,0.1,0.1,0.1,0.2c-0.1,0.1-0.1,0.2-0.2,0.3c-2,1.9-3.4,4.3-5.9,5.7C87.3,79.7,86.6,80.9,86.4,81.9z M115,78.5
		c0-0.8,0-1.2,0-1.8c0.5,0.2,0.9,0.3,1.6,0.5C115.9,77.7,115.6,78,115,78.5z M119.6,78.3c-0.1,0-0.2-0.1-0.3-0.1
		c0-0.7-0.1-1.4-0.1-2.2c0.4,0.1,0.7,0.1,1.3,0.2C120.2,77.1,119.9,77.7,119.6,78.3z M121.2,78.6c0.3-1.1,0.6-2.1,1.1-3.4
		C122.8,77.5,122.5,78.4,121.2,78.6z M139.2,61.1c-1,0.4-2.2,0.8-2.8,1.5c-0.8,1.2-1.7,1.7-3,1.7c-0.6,0-1.3,0.1-1.9,0.2
		c-2.5,0.3-4.5,1.5-5.5,3.9c-0.3,0.7-0.6,1.5-0.9,2.2c-0.2,0.3-0.4,0.8-0.7,0.9c-2.7,1.5-5.5,3-8.7,3.4c-1.7,0.2-2.8,1.2-4,2.3
		c-0.6,0.6-1.3,1.2-2.1,1.4c-1.2,0.4-2.5,0.6-3.8,0.7c-1,0.1-1.7,0.4-2.3,1c-0.9,1-1.8,1.9-2.8,2.8c-0.4,0.4-1,0.6-1.5,1
		c0.1-0.9,0.5-1.6,0.7-2.3c0.1-0.2-0.1-0.5-0.1-0.7c-0.2,0.1-0.5,0.1-0.7,0.3c-0.3,0.4-0.6,0.8-0.8,1.2c-0.7,1.3-1.1,2.8-3,3.1
		c0.4-0.9,0.7-1.7,1.1-2.6c0.4-0.9,0.8-1.7-0.1-2.7c-0.8,1.5-1.6,2.9-2.4,4.2c-1.6,2.6-2.2,3.2-3.3,3.4c1.3-2.9,2.3-5.9,4.7-8.2
		c-0.1-0.3-0.3-0.5-0.3-0.7c0-0.3,0-0.6,0.1-1c-2.4,1.2-4.5,2.4-6.7,3.5c-0.1-0.1-0.2-0.2-0.2-0.3c0.3-0.3,0.5-0.6,0.8-0.8
		c2.4-2.3,4.7-4.6,7.1-6.8c0.5-0.5,1-0.9,1.6-1.2c2.4-1,4.7-4.1,4.6-6.4c-1.2,0.6-0.8,2.9-2.8,2.8c0.2-0.8,0.4-1.4,0.6-2.4
		c-0.8,0.7-1.6,1-1.9,1.6c-1.1,2.6-3.3,3-5.8,3.2c0-2.3,1.2-3.8,2.5-5.3c-1.8,1.3-3.6,2.5-5.5,3.9c-0.7-2.7,2.1-3.5,2.2-5.8
		c-1.7,0.6-3.2,1.1-5,1.7c1.4-2.6,3.6-3.9,5.6-5.4c-0.9,0.1-1.7,0.3-2.5,0.5c-2.8,0.8-4.9,2.4-5.3,5.5c0,0.2-0.2,0.5-0.4,0.6
		c-1.3,0.8-2.7,1.6-4.1,2.4c-0.4,0.2-0.9,0.3-1.4,0.5c1.3-1.4,3.1-2.2,4-3.9c-3.5,1.3-6.1,4.3-10,5.1c0.2-1.5,1.1-2.1,2-2.8
		c0.9-0.6,1.8-1.3,2.7-2c0.1-0.1,0-0.5,0-0.8c-0.2,0.1-0.6,0.1-0.7,0.2c-2.2,2.6-5.2,3.7-8.2,4.9c-0.2,0.1-0.4,0-0.6,0
		c0-0.1-0.1-0.2-0.1-0.3c0.4-0.3,0.7-0.6,1.1-0.8c2.3-1.5,4.7-2.8,6.9-4.4c1.1-0.8,2-1,3.3-0.9c2.6,0.3,4.9-0.4,7.1-1.8
		c0.2-0.1,0.3-0.4,0.7-0.9c-1.9,0.4-3.5,0.7-5.1,1c0-0.2-0.1-0.3-0.1-0.5c1.5-0.9,2.5-2.3,4.6-2.3c2.7,0.1,5.2-0.7,7.6-1.9
		c0.4-0.2,0.8-0.7,1.1-1.1l-0.3-0.5c-2.8,0.7-5.6,1.4-8.3,2.1c-0.1-0.2-0.1-0.3-0.2-0.5c1.2-2.5,4.1-2,6.4-3.4
		c-0.7-0.2-1-0.4-1.3-0.4c-1.1,0.2-2.1,0.4-3.1,0.8c-2.1,0.7-4.1,0.6-6.3,0.5c0.4-1.9,1.6-2.9,3.2-3.4c1.8-0.6,3.7-1.2,5.6-1.8
		c0-0.1,0-0.2,0-0.3c-2.6,0-5.3,0-8.1,0c0.6-1.8,2.4-2.3,3.7-3.3c-2.4,0.5-4.7,1.1-7,1.7c-2.1,0.6-4.3,0.9-6.5-0.1
		c0.4-1.3,1.1-2,2.3-2.1c1.3-0.1,2.6-0.1,3.9-0.1c0.5,0,1-0.2,1.5-0.3c0-0.1,0-0.2,0-0.3c-0.7,0-1.3,0-2-0.1
		c-2.2-0.2-4.5-0.5-6.7-0.7c-0.3,0-0.6-0.4-0.9-0.6c0.2-0.2,0.4-0.5,0.7-0.7c0.4-0.3,0.8-0.4,1.2-0.6c0-0.1-0.1-0.2-0.1-0.4
		c-1.1,0.3-2.2,0.5-3.3,0.9c-0.4,0.2-0.9,0.8-0.9,1.3c0,0.5,0.5,1,0.9,1.4c0.4,0.4,1.1,0.5,1.6,0.7c-0.1,0.3-0.2,0.4-0.3,0.6
		c-0.9,1.6-0.6,2.2,1.1,2.8c0.4,0.1,0.8,0.3,1.2,0.3c1.9,0,3.8-0.1,5.8-0.1c0.3,0,0.9,0,0.9,0.1c0.5,1.4,1.7,1.3,3.1,1.5
		c-0.7,1-1.3,1.8-1.9,2.6c-1,1.3-0.7,2.2,0.8,2.8c0.7,0.3,1.4,0.4,2,0.5c-0.1,0.7-0.1,1.4-0.1,2c-1.6,0.6-3,1.1-4.6,1.6
		c-0.7,0.2-1.5,0.4-2.2,0.5c-0.7,0-1-0.4-0.5-1c0.7-0.8,1.5-1.5,2.2-2.2c0.3-0.3,0.4-0.6,0.6-0.9c-0.1-0.1-0.2-0.2-0.3-0.4
		c-1.9,0.6-3.7,1.2-5.6,1.8c-0.2-1.3,0.5-2,1.3-2.7c0.8-0.6,1.5-1.2,1.6-2.4c-6.7,2.9-7.7,3.2-9.5,2.1c1.6-2.1,4.1-2.8,6.5-4.1
		c-4.7,0.2-9,2-13.5,1c2.7-1,5.3-1.9,8-2.9c0-0.1-0.1-0.1-0.1-0.2c-4.4,0.3-8.8,0.7-13.2,1c0-0.1,0-0.2,0-0.3c3.8-1,7.7-2,11.5-3
		c0-0.1,0-0.2,0.1-0.4c-0.3-0.2-0.7-0.5-1-0.5c-1.9-0.1-3.8-0.2-5.6-0.1c-2.2,0.1-4.5,0.3-6.7,0.3c-1.4,0-2.9-0.2-4.3-1.2
		c5.3-0.4,10.4-0.3,15.3-1.7c-3.3,0-6.5,0.2-9.8,0.2c-3.2,0-6.5,0.2-9.7-0.9c7.1-0.5,14.3-0.2,20.9-3.3c-7.7,0.4-15.3,1.4-23,0
		c6.1-1.4,12.4-2.2,18.2-4.7c-0.5-0.4-1-0.6-1.6-0.7c-3.7-0.8-7.5-0.5-11.3-0.4c-6.8,0.3-13.3-0.8-19.8-2.7c-0.4-0.1-0.7-0.3-1-0.4
		c0-0.1,0.1-0.3,0.1-0.4c6.9-0.3,13.8,0.5,20.7,0.7c6.9,0.2,13.8,0.7,20.7,1c0-0.1,0-0.2,0-0.3c-1.2-0.2-2.5-0.4-3.7-0.7
		c-4.9-0.9-9.8-1.4-14.7-2.6c-3.8-0.9-7.4-2.6-11-3.9c0-0.2,0.1-0.4,0.1-0.5c0.9,0.1,1.8,0,2.7,0.2c6.3,1.5,12.6,3,18.8,4.5
		c0.8,0.2,1.6,0.2,2.4,0.4c0-0.1,0.1-0.3,0.1-0.4c-0.7-0.4-1.4-0.8-2.2-1.1c-4.3-1.6-8.7-3.1-13-4.8c-4.5-1.8-8.9-3.7-12.8-6.6
		c-1.2-0.9-2.3-2-3.4-3c0.1-0.1,0.2-0.3,0.3-0.4c1.8,0.9,3.7,1.8,5.5,2.8c9.1,4.7,18.3,9,28.3,11.6c13.2,3.4,26.4,6.9,39.6,10.5
		c2.2,0.6,4.5,1.7,6.3,3.1c2.7,2,2.8,5.2,3,8.4c0.2,3.5-2.6,7.6-5.9,8.4c-0.7,0.2-1.4,0.7-2.1,1.1c0,0.1,0.1,0.2,0.1,0.3
		c0.2,0,0.4,0,0.5,0c4.9-0.6,7.7-3,9-7.8c0.1-0.4,0.4-0.8,0.7-0.9c4-1.7,8-3.4,12.1-5c4-1.6,8.1-2.9,12.5-2.3
		c2.1,0.3,4.2,0.9,6.3,2.2c-0.8,0-1.1,0.1-1.5,0.1c-4.3-0.3-8.1,1.4-11.9,2.9c-0.9,0.3-1.3,0.8-1,1.7c0.2,0.7,0.5,1.5,0.9,2.1
		c0.3,0.6,0.9,1,1.1,1.6c1,2.8,2.8,4.5,5.8,4.8c0.1,0,0.1,0.1,0.2,0.1C140.6,60.2,140.1,60.7,139.2,61.1z M142.4,57.2
		c-2.9,0.9-3.2,0.8-4.9-1.6c-0.5-0.7-0.8-1.5-1.3-2.2c-0.5-0.8-1.1-1.5-1.6-2.3c-0.3-0.4-0.4-0.9-0.7-1.4c0.6-0.2,1-0.2,1.4-0.4
		c1.5-0.4,3-0.9,4.5-1.3c1.7-0.4,3.3-0.9,5-1c1.7-0.1,1.9,0.3,1.6,2c-0.1-0.1-0.2-0.1-0.3-0.2c-1.9-1.7-3-1.2-4.8,0.6
		c-0.4,0.4-0.4,1.6-0.1,2.1c0.9,1.4,3.2,1.4,4.3,0.1c0.2-0.3,0.5-0.6,0.8-1c-0.2,1.8-1.2,2.6-2.5,3.2C142,55,142,55,142.4,57.2z
		 M143.9,49.1c-0.3,0.9-0.5,1.6-0.8,2.2l-0.3,0c-0.1-0.5-0.4-1.1-0.2-1.5C142.7,49.6,143.4,49.4,143.9,49.1z M148,56.6
		c-0.9,0.2-1.8,0.4-2.8,0.5c-1.1,0.1-1.3-0.1-1.1-1.5c1.3,0.2,2.8-0.7,3.9,0.5C148,56.3,148,56.4,148,56.6z M150,56.3
		c0-2.6-2-1.9-3.3-2.1c0.5-1.2,1-2.2,1.3-3.3c0.2-0.8,0.3-1.7,0.4-2.5c0.2-1.2,0.9-1.7,1.9-1.1c0.6,0.3,1.2,0.9,1.5,1.5
		C153.1,51,152.2,54.6,150,56.3z"/>
	<path d="M87.3,38.7c0.2,0.1,0.4,0.3,0.7,0.3c4.3,1.4,8.7,2.8,13.1,4.1c1.4,0.5,2.9,1,4.3,1.5c2.2,0.8,3,3.8,1.4,5.6
		c-1.4,1.6-3.1,3.1-5.1,4c-0.9,0.4-1.7,0.9-2.5,1.4c0,0.1,0.1,0.2,0.1,0.3c1.1-0.3,2.2-0.6,3.3-1c2-0.7,4-1.6,5.4-3.2
		c2-2.3,1.9-4.9,1-7.6c-0.1-0.3-0.6-0.6-1-0.7c-3.2-0.8-6.3-1.4-9.5-2.2c-3.4-0.8-6.8-1.8-10.2-2.7c-0.3-0.1-0.7-0.1-1-0.1
		C87.4,38.5,87.4,38.6,87.3,38.7z"/>
	<path d="M132,63.4c0.6,0,1,0,1.3-0.1c-0.1-0.5-0.3-1.1-0.5-1.6c-0.1-0.3-0.3-0.6-0.5-0.9c-0.2,0.3-0.5,0.6-0.5,1
		C131.7,62.3,131.9,62.8,132,63.4z"/>
</g>
<g>
	<path d="M159.7,197.1c0.4-0.1,0.6-0.3,0.9-0.3c9.7-2.5,19.4-5.1,29.1-7.6c0.8-0.2,1-0.6,0.9-1.4c-0.1-0.8-0.1-1.6-0.2-2.6
		c1.5-0.1,3-0.1,4.4-0.2c0-1.1,0-2.2,0-3.3c-0.3-7.5-0.5-15-0.8-22.5c-0.2-5.9-0.4-11.8-0.6-17.7c-0.3-9.2-0.7-18.3-1-27.5
		c-0.2-6.2-0.4-12.4-0.7-18.7c-0.2-4.9-0.4-9.8-0.5-14.7c0-0.6-0.2-0.9-0.8-1.2c-1-0.4-1.9-1-2.9-1.4c-0.5-0.2-0.6-0.6-0.4-1
		c0.4-0.7,0.7-1.5,1.2-2.3c-1.2-0.7-2.4-1.4-3.7-2c-0.7-0.4-1.5-0.7-2.3-1.2c-0.8-0.5-1.5-0.4-2.3-0.2c-3.7,1.2-7.3,1.1-10.9-0.5
		c-5.4-2.3-8.5-7.1-8.3-12.8c0.1-3.8,2.1-6.7,5-9c5.8-4.3,14.6-4.1,20.1,0.5c3.3,2.8,4.6,6.4,4.4,10.6c0,0.5,0.1,0.8,0.6,1.2
		c8.2,5.8,16.4,11.6,24.7,17.5c1,0.7,1,1,0.3,1.9c-0.4,0.5-0.7,0.9-1.1,1.4c1.7,1,3.4,2,4.9,3.1c4.9,3.5,7.8,8.4,8.8,14.3
		c1.1,6.3,0.4,12.6-0.9,18.8c-1.4,6.3-3.2,12.5-4.8,18.8c-1.5,5.8-3.1,11.5-2.8,17.5c0.1,2.8,0.7,5.6,1.3,8.4
		c1.1,5.3,2.8,10.4,5.5,15.1c3.7,6.5,9,11.3,15.5,14.7c3.4,1.8,21.1,9.4,24.6,11c0.2,0.1,0.4,0.2,0.6,0.3c0.1,0,0.2,0.1,0.3,0.2
		c-0.4,0.6-0.8,0.5-1.3,0.4c-4.5-1.7-23-9.9-27.1-12.3c-9.1-5.4-14.8-13.3-17.9-23.2c-1.4-4.6-2.6-9.2-2.9-13.9
		c-0.3-3.5,0.2-7,1-10.4c1.5-6.6,3.3-13.1,4.9-19.6c1.2-4.7,2.2-9.4,2.7-14.3c0.5-5.3,0.4-10.5-1.6-15.5c-1.9-4.8-5.2-8.3-9.8-10.7
		c-0.7-0.3-1.3-0.7-2.1-1.1c-0.5,0.7-1,1.3-1.5,2c-1,1.3-1.2,1.3-2.7,0.5c-2-1.1-4-2.1-6-3.2c-0.6,0.6-1,1.4-1.7,1.7
		c-0.6,0.3-1.4-0.1-2.2-0.2c0.5,33.3,1.1,66.8,1.6,100.3c2.4,0,4.8,0,7.4,0c-0.1,1-0.2,2-0.4,3.1c8.3,1.3,16.5,2.5,24.9,3.8
		c-0.9,1.3-1.5,2.4-2.3,3.4c-0.2,0.2-0.7,0.3-1,0.2c-3.8-0.7-7.7-1.5-11.5-2.2c-3.5-0.7-7-1.4-10.5-2c-0.1,0.1-0.2,0.2-0.2,0.2
		c-0.3,1.5-0.3,1.5-1.8,1.5c-0.8,0-1.6,0-2.6,0c2.6,3.8,5,7.6,7.6,11.4c-0.3,0.1-0.5,0.3-0.8,0.4c-1.8,0.5-3.5,0.9-5.3,1.4
		c-0.6,0.2-1,0-1.3-0.6c-1.8-3.9-3.6-7.8-5.4-11.8c-0.2-0.5-0.5-0.7-1.1-0.7c-1.7,0-3.4,0-5.1,0c-0.6,0-1-0.1-1.2-0.8
		c-2.4,0.7-4.8,1.5-7.2,2.2c-6.9,2.1-13.9,4.3-20.8,6.4c-1.1,0.3-1.3,0.3-1.8-0.8C160.6,198.9,160.2,198.1,159.7,197.1z M174.2,70.6
		c3.8,0,7.1-1,9.5-2.7c7.7-5.3,5.7-14.2,0.1-17.9c-4.8-3.2-12.1-3.1-16.8,0.4c-4.6,3.5-5.8,8.8-3,13.8
		C166.5,68.5,170.4,70.4,174.2,70.6z M193,80.7c1.1,34.9,2.2,69.5,3.3,104.3c1.3-0.1,2.6-0.1,3.8-0.2c0-1.5,0-2.9,0-4.2
		c-0.1-5.1-0.2-10.2-0.3-15.3c-0.2-8.2-0.4-16.4-0.5-24.6c-0.1-4.6-0.1-9.3-0.2-13.9c-0.2-8.4-0.4-16.8-0.6-25.3
		c-0.1-5.9-0.2-11.8-0.4-17.7c0-0.3-0.1-0.6-0.3-0.7C196.2,82.3,194.6,81.6,193,80.7z M214.6,80c-8.2-5.8-16.3-11.5-24.5-17.3
		c-1.4,3.3-3.8,5.6-6.8,7.4c2.1,1.1,4,2.2,6,3.3c0.6-1,1.1-2,1.7-2.9c0.4-0.7,0.9-0.9,1.6-0.4c1,0.6,2,1.2,3.1,1.8
		c3.4,2,6.8,4.1,10.2,6.1c0.7,0.4,0.8,0.8,0.3,1.4c-0.6,0.7-1.1,1.4-1.6,2.1c2,1.1,4,2.1,5.9,3.1c0.2,0.1,0.5,0,0.6-0.1
		C212.2,83.1,213.4,81.6,214.6,80z M196.9,190.3c1.3,0,2.4,0.1,3.5,0c0.9-0.1,1.6,0.2,2,1.1c0.1,0.3,0.5,0.6,0.8,0.6
		c1.1,0.1,2.1,0,3.3,0c0.3-2.2,0.6-4.3,1-6.6c-5.3,0.2-10.4,0.3-15.7,0.5c0.1,2,0.2,3.9,0.3,5.7c0,0.2,0.3,0.4,0.4,0.4
		c1.6,0,3.3,0,5,0C197.3,191.4,197.1,191,196.9,190.3z M201.3,83.2c1.1-1.5,2.2-2.8,3.2-4.2c-4.2-2.5-8.2-4.9-12.4-7.4
		c-1.1,1.9-2.1,3.7-3.2,5.5C193.2,79.2,197.2,81.2,201.3,83.2z M162.3,199.9c0.2-0.1,0.4-0.1,0.6-0.2c9-2.8,18-5.5,27-8.3
		c1.1-0.3,1.2-0.4,0.8-1.7c-9.8,2.6-19.7,5.1-29.6,7.7C161.5,198.3,161.9,199.1,162.3,199.9z M209.4,203.9c-0.1-0.2-0.1-0.2-0.1-0.3
		c-2.7-4.1-5.4-8.1-8.2-12.2c-0.1-0.1-0.3-0.3-0.4-0.3c-0.8,0-1.5,0-2.4,0c2.1,4.7,4.2,9.1,6.3,13.6c0.1,0.2,0.5,0.4,0.7,0.3
		C206.7,204.7,208,204.3,209.4,203.9z M208,190.2c1.2,0.2,2.3,0.5,3.4,0.7c6,1.2,12.1,2.4,18.1,3.5c0.2,0,0.6,0,0.7-0.1
		c0.5-0.6,0.9-1.3,1.4-2.1c-7.9-1.2-15.6-2.4-23.4-3.6C208.1,189.2,208.1,189.6,208,190.2z"/>
</g>
<g>
	<g id="XMLID_13_">
		<g>
			<path d="M129.1,90.6c1.7-0.6,3.5-1.2,5.3-1.8c-1.1-2.5-2.4-4.4-4.2-6c-1.3,1.9-2.6,3.7-3.9,5.4c0.7,0.7,1.4,1.5,2.1,2.3
				C128.7,90.6,128.9,90.6,129.1,90.6z M121.3,82.3c0.1-0.9,0.3-1.7,0.4-2.7c-2,0.3-3.7,1-5.4,2.1c-0.3,0.2-0.4,0.4-0.3,0.9
				c0.7,2.2,1.3,4.4,1.9,6.5c0.8-0.5,1.6-0.9,2.4-1.4c0.2-0.1,0.3-0.5,0.3-0.8C120.9,85.3,121.1,83.8,121.3,82.3z M125.2,87.3
				c1.3-1.8,2.6-3.6,4-5.5c-0.2-0.2-0.3-0.3-0.5-0.4c-1.5-1-3.1-1.5-4.7-1.7c-1.5-0.1-1.1-0.2-1.4,1.5c0,0.1,0,0.3-0.1,0.4
				c-0.3,1.8-0.5,3.5-0.8,5.2c1.1,0.2,2.1,0.4,3,0.5C125,87.4,125.1,87.4,125.2,87.3z M110.5,90.2c1.4,1.6,2.8,3.1,4.2,4.7
				c0.5-1.2,0.9-2.5,1.6-3.5c0.6-1,0.6-1.8,0.2-2.8c-0.6-1.8-1.2-3.6-1.8-5.5c-1.8,1.8-3.2,4-4.3,6.5
				C110.3,89.7,110.4,90.1,110.5,90.2z M109,101.3c0,2,0,3.7,0,5.4c0,0.6,0.1,0.9,0.5,1.2c1.2,0.9,2.4,1.8,3.6,2.7
				c0.5,0.4,1,0.8,1.6,1.2c0-2.1,0-4,0-5.9c0-0.2-0.2-0.5-0.4-0.6c-0.8-0.6-1.5-1.2-2.3-1.8C111,102.8,110.1,102.1,109,101.3z
				 M109,164.1c0,0.2,0.2,0.5,0.3,0.6c0.9,0.8,1.9,1.5,2.9,2.2c0.8,0.6,1.5,1.2,2.4,1.8c0-2.1,0-3.9,0-5.8c0-0.3-0.2-0.6-0.4-0.7
				c-1-0.8-2-1.5-3-2.2c-0.7-0.5-1.5-1.1-2.3-1.7C109,160.4,109,162.2,109,164.1z M109,155.9c0,0.3,0.2,0.6,0.3,0.8
				c0.6,0.5,1.2,1,1.9,1.4c1.1,0.8,2.2,1.6,3.4,2.6c0-2.1,0-3.9,0-5.8c0-0.2-0.2-0.5-0.4-0.6c-1.5-1.2-3.1-2.3-4.6-3.5
				c-0.2-0.1-0.4-0.3-0.6-0.4C109,152.2,109,154,109,155.9z M109,139.9c1.8,1.4,3.6,2.9,5.6,4.5c0-2,0-3.7,0-5.4
				c0-0.1-0.1-0.3-0.1-0.4c-0.6-0.8-1.2-1.6-1.8-2.4c-0.3-0.3-0.6-0.5-0.9-0.6c-0.2-0.1-0.4,0-0.5,0.2
				C110.5,137.2,109.8,138.5,109,139.9z M111.1,111c-0.7-0.5-1.3-0.9-2-1.4c0,0.2-0.1,0.3-0.1,0.4c0,1.7,0,3.5,0,5.2
				c0,0.3,0.3,0.7,0.5,0.8c1.5,1.2,2.9,2.3,4.4,3.4c0.2,0.2,0.5,0.3,0.8,0.4c0-1.9,0-3.7,0-5.4c0-0.6-0.2-0.9-0.5-1.1
				C113.1,112.6,112.1,111.8,111.1,111z M108.8,188.1c0,1.2,0.3,2.3,0.9,3.3c0.4,0.8,1,1.4,1.8,1.5c2.4,0.1,3.8-2.5,3.1-5.6
				c0-0.2-0.2-0.4-0.3-0.5c-1.7-1.3-3.4-2.6-5.2-4c-0.1,1-0.2,1.9-0.2,2.8C108.8,186.4,108.8,187.2,108.8,188.1z M109,172.2
				c0,0.3,0.2,0.6,0.3,0.8c0.6,0.5,1.2,1,1.9,1.4c1.1,0.8,2.2,1.6,3.4,2.6c0-2.1,0-3.9,0-5.8c0-0.2-0.2-0.5-0.4-0.6
				c-1.5-1.2-3.1-2.3-4.6-3.5c-0.2-0.1-0.4-0.3-0.6-0.4C109,168.5,109,170.3,109,172.2z M109.5,148.6c1.2,0.9,2.3,1.8,3.5,2.6
				c0.5,0.4,1,0.8,1.7,1.3c0-2.1,0-4,0-5.8c0-0.2-0.2-0.5-0.3-0.7c-0.9-0.7-1.8-1.4-2.7-2.1c-0.8-0.6-1.7-1.2-2.6-1.8
				c0,1.9,0,3.6,0,5.3C108.9,148,109.1,148.3,109.5,148.6z M110.2,124.7c-0.4,0-1,0-1.2,0.4c-0.5,0.8-0.9,1.8-1.1,2.8
				c-0.3,1.9-0.1,3.8,0.3,5.6c0.1,0.4,0.3,0.8,0.6,0.9c0.8,0.3,1.7,0.5,2.6,0.7c1.3-0.1,2.5-0.3,3.6-1c0.2-0.1,0.4-0.4,0.4-0.7
				c0.5-2.3,0.5-4.6,0-6.9c-0.2-0.9-0.6-1.5-1.3-1.5C112.8,124.8,111.5,124.8,110.2,124.7z M109.3,99.7c1.6,1.2,3.2,2.4,4.8,3.6
				c0.1,0.1,0.3,0.1,0.5,0.3c0-2,0-4,0-5.9c0-0.2-0.1-0.4-0.3-0.6c-1.5-1.8-3-3.6-4.5-5.4c-0.1,0.3-0.2,0.6-0.3,0.9
				c-0.6,2.1-0.7,4.4-0.6,6.6C109,99.3,109.2,99.6,109.3,99.7z M109,180.4c0,0.2,0.2,0.5,0.4,0.6c1.3,1,2.6,2,3.9,3
				c0.4,0.3,0.8,0.6,1.3,1c0-2.1,0-3.9,0-5.8c0-0.3-0.2-0.6-0.4-0.8c-1-0.8-2.1-1.6-3.2-2.4c-0.7-0.5-1.3-0.9-2.1-1.5
				C109,176.7,109,178.5,109,180.4z M114.1,121.4c-1.6-1.2-3.2-2.4-4.7-3.6c-0.1-0.1-0.2,0-0.3,0c0,2.2,0,4.4,0,6.6
				c1.9-0.8,3.7-0.6,5.6-0.3c0-0.5,0-0.9,0-1.2C114.7,122.2,114.5,121.8,114.1,121.4z M136.3,97.5c-0.1-2.6-0.4-4.9-1.1-7.2
				c-1.9,0.6-3.7,1.2-5.6,1.8c0.3,1.2,0.6,2.3,1,3.3c0.1,0.2,0.3,0.5,0.5,0.5c1.5,0.5,3,1,4.5,1.4C135.7,97.4,136,97.4,136.3,97.5z
				 M136.2,103c0.2-1.1,0.1-2.2,0-3.4c0-0.1-0.2-0.4-0.3-0.4c-1.8-0.6-3.5-1.2-5.4-1.8c0,1.6,0,3.1,0,4.5c0,1,0.2,1.8,0.6,2.5
				c0.7,1.1,1.5,1.8,2.6,1.5C135.1,105.7,136,104.7,136.2,103z M139.3,142.5c1-0.4,1.9-1.2,2.7-2.3c-2.8-1.7-5.5-3.3-8.3-4.9
				c-0.3,1.9-0.6,3.8-0.9,5.7c-0.9,0.1-1.8,0.3-2.6,0.2c-1.6-0.1-3.2-0.3-4.7-0.6c-3.2-0.6-6.2-2-8.8-4.6c-1-1-1.8-1.5-3-0.7
				c-0.1,0-0.2,0-0.2,0.1c0,0.1-0.1,0.2-0.1,0.3c6.2,7.6,12.7,14.6,20.7,18.9c-0.2-3.4-0.3-6.4-0.5-9.5c0-0.8,0.2-1,0.7-1.1
				C136,143.5,137.7,143.1,139.3,142.5z M90.6,139.8c0-0.5-0.1-1-0.2-1.4c-0.1-0.9-0.3-1.8-0.4-2.6c-2.4,1.5-4.7,3-7,4.4
				c1.9,3.5,4.7,5,7.8,5.8c-0.2,3-0.4,6-0.7,8.9c2.4-0.1,4.3-1.6,6.2-3c4.4-3.3,8.4-7.2,11.8-12.3c0.8-1.3,1.6-2.6,2.5-4
				c-0.8-0.3-1.3-0.5-1.9-0.6c-0.2-0.1-0.6,0-0.8,0.2c-1.5,1.7-3.2,2.8-5.1,3.5c-2.2,0.9-4.5,1.6-6.8,2.1c-1.4,0.3-2.8,0.2-4.3,0.2
				C91.2,141.1,90.6,140.9,90.6,139.8z M95.3,117.3c-1.1-0.2-2.3-0.2-3.5-0.2c-0.2,0-0.4,0.3-0.5,0.5c-0.6,2-0.9,4.1-1,6.2
				c0,3.2,0,6.3,0.1,9.5c0.1,1.8,0.4,3.7,0.8,5.5c0.1,0.3,0.5,0.8,0.7,0.8c1.1,0.1,2.2,0.3,3.3,0.2c2.8-0.3,5.6-1,8.2-2.3
				c1-0.5,2.1-1.2,3.1-1.8c0.3-0.2,0.5-0.7,0.9-1.2c-1.2-0.3-2.2-0.1-3.1,0.4c-3.2,1.6-6.5,2.5-9.9,2.4c-0.5,0-1.1-0.1-1.6-0.3
				c4.9-0.5,9.7-1.8,14.4-4.1c-0.3-3-0.3-5.9,1.1-8.6c-0.5-0.3-0.6-0.9-0.6-1.6c0,0,0-0.1,0-0.1c0-2.9,0-5.9,0-8.8
				c0-4.7-0.1-9.5-0.1-14.2c0.1-3.7,0.5-7.4,1.7-10.8c1.5-4.2,3.9-7.2,7.2-9c2.1-1.2,4.3-1.9,6.7-1.8c3.4,0.1,6.4,1.7,9,4.5
				c3.1,3.3,4.6,7.8,5.1,13c0.2,2.7,0.2,5.3,0,7.9c-0.2,2.7-2.1,4.5-4.3,4.1c-1.6-0.3-2.7-1.4-3.3-3.4c-0.2-0.8-0.2-1.8-0.3-2.7
				c-0.2-2-0.2-4-0.4-6c-0.4-3-1.7-4.9-3.9-5.8c-2-0.8-4-0.9-5.9,0.5c-1.9,1.3-2.8,3.6-3,6.3c-0.2,2.1-0.2,4.3-0.3,6.5
				c0,6.7,0,13.4,0,20.1c0,0.2,0,0.3,0,0.5c0,0.4-0.2,0.8-0.7,1c1.7,2.6,1.4,5.7,1.2,8.8c4.9,1.2,9.5,3.8,14.6,4
				c-1.7,0-3.5,0.1-5.2,0c-2.8-0.3-5.3-1.9-7.9-2.6c-0.4-0.1-0.9-0.2-1.5-0.3c0.3,1.1,0.9,1.6,1.4,1.9c2.4,1.5,4.8,2.5,7.4,3
				c1.6,0.3,3.3,0.4,5,0.5c0.6,0,1.1-0.1,1.7-0.2c0.1,0,0.3-0.3,0.4-0.5c0.3-2.1,0.7-4.1,0.8-6.2c0.2-2.5,0.3-5.1,0.1-7.6
				c-0.1-2.5-0.6-4.9-0.9-7.3c-0.1-0.7-0.5-0.9-0.9-0.9c-1.8,0.3-3.6,0.5-5.4,0.9c-3,0.8-5.8,2.5-8.4,4.7c-0.3,0.2-0.6,0.4-0.9,0.6
				c-0.1,0.1-0.2,0.1-0.3,0.2c2.8-3.4,6-5.6,9.7-6.6c1.7-0.5,3.4-0.9,5.1-0.8c0.1,0,0.2,0,0.3,0c1.2,0.1,1.3,0.2,1.6,1.8
				c0.9,4.9,1,9.9,0.8,14.9c0,0.9,0.1,1.2,0.7,1.6c2.9,1.7,5.8,3.5,8.7,5.2c0.2,0.1,0.4,0.2,0.7,0.5c-0.9,0.8-1.6,1.7-2.5,2.3
				c-2,1.6-4.2,2.5-6.5,2.9c-0.4,0.1-0.6,0.2-0.5,0.8c0.2,3.3,0.4,6.5,0.6,9.8c0,0.3,0,0.6,0,1c-7.3-3.7-13.2-10-19.3-16.4
				c0,0.5,0,0.8,0,1c0,5.4,0,10.8,0,16.1c0,10.3,0,20.6,0,30.9c0,1.2-0.2,2.4-0.5,3.5c-0.7,2.2-2.3,3.1-4.2,2.6
				c-1.8-0.5-2.8-1.9-3.1-4.3c-0.6-5.2-0.3-10.5-0.3-15.8c0-5.8,0.1-11.6,0.1-17.4c0-2.6,0-5.2,0-7.7c0-2.3-0.1-4.7-0.1-7
				c0-0.1,0-0.2-0.1-0.4c-5.3,7.1-11,12.9-18.4,15.5c0.1-1.8,0.2-3.4,0.3-5c0.1-1.4,0.2-2.8,0.3-4.2c0.1-0.7-0.3-0.8-0.6-0.9
				c-2.3-1.1-4.4-2.6-6.2-5c-0.5-0.7-0.9-1.5-1.4-2.2c1.8-1.1,3.6-2.2,5.4-3.3c0.8-0.5,1.6-1.2,2.4-1.7c0.3-0.2,0.4-0.5,0.4-1
				c-0.1-2.4-0.2-4.8-0.1-7.2c0-3.2,0.4-6.4,1-9.6c0.1-0.6,0.3-0.9,0.8-1c2.3-0.4,4.6,0.2,6.8,0.9c2.9,0.9,5.6,2.6,7.9,5.1
				c0.1,0.1,0.2,0.3,0.3,0.6c-0.5-0.4-1-0.8-1.5-1.1C102,119.3,98.7,118,95.3,117.3z"/>
		</g>
		<g>
		</g>
	</g>
</g>
</svg>
