<?xml version="1.0" encoding="utf-8"?>
<!-- Generator: Adobe Illustrator 17.1.0, SVG Export Plug-In . SVG Version: 6.00 Build 0)  -->
<!DOCTYPE svg PUBLIC "-//W3C//DTD SVG 1.1//EN" "http://www.w3.org/Graphics/SVG/1.1/DTD/svg11.dtd">
<svg version="1.1" id="Layer_1" xmlns="http://www.w3.org/2000/svg" xmlns:xlink="http://www.w3.org/1999/xlink" x="0px" y="0px"
	 viewBox="0 0 288 216" enable-background="new 0 0 288 216" xml:space="preserve">
<g>
	<path d="M103.3,173.1c-3.5,1.2-7,2.5-10.5,3.7c-6.8,2.3-13.5,4.7-20.3,6.9c-3.3,1.1-6.7,2.2-10.1,3.2c-6.6,2-13.3,3.9-19.9,5.8
		c-1.4,0.4-2.9,0.7-4.3,1c-0.2,0-0.8-0.4-0.8-0.6c-0.2-1.3-0.3-2.5-0.5-3.8c-0.2-2.8-0.5-5.7-0.6-8.5c-0.2-2.9-0.3-5.8-0.4-8.8
		c-0.1-3.7-0.1-7.4-0.2-11.1c0-0.5-0.1-1-0.2-1.4c-0.2-1.1,0-1.5,1.1-1.7c4.3-1.1,8.6-2.1,12.8-3.4c4.3-1.3,8.4-2.9,12.6-4.4
		c6.5-2.3,13-4.6,19.6-6.9c6.5-2.3,13.1-4.6,19.6-6.9c1.8-0.6,3.5-1.2,5.4-1.9c0.3,3.9,0.6,7.6,0.9,11.5c-0.6,0-1.1,0-1.6,0
		c-1.3,0.1-2.7,0.5-3.4,1.7c-0.6,1.1-1,2.4-1.1,3.7c-0.1,3.2,1.9,5.5,4.9,6.6c1.1,0.4,1.4,1,1.4,2c0,2.2,0,4.3,0,6.5
		c0.1-0.3,0.2-0.7,0.1-0.4c0.1-1.2,1-1.8,1.9-1.9c-0.1-1.9-0.2-3.9-0.4-5.8c-0.1-0.9-0.6-1.4-1.5-1.6c-1.4-0.3-2.8-0.8-3.8-2.1
		c-1.4-2-0.3-3.2,1.4-4c0.3-0.2,0.7-0.2,1.1-0.3c0.5-0.2,1.1-0.2,1.5-0.5c0.9-0.8,1.5-1.8,1.3-3.2c-0.3-2.9-0.6-5.8-0.8-8.7
		c-0.1-1.3,0-2.7,0-4c0-0.8-0.2-1.4-1-1.6c-3-1-6-2.1-9.1-2.9c-4-1.1-8-2.1-12-3c-6.1-1.4-12.3-2.8-18.5-4.2c-4.4-1-8.8-2-13.3-2.9
		c-4.6-1-9.2-1.8-13.8-2.8c-1.6-0.3-3.2-0.7-4.7-0.1c-1.7,0.6-3.3,1.4-4.8,2.4c-2,1.3-4,2.7-5.8,4.3c-3.3,3.2-5.8,7-7,11.4
		c-0.5,1.8-0.5,3.7-0.7,5.5c-0.1,1.1-0.2,2.1-0.2,2.7c-0.1,4.4-0.3,8.4-0.4,12.3c-0.1,5.4-0.4,10.9-0.1,16.3
		c0.3,5.5,2.1,10.6,5.6,15c1.9,2.5,4.6,4.1,7.3,5.7c1.9,1.1,3.8,2.1,5.7,3.1c1.2,0.7,2.4,0.7,3.6,0.4c6.2-1.7,12.5-3.5,18.7-5.4
		c7.6-2.3,15.2-4.5,22.7-7c7-2.3,14-4.9,21-7.4c0.9-0.3,1.8-0.6,2.7-0.9C103.7,174.3,103.4,173.7,103.3,173.1z M106.4,148
		c-1.4,0.5-2.8,1.1-4,1.7c0,0,0-0.2,0.1-0.4c0.7-1.4,2.2-3,3.7-2.8c0.3,0,0.8,0.3,0.9,0.6C107.3,147.6,107,147.8,106.4,148z
		 M20.5,134.5c0.5-1.8,1.4-3.6,2.4-5.2c2.9-5,7.2-8.6,12.4-10.9c1.6-0.7,3.2-1.1,5.1-0.6c3.8,0.9,7.7,1.6,11.6,2.4
		c3.8,0.8,7.5,1.5,11.3,2.3c1.8,0.4,3.7,0.9,5.5,1.3c2.8,0.6,5.6,0.9,8.4,1.6c6.5,1.6,12.9,3.2,19.3,4.9c3.1,0.8,6.2,1.8,9.6,2.8
		c-0.3,0.2-0.4,0.3-0.5,0.4c-7.3,2.7-14.5,5.4-21.8,8c-7.4,2.6-14.7,5.2-22.1,7.7c-3.6,1.3-7.2,2.6-10.9,3.6
		c-4.5,1.3-9.1,2.5-13.6,3.6c-0.7,0.2-1.7,0.1-2.4-0.2c-1.5-0.7-2.9-1.5-4.3-2.4c-3-1.8-5.8-3.9-7.9-6.9
		C19.8,143.1,19.3,138.9,20.5,134.5z M35.5,192.9c-1.9-1-3.7-2-5.6-3.1c-3.8-2.2-6.9-5.2-8.7-9.3c-1.7-3.9-2.6-8-2.6-12.2
		c0.1-6.2,0.1-12.3,0.2-18.5c0-1.2,0.1-2.4,0.2-3.6c0.1-0.7,0.2-1.5,0.4-2.4c0.2,0.4,0.3,0.6,0.5,0.8c1.5,2.9,3.5,5.5,6.3,7.4
		c2.4,1.6,4.8,3.2,7.2,4.8c0.2,0.2,0.5,0.5,0.5,0.7c0.1,0.8,0.2,1.7,0.2,2.5c0.2,3.6,0.3,7.2,0.4,10.9c0.1,3.1,0.1,6.3,0.2,9.4
		c0.1,1.7,0.3,3.5,0.4,5.2c0.2,2.4,0.3,4.8,0.5,7.2C35.8,192.8,35.7,192.8,35.5,192.9z"/>
	<path d="M50.5,159.8c1,0.2,2.1,0.2,3,0.6c2.2,0.9,4.2,2.6,3.8,5.7c-0.4,3.6-3.8,6.6-7.4,6.4c-2.2-0.1-4-1-5-3
		c-1.1-2.2-1.4-4.5,0.1-6.6c0.8-1.2,1.7-2.5,3.3-2.8c0.7-0.1,1.5,0,2.2,0C50.5,159.9,50.5,159.9,50.5,159.8z M47.9,162.1
		c-0.4-0.1-1,0.2-1.4,0.5c-1.8,1.5-1.6,3.3-1.2,5.4c0.5,2.9,4.3,4.5,6.8,3.3c1-0.5,1-1.5,1.3-2.4c0.1-0.3,0-0.6,0-0.8
		C53.6,164.6,51.1,162.5,47.9,162.1z M53.1,164c1.3,1.3,1.5,3.1,1.7,4.9c1-0.8,1.8-3.7,1.2-5c-0.7-1.3-1.8-2.2-3.2-2.6
		c-1.3-0.4-2.6-0.9-3.8-0.4C50.3,161.8,51.8,162.7,53.1,164z"/>
	<path d="M64.1,180.8c-3.1,0-5.2-2.5-5.4-4.9c-0.2-2.9,2.2-5.7,5.1-5.6c2.6,0,5.8,2.4,5.4,4.8C69.3,177.8,66.6,180.8,64.1,180.8z
		 M63.8,179.9c1.3,0.1,2.5-1.2,2.3-2.5c-0.3-2.5-1.6-3.9-4.1-4.3c-1.9-0.3-1.9-0.3-2.1,1.6c0,0.3-0.1,0.5-0.2,0.8
		C59.8,177.8,61.6,179.8,63.8,179.9z M67.5,177.3c1.1-2.7,0.4-4.2-1-5.3c-1.4-1-3.6-1-4.9,0.1C64.9,172.3,66.5,174.5,67.5,177.3z"/>
	<path d="M71.4,151.9c2.5-1.6,5.5-1.5,8,0.9c1.3,1.2,1.7,3.8,0.5,5.4c-1.6,2.1-3.4,3.1-6.1,2.5c-2.8-0.6-4.3-2.1-4.3-4.8
		C69.3,154.4,69.9,152.9,71.4,151.9z M72.1,153.2c-0.4,0-0.8,0.3-1.1,0.6c-1.5,1.7-0.7,4.1,0.8,5.4c0.7,0.6,1.4,0.8,2.3,0.7
		c0.7-0.1,1.4,0.1,2,0c1.4-0.3,1.4-0.4,1.4-1.8C77.8,156,74.6,153,72.1,153.2z M78.7,153.8c-1.3-1.8-3.2-2.4-6.2-1.6
		c3.1,0.9,5.7,2.3,6.1,5.8C79.6,156.9,79.6,155,78.7,153.8z"/>
	<path d="M94.6,159.3c2.5,0,5,2.1,5,4.2c-0.1,2.9-2,5-4.2,5.1c-3.3,0.1-5.5-1.9-5.5-4.8C89.9,161.2,91.9,159.3,94.6,159.3z
		 M92.9,161.4c-0.5-0.1-1-0.1-1.3,0.5c-0.6,1-1.1,2-0.6,3.2c0.7,1.4,1.7,2.3,3.3,2.4c1.8,0.1,2.1-0.3,2.1-2
		C96.4,163.5,94.8,161.6,92.9,161.4z M97.5,161.5c-1.1-1.4-2.6-1.5-4.1-1.3c1,0.8,2.1,1.4,2.9,2.3c0.9,0.9,1.3,2.1,1.2,3.4
		C98.1,164.4,98.6,162.9,97.5,161.5z"/>
	<path d="M46.9,187.1c-2.1,0-4.2-1.7-4.2-3.4c0-1.2,2.1-2.9,3.6-2.9c1.7,0,2.9,1.4,2.9,3.2C49.2,185.4,47.9,187.1,46.9,187.1z
		 M45.8,182.9c-0.2-0.2-0.9-0.5-1-0.3c-0.4,0.3-0.7,0.9-0.7,1.3c0,1,1.1,1.9,2.2,2.2C46.7,184.9,46.7,183.8,45.8,182.9z M47.7,184.9
		c0.8-1.1,0.6-2.7-1-3C47.1,182.9,47.4,184,47.7,184.9z"/>
	<path d="M94.5,149.5c0.1,1.3-1.5,3.1-2.9,3.3c-1.6,0.2-3.5-1.3-3.6-2.8c-0.1-1.6,1.3-3.5,2.7-3.6C92.8,146.2,94.4,147.6,94.5,149.5
		z M91.6,151.7c0.6-0.2,0.8-1.2,0.3-1.9c-0.3-0.4-0.6-0.7-1-0.9c-0.4-0.2-1-0.3-1.3-0.2c-0.3,0.1-0.4,0.7-0.5,0.8
		C89,150.9,90.5,152,91.6,151.7z M93.2,150c0.5-1.5-0.5-2.8-2.3-2.6C91.7,148.3,92.5,149.2,93.2,150z"/>
	<path d="M52.1,134.7c-1.9-1.3-1.9-4.5,0.1-5.7c2.1-1.3,4.4-1.8,6.8-1.6c1.7,0.1,3.4,0.6,5.1,1.1c1.3,0.4,2.5,1.2,2.6,2.7
		c0.2,1.6-0.5,2.9-1.9,3.7c-1.8,1.1-3.8,1.8-6.8,1.7C56.3,136.6,53.8,135.9,52.1,134.7z M51.6,132.5c0.6,1.9,2.2,2.4,3.9,2.7
		c1.9,0.4,3.9,0.7,5.8,0c1.3-0.5,2.6-1.3,4-2.1C61.1,130.1,53.9,129.9,51.6,132.5z M63.7,129.2c-3.7-1.5-7.3-1.6-10.9,0.6
		c-0.4,0.2-0.8,0.6-1,1c4.8-1.8,9.4-1,14,1.2C65.5,130.4,64.7,129.6,63.7,129.2z"/>
	<path d="M34.7,130c-2.2-1.1-2.9-3.4-0.8-5.3c1.1-1,2.3-1.6,3.8-1.7c1.9-0.1,3.9-0.4,5.6,0.4c2.6,1.3,3.2,2.9,1.3,5.5
		c-1.3,1.7-3.2,2.2-5.7,2.6C37.7,131.1,36.1,130.8,34.7,130z M39.2,130.4c1.8-0.1,3.8-0.7,4.8-2.6c-1.6-1.6-7.8-2.1-10.2,0.4
		C35.1,130.2,37.3,130.4,39.2,130.4z M43.1,124.3c-1.7-1-3.6-0.6-5.4-0.5c-1.6,0.1-2.6,1.2-3.6,2.2c-0.2,0.2-0.3,0.6-0.4,1
		c3.5-1.9,7-1.7,10.7-0.4C44.5,125.3,43.8,124.8,43.1,124.3z"/>
	<path d="M46.5,140c2.6,0.8,3.2,2.5,2.3,4.3c-0.4,0.7-1,1.3-1.6,1.7c-2.2,1.6-5.9,1.4-8.5-0.2c-2.1-1.3-2.1-4.3,0.3-5.2
		c1.4-0.5,2.9-0.9,4-1.2C44.5,139.6,45.5,139.7,46.5,140z M38.5,144.1c0.3,1.2,1.3,1.5,2.3,1.8c3.3,0.8,4.5,0.5,6.4-1.3
		C45.6,143,40.3,142.5,38.5,144.1z M47.6,143.5c0.7-0.6,0.6-1.2,0-1.7c-1.6-1.5-3.5-1.6-5.4-1.4c-1,0.1-2,0.6-2.9,1
		c-0.5,0.2-0.8,0.8-1.2,1.2c0.1,0.1,0.1,0.2,0.2,0.3C41.6,142.1,44.6,142.4,47.6,143.5z"/>
	<path d="M84.8,129.9c1,0.2,1.4,0.9,1.4,1.8c0,0.8-0.4,1.6-1.3,2.1c-1.3,0.7-2.5,0.8-3.9,0.4c-1.4-0.4-2.5-1.5-2.4-2.6
		c0.1-1.5,1.3-2.4,3.2-2.6C82.9,129.3,83.9,129.7,84.8,129.9z M79.9,131.2c1.8,0.1,3.5,0.3,5.2,0.4
		C84.4,129.7,81.4,129.4,79.9,131.2z M79.9,132.1c1.2,1.6,3.4,1.7,4.9,0.3C83,132.3,81.5,132.2,79.9,132.1z"/>
</g>
<g>
	<path d="M271.6,81.7c-3-0.5-2-1.2-5-1.4c-9.8-0.7-18.7,1.8-25.8,9c-8,8.1-12.5,17.9-13.4,29.3c-0.6,8-0.4,16.1-0.9,24.1
		c-0.2,3.6-0.9,7.2-1.9,10.6c-1.3,4.4-4.7,6.8-9.2,7.3c-5.9,0.7-11.5-0.8-17.2-3c3.9-17.5,0.7-33.1-6.4-47.7c-0.4,0.5-1,0.7-1.6,0.6
		c3.9,8,6.6,16.4,7.6,25.5c1,8.7,0.3,17.2-2.9,25.4c-2.4,6.1-6.2,10.8-12.9,12.5c-1.2,0.3-2.4,1.3-3.4,2.1
		c-7.7,6.6-16.3,11.5-25.6,15.3c-1.7,0.7-3.7,1-6.2,1.7c0.1-2.2,0.2-3.5,0.3-4.8c-0.2-0.1-0.4-0.1-0.6-0.2c-0.4,1.5-0.7,3.1-1.1,4.7
		c-5.3,1-6.5-0.6-5.3-6.7c-0.6,1.4-1.1,2.9-1.6,4.3c-2.2-3.1-1.6-7,2.4-9c3.9-1.9,8.3-2.9,12.6-3.9c2.8-0.7,5.7-0.7,8.5-1
		c0.1-0.3,0.2-0.6,0.4-0.9c-1.3-0.8-2.6-1.6-3.9-2.5c-7.6-5-11.6-11.8-10.2-21.1c1.5-9.7,7.8-16.7,17-18.8c2.5-0.6,5.1-0.8,7.6-1.2
		c0-0.3,0.1-0.6,0.1-0.9c-1.7-0.2-3.5-0.4-5.1-0.6c0-2.3-0.2-4.5,0.1-6.7c0.1-1.1,1.1-2.1,1.9-3c3.2-3.8,3.1-7.7-1.1-11.4
		c0.7,2,1.1,3.2,1.5,4.4c0.7,2.4,0,4.8-2,5.9c-1.8,1-4.1,1.2-6.2,1.2c-0.8,0-1.5-1.5-2.6-2.7c-0.3,2.7-0.1,5.2-0.8,7.4
		c-0.8,2.3-2.4,4.3-5.6,4.5c-0.2-1.4-0.4-2.5-0.7-4.2c-0.6,1.4-1,2.4-1.4,3.4c-2.2-2.4-2.4-4.2-0.9-7.4c3.4-7.1,9.5-7.7,16.7-6.4
		c0-4.8-1.7-8.9-3.1-13c-0.5-1.4-0.7-3-1.2-5c-1.5,0.2-3.7,0.7-5.8,0.6c-2.1-0.1-4.3-0.7-6.4-1c0-0.3,0-0.6-0.1-0.8
		c1.7-0.6,3.4-1.1,5-1.9c3.2-1.6,6.3-3.5,9.4-5.2c0.8-0.4,1.8-0.6,3.3-1c0.6-1.6-0.2-3-2.2-4.2c-0.3,2.7-2.2,4-4.1,5.2
		c-5.7,3.8-12.1,5.5-18.7,6.6c-12.1,2-23.8,0.3-35.1-4c-0.5-0.2-1-0.5-1.8-0.9c3.2-4.4,3.5-8.9,0-13.5c0.8-0.4,1.3-0.8,1.9-1
		c8.3-3.3,15.3-8.3,21.3-14.9c4.5-5,9.5-9.5,16.5-10.7c3.5-0.6,7.1-0.7,10.7-0.7c1.5,0,3.1,1,5,1.6c0-0.2,0.3-0.8,0.3-1.4
		c0.4-11.7,7.2-20.3,18.5-23.2c8.9-2.3,17.1-0.7,24.3,5.1c11.2,9,11.2,25.4-0.1,34.3c-7.8,6.1-16.5,7.5-25.9,4.5
		c-1.2-0.4-2.4-0.7-3.6-1c-0.2,0-0.4,0.3-1.3,0.9c2.4,0.9,4.3,2,6.3,2.4c3.1,0.5,4.6,2.5,5.5,5c0.6,1.7,0.8,3.5,0.6,5.2
		c0.5-0.6,1.1-0.7,1.7-0.6c0.1-2.7-0.6-5.6-1.8-8.6c7.2,0,13.5-1.7,19-5.9c12.8-9.7,13.1-27.7,0.5-37.6c-7.8-6.2-16.7-7.8-26.3-5.1
		c-2.1,0.6-3.9,0.6-5.9-0.5c-5.6-3.1-11.7-3.5-17.8-2.5c-11.8,1.9-20.9,12-21.2,23.4c2.6,6.4-1.4,9.9-5.7,13.4
		c-0.9,0.7-1.6,1.6-2.3,2.4c-5.1,5.7-11.4,9.6-18.4,12.6c-2.2,0.9-4.1,1.3-6.7,0.3C94.7,72,87.5,76,86.4,82
		c-1.3,7.3,6,13.6,13.7,11.3c3.2-1,5.8-0.5,8.7,0.5c10.5,3.7,21.2,5.5,32.3,3.6c3.7-0.6,7.1,0.2,10.9,2.4c-0.9,3.3-1.8,6.7-2.7,10.1
		c-2.6,0-4.7-0.2-6.8,0c-5.7,0.6-9.2,4-11.2,9.2c-1.6,4-0.4,7.2,3.2,9.7c-7.5,5.4-11,12.6-11.6,21.4c0,0.1,0,0.2,0,0.3
		c0.6-0.8,1.2-1.6,2-2.3c0.2-1.3,0.5-2.6,0.8-4c1.5-5.6,4.5-10.2,9.7-13.3c-1.8,4.2-3.6,8.3-4.7,12.6c0.5-0.4,0.9-0.8,1.3-1.2
		c0.4-0.4,0.8-0.6,1.3-0.6c2-5.6,5.2-10.9,8.1-16.3c1.4-2.7,3.2-5.2,5-7.6c3.9-5.4,6.5-11.2,7.3-18h7c1.4,4.1,2.8,8.3,4.5,13.2
		c-2.4,0-4.1-0.1-5.9,0c-6.1,0.4-11.3,5.2-12.1,11.3c-0.4,3.2,0.7,5.6,2.9,6.8c2.2,1.1,5.8,0.6,7.6-1.6c1.5-1.8,2.5-3.9,4-6.4
		c0,0,0.8-0.1,1.6-0.2c0.7,0,1.4,0.1,2.5,0.1c0,1.9,0,3.4,0,4.9c0,2-0.7,3.1-2.8,3.8c-11.4,4.1-17.5,13.8-16.6,25.8
		c0.4,5.7,3.2,10.2,7.3,14c1.1,1,2.2,1.9,4,3.4c-3,0-5.2,0.4-7.2-0.1c-7.8-2-13.7-7.1-16.7-13.7c-0.3,0.3-0.6,0.5-1,0.8
		c-0.1,0.1-0.2,0.1-0.3,0.2c2.9,6.2,7.7,10.7,14.8,13.7c-2.8,1.4-5.7,2.2-7.7,3.9c-3.1,2.7-6.7,3.8-10.5,4.5
		c-1.8,0.3-3.7,0.1-6.3,0.1c0.8-2,1.3-3.4,1.9-4.8c-0.1-0.1-0.3-0.2-0.4-0.3c-0.9,1.3-1.8,2.5-2.6,3.8c-2.2-3-2-5.3,1.5-6.6
		c3.4-1.3,7.2-1.7,10.8-2.5c1-0.2,2.1-0.2,3.4-0.7c-3.1-2.8-6.4-5.4-8.8-8.7c-0.2,0.3-0.4,0.7-0.5,1.1c-0.1,0.3-0.2,0.6-0.3,0.8
		c1.5,1.9,3.2,3.7,5.2,5.3c-3.7,1-7.1,1.7-10.3,2.9c-3.5,1.3-4.9,4-4.3,6.7c0.7,3,3.1,5,6.8,4.9c3.3-0.1,6.5-0.8,10.1-1.3
		c0,7.3,3,10.2,10.2,9.6c3-0.3,6.1-0.9,8.8-2.2c6.3-3.1,12.5-6.5,18.6-10.1c4.8-2.8,8.5-7.5,14.3-8.9c0.5-0.1,1-0.5,1.4-0.9
		c1.4-1.4,2.8-1.2,4.6-0.6c6,1.8,12.2,2.3,18.5,2c11.7-0.6,20-7.3,22.3-18.8c1-5.1,1.1-10.5,1.4-15.7c0.4-8.3,0.2-16.7,1.1-24.9
		c1.6-15.9,13.4-32.9,34.5-31.4c0.8,0.1-0.3-0.2,0.5-0.3C271.5,82.5,271.6,82.1,271.6,81.7z M143.6,29.9c7.9-7,20.5-8.2,30-2.5
		c-8.3,4.7-12.8,11.5-13.9,20.8c-7.9-1-15.3-0.4-22.2,3.4C134.4,44.5,136.9,35.7,143.6,29.9z M97.4,92c-5.1,0-9.3-3.5-9.4-8.1
		c-0.1-4.6,3.8-8.2,9-8.3c5.5-0.1,9.6,3.4,9.6,8.2C106.7,88.3,102.6,91.9,97.4,92z M145.2,116.5c-0.8-0.6-1.5-1.1-2-1.4
		c-0.6,2.5-0.8,5-1.9,7c-1,1.9-1.6,5-5.3,4.3v-3.6c-0.1,0-0.3-0.1-0.4-0.1c-0.3,1.1-0.7,2.2-1,3.3c-0.2,0-0.5,0-0.6-0.1
		c-2.9-3-1.1-6,0.5-8.7c2.7-4.6,6.9-6.1,13.5-5.1C146.8,113.8,146,115,145.2,116.5z M230.3,115.5c0.7-0.5,2.8-0.2,2.9,0.1
		c0.5,2,0.7,4.1,1,6.4H229C229.1,119.6,228,117.2,230.3,115.5z M228.7,123.6c5.2-0.8,5.8,0.1,4.6,6.1h-4.6V123.6z M192.4,169.6
		c1-1.6,2-3.2,2.9-4.8c0.8-1.6,1.5-3.2,2.4-5.4c1.6,0.5,2.9,1,4.1,1.4C201.1,168.2,197.6,171.7,192.4,169.6z M198.8,171.3
		c1.6-3.2,3.3-6.4,5.1-9.9c1.8,0.3,3.8,0.7,5.7,1.1C211,170.5,207.3,173.4,198.8,171.3z M208.9,172.1c1.1-3.2,2.1-6.2,3.2-9.6
		c1.6-0.1,3.6-0.3,5.6-0.5C220.8,170.7,217.9,172.8,208.9,172.1z M224.8,167.6c-1.4,1.1-3,1.8-4.9,3v-9.3c1.2-0.8,2.5-1.8,4.2-2.9
		c1.4,1.4,2.6,2.6,3.9,3.9C228.6,165.1,226.5,166.3,224.8,167.6z M228.1,162.3c-0.9-1.8-1.7-3.7-2.8-6c0.2-0.4,0.7-1.5,1.5-3.1
		c1.9,0.7,3.7,1.3,5.9,2.1C230.9,158,231.9,161.6,228.1,162.3z M232.9,153.5c-2-0.5-3.6-1-5.7-1.5c0.3-1.8,0.6-3.6,1-5.8
		c1.7,0.1,3.2,0.2,5.1,0.3C233.1,149.1,233,151.2,232.9,153.5z M233.5,145.1c-2-0.1-3.5-0.2-5.2-0.3c0-1.4,0-2.8,0-4.1
		c0-1.7,0.7-2.6,2.5-2.4c1.6,0.1,3,0.5,3,2.5C233.7,142.1,233.6,143.4,233.5,145.1z M228.3,137.1c0.3-2.1,0.4-4,1-5.8
		c0.1-0.4,3-0.5,3.3,0c0.9,1.6,1.1,3.6,1.8,5.8H228.3z M235.4,110.3c-0.3,1.2-0.6,2.3-1,3.6c-1.5,0-2.6,0-3.7,0
		c-0.2,0-0.5-0.2-1-0.4c0.4-1.5,0.7-3.1,1.1-4.6c0.5-1.7,1.8-1.9,3.3-1.5C235.8,107.8,235.8,109,235.4,110.3z M236.3,106.6
		c-1.4-0.2-2.5-0.4-3.7-0.6c0.9-5.5,1.6-6.1,6-4.7C237.7,103.2,237.1,104.8,236.3,106.6z M239.5,99.9c-1.2-0.3-2.3-0.6-4.1-1
		c1.2-1.7,2-3.3,3.3-4.3c0.6-0.5,2.1,0.3,3.7,0.6C241.2,97.1,240.4,98.4,239.5,99.9z M246.3,91c-0.7,1.1-2,1.9-3.5,3.2
		c-0.6-0.4-1.4-0.9-2.1-1.4c0-1.7,3.8-5,4.8-4.3C246.2,88.9,246.6,90.4,246.3,91z M248.8,89.4c-1.1-1.1-1.7-1.6-2.7-2.6
		c2.3-1.1,3.9-1.9,5.6-2.8C253.1,87.6,249.6,87.2,248.8,89.4z M253.8,85l-0.4-1.4c1.2-0.3,2.4-0.6,3.5-1c0.1,0.3,0.2,0.6,0.3,1
		C256.2,84,255,84.5,253.8,85z"/>
	<path d="M175.1,51.4c-2.6,1.1-5.1,2.3-8.5,3.8c0-2.9-0.4-5.4,0.1-7.9c1.8-10.2,12.1-16.8,23.3-15c10.2,1.6,17,10.7,15.7,21
		c-1,7.7-7.6,14.4-15.7,15.6c-4.2,0.6-8.3,0.4-12.2-1.4c-3.6-1.7-3.9-3.1-1.2-6.1c0.7-0.8,1.4-1.6,2.3-2.7c-2.5,0.1-4.8,0.3-7.7,0.5
		c1.6-2.7,2.9-4.9,4.2-7.1C175.3,51.8,175.2,51.6,175.1,51.4z M175.9,64.2c8,5.2,18.1,3.9,24-2.5c5.3-5.8,5.8-14.4,1.1-20.7
		c-5.1-6.9-15.2-9.3-23.2-5.4c-6.9,3.4-10.8,10.5-9,16.6c2.9-0.6,5.5-3.5,9.1-1.4c-1.4,2.1-2.8,4.1-4.2,6.3c3.3,0.2,6.2,0.3,9.5,0.5
		C180.4,60.1,178.2,62.1,175.9,64.2z"/>
	<path d="M148.2,80c-6.6,0-11.8-4.9-11.7-11c0.1-5.8,5.3-10.7,11.5-10.8c6.5-0.1,11.8,4.8,11.9,10.8C159.9,75.2,154.8,80,148.2,80z
		 M148.1,78.2c5.5,0,9.9-3.9,10-8.9c0.1-5.1-4.5-9.5-10.1-9.4c-5.3,0.1-9.9,4.3-9.8,9.2C138.2,74.2,142.6,78.2,148.1,78.2z"/>
	<path d="M150.8,73.1c-2.4-0.1-4.4-2.1-4.4-4.6c0-2.4,2-4.5,4.4-4.5c2.6,0,4.8,2.2,4.6,4.8C155.4,71.2,153.2,73.2,150.8,73.1z"/>
</g>
<g>
	<path d="M165.2,114.8c0.6-0.4,1.2-0.8,1.7-1.2c-0.3-0.1-0.6-0.2-0.8-0.5c-0.2-0.2-0.4-0.5-0.5-0.8c-1,0.7-2,1.4-2.9,2.2
		c-0.1,0.1-0.2,0.2-0.3,0.3C163.4,114.6,164.3,114.5,165.2,114.8z"/>
	<path d="M236.1,69.6c-1.3,1.3-2.8,2.4-3.9,3.8c-4.8,5.7-9.4,11.5-14.2,17.1c-2,2.3-4.3,4.4-6.6,6.4c-0.5,0.4-1.6,0.1-2.4,0.2
		c0.3-0.7,0.4-1.5,0.9-2c3.2-3.5,6.7-6.6,9.6-10.3c4.2-5.3,7.9-11,11.7-16.6c0.6-1,0.6-2.4,0.9-3.6c-0.3-0.2-0.6-0.4-0.9-0.6
		c-1.3,1-2.7,1.9-3.8,3.1c-2.7,3-5,6.2-7.7,9.1c-4.7,5-9.7,9.7-14.6,14.5c-1.2,1.1-2.5,1.8-3.9-0.2c1.9-1.8,3.7-3.6,5.5-5.3
		c6.6-6.6,12.1-13.9,16.4-22.1c0.5-0.9,0.1-2.1,0.1-3.2c-1,0.4-2.2,0.6-2.9,1.4c-2.5,2.7-4.8,5.7-7.3,8.4
		c-5.1,5.4-10.2,10.7-15.4,16c-1,1-2.1,2-3.4-0.2c1.8-1.9,3.7-3.8,5.6-5.7c5.5-5.5,11-11.1,14.3-18.3c0.6-1.3,0.4-3,0.6-4.5
		c-1.2,0.8-2.7,1.3-3.6,2.3c-7.7,8.6-15.8,16.9-25.2,23.8c-5.8,4.3-9.1,9.9-8.2,17.5c0.4,3.2-1.2,5.1-3.9,6.7
		c-1.5,0.9-2.9,1.8-4.4,2.7c0.5,0.4,0.8,0.9,1.1,1.4c1.6-1,3.2-2,4.7-3c2.9-1.9,4.8-4.1,4.4-7.7c-1-7.8,2.6-13.5,8.8-17.7
		c8.1-5.6,14.9-12.6,21.4-19.9c0.6-0.7,1.2-1.3,1.8-1.9c0.3,0.2,0.5,0.4,0.8,0.6c-1.8,2.6-3.4,5.5-5.5,7.9
		c-4.1,4.7-8.6,9.1-12.9,13.5c-1.3,1.4-2.7,2.6-1,4.6c1.4,1.6,3.4,1.6,5.2-0.3c6.4-6.7,12.6-13.4,18.9-20.2c0.8-0.9,1.6-1.9,2.5-2.8
		l0.7,0.5c-2.2,3.2-4.1,6.7-6.6,9.6c-4.2,4.9-8.9,9.4-13.3,14.2c-0.7,0.8-1.6,2.7-1.3,3c0.8,0.9,2.4,2,3.5,1.8
		c1.7-0.4,3.6-1.4,4.9-2.7c6.4-6.5,12.6-13.2,18.8-19.9c0.7-0.8,1.4-1.6,2.1-2.3l0.6,0.5c-2,2.9-3.8,6-6.1,8.7
		c-4.6,5.4-9.5,10.7-14.3,16c-1.2,1.3-3.3,2.5-1.5,4.7c1.5,1.8,3.4,1.8,5.6-0.4c5.6-6,11.1-12.1,16.5-18.3c1.5-1.7,2.7-3.6,4-5.4
		l1,0.6c-0.3,0.9-0.5,1.9-1,2.7c-4.4,8.3-9.8,15.8-16.4,22.5c-5.2,5.3-11.6,8.1-19.1,8.4c-4.4,0.2-8.9,0.5-13.2,1.4
		c-5.9,1.2-10.8,4.6-14.9,9c-11.8,12.7-23.6,25.5-35.3,38.3c-4.3,4.7-8.5,9.4-12.5,14.3c-3.7,4.6-12.6,3.9-16.3,1.2
		c-1.9-1.4-1.1-2.8,0.2-4.1c3.8-3.6,7.5-7.3,11.4-10.8c10.4-9.5,20.8-19.1,31.3-28.5c-0.2-0.1-0.3-0.3-0.4-0.4
		c-0.6-0.1-1.1-0.5-1.4-0.9c-14.4,12.7-28.2,26.2-41.9,39.7c-3.5,3.4-2.7,6.8,2,8.4c7.2,2.5,13,0.5,18.6-5.7
		c14.3-16,28.7-31.8,42.9-47.8c7.6-8.5,17-12.2,28.2-11.8c6.7,0.2,12.7-1.9,17.8-6.1c9.5-7.9,16.3-17.8,21.5-28.9
		c0.8-1.7,0.9-3.7,1.4-5.5C236.8,69.9,236.5,69.8,236.1,69.6z"/>
</g>
<g>
	<path d="M147.1,124.4c-0.4,3.2,0.7,5.6,2.9,6.8c2.2,1.1,5.8,0.6,7.6-1.6c1.5-1.8,2.5-3.9,4-6.4c0,0,0.8-0.1,1.6-0.2
		c0.7,0,1.4,0.1,2.5,0.1c0,0.4,0.8-0.5,0.8-0.1c0.6-0.1,0.9-0.5,1.7-0.4c0.2-1.1,0.8-1,1.5-1.9c3.2-3.8,3.1-7.7-1.1-11.4
		c0.7,2,1.1,3.2,1.5,4.4c0.7,2.4,0,4.8-2,5.9c-1.8,1-4.1,1.2-6.2,1.2c-0.8,0-1.5-1.5-2.6-2.7c-0.3,2.7-0.1,5.2-0.8,7.4
		c-0.8,2.3-2.4,4.3-5.6,4.5c-0.2-1.4-0.4-2.5-0.7-4.2c-0.6,1.4-1,2.4-1.4,3.4c-2.2-2.4-2.4-4.2-0.9-7.4c3.4-7.1,9.5-7.7,16.7-6.4
		c0-1.4-0.2-2.7-0.4-4c-0.3,0.3-0.7,0.5-1.1,0.6c-0.1,0-0.2,0-0.3,0c0.1,0.4,0.3,0.8,0.4,1.2c-2.4,0-4.1-0.1-5.9,0
		C153.1,113.5,147.9,118.3,147.1,124.4z"/>
</g>
<path fill="none" stroke="#000000" stroke-width="2" stroke-miterlimit="10" d="M170.6,113.3c-0.3-1,0-2.1,0.5-3
	c0.5-0.9,1.3-1.6,2.2-2.2"/>
</svg>
