<?xml version="1.0" encoding="utf-8"?>
<!-- Generator: Adobe Illustrator 17.1.0, SVG Export Plug-In . SVG Version: 6.00 Build 0)  -->
<!DOCTYPE svg PUBLIC "-//W3C//DTD SVG 1.1//EN" "http://www.w3.org/Graphics/SVG/1.1/DTD/svg11.dtd">
<svg version="1.1" id="Layer_1" xmlns="http://www.w3.org/2000/svg" xmlns:xlink="http://www.w3.org/1999/xlink" x="0px" y="0px"
	 viewBox="0 0 288 216" enable-background="new 0 0 288 216" xml:space="preserve">
<g>
	<path d="M141.6,129.8c-1.4,0.5-2.6,1-3.9,1.4c-0.3,0.1-0.7,0.2-1,0.3c-0.6,0.3-1.2,0.1-1.7-0.3c-0.2-0.1-0.3-0.2-0.5-0.3
		c0,0-0.1,0.1-0.1,0.1c0.1,0.1,0.1,0.3,0.3,0.4c1.9,1.4,3.8,2.8,5.8,4.1c2,1.3,4.2,2.4,6.2,3.5c0.3,0.2,0.5,0.4,0.6,0.8
		c0.4,4.5,2.2,8.4,4.3,12.3c0,0.1,0.1,0.2,0.2,0.3c-1,0.2-2,0.3-3,0.1c-0.5-0.1-1.1-0.2-1.6-0.3c-0.2,0-0.3,0-0.4,0.2
		c-1,2.9-1.8,5.9-2.3,8.9c-0.3,1.8-0.6,3.7-0.7,5.5c-0.2,1.9-0.2,3.8-0.2,5.7c0,1.2,0,1.2-1.2,1.1c-2.2-0.2-4.5-0.4-6.7-0.5
		c-1.4-0.1-2.8-0.2-4.2-0.2c-3.5-0.1-7.1-0.1-10.6-0.1c-2.5,0-4.9,0.2-7.4,0.3c-1.7,0.1-3.4,0.2-5.1,0.4c-2.4,0.2-4.8,0.5-7.1,0.8
		c-4.6,0.6-9.1,1.7-13.6,2.7c-0.3,0.1-0.4,0-0.5-0.3c-1.1-4.5-2.5-8.9-4.4-13.2c-0.1-0.1-0.1-0.2-0.2-0.4c-1.9,1.1-3.7,2.3-5.9,2.9
		c0.1-0.7,0.1-1.4,0.2-2c0.3-3.6,0.3-7.2,0.1-10.8c-0.1-1.2-0.3-2.3-0.4-3.5c0-0.1,0.1-0.4,0.2-0.4c1.6-1.1,3.2-2.2,4.7-3.3
		c2.4-1.7,4.5-3.7,6.6-5.8c0.1-0.1,0.3-0.3,0.2-0.5c-0.5-1-0.9-2.1-1.4-3.3c-0.4,0.5-0.8,0.9-1.1,1.4c-0.2,0.3-0.4,0.4-0.7,0.4
		c-1.2,0-2.4,0.1-3.5,0.2c-0.8,0-1.7-0.1-2.5-0.1c0,0,0-0.1,0-0.1c0.6-0.6,1.1-1.3,1.7-1.9c3.4-3.9,6.7-7.8,9.8-11.9
		c4.2-5.6,8-11.4,11.2-17.6c2.6-5.1,4.6-10.4,6-15.9c0.4-1.7,0.9-3.4,1.3-5.1c0.2-0.7,0.3-1.4,0.5-2.1c0-0.2,0.1-0.3,0.2-0.5
		c0,0,0.1,0,0.1,0c0,0.5,0.1,1,0.1,1.4c-0.1,1.3,0.2,2.5,0.5,3.7c1.8,8.7,5.5,16.5,11,23.5c3,3.7,6.3,7.1,10,10.1
		c3.1,2.5,6.4,4.9,9.6,7.4C141.1,129.3,141.3,129.5,141.6,129.8z M133.7,130.2c-0.1-0.1-0.3-0.2-0.4-0.3c-1.7-1.3-3.3-2.6-5-4
		c-4.5-3.7-8.8-7.8-12.2-12.6c-0.1-0.1-0.2-0.2-0.4-0.2c-1.7-0.2-3.4-0.5-5.1-0.4c-0.2,0-0.3,0-0.5,0c0,0,0-0.1,0-0.1
		c1.8,0,3.6-0.1,5.4-0.1c-2.7-3.9-4.8-7.9-6.3-12.4c-0.1,0.2-0.1,0.3-0.2,0.4c-0.7,2-1.3,3.9-2,5.9c-2,5.3-4.9,10.2-8.1,14.8
		c-3.2,4.7-6.8,9.2-10.5,13.6c-0.1,0.2-0.3,0.3-0.1,0.5c1.3,2.9,2.5,5.8,3.8,8.7c0,0.1,0.2,0.2,0.3,0.2c2,0.1,3.9,0.3,5.9,0.4
		c1.2,0.1,2.4,0.1,3.6,0.1c0.1,0,0.1,0,0.2,0c0,0,0,0.1,0,0.1c-3.2,0.1-6.4,0.1-9.6,0.2c0.1,0.2,0.1,0.3,0.2,0.5
		c0.8,2.1,1.7,4.3,2.4,6.4c0.9,2.7,1.7,5.4,2.5,8.1c0.1,0.2,0.1,0.5,0.4,0.5c0.7,0,1.5,0.1,2.2,0.1c0.2,0,0.4,0,0.6,0
		c0,0,0,0.1,0,0.1c-1,0.1-1.9,0.2-2.9,0.3c0.6,2.7,1.2,5.4,1.9,8.1c2.8-0.4,5.7-0.8,8.6-1.2c-1.7-4.4-3.3-8.7-5-13.1
		c6.3-2.3,12.6-4.2,18.5-7.3c-0.1,0.6-0.1,1-0.2,1.4c-0.1,1-0.1,2-0.2,3.1c-0.1,1.1-0.3,2.3-0.4,3.4c-0.1,1.6-0.3,3.3-0.4,4.9
		c-0.1,2.2-0.1,4.3-0.2,6.5c0,0.1,0,0.1,0,0.1c2.6,0,5.2,0,7.8,0c0-1.3,0-2.5,0-3.8c-1.3-0.2-2.6-0.4-3.9-0.5c0,0,0-0.1,0-0.1
		c1.3,0,2.6,0,3.9,0c0.3-4.2,0.6-8.3,0.9-12.5c-0.7-0.2-1.5-0.4-2.2-0.6c0.8,0,1.6,0,2.4,0c0.2-1.5,0.4-3,0.6-4.5
		c-2.6-0.4-5.1-0.8-7.7-1.2c0,0,0,0,0,0c2.6,0.1,5.2,0.1,7.9,0.2c0,0,0,0,0-0.1c0.5-2.5,0.9-5.1,1.5-7.6
		C132.2,134.1,132.7,132.1,133.7,130.2z M119.3,170.9c0-0.3,0-0.5,0-0.8c-0.1-1.7-0.2-3.3-0.2-5c0-1.8,0.1-3.5,0.2-5.3
		c0.1-1.1,0.2-2.2,0.3-3.3c0.1-0.9,0.3-1.8,0.4-2.8c0.1-0.9,0.2-1.7,0.3-2.6c0-0.4,0.1-0.9,0.1-1.4c-4.9,2.6-10.1,4.4-15.5,5.5
		c2.4,5.2,4.5,10.6,6.3,16C113.8,171.2,116.5,171.1,119.3,170.9z M138.8,129.6c-1.8-1.2-3.7-2.4-5.5-3.7c-4.6-3.3-8.8-7.1-12.4-11.4
		c-3.9-4.7-7.1-9.8-9.3-15.5c-1-2.6-1.8-5.3-2.3-8.2c0,0.1-0.1,0.1-0.1,0.2c-0.2,0.8-0.3,1.7-0.5,2.5c-1.3,5.5-3.4,10.8-6,15.8
		c-2.9,5.5-6.3,10.7-10,15.6c-3.1,4.2-6.5,8.3-10.2,12c0,0-0.1,0.1-0.1,0.1c0.7,0,1.3,0,2,0c0.3,0,0.5-0.1,0.6-0.3
		c1.7-2.1,3.5-4.2,5.2-6.4c4-4.9,7.7-10,11-15.4c2.7-4.4,4.8-9,6.6-13.8c0.4-1,0.7-2.1,1.2-3.2c0.1,0.2,0.1,0.3,0.2,0.4
		c0.7,1.6,1.5,3.1,2.2,4.7c2.7,5.4,6,10.4,10.2,14.8c2.8,3,6,5.7,9.2,8.3c1.7,1.4,3.4,2.7,5.1,4.1c0.1,0.1,0.4,0.2,0.5,0.2
		C137.3,130.2,138,129.9,138.8,129.6z M131,153.4c-0.4,4.5-0.7,9-0.6,13.5c1.9,0.1,3.7,0.2,5.6,0.3c1.8,0.1,3.7,0.3,5.6,0.4
		c0.2-2.7,0.6-5.4,1.2-8.1c0.6-2.7,1.4-5.3,2.8-7.7c-4.8-1.4-9.3-3.3-13.6-5.9c-0.1,1-0.2,1.8-0.3,2.6c2.1,0.7,4.1,1.5,6.1,2.2
		c0,0,0,0.1,0,0.1c-2-0.5-4.1-1-6.1-1.5c0,0-0.1,0.1-0.1,0.1c-0.1,1.2-0.3,2.4-0.4,3.6c0,0.1,0.1,0.2,0.2,0.2
		c0.3,0.1,0.6,0.2,0.9,0.3c0,0,0,0.1,0,0.1C131.8,153.5,131.4,153.4,131,153.4z M97.9,169.4c0-0.2-0.1-0.3-0.1-0.5
		c-0.9-3.6-1.8-7.2-2.7-10.8c-0.1-0.3-0.2-0.5-0.6-0.4c-0.6,0-1.2,0-1.8,0c0,0,0-0.1,0-0.1c0.7-0.1,1.4-0.2,2.2-0.4
		c-0.3-1-0.6-1.9-0.9-2.9c-3,3.1-6.4,5.5-9.8,7.7c1.2,3.3,2.4,6.5,3.6,9.7C91,171.1,94.4,170.2,97.9,169.4z M88.4,147.7
		c-0.1,0.9-0.4,1.6-1.2,2.1c-0.8,0.5-1.5,0.5-2.3-0.1c-0.1,0.8-0.4,1.5-1,2c-0.4,0.4-0.9,0.7-1.5,0.8c-0.6,0.1-1.1-0.3-1.4-0.8
		c-0.3,2.1-1.2,2.7-2.4,2.4c0.1,0.6,0.1,1.2,0.2,1.8c0.1,0.4,0.2,0.9,0.4,1.3c0.2,0.4,0.6,0.7,1.1,0.7c0.5,0,0.8-0.5,1-0.9
		c0.1-0.1,0.1-0.3,0.1-0.5c0-0.2,0.1-0.4,0.1-0.7c0.1,0.2,0.2,0.3,0.2,0.4c0.4,0.8,0.8,0.9,1.6,0.4c0.1-0.1,0.3-0.2,0.4-0.3
		c0.6-0.7,1-1.5,1.2-2.4c0-0.2,0.2-0.4,0.3-0.7c0.2,0.2,0.3,0.3,0.4,0.4c0.5,0.8,1.1,0.7,1.7,0.1c0.6-0.6,0.9-1.3,1.1-2
		c0.1-0.3,0.2-0.6,0.3-0.9c0,0,0.1,0,0.1-0.1c0.1,0.1,0.2,0.3,0.3,0.4c0.5,0.7,1.2,0.5,1.6,0c0.8-1.1,1.4-2.2,0.8-3.6
		c-0.2-0.5-0.4-1-0.6-1.6C90.2,147.6,89.4,148.3,88.4,147.7z M143.3,145.2c0.4,1.2,2.2,2.2,3.7,1.6c0.1,0,0.2-0.2,0.1-0.3
		c-0.2-0.6-0.4-1.3-0.6-1.9c0-0.1-0.1-0.2-0.2-0.3c-0.8-0.3-1.2-0.9-1.4-1.8c-0.7,0.8-1.5,0.9-2.3,0.6c-0.9-0.3-1.4-0.9-1.5-1.9
		c-1.1,0.6-2.1,0.5-3.1-0.1c-1-0.6-1.4-1.6-1.3-2.8c-0.6,0.4-1.2,0.5-1.9,0.4c-0.7-0.1-1.2-0.5-1.7-1c-0.2,1.1-0.3,2-0.5,3
		c-0.2,0.8,0.1,1.1,0.8,1.3c0.8,0.3,1.6,0.2,2.3-0.3c0.1,1,0.3,1.9,1.3,2.4c0.9,0.4,1.8,0.5,2.7-0.1c0.2,0.8,0.7,1.4,1.4,1.6
		C142,145.9,142.7,145.9,143.3,145.2z M89.2,141.8c-3.3,3.6-6.8,6.8-11.1,9.1c0.1,0.4,0.1,0.8,0.2,1.2c0.1,0.4,0.1,0.8,0.2,1.2
		c0.1,0.4,0.5,0.7,0.9,0.5c0.2-0.1,0.4-0.2,0.6-0.4c0.5-0.5,0.7-1.2,0.8-1.9c0-0.1,0.1-0.3,0.1-0.5c0.1,0.2,0.2,0.3,0.3,0.4
		c0.6,0.8,1.2,0.9,2,0.3c0.5-0.4,0.9-0.9,1-1.5c0.1-0.5,0.2-0.9,0.3-1.5c0.2,0.2,0.3,0.3,0.4,0.5c0.6,0.7,1.3,0.8,2,0.2
		c0.5-0.5,0.8-1,0.9-1.7c0-0.3,0.1-0.6,0.1-1.1c0.1,0.2,0.1,0.3,0.2,0.3c0.3,0.2,0.5,0.5,0.8,0.5c0.6,0.1,1.7-1.4,1.5-2
		C90.1,144.2,89.6,143,89.2,141.8z M141.6,140.5c0,0.1,0,0.3,0.1,0.4c0.1,0.8,0.6,1.4,1.4,1.6c1,0.3,1.7,0,2.2-0.9c0,0,0.1,0,0.1,0
		c0,1,0.4,1.7,1.1,2.1c0-0.1,0-0.2,0-0.2c-0.2-1-0.3-2-0.5-3c0-0.1-0.2-0.3-0.3-0.3c-3.5-1.4-6.6-3.4-9.6-5.7
		c-0.6-0.4-1.2-0.9-1.8-1.4c-0.2,1.2-0.5,2.4-0.7,3.5c0,0.1,0,0.3,0.1,0.5c0.7,1.2,2.3,1.3,3.4,0.7c0.1-0.1,0.2-0.1,0.4-0.2
		c-0.2,1.3,0.1,2.4,1.3,3C139.5,141.2,140.5,141.1,141.6,140.5z M79,157.9c-0.2,1.7-0.3,3.4-0.5,5.1c0.1,0,0.2-0.1,0.3-0.2
		c2.6-1.7,5.2-3.4,7.7-5.2c2.2-1.6,4.3-3.3,6.4-5c0.1-0.1,0.2-0.3,0.2-0.3c-0.3-0.9-0.6-1.8-1-2.7c-0.3,1.1-0.7,1.9-1.3,2.4
		c-0.4,0.3-0.8,0.5-1.2,0.4c-0.3-0.1-0.6-0.3-0.8-0.4c-0.2,1-0.6,1.9-1.4,2.6c-0.4,0.3-0.8,0.5-1.3,0.4c-0.3-0.1-0.5-0.3-0.8-0.5
		c-0.2,1.2-0.7,2.3-1.7,3c-0.6,0.4-1.2,0.6-1.9-0.2c0,0-0.1,0-0.1,0c-0.1,0.6-0.3,1.2-1,1.4C79.9,158.8,79.4,158.4,79,157.9z
		 M148.8,150.5c-0.3-0.6-0.5-1.1-0.7-1.7c-0.2-0.5-0.4-1.1-0.7-1.7c-1.8,0.7-3.3,0.2-4.3-1.3c-0.7,0.6-1.4,0.5-2.2,0.2
		c-0.7-0.3-1.3-0.8-1.3-1.7c-1.6,0.6-2,0.6-2.8,0.2c-0.9-0.4-1.4-1.3-1.3-2.4c-1.2,0.7-2.1,0.7-3.1,0c-0.1,0.7-0.2,1.4-0.3,2.1
		C137.5,146.5,142.9,149,148.8,150.5z M130.7,170.9c3.6,0.2,7.1,0.4,10.7,0.7c0-1,0-2,0-3.1c-3.6-0.4-7.3-0.6-11.1-0.7
		C130.4,169,130.6,170,130.7,170.9z M98.7,172.9c-0.2-0.7-0.3-1.4-0.5-2.2c-0.1-0.3-0.3-0.2-0.4-0.2c-2.1,0.5-4.2,0.9-6.3,1.4
		c-1.2,0.3-2.4,0.6-3.5,0.9c0.2,0.9,0.4,1.7,0.6,2.5C91.9,174.4,95.3,173.7,98.7,172.9z M100.3,172.6c3.1-0.4,6.2-0.8,9.3-1.2
		c-0.3-0.8-0.6-1.6-0.9-2.4c0-0.1-0.3-0.2-0.4-0.2c-0.5,0-1.1,0.1-1.6,0.2c-1.6,0.2-3.2,0.5-4.8,0.7c-0.7,0.1-1.4,0.2-2.1,0.4
		C100,171,100.1,171.8,100.3,172.6z M120.7,168c0.1,1,0.1,2,0.2,3c2.7,0,5.3,0,7.9,0c-0.1-1-0.2-2-0.3-3
		C125.9,168,123.3,168,120.7,168z"/>
	<path d="M111.4,136.8c-3-0.1-5.6-0.9-7.7-2.8c-2.9-2.7-3.6-6.3-1.9-9.9c1.5-3.1,4-5.2,7.4-6c2.2-0.5,4.2-0.1,6.1,1
		c2.8,1.6,4.5,4.1,5.2,7.3c0.7,3.1-0.2,5.8-2.5,8c-1.4,1.4-3.2,2.1-5.2,2.3C112.3,136.8,111.8,136.8,111.4,136.8z M119.1,129.3
		c0-1.1,0.1-2.1-0.1-3.1c-0.5-2.1-1.5-3.9-3.1-5.3c-0.9-0.9-1.9-1.6-3.2-1.9c-0.5-0.1-0.6-0.1-0.7,0.4c-0.3,2.2-0.6,4.4-0.9,6.6
		c-0.1,0.5-0.1,1-0.1,1.5C113.8,128,116.8,128.4,119.1,129.3z M111.1,119.1c-5,0.4-8.6,4.8-8.6,8.1c2.5-0.3,5,0.1,7.5,0.2
		C110.4,124.6,110.7,121.8,111.1,119.1z M102.5,127.8c-0.3,3.8,3.4,7,7.7,7.4c-0.4-2.2-0.2-4.4-0.2-6.7
		C107.5,128.2,105,128,102.5,127.8z M111,128.5c0,0.2,0,0.3,0,0.3c0,1.8,0,3.6,0,5.4c0,1,0.1,1,1,0.9c2.3-0.2,4.2-1.1,5.7-2.9
		c0.5-0.7,1-1.4,1.2-2.3C116.2,129.5,113.6,129,111,128.5z"/>
	<path d="M119.4,140.9c-3.6,0.4-7.2,0.1-10.8-0.3C112.2,140.6,115.8,140.5,119.4,140.9z"/>
	<path d="M110.4,167.5c0-0.6,0.5-1,1.1-1c0.6,0,1.2,0.7,1.2,1.3c0,0.6-0.5,1.1-1,1.1C111,168.9,110.3,168.2,110.4,167.5z
		 M112.1,167.8c0-0.4-0.3-0.8-0.7-0.8c-0.3,0-0.5,0.3-0.5,0.6c0,0.4,0.5,0.9,0.8,0.8C112,168.4,112.1,168.1,112.1,167.8z"/>
	<path d="M140.5,164.8c-2.6,0-5.2,0-7.9,0c0-0.6,0-1.3,0.1-2c0.2-1.5,0.4-2.9,0.6-4.4c0.2-1.7,0.4-3.4,0.6-5.2c0-0.1,0-0.3,0-0.4
		c0.8-0.2,7,0.5,8.2,1C141.6,157.5,141,161.1,140.5,164.8z M134.3,158.7c0.8,0,1.6,0,2.3,0c0.3,0,0.4-0.1,0.4-0.4
		c0.1-0.9,0.3-1.9,0.4-2.8c0.1-0.5,0.1-0.9,0.2-1.4c-1.1-0.1-2.2-0.2-3.2-0.3C134.5,155.5,134.4,157.1,134.3,158.7z M137.6,158.6
		c1,0,1.9,0,2.8,0c0.3-1.4,0.6-2.7,0.9-4.1c-1.1-0.1-2.1-0.2-3.1-0.3C138,155.6,137.8,157.1,137.6,158.6z M140.3,159.2
		c-0.9,0-1.9,0-2.8,0c-0.2,1.5-0.4,3-0.6,4.5c1,0.1,1.9,0.1,2.8,0.2C139.9,162.3,140.1,160.8,140.3,159.2z M136.9,159.4
		c-0.9,0-1.8,0-2.7,0c-0.2,1.5-0.4,3-0.6,4.5c0.9-0.1,1.8-0.1,2.7-0.2C136.5,162.2,136.7,160.8,136.9,159.4z"/>
	<path d="M86.6,164.2c0-1.9,0.8-3.3,2.4-4.1c2.3-1.1,4.5,0.3,5.1,2.4c0.7,2.4-1.2,4.7-3.2,5.2c-1.9,0.5-3.7-0.6-4.1-2.6
		C86.7,164.7,86.6,164.4,86.6,164.2z M93.3,162.2c-0.8-1.7-2.8-2.2-4-1.7c0.3,1.1,0.5,2.1,0.8,3.3C91.2,163.3,92.2,162.8,93.3,162.2
		z M91.3,166.8c1.6-0.6,2.7-2.9,2.1-4c-1,0.5-2.1,1-3.2,1.6C90.6,165.2,91,166,91.3,166.8z M89.5,164.1c-0.3-1.2-0.5-2.3-0.7-3.4
		c-1,0.4-1.8,2.6-1.4,4C88.1,164.5,88.8,164.3,89.5,164.1z M87.4,165.2c0.6,1.6,2.3,2.5,3.3,1.8c-0.3-0.7-0.6-1.4-1-2.2
		c0-0.1-0.2-0.2-0.3-0.2C88.8,164.8,88.1,165,87.4,165.2z"/>
</g>
<g>
	<path d="M103.2,4.5c2.9-0.3,5.7-0.8,8.6-0.8c3.9-0.1,7.5,1.1,11,2.9c6.4,3.5,10,9.1,11.8,15.9c1.3,5,0.4,9.9-1.8,14.6
		c-2.3,5-5.2,9.6-8.9,13.6c-1.7,1.8-3.7,3.2-5.6,4.8c-1.6,1.4-3.2,2.9-4.8,4.2c-0.6,0.5-1.4,0.6-2.1,0.9c-0.1-0.1-0.2-0.3-0.3-0.4
		c0.4-0.4,0.8-0.8,1.2-1.1c7-4.5,12.9-10,16.9-17.3c4.6-8.6,5.2-17.4,1.4-26.4c-1.9-4.5-5.7-7.2-10-9.2c-5.1-2.4-10.3-2.6-15.7-1.5
		c-0.5,0.1-1,0.1-1.6,0.2C103.2,4.8,103.2,4.6,103.2,4.5z"/>
	<path d="M104.8,67.5c0.7,0.1,1.3,0.2,1.9,0.3c0,0.1,0,0.1,0,0.2c-0.4,0.1-0.9,0.4-1.2,0.2c-0.7-0.3-1.3-0.7-2-1.1
		c0.5-0.7,0.9-1.5,1.4-2.1c0.3-0.3,1-0.1,1.4-0.3c0.4-0.4,0.8-1,1-1.5c0.2-0.4,0.2-1,0.1-1.5c-0.3-1-1.1-1.4-2-1.8
		c-1.5-0.7-2.6-2.2-4.1-2.7c-2.7-0.9-4.8-2.7-7.1-4.3c-6.7-4.8-10.2-11.3-10.4-19.5c-0.1-4.4,0.4-8.8,2.1-12.9
		c2.4-6,6.5-10.8,12.4-13.7c0.1,0,0.2,0,0.3,0.1c-1.9,1.5-3.8,2.8-5.5,4.4c-4.1,3.9-6.6,8.7-7.5,14.3c-1,5.7-0.5,11.3,1.8,16.6
		c2.2,4.9,5.2,9.3,9.9,12.1c2.9,1.7,5.9,3.3,8.9,4.9c1.2,0.7,2.5,1.3,3.7,2c-0.3,0.1-0.7,0.2-1.2,0.3c0,0.1,0,0.2,0,0.3
		c0.8-0.1,1.7-0.2,2.5-0.3c0.6,1.3-0.7,1.3-1.5,1.7c-0.7,0.4-1.5,0.8-2.2,1.3c-0.3,0.2-0.6,0.5-0.9,0.6
		C104.6,65.1,104.4,65.3,104.8,67.5z"/>
	<path d="M109.6,92.6c0-1.6,0.2-3.1,0.2-4.7c0-4.6,0-9.3,0-13.9c0-2.2,0-4.4,0-6.5c-0.2,0-0.5,0-0.7,0v25.1
		C109.3,92.6,109.5,92.6,109.6,92.6z"/>
	<path d="M112.5,63.4c0.8,0.3,1.6,0.3,1.9,0.7c0.3,0.3,0.2,1.2,0,1.7c-0.8,1.8-2.5,1.6-4,1.4c-1.4-0.1-2.7-0.3-4.1-0.5
		c0.3-0.8,1.3-1.1,2.8-0.6c0.9,0.3,1.9,0.5,2.8,0.5c0.6,0,1.4-0.5,1.7-1.1C113.8,65.3,113.1,64.5,112.5,63.4z"/>
</g>
<polygon fill="none" stroke="#000000" stroke-miterlimit="10" points="95.5,202.7 135.4,199.4 153.1,209 82.5,212.8 "/>
<g>
	<polygon points="134.9,199.4 133.6,186.7 135.9,199.3 	"/>
</g>
<g>
	<polygon points="148.3,206.8 146.4,194.5 149.3,206.6 	"/>
</g>
<g>
	<polygon points="123.8,202.7 122.4,185.9 124.8,202.6 	"/>
</g>
<g>
	<polygon points="109,206.1 108.6,191.8 110,206.1 	"/>
</g>
<g>
	<polygon points="85,202.7 84.8,189.3 86,202.6 	"/>
</g>
<g>
	<polygon points="79.8,209.1 78.3,197.6 80.8,209 	"/>
</g>
<g>
	<polygon points="152.6,209.1 151.7,191.8 153.6,209 	"/>
</g>
<g>
	<path d="M29.7,207.6c-0.2,0.3-0.5,0.7-0.8,1.2c2.7,0.3,5.3,0.2,7.7-0.7c1.5-0.5,2.9-0.3,4.4-0.3c2.3,0,3.2,1.4,4.3,2.9
		c0.3,0.3,0.6,0.7,1,0.9c1,0.5,1.5,0.3,1.7-0.9c0.2-1.1,0.6-2.1,0.9-2.9c4.6,0.9,8.9,1.3,13.4-0.1c-1.6-0.5-3.2-1.3-4.9-1.4
		c-1.7-0.2-2.8-1-3.7-2.3c-1.9-2.7-3.1-5.6-3.2-9.1c-0.1-4.9-0.3-9.9,0.9-14.7c0.5-2,1-3.8,2.9-5.1c1.1-0.8,1.7-2.3,2.6-3.5
		c0.5-0.6,1.2-1.3,1.8-1.4c2.7-0.3,3.3-0.8,3.8-3.7c-0.7,0-1.3,0.1-2,0.1c-1.3-0.1-1.9-1-1.2-2.1c0.9-1.5,0.6-2.8-0.2-4.4
		c-0.3,0.6-0.5,1.1-0.7,1.5c-0.9,2-1.6,4-2.6,5.9c-0.7,1.4-1.7,2.6-3.4,3c-0.3,0.1-0.5,0.5-0.9,1c-1.6-2.4-0.3-4.7,0-7
		c-1.1,0.5-2.2,1-3.3,1.4c0,0.9,0.3,2-0.1,2.8c-0.4,0.8-1.4,1.5-2.2,1.9c-0.9,0.4-2,0.3-2.9,0.4c0.1,1,0.2,2,0.1,3
		c-0.1,1.1-0.6,2.1-1.9,2.3c-1.2,0.2-2.1-0.3-2.5-1.3c-0.9-1.9-1.6-3.9-2.4-5.8c-1.4,2-0.3,3.9,0.9,5.8c-0.1,0.1-0.1,0.2-0.2,0.4
		c-1.2-0.5-2.4-1-3.4-1.4c0.1,1.3,1.6,2.9,3.3,3.3c0.7,0.1,1.5,0,1.5,1.1c0,0.1,0.3,0.3,0.4,0.4c3.2,1.8,3.9,5,4.5,8.3
		c0.7,4.3-0.3,8.2-2.4,12c-0.7,1.3-1.2,2.7-2,3.9c-0.5,0.8-1.4,1.4-2.2,2c-0.3,0.3-0.8,0.3-1.2,0.6c-1.6,1.4-3.4,2-5.5,2.1
		c0.4-0.3,0.8-0.6,1.2-0.8c1.3-0.7,2.7-1.4,4.1-1.9c2.7-1,3.8-3.4,4.8-5.8c2.2-5.1,2.9-10.4,1.2-15.9c-0.1-0.5-0.5-0.9-0.7-1.4
		c-0.5,0.3-1,0.6-1.4,1c-1.3,1.8-2.7,3.4-5.2,3.2c-2.4-0.2-3.7-1.7-4.8-3.5c-5.7,1.9-8.8,1.2-10.7-2.6c-1.7-3.4-1.1-6.1,1.9-8.2
		c-0.8-1.5-1.1-3-0.5-4.7c0.1-0.3-0.3-1-0.6-1.3c-2-2.6-2.1-5.3-0.2-7.7c-2.8-2.7-4.7-5.8-2.7-9.7c1.5-2.8,4.1-3.7,7.2-3.5
		c0.2-3.3,0.9-4.1,4.6-4.9c-1.3-3.1-0.5-5.8,2.1-7.8c2.6-2,5.4-2.8,8.5-1c1.2-3,3.6-3.9,6.4-4c2.4-0.1,4.2,0.9,5.4,3.1
		c-0.8-0.4-1.5-0.8-2.3-1.3c-2.4-1.5-5.6-1.2-7.8,0.7c-1,0.9-1.6,1.7-0.5,3c0.2,0.2,0.2,0.6,0.3,1.2c-3.9-3.2-5.6-3.5-8.8-1.5
		c-1.4,0.9-2.7,2-2.9,3.7c-0.2,1.5,0.1,3.1,0.2,4.5c-1.2,0.5-2.7,0.9-3.8,1.7c-1.3,1-1.1,2.5-0.2,4c-3.1-1-5.9-0.1-7.6,2.3
		c-1.6,2.3-0.8,5.2,2.5,9.2c-1.8,3.5-1.6,6,0.6,8.3c1.4-1.3,2.8-2.9,5.4-1.9c-2.6,0.2-4.4,1.4-5.2,3.6c-0.9,2.3,0.7,4,1.9,5.8
		c-0.5-0.2-0.8-0.6-1.3-0.7c-0.3-0.1-0.9-0.1-1.1,0.1c-1.5,1.4-2.2,3.1-1.6,5.2c0.7,2.2,1.7,4.3,4.3,4.7c2.6,0.4,5.1,0.2,7.3-1.9
		c-0.2,0.7-0.7,1.4-0.5,1.9c0.7,2.2,4.8,3.5,6.7,2.1c1.4-1,2.4-2.4,3.6-3.7c-1.6-1.4-2.7-2.8-4.6-3.5c-2.4-0.9-3.2-3.3-2.2-5
		c0.6,0.5,1.3,1.1,1.9,1.6c-1-2.1-0.4-3.9,0.5-5.7l0,0c0.5-0.2,1-0.4,1.6-0.6c0,0.6,0,1,0.1,1.3c0.6,1.8,1.1,3.7,1.8,5.5
		c0.3,0.8,1.2,1.5,2.1,0.8c1.2-1,1-2.4,0.8-3.7c-0.1-0.5-0.7-0.9-1.2-1.3c-0.7-0.5-1.4-0.9-2.1-1.3c1.4,0.3,2.7,0.8,4,1
		c3.4,0.6,5.1-1.2,4.3-4.6c1.7-0.7,3.8-1.1,4.1-3.2c0.2-1.6-1.2-2.7-2.9-3.4c0.6-0.2,1-0.4,1.4-0.5c0.9,1.2,1.7,2.4,2.6,3.6
		c2-4.2,2.1-6.7,0.2-8c-0.4,3.4-0.9,4.2-2.8,4.5c1.6-1.4,2.5-3,1.5-5.2c-1.5-3.3-4.2-4.3-7.9-3.9c2.5-1.4,5.7-0.5,7.6,1.8
		c0.7,0.9,1.5,1.7,2.4,2.5c1,0.9,1.5,2,1.2,3.3c-0.5,1.9-1.1,3.7-1.6,5.6c-0.6,2.4-1.1,4.8-1.6,7.2c0.2,0.1,0.3,0.2,0.5,0.3
		c0.4-0.2,0.9-0.3,1.2-0.6c0.8-0.8,1.6-1.6,2.1-2.6c1-2.1,1.8-4.3,2.8-6.4c0.2-0.4,0.6-0.7,1-1c0.3,0.3,0.9,0.7,0.9,1
		c0.2,1.3,0.3,2.7,0.2,4c-0.2,1.4,0,1.7,1.4,1.5c0.5-0.1,1-0.2,1.6-0.4c0.8,1.5,0.4,2.9-0.4,4.1c-0.8,1.1-1.9,1.5-3.2,1
		c-0.8-0.3-1.2,0-1.4,0.8c-0.7,2.7-2.3,4.6-4.6,6c-0.3,0.2-0.6,0.5-0.6,0.7c-0.3,1.5-0.5,2.9-0.8,4.7c1.4-0.5,2.4-1,2.2-2.5
		c1.5-0.1,3-0.1,3.6-1.8c-0.4-0.5-0.7-0.9-1-1.3c2.5,1.9,5.1,1.8,7.7,0.4c2.3-1.3,3.1-3.3,2.2-6.1c1.5,1.6,2.9,0.6,4.3,0.4
		c2.3-0.4,3.7-2.2,4.1-4.8c0.3-2.1-1-4.4-2.9-5.4c-0.9-0.5-1.8-0.7-2.6,0.3c-0.3,0.3-0.7,0.5-1.1,0.7c0.5-1.2,1.4-2.1,1.7-3.1
		c0.2-1-0.3-2.2-0.5-3.2c0.2,0.2,0.6,0.5,0.9,0.8c1.3-1.6,1-3.2,0.3-4.9c-0.5-1.3-1.4-1.2-2.8-0.6c4.6-3.3,2.9-8.6-1.5-9.1
		c1.8-4.1,1.7-5.3-0.6-7.6c-2.1-2.1-3.6-2.5-5.5-1.6c0.1,0.4,0.1,0.9,0.3,1.7c-3.3-3.8-6.6-6.4-11.5-3.2c0-0.2,0-0.3,0-0.5
		c0.7-0.4,1.4-0.8,2.1-1.2c2.8-1.3,5.3-0.4,7.4,1.5c0.9,0.8,1.6,1,2.7,0.6c0.6-0.2,1.4-0.1,2,0.1c2.3,0.8,4.1,2.3,5.1,4.6
		c0.8,1.8,0.4,3.5-1,5.2c2.2,0.3,3.4,1.6,4.1,3.5c0.7,1.9,0.3,3.7-1.2,5.1c1.9,2,2.6,4.1,1,6.6c-0.5,0.8-0.4,1.9-0.4,2.9
		c0,0.3,0.6,0.7,1,0.8c3.7,1.5,5,5.1,3.3,8.7c-0.8,1.7-2.1,2.7-3.9,3c-1.9,0.3-3.3,1-4,3.2c-0.7,2.4-4.4,3.9-7.1,3.4
		c-0.7-0.1-1.3-0.3-2.1-0.6c-0.4,1.7-1.5,2.4-2.7,2.3c-1.2,1-2.2,1.7-3,2.5c-0.3,0.3-0.7,0.7-0.7,1.1c-0.4,5.1-0.7,10.2,0.5,15.2
		c0.8,3.3,2.7,6.4,6.9,6.6c1,0.1,1.9,0.4,2.8,0.8c0.4,0.2,0.7,0.7,1,1.1c-0.4,0.3-0.7,0.8-1.1,0.8c-3.1,0.1-6.3,0.3-9.4,0
		c-2-0.2-3.2,0.1-3.9,2.1c-0.6,1.4-2,1.8-3.1,0.7c-0.1-0.1-0.3-0.3-0.4-0.5c-1.8-3.6-4.1-2.8-7.7-2.4c-2.4,0.3-4.8,0.5-7.1,0.6
		c-0.5,0-1-0.4-1.5-0.6C28.9,208.3,29.3,208,29.7,207.6z"/>
	<path d="M46.4,145.2c-4.1-5.5-7.5-6.7-11.5-4.1c-2.9,1.9-4.6,6-1.5,10.5c-2.4,0.3-4.7,0.6-5.3,3.5c-0.1,0.5,0.3,1.2,0.5,2
		c-1.1,0.9-1.2,2.3-0.1,3.9c-1.3-0.9-1.6-1.9-1-3.3c0.1-0.4,0.3-0.8,0.2-1.2c-0.6-2.8,0.8-4.9,3.7-5.2c0.3,0,0.6-0.1,1-0.1
		c-1.4-2.1-1.8-4.3-1.1-6.6c0.5-1.8,1.6-3.1,3.1-4.1c4-2.6,7.3-1.8,11.4,2.6c1.6-2.8,4.3-3.7,7.3-3.8c3.5-0.1,5.7,2.1,5.6,5.6
		c0,0.5-0.1,1.1-0.1,1.8c1.9-0.2,3.7,0,5.1,1.4c1.4,1.4,1.3,2.9-0.4,4.9c2.4,0.5,3.8,2.1,3.8,4c0,1.7-1.4,3.2-3.1,3.4
		c3.2-4,2.9-5.8-1.4-7.3c1.4-1.8,2.3-3.6-0.1-5.2c-1.9-1.2-3.7-1.1-5.1,0.2c0.3-1,0.6-1.9,0.7-2.8c0.3-3.4-2.2-5.8-5.7-5.4
		c-1.1,0.1-2.3,0.5-3.4,1C47.4,141.7,45.8,142.8,46.4,145.2z"/>
	<path d="M35.9,168.3c-1.1,0.8-2.2,1.6-3.4,2.6c0.4,2.4-0.2,3.8-2.3,4.6c-1.8,0.7-3.1,0.1-4.3-1.8c1.6,1.3,3.2,1.9,5,0.6
		c1.6-1.1,1.2-2.6,0.8-4.1c1.4-0.8,3.3-1,3.3-3.1c0-1.8-1.2-2.8-2.7-3.5C34.7,163.4,35.8,165,35.9,168.3
		C35.9,168.3,35.9,168.3,35.9,168.3z"/>
</g>
<g>
	<path d="M217.6,178.1c-0.2,0-0.5,0.1-0.7,0c-0.3-0.1-0.7-0.3-1-0.4c0,0.4-0.2,1-0.1,1.3c0.5,1,1.2,1.9,1.9,2.8
		c0.6,0.7,1.4,1.2,2.4,1.2c0.5,0,1.1-0.2,1.6,0.3c0.2,0.2,0.7,0.2,1.1,0.1c0.8-0.1,2.2,0.5,2.5,1.1c0.1,0.3,0.4,0.8,0.6,0.8
		c0.5,0.1,1.1,0.3,1.5-0.3c0.2-0.2,0.2-0.6,0.4-0.8c0.2-0.2,0.5-0.2,0.8-0.3c0.1,0.2,0.2,0.5,0.2,0.6c-0.2,0.4-1,0.7-0.1,1.3
		c0.7,0.5,1.3,0.2,1.8-0.1c0.6-0.4,0.9-1.2,1.4-1.8c0.3-0.4,0.8-1,0.8,0.2c0.9,0.4,1.6,0.4,2.3-0.4c0.1-0.1,0.3-0.1,0.5-0.1
		c0,0.2,0,0.5-0.1,0.6c-0.4,0.5-1,0.8-0.8,1.6c-0.6,0-1.3,0.2-1.6,0c-0.7-0.6-1-0.5-1.6,0.1c-1,1.2-2.2,1.8-3.7,0.6
		c-0.6-0.5-1.2-0.2-1.6,0.4c0,0.1-0.1,0.1-0.2,0.2c0.4,0.2,0.8,0.5,1.1,0.7c0.2,0.1,0.3,0.5,0.3,0.5c-0.2,0.2-0.5,0.5-0.7,0.4
		c-0.9-0.2-1.8-0.3-2.6-0.7c-0.6-0.3-1-0.4-1.5-0.1c0.3,0.3,0.7,0.5,1,0.8c0.2,0.2,0.5,0.3,0.8,0.5c0.2,0.1,0.3,0.2,0.5,0.3
		c-0.2,0.2-0.3,0.4-0.5,0.5c-0.4,0.1-0.9,0.3-1.1,0.2c-1.2-0.9-2.4-0.3-3.9-0.5c0.7,0.8,1.2,1.3,1.7,1.8c0.1,0.1-0.3,0.6-0.4,0.6
		c-0.4,0-0.7-0.2-1.1-0.3c-1.2-0.3-2.4-1.1-4-0.4c0.5,0.4,1,0.7,1.3,1.1c0.7,0.8,1.4,1.2,2.5,1c0.8-0.1,1.3,0,1.3,1.1
		c0,0.8,1.1,1.1,1.7,0.8c1.1-0.6,2.6,0,3.3-1.4c0-0.1,0.4,0.1,0.6,0.1c-0.1,0.2-0.2,0.4-0.3,0.5c-0.3,0.3-0.7,0.5-0.1,1
		c1.1,1,1.8,1,3-0.1c0.2-0.2,0.6-0.3,0.8-0.5c0,0.4,0,0.8-0.1,1.1c-0.1,0.3-0.3,0.5-0.3,0.8c-0.1,0.6,0.2,0.9,0.8,0.7
		c0.3-0.1,0.5-0.3,0.8-0.4c0.5-0.2,0.1-1.3,1-1c0.2,0.1,0.3,0.8,0.3,1.2c0.1,0.6,0.4,1.1,1,1.1c0.5,0,1-0.5,0.9-1.1c0-1,0-1.9,0-2.9
		c0-0.3-0.2-0.6-0.3-0.8c-0.2-0.5-1.1-0.6-0.9-1.4c0.4,0.2,0.9,0.5,1.2,0.4c0.6-0.3,0.9-0.4,1.1,0.4c0.2,0.6,0.8,0.8,1.4,0.5
		c0.2-0.1,0.2-0.7,0.4-1c0.1-0.2,0.4-0.3,0.6-0.4c0.1,0.3,0.3,0.7,0.2,0.8c-0.7,0.6-0.3,1.3-0.4,2c0,0.6,0.4,1,1,1.1
		c1.1,0.2,2-0.7,1.9-1.9c-0.1-0.4-0.3-0.8-0.4-1.2c0.7-0.1,0.9,0.6,1.4,0.9c0.3,0.2,0.6,0.6,0.9,0.8c0.3,0.3,1,0.1,1.1-0.4
		c0.2-0.8-0.2-1.5-0.5-2.2c-0.1-0.2,0-0.5,0.1-0.7c0.2,0.1,0.4,0.1,0.5,0.2c0.4,0.4,0.8,0.9,1.2,1.2c0.4,0.2,0.8,0.3,1.3,0.4
		c0.1-0.4,0.3-0.9,0.3-1.3c0-0.3-0.3-0.7-0.5-1c-0.6-0.9-0.6-1,0.4-1.1c0.8-0.1,0.7-0.5,0.6-1c-0.1-0.4-0.3-0.7-0.5-1
		c1,0.2,1.7,1.3,1.1,2c-0.6,0.6-1,1.2-0.3,2c0.1,0.1,0.2,0.5,0.1,0.6c-1.1,1.5,0.1,2.4,1,3.3c0.3,0.2,0.8,0.2,1.3,0.2
		c0.1-0.4,0.3-0.8,0.1-1.1c-0.2-0.5-1-0.9,0-1.2c0.8-0.2,0.5,0.6,0.5,1c0,1,0.7,1.3,1.3,1.8c0.2,0.1,0.7,0.1,0.9,0
		c0.5-0.4,0.8-0.9,1.2-1.4c0.2-0.2,0.1-0.6,0.2-0.9c0.3,0.3,0.5,0.5,0.8,0.8c0.1,0.1-0.1,0.4,0,0.5c0.4,0.5,0.1,1.6,1.2,1.6
		c1.1,0,0.5-1.2,1.1-1.5c0.1-0.1,0.2-0.3,0.3-0.4c0,0.1,0.1,0.3,0.1,0.4c0,0.8-0.2,1.7,0.7,2.4c0.8,0.6,1.5,0.5,1.7-0.4
		c0.1-0.5-0.4-1.2,0.3-1.4c0.2-0.1,0.7,0.6,1,1c0.8,1.2,2,0.8,3,0.8c0,0.2,0.1,0.7,0,0.7c-1,0.4-2.1,0.6-3.1-0.2
		c-0.4-0.4-0.7-0.6-1,0c-0.1,0.2-0.3,0.4-0.5,0.5c-0.7,0.6-1.2,0.7-1.8,0c-0.7-0.8-1.4-1.2-2.5-1c-0.1,0-0.2,0-0.2,0
		c-1.1-1.4-2.5-0.3-3.7-0.5c-0.5-0.1-1-0.3-1.5-0.5c-0.3-0.1-0.8-0.1-0.9,0.1c-0.2,0.3-0.3,0.8-0.1,1.1c0.4,0.7,1,1.4,1.5,2
		c0.1,0.1,0.2,0.3,0.3,0.5c-0.3,0-0.6,0-0.8-0.1c-0.7-0.7-1.4-1.3-1.6-2.5c-0.3-1.2-1.3-2.2-1.7-3.4c-0.2-0.7-0.5-0.8-0.9-0.7
		c-0.5,0.1-1.3-0.5-1.6,0.5c-0.1,0.4-0.6,0.7-0.9,1.1c-0.3,0.3-0.6,0.5-1,0.1c-0.6-0.5-1-0.5-1,0.4c0,1.1-0.7,2-0.5,3.2
		c0.1,1.2-0.3,1.4-1.9,1.4c-0.2,0-0.4,0.3-0.6,0.3c-0.1,0-0.3-0.2-0.3-0.3c0-0.4,0.6-0.7,0-1.3c-0.2-0.2-0.2-1-0.5-1.4
		c-0.1-0.1,0.1-0.4,0.2-0.6c0.2,0.1,0.6,0.2,0.7,0.4c0.1,0.2,0,0.6,0.1,0.9c0.1,0.2,0.5,0.6,0.6,0.5c0.3-0.1,0.6-0.4,0.7-0.6
		c0.1-0.4-0.2-1,0.4-1.3c-0.1-0.1-0.2-0.3-0.3-0.4c-0.4-0.1-0.7,0.5-1.3,0.1c-0.6-0.5-1.2-0.8-1.6-1.5c0-0.1,0-0.2,0-0.2
		c-0.5-0.2-1.1-0.5-1.6-0.7c-0.1,0.4-0.2,0.8-0.3,1.3c0,0.8,0,1.6,0,2.4c-0.1,0.7-0.4,1.1-1.2,1.1c-0.9,0-1.9,0.2-2.2-1.2
		c-0.1-0.5-0.4,0.1-0.6,0.1c-0.9,0.1-1.9,0.4-2.3-0.9c0-0.2-0.5-0.4-0.7-0.4c-1.3,0.1-2.4,0-3.1-1.2c-0.3-0.5-0.5,0-0.7,0.1
		c-1.4,1-3,0.8-3.9-0.4c-0.5-0.7-1-1.4-2-1.4c-0.4,0-1.2-0.2-1.2-0.4c-0.2-0.9-1.3-1.3-1.4-2.3c0-1,0.9-1.7,1.9-1.4
		c0.5,0.2,1,0.3,1.5,0.5c0.5,0.3,0.6,0.1,0.5-0.3c-0.3-1.4,0.7-1.7,1.7-1.9c0.6-0.1,0.7-0.3,0.8-0.9c0.1-0.7,1.2-1.1,1.9-0.9
		c0.3,0.1,0.6,0.3,0.8,0.3c0.4,0,1,0,1.1-0.2c0.3-0.7-0.3-0.7-0.7-0.8c-0.2-0.1-0.5-0.3-0.5-0.5c0-1.8-1.3-1.3-2.3-1.3
		c-1.1-0.1-2.4-0.1-3.4-0.5c-0.6-0.3-1.6-0.4-1.8-1.6c-0.1-0.9-0.9-1.7-1.4-2.5c-0.6-0.9-0.6-1.8,0-2.3c0.4-0.2,0.9-0.3,1.3-0.3
		C217.1,177.1,217.4,177.5,217.6,178.1z"/>
	<path d="M245.1,150.6c-0.2,0-0.6-0.1-0.7,0c-0.7,1.2-1.5,0.1-2-0.1c-0.9-0.4,0.3-0.8,0.3-1.3c0-0.1,0.1-0.3,0.2-0.4
		c0.6-0.5,0-0.7-0.2-0.8c-0.2-0.2-0.3-0.1-0.4,0.4c-0.1,0.4-0.2,0.8-0.4,1c-0.5,0.5-1.1,0.5-1.6,0c-0.7-0.6,0.2-0.7,0.3-1
		c0.1-0.3,0.2-0.5,0.3-0.8c-0.2,0.1-0.5,0.1-0.7,0.2c-1,0.7-1.7,0.8-2.1-0.2c-0.3-0.7-0.6-0.7-1.1-0.8c-0.3,0-0.7-0.3-1-0.5
		c-0.5-0.3-0.6-0.7-0.1-1c0.4-0.2,0.9-0.2,1.2-0.4c0.2-0.1,0.2-0.5,0.3-0.7c-0.2-0.1-0.6-0.2-0.6-0.2c-0.4,0.7-1.3,0.2-1.7,0.6
		c-0.6,0.6-1,0.2-1.3-0.2c-0.5-0.5-0.7-0.5-1,0.1c-0.1,0.3-0.1,0.6-0.2,0.9c0.3,0.1,0.7,0.2,1,0.3c0.4,0.1,1.1,0.1,1.2,0.3
		c0.2,0.6,0.1,1.2,0.1,1.8c0,0.1-0.3,0.2-0.4,0.2c-0.2,0-0.9-0.1-1.7-0.2c-1.5-1.4-0.9-2-0.4-2.5c-0.7-0.2-1,0.2-1.4,0.7
		c-0.3,0.3-0.7,0.5-1,0.1c-0.2-0.3-0.4-0.6-0.5-1c0.8-0.3,0-0.9,0.3-1.4c0.4-0.5,0.1-0.9-0.5-0.8c-0.6,0.2-1.2,0.6-1.8,0.8
		c-0.3,0.1-0.8,0.2-1.1,0.1c-0.4-0.1-0.3-1.6,0.1-2c0.1-0.1,0.1-0.4,0.2-0.6c-0.2,0-0.3,0-0.5,0c-0.6,0.2-1.2,0.6-1.9,0.7
		c-0.6,0.1-1.1-0.6-0.7-0.9c1-0.8,0.5-1.2-0.4-1.5c-0.3-0.1-0.5-0.3-0.7-0.6c-0.1-0.2-0.2-0.5-0.1-0.6c0.1-0.1,0.5-0.3,0.6-0.2
		c0.7,0.4,1.3,1,2.2,0.9c-0.4-1.2-1.7-1.1-2.5-1.8c-0.1-0.1-0.1-0.1-0.2-0.1c-0.7,0.1-1.4,1.7-1,2.3c0.4,0.5,0.8,0.8,0.8,1.6
		c0,1.8,0.1,1.8,1.9,1.9c0.2,0,0.5,0,0.7,0c0,0.2-0.1,0.4,0,0.5c0.1,0.5,0.2,0.9,0.5,1.3c0.3,0.4,0.6,0.9,1.3,0.3
		c0.5-0.4,1.1-0.9,1.9-0.7c0.1,0,0.2,0.2,0.4,0.3c-0.6,0.4-0.3,1-0.4,1.5c0,0.2-0.2,0.5-0.3,0.5c-1.2-0.1-2.4,0.8-3.6-0.2
		c-1.1-0.9-1.6-0.7-2.9-0.2c-0.7,0.3-1.1,0.9-0.9,1.7c0.1,0.3,0.9,0.7-0.2,0.7c-0.2,0-0.5,0-0.7,0c-0.6-0.1-1,0.1-1.3,0.4
		c0.2,0.2,0.3,0.5,0.3,0.8c0.3-0.5,0.9-0.5,1.1-0.6c0.7-0.2,1.5-0.4,2.3,0.2c0.4,0.4,1,0.3,1.5-0.2c0.2-0.2,0.6-0.4,0-0.6
		c-0.3-0.1-0.6-0.2-0.8-0.4c-0.3-0.4-1.2-0.7-0.7-1.3c0.2-0.3,1.1-0.4,1.5-0.2c0.7,0.3,1.4,1,2,1.5c0.7,0.6,0.9,0.6,1.1-0.4
		c0.1-0.5,0.2-0.7,0.7-0.7c1,0,1.9,0.3,2.5,1.1c0.4,0.4,0.8,0.8,1.2,1.2c0.1,0.1,0.3,0,0.3,0c0.1-0.1,0.1-0.4,0.1-0.4
		c-0.2-0.2-0.4-0.5-0.3-0.7c0.8,0.4,2.2,1,4.4,2c-1.6-1-2.6-1.8-3.2-2.4c0,0,0.1,0.1,0.1,0.1c0.2,0.2,0.6,0.2,0.8,0.4
		c0.8,0.9,1.3,1,1.6-0.3c0-0.2,1.1-0.3,1.2-0.2c0.6,1.1,2.4,1,2.7,2.5c0,0.1,0.4,0.3,0.5,0.3c1.1-0.3,1.6,0.5,2.2,1.1
		c0.4,0.4,0.6,0.8-5.9-1.4c6,2.9,6,3.2,6,3.6c0.2,1.1-0.1,2-1.2,2.6c-0.8,0.5-1.2,1.4-1.2,2.4c0,0.2-0.4,0.5-0.6,0.4
		c-0.4-0.1-0.8-0.4-1.2-0.6c0.1-0.1,0.2-0.2,0.4-0.3c0.8-0.4,1.5-0.9,1.4-1.9c0-0.1-0.1-0.3-0.2-0.4c-0.1,0.1-0.2,0.1-0.3,0.2
		c-0.1,0.1-0.2,0.2-0.3,0.3c-0.2,0.3-0.1,1.1-0.8,0.8c-0.2-0.1-0.2-0.7-0.3-1c0-0.1-0.2-0.3-0.2-0.4c-0.1,0.1-0.3,0.2-0.3,0.3
		c-0.2,0.3-0.3,0.7-0.5,1c-0.2,0.3-0.6,0.5-0.9,0.6c-0.6,0.2-1-0.2-0.6-0.9c0.2-0.4,0.1-0.5-0.1-0.7c-0.3-0.3-0.4-0.2-0.7,0
		c-0.6,0.4-1.3,0.7-2,1c-0.5,0.2-1,0.2-1.5-0.3c-0.3-0.4-0.5-0.6-0.1-1c0.1-0.1,0.2-0.2,0.3-0.3c0.3-0.4,0.6-0.9,0.9-1.3
		c-0.6-0.3-1.2-0.7-1.8-0.8c-0.7-0.1-1.6-0.3-1.8,0.9c0,0.3-0.4,0.5-0.7,0.7c-0.4,0.2-0.9,0.3-1.3,0.4c-0.1-0.4-0.2-0.9-0.1-1.3
		c0-0.2,0.3-0.4,0.4-0.6c0-0.1-0.1-0.3-0.1-0.4c-0.1,0-0.2,0.1-0.3,0.1c-0.7,0.2-1.5,0.4-2.1,0.8c-1,0.7-2,0.3-3,0.4
		c-0.1,0-0.3-0.5-0.2-0.7c0.1-0.3-0.2-1.7-0.6-1.9c-0.2-0.1-0.4-0.1-0.6-0.3c-0.3-0.2-0.5-0.4-0.7-0.7v1.5c0.2,0.2,0.5,0.5,0.8,0.6
		c0.6,0.2,0.5,0.2,0.2,0.7c-0.2,0.3-0.2,0.8-0.1,1.1c0,0.2,0.3,0.6,0.4,0.6c1.5,0,3,0.3,4.3-0.6c0.7-0.5,0.5,0.1,0.5,0.4
		c0.3,1.2,1.4,1.8,2.2,1.1c0.6-0.4,1.3-0.7,1.6-1.4c0.4-0.7,1.1-0.2,1.7-0.4c0,0.2,0,0.4-0.1,0.5c-0.4,0.7-0.8,1.3-1.1,1.9
		c-0.1,0.2,0.3,0.8,0.2,0.9c-0.7,0.6-0.9,1.2-0.3,2c0.2,0.2-1,1.1,0.4,1c0.3,0,0.6-0.1,0.9-0.1c-0.2-0.3-0.4-0.6-0.6-0.9
		c-0.6-0.9-0.3-1.5,0.7-1.4c0.9,0,1.6-0.3,2.4-0.7c0.4-0.2,0.4-0.2,0.5,0.2c0.2,1,1,1.3,1.8,0.8c0.7-0.5,1-0.3,1.4,0.2
		c0.3,0.3,0.6,0.6,0.8,0.9c0.6,0.5,1.6,0.8,2.1,0.5c0.7-0.4,0.6-1,0.7-1.7c0.1-1.4,0.2-1.5,1.9-1.6c0.2-0.5,0.5-1,0.4-1.4
		C242.7,153.4,243.8,152,245.1,150.6z M232.3,147.8c0.2-0.1,0.4-0.1,0.6,0C232.7,147.9,232.5,147.8,232.3,147.8z"/>
	<path d="M262.9,167c-0.1,1.8-0.7,2.4-2.4,2.4c-0.6,0-1.1,0-1-0.9c0.1-0.5,0-1,0-1.4c-0.1-0.8-0.6-1-1.3-0.5
		c-0.4,0.3-0.8,0.5-1.2,0.7c-0.2,0.1-0.5,0.3-0.6,0.2c-0.6-0.4-1.3-0.8-1.7-1.4c-0.8-0.9-0.6-0.9-1.5-0.3c-0.6,0.4-1.4,0.5-1.9-0.1
		c-0.6-0.5-1-1-1.7-0.2c-0.1,0.1-0.8,0-1.1-0.2c-0.6-0.5-0.7,0.2-0.9,0.3c-0.4,0.4-0.1,0.7,0.2,1c0.4,0.3,0.9,0.6,1.3,0.9
		c0.1,0.1,0.1,0.2,0.1,0.3c-0.1,0-0.3,0.2-0.4,0.1c-0.5-0.1-1-0.4-1.5-0.5c-0.5-0.1-1.9,0.9-1.8,1.2c0.1,0.5,0.5,0.9,0.9,1.3
		c0.5,0.6,0.6-0.1,0.8-0.3c0.4-0.3,0.7-0.7,1.1-0.9c0.2-0.1,0.6,0.1,0.9,0.1c-0.2,0.1-0.4,0.2-0.6,0.4c-0.4,0.3-0.7,0.7-1,1
		c-0.9,0.9-0.8,1.6,0.4,2.1c0.4,0.2,1-0.2,1.4-0.6c0.1-0.2,0.2-0.4,0.3-0.5c0.1,0.2,0.2,0.4,0.2,0.6c0,0.2,0,0.5-0.1,0.6
		c-0.7,0.6-0.3,1,0.2,1.3c0.5,0.4,1,0.4,1.5-0.1c0.5-0.5,1.2-0.9,0.9-1.8c0-0.1,0.3-0.3,0.5-0.3c0.2,0,0.4,0.3,0.4,0.4
		c0,0.6-0.1,1.3,0.1,1.9c0.1,0.4,0.5,0.8,0.8,1c0.3,0.2,1-0.5,1-1c0-0.6-0.1-1.2-0.2-1.8c0-0.2,0-0.3,0-0.5c0.2,0.1,0.5,0,0.6,0.2
		c0.2,0.2,0.2,0.6,0.4,0.8c0.5,0.5,1,1,1.2-0.2c0.1-0.4,0.9-0.4,0.9,0c-0.1,0.9,0.8,0.6,1.1,1c0.3,0.4,0.6,0.2,1-0.1
		c0.4-0.4,0.3-0.5,0-0.9c-0.3-0.4-0.6-0.9-0.9-1.3c0-0.1,0-0.3,0-0.3c0.1-0.1,0.4-0.1,0.4-0.1c0.9,0.7,1.8,1.4,3,1.5
		c0.3,0,0.5,0.5,0.9,0c0.6-0.8,1.4-0.8,2.3-0.3c0.3,0.2,0.7,0.2,1.1,0.2c0.5,0,0.7-0.8,0.3-1.1c-0.2-0.2-0.4-0.5-0.7-0.7
		c-0.6-0.6,0-0.5,0.3-0.6c0.3-0.1,0.6-0.4,0.7-0.6c0.1-0.4-0.1-0.9-0.1-1.3c-0.5,0.5-0.8-0.9-1.4-0.1c-0.2,0.3-0.8,0.5-1.1,0.7
		c-0.2,0.1-0.3,0.2-0.5,0.3c0-0.2-0.1-0.5-0.1-0.6c0.1-0.3,0.3-0.5,0.4-0.8c0.2-0.8-0.3-1-1-0.9c-0.2,0-0.3,0-0.5,0
		c1-1.1,1.3-1.2,1.8-0.3c0.3,0.6,0.5,0.8,1.1,0.8c0.5,0,1,0.2,1.5,0.5c0.6,0.3,0.6,1,0.5,1.7c-0.2,0.6-0.6,1.1-0.1,2.1
		c0.7,1.2-0.1,2-1.7,2c-0.5,0-1.2,0-1.6-0.2c-0.6-0.4-0.9-0.2-1.2,0.2c-0.4,0.5-0.9,0.6-1.5,0.5c-1.2-0.1-2,0.3-2.5,1
		c0,0.1,0,0.3,0,0.3c1.7,0.4,0.9,2,1.5,3c0,0,0.2,0,0.2,0c-0.6,0.9-1.5,0.4-2.3,0.4c0.1-0.2,0.1-0.3,0.2-0.5
		c0.2-0.4,0.5-0.8,0.6-1.2c0.1-0.3-0.1-0.7-0.2-1.1c-0.3,0.2-0.7,0.3-1,0.5c-0.7,0.6-1.3,1.4-2.1,2c-0.9,0.7-1.9,1.4-3.1,0.5
		c-0.2-0.1-0.4-0.1-0.7-0.1c-1.2,0-1.3,0-1.1-1.2c0.1-0.9-0.3-1.1-1-1.5c-0.8-0.5-1,0.2-1.4,0.4c-0.2,0.1-0.4,0.2-0.6,0.3
		c0-0.2-0.1-0.6,0-0.7c0.9-0.7,0.3-1.2-0.2-1.7c-0.3-0.3-0.8-0.3-1.2-0.5c-0.4-0.2-1-0.6-0.9-0.9c0.2-1.1-0.5-1.8-1.2-2.4
		c-0.2-0.2-0.3-0.5-0.3-0.8c-0.2-1.2,0.3-2.1,1.4-2.6c0.6-0.3,0.4-1.9,0.3-1.8c-0.9,0.6-1.4-0.4-2-0.4c-0.3,0-0.8,0.2-0.9,0.5
		c-0.1,0.2,0.2,0.6,0.2,1c0.1,0.5,0.5,1.1-0.4,1.3c-0.2-1.2-0.4-2.5-1.5-3.2c-0.9-0.6,0.5-0.9,0.1-1.3c0.3-0.1,0.6-0.3,0.8-0.2
		c0.5,0.3,0.8,1.1,1.6,0.8c0.5-0.2,1-0.8,1.5-1.1c0.1-0.1,0.3-0.1,0.5-0.1c0,0.2,0,0.5-0.1,0.6c-0.3,0.3-0.6,0.7-0.1,1
		c0.3,0.2,0.7,0.1,1.1,0c0.2-0.1,0.3-0.3,0.5-0.5c0.7-0.6,0.6-0.6,1.1,0.3c0.1,0.2,0.5,0.3,0.7,0.2c0.3-0.1,0.4-0.4,0.7-0.6
		c0.4-0.4,0.6-0.3,1,0.3c1.3,1.8,1.1,1.8,2.3-0.1c0.2-0.3,0.3-0.6,0.5-0.1c0.3,1.1,1.3,1.5,2,2.3c0.1,0.2,0.6,0.3,0.8,0.2
		c0.3-0.3,0.8-0.5,0.6-1.1c-0.3-1.1-0.2-1.1,0.8-1.2c0.2,0,0.5,0,0.7,0c-0.1,0.2-0.2,0.4-0.3,0.6c-0.8,0.9-0.8,1,0.3,1.3
		c0.7,0.2,1.1,0.6,1,1.4c-0.1,0.8,0.4,1.1,0.8,1.6c0.3,0.4,0.6,0.4,0.9,0C262,168,262.5,167.5,262.9,167z M259.1,174.9
		c-0.3-0.1-0.6-0.1-0.8-0.3c-1.3-0.9-1.3-0.9-2.4,0.1c-0.2,0.2-0.5,0.4-0.7,0.7c-0.6,0.8-1.4,0.9-2.3,0.7c-0.2,0-0.3-0.2-0.5-0.3
		c0,0.2-0.1,0.5-0.1,0.6c0.1,0.3,0.4,0.5,0.4,0.8c-0.1,0.8,0.3,0.8,1,0.9c1,0.1,2.1,0,2.7-0.6c0.8-0.7,1.5-1.5,2.2-2.2
		C258.8,175.2,258.9,175.1,259.1,174.9z"/>
	<path d="M245.1,150.6c0.1-0.3,0.1-0.8,0.2-0.9c0.4,0,0.9,0,1.3,0.2c0.2,0.1,0.2,0.6,0.4,0.6c0.7,0.3,1.3,1,2.1,0.2
		c0.6-0.7,0.6-1.2,0-1.8c-0.1-0.1,0.1-0.4,0.1-0.6c0.2,0.1,0.4,0.2,0.5,0.3c0.8,1.3,0.1,3.1-1.2,3.8c-0.9,0.5-1-0.8-1.7-0.4
		c-0.3,0.1-0.9-0.2-0.4,0.6c0.3,0.4,0.1,1.1,0.2,1.6c0.1,0.9,1,1.7,1.9,1.7c1.2,0,1.4-0.3,1-1.7c-0.1-0.2-0.1-0.5,0-0.7
		c0-0.3,0-0.7,0.5-0.3c0.2,0.2,0.6,0.3,0.9,0.2c0.7,0,0.8-0.4,0.4-0.9c-0.1-0.1-0.1-0.3-0.1-0.5c0.2,0,0.6,0.1,0.6,0.1
		c0.2,1.3,1.3,1.4,2.1,1.7c0.8,0.3,1.1-0.2,0.9-1.2c0-0.2,0-0.3,0-0.5c0-0.2,0.1-0.5,0.2-0.6c0.1-0.1,0.5,0,0.6,0.1
		c0.6,0.4,1.1,0.8,1.7,1.2c0.6,0.3,0.9,0.1,0.8-0.6c0-0.1,0-0.2,0-0.2c-0.1-0.4-0.3-0.8-0.5-1.2c0.5,0.2,1,0.3,1.5,0.6
		c0.5,0.3,1.2-0.1,1.7,0.6c0.2,0.3,1.6-0.8,1.3-1.3c-0.3-0.8,0.4-0.6,0.4-0.5c0.6,0.7,1.3,0.5,2,0.4c1.1,0,1.7-1.1,0.9-1.9
		c-0.6-0.6-0.5-0.9,0-1.4c0.4-0.4,0.7-1,1-1.5c0.5-0.6,0.1-0.8-0.3-1.2c-0.4-0.4-0.5,0-0.7,0.2c-0.4,0.3-0.8,0.7-1.3,1
		c0.4-1.5,1-2,2.1-1.9c1,0.1,1.5,0.9,1.1,1.8c-0.3,0.6-0.7,1.2-1.2,1.7c-0.5,0.4-0.5,0.7-0.1,1.3c0.3,0.4,0.5,1.2,0.3,1.4
		c-0.6,0.6-1,1.7-2.2,1.6c-0.2,0-0.3,0-0.5,0c-0.9-0.1-1.6,0.1-2.1,0.8c-0.5,0.8-1.4,0.9-1.9,0.6c-0.7-0.4-1.1-0.2-1.4,0.3
		c-0.4,0.6-1.1,1-1.6,0.6c-0.8-0.6-0.9-0.5-1.4,0.4c-0.8,1.4-1.3,1.4-2.9,0.7c-1.1-0.5-1.4-0.4-2.3,0.8c-0.3,0.4-0.8,0.8-1.2,1.1
		c-0.2,0.1-0.8-0.1-0.4,0.4c0.2,0.3,0.6,0.4,1,0.5c0.1,0,0.2-0.2,0.3-0.3c1.1-0.8,1.2-0.9,2.1-0.1c0.5,0.4,1.1,0.6,1.5,0.2
		c0.6-0.5,1.3-0.1,1.8-0.4c0.7-0.3,1,1,1.7,0.4c0.7-0.7,1.3-1.5,1.5-2.5c0.1-0.4,0.3-0.7,0.5-1c0.4-0.6,1-1,1.6-0.7
		c0.6,0.4,1.4,0.8,1.2,1.8c-0.1,0.4-0.2,0.7-0.3,1.1c0,0.3,0,0.5,0,0.8c0.4-0.1,1,0,1.2-0.2c0.4-0.6,0.7-1.3,1-2
		c0.2-0.4,0.5-0.8,0.8-1.1c0.5-0.7,1.3-0.6,1.9-0.3c0.5,0.2,0.6,0.8,0.7,1.4c0.2,1.4-0.4,2.3-1.4,3c-0.7,0.5-0.1,0.9,0,1.3
		c-0.3,0-0.6,0-1,0c-0.3,0-0.9,0.2-0.9-0.4c0-0.3,0.3-0.8,0.6-0.9c1.8-0.6,1.8-2.1,1.8-3.6c0-0.1-0.1-0.4-0.2-0.4
		c-0.2,0-0.5-0.1-0.6,0.1c-0.8,0.6-1.2,1.5-1.6,2.4c-0.2,0.5-0.3,1.3-1.2,1.4c-0.7,0.1-1.6-0.2-1.6-0.9c0-0.6,0.1-1.3,0-1.9
		c-0.1-0.4-0.4-0.8-0.7-1.1c-0.2,0.3-0.7,0.6-0.7,0.9c0,0.9-0.7,1.4-0.8,2.1c-0.2,1-0.9,1.3-1.7,1.6c-0.2,0.1-0.7,0.2-0.8,0
		c-0.8-1.3-1.9-0.8-2.8-0.2c-0.6,0.3-0.9,0.6-1.4,0c-0.6-0.9-1.1-0.6-1.7,0.1c-0.1,0.2-0.4,0.3-0.5,0.5c-0.3,0.4-0.5,0.1-0.7-0.1
		c-0.5-0.5-1-1-1.5-1.5c-0.3-0.2-0.6-0.4-1-0.5c-1.1-0.2-1.4,0.1-1.1,1.3c0.1,0.2,0.6,0.5,0.1,0.6c-0.8,0.1-1.8,0.2-2.1-0.9
		c1.1,0.4,0.9-0.8,1.4-1.1c0.3-0.3,0.8-0.6,0.1-1c0.1-1.5-0.5-3.1,0.4-4.5C245.6,151.2,245.2,150.8,245.1,150.6z"/>
	<path d="M238.8,177.7c-0.1-0.9-0.1-1.5-1.2-0.7c-0.3,0.2-0.8,0.2-1.1,0.1c-0.3-0.1-0.7-0.3-0.9-0.6c-0.1-0.1,0.2-0.4,0.3-0.7
		c0.2-0.3,0.4-0.7,0.5-1c0-0.2-0.1-0.4-0.2-0.6c-0.1-0.1-0.3-0.1-0.5,0c-0.1,0.1-0.3,0.2-0.3,0.3c-1,1.6-2.5,1.1-3.9,1
		c-0.6,0-0.4-0.6-0.4-1.1c-0.6,0.5-1.3,0.8-2.1,1.1c0.3,0.1,0.7,0.1,1.1,0c0.2,0,0.4,0.2,0.6,0.3c-0.2,0.2-0.3,0.4-0.5,0.5
		c-0.4,0.1-1,0.2-1.3,0c-0.5-0.5-0.7,0-0.9,0.2c-0.2,0.2-0.2,0.6-0.2,0.9c0,0.6-0.4,0.7-0.8,0.5c-1.2-0.6-2.2-0.7-3.1,0.3
		c-0.1,0.1-0.6,0.2-0.8,0c-0.4-0.3-0.7-0.7-1-1c-1.4-1.1-2.3-1.1-3.6,0.2c-0.2,0.2-0.5,0.3-0.7,0.5c0.4,1.3,1.9,1.3,2.5,2.3
		c0,0,0.3,0,0.3-0.1c0.1-0.1,0.1-0.4,0-0.5c-0.4-0.4-0.7-0.8-1.1-1.2c-0.3-0.3-0.4-0.6-0.1-1c0.3-0.3,0.6-0.8,1.2-0.3
		c1.1,0.8,2.2,1.6,3.3,2.4c0.5,0.4,0.9,0.8,1.4,1.2c0.9-0.7-0.7-1-0.3-1.7c0.2-0.3,0.1-0.7,0.2-1.1c0.4,0.1,0.9,0.1,1.3,0.2
		c0.7,0.3,1.3,0.7,2,1c0.1,0,0.4-0.2,0.4-0.2c0-0.2-0.2-0.4-0.2-0.6c-0.1-0.4-0.1-0.9-0.1-1.3c0.4,0,0.8-0.1,1.1,0
		c0.2,0,0.4,0.6,0.7,0.1c0.6-0.8,1.2-0.7,1.9-0.2c0.2,0.1,0.6,0,0.9-0.2c1.1-0.7,1.9-0.3,2.6,0.6c0.3,0.4,0.7,0.8,1.2,0.5
		c0.9-0.5,1.3,0,1.8,0.5c0.7,0.8,1.9,0.2,2.1-1c-0.4,0.2-0.8,0.4-1.2,0.5C239.3,178.1,238.8,177.9,238.8,177.7z"/>
	<path d="M241.6,166.7c0-0.2-0.6-0.6-0.6-0.5c-0.4,0.3-0.1,0.6,0.1,1c0.2,0.5,0.2,1.1,0.2,1.6c-0.1,0.6-1,0.8-1.5,0.4
		c-0.8-0.8-1.4-1.6-1.4-2.8c0-0.1-0.2-0.1-0.3-0.2c0,0-0.2,0.1-0.2,0.2c0,0.3,0,0.7,0,1c-0.1,0.3-0.2,0.5-0.4,0.7
		c-0.3-0.1-0.6-0.2-0.8-0.5c-0.3-0.5-0.5-1.1-0.7-1.6c-0.1-0.1-0.2-0.2-0.3-0.3c-0.1,0.2-0.3,0.4-0.2,0.6c0.1,0.4,0.8,0.7,0.3,1.2
		c-0.4,0.4-0.8,0.8-1.3,1c-0.3,0.1-1,0.3-1-0.5c0-0.1-0.3-0.3-0.4-0.4c-0.2,0.2-0.4,0.4-0.5,0.6c-0.1,0.3,0.1,0.7-0.3,0.8
		c0.2,0.3,0.3,0.6,0.4,0.9c0-0.1,0-0.2,0.1-0.3c0.2-0.2,0.3-0.9,0.8-0.3c0.1,0.1,0.3,0.2,0.4,0.2c1-0.3,1.3,1.1,2,0.9
		c0.6-0.2,1-1,1.6-1.3c0.6-0.3,1,0.2,1.1,0.5c0.3,1.1,0.9,1,1.7,0.5c0.3-0.2,0.7-0.3,1-0.5c0.6-0.6,1.2-1.3,2.2-1.2
		c0,0,0.1-0.6,0.2-0.9C242.9,167.3,241.8,168.1,241.6,166.7z"/>
	<path d="M250.4,141c-0.7,0-1.4,0-2.1,0c-0.3,0-0.7,0.2-0.7,0.3c0,0.4-0.3,0.9,0.4,1.1c0.3,0.1,0.6,0.4,0.9,0.6
		c0.1,0.1,0.1,0.3,0.1,0.4c-0.1,0.2-0.3,0.3-0.5,0.4c-0.6,0-1.2,0.2-1.7-0.5c-0.4-0.4-1-0.6-1.4-1c-0.5-0.5-0.8-0.4-1.4-0.1
		c-0.8,0.5-0.8-0.3-0.8-0.8c0.3,0,0.6,0,1,0c1.4,0,1.4,0,1.5-1.3c0-0.7,0.1-1.4,0.4-2c0,1.1,0,2.2,0,3.7c0.6-0.6,0.9-0.9,1.2-1.2
		c0.5-0.6,1.1-0.8,1.8-0.2c0.1,0.1,0.3,0.1,0.3,0c0.1-0.1,0.1-0.3,0.1-0.4c-0.2-0.3-0.6-0.6-0.7-0.9c-0.2-0.3-0.2-0.7-0.2-1.1
		c0-0.1,0.5-0.1,0.8-0.2c0,0,0.2,0.1,0.2,0.2c0,0.8,0.5,1.2,1.2,1.2c0.6,0,0.8-0.9,0.5-1.9c0-0.1,0-0.4,0.1-0.4c0.1-0.1,0.4,0,0.4,0
		c0.2,0.9,1.2,1,1.7,1.7c0.3,0.4,0.6,0.2,1-0.1c0.4-0.3,0.4-0.5,0-0.9c-0.3-0.2-0.4-0.6-0.5-1c-0.1-0.2,0-0.5,0.1-0.6
		c0.1-0.1,0.5-0.1,0.6,0c0.3,0.2,0.4,0.5,0.7,0.6c0.2,0.1,0.5,0.1,0.8,0.1c0-0.3-0.1-0.5-0.1-0.8c0-0.2,0-0.3,0-0.5
		c0.2,0.1,0.6,0.1,0.6,0.2c-0.1,0.9,0.9,0.7,1.2,1.2c0.1,0.1,0.6,0.1,0.6,0c0.4-1.5,1.2-0.8,2.1-0.4c0.3,0.1,0.7-0.1,1.1-0.3
		c0.4-0.2,0.5-0.5,0-0.8c0.2-0.1,0.3-0.3,0.5-0.3c0.7-0.2,1.4,0.3,2-0.4c0.1-0.1,0.2-0.2,0.3-0.3c-0.1-0.1-0.2-0.2-0.4-0.2
		c-0.6,0-1.1,0-1.7,0c-0.3,0-0.6-0.1-0.8-0.3c-0.3-0.3-0.5-0.9-0.9-1c-0.3-0.1-0.8,0.4-1.2,0.6c0,0-0.3-0.3-0.4-0.5
		c-0.1-0.2-0.2-0.7-0.3-0.7c-0.2-0.1-0.7-0.1-0.9,0c-0.6,0.4-1,1-1.6,1.5c-0.1,0.1-0.3,0.1-0.5,0.2c0-0.2,0-0.4,0-0.7
		c0.1-0.4,0.3-0.9,0.4-1.3c0.1-0.6-0.2-0.8-0.8-0.8c-0.2,0-0.7,0.2-0.5-0.4c0.1-0.2,0.4-0.5,0.7-0.6c0.1-0.1,0.5,0.1,0.6,0.3
		c0.7,0.9,1.5,1.4,2.7,1.2c0.5-0.1,0.7,0.1,0.7,0.7c0,0.1,0.1,0.2,0.1,0.2c0.5-0.1,1.5-0.4,1.6-0.2c0.3,0.6,0.6,0.9,1.4,0.9
		c0.6,0,1.3,0.2,2,0.5c0.7,0.3,0.7,1.4,0,1.9c-0.9,0.5-1.8,1-2.8,1.5c-0.2,0.1-0.4,0.5-0.5,0.4c-0.7,0-1.6-0.4-2.1-0.2
		c-0.6,0.3-1.1,0.8-1.9,0.7c-1-0.1-2.1,0.3-2.4,1.1c-0.4,1.2-1.5,1-1.8,0.7c-0.9-0.7-1.2-0.2-1.7,0.3C251,140.1,250,140,250.4,141z"
		/>
	<path d="M259.5,188.7c-0.3,0.8-0.7,1.2-1.3,0.3c-0.3-0.4-1.8-0.1-0.8-1.3c0.4-0.5,0.4-1-0.4-0.9c-0.9,0.1-1.3-0.6-1.7-1.1
		c-0.3-0.4-0.4-1.1-0.5-1.6c0-0.1,0.3-0.4,0.5-0.5c0.1,0,0.3,0.1,0.4,0.3c0.2,0.2,0.3,0.5,0.5,0.8c0.8,1.6,1.1,1.6,2.2,0.3
		c0.3-0.4,0.3-0.6,0-1c-0.2-0.3-0.4-0.6-0.5-1c0-0.1,0-0.2-0.1-0.3c0.2,0,0.5-0.1,0.6,0c0.3,0.2,0.7,0.5,0.6,0.7
		c-0.1,0.8,0.6,0.5,0.9,0.8c0.5,0.5,1.1,0.6,1.4,0.2c0.3-0.4,0.3-1-0.3-1.4c-0.3-0.2-0.5-0.4-0.7-0.7c-0.2-0.2-0.4-0.7-0.3-0.8
		c0.5-0.6,0.5,0.2,0.8,0.3c0.9,0.4,1.8,1,2.8,1.3c0.8,0.2,1.7-0.1,2.1-0.9c0.3-0.7,0.6-0.6,1-0.2c0.9,0.9,2,1.2,3.2,1.7
		c0.2,0.1,0.5,0,0.6-0.2c0.1-0.1,0.1-0.5,0-0.6c-0.6-0.6-1.2-1.2-2-2.1c0.7,0,1.2,0,1.6,0c1.3,0.1,2.2-0.5,3.1-1.3
		c0.3-0.3,0.1-1-0.3-1c-0.9-0.1-1.9-0.3-2.7,0.2c-0.1,0.1-0.2,0.1-0.3,0.1c0-0.2-0.1-0.5,0-0.6c0.4-0.5,0.8-1,1.4-1.4
		c0.7-0.5,0.5-1.1,0.5-1.7c-0.1-0.6-0.5-0.9-1.1-1c-0.6-0.1-0.7,0.2-0.9,0.8c-0.1,0.4-0.6,0.8-0.9,1.2c0-0.3-0.1-0.7,0-1
		c0.2-0.7,1.4-1.9,1.9-1.9c0.7,0,1.5,1.2,1.5,2.3c0,0.3,0,0.6,0,1c0,0.8,0,0.8,0.9,1.2c0.6,0.3,1.1,0.6,1,1.5
		c-0.1,1.8-0.7,2.4-2.8,2.7c-0.6,0.1-0.5,0.2-0.2,0.6c0.2,0.3,0.2,0.8,0.1,1.1c-0.1,0.7-0.4,1.1-1.2,1.1c-1.2,0.1-2.2-0.3-3.1-1.2
		c-0.4-0.4-0.8-0.6-1,0.2c-0.9-0.1-1.7,0.8-2.7,0.5c-0.8-0.2-1.3,0-1.2,1.1c0,0.4-0.5,0.9-1.2,0.9c-0.5,0-1,0-1.4,0
		c-0.5,0-0.7,0.1-0.7,0.6c0,0.6-0.1,1.3,0,1.9C258.6,188.9,259.2,188.7,259.5,188.7z"/>
	<path d="M237.9,122c-0.6-0.5-1-1.1-1.8-1.3c-0.7-0.1-1.2-0.9-1.8-1.4c-0.1-0.1,0-0.4,0.1-0.5c0.2-0.4,0.9-0.6,0.6-1.2
		c-0.1-0.3-0.7-0.3-1-0.5c-1-0.8-1.3-2.1-0.6-3.1c0.1-0.2,0.3-0.3,0.5-0.4c0.1,0.1,0.2,0.3,0.2,0.4c0,0.3,0.1,0.7,0,1
		c-0.1,0.7,0.2,1.1,0.7,1.4c0.4,0.3,0.9,0.6,1.3,0.9c0.8,0.5,0.8,0.6-0.2,1.1c-0.2,0.1-0.4,0.3-0.4,0.5c0,0.2,0.2,0.4,0.3,0.5
		c0.5,0.2,1,0.5,1.5,0.5c0.9-0.1,1.2,0.2,1.1,1.1c0,0.1,0.5,0.4,0.6,0.4c0.5-0.2,1-0.6,1.6-0.9c0.1-0.1,0.5,0.1,0.6,0.2
		c0.1,0.1,0,0.5-0.1,0.6c-0.2,0.2-0.6,0.2-0.8,0.4c-0.7,0.8-1.5,1.5-2.5,1.6c-0.8,0.1-1.7-0.5-2.5-0.8c-0.2-0.1-0.5,0.1-0.8,0.1
		c0.1,0.2,0,0.5,0.2,0.6c0.6,0.5,1.2,0.9,1.8,1.4c0.2,0.1,0.5,0.2,0.6,0.1c0.4-0.3,0.7-0.7,1.2-0.2c-0.4,0.2-0.7,0.5-1.1,0.8
		c-0.3,0.2-0.6,0.5-0.8,0.8c-0.1,0.1,0.1,0.6,0.2,0.6c0.4,0.1,0.9,0.2,1.2,0c0.6-0.4,1.3-0.4,2-0.5c0.7-0.1,0.9-0.8,1.1-1.3
		c0-0.1,0.4,0,0.6,0c0,0.1,0,0.2,0,0.3c-0.2,0.7-0.9,1.2-0.8,2.1c0.1,0.3-0.2,0.9,0.5,0.9c0.3,0,0.9,0.2,1-0.4
		c0.2-1.2,0.8-0.8,1.6-0.6c0.7,0.2,1.2-0.2,1.3-1c0-0.4,0-0.8,0-1.2c-0.1-0.5-0.2-1.1-0.2-1.6c0.1,0,0.2,0,0.2,0c0.2,0,1,1.9,1,2.1
		c-0.2,0.6-0.4,1.3-0.8,1.8c-0.4,0.6-0.9,0.9-1.8,1c-0.7,0-1.4,0.6-2,1c-0.4,0.3-0.8,0.8-1.2,0.2c-0.3-0.5-1.5-0.7-0.8-1.7
		c0.3-0.4,0.1-0.6-0.2-0.5c-0.6,0.2-1.3,0.4-1.9,0.7c-0.7,0.4-1.2,0.4-1.7-0.2c-0.4-0.5-1.3-0.8-0.4-1.7c0.3-0.3,0.2-0.6-0.4-0.8
		c-1.4-0.5-1.6-1.6-1.4-2.9c0.1-0.7,0.8-1,1.5-0.7C235.9,121.9,236.7,122.6,237.9,122z"/>
	<path d="M250.6,125.1c-0.3,0.1-1,0.4-1.7,0.7c-0.1,0.1-0.3,0-0.5,0c0.1-0.2,0.1-0.6,0.2-0.6c1-0.1,1.3-0.7,1.3-1.6
		c0-0.1,0.5-0.2,0.7-0.4c0.2-0.1,0.6-0.2,0.7-0.4c0.2-0.7,0.5-0.7,1-0.3c0.5,0.4,0.9,1,1.6,0.7c0.3-0.1,0.8-0.2,0.8-0.3
		c0.2-1.4,1.3-1.2,2.2-1.1c0.7,0,1-0.4,1.2-0.9c0-0.1-0.1-0.4-0.1-0.4c-0.5,0.1-0.9-0.9-1.5-0.2c-0.3,0.3-0.8,0.5-1.2,0.5
		c-0.4,0-0.8-0.4-1.2-0.4c-0.4,0-1.1,0.3-1.1,0.2c-0.4-0.9,0.5-0.7,0.9-1c0.7-0.6,1-1.3,1-2.3c0-1.4-0.6-0.5-1-0.4
		c-0.2,0-0.3,0-0.5,0c0.1-0.1,0.1-0.3,0.2-0.4c0.5-0.8,1.3-0.7,1.9-0.5c0.6,0.2,0.9,0.8,0.8,1.5c-0.1,0.4-0.3,0.7-0.4,1
		c-0.1,0.4-0.1,0.7,0.5,0.8c0.7,0.1,1.4-0.3,2,0.4c0.2,0.2,0.7,0.4,0.8,0.6c0.1,0.5,0.3,1.1-0.3,1.5c-0.3,0.2-0.7,0.4-1,0.5
		c-1.1,0.5-2.4,0.4-3.2,1.7c-0.2,0.3-1.2,0.1-1.8,0.1c-0.1,0-0.2,0.2-0.4,0.2c0.1,0.1,0.3,0.1,0.4,0.2c0.8,0.8,1.5,1.5,2.5,2.1
		c0.5,0.3,0.6,0.6,0.1,1c-0.7,0.5-1.1,1.4-2.2,1.2c-0.1,0-0.9,0.4-0.3,1.2c0.4,0.6,0.3,1.9-1,2.2c-0.3,0.1-0.6,0.7-0.8,1
		c-0.8,1.1-1.3,1.2-2.2,0.3c-0.3-0.3-0.6-0.5-0.8-0.9c-0.1-0.1-0.1-0.3-0.1-0.5c0.2,0,0.3-0.1,0.5,0c0.2,0.1,0.4,0.3,0.5,0.5
		c0.4,0.5,1.2,0.7,1.4,0.4c0.2-0.4,1.2-0.9,0.3-1.7c-0.1-0.1-0.2-0.9,0.5-0.4c0.3,0.2,0.9,0.1,1.3,0.1c0,0,0.1-0.3,0.1-0.4
		c-0.3-0.5-0.6-1-1.2-0.8c-0.5,0.1-1,0.4-1.5,0.4c-0.4,0-0.9-0.2-1.3-0.4c-0.2-0.1-0.3-0.3-0.3-0.5c0-0.2,0.2-0.4,0.4-0.4
		c0.5-0.1,1,0,1.4,0c0.9,0,1.5-0.1,0.6-1.1c0,0,0.1-0.3,0.2-0.3c0.1,0,0.4-0.1,0.5,0c0.7,0.9,1.5,1.4,2.6,0.5
		c0.2-0.2,0.6-0.4,0.5-0.5c-0.1-0.3-0.3-0.6-0.5-0.7c-0.4-0.2-0.9-0.2-1.4-0.2c-0.4,0-0.6-0.1-0.3-0.5c0.6-0.7,0.2-1-0.6-0.9
		C251.4,125.1,251.2,125.1,250.6,125.1z"/>
	<path d="M239,110.6c-1.3,0.2-2.3-0.4-3.2-1.4c-0.8-0.8-0.7-0.7-0.1-1.5c0.5-0.6,0.9-1.2,1.2-1.9c0.2-0.5,0.5-1,1.1-1
		c1,0.1,1.4-0.2,1.3-1.3c0-0.3,0.3-0.7,0.5-1c1.5-1.4,1.5-1.4,1.9-3c0.1-0.3,0.4-0.5,0.4-0.8c0.1-0.8,0.5-1.3,1.4-1.2
		c0.6,0.1,1.4,1,1.5,1.6c0.1,0.5-0.2,1.1,0.1,1.4c0.4,0.5,0.1,1.6,1.2,1.3c1-0.2,1.2,0.3,1.1,1.2c-0.1,0.7,0.2,1.4-0.4,2
		c-0.1,0.1-0.5,1.1,0.6,1.2c0.6,0.1,0.4,1,0.3,1.1c-0.6,0.4-0.8,1.9-2,0.9c-0.1,0-0.4,0.1-0.5,0.3c-0.2,0.3-0.3,0.7-0.5,1
		c-0.2,0.4-0.5,0.7-0.7,1c0,0-0.5-0.2-0.5-0.3c0.1-0.5-0.4-1.2,0.4-1.6c0.3-0.2,0.5-0.7,0.8-0.9c0.3-0.2,0.8,0,1.2-0.1
		c0.4-0.1,0.8-0.3,1.2-0.5c0,0,0-0.4-0.1-0.4c-0.3-0.1-0.7,0-0.9-0.1c-0.7-0.3-0.8-1-0.1-1.6c0.6-0.6,1.1-1.1,0.9-2
		c0-0.2-0.1-0.5-0.3-0.6c-0.2-0.1-0.4,0.1-0.6,0.2c-0.2,0.1-0.4,0.3-0.5,0.5c-0.2,0.5,0.3,1.2-0.4,1.6c-0.1-0.6,0.1-1.4-0.2-1.8
		c-0.5-0.9-0.3-1.8-0.5-2.7c-0.1-0.5-0.3-1-0.5-1.5c0-0.1-0.3-0.2-0.4-0.2c-0.2,0.1-0.5,0.2-0.5,0.3c0,0.8,0,1.6,0.1,2.4
		c0,0.2,0.2,0.3,0.3,0.5c-0.3,0-0.6,0-0.8-0.1c-0.1,0-0.3-0.3-0.4-0.2c-0.2,0-0.4,0.1-0.6,0.2c-0.1,0.1-0.1,0.3,0,0.5
		c0.1,0.1,0.2,0.2,0.3,0.4c0.2,0.3,0.5,0.7,0.4,0.8c-0.3,0.5-0.7,0.9-1.3,0.2c-0.1-0.1-0.4-0.1-0.6-0.1c-0.2,0-0.3,0-0.5,0
		c0,0.2,0,0.4,0.1,0.5c0.3,0.4,0.8,0.6,1,1c0.2,0.3,0.2,0.8,0.1,1.1c-0.3,0.4-0.6,0.2-1-0.1c-0.3-0.2-0.6-0.4-1-0.5
		c-0.4-0.1-0.9,0-1.3,0c0.1,0.4,0.1,0.9,0.3,1.3c0,0.1,0.2,0.2,0.3,0.3c0.1,0.2,0.1,0.3,0.2,0.5c-0.2,0-0.4,0-0.6-0.1
		c-0.2-0.1-0.5-0.4-0.6-0.3c-0.4,0.2-0.7,0.5-1,0.8c0.2,0.2,0.3,0.4,0.5,0.6c0.8,0.6,1.6,1.3,2.7,1c0.2,0,0.5,0.3,0.6,0.5
		c0.2,0.8-0.4,0.4-0.7,0.5C239.4,110.7,239.2,110.6,239,110.6z"/>
	<path d="M260,146.3c0.1,0.5,0,1-0.5,1.2c-0.8,0.4-1.6,0.8-2.5,1c-0.6,0.1-1.2-0.3-1.8-0.5c-0.4-0.1-1-0.4-1.3-0.2
		c-0.9,0.8-2,0.3-3,0.4c-0.3,0-0.7-0.3-0.9-0.6c-0.1-0.1-0.2-0.5-0.1-0.6c0.1-0.1,0.5-0.3,0.6-0.2c0.8,0.8,1.8,0.4,2.7,0.4
		c0.3,0,0.6-0.4,0.9-0.6c-0.2-0.2-0.3-0.5-0.5-0.7c-0.2-0.1-0.5-0.1-0.6-0.2c-0.1-0.1-0.1-0.4-0.2-0.6c0.2,0,0.3,0,0.5,0
		c1.1,0.1,2.2,0.2,3.3,0.2c0.4,0,0.7-0.2,1.1-0.3c-0.2-0.3-0.3-0.7-0.5-1c-0.1-0.2-0.2-0.3-0.4-0.5c0.2-0.1,0.5-0.2,0.6-0.2
		c0.9,0.2,1.5-0.4,2.1-0.7c0.3-0.2,0.6-0.7,0.5-0.9c-0.2-0.5-0.5-0.3-0.9-0.1c-0.6,0.3-1.2,0.7-1.8,0.7c-0.6,0-1.2-0.5-1.8-0.9
		c-0.4-0.3-0.7-0.8-0.7,0.2c0,0.4,0.1,1.2-0.6,0.4c-0.2-0.2-0.5-0.5-0.7-0.5c-0.3-0.1-0.6,0-0.9,0.1c0.1,0.2,0.3,0.5,0.3,0.7
		c0,0.1,0,0.3-0.1,0.4c0,0-0.3,0.1-0.3,0c-0.5-0.8-1.8-0.7-2-1.8c0.5-0.1,1,0,1.4-0.2c0.6-0.3,1.1-0.5,1.7,0
		c0.1,0.1,0.7,0.1,0.8-0.1c0.6-0.8,0.9-0.5,1.6,0c0.8,0.6,1.8,1.2,2.9,0.4c0.3-0.2,0.9-0.2,1.4-0.2c0.3,0,0.9-0.2,0.9,0.4
		c0,0.4-0.1,0.8-0.3,1.1c-0.3,0.4-0.8,0.7-1.3,0.9c-0.3,0.2-0.3,0.2-0.9,1.5c-0.3,0.7-0.7,1.4-1.7,1.4c-0.6,0-1.3,0-1.9,0
		c1,1.7,1.6,1.9,3.4,1C258.9,147,259.4,146.6,260,146.3z"/>
	<path d="M231.2,131.8c1.3-0.2,2.5-0.3,3.5-1.4c0.1-0.1,0.4,0,0.6,0.1c0,0.1,0,0.3-0.1,0.3c-0.2,0.2-0.4,0.5-0.7,0.7
		c-0.4,0.3-0.6,0.5-0.1,1.1c0.7,0.7,1.4,0.9,2.3,0.6c0.4-0.1,0.7-0.3,1.1-0.3c0.1,0,0.3,0.1,0.4,0.1c0,0.1-0.1,0.2-0.2,0.3
		c-0.9,1-2,1-3.2,1c-1,0-1.5-0.7-1.8-1.5c-0.2-0.5-0.3-0.2-0.6-0.2c-1.1,0.2-2.2,0.3-3.3,0.1c-0.5-0.1-1.3-0.8-1.4-1.4
		c-0.2-0.7-0.4-1.6,0.4-2.2c0.6-0.4,2-0.5,0.2-1.4c-1-0.5-0.8-2.7-0.2-3.8c0.3-0.6,0.9-0.4,1.2-0.3c0.3,0.2,0.5,0.7,0.7,1.1
		c-0.2,0-0.3,0-0.5,0c-0.3,0-0.7-0.2-0.8-0.1c-0.2,0.2-0.2,0.6-0.1,0.9c0.4,1.4,1.4,2.3,2.7,2.8c0.2,0.1,0.4,0.2,0.6,0.3
		c-0.2,0.2-0.4,0.6-0.7,0.6c-0.6,0.1-1.3,0-1.9,0.1c-0.6,0-1.1,0.8-0.7,1.3C229.3,131.4,230,132.2,231.2,131.8z"/>
	<path d="M243.1,141.5c-0.5,0-1,0-1.4,0c-0.4,0-0.6-0.2-0.2-0.5c0.5-0.4,0.9-0.9,0.7-1.6c-0.1-0.2-0.1-0.4-0.2-0.7
		c-0.2,0.1-0.3,0.2-0.5,0.3c-1.1,0.8-1.6,0.9-2.2-0.3c-0.4-0.8-0.8-1.2-1.6-1c-1.3,0.3-2.4-0.5-3.4-1c-1.4-0.7-3-1.3-3.7-2.9
		c0.4,0.1,0.7,0.2,1.1,0.3c0.6,0.3,1.1,0.8,1.7,1.2c0.5,0.3,1.1,0.9,1.5,0.8c0.5-0.1,1-0.7,1.5-1.1c0.1-0.1,0.3-0.1,0.5-0.1
		c0,0.2,0,0.4-0.1,0.6c-0.4,1.1-0.4,1,0.5,1.1c1.1,0.2,1.8-0.4,2.4-1.1c0.1-0.1,0.3-0.1,0.5-0.2c0,0.2,0,0.4,0,0.6
		c0,0.2,0.1,2,0.2,2c0.4,0,0.9,0,1.3-0.1c0.5-0.2,0.5-0.7,0.5-1.2c0-0.3,0.1-0.6,0.2-0.9c0.3,0.2,0.6,0.4,0.8,0.8
		c0.5,1.1,0.5,1.1,1.7,0.6c0.1,0,0.3,0,0.5,0c0,0.2,0,0.4,0,0.5c-0.2,0.3-0.6,0.8-0.8,0.8c-1.6-0.2-1.3,0.9-1.3,1.8
		C243.1,140.7,243.1,141.1,243.1,141.5z"/>
	<path d="M249.2,116.4c-0.2,0-0.5,0-0.7,0c-0.1,0-0.3-0.1-0.4-0.2c0.1-0.1,0.1-0.2,0.2-0.3c0.2-0.2,0.3-0.4,0.5-0.4
		c0.7-0.2,1.2-0.5,1.1-1.2c-0.1-0.4-1.3-0.3-1.9,0.1c-0.2,0.1-0.3,0.4-0.5,0.5c-0.1,0.1-0.3,0-0.3,0c-0.1-0.1-0.1-0.3-0.1-0.4
		c0.5-0.9,1.4-1.2,2.3-1.3c0.6,0,1.1-0.1,1.4-0.6c0.1-0.2,0.2-0.5,0.1-0.6c-0.2-0.2-0.5-0.4-0.8-0.5c0.2-0.2,0.6-0.4,0.7-0.7
		c0.1-0.4,0.1-0.9,0.1-1.3c-0.3,0.1-0.7,0.2-1,0.3c-0.2,0-0.4,0-0.7,0c0-0.3-0.1-0.6,0.1-0.8c0.4-0.7,0.9-1.2,1.2-1.9
		c0.1-0.3-0.1-0.8-0.3-1c-0.2-0.2-1,0.1-0.3-0.6c0.6-0.6,1.5-0.6,1.6-0.1c0.1,0.6,1.1,1,0.2,1.8c-0.7,0.6-0.6,1.4,0.3,2
		c0.6,0.4,0.6,1,0.3,1.6c-0.2,0.5-0.2,1-0.3,1.6c-0.1,0.7,0.2,1.4-0.9,1.6c-0.8,0.1-0.5,1.1-0.7,1.6
		C249.9,116.4,249.9,116.4,249.2,116.4z"/>
	<path d="M263.9,198.4c-0.4-1.5-1.7-2.7-2.9-2.9c-0.5,0-0.9-0.2-1.2-0.6c-0.1-0.2-0.2-0.5-0.2-0.6c0.1-0.1,0.4-0.3,0.6-0.2
		c0.4,0.1,0.7,0.4,1,0.4c0.3,0,0.6-0.3,1-0.4c0.3-0.1,0.6-0.1,0.8-0.3c0.3-0.3,0.5-0.7,0.7-1.1c0.4,0.3,0.7,0.7,1.1,0.9
		c0.4,0.2,1,0.4,1.5,0.5c0.6,0.1,1.1-0.1,1.4-0.6c0.4-0.6-0.2-0.8-0.5-1.2c-0.3-0.3-0.6-0.5,0.1-0.7c1.2-0.2,2.1-0.6,2.6-1.9
		c0.5-1.3,0.4-1.6-1.2-2c1.4-0.8,2.3-0.6,2.4,0.8c0.1,0.9,0,1.7-0.9,2.3c-0.6,0.4-1.1,0.8-1.6,1.3c-0.2,0.2-0.4,0.4-0.4,0.7
		c-0.4,2.1-0.9,2.4-3.1,1.7c-0.4-0.1-0.8,0-1.1-0.2c-0.9-0.5-0.9,0.5-1.4,0.7c0.1,0.2,0.1,0.5,0.3,0.7c0.4,0.5,1,0.8,1.3,1.4
		C264.4,197.5,264.7,198.2,263.9,198.4z"/>
	<path d="M238.9,117.5c-0.4-0.2-0.8-0.3-1.3-0.6c-0.1,0,0-0.3,0-0.5c1.4,0,0.6-1.1,0.7-1.6c0.1-0.8,0-1.6,1.1-1.8
		c0.2,0,0.4-0.4,0.4-0.7c0.3-1.9,0.8-2.2,2.5-1.2c0.3,0.1,0.5,0.3,0.7,0.5c0.1,0.2,0.3,0.5,0.2,0.6c-0.3,0.5-0.4,0-0.6-0.1
		c-0.4-0.3-0.9-0.6-1.3-0.8c-0.1-0.1-0.4,0-0.5,0.1c-0.1,0.1-0.3,0.4-0.3,0.5c0.4,0.8,0.9,1.6,1.3,2.3c0.1,0.1,0,0.3,0,0.5
		c-0.2,0-0.3,0-0.5-0.1c-0.3-0.1-0.6-0.2-0.8-0.3c-0.3-0.2-0.7-0.4-1-0.6c0,0.5-0.1,1,0,1.4c0.1,0.3,0.5,0.4,0.6,0.7
		c0.2,0.4,0.3,0.9,0.3,1.3C240.2,117.3,239.5,117.3,238.9,117.5z"/>
	<path d="M230.6,133.8c-0.3,0.1-0.8,0-0.8,0.2c-0.1,0.3-0.2,0.8,0,1.1c0.5,0.6,1.1,1.1,1.6,1.7c0.1,0.1,0.2,0.5,0.2,0.6
		c-0.1,0.1-0.4,0.2-0.6,0.3c-1.2,0.1-2.4,0-3.4-0.9c-0.1-0.1-0.4,0-0.6,0c0,0.3,0,0.5,0.1,0.8c0,0.1,0.1,0.1,0.2,0.2
		c0.2,0.5,1.2,0.6,0.8,1.3c-0.2,0.4-0.8,0.7-1.3,0.8c-0.3,0.1-0.8-0.2-1.1-0.4c-0.1,0-0.1-0.3-0.2-0.4c0.3,0,0.6,0,1,0
		c0.4,0,0.5-0.1,0.2-0.5c-0.6-0.8-0.5-1.7,0-2.4c0.4-0.6,0.7-0.2,1.1,0c0.8,0.4,1.6,0.7,2.5,1c0.1,0,0.3-0.1,0.4-0.1
		c-0.1-0.1-0.2-0.3-0.3-0.4c-1-0.4-1.7-1.1-1.5-2.3C228.8,133.3,229.5,133.1,230.6,133.8z"/>
	<path d="M259.5,188.7c0.3-1,1.3-1.1,2.1-1.5c1.2-0.6,3.1-1.3,4.2-1.4c-0.2,1-1.2,1.1-1.9,1.4c-0.6,0.3-0.7,0.6-0.3,1
		c0.7,0.5-0.5,2,0.9,1.9c0.7,0,1.3-0.6,2-0.9c0.2-0.1,0.5,0,0.7,0c-1.1,1.3-2.6,1.7-4.2,1.3c-0.3-0.1-0.5-0.3-0.7,0
		c-0.1-0.1-0.4-0.2-0.4-0.3c0.2-0.3,0.4-0.7,0.6-0.9c0.3-0.3,0.5-0.6,0.2-1c-0.4-0.4-0.6-0.8-1.4-0.3
		C260.9,188.4,260.3,188.9,259.5,188.7z"/>
	<path d="M265.8,159.3c1.1,1,1.2,1.4,0.1,1.9c-0.5,0.2-1,0.3-1.5,0.5c-0.2,0.1-0.5,0.3-0.6,0.5c-0.4,0.9-1.2,1.3-2,1.8
		c-1,0.5-1.7-0.2-2.6-0.3c-0.1,0-0.2,0-0.2,0c0-0.3-0.1-0.7,0-1c0.1-0.2,0.4-0.5,0.6-0.5c0.3,0,0.7,0.3,1,0.5
		c0.4,0.2,0.7,0.9,1.1,0.3c0.3-0.4,1-0.1,1.2-0.9c0.1-0.9,0.7-1.5,1.9-1.4C265.5,160.8,265.9,160.1,265.8,159.3z"/>
	<path d="M224.9,161.6c0.1,0.1,0.2,0.2,0.3,0.3c0.1,0.1,0,0.4,0,0.6c-0.1,0-0.1-0.1-0.2-0.1c0,0.2-0.1,0.5-0.2,0.7
		c0.7,0,2.3-0.5,2.7-1c0.4-0.5,0-0.4-0.3-0.5c-0.9-0.2-1.4-1-1.9-1.7c-0.8-1.2-0.6-1.8,0.7-2.2c0.2-0.1,0.4-0.2,0.6-0.3
		c-0.2-0.1-0.4-0.1-0.9-0.3c-0.3,0.2-1,0.3-1.2,0.7c-0.4,0.9-0.9,1.8-0.4,2.8C224.5,160.9,224.7,161.2,224.9,161.6z"/>
	<path d="M253.3,116.9c-0.3,0.4-0.7,0.8-1,1.2c-0.5,0.5-1.1,0.9-1,1.8c0,0.1-0.5,0.4-0.7,0.3c-0.9-0.4-1.7-0.9-2.5-1.4
		c-0.2-0.1-0.4-0.2-0.6-0.2c0.2-0.1,0.4-0.2,0.6-0.3c0.1,0,0.2,0,0.2,0c1.6-0.1,1.6-0.1,2.1-1.9c0.3,0.3,0.9,0.5,0.9,0.9
		c0.2,1.1,0.6,0.3,0.8,0.1C252.4,116.9,252.8,116.8,253.3,116.9z"/>
	<path d="M247.7,134.8c-0.4,0.5-0.7,1-1,1.4c-0.4,0.5-0.8,0.7-1.3,0.1c-0.1-0.1-0.4-0.1-0.7-0.1c-1.2-0.2-1.2-0.2-0.6-1.2
		c0.5-0.9,0.5-0.9,1-0.1c0.3,0.5,0.5,1.3,1.4,0.7c0.6-0.4,0.8-0.9,0.1-1.5c-0.2-0.2-0.2-0.5-0.4-0.8c-0.1-0.1-0.2-0.3-0.2-0.4
		s0.1-0.3,0.2-0.4c0.1,0.1,0.3,0.1,0.3,0.2C246.9,133.3,247.3,134,247.7,134.8z"/>
	<path d="M248.9,176.7c-0.1,1.4-0.7,2.3-1.6,2.4c-1.7,0.2-2.1-0.1-2.2-2c-0.1-1,0-0.9-1.1-0.6c-1.1,0.4-1.5,0.9-1.4,2.1
		c0.1,1.1,0,2.2,0,3.3c0,0.3-0.2,0.7-0.3,1c-0.2-0.2-0.7-0.5-0.6-0.7c0.1-0.4-1.1-1.2,0.3-1.3c0,0,0.1-0.1,0.1-0.2
		c-0.9-0.9-0.3-2-0.4-2.9c-0.1-1.6-0.7,0.3-1-0.2c0-0.6,0-1.1,0-1.7c0-0.7,0-0.8,0.7-0.3c0.5,0.4,1.4,0.7,1.9,0.5
		c0.9-0.4,2.1-0.8,2.2-1.8c0.1-0.7-0.7-1.3-1.5-1.5c-0.1,0-0.3-0.5-0.3-0.7c0.3-1.4,0.3-1.5-1-1.7c-0.3,0-0.9,0.3-0.8-0.3
		c0-0.2,0.7-0.5,1.1-0.5c0.7,0,1.6,0.9,1.6,1.6c0,0.7,0.2,1.2,0.7,1.6c0.8,0.5,1,1.4,0.7,2.1c-0.3,0.6,0,0.9,0,1.3
		c0.1,0.5-0.1,1.1,0,1.7c0.1,0.7,1.1,0.9,1.6,0.3C248.1,177.7,248.5,177.2,248.9,176.7z"/>
	<path d="M248.4,187.3c-1.5,0-2.2-0.7-2.3-2.2c-0.1-0.7,0-1.4,0-2.1c0-0.2,0.2-0.4,0.4-0.5c0.2,0,0.6,0.2,0.6,0.2
		c-0.2,0.8,0.6,0.5,0.8,0.8c0.4,0.5,0.7,0.2,0.9-0.1c0.4-0.6,0.7-0.4,1,0c0.2,0.4,0.5,0.8,0.7,1.1c0.4,0.5,0.8,0.9,1.4,0.3
		c0.1-0.1,0.3,0.1,0.4,0.1c0,0.1,0,0.3-0.1,0.3C251,186.3,250,187.4,248.4,187.3z"/>
	<path d="M243.1,186.8c-1.6,0.2-3.3-0.4-4.9,0.4c-0.3,0.2-0.9-0.2-1.4-0.2c-0.4,0-0.9,0.3-1.3,0.2c-0.8-0.1-1.2-0.6-1.1-1.4
		c1.4,1.1,1.5,1.1,2.7-0.1c0.7-0.7,0.6-0.1,0.7,0.3c0,0.1,0.6,0.2,0.8,0.1c0.4-0.3,0.8-0.8,1.2-1.1c0.1-0.1,0.3,0,0.3,0
		c0.1,0.1,0.1,0.3,0.1,0.4c-0.2,0.8,0.1,1.1,0.5,0.8C241.8,185.4,242.5,186.1,243.1,186.8z"/>
</g>
<g>
	<path d="M233,172.4c-0.8,2.5-3,3.3-5.3,4c-3.6,1-7.2,0.9-10.8,0.3c-1.9-0.3-3.5-1.2-5-2.4c-0.6-0.5-1.2-0.6-1.9-0.1
		c-1.7,1-3,2.2-3.7,4c-0.6,1.5-1.6,2.6-2.8,3.6c-0.4,0.3-1,0.3-1.5,0.4c-1.3,0.2-1.8,0.7-1.9,2c0,1.1,0.3,2.2,1.3,2.8
		c0.7,0.4,1,1.1,1.2,1.8c0.2,0.8,0.4,1.6,0.5,2.4c0.2,1.2,0.9,2,1.9,2.7c0.6,0.5,1.1,1.1,1.7,1.5c0.4,0.3,0.8,0.6,1.3,0.7
		c2,0.5,4,0.8,6,1.4c1.2,0.3,2.3,0.8,3.4,1.4c1.6,0.8,3,1.7,4.6,2.6c0.3,0.2,0.8,0.2,1.1,0.4c0.2,0.1,0.5,0.2,0.7,0.4
		c0,0.1-0.1,0.1-0.1,0.2c-0.8-0.1-1.6-0.1-2.4-0.2c-2.1-0.2-4.2-0.6-6.2-1.3c-0.5-0.2-1-0.3-1.6,0c-0.3,0.1-0.7-0.1-1-0.2
		c-0.3-0.1-0.6-0.4-1.1-0.6c0.2,1-0.4,1.1-1,1c-1.5-0.2-3-0.4-4.5-0.6c-0.2,0-0.4-0.1-0.7,0c0.2,0.2,0.3,0.4,0.5,0.6
		c0.6,0.4,1.2,0.7,1.9,1c1.6,0.8,3.2,1.7,4.8,2.5c0.9,0.4,1.9,0.7,2.8,1c0.4,0.2,0.8,0.4,1.2,0.6c-1.7-0.3-3.5-0.6-5.2-0.8
		c-2.6-0.4-5.3-0.7-8-0.2c-1.3,0.2-2.5,0.7-3.8,1.1c-0.2,0.1-0.5,0.2-0.8,0.2c1.5-1.2,3.4-1.8,5.1-2.5c-0.9-0.7-1.9-1.3-2.8-2
		c-0.7-0.5-1.4-0.6-2.2-0.4c-1.9,0.5-3.6,1.5-5.4,2.3c-2,0.9-4,1.7-6,2.5c-0.5,0.2-0.9,0.4-1.4,0.6c-0.1,0-0.4,0-0.5-0.1
		c-0.1-0.1,0-0.4,0-0.5c0.1-0.2,0.2-0.3,0.3-0.4c2-2.1,4-4.2,6-6.3c0,0,0.1-0.1,0.2-0.4c-0.9,0.2-1.6,0.2-2.3,0.4
		c-3.9,1-7.7,2.1-11.6,3.2c-0.2,0.1-0.5,0.1-0.8,0c0.2-0.2,0.3-0.4,0.5-0.6c2-2.1,4.4-3.4,7.1-4.3c1.2-0.4,2.4-1,3.6-1.5
		c0.7-0.3,1.1-0.8,1-1.6c0-0.5,0-1,0-1.5c0.1-1.7-0.5-3.2-1.4-4.6c-0.3-0.5-0.6-1.1-0.9-1.5c-0.8-1.2-1.1-2.4-0.6-3.7
		c0.5-1.5,0.2-2.6-0.9-3.7c-0.8-0.9-1.7-1.3-2.8-1.5c-1.3-0.2-2.4-0.6-3.3-1.6c-0.1-0.2-0.6-0.1-0.9-0.1c-1.2,0.1-2.4,0.4-3.6,0.5
		c-2.5,0.1-4.8-0.5-7.1-1.5c-0.8-0.4-1.5-0.6-2.4-0.5c-4.6,0.4-8.5-1-11.5-4.7c-0.7-0.8-1-1.9-1.4-2.9c0-0.5,0-1.1,0-1.6
		c0.9-3,3.4-4.3,6.1-5.4c3.6-1.5,7.4-2,11.2-2.3c0.2,0,0.4,0.1,0.6,0.2c-0.1,0-0.2,0.1-0.4,0.1c-3.9,0.8-7.9,1.7-11.5,3.5
		c-1.1,0.6-2.2,1.3-3.2,2.1c-1.2,1-1.4,2.4-0.9,3.9c0.9,2.5,2.9,3.8,5.2,4.8c2.5,1.1,5.1,1.2,7.8,0.9c0.8-0.1,1.5-0.2,2.3-0.3
		c0,0.1,0.1,0.1,0.1,0.2c-0.5,0.3-0.9,0.6-1.4,0.9c0,0.1,0,0.1,0,0.2c3.3,1.1,6.6,1.4,10.1,0.9c0-0.1,0.1-0.1,0.1-0.2
		c-0.4-0.3-0.8-0.6-1.2-0.8c-2.4-1.4-5-2.2-7.7-2.5c-1.4-0.1-2.6-0.7-3.4-1.9c-1.8,1.6-4.7,1-5.8-1.2c1.9,1.6,3.7,1.9,5.5,0.2
		c0.9,0.7,1.7,1.6,3,1.7c1.2,0,2.2-0.4,3.1-1.3c0.1,0.1,0.1,0.1,0.2,0.2c-0.5,0.6-1,1.3-1.4,1.9c3.1,0,5.9-0.9,7.3-2.3
		c-0.7-0.5-1.4-0.9-2.1-1.3c-0.2-0.1-0.5,0-0.7,0c-0.6,0.2-1.2,0.5-1.8,0.6c-1.6,0.4-3.4-0.7-3.8-2.2c1.8,0.3,3.4,0.9,5.2,0.5
		c1.8-0.5,3.1-1.6,4.6-2.6c-0.8,1.3-2,2.2-3.3,3.2c5.7,2.3,11,1.6,16.2-1.5c-0.1,0.2-0.3,0.4-0.4,0.6c-0.8,1-1.6,2-2.4,3
		c-1,1.2-1.2,2.5-0.8,3.9c0.2,0.6,0.3,1.2,0.4,1.8c0.1,0.5,0,0.8-0.5,0.7c-0.7-0.1-1.5-0.2-2.2-0.3c-0.9-0.2-1.8-0.4-2.7-0.5
		c-0.7-0.1-1.3-0.4-1.6-1.1c-0.4-1-0.9-2-1.4-2.9c-0.2-0.4-0.4-0.7-0.8-1c0.1,1.8,1.4,3.2,1.3,5.1c-1.6-1.3-3.1-2.6-5.3-2.6
		c0.6,0.3,1.2,0.6,1.7,1c0.7,0.5,1.4,0.9,1.8,1.6c0.9,1.7,2.4,2.2,4.1,2.2c1.1,0,1.9,0.3,2.5,1.2c0.1,0.1,0.2,0.2,0.3,0.4
		c1.4,1.3,1.7,2.8,1.3,4.6c-0.2,0.8,0,1.5,0.4,2.2c0.4,0.7,0.8,1.5,1.3,2.3c1,1.6,1.4,3.3,1.2,5.1c-0.1,0.8-0.2,1.6-0.2,2.5
		c0,0.8-0.4,1.3-1.1,1.6c-1.2,0.5-2.5,0.9-3.7,1.5c-1.2,0.5-2.4,1.2-3.5,1.8c-0.3,0.2-0.6,0.5-0.8,0.7c0,0.1,0.1,0.1,0.1,0.2
		c0.8-0.2,1.6-0.4,2.4-0.7c2.1-0.7,4.3-1.4,6.2-2.6c1.6-1,2-2.4,1.8-4.1c-0.1-0.8-0.2-1.7-0.3-2.5c0-0.4,0-0.8,0.1-1.1
		c0.5,1.5,1.1,2.8,1.4,4.3c0.3,1.6,0.4,3.2,0.5,4.8c0,0.2-0.2,0.5-0.4,0.7c-1.2,1.3-2.4,2.5-3.5,3.8c-0.2,0.2-0.4,0.5-0.6,0.7
		c0,0.1,0.1,0.1,0.1,0.2c0.5-0.1,1-0.2,1.4-0.4c1.3-0.7,2.6-1.5,3.8-2.3c1.7-1.2,3.6-1.8,5.7-1.9c0.2,0,0.5,0.1,0.6,0.3
		c0.7,0.6,1.3,1.2,2,1.9c0.8,0.8,1.6,1.3,2.8,1.3c1,0,2,0,3-0.1c-0.6-0.3-1.2-0.5-1.8-0.8c-0.9-0.3-1.5-0.9-2-1.6
		c-0.6-0.9-1.3-1.7-1.9-2.6c-0.5-0.6-0.9-1.3-0.5-2.2c0.2,0.2,0.4,0.3,0.4,0.4c0.8,2.1,2.3,3.3,4.5,3.4c1.1,0.1,2.2,0.2,3.2,0.3
		c0.1-0.1,0.1-0.2,0.2-0.2c0.3-1,0.5-1,1.4-0.6c0.3,0.1,0.5,0.3,0.8,0.4c0.5,0.3,0.9,0.3,1.4,0c0.4-0.3,0.7-0.2,1.1,0
		c0.9,0.5,1.8,0.9,2.7,1.3c0.5,0.2,1.2,0.3,1.7,0.4c0-0.1,0-0.1,0.1-0.2c-0.1-0.1-0.1-0.1-0.2-0.2c-3.3-1.9-6.7-3.3-10.6-3.3
		c-1.5,0-2.6-0.9-3.7-1.8c-0.4-0.4-0.8-0.8-1.3-1.2c-1.2-1-1.8-2.4-1.9-3.9c0-0.2,0-0.3,0-0.5c0.2-1.6-0.4-2.7-1.8-3.4
		c-0.3-0.2-0.5-0.6-0.7-0.9c-0.2-0.3-0.2-0.6-0.3-0.9c-0.3-1.2-0.8-2.2-1.7-3.1c-0.3-0.2-0.4-0.6-0.5-1c1,0.1,1.5,1.3,2.7,0.9
		c-0.1-0.8-1.3-0.7-1.2-1.6c1,0.3,2,0.6,2.9,0.8c0.7,0.2,1.3,0.1,1.7-0.5c1-1.3,2.1-2.6,3-4c1-1.5,2.3-2.7,4-3.4
		c0.1-0.1,0.2-0.1,0.5-0.3c-0.8-0.1-1.4,0-2-0.2c-0.3,0-0.7-0.3-0.7-0.5c-0.1-1.3,0.2-2.5,0.7-3.6c0.1,0,0.1,0,0.2,0
		c0,1.2,0,2.4,0,3.7c1.1-0.4,2-0.8,2.9-1.2c-0.2-0.8-0.4-1.6-0.6-2.3c0.1,0,0.2-0.1,0.2-0.1c0.3,0.2,0.6,0.4,0.8,0.7
		c0.7,0.6,1.3,1.3,2,1.9c1.4,1.2,3,1.2,4.9,0.5c-0.5-0.3-0.9-0.6-1.4-0.9c0.1-0.1,0.1-0.2,0.2-0.3c0.3,0.2,0.7,0.3,1,0.5
		c1.2,0.7,2.6,0.9,3.9,0.5c0.5-0.2,0.9-0.5,1.4-0.8c0.2-0.1,0.4-0.2,0.6-0.4c-0.1,1.3-1.2,2.3-2.6,2.3c-0.4,0-0.8,0-1.2-0.1
		c-1.3-0.3-2.6,0-3.8,0.3c-1,0.2-2,0.2-3,0c-0.5-0.1-1.1,0-1.6,0c0,0.1,0,0.2-0.1,0.3c0.2,0.2,0.4,0.4,0.6,0.5
		c2.1,1,4.4,1.6,6.7,1.6c2.2,0,4.5,0,6.7-0.1c1.6-0.1,3.1-0.6,4.5-1.5c0.9-0.6,1.4-1.9,0.9-3c-0.3-0.8-0.7-1.6-1.3-2.2
		c-1.4-1.6-3-3-5-4c1,0,2.5,0.8,4.4,2.5c1.3,1.1,2.3,2.4,2.8,4.1C233,171.5,233,172,233,172.4z M186.8,170.2c-1.8,0-3.6,0-5.4,0
		c0.6,1,1.1,1.8,1.7,2.7c0.2,0.4,0.5,0.4,0.9,0.2c0.7-0.4,1.4-0.9,2.2-1.3C186.7,171.4,187,170.9,186.8,170.2z M177.1,171.6
		c1.2,0.5,2.3,1,3.5,1.5c-0.4-1.1-0.8-2.1-1.2-3.2C178.6,170.6,177.9,171,177.1,171.6z M185.4,174c0,0.1,0,0.1,0.1,0.2
		c0.6,0.2,1.2,0.5,1.7,0.2c0.2-0.1,0-0.8,0-1.3c0,0,0-0.1-0.1-0.2C186.5,173.3,186,173.7,185.4,174z"/>
	<path d="M194.4,135.2c1.3,0.4,2.6,0.7,3.7,1.3c1.4,0.7,2.5,1.7,2.7,3.4c0.1,0.6-0.1,1.3-0.3,1.9c-0.2,0.5-0.6,0.8-1.2,0.7
		c0.2-0.5,0.4-1,0.6-1.5c0.6-1.4,0.3-2.5-1-3.4c-1.2-0.8-2.6-1.1-4-1.3c-3.8-0.5-7.4,0-10.7,1.9c-1.2,0.7-2.3,1.6-3.4,2.3
		c-0.5,0.3-1,0.5-1.6,0.6c0.2-1.2,1.1-1.9,1.9-2.6c2.3-1.7,4.8-2.9,7.7-3.1c0.1,0,0.2-0.1,0.4-0.1
		C190.9,135.2,192.7,135.2,194.4,135.2z"/>
	<path d="M185.3,208.3c0.1-0.2,0.2-0.4,0.4-0.6c1.4-1.1,3-1.6,4.8-1.5c0.3,0,0.7,0.2,1.1,0.3c-2.1,0.6-4,1.2-5.9,1.8
		C185.5,208.3,185.4,208.3,185.3,208.3z"/>
	<path d="M164.5,158.1c-1.1,0.2-1.7-0.2-2.2-1c-0.9-1.5-0.7-3.4,0.6-5c1.4-1.8,3.3-2.8,5.4-3.4c2.1-0.6,4.2-1,6.3-1.4
		c0,0-0.2-0.2-0.4-0.3c-1.8-1.3-1.8-3.3-0.1-4.7c1.4-1.1,2.9-1.5,4.6-1.6c0,0.1,0.1,0.1,0.1,0.2c-0.2,0.1-0.4,0.2-0.6,0.3
		c-1.1,0.5-2.2,0.9-3.1,1.5c-1.5,1-1.4,2.4,0.1,3.4c0.4,0.3,0.9,0.5,1.4,0.8c0.2,0.1,0.4,0.2,0.6,0.4c0,0.1,0,0.1,0,0.2
		c-0.6,0.1-1.2,0.2-1.8,0.3c-2.4,0.4-4.7,0.8-6.9,1.8c-1.5,0.6-2.8,1.7-3.9,2.9c-1.1,1.4-1.2,3.6-0.3,5.1
		C164.4,157.8,164.4,157.9,164.5,158.1z"/>
	<path d="M204.5,164.4c1.3,0.5,2.6,1.1,3.9,1.5c2.9,0.8,5.8,0.4,8.3-1.3c0.3-0.2,0.3-0.7,0.5-1.2c0.3,0.1,0.8,0.2,1.3,0.3
		c1.1,0.1,2.1,0.1,3.2,0c1.3-0.1,2.1-1.1,2.6-2.2c0.4-0.8,0.1-1.5-0.3-2.1c-0.6-1.1-1.5-2-2.6-2.6c-0.4-0.2-0.7-0.4-1-0.8
		c0.2,0,0.4,0,0.6,0.1c1.1,0.4,2.1,1,3,1.8c2.2,1.9,2.1,6-1.8,7.1c-1.2,0.3-2.5,0.4-3.6-0.1c-0.5-0.2-0.9-0.1-1.3,0.2
		c-2.7,2.2-5.8,2.8-9.2,2.1c-1.2-0.2-2.2-0.8-3-1.8c-0.2-0.3-0.3-0.6-0.5-0.9C204.4,164.5,204.5,164.5,204.5,164.4z"/>
	<path d="M193.6,162.9c2.4,1.2,4,0.1,5.3-1.8c0.1,0.8-0.6,1.9-1.4,2.5c-0.3,0.2-0.5,0.3-0.8,0.5c-0.7,0.4-0.8,0.6-0.5,1.4
		c0.9,2.1,2.4,3.3,4.6,3.8c1.3,0.3,2.6,0.3,3.9-0.1c0.2-0.1,0.4-0.1,0.7,0c-0.6,0.7-1.4,1-2.3,1.2c-0.8,0.1-1.6,0.1-2.3,0.1
		c-1,0-1.9,0.2-2.7,0.9c-0.3,0.3-0.7,0.4-1.2,0.7c0-1.2,0-2.2,0-3.2c-1.1-0.2-1.2-0.1-1.6,0.8c-0.2,0.4-0.4,0.8-0.7,1.2
		c-0.3,0.4-0.5,0.4-0.8,0c-0.6-1-0.9-2-0.9-3.2c0.3,0.6,0.7,1.2,1,1.8c0.1,0,0.1,0,0.2,0c0.4-1.3,0.9-2.6,1.3-4
		c0.2-0.6-0.2-1.2-0.8-1.5c-0.4-0.2-0.7-0.5-1.1-0.8C193.6,163.1,193.6,163,193.6,162.9z"/>
	<path d="M201.8,141.5c0.6-0.1,1.3-0.3,1.9-0.3c3.8,0,7.5,0.8,10.7,3c2,1.4,3.7,3.1,5,5.2c0.9,1.5,1,3.2,0.6,5
		c-0.2,0.8-0.6,1.1-1.3,1.1c0.1-0.5,0.1-0.9,0.2-1.4c0.3-2.3-0.8-4-2-5.7c-2.6-3.4-6.1-5.3-10.2-6c-1.6-0.3-3.2-0.4-4.7-0.6
		C201.8,141.6,201.8,141.6,201.8,141.5z"/>
	<path d="M199.9,171.4c0.4,0.4,0.8,0.9,1.2,1.3c0.9,0.9,2,1.1,3.2,1.1c0.6,0,1-0.3,1.2-0.8c0.6-1.4,1.1-2.8,1.7-4.2
		c0.1-0.2,0.2-0.5,0.2-0.7c0.1,0,0.1,0,0.2,0c0,0.4,0,0.7,0,1.1c-0.3,3.1-1.6,5.7-3.9,7.7c-0.9,0.8-2,1-3.2,0.9
		c0-0.1-0.1-0.1-0.1-0.2c1.1-0.7,2.2-1.5,3.4-2.2c0-0.1,0-0.2,0-0.2c-2,0.2-3.6-0.4-4.3-2.4c-0.7,0.9-0.8,1.9-0.4,2.7
		c0.2,0.4,0.5,0.7,0.7,1.1c0.1,0.2,0.2,0.5,0.1,0.6c-0.2,0.1-0.4,0.2-0.7,0.2c-1-0.1-1.8-1.3-1.6-2.3
		C197.9,173.4,198.9,172.4,199.9,171.4z"/>
	<path d="M199.4,150.1c0,0.1,0,0.3,0,0.4c-0.2,1-1.8,2.6-2.8,2.6c-1.4,0-2.7,0.2-4,0.6c-1.5,0.4-3.7-1-4.1-2.5
		c-0.2-0.7,0-1.3,0.6-1.9c0,0.2,0,0.4,0,0.6c0.1,2.1,1.9,3.3,3.9,2.7c0.3-0.1,0.6-0.3,0.9-0.3c0.4-0.1,0.8-0.1,1.1,0
		c1.6,0.5,2.8,0.2,3.7-1.3c0.2-0.3,0.4-0.6,0.6-0.9C199.3,150.1,199.4,150.1,199.4,150.1z"/>
	<path d="M172.5,155.7c0.3,0.2,0.6,0.4,0.9,0.5c0.8,0.4,1.5,1,2.4,1.3c1.4,0.5,2.6,0.1,3.5-1.1c0.2-0.2,0.4-0.4,0.6-0.7
		c-0.1,1.6-1.6,2.8-3.4,3C174.8,158.8,172.8,157.4,172.5,155.7z"/>
	<path d="M190.5,173c0.6,1.6,1,3.1,0.6,4.7c-0.3,1.1-0.2,2.2,0.5,3.3c0.1,0.1,0.1,0.3,0.2,0.4c0,0.1,0,0.2,0,0.3
		c-1.1-0.4-2-1.8-1.6-2.8c0.6-1.7,0.5-3.3,0.3-5c0-0.2,0-0.4,0-0.5C190.3,173.2,190.4,173.2,190.5,173z"/>
	<path d="M189.3,185c0.3,0.5,0.7,1.1,1,1.7c0.3-0.8-0.3-1.9-1.1-2.5c-0.2,0.2-0.4,0.5-0.6,0.8c-0.2-0.5-0.2-0.9,0.2-1.3
		c0.4-0.3,0.8-0.2,1,0.2c0.5,0.8,1.1,1.7,1.5,2.6c0.1,0.2-0.1,0.8-0.3,0.9c-0.3,0.1-0.8,0.1-1-0.1c-0.7-0.6-1.1-1.3-1-2.2
		C189.2,185.1,189.3,185,189.3,185z"/>
	<path d="M201.6,189.7c-0.2-0.4-0.3-0.7-0.4-0.9c-0.3,0.7-0.1,1.4,0.1,2c0.2,0.7,0.4,1.3,0.6,2c0.2,0.7,0.4,1.4,0.4,2.1
		c-0.1-0.2-0.3-0.4-0.4-0.6c-0.5-1.6-1.1-3.1-1.6-4.7c-0.1-0.3-0.1-0.8,0-1.1c0.1-0.6,0.6-0.7,1-0.3
		C201.7,188.5,201.9,189,201.6,189.7z"/>
	<path d="M160.7,154.3c-1.3,1.3-1.7,2.5-0.2,3.8c-1.2,0.1-2.1-0.6-2.2-1.6C158.2,155.5,159.2,154.5,160.7,154.3z"/>
	<path d="M193.3,201.7c0.8-1.9,1.5-3.7,2.3-5.6C196.3,197.4,194.7,201.2,193.3,201.7z"/>
	<path d="M178.6,158.1c2,1.1,3.6,0.9,4.8-1c0,1.2-1.1,2.2-2.5,2.4C179.9,159.7,179,159.2,178.6,158.1z"/>
	<path d="M191.9,185.2c1.1,0.8,1.3,2.7,0.5,3.5C192.2,187.5,192,186.3,191.9,185.2z"/>
	<path d="M165.8,205.8c1.1-1,2.4-1.4,3.8-1.6c0.7-0.1,1.3-0.3,1.8-0.9c0.2-0.3,0.4-0.4,0.7-0.2c0.8,0.5,1.6,0.5,2.5,0.2
		c0.3-0.1,0.7-0.1,1-0.2c0,0.1,0.1,0.1,0.1,0.2c-0.2,0.2-0.3,0.4-0.6,0.5c-0.4,0.2-0.9,0.5-1.4,0.5c-1.6-0.1-3.1,0.7-4.7,0.7
		C168,205.2,166.9,205.5,165.8,205.8z"/>
	<path d="M209.7,176.6c0.3,0.1,0.6,0.2,0.8,0.3c0.7,0.3,1.4,0.6,2.1,0.9c0.9,0.4,1.7,0.2,2.5-0.5c0.2,0.6-0.2,0.8-0.5,1
		c-0.7,0.4-1.4,0.6-2.2,0.4c-1.2-0.3-2.2-0.8-2.8-1.9C209.6,176.8,209.7,176.7,209.7,176.6z"/>
	<path d="M230,204.6c-1.5-0.3-2.9-0.6-4.5-0.9c0.2-0.6,0.5-1,0.9-0.8c1.2,0.4,2.4,1,3.6,1.5C230.1,204.4,230.1,204.5,230,204.6z"/>
	<path fill="#FFFFFF" d="M186.8,170.2c0.2,0.7,0,1.2-0.7,1.6c-0.7,0.4-1.5,0.8-2.2,1.3c-0.4,0.2-0.7,0.2-0.9-0.2
		c-0.5-0.9-1.1-1.7-1.7-2.7C183.2,170.2,185,170.2,186.8,170.2z"/>
	<path fill="#FFFFFF" d="M177.1,171.6c0.8-0.6,1.5-1.1,2.4-1.6c0.4,1.1,0.8,2.1,1.2,3.2C179.4,172.6,178.3,172.1,177.1,171.6z"/>
	<path fill="#FFFFFF" d="M185.4,174c0.5-0.4,1.1-0.7,1.6-1.1c0.1,0.1,0.1,0.2,0.1,0.2c0,0.4,0.2,1.2,0,1.3c-0.5,0.3-1.2,0-1.7-0.2
		C185.5,174.2,185.4,174.1,185.4,174z"/>
	<path d="M232.9,172.6c-0.8,2.5-3,3.3-5.3,4c-3.6,1-7.2,0.9-10.8,0.3c-1.9-0.3-3.5-1.2-5-2.4c-0.6-0.5-1.2-0.6-1.9-0.1
		c-1.7,1-3,2.2-3.7,4c-0.6,1.5-1.6,2.6-2.8,3.6c-0.4,0.3-1,0.3-1.5,0.4c-1.3,0.2-1.8,0.7-1.9,2c0,1.1,0.3,2.2,1.3,2.8
		c0.7,0.4,1,1.1,1.2,1.8c0.2,0.8,0.4,1.6,0.5,2.4c0.2,1.2,0.9,2,1.9,2.7c0.6,0.5,1.1,1.1,1.7,1.5c0.4,0.3,0.8,0.6,1.3,0.7
		c2,0.5,4,0.8,6,1.4c1.2,0.3,2.3,0.8,3.4,1.4c1.6,0.8,3,1.7,4.6,2.6c0.3,0.2,0.8,0.2,1.1,0.4c0.2,0.1,0.5,0.2,0.7,0.4
		c0,0.1-0.1,0.1-0.1,0.2c-0.8-0.1-1.6-0.1-2.4-0.2c-2.1-0.2-4.2-0.6-6.2-1.3c-0.5-0.2-1-0.3-1.6,0c-0.3,0.1-0.7-0.1-1-0.2
		c-0.3-0.1-0.6-0.4-1.1-0.6c0.2,1-0.4,1.1-1,1c-1.5-0.2-3-0.4-4.5-0.6c-0.2,0-0.4-0.1-0.7,0c0.2,0.2,0.3,0.4,0.5,0.6
		c0.6,0.4,1.2,0.7,1.9,1c1.6,0.8,3.2,1.7,4.8,2.5c0.9,0.4,1.9,0.7,2.8,1c0.4,0.2,0.8,0.4,1.2,0.6c-1.7-0.3-3.5-0.6-5.2-0.8
		c-2.6-0.4-5.3-0.7-8-0.2c-1.3,0.2-2.5,0.7-3.8,1.1c-0.2,0.1-0.5,0.2-0.8,0.2c1.5-1.2,3.4-1.8,5.1-2.5c-0.9-0.7-1.9-1.3-2.8-2
		c-0.7-0.5-1.4-0.6-2.2-0.4c-1.9,0.5-3.6,1.5-5.4,2.3c-2,0.9-4,1.7-6,2.5c-0.5,0.2-0.9,0.4-1.4,0.6c-0.1,0-0.4,0-0.5-0.1
		c-0.1-0.1,0-0.4,0-0.5c0.1-0.2,0.2-0.3,0.3-0.4c2-2.1,4-4.2,6-6.3c0,0,0.1-0.1,0.2-0.4c-0.9,0.2-1.6,0.2-2.3,0.4
		c-3.9,1-7.7,2.1-11.6,3.2c-0.2,0.1-0.5,0.1-0.8,0c0.2-0.2,0.3-0.4,0.5-0.6c2-2.1,4.4-3.4,7.1-4.3c1.2-0.4,2.4-1,3.6-1.5
		c0.7-0.3,1.1-0.8,1-1.6c0-0.5,0-1,0-1.5c0.1-1.7-0.5-3.2-1.4-4.6c-0.3-0.5-0.6-1.1-0.9-1.5c-0.8-1.2-1.1-2.4-0.6-3.7
		c0.5-1.5,0.2-2.6-0.9-3.7c-0.8-0.9-1.7-1.3-2.8-1.5c-1.3-0.2-2.4-0.6-3.3-1.6c-0.1-0.2-0.6-0.1-0.9-0.1c-1.2,0.1-2.4,0.4-3.6,0.5
		c-2.5,0.1-4.8-0.5-7.1-1.5c-0.8-0.4-1.5-0.6-2.4-0.5c-4.6,0.4-8.5-1-11.5-4.7c-0.7-0.8-1-1.9-1.4-2.9c0-0.5,0-1.1,0-1.6
		c0.9-3,3.4-4.3,6.1-5.4c3.6-1.5,7.4-2,11.2-2.3c0.2,0,0.4,0.1,0.6,0.2c-0.1,0-0.2,0.1-0.4,0.1c-3.9,0.8-7.9,1.7-11.5,3.5
		c-1.1,0.6-2.2,1.3-3.2,2.1c-1.2,1-1.4,2.4-0.9,3.9c0.9,2.5,2.9,3.8,5.2,4.8c2.5,1.1,5.1,1.2,7.8,0.9c0.8-0.1,1.5-0.2,2.3-0.3
		c0,0.1,0.1,0.1,0.1,0.2c-0.5,0.3-0.9,0.6-1.4,0.9c0,0.1,0,0.1,0,0.2c3.3,1.1,6.6,1.4,10.1,0.9c0-0.1,0.1-0.1,0.1-0.2
		c-0.4-0.3-0.8-0.6-1.2-0.8c-2.4-1.4-5-2.2-7.7-2.5c-1.4-0.1-2.6-0.7-3.4-1.9c-1.8,1.6-4.7,1-5.8-1.2c1.9,1.6,3.7,1.9,5.5,0.2
		c0.9,0.7,1.7,1.6,3,1.7c1.2,0,2.2-0.4,3.1-1.3c0.1,0.1,0.1,0.1,0.2,0.2c-0.5,0.6-1,1.3-1.4,1.9c3.1,0,5.9-0.9,7.3-2.3
		c-0.7-0.5-1.4-0.9-2.1-1.3c-0.2-0.1-0.5,0-0.7,0c-0.6,0.2-1.2,0.5-1.8,0.6c-1.6,0.4-3.4-0.7-3.8-2.2c1.8,0.3,3.4,0.9,5.2,0.5
		c1.8-0.5,3.1-1.6,4.6-2.6c-0.8,1.3-2,2.2-3.3,3.2c5.7,2.3,11,1.6,16.2-1.5c-0.1,0.2-0.3,0.4-0.4,0.6c-0.8,1-1.6,2-2.4,3
		c-1,1.2-1.2,2.5-0.8,3.9c0.2,0.6,0.3,1.2,0.4,1.8c0.1,0.5,0,0.8-0.5,0.7c-0.7-0.1-1.5-0.2-2.2-0.3c-0.9-0.2-1.8-0.4-2.7-0.5
		c-0.7-0.1-1.3-0.4-1.6-1.1c-0.4-1-0.9-2-1.4-2.9c-0.2-0.4-0.4-0.7-0.8-1c0.1,1.8,1.4,3.2,1.3,5.1c-1.6-1.3-3.1-2.6-5.3-2.6
		c0.6,0.3,1.2,0.6,1.7,1c0.7,0.5,1.4,0.9,1.8,1.6c0.9,1.7,2.4,2.2,4.1,2.2c1.1,0,1.9,0.3,2.5,1.2c0.1,0.1,0.2,0.2,0.3,0.4
		c1.4,1.3,1.7,2.8,1.3,4.6c-0.2,0.8,0,1.5,0.4,2.2c0.4,0.7,0.8,1.5,1.3,2.3c1,1.6,1.4,3.3,1.2,5.1c-0.1,0.8-0.2,1.6-0.2,2.5
		c0,0.8-0.4,1.3-1.1,1.6c-1.2,0.5-2.5,0.9-3.7,1.5c-1.2,0.5-2.4,1.2-3.5,1.8c-0.3,0.2-0.6,0.5-0.8,0.7c0,0.1,0.1,0.1,0.1,0.2
		c0.8-0.2,1.6-0.4,2.4-0.7c2.1-0.7,4.3-1.4,6.2-2.6c1.6-1,2-2.4,1.8-4.1c-0.1-0.8-0.2-1.7-0.3-2.5c0-0.4,0-0.8,0.1-1.1
		c0.5,1.5,1.1,2.8,1.4,4.3c0.3,1.6,0.4,3.2,0.5,4.8c0,0.2-0.2,0.5-0.4,0.7c-1.2,1.3-2.4,2.5-3.5,3.8c-0.2,0.2-0.4,0.5-0.6,0.7
		c0,0.1,0.1,0.1,0.1,0.2c0.5-0.1,1-0.2,1.4-0.4c1.3-0.7,2.6-1.5,3.8-2.3c1.7-1.2,3.6-1.8,5.7-1.9c0.2,0,0.5,0.1,0.6,0.3
		c0.7,0.6,1.3,1.2,2,1.9c0.8,0.8,1.6,1.3,2.8,1.3c1,0,2,0,3-0.1c-0.6-0.3-1.2-0.5-1.8-0.8c-0.9-0.3-1.5-0.9-2-1.6
		c-0.6-0.9-1.3-1.7-1.9-2.6c-0.5-0.6-0.9-1.3-0.5-2.2c0.2,0.2,0.4,0.3,0.4,0.4c0.8,2.1,2.3,3.3,4.5,3.4c1.1,0.1,2.2,0.2,3.2,0.3
		c0.1-0.1,0.1-0.2,0.2-0.2c0.3-1,0.5-1,1.4-0.6c0.3,0.1,0.5,0.3,0.8,0.4c0.5,0.3,0.9,0.3,1.4,0c0.4-0.3,0.7-0.2,1.1,0
		c0.9,0.5,1.8,0.9,2.7,1.3c0.5,0.2,1.2,0.3,1.7,0.4c0-0.1,0-0.1,0.1-0.2c-0.1-0.1-0.1-0.1-0.2-0.2c-3.3-1.9-6.7-3.3-10.6-3.3
		c-1.5,0-2.6-0.9-3.7-1.8c-0.4-0.4-0.8-0.8-1.3-1.2c-1.2-1-1.8-2.4-1.9-3.9c0-0.2,0-0.3,0-0.5c0.2-1.6-0.4-2.7-1.8-3.4
		c-0.3-0.2-0.5-0.6-0.7-0.9c-0.2-0.3-0.2-0.6-0.3-0.9c-0.3-1.2-0.8-2.2-1.7-3.1c-0.3-0.2-0.4-0.6-0.5-1c1,0.1,1.5,1.3,2.7,0.9
		c-0.1-0.8-1.3-0.7-1.2-1.6c1,0.3,2,0.6,2.9,0.8c0.7,0.2,1.3,0.1,1.7-0.5c1-1.3,2.1-2.6,3-4c1-1.5,2.3-2.7,4-3.4
		c0.1-0.1,0.2-0.1,0.5-0.3c-0.8-0.1-1.4,0-2-0.2c-0.3,0-0.7-0.3-0.7-0.5c-0.1-1.3,0.2-2.5,0.7-3.6c0.1,0,0.1,0,0.2,0
		c0,1.2,0,2.4,0,3.7c1.1-0.4,2-0.8,2.9-1.2c-0.2-0.8-0.4-1.6-0.6-2.3c0.1,0,0.2-0.1,0.2-0.1c0.3,0.2,0.6,0.4,0.8,0.7
		c0.7,0.6,1.3,1.3,2,1.9c1.4,1.2,3,1.2,4.9,0.5c-0.5-0.3-0.9-0.6-1.4-0.9c0.1-0.1,0.1-0.2,0.2-0.3c0.3,0.2,0.7,0.3,1,0.5
		c1.2,0.7,2.6,0.9,3.9,0.5c0.5-0.2,0.9-0.5,1.4-0.8c0.2-0.1,0.4-0.2,0.6-0.4c-0.1,1.3-1.2,2.3-2.6,2.3c-0.4,0-0.8,0-1.2-0.1
		c-1.3-0.3-2.6,0-3.8,0.3c-1,0.2-2,0.2-3,0c-0.5-0.1-1.1,0-1.6,0c0,0.1,0,0.2-0.1,0.3c0.2,0.2,0.4,0.4,0.6,0.5
		c2.1,1,4.4,1.6,6.7,1.6c2.2,0,4.5,0,6.7-0.1c1.6-0.1,3.1-0.6,4.5-1.5c0.9-0.6,1.4-1.9,0.9-3c-0.3-0.8-0.7-1.6-1.3-2.2
		c-1.4-1.6-3-3-5-4c1,0,2.5,0.8,4.4,2.5c1.3,1.1,2.3,2.4,2.8,4.1C232.9,171.7,232.9,172.2,232.9,172.6z M186.7,170.4
		c-1.8,0-3.6,0-5.4,0c0.6,1,1.1,1.8,1.7,2.7c0.2,0.4,0.5,0.4,0.9,0.2c0.7-0.4,1.4-0.9,2.2-1.3C186.7,171.6,186.9,171.1,186.7,170.4z
		 M177,171.8c1.2,0.5,2.3,1,3.5,1.5c-0.4-1.1-0.8-2.1-1.2-3.2C178.5,170.7,177.8,171.2,177,171.8z M185.3,174.2c0,0.1,0,0.1,0.1,0.2
		c0.6,0.2,1.2,0.5,1.7,0.2c0.2-0.1,0-0.8,0-1.3c0,0,0-0.1-0.1-0.2C186.4,173.5,185.9,173.8,185.3,174.2z"/>
	<path d="M204.5,164.6c1.3,0.5,2.6,1.1,3.9,1.5c2.9,0.8,5.8,0.4,8.3-1.3c0.3-0.2,0.3-0.7,0.5-1.2c0.3,0.1,0.8,0.2,1.3,0.3
		c1.1,0.1,2.1,0.1,3.2,0c1.3-0.1,2.1-1.1,2.6-2.2c0.4-0.8,0.1-1.5-0.3-2.1c-0.6-1.1-1.5-2-2.6-2.6c-0.4-0.2-0.7-0.4-1-0.8
		c0.2,0,0.4,0,0.6,0.1c1.1,0.4,2.1,1,3,1.8c2.2,1.9,2.1,6-1.8,7.1c-1.2,0.3-2.5,0.4-3.6-0.1c-0.5-0.2-0.9-0.1-1.3,0.2
		c-2.7,2.2-5.8,2.8-9.2,2.1c-1.2-0.2-2.2-0.8-3-1.8c-0.2-0.3-0.3-0.6-0.5-0.9C204.3,164.7,204.4,164.6,204.5,164.6z"/>
</g>
</svg>
