<?xml version="1.0" encoding="utf-8"?>
<!-- Generator: Adobe Illustrator 17.1.0, SVG Export Plug-In . SVG Version: 6.00 Build 0)  -->
<!DOCTYPE svg PUBLIC "-//W3C//DTD SVG 1.1//EN" "http://www.w3.org/Graphics/SVG/1.1/DTD/svg11.dtd">
<svg version="1.1" id="Layer_1" xmlns="http://www.w3.org/2000/svg" xmlns:xlink="http://www.w3.org/1999/xlink" x="0px" y="0px"
	 viewBox="0 0 288 216" enable-background="new 0 0 288 216" xml:space="preserve">
<g>
	<path d="M171.3,12c-2.3-1.3-4.1,0.7-6.2,0.5c0.6-0.4,1.2-0.7,1.8-1.1c-2.4,0.4-4.7,0.9-6.8,1.9c-2.6,1.2-5.2,2.6-7.5,4.3
		c-2.3,1.7-5.7,2.9-4.8,7c0,0.2-0.2,0.4-0.4,0.8c-0.4-0.6-0.8-1.1-1.2-1.6c-0.7,2.1-2.3,2.9-4.7,2.1c1.3-0.4,2.2-0.7,3.2-1.1
		c-0.9-1.1-1.9-1.6-3.3-1.1c-1,0.4-2.1,1-3,0.9c-1.5-0.2-2.6,0.4-3.9,0.7c-2.1,0.6-4.5,0.7-6.4,1.7c-2.1,1-5.1-0.6-6.3,2.5
		c0,0.1-0.2,0.1-0.4,0.1c-2.1,0.9-4.2,1.7-6.3,2.6c-0.4,0.2-0.9,0.5-0.9,0.8c0.1,0.4,0.4,1,0.7,1.2c2.6,1.4,5.2,2.7,7.9,3.9
		c2.2,1,4.6,1.5,6.8,2.5c2,0.9,3.8,2.5,5.8,3.4c3.7,1.7,6.6,4.1,7,8.4c0.1,1.3,0.2,2.8-0.2,4.1c-0.6,2-1.5,3.8-2.4,5.7
		c-0.1,0.2-1.1,0.4-1.4,0.1c-1.5-1-2.8-2.2-4.3-3.4c-0.5,0.8-0.7,1.4-1.1,1.6c-0.7,0.4-1.8,1-2.4,0.7c-1.6-0.7-3-1.9-4.5-2.9
		c-0.1,0.1-0.2,0.4-0.3,0.6c-1.6,3.4-3.1,3.9-6.2,1.8c-0.3-0.2-0.6-0.3-0.8-0.5c-1.5-1.5-2.7-1.3-4.1,0.3c-1.8,2.1-2.8,2.1-4.7,0.1
		c-0.5-0.5-1-1.5-0.8-2c0.3-0.6,1.3-0.9,2-1.4c0.3-0.2,0.6-0.4,1-0.5c1.3-0.3,0.8-1.7,1.3-2.2c0.8,0.7,1.6,1.2,2.2,1.9
		c1.7,2.2,2.4,2.4,4.6,0.7c0.5-0.3,0.9-0.7,1.5-1.2c0.3,0.7,0.5,1.3,0.7,1.9c0.1,0,0.3,0,0.4,0v-3.8c0.2-0.1,0.4-0.2,0.7-0.3
		c0.9,0.9,1.8,1.7,2.6,2.7c1.5,1.8,2.9,1.9,4.2-0.1c0.6-0.9,1.1-1.9,1.6-2.9c1.6,0.3,2,1.5,2.4,2.9c0.6,2.3,2.4,2.8,4,1.4
		c0.8-0.7,1.7-1.3,2.8-2.2c-0.5-0.8-1.2-1.8-1.8-2.9c-0.7,1.4-0.8,2.5-1.2,3.5c-0.2,0.6-1,0.9-1.6,1.3c-0.1,0.1-0.6-0.4-0.8-0.7
		c-1-1.8-2-3.6-3-5.6c0.3-0.6,0.8-1.5,1.5-2.6c1.2,0.8,2.4,1.6,3.6,2.3c0.5,0.2,1.4,0.3,1.7,0c0.4-0.4,0.4-1.2,0.5-1.8
		c-0.2,0-0.3-0.1-0.5-0.1c-0.4,0.4-0.9,0.8-1.3,1.1c-2.5-1.5-4.9-3-7.3-4.5c0.7,1.8,2.8,3.1,0.6,5c-2.7-0.9-3.9-4.6-7.4-3.5
		c-0.1,0.8,0,1.6-0.3,2.1c-0.6,0.7-1.7,1.9-2.2,1.7c-1.7-0.7-3.6-1.4-4-4.1c1-0.3,2.1-0.6,3.2-0.9c-0.1-0.3-0.3-1-0.6-2.1
		c1.1,0.8,1.8,1.4,2.5,1.8c1.8,0.9,3.8-0.3,3.4-1.9c-0.9,0.4-2,1.2-2.8,1.1c-0.9-0.2-1.7-1.3-2.7-2.1c-0.6,0.8-1.1,1.5-1.6,2.2
		c-1,1.3-2.1,1.2-3-0.2c-0.4-0.7-0.9-1.3-1.3-1.9c-0.2,0.1-0.4,0.3-0.6,0.4c1.3,2.3,2.6,4.7,3.9,7c0.1,0.2,0.5,0.4,0.8,0.5
		c1.7,0.3,2.6,1.5,2.1,3c-0.5,1.4-1.7,2.5-2.8,3.6c-0.2,0.2-1.2-0.2-1.6-0.6c-0.9-1-1.7-2.2-2.5-3.3c-0.7-0.9-1.1-0.8-1.8,0.1
		c-0.9,1.2-1.8,2.3-2.9,3.4c-0.4,0.3-1.5,0.5-1.7,0.2c-1-1.1-1.9-2.4-2.8-3.8c-0.2-0.3,0.1-1.1,0.4-1.3c0.8-0.6,1.8-1,2.7-1.5
		c0.2,0.7,0.3,1.2,0.5,1.7c0.1,0,0.2,0,0.3,0v-5.4l0-0.1c-0.6,1-1.1,2-1.8,2.9c-0.6,0.6-1.5,1-2.2,1.4c-0.5-0.9-1.1-1.8-1.3-2.7
		c-0.1-0.7,0.2-1.8,0.8-2.3c0.9-0.7,2.2-1.1,3.5-1.7c-0.6-0.7-1-1.4-1.6-2.1c-1.3,1.4-2.4,2.6-3.5,3.8c-0.2,0-0.5-0.1-0.7-0.1
		c-0.2-1.4-0.4-2.9-0.7-4.4c-1.9,1.3-2.4,4.4-5.2,4.8c-1.5-2.9,1.9-7.8,6.2-8.3c-0.9,0.7-1.8,1.3-2.8,2c0.1,0.1,0.2,0.3,0.3,0.4
		c0.9-0.2,1.9-0.4,3.2-0.7c0.1,0.9,0.2,1.9,0.2,2.9c2-1.8,4-4.1,7.1-1.6c0.3,0.3,1.3-0.1,2-0.4c0.2-0.1,0.1-0.8,0.2-1.6
		c-0.9,0.6-1.5,0.9-2,1.2c-3.4-2.7-3.5-2.8-1.9-5.1h-3.4c2-2.4,4.7-1.5,7.6-1.1c-1.3-2.1-2.7-1.7-4.1-1.5c-1.2,0.2-3,0.7-3.6,0.1
		c-1.8-1.9-3.2-0.7-4.7,0c-4.5,2-8.3,5.3-13.1,6.6c-4,1.1-8,2.6-12,3.9c0.1,0.4,0.3,0.9,0.6,1.9c-1.9-0.2-3.4-0.3-5.2-0.5
		c-1.2,2.2-3,2.3-5.6-0.3c0.2,0.8,0.4,1.4,0.6,2c-0.1,0.1-0.3,0.2-0.4,0.3c-0.6-0.6-1.1-1.1-1.9-1.9c0.1,0.7,0.1,1.2,0.2,2.2
		c-1-0.7-1.6-1-2.2-1.4c-0.1,0.5-0.2,1-0.3,1.5C61.3,47,61.1,47,61,47.1c-0.3-0.5-0.5-1-0.9-1.8c-0.3,1-0.4,1.5-0.6,2.2
		c-0.6-0.5-1.1-0.8-1.5-1.1c-0.9,3.4-1.8-0.1-2.9-0.1c0.1,0.6,0.1,1.2,0.2,1.7c-0.3,0.1-0.6,0.2-0.7,0.2c-1.5-1.8-3.1,0.2-4.8-0.2
		c-1.3-0.3-2.9,0.8-4.4,1.4c-0.6,0.2-1,0.8-1.5,1c-0.8,0.3-1.8,0.2-2.3,0.7c-1.4,1.3-2.6,1.7-3.9,0.3c-1.1,0.7-2.1,1.3-3,1.9
		c0,0.4,0,1.2-0.1,1.2c-0.6,0.2-1.2,0.1-1.6,0.1c-0.2,0.6-0.2,1.5-0.5,1.7c-0.5,0.2-1.2-0.1-1.9-0.2c1,2.1-0.2,1.9-1.6,1.2
		c0.2,0.6,0.4,1,0.7,1.7c-0.8-0.2-1.3-0.3-1.7-0.4c-0.2,0.7-0.2,1.8-0.5,2c-0.7,0.3-1.6,0.1-2.2,0.1c0.1,0.5,0.2,1.2,0.4,1.9
		c-0.7-0.2-1.3-0.4-1.7-0.5c-0.1,0.6-0.2,1.9-0.3,1.9c2.1-0.1-4.9,5.5-9.7,9.5c0.2,0.4,0.4,0.9,0.5,1.4c3.6-3.3,10.5-10.4,12.4-11.7
		c-0.2,1-0.3,1.6-0.4,2.2c-1.2-0.3-7.9,7.1-11.9,11.4c-0.1,0.7-0.3,1.4-0.6,2c1,1.7,2,1.7,3.8,0c0.6-0.5,1-1.2,1.5-1.8
		c1-1.1,9.6-11.2,10.7-12.2c2-1.9,4.3-3.5,6.2-5.4c4.3-4,9.3-6.8,14.8-8.2c7.1-1.8,14.4-3,21.6-4.4c5-1,10.2-1.1,14.7-3.7
		c0.8-0.4,1.6-0.7,2.8-1.2c-0.4,0.6-0.4,0.9-0.6,1c-2.1,1.4-4.3,2.6-6.2,4.3c-1.6,1.4-3.3,2.8-3.5,5.2c0,0.5-0.5,1-0.9,1.5
		c-2.6,2.7-2.2,7.6,0.7,10.2c1.4,1.3,2.9,3.2,3.2,5c0.8,6.2,1,12.4,1.5,18.7c0.5,5.9,2.1,11.6,5.3,16.6c2.8,4.4,6.9,7.4,11.6,9.7
		c3,1.4,6.1,2.9,8.1,5.8c0.6,0.9,1.2,1.9,1.9,2.7c0.5,0.5,1.5,1.2,2.1,1c0.6-0.2,1.1-1.2,1.3-2c0.5-2.8,2.1-4.7,4.5-6.1
		c3.4-1.9,6.9-3.7,9.9-6.1c5.8-4.6,9-10.8,9.8-18.3c0.8-7.3,1.6-14.5,2.5-21.7c0.2-2,0.9-3.9,1.5-5.8c0.5-1.6,1.6-3,1.9-4.5
		c0.4-2.1,1-4.5,0.4-6.5c-0.7-2.5-2.2-4.9-3.8-7c-1-1.4-2.8-2.2-4.4-3.2c-1.9-1.2-3.9-2.4-6-3.2c-2.1-0.8-4.6-1-6.6-1.9
		c-2.3-1-4.4-2.6-6.5-3.9c0.1-0.2,0.2-0.5,0.3-0.7c0.6-0.2,1.2-0.4,1.8-0.5c5.7-1.2,11.3-2.3,17-3.4c3.4-0.7,6.9-1.3,10.4-1.8
		c1-0.2,2.1-0.2,3.2,0c2.8,0.5,5.6,1.2,8.5,1.7c0.8,0.1,1.6-0.1,2.4-0.2c0-0.2,0-0.4,0-0.6c-3-0.6-6-1.2-9.6-1.9
		c0.8-0.3,1.3-0.7,1.6-0.6c1.4,0.3,2.8,0.8,4.2,1.1c1.4,0.2,2.8,0.3,4.2,0.4c0-0.2,0-0.5,0.1-0.7c-3.7-0.7-7.3-1.4-11.6-2.3
		C156.4,17.8,163.5,14.5,171.3,12z M125.4,49.7c0.7,0.9,1.3,1.8,2,2.8c0.2-0.1,0.3-0.2,0.5-0.2c-0.7-1.3-1.3-2.6-2-3.9l0.5-0.3
		c1.4,1.1,3.1,2,4,3.4c0.6,0.8,0.1,2.6-0.3,3.7c-0.3,0.8-1.3,1.4-2,1.9c-0.1,0.1-0.6-0.3-0.9-0.6c-0.9-0.8-1.8-1.7-2.7-2.5
		C123.2,52.7,123.4,51.7,125.4,49.7z M30.4,61.6c-0.3-0.3-0.6-0.6-1-1c1.8-2.3,3.2-3.2,4.5-3C32.8,58.9,31.7,60.1,30.4,61.6z
		 M105.4,56.3c3,1.9,3.3,3.8,0.7,5.9c-0.9,0.8-1.6,0.7-2.6,0c-1.5-1.2-3.1-2.2-4.7-3.2c1.4-0.8,2.9-1.5,4.6-2.4
		c0-0.1,0.2-0.7,0.3-1.4c0.1,0,0.2,0,0.3,0c0.1,0.6,0.3,1.3,0.5,2.2C104.9,56.9,105.1,56.6,105.4,56.3z M103.9,52.2
		c0.2,0.1,0.4,0.3,0.5,0.4c-1.5,1.5-2.9,3-4.5,4.4c-1.4,1.4-2.6,1-3.6-0.7c-0.4-0.7-0.9-1.3-1.1-2.1c-0.1-0.6,0.2-1.3,0.3-2.3
		c0.7,0.6,1,0.9,1.6,1.5c0.2-0.5,0.4-1,0.5-1.5c0.2,0.1,0.4,0.2,0.6,0.3v3.2c0.1,0,0.3,0.1,0.4,0.1c1-1.9,2-3.9,2.9-5.6
		C102.3,50.8,103.1,51.5,103.9,52.2z M98.7,58.9c-0.1,0.8-0.2,1.6-0.4,2.3c-0.5,1.4-1.2,2.5-3,1.7c-0.7-0.3-1.5-0.3-2.3-0.5
		c-1.8-0.4-2.4-1.4-2-2.9c1,0.5,2.1,1.1,3.6,1.8v-5C95.5,58,96.6,59.2,98.7,58.9z M96.3,48.6c0.3-0.6,1-1.1,1.6-1.5
		c0.9-0.6,2-1,2.8-1.5c0.5,0.4,1.2,1,1.8,1.5c-1.3,1.2-2.7,2.6-4.2,3.8c-0.5,0.4-1.4,0.3-2.3,0.5C96.1,50.2,96,49.3,96.3,48.6z
		 M106.8,37.8c-0.1,0.3-0.2,0.5-0.3,0.8c-0.9,0.4-1.6,1.9-2.7,0.2c-0.5-0.8-1.1-1.8,0-2C104.7,36.5,105.8,37.4,106.8,37.8z
		 M103.8,32.9c0.1,0.3,0.3,0.6,0.4,0.8c-3.8,0.9-6.2,4.6-10.3,4.9c-0.1-0.2-0.2-0.4-0.3-0.7C97,36.2,100.4,34.6,103.8,32.9z
		 M93.8,42c0.9,1.9,1.1,3.8-0.5,5.4c0.9-0.1,1.8-0.2,2.6-0.3c0.1,0.2,0.1,0.4,0.2,0.6c-1.5,1.3-2.9,2.8-4.4,4c-1,0.8-2,0.6-1.8-0.9
		c0.2-1.8,0.8-3.5,1.2-5.3c-0.5,0.5-1,1.2-1.7,2C89.5,45.2,91.5,42.9,93.8,42z M87.8,54.7c0.3,0.2,0.5,0.3,0.9,0.6
		c0.1-0.5,0.2-1,0.4-1.8c0.5,0.7,0.8,1.1,1.1,1.5c0.2-0.6,0.3-1.2,0.6-2.1c2.1,2.9,1.7,4.3-2.2,6.6c-0.4-1.6-0.8-3.1-1.2-4.5
		C87.5,54.9,87.7,54.8,87.8,54.7z M88.8,63.3c-0.4,0.1-0.8,0.1-1.2,0.2L87,59.7c0.2,0,0.5-0.1,0.7-0.1C88.1,60.8,88.4,62,88.8,63.3z
		 M84.2,64.2c-1.7,0.9-2.3,0.3-2.4-2.1c1-0.1,1.9-0.2,2.9-0.3c-0.5,0.4-1,0.8-1.5,1.3C83.5,63.5,83.8,63.9,84.2,64.2z M86.5,53.3
		c0.3-1.2,0.5-2.1,0.7-3c0.4,3.8,0.4,3.8-2,3.8C85.7,53.8,86.2,53.5,86.5,53.3z M137.6,85.5c-1,5.4-1.2,11.1-4.3,16.1
		c-3.4,5.5-8.3,8.7-14.2,11c-1.8,0.7-3.4,1.7-5.1,2.5c-1,0.5-2.1,0.8-3.7,1.4c-0.2-0.6-0.7-1.8-1.1-2.9c0.2-0.1,0.4-0.2,0.5-0.3
		c-0.9-0.5-1.7-1.1-2.6-1.6c0,0.7-0.1,1.3-0.1,2.1c0.4,0.4,1,1.2,1.6,2c-0.1,0.1-0.1,0.1-0.2,0.2c-2.2-1.2-4.5-2.4-6.7-3.7
		c-4-2.4-7.8-5.1-10.7-8.9c-2.9-3.7-3.6-8.1-4.6-12.5c-0.1-0.3-0.1-0.6,0-0.8c2-2.5,0.2-5,0.2-7.5c0-3.9-0.4-7.9-0.5-11.8
		c0-0.7,0.3-1.3,0.4-2c0.2,0,0.3,0,0.5,0c0.1,2.8,0.3,5.6,0.4,8.4c0.2,0,0.4,0,0.6,0c0.2-1.5,0.3-3,0.5-4.7c0.5,0.2,0.8,0.4,1.2,0.5
		c0-1.9,0-3.6,0-5.4c0-2.6,1.4-3.9,3.8-3.1c2,0.7,3.6,0.1,5.2-1c1.4-1,2.7-1.2,4.1-0.1c1.5,1.1,3.1,1,4.6-0.1
		c1.2-0.9,2.1-0.5,2.9,0.4c1.3,1.6,2.5,1.6,4,0c2.1-2.2,2.4-2.2,4.7-0.1c1.6,1.5,2.7,1.3,4.2-0.1c1-1,2.4-1.6,3.9-2.5
		c0.9,1.4,1.7,2.7,2.7,4.3c1.1-0.9,2-1.8,3-2.6c2.1-1.6,3.4-1.1,3.5,1.5c0.2,2.6,0,5.2,0.3,7.9c0.2-2,0.4-4.1,0.6-6.1l0.8,0.1
		c0.3,4.7-0.8,9.3-1.3,13.9c0.2,0,0.4,0,0.5,0.1c0.5-4.1,0.9-8.2,1.4-12.4c0.2,0,0.3,0,0.5,0c0.1,0.3,0.4,0.6,0.3,0.9
		C138.9,74.3,138.6,80,137.6,85.5z M132,27.8c0-0.2-0.1-0.4-0.1-0.6c2.6-0.6,5.2-1.1,7.7-1.7c0,0.3,0.1,0.6,0.1,0.9
		C137.2,26.9,134.6,27.4,132,27.8z"/>
	<path d="M42.2,26.2c1.3,1.3,1.4,3.8,0.3,8c-0.7,2.6-1.5,5.1-2.4,8.1c1-0.7,1.7-1.2,2.5-1.7c1.1-0.6,1.9-0.3,2.2,1
		c0.7,2.7,0.9,2.7,3.6,2c4.2-1.1,8.4-2.4,12.6-3.2c3.7-0.8,7.6-0.9,11.3-1.8c4.5-1,9-2.4,13.5-3.7c2.2-0.6,4.4-1.3,6.4-2.3
		c1.5-0.8,2.8-2.1,4.2-3.1c1.5-1.1,2.1-2.5,1.9-4.4c-0.1-0.8,1-2.1,1.9-2.5c1.5-0.7,3.3-1,5.2-1.4c0.2,1,0.4,2.2,0.7,3.4
		c2.6,0.2,5.2,0.5,7.7,0.7c0.2,0,0.3,0.5,0.8,1.3c-3.5-0.2-6.5-0.5-10-0.7c0.7,1,1,1.4,1.6,2.3c-4.5,2.2-8.9,4.4-13.3,6.6
		c-0.1-0.1-0.1-0.3-0.2-0.4c4-2.2,8-4.5,12-6.7c0-0.1,0-0.3,0-0.4c-0.6,0.1-1.2,0.1-1.7,0.4c-3.4,1.9-6.8,3.9-10.3,5.8
		c-2.4,1.3-4.9,3-7.5,3.6c-6.5,1.6-13.1,2.6-19.6,4c-4.6,1-9.1,2.1-13.6,3.1c-2.2,0.5-4.4,0.8-6.6,1.3c-0.6,0.1-1.4,0.6-1.7,1.1
		c-1.1,1.7-5.7,2.2-6.8,0.6c-0.4-0.6-0.2-1.9,0.1-2.8c0.9-2.2,2.3-4.2,2.9-6.4c0.8-3.3,2.7-6.4,2.2-10
		C41.8,27.5,42.1,26.9,42.2,26.2z M42.7,41.6c-0.5,0.4-0.9,0.7-1.4,1c-0.4,0.2-1,0.4-1.4,0.6c-1,0.5-1.4,2.6-0.6,3.3
		c0.5,0.4,1.4,0.5,1.9,0.4c0.3-0.1,1.4-1,0.1-1.6c0.2-0.3,0.3-0.9,0.5-0.9C43.9,43.7,44,43.5,42.7,41.6z M102.6,26.1
		c0.7-0.6,1.2-0.9,1.6-1.2c-0.5-0.2-1-0.3-1.5-0.5c-0.7-0.2-1.3-0.6-2-0.8c-0.3-0.1-0.8-0.2-0.9,0c-0.2,0.3-0.2,0.9-0.1,1
		C100.6,25.1,101.5,25.6,102.6,26.1z"/>
	<path d="M114.9,25.1c0.8-0.2,1.7-0.6,2.5-0.7c5.1-0.9,10.2-1.7,15.3-2.7c3.3-0.6,6.7-1.3,10-2.1c0.7-0.2,1.4-0.7,2.1-1.1
		c3.2-2.1,6.2-4.5,9.5-6.3c2.1-1.2,4.6-1.9,7-2.6c2.2-0.7,4.4-1.2,6.7-1.6c0.7-0.1,1.5,0.1,2.7,0.3c-0.7,0.6-0.9,1-1.2,1
		c-6.3,0-11.7,2.5-16.9,5.8c-3,1.9-6,3.8-9,5.8c-0.2,0.1-0.5,0.3-0.7,0.3c-3.9,0.7-7.8,1.5-11.7,2.2c-3.4,0.6-6.8,1.2-10.3,1.8
		c-2,0.3-4,0.6-5.9,0.9C115,25.6,114.9,25.3,114.9,25.1z"/>
	<path d="M39.8,27c1,3.7-0.4,6.9-1.2,10.2c-2,7.6-6.7,13.2-13,17.6c-2.1,1.5-3.9,3.3-5.9,4.9c-1.2,1-2.4,1.8-3.7,2.8
		c-0.1-0.1-0.3-0.3-0.4-0.4c0.7-0.8,1.3-1.8,2.2-2.5c6.4-5.1,13.1-9.9,17.1-17.3c2.1-3.9,3.7-8.2,3.6-12.8
		C38.3,28.5,38.2,27.4,39.8,27z"/>
	<path d="M34.9,48.2c-1.1,1.6-1.9,3.5-3.3,4.9c-2.3,2.3-5,4.2-7.4,6.4c-1.7,1.5-5.5,5.6-7.2,7.2c-0.5,0.5-1.1,0.8-1.7,1.3
		c-0.2-0.2-0.4-0.4-0.5-0.6c5.9-5.5,14-13.6,19.8-19.1C34.8,48.2,34.8,48.2,34.9,48.2z"/>
	<path d="M109,46.6c-0.1-0.4-0.2-0.9-0.3-1.3c0.8,0.1,1.7,0.4,2.2,0.1c0.6-0.4,0.8-1.4,1.3-2.4c0.7,1.3,0.8,2.3-0.3,3.2
		c-1.9,1.6-1.9,2.1-0.1,3.9c0.3,0.3,0.6,0.5,1.3,1.1c0.5-1.9,1-3.5,1.5-5.2c0.2,0,0.4,0,0.6,0.1c0,1.1,0.3,2.4-0.1,3.3
		c-0.5,1-2.2,2.4-2.5,2.2c-1.2-0.7-2-2-2.9-3.1C109.4,47.9,109.3,47.2,109,46.6C109,46.7,109,46.6,109,46.6z"/>
	<path d="M121.5,29.1c-1.8-0.6-3.5,1.9-5.6,0c2-0.3,3.7-0.5,5.5-0.8C121.5,28.5,121.5,28.8,121.5,29.1z"/>
	<path d="M100.1,99.7c-0.9-0.4-1.6-0.7-2.4-1.1c1-1.7,2-3.4,3-5.1c0.1,0.1,0.5,0.3,0.5,0.6c0.1,2.4,1.9,3.4,3.6,4.5
		c1.6,1,3.2,2.2,4.8,3c3.2,1.7,6.1,0.7,8.8-1.2c1.4-1,2.8-2,3.9-3.3c0.7-0.8,0.7-2.2,1-3.3c3.8,1.4,4.4,3.7,1.6,6.7
		c-0.5-0.8-1-1.5-1.4-2.3c-0.7,0.7-1.4,1.3-2.1,2c-1.5,1.4-2.9,2.9-4.4,4.3c-2.8,2.6-5.7,2.8-8.5,0.1c-1.8-1.7-3.5-3.6-5.3-5.3
		C101.6,97.6,101.2,97.7,100.1,99.7z"/>
	<path d="M99.1,71.9c-3.7,0-6.1,2.4-6.1,6.4c-0.1,4.3,2.8,6.4,5.5,6.6c2.9,0.2,6.4-3.7,6.4-6.7C104.8,74.6,102.4,71.9,99.1,71.9z
		 M101.4,82.5c-1.1,1.1-3.7,0.9-5.5-0.4c-1.5-1.1-2.1-3.1-1.6-4.9c0-0.9,0.3-1.7,0.9-2.3c0.5-0.8,1.3-1.4,2.5-1.4
		c0.2,0,0.4,0,0.6,0.1c1.6-0.2,3.3,0.4,4.1,1.4C104.1,77.2,103.8,80.1,101.4,82.5z"/>
	<path d="M130.7,78c0,3.4-2.7,6.4-5.7,6.3c-3-0.1-5.7-3.1-5.7-6.2c0-3.7,2.2-5.9,5.9-5.8C128,72.5,131.1,74.2,130.7,78z M120.6,77.2
		c0,3,2,5.4,4.6,5.4c2.4,0,4.4-2.1,4.4-4.6c0-2.6-2.2-4.5-5.2-4.5C122.1,73.5,120.6,75,120.6,77.2z"/>
	<path d="M114.2,95.1c-2,0-6.1-3.5-6.4-4.9c-0.1-0.6,0.2-1.2,0.4-1.8c0.5,0.3,1,0.6,1.4,1c1.1,1.4,2.3,2.7,4.4,2.6
		c1.5-0.1,2.6-0.6,3.3-2.1c0.2-0.5,1-0.7,1.5-1c0,0.6,0.2,1.4-0.1,1.9c-0.5,1-1.2,2.1-2,2.9C115.8,94.3,114.8,94.7,114.2,95.1z"/>
	<path d="M130.5,68.9c-4.6-2.7-8.5-2.1-11.7,2.4c-0.3-2.4,1.6-5.4,3.6-6C125,64.5,129.3,66.3,130.5,68.9z"/>
	<path d="M103.6,70.2c-4.2-3.2-7.9-2.4-11.3,1c-0.7-2.5,2.1-5.9,4.3-5.4c2.2,0.6,4.3,1.7,6.5,2.7c0.3,0.1,0.4,0.6,0.6,0.9
		C103.7,69.7,103.6,69.9,103.6,70.2z"/>
	<path d="M88.1,93.4c1.5,3.4,3,6.8,4.6,10.3c-3-2.8-3.7-6.6-5-10.1C87.8,93.5,88,93.4,88.1,93.4z"/>
	<path d="M129.2,78.6c-0.4,1.9-1.9,3.5-3.1,3.5c-1.7-0.1-1.7-1.5-1.9-2.6c-0.2-1.3,1.4-2.8,2.9-2.5C127.9,77.2,128.5,78,129.2,78.6z
		"/>
	<path d="M102.7,79.3c-0.4,1.9-1.9,3.5-3.1,3.5c-1.7-0.1-1.7-1.5-1.9-2.6c-0.2-1.3,1.4-2.8,2.9-2.5C101.4,77.9,102,78.7,102.7,79.3z
		"/>
</g>
<g>
	<path d="M262.2,131.2c-0.3-0.1-0.6-0.2-0.8-0.3c-1.4-0.7-2.6-1.6-3.8-2.7c-0.5-0.5-0.6-0.5-1,0.1c-0.2,0.3-0.5,0.5-0.9,0.7
		c-1.2,0.5-2.4,0.3-3.5,0c-3.2-0.6-6.2-1.7-9.1-2.9c-0.3-0.1-0.6-0.2-0.9-0.1c-1.1,0.1-1.8,0.8-2,1.8c-0.2,1.3-0.3,2.7-0.4,4.1
		c0,0.3,0,0.7,0.2,1c1.5,4.2,3.1,8.4,4.6,12.5c0.1,0.2,0.3,0.5,0.6,0.6c0.7,0.5,1.6,0.8,1.9,1.8c0.2,0.8,0.5,1.6,0.6,2.5
		c0.5,2.7,0.2,5.3,0.1,8c-0.1,1.2-0.3,2.5,0.6,3.6c0.1,0.2,0.1,0.4,0.2,0.6c0.4,1.5,0.2,3-0.1,4.4c-0.4,1.8-1,3.6-1.6,5.3
		c-0.1,0.2-0.1,0.5,0,0.7c0.8,1,0.5,2,0.1,2.9c-0.7,1.4-1.7,2.6-2.9,3.6c-1.8,1.5-4,2.5-6.3,3.1c-0.2,0.1-0.5,0.2-0.6,0.4
		c-0.5,2.4-2,3.9-4.2,4.7c-1.6,0.6-3.3,1-4.9,1.4c-0.5,0.1-0.6,0.3-0.6,0.7c0,0.2,0,0.4,0,0.5c0.1,0.5-0.2,0.8-0.6,1
		c-1.2,0.6-2.4,0.7-3.7,0.8c-1,0-1.9,0.2-2.8-0.4c-0.2-0.1-0.7,0-1,0.1c-0.2,0-0.5,0.1-0.7,0.1c-2.2-0.1-4.2-0.9-6-2.1
		c-1.5-0.9-2.9-2.1-4-3.4c-0.5-0.5-0.8-0.5-1.1,0.1c-0.5,0.8-1,1.7-1.5,2.5c-0.2,0.5-0.4,1-0.5,1.5c-0.1,0.5,0.1,1,0.6,1.3
		c0.2,0.1,0.3,0.3,0.3,0.5c0.4,1.7-0.1,3-1.6,3.9c-1.1,0.6-2.2,1.1-3.3,1.7c-2.8,1.5-5.4,3.2-7,6.1c-0.7,1.2-1.7,2.1-3,2.8
		c-1.9,0.9-3.8,1.8-5.2,3.4c-0.1,0.1-0.2,0.2-0.3,0.3c-0.4,0.3-0.7,0.3-1.2,0.1c-0.2-0.1-0.4-0.2-0.6-0.3c-0.3-0.3-0.6-0.2-1-0.1
		c-0.7,0.2-1.4,0.4-2.1,0.5c-0.2,0-0.5-0.1-0.5-0.3c-0.6-1.8-1.1-3.6-0.5-5.5c0.2-0.7,0.4-1.5,0.9-1.9c1.4-1.1,2.4-2.3,3.2-3.9
		c0.9-1.7,1.7-3.4,2.6-5.1c0.1-0.2,0.2-0.4,0.3-0.7c0.2-0.4,0.1-0.8-0.4-1c-0.3-0.1-0.5-0.4-0.7-0.6c-0.1-0.1-0.2-0.2-0.4-0.2
		c-1.3-0.2-2.5-0.1-3.6,0.8c-0.3,0.3-0.7,0.5-1.1,0.8c-1.1,0.9-2.4,1.6-3.3,2.7c-0.9,1.1-2.1,1.6-3.3,1.8c-2.1,0.4-4.1,0.6-6.2,1
		c-0.8,0.1-1.5,0.1-2.2-0.2c-0.4-0.2-0.7-0.4-0.7-0.9c-0.1-0.5,0.1-1.1-0.5-1.5c-0.1,0-0.1-0.3-0.1-0.4c-0.1-1.9,0.9-3.3,2.3-4.3
		c1.6-1.2,3.5-2,5.4-2.8c0.8-0.3,1.5-0.7,2.4-1.1c-0.3-0.2-0.4-0.4-0.6-0.5c-0.7-0.4-1.3-0.7-2-1.1c-1.1-0.6-2.3-1-2.8-2.4
		c0-0.1-0.2-0.2-0.3-0.3c-0.7-0.6-1.3-1.3-2-1.8c-0.7-0.5-1.3-1.2-1.7-1.9c-1.4-2.5-3.1-4.9-3.9-7.8c-0.9-3.4-1.4-6.8-0.9-10.4
		c0.1-0.4,0.1-0.9,0-1.3c-0.6-1.9-1.2-3.7-1.8-5.6c-1.3-4.4-1.6-8.9-1.4-13.5c0-0.2,0-0.4,0.1-0.5c0.4-1.4,0.8-2.8,1.3-4.2
		c0.3-1.1,0.7-2.2,1-3.3c0.3-0.9,0.4-1.8,0.8-2.6c1.1-2.5,2.9-4.5,4.9-6.3c0.6-0.5,1.1-1.1,1.5-1.8c0.5-0.8,0.9-1.6,1.3-2.4
		c0.2-0.4,0.4-0.9,0.5-1.4c0-0.2-0.1-0.5-0.2-0.5c-0.5-0.3-0.6-0.5-0.3-1.1c0.2-0.5,0.3-1-0.1-1.3c-1.6-1.6-2.4-3.6-2.8-5.8
		c-0.1-0.4-0.2-0.7-0.6-0.9c-0.3-0.2-0.5-0.6-0.6-0.9c-0.2-0.5-0.2-1-0.4-1.5c-0.5-1.4-0.3-2,0.9-2.8c0.3-0.2,0.4-0.4,0.3-0.8
		c-0.1-0.2-0.1-0.5-0.1-0.7c0-0.2,0.1-0.6,0.3-0.7c0.9-0.3,1.2-1,1.6-1.7c0.7-1.1,1.6-2,3-2.2c0.6-0.1,1.2,0,1.9-0.1
		c0.2,0,0.5-0.1,0.6-0.3c0.7-1,1.4-2,2.1-2.9c1.2-1.6,2.4-3.3,2.8-5.3c0-0.1,0.1-0.3,0.2-0.4c1.5-2.1,2.6-4.3,3.6-6.7
		c0.3-0.6,0.9-1,1.5-1c0.7,0,0.9,0.5,1.1,1.1c0.1,0.1,0.1,0.3,0.1,0.5c0.2,0.9,0.3,1.8,0.1,2.8c-0.4,1.8,0,3.5,0.5,5.3
		c0.1,0.5,0.4,0.6,0.8,0.7c3.4,0.8,6.8,1.8,9.9,3.6c0.9,0.5,1.6,0.5,2.4-0.1c0.5-0.3,1.1-0.5,1.5-0.9c1.3-1.5,2.5-3.1,3.7-4.7
		c0.3-0.4,1.1-0.5,1.4-0.2c0.7,0.7,1.2,1.5,0.9,2.6c-0.3,1-0.5,2-0.4,3c0.1,1.4-0.5,2.7-0.2,4.1c0.1,0.4-0.1,0.9-0.2,1.4
		c-0.3,1.3-0.5,2.6-1.7,3.4c-0.1,0.1-0.1,0.2-0.1,0.4c0.2,1.3-0.1,2.5-0.3,3.7c-0.1,0.3,0,0.6,0.1,0.8c0.3,0.7,0.6,1.3,0.9,2
		c0.7,1.7,1.2,3.5,1.5,5.4c0.1,1.2-0.6,1.8-1.6,1.6c-0.4,1.7-1.5,3-3.1,3.7c0.1,0.2,0.2,0.3,0.3,0.4c0.8,1.2,1.7,2.4,2.3,3.7
		c1.5,3.4,1.6,7,0.8,10.5c-0.8,3.4-1.8,6.7-2.7,10.1c-0.1,0.6-0.3,1.2-0.2,1.8c0.1,0.9,0.3,1.8,0.6,2.7c1,2.7,2.9,4.7,5,6.6
		c0,0,0.1,0,0.3,0c-0.2-0.6-0.4-1.1-0.6-1.5c-0.7-1.7-1.5-3.4-2-5.2c-0.5-1.6-0.5-3.3,0.7-4.7c0.5-0.5,0.5-1,0.5-1.6
		c-0.1-2.1-0.2-4.2-0.2-6.3c0-1.5,0.2-3.1,0.9-4.3c0.9-1.5,1.2-3.1,1.1-4.8c0-0.1,0-0.3,0-0.4c0.1-1.4,0.6-2.5,1.8-3.3
		c0.2-0.1,0.4-0.4,0.4-0.7c0.2-1.1,0.4-2.2,0.5-3.3c0-0.3,0.2-0.6,0.5-0.5c0.7,0.1,1.3,0.3,2,0.4c0-0.1,0-0.4,0-0.6
		c0.1-1.8,0.2-3.5,0.4-5.3c0.1-1.2,0.5-2.3,1.4-3.1c0.6-0.5,0.9-1,1.1-1.7c0.1-0.3,0.2-0.6,0.3-0.9c0.7-1.7,1.3-3.5,2.6-5
		c0.4-0.4,0.8-0.8,1.4-1c0.6-0.2,1-0.5,1.3-1c0.4-0.5,0.9-0.9,1.6-1c0.2,0,0.4-0.2,0.5-0.3c0.9-1.1,1.8-2.3,2.6-3.4
		c1.2-1.6,2.4-3.2,4-4.4c2.3-1.7,4.4-3.6,6.9-5.1c2.4-1.4,4.6-2.9,7.3-3.8c3.1-1,6.3-1.7,9.6-1.1c1.9,0.3,3.7,0.9,5.6,1.7
		c-0.2,0.6-0.4,1.2-0.6,1.8c0.1,0.1,0.3,0.2,0.5,0.2c2.2,1.1,4.4,2.2,6,4.2c0.8,1,1.6,2.1,2.2,3.2c0.3,0.5,0.3,1.2,0.1,1.8
		c-0.1,0.3-0.2,0.7-0.1,1c0.1,0.4,0.3,0.8,0.5,1.1c1.3,1.9,2.6,3.8,3.8,5.7c0.7,1,1.4,2,1.8,3.2c1.1,3.4,2,6.9,2.9,10.3
		c0.5,1.9,0.5,1.9-1.2,3c-0.3,0.2-0.4,0.4-0.3,0.8c0.2,0.5,0.3,1.1,0.4,1.6c0.4,1.9,0.7,3.9,0.2,5.8c-0.3,1-0.6,2.2-1.2,3
		c-0.7,0.9-1.7,1.7-2.7,2.4c-1.3,1-2.4,0.8-3.5-0.4c-0.5-0.5-1-1.1-1.5-1.6c-0.2-0.2-0.5-0.4-0.8-0.6
		C264.1,131.3,263.5,131.6,262.2,131.2z M254,124.9c0.9,0,1.6,0.4,2.2,0.8c1.1,0.8,2.2,1.7,3.2,2.6c1,0.8,2,1.5,3.3,1.7
		c0.1,0,0.2,0,0.3,0c0.2-1,0-1.8-0.6-2.5c-0.5-0.7-1-1.5-1.5-2.2c-0.1-0.2-0.3-0.3-0.5-0.5c0.1-0.1,0.1-0.2,0.2-0.3
		c0.5,0.3,1,0.5,1.5,0.9c0.7,0.6,1.4,1.3,2,2c0.7,0.8,1.4,1.6,2.1,2.3c0.3,0.3,0.6,0.5,0.9,0.8c1.7,1.3,4,0.8,5-1.1
		c1.8-3.4,1.6-6.9,0.1-10.3c-0.4-0.9-0.8-1.7-1.2-2.5c-0.1-0.2-0.2-0.4-0.2-0.6c0-0.1,0.1-0.3,0.2-0.4c0.1-0.1,0.3,0,0.4,0.1
		c0.5,0.4,1,0.8,1.4,1.4c0.4,0.6,0.8,0.6,1.4,0.5c0.2-0.7,0-1.2-0.7-1.6c-0.2-0.1-0.3-0.4-0.4-0.7c-0.7-4.7-1.9-9.4-4.5-13.5
		c-1.4-2.3-2.8-4.6-4.7-6.5c-0.4-0.4-0.9-0.7-1.3-1.1c-0.1-0.1-0.2-0.3-0.3-0.5c0.2-0.1,0.3-0.2,0.5-0.2c0.6,0.1,1.2,0.2,1.8,0.3
		c-0.2-1-0.7-1.9-1.3-2.8c-1.9-2.5-4.5-4.1-7.4-5.1c-1.1-0.4-2.3-0.5-3.5-0.7c-0.3-0.8,0.5-1.2,0.7-1.8c-1.2-0.5-2.3-0.7-3.6-0.7
		c-3,0-5.7,1-8.4,2.3c-3.5,1.7-6.7,3.9-9.8,6.1c-1.7,1.2-3.4,2.7-4.7,4.4c-1.3,1.7-2.6,3.4-3.9,5.2c-0.2,0.2-0.2,0.6-0.2,0.8
		c0,0.8-0.4,1.4-1.1,1.8c-0.2,0.1-0.4,0.3-0.4,0.5c-0.2,0.8-0.4,1.7-0.6,2.6c0,0.2-0.2,0.3-0.3,0.4c-0.1-0.1-0.3-0.3-0.4-0.4
		c-0.1-0.4-0.1-0.9-0.2-1.3c-0.5,0.3,0,1.4-1.1,1.4c0-0.7,0.1-1.3,0.1-2c0-0.3,0.1-0.6,0.2-0.9c0-0.2,0-0.3-0.1-0.5
		c-0.1,0.1-0.3,0.2-0.4,0.4c-0.2,0.3-0.3,0.5-0.4,0.8c-0.9,2.4-1.7,4.7-2.6,7.1c-0.1,0.3-0.4,0.6-0.5,0.9c-0.1,0.2,0,0.5-0.1,0.9
		c-0.3-0.3-0.7-0.7-1.1-1c-0.6,0.9-0.8,2-0.8,3.1c-0.2,2.9,0.2,5.7,0.8,8.6c0.1,0.3,0.1,0.5,0.1,0.8c-0.1,0-0.1,0.1-0.2,0.1
		c-0.4-0.5-0.8-0.9-1.2-1.4c-0.4-0.5-0.8-1.2-1.2-1.7c-0.3-0.3-0.6-0.5-1-0.8c0,1.1,0,2,0,2.9c0,0.3,0.2,0.6-0.2,0.7
		c0,0,0,0.2,0,0.4c0.1,0.8,0.2,1.6,0.3,2.4c-0.6,0.1-1-0.4-1.8-2.6c-0.9,3.2-0.6,6.4-0.3,9.7c-0.6-0.2-0.8-0.6-1-1.1
		c-0.2-0.4-0.3-0.9-0.5-1.3c-0.1,0-0.2,0-0.3,0c-0.2,1-0.5,1.9-0.7,2.9c-0.5,3.2-0.3,6.3,0.3,9.5c0.1,0.5,0.3,0.9,0.4,1.4
		c0,0.3-0.1,0.6-0.1,0.8c-0.2-0.1-0.5-0.1-0.7-0.2c-0.2-0.1-0.3-0.4-0.4-0.6c-0.1-0.1-0.2-0.2-0.3-0.3c-0.1,0.2-0.2,0.3-0.2,0.5
		c0,2.4,0.6,4.7,1.8,6.9c0.7,1.4,1,2.8,1.4,4.3c0.2,0.8,0.6,1.6,1.1,2.2c2.3,2.9,3.9,6.2,4.8,9.8c0.1,0.5,0,1.1,0,1.6
		c0,0.5,0,1.1,0,1.8c0.9-0.9,1.6-1.7,2-2.8c0.6-1.5,0.9-3,1.4-4.6c0.1-0.2,0.3-0.4,0.4-0.7c0.1-0.2,0.2-0.5,0.2-0.7
		c0.1-1.6,0.2-3.1,0.3-4.7c0-0.1,0-0.2,0.1-0.2c0,1.1,0.1,2.3,0.1,3.4c0,2.5-0.1,5-1,7.4c-0.7,1.8-1.8,3.2-3.6,4
		c-0.1,0.1-0.3,0.3-0.3,0.5c0,0.7-0.3,1.2-1,1.6c-0.2,0.1-0.3,0.4-0.3,0.5c0.3,3-0.9,5.6-2.5,8.1c-0.2,0.2-0.3,0.5-0.5,0.8
		c2,1.4,3.5,3.3,5.7,4.2c0.6,0.3,1.2,0.5,1.8,0.7c0.2,0.1,0.6,0.3,0.7-0.3c0-0.1,0.3-0.1,0.5-0.1c1.3,0.2,2.5,0.4,3.8,0.7
		c0.8,0.2,1.5,0.3,2.3,0.1c0.6-0.1,1.3-0.2,1.9-0.4c0.4-0.1,0.4-0.2,0.2-0.6c-0.6-0.9-1.5-1.1-2.4-1.4c-0.1-0.5,0.2-0.4,0.5-0.4
		c1.9-0.1,3.8-0.1,5.7-0.4c1.9-0.2,3.7-0.9,5-2.5c0.4-0.5,0.8-1.1,1.1-1.7c0-0.1-0.1-0.1-0.1-0.2c-1.2,0-2.4,0-3.6,0
		c0,0-0.1-0.1-0.1-0.1c0.2-0.1,0.4-0.3,0.7-0.4c2-0.6,3.9-1,5.9-1.7c2.3-0.8,4.5-1.9,6.2-3.8c0.6-0.7,0.9-1.6,1.2-2.5
		c0.1-0.1,0-0.3,0-0.6c-1.2,0.8-2.2,1.5-3.3,2.2c-0.1-0.1-0.1-0.1-0.2-0.2c0.1-0.2,0.2-0.4,0.3-0.5c1.4-1.4,2.7-2.8,3.3-4.7
		c0.5-1.8,0.8-3.6,1.2-5.4c0.1-0.7,0-1.5,0-2.2c-0.1,0-0.2,0-0.3,0c-0.2,0.4-0.3,0.8-0.4,1.3c-0.1,0.5-0.4,0.6-0.9,0.4
		c0.1-0.3,0.1-0.7,0.2-1c0.7-3.6,1.1-7.3,0.9-11c-0.1-1.7-0.3-3.3-1.2-4.8c-0.1-0.3-0.3-0.5-0.6-0.7c0,0.2,0,0.5-0.1,0.7
		c-0.1,1.6-0.2,3.2-0.3,4.8c0,0.1,0,0.3-0.1,0.4c-0.1,0.1-0.2,0.2-0.3,0.3c-0.1-0.1-0.2-0.2-0.2-0.4c-0.1-0.9-0.2-1.9-0.3-2.8
		c-0.5-4.9-1.8-9.6-3.9-14.1c-1.1-2.4-1.5-4.9-1.3-7.5c0.1-0.8,0.4-1.6,1.2-2.2c-0.2-0.1-0.3-0.1-0.3-0.1c-1.5,0-3.1-0.1-4.6,0.4
		c-0.4,0.1-0.9,0.1-1.3,0.1c-0.2,0-0.3-0.2-0.5-0.3c0.1-0.2,0.2-0.5,0.3-0.5c1.1-0.3,2.1-0.5,3.2-0.7c1.2-0.2,2.5-0.3,3.7-0.5
		c0.1,0,0.2-0.1,0.5-0.2c-2.3-1.4-4.5-2.8-6.6-4.1c0-0.1,0-0.1,0-0.2c0.2,0,0.4,0,0.6,0.1c2.1,1,4.2,2,6.3,3.1
		c2.2,1.1,4.4,2.4,6.9,2.8c1.7,0.2,3.3,0.7,4.9,1.1c1.1,0.3,2,0.1,2.5-0.3C255.2,126.2,254.7,125.5,254,124.9z M170.2,170.8
		c0,0.2-0.2,0.5-0.3,0.6c-0.4,0.1-0.3,0.4-0.3,0.7c0.3,3.5,1.3,6.7,3.5,9.4c2.3,2.8,4.7,5.5,8,7.1c0.7,0.3,1.5,0.6,2.3,0.9
		c0,0,0.1-0.1,0.1-0.1c-0.1-0.2-0.1-0.4-0.2-0.5c-2.4-3.2-3.5-7-4.6-10.8c-0.3-1-0.1-2.2,0.1-3.3c0.5-4.2,2-8.1,3.4-12.1
		c0.6-1.5,1.4-2.8,2.6-3.9c0.9-0.8,1.6-1.9,2.3-2.9c0.3-0.4,0.6-1,1.4-1c-0.8,1.3-1.6,2.5-2.6,3.6c-0.8,0.9-1.7,1.9-2.2,3
		c-1.5,3.5-2.5,7.1-2.8,11c-0.1,1.5-0.3,3-0.2,4.5c0.2,2.1,0.5,4.3,0.8,6.4c0,0.3,0.2,0.5,0.3,0.8c2.3,3.6,5.2,6.5,9.1,8.3
		c1.9,1.6,4.1,1,6.2,0.6c0.9-0.1,1.7-0.4,2.4-1c0.3-0.3,0.8-0.4,1.3-0.6c0.1,0.8-0.4,1.2-0.8,1.4c-1.8,0.9-3.8,1.4-5.9,1.5
		c-1.2,0.1-2.4-0.1-3.5-0.4c-0.5-0.1-0.7,0-1,0.4c-0.6,0.7-1.3,1.4-1.9,2.1c-0.1,0.1-0.2,0.3-0.4,0.4c-0.5,0.6-1,1.2-1.5,1.8
		c-0.1,0.1-0.2,0.3-0.3,0.4c-0.4,0.9-0.8,1.8-1.1,2.8c-0.1,0.4-0.3,0.5-0.7,0.6c-1.7,0.3-2.9,1.4-2.9,4c0.5-1.4,1-2.5,2.6-3
		c-0.3,0.6-0.4,1-0.7,1.4c-0.4,0.7-0.8,1.4-1.1,2.1c-0.3,0.7-0.2,1.7,0.2,2.4c0.6-0.9,1.2-1.7,1.8-2.5c0.2-0.3,0.5-0.7,0.8-0.9
		c0.4-0.4,0.8-0.7,0.9-1.3c0-0.1,0.3-0.3,0.4-0.3c0.5,0,1,0,1.5,0c0.3,0,0.5,0,0.8,0.1c-0.9,1-1.7,1.9-2.4,2.9
		c-0.3,0.4-0.5,1-0.7,1.5c0.1,0.1,0.2,0.1,0.2,0.2c0.4-0.3,0.9-0.5,1.2-0.8c1.1-1.1,2.2-1.9,3.8-2.4c2-0.5,3.1-2,3.3-4
		c0.1-0.6,0.5-0.9,0.9-1.1c1.7-1.1,3.4-2.1,5.1-3.3c1.6-1.1,3.2-2.2,4.7-3.4c0.7-0.5,0.8-1,0.4-1.7c-0.9-1.4-0.8-2.8-0.3-4.3
		c0.4-1.1,0.8-2.3,1.2-3.4c0-0.1,0.2-0.2,0.2-0.3c0.1,0.1,0.2,0.2,0.3,0.3c0.1,0.3,0.1,0.7,0.2,1.1c1.2-2.4,2.8-4.6,3.3-7.3
		c0.3,1.6-0.8,3.1-0.7,4.8c0.1-0.2,0.2-0.3,0.3-0.4c1.2-2.5,2-5,1.9-7.8c0-0.3,0-0.5,0-0.8c0-0.5,0.1-0.6,0.7-0.8
		c0.1,0.2,0.3,0.5,0.5,0.9c0.4-2.4,0.4-4.7-0.3-7c-0.8-2.6-2.1-4.8-3.7-7c-1.2-1.6-2.8-2.9-4.2-4.3c-1.8-1.8-3.5-3.6-4.7-5.8
		c-0.2-0.3-0.3-0.7-0.3-1.1c-0.1-0.8,0-1.6-0.1-2.5c-0.2-1.7,0.4-3.1,0.8-4.7c0.6-2.2,1.4-4.4,1.8-6.7c0.9-5,0.8-9.9-2.6-14.2
		c-0.2-0.3-0.4-0.5-0.8-0.3c-1.4,0.7-2.9,1.4-4.3,2.1c-0.4,0.2-0.7,0.6-0.9,0.9c-2.6,3.5-4.4,7.4-6,11.4c-1.2,2.9-2.3,5.8-3.5,8.7
		c-0.4,1-0.9,1.8-1.6,2.5c-1.4,1.4-2.6,2.9-4.1,4.1c-2.2,1.9-3.8,4.2-5.5,6.5c-0.3,0.4-0.7,0.6-1.1,0.9c-0.7,0.4-1.3,1-1.9,1.5
		c-0.2,0.2-0.1,0.6-0.1,0.9c0.1,0.7-0.2,1.2-0.6,1.7c-0.5,0.7-1,1.4-1.4,2.1c-0.5,0.9-0.7,1.8-0.8,2.9c0.9-1.2,1.7-2.5,3.2-2.8
		c0.6,1.6-0.3,3-0.2,4.6c0.1-0.1,0.2-0.1,0.3-0.2c0.7-1,1.4-1.9,2.1-2.9c0.1-0.2,0.2-0.5,0.3-0.7c0.6,0.3,0.7,0.6,0.7,1.2
		c0,0.8,0.1,1.6,0.2,2.3c0,0.1,0.2,0.2,0.3,0.3c0.1-0.1,0.2-0.2,0.2-0.3c0.3-0.7,0.5-1.4,0.8-2.1c0.3-0.6,0.5-1.2,0.4-1.9
		c0-1.1,0-2.3,0.6-3.3c0.1-0.2,0.2-0.3,0.3-0.5c1.2-1.1,1.6-2.7,2.3-4.1c0.1-0.3,0.4-0.6,0.6-0.7c2.5-1.5,5.1-2.8,7.6-4.3
		c1.1-0.7,2-1.5,3-2.4c1.6-1.3,3.1-2.8,4.3-4.5c0.7-1,1.5-2,2.1-3c0.3-0.4,0.4-1,0.6-1.5c0.1-0.2,0.2-0.3,0.4-0.5
		c0.1,0,0.2,0.1,0.3,0.1c-0.2,0.5-0.3,1.1-0.5,1.6c-1.1,2.7-2.8,5-4.7,7.2c-0.9,1.1-1.9,2.1-2.8,3.2c-0.9,1.1-2,1.7-3.2,2.4
		c-1.8,0.9-3.5,1.8-5.2,2.9c-1.6,1-2.6,2.6-3.5,4.1c-0.5,0.7-0.5,1.7-0.7,2.6c-0.1,0.8-0.1,1.7-0.2,2.5c-0.1,0.4-0.3,0.8-0.5,1.2
		c-0.5,0.7-0.8,1.5-0.7,2.4c0.1,0.6-0.4,0.7-0.7,0.8c-0.2,0.1-0.6,0-0.7-0.1c-0.5-0.7-1-1.4-1.4-2.1c-0.2-0.3-0.3-0.7-0.5-1.2
		C170.7,168.6,170.3,169.6,170.2,170.8z M171.2,98.1c-0.4-0.1-0.8-0.1-1.2-0.1c-0.5,0-0.9,0.2-0.9,0.7c0,0.7-0.5,1-1.1,1.2
		c-0.5,0.2-1,0.6-1.3,1c-0.2,0.2-0.2,0.6,0.2,0.8c0.5,0.3,0.5,0.5,0.1,0.9c-0.2,0.1-0.4,0.3-0.6,0.4c-1.1,0.6-1.1,0.6-1.5,2
		c0.7,0,0.7,0.4,0.5,0.9c-0.2,0.7-0.1,1.3,0.5,1.8c0.2,0.1,0.2,0.5,0.2,0.7c0,0.7-0.1,1.5,0.6,2.1c0.2,0.2,0.1,0.8,0.3,1.1
		c0.4,0.9,0.9,1.8,1.5,2.7c0.5,0.8,1,1.6,1.5,2.4c0.1,0.2,0,0.4,0,0.6c0,0.3,0,0.5,0,0.8c0.5,1.6,1.1,3.1,1.4,4.7
		c0.5,2.6,0.1,5.2-1,7.6c-0.7,1.6-1,3.2-1.1,4.9c0,0.4,0.1,0.9-0.5,1.1c-0.1,0-0.1,0.3-0.1,0.4c0,3.2,0,6.3,0,9.5c0,0.1,0,0.2,0,0.4
		c-0.7-0.4-0.5-1.3-1.1-1.8c-0.3,1.7-0.7,3.4-0.9,5.1c-0.2,1.7,0,3.3,1,4.8c0.8,1.2,1.4,2.4,1.6,4.1c0.7-0.8,1.3-1.5,1.8-2.2
		c1.8-2.2,3.5-4.5,5.5-6.4c2-2,3.3-4.4,4.9-6.6c0.4-0.5,0.7-1,1-1.5c1.8-2.3,2.4-5,3.4-7.6c1-2.7,2.1-5.3,3.8-7.6
		c0.3-0.4,0.4-1.1,0.6-1.7c0.1-0.3,0.2-0.6,0.4-0.8c2.4-1.9,5-3.6,8-4.6c0.4-0.1,0.7-0.4,0.7-0.8c0.1-0.5,0.1-0.9,0.2-1.4
		c0.1-0.4,0.1-0.8,0.2-1.3c0.5,0.5,0.9,1,1.3,1.4c0,0,0.1,0,0.1-0.1c0-0.6,0-1.2,0-1.7c0-0.6-0.1-1.1-0.1-1.7c0-0.2,0.1-0.5,0.1-0.7
		c0.2,0.1,0.5,0.2,0.7,0.4c0.3,0.2,0.6,0.4,0.9,0.6c-0.1-1.1-0.6-1.9-1.4-2.6c-0.1-0.1-0.2-0.1-0.3-0.2c-1-1.7-2.7-2.4-4.5-2.9
		c-2.5-0.7-4.9-0.5-7.4-0.1c-0.7,0.1-1.3,0.3-1.9,0.8c-0.5,0.4-1.2,0.6-1.8,0.8c-1,0.3-2,0.7-3.1,0.5c-0.9-0.2-1.5-0.6-1.9-1.5
		c-0.3-0.8-0.7-1.6-1.1-2.3c-0.3-0.6-0.3-1,0.1-1.5c0.5-0.8,1.1-1.1,2.1-1c1.4,0.2,2.9,0.3,4.2,1c0.9,0.4,1.7,1,1.9,2.1
		c0,0.1,0.3,0.3,0.4,0.3c0.4,0,0.9,0,1.3-0.1c3.5-0.9,6.8-0.8,10,1c0.4,0.2,0.8,0.5,1.3,0.8c0.1,0.1,0.3,0.1,0.5,0.1
		c-0.1-0.7-0.2-1.4-0.8-1.8c-0.1-0.1-0.2-0.4-0.2-0.6c-0.1-1,0-2.1-0.1-3.1c-0.2-1.6-1.2-2.6-2.6-3.1c-0.6-0.2-1.5,0-2.2,0.2
		c-1.7,0.4-3.1,1.4-4.6,2.3c-0.6,0.4-1.1,0.8-1.8,1.3c0.1-0.2,0.1-0.3,0.1-0.4c2.1-2.1,4.3-3.9,7.2-4.9c0.3-0.1,0.7-0.2,1.1-0.2
		c1.2-0.1,1.4,0.1,1.9,1.1c0.3,0.7,0.8,1.3,1.7,1.7c-0.2-1.3-0.6-2.4-1.5-3.2c-0.4-0.3-0.8-0.6-1.2-0.9c-1.1-0.8-2.1-1.6-3.2-2.5
		c-0.1,0-0.1-0.1-0.2-0.1c-1.5-0.5-3.1-1.1-4.6-1.6c-3.4-1.1-6.8-2.1-10.4-1.9c-0.4,0-0.9,0.1-1.3,0.1c-0.3,0-0.5,0.2-0.5,0.6
		c0,0.4,0.2,0.4,0.5,0.4c0.9-0.1,1.2,0.3,1.6,1.1c0.8,1.8,1.7,3.5,2,5.5c0.1,1,0.1,2-0.3,2.9c-0.1,0-0.1,0-0.2,0
		c-0.1-0.6-0.3-1.1-0.4-1.7c-0.2-1.1-0.3-2.3-0.5-3.4c-0.1-0.5-0.6-1-0.9-1.5c-0.1-0.2-0.3-0.3-0.4-0.5c-0.8-1.2-1.9-1.5-3.1-0.8
		c-1.5,0.9-2.5,2.1-2.7,3.9c-0.1,0.5,0.1,0.7,0.5,1c1.3,0.9,2.5,1.9,3.8,2.9c0.6,0.5,1.1,1.2,1.5,1.8c0.1,0.1,0,0.3,0.1,0.5
		c-0.2,0-0.4,0-0.5,0c-0.8-0.8-1.6-1.5-2.4-2.4c-1.1-1.2-2.4-2.1-4.1-2.3c-0.5-0.1-1.1-0.4-1.6-0.6c-0.1,0-0.2-0.2-0.2-0.4
		c0-0.1,0.2-0.2,0.3-0.2c0.3,0,0.6,0,0.8,0c0-0.1,0.1-0.1,0.1-0.2C171.5,98.4,171.4,98.2,171.2,98.1z M161.9,132.1
		c-0.1,0.1-0.1,0.2-0.2,0.3c-2,2.6-2.8,5.6-3,8.8c0,0.2,0,0.4,0,0.7c0.1,1,0.5,1.9,0.4,2.9c-0.3,4.2,0.6,8.2,1.7,12.1
		c0.6,2.1,1.3,4.2,2.6,6.1c0.6,0.9,1.3,1.6,2.4,2c0.2-0.5,0.4-1-0.2-1.4c-0.3-0.2-0.4-0.6-0.7-0.9c0.1-0.1,0.2-0.1,0.2-0.2
		c0.3,0.3,0.6,0.5,0.9,0.8c0.2,0.3,0.5,0.6,0.8,0.3c0.3-0.3,0.4-0.8,0.4-1.1c-0.1-0.5-0.4-0.9-0.6-1.4c0.5-0.1,0.6,0.1,0.8,0.4
		c0.1,0.1,0.3,0.2,0.4,0.4c0.1-0.1,0.2-0.3,0.3-0.4c0.1-0.6,0.3-1.2,0.4-1.9c0-0.3,0-0.7-0.1-1c-0.7-1.6-1.4-3.1-2.1-4.7
		c-0.7-1.4-0.9-2.9-0.6-4.5c0.4-2.6,0.7-5.1,1.1-7.7c0.4-2.2,0.9-4.3,1.3-6.5c0.1-0.8,0.1-1.6,0.2-2.4c0.2-1,0.3-2.1,0.6-3.1
		c0.9-2.4,1.5-4.9,1.4-7.5c0-0.8-0.2-1.7-0.4-2.5c0-0.1-0.2-0.3-0.3-0.3c-0.1,0-0.3,0.1-0.4,0.2c-1.2,2.6-3.3,4.6-5,6.8
		c-0.9,1.2-1.7,2.6-2.5,3.9c-0.1,0.1-0.1,0.3-0.1,0.4C162.2,131.2,162.3,131.4,161.9,132.1z M167.9,193c0.2,0.5,0.2,0.8-0.3,1.1
		c-1.1,0.5-1.6,1.4-1.5,2.6c0,0.2,0.2,0.5,0.3,0.5c0.7,0.2,1.4,0.3,2.3,0.5c0-1.3,0.3-2.3,1.2-3c0.7-0.5,1.4-0.6,2.3-0.5
		c-0.3,0.2-0.6,0.4-0.9,0.6c-0.3,0.2-0.5,0.3-0.8,0.4c-0.9,0.4-1.2,1.4-0.8,2.2c0.1,0.1,0.3,0.2,0.4,0.2c2-0.7,3.9-1.3,5.8-2.1
		c0.9-0.4,1.6-1.2,2.4-1.8c1.2-0.9,2.3-1.8,3.5-2.7c0.2-0.1,0.3-0.3,0.5-0.4c-0.6-0.3-1.2-0.5-1.7-0.8c-1.4-0.7-2.9-1.3-4.2-2.2
		c-0.8-0.5-1-0.2-1.5,0.3c-0.5,0.5-1.2,0.7-1.8,1c-1.9,0.9-3.8,1.7-5.6,2.7c-0.3,0.2-0.7,0.5-0.9,0.8c-0.5,0.9-1,1.8-1.4,2.7
		c0.1,0.1,0.1,0.1,0.2,0.2C166.2,194.5,167,193.8,167.9,193z M161,164.7c0.4,3.6,1.3,7.1,3.1,10.4c2.4,4.2,5.4,7.9,9.6,10.4
		c0.2,0.1,0.3,0.2,0.6,0.2c-0.6-0.8-1.1-1.6-1.7-2.4c-2-2.9-3.5-6-4.1-9.5c-0.2-1.2-0.2-2.3-0.2-3.5c-0.1-1.2-0.2-2.4-0.3-3.8
		c-0.4,0.6-0.6,1.2-1,1.6c-0.2,0.3-0.7,0.6-0.8,0.6c-0.3-0.2-0.6-0.6-0.8-0.9c-0.2-0.4-0.1-0.9-0.1-1.4c0-0.1,0-0.3,0-0.3
		c-1-0.5-1.9-1.1-2.5-2c-0.5-0.8-1-1.6-1.5-2.4c-0.1,0-0.1,0-0.2,0C161,162.7,160.9,163.7,161,164.7z M199.1,97.1
		c0.7-1.4,0.9-3.1,2.5-3.9c-0.1,0.3-0.1,0.7-0.3,1c-0.4,1-0.8,2-1.2,3c-0.2,0.4-0.1,0.7,0.1,1c0.6,0.6,1,1.4,1.2,2.2
		c0,0.1,0.1,0.2,0.2,0.2c0.1,0,0.3-0.1,0.3-0.2c0.3-0.6,0.5-1.2,0.8-1.7c0-0.1-0.1-0.2-0.1-0.4c-0.1-0.2-0.2-0.5-0.2-0.6
		c0.4-1.1,0.3-2.1,0-3.2c-0.1-0.3,0-0.6,0.1-0.9c0.5-1,0.6-2.1,0.4-3.2c0-0.1-0.2-0.3-0.3-0.3c-0.2,0-0.4,0.1-0.5,0.2
		c-0.7,1-1.6,1.8-2.1,2.9c-0.1,0.3-0.4,0.6-0.7,0.8c-0.7,0.5-1.4,1-2.3,1.6C198,96.2,198.5,96.6,199.1,97.1z M186.2,108.8
		c0.1-0.1,0.3-0.3,0.3-0.4c0-0.2-0.1-0.4-0.2-0.6c-0.1-0.1-0.3-0.2-0.3-0.3c-0.4-1.2-1.4-1.9-2.6-2c-1-0.1-2,0-3,0
		c-0.4,0-0.4,0.2-0.3,0.6c0.1,0.2,0.1,0.4,0.3,0.5c0.4,0.6,0.8,1.3,1,2c0.3,1,1.7,1.5,2.6,1c0.3-0.2,0.7-0.3,1.1-0.5
		c0.3-0.2,0.6-0.4,0.9-0.6C185.9,108.6,186.1,108.7,186.2,108.8z M181.6,83c-0.3,1.2-0.5,2.3-0.6,3.5c-0.1,1-0.6,1.9-1.1,2.7
		c-0.1,0.1-0.2,0.2-0.3,0.2c-0.1,0-0.1,0-0.2-0.1c0.2-0.8,0.4-1.6,0.6-2.4c-0.8,0.3-1.2,0.8-1.5,1.4c-0.3,0.7-0.4,1.5-0.5,2.2
		c-0.1,0.3,0.1,0.6,0.4,0.5c1.3-0.5,2.6-0.4,4-0.1c0-0.6,0-1.1,0-1.5c-0.1-1.6-0.2-3.1,0.1-4.6c0.2-0.8,0-1.7,0-2.6
		c-0.1,0-0.2-0.1-0.3-0.1C182,82.3,181.7,82.7,181.6,83z"/>
	<path d="M194.3,123.4c-0.2,0.1-0.5,0.2-0.7,0.2c0.1,0.2,0.2,0.4,0.4,0.7c0.2-0.3,0.3-0.5,0.5-0.7
		C194.4,123.5,194.4,123.4,194.3,123.4z"/>
	<path d="M188.7,111.6c0.1-0.1,0.4-0.2,0.5-0.1c0.2,0,0.5,0.1,0.6,0.3c0.5,0.4,0.9,0.9,1.3,1.4c1.1,1.4,2.2,2.9,2.8,4.7
		c0.2,0.6,0.3,1.2-0.1,1.9c-0.3-0.5-0.5-0.7-0.6-1.1c-0.2-0.5-0.2-1-0.5-1.4c-0.6-1.2-1.3-2.3-2-3.4c-0.3-0.5-0.7-0.6-1.2-0.4
		c-0.5,0.2-0.9,0.5-1.4,0.8c-0.6,0.3-1.2,0.6-1.9,0.7c-0.9,0.2-1.6,0.5-1.9,1.5c-0.3,1.1-1.1,1.8-2.3,2.1c-1.8,0.4-3.4-0.1-4.9-0.9
		c-1-0.5-1.6-1.4-1.7-2.5c-0.1-0.8,0-1.7,0-2.6c0-0.4,0.1-0.7,0-1.1c-0.3-1-0.6-2.1-1-3.1c-0.1-0.2-0.2-0.4-0.3-0.4
		c-1.2-0.2-2.4-0.4-3.6-0.6c-0.4-0.1-0.6,0.1-0.7,0.5c-0.1,0.3-0.2,0.6-0.8,0.3c0.1-0.4,0.2-1,0.5-1.3c0.7-0.5,1.5-0.6,2.4-0.5
		c0.9,0.2,1.8,0.2,2.7,0.2c0.6,0,1.1-0.1,1.7-0.2c0,0.4,0.2,0.9-0.3,1.1c-0.4,0.1-0.4,0.4-0.4,0.7c0.3,2.4,1.6,3.7,4,4.1
		c0.2,0,0.4,0,0.5-0.1c0.3-0.3,0.5-0.2,0.8,0.1c0.4,0.4,0.7,0.9,1.2,1.2c2,1.2,5.5,0.6,6.6-1.3C188.7,112.1,188.6,111.8,188.7,111.6
		z M179.7,113.4c-1.1-0.3-2.1-0.6-3.1-0.8c-0.9,1.6-0.2,3.3,1.7,4.3c0.4,0.2,0.9,0.2,1,0.8c0,0,0.1,0.1,0.2,0.1
		c1.2,0.2,2.3,0.2,3.4-0.4c0.2-0.1,0.4-0.4,0.5-0.6c0.2-0.5,0.3-1,0.4-1.5c-1-0.5-1.9-0.9-2.8-1.3c-0.5-0.2-0.8-0.3-1,0.3
		c-0.1,0.2-0.3,0.4-0.4,0.5c-0.1,0-0.1,0-0.2-0.1C179.5,114.3,179.6,113.9,179.7,113.4z"/>
	<path d="M191.9,105.6c-0.4,0-0.7-0.1-1-0.1c0,0.3,0,0.6,0,0.9c0.9,0.3,1.6-0.1,2.3-0.5c1-0.6,1.9-0.5,2.8,0.2
		c0.4,0.4,0.9,0.7,1.4,1.1c0.3-1.1-0.2-2.1-1.2-2.6c-1.2-0.6-2.4-0.5-3.7-0.3c-0.1,0-0.3,0.2-0.4,0.4C192,105,192,105.3,191.9,105.6
		z"/>
	<path d="M174.7,98.2c0.1,0.3,0.2,0.4,0.3,0.6c0.2,0.3,0.3,0.5,0.5,0.8c0.1,0.1,0.3,0.3,0.5,0.3c1.3,0.3,2.2,1,2.8,2.2
		c0.2,0.4,1,0.6,1.5,0.8c0.2,0,0.5-0.3,0.6-0.4c-0.8-0.9-1.4-1.6-2.1-2.4c-0.1-0.1-0.2-0.2-0.3-0.3
		C176.7,97.7,177.4,98.1,174.7,98.2z"/>
	<path d="M176.7,120.1c0.5,0.9,1.3,1.3,2.2,1.3c0.5,0,1-0.2,1.3-0.8c-0.2,0-0.3,0-0.4-0.1C178.8,120.3,177.7,120.2,176.7,120.1z"/>
	<path d="M170.8,112.1c-0.1-0.7-0.2-1.4-0.4-2c-0.1-0.3-0.2-0.8-0.6-0.5c-0.2,0.1-0.4,0.7-0.3,0.9c0.3,0.6,0.7,1.1,1,1.7
		C170.6,112.2,170.7,112.1,170.8,112.1z"/>
	<path d="M188.2,105.1c-0.8,0.2-0.9,0.6-0.9,1.2C187.8,106.1,187.9,105.7,188.2,105.1z"/>
</g>
<g>
	<path d="M227.7,79.1c1-1.9,1.1-3.9,0.5-5.9c-0.7-2.1-2.3-3.6-4.4-4.5c-1.3-0.6-2.7-0.7-4.2-0.5c-0.2,0-0.4,0.1-0.5-0.2
		c-0.5-1.5-1.2-2.8-2-4.1c-0.7-1.1-1.6-1.9-2.6-2.5c-1.7-1.1-3.6-1-5.4-0.5c-0.9,0.2-1.6,0.8-2.4,1.3c-1.1,0.7-1.9,1.8-2.4,3
		c-0.5,1-1,2.1-1.2,3.2c-0.4,1.7,0,3.4,0.4,5.1c0.6,2.8,1.5,5.6,2.6,8.3c0.1,0.3,0.3,0.7,0.4,1c0,0,0,0.1,0.1,0.1
		c0.1,0.2,0.1,0.5,0.2,0.7c0,0,0.1,0,0.1,0.1c0.4,0,0.7,0,1,0.1c0.1,0,0.1,0,0.1,0c0.7,0.1,1.4,0.2,2.1,0.2c2.2,0.1,4.3,0.3,6.5,0.4
		c2.4,0.1,4.7-0.1,6.9-1.3C225.2,82,226.7,80.9,227.7,79.1z M222.2,81.9c-2.3,0.8-4.7,1-7.1,0.9c-1-0.1-2.1,0-3.1-0.1
		c-1.4-0.1-2.8-0.3-4.1-0.5c-0.3,0-0.5-0.2-0.7-0.6c-1-2.3-1.6-4.6-2.2-7.1c-0.3-1.2-0.5-2.4-0.7-3.6c-0.3-1.6,0.1-3.1,0.8-4.6
		c0.2-0.5,0.5-0.9,0.9-1.5c0.7-0.6,1.4-1.4,2.2-1.9c1.1-0.7,2.4-0.9,3.7-0.7c1.1,0.2,2,0.6,2.8,1.3c0.7,0.6,1.2,1.4,1.7,2.2
		c0.5,0.9,0.8,1.9,1.1,2.9c0.1,0.3,0.1,0.6,0.1,0.9c0,0.6,0.3,0.9,0.9,0.6c0.8-0.4,1.7-0.6,2.6-0.4c0.9,0.2,1.8,0.4,2.6,0.8
		c2.1,1,3.2,2.7,3.5,5c0.1,1.1-0.4,2.1-0.9,3C225.4,80.1,224,81.2,222.2,81.9z"/>
</g>
<g>
	<path d="M214.2,40.3c-0.9-1.5-2.3-2.3-3.9-2.6c-1.8-0.3-3.4,0.2-4.9,1.3c-0.9,0.7-1.6,1.6-2,2.7c-0.1,0.1-0.1,0.3-0.3,0.3
		c-1.2-0.2-2.4-0.2-3.7-0.2c-1,0-1.9,0.4-2.8,0.8c-1.5,0.8-2.1,2.1-2.5,3.6c-0.2,0.7-0.1,1.5-0.1,2.2c0.1,1.1,0.5,2,1.1,2.9
		c0.5,0.7,1.1,1.5,1.7,2.1c1,0.9,2.4,1.3,3.7,1.7c2.2,0.7,4.5,1.2,6.8,1.4c0.3,0,0.6,0.1,0.9,0.1c0,0,0.1,0,0.1,0
		c0.2,0,0.4,0.1,0.6,0.1c0,0,0.1,0,0.1-0.1c0.1-0.3,0.3-0.5,0.5-0.7c0,0,0-0.1,0.1-0.1c0.3-0.5,0.7-0.9,1-1.4
		c0.9-1.5,1.9-2.9,2.8-4.4c1-1.6,1.8-3.4,1.8-5.4C215.3,43.1,215.1,41.7,214.2,40.3z M214,45.2c-0.3,1.9-1.1,3.7-2.2,5.3
		c-0.4,0.7-0.8,1.4-1.3,2.1c-0.6,0.9-1.3,1.8-2,2.7c-0.2,0.2-0.4,0.3-0.7,0.2c-2-0.2-3.9-0.7-5.8-1.2c-1-0.3-1.9-0.6-2.8-1
		c-1.2-0.5-2.1-1.3-2.9-2.4c-0.3-0.4-0.4-0.8-0.7-1.2c-0.2-0.7-0.4-1.5-0.5-2.3c-0.1-1.1,0.3-2,1-2.8c0.6-0.7,1.2-1.2,2-1.4
		c0.7-0.2,1.4-0.3,2.2-0.3c0.8,0,1.6,0.2,2.5,0.3c0.2,0,0.5,0.2,0.7,0.3c0.4,0.3,0.7,0.2,0.8-0.4c0.1-0.7,0.3-1.4,0.7-2
		c0.5-0.6,1-1.1,1.6-1.5c1.5-1.1,3.2-1.2,4.8-0.5c0.8,0.4,1.3,1.1,1.7,1.8C214,42.3,214.2,43.7,214,45.2z"/>
</g>
<g>
	<path d="M240.4,32.8c0.6-1.9,0.3-3.7-0.7-5.3c-1-1.8-2.7-2.8-4.7-3.2c-1.3-0.3-2.6-0.1-3.8,0.3c-0.2,0.1-0.3,0.2-0.5-0.1
		c-0.7-1.2-1.6-2.3-2.6-3.3c-0.8-0.8-1.7-1.4-2.8-1.8c-1.8-0.7-3.4-0.2-4.9,0.6c-0.7,0.4-1.3,1-1.9,1.6c-0.9,0.9-1.4,2-1.6,3.1
		c-0.2,1-0.5,2-0.5,3c0,1.6,0.6,3,1.2,4.4c1.1,2.4,2.3,4.8,3.8,6.9c0.2,0.3,0.4,0.6,0.6,0.8c0,0,0,0,0.1,0.1
		c0.1,0.2,0.2,0.4,0.3,0.6c0,0,0.1,0,0.1,0c0.3-0.1,0.6-0.2,0.9-0.1c0,0,0.1,0,0.1,0c0.6-0.1,1.3-0.1,1.9-0.2c2-0.3,3.9-0.5,5.9-0.8
		c2.2-0.3,4.2-1,6-2.4C238.8,35.8,239.9,34.5,240.4,32.8z M236.1,36.2c-1.9,1.1-4,1.7-6.2,2c-0.9,0.1-1.9,0.4-2.8,0.5
		c-1.3,0.1-2.5,0.2-3.8,0.3c-0.3,0-0.5-0.1-0.7-0.4c-1.3-1.9-2.3-3.9-3.3-5.9c-0.5-1-0.8-2.1-1.2-3.1c-0.5-1.4-0.5-2.8-0.1-4.2
		c0.1-0.5,0.3-0.9,0.5-1.5c0.5-0.7,1-1.5,1.6-2.1c0.9-0.8,1.9-1.3,3.2-1.3c1,0,1.9,0.2,2.8,0.7c0.7,0.4,1.4,1,1.9,1.6
		c0.6,0.7,1,1.6,1.5,2.4c0.1,0.2,0.2,0.5,0.3,0.8c0.1,0.6,0.4,0.7,0.9,0.4c0.7-0.5,1.4-0.8,2.3-0.8c0.8,0,1.7,0,2.5,0.2
		c2,0.5,3.4,1.8,4,3.8c0.3,1,0.1,1.9-0.3,2.9C238.6,34,237.5,35.3,236.1,36.2z"/>
</g>
<g>
	<path d="M219.1,7.5c-0.7-1.1-1.8-1.6-3-1.8c-1.3-0.2-2.5,0.3-3.5,1.1c-0.7,0.6-1.1,1.3-1.4,2.1c0,0.1,0,0.3-0.2,0.2
		c-0.9-0.1-1.8-0.1-2.7,0c-0.7,0.1-1.4,0.3-2,0.7c-1.1,0.6-1.5,1.6-1.7,2.7c-0.1,0.5,0,1.1,0,1.6c0.1,0.8,0.5,1.5,0.9,2.1
		c0.4,0.5,0.8,1.1,1.3,1.5c0.8,0.6,1.8,0.9,2.8,1.1c1.7,0.4,3.4,0.7,5.1,0.8c0.2,0,0.4,0,0.7,0c0,0,0,0,0.1,0c0.1,0,0.3,0,0.4,0.1
		c0,0,0,0,0.1-0.1c0.1-0.2,0.2-0.4,0.3-0.5c0,0,0-0.1,0-0.1c0.2-0.4,0.5-0.7,0.7-1.1c0.6-1.1,1.3-2.2,1.9-3.3c0.7-1.2,1.2-2.5,1.2-4
		C220,9.5,219.8,8.5,219.1,7.5z M219.1,11.1c-0.2,1.4-0.7,2.7-1.4,4c-0.3,0.5-0.6,1.1-0.9,1.6c-0.4,0.7-0.9,1.4-1.3,2.1
		c-0.1,0.2-0.3,0.2-0.5,0.2c-1.5-0.1-2.9-0.4-4.3-0.7c-0.7-0.2-1.4-0.4-2.1-0.6c-0.9-0.3-1.6-0.9-2.2-1.6c-0.2-0.3-0.4-0.5-0.6-0.9
		c-0.1-0.5-0.4-1.1-0.4-1.7c-0.1-0.8,0.1-1.5,0.6-2.1c0.4-0.5,0.9-0.9,1.5-1.1c0.5-0.2,1-0.3,1.6-0.3c0.6,0,1.2,0.1,1.8,0.2
		c0.2,0,0.4,0.1,0.5,0.2c0.3,0.2,0.5,0.1,0.5-0.3c0-0.5,0.2-1.1,0.5-1.5c0.3-0.4,0.7-0.8,1.1-1.2c1.1-0.8,2.3-1,3.5-0.5
		c0.6,0.2,1,0.7,1.3,1.3C219,8.9,219.3,10,219.1,11.1z"/>
</g>
</svg>
