<?xml version="1.0" encoding="utf-8"?>
<!-- Generator: Adobe Illustrator 17.1.0, SVG Export Plug-In . SVG Version: 6.00 Build 0)  -->
<!DOCTYPE svg PUBLIC "-//W3C//DTD SVG 1.1//EN" "http://www.w3.org/Graphics/SVG/1.1/DTD/svg11.dtd">
<svg version="1.1" id="Layer_1" xmlns="http://www.w3.org/2000/svg" xmlns:xlink="http://www.w3.org/1999/xlink" x="0px" y="0px"
	 viewBox="0 0 288 216" enable-background="new 0 0 288 216" xml:space="preserve">
<g>
	<path d="M136.9,114.4c-1.5-2.2-2.8-4.6-4.5-6.7c-0.1-0.1-0.2-0.3-0.3-0.4c-0.2,0.6-0.5,1.2-0.8,1.8c-0.3,0.4-0.6,0.7-0.9,1
		c1.6,2.8,3.2,5.6,4.7,8.4c1,1.7,0.6,2.5-1.3,3.1c-2.5,0.8-5.7-0.5-7.1-2.8c-0.8-1.4-1.6-2.8-2.4-4.2c-0.2,0.1-0.4,0.1-0.6,0.1
		c-0.9,0-1.9-0.1-2.8-0.3c0.7,1.3,1.4,2.6,2.1,3.9c2.1,4,4.1,7,9,6.5l3.9-1.2c0.9-1.4,1.7-2.8,2.6-4.2L136.9,114.4z"/>
	<path d="M96.4,66c-6.6-11.8-12.9-23.8-19.3-35.6c-0.5-0.8-1.3-1.5-1.9-2.2c-1.1-1.2-2.5-2.3-3.4-3.7c-1.1-1.5-0.7-3.3,0.7-4.1
		c1.6-0.8,2.7,0,3.6,1.3c0.6,0.9,1,1.9,1.5,2.8c0.1,6.7,4.9,11.1,8,16.1c8.1,13.3,16.5,26.5,25,39.7c0.1-0.2,0.2-0.4,0.4-0.6
		c0.3-0.4,0.8-0.6,1.2-0.6c-4.3-6.7-8.5-13.4-12.6-20.1c-5.6-9-11.1-18.1-16.7-27.1c-1.7-2.7-2.6-5.4-2.9-8.5
		c-0.4-4.3-5.5-6.9-9.3-4.7c-0.9,0.6-1.7,1.8-2.1,2.8c-0.9,2.6,0.7,4.5,2.4,6.3c1.8,1.8,3.8,3.6,5,5.8c5.3,9.2,10.3,18.6,15.5,27.8
		c2.9,5.3,5.9,10.6,8.8,15.8c0.2-0.1,0.5-0.2,0.8-0.2c0.6,0,1.2,0.2,1.8,0.4C100.7,73.6,98.6,69.8,96.4,66z"/>
</g>
<g>
	<g id="XMLID_15_">
		<g>
			<path d="M141.1,77c0,1.8-1.3,3.3-2.9,3.3c-1.5,0-2.7-1.4-2.7-3.1c0-1.6,1.3-2.9,2.9-2.9C139.9,74.3,141.1,75.6,141.1,77z"/>
			<path d="M134.5,73.8c1-1,2.1-1.8,3.6-1.9c2.5-0.1,4.5,1.5,5.2,4c0.8,3-1,6.1-4.1,6.7c-0.3,0.1-0.7,0.1-1,0.1
				c-2.2,0-4.1-1.4-4.9-3.4C132.5,77.5,133,75.4,134.5,73.8z M138,72.7c-2-0.3-4.4,2.4-4.3,4.7c0.1,2.5,2.1,4.6,4.6,4.5
				c2.5,0,4.4-2,4.3-4.6C142.6,74.7,140.6,72.7,138,72.7z"/>
			<path d="M137.8,58.7c-2-1.1-4.2-1.3-6.4-0.9c-0.2,0-0.5,0.1-0.7,0.1c1.8-1.1,3.7-1.3,5.7-0.7c3.3,0.9,6.5,3.9,7.3,7.1
				c-0.1-0.2-0.2-0.3-0.3-0.5C142,61.7,140.1,60,137.8,58.7z"/>
			<path d="M133.1,68.4c1.5-1,3.1-1.4,4.9-1.2c2.2,0.2,4,1.1,5.7,2.4c0.6,0.5,1.2,1.1,1.8,1.7c-0.1-0.3-0.2-0.5-0.4-0.6
				c-1.5-1.8-3.3-3-5.4-3.7c-1.4-0.5-2.8-0.5-4.2-0.1c-1.8,0.5-3.2,1.5-4.4,2.9C131.7,69.4,132.4,68.8,133.1,68.4z M129.3,72
				c0.8-2.9,4.1-5.6,7.2-5.9c2-0.2,3.9,0.3,5.6,1.4c1.6,1.1,3,2.4,4.1,4c3,4.3,1.5,10.9-4.1,13.2c-1.3,0.5-2.7,0.8-4.1,0.8
				c-2.6,0-5-0.6-6.9-2.5c-2.7-2.7-3.3-5.9-2.2-9.5C129,73,129.2,72.5,129.3,72z M131.1,71.6c-3.4,4.1-1.5,9.1,1.2,11.1
				c3.6,2.7,9.4,2.2,12.4-1.2c2.2-2.4,2.5-5.6,0.7-8.3c-0.6-1-1.5-1.9-2.4-2.7c-1.7-1.5-3.6-2.3-6.1-2.4c-0.3,0.1-0.8,0.1-1.3,0.2
				C133.7,68.8,132.3,70.1,131.1,71.6z"/>
			<path d="M129.9,93.9c-0.2,0.1-0.4,0.2-0.5,0.4c-0.8,1.6-1.1,3.4-0.8,5.2c2.7,0.2,6-1.1,7.7-4.2c1.1-2.1,1.4-4.3,0.4-6.7
				c-0.5,0.6-0.8,1.1-1.3,1.5C133.8,91.7,131.9,93,129.9,93.9z M118.1,93.9c2.8,2.6,5.7,4.9,9.7,5.6c-0.2-1.8,0.2-3.4,0.9-5.1
				c-0.7,0.2-1.2,0.3-1.8,0.5c-2.2,0.5-4.3,0.5-6.3-0.5C119.7,93.9,118.9,94,118.1,93.9z M121.2,94c1.1,0.6,3,0.7,4.4,0.5
				c3.4-0.6,6.3-2.1,8.8-4.4c0.7-0.6,1-1.5,1.3-2.5C131.4,91.1,126.8,93.4,121.2,94z M125.8,100c-3.5-1.1-6.2-3.3-8.6-5.9
				c-0.3-0.3-0.6-0.5-1-0.6c-0.9-0.4-1.8-0.9-2.7-1.4c-0.1-0.1-0.2-0.2-0.2-0.3c0,0,0-0.1,0.1-0.1c0.1,0,0.3,0.1,0.4,0.1
				c3.7,1.9,7.6,1.7,11.5,0.6c3.5-1.1,6.7-2.9,9.6-5.1c0.1,0,0.1-0.1,0.1-0.1c1.2-0.8,0.9-1,1.8,0.3c1.9,2.8,1.6,5.6,0.1,8.4
				C134.8,99.7,130.3,101.4,125.8,100z"/>
			<path d="M207.6,68.2c-1.4-0.4-2.9-0.5-4.3-0.4c-2.2,0.2-4.4,0.6-6.6,0.9c-2.9,0.4-5.8,0.8-8.7,1.1c-1.4,0.2-2.8,0.2-4.2,0.3
				c0,0,0,0,0,0.1c-0.2,0.4-0.4,0.8-0.6,1.2c4.3-0.3,8.6-0.5,12.9-1.3c1.2-0.2,2.4-0.4,3.6-0.6c0.4,0,0.9,0,1.3,0.2
				c0.6,0.2,0.9,0.7,0.7,1.3c-0.2,0.7-0.6,1.3-0.9,1.8c-0.1,0.1-0.3,0.2-0.4,0.2c-1.8,0.1-3.7,0.2-5.5,0.3
				c-4.3,0.3-8.7,0.7-12.9,1.6c-0.1,0.1-0.1,0.3-0.2,0.4c-0.3,0.5-1,0.1-0.9-0.3c0,0,0,0,0,0c0.2-1.1,0.2-1.1-0.9-1.3
				c-1.4-0.2-2.7,0.1-4,0.4c-0.2,0-0.4,0.1-0.8,0.2c0.6-0.7,1-1.3,1.5-1.9c0-0.1,0-0.2,0.2-0.4c0.4-0.3,0.7-0.7,1.1-1.1
				c0.1-0.2,0.2-0.5,0.1-0.8c0-0.3,0.1-0.4,0.3-0.4c-0.6,0.1-1.2,0.2-1.8,0.3c0,0,0-0.1,0-0.1c0-0.1,0.1-0.2,0.1-0.4
				c0.5-1.2,0.6-2.4,0.6-3.7c0-1.2-0.5-2.2-1.1-3.1c-0.2-0.3-0.4-0.7-0.3-1c0.3-0.8,0.2-1.5-0.3-2.2c-0.2-0.3-0.4-0.7-0.7-1
				c-1.6-2.1-3.7-3.2-6.4-2.8c-0.9,0.1-1.8,0.2-2.9,0.4c0.1-0.4,0.1-0.8,0.2-1.1c0.2-1.1,0.2-2.2,0.7-3.3c0.5-1,0.7-2,0.7-3.1
				c0-0.8,0-1.5,0.1-2.2c0.1-1.4,0.1-2.7-0.5-4c-0.3-0.6-0.4-1.3-0.4-2.1c0.2-1.9-0.4-3.5-2-4.5c-1-0.7-1.8-1.4-2.4-2.4
				c-0.6-1-1.5-1.5-2.7-1.7c-1-0.1-1.8-0.4-2.4-1.3c-0.4-0.6-0.7-1.2-1.1-1.8c-0.4-0.7-1.1-1.3-1.9-1.3c-1.2,0-2.3,0.1-3.4,0.3
				c-5,1-9.3,3.3-13.1,6.6c-3.1,2.7-5.6,5.8-7.3,9.6c-0.1,0.2-0.3,0.3-0.4,0.4c-5.9,2.5-9.5,7-11.8,12.8c-0.1,0.2-0.1,0.3-0.3,0.4
				c-2.3,1.5-3.6,3.8-4.4,6.3c-0.3,1.1-0.5,2.2-0.5,3.3c0,0.9-0.1,1.8-0.4,2.5c-0.9,2.3-1.1,4.7-0.9,7.2c0.1,0.8,0.4,1.6-0.4,2.1
				c-0.1,0-0.2-0.1-0.3-0.1c-2.7-1.4-5.6-2.3-8.7-2.4c-1,0-2.1,0-3.1,0.2c-0.6,0.1-0.8,0.4-0.6,1c0.1,0.3,0.2,0.6,0.3,0.9
				c0.6,1.5,0.8,3.1,0.5,4.7c-0.3,1.7-0.7,3.4-1.1,5.1c-0.4,1.4-0.5,2.7-0.2,4.1c0.3,1.3,0.5,2.5,0.6,3.8c0.1,1.2,0,2.5,0,3.7
				c0,1.3,0.2,2.5,1.1,3.5c0.7,0.8,1.3,1.7,1.7,2.7c1,2.4,2.8,4.1,5.2,5.1c1.2,0.5,2.6,0.8,3.9,1.1c1.8,0.4,3.7,1,5.6,1
				c0.9,0,1.7,0.3,2.4,0.8c0.5,0.4,1,0.7,1.5,1.1c2.2,1.3,4.4,1.2,6.4-0.3c0.9-0.7,1.8-1.5,2.7-2.3c1.4-1.3,2.4-2.7,3-4.5
				c0.1-0.3,0.2-0.6,0.3-0.8c1.7,0.1,3.3,0.4,4.9,0.3c2.4,0,4.7-0.2,7.1-0.4c1.1-0.1,1.5,0.1,1.8,1.2c0.2,1,0.4,2,0.5,3
				c0.3,2.3,1.4,4,3.5,5c1.5,0.7,3.1,0.9,4.7,0.4c1.3-0.4,1.8-1.4,1.3-2.7c-0.3-0.7-0.7-1.4-1.2-2c-1.1-1.3-2.4-2.4-3.6-3.7
				c-0.4-0.4-0.8-0.8-1-1.3c-0.4-0.7-0.1-1.1,0.6-1.3c0.3-0.1,0.5-0.1,0.8-0.2c0,0.1,0.1,0.2,0.1,0.3c0.2,0.5,0.4,1.1,0.6,1.6
				c-0.1-1.2,0.2-2.5,0.7-3.7c-2.4,0.7-4.9,1.4-7.5,1.8c0.1-0.1,0.2-0.2,0.3-0.2c3.8-2,6.3-5.2,8.1-8.9c1.7-3.6,3.1-7.3,3.6-11.2
				c0.2-1.4,0.3-2.8,0.2-4.2c0-1-0.1-1.9-0.1-2.9c-0.3-3.6-1.3-7.1-2.3-10.6c-0.7-2.4-1.4-4.8-1.9-7.3c-0.8-3.5-2.6-6.2-5.5-8.3
				c-3.4-2.5-7.2-4.2-11.2-5.4c-1.9-0.6-3.9-1-5.9-1.5c0.6-0.2,1.2-0.4,1.9-0.6c7.1-2,14-1.8,20.8,1.1c2.1,0.9,3.9,2.1,5.4,3.7
				c0.2,0.2,0.4,0.5,0.6,0.8c1.8,4,2.5,8.3,1.9,12.7c-0.3,2.5-0.6,5.1-0.8,7.6c-0.2,2.5,0.4,4.8,1.4,7.1c0.4,0.8,0.7,1.6,1,2.5
				c0.1,0.3-0.1,0.6-0.2,1c-0.9-0.6-1.6-0.6-2.4,0c0.7,0.2,1.2,0.4,1.9,0.6c-0.2,0.4-0.5,0.7-0.7,1.1c-0.5,0.9-0.4,1,0.3,1.5
				c0.2,0.1,0.3,0.2,0.4,0.3c-0.3,0.4-0.6,0.7-1,1.1c0.6,0.2,1.1-0.1,1.5-0.4c0.1-0.1,0.4-0.2,0.5-0.1c0.1,0.1,0.3,0.2,0.4,0.4
				c0.2-0.1,0.5-0.1,0.6,0.2c0.1,0.1,0.1,0.2,0.2,0.4c0,0,0,0,0,0c0,0,0-0.1,0-0.1c0.1,0,0.2,0.1,0.3,0.1c1.1,0.6,2.2,1.3,3.3,1.9
				c0,0,0,0,0,0c0.4,0.2,0.8,0.4,1.2,0.7c0,0,0,0,0,0c0.4,0.2,0.8,0.5,1.2,0.7c0,0,0,0,0,0c0.7,0.4,1.3,0.8,2.1,0.5
				c0.7-0.3,1.1-0.9,1.4-1.6c0,0,0.1,0,0.1,0c-0.4,2.7-0.8,5.3-1.2,8.1c-1-0.8-1.8-0.5-2.6,0c-0.3,0.7-0.7,1.3-1,2
				c0.2-0.1,0.4-0.2,0.6-0.3c0.7-0.4,0.9-0.4,1.5,0.2c0.6,0.6,1,1.3,1.1,2.2c0,0.2,0,0.4-0.1,0.5c-0.2,0.5-0.4,0.5-0.8,0.2
				c-0.8-0.7-1.5-1.5-2.3-2.2c-0.1-0.1-0.1-0.2-0.2-0.3c-0.1,0.1-0.1,0.2-0.2,0.4c0.1,0.1,0.2,0.2,0.3,0.3c0.7,0.8,1.5,1.5,2.2,2.2
				c0.7,0.7,1.1,2.4,0.6,3.3c-0.2,0.3-0.4,0.6-0.9,0.5c-0.2,0-0.4,0-0.8,0.1c-0.8-1.7-1.5-3.4-2.3-5.2c-0.1,0.1-0.2,0.3-0.2,0.4
				c0.8,1.8,1.6,3.5,2.3,5.2c0.1,0.1,0.1,0.3,0,0.4c-0.3,0.2-0.6,0.5-1,0.6c-0.3,0.1-0.7-0.1-0.8-0.4c-0.5-1.4-1-2.9-1.5-4.3
				c-0.1,0.2-0.2,0.3-0.3,0.5c0.3,0.9,0.6,1.9,0.9,2.9c-0.3,0-0.7,0.1-1,0c-0.3-0.1-0.7-0.3-1-0.7c-0.2,0.5-0.4,0.9-0.5,1.4
				c-0.1,0.3-0.2,0.5-0.4,0.7c0.1,0.1,0.2,0.2,0.3,0.3c0.7,0.6,1.3,1.4,2.1,1.7c2.8,1.4,6,0,7.2-3c1.1-2.6,0.7-5.1-0.6-7.5
				c-0.1-0.2-0.2-0.3-0.3-0.5c0.1-0.1,0.1-0.1,0.2-0.2c0.3,0.4,0.6,0.7,0.8,1.1c1.1,1.5,2,3.1,3.3,4.4c1.1,1,2,2.3,3.1,3.3
				c1,1,2.2,1.8,3.6,2.3c1,0.3,1.9,0.3,2.8-0.2c0.4-0.2,0.8-0.7,1.2-0.8c0.4-0.1,0.9,0.3,1.4,0.4c1.6,0.4,2.8-0.3,3.4-1.9
				c0-0.1,0.1-0.2,0.1-0.3c0.4,0.1,0.8,0.1,1.1,0.2c2.5,0.3,4.1-1.1,4.4-3.6c0-0.5,0.2-0.9,0.6-1.3c0.8-0.7,1.3-1.6,1.4-2.6
				c0.1-0.6,0.1-1.3,0-1.9c0-0.5,0.1-0.7,0.6-0.9c0.3-0.1,0.6-0.2,0.9-0.3c2.8-1,4.2-4,3-6.8c-0.2-0.4-0.1-0.6,0.1-0.9
				c0.5-0.6,0.8-1.4,0.7-2.1c-0.2-0.8-0.4-1.6-0.8-2.3c-0.5-1-0.7-2-0.4-3.2c0.5-1.7,0.7-3.5,0-5.2c-0.1-0.2,0.1-0.5,0.2-0.6
				c0.9-0.8,1.4-1.9,1.4-3.1c0-0.9,0.4-1.6,1.3-2c0.2-0.1,0.4-0.3,0.8-0.6C208.4,68.6,208,68.4,207.6,68.2z M147.5,109.9
				c0.8,1.4,1.4,2.7,2.1,4.1C148.2,113.8,147.6,112.2,147.5,109.9z M150.6,109.3c0.1,0.1,0.3,0.2,0.4,0.3c0.9,0.9,1.8,1.8,2.6,2.8
				c0.5,0.5,0.5,1,0.1,1.6c-1.1-1.6-2.1-3.1-3.2-4.7C150.5,109.4,150.6,109.4,150.6,109.3z M149,106c-0.4,1.2,0.4,2,0.9,2.9
				c0.8,1.2,1.4,2.5,2.1,3.7c0.3,0.6,0.8,1.1,1.2,1.7c-0.5,0-1-0.1-1.3-0.5c-1.5-1.8-2.7-3.9-3.6-6c-0.2-0.5-0.4-1-0.6-1.5
				C148.2,106.2,148.5,106.1,149,106z M147.5,106.4c1,2.9,2.4,5.6,4.3,8.1c-0.3,0-0.6,0-0.8-0.2c-0.5-0.3-0.9-0.6-1.2-1.1
				c-0.8-1.5-1.6-3-2.4-4.4c-0.4-0.7-0.7-1.4-1-2.2C146.7,106.5,147.1,106.4,147.5,106.4z M112.6,70.6c0.5-1.4,1.2-2.6,2.5-3.5
				c1.1-0.7,2.3-0.9,3.6-0.6c0.2,0,0.4,0.2,0.4,0.3c0.5,1.3,0.8,2.6,0.8,4.1c-0.1-0.2-0.1-0.2-0.2-0.2c-1.3-2.1-3.2-2.3-4.8-0.5
				c-1.2,1.4-1.6,3.1-1.8,4.9c-0.1,1.3,0.1,2.5,0.5,3.7c0.1,0.4,0.3,0.7,0.5,1c0.6,0.8,1.3,1.4,2.5,1.3c-0.8,0.8-1.5,1.7-2.3,2.6
				c-0.8-1.3-1.3-2.5-1.7-3.9C111.8,76.8,111.5,73.7,112.6,70.6z M113.4,67.1c1-1.7,2.8-2.3,4.1-1.6c-0.6,0.1-1.4,0.2-2.1,0.4
				C114.7,66.2,114.1,66.7,113.4,67.1z M115.6,76.9c0.4,1.3,1.1,1.8,2.6,1.6c-0.3,0.5-0.5,1-0.9,1.5c-0.4,0.6-1.5,0.5-2.1,0
				c-0.7-0.6-1-1.5-1.1-2.4c-0.4-2-0.2-3.9,0.7-5.8c0.3-0.7,0.8-1.3,1.4-1.7c0.9-0.7,1.9-0.6,2.6,0.2c0.7,0.8,1.2,1.8,1,3
				c-0.1-0.3-0.2-0.4-0.3-0.5c-0.8-1.3-2.3-1.4-3.2-0.1c-0.6,0.9-0.8,2-0.8,3C115.4,76.2,115.5,76.6,115.6,76.9z M102.7,78.3
				c0.3-0.4,0.7-0.7,1.4-0.5c2.2,0.4,4.2,1.1,6.1,2.2c-0.3,1.2-0.6,2.2-0.8,3.3c-0.1,0.4-0.3,0.3-0.5,0.3c-1.6-0.3-3.1-0.6-4.7-0.8
				c-1-0.1-1.5-0.8-1.8-1.6C102.1,80.2,102,79.2,102.7,78.3z M102.7,83.4c0.4-0.2,0.8-0.2,1.3-0.1c1.7,0.3,3.3,0.6,5,0.9
				c0,0,0.1,0,0.2,0.1c0,0.6-0.1,1.2-0.1,1.8c0,0.1-0.2,0.3-0.3,0.3c-2.1,0.5-4.2,0.5-6.3,0.4c-0.2,0-0.4-0.1-0.5-0.2
				C100.9,85.6,101.3,83.9,102.7,83.4z M102,87.7c0.1-0.1,0.3-0.1,0.5-0.1c2.1,0.2,4.3,0,6.4-0.4c0,0,0.1,0,0.1,0
				c0,0.7,0.1,1.5,0.1,2.2c0,0.1-0.1,0.3-0.2,0.3c-2.2,1.1-4.3,2.3-6.5,3.4c-0.2,0.1-0.5,0-0.6,0C99.8,92,100,88.7,102,87.7z
				 M101.4,94.6c0.1-0.2,0.3-0.4,0.6-0.5c2.4-1.2,4.8-2.4,7.3-3.6c0.1,0.5,0.3,1,0.4,1.6c0,0.2-0.2,0.4-0.3,0.5
				c-2.1,1.6-4.1,3.3-5.9,5.3c-0.4,0.5-0.9,1-1.3,1.5C100.6,98,100.3,96.2,101.4,94.6z M105.3,104.9c-1.1,0-2-0.4-2.8-1.2
				c-1-0.9-1-2.5-0.1-3.6c1.8-2.2,3.8-4.1,5.9-6c0.5-0.4,1-0.9,1.5-1.3c0.5,0.9,0.9,1.8,1.4,2.8c0.1,0.1-0.1,0.4-0.2,0.6
				c-1.3,2.1-2.7,4.1-4,6.2c-0.5,0.7-0.8,1.5-1.3,2.3C105.7,104.8,105.5,104.9,105.3,104.9z M109.8,108.7c-1.8,0.4-3.5-0.7-3.8-2.6
				c0-0.3,0.1-0.8,0.3-1c1.4-2.3,2.8-4.6,4.1-6.9c0.4-0.6,0.8-1.2,1.2-1.9c0.6,0.7,1.1,1.3,1.7,2c0.1,0.1,0,0.3,0,0.4
				c-1.3,3.2-2.3,6.4-3.1,9.8C110.1,108.5,109.9,108.7,109.8,108.7z M115.1,109.2c0,0.1-0.1,0.3-0.2,0.4c-0.9,0.3-1.8,0.5-2.7,0.7
				c-0.3,0.1-0.7-0.1-1-0.2c-0.7-0.3-0.8-0.6-0.6-1.3c1-3.2,1.9-6.4,2.9-9.6c0-0.1,0.1-0.2,0.1-0.3c0.8,0.6,1.5,1.2,2.1,1.8
				c0.1,0.1,0.2,0.4,0.2,0.5C115.6,103.8,115.2,106.4,115.1,109.2z M118.8,110.6c-1,0.6-2.4,0.2-3-0.8c-0.1-0.1-0.1-0.3-0.1-0.5
				c0.3-2.7,0.5-5.4,0.8-8.1c0,0,0-0.1,0.1-0.1c0.7,0.4,1.4,0.8,2,1.2c0.1,0.1,0.2,0.3,0.2,0.5c-0.1,2.4-0.1,4.9,0.2,7.3
				C119.1,110.3,118.9,110.5,118.8,110.6z M124.2,110.5c-0.1,0.3-0.3,0.5-0.5,0.8c-0.5,0.7-1.2,1.3-2.2,1c-1-0.3-1.8-1-1.9-2.1
				c-0.2-2.4-0.3-4.9-0.4-7.4c1.3,0.6,2.3,1,3.3,1.5c0.1,0.1,0.2,0.3,0.3,0.4c0.5,1.7,0.9,3.5,1.4,5.2
				C124.3,110.1,124.3,110.3,124.2,110.5z M127.3,108.3c-0.4,0.6-0.8,1.2-1.3,1.7c-0.5,0.4-1,0.3-1.2-0.3c-0.6-1.7-1.1-3.3-1.6-5.1
				c1.5,0.5,2.8,0.9,4.1,1.3c0.1,0,0.3,0.2,0.3,0.4C127.8,107,127.6,107.7,127.3,108.3z M135.3,105.8c-0.1,0.1-0.4,0.2-0.6,0.2
				c-4.3-0.4-8.3-1.4-12.3-3.1c-2.7-1.2-5.3-2.6-7.5-4.6c-3.1-2.8-4.7-6.3-4.8-10.5c-0.1-2.7,0.4-5.3,1.2-7.8c0-0.1,0.1-0.1,0.1-0.3
				c0.5,1.7,1.1,3.3,2.2,4.6c-0.2,0.3-0.4,0.5-0.6,0.7c0,0,0.1,0.1,0.1,0.1c0.4-0.3,0.9-0.5,1.4-0.8c2.3-1.7,3.7-4,4.8-6.6
				c1-2.4,1.5-4.8,1.3-7.4c-0.1-1.7-0.4-3.3-1.7-4.6c-1.4-1.6-3.4-1.7-5.1-0.4c-0.1,0-0.1,0.1-0.3,0.2c0.2-0.6,0.3-1,0.4-1.5
				c0.5-1.7,1.3-3.3,2.5-4.6c1.2-1.4,2.8-2.1,4.6-2.5c0.3-0.1,0.7,0,1,0.1c0.8,0.2,1.5,0.5,2.3,0.7c0.2,0.1,0.3,0.1,0.5,0.1
				c-1.7-1.4-3.6-2.3-6-1.4c0.2-0.5,0.4-0.9,0.6-1.2c0.5-0.9,1.1-1.8,1.6-2.7c0.2-0.3,0.4-0.4,0.8-0.5c2.7-0.5,5.4-0.1,8.1,0.3
				c1.9,0.3,3.9,0.6,5.8,0.7c4.3,0.3,7.4,2.4,9.9,5.8c1.1,1.5,1.8,3.1,2.5,4.8c1.4,3.1,3,6.2,3.9,9.5c1.3,4.3,1.8,8.6,1.5,13
				c-0.5,6.3-3.2,11.5-7.9,15.6c-1.4,1.3-3.3,1.7-5.1,2.1c-1.1,0.2-2.2,0.3-3.3,0.5C136.6,104.7,135.9,105,135.3,105.8z M143.1,49.9
				c2.1,1,4.1,2.3,5.8,3.9c1.7,1.6,2.9,3.5,3.4,5.8c0.8,3.6,1.9,7.1,3,10.6c1.3,4.2,1.8,8.5,1.6,12.8c-0.2,3.3-1.1,6.5-2.3,9.6
				c-1.1,3-2.5,5.8-4.6,8.2c-1.9,2.3-4.3,3.9-7.3,4.7c-2.1,0.6-4.2,0.6-6.3,0.5c-0.2,0-0.3-0.1-0.6-0.1c0.8-0.7,1.5-0.8,2.4-1
				c1.3-0.2,2.6-0.3,3.8-0.6c2.7-0.6,4.8-2.1,6.6-4.2c2.9-3.4,4.9-7.3,5.6-11.7c0.5-2.6,0.5-5.3,0.2-7.9c-0.3-3.8-1.2-7.4-2.6-10.9
				c-0.4-1.1-0.9-2.1-1.4-3.1c-1-2-1.9-4-2.9-6.1c-1.3-2.7-3.3-4.8-5.8-6.4c-1.6-1-3.4-1.3-5.3-1.6c-3.2-0.4-6.3-0.8-9.5-1.3
				c-1.5-0.2-3.1,0-4.6,0.2c-0.1,0-0.2,0-0.4,0.1c0.4-0.5,0.7-0.8,1-1.2c1.6-1.8,3.4-3.3,5.6-4.3c0.4-0.2,0.8-0.3,1.2-0.2
				C134.4,46.5,138.9,47.8,143.1,49.9z M180.4,75.9c0-0.1,0.2-0.3,0.4-0.3c2.2-0.4,4.4-0.8,6.6-1c4.5-0.4,9.1-0.7,13.6-1
				c0.4,0,0.7,0.2,0.8,0.5c0.2,0.6,0.1,1.2-0.2,1.7c-0.5,0.8-1.1,1.5-1.7,2.3c-0.1,0.1-0.4,0.2-0.6,0.2c-4-0.1-8-0.3-12-0.3
				c-2.2,0-4.4,0.4-6.6,0.6c-0.1,0-0.2,0-0.4,0C180.4,77.6,180.4,76.7,180.4,75.9z M201.3,82.3c-0.1,0.1-0.3,0.1-0.5,0.1
				c-3.1-0.7-6.1-1.4-9.2-2.1c-3.1-0.6-6.3-1-9.5-0.8c-0.5,0-0.9,0.1-1.4,0.1c0-0.2-0.1-0.3-0.1-0.5c0.2,0,0.3-0.1,0.4-0.1
				c1.4-0.1,2.7-0.3,4-0.4c4.7-0.3,9.3-0.1,14,0.3c0.3,0,0.5,0,0.8,0c0.9-0.1,1.3,0.5,1.6,1.2C201.9,80.8,201.8,81.6,201.3,82.3z
				 M177.3,76.1c0.4,1.1,0.3,2.1,0.1,3.2c0,0.1-0.3,0.3-0.5,0.3c-2.1,0.3-4.1,0.5-6.2,0.8c-0.6,0.1-1.1,0.1-1.8,0.2
				c1.9-1.9,3.9-3.4,6.3-4.2c0.5-0.2,1-0.4,1.6-0.5C177,75.9,177.3,76,177.3,76.1z M172.3,70c-0.1,0-0.3,0-0.4-0.1
				c-0.4-0.5-0.9-0.9-1.3-1.4c1-0.3,2-0.6,3-0.8c0.1,0,0.4-0.1,0.5,0c0.1,0.2,0.3,0.5,0.2,0.6c-0.3,0.4-0.6,0.9-1,1.2
				C173.1,69.7,172.7,69.8,172.3,70z M172.4,71.7c-0.4,0.2-0.8,0.5-1.2,0.7c-0.1-0.6-0.1-1.1-0.2-1.7
				C171.5,71.1,171.9,71.4,172.4,71.7z M174.2,66.6c0,0.2-0.1,0.4-0.3,0.5c-1,0.5-2.1,0.8-3.2,0.8c-0.1,0-0.3-0.1-0.4-0.2
				c-0.2-0.5-0.4-1.1-0.6-1.7c1.1-0.2,2.2-0.4,3.2-0.6C173.5,65.3,174.2,66,174.2,66.6z M169.6,65.5c-0.1-0.1-0.1-0.2-0.1-0.3
				c-0.1-0.3-0.2-0.7-0.4-1c0.9-0.5,1.8-1,2.8-1.4c0.1-0.1,0.6,0.2,0.6,0.4c0.3,0.7-0.2,1.6-0.9,1.8C171,65.2,170.3,65.4,169.6,65.5
				z M172.1,60.4c0.5-0.1,0.8,0.2,0.7,0.7c0,0.5-0.3,0.9-0.8,1.1c-1,0.5-2,1-3.1,1.6c-0.1-0.4-0.3-0.7-0.4-1
				c0.8-0.7,1.6-1.3,2.4-1.9C171.3,60.7,171.7,60.5,172.1,60.4z M167.1,58.5c0.6-0.2,1.2-0.5,1.8-0.5c1.2,0,1.9,1,1.7,2.2
				c0,0.1-0.1,0.3-0.2,0.4c-0.7,0.5-1.4,1-2.1,1.6c-0.5-1.1-0.9-2.1-1.4-3.2C166.9,58.9,167,58.6,167.1,58.5z M137.2,42
				c-1.9,0.4-3.9,0.9-5.8,1.3c0,0-0.1,0-0.3,0c0.9-1.4,1.7-2.7,2.7-3.9c2.9-3.8,6.5-6.8,10.8-8.8c0.5-0.2,0.9-0.3,1.4-0.1
				c0.5,0.2,0.8,0.6,0.8,1.1c0,0.2-0.2,0.3-0.3,0.4c-2.4,2-4.6,4.3-6.5,6.7c-0.8,1-1.5,2-2.3,3C137.5,41.9,137.4,42,137.2,42z
				 M142.9,41.8c-1.4,0-2.7,0.1-4.1,0.1c0,0-0.1,0-0.2,0c0.3-0.4,0.5-0.7,0.8-1.1c2.3-3.3,5.1-6.3,8.1-8.9c0.6-0.5,1.1-1,2-1
				c0.4,0,0.9,0,1.1,0.5c0.2,0.5,0.1,0.9-0.3,1.3c-2.6,2.8-4.9,5.7-6.9,8.9C143.2,41.6,143,41.8,142.9,41.8z M147.9,42.4
				c-1.4-0.2-2.7-0.4-4.3-0.7c1.5-2,3-4,4.5-6c0.7-0.9,1.5-1.8,2.3-2.7c0.6-0.8,1.5-1,2.5-1.1c0.7-0.1,1.3,0.5,1.5,1.3
				c0.1,0.9,0,1.6-0.7,2.3c-1.9,2-3.6,4.2-5.1,6.5C148.5,42.4,148.3,42.5,147.9,42.4z M153.5,44.1c-1.5-0.5-3-1-4.5-1.5
				c0.1-0.2,0.2-0.3,0.3-0.4c1.7-2.1,3.4-4.3,5.1-6.4c0.5-0.6,1.3-0.7,2.1-0.8c0.5,0,1,0,1.5,0.1c0.7,0.2,1.1,0.9,0.9,1.6
				c-0.2,0.6-0.5,1.2-0.9,1.6c-1.6,1.7-3.2,3.5-4.3,5.6C153.6,44,153.6,44,153.5,44.1z M156.9,46c-1-0.5-1.9-1.1-3-1.7
				c0.6-0.9,1.2-1.8,1.9-2.7c0.9-1.1,1.8-2.2,2.8-3.2c0.6-0.7,1.4-0.9,2.3-0.6c0.9,0.3,1.4,0.9,1.4,1.8c0.1,0.7-0.1,1.4-0.7,1.9
				c-1.7,1.3-3.2,2.7-4.6,4.4C157,45.9,157,45.9,156.9,46z M158.8,47.4c-0.5-0.3-0.9-0.7-1.5-1.2c1.5-1.4,2.9-2.7,4.3-4
				c0.4-0.4,1.4-0.2,1.9,0.3c0.4,0.5,0.4,1.2,0,1.8c-0.6,0.7-1.2,1.3-2,1.7c-0.8,0.4-1.5,1-2.2,1.4
				C159.2,47.5,158.9,47.5,158.8,47.4z M159.3,47.9c1.5-0.9,2.9-1.8,4.4-2.7c0.3-0.2,0.5,0,0.6,0.3c0.1,0.6,0.1,1.1,0,1.7
				c-0.2,0.9-0.7,1.7-1.7,1.9c-0.5,0.1-0.9,0.4-1.3,0.6C160.6,49.1,160,48.6,159.3,47.9z M163.1,52.2c-0.5-0.7-1-1.3-1.6-2
				c0.5-0.2,0.9-0.5,1.3-0.6c0.4-0.1,0.8,0.1,0.9,0.5C163.9,50.7,163.7,51.6,163.1,52.2z M161.4,73.2c-0.3-1.8-0.2-3.7,0-5.5
				c0.3-2.6,0.6-5.2,0.8-7.8c0.2-2.8-0.4-5.4-1.3-8c-0.1-0.1-0.1-0.3-0.1-0.4c0,0,0-0.1,0-0.2c0.7,1,1.4,1.9,2,2.8
				c2.4,3.6,4,7.5,5.5,11.5c0.5,1.4,1.1,2.8,1.9,4.2c0.4,0.8,0.3,1.9,0.4,2.9c0,0.1-0.1,0.2-0.2,0.3c-2.3,1.7-4.4,3.7-6.2,5.9
				c-0.1,0.2-0.3,0.4-0.5,0.6C162.9,77.3,161.7,75.4,161.4,73.2z M161.9,82.9c0.3-0.4,0.5-0.6,0.7-0.9c2.5-3.2,5.4-6.1,8.7-8.4
				c0.4-0.3,0.9-0.5,1.3-0.8c0.5-0.4,1.1-0.4,1.7-0.3c0.5,0.1,0.5,0.3,0.3,0.7c-0.3,0.5-0.7,1.1-1,1.8c1,0.1,1.8,0.2,2.6,0.2
				c0,0,0,0.1,0,0.2c-0.1,0.1-0.3,0.1-0.4,0.2c-2.2,0.8-4.2,1.9-5.8,3.4c-1.1,1-2.3,1.7-3.6,2.3c-1.3,0.5-2.7,1.1-4,1.6
				C162.2,82.8,162.1,82.8,161.9,82.9z M173.5,83.8c-0.4,0.1-0.6,0.3-0.7,0.7c-0.1,1.5-0.9,2.6-2.2,3.2c-0.3,0.1-0.5,0.1-0.7,0
				c-2-1.2-4-2.3-6.1-3.5c-0.5-0.3-1.1-0.5-1.6-0.8c1.8-0.7,3.5-1.4,5.3-2c0.7-0.2,1.5-0.2,2.3-0.3c2.7-0.4,5.4-0.7,8.1-1.1
				c0.3,0,0.4,0,0.5,0.3c0.2,0.7,0,1.3-0.5,1.8c-0.8,0.8-1.8,1.1-2.9,1.3C174.5,83.6,174,83.7,173.5,83.8z M183.7,105.4
				c-0.2,0-0.4,0-0.6,0c-1.4-0.4-2.6-1-3.6-2.2c-1.4-1.6-2.8-3.1-3.8-4.9c-0.3-0.5-0.9-1-1.4-1.4c-0.8-0.5-0.8-0.5-0.5-1.7
				c1.9,1.5,3.8,2.9,5.5,4.5c1.6,1.4,3,3,4.5,4.6c0.1,0.1,0.2,0.2,0.3,0.4C184.3,105.2,184.2,105.4,183.7,105.4z M187.2,105.1
				c-0.3,0-0.7,0-1,0c-1-0.3-1.9-0.7-2.6-1.6c-2.3-2.7-4.8-5.2-7.7-7.2c-0.6-0.4-1.2-0.7-1.7-1c-0.2-0.1-0.3-0.3-0.3-0.5
				c0.1-0.5,0.2-1,0.3-1.6c4.9,3,9.6,6.1,13.2,10.6c0.1,0.1,0.2,0.3,0.3,0.4C187.9,104.5,187.7,105,187.2,105.1z M191.1,103.7
				c-0.4,0.5-1,0.8-1.7,0.6c-0.7-0.2-1.3-0.5-1.8-1.1c-2.1-2.8-4.8-5-7.6-7c-1.8-1.2-3.6-2.3-5.4-3.5c-0.2-0.1-0.3-0.3-0.3-0.5
				c0.1-0.9,0.2-1.9,0.3-2.8c0.1,0,0.2,0.1,0.3,0.1c5.4,2.6,10.4,5.8,14.5,10.2c0.6,0.6,1.2,1.4,1.7,2.1
				C191.6,102.3,191.5,103.1,191.1,103.7z M194.2,102.5c-0.2,0-0.5,0-0.7-0.1c-0.9-0.5-1.8-0.9-2.5-1.8c-2.1-2.8-4.8-5-7.7-7.1
				c-2.7-1.9-5.5-3.5-8.6-4.6c0.1-0.6,0.1-1.2,0.2-1.8c0.3,0.1,0.4,0.1,0.6,0.2c6.8,2.9,12.9,6.7,18.1,12c0.4,0.4,0.8,0.9,1.2,1.4
				c0.2,0.2,0.3,0.6,0.3,0.9C195.1,102.2,194.8,102.5,194.2,102.5z M195.5,99.9c-0.5,0.1-0.8,0-1.2-0.4c-2.4-2.8-5.2-5-8.3-7.1
				c-3.1-2.1-6.4-4-10-5.2c-0.4-0.1-0.7-0.3-1.1-0.5c-0.1,0-0.1-0.1-0.2-0.1c0.4-0.5,1.6-0.9,2.2-0.8c6.7,2.2,13,5.1,18.8,9.2
				c0.6,0.4,1.1,1.2,1.4,1.9C197.8,98.1,196.9,99.5,195.5,99.9z M198.2,94.2c-0.6,0.2-1.1,0.4-1.7,0.5c-0.1,0-0.4-0.1-0.5-0.2
				c-5.4-3.9-11.3-6.8-17.7-8.8c-0.2-0.1-0.5-0.2-0.7-0.2c0,0,0,0-0.1-0.1c0.5-0.4,1-0.8,1.6-1.1c0.2-0.1,0.5-0.1,0.7,0
				c3.7,1,7.3,2.3,10.8,3.8c2.6,1.2,5.1,2.4,7.7,3.6c0.6,0.3,0.7,0.9,0.8,1.5C199.1,93.7,198.7,94,198.2,94.2z M201.5,90
				c-0.2,1.3-1.8,2-2.9,1.4c-5.1-2.7-10.4-5.1-16-6.8c-0.8-0.2-1.7-0.4-2.5-0.5c-0.1,0-0.3-0.1-0.5-0.1c0.3-0.5,0.6-0.9,0.9-1.3
				c0.1-0.1,0.3-0.1,0.5-0.1c5.1,0.4,10.1,1.3,14.9,3.1c1.4,0.5,2.8,1.1,4.1,1.7C201.2,87.8,201.7,88.8,201.5,90z M201.5,86.2
				c-0.1,0.1-0.2,0.2-0.4,0.3c-0.5,0.4-0.8,0.4-1.4,0.1c-3.8-1.9-7.8-3.1-11.9-3.9c-2.3-0.4-4.6-0.8-6.9-0.8c-0.1,0-0.1,0-0.2,0
				v-1.8c0.6,0,1.2-0.2,1.8-0.2c2,0.1,4.1,0.2,6.1,0.4c4,0.5,8,1.4,11.9,2.5C202.2,83.3,202.7,85.1,201.5,86.2z"/>
			<path d="M164.8,111.5c-0.6-1-1.2-1.8-2-2.5c-0.2,0.4-0.4,0.8-0.6,1.1c0.2,0.3,0.2,0.7,0.3,1.1c-0.3-0.1-0.5-0.3-0.8-0.5
				c-0.1,0.1-0.3,0.3-0.4,0.4c0.4,0.3,0.9,0.6,1.3,0.9c0.3,0.2,0.4,0.4,0.3,0.6c-0.1,0.1-0.3,0.3-0.5,0.3c-0.3,0-0.6-0.1-0.8-0.3
				c-0.5-0.3-0.9-0.6-1.4-0.9c-0.2,0.1-0.4,0.1-0.7,0.2c0.2,0.2,0.5,0.4,0.8,0.6c0.5,0.4,1,0.7,1.6,1c-0.5,0.7-1.1,0.6-2.1-0.4
				c-0.1,0.1-0.2,0.2-0.4,0.3c-0.4-0.4-0.8-0.8-1.1-1.3c-0.2,0-0.5,0-0.7,0c0.5,0.6,1,1.1,1.5,1.6c-0.4,0.2-0.5,0.3-0.9-0.1
				c-0.6-0.5-1.1-1.1-1.6-1.6c-0.9-0.2-1.7-0.6-2.4-1.2c0.3,0.5,0.7,1,1.1,1.5c0.9,1.2,1.9,2.3,3.2,3c1.8,1,3.8,1.2,5.8,0.4
				c1.3-0.6,1.8-1.6,1.2-3C165.2,112.2,165,111.9,164.8,111.5z"/>
		</g>
		<g>
		</g>
	</g>
</g>
<g>
	<path d="M174.1,85.3c0,0-0.1,0-0.1,0c-2.5,4.5-4.9,9.1-7.5,13.6c-2.1,3.7-4.6,7.2-6.9,10.7c-1.1,1.7-2,1.7-3.4,0.3
		c-1.9-1.9-2.2-5.3-0.8-7.5c3.5-5.5,7.1-11,10.6-16.4c-0.8-0.4-1.4-0.8-2.3-1c0,0-0.1,0-0.1,0c-3.1,4.6-6.2,9.3-9.4,13.9
		c-2.6,3.7-4.3,6.8-1.6,11c0.9,1,1.9,1.9,2.8,2.9c1.6,0.1,3.3,0.2,4.9,0.4c1.3-1.2,2.5-2.5,3.8-3.7c1.3-2.3,2.8-4.6,3.9-7.1
		c2.9-6.3,6-12.5,9.3-18.7C176.2,84.4,175.1,84.9,174.1,85.3z"/>
	<path d="M218.7,6.6c-0.9-0.6-2.3-0.7-3.4-0.5c-2.7,0.4-3.7,2.6-4.5,5c-0.8,2.4-1.5,5-2.8,7.1c-5.8,8.9-11.7,17.7-17.6,26.5
		c-6.3,9.5-12.6,18.9-18.8,28.4c0.3-0.3,0.6-0.5,1-0.8c0.4-0.3,0.8-0.5,1.3-0.6c0.5-0.3,1-0.5,1.6-0.6c0.1,0,0.2,0,0.2,0
		c4.3-6.6,8.5-13.2,12.9-19.8c7.4-11.3,15.2-22.3,22.8-33.5c0.5-0.8,0.8-1.8,1.1-2.7c0.6-1.6,0.9-3.3,1.7-4.7
		c0.9-1.7,2.6-2.1,3.9-1.2c1.5,1,1.2,2.4,0.5,3.8c-0.5,0.9-1.2,1.8-1.8,2.6c-5.9,3.2-7.6,9.4-10.7,14.5
		c-8.2,13.5-16.1,27.1-23.9,40.7c-1.2,2.2-2.5,4.3-3.7,6.5c0.6,0.5,1.1,1.2,1.2,2c5.3-9.6,10.9-19,16.6-28.4
		c5.5-9.1,11-18.2,16.4-27.3c1.6-2.7,3.6-4.8,6.2-6.5C222.5,14.6,222.5,8.9,218.7,6.6z"/>
</g>
<g>
	<path d="M168.6,200.9c-1.9-0.1-3.8-0.4-5.7-0.4c-1.1,0-1.8-0.6-2.2-1.7c-0.6-1.7-1-3.6-1.5-5.3c0-0.2,0-0.4,0-0.6
		c1.5-4.1,1.4-8.3,0.5-12.5c-1.2-6.1-2.7-12.2-4.3-18.2c-0.5-1.8-1.7-3.3-2.6-4.8c-0.3-0.5-1-0.6-1.6-0.8c-1.4-0.5-2.1-1.4-2-3.1
		c0.1-2.1,0.5-4.1,1.7-5.8c3.1-4.4,7.1-7.2,11.5-9.3c5.9-2.9,12.1-4.6,18.4-6c8.3-1.8,16.7-3.1,25.2-3.4c7-0.3,14,0.6,20.8,2.4
		c2.2,0.6,4.4,1.3,6.7,2c1.7,0.6,2.6,2,3.2,4c1.1,3.7,0.2,6.7-2.2,9.2c-1.3,1.3-1.8,2.9-1.8,4.9c-0.2,6.7,0.6,13.3,2.5,19.6
		c0.4,1.3,1,2.7,1.8,3.7c2,2.3,2.2,5.3,2.3,8.3c0,0.5-0.4,1.1-0.7,1.6c-2,2.9-4.6,4.8-7.5,6c-4,1.6-8,2.9-12,4.1
		c-4.5,1.4-9,2.9-13.6,3.7c-6.1,1.1-12.3,1.5-18.5,2.3c-0.8,0.1-1.6,0.2-2.4,0.3C179.2,200.9,173.9,200.9,168.6,200.9z M233.4,143.9
		L233.4,143.9c1.5-1.7,2-4.5,1.1-6.2c-1.5,0.9-2.8,2.2-4.4,2.7c-4.4,1.6-8.8,3.1-13.3,4.3c-5.6,1.4-11.2,2.6-16.8,3.6
		c-4.2,0.8-8.5,1.3-12.7,1.8c-3.3,0.4-6.6,0.6-9.9,0.8c-3.2,0.2-6.4,0.3-9.6,0.2c-3.5-0.1-7.1-0.4-10.6-0.9c-1.6-0.2-3.2-1-5-1.5
		c0,0.9-0.3,2-0.1,2.8c0.3,1.4,1,2.6,1.5,3.9c0.5,1.1,1.2,1.7,2.4,1.3c0.5-0.2,1-0.1,1.6,0c3.4,0.5,6.7,1.2,10,1.5
		c3.6,0.3,7.2,0.4,10.7,0.1c4.6-0.5,9.1-1.4,13.6-2.2c5.3-1,10.7-2.2,16-3.4c3-0.7,6-1.6,9.2-2.4c-0.7-0.4-1.2-0.5-1.6-0.9
		c-0.5-0.5-0.9-1.1-0.5-2c0.8-1.4,3.2-2.3,4.5-1.7c1.1,0.6,1.3,2.1,0.4,3c-0.2,0.3-0.5,0.5-0.8,0.8c0.2,0.1,0.2,0.2,0.3,0.1
		c2.9-0.8,5.8-1.7,8.7-2.6C230.1,146.2,232,145.6,233.4,143.9z M233.6,136.3c-0.8-0.3-1.1-0.5-1.5-0.7c-4.9-1.8-9.9-2.8-15-3.2
		c-8.1-0.7-16.1-0.2-24.1,1c-10.1,1.6-20.1,4.3-29.8,8.1c-2.6,1-5.2,2-7.4,3.9c-0.8,0.7-1.5,1.5-2.3,2.4c0.3,0.2,0.4,0.3,0.5,0.3
		c4.3,1.1,8.6,1.8,12.9,1.8c5.3,0.1,10.7-0.3,16-0.6c2.9-0.2,5.8-0.5,8.7-1c3.6-0.5,7.1-1.3,10.7-1.9c7.2-1.2,14.4-2.6,21.4-5
		c2.6-0.9,5.2-2,7.7-3.1C232.3,138,232.8,137.1,233.6,136.3z M197.7,186c1.2-4,2.3-7.8,3.4-11.6c1.9-6,3.8-11.9,5.7-17.9
		c0.2-0.6,0.2-1.4,0.3-2c-10.3,1.9-20.5,3.9-30.7,5.8c0.3,0.5,0.6,1.1,0.9,1.6c1.9,2.8,3.8,5.5,5.6,8.2c1.5,2.2,2.9,4.5,4.8,6.3
		c2.6,2.4,5,4.9,7.5,7.4C196.1,184.5,196.9,185.2,197.7,186z M198.3,187.3c0.7,0,1,0,1.2-0.1c2.4-0.5,4.8-0.9,7.2-1.4
		c5.6-1.2,11.2-2.5,16.5-5.1c1.8-0.9,3.6-2,5.6-3.2c-8-6.3-14-14.8-21.1-22C204.6,166.2,201.5,176.6,198.3,187.3z M165.8,189.5
		c10.5,0.7,20.7,0.4,31-1.6c-0.4-0.6-0.7-1-1-1.3c-1.6-1.6-3.1-3.3-4.7-4.8c-2.7-2.5-5.5-4.8-7.5-8.1c-1.2-1.9-2.3-4-3.5-5.9
		c-1.1-1.7-2.2-3.3-3.3-4.9c-0.5-0.7-0.9-0.6-1.3,0.3c-0.5,1.5-1,3.1-1.6,4.5c-2.1,5.2-4.2,10.4-6.2,15.7
		C166.9,185.3,166.5,187.3,165.8,189.5z M234.7,175.1c-0.4,0.4-0.8,0.6-1.2,1c-4.9,5-10.7,7.8-17.1,9.1c-5.2,1.1-10.4,2.3-15.6,3.3
		c-4.3,0.9-8.6,2-13,2.4c-6.2,0.5-12.5,0.4-18.8,0.5c-2,0-4.1,0.3-6-1c-0.1-0.1-0.3-0.1-0.4-0.1c-0.8-0.3-1.2,0.1-1.4,1
		c-0.4,2.1,0.1,4,0.9,5.8c0.1,0.3,0.5,0.5,0.9,0.6c3.2,0.5,6.5,1.3,9.7,1.5c7.3,0.4,14.6-0.4,21.8-1.5c7.6-1.2,15.1-2.7,22.7-4.3
		c5-1.1,9.9-2.9,14.4-6.1c1.6-1.2,3.1-2.6,4.8-4c-2.2-1.2-2.3-2.4-0.7-6.5C235.4,176.2,235.1,175.7,234.7,175.1z M231.4,146.9
		c-7.6,2.6-14.7,5.9-22.4,6.8c1.7,4.3,16.7,20.5,19.5,21.4c0.7-3.4,1.4-6.8,2.2-10.2c0.6-2.6,0.9-5.1,0.7-7.8
		C231,153.9,230.6,150.6,231.4,146.9z M175.2,160.4c-6.3-0.6-12.5-1.2-18.8-1.7c0,0,0,0.2,0,0.2c1.8,4,2.6,8.3,3.6,12.6
		c1,4.4,2.1,8.8,3.2,13.1c0.3,1.2,1,2.4,1.6,3.8C167.8,178.5,172.6,169.9,175.2,160.4z M230,176.8c1.5-1.1,2.8-2,4-2.9
		c-0.8-3-1.6-6.1-2.4-9.2c-0.1,0-0.2,0-0.3,0C230.9,168.7,229.8,172.5,230,176.8z M217.9,149c0.4-0.1,0.8-0.1,1.1-0.4
		c0.4-0.4,0.9-1,0.8-1.4c-0.1-0.4-0.7-1.1-1.1-1.1c-0.7,0-1.4,0.3-2,0.7c-0.7,0.5-0.6,1.2,0,1.7C217,148.7,217.5,148.8,217.9,149z
		 M236.2,181.4c0.1,0,0.3-0.1,0.4-0.1c-0.1-0.9-0.2-1.8-0.2-2.7c-0.1,0-0.2,0-0.3,0C235.9,179.6,235.4,180.6,236.2,181.4z
		 M163.1,188.5c-0.2-0.9-0.4-1.7-0.5-2.5c-0.1,0-0.2,0.1-0.3,0.1C162.2,188.5,162.2,188.5,163.1,188.5z"/>
	<path d="M233.4,143.9c-0.9,0.4-1.9,0.9-2.8,1.1c-1.1,0.2-1.6-0.7-1.3-2c0.5-1.8,2.5-3.1,4-2.4c0.3,0.1,0.6,1,0.5,1.5
		C233.9,142.7,233.5,143.3,233.4,143.9L233.4,143.9z M230.5,143.8c1.1,0.4,2.2-0.2,2.6-1.5c0.3-0.9,0-1.3-0.8-1.2
		C231.2,141.3,230.5,142.4,230.5,143.8z"/>
	<path d="M187.8,143c4.2-1.7,7.2-5.8,11.5-7.3c0.1,0.1,0.2,0.2,0.2,0.3c-0.7,0.9-1.3,1.9-2.1,2.7c-1.2,1.1-2.5,2.1-3.7,3.2
		c-0.6,0.5-1.2,1-1.8,1.5c0.1,0.2,0.2,0.4,0.4,0.5c0.6-0.2,1.2-0.5,1.9-0.7c-0.7,1.2-1.8,1.6-3,1.1c1.7-3.4,4.9-4.7,6.9-7.6
		c-0.7,0.4-1.4,0.8-2,1.3c-2.1,1.7-4.3,3.6-6.4,5.3c-1.6,1.3-2.5,1.8-3.9,1.7c1.6-4,5-5.9,7.4-8.8c-0.1-0.1-0.1-0.2-0.2-0.3
		c-1.7,1.3-3.5,2.5-5.2,3.8c-2.6,2-5.2,4.2-7.9,6.2c-0.8,0.6-1.7,0.8-2.6,1.2c0-0.1-0.1-0.2-0.1-0.3c0.4-0.4,0.7-0.9,1.2-1.1
		c3.3-1.2,5.8-3.9,8.5-6.2c2.2-1.8,4.4-3.5,7-4.5c0.2-0.1,0.3-0.1,0.6-0.2c-0.1,1.3-0.7,2.1-1.5,2.8c-1.3,1.3-2.7,2.6-4,3.9
		C188.6,142.2,188.2,142.6,187.8,143z"/>
	<path d="M207.1,135c-1.7,2.9-4.6,4.2-6.7,6.6C202.1,138.7,204.1,136.2,207.1,135z"/>
	<path d="M191.7,192c0.2,0.1,0.7,0.1,1,0.4c1.1,0.6,1.4,1.5,0.6,2.6c-0.7,0.9-1.6,1.7-2.6,2.3c-0.9,0.5-1.7,0-2.3-0.9
		c-0.5-0.9-0.3-1.9,0.2-2.7C189.5,192.6,190.4,192.1,191.7,192z M191.9,193.4c-1.6,0-2.3,0.4-2.3,1.2c0,0.8,0.2,1.4,1.1,1.4
		c1.2,0,2.2-0.8,2.1-1.7C192.7,193.8,192.1,193.5,191.9,193.4z"/>
	<path d="M206.5,189.7c1.4,0.2,2.3,0.7,2.5,1.8c0.2,1.1-0.3,2.3-1.4,2.9c-0.8,0.4-1.7,0.6-2.6,0.7c-0.9,0.1-1.6-0.5-1.8-1.7
		c-0.2-1.1,0.1-2.1,0.9-2.7C204.8,190.2,205.7,190,206.5,189.7z M206.4,190.7c-1.1,0-2.3,1-2.3,1.9c0,0.7,1.1,1.4,2.1,1.4
		c1.1,0,1.9-0.8,1.8-2C208.1,191.2,207.5,190.7,206.4,190.7z"/>
	<path d="M176.3,197.6c-1.2,0-2-0.9-2-2.3c0-1.6,1.4-3.1,2.9-3.1c1.1,0,2.2,1,2.2,2.1C179.4,196.1,177.9,197.6,176.3,197.6z
		 M176.5,196.4c1.3,0,2-0.8,2-1.7c0-1.1-0.8-1.1-1.4-1.2c-0.8-0.1-1.6,0.8-1.4,1.7C175.8,195.8,176.3,196.2,176.5,196.4z"/>
	<path d="M198.8,191.1c0.9,0.6,1.9,0.9,2.2,1.7c0.2,0.5-0.4,1.7-0.9,2.4c-0.4,0.6-1.1,1-1.8,1.2c-0.6,0.1-1.5,0-2-0.4
		c-0.6-0.6-0.5-2.3,0.1-3.1C197.1,192.1,197.9,191.7,198.8,191.1z M197.3,193.2c0,0.3-0.1,0.4-0.1,0.5c0.1,0.7-0.1,1.5,0.8,1.5
		c1.2,0,2.3-0.9,2.1-1.8c0-0.3-0.5-0.7-0.7-0.6C198.7,192.8,198,193.1,197.3,193.2z"/>
	<path d="M183.4,197.3c-1.2-0.1-2.1-0.8-2.3-1.9c-0.2-1.1,0.3-2.2,1.5-2.6c0.6-0.2,1.4-0.3,2-0.2c0.8,0.1,1.4,0.6,1.5,1.6
		c0.1,1-0.2,1.8-0.9,2.3C184.6,196.9,184,197.1,183.4,197.3z M183.7,196.3c1-0.3,1.7-0.6,1.6-1.6c0-0.4-0.8-1.1-1.1-1
		c-0.7,0.2-1.3,0.8-1.9,1.2C182.8,195.3,183.3,195.8,183.7,196.3z"/>
	<path d="M213,188.3c1.4,0,2.4,0.8,2.5,1.9c0.1,1.1-0.5,2.1-1.7,2.5c-0.3,0.1-0.6,0.2-0.9,0.2c-1.3,0.1-2.2-0.5-2.3-1.6
		c-0.2-1.5,0.5-2.6,1.8-3C212.7,188.3,212.9,188.3,213,188.3z M212.9,192.2c1-0.2,1.9-1,1.8-1.6c-0.2-0.9-0.8-1.3-1.6-1.3
		c-0.8,0-1.5,0.4-1.3,1.4C211.9,191.3,212.5,191.7,212.9,192.2z"/>
	<path d="M217.3,189c0.1-1.2,0.7-2.4,1.9-2.9c0.5-0.2,1.4-0.1,1.8,0.3c0.4,0.4,0.5,1.4,0.5,2.1c-0.2,1.4-1.4,2.5-2.6,2.7
		C217.6,191.2,217.3,190.9,217.3,189z M220.5,187c-0.3,0.1-0.5,0.2-0.8,0.2c-0.9,0.2-1.5,1-1.3,2c0.1,0.6,0.3,1,0.9,0.8
		C220.3,189.6,220.8,188.4,220.5,187z"/>
	<path d="M229.2,184c0-1.6,1.1-3.1,2.4-3.1c1,0,2.1,1.1,2.1,2.1c0,1.7-1.2,2.9-2.9,3C229.6,186,229.2,185.6,229.2,184z M232.2,182.4
		c-1.6,0-1.9,0.4-1.9,1.5c0,0.7,0.2,1.3,0.9,1.2c1-0.1,1.8-0.8,1.6-1.9C232.8,182.9,232.3,182.5,232.2,182.4z"/>
	<path d="M223.5,187c0-1.7,0.7-3.3,1.4-3.3c1.3,0.1,2.5,1.5,2.5,2.9c0,1.4-1,2.4-2.4,2.4C223.8,189,223.5,188.7,223.5,187z
		 M224.6,187.2c0.2,0.3,0.8,1.1,1,1c0.5-0.3,1-0.9,1.3-1.6c0.1-0.2-0.6-1.1-1.1-1.2C225,185.2,224.6,185.9,224.6,187.2z"/>
	<path d="M170.1,193.2c0.4,0.1,0.9,0.2,1.3,0.4c1.6,0.7,1.8,1.9,0.4,3.2c-0.3,0.3-0.8,0.6-1.2,0.8c-0.8,0.3-1.7,0.5-2.2-0.4
		c-0.3-0.7-0.4-1.9-0.2-2.6c0.2-0.7,1.1-1,1.7-1.5C170,193,170.1,193.1,170.1,193.2z M170.5,193.9c-0.8,0.3-1.5,0.2-1.4,1.3
		c0,0.9,0.6,1.2,1.3,1.3c0.7,0,1.5-0.3,1.4-1.2C171.7,194.8,171,194.4,170.5,193.9z"/>
	<path d="M163.8,197.1c-1.2,0-1.7-0.6-1.7-2.3c0-1.9,0.7-2.8,2.2-2.8c1.1,0,1.9,1,1.9,2.4C166.3,196,165.3,197.1,163.8,197.1z
		 M165.7,194.3c0.1-1-0.5-1.2-1.1-1.2c-0.8-0.1-1.4,0.7-1.4,1.6c0,0.9,0.4,1.3,1.2,1.3C165.2,196,165.7,195.3,165.7,194.3z"/>
	<path d="M186.1,156.2c-1.5,0-2.2-1.3-1.5-2.9c0.9-2.1,2.8-2.9,4.2-1.6c0.2,0.2,0.5,0.7,0.5,1C189.2,154.3,187.5,156.2,186.1,156.2z
		 M187.6,152.1c-1.1,0-2,1-1.9,1.9c0,0.4,0.5,0.9,0.8,1c0.8,0.1,2.1-1.2,2-1.9C188.3,152.6,187.8,152.3,187.6,152.1z"/>
	<path d="M159.1,153.5c-0.3,0.4-0.8,1.3-1.5,1.8c-0.7,0.4-1.7,0.8-2.4,0.5c-1.3-0.6-1.5-2.5-0.4-3.6c0.7-0.6,1.6-1.1,2.4-1.3
		C158.2,150.7,159.1,151.8,159.1,153.5z M155.4,154.1c0.2,0.2,0.5,0.7,0.8,0.7c0.8,0.1,2.4-1.2,2.1-1.7c-0.2-0.5-0.8-1-1.3-1.1
		C156.2,151.8,155.3,152.8,155.4,154.1z"/>
	<path d="M209.4,151.8c-0.2,0-0.3,0-0.5,0c-0.6-0.5-1.5-0.8-1.7-1.5c-0.2-0.5,0.4-1.5,0.8-2.1c1-1.3,2.7-1.6,3.8-0.9
		c1,0.7,1.2,1.5,0.5,2.6C211.6,151.1,210.6,151.6,209.4,151.8z M209.5,150.8c0.5-0.1,0.7-0.1,1-0.2c0.9-0.2,1.5-1.1,1.3-1.8
		c-0.3-1.1-1.1-1-1.8-0.7c-0.2,0.1-0.3,0.2-0.5,0.2c-0.8,0.2-1.1,0.9-1,1.6C208.6,150.3,209.3,150.6,209.5,150.8z"/>
	<path d="M170.2,156.8c-0.7,0-1.3-0.2-1.5-1.1c-0.3-1.2,0.1-2.6,0.9-3.2c1-0.7,2.2-0.7,3.2-0.1c0.3,0.1,0.5,0.7,0.5,1.1
		C173.4,155.2,171.9,156.8,170.2,156.8z M171.3,152.9c-0.9,0.3-1.6,0.2-1.6,1.4c0,0.7,0,1.4,0.9,1.5c0.8,0,2-0.9,1.8-1.8
		C172.4,153.5,171.7,153.2,171.3,152.9z"/>
	<path d="M194.1,154.9c-1-0.2-1.5-0.7-1.8-1.6c-0.3-0.9,0.1-1.6,0.6-2.1c0.9-0.9,2-1.3,3.1-0.8c0.5,0.2,1,0.9,1.1,1.4
		c0.1,0.5-0.2,1.4-0.6,1.8C195.8,154.2,194.9,154.5,194.1,154.9z M194.8,154.1c0.7-0.7,1.4-1.2,1.5-1.7c0.1-0.9-0.7-1.1-1.3-1.1
		c-0.7,0-1.4,0.2-1.3,1.1C193.8,152.9,194.3,153.3,194.8,154.1z"/>
	<path d="M160.8,154.5c0-1.8,1-3,2.4-3c1.1,0,2,1.1,2,2.5c0,1.7-1.1,3.1-2.4,3.1C161.6,157,160.8,156.1,160.8,154.5z M163.1,155.7
		c1,0,1.8-0.6,1.8-1.4c0-0.8-0.9-1.7-1.6-1.7c-0.8,0-1.3,0.7-1.4,1.9C161.8,155.7,162.6,155.6,163.1,155.7z"/>
	<path d="M179.3,152.6c1.5,0.1,2.1,0.6,2.1,1.9c-0.1,1.4-1.4,2.7-2.7,2.5c-1.3-0.1-2.1-1-2-2.4C176.7,153.2,177.6,152.4,179.3,152.6
		z M179.7,153.3c-0.4,0.1-0.7,0.2-0.9,0.3c-0.7,0.3-1.2,0.8-0.9,1.7c0.3,1,1,0.8,1.6,0.4c0.2-0.1,0.4-0.2,0.5-0.4
		c0.2-0.3,0.6-0.8,0.5-1C180.4,153.9,180,153.6,179.7,153.3z"/>
	<path d="M224.5,147.4c-1.7,0-2.2-1.1-1.4-2.9c0.6-1.4,2.3-2,3.5-1.4c1,0.5,1.4,1.9,0.5,2.8c-0.7,0.8-1.6,1.2-2.5,1.8
		C224.6,147.6,224.6,147.5,224.5,147.4z M224.6,146.5c1.3,0,2.1-0.8,1.9-1.7c-0.1-0.4-0.6-0.9-1.1-1c-0.7-0.1-1.5,0.9-1.4,1.7
		C224.1,145.9,224.4,146.3,224.6,146.5z"/>
	<path d="M201.6,153c-1.4,0-2-0.7-2-1.9c0-1.2,1.6-2.6,2.9-2.6c1.2,0,2,0.9,1.9,2.1C204.4,151.6,202.8,153,201.6,153z M202.5,149.4
		c-1.3,0-1.8,0.5-1.8,1.5c0,1,0.6,1.2,1.3,1.2c0.8,0,1.5-0.5,1.5-1.5C203.6,149.5,202.9,149.4,202.5,149.4z"/>
</g>
<g>
	<path d="M157.3,169.5c-0.3,0.1-0.6,0.2-0.9,0.2c-2.4,0.6-4.7-0.1-6.9-0.8c-3.5-1.1-7-2.3-10.4-3.5c-0.1,0-0.1-0.1-0.2-0.3
		c0.5-0.1,0.9-0.1,1.3-0.2c1.4-0.2,2.1-1.7,1.2-2.9c-1-1.5-4-2.2-5.6-1.5c-1,0.5-0.9,1.3-0.6,2.1c0.2,0.6,0.6,1.1,1.1,1.8
		c-3.8-1.4-7.4-2.6-10.9-4c-6.2-2.4-12.4-4.9-18.5-7.5c-5.2-2.2-10.4-4.4-15.4-7c-3.9-2-7.5-4.5-11.1-7.1c-3.3-2.4-6.4-5.3-9.6-7.9
		c-0.5-0.4-1-0.8-1.6-1c-1.4-0.4-1.8-1.4-1.7-2.7c0.1-1.5,0.2-3,0.6-4.4c0.3-0.9,1.1-1.6,1.6-2.4c1.6,1.7,2.8,3.4,4.4,4.7
		c3.4,2.7,6.9,5.3,10.5,7.7c3.2,2.2,6.6,4.2,10,6.2c3.5,2,7.1,4,10.7,5.8c4.7,2.4,9.4,4.7,14.2,6.8c6.4,2.8,12.9,5.5,19.4,7.9
		c5.3,1.9,10.7,3.5,16.1,5c0.4,0.1,0.9,0.2,1.4,0.3c0-0.5-0.1-1-0.1-1.4c-2.8-0.6-5.5-1.2-8.3-2c-8.6-2.5-16.8-6-24.9-9.7
		c-4-1.8-8.1-3.5-12.1-5.4c-3.2-1.5-6.5-3.1-9.6-4.9c-5.7-3.3-11.4-6.5-16.9-10.1c-4.5-2.9-8.6-6.3-12.4-10.1
		c-0.1-0.1-0.1-0.2-0.4-0.6c1.3-0.2,2.5-0.5,3.7-0.6c3.4-0.2,6.6,0.7,9.8,1.5c12.2,3,23.9,7.2,35.3,12.5c9,4.2,17.6,9,25.5,15
		c1.5,1.1,3,2.3,4.4,3.5c-0.2-1.2,0.3-2.2,1.2-2.9c-4.7-4.2-9.7-7.9-15.2-11.2c-9-5.3-18.3-9.7-28-13.6c-7.3-2.9-14.6-5.5-22.4-6.9
		c-5.7-1-11.5-1.2-17.1,0.6c-2.2,0.7-3.7,2.2-5,4c-1.1,1.5-0.9,2.7,0.3,4.1c0.5,0.5,1.1,1.2,1.2,1.8c0.2,2,0.5,4.1,0,6
		c-1.7,6.3-3.6,12.6-5.7,18.9c-1.4,4.2-3.7,8-7.5,10.6c-0.2,0.1-0.3,0.3-0.4,0.5c-0.5,1.9-1,3.8-1.4,5.7c-0.2,1.2,0.2,2.2,1.4,2.9
		c2,1.3,3.8,2.7,5.7,4.1c5.5,3.5,11,7,16.4,10.5c0.9,0.4,1.7,0.9,2.6,1.3c6.8,3.4,13.5,7.1,20.4,10.2c5.2,2.3,10.7,3.9,16.2,5.7
		c4.9,1.6,9.8,3,14.7,4.3c3.7,0.9,7.5,1,11.1-0.3c0.6-0.2,1.4-0.4,1.6-0.9c1.6-2.7,3.1-5.4,2.3-8.8c-0.3-1.4-0.2-3,0.1-4.4
		c1.6-6.8,4.4-13.1,8.4-18.9c1.2-1.7,2.5-2.7,4.6-3.1c1-0.2,1.8-0.4,2.6-0.7C158,171.2,157.6,170.3,157.3,169.5z M137.5,161.2
		c0.8,0.1,1.8,0.3,2.5,0.7c0.4,0.3,0.7,1.3,0.5,1.7c-0.2,0.4-1.1,0.6-1.7,0.7c-0.4,0.1-0.8-0.2-1.3-0.4c-0.3-0.4-0.7-0.8-0.9-1.3
		C136.3,161.9,136.5,161.2,137.5,161.2z M123.4,161.7c-0.5,0.5-0.9,1.1-1.4,1.6c-5.3,4-10.6,8-15.9,12c-3.3,2.6-6.6,5.2-10.1,8
		c-0.4-1.3-0.8-2.4-1.2-3.6c-1.2-3.8-2.3-7.7-3.7-11.4c-1-2.8-1.2-5.7-1.5-8.7c-0.3-3.6-0.8-7.3-1.2-10.9c-0.1-0.7,0-1.4-0.1-2.1
		C100.1,151.5,111.6,156.5,123.4,161.7z M132.9,196.3c-2.7-0.3-5.2-0.5-7.6-0.9c-6.9-1.2-13.5-3.7-19.9-6.4
		c-2.8-1.1-5.5-2.3-8.2-3.5c-0.3-0.1-0.6-0.3-1.3-0.8c9.3-7.3,18.3-14.4,27.5-21.7C126.8,174.1,128.1,185.4,132.9,196.3z
		 M87.9,155.4c0.2,2.5,0.2,5,0.3,7.5c0.3,4.2,1.9,8.1,3.3,12.1c0.8,2.4,1.5,4.9,2.2,7.4c0.1,0.5,0.1,1,0.3,1.8
		c-11.8-5-22.5-11.5-33-19c1.9-1.5,3.5-3,5.3-4.1c5-3.3,10.2-6.4,15.2-9.7c1.4-0.9,2.8-1.9,4.2-3c0.9-0.7,1.4-0.4,1.5,0.5
		C87.5,151.1,87.8,153.3,87.9,155.4z M61.1,159.2c1.3-4.6,2.6-9.1,4-13.6c1.4-4.4,3-8.7,3.3-13.4c0-0.1,0.1-0.2,0.1-0.2
		c6.1,4.6,12.3,9.3,18.5,13.9c-8,6.6-17.8,10.9-26.4,17.7C60.8,161.9,60.7,160.5,61.1,159.2z M59.3,159.8c0.1,0,0.2,0.1,0.3,0.1
		c-0.3,0.8-0.5,1.6-0.9,2.6C57.8,161.9,57.8,161.9,59.3,159.8z M138.8,204.7c-0.2-0.1-0.3-0.1-0.5-0.2c-0.4-1.3,0.7-1.8,1.4-2.6
		c0.1,0.1,0.3,0.1,0.4,0.2C139.7,203,139.2,203.9,138.8,204.7z M137.6,206.1c-2.5,0.1-4.9,0.4-7.2,0.4c-6.4-0.2-12.4-1.8-18.3-4.1
		c-8.7-3.6-17.4-7.2-25.9-11.1c-8.1-3.8-16.1-7.9-23.4-13c-3.3-2.3-6.2-5.1-9.2-7.7c-0.3-0.2-0.6-0.7-0.6-1.1
		c0.1-2.1,0.7-4.1,2.3-5.7c0.7-0.7,1.3-0.7,2,0.1c0.1,0.1,0.3,0.2,0.3,0.4c1.2,2.4,3.5,3.5,5.6,4.9c6.5,4.1,13,8.3,19.7,12
		c4.7,2.6,9.8,4.4,14.8,6.5c6,2.5,12,4.9,18,7.4c7.3,3.1,14.9,4.4,22.8,3.3c0.5-0.1,1.1-0.1,1.8-0.1c0.1,0.8,0.1,1.4,0.1,2
		C136.6,202.6,136.1,203.6,137.6,206.1z M140.2,196.5c-1.8,0-3.6-0.1-5.8-0.1c2.2-3.9,5.5-6.6,8.1-9.7c0.1,0,0.2,0.1,0.3,0.1
		C142,190.1,141.1,193.3,140.2,196.5z M146.8,180c-1.3,2.4-3,4.5-5.1,6.4c-2.7,2.5-5.3,5-7.9,7.5c-2.3-2.6-8.7-26.8-8.1-31.7
		c8.5,4.3,17.7,6.1,27,8.8C149.8,173.7,148.4,176.9,146.8,180z"/>
	<path d="M156.9,168.1c-1.1,0.8-2.5,0.7-3.4-0.4c0.7-1.2,2-1.7,3.1-1.3c0-0.3-0.1-0.6-0.1-0.9c-1.3-0.4-2.8-0.2-3.8,0.6
		c-1.1,0.9-1.1,2,0.2,2.6c1.1,0.5,2.3,0.6,3.5,0.9c0.3-0.2,0.5-0.4,0.8-0.6C157.1,168.8,157,168.5,156.9,168.1z"/>
	<path d="M109.8,138.9c5.3,1.2,10.7-0.3,15.9,1.2c0,0.1,0.1,0.3,0.1,0.4c-1.2,0.3-2.4,0.8-3.7,0.9c-1.9,0.2-3.7,0.3-5.6,0.4
		c-0.9,0.1-1.8,0.1-2.7,0.2c0,0.2,0.1,0.5,0.1,0.7c0.8,0.2,1.5,0.4,2.3,0.6c-1.4,0.6-2.8,0.2-3.8-1c3.6-1.9,7.7-0.9,11.4-2.1
		c-0.9-0.1-1.9-0.3-2.8-0.2c-3.2,0.1-6.4,0.3-9.6,0.5c-2.4,0.1-3.6-0.1-5-1.1c3.9-2.5,8.4-1.9,12.6-2.8c0-0.1,0-0.3,0-0.4
		c-2.5,0-5-0.1-7.5-0.1c-3.9,0-7.8,0.2-11.6,0.2c-1.1,0-2.2-0.4-3.3-0.6c0-0.1,0-0.2,0-0.3c0.6-0.1,1.3-0.3,1.8-0.2
		c4.1,1.1,8.2,0.4,12.2,0.2c3.3-0.2,6.6-0.2,9.8,0.7c0.2,0.1,0.4,0.1,0.7,0.2c-0.8,1.1-2,1.4-3.1,1.5c-2.1,0.3-4.2,0.5-6.4,0.8
		C111.1,138.7,110.4,138.8,109.8,138.9z"/>
	<path d="M134.2,144.5c-3.4,1.4-7.1,0.7-10.6,1.4C127,144.5,130.4,143.6,134.2,144.5z"/>
	<path d="M86.4,184.5c0.2,0.2,0.6,0.6,0.9,1c0.8,1.3,0.6,2.2-0.8,2.7c-1.3,0.4-2.7,0.5-4,0.3c-1.2-0.1-1.8-1.1-1.8-2.3
		c0-1.2,0.7-1.9,1.8-2.2C83.7,183.6,85,183.7,86.4,184.5z M85.8,185.8c-1.7-1.1-2.6-1.2-3-0.4c-0.4,0.7-0.6,1.4,0.3,2
		c1.2,0.7,2.8,0.8,3.1-0.2C86.4,186.7,85.9,186,85.8,185.8z"/>
	<path d="M103,192.2c1.3,1.1,1.9,2.2,1.6,3.2c-0.4,1.1-1.6,1.9-3.1,1.6c-1.1-0.2-2.1-0.6-3.1-1.1c-1-0.5-1.4-1.5-0.9-2.7
		c0.4-1.1,1.3-1.8,2.5-1.7C100.9,191.6,101.9,192,103,192.2z M102.3,193.1c-1.1-0.7-3-0.6-3.4,0.2c-0.4,0.6,0.3,2,1.4,2.6
		c1.2,0.7,2.4,0.5,3-0.5C103.8,194.6,103.4,193.7,102.3,193.1z"/>
	<path d="M67.2,179.2c-1.2-0.8-1.6-2.1-0.8-3.3c0.9-1.4,3.2-1.8,4.7-0.8c1.2,0.8,1.7,2.3,1.1,3.3C71.3,179.9,68.9,180.3,67.2,179.2z
		 M68.2,178.3c1.3,0.8,2.5,0.6,3-0.2c0.6-1-0.3-1.5-0.8-2c-0.7-0.6-2.1-0.3-2.4,0.5C67.7,177.3,68.1,178,68.2,178.3z"/>
	<path d="M94.2,188.3c0.6,1.1,1.4,2,1.3,2.9c-0.1,0.6-1.4,1.2-2.3,1.5c-0.8,0.2-1.7,0.2-2.5-0.1c-0.7-0.3-1.6-1-1.8-1.7
		c-0.3-0.9,0.8-2.4,1.8-2.6C91.8,188.1,92.9,188.3,94.2,188.3z M91.5,189.2c-0.2,0.2-0.3,0.3-0.4,0.4c-0.3,0.6-1,1.2,0,1.8
		c1.3,0.8,2.8,0.7,3.2-0.2c0.1-0.3-0.1-0.9-0.4-1C93.2,189.8,92.3,189.6,91.5,189.2z"/>
	<path d="M74.8,183.7c-1.2-0.9-1.7-2.1-1.3-3.2c0.4-1.1,1.5-1.7,3-1.3c0.8,0.2,1.6,0.7,2.2,1.2c0.7,0.6,1.1,1.4,0.6,2.4
		c-0.4,1-1.2,1.5-2.2,1.4C76.3,184.1,75.6,183.8,74.8,183.7z M75.8,183c1.2,0.4,2.1,0.6,2.5-0.4c0.2-0.4-0.2-1.5-0.6-1.6
		c-0.8-0.3-1.7-0.2-2.6-0.2C75.3,181.5,75.5,182.2,75.8,183z"/>
	<path d="M110.5,195.3c1.5,1,2,2.2,1.5,3.4c-0.5,1-1.7,1.5-3.2,1.1c-0.4-0.1-0.7-0.2-1.1-0.4c-1.5-0.8-2-1.8-1.5-2.9
		c0.6-1.4,2-2,3.5-1.5C110.1,195,110.4,195.2,110.5,195.3z M108.2,198.6c1.2,0.5,2.6,0.4,2.8-0.2c0.3-0.9-0.1-1.7-0.9-2.1
		c-0.8-0.5-1.7-0.6-2.1,0.4C107.7,197.2,108.1,198,108.2,198.6z"/>
	<path d="M114.5,198.7c0.7-1,2.1-1.7,3.6-1.3c0.7,0.1,1.5,0.8,1.7,1.4c0.2,0.6-0.2,1.6-0.7,2.1c-1,1.1-2.9,1.3-4.1,0.7
		C113.6,200.9,113.4,200.3,114.5,198.7z M119,199.1c-0.4-0.1-0.6-0.2-0.9-0.3c-1-0.4-2.1-0.1-2.5,0.9c-0.3,0.6-0.3,1.1,0.5,1.3
		C117.3,201.2,118.5,200.5,119,199.1z"/>
	<path d="M129.6,202.2c0.9-1.4,2.9-1.9,4.2-1.1c1.1,0.7,1.5,2.3,0.9,3.2c-1,1.5-2.9,1.8-4.6,0.7
		C128.9,204.2,128.8,203.5,129.6,202.2z M133.6,202.7c-1.6-1-2.2-1-2.8,0.1c-0.4,0.6-0.5,1.2,0.3,1.7c1.1,0.6,2.3,0.5,2.7-0.5
		C134,203.5,133.7,202.9,133.6,202.7z"/>
	<path d="M122.1,201.1c1-1.5,2.6-2.5,3.3-2c1.3,0.9,1.8,3,1,4.2c-0.8,1.3-2.4,1.5-3.8,0.5C121.3,203,121.2,202.6,122.1,201.1z
		 M123.1,201.9c0.1,0.4,0.2,1.5,0.5,1.5c0.7,0.1,1.6-0.1,2.3-0.5c0.2-0.1,0-1.4-0.4-1.8C124.7,200.5,123.9,200.8,123.1,201.9z"/>
	<path d="M63.4,171.2c0.4,0.4,0.8,0.7,1.1,1.2c1.3,1.7,0.7,2.8-1.4,3.1c-0.5,0.1-1.1,0-1.6-0.1c-1-0.2-2.1-0.7-2-1.8
		c0-0.8,0.6-1.9,1.3-2.4c0.6-0.4,1.7-0.2,2.6-0.2C63.3,171,63.4,171.1,63.4,171.2z M63.4,172.2c-1-0.3-1.6-0.7-2.2,0.2
		c-0.5,0.8-0.1,1.5,0.6,1.9c0.7,0.5,1.7,0.7,2.1-0.1C64.1,173.8,63.6,172.9,63.4,172.2z"/>
	<path d="M54.7,170.6c-1.3-0.8-1.4-1.6-0.5-3.1c1-1.6,2.3-2,3.8-1c1.1,0.7,1.4,2.1,0.6,3.4C57.8,171.2,56.1,171.5,54.7,170.6z
		 M58.1,169.3c0.6-0.8,0.1-1.4-0.5-1.8c-0.8-0.6-1.9-0.3-2.3,0.5c-0.5,0.8-0.3,1.4,0.5,1.9C56.7,170.5,57.6,170.2,58.1,169.3z"/>
	<path d="M100.6,149.4c-1.5-1-1.5-2.6,0-3.6c2.1-1.3,4.5-0.7,5.2,1.4c0.1,0.3,0.1,0.9-0.1,1.2C104.9,149.7,102,150.3,100.6,149.4z
		 M104.5,146.8c-1.1-0.7-2.6-0.5-3,0.4c-0.2,0.3-0.1,1.1,0.2,1.4c0.7,0.6,2.9,0.3,3.1-0.4C104.9,147.7,104.5,147,104.5,146.8z"/>
	<path d="M74.2,129.2c-0.6,0.1-1.6,0.7-2.5,0.6c-1-0.1-2.2-0.5-2.8-1.2c-1.1-1.4-0.2-3.2,1.6-3.4c1-0.1,2.2,0.1,3.2,0.5
		C74.8,126.1,75.1,127.6,74.2,129.2z M70,127.2c0.1,0.2,0.1,0.9,0.4,1.2c0.7,0.6,3.1,0.5,3.1-0.1c0-0.6-0.2-1.4-0.7-1.8
		C72.1,125.8,70.7,126.1,70,127.2z"/>
	<path d="M127.2,160.8c-0.2-0.1-0.4-0.2-0.4-0.3c-0.4-0.8-1.1-1.7-1-2.4c0.1-0.5,1.2-1.1,2-1.3c1.7-0.5,3.7,0.4,4.4,1.7
		c0.7,1.3,0.4,2.1-0.9,2.6C129.8,161.7,128.5,161.5,127.2,160.8z M127.9,160.1c0.6,0.3,0.8,0.4,1.1,0.5c1.1,0.4,2.2,0.1,2.4-0.8
		c0.3-1.2-0.6-1.6-1.5-1.8c-0.2-0.1-0.4-0.1-0.6-0.1c-0.9-0.4-1.6,0-1.9,0.7C127.2,159,127.7,159.7,127.9,160.1z"/>
	<path d="M83.8,139.4c-0.7-0.5-1.3-1-0.9-2c0.4-1.2,1.6-2.2,2.7-2.2c1.5,0.1,2.6,0.8,3.4,2c0.2,0.3,0.1,0.9-0.1,1.2
		C88,140.1,85.5,140.5,83.8,139.4z M87.2,136.6c-1-0.3-1.7-0.9-2.4,0.2c-0.4,0.7-0.8,1.3,0.1,1.8c0.8,0.6,2.6,0.5,2.9-0.3
		C87.9,137.9,87.4,137.2,87.2,136.6z"/>
	<path d="M109.6,153.5c-0.9-0.8-1.1-1.6-1-2.5c0.2-1,1-1.4,1.8-1.5c1.4-0.2,2.8,0.2,3.7,1.3c0.4,0.5,0.5,1.4,0.3,2
		c-0.2,0.5-1,1.2-1.6,1.2C111.8,154,110.7,153.7,109.6,153.5z M110.8,153.2c1.1-0.2,2.1-0.1,2.5-0.5c0.6-0.7-0.1-1.4-0.7-1.8
		c-0.7-0.5-1.5-0.7-2,0.2C110.4,151.5,110.7,152.2,110.8,153.2z"/>
	<path d="M75.4,131.2c1-1.6,2.7-2,4.2-1.1c1.2,0.7,1.5,2.3,0.7,3.5c-1,1.5-2.9,2-4.2,1.1C74.8,133.8,74.5,132.5,75.4,131.2z
		 M77.1,133.8c1,0.7,2.2,0.6,2.6-0.1c0.4-0.7,0.1-2.1-0.7-2.6c-0.8-0.6-1.7-0.3-2.5,0.7C75.8,132.8,76.6,133.3,77.1,133.8z"/>
	<path d="M95.6,141.6c1.5,1.1,1.8,1.9,1.1,3c-0.8,1.2-2.9,1.4-4.3,0.4c-1.3-1-1.6-2.3-0.8-3.4C92.6,140.4,94,140.4,95.6,141.6z
		 M95.6,142.6c-0.5-0.2-0.8-0.3-1.1-0.3c-0.9-0.2-1.7-0.1-1.9,0.9c-0.2,1.1,0.6,1.4,1.5,1.5c0.3,0,0.5,0.1,0.8,0
		c0.4-0.1,1.1-0.4,1.1-0.6C96,143.5,95.7,143,95.6,142.6z"/>
	<path d="M145.3,166.9c-1.8-1.1-1.7-2.4,0.1-3.5c1.4-0.8,3.5-0.3,4.4,1.1c0.7,1.1,0.3,2.6-1,2.8c-1.1,0.2-2.4,0-3.5-0.1
		C145.3,167.2,145.3,167.1,145.3,166.9z M145.8,166.2c1.4,0.8,2.7,0.7,3-0.2c0.1-0.4-0.2-1.2-0.5-1.6c-0.7-0.6-2.1-0.3-2.4,0.5
		C145.7,165.3,145.8,165.9,145.8,166.2z"/>
	<path d="M118.4,156.7c-1.4-0.9-1.7-1.9-1-3c0.7-1.1,3.1-1.3,4.5-0.4c1.2,0.8,1.5,2.1,0.9,3.1C122.1,157.4,119.7,157.5,118.4,156.7z
		 M121.4,154.2c-1.3-0.8-2.2-0.7-2.7,0.2c-0.5,0.9-0.1,1.5,0.7,1.9c0.9,0.5,1.8,0.6,2.4-0.3C122.4,155,121.8,154.4,121.4,154.2z"/>
</g>
</svg>
