<?xml version="1.0" encoding="utf-8"?>
<!-- Generator: Adobe Illustrator 17.1.0, SVG Export Plug-In . SVG Version: 6.00 Build 0)  -->
<!DOCTYPE svg PUBLIC "-//W3C//DTD SVG 1.1//EN" "http://www.w3.org/Graphics/SVG/1.1/DTD/svg11.dtd">
<svg version="1.1" id="Layer_1" xmlns="http://www.w3.org/2000/svg" xmlns:xlink="http://www.w3.org/1999/xlink" x="0px" y="0px"
	 viewBox="0 0 288 216" enable-background="new 0 0 288 216" xml:space="preserve">
<g>
	<path d="M270.8,139.6c-0.4-1.5-0.8-3.1-1.2-4.6c-0.5-2-0.8-4.1-1.5-6c-0.8-2.4-1.8-4.7-2.8-6.9c-1.5-3.5-3.9-6.4-7.4-8.1
		c-2.4-1.2-4.8-2.3-7.1-3.4c-1.3-0.6-2.5-1.3-3.8-1.8c-1.2-0.4-2.4-0.7-3.6-1c-0.3-0.1-0.6-0.3-0.9-0.4c-1.3-0.4-2.7-0.7-4-1.1
		c-0.2-0.1-0.5-0.3-0.6-0.5c-0.8-1.5-1.4-1.8-3.1-1.5c-0.1,0-0.2,0-0.3,0c-2-0.3-2.7,0.2-3.2,2.1c-0.2,0.7-0.4,1.1-1.3,1
		c-1.1,0-2.4,0-3.4,0.3c-2,0.6-4.1,1-6,2c-2.5,1.1-4.3,3-6.2,4.7c-0.3,0.2-0.3,0.7-0.6,0.9c-0.9,0.8-1.9,1.6-2.6,2.5
		c-1.6,1.8-3,3.7-4.5,5.6c-1.4,1.9-2.8,3.8-4.2,5.8c-1.3,1.8-2.5,3.6-3.8,5.4c-1.2,1.7-2.6,3.2-3.8,4.9c-0.4,0.5-0.7,0.9-1.2,1.6
		c-0.6-2-3.2-3.3-4.7-2.6c-0.3-1.4-0.6-2.8-1-4.1c-0.6-1.8-1.4-3.5-2.1-5.2c-1-2.6-1.9-5.2-2.9-7.8c-0.6-1.5-1.3-3.1-1.9-4.6
		c-0.4,0.5-0.9,0.9-1.6,1.1c0.5,1.5,1,3.1,1.6,4.6c0.5,1.3,1.3,2.6,1.8,3.7c-1.7,0.5-3.2,0.9-4.6,1.5c-1.5,0.7-2.8,1.8-3.7,3.2
		c-0.6,0.9-1.5,1.6-2.2,2.4c-0.5,0.6-1,1.2-1.4,1.8c-0.5,0.7-0.8,1.6-1.2,2.3c-0.6,0.9-0.3,1.7,0.3,2.5c0.6,0.8,1.2,1.6,1.9,2.2
		c1.2,1,2.6,1.8,3.7,2.9c1.1,1,2.3,1.8,3.8,1.9c0.6,0.1,1.2,0,2,0c-1.7,1.7-0.5,3.9-0.6,6.1c-0.7-0.1-1.3-0.3-1.9-0.4
		c-0.4,0-0.9,0.1-1.3,0.1c-0.4,0-0.8-0.1-1.2-0.1c-0.8,0.1-2.2-0.9-2.3-1.4c-0.7-0.3-1.3-0.4-1.7-0.8c-2-1.9-3.9-3.9-5.8-5.9
		c-0.8-0.9-1.4-2.1-2.1-3.1c-0.3-0.4-0.7-0.7-0.8-1.1c-0.2-1.3-0.4-2.5-0.4-3.8c-0.1-1.7,0.9-3.1,1.9-4.4c1.1-1.4,2.4-2.8,3.7-4.1
		c1.3-1.4,2.5-2.8,3.8-4c2-1.8,4.2-3.3,6.3-5c0.2-0.1,0.3-0.4,0.4-0.6c0-0.1-0.3-0.3-0.4-0.3c-0.2,0-0.5,0.1-0.7,0.2
		c-0.7,0.5-1.4,1.2-2.1,1.7c-1.3,1.1-2.7,2.1-4,3.1c-1.4,1.1-2.8,2.3-4.1,3.5c-0.6,0.5-1.1,1.1-1.5,1.7c-1.1,1.4-2.3,2.8-3.4,4.2
		c-0.1,0.1-0.2,0.1-0.2,0.2c-0.2,1.3-0.4,2.6-0.6,4c-0.1,0.4-0.1,0.8,0,1.2c0.1,0.7,0.3,1.5,0.4,2.2c0.2,0.9,0.1,1.9,0.5,2.8
		c1,2.3,2.5,4.3,4.4,6c0.9,0.8,1.5,1.8,2.4,2.6c0.7,0.6,1.5,1.2,2.3,1.7c1.5,0.9,2.8,2.1,4.8,1.8c1.2-0.2,2.5-0.4,3.7-0.5
		c0.1,0,0.2-0.2,0.2-0.3c0.4,2.1,0.9,4,1.1,6c0.2,1.6,0.1,3.3,0.2,4.9c0,0.8,0.2,1.6,0.2,2.3c-0.1,1.1-0.3,2.1-0.7,3.1
		c-0.1,0.3-1.1,0.4-1.7,0.4c-0.9,0-1.8,0-2.7-0.2c-1.7-0.4-2.9-1.5-4-2.8c-1.2-1.4-2.5-2.7-3.6-4.1c-1.3-1.5-2.5-3-3.7-4.5
		c-1.2-1.6-2-3.5-3.3-5c-2-2.3-4.5-4-7.7-4.1c-2.3,0-4.7,0.1-7,0.2c-0.9,0-1.9,0-2.8,0.1c-0.4,0-0.8,0.3-1.2,0.3
		c-0.3,0.1-0.7,0.1-1,0.1c0-0.1-0.1-0.2-0.1-0.3c-1,1.1-1.9,2.2-2.9,3.3c-1,1.1-2,2.1-2.9,3.3c-1.5,2.1-2.5,4.5-3.5,6.9
		c-0.9,2.2-1.9,4.4-3,6.6c-0.8,1.7-1.6,3.3-2.4,4.9c-0.1,0.2-0.3,0.3-0.5,0.4c-0.7,0.3-1.3,0.7-2,1c-0.6,0.2-1.2,0.4-1.8,0.6
		c-0.4,0.1-0.7,0.5-1.1,0.5c-2.6,0.3-5.3,0.8-7.9,0.8c-2.1,0-4.1-0.7-6.2-1c-0.9-0.1-1.7-0.2-2.6-0.3c-1.6-0.1-2.6-1-3.2-2.5
		c-0.6-1.3-1.4-2.6-2.1-3.9c-1.2-2.3-2.4-4.6-3.6-6.9c-0.6-1.2-1.2-2.5-2.1-3.5c-0.6-0.7-1.7-1.2-2.6-1.6c-1.3-0.6-2.6-1.1-4-1.5
		c-2.3-0.7-4.7-1.3-7-1.8c-1.6-0.3-3.3-0.2-5-0.3c-0.2,0-0.4,0.3-0.6,0.5c-1.1,0.3-2.4-0.2-3.6,0.9c-1.4,1.3-3,2.4-4.2,4.1
		c-0.6,0.9-1.1,1.8-1.8,2.7c-0.6,0.8-1.4,1.5-1.9,2.3c-0.6,1-1.1,2.1-1.6,3.2c-0.2,0.6-0.5,0.7-1.1,0.9c-2.3,0.6-4.2-0.6-6.1-1.3
		c-1.3-0.5-2.4-1.5-3.6-2.2c-1.6-0.9-3.3-1.8-4.9-2.7c-0.5-0.3-0.9-0.7-1.4-1c-0.2-0.1-0.4-0.4-0.5-0.4c-1.7,0.2-0.8-1.1-0.7-1.5
		c0.4-2.5,0.9-4.9,1.4-7.4c0.2-0.9,0.9-0.6,1.5-0.6c0.6,0,1.3,0.2,1.8-0.1c1.6-0.8,3.2-0.7,4.9-0.7c1.2-0.1,2.5-0.3,3.7-0.5
		c0.4-0.1,0.9,0,1.3,0c0.9-0.1,1.7-0.3,2.5-0.4c0.2,0,0.4-0.2,0.4-0.3c1.3-2.1,2.7-4.3,4-6.4c1.1-1.9,2.3-3.8,3.4-5.7
		c1.1-1.8,2.2-3.6,3.2-5.4c1.4-2.4,2.6-5,4.2-7.3c0.3-0.5,0.6-0.9,0.8-1.4c-0.6,0.1-1.1,0.1-1.7,0.1c-0.2,0.3-0.4,0.6-0.6,0.9
		c-0.3,0.5-0.6,1-1,1.5c-0.8,1-1.7,1.9-2.3,2.9c-0.8,1.2-1.3,2.7-2.1,3.9c-0.8,1.3-1.7,2.5-2.6,3.7c-0.4,0.6-0.6,1.3-1,2
		c-0.4,0.7-0.8,1.4-1.2,2c-0.6,0.9-1.2,1.9-2.1,2.4c-2,1.3-3.5,3.4-6,3.9c-1.7,0.4-3.2,1.4-4.9,1.9c-1.1,0.4-2.3,0.3-3.5,0.4
		c-0.6,0.1-1.3,0.1-2.2,0.2c0.4-1.4,0.8-2.7,1.1-4c0-0.2,0.2-0.3,0.2-0.5c0-1.5,0.9-2,2.2-2.5c2.3-0.9,4.4-2.1,6.6-3.1
		c2.8-1.2,4.4-3.5,6.1-5.7c1.1-1.5,1.8-3.3,2.6-5.1c0.7-1.4,1.4-2.8,1.9-4.2c0.4-1.1,0.7-2.2,1-3.3c-0.9-0.5-1.9-0.9-2.8-1.2
		c0,0.1,0,0.2-0.1,0.3c-0.4,1.6-0.5,3.3-0.9,4.9c-0.2,1-0.8,1.9-1.2,2.9c-0.2,0.4-0.2,0.7-0.4,1.1c-0.4,0.7-0.8,1.4-1.3,2
		c-0.9,1.3-1.8,2.6-2.8,3.8c-0.9,1-1.8,2-2.9,2.7c-1,0.6-2.2,1.1-3.4,1.1c-1.1,0-1.9,0.5-2.7,0.9c-0.1,0.1-0.3,0.1-0.6,0.2
		c0.7-2.1,1.2-4.1,1.9-6.1c0.5-1.6,1.2-3.1,1.9-4.6c0.2-0.5,0.7-1,1.2-1.2c1.9-1,3.1-2.6,4.3-4.3c0.1-0.1,0-0.2,0.1-0.3
		c1.8-1.4,0.5-2.9,0.2-4.4c0-0.1,0-0.3-0.1-0.4c-1.4-1.2-2-3.5-2.7-5.3c-0.2,0.4-0.5,0.8-0.7,1.3c-0.9,1.8-1.6,3.7-2.3,5.5
		c-0.6,1.5-1.2,3-1.7,4.5c-0.6,1.8-1.2,3.7-1.8,5.5c-0.6,1.9-1.4,3.7-1.9,5.6c-0.5,1.9-0.7,3.8-1,5.7c-0.3,1.8-0.6,3.7-1,5.5
		c-0.4,2.1-0.9,4.1-1.4,6.2c-0.3,1.2-0.5,2.4-0.8,3.6c-0.3,0.9-0.8,1.8-1,2.7c-0.4,1.5-0.3,1.5-2,1.5c-0.7,0-1.3,0.1-1.6,0.9
		c-0.3,0.8-0.7,1.6-1,2.5c-0.1,0.2,0,0.6,0.1,0.8c0.3,0.8-0.1,1.4-0.9,1.6c-1.5,0.3-3,0.5-4.4,0.9c-2,0.6-3.9,1.4-6,1.2
		c-0.6,0-1.3-0.1-1.9-0.2c-1.1-0.1-2.2-0.1-3.4-0.3c-0.6-0.1-0.9,0.1-1,0.6c-0.2,0.7-0.4,1.4-0.6,2.1c-0.2,0.9-0.6,1.8-0.7,2.7
		c-0.1,0.9,0,1.9,0.1,2.8c0,0.3,0.3,0.7,0.5,0.9c0.5,0.5,1,0.8,1.6,1.2c1.2,0.9,2.3,1.8,3.6,2.5c1.6,0.9,3.5,1.1,4.9,2.4
		c0.4,0.3,0.9,0.7,1.4,0.1c0.1-0.1,0.4,0,0.6,0c1.2,0.2,2.4,0.5,3.5,0.5c1.1,0,2.3-0.2,3.4-0.4c1.3-0.2,3.1,0.7,3.8-1.4
		c0,0,0.2,0,0.3-0.1c1.3-0.7,2.7-1.5,4-2.2c0.4-0.2,1-0.3,1.6-0.4c0.2-0.4,1.7-0.7,2.5-0.4c0.9,0.3,1.8,0.5,2.7,0.6
		c1.8,0.2,3.5,0.4,5.3,0.6c1.1,0.1,2.2,0.2,3.3,0.2c1.4-0.1,2,0,2.2,1c0.1,0.3-0.1,0.7-0.1,1.1c0.1,1.3,0.4,2.5,0.4,3.8
		c0,1.2-0.3,2.4-0.5,3.6c-0.1,0.5,0.1,1.1,0,1.6c-0.3,1.3-0.9,2.6-1,3.9c-0.1,1.7-0.6,3.1-1.3,4.6c-0.6,1.3-1.2,2.6-1.6,4
		c-0.2,0.6-0.7,1.5-0.1,2.1c0.6-0.3,1.1-0.5,1.5-0.7c0.6-2,1.2-4,1.7-6c0.4-1.4,0.8-2.7,1.1-4.1c0.3-1.3,0.6-2.6,0.9-3.8
		c0.3-1.4,0.7-2.7,1-4.1c0.3-1.9,0.4-3.9,0.9-5.8c0.8-3,1.5-6.1,3-8.8c1-1.9,1.9-3.8,3.7-5.1c1.4-1,2.7-2.2,4.2-3.1
		c0.9-0.5,1.9-1.3,3.1-0.7c0.6,0.3,1.2,0.6,1.8,0.9c1.4,0.7,3,1.2,4.2,2.2c1.3,1.2,2.4,2.7,3.3,4.3c1.1,1.7,1.9,3.6,2.8,5.4
		c0.4,0.9,0.8,1.7,1.3,2.6c0.7,1.5,1.4,2.9,2.1,4.4c0.4,0.8,0.7,1.7,1,2.5c-0.1,0-0.2,0-0.3,0.1c-0.1,1-0.1,1.9-0.4,2.6
		c-0.2,0.5-0.9,0.7-1.5,1.1c-0.1,0-0.3-0.1-0.3-0.2c-0.5-0.6-0.8-1.3-1.7-1.3c-0.1,0-0.3-0.4-0.4-0.7c-0.1-0.3-0.3-0.7-0.2-1
		c0-0.6,0.2-1.1,0.4-1.7c0-0.1,0.5-0.1,0.7,0c0.8,0.2,1,0.8,1,1.6c-0.2-0.1-0.2-0.2-0.3-0.3c-0.2-0.1-0.5-0.1-0.7-0.2
		c0,0.2-0.1,0.6,0,0.7c0.4,0.2,1,0.6,1.2,0.5c0.4-0.4,1.1-1.2,0.9-1.5c-0.6-0.8-1.4-1.6-2.2-2.2c-0.1-0.1-0.7,0.4-1.1,0.6
		c-1,0.6-1.5,2.3-0.9,3.3c0.6,0.9,1.2,1.8,1.9,2.6c1,1.2,1.6,1.3,2.9,0.4c0.6-0.4,1.4-0.8,1.5-1.7c0-0.6,0.1-1.3,0.2-1.9
		c0.1,0,0.2-0.1,0.3-0.1c0.4,1.4,0.9,2.8,1.3,4.2c0.2,0.7,0.3,1.5,0.4,2.2c0,0.4-0.1,0.9-0.1,1.3c0.1,0.9,0.2,1.8,0.3,2.7
		c0.1,0.7,0.2,1.3,0.2,2c0,0.6-0.1,1.2-0.2,1.8c0.3,1.3-0.5,2.7-0.4,3.9c0.2,1.6-0.8,2.7-1.1,4.3c1.1-1.1,1.8-0.3,2.7,0
		c0.1,0,0.2,0.1,0.3,0.1c2.2,0,4.3-0.4,6.2-1.5c0.5-0.3,1.2-0.8,1.3-1.3c0.4-1.9,0.8-3.9,1-5.9c0.1-1.6-0.2-3.3-0.3-5
		c-0.1-1.9-0.3-3.7-0.5-5.6c-0.1-1.1-0.5-2.1-0.7-3.3c2.5,0,5.1,0,7.7,0c2.8-0.1,5.6-0.1,8.4-0.3c1-0.1,2.1-0.3,3.1-0.6
		c1.4-0.4,2.8-1,4.2-1.5c1.1-0.5,2.2-1.1,3.3-1.6c0.8,1.2-0.4,3,1.2,4.2c-0.3,0.3-0.6,0.5-1.1,0.9c0.5-0.2,0.8-0.3,1-0.4
		c0.2,1.7,0.5,3.4,0.6,5.1c0.1,1.4-0.1,2.9-0.2,4.3c0,1.3,0.1,2.5,0,3.8c-0.1,1.3-0.4,2.6-0.7,4.1c0,0-0.1,0.1-0.3,0.1
		c0.1,0.1,0.1,0.3,0.2,0.3c0.5,0.2,1,0.5,1.5,0.7c2.5,1,5,2,7.5,3c1.7,0.7,3.4,1.8,5.4,1.4c0.2,0,0.4,0,0.6,0c1,0.1,2,0.4,3,0.3
		c1.5-0.1,3-0.4,4.5-0.7c1.6-0.3,3.3-0.7,4.9-1.1c1.5-0.4,3-0.8,4.6-1.2c0.5-0.1,1-0.2,1.5-0.4c0.4-0.1,0.8-0.1,1.2-0.3
		c1-0.5,2-1.1,2.8-1.6c0-4.3,0.6-8.8-0.1-13.3c0.1,0,0.2,0,0.3,0c0.2,1.6,0.4,3.2,0.7,5c0.4-2.2,0.8-4.1,1.1-6c0.1,0,0.1,0,0.2,0
		c0.1,3.4,0.3,6.8,0.4,10.2c0.1,0,0.2,0,0.3,0v-6.3c0,0-0.1-0.2-0.1-0.5c-0.1-0.9-0.1-1.8-0.2-2.7c-0.1-1.7-1.1-3.6,1.2-4.7v1.7
		c0.2-1.1,0.5-2.4,0.7-3.6c-0.6,0.7-1.3,1.6-2,2.5c-0.1-0.1-0.3-0.2-0.4-0.3c0.3-0.5,0.6-1,1-1.5c0.2-0.3,0.5-0.7,0.7-1
		c-0.4,0.3-0.8,0.6-1.2,0.9c-0.1-0.1-0.2-0.2-0.3-0.3c0.9-0.9,1.7-1.8,2.6-2.7c0,0-0.1-0.1-0.1-0.1c-0.2,0.1-0.3,0.2-0.6,0.4
		c0.1-0.2,0.2-0.3,0.2-0.4c0-0.1,0-0.3,0-0.3c0.5-0.3,0.9-0.5,1.5-0.8c-0.1,0.4-0.1,0.8-0.3,1.2c-0.2,0.4-0.5,0.7-0.7,1.1
		c0.5-0.4,0.9-0.7,1.5-1.2c0,0.7,0.1,1.4,0.1,2.2c0.7,0.1,2.3,14.6,1.7,17.3c-0.1-0.2-0.2-0.3-0.4-0.8c-0.1,1.5-0.3,2.8-1.8,3.2
		c-0.1-0.3-0.4-0.7-0.4-1c0-0.5,0.2-1.1,0.3-1.6c0.2-0.6,0.4-1.2,0.7-1.7c0.3-0.5,0.8-0.9,1.1-1.4c0.1-0.2,0-0.5,0-0.8
		c-0.3,0.1-0.6,0.1-0.8,0.3c-0.4,0.4-0.9,0.8-1.2,1.3c-0.7,1.1-2,1.9-1.5,3.5c0.1,0.5,0.2,1,0.2,1.5c0,0.2-0.3,0.5-0.5,0.5
		c-0.3,0.1-0.6,0-0.9,0c-0.4,0-0.8,0-1.3,0c-0.4,0-0.8-0.2-1.2-0.2c0,0.1-0.1,0.3-0.1,0.4c0.3,0.2,0.6,0.6,0.9,0.6c1.3,0,2.7,0,4,0
		c1.7,0,3.2-0.6,4.6-1.4c1-0.6,1.4-1.5,1.2-2.7c-0.2-1.3-0.4-2.7-0.5-4c-0.3-2.1-0.4-4.1-0.8-6.2c-0.5-2.7-1.1-5.4-1.9-8
		c-0.2-0.7,0.2-1.8-0.8-2.2c0.1-0.2,0.2-0.4,0.3-0.4c0.7-0.1,1.3-0.3,2-0.3c0.6,0,1,0.6,1.9,0.4c0.7-0.2,1.6,0.4,2.4,0.6
		c0.9,0.3,1.8,0.6,2.8,0.9c0.6,0.2,1.2,0.5,1.8,0.7c0.6,0.1,1.2,0.1,1.7,0.1c0.3,0,0.7,0.2,0.9,0c1.4-0.9,2.9-1.7,4.2-2.7
		c0.9-0.6,1.6-1.3,2.5-1.8c1.3-0.7,1.5-1,1-2.4c-0.1-0.4-0.1-0.8-0.1-1.1c1.3-0.1,2.6-0.2,3.8-0.4c1.4-0.2,2.8-1,4.3-0.5
		c0.2,0.1,0.5,0,0.7,0c0.7-0.1,1.4-0.2,2.2-0.3c2-0.3,4-0.5,5.9-0.8c2.4-0.4,4.8,0,7.2,0.4c1,0.2,2,0.4,3,0.7
		c0.9,0.2,1.9,0.4,2.8,0.6c1.5,0.4,2.9,1,4.4,1.1c1.3,0,2.8-0.4,4.1-0.9c2.4-0.9,4.7-2.1,7.1-3.1c2.5-1.1,4.7-2.7,6.7-4.6
		c1.1-1,1.4-2.2,1.4-3.7c0-2.2,0.2-4.4,0.3-6.3c-1.1-1.1-2.3-0.7-3.4-0.7c-1.7,0.1-3.4,0.1-5.2,0.2c-0.6,0-1.3-0.1-1.9-0.2
		c1.4-0.6,2.9-1,4.3-1.4c2.2-0.7,4.3-1.4,6.5-2.1c1.6-0.5,3.3-1.1,4.9-1.7c0.6-0.2,1.2-0.4,1.7-0.8c2.7-2.6,4.3-5.8,6.2-8.9
		c0.4-0.7,1-1.3,1.7-1.8C270.8,140.5,271,140.2,270.8,139.6z M56.7,119.7c0,0.6-0.1,1.1-0.1,1.7c-0.1,0.6-0.1,1.3-0.3,1.9
		c-0.1,0.3-0.4,0.6-0.7,0.9c-0.3,0.3-0.7,0.6-1.2,1.1C54.7,123.1,55.9,121.5,56.7,119.7z M183.8,138.7c-1.1-0.2-2.1-0.5-3.2-0.8
		c-0.8-0.2-0.9-1-0.9-1.7c-0.1-0.7,0.4-0.9,0.8-1.3c0.9-0.8,1.8-0.8,2.8-0.2c0.1,0,0.1,0.1,0.2,0.1c1.9-0.6,1.5,1.1,1.9,1.9
		C185.8,137.8,185.3,138.3,183.8,138.7z M181.2,145.1c-0.1-0.5-0.2-0.7-0.3-1c-1.7,0.3-3.2-0.2-4.7-0.9c-0.6-0.3-1.2-0.4-1.8-0.7
		c-1.2-0.6-1.9-1.6-2.1-2.9c0-0.2-0.2-0.4-0.5-0.7c0-0.8-0.1-1.9-0.1-3c0-0.2,0-0.5,0.1-0.7c1.6-2.4,3.6-4.5,5.9-6.2
		c0.8-0.6,1.9-0.9,2.8-1.4c0.7-0.3,1.5-0.6,2.4-1c0.6,2.5,1.3,5.1,1.9,7.6c-1-0.5-1.9-0.9-2.8-1.2c-1.1-0.5-1.8,0-2.5,0.9
		c-0.8,1-0.8,2.1-1.1,3.3c0,0.2-0.1,0.4,0,0.5c0.4,1,0.7,2.1,1.3,3c0.1,0.2,1.1,0.1,1.7,0c1.5-0.5,2.9-1.2,4.4-1.8
		c0.8,1.9-0.6,3-1.5,4.2c-0.3,0.4-0.6,1-1,1.2C182.6,144.7,181.9,144.9,181.2,145.1z M44.4,178.7c-0.3,0.2-0.6,0.2-0.8,0.4
		c-0.7,0.8-1.3,1.6-2.2,2.6c-0.6,0.2-1.4,0.5-2.3,0.6c-0.9,0.1-1.7,0.1-2.6,0.1c-0.4,0-0.8,0.1-1.2,0.1c-2.3-0.2-4.6-0.4-6.9-0.8
		c-1.6-0.3-3.2-0.8-4.7-1.4c-1-0.4-1.9-1.2-2.7-2c-0.3-0.3-0.3-1.1-0.3-1.7c0-0.8,0.1-1.6,0.2-2.3c0.1-0.8,0.3-1.6,0.6-2.2
		c0.2-0.3,0.8-0.4,1.3-0.5c0.9-0.2,1.8-0.3,2.7-0.4c1.7-0.2,3.5-0.3,5.2-0.5c0.6-0.1,1.2-0.5,1.8-0.7c0.4-0.1,0.8,0,1.2-0.1
		c0.7-0.2,1.4-0.4,2.4-0.7c0.7,0.4,1.7,0.9,2.6,1.6c1.3,1.1,2.6,2.3,3.8,3.5c0.8,0.8,1.5,1.7,2.2,2.5
		C45.3,177.6,45.3,178.2,44.4,178.7z M108.9,198.9c0.2,1.4,0.2,2.9,0.2,4.3c0,0.3-0.2,0.5-0.3,0.9c0,0,0.1,0.1,0.2,0.1
		c-0.2,0.4-0.5,0.6-0.5,0.8c0.1,1.6-1,2.9-2.6,3.1c0.2-1.1,0.1-2.2,0.5-3.2c0.4-1.1,1.2-2,1.7-3c0.2-0.3,0.2-0.7,0.2-1.1
		c-0.4,0.1-0.8,0-1.1,0.2c-0.7,0.5-1.4,1-2.1,1.6c-0.4,0.3-0.6,0.7-0.8,1.2c0.1-0.1,0.2-0.1,0.5-0.2c-0.1,0.8-0.3,1.6-0.2,2.3
		c0.1,0.7,0.3,1.4,0.6,2c0.2,0.4,0.3,0.6-0.2,0.7c-0.7,0.1-1.3,0.4-2,0.5c-0.2,0.1-0.5,0-0.7-0.1c-0.6-0.2-1.2-0.3-1.7-0.5
		c0.1-0.3,0.5-0.8,0.4-1.1c-0.5-2.1,0.6-4,0.7-6c0-0.5,0.6-1.1,1-1.8c-0.2-0.9-0.2-0.9,0.2-1c-0.1-0.4-0.1-0.8-0.2-1.2
		c0,0,0.4-0.1,0.7-0.1c0.1-0.4,0.2-0.9,0.3-1.5c0,0,0.1,0,0.1,0v2.2c0.7-3,0-6.2,1.2-9.1c0.1,0,0.2,0,0.3,0c0.1,1.7,0.2,3.5,0.3,5.2
		l0.2,0c0.1-0.2,0.2-0.4,0.2-0.5c0-1.2-0.1-2.5-0.2-3.7c0-0.5-0.2-0.9-0.4-1.3c-0.1-0.2-0.4-0.2-0.7-0.4c0,0,0.1-0.3,0.2-0.3
		c0.5,0,0.9,0.1,1.4,0.2c0,0.2-0.1,0.3-0.1,0.5c0,0.1,0,0.3,0,0.3c1.3,0.6,0.8,1.8,1.1,2.8c0.1,0.4,0.3,0.7,0.4,1
		c0.1,0.4-0.1,0.9,0.1,1.2C108.5,195.4,108.6,197.1,108.9,198.9z M102,194l0.3,0c-0.2,1.3-0.3,2.7-0.5,4.3
		C101.2,196.7,101.9,195.4,102,194z M103,188.4c0,0.1,0,0.5-0.1,0.9c-0.2-0.5-0.4-0.9-0.6-1.4c0.8-0.5,1.6-0.1,1.5,1.1
		c-0.2,2.5-0.5,5-0.8,7.5c0,0.2-0.2,0.4-0.3,0.6c-0.1,0-0.2-0.1-0.3-0.1c0.3-2.9,0.6-5.8,0.9-8.6C103.3,188.2,103.2,188.3,103,188.4
		z M162.1,207.5c-1.1,0.3-2.1,0.6-3.2,0.8c-0.8,0.1-1.6-0.1-2.4-0.2c-0.2-1.3,0.7-1.9,1.4-2.5c0.4-0.3,0.6-0.7,1-1
		c0.4-0.2,1-0.3,1.4-0.4c0,0,0.1,0.3,0.2,0.4c0.1,0.2,0.1,0.4,0.2,0.5c0.5,0.6,1,1.3,1.5,1.9C162.3,207.1,162.1,207.4,162.1,207.5z
		 M172.2,203.3c-0.1,0.8-0.6,1.5-1,2.2c0,0.1-0.2,0.2-0.4,0.2c-0.6,0.1-1.2,0.2-1.8,0.3c-0.1-2.4,0.7-6.3,3.4-6.4
		C172.4,200.9,172.4,202.1,172.2,203.3z M171.5,198.7c-1.4,0.3-2.4,1.1-3.2,2.3c-0.5,0.8-0.7,1.6-0.4,2.5c0.1,0.2-0.3,0.6-0.5,0.9
		c0.9,0.4,0.4,1,0.3,1.5c-0.3,1.1-1.4,0.6-2.2,1c-1.3,0.7-2.1,0.4-2.7-1.2c-0.5-1.2-1.7-2.1-2.7-3c-0.2-0.2-0.8-0.1-1.1,0.1
		c-0.6,0.3-1.3,0.6-1.6,1.1c-0.8,1.3-1.5,2.6-2.2,3.9c-0.2,0.3-0.6,0.7-0.8,0.6c-1.8-0.1-3.7,0.3-5.5-0.3c-0.9-0.3-2,0-2.9-0.1
		c-1.2-0.2-2.5-0.5-3.7-0.7c-0.6-0.1-1.2-0.2-1.8-0.4c-0.3-0.1-0.6-0.5-1-0.8c0,0.2,0,0.4,0,0.7c-0.3-0.3-0.6-0.5-0.7-0.6
		c-0.3,0.1-0.7,0.3-0.8,0.2c-0.3-0.2-0.7-0.6-0.7-0.9c0.2-2.5,0.6-5,0.8-7.5c0.3-3.2,0.3-6.3-0.3-9.5c-0.3-1.6-0.4-3.3-0.6-4.9
		c-0.1-0.5-0.3-1-0.5-1.6c0-0.1-0.1-0.1-0.1-0.2c0.1-2.2,0.3-4.4,1.4-6.5c0.4-0.8,0.3-1.7,0.6-2.5c1-2.6,2-5.3,3.3-7.7
		c0.7-1.3,2.1-2.2,3.2-3.2c0.6-0.5,1.2-1.1,1.9-1.4c0.9-0.4,1.8-0.7,2.8-1c0.8-0.3,1.7-0.7,2.5-0.7c0.8,0.1,1.7,0.5,2.3,1.1
		c2.2,2.3,4.3,4.8,6.4,7.2c0.6,0.6,0.9,1.5,1.4,2.2c0.6,0.8,1.3,1.6,2,2.5c-0.1,0.1-0.2,0.1-0.5,0.3h0.4c0.4,0.5,0.7,1,1,1.4
		c0.3,0.4,0.8,0.8,1,1.2c0.6,1.2,1.3,2.4,1.7,3.7c0.3,0.8,0,1.7,0.2,2.5c0.1,0.8,0.3,1.5,0.6,2.2c0.7,2,0.4,3.9-0.8,5.6
		c-0.1,0.2-0.9,0.3-1.1,0.1c-0.8-0.6-1.5-1.3-2.1-2c-1-1.2-0.8-2.3,0.6-3.6c0.4,0.6,0.9,1.1,1,1.7c0.1,0.6-0.1,1.2-0.3,2
		c0.3-0.2,0.8-0.5,0.8-0.7c0-1.4-0.1-2.7-0.3-4.1c-0.1-0.6-0.5-0.5-0.9-0.2c-0.3,0.2-0.8,0.2-1,0.5c-0.4,0.4-0.8,0.9-1.1,1.5
		c-0.4,0.9-0.9,1.7-0.6,2.8c0.2,0.4,0.6,0.8,0.8,1.2c0.2,0.2,0.3,0.5,0.5,0.9c0.3,0.2,0.7,0.5,1.1,0.8l0.2-0.2
		c-0.5-0.6-1-1.2-1.5-1.7c0.1-0.1,0.2-0.1,0.2-0.2c0.6,0.8,1.2,1.5,1.8,2.3c0.3,0.5,1.9,0.3,2.2-0.3c0.5-1,0.8-2,1.3-3.1
		c0.1-0.2,0.3-0.4,0.6-0.8c-0.1,0.8-0.2,1.4-0.2,2c0.1,0.5,0.4,1,0.5,1.5c0.2,0.9,0.5,1.9,0.7,2.9c0.3,1.8,0.6,3.7,0.9,5.5
		C172.6,198.4,172,198.6,171.5,198.7z M173.3,186.8l0.6-1.3c0.2,0.1,0.3,0.2,0.5,0.2c-0.2,0.4-0.5,0.8-0.7,1.3
		C173.6,186.9,173.5,186.9,173.3,186.8z M174.5,187c0.2,0.5,0.2,0.5-0.9,1.8C173.4,188.2,173.4,188.2,174.5,187z M173.8,190.9
		c0.1-0.8-0.6-1.7,0.8-2.3c-0.2,0.9-0.3,1.6-0.5,2.4C174,191,173.9,190.9,173.8,190.9z M174.5,195.5c-0.8-1.1-0.4-4.4,0.8-5.4
		C175.1,192,174.8,193.7,174.5,195.5z M174.7,185.6c-0.1-0.1-0.1-0.1-0.2-0.2c0.4-0.3,0.7-0.5,1.1-0.8c0.1,0.1,0.1,0.2,0.2,0.2
		C175.5,185.1,175.1,185.4,174.7,185.6z M199.8,178c0,0.2-0.2,0.4-0.3,0.5c-1.3,0.7-2.7,1.2-3.7,2.1c-1.9,1.7-3.9,0.7-5.8,0.5
		c-2-0.3-3.9-0.9-6-0.5c-1,0.2-2.1-0.1-3.2,0.1c-0.9,0.1-1.8,0.1-2.5,0.9c-0.5,0.5-1.5,0.6-2.3,0.8c-0.5,0.1-1.1,0.2-1.6,0.2
		c-1.5,0.1-2.5-0.8-3.3-1.7c-0.8-1-1.3-2.2-2-3.3c-1.3-2.1-2.6-4.2-3.9-6.2c-0.6-0.8-1.6-1.4-1.9-2.3c-1-2.4-2.7-4.3-4.1-6.4
		c-1-1.4-2.1-2.7-3.3-4c-0.7-0.7-1.6-1.2-2.4-1.8c-0.1,0-0.2,0-0.2-0.1c-0.6-1.3-1.3-0.3-1.9-0.1c-1.3,0.4-2.6,0.8-3.9,1.1
		c-1,0.2-1.9,0.3-2.5,1.3c-0.8,1.2-1.9,2.1-2.8,3.2c-0.7,0.9-1.2,1.8-1.7,2.8c-0.7,1.3-1.3,2.5-1.8,3.8c-1,2.4-1.9,4.8-2.8,7.2
		c-0.3,0.8-0.6,1.5-0.9,2.3c-0.1,0.2-0.3,0.5-0.2,0.8c0.4,1.6-0.7,2.5-1.9,3.2c-1.1,0.6-2.3,1-3.4,1.4c-1.2,0.4-2.5,0.7-3.7,1
		c-1.5,0.4-2.9,0.8-4.4,1c-2,0.3-4.1,0.7-6.1,0.8c-2.5,0.1-5.1,0.1-7.6,0c-1.5-0.1-3.1-0.3-4.6-0.6c-1.4-0.2-2.7-0.5-4.1-0.8
		c-0.2,0-0.5-0.2-0.6-0.4c-0.8-1.9-1.6-3.8-2.4-5.8c0.9-0.4,0.6-0.9,0.2-1.4c-1.3-1.9-2.4-3.8-3.8-5.6c-1.1-1.4-2.4-2.7-3.6-4
		c-1.2-1.3-2.5-2.5-3.8-3.7c-0.6-0.6-1.2-1.2-1.9-1.6c-0.4-0.3-1.1-0.2-1.6-0.3c-2.2-0.1-4.2,0.8-5.9,2c-1.7,1.3-3.2,2.9-4.6,4.6
		c-0.7,0.8-0.8,2.1-1.3,3c-0.5,0.9-1.3,1.6-1.9,2.4c-0.3,0.4-0.5,1-0.8,1.4c-0.7,1-1.4,2.1-2.2,3.1c-1.6-0.2-3.2-0.3-4.7-0.5
		c-1.5-0.1-2.9-0.1-4.4-0.4c-3.2-0.7-6.3-1.8-9-3.9c-1.5-1.2-3.1-2.2-4.6-3.3c-0.2-0.2-0.4-0.5-0.6-0.7c-0.5-0.5-1-0.8-1.4-1.4
		c-0.4-0.5-0.5-1-0.8-1.6c0-0.1,0-0.2-0.1-0.3c-1-0.5-0.4-1.3-0.3-2c0.1-0.9,0.7-1.3,1.7-1c0.3,0.1,0.6,0.1,0.8,0.1
		c0.7-0.2,1.2-0.2,1.5,0.6c0.1,0.3,0.7,0.6,1.1,0.8c1.1,0.5,2.3,0.8,3.3,1.5c1.4,0.9,2.6,2.1,4,3.1c1,0.7,2.1,1.3,3.1,1.9
		c0.2,0.1,0.4,0.2,0.7,0.1c0.6,0,1.1,0.1,1.7,0.1c1,0.1,2,0.2,3,0.4c0.7,0.1,1.3,0.2,2,0.4c0.8,0.2,1.6-0.2,2.1-1.4
		c0.8-1.8,1.5-3.7,2.4-5.5c0.4-0.9,1.1-1.7,1.7-2.5c1.5-1.8,3.1-3.6,4.6-5.4c0.1-0.1,0.3-0.3,0.5-0.3c2.5,0,5.1-0.1,7.6,0
		c0.9,0,1.9,0.3,2.8,0.5c1.2,0.3,2.6,0.3,3.7,0.8c2,1,4,2.2,5.8,3.6c1.7,1.4,3.1,3.2,4.5,4.9c0.4,0.5,0.5,1.3,0.7,2
		c0.6,1.5,1.4,3,2,4.6c0.5,1.3,0.6,2.7,1.1,4c0.2,0.7,0.8,1.3,1.1,2c0.1,0,0.2-0.1,0.3-0.1c0-0.3,0-0.6-0.1-0.9
		c0.7,0.8,1.5,0.8,2.5,0.5c0.4-0.1,1.1-0.1,1.5,0.1c1.4,0.8,2.8,0.1,4.2,0.1c1.9,0,3.7,0.1,5.6,0c1.7-0.1,3.4-0.5,5.1-0.7
		c1-0.1,2.1-0.2,3.2-0.3c1-0.1,2,0,3-0.2c0.8-0.1,1.4-0.6,2.1-0.9c0.6-1.5,1.3-3.1,1.8-4.7c0.7-2.2,1.3-4.4,2.1-6.5
		c0.6-1.6,1.2-3.2,1.9-4.8c0.8-1.5,1.7-2.9,2.7-4.3c0.9-1.3,1.9-2.4,3-3.6c0.2-0.2,0.5-0.2,0.8-0.2c0.2-0.1,0.3-0.3,0.5-0.4
		c0.7-0.3,1.5-0.6,2.2-0.9c0.5-0.1,1-0.2,1.5-0.2c1.2,0,2.4,0,3.6-0.1c0.2,0,0.3-0.2,0.5-0.2c0.3-0.1,0.7-0.2,1.1-0.2
		c0.5,0.1,1,0.4,1.6,0.4c0.5,0.1,0.9-0.1,1.4-0.1c0.2,0,0.4,0.1,0.7,0.1c0.4,0.1,0.8,0.1,1.1,0.3c0.8,0.4,1.5,0.8,2.2,1.2
		c1.8,1.2,3.5,2.7,4.6,4.6c0.8,1.4,1.6,2.7,2.7,3.9c1.4,1.4,2.7,2.9,4,4.3c0.5,0.5,1.1,1,1.6,1.5c0.4,0.4,0.5,1,0.8,1.4
		c0.2,0.3,0.6,0.7,0.9,0.9c0.9,0.8,1.8,1.5,2.6,2.3l0.2-0.2c-0.1-0.2-0.3-0.4-0.5-0.6c0.7,0.2,1.4,0.3,2.2,0.5
		c-0.3,0.2-0.5,0.2-0.7,0.4c1.7,0.1,3.2,0.5,4.7-0.3c0.5-0.3,1.2,0,1.9-0.1c0.2,0,0.5-0.4,0.5-0.6c-0.3-3.7-0.5-7.5-0.9-11.2
		c-0.1-1.3-0.7-2.5-0.9-3.8c-0.2-0.7-0.2-1.5-0.3-2.2c0-0.1,0.1-0.3,0.3-0.4c0.4-0.3,0.6-0.5,0.1-0.8c-0.8-0.5-1.3-2-0.8-3
		c0.8-1.6,1.5-3.2,2.5-4.6c1.1-1.7,2.7-3,4.5-4c0.3-0.2,0.4-0.8,0.7-1c0.3-0.2,0.8-0.3,1.2-0.3c0.1,0,0.2,0.4,0.4,0.6
		c0.1,0.2,0.3,0.3,0.6,0.3c-0.1-0.1-0.2-0.3-0.2-0.4l0.2-0.2c0.5,0.5,0.9,0.9,1.4,1.4c-1.1,1.6-2.3,3.3-3.4,5.1
		c-0.3,0.5-0.3,1.2-0.4,1.8c-0.3,2.6-0.7,5.2-0.9,7.8c-0.1,1.9-0.1,3.8,0,5.7c0.1,1.4,0.4,2.7,0.7,4c0.3,1.6,0.6,3.3,1.1,4.8
		c0.6,1.8,1.3,3.5,2.1,5.2c0.2,0.4,1.1,0.7,1.7,0.8c2.1,0.1,4.2,0,6.3,0C199.8,177.1,199.9,177.5,199.8,178z M268.1,141
		c-0.3,0.1-0.5,0.4-0.6,0.7c-0.4,0.8-0.7,1.5-1.6,2c-0.5,0.3-0.7,1.3-1.1,1.9c-0.6,0.8-1.4,1.4-2,2.1c-0.4,0.5-0.7,1.2-1.2,1.6
		c-0.9,0.7-1.8,1.4-2.7,1.9c-0.6,0.4-1.3,0.5-2,0.8c-2.7,0.9-5.4,1.8-8.1,2.7c-1.4,0.5-2.8,1-4.2,1.5c-1.5,0.5-3,0.5-4.4-0.5
		c-0.7-0.5-1.2-1.3-1.9-1.9c-0.2-0.2-0.6-0.1-1-0.1c0.1,0.3,0.1,0.7,0.2,0.9c0.7,1.1,1.5,2.2,2.3,3.2c0.1,0.1,0.3,0.2,0.5,0.3
		c1.4,0.6,2.7,1.4,4.1,1.7c1.5,0.3,3.2,0.1,4.8,0c1.7-0.1,3.3-0.3,5.2-0.5c0,1.9,0.1,3.6,0,5.2c-0.1,1.5-0.7,2.6-2.3,3.3
		c-1.6,0.7-3,1.8-4.6,2.6c-1,0.5-2,0.8-3.1,1.2c-1.6,0.6-3.2,1.3-4.9,1.8c-1.4,0.5-2.9,0.9-4.4,1c-1.2,0.1-2.5-0.1-3.7-0.5
		c-2.5-0.9-4.9-1.6-7.6-1.6c-0.6,0-1.2-0.2-1.7-0.2c-1.8,0.1-3.5,0.2-5.3,0.4c-2.9,0.3-5.8,0.6-8.7,1c-2.2,0.3-4.4,0.8-6.6,1.1
		c-0.3,0-0.6-0.1-0.9-0.1c-2.3,0.3-4.5,0.6-7,0.9c-0.8-2.5-1.6-5-2.4-7.5c-0.6-2-1.3-4-1.8-6.1c-0.3-1.5-0.5-3-0.6-4.5
		c-0.1-1.7-0.1-3.4,0-5.1c0.1-1.9,0.6-3.8,1.7-5.5c1-1.7,2.4-3,3.6-4.4c2.5-2.9,4.8-5.8,7.2-8.8c2.6-3.3,5-6.6,7.6-9.9
		c1.4-1.8,2.7-3.6,4.2-5.3c2.2-2.4,4.5-4.6,7.3-6.3c1.9-1.1,3.8-2.2,5.7-3.2c0.7-0.4,1.7-0.3,2.6-0.4c0.6-0.1,1.2-0.3,1.8-0.3
		c0.2,0,0.6,0.4,0.6,0.6c0.1,1.6,0.2,3.3,0.3,4.9c0.2,0,0.3,0.1,0.5,0.1c0.4-0.6,0.8-1.2,1.1-1.8c0.4-0.8,0.8-1.6,1.2-2.3
		c0.5-0.9,1.5-0.8,2.5,0.1c0.9,0.8,1.6,1.9,2.4,2.9c0.1,0.2,0.3,0.3,0.5,0.5c0.1-0.2,0.3-0.5,0.2-0.7c-0.1-0.9-0.4-1.9-0.5-2.8
		c-0.1-0.3-0.1-0.8,0.1-0.9c0.4-0.4,0.9-0.7,1.7-0.3c0.8,0.4,1.7,0.7,2.6,0.9c3.4,0.7,6.6,1.5,9.5,3.4c1.8,1.1,3.7,2.1,5.3,3.5
		c1.4,1.1,2.7,2.5,3.6,4.1c1.2,2.1,2,4.3,2.8,6.6c1,2.8,1.8,5.7,2.7,8.6c0.4,1.3,0.8,2.6,1.2,3.8C269,140.2,268.7,140.7,268.1,141z"
		/>
	<path d="M81.3,211.4c-0.1-0.8-0.2-1.5-0.3-2.2c0-0.1,0.2-0.3,0.3-0.4c0.1,0,0.2,0.1,0.3,0.1c0-0.5,0-1.1,0-1.6c0-1,0.7-1.3,1.5-1.5
		c0.7-0.2,1.3-0.5,2-0.6c0.3-0.1,0.9,0.1,1,0.3c0.7,1.1,1.3,2.3,2,3.5c0.2,0.3,0.4,0.5,0.7,0.8c1.3-0.2,2.8-0.3,4.2-0.5
		c0.9-0.2,1.8-0.7,2.6-1c0.1,0,0.2-0.2,0.2-0.3c0.1-1.3,0.3-2.7,0.4-4c0-0.6-0.2-1.3-0.1-1.8c0.1-0.4,0.5-1,0.9-1.2
		c0.7-0.4,1.6-0.5,2.4-0.8c0.2-0.1,0.7,0.1,0.6,0.2c0,0.3,0,0.8-0.2,0.9c-1.4,0.8-1.6,2.4-2.1,3.6c-0.4,0.8-0.3,1.9-0.4,2.8
		c0.5,0,0.9-0.1,1.3-0.1c0.2,0,0.5,0.2,0.5,0.3c0,0.2-0.1,0.6-0.3,0.7c-1.3,0.8-2.7,1.6-4.1,2.2c-1.7,0.7-3.4,1.4-5.2,1.9
		c-1.5,0.4-3,0.8-4.5,1c-1.9,0.2-3.8,0-5.6,0.1c-0.8,0-1.6,0.4-2.4,0.3c-2.1-0.2-4.3-0.4-6.4-0.8c-1.5-0.3-3-1.1-4.4-1.8
		c-1.1-0.5-2.2-1.2-3.3-1.8c-0.4-0.2-0.8-0.4-1.1-0.6c-0.4-0.3-0.8-0.7-0.9-1.1c-0.1-0.5,0.4-0.5,0.8-0.7c1.4-0.7,2.3,0.3,3.4,0.8
		c1.3,0.6,2.5,1.2,3.8,1.8c0.3,0.1,0.7,0.1,1.1,0.1c1,0.1,2.1,0.4,3.1,0.4c1.3,0,2.4,0.3,3.5,1c0.1,0.1,0.2,0.1,0.3,0.1
		C78.2,211.4,79.7,211.4,81.3,211.4z M82.4,211.2c0.2-0.1,0.4-0.1,0.6-0.2c1.1-0.2,2.3-0.4,3.4-0.6c0.2,0,0.5-0.3,0.5-0.5
		c0-0.5-0.2-1-0.3-1.5c-0.1,0-0.1,0.1-0.2,0.1c-0.3-0.5-0.7-1-1-1.6C84.3,207.4,82.3,210,82.4,211.2z"/>
	<path d="M98.2,190.9c-0.2,1.9-1.8,2.8-3.2,2.2c-1.1-0.4-2.2-1-3.2-1.7c-0.4-0.2-0.5-0.8-0.6-1.2c0.9,0.6,1.7,1.3,2.6,1.8
		c1,0.5,2.1,1.2,3.2,0.3C97.5,191.9,97.8,191.4,98.2,190.9z"/>
	<path d="M176.5,195.5c0.2-1.6,0.5-3.2,0.7-4.8c0.1,0,0.2,0,0.2,0c-0.2,1.6-0.4,3.2-0.6,4.8C176.7,195.6,176.6,195.5,176.5,195.5z"
		/>
	<path d="M137.7,138.5c-0.2-0.7-0.7-1.4-1.2-2c-1.5-1.7-2.9-3.5-4.5-5.1c-1.6-1.5-3.2-3-5-4.1c-2.3-1.4-4.8-2.5-7.3-3.4
		c-2.3-0.9-4.8-1.6-7.2-2.1c-2.3-0.4-4.7-0.7-7.1-0.5c-1.9,0.1-3.7,0.9-5.5,1.6c-0.3,0.1-0.6,0.3-0.9,0.4c0.6,0.8,0.8,1.9,0.3,2.8
		c0.9-0.3,1.8-0.5,2.7-0.7c2.3-0.6,4.7-0.2,7.1-0.1c4,0,7.9,0.8,11.7,2c2.6,0.8,5.1,1.8,7.5,2.9c1.2,0.6,2.3,1.4,3.3,2.4
		c1.5,1.4,2.9,2.9,4.3,4.3c0.6,0.6,0.5,1.3,0.3,2c-0.3,1.1-0.6,2.2-0.9,3.3c-0.1,0.2-0.2,0.5-0.3,0.5c-1.1,0-1,0.9-1.2,1.6
		c-0.5,2.1-1.3,4.1-2.5,5.9c-0.8,1.3-1.4,2.7-1.9,4.2c-0.6,1.8-1.7,3.1-2.8,4.5c-0.4,0.5-0.7,1-1.1,1.5c-0.9,0.9-1.9,1.9-2.9,2.7
		c-0.7,0.5-1.6,0.7-2.5,1c-1.1,0.3-2.1,0.4-3.2,0.6c-1.8-0.3-3.5-0.5-5.3-0.9c-1.6-0.3-3.2-0.6-4.6-1.3c-1.2-0.6-2.4-0.8-3.6-1.1
		c-1.1-0.3-2.1-0.5-3.1-1.3c-1.6-1.4-3.5-2.4-5.2-3.7c-2.6-2.1-5-4.2-7-6.9c-0.9-1.2-2-2.2-3-3.3c-0.1-0.1-0.2-0.5-0.1-0.6
		c0.9-1.8,1.9-3.5,2.8-5.3c0.8-1.5,1.3-3,2.2-4.4c1.1-1.8,2.5-3.4,3.8-5.1c0.4-0.5,0.9-1.1,1.2-1.6c0.3-0.4,0.6-0.8,1-1.1
		c-0.5,0-1,0-1.4-0.1c0,0-0.1,0.1-0.1,0.1c-2,1.7-3.5,3.7-5,5.9c-0.5,0.8-1,1.7-1.5,2.5c-1.2,1.9-2.5,3.7-3.6,5.6
		c-0.6,1-1.1,2-1.7,2.9c-0.5,0.7-0.3,1.2,0.1,1.7c0.5,0.7,1,1.4,1.5,2.1c1.4,1.2,2.9,2.5,4.4,3.7c0,0,0,0.1,0,0.1
		c0.4,0.3,0.8,0.5,1.1,0.8c1.5,1.3,3.1,2.5,4.6,3.8c0.2,0.2,0.4,0.5,0.6,0.7c0.5,0.4,1.1,0.6,1.7,1c1,0.7,1.8,1.6,2.9,2.2
		c1.2,0.7,2.4,1.2,3.7,1.6c2.1,0.8,4.1,1.5,6.3,2.1c2.1,0.6,4.4,0.8,6.5,1.2c0.6,0.1,1.2,0.3,1.8,0.3c0.9,0.1,1.8,0.2,2.7,0.1
		c0.6-0.1,1.1-0.5,1.7-0.7c1-0.3,2-0.5,2.9-1c0.7-0.3,1.6-0.8,2-1.4c1.2-1.7,2.2-3.5,3.2-5.3c0.8-1.3,1.5-2.7,2.1-4.2
		c1.1-2.7,2.1-5.4,3.1-8.1c0.7-1.8,1.2-3.7,1.7-5.6C137.6,139.5,137.9,139,137.7,138.5z M127.5,128.3c-0.7-0.5-1.4-1-2.2-1.5
		c0-0.1,0.1-0.1,0.1-0.2c0.7,0.5,1.5,0.9,2.2,1.4C127.6,128.1,127.5,128.2,127.5,128.3z"/>
	<path d="M242.6,122.8c0.1,0.8,0.2,1.4,0.4,2.1c0.4,2,0.6,4.1,0,6.1c-0.2,0.8-0.4,1.5-0.6,2.3c-0.4,1.1-1.1,0.9-1.9,0.5
		c-1.7-1-3-2.3-3.4-4.4c-0.4-2.3-0.9-4.5-1.3-6.8c-0.4-1.9,0.9-3.9,2.8-4.4c0.4-0.1,1,0,1.2,0.3c0.5,0.5,0.9,1.2,1.3,1.8
		c0.4,0.7,0.6,1.4,1,2C242.1,122.6,242.5,122.7,242.6,122.8z M239.2,118.5c-2.2,0.5-2.8,1.5-3,3.3c-0.1,1.2,0.3,2.5,0.5,3.8
		c0.1,1,0.1,2,1.3,2.4c0.3,0.1,0.8,0,0.9-0.1c0.8-1.7,1.8-3.4,1.2-5.4c-0.3-1.1-0.8-2.2-1.2-3.4C238.9,119.1,239,118.8,239.2,118.5z
		"/>
	<path d="M168.4,186.5c0-0.3,0-0.6,0-1.1c-0.3,0.7-0.5,1.2-0.8,1.7c0.5-1.9,0.9-3.8-0.9-5.3C167.9,182.1,168.8,184.3,168.4,186.5z"
		/>
	<path d="M118.1,131.3c-0.1,0.1-0.3,0.1-0.5,0.2c0.2,0.1,0.4,0.2,0.6,0.3c0.9,0.5,1.8,0.9,2.6,1.4c1.1,0.6,2.1,1.2,3.1,1.9
		c1,0.7,2.1,1.3,3,2.1c0.8,0.8,1.5,1.8,2.2,2.7c0.2,0.2,0.3,0.6,0.2,0.8c-0.3,1.2-0.7,2.4-1.1,3.5c-0.5,1.2-1,2.3-1.7,3.5
		c-1.4,2.5-2.8,5-5.1,6.8c-1.4,1.1-2.9,2.2-4.4,3.2c-0.7,0.5-1.4,0.7-2.4,0.5c-1.3-0.3-2.7,0-4-0.3c-2.5-0.5-5-1.3-7.5-2
		c-0.4-0.1-1.3-0.4-0.8-1.3c0.1-0.1-0.5-0.6-0.8-0.8c-1.7-1.2-3.5-2.3-5.2-3.5c-1.1-0.8-2.3-1.6-3.3-2.5c-0.6-0.5-1-1.3-1.3-2.1
		c-0.1-0.4,0.2-1,0.4-1.4c0.2-0.4,0.4-0.8,0.6-1.2c0.9-1.7,2-3.3,2.8-5.1c0.7-1.7,1.7-3.1,3-4.4c0.9-0.9,1.7-1.8,2.7-2.6
		c0.6-0.5,1.4-0.7,2.2-1c1.6-0.6,3.2-1.4,5-1.3c1,0.1,2,0.3,3.1,0.4c0.9,0.2,1.9,0.4,2.8,0.6c0.1,0,0.3,0,0.3,0.1
		C115.5,131,116.8,131.1,118.1,131.3z M124.3,148c0.1,0.1,0.2,0.1,0.3,0.2c0.6-1.1,1.2-2.1,1.8-3.2c0.7-1.3,1.5-2.5,2.3-3.8
		c0.3-0.5,0.4-0.9-0.2-1.2c-0.6-0.4-1.2-0.8-1.8-1.3c-1.1-0.8-2.1-1.8-3.3-2.5c-2-1.2-4-2.5-6.2-3.3c-2.3-0.8-4.6-2.3-7.2-1
		c0,0-0.1,0-0.1-0.1c0.1-0.1,0.1-0.3,0.1-0.2c-1.3,0.1-2.6,0.3-4,0.4c-1.8,0.2-3.5,1-4.8,2.2c-1.6,1.6-2.9,3.3-4.3,5.1
		c-0.8,1-1.6,2.1-2.2,3.2c-0.7,1.2-1.2,2.7-0.3,3.9c0.7,0.9,1.5,2,2.8,2.4c0.1,0,0.1,0.2,0.1,0.3c0.2,0.2,0.5,0.4,0.6,0.5
		c0.4,0.6,0.6,1.3,1.1,1.6c1.9,1.2,3.4,3.2,5.7,3.7c0.5,0.1,1,0.3,1.7,0.5c-0.2-0.2-0.3-0.3-0.4-0.3c2.4,0.3,4.7,1.1,7.2,0.3
		c2.3-0.8,4.8-1,6.7-2.7c1.9-1.6,3.4-3.4,4.5-5.7c0.1,0.1,0.2,0.1,0.2,0.2C124.5,147.4,124.4,147.7,124.3,148z"/>
	<path d="M110.1,149c-3.1,0.1-5.3-1.2-7.1-3.7c-1.1-1.5,0-3,1.1-3.7c0.7-0.4,1.4-0.8,2-1.3c0.2-0.2,0.3-0.6,0.5-0.9
		c0-0.1,0.1-0.2,0.1-0.3c2-1.4,4.1-2.7,6.7-2.9c0.4,0,0.8,0.3,1.1,0.6c1,1.1,2,2.2,2.9,3.4c0.7,0.9,1.3,2,1.9,3
		c0.1,0.3,0.1,0.9-0.1,1c-1.5,1.2-2.9,2.5-4.5,3.4c-1.4,0.8-3,1.2-4.5,1.7C110.2,149.2,110.1,149.1,110.1,149z M103.2,143.8
		c0.3,0.3,0.6,0.5,0.8,0.7c1.2,1.5,2.6,2.7,4.6,2.7c1.3,0,2.6-0.2,3.8-0.6c1.1-0.3,2.2-1,3.3-1.5c0.4-0.2,0.8-0.6,1.2-0.7
		c1.1-0.3,1.6-1.4,1-2.3c-1.3-1.9-4-3-6.3-2.1c-1.7,0.7-3.5,1.4-5.2,2.1C105.3,142.8,104.2,143.4,103.2,143.8z"/>
</g>
<g>
	<path d="M181.1,42.5c-3.8-4-7.6-8-11.3-12c-2.9-3.1-5.7-6.2-8.7-9.2c-1.1-1.1-2.7-1.9-4.2-2.4c-1.8-0.6-3.7-0.7-5.6-1v-4
		c1,0,1.8-0.1,2.7-0.1V7.2h-4.2c-0.7-2-2-3.7-4.2-4.1c-3-0.6-5.3,0.7-6.6,3.3c-1.1-2.1-2.5-3.3-5-3.4c-3.2-0.1-4.7,1.7-5.6,4.2h-4.6
		v5.6c-3.3-0.6-6.5-1.2-9.7-1.7c-0.4-0.1-0.8-0.2-1.2-0.1c-2.4,0.5-4.8,1-7.2,1.5c-9.7,2.1-19.5,4.2-29.3,6.3
		c-0.1-1.3,0.4-3-0.3-3.6c-2.1-1.7-1.4-3.7-1.4-5.6c0-1.7-1.1-2.7-2.5-3.6C71.6,5.7,71,5.4,70.6,5c-2.5-2.9-7.5-2.6-9.3,0.7
		c-0.6,1.2-0.6,2.6-1,4.1h-4.3c0,2.1,0,4,0,5.8c0,0.4,0.3,1.1,0.5,1.1c1.4,0.2,1.1,1,1.1,1.8c0,6.3,0,12.7,0,19
		c0,0.9-0.3,1.8-0.9,2.6c-3,3.9-6.1,7.7-9.1,11.6c1.9,1.1,3.7,2.2,5.6,3.2c1.3,0.6,1.6,1.5,1.6,2.7c0,18.2,0,36.4,0,54.6
		c0,0.6-0.1,1.2-0.1,1.8c-0.2,0-0.4-0.1-0.7-0.1c0.7,1,1.1,2.1,1.3,3.2c1.4,0.2,2.7,0.8,3.8,1.9c0.8,0.9,1.2,2.1,1.5,3.3
		c0.3,1,0.6,1.5,1.8,1c4.5-1.7,8.4-1.1,11.7,2.3c0.3,0.4,1.5,0.6,1.8,0.4c2.3-1.4,3.9-0.3,5.5,1c1.2,1,1.9,0.9,2.4-0.4
		c0.6-1.6,1.7-2.8,3.5-3c1.9-0.1,4.2,1.7,4.6,3.7c0.3,1.4,0.9,1.9,2.4,1.9c1.2,0,2,0.6,2.2,1.6c0.1,0,0.2,0,0.3,0
		c1.1,0.1,2.2,0.2,3.2,0.3V54.7h10c0,10.7,0,21.5,0,32.3c0,1.1,0.5,1.4,1.6,1.4c5,0,10-0.1,15.1,0c1.7,0,1.7-0.8,1.7-1.9
		c0-9.9,0-19.8,0-29.7c0-0.7,0-1.4,0-2.2h9.9v76.1c0.8,0.3,1.6,0.5,2.4,0.8V54.7h38.5v1.9c0,19.4,0,38.7,0,58.1
		c0,0.9,0.4,1.9-1.1,2.3c-1.3,0.3-1.8-0.3-2.7-1.1c-1.4-1.2-1.8-2.5-1.7-4.1c0.1-4.3-3.2-8.4-7.7-10.1c-4.7-1.8-9.4-2-14.2-0.3
		c-3.9,1.3-6.6,3.9-8.4,7.2c-0.5,0.9-0.2,2.2-0.2,3.3c0,2.4,0.1,4.8,0,7.1c-0.1,1.4,0.5,1.9,2,1.8c2.6-0.1,5.2,0,7.7,0h7.9
		c-0.7,0.7-1.3,1.3-1.6,1.6c-2.3-0.5-4.2-1-6.2-1.2c-2.9-0.3-4.7,0.8-6.1,3.2c-0.5,0.8-1.1,1.7-1.8,2.3c-1.7,1.3-2.7,2.9-3.2,4.8
		c0,0.2-0.1,0.3-0.3,0.4c0.6,0.3,1.2,0.5,1.8,0.8c0.2-0.5,0.3-1,0.6-1.5c0.5-1,1-2.4,2-2.9c1.7-0.8,2.3-2.1,3-3.5
		c0.9-1.8,2.4-2.3,4.5-1.7c0.5,0.1,1.1,0.3,1.6,0.3c1.6-0.2,2.4,0.5,3.1,1.7c0.2,0.4,0.7,0.6,1.1,1c0.3-0.4,0.9-0.8,1-1.2
		c0.2-1.7,1.3-2.3,3.1-2.6c0.7-0.1,1.4-1.4,1.5-2.2c0.4-4.2,4.4-5.6,8.2-3.7c0.7,0.3,1.3,1.1,1.4,1.8c0.3,1.4,1.1,1.4,2.2,1
		c1.9-0.7,3.3-0.5,4.4,0.6c0.3-0.7,0.6-1.4,0.8-2.2c0.2-0.5,0.5-1,0.9-1.3c-0.1-0.3-0.2-0.6-0.2-0.9c0-19.4,0-38.9,0-58.3
		c0-0.6,0.6-1.4,1.2-1.8c1.9-1.3,3.9-2.4,6.1-3.7C186.9,48.4,183.9,45.5,181.1,42.5z M150.5,118.9h-5.1V110h5.1V118.9z M150.6,108.3
		H146c-0.1-0.1-0.3-0.3-0.4-0.4l4.5-4.2c0.2,0.1,0.3,0.2,0.5,0.3V108.3z M152.5,102.9c3.3-1.2,6.8-1.2,10.3-0.5
		c0.5,0.1,1.2,0.7,1.2,1.2c0.1,1.5,0.1,3.1,0.1,4.7h-11.6V102.9z M163.6,118.9h-11.1V110h11.8C164.1,112.9,163.9,115.9,163.6,118.9z
		 M166.4,103.4c1.9,1.8,3.4,3.3,5.2,5h-5.2V103.4z M171.5,113.5c-1.7,0.2-3.4,0.4-5.4,0.7V110h5.4V113.5z M144.2,6.1
		c1.2,0,2.3,0.6,1.8,2.1h-3.5C141.9,6.7,143.1,6.1,144.2,6.1z M133.8,6.1c1.1-0.1,2.3,0.5,1.7,2.1h-3.9c-0.1-0.1-0.3-0.3-0.4-0.4
		C132.1,7.2,132.9,6.2,133.8,6.1z M150.6,10.4c0,0.1,0,0.3,0,0.4h-23.3c0-0.1,0-0.3,0-0.4H150.6z M147.7,12.9v7.3h-17.3v-7.3H147.7z
		 M112.1,14.4c1.8-0.4,3.9,0.3,5.9,0.6c2.9,0.5,5.8,1,8.6,1.5c0.5,0.1,1,0.4,1.6,0.6l-0.2,0.5c-2.9-0.5-5.9-0.7-8.8-1.5
		c-4.8-1.4-9.4-0.5-14,0.6c-5.8,1.3-11.5,2.4-17.3,3.6c-0.8,0.2-1.6,0-2.5-0.2C94.3,18.2,103.2,16.2,112.1,14.4z M128.1,19.7
		c-0.1,0.2-0.1,0.3-0.2,0.5H97.6c0-0.1,0-0.1,0-0.2c5.1-1,10.2-2.3,15.4-3c1.8-0.3,3.9,0.4,5.8,0.8c2.5,0.4,5.1,0.9,7.6,1.4
		C127,19.3,127.5,19.6,128.1,19.7z M70.5,17.1l0.5,0c0.3,2.6,0.1,5.1,0.1,7.7c-0.2,0-0.5,0-0.7,0V17.1z M65.2,6.4
		c0.4-0.3,1.9-0.3,2-0.1c0.6,1.4,1,2.8,1.6,4.5h-4.5C64,9.3,63.5,7.6,65.2,6.4z M68.2,27.3c0,0.9-0.7,1.8-1.3,2.6
		c-1.8,2.3-3.6,4.4-5.8,7V15.6h7.1C68.2,19.6,68.3,23.4,68.2,27.3z M59.6,12.8c2.6,0,5.1,0,7.7,0c0.3,0,0.6,0.3,0.9,0.5
		c-0.2,0.2-0.5,0.6-0.7,0.6c-2.3,0-4.7,0-7,0c-0.3,0-0.7-0.4-1-0.7C59.5,13.1,59.6,12.9,59.6,12.8z M66.5,118.9
		c-0.5-0.1-1.1-0.9-1.2-1.3c-0.1-2.2,0-4.4-0.1-6.6c0-1,0.4-1.5,1.6-1.5c1.3,0,2.6,0,4,0v9.4C69.4,118.9,67.9,119.1,66.5,118.9z
		 M66.3,108c1-2.1,2.6-3.4,4.8-4.4v4.4H66.3z M98.3,128.9c-1.9-1.3-4.4-1.6-5.5-4.1c-0.8-1.9-3-2.8-5.5-2.9c-2.8-0.2-3.8,1.6-5,3.3
		c-2-1.1-3.9-2.3-6.4-1.3c-0.2,0.1-0.7-0.1-1-0.3c-2-1.1-4-2.2-5.9-3.2h8.2c4.8,0,9.6-0.1,14.4,0c2.1,0.1,2.7-0.6,2.5-2.4
		c-0.1-2.1-0.3-4.3,0-6.4c0.6-4.4-2.4-7.2-5.8-9.2c-6.4-3.7-13.3-3.6-19.7,0.3c-3.1,1.9-5.4,4.5-5.1,8.4c0.3,3,0.1,6,0.1,9.1
		c0.6,0.1,1.1,0.2,1.9,0.3c-1.1,0.3-2,0.4-3,0.7c-0.4-2.1-1.6-3.7-3.6-4.9c-0.6-0.3-0.8-1.4-0.8-2.1c0-14.2,0-28.3,0-42.5V54.6h40.1
		V128.9z M72.8,107.9c0-1.5-0.1-2.9,0.1-4.3c0-0.4,0.6-1,1.1-1.2c3.5-1.2,7-0.9,10.5,0.1v5.4H72.8z M84.4,109.6v9.2H72.9v-9.2H84.4z
		 M91.9,109.6v9.2h-5.4v-9.2H91.9z M86.5,107.9v-4.3c0.2-0.2,0.5-0.4,0.7-0.6c1.5,1.5,3.1,3,4.6,4.4c-0.2,0.2-0.3,0.4-0.5,0.5H86.5z
		 M117.5,86.5h-5.2v-4.7h5.2V86.5z M112.3,59.4v-3.2h5.2v3.2H112.3z M117.5,61.4v4.7h-5.2v-4.7H117.5z M117.5,68.2v5.1h-5.2v-5.1
		H117.5z M117.6,79.7h-5.3V75h5.3V79.7z M126.8,75v4.7h-6.9V75H126.8z M119.9,73.3v-5.1h6.9v5.1H119.9z M126.8,59.4h-6.9v-3.2h6.9
		V59.4z M126.7,61.5v4.6h-6.9v-4.6H126.7z M126.8,86.4h-6.9v-4.7h6.9V86.4z M55.1,52h127.2C180.7,53,56.7,53,55.1,52z M128.3,43.6
		c-5.4,0.2-10.7,0.2-16.1,0c-5.4-0.1-9.6,1.3-11.3,6.9c-0.9-2.6,1.6-6.1,4.8-7.1c1.6-0.5,3.5-0.8,5.2-0.8c5.7-0.1,11.4-0.2,17.1,0
		c3.7,0.1,7.2,1,9.4,4c0.5,0.7,0.8,1.7,1.1,2.5c0.1,0.2-0.3,0.6-0.5,0.9c-0.3-0.2-0.7-0.4-0.7-0.6C136.6,45.7,132.3,43.5,128.3,43.6
		z M135.4,50h-32.1c0.4-2.1,1.8-3.3,3.7-4c1.6-0.6,3.4-0.8,5.2-0.8c5.1-0.1,10.2-0.1,15.2,0c1.5,0,3.1,0.3,4.6,0.8
		C133.9,46.7,135.2,48,135.4,50z M140.9,49.9c-1.7-7.5-8.5-9.2-14.7-9.2c-5,0-10-0.1-15.1,0c-3.9,0.1-7.6,0.9-10.1,3.8
		c-1.3,1.6-2.2,3.5-3.4,5.5H53.3c3-3.8,5.8-7.4,8.7-11c4.1-5.2,8.2-10.3,12.2-15.5c0.7-0.9,1.5-1.4,2.8-1.3
		c25.9,0.1,51.8,0.1,77.6,0c2.1,0,3.5,0.7,4.8,2c4.9,5.2,9.8,10.3,14.8,15.5c3.2,3.3,6.3,6.7,9.6,10.2H140.9z"/>
	<path d="M97.1,32c0,2,0,4,0,6c0,1-0.4,1.5-1.6,1.5c-4.1,0-8.2,0-12.3-0.1c-0.7,0-1.6-0.5-1.9-1.1c-1.8-2.6-3.4-5.2-5-7.8
		c-0.6-1-0.8-1.8,0.7-2.6c1.5-0.7,2.7-1.9,4.1-2.8c0.7-0.4,1.6-0.7,2.5-0.7c3.9-0.1,7.8,0,11.7-0.1c1.5,0,2,0.5,1.9,1.8
		C97.1,28.1,97.1,30.1,97.1,32z M83.8,37.9c1.9,0,3.6,0,5.3,0c0-4,0-7.9,0-11.8c-1.9,0-3.5,0-5.3,0C83.8,30.1,83.8,33.9,83.8,37.9z
		 M94.9,26c-1,0-1.9-0.1-2.8,0c-0.5,0.1-1.2,0.6-1.3,0.9c-0.1,3.7-0.1,7.3-0.1,11c1.5,0,2.8,0,4.1,0C94.9,33.9,94.9,30,94.9,26z
		 M81.5,35.3c0-3,0-5.5,0-8.1c-1.3,0.9-2.4,1.7-3.5,2.4C79.1,31.4,80.1,33.1,81.5,35.3z"/>
	<path d="M155.3,24.5c0,5.1,0,10,0,15c-4.8,0-9.5,0-14.2,0c-0.4,0-0.9-0.4-1.2-0.8c-1.8-2.7-3.4-5.5-5.2-8.1
		c-0.8-1.1-0.4-1.8,0.6-2.5c1.6-1.1,3.2-2.1,4.8-3.2c0.4-0.2,0.9-0.4,1.3-0.4C145.9,24.5,150.5,24.5,155.3,24.5z M142.1,26
		c0,4.1,0,7.9,0,11.9c1.9,0,3.8,0,5.3,0c0-4,0-7.9,0-11.9C145.5,26,143.8,26,142.1,26z M153.6,26.1c-1.5,0-2.7,0-4,0
		c0,4,0,7.9,0,11.8c1.4,0,2.7,0,4,0C153.6,33.9,153.6,30,153.6,26.1z M136.3,29.6c1.3,2.1,2.4,3.9,3.9,6.2c0-3.2,0-5.8,0-8.7
		C138.8,27.9,137.6,28.7,136.3,29.6z"/>
	<path d="M105.4,29.2c2.2-1.6,4.4-3.1,6.5-4.6c0.2-0.2,0.7-0.1,1-0.1c4.5,0,9,0,13.7,0c0,5,0,9.9,0,15c-3.6,0-7.3-0.2-10.9,0.1
		c-2.7,0.2-4.4-0.4-5.6-2.8C108.8,34.2,107.1,31.8,105.4,29.2z M119.2,38c0.1-0.3,0.1-0.4,0.1-0.5c0-2.3,0-4.5,0-6.8
		c0-4.8,0-4.8-5.3-4.6c-0.1,0-0.2,0.1-0.4,0.2c0,3.9,0,7.8,0,11.8C115.5,38,117.3,38,119.2,38z M125,38c0-4.1,0-8,0-11.9
		c-1.4,0-2.6,0-3.9,0c0,4,0,7.9,0,11.9C122.5,38,123.7,38,125,38z M107.8,29.6c1.3,1.9,2.5,3.7,3.9,5.9c0-3,0-5.6,0-8.5
		C110.3,28,109.1,28.8,107.8,29.6z"/>
	<path d="M87.9,61c0,3,0,5.9,0,8.7c0,4.5,0,9.1,0,13.6c0,0.8-0.3,1.7,1.1,2c0.3,0.1,0.6,1.3,0.4,2c-0.1,0.3-1,0.7-1.6,0.8
		c-5.6,0.1-11.2,0.1-16.7,0c-0.5,0-1.5-0.4-1.5-0.8c-0.1-0.6,0.2-1.4,0.5-2.1c0.2-0.4,0.7-0.8,0.7-1.3c0-7,0-13.9,0-20.9
		c0-1.4,0.4-2.1,2.2-2.1C77.9,61,82.7,61,87.9,61z M86.1,85c0-1.7,0-3.2,0-4.7c-4.5,0-8.8,0-13.2,0c0,1.6,0,3.2,0,4.7
		C77.4,85,81.7,85,86.1,85z M80.1,73.5c0,1.7,0,3.2,0,4.7c2.1,0,4,0,6,0c0-1.6,0-3.1,0-4.7C84.1,73.5,82.2,73.5,80.1,73.5z
		 M72.9,73.5c0,1.7,0,3.2,0,4.7c1.7,0,3.2,0,4.8,0c0-1.6,0-3.2,0-4.7C76.1,73.5,74.6,73.5,72.9,73.5z M86.2,68.2c-2.1,0-4.1,0-6,0
		c0,1.3,0,2.4,0,3.6c2.1,0,4,0,6,0C86.2,70.6,86.2,69.5,86.2,68.2z M86.2,62.6c-2.1,0-4.1,0-6.1,0c0,1.3,0,2.4,0,3.5
		c2.1,0,4.1,0,6.1,0C86.2,64.9,86.2,63.8,86.2,62.6z M77.8,68.2c-1.7,0-3.3,0-4.9,0c0,1.3,0,2.4,0,3.5c1.7,0,3.3,0,4.9,0
		C77.8,70.5,77.8,69.5,77.8,68.2z M77.7,66.2c0-1.4,0-2.5,0-3.6c-1.7,0-3.2,0-4.7,0c0,1.3,0,2.4,0,3.6
		C74.6,66.2,76.1,66.2,77.7,66.2z"/>
	<path d="M167.5,88c-6.6,0-13,0-19.6,0c0-1.1-0.8-2.3,0.9-3.1c0.3-0.1,0.2-1,0.2-1.6c0-6.8,0.1-13.5,0-20.3c0-1.7,0.6-2.2,2.4-2.1
		c4,0.1,8.1,0.1,12.1,0c2.1-0.1,2.8,0.4,2.7,2.4c-0.1,6.4-0.1,12.9,0,19.3c0,1.1-0.2,2.1,1,3C167.7,85.9,167.5,87,167.5,88z
		 M151.3,80.2c0,1.7,0,3.3,0,4.7c4.3,0,8.5,0,12.7,0c0-1.6,0-3.2,0-4.7C159.7,80.2,155.6,80.2,151.3,80.2z M164,78.2
		c0-1.6,0-3.1,0-4.7c-2.1,0-4.1,0-6,0c0,1.7,0,3.2,0,4.7C160.1,78.2,162,78.2,164,78.2z M164.1,62.6c-2.2,0-4.2,0-6.1,0
		c0,1.3,0,2.4,0,3.5c2.1,0,4.1,0,6.1,0C164.1,64.9,164.1,63.8,164.1,62.6z M158,68.2c0,1.3,0,2.4,0,3.6c2.1,0,4,0,6.1,0
		c0-1.3,0-2.4,0-3.6C162,68.2,160,68.2,158,68.2z M155.9,78.2c0-1.7,0-3.2,0-4.7c-1.5,0-3.1,0-4.6,0c0,1.7,0,3.2,0,4.7
		C153,78.2,154.4,78.2,155.9,78.2z M155.9,68.2c-1.6,0-3.1,0-4.6,0c0,1.3,0,2.4,0,3.5c1.6,0,3,0,4.4,0
		C155.8,70.5,155.8,69.4,155.9,68.2z M155.9,66.2c-0.1-1.3-0.2-2.4-0.2-3.5c-1.6,0-3,0-4.4,0c0,1.3,0,2.4,0,3.5
		C152.9,66.2,154.4,66.2,155.9,66.2z"/>
	<path fill="none" stroke="#000000" stroke-width="2" stroke-miterlimit="10" d="M139.1,130.2c0.1,2,0.3,3.9,0.7,5.8
		c2.1-0.7,3.6-2.8,3.6-5"/>
</g>
<path d="M137.7,138.5c-0.2-0.7-0.7-1.4-1.2-2c-1.5-1.7-2.9-3.5-4.5-5.1c-1.6-1.5-3.2-3-5-4.1c-2.3-1.4-4.8-2.5-7.3-3.4
	c-2.3-0.9-4.8-1.6-7.2-2.1c-2.3-0.4-4.7-0.7-7.1-0.5c-1.9,0.1-3.7,0.9-5.5,1.6c-0.4,0.2-0.8,0.4-1.2,0.6c0.8,0.5,1.2,1.5,1.3,2.4
	c0.7-0.2,1.4-0.3,2.1-0.5c2.3-0.6,4.7-0.2,7.1-0.1c4,0,7.9,0.8,11.7,2c2.6,0.8,5.1,1.8,7.5,2.9c1.2,0.6,2.3,1.4,3.3,2.4
	c1.5,1.4,2.9,2.9,4.3,4.3c0.6,0.6,0.5,1.3,0.3,2c-0.3,1.1-0.6,2.2-0.9,3.3c-0.1,0.2-0.2,0.5-0.3,0.5c-1.1,0-1,0.9-1.2,1.6
	c-0.5,2.1-1.3,4.1-2.5,5.9c-0.8,1.3-1.4,2.7-1.9,4.2c-0.6,1.8-1.7,3.1-2.8,4.5c-0.4,0.5-0.7,1-1.1,1.5c-0.9,0.9-1.9,1.9-2.9,2.7
	c-0.7,0.5-1.6,0.7-2.5,1c-1.1,0.3-2.1,0.4-3.2,0.6c-1.8-0.3-3.5-0.5-5.3-0.9c-1.6-0.3-3.2-0.6-4.6-1.3c-1.2-0.6-2.4-0.8-3.6-1.1
	c-1.1-0.3-2.1-0.5-3.1-1.3c-1.6-1.4-3.5-2.4-5.2-3.7c-2.6-2.1-5-4.2-7-6.9c-0.9-1.2-2-2.2-3-3.3c-0.1-0.1-0.2-0.5-0.1-0.6
	c0.9-1.8,1.9-3.5,2.8-5.3c0.8-1.5,1.3-3,2.2-4.4c1.1-1.8,2.5-3.4,3.8-5.1c0.4-0.5,0.9-1.1,1.2-1.6c0.1-0.2,0.3-0.3,0.4-0.5
	c-0.3-0.2-0.6-0.5-0.8-0.8c0,0-0.1,0.1-0.1,0.1c-2,1.7-3.5,3.7-5,5.9c-0.5,0.8-1,1.7-1.5,2.5c-1.2,1.9-2.5,3.7-3.6,5.6
	c-0.6,1-1.1,2-1.7,2.9c-0.5,0.7-0.3,1.2,0.1,1.7c0.5,0.7,1,1.4,1.5,2.1c1.4,1.2,2.9,2.5,4.4,3.7c0,0,0,0.1,0,0.1
	c0.4,0.3,0.8,0.5,1.1,0.8c1.5,1.3,3.1,2.5,4.6,3.8c0.2,0.2,0.4,0.5,0.6,0.7c0.5,0.4,1.1,0.6,1.7,1c1,0.7,1.8,1.6,2.9,2.2
	c1.2,0.7,2.4,1.2,3.7,1.6c2.1,0.8,4.1,1.5,6.3,2.1c2.1,0.6,4.4,0.8,6.5,1.2c0.6,0.1,1.2,0.3,1.8,0.3c0.9,0.1,1.8,0.2,2.7,0.1
	c0.6-0.1,1.1-0.5,1.7-0.7c1-0.3,2-0.5,2.9-1c0.7-0.3,1.6-0.8,2-1.4c1.2-1.7,2.2-3.5,3.2-5.3c0.8-1.3,1.5-2.7,2.1-4.2
	c1.1-2.7,2.1-5.4,3.1-8.1c0.7-1.8,1.2-3.7,1.7-5.6C137.6,139.5,137.9,139,137.7,138.5z M127.5,128.3c-0.7-0.5-1.4-1-2.2-1.5
	c0-0.1,0.1-0.1,0.1-0.2c0.7,0.5,1.5,0.9,2.2,1.4C127.6,128.1,127.5,128.2,127.5,128.3z"/>
<path d="M118.1,131.3c-0.1,0.1-0.3,0.1-0.5,0.2c0.2,0.1,0.4,0.2,0.6,0.3c0.9,0.5,1.8,0.9,2.6,1.4c1.1,0.6,2.1,1.2,3.1,1.9
	c1,0.7,2.1,1.3,3,2.1c0.8,0.8,1.5,1.8,2.2,2.7c0.2,0.2,0.3,0.6,0.2,0.8c-0.3,1.2-0.7,2.4-1.1,3.5c-0.5,1.2-1,2.3-1.7,3.5
	c-1.4,2.5-2.8,5-5.1,6.8c-1.4,1.1-2.9,2.2-4.4,3.2c-0.7,0.5-1.4,0.7-2.4,0.5c-1.3-0.3-2.7,0-4-0.3c-2.5-0.5-5-1.3-7.5-2
	c-0.4-0.1-1.3-0.4-0.8-1.3c0.1-0.1-0.5-0.6-0.8-0.8c-1.7-1.2-3.5-2.3-5.2-3.5c-1.1-0.8-2.3-1.6-3.3-2.5c-0.6-0.5-1-1.3-1.3-2.1
	c-0.1-0.4,0.2-1,0.4-1.4c0.2-0.4,0.4-0.8,0.6-1.2c0.9-1.7,2-3.3,2.8-5.1c0.7-1.7,1.7-3.1,3-4.4c0.9-0.9,1.7-1.8,2.7-2.6
	c0.6-0.5,1.4-0.7,2.2-1c1.6-0.6,3.2-1.4,5-1.3c1,0.1,2,0.3,3.1,0.4c0.9,0.2,1.9,0.4,2.8,0.6c0.1,0,0.3,0,0.3,0.1
	C115.5,131,116.8,131.1,118.1,131.3z M124.3,148c0.1,0.1,0.2,0.1,0.3,0.2c0.6-1.1,1.2-2.1,1.8-3.2c0.7-1.3,1.5-2.5,2.3-3.8
	c0.3-0.5,0.4-0.9-0.2-1.2c-0.6-0.4-1.2-0.8-1.8-1.3c-1.1-0.8-2.1-1.8-3.3-2.5c-2-1.2-4-2.5-6.2-3.3c-2.3-0.8-4.6-2.3-7.2-1
	c0,0-0.1,0-0.1-0.1c0.1-0.1,0.1-0.3,0.1-0.2c-1.3,0.1-2.6,0.3-4,0.4c-1.8,0.2-3.5,1-4.8,2.2c-1.6,1.6-2.9,3.3-4.3,5.1
	c-0.8,1-1.6,2.1-2.2,3.2c-0.7,1.2-1.2,2.7-0.3,3.9c0.7,0.9,1.5,2,2.8,2.4c0.1,0,0.1,0.2,0.1,0.3c0.2,0.2,0.5,0.4,0.6,0.5
	c0.4,0.6,0.6,1.3,1.1,1.6c1.9,1.2,3.4,3.2,5.7,3.7c0.5,0.1,1,0.3,1.7,0.5c-0.2-0.2-0.3-0.3-0.4-0.3c2.4,0.3,4.7,1.1,7.2,0.3
	c2.3-0.8,4.8-1,6.7-2.7c1.9-1.6,3.4-3.4,4.5-5.7c0.1,0.1,0.2,0.1,0.2,0.2C124.5,147.4,124.4,147.7,124.3,148z"/>
</svg>
