<?xml version="1.0" encoding="utf-8"?>
<!-- Generator: Adobe Illustrator 17.1.0, SVG Export Plug-In . SVG Version: 6.00 Build 0)  -->
<!DOCTYPE svg PUBLIC "-//W3C//DTD SVG 1.1//EN" "http://www.w3.org/Graphics/SVG/1.1/DTD/svg11.dtd">
<svg version="1.1" id="Layer_1" xmlns="http://www.w3.org/2000/svg" xmlns:xlink="http://www.w3.org/1999/xlink" x="0px" y="0px"
	 viewBox="0 0 288 216" enable-background="new 0 0 288 216" xml:space="preserve">
<g>
	<path d="M211.5,128.4c-0.7,0.6-1.4,1.1-2.1,1.7c-0.3,0.2-0.5,0.2-0.6-0.1c-0.4-0.8-0.8-1.6-1.1-2.4c-0.2-0.6,0-1,0.5-1.2
		c0.5-0.2,1-0.4,1.6-0.7c-1.7-0.2-3.2-0.4-4.7-0.9c-1.4-0.5-1.5-0.5-1.2-2c0.2-1.2,0.7-2.3,1.3-3.3c0.3-0.4,0.5-0.5,1-0.3
		c1.8,1,3.6,1.9,5.5,2.9c0.1,0,0.1,0.1,0.2,0.1c0.1-0.1,0-0.2-0.1-0.3c-1-0.9-1.9-1.8-2.9-2.6c-0.4-0.4-0.4-0.7-0.2-1.2
		c0.7-1.3,1.9-1.9,3.1-2.5c0.4-0.2,0.5,0.1,0.6,0.4c0.6,1.3,1.2,2.6,1.8,4.1c3.7-7.5,8.2-14.1,15.6-18.4c-1-0.1-1.8-0.2-2.7-0.4
		c-0.9-0.2-1.8-0.4-2.7-0.9c-1-0.6-1.3-1.4-0.9-2.5c0.6-1.6,1.8-2.5,3.4-3c2.6-0.7,5.2-0.4,7.7,0.3c0.2,0.1,0.4,0.1,0.6,0.2
		c0.1,0,0.2,0.1,0.2,0c0,0-0.1-0.1-0.1-0.1c-0.4-0.6-0.9-1.2-1.2-1.9c-1-2.4,0.5-5,3.1-5.3c1.4-0.2,2.6,0.1,3.9,0.6
		c2.4,1,4.5,2.7,6.2,4.6c1.9,2.1,3.6,4.4,4.8,7c0.1,0.3,0.3,0.6,0.6,0.8c6.2,3,10.7,7.8,14.1,13.6c1.9,3.3,3.4,6.7,4,10.5
		c0.8,5.7-0.5,10.8-3.7,15.5c-0.4,0.6-0.7,1.1-0.5,1.9c0,0.2,0.1,0.5-0.1,0.6c-0.2,0.1-0.3-0.1-0.5-0.3c-0.3-0.3-0.5-0.1-0.6,0.1
		c-2.5,2.9-5.5,5.3-8.9,6.9c-11.6,5.4-22.9,4.9-33.6-2.3c-5.2-3.5-8.6-8.5-9.9-14.7c-0.2-1.1-0.4-2.2-0.3-3.3c0-0.5,0-0.9,0-1.4
		c0-0.1,0-0.3,0-0.4c0-0.2-0.1-0.3-0.1-0.4c0.3-0.4,0.2-0.9,0.3-1.4c0-0.2-0.1-0.2-0.2-0.2c-1.3,0.2-2.7,0.3-3.9,0.9
		c-0.3,0.2-0.4,0.4-0.3,0.7c0.3,0.6,0.5,1.3,0.8,1.9c0.1,0.3,0.3,0.3,0.5,0.1c0.6-0.5,1.2-0.9,1.8-1.4
		C211.4,128.3,211.4,128.4,211.5,128.4z M222.1,146.2c0.1,0.1,0.1,0.3,0.3,0.3c1.7,1.3,3.5,2.4,5.4,3.2c5.3,2.4,10.8,3.2,16.5,2.7
		c5.8-0.5,11.1-2.3,15.9-5.8c0.2,0,0.2-0.2,0.3-0.3c1.6-1,2.9-2.4,4.2-3.9c-1.2-0.5-2.3-0.6-3.5-0.9c-0.4-0.1-0.7,0-1,0.3
		c-2.1,2.1-4.5,3.6-7.4,4.3c-0.3,0.1-0.7,0.2-1,0c-2-0.8-4.1-1.7-5.8-3c-2.6-2-3.1-4.9-1.3-7.7c0.7-1.1,1.6-2,2.6-2.8
		c0.9-0.7,1.9-1.4,2.8-2.1c-2.8-0.3-5.6,0.1-8.3,0.9c0.5-0.3,0.4-0.7,0.1-1.1c-0.6-1-0.9-2.1-0.9-3.2c0-1.6,0.5-3,1.5-4.3
		c-0.3-0.1-0.5-0.2-0.7-0.3c-1.1-0.5-2.1-1.1-3.1-1.8c-0.3-0.2-0.5-0.4-0.5-0.8c0.4-2.1,1.3-3.8,3.2-5c0.4-0.2,0.6-0.2,0.9,0.2
		c0.6,0.7,1.2,1.2,1.9,1.8c2.9,2.2,6.2,4,9.5,5.6c0.3,0.1,0.6,0.1,0.9,0c1.1-0.4,2.1-0.9,3.1-1.5c2.4-1.3,4.6-2.9,6.8-4.4
		c0.6-0.4,0.9-0.3,1.3,0.2c0.8,1,1.1,2.2,1.5,3.4c0.3,0.9-0.1,1.4-0.8,1.8c-0.9,0.6-2,1.1-3,1.5c-0.3,0.1-0.5,0.2-0.2,0.6
		c0.7,1.1,0.9,2.4,0.6,3.7c-0.1,0.3,0,0.4,0.2,0.4c0.2,0,0.3,0.1,0.4,0.3c-2.7-0.5-5.2,0-7.9,1.1c4.6,2.3,8.1,5.3,9.3,10.5
		c2.4-3.5,3.7-7.2,3.9-11.2c0.2-5.1-1.3-9.9-3.9-14.2c-3.2-5.6-7.7-10-13.6-13c-0.2-0.1-0.4-0.2-0.5-0.4c-0.8-1.9-2.1-3.5-3.2-5.2
		c-1.8-2.5-3.9-4.6-6.6-6.1c-1.3-0.7-2.7-1.3-4.3-1.3c-1.3,0-2.4,0.4-3.2,1.5c-0.7,1.1-0.4,2.2,0.1,3.3c0.4,0.8,1.1,1.6,1.8,2.2
		c1.8,1.6,3.9,2.8,6.1,3.9c-0.1,0.1-0.2,0.1-0.3,0.1c-0.2-0.1-0.5-0.2-0.7-0.3c-2-0.9-3.9-2-5.5-3.4c-0.1-0.1-0.3-0.2-0.5-0.3
		c-2.8-1-5.6-1.3-8.5-0.5c-1.4,0.4-2.5,1.2-3,2.6c-0.3,0.8-0.1,1.2,0.6,1.6c0.7,0.4,1.4,0.6,2.1,0.8c2,0.5,4.1,0.6,6.2,0.7
		c0.6,0.2,1.2,0.2,1.8,0c0.2,0,0.4,0,0.5,0c0,0.1,0.1,0.1,0.1,0.2c-1,0.1-2,0.2-3,0.1c-1.1-0.1-2,0.3-2.8,0.8
		c-7.6,4.6-12.8,11.1-15.7,19.4c-2.4,6.7-1.4,13,2.6,18.9C218.4,142.9,220.1,144.7,222.1,146.2z M266.1,142.6
		c-0.2-2.4-1.1-4.5-2.5-6.3c-2.3-3-5.3-5.2-8.7-6.8c-0.3-0.2-0.6-0.1-0.9,0c-2.8,1.2-5.3,2.9-7.4,5c-0.7,0.7-1.3,1.5-1.7,2.4
		c-0.2,0.4-0.1,0.6,0.3,0.8c0.6,0.3,1.3,0.6,2,0.8c2.5,0.7,5.1,0.9,7.7,1.4C258.7,140.5,262.5,140.8,266.1,142.6z M247.4,130.1
		c0.5,0,0.9,0,1.4,0.1c0.5,0.1,1.1,0.2,1.6,0.3c0.4,0.1,2.7-1,2.9-1.3c0-0.1,0-0.1,0.1-0.2c0.1-0.5,0.2-1,0.3-1.5
		c0-0.3,0-0.4-0.3-0.5c-3.4-0.9-6.7-2.1-9.9-3.5c-0.2-0.1-0.4-0.1-0.6,0.1c-1.3,1.8-1.9,4.6,0.1,6.8c0.3,0.3,0.5,0.4,0.9,0.3
		C245,130.3,246.2,130.1,247.4,130.1z M260.3,141.4c-1.8-0.2-3.5-0.4-5.1-0.6c-1-0.1-2-0.4-3-0.4c-1.8,0.1-3.6,0.7-5.2,1.6
		c-0.5,0.3-0.5,0.4-0.1,0.8c1.6,1.2,3.4,2,5.2,2.8c0.2,0.1,0.4,0.1,0.5,0C255.5,145.1,258,143.6,260.3,141.4z M212,125.2
		c0.6,0.2,0.9-0.1,0.9-0.8c0-0.2,0.1-0.4,0.1-0.5c0.2-0.4,0.1-0.6-0.3-0.8c-2.2-1-4.3-2.1-6.5-3.2c-0.3-0.2-0.5-0.1-0.7,0.2
		c-0.5,1-0.9,2-1.1,3.1c-0.1,0.7,0.1,0.9,0.7,1.1C207.3,124.8,209.6,125,212,125.2z M255,127.9c-0.2,1.2-0.2,1.2,0.9,1.6
		c0.1,0.1,0.3,0.1,0.4,0.2c0.3,0.2,0.6,0.2,0.9,0c1.8-1.2,3.7-1.8,5.9-1.4c0.4,0.1,0.5-0.1,0.5-0.4c0.3-1.1,0.1-2.1-0.5-3.1
		c-0.2-0.3-0.4-0.5-0.8-0.3c-1.3,0.5-2.7,1-4,1.5c-0.4,0.2-0.9,0.3-1.4,0.5c0.8,0.9,0.8,1.9,0.1,2.4
		C256.4,129.3,255.9,129.1,255,127.9z M213.4,122.7c0.2-0.5,0.4-1.2,0.7-1.8c0.1-0.2,0.1-0.3,0-0.5c-0.6-1.2-1.3-2.5-1.9-3.7
		c-0.1-0.2-0.2-0.3-0.4-0.2c-0.8,0.6-1.7,1.2-2.3,2c-0.1,0.2-0.2,0.4,0,0.6C210.8,120.2,212.1,121.5,213.4,122.7z M250,140.1
		c-0.1-0.1-0.2-0.1-0.2-0.1c-1.6-0.3-3.2-0.7-4.8-1.3c-0.4-0.1-0.4,0.1-0.4,0.3c0,1,0.4,1.9,1,2.6c0.2,0.3,0.4,0.2,0.6,0.1
		C247.3,141,248.6,140.5,250,140.1z"/>
	<path fill="#373737" d="M211.5,128.4c-0.1-0.1-0.1-0.1-0.2-0.2c0.3-0.3,0.6-0.5,1-0.7c0,0.1,0.2,0.3,0.1,0.4
		C212,127.9,211.9,128.4,211.5,128.4z"/>
	<path fill="#373737" d="M212.4,128.4c0,0.5,0,0.9,0,1.4C212.4,129.3,212.4,128.9,212.4,128.4z"/>
	<path fill="#373737" d="M243,99.9c0.5,0.2,1,0.4,1.5,0.6c-0.1,0.1-0.2,0.1-0.3,0.1c-0.5-0.1-1-0.3-1.5-0.6
		C242.8,100,242.9,100,243,99.9z"/>
	<path fill="#505050" d="M235.7,101.4c0.5-0.1,0.9-0.1,1.4,0c-0.4,0.1-0.8,0.2-1.3,0.2C235.8,101.6,235.8,101.5,235.7,101.4z"/>
	<path fill="#8E8E8E" d="M260.2,146.6c0.1-0.4-0.3-0.7-0.3-1.1c0,0,0-0.1,0.1-0.1c0.2,0.3,0.3,0.6,0.5,1
		C260.4,146.4,260.4,146.6,260.2,146.6z"/>
	<path fill="#505050" d="M233.4,101.4c0.6,0,1.2-0.1,1.8,0C234.6,101.6,234,101.6,233.4,101.4z"/>
	<path fill="#8E8E8E" d="M222.1,146.2c0.1-0.1,0.1-0.1,0.2-0.2c0,0,0.1,0.1,0.1,0.1c0,0.1,0,0.3,0,0.4
		C222.2,146.5,222.2,146.3,222.1,146.2z"/>
	<path fill="#373737" d="M229.5,140.3c1.8-1.1,3.7-1.8,5.7-2.4c2.3-0.7,4.8-1.1,7.2-1c0.3,0,0.6-0.1,0.9,0.2
		c-0.3,0.2-0.6,0.1-0.9,0.1c-3.6,0-7,0.7-10.2,2.1c-0.1,0.1-0.4,0-0.2,0.3l0,0c-0.4-0.3-0.7,0-1,0.2c-0.2,0.1-0.5,0.2-0.7,0.4
		c-0.1,0.1-0.3,0.2-0.4,0.2c0,0-0.1,0-0.1,0C229.6,140.4,229.6,140.3,229.5,140.3z"/>
	<path fill="#505050" d="M229.5,140.3c0.1,0,0.1,0.1,0.2,0.1c-1.2,0.7-2.4,1.4-3.5,2.3c0-0.1,0-0.2,0-0.3
		C227.3,141.7,228.3,140.9,229.5,140.3z"/>
	<path fill="#505050" d="M244.2,100.6c0.1,0,0.2,0,0.3-0.1c0.5,0.1,0.9,0.3,1.4,0.4C245.2,101,244.7,100.8,244.2,100.6z"/>
	<path fill="#6A6969" d="M224.3,144c0.1-0.4,0.5-0.4,0.8-0.7c-0.4,0.7-0.3,0.7,0.5,0.8c-0.4,0.2-0.8-0.4-1.2,0
		C224.4,144,224.4,144,224.3,144z"/>
	<path fill="#B3B3B3" d="M222.8,145.4c0,0,0-0.1,0-0.1c0,0,0-0.1,0-0.1c0.3,0,0.5-0.2,0.4-0.5c0,0,0.1,0,0.1-0.1c0.1,0,0.2,0,0.4,0
		c0,0.1,0.1,0.1,0.1,0.1c0,0.5-0.5,0.4-0.7,0.7C223,145.4,222.9,145.4,222.8,145.4z"/>
	<path fill="#B3B3B3" d="M247,147.9c0.3,0,0.5,0,0.8,0c0.3,0,0.5,0,0.9,0C248,148.3,247.5,148.2,247,147.9z"/>
	<path fill="#B3B3B3" d="M266.3,123.6c-0.4,0.4-0.8,0.6-1.4,0.4C265.4,124,265.8,123.7,266.3,123.6
		C266.3,123.6,266.3,123.6,266.3,123.6z"/>
	<path fill="#D1D1D0" d="M248.5,148.7c-0.3,0.3-0.6,0.2-1,0.1C247.9,148.5,248.2,148.7,248.5,148.7z"/>
	<path fill="#6A6969" d="M259.2,144c0.3,0.2,0.4,0.5,0.5,0.8C259.4,144.7,259.2,144.4,259.2,144C259.1,144.1,259.1,144.1,259.2,144z
		"/>
	<path fill="#6A6969" d="M225.9,142.8c-0.3,0.4-0.3,0.4-0.7,0.5C225.4,143,225.4,143,225.9,142.8z"/>
	<path fill="#6A6969" d="M223.8,144.7c-0.1,0-0.1-0.1-0.1-0.1c0.2-0.1,0.2-0.4,0.5-0.4c0,0,0.1,0.1,0.1,0.1
		C224.2,144.6,223.9,144.6,223.8,144.7z"/>
	<path fill="#8E8E8E" d="M223.5,145.9c0.2,0.1,0.3,0.1,0.5,0.3C223.7,146.3,223.6,146.1,223.5,145.9
		C223.5,146,223.5,145.9,223.5,145.9z"/>
	<path fill="#B3B3B3" d="M223.2,144.6c-0.2-0.1-0.3-0.3-0.2-0.6l0,0C223.2,144.1,223.2,144.4,223.2,144.6
		C223.2,144.6,223.2,144.6,223.2,144.6z"/>
	<path fill="#8E8E8E" d="M222.8,145.4c0.1,0,0.2,0,0.3,0c0,0.1,0,0.2,0,0.2c0,0,0,0,0,0c-0.1,0-0.2,0-0.3,0.1c0,0-0.1-0.1-0.1-0.1
		C222.7,145.5,222.7,145.5,222.8,145.4z"/>
	<path fill="#A2A2A2" d="M231.2,141.2c-0.2,0-0.3,0-0.4-0.2c0,0,0,0,0-0.1C231,141,231.1,141.1,231.2,141.2L231.2,141.2z"/>
	<path fill="#6A6969" d="M260,145.5c-0.1-0.1-0.2-0.3-0.3-0.5C260,145,259.9,145.3,260,145.5C260,145.4,260,145.4,260,145.5z"/>
	<path fill="#B3B3B3" d="M224.7,145.6c-0.1,0-0.2,0.1-0.2,0c-0.1,0-0.1-0.1-0.1-0.1c0-0.1,0-0.1,0.1-0.1
		C224.5,145.5,224.6,145.5,224.7,145.6z"/>
	<path fill="#A2A2A2" d="M229.8,140.4c0.1-0.1,0.3-0.2,0.4-0.2c0,0.1,0,0.2,0,0.3c0,0,0,0.1-0.1,0.1
		C230.1,140.5,229.9,140.5,229.8,140.4z"/>
	<path fill="#6A6969" d="M226.2,142.4c0,0.1,0,0.2,0,0.3c-0.1,0.1-0.2,0.3-0.3,0.1C225.8,142.6,226,142.5,226.2,142.4z"/>
	<path fill="#6A6969" d="M259.1,144.1c-0.1,0-0.1-0.1-0.1-0.2C259.1,143.9,259.2,144,259.1,144.1
		C259.1,144.1,259.1,144.1,259.1,144.1z"/>
	<path fill="#B3B3B3" d="M224,145.2c0,0,0.1,0.1,0.1,0.1c0,0-0.1,0.1-0.1,0.1c0,0-0.1-0.1-0.1-0.1C223.9,145.2,224,145.2,224,145.2z
		"/>
	<path fill="#B3B3B3" d="M225,145.8c0,0-0.1,0-0.1-0.1C224.9,145.7,225,145.7,225,145.8c0-0.1,0.1-0.1,0.1,0
		C225.1,145.7,225,145.8,225,145.8z"/>
	<path fill="#B3B3B3" d="M266.3,123.6c0.1-0.1,0.1-0.1,0.2-0.1C266.5,123.6,266.4,123.6,266.3,123.6
		C266.3,123.6,266.3,123.6,266.3,123.6z"/>
	<polygon fill="#373737" points="229.8,139.6 229.7,139.6 229.7,139.6 	"/>
	<path fill="#8E8E8E" d="M222.7,145.1c0,0-0.1-0.1-0.1-0.1c0,0,0,0,0.1,0C222.6,145,222.7,145.1,222.7,145.1L222.7,145.1z"/>
	<path fill="#6A6969" d="M224.4,144.1c-0.1,0.1-0.1,0.1-0.2,0.2c0,0-0.1-0.1-0.1-0.1c0.1-0.1,0.1-0.1,0.2-0.2
		C224.4,144,224.4,144,224.4,144.1z"/>
	<path fill="#8E8E8E" d="M222.6,145.9c-0.1,0.1-0.1,0.2-0.2,0.2c0,0-0.1-0.1-0.1-0.1c0.1-0.1,0.1-0.1,0.2-0.2
		C222.6,145.8,222.6,145.8,222.6,145.9z"/>
	<path fill="#B3B3B3" d="M222.9,144C222.9,144,222.9,144,222.9,144C222.9,144,222.9,144,222.9,144C222.9,144,222.9,144,222.9,144
		L222.9,144z"/>
	<path fill="#A2A2A2" d="M231.2,141.2C231.2,141.2,231.2,141.2,231.2,141.2C231.2,141.3,231.2,141.3,231.2,141.2
		C231.2,141.3,231.2,141.2,231.2,141.2L231.2,141.2z"/>
	<path fill="#8E8E8E" d="M222.8,145.1c0,0,0,0.1,0,0.1c-0.1,0-0.1,0-0.1-0.1l0,0C222.7,145.1,222.8,145.1,222.8,145.1z"/>
	<polygon fill="#373737" points="231.9,139.6 232,139.6 232,139.6 	"/>
	<path fill="#8E8E8E" d="M223.1,145.6c0,0,0.1,0.1,0.1,0.1C223.1,145.8,223.1,145.7,223.1,145.6
		C223.1,145.7,223.1,145.6,223.1,145.6z"/>
	<path fill="#A2A2A2" d="M230.3,140.7c0,0-0.1-0.1-0.1-0.1c0,0,0,0,0.1-0.1C230.3,140.5,230.3,140.6,230.3,140.7
		C230.4,140.7,230.3,140.7,230.3,140.7z"/>
	<path fill="#A2A2A2" d="M230.4,140.6c0,0,0.1,0.1,0.1,0.1c0,0,0,0-0.1,0.1C230.4,140.8,230.4,140.8,230.4,140.6
		C230.3,140.7,230.4,140.7,230.4,140.6z"/>
	<path fill="#8E8E8E" d="M223.4,146c0,0,0-0.1-0.1-0.1C223.4,145.9,223.5,145.9,223.4,146C223.5,145.9,223.5,146,223.4,146z"/>
	<path fill="#A2A2A2" d="M230.5,140.8c0,0,0,0.1,0.1,0.1C230.5,140.9,230.5,140.9,230.5,140.8C230.5,140.8,230.5,140.8,230.5,140.8z
		"/>
	<path fill="#8E8E8E" d="M222.5,145.8c0,0,0.1-0.1,0.1-0.1c0,0,0.1,0.1,0.1,0.1c0,0-0.1,0.1-0.1,0.1
		C222.6,145.8,222.6,145.8,222.5,145.8z"/>
	<path fill="#D1D1D0" d="M255,131c0.1-0.3,0.3-0.4,0.6-0.2C255.4,130.8,255.2,130.9,255,131L255,131z"/>
	<path fill="#C7C7C6" d="M253.5,130.6c0.2-0.2,0.5-0.3,0.7-0.4C254.1,130.5,253.8,130.6,253.5,130.6
		C253.5,130.6,253.5,130.6,253.5,130.6z"/>
	<path fill="#D1D1D0" d="M255.2,131.3c0.1-0.2,0.3-0.3,0.5-0.3l0,0C255.7,131.2,255.5,131.2,255.2,131.3
		C255.3,131.3,255.2,131.3,255.2,131.3z"/>
	<path fill="#D1D1D0" d="M256.2,131.4c0.1-0.1,0.1-0.2,0.3-0.2c0,0,0.1,0.1,0.1,0.1C256.5,131.4,256.3,131.4,256.2,131.4
		L256.2,131.4z"/>
	<path fill="#C7C7C6" d="M253.5,130.6c-0.1,0.1-0.1,0.2-0.3,0.3c0,0,0,0-0.1-0.1C253.2,130.7,253.3,130.6,253.5,130.6
		C253.5,130.6,253.5,130.6,253.5,130.6z"/>
	<path fill="#D1D1D0" d="M255.1,131.4c-0.1,0.1-0.1,0.2-0.3,0.2c0,0-0.1-0.1-0.1-0.1C254.9,131.4,255,131.4,255.1,131.4L255.1,131.4
		z"/>
	<path fill="#D1D1D0" d="M255.7,131.8c0,0.2-0.1,0.3-0.3,0.3l0,0C255.4,131.9,255.5,131.8,255.7,131.8L255.7,131.8z"/>
	<path fill="#C7C7C6" d="M253.5,131.4c0-0.1,0.1-0.2,0.2-0.2c0,0,0,0,0,0C253.7,131.4,253.6,131.4,253.5,131.4L253.5,131.4z"/>
	<path fill="#D1D1D0" d="M255.8,131c0,0,0.1-0.1,0.2-0.1c0,0,0,0,0,0C255.9,131,255.9,131,255.8,131L255.8,131z"/>
	<path fill="#D1D1D0" d="M255,131c-0.1,0.1-0.2,0.1-0.3,0.1l0,0C254.8,131,254.9,131,255,131L255,131z"/>
	<path fill="#D1D1D0" d="M256.1,131.5c0,0,0.1-0.1,0.1-0.1l0,0C256.2,131.4,256.1,131.5,256.1,131.5L256.1,131.5z"/>
	<path fill="#C7C7C6" d="M254.6,130.6c0,0,0.1-0.1,0.1,0C254.7,130.5,254.6,130.6,254.6,130.6L254.6,130.6z"/>
	<path fill="#C7C7C6" d="M254.2,130.8c0,0,0-0.1,0.1,0C254.3,130.8,254.2,130.9,254.2,130.8C254.2,130.9,254.2,130.8,254.2,130.8z"
		/>
	<path fill="#C7C7C6" d="M253.3,130.9c0,0-0.1,0.1-0.1,0C253.1,130.9,253.2,130.9,253.3,130.9C253.2,130.8,253.2,130.9,253.3,130.9z
		"/>
	<path fill="#C7C7C6" d="M254.2,130.9c0,0-0.1,0.1-0.1,0.1l0,0C254.1,130.9,254.1,130.9,254.2,130.9L254.2,130.9z"/>
	<path fill="#C7C7C6" d="M253.4,131.5c0,0,0.1-0.1,0.1-0.1c0,0,0,0,0,0C253.5,131.4,253.4,131.5,253.4,131.5L253.4,131.5z"/>
	<path fill="#C7C7C6" d="M252.8,131.1C252.9,131.1,252.9,131.1,252.8,131.1C252.9,131.1,252.9,131.1,252.8,131.1
		C252.9,131.1,252.9,131.1,252.8,131.1L252.8,131.1z"/>
	<path fill="#D1D1D0" d="M255.1,131.4c0,0,0.1-0.1,0.1-0.1c0,0,0,0,0,0C255.2,131.3,255.2,131.4,255.1,131.4L255.1,131.4z"/>
	<path fill="#C7C7C6" d="M254.1,131C254,131,254,131,254.1,131C254,131,254,131,254.1,131L254.1,131z"/>
	<path fill="#C7C7C6" d="M254.6,130.6C254.6,130.6,254.5,130.6,254.6,130.6C254.5,130.6,254.5,130.6,254.6,130.6
		C254.6,130.6,254.6,130.6,254.6,130.6z"/>
	<path fill="#C7C7C6" d="M252.8,131.1C252.8,131.1,252.8,131.2,252.8,131.1C252.8,131.2,252.8,131.1,252.8,131.1L252.8,131.1z"/>
	<path fill="#D1D1D0" d="M255.6,131.8C255.7,131.8,255.7,131.8,255.6,131.8C255.7,131.8,255.7,131.8,255.6,131.8L255.6,131.8z"/>
	<path fill="#D1D1D0" d="M255.4,132.1C255.4,132.1,255.3,132.1,255.4,132.1C255.3,132.1,255.4,132.1,255.4,132.1
		C255.4,132.1,255.4,132.1,255.4,132.1z"/>
	<path fill="#D1D1D0" d="M256.1,131.5C256,131.6,256,131.6,256.1,131.5C256,131.6,256,131.5,256.1,131.5L256.1,131.5z"/>
	<path fill="#C7C7C6" d="M253.4,131.5C253.3,131.6,253.3,131.6,253.4,131.5C253.3,131.6,253.3,131.5,253.4,131.5L253.4,131.5z"/>
	<path fill="#D1D1D0" d="M254.7,131.1C254.7,131.1,254.7,131.2,254.7,131.1C254.7,131.2,254.7,131.1,254.7,131.1L254.7,131.1z"/>
	<path fill="#101010" d="M250,127.8c0,1-0.9,1.8-1.8,1.8c-1,0-1.8-0.9-1.8-1.8c0-1,0.8-1.7,1.8-1.7C249.3,126,250,126.8,250,127.8z"
		/>
	<path fill="#D1D1D0" d="M252,145c0.3,0,0.6,0,0.9,0C252.6,145.1,252.3,145.2,252,145L252,145z"/>
	<path fill="#D1D1D0" d="M252,145c-0.1,0-0.2,0-0.3-0.1l0,0C251.9,144.8,252,144.9,252,145L252,145z"/>
	<path fill="#D1D1D0" d="M251.5,144.7c0.1,0,0.2,0,0.3,0.1c0,0,0,0,0,0C251.6,144.8,251.6,144.8,251.5,144.7L251.5,144.7z"/>
	<path fill="#D1D1D0" d="M251.5,144.7C251.5,144.7,251.4,144.7,251.5,144.7C251.4,144.7,251.5,144.7,251.5,144.7L251.5,144.7z"/>
</g>
<g>
	<path d="M199.4,73.8c-0.6,0.9-1.1,2-1.9,2.7c-2.8,2.4-5.7,4.6-8.5,6.8c-0.9,0.7-2.1,0.9-2.7-0.1c-2.4-3.7-6.3-3.5-9.9-4.4
		c-1.5-0.4-2.2,0.1-2.8,1.5c-3.7,7.8-5.9,16-6.8,24.6c-0.5,4.3-0.6,8.6-0.9,12.9c-0.1,1,0.2,1.3,1.2,1.3c1.5-0.1,3,0,4.5,0.2
		c1.4,0.1,2,1,2.4,2.3c1.2,4.2,0.8,8.4,0.5,12.6c-0.2,2.8-1.3,3.6-3.9,4.1c-7.8,1.3-15.5,2.8-23.2,4.4c-8.2,1.7-16.4,3.5-24.6,5.2
		c-1,0.2-1.6,0.6-1.8,1.8c-1.3,6.3-3,12.6-4.2,19c-0.9,4.8-1,9.8,0.4,14.6c0.3,1.2,0.9,2.4,1.6,3.3c1.3,1.6,3,1.3,4-0.5
		c0.4-0.8,0.7-1.6,1.1-2.3c1-1.7,3-1.8,3.7,0.1c0.7,1.6,1.1,3.4,1.2,5c0,2.5-0.4,5.1-0.6,7.6c-1.3,0-2.6,0-3.9,0
		c-3.9-0.6-6.7-2.7-8.5-6.2c-0.3-0.6-0.5-1.3-0.8-1.9c-2-3.3-2.8-6.9-2.7-10.6c0-4,0.5-8.1,0.8-12.1c0-0.5,0-1.4-0.3-1.6
		c-2.1-1.4-2.6-3.4-3-5.6c-0.4-2.3-0.9-4.6-1.4-7c-1.1,0.3-1.9,0.5-2.9,0.7c1.9,2.5,2.9,5.2,3.3,8c0.7,4.6-0.4,8.9-1.9,13.2
		c-1.1,3.2-2.3,6.3-3,9.5c-1,4.4-1.5,9-0.6,13.5c-0.4,0-0.8,0-1.2,0c-0.1-2.3-0.3-4.7-0.2-7c0.1-2.3,0.6-4.6,0.9-7.1
		c-0.9,1.8-1.9,3.4-2.6,5.2c-1.2,2.9-2.3,5.9-3.5,8.9c-1.6,0-3.2,0-4.8,0c-0.5-4.6-2.4-8.7-4-13c-1.8-5-3.6-9.9-5.2-15
		c-0.5-1.6-0.3-3.5-0.2-5.2c0.1-1.3,0.9-2.4,2.3-2.9c1.5-0.5,2.7,0.2,3.6,1.3c1.1,1.4,1.9,2.9,2.9,4.4c0.7,1.1,1.5,2.2,2.4,3.5
		c0.5-0.7,0.9-1.1,1.1-1.5c1.6-3.4,1.8-6.8,0.6-10.4c-0.7-2.1-1.5-2.7-3.5-1.9c-4.2,1.5-7.7,0.4-11.3-1.9
		c-11.1-6.7-22.9-11.8-35.1-16.2c-1.3-0.5-2.7-0.8-4.1-0.9c-1.7-0.2-2.5-1.1-2.9-2.6c-1-3.5-1.9-6.9-2.9-10.4
		c-0.4-1.2-0.8-2.5-1.2-3.7c-0.6-2.1,0.3-3.5,2.4-3.7c2.5-0.3,5-0.4,7.5-0.6c1-0.1,2.1,0,3.4,0c-0.3-1.6-0.4-3.1-0.7-4.6
		c-1.4-6.5-2.7-13-4.2-19.5c-0.4-1.7-1.2-3.4-1.9-5c-0.2-0.4-0.7-0.8-1.2-0.9c-0.7-0.2-1.5-0.3-2.2-0.2c-2.6,0.4-4.6-0.6-6.5-2.4
		c-3.3-3.2-6.7-6.3-10-9.5c-0.2-0.2-0.4-0.5-0.6-0.7c-1.7-2.4-1.5-3.3,0.7-5.2c2.8-2.3,5.5-4.8,8.3-7.1c0.5-0.4,1-0.7,1.4-1.1
		c-0.4-0.6-0.5-0.9-0.7-1.2c-1.1-1.9-0.8-2.9,1.2-3.8c2.4-1.1,4.9-2.1,7.3-3.2c1.2-0.5,2.4-1.1,3.5-1.7c1.2-0.7,2.5-1.2,1.5-3.1
		c-0.5-1,0.2-2,1.3-2.6c2.7-1.6,5.3-3.3,8-4.8c0.8-0.5,1.1-0.8,0.6-1.8c-0.6-1.1-0.1-2,0.7-2.8c2.8-2.6,5.6-5.1,8.4-7.8
		c1.3-1.2,2.7-2.1,4.5-1.9c4.7,0.4,9.5,0.9,14.2,1.1c6.8,0.3,13.7,0.7,20.5,0.6c5.6-0.1,11.2-0.6,16.7-1.2c2.4-0.3,4.8-1.3,7.2-2
		c3.7-1.2,7.4-2.4,11.1-3.6c0.9,0,1.8,0,2.7,0c0.8,0.5,1.7,1,2.5,1.6c6.5,4.8,13,9.7,19.5,14.6c2.3,1.7,2.4,2,1.7,4.8
		c0.4,0.2,0.8,0.5,1.2,0.8c3.6,1.9,7.2,3.8,10.7,5.7c1.9,1,2.3,1.8,1.7,3.7c-0.4,1.1,0,1.7,0.8,2.3c0.5,0.4,1,0.7,1.5,1
		c4.1,2.5,8.2,4.9,12.3,7.5c2.7,1.7,2.8,2.3,1.6,5.3c1.6,1.4,3.2,2.9,4.8,4.3c0.6,0.5,1.1,1.2,1.6,1.7
		C199.4,73.6,199.4,73.7,199.4,73.8z M150.4,32.3c0.1,0.1,0.2,0.2,0.3,0.3c0.3,0.2,0.6,0.4,0.9,0.6c2.7,2.4,5.3,4.8,8,7.2
		c0.8-1.2,0.9-1.3,0.1-1.8c-2.7-1.8-5.4-3.6-8.1-5.4c-0.3-0.2-0.6-0.4-0.9-0.6C150.6,32.5,150.5,32.4,150.4,32.3z M174.4,54.8
		c-0.1-0.1-0.2-0.2-0.3-0.3c-0.2-1.1-0.4-2.2-0.6-3.3c-0.1-0.5-0.3-1.1-0.7-1.3c-2.2-1.2-4.5-2.3-6.8-3.5l0,0c0,0,0,0,0,0
		c2.7,2.7,5.4,5.4,8.1,8.1C174.2,54.6,174.3,54.7,174.4,54.8L174.4,54.8C174.5,54.9,174.4,54.8,174.4,54.8z M175.6,56
		c0.1,0.1,0.2,0.2,0.3,0.3c2.7,2.7,5.3,5.4,8,8.1c3,3,5.9,6,8.9,8.9c0.4,0.4,1.1,0.6,1.6,1c0.1-0.2,0.2-0.3,0.4-0.5
		c-1.3-1.4-2.7-2.9-4-4.3c-0.9-0.9-1.7-2-1.1-3.3c0.5-1,0-1.4-0.7-1.9c-4.4-2.6-8.7-5.3-13-7.9C175.8,56.3,175.7,56.1,175.6,56
		c-0.1-0.1-0.2-0.2-0.3-0.3l-0.1-0.1c0,0,0.1,0.1,0.1,0.1C175.4,55.8,175.5,55.9,175.6,56z M167.5,82.3c-0.5,0.1-0.9,0.1-1.3,0.2
		c-5.4,1-10.8,2.1-16.2,3.2c-0.5,0.1-1,0.7-1.2,1.1c-1.4,2.4-2.4,5-4.1,7.1c-2.9,3.5-6.8,5.5-11.5,5.1c-4.9-0.4-8.1-3.3-9.7-7.8
		c-0.3-0.9-0.6-1.1-1.6-0.9c-2.2,0.6-4.4,1-6.6,1.4c-8.3,1.6-16.6,3.2-24.8,4.7c-1.8,0.3-3.7,0.6-5.4,0.8c0.7,3.8,1.6,7.4,2.1,11
		c0.2,1.6,0.8,1.9,2.2,1.8c5.2-0.4,10.4-0.7,15.5-1.3c6.9-0.8,13.9-1.7,20.8-3c8.4-1.5,16.8-3.3,25.2-5.1c3.8-0.8,7.6-2,11.4-3.1
		c0.5-0.1,0.9-0.8,1.1-1.4c0.7-2.4,1.1-4.8,1.8-7.1C165.9,86.9,166.7,84.7,167.5,82.3z M137.2,23.7c-0.4,0.1-0.6,0-0.8,0.1
		c-2.1,0.8-4.2,1.6-6.3,2.3c-9.9,3-20.2,3.8-30.5,4.2c-9.9,0.4-19.8-0.8-29.6-1.7c-2.4-0.2-4.3,0.1-6,2.1c-1.7,2-3.7,3.6-5.6,5.4
		c-1.2,1.1-1.1,2.2,0.3,2.9c1.1,0.6,2.3,1,3.5,1.4c6.8,2,13.9,2.6,21,3.2c8.3,0.7,16.6,0,24.9-0.6c4.1-0.3,8.2-0.8,12.2,0.3
		c0.3,0.1,0.9-0.1,1.2-0.4C127.1,36.9,132.4,30.7,137.2,23.7z M87.6,152.3c1.5-0.3,2.8-0.5,4.1-0.8c11.8-2.9,23.6-6,35.5-8.7
		c13.9-3.1,27.9-6.2,42.1-8c0.4,0,1-0.5,1.1-0.7c0.2-2.8,0.3-5.6,0.4-8.4c0-0.3-0.4-0.8-0.6-0.8c-2,0.2-4,0.5-5.9,0.9
		c-1.3,0.3-2.4,0.9-3.7,1.1c-5.9,1.1-11.8,2-17.7,3.2c-11.2,2.2-22.4,4.6-33.6,6.7c-7,1.3-14.1,2.2-21.1,3.4c-0.4,0.1-1,0.7-1,1.1
		C87.1,144.8,87.4,148.4,87.6,152.3z M162.7,98.5c-24.5,7.5-49.6,10.8-75.2,12.6c0.4,4,0.9,8.1,1.3,12.2c15.9-1.7,31.6-3.2,47.5-5.9
		c-1.5-0.3-2.5-0.5-3.6-0.7c-1.1-0.3-2.2-0.6-3.3-1c-2.8-1.2-3.4-4.1-1.1-6.1c0.9-0.7,2.4-1,3.6-0.9c4,0.2,8.1,0.6,12.1,1
		c5.1,0.5,5.8,1.2,6.3,5.7c3.5-0.8,6.9-1.6,10.3-2.5c0.4-0.1,0.7-0.9,0.8-1.4C161.9,107.3,162.3,103.1,162.7,98.5z M98.1,64.3
		C97.4,64.1,97,64,96.7,64c-4.3,0.4-8.6,0.9-13,1.2c-5.3,0.4-10.7,0.7-16,0.9c-3.3,0.1-6.6-0.1-9.9-0.4c-4.1-0.3-8.3-0.8-12.3-1.4
		c-3.9-0.6-7.8-1.6-10.9-3.6c-3.8,3.6-7.4,7.1-11.2,10.6c1.5,0.4,2.9,0.9,4.4,1.2c7.9,1.4,15.8,2.8,23.8,4c8.5,1.3,17.1,2,25.7,1.8
		c1.8,0,3.3-0.5,4.7-1.6c2.4-1.8,4.9-3.5,7.2-5.4C92.1,69.1,94.9,66.8,98.1,64.3z M47.9,49.2c-2.2,2.6-3.7,3.8-6.8,5.1
		c-2,0.9-4.1,1.7-6.1,2.5c-1.5,0.6-1.7,1.3-0.5,2.2c1.4,1.1,3.1,2,4.8,2.6c5.9,2,12.1,2.7,18.3,3c6,0.3,12,0.3,18,0.1
		c5-0.2,9.9-1,14.9-1.4c2.6-0.2,5.3-0.2,7.9-0.4c0.5,0,1.2-0.1,1.6-0.4c2.5-2.1,5-4.2,7.4-6.3c0.3-0.2,0.5-0.6,0.9-1
		c-0.8-0.1-1.4-0.3-2-0.3c-3.2,0-6.5,0-9.7,0c-6.9,0-13.7,0.1-20.6,0c-3.4-0.1-6.8-0.6-10.1-1C59.9,52.9,53.8,51.6,47.9,49.2z
		 M89,124.1c0.3,3,0.5,5.8,0.8,8.6c0.3,2.9,0.3,2.9,3.3,2.3c10.4-2,20.9-4,31.3-6c7.3-1.4,14.6-2.7,22-4c4.6-0.8,9.3-1.5,13.9-2.4
		c0.4-0.1,1.2-0.5,1.2-0.8c0-1.2-0.2-2.3-0.3-3.8c1.1-0.9,0.2-2.6,0.4-4c-0.3-0.1-0.5-0.1-0.6-0.1c-3.4,0.7-6.8,1.4-10.2,2.2
		c-0.4,0.1-0.9,0.5-1.1,0.9c-0.8,1.6-2,1.8-3.6,1.6c-2.3-0.3-4.6-0.7-6.8-0.5c-6.5,0.8-12.9,1.9-19.4,2.7c-4.7,0.6-9.5,1.2-14.3,1.7
		c-5,0.5-10,0.9-14.9,1.3C89.9,123.8,89.5,124,89,124.1z M162.5,60.2c-0.7-1-1.1-1.8-1.7-2.5c-1-1.1-2.1-2.1-3.3-3
		c-0.4-0.3-1.2-0.5-1.7-0.4c-3.2,0.6-6.3,1.4-9.5,2c-7.4,1.3-14.8,2.8-22.3,3.7c-3.9,0.5-7,1.7-9.7,4.6c-1.8,2-3.8,4.1-5.9,5.9
		c-2.5,2.1-4.6,4.6-7.1,7.1c6.2-1.4,12.2-2.7,18.2-4.1c4.7-1.1,9.4-2,13.5-5.2c3.6-2.8,9.1-3.1,13,0.8c0.4,0.4,1.3,0.4,1.9,0.3
		c3.6-0.7,7.2-1.5,10.8-2.4c3-0.8,5.9-1.7,8.9-2.7c-1.6-1.7-3-3.2-4.4-4.7C162.8,59.9,162.6,60.1,162.5,60.2z M47.2,46.8
		c0.6,0.5,1.1,1.1,1.7,1.3c2.9,1,5.8,1.9,8.7,2.7c6.2,1.5,12.5,2.4,18.8,2.6c6.4,0.1,12.8,0.3,19.2,0.1c4.5-0.1,9-0.4,13.4,0.4
		c0.5,0.1,1.2-0.1,1.5-0.5c2.8-2.6,5.6-5.3,8.3-8c0.3-0.3,0.5-0.6,0.8-1c-3.1-1-6.1-0.7-9.1-0.5c-5.3,0.3-10.6,0.8-15.8,1.1
		c-7.1,0.3-14.1-0.3-21.1-1.2c-5.5-0.7-11-1.4-16.1-3.9c-0.3-0.2-0.9-0.1-1.2,0.1C53.5,42.1,50.6,44.4,47.2,46.8z M138.5,24.6
		c-1.5,2-3,4.1-4.6,6.1c-6.6,8.3-13.9,16.1-21.7,23.2c-9.8,8.9-19.9,17.3-30.9,24.8c-0.4,0.3-0.8,1-0.8,1.4c0.3,3.3,0.7,6.6,1.2,10
		c0.1,0.4,0.4,0.8,0.6,1.3c0.4-0.2,0.9-0.4,1.2-0.7c5.3-5.4,10.4-10.9,15.7-16.1c13-12.7,26-25.3,39-37.8c0.8-0.7,1-1.5,0.9-2.5
		C138.9,31,138.7,27.8,138.5,24.6z M39.1,121c0.7,2.9,1.5,5.3,1.9,7.8c0.5,2.7,1.8,3.9,4.6,4.8c12.6,4,24.5,9.5,35.9,16.1
		c1.4,0.8,2.9,1.6,4.4,2.5c-0.2-4.1-0.4-8-0.6-11.9c0-0.4-0.3-1-0.6-1.2c-2.2-1.4-4.3-2.9-6.7-4c-9.9-4.6-20.1-8.5-30.7-11.6
		C44.8,122.6,42.1,121.8,39.1,121z M83.7,94.5c0.3,1.9,1.3,1.8,2.3,1.7c2.1-0.3,4.3-0.5,6.4-0.9c9.7-2,19.4-4,29.2-6
		c1.2-0.2,1.5-0.8,1.4-1.9c-0.3-2.8,0.2-5.6,1.4-8.2c1-2.2,2.2-4.4,3.4-6.6c-0.2,0-0.3,0-0.4,0c-7.7,1.7-15.4,3.4-23.1,5.2
		c-1.9,0.4-4,0.3-5.5,2c-1.6,1.8-3.3,3.4-5,5C90.3,88.2,86.9,91.5,83.7,94.5z M48.5,97.7c0.3,1.2,0.4,2.1,0.7,2.9
		c0.5,1.3,0.1,3.1,1.8,3.8c0.1,0,0.2,0.5,0.1,0.5c-1.3,1-0.3,2.2-0.3,3.3c0,1.5,0.8,2.1,2.2,2.5c10.7,2.8,21.2,6.2,31.4,10.3
		c0.8,0.3,1.7,0.6,2.8,1c-0.5-3.9-1.1-7.5-1.2-11.2c-0.1-2-1-2.7-2.6-3.2c-7.1-2.2-14.1-4.5-21.2-6.5C57.9,99.9,53.3,98.9,48.5,97.7
		z M139.7,25.3c0,1.1-0.1,1.9,0,2.6c0.2,1.4,0.6,2.9,0.6,4.3c0.1,2.2,1.2,3.6,2.9,4.9c3.7,2.9,7.2,6.1,10.6,9.3
		c7.3,6.8,14.6,13.6,21.8,20.5c3.8,3.7,7.4,7.8,11.1,11.6c0.4,0.4,1.3,0.8,1.5,0.6c1.6-1,3.1-2.3,4.6-3.4
		C175.6,58.6,159.4,40.6,139.7,25.3z M44.9,86.3c0.9,2.9,1.9,5.4,2.5,8c0.5,2.1,1.6,2.7,3.5,3.2c9.2,2.4,18.3,4.9,27.4,7.5
		c2.4,0.7,4.7,1.7,7.1,2.6c0.2-0.1,0.3-0.2,0.5-0.2c-0.9-3.4-1.8-6.9-2.7-10.3c-0.3-1.1-1-1.6-2.1-1.9c-9.5-2.5-19-5-28.5-7.4
		C50.2,87.1,47.6,86.8,44.9,86.3z M51.4,111.1c0.6,2.9,1.4,5.4,1.5,7.9c0.1,3.1,2,3.7,4.5,4.3c9.9,2.5,19.1,6.7,28.2,11.3
		c0.9,0.4,1.9,0.7,3.1,1.2c-0.4-3.9-0.9-7.4-1.1-10.9c-0.1-1.5-0.8-2.1-2.1-2.5c-7-2.5-14-5-21-7.4C60.3,113.5,56,112.4,51.4,111.1z
		 M25.3,73.2c0.1,0.1,0.1,0.3,0.2,0.4c3,2.7,6,5.4,9.1,8c0.3,0.3,0.9,0.2,1.4,0.3c3.4,0.3,6.9,0.3,10.3,1c9.3,1.9,18.6,4.1,27.9,6.3
		c2.1,0.5,4.1,1.1,6.2,1.7c-0.2-1.6-0.4-3-0.5-4.4c-0.1-1.7-0.2-3.5-0.3-5.2c-0.1-0.8,0-1.8-1.3-1.7c-7.1,0.2-14.2-0.2-21.2-1.2
		c-6.9-0.9-13.7-1.8-20.6-2.9C32.7,74.9,29.1,74,25.3,73.2z M98.1,154.2c1.9,3,2.3,6.2,2,9.5c-0.1,1.3-0.2,2.7-0.3,4
		c-0.2,3.5-0.3,7.1-0.6,10.6c0,0.6-0.7,1.3-1.3,1.5c-0.7,0.3-1.6,0.3-2.4,0.3c-4.1,0.2-4.7-0.2-5.4-4.2c0-0.2-0.1-0.4-0.1-0.6
		c-0.2-1.9,0.1-2.1,2-1.8c0.7,0.1,1.5,0.3,2.2,0.4c2.7,0.5,3.1,1.2,2.3,4.2c0.2-4.3-3.1-3.4-5.5-4c-0.7,3.7,0.6,5.4,4.2,5.2
		c0.8,0,1.6-0.1,2.4-0.3c0.3-0.1,0.8-0.5,0.8-0.8c0.3-3.2,0.6-6.3,0.8-9.5c-0.1,0-0.3,0-0.4,0c-0.2,0.3-0.3,0.6-0.5,0.9
		c-2.4,4.7-6.3,4.9-9.2,0.5c-1-1.6-1.8-3.3-2.7-5c-0.2-0.4-0.5-0.7-1-1.4c-0.5,2.8,0.2,5,1,7.1c2.1,5.4,4.4,10.7,6.5,16.1
		c1,2.5,1.7,5.2,2.4,7.4c2.5-5,5.1-10.2,7.6-15.5c2.2-4.4,4-9,4.5-13.9c0.4-4.1-0.2-8-2.5-11.5c-0.3-0.5-1.2-1-1.8-0.9
		C101.8,153.1,100.1,153.7,98.1,154.2z M173.9,69.9c-1.4-1.2-2.9-2.6-4.5-4.1c-0.7-0.6-1.3-0.8-2.1-0.5c-2.4,0.8-4.7,1.6-7.2,2.2
		c-4.2,1.1-8.5,2-12.9,3c2.9,4.4,3.1,9.2,2.2,14.5c6.3-1.4,12.3-2.8,18.2-4.2c0.4-0.1,0.7-0.5,0.9-0.9
		C170.2,76.8,171.9,73.6,173.9,69.9z M155.5,53.5c0-0.2,0.1-0.4,0.1-0.7c-5-4.4-9.9-8.7-14.9-13.1c-7,6.6-13.8,13.1-20.7,19.6
		c0.1,0.2,0.2,0.4,0.2,0.5C132,57.7,143.7,55.6,155.5,53.5z M141,79.1c0-3-0.5-5-1.6-6.8c-1.8-2.7-3.2-3.1-5.8-1.2
		c-5.7,4.1-8.5,9.6-7.8,16.7c0.4,4.5,3.6,7.7,8.1,8.1c1,0.1,2-0.1,2.5-1.1C139,89.8,140.9,84.7,141,79.1z M138,69.4
		c2.6,1.9,3.8,4.5,4,7.6c0.3,4.2-0.4,8.3-1.9,12.2c-0.7,1.9-1.6,3.8-2.5,5.9c0.6-0.2,0.9-0.3,1.2-0.5c0.5-0.3,1-0.5,1.4-0.9
		c4.3-3.1,6.3-7.5,6.7-12.7c0.3-3.4-0.4-6.7-2.7-9.4C142.7,69.7,140.1,68.7,138,69.4z M145.9,111.4c-1.9-0.2-4-0.6-6-0.7
		c-3.1-0.2-6.2-0.3-9.3-0.5c-1.2-0.1-1.9,0.9-2,1.9c0,0.6,0.6,1.4,1.1,1.8c0.4,0.4,1.2,0.6,1.8,0.7c2.3,0.5,4.6,1,6.9,1.4
		c2,0.3,4,0.5,5.7,0.6C144.7,114.8,145.3,113.3,145.9,111.4z M112.4,157.1c0.5-0.6,0.9-0.9,1.2-1.3c0.1,0.1,0.3,0.2,0.4,0.3
		c-0.5,0.5-0.9,1.1-1.4,1.6c-0.4-0.5-0.9-1-1-1.5c-0.2-1.1-0.1-2.2,0-3.2c0.1-1,0.8-1.4,1.7-0.9c0.8,0.4,1.5,0.7,2.4,1.2
		c0.4-1.4,0.8-2.6,1.3-4.1c-2.9,0.7-5.4,1.4-8.1,2c0.8,3.4,1.4,6.6,2.3,9.8c0.2,0.8,1.1,1.5,1.6,2.2c1.1-3,1.8-5.7,2.5-8.5
		c0.1-0.3-0.1-0.8-0.3-0.9c-0.8-0.5-1.6-0.8-2.7-1.4C112.4,154.2,112.4,155.5,112.4,157.1z M116.9,190.5c1.7,2.6,3.7,4.3,6.5,4.8
		c0.7,0.1,1.5,0.3,1.6-0.7c0.2-2,0.4-4.1,0.5-6.1C122.4,191.5,120.6,192,116.9,190.5z M145.7,116.1c0.2,0.2,0.7,0.8,1.2,0.9
		c0.9,0.2,1.9-1.7,1.8-3.3c0-0.4-0.5-1.1-0.8-1.1C146.9,112.2,145.6,114.1,145.7,116.1z M175.7,76.3c1.7,0.4,3.2,0.8,4.6,1.1
		c0.1-0.1,0.1-0.2,0.2-0.3c-1.2-1-2.3-2.1-3.5-3.2C176.6,74.7,176.2,75.4,175.7,76.3z M48.2,121.3c0.1-0.1,0.2-0.3,0.3-0.4
		c-0.3-0.3-0.6-0.7-0.9-0.8c-1.5-0.1-3,0-4.5,0c0,0.1,0,0.1,0,0.2C44.8,120.6,46.5,121,48.2,121.3z M165.9,123c0,0.2,0,0.4,0,0.6
		c1.2-0.1,2.5-0.2,3.7-0.3c0,0,0-0.1,0-0.1C168.4,123.1,167.2,123,165.9,123z"/>
	<path d="M89.3,102.6c0.1,0.4,0.3,0.8,0.4,1.1c-0.2,0.1-0.3,0.1-0.5,0.2c-0.2-0.4-0.3-0.8-0.5-1.2C88.9,102.7,89.1,102.6,89.3,102.6
		z"/>
	<path d="M163.2,91.6c0.1-0.4,0.2-0.7,0.3-1.1c0.1,0,0.3,0.1,0.4,0.1c-0.1,0.4-0.1,0.8-0.2,1.1C163.6,91.8,163.4,91.7,163.2,91.6z"
		/>
	<path d="M161.4,106.3c-0.1,0.3-0.2,0.5-0.3,0.8c0,0-0.4-0.1-0.4-0.1c0-0.3,0.1-0.6,0.2-0.9C161.1,106.2,161.3,106.2,161.4,106.3z"
		/>
	<path d="M91.6,116.3c-0.3,0.1-0.5,0.3-0.7,0.3c-0.1,0-0.3-0.4-0.2-0.4c0.1-0.2,0.3-0.3,0.5-0.4C91.2,115.7,91.4,116,91.6,116.3z"/>
	<path d="M90.5,129.9c0-0.4,0-0.7,0.1-1.1c0.2,0,0.3,0,0.5,0c0,0.4,0,0.7,0,1.1C90.9,129.9,90.7,129.9,90.5,129.9z"/>
	<path d="M91.6,89.1c-0.4,0.1-0.6,0.2-0.7,0.2c-0.1,0-0.3-0.2-0.3-0.3c0-0.1,0.2-0.4,0.3-0.4C90.9,88.6,91.1,88.8,91.6,89.1z"/>
	<path d="M84.5,115.6c0-0.4,0-0.9,0-1.3c0.2,0,0.6,0,0.6,0.1c0,0.4,0,0.8,0,1.2C85,115.6,84.7,115.6,84.5,115.6z"/>
	<path d="M82.1,99.4c0.1,0.3,0.2,0.7,0.2,1c-0.2,0-0.5,0.1-0.5,0.1c-0.1-0.3-0.2-0.6-0.3-0.9C81.7,99.5,81.9,99.4,82.1,99.4z"/>
	<path d="M48.9,92.3c0.2,0.3,0.4,0.5,0.4,0.6c0,0.2-0.2,0.4-0.3,0.5c-0.2-0.2-0.4-0.3-0.5-0.5C48.5,92.8,48.7,92.5,48.9,92.3z"/>
	<path d="M85.2,128.7c0-0.4,0-0.8,0-1.1c0.1,0,0.3,0,0.4,0c0,0.4,0.1,0.8,0.1,1.1C85.6,128.7,85.4,128.7,85.2,128.7z"/>
	<path d="M52.7,113.8c0.1,0.3,0.2,0.5,0.3,0.8c-0.2,0.1-0.3,0.1-0.5,0.2c-0.1-0.3-0.2-0.5-0.2-0.8C52.5,113.9,52.6,113.8,52.7,113.8
		z"/>
	<path d="M171.2,73.2c-0.2,0.3-0.4,0.6-0.6,0.9c-0.1-0.1-0.4-0.3-0.4-0.3c0.1-0.3,0.3-0.6,0.5-0.9C170.9,72.9,171.1,73.1,171.2,73.2
		z"/>
	<path d="M150.4,49.5c-0.1,0.3-0.1,0.5-0.2,0.8c-0.2-0.2-0.3-0.4-0.4-0.6c0-0.1,0.1-0.2,0.2-0.3C150.1,49.5,150.2,49.5,150.4,49.5z"
		/>
</g>
<g>
	<g>
		<path d="M137,80.3c0,0,5,1.2,12.5,3.2c3.7,1,8.1,2.1,12.8,3.3c4.7,1.2,9.6,2.6,14.6,3.9c5,1.3,9.9,2.7,14.6,4
			c4.7,1.3,9,2.5,12.7,3.5c3.7,1,6.8,1.9,9,2.5c2.2,0.6,3.2,1.8,3.2,1.8s-1.5,0.5-3.6-0.1c-2.2-0.6-5.3-1.5-9-2.5
			c-3.7-1-8-2.3-12.7-3.6c-4.6-1.3-9.6-2.7-14.5-4.1c-4.9-1.4-9.9-2.9-14.5-4.2c-4.6-1.3-9-2.6-12.6-3.7
			C141.9,81.8,137,80.3,137,80.3z"/>
	</g>
	<g>
		<path d="M141,76c0,0,5.2,0.5,13.1,1.4c3.9,0.4,8.5,1,13.4,1.6c4.9,0.6,10.1,1.2,15.4,1.8c5.2,0.6,10.5,1.3,15.4,1.9
			c4.9,0.6,9.5,1.2,13.4,1.7c2,0.3,3.8,0.5,5.4,0.7c1.6,0.2,3,0.4,4.1,0.6c2.3,0.5,3.5,1.2,3.5,1.2s-1.4,0.4-3.7,0.3
			c-1.2,0-2.5-0.2-4.1-0.5c-1.6-0.2-3.4-0.5-5.3-0.7c-3.9-0.5-8.5-1.1-13.4-1.8c-4.9-0.7-10.1-1.3-15.3-2.1
			c-5.2-0.7-10.4-1.5-15.3-2.2c-4.9-0.7-9.5-1.4-13.4-2C146.2,76.9,141,76,141,76L141,76z"/>
	</g>
	<g>
		<path d="M132,90.2c0,0,1,0.6,2.8,1.5c1.8,1,4.3,2.4,7.3,4.1c1.5,0.8,3.1,1.8,4.9,2.7c1.7,1,3.5,2,5.4,3.1
			c3.7,2.2,7.7,4.5,11.7,6.8c8,4.6,15.9,9.3,21.8,12.9c1.5,0.9,2.8,1.7,4,2.4c1.2,0.7,2.2,1.4,3,2.1c1.6,1.3,2.3,2.3,2.3,2.3
			s-1.2-0.2-3.1-1c-0.9-0.4-2-0.9-3.2-1.6c-1.2-0.7-2.6-1.5-4-2.4c-5.9-3.6-13.8-8.3-21.6-13.1c-3.9-2.4-7.8-4.9-11.5-7.1
			c-1.8-1.1-3.6-2.2-5.3-3.3c-1.7-1.1-3.2-2.1-4.7-3c-2.9-1.9-5.3-3.4-7-4.5C133,90.8,132,90.2,132,90.2z"/>
	</g>
	<g>
		<path d="M148.1,90.2c0,0,0.5,0.1,1.3,0.4c0.8,0.3,2,0.6,3.5,1.1c2.9,0.9,6.7,2.2,10.5,3.5c3.8,1.3,7.6,2.7,10.4,3.7
			c0.7,0.3,1.4,0.5,1.9,0.7c0.6,0.2,1,0.5,1.4,0.8c0.7,0.5,1.1,1,1.1,1s-0.6,0.1-1.5,0c-0.5,0-1-0.1-1.6-0.3
			c-0.6-0.2-1.2-0.4-1.9-0.7c-2.8-1-6.6-2.5-10.3-3.9c-3.7-1.5-7.5-3-10.3-4.2c-1.4-0.6-2.5-1.1-3.4-1.4
			C148.6,90.4,148.1,90.2,148.1,90.2z"/>
	</g>
	<g>
		<path d="M134,76c0,0,5,0.8,12.5,2.1c3.8,0.6,8.1,1.4,12.8,2.2c4.7,0.8,9.7,1.7,14.7,2.6c5,0.9,10,1.8,14.7,2.7
			c4.7,0.9,9,1.7,12.8,2.4c1.9,0.3,3.6,0.7,5.1,0.9c1.5,0.3,2.9,0.5,3.9,0.8c2.1,0.6,3.3,1.5,3.3,1.5s-1.4,0.4-3.6,0.2
			c-1.1-0.1-2.4-0.4-3.9-0.7c-1.5-0.3-3.2-0.6-5.1-1c-3.7-0.7-8.1-1.6-12.8-2.5c-4.7-0.9-9.7-1.8-14.6-2.9c-5-1-9.9-2-14.6-3
			c-4.7-0.9-9-1.8-12.7-2.6C139,77.1,134,76,134,76z"/>
	</g>
	<g>
		<path d="M130.2,95c0,0,4.8,3,12,7.6c3.6,2.3,7.8,4.9,12.2,7.8c4.5,2.9,9.2,5.9,14,9c9.5,6.2,19,12.4,26.1,17
			c1.8,1.2,3.4,2.2,4.8,3.2c1.4,1,2.6,1.9,3.6,2.6c2,1.5,3,2.5,3,2.5s-1.3-0.6-3.5-1.8c-1.1-0.6-2.4-1.4-3.9-2.3
			c-1.5-0.9-3.1-2-4.9-3.1c-7.1-4.7-16.5-10.9-26-17.2c-4.7-3.1-9.4-6.3-13.8-9.2c-4.4-2.9-8.5-5.7-12-8.1
			C134.9,98.2,130.2,95,130.2,95z"/>
	</g>
</g>
</svg>
