<?xml version="1.0" encoding="utf-8"?>
<!-- Generator: Adobe Illustrator 17.1.0, SVG Export Plug-In . SVG Version: 6.00 Build 0)  -->
<!DOCTYPE svg PUBLIC "-//W3C//DTD SVG 1.1//EN" "http://www.w3.org/Graphics/SVG/1.1/DTD/svg11.dtd">
<svg version="1.1" id="Layer_1" xmlns="http://www.w3.org/2000/svg" xmlns:xlink="http://www.w3.org/1999/xlink" x="0px" y="0px"
	 viewBox="0 0 288 216" enable-background="new 0 0 288 216" xml:space="preserve">
<g>
	<path d="M142.7,178c-1.1-1.1-1-3.3-3.1-3.5c-0.2,0-0.4-0.6-0.5-0.9c-0.2-0.6-0.3-1.2-0.6-1.8c-0.4-1.1-1.1-1.9-2.4-1.3
		c-0.9,0.4-1.3,0-1.5-0.9c-0.7-2.9-1.4-3.2-3.9-1.8c-0.1,0-0.2,0-0.3-0.1c-0.7-3.1-1.2-3.4-4.3-2.5c-1.4-3.4-1.6-3.5-4.4-2.3
		c-1.7-3.3-1.7-3.3-4.5-2.7c-1.3-3.2-2.6-6.4-3.9-9.5c-0.9-2.2-1.7-2.5-3.7-1.1c-0.3,0.2-0.6,0.4-0.8,0.7
		c-4.9,4.6-8.1,10.2-9.8,16.7c-0.2,0.7-0.2,1.5-0.1,2.3c0.1,1,0.7,1.6,1.8,1.4c1.6-0.2,3.2-0.6,4.8-0.8c0.1-0.2,0.2-0.4,0.3-0.6
		c-1,0.1-2,0.3-3.1,0.4c5-5.2,8.5-10.9,10.5-17.8c1.2,2.9,2.4,5.5,3.3,8.1c1.1,3.4-2.1,8-5.6,8.5c0.1,0.2,0.3,0.4,0.3,0.6
		c0.5,0.1,1.1,0.3,1.6,0.7c0.1,0.1,0.6-0.1,0.9-0.2c1.3-0.6,2-0.2,2.3,1.2c0.1,0.6,0.3,1.2,0.5,2c0.8-0.2,1.4-0.3,2-0.6
		c1.2-0.6,1.8-0.3,1.9,1.1c0,0.4,0.1,0.7,0.2,0.9c0.3,0.2,0.6,0.4,0.8,0.7c0.4,0.1,0.9,0,1.5-0.3c0.4-0.2,0.7-0.2,0.9-0.2
		c0.2-0.2,0.4-0.4,0.8-0.4c0.3,0,0.6,0.1,0.7,0.4c0.2,0,0.3,0.1,0.5,0.1c0.1-0.1,0.2-0.2,0.3-0.3c1.6-1.5,2.4-3.3,2.1-5.5
		c-0.1-0.9-0.6-1.8-1-3c0.6-0.8,1.6-0.8,2,0.3c0.8,2,0.2,7-2,9.5c0,0.1,0.1,0.2,0.1,0.2c0.4-0.5,0.9-0.8,1.6-1
		c0.1-0.1,0.3-0.2,0.5-0.2c0.6-1.9,1.1-3.7,1.7-5.5c1.3,0.8,1.6,3.5,0.4,5.5c-0.1,0.2-0.2,0.4-0.4,0.6c0.2,0.1,0.4,0.2,0.5,0.4
		c1-1.3,1.3-2.9,1.1-4.5c-0.1-0.9-0.6-1.8-1-2.8c1.1-0.9,1.7-0.7,2.1,0.8c0.5,1.8,0.2,4.9-1.2,7.4c0.3-0.3,0.7-0.5,1.2-0.7
		c0.1-0.3,0.3-0.5,0.6-0.6c0.3-1.2,0.7-2.3,1-3.5c1.4,0.6,1.7,2.1,0.9,4.4c0.2,0.1,0.4,0.3,0.5,0.4c0.3-0.7,0.5-1.5,0.4-2.3
		c0-1-0.3-2-0.6-3.5c0.6,0.5,1.2,0.8,1.5,1.2c0.7,1.3,0.5,3.6-0.3,5.4c0.2-0.1,0.4-0.1,0.6-0.1c0.3-0.7,0.5-1.4,0.8-2.2
		c0.8,0.4,1,0.9,1.1,1.4c0.1,0,0.2,0.1,0.3,0.2c0.1,0.1,0.1,0.1,0.2,0.2c0,0,0.1,0,0.1,0c0.1-0.2,0.2-0.5,0.2-0.7
		c0.1,0.3,0.2,0.7,0.2,1c0.5,0.5,1.1,1,1.5,1.6c0.2,0.2,0.4,0.3,0.6,0.6C143.1,178.8,143,178.3,142.7,178z M100.7,169.8
		c-0.8,0.4-1.4-0.2-1.4-1.1c0.1-1,0.1-2.1,0.5-3c0.9-2.4,1.9-4.8,2.9-7.2c0.2,0.1,0.4,0.1,0.5,0.2c0.6,1.4-0.1,2.7-0.8,3.7
		c-1,1.4-0.7,2.5,0.5,3.6c0.5-0.7,0.9-1.4,1.5-1.9c0.5-0.4,1.2-0.6,2-0.7C105.1,166.2,103.3,168.4,100.7,169.8z M106.4,162.6
		c-1.1,0.8-2.4,1.3-3.8,2c0-0.3,0-0.9,0.2-1.4c0.7-1.5,1.5-2.9,1.2-4.7c-0.1-0.5,0.5-1.3,1-1.7c1-0.8,2.2-1.4,3.5-2.2
		c0,0.3,0.1,0.8-0.1,1.1c-0.8,1.6-1.4,3.1-1,5C107.5,161.3,106.9,162.3,106.4,162.6z M112.4,151.2c-0.5,3.5-1.9,6.7-4,9.9
		c-0.9-1.9-0.4-3.4,0.5-4.6c1-1.5,0.3-2.2-0.7-3c-2.3,2.8-2.3,2.8-3.7,2.2c1.9-2,3.7-3.9,5.7-5.7c0.4-0.4,1.3-0.5,1.8-0.3
		C112.2,149.7,112.4,150.7,112.4,151.2z M115.3,169c0.9-2.4,1.8-4.6,2.6-6.8c1,0.6,1.1,3.3-0.2,5.1
		C117.1,168.1,116.7,169.7,115.3,169z M116.8,171.7c-0.6-0.9-0.7-1.7,0.1-2.5c1.4-1.3,2.4-2.9,2.2-4.9c-0.1-1.1-0.6-2.2-0.9-3.5
		c1.1-0.9,1.5-0.8,2,0.9C121.3,164.9,119.1,170.5,116.8,171.7z M119.7,171.2c0.8-2.3,1.5-4.6,2.3-7c1.3,0.7,1.4,3.1,0.3,5.4
		C121.4,171.2,120.6,171.7,119.7,171.2z M121.2,174.2c-0.7-1.1-0.5-1.9,0.4-2.7c1.6-1.5,2.3-3.3,2-5.4c-0.1-0.9-0.6-1.8-1-2.8
		c1.1-0.9,1.6-0.8,2.1,0.8C125.6,167.1,123.8,173,121.2,174.2z M126.8,171.9c-1,2-1.6,2.4-2.8,1.8c0.5-1.2,1.1-2.3,1.5-3.5
		c0.4-1.1,0.5-2.4,0.7-3.6C127.7,167.2,128,169.5,126.8,171.9z"/>
</g>
<g>
	<g id="XMLID_16_">
		<g>
			<path d="M145.7,184.4c1.1-1.1,0.8-3-0.5-4.5C145.4,181.2,145.6,182.7,145.7,184.4z M108.2,180.9c0.4-0.6,0.5-1.6,0.2-2.1
				c-1.1-1.6-1.1-3.2-1-5c0-0.4-0.3-0.8-0.3-1c-0.9,1.3-1.8,2.3-2.4,3.4c-0.3,0.6-0.5,1.5-0.3,2c1,1.5,0.7,3.1,0.7,4.8
				c0,0.5,0.2,1,0.3,1.3C106.5,183,107.5,182,108.2,180.9z M105.8,189.7c1.8-2.3,2.6-5.1,2.9-8.1c-0.7,0.3-1.3,0.8-1.6,1.4
				c-0.3,0.7-0.4,1.6-0.6,2.4c-1.5-0.6-2.3-1.4-1.8-3.1c0.3-1.2,0.4-2.7-0.7-3.7c-0.2,0-0.4,0-0.6,0c0,2.6,0,5.2,0.1,7.7
				c0,1,0.4,2,0.7,3C104.4,190.1,105.2,190.4,105.8,189.7z M109.4,178.7c0.7-3.8,0.7-7.2-0.2-10.7c-0.1-0.5-0.7-1.3-1-1.3
				c-0.5,0-1.3,0.5-1.5,0.9c-1.1,2.4-2,4.9-3,7.5c1.5,0.1,1.5,0.1,2.5-3.4c1.2,0.4,2.2,0.7,1.8,2.5
				C107.8,175.7,107.8,177.3,109.4,178.7z M142.1,185.5c1.3-2.1,0.7-6.8-1.2-8.3c-0.4-0.4-1.1-0.4-1.8-0.6c0.8,1.3,1.5,2.1,1.9,3
				c0.8,1.8,0.6,3.6-0.1,5.4c-0.1,0.3,0.1,0.8,0.2,1.1C141.4,185.9,141.9,185.8,142.1,185.5z M143.3,183.9c1.2-0.1,1.8-0.4,1.7-1.6
				c-0.1-1.3-0.2-2.6-1.9-2.7C143.2,181.1,143.3,182.5,143.3,183.9z M135.7,182.1c0.4-2.3-0.9-4.7-2.5-4.9c0.3,2.4,0.5,4.9,0.8,7.4
				C135.1,184.8,135.3,184.6,135.7,182.1z M136.5,186.8c2.1-3.5,0.8-8.6-0.8-10.8c-1-1.3-1.6-1.2-2.3,0.1c0.7,0.8,1.6,1.4,2,2.2
				c1,1.8,1.3,3.8,0.3,5.8C135.2,185.4,135.5,186.1,136.5,186.8z M138.3,178c0.3,2.3,0.5,4.6,0.8,7c1.4-0.1,1.8-0.8,1.7-3.1
				C140.7,179.3,139.8,178,138.3,178z M130.6,181.4c0.2-2.7-0.9-4.6-2.6-4.6c0.3,1.2,0.6,2.4,0.7,3.6c0.1,1.3,0,2.5,0,3.8
				C130,184.3,130.5,183.6,130.6,181.4z M130.4,177.9c1.1,1.9,1,3.9,0.2,5.9c-0.4,1-0.3,1.8,0.7,2.4c2.5-2.9,0.7-9.3-1-11.1
				c-0.9-0.9-1.7-0.5-2,0.5C129.2,176.5,130,177.1,130.4,177.9z M114.4,184.6c3-1.9,4.2-7.4,1.9-10.1c-1.8-2.1-3.9-4-6.2-6.2
				c0.9,7.2-0.1,13.7-2.7,20.5C110,187.2,112.2,185.9,114.4,184.6z M120.4,180.8c0.5-2.2-0.6-4.6-1.8-4.8c0.1,2.3,0.2,4.7,0.3,7.3
				C120.4,183.4,120.2,181.7,120.4,180.8z M121.3,185.2c1.7-2,1.5-8-0.7-10.6c-1.1-1.3-1.5-1.3-2.2,0c0.8,1,1.7,1.9,2.2,2.9
				c0.9,1.8,0.6,3.6-0.2,5.3C120,183.9,120.4,184.6,121.3,185.2z M125.6,175.1c-1.1-1.3-1.6-1.2-2.3,0.1c0.7,0.8,1.5,1.4,2,2.2
				c1.1,1.8,1.1,3.8,0.2,5.8c-0.5,1.1-0.4,2,0.7,2.7C128.3,183.7,127.6,177.5,125.6,175.1z M123.8,183.6c1,0.1,1.6-0.7,1.7-2.5
				c0.2-2.5-0.9-4.7-2.3-4.9C123.4,178.8,123.6,181.2,123.8,183.6z M127.8,185.6c-1.1,1.2-2.1,1.2-2.8-0.3c-0.7-1.3-1.3-1.3-2.2-0.3
				c-0.4,0.4-0.9,0.8-1.6,1.3c-0.5-0.6-0.9-1.1-1.3-1.6c-0.8-1.2-1.5-1.2-2.5-0.2c-0.2,0.2-0.5,0.6-0.7,0.6
				c-2.6-0.8-3.9,1.6-5.8,2.4c-1.8,0.8-3.4,2-5,3c-1,0.6-1.7,0.3-2.2-0.6c-0.3-0.7-0.7-1.4-0.8-2.1c-0.9-6.6-0.1-13,2.6-19.2
				c0.1-0.3,0.3-0.6,0.5-0.9c1.3-2,2.2-2.1,3.8-0.4c2.4,2.4,4.9,4.9,7.3,7.3c2.4-1.7,2.4-1.7,5.2,0.7c2.2-2.2,2.3-2.2,4.9,0.4
				c2.5-2,3.1-1.9,4.9,0.7c0.1,0,0.2,0,0.3,0c1.8-2.2,2.6-2.2,4.3,0.2c0.6,0.8,1.1,1,1.7,0.2c1-1.1,1.9-0.6,2.8,0.2
				c0.4,0.4,0.8,1,1.2,1.4c0.2,0.3,0.6,0.7,0.8,0.6c2-0.6,2.8,1.5,4.3,2c0.7,0.3,1.2,1.4,1.8,2.2c-0.7,0.2-1.5,0.2-2,0.6
				c-0.5,0.3-0.8,1-1.2,1.5c-0.2-0.1-0.4-0.1-0.6-0.3c-1.4-0.9-2.1-0.8-3,0.6c-1,1.5-1.2,1.6-2.6,0.5c-1-0.8-1.5-0.1-2.1,0.5
				c-1.3,1.3-1.9,1.4-2.8-0.1c-0.8-1.3-1.4-1.3-2.4-0.2c-1.1,1.2-1.9,1.1-2.7-0.4C129.4,184.6,128.8,184.6,127.8,185.6z"/>
		</g>
		<g>
		</g>
	</g>
</g>
<g>
	<path d="M84.8,18.2c0.7,0.5,1.4,1.1,2.3,1.8c-1.7,1.4-3.3,2.7-5.4,4.5c4.9,0,9.2-0.2,13.5,0c7.8,0.5,15.3,2.1,22.4,5.5
		c2.8,1.4,5.2,3.3,7.9,5.4c-1.4,1.5-3.1,1.2-4.7,1.8c3.8,1.1,7.6,2.1,11.3,3.3c4.5,1.5,8.9,3.5,12.7,6.3c3.6,2.6,6.7,5.7,8.3,10.6
		c-7.9-1.9-15.5-3.5-24.1-3.5c2.3,1.4,4,2.2,5.6,3.3c1.6,1.1,3,2.5,4.4,4.5c-7.6-0.4-14.2-2.4-21.5-4.3c2.7,5.7,5.3,11.1,7.8,16.2
		c6.4,0.5,6.7,0.7,7.2,4.9c2.2,0.8,2.9,2.6,2.6,5c-0.1,0.6,0,1.4,0.3,2c1,2.7,0.8,4-1.3,5.7c-0.6,0.5-1.3,1-2,1.5
		c0.3,1.5,0.6,3,1,4.4c1.4,4.5,0,8.2-3,11.5c-3.8,4-8.3,7.1-13.2,9.6c-3.2,1.6-6.5,3-9.9,4.2c-1.9,0.7-4.1,1.2-6.1,1.1
		c-3.6-0.2-6.9,0.6-10.2,1.4c-3.8,1-7.5,2.1-11.4,3.1c-0.3,6.2,0.1,12.3,1.1,18.4c-0.8,0.5-1.5,1-2.4,1.6c2.3,4.4,3.7,9,3.3,14.1
		c1.3,0.3,2.6,0.6,3.7,1c2.2,0.7,2.5,1.4,2.7,3.9c0.2,2.1-0.2,3.8-2.3,4.5c-6.7,2.1-13.1,5.1-20.3,5.8c-5.2,0.6-10.4,0.9-15.5-0.1
		c-1.5-0.3-2.9-0.8-4.3-1.3c-1.8-0.8-2.2-1.8-1.6-3.6c0.2-0.8,0.4-1.7,0.9-2.2c2.1-2.1,2.3-5,3.5-7.4c1.1-2.1,1.4-4.4,1.2-6.8
		c-0.2-2.7-0.9-3.6-3.5-4.5c-0.9-0.3-1.7-0.6-2.9-1c0.2-1.4,0.3-2.9,0.6-4.6c-1.2-0.8-2.4-2-2.1-4c0.1-0.8-0.7-1.7-1.1-2.5
		c-1-2.2-0.8-2.9,1.3-4.2c0.4-0.2,0.8-0.4,1.2-0.6c-0.2-3.5,0.7-3,5.1-3.5c3-7.5,4.4-15.9,8.7-23.2c-1.9-1.7-4-3.4-5.8-5.3
		c-1.9-1.9-3.6-3.9-5.3-6c-1-1.2-1.9-1.8-3.5-1.6C40,95.1,38,95.1,36,95c-6.7-0.2-12.3-6.1-11.9-12.8c0.2-4.5,3.4-7.5,7.8-7.7
		c2.9-0.1,5.5,0.6,8.1,1.8c1.3,0.6,2.5,1.2,3.7,1.8c5.4-5.8,5.5-21.3,1.2-29.5c-2.6,0.4-4.8,2.5-8,2.4c0.7-3.7,2.6-6.4,5.1-9.5
		c-4.8-0.9-8.4,2.2-12.8,2.5c0.8-6.3,4.6-9.8,9.8-11.7c3.5-1.3,7.4-1.7,11.2-2.6c-2.9-2.1-6.4-2.2-9.9-2.5
		c3.6-4.9,12.6-5.9,21.4-0.2c1.6-1.3,3.2-2.6,4.9-3.8c3.2-2.4,6.9-3.6,10.6-4.9C79.7,18.2,82.2,18.2,84.8,18.2z M116.8,115.9
		c4-1.7,7.5-4.1,10.7-7c2.8-2.5,4.5-5.8,3.9-9.6c-0.5-3.1-1.4-6-2.3-9c-0.1-0.5-0.6-1.3-1-1.3c-2.5-0.3-3.3-2.2-4-4.2
		c-0.3-0.8-1-1.7-0.9-2.4c0.1-0.9,1-1.6,1.6-2.6c-1.4-0.2-2.8-0.6-3-2.3c0.7-0.9,1.4-1.8,2-2.7c-2.8-5.6-5.5-11.1-8.3-16.6
		c-0.3-0.6-1.1-1.2-1.8-1.3c-3-0.7-6-1.3-9.7-2.1c2.2,2.5,4,4.5,6,6.8c-3.6,0.5-6.6-0.3-9.6-0.9c-10.1-2.1-19.8-5.6-29.2-9.9
		c-0.2-0.1-0.6,0.1-0.9,0.1c0.5,1,0.9,1.9,1.6,3.4c-6.1-0.9-10.8-3.5-15.7-6.9c0.9,6.6,1.1,12.6-0.3,18.6
		c-1.5,6.1-4.3,11.4-7.9,16.4c0,1.3,1.5,2.6-0.3,3.9c-0.5-0.8-1-1.4-1.4-2.1c-3.4-5.3-8.1-7.8-14.4-7.2c-3.4,0.3-5.5,2.5-5.8,5.8
		c-0.3,4.7,2.1,8.4,6.5,10c3.6,1.2,7.3,1.4,11,0.7c1-0.2,2-0.3,3.3-0.5c-0.5,0.8-0.8,1.2-1.1,1.6c3.8,5.5,8.7,9.6,14.2,13.2
		c7.3,4.9,15.2,8.3,23.6,10.7c4.1,1.2,8.2,2.3,12.5,1.6c2.7-4.7,2.7-4.7,4.6-5.6c-0.5,2.6-2.9,4.5-2.6,7.3
		C102.2,122.5,110.3,120,116.8,115.9L116.8,115.9z M99.9,51.7c2.4,0.6,4.2,1,5.9,1.4c1.8,0.4,3.6,0.9,5.4,1.3
		c1.8,0.4,3.6,0.8,5.4,1.1c1.8,0.4,3.6,0.7,5.4,1.1c1.8,0.4,3.6,1.1,5.4,1.2c1.7,0.1,3.3,1.4,5.1,0.6c-2.4-2.3-5.9-2.8-8.4-5.5
		c8.3-2.1,16.1-0.3,24,1.2c-0.3-1.4-1-2.5-2-3.2c-1.9-1.5-3.9-3-6-4.1c-7.5-4-15.7-6.1-23.9-8.2c-1.1-0.3-2-0.5-3.6-1.6
		c3.4-0.6,6.1-1.1,9.3-1.7c-2.2-1.2-3.8-2.2-5.6-3c-5.8-2.8-11.9-4.2-18.3-5c-8.7-1-17.3-1.1-26,0c-0.6,0.1-1.1-0.1-1.7-0.2
		c2.1-1.3,4.3-1.9,6.3-2.8c2-0.9,4.1-1.9,6-3.8c-8.5-0.4-15.1,3.1-20.6,8.8c-5.6-3.2-11.2-5-17.5-3.8c8.2,3.1,8.2,3.1,8.6,5.8
		c-0.8,0.1-1.6,0.2-2.4,0.3c-4.8,0.5-9.3,1.7-13.6,3.8c-2.6,1.3-4.6,3.1-5.6,6.4c4.5-2.2,8.7-3.4,13.7-2.3c-2.7,3.2-5.1,6.1-6.9,10
		c2.8-1.1,5.1-1.9,7.9-3c5.3,11.4,5.1,22.3-1.2,33c0.6,0.4,0.9,0.6,1.3,0.9c3.1-4.3,5.3-8.9,6.7-13.8c2.2-7.8,2.1-15.7,0-24.2
		c5.1,3.5,9.7,6.6,15.2,9.3c-1-1.9-1.8-3.3-2.6-4.9c0.8,0.1,1.2,0.1,1.5,0.2c4.8,1.8,9.5,3.7,14.3,5.4c6.3,2.2,12.7,4.3,19,6.5
		c1.2,0.4,2.4,0.7,3.6,0.2C102.7,56.7,101.5,54.4,99.9,51.7z M77.5,118.5c-6.5-3.1-12.9-6.2-19.4-9.3c-3.6,7-6,14.6-8.1,22.3
		c-0.3,1,0,1.8,1.2,2.4c0.7-2.2,1.3-4.4,2.1-6.6c0.7-2.1,1.4-4.2,2.2-6.2c1.3-3.5,1.7-4.2,3.6-5.7c-1.4,4.4-3.5,8.4-4,12.9
		c1.5,0,2.7,0,4,0c1.4-3.7,1.8-7.7,4.4-10.9c0.2,0.3,0.4,0.4,0.4,0.5c-2.5,7.2-3.4,14.8-4.7,22.3c-0.7,4.1-2.8,6.2-6.9,6.4
		c-2.1,0.1-4.2,0-6.3,0c-0.2,0-0.4,0.2-0.8,0.4c0,0.7,0,1.4,0,2.1c5.3,2.8,26.6,0,33.1-3.9C76.9,137.2,76.5,123.3,77.5,118.5z
		 M50.2,152.6c2.5,5.1,0.6,9.8-1.9,14.8c2,0.3,3.6,0.7,5.1,0.7c4.4,0.1,8.7-0.9,12.9-2c3-0.8,3.6-1.8,3.3-5.5
		c-1.9,0.7-3.7,1.4-5.6,2.1c-0.1-0.1-0.1-0.3-0.2-0.4c1-0.7,2.1-1.3,3.2-2.1c-2.5,0.3-4.9,0.5-7.3,0.8c0.9-0.9,2-1.2,3.1-1.5
		c1.2-0.3,2.4-0.5,3.5-0.8c0.4-5.3,0.4-5.5-0.7-7.5C60.6,151.6,55.6,152.1,50.2,152.6z M44.1,133.1c0.3,0.7,0.5,1.6,0.9,2.1
		c1,1.1,2.2,2,3.3,3c0.3,0.3,0.5,0.8,0.7,1.1c-1.5-0.4-2.5-1.4-3.6-2.1c-1.1-0.7-2.3-1.6-3.8-0.6c-0.6,1.8,0.3,2.9,1.8,3.6
		c1,0.5,2.2,0.6,3.3,0.9c0.8,0.2,1.5,0.6,2.3,0.9c-0.1,0.2-0.1,0.4-0.2,0.7c-1-0.2-1.9-0.5-2.9-0.7c-1-0.2-2-0.6-3,0.3
		c0.1,0.3,0.1,0.8,0.4,0.9c3.2,2.3,7.7,2.8,11.2,0.9c1.6-0.9,2.9-2.2,3.1-4.3c0.2-3.1,0.7-6.1,1.2-9.6c-1.7-0.1-3.1-0.2-4.3-0.2
		c-1.8,2.7-1,5.8-2.6,7.9c-1.1-1.4-1.9-2.7-3.1-3.8C47.6,133.1,46.3,132.1,44.1,133.1z M79.2,162.8c0.4-5-0.3-9.8-3.3-14
		c-1.3,0.3-2.4,0.6-3.8,1c0.5,2.6-0.3,5.2,0.9,7.7c1.4-0.2,2.6-0.3,3.8-0.5c-0.4,0.7-0.9,1.1-1.5,1.4c-0.7,0.3-1.4,0.5-2.5,0.9
		c2.2,0.5,3.8,0.9,5.8,1.4c-2.5,1.2-4.6-0.1-6.8,0c0,1.2,0,2.1,0,3.1C74.3,164.2,76.8,165.6,79.2,162.8z M79.4,171.4
		c-0.7-0.2-0.9-0.3-1.1-0.3c-4.6,1.6-9.3,2.4-14.2,2.9c-6.3,0.7-12.5,1.6-18.8-0.6c0.6,0.7,1.2,1.5,1.9,1.7c2.2,0.6,4.5,1.3,6.7,1.4
		c5.7,0.5,11.3-0.2,16.8-1.5C73.6,174.3,76.5,173.5,79.4,171.4z M88.3,124c-0.4-1.2-0.8-2.2-1.1-3c-2.8-0.5-5.2-0.9-7.9-1.4
		c0,2.2,0,4.3,0,6.6C82.4,125.5,85.2,124.8,88.3,124z M58.6,170c-3.3-0.4-6.5-0.7-9.7-1c-1.5-0.2-2.3,0.5-3,1.7
		c2.2,2.1,4.7,2.3,7.4,2.5C56,173.3,57.9,172.7,58.6,170z M71.8,171.1c2.7-0.3,5.1-0.5,6.8-2.8c-2.6-2.8-4.7-3.2-7.5-1.8
		C71.3,167.9,71.5,169.3,71.8,171.1z M133.3,83.8c0.2-2.7,0-3.3-1-3.5c-2.4-0.3-4.8,0-7,1.1c-0.8,0.4-0.8,1.6,0,1.9
		c0.6,0.3,1.3,0.4,2,0.4C129.2,83.8,131.2,83.8,133.3,83.8z M85.9,165.6c-2.5-2.1-4.8-1.5-7.3-0.3c0.8,1.2,1.6,2.4,2.5,3.6
		C82.9,167.9,85.2,168.2,85.9,165.6z M131.9,88.1c-0.3,0.8-1.8,1.3-0.3,2.6c0.6-0.5,1.4-1,2-1.7c1.1-1.3,0.9-2.3-0.6-3.1
		c-2-1-4.1-1.1-6.3-0.2C127.8,88.3,130.6,86.4,131.9,88.1z M130.4,78.8c0.7-1.4,0.7-2.6-0.7-3.1c-2.1-0.6-4.2-0.8-6,1.2
		C126.5,78.4,128,78.9,130.4,78.8z M68.2,150.2c-0.2,2.5-0.2,4.6,0.5,6.7c0.4,1.1,1.1,0.9,1.8,0.5C70.9,151.1,70.8,150.7,68.2,150.2
		z M68.5,167.3c-1.1,1.6-2.1,3.1-3.3,5c2,0,3.7,0.1,4.5-1.6C70.4,169.5,70.2,168.2,68.5,167.3z M95.8,121.9
		c-2.2-0.2-4.4-0.8-6.7-0.1C90.4,124.1,90.8,124.2,95.8,121.9z M61.8,172.5c2.1,0.3,3.1-0.9,3.7-4.7C64,169.5,62.9,170.9,61.8,172.5
		z M62.5,169.5c-2.3,0-2.5,1.7-3,3.4C60.5,171.8,61.5,170.7,62.5,169.5z M81.3,170.8c1.8,0.2,3.4-0.1,5.1-2.2
		C84.2,169.6,82.8,170.2,81.3,170.8z"/>
	<path d="M95.4,91.4c-1.3,3.2-3.1,5.9-5.6,8c-4.6,3.8-12.4,3.3-16-1.1c-0.4-0.4-0.5-1.1-0.5-1.9c2.4,2.8,5.4,3.8,8.8,3.8
		c2,0,3.7-0.8,5.4-1.7c-0.3-0.4-0.5-0.6-0.6-0.7c-8.5-1.1-13.4-6.3-15.8-14.1c-1.6-5.3-1.9-10.8-0.3-16.1c1.9-6.4,7-8.9,13.3-6.9
		c5.4,1.7,9.1,5.4,11.8,10.2c0.6,1,1,2,1.8,3.5c3.4-5.4,7.4-9,14.5-7.9c-1.9-1.2-3.1-2-5-3.3c4,0.4,5.2,1,7.7,3
		c-0.7,0.2-1.2,0.3-1.7,0.4c2.4,2,3.4,4.7,4.1,7.6c1.1,4.8,0.8,9.5-0.5,14.1c-1.8,6.4-6.9,9.1-13.5,7.8
		C100,95.5,97.7,93.7,95.4,91.4z M93.7,90.8c0.5-1.9,1.2-3.4,1.4-5c0.3-2.3,0.2-4.6,0.2-6.9c0.1-7.4-4.7-14.4-13.2-16.5
		c-3.9-1-6.8,0.6-8.3,4.4c-0.2,0.4-0.3,0.9-0.4,1.3c-1.8,5.7-1.6,11.4,0.4,17c1.9,5.3,5.6,9,10.9,10.9c2,0.7,4.2,1.1,6.3-0.6
		c-3.8-1-4.8-1.8-4.8-4.1c0-1.4,0.9-2.8,2.1-3.3C90.2,87.4,91.7,88.1,93.7,90.8z M105.1,94.3c4.7,0.5,7.4-1.5,8.8-5.5
		c1.6-4.4,2.3-9,2-13.6c-0.1-1.7-0.8-3.4-1.5-5c-1-2.3-4-3.2-7-2.4c-3.2,0.9-5.2,3.4-7.2,5.8c-0.9,1.1-1.9,2.5-2.2,3.9
		c-0.8,3.9-1.3,7.9-2,12.1c0.2,0.2,0.6,0.7,1,1.1c0.4,0.4,0.8,0.7,1.3,1.2c0.3-4,1.3-5.7,3.5-6.1c1.9-0.3,3.8,0.5,4.8,2.1
		C107.8,89.7,107.3,92.2,105.1,94.3z M90,90.6c-0.8-0.5-1.4-1.1-1.8-1c-0.4,0.1-0.9,0.9-1,1.4c0,0.2,0.8,0.9,1.2,0.9
		C88.8,91.8,89.2,91.2,90,90.6z M101.3,88.2c-1.1,0.4-1.4,1.1-1,1.9c0.2,0.3,1,0.5,1.4,0.4c0.3,0,0.6-0.5,1.1-0.9
		C102.2,89.1,101.8,88.6,101.3,88.2z"/>
	<path d="M117,105.3c1.4-0.7,2.9-1.3,4.3-2c2.3-1,4-2.6,4.8-5.2c0.5-1.7,0.1-3.2-1-4c-1.4-1-3.1-1-4.5,0.3c-2.2,2-4.2,4.3-6.3,6.5
		c-0.1-0.3-0.3-0.6-0.2-0.9c1.2-3.4,3.4-6,6.6-7.7c2-1.1,4.2-0.8,5.8,0.7c1.6,1.5,1.9,3.3,1.4,5.4
		C126.6,103.1,121.1,106.4,117,105.3z"/>
	<path d="M43.9,89.5c-1.6-1.9-3-1.9-4.6-2.1c-2.7-0.2-5.1-1.5-6.2-4.3c-1.4,0.1-2.7,0.3-4.3,0.4C34.9,78.5,43.5,82.3,43.9,89.5z
		 M35.4,82.7c1.5,2.7,1.5,2.7,3.2,3.4c0.6,0.2,1.4,0.2,2.8,0.3C39.5,84.1,38.2,82.3,35.4,82.7z"/>
	<path d="M116.9,115.9c-4.4-2.3-8.2-0.9-11.9,2c0.3,0.3,0.5,0.5,0.8,0.6c0.3,0.2,0.6,0.2,1.8,0.5c-1.8,0.5-2.9,0.7-3.9,1
		c-1.3-1.1-0.8-2.1-0.2-2.9c1.3-1.9,3.4-2.8,5.5-3.3c2-0.5,4.1-0.7,6.2-1c0.4-1.6-1.6-2.7-0.9-4.6c1.8,1.7,2.4,3.8,2.9,5.8
		C117.4,114.6,117,115.3,116.9,115.9L116.9,115.9z"/>
	<path d="M71.7,59.4c3-1.1,5.4-1.9,8-2.8C77.8,59.3,74.9,60.5,71.7,59.4z"/>
</g>
<g>
	<path d="M148.7,162.5c0.2,1.2-0.6,1.9-1.6,2c-1.4,0.2-2.9,0-4.3-0.1c-0.5,0-1-0.1-1.5-0.2c-1.5-0.5-1.9-3-0.6-4.4
		c0.8-0.9,0.9-1.8,0.9-2.8c-0.1-1.3,0.2-2.5,1.2-3.5c0.2-0.2,0.3-0.5,0.4-0.8c0.6-2.3,1.2-4.6,1.8-6.9c0.1-0.4-0.1-0.8-0.2-1.2
		c-0.1-0.4-0.4-0.8-0.5-1.2c-0.2-1.8-0.4-3.5-0.5-5.3c-0.2-2.5-0.4-5.1-0.5-7.6c0-0.9,0.3-1.9,0.8-2.7c0.5-0.9,1.3-1.6,2-2.3
		c2.8-2.9,5.7-5.9,8.5-8.8c0.6-0.6,1-1.4,1.7-1.9c0.6-0.5,1.4-0.9,2.1-1c2.9-0.1,5.9,0,8.8-0.1c2.3,0,4.6,0.1,6.9,0.8
		c3.2,1,6.5,2.1,8.8,4.9c2.5,3,5.2,6,7.7,9.1c0.6,0.7,0.8,1.8,0.9,2.8c0.1,2-0.1,4-0.2,6c0,0.4,0.1,0.9,0.4,1.1
		c2.8,2.1,5.7,4.1,8.7,6.2c0.2,0,0.7-0.3,1.2-0.2c1.5,0.3,2.5-0.3,3.1-1.7c0.2-0.3,0.4-0.7,0.5-1c1.9-4.2,3.7-8.5,5.7-12.7
		c1-2,2.3-3.9,4.2-5.2c0.2-0.1,0.2-0.6,0.3-0.9c0.1-0.3,0.1-0.7,0.2-0.9c0.8-0.9,0.6-1.8,0-2.7c-0.2-0.3-0.2-1,0-1.1
		c2.1-1.1,1.4-3,1.5-4.4c-3.1-0.9-6-1.8-8.9-2.7c-0.9-0.3-1.8-0.7-1.9-1.9c-0.1-2.8-0.2-5.6-0.2-8.4c0-2.9,0.4-3.4,3.2-4.3
		c4.7-1.4,9.6-1.5,14.5-1.5c0.4,0,0.8,0.3,1.2,0.4c-0.2,0.3-0.3,0.6-0.4,0.8c0.8-1.3,2.1-1,3.2-0.9c2.7,0.1,5.3,0.2,8,0.6
		c2.4,0.4,4.7,1.1,7,1.8c1.1,0.3,2.1,1.1,2.1,2.5c0,2.6-0.1,5.1-0.1,7.7c0,3.5-0.3,3.8-3.7,4.7c0,0-0.1,0-0.1,0
		c-2.3,0.3-4.6,0.7-6.8,1c-0.4,0.1-1,0.4-1,0.5c0.1,1.3-0.6,2.7,0.6,3.9c0.3,0.3,0.4,0.9,0.4,1.4c0.1,1.4,0.1,2.8,0.1,4.2
		c0,0.1,0.2,0.2,0.3,0.4c0.8,1.2,1.8,2.4,2.3,3.7c1.7,5.2,3.2,10.4,4.6,15.6c0.4,1.6,0.7,3.2,0.8,4.8c0.1,1.5-0.7,2.5-1.9,2.6
		c-0.1-0.3-0.1-0.7-0.3-0.9c-1.5-1.5-1.5-2.7,0-4.1c0.2-0.2,0.4-0.6,0.3-0.8c-0.9-3.6-1.8-7.2-2.8-10.8c-0.7-2.4-1.7-4.6-2.6-7.2
		c-0.6,1.2-2,2-0.7,3.2c0.7,0.7,0.3,1.1-0.2,1.6c-0.7,0.8-0.9,1.5,0,2.4c0.5,0.5,0.6,1.1,0,1.8c-0.3,0.3-0.4,1.2-0.2,1.5
		c1.1,1.2,0.7,2-0.4,2.9c-0.2,0.1-0.2,0.3-0.4,0.5c0.6,0.6,1.1,1.1,1.4,1.5c-0.2,1-0.7,1.9-0.5,2.5c0.4,1,0.3,1.8,0.1,2.8
		c-0.1,0.5-0.2,1.2,0.1,1.5c1,1.1,0.5,1.9-0.4,2.6c-0.5,0.5-0.7,0.9-0.1,1.5c0.5,0.5,0.9,1.2,0.3,1.8c-1.6,1.8-0.8,3.9-0.9,5.9
		c-0.2,2.9,0.1,5.8-0.1,8.7c-0.2,1.8-1.1,3.5-3.1,4c-0.5,0.1-1.3,0-1.6-0.4c-0.4-0.4-0.6-1.2-0.4-1.7c0.2-0.4,0.8-0.9,1.4-1
		c1.2-0.2,1.9-0.7,2-1.9c0.1-2.8,0.2-5.7,0.3-8.5c0-0.9-0.5-0.9-1.2-0.9c-3.3,0-6.6,0-9.9,0c-0.6,0-1.2,0-2,0c0,3,0.1,5.7,0,8.5
		c-0.1,2.6-1.4,4.7-3.3,5.5c-1.2,0.4-1.8,0.1-2.2-1.1c-0.3-1.1-0.1-1.7,1.2-1.8c1.4-0.1,2.4-0.9,2.5-2.4c0.1-1.3,0.3-2.7,0.3-4
		c0-1.6-0.4-3.3-0.1-4.9c0.3-1.7,0.2-2.9-0.9-4.2c-0.2-0.2-0.1-0.9,0.1-1.1c1.1-0.9,0.8-1.7,0.1-2.6c-0.3-0.3-0.4-1.1-0.2-1.4
		c0.9-0.9,0.5-1.8,0-2.6c-0.3-0.6-0.5-1.1,0.1-1.7c0.3-0.3,0.8-0.9,0.1-1.5c-0.9-0.9-0.8-1.7,0.3-2.4c0.2-0.1,0.3-0.3,0.4-0.5
		c-0.3-0.4-0.4-0.9-0.8-1.1c-0.8-0.7-0.5-1.2,0.1-1.7c0.8-0.6,0.9-1.2,0.2-1.9c-0.8-0.8-0.6-1.6,0.2-2.4c0.2-0.2,0.5-0.5,0.6-0.7
		c-0.3-0.4-0.5-0.9-0.8-1.2c-0.7-0.7-1-1.3-0.1-2c0.8-0.7,0.2-1.4-0.1-2.1c-0.3-0.6-0.4-1.3-0.6-2c-0.3,0.4-1,0.9-1.3,1.5
		c-2.3,4.6-4.6,9.2-6.9,13.8c-1,1.9-2.1,3.6-3.2,5.5c-0.2,0.1-0.2,0.3-0.2,0.6c0,1.6-0.7,2.1-2.2,1.3c-0.4-0.2-0.8-0.6-1.2-0.9
		c-1.2-1.1-2.2-2.4-3.5-3.4c-1.7-1.4-3.6-2.6-5.8-4.2c-0.1,1.6-0.1,2.8-0.2,4c-0.1,1.2,0,2.5-0.6,3.4c-2.3,3.6-4.7,7.1-7.2,10.6
		c-0.3,0.5-1.1,0.7-1.7,0.8c-1.2,0.1-2.4,0-4,0c0,1.9-0.1,3.6,0,5.3c0.2,2.8,0.8,5.4,3.6,6.8c0.9,0.5,1,1.8,0.1,2.1
		c-0.7,0.2-1.5,0.2-2.3,0.1c-0.9-0.2-1.7-0.7-2.9-1.2c0-4.2,0-8.6,0-12.9c-5.5-0.5-10.8,1.1-16-1c0,1,0.1,1.9,0,2.9
		c-0.3,4-0.6,8.1,3.4,10.8c0.6,0.4,1.1,1.1,0.7,1.8c-0.5,0.8-1.3,1.1-2.2,0.7c-1.1-0.5-2.1-1-3.3-1.5c0-1.4,0-2.8,0-4.3
		c0-3.4,0-6.8,0-10.3c0-0.6,0-1-0.7-1.2c-2.8-1-5.2-2.5-6.9-5.1c-1.1-1.7-2.6-3.1-4.2-4.8c-0.5,1.7-0.9,3.2-1.2,4.7
		c-0.3,1,0.5,1.7,0.7,2.5c0.5,1.7,0.8,3.5,1.2,5.5C148.3,159.8,148.4,161.2,148.7,162.5z M165.7,117.7c-0.9,0.1-1.9,0.4-2.5,1
		c-3.9,3.6-7.4,7.6-10.3,12.1c-0.5,0.8-0.8,1.9-0.9,2.8c-0.1,2.9,0,5.9,0,8.8c0,2.7,0.8,5.1,2.7,7.1c1.8,1.8,3.5,3.7,5.3,5.5
		c0.8,0.8,1.5,1.8,2.5,2.1c1.2,0.5,2.6,0.5,3.9,0.5c1.2,0,2.4-0.2,3.7-0.2c1.9,0,3.8,0,5.8,0c1.7,0,3.4-0.1,5.1-0.3
		c0.4,0,0.9-0.4,1.2-0.8c2.1-2.9,4.2-5.7,6.1-8.7c0.7-1.1,1-2.6,1.1-4c0.2-1.6,0-3.3,0.1-5c0.1-1.7,0.2-3.4,0.5-5
		c0.5-2.9-0.8-5.1-2.7-7.1c-2.3-2.6-4.7-5.1-7.1-7.6c-0.5-0.5-1.4-0.8-2.1-0.9c-2.5-0.2-5-0.3-7.5-0.4c0,0,0,0.1,0,0.1
		C169,117.7,167.3,117.6,165.7,117.7z M230.6,102.6c-1.8,0-3.6,0-5.4,0c-1.1,0-2.2-0.1-3.3,0.6c-0.4,0.3-1.5,0.3-1.7,0
		c-0.9-1.5-2.5-1-3.7-1c-3.2-0.2-6.3-0.3-9.5-1.5c0,2.8-0.1,5.4,0.1,8c0,0.5,0.9,1.2,1.5,1.4c2.3,0.7,4.5,1.4,6.9,1.9
		c4,0.8,8.2,1,12.3,0.8c4.8-0.3,9.6-0.3,14.2-2c1.1-0.4,1.6-0.9,1.5-2.1c-0.1-2.5,0-4.9,0-7.5C239.2,102.2,235,102.6,230.6,102.6z
		 M158.5,115.4c-0.6-0.3-1-0.3-1.5,0.2c-3.9,4.1-7.9,8.2-11.8,12.4c-0.2,0.2-0.4,0.6-0.6,0.9c2.1,0.6,4.1,1.1,6.1,1.7
		c0.8,0.3,1.2,0,1.6-0.6c2.6-3.2,5.1-6.3,7.7-9.5c0.9-1.1,1.9-2.1,2.9-3.1C161.5,116.8,160,116.1,158.5,115.4z M234.5,101.7
		c2.6-0.1,5.1-0.8,7.6-1.2c0.4-0.1,1.1-0.5,1.1-0.8c0-0.4-0.4-1-0.8-1.1c-1.5-0.6-3-1.4-4.6-1.6c-3.9-0.5-7.8-0.8-11.5-1.1
		c-1,2.2-1.8,4-2.7,5.9C227.1,101.8,230.8,102,234.5,101.7z M147.9,141.3c-0.1,0.9-0.8,1.9-0.5,2.6c0.3,0.6,1.5,0.9,2.3,1.3
		c0.5,0.2,1,0.4,1.3,0.5c0-3.2,0-6.4,0-9.5c0-1.3,0.2-2.6,0.2-3.9c0-0.3-0.2-0.8-0.5-0.8c-2.1-0.6-4.1-1.2-6.5-1.9
		c0.3,4.7,0.5,9.2,0.8,13.7c0.2,0,0.4,0.1,0.5,0.1c0.6-2.2,1.3-4.4,1.9-6.5c0.2,0.1,0.3,0.1,0.5,0.2
		C148.8,138.5,148,139.9,147.9,141.3z M216.2,96c-1.9,0.1-3.9,0.6-5.8,1c-1.2,0.3-2.5,0.6-2.9,2c1,0.5,1.9,1.3,2.9,1.5
		c2,0.4,4.1,0.6,6.1,0.8c0.1,0,0.3,0,0.4,0c2.7,1.1,4-0.5,5-2.7c0.4-0.9,0.9-1.7,1.4-2.7C220.8,95.9,218.5,95.8,216.2,96z
		 M217.8,116.6c2.4,0.2,4.6,0.5,6.8,0.5c2.2,0,4.5-0.2,7-0.3c0.1-1,0.2-2,0.3-3.3c-4.6,0-9.1,0-13.6,0
		C218.1,114.5,217.9,115.5,217.8,116.6z M146.7,145.5c2.4,2.8,4.7,5.8,7.4,8.3c1.5,1.4,3.8,1.8,5.7,2.7c0.1-0.2,0.2-0.3,0.4-0.5
		c-0.5-0.4-1.2-0.8-1.6-1.3c-2-2.2-4-4.5-6-6.7c-0.6-0.6-1.4-1-2.2-1.5c-1.1-0.6-2.2-1.2-3.5-1.8
		C146.8,145.2,146.6,145.4,146.7,145.5z M216.4,123.1c0.1,0.8,0.3,1.6,1.6,1.6c2.6,0,5.3,0.2,7.9,0.2c1.9,0,3.8-0.1,5.7-0.3
		c0.5-0.1,0.9-0.8,1.4-1.2c-0.1-0.1-0.2-0.2-0.2-0.3C227.4,123.1,221.9,123.1,216.4,123.1z M164.2,116.9c0.6,0.2,1.4-0.2,2.1-0.2
		c2.5,0,5,0,7.6,0c1,0,2,0.2,3,0.2c-2.2-1.2-4.4-2-6.9-2c-3.2,0-6.4-0.2-9.6-0.2c-0.4,0-0.8,0-1.2,0c0,0.1,0,0.2-0.1,0.2
		C160.8,115.5,162.5,116.3,164.2,116.9z M218.3,148c2.9,0,5.8,0.2,8.7,0.2c1.6,0,3.1-0.1,4.7-0.3c0.4-0.1,0.7-0.7,1.1-1.1
		c-0.1-0.1-0.2-0.2-0.3-0.3c-5.3,0-10.6,0-15.9,0C216.5,147.7,217.2,148,218.3,148z M219,128.7c4,0,8.1,0,12.1,0
		c0.6,0,1.2-0.7,1.9-1c-0.1-0.1-0.1-0.2-0.2-0.3c-5.3,0-10.7,0-16.1,0C217.1,128.4,218,128.7,219,128.7z M232.6,125.4
		c-1.9,0-3.6,0-5.4,0c-3-0.1-6-0.1-9-0.3c-0.9,0-1.7,0.1-1.9,1.2c3.1,0.6,15.7,0.6,16.7,0C232.9,125.9,232.7,125.5,232.6,125.4z
		 M217.4,135.3c-0.1,0.1-0.1,0.3-0.2,0.4c0.5,0.3,0.9,0.9,1.4,0.9c2.3,0.2,4.6,0.3,6.9,0.3c2,0,4-0.1,6-0.3c0.6-0.1,1-0.7,1.6-1.1
		c-0.1-0.1-0.2-0.2-0.3-0.3C227.5,135.3,222.4,135.3,217.4,135.3z M146,163.8c0.6-0.3,1.8-0.1,1.6-1.1c-0.2-0.9-0.1-2.2-1.7-2.2
		c-1.2,0-2.4-0.2-3.6-0.1c-1,0.1-1.2,0.9-1.3,1.7c-0.1,0.8,0.4,1.2,1.1,1.3c0.9,0.1,1.8,0.4,2.3,0.5
		C145.2,163.8,145.6,163.9,146,163.8z M233,122.4c-0.1-1.1-0.6-1.4-1.5-1.4c-3.6,0.1-7.2,0.2-10.8,0.3c-0.8,0-1.5-0.2-2.3-0.2
		c-0.9-0.1-1.8-0.2-2,1.3C221.9,122.4,227.4,122.4,233,122.4z M219.3,140.5c3.7,0,7.4,0.1,11.1,0c0.8,0,1.5-0.6,2.2-1
		c-0.1-0.1-0.1-0.3-0.2-0.4c-5.2,0-10.3,0-15.7,0C217.4,140.1,218.2,140.5,219.3,140.5z M220.6,132.8c3,0.1,6,0.1,8.9,0
		c1,0,2.4,0.2,3-1.4c-5.1,0-10.1,0-15.2,0C217.9,133,219.4,132.7,220.6,132.8z M232.2,150c0.3,0,0.5-0.2,1.2-0.5
		c-0.8-0.3-1.3-0.7-1.7-0.7c-2,0-4,0.2-6,0.2c-2.7,0-5.3-0.2-8-0.2c-0.5,0-1,0.4-1.5,0.6c0,0.2,0.1,0.5,0.1,0.7
		C221.6,150,226.9,150,232.2,150z M216.5,142.7c-0.1,0.1-0.1,0.2-0.2,0.3c0.5,0.3,1.1,0.8,1.6,0.9c3.7,0.2,7.4,0.2,11.1,0.3
		c0.9,0,1.9-0.1,2.8-0.3c0.4-0.1,0.7-0.6,1.3-1.1C227.2,142.7,221.9,142.7,216.5,142.7z M232.8,145.7c-0.3-1-0.4-1.5-1.6-1.2
		c-1.3,0.3-2.6,0.1-4,0.1c-3.1-0.1-6.2-0.2-9.3-0.2c-0.6,0-1.1,0.4-1.7,0.7c0.1,0.2,0.1,0.4,0.2,0.6
		C221.9,145.7,227.3,145.7,232.8,145.7z M216.8,150.6c0.1,1.1,0.9,1.2,1.9,1.2c2.5,0,4.9,0.2,7.4,0.2c1.7,0,3.4-0.1,5.1-0.3
		c0.5-0.1,1-0.6,1.5-0.9c0-0.1-0.1-0.1-0.1-0.2C227.3,150.6,222.1,150.6,216.8,150.6z M217.3,154.7c0.5,1.4,1.8,1.4,2.9,1.4
		c3.2,0.1,6.3,0.1,9.5,0c1,0,2.1,0,2.6-1.4C227.2,154.7,222.3,154.7,217.3,154.7z M217.6,120.5c2.8,0.2,5.7,0.3,8.5,0.3
		c2.1,0,4.1-0.2,6.3-0.3c0.1-0.3,0.2-0.6,0.4-1.1c-5.4,0-10.7,0-16,0c-0.1,0.1-0.2,0.2-0.3,0.3C216.8,120,217.2,120.5,217.6,120.5z
		 M232.7,153.9c-0.6-1-1.2-1.6-2.4-1.2c-0.7,0.2-1.4,0.1-2.1,0.1c-3.2-0.1-6.4-0.1-9.7-0.3c-0.9,0-1.5,0.3-2.1,1.4
		C222,153.9,227.3,153.9,232.7,153.9z M231.2,129.5c-3.9,0-7.9,0-11.8-0.1c-1.1,0-2.2-0.7-2.8,1.1c5.5,0,10.9,0,16.2,0
		c0.1-0.2,0.1-0.4,0.2-0.5C232.4,129.8,231.8,129.5,231.2,129.5z M230.6,133.5c-0.9,0.3-2,0.1-3,0.1c-2.9-0.1-5.8-0.2-8.6-0.2
		c-0.6,0-1.2,0.2-1.8,0.4c0,0.2,0,0.3,0,0.5c0.4,0.1,0.8,0.4,1.2,0.4c4.7,0,9.5,0,14.2,0c0.1,0,0.1-0.1,0.3-0.2
		C232.2,133.5,231.7,133.1,230.6,133.5z M225.6,157.9c1.6,0,3.2,0,4.9,0c0.5,0,0.9-0.3,1.3-0.5c0-0.1-0.1-0.2-0.1-0.4
		c-0.1,0-0.2-0.1-0.3-0.1c-4.2-0.1-8.3-0.2-12.5-0.3c-0.9,0-1.2,0.3-1.2,1.3C220.3,157.9,223,157.9,225.6,157.9z M232.6,142
		c0-0.1,0.1-0.2,0.1-0.4c-0.6-0.2-1.2-0.6-1.8-0.6c-1.9,0-3.8,0.2-5.7,0.2c-2.3,0-4.7-0.2-7-0.2c-0.6,0-1.1,0.3-1.7,0.4
		c0,0.2,0,0.4,0.1,0.5C221.9,142,227.2,142,232.6,142z M218.2,138.4c4.8,0,9.6,0,14.4,0c0.1-0.1,0.1-0.2,0.2-0.3
		c-0.3-0.2-0.7-0.7-1-0.7c-4.6-0.1-9.3-0.1-13.9-0.1c-0.4,0-0.7,0.4-1.2,0.7C217.3,138.2,217.7,138.4,218.2,138.4z M232.6,118.6
		c0-0.1,0.1-0.3,0.1-0.4c-0.4-0.2-0.8-0.4-1.2-0.4c-0.5-0.1-1.1,0-1.7,0c-3.8,0-7.6,0-11.4,0c-0.6,0-1.1,0.3-1.7,0.4
		c0.1,0.1,0.1,0.3,0.2,0.4C222.1,118.6,227.4,118.6,232.6,118.6z M145.6,157.9c0-1.6-0.5-2.2-1.6-2.2c-1.2,0-1.5,0.4-1.5,1.8
		c0,1.3,0.6,1.8,1.9,1.8C145.5,159.4,145.6,158.7,145.6,157.9z M224.8,97c-0.7-0.3-1.2-0.1-1.5,0.7c-0.8,1.6-1.7,3.1-2.6,4.7
		C222.1,102.6,223.7,100.4,224.8,97z"/>
	<path d="M192,87.5c4.5,1.7,5.2,7.2,3.3,10.3c-2.3,3.7-5.8,6.3-9.2,9c-0.6,0.5-1.2,0.4-1.8-0.1c-2.4-2-4.7-4-7.1-6.1
		c-2.3-2-3.5-4.4-3.1-7.5c0.3-2,1-3.7,2.8-4.8c2.1-1.3,4.2-1.3,6.3-0.1c0.7,0.4,1.2,1.1,1.9,1.8C187.1,87.7,189.7,86.7,192,87.5z
		 M183.4,89.8c-2.6-2.9-6.9-1.4-8.1,1.9c-1.1,3-0.5,5.6,1.8,7.7c2.5,2.2,5,4.4,7.6,6.5c0.2,0.2,0.8,0.2,1.1,0
		c3.4-2.5,6.7-5.1,8.9-8.7c1.3-2.1,1-4.5-0.3-6.6c-1-1.7-2.6-2.5-4.6-2.3c-1.4,0.1-2.7,0.7-3.5,1.9c-0.3,0.6-0.8,1.1-1.2,1.7
		C184.5,91.1,184,90.4,183.4,89.8z"/>
	<path d="M182.2,144.2c-1,2.3-2.7,4.3-5.2,5c-1.8,0.5-3.8,0.6-5.7,0.6c-5.3,0-9.8-3.1-10.6-9.1c-0.6-4.4,0.2-8.1,3.4-11.3
		c3.8-3.7,9.8-4.2,14.2-1.3c3.7,2.5,4.9,6.2,5.1,11.3C183.1,140.4,182.9,142.4,182.2,144.2z M173,129.8c-2.4-2.4-5.2-2.5-7.7-0.1
		c-4.2,4.1-5,9.6-2,14.8c1.8,3.1,6.8,3.6,9.4,1.1c2.3-2.2,3-5,3.2-7.8C175.8,134.6,175.1,131.9,173,129.8z M176.7,136.3
		c0.3,3.7-0.6,6.9-3.1,9.7c-1.1,1.1-2.6,1.7-5.6,2.1c4.6,0.9,7.9-1.4,9.4-5.6c1.5-4.3,1-8.4-1.5-12.2c-0.9-1.3-2.1-2.2-3.7-2.5
		C174.9,130,176.4,132.7,176.7,136.3z M181,139.6c-0.2,3.5-2.7,8.2-6.9,9.2c-0.5,0.1-1,0.1-1.6,0.2c3.2,0.6,6.7-1.2,8.3-4.2
		c2.4-4.6,2.2-9.1-0.5-13.5c-0.7-1.1-1.8-1.9-2.7-2.8c-0.1,0.1-0.2,0.2-0.3,0.3C180,131.9,181.2,135.5,181,139.6z M176.6,130.3
		c3.2,4.7,3.2,9.6,0.6,14.5c-1,1.8-3.4,3.3-5.9,3.7c1.9,0.4,4.9-0.7,6.2-2.4c4.4-5.5,3.4-13.5-1.9-17.9c-0.1-0.1-0.2-0.1-0.7-0.2
		C175.6,129,176.1,129.7,176.6,130.3z"/>
	<path d="M166.3,151.9c-0.2,1.6,0.2,2.4,1.6,2.7c0.9,0.2,1.9,0.2,2.9,0.2c0.2,0,0.3-0.3,0.5-0.5c-0.2-0.2-0.4-0.4-0.6-0.5
		c-0.2-0.1-0.5,0-0.8,0c-1.2,0.1-2.3,0.1-2.7-1.4C167,152.2,166.6,152.1,166.3,151.9z"/>
	<path d="M187.6,131.8c1,0,1.4-0.5,1.4-1.4c0-1.1-0.8-1.5-1.6-1.4c-0.5,0.1-1.1,0.9-1.1,1.4C186.2,131.2,186.7,131.9,187.6,131.8z"
		/>
	<path d="M156.3,131.1c-1.1,0.2-1.5,0.6-1.5,1.5c0,1,0.6,1.2,1.3,1.3c0.9,0.1,1.3-0.6,1.2-1.2C157.3,132,156.7,131.6,156.3,131.1z"
		/>
	<path d="M225.1,110c-2.2,0.2-4.2,1.8-5.8-0.6c-0.1,0.1-0.2,0.3-0.4,0.4c0.2,0.4,0.3,0.9,0.7,1.2C220.7,111.7,223.7,111.3,225.1,110
		z"/>
	<path d="M238.3,105.1c-0.9-0.2-1.1,0.6-1.1,1.2c0,0.5,0.2,1.3,1.1,1.1c0.7-0.1,1.3-0.1,1.3-1.1
		C239.7,105.4,239.3,105.1,238.3,105.1z"/>
	<path d="M210.3,106.1c0.2-0.4,0.7-0.9,0.6-1.2c-0.1-0.5-0.7-0.8-1.1-1.2c-0.4,0.4-1,0.7-1.1,1.2
		C208.6,105.6,209.2,105.9,210.3,106.1z"/>
</g>
<g>
	<path d="M245.2,174c0.4-2.2,0.5-4.5,1.2-6.4c1.2-3.2,3.6-3.7,6.6-1.9c0.6,0.4,1.7,0.4,2.5,0.1c2.6-0.8,4.2-0.5,5.7,1.7
		c3.5,4.9,5.3,10.4,4.9,16.5c-0.1,2.5-1.1,4.1-3.7,4.6c-1.4,0.2-2.2,0.8-2.8,2.3c-0.9,2.5-4.6,2.8-6.8,0.8c-0.8-0.7-1.4-1.6-2-2.5
		c-0.6-0.8-1.1-1.7-1.6-2.7c-1.1,3.3-1.2,3.3-5.9,1.7c-1.3,3.2-1.3,3.2-6,1.9c-1.2,2.9-0.5,4.3-6.1,1.9c-0.1,0.4-0.2,0.8-0.3,1.2
		c-0.5,1.8-1.8,2.6-3.4,1.6c-1.8-1.1-3.5-0.9-5.3-0.2c-1.7,0.7-3.6,1.2-5.4,1.6c-0.8,0.2-1.7,0.2-2.5,0.1c-1.9-0.5-3.8-1.2-6-1.9
		c1.3-2.7,2.5-5.2,3.8-7.7c0.2-0.3,0.8-0.6,1.2-0.7c1.3-0.4,2.6-0.9,4-1.2c1.2-0.3,2.1-0.8,2.4-2.2c0.4-1.5,1.3-1.7,2.8-0.8
		c2.1,1.2,2.3,1.1,3.2-1c0.6-1.5,1.6-1.8,3-0.8c1.8,1.2,2.4,1,3.1-0.9c0.6-1.7,1.4-2,3-1c2,1.2,2.2,1.2,3-0.9
		c0.7-1.9,1.6-2.1,3.2-0.9c1.5,1.1,2.4,0.8,3.1-1C244.3,174.8,244.9,174.4,245.2,174z M263,185.3c1.8-4.5-1.7-15.7-5.2-16.9
		C256.3,172.9,259.4,183.1,263,185.3z M259.3,189.6c-0.6,0.2-1.2,0.4-1.7,0.4c-0.5,0-1.2-0.1-1.5-0.4c-3.3-4.7-6.2-9.5-6.6-15.6
		c-0.2-3.2-0.8-6.1,3.2-7.4c-2.1-2-3.7-1.7-4.5,0.7c-0.3,0.8-0.5,1.8-0.5,2.7c-0.2,6.7,1.5,12.9,5.1,18.5c0.8,1.2,1.9,2.2,3,3
		C257.6,192.7,258.8,192,259.3,189.6z M209.3,193.5c0.6,0.2,0.7,0.3,0.9,0.3c1.7-0.2,3.3-0.5,5-0.8c4-0.7,4.6-1.5,3.5-5.6
		c-0.2-0.6-0.4-1.2-0.7-2.1c-1.8,0.6-4.1,0.7-5.2,1.9C211.3,188.9,210.5,191.3,209.3,193.5z M251.2,179.9c4.8-0.9,5.1-1.2,4.5-5.7
		c0-0.2-0.1-0.5-0.1-0.7c-0.7-5.7-0.1-5.2-5.5-3.3c-0.1,0-0.2,0.2-0.4,0.3C250.2,173.5,250.7,176.6,251.2,179.9z M251.8,181.1
		c0,0.3,0,0.6,0.1,0.8c1.4,2.2,2.8,4.5,4.2,6.7c0.2,0.3,0.8,0.4,1.2,0.3c0.9-0.2,1.7-0.5,2.6-0.8c1-0.3,1.2-0.9,0.6-1.8
		c-1-1.5-1.8-3.2-2.9-4.6c-0.5-0.6-1.6-1-2.4-1.1C254.1,180.6,253,180.9,251.8,181.1z M211.1,194.3c4.9,3.3,8.8-0.4,13.1-0.9
		c-1.1-1.6-2.1-2.8-2.9-4.2c-0.8-1.3-1.3-2.8-1.9-4.2c-0.1,1.7,0.3,3.3,0.4,4.9c0.2,2.6-0.5,3.3-3,3.7
		C215,193.8,213.2,194,211.1,194.3z M248.2,186.7c-0.9-0.2-1.7-0.3-2.4-0.7c-3-1.5-4.3-4.1-4.3-7.3c0-1.6-0.8-2.2-2.2-2.3
		c-0.7,4.2,2.7,10.4,6.5,12C247.3,189.1,248,188.6,248.2,186.7z M242.1,188.7c-0.8-0.3-1.7-0.4-2.5-0.8c-2.8-1.4-4-3.9-4.1-6.9
		c-0.1-1.6-0.7-2.3-2.2-2.6c-0.1,0.3-0.3,0.6-0.3,0.9c-0.4,3.5,3.6,9.9,6.9,11.1C241.3,190.9,241.9,190.5,242.1,188.7z M236.2,190.8
		c-1.4-0.6-2.6-1-3.6-1.6c-2.2-1.5-3.2-3.8-3.3-6.4c0-1.6-0.8-2.2-2.2-2.5c-0.1,0.4-0.2,0.7-0.2,1c0,0.4,0,0.8,0.1,1.3
		c0.6,4.2,3.2,7.2,6.5,9.6c0.4,0.3,1.4,0.4,1.8,0.1C235.9,191.9,236.1,191.1,236.2,190.8z M221.1,182.1c-0.1,0.4-0.2,0.9-0.2,1.3
		c0.5,4.6,2.8,8.1,6.7,10.5c0.5,0.3,1.5,0.4,1.9,0.1c0.4-0.2,0.5-1.1,0.6-1.3c-1.4-0.6-2.6-0.9-3.5-1.5c-2.1-1.6-3.3-3.8-3.4-6.5
		C223.3,183.3,222.8,182.4,221.1,182.1z M230.3,191.5c-1.1-1.4-2-2.4-2.6-3.5c-0.7-1.2-1.1-2.5-1.7-3.8c-0.2-0.4-0.7-0.7-1.1-1
		c-0.3,0.4-0.8,0.9-0.8,1.3c-0.2,2.6,1.9,6,4.3,7C228.8,191.8,229.4,191.5,230.3,191.5z M235.8,189.6c-1.4-2.6-2.6-5-3.8-7.3
		c-0.2-0.4-0.7-0.7-1.1-1.1c-0.3,0.5-0.8,1-0.8,1.5c0.1,2.9,1.5,5.2,4.1,6.6C234.6,189.7,235.3,189.6,235.8,189.6z M241.6,187.7
		c-1.3-2.6-2.5-5-3.7-7.4c-0.2-0.4-0.6-0.6-1-0.9c-0.3,0.4-0.8,0.8-0.8,1.2c-0.3,2.4,1.7,6,4,7C240.6,187.8,241.3,187.7,241.6,187.7
		z M247.2,167.7c-3.1,4.7,2,21.9,7.3,24.2C248.7,184.8,246.4,176.8,247.2,167.7z M243.3,177.4c-1.5,0.5-1.7,2.2-0.6,4.7
		c1.1,2.5,3.5,4.2,4.8,3.4c-0.9-1.2-1.9-2.3-2.6-3.6C244.2,180.5,243.9,179,243.3,177.4z M261.7,188.1c2.8-0.6,2.9-0.7,3.5-3
		c-1.7,1.5-2.7,1.5-4.1-0.4c-1.1-1.5-1.8-3.2-2.6-4.9c-0.6-1.3-1-2.7-1.3-3.8c-0.6,1.3-1.2,2.7-1.8,3.9
		C257.6,180,261.4,184.7,261.7,188.1z M264.3,184.6c1.8-4.5-2.1-16-5.6-17C263,172.5,264.3,178.2,264.3,184.6z M245.7,175.1
		c-1,2.5,0.2,6.7,2,8C247,180.5,246.3,177.8,245.7,175.1z M255,167.6c0.6,2.1,1.1,4,1.7,5.9c0.1-2.6-0.8-5.3,1.6-7.4
		C257,166.6,255.8,167.2,255,167.6z"/>
</g>
</svg>
