<?xml version="1.0" encoding="utf-8"?>
<!-- Generator: Adobe Illustrator 17.1.0, SVG Export Plug-In . SVG Version: 6.00 Build 0)  -->
<!DOCTYPE svg PUBLIC "-//W3C//DTD SVG 1.1//EN" "http://www.w3.org/Graphics/SVG/1.1/DTD/svg11.dtd">
<svg version="1.1" id="Layer_1" xmlns="http://www.w3.org/2000/svg" xmlns:xlink="http://www.w3.org/1999/xlink" x="0px" y="0px"
	 viewBox="0 0 288 216" enable-background="new 0 0 288 216" xml:space="preserve">
<g>
	<path d="M60.7,211.1c-2.3-3-5.8-4.4-8.9-6.3c-1.4-0.9-3-1.6-4.1-3.1c0.6-0.2,1.1-0.4,1.5-0.5c2-0.4,3.4-1.6,4.2-3.5
		c1-2.4,2.7-3.6,5.2-4c2.2-0.4,2.2-0.5,3.3-1.6c-4.1,0-7.4,2.4-11.4,2.5c-0.6-2.1,0-3.8,1.6-4.9c1.4-1,3-1.8,4.6-2.6
		c2.5-1.4,5.3-2.2,7.2-4.5c0-2.7-1.1-5-2.7-7c-2.3-2.9-3.8-6.1-3.9-9.8c-0.1-2.4-0.1-4.8,0-7.2c0.1-2.3,1.4-4,3-5.5
		c0.6-0.5,1.2-1.1,1.7-1.6c0.5-2.5,1-4.9,1.3-7.3c0.4-2.9,0.8-5.7,0.4-8.7c-0.6-4.7,0.1-9.2,2.7-13.3c1.2-1.9,2.4-3.9,4-6.3
		c-0.2-0.9-0.5-2.3-1-3.6c-0.6-1.5-1.4-2.8-2.3-4.2c-0.3-0.5-0.9-1-1.4-1.4c-5-2.8-9.5-6.4-13.4-10.6c-2.9-3.1-5.3-6.6-7.5-10.3
		c-3.1-5.2-5-10.8-6.1-16.7c-0.7-3.8-1.1-7.6-0.9-11.5c0.6-8,2.4-15.6,6.4-22.6c2.3-4.1,5-7.9,8.3-11.3c3.1-3.2,6.4-6.2,10.1-8.7
		c5.9-3.9,12.2-6.8,19.1-8.5c3.6-0.9,7.3-1.6,11.2-1.6c1.9,0,3.8-0.4,5.7-0.3c7.9,0.3,15.7,1.7,23.1,4.7c6,2.5,11.5,5.8,16.4,10
		c4.8,4.1,8.9,8.9,12,14.4c2.3,4.2,4.3,8.5,5.3,13.1c0.7,2.9,1,5.8,1.4,8.8c0.2,1.5,0.4,3,0.4,4.5c-0.3,9.5-2.6,18.3-7.6,26.5
		c-2.7,4.5-5.9,8.7-9.8,12.2c-2.6,2.4-5.6,4.3-8.4,6.5c-0.4,0.3-0.9,0.7-1.2,1.1c-1.3,2.7-3.5,4.4-5.8,6.2c-1.3,1-2.4,2.2-3.6,3.3
		c-1.2,1-2.4,2.2-3.7,2.9c-3.2,1.6-5.5,4-7.4,6.8c-0.6,0.9-1.4,1.7-2.1,2.5c-1.2,1.4-2.4,2.7-3.4,4.2c-2.1,3-4.4,5.7-7.4,7.1
		c-0.3,2.3-0.5,4.2-0.8,6.3c1.4,0,2.9,0,4.3,0c1.8,0.1,3.5,0.2,5.3,0.4c2.2,0.3,3.8,2.5,4,5.2c0.1,3.3-0.6,6.4-1.8,9.6
		c0.4,1.4,0.9,3.1,1.4,4.7c0.5,1.6,1.4,3.1,1,5.1c-0.3,0.3-0.7,0.8-1.1,1.2c-0.4,0.5-0.7,1-1,1.5c0.5,0.6,1,1.1,1.4,1.6
		c0.3,1.3,0,2.5-0.6,3.7c-0.3,0.6-0.5,1.4-0.3,2.1c0.3,1.5,0.8,2.9,1.3,4.5c0.8-0.3,1.4-0.5,2.1-0.8c0.1-0.9,0.2-1.7,0.3-2.8
		c2.3,0.2,4.5,0.1,6.6,0.6c4,0.9,8,2.1,12.1,3.2c-0.4,0.1-0.6,0.2-0.8,0.2c-1.9,0-3.4,1-4.6,2.4c-2.3,2.7-3.3,3-6.6,2
		c-0.2-0.1-0.4-0.2-0.7-0.3c-2.5,1.6-5.1,3.1-8.3,2.6c-1.7,1.5-3.5,1.8-5.6,1.4c-2-0.4-4.1-0.4-6.1-0.6c-0.1,0.2-0.2,0.3-0.3,0.5
		c0.8,0.8,1.6,1.7,2.5,2.4c2.8,2.2,6.2,3.3,9.5,4.4c2.3,0.8,2.7,1.5,2.6,4.1c-1.7,0.8-3.4,1.6-5.2,2.4c0-0.1-0.1-0.2-0.1-0.3
		c-0.4,0.3-0.7,0.6-1.2,1c-0.5-0.1-1.1-0.2-1.9-0.3c-1.4,1-2.8,0.7-4.5,0c-4.1-1.5-8.3-2.8-12.4-4.1c-0.1,0-0.3,0-0.4,0
		c-3.6-1.4-5-2.4-3-6.8c0.6-1.3,1.2-2.5,1.8-3.7c0.1-0.3,0.1-0.6,0.2-1c-2.9-1.1-5.9-0.8-8.8-1.4c-1.1,2.7,1.3,4.9,0.7,7.7
		c-0.6,0.5-1.3,1.2-2.2,1.7c-2.4,1.4-2.4,1.4-2.5,4.3c-1.3,1.7-3.4,2.5-5.5,3.2c-2.3,0.9-4.2,2.3-6,4
		C61.2,211.1,60.9,211.1,60.7,211.1z M85.7,178.9c0.1,0.1,0.1,0.1,0.2,0.2c0.4,1.2,0.8,0.4,1.1,0.1c0.3-2.1,0.5-4.1,0.8-6.1
		c-1.2,1.8-3.1,3.2-3,5.7C85.2,178.8,85.4,178.9,85.7,178.9z M105.4,173c1.6-0.2,2.5-1.3,3.7-2.6c-0.9-2.3-1.8-4.7-2.8-7.3
		c-3,5.1-6.1,10-7.8,15.8c1.6-0.6,3.1-1.1,4.6-1.7c1.7-0.7,3.3-0.9,4.5,1.1c0.5-1.4,0.2-2.4-0.6-3.2c-0.6-0.6-1.2-1.2-1.8-1.9
		C105.3,173.1,105.3,173,105.4,173z M106.9,114.7c1.7,0.1,2.5-1.4,4.2-2.2c-1.5-0.3-2.6-0.5-3.7-0.7c0-0.1,0-0.2,0-0.3
		c1.2,0.1,2.4,0.1,3.7,0.2c0-0.1,0.1-0.2,0.1-0.3c-0.6-0.2-1.2-0.5-1.7-0.7c-0.1,0.1-0.2,0.1-0.2,0.2c-0.5-0.9-1-1.9-1.5-2.8
		c-0.3,0.4-0.7,0.9-1.3,1.6c-1.4-2.4-0.4-4.8-0.9-6.9c-0.5,0.3-1,0.6-1.4,0.8c-1.5-0.4-0.7-1.9-1.6-2.5c-1,1-2,2.2-3.7,1.6
		c-0.2-0.4-0.4-0.8-0.6-1.2c-0.9,0.7-1.9,1.4-2.8,2.1c-0.2-0.1-0.3-0.2-0.5-0.3c-0.3,1.3-0.6,2.7-0.9,4c-0.2,0.6-0.3,1.3-0.7,1.8
		c-1.7,2.3-1.6,4.6-0.2,6.8c2.2-0.4,4.3-0.9,6.4-1.3c1.4,1.9,3.2,1.7,5.4,1.4c-0.6,0.7-0.9,1-1.3,1.5c0.3,0.5,0.6,1.1,1,1.7
		c1.9-0.7,1.9-2.5,2.8-3.7c-0.3-0.3-0.5-0.5-0.7-0.6C106.7,114.8,106.8,114.8,106.9,114.7z M92.4,117.4c-0.1-0.5-0.1-1.1-0.4-1.6
		c-1.1-1.5-0.9-3.1-0.4-4.7c0.7-2.4,1.6-4.8,2.2-7.3c0.3-1.1,0.8-2,1.8-2.6c0.2,0.3,0.4,0.5,0.5,0.6c1-1,1.8-2,2.9-3.1
		c0.2,1.3,0.3,2.1,0.5,3.4c1.4-1.1,2.5-2,3.8-3c0.2,1.2,0.4,2.2,0.6,3.2c0.1,0,0.2,0,0.4,0.1c0.4-0.6,0.7-1.1,1.3-2
		c0.1,0.4,0.2,0.6,0.3,0.7c1.1,1.7,0.8,3.6,0.6,5.5c0,0.4,0.1,0.8,0.1,1.2c0.1,0,0.2,0,0.3,0c0.3-0.9,0.5-1.8,0.9-3
		c0.7,1.9,1.2,3.4,1.9,5.4c0.5-1.2,0.7-1.9,1.1-2.8c0.6,1.8,1.1,3.4,1.7,5.1c0.6-0.4,1-0.6,1.3-0.7c0.2,0.2,0.4,0.4,0.5,0.6
		c0.1-1.8,0.3-3.6,0.2-5.4c-0.2-2.9-1.1-5.6-3.4-7.7c-3.8-3.4-8.1-4.9-13.3-3.8c-3.6,0.7-7.9,4.5-8.1,7.8c0.5,0.3,1.1,0.7,1.7,1.1
		c0.3,1.9,0.1,3.6-1,5.3c-1,1.6-1.8,3.4-1.9,5.4c0.4,0.2,0.7,0.4,0.9,0.6c-0.3,1.1-0.6,2-0.9,3.1c0.6,0.2,1.1,0.4,1.5,0.5
		c-0.2,1.3-0.3,2.6-0.5,4c0.9-0.1,1.5-0.2,2.1-0.3c-0.1,2.1-1.5,4.1,0.3,6c1.3,0.2,2-0.6,2.8-1.3c0.7-0.7,1.6-1.2,2.5-2
		c-0.2,1.1-0.3,1.9-0.4,2.9c3.3-1.2,4.6-4.1,6.7-6.3c0.3,0.4,0.5,0.7,0.8,1.2c0.5-1.2,0.9-2.2,1.3-3.2c-0.1-0.1-0.3-0.2-0.4-0.3
		c-0.5,0.4-0.9,0.7-1.4,1.1c0-3.3-2.5-4.2-5.5-5.2C96.6,116.1,94.5,116.7,92.4,117.4z M71.1,150.3c-0.1-0.1-0.1-0.1-0.2-0.2
		c0-0.3-0.1-0.6-0.1-0.9c-1.1,0-2.2,0-3.1,0c-0.6,0.6-1.1,1.1-1.7,1.5c-1.2,0.8-2.4,1.7-3.6,2.4c-1.6,1-3.1,2.1-3.7,3.9
		c-0.8,2.7-0.6,5.4-0.3,8.2c0.3,3.2,1.9,5.8,3.6,8.5c3.2,4.9,4.1,10.2,2.5,15.9c-0.4,1.4-0.8,2.8-1.1,4.2c1.7,0,3.3,0,5.2,0
		c-2.5,1.1-4.8,1.2-7.1,1.1c-3.2-0.1-5.7,1.1-6.9,4.2c-0.5,1.3-1.3,2.1-2.6,2.7c-0.3,0.1-0.5,0.4-0.8,0.6c3.7,2,7.7,3.2,10.4,6
		c3.1-1.5,6-2.9,8.9-4.4c0.9-0.5,1.4-1.3,1.3-2.4c-0.1-0.7,0-1.3,0-1.9c1.3-1.8,4.2-1.6,4.7-4.1c-0.3-0.9-0.7-1.8-0.9-2.6
		c-0.3-1.3-0.6-2.7-0.5-3.9c0.3-1.8,1-3.5,1.6-5.2c0.9-2.6,1.4-5.1-0.4-7.6c-0.9-1.1-1.4-2.5-2-3.9c-1.1-2.6-1.8-5.3-1.5-8.2
		c0.4-3.5,1.5-6.8,3.3-9.8c2-3.3,4.4-6.2,8.7-6.4c0.1,0,0.1-0.2,0.2-0.4c-3-1.4-6-2.7-9.2-0.6C74.2,148.2,72.7,149.3,71.1,150.3z
		 M89.4,169c0.1-0.6,0.2-1.3,0.3-2c-2.6,0.5-5.3,0.6-7.8,2.1c1.4,1.6,2.6,3,4,4.6c0.6-0.9,1-1.6,1.4-2.2c0.5-0.6,1.1-1.2,1.7-1.8
		c0,0.4,0,0.7-0.1,1.1c-0.3,1.6-0.8,3.2-0.9,4.8c-0.2,3.7-0.2,7.4-0.4,11.2c-0.1,1.5-0.2,3-0.6,4.5c-0.6,2.2-1.4,4.4-2.1,6.6
		c-0.5,1.5-0.4,2.7,0.7,3c2.8,1,5.6,1.9,8.4,2.7c2.2,0.6,4.5,0.9,6.3,2.5c0.3,0.2,0.6,0.3,0.9,0.4c0.5-0.2,0.9-0.3,1.3-0.5
		c0-0.2,0-0.5,0-0.7c0.1-0.1,0.1-0.1,0.2-0.2c0.6,0.4,1.2,0.8,1.9,1.3c0.4-0.6,0.7-1,1-1.5c-0.1-0.1-0.2-0.2-0.3-0.3
		c-0.4,0.1-0.8,0.2-1.2,0.3c0-0.6,0.1-1.1,0.2-2c1.1,0.8,2,1.4,2.9,2.1c0.1-0.2,0.3-0.5,0.5-0.8c-0.7-0.6-1.4-1.2-2.2-1.9
		c1.9-0.3,2.7,0.8,3.2,2.3c0.3-0.4,0.5-0.8,0.7-1.1c0.1-0.1,0.1-0.1,0.2-0.2c0.3,0.1,0.5,0.3,1,0.5c0.1-0.7,0.2-1.1,0.3-1.7
		c-0.5,0.1-0.9,0.2-1.3,0.2c0-0.4,0-0.7,0-1.1c-5.3-0.3-9.5-2.8-13.5-6.6c-0.2-0.6-0.9-1.5-1-2.5c-0.5-3.4-0.3-6.9,0.9-10.2
		c1.1-3,2.3-5.9,3.6-8.7c2-4.3,4.2-8.4,6.1-12.7c0.9-2.1,1.6-4.3,2.2-6.5c0.7-2.7-0.8-5-3.5-5.9c-1.1-0.3-2.3-0.6-3.4-0.6
		c-1.8,0-3.5,0.3-5.3,0.3c-4.1-0.1-8,0.8-11.8,1.9c-1,0.3-2,0.6-2.9,1.1c-4.2,2.6-5.5,7-6.9,11.5c4,0.4,7.8-0.8,11.8,0
		c-4.1,1.5-8.1,0.8-12,1.1c-0.7,2.5-0.5,4.8,0.4,7c1.7,0.3,3.1-0.5,4.4-1c2.6-1,5.1-2.3,7.9-2.5c2.1-0.2,3.5-1.4,4.8-2.8
		c1.2-1.2,2.4-2.2,3.9-2.9c0.3-0.2,0.7-0.1,1.2-0.2c-0.1,0.3-0.2,0.5-0.3,0.5c-0.3,0.2-0.6,0.5-0.8,0.7c-2.2,1.6-4.2,3.3-5.3,5.9
		C90.2,168.4,89.8,168.7,89.4,169z M105.9,123.9c0.1,0.1,0.1,0.1,0.2,0.2c-0.2,1.3-0.4,2.6-0.6,4c0.2-0.2,0.4-0.2,0.6-0.4
		c1.4-1.9,2.8-3.8,4.2-5.7c0.3-0.4,0.6-1,1-1.3c5.4-3.1,9.7-7.5,14.6-11.1c0.6-0.5,1.1-1.2,1.8-2c-4.4,1.8-8.4,3.4-12.6,5.2
		c-0.1,0.2-0.3,0.5-0.6,1.1c-1.2-1.7-2.4,0-3.4-0.4c-3,2-4.5,4.8-5.4,8c-0.5,1.6-1.4,2.6-2.9,2.8c-2.1,1.8-3.6,4.1-6.3,5
		c-0.4-0.5-0.7-0.9-1-1.2c-1.4,0.6-2.5,1.8-4.4,1.5c-0.3-0.7-0.8-1.5-1-2.3c-0.2-0.9,0-1.8,0-2.7c-0.1,0.1-0.2,0.2-0.4,0.2
		c-0.5-0.6-1.1-1.2-1.5-1.6c0.2-1.1,0.3-1.9,0.4-2.6c-0.4-0.4-0.8-0.7-1.2-1.1c0.1-2.3,0.3-4.7,0.4-7.1c-1.9,0.9-0.2,3-1.1,4.2
		c-0.3-1.2-0.4-2.4-0.9-3.4c-0.6-1.2-1.6-2.3-2.5-3.3c-0.6-0.7-1.3-1.4-2.1-1.7c-1.7-0.7-2.3-2-2.5-3.7c-0.3-1.7-0.7-3.4-1.9-4.8
		c-1.1-1.3-2-2.9-2.9-4.3c0.8-1.9,1.7-3.6,2.2-5.4c1.3-5,2.5-10,3.7-15c0.4-1.8,0.7-3.6,2.1-5.2c1.2-1.3,2-3,1.6-4.9
		c-0.6-2.6-0.3-4.9,0.8-7.3c0.2-0.5,0.5-1,0.6-1.5c0.1-0.4-0.2-0.8-0.4-1.5c-0.5,0.7-0.8,1-1.1,1.4c-0.1-0.1-0.1-0.1-0.2-0.2
		c-0.1-1.1-0.3-2.2-0.5-3.6c-2.2,1.5-2.3,3.6-3.1,5.3c-0.1-0.7-0.1-1.5,0.1-2.1c0.3-1,0.8-2,1.1-3c0.1-0.5,0-1.1,0-1.7
		c-0.2,0-0.3-0.1-0.5-0.1c-0.7,1-1.4,1.9-2.1,2.9c-0.1-0.1-0.1-0.1-0.2-0.2c0-0.5-0.1-1.1-0.1-1.7c-1.2,0.2-1.8,0.9-2.1,1.8
		c-0.4,1.3-0.8,2.7-0.9,4.1c-0.1,1.2-0.5,2.5,0.2,3.7c0.7,1.2,1.3,2.5,2.2,3.6c1.5,1.9,1.2,3.8,0.1,5.7c-1.2,1.9-2.5,3.8-3.7,5.7
		c-2.9,4.7-5.9,9.3-8.8,14.1c-1.2,2.1-1.7,4.4-0.2,6.7c0.3,0.5,0.6,1.1,0.8,1.6c1.6,5.5,4.1,10.7,6.4,15.9c0.8,1.8,1.1,4.2,0.6,5.7
		c-0.3-1.2-0.5-2.2-0.7-3.5c-0.9,1.4-1.7,2.6-2.5,3.8c-3,4.5-4.5,9.5-4.5,15c0,0.7,0.1,1.5,0.1,2.2c0,1.5,0.2,3,0,4.5
		c-0.3,2.6-0.8,5.1-1.2,7.7c0,0.3,0,0.6,0.1,1.2c1.3-0.9,2.3-1.7,3.6-2.7c2.4,0.5,4.8-0.3,7.1-1.4c0.7-0.3,1.5-0.6,2.2-0.8
		c1.4-0.5,2.9-0.9,4.4-0.3c2.1,0.7,4.3,1.3,6.2,1.8c2.3-0.3,4.4-0.6,6.5-0.9c0.3-1.6,0.6-3.1,1-4.7c-0.3-0.9-0.6-1.8-0.9-2.7
		c-0.5-0.3-1-0.6-1.8-1c1.5-0.2,2.6-0.2,3.6-0.5c3.6-1,5.8-3.7,7.2-6.9C104,128.5,105,126.2,105.9,123.9z M118,109.8
		c2.4-1.2,4.5-2.3,6.7-3.3c5.3-2.2,9.8-5.6,13.9-9.5c1.6-1.5,3.1-3.3,4.6-5c2.9-3.3,5.3-6.8,7.1-10.8c0.6-1.4,1.1-2.9,1.6-4.4
		c-0.9-0.2-1.5-0.5-2.2-0.6c-3.4-0.3-5.9,0.3-6.9,4.5c-0.7,3.2-2,6.2-4.2,8.8c-1.2,1.4-2.5,2.3-4.3,2.1c-0.9-0.1-1.8-0.4-2.9-0.6
		c-0.2,0.5-0.5,1.1-0.7,1.6c-0.7,1.8-2,2.6-3.9,2.1c-3-0.7-4.8-2.9-5.9-5.5c-0.6-1.5-1.4-2.5-3-2.9c-1.1-0.3-2.1-0.6-3.1-1.1
		c-3.1-1.5-5.4-3.6-6.2-7.1c-0.6-2.4-0.8-4.7-0.6-7.1c0.4-5.9,2.4-7.7,7.1-8.8c2.7-0.6,5.5-0.8,8.3-1.1c0.8-0.1,1.5-0.2,2.4-0.3
		c-0.7,1.9-1.2,3.7-0.1,5.3c1,1.5,2.4,2.6,3.9,4c0,0.3,0.1,0.9,0.2,1.8c0.7-0.5,1.3-0.9,2-1.3c-0.2-2.3-0.3-4.6-0.5-6.6
		c0.5-1,0.9-1.7,1.2-2.4c-1.5-4-1.2-8-1.2-11.9c0-0.3,0.2-0.6,0.3-0.9c1.3-3.8,3.9-6.6,7.1-8.8c1.9-1.3,3.3-2.7,2.6-5.2
		c0-0.1,0-0.2,0.1-0.4c0.4-0.5,0.7-1,1.1-1.5c-0.8-1.6-2.4-2.3-3.8-3.1c-1.2-0.7-2-1.4-1.8-2.9c-1.1-0.7-2.1-1.3-3.2-1.9
		c-1.7-1.1-3.4-2.1-5-3.2c-0.4-0.3-0.7-0.6-1.2-0.8c-1.3-0.6-2.4-1.9-4.1-1.9c0.4,2.2,2.5,3.8,2.1,6.2c-2.6,0.4-4.7-0.9-6.7-2.1
		c-5.2,1.5-11.8-0.1-14.7-3.8c0-0.5,0-1.1,0-2c0.8-0.6,1.7-1.5,2.8-2.1c1.1-0.7,2.4-1.2,3.6-1.8c1.1-0.6,2.2-0.7,3.3,0
		c0.4,0.2,0.7,0.4,1,0.6c-0.1-1.7-0.2-3.1-0.3-4.7c-9.7-3.9-23.1-4.3-35.3-0.4c-4.7,1.5-9.3,3.5-13.4,6.4c0,0.2,0.1,0.3,0.1,0.5
		c2.1-0.1,4.3-0.2,6.3-0.4c1.4,1.3,1.7,1.9,1.5,2.8c-0.5,2.1-1.2,4.1-3.3,5.4c-2.5,1.6-2.7,3.6-1.1,6.1c0.4,0.6,0.8,1.1,1.2,1.6
		c1.5,1.9,2.3,3.9,1.2,6.4c-0.7,1.6-0.3,3.1,1.1,4.3c1.3,1.3,2.5,2.7,4,4.4c0.9,0.2,2.3,0.5,4,0.8c-0.5-1.4-0.8-2.3-1.2-3.3
		c0.6,0,1.1-0.1,1.6-0.1c1.4,0.2,2.8,0.4,4.1,0.8c7,2.1,10,6.8,8.9,13.5c-0.7,4.3-0.8,8.5-0.1,12.7c0.9,4.9,2.7,9.4,5.9,13.4
		c1,1.2,2,2.1,3.5,2.5c3.4,0.8,6.8,1.6,10.3,2.2c1.8,0.3,3.2,1.2,4.2,2.7c0.5,0.8,1,1.6,1.5,2.4c2.3,0.4,4.8-0.6,6.8,1.3
		c0.1,0.2,0.1,0.5,0.2,0.8c0.8,2.6,0.4,3.9-1.8,5.5c-1.3,0.9-2.8,1.8-4.1,2.8C119.1,105.9,117.9,107.3,118,109.8z M65.9,104.2
		c-0.3-1-0.5-1.6-0.8-2.3c-0.4-1.1-0.8-2.3-1.3-3.4c-2-4.3-0.8-8.2,1.6-11.9c2.9-4.5,6-9,9-13.5c0.9-1.3,1.6-2.7,2.4-4.1
		c0.5-0.9,0.4-1.8,0-2.8c-1-2.4-2.5-4.3-4.9-5.4c-1.8-0.8-1.8-2.2-0.2-3.6c0.6,0,1.3,0,2.1,0c-0.1-2.8,0.7-5,3-6.7
		c0.7,0.1,1.4,0.2,2.1,0.2c0.4-0.4,0.9-0.8,1.4-1.3c0.5,0,1,0,1.6,0.1c0.3,0.6,0.5,1.1,0.7,1.6c0.5,0.3,1.1,0.5,1.6,0.8
		c0.1,0.6,0.1,1.2,0.2,1.7c1.4-0.1,1.5,0.8,1.3,1.7c-0.2,1.2-0.7,2.4-1,3.7c-0.3,1.5-1.1,3.1-0.7,4.4c0.8,2.8,0,4.9-1.3,7.5
		c-1.8,3.5-2.7,7.4-3.9,11.1c-0.3,0.8-0.4,1.7-0.4,2.5c0.1,3.8-1.5,6.9-3.4,10.3c0.6,0.8,1.2,1.7,1.9,2.5c0.9,1.2,2,2.3,2.2,3.9
		c0.2,1.3,0.3,2.5,0.5,4.1c2.1,1.8,4.5,3.8,6.9,5.8c0-0.2,0.1-0.4,0-0.5c-1.5-2.6-1.2-5,0.9-7.1c0.4-0.4,0.4-1.1,0.7-1.6
		c0.8-1.4,1.3-3.2,2.4-4.2c3.1-2.9,7-4.1,11.2-4.1c2.5,0,4.8,0.9,7.1,2.1c4.4,2.4,6.7,5.9,6.4,10.9c-0.1,1.3,0,2.5,0,3.9
		c1.3-0.1,1.1-1.3,1.2-1.8c0.6-3.2,2.1-5.7,5.4-6.7c1.8-0.6,2.9-1.8,3.1-3.8c-0.8-2.3-0.8-2.3-3.4-2.3c-1.2,0-2.3,0-3.4,0
		c-0.5-0.9-0.8-1.6-1.2-2.3c-0.9-1.6-2.1-2.9-4-3.2c-1.9-0.3-3.7-0.6-5.6-0.8c-4.1-0.3-7.3-2-9.7-5.4c-2.2-3.2-4-6.7-4.8-10.5
		c-0.6-2.9-0.9-5.9-0.9-8.9c0.1-3.2,0.8-6.3,0.4-9.6c-0.5-3.6-2-6.2-5.2-7.8c-1.5-0.8-3.2-1.5-5.1-1.3c0,0.7,0,1.3,0,1.8
		c-1.6,1.7-5.4,1.4-8.1-0.5c0-0.3,0-0.7,0.1-1c-3.1-1.5-5.6-5.8-3.5-11.5c-0.7-1-1.5-2.2-2.4-3.3c-2.1-2.3-2.2-5.7,0-8
		c0.8-0.8,1.7-1.6,2.5-2.5c0.8-0.8,1.2-1.7,0.8-2.8c-1-1-2.3-1-3.5-0.7c-1.7,0.5-3.2,0.4-4.7-0.7c-0.7,0.5-1.4,1-2.1,1.5
		c-1.8,1.1-2.7,2.7-2.7,4.8c-0.1,3.1-1,5.8-3.9,7.3c-1.8,0.9-2.5,2.4-2.3,4.4c0.1,1.3-0.3,2.3-1.5,2.9c-1.8,0.9-3.6,2-5.5,2.5
		c-1.5,0.4-2.1,1.2-2.5,2.4c-1.7,4.8-2.9,9.7-3,14.7c-0.1,2.7,0,5.4,0.4,8c0.4,2.9,0.9,5.9,1.7,8.7c2,6.6,5.2,12.5,9.6,17.8
		c3.8,4.5,8.1,8.4,13.1,11.6C64.9,103.8,65.2,103.9,65.9,104.2z M123.9,62.4c-3.8,0.7-7.4,0.9-10.9,2.2c-0.3,0.1-0.7,0.3-0.9,0.6
		c-2.3,3.2-3.4,6.8-2.6,10.5c1,4.5,3.5,8,8.6,8.8c1.6,0.3,3.3,0.9,4.1,2.7c0.7,1.4,1.4,2.7,2.1,4c0.7,1.4,1.8,2.3,3.8,2
		c0.6-1.1,1.3-2.3,2-3.6c1.3,0,2.5,0,3.8,0c2.4,0.1,4.1-1,5-3.1c0.9-2.2,1.6-4.5,2.3-6.9c0.6-2,1-4,2.6-5.3c2.9-1.2,5.6,0.1,8.3,0.3
		c7.3-19.7-0.6-52-34.6-64.5c-0.7,0.4-1.5,0.9-2.3,1.4c1.4,2.9,1.4,2.9,0.8,4.2c-3.8-0.8-7.4-0.1-10.6,2.8c0.5,0.6,0.9,1.2,1.4,1.4
		c1.6,0.8,3.3,1.4,5,2.2c2.3,1,4.6,1.1,6.9-0.3c1.5,0.8,2.9,1.5,4.7,2.4c-0.6-2-1.2-3.7-1.8-5.6c0.6-0.5,1.2-1.2,1.7-1.6
		c2.3,0.2,3.4,1.9,4.8,3c2.1,1.5,4,3.3,6.5,4.3c1.3,0.5,2.4,1.6,3.3,2.7c0.9,1.1,1.7,2.1,2.9,2.9c1.8,1.2,3.6,2.3,4.1,4.8
		c-0.5,0.3-1.1,0.6-1.6,0.9c0.5,2.5,0.2,3.2-1.9,4.3c-2.5,1.3-4.5,3.3-6.4,5.4c-2.3,2.5-3,5.5-2.8,8.6c0.1,2.1,0.9,4.2,1.4,6.4
		c0.2,0.9,0.5,1.8,0.8,2.6c-0.8,0.5-1.3,0.8-1.8,1.1c-0.2,0.6-0.4,1.2-0.5,1.7c0.3,1.2,0.5,2.2,0.9,3.2c0.5,1.5,0,2.6-1.2,3.5
		c-1.1,0.9-2.3,1-3.6,0.3c-0.2-0.1-0.3-0.2-0.4-0.2c0.1-0.6,0.2-1,0.4-1.6c-0.6-0.6-1.2-1.2-1.9-1.8c-1.6-1.4-2.6-3-2.5-5.2
		C124,63.6,124,63.2,123.9,62.4z M106.1,177.8c-0.2-0.1-0.4-0.2-0.6-0.2c-2.5,0.8-4.9,1.6-7.4,2.5c-0.4,0.1-0.7,0.7-0.8,1.1
		c-0.4,1.3-0.7,2.7-1,4c-0.4,2.1-0.2,4.2-0.1,6.2c3.6,0.5,10.5,0.3,11.7-0.3c0.6-1.4,0.7-2.8,0.3-4.3
		C107.5,184,106.8,181,106.1,177.8z M115.7,188.7c-0.4-0.5-0.7-0.8-1.3-1.5c2.8,0.6,5.3,1.1,7.8,1.6c0.6-0.9,1-1.8,1.7-2.5
		c0.6-0.6,1.6-0.8,2.7-1.4c-4.8-0.6-9.1-2.1-13.7-2.4c0.8,3.2-1.8,3.3-3.3,4.3c0,1.2,0,2.4,0,3.6C111.8,190.7,114,191,115.7,188.7z
		 M87.1,180.3c-2.6,1-4.7,2-6.9,2.6c-2.3,0.6-3.2,2.2-3.6,4.3c-0.1,0.3-0.2,0.7-0.3,1.3c3.5,0.4,6.9,0.7,10.3,1.1
		c0.2-1.7,0.5-3,0.5-4.4C87.2,183.7,87.1,182.2,87.1,180.3z M82.8,178.7c0.7-1.5,1.3-2.8,1.9-4c-1.4-1.6-2.6-3-3.8-4.4
		c-1.9,0.6-3.6,1.3-5.7,2c0.7,1.3,1.2,2.3,1.9,3.2c1.3,1.5,2,3,1.7,5c0,0.4,0.1,0.8,0.1,1.4c1.5-0.6,2.9-1.1,4.4-1.7
		C83.1,179.5,82.9,179.1,82.8,178.7z M52,193.3c2.2-0.7,4-1.3,5.8-1.9c1.8-0.7,4-0.1,5.7-1.5c0.3-2,0.6-3.8,0.9-5.6
		c-1.6,0.9-3.1,1.8-4.6,2.6c-1.7,0.9-3.5,1.5-5.1,2.5C53.4,190.1,51.9,190.9,52,193.3z M57.1,22.2c-5.4,4.6-9.2,10.1-12.5,16.1
		c2.2-0.7,4.3-1,5.7-3.3c0.1-0.8,0.1-2,0.4-3.1c0.2-0.7,0.6-1.6,1.2-2c1.1-0.8,2.4-1.4,4-2.4C56.2,26,56.6,24.2,57.1,22.2z
		 M87,109.1c0.5,0.5,1.1,1,1.6,1.6c1.9-3,2.4-4.6,1.8-6.3c-0.6,0-1.3,0-1.8,0C86.7,105.4,86.9,107.2,87,109.1z M73.9,60.6
		c0-0.8-0.1-1.4-0.1-2.2c-0.9,0.2-1.6,0.3-2.2,0.4c0,0.2,0,0.3,0,0.5C72.2,59.7,72.9,60.1,73.9,60.6z"/>
	<path d="M88.1,136.2c-5.2,1.1-12.5-1.1-13.6-4c2,1.5,4.2,2.5,6.5,3C83.3,135.6,85.7,135.8,88.1,136.2z"/>
	<path d="M85.1,139.6c-2,0.7-3.8,1.2-5.4,1.9c-1.7,0.7-3.4,1.2-5.3,0.9C77.7,141.1,80.9,139,85.1,139.6z"/>
	<path d="M88.7,144.6c0,0-0.2-0.3-0.3-0.4c-1.2-0.2-2.2-0.4-3.2-0.5c0-0.2,0-0.3,0-0.5c1.1,0,2.1,0,3.1,0c1.2-1.1,2-2.3,1.8-4.1
		c1.2,1,1.2,1.5,0.3,3.7c0.2,0.1,0.4,0.3,0.7,0.5c0.3,0.1,0.5,0.2,0.9,0.4C90.8,144,89.8,144.3,88.7,144.6z"/>
	<path d="M73.8,129.8c-1.3-3.8-0.6-7.4,0.9-11C74.4,122.4,74.1,126,73.8,129.8z"/>
	<path d="M89.7,137.2c2-2.2,4.3-4,4.7-7.4C95.4,132.2,92.3,136.8,89.7,137.2z"/>
	<path d="M66.8,96.8c-0.7-0.5-1.4-1-2.1-1.5c-0.2-1.4-0.2-2.5,1-3.5c-0.1,0.9-0.2,1.6-0.2,2.3c0.1,0,0.2,0,0.2-0.1
		c0.4,0.8,0.8,1.7,1.3,2.5C67,96.7,66.9,96.8,66.8,96.8z"/>
	<path d="M69.7,134.3c0.5-0.7,0.9-1.4,1.4-2.1c0.1,0.1,0.2,0.1,0.3,0.2c-0.5,1.7-1.1,3.5-1.6,5.2c-0.1,0-0.2,0-0.3,0c0-1,0-2,0-3
		C69.5,134.4,69.6,134.3,69.7,134.3z"/>
	<path d="M77.6,113.8c0.1-2.1-0.5-4.2,0.8-6.2c-0.1,1-0.2,2-0.3,3.1c0,1,0,2.1,0,3.1C77.9,113.8,77.8,113.8,77.6,113.8z"/>
	<path d="M69.6,129.7c-0.6,1.5-0.2,3.1,0,4.6c-0.1,0.1-0.2,0.1-0.2,0.2c-0.5-1.1-1-2.2-1.5-3.3c0.1-0.1,0.1-0.1,0.2-0.2
		c0.2,0,0.4,0,0.5-0.2c0.3-0.4,0.5-0.9,0.7-1.3C69.5,129.5,69.6,129.6,69.6,129.7z"/>
	<path d="M77.8,54.1c-0.3,1.5-0.7,3-1.1,4.7c-0.5-1.9-0.2-3.5,0.9-4.9C77.6,53.9,77.7,54,77.8,54.1z"/>
	<path d="M78.4,130.2c0,0.7,0,1.1,0,2c-0.7-0.6-1.1-1-1.9-1.6C77.3,130.4,77.8,130.3,78.4,130.2z"/>
	<path d="M69.4,129.5c0.5-1.3,0.5-1.3,1.6-1.7c0,1-0.8,1.4-1.4,1.9C69.6,129.6,69.5,129.5,69.4,129.5z"/>
	<path d="M97.9,136.1c-0.3,0.1-0.6,0.3-0.9,0.4c-0.1-0.1-0.2-0.3-0.2-0.4c0.3-0.2,0.6-0.3,0.8-0.5C97.7,135.9,97.8,136,97.9,136.1z"
		/>
	<path d="M82.3,57.5c0.1-0.4,0.2-0.7,0.4-1.1c0.1,0.1,0.1,0.1,0.2,0.2c-0.1,0.4-0.2,0.7-0.4,1.1C82.5,57.7,82.4,57.6,82.3,57.5z"/>
	<path d="M82.6,57.7c0,0.3-0.1,0.6-0.1,0.8c-0.1,0-0.2,0-0.4-0.1c0.1-0.3,0.2-0.6,0.3-1C82.4,57.6,82.5,57.7,82.6,57.7z"/>
	<path d="M73.1,142.4c-0.1,0-0.3,0-0.4,0c0-0.1,0-0.1,0-0.2c0.1,0,0.3,0,0.4,0C73.1,142.3,73.1,142.3,73.1,142.4z"/>
	<path d="M68,131.1c-0.1-0.2-0.2-0.5-0.3-0.7c0.1,0,0.2-0.1,0.3-0.1c0.1,0.2,0.2,0.4,0.2,0.6C68.1,131,68,131.1,68,131.1z"/>
	<path d="M77.5,53.9c0.1-0.2,0.2-0.5,0.4-0.7c0.1,0.1,0.1,0.1,0.2,0.2c-0.1,0.2-0.2,0.5-0.4,0.7C77.7,54,77.6,53.9,77.5,53.9z"/>
	<path d="M75,117.5c0,0.2,0,0.4,0,0.6c-0.1,0-0.1,0-0.2,0c0-0.2,0-0.4,0-0.6C74.9,117.5,74.9,117.5,75,117.5z"/>
	<path d="M82.7,56.4c0.1-0.2,0.2-0.5,0.4-0.7c0.1,0.1,0.1,0.1,0.2,0.2c-0.1,0.2-0.2,0.5-0.4,0.7C82.8,56.6,82.8,56.5,82.7,56.4z"/>
	<path d="M67.1,96.6c0.1,0.2,0.2,0.5,0.3,0.7c-0.1,0-0.2,0.1-0.3,0.1c-0.1-0.2-0.2-0.4-0.2-0.6C66.9,96.8,67,96.7,67.1,96.6z"/>
	<path d="M82,59.6c0,0,0,0.1,0,0.1c-0.1,0-0.1,0-0.2-0.1c0,0,0.1-0.1,0.1-0.1C81.9,59.6,81.9,59.6,82,59.6z"/>
	<path d="M105.9,123.9c0.1-0.1,0.2-0.1,0.6-0.4c-0.3,0.4-0.3,0.5-0.4,0.6C106.1,124.1,106,124,105.9,123.9z"/>
	<path d="M102.4,152c0.6,1.9,1.1,3.6,1.6,5.4c-0.7,0.5-1.4,0.1-1.9-0.6C101.2,155.7,101.3,153.8,102.4,152z"/>
	<path d="M87.7,194.6c-0.4,0.9-0.7,1.8-1.1,2.7c0.2,0.6,0.5,1.2,0.7,1.8c-0.1,0.1-0.2,0.1-0.3,0.2c-0.4-0.4-0.9-0.8-1.3-1.2
		c-0.1-1.6,0.9-2.6,1.8-3.7C87.6,194.4,87.6,194.5,87.7,194.6z"/>
	<path d="M101.9,205.1c-0.1-0.3-0.2-0.6-0.4-0.9c0.1-0.1,0.1-0.1,0.2-0.2c0.4,0.4,0.7,0.7,1.1,1.1c-0.1,0.1-0.1,0.1-0.2,0.2
		c-0.2,0-0.4,0-0.5,0C102,205.2,102,205.1,101.9,205.1z"/>
	<path d="M89.1,169.8c0.1-0.2,0.2-0.5,0.4-0.7C89.3,169.3,89.2,169.5,89.1,169.8z"/>
	<path d="M87.5,194.4c0.1-0.2,0.3-0.5,0.4-0.7c0.1,0.1,0.1,0.1,0.2,0.2c-0.1,0.2-0.2,0.5-0.4,0.7C87.6,194.5,87.6,194.4,87.5,194.4z
		"/>
	<path d="M108.9,202.7c-0.1-0.1-0.1-0.2-0.4-0.6c0.4,0.3,0.5,0.4,0.6,0.4C109,202.5,109,202.6,108.9,202.7z"/>
	<path d="M109.1,202.5c0.1,0.1,0.2,0.2,0.4,0.4c-0.1,0.1-0.1,0.1-0.2,0.2c-0.1-0.1-0.2-0.2-0.4-0.4C109,202.6,109,202.5,109.1,202.5
		z"/>
	<path d="M103.8,203.1c0,0,0,0.1-0.1,0.1c-0.1,0-0.1-0.1-0.2-0.1c0,0,0.1-0.1,0.1-0.1C103.7,203,103.7,203.1,103.8,203.1z"/>
	<path d="M109.6,203.4c-0.1-0.1-0.2-0.2-0.4-0.4c0.1-0.1,0.1-0.1,0.2-0.2c0.1,0.1,0.2,0.2,0.4,0.4
		C109.8,203.3,109.7,203.4,109.6,203.4z"/>
	<path d="M101.5,204.2c-0.1-0.1-0.1-0.2-0.4-0.6c0.4,0.3,0.5,0.3,0.6,0.4C101.7,204,101.6,204.1,101.5,204.2z"/>
	<path d="M102.1,205.3c-0.1,0.1-0.2,0.1-0.6,0.4c0.3-0.4,0.3-0.5,0.4-0.6C102,205.1,102,205.2,102.1,205.3z"/>
	<path d="M87.2,161.8c0,0,0,0.1-0.1,0.1c-0.1,0-0.1-0.1-0.2-0.1c0,0,0.1-0.1,0.1-0.1C87.1,161.7,87.1,161.8,87.2,161.8z"/>
	<path d="M87.9,193.6c0.1-0.1,0.2-0.1,0.6-0.4c-0.3,0.4-0.3,0.5-0.4,0.6C88,193.8,87.9,193.7,87.9,193.6z"/>
	<path d="M68.5,153.3c-0.7,1.5-1.5,3-2.2,4.4c-0.1-0.1-0.1-0.1-0.2-0.2c0.7-1.5,1.5-2.9,2.2-4.4C68.4,153.1,68.5,153.2,68.5,153.3z"
		/>
	<path d="M70.7,150.7c-0.1,0.3-0.3,0.5-0.4,0.8c-0.2-0.2-0.3-0.3-0.5-0.5c0.2-0.2,0.5-0.3,0.7-0.5C70.6,150.5,70.7,150.6,70.7,150.7
		z"/>
	<path d="M68.9,152.5c-0.1,0.2-0.2,0.5-0.4,0.7c-0.1-0.1-0.1-0.1-0.2-0.2c0.1-0.2,0.3-0.5,0.4-0.7C68.8,152.4,68.8,152.5,68.9,152.5
		z"/>
	<path d="M71.1,150.3c-0.1,0.1-0.2,0.2-0.4,0.4c-0.1-0.1-0.1-0.1-0.2-0.2c0.1-0.1,0.2-0.2,0.4-0.4C71,150.2,71,150.2,71.1,150.3z"/>
	<path d="M66.3,157.7c-0.1,0.1-0.2,0.1-0.6,0.4c0.3-0.4,0.3-0.5,0.4-0.6C66.2,157.6,66.2,157.6,66.3,157.7z"/>
	<path d="M69.3,152.2c-0.1,0.1-0.2,0.2-0.4,0.4c-0.1-0.1-0.1-0.1-0.2-0.2c0.1-0.1,0.2-0.2,0.4-0.4C69.1,152,69.2,152.1,69.3,152.2z"
		/>
	<path d="M69.1,152c0.1-0.1,0.2-0.1,0.6-0.4c-0.3,0.4-0.3,0.5-0.4,0.6C69.2,152.1,69.1,152,69.1,152z"/>
	<path d="M92.4,117.4c0.7,0,1.4-0.1,2.1-0.1c0.1,0.1,0.2,0.1,0.2,0.2c1.4,1.4,3.2,1.4,5.1,1.3c0.3,0.4,0.7,0.7,1.2,1.3
		c0.4-0.2,0.9-0.5,1.3-0.7c0.1-0.1,0.2-0.1,0.2-0.2c0.2,0.5,0.4,1,0.6,1.6c-1.4-0.2-2.8-0.4-4.2-0.6c0,0,0-0.1,0-0.1
		c-2.2-0.7-4.4-1.3-6.7-2.1C92.2,117.8,92.3,117.6,92.4,117.4z"/>
	<path d="M103.1,120.7c0.2,0,0.5,0,0.7,0c-0.2,0.1-0.3,0.3-0.5,0.4C103.3,121,103.2,120.8,103.1,120.7z"/>
	<path d="M103.7,108.5c-1.8-0.9-3.5-1.7-5.3-2.5C99.8,105.2,102.4,106.4,103.7,108.5z"/>
	<path d="M97.7,111c1.2,0.2,2.4,0.4,3.6,0.6c0,0.2-0.1,0.3-0.1,0.5c-1.3,0.3-2.5,0-3.7-0.9C97.5,111.2,97.6,111.1,97.7,111z"/>
	<path d="M97.7,112.5c0.9,0.1,1.8,0.2,2.9,0.3c-1.2,1.1-2.1,0.6-3.1-0.1C97.5,112.6,97.6,112.6,97.7,112.5z"/>
	<path d="M105.9,116c-0.2-0.3-0.5-0.6-0.7-0.9c0.1-0.1,0.3-0.2,0.4-0.3c0.2,0.3,0.4,0.6,0.6,0.9C106.1,115.9,106,116,105.9,116z"/>
	<path d="M106.7,114.9c-0.2-0.2-0.5-0.3-0.7-0.5c0.1-0.1,0.1-0.2,0.2-0.3c0.2,0.2,0.5,0.4,0.7,0.5
		C106.8,114.8,106.7,114.8,106.7,114.9z"/>
	<path d="M96.5,109.9c0-0.1,0-0.3,0-0.4c0.1,0,0.1,0,0.2,0c0,0.1,0,0.3,0,0.4C96.7,109.9,96.6,109.9,96.5,109.9z"/>
	<path d="M97.5,112.7c-0.1-0.1-0.1-0.2-0.4-0.6c0.4,0.3,0.5,0.3,0.6,0.4C97.6,112.6,97.5,112.6,97.5,112.7z"/>
	<path d="M97.1,110.9c-0.1-0.1-0.1-0.2-0.4-0.6c0.4,0.3,0.5,0.4,0.6,0.4C97.2,110.7,97.2,110.8,97.1,110.9z"/>
	<path d="M97.3,110.6c0.1,0.1,0.2,0.2,0.4,0.4c-0.1,0.1-0.1,0.1-0.2,0.2c-0.1-0.1-0.2-0.2-0.4-0.4C97.2,110.8,97.2,110.7,97.3,110.6
		z"/>
	<path d="M106.1,115.8c0.1,0.1,0.1,0.2,0.4,0.6c-0.4-0.3-0.5-0.3-0.6-0.4C106,116,106.1,115.9,106.1,115.8z"/>
	<path d="M105,172.6c0.1,0.1,0.2,0.2,0.4,0.4c-0.1,0.1-0.1,0.1-0.2,0.2c-0.1-0.1-0.2-0.2-0.4-0.4C104.9,172.7,105,172.7,105,172.6z"
		/>
	<path d="M104.5,172.4c-0.1-0.1-0.1-0.2-0.4-0.6c0.4,0.3,0.5,0.4,0.6,0.4C104.6,172.3,104.5,172.4,104.5,172.4z"/>
	<path d="M104.7,172.2c0.1,0.1,0.2,0.2,0.4,0.4c-0.1,0.1-0.1,0.1-0.2,0.2c-0.1-0.1-0.2-0.2-0.4-0.4
		C104.5,172.4,104.6,172.3,104.7,172.2z"/>
	<path d="M114,187.4c0,0-0.1,0-0.1-0.1c0-0.1,0.1-0.1,0.1-0.2c0,0,0.1,0.1,0.1,0.1C114.1,187.3,114,187.3,114,187.4z"/>
	<path d="M87.6,107.9c0-0.6,0-1.1,0-1.8c0.6-0.7,1.2-1.7,2.9-0.9c-0.6,0.3-1,0.5-1.3,0.7c0,0.4,0,0.8,0,1.2
		C88.6,107.3,88.2,107.6,87.6,107.9z"/>
	<path d="M94.5,117.3c0.9-1,2.1-0.9,3.2-0.7c1.3,0.3,2.4,0.9,3.6,1.4c-0.1,0.1-0.1,0.2-0.2,0.2c-2.1-0.5-4.2-1.4-6.4-0.8
		C94.7,117.4,94.6,117.4,94.5,117.3z"/>
	<path d="M101.3,118c0.4,0.4,0.8,0.8,1.1,1.1c-0.1,0.1-0.2,0.1-0.2,0.2c-0.4-0.4-0.7-0.7-1.1-1.1C101.2,118.2,101.3,118.1,101.3,118
		z"/>
	<path d="M85.7,178.9c0.1-0.1,0.2-0.1,0.6-0.4c-0.3,0.4-0.3,0.5-0.4,0.6C85.8,179,85.7,178.9,85.7,178.9z"/>
</g>
<g>
	<g>
		<g>
			<path d="M201.2,129.1c-0.3,1.4-0.8,2.8-0.9,4.3c-0.5,6.5,1,12.5,4.6,17.9c2.8,4.3,6.5,7.6,11.2,10c-0.3-0.6-0.6-1.2-0.9-1.7
				c0-0.1,0.1-0.1,0.1-0.2c0.3,0.2,0.7,0.4,0.8,0.6c0,1.1,0.7,1.3,1.6,1.2c0,0.1,0.1,0.2,0.1,0.3c-0.2,0.1-0.3,0.3-0.5,0.4
				c2.7,1.3,5.7,1.8,8.9,2c-0.3-0.4-0.4-0.7-0.6-0.9c-1.1,0.8-2,0.5-2.2-0.7c0.6,0,1.3,0,1.9,0c0.5,0,1.7,1.5,1.5,2
				c-0.1,0.2-0.6,0.5-0.9,0.4c-2.1-0.4-4.3-0.6-6.3-1.2c-8.7-2.9-14.9-8.7-18.2-17.2c-3.6-9.5-2.4-18.7,3.3-27
				c4.4-6.3,10.6-10.2,18.2-11.7c1.8-0.4,3.7-0.5,5.5-0.8c0,0.2,0.1,0.3,0.1,0.5c-0.3,0.1-0.6,0.3-0.9,0.4c-3.8,0.3-7.5,1-11,2.6
				c-0.7,0.3-1.4,0.7-2.1,1.1c-0.2,0.1-0.4,0.4-0.5,0.5c0.1,0.1,0.1,0.2,0.2,0.2c0.6-0.2,1.2-0.3,2-0.6c-0.8,0.9-1.5,1.3-2.4,1.2
				c-0.2,0-0.3-0.4-0.4-0.6c0,0,0,0,0,0c-2,1.6-4.1,3-5.9,4.7c-2.8,2.7-4.5,6.1-5.9,9.7c-0.1,0.2-0.1,0.5-0.1,0.7c0,0,0,0,0,0l0,0
				c0.4-0.6,0.9-1.2,1.3-1.8c0.1,0,0.2,0.1,0.3,0.1c-0.5,1.2-0.9,2.3-1.4,3.5c0.1,0.1,0.2,0.1,0.3,0.2c1.5-0.4,1.9-2.3,3.4-2.9
				c-0.1,0.2-0.2,0.5-0.4,0.7c-0.8,1.1-1.6,2.2-2.5,3.3c-0.8,1-0.8,2.4-0.4,3.3c0.5,1.3,0.9,2.5,0.7,3.8c-0.2,1.1-0.8,2.2-1.2,3.3
				c-0.1,0-0.2,0-0.4,0c-0.2-0.3-0.4-0.5-0.5-0.8c0.1,0,0.2,0,0.3,0.1c0.2-0.3,0.5-0.6,0.6-1c0.3-0.8,0.6-1.7,0.7-2.5
				c0-0.2-0.2-0.5-0.4-0.7c-0.1,0-0.2,0-0.4,0c0.1-0.3,0.2-0.7,0.3-1.1c-1.2-0.5-0.3-1.5-0.5-2.3
				C201.5,131.2,202.1,130.1,201.2,129.1C201.3,129,201.3,128.9,201.2,129.1C201.3,128.9,201.3,129,201.2,129.1z"/>
			<path d="M212.2,133.9c1.2-1.2,1.9-3.6,1.3-4.7c0.2-0.1,0.4-0.3,0.7-0.4c-1.1-1.8-1.1-1.8-0.1-2.8c-0.1,0.6-0.2,1-0.3,1.3
				c-0.2,0.6,0,0.9,0.6,0.9c0.7,0,1.3,0,2,0c0,0.1,0,0.3,0,0.4c-0.4,0.1-0.8,0.2-1.2,0.3c-0.3,0.1-0.6,0.3-0.8,0.5
				c0.2,0.3,0.3,0.5,0.5,0.8c-0.9,0.5-1,1.4-0.3,2.2c0.8,0.8,1.8,1.6,2.7,2.4c0.3,0.2,0.5,0.5,0.7,0.8c-1.9-0.4-2.8-2.4-4.6-2.9
				c-0.4,0.6,0.8,1.3-0.3,1.8c0.4,1,0.9,2.2,1.4,3.3c-0.1,0-0.2,0.1-0.3,0.1c-0.4-0.6-0.7-1.3-1.1-1.9c-0.3-0.5-0.5-1-0.8-1.4
				c-0.1-0.2-0.4-0.3-0.6-0.3c-0.1,0-0.3,0.4-0.3,0.6c0,0.6,0,1.1,0,1.7c-0.1,0-0.2,0-0.3,0c-0.1-1.2-0.3-2.3-0.4-3.5
				c0.2-0.1,0.5-0.2,0.8-0.3C211.8,133.2,212,133.5,212.2,133.9z"/>
			<path d="M214.4,125.3c-0.5,0.5-1,1.1-1.5,1.6c-0.8,0.8-1.4,0.4-2.3-0.2c-1.1-0.8-0.4-1.7-0.5-2.5c0-0.4,0.1-0.8,0.4-1.2
				c0.1,0.4,0.2,0.7,0.3,1.1c0.1,0.6,0,1.1,0.2,1.7c0.1,0.3,0.3,0.8,0.5,0.8c0.4,0,1-0.1,1.3-0.4c1.2-1.1,2.3-2.2,3.4-3.4
				c0.1-0.1,0.3-0.2,0.6-0.2c-0.8,1.1-1.7,2.3-2.5,3.4c0,0-0.1,0-0.1-0.1C214.2,125.7,214.3,125.5,214.4,125.3
				C214.3,125.3,214.4,125.3,214.4,125.3z"/>
			<path d="M219.5,158.3c-0.1-0.4-0.2-0.9-0.4-1.3c-0.1,0-0.2,0.1-0.3,0.1c0,0.1,0.1,0.2,0.1,0.3c0,0.3,0.1,0.5,0.1,0.8
				c-0.3,0-0.7,0.1-0.8-0.1c-0.6-0.7-1.3-1.4-1.8-2.1c-0.4-0.6-0.2-1.3-0.1-2c0.2-1.4,1.1-2.8,0-4.3c0.9,0.3,1.1,0.8,1.1,1.4
				c-0.1,1.1-0.3,2.2-0.6,3.2c-0.2,0.8-0.2,1.4,0.3,2c0.4,0.5,0.9,0.7,1.6,0.4c0.2-0.1,0.8,0.2,1,0.5c0.2,0.3,0.1,0.8,0.1,1.3
				C219.7,158.4,219.6,158.3,219.5,158.3z"/>
			<path d="M214.7,116.9c-1.9,1.3-3.7,2.5-2.2,5.2c-1-0.5-1.5-0.9-1.4-1.8C211.2,118.6,212.9,116.9,214.7,116.9z"/>
			<path d="M221.2,160c0.1-0.1,0.2-0.3,0.3-0.3c0.9,0.2,1.1,1,1,1.5c-0.1,0.4-0.9,0.8-1.5,0.9c-1,0.1-1.8-1-1.4-1.9
				c0.6,0.5,0.8,1.5,2.1,1.1c-0.6-0.4-1.1-0.7-1.7-1.1C220.5,160.1,220.9,160,221.2,160c0.1,0.1,0.3,0.1,0.4,0.2c0,0,0,0,0,0
				C221.5,160.1,221.3,160,221.2,160z"/>
			<path d="M215.4,148.3c1-1.5,1-1.8-0.1-3.3c-0.1-0.2-0.2-0.4-0.2-0.6c0.2-0.1,0.5-0.2,0.7-0.2c0.3,0.1,0.7,0.3,0.9,0.6
				C217.6,146,216.8,148,215.4,148.3L215.4,148.3z"/>
			<path d="M210.5,132.6c-1.2,2.6-2.4,5.3-3.6,7.9C206.5,139.4,209.4,132.8,210.5,132.6z"/>
			<path d="M209.2,128.2c-0.4,0.2-0.8,0.3-1.1,0.5c0.4,0.7,0.7,1.4,1.1,2.1c-0.1,0.1-0.2,0.1-0.3,0.2c-0.2-0.2-0.4-0.4-0.7-0.6
				c-0.8,0.4-1.6,0.7-2.4,1.1c0-0.1-0.1-0.2-0.1-0.3c0.8-0.5,1.5-1,2.3-1.5c-0.4-0.7-0.7-1.2-1-1.8c0.8,0,1.4,0,2.1,0
				C209,128,209.1,128.1,209.2,128.2z"/>
			<path d="M209.5,147.8c0.5-0.1,1.1-0.4,1.4-0.2c0.3,0.3,0.4,0.9,0.4,1.4c-0.1,0.8,0.5,1.6,1.6,1.6c-0.3,0.4-0.4,0.9-0.7,0.9
				c-0.2,0.1-0.6-0.2-0.9-0.4c-0.3-0.2-0.5-0.5-0.7-0.8c-0.1-0.3-0.3-0.7-0.2-1c0.4-1.1,0.3-1.2-0.9-1.2
				C209.5,148.1,209.5,147.9,209.5,147.8z"/>
			<path d="M215.7,146.7c0.1,0.7-0.3,1.3-1.2,1.6c-0.8,0.2-1.6-0.1-1.9-0.9c-0.4-0.8-0.4-1.5,0.6-2.2c-0.3,1.2-0.1,2.3,1.2,2.4
				C214.8,147.7,215.3,147,215.7,146.7z"/>
			<path d="M210.9,143c-0.9-0.7-0.8-1.4-0.5-1.9c0.2-0.3,0.7-0.5,1.1-0.7c0.1,0,0.2,0.1,0.4,0.1c-0.3-0.8-0.5-1.7-0.8-2.5
				c1,0.7,1.4,1.7,1.2,2.8c-0.1,0.3-0.7,0.4-1.2,0.7C211,141.8,211,142.3,210.9,143z"/>
			<path d="M217.2,129.7c0.4,0,0.8-0.1,0.9-0.1c-0.1,0.6-0.4,1.3-0.3,1.8c0.1,0.3,0.8,0.5,1.3,0.8c-0.6,0.4-1.3,0.4-2,0
				c-0.6-0.4-0.7-1.1-0.3-1.8C216.9,130.1,217,129.9,217.2,129.7L217.2,129.7z"/>
			<path d="M221.2,112.4c-0.7,0.2-1.4,0.4-2.3,0.7c0.7,0.6,1.1,1,1.5,1.4c-0.1,0-0.1,0.1-0.2,0.1c-0.5-0.1-1-0.3-1.5-0.3
				c-0.7-0.1-0.7-0.4-0.5-1C218.6,112.2,219.5,111.9,221.2,112.4z"/>
			<path d="M218,117.8c-0.3-0.4-0.5-0.8-0.9-1.1c-0.8-0.6-0.9-1.1-0.1-1.6c0.5-0.3,1.1-0.5,1.7-0.6c0.2,0,0.5,0.3,0.7,0.4
				c-0.7,0.2-1.3,0.3-1.8,0.6c-0.6,0.3-0.4,0.7,0.1,1.1c0.3,0.2,0.6,0.6,0.8,0.9c0.1,0.1-0.2,0.4-0.3,0.5c0,0,0,0,0,0
				C218.1,117.9,218,117.9,218,117.8L218,117.8z"/>
			<path d="M215.8,157.1c0.2,0,0.6-0.1,0.7,0c0.2,0.4,0.2,0.8,0.3,1.2c-0.2,0-0.5,0.2-0.6,0.1c-0.3-0.2-0.6-0.5-0.9-0.8
				C215.4,157.5,215.6,157.3,215.8,157.1c0.1,0.1,0.1,0.1,0.2,0.2c0.1,0.1,0.1,0.1,0.2,0.2c-0.1-0.1-0.1-0.1-0.2-0.2
				C215.9,157.3,215.8,157.2,215.8,157.1z"/>
			<path d="M209.1,145.6c0.1,0.9,0.1,1.4,0.2,2.2c-0.2,0-0.7,0-0.7-0.2c-0.1-0.5-0.2-1.1-0.1-1.7
				C208.4,145.8,208.9,145.7,209.1,145.6z"/>
			<path d="M210.1,155.7c-1.7-0.8-2.5-2-2.2-3C208.6,153.7,209.3,154.7,210.1,155.7z"/>
			<path d="M204.6,144.5c-1.3-0.8-1.8-2.2-1.4-3.4C203.7,142.1,204.2,143.3,204.6,144.5z"/>
			<path d="M205.8,143.9c-0.3-1.4-0.6-2.5-0.9-3.7C205.8,140.6,206.2,142,205.8,143.9z"/>
			<path d="M223.4,108.9c-0.8,0.2-1.5,0.4-2.3,0.7c0-0.1-0.1-0.2-0.1-0.4c0.5-0.9,1.5-0.7,2.3-0.7
				C223.4,108.6,223.4,108.8,223.4,108.9z"/>
			<path d="M219.7,109.8c-0.2,0.4-1.2,0.4-0.8,1.2c-0.2,0.1-0.5,0.2-0.7,0.3c-0.2,0-0.5-0.2-0.5-0.2c0-0.2,0.1-0.5,0.3-0.6
				c0.5-0.3,1-0.6,1.6-0.9C219.6,109.6,219.6,109.7,219.7,109.8z"/>
			<path d="M214.3,155.2c-0.3-0.2-0.8-0.4-1-0.7c-0.2-0.3,0-0.8,0-1.2c0.1,0,0.2,0,0.3-0.1c0.3,0.5,0.6,1.1,0.9,1.6
				C214.5,155,214.4,155.1,214.3,155.2z"/>
			<path d="M209.5,143c-0.7,1-0.7,1,0,2c-0.6-0.2-1-0.2-1.2-0.5c-0.1-0.2-0.1-0.7,0.1-0.9C208.7,143.4,209.1,143.2,209.5,143z"/>
			<path d="M215.6,149.9c0.6,0.4,0,1.4,1,1.2c0,0.2,0,0.3,0,0.5c-0.1,0.1-0.3,0.3-0.4,0.3c-0.3-0.2-0.7-0.4-0.8-0.8
				C215.3,150.8,215.5,150.4,215.6,149.9z"/>
			<path d="M205.3,135.2c0.5-1.1,1.8-2.1,2.7-1.9C207,133.9,206.1,134.5,205.3,135.2L205.3,135.2z"/>
			<path d="M219.2,132.5c0.8-0.9,0.8-1.8,0.1-2.8c0.1,0,0.3-0.1,0.4-0.1c0.2,0.4,0.4,0.8,0.5,1.3
				C220.4,131.6,220.1,132.2,219.2,132.5z"/>
			<path d="M213.5,143.9c-0.4-0.2-0.8-0.3-0.9-0.5c-0.1-0.3-0.1-0.7,0.1-0.9c0.2-0.2,0.7-0.3,0.9-0.1c0.2,0.1,0.3,0.5,0.4,0.8
				c-0.1,0-0.1,0.1-0.2,0.1c-0.1-0.2-0.3-0.4-0.4-0.6c-0.1,0-0.1,0-0.2,0.1C213.3,143.1,213.4,143.4,213.5,143.9z"/>
			<path d="M232.1,107.2c0.6,0.1,1.2,0.2,1.9,0.3c-0.5,0.7-1.3,0.7-2,0C232.1,107.4,232.1,107.3,232.1,107.2z"/>
			<path d="M218.1,122.8c-0.3,0.4-0.6,0.7-0.9,1.1c-0.1-0.2-0.4-0.6-0.3-0.7c0.2-0.3,0.5-0.5,0.8-0.8
				C217.9,122.6,218,122.7,218.1,122.8z"/>
			<path d="M256.2,137.8c0.6,0.6,0.6,1.6,0.3,1.9c-0.1,0.1-0.3,0.1-0.4,0c-0.1,0-0.1-0.2-0.2-0.3c0-0.1,0-0.2,0-0.3
				C256,138.8,256.1,138.4,256.2,137.8z"/>
			<path d="M241.4,110.8c-0.6-0.3-1.2-0.6-1.8-0.9c0.1-0.1,0.1-0.3,0.2-0.4c0.6,0.3,1.3,0.5,1.9,0.8
				C241.6,110.5,241.5,110.6,241.4,110.8z"/>
			<path d="M231.1,107.2c-0.3,0.5-1.3,0.7-1.6,0.3c-0.1-0.1-0.1-0.3-0.1-0.4c0.1-0.1,0.3-0.2,0.4-0.2
				C230.3,107,230.7,107.1,231.1,107.2z"/>
			<path d="M209.6,145c1,0.3,1.2,1.2,0.6,2.2C210,146.5,209.8,145.8,209.6,145z"/>
			<path d="M209.3,123.4c-0.1-1.2,0.3-1.6,1.6-1.5C210.4,122.4,209.9,122.8,209.3,123.4z"/>
			<path d="M255.3,141.9c0.2-0.4,0.4-0.7,0.6-1.1c0.1,0.2,0.4,0.3,0.3,0.4c-0.1,0.4-0.3,0.9-0.5,1.3c-0.1,0.1-0.5-0.1-0.7-0.1
				C255.1,142.2,255.2,142,255.3,141.9z"/>
			<path d="M212.9,115.6c-0.1,0.2-0.2,0.5-0.3,0.7c-0.1,0-0.2-0.1-0.3-0.1c-0.1-0.9,0.4-1.4,1.3-1.1
				C213.4,115.3,213.2,115.4,212.9,115.6C212.9,115.6,212.9,115.6,212.9,115.6z"/>
			<path d="M256.8,135.6c-0.1,0.5-0.1,0.9-0.2,1.4c-0.1,0-0.4-0.1-0.4-0.1c0-0.4,0-0.9,0-1.3C256.5,135.6,256.7,135.6,256.8,135.6z"
				/>
			<path d="M256.7,133c0,0.7,0,1.2,0,1.8C255.9,134,255.9,133.6,256.7,133z"/>
			<path d="M254.7,145.9c0.2,0.9-0.1,1.4-1,1.6c0.3-0.6,0.5-1.2,0.7-1.7C254.5,145.8,254.6,145.8,254.7,145.9z"/>
			<path d="M252.7,150.5c-0.2,0.4-0.4,0.8-0.7,1.1c-0.1,0.1-0.4,0-0.6,0c0.2-0.3,0.3-0.7,0.5-1c0.1-0.2,0.4-0.2,0.6-0.3
				C252.6,150.3,252.7,150.4,252.7,150.5z"/>
			<path d="M236.1,163.6c-0.8,0-1.3,0-1.7,0c0-0.1,0-0.2,0-0.3C234.8,163.2,235.3,162.5,236.1,163.6z"/>
			<path d="M232.1,163.8c0.4-0.1,0.8-0.2,1.2-0.3c0.1,0,0.3,0.2,0.3,0.3c0,0.1-0.1,0.4-0.2,0.4c-0.4,0.1-0.9,0.1-1.3,0.1
				C232.1,164.1,232.1,163.9,232.1,163.8z"/>
			<path d="M244.7,112.2c0.5,0.4,1.2,0.5,1.2,1.2c-0.1,0.1-0.2,0.2-0.3,0.3c-0.4-0.4-0.8-0.8-1.3-1.2
				C244.5,112.3,244.6,112.2,244.7,112.2z"/>
			<path d="M209.6,153.3c0.4,0.7,0.9,1.3,1.3,2c-0.1,0.1-0.2,0.2-0.3,0.2c-0.4-0.7-0.9-1.3-1.3-2
				C209.4,153.4,209.5,153.3,209.6,153.3z"/>
			<path d="M205.9,151.1c0.2,0.4,0.4,0.9,0.6,1.3c-0.8-0.1-1.3-0.7-1.3-2C205.5,150.7,205.7,150.9,205.9,151.1
				C205.9,151.1,205.9,151.1,205.9,151.1z"/>
			<path d="M255.7,143.7c0,0.2,0,0.3-0.1,0.5c-0.2,0.3-0.4,0.6-0.6,0.9c-0.1-0.2-0.3-0.4-0.2-0.5c0.2-0.4,0.4-0.7,0.6-1.1
				C255.4,143.6,255.6,143.6,255.7,143.7z"/>
			<path d="M236.5,108.8c-0.6-0.2-1.1-0.3-1.7-0.5c0-0.2,0.1-0.3,0.1-0.5c0.6,0.1,1.2,0.3,1.7,0.4
				C236.5,108.4,236.5,108.6,236.5,108.8z"/>
			<path d="M244.4,159.6c-0.5,0.2-0.9,0.4-1.4,0.6c0-0.1-0.1-0.2-0.1-0.3c0.3-0.6,0.8-0.8,1.3-0.8
				C244.3,159.3,244.4,159.4,244.4,159.6z"/>
			<path d="M211.6,157.5c0.4,0.4,1,1,1.3,1.3C212.1,158.7,211.6,158.2,211.6,157.5z"/>
			<path d="M210.6,127.1c-0.3,0.4-0.5,0.6-0.7,0.9c-0.3-0.3-0.6-0.6-1.1-1C209.5,127.1,209.9,127.1,210.6,127.1z"/>
			<path d="M209.7,138.4c1,0.1,1.1,0.5,0.5,1.7C210,139.5,209.9,139,209.7,138.4z"/>
			<path d="M246.9,113.8c0.4,0.4,0.7,0.7,1.1,1.1c-0.1,0.1-0.2,0.2-0.3,0.3c-0.4-0.4-0.8-0.7-1.2-1.1
				C246.6,114,246.7,113.9,246.9,113.8z"/>
			<path d="M237,163.3c-0.2-0.2-0.3-0.4-0.4-0.5c0.3-0.2,0.7-0.4,1-0.6c0.1,0,0.3,0.2,0.4,0.3C237.6,162.8,237.3,163.1,237,163.3z"
				/>
			<path d="M211.7,129.4c0,0.4,0,0.8,0,1.2c-0.1,0.1-0.2,0.1-0.3,0.2c-0.2-0.3-0.5-0.5-0.5-0.8c0-0.2,0.4-0.5,0.6-0.7
				C211.6,129.3,211.6,129.3,211.7,129.4z"/>
			<path d="M229.9,163.9c0.5,0,0.9,0,1.4,0c0,0.1,0,0.4-0.1,0.4c-0.4,0.1-0.9,0.1-1.3,0.1C229.9,164.3,229.9,164.1,229.9,163.9z"/>
			<path d="M205.9,147.6c-0.3,0.7-0.2,1.1,0.6,1.4c-0.1,0.1-0.1,0.2-0.2,0.2c-0.3-0.1-0.7,0-0.8-0.2c-0.2-0.3-0.3-0.8-0.3-1.2
				C205.3,147.8,205.7,147.7,205.9,147.6L205.9,147.6z"/>
			<path d="M242.1,160.7c-0.4,0.3-0.7,0.6-1.1,1c-0.1-0.1-0.2-0.2-0.4-0.4c0.3-0.3,0.7-0.6,1-1C241.9,160.4,242,160.6,242.1,160.7z"
				/>
			<path d="M255.2,126c0.1,0.4,0.2,0.9,0.3,1.3c0,0-0.4,0.1-0.4,0.1c-0.2-0.4-0.3-0.8-0.4-1.3C254.8,126.1,255,126,255.2,126z"/>
			<path d="M255.7,130c-0.1-0.5-0.2-1-0.3-1.5c0.2,0,0.3-0.1,0.5-0.1c0.1,0.5,0.2,1,0.3,1.5C256,129.9,255.8,129.9,255.7,130z"/>
			<path d="M248.6,155c0.3-0.3,0.6-0.6,1-0.9c0.1,0.1,0.3,0.3,0.3,0.3c-0.3,0.3-0.6,0.7-0.8,1C248.8,155.3,248.7,155.2,248.6,155z"
				/>
			<path d="M240,161.6c-0.3,0.3-0.5,0.5-0.8,0.7c-0.1,0.1-0.3-0.2-0.5-0.3c0.4-0.3,0.7-0.6,1.1-0.8
				C239.8,161.4,239.9,161.5,240,161.6z"/>
			<path d="M245,158.5c0.4-0.3,0.7-0.7,1.1-1C246.4,158.2,246,158.6,245,158.5z"/>
			<path d="M229.2,163.9c-0.4,0.8-0.7,0.9-1.7,0.1C228.1,164,228.6,164,229.2,163.9z"/>
			<path d="M253.3,149.7c-0.6-0.8-0.4-1.3,0.6-1.5C253.7,148.8,253.5,149.2,253.3,149.7z"/>
			<path d="M242.6,110.7c0.4,0.3,0.8,0.7,1.3,1.1C242.7,111.9,242.3,111.5,242.6,110.7z"/>
			<path d="M255.7,131.5c0.2-0.3,0.3-0.5,0.5-0.7c0.1,0.2,0.4,0.4,0.4,0.7c0,0.2-0.2,0.4-0.3,0.6C256.1,132,255.9,131.8,255.7,131.5
				z"/>
			<path d="M249.2,117c-0.3-0.4-0.6-0.8-0.9-1.2c0.1-0.1,0.3-0.2,0.4-0.3c0.3,0.4,0.6,0.8,0.9,1.3
				C249.4,116.8,249.3,116.9,249.2,117z"/>
			<path d="M220.8,111.7c-0.2-0.8,0.3-1.3,1.6-1.3C221.8,110.9,221.3,111.3,220.8,111.7z"/>
			<path d="M253.1,122.8c-0.2-0.5-0.3-0.9-0.5-1.4c0.1,0,0.2-0.1,0.3-0.1c0.5,0.4,0.8,0.8,0.6,1.4
				C253.4,122.8,253.2,122.8,253.1,122.8z"/>
			<path d="M213.1,150.5c0.4-0.3,0.8-0.7,1.2-1c-0.1-0.1-0.1-0.2-0.2-0.3c-0.1,0.3,0,0.7-0.2,0.9c-0.3,0.3-0.7,0.3-1.1,0.5
				C212.9,150.4,213,150.4,213.1,150.5z"/>
			<path d="M251.3,152.8c-0.3,0.3-0.6,0.5-0.9,0.8c-0.1-0.1-0.2-0.3-0.2-0.4c0.2-0.3,0.5-0.5,0.8-0.8
				C251.1,152.5,251.2,152.6,251.3,152.8z"/>
			<path d="M254.2,123.7c0.2,0.4,0.4,0.8,0.6,1.2c-0.1,0.1-0.3,0.1-0.4,0.2c-0.2-0.4-0.4-0.8-0.6-1.2
				C253.9,123.8,254,123.8,254.2,123.7z"/>
			<path d="M246.8,156.7c0.4-0.2,0.8-0.5,1.2-0.7c0,0.2,0.1,0.4,0,0.5c-0.3,0.3-0.6,0.5-1,0.7C247,157,246.9,156.8,246.8,156.7z"/>
			<path d="M214.9,154.9c-0.3-0.5-0.6-0.9-0.8-1.4c0.1-0.1,0.2-0.1,0.3-0.2c0.3,0.4,0.6,0.9,0.9,1.3
				C215.2,154.7,215.1,154.8,214.9,154.9z"/>
			<path d="M237.5,108.6c0.4,0.2,0.9,0.4,1.3,0.6c-0.1,0.1-0.1,0.3-0.2,0.4c-0.4-0.2-0.9-0.4-1.3-0.5
				C237.4,108.8,237.5,108.7,237.5,108.6z"/>
			<path d="M210.3,152.5c0.6,0,0.9,0,1.5,0c-0.4,0.4-0.6,0.6-0.8,0.8C210.8,153.1,210.7,152.9,210.3,152.5z"/>
			<path d="M225.2,108.5c0.9-0.7,1.3-0.8,2.1-0.1c-0.5,0-0.8,0-1.1,0C226,108.4,225.7,108.4,225.2,108.5z"/>
			<path d="M208.2,120.8c-0.2,0.4-0.3,0.7-0.6,1.3c-0.1-0.5-0.3-0.8-0.2-1c0.1-0.2,0.5-0.4,0.7-0.5
				C208.1,120.7,208.1,120.8,208.2,120.8z"/>
			<path d="M250.7,118.8c-0.2-0.4-0.5-0.7-0.7-1.1c0.1-0.1,0.2-0.2,0.4-0.2c0.2,0.4,0.5,0.7,0.7,1.1
				C250.9,118.7,250.8,118.8,250.7,118.8z"/>
			<path d="M205.9,151.1c0.2-0.1,0.5-0.3,0.5-0.3c0.2,0.3,0.4,0.6,0.6,1c-0.1,0.1-0.2,0.1-0.2,0.2
				C206.4,151.7,206.2,151.4,205.9,151.1C205.9,151.1,205.9,151.1,205.9,151.1z"/>
			<path d="M205.3,135.1c-0.4,0.5-0.8,1-1.2,1.5c-0.1-0.1-0.2-0.2-0.3-0.4C204.2,135.9,204.8,135.5,205.3,135.1
				C205.3,135.2,205.3,135.1,205.3,135.1z"/>
			<path d="M205.9,147.7c1.2-0.3,0.8,0.6,1,1.2C206.5,148.4,206.2,148,205.9,147.7C205.9,147.6,205.9,147.7,205.9,147.7z"/>
			<path d="M252,120.6c-0.2-0.3-0.4-0.7-0.6-1c0.1-0.1,0.2-0.1,0.3-0.2c0.2,0.3,0.4,0.7,0.6,1C252.2,120.5,252.1,120.6,252,120.6z"
				/>
			<path d="M208.7,126.3c-0.2-0.5-0.4-1-0.6-1.5c0.1,0,0.2-0.1,0.3-0.1c0.2,0.5,0.4,1,0.6,1.5C208.9,126.2,208.8,126.3,208.7,126.3z
				"/>
			<path d="M212.1,155.8c-0.2-0.2-0.5-0.3-0.7-0.5c0,0,0.2-0.2,0.2-0.4c0.2,0.2,0.5,0.4,0.7,0.6
				C212.3,155.6,212.2,155.7,212.1,155.8z"/>
			<path d="M218.3,123.8c0.1-0.4,0.1-0.7,0.2-1.1c0.1,0,0.2,0,0.4,0.1c0,0.4-0.1,0.7-0.1,1.1C218.6,123.8,218.4,123.8,218.3,123.8z"
				/>
			<path d="M207.7,132.4c0.3-0.3,0.6-0.7,1-1c0.1,0.1,0.1,0.1,0.2,0.2c-0.3,0.4-0.6,0.8-0.9,1.2
				C207.9,132.5,207.8,132.5,207.7,132.4z"/>
			<path d="M209.4,139.8c-0.1-0.2-0.2-0.4-0.2-0.7c0.1,0,0.3-0.1,0.4-0.1c0,0.2,0.1,0.5,0.1,0.7
				C209.6,139.8,209.5,139.8,209.4,139.8z"/>
			<path d="M207.9,135.8c0.1-0.4,0.3-0.8,0.4-1.2c0.1,0,0.1,0,0.2,0.1c-0.1,0.4-0.3,0.8-0.4,1.2C208.1,135.9,208,135.9,207.9,135.8z
				"/>
			<path d="M218.2,118c-0.1,0.2-0.2,0.4-0.3,0.6c-0.1-0.1-0.2-0.1-0.3-0.2c0.2-0.2,0.3-0.4,0.5-0.6c0,0,0,0,0,0
				C218,117.9,218.1,117.9,218.2,118C218.2,118,218.2,118,218.2,118z"/>
			<path d="M205.2,125c-0.2,0.2-0.3,0.4-0.5,0.5c-0.1-0.1-0.2-0.2-0.3-0.3c0.2-0.2,0.3-0.4,0.5-0.6C205,124.8,205.1,124.9,205.2,125
				z"/>
			<path d="M222.1,109.7c0.2-0.1,0.5-0.1,0.7-0.2c0,0.1,0.1,0.2,0.1,0.3c-0.2,0.1-0.4,0.2-0.7,0.3
				C222.2,109.9,222.2,109.8,222.1,109.7z"/>
			<path d="M217.2,129.7c-0.2,0-0.4,0.1-0.5,0.1c0-0.1-0.1-0.1-0.1-0.2c0.2-0.1,0.4-0.2,0.6-0.3
				C217.1,129.4,217.1,129.6,217.2,129.7C217.2,129.7,217.2,129.7,217.2,129.7z"/>
			<path d="M211,152.2c-0.2-0.1-0.5-0.2-0.7-0.3c0-0.1,0.1-0.2,0.1-0.3c0.2,0.1,0.5,0.1,0.7,0.2C211.1,152,211,152.1,211,152.2z"/>
			<path d="M211.2,117.5c0.3-0.1,0.4-0.2,0.5-0.2c0.1,0,0.2,0.1,0.3,0.2c-0.1,0.1-0.1,0.3-0.2,0.3
				C211.7,117.9,211.6,117.7,211.2,117.5z"/>
			<path d="M208.9,121c-0.1,0.2-0.1,0.4-0.2,0.6c-0.1,0-0.2,0-0.3-0.1c0.1-0.2,0.1-0.4,0.2-0.7C208.8,120.9,208.9,120.9,208.9,121z"
				/>
			<path d="M204.8,142.3c0-0.2-0.1-0.4-0.1-0.6c0.1,0,0.1,0,0.2-0.1c0,0.2,0.1,0.4,0.1,0.6C204.9,142.3,204.8,142.3,204.8,142.3z"/>
			<path d="M206.9,124.1c-0.1,0.2-0.2,0.3-0.3,0.5c-0.1,0-0.2-0.1-0.2-0.1c0.1-0.2,0.1-0.4,0.2-0.5C206.7,124,206.8,124,206.9,124.1
				z"/>
			<path d="M209.2,117.9c-0.1,0.2-0.2,0.4-0.4,0.5c-0.1,0-0.1-0.1-0.2-0.1c0.1-0.2,0.2-0.4,0.3-0.6
				C209,117.7,209.1,117.8,209.2,117.9z"/>
			<path d="M215.9,131.1c0,0,0.1,0.1,0.1,0.1c0,0.1-0.1,0.1-0.1,0.2c0,0-0.1-0.1-0.1-0.1C215.8,131.2,215.9,131.1,215.9,131.1z"/>
			<path d="M214.5,115.8c-0.1-0.1-0.2-0.1-0.3-0.2c0.1-0.1,0.1-0.2,0.2-0.3c0,0,0.2,0.1,0.2,0.1
				C214.7,115.6,214.6,115.7,214.5,115.8z"/>
			<path d="M206.1,123.7c-0.1-0.2-0.2-0.3-0.2-0.4c0-0.1,0.2-0.1,0.3-0.2c0,0.1,0.1,0.2,0.1,0.2
				C206.3,123.4,206.2,123.5,206.1,123.7z"/>
			<path d="M206.2,137.3c0.1-0.1,0.2-0.3,0.3-0.3c0.1,0,0.2,0.1,0.2,0.2c0,0.1-0.1,0.2-0.2,0.3C206.4,137.4,206.3,137.4,206.2,137.3
				z"/>
			<path d="M207.8,118.3c-0.1-0.1-0.2-0.1-0.3-0.2c0.1-0.1,0.1-0.2,0.2-0.3c0,0,0.2,0.1,0.2,0.1C207.9,118,207.8,118.1,207.8,118.3z
				"/>
			<path d="M217.2,111.8c-0.1-0.1-0.2-0.2-0.3-0.3c0.1-0.1,0.2-0.2,0.2-0.1c0.1,0.1,0.2,0.2,0.3,0.3
				C217.3,111.7,217.2,111.7,217.2,111.8z"/>
			<path d="M204.9,132c-0.1,0.1-0.2,0.1-0.3,0.2c0-0.1,0-0.2,0-0.3c0,0,0.2,0,0.2-0.1C204.8,131.9,204.9,131.9,204.9,132z"/>
			<path d="M214.3,159.7c-0.1-0.1-0.2-0.1-0.2-0.2c0.1-0.1,0.1-0.2,0.2-0.3c0.1,0.1,0.2,0.1,0.2,0.2
				C214.5,159.5,214.4,159.6,214.3,159.7z"/>
			<path d="M204.9,123.4c-0.1-0.1-0.1-0.2-0.2-0.3c0.1,0,0.2-0.1,0.2-0.1c0,0,0.1,0.1,0.1,0.1C205,123.2,205,123.3,204.9,123.4z"/>
			<path d="M208.7,133.6c0.1-0.2,0.2-0.3,0.3-0.5c0.1,0,0.1,0.1,0.2,0.1c-0.1,0.2-0.2,0.3-0.3,0.5
				C208.8,133.7,208.7,133.6,208.7,133.6z"/>
			<path d="M223.6,109.3c0.2-0.1,0.4-0.3,0.5-0.4c0,0.1,0.1,0.1,0.1,0.2C224.1,109.2,223.9,109.3,223.6,109.3L223.6,109.3z"/>
			<path d="M216.1,132.1c0.1-0.1,0.1-0.2,0.2-0.2c0.1,0.1,0.2,0.1,0.2,0.2c-0.1,0.1-0.1,0.2-0.2,0.2
				C216.3,132.3,216.2,132.2,216.1,132.1z"/>
			<path d="M205.1,131.7c0.1,0,0.1-0.1,0.2-0.1c0,0.1,0.1,0.1,0,0.2c0,0-0.1,0.1-0.2,0.1C205.2,131.8,205.1,131.7,205.1,131.7z"/>
			<path d="M214.8,160.4c-0.1-0.1-0.2-0.2-0.2-0.3c0.1,0,0.2-0.1,0.2-0.1c0.1,0,0.1,0.1,0.2,0.2C215,160.2,214.9,160.3,214.8,160.4z
				"/>
			<path d="M208.6,139.8c0,0-0.1-0.1-0.1-0.1c0,0,0.1-0.1,0.1-0.1c0,0,0.1,0.1,0.1,0.1C208.7,139.7,208.7,139.8,208.6,139.8z"/>
			<path d="M206,127.4c0.1-0.1,0.1-0.2,0.2-0.2c0.1,0,0.2,0.1,0.2,0.1c0,0.1-0.1,0.2-0.1,0.2C206.2,127.5,206.1,127.4,206,127.4z"/>
			<path d="M219.9,159c0-0.1,0.1-0.1,0.1-0.2c0.1,0,0.1,0.1,0.2,0.1c0,0-0.1,0.1-0.1,0.1C220,159.1,219.9,159.1,219.9,159z"/>
			<path d="M209.4,123.8c0,0.1,0.1,0.2,0.1,0.3c0,0-0.1,0.1-0.1,0.1c0-0.1-0.1-0.2-0.1-0.4C209.3,123.8,209.4,123.8,209.4,123.8z"/>
			<path d="M208,142.4c0.1,0.1,0.1,0.2,0.1,0.2c0,0.1-0.1,0.1-0.2,0.2c0,0-0.1-0.1-0.1-0.1C207.8,142.5,207.9,142.5,208,142.4z"/>
			<path d="M215.5,116.6c0.1,0.1,0.2,0.1,0.2,0.2c0,0-0.1,0.2-0.2,0.2c-0.1,0-0.2-0.1-0.2-0.1C215.3,116.8,215.4,116.7,215.5,116.6z
				"/>
			<path d="M201.3,142c-0.1-0.2-0.1-0.3-0.2-0.4c0,0,0-0.1,0.1-0.1c0.1,0,0.2,0,0.2,0.1C201.4,141.6,201.4,141.7,201.3,142z"/>
			<path d="M214,113.6c0.2-0.1,0.3-0.2,0.4-0.2c0.1,0,0.1,0.1,0.1,0.2c0,0.1-0.1,0.1-0.2,0.1C214.3,113.7,214.2,113.7,214,113.6z"/>
			<path d="M216.6,113.5c0-0.1,0-0.1,0.1-0.1c0,0,0.1,0,0.2,0.1c0,0,0,0.1-0.1,0.1C216.8,113.5,216.7,113.5,216.6,113.5z"/>
			<path d="M220.9,159.5c-0.1,0-0.2,0-0.4,0c0,0,0-0.1,0-0.1c0.1,0,0.2,0,0.4,0C220.9,159.4,220.9,159.5,220.9,159.5z"/>
			<path d="M209.2,137.6c-0.1,0-0.1,0-0.1-0.1c0,0,0-0.1,0.1-0.2c0,0,0.1,0,0.1,0.1C209.3,137.4,209.2,137.5,209.2,137.6z"/>
			<path d="M206.1,139.4c0,0-0.1-0.1-0.1-0.1c0.1,0,0.1-0.1,0.2-0.1c0,0.1,0.1,0.1,0.1,0.2C206.3,139.3,206.2,139.3,206.1,139.4z"/>
			<path d="M208.9,116.4c0,0,0.1-0.1,0.1-0.1c0,0.1,0.1,0.1,0.1,0.2c0,0-0.1,0.1-0.1,0.1C209,116.4,208.9,116.4,208.9,116.4z"/>
			<path d="M217.3,117.4c0,0.1,0.1,0.1,0.1,0.1c-0.1,0-0.1,0.1-0.2,0.1c0-0.1-0.1-0.1,0-0.2C217.2,117.4,217.3,117.4,217.3,117.4z"
				/>
			<path d="M208.4,132.9c0,0.1,0.1,0.1,0.1,0.2c-0.1,0-0.2,0.1-0.2,0.1c0-0.1-0.1-0.1,0-0.2C208.3,132.9,208.3,132.9,208.4,132.9z"
				/>
			<path d="M204.9,143.2C204.9,143.1,204.9,143.1,204.9,143.2c0.1,0,0.1,0,0.1,0C205,143.2,205,143.2,204.9,143.2
				C204.9,143.2,204.9,143.2,204.9,143.2z"/>
			<path d="M215.8,114.4C215.8,114.4,215.8,114.4,215.8,114.4c0.1,0,0.1,0.1,0.2,0.1c0,0-0.1,0-0.1,0
				C215.8,114.5,215.8,114.5,215.8,114.4z"/>
			<path d="M200.9,140.9c0.1,0,0.1,0,0.2-0.1c0,0,0,0,0.1,0.1C201.1,140.9,201.1,140.9,200.9,140.9C201,141,201,140.9,200.9,140.9z"
				/>
			<path d="M216.1,130.4C216.1,130.4,216.2,130.4,216.1,130.4C216.2,130.4,216.1,130.4,216.1,130.4
				C216.1,130.4,216.1,130.4,216.1,130.4C216.1,130.4,216.1,130.4,216.1,130.4z"/>
			<path d="M219.4,111C219.4,111,219.5,111,219.4,111c0.1,0,0.1,0,0.1,0C219.5,111.1,219.5,111.1,219.4,111
				C219.4,111.1,219.4,111,219.4,111z"/>
			<path d="M219.5,131.4c0,0,0-0.1-0.1-0.2c0,0,0,0,0.1-0.1C219.5,131.3,219.5,131.3,219.5,131.4
				C219.6,131.4,219.5,131.4,219.5,131.4z"/>
			<path d="M223.7,109.4c-0.1,0-0.2,0.1-0.2,0.1C223.5,109.4,223.5,109.3,223.7,109.4C223.6,109.3,223.7,109.4,223.7,109.4z"/>
			<path d="M216.7,117.1C216.8,117.1,216.8,117,216.7,117.1c0.1,0,0.1,0,0.2,0C216.9,117.1,216.8,117.1,216.7,117.1
				C216.8,117.2,216.8,117.1,216.7,117.1z"/>
			<path d="M211.3,137.3c0,0,0.1,0,0.1-0.1c0,0,0,0,0.1,0.1C211.4,137.3,211.4,137.3,211.3,137.3
				C211.3,137.3,211.3,137.3,211.3,137.3z"/>
			<polygon points="215.4,148.3 215.3,148.3 215.4,148.3 			"/>
			<polygon points="219.1,130.2 219.1,130.2 219.1,130.2 			"/>
			<path d="M204.3,121.7C204.3,121.7,204.3,121.7,204.3,121.7c0.1,0,0.1,0,0.1,0C204.4,121.7,204.4,121.8,204.3,121.7
				C204.3,121.8,204.3,121.7,204.3,121.7z"/>
			<path d="M210.2,143.3C210.2,143.3,210.2,143.3,210.2,143.3c0.1,0,0.1,0,0.1,0C210.3,143.3,210.2,143.4,210.2,143.3
				C210.2,143.4,210.2,143.3,210.2,143.3z"/>
		</g>
	</g>
	<ellipse fill="none" stroke="#000000" stroke-miterlimit="10" cx="228.3" cy="136" rx="28.7" ry="28.6"/>
</g>
<g>
	<path fill="none" stroke="#000000" stroke-miterlimit="10" d="M157,43.5c19.5,0,34.5,5.5,49.5,15.1C220,67.2,233,80,238.4,101.1"/>
	<path fill="none" stroke="#000000" stroke-miterlimit="10" d="M169,67.5c20.5,2.5,39.5,16.5,45.5,35.2"/>
	<g>
		<path d="M61.6,152.3c-5.9-4.6-11-9.6-15.3-15.2c-8.9-11.4-14.2-24.8-15.3-38.6c-0.6-7.1-0.8-17.1,3.5-22.8l-0.8-0.6
			c-4.6,5.9-4.3,16.2-3.7,23.5c1.1,14,6.5,27.5,15.6,39.1c4.3,5.5,9.4,10.6,15.3,15.1C61,152.6,61.3,152.4,61.6,152.3z"/>
		<path d="M238.2,170.5c-52.7,17.8-98.5,12.6-130,3.8v1c16.2,4.5,36.1,8.1,58.8,8.1c21.6,0,45.8-3.2,71.6-12L238.2,170.5z"/>
	</g>
	<g>
		<path d="M65.4,126.6C49.3,109.5,45.1,92,45.1,91.8l-1,0.2c0,0.2,4.3,18.1,20.7,35.4C64.9,127.1,65.1,126.8,65.4,126.6z"/>
		<path d="M184.5,157.6c-32,4.2-56.7,1.5-75.6-4.5c0,0,0,0,0,0v1c12.6,4,27.8,6.5,46,6.5c9.1,0,19-0.6,29.7-2.1L184.5,157.6z"/>
	</g>
	<g>
		<path d="M63.7,140.6c0.2-0.3,0.4-0.6,0.6-0.8c-13.2-11.3-19.2-21.3-19.2-21.4l-0.9,0.5C44.2,119,50.3,129.1,63.7,140.6
			C63.7,140.6,63.7,140.6,63.7,140.6z"/>
		<path d="M199.4,170.5c-38.5,6.3-68.6,2-91-5.6c0.1,0.4,0.2,0.8,0.3,1.2c14.8,5,33,8.6,54.6,8.6c11.1,0,23.2-0.9,36.2-3.1
			L199.4,170.5z"/>
	</g>
	<path fill="none" stroke="#000000" stroke-miterlimit="10" d="M152,30.3c0,0,92.1,7.4,95.1,74.1"/>
</g>
</svg>
