<?xml version="1.0" encoding="utf-8"?>
<!-- Generator: Adobe Illustrator 17.1.0, SVG Export Plug-In . SVG Version: 6.00 Build 0)  -->
<!DOCTYPE svg PUBLIC "-//W3C//DTD SVG 1.1//EN" "http://www.w3.org/Graphics/SVG/1.1/DTD/svg11.dtd">
<svg version="1.1" id="Layer_1" xmlns="http://www.w3.org/2000/svg" xmlns:xlink="http://www.w3.org/1999/xlink" x="0px" y="0px"
	 viewBox="0 0 288 216" enable-background="new 0 0 288 216" xml:space="preserve">
<g>
	<path d="M265.5,89.3c-0.7-1.9-1.5-3.8-2.2-5.6c-1-2.3-2.2-4.5-3.8-6.3c-2.9-3.2-6-6.3-9.4-9.1c-2.1-1.7-4.2-3.4-6.3-5
		c-3.7-3-7.5-5.9-11.2-8.9c-0.6-0.5-1.2-0.7-2-0.3c-0.1,0.1-0.2,0.1-0.4,0.1c-0.3,0.1-0.7,0.3-0.9-0.1c-0.1-0.2-0.1-0.6,0-0.8
		c0.5-1.2,0.9-2.5,1.6-3.6c1.6-2.9,3.3-5.7,4.9-8.6c1.3-2.3,2.7-4.5,3.3-7.1c0.5-2.1,1.1-4.3,1-6.5c0-0.5-0.1-1.1,0-1.6
		c0.2-2-0.4-3.9-1.1-5.7c-1.1-2.5-2.4-5-4.2-7.2c-1.5-1.8-3-3.2-5.1-4.2c-0.6-0.3-1.2-0.8-1.8-1.1c-0.5-0.3-1.1-0.6-1.7-0.9
		C225,6.5,224,6.3,223.1,6c-2.5-0.9-5.1-1.5-7.8-1.4c-1.6,0.1-3.1,0.1-4.7,0.3c-1.4,0.1-2.8,0.4-4.1,0.6c-1.7,0.3-3.2,1.2-4.9,1.8
		c-1.4,0.5-2.8,1.2-3.9,2.3c-0.4,0.4-0.9,0.7-1.4,1.1c-1.4,1.2-2.3,2.7-3.3,4.1c-0.1,0.1-0.1,0.2-0.1,0.4c-0.3,2.3-1.3,4.6-0.1,6.9
		c0,0,0,0.1,0,0.1c0.4,1.8,1.1,3.5,2.2,4.9c0.6,0.8,0.5,0.8-0.1,1.7c-0.6,0.7-0.8,1.5-0.9,2.5c-0.1,1.9,0.1,3.7,0.4,5.6
		c0.3,2.3,0.4,4.6-0.2,6.9c0,0.2-0.1,0.3-0.1,0.5c-0.1,2.7-0.4,5.3,0.5,7.9c0.1,0.2,0.1,0.5,0.2,0.7c0.2,0.8,0.4,1.7,0.7,2.4
		c1.3,3.2,3.5,5.6,6.1,7.8c0.3,0.2,0.5,0.5,0.9,0.8c-0.4,0.3-0.7,0.6-1.1,0.8c-1.7,0.9-3,2.2-4.2,3.6c-2.4,2.7-4.6,5.6-6.9,8.4
		c-1.4,1.8-2.7,3.8-4.5,5.3c-2.1,1.7-4.5,2.9-7,3.8c-1.4,0.5-2.9,0.8-4.5,0.9c-0.8,0-1.5,0.1-2.3,0.1c-0.7,0-1.4-0.2-2-0.1
		c-1.4,0.3-2.8-0.1-4.1-0.3c-1.1-0.2-2-0.7-2.8-1.4c-0.1,0-0.1-0.1-0.1-0.2c-1.6,0-3.2,0.1-4.7,0.4c-0.4,0.2-0.8,0.5-1.3,0.7
		c0.2-0.1,0.5-0.1,0.7-0.2c0.5-0.1,0.9,0.2,0.6,0.6c-0.7,1.2-1.3,2.4-2.3,3.3c-1-0.7-1.8-1.3-2.7-2c-0.7,0.3-1.4,0.5-2.1,0.7
		c-0.2,0.1-0.3,0.2-0.5,0.3c0.3,0.3,0.5,0.8,0.5,1.4c0.1,0.6,0.1,1.2,0.1,1.8c0.5,0.1,0.7,0.4,1,1.3c1.1,3.3,3.1,5.9,6,7.8
		c0.2,0,0.5,0.1,0.7,0.2c0.6,0.3,1.1,0.7,1.6,1.1c0.4,0.3,0.8,0.5,1.1,0.7c0.8,0.5,1.5,1.2,2.3,1.5c2.4,1,4.7,2,7.2,2.9
		c2.6,1,5.3,1.7,8.1,2.1c2.2,0.4,4.4,0.6,6.6,1c1.1,0.2,2.2,0.3,3.4,0c1.2-0.3,1.6,0,1.9,1.2c0.3,1.5,0.7,3,1,4.6
		c0.7,3.6,1.4,7.2,2.1,10.8c0.5,2.7,1,5.4,1.5,8.1c0.3,1.5,0.6,3,0.9,4.5c0.3,1.6,0.8,3.2,1.1,4.8c0.5,3.1,1.4,6.2,1.4,9.4
		c0,0.1,0,0.2,0.1,0.4c0.2,2,0.5,3.9,0.6,5.9c0.2,2,0.2,4,0.3,5.9c0,0.8,0.2,1,1,1c1.8,0.1,3.5,0.2,5.3,0.3c0.7,0,1.2,0.2,1.4,1
		c0.5,1.6,1.1,3.2,1.4,5c0.3,2.8,1.2,5.4,1.2,8.3c0,0.2,0.1,0.4,0.1,0.6c0.1,0.7,0.3,1.3,0.3,2c0,0.3-0.2,0.8-0.4,1
		c-1.2,0.7-1.8,1.8-2.5,3c-0.5,0.8-1.1,1.3-2,1.7c-1.4,0.5-2.8,1.3-3.9,2.3c-1.2,1.1-0.8,1.7,0.2,2.5c0.2,0.2,0.5,0.3,0.7,0.3
		c2.1,0.2,4.3,0.3,6.3-0.6c0.9-0.4,1.8-0.7,2.8-0.6c0.7,0,1.4,0.1,2,0c2.1-0.3,4.3-0.5,5.9-2.2c0.6-0.6,1-1.3,1-2.1
		c-0.1-2,0.2-4,0.5-6c0.3-2.1,0.5-4.2,0.8-6.3c0.3-2.1,0.6-4.2,0.9-6.2c0.1-0.8,0.4-1,1.2-0.8c0.8,0.3,1.6,0.4,2.4,0.3
		c0.8-0.1,1.2,0.4,1.6,1.1c1.1,2.4,2.3,4.7,3.5,7c1.1,2.3,2.3,4.6,3.3,7c1.2,2.7,2.2,5.4,3.4,8.1c0.4,0.9,0.4,1.7,0.2,2.6
		c-0.3,1.4-0.6,2.7-0.9,4.1c-0.3,1.8,0.1,3.4,1.7,4.4c0.6,0.4,1.1,0.7,1.7,1.1c0.7,0.5,1.4,0.4,2.2,0.3c1.9-0.4,3.9-0.8,5.8-1
		c1-0.1,1.9-0.5,2.8-1c1.5-0.8,1.9-2.1,1.7-3.5c-0.2-2-0.7-3.9-1.8-5.6c-0.2-0.3-0.4-0.8-0.4-1.2c-0.1-1.2-0.2-2.4-0.3-3.5
		c-0.1-1.2-0.2-2.4-0.3-3.7c-0.1-1.4-0.3-2.8-0.4-4.3c-0.1-1.3-0.2-2.5-0.3-3.8c-0.2-1.7-0.3-3.4-0.5-5c-0.1-0.9-0.1-1.9-0.3-2.8
		c-0.3-1,0.2-1.4,1.2-1.4c1.7,0,1.9-0.3,1.7-1.9c0-0.1,0-0.3-0.1-0.4c-0.2-1.5-0.4-3.1-0.4-4.7c0.1-2.3,0-4.7,0-7c0-0.2,0-0.4,0-0.6
		c0.2-1.8,0.5-3.7,0.7-5.5c0.1-0.9,0.2-1.8,0.3-2.6c0.1-1.9,0.1-3.8,0.1-5.7c0-1.4,0.2-2.7,0.7-4c0.1-0.3,0.3-0.8,0.2-1.1
		c-0.2-0.7,0-1.1,0.5-1.4c0.8-0.6,1.5-1.2,2.4-1.7c1.6-0.9,3.1-2.1,4.4-3.4c0.4-0.4,0.8-0.8,1.1-1.2c0.9-1.1,0.8-1.4,0-2.6
		c-0.5-0.6-1-1.3-1.3-2c-1-2.3-2-4.6-3-6.9c-0.2-0.6-0.2-1,0.2-1.5c0.5-0.6,1-1.3,1.5-1.9c1.3-1.8,2.6-3.5,3.5-5.6
		c0.6-1.4,1.3-2.8,1.9-4.2c0.2-0.5,0.5-1.1,0.6-1.7c0.6-2.8,0.8-5.7,0.7-8.6C266.2,92,266,90.6,265.5,89.3z M229.6,57.1
		c0.2,0.9,0.4,1.9,0.6,2.8c0.2,1.5,0.4,3.1,0.6,4.6c0,0.3,0.1,0.7,0,1c-0.4,2.5-0.3,5.1-1.1,7.6c-0.2,0.4-0.4,0.9-0.5,1.3
		c-0.5,1.3-0.2,2,1.1,2.4c0.2,0,0.3,0.1,0.5,0.1c0.9,0.3,1.1,0.6,0.7,1.5c-0.6,1.3-1.2,2.5-2.3,3.4c-1.5,1.3-3,2.7-4,4.4
		c-0.5,0.9-0.9,1.9-1.2,2.9c-0.2,0.8,0.2,1.5,0.5,2.2c0.2,0.4,0.5,0.8,0.7,1.2c-1.2,1.4-2.8,2.1-4.4,3.1c-0.1-0.4-0.2-0.7-0.1-1
		c0.1-1.1,0.2-2.3,0.4-3.4c0.3-1.6,0.6-3.2,1-4.8c0.4-1.5,0.8-3.1,1.4-4.6c0.9-2.5,2-4.9,2.9-7.4c0.7-1.9,1.4-3.9,1.7-5.9
		c0.4-2.2,0.4-4.4,0.5-6.7c0-1.6,0.1-3.3,0.2-4.9c0-0.1,0.1-0.3,0.3-0.7C229.3,56.6,229.5,56.8,229.6,57.1z M248.7,94.3
		c-1.5,3.2-3.1,6.3-5.4,9c-1.4,1.7-3,3.2-5,4.2c-0.3,0.1-0.7,0.3-0.8,0.5c-0.3,1-1.1,0.9-1.8,1c-2.3,0-4.6,0-6.9,0
		c-1.3,0-2.4,0.4-3.4,1.2c-0.4,0.3-0.7,0.8-1.1,1.3c-0.2-0.3-0.4-0.5-0.5-0.7c-0.6-1.5-1.3-3-1.9-4.6c-0.2-0.5-0.3-1-0.3-1.5
		c0-0.5,0.3-0.9,0.7-1.2c3.5-2.1,7.1-4.2,10.8-6.2c4.3-2.3,8.6-4.6,12.9-6.9c0.3-0.1,0.5-0.3,0.9-0.4c0.3,0.3,0.5,0.6,0.7,0.9
		c0.4,0.7,0.7,1.5,1.1,2.3C248.9,93.5,248.9,93.9,248.7,94.3z M249.2,88.9c0.2-0.2,0.4-0.3,0.7-0.4c1.4-0.6,1.7-0.4,1.7,1.3
		c0,0.8-0.2,1.6-0.8,2.4c-0.3,0.3-0.6,0.3-0.8,0c-0.4-0.7-0.7-1.4-1.1-2.1C248.6,89.6,248.8,89.2,249.2,88.9z M227.6,125.6
		c-0.5-0.2-1-0.2-1.5-0.4c-0.6-0.3-1.2-0.6-1.8-0.9c-0.1-0.1-0.2-0.4-0.3-0.7c1.3,0.1,2.3,1.2,3.6,0.8c-0.1-1-0.8-1.4-1.4-1.7
		c-0.6-0.3-1.3-0.5-2-0.8c-0.6-0.3-1.3-0.7-1.1-1.7c0.4,0.1,0.6,0.3,0.9,0.4c0.7,0.3,1.4,0.7,2.2,0.9c0.2,0.1,0.7-0.1,0.8-0.2
		c0.1-0.3,0-0.7-0.1-0.9c-0.3-0.5-0.7-0.7-1.3-0.8c-0.7-0.2-1.3-0.4-1.8-1.1c0.3,0,0.5-0.1,0.7-0.1c1.4-0.3,2.6-0.9,3.5-2.1
		c0.7-0.9,1.3-1.8,1.9-2.7c0.3-0.4,0.4-0.9,0-1.3c-0.3-0.4-0.8-0.3-1.2-0.1c-0.9,0.6-1.8,0.3-2.9,0.2c0.2-0.4,0.2-0.6,0.4-0.7
		c0.7-0.3,1.5-0.7,2.3-0.7c2.1-0.1,4.2-0.1,6.3,0.4c0.9,0.2,1.9,0.2,2.9-0.2c0.8-0.4,0.9-0.3,1.4,0.5c0.7,1,1.4,2,2,3.1
		c1,1.8,0.9,3.6-0.2,5.4c-1.1,1.8-2.4,3.3-4,4.8c-1,0.9-2.1,1.4-3.3,1.9c-1,0.4-2.1,0.8-3.2,1.2c-0.4,0.1-0.7,0.2-1.1-0.1
		c-0.4-0.3-0.8-0.4-1.2-0.7c0-0.2,0-0.3,0-0.4C228.5,125.9,228.5,125.9,227.6,125.6z M221.4,118.7c0.1,0.3,0.2,0.7,0.1,1
		c-0.2,0.8-0.1,1.5,0.1,2.3c0.2,0.5-0.1,1.2-0.2,1.8c-0.4,1.5-0.8,3-1.2,4.5c-0.1,0.3-0.2,0.5-0.4,1c-0.1-0.4-0.3-0.6-0.3-0.8
		c0.1-1.1,0.1-2.1,0.2-3.1c0.3-2.2,0-4.5,0.1-6.7c0-0.3-0.1-0.6,0-0.9c0.7-2.4,0.4-4.9,0.5-7.3c0-0.4,0-0.8,0-1.1
		c0-0.2,0.2-0.4,0.3-0.6c0.1,0,0.2,0,0.3,0c0.8,2.1,1.5,4.3,2.3,6.4c-0.1,0.1-0.1,0.2-0.1,0.2C221.7,116.1,221.1,117.2,221.4,118.7z
		 M224.8,113.9c0.1-0.1,0.2-0.2,0.2-0.2c0.5,0.1,1,0.2,1.4,0.4c0.2,0.1,0.5,0.5,0.4,0.6c-0.2,0.4-0.4,0.7-0.8,0.9
		c-0.1,0.1-0.5-0.1-0.6-0.3C225.2,114.8,225,114.3,224.8,113.9z M246.9,87.7c-2.4,1.3-4.8,2.5-7.2,3.8c-3.6,2-7.2,3.9-10.8,5.9
		c-3.4,1.9-6.7,3.8-10,5.7c-0.9,0.5-1.5,0.2-1.6-0.7c0-0.5,0.1-1,0.3-1.4c0.6-1.1,1.6-1.8,2.6-2.5c1.6-1.2,3.5-2.1,5.2-3.1
		c0.1-0.1,0.2-0.1,0.3-0.2c1-0.6,1.7-1.3,1.4-2.5c-0.1-0.7-0.1-1.4-0.3-2.1c-0.5-1.7-0.1-3.3,1-4.6c1.6-1.8,3.5-3,5.9-3
		c0.7,0,1.2,0.1,1.7,0.7c0.8,0.8,1.6,1.6,2.4,2.5c1.5,1.7,2.8,1.8,5.2,0.9c0.8-0.3,1.6-0.8,2.4-1.2c0.6-0.3,1.2-0.5,1.9-0.8
		c0.2,0.3,0.3,0.4,0.3,0.6C248.3,86.7,248.1,87,246.9,87.7z M206.9,71c0.6-0.7,0.9-0.6,1.4,0.2c0.4,0.7,0.5,1.3,0.1,2
		c-1,1.9-1.9,3.8-2.8,5.8c-0.7,1.6-1.3,3.2-2,4.8c-0.2,0.4-0.2,0.8-0.8,0.8c0.6-4.4,1.2-8.7,1.8-13.2
		C205.6,72.1,206.2,71.8,206.9,71z M206.7,66.8c0-0.4,0.1-0.8,0.5-0.9c0.3-0.1,0.7,0,1.1,0.2c0.3,0.1,0.6,0.4,0.9,0.6
		c-0.5,1-1.2,1.2-1.8,1.6c-0.3,0.2-0.6,0-0.6-0.4C206.7,67.6,206.7,67.2,206.7,66.8z M203.6,91.5c0.1-1.8,0.7-3.6,1.4-5.2
		c1.3-2.9,2.7-5.7,4-8.6c0.3-0.7,0.6-1.4,0.9-2.1c0.2-0.4,0.4-0.9,0.7-1.2c0.2-0.2,0.5-0.3,0.8-0.3c0.2,0.1,0.5,0.4,0.5,0.6
		c0,1.5,0.5,3,0.2,4.5c-0.2,1.1-0.3,2.2-0.3,3.3c-0.1,1.9-0.5,3.8-1.2,5.5c0.9,1.3,1.7,1.4,2.7,0.3c0.2-0.2,0.4-0.4,0.6-0.5
		c0.1,0,0.2,0,0.3,0c0.6,1.4,0.7,2.8,0.6,4.3c-0.2,1.7-0.8,3.3-1.5,4.8c-0.3,0.6-0.6,1.2-0.8,1.8c-0.3,0.8-0.1,1.2,0.7,1
		c0.3,0,0.7-0.1,1-0.3c1.1-0.6,1.9-1.5,2.5-2.7c-0.8-0.7-0.7-1.6-0.5-2.5c0.3-1.3,0.5-2.6,0.3-4c-0.2-1.2-0.5-2.2-1.8-2.8
		c-0.8-0.4-1.4-1.2-1.3-2.3c0.2-1.5,0.3-3,0.5-4.5c0-0.2,0.2-0.4,0.3-0.7c0.7,0.3,0.8,0.8,1,1.3c0.5,1.3,1,2.5,1.4,3.8
		c0.3,0.8,0.8,1.4,1.6,1.7c0.9,0.4,1.2,1,1.1,1.9c-0.1,1-0.3,1.9-0.3,2.9c-0.1,1.1,0,2.3,0,3.4c0,0.4,0.1,0.9-0.1,1.1
		c-0.8,1-1.2,2.3-2.4,3c-0.9,0.5-1,0.8-0.7,1.7c0.3,1.1,0.6,2.1,0.9,3.2c0.2,0.5,0.4,0.9,0.7,1.3c0.5,0.5,0.6,1.1,0.7,1.8
		c0.1,1.5-0.3,2.9-1,4.3c-1,1.9-1.9,3.8-2.9,5.6c-0.6,1-1.4,1.9-2,2.9c-0.5,0.8-1.1,1.6-1.6,2.4c-0.2,0.3-0.3,0.7-0.9,0.7
		c-0.1-0.2-0.3-0.5-0.4-0.7c-0.8-2.4-1.5-4.7-2.3-7.1c-0.8-2.3-1.3-4.7-1.7-7.1c-0.5-3.2-1-6.3-1.3-9.5
		C203.4,96.2,203.4,93.8,203.6,91.5z M219.9,73c2.7-2,4.3-4.8,5.5-7.9c0.1-0.2,0.1-0.4,0.2-0.6c0-0.1,0.1-0.1,0.3-0.2
		c0.1,0.2,0.2,0.3,0.2,0.5c-0.5,2.2-0.9,4.4-1.7,6.6c-0.7,2-1.4,4-2,6c-0.6,1.6-1.2,3.2-1.7,4.9c-0.3,0.9-0.5,1.9-0.8,2.8
		c-0.1,0.3-0.3,0.6-0.4,0.9l-0.3,0c-0.1-0.3-0.3-0.6-0.4-0.9c-1.1-3.3-2.1-6.6-3.2-9.9c-0.1-0.4-0.4-0.8-0.5-1.2
		c-0.2-0.5-0.4-1,0.1-1.6c0.2,0.1,0.4,0.2,0.6,0.3c0.1,0.1,0.2,0.2,0.3,0.2C217.3,74.1,218,74.3,219.9,73z M216.8,69.7
		c0-0.7,0.3-1.2,0.8-1.6c0.4-0.3,0.8-0.5,1.2-0.7c1.2-0.7,2.4-1.3,3.6-2.1c0.3-0.2,0.5-0.5,0.7-0.7c0.3-0.4,0.7-0.7,1.1-1.2
		c0,0.3,0.1,0.5,0,0.6c-0.8,1.8-1.8,3.5-3.1,5c-0.6,0.6-1.2,1.2-1.8,1.8c-0.5,0.5-1,0.9-1.8,0.9C216.7,71.3,216.8,70.5,216.8,69.7z
		 M214.8,70.2c-0.6,0.9-1.3,1.7-2.5,2c-0.2,0-0.3,0.1-0.5,0.1c-0.8-0.1-1.5-0.4-1.8-1c-0.3-0.6-0.1-1.2,0.2-1.8c0.4-0.6,0.8-1,1.5-1
		c0.5-0.1,1.1-0.2,1.6-0.3c0.7-0.1,1.3-0.1,1.7,0.5C215.4,69.3,215.1,69.8,214.8,70.2z M194.9,18.1c0.2-1.8,0.8-3.4,2.2-4.7
		c0.3-0.3,0.7-0.5,1.1-0.7c0.1,0.1,0.2,0.1,0.2,0.2c-0.1,0.5-0.2,1-0.3,1.4c-0.6,2-0.6,4.1,0,6.1c0.7,2.7,2.6,4.5,5,5.7
		c2.1,1.1,4.4,1.5,6.7,1.6c1.6,0.1,3.3,0.1,4.9-0.2c2.4-0.4,4.6-1.5,6.4-3.1c0.1-0.1,0.2-0.2,0.4-0.4c1-0.8,1.8-0.8,2.5,0.3
		c0.4,0.7,0.8,1.4,1.2,2.1c0.4,0.7,1,1.4,2,1.7c0-0.4,0.1-0.7,0.1-0.9c-0.9-2.5-2-4.9-4.2-6.5c-0.5-0.3-0.5-0.3-1.3-0.4
		c-0.1,0.1-0.2,0.3-0.2,0.4c-0.1,1.2-0.8,2.1-1.8,2.8c-1.6,1.2-3.4,1.8-5.3,2.5c-0.1,0-0.2,0.1-0.4,0.1c-2.7,0.1-5.4,0.2-7.9-0.5
		c-2-0.5-3.9-1.3-5.4-2.9c-0.5-0.6-0.9-1.2-1.1-2c-0.3-1.2-0.6-2.3-0.6-3.6c0-1.4,0.5-2.5,1-3.7c0.7-1.6,2.1-2.4,3.6-3.3
		c1.7-1,3.7-1.4,5.6-2c1.8-0.6,3.7-0.5,5.5-0.5c0.8,0,1.5,0.2,2.3,0.3c1,0.1,1.9,0.1,2.9,0.3c1.6,0.3,3.1,0.7,4.7,1.2
		c2.8,0.9,5.3,2.4,7.5,4.3c1.1,1,1.9,2.1,2.6,3.4c0.8,1.4,1.6,2.9,2,4.5c0.3,1.7,0.6,3.5,0.8,5.2c0.1,0.9-0.2,1.7-0.3,2.6
		c0,0.2-0.1,0.3-0.1,0.5c0.1,1.3-0.2,2.2-1.7,2.4c-1,0.2-1.9,0.7-2.8,1.1c-0.3,0.1-0.5,0.3-0.8,0.4c0.2,0.6,0.7,0.7,1.2,0.7
		c0.6,0,1.3-0.1,1.9-0.2c0.8-0.1,1.2,0.2,1,0.9c-0.3,1.3-1,2.5-1.8,3.6c-0.2,0.3-0.6,0.3-0.9,0.1c-0.2-0.2-0.4-0.4-0.6-0.6
		c-1-1-2.3-1.4-3.7-1.1c-1.7,0.4-1.8-0.3-1.6-1.6c0.2-1.5,0.1-2.9-0.5-4.3c-0.8-2-2.2-2.7-4.6-2.2c-1.2,0.3-2.3,0.7-3.5,1
		c-2.5,0.6-5.1,0.8-7.7,0.5c-2-0.2-4-0.4-6-0.8c-0.7-0.2-1.5-0.4-2.2-0.7c-1.2-0.5-2.5-0.7-3.8-0.6c-1.3,0.1-1.2,0-1.6-1.3
		c-0.4-1.2-0.9-2.3-1.4-3.5C195.1,21.9,194.7,20.1,194.9,18.1z M199.6,58c-0.2-0.6,0.5-1.3,1.3-1.4c0.7-0.1,1.4-0.1,2.2,0
		c0.8,0,1.2-0.4,1.4-1c0.2-0.4,0.1-0.7-0.4-0.9c-1.1-0.5-2.2-0.6-3.3-0.7c-0.3,0-0.7,0.3-1.1,0.6c-0.6,0.4-1.1,0.5-1.7,0.1
		c-0.6-0.4-1-1.3-0.7-1.7c0.1-0.2,0.5-0.4,0.8-0.5c1-0.1,1.9,0,2.9,0c0.6,0,1.1-0.2,1.3-0.9c-0.6-0.9-1.7-1.1-2.6-1.5
		c-0.9-0.5-2.1,0.1-2.9-0.8c0.1-0.2,0.1-0.5,0.2-0.8c0.9-1.8,1.8-3.6,2.5-5.5c0.4-1.1,0.6-2.4-0.5-3.4c-1-0.9-1.6-2.2-1.9-3.5
		c-0.1-0.4-0.1-0.8-0.1-1.3c0-0.6,0.2-1.2,0.2-1.8c0.1-0.8,0.4-1.4,0.9-1.9c0.5-0.6,2-0.7,3-0.2c0.8,0.4,1.6,0.8,2.4,1.1
		c1,0.3,2.1,0.4,3.2,0.6c0.3,0.1,0.6,0,0.9,0.1c2.4,0.6,4.9,0.6,7.3,0.4c2.1-0.1,4.2-0.4,6.2-1.1c0.6-0.2,1.2-0.5,1.8-0.9
		c0.8-0.5,1.2-0.5,1.7,0.4c0.5,1.1,0.8,2.4,0.5,3.6c-0.4,2.2-0.9,4.3-1.4,6.4c-0.1,0.6,0.2,1,0.5,1.3c0.4,0.4,0.9,0.3,1.3,0.1
		c0.7-0.4,1.2-0.8,1.4-1.7c0.3-1.1,1.5-2,2.6-2c1.1,0,1.7,0.5,1.9,1.5c0.1,0.6,0.1,1.2,0,1.8c-0.3,1.6-0.6,3.3-1.3,4.7
		c-0.4,0.8-1.1,1.5-1.6,2.2c-0.4,0.5-0.9,1-1.4,1.5c-1.1,1.2-1.8,2.6-2.1,4.3c-0.3,1.8-1.1,3.5-0.9,5.5c0.1,0.7-0.5,1.2-1,1.6
		c-1.3,0.9-2.6,1.8-4,2.5c-1.1,0.6-2.3,1-3.5,1.4c-1.3,0.5-2.6,0.1-3.8-0.3c-0.2-0.1-0.4-0.4-0.9-0.8c3.2-0.6,4.9-2.5,6.1-5.1
		c-0.6-0.5-0.9-0.2-1.3,0.1c-0.8,0.6-1.6,1.3-2.4,1.9c-1.4,1-3,1.7-4.7,2.1c-0.5,0.1-1,0.1-1.5,0.1c-1,0-1.6-0.5-1.9-1.5
		c-0.3-1.1-0.3-2.2,0.3-3.2c0.2-0.4,0.5-1,0-1.4c-0.6-0.5-0.9,0.1-1.3,0.4c-0.3,0.2-0.6,0.5-0.9,0.7C202,60.4,200,59.8,199.6,58z
		 M202.1,69.7c0.3-0.9,0.6-1.7,0.9-2.6c0.1-0.3,0.3-0.6,0.4-0.9c0.2-0.4,0.5-0.9,1-0.7c0.6,0.2,0.3,0.8,0.2,1.2
		c-0.4,1.2-0.8,2.4-1.2,3.6c-0.7,2.2-1.1,4.4-1.4,6.7c-0.2,2-0.7,4.1-1,6.1c0,0.2-0.1,0.5-0.1,0.7c-0.2,3.2-0.3,6.5-0.6,9.7
		c-0.4,4.2-0.1,8.4-0.2,12.7c0,1.8,0.2,3.7,0.3,5.6c0,0.4-0.1,0.8-0.1,1.2l-0.3,0c-0.3-1.7-0.6-3.4-0.9-5.1c-0.4-2.5-0.8-5-1.2-7.5
		c-0.3-2.2-0.8-4.3-0.7-6.5c0.1-1.3-0.2-2.6-0.3-3.9c0.2-0.1,0.3-0.2,0.4-0.3c1.4-0.3,1.3-0.3,1.5-1.7c0.3-2.3,0.1-4.6,0.6-6.9
		c0.4-1.8,0.5-3.6,0.8-5.4C201,73.7,201.6,71.7,202.1,69.7z M182,87.3c1.1-0.6,2.3-1.1,3.3-1.8c0.9-0.5,1.7-1.2,2.6-1.8
		c0.3-0.2,0.6-0.6,1.1-0.5c-0.7,1.7-1.7,3.1-3.2,4c-0.5,0.3-1.1,0.6-1.6,1c-0.8,0.7-1.6,0.9-2.5,0.2c-0.2-0.1-0.4-0.2-0.5-0.3
		C181.2,87.6,181.6,87.5,182,87.3z M204.3,165.6c-1,0.1-1.9-0.4-2.2-1.4c-0.2-0.5-0.2-1-0.3-1.5c-0.1-0.9-0.1-1.9-0.1-2.8
		c-0.1-3.6-0.6-7.2-1.2-10.8c0-0.1,0-0.2,0-0.3c0-2.5-0.7-4.9-1.1-7.4c-0.7-4.1-1.5-8.1-2.2-12.2c-0.6-3.1-1.1-6.2-1.6-9.4
		c-0.5-3.2-0.9-6.3-1.5-9.5c-0.6-3.2-0.8-6.4-1.3-9.6c-0.4-2.4-0.5-4.9-0.6-7.3c0-0.8-0.3-1.5-0.4-2.2c-0.2-1.6,0.3-3,0.7-4.5
		c0.1-0.3,0.2-0.6,0.3-0.8c0.1-0.6-0.1-0.9-1-1.3c-0.3,0.5-0.6,1.1-0.9,1.6c-0.5,1.2-0.9,2.5-1.3,3.7c-1.1,3-0.7,6.2-0.5,9.3
		c0.1,1.5,0.2,3,0.3,4.5c0.1,0.8,0.2,1.6,0.3,2.5c-0.3,0.1-0.7,0.1-1,0.2c-1,0.1-1.9,0.2-2.9,0.3c-0.5,0-1.1,0.1-1.6,0
		c-1-0.3-2.1-0.3-3.1-0.4c-3-0.1-5.8-0.8-8.6-2c-3.4-1.5-6.9-3.1-10.1-5c-0.3-0.2-0.6-0.3-0.9-0.5c-0.2-0.1-0.4-0.3-0.5-0.4
		c-0.9,0.1-1.9-0.4-2.3-1.3c-0.3-0.2-0.6-0.5-0.9-0.8c-1-0.8-2-1.7-3-2.5c-0.4-0.3-0.8-0.7-0.4-1.4c0.2,0,0.5-0.1,0.8-0.1
		c0.6,0,1-0.2,1.3-0.7c0.7-1,1.4-1.9,2-2.9v-0.4c0-1,0.6-1.7,1.3-1.9c0,0,0-0.1,0.1-0.1c0.1,0,0.1,0,0.1,0.1c0.3-0.1,0.7-0.1,1-0.1
		c0.1-0.1,0.1-0.2,0.2-0.3c0.2,0.2,0.4,0.3,0.5,0.5c0.4,0.2,0.8,0.5,1,0.9c0.1,0.1,0.2,0.2,0.3,0.2c1.5,1.3,3.3,1.9,5.1,2.4
		c2.1,0.6,4.2,1.1,6.4,0.9c1.5-0.1,2.9-0.4,4.4-0.6c0.6-0.1,1.2-0.2,1.7-0.3c0.2,0,0.6,0.1,0.7,0.2c0.1,0.2,0.1,0.6-0.1,0.8
		c-0.4,0.5-0.8,1-1.2,1.5c-0.2,0.2-0.4,0.7-0.3,0.9c0.2,0.3,0.6,0.5,0.9,0.6c0.3,0.1,0.6,0,0.9-0.1c0.9-0.5,1.9-1,2.5-1.9
		c0.6-0.9,1.2-1.7,1.8-2.6c0.2-0.2,0.4-0.4,0.6-0.7c0.2,0.1,0.3,0.1,0.4,0.2c0.6,0.8,0.8,0.8,1.3,0c1.6-2.6,3.2-5.2,4.7-7.8
		c2.3-3.9,4.5-7.8,6.8-11.7c0.1-0.1,0.2-0.3,0.2-0.4c0.6,0.3,0.5,0.7,0.4,1c-1.1,2.7-1.7,5.5-2.2,8.3c-0.5,2.6-1.1,5.2-0.9,7.9
		c0,0.4,0,0.8-0.1,1.1c0,0.1-0.1,0.1-0.2,0.3c-0.4-0.1-0.8-0.2-1.2-0.4c-0.5,0.2-0.4,0.6-0.4,1c0,1.3,0,2.5,0,3.8
		c0,0.8,0.2,1.6,0.3,2.4c0.2,1.2,0.3,2.4,0.5,3.6c0.4,3.5,0.9,6.9,2.1,10.3c0.3,0.9,0.5,1.8,0.7,2.7c0.7,2.9,1.3,5.7,2,8.6
		c0.4,1.7,0.8,3.5,1.1,5.2c0.2,1.9,0.2,3.9,0.4,5.8c0.1,1.6,0.3,3.3,0.4,4.9c0.1,1,0.1,2,0.2,3c0.1,1.5,0.2,3,0.3,4.5
		c0.1,1.6,0.2,3.3,0.3,4.9c0.2,2.3,0.3,4.5,0.5,6.8c0.1,1.6,0.3,3.1,0.4,4.6c0.1,1.1,0.2,2.3,0.2,3.4c0,0.5,0.1,1.1,0.2,1.6
		C205.1,165.3,204.9,165.6,204.3,165.6z M219.4,189.1c0,0.1-0.2,0.2-0.2,0.3c-0.8,1.8-2.4,2.3-4,2.2c-2.3-0.1-4.3,0.5-6.4,1.2
		c-0.2,0.1-0.3,0.1-0.5,0.1c-1.2,0.2-2.4,0.4-3.6,0.5c-0.3,0-0.6-0.1-1.1-0.1c0.2-1,0.9-1.2,1.5-1.5c0.8-0.4,1.7-0.7,2.5-1.2
		c0.5-0.3,1-0.7,1.3-1.1c0.6-0.7,1.1-1.4,1.6-2.1c0.8-1,1.7-1.6,3.1-1.1c1.1,0.4,2.3,0.7,3.5,0.6c0.5-0.1,1.1-0.2,1.6-0.2
		c0.7-0.1,1,0.1,1,0.8C219.7,188.1,219.6,188.6,219.4,189.1z M221.5,171.3c-0.2,1.6-0.4,3.2-0.7,4.8c-0.3,1.8-0.6,3.6-0.8,5.4
		c-0.1,0.8-0.3,1.7-0.4,2.5c-0.2,1-0.7,1.5-1.7,1.5c-1.4,0.1-2.8,0-4.1-0.4c-1.1-0.3-1.2-0.4-1.3-1.5c-0.1-1.3-0.1-2.6-0.3-3.9
		c-0.5-3.5-1-6.9-2-10.3c-0.9-3-1.9-6.1-2.7-9.1c-0.4-1.7-0.6-3.5-0.9-5.2c-0.3-2.3-0.7-4.7-0.9-7c-0.1-1-0.1-2.1-0.1-3.2
		c0.1-2.7,0-5.4-0.3-8.1c-0.3-2.3-0.7-4.7-0.9-7c-0.2-1.8-0.3-3.6-0.5-5.4c-0.2-2.7-0.5-5.4-0.7-8.1c-0.1-1.4-0.2-2.9-0.3-4.3
		c0-0.6,0.1-1.2,0.2-1.9c1,1.5,1.1,3.2,1.3,4.9c0.2,1,0.2,2,0.3,3c0.2,2.2,1.3,4.1,2.3,6c0.3,0.5,0.5,1.1,0.9,1.5
		c0.2,0.2,0.6,0.5,0.8,0.4c1.8-0.4,3.8-0.6,5.3-1.8c0.3-0.3,0.6-0.7,1-1.1c-0.8-0.6-1.6,0.3-2.3-0.2c-0.1-0.7,0.4-1.3,0.8-1.9
		c1.4-1.9,2.6-3.8,3.7-5.9c0.1-0.2,0.3-0.4,0.6-0.7c0.1,0.3,0.3,0.5,0.3,0.7c-0.1,2.4-0.1,4.8-0.3,7.2c0,0.5-0.3,1.1-0.7,1.5
		c-0.5,0.5-0.6,1.1-0.6,1.7c0.1,1.3,0.1,2.5,0.2,3.8c0,0.3,0,0.6,0,0.9c0.1,2.6,0.2,5.2,0.3,7.7c0.2,4.4,0.3,8.8,0.5,13.2
		c0.1,1.4,0.3,2.8,0.4,4.2c0,0.3,0.1,0.6,0.1,0.9c0.1,1.9,0.2,3.7,0.3,5.6c0,0.3,0.1,0.7,0.1,1c0,0.9,0,1.8-0.1,2.6
		c-0.1,0.9-0.3,1.8-0.3,2.8c0,1.1,0.4,1.4,1.5,1.5c0.5,0,1,0,1.5,0c0.6,0.1,0.8,0.3,0.8,0.9C221.6,170.7,221.5,171,221.5,171.3z
		 M227.8,168.9c-1.6-0.2-3.2-0.5-4.8-0.7c-0.6-0.1-0.9-0.4-1-1c-0.3-2.6-0.7-5.3-1-7.9c-0.2-1.2-0.4-2.4-0.5-3.6
		c-0.4-2.9-0.8-5.8-0.7-8.7c0-2.2,0-4.3,0-6.5c0-2.9,0.3-5.7,1-8.5c0.5-1.8,1-3.6,1.6-5.5c0.1-0.4,0.3-0.7,0.6-1.3
		c0.4,0.4,0.6,0.7,0.8,0.9c0.7,0.9,1.3,1.8,1.9,2.7c0.7,1.1,1.6,1.6,3,0.9c0.2,0.4,0.5,0.7,0.7,1c1.3,3.5,2.7,6.9,4,10.4
		c0.6,1.6,1.5,2.9,2.5,4.2c0.5,0.6,1.1,0.4,1.6,0.2c0.8-0.4,1.6-0.7,2.4-1.2c1.2-0.8,2.4-1.8,3.6-2.6c0.1-0.1,0.2-0.2,0.4-0.3
		c0.5-0.3,0.9-0.2,1,0.4c0,0.1,0,0.3,0,0.4c-0.2,1.7-0.5,3.4-1.5,4.9c-0.7,1-1.4,1.9-2,2.9c-0.2,0.4-0.5,0.9-0.4,1.3
		c0.1,0.9,1,1.2,1.8,0.8c0.7-0.4,1.5-0.8,2.2-1.3c0.3-0.2,0.6-0.6,0.9-0.9c0.2-0.2,0.4-0.4,0.6-0.6c0.1,0.1,0.2,0.1,0.3,0.2
		c-0.1,0.6-0.3,1.1-0.4,1.7c-0.4,1.1-0.7,2.2-1.1,3.4c-0.1,0.2-0.1,0.3-0.2,0.5c-0.9,1.3-1.7,2.7-3.1,3.7c-0.4,0.3-0.7,0.7-0.5,1.2
		c0.2,0.6,0.8,1,1.4,0.8c0.2,0,0.5-0.2,0.7-0.3c1.1-0.7,2.1-1.5,3.2-2.2c0.1-0.1,0.3-0.1,0.6-0.2c-0.1,0.3-0.1,0.6-0.2,0.8
		c-0.6,1.4-1.2,2.9-1.9,4.3c-0.2,0.4-0.6,0.8-1,1.1c-0.3,0.3-0.6,0.5-0.5,0.9c0.1,0.5,0.5,0.7,0.9,0.7c1.3,0.2,2.3-0.4,3.1-1.3
		c0.2-0.3,0.4-0.7,1-0.6c0.1,0.2,0.1,0.5,0.2,0.7c0.1,0.6,0.1,1.3,0.2,1.9c0.1,0.9-0.2,1.3-1.2,1.3c-2.3,0.1-4.6,0-6.8,0.4
		c-2.3,0.4-4.6,0.2-6.9,0.6c-0.3,0.1-0.6,0-0.9,0c-1,0.1-1.9,0.2-2.9,0.2C229.6,169.1,228.7,169,227.8,168.9z M234.3,177
		c-0.8-1.4-1.7-2.8-2.5-4.2c-0.2-0.3-0.4-0.7,0-1c0.2-0.1,0.5-0.2,0.7-0.1c0.4,0.1,0.7,0.3,0.8,0.8c0.2,0.9,0.4,1.8,0.6,2.7
		c0.2,0.6,0.4,1.1,0.6,1.7C234.4,176.9,234.3,176.9,234.3,177z M241.3,189.3c-0.6-0.8-1.3-1.6-1.9-2.4c-1-1.5-2-3.1-3-4.7
		c-0.1-0.2-0.2-0.5-0.2-0.7c0.1-0.1,0.2-0.2,0.3-0.3c1-0.4,1.3-0.9,0.8-1.7c-1.2-2-1.9-4.2-2.9-6.3c-0.2-0.4-0.3-0.9-0.3-1.3
		c0-0.8,0.4-1.1,1.2-1.1c0.7,0,1.4,0,2,0c1.8-0.1,3.6-0.3,5.4-0.4c1.3-0.1,2.6-0.2,3.9-0.3c0.8-0.1,1,0.1,1.1,1
		c0.3,3.4,0.4,6.8,0.8,10.2c0.4,3.2,0.5,6.4,0.5,9.6c0,0.3,0,0.7,0,1c0.1,1.2-0.4,1.9-1.5,2.2c-1.7,0.5-3.5,0.4-5.3,0.2
		c-1-0.1-1.6-1-2.2-1.8c-0.3-0.5-0.6-1.1-0.9-1.8c0.6,0,1.1,0,1.5,0c0.3,0,0.7-0.2,0.9-0.4C241.8,189.9,241.5,189.5,241.3,189.3z
		 M250.2,195.3c0.5,0.7,0.9,1.4,1.2,2.2c0.3,0.7,0.4,1.5,0.6,2.3c0.4,1.8-0.7,2.9-2.1,3.1c-1.6,0.2-3.2,0.7-4.8,1.1
		c-0.5,0.1-1.1,0.1-1.6,0.2c-0.5-0.1-1-0.1-1.5-0.2c-2-0.5-2.8-1.8-2.3-3.8c0.3-1.3,0.8-2.5,0.8-3.8c0-0.9,0.5-1.2,1.4-0.9
		c1.5,0.6,3.1,0.9,4.7,0.5c0.8-0.2,1.6-0.5,2.3-0.9C249.4,194.8,249.8,194.7,250.2,195.3z M248.8,162.1c-0.4-0.8,0-1.4,0.2-2
		C249.6,161.3,249.6,161.3,248.8,162.1z M250.7,139.4c-0.1,2-0.2,4-0.4,6.1c-0.2,2.2-0.4,4.4-0.6,6.7c-0.1,1.4-0.1,2.8-0.2,4.2
		c0,0.7-0.2,1.4-0.3,2.2c-0.3-0.2-0.4-0.3-0.5-0.4c-1.7-1.4-1.6-1.5-1-3.5c0.3-1.2,0.7-2.3,0.6-3.6c-0.1-0.8-0.3-1.5-1.2-1.9
		c-1-0.4-1.2-1.3-0.9-2.3c0.6-1.7,1-3.5,0.6-5.3c-0.2-0.8,0.2-1.4,0.8-1.9c0.8-0.6,1.6-1.1,2.5-1.6
		C250.6,138.4,250.7,138.8,250.7,139.4z M259.4,124.6c0.3,0.6,0.6,1.2,0.9,1.8c0.5,1,0.5,1-0.4,1.8c-1.1,0.8-2.2,1.6-3.2,2.5
		c-1.8,1.4-3.5,2.7-5.2,4.2c-2,1.7-4.2,3.1-6.5,4.4c-2.3,1.3-4.6,2.5-6.9,3.8c-0.9,0.5-1.3,0.4-1.7-0.5c-1-2.2-1.9-4.3-2.8-6.5
		c-0.7-1.5-1.4-3.1-2.1-4.6c-0.1-0.3-0.2-0.5-0.4-0.9c0.4-0.2,0.7-0.5,1.1-0.5c1.3-0.3,2.4-0.9,3.5-1.4c3-1.4,5-3.8,6.6-6.6
		c0.2-0.4,0.5-0.8,0.8-1.3c0.4,0.4,0.7,0.7,1,1c0.3,0.3,0.6,0.5,1.1,0.3c2.8-0.8,5.5-1.7,7.9-3.3c0.7-0.5,1.4-1,2-1.5
		c0.7-0.6,0.9-0.5,1.3,0.3C257.4,119.7,258.4,122.1,259.4,124.6z M262.8,98.7c-0.3,1.5-0.6,3-0.9,4.5c-0.2,0.7-0.4,1.3-0.7,1.9
		c-0.5,1.2-1.1,2.3-1.7,3.4c-0.2,0.5-0.5,1-0.8,1.4c-0.7,1-1.4,2.1-2.3,3.1c-0.9,1-1.9,1.8-2.9,2.6c-2,1.7-4.4,2.1-6.9,2.5
		c-0.6,0.1-0.9-0.1-1.3-0.8c-0.3-0.8-0.6-1.6-1-2.3c-0.4-0.8-0.9-1.6-1.3-2.4c-0.1-0.2-0.1-0.5-0.2-0.8c1.5-0.5,2.9-0.9,4.2-1.4
		c2.8-1,5.7-2,8.1-3.9c1.2-0.9,1.9-2.1,2.7-3.3c0.1-0.2,0.1-0.4,0.2-0.6c0.1-0.7-0.3-1.1-0.9-0.8c-0.7,0.3-1.5,0.7-2.2,1
		c-0.9,0.4-1.8,0.9-2.8,1.2c-0.5,0.2-0.8,0.6-0.8,1.2c0.1,0.7-0.4,1.1-0.9,1.3c-1.5,0.6-3,1.2-4.5,1.8c-1.3,0.5-2.6,0.8-3.7,1.6
		c-0.4,0.3-0.9,0.6-1.5,0.2c-1-0.7-1.1-1.3,0-2c3.2-2.3,5.4-5.3,7.3-8.6c0.5-0.8,1-1.7,1.5-2.6c0.3,0.1,0.6,0.2,0.7,0.3
		c0.4,0.3,0.8,0.7,1.3,1c0.9,0.7,0.9,0.9,0.4,1.9c-0.5,0.8-0.8,1.7-1.2,2.5c-0.2,0.4-0.2,0.8,0.3,1.1c1.1-0.5,2-1.4,2.8-2.4
		c1.5-1.9,2.6-3.9,3-6.3c0.1-0.5,0.1-0.9-0.3-1.1c-0.5-0.2-0.8,0-1.1,0.4c-0.7,0.7-1.3,1.4-2,2.1c-0.4,0.4-0.8,0.8-1.5,0.3
		c0.1-0.3,0.1-0.6,0.2-0.8c0.6-1.4,1.2-2.9,1.8-4.3c0.1-0.2,0.2-0.5,0.2-0.7c0-2.4,0.3-4.8-0.7-7c-0.3-0.6-0.6-1.2-1-1.8
		c-0.2-0.3-0.5-0.6-0.8-0.4c-0.2,0.1-0.4,0.5-0.5,0.8c-0.1,0.8-0.2,1.7-0.2,2.5c-0.1,0.7-0.2,1.4-0.3,2.1c-0.6,0.1-0.7-0.2-0.8-0.5
		c-0.4-1.1-0.8-2.2-1.2-3.3c-0.4-1-0.9-1.1-1.8-0.4c-1.9,1.6-4.2,2.1-6.5,2.6c-0.5,0.1-0.9-0.1-1.1-0.6c-0.5-1.1-1.5-2-2.3-2.8
		c-0.6-0.6-1.3-1.1-2.2-1.1c-0.2,0-0.5-0.1-0.7-0.2c-0.4-0.1-0.6-0.5-0.5-0.9c0.2-0.6,0.4-1.1,0.6-1.7c0.3-0.8,0.5-1.5,0.3-2.3
		c-0.2-0.9-0.5-1-1.3-0.9c-0.6,0.1-1.2,0.3-1.8-0.2c0.1-0.2,0.1-0.5,0.2-0.7c0.5-1.1,1-2.2,1.4-3.4c0.1-0.4,0.1-0.8,0.1-1.2
		c0-1.7,0.1-3.5,0-5.2c-0.1-1.5-0.2-2.9-0.8-4.3c-0.2-0.4-0.2-0.8-0.3-1.4c0.5,0.2,0.8,0.3,1,0.4c3.7,2.4,7.5,4.7,11,7.5
		c1.2,0.9,2.3,1.9,3.4,2.8c1.5,1.4,3.1,2.7,4.6,4.2c2,2.1,4.1,4.3,5.9,6.6c1.5,1.9,2.5,4.1,3.3,6.4c0.5,1.4,1.1,2.8,1.5,4.2
		c0.2,0.6,0.3,1.1,0.4,1.7C263.2,94.4,263.2,96.5,262.8,98.7z"/>
	<path d="M156.2,89.6C156.2,89.6,156.2,89.6,156.2,89.6L156.2,89.6z"/>
	<path d="M205.2,45c-0.1,0-0.4-0.1-0.5-0.3c-0.1-0.2,0-0.5,0-0.8c0.1-0.2,0.3-0.3,0.4-0.5c0.4-0.8,0.6-1.6-0.1-2.3
		c-0.1-0.1-0.2-0.3-0.3-0.4c-0.3-0.6-0.1-1,0.6-1c0.7,0.1,1.4,0.2,2.1,0.3c1,0.1,2,0.4,3,0.4c0.8,0,1.4,0.3,2,0.6
		c0.5,0.2,0.5,0.7,0.3,1.1c-0.3,0.4-0.7,0.9-1.1,1.2c-0.8,0.5-1.7,0.9-2.7,1C207.8,44.5,206.6,44.7,205.2,45z"/>
	<path d="M231.4,33.3c-0.6,0.1-0.8-0.2-0.9-0.6c-0.1-0.7-0.2-1.3-0.2-2c0-1.9,0-1.9-1.7-2.6c-0.3-0.4-0.2-0.8,0.1-1.2
		c0.1-0.2,0.3-0.3,0.4-0.5c0.9-1.2,1.3-1.2,2.2-0.1c0.7,0.9,1.2,1.8,1.1,3C232.1,30.7,231.8,32,231.4,33.3z"/>
</g>
<g>
	<path d="M152.1,92.5c-0.4-0.1-0.9-0.2-1.3-0.4c-1.3-0.4-2.2-1.2-3-2.2c-0.4-0.5-0.9-0.8-1.4-1.2c-1.2-0.8-2.3-1.7-2.6-3.2
		c-0.1-0.4,0-0.8,0-1.2c-1.2,0.4-2-0.2-2.8-1c-0.1-0.1-0.2-0.3-0.4-0.3c-0.9-0.3-1.3-0.9-1.6-1.7c-0.1-0.2-0.3-0.5-0.6-0.6
		c-2-0.9-3.9-1.8-5.5-3.3c-0.9-0.9-1.4-2-0.9-3.3c0.3-0.8,0.5-1.7,0.9-2.5c0.4-0.8,0.8-1.5,1.3-2.3c-0.5-0.4-0.3-0.9,0-1.5
		c0.4-0.7,0.7-1.5,1-2.2c0.2-0.6,0-0.9-0.6-0.8c-0.8,0.1-1.7,0.3-2.5,0.6c-0.5,0.1-0.9,0.1-1.1-0.2c-0.2-0.4-0.1-0.8,0.2-1.2
		c0.5-0.7,1-1.4,1.4-2.1c0.2-0.4,0.2-0.8-0.4-0.8c-0.9,0-1.8,0-2.7,0c-0.4,0-0.8,0-1-0.5c-0.1-0.4,0.1-0.7,0.4-1
		c0.8-0.7,1.7-1.4,2.2-2.5c-0.4-0.2-0.8-0.4-1.2-0.5c-0.7-0.2-1.4-0.3-2.1-0.4c-0.5,0-0.8-0.3-0.8-0.6c0-0.3,0.2-0.6,0.4-0.8
		c0.5-0.4,1.1-0.7,1.7-1.1c0.2-0.1,0.4-0.3,0.5-0.5c0.5-0.5,0.5-0.9-0.2-1.2c-0.5-0.3-1.1-0.5-1.7-0.7c-0.2-0.1-0.4-0.2-0.7-0.2
		c-0.4-0.1-0.7-0.4-0.7-0.8c0-0.4,0.3-0.6,0.7-0.8c0.9-0.4,1.8-0.8,2.6-1.2c0.1-0.1,0.2-0.2,0.4-0.3c-0.5-0.9-1.3-1.4-2.1-1.8
		c-0.3-0.2-0.6-0.3-0.8-0.5c-0.2-0.2-0.3-0.6-0.2-0.8c0.1-0.3,0.5-0.5,0.8-0.5c0.9-0.2,1.8-0.4,2.7-0.6c0.6-0.2,0.6-0.6,0.2-1
		c-0.6-0.6-1.1-1.2-1.8-1.8c-0.4-0.3-0.5-0.6-0.4-1c0.1-0.4,0.4-0.5,0.9-0.5c0.7,0.1,1.4,0.1,2,0.1c0.4,0,0.9-0.2,1.3-0.3
		c-0.1-0.4-0.2-0.9-0.4-1.3c-0.3-0.5-0.7-1-1.1-1.5c-0.3-0.3-0.5-0.7-0.2-1.1c0.3-0.4,0.7-0.4,1.1-0.2c0.8,0.2,1.5,0.4,2.3,0.6
		c0.8,0.1,1-0.2,0.8-0.9c-0.3-0.8-0.6-1.5-0.9-2.2c-0.2-0.4-0.3-0.8,0.1-1.1c0.3-0.2,0.7-0.2,1-0.1c0.6,0.2,1.2,0.6,1.8,0.8
		c0.4,0.1,0.8,0.2,1.3,0.3c-0.1-0.7-0.1-1.3-0.2-1.8c-0.1-0.5-0.3-1-0.5-1.5c-0.2-0.5-0.1-0.9,0.3-1.1c0.4-0.3,0.7-0.1,1.1,0.2
		c0.7,0.5,1.4,1.1,2.1,1.5c0.6,0.3,0.8,0.1,0.8-0.5c0-0.9-0.1-1.8-0.1-2.6c0-0.3,0.3-0.7,0.5-0.9c0.2-0.1,0.6,0,0.8,0.2
		c0.7,0.6,1.4,1.3,2.1,1.9c0.5,0.4,0.8,0.3,1-0.3c0.2-0.9,0.3-1.8,0.6-2.6c0.1-0.3,0.3-0.6,0.6-0.8c0.3-0.1,0.6,0.1,0.8,0.4
		c0.5,0.8,1.1,1.5,1.7,2.3c0.3,0.4,0.6,0.5,0.9-0.1c0.4-0.8,0.7-1.6,1.1-2.3c0.2-0.3,0.4-0.6,0.5-0.9c0.2,0,0.3,0,0.5,0
		c0.2,0.3,0.5,0.6,0.6,0.9c0.4,1,0.7,2,1.6,2.8c0.8-0.4,1.3-1.2,1.8-2c0.1-0.2,0.3-0.4,0.4-0.7c0.2-0.4,0.5-0.5,0.9-0.4
		c0.4,0.1,0.6,0.4,0.6,0.8c0.1,1.1,0.3,2.2,0.8,3.2c1.2-0.4,1.7-1.4,2.5-2.1c0.3-0.3,0.6-0.5,1-0.3c0.4,0.2,0.5,0.5,0.5,1
		c0,0.9,0,1.8,0,2.6c0,0.6,0.2,0.7,0.7,0.4c0.8-0.4,1.5-1,2.3-1.5c0.4-0.3,0.7-0.5,1.1-0.2c0.4,0.3,0.5,0.7,0.3,1.2
		c-0.3,0.8-0.5,1.7-0.6,2.5c-0.1,0.6,0.2,0.8,0.8,0.6c0.8-0.3,1.6-0.6,2.3-1c0.4-0.2,0.7-0.3,1.1,0c0.4,0.4,0.2,0.7,0,1.1
		c-0.3,0.7-0.7,1.4-1,2.2c-0.3,0.8,0.1,1.1,0.8,1c0.8-0.2,1.5-0.4,2.3-0.6c0.3-0.1,0.8,0,1,0.2c0.3,0.3,0.3,0.7,0,1.1
		c-0.5,0.7-1,1.4-1.4,2.2c-0.4,0.6-0.2,0.9,0.6,0.9c0.9,0,1.8-0.1,2.6-0.1c0.3,0,0.7,0.2,0.7,0.4c0.1,0.3,0.1,0.8-0.1,1
		c-0.5,0.6-1.1,1-1.6,1.5c-0.3,0.3-0.5,0.6-0.9,1.1c0.7,0.2,1.3,0.4,2,0.6c0.5,0.1,1.1,0.1,1.6,0.3c0.3,0.1,0.6,0.4,0.7,0.6
		c0,0.3-0.2,0.7-0.5,0.9c-0.7,0.6-1.6,1.1-2.3,1.6c-0.5,0.4-0.3,0.7,0.1,0.9c0.8,0.4,1.5,0.7,2.3,1c0.6,0.2,1,0.4,0.9,1.2
		c0.7-0.7,1.4-1,2.2-0.6c1.1,0.5,1.6,1.7,1.2,3c-0.1,0.2-0.1,0.5-0.2,0.7c-0.2,0.9-0.2,0.9,0.6,1.4c0.4,0.2,0.9,0.4,1.3,0.6
		c1,0.5,1.2,1,1,2.1c-0.4,1.9-1.4,3.5-2.3,5.2c-0.1,0.1-0.2,0.3-0.2,0.4c0.3,1-0.3,1.6-1.1,2c-0.6,0.3-1.2,0.6-1.9,0.4
		c-0.9,2.4-2,4.7-3.6,6.7c-0.6,0.8-1.4,1.4-2.2,2.1c-0.7,0.6-1.5,0.5-2.3,0.3c-1.5-0.4-2.8-1.3-4.1-2.1c-0.2-0.1-0.4-0.1-0.6-0.1
		c-0.2-0.1-0.5-0.1-0.7-0.2c-1.1-0.8-2.2-1.3-3.5-1.2c-0.2,0-0.5,0.2-0.6,0.4c-0.7,1.5-1.1,3-1.2,4.6c0,0.3-0.1,0.5-0.1,0.8
		c0,0.4,0.1,0.8,0.2,1.3c0,0.2,0.2,0.4,0.2,0.6c0,1,0,2.1-0.1,3.1c0,0.4,0.1,0.8,0.1,1.2c0,0.8,0.1,1.7-0.1,2.5
		c-0.2,1.2-1,2.1-2,2.7c-0.7,0.4-1.2,1-1.6,1.6c-1,1.4-2.4,2.3-4.2,2.4c-0.1,0-0.1,0.1-0.2,0.1C153.3,92.5,152.7,92.5,152.1,92.5z
		 M149.7,81.2c1.1,0.4,2.4,0.4,3.7,0.4c1.8,0,3.5-0.5,5.1-1.3c1.6-0.8,2.3-2,2.2-3.8c0-0.5,0-1,0.1-1.6c0.3-2.5,1.3-4.7,2.6-6.8
		c1.3-2.1,3-3.9,4.7-5.7c1.7-1.8,2.9-4,3.8-6.4c0.9-2.6,1.1-5.3,0.9-8c-0.2-2-0.7-3.8-1.6-5.6c-1.2-2.4-2.7-4.6-4.8-6.3
		c-1.8-1.6-3.8-2.8-6.1-3.6c-2.2-0.8-4.4-1.3-6.8-1.3c-1.2,0-2.4,0.1-3.6,0.2c-1.9,0.1-3.7,0.8-5.4,1.5c-2.5,1.2-4.7,2.7-6.5,4.8
		c-1.1,1.2-2,2.5-2.8,4c-1.5,2.9-2.1,5.9-2,9.2c0.1,1.6,0.4,3.2,0.9,4.8c1,3,2.7,5.5,4.8,7.8c1.3,1.4,2.5,3,3.5,4.6
		c1.1,1.7,1.9,3.6,2.2,5.6c0.1,0.9,0.5,1.4,1.5,1.7c0.8,0.2,1.5,0.9,2.2,1.4c0.8,0.6,1.4,1.3,1.1,2.4c0,0.1,0,0.2,0,0.3
		C149.5,80.1,149.6,80.6,149.7,81.2z M127.9,55.4c0.9,0.2,2,0.5,3,0.8c0.8,0.3,1,0.9,0.5,1.6c-0.4,0.6-0.9,1.1-1.4,1.6
		c-0.3,0.3-0.6,0.6-0.8,0.8c0.9,0,1.8,0,2.7,0c0.2,0,0.4,0.1,0.6,0.1c0.8,0.2,1.1,0.9,0.6,1.8c-0.5,0.9-1,1.7-1.5,2.5
		c0.7-0.2,1.4-0.4,2.1-0.5c1.5-0.2,2.3-0.1,2.1,1.5c0,0.2-0.1,0.4-0.2,0.6c-0.1,0.3-0.2,0.6-0.3,0.9c0.2,0,0.2-0.1,0.3-0.2
		c0.6-0.9,1.3-1.8,1.9-2.7c0.3-0.3,0.2-0.5,0-0.7c-1.7-1.7-3-3.8-4-6c-1-2.2-1.5-4.5-1.5-6.9c0-1.1,0.1-2.2,0.2-3.3
		c0.2-1.8,0.7-3.6,1.5-5.2c1.4-3.3,3.7-5.8,6.5-8c2.3-1.8,5-3,7.9-3.7c2.6-0.7,5.3-0.7,7.9-0.4c2.4,0.3,4.7,1,6.8,2.2
		c2.5,1.3,4.7,3,6.5,5.1c1.2,1.3,2.1,2.9,2.9,4.5c1.6,3.5,2.1,7.2,1.5,11c-0.4,2.8-1.4,5.4-3,7.7c-0.9,1.2-1.8,2.3-2.8,3.4
		c-0.6,0.7-1.3,1.3-1.9,2c0.5,0.4,0.9,0.8,1.3,1.1c0.1,0.1,0.2,0.1,0.3,0.1c0.6,0.1,1.1,0.1,1.7,0.2c0.6,0.2,1.3,0.5,1.9,0.8
		c-0.3-1-0.7-1.9-0.9-2.8c-0.2-0.8,0.2-1.4,1-1.4c0.6,0,1.1,0.1,1.7,0.2c0.5,0.1,1.1,0.3,1.7,0.4c-0.1-0.2-0.2-0.3-0.3-0.4
		c-0.5-0.8-1.1-1.7-1.5-2.5c-0.3-0.6,0-1.2,0.7-1.4c0.3-0.1,0.7-0.1,1-0.2c0.5,0,1.1,0,1.8,0c-0.2-0.4-0.4-0.8-0.6-1
		c-0.2-0.3-0.5-0.4-0.7-0.7c-1-1.2-1-2.1,0.6-2.6c0.7-0.2,1.5-0.5,2.3-0.7c-0.6-0.4-1-0.7-1.5-1c-1.6-1.1-1.5-2.2,0.1-3.1
		c0.7-0.4,1.4-0.6,2.1-0.9c-0.8-0.4-1.6-0.7-2.4-1.2c-1-0.5-1.2-1.3-0.6-2.1c0.3-0.3,0.6-0.6,0.9-0.8c0.5-0.4,1.1-0.7,1.6-1.1
		c-0.9-0.2-1.9-0.4-2.7-0.6c-1.1-0.3-1.4-1.2-0.7-2.1c0.6-0.8,1.3-1.4,1.9-2.1c-0.9,0-1.8,0.1-2.6,0c-1.3-0.1-1.7-0.8-1.2-2
		c0.1-0.2,0.2-0.4,0.3-0.6c0.4-0.6,0.9-1.2,1.4-1.9c-0.2,0.1-0.3,0.1-0.4,0.1c-1,0.2-1.9,0.4-2.9,0.5c-0.5,0.1-1.1-0.2-1-0.8
		c0-0.6,0.2-1.3,0.4-1.9c0.2-0.6,0.5-1.1,0.8-1.8c-0.5,0.3-1,0.5-1.5,0.7c-0.5,0.2-1,0.3-1.5,0.5c-0.8,0.2-1.4-0.3-1.4-1.1
		c0.1-1,0.2-2,0.3-3c-0.1,0-0.2,0.1-0.3,0.2c-0.7,0.4-1.4,0.9-2.2,1.3c-0.7,0.4-1.5,0.1-1.6-0.5c-0.2-0.8-0.2-1.7-0.3-2.5
		c0-0.3,0.1-0.6,0.1-0.9c-0.8,0.7-1.6,1.4-2.4,2c-0.7,0.5-1.3,0.2-1.7-0.4c-0.2-0.4-0.4-0.8-0.5-1.3c-0.1-0.7-0.2-1.4-0.3-2.3
		c-0.1,0.2-0.1,0.3-0.2,0.4c-0.6,0.8-1,1.7-1.7,2.4c-0.6,0.7-1.3,0.6-1.9,0c-0.3-0.4-0.6-0.9-0.8-1.4c-0.3-0.5-0.4-1.1-0.7-1.7
		c-0.1,0.2-0.1,0.3-0.2,0.4c-0.4,0.9-0.7,1.8-1.2,2.6c-0.4,0.7-1.3,0.8-1.9,0.3c-0.3-0.3-0.6-0.6-0.8-0.9c-0.4-0.6-0.8-1.3-1.2-1.9
		c-0.1,0.4-0.1,0.8-0.2,1.1c-0.1,0.7-0.2,1.4-0.5,2.1c-0.4,1-1.2,1.2-2,0.5c-0.7-0.6-1.4-1.3-2.1-1.9c0,0.8,0.1,1.7,0,2.5
		c-0.1,1.3-0.7,1.9-2,1.3c-0.4-0.2-0.8-0.4-1.2-0.7c-0.4-0.2-0.8-0.5-1.1-0.7c0.1,1,0.3,2,0.4,3c0.1,0.7-0.4,1.2-1,1.2
		c-0.3,0-0.6-0.1-0.9-0.2c-0.8-0.3-1.6-0.6-2.4-1c0.1,0.3,0.3,0.5,0.4,0.8c0.3,0.8,0.6,1.5,0.8,2.3c0.2,0.8-0.3,1.4-1.1,1.3
		c-1.1-0.1-2.2-0.3-3-0.4c0.5,0.8,1.1,1.8,1.6,2.9c0.3,0.6,0,1.1-0.6,1.2c-1.1,0.2-2.3,0.2-3.4,0.3c0.6,0.6,1.3,1.2,1.9,1.9
		c0.9,1,0.6,1.8-0.6,2.3c-0.3,0.1-0.7,0.2-1,0.2c-0.6,0.1-1.3,0.2-2,0.3c0.1,0.1,0.2,0.1,0.3,0.2c0.9,0.5,1.8,0.9,2.5,1.7
		c0.5,0.6,0.6,1.3,0,1.8c-0.4,0.3-0.8,0.5-1.3,0.7c-0.6,0.3-1.3,0.5-1.8,0.8c0.9,0.4,1.9,0.8,2.8,1.3c0.8,0.4,1.1,1.4,0.1,2.2
		C129.4,54.3,128.6,54.9,127.9,55.4z M148.8,79c-0.1-0.3-0.1-0.6-0.2-0.8c-0.3-0.4-0.6-0.8-0.9-1.1c-0.7-0.6-1.5-1.1-2.5-1.1
		c-1.2,0-2,0.6-2.8,1.4c-1.1,1.2-1.6,2.7-1.4,4.3c0.1,0.7,0.4,1.2,1.1,1.6c0.6,0.3,1.2,0.5,1.7,0c0.2-0.3,0.4-0.6,0.6-0.9
		c0.2-0.5,0.8-0.9,1.3-0.6c0.4,0.2,0.8,0.5,1.2,0.6c0.2,0.1,0.5,0,0.7-0.1c0.1-0.2,0.2-0.6,0.1-0.7c-0.4-0.7-2-1.3-2.8-1.2
		c-0.1,0-0.3-0.1-0.5-0.1c0-0.1,0-0.1,0.1-0.2c1.7-0.8,2.7,0.5,3.9,1.3c0.6-0.5,0.8-1.1,0.4-1.4c-1.1-0.8-2-1.8-3.5-1.7
		c-0.1,0-0.2,0-0.3,0c0-0.2,0-0.4,0-0.5C146,77.5,146.4,77.5,148.8,79z M138.2,70c0,0-0.1-0.1-0.1-0.1c-0.8,1.4-1.7,2.9-2.5,4.3
		c-0.2,0.3-0.1,0.7,0.2,1c1.1,1.1,2.3,2,3.8,2.6c0.5-0.7,1.1-1,1.9-0.6c0.4-0.5,0.6-1,0.5-1.6c-0.2-0.9,0.4-1.3,1.3-1
		c0.2,0.1,0.4,0.1,0.6,0.2c0-0.2,0-0.3,0-0.4c-0.3-1.1-0.7-2.1-1-3.2c0-0.1-0.3-0.2-0.5-0.2c-1.2-0.1-2.2,0.5-3.1,1.2
		c-0.3,0.2-0.7,0.4-1,0.1c-0.4-0.3-0.5-0.6-0.3-1C138,71,138.1,70.5,138.2,70z M177.7,64.9c-1.5-1.1-1.5-1.3-1.3-3.2
		c0.1-0.4-0.1-0.8-0.6-0.8c-0.4,0-0.9-0.1-1.3,0c-0.4,0.1-0.7,0.2-1.1,0.4c0.1,0.3,0.2,0.7,0.4,1c0.4,0.7,1,1.3,1.4,2
		c0.1,0.2,0.1,0.6,0,0.9c-0.1,0.2-0.5,0.3-0.7,0.3c-0.8-0.1-1.7-0.4-2.5-0.5c-0.3-0.1-0.7-0.1-0.9,0.1c-0.1,0.1-0.1,0.6,0,0.9
		c0.3,0.7,0.6,1.5,1,2.2c0.2,0.4,0.2,0.8-0.1,1.1c-0.3,0.3-0.7,0.3-1,0.1c-0.3-0.2-0.6-0.3-0.9-0.4c-0.5-0.2-0.9-0.4-1.4-0.7
		c0,0,0,0.1-0.1,0.1c0.2,0.1,0.3,0.3,0.5,0.4c1,0.8,2.1,1.5,3.1,2.3c0.6,0.4,1.1,0.3,1.7-0.2C175.6,69.1,176.9,67.2,177.7,64.9z
		 M179.5,59.2c0.7,1.1,0.8,1.7,0.4,2.2c-0.3-1.1-0.6-2-1.6-2.7c0.9,0.3,1.4,0.2,1.8-0.4c0.2-0.3,0.3-0.6,0.4-1
		c0-0.2-0.1-0.5-0.3-0.6c-0.4-0.2-0.8-0.3-1.2-0.4c-0.9-0.3-1.6,0.1-1.9,1c-0.2,0.5-0.2,1.1-0.3,1.6c-0.2,1.1,0,2.1,0.6,3.1
		c0.3,0.4,0.7,0.6,1.2,0.4c0.2-0.1,0.4-0.2,0.6-0.3c0,0,0.1,0.1,0.1,0.1c-0.4,0.3-0.7,0.6-1.2,1c0.9,0.6,1.9,0.9,3,0.8
		c-0.1-0.3-0.2-0.6-0.3-0.9c0.8,0.5,1.6,0.3,1.9-0.3c1-1.6,1.8-3.3,2.3-5.1c0.1-0.5-0.2-1.1-0.6-1.4c-0.4-0.2-0.9,0.1-1.1,0.7
		c-0.5,1.1-1,2.1-1.5,3.2c0.7,0.6,1.1,0.5,1.5-0.1c0.3-0.5,0.6-1.1,1-1.8c-0.1,1.1-0.5,2-1.3,2.6c-0.1,0.1-0.4,0.1-0.6,0.1
		c-0.3-0.1-0.6-0.3-0.9-0.3c-1.4,0-1.5-0.1-1.6-1.4C179.8,59.2,179.7,59.2,179.5,59.2z M144.9,84.6c-0.1,0-0.2,0.1-0.2,0.1
		c0.2,0.5,0.3,1.1,0.6,1.6c0.7,1.1,1.8,1.6,2.9,2.1c2.2,0.8,4.5,0.9,6.8,0.6c1.7-0.2,3.2-0.7,4.6-1.7c0.9-0.7,1.5-1.8,1.3-2.6
		c-0.4,0.5-0.9,1.1-1.4,1.4c-2.1,1.4-4.5,1.7-6.9,1.8c-0.6,0-1.3-0.1-2-0.2C148.4,87.3,146.3,86.7,144.9,84.6z M145,82.8
		c-0.2,0.6-0.1,1.1,0.3,1.7c0.7,1,1.8,1.6,2.9,2c1.8,0.7,3.7,0.8,5.5,0.7c1.9-0.1,3.8-0.5,5.4-1.5c1.2-0.7,2-1.6,1.8-3.3
		c-0.2,0.4-0.3,0.8-0.6,1c-0.8,0.6-1.7,1.3-2.6,1.7c-2.3,0.9-4.7,1.1-7.2,0.7C148.4,85.3,146.3,84.7,145,82.8z M145.4,82.5
		c0,0-0.1,0.1-0.1,0.1c0.2,0.3,0.4,0.6,0.6,0.7c0.8,0.5,1.6,1,2.4,1.3c2.1,0.8,4.3,0.9,6.5,0.6c1.9-0.2,3.7-0.8,5.2-2
		c0.7-0.6,1.2-1.5,0.9-2.6c-0.6,1.6-2,2.2-3.4,2.7c-1.7,0.6-3.4,0.8-5.2,0.7c-1.4-0.1-2.7-0.3-4-0.7c-0.2-0.1-0.4-0.1-0.5-0.1
		c-0.5,0.2-1,0-1.4-0.2C145.9,82.8,145.6,82.6,145.4,82.5z M160.9,78.9c-0.8,1.2-1.9,2.2-3.3,2.6c-1.1,0.3-2.2,0.4-3.4,0.6
		c-1.5,0.3-3,0-4.4-0.2c-1-0.1-1.2-0.1-1.6,0.8c0,0,0.1,0.1,0.1,0.1c2,0.6,4,0.9,6.1,0.6c1.5-0.2,3-0.4,4.3-1.2
		C160.4,81.4,161,80.4,160.9,78.9z M179.3,55.5c0.5,0.2,0.9,0.4,1.4,0.6c0.1-0.2,0.2-0.5,0.4-0.6c0.8-0.4,1.1-1.1,1.2-1.9
		c0.1-0.4,0.1-0.7,0.2-1.1c0.1-0.7-0.2-1.4-0.8-1.5c-0.5-0.1-1,0.2-1.2,0.9C180,53,179.7,54.2,179.3,55.5z M183.7,56
		c-0.2-0.1-0.4-0.2-0.5-0.3c-1.3-0.6-2.1-0.1-2.2,1.4c0,0.3-0.2,0.7-0.3,1c-0.1,0.3-0.3,0.5-0.3,0.8c-0.2,0.7,0,1.1,0.6,1.3
		c0.5,0.2,0.8-0.1,1-0.7C182.3,58.3,182.8,57.1,183.7,56z M140.4,66.9c-0.5,0.7-1,1.2-1.2,1.8c-0.3,0.9-0.3,1.9-0.4,2.8
		c1-0.7,2.1-1.2,3.6-1.2C141.7,69.1,141.1,68.1,140.4,66.9z M179.7,50.9c-0.4,0.1-0.8,0.2-1.1,0.4c-0.7,0.3-1.3,0.6-2,0.9
		c-0.4,0.2-0.6,0.5-0.1,0.9c0.7,0.5,1.3,1,2.1,1.6C179,53.3,179.3,52.1,179.7,50.9z M141.5,77.9c-0.6-0.2-1,0-1.2,0.4
		c-0.2,0.4-0.5,0.8-0.5,1.3c-0.1,1.4-0.3,2.3,1.1,3C140.3,80.9,140.8,79.4,141.5,77.9z M177.2,62.5c0,0.8,0.1,1.2,0.7,1.5
		c1,0.6,2,0.9,3.2,0.8c0.6,0,1.1-0.3,1.5-0.9C180.5,64.3,178.7,64.2,177.2,62.5z M176,58.3c0.2-0.6,0.3-1.2,0.4-1.8
		c-0.5,0.2-0.8,0.4-1.3,0.6C175.5,57.6,175.7,57.9,176,58.3z M165.3,70.4c-0.5-0.4-0.9-0.7-1.3-1.1c-0.1,0.3-0.3,0.5-0.4,0.8
		C164.2,70.3,164.7,70.3,165.3,70.4z M142.6,75.3c0,0.5,0.1,0.9,0.1,1.2c0.4-0.3,0.7-0.5,1.2-0.8C143.4,75.6,143,75.4,142.6,75.3z"
		/>
	<path d="M147.4,55.7c-0.1,0.3-0.1,0.6-0.2,0.9c-0.6-0.6-0.5-1.8,0-2.3c0.5-0.5,0.8-0.5,1.2-0.1c-0.2,0.2-0.4,0.3-0.8,0.7
		c1.3,0.4,2.4,1,3.6,1.2c1.7,0.3,3.5,0.5,5.2,0.5c1.2,0,2.5-0.2,3.7-0.5c0.7-0.2,1.2-0.7,1.9-1c-0.2-0.2-0.3-0.3-0.4-0.4
		c-0.1-0.1-0.1-0.3-0.2-0.4c0.1,0,0.3-0.1,0.4,0c0.8,0.3,1.2,1.2,0.9,2c-0.1,0.2-0.2,0.4-0.4,0.6c0-0.3-0.1-0.7-0.1-1.1
		c-0.4,0.3-0.9,0.5-1.2,0.8c-0.3,0.4-0.5,0.9-0.6,1.4c-0.2,1.6-0.4,3.3-0.6,4.9c-0.1,0.9-0.6,1.4-1.8,1.6c-1.5,0.3-3.1,0.2-4.6-0.1
		c-1.4-0.3-2.4-1.2-2.9-2.5c-0.5-1.6-0.8-3.3-1.3-5c-0.1-0.2-0.2-0.5-0.4-0.6C148.3,56.1,147.8,55.9,147.4,55.7z M159.7,56.9
		c-3.4,0.9-6.6,0.7-9.9-0.3c0.7,1.1,1.7,1.6,2.6,1.7C154.9,58.7,157.5,59,159.7,56.9z M158,63.8c-2-0.9-4-1.3-6.2-0.9
		C153.7,64.5,155.9,64.1,158,63.8z"/>
	<path d="M154.9,44.3c0.4-0.9,1-1.6,1.9-1.9c1-0.4,1.9,0.1,2.7,0.8c1.4,1.3,2,3,2.4,4.8c0.3,1.3,0.2,2.5-0.4,3.7
		c-0.9,1.8-3,2.3-4.7,1.5c-0.7-0.3-1.3-0.8-1.9-1.3c-0.5,0.4-1.1,0.9-1.7,1.2c-2.1,1.2-4.6-0.1-5.1-2.4c-0.5-2.1,0.1-4.1,1.1-5.9
		c0.5-0.8,1.1-1.6,1.9-2.1c1.2-0.8,2.5-0.4,3.3,0.6C154.4,43.6,154.6,43.9,154.9,44.3z M148.7,48.8c0,0.2,0,0.5,0,0.7
		c0.1,1.3,0.8,2.6,2,2.9c1.8,0.5,3.1,0,4.1-1.9c0.6-1.1,0.8-2.3,0.6-3.6c-0.2-1.3-0.6-2.5-1.4-3.6c-0.7-1-2.2-1.1-3-0.3
		C149.5,44.7,148.7,46.6,148.7,48.8z M158.1,52.7c0.9,0,1.7-0.4,2.2-1c1-1.3,1.1-2.7,0.8-4.2c-0.3-1.5-0.9-2.8-1.9-4.1
		c-0.7-0.9-2-1.1-2.9-0.4c-0.4,0.3-0.7,0.8-1,1.2c-0.2,0.3-0.3,0.7-0.1,1.1c0.7,1.8,0.9,3.7,0.1,5.5c0,0.1,0,0.3,0.1,0.3
		C156,52.2,157,52.6,158.1,52.7z"/>
	<path d="M169.9,45.5c-1.1,0-2,0-2.9,0c-0.5,0-0.8-0.2-0.9-0.7c-0.5-3-2-5.5-4.3-7.5c-1.8-1.5-3.8-2.4-6.1-2.7
		c-0.4,0-0.7-0.2-0.7-0.6c0-0.5,0.4-0.6,0.7-0.6c1.1,0,2.1-0.1,3.2,0c2.1,0.3,4.1,1,5.8,2.3c3.2,2.2,5.2,5.1,5.9,8.9
		C170.7,45.3,170.4,45.6,169.9,45.5z M170,45c-0.7-6.3-6.9-11.8-13.8-10.8c1.6,0.3,3.1,0.8,4.5,1.7c2,1.2,3.5,2.8,4.6,4.8
		c0.7,1.2,1.1,2.4,1.4,3.8c0,0.2,0.3,0.5,0.4,0.5C168.1,45,169,45,170,45z"/>
	<path d="M160.2,40.8c-0.8-0.7-1.7-1.1-2.7-1c-0.1,0-0.4-0.3-0.4-0.4c0.1-0.3,0.3-0.7,0.5-0.8C158.7,38.4,160,39.4,160.2,40.8z"/>
	<path d="M149.8,40.7c0.1-1.2,1.5-2.1,2.4-2c0.5,0,0.8,0.4,0.7,0.9c0,0.1-0.2,0.3-0.3,0.3c-0.5,0.1-1,0-1.5,0.2
		C150.7,40.1,150.3,40.4,149.8,40.7z"/>
	<path d="M152.6,48.1c0.1-0.3,0.1-0.6,0.2-0.8c0.1-0.2,0.3-0.4,0.4-0.4c0.1,0,0.4,0.2,0.4,0.3c0,0.6,0.1,1.1,0,1.7
		c0,0.1-0.3,0.3-0.5,0.3c-0.1,0-0.3-0.2-0.3-0.4C152.7,48.7,152.7,48.4,152.6,48.1z"/>
	<path d="M158.9,48.1c0-0.1,0-0.2,0-0.2c0.1-0.4,0.1-0.9,0.5-0.9c0.2,0,0.6,0.5,0.6,0.9c0.1,0.4-0.1,0.9-0.3,1.2
		c-0.2,0.4-0.5,0.4-0.6,0C159,48.8,158.9,48.4,158.9,48.1C158.8,48.1,158.8,48.1,158.9,48.1z"/>
</g>
<g>
	<path d="M90,85.4c0.5,0.2,0.8,0.6,1.1,1.1c1.5,3.5,2.9,7.1,3.6,10.8c0.4,2.1,0.7,4.1,0.6,6.2c-0.1,0.7-0.2,1.4-0.4,2.1
		c-0.1,0.5,0,0.9,0.3,1.2c1,1.1,2,2.2,3,3.3c0.6-0.5,1.3-1,1.9-1.5c0.3-0.3,0.7-0.5,1.1-0.2c0.4,0.3,0.3,0.7,0.2,1.1
		c-0.4,0.9-1,1.6-1.9,2.1c0.3,0.3,0.5,0.6,0.7,0.9c0.3-0.2,0.5-0.4,0.7-0.6c0.4-0.3,0.8-0.3,1.2,0c0.4,0.3,0.4,0.7,0.1,1.1
		c-0.3,0.4-0.5,0.8-0.8,1.2c0.7,0.9,1.4,1.8,2.1,2.7c1-0.6,2-1.1,2.9-1.7c3.5-1.9,7.2-3.4,11.2-3.9c2.1-0.3,4.2-0.3,6.3,0.1
		c0.4,0.1,0.7,0.4,0.6,0.8c-0.1,0.4-0.3,0.6-0.7,0.6c-2.8-0.2-5.6,0.1-8.3,0.8c-3.8,1-7.3,2.8-10.5,4.7c0.3,1.2,0.5,2.3,0.8,3.4
		c1-0.3,2.1-0.6,3.2-0.9c2.1-0.5,4.3-1,6.4-1.3c1.3-0.2,2.7,0.1,4,0.1c0.4,0,0.6,0.2,0.7,0.6c0,0.4-0.2,0.6-0.5,0.7
		c-0.1,0-0.3,0.1-0.4,0.1c-2.5,0-4.9,0.8-7.4,1.3c-1.7,0.4-3.3,0.8-5,1.1c-0.1,0-0.2,0.1-0.3,0.2c0.9-0.2,1.9-0.3,2.8-0.5
		c2.5-0.4,4.9-0.5,7.4,0c0.5,0.1,0.8,0.4,0.7,0.8c-0.1,0.5-0.4,0.6-0.8,0.6c-3.8-0.2-7.6,0.5-11.3,1.2c-0.2,0-0.3,0.1-0.5,0.1
		c-0.6,0-0.9,0.3-1.2,0.8c-2.5,4.6-6.1,8.2-10.5,11c-1.3,0.8-1.2,0.8-1,2.3c0.6,4.1,1.3,8.1,1.7,12.2c0.2,2,0,4-0.2,6
		c-0.5,6.3-2.3,12.3-3.6,18.4c-1.1,5.1-2.1,10.1-3.2,15.2c-0.3,1.4-0.5,2.8-0.8,4.1c-0.3,1.8,0.2,3.2,1.8,4.2c0.3,0.2,0.7,0.5,1,0.7
		c1.4,1.3,1.5,3.5,0.1,4.8c-0.4,0.4-0.6,0.7-0.7,1.2c-0.3,1.4-1.1,1.8-2.4,1.4c-1.1-0.4-2.3-0.8-3.5-1.3c0.1,0.3,0.1,0.6,0.2,0.9
		c0.3,1.6-0.5,2.7-2,3c-0.1,0-0.2,0.1-0.3,0.1c-0.7,0-1.3,0-2,0c-0.7-0.2-1.4-0.3-2.1-0.6c-1.5-0.6-2.5-1.6-2.8-3.2
		c-0.1-0.7-0.3-1.3-0.4-2c-0.3-2-1.3-3.8-2.1-5.6c-1.1-2.6-2.1-5.2-3.3-7.8c-0.9-1.9-1.5-3.9-2.3-5.8c-0.8-1.9-1.4-3.9-2-5.9
		c-0.8-2.7-1.1-5.5-1.3-8.3c-0.1-1.8-0.3-3.5-0.4-5.3c0-0.4-0.2-0.9-0.5-1.3c-1.6-2.3-3.8-3.6-6.6-3.8c-1.6-0.1-3.2,0-4.9,0
		c-0.2,0-0.4,0-0.6,0c-0.5-0.1-0.7-0.7-0.4-1.1c0.2-0.3,0.5-0.5,0.9-0.6c1.7-0.6,3.5-0.6,5.3-0.4c2.4,0.3,4.6,1.1,6.3,2.9
		c0.3,0.3,0.6,0.6,0.8,1c0.2-0.5,0.5-0.6,1-0.5c0.5,0.1,0.5,0.5,0.5,0.9c-0.2,2.6-0.2,5.3,0.1,7.9c0.4,4.2,1.5,8.3,3.1,12.2
		c2.5,6,5,12,7.5,18.1c0.4,1.1,0.7,2.2,1,3.3c0.3-0.1,0.8-0.3,1.1-0.2c0.3,0.1,0.6,0.5,0.8,0.8c0.2,0.4,0.4,0.9,0.5,1.3
		c0.1,0.4,0.1,0.9,0.2,1.4c0.5,0.1,1,0.1,1.6,0.2c-0.2-0.9-0.3-1.8-0.5-2.6c-0.1-0.8-0.1-1,0.6-1.3c-0.5-4.5-0.5-9-0.6-13.5
		c-0.3-6.8-0.5-13.7-0.7-20.5c-0.1-2.3-0.2-4.6-0.2-6.9c0-0.4,0-0.7,0.1-1.1c0.1-0.4,0.3-0.6,0.7-0.6c0.2,0.1,0.6,0.3,0.6,0.5
		c0.2,0.9,0.2,1.7,0.3,2.6c0.1,0.5,0.1,1,0.2,1.6c0.6-0.5,1.1-0.8,1.6-1.2c2-1.7,3.2-3.8,4.2-6.2c0.4-1,0.8-1.9,1.1-2.9
		c0.2-0.6,0.6-0.8,1.2-0.6c0.5,0.2,0.7,0.6,0.5,1.2c-0.7,2.2-1.4,4.5-2.6,6.5c-1.4,2.2-3,4-5.6,4.8c-0.3,0.1-0.3,0.3-0.3,0.6
		c0.1,3.1,0.3,6.1,0.4,9.2c0.2,4.1,0.4,8.2,0.6,12.3c0.2,4.1,0.3,8.3,0.5,12.4c0,0.5,0,1.1,0.2,1.5c0.1,0.3,0.5,0.6,0.8,0.7
		c1.3,0.4,2.5,0.8,3.8,1.2c0.1,0,0.3-0.1,0.3-0.1c0-0.3,0.1-0.6-0.1-0.8c-0.2-0.3-0.6-0.5-0.9-0.7c-0.5-0.4-1-0.7-1.6-1.1
		c-0.1,0-0.1-0.1-0.2-0.1c-0.6-0.4-0.8-0.9-0.6-1.3c0.2-0.4,0.6-0.5,1.4-0.3c1.3,0.3,2.4,0.9,3.2,2c0.5-0.5,0.5-1.1,0-1.5
		c-0.6-0.5-1.2-1-1.8-1.4c-1.5-1.2-2.2-2.7-1.9-4.6c1.1-5.9,2.1-11.7,3.2-17.6c0.9-4.4,2-8.7,3-13c0.8-3.3,1.4-6.6,1.6-10
		c0.2-2.4,0-4.7-0.4-7.1c-0.4-2.2-0.6-4.5-0.8-6.7c-0.1-0.9-0.2-1.8-0.3-2.8c-0.8,0.3-1.5,0.7-2.2,1c-3.2,1.3-6.5,2-9.9,2.1
		c-0.4,0-0.6,0.2-0.8,0.5c-1,2.3-1.9,4.6-2.9,7c-0.1,0.2-0.1,0.4-0.2,0.5c-0.2,0.3-0.5,0.6-1,0.4c-0.4-0.2-0.5-0.6-0.4-1
		c0.3-1.1,0.5-2.2,0.9-3.2c0.5-1.5,1.1-2.9,1.7-4.4c-0.8-0.1-1.6-0.3-2.4-0.4c-0.1,0-0.3,0.1-0.4,0.2c-1.8,1.7-3.3,3.6-4.4,5.9
		c-0.1,0.2-0.2,0.3-0.2,0.5c-0.2,0.3-0.4,0.5-0.8,0.4c-0.4-0.1-0.5-0.4-0.5-0.7c0-0.9,0.2-1.7,0.7-2.4c0.9-1.4,2-2.8,3-4.1
		c0.1-0.1,0.2-0.3,0.4-0.5c-0.6-0.3-1.2-0.5-1.7-0.8c-0.5-0.3-1.1-0.5-1.6-0.8c-0.6-0.4-1-0.3-1.6,0c-1.5,1-3.1,1.9-4.7,2.8
		c-0.6,0.4-1,0.4-1.3,0c-0.3-0.4-0.1-0.8,0.4-1.3c1.4-1.3,3-2.5,4.9-3.4c-1.4-0.6-1.7-1.8-2.1-3c-0.6-1.5-1.2-2.9-1.7-4.5
		c-0.5-1.8-0.5-3.7-0.2-5.6c0.4-2.2,0.6-4.4,1.1-6.5c0.3-1.3,0.9-2.6,1.3-3.9c0.1-0.3,0.4-0.6,0.7-0.4c0.2,0.1,0.5,0.4,0.6,0.6
		c0.1,0.3,0,0.6-0.1,1c-0.5,2.2-1.2,4.3-1.5,6.5c-0.6,3.3-0.5,6.5,0.4,9.7c0.6,1.9,1.6,3.5,3,4.8c0.3,0.3,0.5,0.3,0.9,0.2
		c2.9-0.9,5.8-1.9,8.8-2.7c1.2-0.4,2.4-0.5,3.7-0.8c0.4-0.1,0.7,0.1,0.8,0.5c0.1,0.4-0.1,0.7-0.6,0.9c-2.9,0.9-5.8,1.8-8.7,2.7
		c-0.7,0.2-1.5,0.6-2.3,0.9c1.1,0.5,2,0.9,3,1.3c0.2,0.1,0.5-0.1,0.7-0.2c1.3-0.9,2.6-1.8,3.9-2.7c0.5-0.3,1-0.6,1.6-0.9
		c0.7-0.3,1.2,0,1.3,0.7c0,0.1,0,0.2,0.1,0.3c0.4,0.4,0.4,0.8,0.1,1.3c-0.4,0.8-0.8,1.5-1.2,2.5c0.9-0.1,1.7-0.1,2.5-0.2
		c3.7-0.6,7-2.1,10.2-4c1.2-0.7,2.3-1.5,3.6-2.3c-0.5,0-0.9,0-1.2-0.1c-0.3-0.1-0.7-0.3-0.8-0.6c-0.4-0.8-0.4-1.6,0-2.4
		c0.3-0.6,0.9-0.8,1.5-0.6c1.1,0.2,1.7,1.4,1.4,2.4c-0.1,0.3-0.2,0.5-0.3,0.9c2.4-2,4.6-4,5.9-6.6c-0.3-0.4-0.7-0.6-0.8-1
		c-0.1-0.8,0.8-0.7,1.2-1.1c-0.6-0.7-0.5-1.1,0.3-1.5c1.4-0.7,1.5-0.7,1.3-2.7c0-0.3-0.2-0.6-0.3-1c-1,0.7-1.9,1.4-2.8,2
		c-0.4,0.3-0.8,0.6-1.2,0.9c-0.8,0.6-1,0.5-1.7-0.1c-0.8,0.8-1.9,1.2-3,1.4c-0.9,0.1-1.7-0.2-2.3-0.8c-0.3-0.3-0.7-0.6-1.1-0.8
		c-2.1-1.2-3.5-2.9-4.2-5.3c-0.5-1.8-0.9-3.7-1.2-5.5c-0.1-0.7,0-1.6,0.2-2.3c0.4-1.4,2-2.2,3.7-2c1.9,0.3,3.6,1.1,5.1,2.3
		c0.1,0.1,0.3,0.2,0.5,0.3c-0.2-0.2-0.4-0.5-0.6-0.7c-0.7-0.9-1.4-1.7-2.1-2.7c-1.3-1.9-3-3.3-5-4.4c-0.6-0.3-1.1-0.6-1.7-0.9
		c-0.4-0.2-0.6-0.5-0.4-1c0.1-0.4,0.5-0.6,1-0.5c0.1,0,0.2,0.1,0.3,0.1c2.6,1.1,5,2.5,6.8,4.8c0,0.1,0.1,0.1,0.1,0.3
		c0.7-3.4-1.4-12.1-4.1-17.1c-0.7,0.8-1.4,1.5-2,2.3c-1.8,2.5-2.5,5.3-2.6,8.3c0,0.3,0,0.5,0,0.8c0,0.6-0.2,0.8-0.7,0.9
		c-0.5,0.1-0.9-0.2-1-0.7c-0.2-1.6-0.1-3.1,0.2-4.7c0.2-0.8,0.4-1.6,0.6-2.5c-0.8,0.9-1.7,1.8-2.4,2.8C80.2,96,79.1,97.5,78,99
		c-0.8,1.1-1.8,1.6-3.2,1.7c-0.9,0.1-1.9,0.5-2.8,0.9c-1.8,0.8-3.5,1.9-5,3.2c-1.4,1.2-3,1.7-4.8,1.9c-4.1,0.5-8,1.7-11.5,4
		c-0.2,0.1-0.4,0.3-0.5,0.5c0.2-0.1,0.3-0.1,0.5-0.2c4-1.5,8-1.8,12.1-0.4c1,0.3,1.9,0.9,2.5,1.7c0.3,0.3,0.5,0.6,0.2,1
		c-0.3,0.4-0.7,0.4-1.1,0.2c-1-0.4-2-1-3-1.2c-4-1-7.8-0.5-11.5,1.3c-1.1,0.5-2.1,1.1-3.3,1.7c0.8,0.7,1.4,1.5,2.2,2
		c3.5,2.5,7.1,4.9,10.7,7.3c0.4,0.3,0.7,0.5,1.1,0.8c0.3,0.3,0.4,0.6,0.2,1c-0.2,0.4-0.5,0.5-0.9,0.3c-0.8-0.4-1.6-0.9-2.4-1.4
		c-2.9-1.8-5.7-3.7-8.5-5.5c-0.1-0.1-0.2-0.1-0.4-0.2c0.1,1.6,0.1,3.1,0.2,4.7c0.2,3.6,0.3,7.3-0.6,10.8c-0.7,2.8-1.6,5.5-2.5,8.3
		c-1.1,3.5-2.4,7-3.5,10.6c-0.8,2.7-1.1,5.4-0.6,8.2c0.1,0.7,0.4,1.3,0.6,2.1c0.4-1.1,0.8-2,1.2-2.9c1.1-2.3,2.6-4.3,4.3-6.2
		c2.3-2.7,4.6-5.3,6.5-8.2c0.7-1,1.3-2,1.8-3.1c1-2,2.3-3.7,3.7-5.3c0.4-0.5,1-0.9,1.6-1.3c0.2-0.1,0.7-0.1,0.8,0.1
		c0.2,0.1,0.2,0.6,0.1,0.8c-0.1,0.3-0.4,0.6-0.6,0.8c-1.6,1.6-2.9,3.3-3.8,5.4c-1.4,3.2-3.5,6-5.7,8.6c-1.5,1.9-3.2,3.7-4.6,5.6
		c-2.5,3.3-3.9,7.2-4.5,11.3c-0.5,3.2-0.6,6.3-0.2,9.5c0.6,4.7,2,9,5.5,12.3c3.3,3.1,7.3,4.4,11.8,3.7c1.7-0.3,3.2-1.2,4.4-2.4
		c0.3-0.3,0.6-0.6,1-0.9c0.5-0.4,0.9-0.4,1.2-0.1c0.4,0.4,0.2,0.8-0.1,1.1c-0.3,0.4-0.7,0.9-1,1.3c0.9,0.9,1.7,1.8,2.1,2.9
		c0.4,1.2,0.7,2.4,0.5,3.7c-0.2,1.1-0.8,1.6-1.8,1.9c-0.5,0.1-0.9,0.3-1.4,0.5c-1.8,0.9-3.6,0.8-5.2-0.5c-1.2-0.9-2.3-2-3.1-3.3
		c-0.9-1.5-2.2-2.5-3.8-3c-6.1-1.9-9.6-6.2-11.2-12.2c-0.6-2.2-0.9-4.5-1.3-6.7c-0.1-0.6-0.2-1.1-0.3-1.7c-0.7-0.1-1.1-0.7-1.5-1.3
		c-2.1-3.3-3.5-6.9-4.1-10.8c-0.4-2.8-0.3-5.5,0.2-8.3c1.1-5.8,2.7-11.4,4.4-17c0.7-2.3,1.4-4.7,1.9-7.1c0.7-3,0.6-6.1,0.3-9.1
		c-0.3-2.2-0.4-4.3-0.9-6.5c-0.5-2.2-1.5-4.1-3.7-5c-1.2-0.5-2.5-0.4-3.7-0.2c-2,0.5-3.9,1.3-5.5,2.8c-0.3,0.3-0.9,0.5-1.4,0.5
		c-1.7,0.1-3.3-1-3.5-2.4c0,0,0-0.1-0.1-0.1c0-0.3,0-0.5,0-0.8c0.6-1.5,1.4-2.8,2.8-3.7c3.9-2.8,8.2-4,13-3c3.8,0.8,6.3,3.1,7.5,6.8
		c0.1,0.3,0,0.7,0,1c-0.6,0.3-0.9,0.3-1.2-0.2c-0.3-0.4-0.5-0.9-0.8-1.3c-1.2-2.3-3-3.9-5.6-4.4c-3.5-0.7-6.9-0.1-10.1,1.6
		c-1.3,0.7-2.5,1.7-3.3,3c-0.4,0.6-0.3,1,0.3,1.3c0.6,0.3,1,0.1,1.5-0.3c2.6-2,5.5-3.2,8.8-3c1.3,0.1,2.5,0.4,3.5,1.2
		c1.6,1.2,2.6,2.7,3.2,4.5c1,2.9,1.3,5.9,1.4,8.9c0.2,5.2-0.6,10.4-2.1,15.3c-1.4,4.5-2.9,8.9-4,13.5c-0.6,2.3-1.2,4.5-1.3,6.9
		c-0.2,4.5,0.8,8.7,2.7,12.7c0.4,0.8,0.8,1.5,1.2,2.3c0.1-2.4,0.5-4.7,1-6.9c0.1-0.4,0-0.8-0.2-1.1c-1.2-2-1.7-4.2-1.8-6.5
		c0-2.6,0.4-5.2,1.2-7.6c1.1-3.4,2.2-6.8,3.4-10.2c1.5-4.2,2.5-8.4,2.8-12.8c0.2-3.3,0.2-6.6,0-9.9c0-0.4-0.2-0.8-0.4-1.1
		c-0.2-0.3-0.5-0.5-0.8-0.8c-0.8-0.7-1.1-1.6-0.9-2.7c0.2-1,0.8-1.7,1.3-2.4c0.1-0.1,0.2-0.2,0.3-0.3c2-2.3,4.5-4,7.4-5.2
		c2.7-1.1,5.6-1.7,8.4-2.2c1.2-0.2,2.3-0.5,3.3-1.2c1-0.8,2.1-1.7,3.3-2.4c1.8-1.2,3.7-2,5.8-2.3c1-0.2,1.5-0.7,2.1-1.4
		c1.7-2.1,3.4-4.3,5.2-6.4c2.1-2.4,4.7-4.3,7.6-5.5C89.6,85.4,89.8,85.4,90,85.4z M66,200.9c0,0,0.1,0,0.1,0c0-0.2,0.1-0.4,0.1-0.6
		c0-1.6-0.6-3.1-1.7-4.3c-0.2-0.3-0.4-0.3-0.7-0.1c-1.3,0.8-2.7,1.3-4.2,1.5c-0.7,0.1-1.4,0.2-2.2,0.2c1,1.4,2.2,2.6,3.6,3.7
		c-0.1-0.5-0.2-0.9-0.2-1.2c-0.1-0.4,0-0.8,0.4-0.9c0.3-0.1,0.6,0.1,0.9,0.2c0.2,0.1,0.4,0.3,0.5,0.6c0.3,0.6,0.5,1.2,0.8,1.9
		c0.4,0,0.5-0.2,0.3-0.7c-0.3-0.5-0.6-1.1-0.9-1.6c-0.1-0.3-0.1-0.7,0-0.9c0.1-0.2,0.6-0.3,0.9-0.2c1,0.2,1.7,0.9,2.1,1.9
		C65.9,200.7,66,200.8,66,200.9z M95.4,121.5c0.9-0.5,1.3-1.4,1.4-2.3c0.2-3.6-1.1-6.5-3.9-8.7c-1.1-0.9-2.4-1.4-3.8-1.6
		c-1.1-0.2-1.9,0.6-1.8,1.7c1.3-0.7,2-0.8,3.2-0.3c1,0.4,1.8,0.9,2.4,1.7c0.5,0.7,1,1.4,1.4,2C95.9,116.3,96.4,118.7,95.4,121.5z
		 M98.5,115.6c0.4,1.7,0.6,3.3,0,5c1.1-0.8,2.1-1.7,3.2-2.5c-0.5-0.7-1-1.3-1.5-1.9C99.6,115.3,99.6,115.3,98.5,115.6z M90.5,114.3
		c-0.6,1.2,0.5,3.5,2,3.9c0-0.4,0.1-0.7,0.1-1.1c0-0.8,0.1-0.9,0.8-1.1c-0.7-1.9-0.7-1.9-1-2C92.3,114.9,92,115,90.5,114.3z
		 M88.4,114.1c0.3-1.3,1.3-1.6,2.5-1.5c-0.7-0.4-1.3-1-2-0.6C88.1,112.4,88.3,113.3,88.4,114.1z M75.2,140c0,0,0,0.1,0,0.1
		c0.4,0.1,0.8,0.1,1.2,0.2c0.1,0,0.3-0.1,0.3-0.2c0.4-0.6,0.7-1.2,1-1.8c0,0-0.1,0-0.1-0.1C76.8,138.8,76,139.4,75.2,140z
		 M91.9,120.1c0.5,0.3,1,0.7,1.6,0.4c0.5-0.3,0.5-0.8,0.6-1.4C93.5,119.9,92.8,120.2,91.9,120.1z M98,113.9c0.2-0.1,0.4-0.1,0.6-0.2
		c-0.4-0.4-0.5-1-1.2-1C97.6,113,97.8,113.4,98,113.9z"/>
	<path d="M77.3,116.5c-1.3-0.7-2.7-0.4-3.8,0.9c-0.6,0.8-1.2,1.7-1.6,2.7c-1.1,2.4-1.3,4.9-0.8,7.4c0.1,0.6,0.4,1.2,0.7,1.8
		c0.2,0.6,0.1,1.1-0.3,1.6c-1.1,1.2-2.4,1.5-4,1.3c-0.4,0-0.6-0.2-0.7-0.6c0-0.4,0.2-0.6,0.5-0.8c0.9-0.4,1.9-0.8,2.9-1.2
		c-0.2-0.3-0.3-0.7-0.6-1c-0.1-0.1-0.3-0.2-0.4-0.1c-1.7,0.5-3.4-0.1-5.1-0.4c-0.5-0.1-0.6-0.5-0.5-0.9c0-0.5,0.3-0.8,0.8-0.8
		c0.7,0,1.4,0.1,2.2,0.2c0.8,0.1,1.6,0.1,2.5,0.2c0-0.4-0.1-0.7-0.1-1c-0.2-3.8,0.9-7.1,3.3-10c1.7-1.9,3.9-2.4,6-1.1
		c3,1.8,5.3,4.3,6.4,7.6c0.4,1.1,0.7,2.3,0.8,3.4c0.2,2-0.8,3.5-2.5,4.5c-0.2,0.1-0.4,0.2-0.6,0.2c-3.2,0-5.4-1.7-7-4.2
		c-1.2-1.9-1.8-3.9-1.5-6.2C74.1,118.2,75.1,116.9,77.3,116.5z M82,125.5c-0.1-0.5-0.1-1-0.2-1.5c-0.2-1,0.2-1.4,1.2-1
		c-0.2-0.8-1.1-2.4-1.8-3c-0.2,0.7-0.6,1-1.3,0.6c-0.4-0.2-0.8-0.3-1.2-0.5C78.5,121.9,80.3,124.8,82,125.5z M83.4,126.8
		c-0.3,0.2-0.6,0.4-1,0.6c-0.8,0.3-1.6,0-2.3-0.4c-2-1.3-3.1-3.2-3.5-5.5c-0.2-1.1-0.2-2.1,0.7-3c-0.7,0.2-1.2,0.9-1.2,1.7
		c-0.1,2.9,1.1,5.1,3.2,7c0.6,0.5,1.3,0.9,2.1,1.1C82.4,128.6,83.3,127.9,83.4,126.8z"/>
	<path d="M83.3,107.7c-0.1,1.6-0.4,2.9-1.8,3.5c-2.1,0.9-4.7-0.3-5.4-2.5c-0.2-0.7-0.3-1.4-0.1-2.1c0.2-0.6,0.6-0.8,1.1-0.5
		c0.6,0.3,1.2,0.6,1.8,0.8c0.2,0.1,0.5,0,0.8,0c0-0.3,0-0.5-0.1-0.8c-0.1-0.2-0.2-0.4-0.3-0.6c-0.3-0.7,0-1.2,0.7-1.3
		c1.3-0.2,2.5,0.6,3,2C83.2,106.8,83.2,107.3,83.3,107.7z"/>
	<path d="M67.7,117.9c-0.6,0-1-0.5-0.8-1c0.3-0.9,0.6-1.8,1-2.7c0.7-1.3,1.7-2.5,3-3.4c0.3-0.2,0.6-0.3,1-0.4c0.3-0.1,0.7,0,0.8,0.3
		c0.2,0.3,0.1,0.7-0.1,0.9c-0.5,0.6-1.2,1.2-1.6,1.8c-0.9,1.2-1.7,2.5-2.6,3.8C68.1,117.5,67.8,117.7,67.7,117.9z"/>
	<path d="M86.6,103c0.9,0.2,1.6,0.3,2.4,0.5c0.3,0.1,0.6,0.3,0.8,0.5c0.3,0.2,0.4,0.6,0.3,1c-0.1,0.4-0.4,0.5-0.8,0.4
		c-1-0.1-1.9-0.2-2.9-0.2c-0.5,0-1.1-0.1-1.6-0.2c-0.3-0.1-0.5-0.3-0.7-0.5c-0.2-0.3,0-0.7,0.3-0.9C85.2,103.4,86,103.2,86.6,103z"
		/>
</g>
</svg>
