<?xml version="1.0" encoding="utf-8"?>
<!-- Generator: Adobe Illustrator 17.1.0, SVG Export Plug-In . SVG Version: 6.00 Build 0)  -->
<!DOCTYPE svg PUBLIC "-//W3C//DTD SVG 1.1//EN" "http://www.w3.org/Graphics/SVG/1.1/DTD/svg11.dtd">
<svg version="1.1" id="Layer_1" xmlns="http://www.w3.org/2000/svg" xmlns:xlink="http://www.w3.org/1999/xlink" x="0px" y="0px"
	 viewBox="0 0 288 216" enable-background="new 0 0 288 216" xml:space="preserve">
<g>
	<path d="M61.5,200.6c-0.7-0.2-1.4-0.4-2.1-0.6c-1-0.3-2.1-0.5-3.1-0.8c-0.4-0.1-0.9-1.3-0.7-1.9c0.4-0.9,0.7-1.8,1.3-2.6
		c1.3-1.6,3.1-2.7,5.3-3.2c-0.1-1.1-0.2-2.2-0.4-3.3c0-0.2-0.4-0.4-0.7-0.4c-1.7-0.2-2.8-1.3-2.9-3c0-0.7-0.2-1.5-0.3-2.3
		c0.4-0.2,0.9-0.5,1.4-0.9c-0.3-1.7-1-3.2-2.5-4.3c-0.2-0.1-0.5-0.1-0.6,0c-1.3,1-2.6,0.6-3.8-0.1c-1.4-0.8-2.7-1.8-4-2.7
		c-0.1-0.1-0.1-0.2-0.2-0.2c-1.8-0.8-3-2.3-4.1-3.7c-1-1.2-2-2.4-2.8-3.6c-0.8-1.2-1.8-2.5-1.7-4c0-0.8,0.2-1.7,0.7-2.3
		c1.9-2.9,4.2-5.4,7-7.4c0.1-0.1,0.2-0.2,0.4-0.2c0.8-0.3,1.3-0.7,1.2-1.6c0-0.1,0.3-0.4,0.5-0.4c1-0.1,1-0.8,1.1-1.5
		c0.3-2.5,1-4.9,2.3-7.1c0.8-1.4,1.7-2.8,2.7-4.3c-1.3-1.4-2.6-3-4-4.5c-0.1-0.1-0.4-0.2-0.6-0.2c-1.9,0.1-3.6,0.7-5.3,1.5
		c-1.8,0.9-3.5,1.8-5.3,2.8c-1,0.6-2,1.3-2.9,2c-0.9,0.6-1.1,1.6-1.4,2.6c-0.4,1.2-1,2.4-1.6,3.6c-0.3,0.6-1.7,0.9-2.4,0.5
		c-0.4-0.2-0.6-0.9-0.9-1.3c-0.1-0.2-0.1-0.5-0.2-0.8c-0.3,0.5-0.5,1-0.8,1.4c-0.5,0.7-1.4,1-2.2,0.8c-0.7-0.2-0.9-0.8-1.1-1.3
		c-0.1-0.5-0.3-0.8-0.9-0.7c-1,0.1-1.7-0.4-2.2-1.3c0-0.6,0-1.1,0-1.7c0.3-0.9,0.6-1.7,0.9-2.6c0.1-0.2,0-0.4-0.1-0.6
		c-0.5-1-0.1-1.9,0.6-2.6c0.9-1,2.1-1.4,3.4-1.8c0.8-0.3,1.6-0.4,2.4-0.4c0.6,0,1.3,0.1,1.9,0.3c0.6,0.2,0.9,0.2,1.2-0.5
		c0.4-0.9,0.8-1.8,1.4-2.5c0.7-1,1.6-1.9,2.5-2.6c1.5-1.2,3-2.3,4.6-3.3c1.7-1.1,3.6-1.9,5.6-2.5c2.3-0.8,4.6-1,7-1
		c1.9,0,3.6,0.4,5.2,1.3c0.3,0.2,0.6,0.3,1,0.5c0.3-0.3,0.5-0.7,0.8-1c0.6-0.5,1.3-0.5,2-0.3c0.8,0.2,1.6,0.4,2.4,0.5
		c0.2-0.4,0.3-0.7,0.4-1c-1.1-0.2-2.2-0.5-3.3-0.7c-1.7-0.4-2.8-1.4-3.9-2.7c-1.3-1.5-1.3-3.4-1.6-5.2c-0.2-1.1-0.2-2.3,0-3.5
		c0.2-1.4,0.6-1.7,2.1-1.8c0-0.4,0-0.7,0-1.1c0.1-0.7,0-1.5,0.3-2c0.4-0.6,0.1-1-0.1-1.3c-0.8-1.4-1.9-2.6-3.1-3.7
		c-1.1-1-2.3-1.1-3.5-1.4c-0.6-0.2-1.4,0.1-2,0.4c-1,0.5-2.1,1-2.8,2.1c-0.7,1.2-0.5,2.2,0.6,3.1c0.6,0.5,1.3,1,1.6,1.6
		c0.3,0.6,0.2,1.3,0.2,2c-0.1,1.5-2.1,2.7-3.4,2c-1.1-0.6-1.6-1.7-1.8-2.9c-0.6-3,0.9-5.4,2.6-7.7c1.8-2.4,4.2-4.2,6.5-6
		c1.4-1.1,2.6-2.5,4.4-3.1c1.2-0.4,2.3-0.9,3.5-1.3c2.3-0.8,4.7-1.1,7.2-1c1.2,0,2.5,0.3,3.7,0.4c2,0.3,4,0.9,5.9,1.7
		c1.2,0.5,2.4,1,3.5,1.7c0.6,0.4,1.2,0.9,1.8,1.4c1.7,1.3,3.1,2.9,4.5,4.6c0.6,0.7,1.4,1.2,2.2,1.6c1.4,0.8,2.1,2,2.3,3.5
		c0.1,0.5-0.3,1.1-0.4,1.7c-0.2,0.7-0.8,0.8-1.3,0.9c-0.4,0.1-0.8,0.3-1.2,0.5c-0.2,1.1,0.3,2,0.9,2.8c0.4,0.6,0.9,1.1,1.1,1.7
		c0.2,0.8,0.1,1.6,0,2.4c0,0.3-0.2,0.7-0.2,1c-0.1,0.8,0.2,1.4,0.9,1.8c2.1,1.2,3.6,2.9,3.8,5.4c0,0.5,0.3,1,0.3,1.4
		c0,0.5-0.1,1-0.3,1.5c-0.5,1.1-1.1,2.2-1.6,3.2c0,0.1,0.1,0.1,0.1,0.2c2.5-0.9,5.1-1.7,7.6-2.7c1.4-0.6,2.6-1.5,3.6-2.8
		c0.5-0.6,1.1-0.8,1.8-0.7c0.5,0,0.7-0.2,0.9-0.6c0.4-1.2,0.9-2.5,1.5-3.6c0.8-1.5,2.1-2.6,3.7-3.4c0.8-0.4,1.5-0.9,2.4-0.9
		c0.7,0,1.4,0.1,1.8,0.7c0.4,0.7,0.2,1.5-0.1,2.3c-0.1,0.3-0.3,0.6-0.4,0.8c0.4,0.7,0.7,1.3,1.2,1.8c0.3,0.3,0.8,0.5,1.1,0.7
		c0.2,0.1,0.4,0.2,0.4,0.3c0.5,2.2,0.9,4.5-0.4,6.6c-0.6,1.1-1.7,1.6-2.9,1.9c-0.2,0.1-0.5-0.2-0.7-0.4c-0.5-0.4-1-0.8-1.4-1.1
		c-0.8,0.4-1.5,0.9-2.3,1.1c-1,0.2-1.6,0.8-2.2,1.6c-1.8,2.4-4.1,4.3-6.6,5.9c-2.9,1.8-6.1,3.2-9.4,4.2c-1.1,0.3-2.2,0.7-3.3,1.1
		c-1.1,0.4-1.4,1.4-2.1,2.1c-1.4,1.7-2.8,3.4-4.3,5.1c-1.2,1.4-2.4,2.7-3.7,4.1c-0.5,0.5-0.9,1-1.4,1.5c-0.9,1.1-0.5,2.3-0.3,3.4
		c0.1,0.4,0.8,0.7,1.3,1c1.5,0.8,2.9,1.8,4.1,2.9c1.1,1,2,2.1,2.4,3.6c0.3,1,0.1,2-0.7,2.7c-1.8,1.6-3.7,3.2-5.6,4.7
		c-1.3,1-2.3,2.1-2.8,3.6c-0.6,1.5-1.2,2.9-1.8,4.4c-0.2,0.4-0.4,0.8-0.3,1.2c0,0.5,0.2,1,0.4,1.4c0.6,1,0.4,2,0.2,3
		c-0.2,0.7-0.5,1.3-0.6,2c-0.1,0.3,0.2,0.7,0.3,0.9c2,0,3.9,0,5.8,0c1.3,0,2.4,0.5,3.4,1.4c0.6,0.5,1.2,1.1,2,1.3
		c1,0.3,1.7,1.1,1.7,2.2c0,0.3-0.2,0.6-0.5,0.8c-1.5,1.3-3.3,2.1-5.2,2.7c-1.1,0.4-2.2,0.7-3.4,1c-1,0.2-2,0.3-3,0.4
		c-1.1,0.1-2.2,0.3-3.3,0.3c-0.7,0-1.4-0.2-2-0.3c-1-0.1-1.6,0.1-2.3,1.1c-0.5,0.7-1.8,1.1-2.7,1.4c-1.3,0.4-2.6,0.7-3.9,1
		c-0.4,0.1-0.9,0.2-1.3,0.2C62.3,200.6,61.9,200.6,61.5,200.6z M57.8,139.4c-0.4-0.2-0.7-0.4-1-0.4c-0.3,0-0.7-0.1-0.9,0.1
		c-1.8,1.7-3.1,3.8-3.7,6.2c-0.5,1.6-0.7,3.3-0.9,4.9c-0.1,0.7,0,1.5,0.3,2c1.1,1.9,2.9,3.1,4.9,3.8c1.4,0.5,2.7,0.9,4.2,0.8
		c1.6-0.1,3.2,0,4.9,0c1.1,0,2.3-0.1,3.4-0.3c1.8-0.2,3.6-0.4,5.4-0.8c1-0.2,2.1-0.6,2.9-1.1c1-0.7,1.8-1.7,2.7-2.6
		c1.7-1.9,3.4-3.8,5-5.8c0.8-1,1.8-1.9,2.5-2.9c1.7-2.4,3.3-4.8,5-7.2c0.1-0.1,0.3-0.2,0.5-0.3c0.1,0.1,0.2,0.1,0.2,0.2
		c-0.4,0.8-0.8,1.6-1.2,2.3c0.1,0.1,0.1,0.2,0.2,0.3c1.8-0.5,3.6-1,5.3-1.7c2.7-1,5.3-2.4,7.6-4.1c1.6-1.2,3.3-2.3,4.7-3.8
		c1.6-1.7,2-3.8,1.2-6.1c-0.4-1-1.3-1.7-2.2-1.5c-0.5,0.1-0.9,0.6-1.3,0.8c-1,0.7-2,1.3-3,2c-0.8,0.5-1.6,1-2.5,1.4
		c-2.4,0.9-4.8,1.6-7.2,2.4c-2.1,0.7-4,1.8-5.7,3.3c-0.7,0.6-0.7,0.9,0,1.5c0.7,0.6,0.7,1.2,0.5,1.9c-0.3,1.1-1.2,1.4-2.1,0.8
		c-0.1,0-0.2-0.1-0.3-0.1c-0.6,0-1.3,0.1-2,0.1c0,0.5-0.1,1.1,0,1.6c0.5,1.8-0.6,2.6-1.8,3.1c-0.8,0.3-1.8,0-2.1-0.6
		c-0.2-0.4-0.3-0.8-0.5-1.2c-0.5-1-0.7-2.4-2.6-1.6c-0.2,0.6-0.3,1.5-0.7,2.2c-0.5,1-0.8,2.2-2.3,2.4c-1.6,0.2-2.5-0.3-2.6-2
		c0-1.1,0.2-2.2,0.3-3.3c0-0.3-0.2-0.7-0.3-1.2c-0.6,0.4-1.2,0.7-1.6,1.1c-0.7,0.7-1.2,1.4-1.8,2.1c-0.2,0.2-0.6,0.4-0.9,0.5
		c-0.4,0.1-0.8,0-1.3,0c-1.2-0.1-2.4-1.9-1.9-2.9c0.4-0.7,0.9-1.4,1.3-2c0.6-0.9,0.9-1.8,0.9-3c-0.4,0.3-0.7,0.4-1,0.6
		c-0.9,0.8-1.9,0.9-3,0.6c-0.5-0.2-0.8-0.5-0.9-0.9c-0.1-0.8-0.2-1.7,0.6-2.3c0.2-0.1,0.3-0.3,0.5-0.5c0.5-0.9,0.7-1.5-0.4-2.2
		c-0.8-0.5-1.8-1-2.4-1.8c-1.3-1.6-3.2-1.9-5-2c-2.3-0.2-4.6,0-6.8,0.7c-1.4,0.5-2.8,1-4.1,1.7c-2.7,1.4-5.1,3.2-7.2,5.3
		c-0.8,0.8-1.8,1.5-2.1,2.8c-0.4,1.5-0.9,2.9-0.8,4.4c0.1,1.4,1.4,2.5,2.5,2.1c0.3-0.1,0.6-0.3,0.9-0.5c2-1.2,4.1-2.4,6.1-3.6
		c1.8-1,3.6-2,5.7-2.5c0.7-0.1,1.5-0.4,2.1,0.2c0.7,0.8,1.3,1.6,2,2.4c0.7,0.7,1.1,1.6,2.1,2.1C56.7,137.7,57.6,138.2,57.8,139.4z
		 M68,120.2c0,0.2,0,0.2,0,0.3c-0.9,1.5-0.8,3.3-0.5,4.8c0.5,2.7,2.3,4.7,4.7,6c1.1,0.6,2.3,1.1,3.6,1.5c1.1,0.3,2.3,0.6,3.4,0.6
		c2,0,3.9-0.2,5.9-0.6c1.2-0.2,2.4-0.6,3.2-1.7c0.6-0.8,1.4-1.6,2.2-2c1.1-0.5,2.1-1.1,3.2-1.8c1.4-1,2.2-2.4,3-3.9
		c0.2-0.3,0.4-0.8,0.3-1.1c-0.2-1.4-0.3-2.8-0.9-4.1c-0.7-1.4-2.4-2.6-3.8-2.5c-0.2,0-0.4,0-0.5,0.1c-1.1,0.8-1.3,0.8-2-0.4
		c-0.7-1.3-1-2.7-0.7-4.2c0.1-0.6,0.3-1.2,0.6-1.7c0.5-0.9,1-1.7,0.8-2.7c-0.1-0.4-0.2-0.8-0.4-1.1c-0.3-0.3-1.3,0.3-1.4,0.7
		c-0.1,0.2-0.2,0.3-0.3,0.5c-0.1,0-0.1-0.1-0.2-0.1c0.1-0.5,0.3-1.1,0.5-1.6c-1.1-0.1-2.1-0.1-3.1-0.2c1,1.7,1,1.7,0.9,2.4
		c-0.6-1.7-1.8-2.4-3.6-2.5c-1.7-0.1-2.9,0.6-3.8,1.9c0-0.1-0.1-0.1-0.1-0.2c0.2-0.5,0.4-1,0.5-1.5c0-0.1-0.1-0.1-0.1-0.2
		c-1.7,0.5-3.5,0.8-5.1,1.4c-0.8,0.3-1.6,0.9-2.2,1.5c-1.1,1.3-0.7,2.6,0.1,3.9c0.1,0.2,0.3,0.4,0.3,0.6c0,0.6-0.1,1.3-0.2,1.9
		c0,0.2-0.1,0.5-0.3,0.6c-0.9,0.5-1.8,1-2.9,0.8c-0.3-1.4-0.8-2.6-1.9-3.5c-1.2-1-2.6-1.7-4.1-2.1c-0.7-0.2-1.5-0.5-2.1-0.9
		c-0.5-0.4-1-0.6-1.6-0.4c-0.7,0.2-0.8,0.8-0.8,1.4c0,1.7,0,3.3,0.4,5c0.3,1.2,0.7,2.2,1.5,3.1c1.4,1.6,3.3,2,5.3,2.2
		C66.4,120.3,67.2,120.2,68,120.2z M49,153.5c-0.5,0.2-1.1,0.3-1.6,0.6c-1.2,0.9-2.4,1.8-3.4,2.8c-1,1-2,2.2-2.8,3.4
		c-0.4,0.6-0.9,1.3-0.9,2.2c0,1.6,0.7,3,1.6,4.3c1,1.4,2.1,2.6,3.2,3.9c0.9,1,1.7,2.1,2.7,2.8c1.8,1.2,3.8,2.1,5.7,3.2
		c1,0.5,1.6,0.4,2.4-0.4c2-1.9,4-3.9,6-5.8c2.3-2.3,4.7-4.6,7-6.8c0.2-0.2,0.4-0.3,0.5-0.5c0.4,0.2,0.7,0.4,1,0.6
		c0.1,0.1,0.2,0.1,0.3,0.2c2.4,2.2,4.1,4.9,5.6,7.7c0.4,0.7,0.6,0.8,1.3,0.5c1.7-0.6,3-1.7,4.4-2.8c1.5-1.2,2.9-2.3,4.3-3.6
		c0.6-0.5,1.4-1,1.3-2.1c-0.2-1.4-0.9-2.4-1.8-3.4c-1.5-1.6-3.4-2.7-5.4-3.5c-0.2-0.1-0.4,0-0.6,0.1c-1.1,0.5-2.1,1.2-3.3,1.6
		c-1.1,0.4-2.3,0.7-3.5,1.1c-0.6,0.2-1.2,0.7-1.8,1c-2,1.1-4.1,0.8-6.2,0.4c-1.9-0.4-3.8-0.8-5.7-1.2c-1.7-0.3-3.4-0.5-5-1.4
		c-1.2-0.7-2.4-1.3-3.3-2.5C50.4,155.2,49.7,154.4,49,153.5z M61.3,103.4c8.6-4.4,17.8-6.2,27.4-5.7c-0.3-1.2-1.2-2.2-2.2-3
		c-1.4-1.2-3-2.3-4.5-3.3c-0.8-0.6-1.8-1-2.8-1.3c-1.4-0.5-2.9-0.8-4.4-1.1c-1-0.2-2.1-0.5-3.1-0.5c-2.2-0.1-4.4,0-6.7,0
		c-0.2,0-0.4,0-0.6,0c-2,0.7-4.1,1.2-5.8,2.6c-2,1.6-4,3.1-6,4.8c-0.6,0.5-1,1-1.5,1.5c1,0,1.8-0.2,2.7-0.4c0.3-0.1,0.7-0.1,0.9,0.1
		c0.7,0.4,1.2,1.1,1.9,1.5c1.1,0.7,2.1,1.6,2.8,2.7C60.1,101.9,60.7,102.6,61.3,103.4z M78.9,172.6c-0.7,0.2-1.3,0.4-2,0.5
		c-0.2,0-0.4-0.1-0.5-0.2c-0.2-0.3-0.3-0.7-0.5-1c-1.5-2.7-3.1-5.3-5.5-7.3c-0.6-0.5-1-0.5-1.6,0.1c-0.7,0.8-1.5,1.5-2.2,2.2
		c-1.1,1.1-2.1,2.2-3.2,3.2c-0.8,0.8-1.7,1.6-2.5,2.4c-1.1,1-2.1,2-3.2,3c-0.4,0.3-0.4,0.6-0.1,1c0.8,1.4,1.6,2.8,2.5,4.2
		c0.1,0.2,0.6,0.4,0.8,0.3c0.9-0.1,1.9-0.3,2.8-0.5c1.5-0.4,3-0.9,4.6-0.3c0.1,0,0.2,0,0.4,0c-0.2-1.4-0.3-2.7-0.5-4.1
		c-0.2-1.3-0.4-2.6-0.6-4c-0.6,0.1-1,0.2-1.4,0.2c-0.2,0-0.4-0.2-0.5-0.3c0-0.1,0.1-0.4,0.3-0.5c0.4-0.2,0.8-0.1,1.2-0.3
		c1.1-0.6,2.1-1.3,3.1-2c0.2-0.1,0.4-0.2,0.6-0.3c0.1,0.1,0.1,0.1,0.2,0.2c-0.3,0.3-0.6,0.7-1,1c-0.5,0.5-1.2,0.9-1.5,1.5
		c-0.2,0.5-0.1,1.2,0,1.8c0.2,1.8,0.4,3.6,0.6,5.4c0.1,1.1,0.4,2,1.4,2.6c1.7-0.8,3.4-1.3,5.2-1.5c0.2,0,0.4-0.3,0.5-0.5
		c0.5-1.4,1-2.7,1.5-4.1C78.1,174.5,78.5,173.6,78.9,172.6z M62,106.8c-0.1,0.3-0.3,0.4-0.3,0.6c-0.1,0.3-0.4,0.6-0.3,0.8
		c0.2,0.9,1.2,0.7,1.8,1.2c0.3,0.2,0.8,0.2,1.1,0.1c0.8-0.5,1.6-1.2,2.4-1.5c2.4-0.9,4.8-1.9,7.3-2.6c2.2-0.6,4.5-1,6.8-1.4
		c0.7-0.1,1.5-0.2,2.3-0.1c1.5,0.1,3,0.3,4.6,0.4c0.9,0.1,1.8,0.1,2.7,0.1c0.5,0,1.1,0.1,1.6-0.2c1.3-0.6,1.6-1.8,1-3.1
		c-0.3-0.7-0.5-1.7-1.3-1.9c-1.5-0.4-3-0.7-4.6-0.7c-2.5-0.1-4.9-0.1-7.4,0.1c-2.2,0.2-4.4,0.6-6.5,1c-1.6,0.3-3.3,0.7-4.8,1.3
		c-2,0.8-3.9,1.8-5.8,2.7c-1.4,0.7-1.9,1.5-1.7,3.1C61.1,106.8,61.5,106.8,62,106.8z M82.1,139.9c0.3-0.1,0.5-0.1,0.8-0.2
		c0.8-0.2,1.4-0.6,1.5-1.5c0.1-0.6,0.1-1.2,0.1-1.8c0-0.7,0.1-1.4,0.7-1.6c0.7-0.3,1.5-0.4,2.2,0.2c0.7,0.6,0.8,0.5,1.2-0.3
		c0.5-0.9,0.2-1.7-0.8-2c-0.6-0.2-1-0.1-1.5,0.2c-0.3,0.2-0.8,0.3-1.1,0.4c-0.9,0.2-1.7,0.4-2.6,0.4c-1.9,0-3.8,0.1-5.6-0.2
		c-2.1-0.3-4.1-1.3-6-2.5c-2.7-1.6-3.8-4.2-4.3-7.1c-0.1-0.5-0.2-0.8-0.7-1c-0.7-0.2-1.4-0.6-2.1-0.7c-0.5-0.1-1.1-0.1-1.4,0.2
		c-1.1,0.7-0.8,1.9,0.4,2.5c1.6,0.7,1.9,2.1,0.7,3.3c-0.2,0.2-0.4,0.5-0.7,0.8c-0.5,0.6-0.4,1.4,0.1,1.8c0.3,0.2,0.9,0.2,1.3,0
		c0.7-0.2,1.4-0.7,2.1-1c0.2-0.1,0.6-0.1,0.8,0.1c0.5,0.4,0.7,1.8,0.3,2.3c-0.5,0.7-0.9,1.4-1.5,2.1c-0.9,1.1-0.9,2.3,0,3.2
		c0.1,0.1,0.2,0.2,0.4,0.2c1.1,0.3,2.6-0.3,3.1-1.4c0.6-1.3,1.4-2.4,3.2-2.3c0.1,0.5,0.3,1.2,0.3,1.8c0.1,1.3,0,2.5,0,3.8
		c0,0.6,0.6,1.2,1,1c0.6-0.2,1.3-0.5,1.8-0.8c0.8-0.5,0.8-1.5,1.1-2.3c0.2-0.6,0.3-1.2,0.7-1.6c0.9-0.9,1.8-0.7,2.6,0.4
		C81,137.7,81.5,138.8,82.1,139.9z M72.4,195.9c2,0.6,3.2,0.7,5.4,0.2c1.7-0.4,3.4-0.6,5.1-1c1.1-0.3,2.2-0.7,3.3-1.2
		c1-0.4,1.8-1,2.7-1.5c0.2-0.1,0.5-0.4,0.5-0.6c-0.1-0.4,0-0.9-0.6-1c-1-0.2-1.8-0.7-2.4-1.5c-0.2-0.3-0.5-0.5-0.8-0.6
		c-1.5-0.9-3.2-0.8-4.8-0.7c-1.3,0.1-2.7,0.4-4,0.5c-0.2,0-0.5-0.2-0.7-0.4c0.1-0.2,0.3-0.4,0.4-0.6c0.1-0.2,0-0.4-0.1-0.6
		c-0.1-0.8-0.5-1.3-1.3-1.4c-0.6-0.1-1.2-0.3-1.8-0.4c-1.1-0.2-1.9,0.5-1.8,1.6c0,0.6,0.1,1.3,0.3,1.9c0.1,0.7,0.4,1.4,0.5,2.1
		C72.2,192.4,72.3,194.1,72.4,195.9z M62.6,187.4c0.1,1.2,0.2,2.4,0.3,3.5c0.1,0.6,0.5,0.8,1,0.9c0.7,0.1,1.3,0.4,2,0.6
		c0.1,0.1,0.2,0.4,0.3,0.6c-0.2,0-0.4,0.1-0.6,0c-0.5-0.1-0.9-0.3-1.4-0.4c-2-0.4-3.8,0.1-5.2,1.4c-1,1-1.8,2.1-2.7,3.2
		c-0.3,0.4-0.3,0.8,0.3,1c0.7,0.2,1.4,0.3,2,0.5c1.2,0.4,2.4,0.9,3.7,0.8c0.7-0.1,1.4-0.2,2-0.3c2-0.1,3.9-0.8,5.4-2.1
		c0.7-0.6,1.5-1.4,1.5-2.2c0.3-2.6,0-5.2-0.9-7.7c-0.2-0.5-0.5-0.7-1-0.6c-1.3,0.1-2.7,0.1-4,0.2C64.5,187.1,63.5,187.3,62.6,187.4z
		 M25.2,138c0.1,0,0.1,0.1,0.2,0.1c0.7-0.6,1.1-1.6,2.4-1.7c-0.6,0.7-1.2,1.2-1.7,1.8c-0.9,1.1-1.7,2.2-1.7,3.6c0,2.1,0.2,2.1,2,1.8
		c0.1,0,0.1,0,0.1,0c0.2-0.4,0.4-0.7,0.4-1.1c0.3-1.4,0.9-2.6,2-3.6c0.3-0.3,0.7-0.4,0.9-0.1c-0.5,0.5-1.1,1-1.4,1.6
		c-0.4,0.8-0.6,1.6-0.8,2.5c-0.2,0.8-0.1,1.7-0.1,2.6c0,0.1,0.1,0.2,0.2,0.3c0.6,0.6,1.6,0.3,1.9-0.5c0.4-0.8,0.8-1.6,1.2-2.4
		c0.3-0.6,0.8-0.9,1.5-0.6c-0.1,0.5-0.4,1-0.4,1.5c-0.1,0.5-0.1,1.1,0.1,1.6c0.3,0.8,1.2,0.8,1.8,0c1.3-1.6,1.6-3.6,1.7-5.5
		c0-0.2-0.2-0.5-0.3-0.6c-0.8-1-1.5-2.1-1.6-3.4c-0.1-0.4-0.2-0.9-0.8-0.9c-0.9-0.1-1.9-0.3-2.8-0.3c-1.8-0.1-3.3,0.7-4.2,2.3
		C25.4,137.1,25.3,137.6,25.2,138z M60.4,187.1c0-0.1,0.1-0.1,0.1-0.2c0.6,0,1.3,0,1.9-0.1c2.5-0.2,4.9-0.5,7.4-0.7
		c0.4,0,0.7-0.2,0.7-0.6c0-0.6,0.1-1.1,0-1.7c-0.2-1-0.1-2.3-1.6-2.4c-0.1,0-0.2,0-0.2-0.1c-0.6-0.6-1.3-0.8-2.1-0.7
		c-1.1,0.1-2.2,0.3-3.3,0.4c-1.5,0.2-2.8,0.9-4,1.7c-0.2,0.1-0.4,0.5-0.4,0.7c0.1,1.1,0.2,2.2,1,3.1C60,186.8,60.2,186.9,60.4,187.1
		z M112.4,119.9c0,0-0.1-0.1-0.1-0.1c0.1-0.3,0.2-0.6,0.4-0.8c0.8-0.7,1.6-1.4,2.5-2c0.6-0.4,1.2-0.7,1.8-1.1
		c0.9-0.6,1.6-1.3,1.7-2.4c0-0.1-0.1-0.3-0.1-0.4c-0.5-0.1-1.1-0.4-1.6-0.3c-1.7,0.2-3,1.4-4,2.7c-0.9,1.1-1.5,2.5-2.1,3.8
		c-0.3,0.6-0.8,1.4-0.3,2c1,1.4,1.3,3,1.7,4.7c1.1-0.1,2.1-0.6,2.9-1.3c0.2-0.1,0.3-0.5,0.2-0.6c-0.3-0.6-0.6-1.1-1-1.7
		c0.6-0.5,1.3-1,2-1.6c0.6-0.5,0.8-1.4,0.6-2c-0.2-0.8-0.9-0.6-1.4-0.6c-0.1,0-0.2,0-0.3,0c-0.9,0.2-1.8,0.3-2.3,1.3
		C112.9,119.6,112.6,119.7,112.4,119.9z M49.6,151.8c0,0.2,0,0.4,0,0.6c0.5,2,1.5,3.6,3.2,4.7c0.9,0.6,1.8,1.2,2.8,1.5
		c2.2,0.6,4.4,1,6.7,1.4c0.4,0.1,1.2,0,1.3-0.2c0.4-0.7,0.5-1.5,0.7-2.2c-1.8-0.1-3.4-0.1-5-0.2c-0.8,0-1.6,0-2.3-0.3
		c-1.2-0.5-2.4-1.1-3.6-1.7c-1.2-0.7-2.4-1.6-2.8-2.9C50.5,151.5,50.2,151.5,49.6,151.8z M69.6,114.9c1.3-0.1,2-0.6,2-1.8
		c0-0.5,0.1-1.1-0.1-1.4c-0.9-1.3-0.9-2.5-0.3-3.9c0.2-0.3,0.2-0.7,0.4-1.1c-2.3,1-4.8,1.4-6.7,3C66.9,111.1,68.8,112.5,69.6,114.9z
		 M71.5,184.7c1.4-0.1,2.8-0.3,4.1,0.3c0.4,0.2,1.1,0.2,1.3-0.6c0.1-0.6,0.2-1.2,0.2-1.8c0-1.1-0.5-1.7-1.6-1.6
		c-1.4,0.2-2.7,0.6-4.1,1c-0.1,0-0.3,0.4-0.3,0.6C71.2,183.3,71.3,184,71.5,184.7z M72.6,156.8c-1.2,0.1-2.2,0.1-3.1,0.2
		c-1,0.1-2,0.1-3,0.2c-0.9,0.1-2,1.2-2.1,2.1c0,0.2,0.1,0.6,0.2,0.7c0.6,0.8,1.5,1,2.4,0.9c1.2-0.1,2.3-0.3,3.5-0.5
		c0.3-0.1,0.8-0.2,0.9-0.4C71.8,159,72.1,158,72.6,156.8z M47.3,102.9c-0.1,0.6-0.3,1.1-0.4,1.7c-0.1,1.2-0.2,2.4,0.6,3.5
		c0.2,0.3,0.7,0.8,1,0.7c0.9-0.2,1.8-0.5,2.1-1.5c0.3-0.9-0.2-1.6-0.8-2.2C49,104.3,48.2,103.6,47.3,102.9z M79.4,154.6
		c-0.1,0-0.3,0.1-0.4,0.1c-1.4,0.6-2.8,1.2-4.3,1.7c-1.4,0.4-2,1.1-1.8,2.6c0.2,0,0.4,0,0.6,0c1.4-0.3,2.8-0.7,4.1-1.3
		C79.1,157,79.5,156.3,79.4,154.6z M116.3,117.1c0.2,0.2,0.4,0.4,0.6,0.6c1.1,0.9,1.1,1.1,0.5,2.3c-0.1,0.3-0.3,0.5-0.5,0.7
		c-0.5,0.9-1.1,1.7-0.8,2.9c1.1-0.3,1.9-1,2.4-2c0.7-1.3,0.7-2.7,0.4-4.2c-0.1-0.4-0.3-0.6-0.6-0.8C117.5,116,117,116.6,116.3,117.1
		z M120,118.7c0,0.2,0,0.3,0,0.4c-0.3,1.3-0.4,2.6-1.4,3.6c-0.5,0.5-1.1,0.9-1.6,1.4c-0.1,0.1-0.2,0.4-0.2,0.7
		c0,0.1,0.3,0.3,0.4,0.2c1.3-0.3,2.4-0.9,3.2-2.1c0.8-1.3,0.9-2.6,0.5-4C120.6,118.8,120.3,118.8,120,118.7z M89.7,113.2
		c0.8-0.5,1.5-1.1,2.2-1.5c0.6-0.2,0.6-0.5,0.5-1c0-0.2,0-0.5-0.1-0.7c-0.2-0.4-0.4-1.1-0.8-1.2c-0.4-0.1-1,0.3-1.3,0.6
		C89.4,110.6,89.7,111.9,89.7,113.2z M120.6,124c-1,0.7-1.9,1.2-2.9,1.8c0,0.5,0.2,0.7,0.8,0.4c0.3-0.2,0.7-0.2,0.9-0.2
		c0.3-0.3,0.6-0.5,0.8-0.8C120.4,124.9,120.5,124.5,120.6,124z M92.3,112.8c-1.3-0.1-2.2,0.6-2,1.7
		C91.2,114.3,92.3,113.4,92.3,112.8z"/>
	<path d="M91,124.3c-0.9,0-1.8,0-2.7,0c-0.6,0-1-0.2-1-1c3,0.5,5.5-0.3,7.4-2.6c-1.6-0.4-3.2-0.7-4.8-1.1c-1.2-0.3-2.1-1.1-2.7-2.2
		c-0.5-0.8-0.2-1.6-0.1-2.4c0-0.1,0.3-0.1,0.4-0.2c0.2,0.8,0.3,1.5,0.6,2.1c0.6,1.5,1.9,2,3.3,2.2c1.5,0.2,3,0.3,4.6,0.5
		c0,1.2-0.7,2.1-1.6,2.8c-0.5,0.4-1.1,0.7-1.6,1.1c-0.1,0.1-0.2,0.1-0.2,0.2c-0.3,1.5-1.4,2.1-2.6,2.7c-1,0.6-2.1,0.7-3.2,0.7
		c-1.2,0-2.5,0-3.7,0c0.4,0.6,1.2,0.9,2,0.9c0.7,0,0.8,0.3,0.6,0.8c-1.3,0.6-2.2-0.4-3.3-0.8c-0.2-0.1-0.3-0.6-0.5-0.9
		c-0.9-2-2.5-3-4.7-2.9c-0.2-0.6,0.1-0.7,0.6-0.9c1.3-0.4,2.5-1,3.7-1.6c0.3-0.1,0.5-0.2,0.8-0.3c0.1,0.1,0.1,0.2,0.2,0.2
		c-0.7,0.7-1.3,1.3-2,2C83.4,127.3,88.7,126.8,91,124.3z"/>
	<path d="M85.8,112.3c-0.3,1.4-0.6,2.9-1,4.3c-0.1,0.4-1.4,0.8-1.8,0.5c-1.4-0.9-2.2-2.3-2.3-4c-0.1-1.7,0.4-3.2,1.5-4.5
		c0.5-0.6,2.3-0.4,2.7,0.3c0.7,1,0.8,2.1,0.7,3.2C85.7,112.3,85.7,112.3,85.8,112.3z M85.2,112.5c-0.2-0.9-0.4-1.7-0.6-2.4
		c-0.2-0.7-0.7-0.8-1.5-0.6c-0.9,0.2-1.3,0.9-1.4,1.7c-0.1,1.1,0,2.3,0,3.4c0,0.1,0.3,0.3,0.4,0.4c0,0,0.3-0.1,0.3-0.2
		C82.8,113.4,83.7,112.8,85.2,112.5z M82.9,115.9c0.2-0.3,0.2-0.4,0.3-0.5c0.3-0.4,0.7-1.1,1.1-1.1c1,0,0.7-0.6,0.7-1.2
		C83.8,113.7,82.9,114.4,82.9,115.9z"/>
	<path d="M68.2,117c-0.3-0.3-0.5-0.5-0.7-0.7c-0.5-0.7-1-1.3-1.5-2c-0.8-1-1.9-1-3-1c-0.4,0-0.6,0.5-0.4,0.9c0.1,0.3,0.3,0.6,0.4,1
		c-0.6-0.4-1.4-0.4-1.3-1.5c0.1-0.9,0.2-1.2,1.1-1.3c1.6-0.2,3.3,0.4,4.3,1.8C67.7,114.9,68.3,115.7,68.2,117z"/>
	<path d="M69.6,157.4c0,0.8,0,1.5,0,2.3c-1.3-0.3-2.4,0.8-3.6-0.3c0.1-0.3,0.1-0.8,0.3-1.3c0.1-0.5,0.5-0.8,1.1-0.8
		C68,157.5,68.7,157.4,69.6,157.4z M66.7,159.3c0.8-0.1,1.5-0.2,2.2-0.2c0-0.3,0-0.6,0-0.8C67,158,66.7,158.1,66.7,159.3z"/>
</g>
<g>
	<path d="M133.7,88L133.7,88c0.1-0.3,0.2-0.5,0.2-0.8c0-2.1,0.2-4.1,0.8-6.1c0.1-0.2,0.1-0.5,0-0.7c-0.9-1.2-1.8-2.4-2.6-3.6
		c-0.1,0-0.1,0-0.2,0c-0.2,0.9-0.5,1.9-0.5,2.8c0,2.4,0,4.8,0.1,7.2c0,0.2,0.1,0.5,0.3,0.7c0.8,0.7,1.6,1.3,2.4,1.9
		c0,0,0.1-0.1,0.1-0.2c0.3,0.6,0.6,1.2,0.9,1.8c0.4,0.9,0.7,1.7,1,2.6c-0.1,0-0.1,0.1-0.2,0.1c-0.7-2.5-2.3-4.3-4.5-5.7
		c-0.1,0.9,0.2,1.5,0.7,2.1c0.7,0.9,1.3,1.8,1.8,2.8c0.5,1.1,0.8,2.4,1.8,3.2c0,0,0,0,0,0.1l0,0c-1.1-0.7-2.3-1.5-3.4-2.2
		c-0.1,0.1-0.1,0.1-0.2,0.2c0.2,1.4,0.4,2.7,0.6,4.1c-0.4-1-0.7-1.9-1-2.9c-0.5-1.7-0.6-1.8-2.4-1.7c-0.1,0-0.2,0-0.3,0
		c-1.7,0.5-3.3,1.1-5,1.6c-0.1,0-0.2,0.2-0.3,0.3c-0.1,0-0.2-0.1-0.3-0.1c-1,0.2-2,0.5-3,0.5c-1,0.1-2-0.1-2.9-0.2
		c0.6,1.4,2.6,2.2,4.2,1.4c0.6-0.3,1.1-0.8,1.6-1.1c-0.5,1.2-2.1,2.1-3.4,1.8c-2.9-0.5-4.6-4-3.3-6.7c0.7-1.4,1.7-2.6,3.1-3.4
		c3.4-2.1,6.8-1.7,10.1,0.3c0.2,0.1,0.4,0.2,0.6,0.4c0.1-0.8-0.2-1.3-0.9-1.6c-1.5-0.6-2.9-1.4-4.3-2.1c-2.1-1-4.2-2-5.9-3.6
		c-0.2-0.1-0.3-0.3-0.4-0.5c3.4,2.8,7.6,3.8,11.4,5.9c-0.2-4.5-0.1-8.9,0.6-13.4c0.8,2.1,1.6,4,3,5.6c0-0.2,0-0.2,0-0.2
		c-0.1-0.5-0.3-0.9-0.5-1.4c-1.1-3.1-1.7-6.2-1.4-9.5c0-0.3,0.1-0.6,0.3-0.8c1.4-1.6,2.4-3.5,3-5.6c0.4-1.2,0.7-2.4,1.1-3.6
		c1,2,2.7,3,4.7,3.8c-0.2-0.4-0.3-0.6-0.4-0.8c-0.6-1.2-1.3-2.3-1.9-3.5c-0.7-1.6-1.4-3.2-2-4.8c-0.4-1.1-0.2-2.2,0.7-3.1
		c1.1-1.2,1.8-2.5,2.2-4.1c0.4-1.6,0.7-3.2,1-4.8c0.1-0.7,0.2-1.3,0.2-2c1.4,5.7,2.9,9.7,4.3,10.8c-3.5-9.5-4.4-18.9,0.2-28.4
		c0.2,3.6,1.3,6.8,3.3,9.7c0-0.3,0-0.5,0-0.7c-0.3-2-0.6-4-0.8-5.9c-0.1-1.2,0-2.5,0.7-3.5c1.3-2,2.7-3.9,4.2-5.8
		c0.6-0.8,1.5-1.4,2.3-2.2c0.4,1.6,0.3,3.1,1.1,4.4c0.6-2.8,0.3-5.5-0.1-8.3c0.2,0,0.3,0.1,0.4,0.1c4.1,1.6,7.7,4.1,10.9,7.2
		c0.2,0.2,0.3,0.5,0.4,0.7c0.8,2.6,1.2,5.3,0.9,8.1c0,0.3,0,0.6-0.1,0.9c0.1,0,0.1,0,0.2,0c0.3-1.8,0.7-3.6,1.1-5.5
		c1.6,2.3,2.9,4.6,3.8,7c0,0.1,0.1,0.2,0.1,0.3c0.1,3.1-0.2,6.1-1.6,9c-0.2,0.4-0.3,0.7-0.5,1.1c0,0,0.1,0,0.1,0
		c1.1-1.8,2.2-3.7,3.4-5.6c0.1,0.3,0.2,0.4,0.2,0.5c1.5,4.5,2,9.1,1.7,13.9c-0.1,0.8-0.1,1.8-0.4,2.5c-1.7,3.3-3.8,6.4-6.3,9.2
		c-0.8,0.9-1.7,1.8-2.6,2.7c0,0.1,0.1,0.1,0.1,0.2c0.7-0.4,1.4-0.9,2-1.3c1.4-1,2.7-2.1,4.2-3.1c0.9-0.6,2-0.7,2.8-0.5
		c-2.7,0.8-4.3,2.7-5.5,5c-1.3,2.3-2.1,4.9-4,6.9c2.3-1.3,4-3.2,6-4.9c-1.3,5.4-7.7,14.2-10.9,15c4-3.2,7.3-6.9,8.8-11.9
		c-1.7,1.5-3.6,2.6-5.8,3.2c1.6-1.6,2.8-3.5,3.9-5.5c1-1.9,2-3.7,3-5.4c-0.8,0.6-1.8,1.4-2.9,2.2c-1,0.8-2.2,1.4-3.5,1.6
		c0.1-0.1,0.1-0.2,0.1-0.2c4.1-3.8,7.1-8.4,9.8-13.3c0.2-0.3,0.3-0.7,0.3-1c0.3-3.5,0.3-7.1-0.4-10.6c-0.2-1.1-0.5-2.3-0.9-3.6
		c-1.4,2-2.6,3.9-3.9,5.7c0-0.1-0.1-0.2,0-0.2c0.1-0.2,0.1-0.4,0.2-0.6c0.8-2.3,1.6-4.6,1.9-7.1c0.1-1.4,0.3-2.8-0.1-4.1
		c-0.5-1.6-1.5-3.1-2.3-4.6c-0.1-0.2-0.3-0.4-0.6-0.7c-0.4,2.2-0.9,4.1-1.9,5.9c0-0.7,0.1-1.5,0.1-2.2c0.2-2.9,0-5.7-1-8.4
		c-0.1-0.3-0.3-0.6-0.5-0.8c-2.1-2.1-4.5-3.8-7.2-5.1c-0.8-0.4-1.7-0.7-2.4-1c0,1.4,0.1,2.8,0,4.2c-0.1,1.4-0.3,2.7-0.5,4
		c-1.2-1.3-1.7-2.9-1.8-4.6c-0.4,0.4-0.7,0.7-1.1,0.9c-1.5,1.5-2.8,3.2-3.9,5.1c-0.4,0.8-0.9,1.5-1.1,2.4c-0.2,0.8-0.2,1.7-0.1,2.6
		c0.2,1.7,0.4,3.4,0.7,5.1c0.1,0.9,0.2,1.9,0.4,2.8c-0.1,0-0.1,0-0.2,0c-1.9-2.7-3.8-5.4-4.4-8.8c-0.4,1.1-0.7,2.1-1,3.2
		c-1,3.6-1.6,7.3-1,11c0.5,3.1,1.2,6.1,1.9,9.1c0.3,1.1,0.6,2.3,0.9,3.4c-2.5-2.2-4-4.9-4.7-8.1c-0.2,0.5-0.3,1-0.4,1.5
		c-0.6,2.2-1.3,4.4-3,6.1c-0.2,0.2-0.2,0.5-0.2,0.7c-0.1,2.2,0.7,4.3,1.7,6.2c0.9,1.6,1.7,3.2,2.6,4.7c0.1,0.2,0.2,0.4,0.3,0.8
		c-2.1-1.2-4.4-1.7-5.9-3.5c0,0.1-0.1,0.1-0.1,0.2c0,0.2-0.1,0.3-0.1,0.5c-0.6,2.8-1.4,5.4-3.2,7.7c-0.1,0.2-0.2,0.4-0.2,0.7
		c-0.1,2.7,0,5.5,0.7,8.2c0.3,1.3,0.7,2.6,1.1,4c1-2.3,2-4.4,3-6.6c0.9-1.9,1.7-3.8,1.8-6c0.2,1.7-0.2,3.2-0.8,4.7
		c-0.9,2.1-1.9,4.2-2.8,6.3c-1.4,3.3-2.1,6.7-1.6,10.4C134.1,88.9,133.9,88.4,133.7,88z M130.7,89.6c0-0.1-0.1-0.2-0.3-0.3
		c-2.9-2-6.1-2.7-9.5-1.3c-2.3,1-3.8,2.7-4.2,5.2c0,0.1,0,0.3,0,0.4c0.3,2.3,0.4,2.3,2.3,2.3c1.8,0,3.5-0.6,5.2-1.1
		c1.6-0.5,3.3-1,5-1.4c0.6-0.2,1.3,0,2,0C131.1,92,130.9,90.8,130.7,89.6z M132.1,93.2c0,0.2,0.1,0.4,0.2,0.4
		c0.7,0.4,1.4,0.8,2.2,1.2c-0.5-1.7-1.4-3.1-2.8-4.3C131.8,91.4,131.9,92.3,132.1,93.2z"/>
	<path d="M135.8,96.3c-0.3,0.5-0.6,1-1,1.4c-4.6,5.7-9.6,11-15.2,15.8c-0.8,0.6-1.4,1.4-2.1,2.2c-0.3,0.3-0.5,0.7-0.7,1.1
		c0.2-0.1,0.4-0.2,0.6-0.3c3.8-2.1,7.1-4.9,10.1-7.9c5.3-5.2,9.8-11,13.9-17.1c0.4-0.6,0.8-0.8,1.5-0.9c3.8-0.4,7.1-2,10.1-4.2
		c0,0,0-0.1,0.1-0.2c-3,1.9-6,3.4-9.4,4.2c-0.5,0.1-1,0.2-1.6,0.3c0.2-0.3,0.2-0.4,0.3-0.6c1.1-1.8,2.2-3.6,3.3-5.4
		c0.3-0.5,0.6-0.8,1.1-1c3.9-1.8,7.3-4.4,10.1-7.7c0.1-0.1,0.2-0.3,0.3-0.4c0,0,0-0.1,0-0.3c-2.8,3.4-6.4,5.6-10.4,7.2
		c0.6-0.9,1.1-1.7,1.7-2.6l0,0c0-0.2,0-0.4,0.1-0.6c2.4-4.5,4.6-9.2,6.4-14c0.5-1.3,0.9-2.7,1.5-4c0.1-0.3,0.4-0.7,0.7-0.9
		c3.7-3,6.6-6.7,8.6-11.1c0.1-0.2,0.1-0.4,0.1-0.6c-1.9,4.2-5,7.4-8.7,10.4c2.9-9.3,4.6-18.5,3.9-28.1c-0.3,3.6-0.6,7.1-1,10.8
		c-0.7-2.6-1.2-5-2-7.4c-0.7-2.4-2-4.5-3.7-6.5c0,0.1,0,0.2,0,0.3c2.7,3.7,4,8,5,12.4c0.4,1.8,0.2,3.5-0.2,5.2
		c-0.6,2.7-1.3,5.4-1.9,8.2c0,0.2-0.1,0.4-0.2,0.6c-0.1-3.6-0.6-7.1-2-10.4c0,0.2,0.1,0.4,0.1,0.6c1.2,3.5,1.2,7.1,1,10.8
		c-0.3,4.1-2,7.8-3.5,11.6c-0.1,0.2-0.2,0.5-0.3,0.7c0,0-0.1,0.1-0.2,0.2c0.2-2.2,0.3-4.3-0.4-6.4c0.1,1.4,0.3,2.7,0.3,4
		c0,1.3,0,2.6-0.5,3.8c-0.8-4.1-1.8-8-3.7-11.7c0.1,0.2,0.1,0.4,0.2,0.6c1.5,3.7,2.5,7.6,2.8,11.5c0.1,0.7,0,1.4-0.3,2.1
		c-2.7,5.8-5.9,11.3-9.4,16.7c-0.1,0.1-0.2,0.3-0.4,0.4c0.6-2.5,1-5,0.3-7.5c0.3,2.9,0,5.7-1,8.5c-0.3-4.2-0.9-8.3-2.3-12.2
		c0.2,0.7,0.3,1.3,0.5,2c0.8,3.6,1.3,7.3,1,11c0,0.2-0.1,0.5-0.2,0.7c-1.1,1.6-2.3,3.2-3.5,4.7C136.1,96.1,135.9,96.2,135.8,96.3
		L135.8,96.3z"/>
	<path d="M138.3,98.6L138.3,98.6c0.3-0.1,0.5-0.1,0.8-0.2c-0.3-0.2-0.5-0.4-0.7-0.6c0.9,0.3,1.8,0.6,2.8,0.3
		c0.9-0.3,1.8-0.5,2.8-0.7c0-0.1,0-0.2,0-0.3c-1.2-0.1-2.4-0.3-3.4-0.4c1.3-0.3,2.7-0.2,4,0.3c0.1,0,0.3,0.1,0.4,0.1
		c1.2-0.4,2.3-0.8,3.5-1.3c0-0.1,0-0.2,0-0.2c-1.1-0.2-2.3-0.5-3.4-0.7c0.6,0,1.2-0.1,1.7,0.1c2.3,0.7,4.2-0.1,6-1.5
		c0.1-0.1,0.3-0.2,0.4-0.3c0.1-0.1,0.2-0.2,0.5-0.4c-1,0-1.8,0-2.7,0c-0.8-0.1-1.6-0.2-2.5-0.4c0-0.1,0-0.1,0-0.2
		c5.9-1.6,11.1-4.5,15.5-8.7c-2.3,0.2-4.6,0.4-6.9,0.7c0-0.1,0-0.1,0-0.2c3.6-1.7,7.2-3.4,10.3-6.1c-1.1,0.4-2,0.7-3,1
		c-1,0.3-2,0.4-2.9,0.6c1.5-0.6,3-1,4.5-1.6c1.5-0.6,2.9-1.4,4.4-2.1c0,0.1,0.1,0.1,0.1,0.2c-1.9,1.5-3.6,3-5.6,4.3
		c-1.9,1.3-4,2.4-6,3.6c0,0,0,0.1,0,0.1c2.4-0.4,4.8-0.8,7.3-1.2c-4.9,4.1-9.7,8-16,9.6c2.2,0.4,4.4-0.1,6.6-0.3
		c-2.2,1.2-4.4,2.4-6.6,3.5c0.8-0.2,1.6-0.4,2.3-0.7c3.1-1.1,6.3-1.8,9.7-1.2c1.9,0.4,3.6,1.1,5.2,2.2c-5.3-2.9-10.6-2.1-15.9,0
		c2.1,1,4.2,2,6.2,3c1.6,0.7,3.1,1.5,4.7,2.1c3.2,1.2,6.4,1.2,9.5-0.5c1.7-0.9,3.1-2.1,4.4-3.5c0.2-0.2,0.3-0.3,0.4-0.5
		c0,0.2,0,0.2-0.1,0.3c-0.3,0.4-0.7,0.8-1,1.2c-2.5,2.9-5.7,4.5-9.6,4.2c-2.4-0.2-4.7-0.9-6.8-1.9c-2.8-1.2-5.6-2.5-8.3-3.7
		c-0.2-0.1-0.5-0.2-0.7-0.2c-1.3,0.5-2.6,1-4,1.6c1.8,1.3,3.5,2.5,5.2,3.6c-0.3-0.1-0.6-0.2-0.8-0.3c-1.5-0.9-2.9-1.9-4.3-2.8
		c-0.3-0.2-0.6-0.3-1-0.2c-1.3,0.4-2.7,0.8-4.1,0.6c0,0-0.1,0.1-0.2,0.2C140,98.6,139.2,98.5,138.3,98.6z M147.2,96.7
		c0-0.1,0-0.1-0.1-0.2c-0.3,0.2-0.6,0.3-0.9,0.5c-0.3,0.1-0.6,0.1-0.8,0.2c0,0.1,0,0.1,0.1,0.2c0.3-0.1,0.5-0.2,0.8-0.4
		C146.5,96.9,146.9,96.8,147.2,96.7z M144.6,97.6c0,0,0-0.1,0-0.1c-0.4,0.1-0.8,0.2-1.2,0.3c0,0,0,0.1,0,0.1
		C143.8,97.8,144.2,97.7,144.6,97.6z M149.1,95.9c0,0,0-0.1-0.1-0.1c-0.4,0.1-0.7,0.3-1.1,0.4c0,0,0.1,0.1,0.1,0.1
		C148.4,96.2,148.8,96,149.1,95.9z"/>
	<path d="M138.4,98.6c-0.3-0.1-0.5-0.1-0.8-0.2c0.4,1.5,1.4,2.7,2.8,3.4c1.5,0.6,3.2,1,4.8,1.5c0.4,0.1,0.7,0.3,0.9,0.7
		c0.4,1.4,0.9,2.9,1.2,3.9c0-1.2-0.2-2.7-0.9-4.3c1.8,0.4,3.5,0.9,4.8,2.3c1.3,1.3,1.6,3.1,1.7,5c0.6-3.2-0.7-5.9-3.6-7
		c-0.9-0.4-1.9-0.6-2.8-0.9c-0.3-0.1-0.7-0.3-0.9-0.6c-1.2-1.5-2.7-2.5-4.5-3.1c1,0.7,2,1.4,2.9,2.1c0.4,0.3,0.7,0.8,1.1,1.2
		c-2.8-0.5-5.5-1.1-7.2-3.6C138.1,98.7,138.2,98.6,138.4,98.6L138.4,98.6z"/>
	<path d="M148.8,79.8c0.2-0.1,0.5-0.2,0.7-0.3c3.6-2.5,6-5.9,7.9-9.8c0.3-0.6,0.6-1.2,0.8-1.9c-0.1,0.2-0.2,0.4-0.3,0.6
		c-1.9,3.6-4.1,7.1-7.1,9.8C150.1,78.8,149.5,79.3,148.8,79.8C148.9,79.8,148.8,79.8,148.8,79.8z"/>
	<path d="M164.7,55.7c2.9-1.9,7.2-10,7.3-13.5C170.3,47.2,168.3,51.9,164.7,55.7z"/>
	<path d="M147.6,39.9c2.8,4.1,4.2,8.8,5.1,13.6C152.2,48.5,150.8,43.8,147.6,39.9z"/>
	<path d="M142.1,108.4c0-0.9,0-1.7,0-2.6c-0.1-1.1-0.6-1.9-1.5-2.5c-0.2-0.1-0.5-0.3-0.7-0.4c-1.3-0.7-2.4-1.6-2.8-3.1
		c0.1,1.2,0.5,2.3,1.6,3c0.3,0.2,0.5,0.3,0.8,0.5c1.7,0.7,2.3,2,2.3,3.7c0,0.4,0,0.9,0,1.3C141.9,108.4,142,108.4,142.1,108.4z"/>
	<path d="M160.6,15.9c0.2,1.3,0.5,2.5,0.7,3.8c0.1,1.3,0,2.6,0.1,3.8C161.7,20.9,161.5,18.4,160.6,15.9z"/>
	<path d="M163.9,27.8c1.1-2.6,1.7-5.2,1.3-8C165.4,22.5,164.8,25.1,163.9,27.8z"/>
	<path d="M159.9,28.8c-0.2-2.6-0.9-5.1-2.4-7.3C158.8,23.8,159.4,26.3,159.9,28.8z"/>
	<path d="M149.6,37c1.2,2.1,1.8,4.4,2.3,6.8C151.7,41.3,151,39,149.6,37z"/>
	<path d="M158.1,28.3c1.1,2.2,1.7,4.5,2.2,6.8C160.1,32.6,159.5,30.3,158.1,28.3z"/>
	<path d="M166.7,43c1.1-1.9,1.6-4,1.8-6.1C167.9,38.8,167.3,41,166.7,43z"/>
	<path d="M145.1,79.6c-0.2-2-0.9-4.2-2-6C143.8,75.5,144.5,77.7,145.1,79.6z"/>
	<path d="M144.7,73.3c-0.2-2-0.8-4.2-1.9-6C143.4,69.3,144.1,71.5,144.7,73.3z"/>
	<path d="M163.2,35.7c0,2.3-0.1,4.7-0.9,6.9C163.1,41.4,163.6,37.8,163.2,35.7z"/>
	<path d="M159.8,77.2c1.8-1.2,3.1-2.6,4.3-4.4C162.7,74.3,161.2,75.8,159.8,77.2z"/>
	<path d="M135.2,73.9c-0.1-1.1-0.2-2.2-0.3-3.3c0,0-0.1,0-0.1,0c0.1,1.1,0.2,2.2,0.2,3.3C135.1,74,135.2,73.9,135.2,73.9z"/>
	<path d="M141.4,95.4c0.6-0.1,1.2-0.3,1.8-0.4c0-0.1-0.1-0.2-0.1-0.3C142.5,95,142,95.2,141.4,95.4L141.4,95.4z"/>
	<path d="M164.4,60.6c0.4-0.4,0.7-0.8,1.1-1.2c0,0,0,0,0,0C165.1,59.8,164.7,60.2,164.4,60.6C164.3,60.6,164.3,60.6,164.4,60.6z"/>
	<path d="M141.4,95.4L141.4,95.4c-0.4,0.1-0.8,0.1-1.2,0.2c0,0.1,0,0.1,0,0.2C140.6,95.7,141,95.6,141.4,95.4z"/>
	<path d="M141.4,54c0.1,0.4,0.3,0.9,0.4,1.3c0,0,0.1,0,0.1,0c-0.1-0.4-0.3-0.9-0.4-1.3C141.5,54,141.4,54,141.4,54z"/>
	<path d="M165.3,28.3c0.2-0.4,0.4-0.8,0.6-1.1c0,0-0.1,0-0.1-0.1c-0.2,0.4-0.4,0.8-0.6,1.1C165.2,28.3,165.3,28.3,165.3,28.3z"/>
	<path d="M164.3,68.3c-0.2,0.2-0.4,0.4-0.6,0.6c0,0,0.1,0.1,0.1,0.1C164,68.8,164.1,68.5,164.3,68.3z"/>
	<path d="M163,43.2c0.1-0.2,0.2-0.5,0.3-0.7c0,0-0.1,0-0.1-0.1c-0.1,0.2-0.2,0.5-0.3,0.7C162.9,43.2,163,43.2,163,43.2z"/>
	<path d="M133.7,88c0-0.6,0-1.3,0-1.9c-0.1,0-0.1,0-0.2,0C133.6,86.7,133.6,87.3,133.7,88C133.7,88,133.7,88,133.7,88z"/>
</g>
<g>
	<path d="M229.4,154.7c0.1-0.4,0.2-0.7,0.3-1c0.3-0.6,0.5-1.3,0.9-1.9c0.1-0.2,0.4-0.3,0.6-0.3c0.1,0,0.3,0.3,0.3,0.5
		c0.1,0.5,0.1,1,0.2,1.6c0.2-0.1,0.3-0.2,0.4-0.3c0.8-0.8,1.5-1.6,2.3-2.4c0.2-0.2,0.3-0.3,0.5-0.4c0.3-0.2,0.6-0.1,0.7,0.3
		c0.1,0.6-0.1,1.2-0.4,1.8c-0.3,0.5-0.6,1.1-0.9,1.6c-0.1,0.1-0.1,0.3-0.2,0.4c0.6,0.2,1.1,0,1.5-0.2c0.5-0.2,1.1-0.5,1.6-0.8
		c0.4-0.2,0.5,0,0.5,0.3c0,0.4-0.1,0.8-0.4,1c-0.4,0.4-0.9,0.8-1.5,1.1c-1,0.5-1.9,1-2.8,1.6c-1,0.7-2.1,0.8-3.3,0.8
		c-0.7,0-1.4,0.1-2.1,0.3c-0.6,0.1-1.1,0.4-1.8,0.6c0.2,0.2,0.2,0.3,0.4,0.4c0.7,0.5,1.4,1,2.2,1.5c0.1,0.1,0.5,0.1,0.6-0.1
		c1.9-1.6,4.2-2.6,6.4-3.7c1.6-0.8,3.1-1.7,4.7-2.7c0.3-0.2,0.6-0.5,1-0.9c0,0.4,0.1,0.7,0,1c-0.4,2.2-1.4,4.2-2.8,5.9
		c-0.9,1.1-1.8,2.2-2.9,3.1c-0.9,0.8-2.1,1.5-3.1,2.2c-0.3,0.2-0.6,0.3-0.9,0.5c-0.3,0.2-0.6,0.4-0.5,0.9c0,0,0,0.1,0,0.1
		c-0.4,1.1-0.1,2.1,0,3.2c0,0.3-0.1,0.5-0.1,0.8c0,0.2,0,0.4,0,0.6c0.7,1.6,1.8,2.9,2.9,4.3c0.1,0.1,0.2,0.2,0.3,0.3
		c0.4,0.5,0.5,0.5,0.9,0c0.5-0.6,0.9-1.3,1.3-2c0.6-1.4,1.1-2.8,1.7-4.2c0.6-1.7,1.3-3.3,1.8-5c0.6-1.6,1.2-3.2,2.1-4.6
		c1.3-2.2,3.1-3.8,5.4-4.8c1.1-0.4,2.3-0.6,3.5-0.6c1.9,0.1,3.7,0.7,5.2,2c0.9,0.7,1.6,1.6,2.3,2.5c0.3,0.4,0.7,0.5,1.2,0.6
		c1,0.2,2,0.6,2.8,1.2c1,0.7,1.8,1.5,2.4,2.6c0.6,1,1,2,1.1,3.2c0.1,0.7,0.2,1.4,0.2,2.2c-0.1,2-0.5,3.8-1.2,5.7
		c-0.9,2-2.1,3.7-3.4,5.4C260,182,259,183,258,184c-1,0.9-2.1,1.8-3.3,2.6c-1.3,0.9-2.6,1.8-4,2.5c-1.3,0.7-2.6,1.3-3.9,1.8
		c-1.9,0.7-3.9,1.4-5.8,1.9c-1.3,0.4-2.6,0.5-4,0.7c-0.5,0.1-1.1,0.1-1.7,0.1c-2.6,0-4.3-1.2-5.4-3.5c-0.6-1.3-1-2.7-1.3-4.1
		c-0.3-1.2-0.6-2.5-0.9-3.7c-0.3-1.2-0.7-2.4-1.1-3.5c-0.6-1.4-1.2-2.7-2.2-3.9c-0.6-0.7-0.6-0.6-1.4-0.3c-1.6,0.6-3.2,1.1-4.8,1.6
		c-0.3,0.1-0.4,0.2-0.4,0.5c0,1-0.6,1.6-1.5,1.7c-0.1,0-0.3,0.2-0.3,0.3c-0.4,1.3-0.7,2.6-1.1,3.9c-0.3,1-0.5,2-0.8,3
		c-0.2,0.7-0.5,1.4-0.6,2.2c-0.1,0.5-0.1,1,0,1.5c0.3,1.5,0.4,2.9,0.1,4.4c-0.4,1.7-1.4,3.1-2.7,4.3c-0.9,0.8-1.7,1.7-2.7,2.3
		c-1.5,1-3.1,1.9-4.7,2.6c-1.5,0.7-3.1,1.3-4.7,1.8c-1.1,0.4-2.1,0.6-3.2,0.8c-1.1,0.3-2.2,0.5-3.3,0.7c-1,0.2-2.1,0.3-3.1,0.4
		c-0.9,0.1-1.9,0.3-2.8,0.4c-0.6,0.1-1.2,0.1-1.9,0.1c-0.8,0-1.6,0.1-2.4,0.1c-1.4-0.1-2.9-0.2-4.3-0.4c-1.2-0.2-2.5-0.4-3.7-0.7
		c-2.9-0.8-5.5-2.1-7.7-4.3c-1.1-1.1-2-2.3-2.6-3.6c-0.2-0.5-0.7-0.7-1.1-1c-1.8-1.1-3.2-2.6-4.3-4.5c-0.7-1.2-1.3-2.5-1.6-3.9
		c-0.4-1.6-0.3-3.3-0.2-4.9c0.1-0.9,0.3-1.8,0.4-2.8c0.4-2.1,1.4-4,2.8-5.6c1.3-1.5,2.9-2.7,4.8-3.4c0.8-0.3,1.7-0.5,2.5-0.6
		c0.6-0.1,1.2-0.2,1.8-0.2c3.1,0,5.9,0.9,8.6,2.4c1.9,1.1,3.6,2.5,5.2,4c1.5,1.4,3,2.7,4.6,4.1c1.3,1.1,2.8,1.9,4.5,2.3
		c1.7,0.5,3.3,0.7,5.1,0.7c1.2,0,2.5,0,3.7,0c0.9,0,1.7-0.2,2.5-0.3c0.2,0,0.4-0.2,0.5-0.4c1.3-1.8,2.6-3.7,3.8-5.6
		c0.5-0.8,0.9-1.6,1.4-2.4c0.1-0.2,0.1-0.4,0-0.6c-0.2-0.6-0.3-1.2-0.2-1.8c0-0.2-0.1-0.4-0.2-0.5c-1.5-1.3-2.4-2.9-3-4.8
		c-0.5-1.6-0.8-3.3-0.7-4.9c0-1,0.2-2,0.3-3c0.1-0.8,0.3-1.6,0.4-2.4c0-0.2,0.1-0.4,0.2-0.8c-2.1,1.6-4.1,3.1-6.2,4.6
		c0.6,0.1,1.1,0.2,1.6,0.3c0.4,0.1,0.8,0.2,1.2,0.4c0.2,0.1,0.4,0.4,0.4,0.5c-0.1,0.2-0.3,0.4-0.6,0.5c-0.5,0.1-1.1,0.1-1.6,0.2
		c-0.5,0.1-1.1,0.4-1.6,0.6c-0.8,0.3-1.5,0.7-2.3,1c-0.8,0.3-1.6,0.2-2.4,0c-1-0.3-1.8-0.7-2.8-1c-0.4-0.1-0.9,0-1.3,0
		c-0.7,0.1-1.3,0.2-2,0.3c-0.6,0.1-1.1-0.1-1.4-0.6c-0.2-0.3-0.1-0.5,0.2-0.6c0.8-0.3,1.6-0.7,2.4-1c0.2-0.1,0.4-0.2,0.7-0.3
		c-0.3-0.3-0.5-0.5-0.7-0.7c-0.7-0.6-1.4-1.2-1.7-2.1c-0.2-0.5-0.1-1,0.2-1.5c0.1-0.3,0.3-0.3,0.6-0.1c0.2,0.2,0.4,0.4,0.6,0.6
		c0.8,0.8,1.6,1.6,2.7,2.1c-0.1-0.2-0.1-0.4-0.2-0.6c-0.3-0.7-0.6-1.3-0.5-2.1c0-0.3,0.1-0.5,0.2-0.8c0.2-0.5,0.5-0.5,0.8,0
		c0.4,0.6,0.9,1.3,1.3,1.9c0.5,0.7,1.2,1.1,2,1.4c0.2-0.3,0.4-0.5,0.6-0.8c1.3-1.8,2.6-3.7,3.9-5.5c1.6-2.1,3.2-4.2,4.9-6.2
		c0.9-1.1,1.8-2.2,2.8-3.2c0.9-0.9,1.9-1.7,3.2-2.2c0.7-0.3,0.7-0.3,0.7-1.1c0.1-2.3-0.4-4.6-1.4-6.7c-0.8-1.6-1.9-3-3.6-3.8
		c-0.1-0.1-0.4-0.1-0.5,0c-1.4,0.5-2.7,0.3-3.9-0.4c-0.9-0.5-1.5-1.2-1.8-2.2c0-0.2-0.2-0.3-0.4-0.4c-1.7-0.7-3.5-1.4-5.1-2.2
		c-1.4-0.7-2.8-1.5-4-2.6c-0.9-0.8-1.7-1.7-2.1-2.9c-0.7-2-0.5-4,1-5.6c1.2-1.4,2.7-2.2,4.4-2.8c1.5-0.6,1.6-1.7,1.5-3
		c-0.1-1.4-0.5-2.8-1-4.1c-0.3-0.9-0.6-1.7-1-2.6c-0.7-1.5-1.5-2.9-2-4.4c-0.6-1.7-1.1-3.4-1.4-5.1c-0.3-1.7-0.3-3.4-0.2-5
		c0-1.4,0.2-2.8,0.6-4.2c0.3-1.4,0.8-2.8,1.4-4.1c0.9-2.2,2.3-4.2,3.9-6c1.4-1.6,3-2.9,4.7-4.2c1.8-1.3,3.7-2.4,5.8-3.3
		c1.8-0.7,3.6-1.3,5.4-1.9c1.3-0.4,2.6-0.7,3.9-1.1c0.7-0.2,1.4-0.3,2.1-0.4c0.3,0,0.4-0.1,0.2-0.4c-0.8-1.5-1.6-3-2.5-4.4
		c-0.8-1.3-1.7-2.6-2.6-3.9c-0.7-1-1.5-1.9-2.3-2.8c-1.3-1.4-2.6-2.8-4-4.1c-0.7-0.7-1.5-1.3-2.3-1.9c-0.1-0.1-0.1-0.2-0.2-0.3
		c0.2,0.1,0.4,0.1,0.6,0.2c1.3,0.9,2.6,1.8,3.9,2.7c1.9,1.4,3.4,3.1,4.9,4.9c1.4,1.7,2.7,3.5,3.8,5.4c0.8,1.3,1.5,2.6,2.2,3.9
		c0.1,0.2,0.3,0.4,0.6,0.4c1.2-0.1,2.4-0.2,3.6-0.3c1,0,2.1,0,3.1,0.1c0.1,0,0.2,0,0.2,0c0.7,0.1,1.4,0.1,2,0.2c0.2,0,0.4,0,0.7,0
		c-0.2-1.9-0.3-3.7-0.5-5.5c-0.2-1.6-0.4-3.2-0.6-4.8c-0.1-1-0.3-1.9-0.5-2.9c-0.3-1.4-0.5-2.9-0.8-4.3c-0.3-1.4-0.6-2.7-1-4.1
		c-0.3-1.1-0.5-2.2-0.9-3.3c-0.3-1-0.6-2.1-1-3.1c-0.6-1.7-1.2-3.3-1.9-4.9c-0.5-1.1-1.1-2.2-1.7-3.3c-0.2-0.3-0.3-0.6-0.6-1
		c0.2,0.2,0.3,0.3,0.4,0.4c1.2,1.8,2.4,3.6,3.3,5.5c0.7,1.6,1.5,3.2,2.1,4.8c0.6,1.6,1.1,3.2,1.6,4.8c0.4,1.3,0.8,2.6,1.1,4
		c0.3,1.2,0.5,2.5,0.8,3.7c0.2,0.8,0.3,1.5,0.5,2.3c0.2,1.3,0.4,2.6,0.6,3.9c0.2,1.5,0.4,3,0.6,4.6c0.1,1,0.1,2,0.1,3.1
		c0,0.5,0.2,0.6,0.6,0.7c0.9,0.2,1.9,0.4,2.8,0.6c1.3,0.4,2.6,0.9,3.8,1.3c0.1,0,0.5-0.1,0.5-0.3c0.9-2.8,1.9-5.5,2.8-8.3
		c0.4-1.2,0.8-2.5,1.1-3.8c0.3-1.3,0.5-2.6,0.8-3.9c0.2-1,0.4-2,0.5-3c0.1-0.7,0.2-1.4,0.2-2.1c0-0.1,0-0.3,0.1-0.5
		c0,0.1,0.1,0.2,0.1,0.3c-0.1,1.6-0.1,3.1-0.2,4.7c-0.1,1.2-0.3,2.5-0.5,3.7c-0.4,2.2-0.8,4.4-1.3,6.6c-0.4,1.5-0.9,3-1.4,4.5
		c-0.3,0.8-0.6,1.6-0.8,2.4c-0.1,0.3,0,0.5,0.3,0.6c2.3,1,4.4,2.4,6.4,3.9c1.6,1.3,3.2,2.7,4.6,4.2c1.2,1.3,2.3,2.7,3.2,4.1
		c1.1,1.8,2,3.6,2.9,5.5c0.4,0.9,0.8,1.8,1.1,2.7c0.4,1.3,0.7,2.6,1,4c0.4,1.6,0.5,3.3,0.5,4.9c0,1-0.2,2.1-0.3,3.1
		c-0.2,1.9-0.8,3.8-1.5,5.5c-1,2.5-2.4,4.8-4.1,6.8c-1.2,1.4-2.5,2.7-3.8,4c-1.2,1.2-2.5,2.4-3.8,3.6c-2,1.7-4,3.4-6,5.1
		c-1.8,1.6-3.7,3.1-5.5,4.7c-0.5,0.4-0.7,1-0.8,1.7c-0.2,1.7-0.6,3.4-1.6,4.8c-0.9,1.3-2.2,2.2-3.7,2.7c-1.2,0.4-2.4,0.7-3.7,0.6
		c-0.3,0-0.6,0-0.9-0.1c-0.9-0.3-1.6,0-2.2,0.7c-1.4,1.3-2.4,2.8-3.2,4.5c-0.1,0.1,0,0.4,0.1,0.6c0.6,0.8,1.3,1.6,1.9,2.5
		c1.5,1.9,3.1,3.9,4.6,5.8c1,1.2,2,2.3,3,3.4C229.2,154.6,229.3,154.7,229.4,154.7z M234.8,125.9c0.2-0.1,0.3-0.1,0.4-0.2
		c1.1-1,2.3-1.9,3.4-2.9c2.5-2.2,5.1-4.4,7.6-6.6c1-0.9,2.1-1.8,3.1-2.8c1.1-1.1,2.1-2.2,3.1-3.4c1-1.2,1.9-2.5,2.7-3.8
		c1-1.6,1.8-3.4,2.2-5.3c0.3-1.4,0.5-2.9,0.6-4.3c0.1-0.8,0.1-1.6,0-2.4c-0.1-1-0.3-2-0.5-3c-0.2-1.1-0.4-2.3-0.8-3.4
		c-0.6-1.7-1.3-3.3-2-4.9c-0.8-1.8-1.8-3.5-2.9-5.1c-1.6-2.2-3.4-4.2-5.4-6c-1.7-1.4-3.5-2.7-5.4-3.7c-2.2-1.2-4.5-2-6.9-2.6
		c-1.3-0.3-2.6-0.6-4-0.8c-1.1-0.2-2.1-0.4-3.2-0.4c-1.3-0.1-2.6-0.1-4-0.1c-0.7,0-1.3,0.1-2.1,0.1c0,0.2,0.1,0.3,0.1,0.4
		c0.2,0.5,0.4,0.9,0.6,1.4c0.2,0.5,0,1.1-0.4,1.3c-0.4,0.2-0.8,0.1-1.1-0.5c-0.3-0.6-0.6-1.3-0.8-2c-0.1-0.3-0.2-0.4-0.5-0.3
		c-1,0.2-2,0.3-3,0.5c-1.9,0.5-3.9,1-5.7,1.8c-1.5,0.7-3.1,1.3-4.6,2c-2.2,1-4.3,2.3-6.2,3.8c-0.5,0.4-0.9,0.8-1.3,1.2
		c1.1,0.1,2.2,0,3.1,0.7c-0.2,0-0.4,0-0.6,0c-0.9,0-1.8,0.3-2.7,0.7c-2.1,1-3.3,2.6-4.2,4.6c-0.8,1.8-1.5,3.6-1.7,5.5
		c-0.1,1-0.3,2-0.3,3c0,1.4,0.1,2.8,0.2,4.2c0.1,1.1,0.3,2.2,0.4,3.3c0.1,0.3,0.2,0.7,0.2,1c0.1-0.1,0.1-0.1,0.1-0.2
		c0-1.1-0.1-2.1,0-3.2c0.1-0.8,0.3-1.5,0.4-2.3c0.1-0.4,0.3-0.8,0.1-1.2c-0.3-0.5-0.6-1-0.7-1.5c-0.2-0.6-0.4-1.2-0.2-1.9
		c0.8,2.5,0.9,2.8,1.6,3.3c0.1-0.1,0.1-0.3,0.3-0.4c0.3-0.2,0.4-0.4,0.2-0.8c-0.2-0.3-0.3-0.8-0.4-1.1c-0.3-1.3-0.3-2.5-0.2-3.8
		c0-0.4,0.2-0.7,0.3-1.1c0.1,1,0.1,1.9,0.1,2.9c0,1,0.3,2,0.7,2.9c0.1,0.2,0.3,0.5,0.5,0.5c0.4,0.1,0.8,0.1,1.2,0.2
		c-0.2-1.8-0.2-3.4,0.3-5.1c0,0.2,0,0.4,0,0.6c0,1-0.1,2.1,0,3.1c0.1,0.8,0.2,1.7,0.8,2.4c0.9,0.9,1.4,2,1.9,3.2
		c0.6,1.7,1.1,3.4,1.4,5.2c0.3,1.9,0.5,3.8,0.5,5.7c0,1.4-0.1,2.9-0.3,4.3c-0.1,0.7-0.3,1.5-0.7,2.1c-0.8,1.6-2.3,1.6-3.1,0.3
		c-0.1-0.2-0.3-0.3-0.4-0.5c0,0.2,0,0.3,0,0.3c0,0.9-0.6,1.9-1.4,2.2c-1.5,0.5-2.8,1.4-3.9,2.5c-1.4,1.6-1.7,3.3-0.9,5.3
		c0.5,1.3,1.5,2.2,2.6,2.9c1.6,1,3.3,1.8,4.9,2.6c0.7,0.3,1.4,0.6,2.2,1c0-0.5,0-0.9,0-1.3c0.2-1.1,0-2.2-0.3-3.3
		c-0.3-0.9-0.6-1.8-0.8-2.7c-0.1-0.6-0.1-1.1,0.5-1.6c0.7-0.6,1.5-1,2.4-1c1.1,0,2.1,0.1,3.1,0.7c0.7,0.4,1.3,0.9,1.8,1.5
		c0.9,1,1.3,2.2,1.6,3.5c0.3,1.3,0.4,2.6,0.2,3.9c-0.1,0.8-0.3,1.5-0.6,2.2c-0.2,0.5-0.5,0.9-0.8,1.3c0.5,0.3,1,0.7,1.4,1
		c0.9,0.7,1.5,1.5,2.1,2.4c0.4,0.7,0.7,1.4,0.9,2.1c0.3,1,0.5,2,0.6,3c0.1,0.6,0,1.3,0,1.9c0,0.5-0.1,1-0.1,1.5c2,0.1,3,1.4,3.1,2.6
		c-0.1,0-0.1-0.2-0.2-0.3c-1.1-1.3-2.7-1.6-4.2-0.8c-1.1,0.6-2,1.3-2.8,2.2c-1.4,1.5-2.7,3.1-4,4.6c-1.6,1.9-3.2,3.7-4.7,5.6
		c-1,1.1-1.9,2.3-2.9,3.4c-0.5,0.6-1.1,1.2-1.6,1.8c0,0-0.1,0-0.1,0c0-0.1,0-0.2,0.1-0.4c-1.6-0.6-2.5-1.8-3.2-3.3
		c-0.6,1.3,0.4,2.2,0.9,3.2c-0.5,0.3-1.1,0.3-1.5,0c-0.8-0.5-1.6-1.1-2.4-1.6c-0.2-0.1-0.3-0.2-0.5-0.3c-0.2,0.6,0,1.1,0.4,1.4
		c0.4,0.3,0.8,0.6,1.1,1c0.6,0.7,1.2,1,2,0.4c0,0,0,0,0.1,0.1c-0.1,0.1-0.2,0.2-0.3,0.3c-1,0.5-2.1,1-3.1,1.5
		c-0.3,0.1-0.6,0.3-0.9,0.4c0,0.1,0,0.2,0.1,0.2c0.2,0,0.5,0,0.7,0c0.8-0.1,1.5-0.3,2.3-0.4c0.5,0,1,0,1.4,0.2
		c1.9,1,3.9,0.9,5.9,0.2c1.1-0.4,2.2-1,3.5-0.8c0.2,0,0.4-0.1,0.7-0.2c-0.6-0.4-1.1-0.5-1.7-0.5c-0.6-0.1-1.1-0.1-1.8-0.2
		c4.2-4.1,8.5-8,13.9-10.5c0.1,0.1,0.2,0.2,0.2,0.3c-0.1,0-0.3,0-0.4,0.1c-1.7,1.3-3.3,2.5-5,3.8c-0.2,0.2-0.5,0.5-0.5,0.7
		c-0.3,1-0.5,2-0.6,3c-0.2,1.1-0.3,2.3-0.3,3.4c0.1,1.3,0.3,2.6,0.5,3.8c0.4,2,1.3,3.7,2.7,5.2c0.3,0.3,0.6,0.4,1,0.2
		c0.1,0,0.3,0,0.5-0.1c-0.5,0.7-1.3,1.2-1.1,2.1c0.5-0.1,1-0.3,1.4-0.2c0.7,0.1,1.5,0.3,2.2,0.6c1.1,0.5,2.2,1.2,2.9,2.3
		c0.1,0.1,0.4,0.2,0.5,0.1c0.4-0.1,0.6-0.7,0.5-1.2c-0.1-0.5-0.3-1-0.4-1.6c0.1,0.1,0.2,0.1,0.2,0.1c0.2,0.4,0.5,0.4,0.8,0.3
		c0.9-0.3,1.8-0.5,2.8-0.8c1.6-0.5,3.3-1.1,4.9-1.6c0.5-0.2,1-0.5,1.6-0.8c-0.5,1.1-1.5,1.5-2.3,2.2c1.4,0.3,2.6-0.1,3.6-0.8
		c1.1-0.7,1.7-1.8,1.7-3.2c0,0-0.1-0.1-0.1-0.1c-0.3,0.3-0.6,0.5-0.9,0.8c0.3-1,0.7-2,0.7-3.2c-0.5,0.2-0.9,0.4-1.4,0.6
		c-0.9,0.3-1.9,0.7-2.8,1c-0.2,0.1-0.4,0.1-0.4-0.2c-0.1-1.3,0.1-2.6,0.7-3.7c0.5-0.9,1.2-1.7,1.8-2.5c0.2-0.3,0.3-0.5,0-0.7
		c-0.3-0.2-0.6-0.5-0.9-0.7c-0.8-0.5-1.7-1-2.4-1.6c-1.1-0.8-1.9-1.9-2.5-3.2c-0.6-1.3-1.1-2.5-1.3-3.9c-0.2-0.9-0.3-1.9-0.4-2.8
		c-0.1-0.7-0.1-1.4-0.1-2c0,0,0.1,0,0.1,0c0.1,0.4,0.2,0.7,0.3,1.1c0.3,1.2,0.5,2.3,0.8,3.5c0.1,0.2,0.2,0.5,0.4,0.6
		c1.5,0.9,3,1.7,4.5,2.6c0.9,0.5,1.8,1.2,2.7,1.8c0,0.1,0,0.1-0.1,0.2c-0.6-0.5-1-0.3-1.5,0c-0.2,0.2-0.5,0.3-0.7,0.4
		c-0.3,0.3-0.7,0.5-0.9,1c0.1,0,0.2,0,0.2-0.1c1.3-0.6,2.7-0.8,4.1-1c1-0.1,1.9-0.2,2.8-0.7c0.8-0.5,1.6-0.9,2.4-1.3
		c0.4-0.2,0.9-0.4,1.3-0.6c0.3-0.2,0.6-0.4,0.7-0.8c-0.2,0.1-0.4,0.1-0.5,0.2c-0.8,0.2-1.6,0.4-2.5,0.6c-0.2,0-0.6-0.1-0.7-0.2
		c-0.1-0.2,0-0.5,0.2-0.7c0.4-0.6,0.8-1.1,1.2-1.7c0.3-0.4,0.5-0.9,0.5-1.5c-0.2,0.2-0.3,0.3-0.4,0.4c-0.9,1-1.7,2-2.6,2.9
		c-0.1,0.1-0.3,0.2-0.5,0.3c-0.1-0.2-0.2-0.4-0.2-0.6c0-0.5,0-1.1,0-1.7c-0.7,0.2-1.6,2.3-1.4,3.2c-1.1-0.7-2.2-1.5-3-2.5
		c-0.9-1-1.8-2.1-2.7-3.2c-1.2-1.4-2.4-2.9-3.6-4.3c-0.5-0.6-1.1-1.3-1.6-1.9c-0.1,0.2-0.2,0.3-0.4,0.6c0.2-3.1,1.4-5.6,3.7-7.5
		c-3.9-1.4-7.3-3.6-10.8-5.7c1,0.3,2,0.6,2.9,1c1.5,0.6,3,1.3,4.5,2c1.3,0.6,2.7,1.1,4.1,1.3c0.8,0.1,1.7,0.4,2.5,0.3
		c1.2-0.1,2.5-0.2,3.6-0.7c2-0.8,3.2-2.3,3.8-4.3c0.3-1.1,0.6-2.2,0.6-3.3c0.1-1.5,0-3,0-4.5c0-0.5-0.2-1-0.2-1.6
		C234.2,122.5,234.7,124.1,234.8,125.9z M202.6,185.7c-0.8,0.1-1.5,0.3-2.2,0.3c-1.6,0.1-3.3,0.2-4.9,0.2c-0.7,0-1.5-0.1-2.2-0.3
		c-0.9-0.2-1.8-0.3-2.6-0.7c-1-0.4-2.1-0.9-3-1.5c-1.2-0.8-2.2-1.9-3.4-2.8c-1.3-1-2.6-2.1-3.9-3c-2.2-1.5-4.4-2.9-7-3.7
		c-1.1-0.3-2.3-0.6-3.4-0.6c-1.2,0-2.3,0.3-3.5,0.5c-1.7,0.3-3.1,1.2-4.3,2.4c-1,1-1.9,2.1-2.3,3.5c-0.4,1.1-0.8,2.2-1,3.3
		c-0.3,1.3-0.4,2.7-0.2,4.1c0.2,0.8,0.3,1.7,0.6,2.5c0.6,1.6,1.5,3,2.6,4.3c0.4,0.4,0.8,0.8,1.2,1.3c0-0.3,0.1-0.4,0.1-0.5
		c-0.2-1.4,0-2.7,0.2-4.1c0.2-1.2,0.7-2.2,1.3-3.2c1.2-2.1,3.1-3.3,5.4-3.9c0.9-0.2,1.8-0.3,2.7-0.5c0.5-0.1,1-0.1,1.6-0.1
		c0,0,0,0.1,0,0.1c-0.1,0-0.1,0-0.2,0.1c-1.5,0.3-3,0.6-4.3,1.3c-1.2,0.6-2.2,1.4-3,2.4c-0.7,0.9-1.1,2-1.3,3.1c-0.5,2-0.6,4,0,6
		c0.4,1.3,1,2.5,1.9,3.5c1.9,2.2,4.4,3.3,7,4c1.6,0.5,3.3,0.7,5,1c1.2,0.2,2.4,0.3,3.5,0.3c2.1,0.1,4.1-0.1,6.2-0.3
		c2-0.2,3.9-0.6,5.8-1c1-0.2,2-0.5,3-0.9c1.9-0.7,3.9-1.3,5.8-2.1c1.8-0.8,3.4-1.9,5-2.9c1.7-1.1,2.9-2.5,3.2-4.6
		c0.2-1.2,0.1-2.3-0.1-3.4c-0.2-1-0.1-1.9,0.2-2.8c0.3-1,0.7-2,1-3c0.7-2,1.3-3.9,2-5.9c0.1-0.4,0.1-0.7-0.1-1
		c-0.9-0.9-1.9-1.5-3.1-1.8c-0.8-0.2-1.1,0-1.4,0.5c-0.4,0.6-0.7,1.3-1.1,1.9c-1.5,2.6-3.1,5.2-5.3,7.3c-0.6,0.6-1.4,1.2-2,1.7
		c0,0-0.1-0.1-0.1-0.1C202,186.4,202.3,186.1,202.6,185.7z M256.5,160.5c0-0.1-0.1-0.1-0.1-0.2c-1.4-1.4-2.9-2.5-4.9-2.9
		c-1.8-0.3-3.4,0-4.8,0.8c-1.7,0.9-3,2.3-4.1,4c-1,1.6-1.8,3.2-2.5,5c-0.8,2.1-1.7,4.2-2.5,6.3c-0.6,1.5-1.5,2.9-2.4,4.2
		c-0.2,0.3-0.3,0.5,0,0.7c0.2,0.1,0.3,0.3,0.4,0.4c-0.2,0-0.3,0-0.4,0c-0.7-0.5-1.5-1-2.2-1.6c-1.2-1-2.2-2.2-3-3.5
		c-0.2-0.3-0.3-0.3-0.6,0c-0.2,0.2-0.5,0.4-0.7,0.6c-0.8,0.6-1.8,0.8-2.6,0.9c0.6,1.1,1.4,2.2,1.9,3.4c0.7,1.8,1.1,3.6,1.7,5.4
		c0.5,1.4,0.9,2.9,1.5,4.3c0.4,0.9,1,1.7,1.7,2.4c1.3,1.1,2.8,1,4.2,0.8c1.2-0.2,2.4-0.4,3.5-0.7c1.3-0.3,2.6-0.6,3.8-1
		c1.2-0.4,2.3-0.9,3.5-1.4c2.1-0.9,4.1-2.1,6-3.4c1.5-1.1,2.9-2.3,4.2-3.6c1.1-1.1,2.2-2.3,3-3.6c1.3-2.2,2.3-4.5,2.5-7.1
		c0.1-1.7,0.1-3.3-0.6-4.8c-0.5-1.1-1.1-2-2.2-2.6c-1.5-0.8-3-1.1-4.7-1.1c-1.1,0-2.1,0.2-3.1,0.6c-2.3,0.9-4.2,2.4-5.9,4.3
		c-0.1,0.1-0.3,0.2-0.4,0.3C248.1,164.6,251.2,160.9,256.5,160.5z M207.8,125.8c-0.2-1.4-0.3-2.7-0.6-3.9c-0.3-1.1-0.8-2.1-1.7-2.8
		c-0.8-0.6-1.7-1-2.8-1.1c-0.6,0-1.3,0.1-1.8,0.3c-0.8,0.3-1,0.7-0.8,1.6c0.2,0.8,0.4,1.6,0.6,2.4c0.5,1.4,0.3,2.9,0.3,4.4
		c0,0.8,0.1,1.6,0.6,2.3c0.7,0.9,1.7,1.2,2.7,1.2c1.3,0,2.6-0.5,3.1-1.9C207.5,127.4,207.6,126.6,207.8,125.8z M195.7,90.1
		c-0.4,0.1-0.8,0.1-1.1,0.2c-0.7,0.3-1,1-1.2,1.7c-0.3,1.1-0.4,2.2-0.2,3.3c0.2,1.2,0.3,2.4,0.5,3.6c0.1,0.5,0.3,1,0.4,1.5
		c0.3,1.1,0.6,2.3,1,3.4c0.4,1.1,0.7,2.2,1.2,3.2c0.4,1,1,1.9,1.5,2.8c0.4,0.6,1,0.8,1.6,0c0.2-0.4,0.5-0.8,0.6-1.2
		c0.4-1.5,0.4-3.1,0.4-4.6c0-0.3-0.1-0.4-0.4-0.4c-0.4-0.1-0.9-0.3-1.3-0.5c-0.9-0.5-1.5-1.4-2.1-2.2c-0.8-1.1-1.3-2.4-1.7-3.7
		c-0.4-1.3-0.4-2.6-0.4-3.9c0-0.5,0.1-1,0.3-1.5C195.1,91.4,195.4,90.8,195.7,90.1z M225.7,167.9c6.2-2.4,11.2-6.1,14.2-12.1
		c-0.1,0-0.1,0-0.2,0c-1.2,0.7-2.3,1.4-3.5,2.1c-2,1.1-4,2-5.9,3.2c-1.9,1.2-3.3,2.8-4.1,4.9C226,166.5,225.9,167.2,225.7,167.9z
		 M200.3,103.1c-0.1-0.9-0.2-1.8-0.3-2.6c0-0.3,0.1-0.6-0.3-0.8c-0.9-0.5-1.4-1.2-1.8-2.1c-0.5-1-0.7-2.1-0.7-3.2
		c0-0.5,0.1-1,0.2-1.5c0.2-0.6,0.2-1.1-0.2-1.5c-0.1-0.1-0.3-0.3-0.4-0.4c-0.3-0.3-0.5-0.2-0.6,0.1c-0.3,0.7-0.7,1.4-0.7,2.2
		c-0.1,1.4-0.1,2.7,0.3,4.1c0.5,1.7,1.2,3.2,2.3,4.5C198.6,102.4,199.3,103.1,200.3,103.1z M221.4,153.7c0,0.2,0,0.3,0,0.4
		c0.2,0.4,0.4,0.9,0.6,1.3c0.5,1.1,1.1,2.1,2,2.9c0.3,0.2,0.5,0.3,0.8,0c0.3-0.4,0.8-0.6,1.2-0.9c0.3-0.2,0.7-0.4,1.1-0.7
		C225.1,155.6,223.3,154.7,221.4,153.7z"/>
	<path d="M226,81.8c-0.3,2.4-1.5,4.4-2.9,6.3c0.5,0.2,0.9,0.4,1.3,0.5c0.2,0,0.4,0,0.6-0.1c1.8-1.2,3.3-2.8,4.3-4.7
		c0.2-0.4,0.3-0.7,0.5-1.1c-0.2,1.1-0.7,2.2-1.3,3.1c-0.7,1.1-1.5,2.1-2.5,3.1c-0.5,0.5-0.5,0.5,0,1c0.1,0.1,0.2,0.2,0.2,0.3
		c0.4,0.6,0.6,0.7,1.2,0.4c1.2-0.5,2.2-1.3,2.9-2.4c0.2-0.3,0.4-0.6,0.6-0.9c-0.5,1.9-1.9,3.6-3.8,4.4c0,0.2,0.1,0.4,0.1,0.6
		c0.1,0.8,0.3,1.6,0.4,2.3c0.1,0.7,0,1.4,0,2.1c0,1.5-0.2,2.9-0.5,4.3c-0.4,2.2-1.1,4.3-1.9,6.4c-0.6,1.7-1.4,3.4-2.4,4.9
		c-1,1.5-2.3,2.8-3.9,3.6c-2.5,1.1-4.5-0.2-5.7-2.2c-0.8-1.4-1.1-3-1.2-4.6c0-1-0.1-2-0.1-3c0.1-1.2,0.2-2.4,0.4-3.6
		c0.3-2.1,1-4.1,1.7-6.1c0.8-2,1.7-3.9,3-5.6c0.8-1,1.7-1.9,3-2.4c0.4-0.1,0.8-0.3,1.1-0.3c0.8,0,1.3-0.4,1.7-1
		c0.7-1.1,1.5-2.2,2.2-3.4c0.3-0.6,0.5-1.3,0.8-1.9C225.9,81.8,226,81.8,226,81.8z M223.6,90.1c0-0.1,0-0.1-0.1-0.2
		c-1.6-0.6-3.1-0.4-4.5,0.6c-1.3,0.9-2.2,2.2-2.8,3.6c-0.5,1.2-1,2.3-1.5,3.5c-0.4,1.1-0.8,2.2-1.1,3.3c-0.4,1.7-0.6,3.4-0.8,5
		c-0.1,0.5-0.1,1-0.1,1.5c0,0.6,0.1,1.1,0.2,1.7c0.1,1.5,0.4,3,1.2,4.3c1.1,1.8,2.8,2.2,4.6,1.4c1.4-0.6,2.4-1.7,3.2-3
		c0.8-1.4,1.5-3,2.2-4.5c0.2-0.4,0.3-0.9,0.5-1.3c-0.1-0.1-0.1-0.1-0.1-0.1c-0.2,0-0.4,0-0.5,0c-1.3-0.1-2.5-0.6-3.3-1.7
		c-1.1-1.4-1.4-3.1-1.6-4.8c-0.1-1.7,0.1-3.5,0.7-5.1c0.6-1.7,1.5-3,3.2-3.8C223.2,90.3,223.4,90.2,223.6,90.1z M225.8,92.1
		c-0.3-0.5-0.6-0.9-1-1.3c-0.1-0.1-0.2-0.1-0.3-0.1c-0.4,0.1-0.8,0.2-1.1,0.5c-1.9,1.2-2.7,3.1-3.2,5.1c-0.2,0.9-0.2,1.8-0.2,2.7
		c0,1.2,0.3,2.4,0.9,3.6c0.7,1.4,1.9,2.3,3.5,2.4c0.4,0,0.7,0,0.8-0.5c0-0.3,0.1-0.6,0.2-0.9c0.1-0.3,0-0.3-0.3-0.4
		c-0.2,0-0.4-0.1-0.6-0.1c-1.1-0.5-1.5-1.5-1.8-2.5c-0.4-1.5-0.6-3.1-0.2-4.6C222.9,94.1,223.8,92.7,225.8,92.1z"/>
	<path d="M237.2,85c-0.4-4.8-2.2-8.6-7.2-10.1c1.3-0.2,2.5,0,3.6,0.6c1.4,0.7,2.4,1.8,3.1,3.2c0.3,0.8,0.6,1.6,0.7,2.4
		c0.1,0.9,0.1,1.9,0,2.9C237.3,84.4,237.2,84.7,237.2,85z"/>
	<path d="M217.9,147.6c0.2,2.9,0.6,5.9,1.1,8.7C217.8,153.6,217.4,150.7,217.9,147.6z"/>
	<path d="M223.5,160.5c-2.1-0.1-4,0-5.9,0.6C218.9,160,222,159.7,223.5,160.5z"/>
	<path d="M201.2,120.9c0.2,0,0.3-0.1,0.4,0c1.6,0.5,2.5,1.6,3,3.2c0.3,0.9,0.4,1.8,0.4,2.7c0,1-0.9,1.7-1.9,1.6
		c-0.9-0.2-1.4-0.7-1.5-1.7c-0.1-1,0-2,0.2-3C202,122.8,201.8,121.9,201.2,120.9z M202,121.8c0.4,1.2,0.2,2.2,0.1,3.3
		c0,0.5,0,1,0.1,1.5c0.1,0.6,0.4,0.8,1,0.8c0.5,0,0.8-0.3,1-0.8c0.2-0.6,0.1-1.3,0-1.9c-0.2-0.8-0.3-1.6-0.9-2.2
		C203,122.3,202.6,121.9,202,121.8z"/>
</g>
</svg>
