<?xml version="1.0" encoding="utf-8"?>
<!-- Generator: Adobe Illustrator 17.1.0, SVG Export Plug-In . SVG Version: 6.00 Build 0)  -->
<!DOCTYPE svg PUBLIC "-//W3C//DTD SVG 1.1//EN" "http://www.w3.org/Graphics/SVG/1.1/DTD/svg11.dtd">
<svg version="1.1" id="Layer_1" xmlns="http://www.w3.org/2000/svg" xmlns:xlink="http://www.w3.org/1999/xlink" x="0px" y="0px"
	 viewBox="0 0 288 216" enable-background="new 0 0 288 216" xml:space="preserve">
<g>
	<path d="M238.1,92.6c-0.2-0.2-0.4-0.4-0.6-0.7c-0.1-0.1-0.3-0.2-0.3-0.4c0.1-1.3-1-1.8-1.8-2.5c-0.8-0.8-1.8-1.5-2.6-2.2
		c-0.5-0.5-0.9-1.1-1.3-1.6c0.1-0.1,0.1-0.1,0.2-0.2c0.1,0.1,0.3,0.2,0.4,0.3c1,1.3,2.2,2.5,3.7,3.4c0.6,0.4,1,1,1.8,1.2
		c0.3,0.1,0.5,0.6,0.9,1.1c0-0.9,0-1.6,0-2.5c0.6-0.1,1.1-0.2,1.6-0.3c-0.3-0.3-0.9-0.6-0.9-1c-0.1-1-1.3-1.5-1-2.9
		c0.5,0.8,0.8,1.5,1.2,2.1c0.4,0.6,0.9,1.1,1.4,1.7c0-1.5-0.9-3.1-2.2-3.9c0.8,0,1.4,0.1,2.3,0.1c0.1,0.1,0.4,0.3,0.9,0.7
		c-0.2-1.2-0.3-2.3-0.4-3.3c-0.1-0.6-0.1-1.2-0.2-1.9c-0.1-0.5-0.2-1-0.7-1.5c-0.7-0.7-1.5-1.5-1.3-2.8c0.5,0.3,0.4,0.8,0.7,1.2
		c0.2,0.4,0.5,0.7,0.8,1.1c0.1,0,0.2,0,0.2-0.1c-0.1-1-0.2-2.1-0.3-3.1c-0.1-0.6-0.2-1.2-0.2-1.8c0.1-1.7-0.1-3.3-0.8-5.1
		c0.3,0.1,0.4,0.2,0.6,0.3c0.2-0.3,0.5-0.7,0.7-1c0,0.9-0.9,1.8-0.1,2.7c0.1-0.3,0.2-0.5,0.4-0.9c0.2,0.4,0.3,0.7,0.3,0.9
		c0.3-0.2,0.7-0.5,1.1-0.7c0,0,0.1,0.1,0.1,0.1c-0.5,0.7-1.2,1.3-1.5,2.1c-0.3,0.8-0.2,1.7-0.1,2.6c0.2-0.3,0.3-0.5,0.5-0.8
		c0.1-0.3,0.1-0.7,0.8-0.7c-0.3,0.6-0.5,1.1-0.8,1.6c-0.1,0.3-0.4,0.6-0.3,0.9c0,0.9,0.2,1.8,0.3,2.7c0,0.2,0.1,0.4,0.2,0.7
		c1-0.7,1.4-1.8,1.8-2.8c0.4-1,0.9-1.9,1.7-2.7c0.1-0.1,0.3-0.2,0.5-0.2c-0.4,0.5-0.8,1.1-1.1,1.6c-0.3,0.4-0.5,0.9-0.7,1.4
		c-0.3,1-0.8,1.9-1.6,2.7c-0.6,0.6-0.8,1.3-0.5,2.1c0.2,0.7,0.2,1.4,0.4,2.2c0.1,0.7,0.3,1.4,0.5,2.1c0.4-0.2,0-1,0.8-1
		c0.7,1.5,0.5,3.3,1.9,4.5c-0.2-1.6-0.7-3.2-1.3-4.8c-0.4-0.9-0.7-1.8-0.9-2.7c-0.1-0.3,0-0.6,0.2-0.9c0.3,1,0.6,1.9,0.9,2.9
		c0.3,0.9,0.8,1.8,1.2,2.8c0.2-0.2,0.4-0.4,0.7-0.8c-0.2,1.1-0.3,1.9-0.5,2.7c0.7-3.7,2.4-7,4.8-10.1c-0.3-1.3-1.2-2.3-2-3.3
		c0.7-0.1,0.7-0.1,2,1.3c-0.1-0.4-0.2-0.5-0.2-0.7c-0.1-0.2-0.2-0.4-0.2-0.7c0.3,0.2,0.5,0.4,0.8,0.7c0.8-1.6-0.2-2.7-1-4.1
		c0.8,0.2,1,0.9,1.5,1.4c0.2-0.6,0.4-1.1,0.5-1.6c0.1,0,0.1,0,0.2,0c0,0.2,0.1,0.3,0.1,0.5c-0.1,0.7-0.2,1.3-0.3,2
		c0,0.3,0.1,0.7,0.2,1.2c0.9-0.8,1.1-1.7,1.6-2.5c-0.1,0.5-0.1,1-0.2,1.5c2.6-1.5,3.3-2.5,6.5-2.7c-0.1,0.1-0.1,0.2-0.2,0.2
		c-1.1,0.4-2.1,0.9-3.2,1.2c-0.7,0.2-1.2,0.6-1.6,1.1c-0.7,0.9-1.4,1.7-2.1,2.5c0.4,0.1,1,0.3,1.6,0.5c0,0.1,0,0.1-0.1,0.2
		c-0.7-0.1-1.3-0.2-2-0.3c-0.8,1-1.3,2.1-1.5,3.4c-0.1,0.7-0.4,1.3-0.6,2c-0.1,0.2-0.1,0.5,0,0.7c0.3-0.3,0.5-0.7,0.9-1.2
		c0.1,0.4,0.1,0.5,0.1,0.7c0.7-0.4,1.3-1.2,2.3-1.1c-0.4,0.3-0.9,0.6-1.5,1c1.1-0.2,1.9-0.4,2.8-0.6c0,0.1,0.1,0.1,0.1,0.2
		c-0.2,0.1-0.4,0.3-0.6,0.4c-0.7,0.2-1.4,0.4-2.1,0.5c-0.8,0.2-1.5,0.5-1.9,1.2c0.5,0,1.1-0.1,1.6-0.1c0,0.1,0,0.2,0,0.2
		c-0.7,0.1-1.4,0.3-2.2,0.4c0.4,0.7,0.9,1.4,1.2,2.1c0.3,0.7,0.5,1.5,0.8,2.3c0-0.4,0.1-0.8,0.1-1.4c0.6,0.2,0.1,0.7,0.5,1
		c0.3-0.1,0.7-0.3,1-0.4c0,0,0.1,0.1,0.1,0.1c-0.3,0.3-0.6,0.5-0.9,0.7c-0.1,0.5-0.2,0.8-0.3,1.2c1.8-1,3.5-2,5.3-3
		c0.8-0.4,1.7-0.8,2.6-1.1c0.5-0.2,0.8-0.4,1.1-0.8c0.7-1.1,1.2-2.2,1.3-3.5c0-0.6,0.1-1.2,0.6-1.9c0,2-0.4,3.8-1.5,5.6
		c1.3-0.6,1.5-1.7,2-2.5c0.5-0.8,1-1.6,1.6-2.7c0.1,0.9-0.3,1.4-0.6,2c-0.3,0.6-0.7,1.1-1.1,1.9c0.4-0.2,0.6-0.3,0.8-0.3
		c0,0.1,0.1,0.1,0.1,0.2c-0.3,0.2-0.5,0.5-0.8,0.7c-0.3,0.2-0.6,0.4-1.2,0.8c0.9,0,1.5,0,2,0c0.5,0,0.9-0.6,1.7-0.2
		c-0.3,0.2-0.5,0.3-0.9,0.5c1.2,0.3,2.3,0.6,3.6,0.9c-0.4,0.1-0.6,0.2-0.7,0.2c-0.9-0.2-1.7-0.3-2.5-0.5c-1.6-0.4-3.1-0.4-4.7,0.1
		c-2.6,0.7-4.6,2.2-6.9,3.5c-0.5,0.3-1,0.6-1.6,1c0.8,0.2,1.3-0.1,1.9-0.4c0.7-0.4,1.5-0.7,2.2-1.1c0.2-0.1,0.4-0.1,0.8-0.1
		c-0.5,0.7-1.2,0.7-1.7,1c-0.5,0.3-1,0.5-1.5,0.8c0.3,0.5,0.7,1,1,1.5c0,0-0.1,0.1-0.1,0.1c-0.7-0.4-1.4-0.7-2.1-1.1
		c-0.6-0.4-1.1-0.3-1.7,0.1c-1,0.7-2.2,1.4-3.2,2.1c3.4-0.3,6.6,0.8,9.8,1.6c0,0.1,0,0.2,0,0.2c-0.6-0.1-1.1-0.2-1.8-0.3
		c0.4,0.5,0.7,0.9,1.1,1.3c-0.1,0.1-0.1,0.1-0.2,0.2c-0.2-0.2-0.4-0.4-0.6-0.5c-0.2-0.2-0.4-0.4-0.6-0.5c-0.4-0.3-0.8-0.6-1.2-0.7
		c-2.5-0.6-5-0.9-7.6-0.4c-1.1,0.2-1.9,0.7-2.2,1.7c0,0.1-0.1,0.2-0.1,0.4c0.7-0.6,1.3-1.2,2.1-1.8c0.1,0.2,0.2,0.4,0.1,0.5
		c-0.2,0.2-0.4,0.3-0.6,0.5c-0.8,0.6-1.3,1.3-1.6,2.2c0.7,0,1.1-0.6,2-0.4c-0.2,0.2-0.3,0.3-0.5,0.4c-0.3,0.1-0.6,0.3-0.9,0.4
		c-1.2,0.5-2.1,1.2-2.5,2.5c-0.3,0.9-0.7,1.9-1.2,2.9c0.9-0.4,1.6-0.9,2.1-1.5c0.5-0.5,0.8-1.3,1.4-2.2c0.1,1-0.6,1.5-0.7,2.3
		c1.1-0.1,2.2-0.2,3.6-0.3c-0.6,0.6-1.2,0.6-1.8,0.7c-0.4,0.1-0.7,0-1.1,0.1c-0.5,0.1-0.9,0.2-1,0.7c0.2,0.1,0.4,0.1,0.7,0.2
		c-0.1,0.1-0.1,0.2-0.2,0.2c-0.7-0.1-1.3,0.3-1.8,0.7c-0.5,0.5-1.2,0.9-1.8,1.3c-0.2,0.2-0.5,0.4-0.6,0.6c-0.6,1.4-1.1,2.8-1.6,4.2
		c0.9,0.3,1.7,0.7,2.4,1c0,0.1-0.1,0.2-0.1,0.2c-0.8-0.3-1.5-0.5-2.4-0.8c-0.2,0.4-0.4,0.7-0.5,1c-0.6,1.4-1.1,2.8-1.7,4.2
		c-0.3,0.6-0.4,1.3-0.4,1.9c-0.1,3.4-0.1,6.8-0.2,10.1c0,0.1,0,0.3-0.1,0.5c-0.8,0.3-1.6,0.1-2.4,0.1c-0.1-0.3-0.2-0.5-0.2-0.7
		c0-1.8,0.1-3.5,0.2-5.3c0.1-1.5,0.1-2.9,0.2-4.4c0.1-0.8-0.2-1.5-0.8-2.1c-0.5-0.4-0.9-0.9-1.3-1.3c-1.6-1.4-2.4-1.5-4.4-0.5
		c-0.2,0.1-0.3,0.1-0.7,0.3c0.3-0.6,0.6-1,1.5-1c-0.7-0.2-1-0.3-1.4-0.5c0.4-0.3,0.4-0.3,1.3-0.2c-0.6-0.7-1.4-0.8-2.3-0.8
		c-1.5,0-2.9,0-4.2,0.9c0.3-0.5,0.3-0.5,1.1-1c-0.6-0.2-1.3-0.1-1.8-0.8c0.3,0.1,0.5,0.1,0.7,0.1c0.9,0.2,1.7,0.5,2.7,0.2
		c0.4-0.1,0.8,0,1.2,0c-0.4-0.7-1-0.8-1.9-0.6c-0.5,0.2-1.2,0.1-1.7,0.1c0.4-0.5,1.1-0.6,3.2-0.6c-0.4-0.5-0.8-0.9-1.2-1.3
		c-0.4-0.4-1.2,0.1-1.6-0.6c0.3,0,0.6-0.1,1-0.1c-0.8-1-1.4-2.2-2.9-2c-0.2-0.2-0.3-0.5-0.4-0.6c-2.4-1-4.8-1.9-7.5-2.2
		c-0.3,0-0.6-0.1-0.9-0.2c-0.8-0.1-1.7-0.2-2.3,0.5c-0.3,0.3-0.7,0.5-1,0.7c-1,0.6-1.8,1.4-2.3,2.5c0,0.1-0.1,0.2-0.2,0.2
		c0,0-0.1,0-0.2,0.1c0-1,0.6-1.7,1.2-2.3c0.4-0.4,0.9-0.6,1.3-0.9c0.4-0.3,0.7-0.7,1.1-1c-3.8-0.5-6.5,1-8.7,3.7
		c-0.5,0.6-0.8,1.3-1.2,2c-0.2,0.2-0.3,0.5-0.6,0.7c0-1.1,0.7-1.9,1.3-2.7c0.6-0.9,1.4-1.7,2.2-2.4c0.8-0.7,1.9-1.1,2.9-1.6
		c-0.6-0.4-1.5,0-2.3-0.4c0.4-0.1,0.6-0.1,0.8-0.1c0,0-0.1-0.1-0.1-0.1c-1-0.4-2-0.7-3-1.2c-0.6-0.3-1.2-0.7-1.7-1.2
		c0.2-0.1,0.3-0.1,0.3-0.1c1.9,1,3.9,1.8,6,2.5c0.5,0.2,1,0.2,1.5,0.2c1.3,0,2.7,0.1,4,0.2c1.8,0.2,3.7,0.5,5.6,0.8
		c-0.3-0.7-0.6-1.2-0.9-1.8c-0.8,0.2-1.7,0.4-2.5,0.6c0.2-0.4,0.5-0.6,0.9-0.7c0.5-0.2,1-0.5,1.5-0.5c0.5-0.1,1,0.1,1.5,0.1
		c0.6,0.1,1.3,0.1,1.9,0.2c0.9,0.2,1.9,0,2.8,0.6c0.3,0.2,0.7,0.3,1.2,0.5c-0.7-1.6-1.7-2.7-2.7-3.9c-1-1.3-2.5-1.9-4.1-2.4
		c0-0.1,0.1-0.2,0.1-0.2c0.7,0.2,1.4,0.4,2.1,0.6c0.1-0.6-0.6-0.9-0.8-1.5c1.2,0.6,1.4,1.7,2.2,2.4c0.7-0.1,1.4-0.1,2.2-0.2
		c-1.3-1.5-1.1-1.9-5.9-3c0.5-0.4,0.5-0.4,1.8,0c0.6,0.2,1.2,0.4,2,0.6c-0.9-1-1.6-1.8-2.4-2.5c-0.6-0.5-1.4-0.7-2.1-0.9
		c-0.4-0.2-0.9-0.2-1.4-0.3c-0.4-0.1-0.8-0.1-1-0.7c1.3,0.3,2.4,0.5,3.6,0.8c-1.3-1.8-2.6-3.5-3.8-5.3c-0.5-0.7-1-1.2-1.7-1.6
		c-0.2-0.1-0.3-0.2-0.6-0.5c0.5,0,0.7,0.1,1,0.1c-0.1-0.9-0.2-1-1.4-1.4c-0.4,0.6-0.8,1.1-1.2,1.7c-2.4,3.6-5.1,6.9-8.4,9.9
		c-0.9,0.8-1.8,1.7-2.6,2.6c-0.2,0.2-0.4,0.6-0.4,0.9c-0.2,2.3-0.4,4.6-0.5,6.9c-0.2,2.3-0.3,4.6-0.5,6.9c-0.2,3.2-0.4,6.4-0.5,9.7
		c-0.1,2.1-0.1,4.2-0.2,6.3c0,0.4-0.1,0.8-0.1,1.2c-0.8,0-1.5,0-2.3,0c0-1.4,0-2.7,0-4.1c0-0.2,0.1-0.4,0.1-0.5
		c0.1-2.3,0.1-4.7,0.2-7c0.1-2.4,0.4-4.8,0.6-7.2c0.1-1.5,0.2-3,0.3-4.5c0.1-1.3,0.3-2.5,0.4-3.8c0.1-1.3,0.1-2.6,0.3-3.8
		c0.3-1.7-0.5-3.1-0.9-4.7c-0.1-0.6-0.5-1-1.2-1.2c-0.9-0.3-1.7-0.6-2.5-1c-0.2-0.1-0.3-0.1-0.5-0.3c1,0,2,0.2,3,0.7
		c-0.6-0.7-1.1-1.4-1.8-2.1c-0.5-0.5-1.5-0.6-2.1-0.1c-0.4,0.3-0.7,0.7-1,1.1c-0.3,0.4-0.6,0.7-0.9,1.1c-0.1,0-0.1-0.1-0.2-0.1
		c0.3-0.5,0.7-1,1-1.5c0,0-0.1-0.1-0.1-0.1c-0.4,0.3-0.8,0.5-1.2,0.8c0.2-0.9,1.1-1,1.5-1.7c-1.4-0.1-2.7,0.6-4.1,0.7
		c0.2-0.4,0.2-0.4,2.5-1.1c-0.4-0.1-0.7-0.1-1-0.2c0-0.2,0.1-0.3,0.1-0.5c-0.2-0.1-0.5-0.3-1-0.6c0.5-0.2,0.8-0.3,0.8-0.3
		c0.2,0.1,0.4,0.4,0.6,0.6c0.5,0.5,1.1,0.9,2,0.8c0.7,0,1.3,0.1,2.1,0.2c0-0.4-0.4-0.6-0.6-0.9c-0.7-1-1.5-1.9-2.2-2.9
		c-0.9-1.3-2.4-1.7-3.9-1c-0.1,0-0.2,0-0.3,0.1c-0.1-0.1-0.3-0.3-0.5-0.5c0.1-0.2,0.3-0.3,0.3-0.4c-0.9-0.4-1.7-0.8-2.6-1.2
		c-0.4-0.2-0.7-0.4-1.2-0.4c-0.5,0.1-0.7-0.2-0.8-1c0.1,0,0.2-0.1,0.2-0.1c1.5,0.7,1.8,0.7,3.9,0.5c0.2,0,0.3,0.1,0.5,0.2
		c0.7,0.2,1.4,0.5,2.2,0.6c-0.1-0.9-0.7-1.6-3.1-3.5c-1.3-1-2.9-1.5-4.7-1.6c0.7-0.5,0.7-0.5,4.2,0.7c-0.1-0.8-1-1-1.2-1.7
		c0.4,0.2,0.7,0.5,1.1,0.8c0.1-0.3,0.1-0.6,0.1-0.9c0.5,0.2,0.5,0.6,0.4,0.8c-0.2,0.8,0.2,1.3,0.7,1.9c0.5,0.5,0.9,0.6,1.8,0.2
		c-0.1-0.3-0.2-0.5-0.4-0.8c-0.3-0.5-0.7-1-1-1.5c-0.2-0.3-0.2-0.7-0.1-1c0.4,0.6,0.7,1.2,1.1,2c0.5-0.9-0.3-1.7,0.2-2.6
		c0.6,0.9,0.5,1.8,0.6,2.7c0.8,0.2,1,0.7,0.9,1.4c0,0.3,0,0.5-0.1,0.8c-0.4,1,0,1.9,0.4,2.7c0.4,0.8,0.8,1.5,1.2,2.3
		c1.1,1.9,2.6,3.3,4.6,4.5c-0.2-0.6-0.4-1.2-0.7-1.7c-0.3-0.5-0.7-0.9-1-1.4c0.5,0,0.6,0.5,1,0.8c0.1,0,0.2-0.1,0.4-0.2
		c0.1,0.3,0.1,0.5,0.2,0.7c0,0,0.1,0,0.1,0c-0.2-1.1-0.5-2.2-0.6-3.3c-0.2-1.6-0.4-3.2-0.6-4.8c-0.1-0.7-0.2-1.4-0.3-2.1
		c0-0.1-0.1-0.3-0.2-0.4c-2-2-4.1-3.9-6.8-5.1c-1.2-0.5-1.6-0.5-2.5,0.4c-0.4,0.4-0.7,0.8-1,1.2c-0.1,0.1-0.2,0.2-0.5,0.4
		c0.1-1.2,1-1.6,1.6-2.4c-0.7-0.2-1.5,0-2.1-0.7c0.7,0.1,1.2,0.1,1.7,0.1c0-0.1,0-0.1,0-0.2c-0.9-0.3-1.7-0.5-2.6-0.8
		c-2-0.7-3.9-1.4-5.9-2.1c-0.2-0.1-0.4-0.2-0.5-0.3c-0.4-0.8-1.3-0.9-2-1.2c-0.8-0.4-1.5-0.8-2.3-1.2c-0.1-0.1-0.2-0.3-0.3-0.5
		c1,0.6,2,1.2,3.4,1.4c-0.1-0.4-0.1-0.7-0.2-1c0.1,0,0.1-0.1,0.2-0.1c0.1,0.1,0.2,0.2,0.2,0.4c0.3,1.2,1.4,1.7,2.5,2.2
		c1.2,0.6,2.5,1,3.7,1.5c0.1,0,0.3,0,0.6,0c-0.5-0.5-0.8-0.9-1.2-1.3c0.1-0.1,0.2-0.2,0.3-0.4c-0.3-0.4-0.5-0.8-0.9-1.4
		c1,0.4,1.1,1.1,1.7,1.5c0.5,0.3,1.1,0.6,1.7,1c0.2-0.8-0.7-0.9-0.9-1.5c0.5-0.2,1,0.1,1.1,0.3c0.7,0.8,1.3,1.6,2,2.4
		c0.4,0.4,0.9,0.9,1.4,1.2c3.5,1.8,4.8,2.7,7.6,5.3c0-0.4,0-0.7,0.1-1.1c0.1-0.7-0.1-1.3-0.7-1.7c-0.2-0.1-0.4-0.3-0.5-0.5
		c-0.4-0.6-1-0.8-1.7-0.9c-1.3-0.2-2.5-0.6-3.6-1.2c-0.2-0.1-0.3-0.2-0.4-0.4c0.7,0,1.3,0.4,1.9,0.6c0.6,0.2,1.3,0.4,1.9,0.5
		c-3.2-2-3.2-2-5.8-1.8c0.8-0.5,1.4-0.8,2.3-0.5c0.3,0.1,0.6,0.1,0.9,0.2c0.8,0.3,0.8,0.3,2.1,0c-0.4-0.6-0.9-1.2-1.7-1.1
		c-1.1,0.1-2.1-0.2-3.1-0.5c-1-0.3-1.9-0.6-2.9-1c-0.3-0.1-0.6-0.3-0.9-0.6c0.2,0,0.3-0.1,0.5,0c1.5,0.4,2.9,0.9,4.4,1.4
		c0.1,0,0.2,0.1,0.3,0.1c1.2,0.1,2.3,0,3.6,0.3c-1-1.4-2.6-1.7-4.1-2c-0.6-0.1-1.2-0.2-2.1-0.4c1.3-0.4,2.3,0,3.4,0.2
		c0.2-0.2,0.4-0.3,0.6-0.4c-0.1-0.6-0.1-1.1-0.2-1.7c0-0.1-0.3-0.2-0.3-0.2c0.1-0.6,0.1-1.1,0.2-1.6c0.3-0.1,0.7-0.2,0.9,0.3
		c0.1,0.5,0.3,0.9,0.6,1.6c0.3-0.7,0.5-1.3,0.7-1.9c0.4,0.6,0.1,1.1-0.1,1.6c-0.7,1.4,0,2.5,0.7,3.7c0.1,0,0.2,0,0.2,0
		c0-0.7,0-1.4,0-2.1c0.1,0,0.1,0,0.2,0c0.1,0.2,0.1,0.5,0.2,0.8c0.2-0.3,0.4-0.5,0.6-0.9c0.1,0.3,0.2,0.4,0.1,0.5
		c-0.8,0.9-0.6,1.7,0.4,2.4c0.3,0.2,0.5,0.5,0.8,0.8c0.1-0.5,0.1-0.9,0.1-1.5c1,1,0.1,2,0.5,2.9c0.1-0.1,0.2-0.3,0.2-0.4
		c0.1-0.9,0.2-1.7,0.3-2.6c0.1-1.3,0.3-2.6,0.4-3.9c0.1-0.5,0-1-0.6-1.3c-0.6-0.3-1.2-0.8-1.7-1.2c-0.4-0.4-0.8-0.8-1-1.3
		c-0.7-1.2-1.4-2.4-2.7-3.2c-0.1-0.1-0.2-0.3-0.2-0.4c1.2,0.6,2.1,1.4,2.7,2.5c0.5,0.8,0.9,1.6,1.7,2.1c0.2,0.1,0.5,0.1,0.7,0.1
		c0.2,0.3,0.4,0.7,0.6,1c0.1,0,0.2-0.1,0.2-0.1c-0.6-2.1-1.7-3.9-3.9-4.8c-1.1-0.5-1.8-1.4-2.5-2.2c1.1,0.4,1.6,1.7,3,1.9
		c0-0.6-1.4-0.6-0.8-1.4c1.1,0,2.3,0,3.5,0c-0.6-1-1.1-1.9-1.9-2.5c-0.4-0.3-1-0.5-1.5-0.5c-0.7-0.1-1.4,0-2.1,0c-0.3,0-0.7,0-1,0
		c1-0.7,2.1-0.5,3.2-0.6c-0.1-0.2-0.1-0.4-0.2-0.5c0.1,0,0.1-0.1,0.2-0.1c0.5,0.4,1,0.8,1.5,1.2c-0.4-1.6-0.4-3.4-2.5-4.2
		c0.3-0.2,0.5-0.2,0.6-0.4c0.1-0.2,0.1-0.4,0.2-0.7c1,1.6,2,3.1,2.3,4.8c0.3,1.5,1.4,2.6,2.4,3.8c1.1-1,1-2.2,0.8-3.3
		c-0.3-1.3-0.7-2.6-1.7-3.7c-0.4-0.4-0.6-1.1-0.8-1.7c-0.2-0.6-0.4-1.3-1-1.7c-0.1-0.1-0.1-0.3,0-0.5c0.3,0.2,0.6,0.5,0.9,0.7
		c0.1-0.2,0.2-0.3,0.4-0.6c0.1,0.8,0.1,1.5,0.3,2.1c0.2,0.7,0.6,1.3,1.1,1.9c0.1-0.4,0.2-0.8,0.3-1.2c0.2-1,0.3-1.9,0.6-2.9
		c0.2-0.6,0.2-1.1-0.1-1.7c-0.1-0.2-0.2-0.4-0.3-0.6c-0.3-0.9-0.9-1.6-2-1.7c-0.2,0-0.3-0.2-0.6-0.3c0.1-0.2,0.2-0.3,0.3-0.4
		c-0.7-0.6-1.6-0.4-2.7-0.6c0.4-0.2,0.6-0.4,0.7-0.4c1-0.1,1.9,0.2,2.8,0.8c0.1-0.5,0.1-1,0.2-1.4c0,1.8,1.8,3,2.2,4.6
		c0.1-0.2,0.2-0.3,0.4-0.5c0.7,0.6-0.2,1.2,0.2,1.9c0.1-0.2,0.2-0.3,0.3-0.5c0.1-1,0.2-2,0.3-3.1c0.1-1.4,0.2-2.8,0.2-4.2
		c0-1.1-0.1-2.1-0.2-3.2c-0.1-0.7-0.7-1-1.2-1.3c-0.4-0.3-0.6-0.5-0.8-0.9c-0.3-0.8-0.8-1.5-1.2-2.3c-0.1-0.3-0.2-0.6-0.3-0.9
		c0.1,0,0.2-0.1,0.3-0.1c0.3,0.5,0.7,0.9,1,1.4c0.2-0.1,0.4-0.2,0.5-0.3c0.3,0.5,0.6,0.9,1,1.6c0.3-1.2,0-2-0.9-2.6
		c-0.6-0.5-1.2-1.1-1.7-1.6c-0.1-0.1-0.1-0.4-0.2-0.8c0.9,0.8,1.3,1.8,2.4,2.1c0-0.9-0.3-1.8-0.6-2.7c-0.1-0.2-0.4-0.5-0.7-0.6
		c-0.9-0.5-1.9-0.9-2.9-1.4c0.2,0,0.4-0.2,0.6-0.1c0.7,0.2,1.3,0.5,2,0.8c0.2,0.1,0.5,0.2,0.9,0.4c-0.1-0.5-0.2-0.9-0.2-1.2
		c-0.4-1.8-1-3.6-2.2-5.2c-0.4-0.5-0.7-1.1-0.7-1.8c1,1.8,2.6,3.4,3,5.7c0.6-1.4,0.2-2.9,1.1-4.1c0.1-0.1,0.2-0.1,0.3-0.1
		c-0.3,1.7-0.7,3.4-1,5.2c0.2,0,0.4,0.1,0.6,0.1c0,0.3-0.1,0.5-0.1,0.9c0.3-0.1,0.5-0.2,0.7-0.3c0,0,0.1,0.1,0.1,0.1
		c-0.2,0.2-0.3,0.4-0.4,0.6c-0.1,0.2-0.1,0.4-0.2,0.8c0.4-0.4,0.5-0.6,0.7-0.8c0.1,0,0.1,0.1,0.2,0.1c0,0.2,0,0.4-0.2,0.6
		c-0.6,0.7-0.5,1.5-0.3,2.3c1.2,4.6,1.6,9.3,1.3,14c-0.1,1.3-0.3,2.5-0.4,3.9c0.3-0.2,0.5-0.4,1-0.6c0-0.4,0-1,0-1.5
		c0.1,0,0.2,0,0.3,0c0,0.6,0,1.1,0,1.7c0.1,0,0.1,0,0.2,0c0.4-0.5,0.8-1.1,1.3-1.6c0.1,0.9-0.8,1.4-1,2.1c1.2-0.3,1.5-1.4,2.4-2.1
		c-0.1,0.7-0.1,1.3-0.8,1.7c-0.4,0.2-0.7,0.5-1.1,0.8c-0.5,0.4-1,0.6-1,1.4c0,0.4-0.5,0.8-0.7,1.2c-0.7,1.2-1.1,2.4-1.1,3.7
		c0,0.4-0.1,0.9-0.2,1.4c0.2-0.1,0.5-0.2,0.7-0.3c0,0.1,0.1,0.2,0.1,0.2c-0.7,0.5-0.9,1.2-1,1.9c-0.1,0.9-0.2,1.8-0.3,2.7
		c-0.1,1.3-0.3,2.6-0.4,3.9c-0.2,1.7-0.4,3.3-0.5,5c0,0.4-0.1,0.8-0.2,1.5c0.9-1.1,2.1-1.5,2.6-2.6c0.1-0.1,0.2-0.2,0.3-0.3
		c1.7-0.8,2.3-2,1.9-3.7c-0.1-0.3-0.3-0.7,0.1-1.1c0.2,0.6,0.3,1,0.4,1.5c0.1-1.1,0.3-2.1,0.4-3.3c0.2,0.3,0.4,0.5,0.5,0.7
		c0.1,0,0.3-0.1,0.6-0.2c-0.5,0.7-0.6,1.4-0.8,2.2c-0.1,0.7-0.5,1.3-0.7,2.1c1.7-0.1,2.8-1.2,4.4-1.9c-0.2,0.5-0.3,0.7-0.5,1
		c1.3,0.3,2.6-0.4,3.9-0.1c-0.1,0.1-0.1,0.2-0.1,0.2c-1.3,0.1-2.5,0.2-3.8,0.3c-0.5,0.1-1.1,0.2-1.6,0.4c-1.7,0.5-3.1,1.4-4,2.8
		c0.8-0.2,1.4-0.8,2.3-0.7c-0.4,0.2-0.8,0.4-1.2,0.7c1.5-0.2,2.6-1.1,4-1.8c0,0.3,0,0.4-0.1,0.5c-1.5,1-3,1.9-4.9,2.2
		c0,0-0.1,0-0.1,0c-1.4-0.1-2.2,0.9-3.2,1.7c1.2-0.1,1.9-0.7,2.8-1.2c-0.1,0.6-0.1,0.6-0.9,1.1c0.5-0.1,0.8-0.1,1.2-0.1
		c-0.1,0.2-0.2,0.4-0.1,0.6c0,0.2,0.2,0.3,0.2,0.5c0.5,1.2,1.1,2.4,1.6,3.7c0.2,0.4,0.2,0.8,0.7,1.1c0.3,0.2,0.4,0.7,0.6,1.1
		c0.6-0.4,0.4-1.1,0.6-1.6c0.2-0.5,0.3-1.1,0.5-1.7c0.1,1.2-0.2,2.3-0.5,3.4c1,0,1,0,1.7-0.9c-0.8-1.6-1-3.4-1.1-5.2
		c0-0.1,0.1-0.2,0.4-0.3c0.1,0.9,0.1,1.8,0.3,2.6c0.2,0.8,0.3,1.7,0.9,2.5c0.8-0.9,1.2-2,1.3-3.1c0-0.3,0-0.7,0.7-0.5
		c-0.1,0.6-0.2,1.2-0.3,2c0.8-0.5,1.5-0.9,2.2-1.4c0.6-0.5,1.2-1,1.8-1.5c0.1,0.1,0.1,0.1,0.2,0.2c-0.3,0.4-0.6,0.8-1,1.1
		c-0.8,0.6-1.7,1.1-2.5,1.7c-0.4,0.3-0.8,0.7-1.2,1c-0.4,0.4-0.2,0.7,0.3,1c0.2-0.4,0.3-0.8,0.5-1.3c0.2,0.3,0.3,0.6,0.4,0.8
		c0.2-0.3,0.4-0.6,0.7-0.9c0,1-0.6,1.7-1.3,2.5c0.2,0.4,0.5,0.9,0.7,1.4c0.9-0.3,0.8-1.2,1.4-1.6c0.6-0.5,0.9-1.2,1.3-1.8
		c0.4-0.6,0.9-1.1,1.5-1.6c0,0.9-0.8,1.4-1.2,2c-0.5,0.6-0.9,1.3-1.3,2c0.7,0.2,1-0.6,1.7-0.3c-0.4,0.2-0.6,0.5-1,0.7
		c1.3,0.1,1.3,0.1,1.9-0.9c0.4-0.8,0.4-0.8,1.4-0.7c0-0.5-0.4-0.7-0.8-1c0.6-0.5,0.6-0.5-0.1-1.4c0.5,0.2,0.8,0.3,1.2,0.5
		c-0.2-0.3-0.3-0.6-0.4-0.8c0.2-0.8,0.4-1.4,0.6-2.1c0.7,0.7,0.1,1.5,0.5,2.1c0.3-0.3,0.3-0.9,1-1.2c-0.3,0.9-0.6,1.7-0.7,2.5
		c-0.1,0.8,0,1.6,0,2.4c1.3-0.3,0.6-1.1,0.7-1.8c0.2,0.1,0.4,0.2,0.6,0.2c0.3-0.4,0.7-0.9,1.1-1.4c0.2,0.2,0.3,0.4,0.4,0.6
		c-0.8,0.7-0.8,1.7-0.8,2.5c0.1,0,0.2,0,0.3,0.1c0.2-0.5,0.4-1,0.7-1.7c0.3,0.3,0.5,0.5,0.7,0.7c0.5-0.2,0.5-0.9,0-2.1
		c0.2-0.1,0.4-0.1,0.6-0.2c0.1,0.3,0.1,0.6,0.2,1c0,0.2,0.1,0.3,0.2,0.5c0.7-0.5,1.4-0.9,2.1-1.3c0.5-0.3,0.7-0.6,0.9-1.1
		c0.3-1.2,0.6-2.3,0.9-3.5c0.1-0.4,0.2-0.9,0.8-1.2c-0.5,1.8-1,3.4-1.5,5.3c0.6-0.5,1.1-0.8,1.5-1.1c0.8-0.7,1.8-1.2,2.9-1.5
		c0.4-0.1,0.8-0.1,1.2,0.1c-0.3,0.1-0.7,0.2-1,0.3c-1.1,0.2-1.9,0.7-2.7,1.4c-0.3,0.3-0.6,0.6-1,0.8c-1,0.5-1,1.3-1.4,2.2
		c1-0.3,1.1-1,1.4-1.6c0.6,0.5,0,0.9-0.1,1.3c0.5,0.2,1.3-0.4,1.6,0.5c-0.5,0.2-1.2-0.4-1.6,0.4c0.4,0.1,0.8,0.2,1.1,0.3
		c-1,0.4-2,0.1-2.8,0.7c-0.9,0.6-1.7,1.3-2.6,2.1c0.7,0.3,1.2,0.6,1.6,0.7c0.5,0,1-0.3,1.7-0.4c0.3-0.5,0.7-1,1.1-1.7
		c0.2,0.1,0.3,0.2,0.5,0.4c1.9-1.4,3.6-3.1,5.8-4.1c0.1,0.1,0.1,0.1,0.2,0.2c-0.8,0.5-1.5,1.1-2.3,1.6c-0.7,0.6-1.4,1.2-2.2,1.8
		c0.2,0.1,0.4,0.2,0.7,0.4c-0.6,0.2-1,0.4-1.5,0.5c0.2,0.1,0.3,0.2,0.5,0.3c-0.3,0.1-0.5,0.1-0.7,0.2c0.2,0.1,0.4,0.1,0.8,0.2
		c-0.4,0.3-0.7,0.5-1,0.6c-0.3,0.2-0.6,0.3-1,0.5c0.9,0.2,1.6,0.4,2.3-0.1c0.4,0.5,0.9,0.5,1.5,0.5c1.5-0.1,3,0,4.4-0.1
		c0.3,0,0.6,0,0.6,0.5c-2.2,0.1-4.4,0.2-6.6,0.2c0,0.1,0.1,0.2,0.1,0.5c-1.4-0.2-2.6-1.1-4.1-0.7c1.4,0.4,2.5,1.2,4,1.3
		c-0.3,0.4-0.7,0.4-1.2,0.2c-1-0.4-2.1-0.8-3.1-1.2c-0.5-0.2-0.9-0.2-1.4,0c-1.2,0.5-2.5,0.9-3.9,1.4c0.7,0.3,1.3,0.6,1.8,0.8
		c0,0,0,0.1,0,0.1c-0.2,0-0.5,0.1-0.7,0c-0.7-0.2-1.4-0.2-2.1-0.1c-0.5,0.1-0.7,0.2-0.8,0.8c0.3,0.2,0.6,0.4,0.9,0.6
		c-0.1,0.8-0.1,0.8,1.5,3.4c0.1-0.2,0.2-0.3,0.2-0.4c0.1-0.2,0.1-0.4,0.1-0.5c0-0.4,0.3-0.5,0.7-0.6c-0.1,0.6-0.2,1.2-0.4,1.7
		c-0.2,0.5,0,0.9,0.3,1.2c1.4,1.7,2.8,3.5,4.2,5.2c0.1,0.1,0.3,0.1,0.4,0.2c0.1-0.2,0.1-0.4,0.2-0.6c0.3,0,0.2,0.5,0.6,0.2
		c0.4,0.6,0.2,1.4,0.9,1.9c0.6,0.4,1.1,0.9,1.6,1.3c0-1.1-1.8-1.2-1.9-2.5c0.5,0.5,1,0.8,1.4,1.2c0.1,0,0.1-0.1,0.2-0.1
		c-0.1-0.4-0.2-0.8-0.4-1.4c0.3,0.1,0.5,0.1,0.6,0.2c0-1.3,0.3-2.6-0.5-4c0.8,0.5,0.9,0.7,1.2,2.9c0.5,0,0.8-0.3,1-0.8
		c0.5-1.5,1.1-3,1.7-4.5c0.2-0.5,0.4-1.1,1.1-1.4c-0.2,0.6-0.5,1.2-0.7,1.8c-0.2,0.6-0.4,1.2-0.6,1.8c-0.1,0.6-0.9,1.1-0.4,1.9
		c-0.5,0.4-0.9,1.1-0.9,1.8c0,0.1,0.3,0.2,0.4,0.4c0.2-0.2,0.4-0.4,0.4-0.6c0-0.4,0.3-0.7,0.6-1c0.4-0.5,0.4-1.2,0.6-1.8
		c0-0.1,0-0.3,0.1-0.5c0.3,0.2,0.6,0.3,0.9,0.5c-0.5,0.9-0.9,1.8-1.4,2.7c-0.5,0.9-0.5,1,0.4,1.6c0.6,0.4,1.1,0.8,1.8,1.2
		c0.2-0.7-0.8-0.8-0.8-1.3c0,0,0-0.1,0.1-0.1c0.1,0,0.2,0,0.5,0c-0.1-0.3-0.2-0.5-0.3-0.8c0.2,0,0.4,0,0.6-0.1
		c0.4-0.8,0.3-1.7,1.1-2.4c-0.1,0.6-0.2,1.2-0.4,1.7c-0.5,1.4-0.2,2.7,0.5,4c1.1,1.8,1.7,3.8,1.9,5.8c0.1,1.1,0.8,2.1,1.2,3.2
		c0.2,0.4,0.4,0.9,0.7,1.4c0.1-0.3,0.3-0.4,0.3-0.6c-0.1-0.4-0.3-0.8-0.4-1.3c-0.1-0.3-0.2-0.5-0.2-0.8c0.2,0.2,0.5,0.3,0.8,0.6
		c0-0.3,0.1-0.5,0.1-0.7c0.3,0.1,0.6,0.2,1.1,0.4c-0.4-1.1-0.5-2.1-1-2.9c-0.5-0.8-1.3-1.4-2.2-1.9c0.3,0.1,0.6,0.1,1.1,0.2
		c-0.3-1.3-1.4-2-1.7-3.2c1,0,0.7,1.1,1.5,1.4c-0.3-0.9-0.5-1.8-1.2-2.4c-0.2-0.2-0.8-0.2-1.2-0.3c0-0.6,0.5-0.3,0.8-0.3
		c0.2-1.1-1-1.6-1.3-2.6c0.6,0.1,0.7,0.6,1,0.9c0.3,0.3,0.5,0.7,0.9,1.2c0.6-1.2,0.1-2.2-0.3-3.4c0.7,0.1,0.5,0.9,1.3,0.7
		c0.3-0.1,0.8,0.5,1.3,0.7c1.9,0.7,3.2,1.9,4.1,3.5c0.1,0.2,0.3,0.4,0.4,0.5c0,0,0.1,0,0.3,0.1c0-0.3,0-0.5,0-0.7
		c-0.2-1.2-0.9-2.2-1.7-3.1c0.1-0.1,0.1-0.1,0.2-0.2c0.3,0.3,0.5,0.1,0.8,0c0.2,0.5,0.4,1,0.6,1.5C237.6,92.9,237.9,92.7,238.1,92.6
		c-0.1,0.5-0.3,1-0.4,1.6c0,0.1,0.1,0.2,0.1,0.3c0.3-0.3,0.5-0.5,0.7-0.8C238.4,93.3,238.3,93,238.1,92.6z M225.4,109.1
		c0.1,0.5,0.3,0.9,0.9,1.3C226.2,109.8,225.9,109.4,225.4,109.1c-0.3-0.3-0.5-0.6-1.2-0.6C224.7,108.9,224.8,109.4,225.4,109.1z
		 M202.4,85.1c-0.5,0.4-0.9,0.9-1.5,1.2c-0.9,0.5-1.3,1.2-1.2,2.2C200.8,87.5,202,86.6,202.4,85.1c0.3-0.3,0.6-0.6,0.9-0.9
		c-0.1-0.1-0.2-0.1-0.2-0.2C202.9,84.4,202.6,84.7,202.4,85.1z M218,104c0.8,0.3,1.6,0.7,2.4,1c0.6,0.2,0.7,0.2,1.1-0.6
		C220.3,104.3,219.1,104.2,218,104c0.1-0.3,0.3-0.5,0.4-0.8c0.7,0.6,1.6,0.7,2.6,0.6c-0.5-0.2-0.9-0.4-1.3-0.6
		c0-0.1,0.1-0.2,0.1-0.3c0.5,0.2,1,0.3,1.5,0.5c0,0,0.1-0.1,0.2-0.2c-0.3-0.2-0.5-0.3-0.8-0.5c0.2-0.1,0.4-0.2,0.6-0.4
		c-1.2-0.3-2.3-0.5-3.4-0.7c-0.7-0.1-1.3-0.1-1.8,0.5C216.7,103.6,216.8,103.7,218,104z M228.3,97.6c-0.1,0.5-0.1,1-0.2,1.5
		c-0.1,0.6,0.2,1,0.9,1.3C229,99.4,229,98.4,228.3,97.6c-0.2-1.1-0.7-2.1-1.6-2.8c-0.4-0.3-0.9-0.8-1.4-0.8c-0.7-0.1-0.6-0.9-1.2-1
		c0,0-0.1,0-0.2,0c-0.3,0.5-0.7,0.9-1,1.5c-0.3,0.5-0.3,0.9,0.2,1.3c1.1,0.8,2.2,1.6,3.4,2.5c-0.1-0.7-0.3-1.2-0.3-1.7
		c0-0.5-0.6-1,0.2-1.5c0.1,0.7,0.2,1.4,0.4,2.1c0.2,0.6,0,1.3,0.5,2C227.6,98.5,227.4,97.8,228.3,97.6z M239.2,91.6
		c0.1,0.1,0.1,0.1,0.2,0.2c-0.2,0.3-0.5,0.6-0.4,0.8c0.2,1,0.5,1.9,0.8,2.9c0.1,0,0.1,0,0.2,0c0-0.3,0.1-0.5,0.1-0.7
		c0.4-0.1,0.8-0.2,1.1-0.3c0-0.3,0-0.5,0-0.9c0.3,0.3,0.4,0.5,0.6,0.7c0.5-0.9,0.4-1.7,0.3-2.6c0.2,0.1,0.3,0.1,0.4,0.2
		c0,0,0.1,0,0.1,0.1c0,0,0,0,0.1-0.1c-0.1-0.4-0.3-0.9-0.5-1.4c-0.4,0.1-0.7,0.2-1.1,0.2c-0.3,0-0.6,0.4-1.1,0
		c0.8-0.3,1.4-0.5,2.1-0.7c-0.9-0.9-1.8-1.3-2.7-1.2c-0.1,0-0.2,0.2-0.5,0.5c1.1-0.5,1.1,0.3,1.7,0.6c-0.5,0.4-0.8,0.6-1.2,0.9
		C239.1,90.9,238.9,91.3,239.2,91.6z M203.8,80.7c0,0.4,0.2,0.6,0.7,0.6C204.3,81.1,204.1,80.9,203.8,80.7c0.2-0.3,0.5-0.3,0.7-0.1
		c0.2,0.2,0.4,0.4,0.6,0.6c0-1.3-0.6-2.1-1.8-2.7c0.8-0.4,0.5-1,0.3-1.6c0.2,0.1,0.3,0.1,0.4,0.1c0,0,0.1,0.1,0.1,0.1c0,0,0,0,0.1,0
		c-0.1-0.6-0.3-0.9-1-1c-0.5,0.3-0.9,0.8-1.1,1.4c-0.6,1.8-1.2,3.5-1.8,5.3c0,0,0.1,0.1,0.1,0.1c0.2-0.1,0.3-0.1,0.6-0.3
		c-0.5,0.7-1,1.2-1.2,1.8c-0.2,0.6,0,1.3,0,2c0.8-0.5,1.5-1.1,2.1-1.6c0.4-0.4,0.8-0.9,1.3-1.3c0.1-0.1,0.4,0,0.7,0
		c0.3-0.3,0.7-0.6,1.1-0.9c-0.7-0.7-1.3-1.4-2-2c-0.2-0.2-0.3-0.4,0.1-0.6C203.3,80.2,203.6,80.5,203.8,80.7z M195.4,72.4
		c0.1,0,0.2,0.1,0.3,0.1c-0.4,1.1-0.7,2.1-1.1,3.2c0.2,0.2,0.4,0.4,0.7,0.6c0.5-0.8,1-1.5,1.5-2.3c-0.3-0.2-0.6-0.5-0.9-0.7
		c0-0.1,0.1-0.1,0.1-0.2c0.4,0.1,0.7,0.2,1.2,0.4c-0.2-1-0.2-1.8-0.5-2.6c-0.2-0.8-0.5-1.6-0.8-2.4c-1-2.2-1.4-2.4-3.8-1.7
		c-0.1,0-0.1,0.1-0.3,0.2c0,1.8,0,3.6,0,5.4c0,0.7,0.5,1.1,1.2,1.3c-0.2-0.6-0.3-1.2-0.5-1.8c0.3,0.1,0.5,0.2,0.5,0.3
		c0.2,0.6,0.4,1.3,0.5,1.9c0.1,0.4,0,0.9,0.7,1.1C194.6,74.3,195,73.3,195.4,72.4z M197.7,83.6c0.1,0,0.2,0,0.3,0
		c0-0.3,0.1-0.6,0-0.8c-0.3-0.7-0.6-1.3-0.9-1.9c-0.4-1-1.3-1.5-2.6-1.7c-0.5,0.6-1,1.3-1.5,2c-0.4,0.5-0.5,1-0.3,1.5
		c0.2,0.6,0.3,1.2,0.5,1.8c0.3-0.2,0.7-0.5,1-0.7c0.1-0.6,0-1.2,0.3-1.8c0.5,0.5,0.3,0.9,0.3,1.3c-0.1,1.3,0.1,2.5,0.7,3.6
		c0.2,0.3,0.4,0.7,0.7,0.8c0.5,0.3,0.6,0.6,0.6,1.2c0.8-1.2,1-1.9,0.9-3.1c-0.1-0.8-0.4-1.5-1.3-1.8c-0.3-0.1-0.5-0.3-0.7-0.4
		c0-0.1,0.1-0.1,0.1-0.2c0.5,0.2,1,0.3,1.5,0.5c0.1-0.5-0.4-1,0.1-1.4C197.4,82.9,197.6,83.3,197.7,83.6z M245.6,93.3
		c0.6-0.3,0.9-0.6,1.3-0.8c1.1-0.7,2.3-1.3,3.4-2c0.6-0.3,0.8-0.8,0.9-1.5c0.1-1.9-0.5-3.5-1.7-5.1C248.3,87.1,247,90.1,245.6,93.3z
		 M223.5,98.1c0.3,0.6,0.5,1,0.8,1.5c0.2,0.4,0.4,0.7,0.7,1c0.3,0.4,0.7,0.4,0.9-0.1c0.1-0.3,0.3-0.7,0.4-1c0.2,0.2,0.3,0.4,0.3,0.5
		c-0.1,0.5-0.3,1-0.4,1.6c-0.1,0.3-0.1,0.8,0,1c0.4,0.6,0.9,1.2,1.3,1.8c0.8-0.3,0.8,0.6,1.2,0.8c0.3-1.7-0.6-3.2-0.7-4.8
		c0-0.1-0.1-0.1-0.1-0.2c-0.5-0.5-0.9-1-1.4-1.5c-0.2-0.2-0.4-0.3-0.6-0.3C225.1,98.5,224.4,98.3,223.5,98.1z M198.4,93.2
		c2.8-2.1,5-4.6,7-7.3c0.3-0.3,0.3-0.9,0.4-1.3c-0.1,0-0.2-0.1-0.2-0.1c-1.5,1.4-2.9,2.8-4.4,4.2c-0.6,0.6-1.1,1.1-1.5,1.8
		C199.1,91.4,198.8,92.3,198.4,93.2z M232.6,95.1c-0.2,0.6-0.2,1-0.4,1.4c-0.3,0.6-0.1,1.1,0.2,1.6c0.5,0.8,0.9,1.5,1.4,2.3
		c0.4,0.6,0.9,1.2,1.4,1.9c0.2-0.6,0.3-0.9,0.4-1.4c-0.5-0.3-1-0.6-1.5-0.9c-0.1,0-0.1-0.2-0.2-0.4c0.4,0.1,0.7,0.2,1,0.2
		c0.1-0.2,0.2-0.3,0.3-0.5c0.3,0.5,0.6,1,0.8,1.4c0.1,0,0.2-0.1,0.3-0.1c-0.3-0.7-0.5-1.4-0.8-2.1c-0.3-0.8-0.8-1.4-1.8-1.6
		c-0.1,0-0.1-0.1-0.2-0.2c0.1-0.1,0.3-0.2,0.5-0.4C233.5,96,233.1,95.6,232.6,95.1z M195.9,77.6c0.8,1.3,1.6,2.4,2.4,3.7
		c0.3-1.6,0.5-3.1,0.8-4.6c0.1,0,0.3,0,0.7-0.1c-0.5-0.6-0.9-1-1.4-1.6C197.2,75.6,196.7,76.7,195.9,77.6z M235.9,95.6
		c-0.3-0.4-0.6-0.7-0.9-1c0,0,0.1-0.1,0.1-0.1c0.2,0.1,0.3,0.1,0.5,0.2c-0.8-1.5-2.6-2.7-4.7-3.3c0,0.5,0,1.1,0,1.7
		c0,0.3,0.1,0.6,0.3,0.8c0.5,0.4,1.2,0.6,1.9,0.2c0.2,0.8,0.5,1,1.4,0.7C234.8,95,235.1,95.6,235.9,95.6z M201.2,72.8
		c-0.9,0.7-1.6,1.3-2.4,2c0.8,0.9,1.6,1.7,2.5,2.6C201.8,75.8,201.9,74.4,201.2,72.8z M236.7,110.7c-0.8,0-1.4,0.1-2.1,0.1
		c-0.7,1.4-0.1,2.6,0.5,3.9C235.7,113.4,236.3,112.1,236.7,110.7z M190.7,56.3c0.1-0.5,0.2-0.9,0.3-1.4c0.1-0.6-0.2-1.3-0.8-1.4
		c-0.8-0.1-1.6-0.2-2.4,0.2c0.2,0.4,0.5,0.8,0.7,1.1c0.1-0.1,0.2-0.2,0.2-0.2C189.4,55.1,190.1,55.7,190.7,56.3z M192.9,42.2
		c-0.6,1.1-0.6,2.1-0.8,3.2c-0.2,1.1,0,2.1,0.6,3.1c0.1-1,0.2-2.1,0.4-3.1C193.4,44.4,193,43.4,192.9,42.2z M237,101.3
		c0.6-1.1,1.1-2.2,0.3-3.2c-0.4-0.5-0.8-1.1-1.8-0.8C236,98.7,236.5,99.9,237,101.3z M223.9,106.9c0.2-0.4,0.3-0.7,0.5-1
		c-0.3-0.2-0.6-0.4-0.9-0.7c0-0.1,0.1-0.1,0.1-0.2c0.3,0.1,0.6,0.2,1.1,0.4c-0.2-0.6-0.4-0.9-0.5-1.3c-0.8,0.3-1.4,0.5-2.1,0.8
		c0,0.3,0,0.7,0,1.1C222.7,106.2,223.3,106.5,223.9,106.9z M230.6,107.7c0-0.4,0-0.6,0-0.7c-0.1-0.6-0.2-1.2-0.5-1.8
		c-0.3-0.5-0.2-1.1-0.3-1.6c-0.2-0.7-0.4-1.6-1.2-2.2c0.5,1.6,0.8,3.3,0.5,4.8C229.7,106.7,230.1,107.1,230.6,107.7z M217.7,71.1
		c-2.2,0.8-2.7,1.6-2.1,3.3C216.6,73.5,217.6,72.6,217.7,71.1z M204.1,75.3c0.2,0.6,0.6,1.1,1.4,1.4c0.1-0.4,0.1-0.7,0.2-1.1
		c0.1,0,0.1,0,0.2,0c0.1,0.2,0.1,0.4,0.2,0.6c0.3-0.6,0.6-1.1,0.9-1.6C205.9,74.5,204.9,74.2,204.1,75.3z M220.3,98.1
		c1.2,1.2,1.8,2.9,3.4,3.9C223.5,99.8,221.9,98.9,220.3,98.1z M206.5,76.7c0.8,0.5,0.8,1.6,1.8,1.9c-0.2-1.3-0.4-2.6-0.6-4.1
		C207.3,75.3,206.9,76,206.5,76.7z M192.2,79.4c0.1-0.6,0.3-1.3,0.4-2c0.1-0.5,0-0.9,0-1.4c0-0.2-0.2-0.5-0.1-0.6
		c0.5-0.7-0.1-0.9-0.6-1.4C191.9,76,191.8,77.8,192.2,79.4z M249.1,83.1c-1.9,1.3-2,3.2-2.2,5.1C247.7,86.5,248.4,84.8,249.1,83.1z
		 M195,89c0.7-1.4-0.6-2.3-0.7-3.6C193.5,87.1,193.7,87.7,195,89z M210,74.7c0-1.4,0-1.4-1-1.7c-0.2,0.2-0.5,0.5-0.7,0.7
		c0.3,0.5,0.5,0.9,0.8,1.3C209.4,75,209.7,74.9,210,74.7z M238.2,107.3c-1.1,1-1.9,1.9-2.9,2.8c0.7,0,1.2,0,1.7,0
		C237.4,109.2,237.7,108.4,238.2,107.3z M212.5,75.8c0,0.1,0.1,0.1,0.1,0.2c0.4-0.2,0.9-0.4,1.3-0.5c0.5-0.1,0-0.9,0.7-0.8
		c0.1-0.4,0.1-0.9,0.2-1.3c-0.1,0-0.1,0-0.2-0.1C213.9,74.1,213.2,75,212.5,75.8z M225.5,98c-1-0.8-1.9-1.4-2.8-2.1
		C222.5,97.4,223.3,97.7,225.5,98z M180.3,80.6c1.2,0.9,2.5,1.5,4.2,0.8C183,81.1,181.7,80.9,180.3,80.6z M233.6,105.2
		c-0.2,0.5-0.5,0.9-0.6,1.3c-0.1,0.4,0,0.9,0,1.4c0.9-1,0.9-1,1.2-2.5C234,105.4,233.8,105.3,233.6,105.2z M200,80.7
		c-1.3,0.5-1.5,1.1-0.8,2.6C199.5,82.3,199.8,81.5,200,80.7z M249.9,79.8c-0.6,0.9-1.4,1.8-1.7,3.2C249.3,81.9,249.9,81,249.9,79.8z
		 M194.1,76.7c-0.7,0.1-0.9,0.5-0.9,1.1c0.3,0.2,0.7,0.4,1,0.6C194.8,77.5,194.8,77.5,194.1,76.7z M225.2,104.4
		c0.5,1.6,0.5,1.6,1.3,2C226.9,105.2,225.9,104.9,225.2,104.4z M200.3,80c0.8-1.8,0.8-1.9,0.1-2.4C199.6,78.4,200.5,79.2,200.3,80z
		 M192.1,55.1C192,55.1,192,55.1,192.1,55.1c-0.2,0.2-0.3,0.4-0.4,0.7c-0.1,0.5-0.3,0.9-0.4,1.4c0,0.5,0,0.9,0.1,1.4
		c0.1,0,0.1,0,0.2,0C191.8,57.5,191.9,56.3,192.1,55.1z M206.3,78.9c0,0.3,0,0.7,0.1,1.1c0.4,0.1,0.7,0.1,0.9,0.1
		c0.1,0.2,0.1,0.3,0.2,0.7C207.8,79.6,206.9,79.4,206.3,78.9z M241.2,104.8c0.7-0.6,1.4-1.1,2.1-1.6
		C241.4,103.7,241.4,103.7,241.2,104.8z M195.8,94.5c0.6-1.2,0.5-1.5-0.5-2.1C195.4,93.1,195.6,93.7,195.8,94.5z M209.9,77.5
		c-1.2,0.5-1.3,0.9-0.5,1.5C209.7,78.5,210.1,78.1,209.9,77.5z M220.3,97.5c0.7,0.4,1.4,0.9,2.2,1.3
		C221.8,97.4,221.8,97.4,220.3,97.5z M231.1,94.4c-0.2,0.6,0,1,0.4,1.5c0.2-0.4,0.4-0.7,0.7-1.1C231.7,94.7,231.4,94.5,231.1,94.4z
		 M240.4,97.2c0.5-0.9,0.8-1.6,1.2-2.3c-1.1,0.1-0.7,1.2-1.4,1.6C240.2,96.5,240.3,96.8,240.4,97.2z M231.5,112.4
		c0.3,1,0.3,1,1.2,1.6C232.5,113,232.6,112.8,231.5,112.4z M211.7,77.8c0.8-0.6,1.4-1.1,2.1-1.6C212.9,76.5,212,76.6,211.7,77.8z
		 M236.6,107.8c0.7-0.6,0.7-0.7,0.2-1.8C236.3,106.6,236.5,107.1,236.6,107.8z M241,86.4c0.4-1,0.3-1-0.9-1.4
		C240.4,85.5,240.7,85.9,241,86.4z M223.4,103.9c0.1-0.2,0.1-0.3,0.1-0.3c-0.6-0.7-0.8-0.7-1.7-0.4
		C222.1,104.2,223.2,103,223.4,103.9z M239.3,96.7c-0.2-0.2-0.4-0.5-0.6-0.8c-0.6,0.7-0.6,0.7-0.4,1.3
		C238.6,97.1,238.9,97,239.3,96.7z M198.3,85.8c0.4-0.9,0.4-0.9,0.1-1.9C197.5,84.5,198.1,85,198.3,85.8z M202.6,73.7
		c-0.2,1.3-0.2,1.3,0.6,1.6C203.4,74.7,202.9,74.3,202.6,73.7z M228,107.6c-0.3-0.5-0.7-1-1-1.5C226.9,106.9,227.3,107.4,228,107.6z
		 M244.6,90c-0.4,0.6-0.3,1.1,0,1.7C245,91.1,245.3,90.6,244.6,90z M189.7,70c0.3,0.5,0.5,0.9,0.9,1.5C190.6,70,190.6,70,189.7,70z
		 M207.6,82.9c-1.3,0.8-1.3,0.8-1.2,1.7C206.8,84,207.2,83.4,207.6,82.9z M226.3,108.6c0.3,0.2,0.6,0.5,0.9,0.7
		c0.3,0.2,0.6,0.4,0.8,0.7C227.9,109.1,227.2,108.8,226.3,108.6z M207.6,78.9c-0.4-0.5-0.8-1.1-1.2-1.7
		C206.1,78.3,207,78.5,207.6,78.9z M177.4,66.7c0.5,0.5,0.5,1.3,1.4,1.4C178.4,67.6,177.9,67.1,177.4,66.7z M193.7,29.9
		c-0.2-1-0.2-1-1.4-1.5C192.8,28.9,193.2,29.3,193.7,29.9z M208.8,76.8c-0.1-0.6,0.2-1.2-0.4-1.7C208.3,75.7,208.1,76.3,208.8,76.8z
		 M239.7,101.7c0.3-0.4,1.1-0.5,1-1.4C240.2,100.7,239.7,101,239.7,101.7z M196,76c0.6-0.4,1.2-0.9,1.1-1.6
		C196.7,74.9,196.3,75.5,196,76z M205.6,79.1c0.1,0,0.2-0.1,0.3-0.1c-0.7-0.5,0.3-1.3-0.8-1.8C205.2,77.9,205.4,78.5,205.6,79.1z
		 M224.5,107.2c0.5,0.5,0.9,0.6,1.5,0.5C225.5,107.2,225.5,107.2,224.5,107.2z M188,65.8c0.3,0.9,0.4,1,1.3,1.4
		C188.8,66.7,188.4,66.3,188,65.8z M229.3,111.1c0.2,0.4,0.6,0.7,1,1C230.1,111,230.1,111,229.3,111.1z M210.9,76.9
		c0.5-0.5,0.4-1,0.3-1.5C210.5,75.7,210.8,76.3,210.9,76.9z M234.7,103.5c-0.3-0.5-0.5-0.9-0.8-1.3
		C233.9,103.2,233.9,103.3,234.7,103.5z M232,109.2c0.1,0,0.1,0,0.2-0.1c-0.2-0.6-0.5-1.2-0.7-1.8c-0.1,0-0.2,0.1-0.3,0.1
		C231.4,108,231.7,108.6,232,109.2z M185.1,62.5c0.2,1.4,0.2,1.4,0.6,1.8c-0.1-0.3-0.1-0.6-0.2-0.9
		C185.4,63.1,185.3,62.8,185.1,62.5z M194.2,84.4c-1,0.6-1,0.6-0.6,1.2C193.8,85.2,194,84.8,194.2,84.4z M213.4,78.3
		c-1.2-0.1-1.2-0.1-1.7,0.7C212.2,78.8,212.7,78.6,213.4,78.3z M209.2,77.2c0.8-0.6,0.8-0.6,0.7-1.5
		C209.7,76.2,209.5,76.6,209.2,77.2z M235.5,102.7c0.8-0.5,0.8-0.5,0.3-1.2C235.8,101.9,235.7,102.2,235.5,102.7z M212.4,74.2
		c-0.8,0.3-0.6,0.8-0.4,1.3C212.2,75,212.3,74.6,212.4,74.2z M223.1,92.4c-0.4,0.4-0.2,0.7-0.2,1.3
		C223.2,93.2,223.7,92.9,223.1,92.4z M233.3,104c-0.9,0.3-0.9,0.3-0.4,0.9C233,104.5,233.1,104.3,233.3,104z M243.8,87.7
		c0.1-0.6-0.2-0.9-0.6-1.2C243.2,87,243.2,87.4,243.8,87.7z M237.9,101.4c-0.8,0.9-0.8,0.9-0.3,1.4
		C237.7,102.4,237.8,102,237.9,101.4z M237.9,95.4c0.1,0.1,0.2,0.1,0.3,0.2c0.2-0.4,0.4-0.8,0.6-1.2c-0.1,0-0.2-0.1-0.3-0.1
		C238.4,94.6,238.2,95,237.9,95.4z M239.6,103.5c0.5-0.8,0.5-0.8,0.5-1.3C239.5,102.5,239.6,103,239.6,103.5z M199.3,80.3
		c1-0.3,0.5-0.8,0.3-1.3C199.5,79.5,199.4,79.9,199.3,80.3z M186.6,66.8c0.3,0.4,0.5,0.6,0.8,1C187.5,67.2,187.5,66.9,186.6,66.8z
		 M237.6,105.5c-0.1,0.7-0.1,0.7,0.3,1.1C238,106.2,237.9,105.9,237.6,105.5z M179.8,66.9c0.2,0.9,0.2,0.8,0.8,1
		C180.3,67.6,180.1,67.2,179.8,66.9z M234.3,95.8c0.3,0.5,0.4,0.8,0.9,0.8C235.2,96.1,234.8,96.1,234.3,95.8z M194.7,43.8
		c0,0.1,0.1,0.1,0.1,0.1c0,0,0.1,0,0.1,0c0.3-0.3,0.4-0.7,0.2-1.2C194.9,43.1,194.8,43.4,194.7,43.8z M213.6,72.8
		c-0.1,0.4-0.2,0.7-0.3,1C213.6,73.6,214,73.3,213.6,72.8z M195.3,78.3c-0.1,0.2-0.2,0.3-0.3,0.5c0.3,0.1,0.6,0.1,1,0.2
		C195.7,78.7,195.5,78.5,195.3,78.3z M222.4,92.8c-0.1,0-0.1,0-0.2,0c0,0.4-0.1,0.8-0.1,1.2c0,0,0.1,0,0.1,0
		C222.3,93.5,222.3,93.2,222.4,92.8z M199.7,77.6c-0.3,0.3-0.4,0.6-0.1,1.2C199.6,78.2,199.7,77.9,199.7,77.6z M227.3,111.2
		c0.4,0.2,0.6,0.4,1,0.6C228.1,111.3,227.9,111.1,227.3,111.2z M231,108.6c-0.1,0-0.1,0-0.2,0.1c0,0.2,0.1,0.3,0.2,0.5
		c0.1,0.1,0.2,0.2,0.3,0.3c0,0,0.1-0.1,0.1-0.1C231.2,109.1,231.1,108.8,231,108.6z M242.9,93.8c0.1,0,0.2,0,0.2-0.1
		c-0.1-0.2-0.2-0.5-0.2-0.7c-0.1,0-0.1,0-0.2,0.1C242.7,93.3,242.8,93.5,242.9,93.8z M198.6,86.9c-0.1,0-0.1,0-0.2,0
		c-0.1,0.3-0.1,0.6-0.2,0.9c0.1,0,0.1,0,0.2,0C198.4,87.5,198.5,87.2,198.6,86.9z M185,76.9C185,76.9,185,76.9,185,76.9
		c-0.1,0.4-0.1,0.7-0.1,1.1c0,0,0.1,0,0.1,0C185,77.7,185,77.3,185,76.9z M192.8,78.8c0.1,0.1,0.1,0.1,0.2,0.2
		c0.1-0.1,0.2-0.3,0.4-0.4c-0.1,0-0.2-0.1-0.2-0.1C193.1,78.6,192.9,78.7,192.8,78.8z M238.4,98.8c0.1,0,0.1,0,0.2,0
		c0-0.1,0.2-0.1,0.1-0.2c-0.1-0.1-0.2-0.3-0.3-0.4C238.5,98.4,238.4,98.6,238.4,98.8z M184.2,82c0,0,0,0.1,0,0.1
		c0.3,0.1,0.5,0.2,0.8,0.2c0-0.1,0-0.1,0.1-0.2C184.7,82.1,184.4,82,184.2,82z M196.7,90.5c-0.1,0-0.2,0-0.2,0c0,0.3,0,0.5,0,0.8
		c0,0,0.1,0,0.1,0C196.6,91,196.6,90.8,196.7,90.5z M198,89.6c-0.1,0-0.1,0-0.2,0c0,0.2-0.1,0.4-0.1,0.6c0,0,0.1,0,0.1,0
		C197.8,90,197.9,89.8,198,89.6z M213.7,77.8c0,0.1,0,0.1,0,0.2c0.3,0,0.5,0,0.8-0.1c0,0,0-0.1,0-0.1
		C214.2,77.8,213.9,77.8,213.7,77.8z M243,91.5c0.1-0.2,0.5-0.5,0-0.8C243,91,243,91.2,243,91.5z M239.7,97.3c0,0.2,0,0.3,0,0.4
		c0,0.1,0.1,0.2,0.2,0.2c0,0,0.1-0.1,0.1-0.1C239.9,97.7,239.8,97.6,239.7,97.3z M188.7,67.9c-0.1,0.1-0.1,0.1-0.2,0.2
		c0.1,0.1,0.3,0.3,0.5,0.4C188.9,68.3,188.8,68.1,188.7,67.9z M187.5,69.1c0.1,0,0.1,0,0.2-0.1c0-0.1-0.1-0.2-0.1-0.4
		c-0.1,0-0.2,0-0.2,0.1C187.4,68.8,187.4,69,187.5,69.1z M191.5,55.1C191.5,55.1,191.5,55.1,191.5,55.1c0.1-0.2,0.1-0.4,0.1-0.5
		c0,0-0.1,0-0.1,0C191.5,54.7,191.5,54.9,191.5,55.1z M209.7,71.2c-0.1,0.2-0.1,0.3-0.1,0.3c0.1,0.1,0.2,0.1,0.3,0.2
		C209.9,71.6,209.8,71.5,209.7,71.2z M192.8,90c0.1,0,0.1-0.1,0.2-0.1c-0.1-0.2-0.2-0.3-0.3-0.5c0,0-0.1,0-0.1,0.1
		C192.6,89.7,192.7,89.8,192.8,90z"/>
	<path d="M235.6,91.8c-0.6-0.6-0.9-1.2-0.8-2c0.3,0.6,0.7,1.2,1,1.9C235.8,91.7,235.7,91.7,235.6,91.8z"/>
	<path d="M239.2,91.6c0.5-0.4,1.1-0.5,2-0.3c-0.7,0.2-1.3,0.3-1.8,0.4C239.4,91.7,239.3,91.7,239.2,91.6z"/>
</g>
<g>
	<path fill="none" stroke="#000000" stroke-width="0.5" stroke-miterlimit="10" d="M103.9,150.8l3-6.3c-0.3,0-0.6,0-0.8,0.1
		c-1.7,0.1-3.4,0.2-5.1,0.2l-2.1,4.4C100.8,149.3,102.5,149.9,103.9,150.8z"/>
	<path fill="none" stroke="#000000" stroke-width="0.5" stroke-miterlimit="10" d="M76.4,203.3c-1,0-2-0.2-2.9-0.4l-2.1,4.5
		c2,0,3.9-0.1,5.9-0.2l2.1-4.4C78.5,203.1,77.5,203.3,76.4,203.3z"/>
	<path fill="none" stroke="#000000" stroke-width="0.5" stroke-miterlimit="10" d="M131.2,155.1c0.9,0,1.6,0.3,2.1,0.7l4.9-10.5
		c-1.7,0-3.3-0.1-5-0.2l-4.9,10.4c0.3,0.1,0.6,0.1,0.9,0.2C129.7,155.3,130.4,155.1,131.2,155.1z"/>
	<path fill="none" stroke="#000000" stroke-width="0.5" stroke-miterlimit="10" d="M108.5,197.7l-3.7,7.8c1.7-0.1,3.5-0.2,5.2-0.3
		l3.6-7.6C112,198,110.2,197.9,108.5,197.7z"/>
	<path fill="none" stroke="#000000" stroke-width="0.5" stroke-miterlimit="10" d="M82.8,152.9c0.9-0.7,2-1.3,3.3-1.6
		c0.6-0.4,1.3-0.8,2.1-1.1l2.5-5.4c-1.7,0-3.4-0.1-5-0.1l-4.1,8.8C81.9,153.3,82.3,153,82.8,152.9z"/>
	<path fill="none" stroke="#000000" stroke-width="0.5" stroke-miterlimit="10" d="M61.4,196.1l-4.6,9.9c1.6,0.3,3.1,0.6,4.7,0.8
		l3.6-7.6C63.5,198.5,62.3,197.4,61.4,196.1z"/>
	<path fill="none" stroke="#000000" stroke-width="0.5" stroke-miterlimit="10" d="M93.5,148.6c1,0,1.9,0.1,2.8,0.4l2-4.2
		c-1.7,0-3.4,0-5.1,0l-1.9,4.1C92,148.7,92.7,148.6,93.5,148.6z"/>
	<path fill="none" stroke="#000000" stroke-width="0.5" stroke-miterlimit="10" d="M71.2,201.6c-1.6-0.2-2.9-0.8-3.9-1.6l-3.3,7
		c1.6,0.1,3.3,0.2,4.9,0.3l2.6-5.5C71.4,201.8,71.3,201.7,71.2,201.6z"/>
	<path fill="none" stroke="#000000" stroke-width="0.5" stroke-miterlimit="10" d="M125.7,144.7l-5.6,11.8c0.2,0,0.4-0.1,0.7-0.1
		c0.3,0,0.6,0.1,0.9,0.1c0.3-0.2,0.6-0.4,0.9-0.5c0.5-0.9,1.5-1.6,2.9-1.6c0.2,0,0.4,0,0.6,0.1l4.5-9.6
		C129,144.9,127.4,144.8,125.7,144.7z"/>
	<path fill="none" stroke="#000000" stroke-width="0.5" stroke-miterlimit="10" d="M104.7,199c-0.3-0.4-0.5-0.8-0.7-1.1
		c-0.2-0.1-0.4-0.3-0.6-0.5c0,0-0.1-0.1-0.1-0.1c-0.8-0.2-1.3-0.6-1.7-1.2l-4.7,9.9c1.7-0.1,3.5-0.2,5.2-0.3l2.9-6.2
		C105,199.3,104.8,199.2,104.7,199z"/>
	<path fill="none" stroke="#000000" stroke-width="0.5" stroke-miterlimit="10" d="M117.2,144.4l-5.2,11.1c0.6,0.2,1,0.6,1.3,1
		c0.3,0.1,0.5,0.3,0.7,0.5c0.3,0,0.6,0,1,0.1c0,0,0.1,0,0.1,0c0.4-0.2,0.9-0.3,1.5-0.3c0.3,0,0.6,0,0.8,0.1l5.8-12.3
		C121.2,144.5,119.2,144.4,117.2,144.4z"/>
	<path fill="none" stroke="#000000" stroke-width="0.5" stroke-miterlimit="10" d="M98.4,194.6c-0.4,0-0.9,0-1.3-0.1
		c-1.1,0.6-2.5,1-4.1,1.1l-5.1,10.9c2.1-0.1,4.2-0.3,6.4-0.4l5.5-11.6C99.3,194.6,98.9,194.6,98.4,194.6z"/>
	<path fill="none" stroke="#000000" stroke-width="0.5" stroke-miterlimit="10" d="M85.8,200.5c-0.9,0.7-2.1,1.1-3.4,1.3l-2.4,5.2
		c1.8-0.1,3.5-0.2,5.2-0.3l3.9-8.4C88.3,199.3,87.2,200.1,85.8,200.5z"/>
	<path fill="none" stroke="#000000" stroke-width="0.5" stroke-miterlimit="10" d="M109.7,154.7l4.9-10.4c-1.7,0-3.4,0-5.1,0.1
		l-3.5,7.5C107.6,152.5,108.8,153.5,109.7,154.7z"/>
	<path fill="none" stroke="#000000" stroke-width="0.5" stroke-miterlimit="10" d="M75.3,144.8c-1.8,0.1-3.5,0.2-5.3,0.4L44,200.7
		c1.3,0.9,2.6,1.6,4,2.3L75.3,144.8z"/>
	<path fill="none" stroke="#000000" stroke-width="0.5" stroke-miterlimit="10" d="M58.7,147.6c-2.6,0.8-5,1.9-7.4,3.3L33.4,189
		c0.9,1.9,2,3.6,3.4,5.2L58.7,147.6z"/>
	<path fill="none" stroke="#000000" stroke-width="0.5" stroke-miterlimit="10" d="M69.2,165.1c0.7-1.4,1.8-2.6,3.3-3.4
		c0.8-1,1.7-1.8,2.7-2.5c0.5-0.9,1.2-1.8,2.1-2.5l5.7-12.1c-1.7,0-3.4,0-5.1,0.1l-10.8,22.9c0,0,0.1-0.1,0.1-0.1
		C67.8,166.6,68.4,165.8,69.2,165.1z"/>
	<path fill="none" stroke="#000000" stroke-width="0.5" stroke-miterlimit="10" d="M60.2,193.2c-1.1-1.7-1.6-3.8-1.5-5.8
		c-0.1-0.4-0.2-0.8-0.3-1.2l-8.4,17.8c0.5,0.2,1.1,0.4,1.6,0.6c0.9,0.3,1.8,0.6,2.8,0.8L60.2,193.2
		C60.2,193.2,60.2,193.2,60.2,193.2z"/>
	<path fill="none" stroke="#000000" stroke-width="0.5" stroke-miterlimit="10" d="M252.8,160c0-0.6,0-1.2,0-1.7l-20.5,43.7
		c1.3-0.5,2.5-1.1,3.7-1.8c1.2-0.7,2.3-1.5,3.4-2.4l12.8-27.2C252.5,167,252.7,163.5,252.8,160z"/>
	<path fill="none" stroke="#000000" stroke-width="0.5" stroke-miterlimit="10" d="M187,145.9l-27.3,58c1.7,0,3.4,0,5.1,0l27.6-58.7
		C190.6,145.5,188.8,145.7,187,145.9z"/>
	<path fill="none" stroke="#000000" stroke-width="0.5" stroke-miterlimit="10" d="M44.8,155.8c-2.4,2.3-4.9,4.8-7,7.6l-6.5,13.8
		c-0.1,0.5-0.1,1.1-0.1,1.6c-0.1,2.5,0.3,4.9,1,7.3l15.3-32.5C46.6,154.2,45.7,155,44.8,155.8z"/>
	<path fill="none" stroke="#000000" stroke-width="0.5" stroke-miterlimit="10" d="M61.7,146.7l-23.2,49.4c1.1,1.1,2.3,2.2,3.6,3.2
		l25.3-53.7C65.4,145.9,63.5,146.2,61.7,146.7z"/>
	<path fill="none" stroke="#000000" stroke-width="0.5" stroke-miterlimit="10" d="M252.7,152.9c0-1.7-0.1-3.4-0.2-5.1
		c-0.1-1.2-0.3-2.6-0.6-4.1l-28.5,60.5c1.9-0.3,3.8-0.7,5.6-1.2L252.7,152.9z"/>
	<path fill="none" stroke="#000000" stroke-width="0.5" stroke-miterlimit="10" d="M240.2,129.1c-1.7,0-3.4,0-5.1,0.1l-35.4,75.3
		c1.7,0.1,3.3,0.1,5,0.1L240.2,129.1z"/>
	<path fill="none" stroke="#000000" stroke-width="0.5" stroke-miterlimit="10" d="M214.4,132.7c-3.1,2.2-5.5,5.2-8.6,7.5l-30,63.8
		c1.7,0,3.4,0.1,5,0.1L214.4,132.7z"/>
	<path fill="none" stroke="#000000" stroke-width="0.5" stroke-miterlimit="10" d="M224.7,129.3c-1.6,0.1-3.1,0.3-4.7,0.7
		c-0.8,0.2-1.5,0.4-2.1,0.7L183.4,204c2,0,4.1,0.1,6.1,0.1L224.7,129.3z"/>
	<path fill="none" stroke="#000000" stroke-width="0.5" stroke-miterlimit="10" d="M232.5,129.1c-0.8,0-1.5,0-2.3,0
		c-1,0-1.9,0-2.9,0l-35.3,74.9c1.7,0,3.3,0.1,5,0.1L232.5,129.1z"/>
	<path fill="none" stroke="#000000" stroke-width="0.5" stroke-miterlimit="10" d="M250.3,179.8l-5.7,12c2-2.9,3.7-6.1,4.8-9.4
		C249.8,181.5,250,180.7,250.3,179.8z"/>
	<path fill="none" stroke="#000000" stroke-width="0.5" stroke-miterlimit="10" d="M247.9,129c-1.7,0-3.4,0-5.1,0.1l-35.6,75.6
		c1.7,0.1,3.3,0.1,5,0.1L247.9,129z"/>
	<path fill="none" stroke="#000000" stroke-width="0.5" stroke-miterlimit="10" d="M138.7,160.3c0,0,0.1,0,0.1,0l7-14.9
		c-1.2,0-2.4,0-3.6,0c-0.5,0-1,0-1.4,0l-5.7,12.2c0.1,0,0.2,0,0.3,0C137.3,157.5,138.4,158.8,138.7,160.3z"/>
	<path fill="none" stroke="#000000" stroke-width="0.5" stroke-miterlimit="10" d="M119.2,199.6c-0.4,0-0.7-0.1-1-0.2
		c-0.3,0.5-0.7,0.9-1.2,1.3c-0.7,0.5-1.6,0.1-2-0.5l-2.3,4.9c1.7-0.1,3.5-0.2,5.2-0.2l1.8-3.8C119.3,200.7,119.1,200.1,119.2,199.6z
		"/>
	<path fill="none" stroke="#000000" stroke-width="0.5" stroke-miterlimit="10" d="M251.1,129.2c-0.2-0.1-0.4-0.1-0.7-0.1
		l-35.6,75.6c2,0,4-0.1,6-0.3l30.7-65.2c0-0.8,0-1.6,0.2-2.3c0.1-0.2,0.1-0.4,0.2-0.6C251.3,134,250,131.4,251.1,129.2z"/>
	<path fill="none" stroke="#000000" stroke-width="0.5" stroke-miterlimit="10" d="M144.7,171.4c0.5-0.3,1.1-0.6,1.7-0.8
		c0.3-0.1,0.5-0.1,0.8,0c0.7-0.7,1.4-1.4,1.8-2.4c0.5-1,1.6-0.9,2.3-0.3l10.3-21.9c-1.7-0.1-3.3-0.2-5-0.3l-12,25.5
		C144.6,171.4,144.7,171.4,144.7,171.4z"/>
	<path fill="none" stroke="#000000" stroke-width="0.5" stroke-miterlimit="10" d="M146.5,174.7c-0.3,0.1-0.7,0.2-1,0.1
		c-0.7,0.8-1.8,1.4-2.8,1.8c-0.1,0.3-0.2,0.7-0.4,1.1c-0.2,0.4-0.4,0.6-0.7,0.7c0.1,0.6,0.1,1.2,0.1,1.9c0,0.4-0.2,0.7-0.4,0.9
		c0.4,0.9,1.1,1.6,1.9,2.2c0.3-0.3,0.8-0.6,1.3-0.8l4.4-9.3C148.1,173.8,147.3,174.3,146.5,174.7z"/>
	<path fill="none" stroke="#000000" stroke-width="0.5" stroke-miterlimit="10" d="M138.7,192.6c-0.2-0.8-0.2-1.5,0.1-2.3
		c0.1-0.1,0.1-0.3,0.1-0.4c-0.1,0.2-0.3,0.4-0.6,0.6c-1.3,1.1-2.4,2.7-4.1,2.8l-5.2,11.1c1.7-0.1,3.4-0.1,5.2-0.2l5-10.7
		C139,193.4,138.8,193,138.7,192.6z"/>
	<path fill="none" stroke="#000000" stroke-width="0.5" stroke-miterlimit="10" d="M148.4,145.4L138,167.5c0,0.1,0,0.2,0.1,0.3
		c0.2,0,0.6,0,0.9-0.2c1.6-0.7,2.9-1.9,4.2-2.9c0,0,0,0,0,0c0,0,0,0,0,0c0.1-0.1,0.2-0.2,0.3-0.2c0.1-0.1,0.1-0.1,0.2-0.1
		c0.1-0.4,0.1-0.8,0.1-1.1c0-1.5,1.7-1.8,2.5-1.1l7.7-16.4C152.2,145.6,150.3,145.5,148.4,145.4z"/>
	<path fill="none" stroke="#000000" stroke-width="0.5" stroke-miterlimit="10" d="M129,198.9c-0.3,0.2-0.5,0.5-0.8,0.7
		c-0.1,0.1-0.1,0.1-0.1,0.1c-0.2,0.4-0.3,0.8-0.5,1.2c-0.6,0.9-1.9,1.2-2.8,0.5c-0.8-0.5-1.3-1.4-1.7-2.3l-2.6,5.6
		c2-0.1,4-0.2,5.9-0.2l2.8-5.9C129.1,198.7,129.1,198.8,129,198.9z"/>
	<path fill="none" stroke="#000000" stroke-width="0.5" stroke-miterlimit="10" d="M164.1,146.2l-16.8,35.7c0.9,0.4,1.2,1.8,0.4,2.5
		c0.1,0.3,0,0.7-0.2,1c-0.8,1.2-1.8,2-3,2.5c0.5,0.7,0.9,1.5,0.5,2.7c-0.5,1.3-1.1,3.2-2.5,3.7c-0.4,0.1-0.8,0.2-1.1,0.2l-4.6,9.7
		c1.6,0,3.3-0.1,4.9-0.1l27.1-57.7C167.3,146.4,165.7,146.3,164.1,146.2z"/>
	<path fill="none" stroke="#000000" stroke-width="0.5" stroke-miterlimit="10" d="M202.3,142.2c-2.2,1-4.6,1.8-7,2.4l-27.9,59.3
		c1.9,0,3.9,0,5.8,0L202.3,142.2z"/>
	<path fill="none" stroke="#000000" stroke-width="0.5" stroke-miterlimit="10" d="M184.3,146.2c-0.1,0-0.2,0-0.4,0
		c-1.6,0.1-3.2,0.2-4.9,0.3l-27,57.5c1.7,0,3.4,0,5.1-0.1L184.3,146.2z"/>
	<path fill="none" stroke="#000000" stroke-width="0.5" stroke-miterlimit="10" d="M176.5,146.5c-1.7,0-3.4,0-5.1,0L144.4,204
		c1.7,0,3.4-0.1,5.1-0.1L176.5,146.5z"/>
</g>
<g>
	<path d="M164.7,119.3c0.4-0.3,0.8-0.7,1.4-1.2c0,1.4,0,2.6,0,3.8c0.2,0,0.3,0.1,0.5,0.1c0.7-1.3,1.4-2.6,2.1-4
		c0.4,1.4-0.2,2.6-0.5,3.9c0.3-1.5,2.7-1.4,2.3-3.4c0.9-0.1,1.1,0.2,0.9,1.8c1.2-1.3,2.2-2.4,3.3-3.5c0.1,0,0.2,0,0.3,0.1
		c0,0.4-0.1,0.7-0.1,1.1c0,0,0.1,0,0.1-0.1c0.3,1.1,0.6,2.1,0.8,3.2c0.1,0,0.2,0,0.4,0c0.2-1.5,0.4-3,0.6-4.5c0.1,0,0.3,0,0.4,0
		c0.5,2.5,0.5,5.1,0.4,7.8c2.1-1.5,1.4-3.6,1.2-5.5c0.1,0,0.2,0,0.3,0c0.4,0.5,0.7,0.9,1.1,1.4c1.9-0.6,1.9-2.6,3-4
		c0.6,1.2-0.1,2.1-0.4,3c-0.1,0.5-0.5,0.9-0.7,1.4c-0.3,0.7-0.6,0.9-1.2,0.1c-0.2,0.4-0.4,0.8-0.6,1.2c0.4,0.2,0.7,0.4,1.1,0.5
		c-0.1,0.1-0.2,0.1-0.3,0.2c0.4,0.9,0.9,1.9,1.3,2.8c0.6,1.4,1.1,2.8,1.8,4.2c0.3,0.6,0.7,1,1.1,1.5c0.2,0.2,0.5,0.5,0.4,0.7
		c-0.1,0.3-0.4,0.5-0.7,0.6c-0.3,0.1-0.8,0.1-1.1,0c-1.8-0.5-3.5-0.7-5.3-0.2c-0.4,0.1-1.2,0.4-1.9-0.1c-0.6-0.4-1.7-0.2-2.5-0.3
		c-1-0.1-2.1-0.2-3.1-0.2c-0.4,0-0.7,0.2-1.1,0.2c-0.2,0-0.5,0.2-0.6,0.1c-1.3-0.5-2.6,0.1-3.9,0c-0.8-0.1-1.5-0.3-2.3-0.3
		c-0.9,0-1.8,0.2-2.6,0.3c-0.9,0.1-1.8,0.2-2.7,0.1c-0.5-0.1-0.8-0.8-1.1-1.2c-1.5,0.3-3.1,0.6-4.7,0.7c-1.4,0.1-2.8-0.2-4.1-0.2
		c-0.5,0-0.9,0.3-1.4,0.3c-0.7,0-1.4-0.1-2.1-0.2c-1.4-0.2-2.7-0.4-4,0.2c-0.5,0.2-1.2,0-1.8,0.1c-1,0-1.9,0-2.9,0
		c-0.6,0-1.1-0.2-1.7-0.2c-1.5,0-3,0.2-4.5,0.2c-1.2,0-2.4-0.1-3.6-0.2c-0.8-0.1-1-0.7-0.4-1.9c-0.8,0.5-1.4,0.8-1.9,1.2
		c-2.3,1.3-4.6,1.2-6.8-0.2c-0.5-0.3-0.8-0.6-1.3,0.1c-0.4,0.5-1.1,0.9-1.9,0.5c-0.4-0.2-1,0.1-1.5,0.1c-1.4-0.1-2.9-0.3-4.3-0.4
		c-0.2,0-0.6,0.1-0.7,0.2c-0.7,0.7-1.2,0.3-1.5,0c-0.7,0-1.3,0-1.8,0c-1.4,0-2.7-0.3-4.1,0.3c-0.4,0.2-1,0.1-1.5-0.1
		c-1.1-0.5-2.1-0.2-3.1,0c-0.1,0-0.4,0.1-0.4,0c-1-1.2-2.3-0.1-3.4-0.4c-1.2-0.3-2.6-0.1-3.8-0.1c-1.9,0-3.7,0-5.6,0
		c-0.2,0-0.4-0.1-0.6-0.2c-0.7-0.4-1.3-0.1-1.8,0.4c-0.4,0.4-0.8,0.7-1.1,1.1c-0.6,0.9-1.3,0.4-1.9,0c-0.9-0.6-1.8-1.1-2.8-1.7
		c-0.1-0.1-0.3-0.2-0.3-0.2c-0.9,1-2,0.2-3,0.2c-1.6,0.1-3.3-0.3-4.9-0.1c-1.2,0.1-2.2,0.2-3.3-0.3c-0.2-0.1-0.6,0.2-0.8,0.2
		c-0.4,0.1-0.8,0.1-1.2,0.1c-0.4,0-0.9-0.1-1.3-0.2c-1-0.1-2-0.2-2.9-0.1c-1.8,0.1-3.6-0.3-5.4-0.1c-0.3,0-0.6,0.4-0.7,0.7
		c-0.1,0.6,0,1.3,0,1.9c0,1-0.9,1.8-2.1,1.9c-3.4,0.2-6.8,0.4-10.2,0.4c-2.2,0-4.5,0-6.7-0.5c-1.7-0.4-3.3-1.4-4.9-2.2
		c-0.8-0.5-2.2-0.4-2.1-2c-0.9,0.1-1.6,0.3-2.4,0.2c-0.6,0-1.2-0.4-1.7-0.4c-1.7-0.1-3.4,0-5.1,0c-0.7,0-1.1-0.2-1.2-0.9
		c-0.1-1.1-0.2-2.3-0.4-3.7c1.1,0,2.1,0,3.4,0c0.3,0.4,0.8,0.9,1.2,1.4c0.2-0.6-0.3-1.7,1.3-1c1.1,0.5,2.6,0,3.9,0
		c0.6,0,1-1.2,1.8,0.4c0.8-2.4,1.3-4.3,2-6.1c1.1-2.7,2.3-5.4,3.4-8.1c0.7-1.9,2.2-3.3,3.1-5.1c0.6-1.2,0.6-2.7,0.7-4.1
		c0-0.2-0.6-0.6-0.9-0.6c-2.2-0.1-2.1-0.1-1.6-2.3c0.9-3.7,1.6-7.5,2.3-11.3c0.1-0.4-0.2-1-0.5-1.4c-1.7-2.5-3.1-5.1-2.8-8.3
		c0-0.3,0.3-0.6,0.4-0.9c0.1,0,0.2,0.1,0.3,0.1c0,0.8,0.1,1.6,0.1,2.3c0.2,2.2,1.4,4.1,2.4,6c0.2,0.4,0.6,0.8,0.9,1.1
		c2.4,2.7,4.9,5.3,7.3,8c1.3,1.5,2.4,3.3,3.6,4.9c1.1,1.5,2.2,2.9,3.2,4.4c0.4,0.6,0.8,0.7,1.5,0.1c1.6-1.4,3.2-2.6,4.9-3.9
		c-2-2.9-3.9-5.7-5.9-8.4c-1-1.4-2.3-2.7-3.3-4.2c-0.6-0.9-1.2-1.8-1.5-2.8c-0.2-0.8-0.7-1.1-1.3-1.3c-1.2-0.5-1.4-0.9-1-2.1
		c0.1-0.2,0.1-0.5-0.1-0.6c-0.9-0.7-0.3-1.5-0.2-2.2c0.8,0.3,1.1,1.8,0.6,3.9c0.2,0.1,0.5,0.1,0.7,0.2c1,0.4,1.8,0.9,1.9,2.2
		c0.1,0.6,0.5,1.2,0.9,1.7c1.8,2.5,3.6,4.9,5.4,7.3c1.4,1.9,2.9,3.9,4.4,5.9c1.5-1,2.8-1.8,4.2-2.7c0.8-0.5,1.6-1.2,2.4-1.6
		c0.8-0.4,0.7-1,0.3-1.5c-2.1-3.3-4.2-6.7-6.4-9.9c-1.7-2.5-3.6-4.8-5.4-7.2c-0.2-0.2-0.7-0.3-1-0.3c-0.3,0-0.6,0.2-0.9,0.2
		c-0.4,0-0.7,0-1.1,0c0.3-0.3,0.6-0.7,0.9-1c0.1-0.1,0.5-0.1,0.6-0.2c0.3-0.3,0.6-0.6,0.8-0.9c-0.3-0.2-0.6-0.4-1-0.5
		c-0.4-0.2-0.7-0.3-1.1-0.4c0-0.1,0-0.2,0.1-0.4c0.3,0,0.6-0.1,0.9-0.1c1.1,0,1.3-0.3,1.1-1.4c-0.1-0.4-0.2-0.7-0.1-1.1
		c0-0.2,0.4-0.4,0.6-0.6c0.2,0.1,0.3,0.1,0.5,0.2c0,1.7,0,3.4,0,5.2c0,0.3,0.2,0.7,0.4,1c1.4,1.9,3,3.7,4.4,5.6
		c1.2,1.7,2.4,3.5,3.5,5.2c1.5,2.3,3,4.6,4.4,7c0.2,0.3,0.1,0.9-0.1,1.1c-0.6,0.6-0.1,1,0.1,1.4c1.3,2.3,2.7,4.7,4,7
		c1.2,2,2.3,4,3.5,6c0.8,1.5,1.5,3,2.3,4.5c0.6,1.2,2,1.7,3.1,0.9c1.2-0.9,2.3-2,3.4-3c2-1.8,4.2-3.3,6.9-4.1
		c0.5-0.1,1.1,0.1,1.7,0.2c0.2,0.1,0.4,0.4,0.7,0.4c1.9,0.4,1.7,1.8,1.9,3.3c0.3,2.6-1.2,4.5-2.5,6.5c-1.5,2.2-3,4.3-4.5,6.6
		c1.7,0.3,3.3,1.4,5.1,0.3c0.2,0.2,0.4,0.5,0.7,0.9c1.7-1.3,3.4,0,5.1-0.1c0.4,0,0.8-0.1,1.2-0.2c1.2-0.6,1.6-0.4,1.9,0.8
		c0.5-0.8,0.9-1.3,2-0.7c0.5,0.3,1.3,0.1,2,0.1c0.7,0,1.5,0,2.2,0c0.2,0,0.3,0.1,0.4,0c1-0.7,2-0.2,3-0.1c0.3,0,0.6-0.1,1-0.2
		c0.1,0.1,0.3,0.4,0.6,0.6c0.1,0.1,0.5,0.2,0.6,0.2c0.7-1.1,1.5,0.2,2.3-0.3c0-0.1,0.1-0.4,0.1-0.6c0.5,0.1,1,0.3,1.5,0.4
		c0-1,0-2,0-3c0-1.6,0-1.6-1.6-1.7c-0.7,0-1.2-1.1-1.1-2c0.4-1.9,0.9-3.7,2.1-5.3c1.1-1.5,2.7-2,4.5-2.1c1.6-0.1,3.1-0.2,4.9-0.3
		c-0.5-0.7-0.8-1.2-1.3-1.6c-2.1-1.9-4.2-3.7-6.3-5.6c-2.3-2.1-4.5-4.2-6.8-6.3c-1.7-1.6-3.5-3-5.2-4.6c-2.1-1.9-4.2-3.9-6.4-5.9
		c-1.2-1-2.4-2-3.5-3c-1.7-1.5-3.3-3.1-5-4.6c-1.4-1.2-2.9-2.4-4.2-3.6c-1.5-1.3-2.9-2.7-4.4-4.1c-1.3-1.2-2.6-2.4-3.9-3.5
		c-0.3-0.2-0.9-0.3-1.2-0.1c-1.6,1.1-3.4,1.5-5.3,1.3c-2.4-0.2-4.7-0.6-7.1-0.8c-1.7-0.2-3.4-0.3-5.1-0.5c-1.7-0.2-3.3-0.3-5-0.4
		c-0.3,0-0.7,0.2-0.9,0.4c-0.7,1.1-1.6,1.4-2.9,0.9c-0.6-0.2-1.3-0.4-1.9-0.4c-1.5-0.1-1.8,0.3-1.4,1.8c0.1,0.3,0.2,0.6,0.2,0.8
		c0.4,0.1,0.8,0.3,1.6,0.5c-0.5,0.3-0.8,0.7-1,0.7c-1.1,0-2.2-0.1-3.2-0.2c-0.4,0-0.8-0.2-1.5-0.4c2.4-0.4,1.1-2,1.6-3
		c-0.1-0.1-0.1-0.2-0.2-0.3c-0.9,0.1-1.8,0.2-2.6,0.5c-0.3,0.1-0.5,0.6-0.7,1c-0.1,0.3-0.1,0.7-0.1,1.1c-0.1,1.1-0.7,1.5-1.7,1.3
		c-0.2,0-0.4,0-0.9,0c0-0.9,0-1.8,0-2.6c0-0.5,0-0.9-0.7-1c-0.8-0.1-1.5-0.3-2.3-0.4c-0.6,1.8-0.3,2.6,1.1,2.9
		c-0.1,0.4-0.1,0.4-2.3,0.9c0.7,0.6,1.4,1.2,2.2,1.8c0.9,0.7,1.6,1.5,2.1,2.5c0.4,0.7,0.8,1.5,1.1,2.3c0.2,0.6,0.4,1.2,0.6,2
		c-0.5,0-0.9,0-1.1,0.1c-0.2-1-0.2-2.1-0.8-2.7c-0.3-0.4-1.5-0.5-2.1-0.4c-1,0.2-0.9-0.2-0.9-0.8c0.8-0.1,1.5-0.3,2.4-0.4
		c-1-1-1.8-1.9-2.6-2.7c-0.9-0.9-1.8-1.8-2.8-2.6c-0.2-0.2-0.8-0.2-0.9,0c-0.8,0.9-1.4,2-2.2,2.9c-0.4,0.4-1.1,0.8-1.7,0.8
		c-1,0.1-1.2,0.5-0.9,1.4c0.5,1.8,1,3.6,1.5,5.3c1.1-1.9,2.2-3.8,3.3-5.7c0.2-0.3,0.5-0.4,0.8-0.5c-0.1,0.3,0,0.8-0.2,1
		c-1.8,2.5-3.2,5.1-3.5,8.3c0,0.3-0.2,0.6-0.3,1c-1.2-0.1-0.8-1.2-0.9-1.7c-0.5-2.8-0.6-5.7-1.8-8.4c-0.2-0.6-0.2-1.1,0.6-1.1
		c1.7,0,2.9-0.8,3.6-2.4c0.2-0.5,0.6-0.8,1-1.2c0.8-1,1.6-1,2.5-0.1c0.2,0.2,0.4,0.3,0.6,0.4c0.1-0.3,0.4-0.5,0.4-0.8
		c0.1-0.8,0.1-1.7,0-2.5c0-0.3-0.5-0.6-0.8-0.9c-1.2-1-1.1-2.4-1.2-3.7c-0.2-2-0.1-4-0.1-6c0-2.5-0.1-5,0-7.5
		c0.1-2.3,0.6-4.5,1.6-6.7c1.1-2.3,2.3-4.5,4-6.4c0.2-0.2,0.1-0.5,0.2-0.7c0.5-1,0.9-2,1.5-2.9c0.1-0.1,0.6-0.1,0.7,0
		c1.6,1.4,3.1,2.8,4.7,4.1c1.5,1.2,3.2,2.3,4.9,3.4c0.6,0.4,1.1,0.3,1.8-0.2c0.8-0.6,1.8-1.2,2.8-1.2c1.9-0.1,2.6-1.5,3.5-2.7
		c0.2-0.3,0.3-0.7,0.5-1.1c-1.2-0.8-2.9-1.4-2.4-3.4c0.3,0.5,0.5,1,0.8,1.5c0.8,1.1,2.1,0.9,2.9-0.4c0.3-0.4,0.6-0.9,0.7-1.4
		c0.1-1.4,0.9-1.9,2.1-2.2c0.4-0.1,0.7-0.4,1-0.6c0.8-0.6,0.5-1-0.2-1.5c-0.8-0.6-1.5-1.3-2.2-2c-0.2-0.2-0.3-0.7-0.3-1.1
		c0.1-2.1,0.2-4.1-0.6-6.1c-0.1-0.2,0-0.6,0.1-1c-2-0.4-3.8-0.6-5.6,0.9c-1.8,1.5-2.9,3.3-4,5.3c-0.8,1.5-1.8,3-3.7,3.5
		c-0.3-0.5-0.6-1-0.8-1.5c-0.3-0.7-0.8-1.2-1.5-0.9c-0.4,0.2-0.9,0.9-0.9,1.5c0,1.2,0.2,2.4,0.3,3.7c0,0.5,0.1,1,0.1,1.4
		c0,1.4-0.4,1.7-1.8,1.7c-2.1,0-2.2-0.1-2.6-2.2c-0.2-0.9-0.5-1.7-0.8-2.5c-0.8-2.8-0.9-5.6-0.7-8.5c0.2-2.7,1-5.1,1.6-7.7
		c0.2-0.9,0.9-1,1.4-1.2c1.9-0.8,4-1.4,5.9-2c1.6-0.5,3.2-1.3,4.8-1.6c2-0.4,4.1-0.6,6.1-0.6c1.5,0,3.3,2.3,3.5,3.9
		c0,0.2,0.1,0.5,0,0.7c-0.2,2.3,1.6,2.7,3.2,3.2c1.7,0.6,3.5,1.1,5.3,1.7c0.7,0.2,1.4,0.3,2,0.6c0.3,0.2,0.6,0.8,0.5,1
		c-0.2,0.4-0.7,1-1,1c-1.7,0-3.5,0-5.2-0.2c-1.9-0.2-3.7-0.6-5.7-1c1.1,1.9,1.2,4,0.9,6c-0.3,2.2,1.2,2.8,2.5,3.7
		c1,0.6,1.2,0.9,0.5,1.9c-0.4,0.6-1.1,1.3-1.7,1.4c-1.2,0.3-1.7,1.1-2.2,2.1c-1.1,2.1-2.1,4.2-3.4,6.1c-0.6,0.8-1.6,1.7-3,1.6
		c-0.7-0.1-1.5,0.4-2.2,0.7c-0.2,0.1-0.4,0.4-0.3,0.5c0.1,1.2,0.2,2.4,0.4,3.5c0.3,1.5,0.8,3,0.8,4.5c0,1.8,1.4,2.8,2.1,4.1
		c0,0.1,0.2,0,0.2,0.1c1.1,2.4,3.7,2.3,5.7,3.3c1.8,0.9,3.8,1.5,5.7,1.9c0.8,0.2,1.8-0.2,2.6-0.6c2.5-1,5.1-0.8,7.5,0.2
		c0.7,0.3,1.1,1.2,1.6,2c0.5,0.8,0.7,1.7,1.4,2.3c1.3,1.2,2.5,2.5,2.6,4.4c0,0.2,0.2,0.5,0.4,0.6c2,1.9,4.1,3.9,6.2,5.8
		c1.2,1.1,2.4,2.1,3.6,3.2c1.6,1.5,3.1,3.1,4.7,4.6c1.1,1,2.2,2,3.3,3c1.7,1.5,3.4,3,5,4.5c2,1.8,3.9,3.6,5.9,5.4
		c1.5,1.4,3.2,2.7,4.7,4.1c2,1.8,4,3.7,6,5.5c2.1,1.9,4.1,3.9,6.1,5.8c1.1-1,1.9-2,1.5-3.4c-0.4-1.5-1.4-2.1-2.9-1.8
		c-0.7-2.2-1-4.3-0.3-6.2c-0.8-0.6-1.5-1.1-2.1-1.6c-0.6-0.5-0.3-1.1,0-1.6c1.4-1.9,2.9-3.6,5.2-4.4c0.7-0.3,1.6-0.4,2.4-0.3
		c0.4,0,1,0.4,1.1,0.8c0.1,0.3-0.3,0.8-0.5,1.2c-0.2,0.2-0.5,0.4-1,0.7c1,0,1.7,0,2.5,0c3,0.2,6,0.4,9,0.7c0.3,0,0.5,0.5,0.7,0.7
		c0.3,0.4,0.5,0.8,0.8,1.2c0.4,0.8,1.1,0.9,1.9,1c1.2,0.1,1.8,1.2,2,2.2c0.5,2.2,0.4,4.3-1.2,6c-0.1,0.1-0.1,0.2-0.1,0.3
		c0.2,1.6-0.8,1.9-2.1,1.7c-0.7,2.3,1,4.5,3.5,4.6c3.3,0.2,6.7,0.4,10,1c2.5,0.4,4.5,1.8,5.3,4.5c0.3,0.9,0.4,1.9,0.6,2.7
		c0.5-0.9,1.1-2,1.7-3c0.1,0,0.3,0.1,0.4,0.1C164.7,118.8,164.7,119.1,164.7,119.3c-1,2.5-1.2,5.1-0.1,5.9c0-1,0-2.1,0-3.2
		C164.6,121.1,164.6,120.2,164.7,119.3z M46.4,104.1c-0.6,1.3-1.2,2.4-1.7,3.4c-0.5,0.9-0.9,1.9-1.4,2.7c-1.4,2.2-2.8,4.4-4.2,6.5
		c-0.8,1.2-1.5,2.5-2.4,3.6c-1,1.3-0.8,2.5,0.6,3.1c2.6,1,5.1,2,7.7,2.9c1.2,0.4,2.4,0.4,3.7,0.6c0.1-0.6,0.1-1,0.2-1.6
		c0.6,0.3,1.2,0.5,1.7,0.8c0-0.1,0.1-0.3,0.2-0.6c0.3,0.4,0.5,0.7,0.8,1c0.4-0.9,0.8-0.9,1.4-0.3c0.6-0.8,1.9-0.6,2.7,0.4
		c0.8-0.8,3.3-0.9,4.5-0.2c0.2-0.3,0.4-0.8,0.5-0.8c0.7,0,1.7,0,2,0.4c0.5,0.7,0.9,0.3,1.3,0.3c0.3,0,0.5,0,0.8,0.1
		c0.6,0.1,1.4,0.5,1.8,0.3c1-0.4,1.8-0.2,2.7,0.1c0.6,0.1,1.2,0.1,2,0.2c-0.4-0.8-0.7-1.5-1.1-2c-1-1.4-1.9-2.9-3-4.1
		c-1.2-1.2-2.6-2.2-3.9-3.2c-3-2.3-5.2-5.2-6.6-8.6c-0.8-1.8-2-3.1-3.6-4.1c-0.3-0.2-0.9-0.2-1.1,0c-1,0.7-2,1.6-3.1,2.5
		C48.1,106.3,47.4,105.4,46.4,104.1z M75.8,69.2c1.8,1.7,3.4,3.2,5,4.7c1.6,1.5,3.2,2.9,4.8,4.3c2.1,1.9,4.2,3.7,6.2,5.6
		c1.7,1.6,3.5,3.2,5.2,4.7c1.1,1,2.3,2.1,3.5,3.1c1.1,1,2.2,2,3.3,3c1.2,1.1,2.3,2.2,3.6,3.3c2.3,2,4.6,3.8,6.8,5.8
		c2.2,2,4.3,4.2,6.5,6.2c1.6,1.5,3.4,2.8,5,4.3c0.4,0.4,1.4,0.8,0.4,2c-0.7-0.8-1.3-1.6-2-2.2c-0.2-0.2-0.6-0.3-0.9-0.3
		c-2,0.1-4.1,0.2-6.1,0.4c-0.5,0-1.1,0-1.5,0.2c-2.4,1-3.9,4.6-3.8,7c1.9,0.7,2.5,0.5,3.5-0.9c1.3-1.7,3.2-2.4,5.1-2.3
		c2.4,0.1,4.6,1.1,5.8,3.5c0.1,0.2,0.4,0.5,0.7,0.5c2,0,3.9,0,5.8,0c0.1-1.7-1.4-3.2-0.7-5c0.4,0.4,0.8,0.7,1.3,1.1
		c0.1-0.7,0.2-1.1,0.2-1.6c2.4,0,4.7,0,7.1,0c0.4,0,0.9,0.1,1,0.3c0.9,1.2,2.3,0.8,3.1,0.4c1.1-0.5,1.9-0.5,2.9-0.2
		c0.4,2-1.6,3.3-1.8,5.2c0.4-0.2,0.7-0.6,0.9-0.8c0.8-0.8,1.4-1.7,2.3-2.3c2.8-1.7,6.7-0.9,8.5,1.7c0.4,0.6,0.8,1.3,1.3,1.5
		c0.6,0.3,1.5,0.1,2.3,0.1c-0.2-1.5,0.1-2.7-0.6-4.1c-1-2.2-2.6-3-4.6-3.4c-1.6-0.3-3.3-0.4-4.9-0.5c-4-0.3-8-0.6-11.9-0.9
		c-1.3-0.1-2.5-0.3-3.8-0.4c-2.2-0.1-4.4,0-6.9,0c1,1,1.7,1.7,2.4,2.5c-0.1,0.1-0.1,0.2-0.2,0.3c-0.5-0.2-1.1-0.7-1.6-0.6
		c-0.5,0.1-1,0.7-1.4,1c0.5,0.7,0.8,1.2,1.3,1.9c-1.2,0.3-1.6-0.4-1.9-1c-0.8-1.3,0.4-2,1.1-2.9c-2-1.8-3.9-3.6-5.9-5.4
		c-1.3-1.2-2.6-2.4-3.9-3.6c-1.5-1.4-3.1-2.8-4.6-4.2c-1.7-1.6-3.4-3.1-5.1-4.7c-1.4-1.3-2.9-2.7-4.3-4c-1.6-1.5-3.2-2.9-4.8-4.4
		c-1.4-1.3-2.8-2.6-4.2-3.9c-2.2-2-4.4-4-6.6-6c-1.2-1.1-2.3-2.2-3.5-3.3c-1.7-1.5-3.5-3-5.1-4.6C79,69,77.7,68.5,75.8,69.2z
		 M79.2,67.7c-1.1-2.3-2.8-3.6-4.9-4.5c-1.8-0.8-4.6-0.3-6,1c0.3,0.2,0.6,0.4,0.9,0.6c0,0.1,0,0.2,0,0.3c-0.3,0-0.7,0.1-1,0.1
		c-1-0.2-2-0.6-3.1-0.8c-3.6-0.8-7.2-1.8-10.8-2.3c-1.6-0.2-2.5-0.7-3-2.2c-0.2-0.6-0.5-1.1-0.8-1.7c-0.6,0.3-1.2,0.5-1.7,0.8
		c-1.5,1-3,2.1-4.6,3.3c2.3,3.1,4.4,6.1,8.7,6.3c2,0.1,3.9,0.4,5.9,0.7c2,0.2,4,0.5,6,0.7c0.9,0.1,1.7,0.1,2.6,0.2
		c2.1,0.4,4.2,0.4,5.9-0.7C75,68.4,76.8,67.8,79.2,67.7z M68.6,19.2c0-0.1,0-0.2,0-0.3c-2.5-0.9-5.1-2-7.6-2.7
		c-1.3-0.4-1.8-1.1-2-2.2c-0.1-0.6-0.2-1.2-0.2-1.8c-0.2-1.6-2-3-2.9-3.1c-3.3-0.2-6.4,0.6-9.4,1.8c-1.9,0.8-3.8,1.4-5.7,2
		c-1,0.3-2.1,0.6-2.3,1.9c-0.2,1-0.6,1.9-0.7,2.9c-0.3,1.8-0.5,3.7-0.8,5.8c3.5-1.3,6.6-2.3,9.6-3.6c2.6-1.1,5.4-1.5,8.1-1.9
		c3.4-0.5,6.7,0.6,10.1,1C66.2,19.1,67.4,19.2,68.6,19.2z M78.3,128.4c0.7-0.4,1.4-0.6,1.8-1.1c1-1.1,1.9-2.4,2.9-3.6
		c2.3-2.6,4.4-5.4,5.6-8.7c0.4-1.2,0.6-2.4,0.3-3.6c-0.2-0.9-1.1-1.3-2-1.2c-2.4,0.3-4.2,1.7-5.9,3.1c-1.2,1-2,2.3-3.3,3.1
		c-0.9,0.7-1.4,1.2-1.7,2.4c-0.5,2.5-1.8,4.7-3.7,6.5c-0.5,0.5-0.6,0.8-0.2,1.4c0.8,1,1.5,2,2.2,3.1c0.5,0.8,1.2,1,2,0.7
		C77.4,130.4,78.4,128.9,78.3,128.4z M62.3,97.4c-2.9,2-5.7,3.8-8.4,5.8c-0.2,0.1-0.3,0.8-0.1,1c0.4,0.5,0.9,0.8,1.4,1.2
		c0.8,0.6,1.4,1.2,1.8,2.2c0.7,1.5,1.5,3,2.4,4.4c0.6,1,1.5,1.9,2.3,2.7c0.6,0.7,1.3,1.5,2.5,1c2.3-1,4-2.6,5.3-4.7
		c0.2-0.3,0.2-0.7,0-1c-0.5-1-1.1-2-1.6-3c-0.8-1.4-1.6-2.9-2.4-4.3C64.4,101.1,63.4,99.3,62.3,97.4z M38,133.2c0,0.1,0,0.1,0,0.2
		c2.9-0.2,5.7-0.4,8.6-0.6c1.4-0.1,2-0.5,2.2-1.7c0.3-1.8-0.1-2.9-1.4-3.4c-2-0.6-4.1-1.1-6.1-1.8c-1.7-0.6-3.4-1.3-5.1-2.1
		c-0.5-0.2-0.8-0.2-1.1,0.1c-1.9,1.5-4.1,2-6.5,1.4c-2.6-0.6-2.6-0.6-3.6,1.9c0,0.1-0.1,0.1-0.1,0.2c-0.4,1.2-0.1,2.2,1.1,2.8
		c1.3,0.7,2.5,1.3,3.9,1.9c1.7,0.7,3.3,1.4,5.2,1.2C36,133.1,37,133.2,38,133.2z M35,102.5c-0.7,2.3-0.6,4.4-1.9,6
		c-0.4,0.4-0.7,0.9-1,1.4c-0.9,1.6-1.8,3.1-2.6,4.7c-0.2,0.4-0.3,1.3,0,1.5c0.7,0.5,1.5,0.8,2.3,1c0.9,0.3,1.9,0.3,2.8,0.5
		c1.5,0.3,2.6,0.3,3.8-1.2c2.8-3.5,4.9-7.3,6.6-11.8C41.5,104,38.3,103.3,35,102.5z M131.4,98.5c-0.8,0-2.3,0.1-3.9,0.2
		c-0.4,0-1.1,0.1-1.3,0.3c-0.9,1.3-1.8,2.8-1.4,4.5c0.2,0.8,0.5,1.8,1.7,1.8c3.5,0,7.1,0,10.6,0c2,0,3.9,0.2,5.9,0.2
		c0.8,0,1.9,0.4,2.3-0.8c0.3-0.9,0.5-1.9,0.5-2.9c0.1-1.1-0.8-2.6-1.5-2.7c-0.7-0.1-1.3-0.2-2-0.2C139.1,98.8,135.6,98.7,131.4,98.5
		z M145,127c-0.2-0.3-0.4-0.4-0.4-0.5c0-1.2,0-2.5,0.2-3.7c0.1-0.7,0-1-0.6-1.2c-0.5-0.1-0.9-0.2-1.4-0.2c-1,0-2.1,0.1-3.1,0.2
		c-0.9,0.1-2,0.2-2.7,0.7c-0.8,0.5-1.2,2-2.5,0.7c-2.5,0-5,0-7.5,0c0.1,1.7,0.2,3.3,0.3,4.9c2.4-1,4.6-0.3,6.8-0.3
		c0.1,0.6,0.4,1,1.1,0.4c0.2-0.1,0.5-0.2,0.7-0.2c0.8,0,1.6,0.3,2.2,0.1c0.8-0.3,1.2-0.1,1.3,0.3c0.8-0.1,1.4-0.5,1.9-0.3
		c1.1,0.4,2,0.3,2.5-0.3c0.9,0,1.5,0,2.1,0c0-0.4,0-0.7,0-0.9c0-0.2-0.1-0.4-0.2-0.9C145.5,126.2,145.3,126.5,145,127z M38.8,102.4
		c0.2-2.2,0.4-4.2,0.6-6.6c0.4,0.4,0.9,0.7,0.9,1c-0.2,1.9-0.5,3.8-0.8,5.8c1.9,0.5,3.7,1,5.6,1.5c0.5-0.9,0.3-1.7-0.4-2.5
		c-2.6-3.1-5.1-6.2-7.7-9.3c-0.8-1-1.8-1.9-2.9-3c-0.8,3.7-1.5,7.1-2.1,10.4c-0.4,1.9-0.3,1.9,1.6,2.1c0.1,0,0.3,0.1,0.4,0.1
		C35.7,102.1,37.2,102.2,38.8,102.4z M127.5,106.3c1.2,0.8,1.8,1.7,1.5,2.9c-0.3,0.9-0.9,1.6-1.4,2.4c-0.1,0.2-0.2,0.5-0.3,0.7
		c0.3,0.1,0.5,0.3,0.8,0.3c0.9,0,1.7,0,2.6,0c4.1,0.1,8.3,0.3,12.4,0.4c0.1,0,0.3-0.2,0.2-0.1c-0.4-1.1-0.8-2.1-1-3.2
		c-0.2-1,0-2.1,0-3.2c-0.4,0-0.8,0-1.3,0c-0.3,2.6-1,3.3-3,3.1c-1.4-0.2-1.9-1.2-1.7-3.3C133.4,106.3,130.6,106.3,127.5,106.3z
		 M70.2,111.6c-0.6,0.7-1.2,1.2-1.7,1.9c-1,1.4-2.2,2.4-3.8,2.8c-0.6,0.2-0.7,0.5-0.3,1c0.2,0.2,0.4,0.4,0.7,0.6
		c1.3,1.1,2.6,2.2,3.7,3.4c1,1.1,1.7,2.4,2.7,3.7c2.2-1.9,3.5-4.2,4-7.1c-1.3,0-2-0.5-2.5-1.6C72.2,114.7,71.2,113.3,70.2,111.6z
		 M75.2,62.4c0.1-0.1,0.1-0.2,0.2-0.3c-0.3-0.4-0.6-0.9-1-1.1c-2.1-1-4.3-1.1-6.5-0.4c-0.8,0.3-1.6,0.9-2.4,1
		c-0.9,0.1-1.8-0.3-2.6-0.6c-1.7-0.6-3.5-1.1-5.2-1.8c-1.6-0.7-3.3-1.1-4.6-2.4c-0.3-0.3-0.6-0.6-1-0.9c-0.2,0.5-0.4,1-0.6,1.5
		c-0.1,0.2,0,0.4,0.1,0.5c0.3,0.7,0.6,1.4,0.8,2.2c0.2,0.8,0.7,1.1,1.5,1.3c3.9,0.8,7.7,1.7,11.6,2.4c0.6,0.1,1.3,0.2,1.8,0
		c0.6-0.2,1.1-0.8,1.8-1c1.5-0.6,2.9-1.6,4.7-0.6C74.2,62.3,74.7,62.3,75.2,62.4z M36.1,118.9c-2.2,0.1-4.4-0.7-6.5-1.6
		c-0.9-0.4-1.2-0.1-1.4,0.7c-0.4,1.4-0.8,2.8-1.3,4.2c-0.4,1.1-0.2,1.7,0.9,1.9c1.5,0.2,3,0.4,4.4,0.2c1-0.2,2.2-0.9,2.7-1.7
		C35.6,121.6,35.7,120.2,36.1,118.9z M38,36.2c-0.2,0.3-0.4,0.6-0.7,0.9c-0.6,0.7-0.7,1.3,0.1,1.9c0.5,0.4,1,0.8,1.4,1.2
		c2,2.1,3.9,4.2,5.9,6.3c0.2,0.2,0.8,0.2,1.1,0c0.7-0.5,1.4-1,2-1.6c0.4-0.4,0.4-0.9-0.2-1.3c-0.9-0.5-1.8-1.1-2.7-1.7
		C42.6,40,40.3,38.1,38,36.2z M31.2,66.2c0,0.3-0.1,0.4-0.1,0.5c0.2,0.8,0.5,1.4,1.5,1.4c1.9,0,3.9,0,5.8,0c2.5,0,4.9,0.1,7.4,0.2
		c0.8,0.1,1.7,0.4,2.7,0.7c-0.7-1.2-1.5-2-2.7-2.3c-1.3-0.2-2.6-0.5-3.8-0.6c-2.9,0-5.7,0.1-8.6,0.2C32.8,66.4,32,66.2,31.2,66.2z
		 M49.8,50.5c0.1-0.1,0.2-0.3,0.2-0.4c-0.3-0.4-0.6-1.2-0.9-1.2c-1.1-0.1-2.2,0-3.2,0.3c-2.3,0.7-4.6,1.6-6.9,2.4
		c-1.3,0.4-1.4,0.7-0.7,1.9c1.3-0.5,2.7-1,4-1.5c1.3-0.5,2.6-1,3.9-1.4c0.4-0.1,0.9-0.1,1.4-0.1C48.4,50.3,49.1,50.4,49.8,50.5z
		 M38.9,63c0,0.1,0,0.1,0,0.2c0.8,0,1.6,0,2.4,0c0.8,0,0.9-0.5,0.5-1c-0.2-0.3-0.7-0.6-1-0.6c-2.8-0.1-5.7-0.2-8.5-0.2
		c-0.3,0-0.8,0.5-0.8,0.8c0,0.3,0.5,0.8,0.7,0.8C34.4,63.1,36.7,63,38.9,63z M43.8,47c0-0.1,0.1-0.1,0.1-0.2c-0.3-0.1-0.7-0.3-1-0.2
		c-1.8,0.4-3.7,0.9-5.5,1.3c-0.3,0.1-0.7,0-1-0.1c-1.2-0.5-2.3-1.2-3.5-1.7c-0.1-0.1-0.5,0.2-0.6,0.4c-0.2,0.4-0.3,0.8-0.3,1.3
		c0,0.3,0.3,0.7,0.5,0.8c1.9,0.1,3.7,0.8,5.7,0C39.9,47.8,41.8,47.5,43.8,47z M127.7,97.6c-0.3-0.3-0.5-0.8-0.8-1
		c-0.6-0.4-0.6-0.8-0.1-1.2c0.5-0.4,0.9-0.8,1.4-1.2c0.6-0.4,1.2-0.8,1.9-1.2c-0.1-0.1-0.1-0.2-0.2-0.3c-1.9-0.1-3.3,1.1-4.6,2.2
		c-1,0.9-2.4,1.6-1.9,3.5c0.4,0,0.9,0.1,1.3,0C125.7,98.2,126.6,97.9,127.7,97.6z M33.9,56.1C33.9,56.1,33.9,56.2,33.9,56.1
		c-0.6,0.1-1.3,0.1-1.9,0.1c-0.6,0-1.1,0-1.1,0.8c0,0.8,0.5,0.8,1.1,0.9c1.9,0.1,3.9,0.3,5.8,0.4c0.4,0,0.9-0.3,1.3-0.5
		c-0.4-0.4-0.7-1.2-1.2-1.3C36.6,56.2,35.3,56.2,33.9,56.1z M40.2,57.4c0.4-0.1,0.7-0.1,1.1-0.2c2.3-1,4.6-1.9,6.9-2.9
		c0.3-0.1,0.5-0.4,0.7-0.7c-0.4-0.1-0.7-0.3-1-0.2c-0.9,0.2-1.7,0.5-2.5,0.8c-1.4,0.5-2.9,1-4.3,1.6C40.4,56,39.7,56.3,40.2,57.4z
		 M129.3,96.8c4,0,7.8,0,11.6,0c-0.3-0.4-0.6-0.7-1-0.7c-3-0.2-6-0.3-9.1-0.5C130.2,95.6,129.6,95.8,129.3,96.8z M154.8,125.4
		c0-1.3-1.1-2.5-2.2-2.4c-1.1,0-2.1,1.2-2.1,2.4c0,1.2,1.1,2.3,2.2,2.3C153.7,127.8,154.8,126.5,154.8,125.4z M36.8,53.3
		c0-0.9-0.2-1.6-1.2-1.6c-1.5-0.1-2.9-0.2-4.5-0.3c0,0.8-0.9,1.8,0.4,1.9C33.3,53.4,35,53.3,36.8,53.3z M120.5,123
		c-1.1,0-2.1,0.9-2.1,2.1c0,1,1,2.1,2,2.2c0.9,0,2-1.2,2-2.1C122.4,124,121.5,123,120.5,123z M180.5,125.2c-0.3,1.7-0.6,3.4-1,5
		c0.9,0.1,1.6,0.2,2.3,0.3C182.2,128.6,181.6,126.2,180.5,125.2z M39.5,43.8c-1.5-0.8-2.8-1.6-4.2-2.3c-0.2-0.1-0.8,0.3-1.1,0.6
		c-0.1,0.1,0.1,0.8,0.3,0.9c0.8,0.5,1.7,0.9,2.6,1.3C37.8,44.6,38.6,45,39.5,43.8z M159,123.6c1.1,1.9-0.9,4,0.5,6
		c0.4-1.7,0.9-3.2,1.1-4.8C160.8,123.6,160.4,123.4,159,123.6z M178.3,130.6c0.2,0,0.3,0,0.5,0.1c0.4-2.4,0.8-4.8,1.1-7.2
		c-0.1,0-0.2,0-0.3-0.1C178.2,125.7,178,128.1,178.3,130.6z M174.3,120.2c-2.2,1.5-2.4,3.7-0.9,5.4C173.8,123.8,174,122,174.3,120.2
		z M49.4,57.6c-0.1-0.1-0.1-0.2-0.2-0.3c-2.4,0.9-4.4,2.3-6.1,4.2c0.1,0.1,0.1,0.2,0.2,0.3C45.3,60.4,47.4,59,49.4,57.6z
		 M170.8,121.6c-0.1,0-0.2-0.1-0.4-0.1c-0.5,1.4-1,2.9-1.5,4.3c0.1,0,0.2,0.1,0.3,0.1C169.7,124.5,170.2,123.1,170.8,121.6z
		 M37.5,70.9C37.4,70.9,37.2,71,37,71c0,0.6,0,1.2,0,1.8c0,0.2,0.2,0.4,0.3,0.6c0.1-0.2,0.3-0.4,0.4-0.6c0.1-0.3,0.2-0.7,0.2-1.1
		C37.9,71.5,37.6,71.2,37.5,70.9z M140.7,120.4c0.1,0.2,0.2,0.4,0.3,0.5c0.3-0.2,0.7-0.5,1-0.7c0.3-0.3,0.6-0.7,0.9-1.1
		c0-0.1-0.1-0.1-0.1-0.2C142,119.3,141.3,119.9,140.7,120.4z M25.5,130.9c-0.1,0.1-0.1,0.2-0.2,0.4c1.1,0.6,2.3,1.1,3.4,1.7
		c0.1-0.1,0.1-0.2,0.2-0.3C27.7,132,26.6,131.4,25.5,130.9z M44.9,134.1c0-0.1,0-0.1,0-0.2c-0.7,0-1.5,0-2.2,0
		c-0.7,0.1-1.5,0.2-2.2,0.3c0,0.1,0,0.1,0,0.2C42,134.3,43.5,134.2,44.9,134.1z"/>
	<path d="M209.4,131.2c-0.4-0.5-0.8-1-1.1-1.5c-0.6-1.4-1.2-2.8-1.8-4.2c-0.4-1-0.9-1.9-1.3-2.8c0.1-0.1,0.2-0.1,0.3-0.2
		c-0.3-0.2-0.7-0.4-1.1-0.5c0.2-0.4,0.4-0.8,0.6-1.2c0.5,0.9,0.9,0.6,1.2-0.1c0.2-0.5,0.6-0.9,0.7-1.4c0.3-0.9,1-1.8,0.4-3
		c-1.1,1.4-1.2,3.4-3,4c-0.4-0.5-0.7-0.9-1.1-1.4c-0.1,0-0.2,0-0.3,0c0.2,2,0.9,4-1.2,5.5c0.1-2.7,0-5.3-0.4-7.8c-0.1,0-0.3,0-0.4,0
		c-0.2,1.5-0.4,3-0.6,4.5c-0.1,0-0.2,0-0.4,0c-0.3-1.1-0.6-2.1-0.8-3.2c0,0-0.1,0-0.1,0.1c0-0.4,0.1-0.7,0.1-1.1
		c-0.1,0-0.2,0-0.3-0.1c-1,1.1-2.1,2.2-3.3,3.5c0.2-1.6,0-1.8-0.9-1.8c0.4,2-2,1.9-2.3,3.4c0.2-1.3,0.9-2.5,0.5-3.9
		c-0.7,1.3-1.4,2.6-2.1,4c-0.2,0-0.3-0.1-0.5-0.1v-3.8c-0.6,0.5-1,0.8-1.3,1.1c0-0.3,0-0.5,0-0.8l-0.4-0.1c-0.6,1.1-1.2,2.1-1.7,3
		c-0.2-0.8-0.4-1.7-0.6-2.7c-0.1-0.3-0.2-0.5-0.3-0.7c-0.2,0.4-0.4,0.9-0.6,1.4c0.2,1.1,0.1,2.1,0.3,3.2c-0.4,0-0.8,0-1.2,0.1
		c-0.1,0.3-0.1,0.6-0.2,0.9c0.6,0.1,0.7,0.4,0.6,1.2c-0.2,1.6-0.7,3.1-1.1,4.8c0,0,0-0.1-0.1-0.1c0,0.9,0,1.8,0,2.7
		c0.3,0,0.7-0.1,1-0.1c0.9-0.1,1.8-0.3,2.6-0.3c0.8,0,1.5,0.3,2.3,0.3c1.3,0.1,2.6-0.4,3.9,0c0.2,0.1,0.4-0.1,0.6-0.1
		c0.4-0.1,0.7-0.2,1.1-0.2c1,0,2.1,0.1,3.1,0.2c0.9,0.1,1.9-0.2,2.5,0.3c0.7,0.5,1.4,0.3,1.9,0.1c1.8-0.5,3.6-0.3,5.3,0.2
		c0.4,0.1,0.8,0.1,1.1,0c0.3-0.1,0.6-0.3,0.7-0.6C209.9,131.8,209.6,131.4,209.4,131.2z M188.6,125c-1-0.8-0.9-3.3,0.1-5.8
		c0,0.9-0.1,1.7-0.1,2.6C188.6,122.9,188.6,124,188.6,125z M193.3,125.7c-0.1,0-0.2-0.1-0.3-0.1c0.5-1.4,1-2.9,1.5-4.3
		c0.1,0,0.2,0.1,0.4,0.1C194.3,122.9,193.8,124.3,193.3,125.7z M197.5,125.4c-1.5-1.8-1.3-4,0.9-5.4
		C198.1,121.8,197.8,123.6,197.5,125.4z M202.4,130.5c-0.4-2.5-0.1-4.9,1.3-7.2c0.1,0,0.2,0,0.3,0.1c-0.4,2.4-0.8,4.8-1.1,7.2
		C202.7,130.5,202.6,130.5,202.4,130.5z M205.9,130.4c-0.7-0.1-1.4-0.2-2.3-0.3c0.3-1.7,0.6-3.3,1-5
		C205.7,126,206.3,128.4,205.9,130.4z"/>
	<path d="M232.4,131.2c-0.4-0.5-0.8-1-1.1-1.5c-0.6-1.4-1.2-2.8-1.8-4.2c-0.4-1-0.9-1.9-1.3-2.8c0.1-0.1,0.2-0.1,0.3-0.2
		c-0.3-0.2-0.7-0.4-1.1-0.5c0.2-0.4,0.4-0.8,0.6-1.2c0.5,0.9,0.9,0.6,1.2-0.1c0.2-0.5,0.6-0.9,0.7-1.4c0.3-0.9,1-1.8,0.4-3
		c-1.1,1.4-1.2,3.4-3,4c-0.4-0.5-0.7-0.9-1.1-1.4c-0.1,0-0.2,0-0.3,0c0.2,2,0.9,4-1.2,5.5c0.1-2.7,0-5.3-0.4-7.8c-0.1,0-0.3,0-0.4,0
		c-0.2,1.5-0.4,3-0.6,4.5c-0.1,0-0.2,0-0.4,0c-0.3-1.1-0.6-2.1-0.8-3.2c0,0-0.1,0-0.1,0.1c0-0.4,0.1-0.7,0.1-1.1
		c-0.1,0-0.2,0-0.3-0.1c-1,1.1-2.1,2.2-3.3,3.5c0.2-1.6,0-1.8-0.9-1.8c0.4,2-2,1.9-2.3,3.4c0.2-1.3,0.9-2.5,0.5-3.9
		c-0.7,1.3-1.4,2.6-2.1,4c-0.2,0-0.3-0.1-0.5-0.1v-3.8c-0.6,0.5-1,0.8-1.3,1.1c0-0.3,0-0.5,0-0.8l-0.4-0.1c-0.6,1.1-1.2,2.1-1.7,3
		c-0.2-0.8-0.4-1.7-0.6-2.7c-0.1-0.3-0.2-0.5-0.3-0.7c-0.2,0.4-0.4,0.9-0.6,1.4c0.2,1.1,0.1,2.1,0.3,3.2c-0.4,0-0.8,0-1.2,0.1
		c-0.1,0.3-0.1,0.6-0.2,0.9c0.6,0.1,0.7,0.4,0.6,1.2c-0.2,1.6-0.7,3.1-1.1,4.8c0,0,0-0.1-0.1-0.1c0,0.9,0,1.8,0,2.7
		c0.3,0,0.7-0.1,1-0.1c0.9-0.1,1.8-0.3,2.6-0.3c0.8,0,1.5,0.3,2.3,0.3c1.3,0.1,2.6-0.4,3.9,0c0.2,0.1,0.4-0.1,0.6-0.1
		c0.4-0.1,0.7-0.2,1.1-0.2c1,0,2.1,0.1,3.1,0.2c0.9,0.1,1.9-0.2,2.5,0.3c0.7,0.5,1.4,0.3,1.9,0.1c1.8-0.5,3.6-0.3,5.3,0.2
		c0.4,0.1,0.8,0.1,1.1,0c0.3-0.1,0.6-0.3,0.7-0.6C232.9,131.8,232.6,131.4,232.4,131.2z M211.6,125c-1-0.8-0.9-3.3,0.1-5.8
		c0,0.9-0.1,1.7-0.1,2.6C211.6,122.9,211.6,124,211.6,125z M216.3,125.7c-0.1,0-0.2-0.1-0.3-0.1c0.5-1.4,1-2.9,1.5-4.3
		c0.1,0,0.2,0.1,0.4,0.1C217.3,122.9,216.8,124.3,216.3,125.7z M220.5,125.4c-1.5-1.8-1.3-4,0.9-5.4
		C221.1,121.8,220.8,123.6,220.5,125.4z M225.4,130.5c-0.4-2.5-0.1-4.9,1.3-7.2c0.1,0,0.2,0,0.3,0.1c-0.4,2.4-0.8,4.8-1.1,7.2
		C225.7,130.5,225.6,130.5,225.4,130.5z M228.9,130.4c-0.7-0.1-1.4-0.2-2.3-0.3c0.3-1.7,0.6-3.3,1-5
		C228.7,126,229.3,128.4,228.9,130.4z"/>
	<path d="M251.1,130.5c-0.4-0.5-0.8-1-1.1-1.5c-0.6-1.4-1.2-2.8-1.8-4.2c-0.4-1-0.9-1.9-1.3-2.8c0.1-0.1,0.2-0.1,0.3-0.2
		c-0.3-0.2-0.7-0.4-1.1-0.5c0.2-0.4,0.4-0.8,0.6-1.2c0.5,0.9,0.9,0.6,1.2-0.1c0.2-0.5,0.6-0.9,0.7-1.4c0.3-0.9,1-1.8,0.4-3
		c-1.1,1.4-1.2,3.4-3,4c-0.4-0.5-0.7-0.9-1.1-1.4c-0.1,0-0.2,0-0.3,0c0.2,2,0.9,4-1.2,5.5c0.1-2.7,0-5.3-0.4-7.8c-0.1,0-0.3,0-0.4,0
		c-0.2,1.5-0.4,3-0.6,4.5c-0.1,0-0.2,0-0.4,0c-0.3-1.1-0.6-2.1-0.8-3.2c0,0-0.1,0-0.1,0.1c0-0.4,0.1-0.7,0.1-1.1
		c-0.1,0-0.2,0-0.3-0.1c-1,1.1-2.1,2.2-3.3,3.5c0.2-1.6,0-1.8-0.9-1.8c0.4,2-2,1.9-2.3,3.4c0.2-1.3,0.9-2.5,0.5-3.9
		c-0.7,1.3-1.4,2.6-2.1,4c-0.2,0-0.3-0.1-0.5-0.1v-3.8c-0.6,0.5-1,0.8-1.3,1.1c0-0.3,0-0.5,0-0.8l-0.4-0.1c-0.6,1.1-1.2,2.1-1.7,3
		c-0.2-0.8-0.4-1.7-0.6-2.7c-0.1-0.3-0.2-0.5-0.3-0.7c-0.2,0.4-0.4,0.9-0.6,1.4c0.2,1.1,0.1,2.1,0.3,3.2c-0.4,0-0.8,0-1.2,0.1
		c-0.1,0.3-0.1,0.6-0.2,0.9c0.6,0.1,0.7,0.4,0.6,1.2c-0.2,1.6-0.7,3.1-1.1,4.8c0,0,0-0.1-0.1-0.1c0,0.9,0,1.8,0,2.7
		c0.3,0,0.7-0.1,1-0.1c0.9-0.1,1.8-0.3,2.6-0.3c0.8,0,1.5,0.3,2.3,0.3c1.3,0.1,2.6-0.4,3.9,0c0.2,0.1,0.4-0.1,0.6-0.1
		c0.4-0.1,0.7-0.2,1.1-0.2c1,0,2.1,0.1,3.1,0.2c0.9,0.1,1.9-0.2,2.5,0.3c0.7,0.5,1.4,0.3,1.9,0.1c1.8-0.5,3.6-0.3,5.3,0.2
		c0.4,0.1,0.8,0.1,1.1,0c0.3-0.1,0.6-0.3,0.7-0.6C251.5,131.1,251.2,130.8,251.1,130.5z M230.3,124.3c-1-0.8-0.9-3.3,0.1-5.8
		c0,0.9-0.1,1.7-0.1,2.6C230.3,122.3,230.3,123.3,230.3,124.3z M235,125.1c-0.1,0-0.2-0.1-0.3-0.1c0.5-1.4,1-2.9,1.5-4.3
		c0.1,0,0.2,0.1,0.4,0.1C236,122.2,235.5,123.6,235,125.1z M239.2,124.7c-1.5-1.8-1.3-4,0.9-5.4
		C239.8,121.1,239.5,122.9,239.2,124.7z M244.1,129.8c-0.4-2.5-0.1-4.9,1.3-7.2c0.1,0,0.2,0,0.3,0.1c-0.4,2.4-0.8,4.8-1.1,7.2
		C244.4,129.8,244.2,129.8,244.1,129.8z M247.6,129.7c-0.7-0.1-1.4-0.2-2.3-0.3c0.3-1.7,0.6-3.3,1-5
		C247.4,125.3,247.9,127.7,247.6,129.7z"/>
	<path d="M275.3,130.5c-0.4-0.5-0.8-1-1.1-1.5c-0.6-1.4-1.2-2.8-1.8-4.2c-0.4-1-0.9-1.9-1.3-2.8c0.1-0.1,0.2-0.1,0.3-0.2
		c-0.3-0.2-0.7-0.4-1.1-0.5c0.2-0.4,0.4-0.8,0.6-1.2c0.5,0.9,0.9,0.6,1.2-0.1c0.2-0.5,0.6-0.9,0.7-1.4c0.3-0.9,1-1.8,0.4-3
		c-1.1,1.4-1.2,3.4-3,4c-0.4-0.5-0.7-0.9-1.1-1.4c-0.1,0-0.2,0-0.3,0c0.2,2,0.9,4-1.2,5.5c0.1-2.7,0-5.3-0.4-7.8c-0.1,0-0.3,0-0.4,0
		c-0.2,1.5-0.4,3-0.6,4.5c-0.1,0-0.2,0-0.4,0c-0.3-1.1-0.6-2.1-0.8-3.2c0,0-0.1,0-0.1,0.1c0-0.4,0.1-0.7,0.1-1.1
		c-0.1,0-0.2,0-0.3-0.1c-1,1.1-2.1,2.2-3.3,3.5c0.2-1.6,0-1.8-0.9-1.8c0.4,2-2,1.9-2.3,3.4c0.2-1.3,0.9-2.5,0.5-3.9
		c-0.7,1.3-1.4,2.6-2.1,4c-0.2,0-0.3-0.1-0.5-0.1v-3.8c-0.6,0.5-1,0.8-1.3,1.1c0-0.3,0-0.5,0-0.8l-0.4-0.1c-0.6,1.1-1.2,2.1-1.7,3
		c-0.2-0.8-0.4-1.7-0.6-2.7c-0.1-0.3-0.2-0.5-0.3-0.7c-0.2,0.4-0.4,0.9-0.6,1.4c0.2,1.1,0.1,2.1,0.3,3.2c-0.4,0-0.8,0-1.2,0.1
		c-0.1,0.3-0.1,0.6-0.2,0.9c0.6,0.1,0.7,0.4,0.6,1.2c-0.2,1.6-0.7,3.1-1.1,4.8c0,0,0-0.1-0.1-0.1c0,0.9,0,1.8,0,2.7
		c0.3,0,0.7-0.1,1-0.1c0.9-0.1,1.8-0.3,2.6-0.3c0.8,0,1.5,0.3,2.3,0.3c1.3,0.1,2.6-0.4,3.9,0c0.2,0.1,0.4-0.1,0.6-0.1
		c0.4-0.1,0.7-0.2,1.1-0.2c1,0,2.1,0.1,3.1,0.2c0.9,0.1,1.9-0.2,2.5,0.3c0.7,0.5,1.4,0.3,1.9,0.1c1.8-0.5,3.6-0.3,5.3,0.2
		c0.4,0.1,0.8,0.1,1.1,0c0.3-0.1,0.6-0.3,0.7-0.6C275.7,131.1,275.4,130.8,275.3,130.5z M254.5,124.3c-1-0.8-0.9-3.3,0.1-5.8
		c0,0.9-0.1,1.7-0.1,2.6C254.4,122.3,254.5,123.3,254.5,124.3z M259.1,125.1c-0.1,0-0.2-0.1-0.3-0.1c0.5-1.4,1-2.9,1.5-4.3
		c0.1,0,0.2,0.1,0.4,0.1C260.2,122.2,259.7,123.6,259.1,125.1z M263.4,124.7c-1.5-1.8-1.3-4,0.9-5.4
		C264,121.1,263.7,122.9,263.4,124.7z M268.3,129.8c-0.4-2.5-0.1-4.9,1.3-7.2c0.1,0,0.2,0,0.3,0.1c-0.4,2.4-0.8,4.8-1.1,7.2
		C268.6,129.8,268.4,129.8,268.3,129.8z M271.8,129.7c-0.7-0.1-1.4-0.2-2.3-0.3c0.3-1.7,0.6-3.3,1-5
		C271.6,125.3,272.1,127.7,271.8,129.7z"/>
	<path d="M51.1,24.9c0-0.5,0-0.8,0.1-1c0.5-1.3,3.3-2.5,4.7-2.1c1.1,0.3,1.2,0.8,0.8,1.8C54.4,21.7,52.9,23.5,51.1,24.9z"/>
	<path d="M53.9,25.7c-0.1-1.3,0.6-1.7,1.2-1.6c0.5,0.1,0.9,0.7,1.3,1.1c-0.5,0.4-0.9,1-1.5,1.2C54.6,26.5,54.1,25.9,53.9,25.7z"/>
	<path d="M74.4,125.6c-0.1-0.8,0.2-1.2,1-1.2c0.7,0,1.8,0.8,1.6,1.3c-0.2,0.6-0.8,1.2-1.3,1.4C75,127.3,74.5,126.6,74.4,125.6z"/>
	<path d="M28.2,127.9c0.8-0.4,0.8-2,2.2-1.3c0.6,0.3,1.4,0.5,1.2,1.4c-0.2,0.9-0.7,1.5-1.6,1.7C28.5,130.1,28.7,128.7,28.2,127.9z"
		/>
	<path d="M153.9,125.2c0,0.9-0.5,1.2-1.2,1.2c-0.7,0-1.2-0.3-1.2-1.1c0-0.9,0.7-1.1,1.4-1.1C153.4,124.2,154,124.5,153.9,125.2z"/>
	<path d="M120.1,123.7c1,0.2,1.4,0.5,1.4,1.3c0,0.8-0.5,1.1-1.1,1.1c-0.8,0-1.3-0.6-1.3-1.3C119.1,124.5,119.7,124.1,120.1,123.7z"
		/>
</g>
<g>
	<g id="XMLID_17_">
		<g>
			<path d="M138.2,186.6c1.8,0.6,1.8,0.6,1.6,2.1c-0.3-0.5-0.4-0.9-0.7-1.2C138.9,187.1,138.5,186.9,138.2,186.6z"/>
			<path d="M135.4,179.3c-0.4,0.6-0.9,1.3-1.5,1.6c-1.5,0.7-2.6,0-3.5-2.1c2.7,2.3,3.6,2,5-1.7C135.8,178,135.8,178.7,135.4,179.3z"
				/>
			<path d="M131.5,169.6C131.5,169.7,131.5,169.7,131.5,169.6C131.4,169.7,131.4,169.7,131.5,169.6
				C131.4,169.7,131.5,169.7,131.5,169.6z"/>
			<path d="M99.3,154c1.3,1,2.4,0.6,3.5-0.1C101.7,153.3,100.6,153.1,99.3,154z M98.6,153.9c1.5-1.8,3.9-1.7,5.2,0.1
				c-0.8,1.5-2.3,1-3.6,1.1C99.4,155.1,98.7,154.9,98.6,153.9z"/>
			<path d="M92.3,174.8c2.8-2.2,4.5-2.2,6.4-0.3c-1.2-0.3-2.3-0.7-3.3-0.6C94.4,173.9,93.4,174.4,92.3,174.8z"/>
			<path d="M97.6,177.1c-1.5,1.9-3.1,1.9-4.8-0.2c0.8,0.3,1.5,0.8,2.3,0.8C95.8,177.7,96.5,177.3,97.6,177.1z"/>
			<path d="M94.2,175.5c0.7,0,1.3,0,2,0C95.1,176.3,95.1,176.3,94.2,175.5z"/>
			<path d="M94.1,151.8c1.6,0.7,3,0.6,4.2-0.5C96.5,150.3,95.2,150.4,94.1,151.8z M93.3,151.9c0-0.4,0.2-1,0.6-1.1
				c0.9-0.4,1.9-0.6,2.8-0.8c1.6,0.2,2.2,0.6,2.3,1.4c0.1,0.9-0.6,1.4-2.1,1.5c-0.9,0-1.8,0-2.7-0.1
				C93.7,152.6,93.3,152.2,93.3,151.9z"/>
			<path d="M91.8,156.1c1-2.1,2.8-2.6,4.9-1.1c-0.3,1.4-1.1,2.1-2.4,2.2C93.3,157.2,92.2,157.3,91.8,156.1z M92.5,156
				c1,0.9,1.9,0.8,2.7,0.2c0.4-0.3,1-0.8,0.3-1.5C94.4,154.8,93.2,154.7,92.5,156z"/>
			<path d="M90.4,153.6c-1.4-1.6-3.3-1.1-4.4,1.4C87.5,155.6,88.6,155.3,90.4,153.6z M88.5,152c1.1-0.2,2.3,0.2,2.7,1.7
				c-2.4,2.5-4.6,2.9-6.2,1.2C85.6,153.3,86.9,152.3,88.5,152z"/>
			<path d="M80.8,158.4c1.7,0,1.7,0,2.4-1.8C82,157.1,81,157.1,80.8,158.4z M83.9,156.6c-0.2,2-1.2,2.7-3.7,2.4
				c-0.4-0.9-0.1-1.6,0.6-2C81.7,156.5,82.7,155.8,83.9,156.6z"/>
			<path d="M144.5,187.6c2.3-0.6,3.6-3.2,2.9-5.9c-0.9,0.6-1.6,1-2.4,1.5c-0.9,0.6-1.8,0.1-2.7,0c-0.4,0-1.1,0.4-1.2,0.8
				c-0.3,1.1,0.2,2.1,0.9,3C142.6,187.7,143.5,187.9,144.5,187.6z M136.1,191.9c0.3-0.4,0.5-0.6,0.8-1.1c-0.5-0.2-0.9-0.3-1.5-0.5
				c0.1,0.5,0.1,0.7,0.2,0.9C135.6,191.5,135.8,191.6,136.1,191.9z M138.5,173c1.2,1.4,2.3,2.6,3.3,3.8c1.1-0.5,2.3-1,3.4-1.6
				c2.6-1.4,4.8-3.3,5.9-6.1c0.1-0.4,0-0.8,0-1.2c-0.9,0.4-1.5,1-2.1,1.7c-1,1.1-2.1,1.8-3.7,1.8c-1.1,0-2.3,0.2-3.4,0.4
				C140.7,172.1,139.6,172.6,138.5,173z M144.3,191.9c-1.5-1.7-3.1-1.3-4.9-0.6c0.1,1,0.2,2,0.4,2.9
				C141.8,194.7,142.6,194.3,144.3,191.9z M125.7,201.6c2.3-0.9,2.7-1.6,2.5-3.6c-1.1-0.9-2.3-0.9-3.6-0.5
				C124,199.1,124.3,200.4,125.7,201.6z M116.8,199.7c1.4-0.6,1.9-1.6,1.5-3.8c-0.4-0.1-0.7-0.2-1-0.3c-0.8-0.1-1.7,0.1-1.8,0.9
				c-0.2,0.9-0.2,2,0,2.9C115.5,200,116.3,199.9,116.8,199.7z M120.5,190.7c0.8-0.1,1.5-0.4,2.3-0.6c-1.2-2.3-2.2-2.8-4.7-2.2
				c0,0.8,0.6,1.8-0.7,2.6c0.2-1,0.5-2-0.5-2.5c-1.2,1.6-1.2,1.6-2.3,2.2c1.4-1.9,2.1-3.8,0.5-5.9c1.7,0.5,1.4,2,1.9,2.9
				c1.2-0.1,2.3-0.2,3.5-0.3c-0.1-1-0.1-1.8-0.2-2.6c-2.3-0.8-3.7-2.1-3.6-4.7c-2.6-0.7-2.6-2.6-2.3-4.8c-1.9-1.4-1.5-3.2-0.9-5.1
				c-1.6-1.6-0.8-3.2,0.2-4.6c0.5-0.7,0.8-1.4,1-2.3c0.3-1.5,0.9-2.9,2.6-3.5c0.8-0.3,1-1.1,1.2-2c-1.5,0-2.8-0.1-4.2,0
				c-1.3,0.2-2.5,0.6-3.7,0.9c-0.1-0.1-0.1-0.2-0.1-0.4c0.7-0.4,1.3-0.8,2-1.2c0-0.1-0.1-0.3-0.1-0.4c-1.1-0.1-2.2-0.1-3.4-0.2
				c0.1-0.4,0.2-0.8,0.4-1.4c-0.6-0.5-1.2-1.2-1.9-1.7c-3.7-2.8-8-3.7-12.5-3.9c-1.6-0.1-3.3-0.1-4.8,0.4c-5.1,1.7-9.8,4.3-13.2,8.5
				c-0.8,1-1.7,1.6-2.6,2.3c-5.7,4.6-10.1,10.3-13.4,16.8c-2,3.9-2.7,8.2-1.8,12.6c0.8,3.8,2.5,7,6,9c2.1,1.2,4.4,2.1,6.6,3.1
				c3.9,1.7,7.8,0.9,11.6-0.5c1.8-0.6,3.4-1.8,5.1-2.9c2.8-1.8,5.7-3.6,9.1-4.1c1.6-0.2,3,0,4.1,1.1c1.1,1,2.3,2.1,3.3,3.3
				c0.6,0.6,1,1.3,2,1.2c0.8-0.8,0.8-1.7,0.3-2.6c-1.7-3.3-3.5-6.5-7.4-7.8c-4-1.4-8-1.7-12-0.1c-2.8,1.1-5.6,2.2-8.8,1.9
				c-1.5-0.1-2.6-0.6-3.5-1.6c-1.2-1.4-1.9-3.1-2-5c-0.1-1,0-1.9,0.8-2.8c-0.4,2.9,0.2,5.5,2.6,7.9c-0.9-4,0.4-6.9,2.5-9.3
				c0.3-1.2-0.3-2.4,0.7-3.5c0.1,0.9,0.1,1.5,0.2,2.6c0.8-1,1.4-1.7,1.9-2.3c-0.3,1.5-1.2,2.6-2.2,3.6c-1.3,1.3-2,2.8-2.6,4.5
				c-0.6,1.8-0.3,3.4,0.8,5c2.1,0.1,4.2,0.3,6.2-0.5c3.4-1.4,6.9-2.5,10.9-2.3c0.8-1.4,1.6-3,2.6-4.4c2-2.9,2.5-6.2,2.6-9.6
				c0-2.6-1.7-4.5-4.1-5.4c-2.9-1-5.8-0.4-8.7,0.2c-0.4,0.1-0.8,0.1-1.1,0.1c0-0.2-0.1-0.3-0.1-0.5c1-0.4,2-0.7,3.1-1.1
				c-0.9-1.6-2.5-2-4.3-2.7c0.7-0.2,1-0.4,1.2-0.4c1.5,0.8,3.1,1.4,4,3.2c0.5,0,0.9,0,1.3,0c0.5,0,0.9-0.1,1.4-0.1
				c4.3,0.2,6.9,1.8,7.8,5.9c0.2,1.1,0,2.3-0.1,3.4c-0.3,2.6-0.9,5-2.4,7.2c-0.9,1.3-1.7,2.7-2.5,4.2c2.5,0.9,4.8,1.7,7.1,2.6
				c0.9-4.7,0.9-4.7,2.3-5.4c-0.2,0.3-0.4,0.5-0.5,0.8c-1,1.8-1.4,3.9-0.6,5.6c0.9,2.3,2.6,4.2,4,6.2c2.1,0,4.1,0,6,0
				c0.2-0.3,0.3-0.5,0.3-0.7C115.3,193.1,117,191.1,120.5,190.7z M128.5,156c-2-1.7-4.3-1.4-6.5,1.1c-2-0.1-3.1,1.1-3.6,3.2
				c-1.4-0.5-2.2,0.2-2.5,1.4c-0.3,1-0.4,2-0.6,2.8c-0.6,0.9-1.3,1.7-1.7,2.5c-0.7,1.3,0.3,1.9,1.1,2.6c-1.6,2.8-1.5,3.4,0.8,4.9
				c-1.1,3.1-0.9,3.5,1.8,4.5c0.4,1.3,0.4,2.5,1.1,3.3c0.7,0.8,2,1,3.1,1.5c-0.5,1.5-0.6,3.2,0.8,4.4c1.3,1.1,2.9,1.1,4.6,0.8
				c0.4,0.9,0.9,1.7,2,1.8c1.2,0.1,1.3-0.9,1.8-1.8c2,4,3.7,5,5.8,3.5c-2.1,0.2-1.8-1.3-1.9-2.3c-1.1-1.3-2-2.4-2.9-3.5
				c1.2-0.9,2.3-1,2.5-0.3c-0.3,0.2-0.7,0.4-1,0.6c0.9,2.8,3.7,2.5,5.5,3.7c2-1,3.9-1.3,6.1,0c-0.1-0.9-0.1-1.5-0.1-2.3
				c-2.2,0-3.6-0.8-4.2-2.9c-0.5-1.7,0.2-2.7,1.3-3.3c-0.2-1.3-0.4-2.4-0.6-3.6c-0.3-2.1-1.3-3.7-3.3-4.7c-0.4,0.3-0.8,0.5-1.1,0.8
				c-1.6,1.3-3.3,1.6-5.2,0.6c-1-0.5-1.5-1.2-1.6-2.1c-0.1-1-0.5-2.2,0.7-2.9c0,0,0,0,0,0c0,0.7-0.1,1.3-0.1,2c0,1,0.4,1.8,1.3,2.3
				c1.7,0.9,3.2,0.8,4.6-0.6c1.5-1.5,3.2-2.6,5.1-3.6c2.7-1.4,4.3-3.7,4.8-6.6c0.1-0.8,0.1-1.6-1-2.2c-0.3,0.5-0.8,0.9-1,1.4
				c-1.3,3.2-3.9,4.7-7,5.2c-2,0.4-4,0.7-6,1.4c0,0,0,0,0.1-0.1c0.5-0.4,1-0.9,1.6-1.2c1-0.4,2-0.7,3.1-1c0.6-2.3,2.1-4,3.7-5.3
				c-0.7-0.8-1.5-1.3-1.9-2.1c-0.6-1.3-1.6-2-2.9-2.5c-0.4,0.1-0.8,0.3-1.4,0.5c0-1.4-0.7-2.3-2-2.5
				C130.9,155.6,129.8,155.9,128.5,156z M123.7,197.5c-0.2-0.2-0.3-0.6-0.6-0.8c-0.9-0.7-2.4-0.8-3.2-0.3c-0.7,0.4-0.8,1.5-0.4,2.8
				c0.1,0.3,0.2,0.5,0.3,0.8c0.6,1.1,1.4,1.3,2.2,0.5C122.9,199.6,123.6,198.8,123.7,197.5z M123.6,189.6c-0.6,1.3,1,0.9,1,2
				c-1.6-0.5-3.2-0.5-4.9-0.1c-1.7,0.5-3.3,1.2-3.6,3.1c1,0.3,1.8,0.6,2.7,0.8c0.4,0.1,0.8,0.1,1.2,0c1.6-0.3,3.1,0,4.2,1.2
				c2.1-0.4,3.9-0.3,5.2,1.7c2.2-1,3.9-2.2,3.8-4.7c-0.9-0.9-1.7-1.8-2.5-2.7c-1.2,0.6-2.5,0.8-3.4-0.3
				C126.1,189.6,124.8,189.7,123.6,189.6z M125.8,202.4c-1.4-0.3-1.7-1.4-2.2-2.5c-0.4,0.4-0.8,0.8-1.1,1.1c-1.4,1.3-2.5,1-3.3-0.7
				c-0.2-0.3-0.3-0.6-0.4-0.9c-2.6,2-3.7,1.7-4.6-1.2c-1.8,0-3.7,0-5.7,0c-0.1,0.3-0.1,0.6-0.2,0.9c-0.2,0.8-0.5,1.5-1.4,1.5
				c-0.9,0.1-1.8,0-2.3-0.9c-0.8-1.4-2-2.6-3.3-3.5c-1.3-0.9-2.6-1.3-4.2-1c-2.5,0.6-4.9,1.4-7,3c-2.3,1.7-4.6,3.4-7.3,4.2
				c-4.5,1.3-9,1.8-13.3-0.6c-1.4-0.7-2.8-1.3-4.2-2.1c-4.8-2.6-6.8-6.9-7.2-12.1c-0.4-5.2,1.2-9.9,4-14.1c2.9-4.4,5.9-8.8,10-12.1
				c2.2-1.8,4-4,6.1-5.8c2-1.8,4.4-3.3,6.8-4.7c1.4-0.8,2.9-1.4,4.4-1.9c1.1-0.4,2.4-0.7,3.5-0.7c4.1,0.1,8.2,0.4,12,2.4
				c2,1.1,4.1,2,5.4,4.1c0.1,0.2,0.2,0.4,0.4,0.4c1.7,0.2,3,1.6,4.8,1.4c0.9-0.1,1.9,0.1,2.8,0.1c1.6,0.1,3-0.1,4.2-1.3
				c1.6-1.5,4.7-1.4,6.3,0c2.9-1,3.9-0.7,5.8,1.6c1.9,0.3,3.4,1.2,4.1,3.1c0.3,0.8,0.4,0.8,2.4,1.3c-1.2,2.2-3.9,3.3-4.1,6
				c2.2,0.2,5-1.4,6.2-3.6c0.3-0.5,0.5-1.1,0.8-1.6c0.4-0.7,1-1.2,1.8-0.9c0.8,0.2,1.2,0.9,1.1,1.7c-0.1,1.6-0.3,3.3-1.3,4.6
				c-0.9,1.1-1.9,2.1-2.8,3.2c2.5,0.4,4.1-0.1,5.7-1.8c0.5-0.5,1-1.2,1.6-1.6c0.3-0.2,1-0.2,1.3,0c0.3,0.2,0.5,0.8,0.5,1.2
				c-0.1,0.6-0.4,1.3-0.7,1.9c-1.5,2.4-3.4,4.3-6.1,5.4c-0.2,0.1-0.5,0.2-0.7,0.3c-2.9,1.3-3,3.1-1.7,5.6c0.6,1.2,1.3,1.3,2.5,0.6
				c0.7-0.4,1.4-1,2.1-1.5c1.3,1,1.7,2.4,0.8,4.1c-0.7,1.3-1.7,2.4-2.7,3.7c0.5,2.7-0.8,5.1-3.6,6.4c-1.6,0.7-2.6,0.2-2.9-1.5
				c-0.2-0.8,0-1.8-1.2-2.2c-0.2,2.2-1.8,2.6-3.6,2.7c-0.6,2.5-2,4.1-4.4,5c-0.4,0.2-0.8,0.7-1.1,1.1
				C127.9,201.2,127.1,202.1,125.8,202.4z"/>
		</g>
		<g>
		</g>
	</g>
</g>
<path fill="none" stroke="#000000" stroke-miterlimit="10" d="M213.2,132.3c0.2,0.7,0,1.5-0.6,1.9c-6.3,9.5-17.5,11.3-28,12.2
	c-13.6,1.1-28.1-0.9-41.8-0.8c-11.9,0-24.3-1.7-36.2-0.8c-19.8,1.5-45-4.4-61.2,11.2c-6.3,6.1-13.3,13.8-13.7,23
	c-0.4,11.8,9.5,21.9,20.6,25.7c11.1,3.9,23.3,2.9,35,2.1c39.8-2.8,79.7-3.5,119.6-2c10.1,0.4,20.9,0.7,29.6-4.5
	c6.5-3.9,11.1-10.5,13.6-17.7c2.5-7.2,3.2-14.8,3.3-22.4c0.2-9.4-0.5-18.7-1.9-28"/>
</svg>
