<?xml version="1.0" encoding="utf-8"?>
<!-- Generator: Adobe Illustrator 17.1.0, SVG Export Plug-In . SVG Version: 6.00 Build 0)  -->
<!DOCTYPE svg PUBLIC "-//W3C//DTD SVG 1.1//EN" "http://www.w3.org/Graphics/SVG/1.1/DTD/svg11.dtd">
<svg version="1.1" id="Layer_1" xmlns="http://www.w3.org/2000/svg" xmlns:xlink="http://www.w3.org/1999/xlink" x="0px" y="0px"
	 viewBox="0 0 288 216" enable-background="new 0 0 288 216" xml:space="preserve">
<g>
	<path d="M263.5,90.3c-4.5-1.4-9-3-13.6-4.1c-8.1-1.8-15.9-1.2-22.8,4.2c-0.8,0.6-2.7,0.4-3.9,0c-8-2.5-15.9-5.3-23.9-7.8
		c-1.6-0.5-3.5-0.4-5.3-0.3c-10.7,0.6-12.8,2.9-12.7,13.5c0.1,11.1,0.1,22.3,0,33.4c0,2.9,0.8,4.7,3.3,6.4c6.3,4.2,5.9,7.6-0.6,11.4
		c-1.3,0.8-2.3,2.7-2.7,4.3c-1.6,6.2,1.8,11.3,3.9,16.7c1.1,2.7,1.8,5.8,1.6,8.7c-0.1,1.6-2.4,3.1-3.7,4.7c-0.4-0.2-0.9-0.4-1.3-0.6
		c-0.2,4.6-0.6,9.2-0.5,13.7c0,1,1.3,1.9,2,2.9c0.8-1.2,2.2-2.3,2.4-3.6c0.2-1.3-0.8-2.8-1.3-4.2c-0.8-2.2-0.8-4.5,1.8-4.8
		c2.1-0.2,5.4,0.3,6.4,1.7c3.1,4.5-2.1,16.2-7.4,17.6c-5,1.3-8.9-0.9-9.6-6c-0.6-4-0.7-8.1-0.6-12.2c0-2.1,0.4-3.8-2.4-4.2
		c-0.8-0.1-2-0.8-2.3-1.6c-1.8-4.2-4.8-3.1-8-2.4c-4.5,0.9-9.1,1-13.6,2c-2.1,0.4-3.9,2-5.8,3.1c-1.7,1-3.4,2.2-5.2,3.3
		c2.4,0.8,4.6,1.4,6.7,2.4c2.2,1,4.2,2.5,3,5.4c-1.2,2.9-3.6,2.4-5.9,1.5c-2.5-1-4.9-2.1-7.2-3.1c-0.1,2.1,0.4,4.6-0.6,5.6
		c-1,1-3.7,1.1-5.2,0.5c-10.8-4.6-21.6-2.5-32.4-0.5c-7.4,1.4-7.4,1.5-8.1-6.3c-1.4,0.2-2.9,0.2-4.2,0.6c-6.6,1.8-12.9,1.4-18.6-2.8
		c-3.7-2.8-7-3-10.7,0.7c-2.5,2.5-6,4.2-9.1,6.1c-3.5,2.1-7,2.7-11.2,1.1c-3.2-1.3-6.8-1.2-10.3-1.7c0-1.6,0-3.3,0-4.9
		c1.6-0.5,3.1-1.1,4.7-1.4c2-0.4,3.9-0.5,4.5-3.1c0.2-0.8,1.8-1.5,2.9-1.9c2.7-0.9,5.4-1.7,8.2-2.5c7.2-2,13.2-5.6,17.1-12.2
		c0.6-1,1.4-2,2.3-2.9c0.6-0.6,1.6-0.9,2.4-1.4c0.5,0.9,1,1.7,1.4,2.7c1.5,4.5,2.5,9.2,4.4,13.5c3,7,5,7.3,11.6,2.7
		c-7.6-6.4-8.8-10.2-3.6-19.2c4.5-7.8,10.3-14.9,15.5-22.3c1-1.4,2.1-2.7,3.8-5c-5.7-1.3-10.6-2.3-15.4-3.4c1.1,2.2,3.1,4.4,2.6,5.5
		c-0.8,1.6-3.2,2.8-5.1,3.2c-2.6,0.5-4.7-0.9-5.4-3.8c-0.1-0.5-0.4-1-0.8-2.1c-1.4,0.8-2.6,1.6-3.8,2.1c-2.6,1-5.2,2.3-8,2.7
		c-1.1,0.2-2.5-1.8-3.8-2.7c1.1-1,2-2.2,3.3-3c0.8-0.5,2-0.4,3.1-1.2c-1.9-0.5-4-0.7-5.5-1.7c-1.3-0.9-2-2.7-2.9-4.1
		c1.6-0.5,3.2-1.4,4.7-1.4c1.4,0,2.8,1,4.1,1.6c0.1-0.2,0.3-0.5,0.2-0.6c-1.8-1.9-4-4-1.3-6.5c2.7-2.5,5.2-0.2,6.4,1.9
		c2.8,4.7,6.8,5.2,11.6,4.5c6-0.8,11.9-0.2,17.5,2.4c1.2,0.5,3.3,0.3,4.3-0.5c3.6-2.7,7-5.6,10.2-8.7c0.9-0.8,0.9-2.9,0.8-4.3
		c-0.5-4.6-1.7-9.1-1.7-13.6c0-9.1,6.8-13.7,14.8-9.5c6.4,3.3,12.1,8.1,17.6,12.8c2.7,2.3,5.1,4.5,8.8,3.7c1.6-0.4,3.2-1.3,4.6-2.3
		c2.4-1.9,4.3-4.6,6.9-6.1c4.4-2.5,7.6-0.7,8.7,4.2c0.5,2.4,0.5,4.9,1.3,7.4c0-7.6-0.1-15.1,0-22.7c0-3.7-2.3-5-5.2-5.7
		c-12.4-3-24.3-1.3-35.4,5c-2.6,1.5-4.7,1.7-7.1,0.1c-0.2-0.2-0.5-0.3-0.7-0.4c-8.2-4-8.4-3.9-13.5,3.3c-0.5,0.7-1.1,1.4-2.5,1.7
		c1.3-2.5,2.5-4.9,4.2-8.1c-6.2,0-11.9,0-18.4,0c1-1.4,1.3-2.2,1.9-2.8c8.8-8.6,19.7-13.8,30.9-18.4c14.9-6.2,30.2-10.7,46.6-10
		c29.8,1.4,58.5,6.3,81,28.5c1.5,1.5,3.2,2.9,4.8,4.3C263.5,89.2,263.5,89.7,263.5,90.3z M156.7,175.1c1.4,0.1,2.7,0.4,4.1,0.2
		c4.5-0.7,9.2-2.2,11.8,3.7c0.2,0.4,1.9,0.3,2.9,0.2c0.4-0.1,0.9-1.3,0.8-1.6c-0.5-1-1.2-2.1-2.2-2.5c-3.7-1.6-4.3-2.6-3-6.6
		c0.8,1.3,1.5,2.5,2.4,3.9c2.3-2.2,2-4.4,0.8-6.5c-0.4-0.8-2.3-1.6-2.4-1.5c-1.1,1.3-2.4,2.7-2.7,4.2c-0.6,3.5-3.3,4.1-5.8,4.9
		C161.3,174.1,159,174.5,156.7,175.1c-1.3-0.1-2.7-0.5-3.9-0.2c-1.3,0.3-2.4,1.2-3.6,1.9c0.2,0.4,0.4,0.9,0.7,1.3
		c3.1-0.5,6.2-1,9.9-1.6C158.3,175.8,157.5,175.4,156.7,175.1z M92.3,133.5c-1-2.6-3-3.5-5.7-3.3c-2,0.1-4.1-0.2-6.1,0.2
		c-4,0.8-6.8-0.7-9.3-3.6c-1.2-1.3-2.6-2.4-3.8-3.6c-0.4,0.4-0.8,0.9-1.2,1.3c1.4,1.3,2.8,2.5,4.2,3.9c0.6,0.6,1,1.5,1.5,2.2
		c-0.9,0.4-1.8,1.3-2.6,1.2c-1.7-0.2-3.4-1-5-1.4c-1.4-0.4-2.8-0.8-4.2-1.2c-0.1,0.6-0.3,1.3-0.4,1.9c4.2,0.7,8.5,1.4,12.7,2.2
		c0.1,0.4,0.2,0.9,0.2,1.3c-3.6,1.3-7.3,2.5-10.9,3.8c1.4,0.8,2.9,1.1,4.1,0.6c2-0.8,3.9-1.9,5.8-3c2.8-1.7,4.8-2.3,5.9,1.9
		c1,3.7,4.2,3.9,6.9,0.7c-1.9-1.1-3.8-2.2-5.7-3.3c0.1-0.7,0.3-1.3,0.4-2C83.4,133.5,87.9,133.5,92.3,133.5
		c4.5,1.9,8.9,3.8,13.3,5.6c-2.9,1-5.8,1.1-7,2.5c-5,6.2-9.6,12.8-14.1,19.4c-1.8,2.6-3.2,5.4-4.3,8.3c-2.5,6.3,0.8,12.1,7.3,13.2
		c0.8,0.1,2.4-0.5,2.6-1c0.9-3.4,1.4-7,2.3-11.5c-2.9,1.7-4.8,2.8-6.6,3.8c-0.2-0.4-0.5-0.7-0.7-1.1c2.9-2.2,5.7-4.4,9.3-7.2
		c0,2.3,0.2,3.5,0,4.6c-1.3,7.3-2.6,14.7-4.1,22c-0.7,3.3,0.3,4.7,3.7,4c2.4-0.5,4.8-0.8,7.2-1.2c9-1.4,18-2.8,26.8,1.4
		c1.2,0.6,2.9,0.1,4.3,0.1c-3.3-5.2-8.7-3.2-12.9-5.1c4.3-0.6,8.5-1.4,12.7-1c4.2,0.4,8.3,2.1,13.3,3.5c-1.5-4.1-4.1-4.9-6.7-5.2
		c-2.7-0.4-5.4-0.3-8.1-0.3c-2.5,0-5.1,0.3-7.6,0.4c0-0.3,0-0.6-0.1-0.9c2.7-0.5,5.5-1.1,8.2-1.6c-5.5-0.4-10.9-0.2-16.2,0.7
		c-5.2,0.9-10.3,2.5-14.7,3.6c2.7-3,2.6-3.9-0.1-5.6c0.3-1.8,0.9-3.3,0.7-4.7c-0.9-5.3-1.9-10.7-3.2-16c-0.9-3.9-2.2-4.2-5.3-1.6
		c-1.7,1.4-3.2,3-4.7,4.5c-1.1,1.1-2.3,2.2-3.4,3.3c-0.4-0.5-0.8-0.9-1.2-1.4c3.6-3.2,7-6.5,10.8-9.4c2.5-1.8,4.7-0.8,5.5,2.3
		c0.8,3,1.6,6,2.1,9.1c1,5.3,1.9,10.6,2.8,16c1.3-0.2,2.1-0.3,2.9-0.4c9.2-1.7,18.2-4.6,27.7-2.3c0.5,0.1,1.1,0,1.6-0.3
		c7.4-4.4,12.9-10.4,16.2-18.4c-3.2,1.7-6.1,3.9-9.1,5.8c-5.3,3.4-11.1,5.1-17.5,3.6c-6.3-1.5-8.5-5.2-6.7-11.5
		c1.8-6.4,6.3-10.2,12-13.1c10.5-5.2,21.6-5.6,33-4.3c6.2,0.7,12.4,1,18.3-1.9c1.2-0.9,2.5-1.8,3.7-2.7c-0.9-1.1-1.6-2.5-2.7-3.3
		c-2.1-1.4-4.5-2.5-6.7-3.8c-2.3-2-4.3-2.2-7.2-0.4c-2.2,1.4-5.5,2.3-8,1.9c-3.4-0.5-5.1,0.6-6.9,3.2c-2.9,4-6,4.9-9.7,3.2
		c0.9-0.4,1.7-0.7,2.9-1.2c-9.7-0.9-15.8-6.4-20.6-13.8c-1.1-1.8-2.4-3.4-3.2-4.6c1-7.7,2-15.2,2.9-21.8c4.8,2.4,10.4,4.3,15,7.6
		c4.8,3.4,8.8,8.2,13.2,12.4c0.8-1.5,1.6-3.2,2.3-4.7c-1.8-3.2-3.8-4.5-6.3-1.3c-2.5-2.5-4.7-5-7.2-7.1c-4.9-4-9.8-8.2-15.2-11.5
		c-5.8-3.6-10.7-1-11.2,5.7c-0.3,3.9-0.1,7.9,0.8,11.7c1.3,5.1,3.5,10,5.5,15.6c-2.2-2.4-4.1-4.4-6.4-6.8
		c-4.2,3.4-8.4,6.7-12.6,10.1c0.7,1.4,1.3,2.4,2.4,4.4C102.1,133.7,98,129.6,92.3,133.5z M257.1,85.9c-15.2-16-50.3-29.1-68.4-25.9
		c13.2,8.3,26.9,16.1,36.6,29.1C235.1,81.1,245.5,81.9,257.1,85.9z M104.9,82.7c0.3,0.4,0.5,0.7,0.7,0.7c8.6-0.3,17.1,0.5,25,4.5
		c0.9,0.4,3.3-0.5,4-1.5c5.6-7.8,13.2-13.2,21.2-18.2c5.7-3.5,11.5-6.8,17.2-10.1C147.8,59.4,125.8,69.4,104.9,82.7z M176.9,162.9
		c0-4.1,0.3-7.7-0.1-11.3c-0.1-1.2-2-3.1-3.1-3.1c-6.8-0.2-13.7-0.9-20.3,2.3c-3.9,1.9-8.6,2.3-12.9,3.4c-1.4,0.4-2.8,0.9-4.2,1.3
		c2.2,1.6,4.7,1.7,6.4,3c1.6,1.2,3.2,3.5,3.2,5.4c0,1.1-3,2.6-4.9,3.1c-2,0.5-4.2-0.1-6.9-0.3c0.6,2.2,1,3.9,1.6,5.9
		c1.5-0.7,2.6-1,3.5-1.6c4.1-2.7,8-5.5,12.2-8.1c1.2-0.8,2.9-0.8,4.3-1.1c0,1.5,0.4,3.2,0,4.6c-0.5,1.9-1.5,3.6-2.8,6.6
		c4.3-0.8,7.6-1.1,10.7-2.1c1.5-0.5,3-2.1,3.6-3.6C169.2,162.2,170.8,161.2,176.9,162.9z M130.5,104.7c-1,5-1.7,8.6-2.4,12.1
		c-0.2,1.3-0.7,2.7-0.5,4c1.4,9.3,13.1,18.4,22.6,17.6c3.1-0.3,4.7-1.8,4.8-4.9c0.3-5.8-2.4-10.3-4.8-13.9c-2.8,0-5.9,0.3-6-0.1
		c-0.5-2-0.2-4.3-0.2-6.4c0.3-0.3,0.6-0.6,1-0.9C140.1,109.7,135.4,107.2,130.5,104.7z M177.1,84.6c0.2-1.8,0.4-3,0.6-4.1
		c0.5-5.3,0.9-10.5,1.5-15.8c0.6-5.2-0.4-6.2-5.2-4.1c-13.4,5.7-24.9,14-35.8,25.5C151.6,80.8,164.1,79.4,177.1,84.6z M66,169.1
		c-0.5-0.4-1.1-0.9-1.6-1.3c-5.7,13-18,15.4-29.5,19.4c5.6,2.9,9.4-2.2,14.3-2.3c-0.9,1.1-1.8,2.2-3,2.6c-4,1.2-8,2.1-12.1,3.1
		c-2.7,0.6-6-0.6-8.5,3c9.8,2.9,16.8-3.2,24.6-6.1c0.1,0.3,0.3,0.7,0.4,1c-4.3,2.4-8.6,4.8-12.9,7.3c10.1-2.4,18.3-7.5,23.5-17.3
		c0.1,0.9,0.4,1.7,0.2,2.2c-1.4,3.5,0.8,4.7,3.3,6.6c7.2,5.3,14.9,4,22.6,2.2c0.9-0.2,1.5-1.8,2.2-2.8c-1.1-0.4-2.3-1.3-3.2-1.1
		c-2.8,0.7-5.4,1.7-8.1,2.8c-2.5,1-4.4,0.5-6-1.7c-2.2-3-4.5-6-6.3-8.4C66,175,66,172.1,66,169.1z M219.1,85.5
		c-10.5-10.7-22.4-19.4-36.4-25.5c-0.7,7.9-1.4,15.3-2.1,23.4C194.2,76.9,206.7,79.9,219.1,85.5z M160.5,118.6
		c-0.2-0.4-0.4-0.8-0.6-1.1c-3.1,3.7-3.8,7.6-2.5,12.4c0.8,3.2,2.4,4.3,5.3,4.3c5.2,0.1,8.7-2.4,10.7-7.7c2-5.3,1-12.7-2.4-15.2
		c-1.2-0.9-3.1-0.8-4.7-1.1c-0.1,0.3-0.2,0.7-0.3,1c2.3,1.9,3.7,4.6,1.2,6.6C165.7,118.9,162.8,118.4,160.5,118.6z M178.9,183.2
		c-0.4,0-0.7,0-1.1-0.1c0,4.8-0.4,9.7,0.1,14.5c0.4,4.3,5.4,5.8,8.6,2.9c3.3-3,4.4-7.1,3.9-11.5c-0.1-0.9-1.9-1.5-3-2.3
		c-0.2,1-0.7,2.2-0.4,3c2,5.9,1,8.5-4.8,11.1C176.4,196,179.2,189.3,178.9,183.2z M123.4,164.4c4.8,0,10.1,0.1,15.5-0.1
		c1.4,0,2.8-0.9,4.1-1.4c-1.2-1-2.4-2.7-3.8-2.9C133,158.8,127.6,161.2,123.4,164.4z M121,168c3.1,4.8,6.7,5.9,12,4.2
		c-0.7-2.1-1.4-6.1-2.2-6.1C127.8,166,124.7,167.1,121,168z M135.1,156.1c-6.9-2.7-10.1-0.8-11.9,5.8
		C127,160,130.6,158.3,135.1,156.1z M162.1,109.4c3.4-0.5,7.3-1,11.9-1.7c-1.2-1.3-2.5-3.8-3.9-3.8
		C165.8,103.7,163.8,107.2,162.1,109.4z M179.1,130.7c0,0,0.1,0,0.1,0c0-9.5,0-19,0-28.6c0,0-0.1,0-0.1,0
		C179.1,111.6,179.1,121.1,179.1,130.7z M184,168.6c-1.7,0.6-2.6,0.7-3.2,1.1c-1.2,0.9-2.3,2-3.4,3.1c0,0,0.8,1.1,0.9,1.1
		c1.5-0.7,3.1-1.4,4.5-2.3C183.4,171.2,183.4,170.2,184,168.6z M182.6,165.4c-0.2-0.5-0.3-0.9-0.5-1.4c-1.5,0.3-3.2,0.3-4.5,1.1
		c-0.5,0.3-0.1,2.2-0.1,4.5C179.9,167.7,181.2,166.6,182.6,165.4z M179.6,176.2c0.2,0.6,0.3,1.3,0.5,1.9c1.5-0.3,3-0.6,4.5-1.1
		c0.1,0-0.1-1.1-0.1-1.8C182.9,175.6,181.2,175.9,179.6,176.2z"/>
	<path d="M229.3,34.5c0.3,7.7,0.7,15.4,1,23.1c-0.7,0-1.4,0-2.1,0.1c0-7.7-0.1-15.3-0.1-23C228.2,34.6,228.6,34.6,229.3,34.5z"/>
	<path d="M209.5,31c0.4,6.8,0.8,13.5,1.2,20.3c-0.6,0-1.2,0.1-1.8,0.1c-0.3-6.8-0.6-13.5-0.9-20.3C208.4,31,208.9,31,209.5,31z"/>
	<path d="M217.4,11.2c0.4,6.8,0.8,13.5,1.2,20.3c-0.6,0-1.2,0.1-1.8,0.1c-0.3-6.8-0.6-13.5-0.9-20.3
		C216.3,11.3,216.8,11.2,217.4,11.2z"/>
	<path d="M178.2,11.2c0.4,6.8,0.8,13.5,1.2,20.3c-0.6,0-1.2,0.1-1.8,0.1c-0.3-6.8-0.6-13.5-0.9-20.3
		C177.1,11.3,177.6,11.2,178.2,11.2z"/>
	<path d="M120.6,22.2c0.4,6.8,0.8,13.5,1.2,20.3c-0.6,0-1.2,0.1-1.8,0.1c-0.3-6.8-0.6-13.5-0.9-20.3
		C119.6,22.3,120.1,22.2,120.6,22.2z"/>
	<path d="M143.3,26.9c0,5.9,0,11.9,0,17.8c-0.2,0-0.5,0-0.7,0.1c0-5.9,0-11.9,0-17.8C142.8,27,143.1,26.9,143.3,26.9z"/>
	<path d="M185.6,20.6c0,5.9,0,11.9,0,17.8c-0.2,0-0.5,0-0.7,0.1c0-5.9,0-11.9,0-17.8C185.1,20.6,185.3,20.6,185.6,20.6z"/>
	<path d="M237.5,24.7c0,5.9,0,11.9,0,17.8c-0.2,0-0.5,0-0.7,0.1c0-5.9,0-11.9,0-17.8C237.1,24.7,237.3,24.7,237.5,24.7z"/>
	<path d="M126,37.4c0,6.9,0,13.8,0,20.8c-0.3,0-0.6,0-0.9,0c0-6.9,0-13.8,0-20.6C125.4,37.4,125.7,37.4,126,37.4z"/>
	<path d="M198.3,48c4.8-3.8,9.6-1.6,10.1,4.6C205.9,49.2,202.9,46.7,198.3,48z"/>
	<path d="M149.2,31c0.4,6.8,0.8,13.5,1.2,20.3c-0.6,0-1.2,0.1-1.8,0.1c-0.3-6.8-0.6-13.5-0.9-20.3C148.1,31,148.6,31,149.2,31z"/>
	<path d="M138.9,51.7c4.8-3.8,9.6-1.6,10.1,4.6C146.5,52.9,143.6,50.4,138.9,51.7z"/>
	<path d="M160.4,52.6c-4.8-3.8-9.6-1.6-10.1,4.6C152.8,53.7,155.7,51.2,160.4,52.6z"/>
	<path d="M27.6,176.6c2-6.1,8.5-8.2,13.1-3.8C35.2,171.2,31,172.5,27.6,176.6z"/>
	<path d="M44.3,176.2c-9.3,2.5-9.3,2.5-12.8,5.8C32.8,175.8,39.6,172.8,44.3,176.2z"/>
	<path d="M240.6,57.3c-4.9-0.4-5.9,2-8.7,2.9C233.8,56,236.7,55.1,240.6,57.3z"/>
	<path d="M226.1,60.7c-2.7-4.1-5.2-3.4-7.6-5.1C223,54.6,225.5,56.3,226.1,60.7z"/>
	<path d="M115.8,44.2c0.3,7.7,0.7,15.4,1,23.1c-0.7,0,0.2,0-0.5,0.1c0-7.7-1.7-15.3-1.7-23C114.6,44.3,115,44.2,115.8,44.2z"/>
	<path d="M128.5,64.3c-5-0.9-5.9,2-8.7,2.9C121.7,63.1,124.5,62.1,128.5,64.3z"/>
	<path d="M113.6,65.8c0.8,1.4,2.1,2.3,1.9,2.2c-4.6-2.8-7.5,1.8-8,3.2c-1.3,4.2-1.4-1.3-1.3-1.5C106.9,68.5,110.8,63.5,113.6,65.8z"
		/>
</g>
</svg>
