<?xml version="1.0" encoding="utf-8"?>
<!-- Generator: Adobe Illustrator 17.1.0, SVG Export Plug-In . SVG Version: 6.00 Build 0)  -->
<!DOCTYPE svg PUBLIC "-//W3C//DTD SVG 1.1//EN" "http://www.w3.org/Graphics/SVG/1.1/DTD/svg11.dtd">
<svg version="1.1" id="Layer_1" xmlns="http://www.w3.org/2000/svg" xmlns:xlink="http://www.w3.org/1999/xlink" x="0px" y="0px"
	 viewBox="0 0 288 216" enable-background="new 0 0 288 216" xml:space="preserve">
<g>
	<path d="M229,162.1c-5.7,4.1-11,9-17.5,11.9c-2.5,1.1-5.2,1.8-7.8,2.4c-0.6,0.2-1.7-0.2-2.1-0.7c-0.6-0.8-0.9-1.8,0.4-2.6
		c1.4-0.9,0.7-2.1-0.3-2.7c-3-1.6-4-4-4.1-7.4c-0.2-4.6-2.5-8.7-4.7-12.6c-1.2-2.2-1.3-2.1,0.5-3.7c-0.8-2.8-1.6-5.6-2.6-8.3
		c-0.2-0.7-1-1.4-1.7-1.7c-1.7-0.7-3.4-1.3-5.1-1.5c-1.3-0.2-2.7,0.2-4,0.5c-0.9,0.2-1.7,0.7-2.6,0.9c-3.2,0.8-3.8,0.5-5.7-2.7
		c-0.5,1.2-1.1,2.2-1.4,3.2c-1.5,4.7-3.1,9.3-4.3,14.1c-0.5,2.1-0.2,4.5-0.1,6.7c0.1,1.6,0.6,3.2,1,4.7c0.1,0.5,0.3,1.3,0.6,1.5
		c1.9,1,1.5,2.6,1.5,4.2c0.1,2.8,0.3,5.7,0.6,8.5c0.2,2.4,0.9,4.6,2.7,6.4c0.6,0.6,1,1.7,0.9,2.6c-0.3,2.5,0.8,5.2-1.2,7.5
		c-0.2,0.3,0.1,1,0.1,1.8c0.9-0.1,1.7-0.2,2.8-0.3c0.2,0.8,0.5,1.7,0.7,2.7c-6,2.9-11.7,6.2-18,7.9c-1.5,0.4-3.2,0.5-4.8,0.5
		c-2.1,0-2.4-0.6-1.8-2.7c0.3-1,0.6-2,1-3.2c-1.9-1.9-2.8-4.4-2.6-7.3c0.1-1.6,0.7-2.6,2.4-3c2.1-0.5,4.2-1,6.1-1.8
		c1.1-0.5,2-1.6,2.8-2.6c1.2-1.5,1.7-3.3,2.2-5.1c0.1-0.4,0.1-1.1-0.2-1.3c-1.2-1-0.9-2.2-0.9-3.5c0-0.8-0.9-1.6-1.4-2.6
		c1.9-1.8-0.3-3.9-0.2-6c2.7-1.9,2.9-1.9,1.9-5.2c-1.7-5.5-1.6-10.9,0.3-16.4c0.7-2.1,1.2-4.3,1.8-6.6c-1.1-1-2.2-1.9-3.5-2.9
		c-0.9,0.3-2,0.6-3,1.1c-1.5,0.7-2.8,0.4-3.9-0.6c-1.5-1.4-2.9-2.9-4.5-4.6c3.9-1.6,7.5-3.1,11.1-4.5c0-0.2,0-0.5,0.1-0.7
		c-4.4-1-8.2-3.2-11.8-6.9c-0.4,2.5-0.7,4.5-0.9,6.5c-0.6,5.8-1.1,11.7-1.6,17.5c-0.2,1.8,0.2,3.3,1.4,4.7c1.7,2.1,2.3,4.4,0.6,6.8
		c-2,2.6-4.5,4.7-8.1,4.3c-0.9-0.1-2-1-2.3-1.7c-1-2.9-1.6-5.9,0.6-8.6c1.4-1.8,1.6-4,1.2-6.2c-1.1-5.8-2.3-11.5-3.5-17.2
		c-0.4-2.2-0.9-4.4-1.4-7c-2.1,1.5-3.9,2.9-5.9,4.3c2.8,1.9,2.1,4.4,1.1,6.8c-0.6,1.7-1.1,3.4-2,4.9c-1.9,3-3.4,3.3-6.7,1.8
		c-0.4-0.2-0.8-0.3-1.7-0.7c1.4,4.9,2.6,9.5,4.1,13.9c1.8,5.3,2.2,10.7,1.8,16.2c-0.1,1.8-0.5,3.8,1.6,5.1c0.5,0.3,0.3,1.7,0.3,2.6
		c0,2.9,0,5.8,0.1,8.7c0,1.8,0.7,3.4,1.9,4.9c2.3,3.2,2.2,7,1.4,10.6c-0.3,1.2-1.5,2.4-2.6,3.1c-1.4,0.8-1.7,1.9-1.7,3.3
		c0,2.6-0.1,5.3-0.1,7.9c-0.8,0-1.5,0-2.3,0c-0.5-2.9-0.8-5.8-1.4-8.6c-0.2-0.8-1-1.4-1.6-2.1c-0.9-1.1-2.4-2.1-2.7-3.4
		c-0.9-3.2-1-6.4-0.1-9.8c0.7-2.7,0.8-5.6,0.8-8.3c0-2.8-0.6-5.6-0.9-8.3c1.1-0.4,1.8-0.7,2.9-1.1c0-3.8,0.1-7.6,0-11.3
		c-0.1-2.6-0.5-5.3-1.1-7.8c-0.9-3.7-2.2-7.4-3.4-11.1c-0.8-2.5-1.8-4.9-2.7-7.1c-2.7-0.2-4.4,0.4-6,2.1c-3.1,3.4-6.5,6.5-9.8,9.8
		c-0.6,0.6-1.2,1.5-1.5,2.3c-1,3.9-1.9,7.9-2.8,11.8c-0.2,0.7-0.2,1.9,0.2,2.1c2.1,1.4,0.9,2.8,0.4,4.4c-1.7,5.1-4.3,10.1-3.6,15.8
		c0.3,2.3-1.4,3.5-2.7,5.1c-1.2,1.4-2.6,1.5-4.1,1c-0.1,0.4-0.3,0.7-0.2,0.8c0.3,0.3,0.6,0.6,1,0.9c2.2,1.4,2.3,2.1,0.2,4.4
		c-0.4-0.2-0.8-0.4-1.2-0.6c-6.1-4.1-12.2-8.2-18.4-12.3c-2.3-1.5-4.2-3.2-5.4-5.6c0-0.8,0-1.5,0-2.3c0.9-0.4,1.7-0.7,2.7-1.1
		c0-1-0.4-2.2,0.1-2.9c0.6-1,1.8-1.7,2.8-2.2c4-1.8,8.1-1.3,11.3,1.7c1.3,1.2,2.5,2.5,4,3.9c3-3.7,4.8-8,6.5-12.5
		c1.7,0.3,2.3-0.9,2.7-2.6c0.8-3.5,1.8-6.9,2.6-10.5c0.4-2.1,1.5-3.6,3-5c2.5-2.1,4.9-4.3,7.2-6.7c-1.1,0.3-2.1,0.7-3.2,0.9
		c-2.1,0.5-3.1-0.1-3.6-2.2c-0.9-4.1-0.4-8,1.2-12.2c-3.9-3.1-6.1-7.7-8.2-12.4c-2.5-5.6-2.4-11.2,0.2-16.7c0.6-1.2,0.5-2.2,0-3.5
		c-3.2-7.9-6.3-15.8-9.4-23.7c-0.6-1.5-1.1-2.6-2.9-3c-0.9-0.2-1.9-0.9-2.5-1.7c-1.4-2-3.2-3.1-5.5-3.8c-1.2-0.4-2.2-1.2-3.5-2
		c2.4-3,4.8-0.6,7.1-0.6c0-1.8-1.4-2.4-2.2-3.5c-0.9-1.3-2-2.5-2.8-3.9c-0.3-0.5,0.2-1.3,0.3-2c0.6,0.1,1.4,0.1,1.8,0.4
		c1.6,1.3,3,2.8,4.8,4.1c-0.4-0.8-0.8-1.7-1.2-2.5c-0.7-1.2-1.6-2.4-2-3.7c-0.2-0.7-0.1-2.1,0.5-2.5c1.1-0.8,1.9,0.2,2.5,1.1
		c0.8,1.4,1.5,2.8,2.2,4.3c0.2,0.3,0.3,0.7,0.9,0.9c-0.2-0.8-0.6-1.5-0.7-2.3c-0.2-1.3-0.5-2.6-0.4-3.9c0.1-1.3,1.3-1.7,2.2-0.6
		c0.6,0.7,1,1.6,1.2,2.5c0.6,2.3,1,4.6,1.5,6.7c2-1.3,3.8-2.6,5.8-3.8c0.4-0.3,1.2,0,2.3,0.1c-0.7,1.2-1.2,2.1-1.7,2.9
		c-1.5,2.4-2.8,4.9-2.6,7.9c0.1,0.7-0.4,1.8-0.9,2.2c-1.7,1.3-1.6,2.9-1.2,4.6c1.6,6.2,4,12,7,17.6c0.8,1.6,1.8,3.1,2.8,4.9
		c6.9-8.1,14.5-10,23.5-3.3c0.6-1.6,1.3-2.9,1.7-4.2c2.7-8.3,7.3-15.5,12.5-22.4c4-5.4,8.4-10.5,13.4-15c2-1.8,4.2-3.4,4.7-6.4
		c0.2-0.9,1.6-1.7,2.7-2.2c1.4-0.8,3-1.2,4.4-1.9c2.3-1.1,3.7-2.8,3.9-5.5c0.3-4.2,3-6.6,6.7-7.5c2.8-0.7,5.8-0.9,8.7-0.5
		c5.2,0.6,10.1,0.3,15-1.8c4.4-1.9,7.6-4.6,8-9.7c0.4,0,0.8,0,1.1,0c0.6,2.9,1.6,5.9,1.9,8.8c0.6,6.6-2.4,12-6.9,16.5
		c-5.9,5.9-13.4,8.1-21.6,7.1c-4.1-0.5-7.1-3.3-10-6.1c-0.6-0.6-1.1-1.3-1.6-1.8c-2.7,1.3-5.2,2.6-7.9,3.8c-1,0.5-1.4,1.1-1.5,2.1
		c-0.2,1.9,0.1,3.7,1.2,5.4c2.4,3.8,4.8,7.5,6.9,11.4c3.5,6.3,6.9,12.7,8.1,19.9c0.4,2.7,0.3,5.4,0.5,8.5c0.9-0.5,1.7-0.9,2.3-1.5
		c6.7-5.5,12.2-4.9,17.5,1.8c1.2,1.5,2.2,3.1,3.4,4.8c5.4-7.8,10.8-15.4,16.4-23.4c-4.7-2.9-5-8.3-8.7-11.7c4.6-1.9,6.1,1.9,8.8,4.5
		c0.3-1.5,0.7-2.4,0.7-3.3c0.1-1.9-0.1-3.8,0.1-5.7c0.2-1.7,0.6-3.3,1.2-4.9c0.2-0.6,1.3-0.8,1.9-1.3c0.3,0.6,1,1.3,0.9,1.9
		c-0.1,2.3-0.5,4.5-0.7,6.7c-0.1,0.9-0.2,1.8-0.3,2.7c0.2,0.1,0.5,0.2,0.7,0.2c0.5-1,1-2,1.5-3.1c0.7-1.6,1.2-3.2,1.9-4.7
		c0.4-0.8,1.1-1.6,1.8-2.1c0.6-0.3,1.7-0.3,2.3,0c0.4,0.2,0.7,1.4,0.5,2c-0.6,1.8-1.5,3.4-2.3,5.2c-0.5,1-0.9,2-1.4,3
		c1.4-1.2,2.6-2.5,4-3.5c0.6-0.4,1.5-0.3,2.3-0.4c0,0.9,0.3,1.9,0,2.6c-0.7,1.2-1.7,2.2-2.8,3.2c-0.8,0.8-1.9,1.3-2.8,1.9
		c0.2,0.3,0.4,0.5,0.6,0.8c1.1-0.1,2.2-0.5,3.1-0.3c0.8,0.2,1.5,1.1,2.2,1.7c-0.6,0.6-1.2,1.4-1.9,1.8c-0.5,0.3-1.3,0.3-1.9,0.4
		c-2.4,0.5-4.5,1.3-6.1,3.2c-0.4,0.4-0.7,1-1.2,1.2c-3.5,1.3-5,4.5-6.8,7.3c-3.7,5.4-7.2,10.9-10.8,16.3c-1.1,1.7-1.3,3.5-1,5.6
		c1.3,9.2,0,17.9-6.5,25.2c-0.1,0.1-0.1,0.3-0.4,0.9c3.8,0.2,7.5,0.6,11.3-1.3c-0.2,2.1-1.4,3.1-2.4,4.3c-1.2,1.4-2.5,2.8-3.5,4.4
		c-1.7,2.6-2.5,2.9-5.4,1.7c-0.6-0.3-1.3-0.3-2-0.2c0.9,1.9,2.7,2.8,4.3,3.3c4,1.3,6.2,4,7.2,7.9c0.2,1,0.8,1.9,1,2.9
		c0.4,1.5,0.9,2.6,2.9,1.5c0.5,2.3,0.8,4.2,1.3,6.1c0.3,0.9,1.1,1.6,1.9,2.7c0,0.1-0.2,0.8-0.4,1.4c1.3,0.7,2.5,1.4,3.6,2
		c0.9,0.4,1.2-1.7,2.5-0.4c0.1,0.1,1-0.3,1.4-0.6c1.9-1.5,3.8-3.1,5.6-4.7c1.6-1.4,3-1.7,4.9-0.6c1.9,1.1,3.6,2.6,4.1,4.9
		c0.4,2.4,1.8,3.6,3.9,4.3C229,160.6,229,161.3,229,162.1z M120.6,180.8c-0.1,1.7-0.3,3.3-0.5,5.4c1.2-0.5,2.1-0.8,3.3-1.3
		c-1-0.5-1.5-0.7-2-0.9c0.5-0.7,0.9-1.4,1.4-2.1C121.9,181.5,121.2,181.1,120.6,180.8c2.7-1.7,2.7-1.8,0.7-2.9
		c0.2-1.3,0.6-2.5,0.5-3.6c0-0.3-1.2-0.5-2.6-1C119.7,176.3,120.2,178.5,120.6,180.8z M184.1,122.3c-1.4,0.9-2.9,1.8-4.3,2.7
		c0,0.2,0.1,0.5,0.1,0.7c2.3,0.7,4.6,1.5,7,1.9c2.9,0.6,3.2,0.3,4.8-3c-1.8-0.4-3.5-0.8-5.1-1.3
		C185.7,123.3,184.9,122.7,184.1,122.3c2.4,0.3,4.8,0.7,7.2,1c2.2,0.2,2.3,0.1,3.4-1.7c-2.8,0-5.6,0-8.4,0
		C185.6,121.7,184.9,122.1,184.1,122.3z M119.9,83.5c0.2,0.1,0.4,0.2,0.6,0.3c0.7-0.4,1.5-0.8,2.2-1.2c7.9-4,15.8,0.4,17.1,7.2
		c0.2,1.1,0.7,2.2,1,3.3c1.5,6.1,1.5,12.1-1.2,18c-0.4,0.8-0.6,1.8-0.5,2.7c0.6,6.7,1.2,13.3,2,20c0.3,2.8,0.9,5.5,1.4,8.2
		c0.2,0,0.4,0,0.7,0c0-1,0-2,0-2.9c0.4-8,0.8-16,1.1-24.1c0.1-2.1,0.1-4.2-0.3-6.2c-0.8-4.2-1-8.4-0.3-12.7
		c1.7-10.1,7.5-15.2,17.6-15.2c1,0,2-0.1,3.2-0.2c0.5-3.6,0.4-6.8-0.7-10c-3.4-9.4-8-18.2-12.6-27c-0.7-1.3-1.8-2.4-2.6-3.5
		c-0.4,0.2-0.6,0.2-0.8,0.4c-0.4,0.3-0.8,0.6-1.1,0.9C135.5,52.3,127,64.9,121,79.2C120.4,80.5,120.2,82,119.9,83.5z M116,85.2
		c-0.2-0.4-0.3-0.9-0.6-1.1c-5.9-5.2-12.7-5.9-18.8-0.3c-3.3,3.1-5.4,7-6.9,11.2c-1.3,3.8-1.5,7.7,0,11.4c1.2,3.2,2.7,6.5,4.5,9.4
		c2.5,4.1,6,7.1,10.6,8.4c3,0.8,6.1,1.2,9.2,1.6c1.1,0.2,2.3,0.3,3.3-0.1c3.4-1.1,6.9-2.1,10-3.9c5.8-3.2,10.1-7.9,12.1-14.4
		c2-6.4,0.9-12.6-1.5-18.5c-2.9-7.3-11.7-8.9-17.2-3.2c-0.7,0.7-1.4,1.6-2.3,2.1c-1.4,0.9-3.7-0.1-3.9-1.5
		C115,86,115.4,85.6,116,85.2z M145.2,98.1c-0.2,1-0.6,1.8-0.5,2.6c0.3,4.7,0.9,9.3,3,13.7c2.6,5.4,6.7,8.6,12.4,10.2
		c4.1,1.1,8.2,1.3,12.4,0.8c7.5-0.8,13-4.6,16.6-11.3c3.5-6.6,4.2-13.7,2.7-20.9c-1-5-3.5-9.4-7-13.1c-3.7-3.8-8.1-4.1-12.2-0.8
		c-1.5,1.2-2.8,2.8-4,4.3c-2.2,2.7-4.9,3.6-7.7,2.3c-0.3-0.2-0.5-0.7-0.9-1.3c3.6,0.6,3.6,0.6,3.9-2.2c-8.8-1.7-17.1,2.6-17.7,12
		c2.1,0.7,3.8,0.1,5.4-1.3c3.6-3,7.6-3.6,11.9-1.6c0.2,0.1,0.5,0.1,0.9,0.2c0.5-0.5,1-1.1,1.5-1.6c2.2-2.1,4.8-2.9,7.8-2.6
		c1.4,0.1,2.8,0.8,4.2,0.8c1.3,0,2.6-0.6,3.9-0.9c0.1,0.2,0.2,0.3,0.3,0.5c-1.1,0.7-2.1,1.5-3.2,2.2c0.8-0.1,1.6-0.3,2.4-0.7
		c0.7-0.4,1.4-1,2.1-1.5c0.2,0.2,0.3,0.4,0.5,0.6c-0.9,0.8-1.7,1.8-2.8,2.4c-1.5,0.9-1.9,2-1.9,3.7c0.1,3.4-1.8,6.1-5,7.5
		c-3.1,1.4-6,1-9-0.8c-2.1,3.8-4.9,5.8-9.3,5.1c-4.4-0.8-6.4-3.6-6.6-8C147.8,98.5,146.6,98.3,145.2,98.1z M160.9,27.7
		c2.9,4.7,6.8,8.2,12.2,8.8c11.1,1.2,21.4-4.9,25.3-15.5c1-2.7,1.2-5.5,0.7-8.9c-1.3,3.9-3.6,6.3-6.6,7.9c-2,1-4.1,2-6.2,2.7
		c-1.8,0.6-3.8,1-5.8,1.1c-3.9,0.1-7.8,0-11.6-0.1C165.7,23.6,163.1,24.9,160.9,27.7z M77.4,174.1c-0.1-1.6,0.2-2.6-0.2-3.3
		c-2.4-4.6-9-5.4-13.1-1.4c0.6,0.8,1.1,1.7,1.8,2.3c3.3,2.7,6.6,5.4,10,7.8c2.6,1.9,5.8,2.8,8.2,5.1c1.9,1.8,3.1,1.4,4.6-0.8
		c0.5-0.7,0.8-1.8,0.6-2.6c-0.4-2.8,0.2-5.4,1.1-8.1c1.1-3.1,2.1-6.3,3.1-9.5c-1.8-0.6-3.6-1.1-5.5-1.7c-0.3,0.5-0.6,1-0.8,1.5
		c0.8,0.7,1.4,1.3,2.1,1.9c-0.1,0.1-0.1,0.3-0.2,0.4c-0.9-0.2-1.7-0.4-2.6-0.7c0.2,0.9,0.8,1.4,1.2,1.9c0.1,0.1,0,0.5,0,0.8
		c-0.9-0.2-1.6-0.4-2.3-0.5c-1.4,1.9,1.4,1.9,1.3,3.4c-1-0.3-1.8-0.5-2.4-0.7c-2.1,1.2-0.1,2.2,0.1,2.8c-1.4,0.4-2.5,0.7-4.1,1.2
		C79.7,173.4,78.8,171.7,77.4,174.1z M194,149.5c2.2,5.6,5.3,10.7,5.1,16.8c0,1.4,1.4,2.5,2.8,2.2c2-0.5,4.1-1.4,5.8-2.6
		c1.2-0.9,2.1-1.7,3.7-1.6c0.5,0,1.2,0,1.7-0.3c3.3-1.9,6.5-3.8,9.7-5.8c0.5-0.3,0.9-1.1,0.9-1.6c-0.1-2.5-1.9-4-3.9-5.2
		c-1.9-1.1-2.7,0.5-3.8,1.4c-0.8,0.8-1.7,1.5-2.4,2.4c-0.7,0.9-1.2,1.9-1.8,2.9c-1.3-0.8-2.4-0.8-2.8,1.1c-0.8-0.3-1.6-0.9-2.2-0.8
		c-0.6,0.1-1,1.1-1.2,1.3c-1.6-0.8-3.1-1.6-4.5-2.3c0.2-0.6,0.7-1.7,0.6-1.8c-1.4-0.9-1.2-2.2-1.3-3.5c-0.1-0.6-1-1.1-1.6-1.7
		c0.1-0.5,0.3-1.2,0.6-2.3C197.4,148.7,195.8,149,194,149.5z M164.4,185.3c-0.8,0.2-2,0-2.3,0.5c-0.4,0.6-0.1,1.6-0.1,2.4
		c-0.7,0.1-1.7-0.1-2.1,0.3c-0.5,0.5-0.6,1.5-0.8,2.2c-2.2-0.9-2.5-0.9-6-0.2c-2.5,0.6-3.3,1.8-2.6,4.3c1,3.4,1.6,3.9,4.4,2.8
		c4.5-1.8,9-3.7,13.5-5.7c1.1-0.5,2.7-1.3,3-2.2c0.6-1.9,1.4-4.3-0.2-6c-2.7-2.9-3-6.4-3.1-10c-0.1-2.1-0.4-4.2-0.7-6.5
		c-2.1,0.3-3.8,0.6-5.6,0.9c0.5,2.6,2,4.7,1.7,7.1c0,0.2,0.4,0.4,0.5,0.6c0.2,0.3,0.4,0.8,0.3,1.1c-1,2,0.4,2.8,2.1,3.3
		C163.4,182.6,163.2,183.1,164.4,185.3z M182.8,128.2c-2.6-1.5-5.2-2.6-8.5-1.9c-3.5,0.8-7,1.4-10.7,0.6c-0.3-0.1-0.8,0-1.1,0.2
		c-3.5,1.6-6.9,3.3-10.6,5c1.3,1.3,2.4,2.5,3.6,3.6c1.2-1.1,2.2-2,3.2-2.8c0.9-0.8,1.8-1.7,2.7-2.5c0.9-0.8,1.6-1.9,3.1-1.8
		c-1.3,1.3-2.5,2.7-3.8,4c0.5,0.7,1,1.1,1.3,1.7c0.8,1.6,2,2.6,3.8,2.4c1.7-0.2,1.8-1.9,2.4-3.2c0.6-1.6,1.4-3.1,2.1-4.6
		c0.2,0.1,0.4,0.2,0.6,0.2c-0.2,1-0.4,1.9-0.6,3.1c1.8,0,3,0.5,3.5,2.3c0.1,0.5,1.1,1,1.7,1.2c2,0.3,4.9-1.6,5.6-3.5
		C181.6,130.9,182.2,129.7,182.8,128.2z M221.7,59c0-0.4-0.1-0.7-0.1-1.1c-0.9,0.1-1.8,0.4-2.8,0.4c-0.9,0-2,0-2.5-0.5
		c-0.9-0.9,0.2-1.6,0.8-2.3c0.5-0.6,1.1-1.1,1.6-1.6c1.2-1.3,2.3-2.5,3.4-3.8c-0.2-0.2-0.4-0.4-0.6-0.5c-0.7,0.7-1.5,1.3-2.1,2.1
		c-0.7,0.8-1.2,1.8-2,2.4c-0.6,0.4-1.5,0.4-2.2,0.6c-0.1-0.7-0.3-1.5-0.1-2c0.9-2.2,2-4.3,3-6.4c0.4-0.9,0.7-1.9,1-2.9
		c-0.3-0.1-0.5-0.3-0.8-0.4c-0.6,0.9-1.4,1.7-1.8,2.6c-0.7,1.4-1.2,3-1.7,4.5c-0.8,2.4-2.2,3.9-3.2,3.4c-1.7-1-1.4-2.7-1.1-4.3
		c0.3-2.2,0.5-4.3,0.8-7.1c-1.9,2.2-1.5,4.3-1.6,6.2c-0.1,2,0.5,4.3-0.3,5.9c-1.2,2.1,1.5,3.6,0.4,5.5c-2.7-2.4-5.2-4.7-7.2-6.4
		c1.3,3.8,1.4,4,4,6.8c1.9,2,2,3.2,0.6,5.5c-0.7,1.2-1.5,2.4-2.3,3.6c-3.8,5.4-7.6,10.8-11.4,16.2c-0.7,1-1.7,2-1.1,3.9
		c0.5-0.6,0.9-1,1.2-1.5c4.3-6.5,8.6-13.1,13-19.6c2.3-3.4,6.1-5.2,9.2-7.6c0.7-0.5,1.8-0.6,2.7-0.8C219.6,59.4,220.6,59.2,221.7,59
		z M150.9,99.6c-0.2,3.3,1.2,5,4.8,5.8c3.4,0.8,6.9-1,8.1-4.1c0.6-1.6-0.6-7.2-1.7-7.9c-3.2-1.9-7.6-0.9-10.3,2.4
		C154.3,97.5,154.3,98.4,150.9,99.6z M165.1,98.2c0.7,2.1,1.3,2.8,2.6,3.4c3.4,1.4,8.3-0.6,9.9-4c0.9-1.9,0.4-4.9-1-6
		c-2.9-2.4-10.2-2.3-11.5,2.5C167.3,96.2,167.3,96.2,165.1,98.2z M197.1,12.5c-2.5,1.5-4.5,2.9-6.7,3.9c-5.1,2.4-10.5,2.5-16.1,1.8
		c-2.6-0.3-5.3,0-7.8,0.5c-3.5,0.7-5.5,3.5-5.1,6.6c3.4-3.7,7.6-3.9,12.1-3.3c6.9,1,13.3-0.4,19.2-4.1
		C194.6,16.8,196.1,15.2,197.1,12.5z M123.8,198c1.6-0.3,3.2-0.4,4.7-0.8c0.6-0.2,1.4-1.2,1.4-1.7c-0.2-2.3-0.4-4.7-1.1-6.9
		c-0.7-2.2-2.8-3-5.1-2.4c-3.7,0.9-4.8,2.4-4.8,6.8C119,197.8,119.2,197.9,123.8,198z M79.3,57.3c-0.2-0.1-0.4-0.1-0.6-0.2
		c0.4-2.7,0.8-5.4,1.1-8.2C78,50.6,78,50.6,76,49.3c-0.8,2.5-1.6,2.7-3.4,1c-0.9-0.8-1.7-1.7-2.5-2.5c-0.1,0.1-0.2,0.3-0.4,0.4
		c1.2,1.2,2.5,2.4,3.4,3.7c0.5,0.7,0.8,2,0.5,2.8c-0.2,0.5-1.6,0.7-2.5,0.6c-1.1-0.1-2.1-0.5-3.2-0.8c0.6,0.8,1.4,1.4,2.2,1.5
		c2.2,0.5,3.9,1.6,5.2,3.6c0.5,0.8,1.6,1.6,2.4,1.7c2.1,0.2,2.7,1.5,3.2,3.1c0.5,1.5,1,3,1.5,4.5c0-1.6-0.7-3.1-0.9-4.7
		c-0.2-1.5-0.7-3.7,0.1-4.6c1.7-1.9,1.7-4,2.3-6.2c0.6-2.1,1.6-4.1,2.4-6.2c-1.7,1.3-3.3,2.7-4.4,4.4C80.9,53.4,80.2,55.4,79.3,57.3
		z M128.9,128.4c-4.1-0.3-7.5-0.6-11-0.8c-0.7,0-1.7,0.4-2.1,0.9c-0.5,0.9-0.5,2,0.6,2.7c2,1.3,3.8,2.7,5.8,3.9
		c1.7,1.1,2.8,1,3.8-0.7C127.3,132.7,127.9,130.6,128.9,128.4z M115.2,132.4c2,6.2,4.1,12.4,5.9,18.8c0.8,2.8,1,5.7,1.2,8.6
		c0.2,3.4,0,6.8,0.1,10.2c0,0.6,0.3,1.3,0.4,1.9c0.3,0,0.5,0,0.8,0c0.1-1,0.4-1.9,0.4-2.9c0.1-2.4,0.2-4.9,0.1-7.4
		c-0.1-2.7-0.1-5.5-0.7-8.1c-1.6-6.1-3.5-12.1-5.3-18.2C117.5,133.9,116.7,132.7,115.2,132.4z M107.8,127.6
		c-3.6-0.2-6.9-0.4-10.5-0.7c0,2-0.1,3.8,0,5.7c0.2,1.9,0.7,2.3,2.6,1.7c2-0.6,3.8-1.5,5.7-2.4C107.5,131.1,108.3,129.6,107.8,127.6
		z M168.2,138.2c-1.9-0.2-2.7,0.5-3,1.9c-0.3,1.3-0.7,2.6-1.2,3.8c-2.9,7.2-1.6,14.3,0.2,21.4c0.1,0.3,0.4,0.6,0.6,0.9
		c0.2,0,0.4-0.1,0.7-0.1c0-0.8,0.2-1.6,0-2.3c-2-7.1-1.5-14,1.3-20.7C167.3,141.5,167.7,140,168.2,138.2z M223,162.2
		c0-0.3-0.1-0.6-0.1-0.9c-0.8,0.1-1.7-0.1-2.4,0.2c-1.4,0.6-2.6,1.5-3.9,2.3c-2.1,1.3-4.1,2.8-6.3,1.9c-1.4,1.1-2.6,2-3.7,2.9
		c-0.4,0.4-0.7,1.1-0.6,1.6c0,0.2,0.8,0.6,1.3,0.7c0.3,0.1,0.8,0,1.1-0.1C213.7,168.8,218.8,166.2,223,162.2z M64.4,174.9
		c0,0.2,0,0.5,0.1,0.6c4,4.6,9.1,7.9,14.3,11c0.6,0.3,1.4,0.2,2.4,0.4c-0.4-1.6-0.7-2.8-0.9-3.5c-1.8-0.8-3.5-1.4-5-2.3
		c-2.6-1.6-5.1-3.5-7.7-5.3C66.7,174.9,65.7,174.2,64.4,174.9z M90.6,161c0.2,0,0.5,0.1,0.7,0.1c0.3-0.7,0.6-1.4,0.8-2.1
		c0.9-3.5,1.9-6.9,2.5-10.5c0.3-2,1.3-3.5,2.6-4.8c3.2-3.1,6.4-6.2,9.5-9.3c0.6-0.6,1-1.2,1.6-1.8c-0.9,0.1-1.4,0.5-1.9,1
		c-1.7,1.5-3.3,3.2-4.9,4.7c-8.5,7.5-6.5,4.5-9.4,15.7C91.4,156.2,91.1,158.6,90.6,161z M154.8,202.6c4.9-1.4,9.4-3.3,13.6-5.6
		c0.5-0.3,0.6-1.3,1-2.4c-1.7,0.2-2.8,0.2-3.8,0.6c-2.9,1.1-5.7,2.4-8.6,3.6C155.4,199.4,154.7,200.5,154.8,202.6z M144.6,142.8
		c0.2-2.5,0.4-4.3,0.6-6.2c0.6-5.6,1.3-11.2,1.9-16.8c0.2-1.7,0.1-3.3-1.5-4.8C144.6,124.2,144.4,133.2,144.6,142.8z M195.9,147.9
		c1.1-1.6,0.7-3.8-2.6-10.3c-2.1-4.1-6.8-4.4-10.3-6.8c-0.8,2.2,0.4,2.7,1.6,3c1.7,0.5,3.5,1,5.2,1.5c1.3,0.4,2.2,1.2,2.6,2.7
		c0.6,2.6,1.5,5.1,2.4,7.5C195,146.4,195.4,147.1,195.9,147.9z M202.4,174.9c5.8,0.4,15.4-4.9,19.8-10c-1.1,0.8-1.9,1.4-2.8,1.9
		c-3.3,1.8-6.5,3.7-10,5.2c-3.3,1.4-3.8,1-5.7-2.3C203.7,171.8,204.7,173.8,202.4,174.9z M137.6,115c-2,1-1.8,2.6-1.5,4.2
		c0.6,3.1,1.1,6.1,1.8,9.2c0.6,3,1.4,5.9,2.1,8.9c0,0,0.1,0,0.1,0C139.3,129.8,138.5,122.4,137.6,115z M152.5,202.5
		c-0.4,2.3,0,2.6,2.3,2.3c5-0.7,9.5-3,14-5.2c1.8-0.9,3.5-1.9,5.3-2.9c0-0.3,0-0.6,0-0.9c-1.7,1.2-2.5,0.3-3.4-0.8
		c0.4,1.8-0.3,2.8-1.8,3.4c-4.6,1.8-9.1,3.7-13.6,5.5C153.9,204.5,152.8,204.2,152.5,202.5z M141,147.3c1.2,0.6,2.4,0.8,2.9,1.6
		c0.7,1.2,0.9,2.7,1.3,4.1c0.2,0.7,0.5,1.4,0.9,2.3c2-2.7,2.2-3.2,0.7-5.3c-1.6-2.3-3.4-4.3-5.5-6.9
		C141.1,144.8,141.1,146.1,141,147.3z M124.7,177.3c-1.2,1.6-1.2,1.6,0.2,3.3c-2.6,1.3,1.3,2.7-0.2,4.1c1.5,0.3,1.9-0.3,1.6-1.5
		c-0.8-3.1-0.9-6.1-0.3-9.2c0-0.2-0.2-0.5-0.3-0.7C123,173.9,122.7,175,124.7,177.3z M110.2,126.6c-1,1.5-1.5,3-0.4,4.3
		c0.5,0.6,1.9,0.6,2.8,0.4c1.2-0.3,1.8-1.5,1.5-2.7C113.6,126.4,111.6,127.3,110.2,126.6z M165.6,81.6c2.4-5.4-1.3-17.5-6.1-23.7
		C163,65.9,167.2,73.1,165.6,81.6z M129,125.7c-2.1-2-4.4-1.6-7.8,1.2C124,126.3,126.7,127.8,129,125.7z M120.3,77.3
		c2.6-5,5.3-10,7.9-15C124.8,66.9,121.9,71.8,120.3,77.3z M86.8,78.9c1.5,3.1,1.5,6.9,4.4,9.4C91,84.5,88.2,82,86.8,78.9z
		 M139.2,156.1c-0.1,0.2-0.1,0.5-0.2,0.7c0.7,0.4,1.4,1.2,2,1.1c1-0.2,2.1-0.7,2.8-1.4c0.6-0.7,0.2-1.6-0.8-1.4
		C141.7,155.2,140.5,155.7,139.2,156.1z M77.3,187.7c1.2,0.8,2.4,1.8,3.7,2.4c1.2,0.6,2.2,2.3,4.1,1.2c-1.2-1.1-2.2-2.1-3.3-3.1
		C80.1,189.7,79.1,187.5,77.3,187.7z M98.6,123.1c-0.9,1.3-0.7,2.1,0.6,2.4c1.6,0.3,3.3,0.5,5,0.7c0-0.1,0-0.2,0-0.3
		C102.4,125,100.6,124.1,98.6,123.1z M124.9,209.4c0.2-2.5,0.5-4.4,0.5-6.3c0-0.5-0.6-1.1-0.9-1.6c-0.3,0.6-0.9,1.2-0.8,1.7
		C123.9,205,124.4,206.9,124.9,209.4z M63.8,172.9c-3.1,0.8-3.4,1.6-1.5,4c0.8,1,2,1.7,3,2.6c0.1-0.2,0.3-0.3,0.4-0.5
		c-0.8-0.8-1.7-1.5-2.4-2.3C61.5,174.9,61.6,174.5,63.8,172.9z"/>
	<path d="M117.7,105.2c-5,4.4-11.5,4.8-14.6,0.9c-2.3-2.9-2.4-9.9,1.7-12.5c3.7-2.4,9.8-3.8,13.1,1.9c2.2-1.2,4.3-2.6,6.6-3.5
		c3.1-1.2,6.2-0.7,8.6,1.8c2,2.1,2,6,0.6,9.1C131,108.8,122.5,110.2,117.7,105.2z M116.3,95.5c-2.1-2.5-5.5-3.3-8.5-2.2
		c-3.4,1.3-5,3.8-4.8,7.8c0.2,3.5,2.1,5.3,6.1,5.6c3.7,0.2,7.3-1.9,7.9-4.7c0-0.2,0-0.4,0-0.6c0.1-1.1,0.2-2.1,0.3-3.3
		c-1.3,1.1-2.7,1.8-3.5,0.1C113.1,96.3,115.4,96.5,116.3,95.5z M133.4,96.9c-1.2,0.9-2.5,2.1-3.5,0.4c-1-1.8,1.1-1.9,2.4-3
		c-1.4-0.5-2.4-1.2-3.5-1.3c-5.5-0.8-10.1,3.5-9.9,9.1c0.1,1.6,0.7,2.6,2.1,3.4c3.3,1.7,6.3,0.7,9.1-1
		C132.7,102.8,133.9,100.3,133.4,96.9z"/>
	<path d="M128.3,112.8c-3.4,4-7.8,6.6-13.1,6.5c-6.9-0.1-15.1-2.7-18.6-13.7c-0.2,0.8-0.4,1.5-0.5,2.3c-0.2-0.2-0.5-0.4-0.7-0.7
		c0.1-2.2,1.6-4.1,4.3-4.8c-2.4,2.3-1.2,4.5-0.2,6.5c4.1,8.5,16.4,13.4,26.6,4.6c0.5-0.5,1.1-1,1.6-1.4
		C127.9,112.3,128.1,112.5,128.3,112.8z"/>
	<path d="M156.6,114.2c4.2,1.9,8.2,3.1,12.6,2c4.4-1.1,7.9-3.6,10.7-7.1c2.7-3.4,5.2-7,3.3-12c2.1-0.7,2.9,0.7,4.1,2.3
		c-0.7,0.1-1.2,0.2-2.1,0.3c0.3,2.7,0.8,5.3,1,8c0.1,2.3,0.2,4.7-0.3,7c-0.8,3.3-3.4,4.6-6.7,3.9c-4-1-8-1.8-12.3-1
		c-3.1,0.5-6.2-0.2-9-1.9c-0.3-0.2-0.6-0.4-0.9-0.7C156.8,115,156.8,114.8,156.6,114.2z M174,116.1c3.5,1.1,3.6,1.1,5.7-1
		c1.2-1.2,2.3-2.4,3.5-3.6c0.8-0.8,2.3-1.1,2-2.7c-0.2-1.2-0.5-2.4-0.8-3.6C181.6,109.7,178.8,113.5,174,116.1z M179.9,117.1
		c3.3,0.5,4.8-1.2,4.3-4.5C182.7,114.1,181.4,115.5,179.9,117.1z"/>
</g>
</svg>
