<?xml version="1.0" encoding="utf-8"?>
<!-- Generator: Adobe Illustrator 17.1.0, SVG Export Plug-In . SVG Version: 6.00 Build 0)  -->
<!DOCTYPE svg PUBLIC "-//W3C//DTD SVG 1.1//EN" "http://www.w3.org/Graphics/SVG/1.1/DTD/svg11.dtd">
<svg version="1.1" id="Layer_1" xmlns="http://www.w3.org/2000/svg" xmlns:xlink="http://www.w3.org/1999/xlink" x="0px" y="0px"
	 viewBox="0 0 288 216" enable-background="new 0 0 288 216" xml:space="preserve">
<g>
	<path d="M86.7,115.4c1.5-1.4,0.9-2.5-0.8-3.1c-0.2-0.1-0.4-0.1-0.6-0.2c0,0,0,0,0,0c0,0.5-0.1,0.9-0.2,1.4c0.4,0.1,0.8,0.3,1.2,0.4
		c0,0.4,0,0.7,0,1.1c-0.7,0.3-1.5,0.6-2.2,0.9c-0.6,0.9-1.5,1.6-2.5,2.1c0.5-0.1,1-0.2,1.4-0.4C84.3,117.2,85.6,116.4,86.7,115.4z"
		/>
	<path d="M91.7,48.7l0-1.5c-2.4-0.5-4.7-1.2-7.1-1.6c-1.3-0.2-2.7-0.4-4.2-0.5c0.2,0.5,0.5,0.9,1,1.2c0.2,0.1,0.4,0.2,0.6,0.4
		c2.5,0.3,5,0.6,7.5,0.9c0,0.3,0,0.7-0.1,1c-0.8,0.1-1.6,0.1-2.4,0.2c-1,0.1-2.1,0.1-3.1,0.2c0.1,0.2,0.1,0.3,0.2,0.5
		c0.1,0.2,0.1,0.4,0.1,0.7c1.2-0.1,2.3-0.1,3.5-0.3C88.9,49.7,90.3,49.1,91.7,48.7z"/>
	<path d="M76.5,104.2c-0.2-3.9-0.4-7.8-0.6-11.5c2-1.2,3.7-2.2,5.4-3.2c-0.5-0.8-0.6-1.1-0.7-1.1c-5.2-1-4.5-5.5-4.5-9.5
		c0-2.1,0.1-4.2,0.4-6.3c0.1-0.8,0.9-1.6,1.6-2.2c1.3-1.2,2.7-2.3,4.1-3.4c-1.6-0.7-3.2-1.4-4.8-2c-0.1,0-0.1-0.1-0.4-0.2
		c0-1.7,0-3.3,0-5c-0.4,0-0.8-0.1-1.2-0.2c0,2.2,0,4.4,0,6.6c1.5,0.3,3.1,0.7,4.7,1c0,0.2,0.1,0.5,0.1,0.7c-1.2,0.5-2.5,0.9-3.6,1.6
		c-0.8,0.6-2,1.6-2,2.5c-0.2,3.4,0.1,6.9-0.2,10.3c-0.4,3.8,0.8,6.1,4.2,6.9c0.1,0,0.2,0.3,0.3,0.6c-1.1,0.3-2.2,0.5-3.2,1
		c-0.6,0.3-1.3,1.3-1.3,1.9c0.1,4.3,0.3,8.5,0.5,12.8C75.7,105.1,76.1,104.7,76.5,104.2C76.5,104.3,76.5,104.2,76.5,104.2z"/>
	<path d="M244.6,103.2c-0.7-0.1-1.3-0.2-2-0.3c1.5-0.5,3.3-1.4,3.4-2.6c0.5-4.3,0.9-8.7,0.5-12.9c-0.4-4.4-0.2-9.9-6.4-10.4
		c5.2-1.2,5.2-1.2,5.5-7c0-0.6,0.1-1.1,0.2-1.7c1-5.6,0.7-6.2-3.8-8.5c1.3-1.3,4.3,1.1,4.5-2.3c0.1-1.9,0.5-4.2-0.2-5.7
		c-0.6-1.3-2.6-1.9-4.1-2.8c0.7-0.2,1.4-0.7,2-0.6c2.7,0.3,3.2-1.6,2.9-3.9c-0.9-7.4-1.8-14.8-2.8-22.2c-0.1-0.6-1-1.4-1.6-1.4
		c-4.8-0.4-9.6-1-14.4-0.9c-6.5,0.1-13,0.6-19.6,1c-1.7,0.1-3.4,0.5-5.1,0.4c-8.8-0.1-17.6-0.3-26.4-0.4c-0.9,0-1.8,0-3.2,0
		c0-3.4-0.1-6.3,0-9.3c0.1-1.7-0.2-3.1-1.8-3.6c-2.8-0.8-5.5-1.8-8.4-2c-3.3-0.3-6.6,0.2-9.9,0.4c-4.8,0.3-7.2,3.7-6.6,9
		c0.2,1.3,0,2.6,0,3.9c-0.5,0.1-0.7,0.3-0.9,0.2c-7.4-2-14.7,0.6-22.1,0.2c-4.8-0.3-9.6-0.1-14.4-0.2c-6.3-0.2-12.6-1.7-19,0
		C89.5,20.2,87.7,20,86,20c-3.6,0-7.1,0-10.9,0c0,3.7-0.2,7.2,0.1,10.7c0.1,1.5,1.1,2.9,1.6,4.4l1,0.2c-0.7,0.4-1.4,0.7-2,1.1
		c0.6,1,1,1.5,1.3,2.2c-0.3,0.3-0.6,0.6-0.8,0.9c0.5-0.1,1-0.1,1.6,0.1c0.4-1.6,0.8-3.2,1.1-4.9c0.1-0.3-0.3-0.8-0.5-0.9
		c-2.6-0.8-2-3.1-2.1-5.1c-0.1-2.4-0.3-4.8-0.4-7.7c2.3,0,4.4,0,6.5,0c3.4,0,6.9,0.5,10.2-0.1c6.1-1.2,12,0.4,18,0.4
		c7.9-0.1,15.8-0.3,23.7-0.5c2,0,3.9-0.3,5.9-0.2c9.5,0.5,18.9,1.3,28.4,1.6c12.3,0.4,24.7,0.6,37,0.6c7.2,0,14.5-0.8,21.7-1
		c3.7-0.1,7.4,0.2,11.1,0.6c0.6,0.1,1.4,1.3,1.5,2c0.7,6.4,2.6,12.7,1.8,19.4c-0.3,2.7-1.5,4.4-4,4.4c-1.8,0-3.7,0-6.2,0
		c2.2,4.5,5.5,4.1,8.3,5c1.7,4.4-1.6,5.8-4,7.7c0.5,0.7,0.8,1.1,1.2,1.5c0.9,0.9,2.5,1.7,2.6,2.6c0.2,3.3-0.1,6.7-0.5,10
		c-0.1,0.5-1.7,0.9-2.7,1c-5.6,0.2-11.2,0.2-16.7,0.3c-0.1,0.4-0.2,0.7-0.3,1.1c0.6,0.5,1.2,1.4,1.9,1.6c2,0.5,4,0.8,6.1,1.1
		c3.4,0.4,6.8,0.7,10.2,1.2c0.6,0.1,1.5,0.8,1.5,1.4c0.6,5.4,1.1,10.8,1.5,16.2c0.2,2-0.7,2.6-2.5,2.6c-2.2,0.1-4.4,0.7-6.6,1.1
		c0,0.5-0.1,1-0.1,1.5c3,1.1,6,2.2,9.1,3.3v8.6c-2.1,1.2-4.3,2.5-7.3,4.2c2,0.9,3.4,1.5,4.8,2.2c0,0.3,0.1,0.6,0.1,0.8
		c-4,0.9-8.1,1.8-12.1,2.8c0,0.3-0.1,0.6-0.1,0.9c0.8,0.2,1.7,0.6,2.5,0.7c3.4,0.4,6.9,0.8,10.3,1.1c1.5,0.1,2.1,0.9,2.1,2.6
		c-0.1,7.7,1.1,6.4-5.7,6.6c-9,0.3-18.1,1.1-27.1,1.7c-5.9,0.4-11.9,0.7-17.8,1c-9.8,0.3-19.7,0.8-29.5,0.8c-6.1,0-12.2-0.7-18.3-1
		c-6.2-0.3-12.4-0.5-18.6-0.9c-7.4-0.6-14.8-1.5-22.1-2.2c-4.5-0.4-9-0.3-13.4-0.9c-3.3-0.4-6.5-1.6-9.7-2.5
		c-0.5-0.2-1.2-0.9-1.3-1.5c-0.2-2.5-0.4-4.9-0.5-7.4c-0.5-0.2-0.9-0.4-1.2-0.8c0.2,3.4,0.3,6.9,0.5,10.5c2.7,0.8,5.4,1.9,8.1,2.5
		c2.8,0.6,5.6,0.8,8.5,1c3.6,0.3,7.2,0.4,10.9,0.6c12.5,0.9,24.9,1.9,37.4,2.7c2.3,0.1,2.9,0.9,3,3.4c0.1,14.1,0.4,28.1,0.6,42.2
		c0,3.1,0,6.2,0,9.3c-0.1,0-0.3,0-0.4,0c-0.2-1.2-0.4-2.5-0.6-3.7c-1.2,7.2,0,16.3,1.9,17.8v-6.9c0.8,1.4,1.3,2.2,1.7,2.9
		c0.3-1,0.1-1.7,0-2.5c-0.4-2.4-1-4.9-1.1-7.4c-0.4-15.5-0.7-31-1-46.5c-0.1-2.7,3.6-7.4,5.9-7.7c0.3,0,0.7,0.4,0.9,0.5
		c-1.5,2.2-2.9,4.2-4.4,6.3l0.5,0.5c2.8-1.9,3.5-7,8-7c-2,3.1-3.8,5.9-5.7,8.7c0.3,0.2,0.5,0.4,0.8,0.6c1.3-1.9,2.5-4,4-5.8
		c2.9-3.7,3-3.6,5.3-3.1c-2.4,3.4-4.8,6.7-7.3,10c0.3,0.3,0.5,0.5,0.8,0.8c0.5-0.6,0.9-1.1,1.4-1.7c2-2.6,3.9-5.4,6.1-7.9
		c1-1.1,2.5-1.5,3.8-2.3c0.2,0.3,0.4,0.7,0.6,1c-3.2,4.8-8.1,8.2-10,14.2c4.1-5,8.2-10,12.3-15c0.2,0.2,0.4,0.4,0.7,0.6
		c-1.5,7.7-9.1,10.7-11.3,18c3.4-4.2,6.9-8.3,10.3-12.5c0.3,0.2,0.6,0.4,1,0.7c-0.7,1.7-1,3.7-2.1,5.1c-2.4,3.2-5,6.1-7.6,9.1
		c-0.5,0.7-0.9,1.5-0.9,1.6c2.9-2.8,6.2-6,9.6-9.2c-0.3,7.4-7.4,9.7-9.6,15.6c0.2,0.2,0.4,0.3,0.5,0.5c3-3.5,6-7,9.1-10.6
		c0.9,4-0.8,6.3-3,8.4c-1.9,1.8-3.9,3.6-5.7,5.4c-0.4,0.4-0.6,1-0.9,1.6l0.5,0.5c3-2.9,6.1-5.7,9.1-8.6c-0.3,6.9-7.1,8.4-8.7,14.3
		c2.8-3,5.6-6,8.7-9.2c0.1,4.4-0.1,5.3-2.8,7.9c-1.7,1.6-3.5,3.1-5.3,4.7c-0.5,0.5-0.8,1.3-1.2,1.9c0.2,0.2,0.4,0.4,0.6,0.5
		c2.9-2.7,5.8-5.3,8.8-8.1c0,0.8,0.2,1.7,0,2.1c-2.3,2.8-4.5,6-7.3,8c-1.6,1.2-2.1,2.3-2.5,4c-0.7,3.7-1.3,7.5-2,11.2l0.1-0.1v5.3
		l0.7,0c0.4-3.5,0.7-7,1.2-10.5c0.2-1.2,0.7-2.3,1.1-3.5c0,0.4,0,0.8,0,1.4c0.9-0.8,1.5-1.4,2.4-2.2c-0.8,2.8-1.2,5.3-2.1,7.6
		c-1.3,3,1.1,4.4,1.8,6.6c0.3-3.8,0-7.7,0.9-11.2c1-3.6,3.2-6.7,5.2-10.6c1.2,3.3-0.4,4.4-1.7,5.6c-0.7,0.7-1.7,1.6-1.8,2.5
		c-0.4,3-0.5,6.1-0.6,9.2c0,0.5,0.4,1,0.8,2c1-11.6,1-11.6,4-13c-1,1.5-1.9,2.9-2.9,4.4c0.2,0.1,0.3,0.3,0.5,0.4
		c0.7-0.6,1.3-1.2,2.2-2c-0.3,3-0.5,5.5-0.7,8c0.2,0,0.4,0,0.6,0c1.4-4.3,2.9-8.7,4.5-13.7c-1,1-1.6,1.6-2.1,2.2l-0.4-0.3
		c0.8-2.4,1.5-4.8,2.3-7.2c-0.1-0.1-0.2-0.2-0.3-0.3c-0.8,1.1-1.5,2.3-2.3,3.4c-0.1-0.2-0.2-0.3-0.2-0.5c0.1-14.9,0.2-29.9,0.3-44.8
		c0-0.2,0-0.4,0-0.6c0.1-1.5,0.5-2.3,2-2.2c3.1,0.1,6.2,0.2,9.3,0c10.2-0.5,20.5-1.1,30.7-1.5c9.6-0.4,19.1-0.8,28.7-1.1
		c6-0.2,6.3-0.4,6.4-7c0.1-5.1,0.1-5.2-4.2-6.7c1.4-0.7,3.2-0.2,3.4-3c0.2-2.7-1.4-2.9-3.2-3.7c0.5-0.8,1-1.3,1.7-1.5
		c2.9-1,2.5-3.6,2.6-6.1c0-1.4-0.2-2.9,0-4.3C247.3,104.5,246.3,103.5,244.6,103.2z M167.2,20.6c2.1-1.9,3.7-3.4,5.7-5.2
		C172.9,18.6,170.7,20.5,167.2,20.6z M171.6,15c-1.7,1.8-3.5,3.6-5.4,5.2c-0.5,0.5-1.4,0.6-2.1,0.6c-4.5-0.3-8.9-0.7-13.4-0.9
		c-1.6-0.1-2.2-0.7-2-2.4c0.1-0.8,0-1.5,0-2.3c-0.3-4.9,2.6-7.7,7.1-7.4c2.8,0.2,5.6,0,8.4,0l0.6,0.9c-1.1,0.6-2.3,1.3-3.4,1.9
		c0.2,0.3,0.5,0.6,0.7,0.9c2.5-0.4,3.6-4.8,7.2-3.3c-2.6,2.4-4.9,4.6-7.2,6.8c0.2,0.3,0.4,0.5,0.6,0.8c2.2-1.9,4.4-3.7,6.4-5.8
		c1.4-1.4,2.5-1.4,3.6-0.1c-3.1,2.9-6.2,5.8-9.4,8.7c0.2,0.3,0.4,0.6,0.6,0.8c2.9-2.7,5.9-5.4,8.8-8.1c0.2,0.2,0.5,0.4,0.7,0.6
		C172.8,13,172.3,14.2,171.6,15z M244.2,67.3c0.5,2.9,0.1,3.5-3.6,4.7C242,70.1,243.1,68.8,244.2,67.3z M166.7,188
		c-2.4,2.8-5,5.6-7.5,8.3c0.2-1.1,0.2-2.4,0.7-3.1c2.3-2.9,4.8-5.6,7.3-8.4c0.2,0.2,0.5,0.3,0.7,0.5
		C167.6,186.2,167.3,187.3,166.7,188z M242.7,93.9c-1.4-3.3,1.8-3.4,2.5-5.3C246.6,91.9,244,92.4,242.7,93.9z M241,85.7
		c1-1.2,1.9-2.4,2.9-3.7c0.4,0.3,0.7,0.6,1.1,0.9c-1,1.2-2,2.4-3,3.6C241.6,86.3,241.3,86,241,85.7z M245.3,92.8
		c1.1,3.8-1.5,4-2.8,5.3l-0.8-0.8C242.8,95.9,243.9,94.5,245.3,92.8z M242,113.8c0.5-0.6,1.1-1.2,1.6-1.8c0.6-0.6,1.1-1.3,1.6-1.9
		c-0.2-0.2-0.4-0.4-0.6-0.6c-0.8,0.6-1.7,1.2-2.5,1.8c-0.2-0.2-0.3-0.4-0.5-0.6c1.1-1,2.2-2.1,3.4-3.2
		C246.2,111.8,245.9,112.6,242,113.8z"/>
	<path d="M136.7,207.3c-0.8-1.9-1.4-3.2-1.9-4.5c-0.2,0.1-0.4,0.1-0.5,0.2c0,2.1,0,4.2,0,6.3c-0.2,0.1-0.5,0.1-0.7,0.2
		c-0.5-1.3-0.9-2.8-1.5-4c-0.8-1.3-1.8-2.4-2.9-3.7c-0.4,2.5-0.8,5-1.1,7.3c-2.6-1.1-2.8-11.1-0.1-14.4c0,1.8,0,3.9,0,6.1
		c2.1,0.2,3.4-0.2,3.1-2.9c-0.1-1.3,0.5-2.6,1.2-3.8c0.1,2.6,0.3,5.2,0.4,7.7c0.3,0,0.6,0,0.9,0c0.3-1.8,0.6-3.6,0.9-5.5
		c0.2,0,0.5,0,0.7,0.1c0.1,1.8,0.1,3.7,0.2,6c0.8-1.1,1.3-1.8,2.3-3.1C137.2,202.2,137,204.3,136.7,207.3z"/>
	<path d="M228.4,198.6c0.9-0.2,1.4-0.4,1.9-0.5c0.4,2.1,0.9,4.2,1.3,6.3c3.9-3,1.9-7.1,2.7-10.8c0.3,1.2,0.5,2.4,0.8,3.6
		c1.4-2.5,2.8-5,4.4-7.8c-0.2,3.7-0.3,6.6-0.5,10.3c-0.6-1.5-1-2.5-1.6-4.2c-0.9,3.3-1.7,6.2-2.5,9.2c-0.1-0.1-0.5-0.3-1-0.7
		c-0.1,0.9-0.1,1.8-0.1,2.6c-0.2,0.2-0.4,0.4-0.6,0.5c-1.4-1.9-2.7-3.8-3.9-5.5c-0.3,1.6-0.8,3.8-1.3,6.3c-1.3-4.3-1.2-12.1,3.2-16
		C229.9,194.5,229.2,196.3,228.4,198.6z"/>
	<path d="M254.4,191.4c-1.6,4.7-1.2,7.2,1.3,8.5c-0.5,1.9-1,3.7-1.5,5.6c-0.2,0-0.4-0.1-0.6-0.1c-0.2-2.3-0.4-4.5-0.6-6.8
		c-0.3-0.1-0.7-0.2-1-0.3c-0.9,2.4-1.8,4.7-3,7.8c-0.1-1.7-0.6-3.3-0.1-4c1.8-2.4,0.5-4.2-0.9-6.8c-0.6,3.7-1.2,6.8-1.8,10.2
		c-0.6-0.4-0.9-0.6-0.9-0.6c1-4-1.3-8.6,1.7-12.2c0.7-0.8,1.5-1.4,2.3-2.1c0.2,0.2,0.5,0.3,0.7,0.5c0,2.1,0,4.3,0,6.4
		c0.3,0.1,0.6,0.2,0.9,0.3c0.9-2.4,1.9-4.7,2.8-7.1C254,191.1,254.2,191.3,254.4,191.4z"/>
	<path d="M262.9,205.4c-0.3-1.7-0.6-3.3-1-5.6c-1.2,2.4-2.2,4.4-3.2,6.4c-1.2-2.8-1.9-5.6-0.2-8.7c0.5-1,0.5-2.4,0.7-3.6
		c-0.3-0.1-0.5-0.2-0.8-0.3c-0.8,1.4-1.6,2.9-2.4,4.3c-1.1-2.7,0.9-5.7,3.9-6c0.3,2.2,0.7,4.4,1,6.6c1.6-2.4,0.3-6,3.9-7.8
		c-2.9,5.1-0.6,10-1.3,14.6C263.4,205.3,263.1,205.4,262.9,205.4z"/>
	<path d="M226.4,192.6c-3.4,4.4-1.1,9-0.4,13.5c-0.2,0.1-0.5,0.1-0.7,0.2c-0.5-1.4-1.1-2.7-1.9-4.8c-0.8,2.4-1.5,4.2-2.1,6.1
		c-0.5,0.1-1.2,0.1-2.2,0.2c-0.6-2.4-1.1-4.9-1.8-7.6c1.2-0.3,2-0.4,2.8-0.6c-0.1-1.8-0.3-3.6-0.4-5.4c0.3,0,0.5,0,0.8,0
		c0.5,2.5,1,5,1.5,7.5c0.3,0,0.5,0,0.8,0c0.2-1.7,0.2-3.4,0.7-5c0.5-1.6,1.4-3,2.1-4.5C225.8,192.3,226.1,192.4,226.4,192.6z
		 M219.7,206.6c0.3,0,0.7,0,1,0c0.1-1.7,0.2-3.5,0.3-5.2c-0.4,0-0.8,0-1.2,0C219.7,203.1,219.7,204.8,219.7,206.6z"/>
	<path d="M194.4,199.1c-0.4-2.2-0.9-4.4-1.3-6.5c0.2-0.1,0.4-0.1,0.7-0.2c0.8,2.3,1.5,4.7,2.5,7.7c1.2-3.6,2-6.3,2.9-9
		c0.2,0.1,0.3,0.2,0.5,0.2c-0.5,3.1-1,6.2-1.5,9.3c-0.1-0.1-0.5-0.3-1.6-0.9c0.5,3.2,1,5.9,1.4,8.5c-0.1,0.1-0.2,0.1-0.3,0.2
		c-0.6-1.1-1.3-2.2-2.2-3.7c-0.6,1.8-1.1,3.2-1.5,4.7c-2.5-1.7-2.6-7.8-0.1-9.6c-0.2,2-0.5,4-0.8,6.6
		C195.8,203.9,196.2,201.6,194.4,199.1z"/>
	<path d="M119.9,203.8c0.2-3.5-0.2-7.1,2-10.2c-0.2,1.6-0.4,3.2-0.7,4.7c0.2-0.1,0.3-0.2,0.5-0.2c0.5,0.9,1,1.9,1.5,3
		c0.6-2.7,1.1-5.2,1.6-7.7c0.2,0.1,0.5,0.1,0.7,0.2c-0.5,4.5-1.1,9.1-1.6,13.6c-0.2,0.1-0.3,0.1-0.5,0.2c-0.4-1.7-0.8-3.5-1.4-5.9
		c-1.8,3,0.6,4.8,0.6,6.9c-0.2,0.1-0.4,0.2-0.7,0.3C121.3,207.1,120.6,205.5,119.9,203.8L119.9,203.8z"/>
	<path d="M244.3,203.2c-1.4,0.2-1.4,0.2-2.7,3.7c0-1.4-0.1-2.7,0-4.1c0.2-1.3,0.6-2.5,0.5-3.9c-1.3,2.8-4.8,4.2-4,8.2
		c-2-1.3-2.5-4.1-1-6.1c0.1,0.7,0.3,1.3,0.4,1.8c3.7-2.7,3.5-7.8,4.9-11.7c0.4,2.1,0.8,4,1,5.9C243.8,199,244,201,244.3,203.2z"/>
	<path d="M269.5,191c-2.1,2.9-4.5,5.5-3.4,9.7c3.4-0.4,1.8-5,4-6.5c0.3,0.2,0.5,0.3,0.8,0.5c-1.5,3.6-2.9,7.2-4.6,11.2
		C263.9,195.6,264.2,194.2,269.5,191z"/>
	<path d="M204.2,192c-0.7,2-1.5,3.4-1.8,4.9c-0.2,1.2,0,2.5,0,3.7c0,0.4-0.2,0.8-0.3,1.2c-0.2,0.7-0.7,1.6-0.5,2.1
		c1.1,2.6-0.9,4.5-0.8,6.8c-0.3,0-0.5,0-0.8,0.1c-0.1-2.3-1.1-5.1-0.3-6.9C201.5,200.1,199.6,194.9,204.2,192z"/>
	<path d="M214.4,207c-0.6-0.4-1.1-0.8-1.8-1.4c-0.5,1.3-1.1,2.6-1.6,3.8c-0.2-0.1-0.5-0.1-0.7-0.2c0.4-1.3,0.4-3.1,1.2-3.8
		c1.8-1.6,1.1-3.1,0.4-4.7c-1.2-2.8-0.7-7.1,1.3-9.2c-0.2,1.4-0.4,2.4-0.5,3.4c-0.1,1.1-0.1,2.3-0.2,3.6c0.6-0.1,1.1-0.2,1.3-0.3
		C214,201.2,214.2,204.1,214.4,207L214.4,207z"/>
	<path d="M91.6,194.6c-0.1,2.7-0.2,5.2-0.3,7.7c0.2,0,0.3,0,0.5,0c0.7-2.1,1.5-4.3,2.2-6.4c0.2,0,0.3,0,0.5,0
		c0.2,2.2,0.4,4.5,0.5,6.7c-0.1,0.1-0.3,0.2-0.4,0.3c-0.4-0.8-0.8-1.7-1.2-2.5c-0.1,0-0.2,0-0.4,0c0.3,2.2,0.6,4.5,0.9,6.6
		C90,204.9,88.8,198.3,91.6,194.6z"/>
	<path d="M119.9,203.8c-0.3,0.8-0.5,1.6-0.8,2.6c-0.5-0.7-1.1-1.4-2.1-2.6c0,2.2,0,4,0,5.7c-0.3,0-0.5,0-0.8,0
		c-1.8-5,2-9.8,0.8-14.8C118,197.7,119,200.8,119.9,203.8C119.9,203.8,119.9,203.8,119.9,203.8z"/>
	<path d="M156,205.4c-0.5,1.9-1,3.8-1.5,5.7c-1.7-1.6-1.9-17.2,0.3-21.7c-0.1,2-0.2,3.2-0.3,4.3c-0.1,3.4-0.3,6.8-0.2,10.1
		c0,0.6,1,1.1,1.5,1.7C156,205.5,156,205.4,156,205.4z"/>
	<path d="M90.4,207.5c-1.2-1.5-2.1-2.8-3.1-4.1c-0.2,0.1-0.3,0.1-0.5,0.2c0.1,1,0.3,2,0.4,3.5c-0.6-0.6-1.3-0.9-1.3-1.2
		c-0.1-3.5,0-7,0-10.4c0.2,0,0.5,0,0.7,0c0.3,1.5,0.6,3.1,0.9,4.6C88.9,199.4,90,202.2,90.4,207.5z"/>
	<path d="M151.3,192.1c0,6,0,12,0,18.3C149,208.2,149.3,194.8,151.3,192.1z"/>
	<path d="M189.4,195.1c-0.7,2.4-1.4,4.8-2.1,7.1c-0.1,0.4-0.7,0.6-1,0.8l0,0c-1.8-5.2-1.9-6.6-0.2-8.2c0,1.2,0,2.3,0,3.5
		c1.5-2.7,2.9-5.3,4.3-7.9c0.2,0.1,0.4,0.2,0.5,0.3c-0.5,1.4-0.9,2.7-1.4,4.1L189.4,195.1z"/>
	<path d="M140.7,210.2c-1.4-5.4-2.8-10.8-4.2-16.3C138.1,194,141.3,204.6,140.7,210.2z"/>
	<path d="M96.7,202.3c0.1,1.7,0.2,3.3,0.3,5c-2.3-2.3-1.1-12.4,1.5-14.2c-0.2,1.6-0.6,3.3-0.6,5c0,1.7,0.5,3.4,0.8,5.3
		C98,203,97.5,202.7,96.7,202.3z"/>
	<path d="M185.3,207.6c-0.3,1.3-1,1.6-1.6,0.4c-0.6-1.1-1.2-2.5-1.1-3.7c0.1-3.5,0.5-7.1,0.9-10.6c0.1-0.7,0.7-1.4,1-1.9
		c0,2.6,0,5.2,0,7.7c0,0.8,0.2,1.9-0.2,2.5C182.7,204.4,183.8,206,185.3,207.6C185.3,207.6,185.3,207.6,185.3,207.6z"/>
	<path d="M189.4,195.1l0.1-0.2c0.5-0.4,1.1-0.9,1.6-1.3c0.2-0.1,0.5-0.1,1.1-0.2c-2,2.6-3.3,5.2-1.4,7.9c-1,2.6-2,5-3.3,8.2
		c0-1.7-0.4-3.2,0.1-3.9c1.8-2.6,1.3-5.5,1.4-8.4C189.2,196.4,189.3,195.7,189.4,195.1z"/>
	<path d="M210.1,206.8c-3.6-3.4-3.2-12.4,0.7-14.4C207.7,197.1,209.5,201.9,210.1,206.8z"/>
	<path d="M176.4,190.2c-1.9,5.7-3.7,11.2-5.5,16.4C169.6,204.8,173.2,192.6,176.4,190.2z"/>
	<path d="M112.8,209.1c-2.9-3.8-2.7-10.9,0.5-15.9C111.7,198.4,111.4,203.7,112.8,209.1z"/>
	<path d="M207.1,203.7c-0.3,1-0.7,1.9-0.9,2.9c-0.3,1-0.5,2-0.7,3.1c-1.4-2.5-1.7-11.5-0.5-13.3
		C205.7,198.8,203.8,202.2,207.1,203.7z"/>
	<path d="M107.1,196.2c0.3,1.6,0.5,2.7,0.8,3.9c0.7-0.7,1.4-1.4,1.9-1.8c0,2.6,0,5.1,0,7.8C107.3,204.8,105.8,199.3,107.1,196.2z"/>
	<path d="M102,194.4c-0.3,4.2-0.7,8.6-1,12.8C99,204.5,99.6,197.2,102,194.4z"/>
	<path d="M82.8,206.8c-1.8-3.3-3.5-6.6-5.3-9.9c0.3-0.2,0.5-0.4,0.8-0.6c1.9,3.2,3.8,6.4,5.7,9.6C83.6,206.2,83.2,206.5,82.8,206.8z
		"/>
	<path d="M113.9,195.5c2.2,3.6,1.8,7,0,10.4C113.9,202.7,113.9,199.3,113.9,195.5z"/>
	<path d="M177.7,202.1c0.1-0.8,0.2-1.5,0.4-2.3c1.1,2,0.5,5,3.5,4.8c-0.6,1.9-1.1,3.7-1.7,5.8c-0.6-2.5-1.1-4.5-1.7-6.6
		C178,203.3,177.9,202.7,177.7,202.1z"/>
	<path d="M104.5,207.9c-0.6-3.3-1.2-6.6-1.8-9.9c0.4-0.1,0.8-0.2,1.2-0.3c0.6,3.3,1.2,6.6,1.8,9.8
		C105.3,207.6,104.9,207.7,104.5,207.9z"/>
	<path d="M274.4,193.2c-1.5,4.2-2.7,7.7-4.1,11.5C269.5,202.3,271.9,194.9,274.4,193.2z"/>
	<path d="M180.5,202.8c-1.7-2.1-0.8-8.8,1.4-10.8C181.4,195.5,180.9,199.2,180.5,202.8z"/>
	<path d="M175.4,198.1c-0.7,3.6-1.4,7.1-2.1,10.6C171.8,206.6,173.1,199.6,175.4,198.1C175.4,198.2,175.4,198.1,175.4,198.1z"/>
	<path d="M177.7,202.1c0.2,0.6,0.4,1.2,0.6,1.8c-0.1,0.6-0.1,1.2-0.2,1.8c-0.2,0-0.4,0.1-0.6,0.1c-0.6-2.6-1.3-5.1-1.9-7.7
		c0,0,0,0.1,0,0.1c0.1-0.7,0.2-1.5,0.2-2.2c0.2,0,0.3-0.1,0.5-0.1C176.7,198,177.2,200.1,177.7,202.1z"/>
	<path d="M141.3,199.9c-0.6-3.2-1.2-6.4-1.8-9.6c0.3-0.1,0.6-0.2,0.9-0.2c0.7,3.2,1.3,6.4,2,9.5C142,199.7,141.6,199.8,141.3,199.9z
		"/>
	<path d="M167.2,210.2c-1.7-2.2-2-7.9-0.5-10.7C166.9,203.2,167,206.6,167.2,210.2z"/>
	<path d="M214.3,207.1c0.6-1.3,1.2-2.7,2-4.3c0.4,2.3,0.7,4.1,1,6.3c-0.6-0.3-1.1-0.6-1.5-0.8c-0.2,0.5-0.4,1-0.9,2.1
		C214.6,208.7,214.5,207.9,214.3,207.1C214.4,207,214.3,207.1,214.3,207.1z"/>
	<path d="M148.9,189.1c0,3.8,0,7.2,0,10.6C147.2,197.8,147.1,193.5,148.9,189.1z"/>
	<path d="M232.6,191.7c0.2,2.7,0.5,5.4,0.7,8C231.2,198.3,230.9,193.7,232.6,191.7z"/>
	<path d="M83,194.8c0.6,2.8,1.3,5.7,1.9,8.5c-0.3,0.1-0.6,0.2-0.9,0.2c-0.7-2.8-1.3-5.7-2-8.5C82.4,194.9,82.7,194.9,83,194.8z"/>
	<path d="M141.7,182.5c0.8,2.7,1.6,5.4,2.4,8.1c-0.3,0.1-0.6,0.2-0.9,0.3c-0.8-2.7-1.6-5.5-2.4-8.2
		C141.1,182.7,141.4,182.6,141.7,182.5z"/>
	<path d="M217.8,194.2c-0.5,1.9-0.9,3.8-1.4,5.7c-0.3-0.1-0.7-0.2-1-0.3c0.5-1.9,0.9-3.8,1.4-5.7C217.2,194,217.5,194.1,217.8,194.2
		z"/>
	<path d="M186.3,203c0.3,2.4,0.6,4.7,1,7.1c-0.1,0.1-0.2,0.2-0.3,0.2c-0.5-0.9-1.1-1.8-1.6-2.8c0,0,0,0.1,0,0.1
		C185.6,206.1,186,204.6,186.3,203C186.3,203,186.3,203,186.3,203z"/>
	<path d="M238.6,108.7c-7.7,0-15.5,0-23.2,0c0-0.2,0-0.4,0-0.6c7.7-0.3,15.5-0.6,23.2-0.9C238.5,107.6,238.6,108.2,238.6,108.7z"/>
	<path d="M162.2,135.3c-1.5,0.2-2.7,0.3-3.9,0.5c0,0.2,0,0.4,0,0.6c0.8,0.3,1.6,0.5,2.4,0.8c0,0.3-0.1,0.5-0.1,0.8
		c-2-0.3-4.1-0.3-6.1-0.9c-0.5-0.2-1-2.3-0.7-3.1c0.3-0.8,1.8-1.8,2.4-1.6C158.3,133,160,134.1,162.2,135.3z"/>
	<path d="M159.6,30.1c-0.4-0.8-1.3-1.8-1.3-2.6c0-1.2,0.6-2.5,1.3-3.3c0.3-0.4,1.7,0.3,2.5,0.7c0.9,0.5,1.8,1.2,2.8,1.9
		c-0.4,0.2-1,0.6-2.3,1.4c0.8,0.3,1.5,0.5,2.1,0.7c-0.1,0.2-0.3,0.4-0.4,0.5C162.8,29.7,161.3,29.9,159.6,30.1z"/>
	<path d="M105.4,134.9c-7.5-0.4-15-0.7-22.5-1.1c0-0.4,0-0.8,0.1-1.2c7.5,0.3,15,0.6,22.5,0.9C105.5,134,105.4,134.5,105.4,134.9z"
		/>
	<path d="M103.7,131.5c7.6,0.4,15.1,0.8,22.7,1.3c-1.5,1.6-14.2,1.4-22.7-0.5C103.6,132,103.6,131.8,103.7,131.5z"/>
	<path d="M133.8,136.6c-7.9-0.4-15.8-0.7-23.8-1.1c0-0.4,0-0.7,0-1.1c7.9,0.4,15.9,0.7,23.8,1.1
		C133.8,135.8,133.8,136.2,133.8,136.6z"/>
	<path d="M187,136.6c8.1,0,16.1,0,24.2,0c0,0.2,0,0.3,0,0.5c-8.1,0-16.1,0-24.2,0C187,136.9,187,136.8,187,136.6z"/>
	<path d="M97.6,51.1c-4.6,0-9.2-0.1-13.8,0.9c-0.1,0.3-0.1,0.7-0.1,1c4.4-0.2,8.9-0.5,13.3-0.7C97,51.9,97.2,51.4,97.6,51.1z"/>
	<path d="M211.2,59.8c7.7,0,15.4,0,23.2,0c0,0.2,0,0.4,0,0.7c-7.7,0-15.4,0-23.2,0C211.2,60.2,211.2,60,211.2,59.8z"/>
	<path d="M101.9,87.3c-6.3,0-12.4,0-19,0C86.3,85.3,99.1,85.4,101.9,87.3z"/>
	<path d="M98.2,97.2c-6.4,0-12.9,0-19.3,0c0-0.3,0-0.7,0-1c6.4,0,12.9,0,19.3,0C98.2,96.5,98.2,96.9,98.2,97.2z"/>
	<path d="M208.1,89.3c0.1,0.3,0.1,0.7,0.1,1c6.2-0.3,12.4,0.9,18.6-1H208.1z"/>
	<path d="M97.5,130.4c-5.8,0-11.5,2.3-17.3,0.1c0-0.3,0-0.5,0-0.8c5.8,0,11.5,0,17.3,0C97.5,129.9,97.5,130.1,97.5,130.4z"/>
	<path d="M229,133.1c-6.3,0-12.7,0-18.8,0C211.3,131.6,225.3,131.1,229,133.1z"/>
	<path d="M203.5,76.6c0.3,0.4,0.5,0.9,0.6,1.4h14.4c0-0.2,0-0.5,0-0.7C213.5,77.1,208.5,76.8,203.5,76.6z"/>
	<path d="M100.4,92.9c-3.1-0.1-6.3-0.1-9.4,0l0,1.2h10.5C101,93.8,100.6,93.4,100.4,92.9z"/>
	<path d="M223.6,135.2c5.4,0,10.8,0,16.2,0c0,0.3,0,0.6,0,0.9c-5.4,0-10.8,0-16.2,0C223.6,135.8,223.6,135.5,223.6,135.2z"/>
	<path d="M234,84.3c-6.1,0-12.2,0-18.3,0c0-0.2,0-0.4,0-0.6c6.1,0,12.2,0,18.3,0C234,84,234,84.2,234,84.3z"/>
	<path d="M240.2,31.9c-5.7,0-11.4,0-17.1,0c0-0.2,0-0.5,0-0.7c5.7,0,11.4,0,17.1,0C240.2,31.4,240.2,31.6,240.2,31.9z"/>
	<path d="M232.8,43.7c-5.2,0-10.4,0-15.5,0c0-0.2,0-0.5,0-0.7c5.2,0,10.4,0,15.6,0C232.8,43.2,232.8,43.5,232.8,43.7z"/>
	<path d="M233.4,53.6c-5.2,0-10.4,0-15.6,0c0-0.2,0-0.4,0-0.6c5.2,0,10.4,0,15.6,0C233.4,53.2,233.4,53.4,233.4,53.6z"/>
	<path d="M181.5,137.5c-5.3,0-10.6,0-15.9,0c0-0.3,0-0.7,0-1c5.3-1.2,10.6,1,15.9-0.1C181.5,136.8,181.5,137.1,181.5,137.5z"/>
	<path d="M81.4,121c0,0.3,0,0.6,0,0.8h11.9c0-0.3,0-0.6,0-0.8H81.4z"/>
	<path d="M78.2,24.4c4.3,0,8.6,0,12.9,0c-4.2,1.9-8.6,1-12.9,1C78.2,25.1,78.2,24.8,78.2,24.4z"/>
	<path d="M223.3,81.8c-4.3-0.4-8.3-0.7-12.8-1.1C213.2,79,221.1,79.8,223.3,81.8z"/>
	<path d="M237.8,26.2c-4.3-0.2-8.6,0.5-12.8-1.2c4.3,0,8.6,0,12.8,0C237.8,25.4,237.8,25.8,237.8,26.2z"/>
	<path d="M88.4,89.4c3.8,0,7.7-1.5,11.5,0.8c-3.9,0-7.7,0-11.6,0C88.3,89.9,88.3,89.6,88.4,89.4z"/>
	<path d="M191.5,135.1c-4.4,0-8.8,0-13.2,0c0-0.3,0-0.5,0-0.8c4.4,0,8.8,0,13.2,0C191.5,134.5,191.5,134.8,191.5,135.1z"/>
	<path d="M228.4,28.6c-3.7,0-7.4,0-11.1,0c0-0.3,0-0.5,0-0.8c3.7,0,7.4,0,11.1,0C228.4,28.1,228.4,28.3,228.4,28.6z"/>
	<path d="M173.7,24.9c3.6,0,7.2,0,10.8,0c0,0.2,0,0.5,0,0.7c-3.6,0-7.1,0-10.7,0C173.7,25.4,173.7,25.1,173.7,24.9z"/>
	<path d="M226,45.2c4.1,0,8.2,0,12.2,0c0,0.3,0,0.5,0,0.8c-4.1,0-8.2,0-12.3,0C226,45.8,226,45.5,226,45.2z"/>
	<path d="M86.3,110c4.2,0,8.4,0,12.7,0c0,0.1,0,0.3,0,0.4c-4.2,0-8.5,0-12.7,0C86.3,110.2,86.3,110.1,86.3,110z"/>
	<path d="M232.9,100.3c-3.6,0.2-6.7,0.4-9.8,0.5C224.7,98.9,230.7,98.7,232.9,100.3z"/>
	<path d="M222.1,40.2c-3.8,0-7.5,0-11.3,0c0-0.2,0-0.3,0-0.5c3.8,0,7.5,0,11.3,0C222.1,39.9,222.1,40.1,222.1,40.2z"/>
	<path d="M87.3,74.7c-3.1,0-6.2,0-9.2,0C79.5,73.1,83.5,72.8,87.3,74.7z"/>
	<path d="M80.7,124c-0.3,0.4-0.6,0.7-1.1,0.8h7.5C85.8,123.5,82.9,123.2,80.7,124z"/>
	<path d="M227.8,86.8c3.3,0.2,6.6,0.3,9.8,0.5c0,0.4,0,0.8,0,1.2c-3.3-0.2-6.6-0.4-9.8-0.6C227.8,87.5,227.8,87.2,227.8,86.8z"/>
	<path d="M90.3,112.3c2.9,0.4,5.8,0.7,8.7,1.1c0,0.3-0.1,0.6-0.1,1c-2.9-0.2-5.8-0.4-8.7-0.6C90.2,113.3,90.2,112.8,90.3,112.3z"/>
	<path d="M226.6,103.5c-3.3,0-6.6,0-9.9,0c0-0.1,0-0.3,0-0.4c3.3,0,6.6,0,9.9,0C226.6,103.2,226.6,103.3,226.6,103.5z"/>
	<path d="M224.6,72.9c-3.3,0-6.6,0-9.9,0C218,71.9,221.3,71.4,224.6,72.9z"/>
	<path d="M236.5,66.7c-3,0.2-5.9,0.3-8.9,0.5c0-0.3,0-0.7,0-1C230.5,65.8,233.5,65.2,236.5,66.7z"/>
	<path d="M149.4,137.6c3.1,0.4,6.1,0.9,9.2,1.3c0,0.3-0.1,0.6-0.1,0.8c-3.1-0.4-6.2-0.8-9.2-1.1
		C149.3,138.3,149.3,137.9,149.4,137.6z"/>
	<path d="M167.9,27c2.8,0,5.6,0,8.5,0c0,0.2,0,0.4,0,0.6c-2.8,0-5.7,0-8.5,0C167.9,27.4,167.9,27.2,167.9,27z"/>
	<path d="M223.6,121.6c2.5,0,5.1,0,7.6,0c0,0.2,0,0.5,0,0.7c-2.5,0-5,0-7.5,0C223.6,122.1,223.6,121.8,223.6,121.6z"/>
	<path d="M89.8,71.2c-2.6,0.2-5.3,0.4-7.9,0.7c2.5-2.1,5.2-1.7,7.8-1.4C89.8,70.7,89.8,70.9,89.8,71.2z"/>
	<path d="M86.2,28c-2.5,0.2-5,0.3-7.4,0.5c0-0.4,0-0.8-0.1-1.2c2.5-0.1,5-0.3,7.5-0.4C86.2,27.3,86.2,27.7,86.2,28z"/>
	<path d="M234.5,56.6c-2.5,0-5,0-7.5,0c0-0.2,0-0.4,0-0.6c2.5,0,4.9,0,7.4,0C234.5,56.2,234.5,56.4,234.5,56.6z"/>
	<path d="M229,116.5c1.8-0.2,3.7-0.4,5.5-0.6c0,0.3,0.1,0.7,0.1,1c-1.8,0.3-3.7,0.6-5.5,0.8C229.1,117.3,229.1,116.9,229,116.5z"/>
	<path d="M233.3,130.4c1.8-0.1,3.7-0.2,5.5-0.3c0,0.3,0,0.7,0,1c-1.8,0-3.7,0-5.5,0C233.3,130.9,233.3,130.6,233.3,130.4z"/>
	<path d="M227.3,62.8c2.2,0,4.5,0,6.7,0c0,0.2,0,0.4,0,0.6c-2.2,0-4.5,0-6.7,0C227.3,63.2,227.3,63,227.3,62.8z"/>
	<path d="M231.2,132.5c2.1-0.1,4.3-0.3,6.4-0.4c0,0.3,0,0.6,0.1,1c-2.1,0.2-4.3,0.4-6.4,0.7C231.2,133.3,231.2,132.9,231.2,132.5z"
		/>
	<path d="M229.8,50.5c-2.1,0-4.3,0-6.4,0c0-0.2,0-0.5,0-0.7c2.1,0,4.2,0,6.4,0C229.8,50,229.8,50.2,229.8,50.5z"/>
	<path d="M231.4,130.6c-2.1,0-4.3,0-6.4,0c0-0.2,0-0.4,0-0.6c2.1,0,4.3,0,6.4,0C231.4,130.2,231.4,130.4,231.4,130.6z"/>
	<path d="M80.1,100.3c1.7,0,3.4,0,5.2,0c0,0.2,0,0.5,0,0.7c-1.7,0-3.4,0-5.2,0C80.1,100.8,80.1,100.5,80.1,100.3z"/>
</g>
<g>
	<g id="XMLID_12_">
		<g>
			<path d="M59.3,68.2c0.1,1.4-0.8,2.2-2.2,1.9c-1.6-0.4-3.6-2.9-3.6-4.8c0.1-1.1,0.7-1.9,2.2-1.5C57.3,64.3,59.2,66.6,59.3,68.2z"
				/>
			<path d="M49.3,76.1c0.2,1.8-0.9,2.7-2.6,2.1c-1.9-0.7-3.9-3.4-3.8-5.2c0-1.4,1-2.1,2.3-1.8C47.2,71.8,49.1,74.1,49.3,76.1z"/>
			<path d="M41.5,40.8c-1,2.7-2.1,5.6-3,8.1C37.6,46.9,39.1,42.7,41.5,40.8z"/>
			<path d="M26.5,48.1C26.5,48.1,26.5,48.1,26.5,48.1L26.5,48.1C26.5,48.1,26.5,48.1,26.5,48.1z"/>
			<path d="M44.6,59.4c-5-5.3-10.8-9.5-18-11.3c0,0,0,0,0,0c0,0,0,0,0,0c-2-0.5-2.3,1.1-3.1,2.1c0.1,0.2,0.3,0.3,0.4,0.5
				c0.9-0.8,1.8-1.7,2.8-2.5h0c-0.3,0.8-0.6,1.6-0.9,2.6C32.7,52,39,54.8,44.6,59.4z M47.2,48.8c2-1.2,3-3.3,2.3-5.6
				c-1.1-3.4-2.5-6.7-3.8-9.8c-2.7,2.4-5.3,4.8-8,7.1c-4.5,3.8-4.2,8.9,0.8,12c0.3,0.2,0.8,0.3,1.1,0.2
				C42.2,51.4,44.8,50.3,47.2,48.8z M51.6,51.9c-1.5,0.6-2.9,1.3-4.1,1.7c-1.1-0.9-1.9-2.2-2.6-2.1c-1.6,0.3-3.1,1.1-4.9,1.8
				c2.4,2.3,4.6,4.3,7.1,6.7c1.7-2.6,3.3-5.1,4.9-7.7C51.9,52.2,51.8,52,51.6,51.9z M54.5,76.1c-0.1-5.9-5.6-12.5-11.5-13.5
				c-4.8-0.8-8.2,2-8.2,6.8c0,6.1,5.7,12.6,11.7,13.3C51,83.3,54.6,80.3,54.5,76.1z M53.9,98.3c-0.5-1.1-1.3-2.8-2.2-2.9
				c-1.8-0.3-3.8,0.2-5.8,0.4c-0.1,0.2-0.2,0.3-0.3,0.5c1.6,1.3,3.2,2.6,4.8,4c1,0.9,1.9,0.8,2.6-0.1C53.5,99.6,54.1,98.7,53.9,98.3
				z M65.8,65.4c0-4.9-3.2-9.6-7.6-11.1c-3-1-5.9-0.2-7.5,2.2c-1.7,2.5-1.7,7-0.1,8.9c1.3,1.6,2.5,3.4,3.8,5
				c0.4,0.5,0.9,1.1,1.4,1.4C60.9,74.6,65.8,71.4,65.8,65.4z M64,92.6c1.7-0.8,3.1-2,4.8-3.2c-0.7-0.9-1.3-1.6-1.9-2.4
				c-1.8,1.4-3.4,2.6-5.6,4.3C62.5,91.9,63.6,92.8,64,92.6z M65.5,99.2c2.9-2.1,3.4-3.6,2.3-7.5c-5,3.4-9.8,6.7-14.7,10
				c0,0.3,0,0.5,0,0.8c2.5,0.8,5.1,1.6,7.6,2.3c0.4,0.1,1.5-0.6,1.5-1C62.5,101.6,63.9,100.4,65.5,99.2z M69,87.4
				c0.9,1.1,1.7,0.9,2.6,0.1c0.6-0.5,1.2-0.8,1.8-1.3c2.1-1.6,1.9-4.2-0.7-5.6c-1.2,1.4-2.3,2.8-3.6,4C68.1,85.6,68.1,86.4,69,87.4z
				 M63.8,102.5c-0.3,0.2-0.3,1.3-0.1,1.7c0.2,0.3,1.3,0.5,1.6,0.2c3-2.1,6.1-4.2,8.9-6.6c0.9-0.8,0.4-1.7-0.8-2.1
				c-1.9-0.6-3.6,0-4.8,1.9c0.5,0.4,1,0.7,1.8,1.3c-1.1,0.2-1.8,0.2-2.3,0.5C66.6,100.4,65.1,101.3,63.8,102.5z M74.7,61.1
				c0-0.6,0.1-1.4-0.3-1.8c-1.6-1.6-2-3.4-1.9-5.7c0.1-3.5-0.4-7.1-0.8-11c-3-0.9-6.2-0.7-9.3,0.9c-4.1,2.1-6.4,5.9-9,9.5
				c7.5-0.3,12.5,3.6,13.6,10.8c0.9,5.9-3.6,11.9-10.6,9.4c-0.3-0.1-0.6-0.1-1.1-0.1c0.1,0.8,0.1,1.4,0.2,1.9
				c0.4,5.7-3.6,9.7-9.3,8.8c-2.4-0.4-4.8-1.5-6.8-2.9c-5.3-3.8-9.1-13.4-1.9-18.5c-4.7-1.4-6.5,1.6-7.5,5.7
				c-0.2-0.1-0.4-0.2-0.5-0.3c-0.4-0.9-0.9-1.8-1.4-2.9c-2.8,1.8-4.7,4.3-6.1,7.2c-4.4,8.9-4.9,17.6,1.2,26.1
				c7.6,10.7,17.9,17.3,30.8,19.8c5,1,10.1,1.4,15.2,0.4c2.4-0.5,3.1-2.1,2.8-4.5c-0.3-2.2,0.1-4.5,0.2-6.8c0-0.5,0.4-1.1,0.9-1.3
				c2.4-1.4,1.6-3.5,1.5-5.7c-1.9,1.4-3.7,2.7-5.4,3.9c-4.4,2.9-9,3.1-13.5,0.6c-2.9-1.6-5.8-3.1-8.2-5.3c-2.6-2.4-5.4-4-8.9-4.8
				c-2.6-0.6-4.8-1.8-6.7,1c0,0-0.1,0-0.2,0c-0.1-2.5,4.6-6.3,7.6-5.8c-1.1,0.8-2.1,1.6-3.4,2.5c5,2.2,10,2.6,15,1.8
				c8.9-1.6,15.5-7.1,20.8-14.2c2.2-3,3.5-6.4,3.2-10.3C74.5,66.7,74.7,63.9,74.7,61.1z M54,94.8c0.6,1.2,1.1,2.2,1.8,3.5
				c2.2-1.6,4.2-2.9,6.3-4.4c-0.6-0.9-1.1-1.6-1.6-2.3C58.2,92.8,56.2,93.8,54,94.8z M74.5,87.1c-1.8,1.3-3.4,2.1-4.7,3.4
				c-0.6,0.6-0.5,2-0.3,3c0.2,1.3,1.2,0.9,2.1,0.8c0.9-0.1,1.8,0,2.8,0C74.5,91.9,74.5,89.7,74.5,87.1z M83.1,106.1
				c-0.4-1.6-1.8-2.2-3.1-2c-1.6,0.2-3.3,0.6-4.5,1.5c-1,0.7-1.9,2.3-1.8,3.4c0.1,0.8,1.9,1.3,2.9,1.9c1.9-0.6,3.4-0.9,4.8-1.5
				C82.6,108.8,83.5,107.6,83.1,106.1z M79,111.4c-1.3,0.2-2.6,0.1-3.8,0.1c-0.6,0-1.6-0.1-1.6,0.1c-0.2,0.7-0.3,1.5,0,2.1
				c1.1,2.3,3.2,3,5.5,3c0.2,0,0.4,0,0.6,0c2.4-0.1,3.7-1.1,3.5-2.8C83,112,81.4,111.1,79,111.4z M79.8,118.5
				c-1.9-0.9-4.1-1.2-6.1-1.8c-1.2,3.5,1.8,7.5,5.3,6.9c0.9-0.2,2.2-1.2,2.2-1.8C81.2,120.7,80.6,118.9,79.8,118.5z M79.8,46.2
				c-3.3,0.4-5.9,2.1-6.3,4.5c-0.2,1.2,0,1.8,1.4,1.6c1.7-0.2,3.5,0,5.2,0c0.7,0,1.7-0.2,2-0.6c0.5-1.1,1.3-2.6,0.9-3.4
				C82.5,47.3,80.9,46.9,79.8,46.2z M74.5,57.1c1.4,1.8,3.4,2.4,5.6,2.5c1.6,0,3.1-0.3,3.5-2.1c0.3-1.8-0.7-3-2.2-3.4
				c-1.7-0.5-3.6-0.8-5.3-0.8C73.7,53.4,73.1,55.3,74.5,57.1z M78.8,39.7c-3.4-0.3-6.3,3.8-5,7.4c1.8-0.7,3.5-1.5,5.2-1.9
				c1.8-0.4,2.2-1.7,2.2-3.1C81.3,40.4,80.2,39.8,78.8,39.7z M84.4,59.6c-2.5,2.9-5.4,1.7-8.4,0.8c0,14.4,0,28.6,0,43
				c3-1.3,5.8-2.1,8.2,0.8c1.8,2.2,0.6,3.9-0.8,5.6c2.8,4.9,2.8,4.9-1.5,8.6c1.9,2.4,2,4.8-0.9,6.6c-1.4,0-2.7,0-4.1,0
				c-1.9-1.7-3.7-3.4-5.8-5.3c-3.5,1.8-7.8,1.5-12.1,0.6c-8.1-1.7-16-3.6-23.3-7.8c-7.2-4.2-12.4-10-16-17.3
				c-5-10.1-1.2-25.4,7.7-32.3c0.6-0.4,0.8-1.3,1.2-1.9c0.1-0.1,0-0.3,0.1-0.4c0.7-1.4,1.2-3.7,2.2-4c1-0.4,2.8,1.2,4.2,1.9
				c-0.3,0.9-0.5,1.4-0.8,2.1c3.2,0.2,6.2,0.4,9.2,0.5c-6.1-6.1-13.5-9-21.9-9.7c-0.1-0.2-0.2-0.4-0.3-0.7c1.2-1.3,2.4-2.8,3.8-4
				c0.4-0.3,1.4-0.1,2.1,0.1c2.5,0.9,4.9,1.9,7.4,2.9c0-0.1,0.2-0.2,0.2-0.2c-1.7-4.6-1.1-6.8,2.9-9.9c3.2-2.5,6.3-5,8.2-8.7
				c0.1,0,0.3,0,0.4,0c0.7,1.8,1.4,3.7,2.1,5.5c0.7,2,1.5,3.9,2.2,5.9c0.7,2.2,0.4,4.3-1.3,6.3c1.3,0.3,2.5,0.6,3.7,0.6
				c0.5,0,1.3-0.4,1.6-0.8c4.2-5.9,10-8.1,17.1-7.3c1.2,0.1,2-0.1,2.9-0.9c1.7-1.6,3.7-2.8,6.3-1.8c2.4,1,3.1,2.8,2.1,5.1
				c-0.2,0.5-0.5,1-0.7,1.4c4.4,4.2,4.4,4.2,1.6,8.7C85.2,55.3,86.4,57.2,84.4,59.6z"/>
		</g>
		<g>
		</g>
	</g>
</g>
<g>
	<path d="M217.1,67.3c-1.2-0.1-2.3-0.3-3.5-0.4c-1.1-0.1-2.3-0.3-3.4-0.4c-1.5-0.1-2.9-0.1-4.4-0.2c-0.1,0-0.2-0.1-0.3-0.1
		c0-0.1,0-0.1,0-0.2c1.5-0.5,3-1,4.5-1.5c0.5-0.2,1.1-0.3,1.7-0.5c0.2-0.1,0.2-0.4,0.3-0.7c-0.2,0-0.5-0.2-0.7-0.1
		c-0.8,0.2-1.5,0.2-2.3-0.1c-0.9-0.3-1.9-0.6-2.9-0.5c-1.2,0-2.4,0.4-3.6,0.6c-0.7,0.1-1.5,0.1-2.3,0.2c0-0.1-0.1-0.1-0.1-0.2
		c0.8-0.5,1.5-0.9,2.3-1.4c2-1.1,4-2,6.2-2.5c3.1-0.8,6.3-1.5,9.4-2.3c1-0.2,2.1-0.5,3.1-0.7c0-0.1,0-0.1,0-0.2c-1.4,0-2.8,0-4.1,0
		c-1.7,0-3.4,0.1-5,0.2c-1,0.1-2,0.2-3.1,0.4c-1.3,0.2-2.6,0.4-3.9,0.7c-1.8,0.3-3.6,0.7-5.4,1c-0.8,0.1-1.6,0.3-2.4,0.4
		c0-0.1-0.1-0.2-0.1-0.3c0.3-0.1,0.6-0.3,1-0.4c0.5-0.2,1.1-0.2,1.7-0.4c0.6-0.3,1.2-0.6,1.9-0.9c0.3-0.1,0.7-0.2,1-0.2
		c0.9,0,1.3-0.2,1.6-1.1c0.1-0.3,0.3-0.6,0.6-0.7c3.3-2.2,6.8-3.9,10.5-5.3c0.2-0.1,0.3-0.2,0.4-0.3c-3.3,0.4-6.5,1.1-9.8,1.1
		c0.4-0.6,0.9-1.1,1.3-1.7c2-2.2,3.3-5.1,5.7-7.1c0.3-0.3,0.4-0.9,0.6-1.3c-0.1-0.1-0.2-0.2-0.3-0.2c-3.4,2.1-6.8,4.3-10.1,6.4
		c0.4-0.9,0.8-1.8,1.3-2.5c0.9-1.3,1.8-2.6,2.7-3.9c0.4-0.5,0.4-1.1,0.3-1.6c-3.9,2.7-7.8,5.5-11.9,8.3c0.2-1.4,0.3-2.7,0.5-3.9
		c0.2-1.4,0.5-2.9,0.7-4.3c0.2-1,0.2-2.1-0.2-3c-0.4-0.8-0.7-1.7-1.1-2.6c-0.9,0-0.9,0-0.9,0.9c0,0.6,0,1.2-0.1,1.7
		c-0.4,1.4-0.8,2.9-1.3,4.3c-0.4,1-0.9,1.9-1.3,2.9c-0.1,0-0.1,0-0.2,0c-0.2-0.4-0.3-0.7-0.5-1.1c-0.5-1.2-1-2.5-1.7-3.7
		c-1-1.9-2.2-3.7-3.1-5.7c-0.5-1-0.8-2.2-1.2-3.3c-0.2-0.7-0.7-0.9-1.4-0.6c0,0.1,0,0.2,0.1,0.3c0.3,1.6,0.8,3.2,0.9,4.9
		c0.1,2.4,0.2,4.9,0.7,7.3c0.1,0.6,0.2,1.4-0.3,2c-0.2-0.3-0.4-0.5-0.6-0.7c-1.3-1.9-2.5-3.9-3.9-5.8c-1-1.4-2.5-2.4-4.1-2.9
		c2.3,4.2,3.9,8.7,5,13.3c-0.6-0.5-0.9-1.1-1.4-1.7c-0.8-1-1.5-2-2.4-2.9c-0.7-0.8-1.7-1.4-2.5-2.2c-0.6-0.7-1.4-1.1-2.2-1.3
		c-0.3-0.1-0.6,0-0.8,0.1c0.4,0.4,0.8,0.8,1,1.3c0.8,1.7,1.7,3.4,2.4,5.1c0.3,0.7,0.6,1.5,0.8,2.3l-0.2,0.1c-0.4-0.3-0.9-0.6-1.2-1
		c-1.5-1.5-2.8-3.1-4.3-4.6c-1.5-1.5-3.3-2.8-5.5-3.1c-1.1-0.2-2.2-0.5-3.2-0.2c-0.2,0.3-0.3,0.6-0.4,0.8c0.4,0.5,0.8,1,1.3,1.5
		c1.5,1.5,3.1,2.9,4.6,4.4c1.8,1.9,3.6,3.8,5.4,5.7c0.5,0.5,0.8,1.2,1.2,1.8c0.1,0.1,0,0.4,0,0.5c-0.2,0-0.3,0-0.5-0.1
		c-0.1,0-0.2-0.1-0.3-0.2c-1.2-0.8-2.4-1.8-3.7-2.3c-3.5-1.4-7.1-2.7-10.7-4c-0.2-0.1-0.6,0.1-0.9,0.2c0,0.1,0,0.1,0,0.2
		c4.8,2,8.7,5.1,11.9,9.2c-1.1-0.3-1.9,0.1-2.6,0.9c-1,0.9-2.1,1.3-3.5,0.8c-1.5-0.5-3.1-0.8-4.7-0.8c-1,0-2.1,0-3.1,0.2
		c-1,0.1-2,0.4-2.9,0.6c-0.1,0-0.1,0.1-0.3,0.3c5.8-0.5,10.3,2.3,14.9,5.3c-0.2,0.1-0.3,0.2-0.3,0.2c-1.3-0.1-2.6-0.3-3.9-0.3
		c-1.1,0-2.1,0.1-3,0.7c-0.2,0.1-0.4,0.1-0.6,0.1c-0.6,0-1.2-0.2-1.9-0.2c-0.6,0-1.2,0-1.7,0.6c2.9,0.6,5.8,0.7,8.6,2
		c-0.5,0.3-0.9,0.5-1.3,0.7c-0.2,0.1-0.3,0.3-0.4,0.4c0.2,0.1,0.4,0.3,0.5,0.3c2.6,0.5,5.2,1,7.8,1.6c0.1,0,0.1,0.1,0.3,0.3
		c-5.5,0.9-10.1,3.3-14.7,6c0,0.1,0,0.1,0.1,0.2h12c0.4,0.6,0.8,1,1,1.4c-0.5,0.7-1,1.4-1.5,2c-0.1,0.1-0.2,0.3-0.4,0.4
		c-0.8,0.5-1.6,1-2.5,1.5c-0.8,0.5-1.7,0.9-2.2,1.6c0.4,0.1,0.7,0.2,1,0.3c0.2,0,0.4-0.1,0.6-0.1c0-0.4,0.3-0.6,0.8-0.6
		c0.8,0,1.3-0.4,1.9-0.7c0.9-0.4,1.9-0.6,2.8-0.8c0.7-0.1,1.4,0,2,0c1-0.1,1.6,0.4,2,1.2c0.2,0.4,0.4,0.9,0.6,1.5
		c-0.2,0.1-0.4,0.3-0.6,0.4c-0.9,0.2-1.9,0.3-2.8,0.6c-1,0.3-1.9,0.6-2.8,1c0.2,0.6,0.3,1.2,0.3,1.7c0.3-0.3,0.6-0.5,1-0.6
		c1.3-0.5,2.7-1,4.1-1.4c2.1-0.6,4-0.1,5.9,0.8c0.9,0.4,0.8,1.2,1.1,1.9c0,0.1-0.2,0.4-0.4,0.4c-2.8,0.4-5.3,1.6-7.7,2.9
		c0,0,0,0-0.1,0c-0.3-2.2-2.2-2.8-3.9-3.7c-0.1,0.4-0.2,0.7-0.3,1.1c0.8,0.3,1.5,0.8,2.1,1.5c0.3,0.4,0.7,0.6,1.1,0.9
		c0,0.1-0.1,0.1-0.1,0.2c-0.7,0.2-1.5,0.5-2.2,0.7c-0.9,0.3-1.9,0.6-2.8,1c-0.4,0.2-0.7,0.2-0.9-0.2c-0.2,0.2-0.4,0.5-0.7,0.7
		c0,0,0,0,0,0c-0.2,0.6-0.6,0.8-1,0.9c-0.5,0.5-1.1,1-1.7,1.4c0.4-0.1,0.8-0.2,1.3-0.3c0.9-0.1,1.9-0.1,2.8,0c0.2,0,0.5,0.3,0.7,0.6
		c0.5,0.5,1,1.1,1.6,1.8c-0.2,0.1-0.4,0.1-0.7,0.2c0.2,0.2,0.5,0.5,0.6,0.8c0.1,0,0.3-0.1,0.4-0.1c1.7-0.5,3,0.2,4.2,1.1
		c0.3,0.2,0.5,0.5,0.8,0.9c-1.8,0.1-3.4,0.4-4.9,1c-0.2,0.7-0.5,1.3-1.1,1.9c-0.7,0.6-1.3,1.3-1.9,1.9c0,0,0.1,0,0.1,0
		c0.8-0.2,1.5-0.1,2.1,0.6c0.6,0.7,1.3,1.2,2.1,1.9c-2.4,0.8-4.8,1-6.8,2.5c0.1-0.9-0.1-1.4-0.4-1.9c-0.6,0.6-1.2,1.2-1.8,1.8
		c0.2,0.2,0.3,0.4,0.5,0.7c0.3,0.3,0.2,0.6-0.2,0.7c-0.5,0.1-1.1,0.1-1.6,0.1c0-0.1-0.1-0.1-0.1-0.2c-0.1,0.2,0,0.5-0.2,0.6
		c-0.1,0.1-0.3,0.2-0.4,0.3c-0.3,0.5-0.5,1-0.8,1.5c0,0,0,0,0,0c0-0.1,0.1-0.1,0.1-0.2c0.1-0.1,0.2-0.3,0.4-0.3
		c0.2-0.1,0.4-0.1,0.6-0.1c0,0.2,0,0.4,0,0.6c0,0.1,0,0.2,0,0.3c0.3,0.1,0.5,0.2,0.8,0.3c0-0.5,0.1-1.1,0.2-1.6
		c0-0.1,0.3-0.3,0.5-0.3c0.4-0.1,0.8-0.2,1.2-0.3c0.4-0.1,0.9-0.1,1.4-0.1c1.4,0,2.7,0.6,3.8,1.6c0.3,0.3,0.3,0.5-0.1,0.7
		c-1.4,0.7-2.8,1.3-4.2,2c-0.4,0.2-0.6-0.1-0.8-0.3c-0.1-0.1-0.3-0.2-0.5-0.3c0.5,0.8,0.6,1.8,0.2,2.9c-0.1,0.2-0.2,0.5-0.3,0.7
		c0.3,0,0.6-0.1,0.9-0.1c0.6-0.1,1.3,0.2,1.9,0.5c0.9,0.5,1.6,1.2,2.1,2.3c-0.9,0.5-1.8,1.1-2.7,1.3c-1.2,0.2-2-0.8-3-1.3
		c-0.1-0.1-0.3-0.2-0.4-0.4c-0.4,0.5-0.7,0.9-1.2,1.3c0.5,0.5,1,0.9,1.7,1.1c0.4,0.2,0.8,0.4,1.1,0.7c1.9,1.5,3.9,2.9,6.5,2.7
		c0.2,0,0.3,0,0.5,0.1c1.6,0.9,3.3,1.7,5.2,1.7c1.7,0,3.5,0,5.2,0c1,0,2.1-0.3,3.1,0.1c0.6,0.2,1.2,0.3,1.8,0.4
		c2.6,0.2,5.1-0.2,7.5-1.2c0.9-0.4,1.8-0.8,2.4-1.4c0.6-0.7,1.2-1.2,2-1.4c0.5-0.1,1-0.2,1.4-0.5c0.5-0.3,1-0.7,1.3-1.1
		c0.4-0.8,0.9-1.3,1.6-1.6c1.2-0.5,1.7-1.5,2.3-2.5c0.2-0.3,0.2-0.6-0.1-0.9c-0.1-0.1,0-0.5,0.1-0.7c0.6-0.7,1.3-1.3,1.9-2
		c0.8-0.8,0.9-1.7,0.3-2.4c-0.2-0.2-0.5-0.4-0.7-0.6c0.2-0.2,0.3-0.3,0.4-0.4c1.1-0.7,1.6-1.9,2-3.1c0.2-0.5,0.1-1.1-0.4-1.5
		c-0.4-0.3-0.3-0.7,0-1c0.5-0.5,1.1-1,1.5-1.5c0.2-0.3,0.3-0.7,0.4-1.1c0.1-0.4-0.1-0.9,0.1-1.3c0.2-0.6,0.1-1-0.3-1.4
		c-0.1-0.1-0.3-0.5-0.2-0.6c0.7-1,0.6-2.1,0.6-3.3c0-0.7-0.3-1.2-0.8-1.5c-0.1-0.1-0.2-0.2-0.4-0.3c0.9-0.5,0.7-1.2,0.3-1.9
		c0-0.1-0.1-0.1-0.1-0.2c-0.4-0.7-0.3-0.9,0.4-1.4c0.5-0.3,0.7-0.7,0.7-1.3c0-1.1-0.7-1.8-1.4-2.4c-0.7-0.7-0.8-1.1-0.1-1.8
		c0.5-0.5,0.7-1,0.5-1.7c-0.2-0.9-0.7-1.7-1.5-2.3c-0.4-0.3-0.8-0.7-1-1.2c-0.5-0.8-0.8-1.7-1.2-2.6c-0.2-0.4-0.6-0.8-0.8-1.1
		c0.1,0,0.3,0,0.6,0c0.7,0.2,1.4,0.4,2.1,0.6c0.2,0,0.4-0.2,0.6-0.2c-0.1-0.1-0.3-0.2-0.4-0.3c-0.1,0-0.2-0.1-0.2-0.1
		c-0.8-1.2-2.2-1.7-3.4-2.3c-0.8-0.4-1.5-0.9-2.2-1.3c0-0.1,0-0.2,0-0.3c1.1-0.3,2.2-0.5,3.3-0.8c1.6-0.4,3.1-0.7,4.7-1.1
		c0.4-0.1,0.8-0.4,1.2-0.7c-1.7-0.3-3.2-0.6-4.8-0.9c0-0.1,0-0.1,0-0.2c0.5-0.2,0.9-0.4,1.4-0.5c1.8-0.5,3.6-0.9,5.5-1.4
		c1.5-0.3,3-0.6,4.5-0.9c0.7-0.2,1.3-0.4,2-0.7c0-0.1,0-0.1-0.1-0.2C218.2,67.4,217.7,67.4,217.1,67.3z M205.7,63.7
		c0.3-0.1,0.6,0,0.9,0.1c-1.2,0.5-2.4,1-3.5,1.6c-1.4,0.7-2.9,1.3-4.3,2c-1.6,0.8-3.2,1.6-4.8,2.4c-0.4,0.2-0.7-0.1-0.8-0.4
		c-0.1-0.8-0.5-1.1-1.3-1c0.2-0.8,0.6-1.3,1.3-1.5c2.1-0.6,4.3-1.3,6.5-1.9C201.6,64.4,203.7,64.1,205.7,63.7z M195.2,77.3
		c2,0.3,3.9,0.5,5.9,0.7c-0.3,0.8-0.9,0.9-1.4,1c-1,0.3-2.1,0.7-3.1,1c-0.5,0.1-1,0-1.5-0.1c-1.1-0.4-2.2-0.4-3.3-0.1
		c-0.1,0-0.3,0-0.4,0c-0.8,0-1.5,0.1-2.5,0.1c1.2-1.1,2.1-2.4,3.8-2.5c0.4,0,0.9,0.3,1.4,0.5c0.7,0.4,1.3,0.8,2,1.3
		C196.5,78.4,195.5,78.1,195.2,77.3z M181.4,71.8c-0.2,0.3-0.5,0.4-0.6,0.7c-0.1,0.2-0.1,0.5-0.2,0.7c-3,0.9-6,1.8-9.1,2.8
		C172.6,74,179,71.3,181.4,71.8z M177.6,70.6c-1.8-0.2-3.4-1.2-5.2-2.1c1.5-0.3,5.6,0.2,6.8,1.6C178.8,70.6,178.1,70.6,177.6,70.6z
		 M180.9,70c-0.8-0.8-1.5-1.6-1.9-2.7c-0.4-0.9-0.7-1.9-1.1-2.8c-0.9-2.1-2.4-3.6-4.5-4.5c-0.5-0.2-1-0.6-1.5-0.9
		c0-0.1,0-0.1,0.1-0.2c0.5,0.1,1.1,0.1,1.6,0.2c2.6,0.7,4.9,1.8,7,3.6c1.6,1.3,3.1,2.8,4.3,4.5c0.5,0.7,0.5,0.8-0.2,1.3
		c-0.5,0.4-1,0.9-1.5,1.3c-0.4,0.3-0.9,0.5-1.4,0.6C181.4,70.5,181.1,70.2,180.9,70z M182.5,71.6c0.5-0.6,1-1.2,1.5-1.8
		c0.5-0.5,1-0.3,1.4,0.1c0.5,0.5,0.9,1.1,1.2,1.7c0.7,1,1.6,1.4,2.6,1.1c0.2-0.1,0.4-0.2,0.6-0.3c0.7-0.6,1.3-1.3,2.1-2.1
		c0.1,0.4,0.1,0.7,0.2,1c0.1,0.7,0.2,1.3,0.3,2c0.1,0.4-0.2,0.5-0.5,0.5c-1.9,0-3.8,0.1-5.7,0c-1.1-0.1-2.2-0.7-3.4-1.1
		C182.2,72.4,182.2,72,182.5,71.6z M186.7,69.4c0-0.1,0.1-0.2,0.1-0.2c1.3,0.1,2.7,0.2,4.3,0.2c-0.8,0.8-1.4,1.4-2.1,2.1
		c-0.1,0.1-0.3,0-0.4,0C187.8,71,187.2,70.2,186.7,69.4z M183,73.5c2.7,0.7,5.4,2,8.3,1.2c0,0.1,0,0.1,0.1,0.2
		c-1.3,1.1-2.5,2.3-3.9,3.4c-0.6,0.5-1.4,0.7-2.1,1.1c-0.1,0.1-0.5-0.1-0.5-0.2c-0.7-1.7-1.3-3.4-1.9-5.2
		C182.9,73.8,183,73.7,183,73.5z M200.1,59c2.4-0.3,4.7-0.6,7.1-0.9c0.4,0,0.7-0.2,1-0.2c0,0.1,0,0.2,0.1,0.3
		c-4.4,1.3-8.2,3.6-12.1,5.9c0,0.2,0.1,0.4,0.1,0.6c-1.1,0.4-2.2,0.9-3.4,1.3l-0.2-0.1c0.4-1,0.8-2.1,1.3-3c0.7-1.3,1.5-2.6,2.9-3.1
		C198.1,59.3,199.1,59.1,200.1,59z M199.2,57.2c-0.1-0.1-0.1-0.2-0.2-0.2l1.2-1c0.1,0.1,0.1,0.1,0.2,0.2
		C200,56.5,199.6,56.8,199.2,57.2z M202.1,55.1c0.1-0.7-0.1-1-0.7-0.9c-0.1,0-0.3-0.1-0.4-0.1c-0.5-0.4-0.9-0.8-1.4-1.2
		c1.4-0.6,3.4-0.3,4.5,0.8C203.4,54.1,202.8,54.6,202.1,55.1z M207.6,51.1c0.8-0.1,1.7-0.2,2.5-0.3c0,0,0,0.1,0.1,0.1
		c-0.6,0.2-1.1,0.4-1.7,0.6c-0.8,0.3-1.7,0.6-2.5,0.8c-0.4,0.1-0.8,0.1-0.8-0.3c0-0.3,0.3-0.7,0.6-0.8
		C206.3,51.1,207,51.2,207.6,51.1z M208,45.3c-0.3,0.5-0.5,1-0.8,1.4c-1,1.7-2.2,3.3-3.6,4.6c-0.3,0.3-0.6,0.3-1,0.3
		c-0.8-0.1-1.6,0-2.4,0.1c-0.9,0.2-1.8,0.4-2.7,0.7c0,0-0.1-0.1-0.1-0.1C201,49.9,204.5,47.6,208,45.3z M195.2,49.2
		c0.2-1.5,1.4-2.1,2.4-2.9c2-1.5,4.1-2.9,6.1-4.4c0.2-0.1,0.4-0.2,0.6-0.3c-0.1,2.5-6.6,10.2-9.3,10.9
		C194.9,51.4,195.1,50.3,195.2,49.2z M198.3,53.4c0.5-0.2,1.7,0.4,1.8,1c0,0.1-0.1,0.3-0.2,0.4c-1,0.9-2.1,1.8-3,2.8
		c-1.5,1.6-2.9,3.3-3.8,5.3c-0.7,1.7-1.5,3.5-2.5,5.2c-0.2,0.5-1.1,0.6-1.5,0.8c-1.1-0.3-2.1-0.5-3-0.8c-0.3-0.1-0.5-0.6-0.7-0.9
		c-0.3-0.5-0.7-1.1-0.6-1.5c0.1-0.4,0.8-0.7,1.2-1.1c1.5-1.6,3-3.3,4.6-4.9c1.2-1.2,2.5-2.4,3.7-3.6C195.5,54.8,196.9,54,198.3,53.4
		z M191.4,45.7c0.2-0.2,0.4-0.5,0.6-0.9c0.6-1.2,1.2-2.5,1.8-3.7c0.3-0.6,0.5-1.2,0.9-1.8c0,0.3,0,0.7,0,1c-0.2,1.4-0.3,2.8-0.5,4.2
		c-0.2,1.7-0.5,3.4-0.7,5.2c-0.1,0.7-0.1,1.5-0.2,2.2c-0.1,1-0.1,2-0.2,3c0,0.1-0.1,0.3-0.1,0.4c-0.7,0.6-1.4,1.2-2.1,1.7
		c-0.1,0-0.2,0.1-0.3,0.1c-0.1-1-0.3-1.9-0.4-2.8c-0.2-1.1-0.3-2.2-0.6-3.2C189.1,48.9,189.8,47.2,191.4,45.7z M186.1,34.9
		c0.5,1.2,1,2.4,1.4,3.7c0.5,1.6,1,3.1,1.5,4.7c0.3,0.8,0.6,1.6,0.7,2.4c0.2,1-0.4,1.8-0.9,2.7c-0.1,0-0.2,0.1-0.3,0.1
		c-0.4-0.7-0.8-1.5-1.3-2.2c-1.3-2-0.9-4.2-1.1-6.4c-0.1-1.4-0.2-2.9-0.2-4.3c0-0.2,0-0.4,0-0.6C186,34.9,186,34.9,186.1,34.9z
		 M180.5,39.1c0-0.1,0-0.3,0-0.6c0.9,1.3,1.7,2.4,2.4,3.6c1.4,2.2,2.8,4.4,4.1,6.8c0.8,1.5,1.3,3.2,1.8,4.8c0.3,1.2,0.5,2.5,0.5,3.8
		c0,0.8-0.1,1.5-0.7,2.3c-1.4,1.5-2.6,3.2-4,4.8c-0.1,0.1-0.2,0.1-0.4,0.3c0.1-0.8,0.2-1.4,0.2-2c0-1.2,0.1-2.3,0-3.5
		c-0.1-1.3-0.3-2.6-0.5-3.8c-0.2-1.3-0.4-2.6-0.6-4c-0.1-0.6-0.3-1.2,0.7-1.5c-1.1-0.6-0.9-1.6-0.9-2.4c0-0.5-0.1-1.1-0.3-1.6
		C182,43.5,181.2,41.3,180.5,39.1z M175.9,42.2c0,0,0.1,0,0.1,0.1c2.1,1.9,4.1,3.9,5.7,6.3c0.2,0.3,0.3,0.8,0.4,1.2
		c0.3,1.9,0.6,3.8,0.9,5.7c0.1,0.4,0.1,0.9,0.1,1.3c0,0-0.1,0-0.1,0c-0.3-0.6-0.5-1.2-0.9-1.7c-1-1.7-2.1-3.3-3-5
		c-0.8-1.5-1.5-3-2.1-4.6C176.5,44.5,176.3,43.3,175.9,42.2z M173.4,49.5c-1.7-1.9-3.4-3.7-5.2-5.5c-0.6-0.6-1.1-1.3-1.6-1.9
		c0,0,0.1-0.1,0.1-0.1c0.9,0.6,1.9,1,2.8,1.7c2.1,1.8,4.3,3.6,6.2,5.6c2.5,2.5,4.5,5.4,6.1,8.6c0.5,1,0.9,1.9,1.4,2.9
		c0.6,1,0.2,2.1,0.3,3.1c-0.1,0-0.2,0.1-0.2,0.1c-0.5-0.5-1.1-1-1.6-1.6c-1.2-1.4-2.4-2.8-4.3-3.5c-0.2-0.1-0.3-0.3-0.4-0.5
		c-0.2-0.8-0.3-1.6-0.4-2.5c0.4,0,0.7,0.1,1.1,0.1c-0.1-0.2-0.2-0.3-0.2-0.3c-1-0.5-1.4-1.4-1.7-2.3
		C175.3,51.9,174.5,50.6,173.4,49.5z M168.5,53.1c-1.3-1.2-2.7-2.2-4-3.3c-0.2-0.1-0.3-0.3-0.5-0.4c0-0.1,0.1-0.1,0.1-0.2
		c0.9,0.4,1.9,0.8,2.7,1.3c2,1.2,3.9,2.5,5.8,3.7c0.6,0.4,1.3,0.7,1.9,1c1.3,0.5,1.5,0.7,1.5,2.2c0,0.2,0,0.4,0,0.6c0,0,0,0.1,0,0.1
		c-1.2-0.3-2.4-0.6-3.5-0.8c-1.2-0.2-2.1-0.6-2.5-2C169.8,54.4,169.1,53.7,168.5,53.1z M169.2,59.2c1.2,0.7,2.5,1.2,3.7,2
		c1.1,0.7,2.2,1.5,3.2,2.3c0.1,0.1,0.1,0.2,0.1,0.4c-3.2-2.1-6.6-4-10.1-5.4C167.2,58.4,168.2,58.7,169.2,59.2z M166.2,66.1
		c-0.9,0.1-1.8-0.2-2.7-0.6c-0.8-0.4-1.6-0.7-2.6-1.1c0.4-0.1,0.7-0.2,1-0.2c2,0,4.1,0.2,6.1,0.1c0.8,0,1.4,0.2,2,0.7
		c0.1,0.1,0.3,0.3,0.5,0.6C168.9,65.7,167.5,66,166.2,66.1z M170.8,64.9c-1.6-1.3-3.3-2.4-5-3.5c-1.1-0.7-2.3-1.4-3.5-2.1
		c0-0.1,0-0.1,0.1-0.2c0.8,0.2,1.7,0.3,2.5,0.6c2.2,0.8,4.4,1.4,6.5,2.4c2,0.9,3.9,2.1,5.8,3.2c0.3,0.2,0.4,0.6,0.6,1
		c0.3,0.5,0.6,0.9,0.8,1.4l-0.1,0.2c-0.2-0.1-0.4-0.2-0.6-0.4c-1.2-1-2.7-1.2-4.1-1.4C172.6,66,171.7,65.6,170.8,64.9z M169.2,74.4
		c-1.5-0.1-3.1-0.2-4.6-0.3c-0.1,0-0.2,0-0.3,0c0-0.1,0-0.1,0-0.2c3-0.8,5.9-1.8,9.1-1.4c-0.8,0.6-1.5,1.3-2.4,1.8
		C170.5,74.6,169.8,74.5,169.2,74.4z M172,79.7c-0.9,0.2-1.7,0.4-2.6,0.6c0.7-2.8,9.1-6.3,12.3-5.7c-0.3,0.2-0.4,0.4-0.6,0.5
		c-0.8,0.3-1.5,0.6-2.3,0.8c-1.8,0.5-3.4,1.3-5,2.1c-0.4,0.2-0.9,0.2-1.3,0.3c-0.1,0-0.3,0.1-0.4,0.1c0.2,0.8,0.6,1,1.2,0.6
		c2-1.1,4.2-1.8,6.4-2.3c0.6-0.2,1.2-0.4,1.8-0.5c0.2,0,0.5,0,0.5,0.1c0.4,0.7,0.8,1.4,1.1,2.1c-0.8,0.4-1.9,0-2.4-0.7
		c-0.3-0.4-0.7-0.7-1.3-0.6c-0.5,0.1-1,0.3-1,1C176,78,174.1,79.1,172,79.7z M176.1,82.5c-0.2-0.9-0.5-1.7-1.6-2
		c1.6-1.6,7.7-1.5,10.2,0.1c-0.7,0.1-1.3,0.2-1.9,0.2c-2,0.2-3.9,1-5.6,2.1C176.4,83.4,176.3,83.4,176.1,82.5z M179.2,84.7
		c-0.3-0.1-0.7-0.2-1.1-0.3c0.9-0.9,2-1.5,3.1-1.9c2.1-0.7,4.3-0.7,6.4,0c1.1,0.4,1.8,1.3,2.6,2.1c0.3,0.3,0.6,0.7,0.9,1.1
		c0.7-0.9,0.3-1.7-0.1-2.4c-0.3-0.7-0.9-1.3-1.4-1.9c1.4-1,3,0,4.4-0.4c0,0.3-0.1,0.8,0,0.8c0.3,0.1,0.6,0.1,1,0.1
		c1-0.1,3.1,0.3,3.4,1.5c0.1,0.4,0.1,0.5-0.3,0.6c-1.8,0.3-3.5,0.8-5,1.7c-0.5,0.3-0.9,0.2-1.5,0.2c-1.3,0-2.6-0.1-3.9,0.2
		c-1.5,0.3-2.9,1-4.4,1.6c-0.3,0.1-0.5,0.2-0.9,0.3c0-0.5,0-0.9,0.1-1.2c0.3-0.5,0-0.8-0.4-0.9C181.2,85.5,180.2,85.1,179.2,84.7z
		 M176.2,91.2c2.5-1.6,5.3-2.1,8.2-1.3c1,0.3,1.9,0.9,2.8,1.4c0.3,0.2,0.5,0.6,0.8,0.9l-0.1,0.2c-0.2,0-0.5,0-0.7,0
		c-2.4-0.1-4.6,0.5-6.8,1.4c-0.6,0.3-1.2,0.5-1.9,0.8c-0.1,0-0.4,0-0.5-0.1c-0.7-0.8-1.2-1.6-1.9-2.4
		C175.6,91.7,175.7,91.5,176.2,91.2z M186.4,121c-1-0.2-1.9,0.1-2.8,0.5c-0.1,0-0.2,0-0.2,0c0-0.1-0.1-0.1-0.1-0.2
		c1-0.5,2-1.1,3.1-1.5c1.3-0.4,2.7-0.8,4.1-0.7c0.9,0.1,1.8,0.1,2.6,0.3c0.6,0.1,1.1,0.5,1.6,0.8c0.5,0.4,0.9,0.8,1.4,1.4
		c-0.9,0.3-1.7,0.5-2.6,0.8c-1.1,0.4-2.2,0.8-3.3,1.2c-0.7,0.2-1.5,0.4-2.2,0.5c-0.1,0-0.3-0.3-0.4-0.5c0-0.3,0.1-0.5,0.1-0.8
		C188,121.8,187.6,121.3,186.4,121z M178.5,113.6c0.4,0,0.8-0.1,1.2-0.1c0.2,0,0.5,0.1,0.7,0.2c0.5,0.6,1,1.2,1.5,1.8
		c-0.4,0.2-1,0.4-1.6,0.7c-1.5,0.7-3,1.4-4.5,2c-0.3,0.1-0.6,0.2-0.8,0.2c-0.1,0-0.4-0.1-0.4-0.2c-0.3-1.3-1.3-2.1-2.3-2.9
		c-0.3-0.3-0.3-0.4,0-0.7c0.8-0.8,1.8-1,2.9-1.1c0.3,0,0.7,0,1,0c0.4,0,0.7,0,0.9,0.4c0.1,0.2,0.4,0.3,0.6,0.4c0.1,0,0.1,0,0.2-0.1
		C177.7,113.7,178,113.6,178.5,113.6z M184.8,103.5c1.4-0.3,2.7-0.7,4.1-0.8c1.4-0.1,2.7,0.3,3.9,1c0.9,0.5,1.2,1.4,1.5,2.3
		c-0.7,0.3-1.3,0.5-2,0.8c-0.2,0.1-0.4,0.2-0.6,0.3c-0.7,0.4-1.3,1.2-2.3,0.6c-1.3,0.5-1.9-0.3-2.7-1.1c-1-1-1.7-1.8-4.1-2.2
		C183.4,104.1,184.1,103.7,184.8,103.5z M181.2,104.1c-0.5-2.2-2.1-2.7-3.9-2.9c0-0.1,0-0.1-0.1-0.2c1.3-0.5,2.7-1,4-1.6
		c1.1-0.5,2.1,0,3.2,0.2c1.1,0.2,2.1,0.5,3.2,0.7c0.6,0.1,1.1,0.8,1.3,1.4C186.2,102,183.6,102.7,181.2,104.1z M189.6,109.6
		c0.2,0,0.3,0,0.5,0c0.9,0.5,1.7,1.1,2.6,1.7c0,0.1,0,0.2,0,0.2c-3.1,0.2-5.7,1.4-8.4,3c-0.1-1.6-1.7-1.9-2.6-2.8
		c1-0.8,2.1-1.3,3.3-1.6C186.4,109.7,188,109.6,189.6,109.6z M175.7,118.7c1.2-0.2,2.4,0.4,3.1,1.4c0.3,0.4,0.6,0.8,0.9,1.1
		c-2,1.2-3.8,2.3-5.7,3.5c-0.1-1.3-1.1-2-2-2.2c-0.9-0.2-2.1,0.3-3.1,0.5c0.7-1.1,1.7-2,2.8-2.8C173,119.4,174.3,119,175.7,118.7z
		 M178.4,117.9c0.4-0.2,0.7-0.3,1.1-0.5c1-0.4,2-0.9,3-1.2c0.6-0.2,1.3-0.3,1.9,0.2c0.2,0.2,0.5,0.2,0.8,0.2c0.8,0,1.7,0,2.5,0
		c0.8,0,1.5,0.3,2.1,1.1c-3,0.6-5.5,2.3-8.2,3.3c-0.4-0.7-0.6-1.5-1.1-2C179.9,118.5,179.1,118.3,178.4,117.9z M191.6,117.6
		c-0.2,0-0.4-0.2-0.4-0.3c-0.6-1.2-1.7-1.7-2.9-1.9c-0.7-0.1-1.3-0.1-2.2-0.2c1-0.6,1.9-1.2,2.8-1.6c1.5-0.6,3-1.1,4.7-1
		c0.2,0,0.4,0.1,0.6,0.1c0.2,0,0.5,0,0.7-0.1c1.3-0.7,2.6-0.8,3.9-0.2c0.3,0.1,0.6,0.4,0.9,0.7c0.3,0.3,0.4,0.8,0.7,1.3
		c-0.7,0.1-1.3,0.2-1.9,0.4c-1.6,0.3-3.1,1-4.4,2C193.4,117.4,192.6,117.7,191.6,117.6z M194.1,111.4c-0.9-0.8-1.9-1.7-3.1-2.8
		c1.1-0.4,1.9-0.8,2.7-0.9c1.5-0.2,3.1-0.3,4.6-0.3c0.6,0,1.9,0.9,2,1.4c0,0.1-0.2,0.4-0.3,0.4c-0.4,0.1-0.9,0.1-1.3,0.3
		C197.3,110.1,195.7,110.7,194.1,111.4z M200.1,106.6c-0.1-0.1-0.1-0.2-0.2-0.4c0.9-0.3,1.6-0.6,2.4-0.8c0.6-0.2,1,0.3,1.4,0.6
		c0.6,0.5,1.2,1.1,1.7,1.7c0.3,0.3,0.3,0.6-0.3,0.7c-0.9,0.1-1.7,0.3-2.6,0.4c-0.1,0-0.2,0-0.3-0.1
		C201.5,108,200.8,107.3,200.1,106.6z M199.8,104.8c-1.2,0.6-2.3,1-3.6,0.9c-0.2,0-0.5-0.2-0.5-0.3c0.1-1.1-0.8-1.5-1.4-2.1
		c-0.5-0.5-1.1-0.8-1.9-1.3c0.8-0.6,1.5-1.1,2.3-1.5c1.1-0.6,2.3-1.1,3.6-1c1.4,0.1,2.5,0.5,3.2,1.8c0.4,0.8,0.9,1.6,1.4,2.4
		C201.8,104.1,200.8,104.3,199.8,104.8z M201,98.3c-0.3,0-0.6,0.3-0.8,0.4c-0.3,0-0.8-0.2-0.8-0.3c0-0.9-0.7-1.1-1.3-1.4
		c-0.4-0.2-0.8-0.5-1.1-0.7c0-0.1,0-0.2,0-0.3c1.9-0.5,3.7-1.1,5.6-1.5c0.6-0.1,1.3,0.1,1.9,0.2c0.3,0,0.5,0,0.8-0.1
		c0.4-0.1,0.6-0.8,1.2-0.4c0.6,0.4,0.9,1.4,0.8,2c-0.3,1.1-1.1,1.6-2.6,1.7C203.5,97.9,202.2,98.1,201,98.3z M197.8,98.5
		c-1.2,0.4-2.5,0.8-3.7,1.3c-1.2,0.5-2.4,1.1-3.7,1.7c-0.6-1.8-2.1-2.2-3.6-2.8C189.3,97.3,195.4,96.2,197.8,98.5z M183.8,98.2
		c0-1.6-1.6-1.9-2.4-2.9c1.2-0.4,2.3-0.8,3.5-1c1.2-0.3,2.4-0.4,3.6-0.5c1.6,0,3.1,0.5,4.3,1.8c0.1,0.1,0.2,0.3,0.4,0.6
		C189.7,96,186.9,97.5,183.8,98.2z M170.1,96.8c-0.6-0.8-1.1-1.7-1.8-2.7c0.8-0.3,1.5-0.8,2.4-1c0.8-0.2,1.6-0.3,2.4-0.4
		c0.7-0.1,1.2,0.1,1.8,0.5c0.7,0.5,1.5,1,2.2,1.4c0,0.1,0,0.1,0,0.2c-2,0-3.4,1.4-5,2.3C171,97.7,170.8,97.8,170.1,96.8z
		 M172.8,97.6c1.5-1.4,3.4-1.7,5.5-1.7c0,0.2,0,0.4-0.1,0.6c0.8,0.1,1.6,0.1,2.4,0.2c0.8,0.1,1.5,0.6,2.1,1.3
		c-2.2,0.9-4.7,0.9-6.6,2.2C175,99.4,173.9,98.5,172.8,97.6z M171,106.4c-0.1,0-0.1,0-0.2,0c-0.1-0.3-0.3-0.6-0.3-1
		c0.1-0.8-0.2-1.3-1-1.4c-0.1,0-0.1-0.1-0.4-0.3c0.8-0.4,1.4-0.7,2.1-0.9c1.4-0.4,3-0.4,4.4-0.6c1.6-0.3,2.9,0.3,4.2,1
		c0.4,0.2,0.5,0.4,0.3,0.8c-0.3,0.7,0.1,1.2,0.8,1.2c2,0,3.6,0.9,5.1,2c0.2,0.1,0.3,0.3,0.4,0.5c0.3,0.6,0.2,0.8-0.4,0.9
		c-1.8,0.5-3.7,1-5.3,2.1c-0.4,0.3-0.7,0.5-1,0.9c-0.4,0.4-0.7,0.3-0.9-0.1c-0.6-1.1-1.7-1.5-2.8-2c-0.9-0.4-1.8-0.7-2.9-1.1
		c2.1-1.5,4.7-2,6.8-3.3c-3.1,0.1-5.8,1-8.3,2.8l-0.1-0.2c0.4-0.4,0.8-0.8,1.1-1.2c0.4-0.4,0.3-0.9-0.2-1.1c-0.4-0.2-0.6,0-0.8,0.3
		C171.3,106,171.2,106.2,171,106.4z M168.1,110.9c0-0.1,0-0.3,0-0.4c-0.2,0-0.3,0-0.5,0.1c-0.2,0.2-0.4,0.4-0.6,0.6
		c-0.1-0.1-0.1-0.1-0.2-0.2c0.2-0.2,0.3-0.5,0.5-0.6c0.8-0.3,1.6-0.6,2.5-0.8c1.4-0.2,2.7-0.3,4.1,0.1c1,0.3,1.9,0.8,2.9,1.6
		c-2.3,0.8-4.7,1.3-6.5,3c-0.7-0.7-0.7-0.9,0-1.3c0.1-0.1,0.3-0.4,0.2-0.6c-0.2-0.5-0.4-0.9-0.7-1.3c-0.1-0.2-0.3-0.3-0.4-0.5
		c-0.1,0.2-0.3,0.3-0.4,0.5c-0.2,0.3-0.3,0.7-0.4,1.2C168.1,111.9,168.1,111.4,168.1,110.9z M164.4,118.3c0.3-0.2,0.7-0.5,1.1-0.7
		c1.3-0.7,2.6-1.3,4.1-1.1c0.2,0,0.4-0.1,0.6-0.2c0.9-0.6,1.2-0.6,2,0.1c0.6,0.6,1.1,1.3,1.7,1.9c-1.8,1.1-3.5,2.2-5.3,3.3
		c0,0,0,0,0,0c0.1-0.3,0.3-0.8,0.2-1c-0.3-0.4-0.8-0.9-1.3-1.1C166.5,119,165.5,118.7,164.4,118.3z M172.3,125.5
		c-0.1,0.4-0.4,0.7-0.5,1c-0.4,0.7-0.5,0.8-1.5,0.8c-1.1-0.1-2.4-0.2-3.5-1.1c-1-0.8-1.2-1.8-0.2-2.6c0.8-0.6,1.1-1.1,2.2-0.1
		c0.2,0.2,0.8,0.1,1.1,0c0.5-0.2,0.8-0.1,1.2,0.2c0.4,0.4,0.8,0.7,1.2,1.1C172.3,125,172.3,125.3,172.3,125.5z M177.5,128.8
		c-1.7-0.4-3.6-0.3-5.1-1.5c1.3-1.5,6.2-0.8,7.6,1.1C179.2,129,178.3,129,177.5,128.8z M178.9,126.4c-0.8-1-1.9-0.9-2.9-0.8
		c-0.1,0-0.2,0-0.3,0.1c-0.1-0.1-0.1-0.1-0.2-0.2c0.4-0.4,0.7-0.9,1.2-1.2c1.6-1,3.5-1.5,5.4-1.5c1,0,1.9-0.2,3-0.3
		c0.6,0.7,1.2,1.4,1.8,2.1c-1.7,0.3-3,1.3-4.4,2.1C181.2,127.4,179.8,127.5,178.9,126.4z M193.3,126.6c-0.6,0.5-1.1,1.1-1.8,1.5
		c-1.9,1-3.9,1.4-6,1.2c-1-0.1-1.9-0.6-3-0.9c1.4-1.4,6.3-3.4,7.8-3.3c-0.1,0.2-0.2,0.4-0.3,0.7c0.3,0,0.6,0.1,0.8,0.1
		c0.8,0.1,1.6,0.1,2.3,0.2C193.5,126,193.7,126.3,193.3,126.6z M198.2,124.6c-0.4,0.4-1,0.7-1.6,0.9c-0.5,0.2-1,0.4-1.6,0.5
		c-0.4-1-1-1.7-2.1-1.9c0.4-0.6,0.9-0.9,1.5-0.9c1.1,0,2.2-0.1,3.3-0.2c0.4,0,0.7-0.3,1-0.5c0.2-0.1,0.4-0.2,0.5-0.4
		c0,0,0.1,0.1,0.1,0.1C199.1,123,198.8,123.9,198.2,124.6z M202.7,118c-0.4,0.2-0.7,0.3-1.1,0.5c-0.2,0.1-0.4,0.2-0.7,0.3
		c0.7,0.4,0.9,0.8,0.5,1.4c-0.1,0.1-0.2,0.2-0.3,0.3c-1.2,0.3-2.4,0.6-3.6,0.9c-0.2,0-0.5-0.1-0.6-0.3c-0.5-1.4-1.5-2.4-3-3.2
		c0.3-0.2,0.5-0.4,0.8-0.6c1.4-0.7,2.8-1.5,4.2-1.9c1.7-0.4,3.2-0.3,3.9,1.7C203.1,117.5,203.1,117.8,202.7,118z M206.5,111
		c-0.2,0.5-0.5,1-0.9,1.5c-0.1,0.2-0.4,0.5-0.6,0.5c-0.7-0.1-1,0.3-1.4,0.8c-0.2,0.2-0.6,0.2-0.9,0.3c-1,0.2-1.7,0-2.2-1.1
		c-0.4-0.8-1.3-1.4-2-2.2c0.1-0.4,0.4-0.7,1-0.7c0.6,0,1.3-0.1,1.9-0.2c0.1,0,0.3-0.1,0.4,0c1.1,0.5,1.9-0.1,2.8-0.5
		c0.4-0.2,0.7-0.4,1.1-0.5c0.6-0.2,0.9,0,0.9,0.6C206.8,110.1,206.7,110.6,206.5,111z M208.3,104.3c-0.1,1.1-0.4,2.2-1.3,2.9
		c-0.1,0.1-0.3,0.2-0.5,0.4c-0.3-0.6-0.6-1.1-0.9-1.6c-0.1-0.2,0-0.5,0.1-0.7c0.2-0.4,0.4-0.8,0.7-1.1c0.3-0.4,0.8-0.6,1.2-1
		C207.8,103.6,208.3,104,208.3,104.3z M207.7,98.7c0.1,0,0.3,0.2,0.3,0.2c0.1,0.8,0.2,1.6,0.1,2.3c-0.1,0.6-0.5,1-1.1,1.2
		c-0.8,0.3-1.6,0.7-2.3,1.1c-0.6,0.3-0.8,0.1-0.9-0.5c-0.1-0.5-0.2-1.1-0.4-1.6c-0.3-0.7-0.7-1.4-1.1-2.3c0.9-0.2,1.8-0.6,2.7-0.7
		C205.9,98.4,206.8,98.6,207.7,98.7z M205.1,84.2c0.7,0,1.3,1.1,1.1,1.9c-0.2,0.7-0.7,1.4-0.4,2.3c0.1,0.3,0.3,0.6,0.5,0.8
		c1,0.5,1.1,1.5,1,2.4c0,0,0,0.1,0,0.1c-0.2,1.2-0.6,1.4-2.2,1.6c-1.7,0.2-3.4,0.5-5,0.8c-1.3,0.2-2.7,0.4-4,1
		c-1,0.4-1.7,0.4-2.4-0.4c-0.5-0.5-1.1-0.7-1.6-1.1c-0.4-0.3-0.5-0.5,0-0.8c1.8-1.2,3.7-1.8,5.9-1.8c0.8,0,1.6-0.2,2.4-0.2
		c0.4,0,0.8,0.2,1.2,0.4c0.3,0.1,0.6,0.2,0.9,0.3c0.1-0.1,0.1-0.2,0.2-0.3c-0.4-0.3-0.8-0.7-1.4-1.1c1.2-0.7,2.6-0.7,3.9-1.3
		c-1-0.4-2-0.4-2.8-0.2c-1.6,0.3-3.3,0.8-4.9,1.2c-0.1,0-0.3,0.1-0.4,0.1c-1.9-0.2-3.6,0.6-5.3,1.3c-0.9,0.4-1.7,0.8-2.6,1.3
		c-0.4-0.9-0.9-1.7-1.9-2.2c-0.9-0.4-1.8-0.9-2.9-1.5c0.5-0.4,1-0.8,1.5-1c1-0.3,2-0.5,3.1-0.7c0.7-0.1,1.5-0.3,2.2-0.2
		c1.1,0.1,2.2,0.3,3.3,0.5c1.1,0.2,1.9,0.8,2.1,2c0,0.1,0.1,0.1,0.2,0.3c0.3-0.6,0.6-1.1,0.6-1.5c0-0.4-0.5-0.8-0.9-1.2
		c-0.3-0.3-0.7-0.4-1-0.7c1.4-1.4,5.8-1.5,9.2,0.1c0.1-0.4,0.1-0.4-1.2-1.3c-0.5-0.3-1.2-0.4-2-0.7c0.5-0.1,0.9-0.2,1.3-0.3
		C203.6,84.2,204.4,84.2,205.1,84.2z M204.4,83.4c-0.2,0-0.4,0-0.6,0c-1.1-0.3-2.2,0-3.3,0.3c-0.5,0.1-0.7,0-0.8-0.4
		c-0.4-1.1-1.5-1.9-2.7-1.9c-0.4,0-0.7-0.2-0.7-0.6c1-0.3,1.9-0.6,2.8-0.8c1.1-0.2,2.2-0.3,3.3-0.2c0.4,0,0.9,0.7,1.2,1.2
		C204,81.7,204.2,82.6,204.4,83.4z M201.9,76c0.8,0.6,1.7,1,2.6,1.5c0.1,0.1,0.3,0.2,0.4,0.3c-3.1-1-6.4-1-9.7-1.5
		c0.9-0.3,1.7-0.5,2.4-0.7C199.1,75.1,200.6,75.1,201.9,76z M198.6,73.8c-1,0.2-2,0.6-3,0.9c-0.4,0.1-1.9-0.5-2-0.8
		c0-0.1,0.1-0.4,0.2-0.4c0.8-0.3,1.7-0.6,2.5-0.7c2.1-0.2,4.2-0.2,6.3-0.2c0.2,0,0.4,0,0.6,0c0,0.1,0,0.1,0,0.2
		C201.7,73.1,200.1,73.4,198.6,73.8z M208.4,68.4c-1.8,0.5-3.5,1.2-5.3,1.7c-2.1,0.5-4.3,0.9-6.5,1.4c-0.4,0.1-0.9,0.1-1.3,0.1
		c-0.2,0-0.3-0.1-0.5-0.2c0.1-0.1,0.2-0.3,0.3-0.4c2-1.2,4.1-2.2,6.3-2.6c2.3-0.5,4.7-0.9,7.1-0.9c0.8,0,1.6,0.1,2.5,0.2l0,0.1
		C210.1,68,209.2,68.2,208.4,68.4z"/>
</g>
<g>
	<path d="M102.7,59.2c1.3-1.5,3.3-1.1,4.9-1.6c0.5-0.1,1-0.1,1.5-0.1c1.4,0,2.8,0.2,4.1,0c0.8-0.1,1.4-0.2,2,0.4
		c0.1,0.1,0.5,0.2,0.7,0.1c1-0.4,1.9-0.9,2.8-1.3c1.9-0.7,3.8-1.4,5.8-2.1c1.8-0.6,3.6-1,5.4-1.5c0-0.1,0-0.2,0-0.3
		c-1.1,0-2.2,0-3.3,0c0-0.1,0-0.2,0-0.4c1.8,0.1,3.6,0.2,5.3,0.4c0.8,0.1,1,0.7,1,1.3c-0.7-0.3-1.2-0.6-1.7-0.6
		c-0.6,0-1.1,0.2-1.7,0.3c-0.7,0.1-0.9,0.5-0.7,1.2c0.5,1.5,0.8,3.1,1.3,4.6c2.8,9.7,5.6,19.3,8.4,29c0.1,0.3,0.4,0.9,0.5,0.9
		c1.5,0,1.7,1.1,1.8,2.2c0.1,0.6,0.5,1.2,0.6,1.8c0.2,0.6,0.2,1.1,0.3,1.7c-0.1,0-0.2,0.1-0.4,0.1c-0.4-1.3-0.9-2.6-1.3-3.9
		c-0.1,0-0.2,0.1-0.3,0.1c0.3,0.9,0.6,1.9,0.9,2.8c-0.1,0-0.2,0.1-0.3,0.1c-0.4-0.9-0.8-1.8-1.1-2.6c-2.3,0.2-1.4,1.8-1.6,3
		c-0.2-0.7-0.4-1.5-0.7-2.2c0,0-0.1,0-0.1,0.1c0.3,1.4,0.5,2.8,0.8,4.2c-0.2,0-0.3,0.1-0.5,0.1c-0.6-1.5-1.2-3-1.6-4.5
		c-0.1-0.4,0.3-0.9,0.4-1.3c0.1-0.4,0.4-0.9,0.3-1.2c-0.7-2.6-1.5-5.2-2.1-7.8c-0.7-2.8-1.1-5.7-1.8-8.5c-0.2-0.9-1-1.6-1.3-2.5
		c-1.5-4.9-3-9.8-4.4-14.7c-0.4-1.2-0.9-1.6-2-1.1c-2.3,0.9-4.6,1.7-6.8,2.7c-0.4,0.2-0.7,0.8-1.1,1.1c-0.3,0.2-0.6,0.3-0.9,0.5
		c-0.3-1-1.2-0.8-1.9-0.9c-4.1-0.4-8.1-0.9-11.7,2c0,0-0.1,0-0.4,0c0.1-0.4,0.2-0.7,0.3-1C102.5,59.4,102.6,59.3,102.7,59.2z
		 M137.1,86.8c-0.9,1.4,0.3,2.3,0.5,3.4c0,0.5-0.1,0.9-0.1,1.4c0.6-0.1,1.2-0.3,1.8-0.4c0-0.1,0-0.2,0-0.3c-0.5-0.2-1.1-0.5-1.6-0.7
		C137.5,89,137.3,87.9,137.1,86.8z M130.5,65.1c0.1,0.9,0.2,1.8,0.3,2.8c0.1,0.4-0.2,1.1,0.7,0.9c0.1,0,0.3,0.5,0.4,0.8
		c0.9,3.2,1.8,6.5,2.7,9.8c0.1,0.4-0.2,1-0.1,1.4c0.6,1.7,1.3,3.3,2,5.1c0.3-2.9-1-5.2-1.8-7.6c-0.8-2.5-1.5-5.1-2.2-7.7
		c-0.7-2.6-1.4-5.1-2-7.7c-0.2,0-0.3,0.1-0.5,0.1C130.2,63.7,130.4,64.4,130.5,65.1z M129.1,60.5c-0.1-2.5-0.1-2.5-1.2-2.8
		C128.2,58.6,128.6,59.4,129.1,60.5z"/>
	<path d="M123,37.7c0.8-0.7,1.6-0.6,2.4-0.1c0.5,0.2,0.9,0.4,1.4,0.7c0-0.1,0.1-0.2,0.1-0.3c-0.6-0.3-1.1-0.6-1.7-0.9
		c0-0.1,0-0.1,0.1-0.2c0.6,0.1,1.2,0.2,1.9,0.3c0,0,0-0.1,0-0.1c-0.5-0.2-1-0.4-1.6-0.7c1.5-1.1,3.1-0.3,4.6-1
		c-0.9,0-1.8,0.1-2.7,0.1c0-0.1,0-0.2-0.1-0.4c0.9-0.2,1.8-0.3,2.7-0.6c0.6-0.2,1.2-0.6,1.8-0.8c0.3-0.1,0.6-0.4,0.9-0.4
		c4.7-0.6,9.3-0.8,13.9,0c3,0.6,5.8,1.8,8.6,2.8c1.5,0.5,2.9,1.2,4.3,1.8c0.1-0.1,0.1-0.2,0.2-0.3c-0.1-0.1-0.2-0.4-0.3-0.4
		c-4.6-1.9-9.1-4.1-14.1-4.7c-4.3-0.5-8.6-0.4-12.9,0.2c-1.4,0.2-2.7,0.3-4.1,0.5c-0.3,0-0.7,0.3-0.9,0.6c-0.5,0.5-0.9,1.2-1.4,1.9
		c-0.4-0.7-0.5-1-0.8-1.4c-1.7,3.5-2.3,2.7-5.7,2.3c0.8-0.6,1.5-0.9,2-1.4c0.5-0.6,0.8-1.4,1.3-2.1c0.9,0.4,1.9,0.9,3.4,1.6
		c-0.5-1.8,0.7-1.3,1.5-1.9c-0.7-0.1-1-0.2-1.4-0.2c-1-0.1-1.9,0.2-3-0.4c-1-0.6-2.6-0.3-3.8,0.8c1.1,1.1,0.2,1.7-0.4,2.5
		c-1.4,1.6-3.3,2.2-5,3.2c-3.1,1.8-6.1,3.8-9.1,5.7c-0.2,0.1-0.3,0.4-0.4,0.7c4.1-2.9,8.3-5.6,13-7.5c0.1,0.1,0.2,0.2,0.2,0.3
		c-0.3,0.2-0.5,0.4-0.8,0.6c-0.3,0.2-0.6,0.3-0.8,0.6C118.5,38.6,120.6,37.3,123,37.7L123,37.7z"/>
	<path d="M102.4,59.6c0.1-0.1,0.3-0.2,0.4-0.4c-0.6-0.2-1.2-0.3-1.7-0.6c-0.5-0.3-1-0.7-1.6-1.2c1-0.3,2-0.6,3-0.9
		c0-0.2-0.1-0.3-0.1-0.5c-2.2,1-4.3,0.8-6.7,0c0.8,0,1.3,0,1.8,0c0-0.1,0-0.2,0-0.3c-0.9-0.1-1.7-0.3-2.6-0.4c0-0.1,0-0.1,0-0.2
		c1.2,0.1,2.5,0.2,3.7,0.3c0-0.1,0-0.2,0-0.4c-1.1-0.2-2.3-0.4-3.7-0.6c1.5-1.7,2.9-3.3,4.4-4.8c0.2-0.2,0.8-0.2,1.1-0.1
		c1.9,0.5,3.3-1,5-1.2c0-0.1-0.1-0.3-0.1-0.4c-1.6,0.4-3.3,0.8-4.9,1.2c-0.1-0.1-0.1-0.2-0.2-0.3c0.8-0.7,1.6-1.3,2.3-2
		c-0.1-0.1-0.1-0.2-0.2-0.4c-0.5,0.3-1.1,0.4-1.4,0.8c-2.7,2.8-5.3,5.5-7.9,8.3c-0.2,0.3-0.4,0.6-0.6,1.1c0.6,0.1,1.1,0.4,1.5,0.3
		c2.2-0.1,4.2,0.4,6,1.6c0.4,0.3,0.8,0.6,1.2,1C101.6,59.7,102,59.7,102.4,59.6z"/>
	<path d="M133.7,54.5c0.1-0.5,0.3-0.8,0.3-1c-0.4-1.2,0.4-1.7,1.2-2c2-0.7,4-1.4,6-2c1.6-0.5,3.2-0.8,4.8-1.2
		c1.2-0.3,2.3-0.8,3.6,0.4c0.1-0.7,0.2-1.2,0.3-1.7c-1,1.3-1.7-0.1-2.4-0.1c0,0.1,0,0.2,0,0.3c-0.5,0-0.9,0.1-1.4,0
		c-1.4-0.4-2.8-0.8-4.1-1.2c0,0.1-0.1,0.3-0.1,0.4c1.2,0.4,2.4,0.7,3.7,1.1c-3,0.9-5.8,1.7-8.6,2.6c-0.9,0.3-1.7,0.7-2.5,1.1
		C132.7,51.9,132.5,52.6,133.7,54.5z"/>
	<path d="M127.4,51.5c-1.2-0.1-2.4-0.2-3.7-0.3c0,0.1,0,0.3,0,0.4c2.2,0.2,4.3,0.3,6.5,0.5c0-0.1,0-0.1,0.1-0.2
		c-0.6-0.2-1.2-0.4-1.8-0.6c0,0,0-0.1,0-0.1c0.3,0,0.5,0,0.8,0c0.2-1.4-1-0.9-1.6-1.5c0,0.5,0,0.8,0,1.1c-1.4-0.3-2.8-0.5-4.1-0.7
		c0,0.1-0.1,0.3-0.1,0.4c1.3,0.3,2.7,0.6,4,0.8C127.4,51.4,127.4,51.5,127.4,51.5z"/>
	<path d="M99.4,52.7c-0.6,0-1.1-0.1-2-0.1c0.3,0.4,0.5,0.5,0.7,0.7c-0.7,0.1-1.2,0.1-2.1,0.2c0.4,0.4,0.6,1,0.8,1
		c1.6,0.2,3.1,0.2,4.7,0.3c0.2,0,0.4-0.1,0.5-0.4c-1.1,0-2.1-0.1-3.5-0.2c0.6-0.4,0.9-0.6,1.2-0.8C99.7,53.2,99.5,53,99.4,52.7
		L99.4,52.7z"/>
	<path d="M151.2,37.8c2.1,0.2,4.3,0.5,6.4,0.7c0,0.1,0,0.3,0,0.4c-0.8,0.5-1.6,1.1-2.4,1.6c0.1,0.1,0.1,0.2,0.2,0.3
		c1.1-0.6,2.1-1.2,3.2-1.8c-0.4-1-1.1-1.2-2-1.2c-1.8,0-3.6-0.2-5.4-0.3C151.2,37.6,151.2,37.7,151.2,37.8z"/>
	<path d="M132.1,37.1c2.2,0.5,4.4,1,6.6,1.5c0-0.1,0.1-0.2,0.1-0.3c-2.2-0.6-4.1-2.2-6.6-1.5C132.2,36.9,132.1,37,132.1,37.1z"/>
	<path d="M135.3,49.9c0.8-0.6,2.2,0.3,2.7-1.2c0-0.1,0.2-0.1,0.3-0.1c1.6-0.4,3.1-0.8,4.8-1.2c-1.5-0.8-2.8,0.1-4.2,0.3
		c-0.4,0.1-0.8,0.4-1.2,0.6c-0.2,0.1-0.5,0.1-0.5,0.2c0,1-0.9,0.7-1.4,0.9c-0.2,0.1-0.4,0.2-0.6,0.3
		C135.2,49.7,135.2,49.8,135.3,49.9z"/>
	<path d="M107.6,48.4c-1.6,2.5-3.1,4.9-4.7,7.4c0.1,0.1,0.2,0.1,0.3,0.2c1.8-2.3,3.4-4.7,4.7-7.4C107.8,48.5,107.7,48.4,107.6,48.4z
		"/>
	<path d="M123,37.7c-0.4,0.2-0.9,0.4-1.4,0.7c0.3,0.2,0.7,0.6,1.1,0.9c-0.3,0.1-0.6,0.2-1,0.4c0.5,0.9,0.9,1.7,1.4,2.4
		c0.1,0,0.2-0.1,0.3-0.1c-0.2-0.7-0.4-1.5-0.6-2.2C123.8,39.1,123.9,38.8,123,37.7C123,37.7,123,37.7,123,37.7z"/>
	<path d="M136.4,36.2c-2.1-0.1-4.3-0.2-6.4-0.3c0,0.2,0,0.4,0,0.6c2.1,0,4.3,0,6.4,0C136.4,36.4,136.4,36.3,136.4,36.2z"/>
	<path d="M134,38.2c2.5,0.9,5,1.8,7.5,2.7c0-0.1,0.1-0.2,0.1-0.4c-2.5-0.9-5-1.8-7.5-2.7C134.1,37.9,134.1,38,134,38.2z"/>
	<path d="M98.6,51.7c2.1,0.5,3.9-1,5.9-1.1c0-0.1-0.1-0.3-0.1-0.4c-2,0.4-3.9,0.7-5.9,1.1C98.5,51.4,98.6,51.6,98.6,51.7z"/>
	<path d="M154.4,41.3c-1.4,1.7-2.9,3.4-4.3,5c0.1,0.1,0.3,0.2,0.4,0.3c1.4-1.7,2.9-3.4,4.3-5.1C154.6,41.5,154.5,41.4,154.4,41.3z"
		/>
	<path d="M112.4,56.5c-3.1-0.3-5.9,0-8.5,1C106.6,57.2,109.3,56.9,112.4,56.5z"/>
	<path d="M132.2,35.5c2.3,0.2,4.7,0.3,7,0.5C136.8,35.5,134.5,35,132.2,35.5z"/>
	<path d="M139,41.4c1.9,0.9,3.8,1.8,5.7,2.7c0.1-0.1,0.1-0.3,0.2-0.4c-1.9-0.9-3.8-1.7-5.7-2.6C139.2,41.2,139.1,41.3,139,41.4z"/>
	<path d="M125.2,37.8c-0.2,0-0.5-0.1-0.8,0c-0.1,0.1-0.2,0.5-0.1,0.8c0.6,1.3,1.3,2.5,2,3.7C126.3,40.8,124.6,39.7,125.2,37.8z"/>
	<path d="M127.1,36.6c1.9,0.5,3.8,1.1,5.6,1.6c0-0.1,0.1-0.3,0.1-0.4c-1.9-0.5-3.8-1-5.6-1.5C127.2,36.4,127.1,36.5,127.1,36.6z"/>
	<path d="M111.6,44c1.6-1.2,3.2-2.3,4.7-3.5c-0.1-0.1-0.2-0.2-0.3-0.4c-1.6,1.2-3.1,2.4-4.7,3.5C111.4,43.8,111.5,43.9,111.6,44z"/>
	<path d="M116.3,53.6c0.4-2,0.8-4,1.2-6c-0.1,0-0.3-0.1-0.4-0.1c-0.4,2-0.7,4-1.1,6C116.1,53.5,116.2,53.5,116.3,53.6z"/>
	<path d="M120.9,38.1c-1.1,1.4-2.2,2.8-3.4,4.1c0.1,0.1,0.2,0.2,0.3,0.3c1.1-1.4,2.3-2.8,3.4-4.1C121.1,38.2,121,38.2,120.9,38.1z"
		/>
	<path d="M128,42.8c0.2-1.5-0.8-2.2-1.6-3.1c-0.1,0.1-0.2,0.1-0.3,0.2C126.7,40.9,127.4,41.9,128,42.8z"/>
	<path d="M128.6,45.9c0.6,1.5,1.1,3,1.7,4.4c0.1,0,0.2-0.1,0.4-0.1c-0.6-1.5-1.1-3-1.7-4.4C128.8,45.8,128.7,45.8,128.6,45.9z"/>
	<path d="M99.4,52.7c1.3,0.1,2.7,0.4,4.2-0.6c-1.5,0.1-2.7,0.1-3.9,0.2C99.5,52.3,99.5,52.6,99.4,52.7L99.4,52.7z"/>
	<path d="M123.8,53.5c-1.1,0-2.3,0-3.4,0c0,0.1,0,0.2,0,0.3c1.1,0,2.3,0,3.4,0C123.8,53.7,123.8,53.6,123.8,53.5z"/>
	<path d="M105.4,56c1.5-0.2,3.1-0.4,4.6-0.6c0-0.1,0-0.2,0-0.3c-1.6,0.1-3.1,0.3-4.7,0.4C105.3,55.7,105.3,55.9,105.4,56z"/>
	<path d="M146.8,35.6c1.2-0.3,2.4-0.6,3.6-0.8c0-0.2-0.1-0.3-0.1-0.5c-1.2,0.3-2.4,0.6-3.5,0.9C146.8,35.3,146.8,35.5,146.8,35.6z"
		/>
	<path d="M103.8,49.7c-1.5,0.1-2.7,0.2-3.9,0.4C100.6,50.6,102.2,50.5,103.8,49.7z"/>
	<path d="M106.4,55c0.9-0.2,1.9-0.4,2.8-0.5c0-0.2-0.1-0.3-0.1-0.5c-1,0.2-1.9,0.4-2.9,0.6C106.3,54.8,106.4,54.9,106.4,55z"/>
	<path d="M108,51.2c1.1-0.2,2.3-0.4,3.4-0.6c0-0.1-0.1-0.3-0.1-0.4c-1.1,0.2-2.3,0.4-3.4,0.7C108,51,108,51.1,108,51.2z"/>
	<path d="M149,36.2c1-0.2,2-0.3,2.9-0.5c0-0.1-0.1-0.3-0.1-0.4c-1,0.2-2,0.3-2.9,0.5C149,35.9,149,36,149,36.2z"/>
</g>
<g>
	<path d="M169.5,98.3c-0.2-0.4-0.7-0.9-1.1-1c-0.9-0.3-1.9-0.4-2.8-0.5c-0.6-0.1-1.2,0-1.8,0c0-0.1,0-0.1,0-0.2c2.1-1.2,3.6-3,5.1-5
		c1.6-2.1,1.8-4.3,1.1-6.8c-0.4-1.4-0.9-1.5-1.8-1.5c-0.1,0-0.3,0-0.4-0.1c-2.8-0.5-5.5-1.1-8.3-1.6c-2.5-0.4-5-0.9-7.6-1
		c-4.9-0.2-9.7-0.2-14.6-0.3c-0.4,0-0.8,0-1.3,0c0.1,0.1,0.1,0.3,0,0.5c0,0.1-0.1,0.1-0.1,0.1c0.5,0.2,0.7,0.5,0.9,0.9
		c4,0.1,8,0.2,11.9,0.2c4.3,0,8.5,0.7,12.7,1.5c2.3,0.5,4.6,0.9,6.9,1.3c0.2,0,0.4,0.3,0.5,0.5c0.5,1.8,0.4,3.5-0.9,5.2
		c-1.3,1.6-2.5,3.3-4.4,4.4c-1.3,0.8-2.7,1.2-4.3,1c-4.5-0.6-8.9-1.3-13.2-2.3c-0.6-0.1-1.2-0.3-1.8-0.4c5.4,0.6,10.8,0.4,16.1-0.7
		c0-0.1,0-0.1,0-0.2c-1,0.1-2,0.3-3,0.4c-3.1,0.4-6.3,0.4-9.4,0.2c-2.3-0.2-4.5-0.4-6.8-0.8c0.1,0.3,0.2,0.6,0.3,0.9
		c0.3,0.6-0.6,1.1-0.9,0.5c-0.3-0.5-0.4-1-0.5-1.6c-0.8-0.1-1.5-0.3-2.3-0.5c0.1,0.1,0.2,0.3,0.1,0.4c-0.1,0.3-0.1,0.7-0.2,1
		c1.9,0.6,3.8,1,5.8,1.5c3.9,0.9,7.9,1.5,11.9,2c2.1,0.3,4.2,0.7,6.3,1.3c1.6,0.4,3.2,0.5,4.9,0.5c0.1,0,0.3,0,0.4,0
		c1.1,0.1,1.8,0.6,1.9,1.7c0,0.2,0.1,0.4,0.1,0.5c0.3,0.9,0.3,1.7-0.6,2.5c-0.7,0.6-1.2,1.4-1.6,2.2c-0.7,1.4-1.7,2.4-2.7,3.4
		c-2.2,2-4.7,3.6-7.5,4.7c-1.3,0.5-2.6,0.2-3.8-0.1c-3.4-1-6.8-2.1-10.2-3.1c-2.3-0.7-4.6-1.2-6.8-1.9c-6.7-2.2-12.5-6-17.3-11.2
		c-2.2-2.3-4.3-4.7-5.9-7.4c-2-3.3-3.6-6.8-4.6-10.5c-0.4-1.4-0.3-2.9-0.3-4.4c0-1.7,0.1-3.3,0.1-5c0-0.8-0.3-1.7-0.4-2.6
		c0.9-0.3,1.2-0.2,1.4,1c0.2,1.3,0.2,2.7,0.2,4c0,2.7,0.9,5.1,2.6,7.1c0.9,1.1,2.2,2,3.5,2.9c4.1,2.9,8.5,5.3,13.1,7.4
		c2.8,1.3,5.7,2.4,8.7,3.3c0-0.3,0.1-0.7,0.2-1c0-0.2,0.1-0.3,0.3-0.3c-0.9-0.2-1.7-0.5-2.6-0.7c-2.3-0.8-4.6-1.8-6.9-2.8
		c-3.8-1.8-7.5-3.8-11.1-6.1c-1.7-1.1-3.3-2.4-4.6-4c-1.4-1.7-2-3.7-2.4-5.8c-0.3-1.5-0.5-2.9,0-4.4c0.2-0.5,0.5-1,0.7-1.6
		c-0.6,0.1-1.2,0.1-1.8,0.3c-1.7,0.3-3.4,0.7-5.1,1c-0.7,0.1-1.5,0.1-2.3,0.2c-0.3-1.3-0.4-2.5-1.5-3.3c-0.1,0-0.1,0.1-0.2,0.1
		c0.1,0.2,0.2,0.4,0.3,0.5c0.5,0.8,0.9,1.8,0.6,2.8c-0.1,0.3-0.3,0.7-0.5,0.7c-0.2,0-0.6-0.2-0.7-0.5c-0.6-1.4-0.6-2.8-0.2-4.3
		c0.1,0,0.2,0,0.2,0c1.3,1.1,2.8,1,4.4,0.7c2.8-0.5,5.7-1,8.6-1.5c0.3,0,0.8-0.1,0.9,0.1c0.3,0.4,0.4,0.9,0.5,1.4
		c0,0.1-0.2,0.4-0.4,0.5c-0.8,0.6-1.7,1.1-2.4,1.7c-0.4,0.3-0.7,0.9-0.7,1.4c-0.2,3.2,0.8,6,3.1,8.2c1,1,2.4,1.5,3.7,2.2
		c3.6,1.7,7.4,2.9,11.3,3.3c1.9,0.2,3.9,0.3,5.8,0.4c0.1-0.2,0.2-0.4,0.4-0.6c-0.1-0.3-0.2-0.6-0.3-1c-1.9-0.1-3.7-0.2-5.6-0.3
		c-4.6-0.4-8.8-1.9-12.9-4c-0.9-0.5-1.8-0.9-2.4-1.8c-1.1-1.5-1.8-3.1-2-5c-0.1-0.9,0.1-1.7,1-2.1c0.5-0.3,1-0.7,1.6-1
		c0.6-0.3,1-0.8,1.1-1.5c0.2-1.1-0.3-2-0.9-2.9c-0.5-0.7-0.8-0.8-1.7-0.5c-0.1,0-0.1,0-0.2,0c-3,0.5-6,1-9,1.5
		c-1.3,0.2-2.4,0.2-3.5-0.7c-0.7-0.5-1.3-0.3-1.7,0.5c-0.3,0.7-0.5,1.5-0.6,2.3c-0.1,1.3,0.2,2.5,0.6,3.7c0.1,0.3,0.3,0.5,0.5,0.7
		c0.7,0.8,1.8,0.8,2.6,0.2c0.2-0.2,1.8-0.1,1.9,0.1c0.1,0.1,0.1,0.2,0.1,0.3c0.1,1.2,0.2,2.5,0.4,3.7c0.3,2.1,0,4-0.9,5.9
		c-1.8,3.5-2.6,7.2-2.9,11.1c-0.3,3.8,0.1,7.6,0.9,11.3c1.4,6.5,4.3,12.2,8.7,17.3c3.7,4.3,8,7.7,13.1,10.3
		c4.8,2.5,9.9,3.6,15.3,3.9c1.9,0.1,3.9,0,5.8-0.2c2.3-0.2,4.7-0.7,6.8-1.8c2.1-1.1,4.1-2.4,6.1-3.7c2.4-1.5,4.6-3.3,6.6-5.3
		c0.4-0.4,0.6-0.9,0.7-1.5c0.3-1.5,0.3-3.1,0.1-4.6c-0.3-1.5-1.1-2.3-2.6-2.4c-0.4,0-0.9,0-1.3,0c0.1-0.2,0.2-0.4,0.4-0.5
		c1.7-0.9,3.2-2.1,4.7-3.4c1.1-1.1,2.2-2.2,2.9-3.6c0.5-1,1.4-1.8,2.2-2.7c0.3-0.4,0.6-0.8,0.6-1.3
		C170.5,100.9,170.1,99.6,169.5,98.3z M159.9,115.5c0.5,0,0.9,0,1.4,0c0.7,0,1.1,0.4,1.1,1.1c0.1,1.4,0,2.7,0,4.1
		c0,0.3-0.3,0.5-0.5,0.8c-1.9,1.9-4,3.5-6.2,5c-1.6,1-3.1,2.1-4.8,3c-2.5,1.4-5.2,2-8.1,2.3c-4.2,0.4-8.4,0-12.5-0.9
		c-4.4-1-8.4-3-12.2-5.6c-4-2.8-7.5-6.2-10.3-10.2c-3.2-4.6-5.3-9.6-6.3-15.2c-0.9-5.1-0.9-10.1,0.5-15.1c0.4-1.3,0.9-2.7,1.5-3.9
		c1.1-2.3,1.6-4.7,1.3-7.3c-0.2-1.5-0.4-3-0.5-4.5c-0.1-0.8,0.4-1.4,1-1.5c0.2-0.1,0.5,0,0.7,0.2c0.6,0.7,1,1.5,1,2.4c0,1,0,2,0,3
		c0,0-0.1,0-0.1,0c-0.1,1.3-0.1,2.6-0.2,3.8c-0.1,1.9,0.2,3.8,1,5.6c1.3,3.1,2.7,6.1,4.5,9c2.2,3.5,4.8,6.6,7.9,9.3
		c4,3.4,8.2,6.4,13.2,8.1c4,1.4,8.1,2.6,12.2,3.9c1.9,0.6,3.8,1.3,5.8,1.9c1.5,0.4,3.1,0.9,4.7,1.1
		C157.3,115.7,158.6,115.5,159.9,115.5z"/>
	<path d="M105.1,85.3c0.6,8,3.6,15,8.3,21.4c2.8,3.8,6.3,6.8,10.5,9c3.2,1.7,6.7,2.7,10.3,3.3c4.4,0.7,8.8,0.8,13.2,0.6
		c2.1-0.1,4.1-0.3,6.2-0.5c0.1,0,0.2,0,0.4,0.2c-0.6,0.1-1.1,0.2-1.7,0.3c-3.4,0.5-6.8,0.6-10.2,0.4c-3.2-0.1-6.5-0.3-9.6-1
		c-8.1-1.8-14.7-6-19.6-12.7c-3-4.1-5.2-8.5-6.8-13.3C105.2,90.4,105.1,87.9,105.1,85.3z"/>
	<path d="M159.4,122.3c-0.3-1.7-1.1-3.4,0-5.1c0.3-0.4,0.6-0.7,1-1c-0.6,0.8-0.9,1.6-0.8,2.6c0.1,0.3,0.1,0.7,0.2,1
		C160,120.7,159.8,121.5,159.4,122.3z"/>
	<path d="M112.9,89.4c0.3,0.3,0.5,0.6,0.8,0.9c2.1,2.8,4.8,4.7,7.8,6.4c5.3,3.1,11,5.2,17,6.6c5.8,1.4,11.6,2.2,17.5,1.7
		c2.3-0.2,4.7-0.6,7-0.9c0.1,0,0.2,0,0.4,0.1c-0.3,0.1-0.6,0.4-0.9,0.4c-5.2,0.9-10.5,1.3-15.8,0.7c-5.8-0.7-11.5-2.2-17-4.3
		c-3.6-1.3-7.2-2.9-10.4-5.1c-2.4-1.6-4.5-3.5-6.1-5.9C113.1,89.8,113,89.6,112.9,89.4C112.9,89.4,112.9,89.4,112.9,89.4z"/>
	<path d="M168.5,102.4c-0.6,0.2-1.1-0.2-1.4-1.1c-0.4-1.1-0.3-2,0.3-2.3C166.7,100.6,167.7,101.4,168.5,102.4z"/>
	<path d="M167.9,89.1c-1.4-0.4-1.8-1.7-1-2.7c0.2-0.3,0.6-0.5,0.9-0.7c-0.1,0.3-0.1,0.7-0.2,1c0,0.2-0.1,0.5,0,0.7
		C167.6,88,167.8,88.5,167.9,89.1z"/>
</g>
</svg>
