<?xml version="1.0" encoding="utf-8"?>
<!-- Generator: Adobe Illustrator 17.1.0, SVG Export Plug-In . SVG Version: 6.00 Build 0)  -->
<!DOCTYPE svg PUBLIC "-//W3C//DTD SVG 1.1//EN" "http://www.w3.org/Graphics/SVG/1.1/DTD/svg11.dtd">
<svg version="1.1" id="Layer_1" xmlns="http://www.w3.org/2000/svg" xmlns:xlink="http://www.w3.org/1999/xlink" x="0px" y="0px"
	 viewBox="0 0 288 216" enable-background="new 0 0 288 216" xml:space="preserve">
<g>
	<path d="M165.5,92c-0.5-1.5-2-2.2-4.4-1.9c1.6-2,4.9-1.4,6.1,1.1c1.9-0.4,3.9-0.7,5.8-1.1c1.1-0.2,2.1-0.5,3.2-0.8
		c2.3-0.7,4.1-2.2,5.4-4.2c0.6-0.9,0.8-1.8,0.9-2.8c0.1-0.4,0.2-0.9,0.2-1.4c0.6,0.2,0.9,0.7,1,1.2c0.1,0.5,0.2,1,0.3,1.6
		c0.3,0.9,0.7,1.3,1.7,1.3c0.7,0,1.2,0.2,1.8,0.6c0.8,0.5,1.7,0.7,2.6,0.6c1.4-0.1,2.8-0.4,4.2-0.6c0.4-0.1,0.9-0.2,1.3-0.3
		c0.6-0.2,1-0.1,1.3,0.5c0.1,0.2,0.4,0.3,0.6,0.3c1.2,0,2.5-0.1,3.7-0.1c1.4,0,2.7,0,4.1,0c0.5,0,0.9,0.1,0.8,0.8
		c0,0.2,0.3,0.4,0.5,0.5c2,1.2,4,2.4,6,3.6c4.5,2.6,8.1,6.1,10.6,10.7c1.8,3.2,3.5,6.5,4.9,10c0.8,2.1,1.1,4.2,1.3,6.4
		c0.2,2,0.9,3.8,2.2,5.4c1.9,2.3,4.1,4.2,6.4,6.2c0.7,0.6,1.5,0.7,2.3,0.5c2-0.6,4-1.1,6-1.6c5.4-1.4,10.9-2.8,16.3-4
		c3.5-0.8,7-0.9,10.4,0.1c0.8,0.2,1.6,0.6,2.4,0.8c0,0.1,0,0.1,0,0.2c-0.2,0.2-0.4,0.3-0.7,0.5c-0.6,0.3-1.1,0.6-1,1.4
		c0,0.3-0.3,0.7-0.5,1c-1,1-1.5,2.3-1.9,3.7c-1,3.7-1.9,7.5-3.7,10.9c-1.5,2.8-3.1,5.5-4.7,8.2c-1.5,2.6-3.4,4.9-5.6,6.9
		c-2.8,2.7-5.9,5.1-9.6,6.4c-3.1,1.1-6.3,1.5-9.6,1.6c-1.9,0.1-3.8-0.1-5.8-0.1c-0.5,0-0.6-0.2-0.6-0.6c-0.1-2.2-0.1-4.5-0.3-6.7
		c-0.1-1.8-0.3-3.6-0.6-5.4c-0.2-1.1-0.8-2.2-1.3-3.3c-0.2-0.4-0.7-0.7-1.2-0.9c-2-0.5-4-1-5.9-1.4c-1.6-0.3-3.1-0.2-4.5,0.8
		c-0.4,0.3-1,0.3-1.5,0.5c-1.5,0.5-2.9,1.2-3.8,2.6c-0.7,1.1-1.4,2.1-2,3.3c-1.2,2.2-2.9,3.9-5.1,4.9c-1.5,0.7-3.3,0.9-5.1,0.3
		c-1.2-0.4-2.5-0.8-3.8-1.1c-0.9-0.2-1.8-0.2-2.7-0.2c-0.4,0-0.7,0.2-0.8,0.7c-0.1,0.5-0.4,0.6-0.8,0.3c-0.5-0.4-1.1-0.9-1.5-1.4
		c-0.2-0.2-0.4-0.4-0.7-0.3c-0.2,0.1-0.4,0.1-0.6,0c-0.6-0.3-0.9,0-1.3,0.3c-0.9,0.6-2,0.8-3,0.2c-0.7-0.4-1.3-0.7-2.2-0.4
		c-0.3,0.1-0.8-0.1-1.1-0.3c-0.6-0.3-1.1-0.4-1.8-0.1c-0.2,0.1-0.5,0.1-0.7-0.1c-1.1-0.7-2.3-0.7-3.4-0.2c-0.3,0.2-0.6,0.1-0.8-0.1
		c-1.1-1-2.2-2-3.2-3.1c-1.4-1.4-2.8-2.9-4.6-3.8c-0.6-0.3-1.2-0.5-1.8-0.7c-4.7-1-9.2-2.7-13-5.8c-4-3.2-6.8-7.1-8.2-12.1
		c-0.1-0.3-0.3-0.6-0.5-0.9c-0.9-0.8-1.1-1.8-0.8-3c0.3-1.1,1-1.8,2.2-2c0.3-0.1,0.7,0,1,0.1c1.2,0.3,2.3,0.1,3.3-0.6
		c2.6-1.7,4-5.6,3.1-8.6c-0.3-1-0.9-1.8-2-2.2c-1.6-0.6-3.1-1.5-4.3-2.7c-0.3-0.3-0.5-0.6-0.8-0.9c-0.4-0.5-0.4-1-0.1-1.5
		c1.5-2.2,2.8-4.6,4.6-6.6c1.5-1.7,2.6-3.5,3.5-5.6c0.9-1.9,2.3-3.5,4.6-3.9c0.9-0.1,1.9,0.1,2.9,0.1c0.3,0,0.6,0,0.8-0.1
		C163.1,93.1,164.3,92.6,165.5,92z M152.8,115.9c0.2,0.8,0.5,1.5,0.6,2.2c0.2,2.8-0.7,5.2-2.7,7.2c-1.3,1.3-2.8,1.8-4.7,1.3
		c-0.2-0.1-0.4,0-0.6,0c-1.4,0.4-2.1,2-1.6,3.4c0.2,0.6,0.6,1.1,1.3,1.2c1,0.2,2,0.4,3,0.5c0.7,0.1,1.3,0.2,2,0.2
		c-1.7,0.4-3.4,0.1-5-0.4c0,0.1,0,0.2,0,0.3c1.5,5.3,4.6,9.4,9.1,12.6c3,2.1,6.3,3.4,9.8,4.4c3.8,1.1,7.8,1.5,11.7,1.7
		c7.2,0.4,14.4,0.1,21.5-0.9c4.3-0.6,8.5-1.4,12.7-2.1c4.2-0.7,8.4-1,12.7-0.4c3.4,0.4,6.6,1.3,9.6,3c2.1,1.1,4.3,1.3,6.6,0.7
		c1.4-0.4,2.6-1.1,3.5-2.3c1.1-1.4,1.9-2.9,2.5-4.6c0.8-2.5,0.6-4.8-0.9-7c-0.1-0.1-0.1-0.3-0.1-0.4c0-0.3,0-0.6-0.1-0.8
		c-0.5-0.8-0.9-1.7-1.5-2.3c-1.2-1.2-2.6-2.2-3.9-3.3c-2.4-1.8-4.6-3.7-6.4-6c-1.7-2.3-3.4-4.7-5.1-7.1c-1.5-2.2-2.9-4.5-4.7-6.4
		c-3.9-4.4-8.4-8.1-13.4-11.1c-4-2.3-8-4.4-12.3-5.9c-7.4-2.7-15.1-3.8-23-3.2c-2.7,0.2-5.1,1.2-7.6,2.1c-7.5,3-13.7,7.6-18,14.5
		c-0.5,0.9-1,1.7-1.5,2.6c0.6,0.4,1.1,0.6,1.5,1c0.4,0.3,0.8,0.7,1.3,1.1c0,0-0.1,0.1-0.1,0.1c-1-0.5-1.7-1.5-3.1-1.8
		c0.2,0.5,0.2,1,0.4,1.2c0.5,0.5,1,1,1.6,1.5c1.9,1.4,4.1,2.2,6.4,3c3.1,1,6.2,1.9,9.5,1.8c2.1-0.1,4.2-0.2,6.2-0.3
		c1.3-0.1,2.6-0.1,3.9-0.2c0.7,0,1.5-0.1,2.2-0.6c-0.3-0.2-0.6-0.3-0.9-0.5c0.8-0.4,1.8-0.1,2.5,0.7c1.1,1.2,1.3,3.1,0.4,4.3
		c-0.1-0.4-0.1-0.8-0.2-1.3c0-0.5,0-1.1-0.1-1.6c-0.3-1-1.1-1.4-1.9-0.9c-1,0.6-2,1.3-2.7,2.2c-4.2,4.7-9.2,7.9-15.2,9.5
		c-3.8,1-7.6,1-11.4-0.2c-0.6-0.2-0.8-0.9-0.4-1.4c0.1-0.1,0.4-0.2,0.6-0.2c0.2,0,0.3,0.3,0.5,0.5c-0.3,0.1-0.5,0.1-0.7,0.2
		c0.5,0.5,0.8,0.6,1.5,0.2c1.2-0.6,2.5-1.3,3.7-2c0.5-0.3,1.1-0.8,1.4-1.3c1.2-1.9,1.7-4,1.5-6.3
		C154.2,117.2,153.7,116.4,152.8,115.9z M243.7,135c0.1,0.3,0.1,0.3,0.1,0.4c0.3,1,1.2,1.1,2.1,1.2c4.8,0.3,9.6,0.7,14.3,1.6
		c0.7,0.1,1.4,0.3,2.1,0.5c0,0.1,0,0.1,0,0.2c-5.9-0.6-11.7-1.7-17.8-1.8c0.8,1.4,1,2.9,1,4.3c0,0.7,0.5,1,1,1.2
		c3.3,1.5,6.6,3.1,10,4.6c0.7,0.3,1.4,0.7,2.1,1c-4.6-1.4-8.8-3.6-13.1-5.9c-0.2,0.6-0.3,1.1-0.5,1.6c-0.1,0.3,0,0.5,0.2,0.7
		c3.2,2.2,6,4.7,8.8,7.4c0.5,0.5,1,1,1.5,1.5c-3.8-2.6-6.8-6.2-10.9-8.5c-0.2,0.4-0.3,0.8-0.5,1.2c3.3,3.2,6.2,6.8,8.9,10.4
		c-3.4-3-5.9-6.8-9-10c-0.7,1-1.5,2-2.2,3.1c2.1,2.4,4,5,5.3,7.9c-1.9-2.5-3.5-5.3-5.6-7.7c-0.3,0.2-0.5,0.3-0.7,0.4
		c-0.9,0.5-0.7,0.3-0.4,1.2c0.2,0.5,0.4,1.1,0.6,1.7c-0.1,0-0.1,0.1-0.2,0.1c-0.1-0.4-0.3-0.7-0.4-1.1c-0.1-0.3-0.2-0.6-0.4-0.9
		c-0.1-0.1-0.3-0.1-0.5-0.2c0,0.2-0.1,0.4-0.1,0.5c0.1,0.4,0.3,0.8,0.4,1.2c0.1,0.4,0.2,0.9,0.4,1.4c-0.1,0-0.1,0-0.2,0.1
		c-0.3-0.8-0.6-1.6-0.9-2.4c-0.1-0.2-0.3-0.4-0.5-0.4c-0.9,0.1-1.7,0.2-2.5,0.3c0.5,1.6,1.1,3.2,1.6,4.8c0.5,1.6,0.7,3.3,0.6,5
		c-0.3-1.1-0.5-2.3-0.7-3.5c-0.4-2.1-0.9-4.1-1.9-6c-0.1-0.2-0.2-0.4-0.3-0.5c-0.9-0.2-1.9-0.4-2.9-0.6c0.4,1.6,0.7,3.2,1,4.8
		c-0.1,0-0.1,0-0.2,0.1c-0.2-0.4-0.4-0.8-0.5-1.3c-0.3-1-0.4-2-0.7-3c-0.2-0.7-0.6-1.3-1.5-1.4c1.6,5,1.5,10.2,1.8,15.4
		c2.1,0,4.1,0,6.2,0c0-0.5,0-0.9,0-1.3c0.1,0,0.2,0,0.4,0c0,0.3,0,0.7,0,1c0,0.3,0.1,0.4,0.5,0.4c1-0.1,2.1-0.2,3.1-0.3
		c0.5-0.1,1.1-0.3,1.7-0.4c-1-1.9-1.9-3.7-2.2-5.7c0.1,0.2,0.2,0.4,0.3,0.6c0.7,1.5,1.4,3.1,2,4.6c0.2,0.4,0.5,0.5,0.9,0.4
		c1.7-0.3,3.2-0.9,4.7-1.7c0.6-0.3,1.2-0.7,1.7-1.1c-1.4-2.5-3.3-4.6-4.4-7.2c0.1,0,0.1-0.1,0.2-0.1c1.5,2.4,3,4.8,4.6,7.2
		c3.2-2.6,6.5-5,8.8-8.5c-0.9-0.4-1.8-0.8-2.6-1.2c-0.8-0.4-1.6-1-2.4-1.4c0-0.1,0.1-0.1,0.1-0.2c0.1,0,0.2,0.1,0.3,0.1
		c1.5,0.7,3,1.5,4.5,2.2c0.2,0.1,0.5,0.1,0.6,0c0.6-0.9,1.2-1.8,1.9-2.8c-0.3-0.2-0.6-0.3-0.8-0.4c0.2-0.1,0.3-0.1,0.4-0.1
		c0.5,0.2,0.8,0,1-0.5c0.3-0.6,0.7-1.2,1-1.7c0.2-0.4,0.5-0.9,0.7-1.3c-5.1-1.1-10-2.2-14.9-3.3c0-0.1,0-0.1,0-0.2
		c0.3,0,0.5,0,0.8,0.1c2.2,0.4,4.5,0.8,6.7,1.3c2.4,0.5,4.8,1,7.2,1.6c0.3,0.1,0.5,0.1,0.7-0.2c0.5-1,1.1-2,1.6-3.1
		c0.4-0.8,0.7-1.6,1-2.4c-1.1-0.1-2.1-0.2-3-0.3c0-0.1,0-0.1,0-0.2c0.3,0,0.7,0,1,0c0.5,0,1,0.1,1.5,0.1c0.4,0,0.6-0.1,0.7-0.5
		c0.2-0.8,0.5-1.5,0.7-2.3c0.3-0.9,0.6-1.8,0.9-2.7c-1.5,0-3,0.2-4.5-0.1c1.2-0.1,2.4-0.1,3.6-0.1c1-0.1,1.1-0.2,1.2-1.3
		c-4.9,0.3-9.7,0.6-14.6,0.2c0.1-0.1,0.2-0.1,0.4-0.1c2.3,0,4.5-0.1,6.8-0.2c2.4-0.1,4.8-0.3,7.2-0.5c0.3,0,0.5,0,0.6-0.4
		c0.3-1.4,0.9-2.6,1.9-3.6c0.2-0.2,0.2-0.5,0.3-0.7c-0.2,0-0.5-0.1-0.7-0.1c-5.3,0.4-10.5,0.8-15.8,1.1c-0.4,0-0.7,0-1.1,0.1
		c0.8-0.2,1.5-0.4,2.3-0.5c4.7-0.7,9.5-1,14.3-0.9c0.2,0,0.5,0.1,0.7-0.1c0.5-0.4,1-0.8,1.6-1.3c0,0,0-0.1-0.1-0.1
		c-0.2-0.1-0.3-0.1-0.5-0.2c-2.4-0.8-5-1-7.5-0.8c-4.2,0.3-8.2,1.3-12.2,2.3c-4.6,1.2-9.3,2.5-13.9,3.7c-0.3,0.1-0.5,0.1-0.9,0.2
		c0.5,0.5,1.1,0.6,1.7,0.5c1.6-0.3,3.3-0.5,4.9-0.7c5.6-0.7,11.3-1.3,17-1.1c0.3,0,0.5,0,0.8,0c-7.6,0.4-15.2,1-22.7,2.2
		c0.2,0.4,0.5,0.7,0.7,1.1c0.3,0.5,0.7,0.7,1.3,0.6c0.7-0.1,1.4-0.3,2.1-0.3c4.9-0.4,9.7-0.2,14.6,0.2c0.4,0,0.9,0.1,1.3,0.1
		c0.4,0,0.8,0.1,1.3,0.2c-6.5,0-13.1-0.6-19.6,0.3c0.3,0.9,0.8,1.2,1.9,1.1c1.7,0,3.4-0.1,5.2,0c1.2,0.1,2.4,0.3,3.6,0.4
		c0,0.1,0,0.1,0,0.2C250.5,135.2,247.2,135.1,243.7,135z M209.8,99.6c0.3,0.2,0.4,0.3,0.6,0.4c2.3,1.7,4.6,3.4,6.9,5.2
		c2.9,2.3,5.5,4.9,7.5,8c1,1.6,2.1,3.2,3.1,4.8c0.3,0.5,0.8,1,1,1.3c-0.2-1.2-0.3-2.6-0.5-3.9c-0.2-1-0.3-2-0.7-3
		c-1-2.5-2-5-3.2-7.4c-1.8-3.9-4-7.5-7.3-10.3c-0.9-0.8-1.9-1.5-2.9-2.3c-0.6,0.7-1.2,1.4-1.7,2.1c-0.1,0-0.1-0.1-0.2-0.1
		c0.5-0.7,1-1.4,1.5-2.1c-1.7-1-3.3-2.1-5.1-3.2c-1.2,1.9-2.3,3.8-3.5,5.6c0,0-0.1,0-0.1-0.1c0.1-0.2,0.2-0.5,0.3-0.7
		c0.9-1.5,1.8-2.9,2.7-4.4c0.2-0.3,0.4-0.6-0.1-0.8c-1.1,1.3-1.7,3-3.1,4.1c0.9-1.4,1.8-2.8,2.7-4.2c-0.5-0.3-1-0.5-1.4-0.8
		c-0.4-0.3-0.8-0.7-1-1.1c-0.2-0.3-0.3-0.4-0.6-0.4c-0.8,0-1.7-0.1-2.5,0c-1.2,0.1-2.3,0.2-3.5,0.3c-0.8,0.1-1.6,0.1-2.2-0.5
		c-0.4-0.4-0.9-0.4-1.4-0.3c-0.3,0.1-0.5,0.1-0.8,0.2c-0.9,0.2-1.8,0.4-2.7,0.5c-1.8,0.3-3.6,0.1-5.4-0.7c-0.7,1.2-1.3,2.5-2.4,3.3
		c-0.1,0-0.1-0.1-0.2-0.1c0.8-1.1,1.5-2.2,2.3-3.3c-0.7-0.2-1.3-0.3-1.9-0.5c-0.5,0.8-0.9,1.6-1.4,2.4c-0.1,0-0.1-0.1-0.2-0.1
		c0.1-0.3,0.2-0.7,0.4-0.9c0.7-1,1-1.9,0.4-3.1c-0.2-0.4-0.2-0.8-0.4-1.4c-0.9,3.5-3.1,5.8-6,7.5c0.3,0,0.5,0,0.7,0
		c3,0,6.1,0.3,9.1,0.9c6,1.1,11.7,3.2,17.1,5.9c0.2,0.1,0.5,0.1,0.9,0.2c0.4,0.8,1.4,0.8,2,1.3c0.9-1.2,1.7-2.4,2.6-3.6
		c0,0,0.1,0.1,0.1,0.1c-0.7,1.2-1.5,2.4-2.2,3.7c1,1,1.1,1,1.8-0.1c0.4-0.6,0.9-1.1,1.3-1.6c0.1,0,0.1,0.1,0.2,0.1
		c-0.2,0.2-0.4,0.5-0.5,0.8c-0.3,0.5-0.7,1.1-1,1.6c-0.1,0.1,0.1,0.3,0.1,0.5c0.1-0.1,0.3-0.1,0.4-0.2c0.3-0.5,0.6-1,0.9-1.4
		c0.2-0.3,0.5-0.6,0.8-0.8c0.1,0.1,0.1,0.1,0.2,0.2C211.1,97.9,210.5,98.7,209.8,99.6z M176.1,153.1c0,0.1-0.1,0.1-0.1,0.2
		c-0.3-0.5-0.7-1-1-1.5c-0.5-0.7-0.9-0.9-1.4-0.7c1,1.4,2,2.8,3.1,4.2c-0.1,0-0.1,0.1-0.2,0.1c-0.4-0.6-0.8-1.2-1.3-1.7
		c-0.8-0.9-1.5-1.8-2.4-2.6c-0.6-0.5-1.4-0.6-2.3-0.4c0.7,0.6,1.4,1,2,1.6c0.6,0.5,1.1,1.1,1.6,1.7c0,0-0.1,0.1-0.1,0.1
		c-3.2-3-4.6-4-5.6-3.7c0.9,0.8,2,1.5,2.9,2.3c1.4,1.3,2.8,2.6,4.2,4c0.2,0.2,0.4,0.3,0.8,0.2c0.6-0.2,1.2-0.3,1.8-0.2
		c0.6,0,1.2,0.3,1.8,0.5c-0.6-1.2-1.2-2.5-1.8-3.7c0.1,0,0.1-0.1,0.2-0.1c0.1,0.1,0.2,0.3,0.2,0.4c0.5,1,1,1.9,1.6,2.9
		c0.1,0.1,0.2,0.3,0.4,0.3c0.6,0.1,1.2,0.1,1.8,0.2c-0.6-1.1-1.3-2.1-1.6-3.3c0.2,0.2,0.2,0.4,0.4,0.6c0.5,0.9,1,1.8,1.5,2.7
		c0.2,0.3,0.4,0.5,0.9,0.4c0.3-0.1,0.7,0.1,1.1,0.2c0.2,0.1,0.4,0.1,0.6,0.2c0.1-0.2,0.1-0.3,0.1-0.5c0.6,1,1.3,1.1,2.7,0.5
		c-0.5-1.5-1.4-3-1.5-4.7c0.6,1.5,1.1,3,1.8,4.6c0.5-1.1,1.2-0.4,1.8-0.3c0.1-0.6,0.4-0.5,0.7-0.2c0.3,0.3,0.7,0.7,1,1
		c0.3,0.3,0.7,0.6,1.1,1.1c0.2-0.9,0.8-1.1,1.4-1.2c0.5-0.1,1-0.1,1.5,0c1.5,0.3,2.9,0.8,4.4,1.1c0.6,0.2,1.2,0.3,2,0.4
		c-0.3-2.2-0.6-4.3-0.9-6.3c0.2,0.1,0.2,0.3,0.3,0.5c0.3,1.7,0.6,3.4,0.9,5.2c0.1,0.4,0.3,0.6,0.7,0.6c0.3,0,0.6-0.1,0.8-0.1
		c-0.1-1.4-0.1-2.7-0.2-4.1c0.1,0,0.1,0,0.2,0c0.2,1.3-0.1,2.7,0.5,3.9c1-0.1,0.9-0.1,0.9-1c-0.1-1-0.2-2-0.2-2.9c0-0.2,0-0.4,0-0.6
		c0.1,0,0.1,0,0.2,0c0.2,1.4,0.3,2.7,0.5,4.1c0.6-0.2,0.6-0.2,0.8-1.3c0.1,0.3,0.2,0.5,0.3,0.8c0.7-0.2,0.9-0.7,0.8-1.4
		c-0.3-1.3-0.5-2.6-0.8-3.9c-0.4-1.5-0.9-2.9-1.3-4.3c-1.1,0.1-2,0.3-2.9,0.4c-0.3,0-0.5,0.2-0.4,0.5c0.1,0.9,0.2,1.8,0.3,2.7
		c0,0.3,0,0.6,0.1,0.9c-0.1,0-0.1,0-0.2,0c-0.2-1.3-0.5-2.6-0.7-3.7c-4.8,0.6-9.6,1.2-14.4,1.7c0,0.1,0.1,0.3,0.1,0.5
		c-0.7-0.7-1-0.8-1.3-0.3c-1-0.5-2-0.5-3.3-0.1c0.6,1.3,1.1,2.5,1.7,3.8c-0.1,0-0.1,0.1-0.2,0.1c-0.1-0.2-0.2-0.4-0.3-0.7
		c-0.5-1-1-2-1.6-3c-0.1-0.2-0.4-0.4-0.6-0.4c-0.8,0-1.7,0-2.5,0.1c0.1,0.2,0.1,0.4,0.3,0.7c-0.3-0.3-0.5-0.8-0.7-0.8
		c-0.9-0.1-1.9-0.1-2.9-0.1c0.3,0.5,0.5,0.9,0.8,1.3c-0.1,0-0.1,0.1-0.2,0.1c-0.2-0.3-0.4-0.6-0.6-0.9c-0.3-0.6-0.4-0.6-0.8-0.4
		C175.2,151.8,175.6,152.4,176.1,153.1z M153.1,124.9c0.8-0.3,1.5-0.6,2.2-0.8c3.6-1.2,7.2-1.6,10.9-0.3c0.5,0.2,0.8,0.1,1.2-0.2
		c1.6-1.5,3.2-2.9,4.8-4.4c0.5-0.5,1-1.1,1.6-1.7c-0.3,0-0.5,0-0.6,0c-1.7,0.1-3.5,0.2-5.2,0.3c-3.5,0.2-6.9,0.2-10.3-0.6
		c-1.1-0.3-2.2-0.6-3.3-1C155.2,119.3,154.8,122.1,153.1,124.9z M147.8,128.4c3.5,0.8,7,0.6,10.4-0.3c2.8-0.8,5.5-2,8-3.7
		c-0.3-0.1-0.4-0.2-0.6-0.2c-2.1-0.6-4.3-0.7-6.5-0.4c-3.3,0.5-6.3,1.9-9.3,3.5C149.2,127.6,148.5,128,147.8,128.4z M207.5,157.8
		c1.4-1.5,2.8-2.8,3.5-4.5c1-2.3,2.5-3.9,5-4.5c0.7-0.2,1.3-0.6,2-0.9c0.1-0.1,0.2-0.2,0.4-0.3c-3.4-0.2-6.7,0.1-10,0.8
		c0.3,1.8,0.9,3.5,0.8,5.3c-0.4-1.8-0.8-3.5-1.2-5.4c-1,0.2-1.9,0.3-2.8,0.5C206.5,151.6,207.2,154.6,207.5,157.8z M153,99.7
		c2.3-2.3,5-4,7.8-5.6c-0.6-0.3-1.4-0.4-2.2-0.3C155.9,94.4,153.6,97.4,153,99.7z M166.8,91.5c-0.3-1.3-2.4-2.5-3.3-1.9
		c1,0.2,1.8,0.9,2.4,1.7C166.1,91.8,166.4,91.9,166.8,91.5z"/>
	<path d="M214.7,142.9c-1.3-1.1-2.5-2.3-3.8-3.4c-2-1.7-4.1-3.4-6.1-5.1c-0.1-0.1-0.2-0.2-0.2-0.2c0.9,0.6,1.8,1.3,2.7,2
		c2.4,1.8,4.8,3.6,6.9,5.8c0.8,0.8,0.8,0.8,1.7,0.2c1.9-1.1,3.3-2.7,5-4.4c-5.4-2.4-10.6-4.7-15.9-7.1c0,0,0-0.1,0-0.1
		c0.3,0.1,0.5,0.1,0.8,0.2c4.9,1.9,9.8,4,14.5,6.5c0.4,0.2,0.7,0.2,1-0.2c0.7-1,1.4-1.9,2.2-3c-7-1.7-13.9-3-20.5-5.1
		c0.8,0.1,1.6,0.3,2.3,0.5c4.8,1.1,9.7,2.3,14.5,3.4c1.1,0.3,2.2,0.5,3.3,0.7c0.2,0,0.5,0,0.6-0.2c0.6-1.2,1.2-2.4,1.9-3.7
		c-4-0.8-7.9-1.3-11.7-2.6c0.4,0.1,0.9,0.1,1.3,0.2c3.2,0.6,6.4,1.2,9.7,1.8c0.9,0.2,0.9,0.1,1.2-0.7c0.1-0.3,0.3-0.6,0.5-1.1
		c-7.9-0.4-15.6-0.8-23.4-1.3c0.3,0,0.6-0.1,1-0.1c4.4,0.1,8.7,0.2,13.1,0.4c3,0.1,6,0.4,9,0.5c0.2,0,0.6-0.1,0.6-0.3
		c0.2-0.9,0.9-1.5,1.2-2.4c-5.5-0.8-11-1-16.5-1.4c0.2,0,0.4-0.1,0.6-0.1c4.4,0.3,8.8,0.6,13.2,0.9c0.6,0,1.2,0.2,1.8,0.3
		c0.4,0,0.8,0,1.2-0.1c-4.7-1.8-9.5-2.5-14.5-2.6c-4.9,0-9.8,0.7-14.6,1.6c4.8-1.8,9.8-1.9,14.8-2c5.1,0,10,0.6,14.8,2.6
		c-2.1,4.3-3.5,8.9-6.2,12.8c-2.1,3.2-4.8,5.8-8.3,7.5c-3.1,1.5-6.1,1.2-8.9-0.8c-1.7-1.2-2.7-3-3.6-4.8c-1.1-2.4-2.2-4.7-3.4-7.1
		c-0.3-0.6-0.7-1.2-1.2-1.9c0.1,6.7-3,11.7-7.8,15.8c-0.1,0-0.1-0.1-0.2-0.1c0.1-0.1,0.2-0.2,0.3-0.3c0.1-0.1,0.2-0.2,0.3-0.3
		c2.9-2.8,5.1-6.1,6.3-10.1c0.6-1.9,0.7-3.9,0.3-5.9c-0.1-0.3,0-0.6,0.1-0.9c2.1,3.5,5.1,6.2,7.7,9.2c1.5,1.7,3,3.5,4.6,5.2
		c0.2,0.2,0.3,0.4,0.4,0.6c-0.1,0-0.1,0.1-0.2,0.1c-3.1-3.4-6.2-6.7-9.4-10.2c0.2,0.5,0.3,0.8,0.5,1.2c0.9,2,1.8,4,2.9,5.9
		c1.1,1.9,2.5,3.6,4.6,4.4c0.8,0.3,1.7,0.5,2.6,0.5c0.7,0,1.3-0.2,2-0.2c0.6-0.1,1.3-0.5,1.9-0.8C214.6,143,214.6,143,214.7,142.9z"
		/>
	<path d="M178.6,111.8c2.1,0.9,4.2,1.7,5.8,3.3c0,0.1-0.1,0.1-0.1,0.2c-0.4-0.2-0.8-0.3-1.1-0.5c-1.8-1.1-3.6-2.2-5.7-2.5
		c-2.3-0.4-4.6-0.2-6.6,1.2c-0.1,0.1-0.4,0.1-0.5,0.1c-2.2-0.8-4.1-2-5.5-4c-1.6-2.3-1.3-4.7-0.1-7c2.3-4.5,7.7-6.4,12.3-4.4
		c2.1,0.9,3.3,2.7,4.1,4.7c0.7,1.8,1,3.6,0.1,5.4C180.7,109.6,179.8,110.7,178.6,111.8z M167.1,111.3c0.5,0.3,1.3,0.7,2.1,1.2
		c0.7,0.5,1.3,0.5,2.2,0.1c1.6-0.9,3.5-0.9,5.3-0.9c1.1,0,1.8-0.3,2.5-1.1c1.2-1.4,2.2-2.9,2.2-4.8c-0.1-4.7-4-8.3-8.6-7.8
		c-3.5,0.3-6.2,1.9-7.8,5.1C163.5,105.9,164.4,109.3,167.1,111.3z"/>
	<path d="M189.7,114c0.7,0.8,1.5,1.6,2.1,2.4c1.2,1.6,1.8,3.5,2.2,5.4c1.8,8-0.6,14.7-6.3,20.3c-0.9,0.9-2,1.6-3.1,2.3
		c-0.4,0.3-0.9,0.4-1.4,0.5c5.6-3.1,8.9-7.9,10.3-14c1.4-6.2,0.1-11.9-4.1-16.8C189.5,114.1,189.6,114.1,189.7,114z"/>
	<path d="M183.1,101.1c-0.4-0.5-0.8-1-1.2-1.5c-0.7-0.9-1.4-1.8-2.2-2.6c-1.5-1.7-3.5-2.4-5.7-2.7c-0.7-0.1-1.4-0.3-2.1-0.3
		c-0.4,0-0.5-0.3-0.5-0.6c0-0.2,0-0.3,0.1-0.5c0.1-0.5,0.3-0.7,0.9-0.6c2.6,0.6,4.9,1.8,7,3.4c1.4,1.1,2.6,2.2,3.3,3.8
		c0.2,0.5,0.4,1,0.6,1.5C183.3,101,183.2,101.1,183.1,101.1z M172,92.8c-0.2,0.4-0.1,0.5,0.3,0.6c0.7,0.1,1.5,0.3,2.2,0.5
		c0.6,0.2,1.3,0.3,1.9,0.5C175,93.4,173.5,93.2,172,92.8z"/>
	<path d="M224.5,131.4c-0.6-0.1-1.3-0.2-1.9-0.3c-4.5-0.9-8.9-1.9-13.4-2.8c-2.9-0.6-5.9-1-8.8-1.5c-0.1,0-0.2,0-0.3,0
		c0-0.1,0-0.1,0-0.2c1.1,0.1,2.1,0.2,3.2,0.3c7,1,13.9,2.6,20.7,4.2c0.2,0,0.4,0.1,0.5,0.2C224.5,131.3,224.5,131.3,224.5,131.4z"/>
	<path d="M224.7,125.6c-8.1-1-16.2-1.1-24.3-0.5C208.5,123.6,216.6,124,224.7,125.6z"/>
	<path d="M216.8,139.3c-5.9-3.5-11.8-7-17.7-10.5c0-0.1,0.1-0.1,0.1-0.2c0.3,0.1,0.6,0.2,0.9,0.4c5.2,2.7,10.2,5.8,15.1,9
		c0.3,0.2,0.7,0.4,1,0.6c0.3,0.2,0.5,0.4,0.8,0.6C216.8,139.3,216.8,139.3,216.8,139.3z"/>
	<path d="M206,114.9c-3.5-1.8-7-3.6-10.5-5.4c0-0.1,0.1-0.1,0.1-0.2c3.8,1.2,7.2,3.2,10.5,5.4C206,114.8,206,114.9,206,114.9z"/>
	<path d="M235.6,135c-2.7-1.3-5-3.1-7.6-4.7C229,130.2,232.4,132.3,235.6,135z"/>
	<path d="M185.1,85.8c-0.3,1.1-0.9,1.9-1.7,2.7c0,0-0.1-0.1-0.1-0.1c0.5-0.9,1.1-1.8,1.6-2.8C185,85.7,185,85.8,185.1,85.8z"/>
	<path d="M186.9,87c-0.4,0.6-0.8,1.1-1.2,1.7c-0.1,0-0.1-0.1-0.2-0.1C186,88,186.4,87.5,186.9,87C186.9,86.9,186.9,87,186.9,87z"/>
	<path d="M169.8,110.6c-2.7-1.9-3.3-5.4-1.5-7.9c1.9-2.6,5.2-3.1,7.9-1.2c2.5,1.8,3.1,5.4,1.3,7.9
		C175.8,111.8,172.3,112.4,169.8,110.6z"/>
</g>
<g>
	<path d="M127,113.8c-0.7-0.2-1.4-0.3-2-0.3c-4-0.1-7.7,1-11.3,2.8c-1.7,0.9-3.4,1.8-5.1,2.5c-2.5,1.1-5.2,1.8-8,1.6
		c-1.4-0.1-2.7-0.5-3.7-1.7c-0.1-0.1-0.2-0.1-0.2-0.2c0,0.2,0,0.4,0.2,0.5c0.6,0.5,1.1,1,1.7,1.3c1.9,0.9,3.9,0.8,5.9,0.4
		c3.4-0.6,6.6-1.9,9.6-3.6c3.7-2,7.7-3.1,11.9-3c1.6,0,3,0.5,4.2,1.6c0.1,0.1,0.2,0.1,0.3,0.1c0,0,0.1-0.1,0.1-0.1
		c-0.5-0.5-1-0.9-1.4-1.4c0-0.1,0.1-0.2,0.1-0.3c-0.3-0.1-0.6-0.4-0.8-0.7C128.1,113.9,127.6,113.9,127,113.8z"/>
	<path d="M134.1,112.4c-0.1-0.1-0.2-0.1-0.3-0.2c-0.1,0.2-0.2,0.3-0.4,0.5c0.2,0.1,0.3,0.2,0.5,0.4c0.7,0.7,1.1,1.5,1.3,2.5
		c0.3,1.6-0.4,2.8-1.5,3.8c-2.3,2.2-5.1,3.4-8.3,3.1c-2.2-0.2-4.5-0.8-6.7-1.2c-2.2-0.4-4.5-0.9-6.8-0.6c-1.1,0.1-2.5,0.7-3.3,1.4
		c1.9-1.1,3.8-1.2,5.8-0.8c2.7,0.5,5.3,1.2,7.9,1.9c0.2,0,0.3,0.1,0.5,0.2c-1.9,3.9-7.4,10.2-9.6,10.9c2.9-2.7,4.3-6.3,4.2-7.8
		c-0.7,2.2-1.6,4.1-3.1,5.8c-2.2,2.5-5,4.1-8,5.3c-1.6,0.6-3.2,1.1-4.8,1.7c-0.2,0.1-0.4,0.3-0.5,0.5c-0.5,1.2-0.9,2.5-1.4,3.7
		c-2.4,5.3-5.9,9.6-10.6,13.1c-2.9,2.1-6.1,3.7-9.4,4.8c-0.5,0.2-1,0.3-1.5,0.5c0.4-0.3,0.9-0.5,1.3-0.7c3.9-1.8,7.4-4.1,10.5-7.1
		c1.9-1.9,3.5-4,4.8-6.4c1.1-2,1.9-4.1,2.4-6.3c0-0.2,0-0.4-0.1-0.6c-0.1-0.1-0.3-0.1-0.5,0c-2.5,1-5.1,1.3-7.7,1.2
		c-1.9,0-3.9-0.3-5.7-1c-1.4-0.5-2.9-1.1-4.2-2c2.5-2.4,3.9-5.5,5.6-8.3c1.4,0.7,2.7,1.3,4,2c0-0.1,0.1-0.1,0.1-0.2
		c-3.9-2.7-5.7-6.7-6.5-11.2c-0.4,2.9,0.6,5.4,2.1,7.7c-0.1,0-0.1,0.1-0.2,0.1c-1.4-1.9-2.9-3.8-4.3-5.7c0,0,0,0-0.1,0
		c0.3,0.8,0.7,1.6,1.1,2.4c-0.2,0.1-0.4,0.2-0.6,0.2c-3.4,1-6.9,2-10.3,3c-0.2,0-0.5-0.1-0.6-0.2c-0.8-0.8-1.6-1.6-2.3-2.4
		c-1.2-1.3-2.4-2.5-3.9-3.4c-1-0.6-2.1-0.6-3,0.2c-1.1,0.9-2.1,1.8-3.1,2.9c-1.5,1.6-3,3.3-4.5,4.9c-3.8,4.1-7.6,8.1-11.9,11.6
		c-5.1,4.1-10.4,7.9-16,11.1c-0.1,0.1-0.3,0.1-0.4,0.2c12.5-9.1,23.8-19.2,31.9-32.6c0.2,0.3,0.4,0.6,0.6,0.9c0-0.8-0.2-1.5-0.3-2.2
		c-0.1-0.7,0-1.4,0.6-1.9c0.4-0.4,0.5-0.9,0.4-1.4c-0.1-0.8-0.2-1.7-0.3-2.5c-0.2,0.3-0.4,0.1-0.6-0.2c-1.3-1.6-2.6-3.2-3.9-4.7
		c-4-4.8-7.9-9.6-11.9-14.3c-1.5-1.8-3.2-3.4-4.9-5c-1.7-1.6-3.6-3.2-5.4-4.7c-0.4-0.4-0.9-0.7-1.3-1c0.1-0.1,0.2-0.1,0.2,0
		c1.9,1.2,3.8,2.4,5.6,3.6c4.5,3.1,8.5,6.7,11.9,11c2.9,3.6,5.9,7.1,8.9,10.6c1.1,1.3,2.4,2.5,3.9,3.3c1.3,0.8,2.7,1.2,4.1,0.5
		c0.9-0.5,1.7-1.1,2.5-1.8c2.4-2.1,4.4-4.6,6.3-7.1c2.3-3,4.5-6,7.2-8.8c2.5-2.6,5.3-4.9,8.9-6c0.3-0.1,0.4-0.3,0.3-0.6
		c-0.1-1.1-0.6-2.1-1.3-3c-1.4-1.8-3-3.3-4.8-4.7c-3.7-3-7.8-5.5-12.2-7.5c-3.2-1.5-6.5-2.7-10-3.4c0-0.1,0-0.1,0-0.2
		c2,0.3,4.1,0.6,6.1,1c5.3,1.1,10.1,3.3,14.5,6.4c2.1,1.5,4.1,3.1,6.1,4.8c0.6,0.5,1.2,1.1,1.8,1.7c1.2,1.3,2.4,2.7,3.7,4
		c0.6,0.6,1.4,1.1,2.2,1.3c1,0.2,2,0.4,3,0.6c5.8,1.1,10.7,3.9,14.7,8.2c1.3,1.3,2.4,2.8,3.5,4.3c1.6,1.9,2.8,4.1,4.9,5.6
		c-1.9,1.9-3.7,3.8-5.6,5.5c-1.9,1.7-4.2,2.9-6.8,3.4c-0.1,0-0.3,0.1-0.4,0.2c0.1,0.1,0.2,0.2,0.3,0.1c1.6-0.2,3.2-0.6,4.7-1.4
		c2.3-1.2,4.1-3,6-4.7c1.2-1.1,2.3-2.2,3.6-3.3c1.2-1,2.6-1.4,4.2-1c1.6,0.4,2.8,1.8,3,3.3c0.2-0.2,0.5-0.2,0.7-0.2
		c-0.1-1.1-0.5-2-1.5-2.9c-1.6-1.4-3.4-1.7-5.3-1c-0.4-0.6-0.7-1.1-1-1.6c-0.1-0.2-0.1-0.3-0.2-0.5c0-0.4-0.1-0.8-0.1-1.3
		c1.7-0.3,2.7-1.4,3.5-2.9c-2,2-3.3,2.6-3.9,1.7c1.3-0.7,1.9-1.9,2.2-3.4c-0.6,1.2-1.2,2.3-2.7,2.6c1-1.1,1.2-2.3,1.1-3.7
		c-0.1,0.5-0.2,1.1-0.4,1.6c-0.2,0.5-0.6,1-0.9,1.4c-0.1,0-0.2,0-0.3-0.1c0-0.2-0.1-0.5,0-0.7c0.2-0.9,0.2-1.7-0.4-2.7v2.2
		c-1-1.1-1.9-2.3-3.5-2.5c-1.6-0.3-2.8,0.5-3.9,1.5c-2.9-3.3-6.4-5.8-10.5-7.3c-2.4-0.9-4.9-1.5-7.6-1.5c-0.3,0-0.6-0.1-0.8-0.3
		c-0.9-0.9-1.9-1.8-2.7-2.8c-3.7-4.1-7.9-7.6-12.6-10.4c-4.8-2.8-10-4.7-15.6-5.2c-1.8-0.2-3.7,0-5.5,0c-0.1,0-0.2,0.1-0.4,0.1
		c0.1,0.1,0.1,0.1,0.1,0.1c2.2-0.2,4,0.7,5.6,1.9c3,2.1,5.2,4.8,6.3,8.4c0.4,1.3,0.5,2.6,0.4,4c-0.3,2.6-0.8,5.1-1.3,7.7
		c-0.3,1.8-0.6,3.5-0.3,5.3c0.3,1.8,1,3.4,2.3,4.7c0.3,0.3,0.6,0.6,0.9,1c-1,1.4-2.1,2.8-3.1,4.3c-1.2,1.6-2.4,3.2-4,4.5
		c-1.2,0.9-2.5,1.4-3.9,0.6c-0.5-0.3-1-0.6-1.5-0.9c-2.2-1.6-3.9-3.8-5.7-5.8c-2.2-2.6-4.3-5.2-6.5-7.8C43,93,38.2,88.9,32.7,85.5
		c-1.9-1.1-3.8-2.1-5.8-3c-1.8-0.9-3.6-1.8-5.4-2.7c-0.3-0.1-0.5-0.2-0.9-0.2c0.4,0.2,0.8,0.4,1.2,0.6c0.3,0.2,0.6,0.4,0.9,0.5
		c2.1,0.9,3.4,2.7,4.5,4.6c1.1,1.9,2,3.9,3.1,5.9c0.4,0.8,0.9,1.4,1.7,1.8c0.2,0.1,0.5,0.4,0.5,0.7c-0.2,1.7,0.7,3,1.6,4.2
		c0.3,0.5,0.8,0.9,1.2,1.3c0.1,0.1,0.2,0.4,0.2,0.5c-0.6,2,0.1,3.5,1.4,5c0.2,0.2,0.3,0.4,0.2,0.8c-0.4,1.3,0,2.4,0.6,3.5
		c0.2,0.3,0.2,0.5,0,0.8c-0.7,1.2-0.5,2.5,0,3.7c0.3,0.7,0.3,1.4,0.2,2.1c-0.2,1-0.1,2.1-0.1,3.1c0,0.3-0.1,0.7-0.3,1
		c-0.7,1.1-1.1,2.4-0.9,3.7c0.1,0.5,0,1-0.4,1.4c-0.9,1.1-1.5,2.4-1.8,3.8c-0.1,0.4-0.1,0.9-0.1,1.3c0,0.5-0.1,0.9-0.5,1.3
		c-1,1-1.8,2.2-2.2,3.6c-0.1,0.6-0.1,1.2,0.2,1.7c-0.5,0.6-1.1,1.2-1.6,1.7c-0.8,0.9-1.2,2.1-1.5,3.2c0,0-0.1,0.1,0,0.1
		c0.2,1-0.5,1.4-1.2,1.9c-2,1.7-3.4,3.7-4,6.2c-0.2,0.6-0.4,1.1-1,1.4c-1.3,0.8-2.1,2-2.9,3.2c-0.6,1-1.2,2-1.9,2.9
		c-0.3,0.4-0.7,0.7-1.2,0.9c-0.9,0.5-1.8,0.9-2.7,1.3c-0.1,0.1-0.2,0.1-0.3,0.2c0,0.1,0,0.1,0.1,0.2c0.2-0.1,0.4-0.1,0.5-0.2
		c4.2-1.8,8.2-3.8,12.1-6.1c3.3-2,6.6-4.1,9.8-6.3c2.2-1.5,4.2-3.2,6.2-4.8c5.2-4.1,9.5-9,13.9-13.8c1-1.1,2.1-2.3,3.1-3.4
		c0.4-0.4,0.8-0.8,1.2-1c0.7-0.5,1.5-0.7,2.3,0c1.2,1,2.3,1.9,3.5,3c0.8,0.7,1.5,1.5,2.3,2.3c-0.7,0.2-1.3,0.3-1.9,0.5
		c-1.1,0.4-2.3,0.8-3.4,1.2c-0.5,0.2-1,0.6-1.5,0.9c-0.7,0.6-1,1.3-0.7,2.2c0.4,1,0.9,2,1.6,2.9c1.2,1.7,2.7,3,4.5,3.9
		c3.2,1.7,6.3,1.5,9.3-0.4c0.5-0.3,1-0.6,1.4-0.9c1.2,0.6,2.4,1.2,3.6,1.8c-0.1,0.1-0.2,0.2-0.3,0.3c-1.9,1.7-2.7,4-2.5,6.5
		c0.1,2,0.5,4,0.8,6c0.5,3.6-1.7,7.8-6.2,8.6c-0.2,0-0.4,0.1-0.5,0.1c0,0.1,0,0.1,0,0.2c0.2,0,0.5,0,0.7-0.1
		c5.7-0.8,11-2.6,15.8-5.9c5.2-3.6,9.1-8.3,11.8-14c0.3-0.6,0.6-1.3,0.7-1.9c0.2-0.8,0.7-1.1,1.4-1.3c2.8-0.8,5.4-2.1,7.8-3.8
		c0.1-0.1,0.3-0.2,0.4-0.2c2.5-1,4.6-2.6,6.6-4.5c0.1-0.1,0.1-0.1,0.2-0.2c1.1,2,3,2.4,5,2.5c2.3,0.2,4.6,0.1,6.8-0.5
		c0.7-0.2,1.4-0.6,1.9-1c0.7-0.7,0.4-1.5-0.6-1.8c-1.1-0.4-2.2-0.9-3.3-1.4c-1.7-0.7-3.3-1.5-5-2.2c-0.3-0.1-0.6-0.1-1-0.2
		c0.4-0.5,0.8-1,1.1-1.5c0.5-1,1.2-1.3,2.4-1.3c3.8,0.1,7-1.3,9.4-4.3C137.1,117,136.3,114.2,134.1,112.4z M122.9,104.6
		c0.8,1,0.8,1.4-0.2,2.1c-0.1,0.1-0.3,0.2-0.4,0.3c-0.4,0.4-0.7,0.4-1.1-0.1C122.3,106.5,122.6,105.6,122.9,104.6z M122.2,104.2
		c0,0.7-0.2,1.5-0.7,2.1c-0.2,0.2-0.5,0.5-0.9,0.2c0.9-1.4,0.7-2.8,0.2-4.3c-0.5,0.7-0.9,0.9-1.4,0.7c-0.5-0.2-0.7-0.6-0.7-1.1
		c0-0.6,0.4-0.8,1.1-1c-0.9-1.2-1.9-0.9-2.7,1c-0.3-0.3-0.5-0.7-0.8-1c-0.3-0.4-0.2-0.6,0.1-0.9c0.6-0.5,1.3-0.7,2-0.5
		C120.6,99.9,122.3,101.9,122.2,104.2z M114.5,98.1c0.5-0.8,2-1.6,3.1-1.4c1.4,0.3,2.3,1.2,3,2.4c0,0,0,0.1,0,0.2
		c-2.8-0.9-3.8-0.8-4.8,0.8c-0.4-0.5-0.8-0.9-1.2-1.4C114.4,98.6,114.4,98.3,114.5,98.1z M69.4,98.2c-0.4-1.8-0.1-3.6,0.2-5.4
		c0.6-3.2,1.4-6.3,1.2-9.5c-0.1-1.3-0.2-2.5-0.6-3.7c-1-2.6-2.7-4.8-4.9-6.6c-1.1-0.9-2.3-1.6-3.4-2.3c6.4,2,12.3,5.3,17.8,9.3
		c-2.2-1-4.5-1.9-6.9-2.4c3.3,1.1,6.4,2.5,9.2,4.5c-2.8-1-5.7-1.7-8.6-2.1c4.1,1,8.1,2.3,11.7,4.6c-3.6-1-7.3-1.4-11-1.4
		c1.4,0.2,2.9,0.4,4.3,0.6c2.4,0.4,4.7,0.8,6.9,1.8c0.4,0.2,0.8,0.5,1.2,0.7c-1.1,0-2.2-0.2-3.3-0.3c-1.1-0.1-2.1-0.1-3.2-0.1
		c-1.1,0-2.2,0.1-3.3,0.2c-1,0.1-2.1,0.2-3.2,0.4c2.4,0,4.7-0.1,6.9-0.1c2.3,0,4.5,0.4,6.7,1.1c-4.9-0.3-9.6,0.3-14,1.7
		c1.9-0.3,4-0.7,6.2-1c2.2-0.3,4.4-0.2,6.5,0c-4.5,0.5-11.2,3.1-12.7,4.1c4.3-1.7,8.5-3.1,13-3.3c-4.2,1.3-8.1,3.2-11.6,6
		c3.6-2.4,7.5-4.2,11.6-5.2c-1.2,0.6-2.4,1.2-3.6,2c-2.8,1.8-5.1,4.2-7.2,6.7c-1.2,1.4-2.4,2.9-3.6,4.4
		C70.7,101.5,69.8,100,69.4,98.2z M30.6,89.4c-0.8-1.6-1.7-3.1-2.6-4.6c-0.4-0.6-1-1.1-1.4-1.7c0,0,0.1-0.1,0.1-0.1
		c7.1,5.3,13,11.7,18.4,18.7c-1.4-1.2-2.8-2.4-4.2-3.5c-2.1-1.6-4.1-3.3-6.4-4.7C32.7,92.5,31.5,91.2,30.6,89.4z M33.6,94.9
		c-0.1-0.2,0-0.5,0-0.8c0.3,0,0.5,0,0.8,0.1c2.5,1.1,4.6,2.8,6.7,4.5c2.1,1.7,4,3.6,5.8,5.5c1.2,1.2,2.2,2.6,3.3,3.9
		c0,0-0.1,0.1-0.1,0.1c-1.3-1-2.6-2-4-2.8c-3-1.9-5.9-3.9-9-5.7C35.2,98.5,34.2,96.9,33.6,94.9z M36.3,102.5
		c-0.1-0.4-0.2-0.7-0.3-1.1c-0.1-0.5-0.1-1-0.2-1.6c6.4,2.8,11.8,6.7,16.7,11.4c0,0-0.1,0.1-0.1,0.1c-0.1-0.1-0.3-0.2-0.4-0.2
		c-1.6-0.8-3.1-1.7-4.8-2.5c-2.9-1.3-5.8-2.5-8.7-3.7C37.4,104.4,36.7,103.7,36.3,102.5z M37.4,106.1c0-0.4,0.3-0.6,0.7-0.6
		c0.2,0,0.5,0.1,0.7,0.1c4.2,1,8.1,2.8,11.7,5.1c1.7,1.1,3.3,2.3,4.8,3.9c-0.2-0.1-0.3-0.1-0.3-0.1c-3.3-1.1-6.7-2.3-10-3.4
		c-2.1-0.7-4.2-1.4-6.3-2.1c-0.3-0.1-0.7-0.3-0.8-0.6C37.6,107.7,37.5,106.9,37.4,106.1z M37.9,110.7c0-0.5,0.3-0.9,0.9-0.8
		c0.8,0.1,1.6,0.2,2.4,0.4c2,0.6,4.1,1.1,6.1,1.8c2.4,0.8,4.6,1.8,6.9,2.8c0.6,0.2,1.1,0.6,1.6,1c-1.1-0.1-2.2-0.2-3.3-0.4
		c-1.1-0.2-2.2-0.3-3.3-0.4c-1.1-0.1-2.1-0.2-3.2-0.3c3.6,0.5,7.2,0.9,10.6,2.3c-0.2,0.2-0.4,0.3-0.6,0.3c-2.5,0.7-5.1,1-7.8,1.2
		c-1.9,0.1-3.7,0.3-5.6,0.3c-1.2,0-2.4-0.1-3.6-0.2c-0.5,0-0.7-0.4-0.7-0.9c0-0.7,0-1.4,0.1-2.1c0.1-0.9,0.3-1.1,1.3-1.2
		c0.9,0,1.9,0,2.7,0c-1-0.2-2.1-0.3-3.1-0.6c-0.4-0.1-0.9-0.5-1-0.8C38,112.3,37.9,111.5,37.9,110.7z M18.4,157.2
		c0.2-0.5,0.5-0.8,0.8-1.2c1.4-2.2,3.3-3.9,5.5-5.2c2.6-1.6,5.1-3.2,7.3-5.3c0.5-0.5,1-0.9,1.5-1.4c-0.2,0-0.3,0.1-0.4,0.2
		c-1.7,1.3-3.4,2.6-5.2,3.8c-0.7,0.5-1.6,0.9-2.4,1.3c-0.6,0.3-0.9,0-0.7-0.6c0.7-1.9,1.6-3.6,3.2-4.9c1.1-0.9,2.4-1.7,3.6-2.5
		c0.7-0.5,1.4-1,2.1-1.5c-0.2,0.1-0.4,0.2-0.6,0.3c-1,0.6-2,1.3-3.4,1.6c0.3-1,0.5-1.8,0.8-2.6c0.2-0.5,0.5-1,0.9-1.4
		c0.5-0.5,1.1-0.7,1.6-1.1c1.4-1.1,2.9-2.1,4.3-3.2c-1,0.6-2,1.1-3,1.7c-0.6,0.3-1.1,0.6-1.7,0.9c-0.1-0.1-0.1-0.1-0.2-0.2
		c0-3.5,2.4-5.1,5.1-6.4c-0.9,0.3-1.9,0.6-2.9,0.9c-0.1-1.7,0.5-3.1,1.2-4.5c0.4-0.9,1.1-1.5,2-1.7c1.1-0.3,2.2-0.7,3.4-1
		c-0.2,0-0.3,0-0.5,0c-1.1,0.2-2.2,0.4-3.3,0.5c-0.1,0-0.4-0.1-0.5-0.3c-0.4-1.8,0.4-3.9,2.6-4.1c1.7-0.2,3.4-0.2,5.1-0.3
		c2.3-0.1,4.6-0.3,7-0.4c1-0.1,2.1-0.2,3.1-0.3c-0.1,0.1-0.2,0.2-0.3,0.2c-3.8,1.7-7.9,2.9-11.9,4c-0.5,0.1-1,0.3-1.5,0.5
		c0.2,0,0.3,0,0.5-0.1c3.5-1,7-2,10.5-3c0.9-0.2,1.7-0.5,2.5-0.8c-2.6,2.2-5.4,3.9-8.3,5.6c0,0,0.1,0.1,0.1,0.1
		c2.1-1.2,4.2-2.4,6.3-3.6c-1,1-2,2-3.1,2.9c-1.2,1.1-2.5,2.1-3.7,3.1c1.3-1,2.7-1.9,4-2.9c1.2-0.9,2.4-2,3.7-2.9
		c0,0,0.1,0.1,0.1,0.1c-1.9,2-3.8,4-5.7,6c-1.5,1.5-3,2.9-4.5,4.3c0.2-0.1,0.3-0.1,0.5-0.2c2-1.8,4-3.6,6-5.4c1.6-1.5,3.2-3,4.4-4.1
		c-1.5,2.6-4.2,5.1-6.5,7.8c0,0,0.1,0.1,0.1,0.1c1.2-1.3,2.4-2.6,3.6-3.8c0,0.2-0.1,0.3-0.2,0.4c-3.3,4.7-7,9-11.1,13
		c-2.5,2.4-5.1,4.8-7.8,7.1c-4.4,3.8-9,7.2-13.9,10.4C18.7,157.1,18.5,157.1,18.4,157.2z M77.8,139.1c-0.9,0.6-1.8,1.2-2.8,1.7
		c-1.8,1.1-3.8,1.1-5.7,0.6c-1.7-0.5-3.1-1.5-4.4-2.7c-1.2-1.2-2.3-2.5-2.9-4.1c-0.4-1-0.3-1.6,0.6-2.2c0.9-0.6,1.9-1,3-1.4
		c3.2-1,6.5-1.9,9.7-2.9c1.9-0.6,3.7-1.3,5.6-1.9c0.2,0.3,0.4,0.6,0.6,1c-2.1,0.6-4.1,1.2-6.1,1.9c-2.9,0.9-5.7,2-8.3,3.5
		c-0.2,0.1-0.4,0.3-0.6,0.4c-0.2,0.1-0.4,0.3-0.6,0.4c3.3-1.8,6.9-2.8,10.5-3.8c-0.6,0.4-1.2,0.7-1.7,1c-0.6,0.3-1.2,0.7-1.8,1
		c-0.5,0.3-1.1,0.7-1.6,1.1c3-1.6,6-3.2,9.2-4.2c-2.4,1.3-4.6,2.9-6.7,4.6c2.7-1.8,5.4-3.6,8.4-4.8l0.1,0.1
		c-2.7,2.3-5.4,4.6-8.2,6.9c0,0,0.1,0.1,0.1,0.1c2.6-2.1,5.3-4.1,7.9-6.2c0,0,0.1,0.1,0.1,0.1c-1.9,2.1-3.7,4.2-5.6,6.4
		c0,0,0.1,0.1,0.1,0.1c2.1-2.2,4.2-4.4,6.3-6.7l0.1,0.1c-1.1,1.6-2.2,3.3-3.4,4.9c0,0,0.1,0.1,0.1,0.1c1.2-1.5,2.4-3.1,3.6-4.6
		c0.1,0,0.1,0,0.2,0c0,0.2,0,0.5-0.1,0.7c-0.7,1.5-1.4,2.9-2.2,4.4C80.5,136.4,79.4,138,77.8,139.1z M77.5,161.4
		c0.1-0.1,0.1-0.1,0.2-0.2c1.9-1.8,2.8-4,2.6-6.6c-0.1-1.6-0.4-3.2-0.7-4.8c-0.4-3.1,0.4-5.7,2.4-8.1c4.5,1.4,9.1,1.6,13.6,0.2
		c-1.7,1.3-3.6,1.9-5.7,2.3c-2,0.4-4,0.7-6,1c3.8-0.2,7.7-0.5,11.3-2c-3.2,2.9-7.3,4.1-11.3,5.3c3.8-0.8,7.6-1.8,11-3.9
		c-1,1.1-2,2.1-3.1,3c-1.1,0.9-2.4,1.6-3.6,2.2c-1.3,0.6-2.6,1-3.9,1.5c1.3-0.3,2.6-0.7,3.9-1.2c2.2-0.8,4.1-2,5.8-3.5
		c-2.4,3.4-5.8,5.8-9.4,7.7c2.7-1.1,5.2-2.6,7.4-4.4c-3.7,5.4-8.8,8.9-14.6,11.6C77.5,161.4,77.5,161.4,77.5,161.4z M131.6,131.3
		c-0.2,0.3-0.3,0.6-0.6,0.8c-0.5,0.3-1.1,0.6-1.7,0.7c-2.3,0.4-4.6,0.6-6.9,0.4c-1.3-0.1-2.6-0.5-3.5-1.5c-0.5-0.6-0.5-0.7,0.1-1.2
		c0.2-0.1,0.5-0.2,0.7-0.2c0.7,0.3,1.4,0.7,2.1,1.1c0.1,0.1,0.2,0.1,0.3,0.2c0-0.1,0.1-0.1,0.1-0.2c-0.8-0.6-1.7-1.1-2.6-1.7
		c0.2-0.3,0.4-0.4,0.8-0.2c1.5,0.4,2.8,1.2,4.1,2.1c0.1,0.1,0.3,0.2,0.4,0.3c-1.4-1.2-2.9-2.4-4.7-2.9c0.4-0.6,0.6-0.7,1.2-0.5
		c1.1,0.5,2.3,1,3.4,1.5C127.1,131,129.1,132.2,131.6,131.3z M123.3,127.7c2.5,1.1,4.9,2.2,7.3,3.3c-0.4,0.1-0.7,0.2-1,0.1
		c-1.1-0.3-2.2-0.6-3.3-1.1c-1.7-0.7-3.3-1.7-5.2-2c0-0.1,0-0.1-0.1-0.2c0.2-0.1,0.5-0.3,0.7-0.3
		C122.3,127.5,122.9,127.5,123.3,127.7z"/>
	<path d="M61.3,35.9c2.8,0.1,5,2.7,4.9,5.5c-0.2,3-2.6,5.4-5.4,5.1c-2.6-0.2-4.9-2.5-4.6-5.6C56.1,38.2,58.4,35.8,61.3,35.9z
		 M60.7,45.7c2.4,0.1,4.3-2,4.2-4.5c0-2.5-2-4.5-4.2-4.5c-2.4,0.1-4.3,2.1-4.3,4.6C56.7,44,58.3,45.6,60.7,45.7z"/>
	<path d="M229.8,60.7c2,0,3.6,1.6,3.6,3.4c0,1.9-1.7,3.4-3.7,3.4c-2.1,0-3.6-1.5-3.6-3.4C226.1,62.1,227.7,60.6,229.8,60.7z
		 M232.2,63.9c0-1.4-1.4-2.6-3-2.6c-1.5,0-2.8,1.2-2.8,2.6c0,1.5,1.3,2.6,2.9,2.6C231,66.5,232.3,65.3,232.2,63.9z"/>
	<path d="M245.5,63.3c1.8,0,3.2,1.5,3.2,3.4c0,1.8-1.4,3.3-3.2,3.3c-1.7,0-3.1-1.4-3.1-3.3C242.5,64.8,243.8,63.4,245.5,63.3z
		 M245.4,69.5c1.4,0,2.6-1.3,2.7-2.8c0-1.6-1.2-2.8-2.7-2.8c-1.5,0-2.7,1.2-2.7,2.7C242.7,68.2,243.9,69.5,245.4,69.5z"/>
	<path d="M221,52.9c-1.4,0-2.6-1.1-2.6-2.5c0-1.3,1.1-2.6,2.5-2.6c1.4-0.1,2.5,1.1,2.6,2.5C223.5,51.6,222.4,52.8,221,52.9z
		 M222.6,50.2c0-1-0.9-1.9-1.9-1.9c-1,0-1.8,0.9-1.8,1.8c0,1.1,0.8,1.9,1.9,1.9C221.8,52,222.6,51.2,222.6,50.2z"/>
	<path d="M64.7,60.9c0,1.6-1.2,2.9-2.8,2.9c-1.6,0-2.8-1.2-2.8-2.8c0-1.6,1.2-2.9,2.8-2.9C63.5,58.2,64.7,59.4,64.7,60.9z
		 M59.7,60.8c0,1.2,0.9,2.1,2.1,2.1c1.1,0,2-0.9,2-2.1c0-1.2-0.9-2.1-2.1-2C60.5,58.8,59.6,59.7,59.7,60.8z"/>
	<path d="M56.3,52.7c0-1.2,1.1-2.3,2.3-2.4c1.2,0,2.3,1,2.4,2.3c0,1.3-1,2.3-2.3,2.3C57.4,54.9,56.3,54,56.3,52.7z M58.6,54.2
		c0.8,0,1.6-0.8,1.6-1.6c0-0.9-0.7-1.6-1.5-1.6c-0.8,0-1.6,0.7-1.6,1.5C57,53.5,57.7,54.2,58.6,54.2z"/>
	<path d="M224.1,55.2c0-1.1,0.9-2,2-2c1.1,0,2,0.9,2,2c0,1.3-0.7,2-2,2C225,57.2,224.1,56.3,224.1,55.2z M227.6,55.2
		c0-0.9-0.7-1.5-1.5-1.5c-0.8,0-1.4,0.7-1.4,1.5c0,0.7,0.8,1.4,1.5,1.4C226.9,56.6,227.6,55.9,227.6,55.2z"/>
	<path d="M103.3,101.7c2.8-1.8,6.5-0.6,8,1.7c0.7,1.1,1.2,2.7,1.1,3.6c-0.2-0.4-0.4-0.8-0.6-1.3c-0.2,0.6-0.3,1.1-0.5,1.6
		c-0.8,2.1-1.9,3.9-3.9,5.1c-1.7,1-3.4,0.8-5-0.2c-1.4-0.9-2.1-2.3-2.5-3.8c-0.2-0.6-0.2-1.3-0.3-2.1c-0.6,0.7-1.1,1.4-1.6,2.1
		c0,0-0.1,0-0.1,0c0.2-0.5,0.5-1,0.8-1.6c-1.6-0.1-3-0.3-4.2-1.3c1.3,0.6,2.7,0.9,4.1,0.7c0.3,0,0.6-0.3,0.9-0.4c0-0.1,0-0.1,0-0.2
		c-1.2-0.3-2.3-0.7-3.2-1.5c0.8,0.3,1.7,0.7,2.6,0.9c1,0.3,1.3,0.1,1.8-0.9c-0.9-0.3-1.7-0.6-2.3-1.5c2.1,1.2,2.8,1.2,3.5,0.2
		c-0.4-0.3-0.7-0.6-1.1-0.8C102.1,102.5,102.1,102.5,103.3,101.7z M108.2,110.5c1.5-1.4,2.5-3,3.2-4.9c0.1-0.2,0-0.6-0.1-0.8
		c-1.2-1.9-3-2.9-5.2-2.9c-0.7,0-1.5,0.3-2.2,0.6c-1.5,0.7-2.7,1.9-3.8,3.1c-0.1,0.1-0.2,0.4-0.2,0.6c0.2,1.7,0.8,3.2,2,4.4
		c0.8,0.8,1.9,1.3,2.9,1.3C106.4,111.9,107.4,111.3,108.2,110.5z"/>
	<path d="M90.1,109.1c-0.3,0.7-0.6,1.4-0.8,2.1c-0.9,3-1.7,5.9-1.9,9.1c-0.2,2.6,0,5.1,1,7.5c1.1,2.8,3.2,4.4,6.1,4.9
		c3.1,0.6,6.1-0.1,8.9-1.4c1.7-0.9,3.3-2,5-3c0.2-0.1,0.3-0.3,0.5-0.4c0,0-0.1-0.1-0.1-0.1c-0.2,0.1-0.4,0.2-0.6,0.3
		c-2.5,1.7-5.2,3-8.2,3.7c-2.6,0.6-5.2,0.6-7.6-0.6c-1.5-0.7-2.5-2-3.1-3.4c-0.8-1.8-1.1-3.7-1.1-5.7c-0.1-3,0.3-5.9,1-8.7
		c0.3-1.3,0.7-2.5,1-3.7C90.1,109.4,90.1,109.3,90.1,109.1C90.1,109.2,90.1,109.2,90.1,109.1z"/>
	<path d="M91.3,112.7c-0.4,2-0.5,4.1-0.5,6.2c0.1,1.7,0.3,3.4,1,5.1c1.2,2.8,3.8,4.4,6.9,4.2c1.8-0.1,3.5-0.3,5.2-0.9
		c0.1,0,0.3-0.1,0.4-0.1c0.1,0,0.1-0.1,0.1-0.1c0-0.1,0-0.1-0.1-0.2c-0.3,0.1-0.7,0.1-1,0.2c-2.2,0.4-4.5,0.7-6.7,0.1
		c-2.5-0.6-4-2.4-4.7-4.8c-0.8-2.8-0.9-5.7-0.8-8.6C91.3,113.4,91.3,113.1,91.3,112.7z"/>
	<path d="M113.7,102.6c-0.3-0.7-0.6-1.4-1-2.1c-1.9-3.5-6.3-4.1-9-3c-2,0.8-3.7,2.2-5.1,3.9c-0.4,0.4-0.7,0.9-1,1.4
		c0.2-0.2,0.5-0.4,0.7-0.7c1.4-1.3,2.8-2.5,4.5-3.4c2.9-1.5,7-1,9.2,1.7c0.4,0.6,0.8,1.2,1.3,1.8c0.1,0.1,0.2,0.3,0.3,0.5
		C113.6,102.7,113.7,102.6,113.7,102.6z"/>
	<path d="M84.7,112.6c-2.9-0.1-5.7,0.6-8.5,1.6c-2.5,0.9-5,2-7.5,2.9c-2.4,0.9-4.8,1.6-7.4,1.7c-0.1,0-0.3,0-0.4,0.1
		c2.5,0.2,4.9-0.1,7.3-1c2.5-0.9,4.9-1.9,7.4-2.8c2.7-1.1,5.5-1.9,8.4-2.4C84.2,112.6,84.4,112.6,84.7,112.6z"/>
	<path d="M99.5,110.9c0.4,1.7,1.3,2.9,2.8,3.6c1.4,0.7,3.5,0.4,4.8-0.8C103.5,115.3,101.2,114,99.5,110.9z"/>
	<path d="M95.4,136.2c-0.6,0.3-0.8,0.7-0.6,1.3c0.3,0.6,0.8,0.8,1.5,0.5C95.2,137.6,95.1,137.3,95.4,136.2z"/>
	<path d="M82.3,103.8c-0.6-0.1-1,0.2-1.1,0.8c-0.1,0.6,0.3,1.1,0.8,1.2c-0.1-0.3-0.3-0.7-0.3-1.1C81.8,104.4,82.1,104.1,82.3,103.8z
		"/>
	<path d="M69.6,119.8c-0.7-0.2-1.1,0.1-1.2,0.8c-0.1,0.6,0.3,1.1,0.9,1.2C68.7,120.9,68.7,120.5,69.6,119.8z"/>
	<path d="M74.2,107.5c-0.7-0.8-0.7-1.3,0.2-2c-0.6-0.2-1,0.1-1.1,0.7C73,106.9,73.4,107.4,74.2,107.5z"/>
	<path d="M76.8,124.9c-0.7-0.9-0.7-1.3,0.2-2c-0.5-0.2-0.9,0-1.1,0.5C75.7,124.1,76,124.7,76.8,124.9z"/>
	<path d="M79.1,108.6c-0.7-0.9-0.6-1.1,0.2-2c-0.6-0.1-1.1,0.2-1.1,0.8C78.1,108,78.4,108.5,79.1,108.6z"/>
	<path d="M90.6,95.8c-0.8-0.9-0.7-1.2,0.1-2.1c-0.6-0.1-1,0.1-1.1,0.7C89.5,95.1,89.8,95.6,90.6,95.8z"/>
	<path d="M82.8,110.1c-0.6-0.9-0.6-1.2,0.2-2c-0.6-0.1-1,0.1-1.1,0.7C81.7,109.5,82.1,110,82.8,110.1z"/>
	<path d="M69.4,114.3c-0.7-0.8-0.7-1.1,0-2c-0.5-0.1-0.9,0.1-1,0.8C68.3,113.7,68.7,114.2,69.4,114.3z"/>
	<path d="M60.1,115.6c-0.6-0.1-0.9,0.2-1.1,0.8c-0.1,0.6,0.2,1.1,0.9,1.3c-0.1-0.3-0.4-0.7-0.4-1C59.6,116.3,59.9,116,60.1,115.6z"
		/>
	<path d="M78.6,104c-0.7-0.9-0.7-1.1,0.2-2c-0.6-0.1-1.1,0.2-1.2,0.9C77.5,103.3,77.9,103.8,78.6,104z"/>
	<path d="M62.7,116.7c-0.7-0.9-0.7-1.2,0.2-2c-0.6-0.2-1,0.1-1.1,0.7C61.6,116,61.9,116.5,62.7,116.7z"/>
	<path d="M74.9,118.2c-0.5-0.1-0.9,0.1-1.1,0.7c-0.2,0.6,0.2,1.1,0.8,1.3c-0.1-0.3-0.3-0.7-0.3-1.1
		C74.4,118.8,74.7,118.5,74.9,118.2z"/>
	<path d="M86.2,101.8c-0.4-0.1-0.9,0.1-1,0.6c-0.2,0.7,0.1,1.2,0.8,1.4c-0.1-0.3-0.4-0.7-0.3-1.1C85.7,102.5,86.1,102.2,86.2,101.8z
		"/>
	<path d="M76.1,109.6c-0.7-0.9-0.7-1.2,0.2-2c-0.6-0.2-1,0.1-1.1,0.7C75,109,75.4,109.5,76.1,109.6z"/>
	<path d="M66.5,117c-0.7-0.9-0.6-1.4,0.2-2c-0.5-0.2-0.9,0-1.1,0.5C65.3,116.1,65.6,116.8,66.5,117z"/>
	<path d="M81.7,100.3c-0.7-0.9-0.7-1.2,0.2-2c-0.5-0.1-1,0.1-1.1,0.7C80.5,99.6,80.9,100.1,81.7,100.3z"/>
	<path d="M65.1,120.1c-0.5-0.1-0.9,0.2-1.1,0.7c-0.1,0.7,0.2,1.1,0.9,1.3c-0.1-0.3-0.4-0.7-0.4-1.1C64.6,120.8,65,120.5,65.1,120.1z
		"/>
	<path d="M90.2,138.1c-1.1-0.5-1.2-0.7-0.9-1.8c-0.5,0.2-0.7,0.6-0.6,1.1C88.9,138,89.5,138.3,90.2,138.1z"/>
	<path d="M86.1,109.1c-0.7-0.9-0.6-1.4,0.2-2.1c-0.3,0.1-0.7,0.1-0.8,0.2c-0.2,0.3-0.3,0.8-0.3,1.2
		C85.3,108.8,85.6,109.1,86.1,109.1z"/>
	<path d="M71.8,122.9c-0.7-0.2-1,0.1-1.2,0.7c-0.1,0.7,0.2,1.2,0.8,1.2C70.8,123.8,70.8,123.6,71.8,122.9z"/>
	<path d="M85.5,134c-0.5,0.3-0.7,0.7-0.4,1.2c0.2,0.6,0.8,0.8,1.4,0.6c-0.3-0.2-0.7-0.4-0.8-0.7C85.4,134.8,85.5,134.4,85.5,134z"/>
	<path d="M88.8,97.4c-0.6-0.2-0.9,0-1,0.6c-0.2,0.6,0.1,1.2,0.8,1.4C87.9,98.5,88.1,97.9,88.8,97.4z"/>
	<path d="M84.7,137.2c-0.5,0.2-0.6,0.6-0.4,1.2c0.2,0.6,0.7,0.8,1.4,0.6c-0.3-0.2-0.7-0.4-0.9-0.7C84.6,138.1,84.7,137.6,84.7,137.2
		z"/>
	<path d="M73,114.3c-0.7-1-0.7-1,0.1-2.1c-0.5-0.1-0.8,0.1-1,0.6C72,113.5,72.2,113.9,73,114.3z"/>
	<path d="M84.4,97.9c-0.6-1-0.6-1.3,0.3-2c-0.5-0.2-0.8-0.1-1,0.5C83.4,97,83.6,97.5,84.4,97.9z"/>
	<path d="M101.3,136.7c-0.8-0.2-1-0.7-0.7-1.4c-0.6,0.3-0.7,0.6-0.5,1.1C100.3,136.8,100.7,137,101.3,136.7z"/>
	<path d="M45.6,132.5c-1.1,1-2.1,2.1-2.9,2.8C43.4,134.6,44.5,133.5,45.6,132.5C45.5,132.5,45.6,132.5,45.6,132.5z"/>
	<path d="M38.6,129c0.8-0.4,1.6-0.7,2.4-1.1c0-0.1-0.1-0.1-0.1-0.2c-0.8,0.4-1.6,0.8-2.4,1.1C38.5,129,38.6,129,38.6,129z"/>
	<path d="M61.1,44.5c-0.8-0.3-1.7-0.6-2.5-0.9C58.9,44.7,60,45.1,61.1,44.5z"/>
	<path d="M121.7,155.2c3.6,0.2,6.4,3.4,6.2,7.1c-0.2,3.9-3.3,6.9-6.8,6.6c-3.3-0.3-6.2-3.2-5.9-7.1
		C115.1,158.1,118,155.1,121.7,155.2z M121,167.7c3.1,0.1,5.4-2.5,5.4-5.8c0-3.1-2.5-5.8-5.4-5.7c-3,0.1-5.5,2.7-5.5,5.8
		C115.9,165.6,117.9,167.6,121,167.7z"/>
	<path d="M126.2,187.2c0,2-1.6,3.6-3.5,3.7c-2,0-3.6-1.6-3.6-3.5c0-2.1,1.5-3.6,3.5-3.7C124.5,183.6,126.1,185.2,126.2,187.2z
		 M119.7,187c0,1.5,1.2,2.7,2.7,2.6c1.4,0,2.6-1.2,2.6-2.6c0-1.5-1.1-2.6-2.7-2.6C120.7,184.5,119.6,185.6,119.7,187z"/>
	<path d="M115.3,176.7c0-1.5,1.3-3,2.9-3c1.6-0.1,3,1.3,3,2.9c0,1.6-1.2,2.9-2.9,3C116.7,179.5,115.4,178.3,115.3,176.7z
		 M118.3,178.6c1.1,0,2-1,2-2.1c0-1.1-0.9-2-2-2.1c-1.1,0-2,0.9-2,2C116.3,177.7,117.2,178.7,118.3,178.6z"/>
	<path d="M121.5,166.3c-1-0.4-2.1-0.8-3.2-1.2C118.6,166.4,120.1,167,121.5,166.3z"/>
	<path d="M238.1,176.6c2.9,0.1,5.1,2.7,5,5.6c-0.2,3.1-2.7,5.5-5.5,5.2c-2.6-0.2-5-2.5-4.7-5.7C232.9,178.9,235.2,176.5,238.1,176.6
		z M237.6,186.5c2.5,0.1,4.4-2,4.3-4.6c0-2.5-2-4.6-4.3-4.5c-2.4,0.1-4.4,2.2-4.4,4.7C233.5,184.8,235.1,186.5,237.6,186.5z"/>
	<path d="M241.7,202.1c0,1.6-1.3,2.9-2.8,2.9c-1.6,0-2.9-1.2-2.9-2.8c0-1.6,1.2-2.9,2.8-2.9C240.4,199.3,241.7,200.5,241.7,202.1z
		 M236.5,202c0,1.2,0.9,2.1,2.2,2.1c1.2,0,2.1-0.9,2-2.1c0-1.2-0.9-2.1-2.2-2.1C237.4,199.9,236.5,200.8,236.5,202z"/>
	<path d="M233,193.7c0-1.2,1.1-2.4,2.3-2.4c1.2,0,2.4,1.1,2.4,2.3c0,1.3-1,2.4-2.3,2.4C234.1,196,233,195,233,193.7z M235.4,195.3
		c0.8,0,1.6-0.8,1.6-1.7c0-0.9-0.7-1.6-1.6-1.7c-0.9,0-1.6,0.7-1.6,1.6C233.8,194.5,234.5,195.3,235.4,195.3z"/>
	<path d="M238,185.4c-0.8-0.3-1.7-0.6-2.5-0.9C235.7,185.5,236.9,186,238,185.4z"/>
	<path d="M227.6,65c0.4,1.1,1.4,1.6,2.6,1C229.3,65.6,228.4,65.3,227.6,65z"/>
	<path d="M41.3,172.8c2.8,0,5,2.1,4.9,4.7c0,2.6-2.3,4.7-5,4.7c-2.8,0-5-2.1-4.9-4.7C36.3,174.7,38.5,172.7,41.3,172.8z M44.7,177.3
		c-0.1-1.9-2-3.6-4.1-3.6c-2.1,0-3.9,1.7-3.8,3.6c0,2.1,1.7,3.6,4,3.6C43,180.9,44.8,179.2,44.7,177.3z"/>
	<path d="M62.9,176.5c2.5,0,4.4,2,4.4,4.6c0,2.5-2,4.5-4.4,4.6c-2.3,0-4.2-2-4.2-4.5C58.7,178.5,60.5,176.5,62.9,176.5z M62.7,184.9
		c1.9,0,3.6-1.7,3.7-3.8c0-2.1-1.6-3.9-3.7-3.9c-2,0-3.7,1.7-3.7,3.8C59,183.1,60.7,184.8,62.7,184.9z"/>
	<path d="M71,19.6c2.5,0,4.4,2,4.4,4.6c0,2.5-2,4.5-4.4,4.6c-2.3,0-4.2-2-4.2-4.5C66.9,21.7,68.6,19.7,71,19.6z M70.8,28
		c1.9,0,3.6-1.7,3.7-3.8c0-2.1-1.6-3.9-3.7-3.9c-2,0-3.7,1.7-3.7,3.8C67.2,26.2,68.8,28,70.8,28z"/>
	<path d="M224.6,34.4c2.5,0,4.4,2,4.4,4.6c0,2.5-2,4.5-4.4,4.6c-2.3,0-4.2-2-4.2-4.5C220.4,36.5,222.2,34.5,224.6,34.4z M224.4,42.8
		c1.9,0,3.6-1.7,3.7-3.8c0-2.1-1.6-3.9-3.7-3.9c-2,0-3.7,1.7-3.7,3.8C220.7,41,222.4,42.8,224.4,42.8z"/>
	<path d="M33.6,165.4c0-1.5,1.2-2.7,2.7-2.7c1.5,0,2.7,1.2,2.7,2.7c0,1.7-1,2.7-2.7,2.7C34.8,168,33.6,166.8,33.6,165.4z
		 M38.3,165.3c0-1.2-0.9-2.1-2.1-2c-1.1,0.1-1.9,0.9-1.9,2.1c0,1,1,1.9,2.1,1.9C37.4,167.2,38.3,166.3,38.3,165.3z"/>
	<path d="M38.3,178.7c0.5,1.5,1.9,2.1,3.5,1.4C40.7,179.6,39.5,179.1,38.3,178.7z"/>
	<path d="M221.6,51.4c-0.7-0.3-1.4-0.6-2-0.8C219.7,51.6,220.5,52,221.6,51.4z"/>
	<path d="M58.2,200.7c2,0,3.6,1.6,3.6,3.4c0,1.9-1.7,3.4-3.7,3.4c-2.1,0-3.6-1.5-3.6-3.4C54.5,202.1,56.1,200.7,58.2,200.7z
		 M60.6,204c0-1.4-1.4-2.6-3-2.6c-1.5,0-2.8,1.2-2.8,2.6c0,1.5,1.3,2.6,2.9,2.6C59.4,206.6,60.7,205.4,60.6,204z"/>
	<path d="M73.9,203.4c1.8,0,3.2,1.5,3.2,3.4c0,1.8-1.4,3.3-3.2,3.3c-1.7,0-3.1-1.4-3.1-3.3C70.8,204.9,72.1,203.4,73.9,203.4z
		 M73.8,209.5c1.4,0,2.6-1.3,2.7-2.8c0-1.6-1.2-2.8-2.7-2.8c-1.5,0-2.7,1.2-2.7,2.7C71.1,208.2,72.3,209.5,73.8,209.5z"/>
	<path d="M49.4,192.9c-1.4,0-2.6-1.1-2.6-2.5c0-1.3,1.1-2.6,2.5-2.6c1.4-0.1,2.5,1.1,2.6,2.5C51.9,191.7,50.7,192.9,49.4,192.9z
		 M51,190.3c0-1-0.9-1.9-1.9-1.9c-1,0-1.8,0.9-1.8,1.8c0,1.1,0.8,1.9,1.9,1.9C50.2,192.1,51,191.2,51,190.3z"/>
	<path d="M52.5,195.3c0-1.1,0.9-2,2-2c1.1,0,2,0.9,2,2c0,1.3-0.7,2-2,2C53.4,197.2,52.5,196.4,52.5,195.3z M55.9,195.2
		c0-0.9-0.7-1.5-1.5-1.5c-0.8,0-1.4,0.7-1.4,1.5c0,0.7,0.8,1.4,1.5,1.4C55.3,196.7,55.9,196,55.9,195.2z"/>
	<path d="M56,205c0.4,1.1,1.4,1.6,2.6,1C57.7,205.7,56.8,205.3,56,205z"/>
	<path d="M49.9,191.5c-0.7-0.3-1.4-0.6-2-0.8C48.1,191.7,48.9,192,49.9,191.5z"/>
	<path d="M105.7,106.3c-0.7,0.9-1.1,1.1-1.7,0.8c-0.5-0.2-0.8-0.8-0.7-1.3c0.1-0.6,0.5-0.9,1.4-1c-0.4-0.5-0.9-0.8-1.6-0.8
		c-0.6,0-1,0.4-1.3,0.9c-0.6,1.4-0.4,2.8,0.1,4.1c0.3,0.8,0.7,1.5,1.4,2.1c1,0.8,2.1,0.6,2.6-0.6
		C106.5,109.1,106.2,107.7,105.7,106.3z"/>
</g>
<g>
	<path d="M204.4,59.1C201.4,45,193.5,34,181.9,25.6c-7.1-5.2-15-8.8-23.2-11.8c-1.6-0.6-3.2-1.2-4.7-1.7c0.1-0.9,0.3-1.7,0.2-2.5
		c-0.2-2-1.5-3.2-3.3-4H149c-2.4,1-3.7,2.7-3.3,5.4c-2.8,0.2-5.6,0.3-8.3,0.7c-6.7,1-13.5,2.1-20.1,3.4c-10.8,2.1-19.6,7.4-26.4,16
		c-1.4,1.8-2.7,3.8-4.1,5.6V37c0.2,0.1,0.3,0.1,0.5,0.2c8.6,1.9,14.9,6.7,18.8,14.6c0.3,0.6,0.5,1.1,0.8,1.7
		c3.9-1.5,7.8-1.4,11.8-0.7c7,1.2,13.3,4.1,19.4,7.4c0.6,0.3,0.6,0.7,0.5,1.2c-0.7,4-1.3,8-1.9,12.1c-1.8,11.1-3.7,22.1-5.6,33.2
		c-0.2,1.3-0.7,2.7-1.4,3.9l0.5,0.3c0.1-0.1,0.2-0.1,0.3-0.2c0,0,0.1,0,0.1-0.1c0.2-0.3,0.3-0.6,0.4-0.9c0.6-2,0.9-4.1,1.3-6.2
		c0.3-1.3,0.5-2.6,0.8-4c1.2,0.3,2.2,0.5,3.4,0.7c-0.3,1.9-0.6,3.8-0.9,5.7c-0.4,2.3-1.1,4.6-2.2,6.7l0.6,0.4c0.6-1.3,1.2-2.6,1.6-4
		c0.7-3,1.2-5.9,1.7-8.9c2-12.7,4-25.3,6.1-38c0.1-0.6,0.3-0.8,0.9-0.9c5.8-0.7,11.6-0.8,17.4,0c5.7,0.8,11,2.5,15.9,5.5
		c0.7,0.4,1.1,0.4,1.8,0c6.6-4.2,13.7-6.3,21.5-6.3c1.2,0,2.5,0,3.7,0v-0.9C204.6,59.4,204.5,59.3,204.4,59.1z M163.6,19
		c9.5,7.8,16.8,17.2,21.1,28.8c0.6,1.5,1,3.1,1.5,4.7C173.1,41,158.1,36,140.5,39.1c0-2.1-0.1-4.1,0-6c0.5-7.3,3.5-13.5,8-19.1
		c1.9-2.4,1.8-2.3,4.8-1.4C157.4,13.7,160.5,16.4,163.6,19z M149.1,6.5c2-0.4,3.8,0.6,4.3,2.5c0.1,0.3,0.1,0.6,0.1,0.8
		c0.1,1.7-0.3,1.9-2,1.5c-0.9-0.2-1.8-0.3-2.7-0.3c-0.8-0.1-1.6,0-2.4,0C146.2,8.6,147.2,6.9,149.1,6.5z M137.8,12.6
		c1.5-0.4,3.2-0.5,4.8-0.6c2.3-0.2,4.5-0.3,7.1-0.4c-3.3,4-6,8-7.8,12.6c-1.8,4.6-2.3,9.4-1.8,14.5c-11.4-6.6-23.1-5.5-35.2-2.5
		c0.8-2.5,1.9-4.6,3.3-6.5c3.7-5,8.7-8.3,14.1-11.1C127.2,16,132.4,14.1,137.8,12.6z M91,32c6.6-8.5,15.2-13.9,25.8-16.1
		c5.8-1.2,11.7-2.1,17.5-3.2c0.1,0,0.2,0,0.5,0c-2.2,0.8-4.1,1.5-6.1,2.3c-4.4,1.7-8.6,3.7-12.5,6.4c-5.5,3.7-9.9,8.2-12,14.8
		C99,33.7,93.8,34,88.4,35.6C89.2,34.4,90,33.2,91,32z M88.7,36.7c0-0.1,0-0.2,0-0.3c1.6-0.4,3.1-0.9,4.7-1.1
		c3.7-0.6,7.3-0.1,10.6,1.7c0.2,0.1,0.6,0,0.9,0c3.7-0.7,7.5-1.4,11.2-2.1c0.2,0,0.4,0,0.8,0c-3.3,5.9-6.5,11.6-9.8,17.6
		C103.4,44.2,97.2,39.1,88.7,36.7z M132.1,56.4c-4.6-2.1-9.3-3.8-14.3-4.5c-3.3-0.5-6.5-0.4-9.9,0.5c0.1-0.4,0.2-0.6,0.3-0.8
		c3-5.4,6-10.8,9.1-16.2c0.2-0.3,0.6-0.7,1-0.8c6.1-0.4,12.1,0.2,17.8,2.8c0.8,0.4,1.6,0.8,2.4,1.2c1.6,0.9,1.6,0.9,3.8,0.9
		c-1.1,6.8-2.2,13.4-3.3,20.2C136.6,58.6,134.4,57.5,132.1,56.4z M136.7,99.6c-1.1-0.2-2.2-0.5-3.4-0.7c0.3-2.1,0.7-4.1,1-6.2
		c1.1-6.8,2.2-13.7,3.3-20.5c0.6-3.8,1.2-7.6,1.8-11.4c1-6.1,1.9-12.1,2.9-18.2c0-0.2,0-0.4,0.1-0.5c0.6-3.1,0.6-3.1,4.1-3
		C143.2,59.3,139.9,79.4,136.7,99.6z M143.9,59c0.5-3.4,1.1-6.6,1.6-9.9c0.5-3,0.9-5.9,1.4-8.9c0.1-0.7,0-1.5,1.2-1.5
		c0.9,0,1.1,0.3,1.1,1.1c0.3,6.8-1.8,13-5,18.9C144.1,58.9,144,58.9,143.9,59z M178.4,66.2c-10.7-6.4-22.3-7-34.1-5.8
		c1.4-3.5,3-6.9,4.2-10.4c1.2-3.5,1.6-7.2,1.2-11.1c1.3,0,2.5-0.1,3.8,0c6,0.4,11.8,1.8,17.3,4.3c0.4,0.2,0.9,0.4,1.1,0.8
		c3,4,5.6,8.2,6.6,13.2C179.2,60.2,179.2,63.2,178.4,66.2z M179,66c1.7-8.3-1.5-15.1-5.9-21.5c5.1,2.5,9.6,5.9,13.8,9.8
		c5.3-1.9,11.9,0.8,16.2,5.3C194.4,59.3,186.5,61.4,179,66z M195.9,54c-2.8-1.1-5.8-1.2-8.8-0.6c-4.4-16.2-14.1-28.5-27.3-38.3
		c0.2,0,0.3,0,0.5,0.1c9.6,3.6,18.6,8.3,26.3,15.1c8.5,7.5,14.1,16.7,16.8,27.6c0.1,0.2,0.1,0.5,0.1,0.9
		C201.2,56.9,198.8,55.1,195.9,54z"/>
	<path fill="none" stroke="#000000" stroke-miterlimit="10" d="M130.2,110.4c-0.6,0.6-2.7,2-1.9,3.1c0.6,0.7,3.1,0.4,3.8,0.3
		c0.7-0.1,1.2-0.8,1.8-1.2"/>
</g>
</svg>
