<?xml version="1.0" encoding="utf-8"?>
<!-- Generator: Adobe Illustrator 17.1.0, SVG Export Plug-In . SVG Version: 6.00 Build 0)  -->
<!DOCTYPE svg PUBLIC "-//W3C//DTD SVG 1.1//EN" "http://www.w3.org/Graphics/SVG/1.1/DTD/svg11.dtd">
<svg version="1.1" id="Layer_1" xmlns="http://www.w3.org/2000/svg" xmlns:xlink="http://www.w3.org/1999/xlink" x="0px" y="0px"
	 viewBox="0 0 288 216" enable-background="new 0 0 288 216" xml:space="preserve">
<g>
	<path d="M218.8,57.7c-0.1,0.6-0.1,1.3-0.3,1.8c-3.2,7.9-3.5,16-1.2,24.2c1.7,6.2,3.4,12.4,5.1,18.6c1.1,4.4,4.3,7.5,6.4,11.4
		c1.2,2.3,2.5,4.7,3.7,7c-0.1,0.1-0.2,0.3-0.4,0.4c-0.7-0.3-1.8-0.4-2.2-0.9c-3.5-4.9-8.9-5.1-14-5.7c-5.8-0.7-11.7-1.6-17.5-1.7
		c-5.7-0.1-11.4,0.3-17,1c-5.9,0.7-11.8,1.7-17.5,3c-6.3,1.4-11.7,4.8-16.8,8.6c0,0.2,0,0.4,0,0.6c3.3,0,6.6,0.1,9.9,0
		c0.7,0,1.4-0.6,2-1c3.3-2.5,6.6-5.2,10-7.5c1.5-1,3.3-1.6,5.1-1.9c2.4-0.4,3.7,1.4,2.7,3.7c-0.5,1.2-1.2,2.2-1.9,3.5
		c1.3,0.3,2.6,0.5,3.9,0.8c4.8,1.2,9.3,2.9,13.2,6c1.3,1,2.7,1.2,4.2,1.1c4.6-0.2,9.1-0.4,13.7-0.3c0.9,0,2.2,0.6,2.6,1.3
		c0.6,1.3-0.4,2.2-1.6,2.8c-2,1.2-4,2.3-6.4,3.7c1.4,0.9,2.3,1.6,3.3,2.3c1.2,0.8,2.5,1.6,3.7,2.3c1.6,0.9,3.3,2.6,5,2.5
		c1.4-0.1,2.8-2,4.2-3.2c2.5-2,5.3-2.5,8.4-2.2c2.1,0.2,3.1,1.8,2,3.6c-1.2,2.1-2.8,4-4.5,6.2c3.8,1,7.6,2,11.3,2.9
		c0.4,0.1,0.9-0.3,1.3-0.5c2.3-1,4.5-2.2,6.9-3.1c2.6-1,4,0.3,3.6,3.1c-0.1,0.8-0.4,1.6-0.7,2.6c2.8,0.5,5.6,1,8.4,1.5
		c2.4,0.4,4.9,0.6,7.3,1.1c0.7,0.2,1.8,1.2,1.7,1.7c-0.1,0.8-0.9,2-1.6,2.1c-3.9,0.9-7.9,1.7-11.9,2.4c-12.6,2.2-25.4,1.8-38.1,1.5
		c-7-0.1-13.6-2.1-19.8-5.3c-0.7-0.3-1.3-0.6-1.9-0.9c0,5.1,0.2,10.1-0.1,15c-0.2,4.6-0.8,9.2-1.5,13.7c-0.5,3.4-2.6,5.8-5.7,7
		c-2.3,0.9-4.6,1.7-7,2.3c-3.2,0.9-6,2.3-7.7,5.3c-0.4,0.7-1.4,1-2.1,1.4c-0.3-0.8-0.7-1.6-1-2.4c-0.1-0.3,0-0.8,0-1.1
		c0-0.7,0-2-0.1-2c-1-0.2-2-0.2-2.9,0.1c-0.6,0.1-1.1,0.8-1.8,1.1c-0.8,0.3-2.1,0.9-2.5,0.5c-0.6-0.5-0.7-1.7-0.9-2.6
		c-0.1-0.3,0.1-0.7,0.2-1.3c-0.7,0.1-1.3,0.2-1.9,0.1c-0.9-0.1-1.7-0.5-2.5-0.7c0.3-0.8,0.4-1.6,0.8-2.3c0.5-0.8,1.3-1.5,2.2-2.4
		c-2.8-0.4-5.4-0.7-8.1-1.1c-1.9-0.3-3.7-0.8-5.1,1.4c-0.7,1.1-2.1,0.4-2.2-1.2c-0.1-1.3-0.3-2.1-1.9-2.1c-1.6-0.1-1.8-1.4-1.4-2.7
		c0.7-2.2,2.1-3.7,4.5-4.2c0.7-0.1,1.4-0.5,1.9-1c3-2.9,6.6-3.8,10.7-3c1.4,0.3,2.8,0.9,4.2,1.2c1,0.2,1.8,0.2,2.3-1
		c1.1-2.7,2.2-5.3,3.3-8c0.2-0.6,0.3-1.3,0.5-2.3c-2,0.1-3.8,0.2-5.5,0.3c-2,0.1-3.9,0.2-5.9,0.2c-2.6-0.1-4.6-1.4-5.4-3.8
		c-0.8-2.6-1.3-5.4-1.9-8.1c-0.2-0.7-0.1-1.5-0.2-2.7c-3.5,0.5-6.9,0.9-10.3,1.4c0.3,2.5,0.8,4.6,0.7,6.7c-0.4,6.9-1,13.7-1.7,20.6
		c-0.3,3.1-0.9,6.1-1.3,9.2c-0.4,3.1-2.1,4.9-5.1,5.7c-2.1,0.5-4.3,0.8-6.2,1.6c-3.2,1.4-6.8,2.3-9.1,5.2c-0.4,0.5-0.8,1.2-1.4,1.5
		c-0.6,0.4-1.5,0.8-2,0.6c-0.5-0.2-1-1.2-1-1.8c-0.1-1.4,0.2-2.8,0.3-4.7c-1.3,0.7-2.2,1.2-3.1,1.7c-3,1.6-4.4,0.7-4.5-2.6
		c0-0.3,0-0.6,0-0.9c-4.6,0.7-4.7,0.6-4.6-4.4c-3.6-0.5-7.1-1.1-10.7-1.4c-0.9-0.1-1.9,1-2.8,1.5c-1,0.6-1.9,1.1-2.9,1.7
		c-0.5-1.1-1.1-2.1-1.5-3.3c-0.2-0.6,0-1.4,0-2.1c-0.6-0.1-1.3,0-1.6-0.3c-0.6-0.6-1.5-1.3-1.5-2c0-3.3,3.6-6.1,6.7-5
		c2.7,0.9,4.7,0.6,6.9-1c1.9-1.5,4.3-1.8,6.7-1.1c0.5,0.2,1.1,0.3,1.7,0.4c4.7,1.2,6.5,0.1,7.3-4.7c0.7-4,0.2-7.8-1.9-11.4
		c-0.4-0.6-0.7-1.2-1-1.8c-1.3-2.7-3.3-4.5-6.3-5.3c-1.1-0.3-2.2-0.9-3.3-1.5c-4-2.3-5.8-5.5-4.8-10c1.2-5.7,0.3-11.2-0.6-16.8
		c-0.5-2.8-1-5.5-1.5-7.9c-3.7,0.3-7,0.5-10.4,0.9c-0.5,0-1.1,0.4-1.3,0.8c-1.2,2.1-3.3,2.9-5.4,3c-4.4,0.2-8.9,0.3-13.3,0
		c-3.7-0.3-6.6-2.4-8.7-5.5c-1.7-2.6-1.5-5.3-0.2-7.9c0.5-1,0.4-1.5-0.2-2.4c-1.8-2.6-3.7-5.2-5.4-7.8c-2-3.1-2.1-6.5-0.8-9.7
		c4.1-9.7,8.3-19.3,12.5-28.9c0.2-0.3,0.3-0.8,0.6-1c0.6-0.4,1.4-1.1,2-1c0.7,0.1,1.6,0.9,1.8,1.6c0.5,2,0.6,4,0.9,6
		c0.1,0.8,0.2,1.6,0.3,2.4c2.3-0.6,3.7-1.7,4.4-4c2.2-7.1,5.7-13.7,10.5-19.4c2.1-2.5,5-4.4,7.6-6.4c1-0.8,2.4-1,3.5,0
		c1.1,1.1,0.4,2.3-0.1,3.3c-1.4,2.8-2.9,5.6-4.3,8.4c-2,4.1-1.4,8.3-0.6,12.5c0.1,0.3,0.7,0.7,1.2,0.8c1.3,0.3,2.6,0.5,3.9,0.5
		c1,0,2.1,0,3.1-0.3c6.2-2.5,12.5-4,19.5-3.5c0.1-0.7,0.4-1.5,0.2-2.1c-1.8-5,0.3-8.7,4-11.7c3.9-3.1,7.9-6.1,12.1-8.9
		c11.4-7.8,22.9-15.5,35.5-21.2c8.2-3.7,16.9-5.7,25.6-7.4c6.3-1.3,12.7-2.3,19-3.4c0.7-0.1,1.4-0.1,2.1-0.1c0,0.2,0,0.3,0,0.5
		c-2.8,0.5-5.5,1-8.2,1.6C186,12.3,173,15.4,160.7,21c-11.3,5.2-21.8,11.9-32.1,18.8c-4.7,3.2-9.3,6.6-14,9.9
		c-1.7,1.2-2.8,2.9-3.3,4.9c-0.5,2-0.2,3.7,1.3,5.2c7.5,7.4,15,14.7,22.4,22.2c5.2,5.3,10.3,10.8,15.4,16.3c1.1,1.2,1.9,2.5,2.8,3.8
		c1.3,1.9,1.3,3.9-0.3,5.6c-1.5,1.6-3,3.3-4.8,4.6c-3,2.1-6.2,3.8-9.4,5.6c-0.7,0.4-1.7,0.4-2.5,0.6c-1.5,0.4-3,0.8-4.7,1.2
		c0.9,2.4,1.5,4.2,2.2,6.1c-0.2,0.1-0.3,0.2-0.5,0.3c-0.2-0.3-0.6-0.5-0.7-0.8c-1.6-3.9-4.7-6.2-8.6-7.5c-3.6-1.2-7.2-2.5-10.9-3.7
		c-0.1,0.2-0.2,0.4-0.3,0.6c1.1,0.8,2.1,1.6,3.2,2.4c-7.8-1.4-10.7-7-11.8-14.5c-0.6,1.3-1,2-1.4,2.8c-0.1,0-0.2-0.1-0.3-0.1
		c0.4-2.2,0.6-4.4,1.1-6.5c1.5-6.4,0.6-12.4-2.8-18.1c-0.3-0.5-1.1-0.7-1.7-0.8c-2.4-0.3-4.8-0.4-7.1-0.8c-4.7-0.9-7.7-5.7-6.5-10.4
		c-2.4-0.8-4.9-1.5-7.1,0.4c-3,2.5-5.9,5.2-8.7,7.9c-1.7,1.6-3.2,3.4-4.9,5c-0.6,0.5-1.8,0.8-2.6,0.5c-0.5-0.2-1-1.5-0.9-2.2
		c0.4-3,1-6,1.5-8.9c-8.3,2.2-18.7,16.1-18.4,25.2c1.4-2.5,3.2-3.9,5.9-3.5c0.9,0.1,2.1,0.6,2.5,1.3c1.5,2.8,2.8,5.8,4.1,8.7
		c0.8,1.9,0,3.3-1.5,4.5c-0.6,0.5-1.3,1-2.1,1.4c-4.3,2.1-3.7,7.2-1,9.8c2.1,2.1,4.6,3.1,7.5,3.1c3.3,0,6.6-0.2,9.9-0.2
		c2.5,0,4.3-1.4,5.6-3.4c0.2-0.4,0.4-0.8,0.8-1.1c0.4-0.4,0.9-0.7,1.4-1c0.1,0.6,0.2,1.1,0.3,1.7c0,0.3-0.2,0.6-0.5,1.5
		c3.6-0.8,6.8-1.4,10-2.3c2.2-0.6,4.4-1.7,6.5-2.5c0.6-0.2,1.2-0.3,1.8-0.4c0.2,0.3,0.4,0.6,0.6,0.8c-0.6,0.3-1.3,0.5-2,0.8
		c1,1.8,1.8,3.3,2.7,4.7c1.8,2.9,2.4,6,2.3,9.4c-0.1,4.1-0.4,8.2,1.2,12.2c1.6,3.8,3.9,6.9,8.2,8.5c-1.3-3.2-1.8-6.3-1.2-9.5
		c0.6-3.1,1.1-6.1,1.6-9.2c0.3,0,0.5,0.1,0.8,0.1c-0.1,0.8-0.1,1.7-0.2,2.5c-0.4,4.1-2,8.2-0.5,12.2c3,7.6,6.2,15.2,13.3,20.1
		c2.4,1.7,4,3.8,4.4,7.3c-1.8-2-3.2-3.7-4.6-5.3c-0.2,0.1-0.4,0.2-0.6,0.3c0,1,0,2,0,2.9c-0.2,3.2-0.3,6.4-0.6,9.6
		c-0.1,1.3,0.1,2,1.1,2.7c1.5,1.2,2.9,2.5,4.3,3.7c-0.1,0.2-0.2,0.3-0.4,0.5c-0.5-0.3-1-0.6-1.5-0.9c-2.3-1.4-4.5-2.8-6.8-4.2
		c-4.3-2.9-8.9,0.3-9.7,4.2c1.2-0.3,2.6-1.1,3.7-0.8c1.2,0.3,2.2,1.5,3.4,2.5c-0.2,0,0,0,0,0c3.6-2.6,5.3-2.1,6.8,2.1
		c0.5,1.5,1,3,1.6,4.9c2.7-1,5.3-1.9,7.8-3.1c0.8-0.4,1.5-1.6,1.7-2.6c0.7-4.4,1.3-8.8,1.8-13.2c0.6-5.1,1-10.2,1.6-15.3
		c0.7-5.2-0.5-9.9-2.8-14.5c-0.9-1.8-1.9-3.6-2.4-5.6c1.3,2.2,2.6,4.4,4.1,6.8c6.4-5,13.1-5.1,20-0.7c-0.2-4-0.8-7.6,0.5-11
		c0.3,0,0.5,0,0.8,0c0,0.7,0.1,1.5,0,2.2c-1,8.6,3.1,15,8.9,20.6c2.8,2.7,6.7,2.7,10.4,2.9c2,0.1,4,0,6.1,0.3
		c-2.2,0.4-4.5,0.7-6.5,1.1c0.5,3,1.5,5.8,1.3,8.6c-0.2,2.7-1.7,5.4-2.7,8.4c2.2,1,4.7,2.1,7.5,3.3c-2.1,0.4-3.7,0-5.3-0.6
		c-2-0.8-4-1.6-6.1-2.1c-3.5-0.8-4.9,0.5-5,4.8c2.4-1.6,4.5-1.6,5.9,1c0.7-0.3,1.3-0.6,1.9-0.8c2.2-0.7,3.5-0.2,4.5,1.9
		c0.4,0.8,0.7,1.6,1,2.5c0.3,0.8,0.5,1.5,1,2.8c2.4-1.1,4.9-1.8,7-3.2c1.1-0.7,1.9-2.4,2.3-3.7c0.5-1.7,0.8-3.6,0.8-5.4
		c0.2-7.1,0.3-14.2,0.5-21.3c0.1-3.7-0.5-7.1-4.1-9.2c-0.2-0.1-0.3-0.4-0.5-0.6c-0.1-0.1,0-0.2,0-0.6c0.4,0,0.8-0.1,1.1,0
		c14.2,5,28.7,9,43.5,11.7c6.5,1.2,12.9,0.2,19.2-0.9c2.9-0.5,5.8-1.1,8.8-1.9c-5.3-1-10.6-2-16-3.1c-9.3-1.9-18.6-4.2-27-8.6
		c-7-3.6-13.5-8-20-12.3c-5.3-3.4-10.4-7-16.4-9.1c-5.2-1.8-10.4-2.5-15.6-0.4c-4.8,1.9-9.7,2.3-14.7,1.2c-0.7-0.2-1.5-0.1-2.2-0.2
		c-0.9,2.5-3.9,4.6-7.5,4.8c0.6-0.7,1-1.2,1.4-1.6c2.1-1.5,3.4-3.2,2.4-6.1c-0.7-2.1,0.7-3.9,2-5.5c3.7-4.7,8.2-8.4,12.8-12.1
		c1.1-0.9,1.8-2.4,2.3-3.7c0.4-1.1-0.3-1.9-1.5-2.5c-1.7-0.9-3.5-1.8-4.9-3.2c-9.6-9.1-19-18.2-28.5-27.4c-1.5-1.4-2.9-3-4.1-4.7
		c-1.3-2-0.5-3.9,1.8-4c3.4,0,6.8,0.4,10.1,1c22.3,4.5,42.1,14.9,60.9,27.2c10.2,6.7,20.2,13.6,28.9,22.1c2.2,2.2,4.4,4.5,6.6,6.8
		c0.2-0.2,0.4-0.3,0.6-0.5c-2.4-3-4.5-6.4-7.3-9c-5.6-5.2-11.5-10.2-17.6-14.8C191,83.7,176.5,74.4,161,66.9
		c-8.6-4.2-17.7-6.3-27.1-7.5c-2.4-0.3-4.9-0.5-7.3-0.9c-1-0.1-1.9-0.5-2.8-1c32.3-9.3,64.7-11.9,97.1-0.4c-0.1-0.1-0.3-0.2-0.5-0.4
		c-0.2-0.1-0.4-0.2-0.7-0.4c-9.6-5.7-20-8.4-31.1-8.6c-10.6-0.2-21.2-0.3-31.7,0c-11.8,0.4-23.3,3.2-34.7,6
		c-0.6,0.2-1.3,0.3-2.1,0.4c0-0.4,0-0.7,0.1-0.7c11.5-10.1,23.4-19.5,36.4-27.6c11.5-7.1,24-11.2,37-14c3.8-0.8,7.5-1.7,11.3-2.5
		c0.6-0.1,1.3-0.2,1.9-0.3c0,0.2,0.1,0.3,0.1,0.5c-1.5,0.4-3,0.7-4.4,1.2c-0.7,0.3-1.5,1-1.6,1.7c-1.8,15.3,0.6,29.1,13.6,39.2
		c3.9,3,8.3,5.5,12.5,8.3c0.5,0.3,0.9,0.7,1.2,1.3C225.1,60,221.9,58.8,218.8,57.7c-1.8-0.5-3.6-1.1-5.4-1.6
		c-9.4-2.6-18.9-4.7-28.7-5.1c-15.2-0.5-30.3,1.5-45.3,3.9c-3.6,0.6-7.2,1.4-10.8,2.1c2.8,0.5,5.5,0.8,8.2,1
		c9,0.9,17.7,2.7,25.9,6.8c16.3,8.2,31.6,18.2,46.2,29.1c4.6,3.4,9,7.1,13.6,10.8c-0.6-1.4-1.1-2.6-1.7-3.7
		c-4-8.2-6.2-16.8-7.3-25.8c-0.8-6.3,1.9-11.7,4.6-17.2C218.1,57.9,218.5,57.8,218.8,57.7z M141.2,151.7c2.8-0.5,5.7-1,8.7-1.5
		c-0.3-1,0.7-2.6-1.3-2.9c-1.6-0.2-3.3-0.2-4.9-0.2c-1.9,0-2.9,0.9-2.4,3C141.4,150.5,141.2,151.1,141.2,151.7
		c-0.3-1.1-0.7-2.3-1.2-3.6c-1.4,0.7-2.8,1.3-4.2,2c0.5,1.1,1,2,1.5,3.1C138.7,152.6,139.9,152.1,141.2,151.7z M222.9,114
		c-10.1-9.5-21.2-17.2-32.4-24.8c-18.9-12.8-39.7-21.1-61.9-25.9c-2-0.4-4.1-0.4-6.2-0.6c-0.1,0.2-0.2,0.4-0.2,0.7
		c0.4,0.6,0.7,1.3,1.2,1.8c1.5,1.5,3,3,4.6,4.3c6.9,5.4,13.2,11.5,19,18c2.8,3,5.7,6,8.6,8.9c0.9,0.9,2,1.6,3.1,2.2
		c2.9,1.5,3.9,3.6,2.6,6.5c-0.5,1.2-1.5,2.4-2.4,3.3c-4.3,4.1-8.6,8.2-12.9,12.3c-1.4,1.3-1.3,2.7,0,4.3c0.8-0.6,1.5-1.1,2.2-1.6
		c5.2-4,10.8-7.3,17.3-8.9c4.8-1.2,9.6-2.2,14.5-2.9c8.2-1.2,16.4-1.5,24.6-0.3C210.5,112.1,216.6,113.1,222.9,114z M200.4,11.5
		c-29.4,5.9-53.5,21.4-75.9,40.3c1.6-0.3,3.1-0.7,4.6-1.1c11-2.9,21.9-5.7,33.4-5.5c9.4,0.1,18.7,0.3,28.1,0.8
		c7.5,0.4,15,1.5,21.8,5.2c0.2,0.1,0.4,0.1,0.8,0.1C198.7,41.1,194.7,27.8,200.4,11.5z M128.7,117.7c0.5-4.4,4-5,7.2-6.5
		c3.2-1.4,6-3.7,8.7-5.9c1.8-1.5,1.7-2.4,0.1-4.2c-1.6-1.8-3.3-3.7-5.1-5.3c-10.2-9.5-20.5-19-30.8-28.5c-1.5,1.4-3.2,2.7-4.6,4.3
		c-0.8,0.8-1.2,2-1.7,3.1c-1.1,2.4-0.1,4.3,1.5,6c0.5,0.6,1.2,1.1,1.9,1.3c2.8,0.8,5.8,1.4,8.6,2.3c1,0.3,2.3,1.4,2.4,2.2
		c0.1,0.9-0.8,2.2-1.6,2.9c-2.5,2.1-5.1,4.1-7.8,6c-1.8,1.2-2.4,3-2.2,4.7c0.6,3.8,1.9,7.4,3.9,10.8c1.6-1.1,3-2.1,4.5-3.2
		c2.8-2,6-2.9,9.4-3.3c1.3-0.1,3-0.3,3.4,1.2c0.3,1-0.2,2.4-0.8,3.4c-0.7,1.3-2,2.3-2.8,3.6c-0.5,0.7-1.4,1.8,0.2,2.5
		C124.8,115.9,126.6,116.7,128.7,117.7z M172.4,180.8c2.2-4.7,3.1-9.4,1.9-14.4c-0.3-1.3-0.7-1.8-2.1-1.7c-4.6,0.3-8.3-1.4-10.6-5.3
		c-2.1-3.5-5.2-4.8-8.7-5.8c-1.2-0.3-2.4-0.5-3.5-0.8c-0.2,0.2-0.4,0.3-0.5,0.5c1,2.7,1.9,5.4,3,8.1c0.9,2.2,2.8,3.2,5.2,3.2
		c2.7,0,5.3,0,8,0c3.3,0.1,4.4,1.5,3.4,4.6c-0.9,2.8-2,5.6-3.1,8.3c-0.7,1.8-2.1,2.7-4.1,2.3c-1.5-0.3-2.9-0.7-4.4-1
		c-3-0.7-5.6,0.2-8.4,2.2c5.4-0.1,4.4,4.2,5.7,6.9c3,0.7,6,0.9,8.9-0.4C163.9,178.6,164.6,178.1,172.4,180.8z M103.8,158.4
		c1.4,1.7,2.5,3.1,3.7,4.5c4,4.9,3.6,9.7,0.6,15.4c-1.6,2.9-3.8,3.8-7,3.1c-1.2-0.2-2.3-0.5-3.5-0.8c-2.3-0.4-4.3,0.2-5.9,1.8
		c2.2,2.1,2.4,4.7,2.6,7.3c5,0.5,5.1,0.3,8.8-2c1.8-1.1,2.7-2.7,3.9-4.2c3.1-4.1,7.7-4.7,11.8-1.8c0.4,0.3,0.8,0.5,1.8,1.1
		c0-5,0-9.5,0-13.9c0-0.5-0.5-1.1-1-1.4c-2.6-1.6-4.6-3.7-6.1-6.4c-0.2-0.4-0.6-1-1-1C109.7,159.5,107,159,103.8,158.4z M110.7,61.8
		c-0.2,0.1-0.3,0.2-0.5,0.3c-0.1,2.2,0.3,4.2,2,5.8c3.4,3.1,6.8,6.2,10.2,9.4c7.8,7.3,15.7,14.6,23.3,22c3.1,3,3,5.1-0.1,8.3
		c-3.2,3.2-6.7,6-11.2,7.1c-2.1,0.5-3.7,1.7-4.9,3.6c0.6,0.5,1.2,0.9,1.7,1.3c1.6-1.5,3.3-2.5,5.5-2.3c0.5,0.1,1.1-0.3,1.6-0.6
		c3-1.9,6.1-3.8,9.1-5.9c1.5-1.1,2.7-2.6,3.9-4.1c0.9-1.1,0.9-2.5,0-3.7c-1.2-1.5-2.3-3.2-3.7-4.6C135.3,86.2,123,74,110.7,61.8z
		 M63.6,79c0.2,0.1,0.3,0.2,0.5,0.2c0.9-1,1.8-2,2.7-3.2c3.1-4.1,6.4-7.8,11.4-9.6c1.2-0.4,1-1.2,0.8-2.1c-1.5-5.9-1-11.5,2.1-16.8
		c0.5-0.9,1-2,1.5-2.9c-0.2-0.1-0.3-0.2-0.5-0.3C71.3,53.5,66.4,65.7,63.6,79z M106.3,65.5c-6.1,0-11.8,1-17,4
		c-0.7,0.4-1.3,1.5-1.2,2.3c0.1,2.1,1.1,4,3.1,4.9c2.9,1.3,6.1,1.5,9.5,1.5C100,72.8,103.2,69.2,106.3,65.5z M120.8,114.3
		c1.3-2.7,2.4-5,3.5-7.5c-5.7-0.4-10.1,2-14.4,5.1C113.5,113.6,117.5,112.8,120.8,114.3z M88.8,118.9c0.7,1.9,1.4,3.5,2.1,5.2
		c0.4,1,0.4,2.4,2.1,2c1.1-0.3,2.3-0.5,3.4-0.9c0.2-0.1,0.4-0.7,0.3-1c-0.5-2.8-1.5-5.4-3.2-7.8C91.8,117.3,90.4,118.1,88.8,118.9z
		 M105,151.1c-1.7-1.5-3.1-2.7-4.4-3.8c-1.8,1.7-3.5,3.4-5.4,5.2c1.8,1.1,3.9,2.3,6,3.5c0.3,0.1,1-0.1,1.2-0.4
		C103.3,154.1,104.2,152.5,105,151.1z M48.7,95.1c-2.1-0.2-4.2,1.9-3.5,4.3c0.9,3.4,2.7,6.5,4.9,9.2c5-2.2,5.4-2.5,5.8-4.1
		c-3.5,2.3-6.7,0.9-7.2-3.2C48.5,99.3,48.7,97.2,48.7,95.1z M207.6,159.5c-4.1-1.4-8.2-2.8-12.3-4.2c-0.3,1-0.6,1.9-0.9,3.1
		c3,1.1,6,2.2,9,3.2C206.3,162.5,206.3,162.5,207.6,159.5z M224.6,149.1c1.3-2.3,2.5-4.4,3.7-6.6c-4.4-0.9-8.7,0.6-10.7,3.7
		C219.9,147.1,222.1,148.1,224.6,149.1z M106.8,94c2.3-2.5,4.6-5,6.9-7.6c-2.4-0.9-5.2-1.9-8.5-3.1C107.2,87.2,107.4,90.5,106.8,94z
		 M118.9,189.8c-4.5,2.7-5.1,6.8-5.5,10.6c2.1-1.2,4.4-2.4,6.5-3.7c0.4-0.3,1-1,1-1.3C120.4,193.6,119.6,191.8,118.9,189.8z
		 M92.3,144.2c0.2,1.4,0.3,3.1,0.6,4.9c0.2,1.4,1.3,1.6,2.2,0.9c1.6-1.2,3.1-2.7,4.6-4c-0.5-0.9-0.7-1.4-1-2
		c-0.3-0.6-0.6-1.2-0.7-1.3C96.2,143.2,94.6,143.6,92.3,144.2z M111.3,189.1c-3.2,1.6-6.1,6.3-5.2,8.9c1.7-0.6,3.4-1.2,5.1-1.8
		c0.2-0.1,0.4-0.1,0.5-0.3C113.4,194.1,113.2,190.6,111.3,189.1z M168.5,195c0.3-1.2,0.7-2.8,1.1-4.4c0.3-1.4-1-2.6-2.2-2.1
		c-2.9,1.2-5.1,4.7-5.1,7.7C164.1,195.9,166.1,195.5,168.5,195z M174,118c-5.7,0.7-9.3,4.4-13.6,6.7c4.3-0.8,8.5-1.6,13-2.5
		C173.6,121.2,173.8,119.8,174,118z M177.1,194.5c-0.4-1.2-0.8-2.4-1.3-3.5c-0.3-0.6-1.1-1.6-1.4-1.5c-0.9,0.3-2.1,0.8-2.4,1.5
		c-0.8,2.3-1.2,4.8-1.8,7.3C172.7,197,174.8,195.8,177.1,194.5z M92.8,134.4c0,2.5,0,5,0.1,7.5c0,0.3,0.9,0.9,1.2,0.8
		c1.2-0.4,2.3-0.9,3.3-1.3c-0.3-2.6-0.6-4.8-0.8-7C95.3,134.4,94.1,134.4,92.8,134.4z M208,132.8c-4.1-0.2-7.9-0.4-11.6-0.6
		c0,0.2-0.1,0.3-0.1,0.5c2.4,1.7,4.8,3.3,7.2,5C205,136.1,206.4,134.6,208,132.8z M225.2,162.8c-3.5-0.7-8.8-1.6-14.1-2.7
		c-2.7-0.5-2.7-0.6-3.9,2.7C213.9,162.8,220.5,162.8,225.2,162.8z M97,126.3c-1.8,0.6-3.4,1.1-5.1,1.7c0.1,1.3,0.3,2.5,0.4,3.8
		c0.1,1.1,0.5,2.1,1.8,1.9c1.3-0.2,2.8-0.2,2.9-2.1C97,129.9,97,128.1,97,126.3z M108.9,158.6c1.1-5.2,0.5-6.6-2.7-7.1
		c-1.1,1.8-2.2,3.5-3.4,5.4C104.9,157.4,106.9,158,108.9,158.6z M83.5,190.9c2.2-3.6,5.3-2.6,8.2-2.4c-0.2-3.4-0.5-3.6-3.5-3
		c-0.6,0.1-1.2,0.2-1.8,0.4C83.5,186.6,83.1,187.3,83.5,190.9z M157.4,153c-0.4-4.2-3.9-4.2-6.7-5c0.1,1.1,0.2,2.6,0.9,2.9
		C153.3,151.9,155.3,152.3,157.4,153z M52.6,74.8c4.9-2.3,5.5-3.8,3.8-9C55.1,68.8,53.9,71.7,52.6,74.8z M151.6,187
		c-0.6-1.4-1.1-2.6-1.6-3.6c-4.2,0.8-4.6,1.2-4.4,3.2C147.5,186.7,149.3,186.8,151.6,187z M106.6,189.6c-0.6-0.1-1.3-0.5-1.6-0.3
		c-1.7,1.2-3.6,2.3-3.9,4.8C104.2,194.2,105.2,191.9,106.6,189.6z M246.9,154.4c0.3-2.8,0-3.1-2.2-2.5c-1.3,0.3-2.5,0.7-3.8,1.1
		c0,0.1,0,0.2,0,0.4C242.9,153.6,244.9,154,246.9,154.4z M53.9,97.9c-1.1-1.1-1.7-1.7-2.4-2.4c-0.5,0.7-1.4,1.3-1.4,2
		c0,0.7,0.7,1.8,1.3,1.9C51.9,99.5,52.7,98.6,53.9,97.9z M191.5,153.9c1,1.1,0.1,3.1,1.9,3.8C194.9,155,194.7,154.7,191.5,153.9z
		 M84.9,183.6c-2.6-0.9-3.4-0.5-4.6,2.6C82.1,185.2,83.4,184.5,84.9,183.6z M110.6,155.2c-0.2,1.5-0.3,2.5-0.5,3.6
		c0.8,0.1,1.4,0.3,2.3,0.4C111.8,157.8,111.3,156.7,110.6,155.2z"/>
	<path d="M82.4,84.4c-6.8,5.2-8.7,12.2-7.1,20.5c-1.2-3.9-2.1-7.8-1-11.9c1.2-4.6,3.2-8.7,7.4-11.2c4.5-2.7,8.2-1.9,11.4,2.3
		c3,3.9,4.3,8.4,5.1,13.1c0.1,0.5-0.2,1.2-0.5,1.7c-0.3,0.5-0.9,0.9-1.2,1.4c-5.2,7.6-14.2,7.8-20.6,6.1c-0.2-0.1-0.4-0.2-0.5-0.8
		c2.1,0,4.3,0.2,6.4,0c5.4-0.6,10.1-2.9,14-6.6c0.4-0.4,0.6-1,0.6-1.7c-1.5,0.9-3,2-4.6,2.8c-4.4,2.2-8.9,0-9.4-4.9
		C81.9,91.6,82.3,88.1,82.4,84.4z M92.1,88.7c0-1.9-1.9-3.9-3.5-3.9c-1.6,0.1-3.1,1.9-3.2,3.7c0,2,1.8,4.1,3.5,4
		C90.5,92.6,92.1,90.7,92.1,88.7z"/>
	<path d="M67.1,117.6c0.9-0.8,1.8-1.8,2-1.6c0.7,0.4,1.4,1.1,1.7,1.9c0.1,0.3-1,1.4-1.5,1.4C68.7,119.2,68.1,118.4,67.1,117.6z"/>
	<path d="M168.8,99.6c-1.7-2-3.7-3.8-5.2-5.9c-2.5-3.6-5.3-7-9.2-9.4C158.3,84.5,166,94.5,168.8,99.6z"/>
	<path d="M170.2,83.6c3.9,2.5,8.2,4.5,11.4,8.1c-3.9-2.6-7.8-5.1-11.8-7.7C170,83.8,170.1,83.7,170.2,83.6z"/>
	<path d="M195.8,55.4c-12.1-0.7-24.2-0.9-36.1,2.1C164.3,54.7,181.4,53.7,195.8,55.4z"/>
	<path d="M180,28c-10.7,2.5-21.3,5.4-31,10.7C153.7,34.6,173.2,27.8,180,28z"/>
	<path d="M188.8,35.2c-3.8,0.7-7.7,1.4-11.5,2.1c0-0.2-0.1-0.4-0.1-0.6c3.9-0.7,7.7-1.3,11.6-2C188.7,34.8,188.8,35,188.8,35.2z"/>
</g>
<g>
	<path d="M51.2,134.8c0.1-0.4,0.2-0.6,0.7-0.6c0.7,0.1,0.9-0.2,1-0.9c0-0.2,0.1-0.3,0.1-0.5c1.1,0.2,1.1,0.1,1.5-1
		c0.1-0.3,0.3-0.6,0.6-0.7c2.1-1.2,4.2-2.3,6.3-3.4c1.7-0.9,3.3-1.8,4.9-2.9c0.4-0.3,0.7-0.5,0.8-0.7c-0.4,0-0.9-0.1-1.4-0.1
		c-1.2,1-2.5,1.5-3.7,2.2c-1.3,0.8-2.6,1.6-3.8,2.4c-1.3,0.8-2.8,1.5-4.2,2.3c-0.4-0.9-0.8-1.8-1.3-2.7c2.8-1.9,5.7-3.5,8.7-5.2
		c-0.3-0.1-0.6-0.3-0.9-0.4c-2.4,1.4-4.7,2.8-7.1,4.3c-0.4,0.2-0.8,0.4-0.9,0.5c-0.5-0.4-0.8-0.9-1.2-0.9c-0.3,0-0.7,0.5-1,0.9
		c-1.6-0.5-0.7,1.2-1.2,1.7c-1.1-0.4-1.1-0.4-1.7,1.3c-0.2,0-0.3,0-0.5,0c-0.9,0-1.1,0.3-1,1.3c0,0.4-0.1,0.8-0.2,1.1
		c-0.4,1.1-1,2.1-1.4,3.2c-0.8,2.1-1.6,4.3-2.2,6.4c-0.4,1.7-1.1,2.9-2.7,3.6c-0.7,0.3-1.3,0.9-2,1c-1.7,0.2-2.7,1.1-3.4,2.5
		c-0.2,0.3-0.4,0.8-0.8,0.9c-1.6,0.7-2.4,2-2.9,3.6c-0.2,0.7-0.7,1.3-1.3,1.7c-0.8,0.6-1.8,1-2.8,1.4c-2.5,0.9-4.3,2.4-4.8,5.2v3.1
		c0.4,1.1,0.9,2.1,1.8,2.7c0.2,0.1,0.3,0.4,0.3,0.6c0.5,4.2,1,8.4,2,12.5c1.3,5.6,2.5,11.1,3.9,16.7c0.4,1.6,1.1,3.2,1.8,4.8
		c1.3,2.8,3.7,4.1,6.6,4.7c1.5,0.3,3,0.3,4.6,0.5c0.3,0,0.5,0.1,0.8,0.1h6.1c0.1,0,0.3-0.1,0.4-0.1c1.3-0.3,2.7-0.5,4-1
		c1.9-0.8,3.7-1.8,4.6-3.9c1.5-4,2.3-8.2,2.9-12.4c0.6-4,1.2-8,2-12c0.6-3.2,1.5-6.4,1.6-9.6c0-0.8,0.2-1.5,0.9-2.1
		c1.5-1.5,1-4.2-0.8-5.3c-0.8-0.5-1.5-0.9-2.3-1.4c-0.2-0.2-0.4-0.5-0.5-0.7c-0.8-1.9-1.4-3.9-3.4-5.1c-0.3-0.2-0.5-0.7-0.7-1
		c-0.3-0.4-0.7-0.9-1.1-1c-1.7-0.4-2.8-1.3-3.4-3c-0.4-1.2-1.3-1.9-2.5-2.1c-1-0.2-1.9-0.6-2.3-1.7c-0.2-0.3-0.6-0.5-0.9-0.7
		c-0.4-0.2-0.8-0.3-1.2-0.4c0.7-3.1,1.6-6.1,3-8.9C50.7,136.1,50.9,136,51.2,134.8z M51.3,127.7c1.5,1.1,2.1,2.7,2.5,4.4
		c-0.1,0.1-0.2,0.1-0.3,0.2c-0.2-0.2-0.4-0.4-0.6-0.7c-0.5-0.7-0.9-1.5-1.4-2.2C51,128.8,51,128.3,51.3,127.7z M50.1,129.4
		c0.7,0.7,1.4,1.5,2.1,2.2c-0.6-0.8-1.1-1.6-1.8-2.6c0.3,0.1,0.5,0.1,0.6,0.2c0.6,0.8,1.2,1.7,1.8,2.6c-0.2,0-0.3,0.1-0.5,0.1
		c-0.1,0.4-0.2,0.8-0.4,1.3c-0.8-1.1-1.5-2.1-2.3-3.1C49.8,130,49.9,129.7,50.1,129.4z M51.5,133.2c-0.4,0-0.6,0.1-0.8,0.1
		c-0.6-1-1.3-2.1-1.9-3.1C49.9,130.9,50.4,132.2,51.5,133.2z M48.3,130.4c0.9,1.1,1.7,1.9,2.4,2.8c0,0,0,0,0,0
		c-0.1,0.4-0.4,0.4-0.6,0.1c-0.6-0.6-1.2-1.1-1.8-1.8C48.1,131.4,48.3,130.9,48.3,130.4z M48.7,132.9c-0.5-0.5-1.1-0.9-1.6-1.4
		C47.9,131.4,47.9,131.4,48.7,132.9z M26.1,177.5c0.1,0,0.1,0,0.2,0c-0.2-0.4-0.4-0.7-0.7-1.2c1.4,0.7,1.5,0.9,0.6,2.7
		C26.2,178.5,26.1,178,26.1,177.5z M27.4,176.7c0.4,0.1,0.9,0.2,1.4,0.3c-0.2,1-0.4,1.9-0.7,2.9c-0.2,0.7-0.8,0.2-1.2,0.2
		c-0.1,0-0.4-0.4-0.4-0.5C26.8,178.7,27.1,177.7,27.4,176.7z M26.5,180.5c0.6,0,1,0.1,1.6,0.1c-0.3,0.9-0.5,1.7-0.8,2.6
		C27,182.3,26.8,181.4,26.5,180.5z M30.2,196.6c-0.9-3.9-1.8-7.7-2.6-11.6c-0.3-1.2,0.3-2.3,0.8-3.3c1.5-2.6,3.7-4.6,6.9-5
		c0.1,0,0.2,0,0.3,0c0.1,1.3,0.3,2.6,0.4,3.9c-0.2,0-0.5,0-0.8,0c-2.5-0.1-4.7,1.6-5.2,4c-1.1,4.5,0.3,8.3,3.4,11.5
		c1.1,1.1,2.4,2.1,3.6,3c1.2,0.9,2.4,0.4,3.5-0.2c2.3-1.3,3.8-3.3,5-5.6c0.9-1.8,1.8-3.6,2-5.6c0.1-0.5,0-1,0.1-1.5
		c0.5-3.7-2.1-6.1-5.6-6.1c-1,0-2,0.1-3,0.1c-0.2,0-0.4,0-0.8,0c0.1-1.1,0.3-2.1,0.4-3.2c0.1-0.4,0.3-0.6,0.7-0.5
		c5,0.4,8.7,2.2,10.8,7.4c1,2.5,1.4,5.2,0.9,7.8c-0.5,2.8-2,5.1-4.3,6.8c-0.5,0.4-1.1,0.8-1.6,1.2c-1.6,1.1-3.4,1.9-5.3,2
		c-2.1,0.1-4.3,0.4-6.3-0.8C31.9,200,30.6,198.6,30.2,196.6z M29,177c0.5,0.3,0.9,0.5,1.3,0.7c-0.2,0.3-0.4,0.6-0.6,0.9
		C28.8,178.5,28.9,177.9,29,177z M39.4,182.4c0-0.1,0-0.1,0-0.2c-0.4-0.1-0.8-0.1-1.3-0.2c0-0.4,0.1-0.8,0.1-1.2h1.9
		c0.2,1.3,0.7,1.6,1.7,1.2c-0.3-0.1-0.7,0-0.9-0.2c-0.2-0.1-0.3-0.4-0.3-0.6c0,0,0.3-0.3,0.4-0.2c1.9,0.1,3.7,0.4,4.9,2.2
		c0.7,1.1,0.7,2.2,0.5,3.3c-0.5,4.6-2.5,8.4-6.2,11.2c-1.5,1.1-2.4,1-3.8-0.2c-0.3-0.3-0.6-0.6-1-0.9c-0.5-0.4-0.6-0.7-0.1-1.2
		c0.6-0.5,1.2-0.5,1.5-0.1c0.2,0.2,0.3,0.5,0.5,0.9c0-0.7-0.1-1.2-0.7-1.5c-0.7-0.3-1.3,0.1-2,1.2c-2.4-2.4-4-5.1-3.9-8.7
		c0-0.8,0.1-1.5,0.2-2.3c0-0.2,0.3-0.6,0.4-0.6c0.3,0,0.7,0.1,0.9,0.3c0.9,1,0.6,2.2-0.6,3.1c0.9,0,1.5-0.7,1.7-1.7
		c0.1-1.2-0.6-2.1-1.7-2.3c0.3-1.2,1.7-2.6,3-1.9c-0.2,0.3-0.4,0.6-0.6,0.8l0.1,0.1c0.2-0.2,0.6-0.5,0.7-0.8
		c0.1-0.2-0.1-0.6-0.2-0.9c0.4,0,1-0.1,1.6-0.2c0.2,0.4,0.3,0.8,0.5,1.1c-0.2,0.1-0.5,0.2-0.8,0.3H39.4z M37.8,178.1
		c0,1.3,0,2.6,0,4c-0.8,0.2-0.9,0.1-1-0.7c-0.1-1.4-0.2-2.9-0.1-4.3c0-0.7,0.3-1.4,1-1.7c0.2-0.1,0.5-0.1,0.8-0.1
		c0,0.1,0.1,0.2,0.1,0.2C37.7,176.1,37.7,177.1,37.8,178.1z M48.9,180.1c-0.3-0.6-0.6-1-0.9-1.4c0.5,0.1,0.9,0.1,1.3,0.1
		C49.2,179.2,49.1,179.5,48.9,180.1z M49.6,179c0.3-0.2,1-0.1,1.5-0.1c-0.2,0.6-0.3,1-0.4,1.4c-0.1,0.4-0.1,0.7-0.2,1.2
		c-0.8,0-1.1-0.7-1.3-1.2C49.1,180,49.3,179.3,49.6,179z M47.7,200.8c0-0.1,0.1-0.1,0.1-0.2c0.2,0.2,0.4,0.3,0.6,0.5
		c0.2,0.3,0.3,0.6,0.5,0.9c0,0,0,0,0,0c-0.1,0.4-0.2,0.7-0.3,1.1c-0.1,0.6-0.7,0.8-1.5,0.6c-0.1,0-0.2-0.2-0.3-0.2
		c-1,0.1-1.2-0.2-0.8-1.2c0.2-0.4,0.3-0.9,0.5-1.3c0.1-0.2,0.4-0.5,0.5-0.5c0.2,0,0.4,0.3,0.5,0.5c0.3,0.6,0.6,1.3,0.9,1.9
		C48.2,202.2,48,201.5,47.7,200.8z M48.8,202c-0.1-0.4-0.1-0.8-0.2-1.2c0.2,0,0.5,0,0.8,0.1C49.2,201.3,49,201.6,48.8,202z
		 M49.7,201.1c0-0.1,0.3-0.1,0.4-0.1c0.6,0.1,1.2,0.2,1.8,0.3c-0.1,0.8-0.2,1.6-0.2,2.4c-1.1,0.1-2.1,0.1-3.1,0.2
		C49,202.8,49.3,201.9,49.7,201.1z M45,203.6c-1-0.1-1.9-0.2-2.9-0.3c0.3-0.7,0.6-1.2,1.3-1.5c1-0.4,1.9-0.9,2.8-1.4
		C45.9,201.5,45.5,202.5,45,203.6z M39.8,203.1c-0.5,0.4-1.1-0.1-1.7-0.2h1.7C39.8,202.9,39.8,203,39.8,203.1z M51.2,206.4
		c-3.4,0.7-6.9,0.4-10.3,0.1c-1.6-0.2-3.2-0.4-4.7-0.9c-2.4-0.8-3.9-2.6-4.6-5.3c0.4,0.3,0.6,0.5,0.8,0.7c1.2,1,2.5,1.6,4,1.7
		c0.2,0,0.3,0,0.4,0.1c1.6,0.8,3.4,1,5.2,1.3c2.5,0.4,4.9,0.7,7.4,0.5c2.3-0.2,4.6-0.6,7.1-1C55,205.2,53.2,206,51.2,206.4z
		 M54.6,203.4c-1.3,0.1-1.1-1.3-2.1-1.7c0.4,0.7,0.7,1.2,1,1.7c-1-0.4-1.4-1-1.2-2c0.6,0,1.3-0.4,1.7,0.5v-0.6
		C55,201.8,54.3,202.7,54.6,203.4z M56.3,203.2c-0.4,0.1-0.9,0.2-1.5,0.3c0-0.8,0.1-1.5,0.1-2.3c0.7-0.1,1.3-0.3,2-0.4
		C56.7,201.6,56.5,202.4,56.3,203.2z M56.9,200.3c-1.8,0.1-3.6,0.1-5.4,0c-1.2,0-2.4-0.2-3.6-0.3c-0.3,0-0.6,0-1-0.1
		c0.9-0.8,1.6-1.4,2.5-2.2c0.2,0.3,0.4,0.6,0.6,0.9c0.2,0.2,0.4,0.4,0.6,0.4c1.4,0.1,2.9,0.2,4.3,0.3c0.5,0,1.1,0.2,1.6,0.1
		c0.3,0,0.7-0.3,1-0.5c0.3-0.1,0.5-0.2,0.8-0.4C58.2,199.9,58,200.2,56.9,200.3z M58.6,198c0,0.1-0.1,0.2-0.2,0.3
		c-0.6,0.2-1.3,0.4-2,0.6c-0.2,0-0.4,0-0.6,0c-0.9-0.1-1.7-0.2-2.6-0.3c-0.5-0.1-0.9-0.1-1.4-0.1c-0.4,0-0.7,0-1.1,0
		c-0.2,0-0.4,0-0.5-0.1c-0.3-0.2-0.5-0.5-0.7-0.8c0.3-0.3,0.6-0.7,0.9-1c0.3,0.3,0.5,0.6,0.9,0.8c0.1,0.1,0.5,0,0.6-0.2
		c0.4-0.4,1.6-0.5,1.9-0.3c0.5-0.2,0.8-0.4,1.1-0.5c0.1,0,0.3,0,0.4-0.1c0.9-0.9,2-0.9,3.1-0.3c0-0.1,0-0.1,0-0.2
		c-0.4-0.2-0.8-0.4-1.4-0.7c0.8-0.4,1.5-0.7,2.5-1.2C59.2,195.3,58.9,196.7,58.6,198z M60.8,184.9c-0.3,2.2-0.7,4.5-1,6.7
		c-0.3,1.8-0.3,1.8-1.9,2.2c-0.8,0.2-1.6,0.7-2.5,1c-1,0.4-2.1,0.7-3.1,1.1c-0.3,0.1-0.6,0.4-1,0.7c-0.2-0.1-0.5-0.2-0.8-0.3
		c0.4-1,0.9-2,1.4-3.1c0.5,0.4,1,0.7,1.5,1l0.1-0.2c-0.5-0.4-1-0.7-1.7-1.2c0.3-0.4,0.6-0.9,1.1-1.3c1-0.8,2-1.4,3-2.1
		c0.6-0.5,1.2-0.5,1.9,0c0.2,0.2,0.5,0.3,0.9,0.3c-0.4-0.3-0.8-0.6-1.2-0.9c0.3-0.1,0.6-0.2,1-0.4c0-0.1,0-0.1,0-0.2
		c-0.7,0.1-1.5,0.1-2.3,0.2c0.1-0.3,0.1-0.7,0.2-1c-0.2,1.6-1.9,1.7-2.8,2.8c0.1-0.8,0.1-1.5,0.2-2.1c-0.6,0.9,0,2.3-1.3,3
		c-0.1-1.3-0.1-2.6-0.3-4c-0.1-0.6,0.5-1.5,1.1-1.6c0.2,0,0.4,0,0.6-0.1c0.2-0.1,0.4-0.2,0.5-0.3c0.4,0.1,0.7,0.2,0.9,0.3
		c0.1,0.5,0.2,1,0.4,1.5c0,0.1,0.5,0.1,0.5,0c0.1-0.3,0.2-0.7,0.3-1c-0.1,0-0.1,0-0.2-0.1c-0.1,0.2-0.1,0.5-0.2,0.8
		c-0.6-0.4-0.4-0.9-0.2-1.4c0.2-0.4,0.5-0.6,1-0.4c1.1,0.4,2.2,0.8,3.3,1.1c-1.1-0.9-2.2-1.7-3.5-2c-0.4-0.1-0.8,0.2-1.3,0.4
		c-1.5-0.4-2.3,0.6-3.2,1.5c-0.4-1.2-0.9-2.4-1.3-3.7c3.5,0.6,7,1,10.5-0.4C61,183,60.9,183.9,60.8,184.9z M54.4,182
		c-0.5,0-1.2-0.1-1.8-0.1c0.3-0.9,0.5-1.6,0.8-2.4h1.8C54.9,180.3,54.7,181.1,54.4,182z M55.9,179.5c0.7-0.1,1.4,0.7,1.3,1.5
		c0,0.3-0.1,0.6-0.2,1.1c-0.4-0.1-0.7-0.2-1.1-0.2c-0.3,0-0.6,0-1,0c0.1-0.3,0.1-0.7,0.2-1C55.3,180.3,55.2,179.6,55.9,179.5z
		 M52.4,181.7c-0.1,0.1-0.4,0.2-0.5,0.1c-0.3-0.2-0.7-0.4-0.7-0.7c0-0.6,0.1-1.3,0.2-2C52.5,179.5,53,181,52.4,181.7z M57.3,182.2
		c0.2-1,0.4-1.8,0.6-2.7c0-0.1,0.2-0.3,0.4-0.3c0.6-0.1,1.2-0.2,2-0.4c-0.3,1.1-0.5,2.1-0.8,3.1c0,0.1-0.3,0.3-0.5,0.3
		C58.4,182.2,57.9,182.2,57.3,182.2z M61.4,180.7c0,0.5-0.2,1-0.7,0.9c-0.3,0-0.5-0.7-0.6-1c0-0.6,0.1-1.1,0.3-1.7
		c0-0.1,0.5-0.2,0.6-0.2c0.3,0.3,0.5,0.7,0.6,1C61.5,180.2,61.4,180.5,61.4,180.7z M62.3,176c0,0.1,0,0.2,0,0.3
		c-0.2,1.7-0.2,1.6-1.9,1.9c-3.6,0.6-7.3,0.4-10.9-0.2c-0.3-0.1-0.7-0.1-1-0.1c-1.1,0-2.2-0.3-3.2-0.8c-1.7-0.7-3.4-1.1-5.3-1.6
		c0-0.9-0.7-1.4-1.6-1.6c-1-0.2-1.8,0.3-2.2,1.1c-0.3,0.5-0.7,0.6-1.2,0.8c-1.2,0.3-2.3,0.8-3.4,1.1c-0.4,0.1-0.9,0.1-1.3,0
		c-1.2-0.3-2.4-0.6-3.6-0.9c-0.8-0.2-1.1-0.6-1.3-1.4c-0.2-1.6-0.6-3.2-1-4.8c-0.1-0.3-0.1-0.5-0.2-0.9c0.1,0,0.2,0,0.2,0
		c1.8,1.1,3.8,1.3,5.8,1.6c3.8,0.5,7.6,1,11.4,1.5c0.9,0.1,1.8,0.2,2.7,0.2c3.3,0,6.6,0.1,9.8-0.1c3.1-0.2,5.9-1.1,8.5-2.9
		c0.5-0.3,0.9-0.7,1.3-1c0.1,0.1,0.2,0.1,0.2,0.2C63.6,171,63,173.5,62.3,176z M63.7,161.8c2,0.8,2.5,3.3,1,4.7
		c-3.2,2.9-6.9,4.7-11.3,4.7c-2.7,0-5.4,0.1-8.1,0c-2.6-0.1-5.1-0.4-7.7-0.7c-2.8-0.3-5.6-0.7-8.3-1.2c-1.5-0.2-3-0.5-4.3-1.3
		c-0.4-0.2-0.8-0.5-1.2-0.7c0.2-0.2,0.3-0.4,0.5-0.6c0,0,0-0.1-0.1-0.1c-0.2,0.2-0.4,0.3-0.6,0.5c-1.5-1.2-1.3-2.9-1.2-4.5
		c0.1-2.2,1.4-3.7,3.2-4.7c0.1,0.1,0.1,0.1,0.2,0.2c-0.2,0.2-0.5,0.4-0.7,0.6c-0.5,0.6-1.2,1.1-1.6,1.7c-0.8,1.4-0.5,3,0.9,3.8
		c1.3,0.7,2.7,1.2,4.1,1.7c3.4,1.2,7,1.7,10.6,2.1c4.3,0.5,8.6,0.5,12.8,0.5c3,0,5.9-0.7,8.7-1.9c0.6-0.3,1.2-0.5,1.8-0.8
		C64.1,164.8,64.4,163.6,63.7,161.8z M47.8,146.1c0,0,0.1,0.1,0.1,0.1c0.6,1.3,1.7,1.8,3,2.1c0.9,0.2,1.5,0.7,1.8,1.5
		c0.3,0.6,0.6,1.3,0.9,1.8c0.6,0.9,1.7,1.2,2.7,1.6c0.4,0.1,0.6,0.5,0.9,0.8c0.3,0.4,0.6,0.9,1,1.1c1.7,1.1,2.5,2.8,3.4,4.6
		c0.4,0.8,0.7,1.7,1.1,2.6c0,0,0.1-0.1,0.2-0.3c0.6,0.7,0.5,2-0.2,2.4c-1.3,0.7-2.6,1.5-4,1.9c-1.8,0.6-3.7,0.9-5.5,1.2
		c-1.1,0.2-2.2,0-3.3-0.1c-0.6,0-1.1,0.1-1.7,0.1c-2.3-0.1-4.7,0-7-0.2c-4.4-0.5-8.8-0.9-13-2.5c-1.1-0.4-2.4-0.6-3.3-1.5
		c-1.2-1.2-1.1-2.7,0.4-3.8v2.3c0,0,0.1,0,0.1,0c0.1-0.5,0.1-0.9,0.2-1.4c0.2-1.7,1.1-2.8,2.7-3.2c1.6-0.4,2.5-1.4,2.9-2.9
		c0.4-1.3,1.1-2.3,2.4-2.9c0.5-0.2,0.9-0.8,1.2-1.3c0.6-1.1,1.3-1.8,2.7-2c0.8-0.1,1.6-0.7,2.3-1.1c0.4-0.2,0.8-0.6,1.3-1
		c-0.3,1.1-0.5,1.9-0.7,2.9c-0.1-0.2-0.1-0.3-0.1-0.4c0,0-0.1,0.1-0.1,0.1c-0.2,0.6,0,1,0.5,1.4c0.2,0.2,0.4,0.3,0.7,0.4
		c1.1,0.4,2.3,0.5,3.3,1.3c0.4,0.4,1.3,0.3,1.9,0.2c-0.6-0.2-1.2-0.4-1.9-0.7c0.2-0.8,0.4-1.5,0.7-2.2c0.2-0.8,0.5-1.7,0.8-2.5
		c0.1-0.3,0.3-0.9,0.5-0.8C46.9,145.7,47.3,145.9,47.8,146.1z M48.6,135.2c-1.7,3.4-2.6,7.1-3.3,10.8c-0.3,1.6-0.7,3.1-1,4.5
		c-1.2-0.3-2.3-0.6-3.5-0.9c1.8-5.7,3.2-11.5,5.6-16.5c0.7,0.6,1.4,1.1,2.1,1.7C48.6,134.8,48.7,135.1,48.6,135.2z M47,132.5
		c-0.2-0.1-0.1-0.5-0.2-0.8c1.1,1,2.2,1.9,3.3,2.8C48.3,135,47.9,133.3,47,132.5z"/>
	<path d="M33.3,165.2c3.5,0.4,7.1-0.1,10.6,1.3c-0.3,0.1-0.3,0.1-0.4,0.1c-1.8-0.1-3.6-0.2-5.4-0.5c-1.4-0.2-2.8-0.5-4.2-0.8
		C33.7,165.3,33.5,165.2,33.3,165.2z"/>
	<path d="M45.7,164.1c-0.9,0.5-2.1,0.5-3.1,0c-0.9-0.5-0.8-2,0.1-2.4c0.6-0.3,1.3-0.4,2-0.5c-0.5,0.2-0.9,0.4-1.4,0.6
		c-0.5,0.2-0.9,0.6-0.7,1.2c0.1,0.3,0.5,0.7,0.8,0.8C44.2,164,45,164,45.7,164.1z"/>
	<path d="M35.7,154.4c0.2,1.2,0.9,1.7,2.1,1.5c1-0.2,2.1-0.4,3.1-0.5c0.2,0,0.5,0,0.7,0c-1.2,0.7-3.5,1.2-4.6,1.1
		C35.9,156.4,35.3,155.5,35.7,154.4z"/>
	<path d="M60.1,163.7c-0.6,1.2-1.4,1.7-2.8,1.3c-1-0.3-1.8-0.2-2.7,0.2c-0.1,0.1-0.3,0.1-0.6,0.2c1.1-0.9,2-1.3,3.3-1
		C58.2,164.6,59.3,164.7,60.1,163.7z"/>
	<path d="M35.3,160.8c-1.8,0.4-3.5-0.3-4.3-1.8c-0.4-0.7,0-1.5,1-2.1c-0.2,0.3-0.3,0.4-0.4,0.5c-0.5,0.8-0.4,1.1,0.3,1.7
		C32.8,160,33.8,160.8,35.3,160.8z"/>
	<path d="M56.4,155.4c1.4,0.5,2,1.5,2,2.7c0,0.4,0.2,0.8,0.4,1.2c0.2,0.5,0.4,0.9,0.4,1.4c-0.4-0.5-0.8-1-1.1-1.5
		c-0.1-0.2-0.3-0.4-0.3-0.7C57.5,156.7,57.6,156.7,56.4,155.4z"/>
	<path d="M49,153.1c1.1-0.7,2.3-0.7,3.6-0.3c0.1,0,0.3,0.1,0.3,0.2c0.2,0.4,0.6,0.8,0.6,1.3c0,0.2-0.6,0.5-0.9,0.7
		c0-0.1-0.1-0.1-0.1-0.2c0.2-0.2,0.5-0.3,0.7-0.5C52.6,153.1,51.6,152.8,49,153.1z"/>
	<path d="M29.5,160.2c-0.3,1.4,0.1,2.4,1.5,3.1C29.3,163.2,28.6,161.6,29.5,160.2z"/>
	<path d="M38.1,162.7c-0.2,0.3-0.3,0.9-0.6,1c-0.4,0.1-1,0-1.3-0.3c-0.4-0.3,0-1.2,0.6-1.8c0.2,0.6-1,1.3,0.1,1.8
		c0.6,0.2,0.9-0.1,0.9-0.8C37.9,162.6,38,162.6,38.1,162.7z"/>
	<path d="M54,162.7c-0.6,1.1-2.3,1.3-3.8,0.2C51.6,163.2,52.8,163.5,54,162.7z"/>
	<path d="M35.1,150.8c-0.6,1.5-0.5,1.5,0.7,2c-0.6,0.2-1.2,0-1.4-0.4C34.2,151.9,34.5,151.3,35.1,150.8z"/>
	<path d="M52.4,158.1c-0.1,0.3-0.1,0.7-0.2,1c-0.1,0.2-0.7,0.2-0.8,0.1c-0.3-0.3-0.4-0.7-0.5-1c0.3,0.2,0.6,0.5,0.9,0.7
		c0.2-0.3,0.3-0.5,0.5-0.8C52.3,158.1,52.3,158.1,52.4,158.1z"/>
	<path d="M42.8,157.5c-0.1,0.2-0.2,0.6-0.3,0.6c-0.4,0-0.9,0-1.3-0.2c-0.2-0.1-0.2-0.6-0.2-1c0.1,0.6,0.3,1,1,1
		C42.2,157.8,42.5,157.6,42.8,157.5z"/>
	<path d="M49.8,174.3c0,0.6,0,1.2,0,1.8c0.1,0,0.2,0,0.3,0c0.1-0.4,0.1-0.8,0.2-1.2c0.1,0,0.1,0,0.2,0c0,0.4,0.1,0.9,0,1.3
		c0,0.2-0.4,0.4-0.6,0.4c-0.2,0-0.5-0.3-0.6-0.5C49.2,175.5,49.3,174.9,49.8,174.3z"/>
	<path d="M33.2,173.8c0.1-0.2,0.2-0.3,0.3-0.5c0.1,0,0.1,0.1,0.1,0.1c-0.1,0.3-0.1,0.5-0.3,0.7c-0.1,0.1-0.5,0-0.6-0.1
		c-0.4-0.5-0.1-0.9,0.3-1.4c0,0.5,0,0.8-0.1,1.2C33.1,173.8,33.1,173.8,33.2,173.8z"/>
	<path d="M28.8,183c0,0.4,0,0.9,0,1.3c0.1,0,0.1,0,0.2,0c0.1-0.3,0.1-0.5,0.2-0.8c0.1,0,0.1,0,0.2,0c0,0.3,0,0.7-0.1,1
		c0,0.1-0.3,0.3-0.4,0.3c-0.2,0-0.4-0.2-0.4-0.4c0-0.5,0-1,0.1-1.4C28.6,183,28.7,183,28.8,183z"/>
	<path d="M34.6,189.6c-0.9,0.5-1.3,1.4-0.9,2.1c0.2,0.5,1,0.7,2,0.3c-0.5,0.6-1.2,0.8-1.9,0.4c-0.6-0.3-0.8-1-0.6-1.8
		C33.4,190,33.9,189.6,34.6,189.6z"/>
	<path d="M43.2,185.5c0.6-0.1,1.2-0.4,1.1-1c-0.1-1.2-1.1-1.3-2.1-1.4c1.1-0.3,1.8-0.2,2.2,0.4c0.4,0.5,0.4,1,0.1,1.6
		C44.2,185.6,43.8,185.7,43.2,185.5z"/>
	<path d="M37.6,184.1c-0.9,0.3-1.6,1-1.4,1.5c0.2,0.7,0.9,0.7,1.5,0.7c-0.5,0.3-1,0.3-1.5-0.1c-0.4-0.3-0.5-0.7-0.3-1.2
		C36.3,184.2,36.8,184,37.6,184.1z"/>
	<path d="M41.3,193.8c0.4,0.7,0.3,1.8-0.2,2.2c-0.5,0.4-1.1,0.4-1.6,0c-0.2-0.1-0.2-0.5-0.1-0.8c0,0.8,0.6,0.7,1,0.7
		C41,195.8,41.3,195.2,41.3,193.8z"/>
	<path d="M43.8,188.8c-0.7,0.3-1.3,0.8-1.2,1.5c0,0.4,0.6,0.7,0.9,1.1c-0.6,0.1-1.3-0.3-1.3-1C42,189.6,42.8,188.8,43.8,188.8z"/>
	<path d="M38.2,189.2c-0.2,1.6,0,1.8,1.3,2c-0.7,0.4-1.1,0.1-1.5-0.3C37.6,190.4,37.7,189.7,38.2,189.2z"/>
	<path d="M45.2,143.2c0.1-0.2,0.1-0.4,0.2-0.6c0.1,0,0.1,0,0.2,0c-0.1,0.3-0.1,0.6-0.3,0.9c0,0-0.4,0-0.4,0
		c-0.1-0.4-0.1-0.9-0.2-1.3c0.1,0,0.2,0,0.2,0c0,0.3,0,0.7,0.1,1C45,143.2,45.1,143.2,45.2,143.2z"/>
</g>
</svg>
