<?xml version="1.0" encoding="utf-8"?>
<!-- Generator: Adobe Illustrator 17.1.0, SVG Export Plug-In . SVG Version: 6.00 Build 0)  -->
<!DOCTYPE svg PUBLIC "-//W3C//DTD SVG 1.1//EN" "http://www.w3.org/Graphics/SVG/1.1/DTD/svg11.dtd">
<svg version="1.1" id="Layer_1" xmlns="http://www.w3.org/2000/svg" xmlns:xlink="http://www.w3.org/1999/xlink" x="0px" y="0px"
	 viewBox="0 0 288 216" enable-background="new 0 0 288 216" xml:space="preserve">
<g>
	<path d="M20.9,27.6c1.6,0,3.2-0.3,4.7-0.1c3.2,0.4,6.4,1,9.7,1.6c0.1-0.5,0.3-1,0.5-1.5c0,0,0.1,0.1,0.1,0.1
		c-0.3,1.5,0.5,1.9,1.8,2.1c1.7,0.3,3.4,0.9,5.1,1.4c0.3-0.5,0.6-0.9,0.9-1.3c0.1,0,0.1,0.1,0.2,0.1c-0.2,0.4-0.4,0.9-0.6,1.4
		c7.8,2.9,15.8,5.4,21.4,12.2c0.3-0.3,0.6-0.6,1-0.9c-1.6,1.7,0.5,3.2,0.2,4.9c0,0.1,0.6,0.5,0.9,0.5c1.1,0.1,2.2,0,3.3,0.2
		c-1.3,0.1-2.6,0.3-3.9,0.4c-0.3,2.4-0.4,4.7-0.9,7c-1.2,5.5-2.6,11.1-3.9,16.6c-0.8,3.5-1.7,6.9-2.6,10.4c-0.4,1.4,0,2.7,0.8,3.7
		c1.6,1.8,3.2,3.6,4.9,5.3c0.9,0.9,1.9,1.7,2.9,2.5c0.6,0.6,1.1,1,2,0.3c-0.2,0.3-0.4,0.5-0.6,0.9c1.5,0.6,2.2,2.9,4.5,2.1
		c-0.3,0.2-0.6,0.3-0.9,0.5c2.6,2.7,14.4,10.3,18.1,11.7c1.8-3.4,4.4-6.1,7.3-8.7c5-4.5,10.6-8.3,16.5-11.7c1.6-0.9,3.2-1.8,5-2.8
		c-1.4,0-2.6,0-3.7,0c0-0.1-0.1-0.2-0.1-0.3c2.3-0.8,4.6-1.7,6.9-2.5c-0.5-0.1-1.1-0.1-1.9-0.2c1.3-0.5,2.3-0.9,3.3-1.3
		c0,0,0-0.1,0-0.1c-0.7,0-1.3,0-2.3,0c3.1-0.6,5.9-1.2,8.7-1.8c0-0.1-0.1-0.3-0.1-0.4c-1.8,0.3-3.6,0.5-5.5,0.8c0-0.1,0-0.2,0-0.2
		c1.3-0.2,2.6-0.5,3.9-0.7c0-0.1,0-0.2,0-0.2c-1.7-0.3-3.5-0.7-5.2-1c3.3-0.4,6.3,1.7,9.6,0.4c-1.1-0.1-2.1-0.2-3.2-0.3
		c3.1-0.3,5.8-1.9,8.9-2.2c3.1-0.3,6.1-1.1,9.3-1.9c-0.7,0-1.4-0.1-2.1-0.1c-1,0-1.9-0.1-2.4-1.3c-0.4-0.9-1.6-1.1-2.3-0.4
		c-0.9,1-1.6,0.4-2.5,0c-2.3-1.2-3.9-2.8-4.3-5.4c-0.5-3.1,0-5.9,1.8-8.4c0.8-1.1,1.9-2.1,2.9-3c2.6-2.4,5.7-2.3,8.9-1.5
		c0.5,0.1,1,0.1,1.5,0c1.7-0.2,3.4-0.7,5.1-0.8c3.2-0.1,3.7,0.3,4.9,3.2c0.3,0.7,0.2,1.1-0.5,1.5c-0.3-0.5-0.5-1-0.8-1.4
		c-0.5-0.7-1-1.6-1.8-1.9c-1.9-0.7-4-0.4-5.7,0.2c2.2,2.9,4.4,5.7,6.5,8.5c0.9-0.4,1.9-0.8,2.9-1.3c-0.4-1.3-0.8-2.7-1.1-4.2
		c0.6-0.2,1,0,1.2,0.6c0.3,0.9,0.7,1.7,0.9,2.5c0.2,1,0.7,1.4,1.7,1.5c2.8,0.3,5.1,1.6,7.1,3.5c0.6-1.9,1.2-3.9,1.9-5.7
		c2.4-6.7,7.2-10.8,14.2-11.9c5.3-0.8,10.5,0.4,13.1,5.4c1.9,3.5,1.4,7.2,0.4,10.9c-0.3,1.1-0.7,2.1-1.1,3.1c-0.1,0.3-0.2,0.7-0.2,1
		c0.7,4.4-2,8.3-5.4,9.4c-0.1,0-0.1,0.1-0.3,0.3c0.9,0.3,1.7,0.6,2.5,0.8c5.2,1.5,10.4,3,15.6,4.4c5.9,1.7,11.9,3.3,17.8,4.9
		c6,1.6,11.9,3.3,17.9,4.9c0.8,0.2,1.7,0.1,2.5,0c1-0.1,2-0.5,2.9-0.4c2.8,0.4,4.5-1.4,6.5-2.9c1-0.7,1.9-1.4,3-2
		c-1.8,1.6-3.6,3.1-5.5,4.7c2.8,1.1,5.4,0.8,8.2,0.4c1.8-0.3,3.6-0.5,5.5-0.5c-2.8,0.5-5.6,1-8.5,1.4c1,1,2.1,1.8,2.9,2.8
		c1.8,2.4,1.4,4.2-0.9,6c-4.6,3.6-9.8,4.4-15.4,3.1c-0.9-0.2-1.4,0-2,0.5c-1.9,1.4-3.8,2.7-5.9,3.9c2-1.6,3.9-3.1,6-4.8
		c-1.1-0.7-2.1-1.1-3.4-0.7c-3.3,1-6.7,1.9-10.1,2.9c-0.2,0.1-0.5,0.1-0.7-0.1c3.7-1.2,7.3-2.4,11.3-3.6c-2.8,0.2-5.3,0.6-7.8,0.7
		c-3.7,0.1-7.5,0.2-11.2,0.1c-2.4-0.1-4.9-0.4-7.3-0.6c-5.6-0.5-11.1-1.6-16.5-3c-0.3-0.1-0.7-0.1-1,0c-2.6,0.8-5.2,1.8-7.9,2.5
		c-5.3,1.4-10.7,2.6-16.1,4c-0.3,0.1-0.7,0.2-1.2,0.4c0.7,0.4,1.3,0.8,1.9,1.2c0.4-1.1,1.1-2,2.3-1.8c1.9,0.4,2.1,2.1,2.5,3.5
		c0.3,0.1,0.6,0.2,0.9,0.3c2,0.7,3.8,0.7,5.5-0.8c0.7-0.7,1.7-1,2.5-1.6c1.7-1.4,3.6-1.4,5.7-0.9c11.4,2.8,22.9,5.6,34.3,8.4
		c0.5,0.1,0.8,0.5,1.3,0.8c-0.3,0.4-0.5,0.9-0.9,1.2c-0.6,0.6-1.4,1.2-2.1,1.8c0,0.1,0.1,0.3,0.1,0.4c1.8,1.8,1.7,4-1.7,4.6
		c-1,0.2-1.8,0.2-1.9,1.5c0,0.5-0.6,0.9-1,1.4c0.7,0.2,1.5,0.3,2.2,0.6c1.4,0.5,1.8,1.7,0.9,2.8c-1.5,1.9-3.6,2.5-5.9,2.6
		c-0.6,0-1.4-0.8-2-1.3c-1-0.9-1.8-1.9-2.8-2.7c-1.3-1-2.6-1.3-4.2-0.3c-2.8,1.7-5.8,3-8.6,4.7c-2.1,1.3-4.4,1.2-6.7,0.9
		c-4.3-0.6-8.6-1.2-12.7-2.2c-6.2-1.4-12.3-3.2-18.3-4.9c-1.8-0.5-1.8-1-0.5-2.3c0.7-0.7,1.5-1.4,2.3-2.1c1.3-1.1,1.4-1.3,1.2-3.4
		c-2.4,0.4-4.9,0.8-7.3,1.2c-3.3,0.6-6.7,1.1-10,1.7c-0.3,0.1-0.7,0.4-0.9,0.7c-2.5,4.3-5.8,7.9-9.5,11.2c-2.6,2.3-5.5,4-9.1,4.9
		c1,2.8,1.6,5.6,0,8.3c-1.5,2.4-3.5,4.4-5.9,6.1c3.8,3.2,5.8,7.3,6.8,11.9c1.5,6.2,0.4,11.9-4.2,16.5c-2.3,2.3-5.1,4-8.3,4.8
		c-1.4,0.4-2.8,0.4-4.3,0.3c-3.7-0.1-7.3-0.6-10.9-1.7c-4.6-1.4-8.6-3.7-10.9-8.1c-2.7-5.2-3.7-10.7-1-16.3c1.2-2.5,3.2-4.2,5.3-5.9
		c0.6-0.5,1-1.1,1.5-1.7c-0.1-0.1-0.2-0.2-0.2-0.3c-1.9,0.5-3.7,1-5.7,1.6c-1.3-4.1-2.6-8-3.9-12.1c1.3-0.4,2.5-0.9,3.8-1.3
		c0.7-0.2,1.3-0.4,1.3-1.4c0.1-1.4,0.7-1.7,2-1.1c0.5,0.2,1,0.5,1.4,0.8c2,1.8,4.4,2,7.3,1.2c-0.9-0.4-1.5-0.7-2.1-1
		c-4-1.7-8.1-3.4-12.1-5.2c-2.1-0.9-2.3-3.3-1.1-4.7c-0.4-1.3-1.4-1.6-2.6-1.9c-5-1.2-9.7-3.3-14.2-5.6c-7.6-3.9-14.6-8.7-20.6-15.1
		c-0.5,1.1-1,2.2-1.6,3.3c-0.1,0-0.1,0-0.2-0.1c0.3-0.9,0.5-1.8,0.9-2.6c0.4-0.8,0.4-1.5-0.4-2.1c-0.4-0.3-0.6-0.8-0.9-1.2
		c-0.7,0.5-1.4,0.9-2.1,1.5c0.1-0.2,0.1-0.3,0.1-0.3c0.5-0.5,1.5-1.2,1.4-1.5c-0.4-1-1.1-1.9-1.8-2.7c-0.2-0.2-0.7-0.2-1.1-0.1
		c-0.6,0.1-1.2,0.3-1.9,0.3c0.4-0.2,0.8-0.3,1.2-0.5c0.4-0.2,0.8-0.3,1.1-0.4c-1.2-2.7-2.6-5.3-3.6-8c-0.9-2.4-1.5-4.9-1.8-7.4
		c-0.3-2.7,0.6-5.4,1.8-7.9c2.3-5.1,4.7-10.1,6.9-15.2c0.9-2.1,1.3-4.3,1.9-6.7c-0.8,0.1-1.2,0.2-1.7,0.2c0-0.1,0-0.1,0-0.2
		c0.5-0.2,1.1-0.3,1.4-0.6c0.3-0.3,0.2-0.9,0.4-1.6c-1.7,0-3.2,0-4.7,0c0-0.1,0-0.1,0-0.2c1.5-0.1,3-0.3,4.5-0.4
		c0.5-5.7-3.1-12.5-12.3-16.2c-0.2,0.6-0.5,1.3-0.7,1.9c-0.2,0.6-0.4,1.3-0.8,1.9c0.2-1,0.3-2.1,0.7-3c0.3-0.9,0-1.3-0.8-1.6
		c-0.9-0.3-1.8-0.7-2.7-1c-1.1-0.5-2.2-1.1-3.2,0.2c0.1-0.2,0.2-0.3,0.4-0.5c0.1-0.2,0.3-0.3,0.5-0.5c-2.3-0.9-4.5-1.7-6.7-2.6
		c-2.1-0.9-4.2-1.9-5.5-3.9C20.9,28.4,20.9,28,20.9,27.6z M222.5,120.7L222.5,120.7c2.2,0.6,4.3-0.3,6-2.7c-1.2-0.4-2.4-0.8-3.6-1.1
		c-9.7-2.3-19.5-4.6-29.3-6.9c-1.8-0.4-3.6-1-5.4,0.2c-3.4,2.2-6.8,4.2-10.2,6.2c-0.1,0.1-0.2,0.2-0.3,0.4c1.9,0.2,3.7,0.4,5.5,0.5
		c1.6,0.1,2.2,1,1.8,2.6c-0.1,0.5-0.2,1.1,0,1.6c0.5,1.6-0.2,3.2-1.9,3.7c-0.8,0.2-1.7,0.2-2.5,0.4c-0.4,0.1-0.9,0.3-1.2,0.6
		c-0.7,1-1.5,1.4-2.7,1c-2.9-1-5.9-2-8.8-3c-0.4-0.1-0.9-0.4-1.2-0.2c-1.5,0.8-2.9,1.8-4,3.3c1,0.4,1.8,0.9,2.6,1.1
		c5.3,1.3,10.5,2.8,15.8,3.9c4.8,1,9.7,1.7,14.6,2.5c1.4,0.2,2.9,0.3,4.3-0.5c3-1.7,6.1-3.3,9.2-5c1.3-0.7,2.5-1.5,3.6-2.1
		c-0.4-0.8-1-1.3-1.1-2c-0.1-1,1.4-2.5,2.5-2.5c1,0,1.5-0.3,2-1.2c0.3-0.5,1-1,1.6-1.1C220.6,120.4,221.6,120.6,222.5,120.7z
		 M195.8,72.1c-6.3,5.3-12.8,8.9-21.1,5.3c-1.8,4-4.9,5.9-7.6,4.5c3.1-0.2,6.4-1.5,5.5-3.7c-2.3,1.6-4.1,2.1-5.9,1.8
		c-3.7-0.7-6.2-2.8-8.4-5.7c-1.3-1.8-2.2-3.9-2-6.1c0.3-2.5-0.4-4.5-1.9-6.3c-0.5-0.7-1-1.4-1.6-2c-1.7-1.9-3.4-3.8-5.8-4.8
		c-1.4-0.5-2.7-0.7-4-0.1c-3.3,1.5-5.6,4-6.8,7.5c-1,3-0.1,7.8,3.6,9.1c0.5-0.3,1-0.6,1.5-0.8c1.4-0.6,2.8-0.1,3.2,1.1
		c0.3,1,0.9,1.2,1.8,1.2c2.8,0,5.6,0,8.4,0c0,0.2,0,0.4,0.1,0.6c-7.3,1.4-14.5,2.7-21.8,4.1c0,0.1,0,0.2,0,0.3
		c1,0.1,1.9,0.2,3.1,0.3c-4.1,1.4-7.9,2.7-11.8,4.1c0,0.1,0.1,0.2,0.1,0.3c0.8,0,1.7,0,2.5,0c0,0.1,0,0.1,0,0.2
		c-2.7,0.8-5.4,1.6-8.1,2.4c0,0.1,0,0.2,0.1,0.2c1.3-0.1,2.5-0.2,3.8-0.4c-1.8,1.3-3.8,2.3-5.6,3.5c-5,3.5-10.1,7-14.9,10.8
		c-3,2.4-5.8,5.2-8.1,8.2c-3,3.9-3.6,8.7-4.1,13.5c-0.4,4.1,0.7,7.9,3.4,11.1c1.9,2.3,4.3,3.6,7.2,4.7c-0.4-0.7-0.7-1.2-0.9-1.6
		c0.1-0.1,0.2-0.2,0.4-0.3c2.2,2.5,4.4,5,6.6,7.5c-0.1,0.1-0.2,0.3-0.2,0.4c-0.8,0-1.7,0-2.5,0.2c-2.5,0.5-4.7-0.1-6.7-1.6
		c-0.4-0.3-1-0.2-1.5-0.3c0,0.5-0.2,1,0,1.5c0.3,1,0.7,1.9,1.2,2.8c0.8,1.6,1.6,3.1,2.4,4.7c0.9,1.8,1.2,3.7,1.1,5.7
		c-0.1,1.7-0.2,3.4-0.2,5.2c0,0.4,0.2,0.8,0.2,1.2c0.1,0,0.3,0,0.4,0c1.4-3.1,1.1-6.3,0.9-9.7c0.5,1,1,1.9,1.3,2.7
		c0.4,0.9,0.9,1.7,1,2.6c0.2,1.9,0.2,3.9,0.3,5.9c0,0.7,0.2,1.5,0.3,2.2c0.2,0,0.4,0,0.5-0.1c2-4.7,1.2-9.3-1.5-13.7
		c0.1-0.1,0.3-0.1,0.4-0.2c1.2,2.1,2.4,4.2,3.6,6.4c0.1-0.5,0.3-1,0.4-1.5c0.2-1.7-0.2-3.3-1.3-4.5c-2.1-2.4-3.7-5.5-6.9-7.1
		c0.8,0,1.5-0.1,2.3-0.1c1.6,0,3.2,0.1,4.8,0.2c1.1,0,1.7-0.4,1.6-1.6c-0.2-1.9-0.3-3.7-0.5-5.6c-0.1-0.9-0.2-1.7-0.2-2.6
		c0-0.3,0.4-0.7,0.6-1c0.2,0.3,0.4,0.6,0.5,0.9c0.2,1,0.3,2.1,0.6,3.1c0.1,0.3,0.6,0.8,0.9,0.8c4.3,0.7,8.6,1.1,12.9,0.7
		c2.9-0.2,6-0.6,8.8-1.6c7.4-2.6,12-8.4,16.2-14.8c-0.4,0.1-0.7,0.1-1,0.2c-5.4,0.7-10.6-0.1-15.7-2c-2.8-1.1-5.6-2.2-7.7-4.6
		c-0.8-0.9-1.5-1.9-1.4-3.6c0.5,0.5,0.9,0.8,1.2,1.1c1.9,2.3,4.2,4.1,6.8,5.3c3.6,1.7,7.5,2.5,11.5,2.7c3.1,0.2,6-0.5,9-1
		c3.6-0.6,7.3-1,10.9-1.5c2.5-0.4,4.9-0.9,7.4-1.4c0,0.9-0.1,1.8,0,2.7c0,0.4,0.3,1,0.6,1.1c2.9,1.1,5.7,2.1,8.7,3.1
		c0.8,0.2,1.7,0.2,2.1-0.8c-2.2-0.9-4.3-1.7-6.4-2.6c2.9,0.3,5.7,0.9,8.5,1.6c1.2,0.3,2.2-0.1,2.9-1.1c0.2-0.3,0.3-0.8,0.4-1.2
		c-0.4-0.1-0.7-0.2-1.1-0.3c-2.9-0.5-5.8-1-8.7-1.6c-0.5-0.1-1-0.5-1.5-0.8c3.2,0.3,6.2,0.8,9.2,1.3c1.1,0.2,1.9-0.3,1.9-1.3
		c0-0.9-0.6-1.3-1.5-1.4c-3-0.4-6-0.8-9-1.3c-0.5-0.1-1-0.4-1.5-0.6c1.1-0.4,2.1-0.8,3-1.2c2.4-1.2,2.9-2.5,2.1-5
		c-0.1-0.4-0.7-1-1-1c-0.4,0-1,0.4-1.3,0.8c-0.4,0.6-0.6,1.4-0.9,2.1c-0.4,0.9-1,1.5-2.1,1.4c-1.1-0.1-1.6,0.4-1.9,1.4
		c-0.3,1-0.7,1.9-2,2c-2.6,0.2-5.3,0.7-7.9,0.7c-4.4,0.2-8.8,0.1-13.2-0.7c-4.5-0.8-8.8-2.1-12.6-4.7c-2.4-1.7-4.4-3.7-5.9-6.3
		c-0.1-0.2,0-0.6,0-1c0.3,0.1,0.7,0.1,1,0.3c0.2,0.1,0.3,0.4,0.5,0.6c1.3,2.1,2.9,3.7,4.9,5.1c6.1,4.2,13,5.7,20.4,5.8
		c0.5,0,1.1-0.3,1.4-0.6c2.4-2.6,5.4-4.3,8.6-5.8c7.1-3.3,14.7-5.2,22.2-7.1c2.4-0.6,4.8-1.2,7.2-1.8c0-0.1,0-0.2,0-0.4
		c-2.4-0.3-4.8-0.6-7.2-0.8c-3.4-0.4-6.9-0.5-10.2-1.1c-8-1.5-15.5-4.1-22.8-7.7c-3.8-1.9-7.5-3.8-11.7-4.7c-1-0.2-2-0.5-3-0.8
		c0-0.2,0.1-0.4,0.1-0.5c2.9,0.7,5.9,1.3,8.9,2c0.1-1.1,0.2-2.2,0.4-3.2c0.3-1.5,0.7-3.1,2.1-3.7c2.8-1.3,5.8-1.8,8.8-0.8
		c1.4,0.4,1.9,1.4,1.7,2.9c-0.2,1.2-0.5,2.3-0.9,3.4c-0.5,1.4-1.1,2.7-1.5,4.1c-0.5,1.7-0.2,2.3,1.5,2.9c0.4,0.1,0.7,0.3,1.1,0.5
		c6.4,2.8,13.2,4.2,20.2,5c3.6,0.4,7.3,0.5,10.9,1.1c4.7,0.7,9.3,1.8,13.9,2.5c4.8,0.7,9.5,1.5,14.3,1.8c4.7,0.3,9.4,0,14.1-0.2
		c1.5-0.1,3-0.4,4.5-0.7c-1.1-3.7,0.7-6,3.6-7.8c-5.4-1.5-10.7-3-15.9-4.4c-7.1-2-14.2-4-21.3-5.9c-5.8-1.6-11.6-3.2-17.4-4.8
		c-0.3-0.1-0.7,0-1,0c-1.9,0.3-3.8,0.7-5.8,1c-0.7,0.1-1.5,0-2.2,0c0-0.1,0-0.3,0-0.4c0.6-0.1,1.1-0.2,1.7-0.3
		c3.6-0.7,7.1-1.7,10.1-3.8C194.3,75.3,195.6,74.1,195.8,72.1z M180,77.1c1.6-0.2,2.9-0.2,4.2-0.5c3.5-0.7,6.8-1.9,9.3-4.5
		c3.6-3.7,5.5-8.3,5.2-13.5c-0.2-3.5-1.9-6.2-5.3-7.6c-3-1.3-6.1-1.2-9.2-0.3c-6.8,2.1-10.4,7-11.9,13.7c-0.3,1.3-0.4,2.7-0.1,4
		c0.4,2.1,1.2,4.1,1.8,6.1c0.1,0.3,0.2,0.5,0.3,0.7c0.1-2.1,0.6-3.7,2.7-4.4c1.4-0.4,2.9,0.1,3.7,1.2
		C181.9,73.7,181.5,75.3,180,77.1z M98.8,157.2c-2.5,2-4.5,4.1-5.7,6.9c-1.4,3.3-0.8,6.6,0,9.9c1.6,6.2,5.8,9.8,11.5,11.8
		c3.6,1.3,7.5,1.6,11.4,1.3c3.1-0.2,6.1-0.8,8.4-2.9c4.8-4.4,7.4-9.8,6.1-16.4c-1.4-7.2-4.8-12.9-12.4-15c-2.6-0.7-5.2-0.4-7.7,0.5
		c0.2,0.9,0.3,1.8,0.4,2.6c1.3-0.1,2.5-0.4,3.6-0.3c4.3,0.3,7.9,2.2,10.4,5.8c2.7,4,3.5,8.4,2.8,13.1c-0.4,2.3-1.2,4.4-3.3,5.8
		c-5.4,3.9-11.4,4.4-17.6,2.6c-4.8-1.4-8.8-3.9-10.6-9c-1.5-4.3-1.6-8.6,1.5-12.2c1-1.2,1.2-2.4,1.2-3.8
		C98.8,157.8,98.8,157.7,98.8,157.2z M71.1,100.5c-0.3,0.3-0.5,0.6-0.8,1c-2.9,3.7-5.4,7.6-7,12.1c-0.3,0.8-0.3,1.3,0.5,1.8
		c2.9,1.8,5.7,3.7,8.5,5.5c0.9,0.6,1.9,1.1,3,1.8c1-5.8,3.2-10.7,5.9-15.5C77.8,104.9,74.4,102.7,71.1,100.5z M61.5,92
		c-0.7,0.7-1.5,1.2-2.1,1.9c-2.4,2.8-4.8,5.5-7.2,8.3c-0.3,0.3-0.2,0.9-0.3,1.4c0.1,0,0.2,0.1,0.4,0.1c0.3-0.2,0.6-0.4,0.9-0.7
		c0.1,0.1,0.2,0.2,0.3,0.2c-0.2,0.3-0.4,0.7-0.9,1.3c2.9,3,6,6,9.2,9.3c1.9-5.6,4.9-10.2,8.3-14.4c0-0.1-0.1-0.2-0.1-0.4
		c-0.8,0.1-1.5,0.2-2.3,0.3c-0.1-0.1-0.1-0.2-0.2-0.2c0.4-0.3,0.8-0.5,1.3-0.9c-0.9-0.5-1.7-0.9-2.6-1.4c-0.2-0.4-0.4-0.9-0.8-1.3
		C64.1,94.4,62.8,93.3,61.5,92z M50.5,101.5c3.3-3.7,6.6-7.2,9.8-10.8c-1.5-2.2-3.1-4.5-4.9-7.2c-3.6,0.6-7.6,1.4-11.6,2.1
		C44.8,91.8,47.3,96.9,50.5,101.5z M251.7,105.8c0.8-0.1,1.7-0.1,2.7-0.3c2.2-0.4,4.3-1,6.2-2.3c3-2.1,2.2-4.5-0.2-6.2
		c-1.6-1.2-3.4-1.6-5.4-1.9c-3.5-0.4-6.8,0.1-9.9,2c-3.8,2.3-2.7,5.3,0,7C247.1,105.4,249.3,105.7,251.7,105.8z M76.4,123.3
		c4,1.6,7.9,3.2,12.1,4.9c-1.2-5.9-1.1-11.3,1.1-16.5c-2.4-1.3-4.7-2.5-7-3.8C79.6,112.6,77.7,117.7,76.4,123.3z M171.8,74.8
		c0.5-4.6-4.8-10.6-9.7-10.7c-2.7-0.1-4.6,2-4.2,4.8c0.6,4.5,4.1,8.5,8.5,9.6c1.4,0.3,2.8,0.4,4.2-0.8c-1.2,0-2.1-0.3-2.1-1.4
		c0-0.6,0.4-1.6,0.8-1.7C169.9,74.4,170.8,74.7,171.8,74.8z M44,84.2c3.9-0.6,7.7-1.2,11.5-1.9c0.3-0.1,0.8-0.5,0.9-0.9
		c0.6-1.9,1-3.8,1.5-5.7c0.4-1.4,0.8-2.9,1.2-4.5c-0.6,0-1-0.1-1.4-0.1c-1.2,0-2.4-0.1-3.7-0.1c-1.4,0-3-0.4-4.2,0
		c-0.8,0.3-1.1,1.8-1.6,2.7C48,74,48,74.2,47.9,74.3C46.4,77.5,44.8,80.6,44,84.2z M111.5,182.2c0.6-3,1.1-5.8,1.6-8.7
		c0.4-2.1-1.5-4.2-3.4-3.7c-0.6,0.2-1.2,0.7-1.7,1.2c-2.5,2.3-4.9,4.5-7.4,6.9C103.8,180.8,107.4,182,111.5,182.2z M56.1,39.1
		c-1.4,1.5-2.7,2.9-3.9,4.3c-0.2,0.2-0.2,0.9,0,1.2c0.4,0.8,1,1.4,1.3,2.2c0.6,1.4,1.1,2.9,1.6,4.5c2.4-0.5,4.8-1,7.2-1.5
		c0.4-0.1,0.7-0.4,1.1-0.6c-0.2-0.3-0.4-0.6-0.6-0.8c0.2-0.4,0.5-0.8,0.4-1.1c-0.1-0.3-0.6-0.5-1-0.8c0.2-0.2,0.4-0.5,0.7-0.8
		C61.3,42.8,58.8,41,56.1,39.1z M54.2,60.6c-1.3,3-2.6,6-3.9,9.1c2.8,0.1,5.6,0.3,8.3,0.4c0.3,0,0.9-0.2,0.9-0.5
		c0.8-2.9,1.5-5.8,2.3-9C59.2,60.6,56.7,60.6,54.2,60.6z M158.9,91.6c0.3-1.4,0.5-2.7,0.9-4c0.4-1.3,1-2.5,1.4-3.8
		c0.8-2.5,0.1-3.2-1.8-3.3c-0.2,0-0.3-0.1-0.5-0.1c-4.3-0.5-6.4,0.5-7.2,4.1c-0.2,1-0.1,2-0.1,3.1c0,0.3,0.3,0.6,0.5,0.7
		c0.8,0.4,1.6,0.8,2.5,1.2c0-2,0.1-3.9,1.3-5.5c0.1,1.8,0.1,3.6,0.2,5.3c0,0.4,0.3,0.9,0.6,1.1C157.3,91,158.1,91.3,158.9,91.6z
		 M124.8,177.6c-2.4-2.3-4.8-4.5-7.1-6.8c-0.9-0.9-2-1.1-2.9-0.2c-0.5,0.5-0.8,1.7-0.5,2.4c1.2,2.9,2.6,5.7,4,8.5
		C120.8,180.8,123.1,179.8,124.8,177.6z M62.2,59.5c0.4-2.9,0.8-5.6,1.2-8.6c-2.9,0.7-5.6,1.3-8.1,1.9C55,55,54.8,56.9,54.6,59
		C57,59.1,59.5,59.3,62.2,59.5z M112.9,145.8c0.7,0.1,1.3,0.1,2,0.2c1.6,0.2,2,0.7,2.1,2.3c0.1,1.1,0.2,2.2,0.3,3.2
		c1.9,0.7,3.4,0.3,4.8-1c1.3-1.3,2.3-2.7,1.6-4.5c-3.6-0.7-7.1-1.4-10.5-2.1C113.1,144.4,113,145,112.9,145.8z M110.1,142.9
		c-0.2,1-0.3,1.6-0.4,2.2c-0.1,0.8-0.4,1.2-1.2,1.3c-1.4,0.3-1.9,0.9-2,2.3c-0.1,1.4,0.2,2.7,1.1,3.9c1.2,1.6,2.1,3.4,1.7,5.4
		c-0.4,1.6,0.5,2.6,1.1,3.4c-0.4-3.6-0.9-7.4-1.3-11.2c-0.2-1.9,0.7-2.7,2.6-2.4c1.3,0.2,1.9,1.1,2.2,2.3c0.1,0.5,0.1,1,0.2,1.5
		c0.3,0,0.6,0,0.9,0c0.3,0,0.5-0.1,0.8-0.1c0.4-3.7,0-4.3-4-5.2c0.1-0.7,0.6-1.6,0.3-2.2C111.9,143.6,110.9,143.4,110.1,142.9z
		 M99.5,153.4c-1.6-3.4-3.2-6.7-4.9-10c-1.3,0.5-2.4,1-3.6,1.5c1.2,3.3,2.3,6.5,3.4,9.7C96.1,154.2,97.7,153.9,99.5,153.4z M45,38.3
		c2,1.6,3.9,3,5.8,4.5c1.3-1.4,2.6-2.9,4.1-4.5c-2.6-1.3-5.2-2.6-7.8-3.9C46.4,35.8,45.7,37,45,38.3z M110.1,168
		c-0.6-0.3-1.3-0.7-1.9-1c-0.8-0.4-1.6-0.7-2.4,0.3c-0.2,0.3-1,0.2-1.5,0.2c-0.4,0-0.9-0.2-1.3-0.2c-1.2,0.1-2.3,0.4-3.5,0.6
		c-2.5,0.3-2.5,0.3-2.4,2.7c0,0.9,0.4,1.1,1.2,0.9c2.3-0.5,4.6-0.9,6.9-1.4C107,169.7,109,170,110.1,168z M117.8,170
		c2.6,2.4,5,4.7,7.4,7c1.4-2.7,1.6-5.2,0.9-8C123.4,169.3,120.7,169.6,117.8,170z M214.8,128.8c1.2,1,2.3,2,3.3,3
		c1.9,1.9,4.9,1.8,6.6-0.4c0.5-0.6,0.4-1.1-0.3-1.5c-0.4-0.2-0.7-0.3-1.1-0.4c-1.9-0.4-3.9-0.7-5.7-1.3
		C216.4,127.8,215.6,127.9,214.8,128.8z M100.1,177.4c2.5-2.3,4.9-4.6,7.5-7.1c-3.6,0.7-6.9,1.4-10.1,2.1
		C97.8,174.4,98.6,176,100.1,177.4z M124.9,164.1c-2.7,1-5.2,2-7.7,3c-0.4,0.2-1.1,0.9-1,1c0.3,0.6,0.6,1.3,1.6,1
		c1-0.2,2.1-0.2,3.2-0.3c1.6-0.2,3.3-0.4,5.1-0.6C125.7,166.8,125.3,165.5,124.9,164.1z M109.6,141.1c0.2,0.2,0.3,0.8,0.6,0.9
		c3.8,0.8,7.6,1.6,11.5,2.2c1.2,0.2,2.6,0.4,3.8-0.7c-1-1-1.9-1.7-3.4-1.8C118,141.6,113.9,141.3,109.6,141.1z M120.6,158.9
		c-1.6-0.7-3-1.3-4.6-2c-0.3,2-0.7,3.7-0.9,5.4c-0.1,1.2-0.8,2.7,0.8,3.6C117.4,163.7,118.9,161.4,120.6,158.9z M37.4,34.7
		c2.3,1.1,4.3,2,6.4,3c0.6-1.2,1.2-2.4,2-3.9c-1.4,0.1-2.4-1.6-3.9-0.2c0.1-1.6-1.6-1.9-2-1.6C38.9,32.5,38.2,33.7,37.4,34.7z
		 M121.6,152.7c1,0.4,1.9,1.1,2.4,0.9c2.8-1.3,4.6-3.7,6.2-6.4c-1.7,0.2-3.1,0.4-4.5,0.6c-0.2,0-0.5,0.3-0.6,0.5
		C124.6,150,123.6,151.5,121.6,152.7z M175.1,110.7c-0.8-0.5-1.5-0.9-2.3-1.3c-0.3-0.2-0.7-0.3-1-0.2c-2.2,0.9-4.3,1.9-6.4,2.9
		c1.3,0.6,2.5,0.9,3.7,1.2c0.9,0.3,1.7,0.5,2.3-0.5c0.2-0.3,0.8-0.3,1.2-0.3C173.8,112.5,174.6,112,175.1,110.7z M116.6,166.3
		c0.1,0.1,0.1,0.1,0.2,0.2c2.6-1,5.1-1.9,7.9-3c-1.3-1.4-2.4-2.7-3.6-4.1C119.5,161.8,118.1,164.1,116.6,166.3z M112.3,182.3
		c1.8-0.2,3.4-0.4,5.3-0.6c-1.3-2.7-2.4-5.1-3.8-7.9C113.2,176.8,112.8,179.4,112.3,182.3z M103.3,140.5c0-0.1,0.1-0.2,0.1-0.3
		c-0.6-0.6-1.2-1.4-1.9-1.6c-4-1.2-7.4-3.4-10.5-6.1c-1,1.2-0.8,2.1,0.4,2.9c3.5,2.3,7.3,3.8,11.3,5.1
		C102.9,140.6,103.1,140.5,103.3,140.5z M222.1,125.1c1.2-0.3,2.6-0.7,4-1.3c0.3-0.1,0.7-0.9,0.6-1c-0.3-0.4-0.9-1-1.2-0.9
		c-1.4,0.4-2.8,0.2-4.2-0.2c-1-0.3-1.9,0.2-2.2,1.1c-0.3,0.8,0.3,1.6,1.3,1.9C220.8,124.9,221.3,124.9,222.1,125.1z M38.1,31.1
		c-1.2,0-2.1,0-3.1,0c-0.3-1.4-1.8-1-2.8-1.1c-1.5-0.2-1.3,1.5-2.2,2.5c2,0.3,3.5,1.6,5.3,1.2c0.2,0.2,0.4,0.5,0.6,0.7
		c0.2-0.2,0.5-0.4,0.6-0.6C37.1,32.9,37.5,32.2,38.1,31.1z M96.9,167.2c0.1,0.1,0.3,0.2,0.4,0.3c1.6-0.3,3.3-0.6,4.9-0.8
		c1.3-0.2,1.8-1,0.9-1.9c-0.5-0.5-1.6-1.1-2.1-1c-1.6,0.6-1.9-0.4-2.5-1.8C97.9,164,97.4,165.6,96.9,167.2z M169.9,115
		c-0.1-0.1-0.1-0.2-0.2-0.3c-1.1-0.3-2.3-0.6-3.4-0.8c-1.1-0.2-2.3-0.7-3.2-0.3c-1.4,0.5-2.5,1.7-3.8,2.5c0.1,0.1,0.1,0.3,0.2,0.4
		c3.1-0.3,6.2-0.5,9.3-0.8C169.2,115.7,169.6,115.3,169.9,115z M222.3,126c-0.4,0-0.8,0-1.1-0.1c-1.3-0.3-2.6-0.5-3.3-1.8
		c-0.2-0.3-0.6-0.6-0.8-0.5c-0.7,0.4-1.3,0.8-1.8,1.3c-0.1,0.1,0.1,0.9,0.4,1.1c1.3,1.2,2.9,1.8,4.7,1.8
		C221.5,127.9,222.2,127.3,222.3,126z M114.2,163.6c0.3-2.1,0.6-3.8,0.9-5.6c0.1-0.5,0.3-1.2-0.6-1.2c-1,0-2,0.2-2.9,0.3
		C111.4,159.8,113.1,161.4,114.2,163.6z M30.3,29.4c-2.2-0.3-4.3-0.7-6.4,0c0,0.2-0.1,0.4-0.1,0.6c1.7,0.7,3.4,1.4,5.1,2.1
		C29.4,31.1,29.8,30.3,30.3,29.4z M108,160.5c-0.1,0-0.3,0.1-0.4,0.1c0.1,0.8,0,1.8,0.4,2.5c0.9,1.2,2.1,2.3,3.2,3.5
		c0.4-0.6,0.6-0.9,0.9-1.3C110.7,163.7,109.4,162.1,108,160.5z M175.9,116.1c0.7,0.1,1.4,0.5,1.7,0.3c1.9-0.9,3.7-2,5.6-3.1
		c-1.8-0.5-3.3-1.1-4.1,1c-0.1,0.2-0.3,0.2-0.5,0.3C177.8,115.1,177,115.6,175.9,116.1z M113.2,151.6c-0.5-1-0.8-1.9-1.3-2.6
		c-0.2-0.2-1.5,0-1.6,0.3c-0.3,0.8-0.2,1.7-0.3,2.7C111.1,151.8,111.9,151.7,113.2,151.6z M112.1,168.4c0.3,0.2,0.7,0.8,1.2,0.9
		c0.8,0.2,1.6-0.9,1.6-1.8c0-0.8-0.3-1.3-1.2-1.3C112.7,166.2,112.1,166.9,112.1,168.4z M102.7,146.5c0.9,1.1,1.6,2,2.4,2.9
		c0.3-1.1,0.6-1.9,0.9-2.9C104.9,146.5,104,146.5,102.7,146.5z M103.1,163.7c0-2,0-3.9,0-5.8c-0.1,0-0.1,0-0.2,0
		c-0.4,1.7-0.8,3.3-1.2,5.1C102.1,163.2,102.6,163.5,103.1,163.7z M176,75.8c0.6-0.8,1.1-1.3,1.1-1.7c0-0.4-0.7-1-1.1-1
		c-0.4,0-1.1,0.6-1.1,1C174.9,74.5,175.5,74.9,176,75.8z M112.2,161.7c-0.1,2,0.7,3.1,1.9,3.2C113.5,163.8,112.9,162.9,112.2,161.7z
		"/>
	<path d="M81.8,172.5c-0.5-0.4-1.2-0.7-1.6-1.2c-1.9-2.5-2.4-5.2-1.6-8.3c0.4-1.5,1.5-2.5,2.7-3.4c0.2-0.2,0.7,0,1.1,0
		c-0.1,0.4,0,0.9-0.2,1.2c-0.6,0.7-1.5,1.1-2,1.8c-1.2,1.6-1.3,3.6-0.6,5.4C80,169.5,81,170.9,81.8,172.5z"/>
	<path d="M194.2,46c-2.6-0.3-5.2-0.6-8-0.9c0,0.1,0,0,0-0.1c0.5-2.9,0.6-2.9,3.3-1.7c1.6,0.7,3.1,1.5,4.7,2.3
		C194.3,45.8,194.2,45.9,194.2,46z"/>
	<path d="M86.6,173c-2-2.2-2-4.6-1.5-7.1c0.3-1.4,0.8-2.8,1.3-4.1c0.2-0.5,0.7-0.8,1.2-1.2c0.2-0.1,0.6,0,1,0c0,0.4,0.2,0.9,0,1.1
		c-3.4,3.2-3.1,7-1.9,10.9C86.6,172.6,86.6,172.7,86.6,173z"/>
	<path d="M160.7,56.7c2.8-1.2,5.3-2.4,8.1-3.6c-0.3,1.2-0.5,2.1-0.7,3c-0.1,0.3-0.5,0.6-0.8,0.6C165.3,56.7,163.2,56.7,160.7,56.7z"
		/>
	<path d="M222.5,120.7c-0.3-0.2-0.8-0.3-1-0.6c-0.3-0.4-0.6-1-0.5-1.3c0.1-0.4,0.7-0.7,1.2-0.8c0.4-0.1,1,0,1.4,0.3
		c0.4,0.3,0.9,0.9,0.9,1.3c0,0.4-0.7,0.8-1.1,1.1C223.1,120.7,222.8,120.6,222.5,120.7C222.5,120.6,222.5,120.7,222.5,120.7z
		 M223.9,119.5c0-0.1,0-0.3,0-0.4c-0.5-0.2-0.9-0.6-1.4-0.7c-0.3,0-0.7,0.4-1,0.7c0.4,0.3,0.8,0.8,1.2,0.9
		C223.1,120.1,223.5,119.7,223.9,119.5z"/>
	<path d="M96.3,148c-0.2,1.2-0.7,1.8-1.5,1.6c-0.5-0.1-1.2-0.8-1.3-1.4c-0.2-0.8,0.5-1.5,1.3-1.4C95.3,146.9,95.8,147.6,96.3,148z
		 M94.9,149.3c0.3-0.5,0.6-0.9,0.6-1.1c-0.1-0.3-0.5-0.5-0.8-0.7c-0.2,0.3-0.5,0.6-0.5,0.8C94.2,148.6,94.6,148.8,94.9,149.3z"/>
</g>
</svg>
