<?xml version="1.0" encoding="utf-8"?>
<!-- Generator: Adobe Illustrator 17.1.0, SVG Export Plug-In . SVG Version: 6.00 Build 0)  -->
<!DOCTYPE svg PUBLIC "-//W3C//DTD SVG 1.1//EN" "http://www.w3.org/Graphics/SVG/1.1/DTD/svg11.dtd">
<svg version="1.1" id="Layer_1" xmlns="http://www.w3.org/2000/svg" xmlns:xlink="http://www.w3.org/1999/xlink" x="0px" y="0px"
	 viewBox="0 0 288 216" enable-background="new 0 0 288 216" xml:space="preserve">
<g>
	<path d="M257.3,130.4c-0.9-4.1-2.5-8-4.5-11.7c-1.3-2.6-2.9-4.9-4.5-7.3c-0.1,0.2-0.3,0.5-0.4,0.7c0.2,0.1,0.4,0.4,0.5,0.9
		c-1.8,1.6-2.2,1.9-2.7,1.3c-0.2,0.2-0.4,0.3-0.7,0.5c0.1,0.1,0.2,0.2,0.3,0.3c5.1,5.8,7.6,12.7,8.4,20.3c0.3,2.9,0.8,5.7,0.8,8.6
		c0.1,2.6-0.3,5.2-0.6,7.8c-0.4,3-0.9,6.1-1.6,9c-2.2,9.1-6.2,17.4-13.1,23.9c-3.8,3.6-7.7,7.1-11.8,10.2c-3.6,2.7-7.7,4.8-12.3,5.6
		c-4.3,0.7-8.6,1.2-10.8,1.5c-14.2,0.2-25.5-2.7-36.1-8.6c-3.9-2.1-7.1-5.2-10.1-8.4c-4.2-4.6-7.9-9.5-10.3-15.3
		c-1.3-3.2-2.8-6.3-3.9-9.6c-1.2-3.8-1.5-7.8-1.6-11.8c-0.1-5.4-0.1-10.7,0.6-16.1c0.9-6,2.6-11.7,5.2-17.1
		c-0.1-0.2-0.2-0.4-0.3-0.6c-1.1,2.9-2.4,5.7-3.4,8.6c-1.9,5.5-2.7,11.2-2.6,17c0,0.6-0.2,1.2-0.3,1.8v3.5c0.1,0.4,0.2,0.8,0.2,1.3
		c0.1,2,0.2,4.1,0.3,6.1c0.2,4.5,1.4,8.8,3.1,12.8c2.6,6.2,5.8,12.2,10.3,17.4c5,5.9,10.6,10.7,17.8,13.6c0.4,0.2,0.8,0.4,1.5,0.7
		c-3,0.6-5.8,0.2-8.3,1.7c0.3,0.2,0.5,0.2,0.7,0.2c2.1-0.3,4.1-0.6,6.2-0.9c0.6-0.1,1.3,0,1.7-0.3c0.9-0.6,1.5-0.2,2.4,0.5
		c-2.2,0.2-4.2,0-6,1.2c2.8-0.3,5.5-0.7,8.5-0.6c-1.1,0.8-2.4-0.1-3.2,1.1c2.2,0.5,4.2-0.9,6.5,0.1c-0.8,0.3-1.3,0.5-1.9,0.6
		c0,0.2,0.1,0.3,0.1,0.5c1.5-0.2,3.1-0.5,4.6-0.7c0,0.1,0.1,0.2,0.1,0.3c-0.2,0.2-0.5,0.5-0.9,1c1.7-0.2,3.2-0.4,4.6-0.6
		c0,0.1,0,0.2,0.1,0.4c-0.2,0.1-0.3,0.2-0.5,0.2c-0.2,0.1-0.5,0.1-0.7,0.1c0.1,0.2,0.3,0.4,0.4,0.6c1.6-0.2,3.2-0.4,4.8-0.6
		c0,0.1,0,0.2,0,0.3c-0.5,0.2-1,0.5-1.4,0.7c0.1,0.1,0.1,0.3,0.2,0.4c1-0.2,1.9-0.3,2.9-0.6c0.9-0.3,1.6-0.2,1.6,0.7
		c2.8-0.5,5.4-0.9,8.1-1.4c-3.4,1.1-3.4,1.1-3.8,1.9c0.1,0,0.2,0.1,0.3,0.1c5.1-1.2,10.2-2.4,15.3-3.6c3.5-0.9,6.9-2.2,9.9-4.2
		c2.5-1.6,5-3.2,7.4-4.9c4.7-3.2,9.1-6.6,12.3-11.4c2.9-4.5,5.2-9.2,7.1-14.2c2.2-6,3.7-12.1,4.4-18.4
		C258.8,141.9,258.5,136.1,257.3,130.4z M240,185.6c-0.1-0.1-0.2-0.3-0.3-0.4c1-0.5,1.9-1,3.1-1.7
		C242.4,185.4,240.8,184.9,240,185.6z M255.2,142.7c-0.2-1.9,1.6-1.9,2.2-3.1C257.9,141.3,257.7,141.5,255.2,142.7z M257.3,137.6
		c0.2,1.4-0.2,1.8-2.4,2.9C254.9,138.8,256.5,138.7,257.3,137.6z M254.9,138.4c-0.3-1.1,0.1-1.6,2.2-2.7
		C257.5,137,257.1,137.4,254.9,138.4z M254.8,136.6c-0.5-1.4-0.2-1.8,2.3-3.1C257.4,135.6,255.3,135.4,254.8,136.6z M246.4,115.6
		c0.8-0.7,1.5-1.3,2.3-2.1c0.4,0.5,0.7,0.9,1,1.3c-0.8,0.6-1.5,1.1-2.3,1.7C247.2,116.3,246.9,116,246.4,115.6z M248.2,117.1
		c0.5-0.5,1.1-1,1.8-1.4c0.1-0.1,0.5,0.5,1,0.9c-0.9,0.6-1.6,1.1-2.5,1.7C248.3,117.8,248,117.3,248.2,117.1z M248.8,118.9
		c0.8-0.6,1.5-1.1,2.3-1.6c0.3,0.5,0.5,0.8,0.8,1.3c-0.7,0.5-1.4,1-2.1,1.6C249.5,119.8,249.2,119.4,248.8,118.9z M250.1,120.9
		c0.7-0.6,1.3-1.1,2-1.7c0.3,0.4,0.5,0.8,0.8,1.3c-0.8,0.6-1.4,1-2.2,1.5C250.5,121.7,250.3,121.3,250.1,120.9z M251,122.8
		c0.7-0.5,1.3-1,1.9-1.4c1.2,1,1.2,1.3-1.2,2.6C251.4,123.6,251.2,123.3,251,122.8z M253.9,123.6c0.7,0.8,0.7,0.8-1.3,2.3
		C251.8,124.8,251.9,124.7,253.9,123.6z M254.6,125.3c1,1.2,0.6,1.8-1.7,2.4C252.7,126.3,253.9,126,254.6,125.3z M255.4,127.2
		c0.2,0.4,0.5,0.7,0.8,1.2c-0.8,0.6-1.6,1.2-2.4,1.8C253.1,129,253.1,129,255.4,127.2z M256.1,129.4c0.6,1.4,0.5,1.6-2,2.9
		C253.4,131.1,253.7,130.7,256.1,129.4z M254.4,134.3c-0.4-0.9-0.4-0.9,2.2-2.7c0.6,0.9,0.2,1.3-0.4,1.7
		C255.5,133.6,255,133.9,254.4,134.3z M252.7,163.3l-0.4-0.4l1.9-1.8C254.5,162.7,253.4,162.8,252.7,163.3z M253.8,159.2
		c-0.1-0.1-0.2-0.3-0.4-0.4c0.7-0.6,1.4-1.1,2.1-1.8C255.7,158.6,254.6,158.8,253.8,159.2z M254,157c0.1-1.5,1.2-1.8,2.1-2.4
		C256.2,156,256.2,156.1,254,157z M254.4,154.6c0-1.4,1.4-1.3,2-1.9C256.2,153.9,256.1,154,254.4,154.6z M255,150.7
		c-0.1-0.1-0.2-0.2-0.3-0.3c0.7-0.6,1.5-1.1,2.2-1.7C257.2,149.9,257.1,150,255,150.7z M255.1,148.8c-0.1-1.6,1.3-1.5,2.1-2.1
		C257.4,147.9,257.1,148.2,255.1,148.8z M255.3,146.7c-0.1-1.1,0.5-1.7,2.2-2.2C257.7,145.7,257.4,146.1,255.3,146.7z M255.2,144.4
		c0.1-1.4,1.6-1.4,2.2-2.2C258,143.4,257.4,144,255.2,144.4z"/>
	<path d="M251.6,206.8c0.2-0.3,0.2-0.8,0.5-0.9c2-0.6,4.1-1.2,6.1-1.7c0.1,0,0.2,0.1,0.7,0.3c-0.5,0.3-0.8,0.4-1.1,0.5
		c-1.9,0.6-3.7,1.2-5.6,1.8C252,206.8,251.8,206.8,251.6,206.8z"/>
	<path d="M207.3,204c3.6-1.4,7.3-2.1,11.1-2.7c0,0.2,0.1,0.3,0.1,0.5c-1.9,0.4-3.8,0.8-5.6,1.3c-1.8,0.4-3.6,0.9-5.5,1.4
		C207.4,204.3,207.4,204.2,207.3,204z"/>
	<path d="M224.6,201.6c-3.5,1.1-6.9,2.1-10.3,3.1c-0.1,0-0.3-0.1-0.5-0.2C215,203.5,223.5,201.2,224.6,201.6z"/>
	<path d="M247.2,205.8c2.6-1.4,5.6-1.6,8.3-2.4c-1.1,1.1-2.7,1.1-4.1,1.7c-1.3,0.6-2.8,0.9-4.2,1.3
		C247.3,206.2,247.3,206,247.2,205.8z"/>
	<path d="M220.2,203.8c3-1.4,6.3-1.7,9.3-2.9c0.1,0.1,0.2,0.2,0.2,0.4c-0.2,0.2-0.4,0.4-0.6,0.5c-2.1,0.6-4.2,1.1-6.4,1.6
		C221.9,203.6,221.2,204.4,220.2,203.8z"/>
	<path d="M242.3,205.7c0.4-0.2,0.8-0.6,1.2-0.7c2.5-0.8,5-1.6,7.6-2.2c0,0.2,0.1,0.3,0.1,0.5c-2.9,0.9-5.8,1.8-8.7,2.8
		C242.5,206,242.4,205.8,242.3,205.7z"/>
	<path d="M234.2,201.6c-3,1-5.9,2-8.8,2.9C226.2,203.1,232.8,201.1,234.2,201.6z"/>
	<path d="M238.3,205c2.6-1.1,5.4-1.6,8.1-2.2c0,0.2,0.1,0.4,0.1,0.6c-2.7,0.7-5.4,1.4-8.1,2.2C238.4,205.4,238.4,205.2,238.3,205z"
		/>
	<path d="M161.5,198.8c2.9-1.3,6-1.2,9.1-1.7c0,0.1,0,0.2,0.1,0.4c-3,0.6-6.1,1.1-9.1,1.7C161.6,199,161.5,198.9,161.5,198.8z"/>
	<path d="M233.5,204.9c2.8-1.1,5.6-2.2,8.5-2.9c0,0.1,0.1,0.3,0.1,0.4c-2.8,1-5.7,2-8.5,2.9C233.6,205.2,233.5,205.1,233.5,204.9z"
		/>
	<path d="M238.4,201.8c-2.9,1-5.7,2-8.6,3c-0.1-0.2-0.1-0.4-0.2-0.6c2.9-1,5.8-2,8.7-2.9C238.3,201.5,238.3,201.6,238.4,201.8z"/>
	<path d="M164.4,197.5c-2.5,0.4-4.9,0.7-7.6,1.1C158.4,197.5,163.3,196.8,164.4,197.5z"/>
	<path d="M237.9,121.5c-0.6,0.4-1.3,0.8-2,1c-0.1,0.1-0.1,0.1-0.2,0.2c0.1,0.1,0.2,0.2,0.2,0.4c0.5-0.2,1-0.4,1.5-0.6
		c0.1,0.1,0.1,0.2,0.2,0.3c-8.6,5.5-18.4,8.8-26.7,14.7c-0.9-0.7-1.5-1.3-2.2-1.9c-0.1-0.1-0.1-0.2-0.2-0.4c0.5-0.4,1.1-0.9,1.6-1.2
		c1.6-1.1,3.2-2.2,4.9-3.2c2.3-1.4,4.7-2.8,7-4.2c0.1-0.1,0.2-0.1,0.3-0.2c-0.6,0.1-1.2,0.1-1.7,0.2c-3.6,2.2-7.1,4.3-10.7,6.5
		c-0.1,0-0.1-0.1-0.2-0.1c0.4-0.4,0.7-1,1.2-1.3c2.6-1.7,5.2-3.4,7.8-5.1c-0.5,0-1,0-1.5-0.1c-0.6,0.4-1.2,0.7-1.8,1.1
		c-1.8,1.1-3.5,2.5-5.2,3.7c-0.3,0.2-0.9,0.4-1.3,0.2c-1.9-0.8-3.7-1.7-5.8-2.6c0.3-0.8,0.6-1.6,0.9-2.4c-0.8,0.3-1.5,0.6-2.4,0.8
		c-0.4,1-0.7,2-1.1,3c-0.8,2-0.8,2-3.1,1.4c-0.1-1.4,0-2.7,0.2-3.9c-1.7,0.2-3.4,0.3-5.1,0.6c0.3,1.1,0.7,2.2,1,3.2
		c-0.3,0.2-0.4,0.4-0.5,0.4c-2.3,0.7-2.2,0.7-3.1-1.6c-0.2-0.5-0.4-1-0.6-1.5c-0.2,0-0.5,0.1-0.7,0.1c0.1,0.3,0.3,0.7,0.4,1
		c0.3,0.8,0.1,1.3-0.8,1.9c-1.1-0.9-2.1-1.9-3.2-2.9c-0.1,0-0.1,0-0.2,0c-0.6-0.1-1.2-0.3-1.7-0.6c1.1,0.9,2.2,1.8,3.3,2.7
		c0.6,0.5,0.6,0.8,0.1,1.3c-1.3-1.4-2.7-2.9-4-4.3c-1.2-0.6-2.3-1.2-3.6-1.7c2.6,2.3,5,4.7,7.4,7.3c0.2,0.2,0.4,0.4,0.6,0.6
		c0.2,0.2,0.4,0.4,0.6,0.7c-0.4,0.6-0.8,1.2-1.1,1.7c-0.1,0.2-0.3,0.4-0.4,0.6c-5.2-4.2-10.4-8.4-15.5-12.5
		c-0.5-0.1-1.1-0.2-1.7-0.3c3.1,2.5,6.3,4.9,9.4,7.5c1.9,1.6,3.7,3.2,5.6,4.9c0.4,0.3,0.8,0.5,1.1,0.9c0.2,0.2,0.3,0.4,0.4,0.7
		c-0.3,0.1-0.6,0.4-0.8,0.4c-1.7-0.2-3.4-0.5-5-0.8c-3.4-0.7-6.7-1.5-10.1-2.1c-4.7-0.9-9.4-1.8-14.3-2.8c-0.5-3.2,0.3-7.3,2-11.3
		c-0.3-0.1-0.5-0.2-0.8-0.3c-0.9,1.9-1.7,3.9-2.3,5.9c-2.4,7.5-3.4,15.2-2.1,23.1c0.9,5.4,2.6,10.5,5,15.3
		c4.3,8.7,10.1,15.8,18.8,20.5c9.3,5,19.1,6.2,29.3,5.9c1.3,0,2.6-0.2,3.9-0.4c6.2-0.9,11.5-4,16.7-7.1c1.7-1.1,3.3-2.4,4.8-3.7
		c0.9-0.7,1.6-1.6,2.4-2.3c2.9-2.4,5.4-5.2,6.9-8.7c1-2.3,1.7-4.8,2.5-7.1c1.7-4.8,2.8-9.7,3-14.8c0.3-6.3-0.2-12.4-3.1-18.1
		C240.8,127,239.4,124.2,237.9,121.5z M210.7,144.9c-0.5-1-0.5-1,1-2.1C212.2,143.7,212.2,143.7,210.7,144.9z M210.1,143
		c-0.4-1-0.4-1,1.2-2C211.8,141.8,211.8,141.9,210.1,143z M211.2,139.9c-1.9,1.8-1.9,1.8-2.6,0.7c0.7-0.6,1.3-1.1,1.9-1.6
		C210.8,139.4,211,139.6,211.2,139.9z M210.3,138.5c-0.7,0.5-1.3,0.9-1.9,1.3c-0.2,0.1-0.6,0.1-0.7,0c-0.1-0.1-0.1-0.6,0-0.7
		c0.5-0.6,1-1.2,1.6-1.9C209.6,137.7,209.9,138,210.3,138.5z M208.7,136.7c-2.1,2-2.1,2-3,1.3c0.6-0.7,1.2-1.4,1.9-2.2
		C208,136.2,208.3,136.4,208.7,136.7z M204.9,137.5c-0.4-0.2-0.9-0.5-1.5-0.8c2-2.6,2.1-2.6,3.4-1.4
		C206.3,136.1,205.6,136.8,204.9,137.5z M209.1,132.5c-0.2,0.3-0.5,0.6-0.6,0.9c-0.6,1-1.2,1.3-2.3,0.6c-1-0.6-2.1-0.8-3.4-1.2
		c0.5-0.4,0.8-0.7,1.2-1c0-0.1-0.1-0.2-0.1-0.3c-0.6,0.2-1.2,0.4-1.9,0.6C203.8,130.1,205.3,130.1,209.1,132.5z M192.6,133
		c1.3-0.4,2.8-0.4,4.2-0.2c2.6,0.3,5.3,0.8,7.9,1.2c0,0.1,0,0.3,0.1,0.4c-0.5,0.6-1,1.3-1.7,1.7c-0.3,0.2-1,0-1.4-0.2
		c-1.8-0.9-3.7-1.7-5.8-1.7c-3.5,0.1-6.5,1.4-8.7,4.2c-0.4,0.5-0.8,0.9-1.2,1.3C187,136.2,189.3,134,192.6,133z M185.6,141.5
		c1.3-2,2.7-3.9,4.8-5.2c2.9-1.7,5.8-2.1,8.9-0.6c2,1,4,1.9,5.8,3c4.2,2.7,5.9,7.1,4.5,11.8c-1.2,4.1-4.5,7.5-9.9,7.6
		c-0.5,0-1.1,0-1.6,0c-4.1,0.1-7.6-1.3-10.7-4C183.6,150.8,182.9,145.8,185.6,141.5z M169.7,175.4c-0.2,0.3-0.4,0.6-0.6,0.9
		c-0.2,0.4-0.3,0.8-0.5,1.2c-0.2-0.1-0.4-0.2-0.4-0.2c0.4-1.5,0.5-3.1,1.6-4.3c4-4.5,8-9,12.1-13.5c1.5-1.7,3-3.3,4.7-4.9
		c-0.2,0.5-0.4,1-0.6,1.5c0.1,0.1,0.2,0.1,0.3,0.2c0.4-0.3,0.8-0.6,1.1-1c0.1,0.1,0.1,0.1,0.2,0.2c-0.2,0.4-0.5,0.9-0.8,1.4
		c1,0.3,1.2-1.4,2.3-0.2c-0.5,0.4-1.1,0.9-1.6,1.4c-4.1,4.6-8.3,9.2-12.3,13.9c-1.2,1.3-2.1,2.8-3.2,4.2c-0.2,0.2-0.4,0.6-0.5,0.6
		c-1.3-0.1-1.1,1-1.5,1.8c-0.2,0-0.4,0-0.5-0.1c-0.1-0.1-0.2-0.2-0.4-0.3c0.4-0.8,0.7-1.6,1.1-2.4
		C170,175.6,169.9,175.5,169.7,175.4z M157,134.5c0.6,0,1.2-0.1,1.8,0c4.7,0.9,9.5,1.8,14.2,2.7c3.4,0.7,6.8,1.4,10.3,2.1
		c0,0.2,0,0.3,0,0.5c-0.5,0-1,0.1-1.5,0c-7.5-1.4-14.9-2.7-22.4-4.1c-0.8-0.2-1.6-0.4-2.5-0.5C157,134.9,157,134.7,157,134.5z
		 M157.5,136c3.9,0.7,7.9,1.3,11.8,2c3.1,0.6,6.1,1.3,9.1,1.9c1.8,0.4,3.7,0.7,5.7,1.2c-0.2,1-0.4,2-0.6,3
		c-9.3-1.4-18.4-2.9-27.6-4.3c0-0.2,0.1-0.4,0.2-0.9c-0.7,0.2-1.2,0.4-1.8,0.6c-0.1-0.1-0.2-0.2-0.2-0.3c0.6-0.5,1.2-1.1,1.7-1.6
		c-0.1-0.1-0.2-0.2-0.2-0.3c-0.6,0.4-1.3,0.8-1.9,1.2c0,0-0.2-0.1-0.1-0.2C154,137.1,156.3,135.8,157.5,136z M153.4,143.4
		c1.1,1.6-0.5,1.7-1,2.4C151.6,144.5,153,144.3,153.4,143.4z M153.8,145.6c0.5,1.1,0.4,1.3-1.4,2.6C152.3,147,152.3,147,153.8,145.6
		z M154.1,147.8c0.4,1.7,0.4,1.8-1.3,2.9C152.1,149.1,153.6,148.7,154.1,147.8z M154.6,150.2c0.7,1.6-0.9,2.1-1.4,3
		C152.6,151.7,152.6,151.7,154.6,150.2z M153.2,153.2c1,0.6,1.1-0.8,1.7-0.9c0.7,1.1,0.6,1.3-1.5,2.7
		C153.4,154.4,153.3,153.8,153.2,153.2z M155.8,154c0.6,1.7-1.1,1.9-1.5,3C153.7,155.9,153.9,155.4,155.8,154z M155.3,159.3
		c-1.1-1.5-1-1.3,0.7-3C155.7,157.3,155.5,158.3,155.3,159.3z M154.3,140.6c9.3,0.7,18.2,2.4,27.1,4c0,0.1,0,0.3,0,0.4
		c-8,3.4-16,6.9-24.2,10.4C154.9,150.9,154.8,145.7,154.3,140.6z M179.2,147.3l-8.9,3.6c0-0.1-0.1-0.2-0.1-0.3
		c2.9-1.2,5.9-2.4,8.8-3.6C179.1,147,179.2,147.2,179.2,147.3z M167.1,152.3c-1.7,0.7-3.4,1.4-5.2,2.1c0-0.1-0.1-0.2-0.1-0.3
		c1.7-0.7,3.4-1.4,5.1-2.1C167,152.1,167.1,152.2,167.1,152.3z M156.9,159.5c0.9-1.1,1.5-2.6,2.7-3.2c3.2-1.7,6.7-2.9,10-4.3
		c4.3-1.8,8.5-3.5,12.8-5.2c0.2-0.1,0.4-0.1,0.7,0c-0.3,0.3-0.7,0.6-1.2,1.1c0.6,0,0.9-0.1,1.3-0.1c0.1,0.1,0.1,0.1,0.2,0.2
		c-0.5,0.4-1,0.8-1.5,1.2c0,0.1,0.1,0.2,0.1,0.3c0.4-0.1,0.9-0.3,1.3-0.4c0.2,1-2.2,0.6-1.1,1.7c-7.6,3.3-15.2,6.6-22.9,10
		c0-0.1-0.1-0.3-0.1-0.9c-0.6,0.5-1,0.9-1.4,1.3c-0.1-0.1-0.2-0.1-0.3-0.2c0.4-0.7,0.9-1.5,1.3-2.2c-0.1-0.1-0.1-0.2-0.2-0.2
		c-0.5,0.5-1,0.9-1.6,1.4C157,159.9,156.9,159.6,156.9,159.5z M157.8,162.8c0.1-0.2,0.7-0.2,0.7-0.2c0.2,0.2,0.3,0.7,0.2,0.9
		c-0.3,0.5-0.8,0.9-1.2,1.4C156.7,164,157.3,163.4,157.8,162.8z M158.6,167c-1-1.1-0.9-1.3,0.6-2.7C159.9,165.9,159.9,166,158.6,167
		z M162.1,170.4c0.2,0.3,0.5,0.6,0.8,1c-0.3,0.5-0.6,0.9-0.8,1.3C160.8,171.7,160.9,171.6,162.1,170.4z M163.3,174.4
		c-1-0.9-1-0.9,0.2-2.3c0.3,0.4,0.6,0.7,0.9,1.1C163.9,173.7,163.6,174,163.3,174.4z M165.4,177c-0.1,0-0.3,0-0.4,0
		c-0.1-0.4-0.3-0.8-0.1-1c0.4-0.5,0.6-1.4,1.7-0.7C166.2,175.9,165.8,176.4,165.4,177z M159.3,161.9c2.8-1.3,5.5-2.7,8.3-4
		c3.1-1.4,6.3-2.9,9.5-4.2c2.2-0.9,4.4-1.6,6.6-2.3c0.2-0.1,0.7,0.2,0.9,0.4c0.4,0.5,0.7,1,1.2,1.7c-5.9,7.2-11.9,14.3-18.6,21
		C163,171.3,160.8,167,159.3,161.9z M167.8,179c0.5-0.1,1-0.1,1.5-0.2c0,0.2,0.1,0.3,0.1,0.5c-0.2,0.3-0.5,0.7-0.9,1.4
		C168.2,180,168,179.5,167.8,179z M169.1,181c0.7-0.7,1.2-1.3,1.8-1.9c0.5,0.3,0.9,0.5,1.4,0.9c-0.5,0.7-1,1.3-1.6,2.1
		C170.1,181.7,169.7,181.4,169.1,181z M171.3,182.6c0.5-0.7,1-1.3,1.6-2.2c0.5,0.5,0.9,0.9,1.2,1.2c-0.6,0.7-1,1.2-1.5,1.8
		C172.2,183.2,171.8,183,171.3,182.6z M173.3,183.9c0.4-0.6,0.8-1.1,1.2-1.6c0.5,0.3,0.9,0.6,1.4,0.9c-0.5,0.5-0.9,0.9-1.3,1.4
		C174.2,184.3,173.8,184.1,173.3,183.9z M175.2,185c0.6-0.6,1-1.1,1.6-1.6c0.5,0.3,0.9,0.5,1.3,0.8c-0.5,0.6-0.9,1.1-1.5,1.6
		C176.2,185.6,175.8,185.3,175.2,185z M177.4,186.1c0.6-0.6,1-1.1,1.5-1.6c0.6,0.3,1.2,0.6,1.8,0.9c-0.5,0.6-0.9,1.1-1.4,1.7
		C178.8,186.8,178.1,186.5,177.4,186.1z M225.6,183.6c-4,2.2-7.8,5-12.3,6.2c-3.9,1.1-7.9,1.6-12,1.4c-4.1-0.2-8.2-0.3-12.2-0.9
		c-3-0.5-5.9-1.7-9-2.7c1.5-2.1,1.7-2.2,3.6-1.4c1.4,0.6,2.7,1.1,3.8,2.2c0.9,1,2.4,0.9,3.7,0.7c0.8-0.1,1.5-0.3,2.3-0.3
		c2.5,0,5.1,0.4,7.6,0.2c3.9-0.3,7.7-1,11.6-1.4c0.3,0,0.7,0,1,0c1.5,0.2,2.8-0.1,3.9-1.2c0.4-0.4,0.9-0.6,1.4-0.8
		c2.2-0.8,4.4-1.6,6.7-2.4C225.6,183.5,225.6,183.6,225.6,183.6z M219.5,184.4c-2.5-6.3-5-12.7-7.5-18.9c-0.5,0.1-1.2,0.3-2.1,0.5
		c0.7,2.1,1.3,4.3,2.1,6.4c1.4,3.9,3,7.8,4.4,11.7c0.7,1.9,0,2.9-2,2.9c-0.7,0-1.1-0.2-1.3-0.9c-0.3-1.3-0.7-2.5-1.1-3.8
		c-1.3-3.7-2.5-7.4-3.8-11c-0.1-0.4-0.4-0.8-0.8-1c1.8,5.5,3.5,10.9,5.3,16.3c-1.8,1.4-16.5,2.5-19.6,1.5c1.5-6.3,3.1-12.6,4.5-18.5
		c-0.6,0.7-0.6,0.7-2-0.1c-1.6,6.4-3.1,12.8-4.7,19.3c-0.5,0-1,0-1.5-0.1c-1.8-0.3-1.9-0.7-1.4-2.5c0.8-3.3,1.4-6.6,2.1-9.8
		c0.3-1.6,0.7-3.2,1.1-4.8c0.1-0.5,0.1-0.9,0.2-1.4c-0.1,0-0.2-0.1-0.4-0.1c-0.2,0.3-0.4,0.5-0.5,0.8c-1,4.8-2,9.6-3,14.4
		c-0.1,0.5-0.4,1-0.6,1.4c-5.7-1.9-11.4-3.6-15.5-8.4c4-5.5,8.2-10.9,13.2-15.6c1.6-1.6,3.1-3.3,4.5-4.9c0.6-0.6,1-0.7,1.7-0.3
		c0.9,0.4,1.8,0.7,2.8,1.1c-0.4,1.4-0.7,2.7-1.1,4.1c1.8-0.7,1-3,2.4-3.8c0.1,0.1,0.2,0.1,0.3,0.2c-0.2,0.6-0.5,1.2-0.7,1.7
		c0.1,0.1,0.2,0.1,0.3,0.2c0.5-0.6,0.9-1.2,1.4-1.7c0.1,0.1,0.2,0.1,0.2,0.2c-0.3,0.3-0.5,0.7-0.9,1.2c1.5,0.5,1.4-1.4,2.4-1.4
		c-0.1,0.6-0.1,1.3-0.2,1.9c0.3-0.3,0.6-0.5,0.9-0.8l0.5,0.4c0,0.4,0.1,0.9,0.1,1.3c0.1,0,0.2,0.1,0.3,0.1c0.2-0.7,0.5-1.4,0.7-2.1
		c0.2-0.7,2-1.8,2.6-1.5c0.3,0.1,0.5,0.4,0.6,0.7c0.3,0.7,0.4,1.4,0.6,2.1c0.1,0.3,0.4,0.5,0.6,0.8c0.3-1.6,0.6-3.1,0.8-4.5
		c0.1,0,0.2,0,0.3,0c0,0.6,0.1,1.1,0.1,1.7c0.1,0,0.3,0,0.4,0c0.2-0.8,0.4-1.6,0.6-2.5c0.2,0.2,0.4,0.4,0.4,0.6
		c-0.3,2.4,1.9,4,1.8,6.4c0.2,0,0.4-0.1,0.5-0.1c-0.1-0.9-0.2-1.7-0.3-2.9c0.6,0.5,0.8,0.7,1.2,1c0.1-0.2,0.3-0.4,0.2-0.5
		c-0.3-1.3-0.5-2.6-1-3.8c-0.3-0.9-0.3-1.5,0.5-2.2c0.4-0.3,0.8-0.8,1.4-1.5c4,3.6,8.2,6.8,11.8,10.7c3.6,3.9,6.5,8.4,9.7,12.6
		C230.6,180.3,224.9,183.4,219.5,184.4z M233.9,176.7c-1.6-2.1-3-3.9-4.3-5.9c-2-3-4.2-5.9-6.8-8.3c-3.2-2.9-6.5-5.7-9.8-8.6
		c-1-0.9-1.4-2.8-0.8-3.9c0.2,0.5,0.3,1,0.4,1.4c0.1,0.4,0.3,0.8,0.5,1.3c0.1,0,0.2-0.1,0.4-0.1c-0.1-0.8-0.3-1.6-0.4-2.4
		c0.1,0,0.2-0.1,0.3-0.1c0.2,0.4,0.4,0.7,0.5,1.1c0.2,0.4,0.3,0.8,0.7,1.1c0.1-0.2,0.2-0.5,0.2-0.6c7.5,6.9,15,13.8,22.8,20.9
		C236.4,173.8,235.2,175.2,233.9,176.7z M225.1,160.3c1.1-0.8,1.1-0.8,1.9,0.3C225.8,161.1,225.8,161.1,225.1,160.3z M233.3,167.4
		c1.2-0.9,1.4-0.9,2.2,0.5C234.5,168.8,233.8,168.3,233.3,167.4z M239.3,168.9c-3.2-1.6-5.7-3.8-8.2-6.1c-2.4-2.2-4.9-4.1-7.3-6.3
		c-2.9-2.6-5.6-5.4-8.4-8.1c-0.3-0.3-0.4-0.9-0.6-1.3c0.5-0.1,1-0.3,1.5-0.2c3.1,0.4,6.2,0.9,9.2,1.4c3,0.5,6.1,1,9.1,1.5
		c3.2,0.5,6.3,1.1,9.7,1.6C243.3,157.4,241.6,163.2,239.3,168.9z M243.1,149.8c0.4,0,0.7-0.1,1.4-0.2c-0.3,0.3-0.4,0.7-0.6,0.7
		c-1.2-0.1-2.4-0.2-3.6-0.4c-7.3-1.2-14.6-2.4-21.9-3.5c-1-0.2-2.1-0.2-3.3-0.3c0.3-0.4,0.5-0.7,0.7-0.9c-0.1-0.1-0.2-0.2-0.2-0.3
		c-0.6,0.4-1.3,0.8-1.9,1.2c-0.1-0.1-0.2-0.2-0.3-0.4c0.7-0.5,1.3-1,2-1.5c-0.1-0.1-0.2-0.3-0.3-0.4c-0.7,0.4-1.3,0.8-2.1,1.3
		c0-0.3-0.1-0.7,0-0.7c1.1-0.7,1.8-2.1,3.4-1.9c3.5,0.5,7,0.9,10.4,1.3c1.5,0.2,3.1,0.2,4.6,0.6c4,0.9,8,1.8,12.1,2.8
		c0.1,0,0.2,0.1,0.4,0.2c-0.5,0.3-0.9,0.6-1.3,0.9c0,0.1,0.1,0.2,0.1,0.2c0.6-0.2,1.1-0.3,1.7-0.5l0.2,0.3c-0.5,0.5-1.1,1-1.6,1.4
		C243.1,149.6,243.1,149.7,243.1,149.8z M243.1,145.9c-1.1-0.1-2.2-0.4-3.3-0.7c-4.1-1.3-8.4-1.8-12.6-2.3c-4-0.5-8-1.1-12-1.9
		c0.9-0.2,1.8-0.5,2.7-0.4c5,0.4,10,0.8,15,1.5c3.7,0.5,7.4,1.4,11.2,2.2c-0.2,0.3-0.5,0.5-0.9,0.9c0.5,0.1,0.9,0.1,1.6,0.2
		C244.1,145.6,243.6,146,243.1,145.9z M215.3,139.9c-0.5-1.2-1-2.2-1.5-3.6c8-4.2,16.1-8.4,24.3-12.6c3.8,6,6.7,12.3,6.6,19.9
		C234.8,141.6,225.1,139.8,215.3,139.9z"/>
	<path d="M224.7,194c0,1-0.8,1.6-1.6,1.8c-4.1,1-8.2,1.9-12.3,2.7c-0.5,0.1-1-0.1-1.4-0.3c2-0.4,4.1-0.7,6.1-1.2
		c1.9-0.4,3.8-0.9,5.6-1.5C222.3,195.2,223.4,194.6,224.7,194z"/>
	<path d="M240.1,174.1c1.9-3,4.3-5.7,4.9-9.4C245.8,166.8,243,172.3,240.1,174.1z"/>
	<path d="M162.8,186.1c-2.5-2.2-4.9-4.5-5.8-8.1C159,180.9,160.9,183.5,162.8,186.1z"/>
	<path d="M244.2,171.8c-1.3,2.4-3,4.6-4.9,6.6c-0.1-0.1-0.3-0.2-0.4-0.3c0.3-0.4,0.5-0.8,0.8-1.2c1.4-1.8,2.7-3.6,4.1-5.4
		C244,171.6,244.1,171.7,244.2,171.8z"/>
	<path d="M246.8,133.4c1.9,2.2,1.5,5,1.9,7.6c-0.1,0.1-0.3,0.1-0.4,0.2c-0.2-0.4-0.4-0.7-0.5-1.1c-0.1-0.7-0.2-1.3-0.2-2
		c0-1.4-0.3-2.7-1.1-3.9c-0.1-0.2-0.1-0.4-0.1-0.7C246.5,133.5,246.6,133.4,246.8,133.4z"/>
	<path d="M161,181.5c0.3,0.2,0.5,0.4,0.8,0.7c0.9,1,1.7,2.1,2.6,3.1c0.8,0.9,1.7,1.7,1.8,3.2c-1-1.1-1.8-2.1-2.6-3.1
		c-0.8-1-1.7-2-2.5-3c-0.1-0.2-0.1-0.4-0.2-0.6C160.9,181.6,161,181.5,161,181.5z"/>
	<path d="M163.7,181.9c-2.2-1.9-2.6-5.5-5.8-6.4c1.1-0.2,1.9,0.1,2.5,0.9c1.2,1.7,2.3,3.4,3.5,5.2
		C164,181.6,163.8,181.7,163.7,181.9z"/>
	<path d="M148.5,124.5c-0.7,2.6-1.3,5.2-2,7.8C146,131.4,147.3,125.7,148.5,124.5z"/>
	<path d="M221.9,192.2c-0.6,1.2-5,3.3-6.4,3C217.7,194.2,219.7,193.2,221.9,192.2z"/>
	<path d="M148.5,129.1c0.1-2.3,0.9-4.6,2.2-6.1c-0.6,2.2-1.2,4.2-1.8,6.2C148.7,129.2,148.6,129.1,148.5,129.1z"/>
	<path d="M220.1,194.5c1.4-0.8,2.9-1.5,4.3-2.3c0.1,0.1,0.1,0.2,0.2,0.3c-1,1.5-2.7,1.8-4.2,2.4
		C220.3,194.8,220.2,194.6,220.1,194.5z"/>
	<path d="M249.4,142.4c0-1.6,0-3.1,0-4.8c0.7,1.1,0.8,1.4,0.3,4.8C249.6,142.4,249.5,142.4,249.4,142.4z"/>
	<path d="M171.8,189.6c-1.9-0.3-3.2-1.3-4.3-2.7c0.1-0.1,0.2-0.2,0.3-0.3c0.7,0.5,1.3,1.1,2,1.6
		C170.4,188.7,171.1,189.1,171.8,189.6z"/>
	<path d="M197.2,165.1c-0.3-0.5-0.4-1.3,0.7-2c-0.1,0.7-0.2,1.4-0.2,2.2c0.3,0.2,0.7,0.4,1,0.6c0.3,1.9-1.6,1.3-2.2,2.2
		c-0.1-0.1-0.2-0.1-0.4-0.2C196.5,167.1,196.8,166.2,197.2,165.1z"/>
	<path d="M193.5,170.3c0.3,2.2-0.1,4.4-0.9,6.4c-0.1,0-0.3,0-0.4-0.1c0.3-2.1,0.7-4.3,1-6.4C193.3,170.3,193.4,170.3,193.5,170.3z"
		/>
	<path d="M205.3,162.8c0.6,1.9,1.1,3.8,1.7,5.7c-0.1,0-0.3,0.1-0.4,0.1c-0.9-1.8-1.5-3.7-1.7-5.7C205,162.9,205.1,162.8,205.3,162.8
		z"/>
	<path d="M192.1,174.1c-0.4,1.7-0.8,3.4-1.3,5.3C190.3,178.5,191.1,175.2,192.1,174.1z"/>
	<path d="M191.3,168c0.3-1.3,0.6-2.5,1-3.8c0.4,1.5,0.3,2.4-0.6,3.9C191.5,168,191.4,168,191.3,168z"/>
	<path d="M202.6,153c-0.7,0.7-1,1.8-2,2.2c-0.1-0.1-0.2-0.1-0.3-0.2c0.9-1.3,1.8-2.6,2.7-4c-2.1,0.9-2.3,3.5-4.2,4.5
		c-0.1-0.1-0.2-0.2-0.3-0.2c0.5-0.7,1-1.4,1.5-2.2c-1.8,0.2-2.5,1.6-3.5,2.7c-0.1-0.1-0.2-0.1-0.3-0.2c0.2-0.5,0.5-1.1,0.7-1.7
		c-1.4-0.4-1.7,1-2.6,1.7c-0.6-0.9,0.4-1.2,0.5-1.7c-1.4-1.1-1.8,0.7-2.7,1.1c-0.1-0.1-0.2-0.2-0.2-0.2c0.2-0.5,0.5-0.9,0.7-1.4
		c-1.2-1.1-1.5,0.8-2.7,0.8c0.3-0.4,0.5-0.7,0.6-1.1c0.1-0.3,0.1-0.6,0.3-1.2c-0.9,0.6-1.5,1-2,1.4c-0.1-0.1-0.2-0.2-0.3-0.3
		c0.4-0.4,0.8-0.9,1.2-1.3c-0.9-1.3-1.2,0.9-2.2,0.2c0.4-0.5,0.7-0.9,1.1-1.4c-0.1-0.1-0.1-0.2-0.2-0.2c-0.4,0.2-0.8,0.4-1.2,0.6
		c-0.1-0.1-0.1-0.1-0.2-0.2c0.3-0.3,0.5-0.6,0.8-1c-0.8-2.7-0.7-5.4,0.3-8.1c1.5-4,5.2-6,9.4-4.9c2.7,0.7,5.1,1.9,6.9,4.2
		c0.3,0.4,1,0.4,1.6,0.7c-0.1,0.3-0.3,0.9-0.6,1.6c0.5-0.1,0.8-0.2,1.2-0.2c-0.4,1.1-0.7,2.1-1,3c0.1,0,0.2,0.1,0.3,0.1
		c0.4-0.5,0.7-1,1.1-1.5c0.1,0.1,0.3,0.1,0.4,0.2c-0.3,0.8-0.6,1.7-0.9,2.5C205.2,149.3,203.9,151.1,202.6,153z M193.5,139.7
		c-1.6-0.3-1.7,0.4-3.1,1.3c-2.3,1.5-2.6,6.4-1.8,8c1.6,3,6.9,5.1,10.1,3.8c0.4-0.2,0.8-0.4,1.1-0.7c0.8-0.8,1.6-1.7,2.3-2.6
		c0.7-0.9,0.8-1.9,0.5-3C201.3,142.1,198.2,139.7,193.5,139.7z M199.8,138.4c-3.5-2.3-8.6-1-9.9,2.1c1.9-1.7,4.1-2.2,6.3-1.1
		C197.7,140.1,198.8,139.6,199.8,138.4z M200.5,141.1c0.8,1.1,0.8,1.1,2.7-0.4C202.3,139.6,202.3,139.6,200.5,141.1z M201.8,139.4
		c-1.5-0.9-1.7-0.8-2.9,0.9C200.2,141.2,200.6,139.7,201.8,139.4z M204.2,141.9c-0.6-0.6-1.6-0.3-2.2,0.5c-0.1,0.2-0.1,0.5-0.1,0.8
		c0.3,0,0.6,0.1,0.7,0C203.2,142.8,203.6,142.3,204.2,141.9z M203.1,145c0.6-0.9,1.8-1,1.6-2.3C202.8,143.6,202.6,143.8,203.1,145z
		 M203.4,146.5c2.1-0.9,1.9-1,1.4-2.1C204.1,145,203.2,145.3,203.4,146.5z"/>
	<path d="M202.6,153c1.3-1.9,2.5-3.7,3.8-5.6c0.3-0.2,0.6-0.4,1-0.6c0.1,0.1,0.2,0.1,0.3,0.2c-0.7,1.1-1.5,2.3-2.2,3.4
		c-0.8,1.2-1.7,2.3-2.7,3.7C202.8,153.6,202.7,153.3,202.6,153z"/>
	<path d="M207.4,150.2c-0.7,0.9-1.3,1.8-2,2.8c-0.2-0.1-0.3-0.2-0.5-0.4c0.7-0.9,1.4-1.8,2-2.8C207.1,150,207.3,150.1,207.4,150.2z"
		/>
	<path d="M213.6,133.4c0.7-1.5,3.4-3,4.6-2.7C216.6,131.7,215.1,132.5,213.6,133.4z"/>
	<path d="M225.8,126.5c-1.1,0.6-2.2,1.3-3.3,1.9c-0.1-0.1-0.2-0.3-0.2-0.4c1-0.8,2.1-1.6,3.4-1.8
		C225.7,126.3,225.8,126.4,225.8,126.5z"/>
	<path d="M217,131.9c1.1-0.5,2.3-1,3.4-1.4c0.1,0.1,0.1,0.3,0.2,0.4c-1.1,0.5-2.2,1.1-3.3,1.6C217.2,132.3,217.1,132.1,217,131.9z"
		/>
	<path d="M228.1,126.7c-1,0.3-1.7,1.5-2.9,1.3c-0.1-0.1-0.1-0.3-0.2-0.4c1-0.5,1.9-0.9,2.9-1.4C227.9,126.3,228,126.5,228.1,126.7z"
		/>
	<path d="M168.7,154.8c1.7-0.8,3.3-1.6,5-2.4c0.1,0.2,0.1,0.3,0.2,0.5c-1.7,0.8-3.1,2.1-5,2.4C168.8,155.1,168.8,155,168.7,154.8z"
		/>
	<path d="M166.3,154.9c1.3-0.6,2.6-1.3,3.9-1.9c0.1,0.2,0.2,0.3,0.2,0.5c-1.2,0.8-2.5,1.6-3.9,1.9
		C166.4,155.2,166.3,155.1,166.3,154.9z"/>
	<path d="M194.9,150.3c-3.2,0-4.9-1.2-5.4-3.4c-0.4-1.7,0.3-3.9,1.8-4.9c2.1-1.5,5.4-1.4,7.4,0.4c1.9,1.6,2.1,4.1,0.5,6
		C197.9,149.7,196.5,150.6,194.9,150.3z M194.4,143.1c-1.1-0.1-1.8,0.7-1.9,1.9c-0.1,1.3,0.6,2.3,1.7,2.3c1.6,0,3.1-0.8,3.1-1.8
		C197.5,144.3,196.2,143.2,194.4,143.1z M199.1,144.9c-0.4,0.8-0.7,1.6-1.2,2.3c-0.4,0.5-0.9,1.1-1.4,1.4c-0.5,0.3-1.1,0.3-1.6,0.5
		c-0.3,0.1-0.6,0.2-1.1,0.4c0.3-0.6,0.5-1,0.6-1.3c-0.1,0-0.1-0.1-0.2-0.1c-0.5,0.4-0.9,0.8-1.6,1.3c2.4,0.7,4.2,0.2,5.8-1.3
		C199.2,147.3,199.8,146.3,199.1,144.9z"/>
</g>
<g>
	<path d="M195.6,67.3c0-0.6,0-1.1,0-1.5c-0.3-2.1-0.5-4.3-0.8-6.4c-0.3-1.7-0.2-3.4-0.3-5.1c0-2.4,0.6-4.7,1-7.1
		c0.3-1.9,0.5-3.7,0.8-5.6c0.2-1.9,0.4-3.9,0.5-5.8c0.1-2.5,0.3-5.1-0.2-7.6c0-0.2-0.1-0.4-0.1-0.6c-0.2-0.7-0.5-1.3-1.4-1.3
		c-0.5,0-0.9-0.2-1.4-0.2c-1.7,0-3.4-0.1-5.1,0c-2.7,0-4.6-1.2-5.9-3.4c-1.4-2.3-1.8-4.9-1.7-7.5c0.1-1.5,0.7-1.9,1.9-1.9
		c2.6,0,5.3,0.1,7.9,0.6c1.2,0.2,2.4,0.3,3.6,0.4c0.5-1,1.1-2,1.6-3c0.1-0.2,0.2-0.4,0.4-0.6c1.1-1.2,1.4-1.5,3.1-0.5
		c0.4,0.2,0.7,0.5,0.9,0.6c1.3-0.4,2.4-0.8,3.6-1.2c0.7-0.3,1.3,0,1.7,0.5c1,1.2,1.2,2.6,1.4,4.2c0.3,0,0.8-0.1,1.3,0
		c0.7,0.1,1.4,0.2,2,0.5c0.8,0.3,1.2,1,1.3,1.9c0.3,2.4-0.6,4.5-1.8,6.5c-0.3,0.4-0.7,0.7-1.2,1c-0.8,0.5-1.5,0.9-2.3,1.3
		c-1.8,1-2.6,2.6-2.9,4.5c-0.6,3.7-0.4,7.4-0.2,11.1c0.1,3.2,0.7,6.4,1,9.6c0.3,2.4,0.6,4.7,0.9,7.1c0.3,2.3,0.6,4.6,0.8,6.8
		c0.1,0.7,0,1.4,0,2c1.7-0.1,3.2-0.3,4.7-0.3c1.9,0,3.7,0.4,5.5,1c1.4,0.5,2.2,1.5,2.8,2.8c0.3,0.7,0.6,1.5,0.8,2.2
		c0.4,1.2,0.4,1.3,1.6,1.3c3,0.1,5.7,0.9,8.4,2.1c2.5,1.2,4.1,3.1,5.3,5.5c0.8,1.7,1.6,3.5,1.9,5.4c0.1,0.6,0.2,1.1,0.3,1.7
		c0.3,0.1,0.5,0.2,0.8,0.2c1.4,0.4,2.5,1.1,3.3,2.3c0.3,0.5,0.7,0.8,1.3,0.9c2.8,0.3,4.8,1.9,6,4.3c0.4,0.8,0.8,1.6,1.2,2.5
		c0.7-0.2,1.4-0.5,2.1-0.7c1.9-0.5,3.8-1,5.8-1.1c1.4-0.1,2.9,0.2,4.2,0.9c2.4,1.2,4.7,2.6,6.5,4.6c0.7,0.7,1.2,1.5,0.7,2.6
		c-0.6,0.2-1.2,0.1-1.9-0.1c-1.8-0.5-3.5-0.9-5.3-1.4c-1.8-0.5-3.5-0.4-5.3,0c-1.4,0.4-2.8,0.8-4.2,1.2c-0.7,0.2-1.1,0.6-1.3,1.3
		c-0.6,2.7-2.2,5-3.9,7.1c-3.8,4.8-8.5,8.4-14.1,10.8c-2.5,1.1-5.1,1.8-7.8,2.3c-2.7,0.5-5.5,0.3-8.2,0.2c-2-0.1-3.9-0.5-5.9-0.7
		c-2.6-0.2-5.2-0.1-7.7,0.6c-2.8,0.8-5.7,1.5-8.5,2.3c-2.8,0.7-5.6,1.3-8.5,1c-0.8-0.1-1.7-0.2-2.5-0.5c-2.2-0.7-4.3-1.5-6.5-2.4
		c-2.3-0.9-4.8-1.3-7.2-1.7c-4.6-0.7-9.2-1.4-13.6-2.6c-3.5-0.9-6.2-3-8.4-5.8c-0.8-1-1.4-2-2-3.1c-1-1.7-1.1-3.5-0.7-5.4
		c0.3-1.9,0.7-3.8,1.6-5.5c0.3-0.5,0.6-1.1,1-1.6c0.8-1,1.8-1.6,3-1.5c0.7,0,1.4,0,2.3,0c-0.5-0.7-1-1.3-1.4-1.9
		c-0.7-1.1-1.4-2.3-2.1-3.5c-1.5-2.5-1.5-5.1-0.6-7.7c0.6-1.7,1.3-3.4,2.1-5.1c0.4-0.8,1-1.5,1.6-2.2c1.4-1.6,3.2-1.6,5.1-1.3
		c1.6,0.2,3.1,0.7,4.7,1c0.3-0.5,0.6-1,1-1.5c0.8-1.3,1.7-2.6,2.9-3.6c1.8-1.6,3.9-2.4,6.3-2.5c0.4,0,0.8,0,1.3,0
		c0.5-0.8,0.9-1.7,1.5-2.4c1.8-2.5,4.3-4,7.2-4.9c1.2-0.4,2.4-0.2,3.6,0c2.5,0.4,4.8,1.1,7.1,2.2C194.4,66.6,194.9,67,195.6,67.3z
		 M196,24.6c0-0.2-0.1-0.3-0.1-0.6c-1.2,0.4-2.3,0.8-3.4,1.2c1,0.1,2.1,0.4,3-0.1c0.1,0.8,0.8,0.7,1.3,0.6c0.6-0.1,1.1-0.4,1.7-0.7
		c0.9-0.5,1.6-1.5,1.9-2.4c-0.8,0.5-1.6,0.9-2.4,1.3C197.3,24.2,196.6,24.4,196,24.6z M184.7,18.3c0.2,0.1,0.4,0.2,0.6,0.2
		c0.9-0.8,0.4-1.7,0.3-2.5c0.4,0.1,0.6,0.7,1.2,0.5c1.9-0.5,3.8-0.6,5.7-0.6c0.7,0,1.5-0.1,2.2-0.1c0.2,0,0.5,0,0.7,0.2
		c0.7,0.5,1.3,0.3,2-0.1c0.8-0.5,1.6-1,2.4-1.5c0.7-0.5,1.4-1,2.1-1.4c0.6-0.3,1.2-0.8,2-0.6c-0.3,0.7,0.3,1.2,0.5,1.8
		c0.2,0.6,0.4,1.2,0.6,1.9c-2.7,2.2-3.8,2.3-7,0.4c0,0.2-0.1,0.4-0.1,0.5c-0.3-0.1-0.6-0.3-0.8-0.2c-0.7,0.3-1.2,0.2-1.8-0.3
		c-0.2-0.2-0.7-0.1-1.2-0.1c1.2,2.3,1.8,4.5,1.3,7c0.7,0,1.3,0.1,1.9,0c0.4-0.1,1-0.2,1.3-0.4c0.3-0.2,0.4-0.7,0.6-1.1
		c0.5,0.8,1.2,0,1.8,0.1c0.6,0.1,0.6-0.4,0.8-0.8c0.2,1.1,1,0.6,1.4,0.7c0.8-0.7,1.5-1.2,2.2-1.8c-0.1-0.2-0.3-0.4-0.3-0.5
		c0-0.3,0.1-0.5,0.2-0.8c0.4,0.4,0.6,1,1.1,1.3c0.4,0.2,0.6,0.7,0.6,1.4c-0.4-0.3-0.7-0.4-1.1-0.6c-0.2,0.5-0.4,0.9-0.6,1.3
		c0-0.3-0.1-0.5-0.1-1c-0.5,0.4-0.9,0.7-1.3,1c-0.4,0.4-0.8,0.4-1.3,0.4c-1.1-0.2-1.1-0.2-1.6,0.7c-0.5,0.9-1.2,1.6-2.1,2.1
		c-0.7,0.4-1.3,0.7-2,1.1c0.3,0.5,0.8,0.5,1.2,0.4c0.6-0.1,1.2-0.3,1.7-0.5c1.3-0.6,2.5-1.2,3.8-1.8c-0.1,0.2-0.1,0.5-0.2,0.6
		c-0.9,0.5-1.9,1.1-2.8,1.5c-1,0.4-2,0.5-3.1,0.7c0.2,0.9,1,1,1.7,0.9c0.6,0,1.2-0.1,1.8-0.2c0.9-0.2,1.8-0.6,2.6-0.9
		c0.8-1.4,2.3-1.9,3.4-3.1c0.2,0.4,0.4,0.2,0.6,0c0.3-0.3,0.5-0.6,0.8-0.8c0.1,0.1,0.3,0.2,0.3,0.2c0.3-0.2,0.6-0.4,0.8-0.7
		c0.9-1.6,1.4-3.4,1.4-5.2c0-1.5-0.8-2.2-2.1-2.2c-0.7,0-1.5,0-2.3,0c-0.1-0.3-0.1-0.4-0.1-0.6c0.1-0.9-0.2-1.8-0.6-2.6
		c-0.5-1.3-1-1.5-2.3-1.1c-2.1,0.6-4,1.6-5.3,3.5c-0.1,0.2-0.3,0.3-0.5,0.4c-0.1-0.1-0.1-0.1-0.2-0.2c0.8-1,1.5-2.1,2.4-3.2
		c-0.7-0.3-1.2-0.5-1.9-0.8c-1.2,1.2-2.3,2.4-2.3,4.3c-0.4,0-0.7,0-1.1,0.1c-3,0.1-5.9-0.3-8.8-0.5c-1-0.1-2-0.1-3-0.1
		c-0.6,0-1,0.3-1.1,0.9c-0.1,0.5-0.2,1,0.4,1.3c-0.2,3.2,1.1,5.8,3.6,7.9c-0.4-1.5-0.6-2.8-0.6-4.2C185,19.7,184.8,19,184.7,18.3z
		 M220.9,77.5c-0.2,0.6-0.7,1.1,0,1.7c-0.4,0.7-1.2,1.2-1.1,2.2c4.3-0.7,8.3-0.4,11.4,3.2c0.5-1.1,0.4-2.2,0.4-3.2
		c0.1-0.8-0.3-1.4-1-1.7c-2.8-1.6-5.6-2.2-8.7-0.8c-0.2,0.1-0.4,0.1-0.5,0.1c0.1-0.2,0.2-0.4,0.3-0.5c1-0.6,2-1,3.2-1
		c1.8-0.1,3.6,0.3,5.2,1.3c0.4,0.2,0.8,0.4,1.2,0.6c0.2-0.9-0.1-1.4-0.8-1.7c-1.4-0.7-2.9-1.3-4.4-1.9c-0.3-0.1-0.6-0.1-0.9-0.1
		c-1.4,0-2.6,0.8-3.8,1.3c0.2-0.7,0.8-0.9,1.3-1.1c0.4-0.2,0.9-0.3,1.5-0.5c-1.3-0.6-2.7-0.7-4-0.9c0.1,0.7,0.1,1.2,0.2,1.8
		c0,0.1,0,0.2,0,0.3C220.6,76.8,220.8,77.1,220.9,77.5z M170.5,76.9c0.7-0.3,1.4-0.7,2.1-1c0.4,0.2,0.8,0.3,1.2,0.4
		c0.1-1.4,0.2-2.6,0.4-4c-0.4,0.1-0.8,0.1-1,0.3c-1.4,0.9-2.3,2.2-2.9,3.7C170.3,76.5,170.5,76.7,170.5,76.9
		c-0.2,0.3-0.6,0.6-0.5,1.1c0.4,1.9,1.3,3.5,2.8,4.8c1-0.7,1.9-1.4,3.1-1.2c-0.2,0.1-0.4,0.3-0.6,0.3c-0.9,0.2-1.6,0.5-2.3,1.4
		c1.7,1.3,3.3,2.5,4.9,3.7c0.2,0.2,0.6,0.2,0.9,0.3c0.2,0.2,0.4,0.5,0.6,0.7c2.5,1.5,5.2,2.8,7.9,4c2.2,0.9,4.5,1.5,6.9,1.8
		c1,0.1,2.2,0.2,3.1-0.4c0-1.2,0-1.2-1.1-1.5c-1.4-0.3-2.7-0.7-4-1.1c-1.4-0.4-2.8-1-4.3-1.5c-0.3,0.5-0.6,0.9-0.9,1.3
		c-0.1,0-0.1-0.1-0.2-0.1c0.2-0.5,0.4-1,0.6-1.5c-2-1.1-4-2.2-6-3.2c-0.5,0.2-0.9,0.3-1.3,0.5c0.3-0.3,0.5-0.7,0.8-1
		c-1.1-0.8-2.1-1.6-3.1-2.4c-0.6-0.4-1.2-0.8-1.9-1.2c-0.2-0.4-0.5-0.8-0.7-1.1c-0.7-0.9-1.6-1.7-2-2.7c-0.5-1.1-1.1-1.4-2.2-1
		C170.8,76.9,170.7,76.9,170.5,76.9z M161.5,114.2c-0.2,0.3-0.4,0.5-0.6,0.8c-0.4,0.5-0.7,1-0.4,1.6c0.1,0.1,0.2,0.1,0.3,0.1
		c1.7,0.4,3.5,0.5,5.3,0.6c0.9,0,1.4-0.2,1.9-1c-1.6-0.9-3.3-1.7-4.9-2.5C162.5,114,162,114.1,161.5,114.2c0.2-0.3,0.5-0.6,0.8-0.8
		c-0.9-0.7-1.8-1.5-2.7-2.2c-0.3-0.2-0.8-0.3-1.1-0.3c-0.6,0-1.2,0.2-1.8,0.3c0.5-0.3,1-0.7,1.6-1c0,0,0-0.1-0.1-0.2
		c-1-1.3-1.8-2.7-2.1-4.4c-0.1-0.4-0.5-0.8-0.9-1c-1.2-0.5-2.5-1-4-0.6c1,3.1,2.2,6.1,3.9,8.9c0.8-1.3,0.8-1.3,1.6-1.6
		c-0.3,0.4-0.6,0.7-0.8,1.1c-0.3,0.5-0.5,1-0.1,1.6c1,1.5,2.2,2.7,4.2,2.9C160.2,115,160.4,114.7,161.5,114.2z M167.7,96.5
		c0.1-0.8-0.5-1-1-1.4c-1.2-1-2.3-2-3.5-2.9c0.2-0.2,0.3-0.3,0.4-0.5c-0.2-0.3-0.3-0.7-0.5-1c-0.2-0.2-0.5-0.5-0.8-0.5
		c-1.7-0.1-3.2,0.3-4.6,1.4c1.5,2.1,3.3,3.8,5.3,5.4c0.5,0.4,1.1,0.5,1.6,0.8c0.2,0.2,0.3,0.5,0.5,0.6c2.4,1.6,5.1,2.8,7.9,3.5
		c0.3,0.1,0.6,0.1,0.8,0c0.6-0.3,1.1-0.7,1.7-1.1c-2.3-1-4.4-2.2-6.4-3.7C168.7,96.8,168.3,96.4,167.7,96.5z M256,98.4
		c0.1,0.8,0.6,1.1,1.3,1.1c2.2,0,4.4,0.4,6.4,1.1c0.1,0,0.2,0,0.3-0.1c-0.1-0.1-0.1-0.2-0.2-0.3c-1.1-0.6-2.1-1.3-3.2-1.7
		C259.1,98,257.6,97.8,256,98.4c-0.7-0.5-1.2,0.2-1.8,0.2c0.3,2-0.2,2.8-2.2,3.2c-0.3,0.1-0.7,0.1-1.1,0.2c0.3,0.8,0.2,1.7,0.7,2.2
		c1.7-0.6,3.4-1.1,5-1.6c1.8-0.6,3.7-0.6,5.5-0.1c1.8,0.5,3.6,1.1,5.3,1.7c0.2,0.1,0.5,0,0.7,0c0-0.1,0.1-0.2,0.1-0.3
		c-1.1-1-1.8-2.6-3.8-2.5c-0.2,0-0.4-0.1-0.7-0.2c-2-0.8-4.1-1.2-6.3-1.1c-0.4,0-0.9-0.1-1.3-0.3C255.6,99.5,255.6,99.1,256,98.4z
		 M203.1,54.9c0.1-0.3,0.3-0.5,0.3-0.8c0-0.4,0.2-0.8-0.6-0.9c-0.6-0.1-1.1-0.7-1-1.6c0.5,0.2,0.5,1.2,1.4,1.1c0.1-1,0-2-0.2-3
		c-0.2-1,0-2-0.2-2.9c-0.2-1,0.1-2-0.4-3.1c-0.2,0.5-0.4,0.7-0.5,1c-0.5,1.6-0.3,3.2-0.2,4.7c0,0.8,0.1,1.6,0.2,2.4
		c-0.1-0.1-0.3-0.3-0.3-0.4c-0.4-1.7-0.2-3.4-0.3-5.2c-0.1-1.3,0.4-2.4,1.3-3.1c-0.4-1.1-0.8-2.2-1.1-3.1c-0.2,2.5-0.4,5.2-0.6,7.9
		c-0.2,3.4,0,6.9,0.3,10.3c0.2,2.5,0.6,5,0.8,7.5c0.2,2.4,0.1,4.8,0,7.2c0,0.4-0.1,0.7-0.2,1.1c-0.1,0.7-0.2,1.3-0.4,2.1
		c0.6,0,1,0,1.1-0.6c0.1-0.6,0.2-1.2,0.3-1.8c0.1-1.2,0.3-2.3,0.2-3.5c0-1.3,0.6-2,1.8-2.3c0.1,0,0.1-0.1,0.3-0.2
		c-0.1-0.3-0.1-0.7-0.2-1.1c-1.3,0.1-1.8-0.5-1.9-1.6c-0.1-1.5-0.8-2.9-0.6-4.5c0.1-1-0.1-1.9-0.2-2.9c0-0.9,0.4-1.7,0.9-2.4
		c-0.1,0.6-0.3,1.2-0.3,1.8c0,2.4-0.2,4.9,0.3,7.3c0.1,0.5,0.3,1.1,0.5,1.6c0.2,0.4,0.6,0.6,1,0.3c0.2-0.1,0.3-0.5,0.4-0.8
		c0-0.4-0.2-0.7-0.2-1.1c-0.3-2.8-0.6-5.6-0.9-8.4C203.6,55.4,203.6,55,203.1,54.9z M148.2,113.9c0.1,0.3,0.2,0.7,0.4,1
		c0.6,0.9,1.3,1.8,2,2.6c2,2.3,4.6,3.8,7.7,4.3c1,0.2,2,0.4,3,0.5c0.8,0.1,1.6,0.2,2.6,0.3c-0.3-0.8-0.5-1.5-0.8-2.1
		c-0.2-0.3-0.5-0.6-0.8-0.8c-0.8-0.4-1.6-0.7-2.5-1c-2.4-0.7-4.6-1.8-6.4-3.6c-0.7-0.7-1.6-1.3-2.4-2c-0.8-0.6-1.5-0.5-2.2,0.2
		C148.6,113.6,148.4,113.8,148.2,113.9c0.5-1.8,1.8-2.3,3.2-1.1c0.7,0.6,1.5,1.2,2.1,1.8c1.7,1.6,3.6,2.8,5.8,3.5
		c0.8,0.3,1.6,0.5,2.4,0.7c1,0.3,1.6,0.9,1.9,1.9c0.2,0.6,0.3,1.3,0.5,1.9c0.6,0.1,1.2,0.2,1.9,0.3c0.1-0.3,0.1-0.4,0.1-0.5
		c0.2-1.4,0.6-1.9,1.9-2.2c0.3-0.1,0.6-0.1,1-0.1c2.9,0,5.7-0.2,8.6,0.2c1.7,0.2,3.4,0.4,5.1,0.9c0.4,0.1,0.8,0.3,1.1,0.5
		c1.2,0.7,1.8,1.9,2.1,3.2c0.3,1.1,0.4,2.3,0.6,3.6c0.9,0.1,1.9-0.1,2.8-0.2c-0.2-0.7-0.4-1.4-0.7-1.9c-0.8-1.6-1-3.2-0.1-4.9
		c-0.9-0.1-1.6-0.3-2.4-0.4c-2.5-0.4-5-0.8-7.4-1.3c-2-0.4-3.9-1.1-5.8-1.4c-2.4-0.3-4.8-0.4-7.1-0.5c-1.9-0.1-3.8-0.3-5.7-0.6
		c-2-0.3-3.4-1.3-4.5-2.8c-2.5-3.6-4.3-7.5-5.2-11.9c-0.1-0.5-0.3-1-0.4-1.5c-1.2,1-2,2-1.5,3.6c0.3,1.1,0.6,2.3,0.8,3.4
		c0.2,1.1,0.3,2.2-0.8,3c0.7-2.1,0-4.1-0.7-6.1c-1.2,2.5-1.3,5.8-0.3,7.2c0.3-0.4,0.7-0.7,1-1.1c-0.2,0.4-0.4,0.9-0.6,1.3
		C147.5,113.2,147.5,113.2,148.2,113.9z M212.4,121.3c1,1,0.9,2.4,1.3,3.7c0.6,0.1,1.2,0.2,1.9,0.2c2.4,0.1,4.8,0.1,7.1-0.2
		c2.1-0.2,4.3-0.4,6.3-1.1c1.1-0.4,1.3-0.6,1.4-1.7c0.2-2.5-1-4.5-2.2-6.7c-1.2,0.5-2.3,1.1-3.4,1.5c-3.8,1.5-7.7,2.9-11.8,3.7
		C212.8,120.9,212.6,121,212.4,121.3c-0.4,0-0.9-0.2-1.3-0.1c-0.9,0.1-1.8,0.3-2.8,0.5c-3.8,0.6-7.6,0.6-11.5,0.5
		c-0.7,0-1.4-0.1-2.1-0.2c-1.8-0.1-3.6-0.3-5.4-0.4c-0.7,1-0.8,2-0.6,3c0.3,1.3,0.7,2.5,1.1,3.7c0.4-0.1,0.6-0.2,0.8-0.2
		c3.5-0.3,6.9-1.3,10.3-2.1c2.4-0.6,4.7-1.1,7.2-1.1c0.4,0,0.8,0,1.3,0c0.1-0.5,0.1-0.9,0.2-1.2c0,0,0.1,0,0.1,0
		c0.1,0.4,0.1,0.8,0.2,1.2c1,0,1.9,0,3,0c-0.1-0.6-0.1-1.2-0.2-1.7C212.7,122.6,212.5,121.9,212.4,121.3z M159.8,100.4
		c0,0.6,0,1.1,0,1.7c0,1.7,0,1.7,1.4,2.5c0.1,0.1,0.2,0.1,0.4,0.2c4,1.9,8.1,3.6,12.4,4.7c0.3,0.1,0.6,0.1,0.9,0.2
		c-0.3-1-0.5-1.9-0.8-2.7c-0.3-1-0.9-1.9-1.9-2.4c-1.4-0.7-2.8-1.4-4.3-2.1c-1.9-0.8-3.8-1.5-5.7-2.3
		C161.4,99.9,160.6,99.8,159.8,100.4c0-0.1,0-0.4,0.2-0.5c0.6-0.5,1.3-0.5,2-0.3c3.5,0.9,6.8,2.2,9.9,3.8c1.7,0.9,2.8,2.2,3.2,4
		c0.2,0.9,0.4,1.7,0.6,2.6c0.7,0.1,1.3,0.6,2.1,0.3c-0.6-1.9,0.4-3.9,2.3-4.5c0.4-0.1,0.7-0.3,1.1-0.4c2-0.2,4-0.4,6-0.6
		c0.7-0.1,1.5,0.2,2.2,0.2c1.7,0.1,3.3,0.4,5,0.8c2.2,0.5,3.6,1.8,4.1,4.1c0.2,0.8,0.6,1.6,1.1,2.3c0.6-0.2,1.1-0.3,1.7-0.5
		c-0.3-0.5-0.6-0.9-0.9-1.4c-1.1-1.9-1.3-3.8,0-5.7c0.7-1,1.5-2,2.6-2.6c0.4-0.2,0.7-0.5,1-0.7c-0.1-0.1-0.2-0.1-0.2-0.1
		c-2.9,0.7-5.7,1.4-8.6,2.1c-2.3,0.6-4.5,1.3-6.9,1c-1.3-0.2-2.6-0.4-3.9-0.7c-1.4-0.3-2.7-0.6-4.1-0.4c-3,0.3-6-0.1-8.9-1
		c-5.2-1.5-9.5-4.5-13.1-8.4c-1.8-1.9-3.2-4.1-3.7-6.7c-0.6-3.1,0.2-5.7,2.5-7.8c-1.3-0.4-2.5-0.1-3.4,0.8c-1.5,1.7-2.3,3.7-3.1,5.8
		c-0.1,0.2,0.1,0.4,0.2,0.6c-0.2,0.2-0.5,0.4-0.5,0.6c-0.2,1.1-0.5,2.3-0.6,3.4c-0.1,0.9,0.1,1.6,0.5,2.4c0.8,1.7,1.9,3.1,3,4.6
		c1.1,1.4,2.3,2.7,3.8,4.1c0.1-1.7,0.2-3.2,0.3-4.7c0.1-0.9-0.2-1.7-0.6-2.4c-0.9-1.5-1.9-3-2.9-4.5c-0.9-1.2-2-2.3-3-3.5
		c0.6-0.1,1,0.4,1.3,0.7c1.6,1.6,3.1,3.3,4.2,5.3c1.1,1.8,1.9,3.8,1.6,6c-0.1,1-0.3,1.9-0.3,2.9c0,1,0.1,1.1,1.3,1.4
		c0-0.4,0-0.8,0.1-1.1C159.2,101.2,159.3,100.7,159.8,100.4z M184.8,65.8c-0.3,0.4-0.6,0.8-0.9,1.2c-0.6,0.8-1.2,1.7-1.8,2.5
		c-1,1.6-0.9,3.2-0.1,4.8c1.5,3,3.7,5.5,6.1,7.6c1.5,1.3,3.2,2.4,5.3,2.4c2.6,0.1,5.1,0.2,7.7,0.3c1.5,0.1,2.9,0,4.3-0.5
		c0.7-0.3,1.5-0.4,2.3-0.6c1.9-0.6,3.8-1.3,5.7-1.9c0.8-0.3,1.3-0.7,1.6-1.5c1.3-3.4,2-6.9,1.9-10.5c0-0.6-0.3-1-0.8-1.2
		c-0.3-0.1-0.6-0.2-0.9-0.3c-1.7-0.6-3.5-0.6-5.3-0.8c-1.3-0.1-2.6,0.2-3.9,0.4c-0.1,1.3-0.2,2.4-0.4,3.8c0.8-0.7,1.3-1.3,2.4-1.4
		c-0.5,0.5-0.9,0.9-1.3,1.3c1.2-0.4,2.2-0.9,3.3-1.2c1-0.3,1.9,0,2.5,0.8c0.9,1.2,1.3,2.5,1,4c-0.1,0.7-0.6,1.2-1.4,1.1
		c-0.5,0-0.9-0.2-1.3-0.3c-1.2-0.5-2.4-0.6-3.8-0.4c1.4,0.3,2.7,0.5,3.8,1.5c-1.2-0.2-2.1-0.4-3.1-0.6c0.7,0.6,1.3,1.1,1.8,1.8
		c0.5,0.6,0.5,1.1-0.1,1.6c-0.5,0.5-1,1-1.6,1.3c-1.3,0.8-2.8,1.2-4.3,1.6c-1.3,0.3-2.7,0.4-4,0.3c-1-0.1-1.8-0.6-2.2-1.6
		c-0.3-0.7-0.4-1.4-0.5-2.2c-0.1-0.3-0.1-0.7-0.1-1.4c-0.4,0.4-0.7,0.5-0.8,0.8c-0.2,0.6-0.3,1.2-0.5,1.8c-0.5,1.6-1.1,2-2.8,2
		c-0.3,0-0.7,0-1-0.1c-2.1-0.5-3.9-1.7-5.2-3.4c-0.8-0.9-1-2-0.5-3.1c0.7-1.7,2.4-2.5,4.1-2.1c0.5,0.1,1,0.2,1.5,0.4
		c-0.2-0.3-0.4-0.4-0.7-0.5c-1-0.3-2-0.5-3-0.7c0.9-0.7,1.9-0.4,3.1-0.2c-0.9-0.8-1.9-1.1-2.8-1.3c-0.7-0.2-1.5-0.2-2.2-0.3
		c-1.3-0.2-1.4-1.5-0.7-2.1c0.3-0.3,0.7-0.6,1.2-0.8c1.3-0.5,2.5-0.4,3.9-0.1c2.5,0.6,4,2.2,4.9,4.5c0.2,0.6,0.3,1.3,0.4,1.9
		c0.3-1.6,0.3-3.3,0.4-4.9c0.1-0.9-0.3-1.3-1.1-1.7c-2.4-1.2-5-1.9-7.6-2.5c-0.6-0.1-1.2,0-1.8,0c-0.4-0.5-0.9-0.6-1.5-0.4
		c-0.8,0.3-1.6,0.4-2.4,0.8c-1.9,1-3.5,2.3-4.9,4c-0.5,0.6-1,1.3-1.2,2.4c1.8-2.4,3.5-4.4,6.7-4.1c0.4-0.5,0.8-1,1.2-1.4
		C183.9,66.2,184.2,65.8,184.8,65.8z M231.1,97.3c-0.1-0.1-0.3-0.2-0.4-0.4c-0.5-1.4-0.9-2.9-0.6-4.5c0.3-2,1.1-3.8,2.4-5.3
		c0.8-0.9,1.6-1.7,2.5-2.6c-0.6-2-1.7-3.8-3-5.5c0.1,1.3,0.2,2.5,0.2,3.7c0,3-1.4,5.2-4.1,6.6c-0.9,0.5-1.9,0.9-3,1.4
		c0.6,0.1,1,0.1,1.5,0.2c-2.2,0.3-4.3,0.4-6.5,0.5c-1.7,0-3.4,0-5.1,0c-3.8,0-7.6,0.4-11.3,1.3c-2.2,0.6-4.4,1.1-6.7,1.7
		c-1.3,0.3-2.7,0.3-4.1,0c-6.5-1.4-12.4-4.1-17.8-8.1c-2-1.5-3.8-3.2-5-5.4c-1-1.8-1.3-3.6-0.2-5.5c0.6-1.1,1.4-2,2.3-2.9
		c-3.7,0.5-5.8,3-7.5,5.9c0.4,0.3,0.7,0.5,1,0.7c2.7,1.9,5,5.9,3.3,9.9c-0.2,0.5-0.3,1-0.4,1.5c-0.3,1.2-0.9,2.4-0.8,3.7
		c0.1,1.2,0.7,2,2.1,2.2c-0.2-1.8,0.2-3.4,1-5c0.4-0.8,1.1-1.4,2.1-1.5c0.9-0.1,1.7-0.2,2.6,0c1.4,0.4,2.9,0.7,4.3,1.2
		c2.2,0.8,4.2,1.9,5.9,3.5c1.5,1.3,1.9,2.9,1.2,4.8c-0.4,1.2-1,2.4-1,3.8c0.8,0.2,1.6,0.4,2.6,0.6c0-0.9,0-1.8,0-2.6
		c0.1-2,1.1-3.5,2.9-4.3c1.5-0.7,3.1-1,4.7-1.3c1.2-0.2,2.3-0.2,3.5-0.4c2.2-0.4,4.3-0.1,6.4,0.2c1.8,0.3,2.8,1.4,3.4,3
		c0.4,1,0.8,1.1,1.9,0.5c-0.5-2.3,0.3-3.7,2.3-4.7c0.4-0.2,0.9-0.3,1.3-0.4c1.5-0.6,3.2-0.9,4.8-0.9c1.3-0.1,2.6,0.2,3.9,0.4
		c0.9,0.2,1.7,0.5,2.5,0.8c1.1,0.5,1.8,1.3,2,2.6c0.1,0.8,0.3,1.5,0.4,2.4C229.8,98.5,230.9,98.4,231.1,97.3
		c0.3-0.2,0.6-0.3,0.8-0.5c1.7-1.9,3-4,3.9-6.4c0.4-0.9,0.5-1.9,0.1-2.9c-0.2-0.5-0.2-1-0.4-1.5c-0.1-0.2-0.3-0.4-0.4-0.7
		c-1.7,1.3-3,2.9-3.9,4.7c-1,1.9-0.9,4.1-0.4,6.1C231,96.5,231,96.9,231.1,97.3z M214.5,119.1c0.6-1.8,0.6-3.7,0.1-5.3
		c-0.3-0.9-0.6-1.8-1.4-2.2c-1.8-0.9-3.7-1.5-5.8-0.7c-1.2,0.5-2.3,1-3.6,1.3c-2.5,0.8-5.1,1.5-7.9,2.3c-0.6,2-0.4,4.1,0.1,6.2
		C202.4,120.9,208.5,120.9,214.5,119.1z M217.8,118.3c-0.1-0.4-0.1-0.6-0.2-0.9c-0.3-1.1-0.5-2.3-0.4-3.5c0.2-1.9,0.6-3.6,2.1-4.9
		c1.1-1,2.5-1.7,3.7-2.5c2-1.3,4.2-2.1,6.5-2.7c1.3-0.3,2.8,0,3.7,1.8c0.4,0.7,0.6,1.6,0.7,2.4c0.1,0.9,0,1.8,0,2.8
		c0.5-0.4,0.9-0.8,1.4-1.1c0.2-2.4-0.3-4.7-0.9-6.9c-0.3-1.1-0.3-2,0.3-3c0.5-0.9,1.1-1.7,1.7-2.6c1.4-2,2.5-4.1,2.9-6.6
		c-0.7-0.4-1.2-1.1-2.1-1c-0.1,0.3-0.3,0.5-0.3,0.8c-0.4,1.6-1.2,3.1-2,4.5c-1.9,3-4.4,5.1-8.1,5.5c-0.3,0-0.6,0.1-0.9,0.3
		c-2,1.7-4.3,3-6.5,4.3c-3.1,1.8-6.3,3.4-9.7,4.8c0.5,0,0.8,0,1.1,0.1c1.9,0.3,3.5,1.1,4.3,3c0.7,1.6,0.7,3.2,0.5,4.8
		c-0.1,0.3-0.1,0.7-0.2,1.2C216.2,118.8,216.9,118.6,217.8,118.3z M185.6,103c0.3-0.9,0.4-1.6,0.6-2.3c0.3-0.9,0.5-1.8,0.8-2.7
		c0.3-0.8,0.1-1.4-0.4-2.1c-0.6-1-1.6-1.6-2.5-2.2c-3.3-1.9-6.7-3.4-10.6-3.3c-1.4,0.1-1.7,0.2-2.1,1.6c-0.4,1.1-0.5,2.2-0.7,3.3
		c-0.2,1.7-0.2,1.7,1.2,2.5c3.9,2.1,8,3.8,12.4,4.8C184.8,102.7,185.2,102.8,185.6,103z M218.7,118.1c1-0.4,2-0.7,3-1.1
		c3.9-1.4,7.6-3.1,11-5.3c0.5-0.3,0.7-0.6,0.7-1.2c0-0.6,0.1-1.1,0-1.7c-0.1-0.8-0.1-1.6-0.3-2.4c-0.4-1.5-1.4-2.2-2.9-2.1
		c-0.6,0-1.1,0.1-1.6,0.3c-3.1,1-5.9,2.6-8.5,4.6c-0.9,0.6-1.5,1.5-1.8,2.6c-0.5,1.8-0.3,3.6,0,5.4
		C218.3,117.5,218.5,117.8,218.7,118.1z M241.2,105.5c-2.6,3.1-5.4,5.8-8.8,7.8c-0.7,0.4-0.8,0.7-0.5,1.5c0.3,1.1,0.6,2.2,1.1,3.2
		c0.6,1.3,1.2,2.6,2.4,3.6c0.2-0.1,0.3-0.1,0.3-0.1c3.9-2,7.2-4.8,10.1-8c0.2-0.3,0.3-0.7,0.4-1c0.1-1-0.4-1.9-0.7-2.8
		C244.6,107.6,243.2,106.3,241.2,105.5z M178.2,110.6c0.6,0.2,1,0.4,1.4,0.5c3.3,0.8,6.6,1.5,10,2c2,0.3,4,0.5,6.1,0.2
		c1.1-0.1,2.2-0.3,3.2-0.8c-0.4-1.3-0.8-2.5-1.3-3.6c-0.4-0.9-0.9-1.6-2-1.8c-0.6-0.1-1.2-0.4-1.8-0.5c-1.5-0.2-2.9-0.5-4.4-0.6
		c-1.8-0.1-3.7-0.2-5.5-0.1c-1.2,0-2.3,0.3-3.5,0.5c-1.1,0.2-1.8,0.7-2,1.8C178.3,109,178.3,109.7,178.2,110.6z M217.2,105.1
		c0-1.8-0.6-3.3-1.6-4.8c-2.1,0.1-4.2,0.3-6.3,0.3c-1.4,0-2.7,0.3-3.9,0.9c-1.3,0.7-2.5,1.4-3.5,2.5c-1.4,1.5-2,3.3-1.3,5.3
		c0.3,0.8,0.8,1.6,1.2,2.4C207.2,109.9,212.2,107.7,217.2,105.1z M175.5,111.5c-0.1,0.3-0.3,0.6-0.4,0.9c-0.3,1.2-0.4,2.4-0.3,3.6
		c0.1,1.4,0.2,1.5,1.5,1.9c4.8,1.2,9.6,2,14.5,2.5c0.8,0.1,1.1,0,1.4-0.8c0.6-1.7,0.5-3.5-0.1-5.1c-2.8-0.4-5.6-0.8-8.3-1.3
		C181.1,112.7,178.4,112.1,175.5,111.5z M189.7,103.7c0.4,0,0.8,0,1.2-0.1c1.9-0.5,3.8-1,5.7-1.5c4.1-1.1,8-2.5,12.3-2.6
		c0.2,0,0.5-0.2,0.8-0.4c-0.4-0.7-0.8-1.4-1.2-2c-0.3-0.4-0.7-0.7-1.1-0.8c-0.7-0.2-1.4-0.3-2.1-0.4c-0.6-0.1-1.3-0.2-1.9-0.2
		c-0.4,0-0.8,0-1.1,0c-0.7,0.1-1.5,0.2-2.2,0.2c-2.8,0.1-5.5,0.7-8.1,1.6c-1.2,0.4-2,1.2-2.3,2.5
		C189.4,101.1,189.1,102.4,189.7,103.7z M212.2,99.1c2.6,0.1,5.1,0.3,7.6,0.3c2.3,0.1,4.5,0,6.8,0c0.4,0,0.8,0,1.1-0.1
		c0.2-0.1,0.5-0.3,0.6-0.5c0.2-1.9,0-3.5-1.9-4.3c-1.1-0.5-2.2-0.8-3.4-1c-3.2-0.3-6.3,0-9.2,1.3c-0.9,0.4-1.4,1.1-1.5,2
		C212.1,97.7,212.2,98.3,212.2,99.1z M185.7,128.5c0.3-1.5-0.2-2.7-0.5-4c-0.3-1.4-1.2-2.1-2.4-2.5c-1.9-0.6-3.8-1-5.8-1.1
		c-2.3-0.2-4.6-0.3-6.8-0.3c-0.8,0-1.6,0.1-2.3,0.3c-0.6,0.1-0.9,0.5-1,1.1c0,0.4,0,0.9,0,1.4c0.7,0,1.2,0,1.7,0.1
		c3.1,0.7,6.1,1.4,9,2.5c1.9,0.7,3.9,1.4,5.8,2.1C184.2,128.1,184.9,128.3,185.7,128.5z M236.1,109.2c0.7-0.7,1.4-1.3,2-1.9
		c1.7-1.6,3.1-3.5,4.3-5.5c0.2-0.4,0.4-0.9,0.4-1.3c-0.1-1.2-0.2-2.3-0.4-3.5c-0.4-2.1-1.2-4.1-2.7-5.9c-0.4,2-1.2,3.8-2.3,5.4
		c-0.6,0.9-1.1,1.7-1.7,2.5c-0.9,1.3-1.1,2.6-0.7,4.1c0.3,1,0.5,2.1,0.7,3.1C235.9,107.2,236,108.1,236.1,109.2z M156.8,102.9
		c-0.2,1.9,0.1,3.6,1.1,5.1c0.7,0.9,1.6,1.7,2.4,2.5c2.9,2.5,6.3,4.1,9.9,5.5c0.2-0.2,0.4-0.4,0.4-0.6c0.2-1.4,0.7-2.6,0.4-4.1
		c-0.2-0.9-0.5-1.4-1.4-1.6c-1.3-0.4-2.5-0.9-3.7-1.3c-2.6-1-5.1-2.2-7.3-3.9C158.1,104,157.5,103.5,156.8,102.9z M167.5,94.8
		c-0.4-1.9,0.4-3.2,0.9-4.7c0.2-0.5,0.4-1.1,0.5-1.6c0.3-1.1,0.4-2.1,0.3-3.3c-0.2-1.7-1-3-2-4.3c-0.7-0.9-1.5-1.8-2.8-2.1
		c-1,1.5-1.9,3-2.5,4.7c-0.3,0.7-0.3,1.5,0,2.2c0.5,1.4,1,2.7,1.5,4.1c0.7,1.8,1.4,3.5,3.3,4.3C167,94.3,167.1,94.4,167.5,94.8z
		 M243.3,101.9c1.4,1,2.6,2,3.4,3.5c0.8,1.4,1.5,2.8,1.9,4.6c0.5-0.9,0.8-1.7,1.3-2.4c0.9-1.4,0.8-2.8,0.4-4.3
		c-0.6-1.8-1.2-3.6-1.9-5.3c-0.6-1.5-1.3-3-2.7-4c-1-0.7-2-1.3-3.2-1.2c0.4,2.1,0.8,4.2,1.2,6.3c0.1-0.1,0.3-0.3,0.6-0.6
		C244.2,99.7,243.8,100.8,243.3,101.9z M184.9,80c-0.7-0.9-1.5-1.7-2.1-2.7c-0.7-1-1.2-2.1-1.8-3.2c-1.5,0.1-2.6,0.9-3.4,2.1
		c-0.7,1.2-1.2,2.4-1.5,3.8c1.9,2.1,4.2,3.7,6.6,5.1C183.5,83.4,184.1,81.7,184.9,80z M209.5,78.7c-0.4-1.1-1.4-1.5-2.3-2
		c-0.8-0.4-1.7-0.8-2.7-0.4c-0.7,0.2-1.5,0.2-2.2,0.4c-1.6,0.4-3.1,0.8-4.6,1.3c-0.3,1.2,0,2.2,0.3,3.2c0.3,0.8,0.9,1.1,1.7,1.2
		c2.9,0.2,5.6-0.5,8.1-1.8C208.4,80.1,209.2,79.7,209.5,78.7z M231.2,85c-0.6-0.5-1-1-1.5-1.3c-2.9-2.2-6.1-2.4-9.5-1.9
		c-0.3,0.1-0.7,0.3-1,0.5c-0.4,0.5-0.7,1.1-1.1,1.7c1.6,0,3.2,0.1,4.4,0.9c1.3,0.9,2.7,1.8,3.6,3.1c0.3,0.4,0.7,0.7,1,1.1
		C229.1,88.3,230.4,87.1,231.2,85z M195.3,78.2c-0.5-0.1-0.9-0.1-1.3-0.2c-0.4-0.1-0.7-0.2-1.1-0.4c0-0.1,0-0.1,0.1-0.2
		c0.5,0,0.9,0,1.4-0.1c0.6-1.1,0.6-1.3-0.3-1.8c-1.6-1-3.3-1.5-5.2-1.4c-1.4,0-2.5,1.1-2.5,2.5c-0.1,1.1,0.4,2,1.3,2.7
		c1.5,1.3,3.1,2.2,5.1,2.5c0.9,0.2,1.5-0.2,1.8-1.1C194.8,80,195,79.2,195.3,78.2z M200.4,85.7c0-0.1,0-0.1,0-0.2
		c-2.9-0.1-5.9-0.3-8.9-0.4c-0.2,1.3-0.3,2.7-0.5,4.3c1.1,0.4,2.2,0.9,3.4,1.3c0.2,0.1,0.6,0,0.8-0.1c2-0.6,4-1.1,6.2-1.7
		c0-0.5,0-0.9-0.1-1.4c-0.1-0.5-0.2-1-0.3-1.5c-0.6,0.1-1.2,0.5-1.8,0.1C199.6,85.9,200,85.8,200.4,85.7z M216.1,87.3
		c1.5,0.6,2,1.9,2.7,3.1c1.5,0,3,0,4.6,0c1.1,0,2.1-0.5,3-1.1c-0.5-1-1.3-1.6-2-2.3c-1.4-1.4-3.1-2.1-5-2.4
		c-0.8-0.2-1.7-0.1-2.4,0.5c-0.8,0.6-1.6,1.3-2.5,1.9c0.8,0.2,1.4-0.2,2.1-0.4c0.1,0,0.2,0,0.5,0.1C216.7,86.9,216.5,87,216.1,87.3z
		 M185.4,80.6c-1.1,1.6-1.5,3.3-2,5.1c2.4,1.2,4.5,2.7,7.1,3.4c0.2-1.5,0.4-2.8,0.6-4.3C188.9,83.8,187.2,82.1,185.4,80.6z
		 M196.9,69.9c1.3,0.8,2.7,0.4,4,0.4c0.6-0.6,0.5-1.4,0.4-2.1c0-1.1-0.2-2.1-0.2-3.2c0-0.5,0-1.1-0.1-1.6c-1.6-0.4-3.1-0.8-4.7-1.2
		c0,0.4-0.1,0.8,0,1.2C196.8,65.6,197,67.7,196.9,69.9z M195.6,54.9c0,2.3,0.1,4.4,0.5,6.6c1.4,0.6,2.9,1.2,4.7,1.1
		c-0.3-2.5-0.5-4.8-1-7.2C198.4,55.9,197.1,55.4,195.6,54.9z M175.5,79.6c0.6-1.5,0.8-2.9,1.8-4c1-1.1,2.1-2,3.6-2.2
		c-0.6-1.8,0.2-3.3,0.9-4.8C177.8,68.4,173.4,74.5,175.5,79.6z M204.1,75.4c0.8-0.1,1.4-0.1,1.9-0.3c1.6-0.6,3.2-0.4,4.9,0.1
		c0.5,0.2,1,0.2,1.5,0.2c0.4,0,0.6-0.2,0.6-0.6c0.1-1.1,0-2.3-0.7-3.2c-0.5-0.8-1.2-1.2-2.2-0.9c-1.2,0.3-2.3,0.9-3.5,1.4
		C205.2,72.8,204.7,73.9,204.1,75.4z M202,88.7c2.7-0.3,5.2-0.6,7.8-1c0.1-1.3,0.2-2.6-0.5-3.8c-2.6,0.7-5.2,1.4-7.8,2.1
		C201.7,86.9,201.8,87.8,202,88.7z M197.1,70.6c-0.3,1.8-0.6,3.6-1,5.4c1.5,1,2.2,1.2,3.7,0.6c0.5-0.2,0.9-0.5,0.9-1.1
		c0-0.6,0.2-1.1,0.2-1.7c0.1-1,0.2-2-0.1-3.2C199.6,71.1,198.3,71,197.1,70.6z M195.5,54.4c1.5,0.4,2.8,1.1,4.3,0.4c0-2,0-3.9,0-5.7
		c-1.2-0.3-2.3-0.5-3.5-0.7C196.1,50.2,195.8,52.2,195.5,54.4z M194.9,75.4c0.1-2.6-0.7-4.6-2.8-5.9c-1.6-1-3.5-1.1-5.3-0.9
		c-0.4,0-0.9,0.4-1.2,0.7c-0.5,0.4-0.3,1,0.3,1.2c0.5,0.1,1.1,0.2,1.7,0.3c1.5,0.1,2.8,0.6,3.9,1.7c0.2,0.2,0.5,0.5,0.7,0.6
		C193.2,73.5,194,74.3,194.9,75.4z M155.2,86.4c0.5,1.7,1.1,3.3,2.2,4.6c0.8-0.3,1.7-0.6,2.5-1c0.8-0.5,1.8-0.3,2.7-0.6
		c-0.3-0.7-0.5-1.3-0.7-1.9c-0.2-0.6-0.6-0.9-1.2-1c-0.7-0.1-1.3-0.4-2-0.5C157.5,86,156.4,85.7,155.2,86.4z M218,90.3
		c-0.2-0.9-0.8-1.5-1.4-2c-0.6-0.5-1.2-0.7-2.1-0.5c-1.4,0.4-2.9,0.5-4.4,0.7c-1.1,0.2-2.2,0.3-3.3,0.4c0.3,0.7,0.6,1.3,0.9,2.1
		c1-0.1,1.9-0.3,2.9-0.3c2.3-0.1,4.6-0.2,6.9-0.3C217.6,90.4,217.8,90.4,218,90.3z M191.8,24.9c0.9-0.4,1.5-0.6,2.1-0.9
		c0.5-0.2,0.7-0.5,0.8-1c0.4-1.4-0.1-2.8-0.3-4.1c-0.1-0.6-0.4-1.2-0.6-1.8c-0.1-0.4-0.4-0.6-0.8-0.6c-0.6,0.1-1.3,0.2-2,0.3
		C191.8,19.4,191.9,22,191.8,24.9z M198.1,93.3c3-0.8,5.8-1.5,8.7-2.2c-0.4-2-0.7-2.3-2.4-1.9c-2.4,0.5-4.8,1.1-7.1,1.7
		c0.1,0.7,0.5,0.8,1,0.8c0,0,0.1,0.1,0.1,0.2c-0.2,0.2-0.4,0.3-0.6,0.5C197.9,92.7,198,92.9,198.1,93.3z M188,17
		c0.2,2.7,0.5,5.2,0.7,7.8c0,0.5,0.4,0.7,0.8,0.6c0.5-0.1,1.1-0.2,1.7-0.4c0.3-2.9,0-5.6-1-8.2C189.5,16.9,188.9,16.9,188,17z
		 M210,83.7c0.2,1.3,0.4,2.6,0.6,3.9c0.2,0,0.4,0,0.6,0c1.5-0.3,2.9-1.2,4-2.2c0.2-0.2,0.3-0.6,0.3-0.9c0.1-1.1-0.3-2-0.7-3
		C213.2,82.3,211.7,83,210,83.7z M161.3,83c-1.3-1.1-2.7-1.5-4.2-1.5c-0.5,0-0.9,0.2-1.1,0.7c-0.4,1.1-0.8,2.2-0.6,3.5
		c2-0.8,3.8,0.3,5.9,0.5C161,85.1,160.6,84.1,161.3,83z M248.1,110.5c-0.9-3.1-1.9-6.1-5-8c-0.6,0.9-1.1,1.6-1.6,2.5
		c1.4,0.8,2.6,1.7,3.6,2.9c1,1.2,1.2,2.7,1.7,4.2C247.2,111.6,247.6,111.1,248.1,110.5z M231,123.3c1.3-0.4,2.6-0.7,3.7-1.5
		c-1.6-1.8-1.9-2.4-3.7-7.7c-0.7,0.4-1.4,0.8-2.1,1.2C230.2,117.8,231.6,120.2,231,123.3z M202,31.6c-0.8,0.2-1.4,0.4-2,0.5
		c-0.6,0.1-1.3,0-2,0c-0.5,0.9,0.1,2.1-0.1,3.1c-0.1,0.5,0,1.1,0,1.7c1.1,0.5,2.2,0.3,3.3-0.1C201.4,35.2,201.7,33.5,202,31.6z
		 M216.4,84.4c0.5-0.6,1-1.2,1.5-1.8c0.5-0.6,0.9-1.2,0.8-2c0-1.1-0.1-2.1-0.3-3.2c-0.2-0.9-0.6-1.7-1.3-2.6
		c-0.3,2.1-0.8,3.9-1.6,5.6c-0.2,0.4-0.2,0.8,0,1.2C215.8,82.6,216,83.5,216.4,84.4z M174.2,117.3c0-2.2-0.2-4.1,0.7-6.1
		c-1.2-0.2-2.3-0.7-3.7-0.9c0.7,2.1,0.4,4-0.2,5.9C172.2,116.6,173.1,116.9,174.2,117.3z M201,37.7c-1.1,0-2.1,0-3.2,0
		c-0.2,1.4-0.4,3-0.5,4.5c0,0.2,0.1,0.4,0.1,0.6c1,0.1,2,0.7,3,0.3C200.6,41.3,200.8,39.5,201,37.7z M186.5,17.2
		c-0.2,0.5-0.3,1.1-0.6,1.4c-0.8,0.7-0.7,1.5-0.6,2.3c0.1,0.9,0.2,1.8,0.3,2.6c0.3,1.4,1,1.9,2.5,1.7c-0.2-2.6-0.5-5.3-0.7-8
		C187.2,17.2,186.9,17.2,186.5,17.2z M197.1,43.3c-0.2,1.1-0.3,2.1-0.5,3.1c-0.2,1.4-0.1,1.4,1.3,1.7c0.2,0,0.4,0.2,0.7,0.2
		c0.5,0,1,0.2,1.6-0.3c0-1.3,0-2.8,0-4.2C199.2,43.5,198.2,43.4,197.1,43.3z M203.1,27.7c-1.8,1-3.5,0.9-5.3,0.9c0,0.8,0,1.5,0,2.2
		c0,0.7,0.2,1,0.9,1c1.2,0.1,2.3-0.2,3.4-0.7c0.2-0.1,0.3-0.3,0.3-0.4C202.6,29.7,202.8,28.8,203.1,27.7z M155.8,104.3
		c0.1-0.6,0.2-1.2,0.3-1.7c0-0.2-0.1-0.5-0.2-0.6c-0.8-1-1.8-1.7-3.1-1.5c-0.6,0.1-1.3,0.2-2,0.3c0,0.6,0,1.1,0,1.6
		c0.1,0.7,0.2,0.9,0.9,0.8C153.1,103.1,154.4,103.5,155.8,104.3z M204.1,16c-0.2-1.2-0.1-2.3-1.2-3.1c-1.2,0.9-2.5,1.7-3.7,2.6
		c0.1,0.5,0.2,0.9,0.3,1.3C201.3,17.7,202.7,16.9,204.1,16z M195.4,120.8c-0.2-1.2-0.4-2.2-0.5-3.2c0-1.1,0.1-2.1,0.2-3.2
		c-0.7,0.1-1.4,0.1-2.2,0.2c0.4,2,0.6,3.9-0.5,5.8C193.5,120.6,194.4,120.7,195.4,120.8z M218.7,100.5c0.4,1.1,0.8,2.1,1.2,3.2
		c1.6-1,3.2-1.8,4.7-3.2C222.6,100.5,220.7,100.5,218.7,100.5z M162.4,80.3c-0.8-0.7-1.6-0.7-2.5-0.9c-1.6-0.3-2.4,0.1-3.2,1.6
		c1.7-0.2,3.2,0.7,4.7,1.3C161.8,81.6,162.1,81,162.4,80.3z M202.7,75.5c0.1,0,0.2,0,0.3,0.1c1.6-2.1,1.8-4.6,1.6-7.1
		c-0.7-0.2-1.2,0-1.3,0.7c-0.1,0.4-0.2,0.7-0.2,1.1c0,0.5,0,1-0.1,1.5C203,73,202.8,74.3,202.7,75.5z M217.4,69.7
		c0,0.8-0.1,1.7-0.1,2.5c0,1.2-0.2,2.4,0.8,3.4c0.4,0.4,0.5,1,0.7,1.5c0.2,1,0.4,2,0.6,2.9C219.7,76.4,218.9,73,217.4,69.7z
		 M253.6,98.6c-1.2,0.3-2.4,0.6-3.6,1c0.2,0.7,0.4,1.2,0.6,1.7c0.4,0,0.6,0,0.9-0.1c0.4-0.1,0.8-0.2,1.2-0.3
		C253.9,100.3,254,99.8,253.6,98.6z M218.1,100.4c-0.7,0-1.1,0.1-1.5,0.1c0.5,1.4,1,2.7,1.5,4.1c1.1-0.6,1.2-0.6,0.9-1.6
		C218.7,102.1,218.4,101.3,218.1,100.4z M174.3,102.2c2.1,0.6,4,0.4,6,0.4c-1-0.4-2.1-0.7-3.1-1.1c-0.7-0.3-1.2-0.2-1.8,0.1
		C175.1,101.8,174.7,102,174.3,102.2z"/>
	<path d="M208.2,23.1c0.1-0.4,0.2-0.9,0.4-1.3c0.5-1.3,0.5-2.7,0.5-4c0-0.6-0.3-1-1-1.2c0,0.4-0.1,0.7-0.1,1.1
		c0,1.8,0.1,3.6-0.6,5.2c-0.2,0.4-0.4,0.7-0.6,1.1c0.2-1,0.5-2.1,0.7-3.1c0.2-1.4,0.3-2.8-0.2-4.2c-1.3-0.3-1.8,0.5-2.3,1.3
		c-0.6,0.2-1.2,0.5-1.8,0.7c0,0.2,0.1,0.4,0.1,0.6c-1.7,0.5-3.1-0.2-4.3-1.2c-0.1,0,0-0.2-0.1-0.3c0.6,0.2,1.1,0.4,1.7,0.6
		c0.7,0.2,1.5,0.3,2.2-0.2c0.8-0.5,1.7-1,2.5-1.6c0.4-0.3,0.8-0.5,1.3-0.4c0.3,0,0.6,0,0.8,0c1.3-0.2,2,0.1,2.2,1.4
		c0.3,1.9,0.2,3.8-1.1,5.4C208.4,23.1,208.3,23.1,208.2,23.1z"/>
	<path d="M184.8,16.6c0,0.6,0,1.2-0.1,1.7c-0.4-1.2-1.4-1.8-2.4-2.4c-0.2,0.2-0.3,0.5-0.5,0.7c0-0.5,0-1,0-1.8
		c0.6,0.4,1.1,0.8,1.6,1.1C183.8,16.2,184.3,16.4,184.8,16.6z"/>
</g>
<g>
	<path d="M110.6,10.8c4.1,2,6.1,6,5.2,10.8c-1.2,7.1-6.2,11.4-13.4,11.4c-3.3,0-6.7-0.2-10-0.3c-0.6,0-1.3,0-1.9,0
		c-0.1,0.6-0.1,0.9-0.1,1.2c-0.4,7.3-0.8,14.6-1.2,22c-0.2,3.8-0.4,7.6-0.7,11.4c-0.3,4.9-0.7,9.7-1,14.5c0,0.4-0.1,0.8,0,1.2
		c0.1,1.2,0.9,1.8,2,1.4c1.8-0.6,3.2-0.2,4.5,1c0.4,0.4,1.2,0.5,1.7,0.4c1.6-0.3,2.9,0.2,3.9,1.4c0.5,0.6,1,1,1.8,0.8
		c1.7-0.3,3,0.4,3.9,1.7c0.5,0.7,1,1,1.9,1c1.5,0,2.8,0.7,3.4,2c0.4,0.8,0.9,1.3,1.9,1.3c1.5,0.1,2.6,1,3.2,2.4
		c0.3,0.8,0.8,1.3,1.8,1.5c1.5,0.3,2.5,1.3,2.8,2.8c0.2,0.8,0.6,1.3,1.5,1.5c1.5,0.4,2.5,1.6,2.7,3.1c0.1,0.8,0.5,1.4,1.3,1.7
		c1.4,0.6,2.2,1.8,2.3,3.3c0.1,0.8,0.3,1.4,1.1,1.8c1.4,0.8,2.1,2.1,2,3.6c0,0.9,0.2,1.5,1,2.1c1.1,0.9,1.7,2.1,1.4,3.6
		c-0.2,0.9,0.1,1.5,0.7,2.2c1.2,1.1,1.6,2.5,1,4c-0.3,0.8,0,1.4,0.5,1.9c1.1,1.1,1.3,2.5,0.8,3.9c-0.4,1.2-0.2,2.2,0.8,3
		c0,1.1,0,2.1,0,3.2c-1.1,0.9-0.7,1.9,0,2.8c0,1.1,0,2.1,0,3.2c-0.8,0.6-1.3,1.4-0.8,2.4c0.8,1.6,0.4,3-0.6,4.4
		c-0.3,0.4-0.5,1.2-0.3,1.7c0.5,1.6,0.1,3-1,4.2c-0.5,0.6-0.8,1.1-0.6,1.9c0.3,1.7-0.2,2.9-1.5,4c-0.4,0.4-0.8,1.1-0.8,1.6
		c0.1,1.8-0.6,3-2,4c-0.4,0.3-0.8,1-0.9,1.5c-0.1,1.7-0.9,2.9-2.3,3.7c-0.7,0.4-1,0.9-1.1,1.6c-0.2,1.6-1.1,2.7-2.6,3.2
		c-0.9,0.3-1.3,0.8-1.5,1.7c-0.3,1.4-1.3,2.4-2.7,2.7c-1,0.2-1.4,0.7-1.7,1.5c-0.5,1.4-1.6,2.3-3.1,2.5c-1,0.1-1.5,0.6-2,1.5
		c-0.6,1.1-1.7,1.9-3,1.9c-1.2,0-1.8,0.5-2.4,1.4c-0.8,1.1-2,1.7-3.5,1.6c-0.5,0-1.3,0.2-1.6,0.6c-1.1,1.4-2.5,1.9-4.2,1.6
		c-0.8-0.1-1.4,0.1-2,0.7c-1,1.1-2.4,1.4-3.7,1c-1-0.3-1.6-0.1-2.4,0.5c-1.1,0.8-2.4,1.2-3.8,0.5c-1.1-0.5-2-0.3-2.8,0.7
		c-1.1,0-2.1,0-3.2,0c-1.5-0.9-1.6-0.9-2.8,0c-0.9,0-1.9,0-2.8,0c-0.9-0.5-1.6-1.6-3-1c-1.5,0.7-3,0.4-4.2-0.7
		c-0.6-0.5-1.1-0.7-1.9-0.5c-1.6,0.4-3,0-4.2-1.2c-0.4-0.4-1.1-0.6-1.7-0.5c-1.7,0.2-3-0.3-4-1.6c-0.5-0.6-0.9-1-1.8-0.9
		c-1.6,0.2-2.9-0.5-3.7-1.9c-0.5-0.8-1.1-1.1-2-1.2c-1.5-0.1-2.7-0.9-3.3-2.3c-0.3-0.7-0.7-1.1-1.5-1.2c-1.7-0.2-2.9-1.3-3.4-2.9
		c-0.2-0.8-0.7-1.1-1.5-1.3c-1.5-0.3-2.4-1.4-2.8-2.9c-0.2-0.9-0.6-1.4-1.5-1.8c-1.4-0.6-2.3-1.7-2.4-3.2c-0.1-1-0.5-1.4-1.3-1.8
		c-1.3-0.7-2.1-1.9-2-3.4c0-0.9-0.3-1.4-1-1.9c-1.3-0.9-1.9-2.2-1.7-3.8c0.1-0.8-0.1-1.3-0.7-1.8c-1.3-1-1.9-2.4-1.4-4
		c0.2-0.7,0-1.4-0.6-1.9c-1.2-1.1-1.4-2.6-0.9-4.1c0.2-0.8,0.1-1.4-0.4-2.1c-1-1.2-1.2-2.7-0.4-4.1c0.5-1.1,0.2-1.8-0.6-2.4
		c0-1.2,0-2.3,0-3.5c1.1-1.3,1.1-1.3,0-3.2c0-0.5,0-0.9,0-1.4c0.3-0.7,0.8-1.3,1-2c0.2-0.6,0.3-1.3,0.2-1.8c-0.4-1.6-0.2-3,1-4.2
		c0.5-0.6,0.7-1.2,0.4-1.9c-0.4-1.5,0-2.8,1.2-3.8c0.7-0.6,0.9-1.3,0.8-2.2c-0.1-1.6,0.4-2.9,1.8-3.8c0.7-0.4,0.9-1,0.8-1.8
		c-0.1-1.5,0.5-2.7,1.8-3.4c0.8-0.5,1.3-1,1.4-2c0.1-1.5,1-2.6,2.4-3.2c0.8-0.4,1.3-0.9,1.4-1.8c0.3-1.5,1.2-2.5,2.7-2.9
		c0.9-0.2,1.3-0.7,1.5-1.5c0.4-1.5,1.5-2.5,3.1-2.8c0.8-0.1,1.2-0.5,1.6-1.2c0.7-1.6,1.9-2.4,3.7-2.7c0.5-0.1,1.2-0.5,1.5-1
		c0.9-1.4,2.1-2.2,3.8-2.1c0.8,0,1.3-0.2,1.8-0.9c0.9-1.3,2.1-1.8,3.7-1.6c0.9,0.1,1.6-0.1,2.2-0.8c0.9-1.1,2.3-1.5,3.7-1.2
		c0.9,0.2,1.6,0.1,2.2-0.5c1.1-1.1,2.5-1.3,3.9-0.8c0.9,0.3,1.6,0.1,2.4-0.4c1.1-0.8,2.4-1,3.7-0.3c1,0.5,1.8,0.4,2.6-0.2
		c0.6-0.3,0.8-0.7,0.9-1.4c0.2-3.1,0.4-6.2,0.6-9.3c0.3-4.4,0.7-8.9,1-13.3c0.2-2.2,0.3-4.4,0.4-6.7c0.3-5.2,0.5-10.3,0.8-15.5
		c0.1-1.1,0.2-2.2,0.3-3.3c0-1.4-0.2-1.5-1.6-1.7c-4.4-0.5-8.9-0.9-13.3-1.5c-2-0.3-4-0.9-6-1.3c-2.5-0.6-4.6-2.1-6.6-3.6
		c-0.2-0.1-0.4-0.3-0.5-0.5c-2.2-2.1-2-4.2,0.6-5.8c1.3-0.8,2.8-1.5,4.3-1.9c4.8-1.5,9.7-2.3,14.6-2.9c5-0.6,10-1.2,15-1.6
		c3.9-0.4,7.8-0.6,11.8-0.8c2.1-0.1,4.2-0.3,6.1-1.3C107.6,10.8,109.1,10.8,110.6,10.8z M102.2,157.4c-0.1-0.1-0.2-0.2-0.4-0.3
		c-0.1-0.1-0.2-0.2-0.4-0.4c-0.1-0.1-0.2-0.2-0.4-0.4c-0.1-0.1-0.2-0.2-0.4-0.4c-0.1-0.1-0.2-0.2-0.4-0.4c-0.1-0.1-0.2-0.2-0.4-0.4
		c-0.1-0.1-0.2-0.2-0.4-0.4c-0.1-0.1-0.2-0.2-0.4-0.4c-0.2-0.1-0.5-0.2-0.7-0.4l0,0c0.2,0.1,0.5,0.2,0.7,0.3
		c0.1,0.1,0.2,0.2,0.4,0.3c0.1,0.1,0.2,0.2,0.4,0.4c0.1,0.1,0.2,0.2,0.4,0.4c0.1,0.1,0.2,0.2,0.4,0.4c0.1,0.1,0.2,0.2,0.4,0.4
		c0.1,0.1,0.2,0.2,0.4,0.4c0.1,0.1,0.2,0.2,0.4,0.4C101.9,157.2,102,157.3,102.2,157.4c0.1,0.1,0.2,0.2,0.3,0.4l0,0
		C102.4,157.7,102.3,157.6,102.2,157.4z M60.9,136.6c-0.1-0.1-0.2-0.2-0.3-0.3c-0.2-0.1-0.5-0.2-0.7-0.4l0,0
		c0.2,0.1,0.5,0.2,0.7,0.4C60.7,136.4,60.8,136.5,60.9,136.6c0.1,0.1,0.2,0.3,0.3,0.4l0,0C61.2,136.9,61,136.7,60.9,136.6z
		 M67.3,133.1L67.3,133.1c0.1,0.1,0.2,0.2,0.1,0.1c0.9,1.6,1.7,2.9,2.5,4.4c0.2-2.1-1.1-3.1-2.2-4.1
		C67.5,133.4,67.4,133.2,67.3,133.1z M58.1,134.2L58.1,134.2c-0.2-0.1-0.5-0.2-0.7-0.4c-1.7-2-4.3-4.1-5.3-4.1
		c1.8,1.4,3.4,3,5.4,4.1C57.6,133.9,57.9,134.1,58.1,134.2z M87.7,137.4c0.2,0,0.4,0,0.6-0.1c0-0.1,0-0.1,0-0.2
		C88,137.2,87.9,137.3,87.7,137.4L87.7,137.4z M70.8,136.7L70.8,136.7L70.8,136.7c0,0.2,0.1,0.5,0.1,0.7c0.1,0,0.2-0.1,0.3-0.1
		C71.1,137,70.9,136.8,70.8,136.7z M85.6,136.7L85.6,136.7c0.3,0.2,0.6,0.4,0.9,0.6c0.1-0.1,0.1-0.3,0.2-0.4
		C86.3,136.8,85.9,136.7,85.6,136.7z M76.8,147.9c-0.4-0.2-0.7-0.5-1.1-0.7c-0.1,0.1-0.1,0.2-0.2,0.4
		C75.9,147.7,76.4,147.8,76.8,147.9z M102.2,156L102.2,156c0.4,0.4,0.8,0.8,1.3,1.2c0.1-0.2,0.2-0.3,0.3-0.5
		C103.2,156.5,102.7,156.3,102.2,156z M87.3,156.4L87.3,156.4L87.3,156.4c0.3,0.6,0.7,1.2,1.2,2.1C88.6,157.2,88.1,156.7,87.3,156.4
		z M70.1,133.8L70.1,133.8c0.2,0.5,0.4,1,0.6,1.5C71.2,134.4,70.8,134,70.1,133.8z M53.2,132.4L53.2,132.4c-0.5-0.4-1-0.9-1.6-1.3
		c-0.2-0.1-0.6,0.1-0.9,0.1c0,0.1,0,0.2,0,0.4C51.5,131.9,52.4,132.1,53.2,132.4z M68.7,127.5c-0.1-0.1-0.1-0.2-0.2-0.2
		C68.6,127.3,68.6,127.4,68.7,127.5c0.2,0.8,0.3,1.7,0.5,2.5c0.1,0.4,0.5,0.8,0.8,1.1c0.1-0.1,0.2-0.2,0.3-0.3
		C69.8,129.8,69.2,128.6,68.7,127.5z M65.9,130.7L65.9,130.7c1,1,2,2,3,3C68.4,132,67.1,131.4,65.9,130.7z M65.5,138.1L65.5,138.1
		c1.4,1.2,2.8,2.4,4.2,3.7c0.4-2.1,0.4-2.1-1.1-2.7C67.6,138.7,66.5,138.4,65.5,138.1z M89.1,145.5L89.1,145.5
		c1.7,1.5,3.3,3.1,5,4.6c1,0.9,2.1,1.6,3.1,2.4l0.1,0.1l-0.1,0c-2.1-2.1-4.1-4.3-6.2-6.3C90.5,145.8,89.7,145.7,89.1,145.5z
		 M62.7,153.9c2-0.6,4.1-1.2,6.1-1.7c1.2-0.3,2-1.1,2.5-2.6c-1.3,0.1-2.6-0.1-3.4,0.4C66,151.2,64.4,152.6,62.7,153.9
		c-0.1,0.1-0.1,0.1-0.2,0.2C62.5,154,62.6,154,62.7,153.9z M69.7,169.8c0.4-0.6,0.8-1.1,1.2-1.7c2-3.2,3.9-6.4,5.9-9.6
		c0.7-1.1,1-2.2,0.9-3.5c-0.1-1.2-0.2-2.3-0.3-3.5c-1.4,0.6-2.6,1.5-3,3.2c-0.5,2-1.3,4-1.9,6C71.7,163.8,70.7,166.8,69.7,169.8
		c0,0.1-0.1,0.2-0.1,0.1C69.6,169.9,69.7,169.9,69.7,169.8z M69.4,138.4L69.4,138.4L69.4,138.4c-0.1-0.3-0.2-0.5-0.3-0.8
		c-2.3-4.8-5.8-8.7-9.8-12c-0.8-0.6-1.5-1.2-2.4-1.9c-1.1,1.4-2.1,2.7-3.2,4.1c2.6,2.3,5.3,4.4,7.6,6.7
		C63.6,136.7,66.5,137.5,69.4,138.4z M70.1,128.2c0,0.2,0.1,0.4,0.1,0.5c0.1,0,0.1,0,0.2-0.1C70.2,128.5,70.2,128.4,70.1,128.2
		c-0.5-3.7-0.9-7.4-1.3-11.2c-0.6-5-1.3-10-1.9-15c-0.2-1.6-0.5-3.3-0.7-5c-1.1,0.3-1.9,0.6-2.6,0.8c-1.4,0.5-1.4,0.5-1.1,2
		c1.6,7.1,3.1,14.3,4.9,21.4C67.8,123.6,69.1,125.9,70.1,128.2z M89.5,158.2L89.5,158.2c0.1,1.4,0.6,2.7,1.4,3.9
		c3.8,6,7.6,12,11.5,18c0.3,0.4,0.6,0.8,1,1.3c3.1-1.8,5.7-4,8.3-6.5c-2.2-2-4.3-3.9-6.7-6.1c-0.4,0.5-0.7,1-1,1.4
		c-0.4,0.4-0.8,0.9-1.2,1.3c-1.3,1.2-2.7,1.3-4.1,0.2c-0.8-0.6-1.5-1.3-2.2-2c-1.1-1.2-1.2-2.4-0.3-3.8c0.3-0.5,0.6-0.9,1.1-1.6
		C94.5,162.1,92,160.1,89.5,158.2z M74,153.9c-2.3,1.5-4.6,2.9-6.7,4.5c-1,0.7-1.9,1.6-2.6,2.6c-3.2,4.5-6.3,9-9.5,13.6
		c-1.2,1.7-2.4,3.5-3.6,5.3c2.8,2.1,5.7,3.7,8.9,5c0.4-0.6,0.8-1.1,1.1-1.6c1.4-2.2,2.7-4.5,4.2-6.7c1.5-2.3,2.6-4.7,3.4-7.3
		c0.8-2.6,1.7-5.1,2.5-7.7C72.4,159,73.2,156.4,74,153.9L74,153.9z M78.2,85.9c-1.4,0.2-2.9,0.5-4.3-0.4c-0.3-0.2-1.1,0-1.4,0.3
		c-1.3,1-2.7,1.1-4.2,0.6c-0.7-0.2-1.3-0.2-1.9,0.4c-1.1,1.1-2.5,1.4-4.1,1c-0.5-0.1-1.2,0.1-1.5,0.5c-1.1,1.2-2.4,1.6-3.9,1.5
		c-0.9-0.1-1.4,0.3-1.9,1c-0.8,1.2-2,1.8-3.5,1.7c-0.8-0.1-1.4,0.2-1.7,0.9c-0.7,1.5-1.9,2.2-3.5,2.3c-0.8,0-1.3,0.4-1.5,1.2
		c-0.5,1.4-1.6,2.3-3.1,2.5c-0.7,0.1-1.2,0.4-1.4,1.1c-0.4,1.6-1.5,2.5-2.9,3c-0.8,0.3-1.2,0.8-1.3,1.6c-0.2,1.3-1,2.4-2.3,2.9
		c-0.8,0.3-1.2,0.8-1.3,1.7c-0.2,1.5-0.9,2.8-2.4,3.5c-0.7,0.3-0.9,0.8-0.8,1.6c0.1,1.5-0.5,2.8-1.7,3.6c-0.7,0.5-1,1.1-0.9,1.9
		c0.3,1.4-0.2,2.7-1.3,3.6c-0.7,0.6-0.9,1.2-0.6,2.2c0.4,1.3,0,2.6-0.9,3.6c-0.7,0.7-0.7,1.3-0.5,2.2c0.4,1.3,0.4,2.6-0.5,3.7
		c-0.5,0.7-0.6,1.5-0.2,2.3c0.6,1.3,0.5,2.5-0.2,3.7c-0.4,0.7-0.5,1.4,0,2.1c0.8,1.3,0.9,2.6,0.3,4c-0.2,0.5-0.2,1.4,0.1,1.8
		c1,1.4,1.2,2.7,0.8,4.3c-0.1,0.5,0.1,1.3,0.5,1.7c1,1.2,1.3,2.4,1.1,3.9c-0.1,0.5,0.1,1.4,0.5,1.7c1.3,1.1,1.7,2.4,1.7,4
		c0,0.5,0.3,1.3,0.8,1.6c1.3,1,2,2.2,2,3.7c0,0.7,0.3,1.2,1,1.5c1.4,0.7,2.1,1.8,2.3,3.3c0.1,0.9,0.5,1.3,1.3,1.7
		c1.4,0.5,2.2,1.6,2.5,3c0.2,0.8,0.6,1.2,1.3,1.5c1.5,0.5,2.5,1.4,3,2.9c0.2,0.5,0.8,1,1.3,1.1c1.6,0.3,2.6,1.1,3.3,2.5
		c0.2,0.5,0.9,1,1.5,1c1.6,0.1,2.7,0.9,3.6,2.2c0.3,0.4,1,0.8,1.5,0.8c1.6,0,2.9,0.5,3.8,1.8c0.4,0.6,1,0.9,1.8,0.7
		c1.4-0.3,2.7,0.1,3.7,1.2c0.7,0.7,1.3,0.9,2.2,0.6c1.4-0.4,2.7-0.1,3.7,0.9c0.7,0.6,1.3,0.7,2.1,0.4c1.4-0.6,2.7-0.4,3.8,0.5
		c0.7,0.5,1.3,0.6,2.1,0.2c1.3-0.7,2.6-0.7,3.9,0c0.8,0.4,1.5,0.4,2.3-0.1c1.1-0.8,2.4-0.8,3.7-0.3c0.8,0.4,1.4,0.3,2.1-0.2
		c1.1-1,2.4-1.3,3.9-0.9c0.7,0.2,1.4,0.2,1.9-0.4c1.1-1.1,2.4-1.6,4-1.3c0.8,0.2,1.3-0.1,1.8-0.8c0.9-1.2,2.1-1.7,3.5-1.5
		c0.9,0.1,1.4-0.2,1.8-0.8c0.9-1.4,2.2-2,3.8-2.2c0.5,0,1.1-0.5,1.3-0.9c0.8-1.4,1.9-2.2,3.4-2.5c0.8-0.1,1.3-0.5,1.5-1.3
		c0.4-1.4,1.5-2.2,2.9-2.6c0.9-0.2,1.3-0.6,1.5-1.5c0.4-1.4,1.2-2.4,2.6-2.9c0.8-0.3,1.3-0.7,1.3-1.6c0.2-1.4,1-2.6,2.2-3.2
		c0.8-0.4,1.1-0.9,1.1-1.8c0.1-1.5,0.7-2.7,2.1-3.5c0.8-0.4,1-1,0.9-1.9c-0.2-1.3,0.3-2.5,1.3-3.3c0.9-0.7,1.1-1.4,1-2.4
		c-0.1-1.3,0.1-2.6,1.2-3.5c0.6-0.5,0.7-1.2,0.5-1.9c-0.5-1.5-0.1-2.9,0.9-4.1c0.4-0.5,0.7-1.1,0.3-1.8c-0.7-1.4-0.6-2.7,0.2-4
		c0.4-0.7,0.5-1.3,0.2-2c-0.7-1.4-0.8-2.8,0-4.2c0.4-0.7,0.3-1.3-0.2-2c-0.9-1.2-1.1-2.6-0.5-4c0.3-0.7,0.2-1.3-0.4-1.9
		c-1-1.1-1.4-2.4-0.9-3.9c0.2-0.8,0-1.4-0.7-2c-1-0.9-1.5-2.1-1.2-3.5c0.2-1,0-1.5-0.8-2.1c-1.1-0.8-1.8-2-1.6-3.5
		c0.1-0.9-0.3-1.4-1-1.8c-1.3-0.8-2.1-1.9-2.1-3.5c0-0.8-0.4-1.3-1.1-1.6c-1.4-0.6-2.1-1.7-2.5-3.2c-0.1-0.5-0.6-1.2-1.1-1.4
		c-1.6-0.6-2.6-1.6-3-3.2c-0.2-0.7-0.7-1-1.4-1.2c-1.5-0.3-2.5-1.2-3.1-2.6c-0.3-0.8-0.9-1.1-1.7-1.2c-1.4-0.2-2.4-0.9-3.1-2.1
		c-0.4-0.8-0.9-1.1-1.8-1.1c-1.5-0.1-2.7-0.7-3.6-2c-0.4-0.7-1-0.9-1.8-0.8c-1.5,0.1-2.8-0.4-3.7-1.6c-0.5-0.6-1.1-0.8-1.9-0.6
		c-1.5,0.4-2.7,0-3.9-1.1c-0.3-0.3-0.9-0.5-1.4-0.5c-1.2,0-2.4,0.2-3.6,0.4c-0.1,1.1-0.3,2.2-0.4,3.3c-0.1,0.6,0,1.2-0.1,1.8
		c-0.1,1.1,0.3,1.6,1.4,1.8c11.1,2.2,20.4,7.6,27.7,16.3c9.2,10.9,13,23.5,11.4,37.6c-1.2,10.8-5.7,20.3-13.4,28.1
		c-11.7,11.8-25.8,16.7-42.3,14.4c-10.3-1.4-19.3-5.7-26.6-13c-11.9-11.7-17-25.9-14.7-42.6c1.7-12.1,7.3-22,16.5-30
		c1.1-1,2-2.1,3.1-3.1c0.4-0.4,0.8-0.7,1.3-1c1.5-1,3.3-1.5,4.9-2.3c6.5-3.2,13.3-5,20.4-5.5c1.6-0.1,1.8-0.3,1.8-1.9
		C78.1,89.3,78.1,87.6,78.2,85.9L78.2,85.9L78.2,85.9z M100.1,32c0,0,0-0.1,0-0.1c0.9,0,1.8,0,2.6,0c7.5-0.2,12.5-5.7,12-13.2
		c-0.3-4.9-3.3-7.4-7.9-6.7c-0.7,0.1-1.4,0.4-2,0.6c-0.7,0.2-1.5,0.4-2.2,0.5c-3.9,0.4-7.7,0.6-11.6,1c-6.9,0.7-13.9,1.3-20.8,2.2
		c-3.9,0.5-7.8,1.5-11.7,2.5c-1.4,0.4-2.8,1.1-4.1,1.9c-1.5,0.9-1.5,2.1-0.3,3.4c0.3,0.3,0.7,0.6,1.1,0.9c2.4,2,5.2,3.1,8.2,3.8
		c5.7,1.2,11.4,1.9,17.2,2.2C87.1,31.3,93.6,31.6,100.1,32z M82.6,139.7c0.2-1.4,0.4-2.6,0.4-3.9c0.3-5,0.5-10.1,0.8-15.1
		c0.1-2.2,0.2-4.5,0.4-6.7c0.3-4.7,0.7-9.5,0.9-14.2c0.3-5.2,0.5-10.3,0.8-15.5c0.1-2.2,0.2-4.5,0.4-6.7c0.3-3.6,0.6-7.1,0.9-10.7
		c0.2-2.9,0.3-5.9,0.4-8.8c0.1-2.2,0.3-4.4,0.4-6.7c0.3-5.7,0.7-11.4,1-17c0.1-1.5,0-1.6-1.5-1.8c-1-0.1-2.1-0.2-3.2-0.2
		c-1.4,0-1.5,0.1-1.6,1.5c-0.3,5.1-0.7,10.2-1,15.3c-0.5,6.7-1,13.4-1.4,20.2C80,75.6,79.7,81.8,79.4,88c-0.3,5.2-0.5,10.3-0.8,15.5
		c-0.1,2.1-0.2,4.2-0.4,6.3c-0.3,4.7-0.6,9.5-0.9,14.2c-0.3,5-0.5,10.1-0.8,15.1c-0.1,1-0.2,2-0.3,3C77.8,139.7,80,139.3,82.6,139.7
		z M73.7,133.7c0.5-2.5,1-4.8,1.5-7.2c0.6-3,1.4-5.9,1.1-9c-0.1-1.5-0.2-3-0.3-4.6c-0.3-4.5-0.5-9-0.8-13.5c-0.1-1.3-0.3-2.5-0.5-4
		c-2.7,0.2-5.2,0.5-7.7,1.3c0,0.5-0.1,0.9-0.1,1.3c0.5,3.7,1,7.4,1.4,11.2c0.9,7.1,1.9,14.2,2.8,21.3C71.4,132,72,133.1,73.7,133.7z
		 M80.6,140.4c-1,0.6-2,0.9-2.6,1.6c-1.5,1.7-1.7,3.9,0.8,5.9c6.8,5.4,13.5,10.9,20.3,16.3c0.9,0.7,1.7,1.4,2.7,1.9
		c1.8,1,3.7,0,4-1.9c0.2-1.2-0.5-2-1.2-2.8c-2.3-2.2-4.7-4.4-7.1-6.6c-4.6-4.3-9.2-8.5-13.9-12.7C82.9,141.4,81.7,141,80.6,140.4z
		 M121.6,123.9c-1.5-3.3-3-6.3-5.2-9.2c-9.1,7.2-18.2,14.4-27.5,21.7c0.9,0.1,1.5,0.4,2,0.3c2.1-0.5,4.2-0.8,6.1-1.6
		c7.8-3.4,15.5-7,23.3-10.5C120.6,124.4,121,124.2,121.6,123.9z M74.4,188.5c0.3-0.8,0.4-1.3,0.6-1.8c0.6-2.4,1.1-4.8,1.8-7.1
		c0.7-2.6,1-5.1,1-7.8c-0.1-3.8,0-7.5,0-11.3c0-0.5,0-1,0-1.5c-1.5,1.9-2.8,3.9-4,5.9c-3.2,5-6.4,10.1-7.8,16
		c-0.3,1.4-0.9,2.7-1.3,4c-0.1,0.4-0.2,0.9-0.3,1.6C67.7,187.2,71,187.8,74.4,188.5z M66.5,145.5c-2.6-1-5.2-2-7.8-3
		c-0.2-0.1-0.5-0.1-0.7-0.1c-1.9-0.1-3.9-0.3-5.8-0.4c-2.3-0.2-4.6-0.3-6.8-0.5c-3.9-0.3-7.7-0.6-11.6-0.9c-0.5,0-1,0.1-1.6,0.1
		c0,2,0,3.8,0,5.6c0.1,1.7,0.2,1.8,2,2c0.9,0.1,1.8,0.2,2.6,0.2c4.9,0,9.8-0.1,14.6,0.1C56.7,148.9,61.5,146.8,66.5,145.5z
		 M90,187.1c-2.4-9.1-4.9-18.1-7.4-27.3c-0.2,0.6-0.4,0.9-0.4,1.3c-1,3.8-1.8,7.7-2.9,11.4c-1.5,5.1-0.9,10.3-0.9,15.5
		c0,0.1,0.1,0.2,0.3,0.4C82.4,188.6,86.1,188,90,187.1z M66.5,150c0-0.1-0.1-0.3-0.1-0.4c-3.1-0.1-6.2-0.1-9.3-0.1
		c-1,0-2,0.1-2.9,0.4c-6,1.6-12,3.2-18,4.8c-0.7,0.2-1.4,0.4-2.2,0.7c0.7,1.9,1.3,3.6,2,5.3c0.2,0.4,0.4,0.8,0.7,1.3
		c0.4-0.1,0.7-0.2,1.1-0.3c6.1-1.8,12.2-3.9,18.4-5.5C60.1,155.1,63.1,152.3,66.5,150z M93.7,137.5c4.4,0.9,8.5,1.8,12.6,2.7
		c0.4,0.1,0.9,0.1,1.4,0.1c3.7-0.3,7.5-0.6,11.2-1c1.5-0.1,3-0.2,4.5-0.4c1.5-0.1,1.7-0.4,1.6-1.9c-0.2-1.5-0.4-2.9-0.7-4.3
		c-0.2-0.9-0.4-1.8-0.7-2.6c-0.5,0-0.7,0-0.9,0.1c-6.7,1.5-13.3,3.1-20,4.7C99.7,135.5,96.6,135.9,93.7,137.5z M95.1,142.2
		c0.5,0.4,0.8,0.7,1.2,0.9c2.1,1.2,4.2,2.4,6.3,3.5c1.1,0.6,2.2,1.5,3.4,1.8c5.6,1.4,11.2,2.6,16.8,3.9c0.9,0.2,1.4-0.1,1.5-0.9
		c0.3-1.6,0.5-3.1,0.7-4.7c0.2-1.4,0-1.6-1.4-1.9c-4.2-0.9-8.5-1.9-12.7-2.8c-1.7-0.3-3.3-0.7-5-0.7c-2.2,0-4.3,0.2-6.5,0.4
		C98,141.9,96.7,142,95.1,142.2z M85.9,135.6c1.2,0.7,2.1,0.6,3.1-0.2c7.8-6.2,15.5-12.3,23.3-18.5c1.2-0.9,2.3-1.9,3.5-2.9
		c-1.6-2.2-3.1-4.1-5.2-5.8C102.4,117.5,94.1,126.5,85.9,135.6z M65.9,142.1c-2.7-2-5.2-3.9-7.7-6c-2.8-2.3-6-3.5-9.6-4
		c-0.7-0.1-1.3-0.5-1.9-0.8c-1.1-0.5-2.2-1.2-3.3-1.6c-2-0.8-4.1-1.5-6.1-2.3c-0.8-0.3-1.6-0.6-2.5-0.8c-0.2,0.3-0.4,0.5-0.5,0.7
		c-0.3,0.9-0.6,1.8-0.8,2.7c-0.5,1.8-0.5,1.8,1.2,2.4c6.2,2.4,12.4,4.7,18.5,7.3C57.3,141.3,61.4,142.2,65.9,142.1z M84.7,135.8
		c8.6-9.5,17-18.7,25.6-28.2c-2.1-1.6-4-3.1-6-4.6c-0.5,0.7-0.9,1.2-1.2,1.7c-3.3,5.1-6.6,10.3-9.8,15.4c-2.8,4.4-5.6,8.8-8.4,13.2
		C84.5,134,84,134.6,84.7,135.8z M68.3,129.6c-0.5-2.3-1-4.4-1.5-6.5c-0.2-0.7-0.5-1.4-0.8-2.1c-2.8-6.3-5.5-12.7-8.3-19
		c-0.2-0.4-0.4-0.8-0.5-1c-2.2,1.4-4.4,2.8-6.6,4.2c2,3.3,4,6.8,6.1,10.2c0.3,0.5,0.8,1,1.3,1.4c0.8,0.6,1.3,1.4,1.3,2.4
		c0,0.3,0.1,0.7,0.2,1C61.4,124.1,63.9,127.5,68.3,129.6z M92.8,146.2c-0.1,0.1-0.1,0.2-0.2,0.3c0.3,0.4,0.7,0.8,1,1.1
		c1.7,1.7,3.4,3.4,5.1,5.1c1.5,1.6,3.4,2.3,5.2,3.2c0.3,0.1,0.8,0.1,1.1-0.1c1.6-0.9,3-0.4,4.1,0.7c0.9,0.9,1.7,1.9,2.5,2.9
		c0.2,0.3,0.4,0.6,0.7,0.8c2.4,1.3,4.7,2.5,7.3,3.8c0.9-1.9,1.7-3.6,2.5-5.4c-0.5-0.4-0.8-0.6-1.2-0.8c-2.8-1.6-5.5-3.1-8.3-4.7
		c-2.5-1.4-4.8-3.1-7.4-4C101.2,147.9,97,147.2,92.8,146.2z M44,173.2c0.6-0.4,0.9-0.6,1.3-0.8c5.1-3.5,10.2-7.1,15.5-10.4
		c3.3-2.1,5.8-4.6,7.8-7.9c0.2-0.3,0.3-0.6,0.6-1.2c-2.5,0.7-4.6,1.5-6.8,2.1c-1.6,0.4-2.9,1.1-4.2,2.1c-4.7,3.5-9.5,6.9-14.3,10.3
		c-0.9,0.7-1.8,1.4-2.9,2.2C42,170.8,43,171.9,44,173.2z M84.2,153.5c-0.8,2.5-1.3,4.6-0.6,6.9c2.2,7.5,4.1,15.1,6.2,22.7
		c0.3,1.2,0.7,2.4,1.1,3.8c1.3-0.4,2.5-0.8,3.7-1.2c-0.1-0.7-0.2-1.4-0.4-2c-1.2-5.6-2.6-11.2-3.6-16.8c-0.7-4.3-2.3-8.1-4.8-11.5
		C85.3,154.8,84.8,154.3,84.2,153.5z M84.9,123c0.1,0,0.2,0,0.3,0.1c3-8.3,6.1-16.5,9.2-25c-2.6-1-5.1-1.8-7.9-1.9
		C86,105.3,85.4,114.2,84.9,123z M44.5,173.8c2.1,2,4,3.9,6.4,5.6c4.3-6.2,8.5-12.2,12.7-18.2c-0.1-0.1-0.1-0.1-0.2-0.2
		C57.1,165.2,50.9,169.4,44.5,173.8z M86.8,121c0.1,0,0.2,0.1,0.3,0.1c4.9-6.5,9.8-12.9,14.8-19.7c-2.4-1.2-4.5-2.2-6.8-3.3
		C92.3,106,89.5,113.5,86.8,121z M102.5,181.8c-4-6.3-7.8-12.3-11.7-18.3c-0.1,0-0.2,0.1-0.3,0.1c1.6,7.2,3.1,14.3,4.7,21.8
		C98,184.4,100.2,183.3,102.5,181.8z M55.4,141.4c0-0.1,0.1-0.1,0.1-0.2c-7.5-2.9-14.9-5.8-22.6-8.8c-0.4,2.5-1,4.7-0.7,7.3
		C40,140.3,47.7,140.9,55.4,141.4z M44.9,124.4c1.9-2.4,3.7-4.7,5.6-7.1c-2.3-2.2-4.5-4.2-6.7-6.3c-2.4,2.5-4.2,5.1-5.8,8.1
		C40.3,120.8,42.4,122.5,44.9,124.4z M103.5,102.6c-1.1-0.8-1.4-0.1-1.8,0.5c-5.2,6.9-10.4,13.7-15.6,20.7c-0.7,0.9-1.2,2.1-1.4,3.2
		c-0.3,1.8-0.2,3.6-0.3,5.4c0.1,0,0.1,0.1,0.2,0.1C90.9,122.5,97.2,112.6,103.5,102.6z M36.7,162.6c1.3,2.2,2.5,4.1,3.7,6.2
		c5.7-4.1,11.2-8.1,16.7-12c-0.1-0.1-0.1-0.2-0.2-0.3C50.3,158.5,43.7,160.5,36.7,162.6z M44.2,110.2c2.4,2.3,4.4,4.5,6.9,6.4
		c1-1.8,2.5-2,4.3-2c-1.9-3.2-3.7-6.2-5.7-9.5C47.8,106.9,46.1,108.5,44.2,110.2z M121.8,124.7c-7.2,3.3-14.1,6.4-21,9.6
		c0.3,0.2,0.5,0.1,0.7,0.1c4.1-0.9,8.1-1.9,12.2-2.8c2.6-0.6,5.1-1.2,7.7-1.8c2-0.5,2.1-0.5,1.4-2.6
		C122.5,126.4,122.2,125.7,121.8,124.7z M33.6,154.4c6.3-1.6,12.3-3.2,18.3-4.8c0,0,0-0.1,0-0.1c-6.4-0.1-12.8-0.2-19.4-0.4
		C32.9,151,33.2,152.5,33.6,154.4z M112.1,174.3c0.4-0.5,0.7-0.7,0.9-1c0.7-0.9,1.9-1.9,1.9-2.8c-0.1-0.9-1.4-1.8-2.2-2.6
		c-1.1-1.2-2.3-2.3-3.6-3.6c-1.3,1.4-2.4,2.7-3.6,4C107.9,170.4,109.9,172.3,112.1,174.3z M37.3,120c-0.9,2.1-1.6,3.8-2.4,5.6
		c3.1,1.2,5.9,2.2,8.7,3.2c0.1-1.1,0.2-2.1,0.2-3.1c0-0.4-0.2-0.8-0.4-1C41.4,123.2,39.5,121.7,37.3,120z M112,161
		c-0.8,1-1.5,1.8-2,2.4c2.1,2.1,4,4,6.1,6.1c0.9-1.5,2-3,3.1-4.8C116.6,163.4,114.3,162.2,112,161z M57.7,100.2
		c2.5,5.8,5,11.4,7.4,17c0.1,0,0.2-0.1,0.3-0.1c-1.4-6.1-2.8-12.2-4.2-18.5C60,99.2,58.9,99.7,57.7,100.2z M108.7,149.8
		c0,0.1,0,0.2-0.1,0.3c4.5,2.5,9,5.1,13.7,7.8c0.4-1.3,0.8-2.3,1.1-3.4c0.3-0.9-0.1-1.3-1-1.5C117.9,151.9,113.3,150.9,108.7,149.8z
		 M110.4,140.8c0,0.1,0,0.2,0,0.3c4.8,1,9.6,2,14.4,3.1c0-1.7,0-3.1,0-4.7C120,140,115.2,140.4,110.4,140.8z M80.7,153.3
		c-0.8,1.7-1.9,3-2,4.4c-0.2,4.5-0.1,9.1-0.1,13.7c0.2-0.3,0.4-0.7,0.5-1.1c0.8-3,1.4-6.1,2.3-9C82.3,158.6,82,156.2,80.7,153.3z
		 M89.9,139.3c2.6,2.1,3.4,2.3,6.4,2c0.6-0.1,1.3-0.1,1.9-0.1c1.6-0.1,3.3-0.3,4.9-0.5c-0.5-0.4-1.1-0.6-1.6-0.7
		c-2.3-0.5-4.6-0.9-6.8-1.5C92.9,138,91.4,138.3,89.9,139.3z M89,142.8c0.9,1.4,1.9,2.3,3.5,2.6c2.3,0.4,4.6,1,6.9,1.5
		c0.9,0.2,1.7,0.4,2.6,0.6c-2.5-1.7-5.1-3.3-7.7-4.7c-0.6-0.3-1.5-0.4-2.2-0.4C91.1,142.4,90.1,142.7,89,142.8z M74.8,145.3
		c0.2-2.4,0.4-4.6,0.4-6.9c0-0.4-0.4-0.8-0.5-1.1c-0.3,0.2-0.8,0.3-1,0.6c-1.3,1.4-1.6,3.1-1.4,4.9
		C72.4,144.3,72.9,144.8,74.8,145.3z M76.6,110.7c0.1,0,0.2,0,0.2,0c0.3-5,0.6-10,0.9-15c-1.9-0.2-2-0.2-1.9,1.3
		C76,101.5,76.3,106.1,76.6,110.7z M70.2,147.2c-1.5-0.9-2-1.1-3.1-0.8c-2.6,0.7-5.2,1.4-7.8,2.1c0.6,0.3,1.2,0.4,1.8,0.4
		c1.8,0,3.6-0.1,5.4,0.1C68.1,149,69.2,148.2,70.2,147.2z M75,151.4c-4.3,0-5.9,2.7-7.4,5.6c2.1-1.3,4.2-2.6,6.2-4
		C74.2,152.7,74.5,152.1,75,151.4z M61.2,185.2c0.9,0.3,1.5,0.5,2.3,0.8c1-3,1.9-5.9,2.9-8.7c-0.1,0-0.2-0.1-0.2-0.1
		C64.6,179.7,63,182.3,61.2,185.2z M77.5,179.9c-0.6,2.5-1.3,5.4-2.1,8.3c1.9,0.3,2,0.3,2-1.1C77.5,184.6,77.5,182.1,77.5,179.9z
		 M50,123.5c0,0.9,0.5,1.6,1.4,1.7c0.9,0.1,1.9-0.7,1.9-1.7c0.1-1-0.6-1.7-1.6-1.7C50.7,121.9,50.1,122.5,50,123.5z M62.1,143
		c1.8,0.7,3.6,1.4,5.4,2.1c0.7,0.3,1.3,0.3,1.9-0.3C67.3,142.5,64.7,142.9,62.1,143z M91.5,141.6c-2.5-2.1-3.4-2.2-4.4-0.7
		C88.4,142.7,90,141.5,91.5,141.6z M82.4,156.1c0.1,0,0.2,0,0.2,0c0.2-0.6,0.3-1.2,0.5-1.9c0.3-1.4,0.3-1.5-1.7-2.3
		C81.8,153.5,82.1,154.8,82.4,156.1z M75.5,128.8c-0.3,1.7-0.7,3.4-1,5.1c0.2,0,0.4,0.1,0.5,0.1C76.2,132.4,75.3,130.5,75.5,128.8z
		 M75,150.3c-2.4-0.8-2.8-0.7-3.3,1.1C72.8,151,73.9,150.6,75,150.3z M58.1,122.2c1.1,0.8,1.9,1.4,2.8,2.1c0.1-0.1,0.1-0.1,0.2-0.2
		c-0.6-1-1.2-2-1.9-3.2C58.7,121.4,58.5,121.8,58.1,122.2z M80.6,152.3c-0.1-0.1-0.3-0.2-0.4-0.3c-1.2,0.7-1.9,1.6-1.4,3.4
		C79.5,154.2,80,153.3,80.6,152.3z M72.4,148.7c0-0.1,0-0.3,0-0.4c-1.1-0.8-1.4-0.7-2.5,0.8C70.7,148.9,71.5,148.8,72.4,148.7z
		 M89,144.6c0.1-0.1,0.2-0.2,0.2-0.3c-0.6-0.5-1.1-1-1.7-1.5C87.2,144.2,88.2,144.3,89,144.6z M90.6,138.1c0-0.1-0.1-0.3-0.1-0.3
		c-0.8,0.1-1.6,0.2-2.4,0.4C89.1,139,89.8,138.3,90.6,138.1z M84.9,141c-0.2-0.7-0.4-1.4-0.6-2.1C84,139.7,83.6,140.6,84.9,141z
		 M75.6,151.2c0.1,0.1,0.2,0.2,0.3,0.4c0.4-0.3,0.8-0.6,1.2-0.9c-0.1-0.1-0.1-0.2-0.2-0.3C76.5,150.7,76,151,75.6,151.2z M78.6,151
		c0.1,0.1,0.1,0.2,0.2,0.3c0.3-0.2,0.7-0.4,1-0.5c-0.1-0.1-0.2-0.3-0.3-0.4C79.1,150.6,78.8,150.8,78.6,151z M70.7,146.4
		c0.1-0.1,0.1-0.2,0.2-0.3c-0.3-0.1-0.5-0.2-0.8-0.4c0,0.1-0.1,0.2-0.1,0.3C70.2,146.1,70.4,146.2,70.7,146.4z M87.5,139.5
		c0.1-0.1,0.1-0.2,0.2-0.3c-0.3-0.1-0.6-0.3-0.8-0.4c-0.1,0.1-0.1,0.2-0.2,0.4C87,139.3,87.2,139.4,87.5,139.5z M72.3,135.7
		c-0.1-0.1-0.1-0.1-0.2-0.2c0,0-0.1,0.1-0.1,0.1c0,0.1,0.1,0.2,0.1,0.3C72.2,135.9,72.2,135.8,72.3,135.7z M75.9,127.3
		C75.9,127.3,75.9,127.3,75.9,127.3c0-0.1,0-0.3,0-0.4c0,0,0,0,0,0C75.9,127.1,75.9,127.2,75.9,127.3z"/>
</g>
<path d="M134.2,202.1c0.2-0.3,0.2-0.8,0.5-0.9c2-0.6,4.1-1.2,6.1-1.7c0.1,0,0.2,0.1,0.7,0.3c-0.5,0.3-0.8,0.4-1.1,0.5
	c-1.9,0.6-3.7,1.2-5.6,1.8C134.6,202.1,134.4,202.1,134.2,202.1z"/>
<path d="M89.9,199.3c3.6-1.4,7.3-2.1,11.1-2.7c0,0.2,0.1,0.3,0.1,0.5c-1.9,0.4-3.8,0.8-5.6,1.3c-1.8,0.4-3.6,0.9-5.5,1.4
	C90,199.6,90,199.5,89.9,199.3z"/>
<path d="M107.2,196.9c-3.5,1.1-6.9,2.1-10.3,3.1c-0.1,0-0.3-0.1-0.5-0.2C97.6,198.8,106.2,196.4,107.2,196.9z"/>
<path d="M129.8,201.1c2.6-1.4,5.6-1.6,8.3-2.4c-1.1,1.1-2.7,1.1-4.1,1.7c-1.3,0.6-2.8,0.9-4.2,1.3
	C129.9,201.5,129.9,201.3,129.8,201.1z"/>
<path d="M102.8,199.1c3-1.4,6.3-1.7,9.3-2.9c0.1,0.1,0.2,0.2,0.2,0.4c-0.2,0.2-0.4,0.4-0.6,0.5c-2.1,0.6-4.2,1.1-6.4,1.6
	C104.5,198.9,103.8,199.6,102.8,199.1z"/>
<path d="M124.9,201c0.4-0.2,0.8-0.6,1.2-0.7c2.5-0.8,5-1.6,7.6-2.2c0,0.2,0.1,0.3,0.1,0.5c-2.9,0.9-5.8,1.8-8.7,2.8
	C125.1,201.2,125,201.1,124.9,201z"/>
<path d="M116.8,196.9c-3,1-5.9,2-8.8,2.9C108.9,198.4,115.4,196.4,116.8,196.9z"/>
<path d="M120.9,200.3c2.6-1.1,5.4-1.6,8.1-2.2c0,0.2,0.1,0.4,0.1,0.6c-2.7,0.7-5.4,1.4-8.1,2.2C121,200.7,121,200.5,120.9,200.3z"/>
<path d="M44.1,194.1c2.9-1.3,6-1.2,9.1-1.7c0,0.1,0,0.2,0.1,0.4c-3,0.6-6.1,1.1-9.1,1.7C44.2,194.3,44.1,194.2,44.1,194.1z"/>
<path d="M116.1,200.2c2.8-1.1,5.6-2.2,8.5-2.9c0,0.1,0.1,0.3,0.1,0.4c-2.8,1-5.7,2-8.5,2.9C116.2,200.5,116.1,200.4,116.1,200.2z"/>
<path d="M121,197.1c-2.9,1-5.7,2-8.6,3c-0.1-0.2-0.1-0.4-0.2-0.6c2.9-1,5.8-2,8.7-2.9C120.9,196.8,120.9,196.9,121,197.1z"/>
<path d="M47,192.8c-2.5,0.4-4.9,0.7-7.6,1.1C41,192.8,45.9,192.1,47,192.8z"/>
</svg>
