<?xml version="1.0" encoding="utf-8"?>
<!-- Generator: Adobe Illustrator 17.1.0, SVG Export Plug-In . SVG Version: 6.00 Build 0)  -->
<!DOCTYPE svg PUBLIC "-//W3C//DTD SVG 1.1//EN" "http://www.w3.org/Graphics/SVG/1.1/DTD/svg11.dtd">
<svg version="1.1" id="Layer_1" xmlns="http://www.w3.org/2000/svg" xmlns:xlink="http://www.w3.org/1999/xlink" x="0px" y="0px"
	 viewBox="0 0 288 216" enable-background="new 0 0 288 216" xml:space="preserve">
<g>
	<path d="M146.1,55.2c-2.2,0.1-4.3,0-6.6,0c0.1-0.2,0.3-0.3,0.4-0.5c0.2-0.3,0.3-0.7,0.4-1.1c-0.5-0.2-1.1-0.5-1.6-0.5
		c-0.5,0.1-0.9,0.6-1.3,0.8c-2,1.2-3.6,2.9-6.1,3.3c-4.9,0.8-9.3,2.7-13.7,5c-0.9,0.5-1.8,1-2.6,1.7c-2.3,2.3-4.5,4.7-6.7,7.1
		c-0.2,0.2-0.5,0.4-0.8,0.5c1.6-2,3.3-3.8,5-5.6c0.9-1,1.8-2,2.7-2.9c1.1-1.2,2.1-2.5,3.4-3.5c1.5-1.2,3.1-2.2,5.1-2.9
		c1.6-0.5,3-1.5,4.6-2.1c1-0.4,2-0.8,2.6-1.7c0.4-0.4,0.6-1,1-1.4c0.7-0.6,1.4-1,2.1-1.5c2-1.4,3.8-3.4,6.6-2.9
		c0.3,0.1,1.1-0.3,1.1-0.6c0.2-0.9,0.9-1,1.6-1.2c1.4-0.4,2.9-0.6,4.4-0.9c1.7-0.4,3.4-0.8,5-1.2c-0.2-1.3-0.8-1.8-1.9-1.7
		c-2.5,0.4-5,0.7-7.4,1.1c-3.2,0.6-6.3,1.5-9.1,3.4c-3.2,2.2-6.4,4.3-9.8,6.3c-2.5,1.5-5.3,2.6-7.9,4c-0.4,0.2-0.7,0.5-0.9,0.8
		c-1.1,1.2-2.1,2.4-3.2,3.6c-1.3,1.4-2.5,2.9-3.8,4.3c-1.1,1.2-2.3,2.4-3.6,3.8c0-0.6-0.1-1,0-1.2c0.5-2.3,1.2-4.5,1.7-6.8
		c0.4-2.1,0.9-4.2,2-6c2.4-4,4.9-7.9,7.6-11.7c1.4-2,3.3-3.6,5-5.3c0.7-0.7,1.6-1.1,2.7-1c0.4,0,0.9-0.4,1.1-0.8
		c0.1-0.2,0-0.8-0.2-1c-0.8-0.8-3.8-0.8-4.6,0c-1.6,1.5-3.1,3.1-4.7,4.7c-1.3,1.4-2.6,2.8-4,4.2c0.8-2.5,1.6-5,2.4-7.4
		c-0.5-0.3-0.8-0.6-1.3-0.8c-0.3,0.4-0.7,0.7-0.8,1.1c-0.8,1.8-1.7,3.6-2.4,5.5c-1,2.9-1.7,5.8-2.8,8.7c-1.7,4.4-2.8,9.1-4,13.6
		c-0.7,2.6-1.4,5.3-2.1,8.1c-1.9,0.4-4,0.8-5.9,1.2c-3.1,0.7-6.2,1.4-9.2,2.2c-2.4,0.6-4.5,1.8-5.7,4c-0.7,1.3-1,2.8-1.2,4.3
		c-0.2,1.8-0.2,3.7-0.1,5.5c0,0.3,0.5,0.5,0.7,0.8l0.2-0.2c1.4,4.5,1.8,9.1,1.7,13.5c-1,0.1-2,0.2-2.9,0.4c0,0.1,0.1,0.1,0.1,0.2
		c0.8-0.1,1.7,0,2.6,0.1c0.5,0.1,0.8,0.7,0.7,1.2c0.3,0.1,0.5,0.1,0.8,0.2c2.1,0.5,4.1,1.3,6.1,2.1c1.3,0.5,2.6,1.1,3.9,1.7
		c1.6,0.8,1.8,1.9,0.5,3.1c-1,0.8-1.9,1.7-2.9,2.5c0.3,0.2,0.5,0.5,0.7,0.8c0,0.1,0.1,0.1,0.1,0.1c1.1-1.1,2.2-2.2,3.3-3.3
		c1.3-1.5,1-3-0.6-4.1c-0.7-0.5-1.4-0.9-2.2-1.4c0.9-2.1,1.5-4.3,1.2-6.5c-0.4-3-0.8-6.1-3.1-8.5c-1.4-1.4-3.7-1.4-5.1,0
		c-0.6,0.6-1.2,1.2-1.6,1.9c-0.4,0.6-0.6,1.4-1.1,2.1c-0.1-1.1-0.3-2.1-0.5-3.2c-0.2-0.9-0.3-1.9-0.7-2.8c-1-2.1,0-3.7,1.2-5
		c1.3-1.4,3.2-2.3,4.7-3.4c0.4-0.3,0.8-0.9,0.8-1.3c-0.1-1.1-0.4-2.1-0.7-3.3c-2.6,0.7-4.4,2.4-6.3,3.8c-0.1-0.1-0.2-0.2-0.3-0.2
		c0.5-0.6,0.8-1.4,1.4-1.8c2.1-1.5,4.5-2.6,7.1-3c0.2,0,0.6,0.2,0.7,0.4c1,2.2,2.3,3.4,4.7,3.2c2.2-0.2,4.3,0.6,6.4,1.5
		c2.8,1.3,5.5,2.8,7.6,5.1c0.1,0.1,0.3,0.3,0.5,0.4c0.1,0,0.2-0.1,0.3-0.1c-0.2-0.4-0.2-0.9-0.5-1.3c-1.5-2.4-3.1-4.7-4.5-7.1
		c-0.6-1.1-1.6-1.1-2.6-1.2c-1.5-0.2-3.1-0.2-4.6-0.5c-1.4-0.2-2.9-0.6-4.3-1.2c1.2-0.3,2.4-0.5,3.7-0.8c2.4-0.5,4.8-1,7.2-1.4
		c3.8-0.7,7.6-0.7,10.8,1.7c2.2,1.7,4.2,3.7,6,5.7c2.1,2.4,4,4.9,5.8,7.5c1.7,2.4,3.1,5,4.6,7.6c2.4,4.3,4.9,8.6,7.1,13
		c1.7,3.3,2.6,6.8,3.4,10.4c0.4-0.5,0.8-0.9,1.3-1.2c-0.4-1.8-0.7-3.6-1.3-5.4c-1.4-4.8-4.4-8.9-6.7-13.3c-0.7-1.2-1.6-2.3-2.3-3.4
		c-0.6-1-1-2.1-1.5-3c-2.5-4.2-5-8.4-8.3-12.1c-2.3-2.6-4.6-5.3-7.6-7.1c-0.7-0.4-1.5-0.9-2.2-1.3c1.3-1.6,2.6-3.2,4-4.8
		c0.5-0.6,1-1.1,1.7-1.5c2.1-1.2,4.2-2.5,6.5-3.5c2.3-1,4.8-1.6,7.2-2.4c2-0.7,4.2-0.5,6-1.6c0.5-0.3,1.1-0.3,1.7-0.3
		c1.9,0,3.9-0.2,5.8,0c2.3,0.2,4.4,1.2,5.4,3.6c0.1,0.3,0.5,0.7,0.8,0.7c0.3,0,0.8-0.3,0.9-0.6c0.2-0.8,0.3-1.6,0.1-2.3
		C151.6,57.2,148.6,55.1,146.1,55.2z M82.1,101.9c0-2.3,0.4-4.4,1.8-6.4c2-2.8,4.8-2.7,6.5,0.2c2,3.3,1.9,6.8,0.7,10.3
		c-0.3,0.8-0.4,1.2-1.6,0.7c-2.1-1-4.4-1.5-6.6-2.3c-0.3-0.1-0.7-0.6-0.8-1C82,102.9,82.1,102.4,82.1,101.9z M81.9,81.3
		c0.8-0.6,1.5-1.3,2.4-1.8c0.4-0.3,1-0.5,1.6-0.7c0.1,0.6,0.1,0.9,0.2,1.2c0.4,0.9,0,1.3-0.7,1.7c-1.4,0.9-2.9,1.8-4.1,2.9
		c-0.7,0.6-0.9,1.7-1.4,2.6c-0.1,0.3-0.2,0.6-0.3,0.9c-0.1,0-0.2,0-0.3-0.1c0-0.2,0-0.4,0-0.6c0.1-0.7,0.4-1.4,0.3-2
		C79.3,83.4,80.5,82.3,81.9,81.3z M94.3,77c1.9,0.6,3.7,0.6,5.6,0.6c2.1-0.1,3.5,0.8,4.4,2.7c0.6,1.2,1.5,2.2,2.2,3.4
		c0.2,0.2,0.3,0.5,0.4,0.8l-0.3,0.2c-1.3-0.9-2.6-2-4-2.8c-1.3-0.8-2.6-1.6-4-2.1c-1.4-0.5-2.8-0.5-4.3-0.7c-1.1-0.2-2.3,0-3.1-0.9
		c-0.3-0.4-0.6-0.8-1.1-1.6C91.8,76.7,93.1,76.6,94.3,77z M103.4,71.2c-0.2,0.3-0.7,0.5-1,0.8c-0.1-0.3-0.3-0.7-0.3-0.9
		c0.6-2.2,1.2-4.3,1.8-6.4c0.5-1.6,1-3.2,1.4-4.8c0.6-2.1,1.3-4.2,1.7-6.3c0.4-2.2,1.5-4,2.3-6.1c0.5-1.4,0.6-2.9,1.1-4.3
		c0.7-2,1.5-3.9,2.2-5.9c0.1-0.2,0.4-0.4,0.6-0.5l0.3,0.1c-1,3.6-2.8,7.1-3.1,10.9l0.3,0.1c0.4-0.7,0.8-1.5,1.3-2.2
		c0.9-1.2,1.7-2.5,2.7-3.6c1.9-2.1,4.1-4.1,6-6.3c0.9-1,2.3-1,3.4-0.6c0.2,0.1,0.3,0.3,0.4,0.5c-0.2,0.1-0.5,0.4-0.6,0.3
		c-1.6-0.6-2.5,0.3-3.3,1.4c-0.4,0.6-1,1-1.5,1.5c-2.6,2.4-4.9,5-6.6,8.2c-1.3,2.5-3.1,4.8-4.4,7.3c-0.8,1.6-1.1,3.4-1.6,5.1
		c-0.4,1.5-0.7,3.1-1.2,4.6c-0.6,2-1.2,4-1.8,6C103.4,70.6,103.5,71,103.4,71.2z M106.2,71c-0.2,0.2-0.6,0.4-0.9,0.5
		c-0.3,0-0.6-0.1-0.8-0.3c-0.1-0.1,0.1-0.5,0.3-0.7c1-1.1,2-2.2,3-3.3c2.7-3,5.3-6,8.1-8.9c1-1,2.4-1.7,3.7-2.4
		c3.1-1.7,6.2-3.3,9.2-5.1c3.1-1.8,6-3.9,9.1-5.7c1.4-0.8,3.2-1,4.8-1.4c0.9-0.3,1.9-0.3,2.8-0.7c1.9-0.9,3.9-0.5,5.8-0.6l0.1,0.3
		c-0.4,0.1-0.7,0.4-1.1,0.4c-3.2,0.2-6.2,1-9.2,2.2c-0.3,0.1-0.8,0.2-0.4,0.7c0,0-0.2,0.3-0.3,0.3c-0.2,0.1-0.5,0.1-0.8,0
		c-1.6-0.6-2.8,0.4-4,1.2c-1.7,1.3-3.3,2.9-5,4.3c-1.3,1-2.7,1.8-4.1,2.6c-1.2,0.7-2.6,1.1-3.8,1.8c-1.8,1-3.7,2.1-5.3,3.4
		c-1.7,1.4-3.1,3.1-4.6,4.7c-1.2,1.2-2.3,2.5-3.4,3.7C108.4,68.9,107.3,70,106.2,71z M151.6,61.3c-0.1-0.2-0.3-0.3-0.4-0.5
		c-1.6-2.3-3.9-3.2-6.6-3.4c-0.2,0-0.4,0-0.5,0c-3.5,0-7-0.1-10.5,1.3c-2.7,1.1-5.8,1.5-8.5,2.7c-4.7,2-9.4,4-12.6,8.3
		c-0.5,0.6-1.1,1.1-1.8,1.6c-0.3,0.2-0.6,0.2-1,0.3c0-0.1-0.1-0.2-0.1-0.3c0.2-0.2,0.3-0.5,0.5-0.7c1.9-2.1,3.9-4.2,5.9-6.2
		c0.6-0.6,1.6-1,2.5-1.4c2.2-1,4.4-2.1,6.7-2.9c1.8-0.7,3.7-1.1,5.6-1.6c1.4-0.4,2.9-0.8,4.2-1.5c1.1-0.6,2-1.6,3-2.4
		c0.3-0.2,0.5-0.3,0.8-0.5l0.3,0.3c-0.6,0.5-1.1,1-1.9,1.7h6.3c0.6,0,1.2,0,1.8,0c3.1-0.2,4.9,1.4,6.1,4
		C151.7,60.4,151.7,60.8,151.6,61.3z"/>
	<path d="M100.3,129.3c2.3-1.3,4.5-2.7,6.4-4.7c1.5-1.7,3.3-3.2,4.7-5c1.7-2.2,3.2-4.6,4.7-7c0.4-0.6,0.8-1.2,1.2-1.8
		c0.1,0,0.3,0.1,0.4,0.1c0.1,1,0.2,2,0.4,3c0.1,0.7,0.3,1.4,0.4,2c0.4,3.1,0.9,6.2,1,9.4c0.1,3.3,0.5,6.7-0.3,10.1
		c-0.3,1.5-0.2,3.1-0.5,4.7c-0.4,2.4-0.9,4.7-1.4,7c0.4,0.4,0.9,0.8,1.4,1.1c0.2-0.7,0.3-1.4,0.5-2.1c0.4-2.5,1-4.9,1.5-7.4
		c0.2-1,0.2-2.1,0.3-3.1c0.1-2.7,0.3-5.5,0.2-8.2c-0.2-5.6-0.5-11.2-2.2-17c2,0.3,3.8,0.6,5.6,0.9c-1.2-3.1-14.5-3.3-17.5-0.1
		c1.5-0.3,2.9-0.6,4.3-0.7c1.4-0.1,2.8,0,4.4,0c-0.2,0.4-0.3,0.9-0.5,1.2c-1.8,2.6-3.5,5.2-5.4,7.7c-2.4,3.1-5.2,5.8-8.6,7.7
		c-0.7,0.4-1.4,0.8-2.2,1.2C99.5,128.5,99.9,128.9,100.3,129.3z"/>
	<path d="M249.7,152.8c-0.3-3.1-1.4-6-3-8.7c-1-1.7-2.3-3.3-3.5-4.9c-2-2.7-4.6-4.7-7.7-5.9c-1.2-0.5-2.6-0.8-4-0.4
		c-1.6,0.6-3.3,1-4.7,2.2c-1.4,1.2-3,2.1-4.4,3.3c-1.3,1-2.4,2.2-3.4,3.2c-4-4.6-8.1-9.1-12-13.5c0.6-1.8,1.5-3.6,1.8-5.5
		c0.6-4.6-1.4-8.2-5-10.9c-0.9-0.6-1.7-1.2-2.7-1.7c-0.3,0.4-0.6,0.7-0.9,1c3.3,1.5,5.7,4.1,7,7.9c0.7,2.1,0.2,4.1-0.5,6.1
		c-0.2,0.6-0.5,1.2-0.9,1.7c-0.1,0.2-0.8,0.3-1,0.1c-2.3-1.7-4.7-3.1-7.2-4.2c0.3,0.6,0.4,1.3,0.3,2c0.4,0.2,0.8,0.4,1.2,0.5
		c3.1,1.5,5.8,3.5,8.2,5.9c2.2,2.2,4.3,4.4,6.4,6.6c1.4,1.5,2.5,3.2,3.9,4.7c0.9,1,0.1,2.1,0.2,3.1c0.2,1.8,0.2,3.6,0.5,5.4
		c0.2,1.4,0.4,2.8,0.9,4.1c1.2,3.9,3,7.5,6.1,10.3c0.3,0.3,0.6,0.6,0.9,0.7c0.8,0.2,1,0.9,1,1.5c0.1,3.4,0.2,6.8,0,10.3
		c-0.3,5.6-2.3,10.7-4.9,15.5c-1.7,3.2-3.9,6.1-6.5,8.6c-3.6,3.4-7.8,5.4-12.7,5.9c-2.1,0.2-4.2,0.6-6.3,0.6c-2.1,0-4.1-0.4-6.2-0.6
		c-1.7-0.2-3.4-0.3-5.1-0.7c-3.4-0.7-6.8-1.4-10.2-2.3c-3-0.8-6-1.9-9-2.9c-0.3-0.1-0.5-0.3-0.9-0.4c4.7-1.3,7.4-4.6,9.7-8.4
		c1.8-3,3-6.3,3.8-9.7c0.7-2.9,0.9-5.9,0.3-8.9c-0.5-2.7-1-5.4-1.7-8.1c-0.1-0.4-0.2-0.8-0.4-1.3c-0.3,0.4-0.7,0.8-1.2,1.1
		c0.9,2.6,1.5,5.3,1.8,8.1c0.3,2.7,0.3,5.4-0.3,8c-1.1,5-3,9.6-6.5,13.4c-3.2,3.5-7.1,5.2-11.8,5.1c-2.7,0-5.3-0.2-8.1-0.3
		c0.1-0.9,0.3-1.6,0.1-2.3c-0.2-1.2-0.9-2.1-2-2.7c-2.7-1.4-5.4-2.7-8.4-3.3c-1.5-0.3-3.2-0.1-4.7,0.2c-1.2,0.2-2,1.2-2,2.9
		c-1.3-1.1-2.4-2-3.7-3.1c0.7-0.2,1.2-0.4,1.7-0.6c1.9-0.7,3.7-0.8,5.6-0.1c1.8,0.6,3.4-0.2,4.8-1.1c2.7-1.8,5.7-2.8,9-2.7
		c0.8,0,1.5-0.4,2.3-0.6c1.5-0.4,3-1,4.6-1.3c1.7-0.4,2.9-1.1,3.4-3c0.5-1.8-0.2-3.2-0.9-4.6c-0.1-0.2-0.4-0.4-0.7-0.4
		c-1.6-0.1-3.1,0-4.7,0.8c-3,1.6-5.9,3.2-9.1,4.4c-2.9,1.1-6,1.4-9,2.2c-1,0.3-2.1,0.5-3,1c-1,0.5-2,0.8-3.2,0.8
		c-1.3,0-2.8-0.4-4,0.6c-0.1,0.1-0.5-0.1-0.5-0.2c-1-1.9-1.9-3.8-2.8-5.7c2.3,0,4.3,0,6.4,0c4.3,0.1,7.5-2,10-5.2
		c2.3-3,4.1-6.3,5.3-9.8c0.5-1.4,0.8-2.9,1-4.4c-0.4-0.4-0.7-0.8-0.9-1.3c-0.7,5.3-2.9,10.1-6.1,14.6c-2.4,3.2-5.6,5-9.6,4.8
		c-3.3-0.2-6.6-0.5-9.8-1.1c-4.4-0.7-8.8-1.6-13.2-2.6c-5.3-1.2-9.8-3.9-14-7.3c-3.1-2.5-4.8-5.8-6.2-9.4c-1.3-3.3-2.6-6.6-3.9-9.9
		c-0.2-0.6-0.6-1.1-1-1.7c0.2-0.1,0.2-0.1,0.3-0.2c3-0.6,3-0.6,4.3,2.1c1.3,2.8,2.4,5.8,3.6,8.6c0.9,2.1,1.8,4.2,3.7,5.6
		c1.3,1,2.7,1.6,4.4,1.7c7.1,0.3,12.1-3.2,16-8.6c1.5-2.1,2.6-4.3,3.4-6.7c-0.5-0.1-1.1-0.3-1.6-0.4c-0.4,1.3-0.9,2.6-1.5,3.8
		c-1.4,3.3-3.7,5.7-6.7,7.6c-2,1.3-4.2,2.5-6.6,2.8c-2.4,0.3-4.8,0.4-6.7-1.5c-0.9-0.9-1.8-1.8-2.3-2.9c-1.1-2.3-2-4.7-3.1-7.1
		c-0.9-2-1.8-4-2.5-5.7c0.9-1.1,1.9-2,2.6-3.1c0.4-0.6,0.5-1.6,0.5-2.3c0.1-2.3,0.1-4.6,0-7c0-1,0.5-1.4,1.2-1.7
		c0.8-0.4,1.6-0.7,2.4-1c-0.1-0.6-0.1-1.2,0-1.8c-0.3,0.1-0.7,0.3-1,0.4c-3.5,1.4-7.1,2.7-10.8,3.6c-2.9,0.8-6,1.1-9.1,1.5
		c-2,0.2-4,0.3-6,0.2c-1.7-0.1-3.3-0.6-4.9-0.9c-0.9-0.2-1.2-0.9-0.9-1.6c0.6-1.6,1.3-3.1,1.9-4.7c0.6-1.6,2.1-1.3,3.3-1.4
		c4.5-0.6,9-1.2,13.1-3.5c2.8-1.6,5.5-3.2,8.1-5.1c-0.3-0.4-0.6-0.7-0.9-1c-0.4,0.3-0.8,0.6-1.2,0.9c-2.5,1.8-5.3,3.1-8,4.7
		c-2,1.1-4.1,1.6-6.3,1.9c-3.3,0.5-6.6,0.9-9.9,1.3c-2.1,0.3-4.1,0.7-6.2,1c-0.7,0.1-1.5,0-2.2,0c-3.1,0.1-6.3,0.2-9.4,0.2
		c-0.7,0-1.3-0.5-2.1-0.8c0.2-1.3,1.3-1.5,2.2-2c1.6-0.9,3.2-1.8,4.9-2.5c1.3-0.6,2.7-1,4-1.6c2-1.1,3.9-2.4,5.8-3.7
		c1.4-1,1.9-0.9,2.8,0.5c1.2,2,1.3,4.2,0.9,6.5c0,0.1,0,0.3,0,0.4c0,0.1,0,0.1,0.1,0.4c0.7-1.7,0.9-3.4,0.6-5
		c-0.3-1.7-1.3-3.1-2.9-4.1c1-0.7,1.8-1.6,2.7-1.9c1.2-0.4,2.7-0.2,3.7,0.6c2.7,1.9,4.4,4.5,4.3,8c0,0.3,0,0.6,0,1.1
		c1-1.3,0.7-2.6,0.3-3.7c-1.5-4.5-3.2-5.9-7.6-6.5c0.1-0.2,0.2-0.4,0.3-0.5c1.9-1.3,3.7-2.6,5.7-3.8c1.8-1.1,3.6-2,5.4-3h-2
		c-0.3,0-0.5-0.1-0.7-0.3c-2.3,1.3-4.5,2.8-6.6,4.3c-3.3,2.3-6.5,4.8-9.6,7.3c-2.6,2.1-5.6,3.2-8.5,4.6c-2,0.9-3.9,2-5.7,3.1
		c-0.7,0.4-1.6,1-1.2,2c0.3,0.6,1.1,1.2,1.8,1.4c1.3,0.3,2.8,0.5,4.1,0.5c2.6,0,5.2-0.1,7.8-0.2c1.5-0.1,3-0.3,4.5-0.4
		c1.2-0.1,2.4-0.3,3.7-0.4c-0.2,0.4-0.4,0.7-0.6,0.9c-1,1.2-1.8,2.6-2.1,4.2c-0.4,1.7,0,2.6,1.6,3.1c1.3,0.4,2.7,0.6,4,0.9
		c0.6,0.2,1.3,0.4,1.6,0.9c0.7,1.4,1.2,2.9,1.9,4.4c0.9,2,2,3.8,4.2,4.6c2.3,0.8,4.6,1.1,7,1c0.7,0,1.2,0.2,1.5,0.8
		c0.4,0.6,0.8,1.2,1,1.9c1.1,2.8,2.2,5.5,3.1,8.4c1.7,5,4.2,9.3,8.6,12.3c1.9,1.3,3.9,2.6,6,4c-0.4,0.1-0.7,0.3-1,0.4
		c-1.6,0.3-3.2,0.5-4.8,0.9c-2,0.5-3.9,1.1-6,0.1c-0.2-0.1-0.8,0.6-1.2,1c-0.2,0.2-0.3,0.7-0.6,0.8c-3.2,1.2-6.5,1.6-9.9,1.6
		c-1.5,0-3.1,0.5-4.6,0.7c-0.5,0.1-0.9,0.2-1.1,0.3c-0.4-1.8-0.8-3.5-1.2-5.1c-0.2-1-1-1.3-1.8-1.3c-1.1,0-2,0.9-1.9,1.9
		c0.1,1.3,0.4,2.6,0.7,3.9c-1.1-0.3-2.3-0.7-3.5-1.1c-1.9-0.7-3.8-1.4-5.1-3c-1.2-1.6-2.4-3.2-3.6-4.7c-0.8-1-1.7-1.2-2.6-0.7
		c-1,0.6-1.8,2.7-1.2,3.4c0.9,1.1,1.9,2.1,2.9,3c1,0.9,2.1,1.7,3.4,2.7c-0.5-0.1-0.6-0.2-0.8-0.2c-2.8-0.7-5.4-2.3-8.4-1.7
		c-0.9,0.2-1.8,0.9-1.8,1.8c0,1.9,1.1,2.9,2.9,3c1.6,0.1,3.3,0.1,4.9,0.2l0,0.4c-1.1,0-2.1,0.1-3.1,0c-1.7-0.3-3.4,1.2-3.1,2.9
		c0,0.3,0.5,0.9,0.7,0.9c2.6,0,5.2,0.1,7.8-0.2c2.1-0.2,4-1,6.1-1.4c2.2-0.5,4.5-0.8,6.7,0c2,0.8,4.1,0.9,6.2,0.1
		c5.2-2,10.6-2.6,16.1-2.6c2.3,0,4.6-0.1,6.8-1.1c2.3-0.9,4.8-1.5,7.2-2.1c3-0.8,6-1.4,9.1-0.8c2.7,0.6,5.5,1,8.3,1.6
		c0.3,0.1,0.7,0.4,0.8,0.7c0.6,1.4,1.2,2.8,1.7,4.2c0.2,0.6,0.4,1.2,0.6,1.8c-0.6,0-1.2,0.1-1.7,0c-0.8-0.1-1.3-0.3-1.5-1.2
		c-0.2-1.8-1-3.5-2.4-4.7c-0.3-0.3-0.9-0.5-1.2-0.4c-2.2,0.6-2.9,2.8-1.5,4.7c0.5,0.6,0.9,1.2,1.3,1.9c-0.8,0.1-1.5,0.2-2.2,0.3
		c-2.3,0.3-4.6,0.2-6.7-1.2c-1.6-1.1-3.2-2.2-4.8-3.3c-1.3-0.9-2.7-0.8-3.5,0.4c-1.2,1.7-1,3.2,0.6,4c1.1,0.6,2.3,1,3.5,1.5
		c-1.7,0.6-2.8,2-2.4,3.1c0.6,1.4,1.7,2.8,4,2.1c1.4-0.5,2.9-0.7,4.5-1.1c-1.8,2.1-1.8,2.2-0.6,3.5c1.2,1.2,2.1,1.9,3.2,0.3
		c0.7-1.1,1.6-1.5,2.8-1.9c0.6-0.2,1.2-0.5,1.8-0.9c2.4-1.5,4.8-1.9,7.5-0.6c0.4,0.2,1.1-0.1,1.6-0.2c0.3-0.1,0.4-0.4,0.7-0.5
		c0.6-0.5,1-0.4,1.6,0.1c1.1,1,2.3,1.8,3.5,2.6c0.6,0.3,0.9,0.6,0.8,1.3c-0.1,1.2,0.4,2.1,1.3,2.8c1.5,1.3,3.3,2.3,5.3,2.7
		c1.8,0.4,3.7,0.3,5.5,0.2c1.2-0.1,2.3-0.6,3.4-0.9c0.3-0.1,0.5-0.3,0.8-0.3c2.3,0.2,4.6,0.6,6.9,0.8c0.9,0.1,1.9,0,2.8-0.1
		c0.7-0.1,0.8,0.2,1.1,0.7c0.3,0.7,0.6,1.6,1.2,2.1c1.8,1.5,3.7,2.9,6,3.4c0.6,0.1,1.3,0,1.9,0.1c2,0.4,4,0.1,5.8-0.9
		c0.5-0.3,1.1-0.8,1.6-0.7c1.6,0.2,3.1,0.4,4,2.2c0.8,1.9,2.6,2.9,4.5,3.4c1.7,0.4,3.6,0.3,5.4,0.3c0.4,0,0.9-0.2,1.3-0.4
		c1.1-0.8,2.2-1.6,3.4-2.4c0.2-0.1,0.4-0.2,0.6-0.2c2-0.2,4.1-0.3,6.1-0.4c3-0.1,5.8-1,8.4-2.3c4.1-2.1,7.4-5.2,10-9
		c2.6-3.7,4.6-7.7,6-12.1c1.1-3.5,1.9-7,1.8-10.6c0-2.9-0.2-5.8-0.3-8.5c3.7-0.5,7.4-0.9,11.1-1.4c2.4-0.3,4.6-1.1,6.7-2.4
		c1.6-1,2.8-2.3,3-4.2C249.9,157.2,249.9,155,249.7,152.8z M73.1,146.5c-1.4-0.5-2.3-1.4-2.9-2.6c-1-1.9-1.9-3.8-3-5.9
		c7.6,0.3,14.7-1.2,21.8-3.7c0,1.6,0,3,0,4.4c0,0.8-0.2,1.6-0.2,2.5c0.1,3.1-1.2,4.7-4.3,5.5C80.7,147.6,76.9,147.7,73.1,146.5z
		 M107.8,178.9c-0.7,0.2-1.4,0.5-2.1,0.7c-3.4,0.7-6.8,1.3-10,2.8c-0.4,0.2-0.9,0.3-1.3,0.3c-2.2,0.1-4.3,0.2-6.5,0.2
		c-2.8,0-5.5,0.3-8.1,1.2c-1.7,0.6-3.5,0.9-5.3,1.4c-0.9,0.2-1.8,0.5-2.8,0.6c-0.7,0.1-1.4,0-2.1-0.2c-1.5-0.3-3.1-0.9-4.6-1.1
		c-2.5-0.4-4.8,0.8-7.1,1.6c-2.8,1-5.8,1.3-8.7,0.5c-0.2,0-0.4-0.2-0.6-0.2c0.2-1.1,0.7-1.7,2-1.6c1.1,0.1,2.3-0.2,3.4-0.4
		c0.4-0.1,0.6-0.7,1-1c-0.4-0.2-0.7-0.4-1.1-0.5c-1.5-0.2-3-0.3-4.5-0.5c-0.7-0.1-1.5-0.3-2-0.7c-0.4-0.3-0.6-1.2-0.4-1.6
		c0.3-0.8,1.3-1.2,2-1c1.9,0.4,3.7,1.1,5.6,1.5c1.1,0.3,2.3,0.2,3.4,0.3c0-0.1,0.1-0.3,0.1-0.4c-1.4-1.1-2.7-2.4-4.1-3.4
		c-1-0.8-1.7-1.7-2.3-2.8c-0.4-0.8-0.1-1.6,0.4-2c0.6-0.5,1.3,0,1.8,0.5c0.9,1.1,2,2.1,2.8,3.3c1,1.5,2.5,2.4,4,3.1
		c1.9,0.9,3.9,1.5,5.8,2.2c0.3,0.1,0.7,0.1,1.1,0.1c-0.3-1.4-0.7-2.6-0.8-3.8c-0.1-0.5,0.1-1.1,0.4-1.5c0.1-0.2,0.8-0.3,1-0.1
		c0.4,0.3,0.7,0.8,0.8,1.2c0.2,1.4,0.3,2.9,0.5,4.4c0.1,0.6,0.4,0.9,1,0.7c1.4-0.4,2.8-0.8,4.2-1.2c0.3-0.1,0.6-0.1,0.9-0.1
		c2.5-0.1,5.1-0.2,7.6-0.5c1.3-0.2,2.5-0.8,3.7-1.2c0,0,0.1,0,0.1-0.1c0.9-1.9,2.7-1,4.2-1.2c1.1-0.1,2.1-0.2,3.2-0.6
		c1.1-0.4,2.4-0.4,3.7-0.5c1-0.1,1.9-0.3,2.9-0.4c2-0.3,3.8,0.5,5.7,0.9c0.4,0.1,0.8,0.5,1.2,0.7
		C107.8,178.6,107.8,178.8,107.8,178.9z M127.3,193.1c-0.9,0.4-1.5-0.3-2.3-0.4c-1.4-0.2-3-0.4-4.4-0.1c-1.1,0.2-2.1,1.2-3.2,1.8
		c-0.6,0.3-1.2,0.5-1.8,0.7c-1,0.3-1.7,0.8-2.2,1.7c-0.2,0.3-0.8,0.7-0.9,0.6c-0.5-0.3-0.9-0.8-1.2-1.3c-0.1-0.1,0.3-0.6,0.5-0.9
		c0.4-0.4,0.9-0.7,1.3-1c0.1-0.1,0.3-0.5,0.2-0.5c-0.2-0.2-0.5-0.4-0.7-0.4c-1.4,0.1-2.8,0.3-4.2,0.5c-0.6,0.1-1.1,0.3-1.6,0.5
		c-1,0.3-1.7-0.1-2.3-0.7c-0.7-0.7-0.1-2.1,0.9-2.2c1.3-0.2,2.6-0.4,3.9-0.6c0-0.1,0-0.2,0-0.3c-1.6-0.6-3.1-1.3-4.7-1.9
		c-0.8-0.3-1.6-0.7-2.4-1.1c-0.3-0.2-0.4-0.7-0.4-1c0-0.9,1.6-1.7,2.4-1.2c1.8,1.2,3.5,2.5,5.4,3.6c0.6,0.3,1.3,0.4,2,0.5
		c2.8,0.5,5.6,0.6,8.5-0.2c-0.8-1.2-1.5-2.3-2.3-3.4c-0.7-1-0.3-2.2,0.8-2.5c0.9-0.3,1.2,0.6,1.5,1.2c0.4,0.8,0.7,1.7,1,2.6
		c0.8,2.2,2.2,3,4.4,2.4c1.3-0.3,2.4-0.9,3.7-1.3c0.1,0,0.3-0.1,0.4-0.1c2.8,0.3,5.3-0.5,8-1.2c2.6-0.7,5.3-1,7.9-1.7
		c1.8-0.5,3.6-1.3,5.3-2.2c1.8-0.9,3.3-2.1,5.1-3c1-0.5,2.2-0.7,3.3-0.9c1.1-0.2,1.4,0.5,1.5,1.3c0.1,1.1,0.1,2.3,0,3.4
		c-0.1,0.4-0.6,1-1,1.1c-2.4,0.5-4.9,0.8-7.2,1.7c-1.4,0.5-3.1,0.4-4.6,0.8c-1.5,0.4-2.9,1-4.2,1.6c-1,0.5-1.9,1.4-2.9,1.9
		c-0.7,0.3-1.8,0.5-2.5,0.3c-1.9-0.7-3.9-0.5-5.9-0.5c-0.2,0-0.5,0.1-0.7,0.2C130.3,191.5,128.8,192.3,127.3,193.1z M150,199.7
		c0,1.3-0.8,2.3-2.1,2.5c-1.1,0.2-2.3,0.2-3.4,0.3c-2.6,0.2-4.9-0.5-7.1-2c-1.8-1.2-3.1-4.2-1.5-6.2c0.4-0.4,1-0.8,1.6-0.9
		c2.9-0.6,5.4,0.6,7.9,1.7c1.2,0.5,2.4,1.1,3.6,1.7c0.8,0.4,1.1,1,1,1.9C150,199.1,150,199.4,150,199.7z M162.2,202.5
		c4.7,1.6,9.3,3.2,13.8,4.7C172.3,210.2,163.5,207.4,162.2,202.5z M188.2,212.7c-2.9-0.2-4.6-2-6.1-4.1c2.2,0.4,4.3,0.7,6.5,1.1
		c2.2,0.3,4.4,0.6,6.7,0.9C193.1,211.9,190.9,212.9,188.2,212.7z M243.2,163.4c-2.5,0.8-5.2,1.1-7.8,1.6c-1.2,0.2-2.5,0.2-3.8,0.3
		c0-0.1,0-0.1,0-0.2c-1,0-2.1,0.2-3.1,0c-2.4-0.5-3.9-2.3-5.1-4.3c-1.4-2.3-2.6-4.8-3.1-7.5c-0.5-2.7-1.2-5.4-1-8.2
		c0.1-1.5,1.2-2.4,2.1-3.4c1.3-1.4,2.7-2.7,4.3-3.8c1.7-1.2,3.5-2.3,5.4-3.3c2-0.9,4-0.3,5.7,0.9c4.9,3.3,8.3,7.7,10.2,13.2
		c0.8,2.4,1.6,4.7,1.5,7.3C248.3,160.4,247.3,162,243.2,163.4z"/>
	<path d="M151.8,144.2c0.3-1,0.6-2,0.9-2.9c-0.3-0.4-0.6-0.9-0.7-1.5c-0.1,0.1-0.3,0.1-0.4,0.2c-0.4,1.4-0.7,2.9-1.2,4.3
		c-0.1,0.2-0.4,0.6-0.6,0.6c-1,0.1-2,0-2.9,0c-0.4,0.6-0.9,1.1-1.5,1.5c0.1,0.6,0.2,1.2,0.3,1.8c0.2,1.6,0.3,3.1,0.4,4.7
		c0.3-0.6,0.7-1.1,1.1-1.5c-0.1-0.8-0.1-1.6-0.2-2.4c-0.1-0.8,0-1.5,0-2.2c1.3-0.5,2.5-0.4,3.7-0.2c0.2-0.6,0.6-1.1,1.1-1.5
		C151.7,144.9,151.7,144.5,151.8,144.2z"/>
	<path d="M100.5,108.7c-0.3-0.2-0.5-0.5-0.7-0.5c-4.7,0.1-6.8-3.9-6.8-7.4c0-2.1-0.1-4.3,0.3-6.4c0.3-1.8,1-3.6,2.3-5.1
		c1.6-1.8,5.5-2.7,7.6-0.8c1.5,1.4,3.1,2.7,4.3,4.3c1.9,2.6,1.9,5.6,0.8,8.7c0.3,0,0.5,0,0.7-0.1c3.9-2.2,8.1-3.7,12.6-3.5
		c1.7,0.1,3.5,0.7,5.2,1.1c2.5,0.7,4.2,2.5,5.8,4.5c0.1,0.2,0.2,0.4,0.3,0.7c-1.6-1.1-3.1-2.2-4.6-3.1c-3.8-2.2-7.8-2.4-12.1-1.3
		c-4.9,1.4-9.3,3.7-13.2,6.9C102,107.5,101.2,108.1,100.5,108.7z M100.3,89.6c-2.6-0.2-4.7,1.6-5.5,3.7c-1.5,3.5-1.8,7.2-0.2,10.8
		c1.4,3.2,5,4.1,7.7,2.3c1.3-0.9,2.6-2,3.8-3.1c2.1-2,3.1-5.3,1.5-9C106.5,92.2,103.2,89.4,100.3,89.6z"/>
	<path d="M75.9,109.7c2,0.9,2.8,2.7,3.4,4.7c0.6,2.1,0,4-0.5,5.9C79.2,116.4,79.1,112.6,75.9,109.7z"/>
	<path d="M73.5,116.9c-1.5-2.2-3.9-3.4-6.2-4.6C69.3,111.7,73.3,114.7,73.5,116.9z"/>
	<path d="M88.8,100.9c0,2.1-0.8,3.4-2.4,3.8c-0.4,0.1-0.9,0-1.3-0.1c-2.3-0.6-3.5-4.5-1.7-6.5c1.4-1.6,3.5-1.2,4.7,0.7
		C88.5,99.6,88.7,100.5,88.8,100.9z"/>
	<path d="M94.5,98.7c-0.1-1.9,0.5-3.4,2.1-4.4c1.2-0.7,2.7-0.4,3.4,0.7c1.4,2,1.7,4.7,0.2,6.9c-1.1,1.5-3.5,1.8-4.7-0.1
		C94.8,100.9,94.4,99.8,94.5,98.7z"/>
</g>
<g>
	<path d="M213.8,32.1c-3.6-8.5-9.6-14.8-17.1-20c-3.6-2.5-7.5-4.8-11.3-6.9c-1.7-0.9-3.7-1.3-5.6-1.7c-3-0.5-5.2,1.1-6.8,3.3
		c-2.3,3.3-4.3,6.9-6.4,10.4c-0.2,0.3-0.3,0.5-0.4,0.8c-0.9,1.9-2,3-4.3,2.9c-2.6,0-4.4,1.4-5.1,4c-0.4,1.5-1.3,1.6-2.5,1.4
		c-4.7-0.7-8.4-3.6-12.4-5.9c-1.3-0.8-2.9-1.5-4.5-1.6c-2.5-0.2-4.2,1.8-3.9,4.5c0.6,4.5,2,8.9,4.7,12.5c2.4,3.2,5.4,6,8.2,9.1
		c0,0-0.4,0.4-0.7,0.7c-2.8,2.2-3.2,5.2-1.3,8.3c0.8,1.3,1.5,2.6,2.3,3.9c0.9,1.4,0.5,2.5-0.6,3.5c-0.6,0.5-1.2,1-1.8,1.5
		c-3.5,3.1-4.2,6.4-2.2,10.6c0.6,1.2,1.3,2.3,1.8,3.1c-0.4,1.4-0.6,2.6-1,3.7c-0.2,0.5-0.4,1.2-0.8,1.5c-2.7,1.8-5.4,3.6-8.1,5.2
		c-0.6,0.3-1.5,0.2-2.3,0.2c-1.9,0-3.8-0.1-5.3,1.1c0.2,0.3,0.3,0.6,0.5,0.8c1.2-1,2.9-1.4,4.9-1.2c1.9,0.2,3.9,0.5,5.8,0.8
		c0-0.1,0.1-0.1,0.1-0.2c-0.8-0.3-1.5-0.6-2.2-0.9c2.6-1.9,5.2-3.7,7.9-5.7c0.3,0.4,0.7,1,1.1,1.6c-0.2,0-0.4-0.1-0.6-0.1
		c-0.5,1.4-1,2.7-1.6,4.1c-0.2,0.4-0.4,0.8-0.7,1c-2.1,1.7-4.3,3.4-6.4,5.1c-2.3-2.2-6.2-4-7.4-3.5c0.4,0.5,0.9,0.9,1.4,1.3
		c0,0,0,0,0,0c0.4-0.2,1-0.2,1.4,0c1.3,0.7,2.6,1.4,3.9,2.1c0,0.2,0,0.4,0,0.6c-0.5,0.2-0.9,0.5-1.4,0.7c0.2,0.2,0.4,0.5,0.6,0.7
		c0.8-0.5,1.6-1,2.3-1.5c2.2-1.6,4.2-3.5,6.4-5.3c1.4,3.6,3.3,7,5.9,9c-1.5-2.7-3.5-5.8-5-9.1c-1.1-2.3-0.5-3,1.8-4.2
		c1.3,1.3,2.6,2.7,3.9,4.1c-0.2-0.9-0.8-1.4-1.3-2c-1.3-1.7-2.6-3.5-3.6-5.3c-0.6-1-0.9-2.4,0.5-3.4c0.4,0.5,0.8,0.9,1.2,1.3
		c2.1,2.1,4.2,4.2,6.4,6.3c0.3,0.3,0.7,0.6,1,1c1.2,1.8,2.3,3.7,3.5,5.7c-1,0.1-2.2,0.1-3.4,0.2c0.6,0.4,1.2,0.7,1.8,0.7
		c3.7,0,6.9-1.8,10-3.5c5.1-2.9,10.2-5.9,16-7.3c5.2-1.3,10.4-2.1,15.6-3.2c2.2-0.5,4.6-0.5,6.3-2.3c0.9-1,0.8-1.6-0.5-2.1
		c0.6,2-0.5,2.9-3.8,3c0.6-2.2,1.3-4.4,2-6.9c2.1,1.5,3.9,2.6,5.6,4c1.4,1.2,1.1,2.6-0.5,3.5c-0.8,0.5-1.7,0.8-2.5,1.3
		c-2.4,1.5-4,3.6-4.8,6.8c1.3-1.8,2.4-3.2,3.6-4.8c1.6,3.1,1.4,3.7-0.8,5.7c-1.4,1.2-2.7,2.7-4,4.1l0.4,0.4c0.5-0.4,1-0.9,1.6-1.4
		c0,0.4,0.1,0.6,0,0.7c-0.6,5.2,1,9.8,4.2,13.9c0.7,0.9,0.3,1.6-0.3,2.4c-3.8,4.8-8.7,8.1-14.5,9.9c-2.5,0.8-5.2,1-7.8,1.5
		c0-0.2-0.1-0.4-0.1-0.6c1-0.5,1.2-2,3-1.6c4.2,1,6.7-0.7,7.6-4.9c0.1-0.5,0.1-1,0.4-1.3c1.6-1.7,3.2-3.3,4.8-5.1
		c0.9-1,1.6-2,2.4-3.1c-0.2-0.1-0.3-0.2-0.5-0.3c-0.7,0.9-1.4,1.7-2.1,2.6c-0.1-0.1-0.2-0.1-0.3-0.2c0.4-1.9,0.8-3.8,1.2-5.7
		c-0.2,0-0.3-0.1-0.5-0.1c-0.8,3.9-2.1,7.5-5.2,10.1c-1.2-2.7-2.5-5.3-3.7-7.9c-0.1,0.9,0.2,1.8,0.4,2.6c0.6,2.2,1.5,4.5,1.8,6.7
		c0.6,4.4-2.6,7-6.5,5.4c0.7-0.9,1.4-1.7,2.1-2.6c0.2,0.8,0.4,1.3,0.6,1.8c1-3.2,0-5.8-1.9-8.2c-3.7-4.7-9-5.8-14.5-5.6
		c-2.5,0.1-4.9,0.9-7.3,1.5c-0.1,0-0.1,0.3-0.3,0.6c0.6-0.1,1.1-0.2,2-0.4c-1.4,1-2.3,1.6-3.3,2.3c-1.2-2.7-0.7-5.3,1.6-6.8
		c1.6-1,3.4-1.6,5.2-2.2c2.6-0.9,5.4-1.2,7.9-3.4c-2.3,0.8-4.3,1.5-6.5,2.2c3.4-5.4,8-8.1,14-8.7c4-0.4,7.9-1.1,12.1-1.7
		c-0.5-0.1-0.7-0.1-1-0.1c-7.6,0-15,1.2-22.2,4c-1.6,0.6-3.1,1.7-4.6,2.6l0.3,0.4c1.5-0.8,3-1.5,4.9-2.5c-1.4,1.6-2.4,2.8-3.4,4.1
		c-1,1.3-2.2,2.1-3.9,2.6c-3,0.8-5.6,2.4-6,5.9c-0.2,1.4,0.3,2.9,0.5,4.5c-2.5,1.8-5.3,3.8-8,5.7c-0.1,0-0.1-0.1-0.2-0.1
		c-0.3,0.4-0.8,0.6-1.3,0.8c0,0,0,0,0,0c-1.7,1-3.4,2-5.1,2.9c-4.4,2.5-8.1,5.7-10.7,10.2c-4.9,8.5-1.1,16.9,6.7,19.6
		c-1.9,1.2-3.4,2.4-5.1,3.3c-1.6,0.9-2.5,1.1-3.2,0.7c-0.5,0.4-1.1,0.6-1.7,0.6c-0.1,0-0.3,0-0.4,0c-0.3,0.1-0.6,0.1-0.9,0
		c-0.3,0-0.7,0-1,0.1c0,0,0,0,0,0c-0.8,0.1-1.5,0.2-2.3,0.4c-0.6,0.1-1.2,0.1-1.8-0.1c-0.2,0-0.3,0-0.5-0.1
		c-9.2-2.3-16.2-7.9-22.1-14.9c-0.6-0.8-0.8-2.4-0.5-3.5c-0.3-0.4-0.5-0.8-0.6-1.3c-2.3-1.3-3.8-3.1-4.7-5.3c-0.5-1.2-1.2-2.3-2-3.4
		c-2.2-2.9-10.2-13.2-12.3-16c0-0.1,0.1-0.1,0.1-0.2c-0.3-0.2-0.6-0.4-0.9-0.5c-0.1,0.1-0.3,0.1-0.4,0.1c-1.5-0.2-2.9-0.5-4.3-0.7
		c-0.4,0.2-0.9,0.3-1.4,0.3c-0.3,0-0.5,0-0.7-0.1c-0.3,0.2-0.6,0.4-1,0.5c-0.6,0.6-1.3,1.1-2,1.4c-0.3,0.5-0.6,0.9-0.6,1.4
		c0.1,0,0.1,0,0.2,0.1c1.4,0.4,3,0.2,4.4,0.4c0.7,0.1,1.5,0.4,2.1,0.8c4.2,3.8,12.8,16,15.3,21.1c0.2,0.4,0.3,1,0.2,1.4
		c-0.5,1.8,0,3.4,1.1,4.9c0.2,0.3,0.4,0.7,0.5,1c0.3,0.1,0.7,0.2,1,0.4h4.5c0,0.2-0.1,0.3-0.1,0.5c0,0,0,0,0,0
		c0.5,0.3,0.9,0.8,1.1,1.3c0.1,0,0.2,0.1,0.2,0.2c1.3,1.2,2.2,2.5,2.7,4c0.7,0.3,1.2,0.8,1.5,1.5c0-0.1,0-0.3-0.1-0.4
		c1.8,1.5,3.5,2.9,5.2,4.3c0.1,0.1,0.2,0.2,0.3,0.3c0.7,0.1,1.3,0.5,1.7,0.9c2.5,1.1,4.8,2.2,7.2,2.9c2.5,0.7,5.1,1,7.7,1.5
		c0.3-0.1,0.7-0.2,1.2-0.2c0.1,0,0.2,0,0.2,0c0.4-0.2,0.9-0.4,1.4-0.4c0.1,0,0.2,0,0.3,0c0.5-0.2,0.9-0.1,1.3,0
		c0.3-0.1,0.5-0.1,0.8-0.1c0.3,0,0.5,0,0.7,0.1c0,0,0-0.1-0.1-0.1c0.1-0.1,0.2-0.3,0.3-0.4c0.3,0.1,0.6,0.1,0.8,0.2
		c0.3-0.1,0.5-0.1,0.8-0.1c0.3,0,0.5,0,0.7,0.1c-0.2-0.1-0.3-0.2-0.5-0.3c0.9-0.4,1.2-0.6,1.6-0.8c4.1-1.7,7.7-4.2,10.1-8.1
		c0.4-0.7,1.3-1.2,2.1-1.6c2.7-1.6,5.6-3.4,6.2-6.6c0.5-2.6,1.8-3.9,4.1-4.7c1-0.3,1.9-0.8,2.8-1.3c5.6-2.6,11.1-5.3,15.8-9.5
		c0.4-0.3,1.1-0.5,1.6-0.5c3.9,0,7.8-0.5,11.4-2c1.6-0.7,3.1-1.4,4.8-2.2c0.1,1.5,0.2,3,0.4,4.4c0.6,4.9,1.4,9.9,1.8,14.8
		c0.7,7.9-1.5,14.7-7.5,20.1c-3.6,3.2-7.6,5.7-12.3,7.6c0.2-1.3,0.4-2.4,0.6-3.5c7.8,0.2,11.1-4.8,11.5-10.2
		c0.2-2.5-0.2-5.2-0.9-7.6c-1.7-5.7-5.2-10.3-10.6-12.8c-7.7-3.6-16.9,1.7-18.7,10.3c-0.4,2.1-0.5,4.4-0.7,6.6
		c-4.1-1.2-8-1.5-11.1,2.3c-2.8,3.4-3.7,7.2-2.9,11.6c-0.1,0.1-0.3,0.1-0.4,0.2c0,0,0,0,0,0c0.1,0.2,0.1,0.4,0.1,0.6c0,0,0,0,0,0
		c0,0.2,0,0.4,0,0.6v0c0.6,0.5,1,1.2,1.2,2c1.8,6.1,4.9,11.2,10.8,14.1c3.2,1.6,6.6,2.2,10,0.6c3.7-1.7,6.7-4.5,8.2-8.2
		c1.5-3.6,4-5.5,7.4-7.1c6.3-3.1,11.9-7.4,14.9-14.3c0.1-0.3,0.3-0.6,0.6-0.8c0-0.5,0.1-1,0.3-1.4c-0.1,0-0.1,0-0.2,0
		c2.4-9.9-0.5-19.5-1.5-29.1c-0.1-1.2,0.3-1.7,1.1-2.5c2.2-2,4.3-4.3,6.4-6.5c0.8-0.9,0.6-1.7,0.1-2.7c-1.6-2.9-3.1-5.9-4.3-9
		c-0.5-1.3-0.3-3-0.3-4.4c0-1.6,0.5-3,2-4c1.8-1.2,2.6-2.9,1.7-5.1c-0.6-1.3,0-2,1.3-2.4c3.4-1.2,3.9-4.1,1-6.5
		c-0.7-0.6-1.6-1.1-2.4-1.6c-0.8-0.5-1.6-1-2.5-1.5c0.4-1.3,0.7-2.6,1.3-3.8c0.2-0.5,0.9-1,1.4-1.2c7.8-2,11.6-7.5,12.9-15
		C218,43.9,216.3,37.9,213.8,32.1z M77.6,107.6c0.6-0.4,1-0.7,1.2-0.8h-6.2c0-0.2-0.1-0.4-0.1-0.7c1-0.6,2-1.6,3.1-1.8
		c2.6-0.4,5,0.1,6.8,2.4c1.2,1.4,8.3,10.2,9.4,11.7c2,2.9,3.8,5.9,5.7,8.8c-1.5,0.8-2.6,1.3-3.8,2C91.2,123.9,82.3,111.5,77.6,107.6
		z M97.5,136.3c-2.2-0.1-3.8-1.8-3.8-4.2c0-1.9,1.7-3.6,3.6-3.6c2.2,0,3.9,1.9,3.9,4.1C101.2,134.6,99.5,136.3,97.5,136.3z
		 M149.5,138.6c-1.9,2.8-3.4,6-5.8,8.1c-7.2,6.4-15.8,6.8-24.7,4.2c-7.7-2.3-13.4-7.4-17.8-14c-0.7-1-0.4-1.4,0.5-2
		c0.2,0.2,0.3,0.4,0.5,0.6c5.4,6.4,11.6,11.6,19.8,14.3c9.2,3,20.9-1.8,24.8-10.7c0.8-2,2.3-2.6,4.2-3.3
		C150.4,136.7,150.1,137.7,149.5,138.6z M149.6,140.5c0.6-1.3,1.3-2.4,1.7-3.7c0.5-1.8,1.7-2.7,3.5-3.1
		C154.9,136.4,152.4,139.6,149.6,140.5z M170.8,124.1c-5.7,3.1-11.6,6-17.4,9c-2.8,1.5-5.5,3-8.3,4.6c0.1,0.1,0.1,0.3,0.2,0.4
		c0.3,0,0.6-0.1,1.2-0.2c-1,1.5-1.8,2.7-2.8,4c-1.5,1.9-1.9,1.9-4.1,0.8c-4.5-2.3-6.6-7.7-5-13c1.6-5.2,4.8-9.2,9.4-12.1
		c6.9-4.4,14.1-8.2,20.1-13.8c2.5-2.3,5.3-2.6,8.5-2.3c5.4,0.4,9.6,2.6,12.1,7.4c0.4,0.7,0.5,1.9,0.2,2.4
		C180.8,116.2,176.5,121,170.8,124.1z M160.9,176.5c-5.5-1.9-8.9-5.8-11.3-10.9c-1.2-2.5-1.9-5.2-1.2-8c0.5-2.1,2.1-3.2,4.3-2.9
		c0.9,0.2,1.9,0.4,2.7,0.9c6.3,3.9,9.9,9.5,10.7,15.8C166.2,176.4,164.4,177.7,160.9,176.5z M175.7,166.2c-2.1,4.4-4.8,8.3-9.4,10.4
		c0.2-1.3,0.7-2.5,0.6-3.7c-0.5-8-4.7-13.8-11.4-17.9c-3.4-2.1-6.1-1.1-7.9,2.1c0,0.1-0.2,0-0.4,0.1c-0.3-4,0.8-7.6,4.1-9.7
		c3.1-2,6.6-1.4,9.7,0.5c3.8,2.2,5.5,6,7.1,9.8c0.9,2.2,2.1,4.3,3.2,6.5c0.1-0.1,0.3-0.1,0.4-0.2c-0.8-2-1.7-3.9-2.4-5.9
		c-1.7-4.4-3.6-8.8-7.8-11.6c-0.4-0.2-0.7-0.9-0.6-1.4c0.3-2.6,0.3-5.3,1.1-7.7c2.1-6.9,10.3-10.5,16.9-7.8c4.4,1.8,7.1,5.2,9,9.4
		c2,4.6,2.6,9.2,0.4,13.9c-1.6,3.4-4.9,5.2-8.3,4.7c0.2-3.2,0.5-6.3,0.8-9.8c-0.6,0.3-0.7,0.4-0.7,0.4c-0.1,0.3-0.1,0.7-0.2,1
		C179.4,155.2,178.3,160.8,175.7,166.2z M163.8,21.5c-1.6,2.4-3.5,4.1-6.5,4.7C158.4,22.4,159.7,21.6,163.8,21.5z M202.6,62.4
		c-1.7,5.1-3.5,10.3-5.3,15.6c-0.3,0-1,0.2-1.6,0.2c-8.7,0.9-17.1,3.1-24.8,7.3c-3.4,1.8-6.9,3.6-10.4,5.4c-1,0.5-2,0.6-2.8-0.2
		c-1.2-1.1-2.3-2.3-3.4-3.4l0.3-0.3c1.6,0.8,3.2,1.7,4.8,2.5c0.1-0.2,0.2-0.4,0.3-0.6c-5.8-2.8-10.4-7-14.1-12.1
		c-1.5-2.1-3.1-4.2-3.2-6.9c-0.2-3.7,2.2-6.1,4.5-8.4c1.5-1.5,1.8-2.9,0.8-4.7c-0.7-1.2-1.5-2.3-2.2-3.5c-1.8-2.8-1.1-5.6,1.7-7.4
		c4.3-2.7,7.9-6,10.9-10.1c0.5-0.6,1.2-1.2,2-1.4c5.5-1.5,11.1-2.1,16.7-1.5c3.9,0.5,8.1,0.7,10.4,4.8c0,0,0.2,0,0.6,0
		c-0.6-1.1-1.2-2.1-1.7-3.2c-1.6-3.5-2.8-7.1-1.2-10.9c1.6-3.7,5.2-4.6,8.4-2.1c2.3,1.9,3.7,4.3,4,7.2c0.6,5-0.3,9.7-3.7,13.8
		c0.9-0.8,1.8-1.6,2.8-2.5c1.1,0.8,2.3,1.6,3.5,2.4c2.8,1.7,4,4.2,4.3,7.5C204.2,54.2,204,58.4,202.6,62.4z M210.2,60.3
		c-1.7,1.8-3.8,3.1-5.9,3.6c0.6-5,1.1-9.9,1.7-14.7c1.5,2.3,2.3,5.1,1.9,8.2c0.3-0.7,0.5-1.3,0.6-2c0.3-3.8-1.2-7-3.7-9.6
		c-2.4-2.5-5.1-4.7-7.5-6.9c0.4-1.8,1.1-3.7,1.2-5.6c0.4-5.2-0.6-9.8-5.1-13.1c-2.7-2-5.4-1.7-7.8,0.5c-2.2,2-2.8,4.6-2.5,7.4
		c0.1,1.8,0.7,3.6,1.1,5.4c-13.4-3.6-27.2-2-31,3.7c1.2-0.6,2.4-1.1,3.5-1.7c0.1,0.1,0.2,0.1,0.2,0.2c-0.5,0.7-1,1.4-1.5,2
		c-1.4,1.4-2.7,2.9-4.2,4.2c-2.5,2.3-3.1,2.3-5.8,0c-0.4-0.3-0.7-0.6-1.1-0.9c-4.9-4.4-8-9.8-9.3-16.2c-0.3-1.6-0.4-3.4,1.1-4.5
		c1.5-1.1,3.1-0.3,4.5,0.5c2.4,1.5,4.8,3.1,7.3,4.6c7,4.2,13.4,2.8,17.8-4c2.5-3.9,4.6-8,7.1-11.9c2.8-4.6,5.9-5.6,10.8-3.6
		c5.5,2.2,10.2,5.8,14.8,9.4c8.4,6.6,14.2,14.9,16.7,25.5C216.7,48.1,215.6,54.7,210.2,60.3z"/>
	<path d="M152,76.8c0.2-0.8,0.4-1.6,0.6-2.4c0.1-0.3,0.4-0.7,0.3-1c-0.8-2-1.5-4.2-2.6-6.1c-1.5-2.6-1.5-3.2,0.9-4.8
		c1.1-0.7,1.9-1.4,1-2.9c-0.3-0.5-0.3-1.3-0.3-1.9c0.1-0.5,0.4-1.1,0.8-1.3c0.4-0.1,1.1,0.2,1.4,0.5c0.6,0.7,1,1.6,1.7,2.6
		c2.4-1.7,0.2-3.7,0.7-5.5c0.5,1.5,1,3,1.4,4.4c1.3-0.1,2.5-0.2,3.8-0.3c0,0.2,0,0.3,0,0.5c-2.8,0.1-5.4,0.6-7.7,2.9
		c2.2,0,4.1,0.2,4.8,2.2c0.6,2-0.4,3.5-1.9,4.9c-1.7,1.6-3.3,1.8-5.1-0.1c0.7,3.1,3.2,6,6.4,8.5c3.1,2.5,6.2,2.7,9.6,0.7
		c3.6-2.1,6.4-4.9,7.3-9.4c-0.9-0.1-1.7-0.2-2.5-0.2c-0.8,0-1.5,0-2.3,0c2.1-1.5,6.1-0.7,7.9,1.4c-0.7-0.3-1.3-0.5-1.7-0.7
		c-0.8,2.7-1.4,5.3-2.3,7.8c-0.9,2.6-2.2,5.1-4.7,6.6c-2.9,1.8-4.8,1-5.5-2.2c-0.1-0.5-0.9-1.3-1.3-1.3c-2.7,0.1-4.7-1.4-6.6-2.9
		c-1-0.8-1.7-1.9-2.9-3.3c-0.4,1.5-0.7,2.3-0.9,3.2C152.3,76.8,152.1,76.8,152,76.8z M173.4,78.2c-2.9-0.3-5,1.8-5.2,4.8
		c0.2,0.1,0.4,0.3,0.5,0.4C170.2,81.8,171.7,80.1,173.4,78.2z"/>
	<path d="M172.7,60.5c0.6-0.4,1.5-0.9,2.3-1.3c0.9-0.4,1.8-0.6,3-1c-0.8-0.1-1.3-0.1-1.5-0.1c-0.7-1.3-1.2-2.4-2-3.3
		c-0.8-1-1.7-0.5-1.9,0.7c-0.2,0.8,0,1.7,0,2.5C172.7,58.8,172.7,59.6,172.7,60.5z"/>
	<path d="M169.4,44.3c4.1-1.9,6.1,1.1,8.5,3.4c-0.1-2.5-4-6.4-6.3-6.2C170.1,41.7,169.6,42.8,169.4,44.3z"/>
	<path d="M146,51.2c1-0.9,2.1-1.8,3.3-3c-0.3-0.6-1-1.1-2.2-0.7C145.8,48.1,145.5,49.2,146,51.2z"/>
	<path d="M152.7,103.4c-4.7-3.2-10.3-5.3-15.9-5.6C141.9,99.6,147.5,101.6,152.7,103.4z"/>
</g>
</svg>
