<?xml version="1.0" encoding="utf-8"?>
<!-- Generator: Adobe Illustrator 17.1.0, SVG Export Plug-In . SVG Version: 6.00 Build 0)  -->
<!DOCTYPE svg PUBLIC "-//W3C//DTD SVG 1.1//EN" "http://www.w3.org/Graphics/SVG/1.1/DTD/svg11.dtd">
<svg version="1.1" id="Layer_1" xmlns="http://www.w3.org/2000/svg" xmlns:xlink="http://www.w3.org/1999/xlink" x="0px" y="0px"
	 viewBox="0 0 288 216" enable-background="new 0 0 288 216" xml:space="preserve">
<g>
	<path d="M39,103.1c0.6,0.5,1.4,0.9,1.8,1.5c1.9,3.1,4.6,3.3,7.9,2.8c1-0.2,2.4,0.3,3.1,0.9c4.6,3.8,9,7.7,13.5,11.5
		c0.6,0.5,1.8,0.7,2.5,0.5c5.7-2.2,11.9,1.5,13.9,7.7c0.6,1.9,1.4,2.9,3.4,3.4c1.6,0.4,3.4,1.6,4.4,3c3.1,3.9,5.5,8.3,8.8,11.9
		c3.7,4,8,7.5,12.2,11.1c4.3,3.7,9.7,5.4,14.8,7.7c5.9,2.8,11.3,6.8,16.8,10.3c3,1.9,5.9,3.9,9.2,5.4c-1.2-2.2-2.7-4.4-3.4-6.7
		c-1.9-6.4,1-11.1,7.4-12.8c5.8-1.6,11.5-1.3,17.3-0.1c4.1,0.9,6.8,3.1,8,7.2c1.1,4-0.4,7.3-2.9,10.2c-1.2,1.5-2.8,2.6-4.2,4.4
		c4.8-0.1,7.7,2.1,9.7,5.9c0,1,0,1.9,0,2.9c-0.8,1.1-1.6,2.2-2.5,3.2c-5.5,6-11.7,10.2-20.4,9.9c-7.3-0.3-14.6,0.2-21.8,0.3
		c-24.8,0.3-49.5,0.5-74.3,0.8c-1.3,0-2.7,0.2-4,0.4c-12.8,0-25.7,0-38.5,0c-0.8-1.3-1.8-2.4-2.2-3.8c-0.8-2.8-1.3-5.6-1.8-8.4
		c0-3.7,0-7.4,0-11.1c0.1-0.3,0.2-0.5,0.3-0.8c1.2-10.7,5.3-20.4,11.4-29.2c3.6-5.2,6-10.8,6.3-17.3c0.2-4-1.2-7-4.5-9.2
		c-1.9-1.3-4.1-2.1-6-3.5c-1.3-0.9-2.7-2.3-3-3.7c-0.2-0.8,1.8-2.1,2.9-3c0.6-0.4,1.5-0.6,2.2-0.6c4.5-0.1,9,0,13.4,0
		c-0.3-0.3-0.8-0.9-1.3-1c-5.6-1.8-6.8-6.6-3.1-11.6C37,103.1,38,103.1,39,103.1z M86.8,149.8c-0.4,0.2-0.8,0.4-1.2,0.6
		c-0.3,0.1-0.7,0.2-1,0.3c0,0.1,0.1,0.2,0.1,0.3c0.3-0.2,0.6-0.4,0.9-0.6C86,150.1,86.4,149.9,86.8,149.8c0.4-0.2,0.8-0.4,1.2-0.6
		c0.4-0.1,0.7-0.3,1.1-0.4c-0.1-0.1-0.1-0.2-0.2-0.3c-0.3,0.3-0.6,0.5-0.9,0.8C87.5,149.4,87.2,149.6,86.8,149.8z M124.1,178.3
		c0.1,0,0.1-0.1,0.2-0.1C124.2,178.2,124.1,178.3,124.1,178.3c-0.1,0-0.1,0.1-0.2,0.1C123.9,178.4,124,178.4,124.1,178.3z
		 M78.6,132.8c-0.4,0.2-0.8,0.4-1.1,0.6c-0.5-0.1-0.9-0.1-1.4-0.2c0,0.1,0,0.1,0,0.2c0.5,0,1,0,1.4,0
		C77.9,133.3,78.3,133.1,78.6,132.8l0.2-0.1L78.6,132.8z M82.1,164.9c0.1,0.1,0.2,0.1,0.2,0.1C82.3,165,82.2,165,82.1,164.9
		c-0.6-0.2-1.3-0.4-1.9-0.6c0,0.3,0,0.7-0.1,1C80.8,165.2,81.5,165,82.1,164.9z M82.7,148c1.4-0.6,2.7-1.2,4.1-1.8
		c-0.1-0.2-0.2-0.4-0.3-0.6C85.2,146.4,83.9,147.2,82.7,148c0,0.4,0,0.7,0,1.1c1.7-0.4,3.3-0.7,5-1.1c-0.1-0.2-0.1-0.4-0.2-0.7
		c-1.6,0.6-3.2,1.2-4.8,1.7C82.8,148.7,82.7,148.4,82.7,148z M150.2,183.1c-0.5,0.1-1.4,0.2-1.4,0.3c-0.1,1.5-0.1,2.9-0.1,4.4
		c0.1,0,0.2,0,0.4,0c0.4-1.5,0.7-3.1,1.1-4.6c0.3,1.8,0.6,3.6,0.8,5.3c0.3-0.1,0.6-0.1,0.9-0.2C150.9,186.8,153.5,184.2,150.2,183.1
		z M78,170.7c1.1-4.3-2.8-6.5-3.8-9.8c-0.3,0.1-0.6,0.2-0.9,0.4C74.9,164.4,76.5,167.6,78,170.7c-0.2,1.1-0.4,2.2-0.7,3.3
		c0.1,0,0.3,0,0.4,0.1C77.8,173,77.9,171.9,78,170.7z M82.7,176.6c1.6-0.9,3.3-1.6,4.9-2.7c0.5-0.3,0.9-1.6,0.7-2.1
		c-1.3-3.3-4.2-1.3-6.8-1.9c2.6,1.1,1.4,1.6,0.2,2.1c0.6,0.3,1.1,0.5,1.7,0.7C82.5,174.1,81.3,175.1,82.7,176.6
		c-0.4,0.1-0.8,0.2-1.2,0.3c0,0.1,0,0.1,0.1,0.2C81.9,176.9,82.3,176.7,82.7,176.6z M136.9,184.7c-0.4-1.1-1.2-2.2-1.3-3.4
		c-0.2-2.7-0.1-5.4-0.1-8.1c-0.3,0-0.5,0-0.8,0c0.1,1.9,0.3,3.7,0.4,5.6c0,1.8-0.1,3.6-0.2,5.4c-0.5,0-0.9,0-1.4,0
		c0-4.2,0-8.4,0-12.6c-0.3,0-0.7,0-1,0.1c0.2,4.8,0.5,9.5,0.8,14.7C134.8,185.7,135.9,185.2,136.9,184.7c2.2-3.1,0.6-6.3,0.9-9.4
		c-0.3,0-0.6,0-0.9,0C136.9,178.4,136.9,181.6,136.9,184.7z M78.6,136.3c-2.5,1.4-2.8,4.7-0.8,7.6c2.7,3.8,3.6,3.9,7.6,0.6
		c-1.5,0.6-3,1.2-4.4,1.8c-0.1-0.2-0.2-0.4-0.3-0.6c1.3-0.8,2.6-1.7,4.1-2.7c-2.1-1.8-2.9-4.9-6.7-4.5c0.6-0.3,1.1-0.6,1.3-0.7
		C79,137.2,78.8,136.8,78.6,136.3c0.1,0,0.1-0.1,0.2-0.1C78.7,136.3,78.7,136.3,78.6,136.3z M80.9,131.7c0.3,0.5,0.7,1.1,1,1.6
		c0.1-0.1,0.3-0.2,0.4-0.4C81.9,132.5,81.4,132.1,80.9,131.7c-0.7-4.7-2.4-8.7-7.3-10.1c-3-0.9-6.1-0.7-8.5,2.8
		c5-1.2,8.5,0.5,11.5,4.1C77.6,129.8,79.5,130.6,80.9,131.7z M116.5,174.8c0.4,0,0.8,0,1.2,0c0.6-0.2,1.1-0.3,1.7-0.5
		c3.7-1.6,4.1-2.4,1.4-5.3c-3.7-3.9-7.9-7.4-11.9-10.9c-3-2.6-6.5-4.7-9-7.6c-4-4.7-7.4-9.9-11.2-14.8c-0.9-1.2-2.3-1.9-3.5-2.9
		c-0.2,0.3-0.5,0.5-0.7,0.8c1,1.3,2.2,2.6,3.1,4c0.4,0.7,0.4,1.8,0.5,2.7c-0.9-0.3-2-0.3-2.7-0.9c-1.4-1.4-2.6-3-3.8-4.5
		c-0.3,0.2-0.6,0.5-0.9,0.7c1.3,1.7,2.3,3.6,3.9,5.1c8.3,7.7,14.3,16.8,17.1,27.8c0.2,0.8,0.9,1.8,1.6,2c1.8,0.6,3.7,0.7,5.9,1.1
		c-0.6-2.2,0.3-4.7-2.8-5.4c-2.1-0.5-3.7-2-2.9-4.2c0.4-1.3,2.1-2.6,3.4-2.9c2.3-0.5,3.3,1.4,3.9,3.4c0.4,1.2,1.1,2.3,2,3.3
		c1,1.2,3,2.1,3.2,3.3c0.2,1.3-1.2,2.9-1.9,4.5C114.6,173.9,115.6,174.4,116.5,174.8z M37.2,126.4c1.9,2.5,2.2,6,0.7,8.6
		c-0.4,0.7-0.7,1.6-0.8,2.5c-1,6.5-3.9,12.1-7.4,17.6c-2.7,4.1-5.3,8.5-7,13c-4.5,11.5-5.4,23.3-1.6,35.3c2.7-6.3,6.1-8.1,12.9-7.5
		c6.7,0.7,13.2-0.5,19.9-2.5c-2.8-2-5.4-3.7-7.7-5.6c-0.8-0.7-1-2.1-1.4-3.1c1.7-0.5,0.2-1.6,0.4-2.4c0.9-4.8,0.7-10,2.7-14.3
		c3.2-6.9,7.6-13.3,11.7-19.7c2.5-3.9,2.7-5-0.3-8.4c-4.4-5-8.8-10.1-13.2-15.1c-0.4-0.5-1.1-0.9-1.7-1.1c-3.6-1.4-7.2-2.9-10.9-3.8
		c-2.4-0.6-5.1-0.1-7.7-0.1c0,0.3-0.1,0.6-0.1,1c1.1,0.3,2.3,0.6,3.4,1C32.1,122.7,35.4,123.3,37.2,126.4c-0.1,0.1-0.1,0.1-0.2,0.2
		C37.1,126.6,37.1,126.5,37.2,126.4z M23.3,204.9c0.9,0,1.9,0.1,2.8,0.1c12.9-0.1,25.8-0.3,38.7-0.5c17.8-0.2,35.5-0.4,53.3-0.6
		c14.9-0.2,29.7-0.4,44.6-0.7c3.2-0.1,4-1.1,2.3-3.8c-0.7-1.1-2.1-2.1-3.4-2.3c-3.8-0.6-7.7-0.8-11.6-1.2c-6.6-0.7-12.6-2.9-18-6.8
		c-6.3-4.6-12.5-9.2-19.1-13.2c-6.3-3.8-13.4-4.6-20.5-2.1c-7.5,2.6-14.3,6.5-20.4,11.6c-6.3,5.2-13.5,8.7-21.3,10.4
		c-6.4,1.4-13.1,1.4-19.6,1.7C26.3,197.8,23.3,200.3,23.3,204.9z M153.3,163.5c-4.5,2.9-5.8,6.1-3.8,10.7c1.1,2.5,2.9,4.8,4.7,6.8
		c2.8,3,4,6.1,2.4,10.1c-1,2.3,0,3.1,2.3,3.4c2.3,0.3,4.5,1.1,6.7,1.4c1.8,0.2,3.8,0.6,5.4,0c2.6-0.9,2.5-2.5,0.8-4.6
		c-1.5-1.8-2.9-3.9-1.7-6.3c1.2-2.3,2.6-4.8,4.7-6.3c3.6-2.6,4.1-6,4-9.8c-0.1-2.2-4.2-5.2-5.9-4.6c-1.9,0.7-3.8,1.5-5.8,1.6
		C162.3,166.2,157.5,167.2,153.3,163.5z M63.7,145c-1.7,2.3-3.3,4.4-4.8,6.5c-4.1,5.8-8.1,11.7-10.1,18.6c-1.4,4.7-1.7,9.3,0,14
		c0.6,1.6,1.5,3.3,3.6,2.3c4.5-2.1,8.8-4.3,13.2-6.7c0.6-0.3,1.1-1.9,0.8-2.7c-1.9-6.2,0.1-10.8,5.1-14.1
		C71.3,155.8,69.7,149.6,63.7,145z M66.6,143.7c-0.5-3.3-0.2-6.4-1.5-8.5c-2.1-3.3-4.9-6.3-8.9-8c-2.2-0.9-4.2-3-5.6-5
		c-0.7-1.1-0.4-3.7,0.5-4.6c0.9-0.9,3.5-1.3,4.6-0.6c2.1,1.2,4.3,3.1,5.1,5.2c1.9,5,6.2,7.6,9.5,11.1c0.5,0.6,2.3,0.5,3.1,0.1
		c0.6-0.3,0.8-1.9,0.6-2.7c-0.8-3.4-3-4.6-6.6-3.8c-2.9,0.7-4.5-0.5-3.4-2.9c1.1-2.3-0.1-3.4-1.5-4.7c-2.9-2.4-6.2-4.5-8.6-7.3
		c-4.1-4.7-8.9-2.7-13.7-2.5C46.2,123,56.3,133,66.6,143.7z M91.2,168.4c0.3-0.2,0.6-0.3,0.9-0.5c-0.8-1.9-1.4-3.9-2.3-5.8
		c-3.1-6.2-7.8-11-12.8-15.6c-1.1-1-2.1-2.5-2.5-3.9c-0.3-1.4,0.4-3,0.4-4.5c0-0.9-0.5-2.7-0.6-2.7c-1.9,0.2-3.8,0.5-5.5,1.1
		c-0.5,0.2-1,1.6-0.9,2.3c0.5,3.6,1.7,6.8,4.5,9.5c4.1,4,7.8,8.3,11.7,12.5C86.5,163.3,88.8,165.9,91.2,168.4z M135.6,188.8
		c5.9,3.9,12.1,5.1,18.8,5.2c0.2-1.1,0.4-2.1,0.6-3.4c-2.2-0.3-4.6-0.1-6.3-1c-1.7-1-2.8-3.1-4.2-4.9
		C141.8,186,138.9,187.3,135.6,188.8z M93.7,163.9c-0.1-0.2-0.2-0.3-0.3-0.5c1.3-0.9,2.6-1.8,4.5-3.1c-5.6,1-6,2.1-4.1,9.2
		c7-0.9,7.6-1.8,4-7.1C96.5,162.9,95.1,163.4,93.7,163.9z M95,157c-0.1-0.1-0.2-0.3-0.3-0.4c-1.5,0.6-2.9,1.3-4.4,1.9
		c-0.1-0.2-0.2-0.4-0.3-0.6c1.4-0.9,2.7-1.7,4.1-2.6c-0.1-0.2-0.2-0.4-0.3-0.7c-1.5,0.6-2.9,1.3-4.4,1.9c-0.1-0.2-0.2-0.4-0.3-0.5
		c1.2-0.9,2.4-1.7,3.5-2.6c-0.1-0.1-0.2-0.2-0.2-0.3c-1.4,0.6-2.8,1.1-4.1,1.7c-0.1-0.2-0.2-0.4-0.3-0.6c1.2-0.8,2.4-1.7,3.6-2.5
		c-0.1-0.1-0.2-0.3-0.3-0.4c-1.5,0.7-3,1.4-4.4,2.1c-0.1-0.2-0.2-0.4-0.3-0.6c1.3-0.9,2.6-1.7,3.8-2.6c-0.1-0.1-0.2-0.2-0.2-0.4
		c-1.6,0.8-3.2,1.6-4.9,2.5c2.2,3.4,4.2,6.4,6.4,9.7c1.7-1.2,3.2-2.2,4.7-3.2c-0.1-0.2-0.2-0.3-0.3-0.5c-1.4,0.7-2.8,1.3-4.2,2
		c-0.1-0.2-0.2-0.4-0.4-0.6C92.5,158.8,93.7,157.9,95,157z M26.9,117.4c4.8,1,10.8,2.2,16.6,3.3C41.6,116.9,32.6,115.4,26.9,117.4z
		 M166.8,201c4,2.2,14-5.7,14.6-11.3C177.9,195.3,173.3,199,166.8,201z M75.1,180.3c-0.3-0.9-0.3-2-0.8-2.8c-2.3-3-2.4-4.7-0.2-8.1
		c0.5-0.7,0.5-1.7,0.8-2.6C70,170,70.2,176.9,75.1,180.3z M173.7,190.4c1.8,4.4,1.6,4.6-5.6,8.3c3.5,0.2,8.8-3.8,11-8.3
		C177.3,190.4,175.5,190.4,173.7,190.4z M169.9,162.4c-4.2-1.7-10-1.1-10.7,1.5C162.9,163.8,166.5,165.2,169.9,162.4z M66.8,134
		c-4.5-4.8-9.4-10-14.3-15.2c-0.1,0.1-0.2,0.2-0.3,0.3C57.2,124.2,62.3,129.4,66.8,134z M40.8,108.4c0.3-0.3,0.5-0.7,0.8-1
		c-1.3-1-2.5-2-3.8-3c-0.2,0.3-0.5,0.6-0.7,1C38.3,106.3,39.6,107.3,40.8,108.4z M142.6,184.4c-0.1-0.3-0.3-0.6-0.4-0.8
		c-2.5,1.2-4.9,2.3-7.4,3.5c0.1,0.2,0.2,0.4,0.3,0.6C137.6,186.5,140.1,185.5,142.6,184.4z M131.4,184.3c-0.1,0-0.1,0-0.2,0
		c0-4.3,0-8.6,0-12.8c-0.1,0-0.3,0-0.4,0C131,175.8,131.2,180.1,131.4,184.3z M153.9,184.5c-0.2,0-0.4-0.1-0.7-0.1
		c0,1.4,0,2.9,0,4.3c0.2,0,0.4,0,0.7,0C153.9,187.3,153.9,185.9,153.9,184.5z M127.8,179.8c0,0,0.1,0,0.1-0.1c0-3.3,0-6.5,0-9.8
		c0,0-0.1,0-0.1,0C127.8,173.2,127.8,176.5,127.8,179.8z M147,186.6c0.3,0,0.6,0,0.9,0c-0.1-1.4-0.2-2.8-0.3-4.2
		c-0.2,0-0.4,0-0.6,0.1C147,183.8,147,185.2,147,186.6z M139.6,176.4c-0.1,0-0.2,0-0.3,0c0,2.3,0,4.6,0,6.9c0.1,0,0.2,0,0.3,0
		C139.6,181,139.6,178.7,139.6,176.4z M107.5,161c-0.1-0.3-0.3-0.6-0.4-0.9c-0.9,0.6-1.8,1.1-2.7,1.7c0.1,0.2,0.3,0.5,0.4,0.7
		C105.8,162,106.6,161.5,107.5,161z M82.7,168.3c0.2-0.2,0.4-0.5,0.6-0.7c-0.6-0.3-1.2-0.7-1.8-0.9c-0.2-0.1-0.5,0.3-0.9,0.5
		C81.4,167.7,82.1,168,82.7,168.3z M143.1,181.6c0.2,0,0.4-0.1,0.6-0.1c-0.1-0.7-0.2-1.5-0.2-2.2c-0.1,0-0.3,0-0.4,0
		C143.1,180.1,143.1,180.8,143.1,181.6z M57.9,190.5c0.1,0,0.1,0,0.2,0c0.1-1,0.3-2,0.4-3.1c-0.2,0-0.4,0-0.6,0
		C57.9,188.4,57.9,189.4,57.9,190.5z M66.2,183.8c-0.1,0-0.2,0.1-0.2,0.1c0,1.1,0,2.2,0,3.4c0.1,0,0.2,0,0.2,0
		C66.2,186.1,66.2,184.9,66.2,183.8z M155.7,185.8c-0.2,0-0.3,0-0.5,0.1c0.1,0.7,0.1,1.4,0.2,2c0.2,0,0.3,0,0.5-0.1
		C155.8,187.1,155.8,186.5,155.7,185.8z M141.2,182c0.2,0,0.4,0,0.5-0.1c-0.1-1.1-0.1-2.2-0.2-3.4c-0.1,0-0.2,0-0.3,0.1
		C141.2,179.8,141.2,180.9,141.2,182z M61.1,189.7c0.1,0,0.3,0,0.4,0c0.1-1.2,0.1-2.4,0.2-3.5c-0.1,0-0.2,0-0.3,0
		C61.2,187.3,61.2,188.5,61.1,189.7z M175.8,188c0.1,0,0.3,0,0.4,0c0-0.5-0.1-1.1-0.1-1.6c-0.1,0-0.2,0-0.3,0
		C175.8,187,175.8,187.5,175.8,188z M130,183.6c0.1,0,0.2-0.1,0.2-0.1c0-0.9,0-1.7,0-2.6c0,0-0.1,0-0.1,0
		C130.1,181.8,130.1,182.7,130,183.6z M59.6,189.8c0,0,0.1,0,0.1,0c0-0.8,0-1.7,0-2.5c0,0-0.1,0-0.1,0
		C59.6,188.1,59.6,189,59.6,189.8z M177.5,188.1c0.2,0,0.3,0,0.5,0c0-0.4-0.1-0.9-0.1-1.3c-0.2,0-0.3,0-0.5,0
		C177.4,187.3,177.5,187.7,177.5,188.1z M126.8,171.5C126.7,171.5,126.7,171.5,126.8,171.5c-0.1,0.8-0.1,1.6-0.1,2.5
		c0,0,0.1,0,0.1,0C126.8,173.2,126.8,172.4,126.8,171.5z M75,174.3c-0.1-0.2-0.3-0.4-0.4-0.6c-0.1,0.1-0.4,0.2-0.3,0.3
		c0.1,0.2,0.2,0.4,0.3,0.6C74.7,174.5,74.8,174.4,75,174.3z M67.7,183.5C67.8,183.5,67.8,183.5,67.7,183.5c0.1-0.5,0.1-1.1,0.1-1.6
		c0,0-0.1,0-0.1,0C67.7,182.4,67.7,183,67.7,183.5z M64.3,187.6c0,0,0.1,0,0.1,0c0-0.5,0.1-1.1,0.1-1.6c-0.1,0-0.1,0-0.2,0
		C64.3,186.5,64.3,187,64.3,187.6z M172.8,186.7c-0.1,0-0.1,0.1-0.2,0.1c0,0.4,0,0.8,0.1,1.3c0,0,0.1,0,0.1,0
		C172.8,187.6,172.8,187.1,172.8,186.7z M56.1,190.4c0.1,0,0.1-0.1,0.2-0.1c0-0.5,0-1,0-1.5c-0.1,0-0.1,0-0.2,0
		C56.1,189.4,56.1,189.9,56.1,190.4z M68.9,184.5c0.1,0,0.2,0.1,0.3,0.1c-0.1-0.5-0.1-1-0.2-1.5C69,183.6,68.9,184.1,68.9,184.5z
		 M56.3,119.8c-0.1,0.1-0.3,0.3-0.4,0.4c0.4,0.3,0.7,0.6,1.1,0.9c0.1-0.1,0.3-0.3,0.4-0.4C57,120.4,56.7,120.1,56.3,119.8z
		 M85,136.8c0.1-0.1,0.2-0.1,0.2-0.2c-0.2-0.3-0.4-0.5-0.7-0.8c-0.1,0.1-0.2,0.1-0.2,0.2C84.5,136.3,84.7,136.6,85,136.8z
		 M174.5,186.4c-0.1,0-0.1,0-0.2,0c0,0.4,0,0.9,0,1.3c0.1,0,0.1,0,0.2,0C174.5,187.3,174.5,186.9,174.5,186.4z M124.7,176.4
		c-0.1-0.2-0.2-0.3-0.3-0.5c-0.1,0.1-0.2,0.3-0.2,0.4c0,0.1,0.1,0.2,0.1,0.2C124.4,176.5,124.5,176.5,124.7,176.4z M145.8,181.1
		c-0.1-0.1-0.2-0.2-0.3-0.4c-0.1,0.1-0.3,0.3-0.3,0.3c0.1,0.2,0.3,0.3,0.4,0.5C145.7,181.4,145.7,181.3,145.8,181.1z M63.1,186
		C63.1,185.5,63.1,185.7,63.1,186C63.2,185.7,63.2,185.5,63.1,186z M67.7,172.2C68.1,172.2,67.9,172.2,67.7,172.2
		C67.9,172.2,68.1,172.2,67.7,172.2z M38,111.9c0-0.1,0-0.2-0.1-0.2c0,0-0.1,0-0.2,0.1c0,0.1,0,0.2,0.1,0.2
		C37.8,112,37.9,112,38,111.9z M55,188.8c0-0.1-0.1-0.1-0.1-0.2c0,0.1-0.1,0.2-0.1,0.2c0,0.1,0.1,0.2,0.2,0.2
		C55,188.9,55,188.9,55,188.8z M108.9,162.9c0-0.1,0.1-0.1,0.1-0.2c-0.1,0-0.3-0.1-0.4-0.1c0,0-0.1,0.1-0.1,0.2
		C108.6,162.9,108.8,162.9,108.9,162.9z M120.9,166.2c0-0.1-0.1-0.2-0.1-0.2c-0.1,0.1-0.2,0.2-0.2,0.3c0.1,0,0.2,0.1,0.2,0.1
		C120.8,166.4,120.9,166.3,120.9,166.2z M79.7,173c0-0.1-0.1-0.1-0.1-0.2c-0.1,0.1-0.2,0.1-0.1,0.2c0,0.1,0.1,0.2,0.2,0.3
		C79.7,173.2,79.7,173.1,79.7,173z M85.1,167.9c-0.1,0-0.1,0-0.2,0c0,0.1,0,0.3,0.1,0.4c0,0,0.1,0,0.2,0
		C85.1,168.2,85.1,168,85.1,167.9z M71.8,183.2l0,0.2l0.1-0.2L71.8,183.2z M64.6,183.5l0.2,0l-0.1-0.2L64.6,183.5z M67.8,174
		l0.1-0.1l-0.2,0L67.8,174z M69.7,175.2l0,0.2l0.2-0.1L69.7,175.2z M78.8,161.7l0.2,0.1l0-0.2L78.8,161.7z M78.8,177.7l-0.1-0.2
		l-0.1,0.2L78.8,177.7z M179.5,188.4l-0.1-0.2l-0.1,0.2L179.5,188.4z"/>
	<path d="M117.7,174.8c-0.4,0-0.8,0-1.1,0c1.5-1.1,3-2.2,4.5-3.3c0.2,0.3,0.4,0.5,0.6,0.8C120.2,173.1,119,174,117.7,174.8z"/>
	<path d="M85.7,172.5c0.6,0.1,1.1,0.1,1.7,0.2c0,0.2,0,0.5-0.1,0.7c-0.6-0.1-1.1-0.2-1.7-0.2C85.6,173,85.7,172.8,85.7,172.5z"/>
	<path d="M85.9,170.5c0.1,0.2,0.4,0.6,0.4,0.6c-0.2,0.2-0.5,0.4-0.7,0.4c-0.1,0-0.3-0.4-0.5-0.6C85.3,170.9,85.5,170.8,85.9,170.5z"
		/>
</g>
<g>
	<path d="M96.3,67.3c0.5-0.1,1-0.1,1.6-0.2c0-3.5,0-7,0-10.4c-2.4-2-4.6-4.1-7-5.9c-0.9-0.7-2.1-1.1-3.1-1.5
		c-6.6-2.5-13.3-4.9-19.8-7.4c-7.1-2.8-13.6-6.6-19.5-11.5c-0.8-0.6-1.5-1.4-2.2-2.1c0.1-0.1,0.2-0.2,0.2-0.3c1.1,0.6,2,1.4,3.4,1
		c0,0,0,0,0,0c-0.2,0.3-0.4,0.7-0.6,1c4,3.3,8.3,5.9,12.9,8.3c1.4,0.7,2.6,0.7,3.9,0c0.9-0.5,1.8-0.9,2.7-1.4c0,0,0.1,0.2,0.1,0.2
		c-1.2,0.9-2.3,1.7-3.6,2.7c2,0.8,4,1.5,6,2.4c2.6,1.1,5.3,2,8.1,0.5l0,0c-0.7,0.5-1.4,1.1-2,1.6c0.2,0.1,0.5,0.2,0.7,0.3
		c4.2,1.6,8.4,3.3,12.6,4.9c0.3,0.1,0.7,0.2,1,0.2c1.5-0.4,2.7,0.2,4,0.7c0.6,0.2,1.2,0.6,1.8,0.8c1.8,0.6,2.7,0,2.8-1.9
		c0.1-1.1,0-2.2,0-3.3c-0.1-1.4,0.5-2.5,1.6-3.2c1.8-1.2,3.8-1.8,6-0.9l0,0c-0.9,0.1-1.7,0.3-2.6,0.4c-2.7,0.2-4.4,1.6-4,5.5
		c0.1,0.9,0.1,1.8-0.1,2.6c-0.4,1.8-1.6,2.4-3.3,1.8c-0.9-0.3-1.8-0.7-2.6-1c-0.9-0.4-1.8-0.5-3.1-0.3c2.5,2.6,5.1,4.7,8.2,5.9
		c5.2,2.1,10.5,3.8,15.8,5.7c2.7,1,5.4,2,8.1,3c0.9,0.3,2,0.4,2.9,0.6c0.5,0.3,0.9,0.7,1.4,0.9c2.8,1,5.7,1.9,8.4,3
		c3,1.1,6,1.6,9.2,1.3c1-0.1,2,0,3.1,0c-0.3-1.5,1.1-1.7,2.2-2.1c1.5-0.5,3-1.1,4.5-1.7c1.1-0.5,2-1.2,2.1-2.6
		c0.5,1.5-0.3,2.6-1.5,3.2c-1.2,0.7-2.5,1.2-3.8,1.7c-0.5,0.2-1.1,0.3-1.7,0.5c-0.4,0.2-0.7,0.6-1,1c0.4,0.4,0.7,0.9,1.2,1.1
		c0.7,0.3,1.4,0.3,2.1,0.4l0,0c5.4,2.1,11,3.2,16.8,3c2.5-0.1,4.1-2.1,4.3-4.6l0,0c0.7,0.6,1.3,1.4,2.1,1.6c3.5,0.8,7,1.4,10.5,2.1
		c0.5,0.1,1-0.2,2-0.4c-2.8-2.2-5.3-3.8-8-5.1c-5.4-2.5-10.7-4.9-16.1-7.3c-0.6-0.3-1.3-0.6-1.9-0.5c-1.5,0.2-2.8-0.2-3.9-0.9
		c-2.4-1.4-4.8-1.4-7.2-0.3c-1.5,0.7-2.9,0.5-4.4,0c-5.9-2-11.9-4-17.8-6c-4.6-1.5-9-3.4-12.9-6.3c-0.6-0.5-1-1.1-1.6-1.7
		c0.6,0.3,1.2,0.7,1.8,1c1.3,0.7,2.6,1.4,3.9,2.1l0,0c0.8,0.4,1.5,0.9,2.3,1.2c6.5,2.3,12.9,4.6,19.4,6.8c0.6,0.2,1.3,0.2,1.9,0.1
		c1.7-0.4,3.5-0.9,5.2-1.4c-0.1-0.5-0.2-0.8-0.3-1c0.8,0.5,1.5,0.9,2.3,1.4c-2,0.7-4.1,1.3-6.1,1.9c2.5,1.7,5.1,1.2,7.6,0.1
		c0.3-0.1,0.4-0.5,0.6-0.8c0.7,0.2,1.4,0.4,2,0.7c1.9,0.7,3.8,1.5,5.7,2.1c0.4,0.1,0.9-0.2,1.4-0.3c-0.1-0.5-0.1-1.1-0.4-1.4
		c-0.7-0.6-1.4-1.3-2.3-1.6c-3.8-1.3-7.6-2.4-11.5-3.6c-0.3-0.1-0.8,0-1.1,0.1c-1-0.1-1.6-0.6-2.1-1.9c2.7,0.8,5,1.6,7.4,2.2
		c1.1,0.3,2.3,0.2,3.4,0.1c1.2-0.2,2.4-0.6,3.6-1c-0.3-0.5-0.6-0.8-0.9-1.2c1,0.6,2.1,1.2,3.1,1.8c-1.9,0.5-3.8,0.9-5.8,1.4
		c2.6,1.5,4.9,1.2,7.2,0c-0.2-0.4-0.4-0.7-0.6-1c1.2,0.6,2.3,1.2,3.5,1.8c0,0,0,0,0,0c-0.3,0.1-0.7,0.1-1.4,0.2
		c3.5,1.7,6.8,3.3,10,4.9c3.7-3.6,7.4-7.1,11-10.6c-0.7-0.1-1.2-0.1-1.6,0.1c-3.5,1-7.1,1.9-10.5,3c-2.5,0.9-4.6,0-6.7-1.1
		c0.4,0,0.8-0.1,1.1,0c1.9,1,3.7,0.4,5.5-0.2c0.8-0.3,1.7-0.5,2.5-0.8c0.3-0.1,0.5-0.5,0.7-0.7c2.2,0.3,4-0.6,6.1-1.2
		c-0.4-0.4-0.6-0.7-0.9-1.1c0.6,0.1,1.2,0.3,1.8,0.4c1.5,0.1,3,0.2,4-1.2c1.8,0.5,3.7,1,5.8,1.5c-0.2-0.7-0.3-1.2-0.5-1.3
		c-2.8-1.1-5.7-2.2-8.8-3.4c0.4,0.7,0.7,1.1,0.9,1.4c-1.3-0.4-2.3-1.2-3.1-3c1.6,0.6,2.9,0.9,4,1.5c3.6,1.8,6.7-0.3,10-0.9
		c-1.1-1.6-2.1-2.9-3.1-4.2l0,0c-0.1-0.5-0.3-1.1-0.5-1.7c-0.8,0.1-1.6,0.1-2.3,0.3c-4.8,0.8-9.6,1.6-14.3,2.5
		c-2.7,0.5-5.4,0.9-8.1,1.4c-0.6,0.1-1.3,0.2-1.1,1.2c-0.7-0.5-1.4-0.9-2.1-1.4l0,0c9.4-1.6,18.9-3.3,28.3-4.9
		c0.3-1,0.5-1.9,0.7-2.9c-1.1,0.2-1.8,0.3-2.6,0.5c-9.7,1.4-19.5,2.9-29.2,4.2c-1.6,0.2-3.1,1.6-5,0c1.8,2.2,3.2,4,4.7,5.9
		c-0.2,0.4-0.4,0.8-0.5,1.3c-0.4,1.5-0.6,3-2.3,3.8c2.2,0.6,3.3,0.2,3.9-1.5c0.2-0.7,0.1-1.6,0.2-2.3c0.5,0.5,0.9,0.9,1.4,1.4
		c-0.3,0.2-0.7,0.3-0.8,0.6c-0.2,0.7-0.3,1.5-0.5,2.6c0.8-0.5,1.4-0.9,2-1.3c-0.3-0.8-0.6-1.4-0.8-2c2.6-1.2,5.3-0.4,8-0.1
		c-0.1-0.4-0.1-0.6-0.1-0.8c1.3,0.6,2.6,1.2,3.8,1.9c0.8,0.5,1.5,0.7,2.5,0.4c1.9-0.6,3.8-1,5.7-1.6c0.4-0.1,0.8-0.5,1.2-0.8
		c0.6,0.5,1.2,0.9,1.8,1.4c-1.6,0.4-3.3,0.8-4.9,1.3c-2,0.4-3.9,0.8-6,1.2c0.4,0.6,0.7,0.8,0.9,1.1c-1-0.1-2-0.6-2.9-0.4
		c-2.3,0.5-4.6,1.3-6.8,2c-0.6-0.1-1.1,0-1.7-0.2c-2.5-0.7-4.9-1.5-7.4-2.2c-0.7-0.2-1.5-0.2-2.3-0.2c-1-0.1-2-0.1-3-0.4
		c-2.9-0.7-5.8-1.2-8.4-3c-0.6-0.4-1.7-0.5-2.5-0.3c-6.2,1-12.3,2.1-18.5,3.2c-0.4,0.1-0.9,0-1.3-0.1c0.4-0.5,0.9-0.7,1.3-0.8
		c2.9-0.6,5.8-1.2,8.7-1.8l0,0c3.7,0,7.2-1.1,10.9-1.6c-0.3-1.4-0.5-2.6-0.7-3.9c-3.3,0.5-6.5,1-9.7,1.4c-3.2,0.4-6.4,0.7-9.6,0.8
		c-3.2,0.1-6.4-0.2-9.8-0.3c0.2,0.8,0.3,1.4,0.4,2.1c-0.4-0.5-0.8-0.9-1-1.5c-0.6-1.4-0.3-1.8,1.2-1.8c0.4,0,0.8-0.2,1.2-0.3l0,0
		c1.2,0.3,2.4,0.6,3.6,0.8c0-0.1,0.1-0.3,0.1-0.4c-10.6-4.5-21.3-9-32-13.6c0,0.6-0.1,0.9-0.1,1.6c-0.6-0.5-1-0.9-1.4-1.2l0,0
		c0.2-0.1,0.5-0.2,1.1-0.5c-3.9-1.7-7.5-3.3-11.2-4.4l0,0c-2-0.8-4-1.7-6.1-2.3c-4.2-1.2-8.5-2.3-12.8-3.4c-1.2-0.3-2.3-0.6-3.5-0.9
		c-0.4-0.1-0.8-0.2-1.2-0.3c0,0.1,0,0.1,0,0.2c0.4,0,0.8,0,1.3,0.1c1.2,0.3,2.3,0.6,3.5,0.9c0.4,0.3,0.8,0.7,1.2,1l0-0.1
		c-2.4-0.5-4.8-1.1-7.2-1.5c-3.3-0.7-6.6-1.4-10-1c-1.4,0.2-1.9,0.7-1.4,2c0.5,1.2,1.2,2.4,1.9,3.6c0.9-0.2,1.6-0.3,2.2-0.5l0.1,0.1
		c-0.3,0.3-0.5,0.7-0.8,0.8c-1,0.2-0.5,0.8-0.4,1.2c-0.1,0.1-0.1,0.1-0.2,0.2c-2.1-1.8-3.2-4.2-4.3-6.6c0-0.6,0-1.2,0-1.8
		c0.8-1.5,2.2-2.4,3.8-2.7c3.7-0.7,7.5-1.1,11.2-1.8c2.8-0.5,5.5-1.1,8.3-1.7c1.2,0,2.3,0,3.5,0c18.2,5.3,35,13.7,51.6,22.5
		c4.9,2.6,9.9,5.1,14.7,7.9c2.1,1.2,4.1,1.5,6.4,1.1c1.9-0.4,3.7-0.6,5.7-0.9c0.4-0.8,0.7-1.7,1.1-2.5c1.5-2.6,3.8-3.7,6.6-2.8
		c1.6,0.5,3.1,1.3,4.5,2.2c1.2,0.7,2.3,1,3.7,0.8c5.4-0.9,10.8-1.6,16.2-2.4c5.6-0.8,11.3-1.7,16.9-2.5c1.8-0.3,3.5-0.4,5.1-1.6
		c1.3-1,3-1,4.6-0.4c0.8,0.3,1.7,0.3,2.5,0.2c10.5-1.5,21.1-3,31.6-4.5c5.6-0.8,11.1-1.7,16.7-2.6c0.9-0.1,1.8-0.5,2.7-0.8
		c1.8-0.8,3.6-1.6,5.5-2.5c0.7,1.1,1.3,2,1.9,2.9c0,0.4,0,0.9,0,1.3c-0.7,1.1-1.6,2.2-2.2,3.4c-0.6,1.2-1.5,1.8-2.8,2.2
		c-12.9,3.5-25.8,7.1-38.7,10.7c-1.3,0.4-2.6,0.9-4,1.1c-1.7,0.3-2.6,1.1-2.9,2.8l0,0.1c0,0,0-0.1,0-0.1c0.4-0.4,0.9-0.8,1.3-1.2
		c0.1,2-0.1,2.3-2,2.2c-1.4-0.1-2.9,0.5-4.1-0.5c0.7,0,1.3,0,1.9-0.1c0.7-0.2,1.5-0.4,1.9-0.8c1.1-1.3,1.5-3,2.6-4.4
		c0.1-0.1-0.2-0.5-0.3-0.8c11.4-3,22.7-5.9,34.1-8.9c3.1-0.8,6.1-1.6,9.4-2.4c-0.6-0.9-1.1-1.5-1.5-2.2c-0.5-0.7-1.1-1-2.1-0.9
		c-4.1,0.6-8.2,1.2-12.3,1.9c-7.6,1.1-15.2,2.2-22.7,3.4c-4.4,0.6-8.8,1.3-13.4,2c1.3,1.4,2.4,2.2,4.3,1.9c6.3-1.2,12.6-2.2,19-3.3
		c8.5-1.4,17-2.9,25.5-4.3c0.3-0.1,0.7,0.1,1.1,0.1c0,0.2,0,0.3,0,0.5c-15.4,2.6-30.7,5.3-46.1,7.9c0.6,0.6,1.1,0.9,1.5,1.3
		c0,0.4-0.1,0.8,0,1.1c1.6,3.1,1,5.6-2.1,7.6c-0.2,0.2-0.4,0.4-0.6,0.6c-2.1-0.7-4.2-0.1-6.2,0.5c-2.1,0.6-4.3,1.2-6.6,1.9
		c1.1,3.5-0.5,6.7-1,9.9c-0.5,3.1-1.3,6.1-2,9.4c2.9-0.1,5.6-0.2,8.4-0.4c4.1-0.2,8.2-0.5,12.2-0.7c1.9-0.1,3.8-0.3,5.7-0.4
		c0.9-0.1,1.8-0.1,2.2,0.9c-10.4,0.6-20.8,1.2-31.2,1.8c-0.5,0-1,0.1-1.5,0.1c-0.1,0-0.3,0.1-0.4,0.2c-0.1,0-0.1,0.1-0.1,0.2
		c0,0.1,0,0.1,0,0.4c0.7,0.6,1.5,1.2,2.2,1.9c1,1,2.3,1.2,3.6,1c5.4-1,10.9-2,16.3-2.8c3.8-0.6,7.6-1.9,11.6-1.4
		c-0.2-0.5-0.4-0.9-0.6-1.4c1.1,0.6,2.1,1.1,3.2,1.7c0,0.2-0.1,0.4-0.1,0.6c-9.1,2.2-18.2,4.5-27.4,6.8c0.1,0.3,0.2,0.6,0.3,0.9
		c0.2,1.2,0.1,1.5-1.1,1.5c-2,0-4.1-0.1-6.1-0.1c-1.3,0-2.6,0.2-3.8,0.5c-3.4,1-6.9,2-10.2,3.2c-2.3,0.8-4.1,0-6.2-1
		c0.8-1.2,1.6-2.2,2.3-3.4c-7.3-0.4-14.1-2.2-20.8-4.4c-0.7-0.2-1.4-0.2-2.1-0.2c-2.9,0.3-5.8,0.1-8.6-1c-2.2-0.8-4.4-1.5-6.6-2.3
		c-0.9-0.3-1.7-0.4-2.4,0.3c-1,0.9-2.6,1.1-3.1,2.6l0,0c-1.8-0.9-3.6-1.7-5.4-2.6c-0.4-0.2-0.7-0.6-1.1-0.9l0,0
		c1.8,0.5,3.4,0.3,4.6-1.6c-7.9-2.8-15.7-5.6-23.8-8.5c0,2.5,0,4.9,0,7.3c0,1,0.4,1.4,1.2,1.8c0.8,0.4,1.5,1,2.3,1.5l0,0
		c-2.5-0.9-5.1-1.4-7.7-1.6C96.4,67.4,96.4,67.3,96.3,67.3L96.3,67.3z M195.9,39.7c-0.2-0.2-0.3-0.3-0.5-0.5c0-0.2,0-0.4,0-0.2
		c-0.1-0.2,0,0,0.1,0.1C195.7,39.3,195.8,39.5,195.9,39.7c0.2,0.1,0.3,0.2,0.5,0.4c0.1,0,0.2,0.1,0.4,0.1c-0.1,0-0.3,0-0.4,0
		C196.2,40,196.1,39.9,195.9,39.7z M200.8,32.6c-0.1-0.1-0.2-0.1-0.3-0.2C200.6,32.5,200.7,32.6,200.8,32.6c0.2,0.1,0.3,0.2,0.5,0.4
		c0.1,0.3,0.2,0.6,0.4,1c0.1,0.2,0.1,0.5,0.2,0.7c0.1,0,0.1-0.1,0.2-0.1c-0.1-0.2-0.3-0.3-0.4-0.5c-0.1-0.3-0.2-0.6-0.4-1
		C201.1,32.9,201,32.8,200.8,32.6z M64.8,11.1c0,0.2,0,0.3,0,0.5c-0.6,0-1.1-0.1-1.7-0.1c0-0.3,0-0.5,0-0.8
		c-1.1,0.2-2.1,0.4-3.4,0.6c1.3,0.3,2.4,0.5,3.4,0.7c5.4,1.1,10.6,3,15.6,5.1l0.1,0.1c0.5,0.2,1,0.4,1.5,0.6
		c0.1-0.4,0.3-0.7,0.5-1.3c0.6,1,1,1.7,1.5,2.5c0.3-0.6,0.5-1,0.8-1.5c0.5,0.9,0.9,1.5,1.5,2.4c0.1-0.6,0.1-0.9,0.2-1.6
		c0.6,0.6,0.9,1.1,1.3,1.5c0.3,0.3,0.7,0.6,1,0.9l0.1,0.1l-0.1-0.1c0.1-0.3,0.2-0.6,0.4-1.1c0.7,1.7,0.7,1.7,1.8,1.9l0,0.1l0-0.1
		c0-0.2,0-0.4,0-0.6c0.2,0,0.6,0,0.7,0.1c0.4,0.4,0,1.4,1,1.4c0.3,0.2,0.6,0.3,0.9,0.5c0.4,0.1,0.9,0.3,1.3,0.4c0,0,0.1,0.1,0.1,0.1
		c-0.1,0-0.1-0.1-0.2-0.1c0.1-0.3,0.2-0.5,0.3-0.8c0.3,0.2,0.8,0.3,0.8,0.5c0.1,1,0.7,1.4,1.5,1.6l0.1,0.1c1,0.4,2,0.8,3,1.3l0,0
		c1,0.4,2,0.9,3,1.3c0,0,0.1,0,0.1,0c-0.1,0-0.1,0-0.2,0c0.2-0.3,0.4-0.6,0.8-1.2c0.3,0.7,0.3,1.3,0.6,1.6c0.2,0.2,0.7,0.2,1,0.3
		l0,0.2l0-0.1c-0.2-0.8,0.2-0.9,0.8-0.8c0.1,0.7-0.3,1.6,0.8,1.8l0.1,0l-0.1,0c0.2-0.5,0.2-1.1,1-1c0.4,0.6-0.3,2.1,1.3,1.7l0,0.1
		l0-0.1c0.2-1.1-0.3-1.6-1.4-1.7c-0.6-0.3-1.2-0.6-1.8-0.9c-0.7-0.5-1.4-1-2.2-1.3c-7.5-3.4-15-6.8-22.5-10.1
		c-3.9-1.7-7.9-3-11.9-4.4c-0.4-0.2-1,0-1.5,0c-0.4-0.1-0.8-0.3-1.3-0.5c0.2,0.4,0.3,0.7,0.4,0.9c-0.4-0.1-0.9-0.3-1.3-0.4
		C64.7,11.4,64.7,11.3,64.8,11.1c-0.1-0.1-0.2-0.2-0.2-0.3c0,0.1-0.1,0.1-0.1,0.2C64.5,11,64.6,11,64.8,11.1z M149,35.8l0-0.1
		L149,35.8c0.3,0.1,0.6,0.2,0.9,0.3c0.4,1.4,0.8,2.8,1.2,4.2c-0.1-1.5,0.5-3.1-1.2-4.2C149.6,36,149.3,35.9,149,35.8z M121.8,36.1
		c-0.3-0.2-0.6-0.3-0.8-0.5c-3.8-2.1-7.7-4.2-11.5-6.3c-0.1,0.2-0.3,0.3-0.4,0.5c0.3,0.4,0.5,1,0.9,1.1c3.6,1.7,7.3,3.3,11,4.9
		C121.2,35.9,121.5,36,121.8,36.1c0.3,0.1,0.6,0.3,0.9,0.4c0.3,0.1,0.6,0.3,0.9,0.4c0.3,0.1,0.6,0.3,0.9,0.4
		c0.3,0.1,0.6,0.3,0.9,0.4c0.3,0.1,0.6,0.3,0.9,0.4c0.3,0.2,0.6,0.3,0.9,0.5c0.3,0.2,0.5,0.3,0.8,0.5c0,0,0,0.1,0,0.1
		c0,0,0-0.1-0.1-0.1c-0.3-0.1-0.5-0.3-0.8-0.4c-0.3-0.2-0.6-0.3-0.9-0.5c-0.3-0.1-0.6-0.3-0.9-0.4c-0.3-0.1-0.6-0.3-0.9-0.4
		c-0.3-0.1-0.6-0.3-0.9-0.4c-0.3-0.1-0.6-0.3-0.9-0.4C122.4,36.4,122.1,36.3,121.8,36.1z M146,45.3l0,0.2L146,45.3
		c-0.3-0.1-0.6-0.2-0.9-0.3c-0.6-1.6-1.1-3.2-1-5c0.8,0.3,1.7,0.5,2.6,0.8c0.4-1.1,0.7-2,1-2.8c0,0,0.1-0.1,0.1-0.1
		c0-0.1-0.1-0.2-0.1-0.3c-0.3-0.5-0.6-1-1.3-0.4c-0.5,0.4-1.2,1-1.1,1.5c0.1,1.1-0.8,1-1.2,1.5c-0.5,1.8-0.7,3.5,0.9,4.9
		C145.4,45,145.7,45.2,146,45.3z M39.7,15.4c0.8,0,1.7,0,2.5,0c0-0.1,0-0.2,0-0.3C41.3,15.2,40.5,15.3,39.7,15.4l0,0.1L39.7,15.4z
		 M256.1,29.1c-1,0.3-2,0.6-3,0.9c-0.4,0-0.7,0-1.1,0.1c-9.7,2.5-19.4,5-29.1,7.5c-0.3,0.1-0.6,0.5-0.9,0.8c-2.6-0.3-5,0.9-7.4,1.4
		c-0.1,0-0.2,0.6-0.3,1c2.3-0.6,4.4-1.2,6.6-1.8c0.4-0.1,0.7-0.5,1-0.7c1-0.1,2-0.2,3-0.4c6.9-1.9,13.8-3.8,20.6-5.7
		c2.5-0.7,5-1.5,7.5-2.3C254,29.6,255,29.3,256.1,29.1c0.4-0.1,0.9-0.1,1.3-0.1c0-0.1,0-0.2,0-0.3C256.9,28.8,256.5,28.9,256.1,29.1
		z M215.3,69c-3.3,0.5-6.6,1-9.9,1.5c-0.4,0.1-0.7,0.4-1.1,0.7c-4.3-0.1-8.4,1.1-12.6,2.1c0.9,0.6,1.9,1.1,2.8,0.9
		c3.1-0.6,6.1-1.4,9.1-2.2c0.3-0.1,0.5-0.6,0.7-0.9c0.6,0.1,1.3,0.4,1.9,0.2C209.2,70.7,212.2,69.8,215.3,69
		c0.4-0.1,0.8-0.1,1.2-0.1c0-0.1,0-0.2,0-0.3C216,68.8,215.6,68.9,215.3,69z M150.4,41.3L150.4,41.3L150.4,41.3
		c-1-0.9-2.1-1.2-2.8-0.7c-0.9,0.7-0.9,2.7,0,4.1c1.1-0.4,1.8-1.1,2.2-2.2C149.8,42.1,150.1,41.7,150.4,41.3z M98.9,65.5
		c0.8,0.1,1-0.4,1-1.1c0.1-1,0.5-2.1,0.1-3c-0.4-1.1,0.3-1.8,0.2-2.7c-0.1-1.1-0.6-1.5-1.7-1.6c0,2.4,0,4.7,0,7
		C98.6,64.6,98.8,65.1,98.9,65.5c-0.1,0.2-0.3,0.5-0.3,0.7c0.1,0.3,0.3,0.7,0.5,1c0,0.1,0.5-0.1,0.5-0.1c-0.1-0.4-0.1-0.7-0.3-1.1
		C99.3,65.8,99.1,65.7,98.9,65.5z M185.9,65.6L185.9,65.6c0,0.4,0,0.9,0.1,1.5c1.4,0,2.6,0,3.9,0c0.2-1,0.4-1.9,0.7-2.8
		c0.2-0.8-0.2-1.3-0.7-1.8l0,0.1c0.6,0,1.1,0,1.3-0.8c0.4-2.2,1-4.5,1.4-6.7c0.1-0.4-0.3-0.9-0.4-1.3l0,0.1c1.3-0.3,1.5-1.7,1.1-2.1
		c-0.9-0.9,0.5-1,0.2-1.6c-0.5-0.1-1-0.2-1.4-0.5c-1.6-0.9-2.8-0.3-4,0.9c-3.3,3.4-6.8,6.6-10.2,9.9c-0.4,0.4-0.7,0.8-1.1,1.3
		c2.5,1.5,5,2.8,7.3,4.2C184.8,66.5,185.4,66.3,185.9,65.6z M164,51c0.9,0.1,1.9,0.5,2.7,0.3c3-0.7,6-1.6,9.4-2.5
		c-3-1.2-5.6-1.8-8.4-1.9c-0.9,0-1.9,0.1-1.8,1.3C165.9,49.5,165.3,50.3,164,51z M191.1,46c3.2,1.5,5.8-0.7,8.7-1.3
		C196.7,43.5,194,45.4,191.1,46z M123.3,69.7c2.4,1.6,3.3,1.3,5.7-1.3c-1-0.3-1.9-0.6-2.8-0.9C125.1,68.2,124.2,68.9,123.3,69.7z
		 M171.7,80.8c0.6-2.3,3.2-1.7,4.4-3.2c-1.4-0.1-2.6-0.2-4-0.4c-0.7,0.9-1.6,1.9-2.4,3C170.4,80.5,171,80.6,171.7,80.8z M197.4,39.2
		c2.1,1.3,2.8,0.9,3.7-2.5c-0.8-0.1-1.6-0.2-2.4-0.2C198.3,37.4,197.9,38.3,197.4,39.2z M197.4,36.7c1.5-2.2,1.5-2.6,0.5-3.9
		c-1.5,0.9-1.5,0.9-2.1,3.6C196.4,36.5,196.9,36.6,197.4,36.7z M180.9,78c-2.9-0.9-4.5,1.2-6.5,2C176.5,79.4,178.5,78.7,180.9,78z
		 M45.3,15.8C45.3,15.7,45.3,15.7,45.3,15.8c-0.5-0.1-0.9-0.1-1.4-0.1c0,0,0,0.1,0,0.1C44.3,15.8,44.8,15.8,45.3,15.8z M46.9,16.1
		c0,0,0,0.1,0,0.1c0.3,0,0.7,0,1,0c0,0,0-0.1,0-0.1C47.6,16.1,47.2,16.1,46.9,16.1z M50.2,16.6C50.2,16.6,50.2,16.6,50.2,16.6
		c-0.3-0.1-0.5-0.1-0.8-0.1c0,0,0,0.1,0,0.1C49.7,16.6,49.9,16.6,50.2,16.6z M162.6,50.5l0.2-0.1L162.6,50.5L162.6,50.5z"/>
	<path d="M83.2,73.4c-0.1-0.8-0.2-1.6-0.3-2.3c0,0-0.1,0.1-0.3,0.2c-0.6-4.2,2.3-7,6.3-6.1c1.2,0.3,2.3,0.8,3.5,1.2
		c1.3,0.4,2.6,0.6,4,1l0,0c-0.6,0-1.2,0.1-1.8,0.1c1.8,1.5,3.6,2.9,5.3,4.3c-0.4,0-0.7-0.1-0.9-0.1c-0.4,1.4-0.7,2.9-1,4.2
		c2.2,0,2.6-0.3,2.7-2.7c0-0.2,0-0.4,0.1-0.6c0.4,0.3,0.9,0.6,1.3,0.8c-0.2,0.7-0.4,1.3-0.7,2.2c2.1-0.7,0.7-1.5,0.6-2.3
		c3.4,0,6.7,0,10.1,0c-1.7-1.1-3.5-1.9-5.3-2.8c-0.9-0.4-1.7-1-2.5-1.5l0,0c1.3,0.4,2.6,0.8,3.8,1.3c2.6,1.1,5.1,2.4,8,3.7
		c-0.6-0.7-0.9-1.1-1.3-1.6c1,0.6,2.1,1.2,3.1,1.8c-1.4,0.4-2.5,1.2-3.1,2.9c0.6,0.1,1.4,0.3,1.5,0.1c0.7-1,2.2-1.2,2.4-2.6
		c1.3,0.5,2.6,0.9,4,1.4l0,0c-1.7-0.4-3.3-0.3-4.5,1c-0.4,0.4-0.6,1.1-0.9,1.6l0.1,0c-1.9-0.7-3.8-1.4-5.7-2.1
		c-0.5-0.2-1.2-0.1-1.8-0.1c-0.2-0.3-0.4-0.6-0.6-1c0.5,0,0.7-0.1,0.9-0.1c0.6,0.2,1.3,0.3,1.9,0.5c1.6,0.5,1.6,0.5,2.7-1.3
		c-3.4-0.4-6.7-0.9-10-0.6c-0.5,0-1.1,0.5-1.2,0.9c-0.3,1-1.1,1.4-1.9,1.5c-1.2,0.1-1.6,0.7-1.5,1.8c0.5,0.4,1,0.9,1.5,1.3
		c-1.8-0.7-3.4,0-5,0.1c1.8,1.4,3.6,2.8,5.4,4.2c-0.3,1.4-0.6,2.8-0.9,4.2c2.1-0.5,2.1-0.5,2.2-2.6c0-0.2,0-0.4,0.1-0.6
		c1,0.7,2.1,1.4,3.2,2.1c0.6-0.8,1.2-1.8,1.9-2.9c-1.5,0-2.7-0.1-3.8,0c-0.4,0-0.8,0.5-1.2,0.7c-0.5-0.3-1-0.7-1.5-1
		c1.9-0.4,3.8-0.7,5.7-1.1c-0.4-0.3-0.8-0.7-1.2-1.1c1,0.2,2,0.5,3,0.7c0-0.3,0.1-0.5,0.1-0.7l0,0c1.2,0.5,2.4,0.9,3.7,1.4
		c-2.7,3.5-5.4,7-8.1,10.4c-0.3,0-0.6,0-0.9,0c-1.2-0.5-2.4-1-3.6-1.4c-1.6-0.5-3.1-1-2.6-3.2c-2.1-0.2-4-0.4-6-0.7
		c-3.8-0.5-5.5-3.6-4.1-7c0.9-2.2,2.7-3,5.3-2.6c1.5,0.2,3,0.3,4.7,0.4c0.1-1,0.1-1.7,0.1-2.6c-1.3,0-2.4,0-3.6,0
		c-2.4-0.1-4.8-0.2-7.2-0.5c-1.2-0.1-2.6-0.4-3.3-1.7l0.1-0.1c0.1-0.1,0.2-0.1,0.4-0.2C84.3,74,84.2,74,84,73.9l0,0
		c-0.2-0.2-0.3-0.3-0.5-0.5l0,0c-0.1-0.1-0.2-0.3-0.3-0.4C83.3,73.2,83.2,73.3,83.2,73.4L83.2,73.4z M87.1,66.4
		C87.1,66.4,87.1,66.4,87.1,66.4c-0.1,0-0.1-0.1-0.1-0.1c0,0-0.1,0-0.1,0C87,66.3,87,66.3,87.1,66.4z M85.3,66.9
		c-1.4,0.7-1.6,1.9-1.5,3.5c0.6-0.2,1.1-0.2,1.2-0.5C85.6,68.9,85.9,67.9,85.3,66.9l0.1-0.1L85.3,66.9z M108.2,86.6
		c-1.4,1.9-2.8,3.8-4.2,5.7c0.1,0.1,0.3,0.2,0.4,0.3c1.3-1.6,2.6-3.2,3.8-4.9C108.4,87.5,108.2,87,108.2,86.6c2-0.2,2.3-2,3.5-3.3
		c-0.5-0.1-0.9-0.3-1-0.3C109.8,84.2,109,85.4,108.2,86.6z M105.6,88.4c-1.9,0.2-3.9,0.5-6,0.8c0,0.6,0.1,1.2,0.1,1.8
		c1.2,0.4,2.2,0.7,3.3,1C103.9,90.8,104.7,89.6,105.6,88.4C105.6,88.4,105.6,88.4,105.6,88.4C105.6,88.4,105.6,88.4,105.6,88.4z
		 M88.7,83.2c1.5-0.6,2.5-1.3,2.6-2.7C89.6,80.1,89.3,80.4,88.7,83.2z M84.8,73.1c1.5-0.1,2.5-1.4,2.1-2.5c-0.1-0.2-0.3-0.4-0.4-0.4
		c-0.3,0.1-0.8,0.2-0.9,0.4C85.3,71.4,85.1,72.3,84.8,73.1z M90.9,82.8c-0.7,0.8-1.3,1.3-1.7,2c-0.2,0.2,0,0.8,0.2,1.1
		c0.1,0.1,0.7,0.1,0.9-0.1C91.2,85.1,91.7,84.3,90.9,82.8z M98.7,78.5c0.6-1.1,0.6-1.1,0-2C98.7,77.3,98.7,77.9,98.7,78.5z
		 M104.1,87.7c0.1,0,0.3,0.1,0.4,0.1c0.1-0.4,0.2-0.8,0.4-1.2c-0.1,0-0.3-0.1-0.4-0.1C104.4,86.9,104.3,87.3,104.1,87.7z"/>
	<path d="M116.1,80c-0.6,0.7-1.2,1.5-1.8,2.2l0,0c-1.6-0.6-3.3-1.1-4.9-1.7c-0.6-0.2-1.1-0.8-1.7,0l0,0c-0.7-0.2-1-0.5-0.7-1.5
		c1.3,0.4,2.6,0.8,4.1,1.3c0.3-0.7,0.6-1.4,1-2.1c0.6,0.3,1.2,0.6,1.8,0.9c-1,0.2-1.5,0.7-1.7,2c0.5-0.1,1,0,1.3-0.2
		c0.7-0.5,0.6-1.2,0.3-1.8C114.6,79.4,115.3,79.7,116.1,80L116.1,80z"/>
	<path d="M118.7,70.4c0.7,0.4,1.5,0.9,2.2,1.3l0,0c-0.3,0.3-0.6,0.6-0.9,0.9l0,0c-0.7-0.2-1.4-0.3-2-0.6c-1.8-0.7-3.6-1.4-5.4-2.2
		c-0.7-0.3-0.9,0.1-1,0.7c-0.9-0.3-1.2-0.9-0.6-2c2.7,1.1,5.3,2.1,8.1,3.3C119,71.1,118.9,70.7,118.7,70.4L118.7,70.4z"/>
	<path d="M120.1,68.6c-1.3-0.5-2.6-0.9-3.9-1.4c-0.7-0.3-0.9-0.1-0.9,0.6l0,0c-1-0.3-1.2-0.9-0.6-1.9
		C116.5,66.7,118.5,67.1,120.1,68.6L120.1,68.6z"/>
	<path d="M122.7,72.6c0.9-0.1,1.6,0.1,2.1,1l0-0.1c-0.6,0-1.4-0.2-1.3,0.9l0.1,0c-1.2-0.6-2.3-1.2-3.5-1.8l0,0
		c0.5,0.1,0.9,0.2,1.4,0.2C121.8,72.8,122.3,72.6,122.7,72.6L122.7,72.6z"/>
	<path d="M126.2,73.9c0.8,0,1.8-0.4,2.9,0.3C127.8,74.9,127,74.6,126.2,73.9L126.2,73.9z"/>
	<path d="M124.4,75.2c0.3,0.3,0.6,0.7,1.1,1.2c-1.2,0.2-2.1,0.5-2.8-0.3l0,0C123.2,75.7,124.4,76.5,124.4,75.2L124.4,75.2z"/>
	<path d="M117.8,79.2c0.2,0.3,0.3,0.7,0.7,1.5c-1.1-0.3-1.8-0.5-2.5-0.7l0,0C116.6,79.6,117.8,80.5,117.8,79.2L117.8,79.2z"/>
	<path d="M117.4,69.5c0.4,0.3,0.9,0.6,1.3,0.9l0,0C118,70.5,117.6,70.2,117.4,69.5L117.4,69.5z"/>
	<path d="M116.1,68.6c0.4,0.3,0.9,0.6,1.3,0.9l0,0C117,69.2,116.5,68.9,116.1,68.6L116.1,68.6z"/>
	<path d="M114.8,82.7c0.1,0.2,0.2,0.5,0.3,0.7c-0.1,0-0.2,0-0.4,0.1C114.8,83.2,114.8,82.9,114.8,82.7L114.8,82.7z"/>
	<path d="M126.2,73.8c-0.5-0.1-0.9-0.2-1.4-0.4l0,0.1C125.3,73.7,125.7,73.8,126.2,73.8L126.2,73.8z"/>
	<path d="M120.9,71.7c0.3,0.1,0.6,0.3,0.9,0.4l0,0C121.5,72,121.2,71.8,120.9,71.7L120.9,71.7z"/>
	<path d="M121.8,72.2c0.3,0.1,0.6,0.3,0.9,0.4c0,0,0,0,0,0C122.4,72.4,122.1,72.3,121.8,72.2L121.8,72.2z"/>
	<path d="M108.6,81.4c0.3,0.1,0.6,0.3,0.9,0.4c0,0,0,0,0,0C109.2,81.6,108.9,81.5,108.6,81.4L108.6,81.4z"/>
	<path d="M115.2,67.8c0.1,0.1,0.3,0.3,0.4,0.4l0,0C115.5,68,115.4,67.9,115.2,67.8L115.2,67.8z"/>
	<path d="M115.6,68.2c0.1,0.1,0.3,0.3,0.4,0.4c0,0,0,0,0,0C116,68.5,115.8,68.3,115.6,68.2L115.6,68.2z"/>
	<path d="M123.5,74.3c0.1,0.1,0.3,0.3,0.4,0.4l0.1,0C123.9,74.6,123.7,74.4,123.5,74.3L123.5,74.3z"/>
	<path d="M124,74.8c0.2,0.2,0.3,0.3,0.5,0.5l0,0C124.3,75,124.2,74.9,124,74.8L124,74.8z"/>
	<polygon points="126.6,72.1 126.7,72.2 126.6,72.1 	"/>
	<path d="M117.4,78.7c0.2,0.2,0.3,0.3,0.5,0.5l0-0.1C117.7,79,117.6,78.8,117.4,78.7L117.4,78.7z"/>
	<path d="M107.7,80.5c0.1,0.1,0.3,0.3,0.4,0.4l0,0C108.1,80.7,107.9,80.6,107.7,80.5L107.7,80.5z"/>
	<path d="M108.2,80.9c0.1,0.1,0.3,0.3,0.4,0.4c0,0,0,0,0,0C108.5,81.2,108.4,81,108.2,80.9L108.2,80.9z"/>
	<path d="M114.3,82.2c0.2,0.2,0.3,0.3,0.5,0.5l0,0C114.7,82.5,114.5,82.3,114.3,82.2L114.3,82.2z"/>
	<path d="M45.7,27.9c-1-1-2-2.1-3.1-3.1c0.1-0.1,0.2-0.2,0.2-0.2c1,1,2.1,2,3.1,3.1C45.9,27.7,45.8,27.8,45.7,27.9z"/>
	<path d="M42.3,24.4c-0.1-0.2-0.3-0.3-0.4-0.5c0.1-0.1,0.1-0.1,0.2-0.2c0.1,0.2,0.3,0.3,0.4,0.5C42.4,24.2,42.3,24.3,42.3,24.4z"/>
	<path d="M42.7,24.8c-0.1-0.2-0.3-0.3-0.4-0.5c0.1-0.1,0.1-0.1,0.2-0.2c0.1,0.1,0.3,0.3,0.4,0.4C42.8,24.7,42.7,24.8,42.7,24.8z"/>
	<path d="M46.2,28.3c-0.2-0.1-0.3-0.3-0.5-0.4c0.1-0.1,0.2-0.2,0.3-0.3c0.1,0.1,0.3,0.3,0.4,0.4C46.4,28.2,46.3,28.2,46.2,28.3z"/>
	<path d="M83.5,74c-0.1-0.2-0.2-0.4-0.3-0.5c0,0,0,0,0,0c0.2,0,0.3,0,0.5,0l0,0c0,0.1,0,0.3,0,0.4L83.5,74z"/>
	<path d="M84,74.4c-0.2-0.1-0.3-0.3-0.5-0.4l0.1-0.1c0.1,0,0.3,0,0.4,0l0,0C84,74,84.1,74.2,84,74.4L84,74.4z"/>
	<path d="M129.7,64.7c0-0.3,0.1-0.7,0-0.7c-3.2-1.1-6.4-2.2-9.7-3.2c-0.7-0.4-1.3-0.9-2-1.1c-4.8-1.8-9.7-3.6-14.5-5.3
		c-0.6-0.2-1.2-0.5-1.7-0.7c0-0.2,0.1-0.3,0.1-0.5c0.5,0.1,1.1,0.2,1.6,0.4c5.3,1.9,10.5,3.8,15.8,5.7c0.8,0.3,1.7,0.4,2.5,0.6l0,0
		c0.5,0.3,0.9,0.7,1.5,0.9c2.2,0.8,4.4,1.7,6.6,2.4c0.7,0.2,1.4,0.2,2.1,0.3l0,0c0.6,0.4,1.2,0.9,1.9,1.2c4,1.5,8,3,12.1,4.4
		c0.6,0.2,1.2,0.5,1.8,0.8c-0.1,0.2-0.1,0.3-0.2,0.5c-0.9-0.3-1.7-0.5-2.6-0.8c-4.1-1.5-8.2-3-12.3-4.5
		C131.6,64.5,130.7,64.3,129.7,64.7z"/>
	<path d="M54.3,25.7c-0.7,0.7-1.5,1.5-2.2,2.2c-0.1-0.1-0.1-0.1-0.2-0.2c0.7-0.7,1.5-1.5,2.2-2.2C54.2,25.6,54.2,25.6,54.3,25.7z"/>
	<path d="M68.6,36.9c0.6-0.6,1.2-1.1,1.8-1.7c0,0,0,0,0,0c-0.1,1.1-0.8,1.5-1.7,1.8C68.8,37.1,68.6,36.9,68.6,36.9z"/>
	<path d="M158.7,69.9c0.4-0.5,0.8-1,1.3-1.5C160,69.4,159.5,69.8,158.7,69.9L158.7,69.9z"/>
	<path d="M137.1,58.9c-0.2,1-0.7,1.6-1.7,1.7l0,0C136,60.1,136.6,59.6,137.1,58.9L137.1,58.9z"/>
	<path d="M107.7,41.9c0.8,0,1.6,0,2.4,0c0,0.1,0,0.3-0.1,0.4C109.3,42.2,108.5,42,107.7,41.9L107.7,41.9z"/>
	<path d="M113.9,44.9c0.5,0.5,0.9,0.9,1.4,1.4C114.3,46.2,113.9,45.7,113.9,44.9z"/>
	<path d="M127.9,65.6c0.6-0.3,1.2-0.6,1.8-0.9C129.1,64.9,128.5,65.3,127.9,65.6z"/>
	<path d="M82.7,39.6c0.3-0.4,0.6-0.9,0.9-1.3l0,0C83.3,38.8,83,39.2,82.7,39.6L82.7,39.6z"/>
	<path d="M59.5,19.5c0.6,0.2,1.1,0.3,1.7,0.5l0,0C60.7,19.7,60.1,19.6,59.5,19.5L59.5,19.5z"/>
	<path d="M44,20.7c0.3-0.4,0.6-0.8,1-1.2l0,0c-0.3,0.5-0.5,0.9-0.8,1.4C44.2,20.8,44,20.7,44,20.7z"/>
	<path d="M59.5,19.4c-0.6-0.1-1.2-0.2-1.9-0.4l0,0.1C58.3,18.9,59,18.7,59.5,19.4L59.5,19.4z"/>
	<path d="M80.6,41.9c-0.5,0.3-0.9,0.5-1.4,0.8l0,0c0.4-0.3,0.8-0.6,1.2-1C80.5,41.8,80.6,41.9,80.6,41.9z"/>
	<path d="M157,71.3c0.4-0.3,0.8-0.6,1.3-0.9c0,0,0,0,0,0C157.8,70.7,157.4,71,157,71.3C156.9,71.3,157,71.3,157,71.3z"/>
	<path d="M71.3,34.4c0.3-0.4,0.6-0.9,0.9-1.3c0,0,0,0,0,0C71.9,33.5,71.6,33.9,71.3,34.4C71.3,34.4,71.3,34.4,71.3,34.4z"/>
	<path d="M52.1,27.9c-0.5,0.3-0.9,0.5-1.4,0.8l0,0c0.4-0.3,0.8-0.7,1.2-1C52,27.8,52,27.8,52.1,27.9z"/>
	<path d="M134.5,61.6c-0.4,0.3-0.9,0.6-1.3,0.9l0,0C133.7,62.2,134.1,61.9,134.5,61.6C134.5,61.6,134.5,61.6,134.5,61.6z"/>
	<path d="M123,58.9c-0.4,0.3-0.9,0.6-1.3,0.9l0,0C122.2,59.6,122.7,59.3,123,58.9L123,58.9z"/>
	<path d="M54.1,25.5c0.3-0.4,0.7-0.8,1-1.2L55,24.3c-0.2,0.5-0.5,0.9-0.7,1.4C54.2,25.6,54.2,25.6,54.1,25.5z"/>
	<path d="M83.6,38.3c0.1-0.4,0.3-0.8,0.4-1.3C84.4,37.7,84.3,38.2,83.6,38.3L83.6,38.3z"/>
	<path d="M76.6,25.2c0.4,0.2,0.8,0.3,1.3,0.5l0-0.1C77.5,25.4,77,25.3,76.6,25.2L76.6,25.2z"/>
	<path d="M113,40.6c0.4,0.1,0.9,0.3,1.3,0.4l0,0C113.9,40.8,113.5,40.7,113,40.6L113,40.6z"/>
	<path d="M80.1,26.5c-0.4-0.1-0.9-0.3-1.3-0.4l0,0.1C79.2,26.2,79.6,26.4,80.1,26.5L80.1,26.5z"/>
	<path d="M75.2,23.8c-0.1,0.3-0.1,0.6-0.2,0.9c-0.2-0.1-0.4-0.3-0.6-0.4c0,0,0,0,0,0C74.7,24.1,75,24,75.2,23.8
		C75.3,23.8,75.2,23.8,75.2,23.8z"/>
	<path d="M61.2,19.9c0.4,0.2,0.8,0.3,1.3,0.5l0-0.1C62.1,20.2,61.6,20,61.2,19.9L61.2,19.9z"/>
	<path d="M82.3,27.3c-0.4-0.1-0.9-0.3-1.3-0.4l0,0.1C81.4,27.1,81.8,27.2,82.3,27.3L82.3,27.3z"/>
	<path d="M62.4,20.4c0.4,0,0.7,0,1.1-0.1c0,0.1,0,0.2-0.1,0.3C63.1,20.6,62.8,20.5,62.4,20.4L62.4,20.4z"/>
	<path d="M65.6,21.2c-0.4,0-0.8-0.1-1.2-0.1c0-0.1,0.1-0.2,0.1-0.3C64.9,20.9,65.2,21.1,65.6,21.2L65.6,21.2z"/>
	<path d="M118.3,61.6c-0.5,0.2-0.9,0.3-1.4,0.5C117.4,61.9,117.9,61.7,118.3,61.6z"/>
	<path d="M65.6,21.3c0.4,0.1,0.9,0.3,1.3,0.4l0-0.1C66.5,21.5,66,21.4,65.6,21.3L65.6,21.3z"/>
	<path d="M68.2,22.1c-0.4-0.1-0.9-0.3-1.3-0.4l0,0.1C67.3,21.9,67.7,22,68.2,22.1L68.2,22.1z"/>
	<path d="M84,28.3c0.5,0.1,0.9,0.3,1.4,0.4l0,0C85,28.5,84.5,28.4,84,28.3L84,28.3z"/>
	<path d="M69.5,22.5c-0.4-0.2-0.9-0.3-1.3-0.5l0,0.1C68.6,22.3,69,22.4,69.5,22.5L69.5,22.5z"/>
	<path d="M69.5,22.6c0.4,0.1,0.9,0.3,1.3,0.4l0-0.1C70.4,22.8,70,22.7,69.5,22.6L69.5,22.6z"/>
	<path d="M154.8,72.2c0.4-0.2,0.8-0.3,1.2-0.5l0,0C155.6,71.8,155.2,72,154.8,72.2L154.8,72.2z"/>
	<path d="M153.4,72.6c0.5-0.1,0.9-0.3,1.4-0.4l0,0C154.3,72.3,153.8,72.4,153.4,72.6L153.4,72.6z"/>
	<path d="M90.6,30.9c-0.4-0.1-0.9-0.3-1.3-0.4l-0.1,0.1C89.7,30.6,90.1,30.8,90.6,30.9L90.6,30.9z"/>
	<path d="M100.7,35.3c0.4,0.1,0.9,0.3,1.3,0.4l0,0C101.6,35.5,101.2,35.4,100.7,35.3L100.7,35.3z"/>
	<path d="M105.1,37c-0.4-0.1-0.9-0.3-1.3-0.4l0,0.1C104.2,36.7,104.7,36.9,105.1,37L105.1,37z"/>
	<path d="M111.3,39.6c-0.4-0.1-0.9-0.3-1.3-0.4l0,0.1C110.4,39.4,110.8,39.5,111.3,39.6L111.3,39.6z"/>
	<path d="M83.1,27.8c-0.3-0.2-0.6-0.3-0.8-0.5l0,0C82.5,27.5,82.8,27.7,83.1,27.8L83.1,27.8z"/>
	<path d="M120.1,60.7c-0.3,0.2-0.6,0.3-0.9,0.5C119.4,61,119.8,60.9,120.1,60.7z"/>
	<path d="M45,19.5c0.1-0.2,0.1-0.4,0.2-0.6c0,0,0.1,0.1,0.1,0.1C45.2,19.1,45.1,19.3,45,19.5L45,19.5z"/>
	<path d="M127,66c0.3-0.2,0.6-0.3,0.9-0.5C127.7,65.7,127.3,65.8,127,66z"/>
	<path d="M119.2,61.1c-0.3,0.2-0.6,0.3-0.9,0.5C118.6,61.5,118.9,61.3,119.2,61.1z"/>
	<path d="M112.2,40.1c0.3,0.2,0.6,0.3,0.8,0.5l0-0.1C112.8,40.4,112.5,40.2,112.2,40.1L112.2,40.1z"/>
	<path d="M70.8,23c0.2,0,0.4,0,0.1,0C71.2,23.2,71,23.1,70.8,23L70.8,23z"/>
	<path d="M72.4,23.6c0.1,0,0.2-0.1,0.3-0.1c0,0,0.1,0.1,0.1,0.1c-0.1,0-0.2,0.1-0.3,0.1C72.4,23.7,72.4,23.6,72.4,23.6z"/>
	<path d="M110,39.2c-0.3-0.2-0.6-0.3-0.9-0.5l0,0C109.4,38.9,109.6,39.1,110,39.2C109.9,39.2,110,39.2,110,39.2z"/>
	<path d="M74.5,24.2c-0.3,0-0.5-0.1-0.8-0.1c0-0.1,0.1-0.1,0.1-0.2C74,24.1,74.2,24.2,74.5,24.2L74.5,24.2z"/>
	<path d="M76.6,25.1c-0.2,0-0.4-0.1-0.1,0C76.3,24.9,76.4,25.1,76.6,25.1L76.6,25.1z"/>
	<path d="M112.2,40c-0.3-0.1-0.6-0.3-0.9-0.4l0,0C111.5,39.8,111.8,39.9,112.2,40L112.2,40z"/>
	<path d="M78.8,26c-0.3-0.1-0.6-0.3-0.9-0.4l0,0.1C78.1,25.8,78.5,25.9,78.8,26L78.8,26z"/>
	<path d="M80,26.5c0.3,0.1,0.6,0.3,0.9,0.4l0-0.1C80.7,26.8,80.4,26.6,80,26.5L80,26.5z"/>
	<polygon points="74.7,27.4 74.6,27.4 74.6,27.2 	"/>
	<path d="M106,37.5c-0.3-0.2-0.6-0.3-0.8-0.5l0,0C105.4,37.2,105.7,37.3,106,37.5L106,37.5z"/>
	<path d="M163,62.1c-0.2-0.1-0.4-0.1-0.5-0.2C162.6,61.9,162.8,62,163,62.1L163,62.1z"/>
	<path d="M83.1,27.9c0.3,0.1,0.6,0.3,0.9,0.4l0.1-0.1C83.7,28.1,83.4,28,83.1,27.9L83.1,27.9z"/>
	<path d="M124.5,58.1c0.3-0.1,0.6-0.3,0.9-0.4c0,0,0,0,0,0C125,57.8,124.7,57.9,124.5,58.1C124.4,58,124.5,58.1,124.5,58.1z"/>
	<path d="M50.7,28.7c-0.3,0.1-0.6,0.3-0.9,0.4c0,0,0,0,0,0C50.1,29,50.4,28.8,50.7,28.7C50.7,28.7,50.7,28.7,50.7,28.7z"/>
	<path d="M117,62c-0.3,0.2-0.6,0.3-0.9,0.5C116.4,62.3,116.7,62.2,117,62z"/>
	<path d="M163,62.1c0.3,0.1,0.6,0.3,0.9,0.4l0.1-0.1C163.6,62.3,163.3,62.2,163,62.1L163,62.1z"/>
	<path d="M73.7,29.9C73.7,29.9,73.8,30,73.7,29.9c0.1,0.1,0.1,0.2,0.1,0.2c0,0-0.1,0-0.1-0.1C73.7,30,73.7,30,73.7,29.9z"/>
	<path d="M115.3,41.4c-0.3-0.1-0.6-0.3-0.9-0.4l0,0C114.6,41.1,114.9,41.3,115.3,41.4L115.3,41.4z"/>
	<path d="M164.8,62.9c-0.3-0.1-0.6-0.3-0.9-0.4l-0.1,0.1C164.1,62.7,164.4,62.8,164.8,62.9L164.8,62.9z"/>
	<path d="M131.9,63.3c0.3-0.1,0.6-0.3,0.9-0.4l0,0C132.4,63,132.1,63.2,131.9,63.3L131.9,63.3z"/>
	<path d="M109.1,38.7c-0.3,0-0.5-0.1-0.8-0.1c0-0.1,0.1-0.2,0.1-0.3C108.6,38.5,108.9,38.6,109.1,38.7L109.1,38.7z"/>
	<path d="M106.8,37.9c0.2,0,0.5,0,0.7,0c0,0.1,0,0.2-0.1,0.2C107.3,38.1,107.1,38,106.8,37.9L106.8,37.9z"/>
	<path d="M105.9,37.5c0.3,0.1,0.6,0.3,0.9,0.4l0-0.1C106.6,37.7,106.3,37.6,105.9,37.5L105.9,37.5z"/>
	<path d="M174,70c0.1,0.3,0.3,0.6,0.4,0.9l0,0C174.3,70.6,174.2,70.3,174,70L174,70z"/>
	<path d="M103.8,36.6c-0.3-0.2-0.6-0.3-0.9-0.5l0,0C103.2,36.3,103.5,36.5,103.8,36.6C103.8,36.6,103.8,36.6,103.8,36.6z"/>
	<path d="M103,36.1c-0.3-0.1-0.6-0.3-0.9-0.4l0,0C102.3,35.9,102.6,36,103,36.1L103,36.1z"/>
	<path d="M156.9,71.3c-0.3,0.1-0.6,0.3-1,0.4l0,0C156.3,71.6,156.7,71.4,156.9,71.3L156.9,71.3z"/>
	<path d="M99.9,34.8c0.3,0.2,0.6,0.3,0.8,0.5l0-0.1C100.5,35.1,100.2,34.9,99.9,34.8L99.9,34.8z"/>
	<path d="M94.6,32.7c0.2,0,0.4,0,0.7,0c0,0.1-0.1,0.2-0.1,0.3C95,32.8,94.8,32.7,94.6,32.7L94.6,32.7z"/>
	<polygon points="85.1,35.3 85.2,35.2 85.1,35.4 	"/>
	<path d="M124,58.5c-0.3,0.1-0.6,0.3-0.9,0.4l0,0C123.4,58.8,123.7,58.7,124,58.5L124,58.5z"/>
	<path d="M99.9,34.8c-0.3,0-0.5-0.1-0.8-0.1c0-0.1,0.1-0.2,0.1-0.2C99.4,34.6,99.6,34.7,99.9,34.8L99.9,34.8z"/>
	<path d="M97.6,34c0.2,0,0.5,0,0.7,0c0,0.1-0.1,0.2-0.1,0.3C98,34.2,97.9,34,97.6,34L97.6,34z"/>
	<path d="M96.8,33.5c0.3,0.2,0.6,0.3,0.8,0.5l0-0.1C97.4,33.8,97.1,33.6,96.8,33.5L96.8,33.5z"/>
	<polygon points="85.6,33.9 85.6,34.1 85.5,34 	"/>
	<path d="M96.8,33.5c-0.3,0-0.5-0.1-0.8-0.1c0-0.1,0.1-0.2,0.1-0.2C96.3,33.3,96.6,33.4,96.8,33.5L96.8,33.5z"/>
	<path d="M94.6,32.6c-0.3-0.2-0.6-0.3-0.8-0.5l0,0C94,32.3,94.3,32.5,94.6,32.6C94.6,32.7,94.6,32.6,94.6,32.6z"/>
	<path d="M72.6,32.1c-0.1,0.3-0.3,0.6-0.4,0.9c0,0,0,0,0,0C72.3,32.8,72.5,32.5,72.6,32.1L72.6,32.1z"/>
	<path d="M93.8,32.1c-0.3,0-0.5-0.1-0.8-0.1c0-0.1,0.1-0.2,0.1-0.2C93.3,31.9,93.5,32.1,93.8,32.1L93.8,32.1z"/>
	<path d="M91.5,31.3c0.2,0,0.4,0,0.7,0c0,0.1-0.1,0.2-0.1,0.3C91.9,31.5,91.7,31.4,91.5,31.3L91.5,31.3z"/>
	<path d="M90.6,30.9c0.3,0.1,0.6,0.3,0.9,0.4l0-0.1C91.2,31.1,90.9,31,90.6,30.9L90.6,30.9z"/>
	<path d="M88.4,30c0.3,0.2,0.6,0.3,0.8,0.5l0.1-0.1C89,30.3,88.8,30.1,88.4,30L88.4,30z"/>
	<path d="M88.5,30c-0.3,0-0.5-0.1-0.8-0.1c0-0.1,0.1-0.2,0.1-0.3C88,29.7,88.2,29.9,88.5,30L88.5,30z"/>
	<path d="M134.5,61.6c0.1-0.1,0.3-0.3,0.4-0.4l0,0C134.8,61.3,134.6,61.4,134.5,61.6L134.5,61.6z"/>
	<path d="M133.2,62.4c-0.2,0.2-0.3,0.3-0.5,0.5l0,0C132.9,62.8,133.1,62.6,133.2,62.4L133.2,62.4z"/>
	<polygon points="164.7,63 164.9,63 164.8,62.9 	"/>
	<polygon points="167.8,64.7 167.8,64.6 167.8,64.7 	"/>
	<path d="M167.8,64.7c0,0,0.1,0.1,0.1,0.1C167.9,64.8,167.9,64.7,167.8,64.7L167.8,64.7z"/>
	<path d="M169.1,65.6c0-0.1-0.1-0.1-0.1-0.2C169,65.5,169.1,65.5,169.1,65.6L169.1,65.6z"/>
	<polygon points="169.1,65.6 169.2,65.6 169.1,65.6 	"/>
	<path d="M170.5,66.4C170.5,66.4,170.5,66.5,170.5,66.4L170.5,66.4z"/>
	<path d="M170.5,66.5c0.1,0.1,0.3,0.3,0.4,0.4l0.1,0C170.8,66.7,170.6,66.6,170.5,66.5L170.5,66.5z"/>
	<path d="M170.9,66.9c0.1,0.2,0.3,0.3,0.4,0.5l0.1,0C171.2,67.2,171.1,67,170.9,66.9L170.9,66.9z"/>
	<polygon points="171.3,67.4 171.4,67.4 171.3,67.4 	"/>
	<path d="M172.7,68.2L172.7,68.2L172.7,68.2z"/>
	<path d="M44.2,20.8c-0.1,0.2-0.3,0.3-0.4,0.5c-0.1-0.1-0.1-0.1-0.2-0.2c0.1-0.1,0.3-0.3,0.4-0.4L44.2,20.8z"/>
	<polygon points="172.7,68.2 172.8,68.2 172.7,68.2 	"/>
	<path d="M43.2,21.6c0.1-0.2,0.3-0.3,0.4-0.5c0.1,0.1,0.1,0.1,0.2,0.2C43.6,21.4,43.4,21.5,43.2,21.6L43.2,21.6z"/>
	<path d="M135.4,60.7c-0.2,0.2-0.3,0.3-0.5,0.5l0,0C135.1,61,135.3,60.9,135.4,60.7L135.4,60.7z"/>
	<polygon points="173.6,69.5 173.5,69.4 173.5,69.6 	"/>
	<polygon points="55.7,23.1 55.8,23.2 55.7,23.2 	"/>
	<path d="M173.5,69.6c0.2,0.1,0.3,0.3,0.5,0.4l0,0C173.9,69.8,173.7,69.7,173.5,69.6L173.5,69.6z"/>
	<path d="M158.2,70.4c0.2-0.2,0.3-0.3,0.5-0.5c0,0,0,0,0,0C158.5,70.1,158.4,70.2,158.2,70.4C158.2,70.4,158.2,70.4,158.2,70.4z"/>
	<path d="M55.1,24.3c0.1-0.1,0.1-0.2,0.1-0.2C55.2,24.1,55.1,24.2,55.1,24.3L55.1,24.3z"/>
	<path d="M81.1,41.5c-0.1,0.1-0.3,0.3-0.4,0.4c-0.1-0.1-0.1-0.1-0.2-0.2c0.1-0.1,0.3-0.3,0.4-0.4C80.9,41.4,81,41.4,81.1,41.5z"/>
	<path d="M80.9,41.3c0.1-0.1,0.3-0.3,0.4-0.4c0.1,0.1,0.1,0.1,0.2,0.2c-0.2,0.1-0.3,0.3-0.5,0.4C81,41.4,80.9,41.4,80.9,41.3z"/>
	<path d="M70.4,35.3c0.1-0.1,0.3-0.3,0.4-0.4c0,0,0,0,0,0C70.7,35,70.6,35.1,70.4,35.3C70.4,35.2,70.4,35.3,70.4,35.3z"/>
	<path d="M81.3,40.9c0.2-0.1,0.3-0.3,0.5-0.4l0.2,0.2c-0.1,0.1-0.3,0.3-0.4,0.4C81.4,41,81.4,40.9,81.3,40.9z"/>
	<path d="M70.9,34.8c0.1-0.1,0.3-0.3,0.4-0.4c0,0,0,0,0,0C71.2,34.5,71,34.7,70.9,34.8C70.9,34.8,70.9,34.8,70.9,34.8z"/>
	<polygon points="126.6,56.3 126.7,56.2 126.6,56.3 	"/>
	<path d="M126.6,56.3c-0.1,0.2-0.3,0.3-0.4,0.5l0,0C126.4,56.6,126.5,56.5,126.6,56.3L126.6,56.3z"/>
	<path d="M81.8,40.5c0.2-0.1,0.3-0.3,0.5-0.4l0.1,0.1c-0.1,0.2-0.3,0.3-0.4,0.5L81.8,40.5z"/>
	<path d="M125.8,57.2c0.1-0.1,0.3-0.3,0.4-0.4l0,0C126,56.9,125.9,57,125.8,57.2L125.8,57.2z"/>
	<path d="M125.3,57.7c0.1-0.2,0.3-0.3,0.4-0.5c0,0,0,0,0,0C125.6,57.3,125.4,57.5,125.3,57.7C125.3,57.6,125.3,57.7,125.3,57.7z"/>
	<path d="M82.7,39.6c-0.1,0.2-0.3,0.3-0.4,0.5L82.2,40C82.4,39.9,82.6,39.8,82.7,39.6L82.7,39.6z"/>
	<path d="M124,58.6c0.2-0.2,0.3-0.3,0.5-0.5l0,0C124.3,58.2,124.1,58.4,124,58.6L124,58.6z"/>
	<path d="M72.6,32.2c0.1-0.1,0.1-0.1,0.2-0.2c0,0,0,0.1-0.1,0.1C72.7,32.1,72.6,32.1,72.6,32.2L72.6,32.2z"/>
	<path d="M137.6,58.5L137.6,58.5L137.6,58.5z"/>
	<polygon points="73.3,31 73.3,31.1 73.2,31.1 	"/>
	<path d="M137.2,59c0.2-0.2,0.3-0.3,0.5-0.5l0,0C137.4,58.6,137.3,58.8,137.2,59L137.2,59z"/>
	<path d="M157.8,51c0.5,0.3,0.9,0.6,1.4,0.9C158.7,51.7,158.2,51.3,157.8,51z"/>
	<path d="M156.4,50.2c0.5,0.3,0.9,0.6,1.4,0.9C157.4,50.8,156.9,50.5,156.4,50.2z"/>
	<path d="M148.1,54.1c0.5,0.3,0.9,0.6,1.4,0.9C149,54.7,148.6,54.4,148.1,54.1z"/>
	<path d="M156,49.7c0.2,0.2,0.3,0.3,0.5,0.5C156.3,50,156.2,49.9,156,49.7z"/>
	<path d="M147.7,53.7c0.2,0.2,0.3,0.3,0.5,0.5C148,54,147.8,53.8,147.7,53.7z"/>
	<polygon points="132.4,46.6 132.3,46.6 132.4,46.6 	"/>
	<polygon points="120.9,49.3 121,49.2 120.9,49.3 	"/>
	<path d="M212.7,38.8c-0.8-0.6-1.5-1.2-2.3-1.8C211.6,37.1,212.2,37.8,212.7,38.8z"/>
	<path d="M213.1,39.2c-0.2-0.2-0.3-0.3-0.5-0.5C212.8,38.9,213,39.1,213.1,39.2z"/>
	<path d="M210.5,37c-0.2-0.2-0.3-0.3-0.5-0.5C210.2,36.7,210.3,36.9,210.5,37z"/>
	<path d="M210.1,36.6c-0.2-0.2-0.3-0.3-0.5-0.5C209.7,36.3,209.9,36.4,210.1,36.6z"/>
	<path d="M170.1,44.5c-0.8-0.5-1.5-0.9-2.3-1.4C168.6,43.6,169.4,44,170.1,44.5z"/>
	<path d="M172.3,45.8c-0.8-0.5-1.5-0.9-2.3-1.4C171,44.5,171.9,44.8,172.3,45.8z"/>
	<path d="M167.9,43.2c-0.3-0.2-0.6-0.3-1-0.5C167.3,42.9,167.6,43,167.9,43.2z"/>
	<polygon points="193.3,39.2 193.3,39.3 193.4,39.2 	"/>
	<path d="M190.3,54.6c0.3-0.7,0.6-1.4,0.9-2.1l-0.1,0c0.3,0.4,0.6,0.9,0.8,1.3l0-0.1C191.5,54,190.8,54.2,190.3,54.6L190.3,54.6z"/>
	<path d="M187.6,61.2c0.3,0.2,0.5,0.4,0.8,0.6c-0.5,0.3-0.9,0.4-1.2,0.6c0,0,0.1,0,0.1,0C187.4,62.1,187.5,61.6,187.6,61.2
		C187.7,61.2,187.6,61.2,187.6,61.2z"/>
	<path d="M191.2,52.5c0.1-0.5,0.3-0.9,0.4-1.4l-0.1-0.1C191.4,51.5,191.3,52,191.2,52.5L191.2,52.5z"/>
	<path d="M189,58.1c0.1-0.4,0.3-0.9,0.4-1.3l0,0C189.3,57.2,189.1,57.6,189,58.1L189,58.1z"/>
	<path d="M186.4,64.7c0.1-0.4,0.3-0.9,0.4-1.3l-0.1,0C186.6,63.8,186.5,64.2,186.4,64.7L186.4,64.7z"/>
	<path d="M190.2,54.5c0,0.2,0,0.5,0,0.7c-0.1,0-0.2-0.1-0.3-0.1C190.1,55,190.2,54.8,190.2,54.5L190.2,54.5z"/>
	<path d="M189.4,56.8c0-0.2,0-0.5,0-0.7c0.1,0,0.2,0.1,0.3,0.1C189.6,56.4,189.5,56.6,189.4,56.8C189.4,56.8,189.4,56.8,189.4,56.8z
		"/>
	<path d="M185.9,65.6c0.1-0.3,0.3-0.6,0.4-0.9c0,0-0.1,0-0.1,0C186.2,64.9,186,65.2,185.9,65.6L185.9,65.6z"/>
	<path d="M189.9,62.4c-0.2,0-0.5,0-0.7-0.1c0-0.1,0.1-0.2,0.1-0.3C189.5,62.2,189.7,62.3,189.9,62.4L189.9,62.4z"/>
	<path d="M188.5,58.9c0.2-0.3,0.3-0.5,0.5-0.8c0,0-0.1,0-0.1,0C188.8,58.3,188.6,58.6,188.5,58.9C188.5,58.9,188.5,58.9,188.5,58.9z
		"/>
	<path d="M191.6,51.1c0.1-0.2,0.1-0.4,0.2-0.5c0.1,0.1,0.1,0.1,0.2,0.2C191.9,50.8,191.7,50.9,191.6,51.1
		C191.6,51,191.6,51.1,191.6,51.1z"/>
	<path d="M187.2,62.4c-0.1,0.3-0.3,0.6-0.4,0.9c0,0,0.1,0,0.1,0C186.9,63.1,187.1,62.8,187.2,62.4C187.2,62.5,187.2,62.4,187.2,62.4
		z"/>
	<path d="M188.5,58.9c0,0.2,0,0.5,0,0.7c-0.1,0-0.2-0.1-0.3-0.1C188.3,59.3,188.4,59.1,188.5,58.9L188.5,58.9z"/>
	<path d="M187.7,61.2c0-0.2,0-0.5,0-0.7c0.1,0,0.2,0.1,0.3,0.1C187.9,60.8,187.8,61,187.7,61.2L187.7,61.2z"/>
	<path d="M113.4,71.7c0.5,0.3,0.9,0.6,1.4,0.9C114.3,72.3,113.9,72,113.4,71.7z"/>
	<path d="M112.1,70.8c0.5,0.3,0.9,0.6,1.4,0.9C113,71.4,112.6,71.1,112.1,70.8z"/>
	<path d="M111.7,70.3c0.2,0.2,0.3,0.3,0.5,0.5C112,70.7,111.8,70.5,111.7,70.3z"/>
	<path d="M161.3,39.7c0.4,0.1,0.9,0.3,1.3,0.4l0.1-0.1C162.2,39.9,161.8,39.7,161.3,39.7L161.3,39.7z"/>
	<path d="M162.6,44.9c-0.3-0.3-0.6-0.6-0.9-0.9C162,44.3,162.3,44.6,162.6,44.9z"/>
	<path d="M161.4,39.6c-0.3,0-0.5,0-0.8,0c0-0.1,0.1-0.2,0.1-0.3C160.9,39.4,161.1,39.5,161.4,39.6L161.4,39.6z"/>
	<path d="M164.9,41.3c-0.3-0.1-0.6-0.3-0.9-0.4l-0.1,0.1C164.2,41.1,164.5,41.3,164.9,41.3L164.9,41.3z"/>
	<path d="M163.1,45.4c-0.2-0.2-0.3-0.3-0.5-0.5C162.8,45.1,162.9,45.2,163.1,45.4z"/>
	<path d="M164,41c-0.1-0.1-0.2-0.1-0.2-0.2c0,0,0.1,0,0.1,0.1C163.9,40.9,163.9,40.9,164,41L164,41z"/>
	<path d="M162.6,40.1c0.1,0.1,0.2,0.1,0.2,0.1C162.8,40.2,162.7,40.1,162.6,40.1L162.6,40.1z"/>
	<path d="M170.1,57.2c1.1-0.4,2.6,0.4,3.2-1.3c0.1,0.1,0.2,0.2,0.3,0.3c-0.3,0.4-0.4,1.2-0.8,1.3C172,57.7,170.9,58.1,170.1,57.2
		L170.1,57.2z"/>
	<path d="M170.1,57.2c-0.6-0.1-1.2-0.3-1.8-0.4l0,0C168.9,56.9,169.5,57.1,170.1,57.2L170.1,57.2z"/>
	<path d="M163.1,54.2c-0.3-0.2-0.6-0.3-1-0.5C162.5,53.8,162.8,54,163.1,54.2z"/>
	<path d="M167.5,56.3c-0.3-0.2-0.6-0.3-0.9-0.5c0,0,0,0,0,0C166.8,56.1,167.1,56.2,167.5,56.3L167.5,56.3z"/>
	<path d="M167.4,56.4c0.3,0.2,0.6,0.3,0.9,0.5l0,0C168,56.6,167.7,56.5,167.4,56.4L167.4,56.4z"/>
	<polygon points="173,55.2 172.9,55.3 172.9,55.2 	"/>
	<path d="M213.4,67.5c0,0,0,0.1,0,0.1c-0.1,0-0.1,0-0.2,0c0,0,0-0.1,0-0.1C213.3,67.5,213.4,67.5,213.4,67.5z"/>
	<path d="M91.9,23c-0.3-0.1-0.6-0.3-0.9-0.4c0.3-0.3,0.2-1.2,1-0.7C92.4,22.1,92.8,22.7,91.9,23z"/>
	<path d="M78.7,17.2c-0.2-0.3-0.3-0.7-0.5-1.2C79.5,16.7,79.5,16.7,78.7,17.2L78.7,17.2z"/>
	<path d="M95.9,24.7c-0.1-0.3-0.2-0.7-0.4-1.3C96.7,24.2,96.7,24.2,95.9,24.7L95.9,24.7z"/>
	<path d="M66,12c0.3-0.2,0.6-0.3,0.9-0.5c0.2,0.2,0.5,0.4,0.7,0.6c-0.1,0.1-0.1,0.3-0.2,0.4C67,12.3,66.5,12.2,66,12z"/>
	<path d="M99,26c0.2-0.3,0.3-0.6,0.5-0.9c0.1,0.1,0.2,0.3,0.4,0.4C99.5,25.7,99.2,25.9,99,26C99,26,99,26,99,26z"/>
	<path d="M100.3,72.2c-0.2-0.2-0.3-0.3-0.5-0.5C100,71.8,100.1,72,100.3,72.2z"/>
	<path d="M100.8,72.6c-0.2-0.2-0.3-0.3-0.5-0.5C100.4,72.3,100.6,72.4,100.8,72.6z"/>
	<path d="M153.9,57.7c-0.8-0.5-1.5-0.9-2.3-1.4C152.4,56.8,153.1,57.2,153.9,57.7z"/>
	<path d="M211.3,40.6c0.1,0,0.1,0,0.2,0.1C211.5,40.6,211.4,40.6,211.3,40.6L211.3,40.6z"/>
	<path d="M211.4,40.5c-0.1-0.1-0.1-0.1-0.2-0.2c0,0,0.1,0,0.1,0.1C211.3,40.5,211.3,40.5,211.4,40.5L211.4,40.5z"/>
	<path d="M188.1,47.6c-0.3-0.2-0.6-0.3-1-0.5C187.5,47.2,187.8,47.4,188.1,47.6z"/>
	<polygon points="172.3,78.3 172.3,78.2 172.3,78.2 	"/>
	<path d="M171.9,78.7c0.1-0.1,0.3-0.3,0.4-0.4l0,0C172.1,78.4,172,78.5,171.9,78.7L171.9,78.7z"/>
	<path d="M171.3,79.1c0.2-0.1,0.4-0.3,0.5-0.4l0,0C171.7,78.8,171.5,78.9,171.3,79.1L171.3,79.1z"/>
	<polygon points="171.4,79 171.3,79.2 171.3,79.1 	"/>
	<path d="M147.7,37.4c0,0.2,0,0.3,0,0.5c0-0.1-0.1-0.2-0.1-0.4C147.6,37.5,147.7,37.5,147.7,37.4z"/>
	<path d="M106.5,81.8c-1.5-0.1-2.9-0.7-4-1.8C104,80.1,105.4,80.6,106.5,81.8z"/>
	<path d="M110.8,77.4c0.5,0.3,0.9,0.6,1.4,0.9C111.7,78,111.2,77.7,110.8,77.4z"/>
	<path d="M102.5,80.1c-0.3-0.2-0.6-0.3-0.9-0.5C101.9,79.7,102.2,79.9,102.5,80.1z"/>
	<path d="M109.9,76.5c0.2,0.2,0.3,0.3,0.5,0.5C110.2,76.8,110.1,76.7,109.9,76.5z"/>
	<path d="M110.4,76.9c0.2,0.2,0.3,0.3,0.5,0.5C110.7,77.3,110.5,77.1,110.4,76.9z"/>
	<path d="M118.8,74.8c-0.3-0.2-0.6-0.3-0.9-0.5C118.1,74.5,118.4,74.6,118.8,74.8z"/>
</g>
<path d="M266,152.1c1.2,0.6,2.2,1.1,3.2,1.5c0.3,0.1,0.7,0.1,1,0.1c-0.2-0.3-0.4-0.6-0.6-0.8c-1-0.5-1.9-1-2.9-1.4
	c-0.5-0.2-0.7-0.6-0.7-1.1c0-2.3,0-4.5,0-6.8c0-0.8,0.1-0.9,0.8-0.6c0.9,0.4,1.7,0.8,2.6,1.1c0.2,0.1,0.4,0,0.7,0
	c-0.1-0.2-0.2-0.5-0.3-0.6c-0.5-0.3-1-0.5-1.6-0.8c0,0,0-0.1,0-0.1c1.4-0.1,2.7-0.2,4.3-0.4c-0.3-0.3-0.5-0.5-0.7-0.6
	c-1.7-1.3-3.4-2.6-5.1-4c-0.3-0.2-0.6-0.6-0.7-0.9c-0.1-0.8,0-1.6,0-2.6c1.2,0.5,2.2,1,3.2,1.4c0.3,0.1,0.6,0,0.9,0.1
	c-0.2-0.3-0.3-0.6-0.6-0.7c-1-0.5-2-0.8-3-1.3c-0.3-0.1-0.6-0.5-0.6-0.8c-0.1-2.1,0-4.2,0-6.2c0-0.7,0.3-0.7,0.8-0.5
	c1,0.4,1.9,0.8,2.9,1.2c0.3,0.1,0.6,0,0.9,0c-0.2-0.2-0.3-0.5-0.6-0.6c-1.1-0.5-2.1-0.9-3.2-1.4c-0.6-0.2-0.8-0.6-0.8-1.2
	c0-2.1,0-4.3,0-6.4c0-0.2,0.1-0.5,0.1-0.9c1.2,0.4,2.3,0.9,3.4,1.2c0.2,0.1,0.5,0,0.8-0.1c-0.2-0.2-0.3-0.5-0.5-0.6
	c-1-0.4-2-0.8-3-1.2c-0.5-0.2-0.8-0.5-0.8-1.1c0-2.3,0-4.6,0-6.9c0-0.8,0.1-0.9,0.9-0.6c1,0.4,2,0.7,3,1.1c0.3,0.1,0.6,0,0.9-0.1
	c-0.2-0.2-0.4-0.5-0.6-0.6c-1.1-0.4-2.2-0.9-3.3-1.2c-0.7-0.2-0.9-0.6-0.9-1.3c0-3,0-6.1,0-9.1c0-0.3,0-0.6-0.1-0.8
	c-0.1-0.2-0.3-0.3-0.4-0.5c-0.1,0.2-0.3,0.3-0.3,0.5c-0.1,0.2,0,0.5,0,0.7c0,2.9,0,5.8,0,8.8c0,0.9-0.1,1-1,0.7
	c-2.3-0.8-4.7-1.7-7-2.5c-0.8-0.3-1.1-0.7-1.1-1.5c0-2.8,0-5.6,0-8.4c0-0.3-0.1-0.6-0.2-1c-0.1,0-0.2,0-0.3,0c0,0.3-0.1,0.7-0.1,1
	c0,2.7,0,5.4,0,8c0,1.1-0.1,1.2-1.1,0.8c-2.4-0.9-4.8-1.8-7.3-2.6c-0.7-0.2-0.9-0.6-0.9-1.3c0-2.5,0-5,0-7.5c0-0.2,0-0.5,0-0.7
	c0-0.1-0.2-0.2-0.3-0.4c-0.1,0.1-0.3,0.2-0.3,0.4c-0.1,0.2,0,0.5,0,0.7c0,2.3,0,4.6,0,6.9c0,1.2,0,1.3-1.2,0.9
	c-2.5-0.9-5-1.8-7.5-2.7c-0.7-0.2-0.9-0.6-0.9-1.3c0-2.4,0-4.8,0-7.2c0-0.4-0.2-0.8-0.4-1.2c-0.1,0.4-0.4,0.8-0.4,1.2
	c0,2.3,0,4.5,0,6.8c0,0.9-0.1,1-0.9,0.7c-2.7-1-5.4-2-8.1-2.9c-0.7-0.2-0.9-0.6-0.9-1.3c0-2.3,0-4.7,0-7c0-0.4-0.3-1.1-0.4-1.1
	c-0.7,0.1-0.4,0.7-0.4,1.1c0,2.2,0,4.4,0,6.7c0,0.8-0.1,0.9-0.9,0.6c-0.7-0.2-1.3-0.5-2-0.7c-0.3-0.1-0.5-0.2-0.6-0.4
	c-0.1,0-0.1-0.1-0.2-0.1c-0.3,0-0.5-0.1-0.8-0.2c0,0-0.1,0-0.1,0c-0.2,0-0.5-0.1-0.7-0.1c0,0-0.1,0-0.1-0.1
	c-1.1-0.4-2.1-0.8-3.2-1.2c-0.6-0.2-0.8-0.6-0.8-1.2c0-1.9,0-3.8,0-5.8c0-0.2,0-0.5,0-0.7c0-0.2-0.2-0.3-0.3-0.4
	c-0.1,0.2-0.3,0.3-0.3,0.5c-0.1,0.2,0,0.4,0,0.6c0,1.9,0,3.8,0,5.8c0,0.8-0.3,1.1-1.1,1.3c-2.4,0.4-4.7,1-7.1,1.5
	c-1.3,0.3-2.7,0.5-4.1,0.8c0-0.4-0.1-0.8-0.1-1.1c0-2.4,0-4.7,0-7.1c0-0.3,0-0.6-0.1-0.9c0-0.1-0.2-0.2-0.4-0.2
	c-0.1,0-0.2,0.2-0.2,0.3c0,0.2-0.1,0.5-0.1,0.7c0,2.3,0,4.5,0,6.8c0,1.6,0,1.6-1.6,1.9c-3.4,0.7-6.8,1.4-10.2,2.1
	c-1,0.2-1.1,0.2-1.1-0.8c0-2.5,0-5,0-7.5c0-0.3-0.1-0.6-0.2-0.9c-0.1,0-0.2,0-0.3,0c-0.1,0.3-0.2,0.7-0.2,1c0,2.6,0,5.2,0,7.8
	c0,0.5-0.1,0.9-0.7,1c-3.6,0.7-7.3,1.5-10.9,2.3c-0.7,0.2-1,0-0.9-0.8c0-2.5,0-5,0-7.5c0-0.3,0-0.6-0.1-0.8
	c-0.1-0.2-0.3-0.3-0.4-0.4c-0.1,0.2-0.3,0.3-0.3,0.5c-0.1,0.2,0,0.5,0,0.7c0,2.6,0,5.2,0,7.8c0,0.7-0.2,1-0.9,1.1
	c-3.5,0.7-7,1.4-10.6,2.2c-1,0.2-1,0.2-1-0.8c0-2.7,0-5.5,0-8.2c0-0.3,0-0.6,0-0.8c0-0.2-0.2-0.3-0.4-0.5c-0.1,0.2-0.3,0.3-0.4,0.5
	c-0.1,0.2,0,0.5,0,0.7c0,2.8,0,5.6,0,8.4c0,0.8-0.2,1.2-1.1,1.4c-3.3,0.6-6.5,1.3-9.8,2c-0.5,0.1-1,0.2-1.6,0.3
	c0-0.4-0.1-0.7-0.1-1.1c0-3.1,0-6.1,0-9.2c0-0.4-0.3-0.7-0.4-1.1c-0.1,0.4-0.4,0.7-0.4,1.1c0,3.1,0,6.3,0,9.4c0,0.8-0.3,1.1-1,1.2
	c-1.1,0.2-2.3,0.4-3.4,0.7c-0.2,0-0.4,0.3-0.5,0.5c0.2,0.1,0.5,0.3,0.7,0.2c1.1-0.4,1.9,0,2.7,0.8c0.3,0.3,0.7,0.5,1,0.8
	c0.3,0.3,0.5,0.7,0.6,1.1c0.1,1.3,0,2.7,0,4.1c0,0.6-0.2,0.9-0.8,1c-1.1,0.2-2.1,0.4-3.2,0.7c-0.2,0.1-0.4,0.3-0.6,0.5
	c0.3,0.1,0.6,0.3,0.8,0.2c1-0.2,2-0.4,3-0.7c0.6-0.2,0.8,0,0.8,0.7c0,2,0,4,0,6c0,0.6-0.3,0.9-0.9,1c-0.8,0.2-1.7,0.4-2.5,0.6
	c-0.3,0.1-0.5,0.3-0.8,0.4c0,0.1,0,0.2,0.1,0.3c0.3,0,0.6,0.1,0.9,0c0.8-0.2,1.6-0.3,2.4-0.6c0.7-0.2,0.8,0,0.8,0.6
	c0,1.9,0,3.8,0,5.7c0,0.5-0.2,0.8-0.7,0.9c-1.1,0.3-2.2,0.5-3.3,0.8c-0.2,0.1-0.4,0.3-0.6,0.5c0.3,0.1,0.6,0.3,0.8,0.2
	c1-0.2,2-0.4,2.9-0.7c0.7-0.2,0.9,0,0.9,0.7c0,2,0,4,0,5.9c0,0.7-0.3,1-0.9,1.1c-1,0.2-2.1,0.5-3.1,0.8c-0.3,0.1-0.5,0.4-0.7,0.5
	c0.3,0.1,0.6,0.2,0.8,0.2c1-0.2,1.9-0.5,2.8-0.7c0.9-0.2,1-0.2,1,0.8c0,1.9,0,3.7,0,5.6c0,0.8-0.3,1.1-1,1.3c-1,0.2-2,0.5-3.1,0.8
	c-0.2,0.1-0.4,0.4-0.6,0.5c0.3,0.1,0.5,0.2,0.8,0.2c1-0.2,2-0.5,3-0.8c0.6-0.2,0.9,0,0.9,0.7c0,2,0,4,0,5.9c0,0.5-0.2,0.8-0.7,1
	c-1.2,0.3-2.4,0.6-3.5,1c-0.2,0.1-0.4,0.4-0.5,0.5c0.2,0.1,0.5,0.2,0.7,0.1c1.2-0.3,2.4-0.6,3.5-1c0.6-0.2,1-0.1,1.5,0.2
	c2,1.4,4.1,2.7,6.2,4c0.9,0.6,1.7,1.1,2.8,1.8c-0.5,0.2-0.8,0.3-1.1,0.4c-1,0.3-2,0.6-2.9,0.9c-0.3,0.1-0.5,0.4-0.7,0.6
	c0.3,0,0.7,0.1,1,0.1c1.4-0.4,2.7-0.8,4-1.2c0.4-0.1,0.9,0,1.2,0.2c0.1,0.1,0.2,0.1,0.3,0.2c0.5,0,0.9,0,1.4,0
	c-0.2-0.2-0.5-0.3-0.7-0.5c-0.1-0.1-0.2-0.2-0.4-0.4c1-0.3,1.9-0.6,2.9-0.9c2.6-0.8,5.2-1.6,7.7-2.4c0.9-0.3,1.6-0.2,2.4,0.3
	c2.3,1.5,4.6,3,7,4.4c0.2,0.1,0.3,0.3,0.6,0.6c-1.7,0.5-3.2,1-4.7,1.5c0.3,0.2,0.6,0.4,0.8,0.6c1.4-0.4,2.8-0.9,4.2-1.3
	c0.4-0.1,1-0.1,1.3,0.1c2.7,1.7,5.3,3.4,8,5.1c0.1,0.1,0.3,0.1,0.4,0.2c0,0.1-0.1,0.2-0.1,0.3c-1.5,0.5-3,1-4.5,1.5
	c-1.9,0.6-3.8,1.2-5.6,1.9c0,0.3,0,0.6-0.1,0.8c0.1,0,0.2-0.1,0.3-0.1c3.3-1.1,6.6-2.2,9.9-3.3c1.1-0.4,2.6,0.1,3.2,1
	c0.2,0.1,0.3,0.2,0.4,0.3c0.3,0.2,0.5,0.3,0.7,0.5c0,0,0-0.1,0-0.1c1.8,1.1,3.5,2.2,5.4,3.4c-0.6,0.3-1.1,0.5-1.5,0.6
	c-3.3,1.2-6.6,2.3-9.9,3.4c-0.3,0.1-0.7,0.1-0.9-0.1c-2.6-1.7-5.2-3.4-7.8-5.1c-0.1,0.3-0.1,0.5-0.2,0.8c2.3,1.5,4.5,2.9,6.8,4.4
	c0.2,0.1,0.4,0.2,0.6,0.2c-0.1,0.1-0.2,0.2-0.2,0.3c-0.3,0.1-0.6,0.2-0.9,0.3c-2.1,0.7-4.1,1.4-6.2,2.2c-0.2,0.1-0.4,0.3-0.5,0.5
	c0.3,0.1,0.5,0.1,0.8,0.2c0.2,0,0.4-0.1,0.5-0.2c2.2-0.8,4.4-1.5,6.6-2.3c0.6-0.2,1.1-0.2,1.6,0.2c2.3,1.5,4.6,3,6.9,4.5
	c0.2,0.2,0.5,0.3,0.8,0.6c-0.6,0.2-1,0.4-1.5,0.6c-2.8,1-5.6,2-8.4,3c-0.4,0.1-0.7,0.4-1,0.6c0,0.1,0.1,0.2,0.1,0.3
	c0.4-0.1,0.8-0.1,1.1-0.2c3.3-1.2,6.5-2.3,9.8-3.5c0.6-0.2,1.1-0.1,1.6,0.2c1.2,0.8,2.5,1.6,3.7,2.4c0.2,0.1,0.6,0.1,0.9,0.1
	c-0.1-0.2-0.2-0.5-0.4-0.7c-1-0.7-2.1-1.4-3.2-2.1c-0.2-0.2-0.4-0.3-0.7-0.5c0.1-0.1,0.2-0.2,0.2-0.2c3.7-1.4,7.4-2.7,11.1-4
	c0.3-0.1,0.8,0,1,0.2c2.2,1.3,4.3,2.7,6.5,4.1c0.3,0.2,0.6,0.3,0.9,0.5c0.1,0,0.4,0,0.4-0.1c0.1-0.1,0-0.3-0.1-0.4
	c-0.1-0.1-0.3-0.3-0.4-0.4c-1.8-1.1-3.5-2.2-5.3-3.3c-0.5-0.3-0.9-0.6-1.5-1c0.4-0.2,0.6-0.3,0.9-0.4c3.6-1.3,7.2-2.6,10.8-3.9
	c0.4-0.1,1,0,1.4,0.2c1.6,0.9,3.1,1.9,4.7,2.8c0.3,0.2,0.7,0.1,1.1,0.2c-0.2-0.3-0.4-0.6-0.6-0.8c-1.1-0.7-2.2-1.4-3.3-2
	c-0.4-0.2-0.8-0.5-1.4-0.9c0.4-0.2,0.7-0.4,0.9-0.5c3.5-1.3,7-2.5,10.4-3.8c0.9-0.4,1.7-0.3,2.5,0.2c1.4,0.9,2.9,1.7,4.4,2.5
	c0.2,0.1,0.5,0,0.8,0c-0.1-0.2-0.2-0.5-0.4-0.7c-0.7-0.4-1.4-0.8-2.1-1.2c-0.9-0.5-1.8-1-2.8-1.6c0.3-0.2,0.5-0.3,0.6-0.3
	c3.6-1.3,7.3-2.6,10.9-4c0.9-0.3,1.5-0.2,2.3,0.2c1,0.6,2.1,1.2,3.2,1.7c0.2,0.1,0.5,0,0.7,0c-0.1-0.2-0.2-0.5-0.4-0.6
	c-0.4-0.3-0.9-0.5-1.3-0.8c-0.7-0.4-1.4-0.8-2.2-1.3c0.3-0.2,0.4-0.3,0.6-0.3c3.8-1.4,7.5-2.8,11.3-4.1c0.4-0.2,1.1-0.1,1.5,0.1
	c1.2,0.5,2.4,1.2,3.6,1.8c0.2,0.1,0.5,0,0.7,0c-0.1-0.2-0.2-0.5-0.4-0.6c-1-0.6-2-1-3-1.6c-0.3-0.2-0.5-0.5-0.5-0.8
	c0-2.3,0-4.6,0-6.9C266,152.8,266,152.5,266,152.1z M256.9,103.9c2.5,0.9,5.1,1.8,7.6,2.8c0.3,0.1,0.6,0.6,0.6,1
	c0.1,1.2,0,2.3,0,3.5c0,1.2,0,2.3,0,3.5c0,0.6-0.2,0.8-0.8,0.5c-2.5-1-5.1-2-7.6-3c-0.3-0.1-0.6-0.6-0.6-0.9c-0.1-2.3,0-4.6,0-6.9
	C256.1,103.7,256.4,103.7,256.9,103.9z M265.1,123.5c0,0.7-0.3,0.8-0.9,0.6c-2.6-1.1-5.1-2.1-7.7-3.2c-0.2-0.1-0.5-0.5-0.5-0.8
	c0-2.2,0-4.3,0-6.5c0-0.5,0.2-0.8,0.8-0.6c2.6,1,5.2,2,7.8,3.1c0.3,0.1,0.5,0.6,0.5,1c0.1,1.1,0,2.2,0,3.2
	C265.1,121.4,265.1,122.5,265.1,123.5z M246.2,101.1c0-0.9,0.2-1,1-0.7c2.5,0.9,5,1.8,7.5,2.8c0.3,0.1,0.6,0.5,0.6,0.7
	c0,2.5,0,4.9,0,7.4c0,0.1-0.1,0.1-0.2,0.4c-1.3-0.5-2.6-1-3.9-1.5c-1.5-0.6-2.9-1.2-4.4-1.7c-0.5-0.2-0.8-0.5-0.8-1.1
	C246.2,105.2,246.2,103.1,246.2,101.1z M255.4,119.8c0,0.1-0.1,0.2-0.2,0.5c-2.1-0.9-4.2-1.7-6.2-2.6c-0.7-0.3-1.5-0.6-2.1-0.9
	c-0.3-0.2-0.6-0.6-0.6-1c-0.1-2,0-4.1,0-6.1c0-0.6,0.3-0.8,0.8-0.5c2.6,1,5.1,2,7.7,3c0.3,0.1,0.7,0.6,0.7,0.8
	C255.4,115.3,255.4,117.6,255.4,119.8z M246.2,118.4c0-0.9,0.2-1,1-0.7c2.5,1,5,2.1,7.5,3.2c0.3,0.1,0.7,0.6,0.7,0.9
	c0.1,2.1,0,4.3,0,6.4c0,0.1-0.1,0.2-0.2,0.4c-0.4-0.3-0.8-0.5-1.1-0.8c-2.4-1.9-4.8-3.7-7.2-5.6c-0.5-0.4-0.8-0.8-0.8-1.5
	C246.2,120,246.2,119.2,246.2,118.4z M235.9,97c0-0.5,0.2-0.7,0.7-0.5c2.8,1,5.5,2,8.3,3.1c0.3,0.1,0.5,0.6,0.5,0.9
	c0.1,1.1,0,2.2,0,3.2c0,1.1,0,2.1,0,3.2c0,0.7-0.3,0.8-0.9,0.6c-2.7-1-5.3-2.1-8-3.1c-0.3-0.1-0.6-0.6-0.6-0.9
	C235.9,101.4,235.9,99.2,235.9,97z M245.5,109.4c0,2,0,4,0,6c0,0.7-0.2,0.8-0.8,0.5c-2.7-1.1-5.4-2.2-8.1-3.4
	c-0.3-0.1-0.6-0.5-0.6-0.7c0-2.2,0-4.3,0-6.5c0,0,0-0.1,0.1-0.3c1.2,0.5,2.4,0.9,3.6,1.4c1.7,0.7,3.4,1.3,5.1,2
	C245.3,108.5,245.5,108.8,245.5,109.4z M236.1,113.2c0.6,0.2,1.2,0.5,1.8,0.7c2.2,0.9,4.5,1.9,6.7,2.8c0.6,0.2,0.8,0.6,0.8,1.2
	c0,1,0,1.9-0.1,2.9c-3.3-2.4-6.4-4.7-9.5-7.3C236,113.5,236,113.4,236.1,113.2z M225.2,93.3c0-0.6,0.1-0.9,0.8-0.6
	c2.8,1,5.6,2,8.5,3.1c0.3,0.1,0.6,0.4,0.6,0.7c0,2.2,0,4.5,0,6.7c0,0.1,0,0.3-0.1,0.6c-0.7-0.3-1.3-0.5-1.9-0.7
	c-2.3-0.9-4.6-1.8-6.9-2.6c-0.7-0.3-1.1-0.7-1-1.5C225.3,97,225.2,95.2,225.2,93.3z M235.1,112c-1.4-0.6-2.6-1-3.6-1.7
	c-2-1.4-3.9-3-5.8-4.5c-0.2-0.2-0.4-0.6-0.5-0.9c-0.1-1.1,0-2.2,0-3.2c0-0.5,0.2-0.8,0.7-0.5c2.8,1.1,5.7,2.2,8.5,3.3
	c0.3,0.1,0.6,0.4,0.6,0.7C235.1,107.3,235.1,109.5,235.1,112z M215.9,89c1.1,0.4,2.1,0.8,3.2,1.2c0.1,0,0.1,0.1,0.2,0.1
	c0.5,0.1,1,0.2,1.4,0.5c0.1,0,0.3,0,0.5,0.1c0.9,0.3,1.8,0.6,2.7,1c0.3,0.1,0.6,0.6,0.6,0.9c0.1,1,0,2,0,3.1c0,1,0,2,0,3
	c0,0.6-0.2,0.8-0.8,0.5c-1.5-0.6-3-1.2-4.5-1.8c-0.2-0.1-0.4-0.2-0.4-0.3c-0.2,0-0.5-0.1-0.8-0.2c0,0-0.1,0-0.1,0
	c-0.4,0-0.7-0.1-0.9-0.3c-1.9-0.5-1.9-0.7-1.9-2.9c0-1.4,0-2.9,0-4.3C215,88.9,215.2,88.7,215.9,89z M215.4,97.1
	c0.3-0.1,1,0.2,1.4,0.5c0,0,0.1,0,0.1,0c0.2,0.1,0.4,0.2,0.6,0.2c0,0,0,0,0,0c0.3,0.1,0.6,0.2,0.8,0.3c0.2-0.1,0.5,0.2,0.7,0.2
	c1.6,0.6,3.1,1.2,4.7,1.8c0.2,0.1,0.6,0.4,0.6,0.6c0.1,1.2,0,2.4,0,3.6c-0.1,0-0.2,0.1-0.2,0.1c-1-0.8-2.1-1.6-3.1-2.4
	c-0.7-0.5-1.3-1.1-2-1.6c-0.5-0.3-0.9-0.6-1.4-0.9c-0.3-0.2-0.7-0.3-1-0.6c-0.2,0.1-0.4,0.1-0.7,0.2c-0.9,0.1-1-0.4-1.1-1.2
	C215,97.6,215.2,97.2,215.4,97.1z M202.8,91.1c3.4-0.7,6.9-1.4,10.3-2.1c1.1-0.2,1.2-0.2,1.2,0.9c0,1.8,0,3.6,0,5.3
	c0,0.6-0.2,0.8-0.7,1c-3.6,0.8-7.3,1.6-10.9,2.4c-0.2,0-0.4,0-0.6,0c0-0.3-0.1-0.5-0.1-0.7c0-1.9,0-3.8,0-5.7
	C202,91.5,202.2,91.2,202.8,91.1z M214.3,97.7c0,1.4-0.1,1.5-1.5,1.6c-3,0.1-6.1,0.3-9.1,0.5c-0.5,0-0.9,0-1.4,0c0-0.1,0-0.2,0-0.3
	c2.3-0.5,4.6-1,6.9-1.5c1.4-0.3,2.9-0.6,4.3-1C214.1,96.8,214.3,97,214.3,97.7z M189,93.9c3.8-0.8,7.6-1.6,11.4-2.3
	c0.5-0.1,0.7,0.1,0.7,0.6c0,1,0,2.1,0,3.1h0c0,1,0,1.9,0,2.9c0,0.6-0.2,0.8-0.8,1c-2.7,0.6-5.4,1.3-8.1,1.2c-1,0-1.9,0.1-2.9,0.1
	c-0.7,0-1-0.2-1-0.9c0-1.6,0-3.1,0-4.7C188.4,94.3,188.5,94,189,93.9z M175.9,96.7c3.7-0.7,7.3-1.5,11-2.3c0.6-0.1,0.9,0,0.8,0.7
	c0,0.8,0,1.6,0,2.4c0,0.8,0,1.6,0,2.4c0,0.5-0.2,0.8-0.8,0.8c-3.5,0.2-6.9,0.3-10.4,0.5c-1.4,0.1-1.4,0-1.4-1.4c0-0.7,0-1.4,0-2.1
	C175.2,97.1,175.4,96.8,175.9,96.7z M161.9,100.2c0.1-0.3,0.4-0.7,0.6-0.7c3.6-0.8,7.2-1.5,10.9-2.3c0.9-0.2,1-0.1,1,0.8
	c0,0.4,0,0.8,0,1.1c0,2.3,0.2,2-2,2.1c-3.3,0.1-6.5,0.3-9.8,0.5c-0.5,0-0.7-0.1-0.7-0.6C161.9,100.9,161.8,100.5,161.9,100.2z
	 M216,101.7l47.3,38.3l-60.5,1.7L153.3,105L216,101.7z M256.1,144.4c0-1.1,0.1-1.2,1.2-1.3c2.3-0.1,4.5-0.2,6.8-0.3c1,0,1.1,0,1.1,1
	c0,2,0,3.9,0,5.9c0,0.3,0,0.5-0.1,1c-0.9-0.4-1.6-0.7-2.3-1c-1.9-0.9-3.8-1.9-5.8-2.8c-0.8-0.3-1.1-0.8-1-1.6
	C256.1,145,256.1,144.7,256.1,144.4z M265.1,136.5c-2.6-2-5-3.9-7.4-5.8l0.1-0.1c2.3,1,4.6,2,6.9,3c0.2,0.1,0.4,0.3,0.4,0.5
	C265.2,134.8,265.1,135.5,265.1,136.5z M255.4,151L255.4,151c0,1.1,0,2.1,0,3.2c0,0.8-0.2,0.9-0.9,0.6c-2.6-1.3-5.2-2.6-7.8-4
	c-0.3-0.1-0.5-0.6-0.6-0.9c0-1.8,0-3.5,0-5.3c0-0.5,0.2-0.6,0.6-0.7c1.5-0.5,2.7,0.5,4,1c1.2,0.5,2.4,1.2,3.6,1.7
	c0.8,0.4,1.1,0.9,1.1,1.7C255.3,149.1,255.4,150,255.4,151z M177,128.3c-0.5,0.1-1.1,0.2-1.6,0.3l-0.2-1.7c0.1,0,0.2-0.1,0.3-0.1
	l1.6,1.3C177.1,128.1,177,128.2,177,128.3z M179.8,130.1c1.3,1.3,2.9,2.3,4.4,3.4c0.2,0.2,0.4,0.4,0.8,0.7c-1.4,0.4-2.6,0.7-3.8,1
	c-1.7,0.5-3.4,0.9-5.1,1.4c-0.6,0.2-0.9,0.1-0.9-0.6c0-1.9,0-3.8,0-5.7c0-0.5,0.2-0.7,0.7-0.9C177.3,128.9,178.5,128.9,179.8,130.1z
	 M175.2,139.7c0-2.4-0.3-1.9,2-2.6c2.6-0.7,5.2-1.4,7.8-2.1c1-0.3,2.6,0.8,2.6,1.9c0,1.4,0,2.7,0,4.1c0,0.3-0.3,0.7-0.5,0.8
	c-3.8,1.1-7.6,2.1-11.4,3.2c-0.1,0-0.3,0-0.5,0C175.2,143.1,175.2,141.4,175.2,139.7z M176.5,145.5c3.5-1,7.1-2,10.6-2.9
	c0.3-0.1,0.8,0,1.1,0.1c2.8,1.5,5.5,3.1,8.2,4.7c0.1,0,0.1,0.2,0.3,0.4c-1.7,0.5-3.2,1-4.8,1.5c-2.2,0.7-4.3,1.3-6.5,2
	c-0.3,0.1-0.8,0.1-1.1-0.1c-2.8-1.6-5.5-3.3-8.2-5c-0.1-0.1-0.2-0.1-0.4-0.3C176.1,145.7,176.3,145.5,176.5,145.5z M243.6,149.9
	c0.1,0,0.2,0.1,0.4,0.3c-0.3,0.1-0.6,0.2-0.8,0.3c-3.5,1.2-7.1,2.3-10.6,3.5c-0.6,0.2-1.2,0.2-1.8-0.2c-2.4-1.4-4.9-2.7-7.4-4.1
	c-0.2-0.1-0.3-0.2-0.7-0.4c0.4-0.2,0.6-0.3,0.9-0.4c3.5-1.1,7-2.2,10.5-3.3c0.4-0.1,1-0.1,1.5,0.1
	C238.3,147.2,240.9,148.6,243.6,149.9z M236,144.6c0-0.1,0.4-0.3,0.6-0.3c1.9-0.1,3.9-0.2,5.8-0.3c0.8,0,1.5-0.1,2.3-0.1
	c0.4,0,0.8,0,0.8,0.6c0,1.7,0,3.4,0,5c0,0.1-0.1,0.3-0.2,0.5c-0.2-0.1-0.4-0.2-0.6-0.3c-2.6-1.4-5.3-2.7-7.9-4.1
	c-0.1-0.1-0.3-0.1-0.4-0.2C236.2,145.1,236,144.9,236,144.6z M230.6,154.7c-0.4,0.2-0.7,0.3-0.9,0.4c-3.5,1.2-7.1,2.4-10.6,3.6
	c-0.6,0.2-1.1,0.2-1.7-0.2c-2.4-1.4-4.7-2.7-7.1-4.1c-0.3-0.2-0.6-0.4-1.1-0.7c0.6-0.2,1.1-0.4,1.5-0.5c3.4-1.1,6.7-2.1,10.1-3.2
	c0.6-0.2,1.1-0.1,1.7,0.2c2.5,1.4,5,2.7,7.5,4.1C230,154.4,230.2,154.5,230.6,154.7z M233.7,145.1c-1.1,0.4-2.2,0.7-3.4,1.1
	c-2.6,0.8-5.2,1.6-7.7,2.4c-0.4,0.1-1,0.2-1.3,0c-1.9-1-3.8-2-5.9-3.2c0.5-0.1,0.8-0.2,1.1-0.2c2.7-0.1,5.3-0.2,8-0.4
	c2.6-0.1,5.2-0.3,7.8-0.4c0.5,0,1,0.2,1.5,0.3L233.7,145.1z M220,148.9c0.1,0.1,0.2,0.2,0.5,0.4c-1.8,0.6-3.3,1.1-4.9,1.6
	c-2.2,0.7-4.5,1.4-6.7,2.1c-0.6,0.2-1,0.1-1.5-0.2c-1.8-1.1-3.7-2.1-5.5-3.2c-0.1-0.1-0.3-0.2-0.4-0.3c-0.6-0.2-1.1-0.8-1.7-1.2
	c-0.1,0-0.1-0.1-0.1-0.2c0-0.1,0-0.2,0.1-0.2c0.8-0.1,1.5-0.3,2.1-0.7c0.1-0.1,0.1,0,0.2,0c0,0,0,0,0,0c2.1-0.7,4.2-1.1,6.4-1.2
	c1.4,0,2.8-0.2,4.1-0.1c0.7,0,1.5,0.2,2.2,0.5C216.6,147,218.3,147.9,220,148.9z M196.8,146.7c-2.3-1.5-4.8-2.8-7.2-4.2
	c-0.2-0.1-0.3-0.2-0.7-0.4c0.8-0.2,1.5-0.4,2.1-0.6c1.6-0.7,2.9-0.5,4.2,0.7c1.7,1.5,3.5,2.8,5.5,4.3
	C199.4,146.9,198.3,147.7,196.8,146.7z M191.2,140.6c-0.7,0.2-1.4,0.4-2.2,0.6c-0.2,0-0.6-0.2-0.6-0.3c0-1.3,0-2.5,0-4.1
	c1.5,1.2,2.8,2.1,4.3,3.3C192,140.4,191.6,140.5,191.2,140.6z M187.2,151.5c3.2-1,6.5-1.9,9.7-3c1.2-0.4,1.9,0.1,2.7,0.7
	c0,0,0.1,0.1,0.1,0.1c0.2,0.1,0.5,0.2,0.7,0.4c0.1,0.1,0.2,0.2,0.3,0.2c0,0,0-0.1,0-0.1c2.1,1.2,4.1,2.4,6.1,3.5c0,0.1,0,0.2,0,0.3
	c-2.6,0.8-5.2,1.6-8,2.5c0,0,0-0.1,0-0.1c-0.1,0.1-0.3,0.1-0.4,0.1c-0.1,0-0.1,0.1-0.2,0.1c0,0-0.1,0-0.1,0
	c-0.2,0.1-0.3,0.2-0.5,0.2c-0.1,0-0.1,0-0.2,0c-0.1,0.1-0.3,0.2-0.5,0.3c-1.5,0.7-2.9,0.5-4.3-0.5c-1.8-1.3-3.8-2.3-5.7-3.5
	c-0.3-0.2-0.6-0.4-1.1-0.8C186.4,151.7,186.8,151.6,187.2,151.5z M197.2,157.4c0.4-0.4,1.4-0.5,1.9-0.5c0.3-0.2,0.6-0.3,0.9-0.4
	c2.4-0.7,4.8-1.5,7.3-2.3c0.4-0.1,1-0.1,1.3,0.1c2.7,1.5,5.3,3,8,4.5c0.1,0.1,0.3,0.2,0.6,0.4c-0.5,0.2-0.7,0.3-1,0.4
	c-3.5,1.2-7.1,2.4-10.6,3.5c-0.6,0.2-1,0.1-1.5-0.2c-1.7-1.1-3.4-2.1-5.2-3.1c-0.1-0.1-0.2-0.1-0.3-0.2c0,0,0,0,0,0
	c-0.6-0.1-1.1-0.5-1.3-1c0,0,0,0-0.1,0c0,0.1,0,0.1,0,0.2c-0.5-0.3-0.8-0.5-1.4-0.9C196.2,157.7,196.6,157.6,197.2,157.4z
	 M206.4,163.6c3.6-1.2,7.2-2.4,10.8-3.6c0.4-0.1,1-0.1,1.4,0.1c2.7,1.5,5.3,3,7.9,4.5c0,0,0.1,0.1,0.2,0.2c-0.3,0.1-0.5,0.3-0.8,0.4
	c-3.7,1.3-7.4,2.6-11.1,3.9c-0.3,0.1-0.7,0.1-0.9,0c-2.7-1.6-5.3-3.2-8-4.8c-0.1,0-0.1-0.2-0.3-0.3
	C206,163.8,206.2,163.7,206.4,163.6z M220.1,160c-0.2-0.1-0.5-0.3-0.9-0.6c1.2-0.4,2.2-0.8,3.2-1.1c2.8-0.9,5.6-1.9,8.5-2.8
	c0.4-0.1,0.9-0.2,1.2,0c2.7,1.4,5.5,3,8.3,4.5c-0.3,0.2-0.5,0.3-0.7,0.3c-3.6,1.3-7.3,2.5-10.9,3.8c-0.6,0.2-1.1,0.2-1.7-0.2
	C224.8,162.7,222.4,161.4,220.1,160z M233.3,155.3c-0.1-0.1-0.3-0.2-0.6-0.4c1.2-0.4,2.3-0.8,3.3-1.1c2.7-0.9,5.4-1.8,8.2-2.7
	c0.7-0.2,1.3-0.2,1.9,0.2c2.2,1.2,4.5,2.3,6.8,3.5c0.4,0.2,0.7,0.4,1.2,0.7c-0.7,0.3-1.3,0.5-1.9,0.7c-3.3,1.1-6.5,2.3-9.8,3.4
	c-0.6,0.2-1.1,0.2-1.7-0.2C238.2,157.9,235.7,156.6,233.3,155.3z M255.4,146.1c-1.8-0.8-3.3-1.6-4.9-2.3c0-0.1,0-0.1,0-0.2
	c0.1,0,0.2-0.1,0.4-0.1c1.2-0.1,2.4-0.1,3.6-0.2c0.6,0,0.8,0.2,0.8,0.8C255.4,144.7,255.4,145.3,255.4,146.1z M174.4,144.4
	c0,0.6-0.2,0.9-0.8,1c-3.6,1-7.3,2-10.9,3c-0.6,0.2-0.8,0-0.8-0.6c0-2,0-4,0-6c0-0.5,0.2-0.7,0.7-0.9c3.7-1,7.4-2,11-3
	c0.6-0.2,0.8,0,0.8,0.6c0,1,0,1.9,0,2.9C174.4,142.5,174.4,143.5,174.4,144.4z M173.6,137.3c-3.5,0.9-6.9,1.9-10.4,2.8
	c-1.2,0.3-1.2,0.3-1.2-0.9c0-1.8,0-3.6,0-5.4c0-0.5,0.2-0.8,0.7-1c3.7-0.9,7.3-1.9,11-2.8c0.2-0.1,0.4-0.1,0.7-0.1
	c0,0.3,0.1,0.6,0.1,0.8c0,1.8,0,3.6,0,5.4C174.4,136.8,174.2,137.2,173.6,137.3z M161.9,117.4c0-0.5,0.2-1,0.7-0.5
	c2.2,1.6,4.3,3.3,6.6,5c-0.3,0.2-0.5,0.3-0.7,0.3c-1.9,0.5-3.8,0.9-5.7,1.4c-0.7,0.2-0.9-0.1-0.9-0.7
	C161.9,121.1,161.9,119.3,161.9,117.4z M162.7,124.4c2.3-0.5,4.6-1.1,6.9-1.6c0.3-0.1,0.8,0.1,1.1,0.3c1.1,0.8,2,1.6,3.1,2.4
	c0.5,0.4,0.7,0.8,0.7,1.4c-0.1,2.7,0.3,2.1-2.1,2.7c-3.1,0.8-6.2,1.6-9.4,2.4c-0.3,0.1-0.6,0.1-1.1,0.2c0-0.9,0-1.7,0-2.4
	c0-1.4,0-2.8,0-4.2C161.9,124.9,162.1,124.6,162.7,124.4z M148.6,120.7c0-0.6,0.2-0.9,0.8-1c3.6-0.8,7.3-1.7,10.9-2.5
	c0.6-0.1,0.8,0,0.8,0.7c0,1.8,0,3.7,0,5.5c0,0.5-0.2,0.8-0.7,1c-3.6,0.9-7.1,1.7-10.7,2.6c-1,0.2-1,0.2-1-0.8c0-0.9,0-1.8,0-2.7
	C148.6,122.5,148.6,121.6,148.6,120.7z M149.3,127.7c3.7-0.9,7.4-1.8,11-2.7c0.5-0.1,0.8,0.1,0.8,0.6c0,2.1,0,4.1,0,6.2
	c0,0.3-0.3,0.5-0.5,0.8c-0.1,0.1-0.3,0.1-0.5,0.1c-3.5,0.9-6.9,1.8-10.4,2.6c-1,0.2-1.1,0.2-1.1-0.9c0-0.9,0-1.9,0-2.8c0-1,0-2,0-3
	C148.6,128.1,148.8,127.8,149.3,127.7z M149.2,136.2c3.8-0.9,7.5-1.9,11.3-2.9c0.1,0,0.2,0,0.5,0c0,0.7,0,1.3,0,2c0,1.5,0,3,0,4.5
	c0,0.6-0.2,0.9-0.8,1.1c-3.5,0.9-7.1,1.9-10.6,2.8c-1.1,0.3-1.1,0.2-1.1-0.8c0-1.9,0-3.7,0-5.6C148.6,136.7,148.7,136.4,149.2,136.2
	z M152.5,101.5c2.6-0.5,5.1-1.1,7.7-1.6c0.4-0.1,0.9-0.2,0.9,0.5c0.1,1.1,0,1.4-0.7,1.5c-2.5,0.1-5,0.2-7.4,0.3
	c-1.3,0.1-2.7,0.2-4,0.3l0-0.2C150,102,151.3,101.8,152.5,101.5z M148.6,106.3l0.2-0.1c1.4,1.1,2.8,2.2,4.2,3.3l-0.1,0.2
	c-1.3,0.3-2.6,0.6-3.9,0.9c-0.1,0-0.4-0.2-0.4-0.3C148.6,108.9,148.6,107.6,148.6,106.3z M149.4,111.2c1.3-0.3,2.6-0.6,3.9-0.8
	c0.4-0.1,1,0.1,1.4,0.3c1.9,1.4,3.7,2.9,5.6,4.3c0.1,0.1,0.3,0.2,0.4,0.3c0.1,0.2,0.3,0.5,0.3,0.6c-0.1,0.2-0.4,0.3-0.6,0.3
	c-1.7,0.4-3.3,0.8-5,1.2c-1.9,0.5-3.8,0.9-5.8,1.4c-1,0.2-1,0.2-1-0.8c0-0.9,0-1.9,0-2.8c0-1,0-1.9,0-2.9
	C148.5,111.7,148.8,111.4,149.4,111.2z M148.7,152.3c0-0.3-0.1-0.6-0.1-0.8c0-1.9,0-3.9,0-5.8c0-0.6,0.2-0.9,0.8-1.1
	c3.6-1,7.3-1.9,10.9-2.9c0.7-0.2,0.8,0.1,0.8,0.7c0,1.9,0,3.9,0,5.8c0,0.5-0.2,0.8-0.7,1c-3.6,1-7.2,2-10.9,3
	C149.2,152.2,149,152.2,148.7,152.3z M169.6,156c-3.4,1-6.8,2.1-10.2,3.1c-0.4,0.1-1,0.1-1.3-0.2c-2.7-1.7-5.3-3.4-8-5.2
	c-0.3-0.2-0.5-0.4-0.9-0.6c0.3-0.1,0.5-0.2,0.7-0.3c3.5-1,7-2,10.6-2.9c0.4-0.1,1-0.1,1.4,0.1c2.7,1.7,5.4,3.4,8.1,5.1
	c0.2,0.1,0.3,0.2,0.6,0.5C170.1,155.8,169.9,155.9,169.6,156z M172.4,155.1c-0.4,0.1-0.9,0.1-1.3-0.2c-2.7-1.7-5.4-3.4-8-5.1
	c-0.2-0.1-0.3-0.3-0.7-0.6c1.5-0.4,2.7-0.8,4-1.1c2.4-0.7,4.9-1.4,7.4-2c0.4-0.1,0.9-0.1,1.3,0.1c2.6,1.5,5.2,3.2,7.8,4.7
	c0.2,0.1,0.4,0.3,0.7,0.5c-0.3,0.2-0.5,0.3-0.7,0.3C179.4,153,175.9,154.1,172.4,155.1z M180.9,161.2c-2.6-1.6-5.1-3.2-7.7-4.9
	c-0.1-0.1-0.2-0.2-0.5-0.4c0.4-0.2,0.7-0.3,0.9-0.4c3.5-1.1,7-2.1,10.5-3.2c0.3-0.1,0.7-0.1,0.9,0.1c2.6,1.6,5.2,3.1,7.8,4.7
	c0.2,0.1,0.3,0.3,0.6,0.5c-0.4,0.1-0.6,0.3-0.9,0.4c-3.5,1.1-7,2.2-10.5,3.3C181.7,161.4,181.2,161.4,180.9,161.2z M189,166.4
	c-1.8-1.4-3.9-2.5-5.8-3.7c-0.2-0.2-0.5-0.3-0.9-0.6c2.3-0.7,4.4-1.4,6.5-2.1c1.6-0.5,3.3-1,4.9-1.5c0.6-0.2,2.5,0.5,2.8,1.1
	c0,0.1,0,0.1,0,0.2c0.4,0.1,0.7,0.3,0.9,0.7c0.1-0.2,0.3-0.2,0.6-0.1c1.7,1,3.4,2.1,5.1,3.1c0.1,0,0.1,0.1,0.2,0.3
	c-2.5,0.8-5,1.7-7.5,2.5c0,0,0-0.1,0-0.1c-0.2,0.1-0.5,0.2-0.7,0.2c-0.1,0-0.2,0.1-0.3,0.1c-0.2,0.1-0.3,0.1-0.5,0.1
	c-0.2,0.2-0.4,0.3-0.7,0.4C192,167.9,190.6,167.5,189,166.4z M195.3,170.3c-0.3-0.2-0.4-0.3-0.4-0.5c-0.5-0.3-1-0.5-1.4-0.8
	c-0.3-0.2-0.6-0.3-0.9-0.5c0-0.1,0-0.2,0.1-0.3l1.6-0.5c0.1,0,0.1,0.1,0.2,0.1c0.6-0.2,1.1-0.5,1.7-0.6c0.4-0.3,0.8-0.4,1.4-0.6
	c2.1-0.5,4.1-1.3,6.1-2c0.7-0.3,1.3-0.2,2,0.2c2.3,1.5,4.7,2.9,7,4.3c0.2,0.1,0.3,0.2,0.7,0.5c-1.2,0.4-2.1,0.8-3.1,1.1
	c-2.8,1-5.5,1.9-8.3,2.9c-0.6,0.2-1.1,0.2-1.7-0.2C198.5,172.3,197,171.3,195.3,170.3z M208.5,180.5c-3.5,1.3-7,2.5-10.4,3.8
	c-0.3,0.1-0.8,0.1-1,0c-2.6-1.6-5.1-3.3-7.7-5c-0.1-0.1-0.3-0.1-0.4-0.2c0-0.1,0.1-0.2,0.1-0.2c0.6-0.2,1.3-0.5,1.9-0.7
	c3-1.1,6.1-2.1,9.1-3.1c0.4-0.1,1-0.1,1.4,0.1c2.5,1.5,4.9,3.1,7.4,4.7c0.1,0.1,0.2,0.2,0.4,0.4
	C208.9,180.3,208.7,180.4,208.5,180.5z M219.7,176.4c-2.9,1.1-5.8,2.1-8.7,3.1c-0.3,0.1-0.8,0.1-1.1,0c-2.5-1.5-5-3.1-7.5-4.7
	c-0.1-0.1-0.2-0.2-0.5-0.4c1.9-0.7,3.7-1.3,5.5-1.9c2.1-0.7,4.1-1.4,6.2-2.1c0.3-0.1,0.7-0.1,0.9,0c2.6,1.6,5.2,3.2,7.8,4.8
	c0.1,0,0.1,0.1,0.2,0.3C221.5,175.7,220.6,176.1,219.7,176.4z M234.3,171.1c-3.3,1.2-6.7,2.4-10,3.6c-0.3,0.1-0.8,0.1-1.1-0.1
	c-2.6-1.5-5.1-3.1-7.7-4.6c-0.1,0-0.1-0.1-0.3-0.3c1.1-0.4,2-0.7,3-1.1c2.9-1,5.9-2.1,8.8-3c0.4-0.1,0.9-0.1,1.3,0.1
	c2.6,1.4,5.1,2.9,7.6,4.3c0.1,0.1,0.2,0.1,0.4,0.3C235.6,170.6,234.9,170.9,234.3,171.1z M247,166.5c-2.9,1.1-5.9,2.2-8.9,3.2
	c-0.4,0.1-1,0.1-1.3,0c-2.4-1.3-4.8-2.7-7.3-4.1c-0.2-0.1-0.3-0.2-0.6-0.5c0.4-0.2,0.7-0.3,1-0.5c3.6-1.3,7.3-2.5,10.9-3.8
	c0.3-0.1,0.7-0.1,0.9,0c2.6,1.4,5.3,2.9,7.9,4.3c0.1,0,0.1,0.1,0.2,0.3C248.9,165.8,248,166.1,247,166.5z M261.8,161.1
	c-3.3,1.2-6.6,2.4-9.9,3.6c-0.4,0.1-1,0.2-1.4,0c-2.5-1.3-4.9-2.7-7.4-4c-0.1-0.1-0.2-0.2-0.5-0.4c0.8-0.3,1.6-0.6,2.3-0.9
	c3.1-1.1,6.1-2.1,9.2-3.2c0.6-0.2,1.2-0.2,1.8,0.1c2.4,1.2,4.8,2.4,7.1,3.7c0.2,0.1,0.3,0.2,0.7,0.4
	C263,160.7,262.4,160.9,261.8,161.1z M265.1,159.1c0,0.8-0.2,0.9-0.9,0.6c-2.4-1.2-4.9-2.5-7.3-3.7c-0.6-0.3-0.9-0.8-0.9-1.5
	c0-2.1,0-4.1,0-6.2c0-0.3,0-0.5,0.1-1c1.3,0.6,2.3,1.1,3.4,1.7c1.6,0.8,3.3,1.6,4.9,2.4c0.5,0.2,0.7,0.5,0.7,1.1
	C265.1,154.6,265.2,156.9,265.1,159.1z M265.1,131.9c0,0.3,0,0.5-0.1,0.9c-1.2-0.5-2.3-1-3.5-1.4c-1.6-0.7-3.2-1.4-4.8-2.1
	c-0.5-0.2-0.7-0.6-0.7-1.1c0-1.9,0-3.8,0-5.7c0-0.9,0.2-1,1-0.6c2.4,1,4.8,2,7.3,3c0.6,0.2,0.9,0.6,0.9,1.3
	C265.1,128.1,265.1,130,265.1,131.9z"/>
</svg>
