<?xml version="1.0" encoding="utf-8"?>
<!-- Generator: Adobe Illustrator 17.1.0, SVG Export Plug-In . SVG Version: 6.00 Build 0)  -->
<!DOCTYPE svg PUBLIC "-//W3C//DTD SVG 1.1//EN" "http://www.w3.org/Graphics/SVG/1.1/DTD/svg11.dtd">
<svg version="1.1" id="Layer_1" xmlns="http://www.w3.org/2000/svg" xmlns:xlink="http://www.w3.org/1999/xlink" x="0px" y="0px"
	 viewBox="0 0 288 216" enable-background="new 0 0 288 216" xml:space="preserve">
<g>
	<path d="M51.5,129c-2.4-0.4-4.4,0.2-6.4,0.7c-1.8,0.4-3.6,0.9-5.4,1.2c-1,0.2-2.1,0-3.1-0.1c-2.9-0.2-4.1-4.7-2.5-6.8
		c1.9-2.6,4.5-3.8,7.6-4.3c0.1,0,0.3,0,0.5-0.1c-0.6-0.4-1.8-0.6-2.5-0.2c-2.3,1.1-4.8,1.2-7.3,0.8c-2.3-0.4-3.6-2.7-3-5.3
		c0.7-3.3,2.9-5.3,5.9-6.5c0.2-0.1,0.5-0.2,0.7-0.3c0,0,0,0,0.2-0.2c-1-0.3-1.9-0.6-2.9-0.8c-1.5-0.3-3-0.6-4.5-0.8
		c-2.7-0.4-4.5-2.2-3.8-5.3c0.7-2.9,2.7-4.6,5.1-5.9c3.9-2.3,8-4.3,12-6.5c2.8-1.5,5.5-3.1,8.3-4.7c0.9-0.5,1.8-0.9,2.7-1.4
		c0.1,0.1,0.1,0.1,0.2,0.2c-0.4,0.6-0.9,1.2-1.3,1.8c-2.2,2.7-5.1,4.4-8.2,5.8c-3.4,1.6-6.9,3.2-10.3,4.9c-2.5,1.2-4.6,3-6.3,5.2
		c-0.6,0.9-0.6,3,0.2,3.8c0.8,0.8,1.9,0.8,2.8,0.3c3.2-1.4,6.5-2.8,9.7-4.4c5.1-2.7,10.1-5.7,15.1-8.6c2.2-1.3,4.2-2.8,5.1-5.3
		c0.6-1.6,0.6-3-0.6-4.4c-3-3.5-6.9-4.8-11.4-4.3c-5.3,0.6-9.4,3.3-12.1,7.9c-0.9,1.6-1.6,3.2-2.5,4.8c-0.2,0.4-0.5,0.7-0.7,1.1
		c-0.1,0-0.2-0.1-0.3-0.1c0.1-0.8,0.2-1.6,0.4-2.4c1.1-3.9,3-7.3,6.1-10c3.6-3.2,7.8-4.2,12.5-3.3c4.5,0.8,7.9,3.2,10.1,7.3
		c2.6-0.4,5.1,0.1,7.3,1.5c3.5,2.2,5.6,5.2,5,9.5c-0.2,1.3,0.1,1.9,1,2.7c3.4,3.3,5,9.6,0.3,14.7c-1.2,1.3-2.6,2.4-3.9,3.6
		c0.1,0.1,0.1,0.1,0.2,0.2c0.1,0.4,0.3,0.9,0.4,1.3c0.2,1,0,1.9-0.8,2.6c-4,3.8-8.8,6.4-13.7,8.8c-4.8,2.3-9.7,4.7-14.5,7.1
		c-1.7,0.9-3.1,2.1-4.7,3.2c-0.5,0.4-0.6,0.8-0.4,1.3c0.1,0.2,0.2,0.4,0.2,0.7c0.2,0.9,0.7,1.1,1.6,0.9c7.3-1.5,14.1-4.2,20.5-7.9
		c5.3-3.1,10.3-6.7,14.8-11c1.6-1.6,3-3.4,3.8-5.5c1-2.5,0.9-4.8-0.8-7c0-0.1-0.1-0.2-0.1-0.2c0,0,0-0.1,0-0.1
		c0.9,0,1.4,0.5,1.8,1.3c2.5,4.5,1.3,8.4-1.7,12.1c-1.1,1.3-2.3,2.6-3.6,3.7c-1.2,1.1-2.6,2.1-4,3.1c1.1,0.9,3.2,1.1,4.1-1.6
		c1,0.7,1.1,1.4,0.4,2.4c-3.7,5.4-8.7,9.2-14.4,12.2c-4.6,2.4-9.5,4.1-14.5,5.6c-1.2,0.3-1.7,1.2-1.6,2.4c0,0.3,0.1,0.5,0.2,0.8
		c0.3,1.6,0.6,1.9,2.3,2c3.5,0.3,6.9-0.2,10.2-1.4c8.1-2.9,15.4-7.1,21.2-13.5c1.6-1.8,3.1-3.7,4-6c1.3-3.4,0.6-6.4-2-8.9
		c-0.3-0.3-0.6-0.5-0.9-0.8c3.6-0.7,6.4,4,5.6,9.3c3.7,1.3,4.5,4.5,4.8,7.8c0.2,1.5,0.1,3.1,0.2,4.6c0,0.3,0.1,0.6,0.3,0.8
		c3.8,4.5,4.4,9.6,3.1,15.1c-0.9,4-2.6,7.6-4.6,11.1c-0.4,0.6-0.3,1.1-0.1,1.7c1.3,3.2,2.6,6.5,3.8,9.7c0.5,1.5,0.8,3.1,1.2,4.6
		c0.3,1.2-0.3,2.3-0.8,3.4c-2.8,6.3-9.2,9.8-16.1,9.3c-4.5-0.3-7.2-2.8-9.1-6.4c-1.6-3-2.6-6.3-3.9-9.5c-0.6-1.5-1.1-3-1.7-4.6
		c-0.2-0.5-0.5-0.8-1.1-1c-4-1-7.8-2.4-11.1-5c-4-3.1-6-7.3-6.3-12.3c0-0.4-0.2-0.8-0.5-1c-5.4-3.9-5.8-12.3-1-16.5
		c0.1-0.1,0.1-0.2,0.2-0.3c-1.3-0.3-2.6-0.5-3.8-0.9c-2.6-0.8-3.1-2.6-1.5-4.8c0.2-0.3,0.5-0.6,0.7-0.9c2.7-2.8,6.1-4.5,9.7-5.8
		C49.1,130.6,50.4,130.2,51.5,129z M65.9,179c0.3-0.1,0.3-0.1,0.4-0.1c10.1-0.8,17.9-5.5,23.3-14c3.5-5.5,4-11.4,0.8-17.4
		c-0.8-1.5-1-3-1.2-4.6c-0.2-1.9-0.5-3.7-1.1-5.5c-0.5-1.6-1.6-2.7-3.3-3.2c-0.6-0.1-0.9,0-1.3,0.5c-1.2,1.7-2.3,3.4-3.6,4.9
		c-7.7,8.8-17.4,14-28.9,16c-1.5,0.3-3.1,0.3-4.5-0.4c-2-0.8-3.1-2.3-3.3-4.4c-0.2-2.1,1-3.3,2.7-4.1c0.9-0.4,1.8-0.7,2.7-1.1
		c1.9-0.7,3.9-1.4,5.8-2.1c0.3-0.1,0.6-0.4,1.1-0.6c-2.2-1.2-4.3-1.7-6.5-1.1c-3.1,0.8-5.3,2.8-6.7,5.5c-2.3,4.5-1.5,9.6,2.8,12.4
		c0.2,0.2,0.4,0.6,0.4,0.9c0.4,2.9,1.1,5.6,2.5,8.2c2.3,4.3,5.6,6.9,10.7,7c2.1,0,3.8,1,4.9,2.9c1,1.7,1.7,3.5,2.8,5.1
		c1.4,2,2.2,4.3,2.9,6.5c1.1,3.5,3.3,5.9,7,6.7c4.2,0.8,8-0.3,11.4-3c3.6-2.9,4.3-7.3,2.1-11.3c-0.8-1.5-1.5-3.1-2.2-4.7
		c-0.6-1.3-1-2.7-1.6-4c-1.8,1.2-3.3,2.3-5,3.3c-3,1.7-6.1,3-9.5,3.3C69.4,180.6,67.6,180.3,65.9,179z M61,89.7
		c0.9,0.3,1.6,0.6,2.3,0.8c0.5,0.1,0.5,0.4,0.5,0.9c-0.3,2.1-1.3,3.8-2.7,5.4c-2,2.1-4.6,3.5-7.1,4.9c-2.6,1.4-5.2,2.6-7.7,4.2
		c-1.9,1.2-3.9,2.2-6,3.1c-1.8,0.7-3.6,1.5-5.3,2.4c-1.9,1-3.3,2.6-3.7,4.8c-0.3,1.9-0.1,2.4,2.2,2.5c0.4,0,0.8-0.1,1.2-0.3
		c5.6-2.1,11-4.5,16.1-7.5c7.4-4.2,14.1-9.3,19.9-15.7c1.3-1.5,1.5-3.1,1.3-4.9c-0.1-0.5-0.2-1.2-0.6-1.6c-2.2-2.7-5.1-4.1-8.7-4.1
		c-0.5,0-0.7,0.2-0.8,0.7c-0.3,1-0.5,2-1,2.9c-1.2,2.1-3.2,3.5-5.3,4.8c-1.1,0.7-2.1,1.3-3.5,2.1c0.8,0.2,1.4,0.3,1.9,0.5
		c-0.8,1-2.2,0.1-2.9,1c0,0.1,0.1,0.2,0.1,0.3c1.7-0.1,3.4-0.2,5.2-0.3c0,0.1,0,0.2,0,0.2c-1,0.3-2.1,0.9-3.1,0.8
		c-3.2-0.4-6.1,0.2-8.9,1.7c-3.8,2-7.6,4.2-11.5,6.4c1.3,0.2,2.6,0.6,3.9,0.7c3.5,0.3,6.7-1.1,9.7-2.7c3-1.6,5.9-3.3,8.8-5.1
		c2-1.2,3.9-2.5,5.8-3.9c2-1.6,1.9-2.8,0.1-4.6C61.1,90.1,61.1,90.1,61,89.7z M67.5,103.6c0.1,0.1,0.1,0.1,0.2,0.2
		c-1.2,2.1-2.7,4-4.5,5.6c-4.5,4.2-9.9,6.9-15.4,9.3c-3.8,1.6-7.6,3.3-11.4,4.9c-1.6,0.7-1.7,2.6-1.3,4.2c0.2,0.9,1.5,1.4,2.9,1.2
		c5.1-0.8,9.9-2.4,14.4-4.7c7.3-3.6,13.7-8.4,19.6-13.9c0.7-0.7,1.6-1.3,2.1-2.2c0.8-1.5,1.5-3.2,2-4.8c0.6-1.9-0.9-4.6-2.7-5.2
		c-0.6-0.2-1.2-0.3-1.8,0.4c-1,1.2-2.2,2.3-3.4,3.2c-2.2,1.7-4.5,3.3-6.8,5c-0.3,0.2-0.6,0.5-0.9,0.7c1.2,0.8,2.3,0.6,3.3-0.2
		c1.1-0.9,2-1.9,3-2.9C67.1,104.2,67.3,103.9,67.5,103.6z M56.5,138.4c0,0.1,0,0.1,0,0.2c0.2,0,0.5,0,0.7,0c1.7,0.1,3.4,0.2,5.1,0.2
		c0.4,0,1,0,1.3-0.2c2.9-2,5.7-4.1,8.5-6.2c0.2-0.1,0.3-0.3,0.5-0.6c-0.3-0.1-0.5-0.1-0.6-0.1c-1.5,0.1-3,0.2-4.5,0.3
		c-0.4,0-0.7,0.2-1,0.4c-1.6,1-3.2,2.1-4.8,3.1C60.1,136.5,58.3,137.4,56.5,138.4z M61.5,109.2c0-0.1-0.1-0.2-0.1-0.4
		c-0.9,0.1-2,0-2.8,0.4c-5.1,2.7-10,5.5-15.1,8.3c-0.1,0-0.1,0.1-0.3,0.3c1,0,1.8-0.1,2.6,0c0.8,0.1,1.4-0.1,2.1-0.5
		c3.1-1.8,6.2-3.5,9.3-5.3C58.7,111.3,60.1,110.2,61.5,109.2z M66,120.5c0-0.1-0.1-0.2-0.1-0.3c-0.8-0.1-1.5-0.3-2.3,0.3
		c-0.5,0.4-1.1,0.8-1.7,1.2c-3.2,1.7-6.4,3.4-9.6,5.1c-0.2,0.1-0.5,0.3-0.7,0.4c0.8,0.1,1.6,0,2.3,0.2c0.7,0.1,1.2,0,1.7-0.4
		c1.7-1,3.5-2,5.2-3C62.6,122.8,64.3,121.6,66,120.5z M60.5,140.1c-1.9,0.1-3.6-0.3-5.5,0.3C56.8,141.3,59.3,141.2,60.5,140.1z
		 M69.9,116.5c-1.2,0.8-2.3,1.5-3.5,2.3C68.5,119.3,70.3,118.1,69.9,116.5z"/>
	<path d="M57.4,150.1c8.9-4.9,16.4-11.4,23.3-19c0.3,1.1-0.2,1.8-0.6,2.3c-5.8,7.2-12.4,13.5-21.5,16.4
		C58.2,149.9,57.8,150,57.4,150.1z"/>
	<path d="M49.7,83c-3.6,2.7-8,2.6-12,3.8C38.5,84.5,46,82.1,49.7,83z"/>
	<path d="M86.2,147.6c-0.2,0.4-0.4,0.9-0.6,1.2c-3.6,4.4-8.1,7.6-13.3,9.8c-6.2,2.7-12.7,3.8-19.4,4c-1.3,0-2.6-0.2-3.7-0.9
		c13.7-1.1,26.2-5.4,36.8-14.4C85.9,147.4,86,147.5,86.2,147.6z"/>
	<path d="M51.5,168.3c14.3-0.1,26.8-4.6,37.2-14.5c-0.5,0.8-0.9,1.6-1.5,2.3c-3.1,4.2-7.2,7.1-11.8,9.2c-4.4,2-9,3.1-13.8,3.6
		c-2.6,0.2-5.1,0.5-7.7,0C53.1,168.8,52.3,168.5,51.5,168.3z"/>
	<path d="M91.9,154.7c-1.4,7.3-11.7,15.6-19.6,14.8c0.4-0.3,0.6-0.4,0.9-0.6c3-1.7,6-3.4,9-5.2c3.3-2,6.4-4.3,8.7-7.5
		C91.2,155.7,91.5,155.3,91.9,154.7z"/>
	<path d="M68.4,182.3c5.6-0.1,10.6-1.9,15.3-4.8c0.2-0.1,0.5-0.1,0.7-0.2c0.1,0.3,0.2,0.5,0.2,0.8c0.1,0.8-0.3,1.3-0.9,1.9
		c-3,2.5-6.3,4.1-10.2,4C71.6,184,69.7,183.4,68.4,182.3z"/>
	<path d="M74.6,191.9c2-0.1,4.1,0.3,6-0.7c1.8-1,3.5-2,5.3-3.1c0.7,0.5,0.9,1.9,0.3,2.7c-2.2,2.7-6.4,4.1-9.4,3
		c-0.8-0.3-1.5-0.9-2.3-1.4C74.6,192.2,74.6,192.1,74.6,191.9z"/>
	<path d="M70.3,185.5c3,0.5,5.8,0.2,8.4-0.8c1.9-0.7,3.6-1.7,5.1-3.1c0.2-0.2,0.5-0.2,0.7-0.4c0,0.3,0.1,0.7,0.1,1
		c0,0.1-0.1,0.2-0.2,0.3c-2.5,3.1-5.6,5.2-9.8,5.2C73,187.8,71.5,187,70.3,185.5z"/>
	<path d="M72.5,189.4c2.1-0.4,4.1-0.7,6.1-1.2c2.3-0.6,4.3-1.8,5.9-3.6c0.2-0.2,0.4-0.3,0.6-0.4c0.1,0.2,0.4,0.5,0.4,0.7
		c0,0.4-0.1,0.8-0.4,1c-2.8,3.7-6.5,5.2-11.1,4.8C73.1,190.7,72.8,190.1,72.5,189.4z"/>
</g>
<g>
	<path d="M111.2,90.7c-0.7-4.1,1-7.5,2.9-10.9c1.3-2.2,2.5-4.5,2.6-7.1c0.1-1.7-0.1-3.4-0.2-5c-0.5-4.4-0.5-8.9-0.1-13.3
		c0.6-5.5,1.8-10.9,4-16.1c2.8-6.7,6.8-12.5,12.8-16.7c4.2-3,8.9-5,14-5.6c6.9-0.8,13.6-0.3,20.3,1.5c8.9,2.4,16.7,6.6,23.2,13.3
		c6.4,6.5,10.8,14.2,12.4,23.2c1.2,6.9,0.8,13.6-2.5,19.9c-2.9,5.7-7.2,10.1-12.4,13.7c-4.1,2.8-8.6,4.8-13.3,6.4
		c-3.5,1.2-6.8,2.8-10.2,4.2c-2.1,0.9-4.2,1.7-6.2,2.7c-2.7,1.4-4.7,3.5-6.9,5.5c-2.8,2.6-5.5,5.2-9.4,6.3c0.6,1.3,0.9,2.6,0.7,4
		c-0.3,1.7-1,3.1-2.4,4.2c-0.2,0.2-0.5,0.6-0.5,0.9c0,2-1,3.5-2.4,4.8c-0.8,0.7-1.6,1.3-2.4,2c-0.4,0.3-0.8,0.5-1.1,0.9
		c-1.5,2.1-3.5,1.8-5.6,1.4c-1.3-0.3-2.7-0.7-4-0.9c-0.5-0.1-1.1-0.1-1.5,0.1c-6.9,2.3-14.4,0.2-18.8-5.5c-2.3-2.9-3.2-6.3-3.1-10
		c0-0.5-0.1-1.1-0.4-1.6c-1.1-2-1.9-4-2.2-6.2c-0.4-2.7,0.6-4.7,3-6c0.2-0.1,0.5-0.5,0.5-0.7c0.4-2.1,1.5-3.5,3.5-4.3
		c0.3-0.1,0.5-0.5,0.6-0.8c0.4-1.8,1.3-3.3,3.2-3.9C109.7,90.8,110.4,90.8,111.2,90.7z M135.5,98.3c0,0.1-0.1,0.1-0.1,0.2
		c-0.2-0.1-0.5-0.2-0.6-0.3c-1.6-1.1-3.2-2.2-4.7-3.4c-2.4-2-4.7-2.1-6.9,0c-1.1,1.1-2,2.4-3,3.7c-0.4,0.5-0.3,0.8,0.2,1.2
		c1.6,1.2,3.2,2.5,4.9,3.7c3.9,2.7,7.9,5,12.6,6.1c1.7,0.4,3.3,0.7,4.9,0c0.7-0.3,1.4-0.4,2.1-0.6c1.4-0.4,2.7-1,3.5-2.3
		c0.4-0.6,0.9-1,1.4-1.5c3.9-4,8.5-6.9,13.5-9.3c5.6-2.7,11.4-5.2,17-8c5-2.4,9.5-5.6,13.2-9.8c1.6-1.9,3.2-3.8,4-6.1
		c2.2-6.3,2.3-12.8,0.6-19.3c-2.1-7.8-6.4-14.2-12.2-19.7c-10.2-9.4-22.2-14.2-36.2-13.1c-8.3,0.6-15,4.1-20.1,10.7
		c-4.1,5.3-6.4,11.4-7.9,17.9c-1,4.1-1.6,8.3-1.8,12.6c-0.2,3.1-0.1,6.3-0.1,9.4c0,2.1,0.3,4.2-0.7,6.2c-0.5,1-1.1,2-1.6,3
		c-1.1,2-2.4,4-3.5,6.1c-1,2.1-1.3,4.3,0,6.4c0.8,1.3,1.7,2.7,2.6,3.9c0.6,0.8,1.4,1.4,2.2,2.2c0.3-0.6,0.5-1.1,0.8-1.5
		c0.9-1.5,1.8-3.1,2.9-4.5c1.1-1.5,2.6-2.7,4.6-2.8c1,0,1.4-0.4,1.8-1.2c1.3-2.3,2.9-4.5,5.2-6c0.2-0.1,0.3-0.4,0.3-0.7
		c0.4-1.9,0.6-3.8,1.1-5.6c1.6-5.2,3.3-10.3,4.9-15.4c1.3-3.9,2.4-7.9,2.9-12c0.1-0.8,0.5-1.2,1-1.6c0.2-0.1,0.5-0.2,0.7-0.1
		c0.1,0.1,0.2,0.4,0.1,0.7c-0.1,0.5-0.3,1-0.3,1.5c0,2.2,1.1,4,2.6,5.4c1,0.9,2.1,1.6,3.4,1.7c1.1,0.2,2-0.2,2.8-0.9
		c4.8,7.7,11.5,11,20.5,9.6c-0.3,1.1-1,1.7-2,2.1c-0.5,0.2-1.1,0.5-1.6,0.8c-2.7,2.1-5.4,4.2-8,6.4c-5.6,4.9-10.9,10.1-17.1,14.3
		c-0.2,0.1-0.4,0.6-0.3,0.8c0.1,1.3-0.3,2.5-1.1,3.4c-0.9,1-1.8,2-2.7,2.9c-0.6,0.6-0.9,1.1-0.8,2c0.2,3.6-1.5,6.2-4.1,8.5
		c-0.2,0.2-0.4,0.3-0.6,0.5c-0.1,0-0.1-0.1-0.2-0.1c0.2-0.6,0.3-1.1,0.5-1.7c0.5-1.2,1.1-2.3,1.6-3.4c0.4-1.1,0.7-2.2,0.1-3.3
		c-1.5-2.6-3.6-4.5-6.3-5.5c-0.4-0.2-0.9,0-1.4,0c0,0.1,0,0.1-0.1,0.2C131.8,94.6,133.7,96.4,135.5,98.3z M129.4,117.2
		c0.1-0.1,0.2-0.3,0.3-0.4c0.8,0.3,1.7,0.5,2.5,0.8c1.4,0.5,2.7,1.1,4.1,1.5c0.8,0.2,1.8,0.2,2.5-0.2c1.4-0.8,2.1-3.3,1.5-4.8
		c-0.1-0.3-0.5-0.7-0.9-0.8c-3.6-1-7.2-2.4-10.5-4.2c-6.9-3.7-12.7-8.7-16.5-15.7c-0.4-0.7-1.1-0.9-1.8-0.5
		c-0.6,0.3-1.1,0.7-1.5,1.2c-0.2,0.3-0.3,0.9-0.1,1.2c0.9,2.2,2.2,4,3.8,5.7c4.9,5.1,10.6,9.1,16.6,12.6c0.7,0.4,1.3,0.8,2,1.2
		c-0.3,0.1-0.5,0.1-0.8,0c-1.8-0.6-3.7-1.2-5.5-2c-6.1-2.8-11.1-7-15.9-11.5c-1.1-1-2.1-2-3.2-3c-0.7,1.3-0.5,2.5,0.3,3.5
		c1.3,1.7,2.6,3.5,4,5.1c1.4,1.5,2.9,2.9,4.4,4.3c1.3,1.2,2.5,2.4,3.8,3.6c-0.1,0.1-0.1,0.2-0.2,0.2c-0.9-0.5-1.9-1-2.8-1.6
		c-4-3.1-7.8-6.5-11.1-10.3c-0.8-0.9-1.6-0.8-1.9,0.5c-0.1,0.4,0,1,0.3,1.4c4.9,6.8,11.2,12,18.4,16.1c0.2,0.1,0.4,0.3,0.7,0.4
		c0,0.1-0.1,0.1-0.1,0.2c-0.3-0.1-0.6-0.2-0.9-0.3c-2.5-1.3-5-2.5-7.5-4.1c-3.2-2-6.1-4.2-8.6-7.1c-1.1-1.3-2.4-2.4-3.6-3.6
		c-0.3-0.3-0.7-0.6-1.3-1c0.1,0.4,0.1,0.5,0.2,0.6c1.2,3.1,3.3,5.6,5.7,7.9c4.9,4.6,10.5,8.2,16.3,11.6c2.3,1.3,4.7,2.3,7.5,2.1
		c1.5-0.1,2.8-0.6,3.9-1.7c-0.3-0.3-0.6-0.5-0.8-0.7c-1.9-1.1-3.9-2.1-5.7-3.2c-1.6-0.9-3-2-4.5-3.1c-0.2-0.1-0.2-0.6-0.2-0.9
		c0.3,0,0.5,0,0.8,0.1c1.2,0.6,2.4,1.2,3.6,1.8c2.9,1.2,5.8,2.4,8.7,3.6c0.2,0.1,0.6,0.1,0.8-0.1c0.9-0.8,0.8-1.9-0.2-2.6
		c-0.7-0.4-1.4-0.7-2.1-1.1c-1.1-0.5-2.2-1-3.3-1.7C130.1,118.2,129.8,117.6,129.4,117.2z M151,59.4c-2.8-1.1-4.2-3.4-5.6-5.9
		c-3.9,9.6-7.2,19.3-9.5,29.3c0.6,0.1,1,0.1,1.4,0.2c0.7,0.2,1.1,0,1.4-0.7c1.1-2.3,2.2-4.5,3.3-6.7c0.8-1.6,1.6-3.2,2.5-5
		c-0.6,0.2-1,0.3-1.4,0.4c-0.3,0-0.6,0-1-0.1c0.1-0.4,0.2-0.9,0.4-1c0.8-0.4,1.8-0.7,2.6-1.1c0.3-0.1,0.6-0.3,0.7-0.5
		c0.8-1.4,1.6-2.9,2.4-4.4C149.2,62.4,150.1,60.9,151,59.4z M167,66.9c-1.7-0.5-3.5-1-5.4-1.5c-0.2-0.1-0.5,0-0.6,0.2
		c-2.4,2.5-4.8,5-7.2,7.5c-0.5,0.5-1.2,1-1.4,1.6c-0.1,0.5,0.6,1.1,0.8,1.8c0.1,0.4,0.1,1.1-0.1,1.3c-0.2,0.2-0.9,0.1-1.3,0
		c-0.5-0.2-0.8-0.7-1.3-1.2c-2.6,3.1-5.1,6.1-7.6,9.2c0.4,0.6,0.8,1.1,1.2,1.6C151.8,80.5,159.5,73.7,167,66.9z M159.1,64.6
		c-1-1.1-1.9-2.2-2.8-3.2c-0.3-0.4-0.6-0.9-1-1.2c-0.6-0.4-1.3-0.8-2-1.1c-0.2-0.1-0.6,0.2-0.8,0.4c-1.4,2.8-2.5,5.6-4.1,8.3
		c-1,1.7-0.8,3,0.2,4.4c0,0,0.1,0.1,0.1,0.1c0.3,0.5,0.6,0.7,1.2,0.5c0.5-0.2,1,0,1.5-0.1c0.3,0,0.7-0.1,0.9-0.3
		C154.6,69.8,157,67.1,159.1,64.6z M130.7,89.8c3.5,0.9,6.4,2.5,8.7,5.2c0.6-0.9,1.1-1.8,1.8-2.6c1.3-1.5,1.5-3.2,0.3-4.7
		c-1.2-1.6-2.9-2.6-4.9-2.9c-0.8-0.1-1.8-0.1-2.4,0.4C132.7,86.3,131.6,87.9,130.7,89.8z M142,85c2.5-3.2,5-6.3,7.5-9.5
		c-1.3,0.1-1.9-0.7-2.4-1.5c-0.3-0.5-0.7-1.1-1.1-1.6c-0.2,0.1-0.2,0.2-0.2,0.2c-2,3.6-3.9,7.1-5.9,10.7c-0.2,0.4-0.1,0.6,0.2,0.8
		C140.7,84.3,141.3,84.6,142,85z M119.2,127.3c-0.8-0.2-1.4-0.2-1.9-0.4c-2.1-0.8-4.3-1.7-6.4-2.5c-1.6-0.6-2.8-1.6-3.8-2.9
		c-0.5-0.6-0.9-1.2-1.3-1.7c-0.3-0.3-0.5-0.7-0.8-1c0.4,2.2,1.1,4.3,2.4,6.2c0.1,0.1,0.2,0.2,0.4,0.3
		C111.3,126.9,115,127.9,119.2,127.3z"/>
	<path d="M134.2,34.5c-0.1,0.3-0.2,0.7-0.3,1c-2.6,5.2-4.8,10.6-6.2,16.3c-1,4.1-1.5,8.3-1.5,12.5c0,0.7-0.1,1.4-0.3,2
		c-0.1,0.3-0.6,0.8-0.8,0.7c-0.4-0.1-0.9-0.4-1-0.8c-0.3-1-0.4-2.1-0.5-3.2c-0.7-9.7,2.2-18.3,7.9-26c0.6-0.8,1.2-1.5,1.9-2.3
		c0.2-0.2,0.4-0.3,0.6-0.5C134,34.4,134.1,34.4,134.2,34.5z"/>
	<path d="M182.1,45.7c-0.9-1.8-1.7-3.8-2.8-5.5c-3.1-5.1-7.4-8.8-12.6-11.5c-0.4-0.2-1-0.2-0.8-0.9c0.2-0.6,0.8-0.9,1.5-0.8
		c2,0.3,3.9,1.1,5.6,2.2c4.2,2.9,6.6,7,8.1,11.7C181.6,42.5,181.8,44.2,182.1,45.7C182.1,45.8,182.1,45.7,182.1,45.7z"/>
	<path d="M182.8,76.9c1.5-2.2,3-4.4,4.4-6.6c1.8-2.8,3.2-5.8,3.7-9.1c0.4-2.1,0.3-4.3-0.2-6.5C195.6,61.2,192.2,73.5,182.8,76.9z"/>
	<path d="M132.9,104.5c-1.5-0.4-2.9-0.8-4.4-1.3c-2.3-0.8-4.3-1.9-5.9-3.7c-0.2-0.3-0.4-0.7-0.4-1c0-0.8,0.5-1,1.2-0.6
		c3,2,6.1,4,9.2,6c0.2,0.1,0.3,0.2,0.4,0.3C133,104.3,132.9,104.4,132.9,104.5z"/>
	<path d="M171.3,35.4c3.7,2.1,5.1,5.7,6,9.5c-0.8-1-1.5-1.9-2.3-2.9c-1.2-1.6-2.3-3.1-3.5-4.7C171,36.7,170.8,36.2,171.3,35.4z"/>
</g>
<g>
	<path d="M125.6,188.1c-0.8-2-1.7-4-2.5-6c0-0.1,0.1-0.3,0.1-0.4c-0.3-1.5,0-3,0.6-4.4c0.6-1.4,1.2-2.7,1.8-4.1
		c0.8-1.7,1.4-3.5,1.2-5.5c0-0.3,0-0.6,0.1-0.9c0.6-1.3,1.5-2.4,2.6-3.4c1.7-1.5,3.8-2.1,5.8-3c3-1.3,6-2.6,8.9-4.1
		c2.7-1.4,5.2-3.1,7.8-4.6c1.7-1,3.5-1.9,5.6-2.3c1-0.2,2-0.7,2.7-1.5c1.2-1.3,1.7-3,2.4-4.6c0.8-1.7,1.6-3.5,3.5-4.4
		c1-0.5,2-0.9,2.9-1.6c2.2-1.6,4.6-3,6.6-4.8c3-2.7,5.9-5.5,8.7-8.4c3.8-3.9,7.3-7.9,11-11.9c2.1-2.2,4.3-4.4,6.5-6.5
		c0.7-0.6,1.4-1.2,2.1-1.8c1.6-0.7,3.2-1.3,4.8-2c0.4,0,0.9,0,1.3-0.1c1.5-0.1,2.8-0.3,4.1-1.1c1.2-0.7,2.7-1,4.1-1.3
		c3.3-0.6,6.6-0.4,9.8-0.2c8.5,0.5,15.7,4,22,9.5c3.2,2.8,5.9,6.1,8.1,9.8c0.4,0.8,1,1.5,1.5,2.2c1.1,2.7,2.3,5.4,3.4,8.1
		c0,0.3,0,0.6,0.1,0.9c0.5,2.3,1.1,4.7,1.5,7c0.5,3.3,0.5,6.6,0.1,9.8c-1,8.9-4.2,16.8-10.4,23.3c-2.4,2.6-4.9,5.1-8,7
		c-0.6,0.3-1.1,0.8-1.6,1.2c-2.6,1.1-5.3,2.2-7.9,3.3c-0.9,0.2-1.7,0.3-2.6,0.5c-3,0.8-6,1.1-9,1.1c-2.8,0-5.7-0.2-8.5-0.2
		c-3.4-0.1-6.9-0.3-10.3-0.3c-4.1,0.1-8.3,0.3-12.3,0.8c-2.5,0.3-5,1-7.5,1.7c-1.4,0.4-2.7,0.7-4.1,0.4c-1.4-0.3-2.7-0.6-4.1-0.9
		c-2.9-0.7-5.6-0.6-8.1,1.3c-0.9,0.7-2,1.2-3.1,1.5c-2,0.6-4.1,1-6.1,1.6c-1.9,0.5-3.8,0.9-5.3,2.1c-0.2,0.1-0.4,0.2-0.6,0.2
		c-2.4-0.1-4.2,1.3-6.1,2.4c-1.3,0.7-2.6,1-4,1.2c-0.4,0-0.8,0.2-1.1,0.4c-1,1-2.2,1.2-3.5,0.8c-0.6-0.2-1.2-0.5-1.7-0.9
		c-1-0.7-2-1.4-3.1-2.1c-1.4-0.9-2.8-1.7-4.5-1.5c-0.5,0-1.2,0-1.6-0.2c-1-0.6-1.9-1.3-2.8-2.1C126.3,188.9,126,188.4,125.6,188.1z
		 M241.4,178.4c2.3-0.9,4.5-2.2,6.4-3.8c2.2-1.8,4.3-3.8,6.2-5.9c4.3-4.8,7.4-10.3,8.9-16.6c1.2-5.3,1.5-10.7,0.5-16.1
		c-0.5-2.8-1.1-5.7-2.1-8.4c-1.7-4.9-4.3-9.5-7.6-13.5c-2.5-3-5.3-5.5-8.4-7.7c-4.6-3.1-9.5-5.1-15.1-5.6c-4-0.4-7.9-0.2-11.8,0.2
		c-1.2,0.1-2.3,0.4-3.4,0.8c-1.5,0.5-2.2,1.9-1.6,3.4c0.6,1.5,1.5,3,2.4,4.4c0.9,1.5,2.2,2.9,3,4.5c1.6,3.1,3.1,6.3,4.5,9.6
		c1.7,3.7,3.3,7.5,4.9,11.2c2,4.8,4,9.6,5.8,14.5c1.2,3.2,2.3,6.4,3.3,9.6c1.2,3.9,2.3,7.8,3.2,11.7
		C240.8,173.2,241,175.8,241.4,178.4z M164.2,187.1c0.9-0.4,1.8-0.8,2.7-1.1c2-0.7,4-1.2,5.9-2.1c2.5-1.1,2.8-2.3,2.1-4.6
		c-1-2.9-2.2-5.7-3.4-8.5c-1.8-4.3-3.6-8.7-5.4-13c-0.9-2.1-1.6-4.3-2.4-6.5c-0.5-1.4-1.6-2-3.1-2c-0.7,0-1.5,0.1-2.1,0.4
		c-2.2,1.1-4.4,2.2-6.6,3.4c-0.3,0.1-0.4,0.7-0.4,1c0.1,1.9,0.5,3.8,1.3,5.5c1.4,3.1,2.8,6.2,4.2,9.4c0.9,2,1.7,4,2.5,6
		c1.1,2.9,2.2,5.8,3.4,8.6C163.2,184.8,163.7,185.9,164.2,187.1z M214.1,125c0-0.1-0.1-0.2-0.1-0.2c-1.3,0.7-2.6,1.3-3.7,2.1
		c-3.5,2.4-6.9,5-10.4,7.4c-2.4,1.7-4.8,3.5-7.2,5.3c-2.3,1.6-4.7,3.2-7.1,4.8c-2.2,1.5-4.4,2.9-6.7,4.3c-2.2,1.3-4.5,2.4-6.7,3.6
		c-0.5,0.3-1,0.6-1.4,1c-0.6,0.6,0,1.2,0.3,1.8c0.1,0.2,0.6,0.3,0.7,0.2c2.2-0.9,4.4-1.8,6.5-2.9c2.3-1.1,4.4-2.5,6.6-3.6
		c4.2-2.1,8.5-4.2,12.5-6.8c3.3-2.1,6.7-4.3,10-6.4c1.2-0.8,2.4-1.7,3.7-2.6c-0.7-0.8-0.9-1.6-0.6-2.6c0.2-0.6,0.4-1.3,0.8-1.8
		C212.2,127.4,213.2,126.2,214.1,125z M226.7,160c0-0.1-0.1-0.2-0.1-0.4c-0.9-0.1-1.7-0.2-2.6-0.4c-1.1-0.2-2.3-0.4-2.9-1.4
		c-0.4-0.7-0.9-0.8-1.5-0.8c-2.8-0.1-5.5,0.7-8.1,1.5c-3.5,1.1-6.9,2.4-10.5,3.2c-3.8,0.8-7.5,1.9-11.2,3.1c-3.7,1.2-7.4,2.5-11,3.8
		c-1.3,0.5-1.6,1.9-0.7,2.9c0.2,0.2,0.7,0.4,1,0.3c1.9-0.6,3.7-1.2,5.6-1.8c2.2-0.7,4.3-1.3,6.5-1.9c2.6-0.7,5.2-1.3,7.8-1.9
		c2.4-0.5,4.8-1.1,7.2-1.6c3.2-0.7,6.3-1.3,9.5-1.9c2.8-0.6,5.5-1.2,8.3-1.9C224.9,160.7,225.8,160.3,226.7,160z M215.1,133.2
		c0-0.1-0.1-0.1-0.1-0.2c-0.2,0.1-0.5,0.2-0.7,0.4c-0.8,0.5-1.6,1-2.4,1.6c-2.1,1.3-4.1,2.6-6.2,3.9c-2.2,1.4-4.3,2.9-6.6,4.2
		c-3.3,2-6.6,3.9-9.9,5.7c-4.3,2.3-8.8,4.3-13.1,6.5c-1.2,0.6-2.3,1.4-3.3,2.2c-0.5,0.3-0.5,1-0.1,1.4c0.4,0.4,0.8,1.1,1.6,0.7
		c2.5-1.1,5-2.1,7.5-3.2c3.9-1.8,7.7-3.6,11.5-5.4c2-0.9,4-1.9,6-2.9c3.7-1.9,7.3-4.1,11.2-5.6c2.1-0.8,3.4-3.3,3-5.7
		c-0.2-1.2,0-2.2,0.9-3C214.7,133.7,214.9,133.4,215.1,133.2z M176.7,167.7c0.5-0.2,0.9-0.4,1.3-0.5c4-1.5,8.1-2.9,12.1-4.4
		c1.9-0.7,3.9-1.2,5.8-1.7c1.8-0.5,3.5-0.9,5.3-1.4c2-0.5,3.9-1.1,5.9-1.6c2.5-0.7,5.1-1.4,7.6-2.1c2-0.6,4-1.1,6-1.7
		c0.8-0.2,1.5-0.5,2.3-0.8c0-0.1,0-0.1-0.1-0.2c-0.3,0-0.6,0-0.9-0.1c-1.7-0.1-3.1-0.6-3.7-2.5c-0.3-0.9-1.1-1.4-2-1.2
		c-1.1,0.2-2.1,0.5-3.1,0.9c-1.8,0.7-3.5,1.6-5.3,2.3c-0.9,0.4-1.9,0.6-2.8,0.9c-1.7,0.7-3.5,1.4-5.2,2.1c-7.7,3-15.3,6-23,9
		c-0.4,0.2-0.8,0.4-1.2,0.6C176,166.1,176.4,166.9,176.7,167.7z M217.7,146.7c-0.9-1.2-1.6-2.4-2.4-3.5c-0.8-1.1-1.6-1.3-2.8-0.4
		c-0.5,0.3-0.9,0.8-1.4,1.1c-2.4,1.3-4.8,2.7-7.2,3.9c-3.1,1.6-6.3,3.1-9.5,4.7c-3.6,1.7-7.3,3.4-10.9,5.1c-2.9,1.3-5.8,2.6-8.6,3.8
		c-0.8,0.4-0.5,0.9-0.3,1.4c0.2,0.5,0.6,0.7,1.2,0.5c1.7-0.7,3.4-1.5,5.2-2.1c4.4-1.7,8.9-3.4,13.3-5.1c6.3-2.4,12.7-4.9,19-7.4
		C214.8,148,216.2,147.4,217.7,146.7z M232.2,171.2c-0.3-0.3-0.4-0.4-0.5-0.4c-0.6-0.2-1.3-0.3-1.9-0.6c-3.4-1.2-6.8-1.3-10.3-0.8
		c-2.3,0.3-4.5,0.7-6.8,1c-2,0.2-4,0.3-5.9,0.6c-3.2,0.5-6.4,1-9.6,1.5c-2.1,0.4-4.2,0.8-6.2,1.2c-2.7,0.7-5.5,1.4-8.2,2.2
		c-0.8,0.2-1.5,0.5-2.3,0.9c-0.2,0.1-0.6,0.4-0.6,0.6c0,0.2,0.3,0.5,0.5,0.7c0.6,0.4,1.3,0.5,2.1,0.2c1.7-0.5,3.3-1.1,5-1.5
		c3.8-0.8,7.7-1.5,11.6-2c5.1-0.6,10.1-0.8,15.2-1.3c5.3-0.5,10.5-1.1,15.7-1.7C230.8,171.9,231.4,171.5,232.2,171.2z M208.2,113.6
		c-0.1,0-0.1-0.1-0.2-0.1c-0.2,0.1-0.3,0.2-0.5,0.4c-1.4,1.2-2.8,2.3-4.1,3.5c-1.7,1.5-3.5,2.9-5.1,4.5
		c-5.1,5.3-10.4,10.2-16.1,14.8c-1.9,1.5-3.9,2.9-5.9,4.4c-1.5,1.1-3.1,2.2-4.7,3.2c-1.2,0.8-2.4,1.6-3.7,2.4
		c-0.5,0.3-0.5,0.7-0.1,1.1c0.2,0.2,0.6,0.1,0.9,0c3.5-1.5,6.7-3.5,9.8-5.6c2.7-1.8,5.3-3.7,8-5.7c2.2-1.6,4.3-3.4,6.4-5.1
		c2.3-1.8,4.6-3.6,6.9-5.4c1.9-1.5,3.4-3.2,4.8-5.2C205.9,118.4,207.1,116,208.2,113.6z M211.2,118.9c0,0,0-0.1-0.1-0.1
		c-0.2,0.1-0.4,0.1-0.6,0.2c-1,0.7-2.1,1.3-3,2.1c-3.2,2.8-6.4,5.6-9.6,8.4c-2.4,2-4.8,4.1-7.3,6c-3.3,2.5-6.6,4.8-10,7.2
		c-2.7,1.8-5.5,3.6-8.2,5.3c-0.9,0.6-1.9,1-2.8,1.6c-0.4,0.3-0.9,0.5-0.5,1.2c0.4,0.8,0.5,0.8,1.5,0.3c3.1-1.7,6.2-3.4,9.3-5.2
		c2.2-1.3,4.3-2.7,6.5-4.1c1.8-1.2,3.6-2.5,5.3-3.8c2.1-1.5,4.3-3.1,6.4-4.6c2.3-1.6,4.5-3.3,6.8-5c1-0.7,1.9-1.4,2.7-2
		c0-0.9-0.1-1.5,0.1-2.1c0.2-0.6,0.5-1.3,0.9-1.8C209.4,121.3,210.3,120.1,211.2,118.9z M149.5,154.9c-1.3,0.6-2.5,1-3.6,1.5
		c-1.2,0.5-1.3,1.3-0.5,2.4c0.5,0.6,0.9,1.2,1.2,1.9c1.3,2.8,2.6,5.6,3.8,8.4c2.4,5.5,4.9,11,7.3,16.5c0.5,1,1,2,1.6,2.9
		c1.7-0.5,2.9-1.8,2.7-3.1c-0.2-1.2-0.4-2.5-0.9-3.6c-1.4-2.7-2.8-5.5-3.9-8.4c-2.1-5.4-4.4-10.7-6.6-16
		C150.3,156.7,149.9,155.9,149.5,154.9z M230.1,166c0,0,0-0.1,0-0.1c-2.6-0.7-5.2-1.3-7.8-2c-2.4-0.6-4.8-0.4-7.1,0.7
		c-0.3,0.1-0.6,0.2-0.9,0.3c-2.7,0.6-5.4,1.1-8.1,1.7c-2.5,0.5-5,1.1-7.5,1.7c-2.6,0.6-5.2,1.3-7.8,1.9c-2,0.5-3.9,1-5.9,1.6
		c-1.3,0.3-2.6,0.6-3.9,1.1c-0.6,0.2-1.1,0.6-1.6,1.1c-0.2,0.2-0.1,0.6-0.2,1c1.9-0.5,3.5-0.9,5.2-1.4c2.3-0.6,4.5-1.2,6.8-1.7
		c2.2-0.5,4.4-0.9,6.7-1.3c2.8-0.5,5.5-0.9,8.3-1.3c2.7-0.4,5.5-0.6,8.2-0.9c3.1-0.4,6.1-0.7,9.1-1.1
		C225.9,166.9,228,166.4,230.1,166z M181.4,181.5c0.1,0.8,0.7,0.6,1.3,0.5c2.7-0.7,5.5-1.5,8.2-2.1c4.3-1,8.7-1.5,13.1-1.7
		c3.4-0.1,6.8,0,10.1-0.2c4.4-0.1,8.8-0.4,13.2-0.6c2-0.1,4-0.3,5.9-0.5c0.2,0,0.6-0.3,0.6-0.5c0.2-1.1-0.4-2.4-1.5-2.7
		c-0.7-0.2-1.5-0.2-2.2-0.1c-2.9,0.4-5.5,1.4-8.5,1.4c-4.6,0.1-9.2,0.7-13.8,1c-4.9,0.3-9.8,0.8-14.6,1.7c-2.4,0.4-4.8,1-7.2,1.6
		c-1.4,0.3-2.8,0.8-4.2,1.1C181.2,180.5,181.2,180.9,181.4,181.5z M141.9,195.1c0.1-0.1,0.2-0.1,0.3-0.2c-1.2-2.4-2.3-4.8-3.6-7.2
		c-1.1-2.1-2.3-4.1-3.3-6.2c-1.9-3.9-3.6-7.9-5.4-11.9c-0.3-0.7-0.7-1.4-1.2-2c-0.4-0.5-0.8-0.5-1,0.1c-0.3,0.7-0.6,1.6-0.4,2.3
		c0.4,1.8,1,3.7,1.6,5.5c0.8,2.3,1.8,4.5,2.6,6.8c1.1,3.2,2.6,6.2,4.6,8.9C137.6,193.3,139.4,194.8,141.9,195.1z M206.5,109.8
		c-0.8,0.5-1.6,0.9-2.2,1.6c-2.3,2.1-4.6,4.3-6.8,6.5c-2.1,2.1-4,4.5-6.1,6.6c-3.4,3.4-6.7,6.9-10.7,9.7c-2.1,1.5-4.1,3.2-6.2,4.6
		c-2.6,1.8-5.3,3.3-8,5c-0.4,0.3-0.6,0.5-0.4,1c0.3,0.5,0.6,0.3,1,0.1c1.4-0.8,2.8-1.5,4.1-2.4c3.3-2.4,6.7-4.7,9.9-7.3
		c3-2.4,5.9-5,8.8-7.6c1.6-1.4,3.1-2.8,4.6-4.3c1.7-1.6,3.3-3.2,4.9-4.8c0.9-0.9,1.8-1.7,2.8-2.5c1.4-1.2,3-2.2,4.4-3.4
		C207.7,111.5,207.6,110.8,206.5,109.8z M182.3,184.3c0.9-0.2,1.6-0.4,2.4-0.6c3.7-1.3,7.5-1.9,11.3-2.2c3.8-0.3,7.6-0.4,11.3-0.4
		c3.6,0,7.3,0.2,10.9,0.2c2.4,0,4.8,0,7.3,0c1.6,0,3.2,0,4.7,0c1.2,0,2.4-0.2,3.3-1.1c0.6-0.5,0.5-1.1-0.3-1.3
		c-0.8-0.2-1.7-0.3-2.5-0.2c-1,0.1-2.1,0.4-3.1,0.5c-5.2,0.3-10.5,0.6-15.7,0.7c-5.1,0.1-10.2,0.2-15.2,0.8c-3.7,0.5-7.4,1.2-11,2.3
		c-1,0.3-2.1,0.5-3.2,0.7c0-0.1-0.1-0.1-0.1-0.2C182.3,183.7,182.3,184,182.3,184.3z M166.1,141.4c0.1,0.1,0.1,0.2,0.2,0.3
		c0.7-0.4,1.3-0.8,2-1.2c2.8-1.9,5.7-3.7,8.5-5.7c2.2-1.6,4.4-3.4,6.4-5.2c3.3-3.1,6.5-6.2,9.6-9.4c1.9-2,3.7-4.1,5.7-6
		c1.6-1.6,3.3-3.2,5-4.8c0.7-0.7,1.3-1.4,1.9-2.1c0-0.1-0.1-0.1-0.1-0.2c-0.2,0.1-0.4,0.1-0.6,0.2c-2.6,0.9-4.6,2.6-6.4,4.5
		c-3.1,3.3-6.1,6.7-9.1,10.1c-1.8,1.9-3.5,3.9-5.4,5.8c-2.5,2.4-5.1,4.8-7.7,7c-2.2,1.8-4.5,3.3-6.8,4.9
		C168.2,140.2,167.1,140.8,166.1,141.4z M163.4,146c-0.1,0-0.1,0-0.2,0c0,0.3-0.1,0.6-0.1,0.9c-0.1,2,0.8,3.7,1.6,5.4
		c1.1,2.4,2.3,4.7,3.3,7.1c0.4,1,0.6,2,1,3c1.5,3.8,3.2,7.5,4.7,11.2c0.9,2.3,1.6,4.8,2.4,7.2c0.2,0.5,0.4,1,0.6,1.4
		c1.1-0.5,1.5-1.1,1.3-2.2c-0.2-1.1-0.6-2.3-1-3.4c-0.9-2.1-2.1-4.1-3-6.2c-2.4-5.7-4.6-11.4-7-17.2c-0.7-1.8-1.6-3.5-2.4-5.2
		C164.3,147.4,163.9,146.7,163.4,146z M128.6,177.3c-0.3-0.6-0.8-1.5-1.4-2.4c-0.3-0.5-0.7-0.4-1,0.1c-0.7,0.9-1.1,2-1,3.1
		c0.1,1.1,0.3,2.3,0.6,3.4c0.5,1.6,1.1,3.2,1.7,4.7c0.8,2.1,2.4,3.3,4.4,4c0.2,0.1,0.5,0.1,0.7,0c0.7-0.1,1-0.6,0.8-1.3
		c-0.2-0.5-0.4-1-0.7-1.4c-0.6-1.2-1.4-2.3-1.9-3.6C129.9,182,129.3,179.8,128.6,177.3z M131.8,162.6c-1,1.3-1,1.8-0.2,2.9
		c0.1,0.1,0.2,0.3,0.3,0.5c1.4,2.9,2.8,5.8,4.2,8.7c2.2,4.7,4.4,9.3,6.7,14c0.7,1.5,1.5,2.9,2.4,4.5c0.2-0.3,0.3-0.5,0.4-0.6
		c0.4-1.2-0.1-2.2-0.6-3.2c-0.7-1.4-1.6-2.7-2.4-4.1c-1-1.6-1.7-3.4-2.5-5.1c-2-4.7-4.3-9.3-6.5-14
		C132.9,165,132.4,163.9,131.8,162.6z M143.7,158.5c-0.1,0-0.2,0.1-0.3,0.1c0.1,0.4,0,0.9,0.2,1.3c0.2,0.6,0.6,1.2,0.9,1.8
		c1.2,2.8,2.4,5.5,3.7,8.3c2.5,5.3,5,10.6,7.6,15.9c0.2,0.5,0.6,0.9,0.9,1.3c0.1,0,0.2-0.1,0.2-0.1c-0.4-1.3-0.8-2.6-1.3-3.9
		c-0.8-1.8-1.7-3.6-2.5-5.4c-1.1-2.5-2.2-5.1-3.4-7.6c-1.2-2.8-2.4-5.7-3.7-8.5c-0.4-0.8-0.9-1.6-1.4-2.4
		C144.3,158.9,144,158.7,143.7,158.5z M221.4,145.6c0.1,0,0.3-0.2,0.5-0.3c1.7-1.7,1.7-4.7-0.5-6.3c-0.3-0.2-0.9-0.2-1.3-0.1
		c-1.2,0.5-2.2,1.3-2.8,2.5c-0.7,1.3-0.7,2.6,0.2,3.5C218.4,145.7,220.1,146.1,221.4,145.6z M137.3,161.8c-0.1,0.1-0.2,0.1-0.2,0.2
		c4.1,8.4,8.1,16.9,12.2,25.3c0.5,1.1,1.2,2.2,1.8,3.3c0,0,0.1,0,0.3,0.1c0-0.3,0.1-0.5,0-0.7c-0.2-2.3-1.3-4.2-2.4-6.1
		c-0.7-1.3-1.6-2.4-2.3-3.6c-1.2-2.3-2.3-4.7-3.3-7.1c-1.1-2.6-2.1-5.2-3.3-7.8C139.5,163.8,138.7,162.5,137.3,161.8z M148.7,190.9
		c0.3-1.1,0-2.2-0.5-3.2c-0.8-1.7-1.8-3.4-2.7-5.1c-0.9-1.9-1.8-3.8-2.7-5.7c-2.2-4.7-4.4-9.4-6.6-14c-0.2-0.5-0.5-0.9-0.8-1.3
		c-0.7,0.6-0.3,1.1-0.1,1.6c0.5,1.1,1,2.2,1.5,3.2c1.2,2.5,2.3,5.1,3.5,7.6c1.6,3.4,3.3,6.8,5,10.2
		C146.5,186.5,147.6,188.7,148.7,190.9z M155.2,188.7c0-0.2,0-0.3,0-0.4c-0.8-2-1.5-4.1-2.4-6c-0.9-2-2.2-3.7-3.1-5.7
		c-1.7-3.7-3.2-7.4-4.7-11.2c-0.3-0.8-0.6-1.6-1-2.3c-0.7-1.2-1.4-2.5-2.7-3.3C142.1,162.9,153.2,185.8,155.2,188.7z M143.2,193.5
		c-0.3-2-1-3.6-1.9-5.2c-1.1-2-2.2-4-3.3-6c-0.7-1.3-1.1-2.7-1.8-4.1c-1.1-2.4-2.2-4.8-3.3-7.1c-0.6-1.3-1.2-2.5-1.9-3.7
		c-0.4-0.7-1-1.3-1.6-2C129.4,166.8,140.7,189.8,143.2,193.5z M223.9,151.9c0.4-0.3,0.8-0.6,1.2-1c0.8-0.8,1-2.2,0.6-3
		c-0.5-1-1.7-1.5-2.9-1.1c-1,0.3-2,0.8-2.9,1.4c-0.7,0.4-0.7,1.2-0.1,1.9c0.4,0.5,0.9,0.9,1.3,1.3
		C221.9,152.1,222.8,152.3,223.9,151.9z M139.7,160.7c-0.1,0-0.2,0.1-0.3,0.1c0.1,0.4,0.2,0.9,0.4,1.3c0.4,0.8,0.9,1.6,1.3,2.5
		c1,2.2,1.9,4.4,2.9,6.5c1.9,3.9,3.8,7.8,5.7,11.7c1,2,2.2,4,3.2,6.1c0-2-0.9-3.7-1.8-5.3c-0.9-1.7-2-3.3-2.9-5.1
		c-0.8-1.7-1.5-3.4-2.2-5.1c-1.3-3-2.6-6.1-4.1-9C141.3,163.1,140.8,161.7,139.7,160.7z M217.5,139c1.6-0.7,2.7-2.8,2.3-4.5
		c-0.3-1.3-1.1-1.9-2-1.4c-1.6,0.7-2.7,2-3.1,3.7C214.4,138.7,215.7,139.7,217.5,139z M226.9,158.1c0.2-0.1,0.4-0.1,0.6-0.3
		c0.8-0.5,1.4-1.5,1.3-2.1c-0.1-0.6-1.2-1.7-1.9-1.5c-1.2,0.2-2.4,0.5-3.4,1.1c-1,0.6-0.9,1.3-0.1,2.2
		C224.2,158.5,225.5,158.7,226.9,158.1z M215,127c-0.4,0.4-1.2,1-1.9,1.8c-0.4,0.4-0.8,1-1,1.6c-0.3,1,0.5,1.9,1.6,1.8
		c2-0.2,3.4-2.3,3.2-4.5C216.8,126.7,216.3,126.4,215,127z M134.2,164.4c4.1,9,8.2,17.9,12.8,26.7c0.1-0.1,0.1-0.2,0.1-0.3
		c-1.4-2.9-2.7-5.9-4.1-8.8c-1.5-3.2-3.2-6.3-4.7-9.5C137,169.7,135.9,166.9,134.2,164.4z M228.6,164.3c0.5-0.4,1.1-0.8,1.5-1.4
		c0.6-0.7,0.2-1.5-0.7-1.4c-1.2,0.1-2.5,0.3-3.6,0.6c-0.9,0.3-1,1-0.2,1.6C226.4,164.5,227.4,164.7,228.6,164.3z M210.3,125.3
		c1.6-1,2.7-2.2,3.2-3.9c0.1-0.2,0-0.6-0.1-0.6c-0.2-0.1-0.6-0.1-0.7,0c-1.1,1-2.2,1.9-3.2,3c-0.3,0.3-0.1,0.9-0.2,1.4
		C209.7,125.2,210,125.2,210.3,125.3z M231.9,169.2c0-0.1,0.1-0.2,0.1-0.4c-0.6-0.6-1.3-1-2.2-1.1c-0.2,0-0.4,0.1-0.6,0.2
		c0.1,0.2,0.2,0.6,0.3,0.7C230.3,168.8,231.1,169,231.9,169.2z M210.7,115.8c-0.1-0.1-0.1-0.2-0.2-0.2c-0.6,0.5-1.2,1-1.7,1.4
		c0.1,0.1,0.1,0.2,0.2,0.2C209.9,117.2,210.2,116.4,210.7,115.8z"/>
	<path d="M235.8,109.1c2.8-1,5.3-0.5,7.7,0.7c2.4,1.2,4.4,3.1,6.4,5c1.8,1.7,3.4,3.6,4.9,5.6c1.9,2.4,3.3,5.2,4.6,8
		c0.4,1,0.3,2-0.1,3c-0.7,2-2,3.5-3.8,4.7c-0.9,0.6-1.8,1.1-2.9,1.2c-1.4,0.1-2.5-0.4-3-1.6c-0.1-0.3-0.3-0.6-0.3-0.9
		c-0.2-2.4-1.5-4.3-2.6-6.3c-2-3.5-4.4-6.7-7.8-8.9c-1.3-0.8-2.8-1.4-4.2-2.1c-0.3-0.2-0.7-0.3-1-0.4c-1.5-0.8-1.8-1.3-1.4-2.9
		c0.3-1.7,0.9-3.4,2.5-4.4C235.1,109.5,235.5,109.3,235.8,109.1z M250.5,133.5c-0.1,0-0.1,0-0.2,0.1c0.2,0.4,0.3,0.7,0.5,1.1
		c0.7,1.3,1.6,1.6,3,0.9c1.3-0.6,2.1-1.6,2.6-2.8c1-2.2,1.1-4.2-0.6-6.2c-0.2-0.3-0.4-0.6-0.6-1c-1.1-2.5-2.4-5-4.1-7.2
		c-2.2-2.9-4.8-5.4-8.2-7c-0.7-0.3-1.4-0.6-2.1-1c-1-0.6-2.1-0.8-3.2-0.8c-1.4,0.1-2.6,1.1-3,2.4c-0.4,1.2,0.1,2.4,1.3,3.3
		c2.3,1.9,4.6,3.7,6.8,5.8c2.7,2.6,5,5.5,6.4,9C249.6,131.3,250,132.4,250.5,133.5z"/>
	<path d="M147,159.6c-0.3-0.7,0.1-1.3,1-1.7c0.7-0.3,1.4,0,1.7,0.7c0.4,0.9,0.1,2.4-0.5,2.7C148.6,161.4,147.4,160.6,147,159.6z
		 M149.1,160c0.1-0.1,0.2-0.3,0.3-0.4c-0.3-0.3-0.6-0.5-0.8-0.8c-0.1,0.2-0.4,0.5-0.3,0.5C148.5,159.6,148.8,159.8,149.1,160z"/>
	<path d="M156.9,175.6c0,0.6,0.2,1.2,0.1,1.7c0,0.3-0.6,0.7-0.7,0.7c-0.6-0.4-1.3-0.9-1.5-1.5c-0.1-0.5,0.4-1.2,0.8-1.7
		C155.9,174.4,156.5,174.8,156.9,175.6z"/>
	<path d="M151.2,167.9c-0.3-0.7,0.4-2.1,1-2.1c0.2,0,0.6,0.2,0.7,0.4c0.4,0.9,0.5,1.8,0.1,2.7c-0.2,0.5-0.5,0.5-0.9,0.2
		C151.8,168.7,151.5,168.2,151.2,167.9z"/>
	<path d="M160.4,183.3c0,0.1,0.1,0.2,0.1,0.4c0.2,0.9-0.1,2-0.6,2.1c-0.4,0.1-1.3-0.7-1.5-1.5c-0.2-0.5,0.4-1.4,1-1.7
		C160,182.4,160.2,182.8,160.4,183.3z"/>
</g>
</svg>
