<?xml version="1.0" encoding="utf-8"?>
<!-- Generator: Adobe Illustrator 17.1.0, SVG Export Plug-In . SVG Version: 6.00 Build 0)  -->
<!DOCTYPE svg PUBLIC "-//W3C//DTD SVG 1.1//EN" "http://www.w3.org/Graphics/SVG/1.1/DTD/svg11.dtd">
<svg version="1.1" id="Layer_1" xmlns="http://www.w3.org/2000/svg" xmlns:xlink="http://www.w3.org/1999/xlink" x="0px" y="0px"
	 viewBox="0 0 288 216" enable-background="new 0 0 288 216" xml:space="preserve">
<g>
	<path d="M131.9,138.8c1.5,0.1,2.5,0.7,3.3,1.9c1.9,2.9,2.8,6,2.6,9.4c-0.2,3.9-1.9,7-6.4,6.9c-2.8-0.1-5.2-1.6-5.9-4.3
		c-0.4-1.2-0.4-2.6-0.6-3.9c-4.3,0.6-8.1-0.8-11.4-3.3c-2.7-1.9-4.7-4.5-6.1-7.6c-0.9-2-1.6-4.3-4.1-5.1c-0.6-0.2-0.9-0.3-1.5,0
		c-1.9,0.9-3.9,1.1-5.8,0c-3.7-2-6.1-5.3-7.5-9.1c-0.5-1.2-0.3-2.8-0.1-4.2c0.1-0.8,0.1-1.4-0.2-2.1c-1-2.4-2.2-4.8-2.8-7.4
		c-0.8-3.5-1.3-7-1.6-10.5c-0.3-3.6,0.2-7.3,1.2-10.8c0.1-0.4,0-1-0.2-1.4c-0.7-1.3-1.6-2.4-2.2-3.7c-0.9-2-0.3-3.1,1.8-3.9
		c1.6-0.7,3.2-1.5,5.1-2.4c-0.6-0.4-0.8-0.6-1.1-0.7c-1-0.4-2.1-0.8-3.1-1c-1.2-0.3-1.3-1-1.3-2c0-0.4-0.2-1-0.6-1.2
		c-2.3-1.7-4.6-3.5-7-5c-2.3-1.4-4.6-2.7-7-3.9c-2.2-1-4.5-1.7-6.7-2.6c-4.6-1.9-5.8-6.4-2.7-10c1.8-2.1,4.3-2.7,6.9-2.9
		c4.2-0.3,8,1,11.7,2.7c4.2,1.9,8.3,4.2,12.1,7c0.4,0.3,1.2,0.3,1.7,0.4c0.5,0.1,1.1,0.1,1.5,0.4c1.5,0.9,3,1.9,4.5,2.8
		c0.5,0.3,1.2,0.2,1.9,0.4c0.1-0.5,0.3-1.1,0.2-1.6c-0.7-5-0.3-10,1.3-14.8c1-3.1,3-5.4,6.1-6.7c2.2-0.9,4.6-1.2,6.4-2.9
		c1.6-1.5,3.3-2.9,4.9-4.4c0.2-0.1,0.2-0.5,0.2-0.7c0-0.8-0.1-1.7,0.1-2.5c1.2-4.1,4.1-6.4,7.9-6.2c2.6,0.1,4.8,2.4,4.3,4.6
		c-0.3,1.2-1.4,2.2-2,3.2c5.9,1.8,11.3,4.9,14.7,10.4c2.1-0.9,4-1.8,6-2.5c2.1-0.7,3.8-0.1,4.8,1.3c1.4,2.1,1.1,4.2,0.1,6.3
		c-1,2.1-3,2.7-5.1,2.6c-1.2,0-2.5-0.4-3.8-0.7c0.3,2.4-1,4.3-1.8,6.4c-0.3,0.8-0.5,1.7-0.4,2.5c0.1,2,0.5,3.9,0.4,5.9
		c0,2.8-0.8,5.4-3.1,7.2c-0.7,0.5-1.3,1.1-1.9,1.7c3.4,0.9,3.4,1,6.1,0.5c0.5-0.1,1-0.3,1.5-0.3c3.4-0.2,6.7-0.1,10.1,0.5
		c4.6,0.9,8.9,2.5,12.6,5.4c1.7,1.4,3.3,2.9,3.5,5.3c0.3,3.4-1.6,6.2-4.9,7.3c-2.4,0.8-4.8,0.5-7-0.3c-5-1.7-10-1.9-15.2-1.1
		c-0.8,0.1-1.3,0.4-1.6,1.3c-0.8,2.1-2.1,2.6-4.3,2.1c-1.5-0.3-3.1-0.2-4.7-0.2c-0.6,0-1,0.4-0.7,1c0.6,1,1.2,2,2,2.8
		c1.3,1.2,1.7,1.2,0.1,3.1c-0.1,0.1-0.2,0.2-0.3,0.3c-0.9,0.6-0.9,1.3-0.6,2.3c0.7,2.1,1.3,4.1,1.8,6.2c0.9,3.7,1.1,7.5,0.8,11.2
		c-0.4,5.7-2.6,10.5-7.4,13.8c-1.5,1.1-3.2,1.9-5,2.9C127.5,136.9,129.3,138.6,131.9,138.8z M101.8,68.7c-1.3,2.1-0.3,3.7,0.8,5.3
		c1.2,1.8,2,2,4,1.4c5.3-1.5,10.6-3.1,15.9-4.5c3.6-0.9,7.1-0.7,10.6,0.5c0.7,0.3,1.8,0.2,2.5-0.1c2.3-1.1,4.3-2.7,5.9-4.7
		c1.6-2.1,1.7-4.6,1.6-7.1c-0.1-1.3-0.3-2.5-0.5-3.7c-0.3-2,0.8-3.5,1.6-5.2c1.3-2.7,1.2-5.4,0.1-8.1c-2-4.9-5.7-8.2-10.5-10.3
		c-2-0.9-4-1.6-6.1-2c-4-0.8-7.5,0.5-10.2,3.6c-2.5,2.9-5.7,4.5-9.3,5.4c-2.3,0.6-3.6,2.1-4.6,4.2c-2.6,5.6-2.7,11.5-2.1,17.5
		c0.3,2.8,0.8,5.7,1.2,8.5c0,0.2,0,0.5-0.1,0.7c-0.1,0-0.2,0-0.3,0.1C102.3,69.7,102.1,69.2,101.8,68.7z M119.4,77.4
		c-0.1-0.1-0.1-0.1-0.2-0.2c-1.4,1.1-2.8,2.2-4.2,3.2c-0.1-0.1-0.2-0.2-0.3-0.3c0.8-0.8,1.5-1.7,2.4-2.4c1.6-1.3,3.3-2.6,5.6-2.8
		c1.7-0.2,3.2-1.1,4.9-1.5c1.7-0.4,3.4-0.7,5.1-1c0-0.1,0-0.2,0.1-0.3c-1.5-0.2-3-0.7-4.5-0.6c-2.7,0.2-5.3,0.5-7.9,1
		c-2.3,0.5-4.5,1.6-6.7,2.1c-3.1,0.8-6.3,1.4-9.4,2c-0.8,0.2-1.4-0.3-1.9-1c-1.6-2.7-3.2-5.4-4.6-8.3c0.8,0.8,1.6,1.6,2.6,2.5
		c0.9-2.5,1.3-4.9,0.1-7.5c-1.8,1.2-3.2,2.5-4.1,4.4c-0.7,1.4,0.6,2.1,1.2,3.1c0.9,1.4,1.9,2.7,2.8,4c-0.1,0.1-0.2,0.2-0.3,0.3
		c-1.3-1.4-2.5-2.8-3.9-4.3c-0.4,0.5-0.9,0.9-1,1.4c-1.1,3.5-3.7,5.6-6.5,7.5c-1.4,1-3,1.7-4.6,2.4c-0.9,0.4-1.1,0.9-0.8,1.6
		c0.6,1.4,1.2,2.9,1.9,4.5c0.7-1.5,1.3-2.7,2-4c-0.8-0.4-1.7-0.9-2.6-1.3c0-0.1,0-0.2,0.1-0.3c0.4,0.1,0.9,0,1.3,0.2
		c2,1.1,4.2,2.1,5.9,3.6c3.2,2.7,6.1,5.8,9.4,8.4c5.3,4.2,11.3,7,18.1,8.1c5,0.8,9.7-0.1,14.1-2.4c1.2-0.6,2.2-1.8,3.1-2.6
		c-1.2-1.8-2.1-3.2-3.3-4.9c-0.6,0.7-1.3,1.4-1.9,2.2c-0.8,1-1.5,2-3.2,2.2c0.8-0.9,1.4-1.5,2.1-2.2c-2.3,0.8-4.5,2.1-7.1,1.3
		c3.3-0.9,6.5-1.8,9.3-4.1c-1.1,0.1-2.2,0.3-3.3,0.4c0-0.1,0-0.3-0.1-0.4c2.8-1.6,6-0.8,8.7-1.2c-0.6-1.8-1.4-3.6-1.8-5.4
		c-0.6-2.9-0.5-5.9,0.1-8.8c0.4-1.9,1.1-3.5,3.7-4.4c-1.6,0.4-3.1,0.8-4.7,1.2c-2.5,0.6-5,1.3-7.6,1.6c-3.1,0.4-5.4,1.9-7.7,3.8
		c-0.8,0.7-1.6,1.2-2.4,1.9c-0.1-0.1-0.2-0.2-0.2-0.2C118,79,118.7,78.2,119.4,77.4z M85.3,91.3c-0.7,3.4-0.9,6.9-0.6,10.3
		c0.4,5.4,1.6,10.6,4.2,15.4c0.1,0.2,0.3,0.3,0.5,0.6c2.4-2.6,5.2-2.9,8.3-1.4c0.7-1.7,1.1-3.4,2-4.8c1-1.6,2.3-3,3.7-4.2
		c1.6-1.4,3.7-1.4,5.5-0.7c2.5,1,5,2.3,7.2,3.8c1.9,1.3,3.5,3.1,5.2,4.7c0.4,0.4,1,0.7,1.5,0.8c1.6,0.4,2.6,1.5,3.4,2.8
		c-1-0.6-1.9-1.1-2.9-1.7c-0.1,0.1-0.2,0.1-0.3,0.2c0.2,0.4,0.4,0.9,0.7,1.3c1.3,2.1,2.1,4.4,2.1,7c0,5.7-4.5,9.3-10.4,7.2
		c-2.9-1-5.4-2.4-7-5.1c-1.6,1.4-3.1,2.7-4.6,4.1c1.7,1.4,3.6,2.3,5.7,2.7c2.8,0.5,5.7,0.9,8.6,0.8c7.7-0.4,13.9-3.7,17.7-10.6
		c1.1-2.1,1.6-4.6,1.9-7c0.4-4.2-0.1-8.4-1.3-12.5c-0.5-1.7-1-3.4-1.5-5.2c-1.4,0.7-2.5,1.6-3.8,2c-1.8,0.6-3.7,1-5.5,1.2
		c-4.6,0.4-9.1-0.3-13.4-1.9c-6.5-2.5-12.1-6.3-16.9-11.4c-1.8-1.9-3.8-3.5-5.8-5.2c-0.3-0.2-0.6-0.4-0.9-0.6
		C86.4,86.2,85.8,88.7,85.3,91.3z M98.2,118.2c-1.2-1.2-2.5-2.2-4.4-2.1c-2.5,0.1-5.6,2.8-4.7,5.7c1.1-0.9,2.4-1.1,3.5-0.5
		c1.3,0.6,2.7,1.3,3.6,2.4c1.4,1.6,2.6,3.5,3.6,5.4c0.5,0.8,0.4,2,0.6,3.2c4.9-1.8,8.2-5.7,11-10.1c0.1,1.2-0.4,2.5-1.7,3.9
		c-0.6,0.7-0.6,1.1-0.1,1.8c2.2,3.1,8,5.1,11.6,3.9c2.2-0.8,3-2.7,3.4-4.7c0.8-3.7-0.6-6.9-2.7-9.8c-2.8-4-6.6-6.9-10.9-9
		c-2-1-4.1-1.8-6.4-0.7c-1.5,0.7-2.6,1.7-3.4,3.2c-0.8,1.6-1.5,3.4-2.2,5.1c-0.3,0.8-0.3,1.5,0.5,2.2c1.4,1.1,2.4,2.6,3,4.3
		c0.1,0.4,0.2,0.9,0.3,1.3C101.2,121.6,99.8,119.8,98.2,118.2z M137.9,87.4c0.2,0.8,0.6,1,1.5,0.8c5.1-1.3,10.2-2.3,15.5-1.7
		c2.8,0.3,5.4,1.2,8.2,1.8c2.1,0.5,4.1,0.4,6.1-0.7c2.9-1.5,3.7-4.7,2.1-7.5c-1-1.8-2.6-3-4.3-4.1c-4.8-2.8-10-4.5-15.6-4.3
		c-3.4,0.2-6.8,0.4-10.2,0.9c-3.6,0.5-3.5,1.2-4.3,4.6c-0.3,1.2-0.2,2.5-0.2,3.8c-0.1,0-0.2,0.1-0.3,0.1
		C136.8,83.2,137.3,85.3,137.9,87.4z M90.6,58.6c-1-0.7-1.8-1.4-2.7-1.9c-4.1-2.2-8.2-4.5-12.5-6.3c-3.7-1.6-7.7-2.1-11.7-1.1
		c-2.9,0.7-4.4,2.7-4.7,5.6c-0.2,1.5,0.4,3,1.8,3.8c1.8,1,3.7,2.1,5.7,2.7c4.6,1.4,8.7,3.8,12.7,6.5c1.7,1.1,3.4,2.3,5.5,3.7
		C84.6,66.2,85.8,61.7,90.6,58.6z M108.4,137.8c1.7,2.5,3.4,5.1,6,6.9c4,2.6,8.1,4.1,12.9,2.3c0.4-0.1,0.8-0.2,1.1-0.3
		c0.4-0.1,0.7-0.3,1-0.5c0.1,0.1,0.1,0.2,0.2,0.3c-0.9,0.6-1.8,1.1-2.6,1.7c-0.4,0.3-0.9,0.8-1,1.3c-0.4,2.2,0.2,4.2,1.9,5.7
		c1.8,1.5,4,1.7,6.1,0.7c1.9-0.9,2.4-2.7,2.5-4.5c0.2-3.6-0.3-7.1-2.3-10.2c-0.5-0.7-1-1.2-2-1.3c-2.8-0.4-5.1-1.8-6.9-4
		c-0.5-0.6-0.9-0.7-1.6-0.4c-3.8,1.2-7.7,1.6-11.6,0.8c-1.7-0.4-3.4-0.8-5.4-1.2C107.4,135.9,107.8,136.9,108.4,137.8z M98.4,62.5
		c-1.7-1.2-3.4-2.5-5.1-3.6c-0.4-0.2-1.1-0.1-1.5,0.1c-3.7,2-5.7,5.1-6.1,9.3c-0.1,1.6-0.3,3.1-0.6,4.7c-0.2,1,0,1.6,1.1,1.8
		c1.2,0.3,2.3,0.8,3.4,1.2c0.3,0.1,0.9,0,1.2-0.2c1.4-1.2,2.7-2.5,3.3-4.4c0.3-0.9,0.9-1.7,1.5-2.7C94,65.8,97,64.5,98.4,62.5z
		 M154.4,44.3c1-1.7,0.9-3.4-0.2-5.1c-0.7-1.1-1.6-1.5-2.8-1.3c-2.2,0.4-4.1,1.3-5.8,2.6c-0.5,0.4-0.7,0.9-0.4,1.5
		c0.3,0.7,0.7,1.5,0.7,2.2c0,1.7,1.1,2.2,2.4,2.3c0.4,0.1,0.8,0.1,1.3,0.2C151.4,46.4,153.3,46.2,154.4,44.3z M127.4,29.1
		c1.5-0.1,3.2-1.7,3.3-3.1c0.1-1.6-1.3-3.1-3.2-3.6c-3-0.8-4.9,1-6.3,3.6c-0.6,1.2-1.3,2.4-0.9,3.7
		C122.8,29.5,125.1,29.3,127.4,29.1z M98.5,128.3c-1.3-2.4-2.9-4.5-5.3-5.9c-0.7-0.4-1.6-0.6-2.5-0.6c-1.1,0-1.6,1.1-1.1,2.2
		c1.3,3,3.4,5.5,6.2,7.3c0.5,0.3,1.1,0.5,1.6,0.7c1.3,0.4,1.7,0.1,1.9-1.3C99.1,129.8,98.9,129,98.5,128.3z M143.7,88.3
		c-1.5,0.4-2.8,0.8-4.3,1.3C141.4,91.2,142.7,90.8,143.7,88.3z"/>
	<path d="M114.8,50.3c-1,0-1.2,0.6-1.2,1.4c-0.1,3.2,0.5,6.1,2.1,8.8c1.2,2.1,3,3.3,5.4,3.4c3,0.2,5.8-0.7,8.2-2.5
		c0.3-0.2,0.4-0.9,0.5-1.4c0.1-0.4,0.1-0.8,0.2-1.2c0.2,0,0.3,0,0.5,0c0,1.8,1.7,3,1.8,4.8c-0.1,0-0.2,0.1-0.3,0.1
		c-0.5-0.7-1-1.4-1.5-2.1c-2.8,1.7-5.5,3.4-8.2,5c-1.9,1.1-3.6,0.7-5-0.8c-2.2-2.4-2.9-5.6-3.8-8.5c-0.7-2.2-0.6-4.5-1-6.9
		c-0.5-0.1-1.1-0.2-1.8-0.3c0-0.1,0-0.3,0-0.4c1.6,0,3.2,0,5,0C115.3,50,115.1,50.3,114.8,50.3z M122.4,66.2c-1-1.1-2.3-1-3.6,0.3
		C120,66.3,121.2,66.2,122.4,66.2z M119,64.7c-0.8-0.5-1.7-1.1-2.5-1.6c-0.1,0.1-0.2,0.1-0.3,0.2c0.5,0.8,0.9,1.7,1.4,2.6
		C118.3,65.4,118.7,65.1,119,64.7z"/>
	<path d="M120.4,51.1c0.1,1.2,0.5,2.5,1.8,3.2c1.5,0.8,3,0.2,4.4-0.5c0.9-0.5,1-1.7,0.5-2.5c-0.9-1.3-2.1-2.3-3.7-2.7
		C121.5,48,120.3,48.9,120.4,51.1z"/>
	<path d="M130.4,52.9c0-2.1-3.1-5.3-5.9-6.2c-2.2-0.7-4.7-0.5-5.5,0.5c2.4-0.3,4.6-0.1,6.7,1C127.7,49.3,129.2,51,130.4,52.9z"/>
	<path d="M115.8,42.4c-0.8-0.4-1.5-0.9-2.2-1.3c-0.1,0.1-0.1,0.2-0.2,0.3c1,0.9,2,1.9,3,2.8c0.8-1,1.3-0.4,1.7,0.2
		c0.4,0.6,0.7,1.2,1.3,2.1c0.2-1.8-0.7-3.3-2.2-4c0.8,0.1,1.6,0.2,2.5,0.3C118.8,41.4,117.2,41.3,115.8,42.4z"/>
	<path d="M141.4,48.6c0.7-0.8,1-1.8,0.7-2.8c-0.4-1.2-1-2.2-1.6-3.3c-0.1-0.2-0.7,0-1,0c-0.1,0-0.1,0.6,0,0.7
		c1.7,1.2,1.3,3.1,1.6,4.7c0,0.2,0.1,0.4,0.1,0.6C141.2,48.5,141.3,48.6,141.4,48.6z"/>
	<path d="M131.7,53.2c1.4,0,2.8-0.7,3.6,0.8c-0.4,0.1-0.8,0.2-1.2,0.3c0,0.1,0,0.2-0.1,0.3c1.3,0.6,2.5,1.2,4.1,2
		c-0.2-0.5-0.3-0.7-0.5-0.9c-0.7-0.9-1.4-1.7-2-2.5C134.8,52.1,133.1,52,131.7,53.2z"/>
	<path d="M127.5,34.6c-0.7-1.9-4.7-1.8-6.3,0C123.3,34.6,125.4,34.6,127.5,34.6z"/>
	<path d="M122.4,68.3c-1.8,0.8-3.3,1.5-4.9,2.2c-0.1,0-0.1,0.3-0.1,0.5C119.2,71.3,121.4,70.1,122.4,68.3z"/>
	<path d="M136.5,53.5c0-1.8-0.4-2.4-1.7-2.4C135.4,51.9,135.9,52.6,136.5,53.5z"/>
	<path d="M124.3,72.6c-1.5,0.4-3,0.8-4.4,1.3c-2.3,0.8-4.6,1.8-7,2.7c-2.6,0.9-5.2,1.8-7.9,2.8c2.2-0.3,4.4-0.6,6.5-1.4
		c2.2-0.8,4.3-1.7,6.5-2.5c2.1-0.8,4.3-1.5,6.4-2.2C124.4,73,124.4,72.8,124.3,72.6z"/>
	<path d="M103.1,83.6c-1.9-2.4-4.5-3.6-7.4-4.4c-0.1,0.1-0.1,0.2-0.2,0.3c1.3,0.6,2.6,1.1,3.9,1.8C100.7,82.1,101.9,82.9,103.1,83.6
		z"/>
</g>
<g>
	<path d="M236.6,166.1c1.9-0.3,3.7-0.4,5.3-1.5c0.4-0.3,0.8-0.5,1.3-0.2c0.6,0.3,1,0.1,1.5-0.5c0.8-1,1.7-2,2.6-2.9
		c0.6-0.5,1.4-0.4,2-0.1c1.3,0.7,2.5,1.5,3.7,2.2c0.4,0.2,0.7,0.6,0.9,1c0.3,0.5-0.1,1-0.5,1.2c-1.2,0.9-2.6,1.4-4.1,1.6
		c-1.4,0.2-2.7,0.1-3.9-0.5c-0.8-0.4-1.6-0.9-2.3-1.5c-0.3-0.3-0.5-0.3-0.9,0c-1.3,1-2.6,2-4,2.8c-2.4,1.3-5,2.3-7.7,2.6
		c-2.1,0.3-4.2,0.4-6.3,0.7c-0.5,0.1-1,0.2-1.5,0.3c-0.2,0-0.4,0-0.7,0c0-0.1,0-0.1-0.1-0.2c0.3-0.2,0.6-0.4,1-0.5
		c3-1.3,5.4-3.3,6.9-6.3c0.5-1,0.9-2.1,1-3.3c0.1-0.9-0.1-1.8-0.4-2.7c-0.6-1.9-1.8-3.5-3.4-4.7c-0.2-0.2-0.7-0.2-0.9-0.1
		c-3.1,1.3-6.4,1.8-9.7,1.9c-1,0-2-0.1-3-0.1c-0.2,0-0.5,0-0.7,0c-0.1,0.8,0.7,1.8,1.6,2.1c0.6,0.2,1.3,0.3,2,0.4
		c0.8,0.1,1.7,0.2,2.5,0.4c0.9,0.2,1.4,1,1.2,2c-0.2,1-0.6,2-1.3,2.8c-1.9,2.2-4.4,3.4-7.2,4.1c-2.2,0.5-4.2-0.1-6.3-0.7
		c-0.4-0.1-0.7-0.2-1.1-0.3c-0.2,0.4-0.3,0.8-0.5,1.2c-1-0.6-1.9-1.2-2.9-1.6c-1.3-0.6-2.6-1.2-3.9-1.8c-0.4-0.2-0.7-0.1-0.9,0.2
		c-1,1.4-2,1.2-3.4,0.5c-2.6-1.3-5.4-2.2-8.2-2.9c-3.7-0.9-7.5-1.3-11.3-1.2c-5.3,0.1-10.3,1.2-14.9,3.9c-3.7,2.1-6.5,5.1-8.4,8.8
		c-0.1,0.2-0.2,0.5-0.4,0.6c-0.1,0.2-0.3,0.3-0.5,0.5c-0.1-0.3-0.4-0.6-0.3-0.8c0.2-0.8,0.5-1.6,0.9-2.3c1-2.2,2.6-4,4.4-5.7
		c2.9-2.7,6.4-4.2,10.2-5.2c3-0.8,6-1.1,9-1.3c0.7,0,1.4-0.2,2.1-0.2c0.1-1-0.1-1.2-1-1.2c-1.2,0-2.4,0-3.6,0c-3.7,0-7.3-0.7-10.8-2
		c-2.1-0.9-4.1-2-5.9-3.6c-0.9-0.8-1.8-1.5-2.6-2.4c-1.1-1.2-2-2.6-2.8-4.1c-1-2-1.6-4-2-6.2c-0.5-2.5-0.6-5-0.1-7.5
		c0.3-1.9,0.8-3.8,1.1-5.7c0-0.1,0.1-0.2,0.1-0.2c0.1,0,0.1,0,0.2,0c1,0.8,1.1,0.6,1.4-0.5c0.3-1.1,0.6-2.2,1-3.3c0.1,0,0.2,0,0.2,0
		c0.2,0.2,0.3,0.5,0.5,0.7c0.1,0.2,0.2,0.4,0.4,0.6c0.5,0.7,0.8,0.6,1.2-0.1c0.9-1.7,1.7-3.4,2.2-5.2c0.7-2.7,2.4-4.7,4.6-6.4
		c1.4-1.1,3.1-1.2,4.8-1.5c1.1-0.1,2.1-0.1,3.2,0.2c0.3,0.1,0.8,0,1.1-0.1c1.5-0.2,2.9-0.6,4.4-0.7c0.8-0.1,1.6,0.2,2.4,0.4
		c0.5,0.1,1.1,0.3,1,0.9c0,0.6-0.5,1-1,1.3c-1,0.4-2.1,0.9-3.1,1.4c-0.5,0.2-1.2,0.5-1,1.2c0.1,0.4,0.5,0.8,0.9,1
		c0.7,0.3,0.7,0.7,0.4,1.2c-0.1,0.2-0.2,0.5-0.3,0.7c1.1,1,2.3,0.6,3.3-0.7c1.1-1.5,1.8-3.2,2.5-4.8c0.7-1.6,1.1-3.4,1.5-5.1
		c0.4-1.6,0.6-3.2,0.8-4.8c0.1-0.4,0.3-0.6,0.6-0.7c3.1-1,6.2-1.3,9.4-1c2.6,0.2,5.1,0.6,7.6,1.4c2.5,0.8,5,1.8,7.2,3.3
		c1.4,1,2.6,2.3,3.8,3.5c0.6,0.7,1.1,1.5,1.6,2.3c0.1,0.2,0.1,0.7-0.1,0.9c-1.6,2-2.9,4.2-3.6,6.7c-0.3,1.1-0.5,2.3-0.7,3.5
		c0,0.2,0.2,0.5,0.4,0.7c1.1,0.8,2.3,1.6,2.9,2.8c1.3,2.6,1.1,5.2-1.6,6.9c-0.2,0.1-0.4,0.3-0.7,0.4c-1.3,0.7-1.5,1-1.2,2.6
		c0.3-0.1,0.6-0.1,0.9-0.2c3-1.6,6.4-2.3,9.7-3c0.3-0.1,0.7-0.2,0.9-0.4c0.7-0.7,1.1-0.8,2-0.5c0.2,0.1,0.5,0.2,0.7,0.3
		c0.4,0.1,0.7,0.1,1-0.3c2.1-2,4.5-3.7,7.2-4.9c0.8-0.4,1.5-0.3,2.2,0.3c1.4,1.1,1.8,2.6,2.1,4.1c0.1,0.5,0.1,1.1,0.2,1.6
		c0,0.2,0.2,0.5,0.4,0.5c0.4,0.2,0.8,0.3,1.3,0.4c1.3,0.3,1.1,0.2,1.4,1.7c0.1,0.3,0.1,0.5,0.1,0.8c-0.1,1.5,1.2,2,2.1,2.8
		c1.5,1.5,3.2,2.9,4.5,4.5c1.6,2,2.4,4.3,2.6,6.9c0.2,2.6-0.1,5-1.2,7.3c-0.7,1.6-1.9,2.9-2.9,4.3c-0.6,0.8-1.4,1.4-2.1,2.1
		c-0.8,0.7-1.5,1.4-2.3,2.1C236.7,165.7,236.7,165.8,236.6,166.1z M186,149.5c0.5,0.2,0.8,0.3,1.1,0.4c0.4,0.1,0.7,0.3,1,0.5
		c0.3,0.1,0.6,0.3,0.4,0.7c-0.2,0.4-0.3,0.7-0.8,0.4c-0.3-0.2-0.7-0.3-1.1-0.4c-1.6-0.3-1.2-0.7-2.1,0.5c-0.3,0.5-0.3,0.7,0.2,1
		c1,0.5,1.9,1,2.9,1.5c0.5,0.3,0.8,0.1,1-0.4c0.8-2.3,2-4.4,3.3-6.4c1.9-2.8,4-5.3,6.6-7.3c0.4-0.3,0.4-0.5-0.1-0.8
		c-0.3-0.2-0.5-0.7-0.8-1c0.3-0.1,0.7-0.3,1-0.4c2.1-0.2,4.1-0.7,5.4-2.6c0.6-0.9,0.9-2.3,0.4-3c-0.7-0.9-1.6-1.3-2.7-1.1
		c-0.6,0.1-1.2,0.4-1.8,0.6c-0.4,0.2-0.9,0.6-1.2,0c-0.1-0.3,0.3-0.8,0.5-1.2c0,0,0.1,0,0.1-0.1c0.9-0.7,2.1-0.8,3.1-1.1
		c0.2,0,0.5-0.2,0.5-0.3c-0.1-0.7-0.1-1.4-0.3-2c-0.8-1.5-2.3-2.2-3.7-2.8c-3.2-1.4-6.7-1.7-10.1-2.1c-0.4-0.1-0.9,0-1.3,0
		c1.4,1.3,2.2,2.8,2.1,4.8c-0.3-0.1-0.5-0.3-0.6-0.5c-0.3-0.4-0.5-0.9-0.7-1.4c-0.6-0.9-1.3-1.7-2.5-1.5c-0.6,0.1-1.2,0.4-1.8,0.6
		c-0.3,0.1-0.7,0.1-1,0.2c0-0.1,0-0.2-0.1-0.2c0.5-1,1.5-1.5,2.4-2.2c-1-0.1-1.9-0.2-2.8-0.3c-1.6-0.2-3.3-0.4-4.9-0.6
		c-1.1-0.1-2.3-0.3-3.4-0.5c-0.4-0.1-0.8,0-0.9,0.5c-0.1,0.5,0.1,0.8,0.5,1c0.7,0.3,1.2,0.8,1.3,1.6c0,0.2-0.1,0.4-0.1,0.6
		c-0.2-0.1-0.4-0.1-0.6-0.2c-0.2-0.2-0.4-0.4-0.6-0.6c-0.6-0.5-2-0.2-2.3,0.4c-1.7,3.4-2.4,7.1-2.6,10.8c0,0.9,0.3,1.1,1.1,0.7
		c1-0.5,2-1.1,3-1.6c0.4,0.3,0.4,0.6,0.1,1c-1.1,1.2-2.4,2.2-4.1,2.4c-1,0.1-2,0.1-3,0.2c0.2,1.6,1.3,2.7,2.7,3.4
		c2.8,1.3,5.4,0.7,7.6-1.2c0.4,0.3,0.8,0.6,1.1,0.9c3,2.3,6.3,2.4,9.7,1c0.9-0.4,1.7-1,1.9-2.1c-0.6,0.1-1.1,0.2-1.6,0.3
		c-1.2,0.3-2.3,0-3.3-0.6c-1-0.6-1.7-1.5-2.2-2.5c-0.6-1-1.4-1.7-2.5-2.1c-0.2-0.1-0.3-0.3-0.5-0.4c0.2-0.1,0.4-0.4,0.6-0.4
		c1.3,0,2.3,0.7,3,1.7c0.6,0.8,1.2,1.8,2,2.3c2,1.4,4.2,1,6.4,0.1c0.3-0.1,0.6-0.3,1-0.5c-0.7,2.9-2.4,4.9-5,5.9
		c-3.1,1.2-6.1,0.6-8.8-1.2c-0.4-0.3-0.8-0.3-1.3-0.1c-1,0.4-2,0.7-3.1,0.9c-0.7,0.2-1.5,0.2-2.4,0.3c0.5,1.6,1.6,2.6,2.9,3.3
		c4.7,2.8,9.4,3.1,14.4,0.7c-0.3,0.4-0.7,0.8-1.1,1.2C187,148.8,186.6,149.1,186,149.5z M218.3,142.2c-1-1-0.8-2.9-0.3-4.1
		c0.4-0.9,1.2-1.6,1.9-2.2c0.4-0.3,0.3-0.6,0.1-1c-0.1-0.4-0.4-0.3-0.7-0.2c-1.7,0.4-2.9,1.4-4,2.7c-0.3,0.4-0.6,0.6-1.1,0.4
		c-0.5-0.2-0.5-0.6-0.4-1.1c0.1-1,0.8-1.5,1.6-1.9c1.1-0.4,2.2-0.7,3.3-0.9c0.5-0.1,0.6-0.3,0.4-0.7c-0.2-0.4-0.5-0.6-0.9-0.6
		c-1.2,0.2-2.5,0.3-3.7,0.6c-3.7,0.9-7.1,2.3-10.2,4.5c-1.8,1.4-3.4,3-4.7,4.9c-1.2,2-2.2,4-2.6,6.4c-0.4,2.4-0.5,4.9,0.2,7.3
		c0.8,2.6,2.2,4.7,4.6,6.2c1.2,0.8,2.5,1.4,3.8,1.9c2.1,0.7,4.2,0.7,6.4,0.6c1.3-0.1,2.6-0.3,3.6-1.3c0.8-0.8,1.5-1.5,2.2-2.4
		c0.7-1,0.1-2.2-1.2-2.3c-0.7-0.1-1.4-0.2-2.1-0.3c-1.6-0.3-2.8-1-3.1-2.7c-0.1-0.4-0.1-0.8-0.1-1.1c-0.1-1.1-0.1-1.1,0.9-0.9
		c0.1,0,0.2,0.1,0.3,0.1c2.5,0.1,5.1,0.3,7.6-0.2c0.1,0,0.3,0,0.4-0.1c1-1.3,1.3-2.8,1-4.4c0-0.2,0-0.5,0-0.8
		c0.3,0.1,0.8,0.2,0.9,0.4c0.2,0.5,0.4,1.1,0.3,1.7c-0.1,0.9-0.4,1.9-0.7,2.9c0.9-0.3,1.9-0.6,2.9-0.9c-0.2-0.3-0.2-0.5-0.3-0.7
		c0.2-0.1,0.3-0.1,0.4-0.2c0.8-0.3,0.9-0.4,0.6-1.2c-0.5-1.3-1.1-2.6-2.1-3.6c-1.2-1.3-2.3-2.5-3.1-4.1c-0.5-1-0.5-2,0.2-3
		c0.6-0.8,0.3-1.5,0.1-2.4C219,138.7,218.5,140.4,218.3,142.2z M159.6,122.8c0.7-1.2,1.5-2.2,1.4-3.6c-0.1-1.3-0.2-2.7-0.3-4.1
		c0.2,0.2,0.4,0.3,0.6,0.4c0.8,0.6,1.5,1.3,2.4,1.8c1.1,0.8,2.4,0.9,3.7,0.6c0.8-0.2,1.5-0.4,2.3-0.6c0.2,0,0.3-0.1,0.5-0.2
		c0.7-0.4,0.8-0.7,0.2-1.3c-1-1-2-1.9-2.9-2.9c-0.8-1-1.7-1.5-3-1.3c-0.7,0.1-1.4,0.1-2.2,0.1c-0.9,0-1.6,0.4-2.3,0.9
		c-1.4,1.1-2.4,2.5-3.3,4c-1.2,2-1.9,4.1-2.3,6.4c-0.1,0.3-0.2,0.6-0.3,0.8c0,0-0.1,0-0.1,0c-0.1-0.3-0.2-0.6-0.4-1
		c-0.2,0.4-0.4,0.8-0.6,1.1c-0.4,0.8-0.4,1,0.4,1.6c2,1.5,4.2,2.4,6.5,3c0.8,0.2,1.6,0.3,2.4,0.5c-0.3,0.7-0.7,1.2-0.9,1.8
		c-0.2,0.4-0.4,1.1-0.2,1.3c0.5,0.5,0.4,1.1,0.5,1.7c0.1,1.8,0.3,3.5,1.3,5.1c0.9,1.4,1.9,2.6,3.5,3.2c0.5,0.2,1,0.3,1.5,0.4
		c-2.2-1.8-4.1-3.6-3.9-6.8c1,0.2,2,0.3,3,0.5c0.4-2.2,0.6-4.3,1-6.4c0.5-2,1.2-4,1.9-6c-1-0.2-1.7,0.2-2.5,0.6
		c-1.6,0.9-3.1,1.7-4.9,2.1c-1.1,0.2-2.3,0.2-3,1.5c-0.1-0.1-0.1-0.1-0.2-0.2c0.3-0.7,0.6-1.3,0.8-1.9c0.6,0,1.2,0,1.7-0.1
		c1.6-0.3,3-1,4.3-1.9c1.5-1,3.2-1.6,5-1.6c0.1,0,0.3-0.1,0.4-0.1c-0.1-0.6-0.4-1.1-0.9-1.3c-0.8-0.2-1.6-0.4-2.4-0.4
		c-0.9,0-1.9,0.3-2.8,0.5c0-0.3,0-0.6,0.1-0.9c0.2-0.6-0.1-0.8-0.7-1c-0.6-0.2-1.1-0.5-1.6-0.8c-0.4-0.2-0.7-0.4-1-0.6
		c-0.2,1.1-0.3,2.1-0.6,3.1C161.5,121.8,160.7,122.5,159.6,122.8z M201.5,139.3c0,0-0.1-0.1-0.1-0.1c-0.6,0.5-1.2,1-1.8,1.5
		c-2.3,2.3-4.5,4.7-6.3,7.3c-1.7,2.4-3.2,4.8-4.4,7.5c-0.2,0.5-0.5,0.7-1,0.4c-2.1-0.9-4-1.9-5.8-3.3c-0.4-0.3-0.8-0.5-1.4-0.9
		c0.5,3.1,1.7,5.6,3.2,8c0.5,0.8,1.1,1.2,1.9,1.4c0.5,0.1,1.1,0.3,1.6,0.6c2,0.9,4,1.8,6,2.8c0.6,0.3,1,0.4,1.5-0.2
		c0.1-0.1,0.2-0.2,0.3-0.3c0.5-0.7,1.2-0.8,2-0.6c0.8,0.2,1.5,0.3,2.5,0.4c-0.2-0.3-0.3-0.5-0.4-0.6c-0.3-0.4-0.7-0.8-1-1.1
		c-1.8-2-2.8-4.4-3.1-7.1c-0.3-2,0-4.1,0.6-6c0.8-2.7,2.1-5.2,4-7.3C200.3,140.7,200.9,140,201.5,139.3z M183.7,112.1
		c0.8,0.1,1.6,0.2,2.3,0.3c2.1,0.4,4.2,0.7,6.3,1.2c0.5,0.1,0.7,0,0.9-0.4c0.6-1.2,1.1-2.5,1.8-3.7c0.9-1.8,1.9-3.6,2.9-5.4
		c0.2-0.4,0.1-0.5-0.2-0.7c-0.2-0.1-0.4-0.2-0.6-0.2c-3.1-1-6.4-1.3-9.6-1.4c-0.9,0-1,0.2-1.2,1.1c-0.2,1.4-0.5,2.7-0.8,4.1
		C184.9,108.6,184.3,110.3,183.7,112.1z M230.7,141.2c-0.1-0.2-0.3-0.4-0.5-0.6c-1.5-1.3-3.2-2-5-2.6c-0.3-0.1-0.6-0.4-0.8-0.6
		c0.3-0.1,0.7-0.3,1-0.2c1.3,0.2,2.4,0.8,3.4,1.6c0.9,0.8,1.7,1.7,2.6,2.5c0.3,0.2,0.8,0.4,1,0.3c0.8-0.4,1.6-0.9,1.9-1.8
		c0.3-0.9,0.6-1.9,0.7-2.8c0.1-0.5,0.2-1.3-0.5-1.7c-0.7-0.3-1.5-0.7-2.2-0.9c-3.1-0.8-6.2-1-9.3-0.9c-0.4,0-0.8,0.1-1.1,0.2
		c0.4,1.3,0.8,2.6,1,3.8c0.2,0.8,0.4,1.4,1.2,1.6c0.2,0.1,0.5,0.3,0.7,0.4c1,0.8,1.9,1.7,2.4,2.8c0.1,0.2,0.5,0.4,0.6,0.3
		C228.7,142.3,229.7,141.8,230.7,141.2z M198.3,118.5c0,0,0.1-0.1,0.1-0.1c-0.1-0.1-0.3-0.3-0.4-0.4c-2.4-1.5-5-2.5-7.7-3.3
		c-3-0.8-6-1.2-9.1-1.2c-0.9,0-1.8,0.1-2.7,0.3c-0.2,0-0.3,0.3-0.5,0.5c0.2,0.1,0.4,0.2,0.6,0.3c2.6,0.2,5.2,0.3,7.9,0.5
		c1,0.1,1.9,0.3,2.9,0.4c0,0.1,0,0.1,0,0.2c-0.2,0-0.4,0-0.5,0c-2.1-0.1-4.3-0.1-6.4-0.2c-0.3,0-0.7,0.2-0.9,0.4
		c-0.5,0.5-0.9,1-1.2,1.6c-0.4,0.6-0.9,0.9-1.5,0.9c-0.9,0-1.8,0-2.8,0c-0.2,0-0.5,0-0.7,0.1c0.1,0.2,0.2,0.2,0.3,0.2
		c2.2,0.3,4.4,0.6,6.6,0.8c4.8,0.3,9.6,0.5,14.5,0.7c2.2,0.1,4.3,0.4,6.3,1.2c0.2,0.1,0.4,0.1,0.6,0.1c-3.9-2.1-8.2-2.3-12.5-2.9
		c0.3-0.7,0.6-1.1,0.7-1.6c0.1-0.7,0.5-0.7,1-0.5c1.6,0.6,3.3,1.2,4.9,1.9C197.8,118.3,198,118.4,198.3,118.5z M171.2,156.4
		c1,0,2,0,3,0c0.2,0,0.5-0.3,0.5-0.4c-0.1-0.3,0.1-0.9-0.6-0.8c-0.6,0.1-1.3,0-1.9,0c-3.5,0-6.8-0.6-10-1.9c-2.7-1-5.2-2.5-7.2-4.7
		c-1.9-2-3.4-4.2-4.3-6.8c-0.6-1.8-1.1-3.6-1.3-5.5c0-0.7-0.1-1.3-0.3-2c-0.1-0.3-0.5-0.5-0.7-0.7c-0.2,0.3-0.5,0.5-0.7,0.8
		c-0.1,0.1,0,0.4,0,0.5c0,0.9,0.1,1.8,0.2,2.7c0.4,4.5,2.2,8.5,5.3,11.8c2.1,2.2,4.6,3.9,7.4,5C164,155.9,167.5,156.6,171.2,156.4z
		 M243.9,151.3c-0.1-0.6-0.2-1.7-0.4-2.8c-0.6-2.8-2.1-5.1-4-7.2c-0.8-0.9-1.9-1.5-2.9-2.3c-0.1-0.1-0.4-0.1-0.5-0.1
		c-0.2,0.3-0.4,0.6-0.4,0.9c0,0.2,0.2,0.5,0.4,0.7c0.1,0.1,0.3,0.2,0.5,0.3c2.3,1.6,3.9,3.8,4.9,6.3c1,2.5,1.3,5.1,0.5,7.8
		c-0.7,2.2-1.9,4-3.6,5.5c-0.3,0.3-0.6,0.7-0.9,1.1c-0.2,0.4,0,0.7,0.5,0.6c0.4-0.1,0.8-0.2,1-0.4c0.9-0.9,1.9-1.7,2.6-2.7
		C243.1,157,243.9,154.5,243.9,151.3z M193,121.7c0,0.1,0,0.1,0,0.2c0.2,0,0.3,0.1,0.5,0.1c3.3,0.5,6.6,1.2,9.4,3.1
		c1.7,1.2,2.6,2.4,1.6,4.4c-0.3,0.6-0.2,0.9,0.3,1.3c0.2,0.2,0.4,0.4,0.6,0.7c0.3,0.5,0.6,0.5,1,0.3c1.3-0.8,2.1-1.9,2.2-3.4
		c0.1-2-1.2-3.1-2.7-4c-3.1-1.8-6.5-2.2-9.9-2.4C195,121.8,194,121.7,193,121.7z M227.6,152.4c3.6,3.2,5.1,7,4.4,11.8
		c0.8-0.2,1.6-0.3,2.3-0.5c0.8-0.3,0.9-1.2,0.3-1.8c-0.6-0.6-0.6-1.1-0.1-1.8c0.2-0.3,0.3-0.7,0.2-1c-0.4-1.2-0.8-2.5-1.3-3.6
		c-0.8-1.6-1.9-3-3.4-3.9c-0.2-0.1-0.6-0.2-0.8-0.1C228.6,151.6,228.1,152,227.6,152.4z M150.3,123.8c-0.1,0.3-0.3,0.5-0.3,0.7
		c-0.1,0.9-0.2,1.7-0.3,2.6c-0.1,0.6,0.2,1,0.7,1.4c1.3,0.8,2.5,1.6,3.8,2.3c1.7,0.9,3.6,1.2,5.4,1.4c0.2,0,0.4-0.2,0.5-0.4
		c0.2-0.6,0.4-1.1,0.6-1.7c0.2-0.5,0-0.7-0.5-0.8c-1.1-0.2-2.2-0.4-3.2-0.7c-1.9-0.6-3.7-1.5-5.1-3
		C151.4,125,150.9,124.5,150.3,123.8z M231.5,132.5c0.1-0.8-0.2-1.9-0.8-3.2c-0.6-1.2-1.5-1.6-2.7-1.1c-1.4,0.6-2.8,1.3-4.2,2.1
		c-0.9,0.5-1.7,1.2-2.5,1.9c-0.2,0.1-0.3,0.6-0.2,0.7c0.1,0.2,0.5,0.4,0.7,0.5c0.1,0.1,0.3-0.1,0.5-0.1c1.8-0.3,3.6-0.6,5.4-0.7
		C228.9,132.4,230.2,132.5,231.5,132.5z M204.6,120.3c0.1-0.2,0.2-0.3,0.2-0.5c0.5-1.2,0.8-2.4,1.4-3.5c0.8-1.5,1.8-3,2.7-4.4
		c0.4-0.5,0.4-1-0.1-1.4c-0.1-0.1-0.3-0.3-0.4-0.4c-0.6-0.6-0.8-0.6-1.2,0c-0.9,1.2-1.8,2.5-2.5,3.8c-0.8,1.5-1.4,3-2,4.5
		c-0.1,0.2,0,0.6,0.2,0.8c0.3,0.4,0.7,0.6,1.1,0.9C204.3,120.1,204.4,120.2,204.6,120.3z M178.4,159.3c-0.1-0.2-0.2-0.4-0.3-0.6
		c-0.3-0.4-0.6-0.7-0.8-1.1c-0.2-0.3-0.3-0.6,0.2-0.8c0.7-0.4,1.4-0.8,2.1-1.2c0.6-0.4,0.7-0.6,0-1c-0.8-0.5-1.7-1-2.6-1.4
		c-0.5-0.3-0.7-0.5-0.3-1c0.4-0.6,0.8-1.3,1.1-1.9c0.2-0.4,0.1-0.8,0.1-1.2c-0.4,0.2-0.9,0.2-1.1,0.5c-0.6,0.8-1.1,1.6-1.5,2.5
		c-0.5,1.2-0.5,1.3,0.6,1.9c0.6,0.3,1.1,0.7,1.8,1c-0.4,0.3-0.7,0.6-1,0.8c-0.3,0.3-0.5,0.5-0.8,0.8c-0.4,0.3-0.4,0.6-0.2,1.1
		C176.3,159,176.8,159.3,178.4,159.3z M173,110.6c-1.1,0.2-2.1,0.3-3.1,0.6c-1.8,0.6-1.8,0.7-0.4,2c0,0,0.1,0.1,0.1,0.1
		c0.2,0,0.4,0.1,0.5,0.1c0.9-0.8,2.1-0.9,3.1-1.4c0.4-0.2,0.6-0.6,0.9-0.9C173.7,110.9,173.3,110.8,173,110.6z M182,150.4
		c0,0.1-0.1,0.2-0.1,0.3c0.4,0.2,0.8,0.5,1.2,0.5c0.3,0,0.5-0.6,0.8-0.9c0-0.1-0.1-0.1-0.1-0.2C183.1,150.3,182.5,150.4,182,150.4z
		 M167.4,119.4c0.8-0.1,1.6-0.1,2.4-0.2C169.3,118.6,169.1,118.6,167.4,119.4z"/>
	<path d="M197,171.1c0.5,0.8,0.9,1.6,1.4,2.3c1.2,2,2.8,3.7,4.6,5.2c4.1,3.4,9,5.4,14.1,6.7c2.8,0.7,5.7,1.1,8.7,1.1
		c5,0.1,10-0.4,14.8-2c3.3-1.1,6.5-2.5,9.3-4.6c1.5-1.1,2.9-2.3,4.3-3.6c0.2-0.2,0.3-0.6,0.3-1c-0.2-2.5,0.1-4.9,0.8-7.2
		c0.4-1.3,0.7-1.4,1.9-0.7c1.6,0.9,3.2,1.9,5,2.6c1.7,0.7,3.4,1.7,4.5,3.3c0.6,0.9,1.3,1.7,2,2.6c1.2,1.6,0,3.5-1.7,3.9
		c-0.1,0-0.3-0.1-0.4-0.1c-1.9-0.7-3.8-1.6-5.8-2.2c-1.6-0.4-3.2-0.4-4.8-0.5c-0.3,0-0.7,0.3-1,0.5c-1.1,1-2.1,2.1-3.3,3
		c-2.2,1.8-4.6,3.1-7,4.4c-1,0.5-2.1,0.8-3.1,1.1c-1.2,0.4-2.5,0.9-3.8,1.2c-3.1,0.7-6.2,1.2-9.4,1.5c-2.9,0.2-5.8,0-8.7-0.4
		c-3.3-0.5-6.5-1.3-9.5-2.8c-1.3-0.6-2.7-1.3-3.9-2.1c-4.1-2.8-7.1-6.6-8.7-11.3c-0.1-0.2-0.1-0.4-0.2-0.6
		C197.1,171.4,197,171.3,197,171.1C197,171.1,197,171.1,197,171.1z M256.9,169.5c-0.3,0.2-0.6,0.4-0.7,0.6c0,0.2,0.2,0.5,0.4,0.7
		c0.2,0.2,0.5,0.2,0.8,0.3c1.9,0.7,3.8,1.5,5.4,2.7c1.6,1.2,3,2.6,4.2,4.2c0.2,0.3,0.6,0.5,0.9,0.7c0.4,0.2,0.6,0,0.6-0.4
		c0-0.3,0-0.6-0.2-0.8c-0.7-1-1.3-2.1-2.2-3c-1.8-1.8-3.9-3.1-6.3-4C259,170.1,258,169.8,256.9,169.5z"/>
	<path d="M183.5,176.5c1.7,2,3.8,3.3,6,4.2c1.5,0.6,3.1,1.1,4.7,1.4c2.2,0.4,4.5,0.5,6.8,0.7c0.3,0,0.6,0.1,0.9,0.1
		c0,0.1,0,0.1,0,0.2c-0.6,0.2-1.1,0.4-1.7,0.5c-1.1,0.2-2.3,0.6-3.4,0.5c-1.4,0-2.9-0.4-4.3-0.7c-2.1-0.4-3.9-1.5-5.7-2.6
		c-0.9-0.6-1.6-1.5-2.4-2.3c-0.7-0.7-0.7-0.6-1.5-0.2c-1,0.5-1.9,0.9-2.9,1.3c-0.7,0.3-1.3,0-1.7-0.7c-0.6-0.9-0.9-0.9-1.7-0.2
		c-1.3,1-2.7,1.9-4,2.8c-0.9,0.6-1.7,1.3-2.6,1.9c-2.5,1.6-5,3.1-7.4,4.6c-0.5,0.3-1,0.4-1.5,0c-0.4-0.3-0.8-0.2-1.2,0.3
		c-0.7,0.9-1.5,1.9-2.4,2.7c-0.2,0.2-0.8,0.3-1.2,0.2c-1.6-0.5-3.1-1.3-4.3-2.5c-0.4-0.3-0.8-0.6-1.2-1c0.4-1.8,2.2-3,4.1-2.8
		c2.5,0.3,4.7,1,6.8,2.4c0.4,0.3,0.6,0.2,0.9-0.1c3.1-2.8,6.5-5.2,10-7.4c1.3-0.8,2.7-1.5,4.1-2.3c0.5-0.3,0.9-0.2,1.2,0
		c0.4,0.3,0.9,0.6,1.2,1c0.4,0.4,0.8,0.5,1.3,0.2c0.9-0.5,1.7-1.1,2.6-1.7C183.1,177,183.2,176.7,183.5,176.5z"/>
	<path d="M150.7,179.3c-0.3,1.5-0.6,3.2-1,4.9c-0.1,0.4-0.3,0.7-0.8,0.5c-2.1-0.9-4.3-1.8-6.4-2.7c-1.4-0.6-2.5-1.6-3.6-2.7
		c-0.9-1-1.8-2.1-2.7-3.2c-0.8-1.1-0.8-1.7,0-2.7c0.2-0.2,0.3-0.4,0.5-0.6c0.6-0.7,1-0.8,1.9-0.4c1.8,0.7,3.5,1.6,5.3,2.1
		c1.7,0.5,3.4,0.6,5.2,0.9c0.5,0.1,0.8,0.2,1,0.8C150.2,177.1,150.4,178.1,150.7,179.3z M137.1,174.1c-0.5,0-0.7,0.3-0.6,0.7
		c0.1,0.5,0.3,1,0.6,1.3c0.7,0.9,1.4,1.8,2.3,2.6c2.1,1.9,4.5,3.3,7.2,4.2c0.6,0.2,1.3,0.2,1.9,0.3c0.1,0,0.4-0.2,0.4-0.4
		c0-0.2-0.1-0.4-0.3-0.5c-0.1-0.1-0.4-0.2-0.5-0.3c-1.7-0.8-3.4-1.4-5-2.4c-1.3-0.8-2.4-1.9-3.5-3c-0.7-0.6-1.2-1.4-1.8-2.1
		C137.5,174.4,137.3,174.2,137.1,174.1z"/>
	<path d="M210.3,168.3c2.1,0.2,4.1,0.1,6-0.7c1.9-0.7,3.6-1.8,4.9-3.5c-0.4,2.5-3,4.7-6.7,5.3C212.7,169.7,210.7,169.2,210.3,168.3z
		"/>
	<path d="M221.3,169.3c-1.5,2-5.7,2.5-7,1C216.8,170.7,219.1,170.5,221.3,169.3z"/>
	<path d="M176.5,135.2c-1.6,0-2.4-0.5-2.6-1.8c-0.1-0.4,0-0.8,0.2-1.2c0.4-0.7,0.9-1.3,1.4-1.9c0.1-0.1,0.3-0.1,0.5-0.1
		c0,0.2,0,0.4,0,0.6c-0.3,0.6-0.6,1.1-0.8,1.7c-0.4,1.1,0.2,1.7,1.3,1.5c0.4-0.1,0.7-0.1,1.1-0.1c0.2,0,0.4,0.1,0.4,0.2
		c0,0.1,0,0.4-0.1,0.5C177.4,134.8,176.8,135,176.5,135.2z"/>
	<path d="M197.1,127.2c-0.1-0.2-0.3-0.3-0.4-0.5c0-0.2,0.1-0.5,0.2-0.6c0.7-0.3,1.4-0.6,2.2-0.8c0.1,0,0.4,0.1,0.4,0.3
		c0.1,0.2,0,0.6-0.1,0.6C198.7,126.5,198,126.8,197.1,127.2z"/>
	<path d="M201,127.6c0,0.6-2,1.7-2.5,1.5c-0.4-0.2-0.4-0.7,0-1c0.6-0.3,1.2-0.6,1.9-0.9C200.6,127.2,200.8,127.5,201,127.6z"/>
	<path d="M185.2,128.1c-0.1,0.4-0.3,0.7-0.8,0.8c-0.4,0-1-0.6-0.9-0.9c0.1-0.3,0.5-0.7,0.8-0.8C184.7,127,185.2,127.6,185.2,128.1z"
		/>
	<path d="M173.6,127.1c0,0.7-0.4,1.3-0.8,1.2c-0.3-0.1-0.7-0.4-0.8-0.6c-0.1-0.5,0.4-1.1,0.8-1C173.2,126.6,173.4,126.9,173.6,127.1
		z"/>
	<path d="M197.9,152.2c0.6,0.4,1.1,1,1.7,1.3c0.6,0.3,1.4,0.5,2.3,0.8c-0.1-1.2-0.1-2.1-0.3-3c0-0.2-0.4-0.4-0.7-0.5
		c-0.9-0.5-1.8-1-2.1-2.1c-0.4-1.2,0.2-2.5,1.3-3.5c0.8-0.7,1.7-1.1,2.7-1.3c0.3-0.1,0.6-0.4,0.9-0.6c0.3-0.2,0.5-0.3,0.8-0.5
		c0,0.3,0,0.5,0,0.8c0,0,0,0.1,0.1,0.2c0.4-0.3,0.6-1.2,1.3-0.8c0,0.4-0.2,0.9,0,1.1c0.2,0.2,0.7,0.2,1.2,0.4
		c0.1,1.1,0.3,2.3,0.5,3.6c-0.1,0.1-0.2,0.2-0.3,0.2c-0.1-0.2-0.1-0.4-0.2-0.6c-0.3-0.8-1.1-1-1.8-1.3c-0.1-0.1-0.5,0.1-0.6,0.3
		c-0.2,0.6-0.3,1.3-0.3,2c0,0.2,0.3,0.5,0.5,0.6c0.5,0.3,1,0.5,1.5,0.8c1.4,0.8,1.7,2.3,1.8,3.6c0.1,1.2-0.4,2.2-2.1,2.7
		c-0.9,0.3-0.9,0.3-0.8,1.3c0,0.1,0,0.2,0,0.3c-0.7,0.2-1.1,0-1.2-0.7c-0.1-0.2-0.2-0.4-0.4-0.6c-0.1,0-0.2,0.1-0.2,0.1
		c0.1,0.4,0.2,0.8,0.3,1.2c-0.8,0.2-1,0.2-1.2-0.6c-0.4-1.2-1.4-1.7-2.6-1.2c-0.1,0-0.4,0-0.5-0.1c-0.6-1.2-1.2-2.5-1.8-3.7
		C197.8,152.3,197.8,152.3,197.9,152.2z M204.6,154.1c0.9-0.1,1.1-0.4,1.1-1.1c-0.1-0.6-0.6-1.1-1.3-1
		C204.5,152.7,204.5,153.4,204.6,154.1z M202.4,146.5c0-0.1-0.1-0.1-0.1-0.2c-0.3,0.2-0.8,0.3-1,0.6c-0.2,0.3-0.1,0.7-0.1,1.1
		c0,0.2,0.3,0.3,0.6,0.3c0.1,0,0.3-0.2,0.3-0.4C202.3,147.4,202.3,146.9,202.4,146.5z M203.2,151.4c-0.2,0.2-0.4,0.2-0.4,0.3
		c0,0.8,0.1,1.6,0.2,2.4c0,0.1,0.2,0.2,0.2,0.2c0.1,0,0.2-0.2,0.2-0.3C203.4,153.2,203.3,152.4,203.2,151.4z M203.2,148.8
		c0.1,0,0.1,0,0.2,0c0.2-0.9,0.4-1.7,0.6-2.6C203.3,146.5,203,147.7,203.2,148.8z"/>
	<path d="M210.3,163.2c1.1,0.4,2.2,0.3,3.2,0c0.3-0.1,0.5-0.2,0.8-0.2c0.2,0,0.4,0,0.6,0.1c0,0.2,0,0.5-0.1,0.6
		c-0.7,0.7-3.2,1.1-4.1,0.6c-0.3-0.2-0.4-0.6-0.6-0.8C210.1,163.3,210.2,163.3,210.3,163.2z"/>
	<path d="M207.9,160.6c0.2,0,0.5,0,0.7-0.1c0.9-0.2,1.8-0.5,2.7-0.7c0.2,0,0.4,0,0.6,0.1c0,0.2,0,0.6-0.1,0.7
		c-0.8,0.6-1.8,0.9-2.8,0.7c-0.4-0.1-0.8-0.3-1.2-0.4C207.8,160.8,207.9,160.7,207.9,160.6z"/>
	<path d="M206.7,163.1c-0.9-0.3-1.7-0.6-2.6-0.9c-0.2-0.1-0.2-0.4-0.3-0.7c0.2,0,0.5,0,0.7,0c1,0.2,2.1,0.3,3.1,0.5
		c0.2,0,0.4,0.2,0.7,0.3c-0.2,0.2-0.4,0.4-0.6,0.5c-0.3,0.1-0.6,0.1-0.9,0.1C206.8,163,206.8,163,206.7,163.1z"/>
	<path d="M217.7,152.8c0.5-0.7,0.9-1.4,1.3-2c0.8,0.5,0.6,0.8,0.2,1.5C218.8,153,218.2,153.2,217.7,152.8z"/>
	<path d="M214.6,161.9c-0.2,0-0.4-0.1-0.5-0.1c-0.1,0-0.3-0.2-0.3-0.2c0-0.1,0.1-0.3,0.3-0.3c0.5-0.2,1-0.4,1.6-0.6
		c0.1,0,0.4,0,0.5,0.1c0.1,0.2,0.1,0.5,0,0.5c-0.4,0.3-0.9,0.6-1.4,0.8C214.7,162,214.7,161.9,214.6,161.9z"/>
	<path d="M167.2,116.5c-0.3-0.2-0.6-0.2-0.9-0.5c-0.7-0.7-1.5-1.5-2.1-2.3c-0.2-0.2-0.1-0.5-0.2-0.8c0.3,0,0.7,0,0.9,0.1
		c0.6,0.6,1.1,1.3,1.7,2c0.3,0.4,0.6,0.8,0.9,1.1C167.3,116.4,167.2,116.5,167.2,116.5z"/>
	<path d="M191,160c0.2-0.1,0.5-0.5,0.7-0.5c0.3,0.1,0.8,0.4,0.9,0.7c0.1,0.4-0.3,0.8-0.7,0.7C191.4,161,191,160.8,191,160z"/>
	<path d="M195.4,162.6c-0.4,0.3-0.7,0.6-0.9,0.7c-0.4,0.1-1-0.4-1-0.9c0-0.5,0.5-0.6,0.8-0.6C194.7,161.8,195,162.2,195.4,162.6z"/>
	<path d="M190.5,158c-0.2,0.1-0.4,0.5-0.7,0.5c-0.5,0.1-0.7-0.3-0.8-0.7c0-0.4,0.3-0.7,0.7-0.8C190.2,157,190.4,157.3,190.5,158z"/>
	<path d="M151.1,128.4c-0.3-0.5-0.7-0.8-0.7-1.1c0-0.3,0.5-0.5,0.8-0.7c0.2,0.3,0.6,0.6,0.6,0.9
		C151.9,127.6,151.5,127.9,151.1,128.4z"/>
</g>
<g>
	<path d="M26.1,109c0,12.1,0,24.1,0,36.2c0,1.2-0.2,2.8-0.7,3.6c-1,1.6-2.5,1.2-3.8,0.6c-1.2-0.6-1.5-2.1-1.5-3.8c0-1,0-2,0-2.9
		c0-16-0.1-31.9-0.1-47.9c0-7.7,0-15.4,0-23c0-2.9,0.6-3.6,2.6-3.9c2.1-0.3,3.1,0.4,3.4,2.9c0.2,1.9,0.9,2.7,1.9,3.5
		c15.1,12.5,30.2,25,45.2,37.5c1.3,1.1,2.6,1.8,4.3,1.5c2.4-0.5,3.4,1,3.5,4.6c0,0.5,0,1,0,1.5c0,23.7,0,47.3,0,71
		c0,3.8-0.7,4.9-2.9,5c-2.4,0.1-3.2-1-3.2-4.5c0-14.5-0.1-29,0-43.5c0-2.5-0.6-3.9-2.1-5.2c-14.7-12.1-29.3-24.3-43.9-36.4
		c-0.8-0.6-1.6-1.2-2.7-2.1C26.1,105.6,26.1,107.3,26.1,109z M69.2,132.9c1,0.6,1.8,1.2,2.9,1.9c0.1-2.1,0.7-4-0.8-5.5
		c-2.6-2.6-2.6-2.7-2-7.7c0.9,0.5,1.8,1,2.7,1.5c0.6-4.1,0.7-4.2-1.4-6c-1.1-0.9-1.7-2-1.5-3.8c0.1-1.7-0.3-2.9-1.4-3.8
		c-11.9-9.8-23.9-19.8-35.8-29.7c-0.1-0.1-0.3-0.1-0.7-0.2c-0.2,1.2-0.3,2.5-0.5,3.9c-1-0.6-1.8-1.1-2.7-1.7c-0.7,3-0.3,5.1,1.8,6.4
		c2.1,1.4,1,4.2,1.2,6.9c-1.2-0.7-2-1.1-2.9-1.6c-0.6,4.1-0.6,4.2,1.5,6c1.1,0.9,1.6,2.1,1.4,3.9c-0.1,1.6,0.3,2.7,1.3,3.6
		c11.9,9.8,23.9,19.7,35.8,29.6c0.2,0.2,0.4,0.3,0.9,0.5C69,135.5,69.1,134.3,69.2,132.9z M21.5,101.2c-0.8,2.6-0.7,42.3,0.1,45
		C22.3,142.8,22.2,103.7,21.5,101.2z M76,191.7c0.1,0.1,0.3,0.1,0.4,0.2c0.2-0.4,0.4-0.9,0.4-1.3c0-14.1-0.1-28.2-0.2-42.3
		c0-0.5-0.2-1-0.3-1.5c-0.1,0-0.2,0.1-0.3,0.1C76,161.8,76,176.8,76,191.7z M24.2,84.7c-0.1,1.5-0.1,2.9-0.2,4.5
		c0.8,0.7,1.7,1.5,2.8,2.4C27.1,86.6,27.1,86.6,24.2,84.7z M75.4,131.7c0.9-4.4,0.7-4.9-2.4-6.3C72.7,129.9,72.7,129.9,75.4,131.7z
		 M24.3,74c-0.5,3.8-0.5,3.8,2.4,5.9C27,75.7,27,75.7,24.3,74z M24.1,100.2c0.9,0.7,1.7,1.4,2.6,2.2c0.5-3.9,0.4-4.4-2.6-6.2
		C24.1,97.6,24.1,98.8,24.1,100.2z M75.4,120.1c0.7-3.8,0.7-3.9-2.3-5.6C72.7,118.5,72.7,118.5,75.4,120.1z M23.1,82.5
		c0.7-4.3,0.6-4.4-2-6.1C20.8,82,21.2,81.5,23.1,82.5z M21.3,88c-0.5,4.5-0.5,4.5,2,6.1C23.7,88.6,23.1,88.9,21.3,88z M78.6,128.5
		c0.5-4.4,0.3-5.2-2-6C76.2,127.1,76.2,127.1,78.6,128.5z M75.4,142.5c0.6-3.7,0.6-3.7-2.4-5.8C72.8,140.8,72.8,140.8,75.4,142.5z
		 M76.8,133.9c-0.8,4.3-0.7,4.5,1.9,6.2c0-1.6,0-3.1,0-4.8C78.1,134.9,77.4,134.4,76.8,133.9z"/>
</g>
</svg>
