<?xml version="1.0" encoding="utf-8"?>
<!-- Generator: Adobe Illustrator 17.1.0, SVG Export Plug-In . SVG Version: 6.00 Build 0)  -->
<!DOCTYPE svg PUBLIC "-//W3C//DTD SVG 1.1//EN" "http://www.w3.org/Graphics/SVG/1.1/DTD/svg11.dtd">
<svg version="1.1" id="Layer_1" xmlns="http://www.w3.org/2000/svg" xmlns:xlink="http://www.w3.org/1999/xlink" x="0px" y="0px"
	 viewBox="0 0 288 216" enable-background="new 0 0 288 216" xml:space="preserve">
<g>
	<path d="M82,88c0.1-0.4,0.2-0.7,0.1-1c-1.4,0-2.8,0.1-4.3,0.3c-0.5,0.1-1.1,0.1-1.6,0.2c0.3,0.3,0.3,0.6,0.3,1
		C78.3,88.2,80.1,88,82,88z"/>
	<path d="M98,93.5c-1.5-2.6-3.8-4.1-6.5-5.1c0,0.4-0.1,0.7-0.2,1c1.7,0.7,3.3,1.6,4.8,2.9c1.3,1.2,1.8,2.6,1.8,4.5
		c-0.4-0.1-0.7-0.2-1-0.3c-0.7-0.3-1.4-0.3-2,0.1c-0.6,0.5-1.2,0.5-1.8,0c-0.5-0.4-1.1-0.6-1.7,0.1c-0.2,0.3-0.6,0.6-1.1,0.2
		c-1.8-1.1-2.1-1-3.7,0.3c-0.1,0-0.1,0.1-0.2,0.1c-0.2-0.1-0.4-0.2-0.5-0.3c-0.9-0.9-1.7-1-2.7-0.1c-0.2,0.2-0.4,0.2-0.5,0.2
		c-0.6-0.3-1.2-0.8-1.7-0.7c-0.5,0.1-1,0.6-1.5,1c-0.4-0.3-0.8-0.6-1.2-1c-0.4,0.4-0.8,0.8-1.1,1c-0.9-0.3-1.6-0.6-2.4-0.8
		c-0.8-0.2-1.7,0.4-1.8,1.2c-0.1,0.7-0.3,1.5-0.3,2.2c0,2.6,0,5.1,0,7.7c0,0.5,0,1.1,0,1.7c-2.2,0.1-4.3,0.1-6.4,0.2
		c0-1.2,0-2.2,0-3.3c-0.1-1.2-0.3-2.5-0.3-3.7c0-2.8-0.1-5.5,1-8.1c0.6-1.3,1.3-2.6,2.2-3.7c0.3-0.3,0.5-0.5,0.8-0.7
		c-0.3-0.1-0.5-0.4-0.6-0.7c0,0,0,0,0,0c-0.7,0.4-1.2,1.3-1.7,1.9c-2.1,2.7-2.5,5.9-2.6,9.2c-0.1,2.4,0.2,4.8,0.3,7.2
		c0,0.6-0.1,1.1-0.2,1.7c-0.7,0-1.5,0-2.2,0c-1.2,0.1-1.6,0.5-1.5,1.7c0.1,1.2,0.2,2.3,0.2,3.5c0,0.5,0.2,0.7,0.8,0.8
		c1.3,0.1,1.7,0.8,1.7,2c0,0.9,0,1.8,0,2.8c0,0.7,0,1.4,0,2.1c-0.1,1.1,0.3,1.6,1.4,1.6c0.2,0,0.5,0,0.8-0.1c0,1.3-0.3,2.5,0.3,3.6
		c0.1,0,0.1,0.1,0.1,0.1c1.2-0.2,1.2-0.2,1.3,1c0,0.3,0.1,0.6,0.1,0.9c1,0.1,2.1,0.2,3.1,0.2c0.5,0,1.1-0.8,1.2-1.4
		c0-1.2,0.1-1.3,1.4-1.4c0.1,0.5,0.1,0.9,0.2,1.4c0.1,0.5,0.4,0.8,1.1,0.8c1.2,0,2.3,0,3.6,0c-0.1,1.6-0.2,3.1-0.4,4.6
		c-0.3,2.4-0.6,4.8-0.9,7.3c-0.2,1.6-0.2,3.2-0.2,4.9c0,3.7-0.1,7.4-0.7,11.1c-0.7,4.3-1.6,8.6-2,12.9c-0.7,6.5-1.1,13.1-0.8,19.7
		c0.1,1.4-0.3,2.8-0.3,4.2c0,1.8-0.3,3.7,0.3,5.4c0.1,0.4,0.4,0.8,0.7,1.1c0.8,0.8,1.6,1.5,2.4,2.3c1.2,1.1,2.7,1.1,4.1,1.4
		c0.6,0.1,1.1,0.3,1.7,0.4c0.3,0.1,0.7,0,1,0c1.9-0.5,3.6-1.3,5.1-2.6c0.4-0.4,0.8-1,1-1.6c0.6-1.9,1-3.8,1-5.9
		c0-1.7,0.3-3.4,0.4-5.1c0-2.3-0.1-4.7-0.2-7c-0.1-2.3-0.2-4.6,0-6.9c0.3-3.4,0.3-6.9,0.3-10.3c0-3-0.1-6-0.2-9
		c-0.1-3.2-0.2-6.4-0.3-9.6c-0.2-4.2-0.4-8.3-0.6-12.5c-0.1-1.4-0.1-2.7-0.1-4.1c0-0.4,0.1-0.7,0.6-0.7c0.2,0,0.5-0.1,0.7-0.1
		c1-0.2,1.1-0.4,1.1-1.5c0-1.2,0.1-2.3,0.1-3.5c0.2-2.2,0.4-4.4,0.5-6.7c0-0.5-0.1-0.9-0.1-1.5c0.6,0,1.2,0,1.7-0.2
		c0.5-0.1,1.1-0.3,1.3-0.7c0.3-0.6,0.4-1.3,0.5-2c0.1-0.7,0.3-1.3-0.4-1.9c-0.2-0.1-0.1-0.6-0.1-0.9c0.3-1.6,0.6-3.3,0.9-4.9
		c0.1-0.4-0.1-0.9-0.2-1.5c-0.5,0.6-0.9,0.5-1.2,0.2c-0.4-0.4-0.8-0.3-1.2,0c-0.4,0.3-0.7,0.4-1.1,0c-0.7-0.6-1.5-1-2.5-0.2
		c-0.2,0.1-0.5,0-0.8,0c-0.2,0-0.3-0.1-0.4-0.2c-0.7-0.6-1.4-0.6-2,0.1c-0.3,0.4-0.7,0.3-1.1,0.1c-0.6-0.4-1.3-0.8-2-1.2
		c-0.1,0.1-0.2,0.1-0.3,0.2c-0.7,0.7-1.4,1-2.3,0.2c-0.2-0.2-0.8-0.1-1.3,0c-0.3,0.1-0.6,0.3-1,0.4c-0.4,0.2-0.7,0.2-1-0.1
		c-0.3-0.3-0.7-0.4-1,0c-0.5,0.6-1.1,0.5-1.8,0.3c-1.1-0.3-1.1-0.3-1.3,0.8c-0.2,1.6-0.3,3.2-0.4,4.9c-0.2,0-0.4,0-0.6,0
		c-0.1-3.1-0.1-6.1-0.1-9.2c0-0.3,0.1-0.6,0.2-0.9c0.2-0.5,0.2-1,0.8-1.2c0.7-0.1,1.4-0.1,1.9,0.5c0.1,0.2,0.3,0.3,0.5,0.5
		c0.3-0.2,0.5-0.4,0.7-0.7c0.4-0.5,0.9-0.6,1.4,0c0.4,0.5,0.7,0.4,1.1,0c0.2-0.1,0.3-0.3,0.5-0.4c0.5-0.4,1-0.5,1.4,0.1
		c0.3,0.5,0.6,0.5,1.1,0.1c0.1,0,0.1,0,0.2-0.1c0.9-0.6,1.8-0.8,2.6,0.2c0.3,0.3,0.6,0.4,1,0c1-0.9,2.1-1.1,3.3-0.3
		c0.6,0.4,1.1,0.1,1.5-0.2c0.4-0.3,0.8-0.3,1.2,0c0.7,0.5,1.3,0.5,2.1,0c0.9-0.6,1.8-0.5,2.7,0c0.7,0.4,0.9,0.4,1.2-0.4
		C99,96,98.7,94.7,98,93.5z M71.5,128.6c-0.1,0-0.2,0.1-0.3,0.1c-0.7,0-1.3,0-2-0.1c-0.2,0-0.4-0.3-0.4-0.4c0.1-0.3,0.2-0.8,0.4-0.9
		c0.5-0.2,1.1-0.2,1.7-0.2c0.2,0,0.5,0.2,0.6,0.5c0.1,0.3,0.1,0.7,0.2,1.1C71.6,128.6,71.6,128.6,71.5,128.6z M73.3,126.1
		c-0.2,0-0.3,0-0.5,0.1c-1.8,0.1-3.7,0.3-5.7,0.4c0.1-0.9,0.1-1.7,0.2-2.4c0-0.1,0.3-0.3,0.5-0.3c1.7-0.1,3.5-0.1,5.2-0.2
		c0.7,0,1,0.3,1,0.9c0,0.2,0.1,0.4,0.1,0.6C74.2,126.1,74.2,126.1,73.3,126.1z M69,123c-1.3,0-2.6,0-3.9,0c0-0.3-0.1-0.4-0.1-0.5
		c-0.1-1.5-0.2-3-0.2-4.5c0-0.2,0-0.4,0-0.6c0.1-0.6,0.3-1,1-1c3.5-0.2,7-0.3,10.5-0.5c0,0.3,0.1,0.5,0.1,0.7
		c-0.1,1.7-0.3,3.5-0.3,5.2c0,0.9-0.4,1.2-1.2,1.2C73,122.9,71,123,69,123z M89.6,187.2c0,1.6-0.1,3.2,0,4.8
		c0.1,2.2,0.2,4.4-0.5,6.6c-0.4,1.4-1,2.5-2.4,3.2c-0.7,0.3-1.3,0.8-1.9,1.1c-0.4,0.2-1,0.3-1.4,0.2c-1.1-0.1-2.2-0.3-3.3-0.6
		c-1-0.3-1.9-0.7-2.6-1c-0.4-0.7-0.8-1.3-1.1-1.8c-1.2-2.6-1.2-5.3-1.1-8.1c0.1-1.7,0.2-3.4,0.3-5c0.1-2.2,0.1-4.5,0.3-6.7
		c0.4-4,0.9-8.1,1.3-12.1c0.4-3.7,0.6-7.3,0.9-11c0.1-1.7,0.3-3.5,0.5-5.2c0.2-2.5,0.4-4.9,0.5-7.4c0.1-1.9-0.1-3.8,0-5.7
		c0.1-3,0.4-6,0.6-9c0-0.2,0.3-0.4,0.5-0.4c2.8,0,5.5,0.1,8.3,0.2c0.2,0,0.4,0.3,0.4,0.4c0.1,1,0.1,2,0.1,3c0,1.3-0.1,2.6-0.1,3.9
		c0.1,2.4,0.3,4.8,0.5,7.2c0.1,0.7,0.2,1.5,0.2,2.2c-0.1,2-0.3,4-0.3,6c0,2.9,0.3,5.8,0.4,8.7c0.1,2.1,0,4.2,0,6.4
		c0,1.8,0.1,3.6,0.1,5.5c0,0.6-0.1,1.3-0.1,1.9c0,1.2,0.1,2.3,0.1,3.5c0,2.2-0.2,4.4-0.2,6.5C89.5,185.3,89.6,186.3,89.6,187.2z
		 M92.1,120.2c-0.1,2.4-0.8,4.8-0.5,7.2c0.1,0.5-0.2,0.7-0.6,0.7c-1.9,0.1-3.8,0.1-5.7,0.1c-0.1,0-0.3-0.1-0.5-0.2
		c1.5-0.2,3.1-0.4,4.6-0.5c0.2,0,0.5-0.2,0.7-0.3c0-0.1-0.1-0.2-0.1-0.3c-3.7,0.2-7.3,0.4-11,0.7c0,0.2-0.1,0.4-0.1,0.5
		c-0.9,0.1-1.8,0.1-2.7,0.2c-1.1,0.2-1.5-0.2-1.5-1.2c0-0.7,0-1.5-0.1-2.2c0-0.5,0-1,0.5-1.1c0.3-0.1,0.7,0,1,0c0,0,0.1,0.1,0.1,0.1
		c0.1-0.1,0.2-0.1,0.2-0.2c0.1-0.6,0.2-1.2,0.3-1.8c0.1-1.8,0.2-3.6,0.3-5.4c0-0.4,0.1-0.6,0.6-0.6c2.4,0,4.8,0,7.2,0
		c1.5,0,2.9,0,4.4-0.1c0.8,0,1.6,0,2.3,0c0.2,0,0.6,0.3,0.6,0.4C92.2,117.5,92.2,118.9,92.1,120.2z M95.6,113.7
		c-0.1,0.6-0.3,1-1,1.1c-1.1,0.2-2.3,0.3-3.4,0.2c-2.3-0.1-4.5,0.1-6.8,0.2c-0.8,0-1.5-0.1-2.3,0c-3.2,0.1-6.4,0.1-9.7,0.2
		c-2.4,0.1-4.8,0.2-7.2,0.3c-0.3,0-0.6-0.1-0.8-0.2c-0.8-1.1-0.6-2.2-0.3-3.3c0.2-0.8,1-0.5,1.5-0.5c0,0,0,0,0.1,0
		c1.5,0,2.9-0.1,4.4-0.1c1.6-0.1,3.2-0.2,4.8-0.3c1.2-0.1,2.4-0.1,3.6-0.1c1.4,0,2.8,0.3,4.2,0.3c1.8,0,3.6-0.1,5.4,0
		c2,0.1,4,0.4,6,0.5C95.9,112.1,95.9,112.1,95.6,113.7z M76,110.6c0-0.1,0-0.1,0-0.2c0.9,0.1,1.7,0.1,2.4,0.2
		C77.8,110.6,76.9,110.6,76,110.6z M81.7,110.6c0.2,0,0.3-0.1,0.5-0.1c0.8,0,1.5,0,2.3,0c3.3,0,6.7,0,10,0c0.5,0,0.7,0.3,0.7,0.8
		c-4.5-0.2-9-0.3-13.5-0.5C81.7,110.7,81.7,110.7,81.7,110.6z M75,105.5c0-0.6,0.4-0.8,0.9-0.6c0.6,0.3,1,0,1.5-0.3
		c0.2-0.1,0.5-0.2,0.7-0.1c0.7,0.5,1.3,0.3,1.9-0.1c0.8-0.5,1.5-0.4,2.2,0.2c0.2,0.2,0.4,0.3,0.6,0.4c1.6-1.1,1.6-1.1,3.2,0
		c0,0,0.1,0,0.1,0.1c0.5,0.6,1.1,0.4,1.5-0.1c0.6-0.6,1.2-0.7,1.8-0.1c0.5,0.5,1,0.4,1.4,0c0.7-0.6,1.3-0.4,1.8,0.2
		c0.5,0.6,0.9,0.5,1.5,0.1c0.2-0.2,0.6-0.3,0.7-0.3c0.4,0.4,1.1,0.9,1.1,1.4c-0.1,1.1-0.5,2.2-0.7,3.4c-1.5,0-3.1,0.1-4.7,0.1
		c-2,0-4-0.1-6-0.1c-2.8,0-5.6-0.1-8.5-0.1c-0.6,0-1-0.2-1-0.8C75,107.7,75,106.6,75,105.5z M73.9,110.4c0.6,0,1.2,0,1.8,0
		c0,0.1,0,0.2,0,0.2c-1.4,0.1-2.8,0.2-4.3,0.3c-0.7,0-1.4,0-2.1,0c-1.4,0-2.7,0.2-4.1,0.1c-1.4,0-2,0.6-1.9,2c0.1,0.6,0,1.1,0.1,1.8
		c-0.7,0.1-1.1,0-1.1-0.7c0-0.8-0.1-1.5-0.2-2.3c-0.1-0.9,0.4-1.5,1.4-1.4c1.2,0,2.4,0.1,3.6,0.1C69.4,110.4,71.7,110.4,73.9,110.4z
		"/>
	<path d="M84.5,199.4c-1.9,1.2-4,1.1-5.2-0.3c-0.5-0.6-0.8-1.3-0.9-2c-0.6-3.6-0.9-7.1-0.5-10.8c0.3-2.4,0.6-4.8,0.8-7.3
		c0.2-2.5,0.4-5.1,0.7-7.6c0.4-3.5,0.8-7.1,1.1-10.6c0.2-1.8,0-3.7,0.1-5.5c0.1-1.9,0.3-3.8,0.5-5.8c0.1-1.3,0-2.6,0.2-3.9
		c0.6-4.6,0.9-9.2,0.9-13.8c0-0.3-0.3-0.5-0.5-0.8c-0.2,0.2-0.4,0.5-0.4,0.7c-0.1,1.1,0,2.3-0.1,3.4c-0.2,2.1-0.4,4.2-0.6,6.3
		c-0.2,2.7-0.4,5.3-0.6,8c-0.2,2.7-0.5,5.5-0.7,8.2c-0.1,1.3,0,2.7-0.1,4.1c-0.4,4.3-0.9,8.5-1.3,12.8c-0.2,1.8-0.3,3.5-0.4,5.3
		c-0.1,1.5-0.3,3-0.4,4.5c-0.3,4.2-0.9,8.5,0.1,12.7c0.4,1.7,1.2,3,2.8,3.8c1.6,0.8,3.2,0.5,4.4-0.8C84.5,200,84.5,199.7,84.5,199.4
		z"/>
	<path d="M81.3,89.9c0-0.1,0-0.2,0-0.3c0.1-0.2,0.2-0.5,0.3-0.7c-1.9,0.1-3.7,0.4-5.6,0.6c0.2,0.3,0.3,0.7,0.2,1
		C77.9,90.1,79.6,89.9,81.3,89.9z"/>
	<path d="M71.1,96.8c-0.6,0.2-0.7,0.6-0.7,1.1c0.1,2.3,0.1,4.7,0.1,7c0,0.7,0,1.5,0,2.2c0,0.2,0.3,0.4,0.5,0.5
		c0.1,0,0.4-0.2,0.4-0.4c0.1-0.7,0.1-1.3,0.1-2c0-1.2,0-2.3,0-3.5c0-1.3-0.1-2.5-0.1-3.8C71.4,97.6,71.2,97.2,71.1,96.8z"/>
	<path d="M77.2,124.4c0.5-1.2,0.6-2.5,0.6-3.8c0-0.5,0.1-1.1,0.4-1.6c0.2-0.4,0.7-0.9,1.2-1c3.6-0.4,7.3,0.2,10.9,0.3
		c0.2,0,0.5,0.4,0.5,0.6c-0.1,1.5-0.3,3-0.5,4.4c-0.2,1.3-0.6,1.7-1.9,1.8c-1.7,0.2-3.3,0.4-5,0.5c-1.5,0.1-3,0.2-4.5,0.3
		c-0.4,0-0.8,0.1-1.2,0.1C76.9,125.7,76.9,125,77.2,124.4z M84.8,120.8c0.6,1,0.9,2,0.9,3.1c0,0.5,0.2,0.7,0.7,0.6
		c1.2-0.1,1.5-0.3,1.2-1.5c-0.2-0.6-0.4-1.2-0.7-1.8c-0.3-0.5-0.6-1.1-1-1.6c-0.5-0.8-1.4-0.8-2.3-0.9
		C84,119.6,84.5,120.2,84.8,120.8z M89.5,123.9c0.2-1.4,0.1-2.8-0.6-4c-0.3-0.5-0.5-0.8-1.1-0.7c-0.4,0-0.7-0.1-1.1-0.1
		c1,1.7,1.8,3.2,1.9,5.2C88.9,124.1,89.2,124,89.5,123.9z M78.9,120.6c1,1.3,1.7,2.6,1.3,4.3c1.3,0.2,1.7-0.3,1.3-1.6
		c-0.4-1.1-0.8-2.3-1.6-3.2c-0.3-0.3-0.4-0.8-0.6-1.2C78.8,119.1,78.5,120.1,78.9,120.6z M82.7,121.6c0.4,0.8,0.8,1.6,0.7,2.5
		c0,0.2,0.2,0.4,0.4,0.5c0.2-0.2,0.5-0.4,0.5-0.6c0-1.4-0.5-2.6-1.4-3.6c-0.3-0.4-0.8-0.6-0.6-1.3c0-0.1-0.2-0.3-0.4-0.4
		c-0.3-0.1-0.6-0.1-0.9-0.2c0,0.1,0,0.2,0,0.3C81.5,119.8,82.2,120.6,82.7,121.6z M78.1,124.2c-0.2,0.6,0,0.8,0.5,0.9
		c0.4,0,0.7,0,1.2-0.1c-0.4-1.1,0-2.4-1.1-3.2C78.5,122.7,78.4,123.4,78.1,124.2z M82.1,124.3c0,0.1,0.2,0.3,0.3,0.4
		c0.1-0.1,0.4-0.3,0.4-0.4c-0.1-0.6-0.2-1.2-0.4-1.8c-0.2-0.5-0.5-0.9-0.7-1.2C81.8,122.3,82,123.3,82.1,124.3z"/>
	<path d="M65.4,122.4c0.6-0.3,0.9-0.8,0.9-1.6c-0.1-1-0.1-1.9-0.2-2.9c0-0.3-0.2-0.6-0.3-0.9c-1,0.4-0.7,1.3-0.6,1.9
		c0.1,1.1,0.4,2.1,0,3.1c0,0.1,0,0.1,0,0.2C65.3,122.3,65.4,122.4,65.4,122.4z"/>
	<path d="M74.6,121.4c0.1-0.3,0.4-0.5,0.4-0.8c0-1.2-0.1-2.4-0.2-3.6c0-0.2-0.2-0.4-0.4-0.5c-0.1,0.1-0.4,0.2-0.4,0.4
		c-0.2,1.5-0.3,3,0.3,4.4C74.5,121.3,74.6,121.3,74.6,121.4z"/>
</g>
<g>
	<path d="M207.6,188.8c1.2,2.2,1.1,4-0.3,5.5c0.2,0.4,0.4,0.8,0.5,1.2c0.5,1.3,0.5,2.7-0.6,3.7c-1.3,1.3-2.7,2.5-4.1,3.7
		c-2.9,2.3-6,4.3-9.6,5c-6,1.2-11.8,0.5-16.9-3.1c-1.3-0.9-2.2-2.1-2.9-3.5c-0.1-0.3-0.4-0.5-0.7-0.7c-0.8-0.7-1.7-1.3-2.4-2
		c-1-1-1.4-2.3-1-3.6c0.1-0.3,0.2-0.7,0.5-0.9c0.6-0.6,0.7-1.2,0.3-1.9c-1-1.7-0.5-3.1,0.6-4.4c0.1-0.1,0.1-0.5,0-0.7
		c-0.2-0.7-0.6-1.3-0.8-2c-0.3-0.9-0.2-1.8,0.4-2.5c2-2.1,1.5-4.6,1.2-7.1c-0.6-3.8-2.5-6.9-4.8-9.8c-3.3-4.1-6.5-8.3-9.1-12.8
		c-2-3.5-3.5-7.2-4-11.2c-0.6-4.5-0.2-9,1.2-13.4c1.8-6,4.8-11.4,9.4-15.8c2.4-2.3,5-4.3,8.2-5.2c3.8-1,7.6-1.9,11.4-2.7
		c0.8-0.2,1.5-0.2,2.3-0.3c0.2,0,0.6,0.1,0.7,0.3c0.4,0.6,0.8,1.3,0.9,1.9c0.4,2.1,1.3,3.8,2.9,5.2c0.2,0.2,0.3,0.5,0.3,0.8
		c0,0.9,0,1.8,0,2.6c0.1,2.6,1.4,4,4.1,4.2c1.5,0.1,2.9,0.2,4.4,0.3c3,0.1,5.2,1.3,6.9,3.8c0.8,1.1,1.6,2.2,2.4,3.3
		c0.3,0.4,0.7,0.5,1.2,0.4c1-0.3,2-0.6,2.9-1.1c2.1-1.1,4.1-1.1,6.2-0.2c1.4,0.7,2.8,1.3,4.2,2.1c0.2,0.1,0.4,0.5,0.5,0.8
		c1,3.4,1.3,6.9,1.2,10.4c-0.1,6.3-2.1,12.1-5.5,17.4c-2.4,3.6-4.9,7.2-7.4,10.8c-2.4,3.5-4.2,7.2-5,11.4c-0.2,1.2-0.3,2.3-0.4,3.5
		c0,0.2,0.2,0.5,0.3,0.7c0.4,1,1,2,1.3,3.1C208.9,186.9,208.6,188,207.6,188.8z M181.9,184.8c1.9,0.2,3.7,0.3,5.6,0.5
		c3.1,0.3,6.1,0.5,9.2,0c0.5-0.1,0.7-0.3,0.8-0.7c0.5-1.6,0.9-3.3,1.5-4.9c1-3.2,2.2-6.4,3.2-9.6c0.3-1,0.4-2.1,0.7-3.2
		c-2,0.6-2.7,2.9-4.9,3.1c0-0.7,0-1.3,0-2.1c-0.6,0.2-1.2,0.3-1.7,0.4c-0.5,0.1-1,0.5-1.6,0.1c0.4-0.2,0.7-0.3,1-0.4
		c1.1-0.4,2.2-0.9,3.5-0.5c0.2,0,0.5-0.2,0.6-0.4c0.9-0.8,1.7-1.7,2.6-2.5c0.7-0.6,1.6-1.1,2.6-1.3c0,0.2,0,0.3,0,0.4
		c-0.3,3.8-1.1,7.5-2.3,11.1c-0.9,2.6-1.9,5.1-2.9,7.7c-0.3,0.8-0.4,1.6-0.7,2.5c1.7-0.7,3.2-1.2,4.7-1.8c0.7-0.3,1.2-0.8,1.8-1.2
		c0.5-0.3,0.5-0.7,0.5-1.3c-0.3-3.1,0.1-6.1,1.5-8.8c2.2-4.2,4.7-8.2,7.5-12c1.8-2.4,3.5-4.8,4.8-7.5c2-4.2,3.2-8.6,3.5-13.2
		c0.2-2.9,0.1-5.7-0.5-8.8c-1.1,0.5-2.2,0.8-3.2,1.3c-1.2,0.6-2.3,1.5-3.5,2.1c-0.9,0.5-1.4,1-1.6,2c-0.5,2.2-2,2.9-4.1,2.1
		c-1-0.4-2-0.9-2.9-1.5c-1.7-1.1-3.3-2.4-5.1-3.5c-2-1.3-1.8-1.4-3.5,0.6c-0.6,0.7-1.3,1.5-2,2.1c-0.5,0.5-0.5,0.8,0,1.2
		c0.3,0.2,0.6,0.3,0.8,0.5c0.2,0.2,0.4,0.5,0.4,0.7c0,0.2-0.3,0.4-0.5,0.5c-0.5,0.2-1,0.3-1.6,0.4c-0.5,0.1-0.6,0.3-0.9,0.7
		c-0.3,0.6-0.8,1.3-1.3,1.6c-0.6,0.4-1.4,0.5-2.1,0.6c-0.7,0.1-1.1,0.3-1.1,1c0,0.5-0.1,1.1-0.2,1.6c-0.2-0.7-0.3-1.4-0.3-2.1
		c0-0.5,0.2-0.9,0.7-1c0.7-0.2,1.4-0.5,2.2-0.7c0.9-0.2,1.5-0.7,1.5-1.7c0-0.7,0.5-1,1.1-1.1c0.2,0,0.4,0,0.8,0
		c-0.8-1.1-1.5-2.2-2.3-3.1c-2.3-2.6-4.1-5.5-5.3-8.8c-1-2.7-2.4-5.1-4.7-6.9c-1.4-1.1-2.8-2.3-4.2-3.4c-1.5-1.2-3.2-2-5.1-2.3
		c-0.9-0.1-1.1,0-1.1,0.9c0,0.8,0.1,1.6,0,2.3c0,1.2-0.3,1.4-1.4,1.1c-1-0.2-2.1-0.5-3.1-0.7c-1.5-0.3-2.3,0.1-3,1.5
		c-0.4,0.7-0.6,1.5-0.9,2.3c-0.1,0.4-0.2,0.8-0.4,1.3c-0.1,0.4-0.3,0.8-0.4,1.2c-0.1,0-0.1,0-0.2-0.1c0.4-1.6,0.6-3.3,1.1-4.8
		c0.8-2.3,2.1-2.9,4.4-2.2c0.8,0.3,1.7,0.4,2.7,0.7c-1.6-4,1.3-6,5.1-4.2c0.3-0.4,0.6-0.8,0.9-1.2c0.1-0.2,0.3-0.5,0.3-0.7
		c0.1-1.7-1.9-3.2-3.7-2.8c-4.7,1.2-8.5,3.9-11.6,7.4c-3.9,4.4-6.3,9.7-7.8,15.4c-1.7,6.5-1.1,12.7,2.2,18.5c1.9,3.4,4.1,6.8,6.3,10
		c1.7,2.6,3.8,4.9,5.6,7.4c1.5,2.1,2.5,4.5,2.7,7.1c0.1,1.7,0.2,3.3,0.2,5c0,1.9,0.9,3.3,2.6,4.2c1.2,0.6,2.5,1,3.9,1.1
		c1,0,1,0,1.1-1c0.1-1.5-0.4-2.8-1.2-4.1c-2.1-3.7-3.5-7.7-4.6-11.8c-0.6-2.6-1.2-5.2-1.8-7.8c-0.1-0.3-0.1-0.6,0-0.8
		c0.2-0.4,0.5-0.8,0.9-1c0.1-0.1,0.6,0.4,0.8,0.7c0.3,0.5,0.5,1.1,0.8,1.6c2-0.5,2.4-0.4,3.6,0.5c0.4,0.4,0.8,0.3,1.1,0
		c0.5-0.4,1-0.8,1.5-1.1c0.8-0.4,1-0.3,1.3,0.5c0.1,0.4,0.3,0.8,0.2,1.1c-0.1,0.7,0.3,1.2,0.8,1.6c0.3,0.2,0.6,0.5,0.8,0.8
		c0.2,0.2,0.2,0.5,0.3,0.7c-1.7-0.6-2.6-1.8-2.7-3.5c-0.8-0.2-1.3,0.1-1.7,0.6c-1,1.1-1.6,1-2.6,0c-0.1-0.1-0.2-0.2-0.3-0.3
		c-0.3-0.1-0.7-0.3-0.8,0.3c0,0.2-0.3,0.4-0.5,0.5c-0.5,0.1-0.6,0.5-0.6,0.9c0.1,1,0.2,2,0.4,3c0.5,2.8,1.7,5.4,2.9,8
		C180.9,177.2,182.1,180.8,181.9,184.8z M172.8,182.3c-0.1,0.4-0.2,0.7-0.3,1c-0.8,2.3-0.4,3.6,1.7,4.9c1.5,0.9,3,1.7,4.7,2.2
		c2.4,0.6,4.9,1,7.3,1.2c4.6,0.5,9.3,0.5,13.9-0.5c2.2-0.4,4.3-1.1,6-2.6c1.6-1.4,1.9-3.4,0.7-5.1c-0.4,0.2-0.8,0.4-1.2,0.6
		c-4.1,1.9-8.3,3.2-12.9,3.4c-3.3,0.1-6.6-0.2-9.9-0.9C179.2,185.8,175.7,184.9,172.8,182.3z M171.3,194.5c-0.1,1.1,0.3,2.2,1,3.1
		c0.9,1.2,2.1,2,3.4,2.7c3.6,1.8,7.4,2.7,11.3,2.6c4.2-0.1,8.4-0.6,12.6-1c1.9-0.2,3.7-0.7,5.4-1.8c1.7-1.1,2.4-3,1.8-4.5
		C194.8,200.2,183,199.9,171.3,194.5z M172,189.6c-0.4,2.4,0.7,3.9,2.9,4.9c2.5,1.1,5.1,1.9,7.8,2.3c1.3,0.2,2.6,0.2,3.8,0.3
		c0.8,0,1.6-0.1,2.5,0c1.5,0.1,2.9,0.5,4.4,0.3c2.4-0.2,4.8-0.7,7.2-1.2c1.8-0.4,3.6-0.8,5.2-1.9c1.4-1,1.9-2.7,1.2-4.3
		C195.2,195.1,183.6,193.8,172,189.6z M212.7,137.6c0.6-1.3,1-2.5,1.6-3.6c0.2-0.3,0.5-0.6,0.8-0.8c2.3-0.9,4.2-2.7,6.7-3.5
		c0.3-0.1,0.7-0.6,0.7-1c0-0.4-0.4-0.8-0.8-1.1c-0.3-0.2-0.7-0.3-1.1-0.4c-0.6-0.2-1.1-0.3-1.6-0.6c-2-1.1-3.8-1-5.7,0.2
		c-0.8,0.5-1.7,0.8-2.6,1c-0.9,0.3-2-0.2-2.3-1c-0.7-1.7-2.1-2.9-3.4-4.1c-1.3-1.3-2.8-2.2-4.7-2.4c-1.8-0.2-3.5-0.3-5.2-0.6
		c-2.4-0.3-4.5-1.4-4.7-4.9c0-0.8,0-1.6-0.1-2.3c0-0.3-0.1-0.6-0.3-0.7c-1.1-1-1.9-2.2-2.3-3.6c-0.3-1.1-0.6-2.2-0.9-3.4
		c-2.7,0.8-5.4,1.5-8.3,2.3c1.8,2.2,2.1,4.3,0.3,6.5c1.3,1,2.6,1.9,3.9,2.8c3.3,2.1,5.8,4.9,7.2,8.6c0.5,1.1,1,2.2,1.5,3.4
		c0.8,1.9,1.8,3.7,3.1,5.3c1.5,1.6,2,1.6,3.3-0.1c0.5-0.6,0.9-1.3,1.4-1.9c1-1.1,2.1-1.2,3.3-0.3c2,1.5,4.1,2.9,6.2,4.3
		C210,136.5,211.3,137,212.7,137.6z M176.5,202.6c5.7,5.7,19.3,5.4,24.1,0.6C192.5,205.4,184.6,203.8,176.5,202.6z"/>
	<path d="M195.8,134.2c-0.8-1.2-1.7-2.4-2.4-3.6c-1.1-2-2.1-4.1-3-6.2c-1.5-3.4-3.9-6.1-7-8.2c-1.2-0.8-2.3-1.7-3.4-2.6
		c1.5-2,1.2-3.5,0-5.8c0.8-0.2,1.6-0.4,2.3-0.6c1-0.3,1.9-0.6,2.9-1c0.6-0.2,1,0,1.1,0.6c0.3,2.2,1.1,4.1,2.8,5.6
		c0.2,0.2,0.2,0.7,0.2,1.1c-0.1,1.3,0,2.6,0.5,3.8c1,2.1,2.8,3.2,5,3.6c2.4,0.5,4.9,0.7,7.4,1.1c0.3,0,0.7,0.2,0.9,0.5
		c0.6,0.5,1.1,1.1,1.7,1.6c1.1,0.9,2,2,2.7,3.2c0.9,1.6,2,2.1,3.8,1.5c1.2-0.4,2.3-0.9,3.4-1.4c0.8-0.3,1.5-0.5,2.4-0.1
		c0.8,0.3,1.7,0.4,2.5,0.6c0.7,0.2,1.4,0.5,1.8,1.3c-0.6,0.3-1.3,0.6-1.9,0.8c-1.9,0.8-3.9,1.6-5.4,3.2c-0.7,0.8-1.2,1.7-1.7,2.6
		c-0.2,0.4-0.4,0.6-0.9,0.4c-0.7-0.4-1.5-0.7-2.2-1.1c-1.1-0.6-2.2-1.2-3.3-1.9c-1-0.6-2-1.3-2.8-2.1c-1.5-1.4-2.9-1.5-4.3,0
		c-0.8,0.8-1.5,1.6-2.3,2.4C196.4,133.8,196.2,133.9,195.8,134.2z M217.9,129.1c0-0.1-0.1-0.2-0.1-0.3c-1.1-0.5-2.2-0.3-3.3,0
		c-1,0.4-2,0.8-3,1.1c-1.9,0.5-3.5,0.3-4.8-1.4c-1.1-1.5-2.3-3-3.5-4.4c-0.4-0.5-0.9-0.7-1.5-0.8c-0.5,0-1-0.1-1.5-0.2
		c-2.2-0.4-4.5-0.7-6.7-1.2c-2.5-0.6-4.4-2-5-4.7c-0.2-1-0.2-2-0.2-3.1c0-0.2,0-0.5-0.1-0.5c-1.3-1-1.7-2.6-2.3-4
		c-0.3-0.7-0.7-1.3-1.1-1.9c-1,0.3-1.8,0.6-2.7,0.9c0,0,0,0.1,0,0.1c0.3,1.4,0.6,2.7,0,4.1c-0.1,0.1,0.2,0.4,0.3,0.6
		c1.3,1.1,2.7,2.1,3.9,3.2c2.6,2.4,4.8,5,6,8.4c0.4,1.1,0.9,2.2,1.5,3.2c0.7,1.3,1.5,2.4,2.7,3.2c0.8-0.7,1.5-1.4,2.2-1.9
		c1.8-1.3,3.2-1.2,5,0.1c2,1.4,4,2.8,6.1,4.2c0.5,0.4,1.2,0.6,1.8,0.9c0.2-1.5,1-2.5,2.2-3.1c0.7-0.4,1.4-0.7,2-1.1
		C216.5,130.1,217.2,129.6,217.9,129.1z"/>
</g>
<path d="M157.7,88.1c-0.3,0.3-0.8,0.6-0.9,1c-0.2,0.6-0.2,1.2-1.2,1c-0.1,0-0.4,0.4-0.6,0.7c-0.6,0.8-1.2,1.5-1.8,2.3
	c-0.4,0.4-0.9,0.7-1.4,1c0-0.6,0.6-0.8,0.9-1.2c0.4-0.4,0.7-0.8,1.1-1.3c0.3-0.4,0.6-0.9,1-1.5c-0.9,0.1-1.6,0.2-2.4,0.4
	c0-0.1-0.1-0.1-0.1-0.2c0.2-0.1,0.4-0.3,0.6-0.3c0.7-0.2,1.4-0.4,2.1-0.6c1.1-0.3,1.6-1.1,1.7-2.2c-0.9-0.2-1.5,0.2-2.2,0.5
	c-1.2,0.6-2.3,1.2-3.5,1.8c-0.2,0.1-0.6,0.1-0.9,0c1.3-0.8,2.7-1.5,4.1-2.3c-1.9-0.5-3.1,0.6-4.8,1.3c0.3-1,1.2-1,1.7-1.6
	c-0.7-0.1-1.4-0.1-2.2-0.2c0.7-1,2.2,0.1,2.6-1.1c0.4,0.2,0.9,0.3,1.3,0.5c0.5-0.6,0.5-0.6,1.8-0.7c-0.4-0.1-0.7-0.2-1.2-0.3
	c0.6-0.3,0.9-0.5,1.5-0.7c-1,0-1.7,0-2.5,0c0-0.1,0-0.2,0-0.3c0.6,0,1.1-0.1,1.8-0.1c-1.6-1.2-3.6-1.3-5.8-1.8
	c0.8-0.4,1.3-0.6,1.9-0.9c0.5,0.2,0.9,0.9,1.6,0.3c0.8,0.4,1.6,0.9,2.5,1.3c-0.2-0.4-0.4-0.8-0.6-1.2c0.1-0.1,0.2-0.1,0.3-0.2
	c0.6,0.7,1.2,1.4,2,2.3c-0.1-0.6-0.1-1-0.2-1.8c0.9,1.3,1.9,0.7,2.9,0.8c-0.8-0.8-1.8-1.2-2.9-1.5c0-0.4,0.1-0.9,0.1-1.4
	c1.4,1.3,2.9,2.2,4.6,3.1c0.1-0.4,0.1-0.6,0.2-0.9c0.2,0,0.4,0.1,0.5,0.1c0.2,0.1,0.3,0.3,0.4,0.5c0.7,0.8,1.1,1,2.1,0.6
	c2.5-1,5.2-1.3,8-1.9c-2.3-1-4.6-2-7-3c-0.5-0.2-1.1-0.2-1.7-0.2c-0.7,0-1.4,0-2.1,0c0-0.1,0-0.2,0-0.3c0.6-0.1,1.1-0.1,1.6-0.2
	c-1.4-0.4-2.9-0.3-4.3-1c1.3-0.3,2.5,0,3.9,0.1c0-0.3,0-0.6,0-1.2c0.5,0.4,0.8,0.7,1.2,1.1c0.7-2.6,2-4.9,3.4-7.1
	c-1.4-1.3-2.6-0.4-4,0c0.3-0.3,0.6-0.6,0.8-0.8c-0.2-0.2-0.5-0.4-0.8-0.6c1.5,0,3,0,4.5,0c0-0.3,0-0.6,0.1-1c0.4,0,1.1,0.1,1.2,0
	c0.4-0.7,0.8,0.2,1.2-0.1c-0.1-0.2-0.2-1-0.1-1.6c1.3,1.2,2.5,0.6,3.8,0c0-0.4,0-0.8,0-1.2c-0.5-0.1-0.9-0.2-1.3-0.4
	c-1.4-0.6-2.7-0.3-3.9,0.5c-1.1,0.7-2.2,1.4-3.2,2.1c0.1-1,0.1-1.1,4.1-3.4c-1-1-2.3-0.2-3.4-0.7c0.3-0.1,0.7-0.2,1.1-0.3
	c-0.6-0.3-1.3-0.7-2-0.8c-0.7-0.1-1.4,0-2.2,0.1c0.3-0.3,0.5-0.5,0.8-0.8c-2.2,0-4.3,0-6.6,0c0.4-0.8,0.9-1,1.5-0.8
	c0.8,0.2,1.5,0.1,2.4-0.2c-3.5-1.5-6.7-3.2-10.4-3.7c-0.2,0-0.5,0-0.6-0.1c-2.3-1.5-5.2-2-7.7-3.4c-0.5-0.3-1.2-0.4-1.8-0.4
	c-1.4-0.1-2.7-0.3-4.1-0.1c-0.6,0.1-1.3-0.2-1.9-0.2c-0.6,0-1.2,0.1-1.8,0.2c0-0.1,0-0.2-0.1-0.3c0.6-0.2,1.2-0.3,1.8-0.5
	c-0.7-0.4-1.4-0.8-2.1-1.2c0.1-0.1,0.1-0.2,0.2-0.3c1.3,0.5,2.6,1.2,4,1.5c1.4,0.3,2.9,0.2,4.5,0.2c-0.9-0.2-1.7-0.5-2.8-0.7
	c0.4-0.4,0.6-0.7,0.9-1.1c-1.8-1.2-3.7-2.4-5.8-3.8c0.7,0,1,0.1,1.3,0.1c0-0.3,0-0.6,0-0.9c0.1,0,0.1,0,0.2-0.1
	c0.2,0.4,0.4,0.8,0.6,1.1c0.4,0.5,0.8,1.1,1.4,1.4c1.6,0.7,2.9,1.8,4.2,2.9c1,1,2.2,1.8,3.5,2.3c1.6,0.6,3.3,1.2,5,1.7
	c0.4,0.1,1,0,1.6,0c-0.3-0.3-0.3-0.4-0.5-0.6c0.3-0.2,0.6-0.5,0.9-0.8c0.4,0.7,0.6,1.4,1.1,1.9c0.5,0.5,1.3,0.8,1.8,1.2
	c1.3-0.5,0.9-1.3,0.6-2c-0.3-0.6-0.7-1.2-1.1-1.8c0.7-0.6,0.5-1.3,0.3-2c-0.1-0.4-0.3-0.8-0.6-1.2c-0.4-0.7-0.5-1.5,0-2.4
	c0.2,0.7,0.3,1.4,0.5,2.3c0.6-2.3-0.1-4.2-0.7-6c1,0.9,1.3,2.1,1.5,3.3c0.1,1.2-0.1,2.4-0.1,3.5c1.8,1,3.5,1.9,5.5,3
	c-0.2-0.4-0.3-0.5-0.3-0.7c0.2-0.1,0.5-0.2,0.8-0.3c-0.2-0.7-0.3-1.4-0.5-2.2c1,0.6,0.8,1.6,1.4,2.3c0.8-0.3,1.6-0.7,2.4-1.1
	c1.4-0.1,2.8-0.2,4.4-0.4c-1.5-1.4-2.9-2.7-4.3-3.9c-2.1-1.8-4.4-3.5-6.6-5.2c-1.1-0.9-2.2-1.7-3.4-2.5c-0.3-0.2-0.8-0.3-1.2-0.3
	c-2.2-0.1-4.3,0.2-6.2,1.2c-0.5,0.2-1,0.5-1.7,0.5c0.2-0.2,0.3-0.4,0.5-0.6c0.7-0.3,1.3-0.6,2-1c0.6-0.3,1.2-0.7,1.8-0.9
	c0.7-0.2,1.4,0,2.1,0c0.3,0,0.6,0,1.2,0c-0.5-0.4-0.8-0.6-1.1-0.8c-1.8-1.4-3.2-3.1-4.3-4.9c-0.4-0.6-0.8-1.3-1.3-1.6
	c-0.6-0.3-0.1-0.7-0.4-1.1c-0.7-0.9-1.5-1.6-2.7-1.9c1.2-0.9,0.1-1.7-0.1-2.7c0.4,0.2,0.7,0.3,0.8,0.4c0.4,0.5,0.7,1.1,1.1,1.6
	c0.1,0.2,0.1,0.5,0.3,0.7c1.5,2.1,3,4.2,4.5,6.3c1,1.5,2.6,2.5,4.1,3.6c4.8,3.3,9.4,6.8,13.7,10.6c0.9,0.8,1.8,1.7,2.7,2.5
	c0.6,0.5,1.3,0.8,1.9,1.2c0.4-0.3,0.8-0.6,1.3-1c0.2,0.3,0.3,0.6,0.5,1c1.1-0.9,2.1-1.9,3.3-3c-0.1,0.3-0.1,0.6-0.2,0.8
	c-0.9,1-1.9,2-2.9,3c-0.9,1-0.9,1.4-0.1,2.4c1.5,1.8,3,3.7,4.7,5.8c0.1-0.9,0.1-1.6,0.2-2.2c0.1,0,0.2,0,0.3,0
	c0.1,0.3,0.3,0.6,0.2,0.9c-0.3,2.2,1.2,3.7,2.6,5.2c0.1,0.1,0.3,0.3,0.4,0.3c1.1-0.1,1.6,0.9,2.6,1.3c-0.6-2.1-2.2-3.8-2.1-6.1
	c1.2,0.1,2.3,0.2,3.5,0.2c0.2-1,0.4-1.9,0.6-3.1c0.9,1.1,0.2,2.1,0.2,3.1c1.3,0.8,2.6,1.6,4,2.5c-0.2-0.5-0.2-0.8-0.4-1.1
	c-1.6-2.8-3.2-5.6-4.8-8.4c-0.6-1-1-2.1-1.5-3.2c0.6-0.4,0.9-0.3,1,0.3c0.2,1.1,0.8,2.1,1.4,3.1c0-1.8,0-3.5,0-5.4
	c0.8,0.7,0.8,1.4,0.8,2.2c0.1,1.4,0.2,2.8,0.3,4.1c0.1,0.6,0.2,1.1,0.4,1.9c0.2-0.2,0.3-0.4,0.4-0.5c0.2,0,0.4,0.7,0.7-0.1
	c0.4,0.8,0.8,1.4,1.2,2.1c1.1-1.8,0.3-3.6,0-5.4c-0.7-4.6-2.4-9-3.9-13.4c-0.9-2.8-2-5.5-3.1-8.2c-0.2-0.5-0.5-1-0.8-1.4
	c-0.5-0.7-1.1-1.2-2.2-1.3c-1.7-0.2-3.4-0.6-5.2-0.9c0,0,0-0.2-0.1-0.5c-1.1,0-2.1,0-3.2,0c-0.7,0-1.4-0.1-2,0
	c-1.2,0.1-2.3,0.3-3.5,0.4c-0.2,0-0.5,0.1-0.9,0.2c1.2-1,2.7-1.2,7-1.3c-0.3-0.2-0.6-0.4-1.1-0.7c1.4-0.1,2.2,0.6,3.2,0.7
	c1,0.1,2,0.4,3.2,0.6c-0.3-0.5-0.5-0.9-0.9-1.5c1.4,0.5,1.6,2.2,3.2,1.9c-1.2-1.4-2.5-2.9-3.6-4.3c-0.7-0.8-1.5-1.2-2.6-1.1
	c-0.2,0-0.5,0-0.8-0.2c0.4-0.1,0.7-0.2,1.4-0.3c-2-0.1-3.6-0.2-5.5-0.3c0.3-0.2,0.6-0.4,0.8-0.5c-0.2-0.1-0.4-0.2-0.8-0.3
	c0.8-1.5,1.9,0.2,2.7-0.3c-1.2-1.5-3.1-0.7-4.6-1.1c0.6-0.5,0.6-0.5,2.2-0.6c-0.7-0.8-1.4-1.6-2.1-2.3c0.1-0.1,0.1-0.1,0.2-0.2
	c0.2,0.1,0.5,0.2,0.7,0.3c0.7,0.6,1.3,1.2,2,1.7c0.7,0.5,1.4,1.3,2.5,1c0.6,0.6,1,1.4,2.1,1.4c0.3,0,0.5,0.4,1,0.7
	c-0.6-1.5-1.9-2.1-2.8-3.3c1.2,0,1.6,1,2.3,1.4c0-1.8,0.3-3.6-0.1-5.3c-0.3-1.7-0.1-3.4-0.9-5.1c1,0.6,1,0.6,1.5,3.3
	c0.2-0.2,0.3-0.4,0.4-0.6c0.1-0.2,0.2-0.4,0.3-0.6c-0.3-0.3-0.5-0.5-0.8-0.9c0.4,0,0.6,0,0.9,0c-0.1-0.6-0.2-1.2-0.3-1.9
	c0.9,0.3,0.5,1.2,0.9,1.8c0.3-0.3,0.6-0.5,0.9-0.8c0.2,0.8-0.4,1.1-0.7,1.6c0.7,1.1,1.3,2.3,2.1,3.3c0.3,0.4,0.9,0.5,1.1,0.9
	c0.5,0.8,0.9,1.6,1.1,2.4c0.2,1,0.6,1.4,1.6,1.4c-0.2,0.5-0.4,0.9-0.6,1.5c0.5-0.3,0.8-0.4,1.2-0.6c-0.3-2.3,0.2-4.6,0.8-7
	c0.1-0.2,0.3-0.5,0.6-0.6c-0.3,2.6-1.3,5.1-0.8,7.8c0.2,0,0.4,0,0.8,0c-0.2,0.4-0.4,0.7-0.5,1.1c-0.1,0.3,0,0.6,0,1.2
	c1.5-1.3,3-2.4,4.7-3.1c0.4-0.2,0.7-0.6,1.1-1c0.2,0.4,0.3,0.8,0.5,1.3c-0.4,0.1-0.8,0.3-1.1,0.4c-1.1,0.2-2,0.4-2.3,1.7
	c-0.1,0.5-0.7,0.8-1.1,1.2c-0.3,0.3-0.7,0.6-0.8,0.9c-0.4,1.4-0.7,2.8-1,4.2c0.3-0.1,0.5-0.2,1.2-0.4c-0.6,1-0.9,1.7-1.4,2.5
	c3.1,6.1,4.8,12.9,7.2,19.6c0.2-0.3,0.4-0.5,0.7-0.9c0.2,0.5,0.3,0.9,0.5,1.5c0.6-0.8,0.6-1.4,0.3-2.2c-0.5-1.2-0.9-2.5-1.4-3.8
	c0-0.1,0-0.3,0.1-0.5c1,0.4,0.6,1.3,0.9,1.9c0.3,0.6,0.6,1.3,0.9,2c0.7-2.3,0.5-4.5,0-6.7c-0.5-2.2-1.2-4.3-2.4-6.2
	c0.5-0.4,0.7-0.4,0.9,0c1,2.2,1.8,4.4,2.3,6.8c0.6,2.6,0.3,5.2-0.4,7.7c-0.1,0.3-0.2,0.7-0.3,1c0.8-0.3,1.5-0.6,2.3-0.8
	c0.9-0.2,1.5-0.7,1.9-1.4c0.4-0.7,1-1.4,1.5-2.2c0.2,0.1,0.5,0.2,0.8,0.3c-0.6,0.7-1.1,1.3-1.6,2c0.4,0,0.6,0.1,1,0.1
	c-0.3,0.3-0.4,0.5-0.7,0.6c-0.7,0.5-1.6,0.7-1.4,1.9c0.1,0.3-0.6,0.7-1,1c-0.3,0.3-0.7,0.6-1,0.9c-0.6,0.8-1.2,1.6-1.9,2.4
	c1.7,0,3.4,0,5.1,0c0.3-1.1,0.1-2.3,1.1-3.4c-0.1,1.3-0.2,2.3-0.3,3.4c0.6,0.1,1.1,0.2,1.7,0.4c1.2-1.3,2.4-2.7,3.2-4.2
	c0.3-0.5,0.2-1.2,0.1-1.7c-0.3-1.2-0.7-2.4-1.1-3.6c-0.1-0.3-0.1-0.6-0.2-1c0.8,0.4,1,0.7,2,4.2c0.1-0.6,0.2-1.1,0.3-1.6
	c0.2-1,0.7-2,0-3c-0.1-0.1,0.1-0.4,0.2-0.5c0.1-0.1,0.4,0.1,0.6,0.2c0.6-1,0.4-2.1,0.3-3.2c-0.1-1-0.6-2-0.9-3
	c0.1,0,0.2-0.1,0.4-0.1c0.2,0.5,0.5,0.9,0.6,1.4c0.7,1.8,0.9,3.7,0.3,5.6c-0.4,1.1-0.6,2.4-0.6,3.6c0.6-0.6,1.3-1.2,1.9-1.7
	c0.1-0.1,0.3-0.3,0.3-0.4c-0.2-1,0.9-1.5,1.1-2.4c0.2-0.9,0.8-1.7,1.3-2.5c0-0.1,0.2-0.1,0.4-0.1c0.2,1.4-0.9,2.3-1.2,3.4
	c0.2,0.2,0.4,0.4,0.6,0.5c-3.2,3.3-5.8,6.8-8.3,10.5c0.5,0.1,1.1,0,1.3,0.3c0.4,0.5,0.9,0.2,1.3,0.2c0.3,0,0.6,0.1,0.9,0.1
	c0.9,0.2,1.8,0.4,2.8,0.3c0.7-0.1,1.5,0,2.3,0.1c0-1.5,0-3.2,0-4.8c0.9-0.3-0.1,1.5,1.3,0.7c-0.1,0.4-0.2,0.7-0.3,1
	c-0.1,0.5-0.5,1.1-0.3,1.6c0.5,1.1,0.1,2.3,0.3,3.4c0.1,0.5,0.2,1.1,0.3,1.9c0.3-0.9,0.4-1.5,0.7-2.3c0.4,0.7,0.3,1.3,0,1.9
	c-0.4,0.8-0.4,1.6,0,2.4c0.2,0.5,0.3,1,0.5,1.5c0.2,0.6,0.5,1.1,0.7,1.6c0.7,0.2,1.1-0.8,1.6-0.1c-1.2,0.9-1.2,0.9-1.3,1.7
	c0.8-0.3,1.1-1,1.3-1.7c0.5-0.2,1-0.6,1.5,0.3c0.5-2.8,1.3-5.3,2.9-7.6c0.1,1.1-0.5,2-0.9,2.9c-0.4,0.9-0.8,1.8-0.6,3.1
	c2.2-2.3,2.9-5,4.4-7.3c0,0.3,0.1,0.6,0,0.9c-0.9,2.4-2.1,4.7-3.8,6.8c-1,1.2-1.8,2.7-2.6,4c0.1,0.1,0.2,0.1,0.2,0.2
	c0.6-0.3,1.1-0.6,1.7-0.9c0.5-0.3,1-0.7,1.9-0.7c-0.9,0.9-1.9,1.4-2.9,1.8c-1.5,0.6-2.1,1.6-2.5,3c-0.4,1.6-0.9,3.1-1.4,4.9
	c1.5-0.7,2.8-1.3,4.1-2c2.4-1.3,4.8-2.7,7.2-3.9c0.9-0.5,1.6-1,1.3-2.3c0.4,0.2,0.6,0.2,0.9,0.4c1.1-1.4,2.2-2.9,3.2-4.4
	c0.3-0.5,0.2-1.2,0.3-1.9c0.2,0.2,0.3,0.4,0.5,0.6c1.3-0.9,1.1-2.7,2.6-3.5c-0.4,1-0.6,2-1.2,2.9c-0.7,1.2-1.6,2.2-2.4,3.3
	c-1.1,1.5-2.2,2.9-3.4,4.4c2.3-0.1,3.7-1.5,5.2-2.7c-0.1,1-1.1,1.3-1.5,2c0.8-0.2,1.6-0.3,2.3-0.5c0.3-0.1,0.6-0.2,0.8-0.4
	c0.5-0.6,1-1,2-0.7c0.4,0.1,1-0.5,1.4-0.8c0.8-0.6,1.5-1.3,2.4-1.8c-0.3,1-1.3,1.4-1.9,2.2c1.1-0.1,2-0.2,3-0.3
	c-1.4,1.4-3.5,0.4-4.9,1.6c0.1,0.2,0.2,0.3,0.3,0.6c-2.3,0.1-4.5,0.6-6.8,1.2c0.8,0.8,2,1.1,2.5,2.3c-0.7,0-1-0.4-1.4-0.8
	c-1.6-1.7-3.6-1.6-5.4-0.5c-0.5,0.3-1.1,0.6-1.7,1c1.5,0.5,2.9,0.9,4.3,1.4c1.4,0.5,2.7,1.1,4.2,1.6c1.4,0.4,2.8,0.6,4.2,1.1
	c-1.7,0.2-3.4-0.1-4.9-0.7c-2.5-1-4.9-1.9-7.5-2.5c-0.9-0.2-1.6-0.1-2.4,0.3c-2.3,1.3-4.7,2.5-7.1,3.8c-0.5,0.3-1,0.7-1.4,1.2
	c-3.1,3.4-5.7,7.1-8.1,11c-0.3,0.5-0.5,1.2-0.4,1.7c0.8,4,1.8,7.9,2.7,11.8c0.9,3.9,1.9,7.8,2.6,11.7c0.6,3.5,0.8,7.1,0.7,10.7
	c-0.1,3-0.2,5.9-0.3,8.9c0,0.2-0.1,0.4-0.2,0.6c-1.1,0-2.1,0-3.3,0c0-0.4-0.1-0.6-0.1-0.9c0.1-1.1,0.2-2.3,0.2-3.4
	c0.1-2.9,0.3-5.8,0.3-8.7c0-4.1-0.8-8.1-1.7-12.1c-1-4.4-1.9-8.9-2.9-13.3c-0.3-1.4-0.6-2.8-1-4.2c-0.2-0.5-0.6-1.1-1-1.4
	c-1.8-1.3-3.8-2.2-5.9-3c-0.6-0.2-1.1-0.2-1.7,0c-0.7,0.3-1.6,0.5-2.5,0.8c0.2-0.9,0.9-0.8,1.5-1.2c-2.1,0-3.8,0.8-5.6,1.2
	c0.5-0.8,0.7-0.9,2.8-1.6c-1.8,0-3.3-0.1-4.8,0c-0.7,0-1.4,0.3-2.1,0.5c-1.1,0.3-2.3,0.9-3.6,0.3c1.3-0.3,2.5-0.6,4.1-1
	c-0.5-0.2-0.7-0.3-1-0.4c0.1-0.1,0.1-0.2,0.2-0.3c2.7,0.1,5.5,0.2,8.2,0.2c0-0.1,0-0.1,0.1-0.2c-2.9-0.7-5.7-1.4-8.6-2
	c-3.5-0.7-7-0.9-10.5-0.6c-2.2,0.2-4.4,0.6-6.5,1.4c-0.5,0.2-0.9,0.5-1.2,0.9c-1,1.2-1.8,2.4-2.8,3.6c-0.9,1.1-1.9,2.2-1.7,4
	c-0.3-0.4-0.4-0.5-0.5-0.6c-1.3,1.9-2.1,4.1-4.3,5.7c0-1.3,1.2-1.7,1.6-2.5c0.4-0.9,1-1.8,1.5-2.6c0.5-0.8,1-1.6,1.6-2.4
	c-0.2-0.1-0.4-0.2-0.5-0.3c0.6-0.4,1.3-0.9,2-1.4C158.6,88.4,158.1,88.2,157.7,88.1c0.3-0.1,0.6-0.2,0.9-0.3
	c1.7-0.4,2.2-0.8,2.6-2.6C159.4,85.5,158.4,86.6,157.7,88.1z M157.7,56.9c1.3,0.9,2.9,1.3,4.4,1.8C160.7,58.1,159.4,57.1,157.7,56.9
	c0.1-0.1,0.3-0.4,0.4-0.4c0.8,0.2,1.5,0.4,2.4,0.6c-0.3-0.3-0.4-0.4-0.5-0.6c-0.5-0.5-1.4-0.8-1.3-1.8c0-0.2-0.6-0.6-1-0.8
	c-0.2-0.1-0.6,0.3-0.9,0.4C157.1,55.4,157.4,56.2,157.7,56.9z M171.2,67.9c-1-0.3-1.7,0.3-2.3,0.9c-0.7,0.7-0.7,1,0,1.7
	c1.4,1.5,3.3,2.3,5.1,3.3c0.3,0.2,0.7,0.3,1.2,0.5c-0.6-2.1-1.9-3.6-3.1-5.2C171.7,68.8,171.5,68.3,171.2,67.9
	c1,0.9,1.9,1.8,2.8,2.6c0-1.3,0-2.7,0-4.2C173.1,66.9,171.8,66.8,171.2,67.9z M188.5,66.9c0.5,0.5,1,1.1,1.5,1.6
	c-0.1-0.7-0.3-1.5-0.4-2.3c-0.1-0.3-0.2-0.7-0.4-0.9c-0.9-1.1-1.8-2.3-2.8-3.4c-0.9-1-1.8-2.2-3.7-1.4c0.5,1.2,1.1,2.3,1.6,3.5
	c0.8,2,2.4,3.3,4.5,4.1c-0.2-0.3-0.4-0.6-0.5-0.9C188.3,67.1,188.4,67,188.5,66.9z M186.7,82.2c0.5,0.6,1.2,1.2,2,1.1
	c0.9-0.1,1.5,0.3,2.2,0.7c0.8,0.5,1.5,1.1,2.5,1.2c-0.8-1.7-2.1-2.9-4.1-3.1C188.4,81.9,187.6,82.1,186.7,82.2
	c0.2-0.3,0.5-0.6,0.7-0.9c-0.1-0.2-0.2-0.5-0.4-1.1c1.2,0.8,2.1,1.7,3.5,0.9c-0.7-1-1.5-1.9-2.1-2.8c-0.6-1-1.5-1.8-1.5-3.1
	c0.4,0.4,0.6,0.8,0.9,1.2c1,1.3,2,2.7,3,4c0.4,0.5,0.8,0.8,1.5,0.5c-0.1-0.2-0.2-0.5-0.4-1c1.5,0.9,2.8,1.3,4.3,1.2
	c-0.9-0.5-1.8-0.9-2.4-1.6c-0.6-0.5-1-1.3-1.5-2c0.1-0.1,0.2-0.1,0.2-0.2c0.9,0.8,1.9,1.6,2.8,2.4c0-1.2-0.8-1.7-1.6-2.3
	c-1.1-0.9-2.1-1.8-3.1-2.8c-0.2-0.2-0.3-0.5-0.4-0.7c1.5,0.9,2.3,2.2,4.1,3.1c-0.5-1.1-0.9-1.9-1.3-2.8c-0.6-1.2-1.7-1.7-3.1-1.8
	c-0.7-0.1-1.5,0-2.2,0c0.1-0.3,0.1-0.6,0.2-1c0.8,0,1.5,0.9,2.6,0.2c-0.9-0.2-1.6-0.3-2.3-0.5c-0.7-0.1-1.5,0.2-2.2-0.6
	c0.9,0,1.7-0.1,2.9-0.1c-1.9-1.1-3.5-2.1-5.2-3.1c-0.9-0.5-1.8-1.1-2.8-1.5c-1-0.3-2.1-0.6-3.1-0.6c-0.9,0.1-1.2,1-1.5,1.7
	c-0.1,0.1-0.2,0.2-0.3,0.3c-0.9,1.7-1.8,3.5-0.7,5.4c0.1,0.3,0.2,0.5,0.4,0.8c0,0.1,0.1,0.1,0.1,0.1c0.2-0.2,0.4-0.4,0.6-0.5
	c-0.4,1.4,0.4,2.1,1.4,2.8c0.7,0.5,1.4,1.1,2.1,1.6C182,79.4,184.2,80.9,186.7,82.2z M205.1,59.9c0.8-0.4,1.1-0.2,1.4,0.3
	c0.4,0.7,1,1.3,2.1,1.7c-0.1-1.2-0.1-2.2-0.2-3.2c0-0.1,0.1-0.2,0.2-0.4c0.4,0.3,0.7,0.5,0.8,0.6c0,1.2-0.1,2.1,0,3
	c0.1,0.8-0.2,1.9,1,2c0.2,1.8,0.4,3.5,0.7,5.4c0.5-0.7,0.6-1.5,1.5-2.2c-0.2,0.8-0.4,1.2-0.3,1.7c0,0.3,0.7,0.4,0.3,1
	c-0.3,0.4-0.3,0.9-0.4,1.4c0.6-0.2,1.2-0.4,1.3-0.8c0.7-1.3,0-2.9-1.3-3.7c-0.2-0.1-0.5-0.2-0.7-0.4c-0.5-0.3-0.5-0.6-0.4-1.2
	c0.7,0.4,1.2,0.8,1.9,1.3c0.2-1.3-0.3-2.2-1-3c-0.3-0.4-0.6-0.8-0.9-1.2c0,0,0.1-0.2,0.1-0.2c0.3,0,0.6,0.1,1.1,0.1
	c-0.9-1.9-0.9-3.9-2.4-5.4c0.3,0.1,0.6,0.2,0.9,0.4c-0.5-1.1-0.5-1.1-2.3-0.9c0.3,0.4,0.6,0.8,1,1.3c-0.3,0-0.3,0-0.4,0
	c-0.1-0.1-0.3-0.1-0.4-0.2c-1.1-1-2.3-1.3-3.8-1c-0.5,0.1-1.2,0-1.7-0.1c-1.5-0.2-3-0.3-4,1.1c-1.5,1.9-3.1,3.7-4.7,5.5
	c-0.8,0.9-1.1,1.8-0.9,2.9c0.6-1,0.6-2.3,1.7-3.1c0,0.4-0.2,0.7-0.3,1.1c-0.5,1.2-0.8,2.4-0.8,3.7c0,1.2,1,2,1,3.2
	c0,0.1,0.2,0.2,0.3,0.2c0.9-0.1,0.6,0.5,0.6,0.9c0,0.5-0.3,1-0.1,1.4c0.6,1.4,1.4,2.8,2.4,4.1c2.8-3.9,4.7-8.1,7.8-11.6
	c-2.6-3.5-3.3-4-3-5.8c1.4,2.9,3.2,5.1,5.4,7.1c0.5-0.3,0.9-0.6,1.2-0.8c-0.6-2.1-0.7-2.2-2.2-3.6C206.8,61.4,206,60.7,205.1,59.9z
	 M202.7,87.4c1.2-1.7,2.2-3.3,3.4-4.8c1.2-1.6,2.5-3.1,3.7-4.7c0.3-0.4,0.4-0.9,0.4-1.4c0-2.1,0.2-4.1-0.5-6.2
	c-0.1-0.2-0.1-0.5-0.1-0.7c0-1-0.1-1.9-1.5-2c-0.1,0-0.2-0.1-0.2-0.2c-0.4-0.8-1.2-0.8-2.1-1.1c-2.4,3.8-4.7,7.6-6.9,11.2
	C200.1,81,201.4,84.1,202.7,87.4z M172.4,79.8c0.2,1.4,1.2,1.7,2.4,1.7c3.3,0,6.5,0.6,9.6,1.3c0.3,0.1,0.6,0.1,1.1,0.1
	c-2-1.4-4-2.7-5.8-4c-2.3-1.8-4.4-3.9-7.3-5c-0.4-0.2-0.7-0.4-1.1-0.6c-0.8-0.6-1.7-1-2.8-0.5c-0.1,0-0.3-0.1-0.4-0.2
	c0.3-0.2,0.5-0.3,0.8-0.5c-1.3,0.1-0.8-0.8-0.9-1.5c-0.3,0.4-0.5,0.7-0.9,1.2c0-0.7,0-1.1,0-1.5c-1,1.3-1.8,2.7-2.6,4.1
	c-0.7,1.2-0.5,1.4,0.5,2.5c1.8,1.9,4.3,2.6,6.6,3.8c0.1-0.2,0.2-0.3,0.3-0.5C172,79.9,172.1,79.9,172.4,79.8z M163.5,59.3
	c1.6,1.2,3.4,1.3,5.3,1.6c-0.6-0.9-1.2-1.8-1.7-2.6c0.1-0.1,0.2-0.1,0.3-0.2c0.7,0.8,1.3,1.7,2,2.5c0.8,0.8,2.8,1.2,3.2,0.9
	c0-0.4,0-0.8,0.1-1.2c0.1,0,0.2-0.1,0.3-0.1c0.4,1.7,1.3,2.5,3.2,2c-1-1.4-2.5-2.2-4.4-2.4c-1-0.1-2-0.3-2.8-1.1
	c1.5,0.3,2.8,0.5,4.1,0.8c0.2-0.2,0.3-0.4,0.4-0.6c0.8,0.7,1.6,1.4,2.3,2c0.7,0.6,1.3,1.3,2.2,1.7c-1.5-2-3.1-3.9-4.7-5.9
	c-0.4-0.6-1-0.9-1.7-1c-2.7-0.5-5.3-1-8-1.5c-0.8-0.1-1.6-0.2-2.3,0.4c-0.3,1.6,1.4,2.4,1.8,3.9c0.3-0.4,0.6-0.7,0.8-1
	c0.1,0,0.2,0.1,0.2,0.1C164,58.1,163.8,58.7,163.5,59.3z M176.4,9.8c-0.3,1.3-0.7,2.3-0.8,3.3c-0.1,1.4-0.1,2.8,0,4.1
	c0,0.8,0.2,1.6,0.7,2.3c0.6,0.7,1.4,1,2.4,1c0.5-1.3,1-2.6,1.5-3.8c-0.6-1.1-1.2-2-1.5-3c-0.4-1-0.8-1.8-1.9-2.2
	C177.4,10.9,176.8,10.5,176.4,9.8z M193.3,62c1.7-2,3.3-3.7,4.8-5.5c0.3-0.4,0.4-1,0.5-1.5c0.1-0.6-0.3-0.9-1-0.9
	c0.3,0.4,0.5,0.7,0.7,1c-0.4,0-0.6-0.1-0.7-0.2c-0.7-0.9-1.6-1-2.7-0.6c-0.6,0.2-1.3,0.3-2,0.5C192.5,57.2,193.2,59.4,193.3,62z
	 M171.7,54.5c-1-1.2-1.8-2.2-2.7-3.2c-0.2-0.3-0.7-0.5-1.1-0.5c-2.1-0.1-4.2,0.3-6.1,1c-0.2,0.1-0.4,0.4-0.7,0.7
	c1.2,0.3,2.2,0.6,3.2,0.9c1,0.3,1.9-0.7,3.1,0.2c-0.4-0.7-0.6-1.2-0.9-1.9c0.9,0.3,1.2,0.8,1.4,1.3C168.6,54.5,170,54.5,171.7,54.5z
	 M191.9,81.8c0.7,0.9,1.5,1.7,2,2.6c0.6,1,1.5,1.6,2.6,2c1,0.3,1.9,0.8,2.9,1.2c-0.7-1.3-0.6-3.1-3.1-3.4c0.7-0.2,0.9-0.2,1.2-0.3
	c-1-0.6-2-1.1-2.8-1.8C193.9,81.4,193.1,81.3,191.9,81.8z M182.3,21.5c0.1-0.1,0.2-0.1,0.3-0.2c-0.7-1-1.3-2-2.1-3.1
	c-0.6,1.2-1,2.2-1.5,3.3c0.8,0.7,1.6,1.4,2.3,2c0.9-0.3,0.5-0.9,0.6-1.4c-0.4-0.3-0.9-0.7-1.3-1c0-0.1,0.1-0.1,0.1-0.2
	C181.2,21.1,181.8,21.3,182.3,21.5z M159,52.5c-1.7-0.4-2.6-1.6-4.3-2c0.7,1.2,1.2,2.3,1.8,3.3C157.2,53.4,158,53,159,52.5z
	 M178.8,22.4c-0.2,0.8,0.3,1.3,0.8,1.7c1,0.8,1.8,1.7,2.6,2.7c0.1,0.1,0.3,0.2,0.7,0.5c-0.2-0.7-0.2-1.2-0.4-1.5
	C181.4,24.6,180.5,23.2,178.8,22.4z M186.4,60.7c0.7,1.4,1.6,2.6,2.9,3.6C189.6,62.5,188.8,61.4,186.4,60.7z M157.8,83.8
	c0.8,1.2,1.6,1.2,3.6,0C160.3,83.8,159.1,83.8,157.8,83.8z M159.8,52.8c-0.5,0.3-1,0.5-1.5,0.9c0.6,0.5,1.2,1,1.7,1.4
	C160.3,54.2,160.3,54.2,159.8,52.8z M193.2,50c0.4,0.4,0.6,0.6,0.9,0.9c0.6-0.3,1.1-0.7,1.1-1.7C194.5,49.5,193.8,49.7,193.2,50z
	 M214.6,68.3c0.3-0.5,0.6-0.9,0.8-1.3c0.2-0.4,0.5-0.8,0.5-1.4C214.7,66.3,214.3,67.1,214.6,68.3z M212.5,73.9
	c-1.4,0.7-1.4,0.7-1,2.2C211.9,75.3,212.2,74.6,212.5,73.9z M191.9,51.3c0.3-1,0.5-2-0.7-2.8C191.4,49.5,191.7,50.4,191.9,51.3z
	 M190.8,63.8c-0.1,0-0.2,0-0.3,0c0.2,0.9,0.5,1.8,0.7,2.7c0.1,0,0.2,0,0.3-0.1C191.3,65.6,191,64.7,190.8,63.8z M173.5,62.9
	c0,0.1,0,0.1,0,0.2c0.3,0.1,0.6,0.2,0.9,0.2c0.4,0.1,0.7,0.1,1.1,0.2c0-0.1,0-0.2,0-0.3C174.8,63.1,174.2,63,173.5,62.9z M197,82.8
	c-0.4-0.8-0.4-0.8-1.4-0.6C196,82.3,196.4,82.5,197,82.8z M190.4,59.7c0.1-0.1,0.2-0.1,0.3-0.2c-0.3-0.5-0.5-1-0.8-1.5
	c-0.1,0-0.2,0.1-0.2,0.1C189.9,58.6,190.1,59.2,190.4,59.7z M170.3,62c0,0.1,0,0.1,0,0.2c0.5,0.1,1.1,0.2,1.6,0.4
	c0-0.1,0-0.2,0.1-0.3C171.4,62.2,170.8,62.1,170.3,62z M163.9,76.2c0,0.8,0.2,1.1,1,1.2C164.5,76.9,164.3,76.7,163.9,76.2z
	 M190.1,63.2C190.1,63.2,190.1,63.2,190.1,63.2c-0.1,0.6-0.1,1.2-0.1,1.8c0,0,0,0,0.1,0C190.1,64.4,190.1,63.8,190.1,63.2z
	 M175.3,67.2c-0.1,0-0.2,0-0.3-0.1c-0.1,0.4-0.1,0.7-0.2,1.1c0.1,0,0.1,0,0.2,0C175.1,67.9,175.2,67.5,175.3,67.2z M155.4,85.9
	c0,0,0-0.1,0-0.1c-0.6,0-1.1,0-1.7,0c0,0.1,0,0.1,0,0.2C154.3,86,154.9,86,155.4,85.9z M184.3,22.7c-0.1,0-0.2,0-0.3,0
	c0,0.4,0,0.9,0,1.3c0,0,0.1,0,0.1,0C184.1,23.6,184.2,23.2,184.3,22.7z M176.1,66c-0.7-0.2-1.1-0.1-1.3,0.7
	C175.3,66.4,175.6,66.2,176.1,66z M195.9,49.1c0.1-0.3,0.2-0.5,0.3-0.7c-0.3,0.1-0.5,0.1-0.7,0.1C195.7,48.7,195.8,48.9,195.9,49.1z
	 M176.6,21.1c0.1-0.1,0.2-0.1,0.2-0.2c-0.2-0.2-0.4-0.3-0.5-0.5c-0.1,0.1-0.1,0.1-0.2,0.2C176.3,20.8,176.4,20.9,176.6,21.1z
	 M156.2,56.1c0.1,0,0.1,0,0.2-0.1c-0.1-0.2-0.2-0.5-0.3-0.7c-0.1,0-0.1,0.1-0.2,0.1C156,55.7,156.1,55.9,156.2,56.1z"/>
<g>
	<path d="M80,91c-0.1,0.4-0.2,0.7,0,0.8c0.6,0.4,1.5,0.8,2.2,0.8c1.3,0,2.6-0.4,3.9-0.6c0.3,0,0.7,0.2,1,0.4c1.2,0.8,2,0.8,3-0.3
		c0.4-0.4,0.9-0.9,1.2-1.4c0.3-0.5,0.6-0.8,1-1c0.1-0.2,0.3-0.5,0.5-0.7c0,0-0.1,0-0.1,0c0.4-1.2,0.8-2.2,1.2-3.2
		c0.2-0.7,0.5-1.5,0.5-2.3c0-0.4,0.1-0.7,0.2-1c-0.1-0.1-0.2-0.2-0.3-0.3C94.1,82.2,94,82,94,81.8c-0.2,0-0.4-0.1-0.6-0.2
		c-0.4-0.2-1.1,0.3-1.9,0.6c1.4,0.9,1.4,2,1.2,3.2c-0.4,2.3-1.4,4.3-3.3,5.9c-0.3,0.3-0.8,0.4-1.4,0.8c0.1-0.7,0.2-1.1,0.3-1.5
		c0.7-2.3,1.4-4.7,2.1-7c0.3-0.9,0.6-1.6-0.4-2.3c-0.2-0.2-0.3-0.6-0.4-0.9c3.9-0.6,5.9-3.4,7.5-6.5c1.7-3.2,0.9-6.6,0.6-10
		c-0.1,0-0.3,0-0.4,0c-0.3,2.1-0.6,4.3-0.8,6.4c-0.3,2.2-1.2,4.1-3.4,5.7c0.1-1.4,0.2-2.4,0.3-3.4c0.3-2.4,0.6-4.8,0.8-7.3
		c0.1-1.3-0.1-2.5-1.4-3.8c-0.1,0.8-0.1,1.3-0.1,1.8c0,4.3-0.5,8.6-2,12.7c-0.2,0.7-0.6,1.3-0.9,1.9c-0.5,0.8-1.1,1.3-2.1,0.9
		c-0.8-0.3-1.7-0.2-2.3,0.7c-0.2,0.3-0.8,0.5-1.3,0.4c-1.5,0-2.8,0.2-3.2,2c0,0.1-0.1,0.2-0.2,0.3c-0.1,0.1-0.1,0.1-0.2,0.2
		c0,0.2-0.1,0.4-0.1,0.6c0.1,0,0.2,0,0.3,0c0.1,1.5,0.2,3,0.2,4.4c0.4,0.3,0.5,0.9,0,1.4c-0.1,0.1-0.2,0.2-0.3,0.3
		c0,0-0.1,0.1-0.1,0.1c-0.1,0.1-0.2,0.2-0.3,0.3c0,0,0,0,0,0c0,0.1,0,0.3,0,0.4c0,0,0.1,0,0.1,0c-0.1,0.2-0.1,0.4-0.1,0.5
		c0,0.1,0,0.2,0,0.3C80.2,90.7,80.1,90.9,80,91z M85.1,91.1c0.1-1,0-1.7,0.2-2.3c0.5-2.4,1.1-4.8,1.7-7.2c0.2-0.6,0.6-1.2,1-1.9
		C89.7,81.9,88,89,85.1,91.1z M80.8,91.2c1.2-1.7,1.5-3.5,1.3-5.4c-0.1-1.4,0-2.7,0-4.1c0-0.8,0.4-1.2,1.2-1.2c0.4,0,0.9,0,1.3-0.1
		c0.5,3.2,0.2,6.7-0.9,9.5C83.3,91.1,82.4,91.6,80.8,91.2z"/>
	<path d="M66.1,81c0.2-1.4,1.9-2.3,2.6-1.5c1,1,1.9,1,3.1,0.7c0.9-0.2,0.9-0.2,1.1,0.7c-1.4-0.1-2.5,0.7-2.4,1.8
		c0.3,2.6,0.6,5.3,3,7.1c1.1,0.8,1.8,0.7,2.1-0.7c0.2-0.7,0.3-1.5,0.1-2.2c-0.3-1.6-0.8-3.1-1.2-4.7c-0.1-0.4-0.3-0.7-0.4-1.1
		l0.3-0.2c0.4,0.3,0.8,0.7,1.1,1c0.1,0.1,0.2,0.2,0.4,0.3c0.1,0.3,0.2,0.6,0.3,0.9c0,0,0,0,0,0c0.2,1.7,0.4,3.4,0.6,5.1
		c0,0,0,0.1,0,0.1c-0.1,0.7-0.1,1.4-0.1,2.1c0,0.1-0.1,0.1-0.1,0.2c-0.6,1.8-1.4,2-2.9,0.8c-0.3-0.2-0.5-0.4-0.7-0.7
		c-2-2.5-3.5-5.3-3.5-8.6c0-0.9-0.5-1.4-1.4-1.4c-0.9,0-1,0.7-1,1.4c0,0.7,0,1.5,0,2.2c0.1,1.6,0.5,3.2,1.7,4.4
		c0.4,0.4,1.1,0.6,1.7,0.8c0.3,0.1,0.7,0.1,1.1,0.1c-0.3,0.3-0.5,0.8-0.8,0.9c-0.5,0.1-1.3,0-1.6-0.3c-1.7-1.4-2.8-3.3-3.1-5.5
		C65.9,83.6,65.9,82.3,66.1,81z"/>
	<path d="M77.2,36c2.5-2.1,4.4-4.6,5.6-7.6c0.8-2.1,1.9-4.1,3.6-5.6c0.2-0.2,0.3-0.4,0.4-0.6c0-0.5,0.1-1,0.8-1
		c0.1,0,0.4-0.6,0.3-0.8c-0.1-0.2-0.5-0.4-0.8-0.5c-0.2-0.1-0.4,0.1-0.7,0.1c2-2.1,3.2-2.2,6.2-0.6c-0.1-2-1.4-3.1-2.7-4.1
		c-1.6-1.3-3.3-1.9-5.2-0.2c0-1.7,1.1-2.6,2.6-2.5c3,0.3,6.9,4.5,6.6,7.5c-0.1,1.3,0.4,1.8,1.2,2.4c7.1,6.1,12.4,13.4,15,22.5
		c1.4,4.9,1.8,9.8,1.1,14.9c-0.2,1.1-0.7,1.3-1.5,0.6c-1-1-1.9-2-2.5-3.2c-0.8-1.6-2-2.7-3.4-3.5c-2.5-1.3-5.1-2.4-7.7-3.4
		c-5-1.8-9.4-4.5-12.7-8.7c-0.4-0.5-1.1-0.8-1.7-1.2c-0.1,0.2-0.3,0.3-0.4,0.5c3.5,5.3,8.1,9.7,12.2,14.5c-1.6-2.3-3.3-4.5-4.9-6.8
		c0.1-0.1,0.3-0.2,0.4-0.3c0.6,0.7,1.2,1.3,1.8,2c2.1,2.6,4.2,5.2,6.3,7.7c0.4,0.5,1,0.9,1.6,1.4c0.2-3.9-2.9-6.2-4.3-9.3
		c0.4,0.3,0.8,0.6,1.1,1c1.4,1.6,2.5,3.4,4.1,4.7c1.3,1,2.1,2.1,2.7,3.6c0.6,1.6,1.2,3.1,1.8,4.8c-0.4,0-0.9,0.1-1.4,0
		c-1.8-0.2-3.4-1-4.7-2.4c-6.2-6.6-12.7-13-18.1-20.3c-0.4-0.5-0.7-1.1-1-1.7c1.3-0.6,2.5-0.6,3.5,0.1c1.9,1.4,3.7,2.7,5.4,4.3
		c3.7,3.4,7.8,6,12.9,6.9c2,0.3,3.7,1.3,5,2.8c1,1.1,1.8,2.2,2.7,3.4c0.5,0.7,1.1,1.4,1.7,2.2c0.8-2.2,1-4.3,0.6-6.3
		c-1.6-10.1-6.1-18.9-13-26.3c-1.4-1.5-3.3-2.6-5.1-3.4c-3.1-1.4-5.4-0.5-7.2,2.4c-0.8,1.3-1.3,2.8-1.9,4.2
		c-1.1,2.5-2.5,4.9-4.8,6.6c-1.4,1-1.6,1.5-1.2,3.3c0.1,0.5,0.1,1,0.2,1.7C75.6,39.6,75.4,37.5,77.2,36z M95.9,58.5
		c1.9,2.6,3.9,4.6,7.2,5.3c-1.2-2.4-1.2-5.1-3.4-7.1c0,2.3-0.2,4.4,1.8,6C99,62.2,97.8,60.1,95.9,58.5z M90,19.3
		c0.1,0.6,0.2,1.1,0.3,1.7c-0.4,0.1-0.7,0.1-1,0.2c0,0.1,0,0.3-0.1,0.4c0.8,0.1,1.6,0.2,2.5,0.4C92.2,20.3,91.2,19.8,90,19.3z"/>
	<path d="M52.4,96.9c-0.8-0.8-1.6-1.5-2.3-2.2c4.2-1.2,5.9-4.8,7.7-7.9c-0.1-0.1-0.1-0.1-0.2-0.2c0.2-0.3,0.3-0.7,0.4-1.1
		c0-0.1,0-0.2,0.1-0.3c0.3,0.1,0.6,0.3,1,0.4c-0.2,0.4-0.3,0.9-0.4,1.3c-0.1,0-0.1,0-0.2,0c-1.2,3.2-1.8,7-5.8,8.7
		c2.7,2.1,4.2-0.7,6.4-1.2c-0.1,2.5-1.4,4.3-3.4,5.5c-2.2,1.4-4.3,1.9-5.6,1.1c2-0.9,4.2-1.4,5.6-3.3C54.5,98.1,53.4,97.9,52.4,96.9
		z"/>
	<path d="M71.6,16.5c0.7-0.7,1.3-1.5,2-2.2c1.3-1.2,3.1-1.3,4.3-0.3c1.4,1.2,2,2.9,2.3,4.7c0,0.3-0.1,0.6-0.1,0.9
		c-0.4-0.8-0.6-1.6-0.8-2.4c-0.8-2.9-3.2-3.6-5.4-1.6c-1.8,1.7-2.6,3.8-2.8,6.2c-0.1,1.2,0.1,2.4,0.1,3.9c1.8-1.5,3.3-2.7,4.8-3.9
		c1.5-1.3,6.1-1.6,7.5,0.5c-2.7-0.6-5.2-1.4-7.1,0.8c0.3,2.2,2.5,4.3,0.4,6.7c1.8-0.3,2.3-1.6,2.8-3c1,1.9-0.3,4-2.4,3.9
		c-1.9-0.1-3.7-0.5-5.6-0.8c0.1-0.1,0.2-0.3,0.3-0.4c-0.4-0.7-0.8-1.5-1.1-2c-1.1,0.1-1.9,0.3-2.7,0.4c0-0.1,0-0.2,0-0.3
		c0.4-0.2,0.9-0.5,1.3-0.7c0.9-0.5,1.4-1,0.9-2.2c-0.4-1-0.5-2.2-0.3-3.2C70.4,19.8,71.1,18.2,71.6,16.5L71.6,16.5z M71.9,27.2
		c0.3,0.1,0.6,0.3,0.9,0.4c0.2-0.4,0.3-0.8,0.5-1.2c-0.2-0.1-0.4-0.2-0.6-0.3C72.4,26.5,72.1,26.9,71.9,27.2z"/>
	<path d="M65.6,104.7c-0.1-0.1-0.2-0.2-0.3-0.3c-1.1,2-2.6,3.5-5,4.3c-0.4,0.1-0.8,0.3-1.3,0.6c1.6,0.6,2.8,0.3,4.8-1.4
		c0.8-0.7,1.5-1.4,2.2-2.2C65.8,105.3,65.7,105,65.6,104.7z"/>
	<path d="M60.8,77.1c2.8-2.7,3.6-6.2,3.6-9.9c0-3.8-0.1-7.6-0.5-11.4c-0.4-3.5-0.4-6.9,0.7-10.3c0.1-0.2,0.1-0.4,0.1-0.7
		c-1.1,0.2-1.4,1-1.7,1.8c-1.2,2.9-1.2,5.9-0.8,9c0.7,4.6,1.7,9.2,0.9,13.8c-0.4,2.2-1.2,4.4-1.8,6.5C61.2,76.4,61,76.7,60.8,77.1z"
		/>
	<path d="M62.6,39.4c1.9-0.1,3.6,0.4,5.3,1.5c0.9,0.6,2,0.6,3,0.1c-2.3-0.9-4.5-1.8-6.7-2.8c-0.4-0.2-0.7-0.7-0.7-1.2
		c-0.1-0.7,0.1-1.5,0.2-2.4c-0.6,0.2-1,0.4-1.6,0.6c0-0.6,0-1,0-1.5c0-1,0.1-1.9,0.1-2.9c0-0.2,0-0.5,0.1-0.6c1.6-1.7,2-3.9,2.6-6
		c0.7-2.5,1.8-4.4,4.7-4.6c0-0.1,0-0.2-0.1-0.3c-0.3-0.1-0.7-0.3-1-0.3c-1.7-0.1-3.6,1.3-4.1,2.9c-0.5,1.4-0.9,2.8-1.3,4.3
		c-0.4,1.7-1.3,3-2.6,4.1c-0.2,0.2-0.4,0.5-0.8,0.9c0.7,0,1.2,0,1.7,0c0.4,2.2-1.1,3.8-1.6,5.9c1-0.2,1.8-0.3,2.7-0.5
		C62.7,37.5,62.7,38.5,62.6,39.4L62.6,39.4z"/>
	<path d="M62.7,39.4c-0.1,0-0.2,0-0.4,0c-3.5-0.9-4.7-0.2-6.6,3.6c-2,4.2-2.8,8.7-2.9,13.4c-0.1,4.2-0.1,8.5,0.8,12.6
		c0.4,1.7,1.1,3.3,1.7,4.9c0.2,0,0.3-0.1,0.5-0.1c-0.1-0.4-0.2-0.8-0.3-1.2c-2.1-7.1-2.9-14.2-1.3-21.5c0.6-2.5,1.6-5,2.7-7.3
		c1-2.1,2.6-3.7,5.2-3.9C62.4,39.9,62.5,39.6,62.7,39.4C62.6,39.4,62.7,39.4,62.7,39.4z"/>
	<path d="M76.6,43.1c-0.8,1-0.5,1.7,0.1,2.2c1,0.7,2.1,1.1,3.1,1.7c0.8,0.5,1.8,0.9,2.4,1.6c3.2,3.3,6.2,6.8,9.4,10.1
		c0.9,1,2,1.7,3,2.6c0.4,0.3,0.8,0.4,1.4,0.7c-0.1-0.3,0-0.5-0.1-0.5c-4.9-3.8-8.5-8.8-12.4-13.5c-1.3-1.6-2.7-2.9-4.9-2.8
		C77.5,45.1,76.8,44.4,76.6,43.1z"/>
	<path d="M51.4,105.8c0,0.3,0,0.4,0.1,0.5c0.7,1.2,4.8,2.4,5.9,1.6c1.7-1.3,3.4-2.7,4.7-4.3c1.1-1.4,1.7-3.3,2.5-5
		c0.3-0.8,0.4-1.6-0.6-2c-1-0.4-1.3,0.3-1.6,1.2c-0.7,2-1.3,4-2.2,5.8c-0.7,1.3-1.8,2.3-2.9,3.3c-0.3,0.3-0.9,0.3-1.3,0.2
		C54.4,106.7,53,106.3,51.4,105.8z"/>
	<path d="M66.7,89.4c-0.3-0.4-0.7-0.7-0.9-1.1c-0.8-1.7-1.6-3.5-2.3-5.3c-0.4-1.2,0.1-2.2,1.1-2.9c0.3-0.2,0.4-0.7,0.6-1
		c-0.5,0-1-0.2-1.5-0.1c-1.1,0.4-2,2.2-1.8,3.5c0.5,2.7,1.7,5,3.7,6.8c0.2,0.2,0.4,0.2,0.6,0.3C66.5,89.6,66.6,89.5,66.7,89.4z"/>
	<path d="M65.7,61.9c-0.6,4.6-0.1,9.1-2.6,13.2C66.1,73.6,67.6,65.2,65.7,61.9z"/>
	<path d="M96.4,32.4c-1.7,0.3-2.4-1-3.2-2c-1-1.3-2-1.2-2.9,0c-0.5,0.7-0.4,1.3,0.3,1.6c0.6,0.3,1.5,0.6,2.1,0.4
		c0.9-0.4,1.4-0.1,2,0.6C95.2,33.6,95.8,33.4,96.4,32.4z"/>
	<path d="M71.6,16.5c0-0.9-0.2-1.7-0.1-2.6c0-1.1,0.6-1.7,1.8-1.8c0.6-0.1,1.1-0.3,1.6-0.6c-2.3-0.5-3.8,0.2-4.6,2
		c-0.8-1.2-0.7-1.8,0.9-3.1c-1.7,0.1-2.4,0.9-2.1,2.6C69.5,14.5,69.9,16,71.6,16.5L71.6,16.5z"/>
	<path d="M67.5,12.6c-0.3,1.6,0,3.1,1,4.2c0.6,0.7,1.4,0.6,2.5,0.1C68.6,16.3,68.9,13.9,67.5,12.6z"/>
	<path d="M79.5,15.8c1,0,1.8,0,2.6,0c0.2,0,0.4-0.2,0.5-0.4c0,0-0.1-0.3-0.2-0.4C81.6,14.5,80.2,14.8,79.5,15.8z"/>
</g>
</svg>
