<?xml version="1.0" encoding="utf-8"?>
<!-- Generator: Adobe Illustrator 17.1.0, SVG Export Plug-In . SVG Version: 6.00 Build 0)  -->
<!DOCTYPE svg PUBLIC "-//W3C//DTD SVG 1.1//EN" "http://www.w3.org/Graphics/SVG/1.1/DTD/svg11.dtd">
<svg version="1.1" id="Layer_1" xmlns="http://www.w3.org/2000/svg" xmlns:xlink="http://www.w3.org/1999/xlink" x="0px" y="0px"
	 viewBox="0 0 288 216" enable-background="new 0 0 288 216" xml:space="preserve">
<path d="M72.3,69.2C72.3,69.2,72.3,69.2,72.3,69.2c-0.8-0.1-1.3-0.8-1.5-1.6c-14.5,5.6-28.1,15.1-39.2,27.9l2.3,2
	c10.9-12.7,24.4-22,38.8-27.4C72.5,69.8,72.3,69.5,72.3,69.2z"/>
<path d="M110.7,64.7c-0.8-0.7-2.1-1.8-1.8-3c0,0,0-0.1,0-0.1c-0.1,0-0.3,0-0.4,0c0,0.5-0.2,1-0.6,1.4c-0.4,0.4-0.8,0.7-1.2,1.1
	c0.5,0,0.9,0.2,1.2,0.4C108.9,64.6,109.8,64.7,110.7,64.7C110.8,64.8,110.7,64.7,110.7,64.7z"/>
<path d="M151,80.2l-8.5-13.7l-0.5,5.3c-9.3-5.5-19.6-8.8-30.2-10c1,1.1,2.3,2,3.3,3.2c0.1,0.1,0.2,0.2,0.2,0.3
	c8.7,1.4,17.1,4.3,24.9,8.9l-4.8,2.1L151,80.2z"/>
<g>
	<path d="M47.4,177.4c-0.2,0.6-0.3,1.5-0.8,2.2c-0.9,1.2-1.5-0.6-2.7-0.2c-0.9,0.4-0.4,1.5-0.3,2.2c-0.7,0.4-1.3,0.6-1.7,1
		c-0.5,0.4-0.8,1-1.2,1.6c-0.5-0.3-0.9-0.5-1.3-0.7c-0.6,0.6-1,1.4-1.7,1.7c-0.4,0.2-1.2-0.4-1.7-0.7c-1.1-0.8-1.1-0.8,0.3-3
		c-0.5-0.3-1-0.7-1.6-1.2c1.4-1.2,1.7-2.9,3.1-3.9c0.6-0.4,0.9-1.2,0-1.8c-0.3-0.2-0.5-0.6-0.8-0.9c0.7-0.7,0.8-1.9,2.2-1.5
		c0.1,0,0.3-0.4,0.6-0.7c-0.6-0.4-1-0.7-1.5-1c-1.6-1-3.3-2-4.9-3.1c-1.8-1.2-3.2-2.7-3.7-4.9c-0.3-1.3-0.8-2.5-1.3-3.7
		c-1.7-4.5-1.2-9.1-0.2-13.6c1-4.4,1.8-8.8,2.9-13.1c0.6-2.2,1.6-4.3,2.5-6.5c0.3-0.6,0.6-1.1-0.1-1.6c-0.2-0.2-0.4-0.7-0.3-0.9
		c0.2-0.3,0.6-0.5,1-0.5c1,0,1.8,0,1.1-1.4c-0.1-0.1,0.3-0.5,0.5-0.7c0.5-0.4,1.1-0.7,1.5-1.2c2.1-2.8,4.1-5.7,6.2-8.6
		c0.3-0.4,0.9-0.6,1.3-0.9c2.3-1.1,4.7-2.2,7-3.3c4.9-2.4,9.8-3.1,15-1.1c1,0.4,1.8,0.5,3,0c1.4-0.6,2.5-1.7,4-1.9
		c1-0.2,2.1-0.1,3.1,0.2c1.4,0.3,2.7,1.5,4.4,0.5c0.3-0.2,0.9,0.1,1.3,0.3c0.9,0.5,1.6,0.4,2.5,0c4.4-2,8.9-4,13.4-5.9
		c0.6-0.3,1.5-0.3,2.1-0.1c8.2,3.4,16.4,6.8,24.5,10.3c1.4,0.6,2.2,1.6,2.3,3.4c0.1,3.1-0.4,5.9-1.9,8.6c-1,1.9-1.5,3.9-1.3,6
		c0.3,3.5-1,6.7-1.7,10.1c-0.1,0.3-0.2,0.6-0.2,0.9c-0.3,1.8,0.1,2.5,1.9,2.5c2.8,0.1,5.3,1.1,7.4,2.9c0.3,0.2,0.7,0.4,1.1,0.4
		c4.1-0.1,9.3,4.6,9.5,9.3c0.5,8.9-1.5,17.3-4.9,25.5c-3.3,7.9-8.7,14.1-15.7,19c-2.2,1.5-4.6,2.9-7.4,2.8c-2.9-0.1-5.2-1.5-7.4-3.2
		c-0.4-0.3-0.8-0.5-1.3-0.8c-1.8-1-3.6-2-5.3-3.1c-0.9-0.6-1.5-0.7-2.4-0.2c-1.8,0.8-3.7,1.6-5.5,2.4c-0.5,0.2-0.9,0.7-1.2,1.1
		c-1,1.3-1.9,2.2-3.7,1.6c-2.5-0.8-4.9-0.1-6.9,1.5c-2.7,2.1-5.6,3.9-8.7,5.4c-1.4,0.7-2.6,1.9-3.9,2.9c-0.8,0.7-1.6,1.4-2.4,2.1
		c-1.2,0.9-2.6,1.2-3.9,0.4c-3.2-1.8-6.4-3.7-9.6-5.5c-1.9-1.1-2-2.7-1.8-4.5c0.1-0.8,0.3-1.7,0.6-2.4c2-4.5,2.6-9.3,3.9-14
		c0.1-0.3,0-0.8-0.2-1C51.9,180.7,49.6,179,47.4,177.4z M95.9,153.8c-0.2-1.2,0.5-1.3,1.3-1c1.9,0.8,3.8,1.7,5.9,2.6
		c0.4-0.6,1-1.4,1.6-2.2c-1.8-1.1-3.5-2.1-5.1-3.1c-0.2,0.4-0.4,0.7-0.6,1.2c-0.5-0.4-0.9-0.7-1.2-1
		C96.2,151.1,95.6,152.4,95.9,153.8c0,0.2,0,0.5,0.1,0.8c0.3,1.3,0,1.5-1.3,1.4c-0.4,0-1.1,0.3-1.4,0.7c-0.4,0.5-0.6,1.1-0.7,1.7
		c-0.1,0.4,0.1,0.9,0.2,1.3c0,0.1,0.6,0.1,0.7,0c0.1-0.4,0.3-0.9,0.2-1.3c-0.1-0.8,0.6-1.7,1.3-1.4c1.8,0.8,3.6,1.8,5.4,2.7
		c0.4-0.8,1-1.8,1.5-2.6C99.8,156,97.9,154.9,95.9,153.8z M103.1,156.9c0-0.3,0-0.5,0-0.9c-0.7,1-1.3,2-1.9,2.9
		c0.1,0,0.1,0.1,0.2,0.1C101.9,158.3,102.5,157.6,103.1,156.9c-0.2,0.5-0.5,1-0.7,1.5c-1.2,2.5-2.6,4.9-3.5,7.5
		c-1.8,5.5-2.5,11.1-2,17c0.3,2.8,0.8,5.5,2.2,8c0.5,0.8,1.1,1.5,1.7,2.3c-0.3-1.3-0.9-2.5-1.2-3.7c-1.1-3.8-0.9-7.6-0.3-11.5
		c1.8-10.9,6.1-20.8,13.4-29.2c4.1-4.7,9-8.4,16-6.9c-3.1-1.6-6.3-1.3-9.4,0c-4.7,2-8.3,5.2-11.5,9
		C106.1,152.9,104.6,154.9,103.1,156.9z M65.2,119.4c1-1,2.1-2,3.4-3.2c-2.7-0.6-5-1.2-7.3-1.7c-3.2,3.6-6.3,7.1-9.4,10.7
		c4.9-7,11.1-12.7,17.3-18.5c-0.9-0.2-1.5-0.4-2.2-0.6c-1.6-0.5-3.2-1.1-4.8-1.4c-6.3-0.8-11.2,2.7-16.4,5.4
		c3.1,1.4,6.2,2.8,9.3,4.2c-0.5,0.9-0.8,1.4-1.2,2.1c-3.7-1.5-7.3-2.9-11.1-4.4c-0.8,1.2-1.8,2.5-2.7,3.8c-2.7,3.8-5.4,7.6-7.3,11.9
		c-1.7,3.7-2.3,7.7-3.1,11.7c-1,4.7-2.8,9.4-2.1,14.3c0.5,3.8,2.2,7.4,3.3,11.2c0,0,0,0.1,0.1,0.1c2.5,1.9,5,3.7,7.4,5.6
		c0.2-0.6,0-0.9,0.1-1.2c0.2-1.1-0.4-1.7-1.4-2.2c-1.8-0.9-3.4-1.9-5.1-2.9c-1.2-0.7-1.8-1.7-2.1-3c2.9,1.5,5.7,2.9,8.5,4.4
		c-0.2-1.5-0.4-2.8-0.6-4c-0.3-1.6-0.9-3.2-0.8-4.7c0.2-2.6,0.7-5.3,1.1-7.9c1.7-10,5.5-19.1,12.1-27c1.1-1.3,2.4-2.5,3.5-3.8
		c1-1.2,1.5-2.7,3.3-3.5c2.5-1.1,4.7-3,7-4.5c0.2-0.1,0.5-0.1,0.8-0.1c0.1,0.1,0.1,0.2,0.2,0.4c-2.2,1.8-4.4,3.7-6.7,5.4
		c-3.5,2.5-6,5.7-8.4,9.2c-0.2,0.3-0.4,1.1-0.2,1.2c1.5,1,0.3,2.1-0.1,2.9c-1.1,2.4-2.4,4.8-3.6,7.2c-0.1,0.1,0,0.3,0,0.6
		c1.3-1.7,2.8-3.1,2.8-5.3c0-0.2,0.2-0.4,0.3-0.6c0.8-1.3,1.7-2.7,2.5-4c0.1-0.2,0.3-0.5,0.5-0.7c0.1,0,0.1,0.1,0.2,0.1
		c-0.1,0.4-0.3,0.8-0.4,1.2c1.7,0.5,3.3,1,5.2,1.5c-0.7,1.3-1.3,2.4-1.9,3.6c-1.4-0.6-2.6-1.1-3.9-1.6c-1.6-0.6-2.1-0.3-2,1.1
		c1.9,0.4,3.2,1.5,4.8,2.4c-0.4,0.8-0.8,1.4-1.1,2.1c-0.3,0.8-0.7,0.8-1.4,0.5c-1.3-0.6-2.6-1.1-3.9-1.7c-0.4,0.5-0.7,1-1.1,1.4
		c1.9,1,3.6,1.9,5.3,2.8C55,132.4,59.4,125.4,65.2,119.4L65.2,119.4z M113.4,144.8c-0.1-0.3-0.4-0.5-0.4-0.8
		c-0.2-2.1-0.3-4.2-0.5-6.4c0.7-0.1,1.2-0.2,1.7-0.3c-0.1,0.1-0.1,0.3-0.2,0.4c0.3,0.4,0.6,1,1,1c0.5,0,1-0.4,1.5-0.6
		c-1.3-1.3-2.3-1.6-4.3-1.1c-0.2-1.2-0.5-2.4-0.8-3.6c-0.5-2-1.8-2.3-3.2-0.9c-0.6,0.6-1.2,1.3-2.1,2.4c-0.7-1.9-1.3-3.5-1.8-5.1
		c-0.7-2-1.4-4-3.1-5.4c-0.9-0.8-1.7-1.5-2.4-2.4c-0.3-0.4-0.4-1-0.4-1.5c0-1.7,1.3-2.8,2.1-3.9c1-1.3,1.9-1.3,3.1-0.2
		c1.8,1.7,3.8,1.7,5.8,0.6c0.5-0.2,0.9-0.5,1.4-0.8c2.9-1.8,5.8-3.6,8.6-5.3c0.3-0.2,0.6-0.3,0.9-0.4c0,0.2,0.1,0.3,0,0.4
		c-0.2,0.3-0.3,0.5-0.5,0.8c-2.6,3.3-3.3,7.1-2.6,11.2c0.3,2,1.7,2.7,3.6,2c0.3-0.1,0.7-0.2,1.2-0.4c-0.2,3-0.3,5.8-0.6,8.6
		c0,0.4-0.4,0.8-0.6,1.2c-2-3.3-3.9-6.4-5.8-9.6c0.2-0.5,0.3-1.4,0-1.6c-1.1-1-1,0.9-1.7,0.9c-0.7-0.4-1.3-0.8-2-1.1
		c-1-0.4-1.1-1.3-0.9-1.9c1-2.5,3.2-3.9,5.4-5.2c-1,1.1-2.1,1.9-3.2,2.9c-2.3,2-2.2,3.2,0.3,4.6c0.1,0,0.2,0,0.3,0.1
		c0.6-0.5,1.5-1,1.9-0.7c0.9,0.6,1.3,1.5,0.5,2.2c1.8,3,3.5,5.8,5.4,9c0.1-3,0.3-5.6,0.4-8.4c-0.6,0.2-1,0.3-1.4,0.4
		c-1.3,0.2-2.9-0.5-3.1-1.7c-0.3-1.5-0.5-3.1-0.4-4.6c0.2-2.6,0.7-5.2,2.3-7.4c-2.8,1.6-5.5,3.4-8.3,5c-2.9,1.7-5,2.1-7.7-0.4
		c-0.3-0.2-1.1-0.3-1.3-0.1c-0.8,0.8-1.5,1.6-2.2,2.5c-1,1.3-1.1,2.3,0.2,3.3c3.2,2.6,5,6.1,5.9,10c0.1,0.6,0.5,1.1,0.8,1.9
		c0.6-0.7,1-1.2,1.4-1.7c0.7-0.8,1.7-1.5,2.6-1c0.7,0.4,1.2,1.4,1.5,2.3c0.3,0.9,0.4,1.9,0.5,2.4c1.3,0.3,2.5,0.3,3.3,0.9
		c1.5,0.9,2.9,2,4.2,3.2c0.7,0.7,1.3,0.9,1.8,0.6c0-1.4-0.2-2.7,0-3.9c0.7-3.5,2.1-6.8,1.8-10.4c-0.2-2.2,0.4-4.3,1.4-6.2
		c1.3-2.4,1.8-5,1.8-7.7c0-1.7-0.8-2.8-2.3-3.4c-6.2-2.7-12.3-5.3-18.5-8c-0.3-0.1-0.7-0.2-1-0.1c-4.7,2.1-9.4,4.2-13.9,6.5
		c-2.2,1.1-4,1.1-6.1-0.1c-0.3-0.2-0.7-0.5-1-0.6c-0.5-0.1-1.1-0.3-1.5-0.1c-1.3,0.7-2.7,1.3-3.4,2.8c-1.1,2.4-2,5.1-4.7,6.5
		c0.6,0.3,1.1,0.7,1.6,0.9c2.8,1.4,5.7,2.8,8.5,4.2c2.5,1.2,2.9,1.6,0.6,3.8c-8.4,7.8-14.7,16.9-18.3,27.8c-0.2,0.7-0.5,1.4-0.9,2.1
		c-0.7,1.3-1.6,1.6-2.9,0.9c-2.3-1.2-4.5-2.4-6.8-3.5c-1.5-0.8-3.1-1.5-4.5-2.2c-0.9,1.6-1.4,3.2-2.5,4.2c-1.8,1.7-2.9,3.8-4,5.8
		c-0.2,0.3-0.2,0.8-0.1,1.1c0.2,1.1,0.5,2.1,0.8,3.1c-0.1,0-0.2,0.1-0.3,0.1c-0.3-0.8-0.7-1.6-0.8-2.4c-0.3-3.2,1.7-5.4,3.7-7.5
		c1.3-1.4,2-3,2.8-4.8c-2.1-0.3-2.5-1.7-2.5-3.3c-0.3,0.6-0.5,1.3-0.9,2.2c-1.6-0.9-3.1-1.7-4.6-2.5c0,0,0,0-0.1,0.1
		c-0.1,0.2-0.2,0.4-0.2,0.6c-0.4,2-1.5,3.6-3.1,4.7c-1.6,1-2.1,2.5-2.3,4.2c-0.2,1.8-0.6,4,1.1,5.1c2.2,1.4,3.9,3.6,6.1,4.9
		c1.9,1.1,1.7,2.5,1.6,4.2c-0.5-0.1-0.9-0.2-1.5-0.4c2.6,1.9,3.2,3.2,2.5,4.6c1.4,1,2.1,2.4,1.9,2.6c0.5,0.7,1.3,1.4,1.5,2.3
		c0.4,1.4,1.7,1.7,2.6,2.4c-2.2-3.8-4.7-11.7-4.2-14.1c0.4,2,0.8,3.7,1.2,5.4c0.8,3,1.6,6.1,3.7,8.5c0.8,0.9,1,1.7,0.7,2.8
		c-1.3,5-2.3,10-4.1,14.8c-1,2.7-0.5,4.2,1.9,5.7c2.7,1.7,5.6,3.2,8.3,4.8c1.8,1.1,3.3,0.7,4.8-0.7c0.5-0.5,1-1,1.5-1.4
		c1.6-1.2,3.1-2.6,4.8-3.4c2.6-1.3,5.1-2.7,7.3-4.5c2.6-2.1,5.4-2.7,8.7-2c0.5,0.1,1.4-0.1,1.7-0.5c1.1-1.7,2.8-2.3,4.6-2.9
		c1.1-0.4,2.1-1,3.2-1.6c0.5-0.2,1-0.5,1.5-0.7c-0.9-2.4-2.5-4.7-2.7-7.5c-0.3,0.5-0.4,1-0.8,1.4c-0.4,0.3-0.9,0.7-1.4,0.6
		c-0.7-0.1-1-0.7-0.8-1.4c0.2-0.6,0.4-1.2,0.7-1.7c0.5-0.8,0.3-1.2-0.5-1.7c-0.8-0.6-1.2-0.1-1.6,0.5c-0.3,0.4-0.5,0.7-0.8,1.1
		c-0.1-0.1-0.3-0.2-0.4-0.2c0.4-0.7,0.7-1.3,1.1-2c0.3-0.5,0.7-1,0-1.4c-0.5-0.3-1.2-1-1.8-0.1c-0.2,0.3-0.3,0.6-0.4,1
		c-0.2-0.2-0.4-0.3-0.5-0.5c0.2-1.5,1.4-2.5,2.1-3.6c0.1,0.1,0.2,0.1,0.3,0.2c-0.4,0.5-0.8,1.1-1.2,1.7c0.5,0.2,1,0.4,1.3,0.7
		c0.4,0.3,1,0.7,1,0.9c-0.2,1,0.5,1.2,1.1,1.4c0.8,0.3,1.7,0.5,2.7,0.8c0-0.9-0.1-1.5-0.1-1.9c-1.5-0.7-2.7-1.2-4-1.8
		c0.2-0.5,0.3-0.7,0.4-1c-0.3-0.3-0.6-0.6-1-0.8c0.9,0.1,1.7,0.5,2.5,0.8c1.4,0.4,1.9,0.2,2.1-0.6c-1.4,0.7-4.3-0.6-4.8-2.2
		c1.4-0.3,2.7-0.6,4.1-0.9c1.5-0.3,1.9-1.5,0.8-2.7c-0.7-0.8-0.5-1.6,0.5-2c0.3-0.1,0.7-0.4,0.9-0.7c0.5-1.3,0.9-2.6,1.3-4
		c-0.3,0.2-0.4,0.6-0.7,0.8c-0.2,0.3-0.4,0.6-0.7,0.7c-2.3,0.3-4.6,0.5-7,0.8c0.1-1.3-1.3-2-0.6-3.5c0.7-1.3,1.7-1.7,3.2-1.9
		c-2.1-1.6-1.2-3.2-0.3-4.5c0.4-0.6,1.6-0.8,2.6-1.2c0.3-4.5,0.3-4.5,2.1-5.4c0.4,0.3,0.8,0.6,1.5,1.1c-0.7-2.6-0.3-4.6,2.1-5.6
		c0.4,0.5,0.8,0.9,1.1,1.2c0.1,0,0.3,0,0.4,0c-0.4-2.1-0.8-4.1,1.9-4.6c0.5,0.3,0.9,0.8,1.4,0.8c1.2,0,1.4,0.7,1.4,1.6
		c0,1.6,0,3.1,0,4.7c0,0.3,0.1,0.6,0.2,1.1C109.8,148.2,111.6,146.4,113.4,144.8c1.6-1,3.3-2,5.1-3.1c-0.4-0.9-2.4-1-1-2.7
		c-0.1-0.1-0.2-0.2-0.3-0.3c-0.6,0.2-1.2,0.3-2.1,0.5c-0.2-0.1-0.7-0.4-1.2-0.7c-0.2-0.2-0.4-0.5-0.6-0.7c-0.1,0.4-0.3,0.7-0.3,1.1
		C113.1,140.9,113.3,142.8,113.4,144.8z M141.7,156.4c0-1,0-1.9,0-2.9c-0.3-5.8-4.3-9-10-7.6c-4.1,1-7.4,3.5-10.3,6.3
		c-4.8,4.6-7.9,10.3-10.2,16.4c-2.5,6.6-4.4,13.3-4.2,20.5c0.1,3,0.7,5.9,2.6,8.3c1.5,1.9,3.4,2.9,5.8,2.2c2-0.6,4-1.3,5.6-2.4
		c6.8-4.6,12.1-10.5,15.5-18.1C139.6,171.8,141.4,164.3,141.7,156.4z M70.9,115.4c-0.6,0.4-1.4,0.6-2,1.1c-4.5,4-8.4,8.5-11.6,13.6
		c-3.1,4.9-5.8,10-7.6,15.6c-0.4,1.2-0.1,2.6,0.7,3c4.4,2.2,8.7,4.4,13.1,6.6c1,0.5,1.9,0.4,2.4-0.7c0.2-0.6,0.5-1.1,0.7-1.7
		c0.8-2.1,1.4-4.2,2.3-6.2c4-8.7,9.6-16.2,16.7-22.7c1.2-1.1,1.2-1.3-0.3-2c-3.7-1.9-7.3-3.8-11-5.6C73.3,116,72.2,115.8,70.9,115.4
		z M105.6,195.6c-0.4-1-0.8-1.7-1.1-2.4c-1.4-3.9-1.2-7.9-0.6-11.9c0.9-6,2.7-11.8,5.2-17.3c4.4-9.8,10.9-17.4,21.6-20.7
		c-1.3-0.5-2.5-1-3.9-1.1c-4.3-0.5-7.8,1.4-10.9,4.1c-5.2,4.5-8.7,10.2-11.4,16.3c-3.3,7.4-5.6,15.1-5.1,23.3
		c0.1,2.3,0.7,4.4,1.9,6.4C102.2,193.9,103.6,195,105.6,195.6z M105,100.7c-1.6-0.6-2.9-1.2-4.4-1.6c-0.8-0.2-1.8-0.2-2.5,0.1
		c-4.5,1.9-8.9,3.8-13.3,5.8c-0.9,0.4-1.6,0.4-2.5,0c-0.5-0.2-1.2-0.2-1.9-0.2c-0.7,0-1.4,0.1-2,0c-1.2-0.3-2.4-0.8-3.6-1
		c-1.6-0.2-3,0.8-3.8,1.9c-0.9,1.1-1.5,2.6-1.8,4.1c-0.5,2.2-0.9,2.6-3,2.4c-0.3,0-0.5-0.1-0.8-0.1c-1.2-0.1-2.1,0.3-2.8,1.6
		c2.9,0.2,5.8-1.1,8.5,0.9c-0.3,0.3-0.5,0.5-0.8,0.7c0.8,0.1,1.6,0,2.3,0.2c1.1,0.4,1.9,0.1,2.6-0.6c0.7-0.7,1.5-1.3,1.9-2
		c0.8-1.3,1.3-2.8,2.1-4.1c1.2-2.1,3.6-2.6,5.9-1.7c1.3,0.5,2.4,1.7,4.1,1c3.4-1.5,6.9-3.1,10.3-4.6
		C101.3,102.5,103.1,101.6,105,100.7z M108.4,196.6c-1.7-2.9-2.3-5.9-2.1-9c0.2-3.4,0.5-6.8,1.3-10c2.2-8.8,5.3-17.3,11.6-24.2
		c4.6-5,9.7-9.2,17.2-8.4c-0.4-0.2-0.8-0.4-1.3-0.6c-2.8-1-5.4-0.4-7.9,0.7c-5.7,2.5-10,6.6-13.5,11.5c-4.5,6.5-7.1,13.9-8.8,21.6
		c-0.9,4.2-1.4,8.5-0.5,12.8C104.9,193.4,105.5,195.7,108.4,196.6z M53.3,119.3c-6.7,4.6-16.1,25.6-14.8,32.5
		c4-2.3,4.5-6.4,5.5-10.3c-0.4,0.2-0.7,0.6-0.8,1c-0.6,1.6-1,3.3-1.7,4.9c-0.2,0.5-0.9,0.8-1.3,1.3c-0.1-0.1-0.2-0.2-0.3-0.3
		c0.2-0.7,0.5-1.4,0.8-2.2c-0.4-0.1-0.7-0.2-1-0.3c1.1,0,2-0.3,2.5-1.4c0.2-0.4,0.3-0.8,0.4-1.2c0.5-1.4,1-2.8,1.6-4.2
		c0.8-1.8,1.7-3.5,2.5-5.2c0.8-1.8,1.7-3.5,2.5-5.3c0.3-0.6,0.3-1.3,0.3-2c0-0.6-0.3-1.3-0.1-1.7c0.3-0.8,0.9-1.5,1.5-2.2
		C51.5,121.5,52.4,120.4,53.3,119.3z M91.4,165.6c1.9-0.2,3.8-0.4,5.7-0.6c0.3,0,0.8-0.3,0.9-0.6c0.6-1.2,1.2-2.4,1.7-3.3
		c-1.8-0.8-3.6-1.5-5.3-2.2c-0.2,3.1-1.3,4.4-4.1,4.8C90.7,164.3,91,164.9,91.4,165.6z M104.4,142.4c-1.6,0.9-1.6,0.9-1.3,3.2
		c0.1,0.4-0.1,0.9-0.3,1.7c0.9,0.9-1,1.2-1.1,2.2c1.2,0.8,2.5,1.6,3.8,2.4c0.5-0.6,1.1-1.3,1.7-2c-2.7-1.9-2.7-1.9-2.7-2.6
		c0.8,0.5,1.7,0.9,2.8,1.6c-0.1-2.1-0.2-3.8-0.3-5.4C106.1,143.1,105.3,142.8,104.4,142.4z M43,172.9c0.2-0.1,0.5-0.2,0.7-0.2
		c0.2-2-0.7-3.8-1.5-5.8c1.4,1,2.6,1.8,3.8,2.7c0.3-1.4,0.1-2.1-1-2.8c-1.3-0.8-2.2-2.1-3.4-3c-0.8-0.7-1.7-1.2-2.7-1.9
		c0,0.4-0.1,0.5-0.1,0.6c0.6,1.8,1.6,3.6,1,5.7c-0.1,0.3,0,0.7,0.2,0.9C41,170.2,42,171.6,43,172.9z M45.1,174.3
		c-2.9,1.9-3.7-1-5.3-2.1c-0.8,0.4-1.6,0.8-2.6,1.3c0.6,0.6,0.9,1,1.3,1.3c1.2,0.7,2.5,1.3,3.7,2.1c1.1,0.7,2,1.5,3.1,2.2
		c0.2,0.2,0.7,0.2,0.9,0.1c0.6-0.3,0.9-2.6,0.4-3.1C46.1,175.5,45.6,174.9,45.1,174.3z M54.4,114.5c-3.2-1.5-6.3-2.9-9.3-4.3
		c-0.3-0.1-1,0.3-1.4,0.7c-0.1,0.1,0.2,1,0.5,1.1c3.2,1.3,6.4,2.5,9.6,3.7C54,115.3,54.1,115,54.4,114.5z M36.9,178
		c-0.6,0.8-1.1,1.5-1.6,2.2c1.8,1.1,3.5,2.2,5.4,3.4c0.1-1,1.6-1.5,0.6-2.6c-0.6-0.6-1.3-1.4-2.1-1.5c-0.6-0.1-1.3,0.7-2.2,1.3
		c0.5-0.7,0.9-1.3,1.3-2C37.9,178.6,37.4,178.3,36.9,178z M44.9,140.1c-0.2,0.8-0.4,1.4-0.5,1.8c1.8,1.1,3.7,1.7,5,3.2
		c0.3-0.9,0.6-1.8,0.9-2.6C48.1,142.8,46.7,141.3,44.9,140.1z M43.2,173.3c-1.9-1.2-3.2-3.1-4.1-5.4c-0.1,0.7-0.2,1.5,0.1,2
		c0.9,1.4,1.9,2.7,3,3.9c0.4,0.4,1.2,0.8,1.7,0.7c0.8-0.2,1.6-0.8,1.3-2.1C44.5,172.6,43.9,172.9,43.2,173.3z M39.3,167.1
		c-2.4-2.8-5.9-3.1-8.5-5.3C31.4,163.4,37.3,167.1,39.3,167.1z M54.4,118c2.8-2.2,5.6-4.3,8.4-6.5c-0.1-0.1-0.1-0.2-0.2-0.3
		c-1.6,1.1-3.3,2-4.8,3.2C56.4,115.4,54.4,115.8,54.4,118z M41.2,176.6c-0.6,0.7-1,1.4-1.5,2c1.1,0.6,2,1.2,2.9,1.8
		c0.4-0.6,0.7-1.1,1.1-1.7C43,178.1,42.2,177.4,41.2,176.6z M62.5,114.3c2.6-0.1,5.1,1.5,8,0.3C67.7,113.1,65.1,114.3,62.5,114.3z
		 M92.2,174.4c0,0.1-0.1,0.2-0.1,0.3c0.9,0.4,1.8,0.8,2.7,1.2c0.8,0.4,1.3,0,1.5-0.7c0.2-0.5,0.1-1.1,0.2-1.9
		C94.9,173.8,93.5,174.1,92.2,174.4z M65,111.5c3.2,0.4,3.9-0.1,3.8-2.2C67.3,109.1,65.9,109.9,65,111.5z M102.1,156
		c-1.1-1.5-4.4-2.9-6-2.5C98.1,154.7,99.9,155.9,102.1,156z M52.9,134.9c-2.1-1.8-2.7-1.6-3.2,0.8c0.7,0.3,1.4,0.6,2.1,0.9
		C52.2,135.9,52.6,135.4,52.9,134.9z M45.2,142.6c-0.2,0.1-0.4,0.1-0.5,0.2c-0.2,0.9-0.6,1.9-0.5,2.8c0.1,0.8,2.4,1.8,3.5,1.8
		c-0.2-0.1-0.3-0.2-0.5-0.3c-1.8-1.1-1.7-1.1-1.4-3.3C45.9,143.5,45.4,143,45.2,142.6z M55.5,130.1c-2-1.2-2.3-1.1-3.3,0.8
		C54.6,132.1,54.8,132.1,55.5,130.1z M94.1,157.8c0,0.2,0,0.3,0,0.5c1.9,0.5,3.4,1.8,5.5,1.8c-1.5-1.1-3.1-1.9-4.7-2.7
		C94.7,157.3,94.4,157.7,94.1,157.8z M50.7,139.8c-0.8-0.4-1.6-0.8-2.3-1.2c-1.2,2-1,2.3,1.5,2.9C50.1,141,50.3,140.5,50.7,139.8z
		 M46.4,137.5c-0.3,0.6-0.5,1.1-0.7,1.6c-0.1,0.4-0.1,1,0.1,1.1c1,0.7,2,1.3,3,2c0.1-0.1,0.1-0.2,0.2-0.3c-0.7-0.4-1.4-0.8-2.1-1.2
		c0.2-0.5,0.3-0.8,0.4-1.2c0.2-0.4,0.3-0.8,0.5-1.2C47.4,138,47,137.8,46.4,137.5z M40.7,176.5c-1.5-1.5-1.5-1.5-3.2,0.9
		c0.6,0.4,1.1,0.7,1.7,1.1C39.8,177.7,40.3,177.1,40.7,176.5z M45.7,145.7c0.8,0.5,1.4,0.9,2.1,1.3c1.2-1.9,1-2.2-1.5-3
		C46.1,144.5,45.9,145,45.7,145.7z M100.3,149c2-1.5,2.1-1.8,0.6-3.5c-0.5,0.8-1.1,1.6-1.5,2.4C99.4,148.1,100,148.6,100.3,149z
		 M47.1,173.5c0-2.1-1-3.2-3.2-3.9C44.2,171.5,45.7,172.3,47.1,173.5z M99.9,148.9c-0.1,0.1-0.1,0.2-0.2,0.3
		c1.2,1.4,4.4,3.1,5.2,2.6C103.2,150.9,101.6,149.9,99.9,148.9z M92.7,177.7c1.3,0.6,2.3,1,3.4,1.5c0-0.7,0-1.2,0-1.8
		C95,178,94.1,176.6,92.7,177.7z M50.4,130.4c2,0.7,1.9-1.4,3.1-1.8C51.7,127.9,51.7,127.9,50.4,130.4z M96,183.6
		c-0.2-0.3-0.3-0.6-0.5-0.7c-0.1-0.1-0.5,0-0.6,0.1c-0.4,0.5-0.8,1-1.1,1.6c-0.1,0.2,0,0.7,0.2,0.9c0.1,0.2,0.7,0.2,0.8,0.1
		C95.3,185,95.6,184.3,96,183.6z M38.4,183.3c-0.6-0.5-1.2-1.1-1.8-1.6c-0.9,1.1-0.9,1.1,1.3,2.3C38.1,183.8,38.2,183.6,38.4,183.3z
		 M48.6,135.7c0.1,0,0.3-0.1,0.4-0.1c0.4-0.8,0.8-1.6,1.3-2.6c-1.6-0.3-1.5,1.2-2.1,1.8C48.2,134.8,48.5,135.4,48.6,135.7z
		 M119.4,140c-0.5-0.3-0.9-0.7-1.4-1c-0.2,0.4-0.4,0.7-0.7,1.2c0.5,0.4,1,0.7,1.5,1.1C119,140.8,119.2,140.4,119.4,140z M46.1,173.6
		c-0.1,0.2-0.2,0.3-0.4,0.5c0.8,0.7,1.7,1.4,2.5,2.1c0.1-0.2,0.3-0.3,0.4-0.5C47.8,175,47,174.3,46.1,173.6z M93.2,161.6
		c-1.8-0.4-2.3,0.5-2.5,1.7C91.4,162.8,92.1,162.3,93.2,161.6z M69.5,108.6c0.2-0.9,0.4-1.7,0.6-2.4c-0.1,0-0.1,0-0.2-0.1
		c-0.5,0.6-0.9,1.3-1.4,2C68.9,108.3,69.1,108.4,69.5,108.6z M39.3,165.8c0.1,0,0.2-0.1,0.3-0.1c-0.4-1.2-0.8-2.4-1.1-3.6
		c-0.1,0-0.2,0.1-0.3,0.1C38.5,163.4,38.9,164.6,39.3,165.8z M34.2,124.1c0.2-0.5,0.4-0.9,0.6-1.4c-0.6,0.1-1,0.1-1.6,0.2
		C33.6,123.4,33.8,123.7,34.2,124.1z M97,170.5c0.2-0.7,0.3-1.1,0.4-1.5C96.3,169.1,96.2,169.3,97,170.5z M96.4,183
		c-0.3-1.1-0.8-1.4-1.5-0.8C95.4,182.4,95.9,182.7,96.4,183z"/>
	<path d="M84.3,193.4c1.1-0.2,2.2-0.5,3.3-0.7c0.1,0.1,0.2,0.2,0.2,0.3c-0.3,0.2-0.6,0.5-0.9,0.6c-1.4,0.5-2.8,0.9-4.2,1.4
		c-0.6,0.2-1.1,0.7-1.7,1.1c-0.7-0.7-1.4-0.4-2.3,0.2c-1.9,1.2-4,2.2-6,3.3c-0.6,0.4-1.3,0.7-2.1,1.1c-0.1-0.9-0.2-1.8-0.4-2.6
		c-0.5-1.6-1.2-2-2.8-1.8c-3.1,0.3-4.8,2.5-6,5.1c-0.7,1.5-0.8,3.2-1.2,4.8c-0.1,0.3-0.2,0.5-0.4,1c-0.6-4.1,2.4-9.6,5.9-11.1
		c-0.9-0.7-0.9-1.5-0.3-2.5c1.1-1.9,2.2-3.9,3.2-5.9l0,0c0.4,0,0.9-0.2,1.2,0c3.2,1.7,6.5,1.7,9.8,0.4c0.2-0.1,0.4-0.2,0.5-0.1
		c0.5,0.2,1.1,0.4,1.4,0.7c0.1,0.1-0.2,0.9-0.5,1.2c-0.4,0.3-0.9,0.6-1.4,0.7c-2.3,0.2-4.6,0.4-6.8-0.5c-0.7-0.3-1-0.2-1.4,0.4
		c-1,1.5-2.2,2.9-3.3,4.4c-0.1-0.1-0.2-0.2-0.3-0.2c1.3-1.8,2.7-3.6,4-5.4c4.6,1.7,8.2,1.5,9.5-0.6c-0.6-0.1-1.1-0.3-1.5-0.2
		c-3.4,1.1-6.7,1.3-10-0.3c-0.2-0.1-0.8,0-1,0.2c-1,1.7-2,3.5-2.9,5.2c0.7,0.7,1.4,1.3,2,1.9c0.8,0.7,1.4,0.7,2-0.3
		c0.7-1.2,1.5-2.2,2.2-3.4c0.4-0.7,1-0.9,1.7-0.8c2.4,0.4,4.8,0.5,7.1-0.4c0.7-0.3,1.6,0.1,2.4,0.4c-1.9,2.1-4.2,1.6-6.5,1.9
		c0.3,0.1,0.7,0.3,1,0.2c1.7-0.3,3.4-0.6,5.2-0.9c0.6-0.1,1.2-0.2,1.8-0.2c0.1,0,0.3,0.3,0.4,0.5c-0.2,0.1-0.4,0.2-0.6,0.3
		c-0.4-0.2-0.8-0.5-1.1-0.4c-1.2,0.2-2.4,0.5-3.5,0.8c-0.2,0.1-0.4,0.3-0.6,0.5c-0.2,0-0.4,0.1-0.6,0.1
		C80.8,194.3,82.6,194.4,84.3,193.4z M71.3,200.1c2.5-1.4,4.9-2.8,7.4-4.2c0.5-0.3,1.2-0.5,1.8-0.7c0.6-0.2,1.3-0.2,1.9-0.3
		c0-0.2,0-0.3,0-0.5c-3.6,0.7-6.5-1-9.2-3c0,0-0.1,0-0.1,0.1c-1,1.6-2.1,3.2-3,4.5C70.4,197.5,70.8,198.7,71.3,200.1z M75.5,191.8
		c2.5,1,6.1,0.6,7.2-0.9C80.2,191.2,77.8,191.5,75.5,191.8z M65.7,194.2c-0.1,1.6,0.1,1.7,2.1,1.3C66.9,195,66.4,194.6,65.7,194.2z"
		/>
	<path d="M80.7,116.6c2.6-1.2,1.7-4.3,3.7-6.2c-0.6,1.8-1.2,3.4-1.7,5.1c2.4,1,4.7,2,7,3c2.3,1.1,4.6,2.2,6.9,3.3
		c4.8,2.3,6.9,6.4,7.9,11.3c0.3,1.6,0.6,3.1,0.7,4.7c0,0.4-0.2,1.1-0.5,1.3c-6.8,4.8-11.2,11.6-14.6,19c-0.9,1.9-1.5,4-2.2,6.1
		c-0.3,1-1,1.6-2,1.7c-6.7,0.6-13.3-0.1-19.4-3.2c-3.4-1.7-6.7-3.6-10.1-5.4c-0.4-0.2-0.8-0.5-1.3-0.7c-1.5,1.4-3,2.9-4.5,4.3
		c-0.1-0.1-0.2-0.2-0.3-0.3c1.7-1.7,3.4-3.4,5-5.1c0.2,0.3,0.3,0.8,0.6,0.9c5.2,3,10.4,6.2,16.3,8c4.4,1.3,8.8,1.4,13.3,1.1
		c1.2-0.1,1.7-0.7,2.1-1.8c2.1-7.1,5.6-13.6,10.5-19.1c1.7-2,3.9-3.6,5.8-5.4c0.4-0.4,0.9-1.1,0.8-1.6c-0.5-2.9-1-5.8-1.9-8.6
		c-1-2.9-3-5.1-5.8-6.4c-4.5-2.1-9.1-4.3-13.6-6.3C82.6,116.1,81.7,116.5,80.7,116.6z"/>
	<path d="M82.2,172.2c-1.2-0.9-1.3-1.4-0.5-2.7c0.4-0.6,0.9-1.1,1.5-1.8c-1.9,0-3.6,0-5.3,0c-3.1,0-6.2-0.5-9.1-1.9
		c-0.3-0.1-0.8-0.1-0.9,0c-1.3,1.4-3.4,2.3-3.2,4.7c-0.5-1.1-0.3-2,0.4-2.7c0.8-0.8,1.6-1.6,2.5-2.4c0.3-0.2,0.9-0.4,1.2-0.2
		c3.3,1.8,6.9,1.9,10.5,2.1c1.6,0.1,3.2,0,5.1,0c-1.1,1.2-2.5,1.9-2.7,3.6c0.5,0.1,0.9,0.2,1.3,0.2c1.1-1.9,1.5-4.3,4.2-4.8
		c0,1.1,0,2.2,0,3.4c0.1,0,0.1,0,0.2,0c0.1-0.4,0.1-0.9,0.2-1.2c0.1-0.3,0.4-0.5,0.7-0.6c1.6-0.2,3.2-0.5,4.9-0.6
		c0.8-0.1,1.7,0.1,2.5,0.1c-0.3,1.6-0.4,3-0.7,4.2c-0.1,0.5-0.6,1.1-1,1.1c-1.7,0.4-3.4,0.7-5.2,0.8c-0.5,0.1-1.1-0.3-1.7-0.6
		c-0.5,1.4-1.4,2.3-3.1,2.4C83.3,174.5,82.7,173.4,82.2,172.2c0.7,0.9,1.4,1.8,2.2,2.8c0.4-0.2,1.1-0.4,1.4-0.8
		c1.4-2.2,0.8-4.7,1.2-7.4c-2.4,1.1-3,2.9-3.5,4.9l0,0C83,171.9,82.6,172.1,82.2,172.2z M88,168.5c-0.2,1.2-0.3,2.2-0.5,3.2
		c-0.2,1.1,0.3,1.7,1.4,1.6c1.5-0.2,3-0.3,4.4-0.6c0.4-0.1,1-0.6,1.1-1.1c0.3-1.1,0.4-2.3,0.5-3.6C92.7,167.2,90.5,168.9,88,168.5z"
		/>
	<path d="M72.9,140.8c0.7-1,1.3-1.9,1.9-2.7c0.2-0.2,0.8-0.4,1-0.2c3.8,1.9,7.6,3.8,11.2,6c2,1.1,1.8,2.8-0.2,3.9
		c-0.4,0.2-1.1,0.3-1.4,0.2C81.4,145.7,77.3,143.3,72.9,140.8z M75.1,141.1c2.2,1.3,4.3,2.5,6.4,3.8c0.9,0.5,1.7,0.6,2.4-0.1
		c0.4-0.4-0.3-2-1.1-2.4c-1.7-0.8-3.4-1.4-5-2.3C76.5,139.5,75.8,139.8,75.1,141.1z M75.6,137.9c-0.7,1-1.2,1.5-1.6,2.2
		c-0.1,0.2,0,0.6,0,0.9c0.3-0.1,0.6-0.2,0.8-0.3c0.2-0.1,0.3-0.3,0.4-0.5c0.6-0.9,1.2-1.1,2.3-0.5c1.8,1,3.7,1.8,5.6,2.5
		c1.2,0.5,1.1,1.6,1.3,2.5c0.1,0.3-0.9,0.7-1.3,1.1c-0.1,0.1-0.2,0.1-0.3,0.3c0.9,0.5,1.8,1.1,2.7,1.5c0.3,0.1,0.9,0.1,1.2-0.1
		c1.7-0.9,1.8-2.2,0.2-3.2C83.2,142.1,79.4,140.1,75.6,137.9z"/>
	<path d="M70.3,146.2c0.7-1.2,1.3-2.3,1.9-3.3c3.9,1.7,7.7,3.4,11.4,5.1c0.3,0.1,0.5,0.3,0.8,0.5c1.2,0.8,1.6,1.7,1,2.6
		c-0.7,1.3-2.2,1.8-3.4,1.1c-3.6-1.8-7.2-3.6-10.8-5.5C70.9,146.6,70.6,146.4,70.3,146.2z M73,144.3c-1.1,1.8-1.1,1.8,0.6,2.8
		c1.1,0.6,2.2,1.4,3.4,1.9c1,0.4,2.1,0.7,3.1,0.8c0.3,0,0.8-0.5,1.1-0.9c0.1-0.1-0.2-0.8-0.5-0.9C78.2,146.8,75.6,145.6,73,144.3z
		 M79.6,150.5c1.2,0.6,2.1,1.3,3.2,1.5c0.7,0.1,1.6-0.6,2.2-1.1c0.2-0.2,0.1-1.3-0.3-1.6c-1.8-1.6-4.1-2.4-6.4-3.1
		c0.9,0.5,1.8,0.9,2.6,1.4c0.4,0.2,0.8,0.8,0.8,1.1c0,0.5-0.4,1-0.8,1.4C80.6,150.3,80.1,150.3,79.6,150.5z M72.9,143.4
		c-0.3,0.2-0.7,0.2-0.8,0.4c-0.4,0.5-0.7,1.1-1,1.7c-0.1,0.2,0.1,0.5,0.1,0.7c0.2-0.1,0.5-0.2,0.6-0.4
		C72.1,145.1,72.4,144.4,72.9,143.4z"/>
	<path d="M65.9,156.9c0.6-1.3,1.1-2.3,1.5-3.2c3.8,1.4,7.6,2.7,11.3,4c0.8,0.3,1.5,0.7,2.2,1.1c0.9,0.7,0.9,1.5,0,2.1
		c-1.5,0.9-2.9,1.6-4.7,0.6C72.9,159.9,69.5,158.5,65.9,156.9z M66.5,156.6c0.4,0.2,0.8,0.5,1.2,0.6c2.9,1.3,5.8,2.5,8.6,3.9
		c1.6,0.8,2.9,0.3,4.2-0.5c0.8-0.5,0.8-1.1,0-1.5c-0.9-0.5-1.8-0.9-2.7-1.4c-0.4,2.4-1.5,3-3.6,2c-1.7-0.8-3.5-1.7-5.2-2.5
		c-1.3-0.5-1.5-1.2-0.8-2.3c0.1-0.2,0-0.6,0-0.9c-0.1,0-0.3,0-0.4,0C67.3,154.9,67,155.6,66.5,156.6z M75.9,159.9
		c0.4-0.3,0.9-0.7,1.2-1.2c0.1-0.2-0.5-0.9-0.9-1c-2.2-0.9-4.4-1.6-6.7-2.4c-0.3-0.1-0.8,0.2-1.2,0.2c0.2,0.4,0.3,1,0.7,1.1
		c1.9,1,3.9,1.9,5.8,2.8C75,159.7,75.3,159.7,75.9,159.9z"/>
	<path d="M90.9,140.8c-0.1,2.2-0.6,3-1.9,3.1c-0.4,0-0.9,0-1.2-0.3c-3.4-2.2-6.8-4.4-10.2-6.7c-0.1-0.1-0.3-0.2-0.5-0.3
		c-1-0.5-1.1-1.1-0.3-1.9c1.5-1.8,1.5-1.9,3.6-0.7c3.3,1.9,6.5,3.8,9.8,5.7C90.6,140,90.8,140.6,90.9,140.8z M86.3,141.5
		c0.5,0.5,1,1,1.5,1.4c0.3,0.2,0.7,0.5,1,0.4c0.5-0.1,1.3-0.4,1.4-0.8c0.2-0.8,0.7-1.8-0.4-2.5c-3.1-1.8-6.1-3.6-9.2-5.4
		c-2.3-1.3-2.3-1.2-3.8,0.9c0,0.1,0,0.2-0.1,0.7c0.6-0.2,1.1-0.2,1.3-0.5c0.7-0.8,1.3-0.9,2.3-0.4c1.9,1.1,3.8,2,5.6,3.1
		C87.3,139.3,87.4,140.3,86.3,141.5z M78.3,135.8c0,0.2,0,0.4,0,0.6c2.2,1.4,4.4,2.8,6.7,4.2c0.4,0.2,0.9,0.1,1.4,0.2
		c-0.1-0.6-0.1-1.6-0.4-1.8c-1.9-1.2-3.9-2.3-6-3.3C79.5,135.5,78.8,135.8,78.3,135.8z"/>
	<path d="M69.5,148.3c3.7,1.5,7.2,2.9,10.7,4.3c0.8,0.3,1.5,0.7,2.2,1.1c0.8,0.5,1.2,1.2,0.8,2.1c-0.4,0.8-2.1,1.7-2.7,1.4
		c-4-1.8-7.9-3.6-11.8-5.4c-0.2-0.1-0.4-0.8-0.3-1.1C68.7,149.9,69.1,149.1,69.5,148.3z M69.8,151.3c1.8,1,3.5,2.1,5.3,2.9
		c0.9,0.4,2.1,0.5,3.2,0.4c0.4,0,0.8-0.7,1.1-1.1c-0.3-0.3-0.5-0.7-0.9-0.8c-1-0.5-2.1-0.9-3.1-1.3c-1.6-0.7-3.2-1.3-4.8-2
		C70.3,150.1,70.1,150.6,69.8,151.3z M80.2,153c-0.5,0.7-0.7,1.5-1.2,1.8c-0.5,0.3-1.3,0.3-2.2,0.4c1.4,0.6,2.5,1.4,3.7,1.5
		c0.7,0.1,1.6-0.8,2.4-1.2c-0.3-0.5-0.5-1.1-1-1.5C81.4,153.5,80.7,153.3,80.2,153z M69.9,148.7c-1.7,2.3-1.7,2.7,0.1,3.2
		C68.5,150.9,70.6,149.9,69.9,148.7z"/>
	<path d="M81.7,128.9c0.5,0.2,0.7,0.2,0.8,0.3c3.3,1.9,6.5,3.9,9.8,5.8c0.4,0.2,0.7,0.6,0.9,0.9c0.6,0.8,1.3,1.5,0.4,2.5
		c-0.9,0.9-2,0.9-3,0.3c-3.3-2.2-6.6-4.4-10-6.5c-0.9-0.6-1-1-0.3-1.7C80.9,130,81.3,129.4,81.7,128.9z M82.1,129.3
		c-0.6,0.6-1,1-1.3,1.4c-0.2,0.3-0.2,0.6-0.3,1c0.3-0.1,0.7-0.1,1-0.2c0.5-0.4,0.8-1,1.7-0.5c1.8,1.2,3.7,2.2,5.5,3.4
		c0.5,0.4,1.2,1.4,1.1,1.8c-0.6,1.5,0.6,1.8,1.4,2.4c0.9,0.7,1.7,0.2,2.2-0.4c0.2-0.3,0-1.2-0.2-1.7c-0.2-0.4-0.6-0.8-1-1
		C88.8,133.4,85.5,131.4,82.1,129.3z M82,131.4c0,0.2-0.1,0.4-0.1,0.5c2.4,1.6,4.8,3.3,7.2,4.9c0.1-0.2,0.3-0.3,0.4-0.5
		c-1.1-2.7-4-3.3-6.1-4.8C83,131.3,82.4,131.5,82,131.4z"/>
	<path d="M83,127.4c0.8-0.6,1.3-1.1,2-1.5c0.3-0.2,0.7-0.3,1-0.2c4,1.8,7.9,3.8,10.7,7.4c1.1,1.4,0.7,3-0.7,3.1
		c-0.9,0-1.9-0.5-2.7-1.1c-2.3-1.7-4.4-3.6-6.7-5.3c-0.7-0.5-1.7-0.8-2.4-1.2C83.8,128.3,83.5,127.9,83,127.4z M83.5,127.8
		c0.7,0,1.1,0,1.5,0c0.5,0,1.2-0.2,1.6,0c1.9,1.1,3.8,2.2,5.6,3.4c0.5,0.4,0.8,1.3,0.8,1.9c0,1.2,0.7,2.3,1.9,2.5
		c0.5,0.1,1.2-0.1,1.5-0.4c0.3-0.3,0.3-1.1,0-1.5c-0.4-0.8-1-1.6-1.7-2.1c-2.5-1.7-5-3.3-7.7-4.8C85.4,125.8,85.2,125.9,83.5,127.8z
		 M85.5,128.1c2.4,1.8,4.7,3.5,7.1,5.2C92.5,131.5,87.3,127.7,85.5,128.1z"/>
	<path d="M86.7,124.3c1.8-1.8,1.8-1.8,4-0.9c3.4,1.5,6.6,3.3,8.8,6.5c0.3,0.4,0.6,0.9,0.6,1.4c0,0.7-0.4,2-0.6,1.9
		c-0.9,0-2-0.2-2.6-0.7c-2.1-1.8-3.9-3.9-6-5.7C89.7,125.8,88.2,125.1,86.7,124.3z M92.9,126.8c-0.1,0.1-0.2,0.2-0.4,0.3
		c1,0.9,2,1.8,2.9,2.7c0.1-0.1,0.1-0.1,0.2-0.2c-0.4-0.5-0.8-1.1-1.2-1.6c0.6,0.7,1.5,1.2,1.6,2c0.2,1,0.5,1.7,1.2,2.2
		c0.6,0.4,1.4,0.4,2.1,0.5c0-0.7,0.1-1.4,0.1-2.1c0-0.2-0.3-0.4-0.5-0.6c-2.3-3.2-5.6-4.8-9-6.4c-1.2-0.5-1.9-0.4-2.6,0.7
		c0.7,0.3,1.4,0.5,2.1,0.8C90.7,125.7,91.8,126.3,92.9,126.8z"/>
	<path d="M68.7,187.8c-0.5,0.5-0.9,1.1-1.4,1.6c-0.1,0-0.2-0.1-0.3-0.1c0.4-1.5,0.9-3.1,1.4-4.8c3,2,6.2,1.6,9.3,0.9
		c1.6-0.3,2.3,0.1,2.5,1.8c-3.9,0.4-7.9,1-11.8-1.3C68.6,186.9,68.6,187.4,68.7,187.8C68.7,187.8,68.7,187.8,68.7,187.8z
		 M79.7,186.8c0-0.2,0.1-0.4,0.1-0.5c-0.5-0.1-1.1-0.4-1.5-0.3c-3.1,0.6-6.2,1.2-9.2-0.5c-0.1-0.1-0.3,0-0.8,0.1
		C72.2,187.6,75.9,187.4,79.7,186.8z"/>
	<path d="M112.4,144.8c-1.3,0.8-2.2,1.4-3.4,2.1c-0.1-0.6-0.3-1.2-0.4-1.9c-0.2-1.9-0.2-3.8-0.4-5.7c0-0.5-0.5-0.9-0.7-1.4
		c1.1-1.1,2.8-1.6,3.8-1c0.3,0.2,0.6,0.5,0.6,0.8C112.1,140.3,112.2,142.7,112.4,144.8z M108.5,137.6c0.2,3.1,0.4,5.8,0.6,8.6
		c0.9-0.5,1.7-1,2.5-1.5c-1.7-0.3-1.3-1.7-1.4-2.9c-0.1-1.2,0-2.3,0-3.5c0.3,1.6,0.4,3.1,0.6,4.7c0.1,0.5,0.5,0.9,0.7,1.4
		c0.1-0.1,0.3-0.1,0.4-0.2c-0.2-2.2-0.3-4.4-0.5-6.9C110.4,137.4,109.4,137.5,108.5,137.6z"/>
	<path d="M82.2,174.9c-1.3-3-0.8-3-5-2.4c2.1-2,4.2-0.9,5.8,2.9c-4.7,1.1-9.4,0.5-14.3-1.1c0.2,3.2,0.3,6,0.5,9.1
		c-1.1-3.1-0.6-6.2-0.7-9.5C73.1,174.9,77.6,176.3,82.2,174.9z"/>
	<path d="M69.2,184.5c0.7-1.7,2-2,3.3-2.1c1.8-0.1,3.5-0.1,5.3-0.1c0.8,0,1.5,0.4,1.5,1.3c0,0.3-0.3,0.7-0.6,0.8
		C75.6,184.9,72.5,184.8,69.2,184.5z M70,184.1c2.8,0,5.4,0,8.3,0C76.5,182.3,71.4,182.3,70,184.1z"/>
	<path d="M107.5,125.1c-0.4,0.4-0.7,1.3-1.2,1.4c-0.6,0.1-1.6-0.1-2-0.6c-1.4-1.4-2.6-2.9-3.8-4.4c-0.9-1.2,0.1-1.9,0.7-2.7
		c0.7-0.8,1.4-0.7,2,0c1.3,1.6,2.7,3.2,3.9,4.8C107.4,123.9,107.3,124.4,107.5,125.1z M107.1,124.9c-0.1-0.4-0.2-0.6-0.3-0.9
		c-0.7-2.2-2.6-3.6-4.3-5c-0.2-0.2-1,0.1-1.2,0.4c-0.3,0.4-0.7,1.3-0.5,1.6c1.2,1.6,2.4,3.1,3.8,4.5c0.3,0.4,1.1,0.5,1.6,0.4
		C106.6,126,106.8,125.3,107.1,124.9z"/>
	<path d="M70,167.1c2,1,4.1,2.1,5.7,3.9c0.9,1.1,0.6,2.1-0.8,2.2c-2,0.1-4.1-0.1-6.1-0.3c-0.2,0-0.6-0.4-0.6-0.6
		c0.1-0.3,0.3-0.6,0.6-0.8c1.1-0.6,1.8-1.5,1.7-2.9C70.5,168.3,70.2,167.8,70,167.1z M71.2,168c-0.1,0.1-0.3,0.2-0.4,0.2
		c0.4,2-0.5,3.3-2.5,4.2c2.4,0.7,4.5,0.8,6.6,0.5c0.8-0.2,1.2-0.8,0.5-1.5C74,170.2,72.6,169.2,71.2,168z"/>
	<path d="M124.9,115.7c-0.5,1.3-0.9,2.7-1.6,3.9c-0.6,1-1.6,1.3-2.8,0.9c-1.2-0.4-1.3-1.4-1.1-2.2c0.4-1.5,0.9-3.1,1.6-4.5
		c0.3-0.6,1.4-1.1,2.1-1.1c1.1,0.1,1.3,1.2,1.4,2.1c0,0.3,0,0.5,0,0.8C124.6,115.6,124.8,115.7,124.9,115.7z M124.4,115.6
		c-0.1,0-0.1-0.1-0.2-0.1c0-0.2,0-0.5-0.1-0.6c-0.3-0.6-0.7-1.2-1.1-1.8c-0.6,0.4-1.5,0.7-1.8,1.2c-0.6,1.1-1.1,2.4-1.4,3.6
		c-0.2,0.8-0.2,1.7,0.8,2.1c1,0.4,2,0.1,2.5-0.9C123.6,118,124,116.8,124.4,115.6z"/>
	<path d="M47.9,162.5c0.8,0.4,1.6,0.9,2.4,1.3c2.6,1.5,5.2,3,7.7,4.6c0.5,0.3,0.7,1,0.9,1.5c0.5,1.4,0.8,2.9,1.2,4.4
		c-0.1,0-0.2,0.1-0.3,0.1c-0.4-1.3-1-2.7-1.2-4.1c-0.2-1-0.6-1.5-1.4-2c-2.9-1.6-5.7-3.3-8.5-5c-0.3-0.2-0.6-0.4-0.8-0.5
		C47.8,162.7,47.9,162.6,47.9,162.5z"/>
	<path d="M65.8,170.7c0.5-1,0.8-2,1.4-2.8c0.2-0.2,0.8-0.4,1.1-0.3c0.2,0.1,0.4,0.7,0.4,1C68.6,170.2,67.5,171.2,65.8,170.7z"/>
	<path d="M88.3,194.7c1.7-0.7,3.8-1.1,5.2-2.3c1.4-1.2,2.1-3.2,3.1-4.9C96.4,191.1,92.5,194.5,88.3,194.7z"/>
	<path d="M66.9,171.7c0.3,4.2,0.7,8.4,1,12.8C66.6,180.2,66.7,176,66.9,171.7z"/>
	<path d="M110.9,133.8c-0.8,1-1.2,2.1-2,2.6c-0.8,0.4-1.2-0.6-1.2-1.4c-0.1-1,1-2.2,1.9-2.1C109.8,132.8,110.2,133.3,110.9,133.8z
		 M109.9,133.3c-0.2-0.1-0.3-0.2-0.5-0.2c-0.4,0.3-1.1,0.6-1.2,1c-0.1,0.6,0.1,1.2,0.2,1.9c0.4-0.4,0.9-0.7,1.1-1.2
		C109.9,134.3,109.8,133.8,109.9,133.3z"/>
	<path d="M88.6,177.1c0-0.7,0-1.3,0-2.1c0.7-0.2,1.6-0.4,2.4-0.6C91.1,175.9,90.6,176.4,88.6,177.1z M90.9,175.1
		c-1.9-0.2-2.3,0.2-1.7,1.4C89.7,176.1,90.2,175.7,90.9,175.1z"/>
	<path d="M63.5,203.2c0.1,0.8,0.2,1.6,0.3,2.3c-0.1,0-0.2,0-0.3,0c-0.1-0.8-0.2-1.6-0.2-2.3C63.3,203.2,63.4,203.2,63.5,203.2z"/>
	<path d="M114.1,180.8c1.3-9.2,3.8-17.1,11.5-22.4c1-0.7,2.3-1.2,3.6-1.5c1.5-0.4,2.7,0.4,3.6,1.7c1.6,2.2,2,4.8,1.8,7.4
		c-0.6,5.8-2.4,11.3-5.8,16.2c-2,2.7-4.4,5-7.8,5.9c-2.3,0.6-4.3-0.2-5.3-2.3C114.8,184,114.5,182.2,114.1,180.8z M116,175.6
		c-0.1,0.1-0.6,0.4-0.7,0.7c-0.7,3-0.9,6,0.5,8.9c0.6,1.2,1.4,1.5,2.6,1.5c2.1-0.2,3.8-1,5.4-2.2c7.4-5.8,9.8-13.8,9.6-22.7
		c-0.1-4-3.1-5.6-6.4-3.5c-2.2,1.4-4.3,3.3-6.1,5.3c-2.9,3.2-3.9,7.4-5.3,11.3C115.6,175,115.9,175.4,116,175.6z M134.2,165.2
		c-0.8,2.9-1.6,6.4-2.9,9.8c-2.4,6.3-6.4,11-13.5,12.4c0.7,0.2,1.5,0.4,2.2,0.3c2-0.2,3.7-1.2,5.1-2.5
		C131.3,179.7,133.3,172.4,134.2,165.2z"/>
	<path d="M47.7,122.9c-0.8,2.1-0.8,2.1-2.7,1.2c-2.1-1-4.3-1.9-6.5-2.8c-0.3-0.1-0.6-0.3-0.9-0.5c1-1.9,1.4-2.1,3-1.3
		C43,120.5,45.3,121.7,47.7,122.9z M46.8,124.5c0.4-0.9,0.3-1.5-0.7-1.9c-1.9-0.9-3.8-1.8-5.7-2.7c-1-0.5-1.7-0.3-2.2,1
		C41.1,122,43.8,123.2,46.8,124.5z"/>
	<path d="M60.1,124.6c-0.8,1.1-1.5,2.1-2.2,3c-0.1,0.2-0.6,0.2-0.8,0.2c-1.5-0.6-3-1.3-4.8-2c0.8-0.9,1.5-1.7,2.2-2.4
		c0.2-0.2,0.6-0.3,0.8-0.2C56.9,123.5,58.4,124,60.1,124.6z M54.8,126.3c0.9-2.7,2.8-1.4,4.6-1.3c-1.4-0.7-2.7-1.1-4.1-1.5
		c-0.2-0.1-0.5,0.1-0.6,0.3c-0.5,0.5-1,1.1-1.5,1.7C53.6,125.8,54.1,126,54.8,126.3z M58.5,125.7c-1.6-1.1-2.3-1-2.9,0.4
		C57.5,127.3,57.5,127.3,58.5,125.7z"/>
	<path d="M55.7,121.9c0.9-0.9,1.6-1.8,2.5-2.6c0.2-0.2,0.5-0.3,0.7-0.2c1.4,0.5,2.9,1,4.5,1.5c-0.7,0.9-1.3,1.7-1.9,2.4
		c-0.2,0.2-0.7,0.4-1,0.3C58.9,122.9,57.4,122.4,55.7,121.9z M56.3,121.9c0.9-0.1,1.7,0.1,2-0.2c0.9-1,1.9-1,3-0.6
		c0.4,0.1,0.8,0.1,1.2,0.1c0-0.1,0-0.2,0-0.4C57.6,119.1,59.1,119.1,56.3,121.9z M58.9,122c2.1,1,2.1,1,2.7-0.3
		C59.7,121.1,59.7,121.1,58.9,122z"/>
	<path d="M66.3,117.9c-0.1-0.3-0.1-0.7-0.3-0.9c-1.9-1.6-4.1-1.4-6,0.7c1,0.3,1.9,0.8,2.9,0c0.3-0.2,1,0,1.5,0
		c0.6,0.1,1.1,0.2,1.7,0.3c-0.3,0.4-0.6,0.9-1,1.3c0,0,0,0,0,0c-0.4,0-0.9,0.1-1.3,0c-0.8-0.2-1.6-0.6-2.5-0.8
		c-0.8-0.2-1.6-0.2-2.4-0.4c1.7-3,4.5-3.4,8-1.1C66.9,117.4,66.6,117.7,66.3,117.9z M64.9,118.9c0-0.2,0.1-0.5,0.1-0.7
		c-0.6-0.1-1.2-0.1-1.8-0.2c0,0.1,0,0.3-0.1,0.4C63.8,118.6,64.3,118.7,64.9,118.9z"/>
	<path d="M34.3,158.3c-0.1,0.1-0.4,0.7-0.8,0.7c-0.9,0.1-2.4-1.7-2.3-2.8c0-0.4,0.5-1,0.9-1C33,155,34.3,156.7,34.3,158.3z
		 M33.3,158.7c0.2-0.1,0.3-0.2,0.5-0.3c0.3-1.1-0.3-1.8-1-2.5c-0.2-0.2-0.6-0.3-0.8-0.2c-0.2,0.1-0.3,0.6-0.2,0.8
		C32.2,157.2,32.8,157.9,33.3,158.7z"/>
	<path d="M83.3,193.4c-1.2,0.7-2.5,0.7-3.8,0.3C80.8,193.6,82,193.5,83.3,193.4z"/>
	<path d="M83.5,171.8c0.4-0.8,0.8-1.6,1.3-2.5c0.7,0.4,1.8,0.1,1.5,1.4c-0.2,0.8-1.7,2-2.5,1.8C83.6,172.4,83.6,172,83.5,171.8
		C83.5,171.8,83.5,171.8,83.5,171.8z M84,171.7c0.1,0.1,0.2,0.2,0.3,0.3c0.5-0.3,1-0.6,1.4-1.1c0.1-0.1-0.1-0.6-0.1-0.9
		c-0.3,0.1-0.7,0-0.9,0.2C84.4,170.7,84.2,171.2,84,171.7z"/>
</g>
<g>
	<path d="M146.3,17.5c-0.2,0.4-0.3,0.7-0.5,1.1c-0.6,1-1.6,1.3-2.9,1c-0.3-0.1-0.7-0.2-1-0.3c-1.4-0.7-2.8-0.8-4.3-0.4
		c-3.2,0.9-6,2.6-8.3,5.1c-0.6,0.7-1,1.4-1.2,2.3c0,0.1,0,0.4,0.1,0.5c1.1,1.1,1.9,2.3,2.5,3.7c1.1,2.3,1.3,4.7,1.2,7.2
		c-0.1,1.8,0.1,3.6,0.3,5.4c0.3,3.1,0.1,6.1-1.3,9c-0.8,1.5-2,2.6-3.4,3.5c-2.4,1.6-5.1,2.4-8,2.7c-2.8,0.3-5.5,0-8.2-0.6
		c-0.1,0-0.2,0-0.3-0.1c-0.1,0.3-0.3,0.7-0.3,1c0,0.2,0,0.5,0.1,0.7c0.5,1,1.3,1.9,2.1,2.7c0.9,0.9,1.9,1.8,2.7,2.7
		c0.7,0.7,1.1,1.6,1.3,2.6c0,0.1,0.1,0.3,0.2,0.4c0.2,0.2,0.4,0.3,0.6,0.5c1.9,1.2,3,2.9,3.7,5c0.1,0.4,0.3,0.8,0.4,1.3
		c1.1,0,2.1,0.4,2.8,1.3c0.6,0.8,0.8,1.6,0.9,2.5c0.2,1.7,0,3.3-0.6,4.8c-1.8,5-5.3,8-10.5,9c-0.2,0-0.5,0.1-0.7,0.1
		c-0.6,0-1.2,0-1.8,0c-0.1,0-0.2-0.1-0.3-0.1c-1.3-0.1-2.5-0.4-3.6-0.9c-2.4-1-4.3-2.6-5.9-4.5c-1.3-1.6-2.4-3.3-2.5-5.5
		c-0.1-1.5,0.2-2.9,1.6-3.8c0.5-0.4,1-0.8,1.1-1.5c0.1-0.5,0.3-1,0.5-1.4c1.1-2.7,2.5-5.1,5.5-6.1c0,0,0-0.1,0-0.1
		c-0.9-0.3-1.9-0.7-2.8-1c-0.1,0-0.2,0-0.3,0.1c-0.6,0.5-1.2,1.1-1.9,1.6c-2.9,2.2-6.2,3.9-9.7,5.1c-0.5,0.2-0.7,0.3-0.8,0.8
		c-0.5,1.8-1.7,3.2-3.1,4.3c-1.1,0.8-2.2,1.5-3.4,1.9c0,1.4,0,2.8,0,4.2c0,1.1-0.4,2.1-1,2.9c-0.7,0.9-1.7,1.4-2.9,1.1
		c-1.3-0.3-2.1-1-2.5-2.2c-0.7-1.9-0.6-3.8,0-5.7c0.4-1.3,1-2.5,2.2-3.3c0.8-0.5,1.6-0.8,2.4-1.2c0.7-0.3,1.3-0.7,1.8-1.4
		c-1,0-1.9,0-2.8,0c-0.3,0-0.4,0.1-0.6,0.3c-1,1.3-2.3,2.3-3.9,2.8c-1,0.3-2,0.5-3,0.8c-0.4,0.1-0.6,0.2-0.6,0.6
		c-0.1,0.6-0.2,1.1-0.4,1.7c-0.3,1.4-0.7,2.7-1.5,3.9c-1.7,2.4-4.8,1.3-5.7-0.4c-0.7-1.3-0.8-2.6-0.6-3.9c0.2-1.4,0.6-2.7,1.2-4
		c0.9-2,2.4-3,4.6-2.9c1,0,1.9,0.1,2.9,0.1c0.5,0,1-0.1,1.5-0.2c0,0,0-0.1,0-0.1c-4.1-1.7-6.7-4.6-7.3-9c-0.7-0.1-1.3-0.1-1.9-0.3
		c-1.9-0.5-3.7-1.3-5.4-2.2c-0.8-0.4-1.4-1-1.8-1.8c0-0.2,0-0.3,0-0.5c0.2-0.5,0.6-0.8,1.1-0.9c0.6-0.1,1.1-0.2,1.7-0.3
		c1.6-0.1,3.2-0.1,4.9-0.1c0.4,0,0.9-0.1,1.3-0.2c0.4-0.1,0.7-0.3,0.9-0.7c0.7-1.4,1.7-2.6,3-3.5c0.1-0.1,0.1-0.1,0.3-0.2
		c-0.5,0-0.9,0-1.3,0c-2.9,0.2-5.4-0.8-7.6-2.6c-1.5-1.2-2.6-2.8-3-4.6c-0.6-2.3-0.1-4.3,1.7-6c1.2-1.2,2.8-1.5,4.4-1.4
		c2,0,3.8,0.7,5.6,1.5c3.3,1.5,6.3,3.4,9.2,5.6c0,0,0,0,0.1,0c-0.1-0.1-0.1-0.2-0.2-0.3c-1.3-2.1-2.9-4.1-3.9-6.4
		c-0.9-1.9-1.3-4-1.3-6.1c-0.1-5.7,4.2-9.5,8.1-10.5c2.5-0.6,4.7-0.2,6.5,1.7c1.1,1.2,1.6,2.6,1.9,4.1c0.5,2.4,0.5,4.8,0.1,7.2
		c-0.6,3.5-1.2,6.9-1.8,10.4c-0.2,1.3-0.6,2.7-0.9,4c0.7-0.1,1.5-0.2,2.2-0.2c0.9-0.1,1.9-0.1,2.8-0.3c0.6-0.1,1.1-0.3,1.5-0.7
		c-0.9-1.4-1.5-2.9-1.9-4.5c-0.7-3.4-0.3-6.6,1.4-9.6c0.6-1.1,1.2-2.3,1.7-3.5c1.1-2.6,2.5-5,4.8-6.8c1.2-0.9,2.6-1.5,4.1-1.9
		c0.3-0.1,0.6-0.3,0.7-0.6c1-1.8,2.1-3.6,3.2-5.4c0.6-1.1,1.4-2.1,2.1-3.1c1.2-1.7,2.6-3.2,4.1-4.6c2.1-1.8,4.4-3.1,7.1-3.7
		c0.2,0,0.4-0.1,0.7-0.1c0.4,0,0.8,0,1.2,0c0,0,0.1,0.1,0.1,0.1c1.5,0.2,2.5,1.2,3,2.6c0.4,1,0.1,1.9-0.8,2.5c-0.9,0.7-2,0.7-3,0.3
		c-1.1-0.4-2.2-0.6-3.3,0c-2,1.1-3.8,2.6-5.3,4.3c-1.2,1.4-2.2,3-3.1,4.7c-0.3,0.7-0.7,1.3-1,2.1c3.4-0.1,6.7,0.5,9.8,1.7
		c1.2-2.1,2.9-3.8,4.8-5.2c2.6-2,5.5-3.2,8.6-4.2c1.8-0.6,3.5-0.9,5.4-0.7c1.2,0.2,2.2,0.6,2.9,1.7c0.2,0.3,0.3,0.5,0.4,0.8
		C146.3,16.9,146.3,17.2,146.3,17.5z M108.3,24.8c-0.9,0.5-1.9,1-2.8,1.6c-1.8,1.3-3,3-3.9,5c-1,2.1-2.2,4-3,6.1
		c-0.9,2.5-1.2,4.9-0.7,7.5c0.8,3.5,2.7,6.2,5.6,8.1c4,2.6,8.4,3.7,13.1,4.1c3.5,0.3,6.8-0.7,9.9-2.4c2.3-1.2,3.7-3.1,4.3-5.7
		c0.4-1.9,0.5-3.8,0.5-5.8c0-1.8-0.1-3.5-0.3-5.3c-0.1-1.6-0.3-3.2-0.5-4.8c-0.2-1.2-0.6-2.4-1.3-3.5c-0.6-0.9-1.4-1.7-2.1-2.5
		c-0.1-0.1-0.2-0.2-0.2-0.3c0.3-1.7,0.8-3.3,2.1-4.5c2.4-2.2,5.1-3.8,8.1-4.8c1.5-0.5,3-0.6,4.4,0c0.6,0.2,1.2,0.5,1.8,0.6
		c0.6,0.1,1.2-0.2,1.5-0.7c0.3-0.5,0.2-1.2-0.3-1.6c-0.5-0.4-1-0.7-1.6-0.8c-1.1-0.2-2.1-0.1-3.2,0.1c-2.8,0.6-5.4,1.6-7.9,3
		c-3,1.7-5.5,4-7.3,7c0,0.1-0.3,0.1-0.3,0.1c-1.6-0.8-3.4-1.3-5.2-1.5c-1.6-0.2-3.3-0.2-4.9-0.4c-0.3,0-0.4,0.1-0.5,0.3
		c-0.1,0.2-0.2,0.4-0.3,0.7c0-0.4-0.1-0.9,0-1.3c0.2-1,0.3-2,0.7-2.9c0.6-1.4,1.4-2.7,2.3-3.9c0.7-1.1,1.6-2,2.5-2.9
		c1.3-1.3,2.7-2.4,4.3-3.4c1.1-0.6,2.3-0.8,3.5-0.2c0.4,0.2,0.7,0.3,1.1,0.4c0.6,0.1,1.2,0,1.6-0.5c0.4-0.5,0.3-1,0-1.6
		c-0.5-0.9-1.3-1.1-2.2-1.2c-1.5-0.1-2.9,0.4-4.2,1.1c-3,1.6-5.4,3.8-7.3,6.6c-1,1.5-2,3-3,4.5c-1,1.6-2,3.1-3.1,4.7
		c-0.3,0.5-0.7,0.8-1.2,1.3C108.5,25.3,108.4,25.1,108.3,24.8z M102.9,67.9c0,0,0-0.1,0-0.1c-0.3,0-0.7-0.1-1-0.1
		c-1.6-0.2-3.1-0.6-4.5-1.2c-3.1-1.5-5.3-3.9-6.6-7c-1-2.3-1.2-4.6,0-6.9c0,0-0.1,0-0.1,0c-1.8,0.1-3.7,0.2-5.5,0.3
		c-0.1,0-0.3,0.1-0.4,0.2c-1.2,1.1-1.8,2.6-2,4.2c-0.3,2.3,0.3,4.5,1.2,6.6c0,0.1,0.1,0.2,0.2,0.3c0.7,0.4,1,1.1,1.1,1.8
		c0.1,0.5,0.3,1,0.7,1.4c0.1,0.2,0.3,0.4,0.4,0.6c1.5,1.9,3.2,3.4,5.6,4.1c1.5,0.4,3,0.6,4.5-0.1c1.6-0.8,3.2-1.7,4.8-2.6
		C101.7,68.8,102.3,68.3,102.9,67.9z M100.9,79.9c-0.2,0.8-0.1,1.7,0.2,2.6c1,2.4,2.6,4.5,4.7,6c3.6,2.5,7.5,3.3,11.7,1.3
		c3.2-1.5,5.4-4.1,6.5-7.5c0.4-1.2,0.5-2.5,0.5-3.8c0-0.2,0-0.3-0.1-0.4c-0.3,0.4-0.7,0.9-1,1.3c-1.6,1.6-3.7,2.4-5.9,2.7
		c-1.5,0.2-3,0.3-4.5,0.4c-1.1,0.1-2.2,0-3.3,0c-1.6,0-3.1,0-4.6-0.7c-0.1,0.3-0.2,0.5-0.3,0.8c-0.4,0.7-1,0.9-1.6,0.4
		c-0.2-0.2-0.4-0.4-0.5-0.7c-0.1-0.4-0.2-0.8-0.3-1.2c0-0.1-0.1-0.3-0.2-0.4C101.8,80.5,101.4,80.2,100.9,79.9z M73.5,79.7
		c0.8-0.8,1.7-1.4,2.9-1.6c2.9-0.3,5.1-1.8,6.5-4.4c1.2-2.2,1.4-4.7,1.3-7.1c0-0.4-0.2-0.9-0.5-1.3c-0.3-0.5-1.2-0.6-1.5-0.2
		c-0.4,0.4-0.8,0.9-1,1.4c-0.9,1.7-1.1,3.5-1.3,5.4c-0.1,0.7-0.3,1.4-0.5,2.1c-0.5,1.2-1.7,1.6-2.9,1.6c-1.2,0-2.3-0.1-3.5-0.1
		c-1.2-0.1-2.1,0.3-2.7,1.3c-0.9,1.4-1.4,2.9-1.7,4.5c-0.2,1.1,0,2.3,0.6,3.3c0.8,1.4,2.4,1.6,3.4,0.3c0.5-0.6,0.8-1.4,1.1-2.1
		c0.3-1,0.5-2.1,0.8-3.2C74.1,79.7,73.8,79.7,73.5,79.7z M104.2,66.7c-0.5-0.2-0.9-0.3-1.3-0.5c-1.1-0.6-2.1-1.4-2.8-2.5
		C99,62,98.5,60,98.2,58c-0.1-0.5,0.1-1,0-1.4c-0.2-0.4-0.7-0.7-1-1.1c-0.8-1-1.7-2-1.4-3.4c-0.1,0-0.1,0-0.2,0
		c-1.4,0.1-2.8,0.3-4.2,0.4c-0.2,0-0.3,0.2-0.5,0.3c-0.6,0.8-0.7,1.7-0.7,2.6c0,2,0.6,3.7,1.6,5.4c1.7,2.9,4.2,5,7.5,5.9
		c1.1,0.3,2.2,0.4,3.3,0.6C103.2,67.3,103.8,67.4,104.2,66.7z M84.3,52.8c-2,0.1-3.8,0.4-5.5,1c-0.3,0.1-0.6,0.2-0.8,0.4
		c-1.4,1.4-2.1,3.1-2.3,5c-0.2,2.1,0.1,4.2,0.8,6.3c0.3,1,0.7,1.9,1.2,2.8c0.4,0.7,0.8,1.4,1.3,2.2C79,70.1,79,70,79,69.9
		c0.3-1.5,0.8-3,1.7-4.4c0.6-1,1.3-1.8,2.6-1.7c-0.3-0.9-0.5-1.7-0.7-2.5c-0.4-1.6-0.5-3.2-0.2-4.9C82.5,55,83.2,53.8,84.3,52.8z
		 M83.7,26.3c-0.9,0.6-1.7,1.4-2.4,2.2c-0.1,0.1-0.1,0.2,0,0.3c0.2,0.7,0.3,1.4,0.5,2.1c0.5,1.6,1.2,3.2,2.1,4.6
		c1.5,2.4,2.2,5,2.2,7.7c0,1.7,0.1,3.5,0.5,5.2c0.1,0.2,0.1,0.5,0.2,0.7c0.4,0.6,0.9,1.1,1.3,1.7c0.3,0.6,0.7,0.6,1.3,0.5
		c0-0.3-0.1-0.6-0.1-0.8c0.1-1.1,0.2-2.2,0.4-3.2c0.3-1.7,0.4-3.3,0.2-5c-0.3-2.1-0.8-4.2-1-6.3c-0.1-0.9-0.5-1.5-1.3-2.1
		c-1.7-1.1-2.8-2.7-3.3-4.7C84,28.2,83.8,27.2,83.7,26.3z M78.5,73.2c0.1-0.7,0.2-1.3,0.3-1.9c0-0.1-0.1-0.2-0.1-0.3
		c-1.3-1.4-2.1-3.2-2.7-5c-0.3-0.9-0.5-1.9-0.6-2.8c-0.3-1.8-0.3-3.7,0.2-5.5c0.3-1.2,0.8-2.4,1.6-3.4c-1.4,0.6-2.6,1.4-3.6,2.5
		c-2.1,2.5-2.5,5.4-2,8.4c0.2,1.4,0.8,2.8,1.7,4C74.6,71.1,76.4,72.3,78.5,73.2z M90,25c0.1,1.9-0.4,3.5-0.8,5.2
		c-0.4,1.6-0.6,3.1-0.3,4.7c0.4,1.9,0.7,3.8,1,5.8c0.1,0.7,0.2,1.3,0.3,2.1c0.4-0.6,0.7-1,1-1.6c0.7-1.2,1.2-2.4,2.1-3.5
		c0.1-0.1,0.1-0.2,0.1-0.3c0.3-2,0.4-4,0.3-6.1c-0.1-1.4-0.4-2.7-1.1-3.9C92.1,26.3,91.3,25.5,90,25z M91.9,74.6
		C91.8,74.6,91.8,74.6,91.9,74.6c-1.4,0.2-2.7,0.5-4,0.7c-0.1,0-0.2,0.1-0.2,0.2c-0.3,0.7-0.8,1.2-1.4,1.6c-0.8,0.5-1.7,0.9-2.5,1.3
		c-1,0.5-1.7,1.2-2.2,2.2c-0.8,1.6-0.9,3.2-0.7,4.9c0,0.4,0.2,0.9,0.3,1.3c0.3,0.8,1,1.3,1.9,1.3c0.8,0,1.5-0.6,1.9-1.5
		c0.4-1.1,0.5-2.3,0.5-3.5c0-0.2,0-0.4,0-0.6c-0.1-0.4,0.1-1-0.4-1.3c0.5-0.5,1-1.1,1.7-1.4c0.9-0.5,1.8-1,2.6-1.6
		C90.4,77.3,91.3,76.1,91.9,74.6z M63.5,45.9c0,0-0.1,0.1-0.1,0.1c0.2,0.6,0.3,1.3,0.5,1.9c0,0.1,0.3,0.2,0.4,0.3
		c1.1,0,2.1,0.4,3.1,0.8c1.6,0.6,3.2,1,4.9,1.1c1.4,0.1,2.8,0.2,4.2,0.3c1.8,0.2,3.5,0.5,5.1,1.3c0.1,0,0.2,0.1,0.3,0
		c0.8-0.1,1.6-0.1,2.5-0.2c0,0,0.1-0.1,0.1-0.1c-0.2-0.2-0.3-0.3-0.5-0.4c-1.4-1.2-3-2-4.7-2.7c-0.9-0.4-1.9-0.8-2.9-1.1
		c-1-0.3-1.9-0.5-2.9-0.7c-0.1,0-0.2,0-0.2,0c-1.3,0.5-2.6,0.4-3.9,0.4c-1.5,0-3.1-0.1-4.6-0.7C64.4,46.1,64,46,63.5,45.9z
		 M87.2,51.4c-0.2-0.2-0.3-0.4-0.5-0.6c-1.2-1-2.3-2.1-3.6-2.9c-2.2-1.5-4.4-2.9-6.7-4.3c-2.2-1.3-4.5-2.3-7.1-2.6
		c-0.8-0.1-1.5-0.1-2.4,0.1c1.6,1.4,3.2,2.7,4.8,4c0.9,0.7,1.9,1.2,3,1.4c1.5,0.2,2.9,0.6,4.3,1.2c2.1,1,4.3,2,6,3.6
		c0.1,0.1,0.2,0.1,0.2,0.1C85.8,51.4,86.5,51.4,87.2,51.4z M99.3,57.2c0.1,1.9,0.6,3.5,1.3,5c0.4,0.8,0.9,1.5,1.5,2.1
		c0.9,1,2.3,1.4,3.6,1.7c1.1,0.3,2.3,0.6,3.3,1.2c0.3,0.2,0.7,0.5,0.8,0.8c0.2,0.6,0.2,1.3,0.3,1.9c0.1,0.5,0.3,1,0.6,1.4
		c0.4,0.6,1.1,0.6,1.7,0.2c0.3-0.3,0.6-0.6,0.8-1c0.5-1,0.3-2-0.6-3c-1.1-1.2-2.5-1.7-3.9-2.4c-1.1-0.6-2.3-1-3.4-1.6
		c-1.3-0.7-2.2-1.7-2.7-3.1c-0.2-0.7-0.5-1.3-0.7-2c-0.3-0.8-0.7-1.6-1.1-2.3c-0.3-0.5-0.7-0.5-1,0C99.5,56.5,99.4,57,99.3,57.2z
		 M110.1,57.3c-4.2-1.2-8-2.9-10.7-6.3c-0.8,0.7-1.7,0.8-2.7,1c-0.6,0.1-0.6,0.1-0.6,0.7c0.1,1.6,1.2,2.5,2.2,3.4
		c0.3-0.4,0.6-0.8,0.9-1.1c0.6-0.6,1.4-0.6,2,0c0.3,0.3,0.6,0.7,0.8,1.1c0.4,0.9,0.7,1.8,1.1,2.7c0.1,0.2,0.2,0.3,0.4,0.4
		c1.6,0.6,3.3,0.8,4.9,1c0.2,0,0.5,0,0.6-0.3C109.4,59,109.8,58.2,110.1,57.3z M80.9,29c-0.2,0.4-0.5,0.7-0.6,1.1
		c-0.4,1-0.7,2.1-0.9,3.2c-0.2,1.6,0.1,3.1,0.5,4.6c0,0.2,0.1,0.3,0.2,0.4c1.1,0.9,2.2,1.7,3.4,2.2c0.6,0.3,1.3,0.6,1.9,0.9
		c0-0.3-0.1-0.6-0.1-0.9c-0.2-1.5-0.9-2.9-1.6-4.2c-0.8-1.4-1.6-2.8-2.1-4.4C81.4,30.9,81.2,30,80.9,29z M88.3,34
		c0-0.7,0-1.4,0.1-2.1c0.3-1.6,0.7-3.2,1-4.9c0.1-0.7,0.2-1.4,0.3-2.2c-0.5-0.1-0.8-0.2-1.2-0.2c-1.6,0-3,0.5-4.4,1.3
		C84.1,26,84,26.2,84,26.3c0.1,0.7,0.2,1.4,0.3,2C84.7,30.9,86.3,32.6,88.3,34z M106,75.7c4.2-1,8.5-1.3,12.8-1.4
		c-0.4-1.4-1.1-2.6-2.3-3.5c-0.1,0-0.2,0-0.3,0c-0.6,0.5-1.3,0.7-2.1,0.6c-0.3,0-0.4,0.1-0.6,0.3c-0.7,0.7-1.4,1.1-2.4,0.9
		c-0.6-0.2-1.1-0.6-1.7-0.9C108.1,72.7,106.4,73.5,106,75.7z M105.4,80.5c0,0.3-0.1,0.6-0.1,0.8c0,0.2,0,0.3,0.3,0.4
		c0.6,0.1,1.2,0.3,1.8,0.4c1.5,0.1,3,0.1,4.5,0.1c1.9,0,3.8,0,5.7-0.4c1.6-0.4,3.1-0.8,4.4-1.8c0.8-0.5,1.5-1.2,1.9-2.1
		c0.4-0.9,0.2-1.5-0.7-2c-0.1,0-0.2-0.1-0.3-0.1c-1.1-0.6-2.2-0.6-3.4-0.7c-2.6-0.2-5.1,0.6-7.7,0.7c-1.6,0.1-3.1,0.5-4.7,0.7
		c-0.6,0.1-1.3,0.1-1.9,0.2c0,0.3,0,0.5,0,0.8c0.2-0.1,0.4-0.1,0.6-0.2c1.7-0.5,3.3-0.9,5.1-1c2.2-0.2,4.5-0.3,6.7-0.5
		c1.3-0.1,2.7,0,3.9,0.5c0.9,0.4,1.1,1,0.5,1.8c-0.6,0.8-1.4,1.4-2.3,1.9c-2.2,1.1-4.6,1.5-7,1.5c-0.9,0-1.8,0-2.7-0.1
		C108.5,81.3,106.8,81.5,105.4,80.5z M63.5,45.6c3.3,1,8.3,1.3,9.3,0.7c-0.3-0.2-0.6-0.4-0.9-0.6c-1.1-0.9-2.1-1.7-3.2-2.6
		c-0.7-0.6-1.3-1.1-2-1.7c-0.1-0.1-0.3-0.1-0.4-0.1C64.7,41.8,63.4,43.8,63.5,45.6z M117.4,78.8c-0.2-0.2-0.3-0.3-0.4-0.4
		c-0.7-0.3-1.5-0.4-2.3-0.3c-1.2,0.2-2.3,0.7-3.2,1.5c-0.3,0.2-0.4,0.3-0.7,0c-0.6-0.6-1.3-0.7-2-0.1c-0.3,0.2-0.5,0.2-0.7-0.1
		c-0.4-0.6-1-0.9-1.7-1c-0.4,0-1,0.2-1.1,0.5c-0.2,0.7,0,1.3,0.8,1.6c1.1,0.5,2.4,0.4,3.6,0.4c0.7,0,1.4,0,2.1,0
		c1.2,0.1,2.4,0.2,3.5,0c0.8-0.2,1.7-0.4,2.6-0.6c-0.6-0.5-1.2-0.5-1.8-0.4c0.2-0.2,0.3-0.3,0.5-0.3c0.6-0.1,1.1,0.1,1.6,0.4
		c0.1,0.1,0.3,0.1,0.4,0.1c0.6-0.2,1.1-0.5,1.7-0.8c-0.1-0.6-0.3-0.8-0.8-0.8c-0.3,0-0.5,0-0.8,0.1
		C118.3,78.6,117.8,78.7,117.4,78.8z M120.9,78.7c0.2-0.2,0.4-0.3,0.5-0.5c0.7-0.8,0.6-1.4-0.4-1.7c-0.9-0.4-1.9-0.4-2.9-0.3
		c-1.7,0.1-3.4,0.3-5.1,0.4c-2.6,0.1-5.1,0.5-7.5,1.3c-0.3,0.1-0.3,0.2-0.2,0.5c1.3-0.7,2.3-0.3,3.3,0.6c1-0.7,1.9-0.5,2.7,0.4
		c0.1-0.1,0.2-0.2,0.3-0.2c0.1-0.1,0.2-0.1,0.3-0.2c1.6-1.2,3.3-1.6,5.2-1c0.3,0.1,1.7,0.2,1.9,0.1C120,77.7,120.5,77.9,120.9,78.7z
		 M93.3,72.9c-3.6-0.5-5.8-2.7-7.9-5.3c0,2.4-0.3,4.6-1.4,6.7C87.2,74.5,90.2,73.9,93.3,72.9z M64.3,48.4
		C64.2,48.5,64.2,48.5,64.3,48.4c0.3,0.6,0.6,1.1,1,1.6c1.5,1.7,3.4,2.7,5.5,3.2c0.2,0,0.4,0,0.6-0.1c1-0.5,2-1,2.9-1.4
		c0.7-0.3,1.3-0.6,2-1c-1.3-0.2-2.6-0.3-3.9-0.3c-1.9,0-3.7-0.4-5.5-1.3C66.2,48.7,65.2,48.6,64.3,48.4z M114.4,70.2
		c1-0.1,1.6-0.6,1.6-1.6c0-0.7-0.1-1.4-0.4-2c-0.4-1-1.1-1.6-1.8-2.4c-1-1.1-2-2.2-3-3.3c-0.2-0.2-0.3-0.5-0.5-0.8
		c-0.4,0.7-0.7,1.3-1.1,1.9c0.1,0.1,0.2,0.2,0.3,0.3c0.7,0.9,1.3,1.8,2,2.7c0.2,0.3,0.5,0.6,0.8,0.9C113.5,67,114.7,68.2,114.4,70.2
		z M89.7,51.3c0.2,0,0.4-0.1,0.6,0c0.3,0,0.4-0.1,0.5-0.4c0.3-1,0.6-1.9,0.9-2.9c0.5-2.2,0.9-4.4,1.3-6.6c0.2-0.9,0.3-1.8,0.5-2.8
		c0,0-0.1,0-0.1,0c-0.4,0.6-0.7,1.2-1.1,1.8c-0.5,0.9-1,1.9-1.8,2.7c-0.1,0.1-0.1,0.2-0.1,0.3c0.1,1.4-0.2,2.8-0.4,4.1
		C89.6,48.7,89.5,50,89.7,51.3z M109,69.2c-0.1,0-0.2,0.1-0.2,0.1c-1.7,0.6-2.9,1.9-3.8,3.5c-1.5,2.6-1.9,5.5-1.9,8.5
		c0,0.7,0.2,0.9,0.9,1c0.4,0,0.6-0.2,0.7-0.5c0-0.4,0.1-0.8,0.1-1.2c0-1.3,0-2.6,0-3.9c0-1.6,0.6-3,1.8-4.1c0.6-0.5,1.1-1,1.7-1.4
		c0.6-0.4,1.1-0.9,0.8-1.7C109,69.4,109,69.3,109,69.2z M62.5,60.6c0,0.1,0,0.1-0.1,0.2c0.5,0.3,0.9,0.7,1.4,1
		c1.7,1,3.6,1.6,5.5,2.1c0.2,0.1,0.5,0,0.7,0c0.1-1.3,0.2-2.6,0.4-3.8c-0.9,0.1-1.7,0.2-2.7,0.2c-1.2,0-2.3,0-3.5,0
		C63.6,60.4,63.1,60.5,62.5,60.6z M80.2,38.9c1.5,3.4,3.7,6.4,5.7,9.5c0-0.3-0.1-0.6-0.1-0.9c-0.1-1.5-0.2-3.1-0.2-4.6
		c0-0.6-0.2-1-0.7-1.3c-0.2-0.2-0.4-0.3-0.6-0.4c-0.4-0.2-0.9-0.3-1.3-0.6C82.1,40,81.2,39.5,80.2,38.9z M71.9,53.3
		C71.9,53.3,71.9,53.4,71.9,53.3c0.1,0.1,0.3,0.1,0.4,0.1c1,0,2.1-0.1,3.1-0.1c0.7,0,1.4-0.1,2.1-0.4c0.4-0.2,0.8-0.3,1.3-0.4
		c0.7-0.2,1.5-0.4,2.2-0.6c-0.1-0.1-0.2-0.1-0.2-0.1c-1-0.3-2.1-0.6-3.1-0.9c-0.2-0.1-0.5,0-0.8,0.1c-1.2,0.6-2.4,1.1-3.6,1.7
		C72.7,52.9,72.3,53.1,71.9,53.3z M108.6,60.7c-1.8-0.2-3.4-0.4-5.1-1c0.7,1.8,1.9,2.9,3.6,3.4C107.6,62.3,108.1,61.5,108.6,60.7z
		 M116.9,69.7c1.6,1.1,2.6,2.7,3.1,4.7c0.3,0,0.6,0.1,0.9,0.1c-0.6-2.4-1.5-4.4-3.7-5.7C117.1,69.1,117,69.4,116.9,69.7z
		 M102.5,80.3c0.1-0.9,0.2-1.8,0.4-2.6c0,0-0.1,0-0.1-0.1c-0.3,0.3-0.6,0.5-0.9,0.8c-0.6,0.6-0.6,1,0.1,1.5
		C102.1,80.1,102.2,80.2,102.5,80.3z M108.2,63.6c0.5,0.2,1,0.4,1.5,0.7c0,0,0,0,0-0.1c-0.3-0.4-0.7-0.9-1.1-1.4
		c-0.1,0.2-0.3,0.4-0.4,0.6C108.3,63.5,108.2,63.5,108.2,63.6z"/>
	<path d="M106.4,45.9c-0.3,0.1-0.5,0.2-0.9,0.4c0.3-0.8,1.2-1.2,1.9-1c0.3,0.1,0.4,0.3,0.3,0.6c-0.3-0.1-0.7-0.2-1-0.2
		c0,0-0.1,0.1-0.1,0.1c0.1,0.5,0.2,1.1,0.4,1.6c0.6,1.9,1.9,3.2,3.6,4.2c2.5,1.4,5.2,2,8,1.8c2.1-0.2,4.1-0.8,5.9-2
		c1.5-1.1,2.6-2.4,3.2-4.3c-0.3-0.1-0.5-0.2-0.8-0.4c1-0.3,1.7,0.2,1.7,1c-0.1-0.1-0.2-0.2-0.3-0.2c-0.5,0.8-0.9,1.7-1.4,2.4
		c-1.3,1.8-3.2,2.9-5.3,3.5c-4.2,1.2-8.1,0.7-11.8-1.6c-2.1-1.3-3.2-3.2-3.4-5.7C106.4,46,106.4,46,106.4,45.9z"/>
	<path d="M113.2,40.1c0.5,0.1,0.6,0,0.8-0.5c0-0.1,0.1-0.1,0.2-0.2c0,0.1,0.1,0.2,0.1,0.3c-0.1,0.3-0.3,0.7-0.5,1.1
		c0.5,1,0.2,2.6-0.6,3.4c-0.6,0.6-1.1,0.6-1.7,0c-0.9-0.9-1.2-2.3-0.6-3.4c0.1-0.2,0.3-0.5,0.5-0.6c0.4-0.3,0.4-0.6,0.2-1
		c-0.1-0.1,0-0.2-0.1-0.4c0.1,0.1,0.3,0.1,0.3,0.2c0.1,0.3,0.2,0.6,0.3,0.9c0.2,0.1,0.4,0,0.5-0.3c0-0.2,0-0.3,0-0.5
		c0-0.1,0.1-0.2,0.1-0.3c0.1,0.1,0.2,0.2,0.2,0.3C113.2,39.3,113.2,39.7,113.2,40.1z M111.1,42c0,0.4,0.3,0.7,0.7,0.7
		c0.4,0,0.7-0.4,0.7-0.9c0-0.4-0.2-0.7-0.5-0.7C111.6,41,111.1,41.5,111.1,42z"/>
	<path d="M124.5,39.1c0.1,0.4,0.3,0.8,0.4,1.2c0.3,0.1,0.5-0.1,0.6-0.5c0-0.2,0.1-0.3,0.2-0.5c0.1,0.2,0.1,0.3,0.2,0.5
		c0,0.3,0,0.5,0,0.8c0.4,0.2,0.7,0.1,0.9-0.4c0-0.1,0.1-0.1,0.2-0.2c0,0.1,0.1,0.2,0.1,0.3c-0.2,0.3-0.4,0.6-0.6,1
		c0.4,1.2,0.1,2.4-0.8,3.4c-0.6,0.6-1.2,0.6-1.8,0c-0.8-0.9-1-2.3-0.4-3.4c0.1-0.3,0.4-0.5,0.6-0.7c0.4-0.3,0.5-0.5,0.3-1
		c-0.1-0.1-0.1-0.3-0.1-0.4C124.3,39.1,124.4,39.1,124.5,39.1z M125,42.3c0-0.4-0.2-0.7-0.5-0.7c-0.4,0-0.9,0.4-0.9,0.9
		c0,0.4,0.3,0.7,0.7,0.7C124.7,43.1,125,42.8,125,42.3z"/>
	<path d="M116.1,34.4c0,0-0.1,0.2-0.2,0.2c-0.1,0-0.3,0-0.3-0.1c-0.3-0.7-0.8-1-1.5-1.2c-0.8-0.2-1.7-0.1-2.4,0.4
		c-0.6,0.3-1,0.8-1.6,1.2c-0.1,0.1-0.2,0.1-0.3,0.1c0-0.1,0-0.2,0.1-0.3c1.3-1.6,3-2.5,5.1-1.6C115.6,33.4,116.1,33.9,116.1,34.4z"
		/>
	<path d="M127.9,36c0-0.1-0.1-0.3-0.1-0.4c-0.4-1.2-1.8-2-2.9-1.7c-0.4,0.1-0.6,0.4-1,0.6c-0.1,0.1-0.3,0.1-0.4,0.2
		c0-0.2,0-0.4,0-0.5c0.4-0.6,1-0.9,1.8-0.9c1.3,0,2.6,1,2.8,2.2c0,0.1,0,0.3,0,0.4C128,36,127.9,36,127.9,36z"/>
	<path d="M104.1,84c0.1,0.2,0.2,0.2,0.2,0.3c0.5,1.3,1.4,2.1,2.5,2.9c0.4,0.3,0.8,0.6,1.2,0.9c0.1,0.1,0.1,0.2,0.1,0.3
		c-0.1,0-0.2,0-0.3,0c-1.2-0.9-2.5-1.8-3.3-3.1c-0.2-0.3-0.3-0.7-0.5-1C104,84.3,104.1,84.2,104.1,84z"/>
	<path d="M118.5,87.2c0.1-0.1,0.1-0.3,0.2-0.4c1-0.7,1.7-1.7,2.2-2.8c0.2-0.4,0.2-0.9,0.3-1.4c0-0.2,0-0.3,0.1-0.6
		c0.7,1-0.9,4.3-2.6,5.2C118.6,87.2,118.5,87.2,118.5,87.2z"/>
	<path d="M107.6,86.3c0,0,0,0.1-0.1,0.1c-0.1,0-0.2,0-0.2,0c-0.4-0.5-0.8-0.9-1.2-1.4c0-0.1,0-0.2,0-0.3c0.1,0,0.2,0,0.2,0
		c0.4,0.5,0.8,1,1.2,1.4C107.5,86.2,107.5,86.3,107.6,86.3z"/>
	<path d="M122.8,81.3c0.3,0.7,0,2-0.4,2.1C122.5,82.8,122.7,82.1,122.8,81.3z"/>
	<path d="M119.7,83.9c-0.1,0.3-0.2,0.5-0.3,0.8c-0.1,0.2-0.2,0.4-0.3,0.6c-0.1,0.1-0.2,0.1-0.3,0.2c0-0.1-0.1-0.2,0-0.3
		c0.2-0.5,0.5-0.9,0.7-1.3C119.6,83.9,119.7,83.9,119.7,83.9z"/>
	<path d="M108.6,86c0.4,0,0.8,0.5,0.8,0.8c-0.3-0.2-0.6-0.5-0.8-0.7C108.5,86.1,108.6,86.1,108.6,86z"/>
</g>
<g>
	<path d="M191.7,192.2c0.4,2.3,0.8,4.2,1.2,6.2c0.4,2,1,4,1.5,6c0.4,1.9,1.2,3.7,1.6,5.7c-0.1,0.1-0.3,0.1-0.4,0.2
		c-0.2-0.3-0.4-0.6-0.7-0.9c-0.8-1.1-1.5-2.3-2.4-3.3c-2.9-3-6.4-3.8-10.3-2.6c-1.5,0.5-2.9,1.2-4.3,1.8c-0.4,0.2-0.9,0.3-1.5,0.6
		c0.2-1.6,0.4-3,0.6-4.4c1.1-7.5,1.5-15.1,1.3-22.6c0-0.5-0.2-0.9-0.5-1.3c-3-4.9-5.1-10.1-5.9-15.7c-0.3-2.1-0.9-3.9-1.9-5.7
		c-2.8-5.4-4.4-11.1-4.9-17.1c-0.5-6.5,1.2-12.6,5.3-17.8c0.7-0.9,1.7-1.8,2.6-2.5c1.1-0.8,1.8-1.8,2-3.1c0.4-2.9,0.8-5.8,1-8.6
		c0.3-7.1-0.3-14.1-1.6-21c0-0.2-0.1-0.4-0.1-0.6c-0.5-2.1,0-3.1,2-4c3.3-1.5,6.6-1.3,10-0.4c-0.4,0-0.7-0.1-1.1-0.1
		c-2.6-0.2-5.2,0-7.7,1c-0.8,0.3-1.5,0.8-2.1,1.4c-0.6,0.5-0.5,1.1,0.1,1.6c0.5,0.4,1.1,0.8,1.7,1c3.9,1.4,7.8,1.7,11.5-0.6
		c0.2-0.1,0.4-0.2,0.8-0.3c-0.4,2.4-0.8,4.7-1.1,6.9c0,0,0.1,0,0.1,0.1c0.1-0.1,0.1-0.1,0.2-0.2c1.8-4.9,5.2-8.2,9.8-10.4
		c0.9-0.4,1.1-0.9,1.1-1.8c-0.1-3.2-0.5-6.4-1.6-9.4c-0.4-1.1-1-1.9-2.1-2.4c-1.4-0.6-1.5-1.4-0.3-2.4c0.9-0.7,1.8-1.2,2.9-1.9
		c3.8,4.4,4.9,9.7,5.4,15.3c1.6-0.5,3.1-1.4,5-0.5c0-1.4,0-2.7,0-3.9c0-0.8,0-1.6,0-2.3c0.1-1.3,0.9-1.9,2.1-1.8
		c0.9,0.1,1.8,0.3,2.7,0.6c0.2,0.1,0.4,0.6,0.4,0.9c-0.2,1.9-0.5,3.9-0.6,5.8c-0.1,2,0.8,2.7,2.9,2.6c0.2-1.4,0.3-2.9,0.6-4.3
		c0.2-1,0.5-2.1,0.9-3.1c0.6-1.3,1.7-1.4,2.6-0.3c0.2,0.2,0.4,0.5,0.5,0.7c0.9,1.3,0.9,1.3,2.6,0.8c-0.2,0.5-0.3,0.8-0.5,1.1
		c-1,1.5-2,2.9-2.9,4.4c-0.7,1.2-0.4,2.1,0.8,2.5c6.4,2.3,8.9,7.5,10.3,13.5c0.3,1.2,0.5,2.4,0.7,3.7c0.4-0.1,0.9-0.1,1.3-0.2
		c5.6-1.1,11.3-1.3,17-1.1c1.1,0,1.8,0.8,2.1,1.6c0.5,1.3,1,2.7,0.9,4c-0.1,2.1-0.6,4.1-0.9,6.2c-0.1,0.3-0.3,0.6-0.5,0.9
		c0.8-2.4,1.1-4.8,0.9-7.3c-0.1-1.3-0.4-2.6-1.4-3.7c-0.6-0.6-1-0.7-1.7,0c-1.9,2.2-2.7,4.6-2.7,7.5c-0.1,2.1,0.7,3.5,1.8,5.1
		c0.1,0.2,0.2,0.3,0.4,0.7c-4.2-1.5-8.3-2.3-12.7-2.1c0.1,0.1,0.1,0.2,0.2,0.2c3.9,1.1,6.5,3.7,8.5,6.9c2.7,4.2,4.2,8.9,5.3,13.8
		c0.4,1.7,0.7,3.5,1,5.3c0.1,0.4,0.2,0.8,0.4,1.2c4.7,7.6,7.5,16,9.1,24.7c1.2,6.4,1.7,12.9,1.5,19.5c-0.2,5.2-0.9,10.4-2.2,15.5
		c-1.8,6.7-6.3,9.8-12.8,10.6c-4.6,0.6-9.2,0-13.7-0.8c-7.5-1.3-14.9-2.7-22-5.3c-6.8-2.4-13.3-5.6-19.3-9.6
		C192.5,192.7,192.2,192.5,191.7,192.2z M243.7,149.8L243.7,149.8c0.1-0.4,0.2-0.8,0.3-1.2c1.9-6.4,2.5-12.9,1.2-19.5
		c-1-5.4-3.4-10.1-7.9-13.5c-0.4-0.3-1-0.5-1.5-0.6c-3.9-0.5-7.3,0.7-10.4,3.1c-3.4,2.6-5.9,6.1-8.1,9.7c-0.2,0.3-0.1,0.8-0.1,1.1
		c1.6,6.9,5.3,12.4,11.2,16.4c1.4,1,3,1.9,4.5,2.8c0.9,0.5,1.2,1.1,1,2.1c-0.1,0.4,0,0.9,0.3,1.2c0.8,1.1,1.6,2,2.4,3
		c0,0-0.1,0.1-0.1,0.1c-1-1-2.1-2-3.2-3c0.1-0.4,0.1-0.8,0.2-1.3c0.3-1-0.1-1.6-1.1-2.1c-1-0.5-2-1.2-3-1.8c-6.6-4-11-9.6-13-17.1
		c-0.1-0.2-0.2-0.5-0.3-0.9c-1.3,4.2-1.7,8.4-2.2,12.6c0-6,0.9-11.9,3.4-17.4c4.4-10,12.9-14.8,23.8-13.5c2,0.2,3.9,0.7,5.8,1
		c-1.9-4.2-0.9-8.2,0.5-12.3c0,0-0.1,0-0.2,0c-6,0-12,0.5-17.8,2.4c-4.2,1.3-8.2,3.2-11.5,6.3c-1.3,1.3-1.5,1.4-2.8,0
		c-0.7-0.7-1.3-1.5-1.8-2.3c-0.7-1.3-1.3-2.6-1.9-4c-0.1-0.2-0.2-0.5-0.4-0.7c-0.6,0.6-1.1,1.1-1.7,1.6c0.4-0.7,1-1.2,1.2-1.9
		c0.2-0.6-0.1-1.3-0.3-2c0-0.1-0.8,0-1.2,0.2c-1.6,0.8-2.2,2.1-2.3,3.6c0.4,0.4,0.9,0.6,0.9,0.9c0.7,3.3,2.5,6.2,4.3,8.9
		c0.1,0.2,0.3,0.5,0.5,0.9c-0.7-0.3-1.2-0.5-1.7-0.7c-2-0.8-3.9-0.8-5.7,0.3c-1.1,0.7-2.2,1.6-3,2.6c-1.9,2.1-3,4.7-3.9,7.4
		c-2.5,7-3.5,14.2-3.9,21.6c-0.1,1.5,0.3,2.8,1.2,4c0.1,0.2,0.2,0.4,0.3,0.5c-0.1,0-0.1,0.1-0.2,0.1c-0.5-0.7-1-1.3-1.6-2.3
		c0.1,1.1,0.1,1.9,0.2,2.6c0.3,1.7,0.7,3.3,0.8,5c0.4,4.6-0.9,8.8-3.1,12.7c-0.1,0.2-0.3,0.4-0.5,0.6c-0.1-0.4,0-0.7,0.1-1
		c0.5-1.5,1-2.9,1.4-4.4c1.2-3.7,1.7-7.5,1.1-11.5c-0.3-1.9-0.5-3.9-0.6-5.8c-0.3-6.1,0.4-12,1.9-17.9c0.1-0.3,0.2-0.6,0.1-0.9
		c-0.7-2.3-1.9-4.3-3.7-5.9c-3.6,2.3-10,3.3-13,2c4.3,0.3,8.4-0.1,12.3-2.8c-1-0.6-1.7-1-2.5-1.4c-4.7-2.2-11.6-0.9-15.3,3
		c-4.4,4.6-6.3,10.3-6.2,16.6c0.2,7,2.5,13.3,5.7,19.4c0.6,1.2,1.4,2.2,2.5,2.9c4.3,2.6,8.6,5.2,13,7.8c0.4,0.2,0.7,0.4,1.1,0.6
		c-5.7-1.3-10.8-3.8-15.4-7.7c0,0.5,0,0.7,0.1,0.9c0.6,5.4,3.2,10,5.7,14.7c1.6,3.2,4.1,5.7,6.7,8.2c5.8,5.9,12.5,10.2,20,13.4
		c8.9,3.8,18.2,6.1,27.7,7.6c4.6,0.7,9.3,1.2,13.9,0.6c4.8-0.6,8.3-2.9,9.8-7.8c1.4-4.6,2.2-9.3,2.4-14.1c0.4-6.4,0-12.8-1-19.1
		c-1.5-9.2-4.2-18-9.1-26c-0.3-0.4-0.4-1-0.5-1.5c-0.6-2.9-1-5.8-1.7-8.6c-1.1-4.4-2.7-8.6-5.6-12.2c-1.9-2.3-4.1-4-7.1-4.4
		c-3.7-0.6-7,0.6-10,2.6c-4.3,2.9-6.9,7.1-8.6,11.9c0,0,0.1,0.1,0.1,0.1c0.4-0.7,0.9-1.3,1.3-2c1.7-2.5,3.5-4.8,5.7-6.8
		c2.4-2.1,5.2-3.6,8.4-4.1c2.7-0.4,5.1,0,7.3,2c3.6,3.3,5.9,7.2,6.9,12c1.5,7.5,0.2,14.6-2.6,21.5
		C244,149.6,243.9,149.7,243.7,149.8z M195.6,66.9c2.5,0.7,3.3,2.8,3.7,5c0.5,2.6,0.7,5.4,1.1,8c0.1,0.9-0.1,1.4-1,1.8
		c-6.4,2.9-10.4,7.8-11,14.9c-0.2,2.6,0.1,5.2,0.5,7.8c0.9,5.9,1.9,11.9,5.9,16.8c0.7,0.9,1.1,2,1.7,3.2c0.2-0.6,0.4-1,0.6-1.5
		c1.3-2.6,2.4-5.4,4-7.8c1.9-3,4.4-5.3,8.5-4.8c-0.2-0.4-0.4-0.7-0.5-1c-0.7-1.6-1.5-3.2-2.1-4.8c-1.1-2.8,0-5.3,2.1-6.9
		c1.6-1.2,2.4-1.2,3.6,0.4c1.5,2.1,2.7,4.4,4.1,6.7c0.3,0.5,0.5,1,0.8,1.6c4.2-3.6,9-5.5,14.2-6.9c-0.2-1.2-0.4-2.2-0.6-3.3
		c-1.3-6.2-3.9-11.3-10.2-13.8c-1.6-0.6-1.8-1.5-1-3.1c0.2-0.4,0.3-0.7,0.6-1c0.7-1,1.4-2,1.9-2.9c-0.6-0.8-1.1-1.4-1.7-2.1
		c-0.4-0.4-0.8-0.7-1.2-1c-0.3,0.4-0.8,0.8-1,1.3c-0.3,1-0.6,2.1-0.7,3.1c-0.2,1.4-0.3,2.8-0.5,4.1c-3.2,0-4.2-1.1-4-4.1
		c0.1-1.2,0.2-2.4,0.4-3.6c0.3-2,0.3-2.1-1.8-2.3c0,0-0.1,0-0.1,0c-1.4-0.1-2,0.3-2.1,1.7c-0.1,1.2,0,2.5,0,3.7c0,0.7,0,1.4-0.1,2.1
		c0,0.2-0.6,0.6-0.7,0.6c-1.2-1-2.4-0.3-3.6,0.1c-0.5,0.2-1,0.4-1.5,0.7c-0.3-2.1-0.5-4.1-0.8-6c-0.6-3.1-1.7-6.1-3.6-8.7
		c-0.2-0.2-0.4-0.6-0.7-0.6C197.8,64.3,195.8,66,195.6,66.9z M190.9,115.9c-1.8-4.9-3-9.8-3.3-14.9c-0.3-5.1,0.3-10,1.3-15.1
		c-4.6,2.3-9.1,2-13.7,0.2c1.6,10.3,2.5,20.6,0.2,31C180.5,115,185.5,114.2,190.9,115.9z M194.2,206.3c0-0.2-0.1-0.3-0.1-0.5
		c-0.8-4.1-1.6-8.2-2.3-12.3c-0.2-1-0.5-1.6-1.3-2.2c-4-3.1-7.6-6.7-10.6-10.8c-0.2-0.2-0.3-0.4-0.7-0.8c0.1,8.3-0.1,16.4-1.5,24.5
		C183.8,201.1,189.4,200.8,194.2,206.3z M212.6,99c0.9,2.8,1.8,5.6,4.2,7.7C215.8,104,214.3,101.4,212.6,99z"/>
	<path d="M249.3,157c1,2.6,2.1,5.2,3,7.9c2.5,7.4,4.3,14.9,4.8,22.7c0.2,3.4,0.2,6.7-0.7,10c-0.3,1.1-0.8,2.2-1.4,3.1
		c-1.7,2.8-4.8,3.7-7.6,2.2c-1.7-0.9-3.3-2.2-4.8-3.5c-3.9-3.7-6.9-8.1-10-12.6c-6.2-9.1-12-18.5-17.4-28.1
		c-0.2-0.4-0.5-0.8-0.9-1.2c0.3,1,0.6,2,0.9,3c3.6,10.6,9,20.3,15.4,29.4c3.2,4.5,6.8,8.8,10.2,13.2c0.2,0.3,0.4,0.7,0.6,1.1
		c-0.4,0.2-0.8,0.5-1.2,0.5c-2.2-0.1-4.4-0.1-6.5-0.4c-13.8-2.2-26.7-6.8-38.5-14.4c-2.3-1.5-4.4-3.3-6.6-4.9
		c-0.1-0.1-0.2-0.2-0.3-0.4c14.1,10.7,30,17.1,47.5,19.4c1.5,0.2,3,0,4.9,0c-7.1-7.9-13.2-16.1-18.2-25.1c-5-9-8.8-18.5-11-28.7
		c0.1-0.1,0.3-0.2,0.5-0.3c0.2-0.1,0.3-0.2,0.4-0.3c0.2,0.5,0.3,0.9,0.5,1.4c1.8,3.5,4.3,6.4,7.5,8.8c0.3,0.2,0.6,0.4,0.9,0.6
		c2.2,1.3,3.4,1,5.4-1.1c-0.5,1.6-2.3,2.5-4.1,2.1c-1.7-0.4-3.1-1.3-4.3-2.4c-1.1-1-2.2-2.1-3.3-3.3c0,0.2,0,0.3,0.1,0.3
		c7,12.3,14.2,24.4,22.6,35.8c2.1,2.8,4.4,5.3,6.7,7.9c0.9,0.9,2,1.7,3.1,2.3c2.7,1.5,5.7,0.6,7.2-2.1c1.2-2.1,1.6-4.5,1.7-6.9
		c0.4-6.3-0.5-12.4-1.9-18.5c-1.3-5.8-3-11.5-5.4-16.9c-0.1-0.2-0.1-0.3-0.2-0.5C249.2,157.1,249.2,157,249.3,157z"/>
	<path d="M179.2,152.6c3.9-1,7.7-1,11.4,1.1c0.9,0.5,1.6,1.3,1.5,2.5c-0.1,1.1-1,1.7-2,2.1c-2.3,1-6.7,0.8-9-0.5
		c0.6,0.1,1.2,0.2,1.8,0.2c1.9-0.1,3.8-0.2,5.7-0.3c0.4,0,0.9-0.3,1.3-0.5c1.5-0.7,1.6-1.7,0.3-2.6c-3-2-6.3-2.6-9.8-2
		c-0.4,0.1-0.7,0.2-1.1,0.2C179.2,152.7,179.2,152.6,179.2,152.6z"/>
	<path d="M243.7,149.8c-0.6,1.4-1,2.8-1.7,4.1c-0.5,1-1.5,1.1-2.7,0.7c2.3-0.3,3.1-2,3.9-3.7C243.4,150.6,243.6,150.2,243.7,149.8
		C243.8,149.9,243.7,149.8,243.7,149.8z"/>
	<path d="M185.9,182.5c-0.3-0.4-0.7-0.8-1-1.2c0,0,0,0-0.1,0.1C185.2,181.7,185.5,182.1,185.9,182.5
		C185.9,182.5,185.9,182.5,185.9,182.5z"/>
</g>
<g>
	<g>
		<line fill="none" stroke="#000000" stroke-width="3" stroke-miterlimit="10" x1="183.5" y1="83.5" x2="183.5" y2="48.7"/>
		<g>
			<polygon points="183.5,36 190.9,53.9 183.5,49.6 176.2,53.9 			"/>
		</g>
	</g>
</g>
<g>
	<g>
		<path fill="none" stroke="#000000" stroke-width="3" stroke-miterlimit="10" d="M94.1,201.1c-8.9-35.7,10.4-61.3,30.1-68.3"/>
		<g>
			<polygon points="134.6,131 121.2,139.9 123.5,133.2 118.8,127.9 			"/>
		</g>
	</g>
</g>
</svg>
