<?xml version="1.0" encoding="utf-8"?>
<!-- Generator: Adobe Illustrator 17.1.0, SVG Export Plug-In . SVG Version: 6.00 Build 0)  -->
<!DOCTYPE svg PUBLIC "-//W3C//DTD SVG 1.1//EN" "http://www.w3.org/Graphics/SVG/1.1/DTD/svg11.dtd">
<svg version="1.1" id="Layer_1" xmlns="http://www.w3.org/2000/svg" xmlns:xlink="http://www.w3.org/1999/xlink" x="0px" y="0px"
	 viewBox="0 0 288 216" enable-background="new 0 0 288 216" xml:space="preserve">
<g>
	<path d="M89.5,95.5c0,0.1,0,0.1,0.1,0.2c0.1-0.1,0.3-0.2,0.4-0.3c4-1.1,7.4-3.3,10.8-5.6c0.7-0.5,0.5-1.1,0.3-1.8
		c-1.7-6.1-3.9-12-6.2-17.8c-1.7-4.5-1.8-8.9,0-13.3c1.7-4.2,5.7-7.1,10.2-7.1c1.4,0,2,0.6,1.6,1.9c-0.2,0.6-0.6,1.2-1,1.7
		c-0.4,0.5-1,0.9-1.5,1.3c-1.4,1.1-2.5,2.4-2.7,4.3c-0.1,0.6-0.1,1.1-0.1,1.7c0,1.3-0.3,2.3-1.3,3.1c-0.8,0.6-0.9,1.4-0.5,2.2
		c0.6,1.3,1.1,2.7,1.7,4c3,5.6,5.6,11.4,8,17.3c1,2.4,0.6,4.3-1.2,6.1c-2.2,2.1-4.4,4.3-6.7,6.4c-3.1,2.8-6.3,5.5-10,7.6
		c-1.1,0.6-1.5,1.4-1.5,2.7c0.1,2.9,0.4,5.8-0.6,8.6c-0.1,0.2,0,0.3-0.1,0.5c-0.2,3.1-0.9,6.2-1.8,9.2c-0.8,2.6-1.7,5.2-2.6,7.8
		c0.3,0.2,0.8,0.5,1.2,0.9c1,0.9,1.1,1.4,0.1,2.4c-0.3,0.3-0.7,0.5-1.1,0.7c0.6,0.8,1,1.4,1.4,1.9c1,1,1.6,2.1,0.8,3.5
		c3.8,4.9,6,8.3,8.6,14c0.9,2,1.4,4.1,2.2,6.1c0.7,1.9-0.3,3.2-1.6,4.4c-0.8,0.8-1.8,0.9-2.8,0.4c-0.6-0.3-1.3-0.7-1.9-1
		c-1.1-0.6-2.1-1.1-3.3-1.8c0.9,2.9,1.8,5.6,2.7,8.3c0.2,0.6,0.4,1.3,0.4,2c0,0.4-0.1,1-0.4,1.2c-0.9,0.7-1.2,1.7-1.8,2.5
		c-1,1.4-2.3,2.5-3.8,3.3c-0.4,0.2-1,0.2-1.4,0c-1.4-0.4-2.2-1.8-1.7-3.3c0.3-1.1,0.1-1.9-0.6-2.6c-1.3-1.3-1.4-3-1.1-4.7
		c0.1-0.5,0.2-1,0.4-1.5c0.4-1.5,0.4-2.9-0.3-4.4c-0.6-1.4-1.1-2.8-1.6-4.2c-0.4-1.2-0.4-2.4,0.1-3.6c0.8-1.8,2.5-2.4,4.2-1.5
		c0.9,0.5,1.7,0.3,2.7,0.3c-0.3-0.4-0.5-0.6-0.7-0.9c-1.5-1.7-3-3.3-4.4-5c-0.5-0.6-1-1.2-1.5-1.8c-0.8-0.8-1.6-1.5-3-1.4
		c-1.5,0.1-3.1-0.2-4.8-0.3c-2.9,4.8-5.5,9.6-6.8,15.1c0.7,0.5,1.3,0.9,1.9,1.4c2.1,1.8,4.3,3.4,5.4,6.1c0.7,1.8,1.5,3.6,2,5.5
		c0.9,3.5,2.4,6.8,3.8,10.2c0.2,0.6,0.6,0.7,1.2,0.7c0.8,0,1.6,0,2.3,0c3.5,0,7,0.5,10.4,1.3c0.8,0.2,1.5,0.5,2.2,0.8
		c-5-0.5-9.9-1.4-15.1-0.9c0.4,0.6,0.8,1.2,1.2,1.7c0.6,0.8,1.2,1.6,1.8,2.4c0.8,1,0.6,2.1,0,3.1c-0.6,1-1.6,1.5-2.8,1.5
		c-1,0-1.9-0.2-2.7-0.8c-1.2-1-2.6-1.5-4.1-1.9c-1.3-0.4-2.5-1-3.4-2c-0.5-0.5-1-0.9-1.4-1.4c-0.5-0.6-1.1-0.8-1.9-0.7
		c-2.6,0.3-5.2,0.9-7.6,1.9c-0.4,0.1-0.6,0.5-1.3,0.9c1.3,0.2,2.1,0.4,3,0.6c1,0.2,2.1,0.4,3.1,0.8c1.4,0.6,1.4,1.6,0.1,2.5
		c-0.4,0.2-0.8,0.4-1.2,0.6c-0.3,0.2-0.6,0.4-1.1,0.8c0.7,0.4,1.3,0.8,1.9,1c1,0.4,2.1,0.7,3.2,1c4.9,1.4,9.9,1.7,14.9,1.9
		c5.2,0.2,10.5,0.3,15.7-0.6c2.5-0.4,4.9-1,7.2-2c0.6-0.3,1.1-0.6,1.1-1.3c0-0.7-0.6-0.9-1.1-1.1c-1.5-0.6-3.1-1.2-4.6-1.7
		c1.5-0.3,4.5,0.3,5.8,1.3c1.4,1.1,1.4,2.3-0.2,3.3c-0.9,0.6-1.9,0.9-2.9,1.3c-2.6,0.9-5.3,1.3-8,1.6c-1.6,0.2-3.2,0.3-4.8,0.3
		c-2.9,0-5.8-0.2-8.7-0.2c-3.7,0-7.3-0.5-11-1.1c-2.6-0.4-5.1-1-7.6-2.1c-0.8-0.3-1.6-0.7-1.6-1.7c0-1,0.9-1.2,1.6-1.6
		c0.5-0.3,1.2-0.3,1.5-1c-0.5-0.7-1.2-0.8-1.9-0.9c-0.9-0.2-1.8-0.2-2.7-0.3c-0.5-0.1-1-0.1-1.4-0.4c-0.9-0.4-1.1-1.2-0.4-1.9
		c0.5-0.5,1.2-1,2-1.2c2.4-0.7,4.8-1.3,7.1-1.9c0,0-0.1-0.1-0.2-0.1c-1.8-0.8-1.9-1.1-0.9-2.7c0.7-1.1,1.5-2.2,2.2-3.3
		c0.6-0.9,1.1-1.7,1.6-2.7c-0.1-0.2-0.3-0.5-0.5-0.7c-1.7-2.5-3.6-5-5.2-7.6c-1-1.6-1.9-3.1-3.6-4.1c-1.5-0.9-1.8-2.3-1.4-3.9
		c0.2-0.9,0.4-1.8,0.6-2.8c1-5.3,2.1-10.5,4.4-15.4c0.2-0.5,0.3-0.9,0-1.4c-0.4-0.8-0.2-1.6,0-2.4c0.2-0.7,0.4-1.5,0.2-2.1
		c-0.3-1.1-0.1-2.1,0.4-3.1c0.6-1.1,1.1-2.2,1.8-3.2c1-1.5,2.1-3,4.1-3.1c0.2-0.8,0.4-1.5,0.4-2.2c0.1-0.9,0.5-1.7,0.1-2.6l0.1-0.1
		c0.1-0.3,0.2-0.6,0.3-0.9c0.1-1.5,0.2-3,0.4-4.5c0.5-3.6,0.2-7.1-0.2-10.7c-0.1-0.6-0.5-1.2-0.8-1.8c-0.7-1-1.5-1.8-2.1-2.8
		c-0.6-1.1-1.4-1.6-2.7-1.4c-0.1,0-0.2-0.1-0.3-0.1c-0.1-0.6-0.2-1.2-0.4-2.1c-0.2,2-0.4,2.5-1.1,3.7c-0.1-0.4-0.3-0.7-0.4-1
		c-0.5-3.3-1.8-6.4-2.9-9.6c-0.3-0.9-0.9-1.7-1.7-2.2c-2.4-1.7-4.2-4-5.7-6.5c-1.5-2.6-2.1-5.2-0.9-8.1c1.2-2.8,2.2-5.6,3.2-8.5
		c0.9-2.7,1.7-5.4,2.6-8.1c0.3-0.9,0.2-1.7-0.4-2.5c-0.6-0.8-1-1.7-1.4-2.6c-0.7-1.7-1.7-3.2-3-4.4c-1.8-1.5-2.2-3.4-1.7-5.5
		c0.3-1.1,1-1.5,2.1-1.1c1,0.4,1.9,0.9,2.9,1.3c1.5,0.6,2.6,1.6,3.4,2.9c1.6,2.4,3.1,4.9,4,7.7c0.4,1.5,0.6,3,0.2,4.5
		c-1,3.9-1.9,7.8-2.9,11.7c-0.2,0.9-0.4,1.9-0.7,3.2c0.6-0.7,0.9-1.1,1.2-1.5c2-2.5,4.4-4.5,7.3-5.7c3.2-1.2,6.3-2.4,9.7-3
		c3.3-0.5,6,0.3,8.1,2.8c0.3,0.4,0.5,0.9,0.7,1.5c-1.1,0.4-2.1,0.7-3.1,1c0.8,1,2.4,1.2,2.6,2.9c-0.8,0-1.5-0.1-2.1-0.1
		c0.5,1,0.9,1.9,1.3,2.9c0.5,1.3,1.5,1.9,2.8,2.2c0.3,0.1,0.6,0,0.8,0.1c1.4,0.3,1.9,1.6,1.3,2.8c-0.1,0.2-0.3,0.5-0.4,0.6
		c0.2,0.8,0.7,1.6,0.5,2.3c-0.1,0.6-0.9,1.1-1.5,1.8c0.2,0.8,0.3,1.7,1.4,1.9c0.6,0.1,0.7,0.6,0.5,1.2c-0.1,0.3-0.4,0.5-0.6,0.9
		c0.7,1.1,0.4,2.1-0.4,3C89.8,95.4,89.6,95.4,89.5,95.5z M55.7,82.9c0,0.5,0.2,0.7,0.7,0.7c0.3,0.2,0.5,0.3,0.9,0.5
		c-0.2,0.1-0.4,0.2-0.6,0.4c0.5,0.1,0.9,0.1,1.3,0.1c0,0.2,0,0.3,0,0.3c-0.8,0.8-0.5,1.7-0.2,2.5c1,2.7,2,5.3,3,8
		c1,2.6,2,5.2,2.3,8.1c0.6-1.9,0.6-3.8,0.3-5.7c1.1,1.7,1.4,3.8,2,5.8c0.9-0.3,1.7-0.6,2.6-0.9c0.1-3.1,0.1-6.1-0.2-9.1l0,0
		c0.3,1.1,0.8,2.2,1,3.3c0.3,1.4,0.3,2.9,0.4,4.3c0,0.2,0.1,0.4,0.1,0.7c1.6-0.2,2.9-1,4.2-1.5c2.3-1,4.7-1.7,7.3-1.5
		c1.1,0.1,2.2,0.4,3.4,0.6c0.4-0.5,0.9-1,1.5-1.7c-0.9-0.9-1.9-1.7-2.8-2.6c0.1-0.1,0.1-0.2,0.2-0.3c0.8,0.5,1.6,1,2.4,1.5
		c0.8,0.5,0.8,0.5,1.9,0c-2.2-2.3-3.9-5-5-8l0,0c0.7,0.5,1.4,1.1,2.2,1.6c0.3,0.2,0.6,0.3,0.9,0.4c0,0.1,0.1,0.1,0.1,0.2
		c0-0.1-0.1-0.1-0.1-0.2c-0.5-0.5-0.9-0.9-1.4-1.4c-2.4-2.1-4.2-4.5-4.7-7.7c-0.1-0.8-0.4-1.6-0.6-2.4c-0.7-2.6-2.4-4.2-5.1-4.7
		c1.3-0.4,1.3-0.4,3.6,0.8c2.2-0.5,4.3-0.9,6.4-1.4c-2-1.4-4.3-2.3-6.9-2.7c0.3-0.1,0.7-0.3,1-0.3c1.2,0.2,2.4,0.5,3.5,0.9
		c1,0.4,1.7,0.3,2.6-0.5c-1.5-0.4-2.8-0.7-4.2-1c1.8-0.4,3.4,0,5,0.5c-1.2-1.8-3.3-2.9-5.5-2.5c-4.7,0.7-9.1,2.1-13.1,4.8
		c-3.1,2-5.3,4.8-6.7,8.1c-0.3,0.7-0.6,1.4-1,2.2c-0.4-0.2-0.6-0.4-0.8-0.5c0.1,0.7-0.2,0.9-0.9,0.8C56.2,83.4,55.9,83.2,55.7,82.9
		c-0.1-0.1-0.3-0.2-0.4-0.3c0-0.1-0.1-0.3-0.1-0.4c0,0.1,0.1,0.3,0.1,0.4C55.5,82.7,55.6,82.8,55.7,82.9z M104.8,50.7
		C105,50.6,104.8,50.7,104.8,50.7c-0.3,0.2-0.5,0.3-0.8,0.4c-0.3,0.2-0.7,0.4-1,0.7c-0.5,0.3-1,0.5-1.6,0.8
		c-0.1-0.1-0.1-0.1-0.2-0.2c0.1-0.2,0.3-0.4,0.4-0.6c0,0,0.1-0.1,0.1-0.1c0,0-0.1,0.1-0.1,0.1c-0.8,0.3-1.6,0.7-2.4,1l0,0
		c0-0.1,0-0.2,0-0.3c0.1,0,0.1-0.1,0.2-0.1c0,0-0.1,0-0.1,0c0,0,0,0.1-0.1,0.1c-1.1,0.3-1.8,1.1-2.3,2c-1.8,2.9-2.7,6.1-2.4,9.5
		c0.3,2.3,1.1,4.5,2,6.7c2.1,5.2,3.8,10.6,5.2,16c0.1,0.5,0.2,1.1,0.3,1.7c0.4-0.1,0.8-0.2,1.2-0.4l0,0c-0.4,0.5-0.8,1-1.3,1.5
		c-3.3,2.7-6.8,5-10.8,6.5c-1.5,0.6-2.9,1.3-4.3,2.1c-0.9,0.5-1.6,1.2-2.3,1.9c-0.7,0.7-1.3,1.5-1.9,2.3c0-0.3-0.1-0.6-0.1-0.9
		c0.4-0.1,0.2-0.2,0-0.3c0.1-0.2,0.3-0.5,0.5-0.9c-2.1-0.2-4.2-0.4-6.2,0.4c-3,1.2-5.9,2.5-9,3.8c0.6,0.8,1.1,1.6,1.9,2.8
		c-0.1-0.9-0.1-1.4-0.2-1.9c0.1,0,0.2,0,0.3-0.1c0.3,1,0.7,2.1,1,3.1c1,4.6,0.9,9.3,0.5,14c-0.1,1.1-0.1,2.1-0.3,3.2
		c-0.2,2.1-0.5,4.2-0.8,6.3c1.1,0,2.1,0,3.3,0c1.3-3.1,2-6.3,2.8-9.6c0.1,3.4-1.2,6.5-1.9,9.9c3.3,0.3,6.1,1.6,9,3.2
		c2.4-4.7,4-9.7,5.1-15.1c-0.4,0.6-0.7,0.9-0.9,1.2c-0.1,0-0.1,0-0.2-0.1c0.4-2.2,1.1-4.3,1.3-6.5c0.2-2.2,0-4.3,0-6.4
		c4.2-3.7,8.3-7.1,12.4-10.6c2.1-1.9,4.2-3.8,6.3-5.7c1.5-1.3,1.7-2.9,0.9-4.7c-1.4-3.2-2.7-6.4-4.2-9.5c-1.5-3.2-3.2-6.4-4.8-9.6
		c-0.4-0.7-0.6-1.6-0.9-2.3c-0.5-1.2-0.3-2.3,0.6-3.3c1-1.1,1.4-2.4,1.6-3.8c0.4-2.4,1.2-4.5,3.5-5.8c0.7-0.4,1.2-1,1.9-1.5
		c-0.1-0.1-0.1-0.2-0.2-0.3c-0.3,0.1-0.6,0.1-0.8,0.3c-1.7,1-3.3,2.1-4.4,3.8c-0.1,0.2-0.4,0.3-0.6,0.5l0,0c0.3-1.3,1.3-2.3,2.2-3.2
		c0.3-0.3,0.5-0.6,0.8-0.8c0.3-0.2,0.7-0.5,1-0.7C104.2,51,104.5,50.8,104.8,50.7C104.8,50.7,105,50.7,104.8,50.7z M84.4,91.5
		C84.4,91.6,84.4,91.6,84.4,91.5c0.1,0.1,0.1,0.1,0.2,0.1c0.2,1.2,1.1,1.9,1.8,2.8c0.2,0.2,0.6,0.2,0.9,0.2c1,0.1,1.8-0.4,2.6-0.9
		c0.1-1-1.3-2,0.3-2.7c-1.3-0.5-2.3-0.8-3.4-1.2c-0.1-1.3-0.3-2.5-0.4-3.7c1.4,1.4,1.5,1.4,3.5,0.3c-0.1-0.5-0.3-1.1-0.5-1.8
		c-0.5,0.3-0.9,0.5-1.5,0.8c-0.3-0.4-0.5-0.8-0.7-1.2c0.1-0.1,0.1-0.1,0.2-0.2c0.2,0.1,0.4,0.2,0.5,0.3c0.4-0.3,0.9-0.6,1.3-1
		c0.3-0.2,0.6-0.7,0.6-0.9c-0.1-0.3-0.5-0.7-0.9-0.8c-0.4-0.2-1-0.3-1.5-0.3c-1.4-0.1-2.2-1-2.6-2.2c-0.3-0.8-0.6-1.6-0.9-2.3
		c-0.2-0.4-0.5-0.7-0.8-1.3c-1.5,0.3-3.1,0.6-4.9,0.9c0.3,0.4,0.5,0.7,0.7,1c0.7-0.4,1.3-0.8,2-1.3c0.1,0.3,0.2,0.4,0.1,0.5
		c-1.4,1.3-1.6,2.9-1.1,4.7c0.8,3.6,2.8,6.3,5.5,8.5c0.4,0.3,0.8,0.7,1.2,1c-0.6,1.1-1.3,1.1-2.2,0.7C84.5,91.6,84.5,91.6,84.4,91.5
		z M55.6,48.6C55.6,48.6,55.6,48.6,55.6,48.6c0.1,0.1,0.1,0.1,0.2,0.2c0.2,0.4,0.5,0.9,0.7,1.3l-0.1,0.1c-0.6-0.6-1.2-1.2-1.9-1.8
		c-0.6-0.5-1.4-0.9-2.1-1.3c0,0-0.1-0.1-0.1-0.1c0,0,0.1,0.1,0.1,0.1c1.8,1.6,3.3,3.3,4.3,5.5c-1.6-1.7-2.8-3.8-4.9-5
		c-0.5,0.6-0.3,0.9,0.1,1.1c1.7,1.1,2.9,2.5,3.8,4.4c-0.7-0.4-0.7-0.4-1.4-1.2c-0.4-0.5-0.9-1-1.4-1.5c-0.5-0.5-1-0.9-1.7-1.4
		c-0.1,1,0.3,1.5,0.8,2c0.5,0.5,0.9,1,1.4,1.4c1.1,1,1.8,2.3,2.3,3.6c0.5,1.3,1.1,2.4,2.1,3.4c0.5,0.5,0.6,1.1,0.4,1.8
		c-0.8,3.4-1.8,6.8-3.1,10c-1,2.5-1.9,5.1-2.9,7.7c-0.6,1.6-0.6,3.2,0,4.7c1.1,3,3,5.5,5.4,7.8c-0.4-1.8-0.7-3.4-1.1-5
		c-0.1,0.6-0.2,1.2-0.3,2c-1-1.2-0.1-2.3,0.1-3.4c-0.6,0.2-1.2,0.3-2.2,0.6c0.5-0.8,0.8-1.2,1.1-1.7c-1.2-1.1-0.9-2.6-0.8-4.1
		c0.4,0.6,0.8,1.2,1.4,2c0.1-1.1,0-2,0.2-2.9c0.2-0.8,0.7-1.6,1.2-2.4c-0.3,1.8,0.1,3.4,0.5,5c0.1,0,0.2,0,0.4,0
		c0.1-1,0.1-2.1,0.3-3.1c0.3-2,0.7-4.1,1.2-6.1c0.7-3,1.5-5.9,2.3-8.9c0.2-0.8,0.4-1.6,0.5-2.4c0.2-1.4,0.1-2.8-0.6-4.1
		c-1.2-2.2-2.3-4.3-3.6-6.4c-0.6-0.9-1.3-1.9-2.5-2C55.7,48.7,55.6,48.6,55.6,48.6z M69.6,147.2c2.2,1.7,4.9,1.6,7.5,1.8
		c0.6-1.7,1.1-3.3,1.7-4.8c0.7-1.7,1.7-3.2,3.2-4.5c0.2-0.2,0.4-0.2,0.9-0.5c-3.3,4.4-4.8,8.1-4.2,10.4c0.2-0.5,0.3-0.8,0.4-1.1
		c0.4-1.6,0.9-3.1,2.2-4.2c1.6-1.5,2.9-1.6,4.7-0.2c0.1,0.1,0.2,0.1,0.3,0.1c0.5-0.7,0-1.2-0.4-1.7c-1.3-1.4-1.9-3.1-2.1-5
		c0.3,0.4,0.5,0.8,0.9,1.3c0.4-0.3,0.7-0.6,1.1-1c-0.5-0.3-0.8-0.6-1.2-0.8c-3.5-2.1-7.2-3.7-11.4-4.1c-1.1-0.1-2.2-0.1-3.3,0
		c-1.4,0.1-2.5,0.6-3.2,1.8c-0.7,1.1-1.5,2.1-2.1,3.2c-0.7,1.3-0.7,2.8-0.3,4.2c0.1,0.5,0.3,1,0.6,1.9c-0.4-0.3-0.6-0.4-0.7-0.5
		c-0.1-0.1-0.2-0.3-0.3-0.5c-0.7,0.9-0.6,1.6,0,2.2c1.1,1.3,2.5,2.2,4.2,2.4c0,0,0,0.1,0.1,0.1c0,0-0.1-0.1-0.1-0.1
		c-0.7-1.1-1.4-2.2-2.1-3.2c0.1-0.1,0.2-0.1,0.2-0.2C67.4,145.2,68.4,146.3,69.6,147.2z M89.4,166.3c1.5,0.7,2.8,1.6,4.2,2.4
		c0.6,0.4,1.2,1.1,2.1,0.5c0.9-0.7,2-1.5,1.7-2.8c-0.4-1.7-0.9-3.4-1.5-5.1c-1.5-3.9-3.6-7.6-5.9-11.1c-1.2-1.7-2.4-3.3-3.7-4.9
		c-0.8-1-2-1.2-3.2-0.8c-1.8,0.7-3.3,3.2-3,5.2c0.1,0.6,0.6,1.2,1,1.7c1.1,1.2,2.2,2.4,3.3,3.6c1.1,1.2,2.2,2.5,3.4,3.8
		c1.5-0.4,3-0.4,4.4,0.6c1.3,0.9,2.3,2,2.7,3.6c-0.2-0.3-0.4-0.6-0.7-0.8c-0.9-0.7-1.7-1.5-2.6-2.1c-1.1-0.7-2.4-0.8-3.7-0.4
		c-1,0.3-1.9,0.4-3,0.7c0.1,0.3,0.2,0.7,0.4,1.1c-0.1,0-0.2,0-0.3,0c-0.3-0.4-0.6-0.9-1-1.3c-0.7-0.8-1.7-1-2.6-0.6
		c-0.9,0.4-1.5,1.1-1.4,2.1c0.2,1.3,0.5,2.6,0.9,3.9c0.1,0.3,0.2,0.5,0.3,0.8c1.1,2.1,1.5,4.3,0.6,6.6c-0.7,1.8-0.4,3.5,0.9,5
		c0.8,0.9,0.8,1.9,0.6,3c0,0.2-0.1,0.4-0.2,0.6c-0.3,1.6,0.3,2.2,2.1,2c0.4-1.2-0.3-2.6,0.6-4c0.1,1,0.2,1.8,0.3,2.6
		c0,0.2,0.4,0.3,0.9,0.6c-0.4-1.5-0.4-2.7-0.5-3.9c0.1,0,0.3,0,0.4-0.1c0.2,0.8,0.4,1.6,0.7,2.5c0.2,0,0.4-0.1,0.8-0.1
		c-0.9-1.4-1-2.7,0.2-4.1c0.1,1.1-1,2,0.1,2.9c0.5,0,0.8-0.3,0.5-0.7c-0.4-0.8-0.3-1.5,0-2.4c0.1,0.2,0.2,0.3,0.2,0.4
		c0,0.2,0,0.3,0,0.5c0,0.4,0.1,0.8,0.6,0.8c0.5,0,1-0.5,0.9-1c-0.1-0.7-0.4-1.4-0.6-2.1c-0.4-1.1-1-2.1-1.2-3.3
		c-0.5-2.5-1.3-4.8-2.4-7.1c-0.1-0.1-0.1-0.3-0.1-0.5c0,0,0.1-0.1,0.1-0.1C87.3,165.4,88.4,165.8,89.4,166.3z M67.1,185.7
		c0.5,0.4,1.1,0.8,1.7,1.2c-0.1,0.1-0.2,0.2-0.2,0.3c-0.8,0-1.3-1.5-2.5-0.5c0.6,0.4,1.1,0.8,1.6,1.2c0,0-0.1,0.1-0.1,0.1
		c-0.7-0.2-1.3-0.3-2-0.5c0,0.1-0.1,0.2-0.1,0.3c0.2,0.2,0.4,0.5,0.7,0.6c0.3,0.2,0.5,0.4,1,0.7c-1,0.2-1.4-0.6-2.2-0.6
		c0,0.2-0.1,0.6,0,0.7c1.5,1.4,2.9,2.9,4.5,4.2c0.7,0.5,1.5,1,2.4,1.1c1.9,0.3,3.5,1.1,5.1,2.1c0.5,0.3,1,0.5,1.5,0.6
		c0.9,0.2,1.8,0.1,2.4-0.8c0.5-0.8,0.5-1.8,0-2.7c-0.1-0.1-0.2-0.3-0.3-0.4c-2.2-2.3-3.4-5.2-4.7-8.1c-1.3-2.8-2.2-5.7-3.1-8.6
		c-0.6-1.8-1.3-3.7-2.3-5.4c-1-1.6-2.5-2.8-3.8-4.1c-0.8-0.8-1.8-1.5-2.8-2.3c0.3-0.2,0.5-0.3,0.6-0.4c0.1-0.2,0.2-0.5,0.3-0.8
		c0.7-5,2.9-9.5,5.4-14c-1.2-0.3-2.3-0.4-3.4-0.8c-1-0.4-2-1-3-1.5c-1.3,3-2.5,6-3.1,9.2c-0.6,2.9-1.1,5.9-1.8,8.8
		c-0.3,1.3,0.1,2.3,1,2.9c1.5,1.1,2.3,2.6,3.3,4.1c2,3,4.1,5.9,6.2,8.9c1.2,1.7,2.2,3.4,3.2,5.3c-0.8-0.3-1.2-1.1-1.7-1.8
		c-0.6-0.7-1.1-1.4-1.8-2.4c-0.3,0.4-0.5,0.6-0.8,0.9c0.5,0.6,0.8,1,1.1,1.5l-0.1,0.1C67.8,184.7,67.8,184.7,67.1,185.7z M88.6,89.9
		c-0.2-0.7-0.4-1.2-0.6-2C87,88.9,87.1,89.1,88.6,89.9z M56.5,80.7C56.5,80.7,56.6,80.7,56.5,80.7c0.1-0.4,0.1-0.7,0.1-1.1
		c0,0-0.1,0-0.1,0C56.5,80,56.5,80.4,56.5,80.7z"/>
	<path d="M88.3,96C88.5,95.9,88.4,96,88.3,96c-0.1,0.1-0.2,0.1-0.2,0.1C88.2,96.1,88.2,96.1,88.3,96C88.4,96,88.6,96,88.3,96z"/>
	<path d="M56.9,82c0,0,0-0.1,0-0.1c0,0,0,0-0.1-0.1c0,0,0,0.1-0.1,0.1C56.9,82,56.9,82,56.9,82z"/>
	<path d="M99.7,193.4c0.7-0.7,1.3-1.5,2-2.2c0.7-0.7,1.5-1.3,2.4-2c-1.6-0.5-2.9,0.1-4,0.8c-2.3,1.4-3.9,3.4-4.7,6
		c0,0.1,0,0.2,0,0.3c0,0,0.1,0.1,0.2,0.2c0.7-1,1.3-2,2.1-2.9c0.9-1.2,1.9-2.5,3.5-2.9c0.1-0.1,0.2-0.2,0.3-0.3c0,0,0.1-0.1,0.1-0.1
		c0,0-0.1,0-0.1,0.1c-0.1,0.1-0.2,0.2-0.3,0.3c-1.5,1.8-3.1,3.6-4.6,5.4c0.1,0.1,0.1,0.1,0.2,0.2c0.6-0.3,1.2-0.6,1.8-1
		c0,0,0-0.1,0.1-0.1c0,0,0.1,0,0.1,0c-0.1,0.1-0.1,0.1-0.2,0.2c-0.2,0.3-0.4,0.5-0.7,1c1.6-0.6,2.9-1.2,4.3-1.6
		c1.4-0.4,2.9-0.5,4.5-0.8c-1.4-0.7-2.8-0.7-4.1-0.8c0.6-0.1,1.3-0.3,1.9-0.4c0.7-0.1,1.3-0.1,2-0.2c-1.7-0.2-3.3-0.5-4.9,0.3
		C100.7,193.1,100.2,193.2,99.7,193.4c-0.1,0-0.1,0-0.1,0.1C99.6,193.4,99.6,193.4,99.7,193.4z"/>
	<path d="M91.6,194c0.7,0.7,1.4,1.4,2.1,2c0-2.1-2.7-4.1-5.2-3.8c0.9,0.8,1.8,1.5,2.6,2.2c-1.8-0.7-3.5-1.6-5.6-1.2
		c1.1,0.4,2.2,0.8,3.2,1.2c1.1,0.5,2.2,1.1,3.6,1.8C92,195.3,91.8,194.6,91.6,194C91.6,194,91.5,194,91.6,194
		c-0.1-0.1-0.1-0.1-0.1-0.1C91.5,193.9,91.6,194,91.6,194z"/>
	<path d="M98.3,190c-1.1-0.1-1.8,0.5-2.3,1.3c-0.6,0.9-1,1.8-1.5,2.7c-0.9-1.1-1.8-2.4-4-2.4c2.2,1,3.5,2.4,3.9,4.5
		c0.2-0.1,0.3-0.2,0.3-0.3C95.5,193.7,96.7,191.7,98.3,190L98.3,190z"/>
	<path d="M90.3,120.5c-0.1-0.1-0.2-0.2-0.3-0.2C90,120.4,90.2,120.5,90.3,120.5L90.3,120.5z"/>
	<path d="M98.3,190c0.1,0,0.1-0.1,0.2-0.1C98.5,189.9,98.4,189.9,98.3,190L98.3,190z"/>
	<path d="M108.7,141.5c0-0.2,0-0.4,0-0.5c-0.1,0-0.1,0-0.2,0c0,0.2-0.1,0.4-0.1,0.6C108.5,141.5,108.6,141.5,108.7,141.5z"/>
	<path d="M75.2,113.8c2-3.8,1.9-7.6-0.2-11.4c0-0.1-0.2-0.1-0.5-0.2c0.2,0.4,0.3,0.7,0.4,1c1,2.4,1.1,4.9,0.7,7.5
		C75.4,111.8,75.3,112.8,75.2,113.8L75.2,113.8z"/>
	<path d="M80.7,115.9c-0.8-3.2-0.7-6.3-0.3-9.5C79.2,109.6,79,112.8,80.7,115.9z"/>
	<path d="M100.9,52.6c-0.2,0.2-0.4,0.5-0.6,0.7c0,0.1,0.1,0.1,0.1,0.2c0.2-0.2,0.5-0.4,0.7-0.6C101,52.8,101,52.7,100.9,52.6z"/>
	<path d="M99.3,54.4c-0.1,0.1-0.2,0.3-0.3,0.4c0.1,0,0.1,0.1,0.2,0.1C99.3,54.7,99.3,54.6,99.3,54.4C99.3,54.4,99.3,54.4,99.3,54.4z
		"/>
	<path d="M99.7,56.4c0.1-0.2,0.2-0.4,0.3-0.7l0,0C99.9,56,99.8,56.2,99.7,56.4L99.7,56.4z"/>
	<path d="M99.7,56.5c-0.1,0.1-0.2,0.2-0.3,0.3C99.5,56.7,99.6,56.6,99.7,56.5L99.7,56.5z"/>
	<path d="M82.2,101.4c-0.1,0.1-0.2,0.2-0.3,0.3C82,101.6,82.1,101.5,82.2,101.4L82.2,101.4z"/>
	<path d="M82.6,101.4c0-0.1,0-0.2,0-0.4c-0.1,0.1-0.2,0.2-0.3,0.4l0,0C82.3,101.4,82.4,101.4,82.6,101.4z"/>
	<path d="M103.7,87.7c-0.1,0.1-0.2,0.2-0.3,0.3l0,0C103.5,87.9,103.6,87.8,103.7,87.7L103.7,87.7z"/>
	<path d="M103.7,87.6c0,0,0.1-0.1,0.1-0.1C103.8,87.5,103.8,87.5,103.7,87.6C103.7,87.6,103.7,87.6,103.7,87.6L103.7,87.6z"/>
	<path d="M99.6,54.1c-0.1,0.1-0.2,0.3-0.3,0.4c0,0,0,0,0,0C99.5,54.3,99.6,54.2,99.6,54.1L99.6,54.1z"/>
	<path d="M100,53.8c-0.1,0.1-0.2,0.2-0.4,0.3l0.1,0.1C99.8,54,99.9,53.9,100,53.8L100,53.8z"/>
	<path d="M100,53.8c0.1-0.1,0.3-0.2,0.4-0.3c0-0.1-0.1-0.1-0.1-0.2C100.2,53.5,100.1,53.6,100,53.8L100,53.8z"/>
	<path d="M75.2,113.8c-0.1,0-0.1,0.1-0.2,0.1c0,0,0.1,0,0.1,0C75.1,113.9,75.2,113.9,75.2,113.8L75.2,113.8z"/>
	<path d="M99,53.1c-0.1,0.1-0.2,0.1-0.3,0.2C98.8,53.2,98.9,53.2,99,53.1L99,53.1z"/>
	<path d="M99.3,52.8c-0.1,0.1-0.2,0.2-0.3,0.3l0,0C99.1,53,99.2,52.9,99.3,52.8L99.3,52.8z"/>
	<path d="M101.3,52.3c-0.1,0.1-0.2,0.2-0.4,0.3c0.1,0.1,0.2,0.2,0.2,0.2c0.1-0.1,0.2-0.2,0.3-0.3C101.4,52.5,101.3,52.4,101.3,52.3z
		"/>
	<path d="M67.4,93.7c0-0.2-0.1-0.3-0.1-0.5C67.4,93.4,67.4,93.5,67.4,93.7L67.4,93.7z"/>
	<path d="M82.2,88.7c0,0-0.1-0.1-0.1-0.1C82.2,88.6,82.2,88.6,82.2,88.7L82.2,88.7z"/>
	<path d="M76.5,193.4c-1.5-0.7-2.8-1.3-2.1-3.5c-0.9,1.1-1.1,2.1-0.6,2.8C74.2,193.4,75.1,193.7,76.5,193.4z"/>
	<path d="M69.1,185c0.1,0.1,0.1,0.1,0.2,0.2C69.2,185.1,69.2,185,69.1,185L69.1,185z"/>
	<path d="M86.3,163.8c0-0.1-0.1-0.3-0.1-0.4c0,0-0.1,0-0.1,0C86.1,163.5,86.2,163.7,86.3,163.8L86.3,163.8z"/>
	<path d="M86.2,163.8c0.1,0.2,0.2,0.5,0.3,0.7l0.1-0.1C86.5,164.2,86.4,164,86.2,163.8L86.2,163.8z"/>
	<path d="M66.2,144.3c-0.1-0.1-0.1-0.3-0.2-0.4c-0.1-0.1-0.2-0.3-0.4-0.5c-0.3,0.6,0.1,0.9,0.4,1.1
		C66.1,144.4,66.2,144.3,66.2,144.3z"/>
	<path d="M56.7,50.4c0.1,0.1,0.1,0.1,0.2,0.2c0,0,0-0.1,0-0.1C56.8,50.4,56.8,50.4,56.7,50.4L56.7,50.4z"/>
	<path d="M56.7,50.4c-0.1-0.1-0.2-0.3-0.3-0.4l-0.1,0.1C56.5,50.2,56.6,50.3,56.7,50.4C56.7,50.4,56.7,50.4,56.7,50.4z"/>
	<path d="M81,82.8c-0.8-1.2-0.6-2.2,0.9-3.1c0.9,0.9,2.3,1.4,2.7,2.9C83.2,83.6,81.7,83.7,81,82.8z M81.9,82.7
		c0.6,0.4,1.3,0.1,2.1-0.4c-1.2-0.2-2.1-0.6-2.3-1.8C81.6,81.3,81.2,82.2,81.9,82.7z"/>
</g>
<g>
	<path d="M175.2,30.9c0.3,0.3,0.6,0.7,1.1,1c0.4,0.2,1,0.5,1.5,0.4c1.8-0.4,3.2,0.2,4.5,1.5c0.6,0.6,1.3,1,2,1.5
		c0.4,0.3,1.1,0.6,1.2,1.1c0.6,1.5,1,3,1.4,4.5c0.1,0.3,0,0.7,0.2,0.9c1,1.1,0.9,2.3,0.7,3.6c-0.1,0.5,0,1,0.1,1.5
		c0.1,0.6,0.3,1.2,0.4,1.7c0.2,1.4,0.6,2.9,0.5,4.2c-0.1,1.3-0.8,2.5-1.4,3.7c-0.4,0.9-1,1.7-1.4,2.6c-0.7,1.8-1.5,3.3-3.8,3.3
		c-0.2,0-0.3,0.2-0.5,0.2c0.6,0.6-0.2,1.7,0.9,2.3c1.5,0.8,2,1.8,1.6,2.7c-0.4,1.1-2.1,1.7-3.4,1.2c-1-0.4-1.2-0.1-1.6,0.8
		c-1.8,4.6-2.4,9.5-3.9,14.2c-0.5,1.7-1.2,3.4-1.7,5.1c-0.4,1.3-0.6,2.6-0.9,3.9c-0.3,1.3-0.5,2.7-1,3.9c-0.2,0.5-0.8,1-1.3,1.1
		c-0.3,0.1-1-0.5-1.2-1c-0.6-1.5-1.1-3.2-1.7-4.7c-0.7-1.8-1.4-3.6-2.1-5.4c-0.8-2.2-1.5-4.4-2.2-6.6c-0.6-1.7-1.2-3.4-1.8-5.1
		c0-0.1-0.1-0.2-0.1-0.3c-0.5-1.8-0.8-3.6-1.4-5.3c-0.5-1.7-1.2-3.3-1.6-4.9c-0.3-1.2-0.9-1.3-1.9-1.3c-1.6-0.1-2.6-1.4-3.6-2.6
		c-0.5-0.7-1.2-1.1-1.7-1.8c-0.4-0.5-0.7-1.2-1-1.8c-0.1-0.4-0.1-1,0-1.4c0.5-1.9,0.3-3.6-0.6-5.3c-0.7-1.4,0-2.9,0.7-4.2
		c0.6-1.2,1.1-2.5,1.8-3.6c0.4-0.6,0.8-1.4,1.4-1.7c0.8-0.4,1.2-0.9,1.4-1.8c0.3-1.2,1-2,2-2.5c0.5-0.3,1.1-0.8,1.4-1.3
		c1.5-3,4.1-3.6,7.1-3.7c0.4,0,0.9-0.2,1.3-0.4c0.3-0.1,0.6-0.3,1-0.4c1.2-0.3,2.5-0.5,3.7-0.7C172.8,29.6,173.5,29.8,175.2,30.9z
		 M162.9,71.4c0.1-0.1,0.2-0.1,0.3-0.2C163.1,71.3,163,71.4,162.9,71.4c-0.2,0.1-0.4,0.1-0.6,0.2c0,0.1,0.1,0.1,0.1,0.2
		C162.6,71.7,162.8,71.5,162.9,71.4z M170,90c0.2-0.1,0.4-0.3,0.6-0.4c0,0,0,0-0.1-0.1C170.3,89.7,170.1,89.8,170,90
		c-0.3,0.1-0.6,0.1-0.8,0.3c-0.1,0.2-0.1,0.7,0,0.8c0.5,0.2,1,0.4,1.2,0.4C170.3,91.1,170.1,90.6,170,90z M177.7,54.1
		c-0.8-0.2-1.5-0.2-2,0.5c-0.1,0.1-0.1,0.4-0.1,0.5c0.2,0,0.4,0,0.5-0.1C176.7,54.8,177.2,54.5,177.7,54.1c0.3,0,0.6,0,0.8,0.1
		c1.9,0.5,2.5-0.1,2.4-2.2c0-0.2,0.4-0.5,0.5-0.8c0.2-0.6,0.7-1.4,0.5-1.7c-0.6-0.8-0.2-1.3,0.2-1.9c0.2-0.3,0.4-0.7,0.6-1.1
		c-0.1-0.1-0.2-0.1-0.3-0.2c-0.8,0.6-1.4,1.2-1.5,2.4C180.8,51.1,180.1,53.2,177.7,54.1z M172.5,68.9c-0.1,0.1-0.2,0.2-0.4,0.3
		C172.3,69.1,172.4,69,172.5,68.9c1-0.5,1.4,0.4,1.9,1c1.4,1.4,1.4,1.4-0.2,2.7c-1.1,0.9-1.4,0.9-2.4-0.1c-0.9-0.9-1.8-1.7-2.6-2.6
		c-1.3-1.4-1.2-1.5,0.2-2.7c0.2-0.2,0.5-0.4,0.7-0.6c-1.2-0.1-1.7,2.4-3.1,0.8c-1.4-1.5-1.4-2-0.6-3c-0.9,1-1.4,0.4-2-0.4
		c-0.1-0.3-0.2-0.6-0.3-0.9c-0.1,0-0.1,0.1-0.2,0.1c0.2,0.3,0.3,0.6,0.5,0.8c0.8,1.2,0.5,2.1-0.6,2.8c-0.1,0.1-0.2,0.2-0.3,0.2
		c-1.3,0.8-1.3,0.8-2.1-0.5c-0.1-0.2-0.3-0.4-0.4-0.6c-0.4-0.7-0.2-1.2,0.4-1.6c0.5-0.3,0.9-0.7,1.3-1c-0.7,0.2-1.3,0.8-2,0.9
		c-0.6,0-1.2-0.5-1.8-0.8c0,1.2,1.1,1.8,2,2.5c0.2,0.9,0.4,1.7,0.5,2.5c0.4-0.3,0.7,0.1,1,0.7c0.3,0.5,0.7,1,1.1,1.4
		c0.8,0.9,1.7,1.7,2.4,2.6c0.2,0.2,0.1,0.8,0,0.9c-0.7,0.5-1.4,1-2.2,1.1c-0.4,0.1-0.9-0.7-1.3-1.1c0-0.1,0-0.2-0.1-0.2
		c0,0-0.1,0-0.1,0c0.1,0.1,0.1,0.2,0.2,0.3c0.4,0.6,0.9,1.3,1.4,1.9c0.5,0.6,1.4,1.2,1.5,1.8c0.2,0.9,0.8,0.7,1.2,1
		c0.1,0,0.1,0.1,0.2,0.2c0.6,0.5,1.2,1,1.7,1.6c0.2,0.2,0.3,0.7,0.2,0.9c-1.3,1.5-2.6,1.4-3.8-0.1c0-0.1-0.1-0.1-0.2-0.1
		c0.9,1.4,1.8,2.7,2.9,3.8c0.8,0.8,1,1.3-0.2,1.8c0.7-0.2,1.4-0.7,1.7-0.6c0.8,0.4,1.5,1.2,2.3,1.7c0.3,0.2-0.4,0.9,0.4,0.5
		c0.3-0.2,0.7-0.4,1-0.5c-0.1-0.1-0.2-0.1-0.4-0.2c0.1-0.2,0.2-0.4,0.3-0.6c0,0,0,0-0.1,0c-0.1,0.2-0.2,0.4-0.3,0.6
		c-0.6-0.1-1.2-0.1-1.7-0.4c-1.1-0.7-1.8-1.8-3-2.4c-0.4-0.2-0.6-0.7-0.9-1.1c-0.3-0.4-0.4-0.8,0.2-1.1c1.9-1.2,2.1-1.2,4.1,0.2
		c0.7,0.5,0.8,0.9,0.4,1.2c0.5,0,1.3,0.1,1.7,0.1c0-0.5-0.1-1.1-0.1-1.6c-1.4,1-1.6,0.4-3-1c-0.8-0.8,0.4-1,0.6-1.4l0,0
		c1-0.8,2-1.3,3.1-0.2c0.2,0.2,0.7,0.2,1.1,0.2c-0.1,0-0.1,0-0.2,0.1c-0.7-0.6-1.4-1.1-2.1-1.7c0.7-0.6,1.4-1.2,2.1-1.9
		c0.4-0.3,0.7-0.7,1.1-1c-0.4-0.3-0.9-0.5-1.2-0.8c-0.4-0.4-1-1.2-0.9-1.3c0.7-0.8,1.4-1.6,2.3-2c0.8-0.3,0-0.8,0.4-1
		c-0.2,0-0.3,0.1-0.5,0.1c-0.2,0-0.5,0.1-0.6,0c-0.6-0.6-1.4-1.3-1.8-2c-0.1-0.3,0.6-1,1-1.5c0.1-0.1,0.2-0.2,0.2-0.3
		c0.5-0.5,0.9-0.5,1.4,0.1c0.5,0.5,1,1,1.6,1.4c0.1,0.1,0.3,0,0.5,0c-0.1-0.2-0.2-0.4-0.2-0.6c0-0.2,0.1-0.4,0.1-0.5
		c-0.1,0-0.1,0-0.2,0c0,0.2,0.1,0.3,0.1,0.5c-1.9-0.4-2.4-1.4-1.5-3.1c-1.4,1.1-1.5,1.1-2.6-0.4c-0.4-0.6-0.8-1.2-1.3-1.8
		c-0.1-0.2-0.4-0.3-0.6-0.4c0,0.3,0,0.5,0.1,0.8c0.1,0.3,0.3,0.8,0.2,0.9c-0.5,0.6-1,1.4-1.7,1.6c-0.4,0.1-1-0.8-1.6-1.3
		c-0.1-0.1-0.2-0.3-0.3-0.4c-0.6-0.9-0.8-0.9-1.2-0.3c0.3,0.1,0.7,0.2,1,0.4c0.3,0.2,0.5,0.7,0.7,1c1.2,1.7,1.2,1.7,2.7,0.4
		c0.3-0.3,0.6-0.6,0.9-0.8c0.2-0.1,0.5-0.2,0.6-0.2c1.4,0.5,1.7,2.2,0.6,3.3C173.6,67.7,173,68.3,172.5,68.9z M178.6,64.5
		c0.2-0.1,0.4-0.2,0.6-0.2c0.3,0,0.6,0.2,0.8,0.1c0.6-0.2,0.7-0.9,0-1.4c-0.8-0.6-1.6-1.1-2.3-1.7c-0.2-0.2-0.3-1-0.3-1
		c1-0.4,1.1-1.1,1.1-2.1c0-0.7,0.4-1.4,0.6-2.1c0.1,0,0.2,0,0.4,0.1c-0.2,1.2-0.5,2.4-0.7,3.6c-0.1,0.5-0.1,1.1,0.2,1.4
		c0.2,0.3,0.8,0.3,1.2,0.3c0.9-0.1,1.8-0.3,2.5-0.7c0.7-0.4,1.6-1.1,1.7-1.8c0.3-1.3,1.1-2.2,1.7-3.3c0.7-1.2,1.5-2.7,1.3-3.8
		c-0.2-1.3-0.5-2.5-0.4-3.8c0-0.3-0.4-1-0.6-1c-1.1,0.1-0.6-0.4-0.5-0.9c0.3-1,0.6-2,0.7-3.1c0-0.3-0.3-0.8-0.7-1
		c-0.2-0.1-0.8,0.3-1,0.5c-0.7,1-2.3,1.7-1.1,3.3c0.1,0.2-0.2,0.7-0.4,1.1c-0.3,0.4-0.8,0.6-1,1c-0.1,0.2,0,0.7,0.1,1
		c0.2,0.5,0.7,1,0.6,1.3c-0.1,0.4-0.6,0.9-1.1,1.1c-0.6,0.2-0.7,0.2-0.6,0.9c0.3,1.3-1.6,2.8-2.9,2.3c-1.3-0.4-2.8,0.7-2.7,2.1
		c0,0.4-0.1,0.9-0.4,1.2c-0.9,1-2.2,1.3-3.5,1.3c-0.2,0-0.3-0.2-0.5-0.3c0.1-0.1,0.3-0.4,0.4-0.4c2,0,3-1.1,2.9-3.1
		c0-1.2,0.7-1.9,1.9-2c0.7-0.1,1.5-0.4,2-0.8c1.4-1,1-2.7,1.7-4.1c0.1-0.1-0.1-0.5-0.3-0.6c-0.7-0.4-0.5-0.5,0.1-0.7
		c1.4-0.4,2.5-2.1,2.5-3.5c0-0.1,0.1-0.4,0.2-0.4c1.8-0.1,1.6-1.9,2.4-2.8c0.2-0.2,0-0.8,0-1.2c-0.3,0.1-0.6,0.2-0.8,0.3
		c0-0.9,0.2-1.7-0.1-2.5c-0.2-0.6-1.1-1.6-1.4-1.5c-1.4,0.5-1.6-0.6-2.1-1.3c-0.9-1.5-1.7-1.8-3.3-1.3c-0.3,0.1-0.5,0.2-0.8,0.2
		c-1,0.3-1.7,0.1-2.2-0.9c-1-1.8-2.4-2.2-4.4-1.5c-0.5,0.2-1.1,0.4-1.6,0.4c-0.9-0.1-1.5,0.2-2,0.8c-0.6,0.8-1.2,0.7-2,0.5
		c-2.6-0.6-4.2,0.2-5.5,2.6c-0.3,0.5-0.7,1.2-1.2,1.4c-1.5,0.6-1.8,1.8-2.1,3.1c-0.1,0.4-0.5,0.9-0.9,1.1c-0.8,0.4-1.4,0.6-0.4,1.4
		c0.2,0.2,0.3,0.5,0.3,0.8c0,0.7,0,1.3,0,2c0,0.1-0.4,0.4-0.5,0.4c-0.3-0.2-0.5-0.4-0.8-0.7c-0.4-0.5-0.7-0.6-1.2,0
		c-0.2,0.3-0.4,0.6-0.7,0.8c0.2-0.1,0.4-0.1,0.6-0.2c-0.1,0.4-0.2,0.6-0.4,0.7c-1.5,0.9-0.7,2.7-1.6,3.9c-0.2,0.2,0.4,1,0.6,1.5
		c0.2,0.9,0.3,1.8,0.3,2.7c0,1-0.3,2-0.2,3c0,0.5,0.7,1.3,0.9,1.3c1.1-0.2,1.1,0.5,1.3,1.1c0.8,2.2,2.8,3.2,5.1,2.7
		c0.6-0.1,1.2,0.1,1.8,0.1c0.5,0,1.2,0,1.4-0.2c0.6-1,1.3-0.6,2.1-0.4c0.7,0.2,1.8,0.6,2.3,0.3c1.1-0.8,1.9-0.2,2.9,0
		c0.6,0.1,1.3,0,1.7-0.3c1.2-1.1,2.2-1.1,3.2,0.2c0.2,0.3,0.6,0.6,0.9,0.5C176.8,61.7,177.7,63,178.6,64.5c0.2,0.4,0.3,0.8,0.6,1.2
		c0.5,0.7,1,1.5,1.6,2.1c0.5,0.5,1.4,0.7,1.9-0.1c0.5-0.9,0.1-1.6-0.6-2.1c-0.3-0.2-0.7-0.3-1.1-0.4C180.1,65,179.4,64.8,178.6,64.5
		z M173.5,69.8c-1-0.8-1.5,0.2-2,0.7c-0.7,0.7,0.2,1,0.5,1.4c0.7,0.7,1.5,0.5,2-0.1C174.7,71,174,70.4,173.5,69.8z M168.5,66.5
		c0.9-1.1,0.5-1.8-0.1-2.3c-0.8-0.7-1.3,0.2-1.8,0.6c-0.8,0.8,0.1,1.4,0.6,1.8C167.5,66.8,168.2,66.5,168.5,66.5z M170.1,83
		c-1.2-1.1-1.9-0.4-2.5,0.1c-0.1,0.1,0.3,1.1,0.7,1.4c0.7,0.6,1.3-0.1,1.8-0.6C170.3,83.7,170.1,83.1,170.1,83z M173.4,80.4
		c-1.2-1.1-1.8-0.2-2.4,0.3c-0.1,0.1,0.1,0.9,0.3,1.2c0.8,0.9,1.5,0.1,2-0.5C173.6,81.2,173.4,80.6,173.4,80.4z M161.7,64.4
		c-0.7,0.8-0.1,1.5,0.3,1.8c0.9,0.7,1.3-0.4,1.8-0.8c0.9-0.6,0-1.5-0.2-1.5C163,63.8,162.3,64.2,161.7,64.4z M170,88
		c-1.2-1-2.3-1.2-2.5-0.5c-0.1,0.4,0.3,1.1,0.7,1.5c0.5,0.7,1.2,0.5,1.7,0C170.1,88.7,170,88.2,170,88z M166.9,79.5
		c-0.9-0.7-1.7-0.4-2.1,0.1c-0.2,0.2,0.3,1.1,0.7,1.5c0.6,0.8,1.3,0.3,1.7-0.2C167.4,80.7,167,80,166.9,79.5z M175.9,67.2
		c-0.3,0.1-0.8,0.2-1.1,0.5c-0.8,0.7-0.2,1.4,0.4,1.7c0.3,0.2,1,0.1,1.3-0.2C177.1,68.6,176.5,68,175.9,67.2z M170.5,86.2
		c1.1,1,1.7,0.4,2.2-0.2c0.2-0.2,0.2-1,0-1.2c-1-0.8-1.5,0.4-2.3,0.7C170.3,85.6,170.5,86.1,170.5,86.2z M164.5,71.6
		c-0.8,0.3-1.4,0.4-1.8,0.8c-0.1,0.1,0.2,1.1,0.4,1.2c0.6,0.1,1.3,0,1.9-0.1C164.9,72.9,164.7,72.4,164.5,71.6z M171.3,69.2
		c-0.2-0.9-0.1-1.5-0.4-1.7c-0.8-0.7-1.2,0.3-1.7,0.6c-0.1,0.1,0.1,1,0.3,1.1C169.8,69.3,170.4,69.2,171.3,69.2z M176.6,74.3
		c-0.1-0.9-0.2-1.4-0.3-1.9c-0.5,0.3-1.1,0.5-1.5,0.8c-0.2,0.2-0.1,1,0,1C175.3,74.3,175.8,74.2,176.6,74.3z M173.8,78
		c0,0.4,0,1,0,1c0.5,0.1,1,0.1,1.5,0.1c0-0.6,0.1-1.2,0.1-1.8C175,77.5,174.5,77.7,173.8,78z M171.8,65.2c0.2,0.7,0.2,1.2,0.4,1.5
		c0.1,0.2,0.8,0.1,1,0c0.5-0.4,0.8-1,0.2-1.5C173.2,65,172.6,65.2,171.8,65.2z M171.2,64c0-0.5,0-0.9,0-1.3
		c-0.5,0.1-1.1,0.1-1.6,0.2c0.2,0.4,0.2,0.9,0.5,1.2C170.2,64.3,170.7,64.1,171.2,64z M170.1,93c-0.1-0.5-0.1-1-0.3-1.2
		c-0.2-0.2-0.9,0-1,0.1c-0.1,0.4,0,0.9,0.1,1.3C169.3,93.2,169.6,93.1,170.1,93z M162.2,69.2c-0.5,0.1-1,0.1-1,0.2
		c-0.1,0.4,0,0.9,0,1.4c0.4-0.1,0.9,0,1.2-0.2C162.5,70.3,162.3,69.8,162.2,69.2z M177.9,66.7c0.1-0.1,0.2-0.2,0.3-0.2
		c-0.2-0.4-0.3-0.9-0.6-1.3c-0.1-0.1-0.7,0-0.7,0c-0.1,0.4-0.1,0.8,0,1.1C177.1,66.5,177.6,66.5,177.9,66.7z M166,84
		c-0.1,0-0.2,0.1-0.3,0.1c0.1,0.5,0.2,1.1,0.5,1.5c0.1,0.2,0.5,0.3,0.8,0.4c0-0.3,0.2-0.6,0.1-0.8C166.7,84.7,166.3,84.4,166,84z
		 M172.1,89.4c-0.1-0.1-0.2-0.1-0.3-0.2c-0.3,0.2-0.7,0.4-0.9,0.7c-0.2,0.2-0.1,0.6-0.2,0.9c0.3,0,0.8,0.1,0.9,0
		C171.9,90.4,171.9,89.9,172.1,89.4z M174.2,63.1c0.3,0.5,0.4,0.9,0.7,1.1c0.2,0.1,0.7-0.1,0.8-0.3c0.1-0.2,0-0.9-0.1-0.9
		C175.3,63,174.9,63,174.2,63.1z M163.4,76.4c-0.1,0-0.2,0.1-0.3,0.1c0.1,0.5,0.1,1,0.3,1.5c0.1,0.2,0.5,0.2,0.7,0.3
		c0-0.2,0.2-0.5,0.1-0.7C164.1,77.1,163.7,76.8,163.4,76.4z M171.1,94.2c-0.1-0.1-0.3-0.2-0.4-0.2c-0.2,0.4-0.5,0.7-0.7,1.1
		c0.1,0.1,0.4,0.2,0.4,0.2C170.6,94.9,170.8,94.6,171.1,94.2z M165.9,63.6c0-0.3,0-0.4,0-0.6c-0.3,0-0.7,0-1,0c0,0,0,0.4,0,0.4
		C165.2,63.5,165.5,63.5,165.9,63.6z M154.5,43.4c-0.2-0.4-0.2-0.7-0.4-0.9c-0.1-0.1-0.4,0-0.6,0.1c0.1,0.2,0.2,0.4,0.3,0.6
		C154,43.3,154.1,43.3,154.5,43.4z M160.2,66.1c-0.1,0-0.2,0.1-0.4,0.1c0.2,0.4,0.3,0.8,0.5,1.2c0,0,0.2,0,0.2-0.1
		C160.4,66.9,160.3,66.5,160.2,66.1z M178,69.7c-0.3,0.3-0.6,0.7-0.9,1c0.1,0,0.2,0.1,0.2,0.1C177.6,70.5,177.8,70.1,178,69.7z
		 M174.2,82.5c-0.3,0.2-0.4,0.3-0.5,0.4c-0.1,0.1,0,0.3-0.1,0.4c0.1,0,0.3,0,0.4-0.1C174.1,83.1,174.1,82.9,174.2,82.5z M171.1,93
		c0,0-0.1-0.1-0.1-0.1c-0.4,0.4-0.8,0.8-1.2,1.2c0,0,0.1,0.1,0.1,0.1C170.2,93.8,170.6,93.4,171.1,93z M175.7,57.1
		c-0.1-0.1-0.2-0.1-0.3-0.2c-0.1,0.3-0.3,0.5-0.4,0.8c0.1,0,0.1,0.1,0.2,0.1C175.3,57.6,175.5,57.3,175.7,57.1z M167.4,62.7
		c0,0-0.1-0.1-0.1-0.1c-0.3,0.3-0.5,0.6-0.8,1C166.8,63.2,167.1,63,167.4,62.7z M160.8,63.7c0-0.1-0.1-0.3-0.1-0.3
		c-0.1,0-0.3,0-0.4,0c0,0.1,0,0.3,0,0.3C160.4,63.7,160.5,63.7,160.8,63.7z M182.7,50.6c0.1,0,0.1,0,0.2,0c0-0.2,0-0.5,0-0.7
		c0,0-0.1,0-0.1,0C182.7,50.2,182.7,50.4,182.7,50.6z M170.4,96.3c-0.1,0-0.2,0-0.3,0c0,0.1,0.1,0.2,0.1,0.3c0.1,0,0.2,0,0.3,0
		C170.4,96.5,170.4,96.4,170.4,96.3z M167.9,90.3c0,0.1,0,0.2,0,0.3c0.1,0.1,0.2,0.1,0.3,0.1c0-0.1,0-0.2,0-0.2
		C168.1,90.4,168,90.4,167.9,90.3z M177.8,69.1c-0.1,0.1-0.2,0.1-0.2,0.1c-0.1,0.1-0.1,0.2-0.2,0.3c0,0,0.1,0,0.1-0.1
		C177.6,69.4,177.7,69.3,177.8,69.1z M174.4,65.9c0,0,0.1,0,0.1,0c0,0,0-0.1,0-0.1c0-0.1-0.1-0.1-0.1-0.1
		C174.4,65.7,174.4,65.8,174.4,65.9z M171.9,68.6C172,68.6,172,68.6,171.9,68.6c0-0.1,0-0.1-0.1-0.2
		C171.9,68.5,171.9,68.6,171.9,68.6C171.9,68.6,171.9,68.6,171.9,68.6z M171.1,70C171.1,70,171.1,70.1,171.1,70c0.1,0,0.1,0,0.1-0.1
		C171.2,70,171.2,69.9,171.1,70C171.1,70,171.1,70,171.1,70z M171.9,63.3C171.9,63.3,172,63.3,171.9,63.3c0.1-0.1,0.1-0.1,0.1-0.2
		c-0.1,0-0.1,0-0.1,0.1C171.9,63.2,171.9,63.3,171.9,63.3z M183.4,46.3C183.4,46.3,183.3,46.3,183.4,46.3c-0.1,0.1-0.1,0.1-0.1,0.1
		C183.4,46.4,183.4,46.4,183.4,46.3C183.4,46.4,183.4,46.3,183.4,46.3z M174.9,71.2L174.9,71.2L174.9,71.2L174.9,71.2z M171,69.4
		L171,69.4L171,69.4L171,69.4z M165.5,64.2C165.5,64.2,165.5,64.1,165.5,64.2c-0.1,0-0.1,0-0.1,0.1
		C165.5,64.2,165.5,64.2,165.5,64.2C165.5,64.2,165.5,64.2,165.5,64.2z"/>
	<path d="M172.4,33.3c1.8-0.7,3.3-0.1,4.1,1.5c0.5,1,1,1.9,0.5,3.1c0,0.1,0,0.3,0,0.3c1.6,1.3,0.4,2.7,0.2,4.1c0,0.4,0,0.8-0.1,1.1
		c-0.1,0.9-0.1,1.8-0.3,2.7c-0.1,0.3-0.5,0.5-0.6,0.6c0.2-1,0.4-2.1,0.5-3.1c0-0.3-0.2-0.7-0.4-0.8c-0.6-0.5-0.9-0.8,0.2-0.8
		c0.1,0,0.4-0.5,0.4-0.7c0-0.2-0.3-0.5-0.6-0.6c-0.2-0.1-0.5,0-0.7,0c-0.9,0.1-1-0.3-0.6-1c0.2-0.4,0.5-0.8,0.8-1.2
		c0.9-1.2,0.9-1.9,0.1-3.2c-0.4-0.7-0.4-1.5-1.3-1.7C174,33.5,173.2,33.4,172.4,33.3z M175.7,39.8c0.1,0.1,0.2,0.2,0.2,0.3
		c0.2-0.2,0.4-0.4,0.6-0.6c0,0-0.1-0.2-0.2-0.2C176.1,39.5,175.9,39.7,175.7,39.8z M177.2,38.8c-0.1,0-0.2,0-0.3,0.1
		c0.1,0.4,0.2,0.7,0.3,1.1c0.1,0,0.2,0,0.3-0.1C177.3,39.5,177.2,39.1,177.2,38.8z"/>
	<path d="M159.6,59.8c-1-0.2-2-0.5-3-0.7c-0.7-0.2-1.4-0.3-2-0.6c-0.3-0.1-0.7-0.5-0.8-0.8c-0.6-1.2-1-2.5-1.4-3.8
		c1.4,3.3,3.9,5.1,7.4,5.6C159.7,59.6,159.6,59.7,159.6,59.8z"/>
	<path d="M160.7,45.6c-0.4-0.6-0.9-2.9-0.5-3.1c0.3-0.2,1,0.2,1.3,0.5c0.5,0.5,0.8,1.1,1,1.7c0.1,0.3-0.1,1-0.4,1.1
		C161.7,45.8,161.2,45.6,160.7,45.6z M161.3,43.7c0,0-0.1,0-0.2,0c0.1,0.5,0.2,0.9,0.4,1.3c0,0.1,0.3,0,0.5,0
		C161.7,44.7,161.5,44.2,161.3,43.7z"/>
	<path d="M164.3,56c-0.2,0-0.5-0.1-0.7-0.1c-0.6,0-1.3-0.6-1.8,0.2c0,0-0.3-0.1-0.4-0.1c-1.8-1.1-2.8-2.7-3.3-4.6
		c0.1-0.1,0.2-0.1,0.3-0.2c0.2,0.5,0.5,1,0.7,1.4c0.8,2,2.8,2,4.3,2.8c0.3,0.1,0.6,0.1,0.9,0.2C164.3,55.8,164.3,55.9,164.3,56z"/>
	<path d="M170.1,54.7c0.8-0.9,1.6-1.8,2.5-2.7c-1,1.6-0.9,3.7-2.6,4.9c-1,0.7-2,1-3.2,0.7c-0.2-0.1-0.4-0.3-0.5-0.5
		c0.2,0,0.4-0.1,0.6-0.1c1.6,0.4,2.9-0.1,3.8-1.5C171,55,171,55,170.1,54.7z"/>
	<path d="M183,39.7c-0.4,0.5-0.9,0.6-1.2-0.3c-0.1-0.3-0.5-0.5-0.7-0.7c-0.3-0.3-0.8-0.6-0.7-0.8c0.1-0.4,0.5-1,0.8-1
		c0.6-0.1,1.4,0,1.9,0.4C183.7,37.7,183.6,39,183,39.7z M181,37.9c0.5,0.4,0.9,0.9,1.3,1.2c0.1,0.1,0.5,0,0.5,0
		c0-0.5,0.1-1.1-0.1-1.5c-0.1-0.3-0.6-0.4-1-0.5c0,0.1-0.1,0.2-0.1,0.2c0.3,0.2,0.6,0.3,0.8,0.5c0,0.1,0,0.2-0.1,0.3
		C182,38.1,181.5,38,181,37.9z"/>
	<path d="M183.1,57.2c2.5-2.8,2.5-2.8,2.3-7.4C187.4,51.5,185.9,56,183.1,57.2z"/>
	<path d="M170.1,52c1.8-0.3,2.6-1.6,3.1-3.2c0.1-0.2,0.2-0.5,0.2-0.5c1.7,0.3,1.3-1.3,1.9-2c0,0,0.1,0,0.1,0
		c0.2,1.4-0.3,2.2-1.4,2.7c-0.3,0.2-0.5,0.6-0.7,0.9c-0.6,0.7-1.1,1.5-1.8,2.2c-0.3,0.3-0.8,0.2-1.3,0.3
		C170.1,52.2,170.1,52.1,170.1,52z"/>
	<path d="M157,46.9c0-0.6-0.1-1.3,0-1.4c0.5-0.2,1-0.2,1.6-0.2c0,0.5,0.2,1.1,0,1.4C158.4,46.9,157.7,46.8,157,46.9z M158.3,46.3
		c0-0.2,0-0.3,0-0.4c0-0.1-0.2,0-0.3-0.1c0,0.1,0,0.2,0,0.3C158,46.3,158.2,46.3,158.3,46.3z"/>
	<path d="M167.7,35.4c0.1-0.1,0.2-0.3,0.3-0.4c0.3,0.3,0.6,0.5,0.7,0.9c0.1,0.2-0.2,0.6-0.5,0.7c-0.2,0.1-0.7-0.1-0.7-0.2
		C167.5,36,167.7,35.7,167.7,35.4c0.1,0.2,0.3,0.5,0.4,0.7c0-0.1,0.1-0.1,0.1-0.1C168.1,35.7,167.9,35.5,167.7,35.4z"/>
	<path d="M179.5,33.7c0,0.5,0,0.8-0.1,1c-0.1,0.1-0.6,0.1-0.7,0c-0.1-0.2-0.2-0.6-0.1-0.8C178.7,33.8,179.1,33.8,179.5,33.7z"/>
	<path d="M167.8,47.9c0.2,0,0.5,0,0.5,0c0.1,0.3,0.1,0.6,0.1,0.9c-0.3,0-0.5,0.1-0.8,0.1C167.8,48.5,167.8,48.3,167.8,47.9z"/>
	<path d="M166.3,44.9c-0.3-0.1-0.6-0.1-0.6-0.2c-0.1-0.2,0-0.4,0-0.6c0.1,0,0.3,0,0.4,0.1C166.1,44.3,166.2,44.6,166.3,44.9z"/>
	<path d="M166.7,55.5c-0.5,0.1-1.1,0.3-1.6,0.4c0-0.1-0.1-0.2-0.1-0.3c0.6-0.1,1.1-0.2,1.7-0.3C166.6,55.4,166.7,55.4,166.7,55.5z"
		/>
	<path d="M166.6,55.3c0.2,0,0.4,0,0.6-0.1c-0.2,0.1-0.3,0.2-0.5,0.3C166.7,55.4,166.6,55.4,166.6,55.3z"/>
	<path d="M171.9,75c1.2-0.8,2.2-0.7,3.1,0.4c0.1,0.2,0,0.7-0.2,1c-0.6,0.8-1.4,1.4-2.1,2.2c-0.4-0.1-1-0.1-1.3-0.4
		c-1.3-1.1-2.5-2.3-3.7-3.4l0,0c-0.3-0.7-0.9-1.4,0-2c0.1,0,0.1-0.1,0.2-0.1c0.2-0.1,0.4-0.2,0.5-0.4l0,0c0.2-0.1,0.4-0.3,0.6-0.4
		l0.1,0c0.9-0.4,2.9,0.6,3.1,1.6c0,0.1,0,0.2-0.1,0.3c-0.1,0.1-0.3,0.2-0.4,0.3c0.3,0,0.5,0,1,0.1C172.5,74.4,172.2,74.7,171.9,75
		c-0.1,0.1-0.2,0.2-0.3,0.3C171.7,75.2,171.8,75.1,171.9,75z M170.5,72.6c-0.7-0.5-1.8-0.3-2.4,0.7c-0.2,0.3,0.3,1.2,0.7,1.6
		c0.6,0.6,1.7,0.4,2.2-0.3C171.6,73.7,170.9,73.1,170.5,72.6z M173.6,76.6c0-0.1,0.3-0.4,0.2-0.5c-0.1-0.3-0.5-0.9-0.6-0.9
		c-0.7,0.3-1.5,0.7-2.1,1.1c-0.1,0.1,0,0.5,0,0.7c0,0,0.1,0.1,0.1,0.1C171.8,77.8,172.5,77.7,173.6,76.6z M174.4,75.7
		C174.4,75.7,174.4,75.7,174.4,75.7C174.4,75.7,174.5,75.7,174.4,75.7C174.4,75.6,174.4,75.6,174.4,75.7
		C174.4,75.6,174.4,75.7,174.4,75.7z"/>
	<path d="M163.5,66.9c0.6-0.4,1.3-1.1,1.9-1c0.5,0,1,0.9,1.4,1.5c0.9,1,1.8,2,2.6,3.1c0.2,0.3-0.1,0.9-0.2,1.3c0,0-0.1,0-0.1,0
		c-0.2,0.1-0.4,0.3-0.6,0.4l0,0c-0.2,0.1-0.4,0.2-0.5,0.4c-0.1,0-0.1,0.1-0.2,0.1c-1.3,0.9-1.9-0.1-2.4-1c-0.6-0.9-1.3-1.8-1.9-2.7
		C162.7,68.2,162.6,67.5,163.5,66.9z M168.1,70c-1.2-0.9-1.8,0-2.3,0.4c-0.8,0.5,0,1.1,0.3,1.5c0.7,0.8,1.5,0,1.9-0.4
		C168.3,71.2,168.1,70.4,168.1,70z M163.4,67.2c0.2,0.7,0.3,1.2,0.5,1.5c0.7,0.8,1.4,0.3,1.8-0.2c0.3-0.3-0.1-1.1-0.1-1.7
		C165,66.9,164.3,67.1,163.4,67.2z M166.8,68.3C166.8,68.3,166.8,68.3,166.8,68.3c0-0.1-0.1-0.1-0.2-0.1c0,0,0,0.1,0,0.1
		C166.6,68.3,166.7,68.3,166.8,68.3z M166.5,69.2L166.5,69.2L166.5,69.2L166.5,69.2z"/>
	<path d="M170.9,80.1c-0.5,0.2-1.3,0.8-1.6,0.6c-0.8-0.6-1.5-1.4-2.2-2.1c-0.1-0.1-0.1-0.3,0-0.4c0.3-0.7,2.5-1.3,3.1-0.8
		c0.2,0.1,0.4,0.3,0.6,0.5C172,78.8,172,78.8,170.9,80.1L170.9,80.1z M168.5,79.9c0.7-0.2,1.3-0.4,1.8-0.5c-0.2-0.6-0.3-1.3-0.8-1.6
		c-0.3-0.2-1.1,0.1-1.7,0.2C168.1,78.6,168.2,79.1,168.5,79.9z"/>
	<path d="M167.7,74.7c0.1,0.1,0.2,0.3,0.2,0.4c0,0.6,1.7,0.9,0.4,1.8c-1.6,1.2-2.4,1.2-3.2,0c-0.3-0.5-1.3-1-0.6-1.8
		C165.5,74,166.9,73.9,167.7,74.7L167.7,74.7z M165.5,77c0.7-0.1,1.3-0.2,1.8-0.3c-0.2-0.6-0.2-1.4-0.5-1.6
		c-0.4-0.2-1.1,0.1-1.7,0.2C165.2,75.8,165.3,76.2,165.5,77z"/>
</g>
<g>
	<path d="M178.1,93.1c-1.2-3.2-2.4-6.4-3.4-9.1c-0.1,0.4-0.2,0.7-0.3,1.1c1.1,2.8,2.2,5.5,3.3,8.2C177.8,93.2,177.9,93.1,178.1,93.1
		z"/>
	<path d="M263,118.2c-0.6-1-1.6-1.9-2.5-2.7c-1.1-1-1.9-1.9-1.4-3.7c0.6-2,0.2-4.2-1.2-5.5c-2.2-2-1.5-4.1-0.8-6.3
		c0.3-1,0.5-2,0.8-2.9c1.4-5.1,0.9-10-1.9-14.6c-0.3-0.6-0.3-1.4-0.3-2.1c0-1.3,0-2.6,0.1-3.9c0.2-3.2-3.1-5.6-1.7-9
		c-1.2-3.1-2.1-6.4-3.8-9.2c-2.5-4-6.4-6.3-11.3-6.7c-1.1-0.1-2.2,0.1-3.4,0.2c3.8-5.8,3.7-9-0.4-13.9c2.2-3.9,1.8-5.9-1.6-9.2
		c-0.4-0.4-0.5-1-0.6-1.6c-0.9-6-3.8-10.6-9.5-13.1c-4.9-2.2-10.1-2.6-15.4-1.6c-7.3,1.5-12.8,7.3-13.8,14.6c-0.1,0.9,0.3,2,0.4,2.9
		c0.1,0.6,0.3,1.1,0.2,1.7c-0.4,3-0.7,6-2.1,8.8c-0.3,0.7-0.1,1.6-0.3,2.5c-0.2,0.8-0.4,1.6-0.8,2.2c-1.7,2.1-2.7,4.4-2.3,7.1
		c0.3,1.7,1,3.3,1.4,4.6c-1.2,1.1-5.5,5.7-7.9,8.2c0.1,0.4,0.1,0.9,0,1.4c1.7-1.9,6.1-6.8,6.9-7.4c1.7-1.3,2.3-1.2,3.8-0.1
		c-1.1,2.9-2.5,5.7-3.2,8.7c-0.5,2.2-0.1,4.7,0.2,7c0.1,0.8,1,1.6,1.8,2.9c-1.2-0.3-2.1-0.5-3-0.7c0.5-1.4,0.6-1.8-0.4-3.9
		c0,0,0,0,0,0c0.4,1.9-0.2,3.8-1.7,4.9c1.4-0.7,1.9-0.5,4.7,0.6c-0.4,3.7,0.5,6.9,2.8,10.2c-0.7-0.3-1.1-0.4-1.4-0.6
		c-2.5-1.9-5.8-2.8-7.9-5.4c-1.2-1.6-1.1-3.2,0.6-4.2c0,0,0,0,0,0c-0.2,0.1-0.3,0.1-0.5,0.2c-0.7,0.2-1.5,0.2-2.3,0
		c0.3,0.5,0.2,0.9,0.1,1.5c-1.1-0.8-4.5-5.1-5.6-5.9c-0.2,0.3-0.5,0.6-0.8,0.9c4.8,3.4,12.5,11.1,14.1,18.4c0.2,0.9,0.4,1.9,0.2,2.8
		c-0.8,4.9-1.8,6.1-6.2,5.7c-5.4-0.4-8.8-2.9-10.4-8c-0.6-1.8-1.1-3.7-1.7-5.6c-0.2,0.5-0.5,1-0.8,1.5c0.4,1.2,0.8,2.3,1.1,3.5
		c1.9,6.5,6,9.5,12.7,9.6c2.8,0.1,4.7-1,5.7-3.6c0.2-0.5,0.7-1,1.1-1.6c0.4,3.3,0.8,6.3,1.2,9.2c0.1,1.1,0.4,2,1.4,1.6
		c0.4,2.3,0.5,4.5,1.2,6.6c0.4,1.5,0.6,2,0.1,3.4c-3.4,8.5-4.2,17.1,0,25.6c0.7,1.5,0.6,2.5-0.2,3.7c-0.5,0.7-1.1,1.4-1.5,2.2
		c-0.3,0.5-0.7,1.2-0.7,1.8c-0.2,3.8,0.3,7.5,2,10.9c0.8,1.6,1.4,3.3,1.8,5c1.1,4.2,0.9,4.4-3.3,4.9c-0.4,0.1-0.8,0.1-1.2,0.1
		c-5.2,0.7-8.5,4.3-8.5,9.5c0,1.7,0.3,3.4,0.5,5.1c0.1,1.2,0.7,1.8,2,2.1c6.6,1.3,13.2,1.6,19.9,0.2c2-0.4,3.8-0.8,6-0.3
		c8.5,2.2,17,1.5,25.2-1.7c2.2-0.9,3.8-1.8,3.5-4.5c-0.1-0.9,0.1-1.9,0.2-2.8c0.3-3.3-0.3-6.3-2.3-8.9c-0.4-0.5-0.6-1.2-0.5-1.8
		c0.5-2.8,1-5.6,1.9-8.3c1-3.1,1.2-6.2,0.7-9.3c-0.1-0.5-0.5-1.3-0.9-1.4c-2.3-0.5-3.5-2-4.1-4.2c-0.1-0.5-0.2-1.2,0-1.7
		c4.2-9.5,4.4-18.9-0.5-28.2c-0.4-0.8-1.2-1.3-1.6-1.7c0-2.1,0-4,0-6c0-1.6,0.1-3.2,0.2-4.9c0-1.6,0.1-3.3-0.1-4.9
		c-0.1-1-0.9-1.9-0.8-2.8c0.1-1.6,0.1-3.7,1-4.5c2.4-2.2,4.2-4.7,5.3-7.6c0.2-0.4,0.7-0.6,1.1-1c0.1,0.6,0.4,1.3,0.2,1.8
		c-0.2,0.8-0.9,1.4-1.1,2.2c-1.5,4.5-1.2,8.9,1,13c2.4,4.6,1.2,8.6-0.6,12.9c-0.7,1.7-1.1,3.7-1,5.5c0.2,3.3,2.5,4.2,5.2,2.5
		c3.9,5.3,5.5,5.9,8.2,3.4c3.9,1.4,5.2,0.9,5.9-2.2c0.3,0,0.7,0,1,0C263.1,122.7,264.4,120.5,263,118.2z M241.7,53.4
		c5.3,1.7,8.5,5.6,10.3,10.8c1.4,4.2,1.2,4.9-2.3,7.6c-1.2-3.4-2.3-6.6-3.4-9.9c-0.2,0.1-0.4,0.1-0.6,0.2c0.3,0.7,0.5,1.3,0.8,2
		c0.6,1.6,1.2,3.2,1.7,4.9c1.1,4,1,4.3-2.8,5.9c-2.3,1-4.9,1.5-7.3,2.1c-0.5,0.1-1.2-0.1-1.7-0.4c-5.6-3.5-8.2-10.9-6.2-17.2
		C231.7,54,236.2,51.6,241.7,53.4z M190.5,52.1c-0.2-2.6,0.7-4.8,2.4-6.7c0.4-0.5,0.8-1.3,0.8-2c-0.1-3.2,1-5.8,3.3-8
		c1.4-1.4,2.9-2.7,4.2-4.1c1.2-1.3,2.1-2.9,1.8-5.3c-2.1,0.5-4.1,0.9-6,1.5c-0.3,0.1-0.7,1.2-0.5,1.5c0.7,1.3,1.5,2.5,2.6,4
		c-0.8-0.2-1.4-0.4-2.2-0.6c0.3,0.4,0.6,0.8,1,1.4c-0.6,0.4-1.2,0.9-2.1,1.5c0.1-1,0.2-2,0.2-2.9c0-1.1,0.1-2.2-0.3-3.2
		c-0.8-2.4,0.1-4.1,2.6-4.4c10-1.1,20-0.6,29.8,2.1c0.3,0.1,0.7,0.1,1.3,0.2c-0.2-1.5-0.3-2.8-0.5-4.2c-0.2-1.1-0.8-1.6-1.9-1.8
		c-1.3-0.1-1.2,0.8-1.5,1.5c-0.1,0.3-0.2,0.5-0.4,0.8c-9.2-1.7-18.4-2.4-28-0.8c2-4.8,5.3-7.7,9.9-9c5.3-1.4,10.5-1.1,15.6,1
		c5.8,2.4,8.8,6.9,9.5,13c0.1,0.6,0.1,1.3,0.5,1.6c3.8,3.6,3.9,5,1,8.8c3.6,3.3,4.6,6.2,3.2,9.9c-0.5,1.3-1,2.6-2.9,2.9
		c0.3-1.4,0.8-2.6,0.9-3.8c0.2-2.8-0.7-5.3-2.9-7.2c-1.1-0.9-2.3-1.7-3.4-2.6c-2.9-2.2-2.9-5.1-0.1-7.3c0.3-0.2,0.5-0.4,1-0.8
		c-1.7,0.4-3,1.5-3.4,3c-0.4,1.7-0.4,3.4,1,4.6c1.4,1.2,2.9,2.1,4.2,3.3c2.7,2.2,3.7,5.9,2.4,9c-0.2,0.5-1,1-1.5,1.1
		c-2.2,0-3.6,1.1-4.6,2.9c-0.8,1.4-1.5,2.8-2.5,4.1c-2.4,3.3-5.9,4.1-10.2,2.6c-3.7-1.3-5.2-3.7-5.4-7.9c0-1.5-0.7-3.2-1.6-4.3
		c-2.3-3-6-2.5-7.7,0.8c-1.5,2.8-1.4,5.6-0.1,8.4c0.2,0.5,0.5,0.9,0.8,1.4C196.2,60.9,190.9,57.6,190.5,52.1z M195.2,107.7
		c-0.4-3.3-0.7-6.4-1-9.5c2.5-0.4,5.3,0.9,5.7,2.5C200.9,105.3,200.5,106,195.2,107.7z M195.1,96.7c0.3-2.2,0.6-4.3,0.9-6.6
		c0.2,2.3,0.4,4.6,0.6,7C195.9,96.9,195.4,96.8,195.1,96.7z M216.1,96.2c-1.6,1.6-3.1,3-4.6,4.5c-0.5,0.2-0.9,0.4-1.3,0.6
		c-1.7-1.6-3.4-3.2-5.4-5C208.8,95.4,212.3,95.6,216.1,96.2z M205.5,86.3c0-0.3,0.4-0.9,0.7-0.9c1.3-0.2,2.6-0.3,4.1-0.5v9.9
		c-1.4,0.1-2.8,0.3-4.5,0.4C205.8,92.2,205.6,89.3,205.5,86.3z M217,85.5c2,0.4,3.6,0.6,5.4,1c-0.2,3.9-0.4,7.6-0.6,11.5
		c-3,0.2-4.8-1.4-4.7-4.1C217,91.2,217,88.5,217,85.5z M222.9,96.6l0.3-0.7c3.2,0.4,6.4,0.8,9.7,1.3c-1.2,1.3-2.1,2.3-3,3.2
		c1-0.6,2.1-1.3,3.5-2.1c-0.4,2.9-0.8,5.5-1.3,8c-0.1,0.3-0.9,0.8-1.3,0.8c-2.3-0.2-4.6-0.4-6.9-0.7c-0.4-0.1-1-0.6-1-1
		c-0.2-2.7-0.4-5.4-0.5-8.1c0.1,0,0.3-0.1,0.4-0.1c1.3,1.5,2.6,3,4,4.4c0.3,0.4,0.7,1.4,1.4,0.2C226.3,100,224.6,98.3,222.9,96.6z
		 M222.9,95.5v-8.6c0.3,0,0.4-0.1,0.4-0.1c3.5,0.8,3.5,0.8,3.2,4.4c-0.1,1.3-0.3,2.7-0.4,4.1C224.9,95.4,223.9,95.4,222.9,95.5z
		 M230.4,92.2c-0.2,1.2-0.4,2.4-0.6,3.7c-1-0.1-1.9-0.3-3-0.4c0.2-2.4,0.4-4.7,0.6-7.1c0.3,0,0.5,0,0.6,0
		C230.8,89.4,230.8,89.4,230.4,92.2z M231.3,90.1c2.3,0.3,2.6,0.6,2.4,2.7c-0.1,1.2-0.4,2.4-0.6,3.9c-1-0.3-1.7-0.5-2.5-0.7
		C230.8,94,231.1,92.1,231.3,90.1z M221.9,104.5c-0.9-0.1-1.7-0.1-2.7-0.2c0.1-1.9,0.2-3.7,0.3-5.7c0.7,0.1,1.3,0.2,2.1,0.3
		C221.6,100.7,221.8,102.5,221.9,104.5z M217.3,105.8v-8.7C219.2,99.3,218.9,104.7,217.3,105.8z M218.9,105.4
		c0.8-0.4,2.1,0.1,3.1,0.5c0.6,0.2,1.1,1,1.8,1.1c2.3,0.3,4.6,0.6,6.9,0.7c0.8,0,1.6-0.5,2.8-1c0.1,2,0.3,4.2,0.3,6.3
		c0,0.4-0.7,1.1-1.2,1.1c-6.2,0.9-6.3,0.9-10.9,3.9c-0.1-0.1-0.2-0.1-0.2-0.2c0.1-3.1-2.3-3.5-4.5-3.9c-3-0.6-3-0.6-3-3.7
		c0-0.8,0-1.5,0.4-1.9C216,107.3,217.3,106.1,218.9,105.4z M219.1,152.8c0.6,4.5,1.5,8.9,3.5,13c0.6,1.3,1,2.7,1.3,4.1
		c0.5,2.4-0.5,3.8-3,4.3c-1.9,0.4-3.8,0.7-5.9,1.1c-0.5-0.8-1.3-1.8-1.5-2.8c-0.2-1.6-0.2-3.3,0.1-4.8c0.5-2.4,1.5-4.8,1.9-7.2
		c0.3-2.3,0.1-4.6-0.1-6.9c-0.1-0.6-0.7-1.5-1.3-1.7c-2.2-0.9-2.3-3.2-3.2-4.9c-0.1-0.3,0.1-0.8,0.3-1.2c3.1-7.4,3.2-7.6,3.1-15.1
		c2.2-1.2,4.2-2.4,6-3.5c-1.6,5-0.9,10.3,0.9,15.6c0.2,0.6,0.4,1.2,0.7,1.8c1.2,2.9,1.1,3.7-1.6,5.6
		C219.2,150.9,218.9,151.6,219.1,152.8z M214.6,128.9c-3.7,0.4-6.4-0.9-7.6-4.2c-0.9-2.4-1.1-5.1-1.5-7.6c-0.1-0.4,0.5-1.2,0.9-1.4
		c4.3-1.9,8.6-1.8,13-0.2c0.4,0.2,0.9,0.8,1,1.2c0.2,0.9,0.3,1.9,0.4,3c-0.2,1.1-0.2,2.5-0.5,3.7
		C219.7,126.6,217.6,128.6,214.6,128.9z M204.8,118.2c-2.2-1-4.3-1.9-6.5-2.9c-0.4-0.2-0.9-0.6-0.9-1c-0.1-2-0.2-4.1-0.2-6.2
		c0-0.2,0.3-0.6,0.5-0.7c2.4-0.8,4.4-3,7.4-2.2c0.7,1.5,0.7,1.5,4.3,2.6c0,1.6,0.1,3.3,0,5c0,0.4-0.5,0.8-0.8,1.1
		c-0.1,0.1-0.3,0.1-0.5,0.1C206,114.9,204,115.6,204.8,118.2z M209.8,108h3.5c0.1,1.8,0.2,3.6,0.4,5.4c-1.1,0.1-2.1,0.2-3.5,0.3
		C210,111.8,209.9,110,209.8,108z M216.2,106.1c-0.1,0.4-0.8,0.9-1.3,0.9c-2.5,0-5.1-0.1-7.6-0.3c-0.4,0-1-0.5-1.1-0.9
		c-0.6-2.8-1.2-5.6-1.8-8.5c0.2-0.1,0.3-0.1,0.5-0.2c1.6,1.7,3.3,3.5,5.1,5.4c0.6-0.8,1.1-1.3,1.5-1.8c1.6-1.2,3.1-2.4,4.8-3.7
		C217.1,100.1,216.8,103.1,216.2,106.1z M216.4,95.3c-1.7-0.2-3.3-0.3-5.2-0.5V85c1.6,0.1,3.4,0.2,5.2,0.4V95.3z M204.7,95.5
		c-0.3,0.7-0.7,1.5-1.2,2.5c-0.3,0-1,0.1-1.9,0.2c-0.3-3.4-0.5-6.8-0.7-10.2c0-0.4,0.5-1,0.9-1.2c0.9-0.5,1.8-0.7,2.9-1.1
		c0.1,3,0.3,5.8,0.4,8.5C205.2,94.7,204.9,95.1,204.7,95.5z M204,98.6c0.3,1.9,0.6,3.8,1,5.8c-1.3,0.1-2.6,0.3-3.9,0.4
		c-0.2-1.8-0.4-3.6-0.6-5.6C201.5,99.1,202.6,98.9,204,98.6z M197.5,96.1c-0.2-1.4-0.2-2.8-0.4-4.2c-0.3-2.4,0.6-3.4,3.3-4
		c0.2,3.5,0.4,7,0.6,10.4C198.4,98.7,197.7,98.3,197.5,96.1z M198.1,118.9c2.2,1.1,4.4,2.1,6.5,3.2c0.5,0.3,1,0.9,1.2,1.4
		c1.1,3.5,3.3,5.7,7.2,6.1c0.8,3.8,0.5,7.5-0.8,11.1c-0.6,1.6-1.3,3.2-2,4.8c-0.2,0.4-0.8,0.8-1.2,0.7c-0.4,0-1.1-0.4-1.2-0.8
		c-0.5-3.1-2.9-3.2-5.7-3.3c-0.2-4.2-0.4-8.4-0.6-12.6c0,0-0.1,0-0.1,0c0,3.4-0.1,6.8,0,10.2c0.1,1.5,0.5,2.9-1.6,3.4
		c-0.6,0.1-1,1-1.5,1.5C194.2,139.2,194,127.3,198.1,118.9z M210.8,185.1c-7.3,2-15.1,2.8-23.1,0.8c-1.2-0.3-1.5-0.8-1.6-1.9
		c-0.4-5.3,2.4-8.9,7.6-9.6c1.1-0.2,2.1-0.2,3.2-0.4c2.2-0.3,3.3-1.7,2.8-3.9c-0.6-2.5-1.3-5-2.3-7.3c-1.4-3.2-2.1-6.6-2-10.1
		c0-0.7,0.4-1.4,0.8-2.1c0.9-1.8,2.1-3.6,2.9-5.5c0.8-2,2.4-2.1,3.9-2.1c1.5,0,3.2,0,3.8,2.1c0.9,3.3,3.5,5.3,6.1,7.1
		c0.7,0.5,1.5,1.5,1.5,2.3c0,2.9-0.2,5.8-0.6,8.6c-0.2,1.4-0.9,2.7-1.3,4.1c-0.6,2.4-1.2,4.7,0.6,7c0.9,1.1,0.8,2.3-0.2,3.8
		C211.9,180,211.6,182.4,210.8,185.1z M239.3,151.5c1.4,0.5,1.8,1.4,1.9,2.8c0.1,2.9-0.2,5.7-1.3,8.4c-0.7,1.7-1.1,3.5-1.5,5.3
		c-0.4,1.9-0.4,3.9,1.2,5.5c0.2,0.2,0.4,0.6,0.5,0.9c1.9,3.8,1.5,5.2-2,7.5c-5.1,3.3-10.8,4.1-16.8,4.4c-2.7-0.3-5.3-0.5-8-0.9
		c-0.5-0.1-1.1-0.8-1.2-1.3c-0.6-4.8,2-8.1,6.8-8.6c0.8-0.1,1.7-0.2,2.5-0.4c2.6-0.6,4-2.6,3.4-5.1c-0.5-2-1.3-3.9-1.9-5.9
		c-1-3.8-2-7.6-2.9-11.4c-0.1-0.5,0.3-1.4,0.8-1.7c2.1-1.6,3.1-3.6,3.3-6.3c0-0.6,0.7-1.4,1.2-1.6c1.3-0.4,2.7-0.5,4-0.5
		c1.5,0,2.6,0.6,3.1,2.3C233.5,148.3,236.1,150.3,239.3,151.5z M235.8,117.9c2.7,5.1,3.8,10.6,3.2,16.4c-0.4,3.6-0.9,7.1-2.7,10.3
		c-0.4,0.6-1.1,1-1.7,1.5c-0.4-0.5-1.2-1-1.3-1.7c-0.6-2.8-2.9-2.3-5.1-2.9c-0.2-4-0.4-8.1-0.5-12.1l-0.2,0v12.2c-1,1-4.1,0-3.8,3.1
		c-0.2,0-0.4,0.1-0.5,0.1c-0.7-2.6-1.7-5.1-2-7.7c-0.3-2.7-0.3-5.5,0-8.1c0.3-3.6,2.7-6.1,5.4-8.1c2.3-1.7,5-2.7,7.5-4
		C234.9,116.4,235.4,117.1,235.8,117.9z M233,105.8c0.3-2.1,0.5-3.8,0.8-5.8C234.7,102.2,234.4,104.5,233,105.8z M239.5,84.3
		c-1.2,2.3-2.5,4.5-3.8,6.8c-5.5-3-10.9-5-16.6-6.1c-6.9-1.3-13.7-1.5-20.1,2.4c-0.8,0.5-1.6,1-2.6,1.7c-3.4-3.5-4.4-7.6-3.4-12
		c3.1,0,6,0,9,0c1.2,0,1.8-0.5,2.2-1.8c0.7-2.2,1.8-4.3,2.8-6.7c2.5,2.1,4.1,4.3,5.1,6.9c0.4,1,0.9,1.4,2,1.4
		c4.3-0.2,8.5-0.3,12.8-0.4c0.4,0,0.8-0.2,1.2-0.8c-2,0.2-3.9,0.4-5.9,0.5c-2.6,0.1-5.2,0.1-7.8-0.1c-0.6,0-1.4-0.7-1.6-1.2
		c-1.2-2.7-3-5-5.4-7c-2.3,2.4-3.5,5.2-4.2,8.3c-3.5,0.6-6.9,0.9-10.2-0.2c-0.7-0.2-1.6-1-1.7-1.7c-1.3-5.1,0-9.8,2.9-14.1
		c0.2-0.3,0.9-0.5,1.3-0.5c0.7,0,1.4,0.3,2.1,0.2c2.2-0.2,4.3-0.8,6.6,0.6c1.3,0.8,2.9-0.3,3.9-1.4c0.5-0.6,0.9-1.4,1.5-2.2
		c1.5,2.5,3.8,3.7,6.5,4.3c4.1,0.9,7.4-0.3,9.8-3.8c1-1.4,1.7-3,2.7-4.4c1.5-2.3,4.4-2.4,6.3-0.2c-4,1.8-5.6,5.3-6.1,9.4
		c-0.5,4.4,0.7,8.4,3.5,11.8c0.6,0.7,0.9,1.7,1,2.5c0.5,2.9,1,5.7,2.8,8.6c1-1.5,1.8-2.7,2.6-3.9C239.9,82,240.2,83,239.5,84.3z
		 M239.5,80.5c-0.4-0.8-0.8-1.7-1.3-2.8c5.8-0.7,10.3-3.1,13.9-7.3c2,2.6,2.6,5.5,2.6,8.5c0,0.4-0.6,1-1.1,1.1
		c-3.5,0.9-7,1.6-10.6,2.5C241.3,82.8,240.2,82.1,239.5,80.5z M254,107.4c-1.5,0.2-1.6,1.2-1.4,2.3c0.4,1.9,0.8,3.8,1.2,5.8
		c-3.2,0.9-6.5,1-9.7-0.1c-0.5-0.2-1.2-1-1.2-1.5c0.1-1.6,0.2-3.4,0.8-4.9c1.1-2.4,0.6-4.6-0.2-6.9c-0.8-2.1-1.8-4.1-2.1-6.2
		c-0.3-2.2-0.1-4.6,0.1-6.9c0.1-2.2,1.4-3.4,3.6-3.9c-0.4,4.6-0.6,9.2,0.8,13.7c0-0.8-0.1-1.6-0.1-2.3c-0.1-3.6-0.1-7.1-0.1-10.7
		c0-0.6,0.8-1.5,1.3-1.6c2.3-0.4,4.6-0.7,6.8-0.9c1.1-0.1,1.7,0.5,2.1,1.5c1.6,3.9,1.9,7.8,0.9,11.9c-0.8,3.2-1.3,6.5-2,9.8
		C254.7,106.9,254.3,107.4,254,107.4z"/>
	<path d="M207.4,26.3c5.4-0.4,10.6-0.2,15.6,1.6c-0.4,3-2.4,4.9-5.2,5.3C213.3,33.7,209,31,207.4,26.3z"/>
	<path d="M215,57.1c-1.6,0-3-1.3-3-2.9c0-1.6,1.3-3,2.9-3c1.6,0,3,1.3,3,2.9C218,55.6,216.6,57.1,215,57.1z"/>
	<path d="M220.9,37.3c-0.2-0.7-0.4-1.3-0.6-1.9c-7.2,0.5-11.2-1.3-12.8-5.9c2.1,3.3,5,5.3,9,5.6c3.7,0.3,5.6-1.1,8-5.9
		C225.6,32.7,224.3,35.9,220.9,37.3z"/>
	<path d="M197.6,53.3c0,1.4-1.2,2.7-2.7,2.8c-1.5,0.1-2.8-1.1-2.8-2.6c-0.1-1.6,1.2-2.9,2.7-2.9C196.3,50.6,197.6,51.9,197.6,53.3z"
		/>
	<path d="M234.1,33.7c-0.2,1.3-0.9,2.2-2.3,2.2c-1.3,0-2.2-0.9-2.2-2.3c0-1.4,0.9-2.3,2.2-2.2C233.2,31.4,234,32.3,234.1,33.7z"/>
	<path d="M204.2,37.1c1.8,0.3,1.9,1.5,1.8,2.9C204.2,39.8,203.6,38.9,204.2,37.1z"/>
	<path d="M206.9,38.6c1.6,0.4,2,1.3,1.6,2.8C206.7,41.2,206.7,40,206.9,38.6z"/>
	<path d="M219.9,43.8c1.4-1,1.4-1,2.7,0.9C221.5,46,221.5,46,219.9,43.8z"/>
	<path d="M223.2,41.6c0.5,0.8,0.9,1.3,1.3,1.8c-1.6,1.8-1.8-0.1-2.7-0.8C222.3,42.3,222.7,42,223.2,41.6z"/>
	<path d="M225.2,43.1c-0.5-0.6-0.8-1.1-1.2-1.6c1.2-1.1,1.2-1.1,2.3,0.7c-0.1,0.1-0.2,0.3-0.3,0.4C225.9,42.9,225.6,43,225.2,43.1z"
		/>
	<path d="M201.8,37.3c-0.3,0.8-0.7,1.6-1,2.4c-0.3-0.1-0.6-0.3-0.9-0.4c0.3-0.8,0.7-1.7,1-2.5C201.2,37.1,201.5,37.2,201.8,37.3z"/>
	<path d="M210.1,42.6c-0.3-0.7-0.7-1.5-1-2.2c0.3-0.1,0.5-0.3,0.8-0.4c0.4,0.7,0.8,1.4,1.2,2.1C210.7,42.3,210.4,42.4,210.1,42.6z"
		/>
	<path d="M199.5,38.9c-0.3,0.7-0.5,1.4-0.8,2.1c-0.2-0.1-0.5-0.2-0.7-0.3c0.2-0.7,0.5-1.4,0.7-2.1C199,38.7,199.2,38.8,199.5,38.9z"
		/>
	<path d="M226.3,40.1c0.4,0.2,1,0.3,1.3,0.6c0.2,0.2,0,0.7,0,1.1c-0.6-0.4-1.1-0.7-1.7-1.1C226.1,40.5,226.2,40.3,226.3,40.1z"/>
	<path d="M212.4,43.2c-0.4-0.5-0.7-1-1.1-1.5c0.2-0.2,0.4-0.3,0.6-0.5c0.4,0.5,0.8,1,1.1,1.5C212.8,42.9,212.6,43.1,212.4,43.2z"/>
	<path d="M204,30.1c-0.5,0.9-0.9,1.9-1.4,2.8c-0.1-0.1-0.2-0.1-0.3-0.2c0.4-1,0.9-1.9,1.3-2.9C203.7,30,203.8,30,204,30.1z"/>
	<path d="M228.9,41.3c-0.3-0.5-0.6-1-0.9-1.6c0.1-0.1,0.2-0.2,0.2-0.3c0.5,0.4,0.9,0.7,1.4,1.1C229.4,40.7,229.1,41,228.9,41.3z"/>
	<path d="M197.4,40.2c-0.1,0.5-0.2,1-0.3,1.4c-0.2,0-0.4-0.1-0.6-0.1c0.1-0.5,0.2-1,0.2-1.4C197,40.1,197.2,40.1,197.4,40.2z"/>
	<path d="M214.9,43.6c-0.5-0.2-0.9-0.5-1.4-0.7c0.1-0.2,0.2-0.3,0.3-0.5c0.4,0.3,0.9,0.5,1.3,0.8C215,43.4,215,43.5,214.9,43.6z"/>
	<path d="M195.3,41.9c-0.1-0.2-0.3-0.3-0.2-0.4c0-0.1,0.2-0.2,0.3-0.3c0.1,0.1,0.2,0.3,0.3,0.4C195.6,41.7,195.5,41.8,195.3,41.9z"
		/>
	<path d="M229.3,167.7c-0.4-3.1-0.7-6.2-1.1-9.3c0.2,0,0.4,0,0.6-0.1c0.4,3.1,0.8,6.2,1.1,9.3C229.7,167.6,229.5,167.6,229.3,167.7z
		"/>
	<path d="M203.1,167.9c-0.4-3.1-0.8-6.3-1.2-9.4c0.2,0,0.4,0,0.6-0.1c0.4,3.1,0.8,6.3,1.2,9.4C203.5,167.8,203.3,167.9,203.1,167.9z
		"/>
	<path d="M228,101.8c0.6-0.5,1.2-1,1.8-1.5C229.2,100.8,228.6,101.3,228,101.8z"/>
</g>
<g>
	<path d="M144.1,43.7c-1.5-1.3-2.8-2.8-5.1-2.6c-0.3,0-0.6-0.1-1-0.2c-1.5-0.3-3-0.6-4.5-0.9c-3.4-0.6-6.8-1.1-10.2-1.7
		c-1.6-0.3-3.2-0.6-4.9-0.9c-0.4-0.1-1,0.2-1.3,0c-0.9-0.6-1.9-0.5-2.9-0.7c-2.3-0.5-2.3-0.5-4.3,0.2c-0.1,0-0.2-0.1-0.2-0.1
		c-0.6-1.1-1.7-1.4-2.8-1.6c-2.8-0.4-5.6-0.9-8.5-1.3c-1.3-0.2-2.5-0.2-3.6,0.4c-0.2,0.1-0.5,0.2-0.7,0.1c-0.7-0.6-1.8-0.4-2.2-1.5
		c-0.1-0.2-0.6-0.4-0.9-0.5c-1-0.2-2.1-0.3-3.1-0.4c-0.3,0-0.6,0.1-0.9,0.2c-0.3-0.2-0.6-0.4-0.9-0.5c-1.2-0.3-2.3-0.6-3.5-0.8
		c-2.4-0.4-4.8-0.7-7.2-1.1c-1.7-0.2-3.3-0.5-5-0.7c-1-0.1-2.1-0.2-3.1-0.3c-1.4-0.1-2.7-0.4-4.1-0.5c-1-0.1-2.1,0-3.1,0.1
		c-0.8,0.1-1.4,0.6-1.7,1.4c-0.1,0.4-0.3,0.8-0.4,1.2c-0.1,0.6,0.1,1,0.7,1.2c0.3,0.1,0.6,0.1,1,0.1c0.4,0.1,0.8,0.1,1.2,0.2
		c0.1,0.7,0.1,1.4,0.4,1.9c0.3,0.4,0.9,0.6,1.5,1c-0.5,0.2-0.9,0.4-1.4,0.6c-1,0.3-1.7,0.9-2.3,1.7c-0.7,1-1.5,2-2.2,3
		c-1.3,2-2.7,4-4,6.1c1.4,0.5,2.9,1.2,4.2,2.2c1.1-0.1,2.2-0.1,3.3,0.4c-0.6,0-1.2-0.1-1.9-0.1c-0.4,0-0.8-0.1-1.3-0.1
		c0.2,0.2,0.5,0.4,0.7,0.6c0.7-0.1,1.4,0,2.3,0.4c-0.6,0.3-1.1,0.2-1.7,0.1c0.2,0.2,0.3,0.3,0.5,0.5c0.1,0,0.1,0,0.2,0
		c0,0-0.1,0-0.1,0.1c0.8,1,1.4,2.2,1.5,3.5c0.1,0,0.3,0,0.4,0.1c1.2,0.2,2.3,0.1,3.4-0.6c0.9-0.6,1.3-1.1,1.2-2.1
		c-0.1-1.5,0.4-2.9,0.8-4.2c0.1-0.2,0.3-0.5,0.5-0.8c1.8,1.2,3.7,1.7,5.6,2.2c1,0.3,1,0.3,1.1,1.3c0.2,1.6,0.4,3.1,0.6,4.7
		c0.1,0.3,0.3,0.7,0.5,0.9c0.6,0.3,0.8,0.7,0.9,1.2c0.2,0.8,0.7,1.3,1.6,1.5c1.6,0.4,3.3,0.9,4.9,1.4c1.5,0.4,2.9,0.2,3.9-1.2
		c0.1-0.1,0.2-0.2,0.4-0.4c0.5,0.1,1,0.2,1.5,0.3c0.6,0.1,1,0.4,1.1,1.1c0.2,0.9,0.9,1.4,1.7,1.8c0.4,0.2,0.7,0.3,1.1,0.4
		c0.6,0.1,1.2,0.3,1.7,0.4c0.1-0.3,0.1-0.6,0.2-0.9c0-0.1,0.1-0.3,0.1-0.4c-0.1-0.4-0.1-0.9,0.1-1.3c-1.1-0.3-2.2-0.6-3.3-0.8
		c-0.4-1.1-0.3-2.1,0.4-3.3c1.4,0.4,2.7,0.8,4,1.2c0.9-2.5,2.6-4.7,5-6.2c0.4-0.3,0.9-0.3,1.3-0.3c0.1-0.2,0.2-0.4,0.4-0.7
		c-0.2-0.1-0.4-0.2-0.7-0.3c0.3-0.5,0.5-0.8,0.7-1.1c-0.2-0.3-0.4-0.5-0.6-0.7c0.5-0.4,0.9-0.1,1.3,0c0.8,0.1,1.5,0.2,2.3,0.3
		c0.8,0.1,1.5,0,2.2-0.5c0.1-0.1,0.3-0.1,0.6-0.2c0.1,0.4,0.2,0.7,0.2,0.9c0.1,0.2,0.1,0.5,0.3,0.6c0.7,0.5,1,1.3,1.2,2
		c0.6,1.8,0.7,3.6,0.6,5.5c0,0.6-0.3,1.2-0.7,1.6c-0.4,0.5-0.9,0.8-1.7,0.6c-0.9-0.2-1.8-0.4-2.7-0.5c-1.1-0.2-2-0.7-2.7-1.4
		c-0.2,0.5-0.4,0.9-0.8,1.5c0,0,0,0,0,0.1c0.1,0.1,0.1,0.3,0.2,0.4c0.1,0.1,0.3,0.1,0.4,0.3c-0.2,0.8-0.3,1.7-0.5,2.6
		c-0.4,0-0.7,0.1-0.9,0.1c-0.5,0.7-1,1.4-1.6,2c0.2,0,0.5,0.1,0.7,0.2c1.1,0.2,2.2,0.4,2.9-0.7c0.6,0,1.2,0.3,1.7-0.1
		c0.1-0.1,0.2,0,0.3,0c1.7,0.4,3.5,0.5,5.1,1.3c0.7,0.4,1.4,0.8,2.2,1c1.8,0.6,3.6,1,5.3,1.6c1.4,0.5,2.6,0.2,3.7-0.6
		c0.2-0.1,0.5-0.3,0.8-0.3c0.6,0,1.3,0.1,1.9,0.3c0.6,0.2,1.2-0.3,1.9,0c0.2,0.1,0.7,0,0.9-0.1c0.4-0.5,0.8-1,0.7-1.7
		c-0.1-0.8-0.2-1-1-1.2c-0.2-0.1-0.5-0.1-0.6-0.3c-0.2-0.5-0.7-0.6-1.2-0.7c-1.2-0.2-2.3-0.5-3.2-1.4c-0.4-0.5-0.8-0.9-0.9-1.5
		c-0.3-1.4-0.4-2.9-0.3-4.3c0-0.4-0.2-0.8,0.3-1.2c2.7,0.4,5.4,0.8,8.1,1.2c2.5,0.4,4.9,0.7,7.4,1.1c0.7,0.1,1.5,0.1,1.9-0.4
		c0.7-0.7,1.3-0.6,2.1-0.4c0.8,0.2,1.7,0.2,2.4-0.4c0.5-0.5,1.1-0.8,1.7-1c0.8-0.2,1.4-0.8,1.7-1.6
		C146.6,49.9,146.8,46.1,144.1,43.7z M105.4,61.5c0,0.1-0.1,0.3-0.2,0.6c-0.5-0.1-0.8-0.2-1.2-0.3c-0.5-0.1-1-0.2-1.1-0.8
		c-0.1-0.7-0.2-1.4,0.4-1.9c0.3-0.3,0.6-0.5,1-0.4c0.4,0.1,0.9,0.2,1.4,0.2c-0.1,0.4-0.2,0.7-0.3,1
		C105.4,60.4,105.1,60.9,105.4,61.5z M109.4,62.9c-0.8-0.2-1.7-0.3-2.5-0.5c-0.6-0.2-0.7-0.8-0.7-1.3c0-0.4,0-0.8-0.6-0.9
		c1.5-1.4,2.9-0.8,4.4-0.4C109.8,60.8,109.6,61.8,109.4,62.9z M125.4,63.8c-0.1,0.4-0.2,0.8-0.3,1.2
		C124.3,64.5,124.3,64.2,125.4,63.8z M100.1,34.8c-1.2,0.4-1.6,1.6-2.8,1.4c-0.8-0.1-1.7,0.1-2.4-0.5C96.3,34.1,98,34.3,100.1,34.8z
		 M92.8,35.4c0.3-0.1,0.6-0.1,1.1-0.2c-0.2,0.3-0.2,0.6-0.3,0.6c-0.2,0.1-0.4,0.1-0.7,0.1c-0.1,0-0.2-0.2-0.2-0.3
		C92.7,35.6,92.8,35.4,92.8,35.4z M91.7,37c0.1-0.3,0.3-0.3,1.2,0c0.2,0.5-0.1,1-0.3,1.4c-0.1,0.1-0.4,0.2-0.6,0.2
		c-0.2,0-0.5-0.3-0.5-0.4C91.5,37.8,91.5,37.3,91.7,37z M89.4,38.3c-0.3-0.3-0.5-0.6-0.2-1c0.3-0.4,0.6-0.3,1-0.2
		c0.3,0.1,0.5,0.2,0.9,0.3c-0.2,0.3-0.3,0.5-0.5,0.6C90.2,38.2,89.8,38.2,89.4,38.3z M89.5,39.2c-0.5-0.4-0.3-0.6,0-0.8
		C89.4,38.6,89.5,38.8,89.5,39.2z M89.7,36.6c0.1-0.2,0.3-0.5,0.5-0.9C90.3,36.2,90.1,36.5,89.7,36.6z M88.7,32.9
		c0.4-0.2,1.1,0,1.7,0.1c0,0.1,0,0.2,0,0.3c-1.1,0.3-1.6,1.2-2.2,2.1c-0.3,0.5-0.7,1-1.1,1.4c-0.1,0.2-0.5,0.2-0.8,0.2
		c0-0.8,0-1.5-0.1-2.3C86.8,33.9,87.8,33.4,88.7,32.9z M77.8,31.9c0.7-0.5,1.4-0.8,2.3-0.7c1.5,0.3,3.1,0.4,5,0.6
		c-1.8,1-2.6,2.3-2.7,4.1c-2-0.3-3.8-0.5-5.7-0.8C76.3,33.8,76.7,32.7,77.8,31.9z M87.3,45.2c-0.3,0.5-0.2,0.9-0.2,1.4
		c0.1,0.5,0.3,1.1-0.1,1.7c-0.5-1-0.1-2.2-0.8-3c-0.1-0.1-0.3-0.2-0.5-0.4c-0.7,1-0.1,1.9-0.2,2.8c-0.5-0.7-0.5-1.5-0.7-2.3
		c-0.2-0.7-0.2-0.7-0.9-0.8c-0.2-0.7-0.3-1.4-0.5-2.2c0.7-0.1,1.4,0,2,0.3c0.6,0.3,1.1,0.8,1.7,1.2C87.6,44.3,87.7,44.5,87.3,45.2z
		 M87.2,42.3c0.2,0.3,0.4,0.5,0.6,0.8C87.2,43.1,87.2,43.1,87.2,42.3z M83.9,47.4c-0.6-0.6-0.5-1.2-0.6-2
		C83.9,46.1,83.9,46.6,83.9,47.4z M80.9,41.6c-0.1,0.2-0.2,0.5-0.4,0.6c-0.2,0.1-0.4-0.1-0.7-0.1c-0.7,0-1.3-0.1-1.9-0.7
		c0.5-1,1.3-0.2,2.1-0.4c-0.4-0.4-0.8-0.7-1.2-1c0.1-0.1,0.2-0.1,0.3-0.1c2-0.8,2.9,0.6,3.5,1.8c0.3,0.8,0.7,1.5,0.5,2.4
		c-0.2,1.3-0.6,1.7-2,1.9C82.4,45,82.2,43,80.9,41.6z M74.2,40.7c-1.2-0.6-2.3-1.1-3.7-1.1c-0.1,0-0.3-0.1-0.4-0.2
		c-0.1,0-0.1-0.1-0.1-0.3c0.1-0.1,0.3-0.2,0.4-0.1c1,0.4,2.1,0.3,3,0.9c0.1,0,0.2,0.1,0.2,0.1c1.1-0.2,1.9,0.6,2.9,1
		c0.1-0.1,0.2-0.3,0.6-0.6c-0.7,2.8,0.6,4.5,2.4,6c-1.1,0.6-1.9,0.2-2.7-0.3c-0.2-0.1-0.3-0.4-0.3-0.6c0-0.3,0.1-0.6,0.1-0.8
		C76.6,42.9,75.8,41.5,74.2,40.7z M72.1,38.4c0.2-0.5,0.5-1.1,0.7-1.7c1-0.7,2.1-0.2,3.2-0.2c0.2,0,0.4,0.1,0.6,0.1
		c0.4,0.1,0.9-0.2,1.1,0.3c0.2,0.6,0.3,1.2,0.3,1.8c0,0.4-0.5,0.7-1,0.6c-0.8-0.1-1.6-0.1-2.4-0.4C73.7,38.6,72.8,38.7,72.1,38.4z
		 M81.4,43.3c-1.4,0.4-2.8,0.1-3.6-0.8C78.5,42.3,79.6,42.6,81.4,43.3z M80.3,37.5c0.7,0.2,1.5,0.4,2.3,0.6
		c-0.1,0.8-0.1,1.4-0.2,2.1c-0.5-0.4-0.8-0.6-1.1-0.9C80.5,38.7,80.5,38.7,80.3,37.5z M58.6,48.5c-0.7-0.2-1.6,0-2.3-0.6
		c0.6-0.2,3.8,0.2,5.1,0.6C60.4,49,59.4,48.8,58.6,48.5z M56.8,47.4c0.2-0.3,0.5-0.4,0.7-0.1C57.3,47.3,57,47.3,56.8,47.4z
		 M57.7,47.3c0.2,0,0.4,0,0.6,0l0,0.2C58,47.5,57.8,47.4,57.7,47.3z M56.4,46.5l0-0.3c1.7,0.2,3.4,0.4,5.2,0.6
		C59.8,47.1,58.1,47,56.4,46.5z M56.5,45.5c0.4-0.6,1-0.5,1.4-0.5c1.4,0.2,2.8,0.5,4.4,0.9C60.2,46.4,58.4,46.1,56.5,45.5z
		 M57.4,44.5c0.7-0.4,1.3,0,1.9,0.1c0.6,0.1,1.3-0.1,1.8,0.4C59.8,45.2,58.6,44.9,57.4,44.5z M61.2,45l1.5,0
		C62.1,45.2,61.6,45.4,61.2,45z M57.5,43.7c0.2-0.2,0.3-0.3,0.3-0.3c0.9,0.1,4.3,0.3,5.2,0.9C62,44.6,59.8,44.3,57.5,43.7z
		 M63.4,43.5c-1,0-2-0.1-3-0.2c-0.3,0-0.7-0.2-1-0.3c-0.3-0.1-0.6-0.3-1.2-0.5c0.8,0,1.4-0.1,1.9,0c0.6,0.1,1.2,0.2,1.7,0.3
		c0.6,0.1,1.3,0,1.9,0.5C63.6,43.4,63.5,43.5,63.4,43.5z M59.4,41.6c1.6-0.3,3,0.4,4.5,0.6C62.4,42.3,60.9,42.3,59.4,41.6z M60.2,40
		c0.8,0,1.6,0,2.3,0.1c0,0,0,0,0,0c0.2,0.1,0.4,0.3,0.7,0.3c0.4,0.1,0.7,0.1,1.1,0.3C62.8,41,61.5,40.7,60.2,40z M64.3,40
		c-0.6,0-1.2,0.1-1.8,0.1c-0.2-0.2-0.4-0.4-0.8-0.6c1,0.1,1.8,0.2,2.6,0.3C64.3,39.8,64.3,39.9,64.3,40z M63.5,37.6
		c-0.1,0-0.3-0.3-0.5-0.5c1-0.2,1.9-0.3,2.4-1.3c0.8,0.5,0.9,1.2,1.3,1.9C65.6,38.1,64.6,37.6,63.5,37.6z M67.7,36.4
		c0.2-0.4,0.3-0.9,0.6-1.5c-0.4,0.2-0.6,0.4-0.8,0.5c-0.5-1.1-1.7-1.9-1.9-3.2c-0.1,0.3-0.2,0.5-0.3,0.8c-1.1-0.3-2.1-0.6-3.2-0.9
		c-1-0.2-2.1-0.3-3.2-0.4c-0.1-1.8,0.7-2.7,2.3-2.7c0.8,0,1.6,0.1,2.4,0.2c0.9,0.1,1.7,0.2,2.7,0.4c-0.4,0.9-1.1,1.6-0.8,2.7
		c0.3-0.7,0.3-1.5,0.9-2c0.3-0.2,0.6-0.5,0.9-0.5c1.5,0,3,0.2,4.4,0.6c0,0.1,0,0.1,0,0.2c-0.5,1.3-0.4,1.4,1,1.3
		c-0.3-0.1-0.6-0.2-0.9-0.4c0.2-0.6,0.6-1,1.1-0.9c1.3,0.1,2.7,0.3,4.1,0.6c-0.3,0.7-0.7,0.9-1.3,0.9c-1-0.1-2-0.1-3-0.2
		c0.8,0.1,1.5,0.2,2.3,0.4c0.3,0.1,0.7,0.1,1.1,0.2c-0.3,1-0.5,1.8-0.7,2.7c-0.9-0.2-1.8-0.3-2.7-0.5c-0.6-0.1-1.1-0.1-1.7-0.2
		c-0.6-0.1-0.8,0.2-0.9,0.7c-0.1,0.9-0.1,1.7-0.2,2.7c-0.8,0.3-1.5-0.1-2.2-0.5C67.6,37.1,67.6,36.8,67.7,36.4z M69,42.4
		c0,0,0-0.1,0.2-0.3c0.4,0.6,0.7,1,1,1.5c0.4,0.5,1.2,0.8,1.8,0.6c0.5-0.1,0.6-0.4,0.5-0.9c-0.1-0.5-0.1-1.1,0-1.7
		c0-0.3,0.3-0.6,0.7-0.5c1.6,0.1,2.8,1.7,2.4,3.2c-0.1,0.3-0.2,0.6-0.3,0.9c-0.4,0.8-0.7,1-1.6,0.8c-0.9-0.2-1.8-0.4-2.7-0.7
		c-1.2-0.5-2.1-1.4-2-2.8C68.9,42.6,68.9,42.5,69,42.4z M69.5,47.3c0.5-0.3,0.8-0.1,1,0C70.2,47.3,70,47.3,69.5,47.3z M70.7,47.3
		c0.3,0,0.6,0.1,1.1,0.1C71.1,47.6,71.1,47.6,70.7,47.3z M72.5,48v-0.3c1-0.3,2.2-0.1,3.1-0.7c0.4,0.3,0.8,0.7,0.4,1.2
		C74.8,48.2,73.7,48.1,72.5,48z M76.3,55c-0.1-0.5-0.2-1-0.3-1.5c-0.1-1.1-0.2-2.2-0.3-3.4c0-0.3,0.1-0.5,0.1-0.7
		c0.4-0.5,1.3,0,1.3-0.9c-0.3,0-0.5,0-0.7,0c0.1-0.1,0.1-0.3,0.1-0.3c0.5-0.2,0.9-0.4,1.5-0.7c0.1,0.1,0.4,0.2,0.7,0.3
		c0.7,0.3,1,0.7,1.1,1.5c0.1,0.8,0.1,1.6,0.2,2.5c-1.3-0.3-2.5-0.5-3.8-0.7c0,0.2,0,0.4,0,0.6c0.1,0.8,0.3,1.6,0.4,2.4
		c0.1,0.6,0.2,1.2,0.8,1.6C76.5,55.6,76.4,55.6,76.3,55z M79,56.2c-0.2-0.1-0.3-0.1-0.5-0.2c0-0.1,0-0.1,0.1-0.2
		c0.2,0.1,0.3,0.1,0.5,0.2C79,56.1,79,56.1,79,56.2z M77.8,54.9c-0.5-0.2-0.8-0.5-0.8-1.1c-0.1-0.7-0.2-1.5-0.3-2.4
		c1,0.2,1.8,0.3,2.6,0.5c0.4,0.1,0.6,0.4,0.7,0.8c0.1,0.9,0.2,1.8,0.3,2.9C79.3,55.4,78.6,55.1,77.8,54.9z M79.1,45.2l0.1-0.2
		c0.4,0.1,0.8,0.2,1.3,0.4C79.9,45.7,79.5,45.4,79.1,45.2z M78.6,43.7c0.9,0.2,1.8,0.4,2.9,0.6C80.5,44.7,80.4,44.7,78.6,43.7z
		 M81.5,50.3c-0.4-0.1-0.7-0.4-0.6-0.9c0-0.1,0.2-0.4,0.3-0.3c0.6,0.2,0.7-0.5,1.1-0.8c1.6,0.3,3.3,0.7,5,1
		c-0.1,0.9,0.8,0.6,1.2,0.9c0,0.4,0,0.8,0,1.4c-0.3,0.1-0.5,0.2-0.6,0.3c0,0.3,0,0.5,0,0.9c-1.7-0.2-3.1-0.8-4.5-1.6
		c-0.1,0.2-0.2,0.4-0.3,0.7c-0.1-0.1-0.2-0.2-0.2-0.3C82.5,50.9,82.1,50.5,81.5,50.3z M82.5,55.3c0-0.8,0.5-1.5,1.5-1.8
		c-0.6,1.3-0.5,2.4,0.1,3.5C82.8,56.7,82.5,56.3,82.5,55.3z M89,57.8c-1.4,0-2.8-0.5-4-1.1c-0.4-0.2-0.8-1.4-0.6-2
		c0.2-0.9,1.2-1.6,2.1-1.4c1.2,0.3,2.4,0.6,3.6,0.9C89.7,55.5,89.4,56.6,89,57.8z M92.1,53.4c1.4,0.3,2.9,0.6,4.2,1.1
		C95.2,54.7,92.9,54.1,92.1,53.4z M92.2,51.9c0.5-0.1,1-0.3,1.4,0.2C93.2,52,92.7,51.9,92.2,51.9z M93.8,52.1
		c0.9-0.1,1.8,0.2,2.6,0.6C95.5,52.8,94.6,52.6,93.8,52.1z M90.8,49.6c0.4,0,0.6,0,0.8,0c1.4,0.3,2.8,0.7,4.2,1
		c0.3,0.1,0.8,0.1,0.8,0.6C95.4,51.4,92.3,50.6,90.8,49.6z M96.1,47.6c-0.3,0-0.5,0.1-0.6,0.1c-0.9-0.2-1.9-0.4-2.8-0.7
		c-0.3-0.1-0.6-0.3-0.8-0.4C93,46.4,94.5,46.8,96.1,47.6z M93.2,45.7c0.4-0.3,0.6-0.1,0.7,0.2C93.7,45.9,93.5,45.8,93.2,45.7z
		 M96,49.1c0.1,0,0.2,0.1,0.5,0.4c-1.8-0.3-3.4-0.7-4.9-1.2c0-0.1,0.1-0.2,0.1-0.3C93.2,48.4,94.6,48.7,96,49.1z M103.2,46.6
		c-0.6-0.1-1.3-0.2-1.9-0.4c-1.1-0.3-2.3-0.3-3.4-0.5c-0.9-0.1-1.9-0.4-2.8-0.6c-0.7-0.2-1-0.8-1.4-1.6c0.5,0,0.7-0.1,0.9,0
		c1.1,0.1,2.2,0.3,3.3,0.4c1,0.1,2,0.2,3.1,0.3c0-0.3,0.2-0.6,0.1-0.9c-0.1-0.7-0.4-1.3-0.7-2.3c0,1,0.1,1.7,0.1,2.5
		c-0.8-0.2-1.1-1-0.8-2.4c-0.3,0.3-0.5,0.4-0.5,0.5c-0.1,0.3-0.1,0.7-0.2,1.1c-0.1-0.2-0.2-0.3-0.4-0.5c0,0.3-0.1,0.5-0.1,0.8
		c-0.2,0-0.3,0.1-0.5,0.1c-1.6-0.3-3.2-0.5-4.9-0.8c-0.3-0.1-0.7-0.1-1-0.2c-2.1-0.3-4.2-0.7-6.3-1c-0.5-0.1-0.8-0.4-0.8-0.9
		c0-0.5-0.1-0.9-0.2-1.5c0.4,0.1,0.7,0,0.9,0.2c0.5,0.4,1.1,0.5,1.7,0.6c1.6,0.3,3.2,0.7,4.8,1c0.4,0.1,0.7,0.1,1.1,0.1
		c1.7,0.3,3.5,0.6,5.3,0.9c-0.4-0.6-0.9-0.7-1.4-0.8c-1.2-0.2-2.5-0.4-3.7-0.5c-0.1,0-0.2-0.1-0.3-0.1c-0.1-1.6,0.2-2.7,1.2-3.9
		c1.3,0.2,2.6,0.4,3.9,0.6c0.9-0.6,1.7-1.1,2.6-1.6c0.2-0.1,0.5-0.3,0.8-0.3c1.7,0.2,3.3,0.5,5.2,0.8c-2.4,1-4.1,2.4-4.6,4.8
		c-0.5,2.4,0,4.5,2.3,6.2C103.8,46.7,103.5,46.7,103.2,46.6z M106.2,38.9c-0.1,0.2-0.2,0.4-0.4,0.5c-0.3,0.1-0.6-0.1-0.8-0.5
		c0.3-0.1,0.6-0.2,0.8-0.2C105.9,38.6,106.1,38.8,106.2,38.9z M103.6,42c0.8-0.6,1.1-0.6,1.9,0.1C104.8,42.7,104.2,42.3,103.6,42z
		 M105.5,42.1c0.4-0.3,0.9-0.3,1.3,0c0.1,0.1,0.2,0.4,0.3,0.7C106.4,42.6,105.8,42.8,105.5,42.1z M107.3,45.5
		c-0.3,0-0.6-0.1-0.9-0.1c0-0.1,0-0.2,0-0.2c0.3,0,0.6,0.1,0.9,0.1C107.4,45.3,107.4,45.4,107.3,45.5z M106.6,39.3
		c0.4-0.5,0.7-0.6,1.4-0.3c0.2,0.1,0.2,0.1,0.2,0.8C107.5,39.6,107,39.7,106.6,39.3z M110.7,47.7c-1.6-0.5-2.3-1.7-2.6-3.4
		c-0.5-2.1,0.2-3.7,1.4-5.3c0.3-0.4,0.8-0.7,1.3-1.1c0.2-0.2,0.5-0.2,0.7-0.4c0.9-0.8,1.7-0.6,2.6-0.1l0,0c0.7-0.1,1.3,0,2,0.3
		c-1.2,0.7-2,1.7-2.7,2.7c-0.9,1.2-1.3,2.6-1.5,4c-0.1,1,0.5,1.8,0.9,2.7c0.1,0.3,0.3,0.6,0.6,1.1c-0.7-0.1-1.2,0.2-1.4-0.7
		C111.8,47.2,111.4,47.2,110.7,47.7z M114.6,39.5c0,0.3,0,0.4-0.1,0.6c-0.1,0-0.2,0-0.4,0C114.3,39.9,114.4,39.8,114.6,39.5z
		 M116.3,52.3c-0.2,0-0.4,0.1-0.6,0.1c-0.8-0.1-1.6-0.3-2.5-0.4C114.5,51.6,115.4,52.1,116.3,52.3z M114.5,50.7c0.3,0,0.6,0,0.9,0
		l0,0.3c-0.3,0-0.6-0.1-0.9-0.1C114.5,50.8,114.5,50.7,114.5,50.7z M117.2,57.5c-0.3,0-0.6,0-0.9-0.1c0-0.1,0-0.1,0.1-0.2
		c0.3,0,0.6,0.1,0.8,0.1C117.2,57.3,117.2,57.4,117.2,57.5z M117.3,60.3c-0.5,0.2-0.9,0-1.5-0.2C116.5,59.9,116.9,60.1,117.3,60.3z
		 M116.8,56.5c0,0.1-0.1,0.2-0.1,0.2c-1-0.2-2.1-0.4-3.1-0.6C114.8,55.8,115.8,56.3,116.8,56.5z M114.4,55c0.7-0.2,1.7-0.1,2.6,0.4
		C116.3,55.3,115.5,55.1,114.4,55z M115.7,57c0,0.1-0.1,0.2-0.1,0.3c-0.5-0.1-1-0.2-1.4-0.3C114.8,56.7,115.2,57,115.7,57z
		 M113.5,56.8c0,0,0,0.1,0,0.1c-0.2,0-0.3-0.1-0.5-0.1c0-0.1,0.1-0.1,0.1-0.2C113.2,56.6,113.3,56.7,113.5,56.8z M111.8,62.4
		c0.3-0.5,0.7-0.4,1.1-0.4c0.4,0,0.8,0,1.2,0c0.4,0,0.9,0,1.2-0.4c0.1-0.1,0.3,0,0.5,0c-0.1,0.4-0.2,0.7-0.4,1.2
		c0.6,0.4,1.2,0.7,1.9,1C115.3,63.9,112.8,63.3,111.8,62.4z M114.3,53.6c1.3-0.2,2.2-0.1,3.1,0.4C116.3,54,115.4,53.9,114.3,53.6z
		 M121.4,52.2c-0.2,0.1-0.6,0.1-0.8,0.1c-0.4-0.1-0.5-0.5-0.2-1c0.6,0.1,1.1,0.1,1.8,0.2C121.8,51.8,121.6,52.1,121.4,52.2z
		 M122.6,52.9c0.2-0.1,0.4-0.2,0.7-0.3C123.2,52.9,123.2,52.9,122.6,52.9z M135,54.8c-1.4,0.1-2.9,0.1-4.3-0.4
		c-0.7-0.3-1.5-0.2-2.2-0.4c-0.8-0.2-0.9-0.3-1-1.2c1-0.1,5.8,0.8,7.9,1.6C135.3,54.6,135.1,54.7,135,54.8z M136.2,51.9
		c-0.2-0.4-0.4-0.8-0.7-1.3c0.1-0.1,0.3-0.3,0.3-0.6c0-0.6,0-1.1-0.1-1.7c-0.2,0-0.4,0-0.5,0c-0.8,1.7,0.1,3.2,0.6,5
		c-1.4-0.3-2.6-0.5-3.9-0.8c-1.2-0.3-2.4-0.5-3.7-0.8c-1.2-0.3-2.5-0.6-3.7-0.9c0.3-0.2,0.6-0.4,0.9-0.6c-0.8-1-1.1-1.1-2.1-0.6
		c0.1,0.3,0.2,0.6,0.4,1.1c-1.3-0.3-2.4-0.5-3.6-0.8c-0.2-0.1-0.4-0.3-0.6-0.5c-0.5-0.6-1.2-0.8-1.8-0.4c-0.8,0.5-1.5,0.1-2.2-0.1
		c-0.7-0.1-1.3-0.6-1.6-1.3c-0.3-0.6-0.7-1.1-0.4-1.8c0-0.1,0-0.3,0-0.5c-0.6-1.6-0.1-3.1,0.8-4.4c0.1-0.2,0.2-0.5,0.4-0.7
		c0.2-0.1,0.4-0.1,0.5-0.3c0.8-0.9,2-1.1,3.1-1.5c0.7-0.2,1.6-0.1,2.2,0.6c0.5,0.6,1.2,0.7,1.8,0.4c0.6-0.3,1.1-0.2,1.6-0.2
		c0.4,0,0.7,0.1,1.1,0.2c0.1,0.6,0.3,1.2,1,1.3c0.6,0,1.2-0.1,1.4-0.8c1.1,0.2,2.2,0.3,3.3,0.5c1.1,0.2,2.2,0.4,3.4,0.7
		c-0.3,0.4-0.5,0.8-0.7,1.1c0,0,0.1,0.1,0.1,0.1c0.5-0.3,0.9-0.7,1.4-1.1c1.8,0.3,3.7,0.7,5.5,1c1,0.2,1.4,0.4,2.2,1.4
		c-0.2,0-0.4,0.1-0.6,0.1c-0.8,0.1-1.5,0.4-2,1.1c-0.2,0.3-0.4,0.5-0.8,0.9c-0.2-0.3-0.3-0.5-0.4-0.7l-0.3,0.2c0.4,0.6,0.3,1,0,1.5
		c-1,1.8-1.1,3.8-0.5,5.8c0.2,0.6,0.8,1.3,1.7,2C138,54.2,136.8,53.4,136.2,51.9z M141.8,53.8c-0.4-0.2-0.7-0.4-1.1-0.5
		c-1-0.4-1.5-1.1-1.6-2.1c-0.1-1.6-0.2-3.2,1-4.6c0.8-1,1.8-1.8,3.2-1.8c0.9,0,1.2,0.2,1.5,1.3c-0.1,0-0.2,0.1-0.2,0
		c-1.5-0.9-2.5-0.2-3.4,1.2c-0.7,0.9-0.9,2-0.9,3.2c0,1.3,0.8,2.1,2,2.7C142.2,53.3,142,53.5,141.8,53.8z M142,50
		c-1.1-0.5-1.1-0.9-0.1-1.9C142.9,48.8,142.9,49.1,142,50z M143.1,51.1c0.3,0.2,0.5,0.4,0.8,0.6C143.4,51.8,143.2,51.5,143.1,51.1z
		 M144.4,51.2c-0.1-0.7-1.1-0.5-0.8-1.3c0.5,0.2,0.8,0.3,1.3,0.4C144.8,50.5,144.7,50.8,144.4,51.2z M145,49.5
		c-0.4-0.2-0.9,0-1.2-0.4c0.5-0.1,0.9-0.1,1.3-0.2C145.1,49.1,145.1,49.3,145,49.5z"/>
	<path d="M50.4,49.6c-0.2,0.2-0.6,0.2-0.8,0.2c-0.7,0-1.4-0.1-2.1-0.2c-1.3-0.2-2.7-0.3-4-0.5c-1.1-0.2-2.2-0.5-3.4-0.8
		c-0.7-0.2-1.4-0.2-2.1-0.1c-0.6,0-1.2,0-1.7-0.3c-0.4-0.2-0.8-0.3-1.3-0.3c-0.4-0.1-0.8-0.1-1-0.7c0.5-0.3,1-0.3,1.4-0.2
		c2.7,0.3,5.3,0.9,7.9,1.3c2.1,0.3,4.1,0.6,6.2,0.8c0.3,0,0.7,0,0.8,0.2c0-0.4,0.1-0.7,0.3-1.1c-2.6-0.3-5.2-0.6-7.8-1
		c-2.3-0.3-4.5-0.7-6.8-1.1c-0.7-0.1-1.1-0.3-1.3-1c-0.3-0.9-0.9-1.4-1.7-1.8c-0.7-0.3-1.3-0.7-2-1.1c-0.6-0.4-0.9-0.9-1-1.6
		c-0.3-1.8-0.6-3.7-0.5-5.5c0-0.9,0-1.9-0.1-2.8c-0.1-1-0.4-1.1-1.4-1c-0.4,0.1-0.9,0.2-1.3,0.2c-0.6,0.1-0.9,0.5-0.9,1.1
		c0,1.2-0.1,2.4-0.1,3.6c0,2,0,3.9,0.1,5.9c0,2.3,0.4,4.6,1.2,6.7c0.2,0.6,0.4,0.7,1.1,0.6c1-0.1,2-0.2,3-0.3c0.7-0.1,1.4,0.1,2-0.1
		c0.6-0.2,1.1-0.2,1.6-0.1c1.9,0.4,3.9,0.7,5.8,1.1c1,0.2,2.1,0.3,3.1,0.5c2.4,0.4,4.8,0.7,7.3,1.1C50.7,50.8,50.5,50.2,50.4,49.6z
		 M28.2,48.1c-0.9-1.1-1.2-2.3-1.4-3.6c-0.1-1.5-0.2-3-0.4-4.4c-0.3-2.2-0.1-4.4,0-6.6c0-0.3,0-0.8,0.6-1c0.1,0.1,0.2,0.3,0.2,0.4
		c0.1,2.6,0,5.2,0.2,7.8c0.1,1.3,0.5,2.7,1.9,3.5c1,0.6,1.9,1.2,2.9,1.9c-0.3,0.3-0.6,0.1-0.9,0c-0.6-0.3-0.7,0.1-1.1,0.5
		c1.1-0.3,1.2-0.2,1.5,0.7c0.1,0.3,0.4,0.5,0.6,0.9C30.9,48.1,29.5,48.1,28.2,48.1z M33,46.1c0-0.1-0.1-0.1-0.1-0.2
		c0.3-0.3,0.6-0.6,1.3-0.4C33.6,45.7,33.3,45.9,33,46.1z"/>
	<path d="M116.3,46.9c0.3-1.2,0.3-1.2,1.3-0.9c0.3,0.1,0.7,0.2,1,0.4c0.2,0.1,0.3,0.5,0.2,0.7c-0.1,0.2-0.4,0.4-0.6,0.5
		C117.5,47.9,116.9,47.5,116.3,46.9z"/>
	<path d="M135.8,48.4c-0.9-1.3,0-2.2,0.5-3.3c0.1-0.3,0.4-0.6,0.6-1c0.2,0,0.5,0.1,0.9,0.2C136.7,45.5,136.3,47,135.8,48.4
		L135.8,48.4z"/>
	<path d="M119,43.7c-0.9,0.6-1.6,0.7-2.1,0.2c-0.2-0.2-0.3-0.5-0.2-0.7c0-0.1,0.3-0.3,0.5-0.3C117.9,42.8,118.6,42.8,119,43.7z"/>
	<path d="M124.3,47.5c-0.5,0.6-1.2,0.9-1.8,0.6c-0.4-0.2-0.5-0.5-0.5-0.9c0.1-0.4,0.3-0.6,0.8-0.6C123.4,46.8,123.9,47,124.3,47.5z"
		/>
	<path d="M118.1,40.4c0.8-0.5,1.5-0.2,2.2,0.2c0.4,0.2,0.3,0.7-0.1,0.8c-0.4,0.1-0.8,0.1-1.2,0.1C118.6,41.3,118.5,41.2,118.1,40.4z
		"/>
	<path d="M124.3,44.7c-0.5,0.7-1.2,0.9-1.7,0.5c-0.2-0.1-0.3-0.4-0.3-0.6c0-0.3,0.3-0.6,0.6-0.6C123.4,44,124,44,124.3,44.7z"/>
	<path d="M125.5,42c-0.5,0.8-0.9,0.9-1.5,0.6c-0.2-0.1-0.3-0.3-0.3-0.4c0-0.2,0.1-0.5,0.3-0.6C124.5,41.2,125,41.3,125.5,42z"/>
	<path d="M68.9,36.7c0.6-0.8,0.6-0.8,0-1.8c0.6,0.3,0.8,0.5,0.8,1.1C69.7,36.5,69.5,36.7,68.9,36.7z"/>
	<path d="M110.8,45c-0.2,0-0.3,0.2-0.4,0.1c-0.3-0.1-0.7-0.3-0.9-0.5c-0.1-0.1-0.3-0.4-0.2-0.6c0-0.3,0.3-0.5,0.6-0.4
		C110.5,43.8,110.7,44.3,110.8,45z"/>
	<path d="M109.7,46.3c0.4-0.7,0.8-0.8,1.2-0.5c0.1,0.1,0.2,0.3,0.2,0.4c0,0.1-0.1,0.3-0.3,0.3C110.5,46.7,110.1,46.7,109.7,46.3z"/>
	<path d="M114.1,37.4c0,0.2,0.1,0.5,0,0.6c-0.3,0.2-0.6,0.1-0.8-0.2C113.4,37.4,113.8,37.5,114.1,37.4L114.1,37.4z"/>
	<path d="M112.1,38.4c0.1,0,0.2-0.1,0.3-0.1c0.3,0.1,0.6,0.1,0.5,0.5c0,0.1-0.3,0.3-0.4,0.3C112.1,39,112,38.8,112.1,38.4z"/>
	<path d="M111.5,40.2c-0.2,0.4-0.5,0.4-0.7,0.2c-0.1-0.1-0.1-0.3,0-0.4C111.1,39.8,111.3,39.9,111.5,40.2z"/>
	<path d="M110.4,42.1c-0.3,0.2-0.6,0.2-0.7-0.2c0-0.1,0.1-0.2,0.1-0.2C110.1,41.6,110.3,41.7,110.4,42.1z"/>
</g>
</svg>
