<?xml version="1.0" encoding="utf-8"?>
<!-- Generator: Adobe Illustrator 17.1.0, SVG Export Plug-In . SVG Version: 6.00 Build 0)  -->
<!DOCTYPE svg PUBLIC "-//W3C//DTD SVG 1.1//EN" "http://www.w3.org/Graphics/SVG/1.1/DTD/svg11.dtd">
<svg version="1.1" id="Layer_1" xmlns="http://www.w3.org/2000/svg" xmlns:xlink="http://www.w3.org/1999/xlink" x="0px" y="0px"
	 viewBox="0 0 288 216" enable-background="new 0 0 288 216" xml:space="preserve">
<g>
	<path d="M238.1,97c-8.7-6.8-18.9-10.6-29.4-13.1c-5.5-1.3-11.1-2.4-16.6-3.4c0.2,1.8,0.2,3.7-0.1,5.5c3,0.5,5.9,1.1,8.8,1.8
		c10.4,2.3,20.3,6.2,29.3,12.1c3.3,2.2,5.8,5,6.4,9.1c0.4,2.9,0,5.8-2.1,8c-2.6,2.7-5.1,6-8.3,7.6c-5.7,2.9-12,4.7-18.1,6.9
		c-2.5,0.9-5.1,1.2-7.6,1.9c-1.9,0.6-2.2-0.4-2-1.8c1.1-7,2.5-14,3.3-21.1c0.7-5.7,0.7-11.5,1-17.3c0.1-1.7-1-3.1-2.6-3.3
		c-1.9-0.2-2.3,1.5-2.4,2.9c-0.1,1.5,0,3,0,4.6l0.3,0c-0.8,7.2-1.7,14.4-2.5,21.6c-0.4,3.7-1,7.4-1.4,11.1c-0.4,3.6-2.1,5.3-5.6,5.6
		c-5.8,0.6-11.5,1.5-17.3,2.1c-2.9,0.3-5.9,0.5-8.8,0.5c-7.4,0.2-14.8,0.6-22.1,0.4c-8.2-0.3-16.4-1.2-24.6-1.7
		c-9.8-0.7-19.2-2.9-28.6-5.3c-8.5-2.2-17-4.8-24.3-9.9c-3.9-2.7-7.2-6.1-8.2-11c-0.7-3.5,0.4-6.5,2.6-9.3
		c4.3-5.3,10.2-8.3,16.5-10.3c8.3-2.6,16.7-5,25.1-6.9c5.5-1.2,11.2-1.3,16.9-2c1.3-0.2,2.7-0.3,4-0.5c-0.7-1.5-0.7-3.2-0.1-4.7
		c-3.9,0.3-7.8,0.5-11.7,0.8C97,78.8,86.5,81,76.3,84.3C66.5,87.5,56.7,90.6,49,98c-6.2,5.9-7.1,15.7-2,22.2c2,2.6,3.6,5.2,4.4,8.4
		c0.4,1.5,0.4,3,0.9,4.4c2,5.7,4.1,11.3,6.2,16.9c3,8.1,7.2,15.6,12.1,22.6c5.2,7.4,10.9,14.2,19.1,18.4c3.8,1.9,7.8,3.5,10.4,7
		c1.9,2.6,4.5,4.2,7.5,5.2c1.1,0.4,2.3,0.6,3.5,0.9c7.5,2.5,15.2,4,23.1,4.6c3.2,0.2,6.4,0.1,9.6,0.5c6.7,0.9,13.3,0.3,19.8-0.9
		c6.5-1.2,12.9-3,19.3-4.6c2.5-0.7,4.8-1.6,6.2-4.3c0.6-1.2,2.1-2.1,3.4-2.8c2.6-1.5,5.5-2.5,8.1-4.2c4.9-3.1,9-7.1,12.4-11.9
		c3.7-5.3,7.7-10.5,11-16.1c2.8-4.6,4.9-9.6,7.1-14.6c1.8-4.1,3-8.5,4.8-12.6c2-4.5,1.5-10.1,6.4-13.6c3.1-2.2,3.8-6.6,4-10.5
		C246.8,106.2,243.3,101.1,238.1,97z M230.3,143.9c-3.1,7-6.3,14-10.1,20.6c-5,8.6-10.5,16.8-18.4,23c-3,2.3-6.5,3.9-9.8,5.8
		c-1.1,0.6-2.5,1.1-3.2,2c-3.4,4.1-8.1,5.5-12.9,6.8c-11.8,3.2-23.8,4.1-35.9,3.5c-12.4-0.7-24.5-3-36-8.2c-0.9-0.4-1.7-1.1-2.6-1.8
		c-2.5-2-4.6-4.5-7.4-5.9c-7.9-3.9-13.9-9.9-19.1-16.7c-5.7-7.5-10.4-15.6-13.7-24.4c-2.1-5.6-4-11.4-5.9-17.1c-0.2-0.7,0-1.6,0-2.4
		c0.8,0.2,1.6,0.3,2.4,0.6c6,2.6,12,5.6,18.1,7.9c5.4,2,11.1,3.5,16.8,4.8c7.5,1.6,15.2,2.9,22.8,3.9c5.5,0.8,11.1,1.1,16.7,1.4
		c6.6,0.3,13.3,0.7,19.9,0.4c8.5-0.3,17-1.1,25.5-1.8c3.2-0.3,6.5-0.9,9.7-1.3c0.9-0.1,1.9,0,3.8,0c-2.1,5.5-3.9,10.2-5.8,15
		c0.1,0.2,0.2,0.4,0.3,0.6c1.1-0.6,2.7-1,3.2-2c2.3-4.3,4.3-8.8,6.5-13.1c0.4-0.8,1.3-1.6,2.2-1.8c5.4-1.6,10.9-2.7,16.1-4.5
		c6.4-2.2,13.1-3.9,18.8-7.8c0.4-0.3,1-0.2,2.2-0.5C233,135.6,232,139.9,230.3,143.9z M241.2,116.9c-4,7.2-10.2,11.9-17.5,15.4
		c-11.3,5.3-23.4,8-35.6,10c-6.4,1.1-12.8,1.6-19.3,1.9c-9.8,0.5-19.7,1-29.5,0.7c-9.4-0.3-18.9-1.4-28.3-2.5
		c-10.4-1.2-20.7-3-30.6-6.2c-8.9-2.9-17.8-6-25.2-12c-4.8-3.9-8-8.7-7.7-15.4c0.2-3,1.4-5.5,3.4-7.4c5.4-5.2,11.7-9,18.9-11.2
		c-2.2,1.2-4.4,2.3-6.5,3.5c-5,2.7-9,6.5-11.1,11.7c-2.2,5.6,0.1,12.4,4.5,16.2c4.1,3.7,9.2,5.3,14.1,7.5
		c10.7,4.9,22.1,7.5,33.6,9.2c9.9,1.5,20,2.3,30,3.1c6.5,0.5,13,0.7,19.5,0.4c9.2-0.4,18.3-1.5,27.5-2c10.5-0.6,20.5-3.4,30.4-6.3
		c5.4-1.6,10.7-3.8,15.8-6.2c2.4-1.1,4.3-3.2,6.5-4.9c0.1,0,0.1-0.1,0.2-0.2c1.4-3,3.2-5.8,4.2-8.9c1.4-4.4-0.5-8-3.2-11.4
		c-4.1-5.1-9.9-7.8-15.7-10.2c-5.7-2.4-11.7-4-17.6-5.9c-0.3-0.1-0.6-0.2-0.8-0.3c0-0.2,0-0.4,0.1-0.7c2.7,0.7,5.4,1.2,8,2.2
		c6.6,2.4,13.2,4.7,19.5,7.7c6,3,11.3,7.2,13.4,14.1C242.9,111.8,242.5,114.5,241.2,116.9z"/>
	<path d="M87.8,128.9c-0.6-1.7-1.3-3.5-1.7-5.2c-1.7-6.6-3.6-13.2-5-19.9c-0.8-3.7-0.8-7.6-1-11.4c0-0.6,0.8-1.8,1-1.8
		c0.9,0.2,2.1,0.6,2.5,1.3c0.7,1.3,1,2.9,1.3,4.4c1.4,9.4,2.7,18.9,3.9,28.3c0.2,1.4,0,2.8,0,4.2C88.4,128.7,88.1,128.8,87.8,128.9z
		"/>
	<path d="M81.7,122.7c-0.2-0.3-0.6-0.5-0.7-0.8c-2.4-8.6-4.9-17.2-5.3-26.1c0-0.5-0.1-1,0.1-1.4c0.3-0.6,0.8-1,1.2-1.6
		c0.4,0.5,1.2,0.9,1.3,1.5c0.5,3.2,0.9,6.5,1.4,9.7c0.7,5,1.5,10,2.3,15.1c0.2,1.1,0.3,2.3,0.4,3.5
		C82.1,122.6,81.9,122.7,81.7,122.7z"/>
	<path d="M101.8,185.7c-0.1-0.4,0-0.9-0.2-1.2c-2.7-3.6-3.4-7.9-4.9-12c-1.7-4.8-3.5-9.5-5.3-14.2c-0.4-1-1.3-1.9-2.2-2.5
		c-3.6-2.4-5.2-6.2-6.5-10c-0.3-0.9-0.3-2-0.4-3c0.2-0.2,0.5-0.4,0.7-0.5c0.7,0.6,1.7,1.1,2,1.8c1.2,3,2.8,5.6,5.4,7.7
		c4.4,3.6,6.1,8.8,7.5,14.1c0.9,3.3,1.6,6.7,2.9,9.9c3,7.6,7.3,14.3,15.6,16.5c6.6,1.8,13.4,2.5,20.2,3.1c5,0.4,10-0.2,15-0.3
		c0.4,0,0.8,0,1.2,0c1.4,0,2.8,0,2.9,2c0.1,1.9-1.4,2.3-2.7,2.3c-2.9,0.2-5.8,0.2-8.7,0c-3.3-0.2-6.6-0.7-9.9-0.8
		c-7.6-0.3-14.9-1.9-22-4.2c-4.1-1.3-8.5-2.7-12-5.1c-3.1-2.2-5.4-5.8-7.5-9.1c-2.5-3.8-4.4-7.9-6.6-11.8c-0.3-0.6-1-1.3-1.6-1.5
		c-4.6-1-5.9-4.9-7.2-8.5c-2.1-5.6-3.9-11.3-5.6-17c-0.3-1,0-2.3,0-3.4c0.3-0.1,0.5-0.2,0.8-0.4c0.6,0.7,1.6,1.4,1.8,2.2
		c1.4,4.2,2.5,8.6,3.9,12.8c0.7,2.3,1.7,4.6,2.8,6.8c0.4,0.8,1.3,1.7,2.1,1.9c3.8,0.7,5.2,3.8,6.8,6.6c2.8,5,5.5,10,8.4,15
		c0.7,1.2,1.8,2.1,2.7,3.1C101.4,185.9,101.6,185.8,101.8,185.7z"/>
	<path d="M204.7,174.6c1.2-2.7,2.5-5.4,3.5-8.2c2.4-7,4.1-14.2,4-21.8c0-0.7,0.2-1.5,0.6-1.9c0.5-0.5,1.4-0.8,2.1-0.7
		c0.3,0,0.8,1.2,0.7,1.7c-0.5,4-0.9,8.1-1.7,12c-1.7,8.9-4.7,17.3-9.5,25c-1.4,2.3-3.5,4.1-5.4,6c-0.5,0.5-1.5,0.3-2.3,0.4
		c-0.1-0.7-0.5-1.5-0.2-2.1c0.5-1.3,1.4-2.5,2.1-3.7c3.5-5.7,6.2-11.8,3.2-18.5c-1.2-2.7-1.1-4.8-0.5-7.5c0.6-2.6,0.3-5.4,0.5-8.1
		c0-0.8,0-1.7,0.2-2.4c0.2-0.5,0.9-0.8,1.3-1.2c0.3,0.5,0.9,0.9,1,1.4c0.1,2.5,0.2,5.1,0,7.6c-0.2,3-0.6,5.8-0.1,8.9
		c0.6,4.2,0.1,8.5,0.1,12.8C204.5,174.4,204.6,174.5,204.7,174.6z"/>
	<path d="M100.5,164c0.5-0.4,1.1-0.7,1.6-1.1c7.3-4.3,15.3-6.2,23.6-7.3c5.6-0.7,11.3-1.2,16.9-1.3c4.5-0.1,8.9,0.5,13.4,0.8
		c0.8,0.1,1.5,0.7,2.3,1c0,0.3,0,0.5,0,0.8c-1.3,0.4-2.7,0.8-4.1,1.3c0.3,0.5,0.6,1.2,1.1,2.1c-8.9,0-17.5,0-26.1,0
		c0-0.2,0-0.5-0.1-0.7c3.2-1.9,7-1.5,10.4-1.7c3.6-0.3,7.3,0.3,11.5,0.5c-2.3-1.5-16.3-1.3-25.8-0.2c-8.5,1-16.5,3.6-24.4,6.8
		C100.8,164.7,100.7,164.4,100.5,164z"/>
	<path d="M194.8,188.1c-5.3,3.8-11.8,5.2-17.9,7.8c0.7,2-0.4,2.6-2.2,2.9c-3.8,0.7-7.5,1.9-11.4,2.4c-2.5,0.4-2.6-0.1-1.8-2.5
		c-0.5-0.1-1.1,0.1-1.4-0.2c-0.6-0.5-1.4-1.1-1.6-1.7c-0.1-0.4,0.7-1.5,1.3-1.6c2.4-0.6,4.8-0.9,7.2-1.4c5.1-1,10.2-1.9,15.1-3.2
		c3.4-0.9,6.6-2.5,9.9-3.7c0.7-0.3,1.7,0,2.5,0C194.6,187.2,194.7,187.7,194.8,188.1z"/>
	<path d="M165.2,156.1c9.2,2.5,18.2,3.8,25.8,9.2c2.1,1.5,4.2,2.9,6.2,4.5c0.4,0.3,0.3,1.1,0.4,1.7c-0.6,0-1.3,0.1-1.7-0.1
		c-9.1-7-19.7-10.3-30.8-12.3c-0.8-0.1-1.4-0.9-2.1-1.4C163.8,157.1,164.6,156.5,165.2,156.1z"/>
</g>
<g>
	<path d="M149.5,33.9c0-1.1,0-2.1,0-3.1c0-2.4,0-4.9,0-7.3c0-1.2,0-2.4,0-3.6c0-2.2,0-4.3,0-6.5c0-0.4,0-0.8,0-1.2
		c0-0.8-0.2-1.4-0.8-1.9c-0.4-0.3-0.6-0.7-0.6-1.2c-0.1-0.9,0.4-1.5,1.3-1.6c0.8-0.1,1.6,0.1,2.2,0.6c0.6,0.5,0.9,1.1,0.7,1.9
		c-0.1,0.6,0,1.1,0.4,1.6c0.8,1.1,1.8,2,2.8,3c2.2,2.1,4.1,4.5,6,6.9c1.6,2.1,3.2,4.2,4.9,6.2c1.6,2,3.4,3.8,5.1,5.7
		c1,1.1,2,2.1,2.9,3.2c0.3,0.3,0.6,0.5,1.1,0.5c0.8,0,1.7,0.1,2.5,0.3c0.3,0,0.6,0.2,0.8,0.4c0.2,0.2,0.3,0.5,0.1,0.9
		c-0.2,0.3-0.4,0.3-0.7,0.3c-0.5,0-1.1-0.1-1.7-0.1c6.7,8.3,13.2,16.9,20.3,24.9c0.5-0.5,1.1-1,1.9-0.8c0.8,0.2,1.2,0.7,1.6,1.5
		c0.4-0.3,0.8-0.6,1.2-1c0.3-0.3,0.6-0.4,0.9,0c0.2,0.3,0.5,0.5,0.7,0.7c0.2,0.2,0.3,0.5,0,0.7c-0.5,0.4-1,0.8-1.6,1.1
		c-0.3,0.2-0.6,0.5-0.9,0.7c0.1,0.1,0.1,0.2,0.2,0.3c-0.3,0.3-0.6,0.5-0.9,0.8c-0.1,0.1-0.2,0.1-0.3,0.1c-0.2,0-0.5,0-0.6,0.1
		c-1.1,0.8-2.3,1.7-3.4,2.5c-0.7,0.5-1.3,1.1-1.9,1.7c0,0,0,0,0,0c1.1,0.1,1.2,0.3,1,1.4c-0.4,2.4-0.6,4.9-0.9,7.3
		c-0.4,3.3-1.2,6.5-2.3,9.7c-0.5,1.4-0.9,2.8-1.4,4.1c-0.1,0.4-0.2,0.7-0.5,1.1c-0.5,0.7-0.3,1.3-0.2,2c0.2,1,0.4,1.9,0.5,2.9
		c0.1,0.8,0.6,1,1.2,0.5c1.1-0.9,1.6-2.1,1.9-3.4c0.1-0.4,0.2-0.8,0.4-1.2c0.1,0,0.1,0,0.2,0c0.1,0.2,0.2,0.5,0.2,0.7
		c0.2,1.9-0.2,3.7-1.5,5.1c-1.1,1.3-2.6,1.9-4.2,2.4c-0.9,0.3-1.9,0.3-2.9,0.1c-0.3-0.1-0.4,0-0.6,0.3c-0.6,0.9-1.1,1.9-1.7,2.8
		c-1.8,2.7-3.6,5.3-5.4,8c-0.1,0.1-0.2,0.2-0.3,0.4c0.8,0.2,1.6,0.3,2.3,0.5c1.4,0.4,2.8,0.9,4.1,1.7c0.6,0.4,1.2,0.7,1.9,0.6
		c0.3,0,0.6-0.1,0.8-0.2c1.4-0.5,2.9-0.8,4.4-0.7c1.7,0.1,3.4,0.6,4.8,1.6c1.3,1,1.8,2.5,1.2,3.8c-0.3,0.8-1.1,1.3-2,1.2
		c-1.2-0.1-2.2-0.5-3-1.4c-0.2-0.2-0.3-0.4-0.4-0.7c-0.2-0.4-0.1-0.7,0.3-1c0.4-0.3,0.7-0.3,1.1,0c0.2,0.2,0.4,0.4,0.6,0.5
		c0.2,0.1,0.3,0.2,0.5,0.2c0.3,0,0.7,0.1,0.9-0.3c0.2-0.3,0.1-0.8-0.2-1.1c-0.4-0.4-0.8-0.7-1.3-0.9c-2.4-1-4.7-1-7.1,0
		c1.2,1.3,2.1,2.8,2.4,4.5c0.4,2.3-0.3,4.6-2.2,5.9c-2.4,1.6-6,0.8-7.6-1.5c-0.3-0.4-0.4-0.9-0.3-1.5c0.1-0.6,0.5-1,1.3-1.1
		c0.5-0.1,0.7-0.4,0.5-0.9c-0.3-0.7-0.8-1.2-1.5-1.5c-1.3-0.5-2.6-0.5-3.9-0.5c-2.4,0-4.6,0.7-6.8,1.4c-1.1,0.3-2.2,0.7-3.5,1
		c0.5-0.5,1-0.9,1.5-1.3c1.8-1.4,3.6-2.8,5.2-4.5c1.5-1.6,3-3.2,4.4-5c3.2-4.1,6-8.5,8.2-13.2c2.2-4.7,3.9-9.6,5.1-14.7
		c0.7-3,1.2-6.1,1.5-9.2c0.1-1.6,0.1-3.1,0.2-4.7c0-0.1,0-0.2,0-0.3c-1,0-2,0-2.9,0c-0.4,0-0.6,0.2-0.7,0.6
		c-0.1,0.9-0.1,1.8-0.2,2.8c-0.2,2.4-0.3,4.7-0.6,7.1c-0.4,4-1.2,7.9-2.5,11.7c-1,3.2-2.5,6.2-4.2,9.1c-2.4,4.2-5.3,8-8.2,11.9
		c-2,2.7-4.1,5.2-6.6,7.4c-0.5,0.4-1,0.8-1.5,1.2c-0.7,0.4-0.9,0.4-1.6-0.1c-1.1-0.9-2.3-1.6-3.6-2c-2-0.7-3.9-0.9-5.9-0.1
		c-1.3,0.5-2.3,1.3-2.6,2.8c-0.2,1.3,0.2,2.3,1.2,3c0.9,0.7,1.9,0.8,2.9,0.3c0.7-0.3,0.7-0.7,0.2-1.3c-0.5-0.6-0.5-1-0.1-1.5
		c0.4-0.5,1.1-0.5,1.6-0.1c0.6,0.5,0.8,1.2,0.6,1.9c-0.5,1.7-1.7,2.7-3.3,3c-1.7,0.3-3.2-0.2-4.2-1.7c-0.5-0.7-1.2-1.2-2-1.6
		c-2.9-1.3-5.9-2.1-9.1-2.1c-0.6,0-1.3,0.1-1.9,0.3c-1.2,0.4-1.4,1.4-1,2.4c0.2,0.5,0.7,0.7,1.2,0.5c0.5-0.2,0.9-0.4,1.2-0.8
		c0.1-0.1,0.4-0.3,0.5-0.3c0.2,0.1,0.4,0.3,0.5,0.5c0.1,0.1,0.1,0.4,0,0.6c-0.4,1.2-1.3,2.4-2.9,2.5c-2,0.2-3.9,0.1-5.7-0.7
		c-2.8-1.2-4.5-3.8-4.3-6.8c0-0.6,0.4-1.2,0.6-1.8c0.1-0.2,0.1-0.4-0.1-0.6c-0.4-0.3-0.8-0.7-1.2-1c-2-1.7-4.4-2.8-7-3.3
		c-0.9-0.2-1.8-0.1-2.7,0.3c-1.4,0.6-2.1,2-1.7,3.4c0.5,1.9,1.7,3.2,3.6,3.6c1.2,0.3,2.4-0.1,3.3-1c1-1,0.6-2.7-0.7-3.2
		c-0.5-0.2-0.9-0.1-1.3,0.3c-0.4,0.4-0.5,0.9-0.3,1.4c0.1,0.3,0.3,0.7,0.4,1c0.1,0.3,0,0.5-0.3,0.6c-0.5,0.2-1,0.1-1.4-0.3
		c-0.7-0.8-0.9-2.2-0.4-3.1c0.5-0.9,1.5-1.4,2.6-1.3c1.7,0.2,3,1.4,3,3c0,1.8-0.9,3.2-2.8,3.7c-3,0.8-6.2-1.3-6.8-4.3
		c-0.2-0.8-0.2-1.7,0-2.5c0.5-1.6,1.7-2.7,3.4-2.8c1.9-0.1,3.7,0.2,5.4,1c1.5,0.7,2.7,1.8,3.9,2.9c0.5,0.5,1,0.9,1.5,1.4
		c0.1-0.1,0.3-0.3,0.5-0.6c-1.1-1.1-2.2-2.2-3.4-3.2c-1.7-1.4-3.6-2.3-5.7-2.7c-1.8-0.4-3.6-0.4-5.3,0.2c-2,0.7-3.3,2.4-3.5,4.5
		c-0.3,3,1.1,5.3,3.3,7.2c1.7,1.4,3.7,2.3,5.9,2.6c0.9,0.1,1.8,0.1,2.6-0.3c1-0.5,1.3-1.4,0.8-2.4c-0.3-0.5-0.7-0.9-1-1.4
		c0.2-0.2,0.6-0.2,0.9-0.1c1.2,0.5,2.1,2.2,1.7,3.5c-0.5,1.6-1.6,2.4-3.3,2.5c-5.5,0.3-10.9-3.6-12.1-9c-0.2-1-0.3-2-0.4-3
		c0-0.5-0.2-0.8-0.7-0.8c-1.4,0-2.6,0.3-3.4,1.6c-0.5,0.8-0.3,1.7-0.1,2.5c0.3,0.7,0.7,1.3,1.5,1.6c0.8,0.2,1,0.1,0.8-0.7
		c0.3-0.2,0.6-0.2,0.9,0.1c0.4,0.3,0.5,0.8,0.4,1.3c-0.2,1.3-1.6,2-2.8,1.4c-2.3-1.1-3.1-4.4-1.7-6.5c0.6-0.9,1.5-1.2,2.5-1.5
		c0.7-0.2,1.4-0.3,2.1,0c0.3,0.1,0.4,0,0.5-0.2c0.4-0.6,0.8-1.2,1.3-1.7c1.3-1.3,3-2,4.8-2.2c3.3-0.4,6.4,0.2,9.3,2
		c1.4,0.9,2.7,1.9,3.8,3.1c0.4,0.4,0.9,0.7,1.3,1.1c0.3,0.2,0.6,0.3,1,0.1c0.1-0.1,0.2-0.1,0.4-0.1c-0.9-0.8-1.7-1.6-2.6-2.3
		c-1.2-1-2.4-2-3.7-2.9c-0.3-0.3-0.7-0.5-1-0.7c-0.2-0.2-0.5-0.3-0.4-0.7c0.1-0.2,0.4-0.4,0.6-0.6c-0.5-0.5-1-1.1-1.5-1.7
		c-1-0.9-2-1.8-3-2.7c-0.2-0.2-0.6-0.4-0.5-0.7c0.1-0.4,0.5-0.5,0.9-0.4c0.1,0,0.1,0,0.2,0c-1-1.1-1.9-2.2-2.9-3.2
		c-0.5-0.6-1.1-1.2-1.6-1.8c-0.1-0.1-0.2-0.5-0.2-0.5c0.2-0.1,0.4-0.2,0.6-0.2c0.3,0,0.6,0.1,0.9,0.2c-1-1.2-1.9-2.4-2.8-3.5
		c-0.3-0.4-0.6-0.9-0.9-1.4c-0.1-0.3-0.2-0.6-0.2-0.9c-0.1-0.8,0.3-1.3,1.1-1.5c0.7-0.2,1.5-0.3,2.2-0.4c1.7-0.2,3.5-0.4,5.3-0.6
		c-0.1-5-0.2-10-0.3-15.1c-0.5,0-1.1,0-1.7,0c0-0.9-0.1-1.8-0.1-2.7c0-0.4,0.3-0.5,0.6-0.5c1.1-0.1,2.2-0.2,3.2-0.3
		c1.6-0.1,3.1-0.3,4.7-0.4c1.8-0.1,3.6-0.2,5.4-0.3c1.8-0.1,3.7-0.2,5.5-0.2c0.3,0,0.3-0.1,0.4-0.4c0-0.5,0.1-1,0.1-1.6
		c0.2-2.7,0.2-5.4-0.1-8.2c-0.7-7.3-2.8-14.1-6.5-20.5c-1.1-1.8-2.2-3.6-3.7-5.2c-0.9-0.9-1.8-1.9-3.1-2.1c-1-0.1-2-0.1-3-0.1
		c-1.3,0-2.6,0.1-3.9,0.1c-0.6,0-0.9-0.3-1.1-0.8c-0.3-1.1,0.4-2.1,1.6-2.1c1.8,0,3.6,0,5.4,0.1c3.4,0.1,6.9,0.1,10.3,0.3
		c2.1,0.1,4.3,0.2,6.4,0.4c1.8,0.1,3.6,0.2,5.4,0.4C146.5,33.5,148,33.7,149.5,33.9z M173.9,93c0.1,0,0.1-0.1,0.2-0.1
		c0.5-0.2,0.9-0.3,1.2-0.8c-0.5,0.3-1.1,0.5-1.6,0.8C173.8,92.9,173.8,93,173.9,93c-0.2,0-0.3,0.1-0.5,0.2c-2.7,1-5.4,2-8.1,3
		c-1.6,0.6-3.2,1.1-4.7,1.6c-0.2,0.1-0.3,0.2-0.4,0.4c-1,2.7-2.9,4.6-5.5,5.8c-2.1,0.9-4.3,1.3-6.5,1.6c-2.9,0.4-5.7,0.6-8.6,0.6
		c-1.7,0-3.5,0.1-5.2,0.1c-3,0.1-6,0.2-8.4-0.3c2.2,0.1,4.9,0.2,7.7,0.2c2.7,0,5.5-0.1,8.2-0.5c-0.2,0-0.4-0.1-0.6-0.1c0,0,0,0,0,0
		c2.1-0.3,4.1-0.6,6.2-0.9c0-0.1,0-0.1,0-0.2c-0.6-0.1-1.1-0.3-1.7-0.3c-1,0-2,0.2-3,0.3c-1.5,0.1-3,0.2-4.6,0.2
		c-0.2,0-0.4-0.1-0.6-0.1c1-0.7,2-0.3,3-0.5c-0.1,0-0.2-0.1-0.3-0.1c0.2-0.1,0.3-0.1,0.5-0.1c-0.1-0.1-0.1-0.1-0.1-0.1
		c-1.3,0.2-2.7,0.4-4,0.5c-0.6,0.1-1.3,0-1.8-0.4c0.3-0.4,0.7-0.5,1.1-0.5c0.7-0.1,1.4-0.1,2.1-0.2c0.4,0,0.8-0.1,1.2-0.2
		c-0.1-0.1-0.1-0.1-0.1-0.1c-1.5,0.1-3.1,0.3-4.6,0.3c-3.3,0-6.5-0.1-9.8-0.1c-2,0-4-0.1-6-0.4c-0.8-0.1-1.6-0.1-2.4-0.1
		c0.9,1.1,1.9,2,3.2,2.4c-0.1,0.1-0.2,0.1-0.3,0.2c0.9,0.6,1.9,0.5,2.9,0.7c-0.1,0.1-0.2,0.1-0.3,0.2c0.4,0.1,0.7,0.1,1,0.2
		c0,0,0,0.1,0,0.1c-0.9-0.1-1.7-0.2-2.6-0.4c0.9,0.6,1.9,0.6,2.8,0.9c-0.7-0.1-1.3-0.1-2-0.2c0,0,0,0.1,0,0.1
		c0.2,0.1,0.4,0.3,0.6,0.4c0.5,0.1,1,0.2,1.5,0.3c0.7,0,1.4,0,2.1,0c1.9,0.1,3.8,0.3,5.8,0.3c2.3,0,4.6,0,6.9-0.1c1.7,0,3.4,0,5.1,0
		c0,0,0,0,0,0c-0.8,0.1-1.5,0.1-2.3,0.2c0.8,0.1,1.7,0.2,2.5,0.1c1.6-0.2,3.3-0.4,4.9-0.6c1.3-0.2,2.7-0.4,4-0.7
		c1.3-0.3,2.6-0.4,3.9-0.8c3.2-0.9,6.5-1.7,9.7-2.6c0.9-0.2,1.7-0.6,2.6-0.8c-0.4-1.2-1.3-1.1-2.2-1c1.1-0.5,1.1-0.6,1-1.8
		c-0.1-0.8,0-1.6,0.1-2.4c0-0.2,0.2-0.5,0.3-0.5c0.1,0,0.4,0.2,0.5,0.3c0,0,0,0.1,0,0.1c0.8-0.4,1.6-0.7,2.4-1
		c0.8-0.4,1.7-0.7,2.6-1c0.5-0.2,1.1-0.4,1.6-0.7c0.5-0.3,0.8-0.8,1-1.3C174.8,92.8,174.3,92.9,173.9,93z M125,33.7
		c0,0,0,0.1,0.1,0.1c1.2,1.5,2.4,3.1,3.7,4.5c1.7,1.9,3.2,3.9,4.3,6.2c3.5,6.8,5.2,14,5.2,21.6c0,2.6-0.2,5.2-0.6,7.8
		c-0.3,1.9-0.6,3.7-1.1,5.5c-1.1,4.1-3.1,7.7-5.5,11.2c-0.2,0.4-0.5,0.7-0.8,1.1c0.2,0.1,0.4,0.1,0.6,0.2c3.1,0.7,6.2,1.4,9.3,2.1
		c1,0.2,1.2,0.1,1.5-0.9c0-0.1,0-0.2,0.1-0.2c0.2-0.7,0.3-1.4,0.6-2c1.2-2.4,2.4-4.9,3.6-7.3c2.3-4.7,3.3-9.6,3.4-14.8
		c0-0.9,0-1.8,0-2.7c0,0,0.1,0.1,0.1,0.3c0.1,0.7,0.2,1.5,0.3,2.3c0.2,1.7,0.1,3.4-0.1,5.1c-0.4,3-1.2,5.8-2.3,8.5
		c-0.7,1.8-1.5,3.6-2.2,5.3c1-0.4,1.6-1.1,2-1.9c1.3-2.7,2.4-5.4,3.4-8.2c0.2-0.5,0.3-1,0.4-1.5c0.1-0.5,0.2-1,0.3-1.5
		c0,0,0.1,0,0.1,0c-0.4,4.3-2,8.2-4,12c1-0.4,1.6-1,2.1-1.9c1.2-2.3,2.1-4.8,2.8-7.3c0.6-2.1,1.2-4.2,1.4-6.4
		c0.1-0.6,0.1-1.2,0.1-1.8c0,0,0.1,0,0.1,0c-0.1,1.1-0.1,2.3-0.2,3.4c-0.1,1.4-0.5,2.7-0.9,4.1c-0.5,2.2-1.3,4.4-2.1,6.5
		c-0.3,0.9-0.9,1.8-1.3,2.7c0.2-0.1,0.5-0.2,0.7-0.2c0.5-0.1,0.8-0.4,1-0.9c0.1-0.3,0.2-0.6,0.3-0.9c0.3-0.9,0.5-1.7,0.8-2.6
		c0.9-2.5,1.7-5.1,2-7.8c0.2-2,0.4-4,0.5-6c0.2-2.1,0-4.2-0.3-6.3c-0.5-3-1.3-5.9-2.4-8.8c-0.9-2.5-2-4.9-3.4-7.2
		c-1.4-2.2-2.9-4.4-4.7-6.3c-1.1-1.2-2-2.6-3.3-3.6c-0.3-0.2-0.6-0.5-0.8-0.8c-0.3-0.3-0.5-0.4-0.9-0.3c-0.3,0.1-0.6,0-0.9,0
		c-1.9-0.1-3.8-0.2-5.7-0.3C129.8,33.7,127.4,33.7,125,33.7z M155.9,57.8c0,0,0.1,0,0.1,0c0.2,0.9,0.6,1.7,0.7,2.6
		c0.3,2,0.5,4,0.7,6c0.2,2.9-0.1,5.7-0.5,8.6c-0.4,2.4-1.1,4.7-2,7c-0.4,1.2-0.7,2.4-0.8,3.6c0,0.1,0,0.3,0.1,0.4
		c0.6,0.3,0.7,0.4,1-0.3c0.1-0.2,0.1-0.4,0.2-0.5c0.3-1.2,0.6-2.3,1-3.5c0.6-2.1,1.3-4.2,1.8-6.3c0.4-1.8,0.6-3.6,0.7-5.4
		c0.1-1.4,0-2.9,0-4.3c0-0.8-0.1-1.7-0.1-2.6c0.1,0.1,0.1,0.1,0.1,0.2c0.3,1,0.6,2,0.5,3c-0.1,2.3,0,4.7-0.4,7
		c-0.3,1.7-0.5,3.5-0.9,5.2c-0.4,1.6-1,3.1-1.5,4.6c-0.3,1-0.8,1.9-1.1,2.9c-0.2,0.4-0.1,0.7,0.3,0.8c0.2,0.1,0.4,0.2,0.7,0.4
		c0.6-0.8,1.1-1.8,1.4-2.8c0.6-2,1.1-4.1,1.6-6.1c0.8-3,1.4-6.1,1.3-9.3c0,0,0-0.1,0-0.1c0.2,0.7,0.3,1.4,0.3,2.1
		c0.1,2-0.1,4-0.6,5.9c-0.6,2.5-1.4,4.9-2.1,7.3c-0.3,1.1-0.7,2.2-1.1,3.2c0,0.1,0,0.3,0.1,0.4c0.3,0.3,0.6,0.6,1,0.9
		c3.4-7.4,4.3-15.3,4.2-23.4c0.2,1.1,0.4,2.2,0.4,3.3c0,1.4-0.1,2.8-0.2,4.2c-0.1,0.9-0.2,1.9-0.3,2.8c-0.2,1.2-0.4,2.5-0.7,3.7
		c-0.5,2.8-1.3,5.5-2.5,8c-0.2,0.4-0.4,0.9-0.5,1.4c0,0.1-0.1,0.3,0,0.5c0.2,0.3,0.4,0.6,0.7,0.9c0.2-0.4,0.5-0.7,0.6-1
		c0.2-0.5,0.4-1,0.6-1.5c1.7-3.5,2.7-7.2,3.3-10.9c0.4-2.1,0.6-4.2,0.9-6.2c0.1-0.4,0.1-0.8,0.1-1.2c0.1,0.2,0.1,0.3,0.1,0.5
		c0,2.6-0.3,5.1-0.7,7.6c-0.7,3.7-1.5,7.2-3.4,10.5c-0.3,0.6-0.5,1.2-0.8,1.9c0.5,0,0.9-0.1,1.1-0.5c0.4-0.5,0.8-1,1-1.6
		c0.8-2,1.5-3.9,2.1-5.9c1-3.4,1.9-6.9,2.3-10.4c0-0.4,0.1-0.8,0.2-1.3c0.1,0.5,0.1,0.9,0.1,1.4c0,1.5-0.2,3-0.5,4.4
		c-0.7,2.4-1.2,4.9-1.9,7.3c-0.4,1.2-1,2.4-1.4,3.6c-0.3,0.6-0.4,1.3-0.7,2c0.8-0.1,1.2-0.6,1.4-1.2c0.4-0.8,0.7-1.6,1-2.4
		c2.3-5.2,3.7-10.5,4-16.1c0.2-3,0-5.9-0.6-8.8c-0.6-3.2-1.7-6.2-3-9.2c-1.8-3.8-4-7.4-7-10.4c-1.5-1.6-3.1-3.1-4.6-4.6
		c-0.6-0.6-1.4-0.9-2.4-0.9c-0.8,0-1.7-0.1-2.5-0.2c-1.5-0.1-3.1-0.2-4.6-0.4c-1.2-0.1-2.4-0.2-3.6-0.4c0.8,0.8,1.6,1.7,2.3,2.6
		c1.7,2.2,3.4,4.3,4.9,6.6c0.9,1.3,1.6,2.7,2.4,4.1c1.3,2.3,2.5,4.7,3.4,7.2c1.1,2.9,1.8,5.8,2,8.8c0.2,3,0,6-0.3,9
		c-0.4,3.1-1.2,6.1-2.3,9c-0.4,1.3-0.9,2.5-1.3,3.8c0.4,0.2,0.8,0.3,1.3,0.5c0.2-0.4,0.4-0.7,0.5-1.2c0.7-2.7,1.4-5.4,2-8.2
		c0.7-3.1,1.3-6.1,1.4-9.3c0-1.8-0.1-3.6-0.4-5.4C156.4,60.4,156.1,59.1,155.9,57.8z M154.7,35.6c0.5,0.5,0.9,1.1,1.4,1.6
		c1.3,1.3,2.7,2.4,3.9,3.8c1.7,2,3.4,4,4.7,6.3c1.9,3.4,3.3,6.9,4.5,10.6c0.9,2.6,1.3,5.3,1.3,8.1c0,1.9-0.1,3.9-0.4,5.8
		c-0.4,2.4-0.8,4.8-1.4,7.2c-0.5,2-1.2,3.9-1.8,5.8c-0.2,0.7-0.4,1.4-0.6,2.2c0.2-0.1,0.3-0.2,0.5-0.2c0.8-0.3,1.4-0.9,1.7-1.7
		c0.4-1.3,0.9-2.5,1.2-3.8c1-3.6,1.7-7.2,2.1-10.9c0.2-1.7,0.3-3.3,0.4-5c0-0.7,0-1.5,0-2.2c0.4,0.8,0.5,1.7,0.4,2.5
		c-0.1,2.7-0.4,5.3-0.8,8c-0.5,3.3-1.1,6.5-2,9.7c-0.2,0.8-0.4,1.6-0.7,2.4c0.2-0.1,0.4-0.1,0.5-0.2c0.3-0.4,0.8-0.9,1-1.4
		c0.6-1.5,1.2-3.1,1.7-4.7c0.8-2.8,1.5-5.6,1.9-8.5c0.2-1.6,0.3-3.2,0.4-4.8c0-0.2,0.1-0.5,0.2-0.7c0,0,0.1,0,0.1,0
		c0,0.1,0.1,0.2,0.1,0.4c0,0.6,0,1.2-0.1,1.9c-0.1,0.8-0.2,1.6-0.3,2.5c-0.2,1.7-0.4,3.4-0.7,5.1c-0.3,1.6-0.9,3.1-1.4,4.6
		c-0.4,1.4-0.8,2.8-1.2,4.2c0,0.1,0,0.4,0.1,0.5c0.1,0.1,0.4,0,0.5-0.1c0.1,0,0.2-0.2,0.3-0.3c0.3-0.5,0.6-1,0.8-1.6
		c1-2.3,1.6-4.7,2.1-7.1c0.4-2.2,0.8-4.4,1.1-6.7c0.1-0.8,0.2-1.6,0.3-2.4c0.1,2.3,0,4.6-0.4,6.9c-0.6,3.3-1.4,6.5-2.1,9.7
		c0.1,0,0.2-0.1,0.3-0.2c0.9-0.7,1.3-1.7,1.5-2.8c0.2-1,0.3-2.1,0.5-3.2c0.8-3.5,1.6-6.9,1.8-10.5c0-0.1,0.1-0.1,0.1-0.2
		c0.1,0.5,0.1,1,0.1,1.5c-0.1,1.5-0.2,2.9-0.4,4.4c-0.1,1.2-0.2,2.5-0.6,3.7c-0.4,1.3-0.7,2.6-1.1,3.9c-0.2,0.7-0.3,1.4-0.5,2.2
		c0.1,0,0.2,0,0.2-0.1c1.5-0.6,2.7-1.6,3.1-3.2c0.7-2.7,1.4-5.5,1.6-8.3c0.2-2.2,0.2-4.3,0.1-6.5c0-0.3,0-0.6,0-0.8
		c0-0.3,0-0.5-0.1-0.9c0.1,0.1,0.1,0.1,0.1,0.1c0,0.1,0,0.1,0.1,0.2c0.9,2.9,0.8,5.8,0.3,8.7c-0.4,2.4-1.1,4.8-1.6,7.1
		c-0.1,0.5-0.2,1-0.3,1.4c0,0,0.1,0.1,0.1,0.1c0.3-0.2,0.6-0.4,0.7-0.7c0.3-0.5,0.7-1.1,0.8-1.7c0.4-2.1,0.8-4.1,1.2-6.2
		c0.4-2.7,0.5-5.3,0.3-8c-0.2-2.4-0.6-4.7-1.4-6.9c-0.7-1.9-1.6-3.7-2.4-5.5c-1.8-3.8-4.1-7.2-7-10.2c-0.9-0.9-1.8-1.9-2.6-2.8
		c-0.5-0.6-1-1-1.8-1c-1.8-0.2-3.7-0.4-5.5-0.6C159.4,36,157.1,35.8,154.7,35.6z M181.9,78.2c0.3-0.2,0.7-0.4,1-0.6
		c0.9-0.6,1.8-1.3,2.7-2c0.1-0.1,0.2-0.2,0.2-0.4c0-0.8,0.1-1.7,0.1-2.5c0-0.5,0.2-0.7,0.7-0.8c0.3,0,0.6-0.1,0.9-0.1
		c1.3-0.1,2.6-0.2,3.7-1c1.3-1,2.6-1.9,3.8-2.8c0.6-0.5,1.3-0.9,1.9-1.4c-0.7-0.8-0.8-1.7-0.4-2.6c0-0.1,0-0.3,0-0.4
		c-0.4-0.6-0.9-1.2-1.3-1.7c-1.5-1.7-3.1-3.4-4.6-5.1c-3.1-3.8-6.2-7.6-9.2-11.4c-1.9-2.3-3.7-4.6-5.6-6.8c-0.1-0.1-0.4-0.3-0.6-0.3
		c-1-0.1-2-0.1-3.1-0.1c-0.4,0-0.8-0.1-1.2-0.1c5.5,5.2,8.7,11.6,10.8,18.6C183.7,63.8,183.7,71,181.9,78.2z M157.2,106.9
		c0,0,0,0.1,0,0.1c-0.3,0.1-0.6,0.3-0.9,0.3c-1.2,0.2-2.4,0.4-3.6,0.5c-1.4,0.2-2.9,0.3-4.3,0.5c-1.2,0.2-2.4,0.5-3.6,0.6
		c-2,0.2-4,0.2-6,0.3c-2.2,0-4.4-0.1-6.6-0.2c-1.9-0.1-3.7-0.3-5.5-0.5c-1.8-0.2-3.6-0.4-5.4-0.5c-0.6-0.1-1.2,0-1.8,0
		c1.7,1.9,3.9,2.6,6.4,2.9c-0.8,0-1.6,0-2.3,0c0.5,0.6,1.2,0.6,1.9,0.8c-0.3,0-0.7,0.1-1,0.1c0,0.5,0.3,0.7,0.7,0.8
		c1.1,0.5,2.3,0.5,3.6,0.6c1,0,2,0.1,2.9,0.1c1.6,0.1,3.2,0.4,4.8,0.3c0.5,0,1,0,1.4,0c0.2,0,0.4,0.1,0.6,0.1c0,0,0,0.1,0,0.1
		c-0.6,0-1.2,0-1.8,0c0.7,0.3,1.4,0.3,2.1,0.2c0.9-0.1,1.9-0.2,2.8-0.3c2.4-0.2,4.8-0.2,7.2-0.6c2.3-0.3,4.6-0.5,6.9-0.7
		c2.5-0.2,4.9-0.7,7.3-1.3c1.8-0.5,3.5-0.8,5.3-1.3c0.6-0.1,1.2-0.3,1.8-0.5c0,0,0-0.1,0-0.1c-0.1,0-0.2,0-0.5,0
		c1-0.3,2-0.5,2.9-0.7c1.3-0.3,2.6-0.7,3.7-1.4c0.2-0.1,0.4-0.3,0.6-0.5c0,0,0-0.1-0.1-0.1c-0.6,0.2-1.3,0.3-1.9,0.5
		c-1.8,0.5-3.6,1.1-5.4,1.6c-2.6,0.7-5.3,1.3-7.9,2c-0.8,0.2-1.6,0.4-2.5,0.2c0.2-0.1,0.3-0.1,0.4-0.1c1.8-0.4,3.6-0.8,5.4-1.3
		c2.9-0.8,5.8-1.7,8.7-2.6c1.1-0.3,2.2-0.7,3.3-1c0.5-0.2,0.9-0.4,1.3-0.9c-2.2,0.7-4.4,1.4-6.5,2.1c-2.2,0.7-4.4,1.2-6.6,1.6
		c0.3-0.1,0.6-0.2,1-0.3c0,0,0,0,0-0.1c-0.3,0-0.6,0.1-0.8,0.1c0.2-0.1,0.4-0.1,0.6-0.2c3.6-1,7.3-2.1,10.9-3
		c1.6-0.4,2.6-1.4,3.2-2.9c0.3-0.9,0.7-1.7,1-2.6c0.1-0.3,0.2-0.7,0.4-1c-0.2,0-0.2,0.1-0.3,0.1c-1.8,0.8-3.6,1.5-5.4,2.3
		c-0.4,0.2-0.9,0.4-1.2,0.7c-0.5,0.4-0.4,0.7,0.1,1c0.6,0.3,1.2,0.3,1.8,0c1.1-0.5,2-1.2,2.7-2.1c0.1-0.1,0.2-0.2,0.3-0.2
		c0,0.1,0.1,0.3,0.1,0.4c0,0.6-0.2,1.1-0.6,1.6c-0.7,0.9-1.6,1.5-2.6,1.9c-2.5,1-4.9,0.6-7.2-0.5c-0.2-0.1-0.5-0.2-0.7-0.1
		c-0.6,0.1-1.2,0.3-1.7,0.6c-1.3,0.6-2.7,0.9-4,1.1c-2,0.4-4.1,0.8-6,1.7c0,0-0.1,0.1-0.2,0.1C156.7,106.9,157,106.9,157.2,106.9z
		 M174.1,36.7c-0.3-0.4-0.7-0.7-1-1.1c-2.4-2.7-4.7-5.4-7.1-8.1c-2.4-2.8-4.8-5.7-7.2-8.5c-1.7-2-3.5-4-5.3-6
		c-0.6-0.6-1.1-1.3-1.7-1.9c-0.1-0.1-0.3-0.2-0.5-0.3c-0.1,0.2-0.2,0.4-0.2,0.6c0,0.5,0,1,0,1.6c0,0.1,0,0.2,0.1,0.2
		c0.3,0.3,0.3,0.5,0,0.7c0,0,0,0.1,0,0.2c0.1,0.9,0.2,1.9,0.2,2.8c0.1,2,0.3,4.1,0.4,6.1c0,0.3,0,0.6,0.3,0.9c0.3,0.2,0.4,0.7,0.2,1
		c-0.2,0.3-0.2,0.5-0.1,0.7c0.2,1.9,0.4,3.8,0.6,5.7c0.1,1,0.2,1.9,0.3,2.9C160,35.1,167,35.9,174.1,36.7z M157.4,115.9
		C157.4,115.9,157.4,115.9,157.4,115.9c0.1-0.1,0.3-0.1,0.5-0.2c1.8-0.3,3.6-0.6,5.4-1c2.2-0.5,4.3-1.1,6.5-1.7
		c1.2-0.3,2.3-0.7,3.3-1.4c0.5-0.3,0.9-0.7,1.1-1.2c0,0,0-0.1-0.1-0.1c-1.1,0.4-2.1,0.9-3.2,1.3c0,0,0,0.1,0,0.1
		c0.5-0.2,1.1-0.4,1.6-0.5c0,0.1,0,0.1,0.1,0.2c-1,0.4-2,0.8-3,1.2c0,0,0-0.1,0-0.1c0.1-0.1,0.3-0.2,0.4-0.3c-2,0.6-4.1,1-6.2,1.1
		c0.2-0.1,0.4-0.1,0.5-0.2c2.2-0.6,4.5-1.2,6.7-1.9c1.3-0.4,2.7-0.9,3.9-1.6c0.3-0.2,0.6-0.5,0.9-0.8c0-0.1-0.1-0.1-0.1-0.2
		c-0.3,0.1-0.5,0.1-0.8,0.2c-0.7,0.3-1.3,0.6-2,0.8c-4.5,1.3-9,2.9-13.8,3.6c-2.2,0.3-4.3,0.6-6.5,0.8c-1.9,0.2-3.8,0.3-5.7,0.4
		c-2.5,0.1-5,0.3-7.5,0.3c-2,0-4-0.2-6-0.3c-2.6-0.1-5.1-0.2-7.6-0.7c-0.5-0.1-1-0.1-1.5-0.1c0,0.1-0.1,0.1-0.1,0.2
		c0.4,0.4,0.9,0.8,1.3,1.2c0.5,0.6,1.2,0.9,1.9,1c0.4,0.1,0.8,0.1,1.4,0.2c-0.4,0.1-0.8,0.1-1.2,0.1c0.8,0.9,1.8,1.1,2.8,1.2
		c1.7,0.1,3.5,0.2,5.2,0.2c1.2,0,2.5,0.1,3.7,0.1c0,0,0,0.1,0,0.1c-3.5,0.6-6.9,0-10.3-0.4c0.2,0.4,0.4,0.6,1,0.7
		c2.1,0.5,4.3,0.6,6.4,0.7c0.6,0,1.2,0.1,1.8,0.1c0,0,0,0,0,0c-0.6,0-1.2,0.1-1.8,0.1c0.2,0.2,0.4,0.3,0.6,0.3
		c0.7,0.1,1.4,0.2,2.1,0.2c3,0,5.9,0,8.9-0.1c1.6,0,3.1-0.2,4.7-0.3c1.9-0.2,3.8-0.4,5.7-0.6c1.9-0.2,3.8-0.4,5.6-1
		c1.6-0.5,3.2-0.9,4.9-1.3c0.8-0.2,1.5-0.7,1.9-1.4c-0.4,0.1-0.8,0.3-1.2,0.3c-1,0.2-2.1,0.3-3.1,0.5c-0.3,0.1-0.6,0.3-1,0.4
		c0,0,0,0.1,0,0.1c1.3-0.3,2.6-0.6,3.9-0.8c-0.8,0.6-1.8,0.8-2.8,1c-2.1,0.3-4.1,0.6-6.2,1.1c-2,0.5-4.1,0.8-6.1,0.6
		c0,0-0.1,0-0.2-0.1c0.9-0.1,1.8-0.3,2.6-0.4c0,0,0-0.1,0-0.1c-0.7,0.1-1.3,0.1-2,0.2c0.6-0.1,1.1-0.2,1.7-0.3
		c1.1-0.2,2.3-0.3,3.4-0.5c0.4-0.1,0.7-0.3,1-0.4c1-0.2,2-0.4,3.1-0.6c0.3-0.1,0.6-0.3,0.9-0.5c0,0,0,0,0-0.1
		c-1.7,0.2-3.4,0.4-5.1,0.7c1.1-0.2,2.3-0.4,3.4-0.6c2.1-0.4,4.2-0.8,6.3-1.3c0.9-0.2,1.7-0.6,2.6-1c0.2-0.1,0.4-0.4,0.6-0.6
		c0,0-0.1-0.1-0.1-0.1c-6.3,2.1-12.8,3.3-19.5,4.1c2-0.4,3.9-0.7,5.9-1.1c0,0,0-0.1,0-0.1C158.7,115.8,158.1,115.9,157.4,115.9z
		 M162.8,96.4c0,0,0,0.1,0,0.1c0.3-0.1,0.6-0.1,0.8-0.3c0.7-0.3,1.4-0.7,2.1-1c2.2-0.9,4.4-1.8,6.6-2.7c1.2-0.5,2.3-1,3.3-1.9
		c0.7-0.6,1.1-1.4,0.9-2.3c-0.1-0.5-0.2-1.1-0.3-1.6c-0.2-1.1,0.1-1.8,1-2.4c1.5-1,3.5-0.6,4.5,1c0.3,0.5,0.5,1.2,0.7,1.8
		c0.8-0.1,1.5-0.5,2.2-1c0.1,0,0.1-0.1,0.1-0.2c0.1-1.2,0.3-2.4,0.4-3.6c0.1-1.2,0.2-2.5,0.3-3.7c0-0.4,0.1-0.9,0.1-1.4
		c-1.5,1-2.9,2-4.3,2.9c-2.9,2-5.9,3.9-9.1,5.5c-1.9,0.9-3.8,1.8-5.7,2.6c-1.9,0.8-3.8,1.6-5.7,2.5c-0.1,0-0.2,0.1-0.3,0.1
		c-0.3,0.2-0.5,0.4-0.3,0.7c0.6,1.3,0.8,2.7,0.7,4.1c0,0.4,0,0.8,0,1.2c0.8-0.3,1.6-0.6,2.4-0.9c0,0,0,0.1,0,0.1
		C163.2,96.2,163,96.3,162.8,96.4z M148,127c0-0.3,0.1-0.6,0.1-0.9c0.1-0.7,0.1-0.7-0.6-1.1c-0.9-0.5-1.9-0.9-2.8-1.4
		c-1.6-0.9-3.1-1.8-4.8-2.2c-2-0.5-4-0.9-6-1.2c-1.3-0.2-2.6-0.2-3.9,0.1c-0.8,0.2-1.6,0.6-2.2,1.1c-1.3,1.2-1.4,3.1-0.3,4.8
		c1.3,2,3.1,3,5.3,3.4c0.3,0,0.6,0.1,0.8,0c0.4-0.2,0.5-0.6,0.1-0.9c-0.2-0.1-0.4-0.3-0.5-0.4c-0.5-0.3-0.6-0.7-0.7-1.2
		c-0.1-1.1,0.9-2.4,1.9-2.7c0.9-0.3,1.9-0.3,2.9-0.2c2.4,0.4,4.7,0.8,7,1.5C145.5,126.2,146.8,126.6,148,127z M122.7,101.4
		c0,0,0-0.1,0-0.1c-0.6,0-1.1-0.1-1.5-0.1c1.5,0,3.2,0,5,0c0,0.1,0,0.1,0,0.2c-0.7,0-1.3,0-2,0c0,0.1,0,0.1,0,0.2c0.9,0,1.8,0,2.6,0
		c0.9,0,1.8,0,2.6,0c0,0,0,0.1,0,0.1c-0.5,0-1,0.1-1.5,0.1c0,0,0,0.1,0,0.1c0.7,0,1.5,0,2.2,0c0,0,0,0,0,0.1c-0.3,0-0.6,0.1-0.9,0.1
		c0,0,0,0.1,0,0.1c1.2,0,2.3,0,3.5,0c1.5-0.1,3-0.2,4.5-0.4c1.3-0.1,2.6-0.2,3.8-0.3c0.7-0.1,1.3-0.3,2.1-0.5
		c-0.2-0.3-0.3-0.5-0.5-0.6c-0.6-0.9-1.2-1.9-1.2-3c0-0.4-0.1-0.7-0.1-1.1c-0.1-0.5-0.3-0.7-0.8-0.7c-0.2,0-0.3,0-0.5,0
		c-0.9,0.2-1.8,0.4-2.7,0.6c-0.8,0.1-1.7,0.2-2.5,0.3c-1.7,0.2-3.4,0.4-5.2,0.4c-1.7,0-3.5-0.1-5.2-0.2c-1.1-0.1-1.7,0.5-2.4,1.2
		c-0.2,0.2-0.1,0.6,0.1,0.7c0.6,0.3,1.5,0.1,1.9-0.4c0.2-0.2,0.3-0.4,0.6-0.5c0.6-0.3,1.1-0.2,1.6,0.3c0.4,0.4,0.8,0.9,1.5,1
		c-0.4,0.1-0.8,0.2-0.7,0.7c0,0.5,0.5,0.5,0.8,0.6c0.8,0.1,1.5,0.1,2.3,0c0.5,0,1.1-0.1,1.6-0.1c0,0,0,0.1,0,0.1
		c-0.9,0.1-1.8,0.1-2.6,0.2c1.4,0.3,2.8,0.1,4.3,0.2c-0.8,0.1-1.5,0.3-2.3,0.3c-1.7,0.1-3.3,0.1-5-0.1c-0.7-0.1-1.5-0.3-2.2-0.4
		c-0.9-0.2-1.7,0.1-2.5,0.3c-0.5,0.1-1.1,0.2-1.5-0.2c-0.4-0.5-0.8-0.6-1.4-0.7c-0.4-0.1-0.9,0-1.3-0.1c0,0,0,0.1,0,0.1
		c0.4,0.4,0.9,0.7,1.4,0.9c0.5,0.2,1.1,0.3,1.7,0.4c-0.7-0.1-1.2-0.1-1.7-0.2c0,0.1,0,0.1,0,0.2
		C120.1,101.2,121.4,101.3,122.7,101.4z M169.6,123.5C169.6,123.5,169.6,123.5,169.6,123.5c0.7-0.1,1.4-0.3,2.1-0.4
		c1.1-0.2,2.2-0.3,3.3-0.4c1.7-0.2,3.4,0.1,4.9,0.9c1,0.5,1.7,1.3,2.1,2.3c0.3,0.8,0,1.4-0.9,1.6c-0.3,0.1-0.6,0.2-0.7,0.5
		c-0.1,0.3,0.1,0.6,0.3,0.8c0.7,0.6,1.5,1,2.4,1.2c2.3,0.4,4.2-1.3,3.9-3.6c-0.1-1.2-0.5-2.3-1.1-3.4c-1.8-3.3-4.6-5.2-8.3-5.5
		c-0.5,0-1.1,0.1-1.6,0.4c-0.6,0.4-0.9,1-1.5,1.6c0.5,0.1,0.9,0.2,1.4,0.3c1.4,0.2,2.7,0.6,3.9,1.3c0.8,0.5,1.5,1.1,1.9,1.9
		c-0.8-0.4-1.6-0.8-2.5-1.2c-1.6-0.7-3.3-1.1-5-1c-0.7,0-1.4,0.2-1.9,0.8c-0.4,0.5-0.9,0.8-1.4,1.2
		C170.5,122.8,170,123.1,169.6,123.5z M130.5,76.8C130.5,76.8,130.5,76.8,130.5,76.8c-0.8,0-1.6,0-2.4,0c-2,0-4-0.1-6-0.1
		c-0.3,0-0.7,0.1-1,0.2c-0.2,0.1-0.4,0.3-0.4,0.5c-0.1,0.7-0.1,1.5-0.1,2.2c0.8,0.2,1.4,0.3,2.2,0.5c0,0,0.1-0.1,0.2-0.2
		c0.8-0.9,1.7-1.8,3-1.9c0.9-0.1,1.8,0,2.7,0.2c1.4,0.3,2.7,0.8,4,1.2c0,0,0,0.1,0,0.1c-0.3,0-0.6,0-0.9,0c0,0,0,0.1,0,0.1
		c0.3,0.2,0.7,0.3,1,0.5c-0.2,0-0.3,0-0.5,0c0,0,0,0.1,0,0.1c0.9,0.4,1.8,0.3,2.7,0.4c0,0,0-0.1,0.1-0.1c-0.1-0.1-0.2-0.2-0.4-0.3
		c0.2-0.1,0.6-0.1,0.6-0.6c-0.1,0-0.3,0-0.5,0c0.2-0.1,0.4-0.1,0.5-0.2c0.1-0.1,0.2-0.2,0.2-0.3c0-0.1-0.1-0.1-0.2-0.2
		c-0.1,0-0.2-0.1-0.3-0.1c-0.9-0.1-1.8-0.2-2.8-0.4c1,0,1.9,0,2.9,0c0.5,0,0.7-0.2,0.7-0.6c0-0.2,0-0.3,0-0.5c0-0.3-0.1-0.4-0.4-0.5
		c-0.6,0-1.2,0-1.8-0.1c-1.2-0.1-2.4-0.2-3.5-0.2c-0.6,0-1.2-0.1-1.9-0.1c0,0,0,0.1,0,0.1C128.8,76.7,129.7,76.7,130.5,76.8z
		 M146,122.2C146,122.1,146.1,122.1,146,122.2c1.6-0.2,3.2-0.4,4.8-0.6c2.6-0.4,5.2-0.8,7.9-0.8c1.3,0,2.1-0.2,2.9-0.5
		c0.7-0.2,1.4-0.2,2.1-0.4c0,0,0,0.1,0,0.1c-0.4,0.1-0.7,0.2-1.1,0.3c0.1,0.1,0.2,0.1,0.3,0c1.4-0.2,2.8-0.5,4.1-1
		c0.7-0.3,1.1-0.8,1.6-1.3c-0.8,0.1-1.6,0.2-2.3,0.4c-1.5,0.4-3,0.9-4.5,1.2c-1.6,0.3-3.2,0.5-4.9,0.6c-1.9,0.2-3.8,0.4-5.6,0.5
		c-3.2,0.1-6.4,0.2-9.6,0.3c-0.1,0-0.2,0-0.3,0c0,0,0,0.1,0,0.1c0.9,0.5,1.8,0.9,2.7,1.4c1,0.5,1.9,1,3.1,0.7
		c0.6-0.1,1.2-0.1,1.8-0.1c0.5,0,0.9-0.3,1.3-0.8c-1.2,0.1-2.4,0.2-3.5,0.3c0.1-0.1,0.1-0.1,0.2-0.2
		C146.6,122.2,146.3,122.2,146,122.2z M150.1,99.2c0.2,0,0.4,0,0.6,0c2.3-0.5,4.3-2.8,3.6-5.6c0-0.2-0.3-0.4-0.4-0.4
		c-0.5,0-1.1,0-1.6,0.1c-1.1,0.3-2.2,0.6-3.2,0.9c-0.6,0.2-1.2,0.2-1.7,0.5c-0.6,0.2-0.8,0.7-0.7,1.3c0.2,0.8,0.5,1.5,1,2.1
		C148.3,98.8,149.1,99.2,150.1,99.2z M144.6,89.7c0.2,0.1,0.4,0.1,0.5,0.1c0.4,0.1,0.8,0.3,1.2,0.2c0.6-0.1,1.3-0.2,1.9-0.5
		c1.4-0.6,2.8-0.9,4.3-0.4c0.5,0.2,1,0.2,1.5,0.2c0.8,0,1.2-0.6,1-1.4c-0.2-0.7-0.7-1.2-1.5-1.4c-2.4-0.6-4.7-0.2-6.8,1.1
		C145.9,88.2,145.2,88.8,144.6,89.7z M126.9,87.3c1.1,0,2.2-0.3,3.1-1c3.1-2.1,1.8-5.7-0.2-7c-1.7-1.1-4.2-0.8-5.8,0.5
		c-1,0.8-1.6,1.9-1.5,3.1C122.6,85.5,124.5,87.3,126.9,87.3z M145.3,101.5c2.7,3.2,9,2.7,10.9-0.8c-0.4-0.3-0.9-0.6-1.3-0.9
		c-0.1-0.1-0.2-0.1-0.3,0c-0.5,0.3-1.1,0.6-1.6,0.9c-1,0.6-2.1,0.7-3.1,0.6c-0.8-0.1-1.5-0.4-2.3-0.6c-0.1,0-0.1-0.1-0.2-0.1
		c-0.2-0.4-0.4-0.3-0.6-0.1C146.3,100.8,145.8,101.2,145.3,101.5z M119.5,99.3c-0.3-0.7-0.4-0.9-0.1-1.4c0.5-0.8,1-0.9,1.8-0.6
		c0.1,0,0.3,0.1,0.3,0c0.2-0.2,0.5-0.5,0.7-0.7c-1.1-0.2-2.1-0.4-3.2-0.6c-1-0.2-2-0.4-3.1-0.6c-0.8-0.1-1.7-0.3-2.5-0.3
		c-0.2,0-0.5,0.1-0.5,0.2c0,0.2,0.1,0.4,0.2,0.6c0.5,0.5,1,1,1.6,1.5c0.5,0.4,1.2,0.8,1.7,1.2c0,0,0,0,0.1,0.1
		c-0.1,0-0.1,0.1-0.2,0.1C116.7,99.3,118.8,99.7,119.5,99.3z M129.5,90.2c-2.9-0.3-5.8-0.5-8.7-0.8c0.1,0.9,0.1,1.8,0.2,2.8
		c0.4,0.1,0.9,0.1,1.3,0.1c1.1,0.1,2.2,0.1,3.2,0.3c1,0.2,1.7-0.2,2.3-0.9C128.4,91.2,128.9,90.7,129.5,90.2z M176.5,86.5
		c-0.1,0.3-0.1,0.7,0.2,1.1c0.7,1,0.5,1.9,0.1,2.9c-0.5,1.1-1,2.1-1.4,3.2c-0.7,1.6-1.2,3.3-1.9,4.9c-0.4,0.9-0.8,1.8-1.4,2.5
		c-0.8,1-1.5,0.9-2.2,0.3c-0.4-0.4-0.9-0.8-1.3-1.2c-0.3-0.3-0.5-0.6-0.8-0.9c0,0-0.1,0-0.1,0c0,0.1,0,0.3,0,0.4
		c0.5,1.3,1.3,2.4,2.6,3.1c0.5,0.3,1,0.3,1.5,0c0.7-0.4,1.1-1,1.4-1.6c1-2.4,2-4.7,2.9-7.1c0.5-1.3,1.1-2.7,1.6-4
		c0.2-0.7,0.3-1.4-0.2-2C177.2,87.5,176.8,87,176.5,86.5z M134.4,75.7c0-0.1-0.1-0.4-0.1-0.6c0-0.5-0.2-0.7-0.7-0.7
		c-0.6,0-1.1-0.1-1.7-0.1c-1.9,0.1-3.7,0.2-5.6,0.3c-1.6,0.1-3.2,0.1-4.7,0.3c-0.7,0-1.4,0.2-2.1,0.3c-0.5,0.1-0.7,0.4-0.6,0.9
		c0,0.1,0.1,0.3,0.1,0.4c0.3,0,0.6,0,0.9-0.1c2.7-0.6,5.4-0.7,8.2-0.7c1.3,0,2.6-0.1,4-0.1C132.8,75.6,133.6,75.6,134.4,75.7z
		 M120.7,85.2c0,1.1,0,2.1,0,3.2c0,0.3,0.1,0.4,0.4,0.4c1.6,0,3.2,0.1,4.9,0.2c0.5,0,1,0.1,1.5,0.1c0.9,0.1,1.9,0.2,2.8,0.2
		c0.5,0,0.9-0.4,0.9-0.9c-0.1,0-0.2,0-0.3,0c-1.6,0-3.2,0-4.8-0.3c-1.5-0.3-2.8-0.9-3.6-2.3c-0.1-0.1-0.2-0.2-0.3-0.2
		C121.8,85.3,121.2,85.3,120.7,85.2z M173.5,97c-0.5,0.1-0.9,0.2-1.3,0.2c0.6-0.3,1.3-0.5,1.7-1.2c-0.3,0.1-0.5,0.2-0.8,0.3
		c0.4-0.3,0.8-0.7,1.2-1c0-0.1-0.1-0.1-0.1-0.2c-2.2,0.8-4.3,1.6-6.5,2.4c0,0.5,0.2,0.7,0.6,0.7c0.2,0,0.5,0,0.7,0
		c0.4-0.1,0.8-0.2,1.2-0.3c0,0,0,0,0,0c-0.7,0.3-1.4,0.6-2.2,0.9c0.2,0.3,0.5,0.7,0.7,1c0.1,0.1,0.4,0.2,0.5,0.2
		c0.7-0.2,1.3-0.4,2-0.6c0.6-0.2,1.1-0.4,1.6-1c-0.2,0-0.4,0.1-0.6,0.1C172.9,98.1,173.3,97.7,173.5,97z M158.8,94.7
		c0,1.6-0.2,2.9-0.9,4.1c-0.2,0.4-0.4,0.9-0.5,1.3c0,0.1,0,0.3,0,0.4c0.1,0.1,0.4,0.1,0.5,0.1c0.2-0.1,0.4-0.3,0.5-0.5
		c1-1.5,1.5-3.3,1.5-5.1c0-1.6-0.3-3.1-1.3-4.4c-0.5-0.7-1.2-1.3-1.9-1.9c-0.1-0.1-0.4,0-0.5,0.1c-0.2,0.1-0.1,0.3,0.1,0.5
		c0.5,0.4,1,0.8,1.4,1.3C158.6,91.8,158.8,93.3,158.8,94.7z M182.6,93.4c-0.1,0-0.2,0-0.3,0c-0.6,0.2-1.2,0.4-1.8,0.7
		c-0.9,0.4-1.8,0.8-2.8,1.3c-0.3,0.2-0.7,0.3-1,0.5c-0.5,0.3-0.8,0.8-1,1.4c0.4-0.1,0.7-0.2,0.9-0.3c1.5-0.6,3.1-1.2,4.6-1.8
		C182.2,94.9,182.6,94.4,182.6,93.4z M146.4,91.8c-0.1,0-0.1,0-0.2,0c-0.2,0.2-0.3,0.4-0.5,0.6c-0.8,1.4-1.1,2.9-0.9,4.5
		c0.1,1.1,0.7,2,1.7,2.6c0.1,0.1,0.5,0.1,0.5,0c0.1-0.2,0.1-0.4,0.1-0.7c0-0.1-0.2-0.2-0.3-0.3c-0.3-0.3-0.6-0.6-0.8-1
		c-0.7-1.2-0.8-2.4-0.2-3.7c0.2-0.4,0.3-0.8,0.4-1.2C146.5,92.4,146.4,92.1,146.4,91.8z M151.2,23.8c-0.1-3.3-0.2-6.6-0.2-9.8
		c-0.2-0.1-0.4-0.1-0.7-0.2c0.1,3.3,0.2,6.6,0.2,9.9C150.8,23.8,151,23.8,151.2,23.8z M153.3,91.9c-1.1-1.2-2.4-1.2-3.7-0.7
		c-1,0.4-1.9,0.9-2.3,2c1-0.2,2-0.4,3-0.6C151.3,92.4,152.3,92.1,153.3,91.9z M179.4,88.1c0.8,0,1.4-0.6,1.3-1.2
		c-0.2-0.9-1.4-1.7-2.3-1.4c-0.5,0.1-0.9,0.4-1,0.9c-0.1,0.4,0.1,0.8,0.4,1.1C178.3,87.8,178.8,88.1,179.4,88.1z M174.9,99.4
		c0.3-0.1,0.5-0.2,0.7-0.3c1.9-0.7,3.7-1.5,5.6-2.2c0.4-0.2,0.7-0.7,0.6-1.1c-0.2,0.1-0.4,0.1-0.5,0.2c-1.6,0.6-3.2,1.3-4.8,1.9
		C175.7,98.2,175.1,98.5,174.9,99.4z M183,91.5c-0.2,0.1-0.3,0.1-0.4,0.2c-1.5,0.5-2.8,1.5-4.5,1.7c-1,0.1-1.3,0.9-1.4,1.7
		C178.6,94.8,182.6,92.6,183,91.5z M154.4,98.4c0.1,0.1,0.3,0.4,0.4,0.4c0.2-0.1,0.4-0.3,0.6-0.4c0.1-0.1,0.1-0.2,0.2-0.3
		c0.6-1.5,1-3,0.7-4.6c-0.2-1-0.5-1.9-1.2-2.6c-0.2-0.2-0.4-0.5-0.9-0.4C155.9,93,156.3,95.6,154.4,98.4z M121.2,94.3
		c0.9,0,1.8,0,2.7,0.2c1,0.1,1.5-0.5,2.2-1c0,0,0-0.1,0-0.1c-1.6-0.1-3.2-0.1-4.8-0.2C121.2,93.5,121.2,93.8,121.2,94.3z M144,99.6
		c0.1,0,0.1-0.1,0.2-0.1c-0.1-0.2-0.2-0.4-0.3-0.7c-0.2-0.4-0.5-0.8-0.6-1.3c-0.2-1.4-0.1-2.7,0.4-4c0.1-0.2,0.2-0.5-0.1-0.6
		c-0.3-0.1-0.5,0.1-0.6,0.3c-0.1,0.2-0.2,0.5-0.3,0.7c-0.5,1.4-0.5,2.9,0.1,4.3C143.2,98.8,143.5,99.3,144,99.6z M185.8,102.7
		c0.6-0.1,1.1-0.1,1.6-0.2c0.5-0.1,0.8-0.4,0.9-0.8c0.1-1-0.1-2-0.3-3.1C187.3,100,186.6,101.3,185.8,102.7z M136.5,93.9
		c-0.4-0.1-0.7-0.1-1.1-0.2c-2-0.4-3.9-0.9-5.9-1.3c-0.5-0.1-1,0.2-1.1,0.7c1.3,0.2,2.7,0.3,4,0.6C133.8,93.9,135.1,94.1,136.5,93.9
		z M180.3,91.5c1-0.2,1.9-0.6,2.7-1.3c0.2-0.1,0.2-0.4,0.3-0.6c0,0-0.1-0.1-0.1-0.1c-0.5,0.2-1.1,0.3-1.6,0.5
		c-1.2,0.4-2.5,0.9-3.5,1.8c-0.2,0.2-0.3,0.4-0.5,0.5c0,0,0,0,0.1,0c1.3-0.6,2.5-1.2,3.8-1.7c0,0,0,0.1,0.1,0.1
		C181.1,91,180.7,91.3,180.3,91.5z M120.5,80.8c0,1,0.1,1.9,0.1,2.8c0,0.3,0.1,0.5,0.5,0.5c0.2,0,0.5,0.1,0.7,0.2
		c-0.3-1.1-0.3-2.2,0.3-3.4C121.6,80.9,121.1,80.9,120.5,80.8z M183.9,87.4c-0.3,0.2-0.5,0.3-0.8,0.4c-1.1,0.5-2.2,1.2-3.4,1.6
		c-0.7,0.2-1.2,0.5-1.2,1.3c0,0,0,0,0,0.2c0.4-0.2,0.8-0.3,1.2-0.6c0.9-0.6,1.8-1.1,2.8-1.4c0.3-0.1,0.6-0.3,0.9-0.4
		C183.8,88.3,183.9,87.9,183.9,87.4z M199.2,66.1c-0.1-0.1-0.1-0.1-0.2-0.2c-2.4,1.7-4.7,3.6-7.1,5.4c0.2,0.1,0.4,0.1,0.5,0.1
		c0.3-0.2,0.7-0.3,1-0.6c1.7-1.4,3.4-2.8,5.1-4.2C198.8,66.5,199,66.3,199.2,66.1z M120.5,34.6c0-0.3-0.1-0.6-0.1-0.8
		c-0.1-0.3-0.2-0.5-0.5-0.5c-0.7,0-1.4,0-2.1,0c0,0.4,0,0.9,0,1.3C118.7,34.6,119.5,34.6,120.5,34.6z M134.7,94.5c0,0,0-0.1,0-0.1
		c-0.7-0.1-1.4-0.2-2.1-0.2c-1.6-0.1-3.1-0.3-4.7-0.4c-0.2,0-0.3,0-0.5,0.1c-0.3,0.2-0.6,0.5-1,0.8c0.7,0,1.3,0,1.9,0
		c0.2,0,0.4-0.2,0.6-0.2c1.2,0,2.3,0.1,3.5,0.1c0.7,0,1.4-0.2,2.1,0.2C134.5,94.6,134.6,94.5,134.7,94.5z M165.6,120.9
		c-2.1,0.2-4.3,0.2-6.3,0.9C160.4,122.2,164.8,121.9,165.6,120.9z M151.5,29.2c0-0.9-0.1-1.8-0.1-2.6c0-0.5-0.1-0.9-0.2-1.4
		c0-0.2-0.1-0.6-0.6-0.4c0.1,1.5,0.1,3,0.2,4.6C151.1,29.3,151.3,29.3,151.5,29.2z M128.9,87.9c0,0.1,0,0.1,0,0.2
		c0.7,0,1.5,0.1,2.2,0c0.2,0,0.4-0.3,0.6-0.4c0,0,0-0.1-0.1-0.1c-0.1,0-0.2,0-0.2,0c0.2-0.1,0.4-0.3,0.6-0.4
		c-0.2-0.1-0.2-0.1-0.3-0.2c0.2,0,0.3-0.1,0.5-0.1c0,0,0-0.1,0-0.1c-0.4-0.1-0.8-0.2-1.1-0.2c-0.1,0-0.2,0.2-0.3,0.3
		c-0.2,0.2-0.6,0.2-0.6,0.6C129.8,87.6,129.4,87.8,128.9,87.9z M169.2,100.3c0.6,0.5,1.2,1.1,2,0.7c0.5-0.2,0.9-0.9,0.9-1.4
		c-0.2,0.1-0.3,0.1-0.5,0.2c-0.2,0.1-0.5,0.2-0.7,0.2C170.3,99.8,169.8,100,169.2,100.3z M194.2,73.8c0.1-0.6,0-0.8-0.3-0.9
		c-0.9,0-1.8,0-2.7,0c0,0.2,0,0.4,0,0.6C192.2,73.7,193.2,73.8,194.2,73.8z M189.2,96.9c-0.1,0-0.1,0-0.2,0
		c-0.1,0.2-0.2,0.5-0.2,0.7c0.1,0.7,0.2,1.5,0.3,2.2c0.1,0.5,0.2,1,0.4,1.4c0,0.1,0.2,0.1,0.3,0.2c0-0.1,0.1-0.2,0.1-0.3
		C189.6,99.8,189.4,98.4,189.2,96.9z M150.3,8.3c-0.5,0-0.7,0.4-0.6,0.8c0.2,0.5,0.6,0.7,1,0.8c0.3,0.1,0.6-0.2,0.6-0.6
		C151.4,8.9,150.8,8.3,150.3,8.3z M178.3,38.1c0-0.5-0.1-0.7-0.4-0.7c-0.8,0-1.6,0-2.4,0C176.2,38.4,177.3,37.9,178.3,38.1z
		 M158.1,121.1c0.5,0.4,4.2-0.1,5-0.6C161.4,120.6,159.8,120.7,158.1,121.1z M150.8,13.3c0-0.8,0-1.6,0-2.4
		c-0.3,0.1-0.5,0.1-0.6,0.2c0,0.7,0,1.4,0,2.1C150.4,13.2,150.6,13.2,150.8,13.3z M123.8,95.1c-0.7-0.1-1.5-0.2-2.2,0
		c-0.3,0.1-0.5,0.3-0.3,0.7C122.1,95.7,123.2,96.2,123.8,95.1z M123.4,99.8c0.2,0,0.5-0.1,0.8-0.1c0.2,0,0.3-0.2,0.2-0.4
		c-0.3-0.6-1.4-0.7-1.9-0.1c-0.2,0.3-0.1,0.5,0.2,0.6C122.9,99.8,123.1,99.8,123.4,99.8z M172.2,36.9c0.2,0.7,1.2,1,2.9,0.9
		c-0.3-0.2-0.4-0.6-0.7-0.6C173.7,37.1,172.9,37,172.2,36.9z M133.1,82.1c-0.1,0.2-0.3,0.4-0.3,0.5c0,0.1,0.3,0.2,0.4,0.3
		c0.1,0,0.2,0.1,0.3,0c0.2,0,0.4-0.1,0.5-0.2c0.1-0.2,0.1-0.5,0.1-0.7c0,0-0.1,0-0.1,0c0.1,0,0.2-0.1,0.3-0.2
		c-0.6-0.1-1.1-0.1-1.7-0.2C132.9,81.9,133,82,133.1,82.1z M198,65.6c0.5,0,1-0.5,1-0.8c0-0.3-0.2-0.5-0.5-0.4
		c-0.4,0-0.9,0.5-0.8,0.8C197.7,65.3,197.9,65.5,198,65.6z M119.9,119c-1.4-0.8-3.4-0.1-3.6,1.2C117.3,119.2,118.4,118.6,119.9,119z
		 M133.4,84.4c-0.5-0.1-1.1,0.4-1.2,1.3c0.3-0.1,0.6-0.1,0.8-0.2C133.2,85.2,133.3,84.8,133.4,84.4z M127,95.8c0,0,0,0.1,0,0.1
		c1.5-0.1,3.1-0.1,4.6-0.2c0,0,0-0.1,0-0.1C130,95.4,128.5,95.7,127,95.8z M179.5,88.5c0.8,0.2,1.5,0,1.8-0.5
		c0.2-0.4,0.3-0.8,0.1-1.3c0,0.1,0,0.1,0,0.2c-0.1,0.8-0.4,1.3-1.3,1.4C179.9,88.3,179.7,88.5,179.5,88.5z M127.6,95.5
		C127.6,95.5,127.6,95.5,127.6,95.5c-0.6-0.1-1.3-0.2-1.9-0.3c-0.4-0.1-0.6,0.1-0.9,0.4c0.5,0,1,0,1.4-0.1
		C126.7,95.6,127.2,95.5,127.6,95.5z M142,102c0,0.1,0,0.1,0,0.2c0.5,0,1-0.1,1.5-0.1c0.1,0,0.1-0.2,0.2-0.3c-0.1,0-0.2-0.1-0.3-0.1
		C143,101.8,142.5,101.9,142,102z M144.8,103c-0.6-0.5-1.3-0.4-2,0.1c0.4,0,0.7-0.1,1-0.1C144.1,103,144.4,103,144.8,103z
		 M119,101.4c0.6,0.3,2.3,0.5,2.8,0.3C120.8,101.6,119.9,101.5,119,101.4z M139.4,103.2c0-0.1,0-0.1,0-0.2c-1,0.1-1.9,0.2-2.9,0.3
		c0,0,0,0.1,0,0.1C137.5,103.4,138.5,103.3,139.4,103.2z M133.7,83.7c-0.2,0-0.4-0.1-0.6,0c-0.1,0-0.2,0.1-0.2,0.2
		c0,0,0.1,0.1,0.1,0.2C133.2,84.3,133.5,84.1,133.7,83.7z M151.6,33.7c0.1-0.6-0.4-0.5-0.7-0.7c-0.1,0-0.2,0-0.3,0
		c0,0.1,0,0.2,0.1,0.3C151,33.5,151.3,33.6,151.6,33.7z M132.3,107.7C132.3,107.8,132.3,107.8,132.3,107.7c0.8,0.1,1.5,0.1,2.3,0.1
		c0,0,0,0,0-0.1C133.9,107.7,133.1,107.7,132.3,107.7z M147.3,105.1c0,0,0,0.1,0,0.1c0.7-0.1,1.5-0.2,2.2-0.3c0,0,0-0.1,0-0.1
		C148.7,104.9,148,105,147.3,105.1z M154.9,89.5c0.6-0.3,0.8-0.9,0.6-1.2C155.3,88.7,155.1,89.1,154.9,89.5z M113.6,117.5
		c-0.6,0.2-0.8,0.6-0.8,1.1C113.1,118.3,113.3,117.9,113.6,117.5z M179.7,85.1c0,0,0-0.1,0-0.1c-0.3-0.1-0.6-0.4-1,0
		C179,85,179.3,85,179.7,85.1z M143.8,103.6c0,0,0,0.1,0,0.1c0.5,0,1-0.1,1.5-0.1c0-0.1,0-0.1,0-0.2
		C144.9,103.5,144.3,103.6,143.8,103.6z M133,83c0.2,0.4,0.4,0.5,0.9,0.2C133.6,83.1,133.3,83.1,133,83z M151.5,30.4
		C151.5,30.4,151.5,30.3,151.5,30.4c-0.2,0-0.3,0-0.5,0.1c0.1,0.1,0.2,0.2,0.3,0.5C151.5,30.7,151.5,30.5,151.5,30.4z M168.2,97
		c0,0,0,0.1,0.1,0.1c0.4-0.1,0.7-0.3,1.1-0.4c0,0,0-0.1,0-0.1C168.9,96.7,168.5,96.8,168.2,97z"/>
	<path d="M149.2,13.4c-0.1,0.4-0.3,0.7-0.3,1c-0.2,1.5-1,2.7-1.9,3.8c-0.1,0.1-0.1,0.2-0.2,0.3c-0.3,0.3-0.3,0.7,0,1.1
		c0.5,0.7,0.9,1.5,1.3,2.2c0.4,0.8,0.7,1.6,1.1,2.5c-0.6,0.1-1.1,0.1-1.5,0.3c-0.8,0.3-1.6,0.5-2.4,0.9c-1.8,0.8-3.7,1.6-5.7,1.9
		c-2.3,0.4-4.5,0.2-6.7-0.5c-2-0.6-3.9-1.4-5.7-2.5c-2.3-1.3-4.5-2.7-6.8-4c-0.3-0.2-0.5-0.4-0.7-0.6c-0.1-0.1-0.2-0.3-0.2-0.5
		c0.2-0.1,0.4-0.2,0.5-0.2c0.9,0.1,1.7,0.2,2.5,0.5c2,0.5,3.9,1.2,6,1.5c3,0.4,5.9,0.1,8.7-0.9c3.7-1.4,7.2-3.2,10.4-5.6
		C148,14.2,148.5,13.8,149.2,13.4z M148,14.9c-0.6,0.4-1.1,0.7-1.7,1c-1.7,1-3.4,2.1-5.1,3.1c-2.2,1.2-4.4,2.2-6.9,2.6
		c-2.6,0.4-5.1,0.5-7.6-0.3c-1.6-0.5-3.3-0.8-5-1.2c-0.2-0.1-0.5-0.1-0.7-0.1c0,0,0,0.1,0,0.1c0.1,0.1,0.2,0.2,0.3,0.3
		c0.3,0.3,0.7,0.5,1.1,0.7c3.1,1.9,6.4,3.5,9.7,5c0.5,0.3,1.1,0.5,1.7,0.7c1.6,0.4,3.3,0.4,5,0.3c1.8-0.2,3.5-0.6,5.1-1.5
		c1.4-0.9,2.8-1.8,4.7-1.8c-0.3-0.6-0.5-1-0.7-1.5c-0.5-0.9-1.1-1.8-2.1-2.3c-0.2-0.1-0.2-0.3-0.1-0.4c0.3-0.5,0.5-1,0.9-1.3
		C147.1,17.1,147.5,16,148,14.9z"/>
	<path d="M133.3,91c0.4-0.5,0.7-1,1-1.5c1.5-2.1,2.5-4.4,3.4-6.8c0.8-2.2,1.6-4.5,2-6.9c0.3-1.8,0.5-3.6,0.6-5.5c0.1-2,0-4-0.1-6
		c-0.1-1.9-0.4-3.9-0.7-5.8c-0.2-1.6-0.6-3.2-0.9-4.7c0-0.1,0-0.1,0.1-0.2c0.3,1.2,0.7,2.4,1,3.5c0.6,2.5,1.1,5,1.3,7.5
		c0.2,2.5,0.3,5,0,7.5c-0.4,4.7-1.7,9.2-3.9,13.5c-0.9,1.8-2,3.5-3,5.3c0,0.1-0.2,0.1-0.3,0.1C133.7,91.1,133.5,91.1,133.3,91z"/>
	<path d="M142.4,78.7c0-0.2,0-0.4,0-0.5c-0.5,1.9-1.1,3.9-1.7,5.9c0.1-0.2,0.2-0.5,0.4-0.8c0,0,0,0,0.1,0c-0.2,0.5-0.3,0.9-0.5,1.4
		c-0.8,2.1-1.7,4.2-2.8,6.2c0,0,0,0,0,0.1c-0.4,0.6-0.4,0.6-1,0.4c-0.2-0.1-0.4-0.2-0.7-0.3c0.2-0.3,0.4-0.7,0.6-1
		c0.9-1.1,1.4-2.5,1.9-3.8c0.8-1.9,1.7-3.8,2.5-5.7c0.8-2.1,1.2-4.3,1.5-6.6c0.3-2.9,0.4-5.8,0.4-8.8c0-0.1,0-0.1,0-0.2
		C143.4,67.1,143,77,142.4,78.7z"/>
	<path d="M138.4,92.1c6.1-9.4,7.6-19.7,6.5-30.6c0.1,0.4,0.2,0.9,0.3,1.3c0.1,0.4,0.2,0.9,0.3,1.3c0.5,2.5,0.4,5.1,0.1,7.6
		c-0.3,3.4-0.9,6.7-1.9,9.9c-1.1,3.6-2.6,7.1-4.7,10.3C138.8,92.2,138.8,92.2,138.4,92.1z"/>
	<path d="M147.5,67.5c0.1,1.6,0.3,3.2,0.3,4.9c0,2.5-0.5,4.9-1.3,7.2c-1.1,3.2-2.3,6.3-3.8,9.4c-0.5,1.1-1.2,2.1-2.3,3
		c0.1-0.2,0.1-0.4,0.2-0.5c1-2.1,2-4.3,3.1-6.4c1.3-2.5,2.4-4.9,2.9-7.7c0.4-2.2,0.7-4.5,0.7-6.8c0-1,0-2.1,0-3.1
		C147.4,67.5,147.5,67.5,147.5,67.5z"/>
	<path d="M167.3,74.8c0.2-1.1,0.3-2.2,0.5-3.3c0,0,0.1,0,0.1,0c-0.2,1.1-0.3,2.2-0.5,3.3C167.4,74.8,167.4,74.8,167.3,74.8z"/>
	<path d="M125.8,112.1c3,0.2,6,0.4,8.9,0.6C134,112.9,126.5,112.4,125.8,112.1z"/>
	<path d="M128.1,111.7c2.2,0.1,4.4,0.3,6.6,0.4c0,0,0,0,0,0c-0.5,0-0.9,0-1.4,0c0.1,0.1,0.1,0.1,0.2,0.2
		C131.6,112.1,129.9,111.9,128.1,111.7C128.1,111.7,128.1,111.7,128.1,111.7z"/>
	<path d="M135.2,111.3c-1.2,0-2.5-0.1-3.6-0.1c1.1,0,2.4,0,3.6,0C135.2,111.2,135.2,111.3,135.2,111.3z"/>
	<path d="M130.5,116.4c2.6,0.3,5.3,0.5,7.9,0.8c0,0,0,0,0,0.1c-0.7,0-1.4,0.1-2.1,0.1c-2-0.2-3.9-0.5-5.9-0.8
		C130.5,116.4,130.5,116.4,130.5,116.4z"/>
	<path d="M167,113.3c-0.9,0.3-1.8,0.6-2.8,0.5C165.2,113.7,166.1,113.5,167,113.3z"/>
	<path d="M122.7,104.9c0.1,0,0.2,0,0.3,0c2.7,0.2,5.3,0.5,8,0.8c0.1,0,0.2,0.1,0.4,0.2C128.4,106.1,125.6,105.5,122.7,104.9z"/>
	<path d="M119.7,104.7c0.6,0,1.3,0.1,1.9,0.1c0,0,0,0.1,0,0.1c-0.6,0-1.3-0.1-1.9-0.1C119.7,104.7,119.7,104.7,119.7,104.7z"/>
	<path d="M126.7,107c-0.6,0-1.2-0.1-1.8-0.1c0,0,0-0.1,0-0.1c0.6,0,1.2,0.1,1.8,0.1C126.8,106.9,126.8,106.9,126.7,107z"/>
	<path d="M122.2,104.3c0.6,0,1.1,0,1.7,0c0,0,0,0,0,0C123.3,104.3,122.7,104.3,122.2,104.3C122.2,104.3,122.2,104.3,122.2,104.3z"/>
	<path d="M162.7,93.9c-0.8,0-1.3-0.5-1.3-1.2c0-0.8,0.8-1.5,1.6-1.5c0.8,0,1.3,0.5,1.3,1.3C164.2,93.3,163.5,94,162.7,93.9z
		 M162.5,92.9c0.1,0,0.1,0,0.2,0c0.2-0.2,0.5-0.4,0.3-0.8c-0.1-0.1-0.4,0-0.7,0C162.4,92.4,162.5,92.7,162.5,92.9z"/>
	<path d="M166.8,92.3c-0.5,0-0.9-0.4-0.7-1c0.2-1.1,1.4-1.9,2.5-1.5c0.6,0.2,0.8,0.6,0.5,1.2C168.7,91.8,167.9,92.2,166.8,92.3z
		 M167.8,90.2c-0.5,0-0.8,0.4-0.8,0.9c0,0.4,0.3,0.7,0.7,0.7c0.4,0,0.8-0.4,0.8-0.9C168.5,90.5,168.2,90.2,167.8,90.2z"/>
	<path d="M140.1,97.7c0,0.8-0.6,1.6-1.3,1.6c-0.6,0-1.2-0.6-1.2-1.2c0-0.8,0.7-1.5,1.4-1.5C139.6,96.5,140.1,97,140.1,97.7z
		 M138.6,97.8c0,0.1,0.1,0.1,0.1,0.2c0.1-0.1,0.3-0.2,0.4-0.3c-0.1-0.1-0.2-0.2-0.2-0.2C138.8,97.6,138.7,97.7,138.6,97.8z"/>
	<path d="M132.2,99.1c-0.9,0.4-1.7,0-2.6-0.1c0.9,0,1.7,0,2.6,0C132.2,99,132.2,99.1,132.2,99.1z"/>
	<path d="M166.3,119.1c-0.7,0.6-1.5,0.7-2.3,0.7C164.8,119.5,165.6,119.3,166.3,119.1z"/>
	<path d="M149.1,96c0-0.8,0.8-1.6,1.7-1.6c0.7,0,1.3,0.6,1.3,1.4c0,0.8-0.8,1.5-1.6,1.5C149.7,97.4,149.1,96.8,149.1,96z"/>
	<path d="M123.6,83.7c0-2.4,1.5-3.9,3.4-4c0.7,0,1.4,0,2,0.1c1.5,0.4,2.3,1.9,1.9,3.5c-0.7,2.9-3.9,3.7-5.9,2.5
		C124.1,85.3,123.6,84.4,123.6,83.7z M127.2,83.3c0,0,0.1,0,0.1,0c-0.3-0.6-0.6-1.2-0.9-1.8c0,0,0,0,0,0c0.3,0.4,0.5,0.8,0.8,1.1
		c-0.1-0.4-0.3-0.8-0.4-1.3c0-0.2,0.1-0.4,0.2-0.5c0.1,0.1,0.4,0.2,0.4,0.3c0.3,0.6,0.5,1.2,0.8,1.8c0.1,0.2,0.2,0.5,0.3,0.7
		c0,0,0.1,0,0.1-0.1c-0.2-1-0.6-1.9-1.2-2.8c-0.1-0.1-0.3-0.2-0.4-0.2c-0.4,0-0.8,0-1.3,0.1c-0.3,0.1-0.4,0.3-0.3,0.6
		c0.2,0.5,0.5,0.9,0.8,1.4c0,0,0.1,0,0.1-0.1c-0.1-0.3-0.2-0.5-0.3-0.8c0,0,0,0,0.1,0C126.6,82.3,126.9,82.8,127.2,83.3z M128.7,81
		c0.5,0.6,0.9,1.2,1.4,1.8C130.2,81.9,129.6,81.1,128.7,81z M128.1,81.1c0.3,0.7,0.6,1.3,0.9,2c0,0,0.1,0,0.1,0
		C129.2,82.2,128.6,81.7,128.1,81.1z M129.9,84c0.1-0.3,0.2-0.6,0.3-0.9C129.6,83.4,129.6,83.6,129.9,84z M128.8,84.6
		c-0.1,0-0.2,0-0.3,0c0,0.2,0,0.4,0,0.6c0,0,0.2,0,0.2,0.1C128.8,85,128.8,84.8,128.8,84.6z"/>
	<path d="M130.6,88.9c-1.1-0.1-2.2-0.2-3.4-0.3c0,0,0-0.1,0-0.1c1.1,0.1,2.3-0.1,3.4,0.2C130.6,88.8,130.6,88.9,130.6,88.9z"/>
	<path d="M170.8,97c0.5-0.2,1-0.3,1.5-0.5c0,0,0,0.1,0,0.1C171.9,96.8,171.4,96.9,170.8,97C170.9,97.1,170.8,97,170.8,97z"/>
	<path d="M179.7,93.4c-0.5,0.6-1.2,0.6-1.8,0.8C178.5,94,179.1,93.7,179.7,93.4z"/>
	<path d="M143.4,19.6c-0.1,0.5-0.4,0.8-0.8,1c-0.9,0.5-1.8,1-2.8,1.4c-1.9,0.8-3.8,1.5-5.7,2.3c-0.3,0.1-0.5,0.1-0.9,0.2
		c1.8,0.8,3.6,0.8,5.5,0.8c-2.2,0.5-3.3,0.9-5.2,0.3c-1.7-0.6-3.7-1.7-4.6-2.6c1,0.3,2,0.1,3,0c1.4-0.2,2.9-0.3,4.3-0.7
		c1.5-0.4,3-1,4.4-1.5c0.6-0.2,1.1-0.6,1.7-0.9c0.3-0.2,0.7-0.3,1.1-0.4C143.3,19.5,143.4,19.6,143.4,19.6z"/>
</g>
</svg>
