<?xml version="1.0" encoding="utf-8"?>
<!-- Generator: Adobe Illustrator 17.1.0, SVG Export Plug-In . SVG Version: 6.00 Build 0)  -->
<!DOCTYPE svg PUBLIC "-//W3C//DTD SVG 1.1//EN" "http://www.w3.org/Graphics/SVG/1.1/DTD/svg11.dtd">
<svg version="1.1" id="Layer_1" xmlns="http://www.w3.org/2000/svg" xmlns:xlink="http://www.w3.org/1999/xlink" x="0px" y="0px"
	 viewBox="0 0 288 216" enable-background="new 0 0 288 216" xml:space="preserve">
<g>
	<path d="M181.1,187.8h-7.4c-0.4-25-0.8-50-1.2-74.9c-0.6-0.3-1.1-0.7-1.6-1.3c0.1,6.1,0.3,12.2,0.4,18.3c0.1,4.6,0.1,9.3,0.2,13.9
		c0.2,8.2,0.4,16.4,0.5,24.6c0.1,5.1,0.2,10.2,0.3,15.3c0,1.4,0,2.7,0,4.2c-1.2,0.1-2.4,0.1-3.8,0.2c-0.9-27.6-1.7-55.1-2.6-82.8
		c-0.6-0.7-1.1-1.4-1.7-2.1c0.2,4.6,0.3,9.3,0.5,13.9c0.3,9.2,0.7,18.3,1,27.5c0.2,5.9,0.4,11.8,0.6,17.7c0.3,7.5,0.6,15,0.8,22.5
		c0,1.1,0,2.2,0,3.3c-1.4,0.1-2.9,0.1-4.4,0.2c0.1,1,0.1,1.8,0.2,2.6c0.1,0.8-0.1,1.1-0.9,1.4c-9.7,2.5-19.4,5.1-29.1,7.6
		c-0.3,0.1-0.6,0.2-0.9,0.3c0.5,1,0.9,1.8,1.4,2.7c0.5,1,0.7,1.1,1.8,0.8c6.9-2.1,13.9-4.3,20.8-6.4c2.4-0.7,4.7-1.4,7.2-2.2
		c0.1,0.7,0.6,0.8,1.2,0.8c1.7,0,3.4,0,5.1,0c0.6,0,0.9,0.2,1.1,0.7c1.8,3.9,3.6,7.8,5.4,11.8c0.3,0.6,0.7,0.8,1.3,0.6
		c1.7-0.5,3.5-0.9,5.3-1.4c0.2-0.1,0.5-0.2,0.8-0.4c-2.5-3.8-5-7.5-7.6-11.4c1,0,1.8,0,2.6,0c1.5,0,1.5,0,1.8-1.5
		c0-0.1,0.1-0.1,0.2-0.2c3.5,0.7,7,1.4,10.5,2c3.8,0.7,7.7,1.5,11.5,2.2c0.3,0.1,0.9,0,1-0.2c0.8-1,1.4-2.1,2.3-3.4
		c-8.5-1.3-16.7-2.6-24.9-3.8C180.8,189.8,180.9,188.8,181.1,187.8z M162.2,194.5c-9,2.8-18,5.5-27,8.3c-0.2,0-0.3,0.1-0.6,0.2
		c-0.4-0.8-0.8-1.6-1.2-2.5c9.9-2.6,19.8-5.2,29.6-7.7C163.4,194,163.3,194.1,162.2,194.5z M181.6,206.6c0,0.1,0.1,0.1,0.1,0.3
		c-1.4,0.4-2.8,0.8-4.1,1.1c-0.2,0-0.6-0.1-0.7-0.3c-2.1-4.5-4.1-9-6.3-13.6c0.9,0,1.6,0,2.4,0c0.1,0,0.3,0.2,0.4,0.3
		C176.2,198.5,178.9,202.6,181.6,206.6z M178.8,195c-1.1,0-2.2,0-3.3,0c-0.3,0-0.6-0.3-0.8-0.6c-0.4-0.9-1.1-1.1-2-1.1
		c-1.1,0.1-2.2,0-3.5,0c0.2,0.7,0.4,1.1,0.6,1.8c-1.7,0-3.3,0-5,0c-0.1,0-0.4-0.3-0.4-0.4c-0.1-1.9-0.2-3.7-0.3-5.7
		c5.2-0.2,10.4-0.3,15.7-0.5C179.4,190.7,179.1,192.8,178.8,195z M203.9,195.2c-0.5,0.8-0.9,1.5-1.4,2.1c-0.1,0.1-0.5,0.2-0.7,0.1
		c-6-1.2-12.1-2.4-18.1-3.5c-1.1-0.2-2.3-0.5-3.4-0.7c0.1-0.5,0.2-1,0.2-1.6C188.3,192.8,196,194,203.9,195.2z"/>
</g>
<g>
	<path d="M256.9,100.9c-1.3-7.4-5.2-13.2-11-17.8c-8.4-6.8-18.1-10.8-28.4-13.6c-2-0.5-4-1-5.8-1.5c0.4-2.7,0.9-5.1,1.1-7.5
		c0.4-5.2-0.5-10.3-4.2-14.1c-4.2-4.5-8.9-8.7-13.6-12.6c-6.5-5.4-13.5-10.2-21.3-13.6c-6-2.6-12.2-3.9-18.7-2.8
		c-2.9,0.5-5.6,0.4-8.4-0.1c-2.8-0.5-5.9-0.6-8.7-0.1c-10.3,1.9-17.6,7.5-21.4,17.6c-1.5,3.9-2.8,9.1-4,13.1c0.2,0,0.3,0.1,0.5,0.1
		c0.3,0.1,0.6,0.2,0.9,0.3c1.6-5,3.5-11.1,5.8-15.9c4.1-8.7,11.5-13.2,21.1-13.8c2.5-0.2,5,0.2,7.5,0.4c0,0.3,0.1,0.5,0.1,0.8
		c-4.1,2-8.1,3.9-12.4,6c0.9,0,1.6,0.2,2.2,0c3.4-1.2,6.9-2.2,10-3.9c9-4.8,17.9-3.6,26.6,0.4c8.5,3.9,15.8,9.7,22.9,15.7
		c2.4,2,4.5,4.2,6.9,6.2c4.2,3.4,5.7,8,5.9,13.1c0.1,2.8-0.3,5.6-0.5,8.4c-0.1,1.3-0.8,1.6-2.1,1.4c-12.2-2-24.4-2.5-36.7-1.4
		c-4.7,0.4-9.4,1.4-13.9,2.7c-3.9,1.1-7.6,1.2-11.5,0.8c-11.8-1.2-23.7-1.4-35.6-0.3c-1.8,0.2-2.2-0.1-1.8-1.5
		c0.1-0.4,0.2-0.9,0.4-1.3c-0.1,0-0.1,0-0.2,0c-0.6,0.1-1.2,0-1.7-0.1c-0.6,1.8-1.3,3.6-2,5.4c-0.8,1.9-1.2,4-1.8,6.2
		c-1-0.6-1.7-1.1-2.5-1.6c-6.4-4.2-13-7.9-20.1-10.5c-6.1-2.2-12.4-3.8-19-2.1c-9,2.2-14.1,12.7-7.6,20.6c2.6,3.2,6,5.3,9.8,7
		c6.4,2.8,13.2,2.9,20.1,2.6c10-0.5,20-1.1,30-1.6c0.7,0,1.6,0.3,2,0.8c1.8,1.7,3.4,3.6,5.1,5.4c10.1,10.7,21.1,20.3,34.2,27.4
		c3.7,2,7.4,3.8,11.1,5.5c-0.2-0.6-0.1-1.3,0.2-1.9c-7.5-3.3-14.5-7.7-21.3-12.5c-8-5.7-15.4-11.9-22.1-19.1
		c-1.6-1.7-3.1-3.6-4.7-5.4c0.1-0.2,0.2-0.4,0.3-0.5c1.2,0.2,2.4,0.2,3.5,0.6c4.9,2.2,9.7,4.4,14.5,6.8c5.2,2.6,10.4,5.4,15.6,8.1
		c4.5,2.3,9,4.2,13.7,5.7c-0.6-1.5,0.1-3.6,2.2-3.6c1.5,0,2.2,1,2.4,2.1c0.8,0.7,1,2,0.6,3c4.1,1.1,8.3,1.8,12.6,2.2
		c4.8,0.4,9.6,0.5,14.3-0.5c6.5-1.4,8.2-5.8,4.1-11.1c-3-3.9-7.1-6.5-11.5-8.7c-2.5-1.2-5-2.2-7.7-3.4c0.7-0.1,1.4-0.2,2-0.2
		l0.1-0.4c-2.5-0.5-5-1-7.5-1.5c-15.5-2.5-31.1-2.9-46.8-2.2c-9.8,0.4-19.6,0.9-29.4,1.5c-6.9,0.4-13.7,1.2-20.5,1.3
		c-7.2,0.1-14.4-1-20.9-4.6c-3-1.7-5.5-4-6.4-7.5c-1.8-6.8,2.3-12.8,9.4-13.9c4.5-0.7,8.8,0.2,13,1.4c9,2.5,17.2,6.9,25.1,11.8
		c0.3,0.2,0.6,0.5,0.9,0.7c0.1,0.1,0.2,0.3,0.5,0.7c-4.9,1-9.6,2-14.3,3c0,0.1,0,0.3,0.1,0.4c5.2-0.1,10.4-0.9,15.6-1.5
		c5.2-0.5,10.4-0.7,15.8-0.8c-3.1,0.9-6.2,1.8-9.3,2.6c-3.3,0.9-6.5,1.7-9.8,2.4c-3.2,0.7-6.5,1.2-9.7,2.1c2.3-0.2,4.6-0.4,6.9-0.6
		c15.7-1.6,30.4-6.8,44.9-12.4c10.5-4.1,21.4-6.9,32.7-8c8.3-0.8,16.6-0.4,24.9,0.7c10.1,1.3,20,3.4,29.4,7.3
		c6.9,2.9,13.4,6.5,18.6,12c5.1,5.3,7.2,11.8,7.3,19c0.2,14.8-10.1,25.9-23.4,29.6c-8.5,2.4-17.2,2.6-26,2.1
		c-8.9-0.5-17.5-2.1-26.1-4.3c-2.7-0.7-5.2-1.5-7.8-2.4c0,0.1,0,0.1,0,0.2v0.1c0,0,0,0,0,0c0,0.2,0,0.4-0.1,0.7
		c0,0.3-0.2,0.6-0.4,0.8c12.2,4.8,25,7.5,38.6,7.4c7.2,0,14.3-0.3,21.2-2.1c13.5-3.5,21.9-12,25.2-25.6c0.4-1.8,0.6-3.6,1-5.4v-3.4
		C257.3,103.1,257.1,102,256.9,100.9z"/>
	<path d="M64.9,66c-1.6,0.8-3,1.4-4.3,2.2c-4.3,2.7-5.2,7.6-2.1,11.7c2.5,3.4,6.1,5,9.9,6.1c2.3,0.7,4.7,1.1,7.3,1.6
		c-0.4,0.2-0.6,0.3-0.9,0.3c-5.9,0-11.5-1.2-16.2-5.2c-2.9-2.5-4.5-5.6-3.6-9.6C55.9,69.2,59.9,66.2,64.9,66z"/>
	<path d="M202.7,48.3c1.9,1.4,2.5,3.4,2.3,5.5c-0.2,2.3-1.1,4.4-3.4,5c-2.2,0.6-4.6,0.9-6.8,0.5c-6.9-1.2-12.8-4.7-18.4-8.8
		c-4.8-3.5-9.1-7.4-12.1-12.6c-1.4-2.4-2.3-4.9-2.1-7.7c0.2-2.6,1.8-4.8,4-5.4c-0.6,0.9-1.3,1.8-1.7,2.8c-1.1,2.5-0.4,5,0.7,7.3
		c1.9,4.1,5,7.3,8.3,10.3c4.7,4.3,9.9,8,15.8,10.5c3.1,1.3,6.3,2.2,9.7,1.7c4.7-0.8,6.3-3.7,4.2-8.1C203,48.9,202.9,48.6,202.7,48.3
		z"/>
</g>
<g>
	<path d="M141.5,49.4c-0.4-0.3-0.8-0.5-1.3-0.7c0.2-0.9,0.3-1.7,0.5-2.6c0.4-2.2,0.6-4.5,0.3-6.8c0-0.2-0.1-0.4-0.2-0.5
		c-0.4-0.4-0.8-0.8-1.2-1.2c0,0.3,0,0.6,0.1,0.9c0.4,1.8,0.5,3.6,0.4,5.4c-0.1,1.3-0.2,2.7-0.3,4c0,0.2-0.1,0.4-0.1,0.6
		c-3.3-0.4-5.8,1.4-8.4,3.2c0.2-4.3-0.6-8.2-3.4-11.7c1.1-0.8,2.3-1.6,3.4-2.4c1.8-1.2,3.8-2,5.9-2.4c0.3-0.1,0.6-0.1,0.9-0.1
		c0.4,0,0.7,0,0.9,0.5c0.1,0.2,0.7,0.3,1,0.5c0-0.1,0.1-0.1,0.1-0.2c-0.1-0.2-0.2-0.4-0.4-0.7c0.6,0,1.1,0.1,1.6,0.2
		c-0.2-0.6-0.4-1.2-0.6-1.8c-0.3,0-0.5-0.1-0.8-0.1c-1.6-0.1-3.1,0.2-4.6,0.7c-2.4,0.8-4.5,2.1-6.5,3.6c-2.6,2-5.1,4.2-7.6,6.2
		c-1.7,1.4-3.6,2.5-5.8,3c-2.6,0.7-4.9,0.2-6.7-1.9c-1.5-1.7-2.4-3.8-3-6c-0.7-2.4-0.9-4.8-1.1-7.3c-0.1-1.7-0.2-3.5-0.3-5.3
		c-0.2-1.6-0.4-3.2-0.7-4.8c0-0.2-0.2-0.4-0.3-0.5c-0.2,0.2-0.5,0.5-0.7,0.7c0,0.3,0,0.6,0,0.9c0.2,1.9,0.5,3.8,0.7,5.7
		c0.3,2.9,0.5,5.8,0.7,8.8c0,0.4-0.2,0.8-0.4,1.2c-0.3,0.5-0.6,0.8-1,1.3c0.2,0.2,0.4,0.4,0.5,0.5c0.4-0.3,0.8-0.7,1.2-1
		c0.3,0.8,0.5,1.7,0.8,2.6c0.8,2.2,2,4.2,3.9,5.6c0.1,0.1,0.2,0.4,0.1,0.6c-0.2,0.9-0.5,1.8-0.8,2.7c0.3,0.1,0.5,0.2,0.8,0.3
		c0.3-1,0.6-1.9,0.9-2.9c0.6,0.1,1.3,0.4,1.9,0.4c0.9,0,1.7,0,2.6-0.1c0.8-0.2,1.6-0.5,2.5-0.8c0.4,0.9,0.9,1.8,1.4,2.9
		c0.3-0.2,0.6-0.3,1-0.5c-0.5-0.9-1.1-1.7-1.5-2.4c3-2.3,6-4.7,9-7.1c0.8,1.5,1.5,3,2,4.7c0.4,1.3,0.6,2.7,0.7,4.1
		c0,0.8,0.2,1.7,0.3,2.5c0,0.2-0.1,0.6-0.2,0.7c-2.4,2.1-4.8,4.2-7.2,6.4c-0.1,0.1-0.2,0.3-0.2,0.4c0.2,0.2,0.4,0.4,0.7,0.7
		c0.2-0.2,0.5-0.3,0.7-0.5c1.9-1.7,3.9-3.3,5.7-5c1.6-1.4,3.2-2.8,5.1-3.8c1.2-0.7,2.5-1.2,3.9-1.3c1.1-0.1,2.1,0.2,2.9,0.8
		C141.3,50,141.4,49.7,141.5,49.4z"/>
	<path d="M103.3,21.4c-0.2,0.2-0.5,0.5-0.7,0.7c-0.1-0.1-0.2-0.1-0.2-0.2c-0.3-0.9-0.7-1.8-1-2.7c-0.2-0.6-0.6-1.2-0.9-1.7
		c-0.1,0.1-0.1,0.2-0.1,0.3c0.4,2.6-0.4,4.8-2.4,6.4c-1.4,1.2-3.2,1.5-5,1.3c-1.1-0.1-2.2-0.5-2.9-1.6c-1.5-2.1-1.5-4.4-0.5-6.7
		c0.8-1.7,1.8-3.2,3.7-3.9c0.2-0.1,0.4-0.2,0.7-0.3c-4.6-0.9-8.8-0.3-13,1.4c1.7,1.7,2.1,3.8,1.4,5.8c-0.8,2.6-3.3,4.2-6,4
		c-1.6-0.2-2.8-0.9-3.4-2.5c-0.1-0.3-0.2-0.6-0.3-1c-0.1,0-0.1,0-0.1,0.1c-1.5,2.2-2.1,4.6-1.7,7.3c0.6,4.3,3.8,6.5,7.4,6.9
		c1.9,0.2,3.8,0.1,5.8,0.1c1.5,0,2.9,0,4.3,0.5c0.2,0.1,0.3,0.2,0.4,0.3c-0.3,0.3-0.6,0.6-1,1c-1.6-0.5-3.3-0.5-5-0.4
		c-1.2,0-2.3,0.2-3.5,0.2c-1.8,0-3.6-0.3-5.2-1.3c-2.3-1.3-3.7-3.3-4.3-5.9c-0.7-3.3,0.2-6.2,2-8.9c0.5-0.7,0.8-1.5,1-2.4
		c0.6-2.3,1.8-4.2,4.4-4.8c0.8-0.2,1.6-0.1,2.4,0.2c0.2,0.1,0.4,0.1,0.5,0c2.2-1,4.4-1.8,6.8-2.1c1.7-0.3,3.5-0.3,5.3-0.1
		c2.3,0.2,4.4,1,6.4,2.3c2,1.4,3.2,3.4,4.2,5.6c0.2,0.5,0.4,1.1,0.6,1.7C103.3,21.1,103.3,21.3,103.3,21.4z M99.1,22.3
		c-1.6,2-4.1,2.1-5.8,1c-1.6-1-2.4-3-1.9-4.9c0.6-1.8,2.1-3.2,4.3-3.1c1.3,0,2.3,0.6,3.1,1.5c0.8,0.9,1.1,2,1.1,3.3
		c0.2-2-0.1-3.2-1.4-4.5c-1.9-1.8-4-2.3-6.2-1c-1.6,0.9-2.5,2.4-3,4.2c-0.5,1.8-0.1,3.4,1.2,4.7c1.5,1.5,3.4,1.8,5.4,1.2
		C97.4,24.4,98.4,23.5,99.1,22.3z M81.4,21.6c-2.5,1.6-4.7,1.4-5.8-0.6c-1-1.8-0.3-4.1,1.6-5c2.1-1,4.1,0,5.2,2.9c0-0.3,0-0.4,0-0.6
		c-0.2-1.2-0.7-2.2-1.7-3c-1.7-1.3-3.1-1.6-5-0.6c-1.5,0.8-2.3,2.2-2.7,3.8c-0.3,1.4-0.1,2.8,1,3.9C75.9,24.5,79.7,24.1,81.4,21.6z
		 M95.9,17.4c0-0.7-0.4-1.2-1.1-1.2c-0.7,0-1.3,0.5-1.3,1.2c0,0.6,0.6,1.2,1.2,1.2C95.4,18.6,95.9,18.1,95.9,17.4z M77,17.2
		c0,0.6,0.4,1,1,1c0.6,0,1-0.4,1-1c0-0.6-0.4-1-1-1C77.3,16.2,77,16.6,77,17.2z M93.3,19.2c0-0.4-0.2-0.6-0.5-0.6
		c-0.4,0-0.6,0.2-0.6,0.6c0,0.4,0.2,0.6,0.6,0.6C93.1,19.7,93.3,19.6,93.3,19.2z M77,18.8c-0.3-0.3-0.5-0.5-0.7-0.5
		c-0.2,0.1-0.4,0.3-0.5,0.5c0.2,0.2,0.3,0.4,0.5,0.4C76.5,19.2,76.7,19,77,18.8z"/>
	<path d="M87.8,36.9c0.3-0.3,0.6-0.6,1-1c0.2,0.1,0.5,0.1,0.7,0.2c1.1,0.8,1.8,1.9,2.2,3.1c0.3,0.9,0.8,1.4,1.6,1.7
		c0.9,0.3,1.9,0.6,2.8,0.6c1.1,0.1,2.2-0.1,3.3-0.2c0,0.1,0.1,0.3,0.1,0.4c0,0.2,0.1,0.4,0.1,0.6c-2.6,0.5-5.1,0.7-7.5-0.9
		c0,0.2,0,0.4,0,0.6c0.1,1.7,0.3,3.3,0.4,5c0.1,2.5,0.3,5,0.9,7.5c0.7,2.8,1.8,5.4,4,7.4c0.4,0.4,0.8,0.6,1.5,0.4
		c1.4-0.3,2.6-1.1,3.6-2c1.6-1.3,2.7-3,3.7-4.8c0.6-1.1,1.2-2.3,1.8-3.5c0.2,0.1,0.4,0.2,0.7,0.3c-0.5,1-1,1.9-1.5,2.8
		c-0.9,1.7-1.9,3.3-3.2,4.7c-1.4,1.5-2.9,2.7-5,3.4c0.5,0.3,1,0.5,1.4,0.7c0.3,0.2,0.6,0.3,0.9,0.5c-0.3,0.3-0.7,0.7-1,1
		c-0.7-0.3-1.5-0.6-2.1-1c-3.2-2-5-5.1-5.8-8.6c-0.4-1.9-0.7-3.8-0.9-5.7c-0.2-2-0.3-4-0.5-6c-0.2-1.9-0.5-3.7-1.4-5.4
		C89.2,38,88.6,37.3,87.8,36.9z"/>
	<path d="M100.3,65.6c0.3-0.3,0.7-0.7,1-1c0.2,0,0.4,0,0.5,0c2.7,0.9,5.5,0.9,8.3,0.5c3.6-0.5,6.8-2,9.7-4c0.1-0.1,0.3-0.3,0.3-0.5
		c0.3-1.8,0.1-3.5-0.3-5.2c-0.3-1.3-0.6-2.6-1-3.9c0.3-0.2,0.6-0.3,1-0.6c0.9,3,1.8,6,1.4,9.1c0.4-0.2,0.7-0.4,1.1-0.6
		c0.2,0.2,0.4,0.4,0.7,0.7c-1.1,0.9-2.2,1.8-3.4,2.7c-2.1,1.5-4.4,2.6-7,3.3c-2.3,0.6-4.6,0.9-7,0.8c-1.7-0.1-3.5-0.4-5.1-1.1
		C100.5,65.7,100.4,65.6,100.3,65.6z"/>
	<path d="M98.7,12.2c-2.1-2.3-4.4-3.1-7.2-1.3c0.2-1.1,0.9-1.8,1.7-2.3c1.4-1,3.1-1.1,4.3-0.3c1.1,0.7,1.7,2.3,1.4,3.3
		C98.9,11.8,98.8,11.9,98.7,12.2z"/>
	<path d="M81.8,12.4c-1.7-2.1-3.8-2.4-6.3-1.2c0.6-0.9,1-1.9,2-2.3c1-0.4,2.2-0.6,3.2,0c0.9,0.6,1.4,1.5,1.4,2.6
		c0,0.3-0.1,0.5-0.2,0.8C81.9,12.4,81.9,12.4,81.8,12.4z"/>
	<path d="M103.2,40.5c-0.7,0.5-1.4,0.9-2.1,1.4c0,0-0.1,0-0.2,0c-1,0.4-1,0.4-1.2-0.6c0.9-0.4,1.8-0.9,2.7-1.3c0.1,0,0.1,0,0.2,0
		C102.8,40.1,103,40.3,103.2,40.5z"/>
	<path d="M139.5,37.6c0.4,0,0.9-0.1,1,0.1c0.2,0.2,0.1,0.7,0.2,1.1C140.3,38.4,139.9,38,139.5,37.6z"/>
</g>
<path d="M133.7,30c-4.8,0-8.8,5.1-9.4,11.7c1.2-0.7,2.4-1.4,3.5-2.3c0.2-0.2,0.8-0.7,0.9-0.7c0.6-0.5,1.2-0.9,1.8-1.4
	c0.6-0.4,1.2-0.8,1.9-1.1c3.2-1.5,7-0.9,8.9,2.3c0.8,1.4,1,3.2,0.7,4.8c0,2.7-1.5,5.3-4.4,6.2c-0.7,0.2-1.4,0.4-2.2,0.4
	c-0.4,0.3-0.8,0.6-1.2,0.8c-1.8,1.2-3.7,2.3-5.5,3.5c-0.1,0.1-0.2,0.1-0.3,0.2c1.5,1.4,3.3,2.3,5.3,2.3c5.2,0,9.5-6,9.5-13.4
	S139,30,133.7,30z"/>
<g>
	<path d="M75.4,124.8c1.1-0.7,2.2-1.5,3.5-2.3c0.4,0.8,0.7,1.6,1.1,2.3c-0.8,0.5-1.6,1-2.4,1.6c-2.1,1.6-3.3,3.7-4.2,6.1
		c-0.8,2.1-1.1,4.2-1.4,6.4c0,0.2,0,0.3,0,0.6c0.6-0.8,1.1-1.5,1.7-2.2c3.5-4.2,7.9-6.9,13.4-7.8c4.5-0.7,8.8,0,12.9,2
		c4.8,2.3,8.9,5.6,11.6,10.3c1.6,2.8,2.5,5.9,2.9,9.1c0.6,5.4-0.2,10.7-1.6,16c-2,7.6-5.1,14.9-8.3,22.1c-1.3,2.9-3,5.5-5.3,7.7
		c-2.1,1.9-4.6,3.1-7.5,3.4c-2.4,0.3-4.7-0.1-7-0.4c-1.7-0.2-3.5-0.5-5.2-0.6c-2.4-0.2-4.6,0.5-6.8,1.4c-2.9,1.2-6,1.7-9.2,1.7
		c-5-0.1-9.6-1.6-13.9-4.3c-4.9-3.2-8.7-7.4-11.7-12.3c-3.4-5.4-5.6-11.3-6.8-17.6c-0.6-3.3-0.9-6.7-0.7-10.1
		c0.3-5.9,1.8-11.4,5.2-16.3c2.9-4.1,6.6-7.3,11.4-9c3.4-1.2,6.7-0.8,10,0.5c2.8,1.1,5.3,2.7,7.9,4.2c1.4,0.8,2.8,1.5,4.2,2.2
		c0.2,0.1,0.3,0.1,0.6,0.2c0.3-4.2,1-8.2,3.3-11.8c-1,0.4-1.9,0.8-2.9,1.1c-3.1,1.1-6.3,1.5-9.6,1.2c-5.2-0.5-9.8-2.5-13.8-5.8
		c-3.3-2.7-5.8-5.9-7.9-9.5c-0.1-0.1-0.1-0.3-0.2-0.5c1-0.2,1.9-0.4,2.8-0.6c2.4-0.5,4.8-0.9,7.2-1.3c3.2-0.6,6.3-0.9,9.5-0.6
		c5.6,0.4,10.1,2.9,13.4,7.3C73,120.8,74.1,122.9,75.4,124.8z M70.8,141.4c-2.7-0.7-4.9-2-7.2-3.3c-2.3-1.3-4.6-2.6-7-3.7
		c-3.8-1.7-7.6-1.6-11.3,0.4c-3.6,1.9-6.5,4.6-8.7,8.1c-3,4.7-4.2,9.9-4.5,15.5c-0.1,2.8,0.1,5.6,0.6,8.4c0.7,4.4,2,8.6,3.9,12.6
		c2.7,5.8,6.4,10.9,11.4,14.9c3.8,3,8.1,5,12.9,5.6c4.1,0.5,8.1-0.2,11.9-1.8c2.6-1.1,5.4-1.4,8.2-1.1c2.7,0.3,5.3,0.7,8,0.9
		c2.9,0.2,5.6-0.4,8-2.2c2.3-1.8,3.9-4,5.1-6.6c1.9-4.2,3.7-8.4,5.3-12.7c2.1-5.5,3.9-11.1,4.6-17.1c0.4-3.4,0.5-6.8-0.2-10.2
		c-0.7-3.4-2.1-6.5-4.3-9.1c-2.3-2.7-5.1-4.7-8.3-6.3c-4.7-2.3-9.5-2.8-14.5-1.2c-4.6,1.5-8,4.4-10.6,8.4c-0.9,1.5-1.7,3-3.1,4.1
		c-0.4,0.3-0.8,0.6-1.2,1c-0.5-0.7-0.9-1.4-1.3-2C69.2,143.1,70,142.3,70.8,141.4z M40.4,115c0.1,0.2,0.2,0.3,0.3,0.5
		c2,3.2,4.4,5.9,7.3,8.2c3.7,2.9,7.9,4.7,12.6,5.1c3.5,0.3,7-0.2,10.3-1.6c1-0.4,1.9-0.9,2.8-1.3c0-0.1,0-0.1,0-0.2
		c-6.7-2.2-13.5-4.5-20.3-6.7c0.1-0.3,0.2-0.6,0.3-1c6.8,1.8,13.3,4.5,20,6.6c-0.4-0.9-0.9-1.7-1.4-2.5c-1.8-2.9-4-5.4-7.1-7.2
		c-3.8-2.2-8-2.5-12.2-2.1c-2.7,0.3-5.3,0.8-8,1.2C43.6,114.3,42,114.7,40.4,115z"/>
</g>
</svg>
