<?xml version="1.0" encoding="utf-8"?>
<!-- Generator: Adobe Illustrator 17.1.0, SVG Export Plug-In . SVG Version: 6.00 Build 0)  -->
<!DOCTYPE svg PUBLIC "-//W3C//DTD SVG 1.1//EN" "http://www.w3.org/Graphics/SVG/1.1/DTD/svg11.dtd">
<svg version="1.1" id="Layer_1" xmlns="http://www.w3.org/2000/svg" xmlns:xlink="http://www.w3.org/1999/xlink" x="0px" y="0px"
	 viewBox="0 0 288 216" enable-background="new 0 0 288 216" xml:space="preserve">
<g>
	<path d="M237.2,75.2c-2.3-1.9-5.1-3.4-8-4.5c-9.2-3.6-18.5-6.9-27.8-10.3c-11.2-4.1-22.4-8.2-33.6-12.4c-5.8-2.1-11.7-4.3-17.5-6.4
		c-1.3-0.5-1.6-1.1-1.8-2.2c-0.4-2.7,1.1-4.3,3.6-5.9c5.7-3.5,8.8-8.2,7.6-14.1c-1.2-5.9-8-10.8-16.8-10.2
		c-7.1,0.5-13.9,6.4-13.6,11.8c0.1,2.2,1.3,3.5,3.5,3.6c2.7,0.1,4-0.8,4.3-3.3c0.3-2.5,2.8-5,5.5-5.5c3.2-0.6,6.2,0.2,7.8,2.2
		c2.3,2.8,2.3,5.3,0.1,7.6c-1,1-2.2,2.1-3.5,2.8c-4.5,2.7-6.9,6.1-6.2,10.7c0.2,1.4-0.7,2-2,2.5c-4.3,1.6-8.5,3.2-12.8,4.7
		c-10,3.7-20,7.3-29.9,11c-9.2,3.4-18.5,6.7-27.6,10.1c-4.7,1.7-9.2,3.7-13.7,5.6c-6.6,2.8-5.8,11.5,1,14.7c2.7,1.2,5.5,1.3,8.3,1.3
		c18,0,36,0,54.1,0c-1.1-1.5-2.4-2.9-3.7-4.4c-0.6-0.4-1.1-0.8-1.6-1.2c-0.3-0.3-0.6-0.6-0.7-0.9c-16.4,0-32.8,0-49.3-0.1
		c-1.4,0-3.2-0.6-4.1-1.4c-1.2-1.1-0.9-2.4,1-3.1c5-1.9,9.9-3.8,15-5.7c8.6-3.2,17.2-6.4,25.7-9.5c9.1-3.4,18.3-6.7,27.5-10
		c4.8-1.8,9.6-3.5,14.4-5.4c1.6-0.6,3.1-0.8,4.8-0.1c9.5,3.5,19,7,28.4,10.5c10.1,3.7,20.2,7.4,30.3,11.2c7.6,2.8,15.2,5.7,22.8,8.6
		c1.6,0.6,3.5,1,2.8,3c-0.6,1.8-2.4,2.2-4.5,2.2c-9.3,0-18.7,0-28,0c0.3,0.2,0.5,0.4,0.7,0.7c1.1,1.9,2,3.7,2.3,5.7
		c8.2,0,16.4,0,24.6,0c4.3,0,7.8-0.9,10.7-3.6C239.5,82.9,240.2,77.6,237.2,75.2z"/>
</g>
<g>
	<path d="M129.6,171.8c-3.2,2.2-4.3,2.5-8.6,2.7c0,1.1,0,2.3,0,3.6c0.1,0,0.3,0.3,0.5,0.3c4.2-0.4,5.8,2.4,8.1,4.4
		c0.6,0.5,1.1,1.4,1,2c-0.2,1.1-0.6,2.3-1.3,3.1c-3.7,4.3-10.9,5.5-16.2,4.7c-1.8-0.3-3.5-1.4-5.2-1.3c-3.1,0.2-4.9-1.6-7.2-2.6
		c-1.8-0.8-2.3-4.3-1.3-6.3c1.2-2.6,4.1-3.7,6.9-4.8c1.4-0.5,2.9-0.7,4.5-1.1c0.3-1.3-0.8-1.6-2-2.2c-3.7-1.6-7.1-3.5-10.8-5.1
		c-4.1-1.8-6.6-4.7-9-7.8c-3.7-4.6-6.6-9.9-9.1-17.9c-0.4-1.2-0.7-2.5-0.9-3.7c-0.2-1.2-0.9-2.5-0.9-3.7c0-1.7-0.4-3.3-1-4.9
		c-0.6-1.6,0.7-3.4-1-4.9c-0.1-0.1,0-0.3,0-0.4c0.7-4.1-1.2-8-1-12.1c0.2-4-0.6-8.1,0.2-12c1-4.9,1.3-10.1,3.8-14.8
		c0.5-1,0.9-2.2,1.9-3c2.6-2.1,4.8-4.6,8.3-6c1.4-0.5,2.7-1.4,4.1-1.6c2.6-0.5,5.3-0.9,8-0.9c5.5-0.1,10.9-0.1,16.4,0
		c2.2,0,4.4,0.6,6.5,0.7c5.4,0.3,10.6-1.2,16-0.8c5.4,0.3,11,0.6,16.4-0.1c4.9-0.6,10-0.5,14.7-2.2c1.4-0.5,3-0.1,4.6-0.6
		c2.4-0.8,5.3-0.7,7.9-1c2.9-0.4,5.8,0.3,8.3,1.2c2.5,0.9,3.8,3.3,5.2,5.4c2,3,3.7,6,4.2,9.5c0.3,2.1,1,4.4,1.7,6.6
		c0.7,2.2,0.6,4.7,1.2,6.9c1.6,5.6,0.3,11.1,0.8,16.6c-1.3,2.1-0.4,4.4-1.2,6.5c-0.7,1.9-0.9,3.9-1.6,5.9c-0.7,1.9-0.7,4-1.2,6
		c-1,3.5-2,7-3.5,10.5c-2.9,6.9-6.9,13.5-9.8,20.5c-0.5,1.1,0.1,2.4-0.9,3.3c-1.1,0.9,0,2.3-0.8,2.9c-1.2,1.1-0.7,2.2-0.9,3.3
		c-0.2,1.1-0.7,2.2-1,3.3c-0.5,1.7,0.9,3.3,0.9,4.9c-0.1,3,1,6-0.8,9c-0.5,0.9,0,2.1-0.1,3.2c-0.1,0.8-0.7,1.6-0.9,2.5
		c-0.5,2-1.5,3.8-3.1,5.4c-3,2.8-10.1,3.9-14.8,3.2c-4.5-0.7-7.9-2.9-11.5-4.7c-0.6-0.3-0.9-1-1.3-1.5c-2.3-2.5-4.1-5.3-5.8-8.1
		c-1.7-3-4.4-5.6-7-8.1c-3.2-3.1-5.8-6.6-8.4-10.1C130.7,174.3,130.2,173.1,129.6,171.8z M128.7,184.5c-0.2-0.2-0.3-0.3-0.5-0.5
		c-0.1,0.1-0.3,0.2-0.4,0.4c0.2,0.1,0.4,0.3,0.6,0.4c0,0,0.2-0.2-1-0.7c0.1,0,0.3,0,0.4,0c-0.1-0.2-0.1-0.4-0.3-0.6
		c0-0.1-0.4,0.1-0.6,0.1C127,183.7,127.2,183.9,128.7,184.5z M153.6,199.3c0.3,0.3,0.7,0.5,1,0.8c-0.3,1.3,0.4,1.9,2,1.6
		c0.3,0.3,0.7,0.5,1,0.8c0.3,0.3,0.7,0.5,1,0.8c0.3,0.3,0.7,0.5,1,0.8c0.1,1.2,1.2,0.7,4.4,1.7c-0.7-0.6-0.9-0.9-1-0.9
		c-0.5,0.1-0.9,0.2-1.4,0.3c0.6,0.1,1.2,0.3,0-0.4c-0.1-1.2-1.2-0.7-2-0.8c-0.3-0.3-0.7-0.5-1-0.8c-0.3-0.3-0.7-0.5-1-0.8
		c-0.3-0.3-0.7-0.5-1-0.8c-0.7-0.5-1.3-1.1-2-1.6C154.3,199.9,153.9,199.6,153.6,199.3c-0.3-0.3-0.7-0.5-1-0.8
		c-0.1-0.6,0.5-1.5-1.4-1.6c0.1,0,0.3,0,0.4,0c-0.1-0.2-0.1-0.4-0.3-0.6c0-0.1-0.4,0.1-0.6,0.1c0.2,0.2,0.3,0.3,0.9,0.5
		c0.1,0.6-0.5,1.5,1,1.6C152.9,198.8,153.3,199.1,153.6,199.3z M141.6,183.7c-0.2-0.2-0.3-0.3-0.5-0.5c-0.1,0.1-0.3,0.2-0.4,0.4
		c0.2,0.1,0.4,0.3,0.6,0.4c0,0,0.2-0.2-0.6-0.7c-0.1-0.6,0.5-1.5-1-1.6c0.2-1.2-0.4-2.1-2-2.4c-0.1-0.5-0.1-1-0.4-1.5
		c-2.4-4.1-4.9-8.2-7.3-12.4c-0.6-1.1-1.2-2.4-1.2-3.6c-0.2-5.6-1.4-11.2-1.1-16.9c0.3-6.9,0.1-13.9,0-20.9c0-1.9-0.8-3.8-0.9-5.7
		c-0.2-2.1,0-4.3,0-6.4c0-0.1,0.1-0.3,0-0.4c-1.3-1.2-1.1-2.7-0.9-4.1c0.2-1.6-0.9-3-1-4.5c-0.2-2.4-0.3-4.9-0.9-7.3
		c-0.6-2.6-1.6-5.1-2.9-7.5c-2.6-4.6-6.3-8.5-10.8-12c-5,0.3-10,0.7-15,1c-0.1,0-0.2,0.4-2.7,0.9c0.7,0.3,1.1,0.6,1.2,0.5
		c0.4-0.2,0.8-0.5,1.2-0.8c-0.6,0.1-1.3,0.2,0,0c3.3,0,6.6,0.2,9.9-0.1c3.9-0.3,6.5,1.3,8.7,3.5c4,4.1,7.3,11.6,8.3,16.9
		c0.4,1.9,0.4,4,1.1,5.6c0.7,1.6,0.4,3.1,0.8,4.6c0.3,1.5,0.8,3,1,4.5c0.4,3.5-0.2,7,0.9,10.6c0.8,2.7,0,5.6,0.2,8.4
		c0.2,2.7,0.7,5.4,0.9,8.1c0.2,2.4,0.2,4.8,0,7.2c-0.2,2.4-0.9,4.9-0.9,7.3c0,4.1-1,7.7-3.6,11.3c-2.8,3.9-7.1,4.6-11.7,5.4
		c-3.5-1-7.4-1.9-9.5-4.5c-2.5-3.1-5.9-5.9-7.1-9.7c-2.1-1.1-2.5-3.2-3.8-4.8c-1.3-1.5-2.2-3.3-3.2-4.9c-1-1.7-2-3.4-2.8-5.1
		c-1.4-2.9-3.2-5.8-3-9c0-0.2-0.6-0.4-1.7-0.6c0.2,0,0.5,0,0.7,0.1c0-0.8,0-1.6,0-2.4c0-0.8-0.2-1.6-0.2-2.4c-0.2,0-0.3,0-0.5,0
		c0,1.6,0,3.2,0.7,4.8c0.3,3.2,0.7,6.5,1,9.7c0,0.1,0,0.3,0.1,0.4c1.4,2.4,1.9,5,2.9,7.5c2.4,5.7,5.9,10.8,11.1,15.2
		c4,3.4,8,5.2,15.4,7.8c0.8,0.3,2.6,0.2,2.4,1.9c-0.2,1.3,1.1,1.9,2.9,1.9c1.8,0,2.8-0.6,2.9-2c0.1-1.8,1.4-2.3,3.3-2.1
		c1.9,0.2,3.6-0.5,4.7-1.4c1.6-1.2,3-1.2,4.5-0.9c1.8,3.3,2.5,6.8,6.5,8.7c-0.2,1.2,0.4,2.1,2,2.4
		C139.8,182.3,139.2,183.2,141.6,183.7z M192.4,75.4c0.1,0.6-0.5,1.5,0.9,1.6c0.2,0.5,0.2,1.1,0.5,1.5c2.2,3.3,3.7,6.8,4.8,10.5
		c0.5,1.8,0,4,1,5.2c1.4,1.6,0.3,3.2,1.4,4.8c1,1.5,0.2,3.6,0.5,5.5c0.2,1.8,0.9,3.5,0.9,5.3s-0.7,3.5-0.9,5.3
		c-0.3,2.4,0.2,4.9-0.9,7.3c-0.8,1.9,0.6,4.2-1.1,6.1c-0.4,4.6-2.2,8.9-4,13.1c-1.6,3.8-2.5,7.7-5,11.2c-2.5,3.5-3.1,7.6-5.8,10.9
		c-1.3,1.6-2.2,3.6-3,5.4c-2.3,5-2.1,10.3-2.9,15.5c-0.6,3.7,0.4,7.6-0.9,11.3c-0.5,1.4-1.2,2.9-1.6,4.3c-0.5,1.8-1.8,2.9-3.3,4.2
		c-0.6,0.5-1.1,1-1.6,1.5c-2.3,0-4.4,0-6.5,0c4,1.4,7.7,0.1,11.6-0.3c2-1.7,4.4-3.1,4.9-5.6c0.2-1.1,0.8-2.2,1-3.3
		c0.4-2.3,1.2-4.8,0.8-7c-1.2-5.8,0.1-11.5,0.6-17.2c1.9-1.8,1.5-4.3,2.6-6.4c1.2-2.2,2.1-4.4,3.2-6.6c1.6-3.2,3.3-6.4,4.9-9.6
		c0.7-1.5,1-3.2,1.8-4.6c1.8-3.1,2.4-6.5,3.3-9.7c0.5-2.1,1.8-4.2,1.1-6.5c2.5-3.9,1.5-8.2,2.9-12.3c1-3-0.1-16-0.9-19.7
		c0-0.1,0-0.3,0-0.4c-1.4-2.2-1.2-4.7-2-7c-1.2-3.2-1.1-6.8-3.9-9.5c-1-1-0.9-2.8-3-3.2c-0.1-0.6,0.5-1.5-1-0.7c0.1-2,0.1-3-1.9-2.3
		C190.9,74.7,191.4,75.2,192.4,75.4z M79.7,91.6c0.6-0.2,1.1-0.2,1.1-0.4c1.8-4.1,4.7-7.5,8.8-10.3c0.8-0.6,1.9-1.1,2.2-2.3
		c-5.4,1.1-7.7,4.9-10.6,7.8c-1.2,1.2-1,3.4-1.3,5c-1.6,0.9-0.6,2.1-0.8,3.1c0,0,0.4,0.1,0.8,0.2C79.9,93.5,79.9,92.5,79.7,91.6z
		 M166.1,202.7c3.1-0.9,4.5-2.3,5.4-4.4c1.5-3.5,2.5-7,2.9-10.7c0.6-6.3-0.7-12.7,0.9-19c0.8-3,1.3-5.9,3-8.7c2-3.2,3.8-6.5,5.5-9.8
		c1-1.8,2-3.7,2.4-5.6c0.3-1.7,0.2-3.4,1.5-4.7c1.4-1.4-0.5-3.5,1.5-4.7c0.9-4,3.5-7.7,3-11.9c0-0.3-0.1-0.7,0-0.8
		c1.9-1.4,0.9-3.3,0.9-4.9c-0.1-1.5,0.6-2.9,0.3-4.6c-0.6-3.3-0.3-6.7-0.2-10c0.2-3.4-1.7-6.7-1.1-10.1c0.2-1.1,0.4-2.3,0-3.2
		c-2.8-5.7-4.7-11.8-10-16.9c-1.3,1.9-3.9,0.4-5.2,1.2c-2.1,1.2-4.5,0-6,0.8c-1.9,1-4.3,0-5.7,1.5c-4.7,0.3-9.3,0.7-14,0.8
		c-9.6,0.1-19.2,0-28.8,0c-1.2,0-2.4,0.1-3.6,0.2c1.8,1.8,3.5,3.4,4.9,5.1c0.9,1.2,0.7,2.8,1.3,4c2,4.2,2.1,8.6,3.7,12.8
		c0.7,1.9,0,4,0.9,6.1c0.8,1.8,0.6,4,1.1,6.1c0.6,2.9,0.4,5.9,0.9,8.9c1,5.7,1,11.6,1.1,17.3c0.2,7,0,13.9,0.1,20.9
		c0,2,0.6,4.1,1,6.1c0.1,0.5,0.8,0.8,0.9,1.3c0.8,3.3,2.8,6.3,4.7,9.3c1.9,2.9,4.6,5.4,6.9,8.1c2.1,2.4,4.3,4.6,6,7.2
		c1.8,2.8,3.4,5.8,6.6,7.8C161.3,199.9,163.7,201.3,166.1,202.7z M122.8,117.8c-0.5-2.2,0.3-4.5-0.9-6.9c-1-2-0.6-4.6-1-6.9
		c-0.8-5.1-2.1-10-4.2-14.7c-1.8-4-5.5-9.3-11.8-10.3c-2.2-0.4-10.7,0.1-12.3,1.3c-2.3,1.7-4.8,3.4-6.4,5.5c-4,5.2-6,11-6.6,17.1
		c-0.1,0.9-0.5,1.8-0.4,2.7c0.2,3.2-0.6,6.5,0.8,9.8c0.7,1.6,0.4,3.5,0,5.2c-0.4,1.9,1,3.5,1.1,5.3c0.1,2.3,0.4,4.7,1,6.9
		c0.7,2.4,2.1,4.7,2.9,7.1c0.9,2.5,2.3,4.9,3.5,7.3c1.5,3,3.8,5.7,5.8,8.5c2.3,3.3,4.3,6.9,8.2,9.3c0.5,2.5,3.6,2.5,5.5,3.7
		c1.3,0.8,3.4-0.4,4.4,1.1c3-1.3,6.6-1.9,8.4-4.6c1.6-2.3,2.4-4.9,2.9-7.5c0.3-1.6,0.1-3.2,0.1-4.8s-0.7-3.6,0.2-4.7
		c1.2-1.7-0.2-2.9-0.2-4.2c0.1-4.3-0.3-8.6,0.1-12.9C124.3,126.4,122.2,122.2,122.8,117.8z M101.1,182.7c0,1.6,0,3,0,4.6
		c1.1-0.1,2-0.1,3-0.2c-0.3-1.4-2.1-2.4-0.8-3.8c0.9-1,1.6-2.1,2.7-3.6C103.3,180.4,102.4,181.9,101.1,182.7z M117.9,188.3
		c-0.2-2.7,0.2-5.1-0.3-7.7C113.9,182.8,114,184.9,117.9,188.3z M105.1,183.6c0,1,0,1.9,0,2.9c1.4-0.1,2.6-0.1,4-0.2
		c-0.5-1.1-1.1-1.9-1.1-2.7c0-0.9,0.6-1.7,1.1-3.3C107.2,181.8,106.1,182.7,105.1,183.6z M114.5,181.6c-1.8,0.1-2.9-0.1-3.2,0.3
		c-0.7,0.8-1.2,1.8-1.4,2.7c-0.2,1.3,1.6,2.3,4,2.5C113.4,185.4,111.6,183.7,114.5,181.6z M124,188.1c2.9-2.6,2.3-6.1-1.5-7.8
		C124.7,182.8,123.3,185.5,124,188.1z M120,180.6c0,2.7,0,5,0,7.4c0.6,0,1,0,2,0C121.1,185.6,123.1,183,120,180.6z M77.9,107.7
		c-0.3,0-0.6,0-0.8,0c0,1.8-0.1,3.7,0,5.5c0.1,1.8-0.3,3.7,0.8,5.5C77.9,115.1,77.9,111.4,77.9,107.7z M78.9,120.6
		c-0.3,0-0.6,0-0.8,0c0,1-0.1,2.1,0,3.1c0.1,1-0.5,2.2,0.8,3.7C78.9,124.7,78.9,122.7,78.9,120.6z M77.9,100.5
		c-0.7,1.8-1.2,3.6,0,5.4C77.9,104.1,77.9,102.3,77.9,100.5z M107.8,189.9c-0.6-0.9-1-1.4-1.6-2.5c-0.2,1.1-0.4,1.6-0.3,1.8
		C106.3,189.5,106.9,189.6,107.8,189.9z M78.8,95.5c-0.2,0-0.3,0-0.5,0c0,0.5,0,1.1,0,1.6c0.2,0,0.3,0,0.5,0
		C78.8,96.6,78.8,96.1,78.8,95.5z M114.3,178.4c-0.1,0.1-0.3,0.2-0.3,0.3c0.1,0.2,0.2,0.4,0.3,0.5c0.1-0.1,0.3-0.2,0.3-0.3
		C114.6,178.8,114.5,178.6,114.3,178.4z M110.2,189c-0.1,0.1-0.2,0.2-0.4,0.3c0.2,0.1,0.4,0.2,0.7,0.3c0.1,0,0.2-0.2,0.3-0.3
		C110.6,189.2,110.4,189.1,110.2,189z M119,178.9c0.1,0.1,0.2,0.2,0.4,0.3c0.1-0.2,0.3-0.4,0.3-0.5c0-0.1-0.2-0.2-0.3-0.3
		C119.2,178.6,119.1,178.8,119,178.9z M113,189.4c0.1,0.1,0.2,0.2,0.4,0.3c0.1-0.2,0.3-0.4,0.3-0.5c0-0.1-0.2-0.2-0.3-0.3
		C113.2,189.1,113.1,189.2,113,189.4z M117.5,190.4c0.1-0.1,0.2-0.2,0.4-0.3c-0.2-0.1-0.4-0.2-0.7-0.3c-0.1,0-0.2,0.2-0.3,0.3
		C117,190.2,117.3,190.3,117.5,190.4z M120.7,190.2c-0.1-0.2-0.2-0.3-0.4-0.5c-0.1,0.1-0.3,0.2-0.3,0.3c0.1,0.2,0.2,0.4,0.3,0.5
		C120.4,190.4,120.5,190.3,120.7,190.2z M114.3,190.5c-0.1,0.1-0.3,0.2-0.3,0.3c0.1,0.2,0.2,0.4,0.3,0.5c0.1-0.1,0.3-0.2,0.3-0.3
		C114.6,190.8,114.5,190.7,114.3,190.5z"/>
	<path d="M161.1,148.6c-0.3,0-0.8,0-1.2,0c-0.5-1.9-0.4-4-1.5-5.5c-1.3-1.7-0.2-3.5-1.5-5.2c-0.8-1-0.7-3,0-4.2
		c1.2-2.1,1.2-4.4,2.1-6.5c1-2.4,0.5-4.7,0.5-7c0-5.1,1.5-10.2,1.1-15.4c-0.4-5.2-0.1-10.5-0.1-15.7c0-0.2,0.3-0.4,0.4-0.7
		c1.6-0.1,2.5,0.7,2.5,1.8c-0.1,3.8,1.8,7.5,1.1,11.3c-0.4,1.9-0.8,3.8-1,5.7c-0.2,2,0.6,4.2-0.2,6c-1.8,4.5-0.4,8.9-0.8,13.4
		c-0.1,1.3,0.8,2.4,1.1,3.7c1.4,6,1.3,6.1-0.6,11.3C162.2,143.7,161.8,146.1,161.1,148.6z"/>
	<path d="M168.1,192.9c2.6,2.4,1.8,2.6,1.2,3c-2.3,1.5-4.8,0.8-6.7-0.2c-2.2-1.2-2.5-3.3-2-5.3c0.5-1.9,1.4-3.8,2.5-5.6
		c0.9-1.5,2.3-2.7,3.5-4c1.1,0.4,1.9,0.8,2.7,1.1c-0.1,0.2-0.2,0.4-0.4,0.5c-0.8,0.7-1.6,1.4-2.5,2c-2.6,1.6-2,4.1-2.9,6.2
		c-0.1,0.1,0.3,0.4,0.5,0.6c0.2-0.1,0.4-0.2,0.5-0.4c0.9-1.2,2.3-1.3,3.8-1.2c2.3,0.1,3,0.6,3.1,2.6
		C171.5,193.2,171.5,194.1,168.1,192.9c-3.4-0.6-3.4,0.4-3.4,1.5c1.3,0,2.4,0,3.4,0c0.5-1,1-1.8,1.4-2.6
		C168.2,190,166.3,193,168.1,192.9z"/>
	<path d="M138.4,126.1c1.9,1.4,3,2.3,4.2,3.2c-0.4,0.7-0.8,1.4-1.2,2.2c-0.1,0.3-0.3,0.6-0.3,0.8c0.7,4.3,0.7,4.3-3.2,6.8
		c-0.4,0.2-0.7,0.4-1.3,0.8c-0.8-0.9-1.5-1.8-2.6-3c0.3-0.8-1.2-2.6,0.8-4.1c0.2-0.1-0.5-0.9-0.6-1.3c-0.4-1.4-0.9-2.8,0.4-4
		C135.6,126.4,136.2,126.2,138.4,126.1z M138.5,130.9c0-1.1,0-2,0-3.1c-0.9,0-1.7,0-2.6,0c0,1.1,0,2,0,3.1
		C136.8,130.9,137.6,130.9,138.5,130.9z M139.1,134.7c-0.8-0.5-1.5-0.8-2.1-1.2c-1.7,1-1.5,2.4-0.9,4
		C138.3,137.3,137.8,135.6,139.1,134.7z"/>
	<path d="M171.5,147.8c1.5,1.7,2.4,2.6,2.9,3.2c3.1-0.6,4.3-2.1,5.1-3.9c-1.1-2.5-4-1.1-5.9-1.8c0-0.5-0.3-1-0.1-1.2
		c1.9-1.6,1.4-4.1,3.1-5.7c1.5,0.5,2.9,1.1,4.3,1.4c0.2,0.1,0.7-0.5,1.1-0.8c0.5,0.6,1.1,1.2,2.1,2.3c-2.5,0.1-4.4,0.2-6.4,0.3
		c-1.6,2.8,3,2.4,3.6,4.1c0,1.3,0,2.6,0,4.3c-1.7,1.3-3.4,3.4-6.8,2.3c-1.1-0.3-2.2-1-3-1.7C171.2,150.2,171.5,149.4,171.5,147.8z"
		/>
	<path d="M182.8,79.8c-3.5-1.1-3.3,1.5-5,2.1c-0.5-1.1-0.9-2.4,0.2-3.2c1.1-0.8,2.6-1.4,4.1-1.6c2.7-0.4,3.2,0.4,3.3,4.5
		c4.4,0.7,2.6,3.5,2.9,5.5c-4.2,2.5-5.9,2.6-8.8,0.8c1.2-2.6,5.2-0.1,6.7-2.4c-0.4-0.7-0.9-1.4-1.3-2.2c-1.4,0.3-2.7,0.7-4.4,1.1
		C181.4,82.8,182.1,81.3,182.8,79.8z"/>
	<path d="M135.7,106.5c0.4-1.7,0.8-3.3,1.2-5.2c-1.4,0.1-2.3,1.3-3.5,0.1c-0.7-0.7-2.6,0.1-3.3-1.2c-0.9-1.5-0.2-2.7,0.7-3.9
		c0.9-1.3,3.2-2,4.7-1.4c1.8,0.8,3.7,1.6,4.6,3.5c0.7,1.4,1,2.3,0,3.6c-1.2,1.6-2.3,3.2-3.5,4.8C136.3,106.8,136,106.7,135.7,106.5z
		 M137,99.4c-0.9-2.1-2.1-2.7-4.3-2.1c0.1,0.8,0.1,1.5,0.2,2.1C134.3,99.4,135.4,99.4,137,99.4z"/>
	<path d="M184.7,106c0.9,0,1.5,0,2.2,0c0.2,0.2,0.4,0.4,0.5,0.7c0,1.1,0,2.1,0,3.2c0,1.2-0.1,2.3,1,3.3c2,1.9-0.3,3.7-0.5,5.6
		c0,0.4-1.2,0.7-2.2,1.3c-0.1-1-0.2-1.6-0.2-2.3c0-0.6,0-1.3,0-2.1c-1.9,0-3.7,0-6,0C181.3,112.3,183,109.1,184.7,106z M185.7,111.2
		c-2,0.5-3.2,1.4-1.5,3.1C184.7,113.2,185.2,112.2,185.7,111.2z"/>
	<path d="M140.5,165.1c0-1.2,0-2.4,0-3.6c-1.4,0.3-2.5,0.6-3.7,0.8c-0.3,0-0.8-0.3-1-0.6c-0.1-0.1,0-0.7,0.2-0.7
		c2.5-0.6,4.5-2.5,7.8-1.7c-0.3,1,0.5,2.1-0.7,3.2c-0.4,0.4-0.6,1.4-0.2,1.8c1.7,2,0.6,4,0.8,6.1c-2.7-0.3-2.2-2.2-3.3-3.2
		c-0.8-0.1-1.7-0.2-3.1-0.4C138.5,166.2,139.4,165.7,140.5,165.1z"/>
</g>
</svg>
