<?xml version="1.0" encoding="utf-8"?>
<!-- Generator: Adobe Illustrator 17.1.0, SVG Export Plug-In . SVG Version: 6.00 Build 0)  -->
<!DOCTYPE svg PUBLIC "-//W3C//DTD SVG 1.1//EN" "http://www.w3.org/Graphics/SVG/1.1/DTD/svg11.dtd">
<svg version="1.1" id="Layer_1" xmlns="http://www.w3.org/2000/svg" xmlns:xlink="http://www.w3.org/1999/xlink" x="0px" y="0px"
	 viewBox="0 0 288 216" enable-background="new 0 0 288 216" xml:space="preserve">
<g>
	<path d="M25.4,138.4c1.4-0.3,1.5,0.5,1.5,1.5c-0.1,6.6-0.1,13.3-0.1,19.9c0,0.5,0,1,0.3,1.4c0-0.4,0.1-0.8,0.1-1.2
		c0-6.7,0-13.5,0-20.2c0-0.5,0.2-1,0.3-1.5c0.2,0,0.5,0.1,0.7,0.1c0,7.5,0,15.1,0,22.6c0.2,0,0.3,0,0.5,0c0-7.5,0-15,0-22.6
		c0.7,0,1.1,0,1.9-0.1c0,8.4,0,16.6,0,24.8c0.2,0,0.3,0,0.5,0c0.1-0.5,0.1-1,0.1-1.5c0-7,0-14.1,0-21.1c0-0.4-0.1-0.7,0-1
		c0.1-0.4,0.4-0.8,0.6-1.2c0.2,0.4,0.7,0.8,0.7,1.2c0.1,2.7,0,5.4,0,8.1c0,4.6,0,9.2,0,13.8c0.1,0,0.1,0,0.2,0c0-4.5,0-9.1,0-13.6
		c0-2.8,0-5.5,0-8.3c0-0.4,0.2-0.9,0.3-1.3c0.2,0,0.3,0.1,0.5,0.1c0,7.6,0,15.1,0,22.7c0.2,0,0.3,0,0.5,0c0-7.5,0-15.1,0-22.7
		c56.8,0.2,113.4,0.5,170.2,0.7c0,4.4,0,8.9,0,13.4c0.2,0.1,0.4,0.1,0.7,0.2c0.2-0.4,0.6-0.9,0.6-1.3c0.1-3.5,0-7,0-10.5
		c0-0.4-0.1-0.7,0-1c0.1-0.3,0.4-0.6,0.6-0.8c0.2,0.3,0.5,0.6,0.5,0.9c0.1,2.3,0.1,4.5,0.2,6.8c0,1.9,0,3.7,0.2,5.6
		c0.1,1.4-0.3,2.3-1.6,2.9c-0.3,0.1-0.5,0.4-1,0.8c1.8,0,3.3,0.1,4.8-0.1c0.3,0,0.8-0.9,0.8-1.4c0.1-4.4,0-8.8,0.1-13.2
		c0-1.7,0.1-3.4,0.3-5.1c0.3-2.4,1.7-4,4-4.8c0.9-0.3,1.5-0.6,1.5-1.7c0-0.9,0.7-1.5,1.7-1.2c2,0.5,3.9,1.1,5.8-0.2
		c0.3-0.2,1.3,0.3,1.4,0.7c0.5,1.6,1.7,1.2,2.7,0.9c0.9-0.2,1.7-0.6,2.6-0.7c1-0.1,2,0,1.8,1.5c0,0.3,0.3,0.7,0.5,0.9
		c1.6,1.6,3.6,3,4.8,4.9c2,3.3,4.4,5.2,8.5,4.8c2.2-0.2,4.5,0.3,6.8,0.4c1.4,0.1,2.6,0.1,4-0.8c0.9-0.6,2.3-0.3,3.5-0.3
		c0.2,0,0.5,0.5,0.6,0.8c0.8,2.2,1.5,4.4,2.3,6.7c0.8,0,1.8-0.1,2.8-0.1c1-0.1,1.5,0.4,1.6,1.3c0.2,1.4,0.5,2.9-0.5,4.2
		c-0.2,0.2-0.1,0.7-0.1,0.9c0.1,0.5,0.4,0.9,0.6,1.4c0.9,2.3,0.9,2.3,3.3,2.2c0,1.4,0,2.8,0,4.2c-1,0.6-2,1.3-3.1,1.7
		c-0.9,0.3-1.3,0.6-1.4,1.6c-0.5,4.1-4.5,7.9-8.6,8.3c-4.4,0.4-8-1-10.3-4.2c-1.8,0.1-3.3,0.1-4.7,0.2c-0.6,0.1-1.4,0.2-1.8,0.7
		c-3.3,3.6-9.1,3.8-12.5,0.3c-0.8-0.9-1.7-1.2-2.9-1.2c-3.1,0.1-6.2,0-9.3,0c-3.8,0-7.5,0-11.3,0.1c-1.3,0-2.3,0.3-3.2,1.5
		c-0.9,1.1-2.1,2.4-3.4,2.8c-3.8,1.2-7.6,0.9-10.8-1.7c-0.9-0.7-1.5-0.8-2.5-0.3c-4.9,2.4-10.1,0.4-12.2-4.5
		c-0.4-0.9-0.8-1.2-1.8-1.2c-4.7,0-9.4-0.1-14.2-0.1c-16.6-0.1-33.2-0.2-49.9-0.3c-8.6,0-17.3,0-25.9-0.1c-1.1,0-1.4,0.3-1.7,1.3
		c-0.4,1.3-1,2.6-1.9,3.7c-2.4,3-5.8,3.7-9.5,3.3c-4.4-0.5-7-2.5-8.2-6.7c-0.2-0.6-0.4-1.3-0.8-2.3c-0.3,1-0.4,1.6-0.6,2.1
		c-1.4,4.8-5.7,7.8-10.2,7.1c-2.8-0.5-5.6-0.9-8.4-1.5c-3.2-0.7-6.2-2-7.8-5.1c-1.2-2.3-1.1-2.3-3.7-2.1c-1.2,0.1-2.3,0.2-3.1-0.9
		C25.4,155.7,25.4,147,25.4,138.4z M35.7,139.7c0,1.9,0,3.7,0,5.5c0.1,5.5,0.1,11,0.2,16.6c0,0.4,0.4,0.9,0.6,1.3
		c0.3-0.4,0.7-0.8,0.9-1.2c1.1-2.1,2.1-4.3,3.3-6.4c0.6-1.1,1.7-1.5,3.1-1.5c10.6,0,21.3,0.1,31.9,0c2.1,0,3.4,0.9,4.2,2.6
		c0.7,1.6,1.4,3.3,1.8,5.1c0.3,1.5,1,2,2.5,2c11.1,0,22.3,0,33.4,0.1c19.8,0.1,39.7,0.3,59.5,0.5c5.4,0,5.3,0,7.8-4.9
		c0.9-1.8,2.2-3.5,3.4-5.1c0.9-1.1,2.2-1.5,3.6-1.4c3.3,0.1,6.5,0,9.8,0c1,0,1.4-0.4,1.4-1.4c0-3,0-6,0.1-9c0-1.4-0.4-1.9-1.9-1.9
		c-20.3-0.1-40.6-0.4-60.8-0.5c-27.5-0.1-54.9-0.2-82.4-0.3C50.7,139.7,43.3,139.7,35.7,139.7z M259,148.6c-0.2-1.1-0.2-2.1-0.5-3
		c-0.6-2-1.4-2.5-3.5-2.6c-4.4-0.3-8.7-0.6-13.1-0.8c-1.6-0.1-2.5-0.8-3.3-2c-1.1-1.8-2.2-3.6-3.6-5.2c-0.9-1.1-2.1-2-3.4-2.5
		c-3.9-1.6-8.1-1.5-12.2-1c-1.7,0.2-3.3,0.8-4.9,1.4c-1,0.4-1.1,1.2-0.3,2.1c0.3-0.6,0.6-1.1,1-1.8c0.5,0.5,0.8,0.8,1.2,1.1
		c0.3-0.3,0.6-0.5,1-0.8c0.4,0.4,0.7,0.8,1,1.2c0.3-0.5,0.5-0.8,0.8-1.2c0.4,0.3,0.7,0.5,1,0.8c0.3-0.3,0.5-0.5,1.2-1.1
		c0.2,1.2,0.5,2.1,0.5,3c0.1,5.9,0.2,11.7,0.4,17.6c0,0.8,0.2,1.7,0.5,2.4c0.5,1.1,1.4,2.1,1.9,3.3c0.4,1,0.8,1.4,1.9,1.4
		c5.1-0.1,10.2-0.1,15.3-0.1c1.1,0,1.6-0.3,2-1.5c1.7-5.4,5-9.2,10.9-10.2C256.1,148.8,257.4,148.8,259,148.6z M206.5,157.2
		c0,3.5,0,6.8,0,10.2c0,0.3,0.7,0.8,1.1,0.8c1.7,0.1,3.4,0,5.1,0c3.3,0,6.5,0,9.8,0c0.5,0,1.3-0.5,1.3-0.7c0.1-2.9,0.4-5.8-0.7-8.6
		c-0.4-0.9-0.9-1.4-2-1.4c-3.3,0-6.6-0.1-9.9-0.2C209.6,157.1,208,157.2,206.5,157.2z M42.1,164.9c-0.4,4.9,3.9,8.1,7.9,8.1
		c4.4,0,7.8-3.9,7.7-8.7c-0.1-3.9-4-7.5-8.1-7.4C46,157,41.5,160.6,42.1,164.9z M195.1,173c4.4,0,7.7-3.3,7.7-7.9
		c0.1-4.1-3.2-7.7-7.2-7.8c-4.6-0.1-8.6,3.2-8.7,7.2C186.9,169.2,190.6,173,195.1,173z M78.7,164.9c0-4.2-3.6-8-7.7-8.1
		c-4.1,0-8,3.5-8.1,7.2c-0.1,4.7,3.5,8.6,7.9,8.6C75.1,172.7,78.7,169.2,78.7,164.9z M265.3,164.3c0.1-3.9-3.2-7.5-7-7.6
		c-5.1-0.2-8.5,2.7-8.6,7.1c-0.1,4.5,3.3,8.2,7.6,8.2C261.7,172.1,265.2,168.7,265.3,164.3z M267.2,160.5c0.1,0,0.3-0.1,0.4-0.1
		c-0.2-1.1-0.3-2.2-0.6-3.2c-1.2-4.5-5.5-7.8-9.7-7.5c-8.7,0.6-15.2,9.1-13.3,17.7c0.1,0.3,0.5,0.8,0.7,0.8c0.4-0.1,0.9-0.4,1-0.7
		c0.2-0.7,0.2-1.5,0.4-2.2c0.5-2.1,0.7-4.3,1.6-6.2c1.6-3.5,4.6-5,8.3-5.6c4.4-0.7,7.4,0.5,9.7,4.2
		C266.2,158.5,266.7,159.5,267.2,160.5z M242.8,163.8c-0.3-0.1-0.4-0.2-0.6-0.2c-5.4,0-10.7-0.1-16.1-0.1c-0.3,0-0.9,0.6-0.9,0.8
		c0.1,0.5,0.4,1.2,0.8,1.5c0.5,0.3,1.2,0.2,1.8,0.2c4.4,0,8.8,0,13.2,0C242.9,166,243,165.9,242.8,163.8z M216.1,140.6
		c1.9,0,2.2-0.2,2.2-2.2c0-1,0-2.1-1.4-2.2c-2-0.1-2.7,0.5-2.8,2.4C214.1,140.2,214.4,140.5,216.1,140.6z M220.3,155.6
		c0.2,0,0.5,0,0.7,0c-0.3-6.3,0.3-12.7-0.7-19C220.3,142.9,220.3,149.2,220.3,155.6z M212.1,155.1c0.1,0,0.2,0,0.4,0
		c0-6.6,0-13.1,0-19.7c-0.1,0-0.2,0-0.4,0C212.1,142,212.1,148.5,212.1,155.1z M218.6,142.3c-0.1,0-0.2,0-0.3,0.1
		c0,4.3,0,8.6,0,12.9c0.1,0,0.2,0,0.3,0C218.6,150.9,218.6,146.6,218.6,142.3z M259.2,142.9c-0.1,0.1-0.2,0.3-0.3,0.4
		c0.4,1.7,0.7,3.4,1.2,5c0.1,0.3,0.7,0.5,1.1,0.6c0.2,0,0.7-0.5,0.6-0.8c-0.2-1.2-0.3-2.5-0.8-3.6
		C260.7,143.9,259.8,143.4,259.2,142.9z M225.5,167.7c0,0.1,0,0.2,0,0.4c5.5,0,11.1,0,16.6,0c0-0.1,0-0.2,0-0.4
		C236.6,167.7,231,167.7,225.5,167.7z M216.7,142.3c-0.1,0-0.3,0-0.4,0c0,4.4,0,8.9,0,13.3c0.1,0,0.3,0,0.4,0
		C216.7,151.1,216.7,146.7,216.7,142.3z M263.2,149.6c0.6,0.7,1,1.3,1.5,1.8c0.4,0.3,1.1,0.5,1.6,0.4c0.3-0.1,0.6-0.9,0.5-1.4
		C266.8,148.6,265.4,148.3,263.2,149.6z M214.6,142.3c-0.1,0-0.3,0-0.4,0c0,4.4,0,8.8,0,13.2c0.1,0,0.3,0,0.4,0
		C214.6,151.1,214.6,146.7,214.6,142.3z M202.1,159.2c0.2-0.9,0.4-1.6,0.5-2.3c-1.2,0-2.1,0-3.4,0
		C200.3,157.7,201,158.4,202.1,159.2z M219.2,130.3c0-0.1,0-0.3,0.1-0.4c-0.4-0.1-0.8-0.1-1.2-0.2c0,0.1-0.1,0.3-0.1,0.4
		C218.4,130.1,218.8,130.2,219.2,130.3z"/>
	<path d="M230.7,141.4c-1.6,0-3.2,0-4.8,0c-1,0-1.5-0.5-1.5-1.5c0-1.4-0.1-2.8-0.1-4.2c0-1,0.3-1.5,1.5-1.4c1.6,0.1,3.2-0.1,4.8-0.2
		c2-0.1,3.6,0.7,4.5,2.6c0.5,0.9,1.1,1.8,1.5,2.8c0.6,1.3,0.2,1.8-1.2,1.9C233.8,141.4,232.3,141.3,230.7,141.4
		C230.7,141.3,230.7,141.3,230.7,141.4z M226,136.1c0,1.2-0.1,2.2,0,3.1c0,0.3,0.5,0.9,0.8,0.9c2.7,0,5.4-0.1,8.2-0.1
		c-0.4-2.2-1.4-3.8-2.3-3.8C230.6,136.1,228.4,136.1,226,136.1z"/>
	<path d="M249.5,145.7c-2,0-4,0-6,0c-0.4,0-0.8-0.4-1.2-0.6c0.4-0.2,0.8-0.6,1.1-0.6c4,0,8,0.1,12,0.2c0.4,0,0.8,0.4,1.2,0.5
		c-0.4,0.2-0.8,0.6-1.3,0.6C253.4,145.8,251.4,145.8,249.5,145.7C249.5,145.8,249.5,145.7,249.5,145.7z"/>
	<path d="M224.1,143.1c1.4-0.2,2.6-0.4,3.7-0.5c0.2,0,0.7,0.3,0.7,0.6c0,0.2-0.2,0.6-0.5,0.8C226.9,144.9,225.2,144.6,224.1,143.1z"
		/>
	<path d="M55.1,165.8c0,2.7-2.5,5-5.3,5c-2.8,0-5.1-2.4-5.1-5.3c0-2.8,2.4-5,5.3-5C52.8,160.6,55.2,163,55.1,165.8z M49.6,167.6
		c0.2,0,0.5,0,0.7,0c0.4-0.6,1.1-1.2,1.2-1.9c0.1-1-0.7-1.6-1.7-1.6c-1,0-1.7,0.7-1.4,1.7C48.5,166.5,49.1,167,49.6,167.6z"/>
	<path d="M195,159.7c3,0,5.6,2.5,5.6,5.4c0,2.7-2.5,4.8-5.5,4.9c-2.7,0-4.9-2.2-5-5C189.9,161.9,192,159.7,195,159.7z M194.7,163
		c-0.3,0.4-0.9,1-1,1.7c-0.1,0.9,0.5,1.7,1.5,1.7c1,0,1.6-0.5,1.6-1.6C196.8,163.7,196.3,163.1,194.7,163z"/>
	<path d="M75.8,166c0,3-2.2,5.1-5.1,5.1c-3,0-5.4-2.7-5.3-6c0-2.4,2.9-4.8,5.7-4.8C73.7,160.3,75.9,162.8,75.8,166z M72.9,166.2
		c0-0.2,0-0.5,0-0.7c-0.6-0.4-1.2-1.2-1.8-1.3c-1-0.1-1.7,0.5-1.6,1.7c0.1,1,0.6,1.7,1.6,1.5C71.8,167.3,72.3,166.6,72.9,166.2z"/>
	<path d="M257.4,158.2c2.9,0,5.3,2.4,5.3,5.2c0,2.9-2.2,5-5.3,5c-2.9,0-5.1-2.1-5.2-4.9C252.2,160.5,254.4,158.2,257.4,158.2z
		 M258.2,161.6c-0.2,0-0.5,0-0.7,0c-0.4,0.6-1.2,1.2-1.3,1.8c-0.2,1,0.5,1.6,1.5,1.6c1,0,1.8-0.6,1.7-1.5
		C259.3,162.8,258.6,162.2,258.2,161.6z"/>
</g>
<g>
	<path d="M152.5,136.1c0.7,0.1,1.4,0.1,2.1,0.3c2.7,0.6,5.4,0.6,8.1,0.4c1.6-0.2,3.1-0.6,4.3-1.8c0.6-0.6,1.2-0.6,1.8-0.2
		c1,0.6,2,1.3,3.2,2c-0.3,0.4-0.6,0.9-0.9,1.2c-1.4,1.1-3,1.7-4.8,1.9c-2.9,0.3-5.8,0.1-8.7-0.3c-1.3-0.1-2.5-0.6-3.5-1.6
		c-0.5-0.6-1.2-1-1.9-1.5C152.4,136.4,152.5,136.3,152.5,136.1z"/>
	<path d="M31.8,46.3c0.9-0.1,1.8-0.4,2.7-0.4c3.1,0,6.3,0,9.4,0.9c2.7,0.7,5.3,1.4,8,2c1.8,0.4,3.1,1.3,3.9,3
		c-0.6,0.5-1.2,0.1-1.7-0.1c-3.2-0.8-6.4-1.6-9.6-2.3c-2.7-0.6-5.4-0.7-8.1-0.3c-1,0.2-1.8,0-2.5-0.8c-0.6-0.6-1.4-1.1-2.2-1.6
		C31.8,46.6,31.8,46.5,31.8,46.3z"/>
	<path d="M105.9,102.7c0.1,0.1,0.2,0.1,0.2,0.2c2.7,1.7,3.3,3.2,2.5,6.2c-0.1,0.3-0.5,0.6-0.8,0.7c-0.3,0.1-0.8,0.1-1.1,0
		c-1.9-0.8-3.6-1.8-5-3.3c-0.5-0.5-0.6-1.1-0.5-1.7c0.1-0.7,0.2-1.3,0.3-2c0.2-0.9,0.4-1.2,1.4-1.1c1.1,0.2,2.1,0.6,3.1,0.9
		C105.9,102.5,105.9,102.6,105.9,102.7z M106.3,107.7c0.9-2.9,0.2-4-2.5-4.2c0,0.8-0.1,1.7,0,2.5c0,0.2,0.1,0.4,0.2,0.5
		C104.6,107.2,105.3,107.8,106.3,107.7z"/>
	<path d="M64.4,71.6c-3.1-0.7-6.2-1.4-9.3-2.1c-0.4-0.1-0.7-0.3-1.1-0.4c-0.6-0.3-1.1-0.6-0.9-1.4c0-0.2-0.2-0.5-0.4-0.7
		c-0.2-0.3-0.3-0.5-0.4-1.1c0.2,0,0.4,0,0.6,0.1c2.8,0.7,5.6,1.4,8.4,2.1c0.5,0.1,1,0.2,1.5,0.4c0.4,0.1,0.6,0.5,1,0.7
		c0,0.1-0.1,0.2-0.1,0.3c-0.7,0.1-1.4,0.2-2.2,0.3c1.1,0.6,2.6,0.2,3.2,1.4C64.6,71.3,64.5,71.5,64.4,71.6z"/>
	<path d="M117.2,94.4c0.8-0.7,2.1,0.3,2.7-1c-1.3-0.4-2.6-0.1-3.7,0.5c-0.7,0.4-1.2,0.4-1.9,0.1c-2.5-1-4.9-2.1-7.1-3.7
		c1.8,0.8,3.6,0.6,5.5,0.7c1,0.1,2,0.2,3,0.2c0.6,0,1.1,0.2,1.7,0.1c0.9-0.1,1.7,0,2.4,0.6c0.2,0.1,0.7,0,0.9-0.2
		c0.3-0.2,0.5-0.6,0.8-1c0.4,0.6,0.2,2.5-0.3,3.2C120.1,95.1,118.9,95.2,117.2,94.4z"/>
	<path d="M67.1,81.4c0.5,1,1.3,1.4,2.3,1.5c0.8,0.1,1.5,0.4,1.9,1.2c-0.5,0.6-1.1,0.3-1.6,0.2c-1.9-0.4-3.4-1.5-4.7-3
		c-0.7-0.7-0.5-1.4,0.5-1.4c1.9-0.2,3.9-0.3,5.8-0.2c1.8,0.1,3.1,1.5,4.4,2.7c0.3,0.2,0.3,0.9,0.2,1.3c-0.1,0.3-0.7,0.4-1.1,0.4
		c-0.7,0-1.4-0.2-1.9-1c0.2-0.3,0.3-0.5,0.5-0.8C71.5,80.5,69.3,81.3,67.1,81.4z"/>
	<path d="M108.5,79.2c-2.4-1.2-4.5-2.5-6.2-4.4c0.4-1.2,1.5-1.6,2.3-2.2c1.7,1.2,3.2,2.3,4.8,3.4c0.5,0.3,0.5,0.8,0.3,1.2
		C109.4,77.9,109,78.4,108.5,79.2z"/>
	<path d="M65,76c0.2-0.2,0.5-0.4,0.7-0.6c-1.3-1.2-3.2-1.6-6.1-1.3c0.4,0.8,1.1,0.8,1.8,1.1c0.7,0.2,0.7,0.2,1.1,1.1
		c-1.9,0.5-4.7-1-5.8-3.2c0.4-0.5,0.8-0.7,1.5-0.6c1.9,0.3,3.7,0.5,5.6,0.8c1.5,0.2,2.8,1,4,2c0.3,0.3,0.6,0.9,0.5,1.2
		c-0.1,0.3-0.7,0.6-1.1,0.7C66.4,77.3,65.8,77,65,76z"/>
	<path d="M95.6,98.3c-1.5-0.9-2.9-1.8-4.2-2.6c0.2-0.8,0.5-1.1,1.1-0.8c1.9,1.1,3.9,2.2,5.7,3.4c0.9,0.6,0.6,1.5-0.6,1.9
		c-1.3,0.4-2.7,0.6-3.9,1c-1.3,0.4-2.2,0-3.2-1.1C92,98.9,93.9,99.2,95.6,98.3z"/>
	<path d="M71.8,88.3c1.1,1.5,2.7-0.1,3.9,0.7c-0.3,0.8-0.3,0.8-1.3,1.1c0.1,0.2,0.2,0.4,0.4,0.7c-0.8-0.2-1.5-0.3-2.1-0.4
		c-0.6-0.1-1.2-0.2-1.8-0.2c-0.2,0-0.6-0.1-0.7,0.1c-0.5,0.8-1.1,0.4-1.6,0.2c-0.7-0.2-1.5-0.3-2.2-0.5c-0.4-0.1-0.8-0.3-1.2-0.4
		c0-0.1,0-0.2,0-0.3c0.3-0.1,0.7-0.2,1-0.3c0-0.3,0-0.6,0-0.9c0.2-0.1,0.3-0.2,0.4-0.2c0.9,0.3,1.9,0.5,2.7,0.9
		C70.7,89.3,70.6,89.3,71.8,88.3z"/>
	<path d="M113,106.3c0.7,0.3,1.4,0.6,2,1c0.3,0.2,0.6,0.6,0.7,0.9c0.5,2,1,4.1,1.5,6.2c0,0,0,0.1-0.1,0.1c-1.3,0-1.9-0.4-2.3-1.6
		c-0.3-0.8-0.4-1.7-0.7-2.5c-0.4-1-0.4-2.1-1.3-2.8c-0.2-0.1-0.1-0.6-0.1-0.9C112.8,106.4,112.9,106.4,113,106.3z"/>
	<path d="M82.3,94.5c0.9-0.5,1.7-1.1,2.6-1.6c0.5-0.3,1.1-0.4,1-1.4c-0.1-0.6,0.6-0.7,1-0.5c0.7,0.4,1.4,0.8,2.2,1.4
		c-0.4,0.4-0.6,0.8-0.9,1c-0.9,0.6-1.8,1.3-2.8,1.9C83.9,96.2,83.6,96.1,82.3,94.5z"/>
	<path d="M79.9,75.7c-0.4,0.4-1.7,0-0.8,1.6c-3-1.5-5.4-2.9-7.9-4.2c2.4-1.2,3.2-1.1,4.8,0.4c0,0.7-1.3-0.2-1.1,0.9
		c0.6,0.1,1.1,0.4,1.9-0.1C77.5,73.7,79.1,74.6,79.9,75.7z"/>
	<path d="M56.5,86.8c0.7-0.9,0.9-1,1.7-0.6c0.5,0.3,1,0.6,1.4,1c1.2,1.2,2.6,2.3,4.1,3.2c0.4,0.2,0.7,0.5,1,0.8c0,0.1,0,0.2-0.1,0.3
		c-0.3,0-0.7,0.2-1,0.1C61,90.6,58.4,89.2,56.5,86.8z"/>
	<path d="M111,103.4c-0.7-0.6-1.4-1.4-2.1-2.1c-0.1-0.1-0.1-0.3-0.1-0.4c0.7-0.7,1.5-0.7,2.4-0.9c0.2,0,0.4,0,0.5,0.1
		c0.8,0.8,1.5,1.6,2.2,2.4C112.8,102.8,112,103.1,111,103.4z"/>
	<path d="M107,96.8c1.8,0,3.2,1,3.2,2.7c-0.9,0.1-1.7,1-2.7,0.3c-0.8-0.5-1.6-1.1-1.8-2.1C106.1,97.1,107.1,97.8,107,96.8L107,96.8z
		"/>
	<path d="M105,95.9c-0.4,0-0.8,0.1-1.1,0.1c-0.5,0-0.8-0.3-0.7-0.9c0.2-1,0.2-1-0.8-1c-0.7,0-0.7,0-1.3-0.6c0.4-0.2,0.8-0.4,1.1-0.6
		c0.2-0.1,0.4-0.1,0.7-0.2c1.7-0.3,3.2,1.1,3.3,2.9C105.7,95.7,105.4,95.8,105,95.9z"/>
	<path d="M98.3,90.4c-0.5-0.1-1-0.3-1.4-0.4c0.4-1.3,0.4-1.4-0.8-1.4c-0.4,0-0.8-0.1-1.3-0.3c1.7-1.7,4.4-1.2,5.1,0.8
		c0.1,0.2-0.1,0.5-0.1,0.8C99.3,90.1,98.8,90.3,98.3,90.4z"/>
	<path d="M98.3,90.4c0.5-0.2,1-0.4,1.4-0.6c1.4-0.2,2.2,0.7,3,1.5c0.4,0.4,0.4,0.8,0.1,1.3c-0.2,0.1-0.4,0.1-0.7,0.2
		c-0.4-0.3-0.9-0.5-1.2-0.8c-0.6-0.6-1.2-0.9-2.1-0.7C98.4,91.4,97.8,91.2,98.3,90.4z"/>
	<path d="M75.4,100.9c-4.2-2.6-8.2-5.5-12-8.7c1.6,0.5,2.8,1.7,4.1,2.6c1.3,1,2.7,1.9,4,2.9c1.4,1,2.7,2,4.1,2.9
		C75.5,100.7,75.5,100.8,75.4,100.9z"/>
	<path d="M44,76.1c3.6,2.9,6.9,5.7,10.3,8.6c-0.1,0.2-0.1,0.2-0.1,0.3c0,0-0.1,0-0.1,0c-0.2-0.1-0.4-0.1-0.5-0.3
		c-3.2-2.7-6.3-5.4-9.5-8.1C44,76.6,44,76.5,44,76.1z"/>
	<path d="M156.8,135.8c-2.7,0.2-4.4-0.1-5.1-1.5C153.4,133.6,155.6,134.3,156.8,135.8z"/>
	<path d="M87.3,81.3c-0.6-0.3-1.3,0.4-1.6-0.6c0.7-0.6,1.5-0.6,2.3-0.5c0.8,0.1,0.6,0.8,0.5,1.4c0.5,0,1,0,1.6-0.1
		c-0.6,0.8-1.5,1.2-2.2,1C87.3,82.4,87.1,81.9,87.3,81.3z"/>
	<path d="M38.5,50.3c1.8-0.8,3.2-0.5,4,0.9C41.2,52,39.8,51.7,38.5,50.3z"/>
	<path d="M76.8,87.8c0.4-0.1,0.8-0.4,1.1-0.3c0.9,0.5,1.9,0.9,2.5,1.9C79.2,90.1,77.9,89.5,76.8,87.8z"/>
	<path d="M105,95.9c0.4-0.1,0.7-0.2,1.1-0.3c0.6,0,1.3-0.4,1.5,0.6c-0.2,0.2-0.4,0.4-0.6,0.7l0,0c-0.5,0.1-1,0.2-1.5,0.2
		c-0.4,0.1-1,0.2-1.1-0.4C104.4,96.5,104.8,96.2,105,95.9z"/>
	<path d="M95,86.5c-0.6-0.3-1.1-0.6-1.7-0.9c0,0.4,0,0.6,0,1c-0.4-0.3-0.8-0.6-1.2-0.9c1.1-1.3,2.1-1.2,4.1,0.5
		c-0.5-0.2-0.8-0.3-1-0.4c-0.2-0.1-0.4-0.2-0.6-0.4C94.1,86,95,86.1,95,86.5z"/>
	<path d="M120.1,88.4c-1.7,0.6-2,0.4-2.3-1C119.6,86.8,119.9,87,120.1,88.4z"/>
	<path d="M123.3,88.6c-0.7,0.8-0.8,1.9-2,1.9c-0.2-0.9-0.1-1.5,1-1.5c-0.4-0.5-0.7-1-1-1.4c0.1-0.1,0.1-0.1,0.2-0.2
		C122,87.8,122.6,88.1,123.3,88.6z"/>
	<path d="M108.5,80.4c-2-0.9-3.9-2.1-5.4-3.6C105.2,77.6,106.7,79.2,108.5,80.4z"/>
	<path d="M72.5,71.5c-0.7,0.5-1.2,0.8-1.9,1.3c-0.4-0.2-0.9-0.5-1.7-0.9C70.2,71.4,71.2,71,72.5,71.5z"/>
	<path d="M113.3,85.1c1.8,0.6,1.8,0.6,1.6,1.6C113.6,86.5,113.4,86.3,113.3,85.1z"/>
	<path d="M92.7,83.5c-1.2,0.6-1.9,0.7-2.7,0.5C90.9,83.1,91.8,82.9,92.7,83.5z"/>
	<g>
		<path d="M81.2,137.7c0-4.3,3.5-7.7,7.7-7.7s7.7,3.5,7.7,7.7c0,0.8-0.1,1.6-0.3,2.3h1.4c0.2-0.7,0.3-1.5,0.3-2.3
			c0-5-4.1-9.1-9.1-9.1s-9.1,4.1-9.1,9.1c0,0.8,0.1,1.6,0.3,2.3h1.4C81.4,139.3,81.2,138.5,81.2,137.7z"/>
		<path d="M243.9,115c-1.6-1.9-3.7-2.9-6.2-2.9c-0.7,0-1.4,0-2.3,0c-0.1-0.4-0.1-0.8-0.1-1.1c0-1.4-0.8-2.2-1.9-2.6
			c-2.1-0.8-4.2-1-6.4-0.7c-0.7,0.1-1.1,0.5-1.2,1.2c0,0.9-0.1,1.7-0.2,2.6c-0.3,0-0.5,0.1-0.8,0.1c-5.8-0.2-11.6-0.4-17.4-0.7
			c-4.7-0.2-9.4-0.6-14-1.1c-3.7-0.4-6.9,0.5-9.6,3.1c-2.2,2-3.3,4.5-3.2,7.5c0,0.9,0.1,1.7,0.1,2.3c-2.6,0.7-5.2,1.4-7.7,2
			c-0.9,0.2-1.5-0.1-2.1-0.8c-3.7-4.4-7.8-8.4-12-12.2c-6.2-5.6-12.7-10.8-19.3-15.8c-0.9-0.6-1.9-1.2-2.1-2.5
			c0-0.3-0.4-0.5-0.7-0.7c-0.3-0.3-0.7-0.5-0.9-0.9c-0.5-1-1.3-1.3-2.3-1.3c-1.4,0-2.5-0.5-3.6-1.4c-0.6-0.5-1.1-1.1-1.8-1.5
			c-1.8-0.9-2.2-2.4-2.4-4.2c-0.5-4.4-1.2-8.8-1.8-13.2c-0.1-0.4,0-0.8,0-1.4c0.6,0,1.1,0,1.6,0.1c3.6,0.5,7.1,0.9,10.7,1.4
			c7.5,1,15,2.1,22.4,3.2c0.9,0.1,1.9,0,2.7-0.3c2.3-0.8,4.2-2.3,5.8-4.2c0.8-1,1.2-2.2,0.8-3.5c-0.4-1.5-1.1-2.7-2.4-3.7
			c-1.3-0.9-2.7-1.3-4.2-1.6c-1-0.2-2-0.5-3-0.7c-0.7-0.2-1.2-0.5-1.2-1.4c-0.1-1.2-0.9-2-1.9-2.6c-2.7-1.6-5.6-2.3-8.7-2.6
			c-1-0.1-1.5,0.4-1.6,1.5c0,0.5,0,1,0,1.7c-1.1-0.2-2-0.4-2.8-0.6c-6.2-1.5-12.3-3.2-18.5-4.5c-6.5-1.4-13-2.7-19.3-4.7
			c-2.5-0.8-4.9-0.7-7.3,0.2c-0.5,0.2-1.1,0.4-1.6,0.6c-6.1,2.5-7.8,10.4-3.1,15c1.3,1.3,2.9,2.5,4.4,3.6c0.7,0.5,1.7,0.9,2.5,1
			c2.5,0.4,5.1,0.7,7.6,0.9c0.8,0.1,1.7,0.1,2.4-0.2c1.2-0.5,2.3-0.3,3.6-0.1c0.8,0.2,1.3,0.5,1.4,1.4c0.2,1.3,0.4,2.7,0.6,4.3
			c-0.6-0.4-0.9-0.7-1.2-1c-3.1-2.5-6.6-3.3-10.3-1.9c-1.6,0.6-2.9,0.4-4.2-0.5c-1.3-0.8-2.6-1.7-3.9-2.5
			c-5.2-2.8-10.4-5.7-15.6-8.4C74.1,56,68.6,53.5,63,51c-7.1-3.1-14.5-5.7-22-7.7c-3.9-1.1-7.8-2-11.8-2.3c-2.2-0.1-4.4-0.1-6.5,0.5
			c-3.1,0.9-5.2,3-5,6.7c0.1,2.3,0.2,4.6,0.3,6.8c0.2,2.8,0.9,5.5,2.2,8.1c0.4,0.8,1.1,1.4,1.6,2.2c1.7,2.4,3.2,5,5,7.3
			c6.2,7.7,13.6,14.2,21.1,20.6c7.3,6.1,15,11.6,22.9,16.9c5.6,3.7,11.3,7.3,17,10.9c0.5,0.3,0.9,0.6,1.4,1
			c-0.7,1.1-1.7,1.1-2.7,1.2c-1,0-2,0.1-2.6,1.3c-0.1,0.3-0.6,0.5-0.9,0.7c-4.8,2.9-6.9,7.2-6.6,12.7c0,0.7,0.1,1.5,0.3,2.2h2.7
			c-0.2-0.7-0.3-1.5-0.3-2.3c0-5.5,4.5-9.9,9.9-9.9s9.9,4.5,9.9,9.9c0,0.8-0.1,1.6-0.3,2.3h7.4c0.1-0.6,0.2-1.2,0.4-1.8
			c0.7,0.6,1.1,1.2,1.1,1.8h10.3c0,0,0-0.1,0-0.1c0.6-0.4,1.1-0.8,1.8-1.3c1,0.3,2.1,0.7,3.2,1c0.2,0.1,0.5,0.2,0.6,0.3
			c0,0,0.1,0.1,0.1,0.1h29.9c-1.4-0.4-2.9-0.8-4.3-1.2c-6.7-1.9-13.2-4.5-19.6-7.4c-4.9-2.1-9.7-4.4-14.5-6.7
			c-3.6-1.8-7.2-3.6-10.7-5.6c-5.2-2.9-10.3-6-15.4-9.1c-4.8-2.9-9.5-5.9-14.1-9c-7.5-5.1-15-10.2-22.1-16
			c-5.1-4.1-10-8.3-14.6-12.8c-2.7-2.7-5.5-5.3-8.1-8.1c-2.9-3.1-5.5-6.5-7.3-10.4c-0.3-0.6-0.5-1.1-0.8-1.7
			c-1.2-2.8-0.6-5.4,0.8-7.9c0.3-0.5,1.1-0.9,1.7-1c1-0.3,2-0.4,3-0.5c3.4-0.6,6.7-0.1,9.9,0.8c4.5,1.3,9.1,2.6,13.6,4
			c4.3,1.4,8.5,2.9,12.6,4.7c5.7,2.5,11.4,5.1,17,7.9c3.4,1.6,6.7,3.5,10,5.3c3.8,2.1,7.6,4.3,11.3,6.5c0.2,0.1,0.4,0.2,0.7,0.3
			c0.7-0.4,1.2-0.8,1.8-1.1c1.7-0.9,3.1-0.6,4.6,0.6c1.8,1.5,3.7,3,6.1,3.5c0.3,0.1,0.6,0.3,0.8,0.5c0.7,1,0.9,2.2,0.7,3.4
			c-0.2,1.3-0.7,2.2-2,2.7c-0.3,0.1-0.5,0.6-0.9,1.1c-1-0.5-2.1-1.1-3.3-1.7c-0.1,0.1-0.1,0.2-0.2,0.2c0.4,0.3,0.7,0.6,1.1,0.8
			c1.8,0.9,3.7,1.8,5.5,2.6c0.4,0.2,0.9,0.4,1.3-0.1c0.3-0.3,0.1-1.2-0.3-1.7c-0.2-0.3-0.5-0.5-0.8-0.9c0.6-0.4,1-0.3,1.4-0.1
			c4.7,3.2,9.3,6.4,14,9.6c0.1,0,0.1,0.2,0.1,0.4c-3.1,0.1-6.1-0.6-9.3-0.7c0.7,1,1.5,1.2,2.3,1.3c2.7,0.5,5.4,0.7,8.1,0.5
			c0.7,0,1.2,0,1.8,0.7c-3.3,0.7-6.5,0.6-9.9,0c1.1,1.5,2.5,1.9,4,1.8c1.8-0.1,3.7-0.4,5.5-0.7c1.1-0.2,1.9-0.1,2.8,0.6
			c4.5,3.7,9.1,7.2,13.5,11c4.7,4.1,9.3,8.5,13.8,12.9c4.3,4.3,8.2,9,11.1,14.4c0.4,0.8,0.6,1.5,0.4,2.4c-0.2,1.1-0.4,2.2-0.5,3.3
			h2.9c0.1-0.7,0-1.4-0.1-2.2c-0.3-1.3-0.8-2.5-1.4-3.7c-0.5-1.2-1.2-2.3-2-3.6c2.9-0.6,5.6-1.1,8.3-1.7c0.8-0.2,1.5,0.1,2.1,0.7
			c1.6,1.5,3.5,2.3,5.7,1.8c0.7-0.2,1.4-0.1,2,0.5c0.7,0.6,1.5,0.7,2.3,0.4c0.8-0.2,1.6-0.5,2.4-0.6c1.6-0.1,3-0.8,4.3-1.6
			c0.4-0.3,1-0.4,1.5-0.4c1.3-0.1,2.6-0.2,3.9-0.3c7.9-0.6,15.8-1.5,23.7-2.5c1.2-0.2,2.4-0.3,3.6-0.2c2.2,0.1,4.1-0.6,5.8-2
			c0.8-0.7,1.7-1.4,2.4-2.3C245.7,119.9,245.8,117.1,243.9,115z M23.4,56.8c2,3,4.2,5.8,6.7,8.3c1.6,1.7,3.3,3.3,4.7,5.1
			c1.2,1.5,3,2.5,3.9,4.3c0.2,0.3,0.6,0.5,0.9,0.7c1.8,1.6,3.5,3.3,5.3,4.9c0.5,0.4,1,0.8,1.4,1.3c0.5,0.5,1,1,1.4,1.5
			c-0.4,0.9-0.9,1.1-1.6,0.7c-1-0.6-2.1-1.1-3.4-1c-0.5,0-0.9-0.7-1.4-1c-0.8-0.6-1.6-1.2-2.4-1.8c-0.8-0.7-1.6-1.5-2.3-2.3
			c-0.2-0.2-0.1-0.6-0.2-0.9c-1.6-0.3-3.1-0.7-4.3-1.7c-0.1-0.1-0.4-0.1-0.5-0.1c-0.4,0.3-0.6-0.1-0.8-0.3c-0.9-0.9-1.8-1.7-2.7-2.6
			c-0.8-0.9-1.8-1.7-2.4-2.6c-1.2-1.8-2.8-3.5-3.6-5.6c-0.1-0.1-0.1-0.3-0.2-0.4c-1.3-1.4-1.6-3.3-2.1-5c-0.4-1.4-0.5-2.9-0.5-4.3
			c0-0.9,0-1.8-0.3-2.7c-0.3-0.9-0.4-1.9-0.5-2.8c0-0.2,0.1-0.5,0.3-1.1c0.4,1.2,0.8,2,1.1,2.8C20.8,52.5,22,54.7,23.4,56.8z
			 M137.5,66.3c-1.8-0.2-3.5-0.4-5.3-0.6c0-0.1,0-0.3,0-0.4c1.7,0.4,3.6,0.3,5.3,0.7C137.5,66,137.5,66.2,137.5,66.3z M147.6,56.1
			c0.1-0.6,0.5-0.8,1.1-0.7c1.6,0.4,3.3,0.8,4.9,1.3c0.6,0.2,1.2,0.6,1.1,1.8c-0.7,0-1.4,0.1-2,0c-1.5-0.3-2.9-0.8-4.3-1.2
			C147.7,57.2,147.6,56.7,147.6,56.1z M106.4,58.3c-0.3,0.1-0.5,0.5-0.7,0.7c-1.2,1-2.4,0.7-3.1-0.7c-0.2-0.4-0.3-0.8-0.5-1.1
			c-0.3-0.3-0.6-0.6-1-0.8c-1.6-0.1-2,1.5-3.3,2.1c0.2-0.9,0.3-1.6,0.4-2.2c0.2-1.2-0.4-2.4-1.4-2.9c-0.5-0.2-1.1-0.3-1.7,0.3
			c0.5,0.1,0.8,0.2,1.1,0.4c0.7,0.3,1,1.4,0.6,1.9c-0.2,0.2-0.6,0.3-0.9,0.3c-0.4,0.1-0.9,0.1-1.3,0.2c0.1,0.9,0.2,1.7,0.3,2.6
			c-1-0.1-1.4-0.6-1.8-1.2c-0.4-0.6-0.6-1.4-1.3-1.9c-0.5-0.3-0.1-1.4,0.5-2c0.9-1,1-1.2,0.3-2.5c0.5-0.6,1-1.4,1.7-1.8
			c1.9-1.1,3.9-2.2,6.2-2.3c3.4-0.1,6.4,2.6,6.7,5.9c0,0.4,0.2,0.8,0.2,1.3c0.1,0.6,0.3,1.1,0.2,1.7
			C107.5,57.1,107.6,58.1,106.4,58.3z M111.4,57.3c-0.2,1.2-0.5,2.3-1.3,3.2c-0.2,0.2-0.6,0.3-0.9,0.3c-0.1,0-0.2-0.5-0.2-0.7
			c-0.1-3.7,0.1-7.4-2.2-10.7c0,0,0-0.1,0-0.1c1.8-0.5,2.5-0.1,3.2,1.4C111,52.7,111.7,54.9,111.4,57.3z M123.3,61.1
			c-1-0.3-2-0.4-2.9,0.3c-0.2,0.1-0.5,0.1-0.7,0.1c-1.7-0.3-3.5-0.5-5.2-0.8c-0.5-0.1-1-0.3-1.6-0.5c0.6-3.6,0.8-7.1-1.9-10.4
			c0.7,0.2,1,0.2,1.3,0.4c1.3,0.7,2.5,1.5,3.7,2.2c0.2,0.1,0.5,0.1,0.8,0.1c1.3,0.1,2.7,0.1,4,0.6c1,0.4,2.1,0.5,3.3,0.7
			c0-0.3-0.1-0.5-0.2-1c0.6,0.2,1.4,0.2,1.6,0.5c1,1.3,2.6,1.3,3.9,1.7c1.4,0.4,2.8,0.5,4.2,0.8c1.6,0.3,3.1,0.5,4.7,0.8
			c1.7,0.3,3.4,0.7,5.1,1.1c0.3,0.1,0.6,0.1,0.9,0.1c0.3,0,0.7,0,1,0.1c1.8,0.7,3.6,1.1,5.5,1.5c0.1,3.5,2.7,4.3,5.3,5.5
			c-1.7-0.2-3.2-0.3-4.6-0.6c-4-0.7-7.9-1.4-11.9-2.1c-3.8-0.7-7.5-1.4-11.3-2.1c-1.3-0.2-2.5,0-3.6,0.8
			C124.2,61.2,123.8,61.3,123.3,61.1z M234.9,114c0.5,0.1,1.2,0.2,1.7,0c2.2-0.7,3.3-0.6,5.5,1c-0.7-0.1-1.2-0.1-1.8-0.1
			c-0.6,0-1.2,0.1-1.9,0.1c-0.6,0-1.2-0.2-1.8-0.2c-0.9,0-1.8,0-2.7,0.1C234,114,234.3,113.9,234.9,114z M230,109.7
			c0.6,0,1.2,0.1,1.7,0.2c1,0.3,1.2,0.7,1.2,2.1c-1.5,0.2-3,0.2-4.6-0.2C228.2,110.1,228.5,109.7,230,109.7z M198.8,123.3
			c-0.3,1.6-1.8,1.9-2.9,2.5c-0.3,0.1-0.9-0.3-1.3-0.6c-0.2-0.2-0.2-0.6-0.4-1.1c-1.1,0.2-1.7-0.2-1.6-1.5c-0.6,0.3-1.1,0.5-1.7,0.7
			c-0.6-0.6,0-1.3,0-1.9c-0.1-1.1-0.3-2.1-1.2-2.8c-1.2-0.9-2.3-0.7-3.3,0.9c0.5-0.1,0.8-0.2,1.1-0.3c0.9-0.2,1.7,0.3,2,1
			c0.2,0.6,0.1,1.1-0.4,1.4c-0.3,0.2-0.9,0.3-1,0.2c-1-1.1-1.7-0.2-2.6,0.1c0-0.2-0.1-0.5-0.2-0.9c-0.3,0.1-0.5,0.2-0.9,0.4
			c-0.7-2.1,1.3-3.6,1.4-5.5c-0.4-0.3-0.8-0.6-1.3-1c0.3-0.8,0.9-1.3,1.6-1.7c0.7-0.4,1.2-0.9,1.9-1.2c0.8-0.3,1.6-0.3,2.3-0.5
			c0.9,1.2,2.2,1.7,3.4,2.3c0.1,0,0.3-0.2,0.5-0.3c-0.7-1-1.7-1.4-2.7-1.9c2,0.2,4,0.7,5.3,2.4c0.7,0.9,1.4,1.8,1.9,2.9
			c0.4,0.8,0.6,1.8,0.6,2.6C199.5,120.8,199,122,198.8,123.3z M202.1,125.9c-0.4,0.2-0.9,0.2-1.3,0.1c-0.1,0-0.2-0.7-0.1-1
			c0.1-0.6,0.3-1.1,0.5-1.7c0.7-3.8-0.1-7.1-2.9-9.8c-0.1-0.1-0.2-0.3-0.4-0.5c1.2-0.6,2.1-0.4,2.8,0.6c2.7,3.4,3.6,7.2,2.1,11.4
			C202.5,125.2,202.4,125.7,202.1,125.9z M242.1,120.8c-0.3-0.1-0.6-0.2-0.9-0.3c-1.6-0.1-2.4,0-2.8,1.6c-0.2,0.7-0.7,1.1-1.3,0.9
			c-1.8-0.5-3.7-0.1-5.6-0.1c0.1-0.9-0.4-1-1.1-1.1c-1.2-0.2-2,0.3-2.5,1.4c-0.1-0.5-0.2-0.9-0.2-1.3c-1,0-2-0.1-3-0.1
			c-0.2,0.4-0.5,0.7-0.8,1.2c-2.7,0.1-5.4,0.1-8.2,0.2c-0.3,0-0.7,0.1-1,0.2c-1.3,0.2-2.5,0.3-3.8,0.5c-0.5,0.1-1,0-1.2,0.6
			c-0.3,0.8-1,0.8-1.7,0.9c-0.7,0.1-1.3,0.2-2,0.2c0,0.1,0,0.2,0,0.4c0.9,0,1.8,0,3,0c-1.2,1-2.3,0.3-3.3,0.5c-1,0.3-2,0.3-3,0.5
			c2.9-4.8,2.4-9.5-1.1-14c0.4,0.3,0.7,0.4,1,0.6c0.5,0.4,0.9,0.3,1.5,0.1c2.1-0.9,4.2-0.5,5.9,1c0.7-0.5,1.4-1.1,2.1-1.6
			c0.9,0.7,1.7,0.7,2.7,0.2c0.6-0.3,1.5-0.3,2.3-0.3c0.8,0.1,1.5,0.1,2.3-0.1c0.1,0,0.2-0.1,0.3-0.1c2.1,0.1,4.3,0.3,6.4,0.4
			c0.9,0,1.8,0.3,2.7,0.4c0.9,0.1,1.8,0.2,2.8,0.3c0.2,0.7,0.4,1.5,0.7,2.2c0.3,0.9,1,1.5,2,1.6c2.5,0.4,5,0.6,7.5-0.4
			C242.4,118.6,242.6,119.6,242.1,120.8z"/>
		<path d="M84.4,139.3c1.8-0.1,1.5-1.9,2.3-3.1c0.1,0.7,0.2,1.3,0.3,2.2c0.4-1.1,0.6-1.9,0.9-2.7c0.1,0,0.2,0,0.3,0.1
			c0,0.3-0.1,0.7-0.2,1.2c0.8,0.3,1.4,0.9,1.6,1.8c0.1,0.3,0.4,0.5,0.6,0.8c0.1,0.1,0.2,0.3,0.3,0.4h4c0.3-0.7,0.5-1.5,0.5-2.3
			c0-3.3-2.7-6-6-6s-6,2.7-6,6c0,0.8,0.2,1.6,0.5,2.3h1.1C84.5,139.8,84.4,139.5,84.4,139.3z"/>
	</g>
</g>
</svg>
