<?xml version="1.0" encoding="utf-8"?>
<!-- Generator: Adobe Illustrator 17.1.0, SVG Export Plug-In . SVG Version: 6.00 Build 0)  -->
<!DOCTYPE svg PUBLIC "-//W3C//DTD SVG 1.1//EN" "http://www.w3.org/Graphics/SVG/1.1/DTD/svg11.dtd">
<svg version="1.1" id="Layer_1" xmlns="http://www.w3.org/2000/svg" xmlns:xlink="http://www.w3.org/1999/xlink" x="0px" y="0px"
	 viewBox="0 0 288 216" enable-background="new 0 0 288 216" xml:space="preserve">
<g>
	<path d="M148.3,98.7c-1-4.3-1.9-8.2-2.8-12.1c-3-12.8-6-25.6-9-38.5c-1.1-4.8-2.3-9.6-3.5-14.4c-0.4-1.5-1.5-2.4-2.8-2.9
		c-1.3-0.5-2.3-1.1-2.4-2.6c-0.1-1.4,0.5-2.3,1.6-3c0.1,0,0.1-0.2,0.3-0.5c-0.4-0.2-0.7-0.4-1.1-0.5c-1.7-0.3-2.6-1.8-2.3-3.5
		c0.1-0.8,0.9-1.5,1.5-2.4c-1.4-0.3-2.6-0.9-2.9-2.5c-0.3-1.7,0.6-2.6,1.9-3.5c-1.3-2.9,0.8-4.2,2.7-5.5c3-2.1,6.3-2.5,9.9-1.9
		c1.5,0.3,2.2,1.4,2.8,2.7c0.1,0.3,0.4,0.7,0.7,0.8c1.2,0.4,2.1,1,2.3,2.3c0.1,1.4-0.4,2.6-1.7,3.3c-0.2,0.1-0.3,0.3-0.5,0.5
		c1.8,0.3,2.9,1.1,3.1,2.9c0.1,1.7-1.2,2.5-2.5,3.6c2,0.4,3.3,1.2,3.4,3.2c0.1,1.6-0.9,2.4-2,2.9c-0.3,0.8-0.4,1.4-0.8,2
		c-0.8,1.3-1,2.6-0.6,4.1c2.3,8.9,4.6,17.7,6.9,26.6c2.6,10,5.3,20.1,7.9,30.1c0.5,2,1.9,3.5,2.8,5.1c4-0.5,7.8-1.2,11.6-1.5
		c5.3-0.4,10,1.2,13.2,5.8c1.2,1.7,1.8,3.6,2.1,5.6c0.5,2.8,0.8,5.6,1.2,8.4c0.9,7.3,3.5,13.8,8.4,19.3c2,2.3,4,4.7,6,7.1
		c3.4,4.2,5.1,9,5.9,14.3c0.9,5.5,0.4,10.9-0.8,16.2c-1.2,5.3-4.5,9-8.8,11.9c-5.3,3.6-11.3,5.3-17.5,6.6
		c-5.7,1.2-11.4,1.7-17.2,1.7c-7.1,0-13.8-1.6-19.7-5.6c-3.9-2.7-6.8-6.3-8.2-11c-1.9-6.1-2.1-12.2-1.1-18.4
		c0.7-4.1,1.2-8.2,1.8-12.3c0.5-4-0.3-7.8-1.8-11.6c-1.5-3.7-3-7.3-4.5-11c-2.5-6.1,0.9-13.9,5.9-17c3-1.8,6.2-3.3,9.4-4.5
		C147.5,98.8,147.9,98.8,148.3,98.7z M154,114.1c0.3-0.3,0.6-0.5,1.1-0.9c-0.6-0.4,0-1.6-1.1-1.7c0.8-0.7,0.1-1.4,0-2.2
		c-0.4-0.1-0.8-0.1-1.1-0.2c0.3-0.3,0.7-0.6,1-0.9c0.5,0.6,1,0.5,1.6,0.1c-0.1-0.7-0.2-1.3-0.2-1.9c0.3,0.6,0.6,1.2,0.9,1.8
		c1.2-0.3,1.3-0.6,0.3-2.5c-0.4,0.3-0.8,0.5-1.2,0.8c-0.2-0.2-0.3-0.3-0.5-0.5c0-0.6,0-1.2-0.1-1.7c0.3,0.5,0.5,0.9,0.8,1.4
		c0.7,0,1.1-0.3,0.9-1c-0.1-0.3-0.1-0.7-0.1-1c0.2,0.6,0.5,1.2,0.7,1.7c1.2-0.6,1.2-0.7,0.3-2.6c-0.3,0-0.7,0-1,0
		c0.3-0.2,0.6-0.4,0.9-0.6c0-0.5-0.1-1-0.1-1.4c0.6,0.4,0.3,1.7,1.5,1.5c-0.2,0.3-0.7,0.6-0.6,0.8c0.1,0.8,0.4,1.5,0.7,2.2
		c0.2,0.8,0.3,1.6,0.4,2.4c1.2,0,1.2-0.6,1.1-1.4c-0.2-1-0.7-1.2-1.6-1c0.3-0.3,0.7-0.5,1.1-0.8c-0.5-0.6,0.2-1.9-1.1-2.2
		c0.5-1.1,0.1-2.4-0.8-2.9c0.6-1,0.3-2.2-0.7-3.2c0.6-1.1-0.2-2-0.5-3c0-0.2-0.6-0.2-1.1-0.3c0.2,0.9,0.3,1.5,0.4,2.2
		c0.1,0.7,0.5,1.1,1.2,1c-0.6,0.2-0.9,0.5-0.6,1.1c0.4,0.7-0.2,2.1,1.3,2.1c-0.9,0.2-0.5,1-0.6,1.6c-0.4-0.4-0.4-1.7-1.5-0.6
		c0.2,0.8,0.5,1.7,0.8,2.5c0,0.3,0,0.6,0,1c-0.4-0.6-0.9-0.8-1.5-0.4c0,0.4-0.1,0.7-0.1,1c-0.3-0.8-0.9-1-1.6-0.9
		c0.3-0.2,0.6-0.4,1.1-0.8c-0.3-0.8-0.6-1.6-0.9-2.4c0-0.8-0.1-1.6-0.1-2.4c0.3,0.7,0.5,1.4,0.8,2.1c0.4-0.1,0.7-0.2,1-0.3
		c-0.2-0.9-0.4-1.7-0.6-2.6c-0.9,0-0.9,0-1.2,0.9c-0.2-0.3-0.4-0.6-0.6-0.9c-0.2-1.1-0.5-2.1-0.7-3.2c-0.5,0.2-0.9,0.3-1.2,0.4
		c0.2,1,0.5,1.9,0.7,2.8c0.5,0,0.9,0,1.3,0c-0.6,0.3-1.2,0.5-1.2,1.3c-0.4-0.6-0.8-0.9-1.5-0.3c0.1,0.6,0.2,1.3,0.4,1.9
		c0.1,0.3,0.5,0.6,0.8,0.8c-0.7,1.1-0.3,2.5,0.9,2.9c-0.9,1-0.7,2.3,0.6,2.8c-0.2,0.3-0.5,0.6-0.5,0.9c0,0.6,0.2,1.1,0.2,1.7
		c-0.4-0.9-0.8-1.7-1-2.6c-0.4-1.6-0.7-3.3-1-4.7c-0.5,0.2-1,0.4-1.5,0.5c-3.5,1-6.9,2-9.9,4c-5.3,3.6-6.8,7.8-4.7,13.9
		c1.1,3.2,2.5,6.3,3.8,9.4c1.9,4.7,2.9,9.6,2.3,14.7c-0.4,3.6-1.1,7.1-1.6,10.6c-0.8,5-1,9.9,0,14.9c0.8,3.8,2.4,7.2,5,10.1
		c2.7,3,6.2,4.9,10,6.1c3.2,1,6.5,1.4,9.8,1.6c5.4,0.3,10.8-0.3,16.1-1.2c6.6-1.1,13.1-2.9,18.7-6.6c4.1-2.7,7-6.3,7.7-11.3
		c0.3-1.9,0.3-3.9,0.1-5.9c-0.6-5.6-3.1-10.6-6.3-15.1c-3-4.3-6.3-8.4-9.4-12.7c-4.3-6-6.7-12.6-6.6-20.1c0-3.7-0.5-7.3-2.2-10.6
		c-1.6-3-3.9-5.2-7.5-5.8c-2.4-0.4-4.7-0.2-7.1,0c-2.5,0.2-5.1,0.8-7.5,1.2c-0.1,0.4-0.1,0.5-0.1,0.6c1.1,4.2,2.1,8.4,3.2,12.6
		c0.1,0.3,0.5,0.7,0.9,0.8c2,0.7,3.8,1.7,5.3,3.1c4.3,4.2,4.6,12.3-0.7,16.8c-0.7,0.6-0.8,1-0.5,1.8c0.3,0.7,0.3,1.4,0.5,2.1
		c-0.4-0.9-0.8-1.9-1.2-2.8c-1.2,0.6-1.2,0.6-1,2.3c-0.3-0.5-0.5-0.9-0.8-1.3c-0.7,0.1-1,0.3-0.9,1c0.1,0.5,0.2,1,0.2,1.5
		c-0.3-0.7-0.6-1.3-1-2.2c-0.5,0.2-0.9,0.4-1.2,0.5c0.2,1.1,0.4,2,0.5,2.8c-0.3-0.9-0.7-1.8-1.1-2.7c-0.4,0-0.8,0.1-1.3,0.1
		c0.5,2.7,1.1,5.2,1.6,7.8c-0.2-0.5-0.4-0.9-0.5-1.4c-0.5-2.1-1.1-4.3-1.6-6.4c-0.5,0-1-0.1-1.5-0.1c0,0.4,0,0.7,0,1
		c-0.3-0.9-0.9-1.3-1.9-1.7c-3.8-1.3-6.2-3.9-7.3-7.7c-1.3-4.8-0.1-8.9,3.8-12c0.1-0.1,0.1-0.3,0.1-0.4c0.4,0.7,0.9,1,1.6,0.3
		C155.3,114,155.3,114,154,114.1z M159,110.4c0.1-0.3,0.2-0.5,0.2-0.8c0-0.5,0-1-0.1-1.5c0.2,0.6,0.5,1.2,0.7,1.8
		c0.4-0.1,0.7-0.2,1.1-0.3c-0.1-0.7-0.3-1.3-0.4-2.2c-0.6,0.3-1,0.5-1.4,0.7c-0.4,0-0.9-0.1-1.5-0.1
		C158.1,109.2,157.8,110.3,159,110.4c-1,0.4-0.6,1.2-0.3,1.8c0.1,0.2,0.7,0.2,1.1,0.3c0.1-0.1,0.2-0.3,0.3-0.4
		C159.8,111.6,159.4,111,159,110.4z M156.7,111c0.1,0.4,0.1,0.8,0.2,1.2c0.3,1.1,0.3,1.1,1.5,0.5c-0.2-0.6-0.3-1.1-0.5-1.7
		C157.5,111,157.1,111,156.7,111c0.3-0.2,0.7-0.4,1.1-0.6c-0.1-0.6-0.2-1.1-0.3-1.6c0-0.1-0.1-0.2-0.2-0.4c-0.4,0.1-0.9,0.3-1.3,0.5
		c-0.5,0-0.9,0.1-1.5,0.2c0.2,0.8,0.3,1.4,0.5,2.1c0.5-0.2,0.9-0.3,1.2-0.4c-0.1-0.7-0.1-1.3-0.2-1.9
		C156.2,109.6,156.5,110.3,156.7,111z M156.7,113.4c-0.1-0.7-0.2-1.4-0.4-2.2c-0.6,0.1-1,0.2-1.4,0.3c0.2,0.9,0.4,1.4,0.5,1.9
		C156,113.4,156.4,113.4,156.7,113.4c-0.3,0.2-0.7,0.4-1.1,0.7c0.2,0.6,0.3,1.1,0.5,1.6c0.5-0.1,0.8-0.3,1.3-0.4
		C157.2,114.5,156.9,114,156.7,113.4z M161.7,112.3c-0.1-0.7-0.3-1.4-0.4-2.2c-1.4,0.5-1.4,0.5-0.7,2.2
		C160.9,112.3,161.3,112.3,161.7,112.3c-0.3,0.2-0.7,0.4-1.1,0.7c0.1,0.5,0.2,1,0.3,1.4c0.5,0,0.8,0,1.1,0c-0.3,0.2-0.6,0.4-0.9,0.6
		c0.1,0.5,0.1,1,0.2,1.5c-0.3-0.5-0.5-0.9-0.8-1.6c-0.4,0.2-0.7,0.4-1,0.5c-0.2-0.1-0.4-0.2-0.6-0.3c-0.1-0.7-0.1-1.3-0.2-2.1
		c-0.6,0.2-0.9,0.3-1.4,0.5c0.2,0.6,0.3,1.1,0.5,1.6c0.4,0,0.8,0,1.1,0c-0.3,0.2-0.6,0.4-1,0.7c0.2,0.6,0.3,1.1,0.5,1.8
		c0.4-0.1,0.8-0.2,1.1-0.3c0-0.4,0-0.8,0-1.1c0.8,1.4,0.9,1.4,1.8,0.4c0.5,0.5,1,0.2,1.7-0.1c-0.4-0.7-0.7-1.3-1.1-1.9
		C162.5,113.7,161.9,113,161.7,112.3z M156.2,117.2c-0.2-0.4-0.5-0.7-0.7-1.1c-1.1,0.6-1.1,0.6-0.5,2.2
		C156,118.5,156.2,118,156.2,117.2c0.1,0.2,0.3,0.5,0.5,0.8c0.4-0.1,0.8-0.3,1.1-0.4c-0.2-1.9-0.2-1.9-1.7-1.6
		C156.2,116.5,156.2,116.8,156.2,117.2z M145,45.6c-0.2-2.1-0.8-4-1.4-6c-0.1,0-0.3,0.1-0.4,0.1c0.2,1.1,0.4,2.2,0.6,3.3
		c-0.3-0.7-0.5-1.5-0.8-2.2c-0.2-0.4-0.5-0.7-0.7-1c0.1-0.4,0.3-0.8,0.2-1.1c-0.4-1.7-0.9-3.3-1.3-4.9c-0.1-0.2-0.3-0.3-0.5-0.4
		c-0.1,0-0.2,0.1-0.3,0.1c0,0.6,0.1,1.2,0.1,1.8c-0.3-0.5-0.5-1-0.9-1.8c-0.2,0.4-0.4,0.7-0.4,0.9c0,0.5,0.1,1,0.2,1.5
		c-0.3-0.6-0.6-1.2-1-2c-0.3,0.4-0.4,0.7-0.6,1c-0.6-0.7-1-0.3-1.3,0.3c-0.5-0.4-1.1-0.4-0.9,0.4c0.4,1.9,0.9,3.7,1.3,5.7
		c1-0.3,0.7-0.8,0.6-1.3c-0.3-1.6-0.7-3.2-1-4.8c0.2,0.5,0.5,1,0.6,1.5c0.3,1.2,0.5,2.4,0.9,3.5c0.1,0.3,0.5,0.5,0.9,0.8
		c0.1-0.7,0.1-1,0.2-1.4c0.3,0.3,0.6,0.6,1,1c-0.1,0.6-0.2,1.1-0.2,1.7c0.2,1.4,0.6,2.8,0.9,4.2c-0.5-1.5-0.9-3.1-1.4-4.6
		c-0.1-0.4-0.2-0.9-0.7-0.6c-0.2,0.1-0.3,0.6-0.2,0.9c0.3,1.3,0.6,2.7,0.9,4c0.1,0.4,0.3,0.7,0.6,1.3c0.4-0.5,0.6-0.7,0.8-1
		c0.3,0.6,0.8,0.3,1.3,0.4c-0.3,0.3-0.6,0.5-0.9,0.8c-0.4,0-0.8,0-1.3,0c0.5,2,0.9,3.8,1.3,5.5c0.1,0,0.2,0.1,0.4,0.1
		c0.2-0.3,0.5-0.5,0.5-0.8c0.1-0.4,0-0.9-0.1-1.3c0.2,0.6,0.5,1.1,0.9,2.1c0.3-0.6,0.5-0.8,0.6-1.1c0-0.5-0.1-1-0.2-1.4
		c0.2,0.4,0.3,0.8,0.6,1.1c0.3,0.3,0.7,0.5,1.1,0.7c-0.5,0.2-0.9,0.5-0.7,1.1c0.4,1.5,0.7,3,1.1,4.6c0.5-0.1,0.8-0.2,1.1-0.3
		c0.2,0,0.3,0,0.5,0c0.4,1.7,0.7,3.5,1.1,5.2c0.2,0,0.3,0,0.5,0c0.1-0.3,0.3-0.6,0.3-0.9c0-0.7-0.1-1.5-0.2-2.2c0-0.7-1-1.8-1.8-2.1
		c0.5-0.2,0.8-0.5,0.6-1.1c-0.1-0.3,0-0.7,0-1c0.3,0.5,0.5,1,0.8,1.4c0.1,0,0.2-0.1,0.3-0.1c-0.5-1.7-0.9-3.3-1.4-5
		c-0.1,0-0.2,0-0.3,0.1c0.1,0.7,0.2,1.4,0.3,2.2c-0.2-0.5-0.3-1-0.6-1.5c-0.2-0.3-0.5-0.4-1-0.6c0.4,2.1,0.7,3.9,1.1,5.6
		c-0.5-1.8-1.1-3.6-1.6-5.4c-0.4-1.7-0.8-3.4-1.2-5.1c-0.1-0.6-0.4-0.7-1-0.4c0,0.5,0.1,1.1,0.2,1.6c-0.2-0.6-0.5-1.1-0.7-1.7
		c0.1-0.2,0.1-0.3,0.2-0.5c0.4,0,0.7-0.1,1-0.1c-0.1-0.9-0.1-1.5-0.2-2.2c0.3,0.7,0.6,1.4,0.8,2c0.1,0,0.3,0,0.4-0.1
		c0.1-0.5,0.1-1,0.2-1.5C144.5,44.7,144.8,45.1,145,45.6c-0.1,0.3-0.2,0.5-0.3,0.8c-0.3-0.1-0.6-0.2-1.3-0.5c0.6,2.2,1.1,4,1.6,5.8
		c1-0.1,0.8-0.6,0.6-1.2c-0.3-1.4-0.6-2.8-1-4.3c0.6,1.7,1.1,3.4,1.7,5c0.1,0,0.2-0.1,0.3-0.1c-0.4-1.4-0.7-2.8-1.1-4.2
		C145.5,46.5,145.2,46.1,145,45.6z M154.7,96.5c0.4-0.2,0.7-0.4,1.1-0.7c-0.2-0.6-0.3-1.2-0.5-1.8c-0.2-0.7-0.5-1-1.2-1.1
		c1.2-0.2,0.6-1.1,0.7-1.7c0.2,0.4,0.4,0.8,0.7,1.2c0.3-0.1,0.6-0.1,1-0.2c-0.2-0.7-0.4-1.3-0.5-1.9c-0.1-1.1-0.6-1.2-1.5-1.1
		c0.3-0.3,0.7-0.5,1-0.8c-0.2-0.7-0.4-1.4-0.5-2.1c-0.1-0.8-0.5-1.1-1.3-1c0.3-0.2,0.5-0.4,0.8-0.6c-0.1-0.7-0.5-1.5-0.3-2.1
		c0.3-0.9-0.3-1.1-0.8-1.4c0.4-1.6-0.3-3-1.1-4.3c-0.3-1.4-0.5-2.9-0.8-4.3c-0.1,0-0.3,0-0.4-0.1c-0.2,0.2-0.6,0.5-0.6,0.7
		c0.3,1.3,0.8,2.5,1.2,3.8c0.1,1.1,0.3,2.3,0.4,3.4c-0.4-1-0.7-1.9-1.1-2.9c-0.7-0.1-1,0.2-0.8,0.9c0.1,0.6,0.3,1.2,0.4,1.7
		c-0.3-0.8-0.6-1.5-1-2.4c-0.3,0.1-0.6,0.2-0.8,0.3c0.1,0.8,0.1,1.4,0.2,2c-0.2-0.4-0.3-0.9-0.5-1.2c-0.2-0.3-0.5-0.5-0.8-0.7
		c0.2-0.4,0.3-0.8,0.5-1.2c0.3,0.2,0.7,0.4,1,0.6c0.1-0.4,0.3-0.7,0.4-1.1c0.3,0.2,0.7,0.4,1,0.6c0-0.4,0.2-0.8,0.1-1.1
		c-0.2-1-0.5-2-0.8-3c-0.9,0.1-0.9,0.6-0.8,1.1c0.2,0.8,0.3,1.6,0.5,2.3c-0.3-0.8-0.7-1.6-0.9-2.5c-0.1-0.6-0.4-0.7-0.9-0.8
		c0.3-0.3,0.6-0.5,0.5-1.1c-0.3-1-0.4-2-0.6-3c0.4,1.2,0.8,2.3,1.3,3.7c0.3-0.3,0.7-0.5,0.7-0.6c-0.2-1.4-0.5-2.8-1.1-4.1
		c-0.1,0-0.3,0-0.4,0c-0.1,0.4-0.3,0.7-0.4,1.1c-0.4-0.6-0.9-1-1.4-0.1c-1.3-0.2-1.3-0.2-1.5,1c-0.3-0.2-0.5-0.5-0.8-0.7
		c-0.1,0.3-0.3,0.7-0.3,1c0.2,1.2,0.5,2.3,0.8,3.4c0.4,0,0.6,0,0.9,0.1c-0.4,0.3-0.9,0.5-0.6,1.3c0.3,0.7,0.4,1.5,0.5,2.3
		c0.1,0.7,0.5,0.9,1.1,0.9c-0.5,0.1-0.8,0.4-0.6,1c0.3,1,0.5,2.1,0.8,3.4c0.5-0.4,0.9-0.7,0.9-0.8c-0.4-1.2-0.1-2.6-1.1-3.6
		c0.4-1.7-0.4-3.1-1-4.5c-0.1-1.1-0.2-2.3-0.3-3.4c0.2,0.7,0.4,1.5,0.7,2.2c0.1,0.3,0.5,0.6,0.7,0.9c-0.1,0.2-0.4,0.4-0.3,0.6
		c0.2,1.1,0.5,2.2,0.8,3.4c0.1,0.2,0.5,0.3,0.7,0.4c-1.2,1.1,0.1,2.1,0.1,3.2c0,0.6,0.3,1.1,1,1.1c-0.6,0.3-0.6,0.6-0.4,1.2
		c0.2,0.8,0.3,1.6,0.5,2.5c-0.4-1-0.8-2.1-1.3-3.5c-0.3,0.5-0.7,0.8-0.6,1.1c0.1,0.8,0.3,1.6,0.6,2.3c0.1,0.3,0.6,0.5,0.8,0.7
		c-0.2,0.3-0.5,0.6-0.5,0.9c0,0.6,0.2,1.2,0.3,1.8c0.1,0.8,0.6,1.1,1.3,1c-1.2,0.8-1.2,1,0,3.6c0.3-0.1,0.6-0.2,0.9-0.3
		c-0.1-0.8-0.2-1.6-0.3-2.4c0.4,0.7,0.8,1.4,1.2,2.2c0.1-0.1,0.5-0.3,0.7-0.4c-0.1-0.9-0.3-1.8-0.4-2.6c0.3,0.8,0.6,1.7,0.9,2.5
		c0.3,0,0.7-0.1,1.1-0.1c0-0.5-0.1-0.9-0.1-1.4c0.3,0.4,0.5,0.9,0.8,1.3c0,0.8,0.1,1.5,0.1,2.3c-0.2-0.6-0.5-1.2-0.7-1.8
		c-1.2,0.1-1.2,0.1-1,0.9c0.2,0.7,0.4,1.4,0.6,2.1c1-0.2,1-0.2,1-1.3C154.4,95.6,154.6,96.1,154.7,96.5c0.3,0.9,0.6,1.9,0.9,2.9
		c0.3-0.1,0.6-0.2,1-0.3c-0.2-0.9-0.4-1.8-0.6-2.6C155.5,96.5,155.1,96.5,154.7,96.5z M135.2,30.3c-0.2-0.6-0.5-1.2-0.8-2
		c-0.1,0.5-0.2,0.9-0.2,1.2c-0.3-0.5-0.6-1.1-1-1.3c-0.9-0.5-1.1-1.1-1-2c0.1-0.9,0.8-0.9,1.6-0.9c-0.3-1-0.5-1.9-0.7-2.8
		c-0.1-0.2-0.1-0.5-0.2-0.8c-0.9-0.1-1.7-0.2-1.8-1.4c-0.1-1.2,0.6-1.5,1.6-1.7c-0.3-0.9-0.5-1.8-0.8-2.6c-0.1-0.3-0.4-0.6-0.7-0.7
		c-1.6-0.8-1.7-0.8-1.2-2.8c0.2,0,0.4-0.1,0.6,0c1.8,0.2,2.1,0.7,1.6,2.5c-0.1,0.4,0,0.9,0.1,1.3c0.2,1.7,1.6,3.1,1.6,5
		c0,0.9,0.5,1.8,0.8,2.7c0.2,0.6,0.5,1.2,0.7,1.9c0.6,2.1,1.2,4.3,1.9,6.4c0.1,0.3,0.5,0.5,0.8,0.8c0.2-0.3,0.4-0.7,0.4-1
		c0.1-0.8,0-1.6,0.1-2.4c0.2,1,0.4,2.1,0.5,3.1c0.1,0,0.3,0,0.4,0c0.1-0.4,0.2-0.8,0.2-1.1c-0.3-2.5-0.6-5-0.9-7.5
		c0-0.3-0.3-0.6-0.5-0.9c-0.2-1.8-0.5-3.6-0.7-5.5c-0.2-2.2-0.3-4.3-0.4-6.5c-0.1-1.2,0.3-1.4,1.4-1c0.2,0.1,0.5,0,0.6,0.1
		c0.3,0.4,0.7,0.9,0.7,1.3c0,0.3-0.5,0.7-0.8,0.9c-0.3,0.2-0.8,0.1-1.3,0.2c0.1,1.3,0.1,2.4,0.2,3.6c0.4,0.1,0.7,0.2,1,0.3
		c0.6,0.4,1.6,0.4,1.6,1.4c-0.1,0.9-0.9,1.1-1.6,1.4c-0.1,0-0.1,0.1-0.2,0.2c0.1,1.1,0.2,2.2,0.3,3.2c0.6,0.2,1.2,0.4,1.7,0.7
		c0.4,0.3,1.1,0.7,1.1,1c-0.1,0.5-0.6,1.2-1,1.3c-0.8,0.2-0.6,0.8-0.8,1.2c-0.8,1.8,0.2,3.4,0.4,5.1c0.2-0.5,0.2-1.1,0.2-1.6
		c-0.2-1.2-0.4-2.4-0.6-3.5c0.4,1.6,0.9,3.2,1.3,4.8c0.3-0.3,0.4-0.5,0.5-0.8c0.2-0.9,0.3-1.9,0.5-2.8c0.1-0.7,0.5-1.5,0.4-2.2
		c-0.8-6.3-1.7-12.6-2.5-18.9c-0.1-0.7-0.3-1-1-1.1c-3.3-0.7-8.3,0-11.1,3.7c-0.3,0.3-0.4,0.9-0.3,1.4c0.2,1.1,0.5,2.2,0.7,3.3
		c0,0.1-0.1,0.2-0.2,0.5c-0.3-0.5-0.5-0.8-0.7-1.2c-1.2,0.5-1.6,1.1-1.4,2c0.2,1,0.6,1.2,2.1,1.2c0.1-0.4,0.2-0.8,0.3-1.1
		c0.8,1.6,1.1,3.2,1.3,4.8c-0.1,0-0.2,0-0.3,0.1c-0.1-0.4-0.3-0.7-0.4-1.1c-1.4,0.5-1.8,1.1-1.5,2.2c0.3,0.9,0.9,1.2,2.1,1
		c0-0.4,0.1-0.7,0.1-1.1c0.1,0,0.2,0,0.4,0c0.4,1.8,0.8,3.7,1.3,5.5c-0.1,0-0.2,0.1-0.3,0.1c-0.2-0.4-0.4-0.8-0.7-1.2
		c-1.2,0.6-1.4,0.9-1.4,1.8c0,0.8,0.5,1.3,1.2,1.6c0.3,0.1,0.7,0,1,0c0.1-0.5,0.1-0.9,0.1-1.2c1.1,1.9,2.1,3.6,3.1,5.4
		c0.1,0,0.1,0,0.2,0c-0.2-1.4-0.3-2.8-0.5-4.2c0.3,1.4,0.7,2.8,1,4.2c0.1,0,0.2,0,0.4,0c0-0.3,0.1-0.6,0.1-0.9
		C135.5,31.9,135.3,31.1,135.2,30.3c0.2,0.7,0.5,1.5,0.7,2.3c0.2,0.6,0.4,1,1.1,0.4c-0.6-1.9-1.2-3.8-1.8-5.8
		c-0.1,0-0.3,0.1-0.4,0.1C135,28.3,135.1,29.3,135.2,30.3z M146.6,64.6c0.4,1.1,0.8,2.3,1.3,3.5c0.3-0.1,0.5-0.2,0.7-0.2
		c-0.2-1.4-0.4-2.7-0.6-4c0.3,1,0.6,2,0.9,3c0.1,0.5,0.3,1,0.9,1c-0.2,0.3-0.5,0.6-0.5,0.8c0.3,1.3,0.7,2.7,1.1,4c0.2,0,0.3,0,0.5,0
		c0.1-0.3,0.4-0.6,0.3-0.9c-0.2-1.1-0.4-2.2-0.7-3.2c-0.1-0.3-0.4-0.5-0.7-0.7c0.6-1.8-0.7-3.2-0.8-4.9c-0.2,0-0.3,0-0.5,0
		c-0.2,0.4-0.3,0.7-0.5,1.1c-0.3-0.2-0.6-0.4-0.9-0.6c-0.1,0.3-0.2,0.7-0.3,1C146.7,64.5,146.6,64.6,146.6,64.6
		c-0.4-0.3-0.4-1.4-1.4-0.5c0.4,1.4,0.7,2.9,1.1,4.4c0.4-0.2,0.7-0.4,0.9-0.5C147,66.9,146.8,65.8,146.6,64.6z M145.2,59
		c-0.4-0.6-0.8-0.7-1.3-0.1c0.4,1.6,0.8,3.1,1.1,4.7c0.8,0,1-0.3,0.8-0.9c-0.2-0.8-0.3-1.7-0.4-2.5c0.4,1,0.7,2,1.1,3
		c0.1,0,0.2,0.1,0.4,0c0.1,0,0.3-0.1,0.5-0.2c-0.4-1.6-0.8-3.2-1.2-4.8c-0.1,0-0.3,0-0.4,0C145.5,58.3,145.4,58.7,145.2,59z
		 M143,61.8c-0.2-0.6-0.6-1.2-0.7-1.8c-0.1-0.7-0.5-0.9-1.1-0.9c0.2-0.3,0.5-0.7,0.6-1c0.1-0.3,0-0.7-0.1-1c0.2,0.5,0.5,1,0.7,1.5
		c0.2-0.1,0.5-0.1,0.9-0.3c-0.4-1.8-0.8-3.5-1.2-5.2c-0.1,0-0.3,0-0.4-0.1c-0.2,0.3-0.5,0.5-0.7,0.8c-0.1-0.2-0.3-0.4-0.4-0.5
		c-0.6-1.9-0.6-4-1.7-5.8c-0.3,0.3-0.5,0.7-0.4,1c0.4,1.6,0.8,3.2,1.2,4.7c0.4,0,0.7,0,1,0c-0.7,0.4-1,0.7-1,1.7
		c0,1.6,1.2,2.7,1.6,4.1c0,1.9,0.4,3.7,1.4,5.3c-0.3,1.7,0.4,3.3,0.8,4.8c1,0.1,0.9-0.6,1-1.1c0.4,0.6,0.8,1.1,1.5,0.3
		c-0.3-1.2-0.6-2.3-0.9-3.5c-0.1-0.6-0.4-0.8-1-0.8c0.2-0.3,0.6-0.6,0.5-0.8c-0.2-1.3-0.6-2.6-0.9-3.9c-0.1-0.2-0.6-0.3-1.1-0.4
		C142.6,60.1,142.8,61,143,61.8z M167.8,133c3-1.8,4.7-6.5,4-10.4c-0.8-4.2-4.4-7.8-8-8.2c-0.3,1.3,0.9,1.6,1.6,2
		c1.9,1,3.3,2.4,4.1,4.3c1.7,3.8,1.1,7.3-1.6,10.4C167.3,131.7,167.2,132.2,167.8,133z M158.1,135c0.2-0.9-0.2-1.3-0.9-1.8
		c-1.2-0.7-2.4-1.5-3.3-2.5c-3.8-4.3-2.5-9.9,0.5-12.6c-0.1-0.5-0.3-1-0.4-1.5c-2.9,1.9-4.5,7.1-3.6,10.7
		C151.4,131,154.8,134.5,158.1,135z M142.8,24.4c0.7,0.2,1.3,0.6,1.4,1.4c1.5-0.6,1.8-0.9,1.6-1.9c-0.2-1.1-0.6-1.4-1.9-1.4
		C143.5,23.2,143.2,23.8,142.8,24.4z M142.7,12.9c0.3-0.2,0.7-0.3,0.9-0.6c0.8-0.9,0.3-2.5-0.8-2.7c-0.3,0-0.6,0.2-0.9,0.3
		c0.4,0.9-0.8,1-0.9,1.5C141.6,11.9,142,12.3,142.7,12.9z M142.8,15.9c0,0.4,0,0.8-0.1,1.1c-0.1,0.3-0.5,0.4-0.7,0.6
		c0.6,0.6,1.1,1.1,1.6,1.7c1.2-0.6,1.5-1.1,1.2-2.1C144.5,16.1,144,15.8,142.8,15.9z M137.8,41.3c-0.1,0-0.3,0-0.4,0
		c-0.5,0.8,0.1,4.2,1,5.9c0.2-0.1,0.5-0.2,0.5-0.3C138.6,45.1,138.2,43.2,137.8,41.3z M142.5,53.1c0.4,1.7,0.8,3.3,1.2,5.1
		c0.4-0.1,0.7-0.2,0.9-0.3c-0.4-1.5-0.7-2.9-1.1-4.4C143.5,53,143.2,52.6,142.5,53.1z M149.3,94.6c0.3,1,0.5,1.9,0.7,2.8
		c0.5-0.1,0.8-0.2,1.1-0.3c-0.3-1-0.5-2-0.7-2.9C150,94.3,149.7,94.4,149.3,94.6z M143.1,39.1c0.2,0,0.3-0.1,0.5-0.1
		c-0.5-2-1.1-3.9-1.6-5.9c-0.1,0-0.3,0.1-0.4,0.1C142,35.1,142.3,37.2,143.1,39.1z M155.3,100.1c-1.4,0.3-1.4,0.3-0.5,2.7
		c0.3-0.1,0.7-0.2,1-0.3C155.7,101.6,155.5,100.9,155.3,100.1z M157.1,105.7c0.5,2.1,0.5,2.1,1.6,1.8
		C158.5,105.5,158.4,105.4,157.1,105.7z"/>
	<path d="M166.5,143.5c0.7,2.5,1.4,4.9,2.1,7.4c0.8,0.1,1.2-0.2,1.3-0.9c0.9,0.8,1.2,0.8,2-0.2c0.3,0.1,0.6,0.4,0.8,0.4
		c0.4,0,0.9-0.2,1.3-0.3c1.2-0.2,1.5,0,1.8,1.2c0.1,0.3,0.2,0.7,0.3,1.1c0.4,0,0.7,0,1.1-0.1c1.4-0.2,1.8,0.1,2.1,1.5
		c0.2,0.8,0.2,1.6,0.4,2.5c-2.3,0.5-4.5,0.9-6.7,1.4c-4,0.8-8,1.6-12,2.4c-1.6,0.3-1.9,0.1-2.3-1.6c0-0.1-0.1-0.3-0.1-0.4
		c-0.3-1.8-0.3-1.8,1.5-2.2c0.2-0.1,0.5-0.1,0.8-0.2c0-0.2,0.1-0.4,0-0.6c-0.3-2-0.3-2,1.6-2.8c-0.6-2.3-1.2-4.7-1.7-7
		c-0.4-1.7-0.7-3.4-1-5c0.6,2.1,1.2,4.1,1.8,6.2c0.4,1.6,0.8,3.2,1.1,4.8c0.2,1,0.6,1.3,1.6,0.8c-0.1-0.8-0.2-1.6-0.2-2.5
		c0.3,0.7,0.6,1.5,0.9,2.3c0.4,0,0.8,0.1,1.3,0.1c-0.4,0.2-0.8,0.4-1.2,0.6c0.2,0.6,0.3,1.1,0.5,1.7c0.6-0.1,1.1-0.2,1.8-0.4
		c-0.5-0.8-0.8-1.4-1.2-2c0-0.6,0-1.2-0.1-1.8c-0.7-3.1-1.5-6.3-2.2-9.4c-0.1-0.2,0-0.5-0.1-0.7c0.5,1.6,1,3.2,1.4,4.7
		c0.6,2.2,1.1,4.4,1.6,6.7c0.5-0.1,0.9-0.1,1.6-0.2c-0.4-1.7-0.9-3.2-1.2-4.8C166.7,145.4,166.6,144.5,166.5,143.5z M170.3,152.2
		c-0.4-0.5-0.6-1.6-1.6-0.6c0,0.1,0,0.3,0,0.4c0.1,0.4,0.2,0.8,0.3,1.1C170.2,153.1,170.2,153.1,170.3,152.2
		c0.2,0.2,0.4,0.5,0.6,0.8c0.4-0.1,0.9-0.2,1.4-0.3c-0.2-0.7-0.3-1.3-0.5-2c-0.6,0.1-1.1,0.2-1.5,0.3
		C170.4,151.5,170.4,151.8,170.3,152.2z M168.5,153.7c-0.3,0.2-0.7,0.4-1.1,0.7c0.3,0.3,0.7,0.6,0.9,0.9c0.1,0.2,0,0.6-0.2,0.8
		c-0.1,0.1-0.4,0.2-0.5,0.2c-0.2-0.1-0.4-0.4-0.5-0.6c-0.1-0.4,0-0.8,0-1.3c-0.6,0.1-1.1,0.2-2,0.3c0.5,0.4,0.7,0.5,0.8,0.7
		c0.2,0.3,0.3,0.6,0.5,1c-0.3,0.1-0.7,0.4-0.9,0.3c-0.2-0.2-0.4-0.6-0.4-0.9c0.1-0.7-0.3-0.9-0.8-1.1c0.7-0.7,0.1-1.4,0-2.2
		c-0.5,0.1-1,0.1-1.6,0.2c0.3,0.8-0.1,1.9,1.2,2c-0.4,0.4-0.7,0.8,0,1.2c0.2,0.1,0.3,0.6,0.3,0.9c0,0.1-0.6,0.4-0.7,0.4
		c-0.3-0.2-0.7-0.7-0.6-0.9c0.4-0.9-0.3-1.1-0.8-1.3c0.9-0.8,0.2-1.4,0.1-2.1c-0.5,0.1-1,0.2-1.4,0.3c0.1,0.8,0.2,1.6,0.3,2.5
		c-0.9,0.3-1.7,0.5-2.5,0.8c0,0.3,0,0.6,0,0.8c0.1,0.7,0.3,1.5,0.5,2.3c6.6-1.3,13.1-2.6,19.6-3.9c-0.1-0.7-0.2-1.2-0.3-1.7
		c-0.1-0.5-0.2-0.9-0.3-1.4c-2.6,0.2-2.6,0.2-3.5-2.4c-0.8,0.2-1.6,0.4-2.5,0.7c0.3,0.7,0.5,1.3,0.7,1.9c0.5-0.1,0.9-0.1,1.4-0.2
		c0,0.1,0,0.1,0,0.2c-0.4,0.2-0.7,0.3-1.3,0.5c0.5,0.3,0.9,0.4,1.1,0.7c0.1,0.2,0.1,0.6,0,0.9c-0.1,0.1-0.6,0.1-0.8,0
		c-0.2-0.1-0.3-0.5-0.4-0.7c-0.4-1.2-0.6-1.3-1.8-0.3c0.2,0.1,0.5,0.1,0.6,0.2c0.3,0.3,0.5,0.6,0.7,1c-0.2,0.2-0.6,0.5-0.7,0.4
		c-0.3-0.2-0.6-0.5-0.7-0.8c-0.2-0.3-0.2-0.7-0.3-1.2c-0.5,0.2-0.9,0.3-1.4,0.5c0.3,0.3,0.5,0.4,0.6,0.6c0.2,0.3,0.4,0.6,0.5,0.9
		c0,0.1-0.4,0.3-0.7,0.4c-0.2-0.3-0.4-0.7-0.6-1C168.8,154.4,168.6,154,168.5,153.7c-0.1-0.7-0.1-1.4-0.2-2.2
		c-0.7,0.2-1.1,0.2-1.6,0.4c0.2,0.7,0.3,1.2,0.5,1.8C167.7,153.6,168.1,153.6,168.5,153.7z"/>
	<path d="M171.6,148.4c-0.4-1-0.8-2-1.1-3.1c-0.4-1.5-0.7-3.1-1.1-4.6C170.1,143.2,170.8,145.8,171.6,148.4z"/>
	<path d="M154.1,114.1c-0.1,0.4-0.1,0.9-0.2,1.3c-0.8-0.8-0.6-2-0.9-2.9c-0.1-0.5-0.6-0.8-0.1-1.4c0.4,0.1,0.8,0.3,1.2,0.4
		C153.2,112.3,153.2,112.5,154.1,114.1z"/>
	<path d="M169.6,148.9c-0.5-1.6-1-3.2-1.4-4.7c-0.2-0.8-0.3-1.7-0.5-2.5C168.4,144.1,169,146.5,169.6,148.9z"/>
	<path d="M140.9,36.6c0.2,0.7,0.4,1.4,0.6,2c0.2,0.4,0.5,0.8,0.8,1.1c-0.4,0.2-0.4,0.6-0.3,1c0.2,0.9,0.3,1.8,0.5,2.6
		c-0.3-0.7-0.5-1.5-0.8-2.2c-0.2-0.4-0.4-0.7-0.7-1c-0.1,0.1-0.3,0.1-0.4,0.2c0.3,1.6,0.7,3.2,1,4.7c-0.4-1.2-0.8-2.5-1.3-3.7
		c-0.1-0.4-0.5-0.6-0.7-0.9c0-0.5,0.1-1,0.1-1.4c-0.1-1.1-0.4-2.3-0.6-3.4c0.3,1.1,0.7,2.3,1,3.4c0.2,0.6,0.2,0.6,1,0.6
		C141.2,38.6,141.1,37.6,140.9,36.6z"/>
	<path d="M147.9,73.4c-0.6,0.6-0.2,1.2-0.1,1.8c0.1,0.6,0.2,1.3,0.3,1.9c-0.3-0.8-0.7-1.7-0.8-2.5c-0.1-0.6-0.5-0.7-0.9-0.8
		c0.4-0.3,0.7-0.5,0.5-1.1c-0.2-0.4-0.1-1-0.1-1.4C147.4,71.8,146.9,73.1,147.9,73.4z"/>
	<path d="M150.2,90.2c0.6-0.2,0.9-0.6,0.7-1.2c-0.1-0.5-0.1-1-0.1-1.5c0.3,0.7,0.5,1.5,0.9,2.5c0.4-0.2,0.7-0.3,1-0.4
		c-0.2-0.9-0.3-1.6-0.6-2.2c-0.2-0.5-0.5-0.9-0.8-1.3c0.5-1.4-0.5-2.5-0.5-3.9c-0.4,0.1-0.7,0.1-1,0.2c0.2,1.1,0.4,2.1,0.6,3.1
		c-0.2-0.6-0.5-1.3-0.7-1.9c-0.2-0.5-0.2-1-0.9-1c0.8-0.4,0.2-1.2,0.4-1.8c0.2,0.4,0.4,0.8,0.8,1.5c0.4-0.4,0.6-0.7,0.9-0.9
		c1,0.5,1.2,0.4,1.3-0.8c0.3,0.5,0.6,1,1.4,0.8c-0.2,0.1-0.5,0.3-0.8,0.5c0.2,1.2,0.4,2.4,0.7,3.6c-0.4-1.2-0.8-2.3-1.2-3.5
		c-1,0.6-1,0.7,0.1,3.7c0.4-0.1,0.7-0.2,1.1-0.3c0.2,0,0.4,0,0.5,0.1c-0.3,1.4,0.4,2.6,0.8,3.9c0,0.3-0.1,0.6-0.1,0.9
		c-0.3-0.5-0.6-0.8-1.3-0.3c0,0.6,0.1,1.2,0.1,1.9c-0.2-0.6-0.5-1.2-0.8-1.9c-0.5,0-1,0.1-1.1,0.8C151.1,90.5,150.6,90.4,150.2,90.2
		z M152.2,86c0.2,1,0.4,1.8,0.7,2.7c0.2,0.7,0.6,0.8,1.2,0.4c-0.3-1.1-0.6-2.2-0.8-3.3C152.9,85.8,152.6,85.9,152.2,86z"/>
	<path d="M154,108.2c-0.2-0.3-0.3-0.7-0.5-1c-0.2-0.3-0.6-0.5-0.8-0.8c0.8-0.9,0.6-2.1-0.6-2.8c0.7-1.1,0.3-2.5-0.9-2.9
		c0.4-0.3,0.7-0.5,0.5-1.1c-0.2-0.5-0.1-1-0.2-1.5c0.3,0.6,0.5,1.3,0.8,2c0.3,0,0.7,0,1.1,0c-0.3,0.2-0.6,0.3-1.1,0.6
		c0.3,0.8,0.6,1.7,0.8,2.5c0.1,0.9,0.2,1.7,0.3,2.6c0.5,0,0.9,0,1.3,0c-0.3,0.2-0.7,0.4-1,0.6C154,107.1,154,107.7,154,108.2z"/>
</g>
<g>
	<path d="M56,158.6c-0.4,0.7-0.4,1.3,0,1.9c0.4,0.7,1.1,0.9,1.8,0.8c1.6-0.1,2.8-1.3,2.8-3c0-1.2-0.3-2.3-0.5-3.5
		c-0.1-0.5-0.3-1-0.3-1.5c-0.1-0.5-0.3-0.7-0.8-0.6c-1.7,0.4-3.3,0.2-4.9-0.5c-2.1-1-3.2-2.7-3.6-4.9c-0.5-2.8,0.3-5.3,1.8-7.6
		c0.8-1.3,1.8-2.5,2.7-3.8c0.1-0.2,0.2-0.5,0.2-0.7c-0.3-2.7-0.7-5.3-1-8c-0.1-1,0-2,0.2-3c0.3-1.8,1.8-2.3,3.1-1
		c1.3,1.2,1.9,2.7,2.3,4.4c0.9,3.4,0,6.4-2,9.1c-1.1,1.5-1.1,1.5-0.7,3.4c0.1,0.3,0.2,0.6,0.3,1c1.7-0.4,3.2-0.1,4.6,0.9
		c1.1,0.8,1.9,1.9,2.3,3.2c0.4,1.6,0.3,3.1-0.6,4.5c-0.8,1.4-2.1,2.3-3.5,2.9c0.3,1.3,0.6,2.5,0.8,3.7c0.3,1.5,0.4,2.9-0.5,4.3
		c-0.8,1.3-2.6,1.9-4.1,1.5c-1.5-0.5-2.5-1.9-2.5-3.5c0.1-1.3,0.5-2.3,1.6-3c0.8-0.5,1.7-0.4,2.3,0.1c0.6,0.6,0.8,1.3,0.4,2
		c-0.4,0.8-1.1,1.1-1.9,1C56.3,158.7,56.1,158.6,56,158.6z M59.3,151.8c-0.8-2.7-1.6-5.4-2.3-8.2c-1,0.5-1.6,1.3-1.8,2.3
		c-0.3,1-0.1,2,0.6,2.9c-1.1-0.4-1.6-1.2-1.8-2.2c-0.3-2.1,0.5-3.7,2.2-4.9c0.2-0.1,0.4-0.4,0.3-0.5c-0.1-0.6-0.3-1.3-0.5-2
		c-1.6,1.4-3.3,4.3-3.7,6.2c-0.3,1.2-0.3,2.4,0.1,3.5C53.4,151.6,56.5,152.9,59.3,151.8z M59.8,151.6c1.7-0.6,3.5-3,2.5-5.5
		c-0.8-2-3.2-3.4-4.5-2.7C58.5,146.1,59.1,148.8,59.8,151.6z M55.8,123.9c-1,3.6-0.1,7,0.3,10.7c0.8-1.1,1.5-2.2,1.7-3.4
		c0.3-1.8,0.2-3.5-0.4-5.2C57.1,125.2,56.8,124.4,55.8,123.9z"/>
</g>
<g>
	<path d="M141.8,96.2c-0.7-1-1.7-1.9-2.8-2.5c-4.2-2.7-8.9-4.3-13.9-4.8c-2.1-0.2-5.3,1-6.2,3.1c-1.3,3-3.3,3.7-6.4,3.6
		c-14.4-0.6-28.9-0.8-43.3-1.3c-0.9,0-1.9-0.6-2.6-1.2c-1.7-1.4-3.2-3.1-4.9-4.5c-1.7-1.4-3.5-2.3-5.8-1.3c-0.7,0.3-1.6,0-2.4,0
		c-1.9,0.2-3.9,0.1-5.7,0.7c-3,1-4.2,3.8-3.6,6.8c0.2,0.8-0.1,1.7-0.3,2.5c-0.1,0.7-0.8,1.5-0.6,2.1c0.8,3,1.5,6,2.7,8.8
		c0.9,2.1,2.9,3.4,5.1,4c1.3,0.4,2.9,0.4,4.3,0.3c1.4,0,2.9-0.6,4.3-0.4c18.9,1.7,37.7,3.5,56.6,5.1c1.6,0.1,2.4,0.7,3.2,2.1
		c3,5.3,5.6,6.3,11.6,4.7c1-0.3,2-0.6,3-1c-1.8-1.9-1.8-4.8-0.8-7.5c-0.3-1-0.2-2.2,0.5-3c0.1-0.4,0.3-0.7,0.5-1.1
		c0.1-0.3,0.1-0.7,0.2-1c0.6-1.8,1.9-3.1,3.6-3.6c0.2-1.3,1.1-2.5,2.9-2.5c0,0,0.1,0,0.1,0c0.4-0.5,0.7-1,1-1.5
		c0.6-1.5,1.9-1.8,3.1-1.4C144,99.5,142.9,97.8,141.8,96.2z M46.6,90.5c1.3-1.6,5.1-2,6.9-0.8c-0.9,0.1-1.7,0.2-2.7,0.4
		c0.7,1.2,1.6,2.1,1.6,2.9c0,2.1,0.8,3.7,2.5,5.2c-2.8,1.3-5,0.7-7.3-1.8C45.6,94.5,45.2,92.1,46.6,90.5z M46.6,103.2
		c-1.4-1.4-2.2-2.9-1-5.2c2.5,1.8,4.9,3.3,7.9,3.2c1.4,0,2.2,1.2,1.6,2.2c-0.6,1-1.5,2.1-2.5,2.3C50.1,106.3,48.2,104.8,46.6,103.2z
		 M53.5,110.7c-2.6-0.2-4.6-1.5-6.1-3.9c3.1,1.5,6.1,1.9,8.9-0.7C57.4,109,56.1,110.9,53.5,110.7z M123.8,116
		c-21.8-2-43.3-4-64.7-5.9c-0.1-1.3,0.3-2.6-0.3-3.3c-1.6-2.2-1-4.9-2.7-7.3c2.2-0.1,4.3-0.2,4.9-2.6c0.5-2.2,0.5-4.3-1.6-6.5
		c-0.3,1-0.6,1.6-0.6,2.2c0,0.8,0.4,1.6,0.4,2.4c0,1.9-1.3,2.6-2.9,1.7c-2.1-1.2-2.3-3.6-0.5-6.5c1.1-1.8,2.6-2.1,4.6-0.5
		c1.7,1.4,3.5,2.8,4.8,4.5c1.1,1.4,2.2,1.8,3.9,1.9c13.2,0.3,26.5,0.7,39.7,1.1c4.8,0.1,9.7,0.3,14.6,0.4
		C125.3,103.7,125.3,109.7,123.8,116z"/>
</g>
<g>
	<path d="M233.7,54c-13.2,13.5-26.5,27.1-39.9,40.8c-5.3-3.8-9.1-8.4-11.6-14.3c3.6-3.3,7.2-6.5,10.8-9.8c9.6-8.7,19.2-17.3,28.8-26
		c-0.4-0.7-0.5-1.6-0.3-2.3c-0.1,0.1-0.2,0.3-0.3,0.4c-10.7,9.7-21.5,19.3-32.1,29.1c-2.3,2.1-4.3,2.9-7.2,1.4
		c-2.1-1-5.3,0.1-6.8,1.7c-3.4,3.7-6,7.9-7.5,12.7c-0.4,1.2-0.6,2.5-0.5,3.8c0.1,1.2,0.3,2.4,0.4,3.6c4.6-1,11.1,3.3,14.4,5.7
		c0.8,0.6,1.2,1.4,1.3,2.2c2,0.9,3.6,2.4,4.9,4.3c1.8-0.5,3.5-1,5.1-1.8c5.6-2.7,6.9-5.1,5.8-11.1c-0.3-1.5,0-2.5,1.1-3.6
		c10.5-10.7,21-21.5,31.6-32.2c0.2-0.7,0.6-1.4,1.2-1.8c-0.1-0.9,0.2-1.7,0.8-2.4C233.8,54.2,233.8,54.1,233.7,54z"/>
</g>
<g>
	<path d="M135.4,40.4c-0.2-1.8-0.5-3.5-1.1-5.2c-1.1-3.3-3-6.1-6-8.1c-2-1.3-4.1-2.2-6.4-2.8c-0.1,0-0.2-0.1-0.3-0.1
		c-0.3,0.2-0.7,0.1-1,0.1c-0.5,0-0.9,0.2-1.3,0.4c0,0,0,0-0.1,0c-0.1,0-0.2,0.1-0.3,0.1c0,0-0.1,0-0.1,0c-0.8,0.3-1.7,0.5-2.5,0.8
		c-0.1,0-0.3,0.1-0.3,0.2c-0.1,0.2-0.3,0.3-0.5,0.4c-0.1,0.1-0.3,0.1-0.4,0.2c-0.6,0.4-1.2,0.9-1.8,1.3c-0.2,0.1-0.3,0.3-0.5,0.5
		c-0.5,0.7-1.2,1.3-2,1.7c0,0,0,0,0,0c-0.8,0.5-1.5,1.3-1.8,2.2c-0.4,1.4-0.6,2.9-0.7,4.4c-0.1,1.5,0,3,0.3,4.5c0.6,3,2,5.6,3.9,7.9
		c0.1,0.1,0.2,0.3,0.4,0.4c1.9,1.2,3.8,2.2,6,2.8c1.7,0.5,3.4,0.7,5.2,0.4c2-0.3,3.7-1.1,5.3-2.4c1.7-1.3,3-2.9,4.1-4.7
		c0.4-0.6,0.7-1.1,1-1.7c0.3-0.7,0.5-1.4,0.8-2.2c0-0.1,0.1-0.2,0-0.3C135.5,40.9,135.5,40.7,135.4,40.4z M133.6,39.1
		c-0.1,2-0.6,3.9-1.6,5.6c-1.5,2.5-3.6,4.1-6.3,5c-1.3,0.4-2.7,0.7-4.2,0.7c-2.8,0-5.2-1-7.4-2.8c0,0-0.1-0.1-0.1-0.1
		c-1.4-2.1-2.6-4.4-3.3-6.9c-0.4-1.5-0.6-3.1-0.4-4.7c0.2-1.7,0.9-3.1,2.1-4.4c1.4-1.6,3.2-2.7,5.1-3.6c0.8-0.3,1.5-0.6,2.3-0.9
		c0.5-0.2,0.9-0.3,1.4-0.2c2.4,0.3,4.6,0.9,6.7,2.2c2.3,1.5,3.9,3.5,4.9,6c0.4,1,0.7,2.1,0.9,3.2C133.7,38.6,133.6,38.8,133.6,39.1z
		"/>
	<path d="M123.5,43.9c-0.1-0.1-0.3-0.1-0.4-0.2c-0.3-0.3-0.6-0.6-1-1c-0.1-0.1-0.1-0.2-0.1-0.3c0-0.9,0.3-1.7,0.8-2.5
		c0-0.1,0.2-0.1,0.3-0.1c0.9-0.1,1.6,0.2,2.1,0.9c0.1,0.1,0.1,0.2,0.2,0.3c0.5,0.9,0.2,2.1-0.8,2.5
		C124.2,43.7,123.8,43.7,123.5,43.9z"/>
</g>
<g>
	<path d="M168.3,34.9c-0.2-1.8-0.5-3.5-1.1-5.2c-1.1-3.3-3-6.1-6-8.1c-2-1.3-4.1-2.2-6.4-2.8c-0.1,0-0.2-0.1-0.3-0.1
		c-0.3,0.2-0.7,0.1-1,0.1c-0.5,0-0.9,0.2-1.3,0.4c0,0,0,0-0.1,0c-0.1,0-0.2,0.1-0.3,0.1c0,0-0.1,0-0.1,0c-0.8,0.3-1.7,0.5-2.5,0.8
		c-0.1,0-0.3,0.1-0.3,0.2c-0.1,0.2-0.3,0.3-0.5,0.4c-0.1,0.1-0.3,0.1-0.4,0.2c-0.6,0.4-1.2,0.9-1.8,1.3c-0.2,0.1-0.3,0.3-0.5,0.5
		c-0.5,0.7-1.2,1.3-2,1.7c0,0,0,0,0,0c-0.8,0.5-1.5,1.3-1.8,2.2c-0.4,1.4-0.6,2.9-0.7,4.4c-0.1,1.5,0,3,0.3,4.5c0.6,3,2,5.6,3.9,7.9
		c0.1,0.1,0.2,0.3,0.4,0.4c1.9,1.2,3.8,2.2,6,2.8c1.7,0.5,3.4,0.7,5.2,0.4c2-0.3,3.7-1.1,5.3-2.4c1.7-1.3,3-2.9,4.1-4.7
		c0.4-0.6,0.7-1.1,1-1.7c0.3-0.7,0.5-1.4,0.8-2.2c0-0.1,0.1-0.2,0-0.3C168.4,35.4,168.3,35.2,168.3,34.9z M166.4,33.6
		c-0.1,2-0.6,3.9-1.6,5.6c-1.5,2.5-3.6,4.1-6.3,5c-1.3,0.4-2.7,0.7-4.2,0.7c-2.8,0-5.2-1-7.4-2.8c0,0-0.1-0.1-0.1-0.1
		c-1.4-2.1-2.6-4.4-3.3-6.9c-0.4-1.5-0.6-3.1-0.4-4.7c0.2-1.7,0.9-3.1,2.1-4.4c1.4-1.6,3.2-2.7,5.1-3.6c0.8-0.3,1.5-0.6,2.3-0.9
		c0.5-0.2,0.9-0.3,1.4-0.2c2.4,0.3,4.6,0.9,6.7,2.2c2.3,1.5,3.9,3.5,4.9,6c0.4,1,0.7,2.1,0.9,3.2C166.5,33.1,166.5,33.4,166.4,33.6z
		"/>
	<path d="M156.3,38.4c-0.1-0.1-0.3-0.1-0.4-0.2c-0.3-0.3-0.6-0.6-1-1c-0.1-0.1-0.1-0.2-0.1-0.3c0-0.9,0.3-1.7,0.8-2.5
		c0-0.1,0.2-0.1,0.3-0.1c0.9-0.1,1.6,0.2,2.1,0.9c0.1,0.1,0.1,0.2,0.2,0.3c0.5,0.9,0.2,2.1-0.8,2.5
		C157.1,38.2,156.7,38.3,156.3,38.4z"/>
</g>
<g>
	<path d="M155.2,187.8c0.2-0.3,0.3-0.7,0.4-0.9c-0.1,0-0.1-0.1-0.2-0.1c-0.3,0-0.6,0-1-0.1c-4.6-1.4-9.3-1.9-11.3-6.8
		c0-0.1,0-0.1,0-0.2c-0.4-0.2-0.9-0.5-1.3-0.7c-0.8,1.6-1.6,3.1-2.4,4.7c-2.5-0.4-4.5,0.4-6.1,2.3c-0.5,0.6-1.3,1.3-2,1.6
		c-7.7,2.7-12.8,8-15.8,15.5c-1.7,4.2-0.4,7.3,3.8,9.2c1.3,0.6,2.7,1,4.1,1.2c6.3,1.2,12.5,0.6,18.8-0.2c3.1-0.4,6.2-1.2,9.2-2.1
		c2.1-0.6,3.5-2.1,3.6-4.5c0-3.1,0-6.2,0.1-9.3c0-0.7,0.2-1.3,0.4-2c0.7-1.8,1.2-3.6-0.1-5.2C154.7,189.3,154.6,188.6,155.2,187.8z
		 M152.1,209.7c-2.4,0.9-4.9,1.9-7.4,2.1c-5.7,0.6-11.4,0.9-17.2,1c-3.2,0.1-6.4-0.6-9.2-2.4c-2.3-1.5-3-3.8-1.9-6.5
		c1,0.7,1.9,1.4,2.9,2c3.8,2.4,8.1,3.2,12.4,3.3c7.5,0.3,14.9-0.1,22.1-2.7C154.2,208.2,153.3,209.3,152.1,209.7z M152,206.1
		c-5.2,1.7-10.6,1.9-16,2.1c-4.5,0.1-8.9,0-13.1-1.8c-1.8-0.7-3.5-1.9-5.1-3c-0.4-0.3-0.6-1.4-0.4-1.9c2.6-6.3,8.5-11.4,15-13.2
		c3.2,6.3,9.3,8,15.5,9.5c0.3,0.1,0.6,0.2,0.9,0.2l0,0c1.6-0.1,3.3-0.3,5.3-0.5c0.1,1.5,0.1,3.3,0.3,5.1
		C154.5,204.5,153.8,205.5,152,206.1z M155.1,193.6c-0.3,1.6-1.3,2.7-2.9,3.1c-0.8,0.2-1.7,0.3-2.5,0.2c-5.1-0.5-9.8-2-13.7-5.5
		c-0.4-0.4-0.8-0.7-1.1-1.2c-0.9-1.1-1.6-2.3-0.7-3.8c0.9-1.5,3.1-2.3,5.2-1.7c-1.1,0.2-2,0.2-1.2,1.2c3.9,4.7,8.7,7.8,15.1,7.4
		c0.2,0,0.4,0,0.6-0.1c0.1,0,0.1-0.1,0.3-0.3c-1.5-0.9-0.6-1.8,0-2.8C155.4,191.2,155.4,192.4,155.1,193.6z"/>
	<path d="M148.8,198.1c3.1,1.7,3.7,4.8,1.4,6.9c-1.2,1.1-3.2,1.3-4.6,0.5c-1.6-0.9-2.3-2.6-2-4.4c0.4-1.7,1.8-3,3.6-3.1
		C147.7,198,148.3,198.1,148.8,198.1L148.8,198.1z M144.6,202c0,1.7,1.2,3,2.9,3c1.6,0,2.9-1.2,2.9-2.8c0.1-1.7-1.1-3-2.8-3
		C145.9,199.1,144.7,200.3,144.6,202z"/>
</g>
<g>
	<path d="M212.2,184.6c0.5,0.6,1.3,1.3,2,1.6c7.7,2.7,12.8,8,15.8,15.5c1.7,4.2,0.4,7.3-3.8,9.2c-1.3,0.6-2.7,1-4.1,1.2
		c-6.3,1.2-12.5,0.6-18.8-0.2c-3.1-0.4-6.2-1.2-9.2-2.1c-2.1-0.6-3.5-2.1-3.6-4.5c0-3.1,0-6.2-0.1-9.3c0-0.7-0.2-1.3-0.4-2
		c-0.7-1.8-1.2-3.6,0.1-5.2c0.7-0.9,0.8-1.5,0.2-2.4c-0.2-0.3-0.3-0.7-0.4-0.9c4.6-2.7,9.2-5.3,13.8-8c0.8,1.6,1.6,3.1,2.4,4.7
		C208.6,182,210.6,182.7,212.2,184.6z M191.5,196.4c-0.1,1.5-0.1,3.3-0.3,5.1c-0.1,1.8,0.5,2.8,2.4,3.4c5.2,1.7,10.6,1.9,16,2.1
		c4.5,0.1,8.9,0,13.1-1.8c1.8-0.7,3.5-1.9,5.1-3c0.4-0.3,0.6-1.4,0.4-1.9c-2.6-6.3-8.5-11.4-15-13.2c-3.2,6.3-9.3,8-15.5,9.5
		c-0.3,0.1-0.6,0.2-0.9,0.2l0,0C195.1,196.7,193.5,196.6,191.5,196.4z M226.3,204.7c-3.8,2.4-8.1,3.2-12.4,3.3
		c-7.5,0.3-14.9-0.1-22.1-2.7c-0.3,1.6,0.5,2.7,1.8,3.1c2.4,0.9,4.9,1.9,7.4,2.1c5.7,0.6,11.4,0.9,17.2,1c3.2,0.1,6.4-0.6,9.2-2.4
		c2.3-1.5,3-3.8,1.9-6.5C228.2,203.4,227.3,204.1,226.3,204.7z M207.5,184.8c-3.9,4.7-8.7,7.8-15.1,7.4c-0.2,0-0.4,0-0.6-0.1
		c-0.1,0-0.1-0.1-0.3-0.3c1.5-0.9,0.6-1.8,0-2.8c-1.3,0.9-1.2,2.1-1,3.4c0.3,1.6,1.3,2.7,2.9,3.1c0.8,0.2,1.7,0.3,2.5,0.2
		c5.1-0.5,9.8-2,13.7-5.5c0.4-0.4,0.8-0.7,1.1-1.2c0.9-1.1,1.6-2.3,0.7-3.8c-0.9-1.5-3.1-2.3-5.2-1.7
		C207.4,183.7,208.3,183.8,207.5,184.8z"/>
	<path d="M196.7,196.9c0.5,0,1.1-0.1,1.6-0.1c1.8,0.1,3.3,1.4,3.6,3.1c0.4,1.7-0.4,3.5-2,4.4c-1.4,0.8-3.4,0.6-4.6-0.5
		C193.1,201.7,193.7,198.6,196.7,196.9L196.7,196.9z M197.9,197.9c-1.7,0-2.9,1.3-2.8,3c0.1,1.6,1.3,2.8,2.9,2.8
		c1.7,0,2.9-1.3,2.9-3C200.9,199,199.7,197.9,197.9,197.9z"/>
</g>
<g>
	<path d="M84.8,133.7c-4-6.1-9.4-10.8-15.2-15.1c-0.8-0.6-1.7-1.2-2-2.1c-0.5-1.4-0.7-2.9-1-4.5c-2.4-0.3-4.9-0.6-7.4-0.6
		c1.5,0.2,3,0.5,4.5,1c1,0.4,1.7,1.6,2.6,2.5c-0.2,0.3-0.4,0.6-0.6,0.8c-6.2-3.3-12.1-1.9-17.9,1c-1.4-1.2-1.1-2.4,0.3-3.2
		c2.6-1.3,5.2-2.1,7.9-2.3c-2.5-0.1-5.3-0.3-8,0c-0.1,0.2-0.4,0.5-0.7,0.7c-2.2,1.5-2.6,3.3-1.4,5.6c-0.2,0.3-0.3,0.3-0.4,0.4
		c-0.6,0.4-1.2,0.9-1.8,1.3c-9.7,7.8-17.1,17.1-18.7,29.9c-1.6,13.4,10.2,23.6,23.5,20.5c1.8-0.4,3.8-0.4,5.6-0.1
		c6,0.8,11.9,0.8,17.8-1.3c1.7-0.6,3.5-1.1,5.3-1.4c6.4-1,10.5-4.5,12.1-10.7C91.2,148.1,89.4,140.6,84.8,133.7z M87.5,154.3
		c-0.9,5.9-4.9,9.8-10.2,10c1.7-2.8,3.5-5.8,5.2-8.7c-0.2-0.2-0.5-0.3-0.7-0.5c-3.9,6.6-9.5,10.9-17,12.1c-7.3,1.2-14.2-0.2-21-3.8
		c0.5,0.6,1,1.2,1.6,1.8c0.7,0.6,1.4,1.1,2.2,1.7c-7.4,2.8-17.1-2-19.3-10.1c-1-3.5-1.3-7.8-0.3-11.3c3.2-11.3,10-20.2,19.9-26.6
		c1.4-0.9,3.1-1.4,4.6-2c0.2,0.2,0.4,0.5,0.6,0.7c-1,1.6-2.1,3.2-3.1,4.9c0.1,0.1,0.2,0.2,0.3,0.3c1.4-1.4,2.8-2.8,4.1-4.3
		c2.2-2.4,3.9-2.3,5.7,0.3c0.8,1.2,1.8,2.4,2.8,3.5c0.4,0.5,0.9,0.8,1.6,1c-1.2-2.1-2.3-4.1-3.5-6.2c0.2-0.2,0.4-0.4,0.6-0.6
		c0.9,0.4,1.8,0.6,2.6,1.1c7.3,4.8,14,10.3,18.8,17.7C86.9,141.2,88.5,147.5,87.5,154.3z"/>
</g>
<g>
	<path d="M67.9,70.5c-1-1-2.3-1.7-3.6-2.5c-0.4-5.6-3.9-8.2-8.5-6.3c-1.2,0.5-2.2,1.3-3.2,2.2c-1.8,1.7-3.7,3.3-6.1,4
		c-1.8,0.5-3.4,1.7-3.8,4.1c-0.1,0.5-0.7,0.9-1.2,1.1c-1.4,0.7-2.6,1.5-2.7,3.5c-0.1,2,0.8,3.3,2.3,4.2c1.1,0.6,2.4,1,3.6,1.5
		c1.2,0.5,1.4,1.3,0.4,2.1c-1.5,1.1-2,2.5-1.4,4.2c0.3,0.4,0.5,0.9,0.6,1.4c1.1-0.2,2.2-0.4,3.2-0.6c0.4-0.7,0.9-1.2,1.8-1.3
		c2.5-0.3,4.9,0.2,7.3,0.5c0,0,0.1-0.1,0.1-0.1c0.1,0,0.2,0.1,0.3,0.1c0,0,0.1,0,0.1,0c0.8,0.1,1.6,0.5,2,1.1c0.1,0,0.1,0.1,0.2,0.1
		c0.8-0.4,1.6-0.9,2.2-1.4c0-0.1,0-0.1-0.1-0.2c-0.5-1.7-0.7-3.5-1.1-5.6c0.3-0.2,1-0.7,1.7-1.2c1.9-1.4,4-2.6,5.8-4.3
		C69.8,75.5,69.8,72.6,67.9,70.5z M44.6,74.7c-0.8-2-0.1-3.7,2-4.4c3-0.9,5.2-3.1,7.5-5.3c1.5-1.5,3.3-2.4,5.5-1.8
		c2.6,0.7,3.8,2.6,2.8,5.3c-1.7,4.2-3.6,8.3-5.7,12.3c-1.1,2.1-3.8,1.7-4.7-0.6c-0.7-1.7-1.1-3.5-1.7-5.3L50,75.1
		c0.2,1.1,0.4,2.2,0.4,3.3c0,0.7-0.3,2.1-0.4,2.1c-0.9,0-2.2,0-2.7-0.6C46.2,78.4,45.3,76.5,44.6,74.7z M50.7,82.4l-4,1.1
		C47.5,81.2,49.1,81.9,50.7,82.4z M60.3,87.1c-0.2,0.3-0.3,0.5-0.5,0.8c-5-3-9.7-1.8-14.4,0.8c-1.1-1.1-0.9-2.2,0.2-2.9
		c4-2.3,8.2-2.7,12.5-1C59,85.2,59.6,86.3,60.3,87.1z M67.4,74.9c-0.4,0.8-1,1.6-1.7,2.1c-2,1.4-4,2.7-6.1,4.1
		c-0.2-0.2-0.4-0.3-0.6-0.5c0.3-0.8,0.5-1.7,0.8-2.5c1-2,2.1-4,3-6.1c0.7-1.7,1.4-2.1,2.9-1.3C67.3,71.8,68.1,73.4,67.4,74.9z"/>
</g>
<g>
	<path d="M264.6,19.6l1.2-3.4c-2.6-3.8-4.4-4.4-8.6-2.3c-4.1,2.1-8,4.6-11.9,6.9c-1.1,0.6-2.1,1.3-3.1,1.9c-0.2-0.1-0.3-0.3-0.5-0.4
		c0.4-1,0.9-1.9,1.2-2.9c1.4-3.8,2.9-7.6,4.1-11.5c0.6-1.9,0-3.6-1.9-4.5c-2-0.9-3.8-0.4-5.1,1.3c-1.2,1.7-2.4,3.5-3.3,5.3
		c-2,4.3-3.9,8.8-5.8,13.2c-0.7,1.6-1.6,2.8-3.5,3.3c-4.3,1.4-6.8,4.5-7.1,9c-0.1,2.3,0.2,4.6,0.4,6.8c0.1,0.7,0,1.3-0.2,1.8
		c0.8,0.4,1.1,1.1,1,1.9c1.7-1.8,1-4.1,0.6-6.4c-0.8-4.8,1.5-9.8,5.3-11.3c1.3-0.5,3-0.8,4.3-0.4c3.9,1.1,7.3,3.4,9.6,6.8
		c0.6,0.8,0.9,2.5,0.4,3.2c-0.5,0.8-2.1,1.3-3.1,1.1c-2-0.4-3.9-1.4-5.8-2.2c-1-0.5-1.9-1.1-2.9-1.7c-0.2,0.2-0.4,0.5-0.6,0.7
		c0.7,0.8,1.3,1.7,2.2,2.3c3.1,2.4,3.2,5,0.2,7.5c-0.4,0.4-0.8,0.8-1.3,1.3c2.8,0.9,4.3-0.9,5.6-6.4c0.9,0.5,2.2,0.7,2.6,1.4
		c2.6,4.9,3.1,5.2,8.2,4.4c-0.8,3-3.9,6-7.1,5.6c-3.6-0.4-5.6,1.2-7.5,3.7c-0.1,0.2-0.3,0.4-0.5,0.5c0.4,0.2,0.7,0.4,0.9,0.7
		c0,0,0.1-0.1,0.1-0.1c1.9-2,3.7-3.4,6.8-3.5c4.7-0.2,7.6-3.5,9.7-7.5c0.5-0.9,1-1.9,1.8-2.7c4.5-4.5,4.2-8.4-1.1-12
		c-0.3-0.2-0.6-0.5-1.3-1c2.1-1.4,3.9-2.6,5.8-3.9C257.8,24.1,261.2,21.8,264.6,19.6z M249.3,32.5c4,2.3,4.6,6.3,1.3,9.4
		c-1.5,1.4-3.5,2.4-5.4,2.9c-1.1,0.3-2.9-0.7-3.8-1.7c-1.1-1.3,0.3-2.3,1.4-3.1c1.3-1,2.7-1.9,4-3c0.5-0.4,0.8-1,1.1-1.6
		c-0.6-0.2-1.2-0.6-1.8-0.7c-0.6,0-1.1,0.3-1.9,0.4c-3-4.8-7.1-7.6-11.9-9.8c0.1-0.4,0-0.8,0.2-1.2c2.6-5.7,5.2-11.4,7.9-17.1
		c0.3-0.6,0.7-1.4,1.3-1.6c1-0.4,2.3-0.9,3.2-0.6c0.6,0.2,1.1,2,0.9,2.8c-1.5,4.4-3.2,8.8-4.9,13.2c-0.4,0.9-1,1.7-1.4,2.7
		c-0.2,0.6,0,1.3,0,1.9c0.6-0.1,1.4,0.1,1.9-0.2c3.9-2.3,7.7-4.7,11.5-7c1.9-1.1,3.8-2.2,5.8-3.1c0.8-0.4,1.8-0.7,2.6-0.6
		c0.9,0.2,2.1,0.8,2.5,1.6c0.3,0.6-0.2,2-0.7,2.6c-1.5,1.4-3.3,2.6-5,3.8c-3.8,2.6-7.6,5-12,7.9C247.4,31.3,248.3,31.9,249.3,32.5z"
		/>
</g>
</svg>
