<?xml version="1.0" encoding="utf-8"?>
<!-- Generator: Adobe Illustrator 17.1.0, SVG Export Plug-In . SVG Version: 6.00 Build 0)  -->
<!DOCTYPE svg PUBLIC "-//W3C//DTD SVG 1.1//EN" "http://www.w3.org/Graphics/SVG/1.1/DTD/svg11.dtd">
<svg version="1.1" id="Layer_1" xmlns="http://www.w3.org/2000/svg" xmlns:xlink="http://www.w3.org/1999/xlink" x="0px" y="0px"
	 viewBox="0 0 288 216" enable-background="new 0 0 288 216" xml:space="preserve">
<g>
	<path d="M134.9,149.6c-0.7-0.7-1.3-1.4-1.9-2.1c-0.3-0.4-0.6-0.7-1-1.2c1.1-0.4,1.7,0.2,2.1,0.9c0.3,0.4,0.6,0.9,1,1.3
		c0.1-0.4,0.3-0.8,0.6-1.1c-0.1-0.9,0.2-1.9,0.8-2.5c-1.1-1.2-2.2-2.5-3.1-3.8c-1.1-1.5-1.8-3.3-2.6-5.1c-0.5-1.1-1.1-1.6-2.3-1.3
		c-0.3,0-0.8-0.1-1.3-0.3c-0.6,0.6-1.3,1.2-2.1,1.7c-0.5,0.3-1,0.5-1.5,0.5c0.9,1.5,1.9,3,3,4.4c2.6,3.6,5.4,6.9,8.4,10
		c0.1,0,0.1-0.1,0.2-0.1C135,150.4,134.9,150,134.9,149.6z"/>
	<path d="M210.2,120.9c-2.3,0.6-4.6,1.4-6.9,1.9c-0.9,0.2-1.8,0.1-2.7-0.1c-1.6-0.3-3.1-0.7-4.6-1.2c-0.7-0.2-1.3-0.8-2-1.2
		c-0.4-0.2-1-0.4-1.4-0.3c-5.3,1-10.5,2.1-15.8,3.3c-0.3,0.1-0.5,0.4-0.8,0.6c0.3,0.2,0.7,0.5,0.9,0.4c1.1-0.2,2.3-0.4,3.4-0.7
		c3.4-0.8,6.8-1.6,10.2-2.4c0.5-0.1,0.9-0.2,1.5-0.3c0.2,1,0.4,1.8,0.6,2.7c-3.1,0.9-6.2,1.8-9.2,2.7c0,0.1,0,0.3,0.1,0.4
		c0.8-0.1,1.7-0.2,2.5-0.3c2-0.4,4-0.7,6-1.1c0.9-0.2,1.3,0,1.5,0.9c0.1,0.7,0.3,1.4,0.5,2.2c-4.2,0.5-8.3,0.9-12.4,1.4
		c0,0.2,0,0.3,0,0.5c0.5,0,1,0.2,1.5,0.1c1-0.2,1.9-0.4,2.7,0.5c0.2,0.3,0.9,0.2,1.4,0.2c0.7-0.1,1.4-0.3,2.1-0.4
		c1-0.2,1.7-0.2,2.1,1c0.2,0.6,1.1,0.9,1.9,1.5c-2.3,0.7-4.5,1.4-6.7,2.1c-1,0.3-2.1,0.5-3.1,0.9c-2.4,1-4.9,0.9-7.4,0.4
		c-0.4-0.1-1-0.6-1.2-1c-2.7-7.2-5.3-14.4-7.9-21.6c-0.6-1.6-1.1-3.2-1.7-4.8c2.3,9.5,5.7,18.6,9.4,27.6c-0.2,0.1-0.3,0.2-0.5,0.4
		c-0.4-0.3-0.8-0.6-1.1-1c-0.8-1.2-1.5-2.4-2.3-3.6c-0.3-0.4-0.9-0.7-1.3-0.7c-2.8,0.4-5.7,1-8.6,1.5c0.5,1.6-0.4,1.9-1.6,2
		c-2.3,0.3-4.5,0.8-6.8,1.3c0,0.1,0,0.2,0,0.3c0.8-0.1,1.7-0.1,2.5-0.2c1.2-0.1,2.4-0.2,3.6-0.4c1.4-0.2,1.7,0.9,2,1.8
		c0.4,1-0.5,1.1-1.1,1.3c-1.5,0.7-3,1.5-4.6,2c-1.9,0.7-3.1,0.6-4.4-1.4c-3.4-5.2-6.2-10.8-8.5-16.6c-1.4,2.3-3.8,3.4-6.3,4.1
		c-0.5,0.4-1,0.7-1.5,1c0.4,0.9,1.2,0.9,2,0.9c0.9,0,1.8,0.1,2.7,0.1c0,0.2,0,0.4,0,0.6c-1.5,0.2-2.9,0.4-4.5,0.5
		c0.1,0.6,0.3,1.1,0.4,1.7c-1.2,0.3-2.3,0.6-3.7,0.9c0.6,1.6,1.3,3.1,1.8,4.7c0.7,2.5,2.3,3.9,4.8,4.7c2.2,0.7,4.4,1.6,6.5,2.5
		c1-0.7,2.1-1.4,3.1-2.1c0.3-0.2,0.6-0.3,0.9-0.4c-0.5-1.4,0.3-2.7,0.5-4.3c1.5,2,3,3.9,4.4,5.9c0.5-0.7,1.4-1.2,2.6-1.1
		c0.7,0.1,1.2,0.3,1.6,0.6c0.3-0.1,0.7-0.2,1.1-0.1c1.4,0.1,2.2,1,2.5,2c1.8-0.2,3.5-0.5,5.4-0.7c-0.1,0.8-0.2,1.4-0.3,2.1
		c0.5,0,1-0.1,1.5,0c0.5,0.1,0.9,0.4,1.3,0.7c0.4,0.2,0.7,0.5,1.1,0.7c0.3-0.5,0.6-1,0.8-1.5c0.1-0.2,0-0.4,0-0.7
		c0.4,0,0.8-0.1,1.3-0.1c0-0.4,0.1-0.7,0-1.1c-0.5-1.6,0.4-1.9,1.6-2.2c2.5-0.6,4.9-1.4,7.4-2.1c0.9-0.2,1.4-0.6,1.4-1.6
		c0-1.2,0.7-1.7,1.8-2.1c5.4-1.9,10.7-3.9,16.1-6c1.4-0.5,2.7-1.3,3.9-2.2c-0.8-0.1-1.6-0.2-2.6-0.3c1.4-0.7,2.5-1.4,3.7-2
		c1.1-0.5,1.3-1.5,0.4-2.3c-0.9-0.8-0.9-1.3,0.3-1.7c1.3-0.5,2.5-0.8,3.9-0.7c1.7,0.1,3.5-0.5,4.8-2.1
		C213.3,120.2,211.7,120.5,210.2,120.9z"/>
	<path d="M262.9,64.4c0.1,0.8,0.1,1.5,0.2,2.3c-0.4-0.3-0.7-0.6-1.1-0.9c0,0.9,0,1.5,0,2.3c-0.4-0.4-0.7-0.7-0.9-0.9
		c-0.4,0.4-0.9,1.1-0.9,1c-0.7-0.5-1.4-1.1-2.2-1.7c1.1-0.4,1.9-0.8,2.8-1.1c-0.5-1-1.1-1.3-2-1c-0.6,0.2-1.2,0.2-1.8,0.4
		c-1.7,0.6-3.3,0.9-4.4-1.2c-0.3-0.6-1-0.9-1.5-1.4c0.5-0.5,0.9-0.9,1.6-1.6c-0.7,0.1-1.2,0.1-1.7,0.2c-1.4,0.3-1.7,0.1-1.7-1.3
		c0-0.5,0.6-1,0.9-1.5c0.1,0,0.2,0.1,0.3,0.1c-0.1-0.4-0.2-0.8-0.3-1c-1.8,0.3-3.5,0.5-5.2,0.8c-0.8,0.1-1.3-0.1-1.3-1.1
		c1.1-0.4,2.1-0.8,3.2-1.2c0.4-0.2,0.6-0.6,0.9-0.9c-0.4-0.1-0.9-0.2-1.3-0.2c-1.9,0.4-3.7,0.9-5.5,1.3c-0.3-0.5-0.5-1.5-0.8-1.5
		c-1.1-0.2-1.4-0.8-1.3-1.9c-2.1-0.3-4,1.2-6,0.5c0-0.1,0-0.3,0-0.4c3.2-0.8,6.4-1.5,9.6-2.3c0.2-1.3-0.5-1.4-1.3-1.3
		c-1.8,0.2-3.7,0.5-5.9,0.8c0.8-0.7,1.2-1.1,1.9-1.7c-1-0.7-1.8-1.3-2.8-2c-0.1-1.4,1-1.7,2.3-1.7c0.5,0,1-0.1,1.4-0.2
		c0.4-0.1,0.7-0.4,1-0.6c-0.4-0.2-0.8-0.6-1.1-0.5c-1.3,0.1-2-0.4-2.5-1.5c-0.2-0.4-0.5-0.9-0.9-1.1c-1.5-0.5-3-1-3.8-2.6
		c0,0.5-0.1,1-0.2,1.7c-0.3-0.7-0.6-1.1-0.9-1.8c0,1.1,0,1.8,0,2.4c-1.6-0.7-3-1.3-4.6-1.9c1.6-0.7,2.9-1.4,4.4-2
		c-0.9-1.3-2.4-0.3-3.4-0.7c0.3-1.8-0.4-2.8-2.2-2.1c-0.2,0.1-0.4,0.1-0.6,0.2c-0.9,0.3-1.3,0-1.4-0.9c0-0.3-0.2-0.6-0.2-0.9
		c-0.1-1.4-0.9-1.5-2.1-1.1c0,0.4,0,0.8,0,1.3c-0.8,0-1.5-0.1-2.2-0.1c-0.7-0.1-1.5-0.1-2.2-0.2c0.1-0.5,0.2-0.7,0.2-1
		c-1.2,0.4-2.4,1-3.5,1.2c-1.2,0.1-2.4-0.2-3.6-0.4c0-0.1,0-0.3,0-0.4c1-0.5,2.5-0.4,2.6-2c0-0.1,0.3-0.1,0.5-0.2
		c1.4-0.9,1.7-4.1,0.2-4.8c-1.1-0.5-1.2-1.2-0.9-2.3c-1.5,0.2-2.9,0.3-4.2,0.5c-0.8,0.1-1.5,0-1.8-0.9c-0.3-0.9-0.9-1.2-1.9-1.1
		c-1,0.1-1.9,0-2.6-1c-0.2-0.3-1.4-0.5-1.5-0.3c-0.8,1.2-1.7,0.6-2.7,0.5c0.1-0.5,0.1-0.9,0.2-1.3c-0.4,0-0.7-0.1-1-0.1
		c-3.1,0-6.3,0-9.4-0.1c-7.4-0.4-14.6,0.5-21.6,2.9c-10.3,3.5-19.1,9.4-27.1,16.7c-7.7,7-13.7,15.4-17.9,24.9
		c-7,15.5-9.4,31.5-5.2,48.2c0.3,1.4,0.6,2.7,1,4.1c0.5-0.1,0.8-0.1,1.2-0.2c6.6-1.3,13.2-2.6,19.8-3.9c0.6-0.1,1.2-0.1,1.8-0.1
		c0,0.2,0,0.4,0.1,0.6c-7.5,1.5-15,3-22.6,4.5c0.1,0.3,0.1,0.6,0.1,0.8c1,5.1,2.7,9.9,5,14.4c0.1-0.4,0.2-0.7,0.4-1.1
		c-0.6-1.5-1.2-3-1.8-4.7c1.1,0.2,1.9,0.4,2.7,0.5c0.9-1.6,0.2-3.1-0.3-4.7l0.3-0.1c0.2,0.4,0.5,0.8,0.7,1.2
		c0.3,0.7,0.7,1.2,1.6,1.1c0.2,0,0.7,0.4,0.8,0.6c0,0,0,0,0,0.1c0.6-0.7,1.4-1.1,2.3-1.1c0.6,0,1.2,0.1,1.9,0.3c1-0.7,2-1.5,2.9-2.3
		c0.2-0.2,0.4-0.5,0.6-0.7c0.1-0.6,0.3-1.2,0.8-1.6c0.6-0.6,1.2-1.1,1.8-1.5c0.1-0.1,0.2-0.2,0.3-0.3c0.1-0.9,0.5-1.6,1.1-2
		c-0.1-1.2,0.5-2.5,1.7-3.1c0.5-0.8,1.4-1.3,2.6-1.1c0.3,0,0.6,0.1,0.8,0.2c42.4-9.5,85-18.3,126.6-32.1c0.3,1.9,0.6,3.6,0.9,5.4
		c-0.7-0.2-1.2-0.3-1.9-0.5c0.1,1.1,0.3,2.1,0.4,3c-0.1,0.1-0.2,0.1-0.3,0.2c-0.2-0.2-0.5-0.5-0.7-0.7c-0.6-0.9-1.2-0.9-1.5,0.2
		c-0.3,0.9-0.3,1.8-0.4,2.7c0,0.2-0.1,0.3-0.2,0.7c-0.4-0.5-0.8-0.9-1.2-1.4c-0.8,0.5-1,1.1-0.5,1.9c1.2,2,1.2,2-0.9,3.4
		c-0.8-1.3-0.3-3.2-1.6-4.2c-0.1,0-0.3,0.1-0.4,0.1c0.2,1.3,0.5,2.6,0.8,4.2c-0.9,0-1.6,0-2.4,0c-0.5,0-1-0.1-1.4-0.1
		c-1,0-2,0.3-2.9-0.8c-0.3-0.4-1.2-0.3-1.9-0.4c-0.1,0.5-0.1,0.9-0.2,1.6c-1.1-0.7-2.1-1.2-3.3-1.9c-0.6,1.1-1.1,2.3-1.7,3.4
		c-0.3,0.5-0.8,0.9-1.3,1.1c-1,0.4-2.2,0.5-3.2,0.8c-1,0.3-1.7,0.1-2.1-0.9c-0.1-0.3-0.4-0.6-0.7-0.9c-0.2,0.2-0.3,0.3-0.3,0.3
		c0.2,2.1,0.2,2.1-1.9,2.6c-2.3,0.6-4.6,1.2-7,1.8c-0.7,0.2-1.3,0.5-1.9,0.7l0.1,0.3c0.3,0,0.5,0.1,0.8,0c1.3-0.3,2.7-0.6,4-1
		c1.4-0.4,2.7-0.8,3.8,0.7c0.2,0.3,0.7,0.4,1.1,0.5c1,0.1,1.2,0.7,1.2,1.7c0.1,1-0.5,1.2-1.2,1.4c-5,1.3-10,2.6-15.1,4
		c-0.7,0.2-1.4,0.3-2,0.5c-0.1,1.3,0.5,1.6,1.5,1.4c0.8-0.1,1.6-0.2,2.3-0.3c0.8,2,0.8,2-1,2.9c-0.6,0.3-1.1,0.6-1.6,1.2
		c0.6,0,1.3-0.1,1.9-0.1c0,0.1,0.1,0.2,0.1,0.3c-0.4,0.2-0.8,0.4-1.1,0.6c-0.3,0.2-0.5,0.5-0.7,0.8c-0.2,0.3-0.3,0.7-0.5,1
		c-0.4-0.3-0.7-0.6-1.1-0.8c-0.1-0.1-0.2-0.2-0.2-0.2c-1.5,0.4-3,0.7-4.4,1.1c-1.5,0.4-2.5-0.7-2.3-2.3c0.1-0.7,0-1.4,0-2
		c0-0.3-0.1-0.5,0-0.8c0.6-1.9,0.6-1.9-0.2-4.1c-3.9,1.1-7.9,2.3-12,3.5c1.2,1.1,2.1,1.6,3.5,1.3c0.9-0.2,2.1-0.6,2.6,0.8
		c0.1,0.1,0.6,0.2,0.9,0.1c1.2-0.2,2.3-0.5,3.5-0.7c0.4-0.1,0.8,0.3,1.2,0.5c0,0.2-0.1,0.3-0.1,0.5c-1.7,0.5-3.3,1-5.1,1.6
		c0.1,1.1,0.2,2.1,0.4,3.5c-1-0.5-1.8-0.8-2.8-1.3c-0.1,1.7-0.2,3.1-0.4,4.5c2.4-0.6,4.8-1.1,7.1-1.7c3.3-0.9,6.5-2.2,9.9-2.6
		c4.1-0.6,7.7-2.1,11.5-3.4c2.5-0.8,3.6-0.5,5.4,1.8c-2,0.7-3.9,1.5-5.8,2c-1.1,0.3-1.7,0.8-1.6,2c0.1,0.9-0.4,1.2-1.2,1.3
		c-3.5,0.6-6.9,1.2-10.3,1.8c-0.8,0.1-1.6,0.3-1.6,1.6c1.9-0.3,3.8-0.5,5.6-0.9c2.5-0.5,4.9-1.3,7.4-1.8c0.7-0.2,1.1-0.5,1.1-1.2
		c0-0.9,0.4-1.3,1.2-1.6c1.9-0.7,3.8-1.5,5.7-2.1c0.4-0.1,0.8,0,1.2,0c0,0.1,0,0.3,0,0.4c-0.7,0.4-1.5,0.8-2.2,1.2
		c-0.7,0.4-1,1-0.7,1.8c0.3,1-0.2,1.3-1,1.6c-1.3,0.4-2.5,1-3.9,1.5c1.2,2,2.6,0.2,3.8,0.4c0.6,1.4,0,2-2.5,3c0,0.3,0.1,0.7,0,1
		c-0.1,0.2-0.6,0.6-0.6,0.5c-1.1-1.1-2.4-0.3-3.5-0.4c-0.9-0.1-1.9,0.4-2.7-0.7c-0.1-0.2-0.6-0.1-0.9-0.1c-0.1,0-0.2,0.1-0.3,0
		c-1.6-0.9-3.2-0.2-4.7,0.4l-0.1-0.4c1.1-0.5,2.3-1,3.4-1.4c-2.9-0.6-5.1,0.8-7.3,2.4c2.1-0.2,4.1-0.4,6.2-0.6c0.2,0,0.5-0.1,0.6,0
		c1.8,1.6,4,1.5,6.2,1.2c0.7-0.1,1.4,0.2,2.1,0.5c1.2,0.5,2.4-0.3,2.6-2.2c1.9,0.3,3.9,0.6,5.8,1c0.3,0.1,0.6,0.8,0.8,1.2
		c-0.4,0.3-0.8,0.8-1.3,0.8c-1.4,0.2-2.9,0.2-4.6,0.3c0.4,1.1,0.7,2,1.1,3.1c-0.5,0.2-0.9,0.3-1.3,0.5c-0.5,0.2-1.5,0.2-1.1,1.1
		c0.3,0.8,0.7,1.8,2,1.3c0.7-0.3,1.4-0.4,2.4-0.6c-0.3,0.5-0.5,0.8-0.6,1.1c-0.2,0.5-1.2,1.1-0.1,1.7c0,0-0.1,0.3-0.1,0.4
		c-0.3,1.2,0,1.5,1.2,1.6c0.6,0,1.2,0.5,1.8,0.8c0,0.2-0.1,0.4-0.1,0.7c-1.4,0.3-2.8,0.7-4.2,1c-1.4,0.2-2.3,0.8-2.8,2.2
		c-0.3,0.7-1.2,1.2-1.9,1.9c0.3,0.3,0.6,0.7,1.1,1.2c-0.4,0.6-0.9,1.2-1.4,1.8c0.4,0.3,0.9,0.6,1.1,0.8c-1.7,3-3.4,5.9-5.2,8.9
		c0.2,0.1,0.4,0.3,0.5,0.2c1.1-0.4,2.2-0.7,3.2-1.2c1.4-0.6,2.7-1.2,4-1.9c0.3-0.1,0.6-0.2,0.9-0.3c0.7-0.2,1.4-0.3,2.2-0.3
		c1.9-1.3,3.2-3.5,5.6-4.3c0.1,0.1,0.2,0.2,0.2,0.3c-1.3,1.1-2.4,2.4-3.8,3.4c-5.7,4.1-11.3,8.4-17.8,11.3c-5.2,2.4-10.6,4-16.3,4.8
		c-1.4,0.2-3-0.5-4.4-1.1c-5.2-2.4-9.1-6.3-12.6-10.7c-3.4-4.3-6.3-9-9.5-13.5c-0.2-0.4-0.4-0.8-0.6-1.3c0.4-0.2,0.6-0.4,1-0.5
		c2.8-0.8,5.6-1.6,8.4-2.4c0.4-0.1,0.9,0.1,1.3,0.2c0.8,0.2,1.5,0.7,2.3,0.7c3.3,0,6.1-1.4,8.7-3.4c0.8-0.6,1.9-0.9,2.9-1.2
		c0.7-0.2,1.6-0.1,1.9-1.1c0.1-0.2,1.1-0.2,1.7-0.2c0.6,0,1.3,0.2,1.9,0.1c2.7-0.3,5.4-0.9,8.2-1.1c1.8-0.2,3.1-1.2,4.6-2
		c0-0.2-0.1-0.3-0.1-0.5c-2.2,0.5-4.5,1.1-6.7,1.6l-0.2-0.7c2.5-0.7,4.9-1.4,7.4-2c0-0.1,0-0.3,0-0.4c-0.4,0-0.8-0.1-1.2,0
		c-2.7,0.6-5.5,1.1-8.2,1.7c-0.8,0.2-1.3,0.1-1.2-0.9c2.2-0.4,4.4-0.8,6.5-1.1c0.8-0.1,1-0.5,0.8-1.2c-2.9,0.7-5.6,1.4-8.4,2
		c-0.5,0.1-1,0-1.6-0.1c0-0.2,0-0.3,0-0.5c0.8-0.3,1.5-0.6,2.3-0.9c0-0.1,0-0.1,0-0.2c-0.6,0.1-1.2,0.2-1.7,0.1
		c-0.3,0-0.6-0.2-0.9-0.3c0.2-0.3,0.4-0.6,0.7-0.7c1.1-0.4,2.2-0.7,3.2-1.2c-0.4-0.1-0.8-0.2-1.6-0.3c1.2-0.5,2-0.9,2.9-1.3
		c0-0.1-0.1-0.3-0.1-0.4c-2,0.5-4.1,0.7-6,1.5c-1.4,0.6-2.2,2-2.4,3.6c-0.1,0.8-0.2,1.9-0.6,2.1c-1,0.5-2.2,0.5-3.3,0.6
		c-1.3,0.2-2.6,0.2-3.9,0.5c-0.2,0-0.5,0.5-0.5,0.8c0.1,0.2,0.5,0.5,0.7,0.6c1.1,0.1,2.3,0.2,3.5,0.5c-1.4,0.6-2.9,1.2-4.3,1.7
		c-1.2,0.4-2.4,0.8-3.5,1.3c-1.1,0.5-2.1,0.7-3-0.4c-0.2-0.2-0.8-0.2-1.1-0.1c-1.2,0.3-2.3,0.6-3.5,1c-0.2,0.1-0.6,0.2-0.7,0.4
		c-0.3,1.4-1.5,1.4-2.6,1.7c-2.3,0.7-4.6,1.4-6.9,2.4c0.5,0.2,1,0.5,1.5,0.4c1-0.1,1.4,0.4,1.9,1.2c3.2,5.5,6.8,10.7,11,15.4
		c3.7,4.2,7.9,7.6,13,9.9c0.1,0,0.2,0.2,0.3,0.6c-2.3,0-4.7,0.1-7-0.1c-8.3-0.7-15.9-3.7-22.8-8.1c-6.1-3.9-11.2-8.8-15.9-14.2
		c-0.1-0.1-0.1-0.1-0.1-0.2c-0.1,0-0.2-0.1-0.3-0.1c-0.5,0.4-1.1,0.6-1.8,0.7c-0.4,0-0.8,0.1-1.2,0.2c-0.1,0.4-0.2,0.8-0.5,1.1
		c0.7,0.5,1.1,1.4,1.7,2.8c-2.2,0.9-3.7,0.1-4.9-1.5c-0.4,0.1-0.8,0.2-1.2,0.3c0,0.5,0,1,0,1.6c-0.7-0.4-1.3-0.7-2-1
		c-1.3,0.5-2.6,1.1-3.9,1.6c-0.3,0.2-0.6,0.4-1,0.4c0,0,0,0,0,0c0.6,0.4,1.1,0.9,1.7,1.3c0.7,0.5,1.7,0.5,2.5,0.8
		c0.3,0.1,0.7,0.2,0.8,0.5c0.7,2.6,3,3.5,4.9,4.2c4.4,1.5,8.9,2.6,13.4,3.8c1,0.3,2,0.2,3.1,0.3c0,0.2,0,0.4,0,0.7
		c-1.4-0.1-2.8-0.1-4.1-0.4c-3.7-1-7.4-1.9-10.9-3.3c-2.4-0.9-4.5-2.4-6.6-3.8c-1.8-1.2-3.5-2.5-5.2-3.8c-0.4,0.2-0.7,0.3-1.1,0.5
		c2.9,2.4,6,4.5,9.3,6.4c17.8,10.4,36.7,14,56.9,9.4c5.6-1.3,11.2-2.5,16.3-5.2c9.1-4.8,17.8-10.4,25-18c0.3-0.3,0.4-0.7,0.7-1
		c-0.1-0.1-0.2-0.2-0.3-0.3c-0.4,0.2-0.9,0.4-1.2,0.7c-0.9,0.6-1.7,1.6-2.7,1.9c-2.4,0.7-4.2,2.1-5.8,3.8c-0.3,0.4-0.7,0.6-1.1,1
		c-0.7-0.7-1.2-0.7-2-0.1c-0.7,0.5-1.6,0.6-2.5,0.9c-0.5,0.2-1.1,0.3-1.6,0.6c-0.9,0.6-0.9,0.6-1.9,0.1c1.4-2,2.7-4.1,4.1-6.2
		c-0.6-0.3-1.1-0.6-1.6-0.9c0.5-0.6,0.9-1.1,1.4-1.7c-0.3-0.4-0.6-0.7-0.9-1c0.2,0.1,0.4,0.2,0.6,0.3c0.2-0.7,0.5-1.3,0.7-2
		c0.4-1.3,1.2-1.9,2.5-2.1c1.6-0.3,3.2-0.7,5-1.2c-0.4-0.6-0.6-1-0.9-1.4c1.3-0.5,2.5-0.9,4.1-1.5c-2-1.2-3.7,0-5.4-0.1
		c0.5-1.4-0.6-1.4-1.5-1.6c0.6-0.9,1.2-1.6,1.8-2.6c-1.8,0.2-3.4,0.3-4.9,0.5l-0.1-0.5c0.8-0.4,1.6-0.8,2.4-1.3
		c-0.3-1-0.6-1.9-1-2.9c1.5-0.1,2.8-0.2,4.1-0.1c1.3,0.1,1.8-0.5,1.8-1.7c0-0.6-0.2-1.1-0.4-1.8c1.2-1.2,2.5-2.4,3.9-3.7
		c-1.2-0.4-2.2-0.8-3.2-1.2c0.2-1.3,0.8-1.9,2.1-1.9c0.7,0,1.4-0.1,2.1-0.1c2.2-0.1,3.2-0.9,3.9-3.1c-1.1-0.5-2.6,0.1-3.3-1.5
		c0.6,0,1.1-0.1,1.6-0.1c1.6,0,3.3,0,4.9-0.2c0.7-0.1,1.3-0.7,2-1c-2.6-1-5.2,0.1-7.5-1.3c0.8-0.3,1.6-0.5,2.5-0.7
		c2.8-0.6,5.5-1.2,8.3-1.9c0.6-0.1,1-0.7,1.5-1.1c-0.1-0.2-0.2-0.3-0.2-0.5c-0.7,0.1-1.4,0.1-2,0.3c-1.2,0.3-2.1,0.3-2.1-1.6
		c-0.9,0.4-1.7,0.6-2.2,1.1c-0.3,0.3,0,1.1,0,1.9c-1.8,0.2-3.8,0.3-5.8,0.5c-0.4,0-0.9-0.2-1.1-0.4c-0.6-0.7-1.1-0.7-1.8-0.2
		c-1.7,1.1-3.5,2.1-5.2,3.2c-1,0.6-1.8,0.5-2.6-0.5c0.8-0.9,1.4-1.9,2.3-2.5c0.9-0.6,2.1-0.7,3.2-1.1c-0.4-1.5-1.5-1.2-2.5-1
		c-0.6,0.1-1.3,0.5-1.7-0.5c-0.6-1.8-0.2-2.5,1.7-2.7c0.6-0.1,1.3-0.2,1.8-0.1c0.5,0.1,0.9,0.4,1.3,0.7c-0.1,0.1-0.1,0.3-0.2,0.4
		l-3.5,1.1c3.5,0.4,12.7-1.3,14-2.4c-0.7,0-1.1,0-1.6,0c-0.4,0-0.9,0-1.3,0c1.5-1.2,3-2,4.5-2.9c0.1,0,0.2,0,0.3,0
		c1.4-0.2,2.9-0.4,4.3-0.6c0.5-0.1,1,0,1.6,0c0,0.1,0,0.2,0,0.3c-0.7,0.3-1.4,0.5-2.5,0.9c2.2,0.4,7.1-0.3,7.7-1.1
		c-1.2-0.4-2.5,0.9-3.8-0.4c0.4-0.2,0.7-0.3,0.9-0.4c0.3-0.3,0.6-0.6,1-0.8c-0.4-0.2-0.8-0.7-1.2-0.6c-1.8,0.2-3.7,0.4-5.4,1
		c-1.6,0.5-2.7,0.3-3.9-0.9c-0.8-0.8-1.7-1.5-1.6-2.9c0.3-0.1,0.5-0.3,0.7-0.3c1-0.3,2-1.2,2.9,0.2c0,0,0.9-0.3,0.9-0.5
		c0.3-1.1,1-1,1.7-0.6c0.4,0.2,0.7,0.6,1.1,1c1.3,1.2,1.8,1.2,3.6,0.1c-0.4-0.1-0.6-0.2-0.9-0.3c-0.5-0.2-1-0.4-1.5-0.6
		c0.3-0.5,0.5-1,0.8-1.4c1.1-1.2,2.2-2.4,2.4-4.2c0.1-0.8,0.3-1.5,0.6-2.6c0.6,1.1,1,1.9,1.5,2.7c0.4-0.4,0.8-0.6,1.3-1
		c0.3,0.9,0.5,1.7,0.8,2.8C270.5,86.7,266.6,67,262.9,64.4z M235.9,62.1c0.4-0.2,0.7-0.6,1.1-0.9c0.7-0.5,1.5-1,2.3-1.6
		c0.2,0.5,0.3,0.7,0.4,0.9c0.1,1.3,0.8,1.7,2,1.2c0.2-0.1,0.4-0.1,0.5-0.1c0.3,0.1,0.5,0.3,0.8,0.4c-0.2,0.2-0.3,0.5-0.5,0.6
		c-1.1,0.3-2.3,0.9-3.2,0.6c-2.1-0.7-4,0-5.9,0.2c-0.1-0.2-0.1-0.4-0.2-0.5C234.1,62.7,235,62.5,235.9,62.1z M234.6,41.8
		c0.2,1.4-0.3,1.6-2.2,1.2C233.2,42.6,233.8,42.3,234.6,41.8z M266.3,77.6c-2.5,0.9-5.1,1.8-7.7,2.6c-28.7,8.9-58,15.5-87.2,22.5
		c-10.2,2.4-20.5,4.5-30.8,6.8c-1,0.2-2,0.3-3.3,0.6c-0.8-4.5-1.6-8.8-2.3-13.1c-1.8-12.5-1.3-24.8,1.8-37.1
		c2.9-11.3,7.8-21.6,16.2-29.9c3.7-3.7,7.9-6.7,12.7-8.8c0.2-0.1,0.5-0.2,0.7-0.3c0.2-0.1,0.4-0.1,0.8-0.2c-0.3,0.4-0.4,0.6-0.6,0.8
		c-0.2,0.2-0.3,0.4-0.4,0.7c0.2-0.2,0.5-0.3,0.7-0.5c1.6-1.8,3.7-2.4,5.9-2.7c0.7-0.1,1.4,0.4,2.1,0.3c2.7-0.3,5.3-0.7,8-1
		c0,0.1,0.1,0.2,0.1,0.3c-1.5,0.5-3,1-4.6,1.5c-2.9,0.8-5.8,1.4-8.6,2.3c-1.1,0.3-2.1,1.1-3.1,1.7c0.1,0.1,0.1,0.3,0.2,0.4
		c0.4-0.1,0.8-0.1,1.2-0.2c4.1-1,8.3-2,12.4-3c0.5-0.1,1.1-0.3,1.4-0.7c1-1.2,2.3-1.6,3.8-1.5c1.9,0.1,3.7,0.1,5.5-0.6
		c1.2-0.5,2.4-0.1,3.4,1l-20.6,4.9c0,0.1,0,0.2,0.1,0.3c2.7-0.4,5.6,0.4,8.1-1.5c0.3-0.3,1.3-0.2,1.6,0c1.6,1.2,3.2,0.9,4.7,0.2
		c0.4-0.1,0.7-0.7,0.8-1.1c0.2-0.8,0.7-1.1,1.5-1.1c1.6,0,3.2,0,4.8-0.1c0.6,0,1.5,0.3,1.8-0.7c0-0.1,0.4-0.1,0.6-0.1
		c0.4,0,0.7,0.1,1.1,0c2.2-0.2,3.8,0.4,4.7,2.6c0.6,1.4,2.2,1.2,3.4,1c1.3-0.2,2.2,0.2,3.2,1.1c-0.6,0.3-1.1,0.5-1.5,0.7
		c0.5,0.6,1.1,1.2,1.5,1.7c-0.4,0.9-0.6,1.5-1,2.3c-1.1,0.2-2.4,0.6-3.7,0.9c0,0.1,0,0.2,0,0.3c0.4,0.1,0.7,0.3,1.1,0.4
		c2.2,0.3,4.5,0.7,6.7,1c1.1,0.1,2,0.4,2.9,1.1c0.5,0.4,1.4,0.4,2.1,0.5c0.5,0.1,1.1,0,1.6,0c-0.3,0.4-0.6,0.9-0.9,1.3
		c1.2,0.4,3.6,0,5.4-1.1c0,1.5-0.2,1.8-1.5,2.2c-1.1,0.3-2.1,0.8-3.2,0.9c-1,0.1-2-0.1-3.1-0.2c-1.5,0.4-3.1,0.9-5,1.4
		c0,0.1,0,0.6,0,1.2c-2.1-1.7-4.9-2.4-6.9-4.4c-0.9-0.9-3.1-0.8-4.7-0.7c-3.7,0.4-7.3,1.1-10.9,1.7c-0.8,0.1-1.8,0.1-2.1,1.2
		c-0.1,0.3-0.7,0.4-1.1,0.6c-0.6,0.3-1.2,0.6-1.7,1.2c1.4-0.1,2.9,0.1,3.9-1c0.8-0.9,1.7-1.5,2.9-1.6c0.7,0,1.3-0.2,2-0.3
		c1.2-0.3,2.2-0.6,2.8,1.3c0.3,1.2,1.5,2.2,2.4,3.3c0.2,0.2,0.6,0.3,0.9,0.3c1.9-0.1,3.8-0.3,5.7-0.4c0.6,0,1.3,0.2,1.6,0.2
		c0.1,1.6,0.1,2.7,0.1,4c-0.4,0.1-0.8,0.3-1.3,0.5c-0.4-0.7-0.7-1.2-1.2-2c-0.5,0.9-0.8,1.8-1.4,2.2c-0.4,0.2-1.3-0.4-2-0.6
		c-0.1,0.9-0.7,1.6-2.1,1.5c-0.2,0-0.4,0.1-0.5,0.2c-1.5,2.3-3.8,2.1-6.1,2.1c-0.2,0-0.3,0.1-0.5,0.1c0.1,0.9,2.2,0.3,0.9,2
		c1.9-0.9,3.6-1.6,5.5-2.4c0.1,1.3,0.5,1.7,1.5,1.5c5.3-1,10.6-1.9,16.2-2.9c-1.4-1.5-2.7-2.8-3.9-4.1c0-0.1,0-0.3,0-0.4
		c2-0.2,4-0.2,6-0.6c2-0.3,4-0.9,6-1.4c1.1,1.4,1.8,1.2,3.3-1c0.1,0,0.2-0.1,0.2,0c1,1.1,2,1.4,3.3,0.5c0.9-0.6,1.3,0.2,1.4,1.1
		c-4.2,1.8-8.8,0.5-13.3,1.6c0.3,0.3,0.6,0.5,1.2,0.9c-1.1,0.3-1.9,0.4-2.8,0.7c-0.4,0.1-0.7,0.6-1,0.9c0.6,0.3,1.1,0.9,1.7,0.9
		c1.7-0.2,2.1-0.1,2.7,1.7c-3.8,0.7-7.5,1.5-11.3,2.2c0.7,1.9,1.1,2.1,2.7,1.7c1.4-0.3,2.8-0.7,4.2-1c0.1,0.2,0.2,0.3,0.2,0.5
		c-0.6,0.3-1.1,0.8-1.8,1c-1.5,0.5-3.1,0.9-4.7,1.4c-0.5,0.2-1,0.5-1.5,0.7c0,0.2,0.1,0.3,0.1,0.5c0.4,0,0.9,0,1.3-0.1
		c1.7-0.4,3.3-0.9,5-1.3c0.9-0.2,1.4-0.6,1.8-1.5c0.6-1.5,1.2-1.5,2.3-0.3c0.2,0.3,0.8,0.3,1.2,0.4c0.5,0.2,1.2,0.3,1.5,0.7
		c0.4,0.6,0.9,1.3,0.2,2.2c-1,1.3-2.2,2.3-3.9,2.7c-3.1,0.7-6.2,1.7-9.2,2.5c-0.9,0.2-1.4,0.7-0.9,1.6c0.2,0.3,0.7,0.7,1,0.6
		c4.5-1,9-2,13.5-3c0.4-0.1,0.7-0.5,1.1-0.9c1.8,0.6,3.4,0.5,4.8-1.1c0.5-0.6,1.9-0.2,1.8,0.4c-0.2,1.4,0.8,1.5,1.5,1.9
		c0.3,0.2,0.5,0.3,0.7,0.4c-0.3,1.6-0.5,3-0.8,4.7c1.1,1.3,2.8,1.6,4.7,1.2c2.9-0.7,5.9-1.2,8.9-1.8c0.6-0.1,1.3-0.2,2,0
		c-0.4,0.1-0.8,0.2-1.2,0.4c-3.7,0.9-7.3,1.9-11,2.8c-0.8,0.2-1.4,0.3-2-0.4c-0.3-0.3-0.9-0.3-1.3-0.5c-0.6-0.3-1.1-0.8-1.7-1.2
		c-0.3-0.2-0.6-0.4-0.9-0.5c-0.4-0.2-0.8-0.3-1.3-0.5c-0.4,0.5-1,1.1-1.6,1.9c-2-1.8-4-0.9-5.8,0.3c-1.8,1.2-3.4,1.2-5.1-0.1
		c-0.4-0.3-1-0.5-1.2-0.6c-1.2,0.8-2.2,1.5-3.2,2c-1.3,0.6-2.7,0.1-4-0.4c-0.5-0.2-1.3-0.3-1.5,0c-0.4,0.4-0.5,1.2-0.8,2.1
		c2.3-0.4,4.1-0.7,5.9-1c2.4-0.4,2.5-0.5,3,1.8c0.4,1.5,1,1.8,2.4,1.4c1.4-0.4,2.9-0.5,4.3-0.9c0.3-0.1,0.9-0.4,0.9-0.6
		c-0.1-1.4,0.7-1.9,2-2.1c-0.1-0.5-0.2-0.9-0.3-1.4c0.8-0.5,1.4-0.2,2,0.3c0.5,0.3,1.1,0.7,1.6,0.7c1.6-0.2,3,0.3,4.3,1.1
		c0.8,0.5,1.7,0.8,2.4,1.4c1.4,1.1,2.9,1.2,4.6,0.5c0.7-0.3,1.5-0.4,2.2-0.6c3.1-1,6.2-1.9,9.4-2.9c0.4-0.1,0.7-0.4,1-0.6
		c-0.1-0.2-0.1-0.3-0.2-0.5c-2,0.5-4.1,1-6.1,1.4c-0.4,0.1-0.8-0.1-1.2-0.2c0.3-0.2,0.6-0.5,1-0.7c1.2-0.5,2.5-0.8,4-1.4
		c1.1,0.5,1.8,0.4,3-0.9c0.8-0.9,1.6-0.9,2.1,0.2c0.8,1.5,1.8,1.6,3.2,1.1c1.1-0.4,2.3-0.6,3.5-0.6c-0.1,0.1-0.3,0.2-0.4,0.2
		c-4.9,2.1-10.1,3.2-15.3,4.5c-0.8,0.2-1.5,0.4-2.3,0.7c0.2,0.6,0.4,1,0.6,1.6c-2.3,0.4-4.6,0.7-6.8,1.3c-3.6,1-6.1-0.7-8.4-3
		c-1.1-1.1-1.9,0.1-2.8,0.4c-0.2,0.1-0.5,1-0.3,1.3c0.2,0.4,0.8,0.7,1.3,0.8c0.9,0.2,1.8,0.2,2.7,0.3l0.1,0.5
		c-0.8,0.2-1.7,0.5-2.5,0.7c-0.8,0.2-1.6,0.3-2.4,0.4c-0.3,0-0.7,0.1-0.9,0c-1.6-1.6-3.6-0.5-5.4-0.7c-0.2,0-0.5,0.1-0.6,0.2
		c-0.6,1.6-2.1,1.3-3.3,1.7c-0.5,0.2-1,0.6-1.5,0.9c0.4,0.3,0.8,0.7,1.4,1.1c-0.5,0.4-1.1,0.9-1.7,1.3c0.1,0.1,0.2,0.3,0.2,0.4
		c2.4-0.5,4.9-0.9,7.3-1.4c0-0.1,0-0.3,0.1-0.4c-0.8-0.3-1.5-0.5-2.4-0.8c0.5-0.5,0.9-1.1,1.4-1.5c0.2-0.1,0.8,0.2,1.2,0.4
		c0.6,0.3,1.2,0.7,1.8,0.8c0.6,0.1,1.4,0.3,1.6-0.8c0-0.1,0.7-0.4,0.9-0.2c0.8,0.6,1.6,0.3,2.2-0.1c2-1.3,4.3-1.2,6.5-1
		c0.6,0,1.2,0.7,1.7,1.1c0.5,0.5,1,1.6,1.4,1.5c1-0.1,2.1-0.6,3-1.1c1-0.5,1.9-1.3,2.9-1.7c1.6-0.7,3.2-1.3,4.8-2
		c0.5-0.2,0.8-0.6,0.9-1c0-0.4-0.2-1,0-1.2c0.4-0.4,1.1-1,1.5-0.8c1.8,0.6,3.1-0.3,4.5-1.1c0.3-0.2,0.8-0.3,1.2-0.4
		c1-0.1,2-0.2,3-0.1c-2.5,1-4.9,1.9-7.4,2.9c0.1,1.1,0.1,1.2,1.1,0.9c2-0.7,3.9-1.4,5.8-2.3c1-0.4,1.8-0.6,2.9-0.3
		c1.3,0.3,2.6,0.3,3.9,0.3c0.8,0,1.3,0.1,1.8,0.7c1.6,1.8,1.9,4.2,2.4,6.4C267.2,76.9,266.7,77.5,266.3,77.6z M210.7,40.9
		c-1,0.4-1.8,0.7-3,0c-1.1-0.6-2.6-1.1-3.8-0.9c-1.7,0.2-2.7-1-4.1-1.5c2.1-0.9,4.3-1.4,6.5-1.7l0.2,0.5c-0.8,0.4-1.5,0.8-2.3,1.2
		l0,0.4l6.7,1.5C210.8,40.6,210.8,40.8,210.7,40.9z M213.6,46.8c-0.3-0.2-0.7-0.4-0.8-0.4c-0.9,0.2-1.5,0.3-2.2,0.4
		c0-0.2,0-0.4-0.1-0.6C211.6,46.2,212.7,45.3,213.6,46.8z M209.9,47c-0.4,0.2-0.8,0.4-1.3,0.5c-1.9,0.2-3.9,0.3-5.8,0.5
		c-0.6,0.1-1.1,0.6-1.6,0.9l-0.1,0.5c-0.4-0.5-0.8-1-1.1-1.4c0-0.2,0.1-0.3,0.1-0.5c3.2-0.3,6.5-0.7,9.7-1
		C209.8,46.7,209.8,46.8,209.9,47z M199.4,37.3c0.2-1.3,1.6-2.2,2.6-1.9c0.4,0.2,0.8,0.5,1.3,0.6c0.4,0.1,0.9,0,1.3,0l0.1,0.4
		C202.9,36.7,201.2,37,199.4,37.3z M188.3,171.9c-0.6,0-1.1,0-1.7,0c-2.2-0.1-4.5-0.6-6.6-0.2c-4.4,0.8-8.2-0.9-12.3-1.9
		c-0.5-0.1-0.9-0.3-1.7-0.6c2.6-0.2,4.8-0.3,6.9-0.4c0-0.2,0.1-0.3,0.1-0.5c-0.8-0.6-1.7-1.3-2.5-1.9c0.1-0.1,0.1-0.2,0.2-0.4
		c0.5,0.2,1,0.4,1.4,0.7c1.6,1.4,3.4,2.2,5.6,1.8c0.4-0.1,0.8,0.4,1.3,0.6c-0.4,0.2-0.8,0.5-1.2,0.6c-1.2,0.1-2.4,0.1-3.6,0.2
		c4.5,2.2,9.4,1,14.1,1.6L188.3,171.9z"/>
	<path d="M205.8,151.3c1.8-0.4,3.5-0.8,5.3-1.3c0.7-0.2,1.5-0.1,1.5-1.2c0-0.1,0.3-0.4,0.4-0.4c1.9-0.3,3.8-1.3,5.8-0.6
		c1.6,0.5,3.2,0.9,4.8,0c-0.1-0.6-0.1-1.3-0.2-2.1c1.5-0.3,2.9-0.7,4.3-1c0.4,2.1-0.5,3.7-2.4,4.3c-1.1,0.3-2.1,0.6-3.2,0.9
		c-1.2,0.4-2.4,0.5-3.5-0.4c-0.3-0.3-1-0.2-1.5-0.1c-3.1,0.7-6.1,1.6-9.2,2.3c-0.7,0.2-1.5,0-2.2,0
		C205.8,151.6,205.8,151.4,205.8,151.3z"/>
	<path d="M228.5,142.1c-1-0.9-1.7-1.5-2.5-2.2c0.8-0.7,1.6-0.8,2.2-0.2c1.6,1.2,3.3,1.9,5.3,1.3c0.3-0.1,0.7,0.2,1.3,0.5
		c-0.6,0.3-0.9,0.4-1.1,0.5c-2.8,0.7-5.7,1.4-8.5,2.1c-0.6,0.1-1.2,0.4-1.8,0.3c-4.3-0.7-8.2,0.8-12.3,1.4c-0.6,0.1-1.2,0.3-1.8,0.4
		c0-0.1-0.1-0.2-0.1-0.3c0.3-0.1,0.6-0.3,0.9-0.3c2.8-0.7,5.5-1.4,8.3-2c0.8-0.2,1.7-0.1,2.5-0.1C223.4,143.4,225.8,143,228.5,142.1
		z"/>
	<path d="M228,148.9c0.7,1.2,0.6,1.6-0.4,2c-6,1.8-12,3.6-17.9,5.5c-1.4,0.5-2.8,0.5-4.3-0.6C213.2,153.9,221,152.7,228,148.9z"/>
	<path d="M212.1,124.7c0.3,0.5,0.5,0.8,0.8,1.1c-1.7,0.4-3.2,0.8-4.5,1.1c0.3-0.5,0.6-1.1,0.9-1.6c0-0.1,0.1-0.2,0.1-0.2
		c2.3-1.5,4.5-3.1,6.8-4.5c0.4-0.3,1.3-0.7,1.6,0.4c0.4,1-0.2,1.3-1.1,1.7C215.3,123.2,213.8,124,212.1,124.7z"/>
	<path d="M177.5,86.5c-1.4,1.3-2.8,2.7-4.4,3.8c-1.6,1.1-3.5,2-5.3,2.7c-1.8,0.7-3.7,1.2-5.8,1.8c0.5,2,1,4,1.4,6.1
		c-0.2,0-0.3,0.1-0.5,0.1c-0.5-2.1-1-4.2-1.4-5.9c-3.5-0.6-6.7-0.8-9.6-1.8c-9.5-3.1-13.9-11.7-12.5-21c1.4-10,7-17.2,16.3-21.2
		c1.3-0.6,1.9-1.3,2.1-2.8c0.6-6.1,1.6-12.1,3.8-17.9c0.9-2.3,2.1-4.5,3.4-6.6c-4.6,8.1-5.8,17-6.8,26.1c2-0.3,3.8-0.6,5.6-0.7
		c12.7-0.8,22.4,9.4,20.8,22.1c-0.3,2.6-1.1,5.1-2,7.5c-0.8,2-2,3.8-3.1,5.7c-0.3,0.5-0.8,0.9-1.2,1.3c0.1-0.4,0.2-0.9,0.2-1.3
		c-0.5,0.1-1,0-1.4,0.2c-1.9,1-3.8,2-5.7,3c-1.3,0.8-0.3,1.7,0,2.5c0.3,0.9,1,0.5,1.5,0.1C174.4,89,175.9,87.8,177.5,86.5z
		 M142,65.9c-0.2,0-0.4,0-0.5,0c-0.2,0.5-0.5,0.9-0.6,1.4c-0.3,1.4-0.7,2.8-0.9,4.1c-0.7,4.4,0.1,8.5,1.7,12.6
		c0.2,0.4,0.9,1,1.1,0.9c1.3-0.5,2.6-1.2,4-1.9C142.8,77.9,141.7,72.1,142,65.9z M148.5,84.9c-1.1,1.1-2.3,2.1-3.3,3.3
		c-0.1,0.1,0.1,0.7,0.3,0.9c1.4,1,2.5,2.7,4.6,2.6c0.2,0,0.5,0.4,0.8,0.5c1.3,0.5,2.7,1,4,1.5c0.1,0,0.5-0.3,0.6-0.5
		c0.4-1.1,0.9-2.2,1.2-3.4c0.1-0.3-0.2-0.9-0.4-1c-2.3-1.2-4.7-2.4-7-3.5C149,85.1,148.8,85,148.5,84.9z M145,68.9
		c0.2-0.2,0.5-0.6,0.8-1.1c1.2-2,2.2-4.1,3.4-6.1c1.4-2.3,1.5-2.2-0.6-4.1c-0.7-0.6-1.2-0.6-1.9,0c-2.6,2.6-3.8,5.8-4.3,9.3
		C142.3,68.8,142.9,69.4,145,68.9z M147.6,82.2c1.9,2.3,4.2,3.6,6.7,4.3c0.3,0.1,0.9-0.1,1.1-0.4c0.9-1.5,1.8-3,2.6-4.3
		c-1.4-1-2.6-1.9-3.8-2.7c-0.3-0.2-0.9-0.4-1.2-0.2C151.2,79.9,149.5,81,147.6,82.2z M159.6,94.1c4,0,7.4-0.9,10.6-2.5
		c0.3-0.1,0.4-0.8,0.4-1.2c-0.1-0.5-0.3-1-0.6-1.5c-0.2-0.3-0.7-0.6-1-0.5c-2.6,0.2-5.3,0.5-7.9,0.8c-0.3,0-0.7,0.3-0.8,0.5
		C160.1,91.1,159.9,92.5,159.6,94.1z M179.4,69.6c1.4-0.3,2.7-0.6,3.8-1c0.4-0.1,0.8-0.7,0.8-1.1c-0.1-2.3-0.6-4.5-1.7-6.8
		c-1.3,0.7-2.6,1.3-3.8,2c-0.2,0.1-0.3,0.5-0.3,0.8C178.6,65.5,179,67.4,179.4,69.6z M177.7,65.1c-2.1,1-4,1.8-5.8,2.8
		c-0.4,0.2-0.2,1.5-0.1,2.2c0.1,0.3,0.8,0.6,1.2,0.6c0.9,0,1.7-0.3,2.6-0.5c3.3-0.7,3.3-0.8,2.5-4.1C178.1,66,177.9,65.7,177.7,65.1
		z M145.7,77.7c0.1,0.5,0.2,0.9,0.3,1.4c0.5,1.5,0.6,1.6,2,0.9c1.4-0.6,2.7-1.2,4.1-1.9c0.3-0.1,0.6-0.7,0.5-0.9
		c-0.2-0.3-0.7-0.8-1-0.8C149.7,76.7,147.8,77.2,145.7,77.7z M164.1,64.4c-1.7,0.2-3.1,0.3-4.9,0.5c0.6,1.2,1,2.3,1.6,3.1
		c0.3,0.4,1.2,0.4,1.8,0.4c0.3,0,0.8-0.5,0.9-0.9C163.8,66.7,163.9,65.8,164.1,64.4z M151.6,59.2c5.3-3.4,11.1-4.8,17.4-4.1
		C164,53.3,154.5,55.9,151.6,59.2z M153.7,77.3c1.4-0.9,2.6-1.7,3.9-2.4c0-0.2-0.1-0.4-0.1-0.6c-1.5-0.1-3.1-0.1-4.9-0.2
		C152.9,75.3,153.3,76.2,153.7,77.3z M181,79.2c-3.3-1.2-3.1-1.2-4,1C179.5,82.3,180.2,82.2,181,79.2z M169.8,56.3
		c-0.8,2-1.6,3.9-2.3,5.7c-0.1,0.2,0.1,0.5,0.1,0.8c0.2-0.1,0.6-0.2,0.7-0.4c0.9-1.8,1.8-3.5,2.7-5.4
		C170.6,56.8,170.3,56.6,169.8,56.3z M165.6,62.5c-3.3-1.2-9.5,0.8-10.4,3.5C158.2,63.2,161.7,62.1,165.6,62.5z M175.7,80.1
		c1.9-1.1,4.2-7.3,3.1-9.4C178.6,74.1,177.7,77.3,175.7,80.1z M149.7,62.2c-0.2,0.2-0.4,0.4-0.6,0.6c1.6,1.4,3.2,2.8,4.8,4.2
		c0.2-0.2,0.3-0.3,0.5-0.5C152.8,65,151.3,63.6,149.7,62.2z M163.2,82.2c-0.2,0-0.3,0-0.5,0c0.2,2.2-0.3,4.4,0.3,6.6
		c0.2,0,0.4,0,0.7,0C163.5,86.6,163.3,84.4,163.2,82.2z M163.9,73.1c-0.7-0.4-1.1-0.7-1.5-0.9c-0.3,0.5-0.9,1.1-0.8,1.6
		c0,0.4,0.8,0.7,1.2,1.1C163.1,74.3,163.4,73.8,163.9,73.1z M164.8,87.2c2.9-0.5,5.6-1.5,8.1-3.6C170,84.9,167.4,86,164.8,87.2z
		 M165.2,76.7c-0.2,0.1-0.3,0.2-0.5,0.4c0.5,0.9,0.9,1.8,1.4,2.6c0.1,0.2,0.7,0.3,1,0.2c0.2-0.1,0.4-0.7,0.2-0.8
		C166.7,78.2,165.9,77.4,165.2,76.7z M174.2,58.1c-0.1,0.1-0.1,0.2-0.2,0.3c0.6,0.3,1.5,0.9,1.7,0.7c1.2-1.1,2.2-2.3,3.3-3.5
		c-0.1-0.1-0.3-0.3-0.4-0.4c-1.1,1.1-2.3,2.3-3.4,3.4C174.8,58.4,174.5,58.2,174.2,58.1z M171.2,72.7c-1.5,0.2-2.8,0.4-4,0.7
		C169.6,74.5,170.9,74.3,171.2,72.7z M170.5,77.8c0.6,1.7,3.1,3.4,4.3,3.1C173.2,79.7,171.9,78.7,170.5,77.8z M177.9,83.6
		c0-0.2,0.1-0.3,0.1-0.5c-0.7-0.5-1.5-1.1-2.2-1.6c-0.2-0.1-0.5,0-0.8,0c0.1,0.3,0.1,0.6,0.3,0.7c0.5,0.5,1.1,0.9,1.7,1.2
		C177.2,83.7,177.5,83.6,177.9,83.6z M180.8,71c0,0.1,0,0.3,0.1,0.4c0.9,0,1.7,0.1,2.6,0c0.2,0,0.5-0.4,0.5-0.6
		c0-0.1-0.3-0.5-0.4-0.5C182.6,70.5,181.7,70.8,180.8,71z M154.1,70.4c-0.1,0.2-0.1,0.4-0.2,0.6c1.2,0.3,2.3,0.6,3.5,0.9
		c0.1-0.2,0.1-0.4,0.2-0.5C156.4,71.1,155.2,70.8,154.1,70.4z M161.6,87.9c0-0.2,0-0.3,0-0.5c-1.7-0.1-3.4-0.2-5.2-0.3
		c0,0.1,0,0.3,0,0.4C158.2,87.7,159.9,87.8,161.6,87.9z M158.2,75.9c1.1,2,3.5,2.8,5.3,2C161.4,78.1,159.5,77.7,158.2,75.9z
		 M169,63.7c-0.1,0.1-0.3,0.2-0.4,0.3c0.7,1.1,1.4,2.2,2.1,3.3c0.1-0.1,0.2-0.2,0.3-0.2C170.3,65.9,169.7,64.8,169,63.7z
		 M164.9,68.3c-0.1,0.1-0.2,0.2-0.3,0.2c0.8,1.1,1.6,2.1,2.4,3.2c0.1-0.1,0.2-0.1,0.3-0.2C166.5,70.5,165.7,69.4,164.9,68.3z"/>
	<path d="M189.7,32.9c-1-1.2-3.5-1.6-5-0.9c-1.3,0.6-2.5,0.6-4,0.5c-1.5-0.1-3-1.5-4.6-0.5c-0.3,0.2-0.8,0.2-1,0.4
		c-1.2,1.5-2.9,1.2-4.4,1.6c0-0.1-0.1-0.2-0.1-0.3c0.9-0.4,1.8-0.7,2.7-1.2c-0.2-0.7-0.3-1.4-0.5-2.1c0.2-0.1,0.3-0.1,0.4-0.1
		c3.3,1,4.2,0.9,8.5-1.2c-0.8-0.1-1.4-0.2-1.9-0.3c0-0.1,0-0.1,0-0.2c0.7-0.2,1.5-0.4,2.2-0.5c0-0.2,0-0.3-0.1-0.5
		c-1.9,0.2-3.9,0.5-5.8,0.7c0-0.5,0-1,0-1.6c2.7-0.9,5.4-2,8.3-1.5c2.9,0.5,5-0.8,7.2-2.2c0.3-0.2,0.7-0.3,1.1-0.3
		c1.9-0.2,3.7-0.2,5.6-0.5c1.4-0.2,2.5,0.3,3.6,1.4c-0.8,0.8-1.6,1.6-2.5,2.6c-0.4-1-0.8-1.8-1.2-2.8c-1,1.8,0.4,3.3,0.1,5.1
		c-0.4-0.1-1-0.1-1.1-0.3c-0.5-1.2-1.6-1-2.5-1.2c-0.4-0.1-0.9,0.3-1.4,0.5c0,0.2,0,0.3,0,0.5c0.8,0.3,1.5,0.8,2.3,1
		c1.1,0.3,2.3,0.3,3.4,0.5c1,0.2,1.9,0.5,2,1.8c0.1,2.1,0,2.3-1.7,2.7c-1.9,0.4-3.9,0.7-5.9,1.1c-0.7,0.1-1.4,0.3-1.9-0.6
		c-0.3-0.6-1.5-0.1-2.2,0.9c-1-1.2-2-0.3-2.8,0.3c-1.6,1.3-3.3,2-5.5,2.2c0.8-1.2,1.5-2.3,2.9-2.7C185.8,34.2,187.7,33.6,189.7,32.9
		z M191.4,32.4c1.1,0.4,3.1-1.5,3.2,1.3c1.4-0.1,2.6-0.1,4-0.2c-0.3-0.4-0.5-0.8-0.7-1.1c0.8-0.6,1.6-1.1,2.6-1.7
		c-0.5-0.3-0.7-0.5-0.9-0.5c-1.3-0.1-2.6-0.1-3.9-0.1c-0.4,0-0.8,0-1.1-0.2c-0.9-0.8-1.8-0.5-2.8-0.2c-0.3,0.1-0.7,0.6-0.7,0.9
		C190.9,31.2,191.2,31.7,191.4,32.4z M179.1,27c0.1,0.1,0.1,0.3,0.2,0.4c1.3-0.1,2.6-0.3,4.2-0.5c-0.5,1.2-0.8,2.1-1.2,2.9
		c2.4,0.1,4.7,0.2,6.8,0.2c-0.1,0-0.4-0.2-0.7-0.3c-1.2-0.3-2.2-0.6-2.3-2.1c0-0.4-0.7-1-1.2-1.1c-1.6-0.2-3.2-0.3-4.9-0.3
		C179.7,26.4,179.4,26.8,179.1,27z"/>
	<path d="M239.2,77.7c-0.3-1.3,0-2,1.3-2.3c1.5-0.3,3-0.8,4.5-1.2c1.2-0.3,2.1,0.2,2.7,1.6C244.8,76.4,242.1,77.1,239.2,77.7z"/>
</g>
<g>
	<path d="M145.5,117.5c0.7,0.4,0.6,0.8,0.2,1.4c-3.2,3.8-6.8,7.1-11.2,9.4c-1.7,0.9-3.3,2-4.9,3c0.9-1.1,1.9-2,2.9-2.9
		c3-2.8,6-5.7,9.9-7.3c0.5-0.2,1-0.6,1.4-1c0.9-0.7,1.1-1.3,0.1-2.2c-1.4-1.3-1.3-1.8-0.3-3.4c1.1-1.7,2.2-3.4,3.2-5.1
		c0.2-0.4,0.3-0.9,0.4-1.3c-0.4-0.1-0.9-0.2-1.3-0.2c-1.7,0.1-3-1.4-2.6-3c0.5-2.5,0.8-5.1,1.2-7.7c-2.4,0-3.1,0.3-3.5,2.6
		c-0.8,3.8-1.3,7.7-2,11.5c-0.4,2.3-1.1,4.6-2.8,6.3c-1.6,1.7-3.4,3.3-5.1,5c-0.5,0.5-1,1.1-1.5,1.6c-2.4,2.3-4.9,4.5-7.3,6.8
		c-1.2,1.2-2.3,2.5-3.2,3.9c-0.5,0.7-0.1,1.2,0.8,1c0.7-0.2,1.4-0.4,2.1-0.4c1.6-0.1,3-0.6,4.2-1.6c0.5-0.4,1-0.8,1.6-1.2
		c0,0.1,0.1,0.1,0.1,0.2c-1.1,1.6-2.2,3.3-3.4,5c-0.6-1.3-1.5-1.3-2.6-1.2c-1.6,0.1-2.9,0.8-3.9,1.9c-1.1,1.2-2.5,1.6-4.2,1.4
		c-3.9-0.6-7.5-1.8-10-5.2c-0.2-0.2-0.3-0.5-0.5-0.6c-0.4-0.1-1.1-0.3-1.4-0.1c-1.4,1.2-2.7,2.4-4.4,4c0.8,0.5,1.5,1,2.2,1.4
		c1.2,0.8,2.5,1.4,3.6,2.4c1.7,1.5,3.5,2.3,5.8,1.8c1.3-0.2,2.6,0.3,3.2,1.6c0.4,0.9,1,1.2,1.9,1.1c2.6,0,2.8,0.2,3.6,2.8
		c0.4,1.2,1.1,2.1,2.5,2.5c1.4,0.4,2.7,1,4,1.5c0.7,0.3,1.6,0.6,2.2,0.5c1.8-0.3,3.7-0.8,5.4-1.4c0.9-0.3,1.7-1,2.6-1.5
		c-0.4-0.4-0.6-0.7-0.8-0.9c1.9-2.6,4.6-3.3,7.4-4c0.7-0.2,1,0,1.3,0.7c0.2,0.7,0.6,1.3,1,2.1c1.7-1.2,3.3-2.3,4.8-3.4
		c1-0.8,1.7-0.9,2.5,0.2c0.7,1.2,1.7,1.2,2.9,0.6c2.2-1,4.6-1.9,6.9-2.8c0.1,0.1,0.1,0.2,0.2,0.2c-0.8,0.7-1.6,1.4-2.6,2.3
		c1.2,0.3,2.1,0.5,3.2,0.8c-0.3,0.2-0.5,0.4-0.6,0.5c-3,1.5-6,3.1-9.1,4.5c-5.8,2.7-11.1,6.6-17.8,7.4c-0.3,0-0.7,0.2-1,0.4
		c-1.4,0.6-2.8,0.7-4.3,0.2c-1.4-0.4-2.8-0.8-4.2-0.9c-3.3-0.2-6.5-0.3-9.8-0.4c-1.7-0.1-3.5-0.3-5.2-0.5c-0.4,0-0.8-0.4-1.1-0.6
		c0.1-0.1,0.1-0.2,0.2-0.3c0.7,0.1,1.3,0.4,2,0.4c3.6,0,7.1,0,10.7-0.1c0.9,0,1.7-0.1,1.9-1.2c0.2-1.1,0-2.1-1.2-2.6
		c-0.8-0.3-1.6-0.6-2.4-0.8c-1.2-0.2-1.9-0.9-2.3-2c-0.4-1.1-1.2-1.7-2.4-1.7c-1.7,0-2.9-0.9-3.8-2.2c-0.4-0.5-1-1.1-1.6-1.1
		c-2.5-0.3-4.9-0.9-7.1-2.2c-2-1.1-5.2-0.3-6.6,1.6c-0.5,0.7-0.7,1.4,0.2,1.9c3.7,1.9,6,5.4,9.1,8c0.1,0.1,0,0.2,0.1,0.6
		c-0.6-0.4-1-0.6-1.4-0.9c-2.2-1.9-4.3-3.8-6.4-5.7c-1.4-1.2-3.2-1.6-4.9-0.8c-5.7,2.4-11.3,4.8-16.9,7.2c-1.1,0.4-2.2,0.8-3.4,1
		c-1.1,0.2-1.8,1-1.9,2.1c-0.1,1-0.4,2-0.8,2.9c-0.6,1.2-0.9,2.3-0.6,3.7c0.2,0.7,0.5,1.5,0.4,2.2c-0.6,2.7-1.2,5.4-2,8
		c-0.3,1-1.1,1.9-1.9,2.7c-1.3,1.4-2.7,2.6-3.2,4.5c-0.4,1.5-1,3-1.6,4.4c-0.2,0.5-1,0.9-1.5,1.1c-1.1,0.3-2.2,0.3-3.3,0.4
		c1-0.6,1.9-1.3,2.9-1.9c0.5-0.3,1-0.7,1.2-1.1c0.5-0.9,0.8-1.9,1.1-3c0.4-1.3-0.3-2-1.6-1.7c-0.5,0.1-1.1,0.4-1.5,0.8
		c-0.5,0.4-1,0.9-1.3,1.4c-2.4,3.3-5.7,5.6-9,7.8c-1.1,0.7-2,1.7-3,2.6c-0.2,0.2-0.1,0.7-0.2,1c0.4,0,0.8,0,1-0.1
		c1.1-0.8,2.1-1.6,3.2-2.4c1.5-1.1,3.1-2.1,5-1c0.8-0.9,1.5-1.7,2.2-2.5c-0.2,0.7-0.4,1.4-0.7,2.1c-1,2.5-1.3,2.6-3.9,2.1
		c-1.3-0.2-2.7-0.2-3.6,1.2c-0.5,0.8-1.4,1.5-2.1,2.1c-0.2,0.2-0.8,0.4-1,0.3c-0.9-0.5-1.5,0-2.3,0.4c-1.7,0.8-3.4,1.4-5.4,2.2
		c0.3-0.7,0.4-1.1,0.5-1.5c-0.5-0.1-0.9-0.1-1.6-0.2c0.5-0.2,0.6-0.2,0.8-0.3c2.1-0.6,3.8-1.5,5.4-3.2c2.9-2.9,5.9-5.8,9.8-7.3
		c0.4-0.1,0.7-0.4,1-0.7c3.7-4.1,6.6-8.5,7.8-14c0.1-0.4,0-0.7,0.1-1.6c-1.2,0.7-2.1,1.3-3.1,1.7c-1.4,0.6-0.6,2.2-1.4,3.1
		c-1.3-0.3-2,0.2-2.4,1.5c-0.2,0.6-0.3,1.2-0.6,1.7c-0.2,0.3-0.9,0.5-1.1,0.4c-0.9-0.7-1.3-0.1-1.9,0.4c-1.6,1.5-5.8,2.2-7.6,1.2
		c1.1-0.5,2.2-1.1,3.3-1.3c3.1-0.4,4.3-2.7,5.6-5c0.2-0.4,0-0.9,0.1-1.7c-1.5,0.3-3.1,0.1-4.1,0.8c-1.9,1.3-3.4,3.1-5,4.8
		c-1.5,1.6-2.7,3.3-4.1,5c-1.6,1.9-3.5,3.3-5.9,4.1c-1.4,0.5-2.8,0.5-4-0.7c-0.8-0.8-0.8-1.4,0.2-1.7c2.3-0.6,3.7-2.9,6-3.4
		c0.2-0.1,0.3-0.6,0.5-0.9c-0.4-0.1-0.7-0.2-1.1-0.2c-0.2,0-0.4,0.2-0.6,0.3c-1.8,1.1-3.3,0.7-4.2-1.2c-0.4-0.9-0.7-2-1-3
		c-1.1-3.2-2-3.5-4.6-1.3c-0.1,0.1-0.2,0.1-0.2,0.1l0,0c-0.1-0.9-0.1-1.8-0.4-2.6c-0.6-2.1,0.8-4,2.9-4.8c0.6-0.2,1.1-0.7,1.4-1.3
		c0.5-0.8,0.9-1.8,1.3-2.7c1.4-2.8,2.9-5.6,5.6-7.3c1-0.7,1.4-1.4,1.3-2.6c-0.2-1.3-0.5-2.8-0.2-4.1c1.3-5.8,3.5-11.3,6.8-16.3
		c0.4-0.6,0.9-1.2,1.5-1.6c1.2-0.9,1.8-2,2.3-3.4c0.8-2.4,1.6-4.7,2.6-7c1.4-2.8,2.8-5.7,4.6-8.3c1.8-2.7,4-5.2,6.1-7.8
		c7.3-9.1,16.6-14.4,28.3-15.2c1.7-0.1,2.8-0.9,3.7-2.1c2.3-2.9,4.6-5.8,7-8.6c0.7-0.8,1.8-1.3,2.7-2c0.4-0.3,0.8-0.6,1.3-0.9
		c0.9-0.7,1.8-1.4,2.8-2c2.1-1.2,4.2-2.2,6.4-3.4c0.7-0.4,1.2-0.2,1.7,0.5c0.7,1,1.8,0.9,2.3-0.3c0.2-0.4,0.3-0.9,0.4-1.4
		c0.4-1.2,0.8-2.4,1.2-3.9c0.3,0.5,0.5,0.7,0.5,0.9c-0.2,1.6-0.2,3.4-0.8,4.9c-0.3,0.8-1.8,1.2-2.7,1.7c-0.8,0.5-1.5,0.4-2.4,0
		c-0.4-0.2-1.1-0.3-1.6-0.1c-1.7,0.8-3.4,1.8-5.1,2.7c-0.6,0.3-1,1-1.4,1.5c0.1,0.2,0.1,0.3,0.2,0.5c0.8,0,1.6,0.1,2.4-0.1
		c3.4-1.1,6.8-2.3,10.2-3.5c0.1,0.1,0.3,0.3,0.4,0.4c-1,1.4-2,2.8-3,4.2c-0.1,0-0.1-0.1-0.2-0.1c0.1-0.6,0.2-1.3,0.4-2.1
		c-0.9,0.2-1.7,0.4-2.4,0.6c-3.8,0.6-6.5,2.3-7.7,6.2c-0.7,2.4-2.2,4.4-4.1,6c-0.9,0.7-1.6,1.6-2.3,2.5c-0.9,1-0.8,2,0.1,2.9
		c0.9,0.8,1.8,1.7,2.9,2.3c2.8,1.8,3.3,1.9,5.7-0.4c2.4-2.2,5.3-1.6,8.3-2.3c-0.5,2.9-0.9,5.5-1.3,8c-0.1,0-0.2,0-0.3,0
		c-0.1-0.7-0.2-1.3-0.4-2.3c-0.7,0.5-1.2,0.8-1.7,1.2c-1.1,1-2.1,2-3.1,3c-0.9,0.8-1.3,1.8-1.2,3.1c0.6,5,0.2,9.9-1.6,15
		c1.7,0.6,3.4,1.4,5.1,1.9c1,0.3,1.6,0.8,2.1,1.5c0.4,0.6,1.1,1.3,1.7,1.4c1.8,0.1,3.2,1.1,4.6,2.1c1.1,0.8,2.5,0.7,3.6-0.2
		c4.6-3.9,9.2-7.9,13.9-11.7c1.7-1.4,2.3-2.9,2.3-5c0-0.4,0-0.8,0.1-1.2c0.6-3.8,1.1-7.6,1.7-11.3c0.2-1.1,0.7-2.2,1-3.3l0,0
		c0.3-0.5,0.6-0.9,0.9-1.4c0.4-0.5,0.8-0.9,1.2-1.3c0.4,0.4,0.7,0.7,1.2,1.2c0.6-1.3,1.1-2.5,1.7-3.8c1.3,0.3,1.5,1.1,1.3,2.1
		c-0.5,3.2-1,6.4-1.5,9.6c-0.1,0.9-0.1,1.8,1.1,2c-0.2,0.3-0.3,0.6-0.4,1c0.4-0.2,0.7-0.4,0.9-0.4c0.7-0.1,1.9-0.4,2.1-0.1
		c0.5,0.8,1.1,2.2,0.7,2.8c-1.2,2.1-2.8,4.2-4.4,6C143.9,116,143.8,116.4,145.5,117.5C145.5,117.5,145.5,117.5,145.5,117.5z
		 M63,129.9c0.1,0,0.3,0.1,0.4,0.1c0-0.4,0.1-0.7,0.1-1.1c0.3-0.1,0.5-0.2,0.8-0.3c0-0.1-0.1-0.1-0.1-0.2c-0.2,0.2-0.4,0.3-0.6,0.5
		C63.4,129.3,63.2,129.6,63,129.9z M61.3,132.2c-0.1-0.1-0.2-0.1-0.3-0.2c-0.1,0.4-0.2,0.7-0.4,1.1c-0.3,0.3-0.8,0.4-1,0.8
		c-1.7,2.5-3.3,5.1-4.9,7.6c-0.2,0.4-0.5,0.8-0.4,1.2c0.1,0.4,0.4,0.8,0.8,1.1c0.2,0.1,0.8-0.1,0.9-0.4c0.8-1.4,1.4-2.9,2.1-4.4
		c0.4-0.9,0.9-1.7,1.3-2.6c0.5-1,0.9-2.1,1.3-3.1c0.2,0,0.3,0,0.5-0.1c-0.2-0.1-0.3-0.1-0.5-0.2C60.8,132.8,61.1,132.5,61.3,132.2z
		 M76.8,117.8c-0.1-0.1-0.3-0.3-0.4-0.4c-0.3,0.5-0.7,1-1,1.5c-1.3-0.1-1.9,0.8-2.6,1.6c0.1,0.1,0.2,0.2,0.3,0.4
		c0.8-0.7,1.5-1.3,2.3-2C75.9,118.6,76.3,118.2,76.8,117.8z M65.1,127.2c0.1,0.1,0.3,0.3,0.4,0.4c1.7-1.5,3.7-2.7,4.8-4.9
		c0.3-0.1,0.6-0.2,1-0.4c-0.1-0.1-0.2-0.3-0.3-0.4c-0.2,0.2-0.4,0.4-0.6,0.6C68.6,124.1,66.9,125.7,65.1,127.2z M62.2,105.6
		c-4.6,5.3-8.1,11.3-10.8,17.8c-1.2,2.9-2,5.9-2.2,9c0,0.5,0,1,0.3,1.6c0.1-0.2,0.3-0.4,0.4-0.7c0.6-2,1.3-3.9,1.8-5.9
		c1.7-6.4,4.6-12.2,8.7-17.4c2.7-3.5,6.5-5.7,10.2-7.9c3.4-2.1,7-3.7,10.6-5.4c-0.6,0.1-1.1,0.1-1.9,0.2c0.1-0.6,0.1-1.1,0.2-1.6
		c0.4,0,0.8,0,1.2,0c0-0.1,0-0.1,0-0.2c-0.4,0.1-0.7,0.2-1.1,0.2C72.7,96.8,66.9,100.2,62.2,105.6z M40,141.6
		c-0.6,1.6-1.3,3.3-1.8,4.9c-0.6,1.8-1.2,3.6-1.4,5.5c-0.2,1.4,0.2,2.8,0.7,4.3c3.6-6.4,6.6-13.2,11.5-18.7
		c-2.6,4.5-5.1,8.9-7.7,13.3c2.1,1.9,5.2,1.5,6.8,4c1.6-1.5,3.2-3.1,4.9-4.6c0.1,0.1,0.2,0.2,0.3,0.3c-1.6,1.8-3.3,3.6-5.2,5.6
		c2.8-1.2,7.7,0.3,8.7,2.7c1.8-1,3.5-2,4.6-3.8c0.7-1.1-0.4-1.8-1-2.4c-1.4-1.3-3.2-2.5-4.3-4c-1.8-2.6-3.2-5.5-4.7-8.3
		c-1.3-2.5-2.6-5.1-3.9-7.6c-0.7-1.3-2.4-1.4-3.7-0.3c-0.8,0.8-1.5,1.7-2.2,2.6c-2.7,4.2-4.9,8.6-5,13.8c0,0.3,0,0.6,0,1
		C37.7,147,38.8,144.3,40,141.6L40,141.6z M87.3,98.7c-0.1-0.2-0.2-0.4-0.3-0.7c-2.1,0.3-4.1,0.5-6.2,1c-7,1.6-13,5.3-18.2,10.1
		c-1.1,1-1.9,2.5-2.7,3.8c-1.6,2.6-3.1,5.3-4.7,8.2c0.7-0.1,0.9-0.1,1.5-0.2c-0.3,0.6-0.4,0.9-0.6,1.3c-1.7,4-3.3,7.9-5,11.9
		c-0.6,1.5-0.3,2.9,0.4,4.6c0.2-0.5,0.4-0.8,0.5-1.2c1.6-4.3,3.7-8.3,6.3-12c7.1-10,16.4-17.1,28.1-21c1.1-0.4,1.4-1.1,1.3-1.9
		c-0.1-1-0.5-2.1-0.9-3.1c0-0.1-0.7,0-1,0c-8.4,1.8-15.9,5.3-21.7,11.9c-0.9,1-1.7,2.2-2.5,3.3c-1.4,1.8-2.8,3.5-4.2,5.2
		c-0.2,0.2-0.5,0.3-0.7,0.4c-0.1-0.1-0.1-0.2-0.2-0.3C63.4,108.3,73.8,101.2,87.3,98.7z M56.3,136.5c2.8-4.5,6.4-8.3,10.2-12.1
		c4.4-4.4,9.4-8.1,14.8-11.2c0.5-0.3,0.8-1,1.1-1.6c0.4-0.6,0.8-1.2,1.2-1.8c1-1.3,2-2.6,3-3.8c0.1-0.1,0.1-0.3,0.3-0.8
		c-2.1,0.8-3.9,1.5-5.7,2.3c-6.3,2.7-11.8,6.4-16.3,11.6c-5.1,5.9-9.9,12.1-12.3,19.7c-0.4,1.2-0.3,2.2,0.6,3.2
		C54.2,140.2,55.2,138.3,56.3,136.5z M154.5,146.9c-0.5,0.3-1.1,0.4-1.6,0.6c-1.2,0.5-2.3,0.9-2.9-0.9c-0.3-0.8-0.9-0.8-1.7-0.2
		c-1.2,1-2.4,1.9-3.8,2.6c-1.5,0.8-2.1,0.5-3.1-0.8c-0.8-1.1-1.4-1.1-2.1,0.3c-2,3.5-5.1,5.4-8.8,6.6c-1.4,0.4-2.9,0.4-4.3,0.6
		c-0.5,0.1-1,0.1-1.4,0.2c-0.3,0.1-0.5,0.5-0.6,0.7c0,0.2,0.2,0.6,0.4,0.7c1.8,0.5,3.5,1,5.3,1.5c0.3,0.1,0.6,0,0.9-0.1
		c7.8-1.8,14.9-5.4,22-9c1-0.5,2.1-0.9,3.2-1.3c0.5-0.2,0.9-0.5,1.4-0.9C156.4,146.5,155.5,146.4,154.5,146.9z M117.5,136.7
		c0.2-0.7,0.6-1.5,0.9-2.2c1-2.2,1-2.2-0.8-3.7c-1.5-1.2-3.1-2.1-5.1-2.4c-1.3-0.2-2.4-0.8-3.1-2c-0.8-1.2-2.3-1.1-2.9,0.2
		c-0.8,1.5-1.6,3-2.2,4.5c-0.2,0.5-0.2,1.3,0.1,1.7c2.3,2.7,5,4.9,8.5,5.9c0.5,0.1,1,0.1,1.6,0.1
		C115.9,138.7,117.1,138.2,117.5,136.7z M98.8,127.2c-0.5,0.6-1.3,1-2.1,1.4c-1.3,0.5-2.1,1.4-2.9,2.5c-1.3,1.9-2.9,3.7-4.3,5.5
		c-0.4,0.6-0.6,1.4-0.9,2.1c0.8,0.1,1.7,0.4,2.4,0.2c5.2-1.7,9.8-4.3,12.9-9c0.6-1,1.1-2.1,1.4-3.2c0.4-1.6-0.1-2-1.9-1.7
		C101.9,125.2,100.2,125.7,98.8,127.2z M80.4,151.1c3.1-1.5,6.3-2.9,9.5-4.3c0.9-0.4,1.8-0.5,2.7-0.8c0.5-0.1,1-0.2,1.3-0.5
		c1.3-1.1,2.5-2.2,3.7-3.3c0.3-0.3,0.5-0.8,0.7-1.2c-0.4-0.2-0.9-0.6-1.2-0.5c-1.1,0.1-2.3,0.3-3.3,0.7c-1,0.3-2.1,0.8-3,1.4
		c-4.5,2.7-9.3,4.3-14.4,5.1c-1.5,0.2-2.8,1-3.6,2.5C75.3,151.8,77.7,152.4,80.4,151.1z M63.2,165.7c-0.8,1.6-1.5,3.4-2.1,5.1
		c-0.8,2.1-1.5,4.1-2.1,6.2c-0.2,0.6-1,1.4,0,1.9c0.9,0.5,2,1.6,3.1,0.6c1.3-1.2,2.8-2.6,3.5-4.2c1-2.3,1.5-4.9,2-7.4
		c0.2-1.1-0.3-2.4-0.7-3.5c-0.2-0.4-0.9-0.7-1.6-1.1C64.5,164.3,63.6,164.9,63.2,165.7z M56.2,167.5c-1-1.3-1.1-3.3,0.2-4.3
		c2-1.5,4.1-2.9,6.2-4.2c1.1-0.7,2.2-0.4,3.1,0.5c0.4,0.4,1,0.5,1.5,0.7c0.3-0.7,0.8-1.3,0.7-2c-0.1-1.4-2.2-3.5-3.6-3.5
		c-0.8,0-1.9,0.3-2.3,0.9c-2.9,4-7.1,6.4-11.2,8.8c-1.1,0.6-1.4,1.4-0.8,2.5c0.3,0.6,0.5,1.1,0.7,1.7c1.2,2.7,3.3,3.3,5.9,1.9
		c0.4-0.2,0.7-0.5,1.2-0.8C57.3,168.9,56.8,168.2,56.2,167.5z M99.1,79.4c-2.3,3.2-4.5,6.5-6.8,9.7c-0.7,1-0.2,1.7,0.6,2.3
		c0.8,0.5,1.5,1.5,2.6,0.2c2.2-2.7,4.5-5.3,6.7-7.9c0.5-0.6,0.8-1.5,1-2.3c0.4-1.5-1.2-3.1-3-2.9C100,78.7,99.4,78.9,99.1,79.4z
		 M60.7,161.2c-1.1,0.8-2.1,1.6-3.1,2.5c-1.2,1.1-1.1,2.9,0,4.1c0.8,0.8,2.1,0.6,3.3-0.5c0.4-0.4,0.8-0.9,1.1-1.5
		c1.7-2.6,1.7-2.6,4.3-3.7C64.6,159.6,63.3,159.4,60.7,161.2z M97.2,125.8c3.2-0.7,5.5-1.9,5.8-4.5c0.1-0.7,0.3-1.5,0.5-2.2
		c0.7-1.9-0.4-3.1-1.7-4.2c-0.7-0.6-1.5-0.4-1.7,0.5c-0.4,1.9-1.3,3.9,0,5.9C97.9,122.1,98.3,124.3,97.2,125.8z M103.6,99.6
		c-1.1,1.2,1.1,2,1.5,3.2c0,0.1,1,0,1.4-0.2c0.4-0.2,0.7-0.7,1-1c1.1-0.8,2.1-1.7,3.3-2.3c1.3-0.7,1.9-1.5,1.3-2.7
		c-0.2-0.5-1.3-0.6-1.9-0.8C107.5,96.4,105.3,97.8,103.6,99.6z M30.2,166.4c1.2-1.8,2.6-3.4,3.9-5.1c0.6-0.8,1.4-1.5,1.9-2.3
		c0.5-0.8,0.1-1.4-0.8-1.2c-1,0.2-2.2,0.3-2.9,1c-2.5,2.6-4.1,5.8-4.2,9.5c0,0.4,0.1,0.9,0.2,1.3c0,0.1,0.1,0.2,0.3,0.4
		C29.2,168.7,29.5,167.4,30.2,166.4z M103.8,109.3c-0.1-0.6-0.4-1.2-0.8-1.6c-0.3-0.3-0.9-0.4-1.4-0.4c-0.3,0-0.6,0.6-0.6,1
		c-0.1,1.3-0.3,2.6-0.2,3.9c0.1,1.4,1.8,2.8,3.6,2.9C104.2,113.1,104,111.2,103.8,109.3z M58.3,108.4c-0.1-0.1-0.2-0.1-0.2-0.2
		c-0.4,0.4-1,0.7-1.3,1.2c-1.9,2.9-4.1,5.8-5.7,8.8c-1.6,3.1-3.5,6.1-3.6,9.8c-0.1,1.3,0.2,2.7,0.4,4c0.2,0,0.3,0,0.5,0
		C49,123,52.8,115.3,58.3,108.4z M33,176.7c-1.3,0.8-2,0.5-2.3-1c-0.1-0.4-0.1-0.9,0-1.3c0-0.4,0.1-0.8,0.1-1.3
		c-1.1,0.5-1.9,2-1.7,3.6c0.1,0.8,0.3,1.6,0.6,2.4c0.1,0.3,0.6,0.6,0.9,0.8c1,0.3,3.4-0.6,3.9-1.4c0.4-0.6,0.3-1.2-0.6-2.3
		C33.7,176.3,33.4,176.5,33,176.7z M99.6,100.8c0.4,1.4,0.7,2.9,1.2,4.3c0.2,0.5,0.5,1,1,1.3c0.4,0.3,1.1,0.4,1.6,0.2
		c0.2-0.1,0.3-0.9,0.3-1.4c0.1-2.4-1.4-4-2.8-5.6c-0.3-0.3-0.8-0.4-1.4-0.7C99.5,99.7,99.5,100.3,99.6,100.8z M71.8,151
		c-0.5-0.2-1.4,0.1-1.9,0.5c-0.9,0.6-1.7,1.3-2.6,2c2,1.8,6.5,1.5,8.3-0.6C74.3,152.1,73.1,151.4,71.8,151z M89.4,141.5
		c-2.8-0.9-7.7,1-8.7,3.5C83.3,145.4,86.2,144.2,89.4,141.5z M78.3,93.6c-4.9,1.5-9.3,3.9-13.3,7.1c-1.7,1.4-3.3,2.8-4.9,4.4
		c-0.5,0.5-0.8,1.4-0.9,2.2c5.4-7.3,12.7-11.6,21.5-13.3c0-0.2,0-0.3,0-0.5C79.9,93.5,79.1,93.4,78.3,93.6z M36.3,161
		c-3.2,2.1-4.7,5.3-5.8,8.7c3.1-2.3,4-6.9,8.5-7.9C38.2,160.9,37.4,160.3,36.3,161z M38.5,175.3c-0.5,0.4-1.2,0.8-1.4,1.3
		c-0.5,1.1-0.8,2.2-1,3.4c-0.1,0.4,0.2,1.1,0.5,1.3c0.3,0.2,1,0,1.4-0.3c1.4-1,1.5-2.5,1.6-4.1C39.2,176.3,38.8,175.8,38.5,175.3z
		 M47.9,166.3c-0.4-0.2-1.1-0.1-1.6,0.1c-0.3,0.1-0.4,0.9-0.3,1.2c0.3,0.9,0.6,1.7,1.1,2.5c0.5,0.8,1.3,1.1,2.2,0.6
		c0.4-0.3,0.5-1,0.8-1.5C49.7,167.9,49,166.9,47.9,166.3z M35.5,183.8c0.2-0.3,0.3-1.1,0.1-1.3c-0.4-0.3-1-0.5-1.5-0.4
		c-0.4,0.1-0.8,0.5-1.1,0.9c-0.3,0.4-0.5,0.9-0.8,1.4c0.5,0.2,1,0.3,1.6,0.6C34.4,184.5,35,184.3,35.5,183.8z M44.3,167.4
		c0,1.2,0.2,2.6-0.1,3.9c-0.3,1.3-1,2.5-1.5,3.7C45.3,174.2,46.7,170.6,44.3,167.4z M24.9,172.3c0.3-0.4,0.7-0.8,0.9-1.3
		c0.1-0.5,0.1-1.1-0.1-1.6c0-0.1-0.9-0.3-1-0.1c-0.4,0.4-0.6,0.9-1,1.6C24.2,171.4,24.5,171.8,24.9,172.3z M79.1,116.2
		c0-0.1,0-0.1-0.1-0.2c-0.2,0.1-0.4,0.1-0.5,0.2c0,0,0,0.1,0,0.1C78.7,116.3,78.9,116.2,79.1,116.2z"/>
	<path d="M22.8,175c-2,0.2-2,0.2-2.4-1.6c-1.2,1.1-1.8,2.9-1.3,4.1c0.1,0.3,0.4,0.8,0.7,0.8c0.3,0.1,0.7-0.2,0.9-0.5
		C21.5,176.9,22.1,175.9,22.8,175L22.8,175z"/>
	<path d="M128.6,129.6c0.4-0.6,0.9-1.2,1.3-1.8c0,0-0.1-0.1-0.1-0.1c-0.3,0.7-0.7,1.3-1,2C128.8,129.7,128.7,129.6,128.6,129.6z"/>
	<path d="M145.5,117.5C145.5,117.5,145.5,117.5,145.5,117.5c-0.1-0.5-0.1-1.1-0.2-1.6c-0.1,0-0.3,0.1-0.4,0.1
		C145.1,116.5,145.3,117,145.5,117.5z"/>
	<path d="M113.1,155.6c0.2,0,0.4,0,0.6-0.1c0,0,0-0.1,0-0.1c-0.2,0-0.4,0-0.5,0C113.2,155.5,113.2,155.5,113.1,155.6z"/>
	<path d="M117.3,155.1c0.2,0,0.4,0,0.6-0.1c0,0,0,0,0-0.1C117.7,155,117.5,155,117.3,155.1C117.3,155.1,117.3,155.1,117.3,155.1z"/>
	<path d="M144.6,109.6c-0.1,0-0.1,0.1-0.2,0.1c0,0,0,0.1,0.1,0.1C144.6,109.8,144.6,109.7,144.6,109.6
		C144.7,109.7,144.6,109.6,144.6,109.6z"/>
	<path d="M140.3,96.8c-0.1-0.1-0.2-0.2-0.3-0.3c0,0,0,0.1-0.1,0.1C140,96.7,140.2,96.7,140.3,96.8C140.3,96.8,140.3,96.8,140.3,96.8
		z"/>
	<path d="M40,141.6c0.3-0.5,0.5-0.9,0.8-1.4c-0.1,0-0.2-0.1-0.3-0.1C40.4,140.6,40.2,141.1,40,141.6L40,141.6z"/>
	<path d="M64.6,123.3c0.2,0.2,0.3,0.4,0.5,0.6c0.1,0,0.1-0.1,0.2-0.1c-0.2-0.2-0.3-0.3-0.5-0.5C64.8,123.2,64.7,123.2,64.6,123.3z"
		/>
	<path d="M128.1,156.4c1.3-0.1,2.4-0.1,3.5-0.2c0-0.1,0-0.1,0-0.2C130.5,156.2,129.4,156.3,128.1,156.4z"/>
	<path d="M134.9,155.6c-0.3,0-0.7,0.1-1,0.1c0,0,0,0.1,0,0.1C134.3,155.8,134.6,155.7,134.9,155.6
		C134.9,155.7,134.9,155.7,134.9,155.6z"/>
	<path d="M125.5,156.3c-0.1,0-0.2,0-0.4,0c0,0,0,0,0,0.1C125.3,156.4,125.4,156.4,125.5,156.3C125.5,156.4,125.5,156.3,125.5,156.3z
		"/>
	<path d="M148,150.2c-0.1,0-0.2,0-0.4,0c0,0,0,0.1,0,0.1c0.1,0,0.3,0,0.4,0C148,150.3,148,150.3,148,150.2z"/>
	<path d="M155,147.8c0,0.1-0.1,0.1-0.1,0.2c0,0,0.1,0,0.1,0c0,0,0.1-0.1,0.1-0.2C155.1,147.8,155,147.8,155,147.8z"/>
	<path d="M112.5,136.1c0.1,0.1,0.2,0.1,0.3,0.2c0,0,0,0,0.1-0.1C112.8,136.2,112.7,136.1,112.5,136.1
		C112.5,136.1,112.5,136.1,112.5,136.1z"/>
	<path d="M90.6,136.9c-0.1,0.1-0.2,0.1-0.4,0.2c0,0,0,0.1,0.1,0.1c0.1-0.1,0.2-0.1,0.4-0.2C90.7,137,90.6,136.9,90.6,136.9z"/>
	<path d="M98.2,133.7c0.1,0,0.1-0.1,0.2-0.1c0,0,0-0.1,0-0.1C98.3,133.5,98.2,133.6,98.2,133.7C98.2,133.6,98.2,133.7,98.2,133.7z"
		/>
	<path d="M70.1,99.7c0.1-0.1,0.2-0.2,0.3-0.2c0,0,0-0.1,0-0.1c-0.1,0-0.2,0.1-0.4,0.1C70.1,99.6,70.1,99.7,70.1,99.7z"/>
	<path d="M66.4,103c-0.1,0.1-0.2,0.1-0.3,0.2c0,0,0,0.1,0.1,0.1C66.3,103.2,66.4,103.1,66.4,103C66.4,103,66.4,103,66.4,103z"/>
	<path d="M84.2,147.3C84.2,147.3,84.3,147.4,84.2,147.3c0.1,0,0.2,0,0.3-0.1c0,0-0.1-0.1-0.1-0.1C84.3,147.2,84.2,147.3,84.2,147.3z
		"/>
	<path d="M93.7,143.2c-0.1,0-0.2,0-0.3,0.1c0,0,0,0,0,0.1C93.5,143.3,93.6,143.3,93.7,143.2C93.7,143.2,93.7,143.2,93.7,143.2z"/>
	<path d="M64.1,166.7c0,0.1-0.1,0.3-0.1,0.4c0,0,0.1,0,0.1,0c0.1-0.1,0.1-0.3,0.2-0.4C64.2,166.7,64.2,166.7,64.1,166.7z"/>
	<path d="M64.3,161.7c0.2,0,0.5,0,0.7-0.1c0,0,0-0.1,0-0.1C64.7,161.6,64.5,161.6,64.3,161.7C64.2,161.7,64.2,161.7,64.3,161.7z"/>
	<path d="M70.4,154.2c0.2-0.1,0.4-0.2,0.7-0.2c0,0,0-0.1,0-0.1c-0.2,0.1-0.5,0.1-0.7,0.2C70.4,154.1,70.4,154.1,70.4,154.2z"/>
	<path d="M73.2,152.9c0,0,0.1,0,0.1,0c0,0,0.1-0.1,0.1-0.1c0,0-0.1,0-0.1,0C73.2,152.8,73.2,152.8,73.2,152.9z"/>
</g>
</svg>
