<?xml version="1.0" encoding="utf-8"?>
<!-- Generator: Adobe Illustrator 17.1.0, SVG Export Plug-In . SVG Version: 6.00 Build 0)  -->
<!DOCTYPE svg PUBLIC "-//W3C//DTD SVG 1.1//EN" "http://www.w3.org/Graphics/SVG/1.1/DTD/svg11.dtd">
<svg version="1.1" id="Layer_1" xmlns="http://www.w3.org/2000/svg" xmlns:xlink="http://www.w3.org/1999/xlink" x="0px" y="0px"
	 viewBox="0 0 288 216" enable-background="new 0 0 288 216" xml:space="preserve">
<g>
	<path d="M78.5,156.5c-1.4-0.3-2.8-0.5-4.2-0.8c-3.4-0.6-5.9-2.6-7.7-5.5c-1.7-2.7-3.2-5.6-4.5-8.5c-0.6-1.4-0.9-2.9-1.1-4.4
		c-0.3-2.2-0.5-4.5-0.5-6.8c0-2.7,0.5-5.3,1.5-7.9c0.3-0.7,0.6-1.4,1-2.1c0.5-0.9,1.4-1,2-0.2c0.3,0.4,0.6,0.9,0.7,1.4
		c1,3.4,2.8,6.2,5.5,8.5c1,0.9,2.4,1.5,3.6,2c4,1.5,7.4,3.7,9.5,7.5c0.6,1,0.9,2.2,1.3,3.4c0.6-0.3,1-0.5,1.4-0.7
		c-0.7-2.1-1.6-4-2-6c-0.9-4.4-0.5-8.8,1.6-12.9c0.9-1.9,2-3.8,3.2-5.6c1.7-2.5,4.4-3.8,6.9-5.3c2.3-1.4,4.8-1.9,7.4-1.7
		c0.5,0,1.1,0.3,1.6,0.5c-0.8,1.4-1.7,2.5-2.2,3.8c-1.6,3.6-2.4,7.4-1.3,11.3c0.4,1.4,1,2.7,1.3,4.1c0.7,2.9,0.3,5.7-1.4,8.3
		c-0.8,1.3-1.7,2.5-2.6,3.8c1.3,1,2.6,1.9,3.9,3c0.8,0.6,1.5,1.3,2.2,2c1.4,1.4,3.2,1.7,5,2.1c2.2,0.5,4.4,1.1,5.8,3
		c1.9,2.6,2.5,5.6,2,8.7c-0.4,2.7-1.1,5.3-1.7,8c-0.1,0.6-0.1,0.8,0.5,1.2c2.3,1.6,3.5,5.2,1.1,8.1c-1.1,1.3-2.2,2.6-3.3,3.8
		c-1.3,1.6-1.5,2.8-0.6,4.6c1.4,2.9,2.8,5.8,4.1,8.8c0.5,1.2,0.7,2.5,0.7,3.8c-0.1,1.7-1.7,3.6-4.1,4c-3.8,0.6-6.9-1.1-9.8-3.2
		c-0.3-0.2-0.7-0.4-1-0.6c-0.8,2.4-1.7,4.7-2.4,7.1c-0.4,1.3-2,2.5-3.4,2.7c-3.4,0.4-5.6-1.8-7.7-3.9c-1.6-1.5-1.5-1.5-3.4-0.6
		c-3.6,1.8-7.4,2.9-11.5,2.9c-4.1,0-8.3,0.2-12.4-0.5c-6.9-1.2-12.5-4.4-16.6-10.1c-0.8-1.1-1.6-1.6-2.9-1.3c-2,0.5-3.9,0.3-5.8-0.7
		c-1.3-0.7-2.3-1.7-2.5-3.2c-0.3-1.8-0.4-3.7-0.7-5.5c-0.8,0.4-1.7,0.9-2.7,1.3c-2.1,0.8-4.2,0.5-5.9-0.9c-2.9-2.4-3.3-6.1-1.1-8.9
		c2.5-3.2,5.9-5.3,9.8-6.5c2.1-0.6,4.3-0.6,6.4,0.1c0.7,0.2,1.4,0.9,1.8,1.6c0.8,1.4,0.8,3,0.5,4.7c-0.6,2.8-1,5.6-1.6,8.4
		c-0.2,0.9,0,1.6,0.7,2.5c0-0.5,0.1-0.8,0.1-1.1c-0.1-3.8,0.7-7.3,3-10.5c0.4-0.5,0.3-0.8,0-1.4c-0.5-0.9-1.2-1.9-1.4-2.9
		c-0.6-4.4,3.4-7.5,7.9-6.2c1.9,0.5,3.5,1.6,4.6,3.2c0.4,0.6,0.9,0.9,1.6,0.8c1.2-0.1,2.4-0.1,3.6-0.1c4.5-0.1,8.7,0.8,12.3,3.8
		c1.8,1.5,3.8,2.7,5.1,4.7c0.1,0.1,0.2,0.3,0.3,0.4c0.9,1.4,1,1.4,2.4,0.7c0.9-0.5,1.8-1.1,2.7-1.7c1.3-0.8,1.3-1.9,1-3.2
		c-0.5-2.5-1.8-4.6-3.2-6.7c-1-1.5-2-3-2.9-4.6c-1.3-2.1-1.6-4.4-1.4-6.7C78.5,157.2,78.5,156.9,78.5,156.5z M104.1,186.2
		c0.3-0.2,0.6-0.4,0.8-0.6c3.8-3.1,6.6-7,8.8-11.3c2.1-4.1,3.3-8.5,3.9-13c0.3-1.9,0.2-3.8-0.5-5.7c-1.2-3.2-3.9-4.4-7-4.7
		c-2.4-0.3-4.1-1.4-5.7-3c-1.2-1.2-2.6-2.3-4-3.2c-1.4-1-2.4-0.6-2.9,1c-0.1,0.2-0.2,0.3-0.4,0.6c-0.2-0.4-0.5-0.7-0.4-0.9
		c0.3-0.7,0.7-1.4,1.1-2.2c-0.8-0.2-1.8-0.4-2.7-0.6c-2.1-0.4-4.2,0-6.2,0.6c-1.3,0.4-2.8,0.7-2.8,2.7c0,0.2-0.2,0.4-0.3,0.5
		c-2,2.1-2.9,4.7-3.3,7.5c-0.3,1.8-0.3,1.8-2.2,2.1c-0.7,0.1-1,0.4-1,1.1c0,2.2,0.6,4.2,1.7,6.1c1.5,2.7,3.1,5.3,4.5,8
		c1.1,2.2,1.9,4.5,1.2,7.1c-0.1,0.3,0,0.7,0.2,0.9c2.5,2.6,5.2,4.9,8.9,5.8c0.3,0.1,0.7-0.1,1-0.2c-0.1-0.3-0.2-0.7-0.4-0.9
		c-2.2-1.7-3.4-4.1-4.4-6.6c-0.5-1.4-0.6-3-0.9-4.4c-0.6-0.2-1.2-0.4-1.9-0.7c0-0.1,0.1-0.2,0.1-0.3c1,0,2.1-0.1,3.1,0
		c1.7,0.2,3.3,0.7,4.6,1.8c0.6,0.5,0.9,1.2,1.4,1.7c0.8,0.7,1.6,1.3,2.4,2c1.5,1.4,2.4,3,2.7,5.1
		C103.7,183.7,103.9,184.8,104.1,186.2z M64.1,120.6c-0.1,0-0.3,0-0.4,0.1c-2.6,5.8-2.6,11.8-1,17.9c-0.3,0-0.5,0-0.7-0.1
		c0,0.2,0,0.4,0.1,0.5c1.3,5.1,4.3,9.2,7.5,13.2c0.8,1,2.3,1.6,3.6,2.2c2.4,1,4.9,0.7,7.4,0.6c0.9,0,1.1-0.3,1.1-1.2
		c0.1-3,1-5.7,3.4-7.7c0.6-0.5,0.4-1,0.2-1.6c-1-2.2-1.9-4.4-3.6-6.2c-1.6-1.7-3.1-3.4-5.5-4.1c-0.1,0.2-0.2,0.4-0.3,0.6
		c-1-0.6-1.8-1.3-2.8-1.8c-4-2.5-7-5.8-8.3-10.5C64.7,121.9,64.4,121.3,64.1,120.6z M93.6,196.8c-0.1,0-0.2-0.1-0.3-0.1
		c0.5-1.3,1-2.5,1.4-3.8c0.1-0.3,0.2-0.8,0-1.1c-0.6-1.1-1.2-2.3-2-3.3c-1-1.4-1.8-2.8-3.5-3.7c-2.2-1.1-3.4-0.8-4.1,1.5
		c-0.4,1.5-0.6,3.3-0.3,4.8c1.1,5.3,3.4,10,7,14.1c0.9,1,2,2,3.2,2.8c0.6,0.4,1.5,0.2,2.2,0.4c1,0.3,1.9,0.2,2.8-0.3
		c0.1,0,0.1-0.2,0.2-0.3c-0.3,0-0.6-0.1-0.8-0.1c0.6-0.8,1.2-1.6,1.7-2.4c1.3-2.3,1.9-4.9,2-7.5c0.1-5-0.1-10-0.2-14.9
		c-0.1-1.7-0.8-3.2-2.3-4.3c-1.8-1.4-3.5-3-5.3-4.4c-0.8-0.6-1.8-0.9-2.9-1.4c-0.5,2.1,0.4,3.4,1.4,4.8c-0.2,0-0.4,0-0.9,0.1
		c1.3,1.8,2.4,3.6,3.7,5.2c0.9,1.1,1.2,2.1,0.9,3.4c-0.2,0.9-0.3,1.9-0.4,2.8C96.6,191.9,95.7,194.6,93.6,196.8z M102.1,128.7
		c-0.2,0.5-0.4,0.8-0.6,1.1c-1.7-6.5-1.1-12.5,3-18.2c-4.9-0.1-8.7,1.6-11.6,5.4c-0.1-0.1-0.1-0.2-0.2-0.3c0.1-0.3,0.1-0.6,0.3-1.1
		c-3.7,3.7-5.8,7.9-6.5,12.8c-0.1-0.4-0.3-0.8-0.4-1.3c-1,5.1-0.2,10,2.1,14.6c0.2,0,0.3,0,0.4-0.1c3.3-1,6.5-0.9,9.7,0.3
		c0.2,0.1,0.8-0.1,0.9-0.3c0.5-0.6,1-1.3,1.4-2.1C102.6,136.3,103.5,132.8,102.1,128.7z M36.9,178.1c0.6,1,0.5,2.1,0.3,3.1
		c-0.4,2.6-0.9,5.1-1.1,7.7c-0.1,1.3,0.2,2.6,1.2,3.7c0,0,0,0.1,0,0.2c-0.2,0-0.4-0.1-0.6-0.1c0.9,2.4,5.3,2.9,8.4,2.4
		c-0.5-1.3-1-2.7-1.6-3.9c-0.3-0.6-0.8-1.1-1.2-1.6c-0.4-0.5-0.9-1.1-1-1.6c-0.1-1.3,0-2.6,0.2-3.8c0.4-3,0.9-5.9,1.3-8.9
		c0.2-1.3-0.5-2.4-1.8-2.9c0.1,0.3,0.2,0.6,0.3,1c-0.5-0.3-0.7-0.5-1-0.5c-1.3-0.3-2.6-0.8-3.9-0.7c-3.7,0.3-6.4,2.4-9,4.9
		c-1.7,1.7-3.1,3.4-2.3,6c0,0-0.1,0.1-0.1,0.2c-0.2-0.2-0.4-0.4-0.6-0.6c-0.1,1.5,0.5,2.2,2.1,3c0.5,0.2,0.9,0.5,1.6,0.9
		c-0.5,0.1-0.8,0.1-1.1,0.2c2.7,1.6,5.8,0.6,7.8-1.1c0.2-0.2,0.3-0.4,0.4-0.6C35.8,182.7,36.3,180.5,36.9,178.1z M64.4,206.5
		c0-0.1,0.1-0.3,0.1-0.4c-0.3-0.4-0.5-0.7-0.8-1.1c-1.8-2.1-3.1-4.4-3.4-7.1c-0.1-0.8,0-1.6,0-2.4c0-1.4-0.1-2.8,0.1-4.1
		c0.6-3.2,1.7-6.3,4.2-8.6c0.6-0.5,1.4-0.9,2-1.4c1.5-1.4,3-2.5,5-2.9c1.7-0.4,3.5-0.4,5.2-0.6c-1-1.1-2-2.5-3.8-2.6
		c-1.7-0.1-3.5-0.3-5.2-0.1c-4.6,0.4-8.3,2.7-11,6.2c-2.6,3.4-4.1,7.4-3.4,11.8c0.1,0.3,0.1,0.9,0,1c-0.6,0.4-0.3,0.9-0.2,1.4
		c0.6,1.8,1.2,3.5,1.9,5.3c0.7,1.9,2.3,3.3,3.9,4.3C60.6,206,62.6,206.1,64.4,206.5z M79.8,181.4c-0.6-1-0.9-2-2.4-1.9
		c-1.3,0-2.7-0.5-4-0.4c-4.6,0.4-7.4,3.7-9.8,6.9c-2.3,2.9-2.9,6.8-2.6,10.6c0.1,1,0,2.1,0.3,3c0.7,2.1,1.8,4,3.4,5.6
		c0.7,0.7,1.4,1.5,2.3,1.7c1.4,0.3,3,0.2,4.5,0.2c1.1,0,2.1-0.1,3-0.2c-1.1-1.8-2.6-3.4-3.3-5.3c-0.9-2.3-1.2-4.8-1.6-7.3
		c-0.4-2.7,0.3-5.2,1.9-7.3c1.1-1.5,2.4-2.7,3.6-4c-0.1,0-0.3-0.2-0.7-0.4C76.3,182.1,78,181.7,79.8,181.4z M110.5,196.9
		c-0.1,0-0.2,0.1-0.3,0.1c-0.6-1.7-1.4-3.3-1.8-5c-0.4-1.6-1.5-2.5-2.9-3.5c-0.4,1-1,1.9-1.1,2.8c-0.2,2.2-0.1,4.4,0,6.6
		c0,0.3,0.2,0.8,0.5,0.9c1.9,1.2,3.8,2.5,5.9,3.3c1.5,0.6,3.2,0.6,4.8,0.4c0.7-0.1,1.3-1,1.9-1.6c0.2-0.2,0.2-0.4,0.2-0.7
		c-0.1-0.1-0.2-0.1-0.2-0.2c1-0.6,1.2-1.5,0.8-2.5c-0.7-1.9-1.4-3.7-2.3-5.5c-0.9-2.1-2-4.1-2.9-6.1c-0.4-1-0.7-2.1,0-3.2
		c0.1,0.3,0.2,0.5,0.4,0.9c1.4-3.3,4.8-5.2,5.4-9.1c-0.3,0.3-0.5,0.4-0.7,0.6c-0.2-1.6-0.1-3.3-2-4.2c-0.4,1-0.8,1.8-1.1,2.7
		c-1.5,3.7-4,6.7-6.5,9.9c-0.2,0.2-0.3,0.6-0.3,0.9c0,3.1,0.5,6.2,1.3,9.2C110,194.7,110.2,195.8,110.5,196.9z M52.5,191.7
		c-0.5-5,1.7-9.2,5.2-12.6c3.4-3.4,7.8-5.2,12.8-5c-2.2-1.3-4.4-2.6-7-2.5c0,0.2,0,0.4,0,0.7c-2.5-0.5-4.7,0-6.9,1.1
		c-2.1,1.2-3.9,2.8-5.8,4.3c-2,1.6-1.9,4.3-3.7,5.8c-0.9,3.9-1.1,7.9,0.3,11.7c1.1,2.8,3.3,4.8,5.6,6.7c1,0.8,2.1,1.4,3.2,2.2
		c-0.5-1-1.1-1.9-1.7-2.8c-1.6-2.6-2.1-5.5-2.5-8.5C52,192.5,52.3,192.2,52.5,191.7z M79.8,182.6c-2-0.1-2.5,0.1-3.8,1
		c-2.8,2.1-4.8,4.7-5.6,8.1c-0.1,0.3-0.2,0.7-0.1,1c0.1,0.8,0.4,1.5,0.4,2.3c0.2,4.4,1.6,8.3,5.1,11.1c0.8,0.7,1.9,0.9,2.9,0.8
		c0.8-0.1,1.6-0.2,2.3-0.5c1.4-0.4,2.7-0.9,4.3-1.5c-4.5-2.6-6.8-6.4-7.6-11.1c-0.1-0.5,0.2-1.1,0.1-1.7c-0.5-2.7-0.2-5.2,1-7.6
		C79,184,79.4,183.4,79.8,182.6z M83.4,181.2c-0.8,0.4-1.8,0.5-2.3,1.1c-1.2,1.4-2.1,2.9-2.5,4.8c-0.4,2.4-0.3,4.7,0.1,7.1
		c0.1,0.5-0.3,1.1-0.1,1.4c0.8,1.8,1.7,3.5,2.7,5.1c1.1,1.7,2.6,2.9,4.5,3.5c1,0.3,1.7-0.3,2.3-0.8c0.7-0.5-0.1-1-0.3-1.4
		c-1-2.1-2.2-4.2-3.1-6.4c-1.1-2.7-1.5-5.6-0.8-8.6c0.1-0.6,0.4-1.2,0.3-1.8C84.1,184,83.7,182.7,83.4,181.2z M45.6,192.9
		c-0.4-6.2,0.2-10,2-11.7c1.4-4.3,5-6.4,8.7-8.5c-5.4,0.9-9.5,3.5-11.4,8.7C43.4,185.3,43.8,189.2,45.6,192.9z M96.4,186.1
		c-0.2-0.1-0.3-0.2-0.4-0.2c-3.7-0.7-6.7-2.5-9-5.6c-0.2-0.3-0.8-0.8-1-0.8c-0.6,0.3-1.4,0.7-1.5,1.3c-0.3,1.2-0.3,2.6,0.3,3.8
		c1.9-1.4,3.7-1.4,5.6-0.1c1.9,1.3,3.3,3.1,4.3,5.1c0.2,0.3,0.3,0.6,0.6,1.1c0.1-0.3,0.2-0.4,0.2-0.6
		C95.9,188.8,96.1,187.5,96.4,186.1z M57,170.8c-1.3-1-2.4-1.9-3.7-2.7c-1.1-0.7-2.3-1-3.6-0.5c-0.4,0.1-0.8,0.5-0.9,0.9
		c-0.4,1.3,0.7,3.8,1.9,4.5c0.2,0.1,0.5,0.1,0.7,0C53.2,172.2,54.9,171.6,57,170.8z M49.9,173.7c-0.6-1.2-2-1.7-1.9-3.2
		c0-0.7,0-1.4,0-2.2c-1.4,0.6-2,1.7-2,3.4c-0.3-0.5-0.4-0.7-0.7-1.1c-0.1,2.2,0.5,3.8,1.8,5.1C48.1,175,48.9,174.4,49.9,173.7z
		 M107.6,188.8c-0.1-1.3-0.1-2.4-0.2-3.9C105.7,188.1,105.5,187.6,107.6,188.8z M105.7,186.4c-1.8,0.6-1.9,0.8-1.2,2.2
		C104.9,187.9,105.3,187.3,105.7,186.4z"/>
	<path d="M98.8,148c1.5,1.8,2.2,4.3,4.5,5.6c0-0.3,0.1-0.5,0.1-0.6c0-1.4,0.3-1.6,1.5-1c0.3,0.1,0.7,0,1.1,0c0.3,0,0.7-0.1,1-0.2
		c0,0.1,0,0.2,0.1,0.2c-0.4,0.2-0.9,0.4-1.3,0.6c0,0.1,0,0.2-0.1,0.3c2.2,0,3.9,1.1,5.3,2.7c0.1-0.1,0.2-0.2,0.3-0.3
		c-0.2-0.3-0.3-0.7-0.5-1c0.8-0.8,2-0.8,2.4,0.2c-0.3,0-0.7,0-1,0c-0.2,1-0.4,2.1-0.7,3c-1.5,4.3-4.3,7.2-8.7,8.5
		c-1.2,0.3-2.4,0.4-3.6,0.3c-1,0-1.8,0.1-2.3,1c-0.1,0.2-0.2,0.3-0.4,0.6c-0.6-1.8,1.3-3.6,3.5-3.4c-0.5,0.3-1,0.6-1.5,0.9
		c2.1,1.3,8.3-1.4,10.4-4.7c-0.7,0.4-1.1,0.6-1.5,0.9c-1.2,0.7-2.3,0.3-2.9-1c-1-2-1.3-4.1-0.5-6.3C100.7,153.5,99.7,150.8,98.8,148
		z M104.2,157.1c-0.1,0-0.2,0.1-0.2,0.1c0.4,1.1,0.8,2.3,1.2,3.4c0.3,0.7,0.8,0.9,1.4,0.5c1.1-0.6,2.3-1,3.1-1.8
		c1.7-1.7,1.8-2.4,0-4c-0.2-0.2-0.4-0.4-0.6-0.5c-1-0.8-2.3-1.4-3.5-0.9c-1.3,0.5-1.4,1.9-1.4,3.1C104.2,157,104.2,157,104.2,157.1z
		"/>
	<path d="M94.4,162.5c0.5-1.6,1.9-1.8,3-2.3c0-0.8-0.1-1.6,0-2.2c0.1-0.3,0.6-0.9,0.8-0.8c0.4,0.1,0.8,0.5,0.9,0.9
		c0.2,0.8,0.1,1.6,0.2,2.5C97.8,161.1,95.8,160.9,94.4,162.5z"/>
	<path d="M110.7,163.1c0.2,0.6,0.5,1,0.5,1.4c0.2,3.1-1,5.7-2.4,8.4C109.4,169.7,110,166.5,110.7,163.1z"/>
	<path d="M89.4,156c-0.8-1.8-1.2-3.6-0.4-5.5c0.4-0.8,1.1-1.6,2.6-1.5c-2.2,1.3-1.7,3.2-1.7,5c0,0.6-0.1,1.3-0.1,1.9
		C89.7,156,89.5,156,89.4,156z"/>
</g>
<g>
	<path d="M248.9,161.5c-1.4-0.4-2.9-0.8-4.8-1.3c0.4,5.5-0.6,10.9,2.8,15.8c1,1.4,1.7,3.1,2.1,4.7c1.3,5.4,2.5,10.8,3.4,16.3
		c0.4,2.3,1.4,3.4,3.4,4.2c3,1.2,5.9,2.6,8.9,4.5c-3.6,0.3-7.2,0.7-10.8,1c-7.7,0.7-15.4,1.3-23.1,2c-4,0.4-7.7-0.1-11.4-1.8
		c-1.8-0.9-4.2-1.1-6.2-0.8c-10.1,1.7-20.1,3.7-30.2,5.7c-8.9,1.8-17-1.1-25-4.2c-0.3-0.1-0.6-0.3-0.8-0.6c-0.2-0.1-0.2-0.4-0.4-0.5
		c0.1-0.2,0.1-0.5,0.2-0.6c7.9-2.7,15.4-6.7,23.9-7.4c1.8-0.1,3.8-0.6,5.5-0.2c2.6,0.6,3.7-0.7,5-2.5c4.3-6,3.1-12.1,0.8-18.3
		c-3,0.5-4.9,2-5.2,5c-0.1,1-0.4,1.9-0.7,2.8c-0.9,2.5-1.2,4.6,2,5.7c0.5,0.2,1.1,1.5,1,2c-0.2,0.6-1.2,1.1-1.9,1.4
		c-0.6,0.2-1.3,0-1.9,0c-8.4-0.4-9.2-1.2-9.9-9.5c0-0.4-0.1-0.8-0.2-1.6c-1.6,1.6-3.1,2.9-4.5,4.4c-2.9,2.9-10.3,2.7-13.1-0.3
		c-1.6-1.8-1.9-4.2-0.7-6.3c0.4-0.6,0.8-1.3,1.4-2.3c-4.1-0.2-8.2,0.6-11-3c-2.4-3-4.2-6.3-4.6-11.1c1.4,1.6,2.2,2.9,3.3,3.6
		c2,1.3,4.2,3,6.4,3.4c3.5,0.6,6.4-2.1,6.8-5.7c0.4-3.5,0.3-7-1.6-10.1c-2.4-3.9-2.9-8.1-0.8-12.1c2.9-5.5,2.4-11,1.3-16.7
		c-0.4-2.1-0.1-4.4-0.1-6.6c0.3-0.1,0.5-0.1,0.8-0.2c1.8,2.4,3.5,4.8,5.4,7.3c2.7-2.5,5.2-5.1,8-7.3c2.7-2.2,5.6-4,8.4-6
		c0.2,0.2,0.4,0.3,0.7,0.5c-0.7,1.7-1.3,3.4-2.2,5.7c4.8-2,9.2-3.8,13.9-5.8c-0.1,1.2-0.2,2-0.3,3c4.5-1.2,8.7-2.4,12.9-3.5
		c0.2,0.3,0.4,0.5,0.5,0.8c-0.8,1.5-1.6,2.9-2.5,4.6c0.7,0.5,1.4,1.1,2.1,1.5c6.1,3.6,11.3,8.1,15.8,13.6c2.2,2.7,4.6,5.3,7.4,7.4
		c1.9,1.5,4.5,2,6.7,3.1c1.6,0.8,3.7,1.5,4.5,2.8c3.1,5,7.4,8.8,11.9,12.5c1,0.8,1.9,1.6,2.9,2.4c-0.1,0.3-0.3,0.6-0.4,0.9
		C252.6,162.7,250.7,162.1,248.9,161.5c0.6-0.1,1.2-0.2,2-0.3c-2.4-2.1-4.7-4.1-7-6.1c-0.5,2.3,0.4,3.9,2.5,4.9
		C247.3,160.5,248.1,161,248.9,161.5z M174.9,167.4c1.7,1.3,3.5,2.6,5,3.8c2-2,3.6-3.8,5.3-5.5c0.3,0.2,0.6,0.4,0.9,0.6
		c-3.4,2.9-5.6,6.3-3.9,10.9c2.6-1.2,4.3-3.6,5.4-6.3c1.1-2.6,2.8-4.6,5.1-6.1c4.7-3,6.7-7.5,6.9-13c0-1.6,0-3.3,0-4.9
		c0.4,0,0.8,0,1.1,0c0.1,3.6,0.4,7.3,0.4,10.9c-0.1,3.3-1.8,5.8-4.5,8c-3.4,2.8-6.3,6.1-9.4,9.2c0.2,0.2,0.3,0.3,0.5,0.5
		c2.8-1.2,5.6-2.4,8.5-3.5c0,0.9-0.3,1.4-0.7,1.6c-2,1.1-2.1,2.8-1.4,4.7c0.3,0.7,0.3,1.5,0.6,2.2c2.6,7.4,0.6,13.7-4.3,19.4
		c-0.6,0.7-1.1,1.6-2.1,3c2.1-0.7,3.4-1.2,4.6-1.6c0.4,1.1,0.7,2,1,3c2.1-0.4,3.4-1.5,3.5-3.5c0.1-3.8,2.1-6.8,3.7-10
		c3.6-7.1,7-14.3,10.4-21.4c1.3-2.7,1-5.5-0.1-8.2c-0.6-1.6-1.3-3.1-2-4.7c2.5,2.8,5.2,5.6,5.2,9.7c0,1.8,0.9,2.9,2.4,2.9
		c0.8,0,1.9-1.1,2.5-2c0.9-1.2,1.3-2.8,2.1-4c0.7-1.1,1.8-1.9,2.7-2.8c0.7,1.8,0.8,3.2,0.9,4.5c0.5,4.4,1.4,8.8,5.9,10.9
		c2.6,1.2,5.6,1.6,8.3,2.4c0.9,0.3,2.3,0.6,2.6,1.3c2.9,6.2,5,12.5,2.3,19.7c1.9-1.6,3.9-1.8,6-0.3c0-1.2,0.1-2.1,0-2.9
		c-1.1-5.1-2.2-10.2-3.4-15.3c-0.3-1.1-0.8-2.3-1.5-3.2c-1.9-2.3-2.7-5-2.8-7.9c-0.2-3.5-0.6-7-0.6-10.4c0-3.9-1.6-7.2-3.5-10.4
		c-0.6-1-2.2-1.5-3.4-2.1c-2.6-1.3-5.6-2.1-7.9-3.8c-2.7-2-5-4.5-7.1-7.1c-4.7-5.7-10.2-10.4-16.7-14c-0.8-0.5-1.6-1-2.5-1.6
		c1-1.5,1.9-2.7,3-4.3c-5.6,0.6-9.9,3.7-14.8,5.9c0.3-1.6,0.6-2.6,0.9-4c-4.9,2-9.5,3.9-14.6,6.1c0.8-2.1,1.4-3.5,2.1-5.3
		c-8.9,5.4-14.5,12.7-17.5,22c-3,9.1-2.9,7,2.9,13.3c0.3,0.3,0.6,0.7,0.9,0.9c1.5,1.1,1.5,2.4,1.1,4.1c-0.7,3-1.5,5.9-1.9,8.9
		c-0.4,3.4-0.5,6.8-0.7,10.6c3.5,0.7,7.3,2.3,7.3,7.9c1-0.7,1.5-1.1,2-1.5c5.1-4.2,5-4.2,2.1-10.2c-2-4.1-2.2-8.4-1.6-13.1
		C173.1,163.4,174,165.4,174.9,167.4c-0.8-0.6-1.5-1.3-2.6-2.2c0.3,5.3,3,9.2,5.5,13.2c3.7-1.7,3.9-3.9,1.1-6.3
		C177.4,170.8,176.2,169,174.9,167.4z M199.6,198.2c5.8-0.8,11.1-1.2,16.3-2.2c3.3-0.6,6.7-7.7,5.3-10.7c-1.4-3.1-3-6-4.6-8.9
		c-1.4,0.2-2.6,0.6-3.8,0.4c-2.5-0.4-3.3,0.9-4.3,2.9c-2.1,4.5-4.5,8.9-6.7,13.4C201.3,194.5,200.6,196.1,199.6,198.2z M244.3,195.9
		c2-5.8-0.6-10.5-3.1-15.2c-0.3-0.5-1-0.8-1.6-0.9c-3.1-0.8-6.2-1.4-9.6-2.2c0.3,0.8,0.5,2,1.2,2.7c1.8,1.7,1.1,3.2,0.1,4.8
		c-2.5,3.9-4.9,7.9-7.5,12.1c6.1-0.4,12.1-0.8,18-1.1C242.7,196.1,243.5,196,244.3,195.9z M224.1,180.9c-0.8,4.5-1.6,9-2.4,13.9
		c0.6-0.3,1.7-0.4,2-1c1.6-3,3.1-6,4.4-9.1c0.7-1.7,0.2-3-1.7-3.4C225.6,181.1,224.7,181,224.1,180.9z M168.7,186.8
		c-1.4-5.1-4.1-5.4-8.9-4.7c-1.7,0.2-2.1,1.3-1.6,2.8C159.3,188.4,164.7,189.4,168.7,186.8z M181,179.6c-2.7-0.4-3.7,0.5-3.5,2.7
		c0.1,1,0.1,2,0.1,2.9c0.3,6.7,1.2,7.5,8,7.6c0.1,0,0.3-0.1,0.5-0.2c-0.7-0.2-1.3-0.4-2-0.5c-4.7-1.2-5-1.5-4.1-6.2
		C180.5,183.9,180.7,181.8,181,179.6z M147.3,172.6c2.1,4.6,4.8,3.9,8.6,3.7c2-0.1,2.1-1.7,2.1-2.7
		C154.3,173.2,150.8,172.9,147.3,172.6z M163.6,130.2c-1.2-2-2.4-4.1-3.7-6.1c-0.3,0.1-0.6,0.3-0.9,0.4c0.7,2.7,1.5,5.4,2.4,8.6
		C162.5,131.7,163,131,163.6,130.2z"/>
	<path d="M221.2,150.3c-0.6-1.5-0.8-2.3-1.3-3c-0.9-1.2-2.3-2.1-3-3.4c-3.7-6.4-9.3-9.9-16.4-11.2c-0.3-0.1-0.6-0.2-1-0.3
		c7.5-1.8,12.7,0.3,16.6,6.7c0.9,1.5,1.6,3.1,2.6,4.5c0.9,1.2,1.9,2.4,3.1,3.2c1.9,1.3,3.9,2.3,5.9,3.5c-0.1,0.2-0.1,0.5-0.2,0.7
		C225.3,150.8,223,150.5,221.2,150.3z"/>
	<path d="M197.4,125.2c-1.8,6.6-5.7,11.5-8.4,10.7c1.8-2.6,3.6-5.2,5.4-7.8c-0.2-0.2-0.4-0.3-0.6-0.5c-3.7,1-5.6,4.7-9,6.5
		C186,128.9,192,124.7,197.4,125.2z"/>
	<path d="M176.2,153c0.9-1,1.8-2,3-3.3c1.4,2.2,2.5,4.1,1.3,5.6c-1.7,2-4.3,1.2-7.5,1C174.4,154.9,175.3,153.9,176.2,153
		c0,0.6,0,1.2,0,2.7c1.1-1.4,1.8-2.2,2.4-3c-0.1-0.1-0.3-0.2-0.4-0.4C177.6,152.5,176.9,152.8,176.2,153z"/>
	<path d="M171.6,130.7c0.4-1.1,0.9-2.1,1.4-3.6c0.6,0.9,0.9,1.4,1.3,2.1c2.3-1.2,4.7-2.4,7.4-3.8
		C179.9,128.9,174.7,131.4,171.6,130.7L171.6,130.7z"/>
	<path d="M171.6,130.8c0,0.2-0.1,0.3-0.1,0.5c-0.1-0.1-0.2-0.1-0.3-0.2C171.3,131,171.5,130.9,171.6,130.8L171.6,130.8z"/>
	<path d="M163.1,186.9c-0.2-1.3-0.3-2-0.4-2.9c0.7,0.1,1,0,1.2,0.1C165.5,185.2,164.3,185.7,163.1,186.9z"/>
	<path d="M159.5,185.8c-0.2-0.3-0.5-0.8-0.4-1c0.2-0.4,0.6-0.7,1-1c0.2,0.4,0.5,0.8,0.5,1.3c0.1,0.4-0.1,0.9-0.2,1.3
		C160.1,186.2,159.8,186,159.5,185.8z"/>
</g>
<g>
	<path d="M172.4,31.6c-1.1-0.4-2.3-0.8-3.5-1.1c-2.6-0.6-5.2-1.2-7.8-1.8c-6.4-1.5-12.7-3-19.1-4.5c-4.7-1.1-9.4-2.2-14.1-3.3
		c-0.6-0.1-1.2-0.4-1.8,0.1c-0.1,0.1-0.3,0.1-0.5,0.1c-1.2,0-2.3,0.1-3.5,0.1c-0.1,0-0.3,0.1-0.4,0.2c-1.8,1.2-3.6,2.3-5.3,3.5
		c-6.4,4.3-12.8,8.6-19.3,12.9c-0.7,0.5-1.4,1-2.2,1.5c0.4,0.2,0.8,0.3,1.1,0.4c-0.2,0.3-0.3,0.5-0.5,0.7c0.4,0.2,0.7,0.4,1.2,0.6
		c-0.9,0.5-0.9,1.3-1,2.1c0,0.2-0.3,0.5-0.5,0.7C95.3,43.9,95.1,44,95,44c1.5,0.5,2.9,0.8,4.2,1.3c0.2,0.1,0.3,0.5,0.3,0.7
		c0.2,3.5,0.4,7,0.6,10.5c0.5,8.6,0.9,17.2,1.4,25.8c0.1,0.9-0.2,1.5-0.9,2.1c-1,0.7-1.9,1.5-3,2.5c-0.9-14.4-1.7-28.5-2.6-42.8
		c-0.3,0.1-0.5,0.3-0.8,0.4c-0.2,0.1-0.4,0.2-0.5,0.2c-1-0.1-0.9-0.9-1-1.5c0,0.1,0,0.2,0,0.4c0.2,3,0.4,6.1,0.5,9.1
		c0.2,3.2,0.4,6.4,0.6,9.6c0.3,4,0.5,8,0.7,12.1c0.2,3.6,0.4,7.3,0.7,10.9c0.1,0.9,0.1,1.8,0.2,2.7c0.9,0,1.3,0.4,1.4,1.3
		c0,0.3,0.5,0.6,0.8,0.9c0.3,0.3,0.8,0.5,0.8,0.8c0,1.1,0.5,1.6,1.5,1.7c0.2,0,0.5,0.2,0.7,0.3c6.1,2.1,12.1,4.2,18.2,6.3
		c2.8,1,5.6,2,8.4,2.9c0.6-0.8,1.3-1.4,2.1-2c-0.7-0.2-1.3-0.5-2-0.7c1.7-1.7,3.4-3.4,5.1-5.2v4.3c0.5-0.2,1-0.3,1.5-0.4
		c-0.3-4.7,0.1-9.4,0-14.1c0.4,0.4,0.5,11,0.2,14.1c0.3-0.1,0.6-0.1,0.8-0.2c0-1.9,0-3.7,0-5.6c0-0.5,0.2-1,0.5-1.4
		c2.1-2.2,4.3-4.3,6.4-6.4c0.1-0.1,0.2-0.1,0.4-0.2c0,0.6,0,1.1,0,1.6c0,2.2,0,4.4-0.1,6.6c0,0.5-0.3,1.1-0.6,1.4
		c-1.2,1.3-2.4,2.5-3.6,3.8c0.3,0,0.6,0,0.9,0c1-1,1.9-2,2.9-3c0.1,0,0.2,0.1,0.3,0.1c-0.1,0.4-0.2,0.8-0.4,1.1
		c-0.6,0.6-1.2,1.3-1.8,1.9c0.5,0.1,0.9,0.1,1.4,0.2c0.3-0.3,0.5-0.5,0.8-0.8v1c1.5,0.4,2.9,0.9,4.1,1.6c0-2,0.1-4.1,0.1-6.1
		c0-0.7,0.2-1.3,0.8-1.8c0.8-0.8,1.6-1.6,2.5-2.5c0,0.4,0.1,0.7,0.1,1c0,0,0,0,0.1,0v-1.1c0,0,0,0,0,0v3.9l0,0v4.9c0,0-0.1,0-0.1,0
		c-0.1-0.2-0.2-0.4-0.3-0.8c0.1,1.6-0.6,2.5-1.5,3.4c0.7,0.5,1.4,1.1,1.9,1.7c0.6-0.6,1.1-1.2,1.7-1.8c3.3-3.6,6.6-7.2,9.8-10.9
		c2.9-3.2,5.7-6.5,8.6-9.7c0.2-0.2,0.2-0.5,0.3-0.7c0.4-4.3,0.7-8.7,1-13c0.2-2.7,0.2-5.4,0.4-8.1c0.2-3.7,0.5-7.4,0.7-11.1
		c0.1-2.3,0.2-4.5,0.3-6.8c0.1-2.8,0.2-5.5,0.2-8.3C172.9,32,172.7,31.6,172.4,31.6z M97.3,40.5c0-0.1,0-0.1,0-0.2
		c0.6-0.4,1.1-0.8,1.9-1.3c0,0.8,0.1,1.3,0.1,2.1C98.5,40.9,97.9,40.7,97.3,40.5z M163.1,34.8c0-0.7,0.1-1.5,0.2-2.2
		c0-0.2,0.4-0.5,0.5-0.5c1.3,0.3,2.6,0.6,4.2,1c-1.7,1.5-3.2,2.8-4.9,4.2C163.1,36.3,163.1,35.5,163.1,34.8z M160.3,33.7
		c-0.1,1.9-0.1,3.8-0.3,5.7c0,0.3-0.2,0.7-0.4,0.9c-2.1,1.9-4.2,3.7-6.4,5.5c-0.1,0-0.1,0.1-0.3,0.1c0-0.9,0-1.7,0-2.6
		c0-1.7,0.1-3.3,0.1-5c0-0.3,0.1-0.7,0.3-0.9c2.2-1.9,4.4-3.7,6.8-5.7C160.3,32.5,160.3,33.1,160.3,33.7z M158.7,73.4
		c-0.1,0.3,0.2,0.9-0.4,0.9c-0.7,0-1.2-0.4-1.2-1c0.1-3.7,0.3-7.4,0.4-11c0.1-3.6,0.3-7.2,0.4-10.7c0-1,0.1-2,0.1-3
		c0.1-1.3,0.4-1.9,1.7-2.5c0,1.4,0,2.8,0,4.2c-0.3,7.6-0.6,15.3-0.9,22.9C158.7,73.2,158.7,73.3,158.7,73.4z M140.3,47.6
		c0,0-0.1-0.1-0.1-0.1c0.4-0.8,18.8-16,19.6-16C153.3,36.8,146.8,42.2,140.3,47.6z M142.1,52.8c-0.1-0.2-0.4-0.5-0.4-0.7
		c0-1.4,0-2.8,0.1-4.2c0-0.3,0.3-0.6,0.4-0.9c0.1,0,0.1,0,0.2,0.1c0,0.1,0.1,0.2,0.1,0.3c0,1.6,0,3.2-0.1,4.8
		C142.4,52.3,142.2,52.5,142.1,52.8z M142.4,58c0,1.3,0,2.5,0,3.8c0,1.6-0.1,3.3-0.1,4.9c0,0.5-0.2,1.1-0.3,1.6c-0.1,0-0.2,0-0.3,0
		v-11C142.3,57.2,142.4,57.5,142.4,58z M135.3,77.2c1.4-1.3,2.7-2.6,4.1-3.9l0.3,0.3c-1.5,1.5-2.9,3-4.4,4.5c-0.1,0-0.2,0-0.2-0.1
		C135.2,77.8,135.2,77.4,135.3,77.2z M135.1,75.9c0-1.4,0-2.8,0-4.1c0-0.6,0.2-0.7,0.7-0.5c1.2,0.4,2.3,0.7,3.7,1.1
		c-1.5,1.4-2.9,2.7-4.3,4C135.2,76.2,135.1,76.1,135.1,75.9z M135.8,67.7c-0.5-0.1-0.7-0.4-0.7-1c0-3.5,0-7,0-10.4c0-1,0-1,1-0.8
		c1.4,0.4,2.9,0.8,4.3,1.2c0.3,0.1,0.6,0.5,0.6,0.7c0,3.7-0.1,7.5-0.1,11.2c0,0.1,0,0.2-0.1,0.4c-0.3-0.1-0.5-0.1-0.7-0.1
		C138.6,68.5,137.3,68.1,135.8,67.7z M136.8,51.4c1.5-1.2,2.8-2.3,4.3-3.5v4.7C139.6,52.1,138.3,51.8,136.8,51.4z M142.4,35.9
		c0.1,0.1,0.1,0.1,0.1,0.2c0,2.4,0,4.8,0,7.1c0,0.2-0.2,0.4-0.4,0.7C141.7,42.9,141.9,36.4,142.4,35.9z M153.4,31.7
		c0.1-2.5-0.1-2.2,2.1-1.7c0.8,0.2,1.7,0.4,2.5,0.6c0,0.1,0,0.2,0.1,0.2c-1.5,1.2-3,2.5-4.7,3.8C153.4,33.6,153.4,32.6,153.4,31.7z
		 M151.6,32.6c0.8,0.8,0.6,2.8-0.2,3.4C151.5,34.8,151.5,33.8,151.6,32.6z M150.6,34.7c0.1,1.7-0.5,2.9-1.9,3.9
		c-1.5,1-2.9,2.3-4.3,3.5c-0.2,0.1-0.4,0.3-0.7,0.5c0-0.8,0-1.5,0-2.1c0-1.7,0.1-3.5,0.1-5.2c0-0.3,0.1-0.8,0.3-0.9
		c2.1-1.7,4.2-3.4,6.5-5.1C150.6,31.2,150.5,33,150.6,34.7z M143.8,30.6c0-0.8,0-1.6,0-2.4c0-0.7,0.4-0.9,0.9-0.8
		c1.1,0.2,2.3,0.5,3.6,0.9c-1.6,1.2-3,2.3-4.6,3.6C143.8,31.3,143.8,31,143.8,30.6z M142.1,30.4c0.7,0.6,0.7,2,0,2.5V30.4z
		 M141.3,26.8c0,0.4,0.1,0.7,0.1,0.9c0,1.9,0,3.7-0.1,5.6c0,0.3-0.1,0.6-0.3,0.8c-2,1.6-4,3.1-6.1,4.7c-0.1,0-0.1,0-0.3,0.1
		c0-0.3-0.1-0.6-0.1-0.8c0-1.9,0-3.9,0-5.8c0-0.3,0.2-0.7,0.4-0.9c1.9-1.5,3.9-2.9,5.9-4.4C141,26.9,141.1,26.8,141.3,26.8z
		 M139.6,27.2c-3.6,2.7-7.1,5.3-10.7,8c-3.8,2.8-7.5,5.6-11.3,8.3c-0.3,0.2-0.6,0.4-1,0.5c0.8-1.4,22.7-17.5,23.7-17.6
		C140.1,26.8,139.9,27.1,139.6,27.2z M133,40.1c-0.4-1.3-0.2-6.9,0.2-7.3C133.7,33.7,133.5,39.7,133,40.1z M127.1,65.1
		c-0.4-0.1-0.6-0.3-0.6-0.8c0-3.6-0.1-7.3-0.1-10.9c0-0.2,0.1-0.3,0.1-0.6c1.8,0.5,3.5,1,5.2,1.5c0.2,0.1,0.4,0.4,0.4,0.6
		c0,3.8,0,7.6,0,11.4c0,0,0,0-0.1,0.2c-0.2,0-0.4,0-0.7-0.1C130,66,128.6,65.5,127.1,65.1z M130.8,69.8c-2,1.8-3.9,3.5-5.8,5.2
		c-0.1-0.2-0.2-0.4-0.2-0.5c0-1.8-0.1-3.6-0.1-5.4c0-0.7,0.3-1,1-0.8C127.4,68.7,129,69.2,130.8,69.8z M132.1,50.1
		c-1.9-0.5-3.8-1-5.6-1.6c0-0.1-0.1-0.2-0.1-0.2c1.8-1.5,3.7-2.9,5.7-4.5V50.1z M126.4,45.4c0-0.8,0-1.3,0-1.9c0-1.7,0-3.3-0.1-5
		c0-0.6,0.2-1,0.6-1.3c1.5-1.1,3-2.3,4.6-3.4c0.1-0.1,0.3-0.2,0.6-0.4c0,1.7,0,3.3,0,4.8c0,0.1,0,0.3,0,0.4c0.3,1.7-0.4,2.8-1.8,3.7
		C129,43.3,127.8,44.3,126.4,45.4z M113.8,41.8c0-1.3-0.1-2.5-0.1-3.8c0-0.3,0.1-0.7,0.3-0.9c1.2-0.9,2.4-1.8,3.8-2.7
		c0.1,1.1,0.1,2,0.1,2.9c0,1.2,0.1,2.3,0.1,3.5c0,0.3-0.1,0.6-0.2,0.8c-1.2,0.9-2.4,1.8-3.7,2.7c-0.1,0-0.2-0.1-0.3-0.1
		C113.8,43.4,113.8,42.6,113.8,41.8z M117.9,50.5c0.2,0.1,0.3,0.4,0.3,0.7c0.1,3.3,0.2,6.6,0.2,9.9c0.1,2.5,0.1,4.9,0.2,7.4
		c0,0.5-0.1,0.9-0.6,1.2c-1,0.8-2,1.7-3.2,2.7c-0.2-7.7-0.5-15.2-0.7-22.9C115.5,49.8,116.7,50.1,117.9,50.5z M116,45.5
		c0.6-0.5,1.2-0.9,2-1.5v2.2c-0.7-0.2-1.3-0.3-2-0.5C116,45.6,116,45.6,116,45.5z M119.3,33.7c0-0.2,0.1-0.6,0.2-0.7
		c1-0.8,2.1-1.5,3.1-2.2c0.1,0,0.2,0.1,0.3,0.1c0,2.1,0,4.3,0,6.4c0,0.2-0.1,0.4-0.2,0.5c-1,0.8-2,1.5-3.2,2.4
		c-0.1-0.5-0.1-0.7-0.1-1C119.4,37.4,119.4,35.6,119.3,33.7z M134.5,25.9c0-0.5,0.3-0.7,0.7-0.6c1.1,0.2,2.2,0.5,3.5,0.8
		c-1.5,1.1-2.7,2-4.2,3.1c0-0.6-0.1-1-0.1-1.3C134.5,27.2,134.5,26.5,134.5,25.9z M133,28.2c0.7,0.6,0.6,1.3,0,1.9V28.2z M132,24.5
		c0,0.2,0.1,0.5,0.1,0.7c0,1.7,0,3.5,0,5.2c0,0.3-0.1,0.6-0.3,0.8c-1.7,1.3-3.4,2.5-5.1,3.8c-0.1,0-0.1,0-0.4,0.1c0-2.1,0-4.2,0-6.2
		c0-0.2,0.1-0.5,0.3-0.7c1.7-1.2,3.4-2.4,5.1-3.6C131.7,24.5,131.8,24.5,132,24.5z M126.2,23c1.1,0.3,2,0.5,3.2,0.8
		c-1.1,0.8-2.1,1.5-3.2,2.2V23z M119.3,26.1c0-0.3,0.1-0.7,0.3-0.8c1-0.7,2-1.4,3.3-2.3c0,1.9,0,3.5,0,5.1c0,0.1-0.1,0.3-0.2,0.4
		c-1,0.7-2.1,1.5-3.2,2.3c-0.1-0.4-0.1-0.6-0.1-0.8C119.3,28.7,119.3,27.4,119.3,26.1z M113.6,29.3c1.2-0.9,2.5-1.7,3.8-2.6
		c0.1,0.4,0.2,0.7,0.2,1c0.1,1.2,0.1,2.4,0.1,3.7c0,0.3-0.1,0.6-0.2,0.8c-1.2,0.9-2.5,1.8-3.7,2.6c-0.1,0-0.2-0.1-0.2-0.1
		c0-0.3-0.1-0.5-0.1-0.8c0-1.4,0-2.7,0-4.1C113.4,29.5,113.5,29.3,113.6,29.3z M108,33c1.1-0.8,2.2-1.5,3.5-2.4
		c0.1,0.5,0.3,0.8,0.3,1.1c0.1,1.1,0.1,2.2,0.1,3.4c0,0.6-0.1,1-0.6,1.3c-1.1,0.7-2.2,1.5-3.5,2.4c0-2-0.1-3.7-0.1-5.4
		C107.7,33.3,107.8,33.1,108,33z M127.4,26.3c0.9-0.6,1.8-1.2,2.7-1.8c0.2-0.1,0.5-0.2,0.7-0.3c-0.5,1.1-24.2,17.6-25.2,17.7
		c0.6-0.5,1.1-1,1.6-1.4C113.9,35.7,120.7,31,127.4,26.3z M111.1,48.6c0.2,0.1,0.3,0.5,0.3,0.8c0.1,2.7,0.2,5.3,0.3,8
		c0.2,5.3,0.3,10.7,0.5,16c0,0.7-0.1,1.2-0.7,1.6c-0.7,0.5-1.4,1.2-2.2,1.8c-0.1-1-0.2-1.8-0.2-2.6c-0.1-1.9-0.1-3.9-0.2-5.8
		c-0.1-3.1-0.3-6.1-0.4-9.2c-0.1-2-0.1-4-0.2-6c-0.1-1.8-0.1-3.6-0.2-5.6C109.2,48,110.2,48.3,111.1,48.6z M108,43.1
		c-0.2-1.2,0-2.1,1.2-2.7c0.9-0.5,1.7-1.2,2.6-1.7c0.1,0,0.2,0.1,0.2,0.1v5.9c-1.2-0.3-2.5-0.7-3.8-1C108.1,43.5,108,43.2,108,43.1z
		 M101.4,38c0-0.2,0.1-0.5,0.3-0.6c1.2-0.9,2.5-1.7,3.9-2.7c0.1,1.9,0.1,3.7,0.2,5.4c0,0.1,0,0.2,0,0.2c-0.8,0.6-1.5,1.3-2.4,1.7
		c-0.4,0.2-1,0-1.5-0.2c-0.2,0-0.4-0.3-0.4-0.5C101.4,40.2,101.4,39.1,101.4,38z M99.8,90c1.3-1.1,2.4-2.1,3.7-3.2
		c0.1,1.6,0.1,2.9,0.2,4.5C102.4,90.8,101.2,90.5,99.8,90z M105.3,90.5c-0.1,0-0.2,0-0.3,0c-0.1-0.8-0.3-1.6-0.4-2.4
		c-0.2-2.7-0.3-5.4-0.5-8.1c-0.4-6.5-0.8-12.9-1.2-19.4c-0.2-3.9-0.3-7.7-0.5-11.6c0-0.5,0.1-1,0.2-1.5c0-0.2,0.2-0.3,0.4-0.4
		c0.1,0.2,0.4,0.3,0.4,0.5c0.1,0.8,0.3,1.6,0.3,2.4c0.2,3.1,0.4,6.2,0.5,9.3c0.3,7.5,0.6,15,0.8,22.5c0.1,2.6,0.1,5.2,0.2,7.8
		C105.4,90,105.3,90.2,105.3,90.5z M105.3,76c-0.2-4.8-0.5-9.7-0.7-14.5c-0.2-4.4-0.4-8.8-0.5-13.2c0-0.1,0-0.3,0-0.4
		c0-0.4,0.1-0.8,0.1-1.2c0.6,0.1,1.1,0.2,1.7,0.4c0.1,0,0.2,0.4,0.2,0.6c0.2,4.9,0.4,9.9,0.6,14.8c0.2,5,0.4,10,0.7,15
		c0,1-0.6,1.8-1.9,2.4C105.5,78.6,105.4,77.3,105.3,76z M106.1,91.6c-0.1-2.2-0.2-4.3-0.3-6.3c0-0.2,0.1-0.6,0.3-0.7
		c2-1.8,4.1-3.5,6.1-5.3c0,0,0.1,0,0.2,0c0,0.2,0.1,0.4,0.1,0.6c0.1,1.8,0.1,3.6,0.2,5.4c0,0.3-0.1,0.7-0.3,0.9
		c-1.9,1.8-3.9,3.5-5.9,5.3C106.4,91.5,106.3,91.5,106.1,91.6z M112.6,86.9c0.1,1.1-3.2,4-4.1,3.7C109.8,89.3,111.1,88.2,112.6,86.9
		z M112.9,94.4c-1.5-0.5-3-1-4.7-1.6c1.6-1.4,3-2.7,4.4-4c0.1,0,0.2,0.1,0.3,0.1V94.4z M114.8,92.8c0,0.2-0.1,0.5-0.2,0.7
		c-0.1,0-0.2,0-0.3,0c-0.1-0.9-0.3-1.7-0.4-2.6c-0.1-3-0.2-6-0.3-9c-0.2-4.9-0.5-9.8-0.7-14.6c-0.1-1.6-0.1-3.2-0.1-4.8
		c0-3.2,0-6.4,0-9.7c0-0.3,0.1-0.6,0.1-0.9c0.1,0,0.2,0,0.3,0c0.1,0.3,0.2,0.6,0.2,0.9c0.2,2.7,0.3,5.4,0.4,8.1
		c0.2,6.1,0.3,12.2,0.5,18.3c0.1,3.8,0.3,7.6,0.4,11.4C114.9,91.4,114.8,92.1,114.8,92.8z M115,77.5c0-0.3,0.1-0.6,0.3-0.8
		c2.2-1.9,4.3-3.7,6.5-5.6c0,0,0.1,0,0.3-0.1c0,1.7,0,3.3,0.2,4.9c0.1,1-0.2,1.7-1,2.4c-1.9,1.6-3.7,3.3-5.5,4.9
		c-0.1,0.1-0.3,0.2-0.5,0.4c0-0.4-0.1-0.6-0.1-0.9C115,81,115,79.3,115,77.5z M119.8,51c0.6,0.1,1.1,0.2,1.5,0.4
		c0.2,0.1,0.5,0.5,0.5,0.8c0.1,2.9,0.1,5.9,0.2,8.8c0,1.4,0,2.9,0.1,4.3c0,0.7-0.1,1.2-0.7,1.5c-0.3,0.2-0.7,0.5-1.1,0.9
		C120,62.1,119.9,56.7,119.8,51z M115.5,84.3c2.1-2,4.3-3.9,6.5-5.9c0,0,0.1,0,0.4,0c-0.2,0.4-0.2,0.9-0.5,1.1
		c-2.1,1.9-4.2,3.7-6.3,5.6c-0.1,0-0.1,0.1-0.4,0.2C115.3,84.8,115.3,84.4,115.5,84.3z M115.5,94.7c-0.1-2.1,0-4.1-0.2-6.1
		c-0.2-1.5,0.3-2.5,1.5-3.5c1.8-1.5,3.6-3.1,5.5-4.9c0.1,0.8,0.1,1.4,0.1,2c0,1.8,0.1,3.6,0.1,5.4c0,0.3-0.1,0.7-0.4,0.9
		c-2,1.9-4.1,3.8-6.2,5.7C115.8,94.5,115.7,94.6,115.5,94.7z M122.3,89.4c0,0.9-3.6,4.3-4.6,4.3C119.2,92.3,120.7,90.9,122.3,89.4z
		 M122.5,97.7c-1.6-0.6-3.2-1.1-5-1.7c1.7-1.6,3.2-3,4.8-4.5c0.1,0,0.1,0.1,0.2,0.1V97.7z M123.1,47.6c-1.1-0.3-2.1-0.6-3.1-0.9
		c-0.2-0.1-0.3-0.3-0.3-0.5c0-1,0-2,0-3.1c0-0.2,0.1-0.4,0.2-0.5c1-0.8,2-1.5,3-2.3c0.1,0,0.2,0.1,0.2,0.1V47.6z M124.4,96l-0.4,0
		c-0.1-0.4-0.2-0.8-0.2-1.1c-0.1-1.2-0.1-2.4-0.1-3.6c-0.1-9.4-0.1-18.8-0.2-28.2c0-0.2,0-0.4,0-0.7c0.1,0,0.1,0,0.2,0
		c0.1,0.3,0.1,0.6,0.2,1c0.1,2.2,0.1,4.3,0.2,6.5c0.1,4.2,0.1,8.4,0.2,12.7c0.1,3.9,0.2,7.8,0.2,11.7
		C124.5,94.9,124.4,95.4,124.4,96z M125.1,75.7c1.8-1.6,3.6-3.2,5.5-4.8c0.1-0.1,0.2-0.1,0.3-0.1c0,0.6-4.9,5.5-6.1,5.9
		C124.8,76.3,124.8,75.9,125.1,75.7z M124.9,84.3c0-1.9-0.1-3.8-0.1-5.8c0-0.3,0.1-0.7,0.3-1c2.2-2,4.5-4.1,6.7-6.1
		c0.1-0.1,0.2-0.1,0.5-0.2c0,1,0,1.9,0,2.8c0,1.4,0,2.9,0,4.3c0,0.4-0.1,0.8-0.4,1.1c-2.2,2.1-4.4,4.1-6.6,6.2
		c-0.1,0.1-0.2,0.1-0.4,0.3C124.9,85.3,124.9,84.8,124.9,84.3z M125.3,97.5l-0.3,0c0-1.9,0-3.8,0-5.6c0-0.2,0-0.4,0-0.5
		c-0.4-1.7,0.4-2.9,1.7-4c1.6-1.4,3.1-2.9,4.7-4.4c0.2-0.2,0.5-0.4,0.9-0.8c0,0.4,0.1,0.7,0.1,1c0,2.3,0,4.7,0,7
		c0,0.3-0.1,0.7-0.3,0.9c-2.2,2.2-4.3,4.3-6.5,6.4C125.5,97.4,125.4,97.5,125.3,97.5z M131.9,93.1c-1.3,1.3-2.6,2.6-4,3.8
		c-0.2,0.2-0.5,0.2-0.9,0.2c1.4-2,3.3-3.5,5-5.2c0.1,0.1,0.2,0.1,0.3,0.2C132.3,92.4,132.2,92.8,131.9,93.1z M132.1,81.1
		c-2.2,2.1-4.5,4.1-6.8,6.1c0,0-0.1,0-0.4,0.1c0.1-0.3,0.2-0.6,0.3-0.7c2.2-2.1,4.4-4.2,6.7-6.3c0.1-0.1,0.2-0.1,0.5-0.2
		C132.3,80.5,132.3,80.9,132.1,81.1z M133.4,50.2c0,0.1-0.3,0.1-0.4,0.1c-0.1-0.1-0.3-0.4-0.3-0.5c0-2,0.1-4.1,0.1-6.1
		c0-0.2,0.2-0.4,0.3-0.6c0.1,0,0.1,0,0.2,0.1c0,0.1,0.1,0.3,0.1,0.4c0,2.1,0.1,4.1,0.1,6.2C133.6,49.9,133.5,50.1,133.4,50.2z
		 M128,46.1c-0.1-0.1-0.1-0.1-0.2-0.2c0.4-0.4,0.8-0.8,1.2-1.2c3.1-3.2,6.8-5.6,10.4-8.2c3.3-2.4,6.4-5,9.6-7.5
		c0.2-0.2,0.5-0.3,0.7-0.4c0.1,0.1,0.1,0.2,0.2,0.3C142.5,34.5,135.7,40.9,128,46.1z M134.5,50.1c0-1.1,0-2.1,0-3c0-1.5,0-3.1,0-4.6
		c0-0.3,0.2-0.8,0.4-1c1.9-1.5,3.8-3,5.7-4.5c0.1-0.1,0.3-0.1,0.5-0.3c0,1.8,0,3.4,0,5.1c0,0.4-0.1,0.8,0,1.2
		c0.2,1.3-0.3,2.1-1.3,2.8c-1.6,1.2-3.1,2.5-4.7,3.8C135,49.8,134.8,49.9,134.5,50.1z M135.1,86.6c0-2.2,0-4.4,0.1-6.6
		c0-0.3,0.2-0.7,0.4-0.9c1.9-1.9,3.9-3.7,5.9-5.6c0.2-0.2,0.5-0.3,0.7-0.2c0.2,0,0.4,0.3,0.4,0.5c0,2.2,0,4.5-0.1,6.7
		c0,0.2-0.2,0.4-0.3,0.6c-2.1,2.1-4.3,4.2-6.5,6.3c-0.1,0.1-0.2,0.2-0.5,0.4C135.1,87.3,135,87,135.1,86.6z M142.1,83.1
		c-2.2,2.2-4.4,4.3-6.5,6.4c-0.1,0.1-0.2,0.1-0.4,0c0.1-0.3,0.1-0.7,0.4-1c2.2-2.2,4.4-4.4,6.6-6.6c0,0,0.1-0.1,0.2-0.1
		c0.1,0,0.2,0.1,0.3,0.1C142.4,82.3,142.4,82.8,142.1,83.1z M149.6,87.9c-0.9,1-1.9,1.9-3.1,2.8c0-0.3,0-0.7,0.1-0.8
		c0.9-1.1,1.9-2.1,2.8-3.2c0.1,0,0.2,0.1,0.3,0.1C149.7,87.2,149.8,87.7,149.6,87.9z M150.2,84.9c-0.1,0-0.1,0-0.2,0v-4.5
		c-0.1,0-0.1,0-0.2,0c0,1.3,0,2.7,0,4c0,0.8-0.2,1.4-0.8,1.9c-0.9,0.8-1.7,1.5-2.6,2.3c0-0.2,0-0.5,0-0.8c0.1-2.5,0.1-5,0.2-7.4
		c0-0.2,0-0.5,0.1-0.7c1-1,2-2,2.9-3c0.1,0,0.2,0.1,0.3,0.1v2.1c0.1,0,0.1,0,0.2,0v-2.4c0,0,0,0,0,0V84.9z M148.3,75.1
		c-0.6,0.5-1,0.9-1.5,1.3v-1.8C147.4,74.8,147.8,74.9,148.3,75.1z M147,69.1c0.1-3.7,0.1-7.5,0.2-11.2c0-0.7,0.2-1.1,0.7-1.5
		c0.7-0.5,1.3-1.2,2.1-1.8c0,1.5,0,2.7,0,4c-0.1,4.1-0.2,8.2-0.3,12.3c0,0.8-0.1,0.9-0.9,0.7C146.6,70.8,146.9,71.4,147,69.1z
		 M148.6,76.4c-0.5,0.6-1,1.2-1.6,1.9c-0.3-0.9,0.1-1.5,1.3-2.1C148.4,76.2,148.5,76.3,148.6,76.4z M150.3,44.1c0,1.2,0,2.5-0.1,3.7
		c0,0.4-0.2,0.9-0.5,1.2c-1.6,1.4-3.2,2.8-4.8,4.2c-0.2,0.2-0.7,0.2-1,0.1c-0.2,0-0.3-0.5-0.3-0.7c0-2.1,0.1-4.1,0.1-6.2
		c0-0.3,0.1-0.6,0.3-0.8c2.1-1.8,4.3-3.6,6.5-5.4C150.3,41.6,150.3,42.8,150.3,44.1z M150.6,66c0,0-0.1,0-0.1,0
		c0.1-3.9,0.2-7.8,0.3-11.7c0,0,0.1,0,0.1,0C150.9,58.2,150.7,62.1,150.6,66z M151.1,46.1c0.1-2,0.1-3.9,0.2-5.9
		c0-0.5,0.1-1,0.7-1.2c0,0.4,0,0.7,0,0.9c0,2-0.1,4.1-0.2,6.1c0,0.5-0.3,0.9-0.5,1.4c-0.1,0-0.2-0.1-0.3-0.1
		C151.1,47,151.1,46.6,151.1,46.1z M154.8,91.4c0,1.3-0.3,2.5-1.4,3.5c-0.7,0.6-1.3,1.4-2.1,2.2c-0.1-0.4-0.1-0.6-0.1-0.8
		c0.1-2.8,0.1-5.5,0.2-8.3c0-0.3,0.1-0.6,0.2-0.8c1-1,2.1-2,3.2-3c0,0.8,0.1,1.5,0.1,2.3C155,88.2,154.9,89.8,154.8,91.4z
		 M154.7,82.6c-0.9,1.1-1.9,2.1-2.9,3.1c-0.1,0-0.2-0.1-0.3-0.1c0.1-0.4,0-0.9,0.2-1.1c1.1-1.1,2.2-2.1,3.3-3.1c0.1,0,0.1,0,0.2,0
		C155.1,81.8,155,82.3,154.7,82.6z M155.1,79.9c0,0.1-0.1,0.3-0.2,0.4c-1.1,1-2.2,2.1-3.1,3c0-2.1,0-4.4,0-6.6
		c0-0.5,0.2-0.6,0.7-0.4c0.7,0.2,1.5,0.4,2.2,0.6c0.5,0.1,0.8,0.5,0.7,1C155.3,78.6,155.2,79.3,155.1,79.9z M155.4,73.5
		c-1-0.3-2-0.6-2.9-0.9c-0.2-0.1-0.3-0.5-0.3-0.8c0-2.1,0.1-4.2,0.1-6.3c0.1-3.7,0.3-7.4,0.3-11.1c0-1.7,0.5-3,1.9-3.9
		c0.5-0.3,0.9-0.8,1.4-1.2c0.1,0,0.2,0.1,0.3,0.1C156,57.3,155.7,65.3,155.4,73.5z M159.3,88.4c-0.9,1-1.8,2-2.8,3.1
		c-0.1-0.4-0.1-0.5-0.1-0.6c0.1-2.6,0.2-5.3,0.2-7.9c0-0.7,0.3-1.2,0.8-1.7c0.8-0.8,1.5-1.6,2.4-2.5c0,0.3,0.1,0.5,0.1,0.6
		c-0.1,2.8-0.3,5.7-0.4,8.5C159.4,88.1,159.4,88.3,159.3,88.4z M160.1,87.7c-0.1,0-0.2,0-0.3,0l0.4-8.8l0.3,0
		C160.3,81.8,160.2,84.7,160.1,87.7z M161.2,48.5c-0.1,3.3-0.3,6.7-0.4,10c-0.2,4.5-0.4,8.9-0.6,13.4c0,0.3-0.1,0.6-0.2,0.9
		c-0.1,0-0.2,0-0.3,0c-0.1-0.6-0.2-1.2-0.1-1.8c0.1-4,0.2-7.9,0.4-11.9c0.2-4.5,0.5-9,0.8-13.5c0-0.3,0.2-0.6,0.3-0.8
		c0.1,0,0.1,0,0.2,0.1C161.2,46,161.2,47.3,161.2,48.5z M161,38.8c0.1-1.3,0.1-2.5,0.2-3.9C162,35.8,161.8,38.2,161,38.8z
		 M164.2,82.9c0,0.2-0.1,0.4-0.3,0.5c-0.8,0.9-1.6,1.7-2.4,2.6c-0.1,0-0.1,0-0.2-0.1c0.1-2.2,0.2-4.5,0.3-6.8
		c0.9,0.3,1.7,0.5,2.4,0.7c0.1,0.1,0.3,0.4,0.3,0.5C164.4,81.2,164.3,82,164.2,82.9z M162.3,75.5c-0.2-0.1-0.4-0.6-0.4-0.9
		c0.1-2.6,0.2-5.2,0.3-7.8c0.2-4.2,0.4-8.4,0.6-12.6c0.2-3.6,0.3-7.2,0.5-10.8c0-0.6,0.2-1.1,0.7-1.4c0.7-0.6,1.4-1.3,2.2-1.9
		c0.1,0,0.2,0,0.2,0.1c-0.6,12-1.2,23.9-1.8,36.1C163.7,75.9,162.9,75.8,162.3,75.5z M164.8,82.4c-0.1,0-0.1,0-0.2,0v-2.1
		c0.1,0,0.2,0,0.3,0C164.9,80.9,164.9,81.7,164.8,82.4z M164.9,76.1l1.8-36.6c0.1,0,0.2,0,0.3,0c-0.6,12.2-1.2,24.4-1.8,36.5
		L164.9,76.1z M167.9,80.1c-0.3,0.1-0.8-0.1-1.2-0.2c0.1-0.3,0.1-0.5,0.2-0.8c0-0.1,0.1-0.1,0.1-0.2c0-0.9,0.4-1.2,1.2-0.8
		c0.1,0,0.4-0.2,0.5-0.4c0.1-0.2,0.1-0.5,0.2-0.9C169.6,78,169,79.8,167.9,80.1z M170,41.2c-0.3,5.2-0.6,10.4-0.9,15.6
		c-0.4,6.6-0.7,13.1-1.1,19.7c0,0.3,0,0.8-0.5,0.7c-0.5-0.1-1.2,0-1.2-0.9c0.1-1.3,0.1-2.5,0.2-3.8c0.3-4.9,0.5-9.9,0.8-14.8
		c0.3-5.2,0.6-10.4,0.9-15.6c0.1-1,0.2-2,0.1-3c0-1.3,0.9-1.7,1.7-2.4c0.1,0,0.1,0.1,0.2,0.1C170.1,38.3,170,39.7,170,41.2z"/>
	<path d="M149.9,93.4c-0.1,1.1-0.1,2.1-0.2,3.2c0,0,0,0-0.1,0c0-1.5,0-3,0-4.5c0,0,0.1,0,0.1,0C149.8,92.5,149.8,92.9,149.9,93.4
		L149.9,93.4z"/>
</g>
<g>
	<path d="M197.7,62.3c3.8-6.3,4.5-14.4,1.7-20.3c-1.3-2.7-2.8-5-4.9-6.8c-0.3-0.3-0.6-1-0.5-1.6c0.3-7-2.2-11.7-6.6-15
		c-4.8-3.5-10.1-3.7-15.8-0.8c-0.9,0.5-1.2,0.1-1.6-0.6c-1.9-4-4.8-6.3-8.5-7.4c-4.3-1.2-8.6-0.2-12.7,3.1c-1.1,0.8-1.5,0.8-2.2-0.2
		c-5.5-8.3-16.6-9.7-24.9-2.2c-0.7,0.6-1.1,0.5-1.7,0c-6.4-6-13.9-7.5-22.4-3.8C92.3,9,88,13.1,85.1,19.3c-0.7,1.6-1.2,3.3-1.9,4.9
		c-0.2,0.5-0.8,1.1-1.2,1.1c-6.1,0.1-11.1,3.1-14.6,10.2c0,0.1-0.2,0.1-0.3,0.2l-1.2,3.9c0,1.6-0.3,3.3,0,4.8
		c0.5,2.8,1.4,5.5,2.1,8.5c-1.8,1.6-3.7,3.9-4.9,6.9c-2.6,6.8-1.6,12.5,1.8,17.2c1.6,2.3,3.7,3.7,6.2,4.4c1,0.3,1.5,0.8,1.8,2.1
		c1.9,7.4,5.8,12.7,11.5,15.9c5.1,2.8,10.5,3.5,16.3,2.4c0.4-0.1,1.1,0.4,1.3,0.9c3.1,9.3,9.2,13.7,17.3,14.6c0.4,0,0.8,0.1,1.2,0.1
		c-0.3-0.6-0.5-1.4-0.3-2.1c-0.1,0-0.3,0-0.4,0c-8-0.6-16.2-6.7-17.4-20.1c-0.5,0.1-1.1,0.3-1.6,0.4c0.1,1.4,0.2,2.6,0.3,3.8
		c-13.6,3.8-24.9-6.8-26.2-17.1c0.7-0.1,1.3-0.3,1.9-0.4c0.2-1.9,0.2-1.9-1.1-1.9c-3.8,0-7-1.5-9.5-4.8c-4.3-5.7-3.3-15.3,2.4-20.2
		c0.7-0.6,1.2-0.8,1.9-0.2c1.4,1.2,2.7,2.5,4.5,2.6c0.8-1.4,0.5-1.9-0.4-2.4c-2.4-1.1-4.3-3-5.5-5.7c-2.3-5.4-2-11.6,2.5-17
		c2.5-3,5.5-4.1,8.6-4.7c2.1-0.4,2.4-0.2,2.3,2.4c0,0.1,0.1,0.2,0.2,0.4c0.4-0.1,0.9-0.1,1.4-0.2c0.1-0.5,0.1-0.8,0.2-1.2
		c0.5-5.1,2.3-9.7,5.4-13.6c6.5-8.4,18.2-11,26-5.7c3,2,5.5,4.6,7.2,8.4c0.5-0.5,0.9-0.9,1.5-1.4c-0.7-1.4-1.4-2.6-2.1-4.1
		c0.6-0.5,1.1-1.1,1.7-1.5c7.9-5.5,16.6-4.1,21.7,3.5c0.5,0.8,0.5,1.4-0.1,2.3c-0.3,0.4-0.2,1.2-0.3,1.8c0.5-0.2,1.2-0.3,1.6-0.7
		c1.4-1.3,2.6-3.2,4.2-4.2c4.1-2.8,8.2-3.2,12-1.2c2.6,1.4,4.8,3.4,6.1,6.8c-1,1-1.9,1.9-2.8,2.8c0.5,1.1,0.9,1.6,2,0.6
		c5.5-5.6,11.3-6.4,16.9-3.5c4.3,2.2,7.1,6.3,7.3,12.6c0.1,1.6-0.4,3.3-0.4,5c0,0.7,0.4,1.2,0.7,2.1c0.6-0.9,0.8-1.2,1.1-1.6
		c6.6,5,8.7,18.5-0.5,27.3c-1.1,1-1.2,1.7-0.4,2.8c0.4-0.4,0.8-0.7,1.2-1.1c0.4-0.3,0.8-0.7,1.2-1.1c0.2,0.3,0.3,0.4,0.3,0.6
		c0.1,0.8,0.2,1.6,0.3,2.4c0.7,7.3-1.4,13.8-6.1,19.3c-4.6,5.4-10,7.7-15.9,7.8c-1.1,0-1.5-0.1-1.1-1.8c0.4-1.9,0.4-3.9,0.6-5.9
		c-0.2-0.1-0.5-0.1-0.7-0.2c-0.4,0.7-1,1.5-1,2.2c-0.1,5.3-2,9.8-5.2,13.7c-1.7,2-3.4,4-6,4c-1.4,0-2.9,1.1-4.4,1.6
		c-1,0.3-2,0.8-3,1c0.1,0.7,0,1.5-0.1,2.3c0.3,0,0.6,0,0.8,0c1.6-0.1,3.4-1.4,5.1-2.1c0.6-0.2,1.2-0.4,1.7-0.4
		c1.5,0.2,2.9-0.6,4.1-1.8c2.8-2.7,5.4-5.6,6.8-9.7c0.1-0.4,0.9-0.7,1.3-0.7c3.9,0.1,7.7-0.8,11.4-3c6.2-3.6,10.6-9.3,12.7-17.2
		c1.2-4.4,1.1-8.8,0.3-13.1C197.1,63.9,197.3,62.9,197.7,62.3z"/>
</g>
<path d="M152.3,103.9c-4.3-7.8-16.2-9.1-25.1-4.7c-6.2,3.1-11.4,14.7-8.2,20.7c1.1,2,4.7,3.3,7.8,4.2c-0.1-0.5-0.1-1.1,0-1.6
	c-5.9-1.8-8.2-6.9-5.1-12.6c4-7.5,10.7-11.8,19.4-11c3.3,0.3,7.4,3.8,9,6.8c1.9,3.7,2.9,8.8,1.8,12.6c-0.7,2.3-6.1,3.4-9.6,4.7
	c-0.3,0.1-0.6,0.2-1,0.2c0.2,0.4,0.3,0.8,0.3,1.3c2.9-0.3,5.8-0.7,8.6-1.1c1.2-0.2,3.2-1.2,3.2-1.8
	C153.4,115.7,155,108.8,152.3,103.9z"/>
<path d="M126.4,133.4c-1.5-1.4-1.6-4.4-1.4-6.7c0.2-3.2,1.3-6.7,5.4-7.5c6.2-1.3,9.8,0.1,11.7,4.5c0.6,1.5,0.6,3.2,0.6,4.8
	c0.1,7.3,0,7.3-8.3,8.2C131.7,135.7,128.3,135.2,126.4,133.4z M141.4,129.7c-0.3-4.7-3.3-9.4-6.7-9.4c-4.1,0-8.6,4.3-8.6,8.3
	c0,3.3,3.8,5.9,9.1,5.9C138.5,134.8,141.7,134.6,141.4,129.7z"/>
<path d="M126.8,147c-0.9-0.9-1-2.7-0.9-4.1c0.2-2,0.8-4.1,3.4-4.7c3.9-0.8,6.1,0.1,7.3,2.8c0.4,0.9,0.4,2,0.4,3c0,4.5,0,4.5-5.1,5.1
	C130.1,148.4,128,148.1,126.8,147z M136.1,144.7c-0.2-2.9-2.1-5.8-4.1-5.8c-2.5,0-5.3,2.7-5.3,5.1c0,2,2.3,3.7,5.7,3.7
	C134.3,147.8,136.3,147.7,136.1,144.7z"/>
<path d="M138.6,153.5c-0.6-0.6-0.7-1.9-0.6-2.9c0.1-1.4,0.5-2.8,2.3-3.2c2.7-0.6,4.2,0.1,5,1.9c0.3,0.6,0.3,1.4,0.3,2
	c0,3.1,0,3.1-3.5,3.5C140.9,154.4,139.5,154.2,138.6,153.5z M144.8,151.8c-0.1-1.9-1.3-3.7-2.6-3.7c-1.6,0-3.4,1.7-3.4,3.3
	c0,1.3,1.5,2.3,3.6,2.3C143.7,153.8,144.9,153.8,144.8,151.8z"/>
</svg>
