<?xml version="1.0" encoding="utf-8"?>
<!-- Generator: Adobe Illustrator 17.1.0, SVG Export Plug-In . SVG Version: 6.00 Build 0)  -->
<!DOCTYPE svg PUBLIC "-//W3C//DTD SVG 1.1//EN" "http://www.w3.org/Graphics/SVG/1.1/DTD/svg11.dtd">
<svg version="1.1" id="Layer_1" xmlns="http://www.w3.org/2000/svg" xmlns:xlink="http://www.w3.org/1999/xlink" x="0px" y="0px"
	 viewBox="0 0 288 216" enable-background="new 0 0 288 216" xml:space="preserve">
<g>
	<path d="M91.2,82.4c-0.4,0.2-0.9,0.3-1.5,0.5c0.4,1,0.9,2.2,1.3,3.4c-0.1,0.1-0.3,0.2-0.4,0.3c-0.9-1.3-1.9-2.5-2.6-3.9
		c-1.1-2-2-4-2.9-6c-0.1-0.2,0-0.6-0.1-0.9c0.1,0,0.3,0,0.4,0c-0.2-1.7-0.4-3.5-0.7-5.2c0.1,0,0.2,0.2,0.5,0.4c0-0.4,0-0.7,0.1-1.2
		c0.9,1.4,1.8,2.7,2.6,4c0.1-0.1,0.2-0.1,0.3-0.2c-0.7-1.3-1.4-2.7-2.1-4c0.1-0.1,0.3-0.2,0.4-0.3c3.3,4.6,7.4,8.3,12.1,11.3
		c-4.6-3.6-8.5-7.8-11.5-12.8c0.3,0.2,0.5,0.4,0.8,0.7c0.1,0,0.1-0.1,0.2-0.1c-0.5-0.9-1.1-1.8-1.6-2.7c0.1,0,0.1-0.1,0.2-0.1
		c1.3,1.4,2.5,2.8,3.8,4.2c0.1,0,0.1-0.1,0.2-0.1c-0.7-1-1.3-2-2-3c0.1,0,0.1-0.1,0.2-0.1c2.6,3.2,5.2,6.4,7.8,9.6
		c0.1-0.1,0.3-0.2,0.4-0.3c-2.3-3.1-4.7-6.2-7-9.3c0,0,0.1-0.1,0.1-0.1c2.1,2.3,4.3,4.6,6.4,6.9c0.1-0.1,0.2-0.2,0.4-0.3
		c-2.4-2.9-4.9-5.8-7-8.3c2.4,0.7,3.7,3.6,6,5.4c-1.3-3.4-3.9-5.7-6.5-8.1c3.7,2.2,6.7,5.2,9.3,8.7c-1.7-3.2-3.6-6.2-6.5-8.6
		c-0.6-0.5-1.1-1.1-1.5-1.8c5.4,2.5,8.2,7.4,11.6,11.9c-2.5-5.1-5.6-9.7-10.5-12.6c1.1,0.2,2.4,0.3,3.6,0.6c0.5,0.1,0.8,0.7,1.2,1.1
		c3.2,3.8,5.8,8,7.7,12.7c0.2,0.5,0.5,0.9,0.8,1.3c-1.4-7.8-6.9-13.3-10.6-19.8c4.9,4.7,8.8,10,11.1,16.7c0.4-0.6,0.7-0.9,0.9-1.3
		c1.3,5.9,0.3,11.7-0.8,17.4c0,0.2-0.1,0.5-0.2,0.6c-1.3,1.6-0.5,2.9,0.7,3.9c2.9,2.5,5.9,4.9,8.9,7.2c1.1,0.8,1.4,1.8,0.9,2.8
		c-0.7,1.2-1.6,2.4-2.6,3.4c-1.8,1.7-1.9,1.9,0,3.4c1.9,1.5,2.3,3.4,0.8,5.3c-0.9,1.2-1.6,2-0.2,3.4c0.9,0.9,0.5,3.3-0.7,4.2
		c-1.4,1.1-1.7,2.3-1.3,4.1c0.7,2.9,0.9,5.9-1.7,8.1c-2.7,2.4-6,3.2-9.5,2.7c-2.5-0.4-5-0.7-7.4-1c-2.9-0.3-5.9-0.3-8.8,0.6
		c0.1,1,0.2,1.9,0.3,2.8c-0.1,0-0.2,0-0.3,0c-0.2-0.9-0.4-1.7-0.7-2.9c-1.4,0.8-2.6,1.6-3.9,2.3c-0.7,0.4-1.6,0.6-2.4,0.8
		c-1.5,0.5-2.3,1.7-2.8,3.1c0.4-0.5,0.8-1,1.2-1.5c-2.3,3-3.3,6.8-6.2,9.2c0,0,0-0.1,0-0.3c-1.4,1.8-2.9,3.7-4.3,5.5
		c-0.2,0.3-0.3,0.7-0.3,1c0.2,4.6,0.5,9.2,0.6,13.8c0.1,1.6-0.1,3.3-0.2,4.9c-0.2-0.2-0.4-0.3-0.7-0.5c0-0.6,0.1-1.2,0-1.7
		c-0.9-4.6-0.5-9.3-0.3-13.9c0-0.8,0-1.6,0-2.7c-0.6,0.4-1,0.7-1.4,1c5.2-4.4,7.4-10.9,11.3-16.2c-0.1-0.1-0.2-0.2-0.3-0.3
		c-0.9,0.8-2,1.5-2.8,2.5c-2.9,4.1-5.7,8.3-8.6,12.3c-0.9,1.2-2.1,2.2-3.3,3.2c3.4-4.9,6.9-9.9,10.3-14.8c-0.1-0.1-0.2-0.2-0.3-0.3
		c-3.3,3.7-6.6,7.3-9.9,11c-0.1-0.1-0.2-0.2-0.3-0.3c1.5-1.6,2.9-3.3,4.4-4.9c-3.1,1.6-6,3.8-9.8,4.6c2.5-1.3,4.7-2.5,6.9-3.8
		c2.2-1.2,4.4-2.4,5.8-4.7c-1.5,0.9-2.9,1.7-4.4,2.6c-2.3,1.5-5.1,1.9-7.6,2.8c-1.6,0.6-3.3,1.3-5,2c0-0.2,0-0.7,0.1-0.8
		c1-0.7,2.1-1.5,3.2-1.8c5.9-1.4,10.9-4.4,16-7.4c4.9-2.9,9.9-5.7,15.4-7.6c4.2-1.4,8-0.6,12,0c2.5,0.4,4.9,0.6,7.4,0.6
		c1.3,0,2.7-0.6,4-1.2c3.4-1.7,4-4.6,3.4-8.2c-0.2-0.9-0.4-1.8-0.3-2.7c0-0.5,0.3-1.2,0.7-1.5c2-1.9,2.1-3.4,0.2-5.5
		c-0.2-0.2-0.3-0.4-0.5-0.7c0.7-0.8,1.3-1.6,2-2.3c1.2-1.2,0.7-3.1-0.5-4.1c-0.6-0.5-1.1-1.1-1.6-1.6c-0.6-0.7-0.5-1.3,0.2-1.8
		c0.9-0.7,1.7-1.3,2.5-2.1c2.2-2.2,1.7-3.2-0.1-4.6c-2.8-2.1-5.4-4.4-8.1-6.6c-2.4-1.9-2.8-4.6-3-7.4c-0.1-2.1,0-2.1-2.3-2.9
		c0.3,0.7,0.5,1.3,0.8,2c-4.3-1.9-6.7-6-10.4-8.7c1.2,1.5,2.2,3.1,3.6,4.4c1.4,1.2,1.8,2.9,3.1,4c-0.1,0.1-0.3,0.2-0.4,0.3
		c-3-3.5-6.1-6.9-9.1-10.4c-0.1,0.1-0.2,0.2-0.3,0.2c1.9,2.5,3.9,5,5.8,7.5c-0.8,0-1.5-0.1-2.2-0.1c0.3-0.3,0.6-0.5,0.9-0.8
		c-1.2-1.5-2.3-2.9-3.3-4.2c-0.1,0-0.1,0.1-0.2,0.1c0.5,1.2,1.1,2.3,1.6,3.5c-0.1,0.1-0.2,0.1-0.3,0.2c-1.4-2.8-2.8-5.5-4.1-8.3
		c-0.2,0.3-0.3,0.5-0.2,0.7c0.7,3,2.1,5.7,4.1,8C90.1,82,90.7,82.2,91.2,82.4z M96,70.9c2.8,3.5,5.6,7.1,8.4,10.6
		C103.9,79.6,100.1,73.8,96,70.9z M103.9,82.1c-0.1,2.5-0.9,5,0.3,7.5C105.6,86.5,105.4,83,103.9,82.1z M97.1,74.6
		c0.8,2.3,3.2,5.1,5.1,5.8C100.5,78.5,98.8,76.5,97.1,74.6z M96.2,77.2c0.1-0.1,0.1-0.2,0.2-0.2c-2-2-4-3.9-6-5.9
		c1.2,1.6,2.6,3.1,4.1,4.5C95,76.1,95.6,76.6,96.2,77.2z M104.7,79.5c0.1-0.1,0.3-0.1,0.4-0.2c-0.5-1.2-1-2.3-1.5-3.5
		c-0.1,0.1-0.2,0.1-0.4,0.2C103.7,77.2,104.2,78.3,104.7,79.5z"/>
	<path d="M106.5,71c-1.2-2.5-2.3-5.1-3.5-7.6c-1.4-2.9-2.7-5.8-5.3-7.9c-1.9-1.5-3.7-3-5.4-4.8c1,0.3,1.9,0.7,3.2,1.1
		c-1.9-1.3-3.7-2.2-5-3.6c-2.2-2.5-5.1-3.5-7.8-5c-0.8-0.4-1.8-0.4-2.7-0.6c0.2-0.2,0.3-0.4,0.5-0.7c0.7-0.1,1.3-0.2,2-0.3
		c0.3,0.3,0.5,0.7,0.8,0.7c4.1,0.7,8.1,1.4,12.2,2.1c0.4,0.1,0.9,0.1,1.3,0.2c0,0.1,0,0.2,0,0.4c-2.9-0.1-5.8-0.1-8.6-0.2
		c6.9,4.2,14.3,7.5,20,12c-3.1-1.4-6.9-3.3-10.7-5.1c0.9,0.2,1.8,0.5,2.7,0.7c0-0.1,0.1-0.2,0.1-0.3c-1.7-0.7-3.4-1.5-5.1-2.2
		c-0.1,0.1-0.1,0.3-0.2,0.4c0.8,0.5,1.7,0.9,2.5,1.4c0.5,0.4,0.9,0.9,1.4,1.2c5.1,3.5,8.6,8.4,11.8,13.5c0.7,1.1,0.9,2.6,1.4,4.2
		c-3.2-4.9-5.5-10.1-10.7-12.7c-0.1,0.1-0.2,0.2-0.4,0.3c0.6,0.9,1.3,1.7,1.8,2.7c1.3,2.8,2.4,5.6,3.6,8.4
		C106.5,69.9,106.4,70.5,106.5,71z M104.1,58.6c-2.4-3.7-6.5-6.4-9.5-6.5c2,1.4,4.2,2.9,6.1,4.2c0.1,0.1,0,0-0.1-0.2
		C101.7,57,102.8,57.7,104.1,58.6z"/>
	<path d="M24.4,122.2c4.3-2,8.3-4.5,11.8-7.6c0.4-0.4,1-0.4,1.9-0.7c-4.5,4.4-9.2,7.8-14.8,9.9C23.7,123.3,24,122.8,24.4,122.2z"/>
	<path d="M26.6,119.1c2.2-1.9,4.4-3.8,6.6-5.7c0.4-0.3,0.9-0.6,1.5-0.7c-1.8,1.6-3.6,3.2-5.4,4.8c0.1,0.1,0.2,0.2,0.3,0.3
		c2.4-1.7,4.7-3.4,7-5.1c0.2,1.3-7.5,6.8-10.8,7.4C26,119.8,26.3,119.5,26.6,119.1z"/>
	<path d="M30.6,113.3c0.9-0.9,1.8-1.9,2.7-2.8c1.6-1.5,3.1-3,4.9-4.4c-1.5,1.7-2.9,3.5-4.5,5.1c-1.7,1.9-3.5,3.7-5.2,5.6
		c-0.1,0.2-0.4,0.2-0.6,0.3C28.9,115.8,29.7,114.5,30.6,113.3z"/>
	<path d="M81.6,40.2c1.9-0.1,3.8-0.2,5.7-0.3c0,0.1,0,0.2,0.1,0.3c-1,0.2-2,0.5-3.1,0.7c-1.1,0-2.1-0.1-3.2-0.1
		C81.3,40.6,81.5,40.4,81.6,40.2z"/>
	<path d="M84.9,146.1c-0.4-1.1-0.7-2.2-1.2-3.6C85,143.4,85.1,143.7,84.9,146.1z"/>
	<path d="M82.3,106.7c1.1,0.6,2.2,1.2,3.4,1.9c-0.2-0.3-0.3-0.5-0.5-0.8c0.3,0.1,0.5,0.1,0.7,0.2c0-0.1,0.1-0.1,0.1-0.2
		c-0.9-0.6-1.8-1.3-2.7-1.9c0.1-0.1,0.1-0.1,0.2-0.2c1,0.7,2,1.4,3,2.1c0,0,0.1-0.1,0.1-0.1c-1.3-1.8-2.6-3.6-4-5.5
		c5,4.9,9.7,10,16.6,12.4c-0.1,0.1-0.1,0.3-0.2,0.4c-1-0.4-1.9-0.9-2.9-1.3c-1.1-0.5-2.2-1-3.2-1.6c-1-0.6-1.8-1.3-2.8-1.8
		c2.2,3.2,0.8,2.5,6.1,5c-0.6-0.1-1.2-0.2-1.9-0.3c-2-0.2-3.6-1-4.6-2.8c-0.2-0.4-0.6-0.7-1-0.9c-1.3-1-2.7-1.9-4.2-2.9
		c3.5,4,7,7.7,9.4,12.4c-2.7-3.6-6.6-5.7-10-8.5c0.4,0.2,0.8,0.5,1.2,0.7c-2.2-2.6-4.8-4.8-5.7-8.3c2.7,2.9,5.3,5.8,7.9,8.7
		c0.1-0.1,0.3-0.2,0.4-0.4c-0.6-0.7-1.1-1.4-1.7-2.1c-0.6-0.7-1.3-1.4-2-2.1c-0.7-0.7-1.3-1.3-2-2C82.2,106.8,82.3,106.7,82.3,106.7
		z"/>
	<path d="M71.9,120.2c-1.3,4.6-3.8,8.5-6.8,12.2c3.8-5.6,7.4-11.3,7.8-18.4c0,1.3,0.1,2.6,0,3.8c0,1.4-0.2,2.7-0.3,4.1
		c0.1,0,0.2,0,0.3,0.1c0.2-1.3,0.3-2.6,0.5-4c0.2-1.1,0.6-2.2,0.6-3.3c0-1.1-0.2-2.2-0.1-3.3c0.4,1.2,0.8,2.4,1.2,3.6
		c0.4,1.3,0.9,2.5,1.1,3.8c0.2,1.2,1.3,2.1,0.9,3.6c-0.3,1.2,0.3,2.7,0.2,4.1c-0.3-1.7-0.7-3.3-1-5c-0.4-1.6-0.9-3.2-1.6-4.9
		c0.9,3.7-0.5,7-1.6,10.3c-1.1,3.6-2.7,7-5.1,9.9c2.9-4.3,4.7-9.1,5.2-14.3c-1.1,3.5-2.2,7-3.4,10.6c-0.1,0-0.3-0.1-0.4-0.1
		C70.4,128.6,72.4,124.7,71.9,120.2z"/>
	<path d="M23.5,135.7c-1.1,1.5-2.2,3-3.2,4.2c-0.1-1.5,2.5-6.2,5.1-8.9c-1.3-0.1-2.6-0.1-4.1-0.2c3.8-0.8,7.5-1.5,11.1-2.3
		c0-0.2-0.1-0.4-0.1-0.6c-2.6,0.5-5.2,1.1-7.8,1.6c0,0,0-0.1,0-0.1c5.6-1.6,11.2-3.1,17-4.8c0.1,0.1,0.8,0.2,2.6,0.4
		c-2.6,1.1-5.2,2.3-7.8,3.4c0,0.1,0,0.2,0,0.2c0.2,0,0.4,0,0.6,0.1c-2.9,0.6-5.8,1.2-8.6,1.9c-0.9,0.2-2.1,0.4-2.7,1
		c-1,0.9-1.7,2.2-2.5,3.4C23.1,135.2,23.4,135.5,23.5,135.7z"/>
	<path d="M38.8,128.3c1.4-0.5,2.8-1.3,4.3-1.3c2.8-0.1,4.6-1.8,6.8-3c1.5-0.8,3.2-1.2,4.8-1.7c-1.8,1.1-3.6,2.2-5.4,3.3
		c-1.9,1.1-3.9,2.1-5.9,3.1c-1.9,1-3.9,1.8-5.9,2.8c4.3-0.7,8.3-2.8,12.4-4.1c0.1,0.2,0.1,0.3,0.2,0.5c-3.2,1.2-6.5,2.6-9.8,3.6
		c-2.1,0.7-4.4,0.8-6.6,1.4c-1.5,0.4-2.9,1.1-4.5,1.5c1-0.5,2-1,2.9-1.6c0-0.1,0-0.2,0-0.2c-0.4,0-0.9,0-1.1,0
		c2.7-1,5.5-2.1,8.4-3.2c0-0.1-0.1-0.2-0.1-0.4c-1,0.3-2,0.5-3,0.8C37.1,129.3,38,128.8,38.8,128.3z"/>
	<path d="M45.8,135.1c-2.3,1.2-4.6,2.5-7.4,2.8c2.1-1,4.1-2,6.1-3c-0.1-0.2-0.1-0.3-0.2-0.5c-1.3,0.4-2.5,0.8-3.8,1.2
		c0-0.1-0.1-0.2-0.1-0.2c3-1.3,6-2.6,9-3.9c-0.1-0.1-0.1-0.3-0.2-0.4c-4,2.2-8.4,3-12.8,3.8c2.3-1,4.5-2,6.8-2.9
		c0,0,0.1,0.1,0.1,0.1c-0.6,0.4-1.1,0.7-1.7,1.1c0,0.1,0.1,0.3,0.1,0.4c2.6-1,5.2-2.1,7.7-3.1c3.4-1.4,5.6-4.3,8.1-6.7
		c2-2,3.9-4,5.7-5.9c-1.2,2.7-3.7,4.6-5.9,6.8c-2.1,2.2-4.4,4.3-6.7,6.5c0.7-0.2,1.2-0.4,1.8-0.6c-0.1,0.1-0.2,0.3-0.2,0.4
		c-2.1,1.1-4.2,2.3-6.3,3.4C45.9,134.4,45.9,134.8,45.8,135.1z"/>
	<path d="M88.5,89.9c1.1-0.3,2.2-0.8,3.4-1c1.3-0.2,2.6-0.2,3.9-0.3c1.8-0.1,3.2,0.5,3.5,2.5c-0.5,0-1,0-1.4,0c0,1,0,1.9,0,2.9
		C94.4,93.2,91.3,91.8,88.5,89.9L88.5,89.9z M95.2,92.2c0.1-1.4-0.3-2.1-1.1-2.1c-1.1,0-2.1,0.2-3.2,0.3c0,0.1,0,0.1,0,0.2
		C92.3,91.1,93.7,91.6,95.2,92.2z"/>
	<path d="M52.3,130.9c0.1-0.1,0.2-0.3,0.2-0.4c1-0.7,2-1.3,3-2c0.1,0.1,0.1,0.2,0.2,0.3c-1,0.8-2,1.5-2.9,2.3
		c5.1-2.9,8.9-7.1,12.3-11.8c-2.4,5.6-16.9,18.5-23.4,20.8c3.6-2.5,6.9-4.9,10.3-7.2c-0.1-0.1-0.2-0.3-0.3-0.4
		c-1.6,1-3.1,1.9-4.5,2.8c-0.4-0.2-0.6-0.3-0.9-0.5C48.3,133.5,50.3,132.2,52.3,130.9z"/>
	<path d="M91.5,122.9c-4.3-2.2-11.1-8.3-13.9-12.5c0.5,0.4,1,0.9,1.7,1.5c-0.4-1.1-0.7-2-1-2.8c3.7,2.9,7.3,5.7,10.9,8.6
		c0,0,0,0.1-0.1,0.1c-1-0.7-1.9-1.5-3-2c-2.4-1.2-4.4-2.9-6.1-4.9c-0.1-0.2-0.4-0.3-0.7-0.2c0.3,0.4,0.5,0.8,0.8,1.1
		c2.9,3.3,5.9,6.5,9.5,9C90.4,121.3,90.8,122.1,91.5,122.9z"/>
	<path d="M70.2,117.4c0.6-1.3,1.2-2.6,1.8-3.9c0.1,0,0.2,0.1,0.3,0.1c-1.5,4.1-2.9,8.2-4.4,12.3c-0.1,0-0.2,0-0.3-0.1
		c0.1-0.1,0.3-0.2,0.4-0.2c-1.2,3.5-9.5,11.7-12.5,12.2c6.7-5.9,12.8-12.3,15.1-21.2C70.5,116.9,70.4,117.1,70.2,117.4L70.2,117.4z
		 M63,131.5c0.1,0,0.1,0.1,0.2,0.1c1.2-1.7,2.4-3.4,3.6-5.2c-0.1,0-0.1-0.1-0.2-0.1C65.4,128.1,64.2,129.8,63,131.5z"/>
	<path d="M88.4,99.6c-1.7-2.2-3.3-4.4-5-6.6c0.1-0.1,0.1-0.1,0.2-0.2c1.2,1.4,2.5,2.8,3.7,4.2c0.1,0,0.1-0.1,0.2-0.1
		c-1.6-2.6-3.3-5.2-4.9-7.8c0.1-0.1,0.3-0.2,0.4-0.3c2.5,4,5.3,7.7,9.1,10.6c-0.6-0.4-1.1-0.7-1.7-1.1c-0.6-0.4-1.1-0.8-1.9-0.9
		c1.9,2,3.7,4,5.6,6.1c-0.1,0.1-0.2,0.2-0.3,0.3c-1.3-1.1-2.6-2.3-3.9-3.3C89.5,100.1,88.9,99.9,88.4,99.6L88.4,99.6z"/>
	<path d="M47.3,139.5c0.7-0.6,1.4-1.1,2.1-1.7c0.5-0.5,1.6-0.7,1.3-1.8c0-0.1,0.4-0.3,0.6-0.5c4.2-2.2,7.4-5.6,10.3-9.2
		c2-2.4,3.6-5.3,5.3-7.9c0.4-0.6,0.7-1.1,1.2-1.9C63.9,126.8,56,133.6,47.3,139.5z"/>
	<path d="M70.2,117.4c-2.4,3.6-4.9,7.1-7.2,10.7c-1.9,3.2-4.6,5.5-7.5,7.7c-1.5,1.1-3.1,2-4.3,2.8c2.7-2.5,5.8-5.1,8.7-7.9
		c3.1-3.1,5.9-6.4,8.1-10.2C68.6,119.4,69.5,118.4,70.2,117.4C70.2,117.4,70.2,117.4,70.2,117.4z"/>
	<path d="M88.4,95.3c-2.9-3.8-4.7-8.2-6.3-12.7c0.1,0,0.2-0.1,0.3-0.1c1.6,3,2.9,6.1,4.7,9c1.8,2.9,4.1,5.5,6,8.3
		c-2.1-2.4-4.2-4.9-6.6-7.6C87.3,93.4,87.8,94.3,88.4,95.3z"/>
	<path d="M31.3,124.7c1.5-0.4,3-0.8,4.6-1.3c0.5-0.1,1.1-0.3,1.6-0.4c-3.7,2.8-8.1,3.4-12.4,4.7c-1.4,0.4-2.8,0.6-4.2,0.7
		C24.4,127.3,27.9,126,31.3,124.7L31.3,124.7z"/>
	<path d="M26,124.7c3.1-1,6.2-1.9,9.4-2.9c1.2-0.4,2.4-0.8,3.6-1.2c0,0.1,0.1,0.2,0.1,0.3c-2.6,1.3-5.2,2.6-7.8,3.8l0.1,0
		c-0.7,0.1-1.5,0-2.2,0.3c-1.5,0.5-2.9,1.2-4.4,1.8c-0.4,0.2-0.9,0.2-1.5,0.1c1.2-0.5,2.4-1,3.6-1.4c0-0.1-0.1-0.2-0.1-0.3
		c-0.4,0.2-0.9,0.3-1.6,0.6C25.6,125.1,25.8,124.9,26,124.7L26,124.7z"/>
	<path d="M77,113.3c-0.6-0.9-1.1-1.7-1.9-2.9c2.3,2,4.4,3.9,6.5,5.6c2.2,1.8,4.4,3.5,6.5,5.4c-1.4-1-2.8-2-4.3-3
		c-0.1,0.1-0.2,0.2-0.2,0.3c1.2,1.8,2.3,3.6,3.5,5.4c-0.1,0.1-0.2,0.1-0.3,0.2c-1.1-1.6-2.2-3.2-3.4-4.7c-1.4-1.7-2.9-3.2-4.4-4.8
		C78.4,114.2,77.6,113.8,77,113.3L77,113.3z"/>
	<path d="M88.4,99.6c0.6,0.6,1.3,1.2,1.9,1.9c2,2.1,3.9,4.3,5.9,6.4c-4.3-1.9-11.9-9.7-13.5-13.8c1.5,1.9,2.7,3.6,4,5.1
		c1.4,1.6,2.9,3,4.3,4.4c0.1-0.1,0.2-0.2,0.3-0.3C90.4,102.2,89.4,100.9,88.4,99.6C88.4,99.6,88.4,99.6,88.4,99.6z"/>
	<path d="M79.8,128.1c-0.8-4.3-1.6-8.5-2.4-12.3c1.6,3.2,3.3,6.8,5.1,10.4c-0.1,0-0.1,0.1-0.2,0.1c-0.9-1.6-1.7-3.1-2.6-4.7
		c-0.1,0-0.2,0-0.2,0C79.6,123.8,79.7,126,79.8,128.1C79.8,128.1,79.8,128.1,79.8,128.1z"/>
	<path d="M85.4,100.7c3,3.3,6,6.5,9.1,9.8c-3.4-2.8-7.7-4.6-10.2-8.4c2.3,2,4.5,3.9,6.8,5.9c0.1-0.1,0.1-0.1,0.2-0.2
		c-2-2.3-4-4.6-6-6.9C85.3,100.8,85.4,100.7,85.4,100.7z"/>
	<path d="M34.6,143.5c-0.3,1.2-0.6,2.2-0.9,3.2c0.6-0.1,1.1-0.1,1.9-0.2c-0.6,1.2-0.9,2.6-2.2,2.4c-1.6-0.2,0-1.6-0.6-2.4
		c-0.6,0.4-1.3,0.9-2,1.4c-0.1-0.1-0.3-0.2-0.4-0.4c0.5-1,1-2.1,1.5-3.1c0.1,0,0.2,0.1,0.3,0.1c-0.3,0.7-0.6,1.5-1,2.2
		c0.1,0.1,0.3,0.2,0.4,0.3C32.7,145.9,33.5,144.8,34.6,143.5z"/>
	<path d="M76.9,113.3c1.2,1.5,2.2,3.2,3.6,4.5c2.4,2.4,3,5.7,4.5,8.5c0.1,0.1,0,0.3-0.1,0.6c-0.6-1.1-1.1-2.3-1.7-3.3
		c-1.6-2.6-3.3-5.2-4.9-7.8C77.8,115,77.4,114.1,76.9,113.3C77,113.3,76.9,113.3,76.9,113.3z"/>
	<path d="M28.2,144.6c0.1-0.5,0.1-1.1,0.4-1.5c0.3-0.6,0.9-1.2,1.2-1.8c0.2-0.4,0.1-0.8,0.1-1.5c0.5-0.7,1.1-1.6,1.8-2.6
		c-0.6,2.7-1.3,5.3-2.9,7.6C28.6,144.7,28.4,144.7,28.2,144.6z"/>
	<path d="M88.5,89.9c0.7,1.2,1.3,2.4,2,3.5c-0.1,0.1-0.2,0.1-0.3,0.2c-1.5-2.6-3.1-5.3-4.6-7.9c0.1-0.1,0.2-0.1,0.3-0.2
		C86.8,87,87.6,88.5,88.5,89.9C88.5,89.9,88.5,89.9,88.5,89.9z"/>
	<path d="M28.4,139.4c0.5-0.8,1.1-1.5,1.7-2.4c0.1,1-1.1,2.6-3,4.2c0.4-1.3,0.8-2.2,1.1-3.1c0.1,0,0.2,0,0.2,0.1
		c-0.1,0.4-0.2,0.7-0.3,1.1C28.2,139.3,28.3,139.4,28.4,139.4z"/>
	<path d="M26,124.7c-0.4,0.1-0.9,0.1-1.7,0.3c1.8-0.9,3.2-1.7,4.7-2.5c0.1,0.1,0.1,0.2,0.2,0.3C28.2,123.4,27.1,124,26,124.7
		C26,124.7,26,124.7,26,124.7z"/>
</g>
<g>
	<path d="M114.3,115.2C114.3,115.2,114.3,115.2,114.3,115.2c0.5,0,0.9-0.1,1.2-0.3c0.5,0.4,1,0.4,1.8,0.4c1.9-0.2,3.8-0.3,5.7-0.4
		c0-0.1,0-0.1,0-0.2c0.2,0.1,0.4,0.1,0.7,0.1c0.5,0,1-0.2,1.3-0.4c0,0,0,0.1,0.1,0.1c5.2-0.6,10.8-1.3,16.4-2c0,0.2,0.1,0.3,0.1,0.5
		c-2.1,0.4-4.1,1-6.2,1.2c-7,0.7-14,1.3-21.1,2c-0.4,0-0.7,0.4-1,0.7c0.3,0.4,0.5,0.9,0.9,1c8.2,2.5,16.5,5,24.7,7.4
		c0.7,0.2,1.3,0.5,2,0.7c-0.5,0.2-0.9,0.2-1.2,0.1c-4.3-1.3-8.6-2.5-12.9-3.8c-0.6-0.2-1-0.3-1.3-0.4c-0.4-0.4-0.9-0.7-1.7-0.7
		c-0.2,0-0.4,0-0.5,0.1c0-0.1,0.1-0.1,0.1-0.2c-2.5-0.6-4.6-1.2-6.8-1.8c-0.3-0.2-0.7-0.3-1.2-0.3c-0.1,0-0.1,0-0.2,0
		c0-0.1,0.1-0.1,0.1-0.2c-2.1,0.4-2.7,0.1-2.9-1.4C111.9,115.9,112.2,115.5,114.3,115.2z"/>
	<path d="M133.2,118c4,0,8,0,12,0c0-0.1,0-0.1,0-0.2c-4,0-8,0-12,0C133.2,117.8,133.2,117.9,133.2,118z"/>
	<path d="M113.9,117.4c3.8,0.7,7.6,1.5,11.4,2.2c0-0.2,0.1-0.4,0.1-0.7c-3.8-0.7-7.6-1.4-11.4-2.1C114,117.1,114,117.3,113.9,117.4z
		"/>
	<path d="M129.3,117c-4,0-8,0-12,0c0,0,0,0.1,0,0.1c4,0.2,8,0.3,11.9,0.5C129.3,117.4,129.3,117.2,129.3,117z"/>
	<path d="M142.7,122.6c-3.3-0.6-6.6-1.2-9.8-1.8c0,0.2-0.1,0.4-0.1,0.5c3.3,0.6,6.6,1.2,9.8,1.8
		C142.6,122.9,142.7,122.8,142.7,122.6z"/>
	<path d="M131.4,115.8c0.4,0,0.7,0.1,1.1,0.1c3.8,0,7.6,0,11.3,0c0-0.3,0-0.6,0-0.8c-4.1,0.2-8.3,0.4-12.4,0.5
		C131.4,115.7,131.4,115.8,131.4,115.8z"/>
</g>
<g>
	<path d="M148.5,117.4c0.9-0.7,1.8-1.3,3-2.2c0.6-5.1,0-10.6,0.9-16c0.2,0,0.5,0,0.7,0c0.3,5.2,0.5,10.3,0.8,15.7
		c3.2-0.3,6.3-0.6,9.4-0.9c1-0.1,2-0.2,3-0.4c0.5-0.1,1.2,0,1.4-0.3c1.3-1.6,3-1.3,4.7-1.3c4.2-0.1,8.3-0.2,12.5-0.4
		c0.8,0,1.7-0.6,2.5-0.9c-0.3,2.5,1.9,2.4,3.2,3.3c-0.2-1.7,1.1-3.7-1.2-5c-0.8,0.6-1.4,1.2-2.1,1.8c0.7-1.9,2-2.6,4-2.6
		c5.9,0.2,11.8,0.3,18,0.4c0.3,1.1,0.6,2.1,1,3.5c0.8-0.6,1.4-1.2,2.2-1.7c0.8-0.5,1.3-1.6,2.6-1.2c0,0,0,0,0,0
		c-0.5,0.7-1,1.5-1.5,2.2c-0.4,0.7-0.8,1.5-1.4,2.6c3.5,0.3,6.4,0.5,9.4,0.7c4.5,0.3,9,0.7,13.5,0.9c2,0.1,4-0.2,6.1-0.4
		c0.1,0.1,0.2,0.1,0.2,0.2c0.3,0.3,0.5,0.9,0.8,1c1.1,0.1,2.3,0,4,0c-2-2.1-1.2-3.8-0.3-5.4c1.1-2.1,2.4-4,3.6-6.1l-0.1,0.1
		c0.2-0.2,0.4-0.4,0.6-0.6l-0.1,0.1c0.2-0.5,0.4-1,0.6-1.5c-0.1-0.1-0.1-0.2-0.2-0.3c2.6-2.7,6.2-2.6,8.9,0.3c1.9,2,2.6,4.6,3,7.2
		c0.2,1.3,0.4,2.7,0.5,4.1c0.3,3.5,1.5,6.4,5.2,7.7c0.2,0.1,0.3,0.4,0.6,0.9c-1.9,0.6-3.6,1.2-5.6,1.9c-0.3,0.7-0.4,2.2-2.1,2.3
		c-1.7,0-2-1.3-2.6-2.7c-1.7,0.1-3.5,0.1-5.3,0.3c-8.9,0.8-17.8,1.6-26.7,2.4c-2.3,0.2-4.6,0.3-7.2,0.5c2.4,1.8,5.7,1.3,8,3.8
		c-5.1,0.7-9.6-0.6-14.1-0.5c0.4-0.3,0.8-0.6,1.1-0.9l-0.1,0.1c1.1-0.1,2.2-0.2,3.3-0.3c0-0.1,0-0.3-0.1-0.4
		c-4.8-1.7-9.7-3.3-14.5-5l0.1,0.1c-1.8-0.9-3.6-1.8-5.4-2.7c-0.5-0.2-1.1-0.3-1.7-0.3c-4.2-0.1-8.3-0.1-12.5-0.1
		c-2.5,0-4.7,0.6-6.3,3c0.7,0,1.2,0.1,1.8,0.1l0-0.1c-0.3,0.3-0.7,0.6-1,0.8c-1.6,0.8-2.9,1.9-2.5,4l0.1-0.1
		c-2.5-0.5-4.9-1.1-7.4-1.4c-1.8-0.2-3.5-0.3-5.1-1.3c-0.8-0.6-2.1-0.5-3.2-0.8c-1.8-0.5-3.7-1-5.8-1.5c-0.1,4.9,0.2,10.2-1.5,15.3
		c-0.2-0.9-0.5-1.8-0.5-2.7c-0.2-4-0.3-8-0.4-12c0-1.2-0.4-1.9-1.6-2.6c-1.4-0.8-2.6-2-4.1-3.2C146.7,118.3,147.6,117.8,148.5,117.4
		c-0.1,0.3-0.2,0.6-0.5,1.4c0.9-0.4,1.4-0.6,1.9-0.8c0-0.1-0.1-0.3-0.1-0.4C149.4,117.5,148.9,117.4,148.5,117.4z M191.4,115.3
		c-0.6,0-1.2,0-1.9,0c0.6,0.6,1.3,1,2,1.1c1.2,0.1,2.4,0,3.6,0.1c4.1,0,8.2-0.3,12.1,1c0.8,0.3,1.7,0.3,2.5,0.3
		c8.9,0.2,17.9,0.3,26.8,0.4c0.3,0,0.5-0.1,0.8-0.1c0-0.2,0-0.3,0-0.5c-1.7-0.2-3.5-0.6-5.2-0.7c-7.5-0.5-14.9-1-22.4-1.4
		c-1.9-0.1-3.9-0.2-5.9-0.1c-3.5,0.1-6.9,0.3-10.4,0.3C192.8,115.8,192.1,115.4,191.4,115.3c1.9-0.1,3.9-0.1,6.1-0.1
		c-0.1-1.7,0.4-3.1-0.7-4.9c-0.1,1.6-0.2,2.7-0.2,3.9c-0.7,0-1.3-0.1-1.9-0.1c-0.1-1-0.2-1.7-0.3-2.5c-0.1,0-0.2,0-0.3,0
		c0,0.8-0.1,1.6-0.1,2.4C193.1,114.7,191.7,113.8,191.4,115.3z M158.7,115.6c0,0.1,0,0.2-0.1,0.3c0.3,0.1,0.6,0.2,0.9,0.2
		c7.3,0.1,14.6,0.2,21.9,0.3c1.2,0,2.4,0.1,3.6,0c0.9,0,1.8-0.2,1.7-1.4c-0.1-1.2-1-1.1-1.9-1.1c-3.9,0.1-7.8,0.1-11.7,0.2
		c-0.9,0-1.7,0.2-2.6,0.4c-0.2-0.3-0.4-0.7-0.4-0.7C166.2,114.4,162.5,115,158.7,115.6z M160.4,118.9c0.8,0.1,1.5,0.3,2.3,0.3
		c3,0.1,5.9,0.1,8.9,0.1c0.5,0,1,0.1,1.5,0.2c0,0.2,0,0.3,0,0.5c-3.2,0.6-6.3,1.2-9.6,1.7c0.1,0.4,0.2,1,0.4,1.8
		c1.1-0.2,2.2-0.1,3-0.5c2.2-1.1,2.1-1.2,2.7,1.5c-1.4,0-2.9,0-4.3,0c3.1,1.1,6.3,1.6,9.5,0.5c-0.6-0.5-1.3-0.8-2.1-0.8
		c-1.4,0-1.5-0.7-1.4-1.8c2.2-0.3,4.2-0.5,6.2-0.8c0-0.2,0-0.3,0-0.5c-1,0-2,0-3.1,0c0-1.1,0-2,0-3.1c1.4-0.1,2.7-0.2,4-0.3
		c0-0.2,0-0.4,0-0.5c-1.4-0.1-2.7-0.2-4.2-0.2c-0.3,0.7-0.6,1.3-0.9,2.1C169.2,118.7,164.9,119.5,160.4,118.9z M258.3,123.7
		c-4.2-1.1-8.7-0.7-12.7-2.8c3.9,0,7.8,0,11.7,0c-0.9-0.5-1.8-0.8-2.7-0.8c-3.6-0.1-7.1-0.2-10.7-0.2c-0.9,0-1.9,0.2-2.7,0.5
		c-0.8,0.2-1.6,0.7-1.3,1.8C243.3,123.3,252.6,124.1,258.3,123.7z M215.1,124.6c-4.3-0.9-8.7-1.7-13-2.6c0,0.1-0.1,0.3-0.1,0.4
		c1.7,0.6,3.4,1.2,5.2,1.8c-0.2,0.5-0.3,0.8-0.4,1.2c1.5,0.2,3,0.8,4.3,0.4c1.7-0.4,2.6,1,3.8,1C214.9,126.2,215,125.6,215.1,124.6z
		 M255.1,102.9c-0.8,2.9-0.7,12.4,0,14.6C255.1,112.3,255.1,107.6,255.1,102.9z M184.9,113c0-0.1,0-0.3,0-0.4c-1.9,0-3.9,0-5.8,0
		c0,0.1,0,0.3,0,0.4C181.1,113,183,113,184.9,113z M154.9,117.3c0,1.3,0,2.2,0,3.2c2-0.3,1.1-1.6,1-2.4c0.6-0.3,1-0.5,1.4-0.7
		c-0.1-0.1-0.1-0.2-0.2-0.3C156.4,117.1,155.7,117.2,154.9,117.3z M203.9,114.7c1.6,0,3,0,4.4,0c0-0.1,0-0.2,0-0.3
		c-1.3-0.1-2.6-0.1-3.9-0.2c-0.2-1.1-0.3-1.9-0.4-3.2C203.9,112.5,203.9,113.5,203.9,114.7z M195,109.3c0-0.2,0-0.3,0-0.5
		c-1.2,0-2.4,0-3.6,0c0,0.2,0,0.3,0,0.5C192.6,109.3,193.8,109.3,195,109.3z M150.5,121c1.2-1.5,1.2-2.7,0-4.3
		C150.5,118.3,150.5,119.5,150.5,121z M199.1,109.4c0,0.1,0,0.3,0,0.4c1.1,0,2.3,0,3.4,0c0-0.1,0-0.3,0-0.4
		C201.3,109.4,200.2,109.4,199.1,109.4z M203.9,109.3c1.8,0.9,1.9,0.9,3.5,0C206.2,109.3,205.1,109.3,203.9,109.3z M198.9,114.5
		c0,0.1,0,0.2,0,0.3c1.3,0,2.5,0,3.8,0c0-0.1,0-0.2,0-0.3C201.4,114.5,200.1,114.5,198.9,114.5z M164.5,117.6c0,0.2,0,0.4,0,0.6
		c0.5,0,1.1-0.1,1.6-0.1c0-0.2,0-0.3,0-0.5C165.6,117.6,165.1,117.6,164.5,117.6z M170.7,118.2c0-0.1,0.1-0.2,0.1-0.4
		c-0.2-0.1-0.4-0.4-0.7-0.4c-0.3,0-0.7,0.1-1,0.2c0,0.1,0,0.3,0.1,0.4C169.7,118.1,170.2,118.2,170.7,118.2z M161.7,117.6
		c1,0.9,1.6,1,2.1,0C163.1,117.6,162.7,117.6,161.7,117.6z M173.2,118c0-0.2,0-0.3-0.1-0.5c-0.5,0-1,0.1-1.5,0.1
		c0,0.2,0,0.3,0.1,0.5C172.2,118.1,172.7,118.1,173.2,118z M167,117.6c0,0.2,0,0.4,0,0.6c0.4-0.1,0.9-0.1,1.3-0.2c0-0.1,0-0.3,0-0.4
		C167.9,117.6,167.4,117.6,167,117.6z"/>
	<path d="M214,130.1c-7.4-0.1-14.8-0.9-21.8-3.4c-1.8-0.6-3-0.4-4.5,1.3c3.1,0.5,5.9,1.1,8.7,1.5c2.4,0.3,4.7,0.5,7.1,0.7
		c1.1,0.1,1.6,0.5,1.6,1.8c-0.6,0-1.2,0-1.9,0c-4.5,0.1-9,0-13.5,0.2c-3.1,0.1-6.1-0.2-9.2-1.4c0.2-0.7,0.4-1.5,0.7-2.6
		c-1.6-0.1-3.1-0.2-4.5-0.2c0-0.2,0-0.3,0-0.5c2.3,0,4.5-0.1,6.8,0c0.5,0,0.9,0.6,1.3,0.9c0.7,0.6,1.4,1.2,2.6,0.6
		c-0.8-0.4-1.4-0.8-2.2-1.2c2.4-1.6,4.7-2.9,8-2.5c-1.9-1-3.2-0.5-4.6-0.1c-1.1,0.3-2.1,0.8-3.2,1c-0.6,0.1-1.4,0-2-0.1
		c0-0.3-0.1-0.5-0.1-0.8c1.1-0.3,2.1-0.9,3.2-1c3.6-0.2,7.1-0.3,10.7-0.3c1.9,0,3.7,0.2,5.6,0.3l-0.1-0.1c-1.2,0.4-2.3,0.8-3.5,1.2
		c0,0.1,0,0.2,0,0.3c2.8,0.4,5.6,0.8,8.8,1.2c-0.7,0.3-1.1,0.4-2,0.8c1.4,0.4,2.2,0.7,3.1,0.9C210.7,129.5,212.3,129.8,214,130.1
		L214,130.1z"/>
	<path d="M178.6,124.5c1.6-0.8,3.3-0.9,5.2-0.4c-2.9,3-2.9,3-4.6,2.6c0.3-0.6,0.5-1.2,0.8-1.9C179.5,124.7,179,124.6,178.6,124.5
		L178.6,124.5z"/>
	<path d="M248.2,105.6c0.6-0.9,1.3-1.8,1.9-2.7c0.1,0.1,0.1,0.2,0.2,0.3c-0.2,0.5-0.4,1-0.6,1.5l0.1-0.1c-0.2,0.2-0.4,0.4-0.6,0.6
		l0.1-0.1C248.9,105.2,248.6,105.4,248.2,105.6L248.2,105.6z"/>
	<path d="M208.1,130.9c0.1,0,0.3,0,0.4,0c0.4,0,0.8,0,1.2,0c0,0,0,0.1,0.1,0.1c-0.5,0-1,0-1.5,0C208.2,131,208.2,130.9,208.1,130.9z
		"/>
	<path d="M217.5,106.6c0.4-0.5,0.8-1,1.4-1.7C218.8,106.3,218.8,106.3,217.5,106.6L217.5,106.6z"/>
	<path d="M244.6,110.7c0.4-0.5,0.7-1,1.1-1.5l0,0c-0.3,0.5-0.6,1.1-0.9,1.6L244.6,110.7z"/>
	<path d="M243.6,112.3c0.3-0.5,0.6-1.1,0.9-1.6l0.1,0.1C244.3,111.3,243.9,111.8,243.6,112.3L243.6,112.3z"/>
	<path d="M242,114.2c0.4-0.5,0.7-1,1.1-1.5l0.1,0.1c-0.4,0.5-0.7,1-1.1,1.5L242,114.2z"/>
	<path d="M247.2,107.2c0.2-0.3,0.3-0.7,0.5-1l0,0C247.5,106.4,247.3,106.8,247.2,107.2L247.2,107.2z"/>
	<path d="M246.2,108.7c0.2-0.3,0.3-0.7,0.5-1l0-0.1C246.5,108,246.3,108.3,246.2,108.7L246.2,108.7z"/>
	<path d="M247.7,106.1c0.2-0.2,0.3-0.4,0.5-0.5c0,0,0,0,0,0C248,105.8,247.9,105.9,247.7,106.1L247.7,106.1z"/>
	<path d="M217,107.1c0.2-0.2,0.3-0.4,0.5-0.5l-0.1-0.1C217.3,106.7,217.1,106.9,217,107.1L217,107.1z"/>
	<path d="M216.9,107.1c-0.2,0.2-0.3,0.4-0.5,0.6c0,0,0,0,0,0C216.7,107.5,216.8,107.3,216.9,107.1L216.9,107.1z"/>
	<path d="M216,108.2c0.2-0.2,0.3-0.3,0.5-0.5c0,0,0,0,0,0C216.3,107.8,216.1,108,216,108.2C216,108.2,216,108.2,216,108.2z"/>
	<path d="M215.5,108.7c0.2-0.2,0.3-0.3,0.5-0.5c0,0,0,0,0,0C215.8,108.3,215.6,108.5,215.5,108.7L215.5,108.7z"/>
	<path d="M243.1,112.7c0.2-0.1,0.4-0.3,0.6-0.4l0,0c-0.1,0.2-0.3,0.4-0.4,0.6L243.1,112.7z"/>
	<path d="M241.5,114.8c0.1-0.2,0.3-0.4,0.4-0.6l0.1,0.2c-0.2,0.2-0.3,0.4-0.5,0.6L241.5,114.8z"/>
	<path d="M241,115.3c0.2-0.2,0.4-0.3,0.6-0.5l0.1,0.1c-0.1,0.2-0.3,0.4-0.4,0.6C241.1,115.4,241,115.3,241,115.3z"/>
	<path d="M245.7,109.2c0.2-0.2,0.4-0.3,0.5-0.5l-0.1-0.1C246,108.8,245.8,109,245.7,109.2L245.7,109.2z"/>
	<path d="M215.5,108.7c-0.2,0.2-0.3,0.3-0.5,0.5c0,0,0,0,0,0C215.2,109,215.3,108.9,215.5,108.7L215.5,108.7z"/>
	<polygon points="175.6,129.7 175.7,129.7 175.6,129.6 	"/>
	<path d="M246.7,107.7c0.2-0.2,0.3-0.3,0.5-0.5c0,0,0,0,0,0C247,107.3,246.8,107.5,246.7,107.7L246.7,107.7z"/>
	<path d="M175.6,129.6c-0.2-0.2-0.4-0.3-0.6-0.5l-0.1,0.1C175.2,129.4,175.4,129.5,175.6,129.6L175.6,129.6z"/>
</g>
</svg>
