<?xml version="1.0" encoding="utf-8"?>
<!-- Generator: Adobe Illustrator 17.1.0, SVG Export Plug-In . SVG Version: 6.00 Build 0)  -->
<!DOCTYPE svg PUBLIC "-//W3C//DTD SVG 1.1//EN" "http://www.w3.org/Graphics/SVG/1.1/DTD/svg11.dtd">
<svg version="1.1" id="Layer_1" xmlns="http://www.w3.org/2000/svg" xmlns:xlink="http://www.w3.org/1999/xlink" x="0px" y="0px"
	 viewBox="0 0 288 216" enable-background="new 0 0 288 216" xml:space="preserve">
<g>
	<path d="M126.3,145c4.6-4.6,9.1-9.2,13.7-13.7c4.4-4.3,8.7-8.7,13.3-12.8c-13.9,14.6-27.8,29.1-41.9,43.9c0.9,0,1.7,0,2.5,0
		c0.7,0,1.5-0.1,2.4-0.2c-1-1-0.2-1.5,0.4-2.1c6.8-7.3,13.5-14.7,20.3-21.9c7.1-7.5,14.3-14.9,21.4-22.4c0.2-0.2,0.3-0.4,0.6-0.6
		c-0.3-0.4-0.6-0.8-1-1.2c0.3-0.3,0.7-0.6,1.1-1c2,2.3,3.9,4.6,5.9,6.9c-0.1,0.1-0.1,0.1-0.2,0.2c-0.5-0.3-0.9-0.6-1.2-0.8
		c-7.7,8.4-15.3,16.7-23,25.1c0.3,0.6,0.7,1.5,1.1,2.6c8.7-8.6,17.4-17.2,26-25.7c0.1,0.1,0.2,0.1,0.2,0.2c-1.1,1.2-2.2,2.5-3.4,3.7
		c-7,7.4-14,14.8-21.1,22.2c-0.8,0.8-0.9,1.4-0.4,2.4c3,5.5,5.9,11,8.9,16.5c0.2,0.3,0.8,0.7,1.2,0.6c2.5-0.4,5-0.9,7.6-1.2
		c1-0.1,2.1,0,3.4,0c1.6-1.8,3.6-1.7,5.9,0.6c0.3,0.2,0.6,0.6,0.9,0.5c6.7-0.2,13.4-0.4,20.2-0.6c0-2.2,0-4.4,0-6.6
		c0-0.7,0.1-1.5,0.3-2.2c0.5-1.8,0.8-1.9,2.5-1.3c-0.2-1.8-0.6-3.5-0.7-5.2c-0.1-1.5,0.8-2.3,2.3-2.1c0.9,0.1,1.7,0.3,2.6,0.4
		c0.3-6,0.6-11.8,0.8-17.8c-0.6-0.2-0.9,0.1-1,1c-0.3,3.5-0.6,7-1,10.5c-0.1,0.8-0.2,1.7-0.3,2.5c-0.1,0.7,0,1.7-1.3,1.6
		c-0.2,0-0.5,0.7-0.7,1.1c-0.4-1.3-0.3-1.6,1.2-2c0.2-4.2,0.4-8.5,0.6-12.8c0-0.6,0.1-1.2,0.2-1.9c0.1-0.9,0.7-1.3,1.7-1.4
		c7-0.5,14-1,21-1.6c1.7-0.1,3.3,0.2,4.5,2.1c-1.2,0.3-2.2,0.6-3.4,0.9c0.2,0.8,0.5,1.5,0.8,2.3c0.1,0,0.2,0,0.2,0
		c0-0.4-0.1-0.9,0-1.3c0.1-0.5,0.3-1.1,0.9-0.4l0,0c-0.1,0.4-0.5,0.8-0.4,1.1c1.3,3.5,2.6,7,4,10.5c0.2,0.6,0.7,1.4,1.6,0.6
		c0.2-0.2,0.8,0.1,1.2,0.2c0,0.5,0,0.9,0,1.3c-2.5,0.7-3.7-0.6-4.6-3c0,0.6,0,0.7,0,0.8c1.4,3.2,1.5,6.6,1.4,10
		c0,1.1,0.4,1.7,1.5,2.4c-0.3-1.1-0.5-2-0.7-3.1c11.6-0.1,22.9,0.1,34.3,1.4c-10.7,0-21.4,0-32.1,0c-0.4,2.6-0.8,2.9-2.9,2.2
		c0.6,3.7,0,7.1-2.6,9.9c0.1,0.1,0.3,0.3,0.4,0.4c0.3-0.2,0.7-0.3,0.9-0.6c1.1-1.4,2.1-3,3.3-4.4c2.1-2.4,4.7-3.6,7.9-4
		c3.8-0.4,7.5-0.5,11.3,0.2c2,0.4,3.5,1.3,4.7,3c1,1.5,2,3,2.8,4.7c-0.2-0.2-0.4-0.3-0.5-0.5c-1-1.3-1.9-2.6-2.9-3.8
		c-1.2-1.6-2.8-2.4-4.7-2.6c-3.8-0.5-7.5-0.2-11.3,0.3c-2.9,0.5-5.2,2-7,4.3c-3.1,3.9-4.8,8.5-6.5,13c1.3,0.1,1.7-0.7,2.2-1.6
		c1-2.1,2-4.3,3.1-6.3c2.7-5.1,6.8-8,12.8-8c2.4,0,4.8,0,7.2,0.2c0.7,0,1.5,0.4,2,0.9c1.2,1.2,2.2,2.6,3.3,3.9
		c0.3,0.3,0.4,0.7,0.7,0.9c0.5,0.3,1.1,0.7,1.7,0.7c0.3,0,0.6-0.7,1.2-1.4c2.7-0.4,5.9-0.8,9.2-1.3c-0.2-4.1-0.3-8.2-1.6-12.1
		c-0.2-0.7-1.2-1.4-1.9-1.6c-8.7-1.7-17.4-3.3-26.3-3.8c-1.6-0.1-3.2-0.4-4.8-0.9c4,0.2,8,0.3,11.9,0.7c6.2,0.7,12.5,1.7,18.7,2.5
		c2.3,0.3,3.6,1.5,4,3.6c0.6,3.7,1.1,7.4,1.6,11c0,0.2,0,0.4,0.1,0.7c1.1,0.1,2.1,0.2,3.2,0.4c1.5,0.3,1.9,0.7,1.9,2.3
		c0,1.6,0,3.3,0,4.9c0,0.9-0.3,1.4-1,1.8c-3,1.9-6.3,1.5-9.6,1.5c-0.3,0-0.6-0.4-0.7-0.8c-0.3-0.7-0.5-1.5-0.8-2.4
		c-0.9,0.2-1.8,0.3-2.7,0.6c-1.1,0.4-2,0.9-1.5,2.4c0.4,1.1-0.4,1.4-1.5,1.3c0.5,1.3,0.9,2.5,1.3,3.7c-0.5,0.1-1,0.3-1.5,0.4
		c-1.3-4.3-3.2-8.1-7.5-10c-3.1-1.3-6.3-1.5-9.5-0.5c-5.9,1.8-9.5,7.3-8.9,13.8c0.6,6.2,5.4,11.1,11.2,11.7
		c7.5,0.7,12.9-3,15.1-10.2c0,0.3,0,0.7-0.1,1c-1.9,7.3-9.2,11.5-16.9,9.7c-4.1-1-7-3.4-8.9-7.1c-0.2-0.3-0.3-0.7-0.5-0.9
		c-2.5-1.4-4.2-3.5-5.3-6.5c-0.1,0.5-0.2,0.7-0.2,0.9c-0.2,1.9-0.4,1.5-2.1,2.1c-3.1,1.1-6.1,0.4-9.1,0.4c-3.1-0.1-6.2-0.4-9.4-0.7
		c-0.1-0.6-0.2-1.2-0.3-1.8c-2.4-0.2-4.8-0.4-7.2-0.6c0-0.1,0-0.3,0-0.4c2.4-0.2,4.9-0.4,7.3-0.7c0.1-1.1,0.2-2,0.4-3
		c0.1,0,0.2,0,0.3,0c0,1.9,0,3.8,0,5.8c1.5,0,2.9,0,4.2,0c0-0.1,0-0.1,0-0.2c-0.8-0.1-1.6-0.2-2.4-0.3c0-0.1,0-0.1,0-0.2
		c5.6-0.2,11.1-0.4,16.8-0.6c0-1.1-0.1-2.2,0-3.3c0.1-0.9-0.8-2.1,0.4-2.6c0-0.7-0.3-1.2-0.1-1.7c0.9-2.3,2-4.6,3-7.1
		c-0.7,0.1-1.2,0.1-1.5,0.2c-0.1,0.6,0,1.2-0.2,1.6c-0.8,1.7-1.7,3.3-2.5,5c-0.5,1.1-1.2,1.6-2.4,1.4c-0.6-0.1-1.2,0-1.9,0.1
		c0.9,0.1,1.7,0.2,2.6,0.3c0,0.1,0,0.3,0,0.4c-5,0-10.1,0-15.2,0c0-0.3,0-0.6,0-1.1c1.5,0,3,0,4.5,0c0,0,0-0.1,0-0.1
		c-0.8-0.1-1.6-0.1-2.4-0.2c0-0.1,0-0.2,0-0.3c0.4,0,0.8-0.1,1.2-0.1c3.6-0.1,7.3-0.2,10.9-0.3c0.9,0,1.3-0.3,1.7-1.1
		c0.7-1.8,1.6-3.5,2.4-5.4c-5.5,0-10.8,0-16.2,0c-0.3,2.1-0.6,4.1-0.9,6.1c-0.1,0-0.3,0-0.4,0c-0.1-2.4-0.2-4.8-0.3-7.4
		c1.9,0,3.7,0,5.4,0c4.1,0,8.2-0.1,12.2-0.1c0.8,0,1.2-0.2,1.6-0.9c0.2-0.4,0.3-0.7,0.6-1c2.8-3.2,1.8-6.9,1.8-10.7
		c-0.7,0-1.2,0-1.7,0c-5.4-0.1-10.8-0.2-16.2-0.4c-1,0-2-0.4-2.9-0.8c-0.8-0.3-0.8-1.7,0-1.9c1.2-0.4,2.6-0.6,3.9-0.5
		c0.5,0,1,1,1.6,1.6c-0.8,0.5-1.2,0.7-1.6,1c0,0.1,0.1,0.2,0.1,0.3c5.5-0.2,11.1-0.5,16.7-0.7c0.4-2.9,0.3-5.9-1.1-8.3
		c-1.8-3-2.2-6.4-3.6-9.5c-0.6-1.3-2.4-2-3.6-1.3c-0.3,0.2-0.5,0.6-0.5,0.9c-0.1,0.9-0.2,1.8-0.2,2.8c0,1.9,0,3.8,0.1,5.7
		c0,2,0.4,2.4,2.4,2.6c1.4,0.2,2.8,0.2,4.2,0.6c-1.4,0-2.9,0.2-4.3-0.1c-1.3-0.3-2.5-1-3.9-1.6c0-2.6,0-5.2,0-7.8
		c0-2.2-0.1-2.2-2.2-2.3c-1.4,0-2.8,0-4.3,0c-1,0-1.5,0.4-1.5,1.4c0,2.7,0,5.3,0,8c0,1.2,0.8,1.3,1.7,1.4c2.2,0.1,4.3,0.2,6.5,0.5
		c-2.6,0-5.1,0.1-7.7-0.1c-0.4,0-1.1-0.9-1.1-1.5c-0.2-2.9-0.2-5.8-0.3-8.8c0-0.9,0.4-1.8,1.4-1.8c2.8-0.2,5.6-0.9,8.4,0.1
		c1.4-1.7,3.2-1.3,5.3-1.1c-0.4-0.2-0.7-0.7-1.1-0.7c-5.3,0.2-10.5,0.4-16,0.6c0,10.5,0,20.9,0,31.2c-0.2,0-0.4,0-0.5,0
		c0-10.3,0-20.6,0-31.1c-0.7,0-1.1,0.1-1.8,0.1c0,5.1,0,10.1,0,15.1c0.3,0,0.7,0.1,1.5,0.2c-0.1,2.2-0.2,4.4-0.5,6.7
		c0,0.3-0.7,0.5-1.1,0.7c0,3.4,0,6.9,0,10.4c0,0.9,0.1,1.8,1.3,1.9c-0.8-0.1-1.6-0.2-2.7-0.3c-0.2-0.9-0.5-2-0.7-3
		c-0.1,0-0.1,0-0.2,0c0.1,1.9,0.2,3.7,0.4,5.7c1.1,0,1.4,0.7,1.3,1.9c0,0.4,0.2,0.8,0.6,1.1c0-1.5,0-3,0-4.5c0.5,0,0.9,0,1.5,0
		c-0.2,2.9-0.5,5.7-0.7,8.6c-0.1,0-0.2,0-0.3,0c-0.1-0.4-0.2-0.8-0.2-1.2c-0.1,0-0.1,0-0.2,0c0,0.8,0.1,1.6,0.2,2.4
		c0.2,1.4-0.3,2.1-1.8,2.1c-1.3,0-2.7,0-4-0.1c-0.6,0-1.3,0-1.4-0.9c0-0.2-0.6-0.4-1.4-0.9c0.2,1.4,0.4,2.4,0.4,3.3
		c0,0.6-0.3,1.5-0.7,1.7c-0.9,0.4-1.9,0.4-2.9,0.4c-0.1,0-0.3-0.6-0.4-0.9c0-0.9,0-1.8,0-2.7c-0.5,0-1,0-1.6,0c0-1.3,0-2.4,0-3.6
		c-0.1,0-0.1,0-0.2,0c0,1.6,0,3.1,0,4.7c-0.1,0-0.2,0.1-0.2,0.1c-0.1-0.5-0.4-1-0.4-1.6c-0.2-3.1-0.3-6.2-0.4-9.3
		c0-0.4-0.1-0.8-0.1-1.2c-0.1,0-0.3,0-0.4,0c-0.2,4.1-0.3,8.2-0.5,12.5c-3.1,0.1-6.2,0.3-9.4,0.2c-2.5-0.1-4.2,0.3-5,3.1
		c-0.7,2.3-2.9,3.6-5,4.7c-0.7,0.4-1.5,0.9-2,1.6c-4.3,6.4-18.4,9.4-23.6-1.2c-1.8-3.7-1.9-7.5-0.5-11.4c0.6-1.7,0.8-3.6,2.5-4.7
		c-2.1-1.4-0.5-3.1-0.5-4.7c0.2,1.1,0.3,2.1,0.5,3.2c0.1,0,0.2,0,0.4,0c0-1.3,0-2.7,0-4.2c-0.7,0-1.3-0.1-2.2-0.1c0,1.1,0,2,0,3
		c0,2.4,0,2.4-2.4,2.7c0,0.5,0.1,1.1,0.1,1.7c0,0.5,0.1,1,0.1,1.6c-0.1,0-0.2,0.1-0.3,0.1c-0.4-1.4-0.8-2.7-1.2-4.2
		c-0.9,0.2-1.9,0.3-2.9,0.5c4.9,7.3,5.3,14.4-1.5,20.7c-3.7,3.4-11.5,4.5-16.4,1.6c-4.2-2.5-7.8-7.4-6-15.3
		c-0.9-0.2-1.8-0.4-3.1-0.6c0.4-2.4,0.8-4.8,1.2-7.2c-2.6,0.7-5.3,1.4-8,2.1c0,0,0,0.1,0,0.1c2,0,3.9,0,5.9,0c0,0.1,0.1,0.2,0.1,0.2
		c-2.5,0.8-5.1,1.6-7.6,2.4c-1,0.3-1.7,0-2.3-1c1.9-1.9,3.7-3.9,5.6-5.8c7.5-7.7,15.1-15.4,22.6-23.1c0.4-0.4,0.7-0.9,1.1-1.3
		C125.5,145.8,125.9,145.4,126.3,145z M143.5,157.8c-0.6-0.9-1.3-1.7-1.8-2.6c-1.2-2.1-1.2-2.1,0.7-3.5c0.1,0,0.1-0.2,0.1-0.3
		c-0.6-1.3-1.1-2.6-1.7-3.8c-0.1-0.2-0.4-0.3-0.5-0.4c-0.1,0.2-0.3,0.4-0.3,0.6c0,0.4,0,0.9,0.1,1.3c0.3,1,0.6,1.9,1,2.8
		c-0.1,0-0.1,0-0.2,0.1c-0.3-0.4-0.6-0.8-0.9-1.2c-4.5,4.3-8.9,8.5-13.2,12.7c-0.1-0.1-0.2-0.2-0.3-0.3c4.3-4.6,8.5-9.3,12.8-13.9
		c-0.1-0.1-0.1-0.1-0.2-0.2c-4.8,4.5-9.5,8.9-14.3,13.4c-0.1-0.1-0.2-0.2-0.3-0.3c5.1-5.4,10.2-10.8,15.3-16.2
		c-0.6-1.4-1.2-2.8-1.8-4.2c-0.1,0-0.1,0.1-0.2,0.1c0.4,1.4,0.9,2.7,1.3,4.1c-0.1,0-0.1,0.1-0.2,0.1c-0.3-0.3-0.5-0.6-0.7-0.7
		c-2.6,3-5.1,5.9-7.6,8.8c-2.7,2.9-5.4,5.8-8.2,8.8c-0.4-0.4-0.8-0.7-1.1-1c0.2-0.3,0.3-0.5,0.5-0.6c4.9-5.5,9.8-11.1,14.8-16.5
		c0.9-1,0.9-1.7,0-2.7c-6.5,6.7-12.9,13.3-19.5,20.3c1.5,0,2.6,0,3.7,0c0,0.1,0,0.2,0,0.3c-3.2,0.5-6.5,1-9.7,1.5
		c-0.6,0.1-1.2,0.2-1.6,0.5c-2.6,2.6-5.1,5.2-7.9,8.1c1.6-0.2,2.9-0.4,4.1-0.4c1.6,0.1,2.9-0.2,3.5-1.9c0.2-0.5,0.6-0.9,0.9-1.3
		c2.2-2.8,4.8-4.7,8.6-4.1c0.6,0.1,1.3,0.1,2,0c0.8-0.1,1.6-0.3,1.7,1.2c1.1-0.5,2.1-0.9,3-1.3c0.4-0.2,0.9-0.3,1.4-0.3
		c0.8-0.1,1.6,0,2.4,0c2-0.1,2.3,0,2.9,1.9c4.4-0.2,8.7-0.3,13.1-0.5c0.2,0,0.4,0,0.6-0.1c-0.7-2.3,1.9-1.9,2.5-3.2
		c-0.6-1.4-1.3-2.8-2-4.3c-0.7,0.3-1.4,0.6-2,0.9c0.5,1.4,0.9,2.6,1.3,3.8c-0.1,0-0.2,0.1-0.4,0.1c-0.6-1.2-1.3-2.3-1.8-3.5
		c-0.2-0.4,0.2-1,0.3-1.5c0.7-0.3,1.8-0.2,1.5-1.3c-0.4-1.4-1.1-2.7-1.8-4.2c-0.6,0.3-1,0.6-1.5,0.8
		C142.5,154.9,143,156.4,143.5,157.8z M163.3,182.2c-3.6-9.9-9.8-11.3-15.8-9.8c-5,1.3-8.4,6.6-7.9,12.1c0.6,6.6,4.7,10.8,11.1,11.5
		c4.7,0.5,11-1.9,12.9-10.9c-0.1,3.1-1.5,5.7-3.3,8.1c3.6-2.7,5.6-8,4.3-11.3C164.2,182,163.8,182.1,163.3,182.2z M132.5,182.9
		c-3.4-8.2-7.4-11.1-13.4-9.9c-5.3,1-8.9,5.6-8.9,11.3c0,6,4,10.8,9.9,11.9c3.2,0.6,6.1-0.2,8.6-2.2c2.5-2,3.9-4.5,4.6-7.6
		c-0.2,3.4-1.9,6-4.4,8.3c3.5-1.4,6.3-6.3,6.1-10.6c-0.2-5.5-3.8-10-6.9-10.9c3.3,2.4,5.1,5.5,5.9,9.4
		C133.3,182.8,132.9,182.8,132.5,182.9z M223.6,175.8c1.2,0.1,2.2,0.3,3.2,0.3c0.4,0,0.9-0.3,1.2-0.7c0.7-0.9,1.2-2,2-2.8
		c7.3-7.3,18.3-5,22.4,1.8c0.2,0.3,0.6,0.5,0.9,0.7c0.1,0,0.2-0.1,0.4-0.1c-0.6-1.8,0.4-2.5,1.7-2.8c1.2-0.3,2.4-0.4,3.7-0.6
		c-0.3-1.1-0.7-2.2-1-3.4c0.1,0,0.2-0.1,0.3-0.1c0.7,1.8,1.4,3.7,2.1,5.5c0.1,0.4,0.5,1,0.7,1c2.9-0.1,5.9,0.2,8.4-1.7
		c0.2-0.2,0.5-0.6,0.5-0.8c0-1.7,0-3.3,0-4.7c-3.6,0.2-6.9,0.4-10.2,0.6c-0.4,0-0.8-0.2-1.2-0.3c-1-0.2-1.7-1.6-3-0.5
		c0,0.3,0,0.7,0,1.1c-8.4-0.2-16.8-0.4-25.2-0.7c0-0.1,0-0.3,0-0.4c6.8-0.2,13.5-0.5,20.7-0.7c-1.3-1.6-2.4-3.1-3.6-4.4
		c-0.4-0.4-1.3-0.6-2-0.7c-2.4-0.1-4.8-0.2-7.2-0.1c-5.9,0.2-11.4,4.7-12.8,10.6c1.2,0.2,2.4,0.4,3.6,0.6c0,0.1,0,0.3,0,0.4
		c-1.5,0.2-3,0.4-4.6,0.6C224.5,174.2,224.1,174.9,223.6,175.8z M183.3,180.9c-0.2-4.1-0.5-8.1-0.7-12.3c-2,0-4,0-5.9,0
		c-0.9,0-1.2,0.4-1.2,1.3c-0.1,3.4-0.4,6.7-0.5,10.1c0,0.3,0.5,0.9,0.7,0.9C178.2,180.9,180.7,180.9,183.3,180.9z M160.2,115.9
		c-0.3,0.4-0.5,0.6-0.7,0.9c-2.2,2.5-4.2,5.1-6.5,7.5c-4.5,4.9-9.1,9.7-13.7,14.5c-0.4,0.4-0.7,0.8-0.9,1.1c0.6,1,1,1.7,1.6,2.8
		c1.3-1.7,2.4-3.4,3.7-4.8c4.5-5,9.1-9.9,13.7-14.8c1.6-1.7,3.2-3.5,4.9-5.2C161.5,117.2,160.9,116.6,160.2,115.9z M166.6,171.1
		c-0.9-0.1-1.6,0-2-0.3c-0.3-0.2-0.1-1-0.1-1.5c0-0.4,0.2-0.9,0-1.1c-1-1.5-2.2-2-4-1.4c-0.4,0.1-1.1,0.5-1.1,0.7
		c0,0.4,0.3,1,0.7,1.3c2.8,2,4,4.8,4.6,8.1c0.2,1.2,0.5,2.4,0.7,3.7c0.8-0.4,1.4-0.6,2.2-1c-0.5,3-1,5.7-1.4,8.7
		c0.8-1,1.8-1.8,2.4-2.9c0.9-1.6,1.5-3.2,1.1-5.2c-0.4-2.1-0.1-4.4-0.1-6.6c-0.2,0-0.4-0.1-0.6-0.1c-1.2,0.9,0.2,2.5-0.7,3.5
		C167.9,174.9,167.2,172.9,166.6,171.1z M115.1,172.2c6.1-4,12-3.6,17.8,0.7c0.1-0.4,0.1-0.7,0.2-1.1c1,0.1,2,0.2,3,0.4
		c0-1.4,0-2.8,0-4.3c-4.3,0-8.5,0-12.7,0c0-0.1,0-0.2,0-0.2c0.3-0.1,0.6-0.2,0.9-0.3c0-0.1,0-0.3,0-0.4c-1,0-2.2-0.3-3,0.1
		C118.7,168,116.8,170,115.1,172.2z M192,157.5c0,2.3,0,4.6,0,6.9c0,0.3,0.6,0.7,0.9,0.8c1.1,0.1,2.2,0,3.3-0.1
		c0.3,0,0.8-0.4,0.8-0.6c0-2.2-0.1-4.5-0.2-6.4C195.2,156.7,193.6,158.8,192,157.5z M194.9,171.8c-1-3,1.6-1.7,2.8-2.2
		c-0.1-0.6-0.3-1.1-0.4-1.6c-3.2,0-6.2,0-9.3,0c0.1,1,0.1,2,0.2,3c0.1,0.3,0.5,0.8,0.7,0.8C190.9,171.8,192.8,171.8,194.9,171.8z
		 M118.4,166.7c-4.7,0-8.1,4.4-9.5,12c0.9,0.3,1.3-0.1,1.8-0.8c1.5-2.6,3-5.2,4.6-7.7C116.1,168.9,117.4,167.9,118.4,166.7z
		 M173.3,180.8c-0.2-4.1-0.4-8.1-0.5-12.1c-1.5-0.3-1.8,0.5-1.8,1.6c0,2.9-0.1,5.8-0.1,8.8c0,1.8,0,1.8,1.8,1.7
		C172.9,180.9,173.1,180.8,173.3,180.8z M200.3,130.1c0,0.1,0.1,0.2,0.1,0.3c7.2,0,14.4,0,21.6,0c0-0.2,0-0.3,0.1-0.5
		c-0.6-0.1-1.2-0.4-1.8-0.4c-1.1-0.1-2.1,0-3.2,0c-5.1,0-10.2,0-15.3,0.1C201.4,129.6,200.8,129.9,200.3,130.1z M194.6,178.8
		c1.5,0,2.8,0,4.1,0c0-1.4,0-2.7,0-4c-1.5,0.1-2.9,0.2-4.4,0.2C194.4,176.4,194.5,177.6,194.6,178.8z M188.6,178.9
		c0.8-3,1.3-3.4,5.3-4.1c0.1-0.4,0.2-0.8,0.3-1.4c1.6,0,3.1,0,4.6,0c0-0.1,0-0.2,0-0.3c-3.4,0-6.9,0-10.2,0
		C188.6,175.3,188.6,177.1,188.6,178.9z M221.8,177.5c0,0.8,0.1,1.7,0.2,2.8c1.5,0.1,3,0.3,4.4,0.4c0.3-1.4,0.7-2.7,1-4
		C225.4,176.9,223.7,177.2,221.8,177.5z M168.6,166.5c-1.1-1.4-2.2-1.8-3.1-1.2c-0.3,0.1-0.5,0.8-0.5,0.9c0.7,0.8,1.1,2.1,2.6,1.8
		c0.4-0.1,1.1,0.3,1.4,0.7c0.2,0.2-0.2,0.8-0.4,1.2c-0.1,0.2-0.4,0.3-0.7,0.4c0.4,0.9,0,2.3,1.6,2.2c0.2-1.7,0.5-3.3,0.7-4.9
		c-0.5-0.1-1.2-0.1-2-0.2c0.3-0.1,0.4-0.2,0.8-0.4c-0.8-0.1-1.5-0.1-2.1-0.1c0,0,0-0.1,0-0.1C167.4,166.6,167.9,166.6,168.6,166.5z
		 M195,156.2c0.7-0.6,1.3-1.1,2.1-1.8c0.1-0.3,0.2-0.8,0.3-1.4c0.1-2.3,0.4-3.6-2.4-3.1c0,1-0.1,2-0.1,3
		C194.9,153.9,195,154.9,195,156.2z M193.9,176.5c-3.9-0.3-3.9,1.5-4,5.9c1.6,0.3,2-0.1,2-1.5c0-0.5,0-1,0-1.5
		c0-1.7,0.2-1.8,1.9-1.4C193.8,177.6,193.9,177.1,193.9,176.5z M146.2,165c0.4,0.7,0.7,1.6,1.2,1.7c1,0.3,2.1,0.1,3.4,0.1
		c-0.6-1.2-1-2.2-1.5-3.2c-0.7,0.3-1.3,0.6-1.9,0.8C147.1,164.5,146.8,164.7,146.2,165z M223.9,181.6c0.3,2.1,1.5,3.9,2.9,4.7
		c-0.2-1.7-0.4-3.3-0.6-5.1C225.4,181.3,224.7,181.5,223.9,181.6z M144.6,168.1c-0.1,1.1-0.3,2.2-0.4,3.1c1.9-1.1,3.7-2.1,5.6-3.1
		C148.1,168.1,146.4,168.1,144.6,168.1z M163.4,175.2c-1-3.5-5.4-6.2-9.7-6C157.6,169.9,160.8,171.8,163.4,175.2z M156,171.2
		c1.1,0.7,2.5,1.4,3.6,2.4c1.1,1,2.1,2.3,2.9,3.6c0.8,1.2,1.3,2.6,2.2,4.3C163.8,176.3,159.9,171.9,156,171.2z M138.6,172.4
		c-0.1-1.5-0.2-2.9-0.3-4.4C137.4,168.9,137.6,171.5,138.6,172.4z M198.5,172.5c-0.2-0.6-0.2-1.3-0.4-1.4c-0.7-0.2-1.4-0.2-2.2-0.2
		c0,0.5-0.1,0.8-0.1,1.2C196.6,172.2,197.4,172.3,198.5,172.5z M108.3,177.7c0.7-2.4,1.5-5.1,2.2-7.5
		C109,172.3,108.4,175,108.3,177.7z M184.6,181.1c-0.2-1.9-0.4-3.6-0.6-5.5C183.5,180.7,183.5,180.7,184.6,181.1z M174.5,181.1
		c-0.1-1.5-0.2-2.8-0.3-4.3C173.7,178.6,173.8,180.2,174.5,181.1z M134.9,178.6c-0.7-1.9-1.6-3.5-3.3-4.7
		C132.7,175.4,133.8,177,134.9,178.6z M130.2,166.2c-0.1-0.2-0.1-0.5-0.2-0.7c-1,0.3-2,0.5-3,0.8c0,0.2,0.1,0.3,0.1,0.5
		C128.1,166.6,129.1,166.4,130.2,166.2z"/>
	<path d="M137.9,77.9c0.4-0.3,0.8-0.5,1.4-0.8c5.3,9.9,10.5,19.8,15.8,29.7c-0.1,0.1-0.2,0.1-0.3,0.2c-3.3-5.6-6.6-11.1-10-16.9
		c-20,21.2-39.8,42.2-59.7,63.4c0.1,0.1,0.2,0.3,0.3,0.5c0.1,0.2,0.3,0.3,0.5,0.5c18-18.4,35.9-36.8,53.8-55.2
		c0.1,0.1,0.1,0.1,0.2,0.2c-1.1,1.2-2.2,2.5-3.3,3.6c0.4,0.5,0.9,0.8,1.1,1.3c2.5,4.9,4.9,9.8,7.3,14.8c0.2,0.4,0.2,1,0.3,1.5
		c-0.1,0.1-0.3,0.1-0.4,0.2c-3.2-5.4-6.3-10.8-9.5-16.3c-1.7,1.8-3.4,3.6-5,5.4c-0.2,0.2-0.1,0.9,0.1,1.3c2.2,4.6,4.5,9.2,6.8,13.8
		c0.3,0.6,0.5,1.2,0.8,1.8c-0.1,0.1-0.2,0.1-0.3,0.2c-2.9-5.1-5.8-10.2-8.8-15.5c-2.8,3-5.5,5.9-8.2,8.7c2.8,6,5.6,11.8,8.3,17.7
		c-0.1,0-0.2,0.1-0.3,0.1c-0.5-0.8-1-1.5-1.4-2.3c-0.1,0-0.1,0.1-0.2,0.1c0.4,0.9,0.8,1.8,1.2,2.8c-0.1,0-0.2,0.1-0.3,0.1
		c-3-5.5-6-11-9.1-16.6c-4.9,5.2-9.8,10.3-14.5,15.3c2.6,5.9,5.2,11.7,7.9,17.6c-0.1,0-0.2,0.1-0.3,0.1c-0.5-0.9-1-1.8-1.5-2.7
		c-0.1,0-0.1,0-0.2,0.1c0.4,0.9,0.8,1.9,1.1,2.8c-0.1,0-0.2,0.1-0.3,0.1c-2.8-5.3-5.7-10.7-8.6-16.2c-1.7,1.7-3.3,3.4-4.8,5.1
		c-0.2,0.3-0.1,1,0.1,1.4c2.2,5,4.5,10,6.7,15c0.2,0.4,0.3,0.8,0.2,1.3c-2.8-5.3-5.7-10.6-8.6-16.1c-2.9,3-5.7,5.9-8.5,8.9
		c3.7,4.6,7.3,9,11,13.5c-0.1,0.1-0.2,0.2-0.3,0.3c-0.7-0.8-1.4-1.6-2.1-2.5c-0.1,0.1-0.2,0.2-0.4,0.3c1,1.2,1.9,2.5,2.9,3.7
		c-0.1,0.1-0.2,0.2-0.3,0.2c-6.4-7.2-12.7-14.5-19.1-21.7c-1.1,0.1-1.3,0.8-1.3,1.8c0,0.8,0,1.7,0,2.5c-1.6,0.5-1.8,1.2-1.3,2.9
		c0.3,1.1,0.9,0.8,1.8,0.6c-0.5-0.7-0.9-1.2-1.4-1.8c0.3-0.3,0.7-0.6,1.1-1c5.2,6.4,10.3,12.7,15.4,19c-0.1,0.1-0.2,0.2-0.3,0.2
		c-1.6-1.7-3.2-3.4-4.7-5.1c-2.4-2.6-4.7-5.3-7.1-7.9c-1.6-1.8-1.6-1.8-4.2-2.3c1.7,6.4,3.4,12.7,5.2,19c-0.1,0-0.2,0.1-0.3,0.1
		c-0.6-1.5-1.2-3-1.8-4.5c-0.1,0-0.1,0-0.2,0c0.1,0.5,0.1,1.1,0.2,1.6c-0.1,0-0.1,0-0.2,0.1c-1.2-3.4-2.4-6.8-3.7-10.1
		c-0.2-0.6-0.7-1.1-1.1-1.7c-0.1-0.1-0.2-0.2-0.2-0.3c-0.6-2.1-1.4-4.2-1.7-6.4c-0.4-2.4,1.1-4.1,2.6-5.7c0.4-0.4,0.6-1,0.7-1.5
		c0.5-1.9,2.1-2.5,3.5-1.1c1.4,1.4,2.6,3.1,4.2,5.1c0.2-0.4,0.4-0.9,0.7-1.2c10-10.8,20.1-21.6,30.2-32.3
		c9.2-9.8,18.5-19.4,27.9-29.1c0.7-0.7,0.8-1.2,0.3-2.1C141.5,84.3,139.7,81.1,137.9,77.9z M76.6,161.2c0-0.4,0-0.9-0.1-1.3
		c-0.3-1-0.6-2-1-3c-0.7-1.8-0.6-3.4,0.5-5c0.3-0.4,0.3-1,0.5-1.5C73.6,153.1,73.6,158.1,76.6,161.2z"/>
	<path d="M146.1,76.1c0.2,0.6,0.3,1.3,0.6,1.8c0.9,1.7,1.8,3.3,2.8,5c0.4-0.2,0.7-0.3,1.1-0.5c0.6,1.2,1.3,2.3,2,3.6
		c1-2.1,1.1-4.5,3.6-5.4c1.6,1.3,1.7,1.7,0.4,3.4c-0.6,0.8-1.1,1.6-1.7,2.4c-0.1,0.2-0.2,0.5-0.4,0.5c-1.9,0.4-0.8,1.3-0.4,2
		c1.3,2,2.7,3.8,4,5.8c2.9,4.5,5.9,9,8.7,13.5c1.7,2.8,3.3,5.6,5,8.5c-0.4,0.3-0.8,0.5-1,0.6c-2.9-2.5-5.8-4.9-8.7-7.4
		c0.4-0.4,0.7-0.7,1-1.1c0.8,0.7,1.5,1.4,2.3,2.1c1.1,1.3,2.2,2.6,3.2,3.9c0.1,0,0.1-0.1,0.2-0.1c-0.7-1.3-1.5-2.7-2.2-4
		c-0.5,0.1-0.9,0.2-1.3,0.3c-0.5-1-0.8-2.1-1.4-3.1c-1.5-2.3-3.2-4.6-4.8-6.9c0.1,0.4,0.3,0.8,0.4,1.2c-0.1,0-0.2,0.1-0.3,0.1
		c-5.6-9.6-11.3-19.3-17-29.1c-0.7,0.8-1.3,1.5-1.9,2.3c-0.1-0.1-0.2-0.1-0.3-0.2c3.3-4.8,6.5-9.7,9.7-14.4c1.1,0.4,2.1,0.6,3,1.1
		c0.4,0.3,0.6,1,0.9,1.6c0.3,0.6,0.5,1.2,0.8,1.8c1.9,3.6,3.9,7.1,5.9,10.7c0.2,0.3,0.3,0.6,0.1,1.1c-2.5-3.9-5.1-7.7-7.7-11.7
		c-0.8,1.4-1.5,2.8-2.3,4.1c-0.9,1.6-1.7,3.3-2.7,4.9C147.4,75,146.7,75.5,146.1,76.1c1.9-3.9,3.8-7.9,5.7-11.9
		c0.2-0.3,0.1-0.8,0.2-1.2c-0.1,0-0.3-0.1-0.4-0.1c-2.3,2.9-4.6,5.8-7,8.8c-0.1-0.1-0.2-0.1-0.2-0.2c0.2-0.4,0.3-0.7,0.5-1.1
		c-0.1,0-0.1-0.1-0.2-0.1c-0.4,0.5-0.8,1-1.2,1.5c0.3,0.6,0.6,1.3,1,1.8C145,74.5,145.6,75.3,146.1,76.1z"/>
	<path d="M126.3,145c-0.4,0.4-0.9,0.8-1.3,1.2c-1.8,1.7-3.6,3.4-5.4,5.1c-4.1,4.1-8.2,8.2-12.3,12.3c-0.2,0.2-0.5,0.4-0.7,0.7
		c-0.1-0.1-0.2-0.2-0.3-0.3c18.3-19.2,36.6-38.5,55-57.8c0.4,0.3,0.7,0.6,1.1,1c-1.8,1.9-3.6,3.7-5.3,5.6c-5.3,5.5-10.7,11-16,16.5
		c-4.5,4.7-9.1,9.3-13.7,14C127.1,143.9,126.7,144.4,126.3,145z"/>
	<path d="M246,181.1c1.3,2.4,0,5.6-2.7,6.8c-2.9,1.2-6.2,0.3-7.6-2.2c-1.5-2.7-0.9-6,1.5-7.7c2.6-1.9,6-1.6,8.4,0.9
		c-0.2,0.3-0.4,0.5-0.6,0.7C245.4,180.1,245.7,180.6,246,181.1c-0.2-0.1-0.4-0.3-0.3-0.2c-0.6,0.4-1.1,1-1.4,0.9
		c-1.5-0.5-0.2-1.5-0.1-2.5c-1.2,0.6-2.3,1.2-2.2-0.8c0-0.1-0.3-0.3-0.4-0.2c-0.2,0-0.4,0.2-0.5,0.3c-0.6,1.1-1,1.1-1.9,0
		c-0.2,0.5-0.3,1.2-0.7,1.5c-0.4,0.2-1.1,0.1-1.9,0.1c0.5,0.4,0.8,0.7,1.3,1c-0.6,0.7-1.2,1.4-1.8,2c0.6,0.1,1.2,0.2,2,0.3
		c-0.5,0.9-0.8,1.5-1.2,2.2c0.1,0.1,0.3,0.4,0.6,0.6c0.8-1.4,1.1-1.5,2.1-0.7c-0.2,0.6-0.4,1.2-0.6,1.8c0.5,0.1,0.9,0.1,1,0.1
		c0.3-0.6,0.4-1.3,0.8-1.6c0.3-0.2,0.9,0,1.4,0c-0.1,0.7-0.2,1.1-0.3,1.7c0.7-0.3,1.1-0.4,1.2-0.5c-0.1-0.8-0.2-1.4-0.1-1.9
		c0.1-0.2,0.9-0.5,1.1-0.4c0.3,0.2,0.5,0.8,0.7,1.3c0.3-0.5,0.7-1.1,1-1.6c-0.7-0.2-1.2-0.2-1.6-0.4c-0.2-0.1-0.2-0.9,0-1
		c0.5-0.3,1.2-0.5,1.9-0.7C246,182,246,181.6,246,181.1z"/>
	<path d="M248.9,180.8c-0.5,0.1-0.9,0.3-1.3,0.4c-2.8-5-5.3-6.4-9.1-5.3c-3,0.9-5,4-4.8,7.5c0.3,3.3,2.6,5.7,5.8,6.2
		c4.2,0.6,6.9-1.3,8.8-6.3c0.2,3.2-2.8,6.6-6.5,7.1c-4.5,0.6-8.3-2-9.1-6.3c-0.8-4.3,1.9-8.6,5.9-9.6
		C243.1,173.2,247.3,175.8,248.9,180.8z"/>
	<path d="M144.3,142.4c8.3-8.6,16.5-17.2,24.9-25.9c0.4,0.4,0.8,0.7,1.2,1.1c-8.6,8.4-17.2,16.7-25.8,25
		C144.5,142.6,144.4,142.5,144.3,142.4z"/>
	<path d="M156.8,90.3c0.6-1.3,1.3-2.6,1.9-3.8c-0.1,0-0.2-0.1-0.3-0.1c-0.7,0.9-1.3,1.8-2,2.7c-0.1,0-0.2-0.1-0.3-0.1
		c1.6-3.2,3.1-6.4,4.7-9.6c0.9,0.2,1.6,0.3,2.6,0.6c-2.3,3.7-3.8,7.5-6.5,10.7C156.9,90.4,156.9,90.3,156.8,90.3z"/>
	<path d="M148.7,80.7c0.6-1.4,1.3-2.9,2-4.3c0.1-0.2,0.7-0.2,0.9-0.3c0.3-0.4,0.6-0.9,0.9-1.3c1.9,1.6,2,2.4,0.7,4.1
		c-0.6,0.9-1.3,1.7-1.9,2.5c-0.2,0.3-0.5,0.4-0.8,0.7c-0.1-0.1-0.3-0.2-0.4-0.3c0.5-1.3,1-2.5,1.5-4c-1,1.1-1.8,2.1-2.6,3.1
		C148.9,80.8,148.8,80.7,148.7,80.7z"/>
	<path d="M233.4,148.3c-2.4-1.2-4.6-0.3-6.8-0.5c0-0.4-0.1-0.7-0.1-1.2c2,0,4-0.1,5.9,0c1.1,0,1.8,0.9,1.7,1.9
		c0,0.5-0.9,1.3-1.4,1.4c-1.8,0.3-3.7,0.4-5.5,0.4c-1.1,0-1-0.8-0.8-1.2c0.6,0.3,1.2,0.6,1.8,0.7
		C229.9,149.8,231.6,149.6,233.4,148.3z"/>
	<path d="M84,179.4c-0.1-0.6-0.1-1-0.2-1.6c3.6-0.4,7-0.7,10.5-1.1c0,0.1,0.1,0.3,0.1,0.4C90.9,177.9,87.5,178.6,84,179.4z"/>
	<path d="M222.6,131.6c0.4-0.2,0.8-0.3,1.4-0.6c1.1,3.7,2.3,7.2,3.4,10.8c-0.1,0.1-0.3,0.1-0.4,0.2
		C225.6,138.5,224.1,135,222.6,131.6C222.7,131.6,222.6,131.6,222.6,131.6z"/>
	<path d="M240.6,149.7c-0.4,0.5-0.7,1.3-1.1,1.4c-1.6,0.3-2.3-0.2-2.8-1.6c1.2-0.1,2.4-0.1,3.5-0.2
		C240.3,149.4,240.4,149.5,240.6,149.7z"/>
	<path d="M147.6,188.7c3.5,3.5,8.6,1.4,10.7-4.4c0.4,3.1-2.4,6.2-5.7,6.7c-3.9,0.7-7.6-1.9-8.4-5.8c-0.8-3.7,1.4-7.8,4.9-8.8
		c4-1.2,8.1,1.1,9.7,5.5c-0.4,0.2-0.8,0.3-1.2,0.6c-0.3-0.4-0.5-0.8-0.6-1c-0.7-0.3-1.4-0.4-1.6-0.8c-1.6-2-3.5-2.3-5.7-0.8
		c-1.5,1.1-1.8,3.8-0.6,5.5c1.4,2.1,4.5,2.8,6.6,1.5c1.1-0.7,1.2-2,1.3-3.2c0-0.4,0-0.7,0-1.1c0.9,1.5,0.3,4-1.2,5.6
		C153.7,190.3,150.9,190.4,147.6,188.7z M147.1,181.2c-1.2,2-0.7,5,1.2,6.5c1.7,1.5,4.6,1.7,6,0.4
		C149.5,189,146.3,185.4,147.1,181.2z"/>
	<path d="M154.7,181.6c-0.4,0.3-0.7,0.5-1,0.7c-1.9-1.2-2.7-1.2-3.3-0.3c-0.6,0.9-0.1,2.3,0.9,2.9c1.2,0.7,1.9,0.2,3.2-1.8
		c0.1,1.4-0.6,2.5-1.9,2.9c-1.3,0.4-2.7-0.5-3.3-2c-0.6-1.4-0.2-2.8,1.1-3.6C151.9,179.4,153.3,179.8,154.7,181.6z"/>
	<path d="M126.8,183.5c1.7,4.6-1.9,7.6-7.6,6.6c3.6,2.3,7.4,0.2,9-5c0.5,2.6-1.9,5.8-4.9,6.5c-3.5,0.8-7.3-1.5-8.2-5.1
		c-1-4.1,1.1-8.3,4.6-9.3c3.8-1,7.6,1.3,9,5.5c-0.4,0.1-0.9,0.3-1.3,0.4c-0.2-0.4-0.4-0.8-0.5-0.8c-0.7-0.4-1.3-0.5-1.6-0.8
		c-1.5-2-2.3-2.1-4.8-1c-1.6,0.7-2.1,3-1.3,4.9c1,2.5,4.5,3.7,6.5,2c0.8-0.6,0.8-2.2,1.2-3.3C126.9,184,126.8,183.7,126.8,183.5z
		 M117.6,182.4c-1.2,2.3,0,5.3,1.7,6.4c1.7,1.2,4.1,1.2,5.3-0.1C119.9,189.7,117.3,186.5,117.6,182.4z"/>
	<path d="M124.9,182.4c-0.4,0.3-0.7,0.5-1,0.7c-1.6-1.2-2.3-1.3-2.9-0.4c-0.6,0.8-0.3,2.2,0.6,2.8c1,0.8,1.7,0.4,3.1-1.7
		c0.1,1.5-0.8,2.7-2.1,2.9c-1.2,0.2-2.4-0.8-2.9-2.2c-0.5-1.5,0-2.8,1.3-3.5C122.4,180.3,123.6,180.7,124.9,182.4z"/>
	<path d="M243.3,181.5c-0.4,0.3-0.8,0.5-1.2,0.8c-0.7-0.5-1.4-1.4-2.1-0.3c-0.3,0.4-0.2,1.4,0.1,1.7c1.1,1,1.9,0,2.6-0.7
		c0,1.1-0.7,1.7-1.7,1.9c-1,0.3-2-0.5-2.4-1.6c-0.4-1.1,0.1-2.4,1.1-3C240.9,179.8,242.1,180.1,243.3,181.5z"/>
</g>
<g>
	<path d="M78.4,85.5c0.3,0,0.6,0,0.9,0.1c0.5,0.2,0.8,0,1-0.4c0.3-0.4,0-0.6-0.3-0.9c-0.1-0.1-0.2-0.2-0.3-0.3
		c-0.2,0.2-0.4,0.4-0.7,0.8c-0.2-0.4-0.4-0.6-0.4-0.9c0-0.4,0-0.8,0.1-1.2c0-0.2,0.2-0.4,0.3-0.4c0.1,0,0.3,0.1,0.4,0.2
		c0.4,0.5,0.6,1.1,1,1.6c0.1,0.2,0.4,0.3,0.6,0.3c1,0,1.7,0.2,2.1,1.2c0.2,0.4,0.5,0.7,1.1,0.3c-0.7,1,0,1.3,0.6,1.8
		c-0.8,0.6-1.9-0.3-2.2-2c-0.8,0.4-1.2-0.4-1.9-0.6c0,0.5,0.1,1,0.1,1.5c-0.8-0.2-1.4-0.3-2.1-0.5c-0.3,0.5-0.1,0.8,0.4,0.9
		c0.3,0.1,0.6,0.3,0.9,0.4c0,0.1,0,0.1,0,0.2c-0.4,0.1-0.7,0.2-1.1,0.3c0.1,0.7,0.6,0.4,0.9,0.5c0.4,0.1,0.7,0.1,1.1,0.2
		c-0.3,0.7-0.4,0.7-1.1,0.6c-0.5-0.1-0.9-0.1-1.4,0.1c-0.2-0.2-0.3-0.3-0.6-0.6c-0.1,0.8,0.1,1.5-0.6,2.1c-0.2-0.5-0.4-0.8-0.6-1.2
		c0.2-0.2,0.4-0.4,0.6-0.6c0-0.4,0-0.8-0.1-1.2c0.4,0.1,0.6,0.2,0.9,0.3c0.1-0.3,0.2-0.5,0.3-0.8c-0.3-0.2-0.5-0.3-0.8-0.5
		c0.1-0.3,0.2-0.6,0.4-1c-0.2-0.2-0.5-0.5-0.7-0.7c-0.3-0.3-0.6-0.4-0.9-0.2c-0.2,0.2-0.4,0.6-0.4,0.9c0,0.3,0.1,0.6,0.2,0.9
		c-0.8,0.2-0.9,0.1-0.8-0.6c0-0.2,0-0.4-0.1-0.6c-0.2-0.3-0.4-0.6-0.7-1.1c0.6,0,1-0.1,1.4-0.1c0.4-0.5,0.2-1-0.3-1.4
		c1.2-0.3,1.4-0.2,1.5,1c0.2,0,0.3-0.1,0.5-0.1C77.8,84.3,78.1,84.9,78.4,85.5z"/>
	<path d="M86.6,88.2c0-0.4,0-0.7,0-1.2c0.4,0.3,0.6,0.5,1,0.8c0.4-1.1,0.7-2.2,1-3.3c0.5,0.2,0.5,0.5,0.5,0.9
		c-0.2,1.8,0.9,3,2.7,3.1c0.3,0,0.6,0.1,1.1,0.2c-1.1,0.5-1.7,0.5-3.3-0.2c0.3,0.4,0.6,0.8,1,1.3c-0.8,0.3-1.3,0-1.6-0.4
		C88.3,88.7,87.5,88.5,86.6,88.2z"/>
	<path d="M70.8,63c-0.8-1.1-1.6-2.2-2.5-3.2c-1-1.3-2-2.5-3-3.8c-0.3-0.3-0.7-0.7-0.5-1.2c0-0.1-0.3-0.3-0.5-0.4
		c-0.2-0.1-0.5-0.1-0.6-0.2c-0.8-0.9-1.5-1.8-2.3-2.7c0.8,0.4,1.2,1.4,2.1,1.9c-0.2-0.9-0.9-1.2-1.2-2c0.3,0.2,0.4,0.3,0.6,0.4
		c0.7,0.7,1.3,1.5,1.9,2.2c0.4,0.5,1,0.9,0.9,1.7c0,0.3,0.3,0.7,0.5,0.9c1.4,1.8,2.8,3.7,4.2,5.5c0.2,0.3,0.3,0.6,0.5,0.8
		C70.9,63,70.9,63,70.8,63z"/>
	<path d="M59.6,77.3c0.4,0.2,0.7,0.4,1.1,0.6c1.7,1.1,3.5,2.1,5.4,2.8c0.6,0.2,1.1,0.4,1.6,0.7c0.1,0.1,0.3,0.2,0.4,0.3
		c0.2,0.3,0.4,0.7,0.6,1.1c-1.3-0.4-1.5-0.5-1.6-1.4c-0.3-0.1-0.7-0.2-1.1-0.4c0,0.5,0,0.9,0,1.3c-0.8-0.2-1-0.5-0.9-1.6
		C63.1,79.7,61.2,78.8,59.6,77.3z"/>
	<path d="M79.5,78.4c0.2-0.4,0.4-0.6,0.6-1c0.4,0.5,0.4,1.1,1.1,1.1c0.1,0,0.2,0.5,0.3,0.7c0.1,0.3,0.2,0.6,0.4,0.9
		c-0.4,0.1-0.7,0.1-1.1,0.2c-0.2,0.3-0.4,0.6-0.6,0.9c-0.1,0.1-0.4,0.1-0.5,0c-0.3-0.2-0.2-1,0.1-1.3c0.2-0.2,0.5-0.5,0.8-0.8
		C80.1,79,79.9,78.7,79.5,78.4z"/>
	<path d="M67,66.2c-3.1-3.7-5.6-7.7-9.1-11c0,0,0.1-0.1,0.1-0.1c0.2,0.1,0.4,0.1,0.5,0.3c1.5,1.7,2.9,3.5,4.3,5.3
		c0.5,0.7,1.1,1.3,1.6,2c0.8,1,1.6,2.1,2.4,3.2C67,65.8,67,66,67,66.2z"/>
	<path d="M59.1,85.1c1,0.1,1,0.1,1.2,1.1c-0.2,0-0.3,0.1-0.5,0.1c-0.2,0-0.4,0.1-0.6,0.1c-0.2-0.5-0.4-1-0.6-1.4
		c-0.1-0.1-0.5-0.1-0.7-0.1c0.1-0.5-0.2-0.8-0.6-1.1c-0.2-0.1-0.4-0.5-0.4-0.6c0.1-0.4,0.5-0.3,0.8-0.1
		C58.3,83.3,59.1,84.4,59.1,85.1z"/>
	<path d="M48.7,86.7c-3.9-1-7.2-3.2-10.7-5.1c0-0.1,0.1-0.1,0.1-0.2c1.7,0.9,3.4,1.9,5.2,2.8C45.1,85.1,46.9,85.9,48.7,86.7z"/>
	<path d="M67.2,86.7c-0.4,0-0.7,0-1.1,0c-0.2-0.5-0.4-1-0.5-1.5c0-0.1,0.2-0.3,0.4-0.6c0.1,0.3,0.1,0.5,0.2,0.6
		c0.2,0.8,0.9,0.8,1.5,1c0.5,0.2,1,0.5,1.4,0.9c-0.6,0.2-1.1,0.3-1.6,0.4C67.3,87.3,67.2,87,67.2,86.7z"/>
	<path d="M64,84.7c-0.3-0.1-0.7-0.3-1.1-0.4c-0.7-0.2-1.4-0.4-1.2-1.4c0-0.1-0.2-0.3-0.2-0.4c0-0.3,0.1-0.5,0.1-0.8
		c0.6,0.2,0.7,0.5,0.7,0.9c0,0.4,0.1,0.6,0.5,0.7C63.6,83.4,63.9,83.9,64,84.7z"/>
	<path d="M75,90.2c-0.8-0.1-1.3-0.2-1.8-0.3c0.2-0.6,0.3-1.2,0.5-1.9c0.1-0.3,0.4-0.5,0.7-0.4c0.4,0.1,0.5,0.5,0.3,0.8
		c-0.1,0.2-0.3,0.4-0.5,0.7C74.4,89.4,74.6,89.7,75,90.2z"/>
	<path d="M61.7,55.8c2.8,2.6,5.2,5.7,7.2,9C66.8,61.6,64.2,58.7,61.7,55.8z"/>
	<path d="M73.3,80.7c-0.3,0-0.7-0.1-1-0.1c-0.2,0.2,0.1,0.9-0.5,0.7c-0.4-0.1-0.7-0.3-0.8-0.8c0-0.3,0.1-0.6,0.5-0.6
		c0.4,0,0.7-0.2,1.3-0.3c0.1,0.2,0.4,0.6,0.7,0.9C73.5,80.5,73.4,80.6,73.3,80.7z"/>
	<path d="M70.8,89.3c-0.3-0.3-0.5-0.6-0.8-0.9c-0.4,0.1-0.8,0.3-1.2,0.3c-0.2,0-0.6-0.1-0.7-0.2c-0.1-0.3,0.2-0.4,0.5-0.5
		c0.5-0.2,1,0.1,1.4-0.4c0,0,0.2,0,0.2,0.1c0.2,0.3,0.5,0.5,0.8,0.3c0,0,0.3,0.3,0.3,0.5C71.3,88.8,71,88.9,70.8,89.3z"/>
	<path d="M70.3,64.2c-1.8-2.3-3.7-4.7-5.5-7.1C66.7,59.4,69,61.4,70.3,64.2z"/>
	<path d="M74.4,80.4c0.2,0.1,0.4,0.2,0.7,0.3c0.6,0.3,1.1,0.8,1.9,0.9c0.5,0.1,1.1,0.6,1.1,1.4c-0.6-0.3-1-0.7-1.6-1
		c-0.2-0.1-0.4-0.1-0.6-0.1c-0.7-0.2-1.2-0.7-1.7-1.2C74.2,80.6,74.3,80.5,74.4,80.4z"/>
	<path d="M73.1,81.6c0.5,0.1,0.9,0.2,1.4,0.3c0,0.2,0,0.4,0.1,0.5c0.1,0.3,0.5,0.5,0.1,0.8c-0.2,0.1-0.6,0.1-1,0.1
		c0.1-0.5,0.2-0.8,0.2-1.1c-0.1,0-0.1-0.1-0.2-0.1c-0.2,0.2-0.3,0.4-0.5,0.5c-0.1,0.1-0.4,0.1-0.5,0.2c0-0.2-0.1-0.3-0.1-0.5
		C72.9,82.2,73,82,73.1,81.6z"/>
	<path d="M68.7,55.6c1.3,1.6,2.6,3.2,3.9,4.8c0.5,0.6,0.9,1.3,1.3,1.9c0.1,0.1,0.1,0.3,0.2,0.6C72.2,60.5,70.4,58.1,68.7,55.6
		C68.6,55.7,68.7,55.7,68.7,55.6z"/>
	<path d="M68.3,57.1c1.8,2.1,3.8,4.2,5,6.7C71.6,61.6,69.9,59.4,68.3,57.1z"/>
	<path d="M66.7,84.7c0.5-0.6,1.3-0.4,2-1c0.1,0.5,0.3,0.8,0.4,1.2c0.1,0.4-0.3,0.6-0.6,0.5c-0.3-0.1-0.5-0.3-0.8-0.4
		c-0.3-0.1-0.6,0-0.9,0C66.7,84.9,66.7,84.8,66.7,84.7z"/>
	<path d="M69.3,86.3c0.2-0.2,0.2-0.3,0.2-0.3c0.7-0.1,1.5-0.2,2.2-0.2c0.5,0,0.6,0.3,0.6,0.8C71.4,86.3,70.3,87,69.3,86.3z"/>
	<path d="M40.7,78.7c1.9,1.1,3.7,2.2,5.6,3.2c-2.1-0.7-3.9-1.9-5.8-3C40.7,78.8,40.7,78.7,40.7,78.7z"/>
	<path d="M83.3,82.9c0-0.7-0.1-1.2-0.1-1.8c0.5-0.4,0.7,0.2,1,0.4c0.3-0.1,0.5-0.1,0.7-0.2c0.1,0,0.1,0.1,0.2,0.1
		c-0.1,0.2-0.2,0.4-0.3,0.5c-0.5,0.1-0.9,0.3-1.1,0.9C83.7,82.8,83.4,82.8,83.3,82.9z"/>
	<path d="M59.3,88.2c0.5,0.3,0.9,0.6,1.4,0.9c-0.1,0.3-0.3,0.6-0.6,1.2c-0.2-0.5-0.3-0.7-0.5-1c-0.4,0-0.8,0-1.2,0
		c0-0.1-0.1-0.1-0.1-0.2C58.7,88.8,59,88.5,59.3,88.2z"/>
	<path d="M95.1,100.7c-0.5,0.3-0.8,0.5-1.2,0.7c-0.4,0.2-0.7,0-0.6-0.4c0.1-0.3,0.2-0.6,0.4-0.8c0.1-0.2,0.4-0.3,0.6-0.6
		C94.7,99.9,94.9,100.3,95.1,100.7z"/>
	<path d="M74.1,60.1c-1.2-1.5-2.3-3-3.5-4.5c0,0,0.1-0.1,0.1-0.1c0.1,0.1,0.3,0.2,0.4,0.3c0.3,0.4,0.6,0.9,1,1.3
		c0.5,0.6,1.1,1.2,1.7,1.8c0.2,0.3,0.4,0.6,0.6,0.9C74.3,59.9,74.2,60,74.1,60.1z"/>
	<path d="M62.6,87.8c-0.9-0.1-1.1-0.2-1-0.9c0-0.4,0.2-0.9-0.3-1.3c-0.1-0.1,0-0.4,0.1-0.6c0-0.1,0.3-0.1,0.4,0
		c0.1,0.1,0.3,0.4,0.2,0.5c-0.4,0.6-0.1,1.1,0.3,1.5C62.5,87.3,62.5,87.5,62.6,87.8z"/>
	<path d="M55.8,85.6c-0.2,0.2-0.5,0.4-0.8,0.2c-0.6-0.3-1.1-0.7-1.8-1.1c0-0.3,0.2-0.6,0.6-0.4C54.5,84.7,55.4,84.8,55.8,85.6
		L55.8,85.6z"/>
	<path d="M83.7,64.8c0.2,0.5,0.4,1,0.7,1.6c-1-0.2-0.8,0.8-1.5,1c0.4-0.6,0.7-1.2,1-1.8c-0.1,0-0.1-0.1-0.2-0.1
		c-0.5,0.3-0.9,0.7-1.4,1c-0.1-0.1-0.1-0.1-0.2-0.2C82.6,65.8,83.1,65.3,83.7,64.8L83.7,64.8z"/>
	<path d="M62.8,86.7c0.1-0.4,0-1,0.5-1.1c0.3-0.1,0.7,0.2,0.9,0.4c0.1,0.1,0,0.6-0.2,0.7C63.7,87.1,63.3,87.1,62.8,86.7z"/>
	<path d="M81.8,89.8c-0.1-0.4-0.2-0.7-0.3-1.1c0.8-0.7,1-0.5,1.4,0.8C82.7,89.9,82.3,90,81.8,89.8z"/>
	<path d="M65.6,82.9c0.2,0.4,0.3,0.8,0.5,1.3c-0.4-0.1-0.8-0.2-1.2-0.3c-0.1,0.2-0.1,0.4-0.2,0.7c-0.2-0.3-0.3-0.6-0.4-0.8
		C64.8,83.4,64.8,82.6,65.6,82.9z"/>
	<path d="M69.5,82.1c-0.1-0.8-0.1-1.5,0.7-2c0.2,0.7,0.3,1.3,0.5,1.9C70.2,82.1,69.9,82.1,69.5,82.1z"/>
	<path d="M65.9,87.8c0.2,0.3,0.5,0.6,0.7,0.8c0.2,0.2,0.5,0.3,0.7,0.6c-0.6,0-1.2,0.2-1.7-0.4C65.3,88.3,65.3,88.2,65.9,87.8z"/>
	<path d="M55.8,85.6c0.5-0.7,1,0,1.5-0.1c0.1,0.3,0.2,0.6,0.2,0.9C56.6,86.6,56.2,86.4,55.8,85.6L55.8,85.6z"/>
	<path d="M90.8,95.5c0.7,0.7,1.5,1.4,2.3,2.2c-0.4,0.3-0.9,0.2-0.9-0.1c-0.1-0.5-0.4-0.5-0.6-0.8c-0.4-0.3-0.8-0.6-0.9-1.2
		C90.6,95.6,90.7,95.6,90.8,95.5z"/>
	<path d="M53.4,86.5c-0.5-0.2-1-0.4-1.4-0.7c-0.1-0.1-0.3-0.4-0.3-0.5c0.1-0.2,0.3-0.4,0.5-0.4c0.4,0,0.8,0.2,0.9,0.6
		C53.3,85.9,53.3,86.2,53.4,86.5z"/>
	<path d="M88.5,94.5c-0.9-0.5-0.9-0.6-0.3-1.3c-0.2-0.1-0.4-0.3-0.7-0.6c0.4-0.1,0.8-0.2,1.1-0.2C88.6,93.1,88.6,93.8,88.5,94.5z"/>
	<path d="M92.5,99.7c-0.2-0.4-0.3-0.7-0.6-1.2c0.6,0.3,1,0.5,1.5,0.1c0.4-0.3,0.6,0.1,0.7,0.5C93.6,99.3,93.1,99.5,92.5,99.7z"/>
	<path d="M66.2,54.2c-0.8-1-1.7-1.9-2.5-2.9c0,0,0.1-0.1,0.1-0.1c0.8,1,1.7,1.9,2.5,2.9C66.3,54.1,66.3,54.1,66.2,54.2z"/>
	<path d="M40,80c-1.3-0.9-2.6-1.9-3.9-2.8c0.1-0.1,0.1-0.1,0.2-0.2c1.3,0.9,2.6,1.9,3.9,2.8C40,79.9,40,79.9,40,80z"/>
	<path d="M64.8,50.5c1,1.2,2.1,2.4,3.1,3.6C66.5,53.2,65.7,51.8,64.8,50.5z"/>
	<path d="M35.9,78.4c1.3,0.8,2.5,1.7,3.8,2.5c0,0.1-0.1,0.1-0.1,0.2c-0.6-0.4-1.3-0.8-1.9-1.2c-0.6-0.4-1.3-0.9-1.9-1.3
		C35.8,78.5,35.9,78.4,35.9,78.4z"/>
	<path d="M79.9,91c-0.3-0.2-0.7-0.5-1-0.7c0.2-0.1,0.5-0.3,0.9-0.5c0,0.7,1,0.4,0.9,1.3C80.4,91,80.1,91,79.9,91L79.9,91z"/>
	<path d="M79.4,76.1c0.5,0.1,0.8,0.1,1.1,0.2c0.1,0.1,0,0.5,0,0.7c-0.4,0-0.7,0-1.1,0C79.4,77,79.4,76.5,79.4,76.1z"/>
	<path d="M64.6,89.2c0.3,0.5,0.6,1,0.9,1.4c-0.2,0.4-0.6,0.4-0.9,0.2c-0.3-0.2-0.3-0.5-0.1-0.8C64.5,89.8,64.6,89.5,64.6,89.2z"/>
	<path d="M73.4,87.3c-0.2-0.6-0.4-1.1-0.6-1.7c0.5,0.1,1,0.2,1.1,0.6C74,86.6,73.9,87,73.4,87.3z"/>
	<path d="M55.5,71c1.4,0.9,2.7,1.8,4.1,2.8C58.1,73.2,56.8,72.1,55.5,71z"/>
	<path d="M63.5,89.1c-0.3-0.9,0.5-1.3,0.6-2C64.6,87.8,64.3,88.5,63.5,89.1z"/>
	<path d="M41.6,51.3c0.7,0.3,0.3,0.8,0.1,1c-0.8,0.5-1.2,1.5-2.2,1.7c-0.1,0-0.3,0.2-0.3,0.3c-0.5,0.8-1.2,1.4-2,1.9
		c-0.3,0.2-0.5,0.5-0.8,0.8c-0.7,0.6-1.4,1.1-2.2,1.7c0,0-0.1-0.1-0.1-0.1c0.2-0.2,0.4-0.5,0.6-0.7c1-0.9,2.1-1.8,3.1-2.8
		c1.2-1.1,2.2-2.3,3.4-3.4C41.3,51.5,41.4,51.4,41.6,51.3z"/>
	<path d="M89.3,59.7c0.1,0.2,0.2,0.4,0.2,0.6c0,0.2-0.1,0.4-0.2,0.6c-0.2-0.1-0.6-0.2-0.6-0.4c-0.1-0.2,0-0.5,0.2-0.8
		c0.2-0.3,0.4-0.4,0.3-0.8c0-0.1,0.3-0.4,0.5-0.6c0.1,0,0.4,0.2,0.5,0.3c0,0.2,0,0.5-0.1,0.7C89.8,59.6,89.5,59.6,89.3,59.7z"/>
	<path d="M78.1,34.3c0.4-0.1,0.7-0.3,1.2-0.5c-0.6,1.1-0.1,1.7,0.4,2.4c0.4,0.5,0.6,1.1,1,1.6c-0.1,0-0.1,0.1-0.2,0.1
		C79.7,36.8,78.9,35.6,78.1,34.3z"/>
	<path d="M90.8,65.7c-0.1-0.1-0.3-0.2-0.3-0.3c-0.1-0.5-0.4-0.8-0.8-1c-0.1,0-0.2-0.1-0.2-0.2c-0.1-0.3-0.2-0.7,0.1-0.8
		c0.2-0.1,0.5,0.2,0.7,0.3c0.1,0,0.1,0.2,0.1,0.2c0.1,0.4,0.1,0.8,0.6,1.1c0.1,0,0,0.4,0.1,0.6C90.9,65.7,90.9,65.7,90.8,65.7z"/>
	<path d="M91.3,66.5c-0.2,0.5-0.4,1.1-0.6,1.6c-0.5-0.2-0.8-0.5-0.6-0.8c0.2-0.4,0.6-0.7,0.9-1C91,66.3,91.2,66.5,91.3,66.5
		L91.3,66.5z"/>
	<g>
		<path d="M102.6,126.6c0.4,0.3,0.6,0.4,0.9,0.6c0.2,0.2,0.5,0.3,0.7,0.1c0.1-0.1,0-0.4-0.1-0.6c-0.2-0.4-0.4-0.8-0.6-1.3
			C103.1,125.7,102.6,126,102.6,126.6z"/>
		<path d="M102.6,124.2c-0.1-0.3-0.2-0.6-0.3-0.8c-0.7-0.1-0.9,0.5-1.3,0.7c-0.4-0.2-0.2-1-0.9-0.8c0.1,0.2,0.1,0.3,0.2,0.5
			c0.3,0.5,0.6,0.9,0.8,1.4c0.3,0.7,0.5,1.5,0.8,2.3c0.2,0.6,0.7,1.1,1.3,1.2c0.7,0.1,1.4,0.1,1.8,0.8c0.1,0.1,0.4,0.1,0.6,0.1
			c0-0.2,0.1-0.4,0.1-0.6c-0.2-0.7-1.1-0.5-1.3-1.1c-0.3,0.2-0.5,0.3-0.7,0.5c-0.4-0.2-0.7-0.4-1-0.7c-0.1-0.1-0.3-0.2-0.3-0.4
			c-0.2-0.4-0.3-0.8-0.5-1.3c-0.3-0.6-0.1-1,0.6-1c0.4,0,0.7,0,1.2,0c-0.1-0.4-0.2-0.6-0.2-0.9C103.1,124.1,102.9,124.2,102.6,124.2
			z"/>
		<path d="M106.6,113.5c0.2,0.4,0.3,0.7,0.5,1.1c0.2,0.3,0.4,0.8,1,0.6c-0.2-0.6-0.8-1.2-0.4-1.9c0.3,0,0.6,0.1,0.9,0.1
			c-0.1-0.3-0.2-0.6-0.3-0.8c0.2-0.3,0.5-0.5,0.7-0.7c-0.3-0.5-0.7-0.9-1.5-0.7c0.1,0.2,0.1,0.5,0.2,0.8c-0.4-0.1-0.6-0.1-0.8-0.2
			c0,0.1,0,0.1-0.1,0.2c0.3,0.2,0.5,0.5,1,0.8c-0.4,0-0.6,0-0.8,0.1C106.6,113,106.5,113.1,106.6,113.5z"/>
		<path d="M103.6,108.6c-0.2,0.2-0.3,0.7-0.8,0.5c-0.4-0.1-0.6,0.2-0.5,0.6c0.1,0.3,0.2,0.5,0.3,0.9c0.6-0.8,0.7-0.8,1.6-0.5
			C104.4,109.3,104.4,109.2,103.6,108.6z"/>
		<path d="M110.7,114.8c0.3,0.3,0.6,0.5,1,0.2c-0.3-1.1-1.2-1.6-2.3-2.2c0.1,0.4,0,0.7,0.2,0.8C109.9,114.1,110.3,114.4,110.7,114.8
			z"/>
		<path d="M103,110.9c-0.1,0.6,0.5,0.8,0.9,1c-0.1,0.6,0.1,1,0.6,1.4c0.6,0.6,1.5,1.2,1.3,2.3c0,0.2,0.3,0.6,0.5,0.6
			c0.8,0.1,1.4,0.5,2,1c0.2,0.1,0.5,0.1,0.8,0.1c0.3,0,0.5-0.2,0.9-0.3c-0.3-0.4-0.5-0.8-0.8-1.3c-0.1,0.4-0.2,0.7-0.2,1
			c-0.6-0.3-1.1-0.5-1.7-0.8c-0.5-0.8-1-1.7-1.5-2.6c0,0-0.1-0.1-0.1-0.1c-1-0.4-1-1.4-1.5-2.1c0.7-0.3,1.5-0.3,1.9-1
			c0.1,0,0.1,0.1,0.2,0.1c0,0.4,0,0.8,0,1.2c0.2,0,0.4,0.1,0.7,0.1c0-0.2-0.1-0.4-0.1-0.6c0.1-0.8,0-0.8-0.7-1.1
			c-0.7-0.3-1.1,0.1-1.7,0.2c0,0,0,0,0,0C103.8,110.3,103.4,110.6,103,110.9z"/>
		<path d="M109,118c-0.1,0.1-0.1,0.5,0,0.6c0.1,0.1,0.4,0.2,0.6,0.2c0.1,0,0.3-0.1,0.4-0.1c0.5,0.5,0.3,1.1,0.1,1.9
			c0.6-0.6,1.2-0.7,1.6-0.4c0.5,0.6,1.5,0.6,1.6,1.6c0,0,0,0.1,0,0.1l0.5-0.5c-0.2-0.3-0.4-0.7-0.7-0.9c-0.5-0.4-1.1-0.7-1.7-1.1
			c1.1-0.3,2.3,0.2,2.8,1.1c0.1,0.1,0.2,0.2,0.2,0.3l1.1-1.2c-0.4-0.4-0.7-0.8-1.1-1.2c-0.1,0-0.1,0.1-0.2,0.1c0,0.3,0,0.6,0,1
			c-1.4-0.6-2.7-1.1-4.1-1.6c-0.2,0-0.5,0.1-0.8,0.1C109.3,117.9,109,117.9,109,118z"/>
		<path d="M110.6,123.6c0,0-0.1-0.1-0.1-0.1c0.2-0.1,0.4-0.3,0.6-0.5c-0.9-0.8-1-0.9-2-0.4c-0.5-0.1-0.8-0.8-1.5-0.3
			c0.7,0.3,0.4,0.7,0.2,1.1c0.1,0,0.1,0.1,0.2,0.1c0.2-0.2,0.4-0.4,0.6-0.5c0.6,0.2,1.1,0.3,1.6,0.5c-0.2,0.4-0.4,0.8-0.6,1.2
			c0.3,0.1,0.4,0.2,0.6,0.3c0.2-0.5,0.5-0.7,1-0.7l0.6-0.7C111.4,123.5,111,123.5,110.6,123.6z"/>
		<path d="M110.7,116.6c0.1,0.4-0.1,1,0.7,1.1c-0.1-0.4-0.4-0.8-0.3-1.1c0.1-0.6-0.3-0.9-0.7-1.2c-0.1-0.1-0.4,0-0.5,0
			c0,0.2-0.1,0.5,0,0.6C110.1,116.3,110.5,116.4,110.7,116.6z"/>
		<path d="M108.4,120.5c0-0.3-0.6-0.7-0.8-0.6c-0.3,0.2-0.3,0.5-0.1,0.8c0.1,0.3,0.1,0.6,0.2,1.1C108.2,121.4,108.4,121,108.4,120.5
			z"/>
		<polygon points="104.2,110 104.2,110 104.2,110 		"/>
		<path d="M83.6,116.1c0.2-1.8,0.4-3.6,0.6-5.4c0.1-1.8,0.3-3.6,0.2-5.4c-0.2,0.3-0.2,0.7-0.2,1c-0.1,2-0.2,4-0.3,6
			c0,0.3,0,0.7-0.1,0.9C83.2,114.2,83.6,115.2,83.6,116.1z"/>
		<path d="M88.7,136.8c0.2,0.3,0.5,0.5,0.6,0.8c0.4,1.2,1.1,2.3,1.7,3.3c0.1,0.2,0.2,0.4,0.3,0.8c-0.4,0.1-0.8,0.2-1.1,0.2
			c-0.1,0.3-0.1,0.6-0.2,1c0.6-0.3,1.1-0.6,1.6-1c0.2,0.4,0.4,0.8,0.5,1.1c0.2,0.3,0.2,0.6,0.2,0.8l0.5-0.5c0,0,0-0.1-0.1-0.1
			c0,0,0.1,0,0.1,0l0.7-0.7c-0.2-0.2-0.3-0.5-0.4-0.7c-0.1-0.2,0-0.5,0-0.8c-0.2,0-0.3-0.1-0.5-0.1c-0.7,0.2-1-0.3-1.2-0.8
			c-0.4-1-0.8-2-1.2-3c-0.2-0.5-0.3-1-0.5-1.4c-0.2,0-0.2,0-0.3-0.1c-0.3,0-0.5,0-0.8,0c0-0.3,0.1-0.5,0.1-0.8c0-0.3,0.1-0.7,0-0.9
			c-0.6-0.9-0.6-1.9-0.9-2.8c-0.2-0.5-0.3-1.1-0.5-1.7c-0.4-1.2-1.3-2.2-1.4-3.6c0-0.2-0.1-0.3-0.2-0.5c-0.3-0.7-0.6-1.4-0.8-2.1
			c-0.3-1-0.5-2-0.7-2.8c-0.5,0-0.9-0.1-1.4-0.1c0,0.3,0,0.7,0.1,1.1c0.5,3.1,1.3,6.2,2.3,9.2c0.2,0.5,0.4,1,0.8,1.4
			c0.6,0.7,1,1.4,1.3,2.3c0.1,0.3,0.4,0.6,0.7,1C88,135.8,88.4,136.3,88.7,136.8z"/>
		<path d="M115.5,116.8c0,0.3,0,0.7,0.1,0.8c0.4,0.3,0.6,0.7,0.7,1.1l0.7-0.7c0,0,0-0.1-0.1-0.1c-0.3-0.4-0.3-0.8,0.1-1.2
			c-0.5-0.1-0.9-0.1-1.4-0.2c0-0.4-0.1-0.7-0.1-1.1c0-0.7-0.3-1.2-1-1.5c-0.6-0.3-0.6-0.5-0.3-1.1c0.1-0.2,0.2-0.3,0.4-0.5
			c-0.3-0.3-0.5-0.6-0.8-0.9c-0.1,0-0.2,0-0.2,0c-0.1,0.5-0.2,0.9-0.3,1.4c-0.2,0.8-0.2,1,0.6,1.4c0.4,0.2,0.6,0.6,0.5,1
			C114.4,116.2,114.7,116.7,115.5,116.8z"/>
		<path d="M102,107.7c-0.1-0.3-0.2-0.7-0.7-0.6c-0.4,0-0.5,0.3-0.7,0.6c-0.1,0.3-0.4,0.5-0.7,0.7c-0.2,0.2-0.5,0.3-0.7,0.5
			c0.5,0.6,0.5,0.6,1,0.6c0.8-0.1,0.9,0,0.7,0.9c-0.5-0.1-1-0.3-1.3,0.2c-0.1,0.1,0,0.4,0,0.5c0.2,0.5,0.7,0.4,1.1,0.2
			c0,0.5-0.2,0.9-0.1,1.3c0.1,0.3,0.5,0.5,0.8,0.8c-0.2,0.2-0.4,0.5-0.6,0.8c0.2,0.3,0.5,0.6,0.7,0.9c-1,1.2-1,1.5,0.2,2.1
			c-0.3,0.1-0.5,0.1-0.6,0.2c-0.2,0.1-0.4,0.3-0.4,0.5c0,0.2,0.1,0.4,0.3,0.6c0.3,0.2,0.6,0.3,1,0.5c1-0.8,1-1.1,0.1-1.9
			c-0.2-0.2-0.3-0.5-0.4-0.9c0.6-0.2,1-0.1,1.2,0.4c0.2,0.4,0.5,0.7,0.9,1c0.1,0.1,0.4,0,0.5-0.1c0.1,0,0-0.4-0.1-0.5
			c-0.2-0.2-0.5-0.4-0.8-0.6c0.4-0.2,0.7-0.3,1-0.3c0.3,0.6,0.6,1.2,0.9,1.8c-0.3,0.4-0.6,0.8-0.9,1.2c-0.4-0.2-0.7-0.4-0.9-0.6
			c-0.5,0.4-0.5,0.8-0.2,1.2c0.4,0.5,0.8-0.1,1.2-0.1c0.3,0.2,0.6,0.4,0.9,0.7c-0.4,0.5-0.7,1-1.2,1.7c-0.1-0.4-0.1-0.6-0.2-0.7
			c-0.2-0.3-0.5-0.8-0.8-0.9c-0.7-0.3-1.5-0.4-2.3-0.7c-0.2,0.4-0.1,0.5,0.3,0.7c0.7,0.5,0.8,0.9,0.5,1.8c-0.3-0.2-0.7-0.3-1.1-0.5
			c-0.1,0.2-0.1,0.3-0.2,0.4c0.2,0.2,0.4,0.4,0.7,0.6c0.3,0.2,0.6,0.5,0.9,0.5c0.6,0.1,1.3,0.1,1.8-0.5c0.2-0.2,0.5-0.5,1-0.4
			c1,0.3,1.3,1.2,0.8,2.1c-0.2,0.3-0.4,0.6-0.9,0.7c-0.1,0-0.2,0.2-0.3,0.3c0.8,0.5,1.7,0.1,2.2-0.8c0.3,0.7,0.9,0.4,1.5,0.3
			c-0.2,0.3-0.3,0.5-0.5,0.7c0.7,0.1,1.4-0.1,1.9,0.6c-0.2,0.2-0.4,0.4-0.7,0.6c0.1,0,0.1,0.1,0.2,0.1l1.2-1.3
			c-0.7-0.7-1.6-1.1-2.7-1.3c-0.7-0.1-0.9-0.3-0.8-1.1c0.3,0,0.6-0.1,0.8-0.1c-0.6-0.2-0.8-1.2-1.6-0.9c-0.2-0.4-0.4-0.8-0.7-1.2
			c0.4-0.3,0.8-0.6,0.5-1.2c0.4,0,0.6,0,0.9,0c0-0.2,0-0.3,0-0.4c-0.2-0.5-0.5-1.1,0-1.6c0.1-0.1,0-0.4-0.1-0.5
			c-0.5-0.5-1-0.9-1.5-1.3c0.2-1,0.2-1.2-0.6-1.8c-0.1,0.1-0.1,0.1-0.2,0.2c-0.3,0.9-1,1.1-1.7,0.5c-0.3-0.2-0.4-0.5-0.2-0.9
			c0.3-0.5,0.7-0.9,1.4-0.9c-0.1-0.2-0.2-0.4-0.3-0.5c-0.4-0.4-0.8-0.7-0.7-1.4c0-0.2-0.2-0.5-0.4-0.5c-0.7-0.3-1-0.8-1-1.5
			c0.2-0.1,0.4-0.2,0.6-0.2c-0.1-0.3-0.3-0.6-0.5-1c0.4,0.1,0.6,0.2,0.9,0.3C102.1,108,102,107.9,102,107.7z"/>
		<path d="M87.4,127.4c-1.6-4.3-2.3-8.7-2.5-13.2C84.3,116.1,85.8,125.7,87.4,127.4z"/>
		<path d="M90.3,145.2c0,0,0-0.1,0-0.1c0.5-1,0.4-1.1-0.7-1.3c-0.2,0-0.4-0.2-0.6-0.4c-0.3-0.4-0.4-0.8-0.7-1.2
			c-0.1,0-0.1,0.1-0.2,0.1c0.5,0.9,1,1.7,1.5,2.6c0.2,0.3,0.4,0.7,0.6,1.1l0.5-0.5C90.6,145.4,90.4,145.3,90.3,145.2z"/>
		<path d="M86.5,118.1c-0.1,0-0.2,0-0.2,0c0.2,1.1,0.3,2.3,0.6,3.4c0.1,0,0.2,0,0.3,0C86.8,120.4,86.6,119.3,86.5,118.1z"/>
		<path d="M94.5,136.3c-0.4-0.1-0.5,0.2-0.5,0.4c0,0.2,0,0.5,0.1,0.6c0.3,0.4,0.7,0.8,1.1,1.1c0.1,0.1,0.4,0.2,0.6,0.3
			c0.1-0.2,0.1-0.3,0.2-0.5c-0.3-0.2-0.6-0.5-0.9-0.7c-0.2-0.2-0.5-0.3-0.3-0.6C94.9,136.6,94.8,136.4,94.5,136.3z"/>
		<path d="M98.1,104.1c0-0.1,0.1-0.1,0.1-0.2c-0.4-0.4-0.7-0.8-1.2-1.3c-0.1,0.2-0.1,0.4-0.1,0.4c-0.5-0.4-1-0.8-1.6-1.1
			c-0.5-0.3-0.7-0.2-1,0.4c0.4,0.2,0.9,0.3,1.1,0.6c0.2,0.3,0.2,0.9,0.3,1.4c0.5-0.2,1-0.4,1.4-0.6C97.4,103.9,97.7,104,98.1,104.1z
			"/>
		<path d="M87.8,124.6c0.4,3.1,3,9.2,4.2,10.3C90.6,131.5,89.2,128,87.8,124.6z"/>
		<path d="M91.3,66.6C91.3,66.6,91.3,66.6,91.3,66.6C91.3,66.6,91.3,66.5,91.3,66.6L91.3,66.6z"/>
		<path d="M101.6,133.6c0.1-0.2,0.4-0.4,0.6-0.6c-0.2-0.7-0.7-1.1-1.3-1.3c-0.9-0.3-1.3-1-2-1.5c0-0.1,0.1-0.1,0.1-0.2
			c0.3,0,0.6,0.1,0.9,0.1c0.2,0.5,0.3,1,1.2,1c-0.1-0.3-0.2-0.6-0.3-0.7c-0.5-0.3-0.8-0.7-0.9-1.3c-0.1-0.5-0.9-0.9-1.4-0.8
			c-0.4,0.1-0.5,0.4-0.3,0.7c0.1,0.1,0.3,0.2,0.3,0.3c0.1,0.1,0.2,0.4,0.1,0.5c-0.1,0.2-0.3,0.3-0.5,0.3c-0.2,0-0.5,0-0.7,0
			c0.7,0.7,0.7,1.6,1,2.4c0.4-0.1,0.8-0.1,1.2-0.2c0,0.8,0.2,1.3,0.7,1.4c0.2,0.5,0.3,1,0.6,1.1c0,0,0,0,0.1,0l0.7-0.7
			C101.5,133.9,101.5,133.7,101.6,133.6z"/>
		<path d="M82.6,116.2c0.2-1.7-0.3-3.4-0.5-5C82.2,112.8,82.3,114.5,82.6,116.2z"/>
		<path d="M98.1,104.9c-0.3-0.2-0.6-0.4-1-0.7c-0.2,0.5-0.7,0.8-0.3,1.3C97.1,105.9,97.6,105.6,98.1,104.9z"/>
		<path d="M133.7,99.3c-0.4-0.1-0.8-0.1-1-0.3c-0.6-0.6-1.4-1-2.2-1.4c-0.1,0-0.2-0.2-0.3-0.2c-1.2,0-2-1.1-3.1-1.4
			c-1.1-0.3-2.1-0.8-3.2-1.2c-0.3-0.1-0.6-0.2-1-0.3c-1.4-0.3-2.8-0.6-4.2-1c-0.5-0.1-1-0.3-1.6-0.5c-0.3-0.1-0.7,0-0.9,0
			c-0.9-0.2-1.7-0.4-2.5-0.6c-0.2-0.1-0.4-0.1-0.6-0.2c-0.7-0.2-1.4-0.6-2.2-0.2c-0.2,0.1-0.4-0.1-0.6-0.1c-0.5-0.1-0.9-0.1-1.4-0.2
			c-0.3-0.1-0.7-0.2-1-0.2c-0.1,0-0.3-0.1-0.4-0.1c-1.8,0.1-3.5-0.5-5.3-0.1c-0.2,0-0.5-0.1-0.7-0.1c-1.2-0.2-2.5-0.5-3.7-0.4
			c-0.8,0-1.5,0.3-2.3,0.1c-1-0.2-2.1-0.4-3.2-0.6c1.3,0.7,2.7,1.1,4,1.2c2.8,0.1,5.6,0.7,8.4,0.8c2.3,0,4.4,0.5,6.5,1.1
			c0.4,0.1,0.8,0.1,1.2,0.2c0.6,0.1,1,0.3,1.4,1c-0.9-0.2-1.8-0.3-2.6-0.5c0,0.1,0,0.2-0.1,0.2c0.3,0.1,0.6,0.3,0.9,0.4
			c1.7,0.4,3.4,0.8,5,1.2c1,0.2,1.3,0.5,0.8,1.7c-1.7-0.6-3.3-1.3-5-2c-0.7,1-1.7,0.3-2.6,0.4c0.6,0.3,1.2,0.6,1.8,0.8
			c1.8,0.5,3.7,0.9,5.5,1.4c0.8,0.2,0.9,0.3,0.8,1.2c-1.5-0.1-2.9-0.9-4.4-0.9c-1.5-0.1-2.7-1.1-4.3-0.8c1.6,0.5,3.3,1,4.9,1.6
			c1,0.3,2,0.6,3,0.9c0.4,0.1,0.8,0.3,0.9,0.8c-0.5,0.4-1,0.6-1.6,0.3c-1.9-0.8-3.7-1.8-5.8-2.1c-0.7-0.1-1.4-0.2-2.1-0.3
			c0,0.1,0,0.1,0,0.2c0.2,0.1,0.4,0.1,0.6,0.2c2.7,0.5,5.3,1.5,7.8,2.7c0.5,0.3,1.1,0.4,1.6,0.6c0.3,0.2,0.6,0.4,0.8,0.7
			c0.3,0,0.7,0,1,0.1c1.5,0.6,3,1.1,4.4,1.9c0.9,0.5,1.8,1,2.6,1.5l1.4-1.5c-0.6-0.3-1.1-0.6-1.7-1c-0.5-0.3-0.8-0.8-0.6-1.6
			c0.4,0.1,0.7,0.3,1,0.4c0.8,0.3,1.6,0.7,2.3,1l0,0c-0.8-0.5-1.5-1-2.3-1.4c-0.9-0.4-1.2-1-1.1-1.8c0.1-0.9-0.3-1.6-0.5-2.4
			c0-0.1-0.1-0.2-0.1-0.5c2.2,0.5,3.8,1.8,5.7,3c-0.4,0.3-0.7,0.5-0.9,0.6c0,0.6,0,1.2-0.1,1.7l1.3-1.4c-0.1-0.2-0.1-0.5-0.1-1
			c0.2,0.1,0.5,0.2,0.7,0.3l1.8-1.8c-0.1-0.1-0.1-0.1-0.2-0.2C134.2,99.3,134,99.3,133.7,99.3z M115.9,94.7c0.8,0.2,1.8,0,2.4,0.9
			C117.3,95.6,116.5,95.4,115.9,94.7z M121.9,101.8c0.8,0.9,2.2,0.9,3.1,2c-1.2,0.2-3.8-1.1-4.4-2.2c0.3,0,0.5,0,0.7,0
			c-0.8-0.4-1-1.1-0.8-2.2c0.3,0.1,0.6,0.2,0.9,0.3c0,0,0-0.1,0.1-0.1c-0.1-0.1-0.3-0.2-0.4-0.3c-0.3-0.3-0.7-0.6-0.8-0.9
			c-0.2-0.9-0.1-1.8-0.8-2.5c0.9-0.3,1.4-0.1,2,0.1c1,0.4,2.1,0.8,3.1,1.2c0.5,0.2,0.7,0.6,0.6,1.3c0,0.3-0.1,0.4-0.7,0.5
			c0.7,0.5,0.8,1.2,0.7,1.9c0,0.3-0.2,0.5-0.3,0.8c0.1,0.4,0.2,0.8,0.4,1.4C124,102.8,123,102.1,121.9,101.8z"/>
		<path d="M98.6,106.5c-0.3,0.2-0.5,0.5-0.6,0.9c0,0.1,0.3,0.5,0.5,0.5c0.3,0.1,0.7,0,1.3-0.1c-0.2-0.5-0.3-0.9-0.5-1.1
			C99.2,106.5,98.7,106.4,98.6,106.5z"/>
		<path d="M104.9,122.8c-0.8,0.2-1,0.7-1.1,1.4c0.3,0,0.6,0,0.9,0C104.7,123.7,104.8,123.3,104.9,122.8z"/>
		<path d="M92.2,140.4c0.3-0.2,0.6-0.3,1-0.6c0.3,0.6,0.5,1.1,0.7,1.7c0.1,0.1,0.2,0.2,0.3,0.3l0.5-0.5c-0.2-0.5-0.4-1-0.1-1.6
			c0.2,0.5,0.2,0.9,0.5,1.2l1.2-1.2c-0.2-0.3-0.4-0.5-0.6-0.8c-0.5,0.5-0.9,0.2-1.1-0.3c-0.6,0.3-0.6-0.6-1.1-0.7
			c-0.2,0.5,0.1,0.7,0.3,0.9c0.2,0.2,0.4,0.5,0,0.7c-0.1,0-0.2,0-0.2-0.1c-0.2-0.2-0.4-0.3-0.6-0.5c-0.2,0.2-0.3,0.4-0.4,0.6
			c-0.1,0.2-0.2,0.4-0.3,0.6C92.2,140.3,92.2,140.3,92.2,140.4z"/>
		<path d="M79.8,91C79.8,91,79.8,91,79.8,91C79.8,91,79.9,91,79.8,91L79.8,91z"/>
		<path d="M85.2,151.2C85.2,151.2,85.2,151.2,85.2,151.2l3-3.1c-0.3-0.4-0.6-0.8-0.8-1.2c-1.6-2.2-3.1-4.5-4.7-6.8
			c-1.2-1.7-2.4-3.4-3.6-5.1c-0.9-1.3-1.9-2.5-2.9-3.8c-1.5-1.9-2.9-3.9-4.4-5.7c-1.2-1.4-2.7-2.5-4.1-3.8c-0.9-0.8-1.9-1.6-2.8-2.5
			c-0.2-0.2-0.3-0.5-0.4-0.8c-0.1-0.6-0.2-1.2-0.2-1.7c-0.2-0.1-0.2-0.2-0.3-0.2c-1.1,0.1-1.9-0.4-2.1-1.6c-0.1-0.3-0.2-0.5-0.4-0.7
			c-1.1-1.4-2.3-2.7-3.3-4.1c-0.8-1.1-1.9-1.8-2.9-2.7c-0.5-0.4-0.9-1-0.8-1.8c0-0.1-0.1-0.3-0.1-0.5c-0.2,0-0.4-0.1-0.6-0.1
			c-0.4,0-0.6-0.3-0.7-0.6c-0.9-2.4-2-4.6-3.6-6.5c-0.4-0.5-0.9-1-1.3-1.5c-1.4-1.7-3.1-3.1-4.7-4.5c-0.7-0.6-1.4-1.2-2-1.9
			c-1.1-1.1-2.3-2.2-3.4-3.3c-0.7-0.6-1.3-1.3-2-1.9c-1-1-2.1-2-3.2-3c-0.4-0.4-0.8-0.8-1.1-1.2c-0.5-0.6-1-1.2-1.5-1.8
			c0.1-0.1,0.1-0.1,0.2-0.2c0.3,0.1,0.6,0.3,0.8,0.4c3.9,2.7,7.9,5.1,12.1,7.3c2.6,1.4,5.2,2.6,8.1,3.2c1.8,0.4,3.4,1,5.2,1.4
			c2.4,0.6,4.9,1.1,7.4,1.5c2.1,0.3,4.3,0.4,6.4,0.7c1.8,0.2,3.6,0.4,5.4,0.2c1-0.1,2-0.1,3-0.1c0.6,0,1.2,0.1,1.7,0.2
			c1.1,0.3,1.6,1,1.5,2.1c0,0.2,0,0.4-0.1,0.6c-0.4,1.5-0.7,3.1-1.2,4.6c-0.5,1.4-0.8,2.8-1,4.3c-0.3,2.4-0.7,4.8-0.8,7.2
			c0,2.8,0.1,5.7,0.5,8.5c0.5,2.9,0.9,5.9,1.7,8.7c0.4,1.4,0.8,2.8,1.3,4.1c0.7,2,1.2,4,2.1,5.8c1,2.2,1.8,4.5,3.2,6.6
			c0.3,0.5,0.6,1,1,1.6l1-1.1c0,0,0,0,0-0.1c-0.5-0.8-1-1.7-1.5-2.6c-0.7-1.4-1.4-2.9-2-4.3c-0.5-1.2-1-2.5-1.5-3.8
			c-0.7-1.8-1.3-3.5-1.9-5.3c-0.5-1.7-0.8-3.4-1.2-5.1c-0.3-1.4-0.4-2.7-0.6-4.1c-0.2-1.1-0.3-2.2-0.4-3.3c-0.1-1.1-0.2-2.3-0.3-3.4
			c0-0.2,0-0.3,0-0.5c-0.7-1.1-0.3-2.3-0.2-3.4c0.2-1.8,0.4-3.6,0.7-5.3c0.3-1.6,0.6-3.1,1-4.6c0.3-1.3,0.6-2.5,0.9-3.8
			c0-0.2,0.1-0.4,0.2-0.7c0.2,0,0.5,0.1,0.8,0.2c0.3-0.8,0.6-1.5,0.9-2.3c0.1-0.4,0.2-0.8,0.4-1.2c0.2-0.6,0.1-0.9-0.4-1.4
			c-0.1-0.1-0.2-0.3-0.4-0.5c1.2-0.5,2,0.3,2.9,0.7c0.4-0.3,0.3-0.6,0.2-0.9c-0.1-0.3-0.3-0.6-0.4-0.9c0.3-0.3,0.6-0.5,0.9-0.8
			c-0.4-0.3-0.6-0.6-0.9-0.8c-0.4-0.2-1-0.3-1.4-0.2c-0.5,0.2-1,0.3-1.5,0.1c0,0-0.1,0.1-0.3,0.2c0.4,0.5,0.8,0.9,1.2,1.4
			c-0.1,0.1-0.1,0.4-0.3,0.5c-0.6,0.3-1.2,0.6-1.8,0.8c-0.2,0.1-0.4,0-0.5,0c-0.3,0-0.6-0.1-0.9,0.1c-0.5,0.3-0.9,0.1-1.2-0.3
			c-0.3,0.1-0.6,0.1-1,0.2c0.2,0.2,0.3,0.4,0.6,0.7c-0.6,0-1-0.1-1.4-0.1c0.2-0.5,0.3-0.9,0.5-1.3c-0.6-0.1-0.8,0.3-1,0.6
			c-0.3,0.6-1.3,1.1-1.9,1c-0.2,0-0.3-0.2-0.4-0.3c0.2-0.1,0.3-0.3,0.5-0.3c0.5,0,0.9,0.1,1-0.6c-0.2-0.1-0.4-0.1-0.6-0.2
			c-0.1-0.1-0.2-0.3-0.5-0.5c0,0.3-0.1,0.5-0.1,0.7c-0.5,0.3-1,0.6-1.6,0.9c-0.1-0.1-0.4-0.2-0.7-0.3c-0.4,0.6-0.8,0.9-1.6,0.5
			c0.1-0.3,0.2-0.7,0.3-1.1c-0.7,0.2-1.2,0.5-1.4,1.3c-0.2-0.3-0.4-0.5-0.5-0.7c-0.7,0.5-1,0.5-1.5-0.3c-0.1,0.1-0.1,0.3-0.2,0.4
			c-0.6-0.2-0.7-1.4-1.7-1.1c0,0.3,0,0.5,0,0.9c-0.9-0.2-1.7-0.3-2.6-0.5c-0.1-0.3-0.2-0.5-0.3-0.8c-0.5,0.2-0.6,0.9-1.2,0.6
			c-0.5-0.2-0.6-0.5-0.7-1.1c0.2,0,0.3,0,0.5,0.1c0.4,0,0.7-0.2,0.5-0.6c-0.1-0.4-0.3-0.8-0.5-1.4c-0.4,0.9-1.1,1.3-1,2.1
			c0,0.4-0.3,0.6-0.7,0.5c-0.6-0.1-1.2-0.1-1.8-0.3c-0.3-0.1-0.5-0.3-0.7-0.5c-0.2,0.1-0.3,0.1-0.6,0.2c-0.1-0.2-0.2-0.3-0.2-0.5
			C57,89,56.8,88.4,56.3,88c-0.2-0.1-0.6-0.2-0.7-0.1c-0.3,0.2-0.1,0.5,0.1,0.7c0.3,0.4,0.5,0.8,0.8,1.3c-0.5-0.1-0.8-0.2-1.1-0.2
			c0-0.3-0.1-0.6-0.1-0.8C54.6,89,54,89,53.3,89.1c0-0.1-0.1-0.1-0.1-0.2c0.1-0.2,0.2-0.4,0.4-0.5c0.7-0.3,0.9-1,1.2-1.5
			c0.1-0.1,0-0.5-0.2-0.6c-0.1-0.1-0.5-0.2-0.6-0.1c-0.2,0.1-0.3,0.4-0.2,0.6c0,0.2,0.3,0.3,0.6,0.7c-0.9-0.1-1.3,0.8-2.1,0.6
			c-0.1,0-0.3,0.4-0.5,0.6c-0.4-0.2-0.9-0.3-1.3-0.5c0-0.6-0.2-1.2-1-1.4c-0.1,0.2-0.2,0.5-0.3,0.7C48,87.6,47,87,46,86.6
			c-0.5-0.2-0.9-0.4-1.4-0.7c-1.4-0.7-2.9-1.4-4.3-2.1c-0.5-0.3-1-0.6-1.5-0.9c-1-0.7-2.1-1.3-3.1-2c-1.1-0.7-2.2-1.5-3.2-2.3
			c-0.7-0.5-1.4-1.1-2.1-1.6c-0.9-0.7-1.7-1.4-2.5-2.2c-0.5-0.4-0.9-0.9-0.8-1.6c1.6-0.4,3.2-1.2,4.7-2c0.3-0.2,0.8-0.1,1.1,0.1
			c0.4,0.3,0.9,0.5,1,1.2c1,0.8,1.6,2.1,3,2.4c0.1,0,0.2,0,0.3,0.1c0.5,0.4,1.1,0.8,1.6,1.2c0.5,0.5,1,0.6,1.8,0.8
			c-0.4-1.1-1.7-1.2-2.2-2.2c1.9,0.8,3.6,1.5,5.1,2.7c0,0.1-0.1,0.2-0.1,0.2c-0.2-0.1-0.4-0.2-0.6-0.3c-0.4-0.2-0.9-0.5-1.3-0.6
			c-0.1,0-0.3,0.1-0.5,0.2c0.1,0.1,0.1,0.4,0.2,0.4c1.8,1,3.6,2.1,5.4,3c-0.3-0.2-0.5-0.5-0.8-0.7c0-0.1,0.1-0.1,0.1-0.2
			c2,0.3,3.9,1.2,5.7,2c0.1-0.3,0.2-0.6,0.3-1c-0.7-0.2-1.4-0.6-2.3-0.8c-0.4-0.1-0.6-0.2-0.4-0.7c-0.3-0.1-0.6-0.2-1-0.2
			c0-0.7-0.4-1.1-1-1.4c-1-0.7-2-1.5-3-2.2c-0.1-0.1-0.3-0.1-0.5,0c1.2,0.9,2.4,1.7,3.7,2.7c-0.7,0.4-1.2,0-1.6-0.3
			c-1.3-1.2-2.9-1.8-4.5-2.4c-0.2-0.1-0.6-0.2-0.7-0.4c-0.2-0.5-0.6-0.7-1-0.9c-1.5-0.9-3-1.8-4.5-2.7c-0.3-0.2-0.6-0.6-1-1
			c0.3-0.2,0.5-0.4,0.7-0.5c0.8-0.4,1.6-0.8,2.3-1.3c1.2-0.7,2.3-1.5,3.5-2.3c0.6-0.4,1.2-0.7,1.8-1c1.8-0.7,3.2-1.9,4.8-3
			c1.3-1,2.7-2,4-3c0.9-0.7,1.9-1.4,2.8-2.1c0.6-0.5,1.3-0.8,1.7-1.5c0.2-0.4,0.7-0.2,1,0.2c0.7,0.8,1.4,1.7,2.2,2.6
			c2,2.4,4,4.8,6,7.2c0.1-0.1,0.1-0.1,0.2-0.2c-0.7-0.9-1.4-1.8-2.1-2.6c-1.2-1.5-2.5-3-3.8-4.4c-0.7-0.8-1.4-1.6-2.1-2.4
			c-0.6-0.7-0.5-0.8,0.1-1.5c0.8-0.8,1.8-1.5,2.5-2.4c0.7-0.9,1.7-1.4,2.6-2.1c0.4-0.3,0.7-0.7,1-1c0.5-0.6,0.9-0.6,1.4,0
			c0.6,0.6,1.1,1.3,1.6,1.9c0.7,0.8,1.3,1.5,2.1,2.4c-0.2-0.4-0.3-0.7-0.5-0.9c-1-1.2-2-2.4-3.1-3.6c-0.4-0.5-0.6-0.9-0.1-1.4
			c0.8-0.8,1.6-1.6,2.4-2.4c0.3-0.3,0.7-0.4,1.3-0.1c-0.3,0.5-0.7,1-1,1.6c0,0,0.1,0.1,0.1,0.1c0.2-0.3,0.3-0.5,0.6-0.7
			c0.1-0.1,0.4-0.2,0.6-0.3c0,0.2,0.1,0.4,0.1,0.6c0,0.2-0.2,0.4-0.2,0.7c0.3-0.2,0.5-0.4,0.8-0.6c0.5,0.2,0.6,0.5,0.4,1.1
			c0.6-0.3,0.9,0,1.2,0.4c0.5,0.7,0.9,1.3,1.4,2c0.3,0.4,0.3,0.8-0.1,1.2c-0.2,0.2-0.3,0.4-0.5,0.6c-0.4,0.4-0.6,0.4-1.1,0
			c-0.5-0.4-1.1-0.8-1.7-1.1c-0.3-0.1-0.6,0-1,0.2c-0.2-0.2-0.5-0.3-0.7-0.5c0,0-0.1,0.1-0.1,0.1c0.1,0.2,0.2,0.5,0.4,0.7
			c1,1.2,2,2.3,3,3.5c0.2,0.2,0.4,0.3,0.7,0.4c0.2,0.1,0.6,0.2,0.7,0.4c0.9,1.1,1.9,2.1,2.6,3.4c0,0.1,0.1,0.2,0.1,0.2
			c0.8,0.6,1.1,1.2,0.5,2.1c0,0,0,0.1,0.1,0.2c0.3-0.2,0.6-0.3,1-0.4c0.6,0.7,0.6,0.7-0.4,2.3c0.2-0.1,0.4-0.2,0.6-0.3
			c0.2-0.1,0.4-0.3,0.6-0.4c0.4,0.5,0.2,0.8-0.1,1.1c-0.3,0.3-0.6,0.5-0.9,0.9c0.9-0.2,1.4-0.9,2.1-1.5c-0.1-0.2-0.2-0.5-0.2-0.7
			c0-0.2,0-0.5,0.1-0.7c0.7-1,1.5-1.9,2.3-2.9c0.8,0.6,1,1.8,0.4,2.8c0.2,0,0.4-0.1,0.6-0.1c0.4,0.8,0.4,1.3-0.3,2
			c-0.6,0.7-1.3,1.3-1.9,2.1c0.5-0.5,1.1-0.9,1.6-1.4c0.5-0.5,1-1,1.4-1.6c0.4,0.7,0.4,0.9-0.1,1.4C82,64,81.6,64.4,81.3,65
			c0.6-0.5,1.1-1,1.8-1.5c0.2,0.5,0.4,0.9,0.6,1.3c-0.1-0.4-0.1-0.9-0.2-1.3c-0.1-0.4,0-0.7,0.5-0.9c0.3,0.9,0.5,1.7,0.8,2.5
			c0.1,0,0.1,0,0.2-0.1c-0.1-0.4-0.2-0.8-0.3-1.2c-0.1-0.4-0.3-0.9-0.4-1.3c0-0.2,0.1-0.5,0.2-1c1.1,1.6,1.1,3.2,1.2,4.8
			c-0.1,0-0.3,0-0.4,0c0,0.9,1.2,1.5,0.5,2.5c-1,0.1-1,0.1-1.3-0.7c-0.2,1-0.1,1.2,0.6,1.5c0,0.7-0.9,0.8-1.2,1.3
			c0.1,0.5,0.4,0.5,0.8,0.4c0.3-0.1,0.5-0.3,0.5-0.7c0-0.6,0.2-0.8,0.9-1.3c0,0.4,0,0.7-0.1,0.9c-0.2,0.5-0.4,0.9-0.7,1.3
			c-0.3,0.4-0.6,0.6-1.1,0.3c-0.1-0.1-0.2-0.2-0.3-0.2c-0.2,0-0.5,0.1-0.6,0.2c-0.1,0.1,0,0.4,0.2,0.5c0.1,0.1,0.4,0.2,0.6,0.3
			c-0.1,0.3-0.3,0.7-0.3,1c0,0.2,0.5,0.4,0.8,0.6c0,0.3,0.1,0.8,0.6,1c0.1,0,0.1,0.4,0.2,0.6c-0.2,0-0.4,0.2-0.6,0.1
			c-0.4-0.1-0.7-0.2-1.1-0.4c0.1-0.5,0-0.9-0.5-1.2c-0.3-0.2-0.4-0.7-0.7-0.9c-0.1-0.1-0.6-0.2-0.7-0.1c-0.3,0.3-0.1,0.6,0.2,0.8
			c0.2,0.2,0.5,0.3,0.8,0.4c-0.5,0.6-0.9,1.2-1.4,1.8c-0.3,0.3-0.2,0.6,0,0.9c0.5-0.1,0.9-0.1,1.4-0.2c-0.1-0.1-0.1-0.3-0.2-0.4
			c-0.3-0.3-0.6-0.6-0.2-1c0.2-0.2,0.6-0.2,0.9-0.3c0.2,0.5,0.3,0.9,0.6,1.1c0.7,0.6,1.1,0.5,1.7-0.3c0.2-0.3,0.4-0.5,0.6-0.8
			c0.4,0.2,0.7,0.3,0.5,0.9c-0.2,0.4-0.3,0.8-0.4,1.2c-0.2-0.1-0.3-0.1-0.5-0.2c0,0,0,0.1-0.1,0.1c0.1,0.1,0.3,0.3,0.4,0.4
			c-0.5,1-0.6,1.1-1.4,0.8c0.1-0.1,0.2-0.2,0.3-0.3c0.1-0.1,0.2-0.2,0.3-0.3c-0.9-0.6-1.5-0.5-1.9,0.4c0.2,0,0.4,0.1,0.5,0.1
			c0.1,0,0.3,0.1,0.5,0.1c-0.2,0.3-0.3,0.5-0.5,0.7c0.2,0.2,0.4,0.4,0.6,0.7c0.4,0.7,0.6,0.7,1.2,0.1c0.1-0.1,0.2-0.2,0.3-0.4
			c-0.2-0.1-0.3-0.2-0.5-0.4c0.2-0.2,0.3-0.5,0.6-0.8c0.5,0.9,0.6,1.9,0.6,3.3c-0.3-0.1-0.6-0.3-0.9-0.2c-0.2,0.1-0.4,0.4-0.6,0.7
			C85,82.8,83.5,83.2,83,83c-0.2-0.1-0.3-0.2-0.5-0.2c-0.3,0-0.6,0-0.8,0.1c-0.3,0.1-0.5,0.4-0.8,0.6c0.6,0.3,1.2,0.5,1.6,0.7
			c0.7-0.2,1.1-0.3,1.6-0.4c0.2-0.1,0.5,0,0.6-0.2c0.5-0.7,1.3-0.5,2-0.6c0,0.2,0,0.4-0.1,0.4c-0.7,0.4-0.7,0.4-0.6,1.2
			c0.3,0.1,0.6,0.2,1.1,0.3c-0.5,0.1-0.8,0.2-1.1,0.3c-0.1,0.2-0.2,0.5-0.3,0.9c-0.2-0.2-0.4-0.3-0.4-0.4c0-0.4,0.1-0.8,0-1.2
			c0-0.2-0.2-0.4-0.3-0.6c-0.1,0-0.1,0-0.2,0.1c-0.1,0.3-0.2,0.6-0.3,1.1c-0.3-0.4-0.4-0.6-0.7-1c-0.1,0.5-0.1,0.8-0.2,1.1
			c1,0.2,1,0.2,1.2,1.1c0.1,0.3,0.2,0.6,0.3,0.9c1.1,0,1-1.7,2.2-1.6c0-1.2,0.1-2.3,0.1-3.4c1.8-0.1,2.1,0.2,1.8,1.3
			c-0.2-0.2-0.5-0.4-0.7-0.6c-0.3,0.1-0.7,0.3-0.6,0.7c0.1,0.4,0.5,0.5,1.5,0.3c0.1,0.2,0.3,0.5,0.3,0.7c0.5,2.6,2.8,3.7,4.8,3.5
			c4.5-0.6,9-0.2,13.5,0.4c3.1,0.5,6.3,0.9,9.4,1.6c2.4,0.5,4.8,1.3,7.2,2.2c2.3,0.8,4.6,1.8,6.9,2.8c0.5,0.2,1,0.6,1.4,1
			c0.8,0.5,1.7,1,2.5,1.6c0.3,0.2,0.7,0.4,1,0.6l0.9-0.9c-0.5-0.3-0.9-0.7-1.4-1c-0.7-0.4-1.3-0.8-2-1.1c-0.4-0.2-0.8-0.4-1.1-0.6
			c-0.7-0.4-1.4-0.8-2.2-1.2c-0.9-0.4-1.8-0.8-2.7-1.2c-1.1-0.4-2.1-0.8-3.2-1.1c-3.3-1-6.7-1.8-10.1-2.5c-3.5-0.7-6.9-1.4-10.4-1.4
			c-0.2,0-0.4,0-0.6,0c-2.3-0.4-4.6-0.3-6.9-0.2c-0.7,0-1.5-0.1-2.2-0.2c-0.2,0-0.3-0.1-0.5,0c-1.9,0.2-2.7-0.6-2.7-2.4
			c-0.1-2,0.4-3.9,0.8-5.8c0.1-0.5,0.1-1,0.2-1.6c0.2-1.4,0.5-2.7,0.7-4.1c0-0.1,0.1-0.2,0.1-0.3c-0.5-1.2,0.2-2.4,0.2-3.6
			c0-0.7-0.1-1.4,0-2c0.1-0.8,0.2-1.5,0.1-2.3c-0.1-0.7,0.1-1.5,0-2.2c0-0.7-0.2-1.5-0.1-2.2c0-1.4-0.4-2.7-0.5-4.1
			c-0.1-1.9-0.6-3.8-1.1-5.6c-0.3-1-0.6-2.1-0.8-3.1c-0.2-1.5-0.9-2.7-1.5-4.1c-0.4-0.9-0.9-1.8-1.3-2.7c-1.1-2.6-2.5-5-4-7.4
			c-0.5-0.9-1.1-1.6-1.5-2.6c-0.3-0.7-1.1-1.3-1.6-2.1c0.2,0.1,0.5,0.2,0.7,0.4c1.2,1.2,2.4,2.3,3.5,3.6c2.3,2.7,4.3,5.5,6.2,8.6
			c1.4,2.3,3,4.5,4.5,6.7c0.9,1.4,1.9,2.8,2.9,4.1c1,1.3,2.1,2.5,3.3,3.6c1.2,1.1,2.4,2.1,3.6,3.1c0.5,0.4,1,0.6,1.6,1
			c0,0.1,0,0.3-0.1,0.4c-0.3,0.5,0,0.9,0.5,1c0.9,0.2,1.4,0.9,1.8,1.6c1,1.8,2.2,3.6,3.7,5.1c1.1,1.1,2.3,2.1,3.5,3.1
			c0.3,0.3,0.5,0.5,0.5,1c-0.1,0.7,0.1,1,0.8,1c1.1,0,1.6,0.7,2.1,1.6c0.9,1.5,1.7,3.1,2.8,4.6c1.2,1.6,2.6,3.1,4,4.6
			c1,1.1,2.1,2.2,3.2,3.3c2.6,2.6,5.3,5.2,7.9,7.8c0.3,0.3,0.6,0.6,0.9,0.9l3.2-3.4c-0.4-0.5-0.8-1-1.2-1.5c-1-1.3-1.9-2.7-2.9-4
			c-2.2-3-4.4-6-6.6-9c-0.3-0.4-0.7-0.9-1-1.3c-0.2-0.3-0.4-0.5-0.6-0.7c-1-0.9-2-1.8-3-2.6c-1-0.9-2.3-1.5-3-2.8
			c-0.3-0.5-0.8-1-0.7-1.6c0.1-0.8-0.3-1.4-0.9-1.7c-1.2-0.6-1.9-1.6-2.6-2.7c-1.3-2-2.8-3.7-4.7-5.1c-1-0.8-1.8-1.7-1.8-3
			c0-0.1-0.1-0.3-0.2-0.4c-1-0.1-1.9-0.6-2.3-1.4c-1-2.3-2.5-4.3-4-6.3c-3.3-4.1-7.2-7.7-11.1-11.2c-1.2-1.1-2.4-2.3-3.6-3.5
			c-1.4-1.4-2.8-2.8-4.2-4.3c-1.1-1.2-2.2-2.5-3.1-3.9c-0.4-0.6-0.1-1.5-0.2-2.3c0,0,0-0.1-0.1-0.1c-0.6-0.1-1.2-0.3-1.7-0.4
			c-0.1-0.9-0.1-1.8-0.2-2.7c-0.1-0.9-0.5-1.6-1.5-2c-0.3-0.1-0.5-0.3-0.7-0.4c-0.5-0.2-1.1-0.6-1.6-0.6c-1.8,0-3.6,0.3-5.2,1.1
			c-2.3,1.1-4.5,2.2-6.8,3.4c-1.4,0.8-2.8,1.6-4.1,2.5c-1,0.6-1.8,1.4-2.8,2c-1.2,0.8-2.5,1.5-3.7,2.4c-2.6,2-5.2,4-7.8,6.1
			c-3.5,2.8-6.8,5.9-10,9.1c-1.3,1.3-2.7,2.6-3.9,3.9c-1.7,1.8-3.3,3.6-4.9,5.4c-1.4,1.6-2.9,3.1-4.2,4.7c-2.5,3-5,6.1-6.9,9.5
			c-1,1.7-1.3,3.5-0.4,5.4c0.5,1,1.2,1.6,2.4,1.6c0.2,0,0.6,0.1,0.6,0.2c0.1,0.2,0,0.5-0.1,0.7c-0.2,0.5-0.5,0.9-0.7,1.4
			c0.7,0.3,1.2,0.6,1.8,0.7c0.7,0.2,1.3,0.6,1.9,1.2c1.1,1.2,2.3,2.4,3.4,3.7c0.7,0.7,1.4,1.4,2,2.2c0.5,0.6,1,1.2,1.5,1.8
			c1.8,2.1,3.5,4.2,4.9,6.6c1.1,1.8,2.2,3.6,3.3,5.3c1.1,1.6,2.3,3.2,3.5,4.8c1.6,2.3,3.7,4.2,6,5.7c0.6,0.4,1,0.8,1.2,1.5
			c0.1,0.4,0.3,0.8,0.8,0.9c0.6,0.2,1,0.6,1.2,1.2c0.1,0.5,0.4,0.9,0.7,1.3c0.7,1,1.4,2.1,2.2,3c1,1.2,2.2,2.4,3.3,3.5
			c0.5,0.4,0.9,0.7,1,1.5c0.1,0.9,0.6,1.3,1.5,1.3c0.4,0,0.6,0.3,0.8,0.6c1.5,2.3,2.9,4.6,4.6,6.7c2.1,2.6,4.3,5.1,6.5,7.6
			c2.8,3.1,5.8,6,8.7,9C82.2,147.6,83.7,149.5,85.2,151.2z M124.2,74.6c1.6,1.2,3,2.7,4.1,4.5c0.2,0.3,0.4,0.6,0.6,0.8
			c1.8,2.2,3.6,4.4,5.4,6.6c0.2,0.3,0.4,0.6,0.6,0.9c-0.1,0.1-0.2,0.1-0.3,0.2c-0.8-0.8-1.6-1.5-2.4-2.3c-0.1-0.1-0.2-0.2-0.3-0.2
			c-1.9-1-3.1-2.7-4.6-4.1c-1-1-1.9-2-2.8-3c-0.9-1-1.8-1.9-2.1-3.2c0-0.2,0-0.4,0-0.6C123.2,73.9,123.7,74.2,124.2,74.6z
			 M110.9,60.3c0.4-0.3,0.8-0.2,1.1,0.1c0.7,0.7,1.4,1.3,1.9,2.1c1.6,2.2,3.1,4.5,5.2,6.3c0.3,0.3,0.7,0.5,1.1,0.7
			c-1.1,0.9-1.6,1-2.6,0.1c-2.2-2.1-4.4-4.1-6.1-6.7c-0.3-0.5-0.6-0.9-0.8-1.4C110.5,61.1,110.5,60.6,110.9,60.3z M92.3,39.4
			c0.2,0.2,0.5,0.3,0.7,0.5c1.3,1.3,2.5,2.7,3.8,4c1.2,1.3,2.5,2.5,3.8,3.8c1.4,1.4,2.7,2.9,4,4.4c0.8,0.9,1.6,1.8,2.4,2.7
			c0.6,0.7,0.7,1.5,0.4,2.5c-0.5-0.3-0.9-0.4-1.2-0.6c-0.9-0.7-1.9-1.3-2.7-2.1c-2.1-2-4-4.2-5.6-6.6c-1.8-2.7-3.7-5.4-5.5-8.1
			C92.3,39.7,92.3,39.6,92.3,39.4z M46,58.3c-0.7,0.5-1.4,0.9-2.1,1.4c-0.1-0.1-0.1-0.1-0.2-0.2c0.3-0.3,0.5-0.6,0.8-0.8
			c1.3-1,2.5-2,3.8-3c0.2-0.2,0.5-0.4,0.7-0.6c0.4-0.7,1.1-1,1.8-1.2c0.4,0.3,0.6,0.6,0.9,0.9c-1,0.9-1.9,1.7-2.9,2.5
			c-1,0.8-2.1,1.7-3.1,2.5c-0.6,0.4-0.7,0.5-1.4,0.3c0.6-0.6,1.2-1.1,1.8-1.6C46,58.4,46,58.3,46,58.3z M52.3,57
			c-0.7-0.1-1,0.3-1.5,0.7c-1.3,1.2-2.7,2.4-4.2,3.5c-0.6,0.5-1.3,0.9-2,1.3c-0.3-0.8,0.1-1.3,0.6-1.7c1.2-1,2.3-1.9,3.5-2.9
			c0.7-0.6,1.4-1.2,2.1-1.8c0.3-0.2,0.6-0.4,0.9-0.6C52,56.2,52.1,56.5,52.3,57C52.3,56.9,52.3,57,52.3,57z M69.1,35
			c-1.3,1.6-2.7,3.1-4,4.6c-0.8,0.9-1.7,1.8-2.6,2.7c-1,1.1-1.9,2.1-2.9,3.2c-0.4,0.4-0.8,0.8-1.2,1.1c-2.9,2.4-5.7,4.8-8.6,7.2
			c-2,1.7-4.1,3.3-6.1,5c-0.5,0.4-1.1,0.8-1.9,1c0.6-0.8,1-1.4,1.7-1.9c1.2-0.9,2.1-2,3.2-3c0.2-0.1,0.2-0.4,0.4-0.5
			c1.4-0.8,2.3-2.2,3.4-3.2c1.2-1.1,2.1-2.5,3.6-3.3c0.3-0.2,0.4-0.5,0.6-0.8c0.9-0.8,1.7-1.7,2.6-2.5c0.9-0.8,1.8-1.6,2.7-2.4
			c1.1-1,2.4-2,3.3-3.2c0.9-1.1,2.1-1.9,3-3c1.1-1.2,2.2-2.3,3.3-3.5c0.9-1,1.9-1.9,2.8-2.9c0.1-0.1,0.3-0.2,0.5-0.3
			c-0.1,0.2-0.1,0.4-0.2,0.5C71.6,31.7,70.4,33.4,69.1,35z M78.3,56.7c0.4-0.2,0.5-0.5,0.6-0.8c0-0.1,0-0.1,0.1-0.2
			c0.2-0.3,0.4-0.7,0.8-0.5c0.4,0.2,0.3,0.6,0.1,0.9c-0.4,0.6-0.9,1.2-1.4,1.8C77.7,57.4,77.7,57,78.3,56.7z M78.8,53.8
			c0.6,0.7,0.6,1-0.2,1.7C77.9,54.8,78,54.5,78.8,53.8z M79.9,54.2c0.1-0.3,0.4-0.6,0.8-0.5c0.3,0.1,0.4,0.6,0.2,1
			c-0.2,0.2-0.4,0.4-0.7,0.7C79.8,55,79.7,54.6,79.9,54.2z M79.4,54.1c-0.1-0.5-0.2-0.9-0.2-1.4c-1-0.2-0.6,1.1-1.3,1.3
			c-0.8-0.6-0.8-0.7-0.3-1.4c0.5-0.6,1-1.3,1.7-1.9c-0.1,0.7,0.2,1.1,0.6,1.5C80.5,53.1,80.4,53.2,79.4,54.1z M77.2,47
			c-0.8-1.2-1.4-2.5-2.1-3.7c-0.5-0.8-0.6-1.6-0.2-2.6c0.7,0.8,1.4,1.6,2.1,2.4c-0.2,0.8,0.6,1.3,0.9,2.1c0.1-0.1,0.2-0.2,0.4-0.4
			c0.3,0.4,0.5,0.8,0.8,1.4c-0.3-0.1-0.5-0.2-0.6-0.3c-0.1,0-0.1,0.1-0.2,0.1c0.5,1,1.1,2,1.6,3.1c-0.2,0.2-0.8,0.2-0.7,0.7
			c0,0.2-0.1,0.4-0.3,0.6c-0.2,0.2-0.5,0.5-0.7,0.4c-0.4-0.1-0.7-0.5-0.5-1C78.2,48.8,77.7,47.9,77.2,47z M75.8,51
			c-0.1,0.1-0.4,0-0.5-0.1c-0.1-0.1-0.1-0.3,0-0.5c0.1-0.2,0.3-0.4,0.4-0.6c0.2-0.2,0.4-0.4,0.7-0.7C76.7,49.8,76.4,50.8,75.8,51z
			 M78.7,42.4c-0.5-0.8-1.2-1.6-1.8-2.3c-0.3-0.3-0.5-0.5-1-0.2c-0.7,0.4-1.2,0.7-1.8-0.4c-0.6-1.1-0.6-1.5,0.3-2.4
			c0.5-0.4,0.9-0.9,1.4-1.3c0,0,0.1,0,0.1,0c0.4,1.1,1.1,2.1,1.9,3c1,1.3,1.8,2.7,2.5,4.2C79.5,43.3,79.1,43,78.7,42.4z M74.5,46.6
			c-0.7-0.7-1.4-1.3-1.6-2.5C73.8,44.5,74.5,45.6,74.5,46.6z M73.8,51.7c-0.1,0.3-0.4,0.5-0.5,0.7c-0.1,0.1-0.2,0.3-0.3,0.3
			c-0.2,0-0.4,0-0.6-0.1c-0.1-0.1-0.1-0.4,0-0.5c0.2-0.3,0.5-0.6,0.8-0.9c0.1-0.1,0.4-0.1,0.6-0.2C73.7,51.2,73.9,51.5,73.8,51.7z
			 M73.5,48c-0.8-0.4-0.8-0.5-0.6-1.6c-0.2,0.1-0.5,0.2-0.7,0.2c-0.6-0.2-0.5-0.7,0.2-1.8c0.2,0.2,0.4,0.3,0.5,0.4
			c0.3,0.3,0.5,0.7,0.8,1C74.4,47.1,74.4,47.4,73.5,48z M74.6,47.7c0.3,0.3,0.5,0.5,0.7,0.8c0.6,0.8,0.6,1.1-0.4,1.5
			c-0.5-0.4-0.3-0.8-0.1-1.2c-0.3-0.1-0.6,0-0.7-0.2C73.9,48.5,74,48.2,74.6,47.7z M76.6,55.8c-0.1,0.4-0.5,0.7-0.7,1.1
			c-0.5-0.3-0.9-0.5-1.4-0.8c0.3-0.4,0.5-0.8,0.9-1.1c0.2-0.2,0.7-0.3,0.9-0.2C76.5,55.1,76.7,55.6,76.6,55.8z M77.4,50.9
			c0.6,0.7,0.5,1-0.6,1.8C76.4,51.9,76.5,51.4,77.4,50.9z M77.3,59.3c-0.3-0.5-0.6-0.9-0.3-1.3c0.1-0.2,0.4-0.4,0.5-0.4
			c0.2,0.1,0.4,0.4,0.4,0.6C78.1,58.7,77.7,59,77.3,59.3z M80.4,57.9c-0.6,0.9-1.3,1.7-2,2.5c-0.1,0.2-0.4,0.2-0.7,0.3
			c-0.1-0.3-0.3-0.6-0.2-0.8c0-0.3,0.2-0.6,0.5-0.8c0.7-0.5,1.1-1.2,1.5-2c0.1-0.2,0.2-0.3,0.3-0.5c0.4-0.6,0.6-0.6,1.1,0
			C80.7,57.2,80.6,57.6,80.4,57.9z M81.8,56.6c-0.2,0.4-0.6,0.3-1,0.2c0,0,0,0,0,0c0-0.3-0.1-0.5-0.1-0.8c0-0.3,0.2-0.6,0.4-1
			C81.6,55.6,82,56,81.8,56.6z M82.6,59.8c-0.6-0.5-0.9-0.8-0.6-1.3c0.2-0.3,0.3-0.9,1-0.5C82.9,58.6,82.8,59.1,82.6,59.8z
			 M86.5,72.8c0,0.1-0.2,0.4-0.3,0.3c-0.7-0.1-0.9,0.3-1,0.9c-0.1-0.3-0.2-0.6-0.4-0.9c0.4-0.2,0.8-0.3,1.2-0.5c0-0.5-0.3-1,0.6-1.2
			C86.5,72,86.6,72.4,86.5,72.8z M88.2,80.9c-0.1,0.2-0.2,0.4-0.3,0.6c-0.1-0.1-0.2-0.1-0.2-0.2c0-0.1-0.1-0.2-0.1-0.3
			c0-0.4-0.1-0.9,0.1-1.1c0.3-0.4,0.6,0.2,0.9,0.2c0.5,0.1,1,0.2,1.1,0.8C89.1,81.5,89,81.5,88.2,80.9z M89.8,76.7
			c-0.2,0.6-0.6,0.7-1.1,0.6c-0.4-0.1-0.6-0.6-0.5-1.1c0.1-0.3,0.2-0.5,0.3-0.9c0.2,0,0.3,0.1,0.4,0.1c0.2,0.1,0.5,0.1,0.8,0.2
			c-0.1,0.2-0.3,0.4-0.3,0.6C89.4,76.3,89.6,76.5,89.8,76.7z M89.5,79.8c-0.5-0.1-0.7-1-1.1-0.6c0-0.3-0.1-0.7-0.2-1.1
			c0.5,0.1,0.9,0.2,1.3,0.3c0.1-0.2,0.2-0.5,0.4-0.7C90.3,77.8,90.1,78.7,89.5,79.8z M79.4,30.3c0.2-0.3,0.4-0.6,0.7-1.1
			c2.3,4,4.5,7.8,6.7,11.6c0.7,1.3,1.2,2.6,1.7,4c0.7,1.8,1.3,3.7,1.9,5.6c0.2,0.6,0.4,1.2-0.1,1.7c-0.1,0.1,0.1,0.5,0.2,0.7
			c0.1,0.3,0.4,0.5,0.6,0.8c-0.3,0-0.5,0.1-0.6,0c-0.3-0.1-0.6-0.1-0.6,0.3c0,0.2,0.3,0.5,0.5,0.6c0.2,0.1,0.5,0,0.8,0
			c0.1,0.9,0.3,1.9,0.4,2.8c-0.5,0-0.8-0.1-1.1,0c-0.2,0.1-0.1,0.5-0.2,0.8c0.3,0,0.7,0.1,1.2,0.1c0,0.2,0.1,0.6,0.1,0.8
			c-0.3,0.5-1.1-0.3-1,0.7c0.3,0,0.5,0,0.9,0c0,0.4,0,0.7-0.1,1.3c-0.5-0.4-0.8-0.7-1.1-1c-0.4,0.3-0.4,0.7-0.1,1
			c0.3,0.3,0.7,0.3,1.1,0.5c0.1,0,0.1-0.1,0.2-0.1c0,0.3,0,0.7,0,1.1c-0.5-0.2-0.9-0.4-1.3-0.6c0,0.2-0.1,0.4-0.1,0.6
			c0-0.3,0-0.6-0.2-0.9c-0.1-0.2-0.4-0.2-0.6-0.3c-0.1,0.2-0.3,0.4-0.2,0.5c0,0.4,0.2,0.8,0.7,0.9c0.2,0.1,0.4,0.3,0.7,0.4
			c0.2,0.1,0.5,0.1,0.9,0.1c0.1,1.1,0.2,2.2,0,3.2c0,0.7,0.1,1.4,0.1,2.2c-0.7-0.1-1.2-0.1-1.8-0.2c0.3,0.8,1.1,0.6,1.6,1
			c-0.1,1.1-0.2,2.3-0.4,3.6c-0.4-0.2-0.7-0.3-1-0.4c-0.1,0-0.3,0-0.5,0c-0.1,0-0.1,0.3-0.1,0.4c0.3,0.3-0.1,0.5-0.2,0.7
			c0.6,0.1,1.1,0.1,1.7,0.2c-0.2,0.5,0.3,1.1-0.3,1.4c-0.5-0.3-1-0.5-1.4-0.8c-0.8-0.5-0.9-1.9-0.4-2.5c0-0.6-0.1-1.2-0.1-1.8
			c0.4,0,0.6-0.1,0.8-0.1c-0.1-0.6-0.2-1-0.3-1.5c-0.2-0.1-0.4-0.2-0.6-0.4c0.1-0.2,0.2-0.4,0.4-0.5c0.2-0.2,0.4-0.5,0.7-0.7
			c-0.5-0.2-0.8-0.3-1.2-0.4c-0.1-0.9,0.7-0.8,1.1-1.1c-0.4-0.4-0.9-0.8-1-1.3c-0.1-0.4,0.2-1,0.4-1.6c-0.9-0.2-0.9-1-0.9-1.9
			c0-1.1-0.2-2.2-0.3-3.4c0-0.3,0-0.7,0-1.2c0.2,0.2,0.3,0.3,0.3,0.3c0-0.4,0-1-0.1-1.5c0.1,0,0.2,0,0.4,0c-0.2-0.1-0.5-0.2-0.5-0.3
			c0-0.2,0.1-0.5,0.2-0.8c0.6-1,0.6-1.1-0.3-1.8c-0.2,0.3-0.3,0.5-0.5,0.7c-0.8-0.4-0.8-0.4-0.5-1c0.2-0.4,0.4-0.7,0.6-1
			c0.2-0.3,0.3-0.6,0.4-0.9c-0.1,0-0.1-0.1-0.2-0.1c-0.4,0.6-0.7,1.1-1.1,1.7c-1.1-0.7,0.3-1.4,0-2.1c-0.2,0.2-0.4,0.4-0.7,0.8
			c-0.2-0.6-0.5-1.1-0.5-1.6c0-0.5,0.4-0.9,0.6-1.5c-0.2,0-0.3,0-0.5,0c-0.4-1.1-0.8-2.2-1.3-3.2c-0.1,0-0.1,0-0.2,0.1
			c0.4,0.9,0.7,1.8,1.1,2.7c-0.1,0-0.2,0.1-0.2,0.1C84.3,46.6,84,46.3,84,46c-0.2-0.8-0.8-1.4-1.2-2.1c-0.4-0.7-0.8-1.4-1.1-2.2
			c-0.6-1.6-1.6-2.9-2.4-4.4c-0.6-1.1-1.1-2.2-2-3.1c-0.3-0.3-0.1-0.6,0.1-0.8C78,32.4,78.7,31.3,79.4,30.3z M22.9,74.3
			c-0.6,0.5-1.1,1-1.7,1.5c-0.1-0.1-0.2-0.2-0.3-0.3c0.4-0.6,0.8-1.3,1.2-1.9c0.2-0.3,0.6-0.4,0.9-0.1C23.3,73.7,23.1,74,22.9,74.3z
			 M22.8,70c-0.8,0.3-1.7,0.5-2.6,0.8c-0.5,0.1-1.1,0.2-1.5-0.3c-0.4-0.5-0.3-1.1,0-1.6c0.5-1,1.1-2,1.7-3c0.3-0.5,0.6-1.1,1-1.6
			c2-2.5,3.9-5.1,6-7.5c1.5-1.8,3.1-3.5,4.7-5.1c2.2-2.3,4.4-4.5,6.6-6.7c0.9-0.9,1.9-1.8,2.9-2.6c1.7-1.5,3.4-2.9,5.1-4.4
			c1.3-1.2,2.6-2.4,3.9-3.6c2.5-2.2,5.2-4.2,8-6c0.5-0.3,0.9-0.7,1.4-1.1c0,0,0.1,0.1,0.1,0.1c-0.6,0.6-1.2,1.3-1.9,1.9
			c-3.1,2.2-5.9,4.7-8.6,7.3c-2.6,2.5-5.2,5.1-7.8,7.7c-1.1,1.1-2.3,2.2-3.4,3.4c-1.6,1.7-3.2,3.4-4.8,5.1c-0.5,0.5-1.1,1-1.6,1.5
			c-0.6,0.6-1.1,1.2-1.6,1.8c0.1,0,0.1,0.1,0.2,0.1c0.4-0.5,0.8-1,1.3-1.3c1-0.8,2-1.7,2.9-2.6c0.5-0.5,1-1.1,1.5-1.6
			c0.1-0.1,0.2-0.3,0.3-0.3c1.8-1.1,3.1-2.6,4.7-3.9c0.8-0.6,1.6-1.2,2.2-2c0.3-0.4,0.5-0.7,0.9-1.1c0.2-0.2,0.2-0.7,0.8-0.4
			c0,0,0.2-0.2,0.3-0.3c0.7-0.8,1.2-1.7,2.2-2.2c0.1,0,0.2-0.1,0.2-0.2c0.1-0.9,0.9-1,1.5-1.5c0.6-0.5,1.1-1,1.6-1.5
			c1.2-1.1,2.4-2.2,3.5-3.3c1.8-1.6,3.6-3.2,5.3-4.9c1.6-1.5,3.3-3.1,4.9-4.7c0.9-0.9,2-1.4,3.1-2c0.4-0.3,0.9-0.5,1.5-0.8
			c-0.1,0.2-0.2,0.4-0.3,0.5c-1.6,1.5-3.3,3.1-5,4.6c-1.9,1.7-3.8,3.5-5.6,5.2c-2.2,2.1-4.4,4.3-6.6,6.4c-1,1-2.1,2-3.1,3
			c-3,2.9-6.1,5.7-9,8.7c-1,1-2.1,1.9-3.1,2.9c-0.3,0.3-0.5,0.8-0.8,1.1c-0.3,0.4-0.6,0.7-0.9,1.1c0.6-0.5,1.3-1.1,1.9-1.6
			c0.2-0.1,0.4-0.2,0.5-0.4c0.6-0.5,1.2-1,1.6-1.8c0.2-0.4,0.7-0.7,1.1-0.8c0.5-0.2,0.9-0.5,1.2-0.9c0.4-0.7,0.9-1.4,1.7-1.7
			c0.1,0,0.2-0.1,0.2-0.1c0.7-0.8,1.5-1.6,2.2-2.3c0.3-0.3,0.7-0.6,1.1-1c1.8-1.7,3.5-3.3,5.3-5c0.1-0.1,0.3-0.2,0.4-0.2
			c0.9-0.7,1.9-1.3,2.6-2.2c0.3-0.3,0.7-0.5,1-0.8c2.1-2,4.2-3.9,6.3-5.9c0.4-0.4,0.8-0.8,1.2-1.3c0.4-0.4,0.9-0.8,1.5-1
			c0.1,0,0.2-0.1,0.3-0.2c0.6-0.5,1.2-1.1,1.7-1.6c0.7-0.7,1.4-1.4,2.1-2.1c0.4-0.5,0.9-1,1.3-1.4c1.1-1.1,2.3-2.2,3.4-3.2
			c0.4-0.4,1.3-0.5,2.1-0.4c-0.8,0.8-1.4,1.5-2.2,2.2c-2.4,2.3-4.9,4.6-7.3,6.9c-2.7,2.5-5.4,5-8.1,7.5c-2.9,2.7-5.7,5.4-8.6,8.1
			c0,0-0.1,0.1-0.1,0.1c-0.6,0.4-0.8,1.2-1.5,1.6c-0.8,0.4-1.1,1.3-1.7,1.8c-0.7,0.6-1.3,1.2-1.9,1.9c-0.3,0.3-0.5,0.6-0.8,0.9
			c0.3,0.3,0.5,0.4,0.9,0.1c0.4-0.5,0.9-0.9,1.4-1.3c0.6-0.6,1.4-1,1.5-1.8c0.5-0.3,1-0.5,1.3-0.8c1.8-1.7,3.6-3.4,5.4-5.1
			c0.8-0.8,1.8-1.4,2.6-2.2c0.8-0.7,1.5-1.4,2.3-2.1c1.6-1.4,3.2-2.8,4.8-4.2c0.4-0.4,0.8-0.8,1.1-1.2c0.4-0.4,0.7-0.8,1.2-1.2
			c1.8-1.5,3.4-3.2,5.1-4.9c1.9-1.8,3.7-3.8,5.6-5.6c0.4-0.4,0.8-0.7,1.3-1c0.5,1.2,0.4,1.7-0.5,2.6c-1,1-2.1,1.9-3.1,2.9
			c-1.6,1.5-3.2,3-4.8,4.4c-0.5,0.5-1.1,0.8-1.6,1.2c-1.6,1.5-3.2,2.9-4.7,4.4c-1.9,1.8-3.8,3.7-5.7,5.6c-2.5,2.3-5.1,4.6-7.6,6.9
			c-3,2.8-5.9,5.6-8.8,8.3c-1.6,1.5-3.2,3-4.7,4.4c-0.2,0.2-0.5,0.5-0.7,0.7c0,0,0.1,0.1,0.1,0.1c0.5-0.4,0.9-0.8,1.4-1.2
			c0.3-0.2,0.5-0.5,0.8-0.7c0.2-0.2,0.5-0.4,0.7-0.6c1.4-1.2,2.8-2.4,4.2-3.6c1.8-1.5,3.7-3,5.5-4.6c3.1-2.8,6.2-5.6,9.3-8.4
			c2.5-2.2,5-4.4,7.4-6.6c0.3-0.3,0.5-0.6,0.8-1.1c0.5-0.2,1.2-0.4,1.7-1.1c0.1-0.2,0.3-0.4,0.5-0.5c2.6-2.2,4.8-4.8,7.2-7.2
			c0.7-0.7,1.3-1.5,2-2.1c-0.1,0.9-0.5,1.6-1,2.3c-0.1,0.2-0.3,0.3-0.4,0.5c-0.3,0.9-0.8,1.6-1.5,2.2c-1.3,1.2-2.6,2.3-3.9,3.5
			c-1.7,1.6-3.4,3.1-5.1,4.7c-1.8,1.6-3.5,3.3-5.2,5c-1.8,1.9-3.7,3.7-5.6,5.5c-2.5,2.2-4.9,4.5-7.4,6.8c-1,1-2,2.1-3,3.1
			c-0.8,0.8-1.7,1.5-2.5,2.4c-0.7,0.7-1.3,1.3-2,1.9c-0.4,0.3-0.6,0.8-0.8,1.3c-0.2,0.4-0.2,0.9-0.9,0.7c-0.1,0-0.3,0.1-0.4,0.2
			c-2.7,2.2-5.7,3.7-8.9,5C26.6,68.4,24.7,69.2,22.8,70z M49,106.6c-1.2-0.3-2.1-1.2-2.9-2.1c-1.3-1.4-2.5-3-3.7-4.5
			c-0.2-0.3-0.4-0.5-0.6-0.8c-0.9-1.8-2.1-3.4-3.3-5c-0.5-0.7-1-1.5-1.5-2.2c-0.3-0.4-0.7-0.7-1-1c-0.1-0.1-0.2-0.1-0.2-0.2
			c-0.7-1.1-1.3-2.1-2-3.2c0,0,0-0.1,0.1-0.2c0.5,0.3,1,0.5,1.3,1.2c0.2,0.6,0.9,1,1.4,1.5c1,1,2,2,3,3c1.6,1.7,3.2,3.3,4.6,5.1
			c1.8,2.1,3.5,4.3,5.2,6.5c0.3,0.3,0.4,0.8,0.5,1.3C50,106.5,49.6,106.8,49,106.6z M59.4,117.2c-0.2,0.4-0.6,0.2-0.9,0.1
			c-0.9-0.3-1.5-1-2.1-1.6c-0.2-0.2-0.4-0.4-0.6-0.6c0,0-0.1,0-0.1,0.1c-0.7-1.1-1.4-2.2-2.1-3.3c-0.2-0.3-0.3-0.7-0.3-1.1
			c0-0.4,0.1-0.7,0.6-0.9c0.4-0.1,0.7,0,1,0.4c0.6,0.8,1.2,1.6,1.8,2.3c0.8,1,1.6,1.9,2.4,2.8c0.2,0.2,0.3,0.4,0.4,0.6
			C59.7,116.5,59.6,116.8,59.4,117.2z M61.4,119.2c-0.3-1.1-0.1-1.4,1.3-1.6C62.2,118.2,61.8,118.7,61.4,119.2z M78.5,140.1
			c-0.1-0.1-0.2-0.1-0.3-0.2c-1-1-2-2-3-2.9c-1.2-1.2-2.5-2.3-3.7-3.5c-0.9-0.9-1.7-1.8-2.6-2.7c-0.5-0.5-1.1-0.9-1.6-1.4
			c-1.2-1.5-2.5-2.9-3.2-4.7c-0.1-0.3-0.2-0.5-0.3-0.8c-0.1-0.3-0.2-0.7,0.2-0.9c0.4-0.3,0.9,0,1,0.3c0.2,0.7,0.9,0.9,1.3,1.3
			c0.3,0.3,0.6,0.6,0.8,0.9c1.2,1.5,2.3,3,3.5,4.5c2.5,3.2,5.1,6.4,7.6,9.6C78.4,139.6,78.5,139.8,78.5,140.1
			C78.6,140,78.6,140,78.5,140.1z"/>
		<path d="M83.7,64.8C83.7,64.8,83.7,64.8,83.7,64.8C83.7,64.8,83.7,64.8,83.7,64.8L83.7,64.8z"/>
		<path d="M118.5,115.7c-0.1,0-0.4,0.2-0.5,0.4c-0.3,0.6-0.5,0.9-0.2,1.2l1.2-1.2C118.8,115.9,118.6,115.7,118.5,115.7z"/>
		<path d="M121.1,111.7c-0.3-0.1-0.6-0.2-1-0.2c-0.1-0.2-0.1-0.5-0.2-0.6c-0.2-0.1-0.6-0.2-0.7-0.1c-0.2,0.3-0.3,0.6-0.3,0.9
			c0,0.2,0.3,0.5,0.5,0.5c0.5,0.1,1,0.1,1.6,0.1c0.1,0,0.2-0.1,0.4-0.2C121.3,112,121.2,111.8,121.1,111.7z"/>
		<path d="M121.4,112.9c-0.7,0.3-1.2,0.1-1.8-0.2c-0.1,0.3-0.2,0.5-0.3,0.6c0.5,0.4,0.9,0.8,1.3,1.1l1.3-1.4
			C121.7,112.9,121.5,112.8,121.4,112.9z"/>
		<path d="M118.7,113.7c-0.1-0.2-0.3-0.3-0.4-0.5c-0.2-0.2-0.5-0.4-0.7-0.2c-0.1,0.1,0,0.5,0.1,0.7c0.2,0.3,0.4,0.6,0.7,0.9
			c0.2,0.2,0.6,0.3,0.8,0.2c0.3-0.2,0.1-0.5-0.1-0.7C119,114,118.8,113.8,118.7,113.7C118.7,113.7,118.7,113.7,118.7,113.7z"/>
		<path d="M112.4,122.8l0.5-0.5c0,0-0.1,0-0.1,0C112.5,122.4,112.4,122.6,112.4,122.8z"/>
		<path d="M115.9,110.6c-0.5,1.1-0.5,1.1-0.2,2.1c0,0.2,0,0.4-0.1,0.5c-0.1,0.4-0.1,0.8,0.3,1c0.5,0.3,0.6,0.8,0.5,1.3
			c-0.1,0.7,0.2,0.8,0.7,0.7c0.1-0.2,0.1-0.4,0.2-0.5c0.3-0.7,0.3-1.2-0.4-1.7c-0.4-0.3-0.7-0.9-0.4-1.6c0.7,0.3,0.7,0.3,1.5-0.2
			c0.1-0.5,0.2-0.8,0.4-1.2c-0.7-0.4-0.7-0.4-1.2,0.4c-0.4,0.7-0.5,0.7-1.2,0.2c0.2-0.2,0.5-0.3,0.9-0.6
			C116.5,110.9,116.2,110.7,115.9,110.6z"/>
		<path d="M106.8,127.6c-0.2-0.4-0.3-0.9-1-0.7c-0.1,0-0.3-0.2-0.5-0.4c-0.1-0.1-0.2-0.3-0.3-0.5c-0.6,0.7-0.6,0.8,0.2,1.2
			c0.5,0.2,1,0.6,1.3,1c0.1,0.2,0.2,0.3,0.3,0.3l0.6-0.6c0,0-0.1,0-0.1,0C107.2,128.1,107,127.8,106.8,127.6z"/>
		<path d="M113.1,106.4c0,0.1-0.1,0.1-0.1,0.2c0.5,0.2,0.9,0.5,1.4,0.7c1.9,0.8,3.7,1.9,5.5,3c0.9,0.6,1.6,1.4,2.5,2c0,0,0,0,0,0
			l2-2.1c-0.1-0.1-0.1-0.2-0.2-0.3c-0.3,0.3-0.5,0.5-0.8,0.8c-1.6-0.9-3.2-1.9-4.9-2.6C116.7,107.5,114.9,107,113.1,106.4z"/>
		<path d="M126.6,108l0.2-0.2c-1.3-0.9-3.1-1.8-3.9-1.9C124.2,106.7,125.4,107.3,126.6,108z"/>
		<path d="M104.3,130.3c0,0.3,0,0.6,0,0.7c0.1,0,0.2,0,0.2,0l0.5-0.5C104.8,130.4,104.6,130.3,104.3,130.3z"/>
		<path d="M112.6,110.5c-0.4,0.6-0.7,1.1-1,1.7c-0.8-0.2-1.2-0.7-1.7-1.3c-0.7-0.8-1.5-1.1-2.6-0.6c0.8,0.3,1.7,0.7,2.4,0.9
			c0.1,0.4,0.1,0.8,0.2,0.9c0.5,0.3,1,0.4,1.6,0.6c0.1,0.3-0.2,1,0.5,1.2c0.6,0.1,0.7,0.5,0.9,1c-0.8,0.3-0.8,0.3-0.6,1.7
			c0.5,0,0.8,0,1,0c0.3,0.5,0.4,1,0.7,1.2c0.3,0.2,0.6-0.1,0.8-0.5c-0.9-0.8-2.3-1.4-1-2.9c-0.1-0.2-0.2-0.3-0.3-0.4
			c-0.2-0.1-0.5-0.2-0.8-0.3c-0.7-0.5-0.7-0.9,0.1-1.3c0.2-0.1,0.3-0.2,0.6-0.4c-0.5-0.2-0.6-0.5-0.4-0.9
			C113.2,110.7,112.9,110.6,112.6,110.5z"/>
	</g>
</g>
</svg>
