<?xml version="1.0" encoding="utf-8"?>
<!-- Generator: Adobe Illustrator 17.1.0, SVG Export Plug-In . SVG Version: 6.00 Build 0)  -->
<!DOCTYPE svg PUBLIC "-//W3C//DTD SVG 1.1//EN" "http://www.w3.org/Graphics/SVG/1.1/DTD/svg11.dtd">
<svg version="1.1" id="Layer_1" xmlns="http://www.w3.org/2000/svg" xmlns:xlink="http://www.w3.org/1999/xlink" x="0px" y="0px"
	 viewBox="0 0 288 216" enable-background="new 0 0 288 216" xml:space="preserve">
<g>
	<path d="M148,83.3c-0.2,0.5-0.3,1.1-0.7,1.3c-0.4,0.2-0.9-0.2-1.4-0.3c-0.4-0.1-0.8-0.2-1.2-0.2c-5.1,0.6-10.2,1.3-15.3,1.9
		c-1.7,0.2-1.8,0.2-2.3-1.6C115,87.3,103,90.2,91,93c0-0.1-0.1-0.3-0.1-0.4c1-1,1.8-2.1,3.4-2.5c10.2-2.4,20.4-4.9,30.6-7.3
		c0.6-0.1,1.1-0.4,1.7-0.6c-0.7-1.5,0.3-2,1.5-2.4c4.7-1.7,9.4-3.4,14.1-5.1c0.5-0.2,1-0.7,1.3-1.1c0.6-0.9,1.3-0.8,2,0.2
		c1.1-0.3,2.2-0.6,3.3-0.9c0.7-0.2,1.2-0.4,1.5-1.2c0.2-0.6,0.5-1,0.8-1.6c0.8-1.7,2.1-2.5,3.9-3c13-3.1,26.1-6.2,39.1-9.3
		c7.2-1.7,14.4-3.5,21.6-5.2c0.5-0.1,1.1-0.1,1.7-0.1c-0.1-0.4-0.2-0.8-0.3-1.2c-0.3-1.7,0.6-3.3,2.3-3.7c1.6-0.4,3.1,0.4,3.6,2.1
		c0.5,1.7,0.9,3.4,1.3,5c9.2-2.2,18.3-4.4,27.5-6.6c-0.2-0.8-0.4-1.8-0.6-2.8c-0.4-1.7,0.4-3.3,2.1-3.8c1.6-0.5,3.2,0.3,3.7,2
		c0.9,3.5,1.8,7.1,2.6,10.7c0.4,1.5,0.7,2.9,1,4.4c0.1,0.8,0.2,1.7,0,2.5c-0.2,1.4-1.2,2.1-2.7,2.1c-1.2,0.1-2.5-0.7-2.9-1.9
		c-0.4-1.2-0.7-2.5-1-3.6c-0.6,0.3-1.1,0.6-1.7,0.7c-6.6,1.6-13.3,3.2-19.9,4.8c-2,0.5-3.9,0.9-5.9,1.4c0.4,1.4,0.8,3,1.2,4.6
		c0.4,1.6-0.3,3.1-1.6,3.8c-1.3,0.6-3,0.3-3.7-0.9c-0.4-0.7-0.7-1.5-0.9-2.2c-2,0.5-3.9,1.1-5.9,1.5c-16.1,3.9-32.1,7.7-48.2,11.5
		c-3.1,0.7-6.2,1.5-9.4,2.2c-0.7,0.1-1.5-0.1-2.2-0.2c-0.3-0.1-0.6-0.3-0.9-0.5c-1.8-1.6-3.8-2.3-6.2-1.2
		C148.6,83.5,148.2,83.3,148,83.3z M145.9,75.6c0.5,2,1,4.2,1.5,6.2c1.4-0.5,2.6-0.8,3.8-1.2c-0.1-0.1-0.2-0.1-0.3-0.2
		c0.3-0.6,0.5-1.7,0.9-1.8c1.1-0.4,1.2,0.7,1.4,1.5c0,0,0,0.1,0,0.1c0.5,1.7,3.5,3.4,5.2,3c5.8-1.4,11.7-2.8,17.5-4.2
		c3.3-0.8,6.7-1.6,9.8-2.4c-1.1-4.6-2.2-9.1-3.3-13.8c-2.5,0.6-5.1,1.2-7.7,1.9c-6.6,1.6-13.2,3.1-19.8,4.7
		c-0.6,0.1-1.3,0.7-1.6,1.2c-1,1.5-1.9,3-1.2,4.9c0.1,0.3-0.5,0.8-0.8,1.2c-0.4-0.3-0.8-0.5-1.1-0.8c-0.2-0.3-0.2-0.7-0.3-1
		C148.5,75.1,147.2,75.3,145.9,75.6z M218.8,58.2c-9.9,2.4-19.8,4.7-29.6,7.1c0.5,1.9,1,4.1,1.5,6.2c0.5-0.2,0.9-0.5,1.4-0.6
		c8.1-2,16.1-3.9,24.2-5.8c1.3-0.3,2.6-0.5,3.9-0.8C219.8,62.3,219.3,60.2,218.8,58.2z M252.3,50.2c-9.3,2.2-18.4,4.4-27.5,6.6
		c0.5,1.9,1,4.1,1.4,5.9c9.2-2.2,18.3-4.4,27.6-6.6C253.3,54.2,252.8,52.2,252.3,50.2z M145.3,82c-0.4-1.9-0.9-3.7-1.2-5.4
		c-0.2-0.1-0.2-0.1-0.2-0.1c-4.9,1.7-9.8,3.4-14.6,5.2c-0.2,0.1-0.3,0.9-0.2,1.3c0.1,0.3,0.6,0.9,0.9,0.8
		C134.9,83.3,139.9,82.7,145.3,82z M217.8,54.3c-10,2.4-19.9,4.8-29.8,7.2c0.3,0.8,0.6,1.4,0.8,1.9c9.9-2.4,19.7-4.7,29.5-7.1
		C218.2,55.7,218,54.9,217.8,54.3z M191.4,75.2c10-2.4,19.9-4.7,29.8-7.1c-0.2-0.6-0.5-1.4-0.6-1.9c-9.8,2.4-19.6,4.7-29.4,7
		C191.3,73.7,191.3,74.4,191.4,75.2z M223.6,69.4c0.5,1.7,0.9,2.1,1.5,1.8c1.1-0.5,0.6-1.4,0.4-2.2c-0.3-1.6-0.7-3.1-1.1-4.7
		c-1.1-4.5-2.2-9.1-3.3-13.6c-0.2-0.7-0.5-1.2-1.3-1c-0.8,0.2-0.8,0.8-0.6,1.5c0.4,1.6,0.8,3.2,1.1,4.8
		C221.5,60.6,222.6,65.1,223.6,69.4z M256.7,59.7c0.2,0.9,0.4,1.9,1.4,1.6c1.1-0.3,0.8-1.2,0.6-2c-0.6-2.5-1.2-4.9-1.7-7.4
		c-0.6-2.4-1.2-4.8-1.7-7.2c-0.2-0.7-0.5-1.3-1.3-1c-0.4,0.2-0.8,1-0.7,1.5C254.4,50.1,255.6,55,256.7,59.7z M184.4,62.4
		c1.1,4.7,2.2,9.2,3.3,13.8c0.6-0.2,1.4-0.4,2-0.6c-1.1-4.6-2.2-9.1-3.3-13.8C185.8,62,185,62.2,184.4,62.4z"/>
	<path d="M167.7,71.3c0.5,1.5-0.3,3.3-1.9,3.8c-1.6,0.5-3.4-0.4-3.9-1.9c-0.5-1.6,0.4-3.4,1.9-3.9C165.5,68.8,167.2,69.7,167.7,71.3
		z M166.2,71.8c-0.8-0.3-1.3-0.6-1.6-0.5c-0.3,0.2-0.5,0.7-0.8,1.1c0.4,0.2,0.9,0.7,1.3,0.7C165.4,73.1,165.7,72.4,166.2,71.8z"/>
	<path d="M161.8,77.7c0.7,0.5,1.3,0.7,1.4,1.1c0.1,0.3-0.3,0.8-0.5,1.2c-0.4-0.2-1-0.3-1.2-0.7C161.4,79.1,161.7,78.5,161.8,77.7z"
		/>
</g>
<line fill="none" stroke="#000000" stroke-width="8" stroke-linecap="round" stroke-miterlimit="10" x1="44.9" y1="140.1" x2="32" y2="195.8"/>
<line fill="none" stroke="#000000" stroke-width="8" stroke-linecap="round" stroke-miterlimit="10" x1="112.1" y1="176.8" x2="101.2" y2="147.5"/>
<path d="M124.6,91.7l-4.4,0.3c0,0.1,0,0.1,0,0.2c0,0,0,0-0.1,0.1c0,0,0,0-0.1,0.1c0,0-0.1,0-0.1,0.1c0,0-0.1,0-0.1,0
	c-0.4,0-0.8,0-1.2,0c-0.4,0-0.8,0-1.2,0c-0.4,0-0.8,0-1.2,0c-0.1,0-0.3,0-0.5,0l-3,0.2l-0.2,0c0,0,0,0,0,0c-0.3,0-0.5,0-0.8,0
	c-0.1,0-0.2-0.3-0.3-0.3c-0.1,0,0-0.2-0.1-0.3c-0.1-0.1-0.1-0.2-0.1-0.3c0-0.1,0-0.3,0-0.5c0-0.4,0-0.9,0-1.3l-1.8-0.4c0,0,0,0,0,0
	c0,0.6,0.1,1.3,0.2,1.9c0,0.1,0,0.1,0,0.2c0,0.1,0,0.1,0,0.2c0,0,0,0.1,0,0.1s0,0.1,0,0.1c0,0.1,0,0.1-0.1,0.1c0,0,0.1,0.7,0,0.8
	c0,0-0.1,0-0.1,0.1s-0.1,0-0.2,0c-0.5,0-0.7,0.2-1.2,0.1l-0.5,0l-13.9,1c0.3,0.2,0.6,0.3,0.9,0.5c0.4,0.2,0.7,0.4,1,0.6
	c0.3,0.2,0.7,0.4,1,0.5c0.3,0.2,0.6,0.4,1,0.5c0.9,0.5,1.8,1,2.7,1.5c0.9,0.5,1.7,0.9,2.6,1.4c0.9,0.5,1.7,0.9,2.5,1.4
	c0.8,0.4,1.6,0.9,2.5,1.3c0.2,0.1,0.4,0.2,0.5,0.3c0.1,0.1,0.2,0.2,0.2,0.3s0,0.3,0,0.5c0,0.2-0.1,0.5-0.2,0.9
	c-0.1,0.6-0.3,1.1-0.5,1.7c-0.2,0.6-0.3,1.1-0.5,1.7c-0.2,0.6-0.3,1.1-0.5,1.7c-0.2,0.6-0.3,1.1-0.5,1.7c0,0,0,0,0,0c0,0,0,0,0,0
	c0,0,0,0,0,0c0,0,0,0,0,0c-0.1,0.2-0.1,0.3-0.2,0.4c-0.1,0.1-0.1,0.1-0.2,0.1c-0.1,0-0.1,0-0.2-0.1c-0.1-0.1-0.1-0.1-0.2-0.2
	c-0.6-0.7-1.2-1.5-1.9-2.2c-0.6-0.7-1.3-1.5-1.9-2.3c-0.6-0.8-1.3-1.5-2-2.3c-0.7-0.8-1.3-1.6-2-2.4c-0.4-0.4-0.8-0.9-1.1-1.3
	c-0.4-0.5-0.8-0.9-1.2-1.4c-0.4-0.5-0.8-0.9-1.2-1.4c-0.4-0.5-0.8-0.9-1.2-1.4c-0.1-0.1-0.1-0.2-0.2-0.3c0-0.1-0.1-0.2-0.1-0.3
	s0-0.2,0-0.3c0-0.1,0-0.2,0.1-0.3c0,0,0,0,0,0c0,0,0,0,0,0s0,0,0,0c0,0,0,0,0,0c0-0.1,0.1-0.1,0.1-0.2c0-0.1,0.1-0.1,0.1-0.2
	c0-0.1,0.1-0.1,0.1-0.2c0,0,0,0,0,0l-4.9,0.4l2.3-4l16.6-7.2c0.2-0.1,0.4-0.2,0.6-0.3c0.2-0.1,0.3-0.1,0.4-0.2c0.1,0,0.2,0,0.2,0
	c0.1,0.1,0.1,0.2,0.1,0.3c0,0.2,0.1,0.4,0.1,0.7c0.1,0.6,0.1,1.3,0.2,1.9l1.7-1.1c-0.1-0.7-0.2-1.4-0.3-2.1c0-0.1,0-0.1,0-0.2
	c0-0.1,0-0.1,0-0.2c0-0.1,0-0.1,0-0.1c0,0,0-0.1,0-0.1c0,0,0-0.1,0-0.1c0,0,0-0.1,0.1-0.1c0,0,0.1,0,0.1-0.1c0,0,0.1,0,0.1-0.1
	c0.7-0.3,1.4-0.7,2-1c0.7-0.3,1.3-0.6,2-1c0.6-0.3,1.3-0.6,1.9-0.9c0.6-0.3,1.3-0.6,1.9-0.9c0.1,0,0.1-0.1,0.2-0.1c0,0,0.1,0,0.1,0
	s0.1,0.1,0.1,0.2c0,0.1,0,0.2,0.1,0.3l4.4-1.9l2,5.7c-0.2-2.1-0.4-4.2-0.7-6.3c-0.4-2.8-1-5.7-1.6-8.5c-0.7-2.8-1.4-5.6-2.4-8.4
	c-0.5-1.5-1-3-1.6-4.5c-0.6-1.5-1.2-2.9-1.8-4.3c-0.6-1.4-1.3-2.8-2-4.2c-0.7-1.4-1.5-2.7-2.2-4c-1.1-1.9-2.3-3.6-3.5-5.3
	c-1.2-1.7-2.5-3.3-3.9-4.9c-1.4-1.6-2.9-3-4.5-4.4c-1.6-1.4-3.3-2.8-5.2-4c-0.5-0.4-1.1-0.8-1.8-1.1c-0.6-0.4-1.3-0.8-2-1.1
	c-0.7-0.4-1.5-0.7-2.2-1c-0.8-0.3-1.6-0.6-2.4-0.9c-1.6-0.6-3.2-1-4.7-1.3c-1.6-0.3-3.2-0.5-4.9-0.6c-1.7-0.1-3.3,0-5,0.2
	c-1.7,0.2-3.4,0.5-5.1,1c-2,0.6-4,1.3-6,2.3c-2,1-3.9,2.1-5.8,3.5c-1.9,1.4-3.8,3-5.6,4.8c-1.8,1.8-3.6,3.9-5.3,6.2
	c-0.6,0.8-1.1,1.6-1.7,2.4c-0.6,0.8-1.1,1.7-1.6,2.5c-0.5,0.9-1.1,1.7-1.6,2.6c-0.5,0.9-1,1.8-1.5,2.7c-1.2,2.4-2.4,4.9-3.4,7.5
	c-1,2.6-2,5.4-2.8,8.2c-0.8,2.8-1.5,5.8-2.1,8.8c-0.6,3.1-1,6.2-1.4,9.4c-0.1,1.4-0.3,2.8-0.4,4.2c-0.1,1.4-0.2,2.8-0.2,4.2
	c0,1.4-0.1,2.8,0,4.3s0.1,2.8,0.1,4.3c0.2,4.3,0.6,8.5,1.3,12.6c0.6,4.1,1.5,8,2.6,11.9c1.1,3.8,2.3,7.4,3.8,10.9
	c1.5,3.4,3.1,6.7,4.9,9.8c1.4,2.4,2.8,4.6,4.4,6.6c1.5,2,3.1,3.9,4.7,5.6c1.6,1.7,3.3,3.2,5,4.5c1.7,1.3,3.5,2.5,5.3,3.5
	c2.4,1.3,4.7,2.4,7.1,3.2c2.3,0.8,4.6,1.3,6.9,1.5c2.2,0.2,4.5,0.2,6.7,0c2.2-0.3,4.4-0.8,6.5-1.5c3-1,5.8-2.3,8.4-4
	c2.5-1.6,4.9-3.5,7.2-5.7c2.2-2.1,4.3-4.5,6.2-7.2c1.9-2.6,3.7-5.4,5.3-8.5c0.8-1.5,1.5-2.9,2.2-4.4c0.7-1.5,1.3-3,1.9-4.5
	c0.6-1.5,1.1-3,1.7-4.6c0.5-1.5,1-3.1,1.4-4.7c0.4-1.4,0.7-2.7,1-4.1c0.3-1.4,0.6-2.8,0.9-4.2c0.3-1.4,0.5-2.8,0.7-4.3
	c0.2-1.4,0.4-2.9,0.5-4.4c0.1-0.9,0.2-1.9,0.3-2.8c0.1-0.9,0.1-1.9,0.2-2.8c0-0.9,0.1-1.9,0.1-2.8c0-0.9,0-1.9,0-2.8
	c0-2-0.1-3.9-0.1-5.8L124.6,91.7z M103.4,62.6C103.4,62.6,103.4,62.6,103.4,62.6C103.4,62.6,103.4,62.6,103.4,62.6
	c0-0.1,0-0.1,0-0.1c0,0,0,0,0,0c0.5-1,0.9-2,1.4-3c0.5-1,0.9-1.9,1.4-2.9c0.4-1,0.9-1.9,1.3-2.9c0.4-0.9,0.9-1.9,1.3-2.8
	c0-0.1,0.1-0.2,0.1-0.2c0-0.1,0.1-0.1,0.1-0.1c0,0,0.1,0,0.2,0.1c0.1,0.1,0.1,0.1,0.2,0.2c0.5,0.9,1,1.8,1.5,2.7
	c0.5,0.9,1,1.8,1.4,2.8c0.5,0.9,0.9,1.9,1.3,2.8c0.4,1,0.8,1.9,1.2,2.9c0,0.1,0,0.1,0.1,0.2c0,0.1,0,0.1,0.1,0.2
	c0,0.1,0,0.1,0.1,0.2s0,0.1,0.1,0.2c0,0-0.1,0.1-0.1,0.1c0,0,0,0.1-0.1,0.1s0,0.1-0.1,0.1c0,0,0,0.1-0.1,0.1
	c-0.4,0.4-0.8,0.9-1.2,1.3c-0.4,0.4-0.8,0.9-1.2,1.3c-0.4,0.5-0.8,0.9-1.2,1.4c-0.4,0.5-0.8,0.9-1.2,1.4c-0.2,0.2-0.3,0.4-0.5,0.6
	c-0.2,0.2-0.3,0.4-0.5,0.6c-0.2,0.2-0.3,0.4-0.5,0.6c-0.2,0.2-0.3,0.4-0.5,0.6c-0.1,0.1-0.1,0.1-0.2,0.2s-0.1,0-0.2,0
	c-0.1,0-0.1-0.1-0.2-0.1c-0.1-0.1-0.1-0.2-0.2-0.3c-0.3-0.7-0.5-1.3-0.8-1.9c-0.3-0.6-0.6-1.2-0.9-1.8c-0.3-0.6-0.6-1.2-1-1.8
	c-0.3-0.6-0.7-1.1-1-1.7c-0.1-0.1-0.1-0.2-0.2-0.3c0-0.1-0.1-0.2-0.1-0.3c0-0.1,0-0.2,0-0.3C103.4,62.8,103.4,62.7,103.4,62.6z
	 M101.4,66.9c0.1-0.1,0.1-0.2,0.2-0.3c0.1-0.1,0.1-0.2,0.2-0.3c0.1-0.1,0.1-0.2,0.2-0.3c0,0,0,0,0-0.1c0,0,0,0,0.1,0s0,0,0.1,0
	c0,0,0,0,0.1,0c0,0,0.1,0.1,0.1,0.1c0,0,0,0.1,0.1,0.1c0,0,0,0.1,0.1,0.1c0,0,0,0.1,0.1,0.1c0.3,0.5,0.6,1,0.9,1.5
	c0.3,0.5,0.6,1,0.9,1.6c0.3,0.5,0.6,1.1,0.8,1.6c0.3,0.6,0.5,1.1,0.7,1.7c0,0.1,0.1,0.2,0.1,0.3s0,0.2,0,0.2c0,0.1,0,0.1,0,0.2
	c0,0.1,0,0.1,0,0.2c0,0,0,0.1,0,0.1s0,0.1-0.1,0.1c0,0,0,0.1-0.1,0.1c0,0,0,0.1-0.1,0.1c-0.7,0.8-1.5,1.6-2.2,2.5
	c-0.8,0.8-1.5,1.7-2.3,2.6c-0.8,0.9-1.6,1.8-2.4,2.6c-0.8,0.9-1.6,1.8-2.4,2.7c-0.3,0.3-0.5,0.6-0.8,0.9c-0.3,0.3-0.5,0.6-0.8,0.9
	c-0.3,0.3-0.5,0.6-0.8,0.9c-0.3,0.3-0.5,0.6-0.8,0.9c-0.1,0.1-0.1,0.2-0.2,0.2C93.1,88,93,88,93,88c-0.1,0-0.1,0-0.2-0.1
	c-0.1-0.1-0.1-0.1-0.2-0.3c-0.1-0.1-0.1-0.2-0.2-0.3c0-0.1-0.1-0.2-0.1-0.3c0-0.1,0-0.2,0-0.3c0-0.1,0-0.2,0.1-0.3c0,0,0,0,0-0.1
	c0,0,0,0,0-0.1s0,0,0-0.1c0,0,0,0,0-0.1c0.3-0.7,0.7-1.4,1-2.2c0.3-0.7,0.7-1.4,1-2.1c0.3-0.7,0.7-1.4,1-2.1c0.3-0.7,0.6-1.4,1-2.1
	c0.4-0.9,0.8-1.8,1.2-2.7c0.4-0.9,0.8-1.8,1.2-2.6c0.4-0.9,0.8-1.7,1.2-2.6c0.4-0.9,0.8-1.7,1.2-2.6C101.3,67.2,101.4,67,101.4,66.9
	z M90,49.1c0-0.9,0-1.9,0-2.8s0-1.9,0-2.8c0-0.9,0-1.9,0-2.8c0-0.5,0-1,0-1.4c0-0.5,0-1,0-1.4c0-0.5,0-1,0-1.4c0-0.5,0-1,0-1.4
	c0-0.1,0-0.2,0-0.3c0-0.1,0-0.2,0-0.2c0-0.1,0-0.1,0-0.2c0-0.1,0-0.1,0-0.1c0-0.1,0.1-0.1,0.1-0.1c0,0,0.1-0.1,0.1-0.1
	c0.1,0,0.1,0,0.2,0c0.1,0,0.2,0.1,0.3,0.1c0.4,0.2,0.8,0.4,1.2,0.6c0.4,0.2,0.8,0.4,1.2,0.6c0.4,0.2,0.8,0.4,1.2,0.6
	c0.4,0.2,0.8,0.4,1.2,0.5c0.4,0.3,0.8,0.6,1.1,0.9c0.4,0.3,0.7,0.6,1.1,0.8c0.4,0.3,0.7,0.6,1.1,0.8c0.4,0.3,0.7,0.5,1.1,0.8
	c0.1,0.1,0.1,0.1,0.2,0.2c0.1,0.1,0.1,0.1,0.1,0.2c0,0.1,0,0.2,0.1,0.3c0,0.1,0,0.2,0,0.4c-0.3,1.2-0.5,2.4-0.8,3.6
	c-0.3,1.2-0.5,2.4-0.8,3.6c-0.3,1.2-0.5,2.4-0.8,3.7c-0.3,1.2-0.5,2.5-0.8,3.7c0,0.1,0,0.2,0,0.2c0,0.1,0,0.1,0,0.2
	c0,0.1,0,0.1,0,0.2s0,0.1,0,0.1c0,0.1-0.1,0.1-0.1,0.2c0,0-0.1,0-0.2,0c-0.1,0-0.1,0-0.2-0.1c-0.1,0-0.2-0.1-0.3-0.2
	c-0.5-0.2-0.9-0.5-1.4-0.7c-0.5-0.2-0.9-0.5-1.4-0.7c-0.5-0.2-1-0.5-1.4-0.7c-0.5-0.2-1-0.5-1.5-0.7c-0.1-0.1-0.2-0.1-0.3-0.2
	c-0.1-0.1-0.1-0.1-0.2-0.2c-0.1-0.1-0.1-0.2-0.1-0.3c0-0.1,0-0.3,0-0.5C90,51,90,50.1,90,49.1z M89.9,80.6c0-1.3,0-2.7,0-4
	c0-1.3,0-2.7,0-4s0-2.7,0-4c0-0.9,0-1.8,0-2.7c0-0.9,0-1.8,0-2.7c0-0.9,0-1.8,0-2.7s0-1.8,0-2.7c0-0.1,0-0.2,0-0.3s0-0.2,0-0.3
	c0-0.1,0-0.1,0-0.2s0-0.1,0-0.1c0-0.1,0-0.1,0.1-0.1s0.1,0,0.1,0s0.1,0,0.2,0c0.1,0,0.2,0,0.3,0.1c0.2,0.1,0.4,0.1,0.6,0.2
	c0.2,0.1,0.4,0.1,0.6,0.2c0.2,0.1,0.4,0.2,0.6,0.2c0.2,0.1,0.4,0.2,0.6,0.2c0.2,0.1,0.4,0.3,0.6,0.4c0.2,0.1,0.4,0.3,0.7,0.4
	c0.2,0.1,0.4,0.3,0.7,0.4c0.2,0.1,0.4,0.3,0.7,0.4c0.1,0.1,0.2,0.1,0.3,0.2c0.1,0.1,0.1,0.2,0.1,0.3s0,0.2,0,0.4
	c0,0.1,0,0.3-0.1,0.5c-0.4,2-0.8,4-1.3,6c-0.4,2-0.8,4-1.3,6.1c-0.4,2-0.9,4.1-1.3,6.2c-0.4,2.1-0.9,4.2-1.3,6.3c0,0,0,0.1,0,0.1
	c0,0,0,0.1,0,0.1c0,0,0,0.1,0,0.1c0,0,0,0.1,0,0.1c0,0.1-0.1,0.1-0.1,0.2c0,0.1-0.1,0.1-0.1,0.1c0,0-0.1,0.1-0.2,0.1
	c-0.1,0-0.1,0-0.2,0c-0.1,0-0.2-0.1-0.3-0.2c-0.1-0.1-0.1-0.2-0.2-0.3s-0.1-0.2-0.1-0.4s0-0.3,0-0.4C89.9,83.2,89.9,81.9,89.9,80.6z
	 M82.2,56.8c0,0,0.1,0,0.1,0c0,0,0.1,0,0.2,0c0.1,0,0.1,0,0.2,0c0,0.1,0,0.2,0.1,0.2s0.1,0.2,0.1,0.2c0,0.1,0.1,0.2,0.1,0.2
	c0,0.1,0,0.2,0.1,0.2c0.2,0.9,0.4,1.8,0.6,2.7c0.2,0.9,0.4,1.8,0.5,2.7c0.2,0.9,0.4,1.8,0.5,2.7c0.2,0.9,0.4,1.8,0.5,2.7
	c0.3,1.4,0.6,2.8,0.8,4.1c0.3,1.4,0.5,2.7,0.8,4.1c0.3,1.4,0.5,2.7,0.8,4.1c0.3,1.3,0.5,2.7,0.8,4c0,0.1,0,0.2,0,0.3
	c0,0.1,0,0.2,0,0.3c0,0.1,0,0.2,0,0.2c0,0.1,0,0.1,0,0.2c0,0,0,0.1-0.1,0.1c0,0,0,0.1-0.1,0.1c0,0-0.1,0.1-0.1,0.1
	c0,0-0.1,0.1-0.1,0.1c-0.1,0.1-0.2,0.1-0.3,0.1c-0.1,0-0.2-0.1-0.2-0.1c-0.1-0.1-0.1-0.2-0.2-0.3c0-0.1-0.1-0.2-0.1-0.3
	c-0.4-0.9-0.8-1.8-1.2-2.7c-0.4-0.9-0.8-1.8-1.2-2.8c-0.4-0.9-0.8-1.9-1.3-2.8c-0.4-0.9-0.8-1.9-1.3-2.8c-0.5-1.1-0.9-2.1-1.4-3.2
	c-0.5-1.1-1-2.1-1.4-3.2c-0.5-1.1-1-2.2-1.5-3.3c-0.5-1.1-1-2.2-1.5-3.3c-0.1-0.2-0.1-0.3-0.2-0.4S76.1,61,76,60.9
	c0-0.1,0-0.2,0-0.2s0-0.1,0-0.2c0,0,0-0.1,0.1-0.1c0,0,0.1-0.1,0.1-0.1s0.1-0.1,0.2-0.1c0.1,0,0.1-0.1,0.2-0.2
	c0.4-0.3,0.9-0.7,1.3-1c0.4-0.3,0.9-0.6,1.4-0.8c0.5-0.3,0.9-0.5,1.4-0.7c0.5-0.2,0.9-0.4,1.4-0.5C82.1,56.9,82.1,56.9,82.2,56.8z
	 M85.9,89.5c-0.1,0-0.1,0-0.2-0.1c-0.6-0.3-1.2-0.7-1.9-1c-0.6-0.3-1.3-0.7-1.9-1c-0.6-0.4-1.3-0.7-1.9-1.1c-0.7-0.4-1.3-0.7-2-1.1
	c-0.9-0.5-1.8-1-2.7-1.4c-0.9-0.5-1.8-1-2.7-1.5c-0.9-0.5-1.9-1-2.8-1.5c-1-0.5-1.9-1-2.9-1.6c-0.2-0.1-0.4-0.2-0.5-0.3
	c-0.1-0.1-0.2-0.2-0.3-0.4C66,78.4,66,78.2,66,78c0-0.2,0.1-0.4,0.2-0.7c0.3-0.7,0.5-1.4,0.8-2.1c0.3-0.7,0.5-1.4,0.8-2.1
	c0.3-0.7,0.5-1.4,0.8-2c0.3-0.7,0.5-1.3,0.8-2c0,0,0,0,0,0c0,0,0,0,0,0c0,0,0,0,0,0s0,0,0,0c0.1-0.2,0.2-0.3,0.2-0.4
	c0.1-0.1,0.2-0.1,0.3-0.1c0.1,0,0.2,0,0.3,0.1c0.1,0.1,0.2,0.2,0.4,0.4c1,1.2,2,2.4,3,3.6c1,1.2,1.9,2.3,2.9,3.5
	c0.9,1.1,1.9,2.2,2.8,3.4c0.9,1.1,1.8,2.2,2.7,3.3c0.4,0.4,0.7,0.9,1.1,1.3c0.4,0.4,0.7,0.8,1.1,1.3c0.4,0.4,0.7,0.8,1.1,1.2
	c0.4,0.4,0.7,0.8,1.1,1.2c0.1,0.1,0.1,0.1,0.2,0.2c0,0.1,0.1,0.1,0.1,0.2s0,0.2,0,0.2s0,0.2-0.1,0.3c0,0,0,0,0,0s0,0,0,0
	c0,0,0,0,0,0c0,0,0,0,0,0c0,0,0,0,0,0c0,0,0,0,0,0c0,0,0,0,0,0s0,0,0,0c0,0,0,0,0,0c0,0,0,0,0,0c0,0,0,0,0,0c0,0,0,0,0,0
	c0,0,0,0,0,0c0,0,0,0,0,0c0,0,0,0,0,0c0,0,0,0,0,0c0,0.1-0.1,0.2-0.1,0.2c0,0.1-0.1,0.1-0.1,0.2C86,89.5,86,89.5,85.9,89.5z M86,93
	c0,0.1,0,0.1,0,0.2c0,0.1,0,0.1,0,0.2c0,0,0,0.1,0,0.1c0,0,0,0.1-0.1,0.1c0,0-0.1,0.1-0.1,0.1c0,0-0.1,0-0.1,0.1
	c-0.3,0.2-0.7,0.3-1,0.5c-0.3,0.2-0.7,0.3-1,0.5c-0.3,0.2-0.7,0.3-1,0.5c-0.3,0.2-0.7,0.3-1,0.5c-1.1,0.5-2.2,1.1-3.3,1.6
	c-1.1,0.6-2.3,1.1-3.4,1.7c-1.2,0.6-2.4,1.2-3.6,1.7c-1.2,0.6-2.4,1.2-3.7,1.8c-0.1,0-0.2,0.1-0.3,0.1c-0.1,0-0.2,0.1-0.3,0.1
	c-0.1,0-0.2,0.1-0.3,0.1c-0.1,0-0.2,0.1-0.3,0.2c-0.2,0.1-0.3,0.2-0.4,0.2c-0.1,0-0.2,0-0.3-0.1c-0.1-0.1-0.2-0.2-0.2-0.3
	s-0.1-0.4-0.1-0.6c-0.1-0.8-0.2-1.6-0.3-2.4c-0.1-0.8-0.2-1.6-0.3-2.4c-0.1-0.8-0.2-1.6-0.3-2.4c-0.1-0.8-0.2-1.6-0.3-2.4
	c0-0.1,0-0.1,0-0.2s0-0.1,0-0.2c0,0,0-0.1,0-0.1c0,0,0-0.1,0-0.1c0-0.1,0-0.1,0-0.2c0-0.1,0-0.1,0-0.2s0-0.1,0-0.1c0,0,0-0.1,0-0.1
	c0-0.1,0.1-0.2,0.1-0.2c0.1-0.1,0.1-0.1,0.2-0.1c0.1,0,0.1,0,0.2,0c0.1,0,0.2,0,0.2,0c0.6,0,1.2,0,1.8,0c0.6,0,1.2,0,1.8,0
	c0.6,0,1.2,0,1.7,0c0.6,0,1.1,0,1.7,0c1,0,2.1,0.1,3.1,0.1c1,0,2,0.1,3,0.1c1,0,1.9,0.1,2.9,0.1c0.9,0,1.9,0.1,2.8,0.1
	c0.1,0,0.2,0,0.4,0c0.1,0,0.2,0,0.3,0c0.1,0,0.2,0,0.3,0c0.1,0,0.2,0,0.3,0c0.1,0,0.2,0,0.2,0c0.1,0,0.1,0.1,0.2,0.1
	c0,0.1,0.1,0.1,0.1,0.2c0,0.1,0,0.2,0.1,0.4c0,0.1,0,0.2,0,0.2C86,92.9,86,92.9,86,93z M65.9,37.6c0,0,0-0.1,0.1-0.1
	c0,0,0.1-0.1,0.1-0.1s0.1-0.1,0.1-0.1c0,0,0.1-0.1,0.1-0.1c0.5-0.3,1.1-0.6,1.6-0.9c0.5-0.3,1-0.6,1.6-0.9c0.5-0.3,1-0.6,1.5-0.8
	c0.5-0.3,1-0.5,1.5-0.7c0.3-0.2,0.7-0.3,1-0.4c0.3-0.1,0.7-0.2,1-0.3c0.3-0.1,0.7-0.2,1-0.3c0.3-0.1,0.7-0.2,1-0.3
	c0.1,0,0.2,0,0.3-0.1c0.1,0,0.2,0,0.3,0c0.1,0,0.2,0,0.3,0c0.1,0,0.2,0,0.3,0c0,0.1,0.1,0.2,0.1,0.2c0,0.1,0.1,0.1,0.1,0.2
	s0.1,0.1,0.1,0.2c0,0.1,0,0.1,0.1,0.2c0.1,0.4,0.2,0.9,0.3,1.3c0.1,0.4,0.2,0.9,0.3,1.3c0.1,0.4,0.2,0.9,0.3,1.3
	c0.1,0.4,0.2,0.9,0.3,1.3c0.2,1.1,0.4,2.2,0.7,3.3c0.2,1.1,0.4,2.2,0.7,3.3c0.2,1.1,0.4,2.2,0.7,3.3c0.2,1.1,0.4,2.2,0.7,3.2
	c0,0.1,0,0.2,0.1,0.3s0,0.2,0,0.3c0,0.1,0,0.2,0,0.2s0,0.1-0.1,0.2c0,0.1,0,0.1-0.1,0.1c0,0-0.1,0.1-0.1,0.1c0,0-0.1,0.1-0.1,0.1
	c-0.1,0-0.1,0-0.2,0.1c-0.6,0.1-1.1,0.3-1.6,0.6c-0.5,0.2-1.1,0.5-1.6,0.8c-0.5,0.3-1.1,0.6-1.6,1c-0.5,0.4-1,0.7-1.6,1.1
	c-0.1,0.1-0.2,0.1-0.3,0.2c-0.1,0-0.2,0-0.3-0.1c-0.1-0.1-0.2-0.2-0.2-0.3c-0.1-0.1-0.1-0.3-0.2-0.4c-0.5-1.2-1.1-2.4-1.6-3.6
	c-0.5-1.2-1.1-2.5-1.7-3.7c-0.6-1.2-1.1-2.5-1.7-3.8c-0.6-1.3-1.1-2.5-1.7-3.8c-0.1-0.2-0.2-0.4-0.3-0.6c-0.1-0.2-0.2-0.4-0.3-0.6
	c-0.1-0.2-0.2-0.4-0.3-0.6s-0.2-0.4-0.3-0.6c-0.1-0.1-0.1-0.2-0.2-0.4s-0.1-0.2-0.1-0.3c0-0.1,0-0.2,0-0.3
	C65.8,37.7,65.8,37.6,65.9,37.6z M46.7,67.3c0-0.2,0.1-0.5,0.2-0.8c0.3-0.9,0.6-1.9,0.9-2.8c0.3-0.9,0.6-1.8,1-2.7
	c0.3-0.9,0.7-1.7,1.1-2.6c0.4-0.8,0.7-1.7,1.1-2.5c0.2-0.4,0.4-0.9,0.6-1.3c0.2-0.4,0.4-0.8,0.6-1.2c0.2-0.4,0.4-0.8,0.7-1.2
	c0.2-0.4,0.5-0.8,0.7-1.2c0.2-0.3,0.3-0.5,0.4-0.7c0.1-0.2,0.2-0.2,0.3-0.2c0.1,0,0.2,0.1,0.4,0.2c0.1,0.1,0.3,0.4,0.6,0.6
	c1,1.2,2,2.4,3,3.6c1,1.2,2,2.4,3,3.5c1,1.2,1.9,2.3,2.9,3.4c0.9,1.1,1.9,2.2,2.8,3.3c0.1,0.1,0.2,0.2,0.3,0.3
	c0.1,0.1,0.1,0.2,0.1,0.3c0,0.1,0,0.2,0,0.3c0,0.1,0,0.2-0.1,0.4c0,0,0,0,0,0s0,0,0,0.1c0,0,0,0,0,0.1c0,0,0,0,0,0.1
	c-0.2,0.3-0.3,0.6-0.5,0.9c-0.2,0.3-0.3,0.6-0.4,0.9c-0.1,0.3-0.3,0.6-0.4,0.9c-0.1,0.3-0.3,0.6-0.4,0.9c-0.2,0.5-0.4,1-0.6,1.5
	c-0.2,0.5-0.4,1-0.6,1.5c-0.2,0.5-0.3,1.1-0.5,1.6c-0.2,0.5-0.3,1.1-0.5,1.6c0,0.1,0,0.1,0,0.1c0,0,0,0.1,0,0.1c0,0,0,0.1,0,0.1
	c0,0,0,0.1,0,0.1c0,0.1-0.1,0.1-0.1,0.2c0,0-0.1,0.1-0.2,0.1c-0.1,0-0.1,0-0.2,0c-0.1,0-0.2-0.1-0.4-0.1c-0.4-0.2-0.7-0.4-1.1-0.6
	c-0.4-0.2-0.8-0.4-1.2-0.6c-0.4-0.2-0.8-0.4-1.2-0.7c-0.4-0.2-0.8-0.5-1.2-0.7c-0.8-0.4-1.6-0.9-2.4-1.3c-0.8-0.4-1.6-0.9-2.5-1.3
	c-0.8-0.5-1.7-0.9-2.5-1.4c-0.9-0.5-1.7-0.9-2.6-1.4c-0.3-0.1-0.5-0.3-0.6-0.4c-0.2-0.1-0.3-0.3-0.3-0.4
	C46.7,67.7,46.7,67.5,46.7,67.3z M47.5,112.4c-0.4,0.2-0.7,0.3-0.9,0.4c-0.2,0.1-0.4,0.1-0.5,0c-0.1-0.1-0.2-0.2-0.3-0.5
	c-0.1-0.3-0.2-0.6-0.3-1.1c-0.3-1.5-0.6-3.1-0.9-4.7c-0.3-1.6-0.5-3.2-0.7-4.7c-0.2-1.6-0.3-3.2-0.4-4.8c-0.1-1.6-0.2-3.2-0.2-4.9
	c0-0.1,0-0.2,0-0.3s0-0.2,0-0.2c0-0.1,0-0.1,0-0.2c0-0.1,0-0.1,0.1-0.2c0-0.1,0.1-0.2,0.2-0.2c0.1-0.1,0.1-0.1,0.2-0.1
	c0.1,0,0.2-0.1,0.3-0.1c0.1,0,0.2,0,0.4,0c1.4,0.1,2.8,0.1,4.2,0.1c1.4,0,2.7,0.1,4,0.1c1.3,0,2.6,0.1,3.9,0.1
	c1.3,0,2.5,0.1,3.8,0.1c0,0,0.1,0,0.1,0c0,0,0.1,0,0.1,0s0.1,0,0.2,0c0.1,0,0.1,0,0.2,0c0,0.1,0,0.1,0.1,0.2c0,0.1,0.1,0.2,0.1,0.2
	c0,0.1,0.1,0.2,0.1,0.3c0,0.1,0,0.2,0,0.3c0,1,0.1,2,0.1,3c0.1,1,0.1,2,0.3,3c0.1,1,0.2,2,0.4,2.9c0.2,1,0.3,1.9,0.5,2.9
	c0,0.1,0,0.2,0,0.2s0,0.1,0,0.2c0,0.1,0,0.1,0,0.2c0,0.1,0,0.1,0,0.1c0,0.1-0.1,0.1-0.1,0.2c0,0-0.1,0.1-0.1,0.1
	c0,0-0.1,0.1-0.2,0.1c-0.1,0-0.1,0.1-0.2,0.1c-1.1,0.6-2.3,1.1-3.5,1.7c-1.2,0.6-2.4,1.2-3.6,1.8c-1.2,0.6-2.5,1.2-3.7,1.8
	C50.1,111.1,48.8,111.7,47.5,112.4z M73.6,126.5C73.6,126.6,73.6,126.6,73.6,126.5c0,0.1,0,0.1-0.1,0.1c0,0,0,0,0,0.1
	c0,0,0,0.1,0,0.1c-0.7,1.4-1.3,2.8-2,4.2c-0.7,1.4-1.3,2.9-2,4.3c-0.7,1.5-1.4,2.9-2,4.4c-0.7,1.5-1.4,3-2.1,4.5
	c-0.1,0.2-0.2,0.4-0.3,0.5c-0.1,0.1-0.2,0.2-0.3,0.3c-0.1,0-0.2,0.1-0.3,0c-0.1,0-0.2-0.1-0.4-0.2c-0.9-0.7-1.7-1.5-2.6-2.3
	c-0.8-0.8-1.7-1.7-2.5-2.7c-0.8-0.9-1.6-1.9-2.3-3c-0.8-1-1.5-2.1-2.3-3.2c-0.1-0.1-0.2-0.3-0.2-0.4c-0.1-0.1-0.1-0.2-0.1-0.3
	c0-0.1,0-0.2,0-0.3c0-0.1,0-0.2,0.1-0.3c0-0.1,0-0.1,0.1-0.2c0-0.1,0.1-0.1,0.1-0.2c0-0.1,0.1-0.1,0.1-0.2c0.1-0.1,0.1-0.1,0.2-0.2
	c1.1-1.2,2.1-2.3,3.1-3.5c1-1.1,2-2.3,3-3.4c1-1.1,2-2.2,2.9-3.3c1-1.1,1.9-2.2,2.9-3.2c0.1-0.1,0.1-0.1,0.2-0.2
	c0.1-0.1,0.1-0.1,0.2-0.2c0.1-0.1,0.1-0.1,0.2-0.2c0.1-0.1,0.1-0.1,0.2-0.2c0,0.1,0.1,0.1,0.1,0.2c0,0,0.1,0.1,0.1,0.1
	s0.1,0.1,0.1,0.1s0.1,0.1,0.1,0.1c0.4,0.7,0.8,1.4,1.3,2.1c0.4,0.7,0.9,1.3,1.3,1.9c0.5,0.6,0.9,1.2,1.4,1.7c0.5,0.6,1,1.1,1.5,1.6
	c0.1,0.1,0.2,0.2,0.2,0.3c0.1,0.1,0.1,0.2,0.1,0.3c0,0.1,0,0.2,0,0.3C73.7,126.3,73.6,126.4,73.6,126.5z M76.9,119.5
	c-0.2,0.4-0.4,0.8-0.5,1.1c-0.2,0.4-0.4,0.8-0.5,1.1c-0.1,0.1-0.1,0.3-0.2,0.3c-0.1,0.1-0.1,0.1-0.2,0.2c-0.1,0-0.1,0-0.2,0
	c-0.1,0-0.2-0.1-0.2-0.2c-0.5-0.5-0.9-1-1.4-1.5c-0.4-0.5-0.9-1.1-1.3-1.6c-0.4-0.6-0.8-1.2-1.2-1.8c-0.4-0.6-0.8-1.3-1.1-1.9
	c0-0.1-0.1-0.1-0.1-0.2c0-0.1,0-0.1,0-0.2c0-0.1,0-0.1,0-0.2c0-0.1,0-0.1,0-0.2c0,0,0-0.1,0.1-0.1c0,0,0-0.1,0.1-0.1
	c0,0,0.1-0.1,0.1-0.1c0,0,0.1-0.1,0.1-0.1c0.8-0.9,1.6-1.7,2.3-2.6c0.8-0.8,1.5-1.7,2.3-2.5c0.7-0.8,1.5-1.6,2.2-2.5
	c0.7-0.8,1.4-1.6,2.2-2.4c0.6-0.7,1.2-1.4,1.8-2c0.6-0.7,1.2-1.3,1.8-2c0.6-0.7,1.2-1.3,1.7-2c0.6-0.6,1.1-1.3,1.7-1.9
	c0-0.1,0.1-0.1,0.1-0.1c0,0,0.1-0.1,0.1-0.1c0,0,0.1-0.1,0.1-0.1c0,0,0.1-0.1,0.1-0.1c0.1,0,0.2,0.1,0.3,0.3
	c0.1,0.1,0.2,0.3,0.2,0.4c0.1,0.2,0.1,0.3,0.1,0.5c0,0.2,0,0.3-0.1,0.5c0,0,0,0,0,0s0,0,0,0s0,0,0,0c0,0,0,0,0,0
	c-0.4,0.9-0.8,1.7-1.2,2.6c-0.4,0.9-0.8,1.7-1.2,2.6c-0.4,0.9-0.8,1.8-1.2,2.6c-0.4,0.9-0.8,1.8-1.2,2.7c-0.4,0.8-0.7,1.5-1.1,2.3
	c-0.4,0.8-0.7,1.5-1.1,2.3c-0.4,0.8-0.7,1.6-1.1,2.4c-0.4,0.8-0.7,1.6-1.1,2.4c-0.2,0.4-0.3,0.7-0.5,1.1
	C77.2,118.7,77.1,119.1,76.9,119.5z M89.6,134c0,0.6,0,1.2,0,1.9s0,1.2,0,1.9s0,1.2,0,1.9c0,0.8,0,1.5,0,2.3c0,0.8,0,1.5,0,2.3
	c0,0.8,0,1.5,0,2.3c0,0.8,0,1.5,0,2.3c0,0.2,0,0.4,0,0.6c0,0.2,0,0.3,0,0.4c0,0.1,0,0.2,0,0.3c0,0.1,0,0.2-0.1,0.3
	c0,0.1-0.1,0.2-0.1,0.2c-0.1,0.1-0.1,0.1-0.2,0.2s-0.2,0.1-0.3,0.1c-0.1,0-0.3,0.1-0.4,0.1c-0.4,0.1-0.8,0.2-1.2,0.2
	c-0.4,0.1-0.8,0.1-1.2,0.2c-0.4,0.1-0.8,0.1-1.2,0.2c-0.4,0.1-0.8,0.1-1.3,0.2c-0.4,0-0.8,0-1.2-0.1c-0.4,0-0.8,0-1.3-0.1
	c-0.4,0-0.9,0-1.3-0.1c-0.4,0-0.9-0.1-1.3-0.1c-0.2,0-0.3,0-0.5-0.1c-0.1-0.1-0.2-0.1-0.2-0.3c0-0.1-0.1-0.3,0-0.5
	c0-0.2,0.1-0.5,0.1-0.8c0.3-1.2,0.5-2.4,0.8-3.7c0.3-1.2,0.5-2.4,0.8-3.6c0.3-1.2,0.5-2.4,0.8-3.6c0.2-1.2,0.5-2.4,0.7-3.6
	c0.1-0.3,0.1-0.6,0.2-1c0.1-0.3,0.1-0.6,0.2-1c0.1-0.3,0.1-0.6,0.2-1s0.1-0.6,0.2-1c0,0,0-0.1,0-0.1c0,0,0-0.1,0-0.1
	c0,0,0-0.1,0-0.1c0,0,0-0.1,0-0.1c0-0.1,0.1-0.2,0.2-0.3c0.1-0.1,0.1-0.1,0.2-0.2c0.1,0,0.2-0.1,0.2-0.1c0.1,0,0.2,0,0.3,0
	c0.5,0.2,1.1,0.3,1.6,0.4c0.5,0.1,1.1,0.1,1.6,0.2c0.5,0,1.1,0,1.6,0c0.5,0,1.1-0.1,1.6-0.2c0.1,0,0.2,0,0.3,0
	c0.1,0,0.1,0.1,0.2,0.2c0,0.1,0.1,0.2,0.1,0.3s0,0.3,0,0.4C89.6,132.8,89.6,133.4,89.6,134z M89.7,102.6c0,1.3,0,2.5,0,3.8
	c0,1.3,0,2.5,0,3.8c0,1.3,0,2.5,0,3.8c0,0.9,0,1.7,0,2.6c0,0.9,0,1.7,0,2.6s0,1.7,0,2.6c0,0.9,0,1.7,0,2.6c0,0.2,0,0.3,0,0.5
	s0,0.3,0,0.5c0,0.2,0,0.3,0,0.5s0,0.3,0,0.5c0,0.1,0,0.3,0,0.4s0,0.2,0,0.3c0,0.1,0,0.2,0,0.2c0,0.1,0,0.1,0,0.2
	c0,0.1-0.1,0.1-0.1,0.2c0,0-0.1,0.1-0.2,0.1c-0.1,0-0.1,0-0.2,0c-0.1,0-0.2,0-0.3,0c-0.2,0-0.4,0-0.7,0c-0.2,0-0.4,0-0.7,0
	c-0.2,0-0.5,0-0.7,0c-0.2,0-0.5,0-0.7,0c-0.2,0-0.4-0.1-0.6-0.1c-0.2,0-0.4-0.1-0.6-0.1c-0.2,0-0.4-0.1-0.6-0.1
	c-0.2,0-0.4-0.1-0.6-0.1c-0.2,0-0.4-0.1-0.6-0.1c-0.1-0.1-0.2-0.1-0.3-0.3c0-0.1,0-0.3,0-0.5c0-0.2,0.1-0.6,0.2-1
	c0.2-0.9,0.4-1.8,0.6-2.7c0.2-0.9,0.4-1.8,0.6-2.7c0.2-0.9,0.4-1.8,0.6-2.6c0.2-0.9,0.4-1.8,0.5-2.6c0.3-1.3,0.6-2.7,0.8-4
	c0.3-1.3,0.5-2.6,0.8-3.9c0.3-1.3,0.5-2.6,0.8-3.9c0.3-1.3,0.5-2.6,0.8-3.9c0-0.1,0-0.1,0-0.2c0-0.1,0-0.1,0-0.2s0-0.1,0-0.2
	c0-0.1,0-0.1,0.1-0.2c0-0.1,0-0.1,0.1-0.2s0.1-0.1,0.1-0.1c0,0,0.1-0.1,0.1-0.1s0.1,0,0.2,0c0.1,0,0.2,0,0.3,0.1
	c0.1,0,0.1,0.1,0.2,0.2c0.1,0.1,0.1,0.2,0.1,0.3c0,0.1,0,0.3,0,0.4C89.7,100.1,89.7,101.3,89.7,102.6z M96.8,124.3
	c-0.1,0.1-0.2,0.1-0.2,0c-0.1,0-0.1-0.1-0.2-0.3c0-0.2-0.1-0.4-0.1-0.6c-0.2-0.9-0.4-1.8-0.5-2.6c-0.2-0.9-0.4-1.8-0.5-2.7
	c-0.2-0.9-0.4-1.8-0.5-2.7c-0.2-0.9-0.4-1.8-0.5-2.7c-0.2-1.2-0.5-2.3-0.7-3.5c-0.2-1.2-0.5-2.3-0.7-3.5c-0.2-1.2-0.5-2.4-0.7-3.5
	c-0.2-1.2-0.5-2.4-0.7-3.6c0-0.1,0-0.2-0.1-0.3c0-0.1,0-0.2,0-0.3c0-0.1,0-0.2,0-0.3s0-0.2,0-0.2c0,0,0-0.1,0-0.1c0,0,0-0.1,0.1-0.1
	c0,0,0-0.1,0.1-0.1c0,0,0.1-0.1,0.1-0.1c0.1-0.1,0.2-0.1,0.3-0.1c0.1,0,0.1,0,0.2,0s0.1,0.1,0.2,0.2c0.1,0.1,0.1,0.2,0.2,0.3
	c0.3,0.7,0.6,1.4,0.9,2.1c0.3,0.7,0.6,1.4,0.9,2.1c0.3,0.7,0.6,1.4,0.9,2c0.3,0.7,0.6,1.4,0.9,2c0.5,1,0.9,2,1.4,3
	c0.4,1,0.9,2,1.3,3c0.4,1,0.9,2,1.3,2.9c0.4,1,0.9,1.9,1.3,2.9c0,0.1,0.1,0.2,0.1,0.3c0,0.1,0.1,0.2,0.1,0.3s0.1,0.2,0.1,0.3
	s0.1,0.2,0.1,0.3c0,0.1-0.1,0.1-0.1,0.1c0,0,0,0.1-0.1,0.1c0,0,0,0.1-0.1,0.1s0,0.1-0.1,0.1c-0.4,0.4-0.7,0.7-1.1,1.1
	c-0.4,0.4-0.7,0.8-1.1,1.1c-0.4,0.4-0.7,0.8-1.1,1.1c-0.4,0.4-0.8,0.8-1.1,1.1C97,124.2,96.9,124.3,96.8,124.3z M108.8,135
	c0,0.1-0.1,0.1-0.1,0.2c0,0.1-0.1,0.1-0.1,0.2c0,0.1-0.1,0.1-0.1,0.1c-0.4,0.6-0.9,1.3-1.3,1.9c-0.5,0.6-0.9,1.2-1.4,1.8
	c-0.5,0.6-1,1.2-1.5,1.7c-0.5,0.6-1,1.1-1.5,1.6c-0.2,0.2-0.3,0.3-0.5,0.4c-0.2,0.1-0.3,0.3-0.5,0.4c-0.2,0.1-0.3,0.3-0.5,0.4
	c-0.2,0.1-0.3,0.3-0.5,0.4c-0.1,0.1-0.2,0.2-0.2,0.2c-0.1,0-0.1,0.1-0.2,0c-0.1,0-0.1-0.1-0.2-0.2c0-0.1-0.1-0.2-0.1-0.4
	c-0.2-0.8-0.3-1.6-0.5-2.5c-0.2-0.8-0.3-1.7-0.5-2.5c-0.2-0.8-0.3-1.7-0.5-2.5c-0.2-0.8-0.3-1.7-0.5-2.5c-0.1-0.4-0.2-0.9-0.3-1.3
	c-0.1-0.5-0.2-0.9-0.3-1.4c-0.1-0.5-0.2-0.9-0.3-1.4c-0.1-0.5-0.2-0.9-0.3-1.3c0-0.1,0-0.2,0-0.2c0-0.1,0-0.1,0-0.2s0-0.1,0-0.2
	c0-0.1,0-0.1,0-0.2c0,0,0-0.1,0-0.1c0,0,0-0.1,0.1-0.1c0,0,0.1-0.1,0.1-0.1c0,0,0.1-0.1,0.1-0.1c0.5-0.3,0.9-0.7,1.4-1.1
	c0.4-0.4,0.9-0.8,1.3-1.3c0.4-0.4,0.8-0.9,1.2-1.4c0.4-0.5,0.8-1,1.2-1.5c0.1-0.1,0.1-0.1,0.2-0.2c0.1,0,0.1-0.1,0.2-0.1
	c0,0,0.1,0,0.1,0.1c0,0.1,0.1,0.1,0.1,0.2c0.4,0.9,0.8,1.9,1.2,2.8c0.4,0.9,0.8,1.8,1.2,2.7c0.4,0.9,0.8,1.8,1.2,2.7
	c0.4,0.9,0.8,1.8,1.2,2.7c0.1,0.1,0.1,0.2,0.2,0.3c0.1,0.1,0.1,0.2,0.2,0.3c0.1,0.1,0.1,0.2,0.2,0.3c0,0.1,0.1,0.2,0.1,0.4
	c0,0,0,0.1,0,0.1c0,0,0,0.1,0,0.1s0,0.1,0,0.1c0,0.1,0,0.1,0,0.2C108.9,134.9,108.8,134.9,108.8,135z M118.9,108.4
	c-0.1,0.4-0.2,0.9-0.3,1.4c-0.1,0.5-0.2,0.9-0.3,1.4c-0.1,0.5-0.2,0.9-0.3,1.4c-0.1,0.5-0.2,0.9-0.3,1.3c0,0.1-0.1,0.3-0.1,0.4
	c0,0.1-0.1,0.3-0.1,0.4c0,0.1-0.1,0.3-0.1,0.4c0,0.1-0.1,0.3-0.1,0.4c-0.1,0.5-0.3,0.9-0.4,1.4c-0.1,0.5-0.3,0.9-0.4,1.4
	c-0.1,0.5-0.3,0.9-0.4,1.4c-0.1,0.5-0.3,1-0.4,1.4c0,0.2-0.1,0.3-0.1,0.4c0,0.1-0.1,0.2-0.2,0.2c-0.1,0-0.1,0-0.2,0
	c-0.1,0-0.1-0.1-0.2-0.2c-0.5-0.6-1-1.2-1.5-1.8c-0.5-0.6-1-1.2-1.5-1.8c-0.5-0.6-1-1.2-1.6-1.9c-0.5-0.6-1.1-1.3-1.6-1.9
	c-0.1-0.1-0.1-0.1-0.2-0.2c-0.1-0.1-0.1-0.1-0.2-0.2s-0.1-0.1-0.2-0.2s-0.1-0.1-0.2-0.2c-0.1-0.1-0.1-0.1-0.1-0.2
	c0-0.1,0-0.1-0.1-0.2c0-0.1,0-0.1,0-0.2c0-0.1,0-0.2,0.1-0.2c0,0,0,0,0,0c0,0,0,0,0,0c0,0,0,0,0,0s0,0,0,0c0.1-0.2,0.2-0.5,0.3-0.7
	c0.1-0.2,0.2-0.5,0.3-0.7c0.1-0.2,0.2-0.5,0.2-0.7c0.1-0.2,0.2-0.5,0.2-0.7c0.1-0.4,0.3-0.9,0.4-1.3c0.1-0.4,0.2-0.9,0.4-1.4
	c0.1-0.5,0.2-0.9,0.3-1.4c0.1-0.5,0.2-0.9,0.3-1.4c0,0,0,0,0-0.1c0,0,0,0,0-0.1c0,0,0,0,0-0.1c0,0,0,0,0-0.1c0-0.1,0.1-0.2,0.1-0.2
	c0-0.1,0.1-0.1,0.1-0.1c0,0,0.1,0,0.1,0c0.1,0,0.1,0,0.2,0.1c0.5,0.3,1,0.5,1.5,0.8c0.5,0.3,1,0.5,1.4,0.8c0.5,0.3,0.9,0.5,1.4,0.8
	c0.5,0.3,0.9,0.5,1.4,0.8c0.2,0.1,0.4,0.2,0.5,0.3c0.2,0.1,0.4,0.2,0.5,0.3c0.2,0.1,0.4,0.2,0.5,0.3c0.2,0.1,0.3,0.2,0.5,0.3
	c0.1,0,0.1,0.1,0.2,0.1c0,0,0.1,0.1,0.1,0.1c0,0.1,0.1,0.1,0.1,0.2C119,108.1,119,108.3,118.9,108.4z"/>
</svg>
