<?xml version="1.0" encoding="utf-8"?>
<!-- Generator: Adobe Illustrator 17.1.0, SVG Export Plug-In . SVG Version: 6.00 Build 0)  -->
<!DOCTYPE svg PUBLIC "-//W3C//DTD SVG 1.1//EN" "http://www.w3.org/Graphics/SVG/1.1/DTD/svg11.dtd">
<svg version="1.1" id="Layer_1" xmlns="http://www.w3.org/2000/svg" xmlns:xlink="http://www.w3.org/1999/xlink" x="0px" y="0px"
	 viewBox="0 0 288 216" enable-background="new 0 0 288 216" xml:space="preserve">
<g>
	<path d="M123.5,194.7c-0.7-0.8-1-1.6-0.6-2.7c0.2-0.7,0.2-1.6-0.1-2.3c-1.6-3.9-3.3-7.7-4.9-11.6c-0.6-1.4-1.2-2.5-3-1.6
		c-0.4-0.9-0.8-1.6-1.2-2.4c-3.5-7.3-6.9-14.7-10.4-22c-6-12.7-12-25.4-17.9-38c-0.3-0.6-0.4-1.2-0.6-1.8c-0.3-1.2-0.6-2.4-1-3.6
		c-0.3-0.9-0.9-1.7-1.1-2.5c-0.5-2-0.7-4.2-3.3-4.8c0.9-1.3,1.7-2.5,2.5-3.7c0.3,0.4,0.5,0.7,0.6,1c0.8-0.5,1.5-0.9,2.4-1.4
		c0.5-1.7-0.3-3.2-1.1-4.4c-0.8,0.1-1.7,0.6-2,0.3c-1.1-0.8-0.3-1.7,0.1-3c3.9,2.5,7.5,4.9,11.1,7.3c0.2,0.2,0.3,0.6,0.5,0.9
		c0.3,0.6,0.6,1.2,1.1,1.6c1.1,0.9,2.3,1.6,3.5,2.5c1.6,1.2,3.2,2.5,4.9,3.5c0.7,0.4,2,0.5,2.5,0.1c0.5-0.4,0.6-1.6,0.6-2.5
		c0-0.4-0.6-0.9-1.1-1.2c-2.8-1.8-5.7-3.5-8.5-5.3c-0.4-0.2-0.9-0.5-1.2-0.4c-1.8,0.6-3-0.6-4.2-1.5c-1.5-1-2.9-2.1-4.5-2.9
		c-2.1-1.1-2.9-2.7-2.7-5c0-0.1,0-0.2,0-0.3c-1.3,0.1-2.5,0.1-3.8-0.2c-5.8,0.2-11.5,0.6-17.3,1.3c-0.9,0.1-1.6-0.2-2-0.6
		c0,0,0,0.1,0,0.1c-0.1,0.9,0.5,1.6,1.6,1.6c0.6,0,1.3,0.3,1.9,0.4c-0.5,2-1,3.6-1.5,5.5c1,0.8,2.2,1.9,3.5,2.7
		c2.2,1.2,2.5,2.1,1.6,4.4c-0.6,1.5-1.4,1.8-2.8,0.8c-0.9-0.6-1.8-1.4-2.6-2.2c-1.3-1.1-2.1-2.2-1.4-4.2c0.9-2.3-0.5-3.5-2.8-3.1
		c-0.3,0-0.6,0.1-0.8,0.1c-0.9,0.1-1.8,0.1-1.8,1.3c0,1,0.7,1.3,1.6,1.3c1.5,0.2,2.1,0.9,2.2,2.5c0.1,1,0.5,2.3,1.2,3
		c1.5,1.5,3,2.9,3.3,5.3c0.1,1.4,0.7,2.7,0,4.1c-0.4,0.8-0.2,1.9-0.3,2.9c-0.1,0.6-0.2,1.3-0.3,1.9c-3.4,10.6-6.8,21.3-10.2,31.9
		c-3.9,12.3-7.8,24.5-11.7,36.8c-0.2,0.7-0.7,1.6-1.3,1.7c-1.1,0.3-1.5,1-1.8,1.9c-1.3,4-2.6,7.9-3.9,11.9c-0.2,0.7-0.5,1.6-0.2,2.1
		c1.2,1.9,0.4,3.4-0.6,5.1c-0.2,0.4-0.1,1.3,0.2,1.7c1.2,1.5,3.3,1.2,4-0.5c1.1-2.4,2-4.9,3-7.4c0.5-1.2,0.9-2.6,1.6-3.7
		c1.8-2.9,2.5-6.3,3.4-9.7c8-2.9,16.3-5.8,25-8.5c0,1.5,0,2.4,0,3.4c0,1.1,0.5,1.7,1.6,1.9c2.4,0.4,3.3-0.3,3.3-2.7
		c0-0.3,0-0.6,0-0.9c-0.2-1.5,0.6-2.1,1.9-2.3c0.7-0.1,1.4-0.2,2.1-0.1c2.4,0.1,4.8,0.2,7.3,0.3c6.5,0.2,12.9,0.4,19.4,0.6
		c2.8,0.1,5.2,0.6,5.9,3.9c0.2,0.9,0.8,1.8,1.3,2.7c0.2,0.4,0.6,1,0.9,1.1c1.2,0.3,1.6,1.3,2.1,2.3c1.3,2.5,2.6,5.1,3.9,7.6
		c0.7,1.2,2.3,1.8,3.2,1.1C124.6,197.1,124.5,195.9,123.5,194.7z M69.7,174.4c-1.2,1.2-1.7,3-3.7,3.6c-6.3,1.9-12.6,4.1-18.9,6.2
		c-0.4,0.1-0.8,0.2-1.2,0.2c-0.3-1.7,19.3-64.1,21.5-67.1c-0.2,2.2-0.4,4.4-0.6,6.5c-1.2,10.3-2.5,20.6-3.7,30.9
		c-0.1,1.2-0.3,2.1-1.8,2.4c-1.4,0.3-2.3,2-2,3.3c0.4,1.5,0.6,2.9-0.1,4.5c-0.4,0.8,0.4,2.2,0.8,3.3c0.4,1.1,1,2.1,1.6,3.4
		c1.9,0.7,2.4,0.4,3.1-1.6c0.4-1.2,0.9-2.3,1.3-3.5c0.2,0,0.4-0.1,0.5-0.1c1,2.3,2.1,4.6,3.1,6.9C69.9,173.7,69.9,174.2,69.7,174.4z
		 M70.3,167.2c-1.3-2.4-3.5-4.4-3.2-7.5c0.1-1.3-0.6-2.6-0.6-3.9c0.1-2.6,0.5-5.2,0.9-7.8c0.7-5.3,1.3-10.6,2-15.8
		c0.1-0.4,0.2-0.8,0.3-1.1c0.2,0,0.4,0,0.6,0V167.2z M104.7,176.9c-7.8-0.2-15.6-0.5-23.5-0.8c-0.9,0-2,0-2.6-0.5
		c-1.7-1.3-3.3-2.8-3.2-5.4c0.1-2.8,0-5.5,0-8.3c0-14.9-0.1-29.9,0-44.8c0-2.4,0.6-4.9,0.9-7.1c1.9-0.8,2.4,0.2,3.1,1.2
		c4.4,6.7,7.4,14.2,10.9,21.4c6.7,13.9,13.2,27.9,19.8,41.9c0.3,0.6,0.5,1.3,1,2.5C108.7,176.9,106.7,176.9,104.7,176.9z"/>
</g>
<g>
	<path d="M46.8,62.6c0.1,0.3,0.1,0.6,0.2,0.9c0.1,0,0,0,0.1,0c0.1-0.4,0.3-0.9,0.4-1.3c0.7,0.2,0.8,0.3,0.6,0.9
		c-0.8,2.5-1.6,4.9-2.4,7.4c-0.1,0.4-0.1,0.7,0.1,1c0.8,1.3,0.6,2.7,0.2,4.1c-0.1,0.3-0.2,0.7-0.4,1c-0.4,0.9-0.6,1.8-0.6,2.7
		c0,0.2,0,0.5-0.2,0.8c-0.1-0.2-0.2-0.4-0.4-0.7v1.3c-0.3-0.3-0.5-0.4-0.6-0.6c-2.2-2.7-2-6.6,0.5-9c0.2-0.2,0.4-0.6,0.5-0.9
		c0.5-2.3,1-4.6,1.5-6.9c0.1-0.3,0.1-0.5,0.2-0.7C46.7,62.6,46.7,62.6,46.8,62.6z"/>
	<path d="M77.5,84.6c1.3-0.2,2.2,0.4,2.7,1.6c0.2,0.4,0.1,0.7-0.3,0.8c-0.9,0.1-1.8,0.1-2.6,0.1c-0.7-0.1-0.7-0.8-0.9-1.3
		c-0.1-0.2,0.3-0.5,0.5-0.7C77.1,84.9,77.3,84.8,77.5,84.6L77.5,84.6z"/>
	<path d="M82,86.7c-0.1,0-0.1,0-0.2,0c-1.1,0-1.5-0.4-1.7-1.5c0-0.1,0-0.2,0-0.3c0.3-0.8,1.8-1.2,2.4-0.6c0.4,0.3,0.7,0.8,0.9,1.3
		c0.2,0.5-0.1,0.9-0.6,1C82.6,86.7,82.3,86.7,82,86.7C82,86.7,82,86.7,82,86.7z"/>
	<path d="M66.2,84.7c0.1-0.1,0.2-0.1,0.3-0.2c0.6-0.1,1.1-0.4,1.7-0.2c0.7,0.2,1.2,0.7,1.4,1.4c0,0.1-0.1,0.5-0.3,0.5
		c-0.8,0.2-1.5,0.3-2.3,0.3c-0.2,0-0.4-0.2-0.5-0.3c-0.2-0.3-0.4-0.5-0.5-0.9C66,85.2,66.1,84.9,66.2,84.7z"/>
	<path d="M127.6,13.2c-1.3-2.3-3.1-4-5.3-5.3c-2.7-1.5-5.6-2.3-8.7-1.8c-1.6,0.3-2.9,0.9-3.7,2.4c-0.7,1.3-0.6,2.6,0.1,3.8
		c0.7,1.2,1.8,1.7,3.1,1.6c1.7-0.1,2.6-1.4,2-3c0-0.1-0.1-0.2-0.1-0.4c1.2,0.1,2.4,0.3,3.3,1c0.5,0.4,1.1,0.9,1.3,1.5
		c1,2.6,0.5,5.8-2.7,7.1c-1.3,0.5-2.6,0.7-4,0.7c-0.7,0-1.5-0.1-2.2-0.3c-1.1-0.4-2.2-1-3.3-1.4c-1.4-0.5-2.8-1.2-4.4-1.3
		c-1-0.1-2-0.2-3-0.3c-0.4-0.1-0.8-0.3-1.2-0.4c-1.1-0.2-2.1-0.3-3.2-0.4c-1.6-0.2-3.3,0-4.7,0.9c-0.2,0.1-0.4,0.1-0.6,0.2
		c-0.9,0.4-1.9,0.7-2.6,1.3c-2.2,1.9-4,4.2-5.3,6.8c-0.1,0.2-0.2,0.4-0.3,0.7c0.3-0.2,0.4-0.3,0.6-0.4c0,0,0.1,0.1,0.1,0.1
		c-0.6,0.6-1.1,1.2-1.7,1.6c-2.4,1.9-5.1,3.4-7.9,4.6c-2.7,1.2-5.1,2.6-6.7,5.1c-0.9,1.3-1.5,2.6-1.5,4.2c0,0.6,0.1,1.3,0.1,1.9
		c-0.2-0.5-0.4-1.1-0.4-1.6c0-0.5,0-1.1,0.1-1.8c-0.5,0.5-1,0.8-1.5,1.2c-0.5,0.4-0.9,0.8-1.4,1.2c0,0-2.5,1.5-5,2.8
		c-0.4,0.1-0.7,0.3-1,0.5c-1.1,0.5-2.1,1-2.9,1.3c-3,1.1-8,8.1-4.8,18.5c3.1,4.3,3.2,4.4,3.2,4.4l0,0c1.1,1.6,2.4,2.9,3.9,4.2
		c1,0.8,2,1.7,2.9,2.6c0.5,0.4,0.4,0.8,0.1,1.3c-1.2,1.6-1.7,3.5-1.7,5.5c0,1.4,0.8,2.3,2.1,2.5c0.3,0.1,0.6,0.2,0.9,0.2
		c0.8,0,1.7,0.1,2.5,0.1c0.7-0.1,0.7-0.4,0.3-0.9c-0.5-0.7-1.2-0.9-2-0.8c1.4-0.5,2.7,0.5,2.4,1.9c0.8,0.3,2.3,0.4,2.9,0.1
		c0.4-0.1,0.7-0.3,0.5-0.8c-0.3-0.9-1.3-1.6-2.3-1.5c-0.1,0-0.3,0-0.4,0.1c0.6-0.3,1.2-0.3,1.7,0c0.4,0.2,0.6,0.2,0.9-0.1
		c0.1-0.1,0.2-0.1,0.3-0.2c0.5-0.2,0.9-0.4,1.4-0.5c0.5-0.1,1.4,0.1,1.6,0.8c0.3,0.7,0.9,1.2,1.6,1.6c0.9,0.6,1.9,0.7,3,0.8
		c0.6,0.1,1.3,0,1.9,0c0.4,0,0.6-0.3,0.4-0.7c-0.1-0.2-0.2-0.3-0.3-0.5c-0.5-0.6-1.2-0.8-2.1-0.8c0.9-0.3,1.5,0,2,0.3
		c0.6-0.3,1.1-0.6,1.6-0.8l0,0c0.9-0.3,1.7-0.3,2.4,0.4c0.1-0.2,0.2-0.3,0.4-0.5c0.5-0.6,1.4-0.9,2.2-0.6c0.7,0.2,1,0.8,1.3,1.5
		c0.2,0.7,0.6,0.8,1.2,0.4c0.1-0.1,0.2-0.1,0.3-0.1c0.8,0,1.6-0.1,2.4-0.1c0.3,0,0.5-0.3,0.4-0.6c-0.1-0.5-0.2-1-0.3-1.5
		c0-0.1-0.1-0.2-0.2-0.3c-0.1-0.1-0.1-0.2-0.1-0.3c0-0.5,0-1,0-1.5c0-0.2,0-0.4,0.1-0.5c0.5-0.6,1.2-1,1.2-1.9c0,0,0,0,0,0
		c1.2-1.6,2-3.6,3.5-5c1-0.9,1.1-2.1,1.4-3.3c-0.2,0-0.4,0-0.6,0c0.1-0.1,0.3-0.1,0.4-0.2c0.2-0.2,0.4-0.3,0.6-0.5
		c0.1-0.2,0.1-0.4,0.2-0.6c0.5-1,1.1-2,1.4-3.1c0.5-2,0.9-4.1,1.3-6.2c0-0.2,0-0.4,0-0.7c-1.1,1.3-2.1,2.7-3.2,3.9
		c-1.9,2-3.5,3.1-4,3.1c0.2-0.2,0.3-0.4,0.5-0.5c0.3-0.3,0.7-0.6,1-0.9c3.2-2.9,5.7-6.4,7.1-10.5c0.2-0.6,0.2-1.2,0.6-1.7
		c0.5-0.7,0.6-1.4,0.9-2.2c0.1-0.4,0.3-0.7,0.4-1c0.1-0.4,0.2-0.9,0.3-1.5c0.3-0.1,0.7-0.3,1.1-0.5c0.8-0.4,1.6-0.7,2.4-1.2
		c0.3-0.2,0.5-0.2,0.9-0.2c0.9,0.1,1.8,0.3,2.6,0.3c1.4,0,2.4-0.9,2.5-2.3c0-0.6,0.1-1.1,0-1.7c-0.3-1.7-0.3-3.3-0.1-5
		c0.1-0.9,0.1-0.9,1-1c1.5-0.1,2.9-0.2,4.4-0.5c4.3-0.8,7.9-2.8,10.5-6.3c1.1-1.5,2-3.2,2.4-5c0.4-1.4,0.6-2.9,0.7-4.4
		C129.2,17.6,128.8,15.3,127.6,13.2z M72,86.1c-2-0.3-3-1.6-2.8-3.8c0.1-1.3,0.3-2.7,0.7-4c0.2-1,0.8-1.9,1.2-2.8
		c0-0.1,0.2-0.2,0.4-0.2c0,0.2,0,0.4-0.1,0.6c-0.7,1.7-0.9,3.5-1.1,5.3c-0.1,0.6-0.1,1.3,0,1.9c0.1,1,0.6,1.8,1.4,2.4
		C71.9,85.6,72.2,85.7,72,86.1z M71.8,72c-0.1,0-0.1,0-0.2,0c0-0.2-0.1-0.4-0.1-0.6c-0.2-1.1-0.4-2.2-0.7-3.3
		c-0.3-1.1-0.6-2.2-0.8-3.3c-0.1-0.2,0-0.5,0-0.7c0.1,0,0.2,0,0.3,0c0.6,1.5,1.2,3,1.6,4.6C72.2,69.7,72.5,70.9,71.8,72z M81.5,43.6
		c-0.3,0.7-0.8,1.2-1.7,1.2c-0.9,0-1.8-0.1-2.5-0.5c-1.2-0.6-2.2-1.4-3-2.4c-0.4-0.5-0.6-1.1-0.9-1.7c-0.2-0.3-0.3-0.7-0.5-1
		c-0.2-0.4-0.1-0.7,0.2-1c1.2-0.9,2.5-1.9,3.8-2.7c0.8-0.5,1.7-0.9,2.6-1.2c1.2-0.4,2,0,2.5,1.1c0.6,1.3,0.6,2.7,0.6,4.1
		C82.5,40.9,82.1,42.3,81.5,43.6z M82.8,83.1c-1.5-1.4-1.2-4.2,0.5-4.8C82.4,79.9,81.2,81.4,82.8,83.1z M84.7,74.2
		c-0.1,0-0.2,0-0.5,0c0.3-0.4,0.5-0.7,0.8-1c0.9-1.1,0.6-2.1-0.8-2.4c-0.2,0-0.3-0.1-0.5-0.2c0-0.1,0-0.1,0-0.2c0.6,0,1.2-0.1,1.7,0
		c0.3,0.1,0.5,0.6,0.6,0.9C86.5,72.2,85.8,73.8,84.7,74.2z M85.5,69.3c0.6-2.5,0.8-4.9,0-7.4C87.1,62.5,87.1,67.1,85.5,69.3z
		 M85.9,61.3c0-1,1.5-1.8,0.8-2.8C87.8,59,87.3,60.8,85.9,61.3z M97.3,24.7c-0.9-0.3-1.8-0.2-2.3,0.6c-0.4,0.6-0.3,1.2,0.1,1.8
		c0.4,0.6,1.1,0.8,2,0.6c-0.4,0.7-1.6,1.1-2.6,0.7c-1-0.4-1.5-1.2-1.6-2.2c-0.1-0.6,0-1.3,0.1-2c0.2-0.9,0.6-1.2,1.4-1.1
		c1,0.1,2,0.4,2.8,1.1c0.1,0.1,0.2,0.3,0.3,0.4C97.4,24.6,97.4,24.6,97.3,24.7z M96.3,25.9c0,0.4-0.3,0.6-0.6,0.5
		c-0.2,0-0.4-0.3-0.6-0.4c0-0.1,0-0.2,0-0.3c0.2-0.2,0.4-0.4,0.7-0.4C96,25.3,96.3,25.5,96.3,25.9z M108.5,43.5
		c-0.5-0.7-0.8-1.4-1.6-1.7c-0.8-0.4-1.5-1-2.3-1.4c-0.8-0.4-1.6-0.8-2.4-1.1c-0.1-0.1-0.3-0.1-0.4-0.1c-0.6,0.2-0.8-0.2-0.9-0.5
		c-0.4-0.9-0.8-1.8-1.3-2.8c-0.1-0.2-0.1-0.4-0.2-0.6c0.7-0.4,1.4-0.6,2.2-0.3c1.9,0.6,3.8,1.1,5.7,1.1c0.5,0,0.7,0.2,0.7,0.7
		c-0.1,1.8,0.3,3.6,0.6,5.4C108.7,42.6,108.6,43,108.5,43.5z"/>
</g>
<g>
	<path d="M217.9,188.4c-0.5,1.7-1.2,3.8-1.7,5.4c-1.9,0-3.9,0-5.9,0c-0.5-1.7-1.2-3.8-1.7-5.4c1.5-1.1,3.2-2.3,4.8-3.5
		C214.6,185.8,216.3,187.1,217.9,188.4z"/>
	<path d="M211,178.6c-0.3-1.2-0.7-2.6-1.1-4.2c0.9-0.7,2.2-1.6,3.4-2.5c1.1,0.8,2.4,1.8,3.5,2.6c-0.4,1.2-0.9,2.7-1.4,4.1
		C214.2,178.6,212.6,178.6,211,178.6z"/>
	<path d="M236.7,188.3c-0.5,1.7-1.2,3.7-1.8,5.5c-1.8,0-3.9,0-5.8,0c-0.5-1.7-1.2-3.7-1.8-5.5c1.4-1,3.2-2.3,4.7-3.3
		C233.5,186,235.2,187.3,236.7,188.3z"/>
	<path d="M236.4,174.2c-0.9,1.5-1.7,2.9-2.6,4.4c-1.1,0-2.6,0-4,0c-0.4-1.2-0.8-2.7-1.3-4.1c1-0.8,2.3-1.7,3.1-2.3
		C233.4,173,235,173.6,236.4,174.2C236.5,174.3,236.4,174.2,236.4,174.2z"/>
	<path d="M170.9,188.4c1.6-1.2,3.2-2.4,4.8-3.5c1.3,1,3,2.3,5,3.7c-0.9,1.3-3.3,2.9-1.6,5.2c-2.3,0-4.3,0-6.3,0
		C172.2,192.1,171.5,190,170.9,188.4z"/>
	<path d="M177.7,178.6c-1.4,0-2.9,0-4.3,0c-0.4-1.2-0.8-2.7-1.2-4.1c1-0.7,2.3-1.6,3.6-2.5c1,0.8,2.3,1.7,3.5,2.6
		C178.8,175.8,178.2,177.2,177.7,178.6z"/>
	<path d="M173.3,161.1c0.9-0.6,1.6-1.1,2.4-1.6c0.7,0.5,1.5,1.1,2.3,1.6c-0.3,1-0.5,1.9-0.8,2.8c-1,0-1.9,0-2.9,0
		C173.9,163,173.6,162,173.3,161.1z"/>
	<path d="M189.8,188.4c1.6-1.2,3.2-2.5,4.6-3.5c1.4,1,3.1,2.3,4.7,3.5c-0.5,1.6-1.3,3.7-1.9,5.4c-1.7,0-3.8,0-5.8,0
		C191,192.2,190.3,190.1,189.8,188.4z"/>
	<path d="M190.9,174.6c1.1-0.8,2.3-1.7,3.6-2.6c0.9,0.7,2.2,1.7,3.4,2.6c-0.4,1.3-0.8,2.7-1.2,4.1c-1.3-0.1-2.8-0.1-4.3-0.2
		C191.9,177.4,191.3,175.9,190.9,174.6z"/>
	<path d="M192.9,163.9c-0.3-0.9-0.5-1.8-0.8-2.7c0.7-0.5,1.5-1.1,2.2-1.7c0.8,0.5,1.6,1,2.4,1.6c-0.3,0.9-0.7,1.8-1,2.8
		C195,163.9,194,163.9,192.9,163.9z"/>
	<path d="M252,193.1c-6.3-19.6-12.8-39.2-19.1-58.9c-0.6-1.8-0.5-4-0.2-6h-16c0.1,1.5-0.9,3.1-2.9,3.1s-3-1.6-2.9-3.1h-5.1
		c0.2,1.6-0.7,3.5-2.9,3.5s-3.1-1.8-2.9-3.5h-24.9c0,2-0.2,4-0.8,5.8c-6.2,20.1-12.9,40-19.4,60.1c-0.6,1.7-0.6,3.6-0.9,5.4
		c-0.4,2.7,0.6,3.7,3.5,3.7c30.7-0.1,61.4-0.1,92.1-0.1c1,0,2-0.1,3.7-0.2C253,199.4,252.9,196.1,252,193.1z M156,195.5
		c5.8-17.6,11.5-35.1,17.2-52.6c0.2,0,0.3,0.1,0.5,0.1c-2.5,17.4-5,34.9-7.5,52.5H156z M167.7,195.5c2.7-18.9,5.4-37.7,8-56.5
		c0.2,0,0.3,0,0.5,0c2.7,18.8,5.3,37.5,8,56.5H167.7z M184.9,190.4c-2.7-19-5.4-37.9-8.1-57.1h16.8c-2.7,19.1-5.4,38.1-8.1,57.1
		C185.3,190.4,185.1,190.4,184.9,190.4z M186.2,195.5c2.7-18.7,5.3-37.4,8-56c0.2,0,0.4,0,0.6-0.1c2.7,18.6,5.3,37.3,8,56.1H186.2z
		 M203.4,190.3c-2.7-18.9-5.4-37.9-8.1-57.1h16.8c-2.7,19.1-5.4,38.1-8.1,57.1C203.8,190.3,203.6,190.3,203.4,190.3z M204.7,195.5
		c2.7-18.8,5.3-37.5,8-56.2c0.2,0,0.4,0,0.5-0.1c1,7.1,2,14.1,3,20.9h-5.5c0.6,1.7,1,2.7,1.3,3.7h2.7c0.3-0.7,0.6-1.6,1-2.5
		c0.2,0,0.5,0,0.7,0.1c1.6,11.3,3.2,22.5,4.9,34.1H204.7z M221.9,190.1c-2.7-18.8-5.4-37.7-8.1-56.8h16.7c-2.7,19-5.4,37.9-8.1,56.8
		C222.3,190.1,222.1,190.1,221.9,190.1z M223.2,195.5c2.6-18.6,5.3-37.2,7.9-55.8c0.2,0,0.4,0,0.7,0c1,6.9,2,13.8,2.9,20.3
		c-1.9,0.2-3.4,0.3-5,0.5c0.4,1.5,0.7,2.4,0.9,3.4h3.1c0.2-0.6,0.4-1.4,0.7-2.1c0.2,0,0.5,0,0.7,0c0.5,4.2,1.1,8.3,1.6,12.5
		l-0.1-0.1c1.1,7,2.2,14,3.3,21.3H223.2z M241.1,195.5c-2.5-17.3-4.9-34.5-7.4-51.7c0.2-0.1,0.4-0.1,0.6-0.2
		c5.6,17.2,11.2,34.4,16.9,51.9H241.1z"/>
</g>
<g>
	<path d="M165.7,51.4c0.9,0.4,1.7,0.9,2.6,1.3c4.4,2.4,8.8,4.8,13.3,7.2c0.1-0.2,0.1-0.4,0.1-0.6c-3.6-2.1-7.3-4.2-10.9-6.2
		c0-0.1,0-0.1,0-0.2c0.3,0,0.7-0.1,1-0.1c1.9,0.3,3.6,1.2,5.3,2c2.3,1.1,4.6,2.1,6.9,3.2c0.1,0,0.1,0,0.2,0
		c-2.9-1.5-5.8-2.9-8.8-4.4c0.5-0.5,1-0.6,1.6-0.3c2.3,1.1,4.6,2,6.9,3c0.2,0.1,0.3,0.1,0.5,0.1c-1.7-0.8-3.5-1.6-5.2-2.4
		c0.6-1.2,0.7-1.2,1.8-0.7c2.8,1.2,5.6,2.5,8.4,3.7c0.4,0.2,0.7,0.3,1.1,0.4c-2.6-1.3-5.2-2.5-7.9-3.8c0.4-0.3,0.7-0.7,1.1-1
		c0.1,0,0.2,0,0.3,0.1c1.9,0.8,3.7,1.7,5.6,2.5c0.6,0.3,1.3,0.6,2,0.8c-1.4-0.7-2.8-1.4-4.4-2.2c0.5-0.3,1-0.5,1.4-0.7
		c0.1-0.1,0.3,0,0.4,0c2.7,1,5.4,2.1,8,3.2c1.3,0.5,2.5,1,3.8,1.4c-3.2-1.6-6.4-3.2-9.7-4.8c0.7-0.2,1.2-0.4,1.8-0.4
		c0.4,0,0.9,0.3,1.3,0.5c3.2,1.5,6.3,3,9.5,4.4c0.1,0,0.1,0,0.2,0c-2.7-1.4-5.4-2.8-8.2-4.2c0.6-0.4,1.1-0.7,1.6-1
		c0.1-0.1,0.4-0.1,0.5,0c2.9,1.3,5.9,2.6,8.8,3.9c0.9,0.4,1.7,0.8,2.6,1.2c0.1,0,0.2,0.1,0.4,0c-3.3-1.6-6.7-3.3-10-4.9
		c0.5-0.7,0.9-0.8,1.7-0.5c2.9,1.2,5.7,2.4,8.6,3.6c1.7,0.7,3.4,1.4,5.1,2.1c0.1,0,0.2,0.1,0.4,0c-3.8-1.8-7.6-3.6-11.5-5.4
		c0.5-0.3,0.9-0.7,1.3-0.9c0.1-0.1,0.3,0,0.4,0c3.8,1.6,7.6,3.2,11.4,4.8c1,0.4,2,0.9,2.9,1.3c0.1,0.1,0.3,0.1,0.5,0.1
		c-4.3-2-8.6-4-13-6.1c0.4-0.4,0.8-0.8,1.2-1.2c0.1-0.1,0.3-0.1,0.4,0c1.7,0.7,3.4,1.4,5.2,2.1c2.1,0.8,4.1,1.7,6.2,2.5
		c0.8,0.3,1.5,0.7,2.3,1c0.2,0.1,0.4,0.1,0.6,0.1c-4.1-1.9-8.1-3.9-12.2-5.8c0.4-0.6,0.8-1.1,1.2-1.7c5.3,2.3,10.6,4.6,15.8,6.9
		c0,0,0-0.1,0-0.1c-1.4-0.6-2.8-1.3-4.1-1.9c-2.8-1.3-5.7-2.6-8.5-3.9c-0.1,0-0.2-0.2-0.2-0.4c0-0.3,0.1-0.5,0.2-0.9
		c7.7,3.4,15.3,6.7,23,10.1c-0.6,0.9-1.2,1.8-1.8,2.7c-1-1-2-1.9-3-2.9c-0.9,1.2-1.7,2.4-2.6,3.6c-1.1-1.1-2.1-2.1-3.2-3.2
		c-0.8,1.5-1.7,2.9-2.5,4.5c-0.7-1.2-1.3-2.3-2-3.5c-0.8,1.3-1.5,2.5-2.3,3.7c-0.8-1.1-1.6-2.2-2.4-3.3c-1,1.2-1.9,2.4-2.9,3.6
		c-0.7-1.2-1.3-2.4-2-3.5c-0.9,1.2-1.7,2.4-2.6,3.6c-0.7-1.4-1.4-2.7-2.2-4.1c-1,1.2-2,2.3-3.1,3.5c-0.8-1.1-1.5-2.2-2.4-3.3
		c-0.7,1.3-1.4,2.5-2.1,3.7c-0.8-1.2-1.5-2.3-2.3-3.5c-0.5,0.8-0.9,1.5-1.4,2.3c-0.9-0.9-1.8-1.9-2.7-2.8c-0.3,1.3-0.6,2.5-1,3.8
		c-1.1-1.3-2-2.5-3.1-3.8c-0.3,1.2-0.6,2.3-0.9,3.5c-1-1.2-1.9-2.3-2.9-3.5c-0.3,1-0.6,2-1,2.9c-0.2,0.5-0.3,1-0.5,1.4
		c-0.1,0.2-0.1,0.5,0,0.7c0.3,1,0.2,1.9,0,2.8c-0.7,3-1.3,6-2,8.9c-0.1,0.7-0.3,1.3-0.5,2c1.1,0.5,1.4,1.5,1.2,2.5
		c-0.2,1.1-1,1.7-2.1,2c-0.5,0.1-0.6,0.3-0.7,0.7c-0.9,3.9-1.9,7.7-2.8,11.6c-0.1,0.3,0,0.5,0.2,0.7c0.6,0.4,1.3,0.9,2,1.4
		c2.7-10.2,5.3-20.3,7.9-30.4c0.1,0,0.1,0,0.2,0c0,0.9,0.1,1.7-0.1,2.5c-1,4.6-2.1,9.3-3.2,13.9c-1,4.2-2,8.4-2.9,12.6
		c-0.1,0.3-0.1,0.6,0.2,0.8c0.5,0.4,0.9,0.8,1.4,1.2c2.7-11.2,5.5-22.3,8.2-33.4c0.3,0.9,0.6,1.8,0.4,2.8c-0.9,3.7-1.7,7.3-2.5,11
		c-0.8,3.7-1.7,7.4-2.5,11.1c-0.5,2.3-1,4.6-1.6,6.9c-0.1,0.4,0,0.6,0.3,0.8c0.8,0.5,1.5,1.1,2.3,1.7c2.7-11.5,5.4-22.9,8.1-34.3
		c0.1,0,0.1,0,0.2,0c0.1,0.5,0.3,1.1,0.2,1.6c-0.8,4-1.6,8-2.5,12c-0.7,3.3-1.4,6.6-2.1,9.8c-0.6,3-1.3,6-1.9,9.1
		c-0.1,0.3,0,0.5,0.2,0.7c0.7,0.6,1.3,1.2,2.1,1.9c2.9-11.8,5.8-23.6,8.7-35.4c0.3,0.7,0.5,1.2,0.4,1.9c-1,4.3-1.9,8.7-2.9,13
		c-0.9,4.1-1.8,8.1-2.7,12.2c-0.5,2.1-0.9,4.2-1.4,6.3c-0.1,0.4,0,0.6,0.3,0.8c0.7,0.6,1.5,1.3,2.3,2c2.8-11.9,5.7-23.7,8.5-35.6
		c0.4,0.8,1,1.5,0.7,2.5c-1.3,5.5-2.6,11.1-3.8,16.6c-1,4.3-2,8.6-3,12.9c-0.2,0.8-0.4,1.5-0.5,2.3c0,0.2,0,0.4,0.1,0.5
		c0.9,0.8,1.9,1.5,2.9,2.3c3-12.7,6-25.3,9.1-37.9c0.4,0.9,0.7,1.7,0.5,2.7c-1.6,6.3-3,12.6-4.5,19c-1.2,4.9-2.3,9.9-3.5,14.8
		c-0.1,0.3-0.1,0.5,0.3,0.6c0.7,0.3,1.4,0.6,2.2,1c3.3-12.4,6.6-24.7,9.9-37c0.1,0,0.1,0,0.2,0c0,0.8,0.1,1.7,0,2.4
		c-2.6,10.4-5.2,20.8-7.9,31.2c-0.2,0.6-0.5,1.3-0.4,1.9c0.1,0.5,0.8,1,1.3,1.4c0.6,0.6,1.2,1.2,1.8,1.9
		c3.4-13.2,6.7-26.3,10.1-39.5c0.5,0.9,0.9,1.7,0.6,2.8c-1.9,7.1-3.6,14.2-5.4,21.2c-1.1,4.4-2.2,8.8-3.3,13.3c0,0.2,0,0.5,0.1,0.6
		c1,0.8,2,1.6,3.1,2.5c3.4-13.4,6.8-26.8,10.2-40.2c0.4,0.9,0.7,1.8,0.4,2.8c-1.9,7.7-3.8,15.5-5.6,23.2c-1,4.1-1.9,8.2-2.9,12.4
		c-0.1,0.3,0,0.5,0.3,0.7c1,0.6,2,1.2,3.1,1.8c3.4-13.6,6.8-27.2,10.1-40.9c0.4,0.8,0.7,1.4,0.5,2.4c-1.6,6.5-3.1,13.1-4.6,19.7
		c-1.2,5-2.3,9.9-3.5,14.9c-0.5,2-0.9,3.9-1.4,5.9c0,0.2-0.1,0.3-0.1,0.5c-1.2-0.8-2.5-1.6-3.7-2.4c-0.3-0.2-0.6-0.3-0.9,0
		c-0.5,0.5-1.1,0.9-1.6,1.3c-1.2-1-2.3-2-3.5-3.1c-0.4,0.3-0.9,0.6-1.3,1c0.1,0.1,0.2,0.2,0.3,0.3c1.5,1.2,3,2.3,4.4,3.5
		c0.2,0.2,0.4,0.5,0.5,0.7c0.2,0.8,0.4,1.7,0.7,2.6c-0.2-0.1-0.2-0.2-0.3-0.2c-2.8-2.5-5.6-5.1-8.4-7.6c-0.3-0.3-0.6-0.4-0.9-0.3
		c-1.6,0.1-3.2,0.2-4.8,0.3c-0.1,0-0.2,0-0.4,0.1c6.4,4.1,12.8,8.1,19.1,12.1c0,0.1,0,0.1-0.1,0.2c-0.4-0.1-0.8-0.2-1.2-0.4
		c-6.4-3.9-12.9-7.8-19.3-11.7c-0.1,0-0.1-0.1-0.2,0c3.8,3.3,7.5,6.5,11.4,9.8c-1.2,0.8-2.3,1.5-3.4,2.2c-0.1,0-0.2,0-0.3,0
		c-2.1-0.4-4.2-0.7-6.3-1.1c-0.2,0-0.3-0.2-0.5-0.3c-3.1-2.1-6.2-4.3-9.3-6.4c-0.2-0.1-0.5-0.3-0.7-0.3c2.7,3,5.7,5.6,8.7,8.4
		c-0.7-0.1-1.3-0.2-1.9-0.2c-2.3-0.3-4.5-0.6-6.8-1c-0.4-0.1-0.7-0.2-1-0.4c-2.7-1.8-5.5-3.7-8.2-5.5c-0.1,0-0.1-0.1-0.2,0
		c2.2,2,4.3,4,6.6,6.1c-1.6-0.2-3-0.3-4.5-0.5c-1.6-0.2-3.2-0.5-4.8-0.6c-1.3,0-2.6,0.2-3.9,0.3c-0.5,0.1-1.1,0.1-1.6,0.3
		c1.7,0.2,3.4,0.4,5.2,0.6c0,0.1,0.1,0.2,0,0.2c-0.2,0.9,0.2,1.4,0.8,1.9c0.6,0.4,1,1.1,1.6,1.4c0.6,0.2,1.4,0,2.1,0
		c11.2-0.4,22.4-0.8,33.7-1.2c0.3,0,0.6,0.1,0.8,0.3c0.7,0.6,1.5,1,2.5,0.9c3.7-0.1,7.4,0,11.1,0c0.6,0,1.2,0.1,1.9,0.2
		c0.1-0.4,0.2-0.8,0.3-1.3c-1.2-0.4-2.4-0.7-3.7-0.6c-3,0-6,0-9.1-0.1c-0.1,0-0.1,0-0.2,0c0.1-0.3,0.2-0.6,0.2-0.9
		c1.1,0.9,2.4,0.4,3.6,0.4c2.9,0.1,5.8,0,8.7,0.1c1.3,0,2.3-1,2.2-2.3c-0.5,0.5-0.9,1-1.5,1.4c-0.4,0.2-0.8,0.4-1.3,0.4
		c-3.7,0-7.3-0.1-11-0.1c0-1.3,0-2.5,0-3.8c0-0.9,0.2-1.7,0.7-2.4c5.4-8.7,10.8-17.5,16.1-26.2c0.1-0.1,0.1-0.2,0.3-0.4
		c0.4,0.5,0.7,1,1,1.5c0.1,0.1,0,0.4-0.1,0.6c-1.5,2.4-3.1,4.9-4.7,7.3c-0.4,0.6-0.3,1.2-0.1,1.9c2.2-3.5,4.4-7,6.6-10.4
		c-0.9-1.1-0.7-2.3-0.1-3.5c0.5-1.1,1.2-1.1,2.3-0.5c0.2,0.1,0.4,0.3,0.7,0.5c0.2-0.5,0.4-1,0.5-1.4c0.1-0.4-0.1-0.7-0.4-0.8
		c-0.1,0-0.4,0.3-0.5,0.5c-0.1,0.5-0.4,0.8-0.9,0.6c-0.1,0-0.2,0-0.4,0c-0.6,0.1-0.8-0.2-0.6-0.7c0.2-0.5,0.4-1.1,0.7-1.6
		c0.6-1,2.2-1.5,3.2-1c0.2,0.1,0.4,0.4,0.5,0.6c0.3,0.9,0.1,1.7-0.2,2.5c-0.2,0.5-0.5,1-0.7,1.6c1.1-0.8,1.5-1.8,1.6-2.9
		c0.1-0.7,0-1.5-0.1-2.2c-0.2-0.7,0.1-1.2,0.6-1.6c0.7-0.7,1.7-1,2.6-1.1c0.2,0,0.3,0,0.5,0c0.4-1.5,0.8-3,1.2-4.5
		c-0.3-0.1-0.6-0.2-0.9-0.3c0.9-3.6,1.8-7.3,2.7-10.9c-0.9-0.4-1.7-0.7-2.6-1c-1.9-0.7-3.8-1.5-5.8-2.2c-2.2-0.8-4.4-1.7-6.6-2.6
		c-2.2-0.9-4.5-1.7-6.7-2.6c-2.2-0.8-4.3-1.7-6.5-2.5c-2.1-0.8-4.2-1.7-6.3-2.4c-1-0.3-2.1-0.5-3.1-0.6c-1.5-0.3-3.1-0.5-4.7-0.8
		c-0.3,0-0.6-0.1-0.8-0.2c2.6,0.7,5.2,1.3,7.8,2c1.2,0.3,2.3,0.8,3.5,1.3c2.6,1.1,5.3,2.2,7.9,3.2c2.3,1,4.7,1.9,7,2.9
		c2.1,0.9,4.2,1.7,6.4,2.6c2.2,0.9,4.4,1.8,6.6,2.7c-1.5,5.9-3.1,11.8-4.6,17.7c-0.3,0-0.7,0.1-1,0.1c-1.8,0.4-2.8,1.6-3.1,3.4
		c-0.1,0.3-0.2,0.5-0.5,0.6c-0.8,0.3-1.2,0.9-1.4,1.6c-0.2,0.7-0.5,1.4-0.8,2.1c-0.1,0.1-0.2,0.2-0.4,0.3c0-0.1,0-0.3,0.1-0.4
		c1.7-6.9,3.5-13.7,5.2-20.6c0.1-0.3,0-0.7,0-1c0-1.3,0.6-1.9,2-1.9c-0.3-0.3-0.6-0.6-1-0.8c-0.1-0.1-0.4,0.1-0.5,0.2
		c-0.8,1-1.3,2.1-1.6,3.3c-1,4.3-2.1,8.5-3.1,12.8c-0.8,3.3-1.6,6.5-2.4,9.8c-0.2,1-0.7,1.8-1.2,2.6c-1.4,2.3-2.8,4.6-4.1,6.9
		c0,0-0.1,0.1-0.2,0.2c2.7-12.5,5.4-24.9,8.2-37.4c-9.8-4.2-19.6-8.4-29.4-12.6c-0.4,1.5-0.8,2.9-1.1,4.3c-0.2,0.8-0.2,0.8-1,0.7
		c-0.4-0.1-0.7,0-0.9,0.3c-0.2,0.3-0.5,0.5-0.7,0.7c-0.4,0.6-0.8,0.5-1.3,0.2c-0.8-0.5-1.5-0.4-2.1,0.3c-0.4,0.6-1,0.7-1.7,0.4
		c-0.6-0.3-1.3-0.4-1.9-0.6c-0.2,0-0.4,0.1-0.6,0.1c0,0,0,0,0,0c-0.6,0.7-1.3,1.1-2.3,0.7c-0.2-0.1-0.6,0.1-0.9,0.2
		c-0.2,0.1-0.4,0.2-0.6,0.3c-0.8,0.6-1.6,0.7-2.4,0.1c-0.8-0.6-1.7-0.5-2.6-0.1c-0.7,0.3-1.4,0.3-2.1,0c-0.5-0.2-1-0.2-1.4,0.2
		c-0.6,0.5-1.2,0.5-1.9,0.1c-0.6-0.4-1.4-0.6-2-1c-0.4-0.2-0.6-0.1-0.9,0.1c-0.2,0.3-0.5,0.5-0.7,0.8c-0.2,0.3-0.3,0.3-0.6,0.2
		c-0.7-0.3-1.3-0.6-2-0.9c-0.3,0.3-0.6,0.7-1,0.9c-0.1,0.1-0.4,0.1-0.5,0.1c-0.6-0.1-1.1-0.3-1.6-0.5c-0.1,0-0.3-0.1-0.5,0
		c-1.3,0.6-2.5,0.2-3.8-0.1c-1.7-0.4-3.3-0.8-5-1.1C166.9,51,166.3,51.3,165.7,51.4L165.7,51.4z"/>
	<path d="M173.3,96.7c0.1-0.4,0-0.5-0.3-0.7c-4.2-3.2-8.3-6.4-12.5-9.6c-0.2-0.2-0.3-0.4-0.6-0.7c-1.2,0-2.5-0.2-3.8-0.1
		c-2,0.1-3.4-0.9-4.4-2.4c-0.8-1.1-1.2-2.3-1.5-3.6c-0.6-3-0.6-6.1-0.2-9.1c0.4-2.5,0.9-5,1.9-7.4c0.5-1.2,1.2-2.4,2.3-3.2
		c0.9-0.7,2.3-1.1,3.5,0.1c0.6,0.6,1.1,1.3,1.5,2c1.2,2.1,1.6,4.5,1.8,6.9c0,0.4,0,0.7,0,1.1c-0.5-0.7-0.9-1.4-1.5-2.1
		c-0.2,0.2-0.2,0.2-0.3,0.3c-0.3,1.3-0.8,2.6-1,4c-0.2,1.8,0.4,3.5,2.1,4.5c-0.8,1.8-1.4,3.7-3,5.1c-1.5-1.3-2.7-4.5-2.3-5.8
		c0.6,1.7,1.7,3.1,2.7,3.3c-0.9-1.4-1.3-2.2-1.5-3.6c-0.4-2.6-0.1-5.1,0.7-7.5c0.4-1.2,1.1-2.4,2.3-3c0.4-0.2,0.4-0.5,0.3-0.8
		c-0.2-0.3-0.3-0.7-0.8-0.5c-0.5,0.3-1.1,0.5-1.6,0.9c-1.3,1.1-2,2.5-2.4,4c-0.7,2.4-1,4.9-0.8,7.4c0.1,1.8,0.5,3.5,1.6,5.1
		c0.1,0.2,0.3,0.3,0.5,0.6c-1.5-0.5-2.3-1.5-2.8-2.8c-1.1-2.8-1-5.6-0.5-8.5c0.4-2.2,1.2-4.2,2.6-5.9c0.2-0.3,0.3-0.6-0.1-1
		c-0.2,0.2-0.4,0.3-0.6,0.5c-1.3,1.3-2.1,2.9-2.7,4.6c-0.8,2.1-1.1,4.3-1.4,6.6c-0.2,2.1-0.1,4.1,0.9,6c1,2,2.4,3.6,5,3.5
		c2.1,0,4.2,0.1,6.3,0.1c0.2,0,0.5-0.1,0.6-0.3c0.4-0.3,0.8-0.6,1.3-0.8c2.4-1,4.3-2.6,5.5-5c0.8-1.6,1.2-3.4,1.4-5.2
		c0.4-2.9,0.1-5.8-1.1-8.5c-0.8-1.9-2.1-3.5-3.6-4.9c0.2,0,0.4,0.1,0.6,0.2c3,1.5,5.1,3.8,6.4,6.8c1.2,2.7,1.5,5.6,1.4,8.5
		c-0.1,1.9-0.2,3.7-1.1,5.4c-1.3,2.4-3,4-5.9,4.3c-0.4,0-0.8,0-1.3,0c0.2,0.2,0.4,0.3,0.5,0.4c1.3,1,2.7,1.9,3.7,3.2
		c0.4,0.5,0.5,1.1,0.4,1.8c-0.2,0.7-0.3,1.4-0.4,2.2c0,0.1,0,0.4,0.1,0.5c0.7,0.6,1.5,1.1,2.3,1.7c0.1-0.2,0.1-0.4,0.2-0.6
		c0.4-1.6,0.8-3.2,1.2-4.9c1.8-7.4,3.7-14.9,5.4-22.3c0.3-1.1,0.8-1.9,1.6-2.6c0.8-0.7,1.6-0.8,2.6-0.4c-0.1,0-0.3,0-0.4,0
		c-1.1-0.1-2,0.6-2.3,1.6c-1,4-2.1,8-3.1,12c-0.2,0.7-0.5,1.3-0.2,2c0,0.1,0,0.3-0.1,0.4c-2.4,9.6-4.9,19.1-7.3,28.7
		c0,0.1-0.1,0.3-0.1,0.5c-2.6-2.7-5.1-5.3-7.7-7.9c0,0,0,0,0.1-0.1c2.3,1.9,4.6,3.8,6.9,5.7c0.1-0.4,0.1-0.7,0.2-1
		c0.1-0.5,0-0.7-0.4-1.1c-2.2-2.1-4.4-4.2-6.6-6.3c-0.5-0.5-1-0.9-1.5-1.5c3.6,0.5,7.1,1.1,10.6,1.6
		C172.9,98.4,173.1,97.5,173.3,96.7z M170.8,90.1c0.1-0.7-0.3-1.3-0.9-1.8c-1.3-0.9-2.6-1.9-3.8-2.9c-0.6-0.4-1-0.5-1.6-0.1
		c-0.2,0.1-0.4,0.2-0.6,0.2c-1,0.1-2.1,0.1-3.2,0.2c3.2,2.3,6.4,4.6,9.7,7C170.5,91.8,170.7,90.9,170.8,90.1z"/>
	<path d="M167.6,120.8c-0.5-0.5-1-1-1.5-1.5c-4.6-4.7-9.3-9.3-13.9-14c-0.2-0.2-0.3-0.5-0.3-0.8c0-1.5,0.1-3.1,0.1-4.6
		c-0.1,0.5-0.3,1-0.4,1.5c-0.3,1.1-0.6,2.3-0.9,3.4c-0.1,0.3,0,0.5,0.2,0.8c4.8,4.9,9.5,9.9,14.3,14.8c0.5,0.5,0.9,1,1.5,1.5
		c0.2,0.2,0.6,0.4,0.9,0.5c1.1,0.2,2.3,0.4,3.4,0.6c0.2,0,0.5,0.2,0.7,0.3c2.7,2.5,5.5,5,8.2,7.5c0.2,0.1,0.4,0.2,0.6,0.2
		c5.3-0.2,10.6-0.4,15.9-0.6c0.5,0,1,0.1,1.4,0.3c0.4,0.1,0.8,0.3,1.2,0.4c0.2,0.1,0.5,0.2,0.6,0.4c0.8,1.2,3.7,2.1,5.2,0.7
		c0,0,0.1-0.1,0.1-0.2c-0.2,0.1-0.4,0.2-0.5,0.2c-1,0.4-2,0.4-2.9,0c-1.3-0.6-1.8-1.8-1.6-3.2c0.1-1.3,0.6-2.4,1.7-3.1
		c0.5-0.3,1.2-0.5,1.8-0.7c-0.7-1.1-2.4-1.9-3.9-1.7c-1.5,0.2-2.3,1.3-2.8,2.6c-0.2,0.5-0.3,1-0.4,1.5c-0.1,0.7,0,1.4,0.7,2
		c-5.5,0.2-11,0.4-16.5,0.7c0.1-0.3,0.1-0.6,0.2-0.8c0.4-1.9,0.9-3.8,1.3-5.7c0.1-0.4,0.3-0.5,0.6-0.5c14-0.3,28-0.7,42-1
		c2.2-0.1,4.4-0.1,6.6-0.2c0.1,0,0.2,0,0.4,0c0,0.2-0.1,0.3-0.1,0.5c-0.4,1.6-0.8,3.1-1.2,4.7c-0.1,0.3-0.1,0.4-0.5,0.4
		c-4.2,0.1-8.4,0.3-12.5,0.4c0,0,0,0-0.1,0c-0.1-1-0.6-1.8-1.5-2.4c0.7,0.9,0.9,2,0.9,3.1c0,0.4,0.1,0.4,0.4,0.4
		c4.5-0.1,9-0.2,13.4-0.4c0.2,0,0.4-0.2,0.4-0.3c0.6-2.3,1.3-4.7,1.9-7c0,0,0-0.1,0-0.2c-0.6,0-1.1,0-1.7,0
		c-16.2,0.5-32.4,1-48.6,1.5c-0.4,0-0.7-0.1-1-0.4c-1.7-1.6-3.4-3.2-5.1-4.7c-0.1-0.1-0.2-0.2-0.5-0.3c-0.4,1.6-0.8,3.1-1.2,4.5
		c0,0-0.1,0-0.1,0c-0.2-0.5-0.5-0.9-0.6-1.4c-0.2-0.5-0.4-0.6-0.9-0.5c-1.4,0.2-2.9,0.3-4.4,0.5c0.2-0.7,0.4-1.3,0.6-1.9
		c0.2-0.7,0.5-1.3,0.7-2c0.1-0.4,0.3-0.6,0.7-0.8c0.4-0.1,0.7-0.3,1.1-0.5c-0.8-0.7-1.5-1.4-2.3-2c-5.1-4.6-10.2-9.2-15.4-13.8
		c-0.3-0.2-0.4-0.4-0.3-0.8c0.9-4.1,1.8-8.2,2.7-12.3c0-0.2,0.1-0.3,0.1-0.5c-0.9-0.1-1.2,0.1-1.4,0.9c-0.8,3.3-1.6,6.6-2.3,9.9
		c-0.2,0.9-0.4,1.8-0.6,2.7c-0.1,0.4,0,0.6,0.3,0.9c5.3,4.8,10.6,9.7,15.9,14.5c0.4,0.4,0.5,0.7,0.3,1.3
		C168.5,117.6,168.1,119.2,167.6,120.8z"/>
	<path d="M206.9,113.4c-0.7-1.4-1.3-2.7-2.6-3.6c-1.7-1.3-3.2-2.8-4.8-4.2c-0.3-0.3-0.4-0.6-0.3-1c0.3-1,0.5-2,0.8-3
		c-6.7-0.6-13.3-1.3-20-1.9c0.9,0.8,1,1.7,1,2.7c0,1.1-0.7,1.7-1.4,2.4c0.8,2.3,1.6,4.7,2.5,7.1c0.2-0.1,0.3-0.2,0.5-0.4
		c-0.3-0.9-0.5-1.9-0.8-2.9c1.4-0.1,2.8-0.2,4.1-0.2c4.1-0.2,8.2-0.4,12.2-0.7c0.3,0,0.6,0.1,0.8,0.2c2.6,1.8,5.2,3.6,7.8,5.3
		C206.8,113.4,206.8,113.4,206.9,113.4z"/>
	<path d="M168.1,63.8c0.2,1,0.4,2,0.5,2.9c0,0,0,0,0,0c-0.4-0.9-0.9-1.8-1.3-2.8c0,0-0.1,0-0.1,0c0.2,1.1,0.3,2.2,0.5,3.4
		c-0.7-1.3-1.3-2.4-1.9-3.5c0,0-0.1,0-0.1,0.1c0.2,1.1,0.5,2.2,0.7,3.2c0,0-0.1,0-0.1,0c-0.5-0.7-1-1.5-1.5-2.2
		c0.8,2.6,1.4,5.2,1.2,7.9c-0.2,2.7-1,5.2-2.8,7.5c0.4-1.5,0.8-2.8,1.1-4.2c0.5-2.4,0.5-4.9,0-7.3c-0.2-0.8-0.5-1.3-1.3-1.6
		c-0.2-0.1-0.4-0.2-0.7-0.3c1.5,6.5-0.9,11.8-4.5,16.9c2,0.2,3.9,0.1,5.8-0.6c3.1-1.2,5.1-3.4,6.1-6.6c1.3-4.2,0.5-8.2-1.2-12
		c-0.1-0.3-0.3-0.5-0.4-0.8C168.2,63.9,168.2,63.9,168.1,63.8z"/>
	<path d="M243.8,88c-1.9,7.2-3.7,14.3-5.6,21.5c0.3,0.1,0.6,0.2,0.9,0.2c-0.4,1.8-0.8,3.5-1.2,5.3c0.7,0,1.4,0,2,0
		c0.1,0,0.2-0.2,0.3-0.3c0.2-0.7,0.4-1.5,0.6-2.2c0.6-2.3,1.2-4.5,1.9-6.8c0-0.1,0-0.2,0.1-0.3c0.2-0.6,0.3-1.3,1.2-1.5
		c0.4-0.1,0.8-0.7,1.1-1.2c0.9-1.6,0.5-3.8-0.8-4.8c-0.2-0.1-0.4-0.2-0.5-0.3c-0.2-0.1-0.4-0.2-0.6-0.3c0.8-3.7,1.7-7.5,2.5-11.1
		c-0.5-0.2-1-0.4-1.5-0.6c-5.1,8.5-10.3,17.1-15.5,25.7c2.1-0.1,4.1-0.1,6.3-0.2c-0.7-0.5-1.3-0.8-1.9-1.2c-0.1-0.1-0.3-0.3-0.2-0.5
		c0.2-1.5,0.4-2.9,0.6-4.4c0-0.3,0.2-0.5,0.3-0.8c3.3-5.3,6.6-10.7,9.9-16C243.6,88.1,243.7,88.1,243.8,88
		C243.8,88,243.8,88,243.8,88z"/>
	<path d="M155.8,95.1c-0.2,1.1-0.4,2.2-0.5,3.2c0,0.1,0.1,0.3,0.3,0.5c3.6,3.2,7.2,6.5,10.9,9.7c1.2,1.1,2.5,2.2,3.7,3.3
		c0.2,0.2,0.4,0.4,0.5,0.6c0.5,0.9,1,1.9,1.5,2.8c0.1,0.1,0.3,0.3,0.4,0.3c1.7-0.2,3.5-0.5,5.2-0.8c-0.9,0-1.8,0-2.6-0.1
		c-0.7-0.1-1.3-0.3-1.9-0.5c-0.8-0.4-1-0.8-0.8-1.6c0.2-0.8,0.6-1.2,1.4-1.3c1.3-0.2,2.5-0.3,3.8-0.5c0.3,1,0.6,2,0.9,3
		c0.2,0,0.4,0,0.6,0c-0.1-0.5-0.3-0.9-0.4-1.4c-0.9-2.8-1.7-5.5-2.6-8.3c-0.3-0.9-0.4-1.9-0.1-2.9c0.4-1.4,2-2.3,3.4-1.9
		c0.1,0,0.2,0,0.3,0.1c-0.4-0.9-1.6-1.7-2.6-1.7c-0.8,0-1.9,0.9-2.2,1.8c-0.3,0.8-0.3,1.6,0,2.5c0.9,2.6,1.7,5.3,2.5,8
		c-1.1,0.1-2.2,0.2-3.2,0.3c-1.1,0.1-1.9,0.5-2.5,1.5c-0.1-0.1-0.2-0.2-0.3-0.3c-4.8-4.2-9.5-8.3-14.3-12.5
		c-0.2-0.2-0.4-0.5-0.4-0.8C156.2,97,156.1,96,155.8,95.1C155.9,95.1,155.9,95.1,155.8,95.1z"/>
	<path d="M172,98.7c-2.6-0.8-5.1-1.7-7.7-2.5c-0.8-0.3-1.4-0.6-1.7-1.5c-0.7-2-1.6-4-2.3-6c-0.2-0.5-0.1-1.2-0.1-1.8
		c-0.9,0.3-1.6,0.7-1.6,1.9c-0.6-0.1-1-0.3-1.5-0.4c-0.6,2.1-1.1,4.2-1.6,6.3c0.7-0.9,1-2.1,1.9-2.8c0.3,0.5,0.7,1,1,1.5
		c0.5,0.8,0.9,1.6,1.3,2.3c0.1,0.2,0.3,0.3,0.4,0.4c3.8,0.8,7.5,1.6,11.3,2.5C171.6,98.7,171.8,98.7,172,98.7
		C172,98.7,172,98.7,172,98.7z"/>
	<path d="M215.1,124.9c-0.8-0.4-1.5-0.4-2.2-0.2c-0.2,0.1-0.3,0.2-0.4,0.2c-0.2,0-0.4,0-0.6-0.1c-0.1-0.1-0.1-0.3,0-0.5
		c0.1-0.3,0.3-0.5,0.5-0.7c-1.3-0.1-2.5,0.3-3.3,1.3c-1,1.2-1.4,2.6-0.6,4.2c-0.7,0-1.3,0.1-2,0.1c0,0.3-0.1,0.5-0.1,0.8
		c1.4-0.1,2.7-0.2,4.1-0.2c0.3,1.5,1.1,2.4,2.7,2.7c1.3,0.2,2.1-0.4,2.9-1.3c-0.4,0.1-0.7,0.3-1.1,0.4c-0.7,0.2-1.4,0.3-2.1,0
		c-1.1-0.4-1.7-1.5-1.5-2.7c0.1-0.7,0.3-1.4,0.5-2.1c0.4-1.2,1.3-1.8,2.5-2C214.7,124.9,214.8,124.9,215.1,124.9z"/>
	<path d="M182.7,79.2c-0.5-0.1-1-0.3-1.6-0.4c0-0.1,0-0.3,0.1-0.4c0.4-0.2,0.4-0.5,0.5-0.8c0.9-3.6,1.8-7.1,2.7-10.7
		c0.1-0.3,0-0.5-0.4-0.7c-0.1,0.2-0.1,0.4-0.2,0.6c-0.9,3.5-1.7,7-2.6,10.4c-0.1,0.3-0.3,0.6-0.5,0.9c-0.5,0.6-1,1.2-1.1,2
		c-0.1,0.4-0.2,0.8,0,1.1c0.5,0.8,0.2,1.6,0,2.4c-0.6,2.6-1.2,5.2-1.7,7.8c-0.1,0.3-0.2,0.7,0.2,0.8c0.4,0.1,0.5-0.3,0.5-0.6
		c0.8-3,1.6-5.9,2.3-8.9c0.3,0.1,0.5,0.2,0.6,0.2c-0.2-0.7-0.6-1.4-0.5-2.1c0.1-0.8,0.8-1.2,1.6-1.4
		C182.7,79.3,182.7,79.3,182.7,79.2z"/>
	<path d="M165,55.1c0.6,1.1,1.4,2,2.3,2.6c2.7,1.7,5.3,3.3,8,5c1,0.7,2.2,0.8,3.4,1c0.5,0.1,0.9,0.1,1.4,0
		C175.1,61,170.1,58.1,165,55.1z"/>
	<path d="M249.6,57c-1.8-0.4-3.5-0.7-5.3-1.1c-1.5-0.3-3-0.5-4.5-0.9c-1.1-0.3-2.1-0.8-3.1-1.3c-2.4-1-4.9-2.1-7.3-3.1
		c-2.5-1-4.9-2.1-7.4-3.1c-0.6-0.2-1.2-0.5-1.8-0.6c2.9,1.3,5.7,2.6,8.6,3.9c3.3,1.5,6.6,3,9.8,4.5c0.9,0.4,1.9,0.9,2.8,1.3
		c0.5,0.2,1.1,0.1,1.6,0.1C245.3,56.9,247.5,57,249.6,57C249.6,57.1,249.6,57,249.6,57z"/>
	<path d="M165.7,51.4c-0.2-0.3-0.5-0.7-0.8-1.1c-0.8,3.2-1.5,6.2-2.3,9.4c-0.7-0.3-1.2-0.5-1.8-0.8c-0.9-0.5-1.8-0.7-2.8-0.7
		c1.3,0.2,2,1.5,3.4,1.6c1.3,0.1,2.5,0.8,3.9,0.3c-0.6-0.2-1.1-0.4-1.6-0.6c-0.2-0.1-0.4-0.2-0.3-0.5
		C164.3,56.6,164.9,54.1,165.7,51.4C165.6,51.5,165.7,51.5,165.7,51.4C165.7,51.4,165.7,51.4,165.7,51.4z"/>
	<path d="M157.1,82.7c-0.1,0-0.2-0.1-0.2-0.1c-1.1,0.6-1.9,0.1-2.7-0.6c-1.2-1.1-1.9-2.5-2.5-4c-0.1-0.2-0.1-0.3-0.2-0.5
		c0,1.2,0.2,2.3,0.8,3.4c0.6,1,1.4,1.8,2.4,2.4c0.4,0.2,0.8,0.3,1.2,0C156.3,83.2,156.7,82.9,157.1,82.7z"/>
	<path d="M166.6,54.3c-0.2,0.6,0.1,1.1,0.7,1.2c0.5,0.1,1.1-0.2,1.3-0.7c0.1-0.5-0.2-1.1-0.7-1.2C167.3,53.4,166.7,53.8,166.6,54.3z
		"/>
	<path d="M176.7,60.7c0.5,0.1,1-0.2,1.2-0.7c0.2-0.6-0.1-1.1-0.6-1.3c-0.5-0.1-1.1,0.2-1.2,0.8C175.9,60,176.2,60.5,176.7,60.7z"/>
	<path d="M247.2,61.4c-0.5-0.1-1,0.2-1.2,0.8c-0.1,0.5,0.2,1.1,0.7,1.2c0.5,0.1,1-0.2,1.1-0.8C247.9,62,247.7,61.5,247.2,61.4z"/>
	<path d="M204.7,126.5c1.1,2.2,0.6,3.7-1.8,4.9c0.9,0.2,2.2-0.5,2.6-1.6C205.8,128.8,205.8,127,204.7,126.5z"/>
	<path d="M234.3,114.2c-0.1,0.6,0.1,1.1,0.5,1.2c0.4,0.1,0.9-0.3,1.1-0.8c0.1-0.5-0.1-1.1-0.5-1.2
		C234.9,113.2,234.5,113.6,234.3,114.2z"/>
	<path d="M179.7,112.4c-0.1,0.5,0.1,1,0.5,1.1c0.4,0.1,0.9-0.2,1-0.7c0.1-0.5-0.1-1-0.6-1.1C180.3,111.6,179.9,111.9,179.7,112.4z"
		/>
	<path d="M178,101.7c-0.1,0.5,0.2,1,0.6,1.1c0.4,0.1,0.9-0.2,1-0.7c0.1-0.5-0.1-1-0.6-1.1C178.5,100.9,178.1,101.2,178,101.7z"/>
	<path d="M214.6,129.9c-1-0.2-1.2-0.4-1.5-1.1c-0.4,0.5-0.4,1.1,0,1.5C213.6,130.7,214.1,130.6,214.6,129.9z"/>
	<path d="M174.2,113.6c0.3-0.2,0.7-0.3,0.7-0.6c0.1-0.4-0.2-0.7-0.6-0.7c-0.3-0.1-0.7,0-0.8,0.4C173.4,113,173.7,113.4,174.2,113.6z
		"/>
	<path d="M169.5,89.7c0.1-0.4,0-0.7-0.4-0.9c-0.3-0.1-0.8,0.2-0.8,0.6c-0.1,0.4,0,0.7,0.5,0.9C169.1,90.3,169.4,90.1,169.5,89.7z"/>
</g>
</svg>
