<?xml version="1.0" encoding="utf-8"?>
<!-- Generator: Adobe Illustrator 17.1.0, SVG Export Plug-In . SVG Version: 6.00 Build 0)  -->
<!DOCTYPE svg PUBLIC "-//W3C//DTD SVG 1.1//EN" "http://www.w3.org/Graphics/SVG/1.1/DTD/svg11.dtd">
<svg version="1.1" id="Layer_1" xmlns="http://www.w3.org/2000/svg" xmlns:xlink="http://www.w3.org/1999/xlink" x="0px" y="0px"
	 viewBox="0 0 288 216" enable-background="new 0 0 288 216" xml:space="preserve">
<g>
	<path d="M193.4,188.9c0.7-0.3,1.3-0.5,1.9-0.7c2.1-0.8,4.3-1.3,6.6-1.3c4.8,0,7.5,2.2,9.1,6.3c0.7,1.8,0.9,3.7,1.3,5.6
		c0.1,0.5-0.1,0.7-0.6,0.9c-2.8,1.3-5.7,2.2-8.7,2.8c-2,0.4-4,0.7-6,0.8c-3.1,0.2-6.2,0.5-9.3,0.5c-5.7,0-11.4-0.7-17-2
		c-0.8-0.2-1.3-1.1-0.8-1.9c2.1-3,2.7-6.4,2.9-9.9c0.1-1.2,0-2.3,0-3.5c0-0.7-0.2-0.8-0.9-0.6c-5,1.5-10,2.2-15.2,2.2
		c-3.2,0-6.3-0.4-9.4-1.1c-0.8-0.2-1.1,0-1.4,0.8c-1.5,4.1-2.7,8.3-3.4,12.7c-0.1,0.6-0.3,0.9-0.9,1c-4.8,0.8-9.6,2.2-14.5,2.5
		c-3.4,0.2-6.8,0.4-10.1,0.2c-2.9-0.2-5.8-0.8-8.8-1.3c-0.7-0.1-0.8-0.4-0.6-1c0.7-2.2,1.7-4.4,3.1-6.2c1.6-2.1,3.6-3.6,6.3-3.9
		c1.5-0.2,3,0,4.4,0c0.4,0,0.8,0.1,1.3,0.2c0.1-1.7,0.2-3.4,0.2-5c0-0.6-0.1-1.3-0.1-1.9c-0.1-2-1.3-3.4-2.4-4.8
		c-2.7-3.2-5-6.7-6.4-10.7c-1.4-3.9-2-8-1.5-12.2c0.1-0.5-0.1-0.8-0.5-1c-1-0.7-2-1.5-3-2.2c-0.5-0.4-0.6-0.7-0.3-1.3
		c1.4-2.7,2.8-5.4,4.1-8.1c0.2-0.3,0.3-0.6,0.5-1.1c-0.4,0-0.7,0-0.9-0.1c-1-0.4-2.1-0.7-3-1.3c-3.1-2.1-5.8-4.7-8.3-7.4
		c-1.8-1.9-3.5-3.9-5.2-5.9c-0.5-0.5-0.4-0.9,0-1.4c1.3-1.8,2.8-3.3,4.5-4.6c0.5-0.4,0.5-0.7,0.3-1.2c-0.3-0.8-0.5-1.6-0.9-2.4
		c-0.1-0.3-0.5-0.6-0.8-0.6c-2.1-0.2-4-0.9-5.8-1.8c-2.2-1.1-4.5-2-6.3-3.8c-0.2-0.2-0.5-0.3-0.8-0.4c-3.3-0.8-39.2-1.5-42.2-3.1
		c-1.6-0.9-3.1-1.8-4.3-3.3c-1.2-1.6-1.1-3.4,0.4-4.7c1.7-1.7,3.9-2.5,6.2-3.2c-0.1,0.9-0.4,1.3-1.1,1.6c-1.4,0.7-2.8,1.3-4,2.2
		c-1.5,1.2-1.5,2.3,0.1,3.7c2.3,2,5.2,2.8,8.1,3.5c2.5,0.6,37.8,0.7,40.4,1.1c4.2,0.6,8.5,0.7,12.7,0.6c5.7-0.1,11.5-0.6,17.1-1.9
		c2.9-0.7,5.8-1.6,8.2-3.4c1.6-1.2,1.7-2.6,0.2-3.9c-0.8-0.7-1.8-1.3-2.8-1.9c-1-0.7-2-1.3-3-1.9c-0.1,0-0.1-0.1-0.1-0.3
		c0.6,0.2,1.2,0.3,1.8,0.5c1.6,0.8,3.1,1.6,4.7,2.4c0.6,0.3,1.2,0,1.4-0.8c0.1-0.7,0.2-1.5,0.1-2.2c-0.1-1.3,0.3-2.3,1.5-3
		c0.4-0.2,0.8-0.6,1.2-0.8c0.9-0.5,1.1-1.3,1-2.2c-0.2-2.1-0.3-4.2-0.5-6.3c0-0.7,0-1.3,0-2c0-0.6-0.3-1.1-1-1.3
		c-0.3-0.1-0.7-0.3-0.9-0.6c-1.6-1.6-3-3.3-3.4-5.6c-0.2-1.3-0.6-2.6-0.7-3.9c-0.1-0.9,0.2-1.9,0.4-2.8c0.1-0.3,0.4-0.7,0.7-0.9
		c0.5-0.3,0.5-0.6,0.5-1.2c-0.2-2.4-1.1-4.5-2.6-6.4c-1.1-1.4-2.1-2.9-3.1-4.4c-0.3-0.5-0.6-0.6-1.1-0.1c-1.8,1.4-3.9,1.9-6.2,1.7
		c-2.2-0.3-4.4-0.8-6.3-2.1c-2.7-1.9-4-4.6-4.5-7.6c-0.5-3-0.3-5.9,1.2-8.5c0.6-1,1.5-1.8,2.5-2.3c2.4-1.1,5-1.5,7.5-2.2
		c1.4-0.4,2.8-1,4.2-1.6c0.4-0.2,0.8-0.7,1-1.2c1.6-3.6,3.3-7.1,5.6-10.2c2.3-3.2,4.8-6,8.4-7.7c4.3-2.1,8.5-1.7,12.5,0.8
		c2.4,1.4,3.5,3.6,3.5,6.4c0,0.3,0,0.5,0,0.8c0,0.4,0.2,0.7,0.6,0.7c2.6,0,4.4,1.4,5.8,3.4c1.4,1.9,1.2,4,0.5,6.1
		c-1.2,3.2-3.3,5.5-6.8,6.3c-0.1,0-0.2,0.1-0.4,0.2c0.6,0.6,1.2,1.2,1.8,1.8c0.5,0.4,1,0.8,1.6,1.1c1.6,1.1,3.2,2.3,4.8,3.4
		c0.4,0.3,1,0.5,1.5,0.6c1.1,0.1,1.8,0.9,2.8,1.7c-0.5,0-0.7,0-1.2,0c0.5,0.9,0.9,1.7,1.4,2.4c0.9,1.2,1.8,2.3,2.8,3.5
		c0.4,0.4,0.7,0.4,1.2,0.1c1.7-1.3,3.3-2.5,5-3.7c1.9-1.3,4-1.8,6.2-1.4c2.1,0.4,3.9,1.4,5.2,3.1c2.5,3.3,2.7,7,1.6,10.8
		c-0.4,1.4-1,2.7-1.5,4c0.7,0.3,1.4,0.5,2.1,0.9c1.7,1,2.7,2.6,3.8,4.2c0.5,0.7,1,1.5,1.4,2.2c0.9,1.4,1.7,1.6,3.2,1
		c0.5-0.2,1.1-0.5,1.6-0.7c0.1,0.1,0.1,0.1,0.2,0.2c-0.6,0.8-1.2,1.6-1.8,2.3c-0.5,0.6-1.1,1.1-1.7,1.5c-0.4,0.3-0.5,0.6-0.2,1
		c0.8,1,1.5,2.1,2.3,3.1c0.1,0.2,0.5,0.2,0.8,0.2c0.3,0,0.8-0.2,1-0.1c1.6,0.6,3.1,1.3,4.7,2c0.5,0.2,0.6,0.5,0.6,1
		c-0.2,1.8-0.2,1.8,1.5,2.3c0.9,0.2,1.3,0.6,1.5,1.5c0.4,1.5,0.9,3,1.3,4.6c0.1,0.5,0.4,0.7,0.9,0.7c2.6,0,5.2,0.1,7.8,0.1
		c1.2,0,2.2-0.2,2.8-1.5c1.3-2.7,2.7-5.4,4-8.1c0.3-0.6,0.4-1.2,0.5-1.8c0.1-0.5,0.3-0.6,0.8-0.5c0.6,0.2,1.2,0.3,1.7,0.4
		c0.2,0,0.4,0.1,0.6,0.1c0-0.1,0-0.1,0.1-0.2c-0.2-0.1-0.4-0.2-0.5-0.3c-3.3-1.2-5.4-3.6-6.9-6.7c-0.9-1.9-1.9-3.8-2.8-5.6
		c-0.2-0.4-0.6-0.8-1-1.2c-1.2-1.2-1.1-2.2,0.2-3.2c0.1-0.1,0.2-0.2,0.4-0.3c-0.4-0.5-0.8-0.9-1.1-1.4c-0.3-0.4-0.5-0.9-0.6-1.4
		c-0.3-1.2-0.1-1.5,1-2.1c2.3-1.3,4.1-3.2,5.6-5.4c0.8-1.1,1.8-2,3-2.5c1.3-0.5,2.6-0.6,3.8,0.1c1.1,0.6,2.3,1.2,3.4,1.9
		c0.3,0.2,0.7,0.3,1.1,0.6c0.1-0.7,0.1-1.2,0.2-1.8c0.4-3,1.8-5.3,4.2-7.1c1-0.8,2.2-1.2,3.5-0.9c1.7,0.3,2.6,1.3,2.7,3.1
		c0.1,1.7-0.5,3.2-1.2,4.6c-0.3,0.7-0.6,1.4-0.8,2.1c0.1,0,0.2,0.1,0.2,0.1c0.2-0.3,0.5-0.6,0.8-0.9c0.7-0.7,1.4-1.5,2.2-2.1
		c1.6-1.2,3.5-1.2,5.2-0.3c1,0.5,1.5,1.7,1.1,2.9c-0.7,2-1.4,3.9-2.2,5.8c-2,4.6-3.4,9.3-4.3,14.1c-0.8,4.2-1.7,8.3-2.5,12.5
		c-0.1,0.6-0.3,1.1-0.3,1.7c0,0.3,0.2,0.7,0.4,1c1,1,2,2,3,3c0.5,0.5,0.5,1,0.2,1.6c-2.1,4.2-4,8.5-6.2,12.6
		c-1.2,2.3-2.9,4.4-4.5,6.5c-1.9,2.5-4.6,3.8-7.6,4.5c-3.5,0.9-7.1,1.5-10.7,1.7c-0.6,0-0.7,0.3-0.6,0.8c0.6,3.9,1.1,7.8,1.6,11.6
		c0.3,2.2,0.4,4.5,0.4,6.7c0,3.8,0,7.6-0.2,11.4c-0.2,2.9-0.6,5.9-1,8.8c-0.1,0.6-0.4,0.9-1,1.1c-2.6,0.8-5.3,1.7-7.9,2.5
		c-0.8,0.2-1.4,0.7-1.9,1.3c-3.6,4.9-6.7,10-8.9,15.6c-1,2.6-1.8,5.3-1.9,8.2C193.4,188.5,193.4,188.7,193.4,188.9z M164,52.8
		C164,52.7,163.9,52.7,164,52.8c-0.9-1.4-1.8-2.8-2.7-4.2c-0.3-0.5-0.8-0.9-1.5-0.6c-0.9,0.3-1.8,0.5-2.7,0.7
		c-0.2,0.1-0.5,0.2-0.8,0.3c0.2,0.4,0.4,0.6,0.5,0.9c0.6,1,1.3,1.9,1.8,2.9c0.6,1.3,1.4,2.3,2.5,3.2c0.7,0.5,1.5,0.9,2.4,0.5
		c0.9-0.4,1.8-0.8,2.8-1.3C165.5,54.3,164.7,53.5,164,52.8z M165.1,121.3c2-1.6,2.4-3.9,2.9-6.2c0.2-0.9,0.1-1.1-0.8-1.1
		c-1.1,0-2.2,0-3.4,0c-0.7,0-1.1,0.3-1.5,0.7c-0.6,0.7-1.2,1.3-1.9,1.9c-2.7,2.3-5.9,3.8-9.3,4.8c-0.6,0.2-0.8,0.4-0.5,1
		c3,6.5,4.4,13.3,4.8,20.4c0.3,5.1-0.1,10.2-1.2,15.3c-0.7,3.1-1.7,6.2-2.5,9.3c-0.1,0.4-0.3,0.8,0.4,0.8c3.6,0.2,7.3,0.4,11,0.4
		c2.8,0,5.6-0.2,8.3-0.4c4.3-0.4,8.7-0.8,13-1.5c5.3-0.9,10.6-2.1,15.9-3.4c4.2-1,8.3-2.5,12.5-3.7c0.5-0.2,0.8-0.5,0.9-1
		c0.4-4.3,0.9-8.6,1.1-12.9c0.3-6.5-0.3-13-1.2-19.4c-1.2-8.5-3.2-16.9-6-25c-0.2-0.6-0.4-1.2-0.7-1.9c-1.3,0.8-2.5,1.6-3.7,2.3
		c-1.4,0.9-1.2,0.6-0.6,1.9c0.1,0.2,0.1,0.3,0.2,0.5c1,1.9,2.2,3.6,4.4,4.3c0.3,0.1,0.5,0.2,1,0.4c-0.3,0.2-0.5,0.4-0.8,0.5
		c-1.4,0.5-2.8,1.1-4.2,1.4c-2.7,0.5-5.4,0.5-7.5-1.7c-0.3-0.3-0.5-0.1-0.8,0.1c-1.5,1.5-3.3,2.4-5.4,2.3c-0.3,0-0.7,0.1-0.9,0.3
		c-0.5,0.3-1,0.8-1.6,1.1c-1.8,1.2-3.7,1.9-5.9,2.1c-0.8,0.1-1.6,0.1-2.2-0.5c-0.1-0.1-0.6,0-0.8,0.2c-1.2,1-2.2,2.1-3.5,2.9
		c-1.9,1.3-3.9,2.4-5.9,3.5C167.7,121.6,166.4,121.7,165.1,121.3z M173.2,67.1c0,0.1,0,0.1-0.1,0.2c-0.4-0.1-0.7-0.1-1.1-0.2
		c-1.3-0.2-2.6-0.4-3.9,0.3c-1.4,0.8-1.9,2.1-1.6,3.8c0.2,0.8,2,2.1,3,2.1c2.5,0.2,4.7-0.4,6.8-1.6c3.5-2,6.1-4.8,7.5-8.6
		c1-2.7,1.4-5.4,0.4-8.1c-1.5-4.1-5.7-6.5-9.8-4.5c-1.3,0.7-2.5,1.6-3.8,2.4c-2,1.4-3.9,2.8-5.9,4.1c-1.6,1-3.6,0.7-4.8-0.4
		c-1.5-1.5-2.6-3.3-3.3-5.4c-0.3-0.8-0.5-1.6-1.3-2.1c-0.2-0.1-0.3-0.5-0.2-0.7c0.1-0.5,0.3-0.9,0.5-1.5c0.8-0.2,1.7-0.4,2.8-0.7
		c-0.1-0.2-0.1-0.3-0.1-0.3c-1.2-0.9-2.3-1.8-3.6-2.6c-0.3-0.2-0.9-0.2-1.2,0c-2.6,1.3-5.2,2.5-7.7,3.9c-3.4,1.9-6.5,4.3-9.4,6.9
		c-0.2,0.2-0.4,0.6-0.4,0.9c0.1,2.3,0.3,4.6,0.4,6.9c0,0.4-0.1,0.8-0.3,1.1c-1.6,2.6-2.1,5.5-2.1,8.5c0,0.3-0.1,0.6-0.2,0.9
		c-0.3-0.1-0.5-0.3-0.8-0.4c-1-0.8-1.9-1.6-2.9-2.3c-0.8-0.5-1.3-0.3-1.5,0.7c-0.4,2,0,3.9,0.7,5.8c0.4,1.1,1.4,2,1.8,3.1
		c0.4,1.1,1.1,1.6,1.9,2.1c0.7,0.4,1.4,0.6,1.9-0.2c0.1-0.1,0.3-0.1,0.4-0.2c0.3,0.7,0.1,1.6-0.4,1.6c-1.1,0-1,0.7-0.9,1.4
		c0.2,1.8,0.3,3.5,0.5,5.3c0.2,2.6,0.3,5.1,0.5,7.7c0,0.5,0.2,0.8,0.8,1c2,0.6,4,1.4,6.1,1.9c4.1,1.2,8.3,2,12.5,2.2
		c3.3,0.2,6.6,0.1,9.9-0.1c3.3-0.2,6.6-0.5,9.7-2c0.3-0.2,0.7-0.3,1.1-0.3c1-0.2,2-0.1,2.9-0.4c3.8-1.3,7.6-2.5,10.8-5
		c0.2-0.2,0.5-0.3,0.8-0.4c0.5-0.2,1-0.3,1.5-0.6c2.1-1.5,4.3-3,5.8-5.3c0.4-0.6,0.4-1,0-1.5c-1.5-2.1-2.9-4.2-4.5-6.2
		c-1-1.2-0.5-1.2-2.1-0.7c-2.1,0.7-4.3,0.9-6.4,0.3c-1.8-0.5-3.4-1.3-5.1-2c-0.7-0.3-1.3-0.7-2-1.2c-0.1,0.3-0.2,0.6-0.3,0.8
		c-0.6,1.3-1.1,2.7-1.9,3.9c-2.6,3.8-6.4,5.9-10.7,7.3c-2.9,0.9-5.8,1.3-8.8,1.5c-0.8,0.1-1.6,0-2.4,0c1.1-0.9,2.1-1.6,3-2.6
		c1.4-1.6,2.9-3.2,3.3-5.4c0.2-1.3,0.4-2.6,0.7-3.8c0.5-2.5,1.8-4.5,4.3-5.3c0.6-0.2,1.4-0.3,1.6-0.7c0.2-0.5-0.1-1.2-0.2-1.8
		c-0.3-1.5,0.4-3.1,1.7-3.8c2-1.1,4-0.7,6,0.2C173.1,67,173.2,67.1,173.2,67.1z M115.7,117.4c-2.2,3.3-5.1,5.3-8.3,7
		c-3.1,1.7-6.5,2.9-10.1,3.8c0.5,0.6,0.8,1,1.1,1.3c1.4,1.5,2.8,3.1,4.2,4.6c2.5,2.7,5.1,5.3,8.3,7.3c0.9,0.6,1.9,0.9,3,0.5
		c1.4-0.5,2.9-0.9,4.2-1.6c3.4-1.8,6.8-3.6,10.1-5.6c3-1.7,5.8-3.6,8.7-5.5c0.2-0.1,0.5-0.3,0.7-0.4c0,0.2,0,0.2-0.1,0.2
		c-3.4,2.5-6.7,5-10.2,7.4c-3.7,2.5-7.5,4.9-11.8,6.5c-0.3,0.1-0.5,0.4-0.7,0.6c-1.5,2.9-2.9,5.8-4.4,8.7c-0.4,0.7-0.2,1,0.3,1.4
		c1.9,1.3,3.8,2.6,5.8,3.8c4.4,2.6,9.1,4.7,13.9,6.3c6.3,2.1,12.8,3.4,19.4,4.1c0.6,0.1,0.8-0.2,1-0.7c2.1-5.7,3.2-11.5,3.5-17.5
		c0.3-5.2-0.2-10.4-1.3-15.6c-0.9-4.4-2.3-8.6-4.3-12.6c-0.3-0.6-0.3-0.9,0.4-1.1c3.9-1.1,7.6-2.7,10.8-5.3c0.4-0.4,0.9-0.8,1.4-1.3
		c-0.3-0.1-0.4-0.1-0.5-0.1c-4.3-0.2-8.5-0.8-12.7-1.6c-2.1-0.4-4.3-0.7-5.8-2.6c-0.1-0.2-0.3-0.3-0.5-0.4c-2-1.6-4-3.1-6.5-4
		c-2.4-0.8-4.3-0.2-6,1.4c-1.4,1.3-2.7,2.8-4,4.2c-2.4,2.5-4.8,5-7.2,7.6c-0.3,0.3-0.4,0.8-0.4,1.2c0.2,1.4,0.6,2.8,0.9,4.2
		c0,0.2,0,0.3,0.1,0.5c0,0-0.1,0-0.1,0C117.8,122.1,116.8,119.8,115.7,117.4z M118.3,49.5c0.1,0,0.1-0.1,0.2-0.1
		c0.7,0.7,1.5,1.3,2,2.1c2.5,3.2,4.9,6.5,7.3,9.8c0.5,0.7,0.5,0.7,1,0.1c2-2.2,3.9-4.5,6-6.6c1.8-1.8,3.7-3.4,5.8-4.9
		c3.5-2.6,7.2-4.9,11.3-6.6c0.5-0.2,0.9-0.4,1.4-0.7c-3-2.3-4.9-5.1-6.4-8.4c0.2,0.1,0.3,0.2,0.4,0.3c0.8,0.9,1.6,1.9,2.3,2.8
		c0.3,0.5,0.7,0.6,1.3,0.5c3.4-0.5,6.2-3.7,6.7-7.1c0.6-3.8-2.6-6.1-5.1-6.5c-1.4-0.2-1.6-0.1-2,1.3c-0.6,1.8-1.6,3.3-2.8,4.7
		c0-0.2,0.1-0.3,0.1-0.4c1.2-2.1,2.2-4.4,2.5-6.8c0.3-2.5-0.2-4.8-2.3-6.3c-3.4-2.5-7.1-3-11.1-1.5c-3,1.1-5.3,3.2-7.3,5.6
		c-2.7,3.2-4.7,7-6.4,10.8c-1.5,3.3-3.3,6.4-6.3,8.7c-1,0.8-2.1,1.5-3.5,1.8c2.9-1.6,5-4,6.8-6.6c-2.4,0.6-4.9,1.2-7.4,1.9
		c-0.9,0.2-1.8,0.6-2.7,0.8c-1.9,0.6-3.1,2-3.6,3.9c-0.6,1.8-0.7,3.7-0.4,5.6c0.5,3.3,1.8,6.1,4.7,7.8c2,1.2,4.3,1.6,6.6,1.5
		c1.3-0.1,2.4-0.4,3.4-1.1c1.2-0.8,1.2-1.1,0.3-2.3C120.2,52.2,119.3,50.8,118.3,49.5z M197.1,165.9c-0.4,0-0.5,0-0.7,0
		c-2.3,0.5-4.7,1-7,1.5c-1.8,0.4-3.5,0.9-5.3,1.3c-1,0.2-2,0.5-3,0.7c-1.4,0.3-2.9,0.7-4.3,0.9c-2.9,0.4-5.7,0.8-8.6,1.1
		c-2.2,0.2-4.4,0-6.6-0.1c-2.4-0.1-4.9-0.1-7.3-0.3c-2.1-0.1-4.3-0.4-6.4-0.6c-1.8-0.2-3.6-0.5-5.4-0.8c-1.4-0.2-2.8-0.6-4.2-0.7
		c-1.4-0.1-2.6-0.8-4-1c-1.8-0.2-3.6-0.7-5.5-1.1c-0.1,0.3-0.2,0.6-0.3,1c-0.3,3.2-0.6,6.4-0.8,9.6c-0.2,2.9,0.3,5.7,0.8,8.5
		c0.5,2.7,1.3,5.4,0.5,8.1c-0.1,0.2,0.1,0.6,0.3,0.8c0.9,0.9,1.8,1.9,2.7,2.7c0.2,0.2,0.7,0.4,1,0.3c2-0.4,3.9-0.8,5.9-1.2
		c0.2-0.1,0.5-0.3,0.6-0.5c0.2-0.6,0.3-1.3,0.4-2c0.2-1,0.3-2.1,0.8-3.1c1.1-2.6,2.3-5.1,3.5-7.6c0.6-1.2,1.2-2.4,1.8-3.6
		c0.3-0.5,0.6-0.9,0.9-1.4c0.3,0.5,0.6,0.8,0.8,1.2c0.4,0.6,0.6,1.3,1,1.9c0.5,0.9,1.4,1,2.3,1.1c1.6,0.1,3.2,0.5,4.8,0.6
		c2,0.1,4,0,6-0.2c2-0.2,4-0.4,6-0.9c1.6-0.4,3.2-0.5,4.7-1.3c0.9-0.5,2-0.5,3.1-0.8c1.1-0.3,2.2-0.6,3.3-1c1.8-0.7,3.6-1.4,5.4-2.1
		c0.1,0,0.1,0.1,0.2,0.1c-0.4,0.6-0.7,1.2-1.1,1.8c-0.7,0.9-1.6,1.8-2.3,2.8c-0.8,0.9-1.5,1.8-2.3,2.7c-0.7,0.8-1.1,1.7-1.3,2.8
		c-0.4,2.4-0.9,4.8-1.4,7.2c-0.2,1-0.4,2-0.5,3c0,0.6-0.1,1.5,0.6,1.8c1,0.4,2,0.6,3,0.7c1.3,0.1,2.5,0,3.8-0.1c1,0,2.5-1.2,2.8-2
		c0.1-0.5,0.4-1,0.7-1.4c1.1-1.4,2.3-2.8,3.4-4.2c0.2-0.3,0.4-0.8,0.4-1.2c0.1-1.4,0-2.9,0.1-4.3c0.3-2.4,0.7-4.8,1.2-7.1
		c0.8-3.5,2.2-6.8,3.7-10.1C195.8,168.3,196.5,167.2,197.1,165.9z M222.7,72.2c0-0.2,0-0.3,0-0.3c0.2-0.2,0.4-0.3,0.5-0.4
		c0.1-0.2,0.3-0.4,0.2-0.6c-0.5-1.7-1.3-3.2-2.8-4c-1.2-0.7-2.5-0.3-3.8-0.2c-0.4,0.1-0.7,0.3-1,0.4c-0.2,0.1-0.6,0.2-0.7,0.4
		c-0.1,0.2,0.1,0.6,0.3,0.7c1.7,1.6,2.7,3.6,3.5,5.7c0.7,1.8,1.6,3.6,3,5.1c1.7,1.7,3.6,3,6.1,2.8c0.6,0,1.1-0.2,1.7-0.3
		c0,0.1,0.1,0.1,0.1,0.2c-0.5,0.2-1,0.6-1.5,0.7c-0.9,0.1-1.1,0.6-1.3,1.3c-0.2,1.1-0.3,2,0.7,2.8c1.9,1.6,3.8,3.1,6,4.1
		c1.4,0.6,2.8,1.1,4.2,1.7c0.1-0.3,0.2-0.5,0.3-0.6c0.8-2.7,1.5-5.4,2.3-8.1c0.1-0.5-0.2-1-0.1-1.5c0.4-1.8,0.4-3.7,1.3-5.4
		c0.1-0.1,0.1-0.3,0.1-0.4c0-0.5,0-1.1,0.1-1.6c0.2-0.9,0.4-1.9,0.6-2.8c1.1-3.4,2.1-6.7,3.2-10.1c0.8-2.2,1.8-4.4,2.6-6.6
		c0.5-1.3,0.1-1.9-1.1-2.3c-1.7-0.6-3.5,0.1-4.9,1.8c-1.6,1.9-2.6,4-3.6,6.3c-0.4,1-0.8,2-1.2,3c-0.1-0.4-0.1-0.7-0.1-1
		c0.2-1.3,0.4-2.5,0.5-3.8c0.3-2.2,0.7-4.4,1.7-6.5c0.5-1,0.9-2.2,1-3.3c0.2-1.8-0.3-2.6-1.8-2.7c-0.6,0-1.2,0.1-1.7,0.3
		c-3.1,1.7-4.5,4.5-4.6,7.9c-0.1,2.1,0,4.2,0,6.2c0,0.3,0,0.5,0,0.8c-0.1,0-0.2,0-0.3,0c-0.1-1.4-0.2-2.7-0.4-4.1
		c0-0.4-0.2-0.9-0.5-1.1c-1.3-0.8-2.7-1.6-4-2.4c-1.7-1-3.3-1.2-5,0.1c-0.6,0.5-1.1,1-1.5,1.5c-1.6,2.3-3.5,4.3-6,5.7
		c-0.5,0.3-0.5,0.6-0.3,1c1.4,3,5.7,3.6,7.9,1.1c1.2-1.3,2-2.8,2.6-4.5c0.1-0.4,0.3-0.7,0.4-1.1c0.3,0.3,0.3,0.5,0.4,0.7
		c0.2,0.4,0.4,0.9,0.7,1.2c1,0.9,2.1,1.8,3.1,2.7c0.2,0.2,0.5,0.6,0.5,0.9c-0.1,0.9-0.2,1.9-0.5,2.7c-0.8,1.7-2,3-3.6,4
		c-0.2,0.1-0.4,0.3-0.7,0.5c3.2,1,3.4,1.1,3.7,1.9C227.4,71.3,225,71.7,222.7,72.2z M207.5,95.9c0.3,1,0.5,1.8,0.8,2.6
		c1.2,3.9,2.5,7.8,3.6,11.7c0.7,2.5,1.2,5.2,1.8,7.7c0.1,0.5,0.2,0.9,0.8,0.8c3.5-0.6,6.9-1,10.4-1.7c2.8-0.6,5.4-1.7,7.2-4.1
		c1.2-1.6,2.4-3.1,3.4-4.8c2.6-4.2,4.8-8.6,6.7-13.2c0.1-0.2,0.2-0.5,0.3-0.9c-3.8,0.1-7.1-1.1-10.1-2.9c-3-1.8-5.7-4.1-8.2-6.7
		c-0.1,0.2-0.2,0.3-0.2,0.4c-1.1,3.5-2.9,6.6-4.8,9.7c-0.4,0.7-0.9,1.3-1.8,1.3c-2.8,0.1-5.6,0.1-8.5,0.2
		C208.4,96,208,95.9,207.5,95.9z M136.9,103.4c-0.1,0.1-0.2,0.2-0.2,0.2c-2-0.3-3.9-1-5.6-2.2c-0.2-0.1-0.6-0.2-0.7-0.1
		c-0.2,0.3-0.5,0.6-0.5,0.9c0,0.4,0.2,0.9,0.2,1.4c0.1,0.4,0.2,0.6,0.6,0.4c0.4-0.1,0.8-0.4,1.2-0.5c2.1-0.5,4,0.1,5.8,1.1
		c2.1,1.2,3.8,2.8,5.5,4.4c1,1,2.3,1,3.4,1.4c0.7,0.3,1.5,0.2,2.2,0.3c0.6,0.1,1.2,0.4,1.8,0.5c1.7,0.3,3.4,0.6,5.2,0.7
		c0.9,0.1,1.8,0.5,2.7-0.3c0.1-0.1,0.6-0.1,0.8,0c0.1,0,0.1,0.4,0.2,0.7c0.5,0,1.1,0,1.7,0c0.3,0,0.8,0.1,0.8-0.5
		c0-0.1,0.3-0.3,0.5-0.3c0.2,0,0.4,0.2,0.4,0.3c-0.1,0.7,0.4,0.6,0.8,0.6c1.5,0,3.1,0,4.6,0c0.2-1.8,0.9-3.3,0.5-5
		c0-0.1,0.1-0.3,0.1-0.4c0.1-0.3,0.2-0.7,0.4-1c0.4-1.1,0.7-2.1,1.1-3.2c0.1-0.3,0.2-0.5,0.4-0.9c-0.3,0-0.5,0-0.7,0
		c-0.8,0.2-1.7,0.4-2.5,0.5c-2,0.2-4.1,0.4-6.1,0.5c-3.7,0.1-7.5,0.1-11.2-0.5c-4.4-0.7-8.8-1.7-13-3.3c-1-0.4-2-0.9-3-1.4
		c-0.2-0.1-0.4-0.4-0.6-0.7c0.2-0.2,0.4-0.3,0.6-0.5c0.1,0,0.1-0.1,0.2-0.1c-0.1-0.6-0.2-1.2-0.1-1.8c0-0.6-0.2-0.7-0.7-0.4
		c-1.6,1-3.2,2-2.7,4.2c0,0.1,0,0.3,0,0.4c-0.4,1.1,0.3,1.7,1.1,2.2c0.3,0.2,0.7,0.4,1,0.5C134.4,102.4,135.6,102.9,136.9,103.4z
		 M188.6,103.5c0.1,0.3,0.2,0.5,0.2,0.6c0.1,1.5,0.3,3,0.4,4.6c0.1,0.9,0.3,1.2,1.2,0.9c1.2-0.4,2.4-0.5,3.4-1.3
		c1.1-0.8,1.7-1.6,1.3-2.9c-0.6-2-1.1-4.1-1.8-6.1c-0.5-1.3-1.4-2.6-2.3-3.8c-0.3-0.4-1.1-0.8-1.5-0.7c-1,0.4-2,1-2.6,1.8
		c-0.6,0.7-1,1.1-1.9,1c-0.2,0-0.4,0.1-0.5,0.1c-1.1,0.4-2.1,0.8-3.2,1.2c-0.5,0.2-0.6,0.4-0.5,0.9c0.1,0.4,0.1,0.9,0.1,1.2
		c-1.8-0.1-3.5-0.3-5.2-0.3c-2.5,0-4.1,1.4-4.9,3.3c-0.7,1.7-1,3.6-1.3,5.5c-0.4,2.3-0.5,4.6-0.9,6.8c-0.3,1.4-0.9,2.7-1.4,4.2
		c0.4-0.1,0.9-0.1,1.3-0.3c1.2-0.6,2.4-1.4,3.6-2c2.7-1.5,4.8-3.7,7-5.7c0.7-0.7,1.3-1.8,0.7-2.6c-0.2,0.1-0.3,0.1-0.5,0.2
		c-0.6,0.5-1.1,1.1-1.7,1.4c-1.4,0.6-2.9,1.1-4.4,1.6c-0.5,0.2-0.8-0.1-0.7-0.6c0.2-1,0.3-2.1,0.6-3.1c0.6-1.7,0.8-3.5,2.1-4.9
		c0.6-0.7,1.3-0.9,2.1-0.8c0.8,0.1,1.6,0.5,2.5,0.7c0.4,0.1,0.9,0.1,1.5,0.2c0,0.1,0.1,0.4,0.1,0.7c0.1,2.1-0.1,4.1-0.7,6.2
		c-0.2,0.8,0,1.4,0.6,1.4c0.9,0,1.9-0.1,2.7-0.4c0.9-0.3,1.7-0.7,2.6-1.2c1.2-0.6,2-1.4,1.9-2.8c0-0.2,0-0.4,0-0.6
		C188.6,106.5,188.6,105,188.6,103.5z M184.7,202.6c2.1,0.1,4,0.2,5.8,0.2c2.6-0.1,5.2-0.3,7.7-0.6c4.1-0.5,8.1-1.5,11.9-3.1
		c0.6-0.2,0.8-0.6,0.8-1.2c-0.1-1.7-0.5-3.3-1.2-4.9c-1-2.3-2.9-3.8-5.3-4.3c-5-0.8-9.4,0.7-13.2,3.9c-1.7,1.5-3.1,3.2-4.3,5.2
		C186.2,199.3,185.6,200.9,184.7,202.6z M131.6,202.1c0.3,0.3,0.3,0.3,1.3,0.1c0.5-0.1,0.6-0.3,0.4-0.7c-0.4-0.7-0.8-1.4-1.2-2.2
		c-1.1-2-2.8-3.4-4.8-4.5c-2.8-1.6-5.9-2.1-9.2-2c-1.5,0-2.8,0.5-4,1.3c-2.6,1.7-4,4.3-5.1,7.2c-0.2,0.5-0.1,0.7,0.5,0.8
		c3.3,0.7,6.6,1.1,9.9,1.1c3.7-0.1,7.3-0.4,10.9-0.6C130.8,202.6,131.2,202.3,131.6,202.1z M195.9,92.5c1.1,1.4,2.3,2.6,3.3,4
		c0.6,0.9,1,2.1,1.4,3.1c0.3,0.6,0.9,0.9,1.4,0.5c0.6-0.4,1.2-0.8,1.7-1.3c0.5-0.5,1-0.6,1.6-0.4c0.3,0.1,0.8,0.1,0.9-0.1
		c0.2-0.2,0.4-0.7,0.3-1c-0.1-0.7-0.4-1.3-0.6-1.9c-0.6-1.7-1.2-3.3-1.7-5c-0.3-1-2-2.3-3.3-1.6c-0.1-0.8-0.2-1.5-0.1-2.1
		c0-0.8-0.4-1.3-1-1.6c-0.7-0.4-1.5-0.8-2.2-1.2c-0.8-0.4-1-0.4-1.5,0.2c0.4,0.5,0.8,1,1.2,1.4c0.4,0.5,0.8,0.8,1.5,0.5
		c0.1-0.1,0.4,0,0.5,0.1c0.1,0.1,0.1,0.4,0,0.5c-0.7,1.2-1.2,2.6-2.2,3.5C196.3,90.8,195.9,91.5,195.9,92.5
		C195.9,92.5,195.9,92.5,195.9,92.5z M205.7,109c0-0.1,0-0.2,0-0.2c-1.9-1.2-3.2-3-4.1-5.1c-0.8-1.8-1.5-3.7-2.4-5.5
		c-0.7-1.4-1.5-2.8-2.5-3.9c-1.5-1.6-2.9-2-4.6-1c-0.2,0.1-0.4,0.3-0.6,0.5c-0.6,0.4-0.6,0.7-0.2,1.3c0.6,0.8,1.2,1.7,1.8,2.5
		c0.3,0.4,0.6,0.9,0.9,1.4c0.4-0.3,0.7-0.5,1-0.7c0.3-0.1,0.7-0.2,0.8-0.1c0.4,0.4,0.9,0.8,1.1,1.3c0.7,1.5,1.4,3,1.3,4.8
		c0,0.1,0.2,0.3,0.3,0.4c0.1,0.1,0.2,0.3,0.3,0.5c0,0.1-0.1,0.2-0.1,0.3c-0.5-0.1-1-0.1-1.5-0.2c-0.3-0.1-0.6-0.3-0.9-0.4
		c-0.2,0-0.5,0-0.6,0.1c-0.4,0.6,0.1,2.6,0.8,3c0.8,0.5,1.7,1,2.7,1.2c1,0.2,1.8,0.9,2.9,0.6C203.5,109.4,204.6,109.2,205.7,109z
		 M222.2,66c0.7,1.1,1.4,2.3,2,3.5c0.3,0.6,0.6,0.7,1.1,0.4c1.4-0.9,2.5-2,3.3-3.3c1-1.7,0.9-2.3-0.5-3.5c-0.7-0.6-1.4-1.2-2.2-1.8
		c-0.6,1-1.1,1.9-1.7,2.7C223.7,64.7,222.9,65.4,222.2,66z M117.4,117.3c2.5-2.6,4.9-5.1,7.4-7.7c-1.5,0.6-2.8,1.2-4.1,1.7
		c-0.2,0.1-0.4,0.2-0.5,0.4c-1.4,1.4-2.8,2.7-4.7,3.4c-0.2,0.1-0.4,0.3-0.6,0.4c0,0.1,0.1,0.1,0.1,0.2c0.5,0,1.2-0.2,1.6,0.1
		C117,116,117.1,116.7,117.4,117.3z"/>
	<path d="M197.6,126.2c-0.3,1-0.6,2.3-1,3.6c-0.1,0.2-0.5,0.6-0.7,0.6c-0.2,0-0.6-0.4-0.6-0.7c-0.5-2.1-0.4-4.1,0.5-6
		c0.1-0.3,0.6-0.6,0.8-0.6c0.2,0,0.5,0.5,0.6,0.8C197.3,124.5,197.4,125.2,197.6,126.2z"/>
	<path d="M197.8,144.6c-0.4,1.5-0.8,3-1.4,4.5c-0.1,0.3-0.6,0.5-0.9,0.7c-0.2-0.3-0.5-0.6-0.6-0.9c-0.3-2,0-3.9,1-5.7
		c0.2-0.3,0.5-0.6,0.8-0.6c0.2,0,0.5,0.4,0.6,0.7c0.2,0.4,0.2,0.8,0.3,1.2C197.7,144.6,197.8,144.6,197.8,144.6z"/>
	<path d="M178.1,129.1c-0.3,1.1-0.5,2.3-0.9,3.4c-0.1,0.3-0.5,0.5-0.8,0.7c-0.2-0.3-0.6-0.5-0.7-0.8c-0.5-1.9-0.3-3.7,0.4-5.5
		c0.1-0.2,0.2-0.4,0.3-0.6c0.5-0.5,1-0.5,1.2,0.2C177.8,127.3,177.9,128.2,178.1,129.1z"/>
	<path d="M172.2,151.6c0-1.5,0.4-3.1,1.1-4.5c0.1-0.2,0.3-0.5,0.4-0.6c0.5-0.5,0.8-0.4,1.1,0.2c0.1,0.1,0.1,0.3,0.1,0.4
		c0.2,2.1-0.2,4-1.3,5.8c-0.2,0.3-0.6,0.5-0.9,0.5c-0.2-0.1-0.4-0.5-0.5-0.9C172.1,152.3,172.2,152,172.2,151.6z"/>
	<path d="M145.1,56.6c0-1,0-1.9,0-2.9c0-0.3,0.2-0.6,0.3-0.8c1.5-1.5,3.1-2.9,4.7-4.3c0.1,0,0.1-0.1,0.2-0.1c0.5,0.8,0.5,1.8,0,2.4
		c-1.6,1.9-3.3,3.7-5,5.5C145.3,56.5,145.2,56.5,145.1,56.6z"/>
	<path d="M188,90.9c-0.9,2.4-2.4,4.4-5,5.2c-2.4,0.7-4.7,0.6-7.1,0C183.3,95.6,184.2,95.2,188,90.9z"/>
	<path d="M148.3,61.6c0.8-0.4,1.5-0.8,2.2-1.3c0.7-0.4,1.4-0.9,2-1.4c0.6-0.5,0.9-1.1,0.6-1.9c-0.2-0.5-0.2-1-0.4-1.6
		c1.2,0.8,1.6,2.5,0.8,3.6c-1.2,1.7-3.1,2.4-5.1,2.7C148.4,61.8,148.4,61.7,148.3,61.6z"/>
	<path d="M235.4,72c-2.3,2.8-2.8,6-2.2,9.6C231.5,78.4,232.3,74.1,235.4,72z"/>
	<path d="M181,104c-0.1-0.8-0.2-1.5-0.2-2.3c0.1,0,0.1,0,0.2,0c0.1,0.8,0.3,1.5,0.4,2.3C181.3,104,181.2,104,181,104z"/>
	<path d="M164,52.8c-0.7,0.9-1.6,1.4-2.6,1.6c-1.3,0.3-1.9-0.2-2.3-1.3c0.7,0.2,1.4,0.5,2.1,0.5c0.5,0,1.1-0.3,1.6-0.4
		C163.2,53,163.6,52.8,164,52.8C163.9,52.7,164,52.7,164,52.8z"/>
</g>
<g>
	<path d="M121.7,105.7c0,0,0-0.1,0-0.1c0.5-0.9,1.1-1.8,1.6-2.8c0.1-0.2,0.3-0.4,0.2-0.7c-0.7-2-1.3-4-2-5.9
		c-0.7-2.3-1.5-4.5-2.2-6.8c-0.7-2.2-1.5-4.4-2.2-6.6c-0.8-2.4-1.6-4.7-2.3-7.1c-0.1-0.4-0.3-0.8-0.3-1.2c0-2.6,0-5.3,0-7.9
		c0-0.5,0.1-0.9,0.3-1.3c0.1-0.1,0.1-0.2,0.2-0.3c0.2-0.4,0.4-0.8,0.6-1.2c0.2-0.3,0.3-0.7,0.5-1h-12.6c0.1,0.1,0.1,0.2,0.2,0.3
		c0.5,0.9,1,1.7,1.4,2.6c0.1,0.1,0.2,0.3,0.2,0.5c0,2.9,0,5.8,0,8.7c0,0.1,0,0.2,0,0.2c-0.1,0.5-0.3,0.9-0.4,1.4
		c-0.4,1.3-0.8,2.7-1.2,4c0-0.1-0.1-0.1-0.1-0.2c-0.6-0.9-1.2-1.8-1.9-2.5c-0.4-0.5-0.8-0.9-1.3-1.3c-0.4-0.4-0.8-0.7-1.3-1
		c-0.9-0.7-1.9-1-2.8-1.6c-0.6-0.4-1.2-0.8-1.7-1.2c-0.7-0.7-1.3-1.4-1.7-2.3c-0.3-0.6-0.4-1.2-0.4-1.9c0-7.8,0-15.7,0-23.5
		c0-0.2,0-0.3,0.1-0.5c0.2-0.4,0.4-0.8,0.6-1.1c0.2-0.4,0.4-0.8,0.6-1.1H78.4c0.3,0.3,0.5,0.6,0.8,0.9c0.5,0.5,1.1,1.1,1.6,1.6
		c0.1,0.1,0.2,0.3,0.2,0.5c0,7.7,0,15.5,0,23.2c0,0.6-0.1,1.3-0.3,1.9c-0.3,0.8-0.7,1.5-1.2,2.2c-0.3,0.5-0.7,0.9-1.1,1.4
		c0-0.1,0-0.1,0-0.2c0-4.1,0-8.2,0-12.3c0-0.1,0-0.2,0.1-0.3c0.4-0.8,0.8-1.6,1.2-2.4c0-0.1,0.1-0.1,0.1-0.2H65.6
		c0.1,0.1,0.1,0.2,0.1,0.2c0.7,0.9,1.3,1.8,2,2.7c0.1,0.1,0.1,0.2,0.1,0.3c0,2.3,0,4.6,0,6.9V69h-0.2c-6,0-12.1,0-18.1,0
		c-0.1,0-0.2,0-0.3-0.2c-0.4-0.7-0.9-1.4-1.3-2.2c-0.8-1.2-1.5-2.5-2.3-3.7c-1-1.7-2.1-3.4-3.1-5c0-0.1,0-0.2,0-0.2
		c0.1-0.3,0.1-0.6,0.1-0.9c-0.2-0.8-0.9-1.3-1.7-1.2c-0.7,0.1-1.2,0.5-1.4,1.2c-0.2,0.8,0.2,1.7,1,2c0.2,0,0.3,0.1,0.3,0.3
		c0.6,0.9,1.2,1.9,1.8,2.8c0.5,0.9,1.1,1.7,1.6,2.6c0.7,1.1,1.4,2.2,2,3.3c0.3,0.4,0.5,0.9,0.8,1.3h-3.4c0,0.1,0.1,0.1,0.1,0.1
		c0.6,0.5,1.3,1,1.9,1.5c0.2,0.2,0.5,0.3,0.5,0.7c0,10.6,0,21.2,0,31.9c0,0.8,0.2,1.4,0.8,2c0.2,0.2,0.4,0.4,0.4,0.8
		c0.1,0.1,0.2,0.3,0.3,0.4c0.4,0.2,0.7,0.5,1,0.9h72.4C121.2,106.7,121.4,106.1,121.7,105.7z M115.9,81.7c0.3,0.9,0.5,1.7,0.8,2.6
		c0.4,1.2,0.8,2.5,1.2,3.7c0.3,0.9,0.5,1.8,0.8,2.6c0.5,1.5,1,3.1,1.5,4.6c0.4,1.2,0.7,2.3,1.1,3.5c0.5,1.5,0.9,3,1.4,4.5
		c0,0,0,0,0,0.1h-20.1c0.2-0.3,0.4-0.7,0.6-1.1c0,0,0-0.1,0.1-0.1c0.1-0.4,0.4-0.5,0.8-0.5c0.8,0,1.6,0,2.4,0h0.2
		c0-0.3,0.1-0.7,0.1-1c0.1-0.6,0.1-1.2,0.2-1.7c0-0.4,0.1-0.8,0.1-1.2c0.1-0.6,0.1-1.2,0.2-1.8c0-0.4,0.1-0.7,0.1-1.1
		c0.1-0.6,0.1-1.3,0.2-1.9c0-0.4,0.1-0.8,0.1-1.2c0.1-0.6,0.1-1.1,0.2-1.7c0-0.2,0-0.4,0-0.6c0.1-0.6,0.1-1.3,0.2-1.9
		c0-0.4,0.1-0.8,0.1-1.2c0.1-0.6,0.1-1.1,0.2-1.7c0-0.4,0.1-0.8,0.1-1.1c0.1-0.6,0.1-1.2,0.2-1.9c0-0.4,0.1-0.8,0.1-1.2
		c0.1-0.6,0.1-1.2,0.2-1.8c0-0.4,0.1-0.7,0.1-1.1c0.1-0.6,0.1-1.3,0.2-1.9c0-0.2,0-0.4,0.1-0.7h0.9c0,0.3,0,0.5,0,0.8
		c0,0.3-0.1,0.6-0.1,0.9c0,0.3,0,0.6,0,0.9c-0.1,0.8-0.1,1.7-0.2,2.5c0,0.3,0,0.5,0,0.8c0,0.6-0.1,1.2-0.1,1.8
		c0,0.7-0.1,1.4-0.1,2.2c0,0.4-0.1,0.9-0.1,1.3c0,0.7-0.1,1.4-0.1,2.1c0,0.7-0.1,1.4-0.1,2.1c0,0.7-0.1,1.4-0.1,2
		c0,0.7-0.1,1.4-0.1,2.1c0,0.7-0.1,1.3-0.1,2c0,0.7-0.1,1.4-0.1,2.1c0,0.7-0.1,1.4-0.1,2c0,0.4-0.1,0.8-0.1,1.2h12
		c-0.2-0.5-0.3-1.1-0.5-1.6c-0.3-1.1-0.6-2.1-1-3.2c-0.3-0.8-0.5-1.7-0.8-2.5c-0.4-1.2-0.7-2.4-1.1-3.7c-0.3-0.9-0.6-1.8-0.8-2.7
		c-0.4-1.2-0.7-2.4-1.1-3.6c-0.2-0.8-0.5-1.6-0.7-2.3c-0.5-1.6-1-3.2-1.5-4.8c-0.2-0.6-0.4-1.2-0.5-1.8c0-0.1,0-0.2,0.1-0.2
		c0.4-0.2,0.9-0.4,1.4-0.6c0.1,0.3,0.2,0.6,0.3,0.8c0.2,0.6,0.4,1.1,0.5,1.7C114.9,78.7,115.4,80.2,115.9,81.7z M114,63.8
		c-0.2,0.3-0.3,0.6-0.4,1c-0.1,0.1-0.1,0.3-0.1,0.4c0,2.9,0,5.7,0,8.6V74h-1.7v-8.8h-2V74h-0.8v-8.8h-1.1V74h-1.5v-0.4
		c0-2.7,0-5.5,0-8.2c0-0.1,0-0.2-0.1-0.3c-0.3-0.4-0.5-0.8-0.8-1.2H114z M104.9,82.8c0.2-1,0.5-2.1,0.7-3.1c0.3-1.4,0.6-2.8,0.9-4.2
		c0-0.1,0-0.2,0.1-0.3h1.1c-0.5,3.7-1.1,7.5-1.6,11.2l-0.1,0c-0.1-0.3-0.2-0.5-0.3-0.8c-0.3-0.7-0.6-1.5-0.8-2.2
		C104.9,83.1,104.8,82.9,104.9,82.8z M76.6,60.8c0.2-0.4,0.4-0.8,0.5-1.1c0-0.1,0.1-0.1,0.2-0.1c0.4,0,0.8,0,1.2,0
		c-0.1,0.2-0.2,0.3-0.2,0.5c-0.2,0.4-0.5,0.9-0.7,1.3c0,0.1,0,0.2,0,0.3c0,4.3,0,8.5,0,12.8c0,0.2-0.1,0.4-0.3,0.5
		c-0.3,0.1-0.6,0.3-1,0.5v-0.3c0-4.5,0-9,0-13.5C76.4,61.3,76.5,61,76.6,60.8z M77.4,75.9c0.7-0.6,1.5-1,2.2-1.7
		c0.8-0.9,1.4-2,1.7-3.2c0.2-0.6,0.2-1.2,0.2-1.8c0-0.7,0-1.4,0-2.2c0-4.7,0-9.5,0-14.2c0-2.8,0-5.5,0-8.3c0-0.1,0-0.2-0.1-0.3
		c-0.4-0.3-0.7-0.7-1.1-1c0,0-0.1-0.1-0.2-0.2h11.9c-0.2,0.3-0.3,0.5-0.5,0.8c-0.2,0.3-0.3,0.6-0.3,1c0,7.7,0,15.4,0,23.1
		c0,0.8,0.1,1.6,0.4,2.4c0.3,0.9,0.7,1.7,1.3,2.4c0.5,0.6,1.1,1.1,1.8,1.5c0.7,0.5,1.4,0.9,2.1,1.4c0.7,0.5,1.3,1,1.9,1.6
		c0.6,0.5,1.1,1,1.7,1.6c1,1.1,2,2.4,2.8,3.7c0.7,1.1,1.2,2.3,1.6,3.5c0.3,0.8,0.5,1.6,0.6,2.5c0,0.2,0.1,0.3,0.1,0.5h-2.5
		c-0.1-0.4-0.2-0.9-0.3-1.3c-0.4-1.6-0.9-3.2-1.7-4.7c-0.5-0.9-1-1.8-1.7-2.5c-0.2-0.3-0.5-0.6-0.7-0.8c-0.6-0.5-1.1-1-1.7-1.5
		c-0.6-0.5-1.3-1-2-1.5c-0.7-0.6-1.5-1.1-2.1-1.8c-0.9-0.8-1.7-1.6-2.3-2.6c-0.4-0.7-0.7-1.4-0.8-2.2c0-0.2,0-0.5,0-0.7
		c0-8.3,0-16.5,0-24.8v-0.3h-2.5v28.7h-2.7V44.4h-1.2v12.9c0,3.4,0,6.8,0,10.2c0,0.6,0,1.3,0,1.9c0,0.5,0,1,0,1.6
		c0,0.8-0.1,1.6-0.5,2.3c-0.3,0.5-0.6,0.9-0.9,1.4c-0.4,0.5-0.8,0.9-1.2,1.4c-0.5,0.5-1.1,0.9-1.7,1.4c-0.4,0.4-0.9,0.7-1.3,1.1
		c-0.4,0.3-0.8,0.7-1.1,1.1c-0.4,0.4-0.7,0.9-1,1.3c-0.8,1.1-1.5,2.3-2.1,3.6c-0.6,1.2-1.1,2.5-1.5,3.8c-0.1,0.3-0.1,0.6-0.2,1
		c0,0.1,0,0.1-0.1,0.2l0,0v-5.2c0-0.5,0-1,0-1.5c0-0.3,0.1-0.6,0.3-0.9c0.5-0.7,1-1.3,1.5-2c0.1-0.2,0.3-0.3,0.5-0.5
		c0.4-0.5,0.9-1,1.4-1.4C75.9,77.1,76.6,76.5,77.4,75.9z M82.2,88.4h-7c0.1-0.3,0.1-0.5,0.2-0.7c0.3-1,0.5-2,0.9-3
		c0.3-0.8,0.6-1.6,0.9-2.4c0.5-1.1,1.1-2.2,1.8-3.2c0.3-0.5,0.7-1,1.1-1.4c0.4-0.5,0.9-0.9,1.3-1.3c0.3-0.3,0.6-0.5,0.9-0.7
		c0,0,0.1,0,0.1,0c1.5,0,3,0,4.5,0c0,0,0.1,0,0.1,0c-0.6,0.9-1.1,1.8-1.7,2.6c-0.3,0.5-0.6,1.1-0.9,1.6c-0.4,0.7-0.7,1.4-1,2.1
		c-0.5,1.1-0.9,2.2-1.1,3.4c-0.1,0.7-0.2,1.4-0.2,2C82.1,87.8,82.2,88.1,82.2,88.4z M102.8,90.1v1.4H72v-1.4H102.8z M93.1,78.9
		c0.4-0.3,0.9-0.4,1.3-0.4c0.6-0.1,1.2,0,1.8,0.2c0.4,0.1,0.8,0.4,1,0.8c0.1,0.3,0.1,0.6-0.2,0.9c-0.3,0.4-0.8,0.5-1.2,0.6
		c-0.3,0.1-0.6,0.1-0.8,0.1c-0.8,0-1.4-0.1-2-0.5C92.4,80.1,92.4,79.3,93.1,78.9z M67.1,59.4c0.3,0,0.5,0,0.7,0
		c0.1,0,0.1,0.1,0.2,0.2c0.3,0.6,0.6,1.1,0.9,1.7c0,0,0,0,0,0.1c-0.2,0-0.4,0-0.5,0c-0.1,0-0.1-0.1-0.2-0.1
		C67.8,60.7,67.5,60.1,67.1,59.4z M69.2,62.3V69h-0.6v-6.8H69.2z M40.8,56.7c0-0.3,0.2-0.5,0.5-0.5c0.3,0,0.5,0.2,0.5,0.5
		c0,0.2-0.1,0.5-0.5,0.4C41,57.1,40.8,57,40.8,56.7z M46.8,67c-0.5-0.8-1-1.6-1.5-2.4c-0.6-1-1.2-1.9-1.8-2.9
		c-0.6-1-1.3-2.1-1.9-3.1c0,0,0-0.1-0.1-0.2c0.3-0.2,0.5-0.3,0.8-0.5c2.2,3.7,4.5,7.4,6.7,11.1c-0.3,0-0.6,0-0.9,0
		c-0.1,0-0.1-0.1-0.2-0.2C47.6,68.3,47.2,67.6,46.8,67z M70.3,104.7H47.7v-0.8h2.5v-8.8h-3.7v-1.3h3.7v-3.9h-3.7v-1.3h3.7v-3.7h-3.7
		v-1.3h3.7v-3.9h-3.7v-1.3h3.7v-5h4.6v5c3.3,0,6.7,0,10,0c0,0,0.1,0,0.1,0v1.3c0,0-0.1,0-0.1,0c-3.3,0-6.7,0-10,0v3.9
		c3.3,0,6.7,0,10,0c0,0,0.1,0,0.1,0v1.3c-0.1,0-0.1,0-0.2,0c-3.3,0-6.6,0-9.9,0c0,0-0.1,0-0.1,0c0,1.2,0,2.5,0,3.7c3.3,0,6.7,0,10,0
		c0,0,0.1,0,0.1,0v1.3c0,0-0.1,0-0.1,0c-3.3,0-6.7,0-10,0v3.9c3.3,0,6.7,0,10,0c0,0,0.1,0,0.1,0v1.3c-0.1,0-0.1,0-0.2,0
		c-3.3,0-6.6,0-9.9,0c0,0-0.1,0-0.1,0l0,8.5v0.3h12.4V73.1h3.1V104.7z M70.2,61.3c-0.4-0.6-0.7-1.1-1.1-1.7h5.6
		c-0.3,0.6-0.6,1.2-0.8,1.8h-2.6c-0.3,0-0.5,0-0.8,0C70.4,61.4,70.3,61.3,70.2,61.3z M70.5,62.3h3.4v0.2c0,4.9,0,9.9,0,14.8
		c0,0.2,0,0.3-0.2,0.4c-0.8,0.8-1.6,1.5-2.4,2.3v-0.5c0-2.8,0-5.6,0-8.3c0-0.2,0.1-0.4,0.2-0.5c0.6-0.5,1.2-1,1.8-1.5
		c0,0,0.1-0.1,0.1-0.2h-3V62.3z M70.7,106.5c0.2-0.3,0.3-0.6,0.5-0.8c0.2-0.4,0.5-0.8,0.7-1.2c0.2-0.4,0.2-0.8,0.1-1.2
		c0-0.3-0.1-0.6-0.1-0.8c1.3,1.3,2.4,2.6,3.6,4H70.7z M76.5,102.7c-1,0-2,0-3,0c-0.3,0-0.5-0.1-0.8-0.3c-0.4-0.4-0.7-0.9-1-1.4
		c-0.1-0.2-0.2-0.5-0.2-0.8c0-2.7,0-5.4,0-8.1V92c0.6,4.1,2.5,7.6,5.2,10.7H76.5z M102,102.7c-1.3,0-2.6,0-3.9,0c0,0-0.1,0-0.1,0
		c0.5-0.6,1-1.1,1.5-1.7c0.5-0.6,1-1.2,1.4-1.8c0.9-1.4,1.6-2.8,2-4.4c0.1-0.5,0.2-1,0.2-1.6c0-0.5,0-0.9,0-1.4c0-0.3,0-0.5-0.1-0.8
		h2.3c0,0.6,0,1.3,0.1,1.9c0,0.9-0.1,1.8-0.2,2.8c-0.1,1-0.4,1.9-0.7,2.9c-0.4,1.1-0.9,2.1-1.6,3c-0.3,0.3-0.6,0.7-0.9,1
		C102.2,102.6,102.1,102.7,102,102.7z"/>
	<path d="M50.2,95.1c0-0.4,0-0.9,0-1.3c1.5,0,3,0,4.6,0c0,0.4,0,0.9,0,1.3C53.2,95.1,51.7,95.1,50.2,95.1z"/>
	<path d="M50.2,79.6c0-0.4,0-0.9,0-1.3c1.5,0,3,0,4.6,0c0,0.4,0,0.9,0,1.3C53.2,79.6,51.7,79.6,50.2,79.6z"/>
	<path d="M50.2,84.8c0-0.4,0-0.9,0-1.3c1.5,0,3,0,4.6,0c0,0.4,0,0.9,0,1.3C53.2,84.8,51.7,84.8,50.2,84.8z"/>
	<path d="M50.2,89.8c0-0.4,0-0.9,0-1.3c1.5,0,3,0,4.6,0c0,0.4,0,0.9,0,1.3C53.2,89.8,51.7,89.8,50.2,89.8z"/>
</g>
</svg>
