<?xml version="1.0" encoding="utf-8"?>
<!-- Generator: Adobe Illustrator 17.1.0, SVG Export Plug-In . SVG Version: 6.00 Build 0)  -->
<!DOCTYPE svg PUBLIC "-//W3C//DTD SVG 1.1//EN" "http://www.w3.org/Graphics/SVG/1.1/DTD/svg11.dtd">
<svg version="1.1" id="Layer_1" xmlns="http://www.w3.org/2000/svg" xmlns:xlink="http://www.w3.org/1999/xlink" x="0px" y="0px"
	 viewBox="0 0 288 216" enable-background="new 0 0 288 216" xml:space="preserve">
<g>
	<path d="M141.4,80.1c0.8-1,1.7-1.3,3-0.6c-0.3,0.1-0.6,0.2-0.8,0.3c1.2,1.5,2.5,3,3.7,4.5c0,0,0.1,0,0.1-0.1c-1-1.5-2.1-3-3.1-4.5
		c0.1-0.1,0.1-0.1,0.2-0.2c0.4,0.4,0.8,0.7,1.2,1.2c0.5-0.3,0.8-0.1,1.2,0.4c0.5,0.6,1.1,1.2,1.7,1.9c0-0.7,0-1.5,0-2.2
		c0.1-3.4,0.1-6.8,0.2-10.3c0-1.3,0.6-1.9,1.9-1.9c1.4-0.1,2.7,0.4,4,0.9c0.2,0.1,0.5,0.1,0.7,0.1c1.4-0.4,2.7-0.4,3.9,0.6
		c0.3,0.3,0.6,0.7,0.6,1.1c0,3.1-0.1,6.2-0.1,9.3c0,2.3,0,4.6-0.1,6.9c0,0.4,0.1,0.7,0.6,0.7c0.4,0,0.8,0.1,1.2,0.1
		c1.5,0,2.4,0.9,2.2,2.4c-0.1,0.7,0.1,1,0.7,1.2c1,0.4,1.4,1,1.3,2.1c-0.1,1.1,0,2.3,0,3.5c0,0.5-0.1,1-0.1,1.5c0.1,0,0.1,0,0.2,0.1
		c0.5-0.5,0.9-1.1,1.4-1.6c0.3-0.3,0.6-0.5,1-0.1c0.1,0.1,0.5,0,0.6,0c0.2-0.9,0.9-0.7,1.4-0.6c0.7,0.1,0.4,0.7,0.6,1
		c0,0,0,0.1,0.1,0.2c0.2-0.1,0.3-0.3,0.4-0.4c0.6-0.6,0.9-0.7,1.6-0.2c0.2,0.1,0.2,0.5,0.2,0.7c0,0.3,0,0.6-0.1,1.2
		c0.9-0.7,1.6-1.2,2.3-0.2c0.5,0.6,0.1,1.1-0.4,1.7c0.5,0.1,0.8,0.1,1.2,0.2c1,0.2,1.4,1.2,0.7,1.9c-0.5,0.6-0.4,0.8,0.4,1.1
		c0.8,0.3,1.8,0.5,1.8,1.7c0,0.2,0.4,0.3,0.7,0.5c0.8,0.5,1.9,0.8,2.3,1.5c0.8,1.6,2.3,2.3,3.3,3.6c0.3,0.4,0.6,0.9,0.7,1.4
		c0.2,0.8,0.3,1.5,0.8,2.2c0.6,0.8,0.6,1.8,0.5,2.7c0,0.6-0.1,1.2,0.1,1.8c1.1,4.1,0.3,7.8-2,11.2c-1.8,2.8-4.1,5.1-6.9,6.9
		c-2.6,1.7-5.4,3.1-8.3,4.1c-2,0.7-4,1.2-6,1.8c-0.3,0.1-0.6,0.5-0.9,0.7c-1,0.6-2.1,1.3-3.1,1.9c-0.4,0.2-0.5,0.4-0.5,0.9
		c0,3,0,5.9,0,8.9c0,1.4-0.8,2.3-2.4,2.5c-0.5,0.1-1,0.1-1.5,0c-1.3-0.1-2.6-0.2-3.8-0.4c-1.2-0.2-2.5-0.4-2.9-1.7
		c-0.3-0.7-0.1-1.6-0.1-2.4c0-1.9,0-3.9,0-5.8c0-1.1-0.1-1.1-1.1-1.5c-1.6-0.6-3.1-1.3-4.2-2.7c-0.1-0.2-0.5-0.3-0.7-0.4
		c-3-0.7-5.9-1.7-8.7-2.9c-2.3-1-4.4-2.4-6.3-4c-2.3-1.9-4.3-4.2-5.6-6.9c-0.7-1.5-1.2-3.1-1.4-4.8c0,0,0-0.1,0-0.1
		c0.1-1.6,0.3-3.3,0.4-4.9c0.1-0.9,0.1-1.8,0.3-2.7c0.1-0.4,0.4-0.8,0.6-1.2c0.1-0.1,0.1-0.2,0.1-0.4c0.3-0.9,0.4-1.9,0.9-2.6
		c0.6-0.8,1.1-1.5,1.5-2.4c0.3-0.7,0.7-1.6,1.8-1.5c0.3-0.5,0.5-1.1,0.8-1.5c0.3-0.4,0.8-0.7,1.3-1.1c0.2,0.1,0.4,0.2,0.6,0.3
		c0.1-0.1,0.1-0.2,0.2-0.3c0.3-0.5,0.6-0.9,0.8-1.4c0.1-0.3,0.1-0.7,0.1-1.1c-0.8,0.2-1.3,0.4-1.9,0.6c-0.5,0.2-0.9,0.1-1.3-0.3
		c-0.4-0.5-0.9-0.9-0.3-1.7c1-1.4,0.9-1.5-0.8-1.5c-0.6,0-1.1-0.5-1.2-1.2c-0.1-0.9,0-1.2,0.8-1.5c0.3-0.1,0.5-0.2,0.7-0.4
		c0.2-0.2,0.3-0.4,0.5-0.6c-0.2-0.2-0.4-0.4-0.7-0.5c-0.3-0.2-0.8-0.2-1-0.5c-0.2-0.2-0.4-0.6-0.4-0.9c0.1-1,0.6-1.7,1.7-2
		c0.4-0.1,0.7-0.5,0.9-0.9c0.1-0.1-0.3-0.6-0.5-0.8c-1.7-1.5-3.4-2.9-5.1-4.4c-2-1.7-4-3.5-6.1-5.3c-0.6-0.5-1.2-1-1.8-1.5
		c-0.5-0.4-0.5-0.8-0.4-1.3c0.2-1.2,1-2,2-2.6c0.4-0.3,0.6-0.6,0.6-1.1c0-1.3,1.3-3.7,3-3.8c0.9,0,1.7,0.2,2.4,0.8
		c1.1,1,2.2,1.9,3.4,2.9c2.1,1.7,4.2,3.5,6.3,5.2c0.7,0.6,1.5,1.1,2.3,1.7c0.1,0.1,0.4,0.1,0.6,0c0.4-0.3,0.7-0.6,1.2-0.9
		c0.3-0.2,0.7-0.3,1-0.2c1.1,0.2,1.3,0,1.6-1c0-0.1,0.2-0.3,0.3-0.4c1.1-0.9,2.1-0.8,3.1,0.1C141.2,79.9,141.3,80,141.4,80.1z
		 M141.6,106.6c-0.2,0.1-0.3,0.2-0.5,0.3c-0.5,0.2-1,0.4-1.5,0.6c0,0.1,0,0.1,0.1,0.2c0.6-0.2,1.2-0.4,1.8-0.7
		C141.5,106.9,141.5,106.7,141.6,106.6c0.1-0.1,0.3-0.2,0.4-0.2c1-0.3,1.9-0.6,2.9-0.9c0.6-0.2,1.3-0.4,1.9-0.6
		c-0.6-0.2-1.1-0.3-1.6-0.3c-1.6,0.2-3.2,0.4-4.8,0.6c-0.6,0.1-0.6,0.4-0.5,0.8c0.1,0.4,0.2,0.8,0.8,0.6
		C141,106.5,141.3,106.6,141.6,106.6z M173.5,117.2c-0.3,0.4-0.4,1-1,1.2c-0.1,0-0.1,0.3-0.2,0.5c-0.2,0.5-0.4,1-0.6,1.6
		c0,0,0.2,0.1,0.2,0.2c-0.3,0.2-0.6,0.4-0.7,0.6c-0.2,0.6-0.6,1-1,1.4c-0.2,0.2-0.2,0.5-0.3,0.7c-0.5,0.4-1.1,0.9-1.7,1.4
		c-0.2-0.2-0.4-0.4-0.5-0.6c-0.3,0.3-0.6,0.8-1,0.8c-0.5,0.1-1.1-0.1-1.7-0.1c0-0.2,0-0.4-0.1-0.6c-1,0.5-1.4,1.3-1.5,2.2
		c-0.7,0.2-1.3,0.4-1.8,0.6c0.2-0.7-0.5-0.7-0.9-1.1c-0.2,0.6-0.3,1.1-0.4,1.6c-0.1,0-0.4,0-0.5,0.1c-0.3,0.7-0.9,0.4-1.3,0.4
		c-0.5,0-1-0.4-1.4-0.6c-0.2-0.1-0.4-0.5-0.6-0.5c-0.2,0-0.4,0.3-0.6,0.5c-0.1,0.2-0.1,0.4-0.1,0.6c0,0-0.1-0.1-0.1-0.1
		c-0.3,0.2-0.5,0.4-0.9,0.7c-0.6-0.1-1.4-0.3-2.1-0.4c-0.1-0.3-0.2-0.5-0.3-0.8c-0.1,0-0.1,0-0.2,0.1c0,0.2,0,0.4,0,0.6
		c-0.9,0-1.8,0.1-2.6-0.5c-0.1-0.1-0.3,0-0.4,0c-0.6-0.2-1.4,0-1.9-0.7c-0.1,0.1-0.3,0.2-0.5,0.3c0-0.7-1.2-1.3-1.8-1.2
		c-0.3-0.3-0.5-0.5-0.7-0.7c-0.1-0.1,0-0.3,0-0.4c0-0.1,0.1-0.2,0.1-0.3c-0.2-0.5-0.5-1-1.1-1.1c-0.9-0.2-1.8-0.2-2.6-0.7
		c-0.1-0.1-0.5-0.1-0.8-0.2c-0.2,0-0.4,0-0.6,0c0,0,0-0.1,0-0.1c-0.2,0.1-0.3,0.2-0.4,0.2c-0.2-0.3-0.4-0.5-0.6-0.6
		c-0.5-0.2-1-0.3-1.5-0.6c-0.7-0.5-0.8-1.1-0.5-2.1c-0.4-0.2-0.8-0.3-1.1-0.4c-0.2-0.3-0.4-0.6-0.7-1c0-0.2,0.1-0.5,0.1-0.7
		c0.5-0.3,0.9-0.6,1.4-0.9c-0.5-0.2-0.8-0.3-1.2-0.5c0.1-0.8,0.2-1.6,0.3-2.3c0.5,0,0.8,0,1.3,0c-0.1-0.2-0.3-0.3-0.3-0.3
		c0-0.4,0.1-0.8-0.5-0.8c0-0.1,0-0.3,0.1-0.4c0-0.1,0.2-0.1,0.3-0.1c-0.2-0.1-0.4-0.2-0.4-0.1c-0.5,0.5-1,1-1.4,1.5
		c-0.1,0.1-0.1,0.3-0.2,0.4c-0.9,0.4-0.8,1.2-1,1.8c-1,1-1.1,2.2-1.3,3.4c0.2,0,0.4,0.1,0.5,0.1c-0.1,0.5-0.2,0.8-0.3,1.4
		c0.2,0.1,0.5,0.2,0.6,0.2c0.2,0.7,0.3,1.6,0.7,2c0.6,0.5,0.5,1.1,0.5,1.7c0.6,0.2,1.2,0.3,1.2,1.1c0,0.5,0,1,0.8,0.7
		c0.1,0,0.2,0.1,0.2,0.1c0.8,0.2,0.8,1,1.2,1.3c0.5,0.1,1,0.1,1.4,0.2c-0.1,0-0.3,0.1-0.4,0.1c0.2,0.4,0.4,0.8,0.6,1.3
		c0.3-0.2,0.6-0.3,0.8-0.4c0.3,0.1,0.6,0.1,0.9,0.2c-0.2,0.5,0.1,0.7,0.7,0.7c0.2,0,0.4,0,0.5,0c0.5,0.1,0.9,0.2,1,0.8
		c0,0.1,0.2,0.3,0.3,0.3c0.2,0,0.5-0.1,0.7-0.2c0.1,0,0.1-0.2,0.1-0.2c0.4,0.1,0.7,0.1,0.8,0.1c0.3,0.4,0.6,0.7,0.9,1.2
		c0.2-0.4,0.4-0.7,0.6-1c0.1,0.2,0.2,0.3,0.2,0.5c0.2-0.1,0.3-0.2,0.5-0.3c0.3,0.5,0.6,0.9,0.9,1.4c0.5-0.8,1.3-0.9,2.1-0.8
		c0.6,1,0.6,1,1.2,0.3c0.5,0.1,1,0,1.3,0.2c0.4,0.2,0.6,0.6,0.9,1c0.1,0,0.1,0,0.2,0c-0.1-1.1,1-0.7,1.4-1.3
		c0.1,0.1,0.2,0.3,0.2,0.4c0.2-0.1,0.4-0.2,0.6-0.2c0,0.3,0,0.5,0.1,0.7c0.2,0.3,0.5,0.5,0.8,0.8c0.3-0.5,0.2-1.3,1.1-1.5
		c0.2-0.1,0.5,0,0.7,0c0.5,0,1,0,1.3,0.5c0.1,0.2,0.4,0.4,0.7,0.7c0.2-0.6,0.3-1.1,0.4-1.6c0.6-0.1,1.1-0.3,1.7-0.4
		c0,0,0-0.1-0.1-0.1c0.3,0,0.6,0.1,0.9,0.2c0,0.6,0,0.6,0.7,0.7c0.3-0.7,0.5-1.4,0.8-2c0.1,0,0.1,0,0.2,0.1c0.1,0.1,0.1,0.2,0.1,0.2
		c0.5,0.1,0.9,0.1,1.3,0.1c0.1,0.2,0.2,0.4,0.3,0.6c0.2-0.2,0.2-0.5,0.3-0.6c0.6-0.7,1.2-1.3,1.8-1.8c0.4,0.1,0.7,0.1,1,0.2
		c0,0.1,0.1,0.2,0.2,0.5c0.2-0.7,0.4-1.3,0.6-1.9c0.5,0.1,1.2,0.1,1.8,0.2c0,0,0-0.1,0-0.1c-0.1-0.1-0.3-0.2-0.4-0.3
		c0.4-0.8,0.6-1.8,1.9-1.5c0-1.4,0.9-2.1,1.8-2.2c-0.2-0.3-0.3-0.6-0.4-0.9c0-0.1,0.1-0.2,0.2-0.3c0.4,0.3,0.4-0.1,0.5-0.2
		c0.2-0.2,0.4-0.4,0.6-0.6c-0.1-0.1-0.2-0.2-0.4-0.3c0-0.1,0-0.2,0-0.3c0.2,0.1,0.4,0.1,0.6,0.2c0-0.1,0-0.1,0-0.2
		c-0.2-0.1-0.3-0.3-0.3-0.3c0.4-0.4,0.9-0.8,1-1.2c0.2-0.6,0-1.3,0-1.9c0-0.1-0.1-0.3-0.2-0.3c-0.8-0.4,0.2-0.3,0.1-0.5
		c-0.1-0.2-0.2-0.4-0.2-0.6c0.3-0.7,0.3-1.3-0.2-2.1c-0.4,0.8-0.8,1.4-1.2,2.1c-0.4,0-0.8,0.5-0.8,1.1c-0.4,0.2-0.7,0.4-1.1,0.7
		C173.7,117.4,173.6,117.3,173.5,117.2z M149.6,71.4c-0.1,2.6-0.2,5.1-0.2,7.7c-0.1,4.6-0.1,9.2-0.2,13.8c0,0.8,0.3,1.3,0.8,1.7
		c2.1,1.7,5.8,1.6,7.9,0.4c0.6-0.4,0.9-0.8,0.9-1.6c0-4.5,0.1-8.9,0.2-13.4c0-2.7,0.1-5.4,0.1-8.1c0-1.4-0.3-1.7-1.6-1.6
		c-1.1,0.1-2.2,0.6-3.3,0.8c-0.7,0.2-1.5,0.4-2.2,0.5C151.3,71.7,150.5,71.5,149.6,71.4z M129.7,88c-0.2-0.5-0.3-0.9-0.4-1.3
		c0-0.1,0-0.2,0.1-0.3c0.8-1,1.5-2.1,3-1.9c0.2,0,0.7-0.2,0.7-0.3c0-0.3,0-0.8-0.2-1c-0.7-0.7-1.5-1.3-2.2-2c-1.2-1-2.4-2-3.6-2.9
		c-2.1-1.6-4.1-3.2-6.2-4.9c-0.1-0.1-0.3-0.2-0.3-0.2c-1.2,1-2.2,1.9-3.4,2.7c-1.2,0.9-2.4,1.7-3.1,3.1c-0.3,0.5-0.3,0.9,0.3,1.3
		c0.6,0.4,1.1,0.9,1.6,1.3c1.5,1.3,3,2.6,4.5,3.9c1,0.9,2,1.7,3,2.6c1,0.8,1.9,1.6,2.9,2.4c0.1-0.2,0.1-0.3,0-0.4
		c-0.2-0.9,0.2-1.6,1.1-1.8C128.2,88.3,128.9,88.2,129.7,88z M175,137.9c-0.2-0.4-0.4-0.7-0.6-1c-0.1-0.2-0.4-0.4-0.5-0.4
		c-0.2,0.1-0.5,0.3-0.6,0.6c-0.2,0.4-0.1,0.9-0.3,1.3c-0.2,0.4-0.6,0.6-1,0.9c-0.2-0.2-0.4-0.4-0.6-0.7c-0.1-0.1-0.1-0.2-0.2-0.3
		c-0.2-0.2-0.5-0.4-0.7-0.4c-0.3,0.1-0.6,0.3-0.7,0.6c-0.2,0.3-0.2,0.6-0.2,0.9c0.1,0.8-0.5,0.9-1.1,1c-0.6,0.1-0.6-0.3-0.8-0.6
		c-0.2-0.3-0.4-0.6-0.5-0.8c-0.9,0.1-1.4,0.5-1.5,1.3c0,0.1-0.1,0.3-0.1,0.4c0,0.6-0.5,0.7-0.8,0.7c-0.3,0-0.6-0.1-0.9-0.3
		c-0.7-0.5-1-1.6-2.3-1c-0.1,0.4-0.3,1-0.5,1.5c-0.1,0.2-0.4,0.4-0.6,0.5c-0.7,0.2-1.2,0-1.5-0.7c-0.1-0.2-0.2-0.5-0.4-0.6
		c-0.2-0.2-0.6-0.3-0.9-0.3c-0.2,0-0.4,0.3-0.5,0.5c-0.2,0.3-0.3,0.6-0.3,1c-0.1,0.5-0.4,0.6-0.8,0.5c-0.6,0-0.9-0.4-1.2-1
		c-0.2-0.4-0.3-0.9-1-1c-1-0.1-1.1,0.6-1.2,1.1c-0.1,0.4-0.3,0.6-0.8,0.6c-1.1,0-1.3-0.2-1.8-1.2c-0.1-0.3-0.5-0.5-0.8-0.6
		c-0.8-0.3-1,0.4-1.2,0.9c-0.2,0.4-0.2,0.8-0.8,0.6c-0.5-0.1-1.1,0-1.2-0.8c-0.2-1.2-0.6-1.4-1.7-1.3c-0.1,0.3-0.2,0.5-0.4,0.7
		c-0.2,0.3-0.5,0.7-0.6,0.7c-0.5-0.2-1.3,0-1.5-0.7c-0.2-0.5-0.3-0.9-0.5-1.3c-0.3-0.5-0.9-0.4-1.1,0c-0.1,0.2-0.1,0.5-0.3,0.8
		c-0.1,0.2-0.3,0.4-0.5,0.4c-0.7-0.1-1.2-0.6-1.3-1.3c0-0.2-0.1-0.4-0.1-0.6c0-0.5-0.3-0.7-0.7-0.7c-0.2,0-0.5,0.4-0.6,0.6
		c-0.2,0.7-0.5,0.7-1.1,0.5c-0.6-0.2-0.8-0.6-0.8-1.1c0-0.6-0.2-1.1-0.9-1.4c-0.1,0.3-0.3,0.7-0.4,1c-0.1,0.5-0.3,0.5-0.7,0.4
		c-0.6-0.1-0.7-0.6-0.7-1.1c-0.1-0.7,0.1-1.5-0.9-1.9c-0.1,0.4-0.1,0.8-0.2,1.1c-0.1,0.6-0.3,0.6-0.8,0.3c-0.5-0.3-0.4-0.7-0.4-1.1
		c0-0.7,0-1.4-0.8-1.8c-0.1,0.3-0.1,0.5-0.2,0.6c-0.1,0.3-0.2,0.5-0.3,0.8c-0.3-0.1-0.6-0.2-0.8-0.4c-0.2-0.2-0.1-0.5-0.2-0.8
		c0-0.7-0.1-1.4-0.7-2c-0.1,0.6-0.2,1.1-0.3,1.6c-0.9-0.3-1.1-0.7-1.1-1.5c0-0.6,0.1-1.3-0.3-1.9c-0.1,0.3-0.1,0.6-0.2,0.9
		c0,0.2-0.1,0.4-0.3,0.4c-0.1,0-0.3-0.1-0.5-0.2c-0.6-0.5-0.6-1.3-0.6-2c0-0.5,0-0.9,0-1.4c-0.3,0.2-0.6,0.4-1,0.7
		c0-1,0-1.7-0.1-2.4c0-0.2-0.1-0.4-0.3-0.6c-0.2-0.2-0.5-0.3-1-0.5c0.5,1.2,0.8,2.4,1.3,3.5c1,2.6,2.7,4.7,4.7,6.6
		c1.4,1.2,2.9,2.3,4.5,3.3c1,0.7,2.2,1.2,3.4,1.8c2.1,1,4.3,1.8,6.7,2.2c2.4,0.4,4.7,1.1,7,1.3c5.8,0.6,11.6,0.3,17.3-1.2
		c3.1-0.8,6.1-2.1,9-3.6c2.2-1.1,4.2-2.6,6-4.3c1.2-1.1,2.3-2.4,3.3-3.7c0.7-1,1.3-2.2,1.7-3.4c0.3-0.9,1-1.8,0-2.8
		c-0.5,0.7-0.4,1.4-0.5,2.2c-0.1,0.7-0.3,1.3-0.4,2c0,0.1-0.3,0.2-0.4,0.3c-0.1-0.1-0.2-0.3-0.2-0.4c-0.1-0.3-0.1-0.5-0.1-0.8
		c-0.1,0-0.2,0-0.2,0c-0.2,0.6-0.4,1.2-0.6,1.8c-0.1,0.3-0.1,0.7-0.2,1c-0.3,0.7-0.5,1.4-1.4,1.8c-0.2-0.5-0.3-0.8-0.5-1.4
		c-0.2,0.3-0.3,0.5-0.4,0.7c-0.3,0.9-0.5,1.8-0.8,2.6c-0.1,0.5-0.4,0.7-1,0.6c0-0.5-0.1-1-0.1-1.5c0.1,0,0.2,0,0.2,0
		c0.1,0.2,0.2,0.5,0.4,0.9c0.2-0.7,0.3-1.2,0.5-1.7c0.5-1.1,0.5-2.2,0-3.3c-0.9-2-1.7-4-2.5-6c-0.1-0.3-0.3-0.7-0.8-0.5
		c0,0.1,0,0.1,0,0.2c0.8,3.1,1.6,6.2,2.5,9.3c0.2,0.6,0,0.9-0.5,1c-0.6,0.1-0.7,0.5-0.7,1c-0.1,0.6-0.1,1.2-0.3,1.7
		c-0.1,0.3-0.3,0.4-0.5,0.7c-0.2-0.2-0.4-0.3-0.5-0.6c-0.2-0.4-0.3-0.8-0.4-1.1c-0.6,0.1-0.9,0.4-0.9,0.9c0,0.4,0,0.8,0,1.2
		C175.8,137.5,175.5,137.9,175,137.9z M163.2,89.6c-0.2-0.2-0.4-0.4-0.5-0.4c-0.8-0.1-1.6-0.2-2.5-0.2c-0.1,0-0.3,0.3-0.3,0.5
		c0,1.1-0.1,2.1,0,3.2c0.1,1.3-0.5,2.2-1.6,2.8c-2.4,1.3-5,1.3-7.5,0.2c-1.3-0.6-2.3-1.6-2.2-3.2c0.1-1,0.1-2,0-3
		c0-0.4-0.1-0.8-0.3-1.1c-0.1-0.2-0.3-0.2-0.5-0.3c-0.1,0.2-0.3,0.4-0.3,0.7c0,0.5,0.1,1.1,0.1,1.7c0,0.7-0.7,1.1-1.3,0.8
		c-0.3-0.2-0.6-0.3-0.9-0.5c-0.2-0.1-0.4,0-0.6,0c0,0.2,0,0.4,0.1,0.6c0.1,0.2,0.2,0.3,0.4,0.5c0.3,0.4,0.8,0.7,1,1.1
		c0.2,0.4,0.2,1,0.3,1.4c-0.3,0-0.7,0.1-1,0.1c-0.5,0-1.1,0-1.8,0c0.3,0.3,0.3,0.5,0.5,0.6c0.8,0.5,1.6,0.9,2.6,0.9
		c0.7,0,1,0.4,1.5,0.8c-0.4,0.3-0.8,0.6-1.2,0.9c-0.1,0.1-0.2,0.4-0.3,0.6c0.2,0.1,0.4,0.3,0.6,0.2c0.8-0.1,1.6-0.2,2.3-0.5
		c0.7-0.2,1.3,0,1.8,0.2c0.2,0.1,0.3,0.5,0.2,0.7c-0.1,0.4-0.3,0.8-0.5,1.4c0.5-0.1,0.8,0,1.1-0.2c0.6-0.3,1.1-0.6,1.6-1.1
		c0.6-0.6,1.3-0.5,2.1-0.5c0,0.4,0,0.8,0.1,1.1c0.1,0.3,0.3,0.6,0.5,0.7c0.2,0.1,0.6-0.1,0.7-0.3c0.3-0.4,0.6-0.9,0.8-1.4
		c0.4-1,1.3-1.2,2-0.4c0.2,0.2,0.4,0.4,0.6,0.6c0.4,0.3,0.8,0.1,0.9-0.4c0-0.5,0-1,0.1-1.5c0-0.4,0.2-0.7,0.4-1.2
		c0.5,0.4,0.9,0.6,1.2,0.9c0.4,0.3,0.7,0.6,1.2,0c-0.5-0.6-0.9-1.3-1.4-1.9c-0.4-0.4-0.6-0.8-0.3-1.2c0.2-0.2,0.7-0.2,1-0.2
		c0.5,0,1.1,0.1,1.6,0.2c0-0.1,0.1-0.2,0.1-0.3c-0.8-0.4-1.6-0.7-2.4-1.2c-0.4-0.2-0.8-0.5-1.1-0.8c-0.4-0.4-0.3-0.8,0.3-0.9
		C162.4,89.9,162.7,89.7,163.2,89.6z M149.8,146.8c0,0.2-0.1,0.4-0.1,0.6c0,2.6-0.1,5.1-0.1,7.7c0,1,0.6,1.6,1.6,1.9
		c1.4,0.4,2.7,0,3.9-0.6c1.1-0.5,2.1-1.2,3.5-0.7c0-3.1,0.1-6.1,0.1-9.2C155.7,147.1,152.9,147.4,149.8,146.8z M142.4,88.5
		c-1.1,0-1.5,0.4-1.5,1.6c0,0.8-0.1,1.6-1,1.9c-0.1,0-0.1,0.1-0.1,0.1c-0.3,0.6-0.8,0.5-1.2,0.3c-0.3-0.1-0.6-0.2-0.9-0.3
		c-0.3-0.2-0.5-0.2-0.7,0.1c-0.3,0.3-0.2,0.5,0.1,0.8c0.2,0.2,0.4,0.4,0.6,0.6c0.2,0.3,0.5,0.8,0.4,1c-0.4,0.7-0.8,1.5-1.9,1.4
		c-0.3-0.1-0.8,0-1.1,0.2c-0.3,0.1-0.4,0.5-0.6,0.8c0,0.1,0.3,0.3,0.5,0.4c0.3,0.2,0.7,0.3,1.1,0.4c0.1,0.1,0.3,0.1,0.3,0.3
		c0.3,0.8,0,1.4-0.7,1.7c-0.4,0.2-0.8,0.4-1,0.7c-0.2,0.2-0.1,0.6-0.1,0.9c0.4,0.1,1,0.3,1.3,0.1c0.5-0.4,0.9-0.3,1.4-0.1
		c0.4,0.2,0.6,0,0.7-0.3c0.1-0.7,0.3-1.3,0.3-2c-0.1-3,2.3-5.9,5-6.8c0.2-0.1,0.5-0.3,0.5-0.5c0.1-0.5,0.2-1,0.3-1.5
		c-0.1,0-0.3,0-0.4,0c-0.8,0.2-1,0-1-0.8C142.5,89.2,142.4,88.9,142.4,88.5z M150.8,116.5c-0.1,0.1-0.1,0.1-0.2,0.2
		c0.1,0.5,0.3,1,0.4,1.5c0,0.2,0,0.5-0.2,0.5c-0.2,0.1-0.5,0.2-0.7,0.1c-0.2,0-0.3-0.2-0.5-0.3c-0.2-0.1-0.4-0.1-0.7-0.1
		c0.1,0.2,0.2,0.4,0.3,0.6c0.1,0.3,0.3,0.7,0.3,1c-0.1,0.4-0.3,0.8-0.9,0.7c-0.4-0.1-0.9-0.1-1.2,0.5c0.2,0.1,0.4,0.3,0.6,0.3
		c0.5,0.1,0.5,0.4,0.5,0.8c0.1,0.8-0.5,0.9-1,1c-0.5,0.1-0.8,0.3-0.6,1c0.3,0,0.6,0,0.9-0.1c0.4,0,0.7,0.1,0.9,0.5
		c0.2,0.4,0.2,0.7-0.2,1c-0.3,0.2-0.6,0.6-0.1,1c0.5,0.4,0.7,0,0.9-0.3c0.2-0.2,0.5-0.4,0.7-0.4c0.4,0.1,0.8,0.2,0.8,0.8
		c0,0.2,0.2,0.5,0.3,0.7c0.3-0.2,0.6-0.3,0.7-0.6c0.2-0.5,0.4-1,0.5-1.5c-0.4-0.2-0.9-0.4-1.3-0.7c-0.9-0.9-0.9-2-0.4-3.1
		c0.7-1.3,1.7-2.4,3.5-1.4c0.2,0.1,0.3,0.2,0.5,0.2c0.6,0.2,1.4-0.3,1.6-0.9c-0.3,0-0.6,0-0.8,0c-0.5,0.1-0.9-0.1-1.1-0.6
		c-0.1-0.2,0.1-0.6,0.2-0.9c0.1-0.2,0.3-0.3,0.3-0.5c0-0.2,0-0.5-0.1-0.6c-0.1-0.1-0.4-0.1-0.6,0c-0.3,0.3-0.7,0.6-0.9,0.9
		c-0.4,0.4-1,0.5-1.4,0.1c-0.2-0.2-0.3-0.6-0.5-0.8C151.1,116.9,150.9,116.7,150.8,116.5z M156.1,108.5c0,0-0.1-0.1-0.1-0.1
		c-0.3,0.1-0.6,0.1-0.9,0.2c-0.3,0-0.5,0-0.8,0c0-0.3,0-0.7,0.1-1c0.1-0.3,0.3-0.6,0.4-0.9c0-0.1,0-0.4-0.1-0.5
		c-0.1-0.1-0.4,0-0.5,0.1c-0.2,0.3-0.4,0.6-0.6,0.9c-0.2,0.2-0.5,0.5-0.7,0.5c-0.2,0-0.5-0.4-0.6-0.6c-0.1-0.1-0.1-0.4-0.2-0.5
		c-0.1-0.1-0.3-0.2-0.4-0.3c-0.1,0.1-0.2,0.3-0.2,0.4c0,0.3,0.1,0.6,0,0.9c-0.1,0.4-0.2,0.8-0.5,1c-0.2,0.1-0.7,0.1-0.9,0
		c-0.4-0.2-0.8-0.2-1,0.1c-0.1,0.1,0.2,0.5,0.3,0.7c0.1,0.3,0.4,0.6,0.3,0.8c-0.2,0.4-0.3,1-1,1c-0.2,0-0.4,0-0.6,0
		c-0.2,0.1-0.3,0.3-0.5,0.4c0.2,0.1,0.3,0.2,0.5,0.3c0.2,0.1,0.7,0.2,0.7,0.4c0.1,0.5,0,1-0.5,1.2c-0.2,0.1-0.5,0.3-0.7,0.5
		c-0.1,0.2-0.2,0.4-0.2,0.6c0.2,0.1,0.4,0.1,0.6,0.1c0.1,0,0.2-0.1,0.3-0.1c0.4,0.1,0.9,0.2,1.2,0.5c0.1,0.1-0.1,0.6-0.2,1
		c0,0.1-0.2,0.3-0.2,0.4c0,0.2,0,0.5,0,0.8c0.2-0.1,0.5-0.1,0.6-0.2c0.3-0.3,0.5-0.6,0.8-0.8c0.6-0.4,1-0.2,1.5,0.8
		c0.1,0.1,0.3,0.4,0.4,0.3c0.2,0,0.4-0.2,0.4-0.4c0.1-0.4,0.2-0.9,0.3-1.3c-0.7-0.4-1.4-0.7-2-1.1c-0.3-0.2-0.5-0.5-0.7-0.8
		c-0.6-1.1,0.2-2.8,1.2-3.7c0.7-0.6,1.4-0.6,2.2-0.2c0.3,0.2,0.7,0.3,1.1,0.5c0-0.7,0.3-1.3,1-1.4C155.9,109,156,108.7,156.1,108.5z
		 M160.3,111.8c-0.3,0.1-0.6,0.3-0.8,0.4c-0.1,0.1-0.1,0.3-0.1,0.4c0,0.1,0.2,0.2,0.3,0.2c0.1,0,0.2-0.1,0.3-0.2
		c0.2-0.2,0.3-0.5,0.5-0.7c0.4-0.5,0.9-0.9,1.3-1.4c0.5-0.7,1.4-0.9,2.2-0.7c0.3,0.1,0.6,0.2,0.8,0.3c1.7,0.7,2.1,2.5,0.9,3.8
		c-0.5,0.5-0.8,1-0.3,1.7c0.2,0.2,0.4,0.4,0.6,0.5c0.1-0.2,0.2-0.5,0.2-0.7c0-0.1,0-0.1,0-0.2c0.1-0.2,0.1-0.5,0.3-0.7
		c0.2-0.2,0.5-0.3,0.8,0.1c0.1,0.2,0.4,0.4,0.7,0.5c0.1,0.1,0.3,0,0.5,0c0-0.1,0-0.3-0.1-0.4c-0.2-0.3-0.5-0.6-0.6-0.9
		c-0.1-0.3-0.1-0.7,0-1c0,0,0.4-0.1,0.7,0c0.5,0,0.6-0.2,0.4-0.6c-0.1-0.2-0.5-0.2-0.7-0.4c-0.3-0.2-0.6-0.4-0.8-0.7
		c-0.1-0.1,0-0.5,0.1-0.6c0.3-0.2,0.5-0.5,0.3-0.9c-0.2-0.4-0.6-0.3-1-0.2c-0.3,0.1-0.8,0-1.1-0.1c-0.5-0.2-0.1-0.6-0.1-1
		c0-0.4,0-1-0.2-1c-0.6-0.2-0.4,0.5-0.6,0.7c-0.2,0.1-0.3,0.4-0.4,0.4c-0.2,0-0.5-0.2-0.7-0.3c-0.2-0.2-0.2-0.5-0.3-0.7
		c-0.2-0.7-0.4-0.8-1.1-0.5c0,0.4,0,0.8,0,1.1c-0.7,0.2-1.3,0.3-1.7-0.2c-0.2-0.3-0.5-0.4-0.7-0.1c-0.1,0.1,0,0.6,0.2,0.7
		c0.4,0.3,0.5,0.6,0.3,1.1c-0.3,0.5-0.6,0.2-0.9,0.2c-0.2,0-0.5,0-0.5,0.1c0,0.2,0,0.4,0.1,0.6c0.1,0.2,0.4,0.4,0.6,0.4
		C160.2,110.7,160.3,111.2,160.3,111.8z M164.6,115.4c-0.1,0-0.1,0-0.2,0c-0.4,1-1.1,1.3-2,0.9c-0.1,0-0.4,0.1-0.4,0.2
		c-0.6,1-0.6,1-1.7,0.6c-0.2-0.1-0.4,0.1-0.6,0.1c0.1,0.2,0.1,0.4,0.2,0.6c0.1,0.2,0.4,0.2,0.5,0.4c0.2,0.3,0.3,0.6,0.3,0.9
		c0,0.4-0.4,0.4-0.7,0.3c-0.1,0-0.3,0-0.4,0c-0.2,0.7,0.2,0.9,0.6,1c0.1,0.1,0.5-0.2,0.6-0.4c0.3-0.4,0.6-0.9,0.9-1.3
		c0.4-0.4,0.8-0.8,1.3-0.8c1.1,0,2.1,0.3,2.9,1.1c0.9,0.9,1.1,2.1,0.2,3.1c-0.3,0.3-0.6,0.8-0.7,1.2c-0.2,0.5,0,0.8,0.6,0.9
		c0-0.2,0.1-0.4,0.1-0.7c0-0.4,0.1-0.7,0.5-0.7c0.3,0,0.6,0.2,0.9,0.3c0.3,0.2,0.6,0.4,0.9,0.7c0-0.3,0.1-0.4,0-0.4
		c-0.2-0.4-0.4-0.7-0.6-1.1c-0.1-0.3-0.1-0.6-0.1-0.9c0.3,0,0.5,0,0.8,0c0.4,0,0.7,0.1,1.1,0.1c0-0.1,0.1-0.2,0.1-0.3
		c-0.2-0.2-0.4-0.4-0.6-0.4c-0.8,0-1.1-0.4-1.1-1.1c0.1,0,0.2-0.1,0.2-0.1c0.1-0.2,0.4-0.5,0.3-0.7c-0.1-0.4-0.4-0.2-0.7-0.2
		c-0.8,0.2-1.3-0.5-1.1-1.3c0.1-0.2-0.1-0.5-0.1-0.7c-0.2,0-0.4,0-0.5,0.1c-0.7,0.4-1,0.3-1.2-0.5
		C164.9,116,164.7,115.7,164.6,115.4z M146.4,87.5c-1.8-0.5-3.5-1.1-5.3-1.4c-3.6-0.5-7.2-0.1-10.7,0.6c0.2,1.2,0.2,1.2,1.3,1.1
		c0.4-0.1,0.9-0.1,1.3-0.1c2.8-0.4,5.7-0.5,8.5-0.1c0.6,0.1,1.1,0.5,1.6,0.8c0.5,0.3,1,0.7,1.5,0.9c0.2,0.1,0.6-0.5,0.9-0.8
		c0.1-0.1,0.2-0.2,0.2-0.3C145.5,87.5,145.9,87.5,146.4,87.5z M138.6,99.1c0.5,0.1,0.9,0.1,1.2,0.2c0.4,0.2,0.6,0.1,0.8-0.2
		c0.3-0.5,0.6-0.5,1.1-0.2c0.4,0.2,0.9,0.5,1.3,0.7c0.2,0.1,0.4,0.2,0.6,0.2c-0.2,0-0.3,0-0.5,0c0-1.1,0-2.2-0.1-3.3
		c-0.1-1.1-0.4-2.2,0.5-3.2c0.1-0.1,0-0.5,0-0.8C140.2,93.4,138.1,97.3,138.6,99.1z M144.9,143.7c2.5,3,12.2,3.7,17.1,0.1
		C156.1,144.8,150.5,144.7,144.9,143.7z M140.5,88.9c-0.4,0-0.8,0-1.3,0c-2,0.2-4,0.3-6,0.5c-1.8,0.2-3.7,0.6-5.5,1
		c-0.1,0-0.4,0.2-0.4,0.4c0,0.4,0.6,0.9,1,0.8c4-0.7,7.9-1.2,12.1-0.7C140.5,90.2,140.5,89.6,140.5,88.9z M165.8,131
		c-0.1,0.1-0.1,0.3-0.2,0.4c-0.7,2.3-1.4,4.5-2.1,6.8c-0.3,1-0.4,1.7,0.5,2.4c0.6,0.5,1,0.5,1.2-0.3c0.6-2.3,1.1-4.7,1.7-7
		C167.1,131.9,166.9,131.5,165.8,131z M158.4,108.5c0,0,0.1-0.1,0.1-0.1c-0.1-0.2-0.2-0.4-0.3-0.6c-1.6-2.3-3.7-4-5.9-5.8
		c-0.8-0.6-2.2-1.1-1.7-2.7c0.1-0.2-0.6-0.9-0.9-1c-0.7,0-1.4,0.3-2.1,0.4c0.1,0.3,0.2,0.4,0.3,0.6c1.3,1.8,2.9,3.4,4.7,4.7
		c1.3,1,2.9,1.7,4,3C157.2,107.7,157.8,108,158.4,108.5z M186,115.6c0-0.1,0.1-0.1,0.1-0.2c-0.2-0.2-0.4-0.5-0.6-0.6
		c-2.6-1.8-5.3-3.6-8.4-4.6c-0.4-0.1-0.6-0.3-0.9,0.2c-0.2,0.5,0.1,0.6,0.4,0.8c1.3,0.8,2.6,1.5,3.9,2.4c1.7,1.2,3.3,2.6,4.9,4
		c0.3,0.2,0.6,0.5,1,0.9c0-1.1,0.2-1.9-0.7-2.6c-2.4-1.7-4.9-3.4-7.6-4.5c-0.5-0.2-1-0.4-1.5-0.7c0.2-0.1,0.3-0.3,0.3-0.3
		C180.3,111.6,183.1,113.6,186,115.6z M162.4,131.8c-0.1,0.2-0.2,0.3-0.3,0.4c-0.9,2.2-1.8,4.3-2.7,6.5c-0.4,0.9-0.9,1.8,0,2.6
		c0.2,0.2,0.5,0.3,0.8,0.3c0.1,0,0.3-0.3,0.4-0.5c0.2-0.4,0.3-0.9,0.5-1.3c0.8-2.2,1.5-4.4,2.2-6.7c0.1-0.2,0-0.5-0.2-0.7
		C163,132.3,162.8,132.1,162.4,131.8z M159.2,132.4c-0.2,0.2-0.4,0.3-0.5,0.5c-1.2,2.3-2.5,4.7-3.7,7c-0.1,0.1-0.1,0.4-0.1,0.5
		c0.2,0.4,0.4,0.9,0.7,1.3c0.1,0.2,0.4,0.3,0.6,0.3c0.1,0,0.3-0.2,0.3-0.3c1.1-2.5,2.1-5,3.2-7.5
		C159.9,133.5,159.8,132.9,159.2,132.4z M155.1,133c-0.2,0.3-0.4,0.6-0.6,0.9c-0.8,1.3-1.6,2.6-2.5,3.9c-0.4,0.7-0.9,1.3-1.4,2
		c-0.3,0.5-0.1,1.7,0.5,1.9c0.4,0.1,0.8,0.3,1.1-0.3c1.1-2.2,2.2-4.3,3.3-6.4C156.1,133.9,156,133.7,155.1,133z M152.7,100.2
		c1.4,1.2,2.8,2.3,4.2,3.4c0.9,0.7,1.8,1.3,2.7,2.1c0.3,0.3,0.6,0.4,0.8,0.1c0.2-0.3,0.7-0.6,0.2-1.1c-1.3-1.2-2.7-2.3-4-3.5
		c-0.7-0.6-1.4-1.2-2.1-1.8c-0.1-0.1-0.3-0.1-0.4-0.1C153.6,99.6,153.2,99.9,152.7,100.2z M185.1,113.6c0.1,0,0.1,0,0.2,0
		c-0.2-0.5-0.1-1.2-0.7-1.5c-1.6-0.8-3.1-1.7-4.8-2.4c-1.3-0.6-2.6-0.9-3.9-1.4c-0.2-0.1-0.4-0.3-0.6-0.4c0-0.1,0.1-0.1,0.1-0.2
		c0.2,0,0.5,0,0.7,0.1c2.9,0.9,5.6,2.1,8.2,3.5c-2.7-2.2-6-3.2-9.3-4.2c-0.5,1-0.4,1.3,0.6,1.7c0.3,0.1,0.5,0.3,0.8,0.6
		c0.1,0,0.4-0.1,0.6,0c1.1,0.5,2.3,1,3.4,1.5C182.1,111.8,183.6,112.7,185.1,113.6z M149.7,132.5c-0.1,0-0.2,0-0.3-0.1
		c-0.5,0.4-0.9,0.8-1.4,1.2c-1.9,1.6-3.8,3.2-5.7,4.8c-0.3,0.3-0.4,0.5-0.2,0.9c0.1,0.2,0.1,0.5,0.2,0.7c0.2,0.2,0.5,0.4,0.8,0.6
		c0.1,0,0.5-0.1,0.5-0.3c0.4-1.1,1.2-1.7,1.9-2.5c1.3-1.5,2.6-3,3.9-4.5C149.6,133.1,149.6,132.8,149.7,132.5z M152.1,132.7
		c-0.5,0.6-0.9,1.1-1.4,1.7c-1.2,1.4-2.3,2.7-3.5,4.1c-0.6,0.7-1.2,1.3-0.6,2.3c0.1,0.2,0.3,0.5,0.5,0.6c0.2,0,0.5-0.2,0.6-0.4
		c0.5-0.7,0.9-1.5,1.4-2.2c1-1.5,2.1-3,3.2-4.4C152.8,133.6,152.6,133.2,152.1,132.7z M169.2,129.1c-0.1,0.2-0.2,0.3-0.2,0.5
		c-0.4,2.6-0.8,5.2-1.3,7.8c-0.2,0.9,0,1.5,0.4,2.2c0.1,0.1,0.3,0.3,0.5,0.3c0.2,0,0.4-0.2,0.5-0.4c0.1-0.4,0.2-0.8,0.3-1.2
		c0.2-2.2,0.5-4.5,0.6-6.7C170.1,130.6,170.3,129.7,169.2,129.1z M177.9,113.5c0,0-0.1,0.1-0.1,0.1c0.1,0.2,0.2,0.5,0.4,0.6
		c2.5,2.2,4.8,4.6,6.8,7.2c0.6,0.8,1.2,1.7,1.7,2.5c0.1-0.5,0.1-1-0.1-1.5c-0.3-0.7,0-1.6-0.7-2.3c-2.3-2.3-4.7-4.5-7.4-6.3
		C178.3,113.7,178.1,113.6,177.9,113.5z M177.5,135.8c0.3-1,0.5-2,0.8-3c0-0.1,0-0.1,0-0.2c-0.6-2.3-1.1-4.6-1.7-6.9
		c-0.2-0.6-0.6-1.1-1-1.7c-0.1,0-0.1,0.1-0.2,0.1c0,0.2,0,0.5,0,0.7c0.3,1.7,0.6,3.4,0.9,5.1C176.6,131.9,176.3,134,177.5,135.8z
		 M178.1,115.9c0,0-0.1,0.1-0.1,0.1c0.1,0.2,0.2,0.4,0.3,0.6c1.6,2.4,3.3,4.8,4.8,7.2c0.7,1.1,1.6,2.2,1.7,3.6
		c0,0.1,0.2,0.3,0.2,0.4c0.2-0.5,0.3-0.9,0.3-1.4c-0.1-0.7,0.3-1.5-0.2-2.1c-1.8-2.3-3.6-4.7-5.5-7
		C179.1,116.8,178.5,116.4,178.1,115.9z M150.6,104.6C150.6,104.6,150.6,104.6,150.6,104.6c-0.1-0.2-0.2-0.4-0.3-0.6
		c-0.1-0.1-0.2-0.1-0.3-0.2c-1.5-1.4-2.7-3-3.7-4.8c-0.5-0.9-0.5-1.1,0.3-1.9c0.3-0.4,0.3-0.8-0.1-0.9c-0.8-0.3-1.7-0.5-2.6-0.8
		c0.2,1.6,0.8,3.1,1.5,4.4c0.5,0.9,1,1.9,1.7,2.5C148.1,103.3,149.4,103.9,150.6,104.6z M137.1,94c-0.5-1-0.9-1.2-1.9-0.9
		c-2.5,0.6-5,1.3-7.5,2c-0.6,0.2-1.2,0.5-1.9,0.7c0,0.1,0,0.2,0,0.3c0.5,0.1,1,0.2,1.5,0.1c1.9-0.4,3.7-0.9,5.6-1.3
		C134.3,94.6,135.7,94.3,137.1,94z M178.4,119.4c-0.1,0-0.2,0.1-0.3,0.1c0,0.3,0,0.6,0.2,0.8c0.6,1.3,1.3,2.5,1.8,3.7
		c0.9,2.2,2.1,4.3,2.4,6.7c0,0.1,0.1,0.2,0.2,0.3c0.1,0,0.1,0,0.2,0c0.2-1.2,0.9-2.3,0.3-3.6c-0.6-1.1-1.1-2.2-1.7-3.2
		C180.4,122.6,179.4,121,178.4,119.4z M146.7,86.7c0-0.1,0.1-0.1,0.1-0.2c-1.3-0.7-2.5-1.6-3.8-2.1c-2.7-1-5.5-1.5-8.3-1.5
		c-0.2,0-0.5,0.2-0.5,0.3c-0.1,0.3-0.2,0.7-0.3,1.2C138.4,84.2,142.7,84.3,146.7,86.7z M147,132.3c-0.1-0.1-0.2-0.1-0.3-0.2
		c-0.2,0.2-0.5,0.4-0.7,0.6c-2.2,1.6-4.5,3.1-6.7,4.6c-0.8,0.5-0.9,0.9-0.6,1.7c0.1,0.2,0.3,0.4,0.5,0.5c0.1,0,0.3-0.2,0.5-0.3
		c0.7-0.7,1.4-1.5,2.1-2.1c1.6-1.4,3.3-2.8,4.9-4.1C146.8,132.8,146.9,132.5,147,132.3z M172,127.9c-0.1,0-0.1,0.1-0.2,0.1
		c-0.2,2.7-0.3,5.5-0.5,8.2c0,0.7-0.1,1.4,0.4,1.9c0.1,0.1,0.3,0.2,0.4,0.3c0.1-0.2,0.3-0.3,0.3-0.5c0.4-1,0.3-2.1,0.2-3.2
		c-0.1-1.9-0.2-3.9-0.3-5.8C172.4,128.7,172.1,128.3,172,127.9z M144.5,131.8c-0.1,0-0.1-0.1-0.2-0.1c-0.2,0.1-0.3,0.2-0.5,0.3
		c-2.7,1.5-5.5,2.9-8.2,4.4c-0.2,0.1-0.4,0.3-0.4,0.5c0,0.4,0.1,0.8,0.2,1.2c0.1,0.2,0.3,0.4,0.5,0.4c0.1,0,0.3-0.2,0.4-0.3
		c0.4-0.4,0.7-1,1.2-1.3c1.5-1,3.1-2,4.6-3c0.7-0.5,1.4-1,2.1-1.5C144.5,132.1,144.5,131.9,144.5,131.8z M154.8,111.2
		c-0.7-0.3-1.4-0.6-2-0.9c-0.6-0.3-1.1-0.1-1.5,0.4c-0.2,0.2-0.3,0.4-0.4,0.6c-0.5,1.3-0.7,2.1,0.5,2.8c0.5,0.2,0.9,0.4,1.5,0.6
		C152.9,113.3,153.4,112.1,154.8,111.2z M127.4,89.8c4.6-0.5,9.3-1.1,13.9-1.6c-1.9-0.5-3.8-0.5-5.7-0.3c-2.1,0.3-4.3,0.5-6.4,1
		C128.6,89,127.6,88.8,127.4,89.8z M175.2,137c0.1-0.8,0.2-1.5,0.2-2.2c-0.2-2.5-0.6-4.9-0.9-7.4c-0.1-0.5-0.2-0.9-0.9-0.9
		c0.2,2.3,0.3,4.6,0.5,6.9C174.2,134.7,173.8,136.1,175.2,137z M154.6,121.4c-0.7-0.7-2.1-1.2-2.6-0.9c-0.7,0.4-1.4,2-1.2,2.8
		c0.2,0.7,1.5,1.5,2.4,1.5C153.1,123.5,153.6,122.3,154.6,121.4z M125.5,95.2c0.3-0.1,0.6-0.1,0.9-0.2c2.9-0.8,5.9-1.6,8.8-2.4
		c0.5-0.2,1.3,0,1.5-0.9c-0.3,0-0.7,0-1,0.1c-2.8,0.6-5.7,1.2-8.5,1.9C126.4,93.9,125.5,94,125.5,95.2z M164.1,115.2
		c0-0.4,0.1-0.8,0-1.1c-0.3-1-1-1.6-2-1.9c-0.5-0.2-1.2-0.3-1.5,0.2c-0.2,0.3-0.3,0.9-0.2,1.4c0.1,0.8,1.4,1.8,2.2,1.9
		C163.1,115.7,163.6,115.8,164.1,115.2z M121.5,121.5c0.2,0,0.3,0.1,0.5,0c2.8-0.2,5.6-0.5,8.4-0.7c0.6,0,0.8-0.2,0.5-0.8
		c-0.1,0-0.1,0-0.2,0c-2.9,0.1-5.8,0.2-8.8,0.3c-0.1,0-0.4,0.2-0.4,0.4C121.4,120.9,121.5,121.1,121.5,121.5z M156.1,114.7
		c0.2-0.5,0.4-1.1,0.5-1.6c0.1-0.6,0-1.1-0.6-1.3c-0.4-0.1-1-0.1-1.3,0.1c-1,0.6-1.3,1.7-1.3,2.8c0,0.2,0.2,0.5,0.4,0.7
		C154.4,115.9,155.4,115.6,156.1,114.7z M161.7,120.5c1.4,0.2,2.5,0.8,3.3,2c0.4-0.6,0.8-1.1,1.1-1.6c0.1-0.1,0.1-0.4,0.1-0.5
		c-0.2-1-1.7-2.1-2.7-2c-0.1,0-0.3,0-0.3,0.1C162.7,119.1,162.3,119.8,161.7,120.5z M156.4,124.7c0.1-0.7,0.4-1.3,0.4-2
		c-0.1-1.1-0.8-1.5-1.8-1c-0.9,0.5-1.6,2.3-1.3,3.3c0.2,0.5,0.8,0.8,1.3,0.6C155.5,125.4,155.9,125,156.4,124.7z M131.9,122.4
		c-0.1-0.1-0.2-0.1-0.2-0.2c-1.7,0.2-3.4,0.4-5.1,0.5c-1.3,0.1-2.6,0.2-3.9,0.4c-0.5,0.1-0.8,0.5-0.5,0.8c0.1,0.2,0.5,0.4,0.7,0.3
		c2.9-0.4,5.7-0.8,8.6-1.3C131.6,122.9,131.8,122.6,131.9,122.4z M142.2,131.1c0-0.1-0.1-0.1-0.1-0.2c-0.2,0.1-0.4,0.1-0.6,0.2
		c-2.5,1.1-5.1,2.3-7.6,3.5c-1.6,0.7-1.3,0.5-1.2,2c0,0.2,0.2,0.4,0.3,0.6c0.1-0.1,0.4-0.3,0.4-0.4c0.2-0.7,0.7-1.1,1.3-1.5
		c2.4-1.2,4.7-2.4,7-3.7C142,131.5,142.1,131.3,142.2,131.1z M121.8,118.4c0.2,0,0.4,0.1,0.6,0.1c2.5,0,5-0.1,7.5-0.1
		c0.2,0,0.3-0.3,0.5-0.4c-0.2-0.1-0.3-0.3-0.5-0.4c-2.3-0.1-4.7-0.2-7-0.3C121.9,117.2,121.9,117.2,121.8,118.4z M161.6,111.7
		c1.4,0.4,2.4,1.1,2.9,2.3c0.7-0.4,1.5-1.7,1.4-2.1c-0.2-0.8-1.4-1.7-2.3-1.8C162.3,109.9,162.3,111.1,161.6,111.7z M127.2,97.7
		c0.2,0,0.3,0,0.4-0.1c1.9-0.6,3.8-1.1,5.6-1.7c1.2-0.4,2.3-1,3.7-0.8c0.1,0,0.3-0.3,0.5-0.5c-2.1,0-7.2,0.9-9.6,1.7
		C127.1,96.6,127.1,97.1,127.2,97.7z M130.8,116.1c0-0.1,0.1-0.3,0.1-0.4c-0.4-0.2-0.8-0.3-1.3-0.4c-2-0.4-3.9-0.9-5.9-1.3
		c-0.2,0-0.4,0.2-0.6,0.3c-0.1,0.1-0.1,0.4-0.2,0.6c-0.2,0.4,0,0.6,0.4,0.6C125.9,115.7,128.3,115.9,130.8,116.1z M128.2,134.1
		c0.1,0,0.1,0,0.2,0c0-0.1,0.1-0.2,0.1-0.3c0.3-0.7,0.6-1.3,1.4-1.5c0.5-0.1,0.9-0.3,1.4-0.4c2.1-0.8,4.2-1.6,6.3-2.4
		c0.1-0.1,0.2-0.3,0.3-0.4c-3.3,0.9-6.5,1.9-9.6,2.9c-0.1,0-0.3,0.2-0.3,0.3C128.1,132.8,128.1,133.4,128.2,134.1z M132.9,124.8
		c0-0.8-0.3-0.7-0.7-0.6c-2.8,0.5-5.6,1-8.4,1.4c-0.9,0.2-0.9,0.2-0.7,1.1C126.4,126.1,129.6,125.5,132.9,124.8z M178.1,117.3
		c-0.1,0-0.2,0.1-0.3,0.1c0.1,0.3,0.1,0.7,0.3,0.9c1.3,2.1,2.6,4.1,3.9,6.2c0.6,1,1.1,2.1,1.7,3.1c0.1,0,0.2,0,0.3-0.1
		c0-0.3,0.1-0.6,0-0.9c-1.2-2.2-2.4-4.3-3.7-6.4C179.6,119.2,178.8,118.3,178.1,117.3z M125.2,99c0,0.8,0.2,1,1.2,0.6
		c2.4-0.8,4.7-1.7,7.1-2.5c0.6-0.2,0.7-0.5,0.7-1C131.2,97.1,128.2,98.1,125.2,99z M134.2,126.6c0.1-0.6-0.1-0.7-0.5-0.6
		c-1.2,0.3-2.5,0.6-3.7,0.8c-1.8,0.4-3.5,0.7-5.3,1.1c-0.2,0-0.4,0.1-0.5,0.2c-0.3,0.4-0.2,1.4,0.2,2c0.1-0.2,0.1-0.4,0.2-0.5
		c0.2-0.7,0.5-1.1,1.3-1.3C128.7,127.8,131.5,127.2,134.2,126.6z M125,110.7c-0.5,1.3-0.8,1.3,0.7,1.7c2,0.6,3.9,1.1,5.9,1.7
		c0.1-0.5,0-0.7-0.5-0.9C129.1,112.5,127.1,111.6,125,110.7z M162,123.8c0.6,0.2,1.1,0.4,1.7,0.4c0.7,0.1,1.1-0.6,0.9-1.2
		c-0.3-1.1-1.5-1.8-2.4-1.9c-0.9-0.1-1.4,0.3-1.1,1.2C161.2,122.8,161.7,123.3,162,123.8z M160.2,122.1c0.1-0.1,0.1-0.1,0.2-0.2
		c-0.2-0.3-0.5-0.5-0.7-0.8c-0.2-0.3-0.6-0.6-0.6-0.9c0-0.7-0.2-1.3-0.6-1.9c-0.5-0.7-1-1.5-1.6-2.2c-0.1-0.2-0.5-0.2-0.7-0.2
		c-0.2,0.1-0.4,0.5-0.4,0.6c0.3,0.7,0.6,1.4,1,2C157.6,119.9,158.8,121.1,160.2,122.1z M126,132.1c0.1,0,0.1,0,0.2,0
		c0-0.2,0.1-0.5,0.1-0.7c0-0.5,0.3-0.8,0.8-0.9c0.5-0.1,0.9-0.2,1.4-0.4c2.3-0.7,4.6-1.4,7-2.1c0.2-0.1,0.3-0.3,0.4-0.4
		c-0.2,0-0.5-0.2-0.6-0.1c-3.1,0.9-6.1,1.8-9.3,2.7C126,130.8,126,131.5,126,132.1z M181.4,130.3c0.1,0,0.2,0,0.3-0.1
		c0-0.3,0.1-0.6,0-0.9c-0.8-2-1.6-4-2.4-6c-0.4-1-1-2-1.6-2.9c-0.1-0.1-0.3-0.1-0.4-0.2c0,0.1-0.1,0.3-0.1,0.4
		c0.1,0.3,0.3,0.6,0.4,1c0.9,2,1.8,4,2.7,6.1C180.7,128.6,181,129.5,181.4,130.3z M153.6,139.9c0.8,0.4,1.2-0.1,1.5-0.7
		c0.8-1.6,1.6-3.2,2.4-4.9c0.3-0.6,0.5-1.2,0.8-1.8c-0.1-0.1-0.1-0.1-0.2-0.2c-0.3,0.2-0.6,0.3-0.8,0.6c-1,1.9-2,3.8-3,5.7
		C154.1,139,153.8,139.4,153.6,139.9z M131,103.5c0,0.8,0.2,1.3,1,1.3c1.3-0.1,2.6-0.3,3.9-0.4c0.1,0,0.2-0.1,0.2-0.2
		c0.2-0.5-0.5-1.4-1-1.3C133.8,103,132.4,103.2,131,103.5z M154.6,133c0-0.1-0.1-0.2-0.1-0.3c-0.3,0.1-0.6,0.2-0.8,0.4
		c-1.3,1.8-2.6,3.6-3.8,5.4c-0.3,0.4-0.5,0.7-0.8,1.1c0.7,0.4,1.1,0.2,1.5-0.4c1-1.5,2-3,3-4.6C154,134.2,154.3,133.6,154.6,133z
		 M168.7,129.8c-0.1-0.1-0.2-0.1-0.3-0.2c-0.2,0.2-0.4,0.4-0.4,0.7c-0.5,2.3-1,4.6-1.4,6.8c-0.1,0.4-0.2,0.9-0.3,1.3
		c0.7,0.1,1-0.1,1.1-0.8c0.1-0.5,0.2-1.1,0.3-1.6C168,134,168.3,131.9,168.7,129.8z M154.4,70.2c-0.3-0.2-0.6-0.3-0.9-0.5
		c-1-0.5-2.1-0.5-3.2-0.4c-0.5,0.1-0.8,0.4-0.8,0.8c0,0.3,0.3,0.7,0.5,0.8C151.1,71.6,153.4,71.1,154.4,70.2z M127.5,108
		c-0.1,0.4-0.2,0.7-0.3,0.9c-0.2,0.5-0.1,0.8,0.4,1c0.8,0.3,1.6,0.8,2.4,1.1c0.8,0.4,1.7,0.7,2.5,1c0.1-0.1,0.1-0.1,0.2-0.2
		c-0.2-0.3-0.2-0.7-0.5-0.8c-1-0.7-2.1-1.3-3.2-2C128.6,108.7,128.1,108.4,127.5,108z M134.2,110.2c0.4-0.9-0.3-1.6-0.7-2.1
		c-0.9-0.9-2.1-1.6-3.2-2.4c-0.5,0.7-0.4,1.3,0.4,1.9C131.8,108.5,132.9,109.3,134.2,110.2z M138.5,109.8c1.7-0.3,3.1-1.3,4.6-2
		c1.3-0.7,2.7-1.3,4.1-2c0.2-0.1,0.3-0.2,0.6-0.5c-1-0.1-1.7,0.2-2.5,0.6c-2.2,1.1-4.3,2.1-6.5,3.1
		C138.3,109.2,138.3,109.4,138.5,109.8z M147.9,86.6c0,0,0.1-0.1,0.1-0.1c-0.5-0.5-1-1.1-1.5-1.5c-1.5-1.1-3.1-2.1-4.7-3.1
		c-0.9-0.5-1.9-0.9-2.9-1.4c-0.1-0.1-0.5,0-0.6,0.1c-0.5,0.6-0.4,0.8,0.3,1C142.2,82.5,145.4,83.9,147.9,86.6z M140.1,130.2
		c0-0.1-0.1-0.1-0.1-0.2c-0.2,0.1-0.4,0.1-0.5,0.2c-2.8,1.1-5.7,2.2-8.5,3.3c-0.2,0.1-0.5,0.2-0.5,0.4c0,0.6,0,1.1,0.1,1.7
		c0.3-0.5,0.6-1,1-1.4c0.3-0.3,0.8-0.5,1.2-0.7c2.2-0.9,4.4-1.9,6.6-2.8C139.6,130.5,139.9,130.3,140.1,130.2z M170.1,137.3
		c0.1,0,0.1,0.1,0.2,0.1c0.2-0.3,0.5-0.5,0.6-0.8c0.2-1.8,0.2-3.5,0.3-5.3c0.1-1.1,0-2.2,0.1-3.5c-0.3,0.2-0.5,0.3-0.5,0.4
		C170.5,131.3,170.3,134.3,170.1,137.3z M133.7,100.7c-2.1,0.8-4.2,1.7-6.4,2.5c0.5,0.7,1.1,0.4,1.6,0.3c1.4-0.5,2.9-1,4.3-1.5
		C133.8,101.7,134,101.4,133.7,100.7z M185.6,124.1c0.3-0.4,0.3-0.4,0-0.8c-1.9-2.6-4-5-6.3-7.3c-0.4-0.4-0.9-0.7-1.3-1
		C180.5,118,183.1,121,185.6,124.1z M145.2,139.1c0,0.1,0.1,0.2,0.1,0.2c0.2,0,0.5,0,0.7-0.1c0.4-0.4,0.7-0.8,1.1-1.2
		c0.9-1,1.8-2,2.7-3.1c0.7-0.8,1.3-1.6,2-2.6c-0.3,0-0.5-0.1-0.5-0.1C149.2,134.5,147.2,136.8,145.2,139.1z M173.2,136
		c0.5,0,0.6-0.3,0.6-0.7c-0.1-1.9-0.2-3.8-0.3-5.7c-0.1-1-0.2-2-0.3-3.1c-0.1,0-0.1,0-0.2,0c-0.1,0.2-0.3,0.4-0.2,0.6
		C172.9,130,173,133,173.2,136z M161.7,132.3c-0.5-0.3-0.8-0.1-0.9,0.3c-0.2,0.5-0.3,1-0.5,1.4c-0.8,2-1.7,3.9-2.5,5.9
		c0.5,0,0.8,0,1-0.5c0.4-1.1,1-2.2,1.4-3.3C160.7,134.8,161.2,133.6,161.7,132.3z M176.5,122.5c-0.1,0-0.2,0-0.3,0
		c0,0.2-0.1,0.5-0.1,0.7c0.8,3,1.5,6,2.3,9c0,0.2,0.2,0.3,0.4,0.4c0.1-0.2,0.2-0.4,0.2-0.6c-0.4-1.9-0.9-3.9-1.4-5.8
		C177.4,125,176.9,123.8,176.5,122.5z M136,98.5c-0.1-0.1-0.1-0.1-0.2-0.2c0,0,0,0-0.1,0c-2.6,0.7-5.2,1.4-7.8,2
		c-0.1,0-0.2,0.3-0.3,0.4c0.2,0.1,0.5,0.3,0.7,0.2c2.3-0.6,4.7-1.3,7-2C135.6,99,135.8,98.7,136,98.5z M142.6,85.8
		c-0.2-0.1-0.5-0.2-0.7-0.2c-3.4-0.9-6.8-0.6-10.2-0.3c-0.5,0.1-1.1,0.2-1.3,0.9C134.5,85.4,138.5,85,142.6,85.8z M161.9,139.4
		c0.7,0.1,0.8-0.3,0.9-0.7c0.5-1.6,1-3.1,1.5-4.7c0.3-0.9,0.5-1.8,0.8-2.8c-0.1,0-0.2-0.1-0.2-0.1c-0.2,0.2-0.5,0.4-0.6,0.7
		c-0.3,0.9-0.6,1.9-0.9,2.8C163,136.3,162.5,137.8,161.9,139.4z M137.6,128.5c0-0.1-0.1-0.2-0.1-0.3c-3.4,1-6.8,2-10.1,3
		c0,0.1,0,0.1,0,0.2c0.3,0,0.7,0.2,1,0.1c1.9-0.6,3.8-1.1,5.7-1.8C135.3,129.3,136.4,128.9,137.6,128.5z M116.4,76
		c1.5-0.7,2.5-1.6,3.4-2.9c0.3-0.5,0.1-0.7-0.5-0.7C117.9,72.4,116.5,74.4,116.4,76z M177.3,112.6c3.4,2.1,6.3,4.7,9.2,7.3
		C186,118.4,178.9,112.7,177.3,112.6z M175.9,134.6c0.7-0.5-0.3-8.6-1.2-10c-0.1,0.3-0.1,0.5-0.1,0.8c0.3,2,0.6,4,0.9,6
		C175.6,132.5,175.7,133.5,175.9,134.6z M159.7,106.5c-1.5-1.3-3.1-2.5-4.6-3.8c-0.8-0.7-1.7-1.3-2.5-2c-0.4-0.4-0.6-0.2-0.8,0.1
		C154.5,103.1,159.2,106.6,159.7,106.5z M157.5,123.7c-0.2,0.5-0.4,0.8-0.4,1c0,0.2-0.1,0.5,0,0.6c0.4,0.5,0.9,0.9,1.4,1.3
		c0.2,0.1,0.7,0.2,0.7,0.1c0.3-0.4,1.1-0.8,0.5-1.4C159.1,124.7,158.3,124.3,157.5,123.7z M121.8,119.8c1.3,0,2.5,0,3.6-0.1
		c1.7-0.1,3.3-0.1,5-0.2c0.6,0,0.6-0.1,0.5-0.5c-3,0.1-6,0.1-9,0.2C121.8,119.5,121.8,119.7,121.8,119.8z M135.6,126.7
		c-3.3,0.9-6.7,1.7-10.1,2.6C126.2,129.8,134.4,127.7,135.6,126.7z M132.6,123.5c0-0.1,0-0.1,0-0.2c-0.3,0-0.6,0-0.9,0.1
		c-2.8,0.4-5.6,0.9-8.4,1.4c-0.2,0-0.3,0.2-0.4,0.3c0.2,0.1,0.3,0.3,0.5,0.2c2.9-0.5,5.9-1,8.8-1.5
		C132.3,123.7,132.5,123.6,132.6,123.5z M132.1,115.1c1.1-1.4,2.2-2.7,3.2-3.9c-0.2-0.4-0.4-0.8-0.6-1.1c-0.2,0.4-0.4,0.8-0.5,1.1
		c-0.4-0.1-0.6-0.2-0.9-0.3c-0.1,0.2-0.2,0.5-0.2,0.7c0,0.2,0.1,0.4,0,0.5c-0.1,0.4,0.1,0.9-0.7,0.7c-0.1,0-0.3,0.2-0.3,0.3
		C132.1,113.8,132.1,114.4,132.1,115.1z M132,112.7c0-0.1,0-0.2,0-0.3c-0.9-0.4-1.8-0.8-2.7-1.2c-1-0.5-2-1-3.1-1.4
		c-0.2-0.1-0.5,0.2-0.8,0.3c0.1,0.1,0.1,0.4,0.2,0.4c1.8,0.8,3.7,1.5,5.6,2.2C131.4,112.8,131.7,112.8,132,112.7z M131.6,121.7
		c0-0.1,0-0.2,0-0.3c-3.2,0.3-6.4,0.5-9.6,0.8c0.1,0.2,0.3,0.4,0.4,0.4C125.5,122.5,128.6,122.2,131.6,121.7z M127.4,102.3
		c0,0.1,0.1,0.1,0.1,0.2c2.6-0.7,4.9-1.9,7.4-2.9c-2.2,0.5-4.3,1.1-6.4,1.8C128,101.6,127.7,102,127.4,102.3z M132,134.4
		c0,0.1,0,0.1,0,0.2c0.2,0,0.4,0.1,0.6,0.1c1.8-0.5,8.6-3.8,9-4.4C138.3,131.7,135.2,133.1,132,134.4z M130.6,117c0-0.1,0-0.1,0-0.2
		c-0.2-0.1-0.4-0.1-0.6-0.2c-1.5-0.1-2.9-0.2-4.4-0.3c-1-0.1-1.9-0.2-2.9-0.2c-0.2,0-0.4,0.1-0.6,0.2c0.2,0.1,0.3,0.3,0.5,0.4
		c0.1,0,0.2,0,0.3,0c2.4,0.1,4.8,0.2,7.3,0.3C130.3,117.1,130.5,117.1,130.6,117z M129.7,133c0,0.1,0,0.1,0,0.2c0.3,0,0.6,0.1,0.9,0
		c2.3-0.9,4.6-1.7,6.8-2.7c0.7-0.3,1.4-0.6,2.1-1c0-0.1-0.1-0.1-0.1-0.2C136.2,130.6,132.9,131.8,129.7,133z M133.8,125.4
		c0-0.1-0.1-0.1-0.1-0.2c-3.2,0.6-6.4,1.3-9.7,1.9c0.2,0.2,0.4,0.4,0.6,0.4C127.7,127,130.8,126.3,133.8,125.4z M143,83.7
		C143,83.8,143,83.8,143,83.7c-0.1,0-0.2-0.1-0.3-0.1c-2.1-0.8-4.2-1.4-6.4-1.8c-0.9-0.2-1.1-0.1-1.5,0.5
		C137.4,82.8,140.2,83.3,143,83.7z M146.2,131.6c-2.8,1.9-5.5,3.8-8.4,5.7C138.6,137.5,145.7,132.7,146.2,131.6z M140.1,109.9
		c2,0.1,3.6-1.5,5.3-1.5c-0.1-0.5-0.1-0.9-0.2-1.3C143.6,108,141.8,108.9,140.1,109.9z M181.9,108.9c0,0,0.1-0.1,0.1-0.1
		c-0.2-0.2-0.4-0.5-0.7-0.6c-1.6-0.7-3.2-1.4-4.8-2c-0.5-0.2-0.8-0.1-0.9,0.5C177.7,107.4,179.8,108.2,181.9,108.9z M134.9,98.1
		c-0.8-0.8-1.5-0.5-2.2-0.2c-1.5,0.6-3,1.1-4.5,1.7c-0.4,0.1-0.8,0.3-1.2,0.4c0,0.1,0.1,0.2,0.1,0.3
		C129.7,99.6,132.2,98.6,134.9,98.1z M157,119.9c0.2,0.3,0.2,0.6,0.4,0.7c0.4,0.5,0.9,0.9,1.3,1.4c0.9,1.2,1.8,2.4,2.6,3.5
		c0.2,0.3,0.5,0.6,0.9,0.3C161.8,124.6,158.1,120.4,157,119.9z M161.1,103.3c-0.6-1.7-1.4-3.3-2.7-4.6c-0.2,0.3-0.4,0.5-0.5,0.7
		c-0.1,0.2-0.1,0.5,0.1,0.7c0.5,0.6,1,1.1,1.6,1.6C160.1,102.2,160.6,102.8,161.1,103.3z M131,114.9c0-0.1,0.1-0.1,0.1-0.2
		c-0.2-0.1-0.3-0.3-0.5-0.3c-0.5-0.1-1-0.1-1.6-0.2c-1.8-0.4-3.5-0.9-5.3-1.3c-0.1,0-0.3,0.1-0.5,0.2c0.1,0.1,0.2,0.2,0.3,0.4
		c0,0,0.1,0,0.1,0.1c2.3,0.5,4.6,1,6.9,1.5C130.8,115,130.9,115,131,114.9z M140.2,111.9c1.5,0.1,2.9,0,4.3-0.7
		c-0.4-0.4-0.7-0.8-1.3-0.7c-0.7,0.2-1.4,0.3-2.2,0.5C140.6,111.1,140.2,111.2,140.2,111.9z M158.6,113.1c0-0.1,0.1-0.1,0.1-0.2
		c0-0.3-0.1-0.6-0.1-0.9c0.2-1.3-0.7-1.8-1.4-2.5c-0.3-0.3-0.6-0.1-0.7,0.2c0.2,0.4,0.6,0.7,0.6,1.1c0,0.8,0.5,1.3,0.9,1.8
		C158.1,112.8,158.4,113,158.6,113.1z M143.9,131.3c0-0.1-0.1-0.2-0.1-0.2c-3,1.6-6,3.2-9,4.8c0,0.1,0.1,0.2,0.1,0.2
		C138.1,134.8,141,133.1,143.9,131.3z M133,110.6c0-0.1,0-0.2,0-0.3c-0.1-0.1-0.2-0.1-0.3-0.2c-1.3-0.9-2.7-1.9-4-2.8
		c-0.3-0.2-0.6-0.1-0.7,0.3c1.5,1,2.9,2.1,4.3,3C132.5,110.7,132.8,110.6,133,110.6z M149,132.2c-0.1-0.1-0.1-0.1-0.2-0.2
		c-2.5,2.1-5,4.2-7.5,6.3c0.1,0.1,0.1,0.2,0.2,0.2C144.2,136.6,146.5,134.3,149,132.2z M144.4,120.9c-1-0.9-3.2-0.7-3.9,0.3
		C141.4,122,143.2,121.8,144.4,120.9z M163.4,104.4c0.1-0.3,0.2-0.6,0.2-0.7c-0.6-1.4-1.1-2.8-1.7-4.2c-0.1-0.2-0.4-0.2-0.6-0.3
		c0,0.2-0.2,0.5-0.1,0.7c0.1,0.4,0.4,0.7,0.6,1.1C162.3,102,162.8,103.1,163.4,104.4z M156.9,100.7c1.5,1.3,2.9,2.5,4.4,3.8
		c0.1-0.2,0.1-0.2,0-0.3c-1.1-1.2-2.2-2.4-3.3-3.6C157.6,100.1,157.3,100.2,156.9,100.7z M148.5,104.1c0-0.1,0-0.2,0.1-0.3
		c-1.2-0.5-2.4-0.9-3.6-1.3c-0.4-0.1-0.9,0-1.1,0.7c0.4,0.1,0.7,0.1,1,0.2c0.8,0.2,1.7,0.3,2.3,0.8
		C147.9,104.6,148.1,104.4,148.5,104.1z M170.4,108.1c1.1-1.6,1.3-3.3,0.7-5c-0.5,0.1-0.5,0.5-0.5,1c-0.1,1.3-0.3,2.5-0.4,3.8
		c-0.1,0-0.1,0-0.2,0C170.2,107.9,170.3,108,170.4,108.1z M171.2,117.5c0.2-0.2,0.6-0.3,0.6-0.5c0.6-1.5,1.4-3,0.5-4.9
		C171.9,113.9,171.6,115.6,171.2,117.5z M171.7,102.7c0,0.5,0,0.8,0,1.1c0.3,1.3,0.1,2.5-0.6,3.6c-0.1,0.2,0,0.6,0,1
		C172.5,107.2,172.8,104.1,171.7,102.7z M148.2,117c0.2-0.2,0.3-0.4,0.4-0.5c0.1-0.2,0.1-0.3,0.2-0.5c0.2-0.5,0-0.8-0.6-0.6
		c-0.7,0.2-1.3,0.4-2-0.1c-0.1-0.1-0.3,0.1-0.5,0.1c0.1,0.2,0.1,0.4,0.2,0.5C146.6,116.3,147.4,116.6,148.2,117z M155.1,156.9
		c0,0.1,0,0.1,0.1,0.2c1,0.2,2,0.4,3-0.1c0.2-0.1,0.3-0.4,0.3-0.6c0-0.1-0.2-0.3-0.4-0.3c-0.3-0.1-0.7-0.1-1,0
		C156.4,156.3,155.8,156.6,155.1,156.9z M144.7,115c-1.5,0-3,0.2-4.4,0.9c0.3,0.6,0.7,0.3,1.1,0.3c0.8-0.1,1.5-0.3,2.3-0.3
		C144.3,115.8,144.6,115.7,144.7,115z M147,99c0,0.1,0.1,0.2,0.2,0.4c0.9,1.7,2.3,3,3.7,4.3c0.2,0.2,0.6,0.3,0.9,0.5
		c0,0,0-0.1,0-0.1C150.1,102.3,148.5,100.6,147,99z M162.8,105.1c0-0.1,0-0.2-0.1-0.3c-0.2,0-0.6,0-0.7,0.1c-0.5,0.6-1,1.3-1.4,2
		c0.2,0.3,0.3,0.5,0.5,0.6c0.3,0.3,0.9,0.2,0.8-0.2C161.8,106.4,162.3,105.8,162.8,105.1z M139.3,119.4c1.9-0.4,3.6-1.6,5.7-1.5
		c-0.3-0.2-0.5-0.4-0.8-0.4C142.5,117.7,140.8,118.3,139.3,119.4z M168.6,100.9c-0.1,0.1-0.2,0.1-0.2,0.2c0,0.4,0,0.8,0.1,1.1
		c0.3,0.9,0.4,1.9,0,2.8c0,0.1,0.1,0.3,0.2,0.5c0.1-0.1,0.4-0.2,0.4-0.3c0.1-0.6,0.3-1.2,0.3-1.8c0-0.7-0.1-1.3-0.3-2
		C169,101.2,168.8,101.1,168.6,100.9z M164.4,101.8c0,0,0.1,0,0.1,0c0.1-0.2,0.3-0.5,0.2-0.7c-0.2-1-0.5-2.1-0.8-3.1
		c-0.1-0.5-0.4-0.9-1-1C163.5,98.7,164,100.2,164.4,101.8z M134.1,107.2c-0.8-1.2-2.3-2.1-3.2-1.8c0.9,0.8,1.8,1.5,2.7,2.3
		C133.7,107.5,133.9,107.4,134.1,107.2z M144.5,112.7c0.6,0.4,1.2,0.8,1.8,1.1c0.6,0.3,0.9,0,1.3-0.5c-0.6-0.3-1.2-0.6-1.8-0.9
		C145.2,112,144.8,112.1,144.5,112.7z M145.9,83.1C145.9,83.1,145.9,83.1,145.9,83.1c-0.8-1-1.6-1.9-2.5-2.8
		c-0.6-0.7-0.7-0.7-1.3,0.1C143.3,81.4,144.6,82.2,145.9,83.1z M148.2,125c-0.1-0.1-0.1-0.1-0.2-0.2c-0.8,0.4-1.6,0.4-2.3-0.2
		c-0.1-0.1-0.4,0-0.5,0.1c-0.1,0.1,0,0.4,0.1,0.5c0.7,0.4,1.4,0.8,2.2,1.2C147.8,125.9,148,125.4,148.2,125z M134.3,91.3
		c0,0,0-0.1,0-0.1c-0.6,0.1-1.1,0.1-1.7,0.2c-1.4,0.2-2.8,0.4-4.2,0.7c-0.2,0-0.4,0.3-0.6,0.5c0,0,0.1,0.1,0.1,0.1
		C130,92.2,132.1,91.8,134.3,91.3z M138.6,110.6c-1,0-2,0.2-2.8-0.5c0,0-0.2,0.1-0.2,0.2c0,0.1,0,0.3,0.1,0.3c0.8,0.5,1.7,1,2.6,1.5
		C138.4,111.5,138.5,111.1,138.6,110.6z M164.9,96.1c0.1,0,0.2-0.1,0.2-0.1c0-0.7,0-1.4,0-2.1c0-0.1-0.2-0.2-0.3-0.3
		c-0.4-0.1-0.9-0.1-1.3-0.2c-0.1,0.1-0.1,0.1-0.2,0.2C163.9,94.5,164.4,95.3,164.9,96.1z M147.3,122.9c-1-1.1-2.5-1.5-3.2-0.8
		C145.2,122.3,145.9,123.8,147.3,122.9z M144,118.9c-0.1,0-0.1,0.1-0.2,0.1c0.1,0.2,0.1,0.6,0.3,0.7c0.7,0.4,1.4,0.8,2.1,1.2
		c0.3,0.2,0.8,0.3,0.9-0.4C146.1,120,145,119.5,144,118.9z M151,107.5c0.1-0.8-1.1-1.8-2.5-1.9C148.3,106.3,149.6,107.3,151,107.5z
		 M141.1,99.9c0.9,0.7,1.7,1.2,2.4,1.7c0.2,0.1,0.5,0.1,0.7,0.1c-0.1-0.3-0.1-0.8-0.3-0.9c-0.7-0.4-1.4-0.7-2.2-1
		C141.7,99.7,141.5,99.8,141.1,99.9z M173.4,103.8c0,0.1,0.1,0.1,0.1,0.2c0.3,0,0.7,0.1,0.8-0.1c0.6-0.7,1.1-1.5,1.6-2.2
		C174.4,101.7,174.3,103.1,173.4,103.8z M157.6,122c-0.3,2.1,1.6,2.1,2.4,3c0.1-0.1,0.1-0.1,0.2-0.2
		C159.4,123.9,158.6,123,157.6,122z M137.8,106.3c-0.1,0.3-0.2,0.6-0.2,0.9c0.4,0.2,0.9,0.5,1.3,0.7c0.6-0.4,0.9-0.9,0.5-1.5
		C138.8,106.3,138.3,106.3,137.8,106.3z M159.5,115.9c0.7-0.7,0.7-1.2,0.1-1.9c-0.2-0.3-0.5-0.3-0.7,0
		C158.3,114.7,158.5,115.4,159.5,115.9z M166.9,101.1c0-1.1,0.4-1.9,1-2.6c0.1-0.1,0-0.4-0.1-0.7c-0.2,0.1-0.3,0.1-0.3,0.2
		c-0.3,0.4-0.7,0.9-1,1.3C165.9,100.2,165.9,100.2,166.9,101.1z M148.9,108c-0.7-0.3-1.4-0.7-2-1c-0.4-0.2-0.6,0.1-0.7,0.5
		c0.6,0.4,1.2,0.7,1.8,1C148.4,108.7,148.8,108.7,148.9,108z M144.3,114.4c-1.3-0.7-2.4,0-3.5,0.2c-0.4,0.1-0.8,0.2-0.8,0.7
		C141.4,115,142.7,114.7,144.3,114.4z M138.7,118.2c-0.6-0.3-1.1-0.7-1.6-0.9c-0.2-0.1-0.6,0.2-0.9,0.4c0.1,0.2,0.3,0.3,0.4,0.5
		c0.1,0.1,0.3,0.2,0.4,0.3C137.6,118.8,138.1,118.9,138.7,118.2z M151.5,104.8c0,0.1-0.1,0.1-0.1,0.2c0.8,0.3,1.2,0.8,1.4,1.6
		c0,0.1,0.5,0.1,0.5,0c0.7-0.7,0.6-0.8-0.2-1.3c-0.3-0.2-0.7-0.4-1-0.5C152,104.8,151.7,104.8,151.5,104.8z M146.1,101.9
		c-0.8-1.5-1.6-3.1-2.4-4.7C144,99.1,144.6,100.8,146.1,101.9z M165.2,104.4c-1.9,1.9-1.9,1.9-1.3,2.8
		C164.3,106.2,165.5,105.7,165.2,104.4z M138.7,100.6c0.1,0.8,0.9,1.4,2.5,1.9C141.3,101.7,141,101.5,138.7,100.6z M146.1,93.4
		c-0.5-0.6-1-1.1-1.6-1.8c-0.5,1.9-0.2,2.2,1.3,1.9C145.8,93.5,145.9,93.5,146.1,93.4z M169.7,100.5c0.1,0.6,0.1,1.1,0.2,1.5
		c0.1,0.2,0.3,0.6,0.5,0.6c0.2,0.1,0.5-0.2,0.6-0.3c-0.1-0.5-0.3-0.8-0.3-1.1C170.7,100.7,170.4,100.5,169.7,100.5z M168.8,114.3
		c0.8-0.8,1.4-1.8,1.4-2.4c-0.5,0.9-1.2,1.1-2.1,1.1C168,113.7,168.5,113.9,168.8,114.3z M140,104.5c1.5-0.2,2.8-0.4,4.3-0.6
		c-1.4-0.4-2.6,0.1-3.8,0.2C140.3,104.1,140.2,104.4,140,104.5z M173.2,105.5c-0.4,1.2-0.9,2.4-1.3,3.5
		C172.9,108.9,173.7,106.9,173.2,105.5z M168.1,109.2c0.5-0.7,1-1.3,1.4-2c0.1-0.1,0-0.4-0.1-0.6c-0.2,0.1-0.4,0.1-0.5,0.2
		c-0.4,0.5-0.8,1.1-1.2,1.6C167.5,108.8,167.6,109,168.1,109.2z M168.4,111.1c0,0.1,0.1,0.1,0.1,0.2c0.2-0.1,0.5,0,0.7-0.2
		c0.5-0.7,1-1.4,1.5-2.1c0-0.1-0.1-0.1-0.1-0.2c-0.2,0.1-0.6,0.1-0.7,0.3C169.3,109.7,168.8,110.4,168.4,111.1z M166.1,104.4
		c0.3-0.9,0.6-1.6,0.4-2.4c0-0.2-0.2-0.3-0.3-0.4c-0.1,0.1-0.2,0.2-0.3,0.4C165.5,102.7,165.6,103.5,166.1,104.4z M171.3,116
		c0.2-1.4,0.3-2.7,0.5-4c0,0-0.1,0-0.1,0c-0.4,1.1-0.7,2.2-1.1,3.4C170.7,115.5,170.9,115.6,171.3,116z M154.2,127.8
		c0.1,0,0.2,0,0.3,0c0.4-0.4,0.7-0.7,1-1.1c0.1-0.1,0.1-0.4,0-0.4c-0.3-0.2-1.5,0.1-1.6,0.6C153.7,127.1,154,127.4,154.2,127.8z
		 M139.2,79.8c0,0.1,0,0.1,0,0.2c1.4,0.7,2.9,1.4,4,2c-0.9-0.6-2-1.5-3.2-2.2C139.8,79.7,139.4,79.8,139.2,79.8z M138,116.6
		c0-0.3,0-0.6-0.1-0.6c-0.8-0.4-1.5-0.8-2.3-1.2C135.5,115.4,136.1,115.9,138,116.6z M145.4,116.4c-0.1,0.1-0.1,0.3-0.2,0.4
		c1,0.5,2,1,3.1,1.5c0.1,0,0.2-0.1,0.5-0.2C147.5,117.4,146.5,116.8,145.4,116.4z M158.1,109.5c0.2-0.8-1.5-2.5-2.8-2.7
		C156.3,107.8,157.2,108.6,158.1,109.5z M144.9,89.4c0.6,0.3,0.9,0.5,1.5,0.8c0-0.7,0-1.4,0-2.1c-0.1,0-0.2-0.1-0.2-0.1
		C145.8,88.5,145.4,88.9,144.9,89.4z M164.9,100.2c0.5-0.3,0.3-2.2-0.5-3.5c-0.1,0.3-0.2,0.6-0.2,0.7
		C164.4,98.4,164.6,99.3,164.9,100.2z M139,120.6c-0.8-0.2-1.4-0.4-2.1-0.6c0,0.1-0.1,0.2-0.1,0.2c0.6,0.5,1.3,1,2.1,1.6
		C138.9,121.2,138.9,120.9,139,120.6z M173.9,106.5c1,0,2.5-1.8,2.1-2.5C175.3,104.8,174.6,105.6,173.9,106.5z M144.1,109.1
		c-1.3,0.5-2.4,1-3.6,1.4C142,110.8,143.5,110.2,144.1,109.1z M134.8,105.8c0.6,0.3,1.1,0.6,1.7,0.8c0.2,0.1,0.4,0,0.6,0
		c-0.1-0.2-0.1-0.4-0.3-0.5c-0.5-0.3-1-0.5-1.5-0.8c-0.2-0.1-0.4,0-0.6,0C134.7,105.6,134.7,105.8,134.8,105.8z M158.9,127.5
		c-0.8-0.7-1.4-1.2-2.1-1.7c-0.1-0.1-0.3-0.1-0.5-0.1c0,0.2,0,0.5,0.1,0.5c0.6,0.5,1.2,0.9,1.8,1.3
		C158.3,127.6,158.6,127.5,158.9,127.5z M168.4,100c0,0.1,0.1,0.2,0.1,0.2c0.2-0.1,0.6-0.1,0.7-0.2c0.3-0.4,0.6-0.9,0.8-1.4
		c0.1-0.2,0.1-0.5,0.1-0.8c-0.1,0-0.1,0-0.2-0.1C169.4,98.6,168.9,99.3,168.4,100z M173.1,101.9c0.1,0,0.2,0,0.3,0
		c0.5-0.7,0.9-1.3,1.4-2c0.1-0.1,0-0.2,0-0.4c-0.1,0-0.3,0-0.4,0.1c-0.4,0.5-0.8,1-1.2,1.5C173,101.4,173.1,101.7,173.1,101.9z
		 M148.4,104.9c0.9,0.5,1.6,0.9,2.4,1.2c0.1,0.1,0.4-0.2,0.6-0.2c0-0.1,0-0.2,0-0.2C150.4,105.4,149.7,104.5,148.4,104.9z
		 M162.6,104c0.1-0.1,0.1-0.1,0.2-0.2c-0.7-1.5-1.5-2.9-2.2-4.4c0.4,1.4,1,2.7,1.5,4C162.2,103.7,162.4,103.8,162.6,104z M139,104.8
		c-0.5-1.1-1.5-1.4-2.4-1.8C136.8,103.8,137.9,104.7,139,104.8z M167.7,104.6c-0.3-0.1-0.3-0.1-0.3-0.1c-0.6,0.7-1.1,1.3-1.7,2
		c0,0,0,0.2,0.1,0.3c0.1,0.1,0.3,0.1,0.3,0C166.6,106.2,167.1,105.4,167.7,104.6z M136.4,101.9c0,0.1-0.1,0.2-0.1,0.3
		c0.8,0.4,1.6,0.9,2.3,1.3c0.1-0.1,0.1-0.2,0.2-0.2c-0.2-0.9-1.2-0.9-1.8-1.3C136.9,101.9,136.6,102,136.4,101.9z M170.3,100
		c0.6,0.3,1.1-0.2,1.8-2C171.6,98,171.1,98.6,170.3,100z M147,111.7c0-0.7-1.2-1.5-2.6-1.7C145,110.9,146.1,111.1,147,111.7z
		 M170.5,116.3c-1.1,0.7-1.6,1.7-1.4,2.3C169.8,118.2,170.7,116.8,170.5,116.3z M174.7,104.8c0.7-0.9,1.4-1.6,1.8-2.8
		C175.6,102.5,174.5,104.1,174.7,104.8z M139.8,116.2C139.8,116.2,139.7,116.2,139.8,116.2c-0.1,0-0.2-0.2-0.3-0.1
		c-0.3,0-0.6,0-0.7,0.2c-0.2,0.3-0.1,0.6,0.3,0.7c0.2,0,0.4,0.2,0.6,0.3c0.1,0.1,0.4,0.1,0.4,0.1c0.1-0.1,0.2-0.3,0.2-0.5
		C140.1,116.6,139.9,116.4,139.8,116.2z M136.9,109.9c-0.4-1-1.6-1-2.3-1.7C134.6,109,134.6,109,136.9,109.9z M164,102.5
		c-0.2-1.9-0.8-3.7-1.6-5.4C162.9,98.9,163.4,100.7,164,102.5z M146.4,124.1c-0.8-0.9-1.8-1.1-2.7-1.7
		C143.9,123,145.4,124.1,146.4,124.1z M171,109.4c-0.8,0.6-1.4,1.4-1.7,2.4C170.2,111.2,170.8,110.4,171,109.4z M170.3,103.4
		c-0.1,0-0.2,0-0.3,0c-0.5,1.5-0.5,2.3,0.1,2.6C170.2,105.1,170.2,104.3,170.3,103.4z M142.8,103.1c-0.1-0.5-0.2-0.9-0.4-1.3
		c0-0.1-0.2-0.2-0.4-0.3c-0.1,0-0.3,0.1-0.3,0.2C141.5,102.4,142,103.2,142.8,103.1z M171.9,101.8c0.9-0.3,1.2-1.3,1.7-2
		C172.6,100.2,172.2,101,171.9,101.8z M158.7,107.9c0.4-0.7-0.4-1.6-1.6-2.1C157.7,106.5,158.2,107.2,158.7,107.9z M137.2,108.5
		c-2-1-2-1-2.3-0.7C136.8,109,136.8,109,137.2,108.5z M163,101.1c0.1,0,0.1,0,0.2-0.1c-0.4-1.1-0.7-2.2-1.1-3.3
		c-0.1,0-0.1,0-0.2,0.1C161.8,99.1,162.7,100,163,101.1z M136.6,104.7c0.7,0.4,1.4,0.8,2,1.1c0.1,0.1,0.3,0,0.4-0.1
		c-0.1-0.1-0.1-0.3-0.2-0.4c-0.6-0.3-1.2-0.6-1.8-0.9C137,104.4,136.8,104.6,136.6,104.7z M146.4,109.3c0.8,0.4,1.6,0.8,2.6,1.3
		C148.7,109.9,147,109,146.4,109.3z M144.1,112c-1.1,0.2-2.1,0.3-3.1,0.5C142,112.6,143.1,113.1,144.1,112z M156.9,115
		c-0.1,0-0.1,0.1-0.2,0.1c0.8,1.1,1.6,2.2,2.3,3.3c0.1-0.1,0.2-0.1,0.2-0.2C158.5,117.2,157.7,116.1,156.9,115z M164.7,103.9
		c-0.9,0.5-1.3,1.5-2,2.3C163.2,106.1,164.5,104.7,164.7,103.9z M175.5,109.9c-1.3,1.1-1.5,1.5-1.2,2.1
		C174.6,111.2,175.7,110.9,175.5,109.9z M174.1,108.9c-0.5,0.6-1.4,1-1.2,1.9C173.4,110.3,174.1,109.8,174.1,108.9z M137.9,119.7
		c-0.4-1-1.5-1-2.2-1.5C136.2,119.2,137.1,119.4,137.9,119.7z M171.1,118.3c-0.1-0.1-0.1-0.1-0.2-0.2c-0.2,0.2-0.4,0.3-0.6,0.5
		c-0.3,0.4-0.6,0.8-0.9,1.2c-0.1,0.1-0.1,0.3-0.1,0.4c0.2,0,0.4,0,0.4-0.1c0.3-0.4,0.6-0.8,0.9-1.2
		C170.8,118.7,171,118.5,171.1,118.3z M138.6,102c0.8,0.4,1.5,1.2,2.5,1.2C140.2,102.7,139.6,102,138.6,102z M158.9,117
		c0.3-0.8-0.5-1.9-1.3-1.8c0.2,0.3,0.3,0.5,0.5,0.7C158.3,116.3,158.6,116.6,158.9,117z M141.5,101.2c-0.8-0.8-1.9-1.3-2.5-1.1
		C139.9,100.8,141,101.3,141.5,101.2z M145.8,118.3c0,0.1-0.1,0.2-0.1,0.2c1,0.5,2,1,3,1.6c0-0.1,0.1-0.2,0.1-0.2
		C147.8,119.4,146.8,118.9,145.8,118.3z M137,112.4c0,0-0.1,0.1-0.1,0.1c0.6,0.3,1.2,0.7,1.8,1c0.1,0.1,0.3-0.1,0.5-0.1
		c-0.1-0.1-0.1-0.3-0.3-0.4C138.3,112.8,137.7,112.6,137,112.4z M171.8,118.8c-0.1-0.1-0.2-0.1-0.3-0.2c-0.3,0.4-0.6,0.9-0.9,1.3
		c-0.2,0.3-0.8,0.3-0.4,0.8c0.3-0.2,0.5-0.4,0.8-0.7C171.2,119.6,171.5,119.2,171.8,118.8z M144.4,113.3c0,0.1-0.1,0.1-0.1,0.2
		c0.7,0.4,1.5,0.8,2.3,1.3C146.5,114.2,145.2,113.4,144.4,113.3z M140.5,121.9c0,0.1,0,0.1,0,0.2c0.8,0.2,1.6,0.3,2.5,0.5
		c-0.1-0.3-0.1-0.5-0.2-0.6C142,122,141.3,122,140.5,121.9z M168.1,101.9C168,101.9,168,101.9,168.1,101.9c-0.2,0.6-0.3,1.2-0.4,1.8
		c0.2,0.2,0.5,0.3,0.9,0.6C168.3,103.4,168.2,102.6,168.1,101.9z M141.2,113.7c-0.4,0.2-1.2-1-1.7,0.2
		C140.3,114.7,140.8,113.7,141.2,113.7z M147.8,122.5c0.1,0,0.1-0.1,0.2-0.1c0-0.1-0.1-0.4-0.1-0.4c-0.7-0.3-1.5-0.6-2.2-0.9
		c0,0.1-0.1,0.1-0.1,0.2C146.3,121.7,147,122.1,147.8,122.5z M152.6,126.5c-0.1,0-0.1,0.1-0.2,0.1c0,0.2,0,0.5,0.1,0.6
		c0.4,0.3,0.7,0.8,1.5,0.7C153.4,127.4,153,126.9,152.6,126.5z M137.8,91c1.3,1,1.5,1,2.3,0.2C139.3,91.1,138.6,91.1,137.8,91z
		 M170,116c-0.1-0.1-0.2-0.1-0.3-0.2c-0.5,0.6-1,1.3-1.5,1.9c0.1,0.1,0.2,0.1,0.2,0.2C169,117.3,169.5,116.7,170,116z M165.7,105.4
		c-0.1,0-0.1-0.1-0.2-0.1c-0.5,0.8-1.3,1.5-1.6,2.5c0.1,0,0.2,0.1,0.2,0.1C164.7,107.1,165.2,106.3,165.7,105.4z M147.9,110.6
		c-0.7-0.3-1.4-0.7-2.2-1c0,0.1-0.1,0.1-0.1,0.2C146.3,110.2,146.9,110.8,147.9,110.6z M174.6,113.4c0.1,0.1,0.2,0.1,0.2,0.2
		c0.4-0.5,0.8-1,1.2-1.5c0,0-0.1-0.2-0.1-0.3c-0.1,0-0.2,0-0.3,0.1C175.3,112.4,174.9,112.9,174.6,113.4z M160.5,100.8
		c-0.4-1-0.7-2-1.5-2.7c-0.1,0-0.1,0.1-0.2,0.1C159.3,99.1,159.9,100,160.5,100.8z M145.9,117.6c0,0.1-0.1,0.1-0.1,0.2
		c0.9,0.5,1.8,1,2.7,1.5c0-0.1,0.1-0.1,0.1-0.2C147.7,118.5,146.8,118.1,145.9,117.6z M131.3,115.2c0,0.7,0.1,1.3,0.1,2.1
		c0.3-0.7,0.5-1.3,0.7-1.9C131.8,115.4,131.6,115.3,131.3,115.2z M169.6,97.6c-0.1-0.1-0.1-0.1-0.2-0.2c-0.5,0.7-0.9,1.3-1.4,2
		c0,0,0.1,0.1,0.1,0.1C168.6,98.9,169.1,98.2,169.6,97.6z M160.2,116.5c0.4,0.1,0.6,0.8,1.1,0.3c0.1-0.1-0.2-0.7-0.3-1.2
		C160.6,116,160.5,116.2,160.2,116.5z M173.6,113.8c0.2,0.4,0.4,0.6,0.6,0.9c0.1,0.1,0.2,0.2,0.3,0.3c0.1-0.2,0.3-0.3,0.3-0.5
		C174.8,113.8,174.1,113.9,173.6,113.8z M147.6,83.4c-0.3-1.4-0.8-2.2-1.4-2C146.7,82.1,147.1,82.7,147.6,83.4z M171.1,100.6
		c0.9-0.6,1.3-1.3,1.2-1.7C171.9,99.4,171.5,100,171.1,100.6z M141.3,116.6c0,0.1,0,0.1,0,0.2c1-0.2,2-0.3,3-0.5c0,0,0-0.1,0-0.1
		C143.3,116.3,142.3,116.4,141.3,116.6z M174.9,109.5c-0.5,0.1-1.2,1-1.2,1.7C174.2,110.6,174.5,110.1,174.9,109.5z M167.3,101.9
		C167.3,101.9,167.3,101.9,167.3,101.9c0.3-0.4,0.5-0.9,0.7-1.3c0-0.1-0.1-0.3-0.2-0.4c-0.1,0.1-0.4,0.2-0.4,0.3
		C167.3,100.9,167.3,101.4,167.3,101.9z M174.6,101.6c0,0-0.1-0.1-0.1-0.1c-0.5,0.7-1,1.4-1.4,2c0,0,0.1,0.1,0.1,0.1
		C173.6,102.9,174.1,102.3,174.6,101.6z M167.8,110.8c0,0,0.1,0.1,0.1,0.1c0.6-0.8,1.1-1.6,1.7-2.3c0,0-0.1,0-0.1-0.1
		C168.9,109.3,168.3,110.1,167.8,110.8z M166.1,108.7C166.1,108.8,166.1,108.8,166.1,108.7c0.6-0.6,1.2-1.3,1.7-2
		c-0.1-0.1-0.2-0.1-0.3-0.2C167,107.3,166.5,108,166.1,108.7z M141.4,119.7c0.7,0.4,1.4,0.2,1.6-0.5
		C142.4,119.4,141.9,119.5,141.4,119.7z M135.9,107.1c0,0.1-0.1,0.1-0.1,0.2c0.7,0.3,1.4,0.7,2.1,1c0-0.1,0.1-0.2,0.1-0.3
		C137.3,107.7,136.6,107.4,135.9,107.1z M167.7,105.8c-0.1-0.1-0.1-0.1-0.2-0.2c-0.4,0.6-0.8,1.2-1.3,1.8c0,0,0.1,0.1,0.1,0.1
		C166.8,106.9,167.3,106.4,167.7,105.8z M174,105.5c0.1,0,0.1,0,0.2,0c-0.1-0.3-0.1-0.7-0.3-0.8c-0.2-0.2-0.6-0.1-0.9-0.1
		c0,0.1,0,0.1,0,0.2C173.4,105,173.7,105.2,174,105.5z M170.9,112.9c-0.1,0-0.2-0.1-0.3-0.1c-0.2,0.7-0.4,1.4-0.7,2.1
		c0.1,0,0.2,0.1,0.2,0.1C170.5,114.3,170.7,113.6,170.9,112.9z M165.6,101.7c-0.1,0-0.1-0.1-0.2-0.1c-0.3,0.4-0.5,0.9-0.8,1.3
		C165.7,103,165.3,102.2,165.6,101.7z M135.6,104.7c0,0.1-0.1,0.2-0.1,0.3c0.6,0.3,1.2,0.5,1.8,0.8c0-0.1,0.1-0.2,0.1-0.2
		C136.8,105.3,136.2,105,135.6,104.7z M147.6,120.3c0-0.1,0.1-0.1,0.1-0.2c-0.8-0.4-1.7-0.8-2.5-1.2c0,0,0,0.1-0.1,0.1
		C145.9,119.4,146.8,119.9,147.6,120.3z M136.7,114.4c0,0.1-0.1,0.2-0.1,0.2c0.6,0.3,1.3,0.6,1.9,0.9c0-0.1,0.1-0.1,0.1-0.2
		C137.9,115,137.3,114.7,136.7,114.4z M168.1,115.8c-0.7-0.4-0.9,0.1-1.1,0.5C167.7,116.8,167.7,116.1,168.1,115.8z M141,117.6
		c0,0.1,0.1,0.2,0.1,0.2c0.8-0.2,1.5-0.5,2.3-0.7c0-0.1,0-0.1-0.1-0.2C142.6,117.1,141.8,117.3,141,117.6z M168.3,107
		c0,0-0.1-0.1-0.1-0.1c-0.4,0.6-0.9,1.2-1.3,1.9c0,0,0.1,0.1,0.1,0.1C167.4,108.2,167.8,107.6,168.3,107z M163.1,90.1
		c-0.3,0.1-0.6,0.2-1,0.3c0.4,0.3,0.7,0.5,1,0.7C163.2,90.7,163.1,90.5,163.1,90.1z M139.6,121.1c0.3-0.3,0.7-0.6,1.1-1
		C139.9,120,139.7,120.1,139.6,121.1z M177.8,106c0,0,0,0.1-0.1,0.1c0.9,0.4,1.8,0.7,2.7,1.1c0-0.1,0-0.1,0.1-0.2
		C179.6,106.7,178.7,106.4,177.8,106z M135.4,102.4c0-0.1-0.1-0.3-0.1-0.4c-0.5,0.1-0.9,0.3-1.4,0.4c0,0,0,0,0,0.1
		C134.4,102.4,134.9,102.4,135.4,102.4z M148.5,109.5c0-0.1,0.1-0.1,0.1-0.2c-0.6-0.3-1.2-0.7-1.8-1c0,0.1-0.1,0.1-0.1,0.2
		C147.3,108.8,147.9,109.1,148.5,109.5z M172.6,99.8C172.6,99.7,172.6,99.7,172.6,99.8c-0.5,0.5-0.9,1.1-1.3,1.7c0,0,0.1,0,0.1,0.1
		C171.8,100.9,172.2,100.3,172.6,99.8z M172.6,117.2c0.6-0.4,0.9-1.2,0.6-1.9C173.1,115.9,172.9,116.5,172.6,117.2z M175.3,114
		c0,0,0.1,0.1,0.1,0.1c0.4-0.5,0.7-1,1.1-1.6c0,0-0.1-0.1-0.1-0.1C176,112.9,175.6,113.4,175.3,114z M150.6,108.1
		c0-0.1,0.1-0.1,0.1-0.2c-0.7-0.3-1.4-0.7-2.1-1c0,0,0,0.1-0.1,0.1C149.2,107.3,149.9,107.7,150.6,108.1z M168.5,122.1
		c0.2,0.4,0.3,0.6,0.4,0.9c0.2-0.3,0.4-0.6,0.6-0.9C169.2,122.1,168.9,122.1,168.5,122.1z M133.5,105.4c-0.1,0.1-0.1,0.1-0.2,0.2
		c0.5,0.4,0.9,0.8,1.4,1.2c0,0,0.1-0.1,0.1-0.1C134.4,106.3,133.9,105.8,133.5,105.4z M171.6,110.4c-0.1,0-0.1-0.1-0.2-0.1
		c-0.1,0.4-0.8,0.6-0.2,1.4C171.4,111.3,171.5,110.9,171.6,110.4z M139.2,115c0-0.1,0.1-0.1,0.1-0.2c-0.5-0.2-0.9-0.4-1.4-0.7
		c0,0.1-0.1,0.1-0.1,0.2C138.3,114.5,138.8,114.7,139.2,115z M162.3,124.6c0,0.1,0,0.1-0.1,0.2c0.2,0.2,0.4,0.5,0.6,0.8
		c0.1-0.2,0.2-0.4,0.3-0.7C162.8,124.7,162.5,124.7,162.3,124.6z M159.2,109c0,0.1,0.1,0.2,0.1,0.2c0.2-0.1,0.4-0.1,0.7-0.2
		c-0.1-0.2-0.2-0.3-0.2-0.5C159.5,108.7,159.4,108.9,159.2,109z M139.2,104.1c0.1,0,0.2,0,0.2,0c0.1-0.2,0.3-0.4,0.4-0.6
		c0-0.1-0.1-0.1-0.1-0.2c-0.2,0.1-0.4,0.1-0.5,0.2C139.2,103.7,139.2,104,139.2,104.1z M168,117.3c0,0,0.1,0.1,0.1,0.1
		c0.4-0.5,0.7-1.1,1.1-1.6c0,0,0,0,0,0C168.8,116.3,168.4,116.8,168,117.3z M172.3,102.1c-0.1,0.1-0.1,0.2-0.2,0.3
		c0.2,0.1,0.4,0.3,0.6,0.4c0.1-0.1,0.2-0.2,0.2-0.3C172.7,102.4,172.5,102.2,172.3,102.1z M138.1,117.2c0,0.1-0.1,0.1-0.1,0.2
		c0.3,0.1,0.7,0.3,1,0.4c0-0.1,0.1-0.2,0.1-0.3C138.8,117.4,138.4,117.3,138.1,117.2z M155.2,99.6c0,0,0.1-0.1,0.1-0.1
		c0-0.2,0-0.4,0-0.7c-0.2,0-0.4,0-0.7,0C154.9,99.2,155.1,99.4,155.2,99.6z M173.6,112.4c0.2-0.6-0.1-0.7-0.6-0.8
		C173.2,111.9,173.4,112.2,173.6,112.4z M178.2,105.4c0-0.1,0-0.1,0.1-0.2c-0.5-0.1-0.9-0.2-1.4-0.3c0,0.1,0,0.1,0,0.2
		C177.3,105.1,177.8,105.2,178.2,105.4z M166.7,104c0.1,0,0.2,0.1,0.3,0.1c0.1-0.3,0.2-0.6,0.3-1c-0.1,0-0.2,0-0.2-0.1
		C166.9,103.3,166.8,103.6,166.7,104z M150.3,118.2c-0.1-0.4-0.1-0.6-0.2-1c-0.2,0.3-0.3,0.4-0.4,0.6
		C149.9,117.9,150,118,150.3,118.2z M174.2,107.2c-0.1,0-0.2-0.1-0.4-0.1c0,0.2-0.1,0.4-0.1,0.7c0.1,0,0.3,0,0.3,0
		C174.1,107.6,174.2,107.4,174.2,107.2z M138.6,119.9c0.1,0,0.1,0,0.2,0c0-0.1,0-0.3,0-0.4c0-0.1-0.1-0.3-0.1-0.4
		c-0.1,0-0.2,0-0.3,0C138.5,119.3,138.5,119.6,138.6,119.9z M150.1,127.2c0.1-0.1,0.1-0.1,0.2-0.2c-0.1-0.2-0.3-0.4-0.4-0.5
		c-0.1,0.1-0.2,0.1-0.2,0.2C149.8,126.9,149.9,127.1,150.1,127.2z M147.2,112.4c0,0.1,0,0.1-0.1,0.2c0.3,0.1,0.7,0.2,1,0.3
		c0-0.1,0-0.2,0.1-0.2C147.8,112.5,147.5,112.4,147.2,112.4z M166.7,115.7c0.5-0.6,0.5-0.6,0-0.9
		C166.6,115.1,166.6,115.4,166.7,115.7z M157.9,113.6c0.1-0.1,0.1-0.1,0.2-0.2c-0.2-0.2-0.3-0.4-0.5-0.6c-0.1,0.1-0.1,0.1-0.2,0.2
		C157.5,113.2,157.7,113.4,157.9,113.6z"/>
</g>
<g>
	<path d="M202.2,146.1c3.2-5.1,5.6-10.6,7.2-16.4c1.6-5.8,2.3-11.7,2.2-17.7c-0.1-6-1-11.9-2.9-17.7c-1.8-5.7-4.4-11.1-7.7-16
		c-3.4-5-7.4-9.4-12-13.3c-24.1-20.2-62.4-20.1-86.4,6.1c-1.2,1.3-2.4,2.7-3.5,4.1c0.5-0.4,1.1-0.7,1.9-0.7c1.4,0,2.3,0.8,2.7,1.9
		c1.6-2,3.4-3.9,5.3-5.7c3.4-3.2,7-5.9,11-8.2c4.1-2.3,8.4-4.1,12.9-5.4c5.7-1.6,11.5-2.4,17.4-2.2c4.9,0.1,9.8,0.9,14.5,2.2
		c6.4,1.8,12.3,4.6,17.7,8.5c5.2,3.7,9.7,8.2,13.5,13.3c2.7,3.7,4.9,7.6,6.7,11.7c1.7,3.9,2.8,8,3.6,12.2c0.9,5.3,1.2,10.6,0.7,16
		c-0.5,4.7-1.5,9.3-3.1,13.7c-1.4,3.9-3.2,7.7-5.4,11.2c-3.2,5.2-7.1,9.7-11.7,13.6c-2.9,2.5-6.1,4.7-9.4,6.6
		c-0.7,0.4-1.5,0.6-2.4,0.8c-4.5,1.2-9,2.2-13.7,2.6c-4,0.3-8.1,0.6-12.1,0.9c0-0.1,0-0.2,0-0.2c-5.1,0.1-10.2-0.3-15.2-1
		c-2.4-0.4-4.8-0.9-7.2-1.4c-2.3-0.6-4.7-1.1-6.9-2c-1.6-0.6-3.1-1.8-4.5-2.8c-4.4-3.1-8.2-6.6-11.6-10.7c-3.4-4.1-6.1-8.5-8.2-13.3
		c-1.9-4.3-3.3-8.8-4.1-13.4c-1.1-5.8-1.1-11.6-0.5-17.5c0.4-3.8,1.3-7.6,2.5-11.2c1.5-4.4,3.4-8.5,5.8-12.4
		c-0.5,0.3-0.9,0.6-1.4,0.8c-1.3,0.6-2.8,0.5-3.7-0.6C80.7,106.8,84.1,139,107.4,160c-0.4,0.2-0.8,0.4-1.2,0.6
		c-1.9,1.1-3.6,2.4-4.2,4.7c-0.3,1.2-0.3,2.4-0.4,3.6c0,0.4-0.2,0.6-0.6,0.8c-3.3,1.6-5.4,4.2-6.4,7.8c-0.9,3.4-1,6.8-0.9,10.3
		c0,0.8,0.3,1.4,0.7,2c1.5,2.3,3.6,3.9,5.9,5.3c4.5,2.7,9.5,4.2,14.5,5.3c4.3,0.9,8.7,1.7,13,2.2c5.3,0.6,10.6,1,15.9,1.2
		c10.1,0.3,20.2-0.1,30.2-1.6c3.5-0.5,6.9-1.1,10.4-1.9c4.2-1,8.4-2.3,12.3-4.3c2.7-1.4,5.2-3,7-5.4c0.5-0.7,1.1-1.5,1.1-2.2
		c0.3-3.7,0-7.4-0.8-11c-0.8-3.3-2.8-5.8-5.7-7.4c-1-0.6-1.4-1.2-1.3-2.3c0-0.2,0-0.4,0-0.6c0-1.9-0.6-3.5-2-4.7
		c-1.2-1-2.6-1.8-3.9-2.7C195.2,155.7,199,151.2,202.2,146.1z M191.5,166.9c0.1,0.9,0.1,1.8,0.3,2.7c0.1,0.8,0.3,1.5,0.6,2.3
		c0.4,1.1,1.2,1.7,2.2,2.1c2.8,1.1,4.3,3.2,4.6,6.2c0.2,2.1,0.3,4.1,0.5,6.2c0.1,1.3-0.8,1.9-1.6,2.6c-2.7,2.3-5.8,3.6-9.1,4.7
		c-4.1,1.4-8.2,2.4-12.5,3.1c-4.5,0.7-9,1.2-13.5,1.5c-4.5,0.4-9,0.5-13.1,0.7c-4.7-0.2-8.9-0.2-13.1-0.6c-4.6-0.4-9.1-0.9-13.7-1.5
		c-5.5-0.7-10.9-2.1-16-4.1c-2.8-1.1-5.4-2.5-7.6-4.6c-0.5-0.5-0.8-1.1-0.7-1.8c0.1-2.8,0.1-5.6,1.1-8.4c0.6-1.7,1.9-3,3.5-3.6
		c2.3-0.9,3.1-2.6,3.4-4.8c0.1-0.7,0.1-1.4,0.1-2.2c0.1-1.1,1.6-2.7,2.7-2.5c0.7,0.1,1.3,0.6,2,0.9c3.4,1.6,6.9,2.9,10.4,4
		c4.5,1.3,9.1,2.2,13.7,2.8c6.5,0.8,13.1,1.2,19.7,0.7c4.4-0.3,8.7-0.8,13-1.6c6-1,11.9-2.7,17.4-5.3c0.8-0.4,1.5-0.7,2.2-1.1
		C189.3,164.5,191.3,165.5,191.5,166.9z"/>
	<path d="M79.8,154c3.6-1.5,7.1-2.9,10.7-4.3c0,0.1,0.1,0.1,0.1,0.2c-3,2.4-6,4.8-9.1,7.3c1.4,3.5,2.9,7,4.3,10.5
		c-0.1,0-0.1,0.1-0.2,0.1c-2.4-3-4.8-5.9-7.2-9c-3.5,1.4-6.9,2.8-10.3,4.2c-0.1-0.1-0.1-0.1-0.2-0.2c2.9-2.4,5.8-4.7,8.8-7.1
		c-1.4-3.5-2.9-7-4.3-10.5c0.1,0,0.1-0.1,0.2-0.1C75,148,77.4,151,79.8,154z"/>
	<path d="M79.8,139c2.5-0.1,5-0.3,7.5-0.4c0,0,0,0.1,0,0.1c-2.4,0.8-4.7,1.7-7.1,2.5c0.1,2.5,0.3,5,0.4,7.4c0,0-0.1,0-0.1,0
		c-0.8-2.3-1.7-4.7-2.5-7.1c-2.4,0.1-4.8,0.2-7.3,0.4c0-0.1,0-0.1,0-0.2c2.3-0.8,4.6-1.6,7-2.5c-0.1-2.5-0.3-4.9-0.4-7.4
		c0.1,0,0.1,0,0.2,0C78.2,134.3,79,136.6,79.8,139z"/>
	<path d="M177.3,51.5c-2-2.5-3.9-4.9-5.9-7.4c-2.9,1.2-5.8,2.3-8.6,3.5c0-0.1-0.1-0.1-0.1-0.2c2.4-1.9,4.8-3.9,7.3-5.8
		c-1.1-2.8-2.3-5.6-3.4-8.5c0,0,0.1-0.1,0.1-0.1c1.1,1.3,2.2,2.6,3.3,4c0.5,0.6,1,1.3,1.5,1.9c1.1,1.4,1.1,1.4,2.7,0.7
		c2.3-1,4.7-1.9,7.1-2.7c-1.6,1.3-3.3,2.6-4.9,3.9c-0.6,0.5-1.3,0.9-1.9,1.5c-0.2,0.2-0.4,0.8-0.3,1.1c1,2.6,2,5.1,3,7.7
		c0,0.1,0.1,0.2,0.1,0.4C177.3,51.4,177.3,51.5,177.3,51.5z"/>
	<path d="M214.7,159.2c-1.3-1.7-2.6-3.3-3.9-5c-0.4-0.5-0.7-0.7-1.4-0.4c-1.9,0.8-3.8,1.6-5.8,2.2c0.8-0.7,1.6-1.3,2.4-2
		c0.9-0.7,1.9-1.4,2.8-2.2c0.2-0.1,0.2-0.6,0.1-0.8c-0.8-2-1.6-3.9-2.4-5.9c0-0.1-0.1-0.2-0.2-0.5c1.5,1.9,2.9,3.5,4.2,5.3
		c0.4,0.6,0.8,0.5,1.3,0.3c2-0.8,3.9-1.6,5.9-2.3c-1.9,1.5-3.8,3-5.7,4.5c0.9,2.2,1.8,4.4,2.7,6.7
		C214.8,159.1,214.7,159.2,214.7,159.2z"/>
	<path d="M189.9,147.4c6.3-10.2,9.1-21.2,8.5-33.1c-0.6-11.9-4.4-22.7-11.1-32.5c1-0.9,2-1.8,3.1-2.7
		C206.5,97.7,207.2,127.7,189.9,147.4z"/>
	<path d="M113,150.2c-0.3,0.2-0.7,0.5-1.1,0.8c-7.7-7.6-12.7-16.7-14.9-27.3c-2.7-13.5-0.5-26.3,6.6-38.2c-5.1,10.7-6.6,22-4.8,33.7
		C100.6,130.8,105.4,141.1,113,150.2z"/>
	<path d="M173.6,156.7c0.6,0.4,1.2,0.7,1.7,1.1c1,0.9,0.9,1.9-0.2,2.7c-1.6,1.1-3.4,1.7-5.2,2.1c-3.3,0.6-6.7,1.2-10.1,1.5
		c-4.7,0.4-9.4,0.6-14.1,0.3c-2.2-0.1-4.4-0.2-6.5-0.4c-4.1-0.4-8.2-0.9-12.1-2.3c-1-0.4-2-1-2.8-1.6c-0.8-0.6-0.7-1.5,0.1-2.1
		c0.2-0.2,0.5-0.5,0.7-0.6c0.5-0.3,1-0.6,1.7-0.8c-0.4,0.7-0.5,1.5,0.2,2c0.5,0.5,1.2,0.9,1.8,1.2c3.1,1.3,6.3,1.9,9.6,2.1
		c3.7,0.3,7.4,0.7,11.1,0.7c4.1,0,8.2-0.4,12.2-0.7c3-0.2,6-0.8,8.8-1.8c0.8-0.3,1.6-0.7,2.3-1.1
		C173.7,158.4,173.8,157.9,173.6,156.7z"/>
	<path d="M178.1,68c-0.7,0.6-1.3,1.2-1.9,1.8c-5.5-4.3-11.6-7.6-18.4-9.5C160.9,60,173.7,64.8,178.1,68z"/>
	<path d="M180,73.1c0.6-0.6,1.2-1.2,1.9-1.7c0.2-0.2,0.7-0.2,0.9-0.1c1.4,1.2,2.8,2.4,4.3,3.7c-1,0.9-1.9,1.7-2.8,2.6
		C182.9,76.2,181.5,74.7,180,73.1z"/>
	<path d="M190.1,178.9c0.3,0.6,0.5,1.2,0.9,2c-2.6,0.9-5,2-7.5,2.7c-3.3,0.9-6.6,1.8-9.9,2.4c-5.5,1.1-11.2,1.7-16.8,1.9
		c-3.7,0.1-7.4,0.3-11.1,0.1c-4.6-0.2-9.2-0.5-13.8-1.1c-4-0.5-7.9-1.3-11.8-2.1c-4.1-0.9-8.1-2.2-11.9-4c-0.1,0-0.1-0.1-0.2-0.1
		c0.3-0.6,0.6-1.2,0.9-1.9c1,0.4,2.1,0.9,3.1,1.3c4.5,1.8,9.1,3,13.8,3.7c4.2,0.6,8.5,1.3,12.8,1.6c4.9,0.4,9.7,0.5,14.6,0.5
		c5.3-0.1,10.6-0.5,15.9-1.3c5.1-0.8,10-1.8,14.9-3.4C186,180.5,188,179.7,190.1,178.9z"/>
	<path d="M107.9,174.6c0.3-0.6,0.6-1.2,0.9-1.8c0.5,0.2,1,0.4,1.5,0.6c3.9,1.7,8,2.9,12.1,3.7c4,0.8,7.9,1.5,11.9,1.9
		c7.4,0.8,14.8,1.1,22.3,0.7c4.3-0.3,8.6-0.7,12.9-1.3c6.3-0.9,12.4-2.4,18.3-4.7c0.7-0.3,1.5-0.6,2.3-1c0.3,0.6,0.6,1.2,0.9,1.9
		c-1.2,0.5-2.3,1.1-3.4,1.4c-2.9,0.9-5.8,1.9-8.8,2.6c-3.7,0.9-7.4,1.5-11.1,2.1c-6.9,1-13.8,1.3-20.8,1.2
		c-5.4-0.1-10.8-0.5-16.2-1.2c-5-0.7-10-1.6-14.8-3.1c-2.6-0.8-5.1-1.9-7.7-2.9C108.2,174.8,108,174.7,107.9,174.6z"/>
</g>
<g>
	<path d="M67.6,90.5c-1.4,0.3-2.5,0.5-3.5,0.8c-2.3,0.5-4.6,0.8-7,0.8c-1.1,0-2-0.3-2.9-1c0.1-0.8,0.7-1.1,1.3-1.3
		c3.8-1.7,7.6-3.4,11.5-4.9c1.4-0.6,2.9-0.7,4.4-1c4.2-0.9,8.5-1.8,12.7-2.7c1.2-0.3,2.2-0.2,3.4,0.1c2.5,0.6,4.9,1.1,7.5,1.4
		c1.3,0.2,2.7,0,3.9-0.4c2.5-0.8,3.9-2.7,4.5-5.2c0.1-0.5,0.2-1,0.4-1.7c0.5,0.3,0.7,0.4,0.9,0.6c1.9,1.6,2,1.9,0.9,4.1
		c-1.4,2.8-3.8,4.1-6.8,4.5c-4.1,0.6-8.3,0.4-12.4-0.1c-0.5-0.1-1-0.2-1.4-0.1c-2.1,0.4-4.2,0.9-6.3,1.4c-0.8,0.2-1.5,0.3-2.3,0.3
		c-1,0.1-1.9,0-3.1,0c-0.2,0.9-0.4,1.7-0.4,2.5c-0.2,3.2-1.2,6.2-2.3,9.1c-1,2.5-2.5,4.8-3.9,7.1c-0.7,1.1-1.1,2.3-1.1,3.6
		c0,0.2,0,0.4,0,0.5c0.3,5-0.7,9.8-1.9,14.6c-1.3,5.1-2.8,10.2-4.9,15.1c-2.5,5.9-6,11.1-11.1,15.2c-1.2,0.9-2.3,2-3.5,2.9
		c-1.9,1.4-2.4,1.4-4.3,0.1c-0.5-0.3-1.1-0.5-1.6-0.7c-2.6-0.9-5.2-1.9-7.5-3.5c-1.6-1.1-2.9-2.4-4-3.9c-1.1-1.6-1.3-3.5-1.5-5.3
		c0-0.4,0-0.8-0.2-1.2c-0.4-1.2-0.4-2.4-0.1-3.7c0.5-3,0.8-6,1.1-9c0.4-4.3-0.5-8.5-1.5-12.7c-0.5-2.1-0.9-4.1-1.4-6.2
		c-1-5.1-0.3-10,1.8-14.6c1-2.2,2.3-4.4,3.4-6.6c0.2-0.4,0.5-0.7,0.7-1c1-1.2,2.2-1.9,3.9-2c2.2-0.1,4.3-0.6,6.4-0.9
		c0.7-0.1,1.4-0.4,2,0.4c0.1,0.1,0.8-0.1,1-0.3c0.2-0.3,0.3-0.8,0.4-1.2c1-4.3,2-8.7,3-13c0.6-2.6,0.6-2.6,2.8-3.8
		c-0.3-6.1,2.1-11.6,4-17.2c1.5-4.3,3.6-8.3,6.7-11.7c0.7-0.8,1.4-1.7,2-2.6c0.8-1.3,2-2,3.5-2.4c3.2-0.9,6.3-2,9.5-2.9
		c1.2-0.3,2-1,2.7-2c1.7-2.6,3.6-5.1,5.4-7.7c0.6-0.9,1.4-1.4,2.4-1.8c5-1.7,9.9-3.4,14.9-5.1c0.7-0.2,1.4-0.4,2.1-0.5
		c2.6-0.2,5.2-0.3,7.8-0.6c0.8-0.1,1.2,0.2,1.6,0.8c0.9,1.4,1.1,2.8,0.3,4.3c-2,3.8-5.3,6.1-9.4,7.3c-0.9,0.3-1.9,0.4-2.9,0.4
		C97,26,97,26,94.8,27.5c0.4,0.2,0.6,0.3,0.9,0.4c0.3,0.1,0.7,0.1,1.4,0.2c-0.7,0.3-1.1,0.5-1.4,0.6c-2.2,0.5-4.5,0.9-6.7,1.3
		c-2.8,0.6-5.7,1.1-8.5,1.8c-3.7,0.9-7.3,2.1-11,3c-2.3,0.5-4,1.7-5.5,3.4c-2.2,2.5-4.5,4.9-6.8,7.3c-0.5,0.5-0.7,1-0.8,1.7
		c-0.5,2.9-1.1,5.8-1.7,8.7c-0.7,3.4-1.7,6.7-3.7,9.9c1.7,0.5,3.3-0.1,5,0.4c-0.3,0.4-0.4,0.7-0.6,0.9c-2,1.5-4,2.9-6,4.3
		c-0.6,0.5-0.9,1-1,1.8c-0.7,6.4-2,12.6-4.9,18.4c-1.6,3.1-3.2,6.2-5.3,9.1c-0.8,1.1-0.8,2.3-0.9,3.4c-0.3,3.4-0.3,6.7-0.5,10.3
		c1.6,0.7,3.3,0.7,4.9,1.2c0.1,0,0.4-0.1,0.5-0.2c0.4-0.5,0.9-0.5,1.5-0.4c7.6,0.2,13.4-3.4,18.5-8.5c1.8-1.8,2.6-4,2.9-6.5
		c0.1-1.1,0.2-2.2,0.4-3.2C65.7,94.6,66.3,92.7,67.6,90.5z M80.5,28.6c3.1-0.9,6.1-1.4,9.1-1.8c1.5-0.2,3.1-0.8,4-2.1
		c0.8-1.2,1.9-1.6,3.4-1.6c3.3,0,6.5-0.7,9.1-2.9c1.1-1,2.1-2.1,3.1-3.2c-0.5-0.9-0.8-1.8-1.8-1.6c-2.5,0.4-5,0.7-7.4,1.4
		c-4.4,1.3-8.8,2.9-13.2,4.3c-1.2,0.4-2,1-2.7,2C82.9,24.9,81.7,26.7,80.5,28.6z"/>
	<path d="M215.1,81.9c3-0.5,6-1.1,9.1-1.6c0-1.1,0-2.1,0-3.4c1.2,0.4,2.1,0.8,3,1.1c0.6,0.3,0.6,0.8,0.6,1.4c0.1,2,0.2,4,0.5,5.9
		c0.3,2.5,0.8,5,1.7,7.4c1.8,4.8,5.4,6.9,10.3,7.3c1.1,0.1,2.2,0.2,3.2,0.3c0.2,0,0.4,0.2,0.8,0.4c-1.5,1.2-3.2,1.7-4.9,1.9
		c-3.3,0.4-5.8-1.2-7.8-3.6c-2.8-3.3-4.5-7.2-6.2-11.3c-0.1,2.3-0.3,4.6-0.3,6.9c0,0.9,0.3,1.8,0.6,2.6c0.3,0.9,0.6,1.7,1,2.5
		c1.3,3,2,6.2,2.5,9.5c1.9-0.4,3.7-0.7,5.5-1c1.1-0.2,2.2-0.4,3.4-0.6c0.8-0.1,1.6-0.2,2.3-0.4c2.8-1.1,5.8-2,8.4-3.7
		c1.5-1,3-1.9,4.6-2.8c0.6-0.4,1-0.8,1.2-1.5c0.7-2.2,1.4-4.5,2.1-6.7c0.8-2.2,1.6-4.4,2.4-6.6c0.1-0.4,0.4-0.8,0.6-1.1
		c2-1.9,3.7-4.1,6.3-5.7c-0.1,0.6-0.2,1-0.3,1.3c-1.2,2.4-2.4,4.9-3.7,7.3c-0.8,1.5-1.5,3-2,4.6c-0.9,3-2,6.1-3.2,9
		c-0.6,1.5-1.6,2.8-2.5,4.1c-0.7,0.9-0.9,1.9-1.1,3.1c0.4,0.2,0.7,0.4,1.2,0.7c-0.4,2.3-0.7,4.7-1.1,7.1c-1.1,6.1-2.4,12.1-4.4,17.9
		c-1.2,3.3-2.5,6.5-3.9,9.7c-0.7,1.5-1.7,2.8-2.6,4.1c-1.3,1.7-2.9,2.5-5.2,2c-3.4-0.7-6.9-1.3-10.1-2.7c-4-1.9-7.3-4.6-10.4-7.7
		c-0.4-1.6-1.8-2.3-2.8-3.3c-0.7-0.7-0.8-1.4-0.5-2.3c1.2-4.4,2.5-8.7,3.5-13.1c0.7-3,1.1-6,1.4-9.1c0.3-2.6,0.4-5.3,0.4-7.9
		c-0.1-5.5-1-10.8-3.1-15.9C214.7,85.9,214.5,84.1,215.1,81.9z"/>
	<path d="M109.2,54.5c0.5,0.2,0.8,0.3,1.1,0.4c1.9,0.9,2.4,2.2,1.4,4.1c-2.3,4.1-5.5,6.8-10.5,7c-0.2,0-0.5,0-0.7,0.1
		c-0.1,0-0.1,0-0.3,0.2c-0.6,1.5-1.2,3.2-1.9,5c2,1.1,4.2,1.6,5.8,3.4c-0.8,0.9-2,0.6-2.9,0.8c-1.1,0.2-2.3,0.1-3.4,0.1
		c-0.4,0-0.8-0.1-1.2-0.3c-2-0.8-4-1.7-6-2.6c-1.1-0.5-2.1-0.8-3.3-0.5c-1,0.2-2,0.1-3.1,0.1c-3.4,0.1-6.7,0.3-10.1,0.4
		c-0.5,0-1.1,0.2-1.6,0.3c-3.8,1.2-7.5,2.6-11.3,3.7c-2.5,0.8-5.1,1.3-7.7,1.9c-0.3,0.1-0.5,0-0.9-0.1c0.3-1.4,0.8-2.5,2-3.2
		c2.4-1.2,4.7-2.3,7.5-2.1c3.1,0.2,3.1,0.1,5.7-1.6c1-0.6,1.9-1.3,2.8-2c1.6-1.2,3-2.7,3.6-4.8c1-0.1,1.9-0.2,2.9-0.3
		c2.9-0.3,5.7-0.6,8.6-1.1c1.1-0.2,2.2-0.5,3.3-1c0.9-0.4,1.7-0.3,2.6-0.1c2.4,0.7,4.9,1.4,7.3,1.9c5,0.9,7-1.2,8.9-4.3
		c1-1.7,0.5-3.5-1.1-4.5c-0.7-0.4-1.5-0.8-2.4-1.3c1.5-0.7,2.1-2.1,2.9-3.2c1.4-1.9,3-3.5,4.9-4.8c1.1-0.7,2.1-1.6,3.1-2.5
		c1.7-1.5,2.3-3.6,3.1-5.6c0.5-1.2-0.2-2.2-1.5-2.9c-1.4-0.7-2.9-0.7-4.4-0.5c-2.2,0.4-4.1,1.4-5.7,3c-1.6,1.6-3.1,3.2-4.5,4.9
		c-2.2,2.8-4.5,5.3-7.1,7.7c-0.2,0.2-0.3,0.4-0.6,0.7c1.8,1.3,4.3,1.3,6.1,2.8c-0.7,0.7-1.3,1.4-1.9,2.1c1.5,0.9,3.5,0.9,4.8,2.3
		c-1.7,1.1-4.8,1.7-6.4,1.1c-1.5-0.5-2-1.1-1.9-2.6c0-0.5,0.2-1.1,0.3-1.7c-1.3-0.2-2.6-0.4-3.9-0.5c-3.3-0.2-6.6-0.3-9.9-0.4
		c-4.2-0.1-4.2,0-7.6,2.5c-2.7,2-5.4,3.8-8.4,5.3c-1.9,1-3.8,1.4-5.8,1.8c-0.3,0.1-0.7-0.1-1.2-0.1c1.1-1.4,2.7-1.9,3.9-2.7
		c1.3-0.9,2.6-1.7,3.9-2.7c-1.7,0.4-2.9,1.6-4.6,2.3c-0.1-0.7,0.4-1.1,0.7-1.5c1-1.4,2.1-2.6,3-4.1c0.9-1.6,1.5-3.3,2.1-5
		c0.5-1.3,0.2-1.6-1.1-2.3c-1-0.5-1.9-1-2.9-1.5c-0.3-0.2-0.6-0.5-1.1-1c0.7-0.2,1.1-0.4,1.6-0.4c7.8-0.6,14.9-3.1,21.6-7.1
		c0.7-0.4,1.5-0.7,2.3-0.9c2.2-0.7,4.4-1.2,6.6-1.9c1.7-0.6,3.2-1.6,4.2-3.2c0.3-0.5,0.6-1.1,0.7-1.6c0.4-1.8,0.6-1.9,2.6-1.5
		c-0.1,0.6-0.1,1.2-0.3,1.7c-1,4.2-3.7,6.7-7.6,8c-1.8,0.6-3.7,1-5.6,1.5c-0.9,0.3-1.8,0.7-2.8,1.2c0.5,0.1,0.8,0.2,1.2,0.3
		c-0.2,1.2-0.6,2.3-1.1,3.4c-0.4,0.9-0.3,1.7,0.3,2.5c0.8,1.1,1.5,2.3,2.3,3.6c3.4-2.3,6.8-4.4,8.9-7.9c2.3-3.8,5.5-6.7,9.2-9.1
		c2.5-1.7,5.2-2.2,8.1-1.3c1.3,0.4,2.7,0.8,3.9,1.4c2.1,1,2.7,2.3,1.9,4.6c-0.5,1.5-1.2,2.9-2.1,4.2c-2.4,3.9-5.1,7.5-8.4,10.6
		C109.9,53.7,109.6,54,109.2,54.5z M84.1,51c-2.1-2-5.1-1.2-7.5-2.4c0.4-0.3,0.6-0.6,0.8-0.7c1.2-0.6,2.4-1.1,3.6-1.7
		c1.5-0.7,1.8-2.2,2.3-3.8c-0.8,0.3-1.3,0.5-1.7,0.8c-2.5,1.2-4.9,2.5-7.5,3.5c-1.5,0.6-2.3,1.4-2.7,2.9c-0.5,2.1-1.4,4.1-2.4,6
		c-0.1,0.2-0.1,0.6-0.1,1.2c2.1-1.6,4.1-3.1,5.9-4.6c0.6-0.4,1.1-0.7,1.8-0.7c2.3-0.1,4.7-0.2,7-0.3C83.7,51.1,83.9,51,84.1,51z
		 M96.4,65.9c-1.5-0.3-2.8-0.4-4-0.8c-1.4-0.4-2.7-0.5-4,0.3c-0.2,0.2-0.6,0.2-0.9,0.2c-1.8,0.4-3.6,0.8-5.5,1
		c-2.4,0.3-4.4,1.1-6,3.1c0.3,0,0.5,0,0.6,0c3.1-0.2,6.2-0.5,9.3-0.6c2.3,0,4.6,0.3,7.2,0.4C94.2,68.7,95.2,67.4,96.4,65.9z"/>
	<path d="M247.5,52c-0.6,0.3-1.2,0.6-1.7,1c-2.4,1.9-5.3,2.1-7.9,0.5c-0.5-0.3-0.9-0.6-1.4-0.8c-3.3-1.6-4.2-6-2.4-9.1
		c1.2-2,2.6-3.9,4.3-5.5c0.7-0.6,1.4-1.1,2-1.6c0.1-0.9,0-1.8,0.2-2.7c0.2-1.2,0.5-2.4,0.8-3.5c0.3-1,0-1.7-0.8-2.4
		c-1.9-1.7-4.3-2.2-6.7-2.1c-1.9,0.1-3.8,0.5-5.7,0.7c-1.4,0.1-2.4,0.8-3.1,1.9c-1.5,2.2-3.1,4.5-4.6,6.7c-0.1,0.1-0.2,0.3-0.3,0.5
		c-1.1,2.2-0.8,3,1.4,4.2c1.4,0.7,2.8,1.4,4.4,1.6c1.2,0.1,2.4,0,3.5-0.6c1.9-1,3.6-2.4,4.8-4.3c0.2-0.3,0.5-0.6,0.8-1.1
		c1.1,0.9,1.3,1.9,1.1,3.1c-0.4,2-1.7,3.3-3.3,4.3c-2.8,1.8-5.9,2-9,1.4c-1-0.2-1.8-0.2-2.8,0.2c-2.1,0.9-4.4,1.3-6.7,1.3
		c-0.7,0-1.3-0.2-1.8-0.7c-4.8-4.2-8.9-8.9-11.5-14.8c-0.5-1.1-1-2.2-1.4-3.3c-0.2-0.7-0.7-1.2-1.4-1.2c-1.3-0.1-2.7-0.3-3.9-0.1
		c-1.2,0.2-2.2,0.9-2.8,2.1c-1.2,2.8-1.5,5.6-0.7,8.6c1,3.5,3.2,6,6.4,7.6c2.1,1,4.2,1.7,6.5,2.1c0.3,0.1,0.6,0.1,1,0.3
		c-0.8,1.2-2,1.1-3.2,1.7c1.6,0.8,2.1,2.3,2.7,3.7c1.3,2.9,2.5,5.7,3.7,8.7c2.2,5.7,5.9,10.1,11.2,13c1.6,0.9,3.2,1.7,4.8,2.5
		c0.2,0.1,0.4,0.3,0.7,0.5c-0.8,0.3-1.4,0.1-2,0.1c-6.3-0.7-11-4-14.6-9.1c-3.8-5.4-6-11.5-7.6-17.9c-0.3-1.2-0.8-1.7-2-2
		c-5-1.2-9.5-4.8-10.3-11.2c-0.3-2.8-0.3-5.7,0.7-8.4c0.5-1.3,1.1-2.6,2.1-3.5c2-1.9,4.7-2.3,7.2-1.1c1.9,0.9,3.3,2.4,4.5,4.1
		c1.9,2.9,3.6,5.8,5.5,8.7c0.9,1.4,1.8,2.7,2.8,4c1.5,1.9,3.5,2.4,5.8,1.9c0.6-0.1,1.1-0.3,1.8-0.5c-2.4-2.9-1.8-5.7,0-8.2
		c2.1-2.9,4.4-5.6,6.7-8.3c0.8-1,2.1-1.2,3.3-1.3c2.7-0.2,5.4-0.5,8.1-0.3c3,0.2,5.5,1.7,7.4,4.1c1.1,1.4,1,3.1,0.7,4.7
		c-0.2,0.9-0.5,1.9-0.8,3c0.7-0.1,1.3-0.3,1.9-0.4c3.1-0.8,6-0.4,8.7,1.2c0.8,0.4,1.4,0.9,1.6,1.8c0.1,0.5,0.3,0.9,0.5,1.4
		c0.5,1.5,0.4,2.4-0.8,4.2c-0.4-0.5-0.7-0.8-1-1.3c-0.7-1.1-1.4-2.3-2-3.5c-0.4-0.8-1-1.2-2-1.2c-4.1,0-7.8,1.2-10.9,4
		c-1.2,1-2.3,2.1-3.3,3.3c-0.6,0.8-0.9,1.7-1,2.7c-0.2,2.1,1,3.8,3.2,4.1c1.4,0.2,2.7,0.2,4.1-0.4c1.8-0.9,3.7-1.6,5.6-2.4
		c0.3-0.1,0.5-0.2,0.9-0.3c0.2,0.7-0.2,1.1-0.5,1.5c-0.3,0.6-0.7,1.1-1,1.7C247.8,51.7,247.7,51.8,247.5,52z"/>
	<path d="M252.6,91.4c-3.2,1-6,0.1-7.8-2.2c-2.1-2.8-3-6.1-3.6-9.5c-0.2-1.2-0.3-2.4-0.3-3.6c0-0.9-0.6-1.4-1.1-1.9
		c-1.6-1.4-3.1-2.8-4.7-4.3c-1.3-1.2-2.1-2.7-1.8-4.5c0.1-1.1-0.2-1.9-1-2.8c-1.5-1.5-2.8-3.1-4.1-4.8c-2.3-3-3.1-6.5-2.8-10.2
		c0-0.1,0.1-0.2,0.2-0.4c0.3,0.2,0.7,0.4,0.9,0.7c2.1,2.2,4.2,4.5,6.3,6.7c1,1.1,1.8,2.4,2.1,3.9c0.1,0.5,0.3,1.1,0.4,1.6
		c0.7,4.4,2.6,8.3,4.8,12c0.2,0.3,0.3,0.5,0.5,0.8c0.1,0.1,0.2,0.2,0.4,0.3c0.7-2-0.1-4,0.1-6.4c0.5,0.5,0.7,0.7,0.9,1
		c1.5,2.4,2.2,5,2.3,7.7c0,1.1,0,2.2,0.2,3.3c0.2,2.1,1,4.1,2.3,5.8c1.6,2.2,3.3,4.3,5.4,6.1C252.2,90.9,252.3,91.1,252.6,91.4z"/>
	<path d="M247.5,52c0.2-0.2,0.3-0.3,0.5-0.5c2.2-2.1,4.9-3.5,7.9-4.1c0.2,0,0.5-0.1,0.7-0.2c2.5-1,4.5,0.1,6.3,1.5
		c1.3,1.1,2.3,2.5,3,4c0.6,1.3,0.7,2.5,0.1,3.8c-0.7,1.4-1.4,2.8-2.6,3.9c-0.8,0.7-1.4,1.7-2.1,2.5c-0.3,0.3-0.5,0.6-1.1,0.8
		c0.1-0.4,0-0.8,0.2-1.1c1.1-2.6,1.8-5.4,2-8.2c0.1-0.7,0.1-1.3-0.3-1.9c-0.8-1-1.6-2-2.5-3.1c-1.8,0.6-3.5,1.2-5.5,1.8
		c1.6,2.9,2.6,5.7,1.2,9.2c-0.8-1.4-1.5-2.6-2.2-3.7c-0.7-1.1-1.5-2.2-2.3-3.3c-0.8,0.2-1.5,0.8-2.1,1.3c-0.3,0.3-0.5,0.8-0.4,1.3
		c0.3,4,2.3,5.6,5.6,6.7c0.6,0.2,1.3,0.4,1.9,0.6c0.1,0,0.1,0.2,0.2,0.3c-0.9,0.8-3.4,1.3-5.4,1.1c-1.7-0.2-2.6-0.8-4.7-3.4
		c-1.4,0.9-2.8,1.9-4.5,3c0.1-2.3,0.2-4.2,2-5.6c0.6-0.5,0.9-1.2,1.1-2C245.2,54.8,246.3,53.4,247.5,52z"/>
	<path d="M257.3,69.9c0.3,2.3,1.2,4.4-0.4,6.4c-1.1-0.8-1.2-2.1-1.9-3.1c-0.7-0.9-1.3-1.8-2.1-2.9c-0.9,0.6-1.8,1.1-2.5,1.8
		c-1.1,1-1.4,2.8-0.8,4.1c1.1,2.5,3.1,4.5,6.7,4c1.2-0.2,2.4-0.4,3.5-0.6c0.6-0.1,1.1-0.2,2-0.4c-0.4,0.5-0.5,0.9-0.8,1.1
		c-2.2,1.5-4.4,3-7.1,3.4c-1.8,0.3-3.4-0.1-4.9-1.3c-2.8-2.5-3.7-5.5-2.8-9.1c0.5-2.2,1.4-4.1,3.4-5.3c1-0.6,2.1-1,3.2-1.2
		c2.3-0.2,4.7-0.4,7,0.5c0.7,0.3,1.5,0.3,2.3,0.5c3.1,0.8,4.3,2.3,4.1,5.8c0,0.7-0.2,1.4-0.5,2.1c-1.1-1.6-1.8-3.5-3.6-4.4
		c-0.6-0.3-1.3-0.7-2-0.9C259.2,70.2,258.4,70.1,257.3,69.9z"/>
	<path d="M90.4,85.6c-4.5,8.1-11.9,11.9-20.3,14.9c0.2-0.5,0.3-0.8,0.4-1.1c0.4-0.7,0.7-1.5,1.1-2.2c0.7-1.2,1.8-1.9,3-2.5
		c4.1-2,8-4.5,11.3-7.7C87.2,85.7,88.5,85.3,90.4,85.6z"/>
	<path d="M222,35.6c1,0.1,1.8,0.2,2.6,0.2c0.8,0.1,1.7,0.1,2.5,0.2c0.9,0.2,1.7,0.1,2.1-1c-1.6-1.4-3-3-5.3-3.3
		c-0.2-0.9,0.2-1.2,0.9-1.4c2.8-0.7,6.4,1.3,7.3,4.2c0.1,0.3,0,0.8-0.2,1c-0.7,0.9-1.4,1.8-2.3,2.5c-1.1,0.9-2.5,0.9-3.8,0.4
		c-1.3-0.5-2.4-1.4-3.5-2.1C222.3,36.3,222.2,36,222,35.6z"/>
	<path d="M244.3,48c-1.2-1.3-2.2-2.5-3.1-3.7c-0.2-0.3-0.2-0.8-0.1-1.1c0.4-0.7,0.9-1.2,1.4-1.8C244.7,42.8,245.4,45.5,244.3,48z"/>
</g>
</svg>
