<?xml version="1.0" encoding="utf-8"?>
<!-- Generator: Adobe Illustrator 17.1.0, SVG Export Plug-In . SVG Version: 6.00 Build 0)  -->
<!DOCTYPE svg PUBLIC "-//W3C//DTD SVG 1.1//EN" "http://www.w3.org/Graphics/SVG/1.1/DTD/svg11.dtd">
<svg version="1.1" id="Layer_1" xmlns="http://www.w3.org/2000/svg" xmlns:xlink="http://www.w3.org/1999/xlink" x="0px" y="0px"
	 viewBox="0 0 288 216" enable-background="new 0 0 288 216" xml:space="preserve">
<g>
	<path d="M112.4,154.7c-1.4-1.8-3.4-1-4.8-1.5c-1.4,0.9-2.5,1.6-3.6,2.3c0.1,0.1,0.1,0.2,0.2,0.3c0.3,0,0.6-0.1,1-0.1
		c0,2.3,0,2.3,3.3,5.7c0.3-0.7,0.5-1.4,1-2.1c0.6-0.9,1.1-1.7-0.2-2.6C111.1,157.1,111.8,156,112.4,154.7z"/>
	<path d="M159.3,25.5c-0.5-0.3-1-0.3-1.3,0.1c-0.4,0.4-0.5,0.9-0.2,1.3c0.2,0.4,0.7,0.6,1.1,0.6c0.6-0.1,0.9-0.4,0.9-1
		C159.1,26.3,159,26.1,159.3,25.5z M159,26.9c-0.1-0.2-0.2-0.3-0.2-0.3c0-0.1,0.2-0.2,0.2-0.2c0.1,0.1,0.2,0.2,0.2,0.3
		C159.3,26.7,159.1,26.8,159,26.9z"/>
	<path d="M212.6,160.1c-1-4.6-3.1-8.8-6.2-12.4c-1-1.1-1.9-2.2-3-3.3c-1.6-1.7-3.2-3.4-5.8-3.5c-0.2,0-0.3-0.4-0.7-0.8h1.9
		c-0.3-0.8-0.6-1.5-0.9-2c-9.8-17.2-24.7-26.2-44.4-27.3c-1-0.1-2.5,0.3-3,1c-1.5,2-3.6,3.8-3.5,6.8c-0.6-0.3-1.1-0.5-1.7-0.7
		c1.4-2.1,2.6-4.1,3.9-6c-0.7-1.1-1.5-1.1-2.4-1c-3.9,0.4-7.7,1.4-11.2,3.1c-2.3,1.1-4.2,3-6.9,2.4c-1.3,4.1-2.6,8-3.8,11.9
		c-0.9-0.1-1.6-0.2-2.1-0.3c-0.6,1-1.1,1.8-1.7,2.7c0.4,0.7,0.9,1.6,1.4,2.4c-1.4,2.8-2.3,5.9-4.3,8.5c-2,2.5-3.8,5.1-5.6,7.7
		c-1.2,1.7-1.1,2,1,3.3c0.1-0.2,0.3-0.5,0.5-0.7c3.3-4.8,6.6-9.6,9.9-14.4c0.3-0.4,0.5-1,0.9-1.3c1.2-1,2.1-2.1,2-3.8
		c3.3,1.2,6.3,3.8,6.5,5.7c-0.9-0.5-1.7-1-2.5-1.4c-0.8-0.4-1.7-1.3-2.8,0.1c1.5,1.4,3,2.7,4.4,4c-0.7,1.8-1.3,3.4-2.1,5.3
		c-1.8-1.1-3.6-2.2-5.6-3.4c-1.3,1.9-2.5,3.8-3.9,5.9c0.4,0.2,0.6,0.3,0.8,0.4c0.2,0.1,0.3,0.3,0.5,0.6c-0.5,0.2-0.9,0.5-1.3,0.6
		c-1.9,0.3-1.9,0.3-2.3,2.5c1.3,1.2,2.8,2.5,4.2,3.7c-0.7,1.1-1.3,1.9-2,3c-0.8-0.5-1.6-0.9-2.4-1.4c-0.5-0.3-0.9-0.9-1.5-1.1
		c-1.1-0.4-2.2-0.6-3.4-0.7c-0.4,0-0.8,0.7-1.4,1.3c0.7,0.6,1.2,1,1.8,1.4c1.6,1.1,1.6,1.1,0.9,3.3c-1.1-0.7-2.2-1.4-3.6-2.3
		c-0.4,0.9-0.7,1.6-1.1,2.4c-0.1,0-0.3-0.1-0.5-0.1c-0.2,0-0.4,0.1-0.6,0.1c0.3,1.9,3.2,2,3,4.4c-0.7-0.4-1.4-0.7-2.4-1.2
		c0.9,1.2,2,2,2.1,3c0.2,1.3,0.8,2.2,1.7,2.9c2,1.5,4,3,6.1,4.3c1,0.6,2.1,0.9,3.3,1.2c0.5,0.1,1.2-0.3,1.8-0.3c1.1-0.2,0-1,0.3-1.2
		c1.2-0.4-0.5-0.9,0-1.3c3.8,1.9,7.6,3.8,11.4,5.7c-3.2,0.8-14.7,1.5-17.1,0.1c-0.3,0.4-0.5,0.9-0.6,1c-1.6-0.1-2.8-0.3-4.2-0.4
		c0.9-2-0.7-2.7-1.9-3.6c-2.9-2-5.8-4-8.7-6c-0.7,0.4-1.2,0.7-1.9,1.1c-6.2-4.1-11.1-9.2-14.5-15.9c-2.1-4.1-2.5-8.4-1-12.7
		c2.4-7,6-13.4,12.1-17.9c3.9-2.8,7.9-5.6,12-8.1c10.9-6.7,22.4-12.2,33.8-17.8c3.3-1.6,6.7-3.3,10-5c0.1,0,0.1,0,0.2-0.1
		c0.5-0.2,1.3-0.6,2.2-1.2c0.1-0.1,0.2-0.1,0.3-0.2c0,0,0,0,0,0c4.7-2.5,13.5-7.1,18-9.5c-0.2,0.2-0.3,0.4-0.5,0.7
		c0.4-0.2,0.9-0.3,1.3-0.5c0.6-0.5,1.2-1,1.8-1.6c0.3-0.3,0.6-0.5,0.9-0.6c1.4-1.6,2.8-3.2,4.4-4.6c2.5-2.4,5.1-4.6,7.6-7
		c2-1.9,4.1-3.8,6.1-5.6c0.1-0.1,0.1-0.1,0.2-0.2c0.7-0.7,1.4-1.3,2-2c2.3-2.3,4.4-4.8,6.3-7.5c1.5-2,2.4-4.2,2.9-6.7
		c0.2-0.9,0.3-1.9,0.4-2.8c0-0.1,0-0.2,0-0.2c0-0.1,0.1-0.2,0.1-0.3c0.1-2.5-0.1-5.1-0.6-7.5c-0.3-1.3-0.5-2.6-1-3.8
		c-0.4-1-1-1.9-1.6-2.9c-1.4-2-3-3.6-5.4-4.5c-2.4-0.9-4.8-1.2-7.3-1.4c-1.1-0.1-2.2-0.1-3.3-0.1c-0.2,0-0.3,0-0.5-0.1
		c-1.8-0.5-3.6-1.1-5.3-1.6c-3.4-0.9-6.8-1.9-10.2-2.6c-2.8-0.6-5.6-1.1-8.4-1.6c-1.6-0.3-3.3-0.4-5-0.5c-1.2-0.1-2.4-0.1-3.7-0.2
		c-0.8,0-1.5,0.1-2.3,0.1c-0.4,0-0.9,0-1.3,0c-1.8-0.2-3.5,0.2-5,1.4c-0.2,0.2-0.4,0.4-0.6,0.6c-0.2,0.4-0.4,0.8-0.1,1.3
		c-0.8,0.5-1.6,0.9-2.3,1.4c-0.5,0.4-1,0.8-1.4,1.3c-0.5,0.6-0.9,1.2-1.4,1.8c0,0-0.1,0.1-0.1,0.1c-1.4,1.1-1.5,3.6-0.3,4.9
		c0.5,0.5,1,0.7,1.7,0.9c0.1,0.4,0.1,0.9,0.2,1.3c0.1,0.3,0.3,0.6,0.4,0.8c0.1,0.3,0.2,0.7,0.3,1c0.4,1.9,1.2,3.7,2.6,5.1
		c0,0,0.1,0.1,0.2,0.1c-0.7-2.6-1.5-5.2-0.3-7.9c1.1,0.8,2.3,1.2,3.7,1.3c0,0.2,0,0.4,0,0.6c0,0.2,0,0.3,0.1,0.5
		c0.5,0.7,0.4,1.5,0.7,2.3c0,0.1,0,0.2,0,0.3c-0.2,1.6-0.4,3.2-0.6,4.8c-0.2,1.7-0.7,3.3-1.8,4.6c-0.2,0.2-0.3,0.6-0.4,0.9
		c0,0.1-0.1,0.2-0.1,0.3c-0.7,0.9-1.5,1.7-2.2,2.6c-1.5,1.9-3.4,3-5.7,3.6c-0.6,0.2-1.2,0.3-1.8,0.4c2.6,0,4.9-0.7,7.1-2.2
		c-0.8,2.7-2.2,4.7-4.6,5.9c0,0,0.1,0.1,0.1,0.1c0.6-0.3,1.2-0.6,1.8-1c1.7-1.2,2.7-2.9,3.5-4.7c0.4-1,1-1.9,1.5-2.8
		c0.2-0.3,0.5-0.5,0.7-0.7c0.7,0.5,1.4,1,2,1.3c1.5,0.7,3.1,0.7,4.5-0.2c0.8-0.6,1.6-1.3,2.4-2c0.1,0.1,0.2,0.2,0.3,0.4
		c1.5,1.6,3,3.3,4.6,4.9c2.1,2.2,4,4.4,5.4,7.1c0.7,1.4,1.1,2.9,1.2,4.5c0,0.1,0,0.2,0.1,0.3l-0.1,1.6c-0.1,0.5-0.2,0.9-0.3,1.4
		c-0.3,1.3-0.8,2.4-1.4,3.6c0,0-8.4,10.2-13,12.6c-0.3,0.2-0.7,0.3-1,0.5c-15,7.8-29.9,15.5-44.9,23.2c0,0-0.5,0.1-1.3,0.4
		c-0.1-0.1-0.2-0.2-0.3-0.3c0-0.1,0.1-0.1,0.1-0.2c-3.6,1.3-7,3.3-10.1,5.5c0,0,0,0.1-0.1,0.1c-9.8,6.3-21.6,18.6-17.8,40.1v1.4
		c0.5,1.6,0.8,3.2,0.9,4.9c1.3,2.5,2.8,4.9,4.6,7.1c4.5,5.6,10.4,9.7,15.6,14.5c1.6,1.5,3.6,2.4,5.3,3.8c3.1,2.6,6.4,4.6,10.7,5.3
		c-1.8,0.3-3.4,0.5-4.9,0.8c0,0.2,0,0.3,0,0.5c0.6,0.1,1.1,0.3,1.7,0.4c3.2,0.3,6.5,0.6,9.8,0.9c3.4,0.3,6.8,0.6,10.2,1
		c3.9,0.4,7.9,0.7,11.8,1.1c4.6,0.5,9.1,1.2,13.6,1.7c2.5,0.3,5.1,0.3,7.7,0.6c3.3,0.5,6.7,0.5,10-0.1c1.4-0.3,2.9-0.5,4.4-0.5
		c3.5-0.2,7-0.2,10.5-0.6c2.1-0.2,4.1-0.8,6.1-1.4c0.6-0.2,1.1-0.8,1.8-1.4c-1-0.8-1.8-1.5-2.5-2.1c2.8-2.2,5.7-4.5,8.5-6.8
		c4.6-3.8,7.7-8.3,7.5-14.6c0-0.9,0.2-1.9,0.2-2.8C212.8,165.2,213.2,162.6,212.6,160.1z M163.1,18.7c1.4,0.2,2.8,0.4,4.3,0.6
		c1.6,0.2,3,0.7,4.4,1.4c0.2,0.1,0.4,0.2,0.6,0.3c0,0,0-0.1,0-0.1l-0.9-0.6c5.4,1.2,10.8,2.7,16.1,4.5c-1.1,0.1-2.2,0.3-3.3,0.3
		c-1.4,0-2.8,0-4.2-0.1c-0.4,0-0.9,0-1.3-0.3c-1.1-0.8-2.1-1.6-3.3-2.3c-1.8-1-3.7-1.5-5.7-1.2c-0.4,0.1-0.7,0-1-0.2
		c-0.4-0.2-0.8-0.3-1.2-0.4c-1.6-0.5-3.3-0.8-4.7-1.8C163,18.7,163,18.7,163.1,18.7z M163.3,22.2c-0.1,0-0.3-0.1-0.3-0.2
		c-0.6-1-1.6-1.4-2.7-1.6c-0.8-0.2-1.6-0.3-2.4-0.5c0,0,0,0,0-0.1c0.9-0.1,1.8-0.2,2.8-0.2c2,0,4,0.3,5.9,0.8
		c1.2,0.3,2.3,0.7,3.4,1.3c0.1,0.1,0.3,0.3,0.3,0.4c0,0.2-0.2,0.3-0.4,0.4c-0.1,0.1-0.2,0.1-0.3,0.1C167.4,23,165.3,22.8,163.3,22.2
		z M164.5,32.7c-0.4,0.6-0.8,1.1-1.2,1.7C163.4,33.3,163.6,33,164.5,32.7z M157.4,27c-0.3-0.3-0.4-0.7-0.3-1.2
		c0-0.1,0.2-0.2,0.3-0.3c1.1-0.1,1.9-0.6,2.9-1.1c0.5,0.4,0.9,0.8,1.1,1.4c0.2,0.7-0.2,1.2-0.7,1.5C159.7,28,158.2,27.8,157.4,27z
		 M159.8,36.8c0,0.8-0.3,1.5-0.8,2.1c0.2-1.7,0.3-3.4,0.5-5.2c0,0.2,0.1,0.3,0.1,0.5C159.7,35.1,159.8,36,159.8,36.8z M157.7,24.3
		c0.2-0.4,1-0.5,1.4-0.2C158.6,24.1,158.2,24.2,157.7,24.3z M161,34.3c0.1-0.6,0.5-0.9,1.1-0.9c0.3,0,0.4,0.1,0.4,0.3
		c0,1.3-0.7,2.1-1.6,3C160.7,35.8,160.8,35.1,161,34.3z M158,22.5c-0.1,0.3-0.1,0.5-0.2,0.6c-0.4,0.3-0.8,0.7-1.2,1
		c-0.1,0.1-0.2,0.2-0.4,0.2c-0.1,0-0.2,0-0.3-0.1c0,0,0-0.2,0-0.2c0.1-0.2,0.3-0.3,0.5-0.5c0.3-0.3,0.5-0.5,0.8-0.8
		c0,0-0.1-0.1-0.1-0.1c-0.3,0.1-0.6,0.2-0.9,0.3c-0.1,0-0.3,0.1-0.3,0.1c-0.3-0.1-0.5-0.2-0.8,0.1c0,0.1-0.3,0-0.4,0
		c-0.2,0-0.4-0.1-0.6-0.1c-0.2,0-0.5,0-0.7,0c-0.2,0-0.4-0.1-0.3-0.4c0.1-0.3,0.2-0.6,0.3-1c0.3-0.7,0.7-1,1.3-0.9
		c0,0.1,0.1,0.3,0.1,0.4c0,0.1,0,0.4-0.1,0.4c-0.4,0.2-0.2,0.4-0.2,0.7c0.2-0.2,0.4-0.4,0.6-0.6c0.5-0.6,1.1-1.1,1.9-1.2
		c1.5-0.1,3,0,4.3,0.7c0.6,0.3,0.8,0.8,1,1.5C160.9,21.8,159.4,22.3,158,22.5z M153.7,41.2c-0.4,1.3-0.7,2.5-1.1,3.8
		c-0.3,0.8,0,1.4,0.5,1.9c0.3,0.4,0.3,0.5-0.2,0.7c-0.1-0.7-0.8-0.8-1.3-1c0.7-1.9,1.3-3.8,2-5.9C153.7,41,153.8,41.1,153.7,41.2z
		 M153.7,39.4c0.4-1.5,0.8-3,0.8-4.5c0-0.1,0.1-0.2,0.1-0.4c0.6,0.8,0.7,1.6,0.5,2.5c-0.1,0.5-0.2,1.1-0.4,1.6
		c-0.2,0.7-0.5,1.4-0.8,2.1c0,0-0.1,0-0.1,0C153.7,40.3,153.6,39.9,153.7,39.4z M153.3,47.7c0,0,0.1,0.1,0.1,0.1l-0.4,0.3
		c0-0.1-0.1-0.1-0.1-0.2C152.9,47.8,153.1,47.8,153.3,47.7z M152.8,46c-0.1-0.1-0.1-0.3-0.1-0.4c0.6-1.6,1.8-2.8,2.7-4.3
		c0.5,0.4,0.7,0.8,0.7,1.4c-0.1-0.1-0.2-0.1-0.3-0.1c-0.2,0-0.3-0.1-0.5-0.1c0,0.2-0.1,0.3-0.1,0.5c-0.1,0.7-0.1,1.4-0.2,2
		c-0.1,0.3-0.3,0.6-0.5,1c-0.3-0.6-0.5-1.1-1.1-1C153,45,153,45.6,152.8,46z M155.3,23.6c0-0.1,0.1-0.1,0.2-0.1
		c0.2,0,0.3-0.1,0.5-0.1c0,0.1,0.1,0.1,0.1,0.2c-0.1,0.1-0.3,0.2-0.4,0.3c-0.1,0-0.2,0-0.3,0C155.4,23.8,155.3,23.6,155.3,23.6z
		 M151.7,21.6c0.1-0.7,0.5-1.2,0.9-1.7c0.6-0.7,1.7-0.6,2.2,0.3c-0.1,0-0.1,0.1-0.2,0.1c-0.3,0.1-0.7,0-0.9,0.2
		c-0.3,0.2-0.6,0.5-0.8,0.8c-0.2,0.2-0.2,0.5-0.4,0.8c-0.2,0.3-0.5,0.3-0.7,0.1C151.5,22,151.7,21.8,151.7,21.6z M150.9,20.8
		c-0.1,0.2-0.2,0.5-0.3,0.7c-0.1,0.1-0.2,0.2-0.3,0.3c-0.1-0.2-0.3-0.3-0.3-0.5c0-0.8,0.8-1.7,1.7-1.9c0.2-0.1,0.4,0,0.7,0
		c0,0.1,0,0.1,0,0.2c-0.2,0.2-0.4,0.4-0.7,0.4C151.3,20.1,151.1,20.4,150.9,20.8z M153.7,20.5c0,0,0.1,0.1,0.1,0.1l-0.5,0.6
		c0,0-0.1-0.1-0.1-0.1C153.3,20.9,153.5,20.7,153.7,20.5z M169.9,21.4c3.1-0.4,5.5,1.1,7.8,2.9C174.7,24.3,172,23.6,169.9,21.4z
		 M153.8,18.7c2.2-0.4,4.5-0.5,6.8-0.3c1,0.1,2,0.4,2.9,0.8c0.1,0.1,0.2,0.2,0.3,0.3c0,0,0,0,0,0.1c-0.5-0.1-0.9-0.1-1.4-0.2
		c-2.2-0.3-4.4-0.3-6.5,0.5c-0.2,0.1-0.6,0.1-0.8,0c-0.7-0.4-1.4-0.8-2.2-0.5c0,0-0.1,0-0.2-0.1c0,0,0-0.1,0-0.1
		C153,19,153.4,18.8,153.8,18.7z M152.5,18.4c0.3-0.1,0.7,0,1.1,0l0,0.1c-0.5,0.2-1,0.4-1.4,0.6c0,0-0.1-0.1-0.1-0.1
		C152.2,18.8,152.3,18.4,152.5,18.4z M148.3,20c0.4-0.6,0.9-0.9,1.6-1.2c0.7-0.3,1.4-0.4,2.1-0.5c0,0,0.1,0.1,0.1,0.1
		c-0.2,0.2-0.3,0.5-0.6,0.6c-0.7,0.3-1.1,0.9-1.7,1.3c-0.5,0.4-0.5,0.4-1,0.1c0,0-0.1,0-0.1,0c0,0,0,0.1-0.1,0.1
		c-0.2,0.1-0.3,0.1-0.5,0.1c0-0.2-0.1-0.3-0.1-0.5C148.2,20.2,148.3,20.1,148.3,20z M146.8,22.6c0.2-0.6,0.8-0.8,1.4-0.9
		c0.6-0.1,1.1,0.2,1.4,0.7c-0.4,0.4-0.8,0.7-1.2,1c0-0.1,0.1-0.2,0.1-0.3c0,0-0.1,0-0.1-0.1c-0.3,0.5-0.7,0.9-1,1.4
		C147.1,23.9,146.6,23.3,146.8,22.6z M146.4,22.6c-0.2,0.8-0.9,0.6-1.3,0.9c0,0,0-0.1-0.1-0.1C145.5,23.1,145.9,22.8,146.4,22.6z
		 M144.5,24c0.5-0.3,1.1-0.4,1.6-0.6c0.1,0,0.4,0.1,0.4,0.3c0.2,0.4,0.3,0.8,0.5,1.1c-0.3,0.3-0.6,0.6-0.8,1
		c-0.3,0.4-0.6,0.6-1.1,0.7c-0.3,0.1-0.5,0-0.6-0.3c-0.1-0.2-0.2-0.3-0.3-0.4C143.6,25.2,143.7,24.5,144.5,24z M141.9,29.4
		c-0.1,0-0.2-0.2-0.2-0.3c-0.3-1.3-0.1-2.4,1.1-3.3c0.1,0,0.2-0.2,0.2-0.2c-0.1-0.4,0.2-0.4,0.4-0.6c-0.3,0.6-0.2,1.2-0.2,1.8
		c0,0.2,0,0.4-0.1,0.5c-0.3,0.6-0.6,1.2-0.9,1.7C142.2,29.3,142,29.4,141.9,29.4z M144.4,33.3c-0.1-0.3-0.2-0.6-0.3-0.9
		c-0.1-0.3,0.1-0.5,0.4-0.4c0.1,0,0.2,0.1,0.5,0.2c-0.2,0.1-0.3,0.2-0.5,0.3c0,0,0,0.1,0,0.1c0.3,0.1,0.6,0.3,0.9,0.4
		c-0.1,0.2-0.2,0.3-0.4,0.5c0,0,0,0.1,0,0.1c0.3,0,0.7,0,1-0.1C145.5,33.9,144.6,33.8,144.4,33.3z M146.8,39.3
		c-1.2-1.5-1.8-3.3-2.1-5.2c0.4,0.1,0.7,0.1,1,0.2c0,1,0.1,2,0.4,3c0-0.8-0.1-1.5-0.1-2.2C146.2,36.5,146.5,37.9,146.8,39.3z
		 M147.3,29.4c-0.1,0.3-0.2,0.7-0.3,1.1c-0.3-0.1-0.5-0.5-0.8-0.2c-0.1-0.1-0.2-0.3-0.4-0.3c-0.4-0.1-0.8-0.3-1,0.3
		c0,0.1-0.1,0.1-0.2,0.1c-0.5,0.1-1,0.2-1.5,0.2c-0.1,0-0.2-0.1-0.3-0.2c-0.4-0.7,0-2.2,0.7-2.6c0.6-0.3,1.3-0.6,2-0.8
		c0.1,0,0.3,0,0.4,0.1c0.5,0.6,0.9,1.3,1.4,1.9C147.3,29.1,147.3,29.3,147.3,29.4z M151.8,23.9c-0.6,0.2-1.1,0.3-1.7,0.5
		c0.2,0.2,0.5,0.4,0.8,0.7c-0.7,0.5-1.3,0.9-1.9,1.4c0,0-0.1-0.1-0.1-0.1c0-0.1,0.1-0.2,0.1-0.4c-0.1,0-0.2,0-0.2,0
		c-0.6,0.1-1,0.4-1.2,1c-0.2,0.5-0.7,0.6-1,0.4c-0.4-0.3-0.6-1-0.2-1.4c0.3-0.4,0.7-0.7,1.1-1c0.6-0.3,1.3-0.5,2-0.7h-1.2
		c0.3-0.5,0.7-0.7,1.3-0.8c-0.2-0.1-0.3-0.1-0.5-0.2c0.4-0.5,0.9-0.8,1.5-0.6c0.6,0.1,1.1,0.4,1.7,0.6c0.1,0.1,0.3,0.3,0.3,0.5
		c0,0.1-0.1,0.3-0.3,0.4c-0.3,0.2-0.6,0.4-1,0.6c-0.1,0.1-0.2,0.1-0.3,0.2c0.1-0.5,0.5-0.6,0.9-0.9C151.8,24,151.8,24,151.8,23.9z
		 M151.6,33.8c0,0.2-0.1,0.3-0.1,0.4c0.2,0.1,0.2,0.3,0.3,0.3c0.1,0.1,0.3,0.2,0.4,0.1c0.3-0.1,0.5-0.3,0.8-0.5
		c-0.4,0.7-1.1,0.9-1.6,0.5c-0.2-0.1-0.2-0.4-0.3-0.6C151.2,34,151.3,33.9,151.6,33.8z M151.3,35.2c0.3,0.1,0.6,0.1,0.9,0.1
		c0,0.5,0,0.9,0.1,1.4c0.1,0.5,0.2,0.9,0.3,1.4c-0.1-1-0.1-2,0.1-3c-0.2,2,0.2,3.8,0.9,5.6C152.2,39.2,151.7,37.2,151.3,35.2z
		 M151.9,38.3c0.3,0.6,0.8,1.1,0.7,1.9c-0.3,1.3-0.5,2.7-0.8,4c-0.2,0.7-0.5,1.3-0.8,2c-0.1,0.3-0.4,0.4-0.8,0.4
		C151.9,44.1,151.6,41.2,151.9,38.3z M157.3,45.6c-0.2,0.4-0.3,0.8-0.5,1.3c-0.2,0.4-0.4,0.9-0.7,1.3c-0.3,0.3-0.7,0.6-1,0.8
		c-0.9,0.6-1.9,0.7-2.9,0.7c-0.9,0-1.6-0.5-2.3-1.1c0.6-0.3,1.1-0.5,1.7-0.3c0.5,0.2,1.2,0.2,1.7,0.2c1.2-0.2,2.2-0.9,2.8-2
		c0.9-1.5,1.6-3.1,2.1-4.7c0.8-2.1,2.1-3.9,3.8-5.3c0.7-0.6,1.3-1.2,1.9-1.9c0.2-0.2,0.4-0.5,0.6-0.8c0,0.1,0.1,0.1,0.1,0.1
		c0,0.1,0,0.2,0,0.2c-0.2,1-0.7,2-1.3,2.8c-0.6,0.8-1.3,1.5-2,2.2c-1.2,1.3-2.1,2.8-2.9,4.3C158,44.1,157.6,44.9,157.3,45.6z
		 M166.4,55.1c-1.8-2-3.7-3.9-5.6-5.8c-0.8-0.8-1.5-1.6-2.3-2.4c0.8-1.1,1.5-2.2,2.3-3.3v2c0,0,0.1,0,0.1,0c0.2-0.3,0.3-0.7,0.5-1.1
		c0.9,1.4,1.5,2.8,1.2,4.4c0,0,0.1,0,0.1,0c0.1-0.6,0.2-1.3,0.3-2c1,1,1.4,2.3,1.6,3.7c0.1-0.2,0.1-0.3,0.1-0.5c1.1,1,1.7,2.2,2,3.7
		c0-0.2,0.1-0.3,0.1-0.6c1.3,1.2,1.9,2.7,2.6,4.2c-0.3-1.7-0.7-3.2-1.9-4.5c0,0,0-0.1,0.1-0.1c0.5,0.2,0.9,0.4,1.4,0.6
		c0,0,0-0.1,0.1-0.1c-0.6-0.3-1.2-0.6-1.8-0.9c-0.1-0.1-0.3-0.2-0.3-0.3c-0.2-0.7-0.5-1.2-1-1.7c-0.6-0.6-1.1-1.2-1.3-2.1
		c-0.1-0.4-0.4-0.8-0.6-1.2h2.8c-0.8-0.2-1.7-0.3-2.5-0.3c-0.3,0-0.7,0.1-0.9-0.3c-0.2-0.3-0.5-0.5-0.6-0.8
		c-0.5-0.8-0.9-1.6-1.3-2.5c-0.3-0.5-0.6-1.1-0.1-1.7c0.3-0.3,0.4-0.7,0.7-1.1c0.8-1.3,1.9-2.4,3-3.4c0.9,0.6,1.9,0.9,2.8,1.6
		c-2.2-0.2-3.9,0.4-4.4,1.1c0.1,0,0.1-0.1,0.2-0.1c1-0.5,2-0.7,3-0.5c0.3,0,0.6,0.1,0.9,0.1c0.2,0.1,0.5,0.2,0.7,0.2
		c0.6,0.2,1.3,0.3,1.8,0.7c0.8,0.5,1.5,1.2,2.3,1.8c0.3,0.3,0.6,0.6,0.9,0.9c0,0,0,0.1-0.1,0.1c-1.2-0.5-2.4-0.7-3.7-0.6
		c1.1,0.2,2.1,0.4,3,0.9c0.9,0.5,1.9,1,2.4,1.9c0.8,1.3,1.8,2.5,2,4.1c0,0.1,0,0.1,0.1,0.2c0.2,0.4,0.3,0.9,0.5,1.4
		c-1.6-1.4-3.3-2.2-5.4-2.6c0.1,0.1,0.1,0.1,0.1,0.1c0.1,0,0.2,0.1,0.3,0.1c2,0.7,3.5,1.9,4.8,3.6c0.3,0.4,0.4,0.8,0.4,1.3
		c-0.2,1.1-0.4,2.2-0.6,3.4c-0.1,0.4-0.2,0.8-0.4,1.3c-1.6-2.3-4.6-3.5-5.6-3.7c0.7,0.4,1.6,0.9,2.4,1.5c1.3,1,2.7,1.9,2.7,3.8
		c-0.1,0.4-0.3,0.7-0.4,1.1c-0.3,1-0.7,1.9-1.2,2.7c-0.3-0.4-0.6-0.9-0.9-1.3c-0.3-0.3-0.6-0.7-0.9-1c-0.6-0.5-1.3-0.9-1.9-1.2
		c0.7,0.7,1.3,1.3,2,2c0.2,0.2,0.3,0.4,0.5,0.6c0,0.1,0.1,0.3,0.1,0.4c0.4,0.9,0.5,1.8-0.2,2.6c-0.3,0.4-0.6,0.8-1,1.3
		c-0.1-0.3-0.2-0.5-0.3-0.7c-0.3-0.5-0.6-0.9-0.9-1.4c-0.1-0.2-0.3-0.5-0.4-0.6c-0.2-0.2-0.3-0.5-0.3-0.8c0-0.6-0.1-1.3-0.2-1.9
		c-0.1-0.4-0.2-0.8-0.2-1.2c0,0-0.1,0-0.1,0v2.2c-0.1,0-0.1-0.1-0.1-0.1C169.6,59.4,168.2,57.1,166.4,55.1z M169.8,69.5
		c0.1-0.3,0.3-0.7,0.4-1.1c0.2-0.6,0.3-1.3,0.4-2c0-0.3,0.1-0.7,0.1-1c0.1-0.4,0.2-0.9,0.2-1.4c0.2,0.3,0.4,0.5,0.5,0.6
		c0.1,0.4,0.3,0.8,0.3,1.2c0.1,0.6,0.1,1.3,0.2,1.9c-0.3,0.3-0.6,0.6-0.9,0.9c-0.6,0.6-1.1,1.3-1.7,1.9
		C169.5,70.3,169.6,69.9,169.8,69.5C169.8,69.5,169.8,69.5,169.8,69.5L169.8,69.5z M156.6,84.7c0-0.1,0-0.2,0-0.2
		c0.2,0,0.6-0.3,1.2-0.6c0-0.1,0.1-0.2,0.1-0.3c0-0.1,0.1-0.1,0.1-0.2c1.3-0.7,2.7-1.6,3.9-2.5c0.9-0.7,1.8-1.5,2.5-2.4
		c0,1.1,0.4,1.9,1.3,2.6c0.5,0.3,1,0.6,1.6,0.7c1.3,0.4,2.7,0.7,4.1,0.4c0.4-0.1,0.8-0.3,1.2-0.5c0,0,0-0.1,0-0.1
		c-0.1,0-0.1,0-0.2,0c-1.3,0.4-2.6,0.1-3.9-0.4c-0.5-0.2-1-0.3-1.5-0.5c-1.4-0.5-2.1-1.7-2-2.9c1-1.3,1.9-2.7,2.7-4
		c0.4-0.4,0.7-0.8,1.1-1.2c0.1-0.2,0.3-0.3,0.5-0.5c0,0.3,0,0.4,0,0.6c-0.2,1.9,0.9,3.1,2.5,3.8c1.5,0.6,3.1,0.8,4.8,0.8
		c0.1,0,0.1,0,0.2-0.1c-0.4-0.2-0.8-0.4-1.3-0.5c-1-0.3-2.1-0.6-3.1-0.9c-1.9-0.6-2.6-2-2.3-3.8c0.1-0.5,0.4-0.9,0.7-1.3
		c0.5-0.6,1-1.2,1.5-1.8c0.1-0.1,0.1-0.2,0.2-0.3c0.2-0.2,0.4-0.4,0.5-0.6v1.1c-0.1,0.9,0.2,1.6,0.9,2.1c0.7,0.4,1.4,0.7,2.1,1
		c0.2,0.1,0.4,0.1,0.6,0.2c0.4,0.2,0.7,0.4,0.8,0.9c0,0.1,0.1,0.3,0.2,0.4c0.1,0,0.3-0.1,0.4-0.2c0.5-0.5,1.1-0.8,1.9-1
		c0.2,0,0.3-0.1,0.5-0.3c-0.5-0.1-1-0.2-1.4-0.3c-1.5-0.3-2.9-0.8-4.3-1.4c-0.1,0-0.2,0-0.2,0c-0.2-0.2-0.4-0.4-0.6-0.6
		c-0.1-0.6-0.2-1.3-0.2-1.9c0-0.7,0.3-1.4,0.7-2c0.7-1.1,1.3-2.2,1.9-3.2c0-0.1,0.1-0.1,0.1-0.1c0.4,0.7,0.7,1.4,1.2,2
		c0.8,1.1,1.8,2,3.1,2.6c0.6,0.3,0.7,0.7,0.8,1.3c0,0.2,0,0.3,0.1,0.6c0.6-0.7,1.3-1.1,2.1-1.1c0.3,0,0.6-0.1,0.9-0.2
		c0.3-0.1,0.6-0.3,0.9-0.4c0,0,0-0.1,0-0.1c-0.4,0-0.8-0.1-1.2-0.1c-1.6-0.1-3.1-0.5-4.4-1.5c-0.8-0.6-1.5-1.4-2.3-2.1
		c-0.6-0.6-0.6-1.4-0.5-2.2c0.1-0.5,0.3-1.1,0.4-1.6c0.1-0.3,0.1-0.7,0.1-1.1c0,0,0.1-0.1,0.1-0.1c0.2,0.9,0.7,1.6,1.3,2.3
		c1.1,1.2,2.5,2,4.2,2.3c1,0.1,1.4,0.7,1.5,1.9c0.2-0.2,0.4-0.4,0.6-0.6c0.9-1.2,1.8-1.3,2.9-1.1c-0.5-0.6-1.1-0.9-1.8-0.9
		c-0.8-0.1-1.6-0.1-2.3-0.2c-1.9-0.1-3.4-0.9-4.7-2.2c-0.6-0.6-1-1.2-1.3-2c-0.3-1.2,0.2-2.2,0.3-3.4c0.1-0.6,0.1-1.2,0.2-1.8
		c0.4,0.7,0.7,1.3,1.1,1.9c1.1,1.6,2.7,2.4,4.7,2.7c0.6,0.1,1.2,0.1,1.8,0.2c0.8,0.1,1.2,0.6,1.5,1.4c0.8-1.3,2-1.4,3.3-1.2
		c-0.9-0.5-1.9-0.9-2.9-1c-1.1-0.1-2.3-0.2-3.4-0.3c-1.6-0.1-2.9-0.8-3.9-2c-1.2-1.4-2-3-2.6-4.7c0,0,0-0.1,0-0.1
		c0.6,0.4,1.1,0.8,1.7,1.1c1.2,0.6,2.6,1,4,1.2c0.7,0.1,1.3,0.2,2,0.2c0.5,0,1.1,0,1.6-0.1c0.8-0.1,1.9,0,2.4,1.1
		c0.6-2,1.9-2.9,4-2.6c-0.4-0.2-0.8-0.4-1.2-0.5c-1.2-0.4-2.5-0.2-3.6,0.3c-1.4,0.7-2.9,0.9-4.3,0.7c-2.6-0.3-5.1-1-6.9-3
		c-0.2-0.2-0.3-0.5-0.4-0.7c-0.4-0.8-0.8-1.6-1.2-2.4c0-0.1,0-0.1-0.1-0.2c0.7,0.2,1.4,0.5,2,0.7c1.6,0.5,3.2,0.6,4.9,0.5
		c1.1-0.1,2.2-0.2,3.2-0.3c1.3-0.1,2.3,0.3,3.2,1.3c0,0,0.1,0,0.1,0.1c0-0.3,0-0.6,0-0.9c0.1-0.9,0.7-1.4,1.5-1.7
		c0.3-0.1,0.6-0.2,0.8-0.3c0.5-0.1,1-0.2,1.6-0.2c0,0,0-0.1,0-0.1l-1.1,0c-0.5,0-1,0-1.5,0c-1,0.2-2.1,0.4-3.1,0.6
		c-2.9,0.6-5.8,0.7-8.7,0c-2.4-0.6-4.7-1.5-6.4-3.5c-0.2-0.2-0.3-0.4-0.5-0.6c0.7,0.1,1.4,0.3,2,0.4c0.7,0.1,1.4,0.3,2.1,0.3
		c2,0.1,4.1,0,6.1-0.4c0.6-0.1,1.2-0.3,1.8-0.4c1.4-0.4,2.7-0.3,4,0.4c0-0.2-0.1-0.4-0.1-0.6c0-0.6,0.4-0.9,1.1-1
		c0.8-0.1,1.6-0.2,2.4-0.4c-0.6-0.1-1.2-0.2-1.7-0.3c-2-0.1-3.8,0.3-5.7,0.9c-1.7,0.5-3.4,0.8-5.2,0.9c-1.2,0.1-2.5,0.1-3.7,0.1
		c-0.6,0-1.2-0.1-1.7-0.2c-0.7-0.2-1.4-0.4-2.1-0.7c-0.7-0.3-1.4-0.8-2.3-1.2c0.5-0.1,0.9-0.1,1.4-0.2c0.2,0,0.4-0.1,0.6-0.2
		c0.3,0,0.7,0,1-0.1c1.3-0.4,2.7-0.9,4-1.3c1.2-0.4,2.4-0.6,3.7-0.7c1.6-0.1,3,0.2,4.5,0.9c-0.1-0.6,0-1.2,0.5-1.4
		c0.5-0.2,1-0.2,1.5-0.3c-0.1,0-0.3-0.1-0.5-0.2c-2-0.6-4-0.6-6-0.2c-2.7,0.4-5.2,1.3-7.7,2.3c-0.4,0.2-0.8,0.3-1.2,0.4
		c-0.1,0-0.2,0.1-0.2,0.1c-0.3,0.1-0.7,0.1-1,0.2c-0.5,0-1.1,0-1.6,0c-0.4,0-0.8-0.1-1.2-0.3c-0.6-0.2-0.7-0.9-0.2-1.3
		c0.9-0.7,2-1.1,3.1-1.4c1-0.3,2.1-0.4,3.1-0.6c0.1,0,0.2-0.1,0.3-0.1c0.3,0,0.6,0,0.9,0.1c0.5,0,1,0,1.6,0c-0.6-0.3-1.1-0.7-1.5-1
		c-0.6-0.3-1.2-0.5-1.9-0.8c0.5-0.1,0.9-0.3,1.4-0.3c1.3-0.2,2.6,0.3,3.8,0.8c0.9,0.4,1.7,0.8,2.5,1.3c-0.8-1.1-1.8-2-3.1-2.8
		c0.7-0.1,1.3,0,1.9,0.3c1.9,0.7,3.7,1.4,5.6,2.2c0.1,0,0.2,0.1,0.3,0.1c-0.5-0.8-1.1-1.4-1.8-1.9c1.9,0.4,3.6,1.4,5.3,2.2
		c-1.4-1.3-3-2.3-4.9-3c3.2,0.3,6.4,1.2,9.4,2.3c-1-0.8-2.1-1.4-3.2-1.9c-1.1-0.5-2.3-1-3.5-1.4c0,0,0.1,0,0.1,0
		c3.3,0.8,6.5,1.8,9.3,3.7c1.3,0.9,2.5,2,3.3,3.4c0.1,0.1,0.2,0.2,0.3,0.3c0,0.1,0.1,0.3,0.1,0.4c0.3,0.7,0.6,1.5,0.9,2.2
		c0,0-0.1,0-0.1,0.1c-0.3-0.2-0.6-0.4-1-0.5c-0.5-0.2-0.9-0.3-1.4-0.5c-0.1,0-0.2,0-0.2,0c-0.4-0.1-0.7-0.1-1.1-0.2c0,0,0,0.1,0,0.1
		c0.3,0.1,0.7,0.1,1,0.2c0.8,0.3,1.6,0.7,2.2,1.3c0.6,0.5,1,1.1,1,2c0,0.8,0.2,1.5-0.1,2.3c-1-0.6-2.1-1-3.2-1
		c0.6,0.3,1.2,0.6,1.8,0.9c0.1,0,0.2,0.1,0.3,0.2c1,0.8,0.9,0.8,0.8,2.1c-0.1,1.3-0.4,2.5-0.8,3.7c-0.3,0.7-0.6,1.2-1,1.9
		c-0.4,0.8-0.8,1.5-1.1,2.3c-0.1,0.1-0.1,0.3-0.2,0.4c-0.9,1-1.7,2.1-2.3,3.4c-0.3,0.5-0.6,0.9-1,1.3c-0.1,0.1-0.2,0.3-0.3,0.4
		c-1.2,1.2-2.4,2.4-3.6,3.6c-0.9,1-1.8,2-2.7,3c-0.6,0.6-1.2,1-1.9,1.5c-2.1,1.7-3.8,3.7-5.2,5.9c-0.6,1-1.2,2-1.8,2.9
		c0,0.1-0.1,0.2-0.1,0.3c1.5-1.8,3-3.7,4.4-5.5c0,0,0.1,0,0.1,0.1c-0.1,0.6-0.4,1.3-0.1,1.9c0.3-1.3,0.4-2.6,1.8-3.5
		c0,0.7-0.1,1.4,0.5,1.9c-0.2-1.6,0.3-2.8,1.9-3.3c0.2,0.3,0.4,0.8,0.9,0.9c-0.1-0.4-0.2-0.7-0.3-1c-0.1-0.2,0-0.4,0.2-0.5
		c0.6-0.3,1.1-0.7,1.6-1c0.1-0.1,0.3,0,0.4,0.1c0.2,0.1,0.4,0.2,0.6,0.3c0,0,0-0.1,0.1-0.1c0-0.1,0-0.1,0-0.2
		c-0.2-0.6-0.2-0.6,0.3-1c0.6-0.4,1.2-0.9,1.7-1.3c0.1-0.1,0.3-0.1,0.4-0.2c0-0.1,0.1-0.2,0.2-0.3c0.5-0.6,1-1.2,1.6-1.7
		c0.1-0.1,0.2-0.1,0.4-0.1c0.2,0,0.4,0,0.6,0c-0.2-0.4-0.3-0.7-0.4-1.1c0.3,0.1,0.4-0.1,0.6-0.2c1.4-1.3,2.8-2.7,4.2-3.9
		c0.5-0.4,1.1-0.8,1.6-1.2c0.1-0.1,0.3-0.3,0.3-0.4c0.3-1.3,0.9-2.4,1.6-3.5c0.2-0.3,0.3-0.6,0.1-1c-0.2-0.4-0.3-0.9-0.4-1.3
		c-0.3-1-0.1-1.9,0.7-2.6c0.5-0.5,0.7-1,0.8-1.7c0.1-0.6,0.2-1.3,0.4-1.9c0.1-0.3,0.3-0.6,0.5-1c0.1-0.1,0.1-0.3,0-0.4
		c-0.2-0.6-0.4-1.2-0.7-1.7c-0.2-0.3-0.4-0.6-0.6-0.9c0.2,0.1,0.3,0.2,0.5,0.4c0-0.4,0.1-0.8,0.1-1.2c0-0.1-0.1-0.2-0.2-0.3
		c-0.8-0.4-1.1-1.2-1-2c0-0.1,0-0.3,0-0.4c0-0.3-0.1-0.4-0.3-0.5c-0.4-0.2-0.8-0.6-1.2-0.8c-0.1-0.1-0.4-0.1-0.5-0.1c0,0,0,0,0,0
		c0-0.2,0-0.4-0.1-0.6c-0.4-0.7-0.6-1.3-0.6-2.1c0-0.3-0.2-0.4-0.5-0.5c-1.1-0.3-2.3-0.6-3.4-0.9c-0.2-0.1-0.5-0.3-0.7-0.5
		c-0.5-0.8-1-1.6-1.5-2.4c-0.2-0.3-0.3-0.4-0.6-0.2c-0.4,0.2-0.9,0.2-1.3,0.3c-0.1,0-0.3,0.1-0.3,0.1c-0.4,0-0.7,0-1.1,0
		c-2.7,0.2-5.3-0.4-7.8-1.5c-0.2-0.1-0.4-0.2-0.5-0.2c-0.6,0.1-1.1,0.2-1.7,0.2c-0.8,0-1.6-0.2-2.4-0.3c-0.1,0-0.3,0-0.3-0.1
		c-0.5-0.4-1-0.3-1.6-0.3c-0.8,0-1.6-0.1-2.5-0.1c-0.5,0-1-0.1-1.4,0c-1.3,0.2-2.4-0.1-3.3-1c-0.4-0.4-0.8-0.7-1.2-1
		c1.8-0.2,3.5-0.4,5.3,0.1c2.1,0.7,4.3,1.1,6.6,1.2c1.4,0.1,2.9,0.1,4.3,0.1c1.4,0,2.8-0.2,4.2-0.3c1.2-0.1,2.4-0.1,3.5,0
		c1.8,0.2,3.6,0.5,5.4,0.8c1.6,0.3,3.1,0.8,4.4,1.8c1.1,0.8,2.1,1.9,2.9,3c0.1,0.1,0.2,0.2,0.3,0.3c0.3,0.5,0.5,1,0.8,1.5
		c0.8,1.7,1.2,3.5,1.5,5.3c0.3,2,0.5,4.1,0.4,6.2c0,0.1,0,0.2,0.1,0.3c-0.1,0.5-0.2,1-0.2,1.5c-0.4,3.2-1.4,6.1-3.1,8.9
		c-1.6,2.7-3.7,5-6,7.1c-0.6,0.6-1.2,1.1-1.8,1.7c-0.1,0.1-0.1,0.2-0.2,0.3c-0.2,0.2-0.5,0.3-0.7,0.5c-2.9,2.4-5.9,4.8-8.8,7.3
		c-3,2.6-5.9,5.3-8.6,8.2c-0.2,0.2-0.4,0.4-0.5,0.6v-1c-2.2,1.3-4.6,2.4-7.1,3.3h0c0,0-3.5,5.6-8.9,2.5c-0.4,0.1-0.7,0.2-1.1,0.2
		c0.7,0.8,1.7,1.5,3.3,1.9c-3.6,4.1-5.6,3.8-5.6,3.8C155.3,91.6,156.4,85.8,156.6,84.7z M150.5,89c3.4-2.6,3.9-2.1,3.9-2.1
		s-1.7,4.5,1.1,5.2c-3.4,1.9-5.5,3.7-5.5,3.7S147,91.6,150.5,89z M142.1,93.9l4.5-2.2c-1.6,2.4,0,4.4,0,4.4s-0.4,2.8-4.5,2.8
		S142.1,93.9,142.1,93.9z M136.3,96.5c-2.7,2.7,2.4,4,2.4,4s-6.4,1.9-6.4,0C132.3,98.6,136.3,96.5,136.3,96.5z M127.8,102
		c-0.5,2,3.7,3.1,0,2.8S127.8,102,127.8,102z M89.6,168.4c0-0.1,0-0.3-0.1-0.4c0.1,0,0.3,0,0.4,0L89.6,168.4z M90,167.9
		c0-0.1,0-0.3,0-0.4c0.1,0,0.3,0.1,0.4,0.1C90.2,167.7,90.1,167.8,90,167.9z M89.9,167.5C89.9,167.5,89.9,167.5,89.9,167.5
		c-0.1,0.1-0.3,0.3-0.4,0.4c0,0,0,0,0,0c-0.2,0.1-0.4,0.3-0.6,0.4c-0.1-1.2,0.3-1.5,1.5-1.5C90.2,167.1,90.1,167.3,89.9,167.5z
		 M102.3,179.7c-0.5-1.3,0.2-2.1,1.6-1.8c0.5,0.1,1,0.4,1.4,0.6c-1.1,0.3-1.9,0.9-2.3,2C102.8,180.3,102.4,180.1,102.3,179.7z
		 M108.3,182.3c-0.4,0.8-1.1,1.1-1.9,0.6c-1.1-0.7-2.2-1.6-3.3-2.4c1.1,0.1,2.1-0.3,2.7-1.3h0c0.3,0.8,0.9,1.2,1.7,1.4
		C108.4,180.8,108.7,181.5,108.3,182.3z M111.4,181.2c-3.4-2.3-6.6-4.6-10-6.8c0.4-1.3,0.9-1.4,1.9-0.7c2.9,2.1,5.9,4.2,9,6.5
		C112,180.6,111.7,180.9,111.4,181.2z M153.9,112c12.3,0.5,23.1,4.7,32.2,13c3.6,3.3,6.6,7,9.1,11.2c0.4,0.6,0.7,1.2,1,1.8
		c0.1,0.2,0,0.4,0.1,1.2c-0.7-0.6-1.1-0.9-1.4-1.2c-9.8-11.8-22.3-18.7-37.4-20.9c-1.3-0.2-2.6-0.4-3.9-0.6c-1.8-0.3-2.8-0.1-5.6,1
		C148.5,114.2,150.9,111.8,153.9,112z M156.3,121.8c0,1.1-0.5,1.8-1.4,1.7c-1.1,0-2.7-1.3-2.7-2.2c0-1,1.2-2,2.3-1.9
		C155.5,119.5,156.3,120.6,156.3,121.8z M152.2,134.5c-1.6,2.4-3.2,4.8-4.8,7.1c-0.1,0.2-0.4,0.2-0.6,0.3c0-1.9,2.6-6,5-8.2
		C152,134,152.3,134.4,152.2,134.5z M149.2,121.3c-0.1,0.2-0.3,0.3-0.4,0.5c-1-0.1-1.7-0.4-1.7-2.2
		C148,120.4,148.6,120.9,149.2,121.3z M148.7,129.5c-1.4-0.8-2.7-1.6-4.3-2.6C148.8,127.1,148.5,127,148.7,129.5z M140,135.8
		c1.6-2.4,2-5.6,4.7-7.9c0.1,1,0.4,1.5,0.2,2c-0.7,2.4-4,7.5-5.4,8.4C138.8,137.3,139.6,136.5,140,135.8z M137.9,122.4
		c3.2-0.5,3.2-0.5,4.1,2.1C140.5,123.7,139.3,123.1,137.9,122.4z M138.6,114c2.7-1.1,5.6-1.8,8.5-1.7c0.1,0.2,0.3,0.4,0.4,0.5
		c-1,1.5-2,3.1-3.2,4.5c-0.6,0.8-1.4,1-2.5,0.4c-2.1-1.1-4.3-2-6-2.8C136.5,114.7,137.6,114.4,138.6,114z M126.5,128.5
		c-0.2-0.1-0.4-0.2-0.5-0.3c1.2-3.2,2.3-6.3,3.5-9.5c0.1-0.2,0.5-0.2,0.8-0.3c0.1,0.9-1.5,6.5-2.3,8.2
		C127.6,127.3,127,127.9,126.5,128.5z M127.9,130.4c1.1-3.6,2.4-7,3.7-10.4c1.1,0.2,1.8,0.5,1.4,1.5c-1.1,2.6-2.1,5.2-3.2,7.7
		C129.5,129.9,129.1,130.6,127.9,130.4z M131.6,132.6c-0.2-0.1-0.4-0.2-0.6-0.2c0.1-1.7,0.6-3.2,2.3-4.2
		C132.7,129.7,132.2,131.1,131.6,132.6z M133.3,134.4c-0.4-0.5-0.7-0.8-0.6-0.9c1.1-3.4,2.4-6.7,4.2-10.1c0.6,0.5,1,0.8,1.4,1.2
		C137,127.9,135.4,131.1,133.3,134.4z M129.6,171.8c0.8-0.5,1.4-0.9,2.1-1.3c1.1,1.1,2.7,1.5,3.1,3.5
		C132.7,173.8,131.3,172.8,129.6,171.8z M141.4,174.8c-2-2-3.9-3.9-5.8-5.8c0.7,0.3,1.7,0.7,2.6,1.1c3.1,1.3,4.5,0.8,5.5-2.4
		c0.4-1.3,1.1-2.3,1.8-3.4c0.3-0.5,0.6-0.9,1-1.3c1.2-1.5,2.2-3.2,3.5-4.6c1.2-1.3,2.8-2.4,4.2-3.7c0.5,0.2,1.1,0.4,1.7,0.6
		c0.7-0.6,1.3-1.2,1.9-1.9c0.1,0.1,0.2,0.1,0.3,0.2c-0.6,0.9-1.2,1.7-1.8,2.6c-1.6,2-3,4.2-4.8,6c-3.6,3.6-6.5,7.7-9.4,11.8
		C141.8,174.3,141.5,174.7,141.4,174.8z M150.4,177.1c-1,1.1-1.1,2.4-1.1,3.9c0,2-0.2,2.2-2.3,2.4c-0.8,0.1-1.5,0.2-2.5,0.3
		c2.1-2.7,4-5.3,6.1-8.2C150.5,176.3,150.6,176.8,150.4,177.1z M142.9,176.3c-0.1-0.1-0.3-0.1-0.4-0.2c0.2-0.7,0.3-1.4,0.7-2
		c2.5-3.6,5.2-7.1,7.7-10.7c0.2,0.1,0.4,0.2,0.6,0.3C148.7,168,145.8,172.2,142.9,176.3z M167.1,192.1c-0.3-1.4,0.5-2.2,1.8-3
		C168.8,190.6,167.7,191.2,167.1,192.1z M170.5,196.6c1.3-0.6,2.5-1.1,3.8-1.7C173.4,196.4,172,196.6,170.5,196.6z M174.8,138.4
		c-2.5,0.5-4.2,1.7-5.4,3.9c-1.6,2.7-3.4,5.2-5.1,7.8c-3.8,5.6-6,11.8-7,18.4c-0.3,2-0.7,4-1.1,6c-0.1,0.6-0.4,1.2-0.8,2.4
		c-0.3-0.9-0.5-1.2-0.5-1.5c-0.3-3.3-0.4-6.5,1.6-9.6c1.9-3.1,3-6.7,2.1-10.5c-0.1-0.4,0.2-0.9,0.5-1.2c2-2.7,4-5.4,6-8.1
		c0.3-0.4,0.6-1,1-1.3c1.7-1,2.5-2.7,3.6-4.2c0.2-0.2,0.3-0.5,0.4-0.8c-0.1-0.3-0.2-0.5-0.3-0.7c-1.9-1.8-3.8-3.6-5.8-5.3
		c-0.3-0.2-0.7-0.3-1.1-0.3c-1.3-0.2-2.3-1.3-2.1-2.1c0.3-1.8-1.1-2.9-1.3-4.4c3.4-0.6,15.3,5.3,19.3,9.7
		C177.6,137.7,176.2,138.1,174.8,138.4z M176.9,129.2c-3.9-2.5-8-4.4-12.4-5.8c-2.1-0.7-4.1-1.4-6.1-2.2c-0.4-0.1-0.7-0.5-1.2-0.9
		c0.5-0.1,0.7-0.3,0.9-0.3c11.3,1.6,21.2,6.4,29.6,14c0.3,0.3,0.6,0.5,0.8,0.8c0.5,0.5,1,1.2,0.3,1.7c-0.3,0.2-1.1-0.3-1.7-0.5
		c-0.2,0.3-0.5,0.7-1,1.4c-0.1-0.4-0.2-0.5-0.3-0.7c-0.8-1-1.4-2.2-2.4-2.9C181.4,132.2,179.2,130.7,176.9,129.2z M193.5,192
		c-2.6,1.1-5.4,1.4-8.2,1.1c-0.8-0.1-1.5-0.9-2.2-1.3c-0.1-0.2-0.2-0.4-0.2-0.6c0.3-0.1,0.6-0.3,0.9-0.4c1.9-0.3,3.6-1.4,5.6-1.4
		c1.4,0,2.7-0.4,4.1-0.7c1.8-0.4,3.6-0.6,5.6-0.1C197.5,190.5,195.4,191.2,193.5,192z M185.6,169.3c0.1-0.1,0.2-0.3,0.3-0.4
		c1.2,0.2,2.4,0.4,3.5,0.7c0.3,1.5,1.2,3-0.1,4.9C188,172.6,186.8,170.9,185.6,169.3z M205.8,163.8c-0.2,1.1-0.4,2.3-0.7,3.4
		c-1.2,3.7-4.1,5.7-7.4,7.3c-0.6,0.3-1.3,0.5-1.8,1c-1.1,1.1-2.2,1.3-3.5,0.3c-0.5-0.3-1.1-0.5-1.7-0.8c0.5-2,0.7-4-1.2-5.5
		c0,0,0,0,0,0c-1.2-0.7-2.3-1.4-4-2.4c-0.3-2.1-0.8-4.8-1-7.6c-0.2-3.9,1.9-6.6,4.9-8.7c1-0.7,2.5-1,3.8-0.9
		c2.2,0.2,4.5,0.6,6.5,1.5c1.7,0.7,3.4,2,4.4,3.5C205.7,157.6,206.3,160.6,205.8,163.8z"/>
</g>
</svg>
