<?xml version="1.0" encoding="utf-8"?>
<!-- Generator: Adobe Illustrator 17.1.0, SVG Export Plug-In . SVG Version: 6.00 Build 0)  -->
<!DOCTYPE svg PUBLIC "-//W3C//DTD SVG 1.1//EN" "http://www.w3.org/Graphics/SVG/1.1/DTD/svg11.dtd">
<svg version="1.1" id="Layer_1" xmlns="http://www.w3.org/2000/svg" xmlns:xlink="http://www.w3.org/1999/xlink" x="0px" y="0px"
	 viewBox="0 0 288 216" enable-background="new 0 0 288 216" xml:space="preserve">
<g>
	<path d="M229,77.1c0,0.3,0,0.5,0,1c-0.6-0.6-1.1-1-1.6-1.4c-0.3,0.2-0.6,0.5-0.6,0.5c0.5,1.4,1,2.6,1.5,3.9
		c-0.2,0.1-0.3,0.1-0.5,0.2c-0.1-0.3-0.3-0.5-0.3-0.8c-0.4-2.1-1.5-4.2-3.2-5c-2.6-1.2-3.8-3.5-5.6-5.3c-0.9-0.9-1.5-2.2-2.3-3.3
		c0.1-0.1,0.2-0.1,0.3-0.2c0.6,0.8,1.2,1.6,1.9,2.5c0-0.4,0-0.7,0-1.1c2.7,2.8,5.2,5.6,7.8,8.3c0.1-0.1,0.2-0.2,0.4-0.3
		c-1.7-2.1-3.4-4.1-5.1-6.2c0.1-0.1,0.2-0.2,0.3-0.3c0.5,0.4,0.9,0.8,1.3,1.3c1.6,1.8,3.1,3.6,4.7,5.5c0.2,0.3,0.5,0.5,0.8,0.7
		C228.8,76.9,228.9,77,229,77.1z"/>
	<path d="M114.8,71c-0.9,0.9-1.7,1.8-2.6,2.7c0.9-1.8,1.8-3.7,2.6-5.5l0,0c0.2-0.4,0.5-0.8,0.5-1.2c0-0.5-0.2-1-0.3-1.7
		c-0.3,0.4-0.6,0.9-0.9,1.4c-0.1-0.1-0.1-0.2-0.2-0.2c-0.7,0.4-1.5,0.9-2.4,1.4c1-1.9,1.8-3.6,2.7-5.3c-0.1-0.1-0.2-0.2-0.4-0.3
		c-0.8,0.9-1.5,1.7-2.3,2.6c-0.1-0.3-0.2-0.4-0.2-0.4c0.8-2,1.9-3.9,3.4-5.4c0.8-0.8,1.8-1.4,2.6-2.2c0.4-0.3,0.7-0.8,1-1.3
		c-0.1-0.1-0.3-0.3-0.4-0.4c-0.6,0.8-1.3,1.5-1.9,2.3c-0.1-0.1-0.2-0.2-0.3-0.3c0.4-0.6,0.7-1.2,1.1-1.6c1.1-1.1,1.4-2.6,1.7-4.1
		c0.1-0.4,0-1.6,1.1-0.8c0,0,0,0,0,0c-0.2,0.4-0.4,0.8-0.6,1.3c0.5,0,0.8,0,1.2-0.1c-0.6,1.7-1.1,3.2-1.7,5c0.8-0.7,1.4-1.3,1.9-1.9
		c0.1-0.1-0.3-0.5-0.5-0.8c0.5-2.1,1-4.3,1.5-6.6c0.1,0,0.3,0,0.4,0.1c-0.1,0.9-0.2,1.9-0.3,2.8c0,0.2-0.1,0.6-0.1,0.6
		c1.4,0.6,0.5,1.6,0.3,2.3c-0.7,1.7-1.5,3.2-2.3,4.8c-1.5,0.8-1.7,2.3-2.6,3.5c0.1,0.1,0.2,0.1,0.3,0.2c0.7-1.2,1.5-2.5,2.2-3.7
		c0.6-0.5,1.2-1,1.9-1.6c-0.6,1.2-1.1,2.3-1.7,3.4c0.1,0,0.1,0.1,0.2,0.1c0.3-0.3,0.6-0.6,0.9-0.9c0.1,0.1,0.3,0.2,0.4,0.3
		c-0.7,1-1.5,2-2.2,3.1c-0.7,1.1-1.4,2.2-2,3.4c-0.6,1-1.1,2-1.6,3.1c-0.2,0.4-0.1,0.8-0.1,1.2C115,70.6,114.9,70.8,114.8,71z
		 M119.4,61.2c-0.9-0.3-2.5,1.8-3.3,4.8C117.2,64.3,118.3,62.7,119.4,61.2z"/>
	<path d="M174.4,104.4c-1.5,1-3,2-4.5,2.9c-0.3,0.2-0.7,0.4-1.1,0.6c0.2-0.4,0.3-0.9,0.6-1.1c1.1-0.8,2.3-1.5,3.4-2.3
		c0.2-0.2,0.5-0.5,0.5-0.7c0-2.9,0.8-5.6,1.9-8.3c0.3-0.6,0.4-1.3,0.6-1.9c-0.2-0.1-0.4-0.1-0.6-0.2c-0.9,3.6-1.9,7.1-2.8,10.7
		c-0.1,0-0.1,0-0.2,0.1c0-0.4-0.2-0.7-0.1-1.1c0.6-2.4,1.2-4.8,1.8-7.2c0.1-0.6,0.1-1.2,0-1.7c-0.5-3.1-1.1-6.1-1.7-9.2
		c0.2,0,0.3-0.1,0.5-0.1c0.5,3,1.1,5.9,1.6,9.1c1.9-2.2,0.2-4.7,1.4-6.7c0.1,1.4,0.1,2.7,0.2,4.1c0,0.4-0.1,0.8,0.1,1
		c0.8,1.4,0.1,2.6-0.3,3.9c-0.6,2-0.9,4.1-1.2,6.1C174.2,103,174.4,103.7,174.4,104.4z"/>
	<path d="M241.3,97.2c-0.1-0.6-0.1-1.2-0.3-1.7c-0.3-0.9-0.6-1.7-0.9-2.5c0,0-0.1-0.1-0.1-0.1c0.1-2.5-1.7-4.7-0.9-7.3
		c0.4-1.2,0.3-2.6,0.5-4c0.1-0.5,0.2-1,0.3-1.5c0.1,0,0.2,0,0.4,0c-0.3,2.5-0.6,5-0.9,7.6c0.8-3.1,1.5-6.1,2.3-9.2
		c0.2,0,0.3,0.1,0.5,0.1c-1,4.1-2.2,8.1-1.6,12.6c0.2-1.4,0.4-2.5,0.5-3.7c0.1,0,0.2,0,0.4,0c0,3.2,0,6.4,0,9.6
		C241.4,97.1,241.3,97.2,241.3,97.2z"/>
	<path d="M183.4,44.9c-0.5-1.1-0.9-2.2-1.4-3.3c0.1-0.1,0.2-0.2,0.3-0.2c0.7,0.6,1.4,1.1,2.1,1.7c0.1-0.1,0.2-0.1,0.2-0.2
		c-0.3-0.7-0.6-1.4-0.9-2.1c0.1-0.1,0.2-0.2,0.2-0.2c0.3,0.2,0.6,0.4,0.8,0.6c0.4,0.5,0.8,1.1,1,1.7c0.1,0.3-0.1,0.7-0.1,1
		c-0.2,0.1-0.4,0.1-0.6,0.2c0.5,0.2,0.9,0.5,1.2,0.6c-1.2,0.6-2.3,1-3.2,1.6c-1.4,1-2.8,0.8-3.9,0.2c0.2-0.6,0.3-1.2,0.6-1.6
		c0.2-0.3,0.7-0.5,1-0.4c0.3,0.1,0.6,0.5,1.2,1c-0.5-0.8-0.8-1.4-1.1-1.9c0.1-0.1,0.2-0.2,0.3-0.3c0.7,0.6,1.4,1.2,2.2,1.8
		C183.3,45,183.4,44.9,183.4,44.9z"/>
	<path d="M113.6,93.7c-1.2-1.5-2.3-3.1-3.7-4.5c-0.7-0.7-1.4-1.2-1.9-2.1c-1-1.7-0.8-3.4-0.6-5.1c0.2,1.3,0.3,2.5,0.5,3.8
		c0.1,0,0.2,0,0.3,0c0.3-1.1,0.6-2.3,0.9-3.4c0.1,0,0.2,0,0.3,0.1c-0.1,0.9-0.4,1.9-0.4,2.8c0,0.9,0.1,1.8,0.2,2.6
		c0.2,0,0.3,0,0.5,0c0.3-1.1,0.5-2.1,0.8-3.2c0.1,1.7-0.3,3.5,1,5.2c0.1-0.9,0.1-1.6,0.2-2.3c0.1,0,0.1,0,0.2,0
		c0.2,1.2,0.4,2.3,0.6,3.5c0.1,0,0.3,0,0.4,0c0.2-0.5,0.4-0.9,0.7-1.6c0,3,0,3,1.4,3.3c-0.1-0.4-0.2-0.9-0.2-1.3
		c0-0.4,0-0.8,0.1-1.3c0.6,1.6,1.2,3,1.9,4.6C115.5,94.5,114.8,93.3,113.6,93.7L113.6,93.7z"/>
	<path d="M114.8,71c0.1-0.2,0.2-0.4,0.3-0.6c0.9-1.6,1.8-3.2,2.7-4.8c0.1,0.1,0.2,0.1,0.3,0.2c-1,2-1.9,4-2.9,6
		c0.2,0.1,0.3,0.2,0.5,0.3c1.5-0.7,1.1-2.8,2.5-3.6c-2.1,4.2-3.1,8.5-2.6,13.2c-0.9-0.6-0.9-0.7-0.8-2.7c0-1-0.1-1.9,0-2.9
		c0.1-1,0.5-2,0.8-3.1C114,72.9,114.6,71.9,114.8,71z"/>
	<path d="M248.6,94.4c0.1-0.8,0.3-1.6,0.4-2.5c-0.1,0-0.1,0-0.2-0.1c-0.7,1.8-1.4,3.6-2.2,5.4c-0.1,0-0.2,0-0.2,0
		c0.1-0.7,0.1-1.5,0.4-2.1c0.6-1.5,1.4-2.9,2-4.4c0.6-1.5,1-3,1.4-4.4c0,0.6,0,1.4,0,2.2c0.1,0,0.1,0,0.2,0c0.2-0.7,0.4-1.3,0.6-2
		c0.1,0,0.2,0.1,0.4,0.1c-0.6,1.7-0.2,3.7-1.6,5.2c-0.4,0.4-0.4,1.1-0.5,1.7c-0.1,0.3-0.1,0.6-0.2,0.9
		C248.8,94.4,248.7,94.4,248.6,94.4z"/>
	<path d="M170.3,83.3c0.5,2.6,0.8,5.3,1.5,7.8c1.1,3.9-1,7.2-1.6,10.8c0,0.2-0.3,0.4-0.7,0.5c0.4-1.6,0.6-3.3,1.2-4.8
		c1-2.5,0.8-5,0.3-7.6c-0.4-2.2-0.7-4.4-1-6.7C170.1,83.3,170.2,83.3,170.3,83.3z"/>
	<path d="M119.5,39.8c-0.9,1.2-1.7,2.2-2.6,3.4c0-0.5,0-0.8-0.1-1.3c-0.3,0.5-0.6,1-1,1.6c-0.6-0.9-1.1-1.7-0.4-2.5
		c0.5-0.6,1.2-1.3,2-1.5C118,39.2,118.8,39.7,119.5,39.8z"/>
	<path d="M106.6,68.8c-0.4,0-0.7,0.1-1.1,0.1c0-0.3,0-0.7,0.1-1c0.2-0.6,0.4-1,0.1-1.7c-0.2-0.7,0.4-1.8,0.9-2.6
		c0.7-1.1,1.5-2,2.3-3c0.1,0.1,0.2,0.2,0.3,0.2c-0.8,1.1-1.5,2.2-2.4,3.3c0.4,0,0.6,0,1.1,0c-0.3,0.8-0.5,1.6-0.9,2.2
		c-0.4,0.7-0.4,1.2,0.1,1.8C107,68.4,106.8,68.6,106.6,68.8z"/>
	<path d="M170.7,91.7c0.2,4.1-0.8,7.8-3.1,11.2C168.6,99.2,169.7,95.4,170.7,91.7z"/>
	<path d="M203.1,90.6c0.1-0.6,0-1.3,0.3-1.8c0.6-1.1,0-2.3-0.4-2.9c-1-1.3-0.5-2.5-0.4-3.9c0.1,0.2,0.2,0.4,0.3,0.6
		c0.2-0.5,0.4-1.1,0.7-1.6c0.1,0,0.2,0.1,0.2,0.1c-0.1,1.1-0.3,2.2-0.4,3.3c0.1,0,0.2,0.1,0.3,0.1c0.2-0.4,0.5-0.8,0.7-1.2
		c0.1,0,0.2,0,0.3,0.1c-0.4,2.4-0.8,4.9-1.2,7.3C203.4,90.6,203.2,90.6,203.1,90.6z"/>
	<path d="M121.3,95.3c-0.2,0.2-0.4,0.6-0.6,0.6c-2.4,0.1-4.3-2-4.3-4.9c0.7,1.3,1.2,2.4,1.7,3.4c0.2,0,0.3-0.1,0.5-0.1
		c-0.2-1-0.4-2-0.6-2.9c0.6,0.5,1,0.8,1.4,1.2c0.2,0.2,0.2,0.5,0.3,0.8C120,94.2,120.2,95.2,121.3,95.3L121.3,95.3z"/>
	<path d="M90.2,48.4c-0.2-0.1-0.4-0.2-0.9-0.5c1.8-0.6,3.4-1.2,4.9-1.7c0.2-0.1,0.5,0.2,0.7,0.4c0.8,0.8,1.6,1.6,2.5,2.5
		c-1-0.1-2.1-0.2-3.1-0.3c0-0.1,0-0.2-0.1-0.3c0.3-0.2,0.6-0.4,0.9-0.5C95.2,47.4,92,47.6,90.2,48.4C90.2,48.5,90.2,48.4,90.2,48.4z
		"/>
	<path d="M180.3,103.3c-0.8-4.1,1.8-7.7,1.6-11.6c0.2,0,0.4,0.1,0.7,0.1c-0.6,3.9-1.3,7.7-1.9,11.6
		C180.5,103.3,180.4,103.3,180.3,103.3z"/>
	<path d="M206.5,73.8c0.3,2,2,3.4,2.2,5.5c0.1,0.7,0.1,1.4,0.2,2.4c-0.5-0.4-0.7-0.5-0.8-0.6c-0.4,1.1-0.8,2.1-1.3,3.2
		c-0.1,0-0.2-0.1-0.3-0.1c0.4-1.3,0.8-2.7,1.1-4c0.3-1.1,0.2-2-0.5-3c-0.6-1-0.8-2.2-1.2-3.3C206.2,73.9,206.3,73.8,206.5,73.8z"/>
	<path d="M108.2,56.4c1-2,2.8-2.7,4.8-3.2c-1.1,2.1-3.5,2.4-5.1,3.9c0.1-0.2,0.1-0.4,0.2-0.6C108.2,56.5,108.2,56.4,108.2,56.4z"/>
	<path d="M117.2,74.4c-0.2,3.1-0.3,6.3-0.5,9.6C115.4,82.9,115.9,76,117.2,74.4z"/>
	<path d="M235.1,64.3c0.1,1.2,0.1,2.4,0.2,3.6c0.1,0,0.2,0,0.3,0c0.1-0.5,0.3-1,0.4-1.5c0.1,0,0.2,0,0.3,0.1
		c-0.3,2.6-0.5,5.2-0.8,7.7c-0.2,0-0.4-0.1-0.6-0.1c0.1-0.4,0.2-0.8,0.3-1.3c0.2-1.5,0.5-2.8-0.3-4.4c-0.6-1.1-0.1-2.7-0.1-4.1
		C234.8,64.3,235,64.3,235.1,64.3z"/>
	<path d="M235.9,80.3c-0.5,0-1.1-0.1-1.6-0.1c0,0.1-0.1,0.1-0.1,0.2c0.6,0.3,1.1,0.5,1.9,0.9c-0.5,0.4-0.8,0.7-1.4,1.3
		c0.1-0.6,0.1-0.9,0.2-1.2c-0.3,0.1-0.6,0.1-1.1,0.2c0-1.5,0-2.9,0-4.3c0.1,0,0.2,0,0.3-0.1C234.5,78.2,235.1,79.1,235.9,80.3z"/>
	<path d="M194.9,92.8c-0.4,1.1-0.7,2.3-1.1,3.4c1-1.2,2.2-2.2,3-3.5c0.5-0.7,0.5-1.8,0.7-2.7c0.6,1.4,0.1,2.7-1,3.7
		c-0.8,0.7-1.3,1.8-2,2.6c-0.3,0.3-0.7,0.6-1,0.9c-0.1-0.1-0.3-0.2-0.4-0.3c0.5-1.4,0.9-2.8,1.4-4.2
		C194.6,92.7,194.7,92.7,194.9,92.8z"/>
	<path d="M226.5,63.6c-0.4,0-0.9,0.3-1.2,0.1c-0.9-0.6-1.9-1.2-2.7-1.9c-1.3-1.2-2.6-2.6-3.8-3.9c-0.3-0.3-0.5-0.8-0.8-1.3
		c2.2,2,4.1,4,6.2,5.8c0.6,0.5,1.4,0.7,2.1,1.1C226.4,63.5,226.5,63.6,226.5,63.6z"/>
	<path d="M140.5,70.6c0,1.1,0.1,2.3,0.1,3.4c0,0.3-0.6,0.5-0.9,0.7c-0.2-0.4-0.5-0.7-0.6-1.1C139,72.5,139.2,71.4,140.5,70.6z"/>
	<path d="M107.8,70.3c-0.4,0.9-0.8,1.9-1.2,2.8c0.1,0.1,0.2,0.1,0.3,0.2c0.3-0.3,0.6-0.6,1.1-1c-0.6,1.6-1.1,3.1-1.7,4.6
		c-0.7-0.3-0.7-0.4,0.2-2.3c-0.3-0.6-0.7-1-0.6-1.2c0.5-1.1,1.2-2.1,1.8-3.2C107.6,70.1,107.7,70.2,107.8,70.3z"/>
	<path d="M99.2,43.3c-0.5,0.2-1,0.5-1.5,0.5c-0.8,0.1-1.6,0-1.9,1.1c0,0.1-0.7,0.1-1-0.1c-0.4-0.3-0.6-0.8-0.9-1.1
		c0-0.1,0.1-0.2,0.1-0.4c0.4,0.1,0.8,0.2,1.5,0.4C96.3,42.4,97.8,42.7,99.2,43.3z"/>
	<path d="M214.3,65.3c2.1,2.8,4.2,5.5,6.2,8.1C219.1,73,215.1,67.8,214.3,65.3z"/>
	<path d="M100.5,40.7c0.3-0.6,0.5-0.9,0.7-1.4c-0.4,0.2-0.6,0.3-0.8,0.4c-0.2,0.1-0.5,0.2-0.8,0.4c0.7-1.5,3.9-2.3,4.8-1.1
		c-0.7,0.2-1.4,0.4-2,0.7C101.9,39.9,101.4,40.2,100.5,40.7z"/>
	<path d="M92,40.8c0.3-0.8,0.6-1.4,0.9-2.1c0.5,0.1,1,0.2,1.8,0.4C95.2,40.5,95.1,40.6,92,40.8z"/>
	<path d="M209.8,80.5c-0.4,1.8-0.4,3.8-1.9,5.2c-0.3,0.3-0.2,1-0.4,1.5C206.8,86.3,207.2,85.1,209.8,80.5z"/>
	<path d="M230.9,64c0.3,1.1-0.5,0.5-0.7,0.4c-1.5-1-3.1-2.1-4.6-3.2c-0.7-0.5-1.2-1.1-1.7-1.9c2.1,1.5,4.3,2.9,6.4,4.4
		C230.6,63.8,230.8,63.9,230.9,64z"/>
	<path d="M225.8,85.7c0.4-0.8,0.7-1.6,1.1-2.3c0.3-0.5,0.6-1,0.9-1.5c0.2,0.1,0.3,0.2,0.5,0.2c-1.2,2.5-2.3,5-3.5,7.5
		c-0.1,0-0.2-0.1-0.4-0.1C224.8,88.2,225.3,86.9,225.8,85.7L225.8,85.7z"/>
	<path d="M144.4,88.6c1,0.1,2,0.2,3,0.3c-0.1,0.3-0.2,0.5-0.5,1c1.2-0.6,2.1-1.1,3-1.5c-0.4,0.9-1.8,2-2.7,1.9c-1-0.2-2-0.8-3-1.3
		C144.3,88.9,144.4,88.7,144.4,88.6z"/>
	<path d="M226.5,63.6c0-0.1-0.1-0.1-0.2-0.2c-1.3-1.1-2.6-2.1-3.8-3.2c0.1-0.1,0.1-0.2,0.2-0.3c2.5,1.8,4.9,3.6,7.4,5.4
		c0,0.1-0.1,0.2-0.1,0.2C228.9,65,227.7,64.3,226.5,63.6z"/>
	<path d="M198.8,72.5c1.4,2.6,3.9,4.7,3.1,8.1C202.2,77.3,199.6,75.3,198.8,72.5z"/>
	<path d="M177.5,48.7c0.5,0.1,1,0.2,1.9,0.3c-0.8-0.8-1.2-1.4-1.7-1.9c0.1-0.1,0.1-0.2,0.2-0.2c0.9,0.4,1.8,0.7,3,1.2
		c-0.7,0.5-1.3,1.1-2.1,1.4c-0.3,0.1-0.9-0.3-1.4-0.5C177.4,48.9,177.5,48.8,177.5,48.7z"/>
	<path d="M122,80.5c-0.6,1.5-1.3,3-1.9,4.5c-0.1,0.2-0.3,0.4-0.4,0.4c-0.2-0.1-0.5-0.3-0.5-0.5c0.1-0.9,0.4-1.7,0.5-2.6
		c0.1,0,0.3,0.1,0.4,0.1c0,0.2,0,0.4,0,0.9c0.6-1.1,1.2-2,1.7-3C121.9,80.4,121.9,80.5,122,80.5z"/>
	<path d="M176.3,108.1c-0.2-1.3,2.9-4,4.9-4.4C179.6,105.1,178,106.6,176.3,108.1z"/>
	<path d="M230.9,64c-0.2-0.1-0.3-0.2-0.5-0.3c-1-1-2-2.1-3-3.1c0.1-0.1,0.1-0.2,0.2-0.2c1.1,0.9,2.2,1.8,3.4,2.9
		c0.1-0.7,0.2-1.2,0.3-1.9c0.2,1,0.4,1.8,0.6,2.6C231.6,63.9,231.3,64,230.9,64z"/>
	<path d="M239.5,96c-0.4,2.6,0.7,5.4-0.8,8c0.1-2.7,0.3-5.3,0.4-8C239.2,96,239.4,96,239.5,96z"/>
	<path d="M203.1,93.9c1-2.2,2.1-4.4,3.1-6.6c0.1,0.1,0.2,0.1,0.4,0.2c-1,2.2-2,4.4-2.9,6.6C203.5,94.1,203.3,94,203.1,93.9z"/>
	<path d="M138.4,74.8c0.1,0.3,0.3,0.6,0.3,0.9c-0.1,0.4-0.4,0.7-0.6,1.1c-0.2-0.3-0.7-0.7-0.7-1c0.1-1.1,0.4-2.2,0.6-3.3
		c0.2,0,0.3,0.1,0.5,0.1c-0.1,0.8-0.2,1.5-0.4,2.3C138.2,74.8,138.3,74.8,138.4,74.8z"/>
	<path d="M151.5,96.1c-0.5-0.8-1-1.6-1.5-2.5c0.2-0.1,0.3-0.2,0.5-0.3c1,1.4,1.9,2.8,2.9,4.1c-0.1,0.1-0.3,0.2-0.4,0.3
		c-0.5-0.5-0.9-1.1-1.4-1.6C151.6,96.1,151.5,96.1,151.5,96.1z"/>
	<path d="M220.5,84.7c-0.6,0.9-1.3,1.8-1.8,2.8c-0.5,1-0.9,2-1.4,3.2C216.7,89.3,218.1,86.6,220.5,84.7z"/>
	<path d="M118.3,85.6c-1.2-1.6-1.2-3.7,0-5.3C118.3,82.1,118.3,83.8,118.3,85.6z"/>
	<path d="M215.5,79.1c-0.2,1.7-0.3,3.1-0.5,4.6C213.8,83.4,213.9,81.1,215.5,79.1z"/>
	<path d="M153.2,84c-1,1.6-3.5,3.4-6.1,4.1C149.1,86.7,151.1,85.4,153.2,84z"/>
	<path d="M136.1,73.8c0.2,1.3-0.6,2.6,0.6,3.4c0.1,0-0.2,0.6-0.3,0.9c-0.3-0.2-0.8-0.2-0.9-0.5C135.1,76.4,135.2,75.2,136.1,73.8z"
		/>
	<path d="M132.5,74.8c0,1.6,0,3.2,0,4.7C131.2,79.1,131.1,76.8,132.5,74.8z"/>
	<path d="M186.3,86.6c0.4,0.6-0.4,1.8,1,2c-0.4,1.3-0.9,2.8-1.4,4.3C186,92.8,186.3,86.6,186.3,86.6z"/>
	<path d="M121.3,95.3c-0.3-1.2-0.6-2.4-0.9-3.5c0.1,0,0.1,0,0.2,0c0.8,1.1,1.5,2.3,2.3,3.4c0,0,0,0.1,0.1,0.1
		C122.4,96.5,121.8,95.4,121.3,95.3L121.3,95.3z"/>
	<path d="M114.9,68.2c-1.3,1.1-2.5,2.2-3.7,3.3c0,0.1-0.1-0.2,0-0.2c1-1.1,2.1-2.3,3.2-3.4C114.4,67.9,114.7,68.1,114.9,68.2
		L114.9,68.2z"/>
	<path d="M117.5,49.1c-0.2,1.4-0.5,2.8-0.7,4.2c-0.2,0-0.4-0.1-0.6-0.1c0.3-1.4,0.5-2.8,0.8-4.2C117.1,49,117.3,49,117.5,49.1z"/>
	<path d="M250.2,100.4c-0.2-0.4-0.6-0.9-0.5-1.3c0.2-1.5,0.5-3,1.1-4.5C250.5,96.5,250.3,98.5,250.2,100.4L250.2,100.4z"/>
	<path d="M180.9,88.6c-0.1,1.8-0.3,3.7-0.4,5.5c-0.1,0-0.3,0-0.4,0c-0.3-1.9,0.3-3.7,0.4-5.5C180.6,88.6,180.8,88.6,180.9,88.6z"/>
	<path d="M153.3,94.1c0.7,1.4,1.3,2.6,2,3.9C153.7,97.5,152.9,95.8,153.3,94.1z"/>
	<path d="M134.3,75c-0.1,0.4-0.3,0.8-0.3,1.2c0,0.7,0.2,1.4,0.3,2.1c0,0.3-0.1,0.6-0.2,0.9c-0.3-0.1-0.8-0.3-0.8-0.4
		C133.3,77.5,133.1,76.1,134.3,75z"/>
	<path d="M196.3,84.3c0,1.4,0,2.9,0,4.5c0,0.2-0.2,0.4-0.4,0.6C196.2,87.6,194.7,85.7,196.3,84.3z"/>
	<path d="M153.3,82.3c1.1-2,2.2-4,3.4-6C156.2,78.7,154.9,80.6,153.3,82.3z"/>
	<path d="M138,80.7c-0.8,1.9-1.6,3.7-2.4,5.6c-0.1-0.1-0.3-0.1-0.4-0.2c0.8-1.9,1.6-3.7,2.4-5.6C137.7,80.6,137.8,80.7,138,80.7z"/>
	<path d="M213.3,79c0.5,0.1,0.8,0.2,1,0.3c-0.3,1.1-0.6,2.2-0.8,3.3c-0.1,0-0.3,0-0.4,0C213.2,81.4,213.3,80.3,213.3,79z"/>
	<path d="M236.8,79.2c-1.4,0-2-0.9-1.9-3.1C235.5,77.1,236.1,78.1,236.8,79.2z"/>
	<path d="M186.2,40.1c0.6,1.1,1.1,2.2,1.7,3.3c-0.1,0.1-0.2,0.1-0.3,0.2c-1.2-0.8-1.8-1.9-1.7-3.3C186,40.2,186.1,40.2,186.2,40.1z"
		/>
	<path d="M219.4,88.8c-0.5-0.9,0.5-2.7,2.6-4.4C221.1,85.9,220.3,87.4,219.4,88.8z"/>
	<path d="M208.8,85.6c0.5-1,1.1-2,1.6-3c0.1,0,0.2,0,0.3,0.1c-0.3,1.2-0.5,2.3-0.8,3.6c-0.4-0.2-0.7-0.3-0.9-0.5
		C208.9,85.7,208.9,85.6,208.8,85.6z"/>
	<path d="M193.2,77.9c-1.2-0.6-2.2-2.9-1.7-4C192.1,75.2,192.7,76.5,193.2,77.9z"/>
	<path d="M156.4,139.4c-0.2,0.3-0.4,0.5-0.7,0.8c-0.1,0-0.2-0.1-0.2-0.1c0.2-1.3,0.3-2.5,0.5-3.8c0.1,0,0.2,0,0.3,0
		C156.4,137.3,156.4,138.4,156.4,139.4L156.4,139.4z"/>
	<path d="M153.7,136.5c0,1.2,0,2.3,0,3.5C152.8,139.5,152.8,138,153.7,136.5z"/>
	<path d="M155.7,95.8c0.4,1.2,0.8,2.3,1.2,3.6C155.6,98.5,155.1,97.1,155.7,95.8z"/>
	<path d="M106.6,68.8c0.2-0.2,0.4-0.4,0.6-0.6c0,0.3,0,0.7-0.1,1c-0.2,0.7-0.5,1.5-0.8,2.2c-0.1,0.2-0.4,0.4-0.7,0.6
		c-0.1-0.3-0.3-0.6-0.2-0.7C105.7,70.4,106.2,69.6,106.6,68.8z"/>
	<path d="M142,69.3c-1,0.9,1.1,2.4-0.6,3.3C140.9,71.3,141.2,70.3,142,69.3z"/>
	<path d="M216.2,80.7c0.1,0.9,0.3,1.8,0.4,2.7c-0.1,0.1-0.1,0.2-0.2,0.2c-0.3-0.4-0.8-0.7-0.9-1.1c-0.1-0.6,0.1-1.3,0.2-2
		C215.9,80.6,216,80.6,216.2,80.7z"/>
	<path d="M156.8,59.7c-1,1.3-2,2.6-2.9,4c-0.1-0.1-0.2-0.2-0.3-0.2c1-1.3,1.9-2.7,2.9-4C156.6,59.5,156.7,59.6,156.8,59.7z"/>
	<path d="M234,62.7c0.1,1.5,0.2,2.8,0.3,4.2C233.4,66.2,233.3,65.4,234,62.7z"/>
	<path d="M99.2,38.9c-0.3,1-1.1,0.9-1.8,0.8c-0.2,0-0.4-0.4-0.7-0.6c0.3-0.2,0.5-0.5,0.8-0.5C98.1,38.6,98.6,38.8,99.2,38.9z"/>
	<path d="M190.6,88.6c0.2-1.2,0.4-2.3,0.6-3.5c0.1,0,0.2,0,0.4,0.1c-0.1,1.2-0.3,2.3-0.4,3.5C190.9,88.6,190.8,88.6,190.6,88.6z"/>
	<path d="M241.1,73.2c-0.5-1.3-1-2.7-1.5-4c0.1,0,0.2-0.1,0.3-0.1c0.6,1.3,1.1,2.6,1.7,3.9C241.4,73.1,241.3,73.1,241.1,73.2z"/>
	<path d="M152.8,100.5c-0.6-0.9-1.2-1.8-1.9-2.7c0.2-0.1,0.3-0.2,0.5-0.3c0.6,0.9,1.2,1.8,1.8,2.7
		C153.1,100.3,152.9,100.4,152.8,100.5z"/>
	<path d="M209,85.7c0.3,1.4-0.2,2.5-1.2,3.5c0.3-1.2,0.7-2.4,1-3.7C208.9,85.6,208.9,85.7,209,85.7z"/>
	<path d="M188.1,80.5c-0.3-1.2-0.5-2.3-0.8-3.5c0.2,0,0.3-0.1,0.5-0.1c0.3,1.1,0.6,2.3,0.9,3.4C188.5,80.4,188.3,80.4,188.1,80.5z"
		/>
	<path d="M169.5,85.8c0,1.3,0,2.6,0,3.8c-0.1,0-0.2,0-0.3,0c0-1.3,0-2.6,0-3.8C169.3,85.8,169.4,85.8,169.5,85.8z"/>
	<path d="M249.4,82c0.5,1.2,1.1,2.5,1.6,3.7c-0.2,0.1-0.3,0.1-0.5,0.2c-0.5-1.3-1-2.5-1.5-3.8C249.2,82,249.3,82,249.4,82z"/>
	<path d="M143.4,68.3c0.2,0.6,1.3,1,0.4,1.8c-0.2,0.1-0.5,0-0.8,0c0-0.6,0-1.3,0-1.9C143.2,68.3,143.3,68.3,143.4,68.3z"/>
	<path d="M114.9,50.7c-0.1,0.5-0.2,1.1-0.5,1.5c-0.1,0.2-0.5,0.2-0.7,0.3c0-0.3-0.2-0.7-0.1-0.9c0.2-0.4,0.6-0.7,0.9-1.1
		C114.6,50.6,114.8,50.7,114.9,50.7z"/>
	<path d="M199.4,41.3c1.2-0.3,1.2-0.3,2.4,1.3c-0.1,0.1-0.2,0.2-0.3,0.3c-0.4-0.4-0.8-0.7-1.2-1.2c-0.2,0-0.5,0-0.9,0
		C199.4,41.5,199.4,41.4,199.4,41.3z"/>
	<path d="M189.3,92.4c-0.2,1.3-0.4,2.7-0.6,4c-0.2,0-0.3-0.1-0.5-0.1c0.2-1.3,0.5-2.7,0.7-4C189.1,92.3,189.2,92.3,189.3,92.4z"/>
	<path d="M212.3,79c-0.2-1.2-0.4-2.4-0.5-3.6c0.1,0,0.3-0.1,0.4-0.1c0.2,1.2,0.4,2.4,0.7,3.6C212.6,78.9,212.5,78.9,212.3,79z"/>
	<path d="M239.5,76c-0.1,1.2-0.1,2.5-0.2,3.7c-0.1,0-0.3,0-0.4,0c0.1-1.2,0.2-2.5,0.3-3.7C239.3,76,239.4,76,239.5,76z"/>
	<path d="M160.1,58.5c-1,0.9-2,1.8-2.9,2.6c-0.1-0.1-0.2-0.2-0.3-0.3c1-0.9,1.9-1.8,2.9-2.7C159.8,58.3,159.9,58.4,160.1,58.5z"/>
	<path d="M151.1,87.1c1.1-1,2.1-2,3.2-2.9c0.1,0.1,0.2,0.2,0.2,0.3c-1.1,1-2.1,2-3.2,2.9C151.3,87.3,151.2,87.2,151.1,87.1z"/>
	<path d="M187.1,95.9c0.1-1.4,0.2-2.7,0.4-4.1c0.2,0,0.4,0.1,0.6,0.1C187.8,93.2,187.4,94.5,187.1,95.9
		C187.1,95.9,187.1,95.9,187.1,95.9z"/>
	<path d="M246.1,160.1c-0.7-3.6,1-6.5,1.1-9.6c0.1,0,0.2,0,0.4,0c-0.2,1.5-0.4,3-0.7,4.5C246.7,156.6,246.4,158.1,246.1,160.1z"/>
	<path d="M242.1,167.7c0.2-1.4,0.4-2.7,0.7-4.1c0.2,0,0.4,0.1,0.5,0.1c-0.2,1.4-0.3,2.7-0.5,4.1
		C242.6,167.8,242.3,167.8,242.1,167.7z"/>
	<path d="M153,160.7c-0.9-4.2,0.6-8.2,0.6-12.3c0.2,0,0.3,0,0.5,0C153.7,152.6,153.3,156.7,153,160.7z"/>
	<path d="M166.4,163.1c0.1,0.2,0.2,0.4,0.3,0.6c0.1-0.2,0.3-0.3,0.5-0.5c0.4,1.1,0.8,2.2,1.4,3.6c-0.7-0.4-1-0.7-1.4-0.9
		c-0.1,0.3-0.2,0.6-0.4,0.9c-0.1,0-0.3,0-0.4,0c-0.1-1.2-0.3-2.4-0.4-3.6C166.2,163.1,166.3,163.1,166.4,163.1z"/>
	<g>
		<path d="M90.2,48.5C90.2,48.5,90.2,48.5,90.2,48.5C90.2,48.5,90.2,48.5,90.2,48.5L90.2,48.5z"/>
		<path d="M113.5,93.7C113.5,93.7,113.6,93.7,113.5,93.7C113.6,93.7,113.6,93.7,113.5,93.7L113.5,93.7z"/>
		<path d="M111.4,93.8c2.6,1.8,5.3,3.1,8.4,3.8c0.6,0.1,1.1,0.2,1.7,0.2c1.5,0,3-0.3,4.5-0.2c2.2,0.2,4.5,0.5,6.7,1
			c2.9,0.7,5.9,1.4,8.4,3.3c1.5,1.1,3.2,2.2,4.9,3c0.9,0.4,1.2,0.9,1.3,1.8c0.9,6.2,1.8,12.5,2.8,18.7c0.6,3.7,1.2,7.4-0.2,11
			c-0.7,1.8-0.8,3.8,0.2,5.6c1.3,2.4,1.4,5,1,7.6c-0.2,1-0.4,2-0.4,3c-0.2,3.1-0.8,6-2.2,8.9c-0.6,1.2-0.8,2.6-0.9,4
			c0,1.4-0.6,2-1.8,2.4c-0.8,0.2-1.5,0.6-2.3,0.8c-0.9,0.2-1.7,0.5-2.3,1h2.2c1-0.4,2.1-0.9,3.1-1.2c1.7-0.4,1.8-1.6,2.1-3
			c0.4-2,1-4,1.5-6c0.5-2.1,1.1-4.2,1.4-6.3c0.3-2.1,0.5-4.3,0.7-6.5c0-0.5,0-1,0-1.6c1.3,0,3.3-1.7,3.6-3.1c-0.2,2-0.6,4.1-0.7,6.1
			c-0.2,2.6-0.3,5.1-0.4,7.7c-0.1,2.4,0.1,4.8,0,7.2c0,0.8-0.4,1.6-0.8,2.3c-0.5,0.8-1.1,0.8-1.6-0.4c-0.3,0.6-0.5,1.1-0.7,1.5
			c-0.5-1-1.4-1.9-0.2-3.1c-0.2,0-0.4-0.1-0.6-0.1c-0.3,0.7-0.7,1.4-0.7,2.1c0,1.2-0.6,2.8,1.5,3c0.4,0,0.9,0.8,1,1.2
			c0,0,0,0.1,0,0.1h1.3c0-1,0.2-1.9,0.9-2.8c1-1.2,1-2.6,0.9-4c0-0.5-0.1-1-0.1-1.5c0.1-2.7,0.2-5.4,0.4-8.1
			c0.3-3.2,0.7-6.5,1.2-9.7c0.5-2.7,1.2-5.2,1.8-7.9c0.1-0.6,0.2-1.3,0.3-1.9c0.4,0.5,0.4,1,0.6,1.5c0.6,1.8,0.8,3.9,2.4,5.2
			c1.2,1,1.4,2.3,1.6,3.7c0,0.4,0.1,0.7,0.2,1.1c0.9,4.3,1.1,8.6,0.4,12.9c-0.3,1.8-0.7,3.4-0.2,5.3c0.4,1.5-0.3,2.6-1.8,3
			c-0.5,0.1-1,0.1-1.4,0.3c-2,0.5-3.9,1-5,2.9h2.3c-0.1-0.3-0.3-0.5-0.5-0.8c0.8-1,2.1-1.1,3.4-1.5c0.7-0.2,1.5-0.2,2.2-0.5
			c1.7-0.8,2.1-2.1,1.8-3.9c-0.2-1.5-0.1-3.1,0-4.6c0.1-1.3,0.4-2.5,0.6-4c0.2,1.2,0.4,2.2,0.6,3.2c0.1,0,0.2,0,0.3,0
			c-0.5-4.2-0.9-8.3-1.4-12.5c0.1,0,0.2,0,0.3,0c0.4,2.6,0.8,5.3,1.2,7.9c0.1,0,0.2,0,0.4-0.1c-0.2-1.4-0.4-2.8-0.5-4.1
			c-0.2-2.5-0.5-5.1-0.6-7.6c0-0.8,0.5-1.7,0.6-2.5c0.1-2.1,0-4.2,0-6.4c0.1,0,0.3,0,0.4-0.1c0.2,0.9,0.5,1.7,0.5,2.6
			c0.2,3.5,0.1,7,0.3,10.5c0.2,3.1,0.6,6.2,1,9.3c0.2,1.6,0.6,3.2,0.9,4.8c0.4,2.1-0.1,4-0.9,6c-0.1-0.5-0.2-1-0.4-1.7
			c-0.7,0.7-0.7,1.3-0.3,2c0.6,1.3,1.3,2.6,1.6,4h1c0-0.6-0.2-1.2-0.5-1.8c-0.2-0.5,0-1.2,0.1-1.9c0.2-1.3,0.8-2.6,0.7-3.8
			c-0.1-2-0.8-4-1-6c-0.6-5.9-1.2-11.7-1.5-17.6c-0.1-3.2-0.1-6.4-0.9-9.5c-0.6-2.5-1.1-5-1.4-7.6c-0.4-4-0.6-8-1-12
			c-0.1-0.8,0.2-1.1,1-1.1c4.1,0.3,8.1,0.6,12.2,0.7c1.6,0.1,3.1,0.5,4.8,0.1c1.6-0.4,3.4,0,5-0.2c3.6-0.4,6.9-1.7,10.3-2.9
			c3.6-1.4,7.2-2.8,10.9-4c3.5-1.1,6.9-1.5,10.1,1.1c0.8,0.6,1.9,1.3,3.1,0.6c0.7-0.4,1.4-0.9,2-1.5c1.2-1.1,2.2-2.3,3.3-3.5
			c0.1,0.1,0.2,0.1,0.3,0.2c-0.4,1.5-1,3-1.2,4.5c-0.2,1.7,0.1,3.5-0.1,5.2c-0.3,2.6,0.4,5,1.4,7.4c0.2,0.5,0.4,1.1,0.4,1.7
			c0.3,4.9,0.3,9.8,0.8,14.7c0.4,4.2,0.4,8.3-0.3,12.4c-0.3,2-0.5,4-1.2,5.8c-0.7,2-1.9,3.9-3,5.7c-1.4,2.1-2.8,4.4-4.7,6.1
			c-1.6,1.4-3,2.9-4.2,4.7c-0.3,0.4-0.9,0.7-1.4,0.9c-1.6,0.7-3.4,0.9-5,1.5h3.5c0.9-0.2,1.7-0.3,2.5-0.5c0.3-0.1,0.6-0.5,0.8-0.8
			c0.8-1.9,2.1-3.3,3.9-4.5c1.6-1.1,2.9-3,4-4.7c1.5-2.2,2.6-4.7,4.1-6.9c1.5-2.2,1.1-4.8,1.6-7.2c0.4-1.8,0.4-3.7,0.7-5.5
			c0.6,1.2-0.3,2.7,1,3.5c-0.6,2.3-1.2,4.7-1.8,7c0.1,0.1,0.2,0.1,0.3,0.2c0.2-0.3,0.6-0.7,0.7-1c0.4-1.5,0.6-3,1.1-4.4
			c0.2-0.7,0.7-1.3,1-1.9c0.1-0.1,0.3-0.3,0.3-0.4c0.1-1.3,0.2-2.7,0.1-4.1c-0.3,1.1-0.6,2.2-0.9,3.3c-0.1,0-0.2,0-0.2-0.1
			c0.5-2.2,0.9-4.4,1.4-6.5c-0.1,0-0.2-0.1-0.3-0.1c-0.6,1.7-1.1,3.4-1.7,5c-0.1,0-0.1,0-0.2,0c0.5-2.7,1-5.4,1.6-8.5
			c-0.5,1.3-0.9,2.2-1.3,3.1c-0.1,0-0.2,0-0.2,0c0.5-2,1-4,1.6-6.1c-0.1,0-0.2-0.1-0.3-0.1c-0.6,2-1.3,4-1.9,6.1
			c-0.3-2.9,0.6-5.6,1.2-8.4c-0.2,0.4-0.5,0.9-0.7,1.3c-0.2,0.5-0.4,1-0.8,1.4c0.5-2,1-3.9,1.5-5.9c-0.1,0-0.2-0.1-0.3-0.1
			c-0.3,0.8-0.6,1.6-0.9,2.4c-0.1,0-0.2,0-0.3-0.1c0.7-3.6,1.4-7.3,2.1-10.9c0,0,0.1,0,0.1,0c-0.1,1.1-0.3,2.3-0.4,3.4
			c0.1,0,0.1,0.1,0.2,0.1c0.2-0.4,0.3-0.8,0.4-1c1.5,2.2-1.2,4.2-0.6,6.7c0.5-1.6,0.9-3,1.4-4.4c0.1,0,0.2,0,0.3,0.1
			c-0.4,2.3-0.8,4.6-1.2,6.9c0.2,0,0.4,0.1,0.6,0.1c1-6.8,2.1-13.6,3.1-20.3c-0.2,0-0.3-0.1-0.5-0.1c-0.3,0.5-0.5,1.1-0.8,1.7
			c-0.2-0.5-0.3-0.9-0.6-1.7c-0.4,2.6-0.7,4.9-1,7.2c-0.1,0-0.1,0-0.2,0c0-2.1,0-4.3,0-6.4c-0.1,0.1-0.2,0.2-0.3,0.2
			c-0.6-0.4-1.2-0.7-1.7-1.3c-1.7-2-2.2-1.9-3.2,0.5c-0.2,0.5-0.4,1-0.6,1.5c-0.2-0.1-0.3-0.1-0.5-0.2c0.8-1.9,1.6-3.8,2.6-6.1
			c-0.7,0.8-1.2,1.4-1.7,1.9c0.6-1.8,1.5-3.2,3.5-3.8c-0.1-0.2-0.3-0.3-0.4-0.5c-0.8,0.4-1.6,0.9-2.4,1.3c-0.1,0-0.1-0.1-0.2-0.1
			c0.9-0.9,1.8-1.8,2.7-2.7c-0.1-0.1-0.2-0.2-0.3-0.3c-0.7,0.6-1.5,1.2-2.4,2c0.6-1.6,1.3-2.8,3-3.2c-0.1-0.1-0.1-0.2-0.2-0.3
			c-0.5,0.1-1,0.2-2,0.3c1-1.1,1.9-2,2.7-2.8c-0.1-0.1-0.1-0.2-0.2-0.3c-0.6,0.4-1.1,0.9-2,1.6c0.3-1.5,0.5-2.7,0.9-3.8
			c0.4-1.1,1.1-2.1,1.7-3.1c-0.2,0-0.5,0.1-0.8,0.2c-0.1-0.1-0.2-0.1-0.3-0.2c0.4-0.5,0.9-1,1.3-1.6c0.2-0.3,0.4-0.7,0.6-1.1
			c-0.1-0.1-0.2-0.1-0.3-0.2c0.6-0.5,1.1-1,1.7-1.5c-0.1-0.1-0.1-0.2-0.2-0.3c-0.8,0.5-1.6,1-2.5,1.4c-0.1-0.1-0.3-0.3-0.4-0.4
			c0.4-0.4,0.8-0.9,1.3-1.3c-0.2-1.6-0.5-3.5-0.8-5.4c-0.1,0-0.2,0-0.3,0c-0.1,0.4-0.1,0.7-0.2,1.4c-0.4-1.5-0.7-2.6-1-3.8
			c-0.1,0-0.2,0-0.4,0.1c0.2,1,0.3,1.9,0.5,2.9c-0.1,0-0.1,0-0.2,0.1c-1-1.7-1.9-3.4-2.9-5.2c-0.1,0.1-0.2,0.1-0.4,0.2
			c0.1,0.5,0.3,1,0.5,1.8c-1.2-1.4-2.3-2.6-3.4-3.9c-0.1,0.1-0.2,0.1-0.2,0.2c1.3,2,2.7,4.1,4,6.1c0.1,0.1,0.2,0.2,0.2,0.3
			c0.4,0.3,0.7,0.5,1.1,0.8c-0.4,0.8-0.7,1.7-1,2.5c0-0.4-0.1-1-0.2-1.6c-0.1,0-0.3,0-0.4,0c0.1,0.9,0.1,1.8,0.2,2.6
			c0.2,1.6-0.3,2.9-1.4,4.1c-0.5,0.5-0.8,1.1-1.1,1.8c-0.1,0.1,0.3,0.5,0.4,0.7c0.9-1.6,1.9-3.1,2.8-4.7c-1.1,2.1-1.1,4.7-3.1,6.5
			c0.1-0.2,0.2-0.4,0.3-0.6c0.1-0.2,0.4-0.4,0.4-0.7c0-0.2-0.3-0.4-0.4-0.5c-0.6,1-1.2,2-1.7,2.8c-0.7,0-1.2,0-2,0
			c0.9-1.8,0.7-4.1,2.9-5.2c0-0.6,0.1-1.3,0.1-2c-0.7,0.5-1.4,1.1-2.1,1.6c0-0.2-0.1-0.4-0.2-0.7c-1.9,0.9-2.7,2.7-3.7,4.3
			c-0.9,1.5-1.6,3.1-2.3,4.7c-0.8,1.9-2.1,3.3-3.8,4.5c1.2-2.2,2.5-4.4,3.7-6.6c-0.1-0.1-0.2-0.1-0.3-0.2c-0.9,1.5-1.9,2.9-2.7,4.4
			c-0.9,1.6-1.8,3-3.3,4.1c-0.1-0.1-0.2-0.1-0.3-0.2c1.7-2.5,3.5-4.9,4.9-7.5c1-1.9,1.3-4.1,1.9-6c0.1,0-0.2,0.1-0.5,0.2
			c-0.2-0.1-0.3-0.2-0.5-0.3c-0.4,1.9-0.8,3.7-1.2,5.6c0,0.2-0.1,0.5-0.2,0.6c-2.2,3-4.5,6-6.7,8.9c-0.2,0.2-0.5,0.3-1,0.3
			c1.2-1.7,2.4-3.5,3.5-5.2c0.7-1.1,1.1-2.5,2.1-3.2c2.1-1.5,1.6-4.1,2.9-5.9c-0.2-0.1-0.4-0.2-0.6-0.3c-0.8,1.7-1.7,3.5-2.5,5.2
			c-0.1-0.1-0.2-0.1-0.4-0.2c0.8-1.9,1.6-3.9,2.3-5.8c0-0.1-0.1-0.1-0.1-0.2c-0.4,0.4-0.9,0.7-1.1,1.1c-0.9,1.9-1.8,3.9-1.6,6.2
			c0.1,0.4-0.4,1-0.7,1.4c-1.6,2.4-3.4,4.6-4.7,7.1c-1,2-3,1.7-4.4,2.7c2.5-3.9,5.6-7.4,7.4-11.7c0.1,0.1,0.3,0.1,0.4,0.2
			c-0.2,0.5-0.2,1.1-0.5,1.5c-1.6,2.4-3.2,4.7-4.8,7.1c-0.3,0.4-0.6,0.8-0.9,1.3c0.1,0.1,0.2,0.2,0.4,0.3c0.7-0.9,1.6-1.7,2.2-2.6
			c1.4-2.1,2.8-4.2,4.1-6.4c0.6-0.9,0.5-2.1,0.8-3.1c0.6-1.8,1.7-3.4,2.7-5.1c0.1-0.1,0.2-0.3,0.2-0.5c-4.9,2.7-7.5,7.3-9.7,12.2
			c-0.2-0.1-0.3-0.1-0.5-0.2c0.6-1.5,1.2-3,1.9-4.5c-0.1,0-0.1-0.1-0.2-0.1c-0.4,0.5-0.8,1-1.2,1.5c-0.5,0.6-0.6,1.6-1.7,1.6
			c-0.2,0-0.5,0.8-0.7,1.2c-0.5,1.2-0.9,2.4-1.4,3.7c-0.2-0.1-0.3-0.1-0.5-0.2c0.4-1.3,0.8-2.6,1.2-3.9c-0.1-0.1-0.2-0.1-0.2-0.2
			c-0.3,0.4-0.6,0.8-0.9,1.2c-0.1-0.3-0.2-0.5-0.5-1.2c-0.7,1.8-1.3,3.2-1.8,4.6c-0.1,0-0.2,0-0.3,0c0.3-1.6,0.5-3.2,0.8-4.9
			c-0.8,0.5-1.2,1.5-1.3,3.1c-0.2,2.3-0.2,2.3-1.6,3c0.2-1.5,0.3-2.9,0.5-4.3c0.1-0.7,0.4-1.3,0.6-2c0-0.1,0.5-0.1,0.9-0.1
			c0.1-0.4,0.3-0.9,0.7-1.9c-0.6,0.4-0.9,0.6-1.2,0.8c-1.1,1-2.3,1.8-3.1,2.9c-0.7,1-0.8,2.4-1.1,3.6c-0.2,0.5-0.4,1.1-0.8,1.5
			c-0.4-3.3,0.2-6.4,1.6-9.3c-0.1-0.1-0.2-0.1-0.3-0.2c-0.2,0.4-0.6,0.7-0.6,1.1c-0.2,1.2-1,1.9-2,2.4c-0.4,0.2-0.8,0.9-0.9,1.4
			c-0.3,1.6-0.4,3.2-0.6,4.7c-0.1,0.5-0.3,1-0.6,1.5c-0.6-2.5,0-4.8,0.7-7.2c-0.1,0-0.2-0.1-0.3-0.1c-0.3,0.5-0.6,1-0.7,1.5
			c-0.3,1.6-0.5,3.2-0.8,4.7c-0.1,0.3-0.3,0.7-0.4,1c-0.2,0-0.4-0.1-0.6-0.1c0.3-2.1,0.6-4.1,0.9-6.2c0.1-0.4,0.3-0.8,0.3-1.1
			c0-0.2-0.3-0.3-0.5-0.5c-0.6,2.6-1.3,5.2-1.9,7.8c-0.6-2.7,0.5-5.2,0.9-7.8c-1.4,1-2.5,6.5-1.8,8.6c-4.2,4.1-4.2,4.1-5.9,4
			c1.6-1.3,2.9-2.4,4.3-3.6c0.3-0.2,0.5-0.6,0.6-0.9c0.4-2.4,0.8-4.9,1.2-7.4c0.1-0.7,0-1.4,0-2.1c0-1.2,0-2.4,0-3.8
			c-0.7,1.4-0.4,2.7-0.4,4c0,0.6,0,1.1-0.2,1.7c-0.4,1.5-0.9,3.1-1.5,4.6c0.3-1.6,0.7-3.3,1-5.1c-0.3,0.3-0.6,0.4-0.6,0.5
			c-0.5,1.9-1,3.8-1.4,5.7c-0.1,0.3,0.4,0.6,0.5,1c0.1,0.6,0.3,1.4,0,1.7c-1,1.1-2.4,1.9-3.4,3c-1.3,1.4-2.7,0.6-4.5,0.6
			c1.7-2.2,3.8-3.5,5.8-5c-1.5-2.9,0.5-5.6,0.3-8.5c-1.2,0.8-2.2,6.7-1.5,8.5c-0.3,0.2-0.6,0.5-1.2,0.9c0-3.8,0.8-7.2,1.9-10.6
			c-1.6,2.9-2.6,6-2.7,9.4c-0.2,0-0.4-0.1-0.5-0.1c0.6-2.7,1.2-5.3,1.7-8c0.2-1.3,0.2-2.6,0.3-3.9c0-0.7-0.2-1.4-0.3-2.1
			c-0.1,0.2-0.3,0.2-0.2,0.3c0.4,3.4-0.8,6.5-1.6,9.6c-0.4,1.4-0.4,2.8-0.4,4.2c0,0.9-0.3,1.3-1.2,1.5c-0.9,0.8-1.8,1.5-2.6,2.3
			c-0.3,0.2-0.4,0.6-0.4,1.1c1.8-1.1,3.2-2.9,5.4-3.5c-0.8,1.6-2.9,2.1-3.4,4.2c-1.4-0.2-3-0.4-4.6-0.6c-0.6,0-1.1-0.1-1.7-0.1
			c-0.1-0.1-0.1-0.2-0.2-0.3c1-0.9,2-2,3.2-2.6c1-0.5,1.3-1,1.5-1.9c0.5-2.9,1.1-5.8,1.6-8.7c0.1-0.4,0-0.8,0-1.2
			c-0.2,0-0.3,0-0.5,0c-0.1,0.5-0.1,1-0.3,1.5c-0.6,3-1.3,5.9-1.9,8.9c-0.1,0.3-0.4,0.6-0.6,0.9c-1.3,1-2.7,2.1-4.1,3
			c-0.4,0.3-0.9,0.3-1.4,0.4c-0.1-0.1-0.2-0.3-0.2-0.4c1.6-1.3,3.3-2.7,4.9-4c-2.4,1-4.4,2.6-6.4,4.3c-0.1-0.1-0.2-0.2-0.3-0.3
			c1.4-1.3,2.8-2.6,4.2-4c-0.3-0.1-0.5-0.1-0.8-0.1c2.8-3.6,4.2-10.7,4-13c-1.2,3.6-1.7,7.4-3.8,10.8c3.4-6.6,2.5-13.3,0.8-20
			c0.3,2.8,0.6,5.7,0.9,8.5c-0.1,0-0.1,0-0.2,0c-0.6-2.7-1.2-5.4-1.8-8.1c-0.1,0-0.2,0-0.4,0.1c0.1,0.7,0.3,1.3,0.4,2
			c0.1,0.7,0.5,1.4,0.3,2.1c-0.3,1.5-0.9,3-1.3,4.5c0-0.9,0.1-1.8,0.1-2.7c-0.1,0-0.3-0.1-0.4-0.1c-0.5,3.7-0.8,7.4-2.9,10.5
			c0.1,0.1,0.3,0.1,0.4,0.2c0.3-0.5,0.6-1,0.9-1.5c0.3-0.5,0.5-1.1,0.8-1.6c-0.2,1.6-0.5,3.1-1.8,4.2c-0.3,0.3-0.4,1.4-0.1,1.9
			c0.6,1.3-0.1,2-0.9,2.7c-1.2,1.1-1.8,2.2-1.2,3.9c0.3,0.9-0.2,2.1-0.4,3.1c-1,5.1-1.2,10.3-1.1,15.5c0.1,3.1,0,6.2-0.3,9.3
			c-0.1,1.4-1,2.8-1.5,4.2l0,0c-0.1,0.9-0.3,1.8-1.4,1.8c-1.4,0.1-0.7,1.4-1.1,1.9c-1.8-2.1-1.1-4.8-1.8-7.3
			c-0.1,1.1-0.2,2.1-0.2,3.2c-0.1,0-0.3,0-0.4,0c0.1-2.3,0.3-4.6,0.2-7c-0.1-2.3-0.3-4.5-0.7-6.7c-0.7-4.6-1.5-9.2-2.4-13.7
			c-0.6-3-0.7-5.9-0.2-8.8c0.1-0.4,0.2-0.7,0.5-1c0,3-0.2,6.1,0.1,9.1c0.3,2.8,0.7,5.6,1.9,8.4c0.9,2.1,0.7,4.7,1,7.1
			c0.1,1.1-0.1,2.3,0.1,3.5c0.1,0.9,0.5,1.8,0.9,2.7c-0.4-6.5-0.7-13-1.1-19.5c0.6,4,1.2,7.9,1.8,11.8c0.1,0,0.2,0,0.3,0
			c0.1-0.2,0.2-0.4,0.4-0.6c0.2,1,0.2,1.9,0.5,2.8c0.4,1.4,1.1,2.8,1.6,4.2c0.3,0.9,0.4,1.9,0.8,2.9c0.1-1.5,0.5-2.9-0.3-4.4
			c-0.6-1.1-0.9-2.4-0.4-3.9c0.4-1.1-0.1-2.5-0.2-3.8c0-0.3-0.1-0.7,0.1-1.1c0.2,0.6,0.4,1.1,0.6,1.7c0.1,0,0.2,0,0.2-0.1
			c-0.3-3-0.6-5.9-0.9-8.9c-0.1,0-0.1,0-0.2-0.1c-0.1,0.7-0.1,1.4-0.2,2.1c-0.1-2.3-0.3-4.5-0.4-6.8c0-0.9,0.2-1.8,0.4-2.7
			c-0.2,0-0.3,0-0.5-0.1c-0.4,2.5-0.8,5-1.2,7.8c-0.2-1.4-0.3-2.6-0.5-3.8c-0.1,0.1-0.3,0.2-0.5,0.3c-0.1-0.5-0.2-1.1-0.4-1.6
			c-0.1,0-0.2,0-0.3,0c0.1,1.5,0.2,3.1,0.2,4.6c-0.1,0-0.1,0-0.2,0c-0.3-1.7-0.5-3.4-0.8-5c-0.1,0-0.3,0-0.4,0c0,1.4,0,2.7,0,4.1
			c-0.2,0-0.4,0-0.5,0c-0.2-3-0.3-5.9-0.5-8.9c-0.9,4.7,0.1,9.3,0.8,14.1c-1.8-2.9-2.4-14.3-0.9-16c0.3,0.1,0.6,0.3,1.1,0.5
			c-0.9-1.9-1.8-3.6-2.6-5.3c0.2-0.1,0.3-0.2,0.5-0.3c1.3,1.4,1.2,3.8,3.4,5c-0.9-1.9-1.6-3.6-2.4-5.2c0.5-0.4,1.3,1.2,1.6-0.3
			c0,0-0.1-0.1-0.1-0.1c-1.6-1.2-3.2-2.5-4.8-3.7c1.4-0.6,2.7-1.2,3.9-1.7c0-0.1-0.1-0.1-0.1-0.2c-1.4,0.3-2.9,0.5-4.5,0.8
			c0.1,0.7,0.3,1.5,0.5,2.3c-1.5-0.8-1.7-1.3-0.9-2.4c-0.4-0.5-0.7-1.1-1.1-1.5c-0.5-0.4-1.1-0.7-2-1.3c0.3,0.7,0.3,1.1,0.5,1.3
			c0.3,0.4,0.8,0.8,0,1.2c0.1,0.3,0.2,0.7,0.4,1c0.8,0.9,1.7,1.8,2.3,2.9c-2.2-0.9-3.7-2.5-4.6-4.6c-0.1,0.1-0.3,0.2-0.4,0.3
			c0.5,1,1,2.1,1.4,3.1c-2.8-1-4.4-8.8-0.8-13.4c-0.1,1-0.2,1.9-0.3,2.7c2-4.9,3.1-10.1,6.9-14.1c-0.1-0.1-0.1-0.2-0.2-0.3
			c-0.4,0.3-0.9,0.6-1.2,1c-0.6,0.9-1.2,1.9-1.8,2.8c-1,1.6-2,3.1-3,4.7c-0.2-0.1-0.3-0.2-0.5-0.3c1.8-2.8,3.6-5.7,5.5-8.4
			c1.3-1.9,2.7-3.7,3-6.1c-0.7,1.2-1.3,2.4-2.1,3.9c0-0.6,0-0.8,0.1-1.3c-0.3,0.5-0.5,0.7-0.7,1c-0.1,0.1,0.1,0.4,0,0.5
			c-0.2,0.5-0.5,1-0.7,1.5c0,0.1-0.4,0-0.4,0c-0.1-0.5-0.1-0.9-0.3-1.6c-0.3,0.9-1,1.8-0.8,2.6c0.2,0.8,0,1.2-0.4,1.8
			c-1.2,2.1-2.7,4.1-3.7,6.4c-1,2.2-1.5,4.6-2.3,6.9c-0.1,0.3-0.2,0.6-0.4,0.8c0-2.8,1.7-5.2,2.1-7.9c-3.2,6.3-4.2,12.9-2.3,19.9
			c-0.2,0-0.4,0-0.6,0c-0.2-1.6-0.4-3.2-0.5-4.8c-0.1-1.7,0-3.3,0-5c-0.2,0-0.4,0-0.5,0c-0.2,1.1-0.3,2.2-0.5,3.3
			c-0.1,0-0.2,0-0.4,0c0-0.8,0-1.6,0-2.5c-0.2,0-0.3,0-0.5-0.1c-0.1,0.9-0.3,1.7-0.4,2.6c-0.1,0.9-0.2,1.9-0.3,3.2
			c-1.1-1.9-0.2-3.5-0.3-5.4c-1.7,2.5-1.3,5-1.3,7.4c-0.1,0-0.3,0-0.4,0c-0.2-2.1-0.3-4.3-0.5-6.6c-0.4,0.9-0.8,1.6-1.2,2.5
			c-0.1-0.3-0.2-0.5-0.3-0.8c-0.8,1-0.5,1.9,0,2.7c0.4,0.8,0.8,1.5,1.2,2.3c-0.4-0.4-1.1-0.8-1.2-1.4c-0.5-1.6-0.7-3.4-1.1-5.1
			c-0.3,1.1-0.7,2.1-1.1,3.5c-0.2-1.5-0.4-2.7-0.5-3.7c-0.7,1-0.4,2.9,1.3,7.7c-0.8,0-1.5,0.3-1.3-1.1c0.2-1.1-0.3-2.4-0.7-3.6
			c-0.1-0.3-0.8-0.5-0.8-1.1c0-0.6-0.1-1.2-0.5-1.9c-0.2,1.3-0.4,2.7-0.6,4c-0.1,0-0.3,0-0.4,0c-0.2-1.1-0.4-2.3-0.6-3.4
			c-0.2,0-0.3,0-0.5,0.1c0.2,1.9,0.5,3.8,0.7,5.7c-0.8-0.2-0.8-0.2-1.7-5.1c-0.6,0.8-0.5,2.3,0.6,5.5c0,0,0,0.1,0.1,0.1
			c1.1,0.3,2.2,0.6,3.4,0.9c-3,0.6-5.8,0.7-8.6-0.4c-0.4-0.2-0.8-0.2-1.3-0.3c-1.2-0.2-2.3-0.6-2.9-1.8c-3.5-1.8-5.9-4.3-7.1-8.2
			c-1.3-4.2-1.6-8.5-2.2-12.8c0-0.1,0-0.3-0.1-0.4c-0.8-2-1.8-4-0.3-6.2c-0.2,0-0.4-0.1-0.6-0.1c-0.4,0.9-0.9,1.8-1.3,2.7
			c-0.1,0-0.2-0.1-0.3-0.1c0.5-1.5,1.1-3,1.6-4.5c-0.1,0-0.1-0.1-0.2-0.1c-0.4,0.7-0.9,1.3-1.3,2c-0.1-0.1-0.3-0.1-0.4-0.2
			c0.7-1.4,1.4-2.8,2.1-4.2c-0.1-0.1-0.1-0.1-0.2-0.2c-0.3,0.3-0.7,0.5-1,0.8c-0.1,0-0.2-0.1-0.3-0.1c0.2-0.5,0.3-1,0.7-1.4
			c0.5-0.6-0.1-1-0.1-1.5c0-0.5,0.6-1,1-1.6c-1.9,0.9-3.1,4.3-1.9,5.1c-0.3,0.4-0.5,0.8-0.8,1.2c-0.2,0-0.3,0-0.5-0.1
			c0-2.2,0-4.4,0-6.7c1.1,0.5,2.2,0.8,3.1-0.5c-0.4,0-0.7,0-1,0c0.3-0.8,0.6-1.6,0.8-2.4c0.1,0.3,0.3,0.7,0.4,1.1
			c0.2,0.6,0.4,0.9,1.2,0.6c0.5-0.1,1.1,0.3,1.6,0.4c0.5,0.1,1.1,0.2,1.6,0.3c0,0,0.1-0.1,0.1-0.1c-0.6-0.6-1.2-1.2-1.9-1.8
			c-0.5,0-1-0.1-1.7-0.1c0-1,0-1.9,0-2.9c-0.1,0-0.1,0-0.2-0.1c-0.2,0.5-0.4,0.9-0.7,1.7c-0.4-0.9-0.7-1.6-1.1-2.5
			c-0.1,0.8-0.2,1.6-0.3,2.4c-0.9-0.4-1.9-0.8-2.9-1.2c-0.8-0.4-1.6-0.8-2.4-1.2c-0.8-0.4-1.4-1.5-2.6-1c-0.2,0.1-0.6-0.2-0.8-0.4
			c-1-1.2-2.3-1-3.7-0.8c-0.6,0.3-1,0.4-1.8,0c-0.6-0.4-1.6-0.2-2.4-0.2c-0.8,0-1.6,0-2.4,0c1.9-0.4,3.8-0.8,5.8-1.3
			c1.2-0.3,2.4-0.8,3.6-1.2c0.2-0.1,0.3-0.4,0.4-0.6c-0.3-0.1-0.5-0.4-0.8-0.3c-1.6,0.3-3.2,0.8-4.8,1c-1.3,0.2-2.7,0.2-4.1,0.3
			c0-0.2-0.1-0.4-0.1-0.6c0.4-0.2,0.7-0.5,1.2-0.8c-0.2-0.1-0.3-0.2-0.5-0.4c0.1-0.1,0.2-0.2,0.3-0.2c0.7-0.4,1.8-0.2,1.8-1.6
			c0-0.1,1.2-0.3,1.9-0.4c0.9-0.2,1.8-0.5,2.7-0.8c0.1-0.1,0.2-0.4,0.3-0.8c-2.6,0.7-5.1,1.3-7.5,1.9c0.2-0.5,0.3-1,0.4-1.3
			c1.9-0.2,3.5-0.4,5.2-0.7c0.3-0.1,0.6-0.5,0.9-0.8c-0.4-0.1-0.7-0.2-1.1-0.2c-1,0-2,0-3,0c0-0.1-0.1-0.3-0.1-0.4
			c0.4-0.3,0.7-0.7,1.1-1c1.7-1,3.5-1.4,5.6-1c4.3,0.7,8.5,0.6,12.8-0.2c3.4-0.7,6.8-0.5,10,0.9c0.2,0.1,0.4,0.2,0.9,0.7
			c-0.6,0.3-1.2,0.6-1.8,0.9c0.1,0.1,0.2,0.2,0.3,0.3c1.6-0.3,3.2-0.7,5-1.1c0.2,3.4-2.2,4.5-4.3,6.1c-0.2-0.5-0.3-0.9-0.5-1.6
			c-0.3,0.5-0.5,0.8-0.8,1.4c-0.1-1.5-0.2-2.6-0.4-4.2c-0.7,0.8-1.1,1.2-1.5,1.7c-1.7-0.5-3.5-1.1-5.2-1.5c-0.7-0.2-1.4-0.2-2.1-0.2
			c-1.1-0.1-2,0.2-2.5,1.3c-0.6,1.1-1.3,2.2-2,3.2c0.4,0.8,0.8,1.7,1.3,2.7c0.4-0.7,0.9-1.4,1.3-2.1c0,0,0.1,0.1,0.1,0.1
			c-0.3,0.8-0.7,1.5-1,2.3c0.1,0.1,0.2,0.2,0.4,0.3c0.8-0.5,1.6-1.1,2.3-1.6c0.1,0.1,0.2,0.5,0.3,0.7c0.8-1.1,1.6-2.2,2.5-3.3
			c1.1,0.6,2.2,1.2,3.4,1.9c-0.2-0.8-0.3-1.5-0.4-2.1c0.1,0,0.1,0,0.2,0c0.9,1.1,1.7,2.2,2.6,3.3c0.1,0.2,0.3,0.5,0.2,0.6
			c-0.4,1,0.2,1.5,0.9,1.5c0.5,0,1-0.7,1.4-1.2c0.4-0.5,0.4-1.4,0.9-1.8c0.4-0.4,1.1-0.4,1.9-0.7c-0.2,1.4-0.3,2.5-0.5,3.5
			c0.1,0,0.2,0.1,0.3,0.1c0.3-1.1,0.6-2.2,0.9-3.3c0.2,0,0.3,0,0.5,0c-0.3,1.6,0.5,3.3-0.4,4.9l0,0c0,0.2,0,0.4,0,0.8
			c2-1.7,0.5-3.9,1.3-5.7c1.5,1.8,2.2,3.6,2,5.9c-0.1,1.4-0.1,2.9-0.1,4.4c0,2.4,0,4.8-0.1,7.2c0,0.3-0.4,0.6-0.8,1.1
			c-0.1-0.6-0.2-0.9-0.3-1.2c-0.1,0-0.2,0-0.2-0.1c-0.1,0.4-0.4,0.9-0.4,1.3c0,0.6,0,1.1,0.1,1.7c0.1,0.3,0.3,0.5,0.5,0.8
			c0.1-0.2,0.3-0.5,0.4-0.7c0.2-0.6,0.3-1.1,0.4-1.7c0.1,0,0.3,0,0.4,0c0.1,0.7,0.3,1.3,0.3,2c-0.2,2.8,1.1,4.9,2.9,6.9
			c0.1,0.1,0.2,0.2,0.6,0.7c-0.6,0.3-1.2,0.6-1.8,0.9c-0.4-0.9-0.8-2-1.3-3.1c-0.1,0-0.4,0.1-0.9,0.2c-0.2-1.5-0.5-3.1-0.7-4.5
			c-0.8,0.6-0.9,0.8-0.5,1.8c0.1,0.2,0.2,0.4,0.1,0.6c-0.7,2.1-1.5,4.2-2.3,6.3c-0.1,0-0.3-0.1-0.4-0.1c0-0.2,0-0.5,0-0.9
			c-1.1,1.4-1.1,1.9-0.6,2.8c0.7-1.1,1.5-2.3,2.3-3.5c0.3-1,0.7-2,1-3.1c0.7,1.4-0.1,2.3-1,3.1c-0.2,0.6-0.3,1.3-0.6,1.9
			c-0.8,1.7-1.5,3.4-0.5,5.3c1.1-1.8,2.3-3.6,3.5-5.6c0.3,0.6,0.6,1,0.9,1.6c0.2-0.7,0.4-1.1,0.6-1.5c0.2,0.1,0.3,0.1,0.5,0.2
			c-1.1,2.4-2.2,4.8-3.3,7.2c0.1,0.1,0.2,0.1,0.4,0.2c1.1-2,2.2-3.9,3.3-5.9c0.6,0.9,0.6,1.7,0.1,2.7c-0.5,1-0.9,2.1-1.2,3.2
			c-0.1,0.4-0.1,1,0.1,1.5c0.8-1.8,0.8-4.1,2.9-5.6c0,1.3,0,2.4,0,3.4c0.1,0,0.2,0,0.4,0.1c0.5-1.5,1-3,1.6-4.5c0.1,0,0.3,0,0.4,0
			c0.1,0.9,0.3,1.7,0.4,2.6c0.1,0,0.3,0,0.4,0c0.2-2.3,0.4-4.6,0.6-6.9c-0.1,0-0.1-0.1-0.2-0.1c-0.7,1.5-1.5,2.9-2.2,4.4
			c-0.1,0-0.2-0.1-0.3-0.1c0.4-1.2,0.7-2.4,1.1-3.6c-0.1,0-0.1-0.1-0.2-0.1c-0.4,0.7-0.8,1.4-1.2,2c0-0.9,0-2,0-3.1
			c-0.7,1-1.2,1.9-1.8,2.8c-0.1,0-0.2-0.1-0.3-0.1c0.3-0.9,0.6-1.7,1-2.5c0.2-0.3,0.7-0.6,1-0.6c4,0.4,7-1.7,9.8-4.3
			c3.7-3.4,7.3-7,11.1-10.4c1-0.9,2.4-1.5,3.6-2.1c2.5-1.1,5-2.1,7.5-3c1.2-0.4,2.6-0.6,3.9-0.9c2.3-0.7,4.7-1.3,7-2.3
			c2.3-1,3.9-2.9,5.4-4.8c1.7-2.2,3.3-4.5,5.2-6.6c0.9-1,2.1-1.8,3.4-2.3c2.6-1,5.3-1.9,8-2.3c1.5-0.2,3.2,0.4,4.6,0.9
			c5,1.8,8.5,5.7,12,9.5c2.3,2.5,4.3,5.2,6.6,7.7c1,1.1,2.3,2.1,3.7,2.8c2.5,1.4,5,2.7,7.6,3.7c1.8,0.7,3.8,0.9,5.7,1.2
			c2.3,0.4,6.3,2.7,6.4,5.9c0,1.5,1.2,3,1.9,4.5c0.1,0.2,0.4,0.3,0.9,0.6c-0.8-1.6-1.5-2.8-2.1-4.1c0.1-0.1,0.2-0.2,0.4-0.3
			c3.1,2.8,6.3,5.6,9.3,8.5c1,0.9,1.7,2.1,2.5,3.1c1,1.2,2,2.4,2.9,3.6c0.4,0.5,0.7,1.2,1.1,1.8c0.8,1.4,1.6,2.9,2.3,4.3
			c0.4,0.7,0.7,1.5,0.9,2.3c0.3,1.9,0.6,3.9,0.7,5.8c0.1,0.8,0.2,1.7-0.7,2.4c-0.3,0.3,0.2,1.5,0.3,2.3c-1,1,0.1,1.8,0.2,2.6
			c0.5,0,0.9,0,1.3,0.1c0,0.1,0,0.3,0,0.4c-0.7,0-1.5,0-2.4,0c0.2,0.5,0.4,1,0.6,1.5c0,0,0,0,0,0c0,0.5-0.2,1-0.1,1.3
			c0.6,1.4,1.3,2.7,2.1,4.1c-0.6-0.2-1.1-0.4-2.1-0.8c0.4,0.6,0.5,0.8,0.7,1c0.2,0.2,0.6,0.4,0.6,0.5c-0.4,2.2,1.9,3.2,2,5.1
			c0,0.4-0.1,0.8-0.2,1.1c-0.1,0-0.3,0-0.4-0.1c-0.4-1.2-0.8-2.3-1.3-3.5c-0.2-0.4-0.3-0.8-0.6-1.2c-2.3-2.4-2.9-5.4-2.7-8.6
			c0.1-1.2,0.6-2.4,0.6-3.6c0.1-3.7,0.3-7.5-1.3-11.1c-0.9-1.9-1.6-3.9-2.4-5.9c-0.1-0.3-0.3-0.6-0.8-0.8c0,0.4-0.1,0.9,0,1.3
			c0.8,2.4,0.4,4.6-0.4,6.9c-0.2,0.7-0.3,1.4-0.5,2.1c-0.8,2.3-1.7,4.6-2.6,6.8l0,0c-0.6,1.6-1.2,3.2-1.8,4.8c0,0-0.1,0-0.1-0.1
			c0.3-2.4,0.6-4.7,0.9-7.1c-0.2,0-0.3-0.1-0.5-0.1c-0.5,2.5-1,5-1.5,7.6c-0.1,0-0.1,0-0.2,0c0.1-2,0.3-4.1,0.4-6.1
			c-0.2,0-0.3-0.1-0.5-0.1c-0.1,0.9-0.2,1.9-0.3,2.8c-0.1,1-0.3,2-0.5,3c0-1.4,0-2.8,0-4.2c-0.1,0-0.2,0-0.3-0.1
			c-0.4,1.5-0.8,2.9-1.2,4.5c-0.2-0.3-0.4-0.5-0.7-0.8c-0.5,3.7-0.9,7.2-1.4,10.7c-0.2,0-0.3,0-0.5-0.1c0.5-4.9,1-9.8,1.6-14.7
			c-1.4,5.8-2.8,11.6-2.5,17.7c-0.2,0-0.4,0-0.5-0.1c0.2-3.6,0.4-7.3,0.6-11.1c-1.4,2.5-0.5,5.4-1.8,7.6c-0.2,0-0.3-0.1-0.5-0.1
			c0.3-1.5,0.6-3.1,0.8-4.6c-1.8,4.7-2,9.9-4.7,14.7c1.1-4.7,2.2-8.9,3.3-13.3c-0.2,0.1-0.4,0.2-0.6,0.3c-0.1-1.4,0.1-2.6,0.7-3.9
			c1.1-2.4,1.8-4.9,2.6-7.4c0.1-0.4,0-0.8,0-1.2c-0.1,0-0.2,0-0.4,0c-0.1,0.4-0.1,0.8-0.2,1.2c-0.5,1.6-0.6,3.5-1.6,4.7
			c-0.7,0.8-0.8,1.6-1.1,2.4c-0.4,1-0.7,2.1-0.7,3.2c0.1,4.7-1.6,9.1-2.6,13.6c-0.1,0.4,0.2,1,0.3,1.5c0,0.3,0,0.6,0,0.9
			c-0.1,1.1-0.1,2.1-0.2,3.1c0.6-1.7,1.3-3.5,1.8-5.3c0.6-1.8,1-3.7,1.4-5.5c0.1,0,0.2,0,0.3,0.1c-0.6,3.2-1.2,6.3-1.9,9.7
			c0.8-1.1,1.4-2,1.9-2.7c0.8,4.1,1.5,8.3,2.3,12.5c0.2,1.1,0,2-1.3,2.6c-0.1-1.3-0.2-2.5-0.3-4.1c-0.5,1-0.8,1.8-1.2,2.5
			c-0.1,0-0.1,0-0.2,0c0.4-1.7,0.8-3.3,1.2-5.1c-0.3,0.2-0.6,0.4-0.9,0.7c0.1-1.1,0.5-2.2-0.4-3.3c-0.5-0.6,0.1-2,0.2-3
			c0-0.3,0.1-0.6-0.2-1c-0.3,0.7-0.7,1.4-0.7,2.2c-0.2,2.4-0.3,4.9-0.2,7.3c0,1.5,0.5,2.9,0.7,4.4c0.1,0.6,0,1.3-0.3,1.8
			c-0.7,1.2-1.5,2.4-2.4,3.5c-0.3,0.4-1,0.4-1.7,0.6c0.3,0.2,0.7,0.5,1.1,0.7c-0.3,0.4-0.6,0.8-0.3,1.5c0.2,0.4-0.7,1.4-1.1,2
			c-1,1.3-2.3,2.6-3.2,4c-1,1.5-1.7,3.2-2.5,4.8c0.1,0.1,0.2,0.1,0.3,0.2c1-1.8,1.9-3.5,2.9-5.3c0.1,0.1,0.2,0.1,0.3,0.2
			c-2,3.9-4,7.8-6,11.7c-0.4,0.9-1,1.5-2.1,1.6c-0.5,0-1,0.4-1.7,0.7c0.1-0.6,0.2-1,0.3-1.6c-0.4,0.4-0.7,0.6-1.2,1
			c0.2-0.6,0.4-1,0.5-1.3c-0.1-0.1-0.1-0.1-0.2-0.2c-0.4,0.5-0.8,1-1.2,1.5c-0.1,0-0.2-0.1-0.3-0.1c0.3-0.7,0.6-1.3,1-2.3
			c-1.1,0.8-1.7,1.6-1.6,2.6c0,0.1,0,0.3,0.1,0.4h6.4c0.1-0.1,0.3-0.3,0.4-0.4c1.8-3.1,3.4-6.3,5-9.5c1.1-2,2.1-4.1,3.2-6.1
			c0.9-1.6,2-3.2,3-4.8c1.5-2.4,3-4.8,4.7-7c0.9-1.2,1.1-2.4,0.9-3.7c-0.5-3-1.2-5.9-1.7-8.9c-0.2-1.1,0-2.3,0-3.4
			c0.2,0,0.3-0.1,0.5-0.1c1.3,4.9,2.6,9.8,3.9,14.8c0.1,0.3,0.1,0.6,0.2,0.9c1.1,2.3,1.2,4.7,0.5,7.1c-0.5,2.1-1.1,4.1-1.5,6.2
			c-0.5,2.4-0.9,4.8-2.1,7c-0.7,1.2-0.9,2.7-1.4,4.1c-0.1,0.3-0.3,0.6-0.6,0.7c-0.9,0.3-1.8,0.7-2.7,0.8c-2.1,0.2-3.8,0.9-5,2.5h2.3
			c-0.2-0.2-0.4-0.4-0.6-0.7c1.2-0.3,2.3-0.6,3.5-0.8c1.5-0.4,2.9-0.7,4.3-1.1c0.2-0.1,0.4-0.4,0.4-0.6c0.2-1,0.3-2,0.4-3
			c-0.2,0.1-0.4,0.2-0.8,0.3c0.3-0.7,0.5-1.4,0.7-1.9c2.6-5.6,3.6-11.5,3.9-17.6c0.1-1.8-0.7-3.6-1.1-5.5c0.2,0,0.4-0.1,0.8-0.2
			c0.2,0.7,0.5,1.3,0.7,2c0.2,0.5,0.2,1,0.5,1.3c0.2,0.3,0.7,0.3,1.1,0.4c0-0.4,0-0.8-0.1-1.2c-0.3-0.7-0.7-1.4-1.1-2.3
			c0.5,0.2,0.7,0.3,0.9,0.3c0-1.4,0-2.7,0-4.1c0.1,0,0.2,0,0.2,0c0.1,0.8,0.2,1.7,0.3,2.5c1.2,0.1,1.5-0.2,1.2-1.4
			c-0.2-0.7-0.3-1.4-0.4-2.2c2.8,2.8,0.7,5.6,0.1,8.2c-0.4,0.4-1.1,0.7-1.2,1.2c-0.4,1.8-0.5,3.6-0.8,5.5c0.1,0,0.2,0,0.4,0.1
			c0.2-1.5,0.5-3.1,0.7-4.7c0.5,0.1,0.9,0.3,1.5,0.4c-0.5,3.1-0.9,6.3-1.4,9.5c-0.3,2.1-0.8,4.1-1.1,6.1c-0.1,0.8,0,1.6,0.1,2.3
			c0.2,1.3-0.7,2.9-2.3,3.7c-1.3,0.7-1.3,0.9-0.3,2c0.4,0.4,0.5,1,0.5,1.6h0.9c0-0.3,0-0.5,0-0.8c-0.1-0.9,0.3-1.6,0.8-2.3
			c0.5-0.8,1-1.7,1.1-2.6c0.4-2.5,0.6-5,1.1-7.5c0.7-3.7,1.3-7.3,2.2-10.9c0.7-2.6,1.8-5.2,3-7.7c0.9-1.9,1.4-3.5,0.1-5.4
			c-0.8-1.2-1.5-2.4-2-3.7c-1-2.4-1.7-4.9-2.6-7.4c-1-2.8-0.9-5.7-0.4-8.5c0.6-3.4,1.8-6.7,2.7-10c0.8-2.9,1.6-5.8,2.3-8.7
			c0.3-1.3,0.2-2.8,0.4-4.1c0-0.4,0.2-0.8,0.4-1.4c1.5,2.7,1.8,5.4,2.1,8c0.1,1.2-0.2,2.5-0.2,3.8c0,2.6-0.2,5.3,0.1,7.8
			c0.3,2,0.7,4.3,2.5,5.7c0.2,0.1,0.2,0.5,0.3,0.7c0.7,1.9,1.4,3.9,2.1,5.8c0.2,0.5,0.4,1.2,1.2,0.6c1.8-1.2,2.5-3.4,1.9-5.5
			c-0.5-1.8-1.3-3.6-0.4-5.5c0.2-0.4,0.1-1-0.1-1.3c-1.1-1.7-1.5-3.5-2.1-5.4c-0.6-1.9-1.8-3.6-1.5-5.8c0.8-5.6-1.2-10.5-4.2-15
			c-1.3-2.1-3-3.9-4.7-5.8c-1.8-2-3.7-3.9-5.7-5.8c-2.9-2.8-6.3-5.1-8-9c-0.1-0.3-0.5-0.5-0.8-0.7c-1.7-1.1-3.4-2-5.7-2
			c-2,0-4.1-1-6-1.8c-2-0.8-4-1.9-5.9-3c-1.4-0.8-2.7-1.8-3.8-2.9c-2.4-2.7-4.5-5.7-7-8.2c-2.9-2.9-5.5-6.2-9.5-8
			c-3.4-1.6-6.7-2-10.2-1.1c-1.5,0.4-3.1,0.8-4.5,1.5c-1.5,0.8-3.1,1.6-4.3,2.9c-2.2,2.4-4.1,5-6.1,7.5c-1.6,2.1-3.7,3.4-6.2,4.2
			c-3.3,1.1-6.6,2.1-9.9,3.2c-0.8,0.3-1.7,0.5-2.5,0.8c-3.1,1.1-6.2,2.1-8.7,4.5c-3.7,3.6-7.6,7-11.4,10.5c-2.4,2.1-5.1,3.4-8.4,3
			c-0.4,0-1-0.2-1.2-0.5c-1.2-1.5-2.4-3-2.1-5.1c0.1-0.6,0-1.3-0.1-1.9c-0.7-3.8-0.8-7.7-0.5-11.5c0.1-1.2,0.3-2.4,0-3.5
			c-0.7-2.2-1.5-4.3-2.5-6.3c-0.6-1.1-0.7-1.9,0-3c0.6-0.9,0.5-2.2-0.3-2.9c-0.4-0.4-1.4-0.2-2.1-0.2c-0.5,0-1.1,0.2-1.6,0
			c-0.6-0.2-1.1-0.7-1.7-0.9c-2.4-1-4.9-2-7.6-1.2c-1.2,0.3-2.4,0.6-3.7,0.7c-2.1,0.2-4.2,0.5-6.2,0.5c-1.9,0-3.8-0.5-5.7-0.6
			c-2.2-0.1-4.4,0.1-5.9,1.8c-1.8,2-3.5,4-5,6.2c-0.4,0.5-0.4,1.8-0.1,2.3c0.9,1.4,1.7,3.1,3.9,2.7c0.3-0.1,0.7,0,1,0.2
			c1.5,0.7,3,0.8,4.4-0.1c2.4,2.1,4.7,4.1,7,6.1c0.8,0.7,1,1.5,1.1,2.5c0,1,0.2,2,0.4,3c0.2,1.3,0.7,2.6,0.7,3.9
			c0,2.6,1,4.8,2.6,6.8c0.5,0.6,1.2,1.1,1.4,1.7c0.4,2.1,0.5,4.3,0.8,6.4c0.2,1.5,0.3,3.1,0.7,4.6C106,88.3,107.9,91.4,111.4,93.8z
			 M230.7,107.1c-0.4-0.3-0.6-0.5-0.9-0.7c0-0.1,0.1-0.2,0.1-0.3c1.2,0,2,0.9,2.9,1.4c1,0.6,0.7,1.7,0.6,2.6
			c-0.1,0.1-0.3,0.1-0.4,0.2c-0.4-0.8-0.8-1.6-1-2.1c-0.2,0.3-0.7,0.7-1.1,1.2c-0.2,0.2-0.2,0.7-0.1,1c0.5,1.6,1,3.3,1.5,4.9
			c0.1,0.2,0.1,0.5,0,0.8c-0.5,2.7-1.1,5.5-1.6,8.2c-0.1,0-0.3,0-0.4-0.1c0.4-2.2,0.8-4.5,1.2-6.7c-0.1,0-0.2,0-0.3,0
			c-0.3,0.8-0.5,1.5-0.8,2.3c-0.1,0-0.1,0-0.2,0c0-1.1,0-2.1,0-3.3c0.4-0.1,0.8-0.1,1.5-0.2c-0.6-2.6-1.1-5.1-1.8-8
			c-0.3,0.7-0.4,1.2-0.6,1.5C228.7,108,228.8,107.6,230.7,107.1z M229.9,79.4c0.1,0,0.2,0,0.3,0c0.1,0.9,0.2,1.8,0.3,2.6
			c-0.2,0-0.4,0-0.6,0.1C229.9,81.2,229.9,80.3,229.9,79.4z M230.1,83.9c0.2,0,0.3,0.1,0.5,0.1c-0.5,1.3-0.9,2.6-1.4,3.8
			c-0.1,0-0.3-0.1-0.4-0.1C229.3,86.4,229.7,85.2,230.1,83.9z M221.3,101.7c-1-0.5-2.1-1-3.1-1.5c0.1-0.1,0.1-0.3,0.2-0.4
			c1.1,0.5,2.1,1,3.2,1.5C221.4,101.4,221.3,101.5,221.3,101.7z M221.5,100.5c0.9,0.6,1.7,1.1,2.7,1.8
			C222.5,102.6,222.1,101.6,221.5,100.5z M218.4,98.2c0.1-0.1,0.1-0.3,0.2-0.4c1.3,0.6,2.5,1.1,3.8,1.7c0,0.1-0.1,0.2-0.1,0.3
			C220.9,99.3,219.7,98.8,218.4,98.2z M219,97.4c1.4-0.8,4.1,0.7,5.3,3C222.6,99.4,221.6,97.1,219,97.4z M220.7,96.3
			c2.2,0.6,4,1.8,4.9,4.1C224.2,98.8,222.9,96.9,220.7,96.3z M225.9,96.8c-1.1-0.8-2.3-1.6-3.4-2.3
			C224.7,94.7,225.8,95.6,225.9,96.8z M222.4,87.5c0.1-0.2,0.7-0.1,1.1-0.2c-0.6,1.7-1.2,3.3-1.7,4.8c0.1,0,0.2,0.1,0.3,0.1
			c-0.6,0.2-1.2,0.4-2,0.7C220.9,91,221.6,89.2,222.4,87.5z M220.5,89.3c0.1,0,0.2,0.1,0.3,0.1c-0.5,1.2-1.2,2.3-1.3,3.5
			c-0.2,1.3-0.9,2.1-1.6,3.1c-0.1,0.1-0.2,0.2-0.4,0.3C218.2,93.8,218.8,91.3,220.5,89.3z M202,103c-0.7,0.7-1.4,1.3-2.1,2
			c-0.1-0.2-0.3-0.3-0.4-0.5c0.8-0.6,1.5-1.2,2.3-1.8C201.9,102.8,201.9,102.9,202,103z M201.1,100.6c0.2,0.1,0.3,0.3,0.5,0.4
			c-1.3,1.6-2.6,3.2-3.9,4.8c-0.1-0.1-0.3-0.2-0.4-0.3C198.5,103.8,199.8,102.2,201.1,100.6z M198.4,101.7c0.2,1.4-2.5,4.6-4.2,5
			C195.6,104.9,196.9,103.4,198.4,101.7z M196.2,102.6c0.1,0.1,0.2,0.2,0.3,0.2c-1.3,1.5-2.6,3-4,4.6c-0.1-0.1-0.2-0.2-0.3-0.3
			C193.5,105.7,194.9,104.1,196.2,102.6z M195.3,98c-0.6,1.2,0.7,3-1.3,4.1C193.9,100.4,193.8,99,195.3,98z M195.1,102.5
			c-1.6,1.8-2.9,4-5.1,5.4C191.5,105.9,192.7,103.6,195.1,102.5z M191.9,96.8c-1.1,1.8,0.1,4.2-1.5,5.9
			C190.4,100.6,189.8,98.3,191.9,96.8z M191,102.9c-0.4,2-3.7,5.2-5.3,5C187.6,106.1,189.3,104.5,191,102.9z M187.4,104.3
			c0.1,0.2,0.3,0.3,0.4,0.5c-1.6,1.1-2.3,3.2-4.3,3.9c-0.1-0.1-0.2-0.2-0.2-0.4C184.6,106.9,186,105.6,187.4,104.3z M185.5,104.3
			c-0.3,1.5-3.3,4.3-4.4,4.1C182.7,106.9,184.1,105.6,185.5,104.3z M165.8,101.3c-0.9,1.5-1.7,2.7-2.4,3.9
			C163.5,103.5,164.1,102.3,165.8,101.3z M163.2,99c0.1,0,0.2,0,0.3,0c0,1,0,1.9,0,2.9c-0.2,0-0.3,0-0.5-0.1
			C163,100.9,163.1,99.9,163.2,99z M165.4,138.9c-0.9-2.7-1.7-5-2.5-7.3c0.1,0,0.3-0.1,0.4-0.1c0.6,1.7,1.2,3.3,1.9,5
			c0.1,0,0.3-0.1,0.4-0.1c-0.2-1.2-0.4-2.4-0.6-3.6c0.1,0,0.2,0,0.3,0C165.1,134.7,167.1,136.5,165.4,138.9z M164.5,121.2
			c0.3,1.8,0.5,3.6,0.8,5.3c-0.1,0-0.2,0-0.2,0c-0.2-0.9-0.4-1.7-0.5-2.6C164.4,123,164.4,122.1,164.5,121.2
			C164.4,121.2,164.4,121.2,164.5,121.2z M163.6,123.5c0.2,1,0.5,2,0.7,2.9c-0.1,0-0.2,0.1-0.3,0.1c-0.3-1-0.6-1.9-0.9-2.9
			C163.2,123.6,163.4,123.5,163.6,123.5z M162.7,126.3c0.3,1.2,0.7,2.4,1,3.6c-0.1,0-0.2,0.1-0.3,0.1c-0.4-1.2-0.8-2.4-1.1-3.6
			C162.4,126.4,162.5,126.3,162.7,126.3z M161.9,135.6c0.1,0.4,0.4,0.6,0.7,0.9c-0.2-1.9-0.5-3.7-0.7-5.6c-0.1-0.6-0.2-1.3-0.2-1.9
			c1,4,2.1,7.9,3.1,11.9c-0.1,0-0.3,0.1-0.4,0.1c-0.6-1.5-1.2-3-1.9-4.5c0,0.7,0,1.3,0,2c-1.2-1.8-2.7-7.2-2.7-10.4
			C160.6,130.6,161.2,133.1,161.9,135.6z M154.6,114.1c0.2,1,0.5,2,0.7,3c0.1,0,0.2,0,0.3,0c0-0.4,0.1-0.8,0.1-1.2
			c0.2,1.3,0.3,2.5,0.5,3.8c-0.1,0-0.3,0.1-0.4,0.1c-0.5-1.9-0.9-3.7-1.4-5.6C154.4,114.2,154.5,114.1,154.6,114.1z M145.9,102.1
			c-0.4-1-0.8-1.9-1.3-2.9c0.1,0,0.2-0.1,0.3-0.1c0.4,1,0.8,1.9,1.2,2.9C146.1,102,146,102.1,145.9,102.1z M147.2,95.6
			c0.7,1.6,1.4,3.3,2.2,4.9c-0.1,0-0.1,0.1-0.2,0.1c-0.4-0.8-0.9-1.6-1.2-2.4c-0.3-0.8-0.6-1.7-0.8-2.5
			C147.1,95.6,147.1,95.6,147.2,95.6z M146.9,97.9c0.4,0.9,0.8,1.8,1.1,2.8c-0.9-1.6-1.8-3.3-2.7-4.9
			C146.8,95.9,146.6,97.1,146.9,97.9z M144.1,94.7c0.6,1.1,1.1,2.2,1.7,3.4c-0.1,0-0.1,0.1-0.2,0.1c-0.7-1-1.4-2.1-2.1-3.1
			C143.7,94.9,143.9,94.8,144.1,94.7z M142.4,76.7c0.2,0.1,0.4,0.2,0.5,0.3c-0.6,0.9-1.3,1.9-1.9,2.8c-0.2-0.1-0.3-0.2-0.5-0.4
			C141.1,78.6,141.7,77.6,142.4,76.7z M131.3,95.3c0.4,0.6,0.8,1.1,1.2,1.7c-1.3,0.3-2.3-0.2-3.2-1.4
			C130,95.3,131.2,97.8,131.3,95.3z M120.2,79.9c-0.2-0.1-0.4-0.1-0.6-0.2c0.9-2,1.8-4,2.6-6c0.2,0.1,0.3,0.1,0.5,0.2
			C123.4,76.5,120.8,77.8,120.2,79.9z M260.8,107.7c-0.4-0.7-0.8-1.5-1.2-2.2C260.8,105.6,260.9,106.5,260.8,107.7z M245.2,107.2
			c0,1.1,0.6,2.5-0.7,3.4C244.8,109.5,245,108.4,245.2,107.2z M244.7,133.9c-0.2-1.1-0.5-2.2-0.7-3.3c0.1,0,0.2-0.1,0.4-0.1
			c0.3,1.1,0.5,2.2,0.8,3.3C245,133.8,244.9,133.9,244.7,133.9z M245.6,138.5C245.5,138.4,245.5,138.5,245.6,138.5L245.6,138.5z
			 M246.3,130.1c-0.2-1.1-0.4-2.2-0.7-3.3c-0.2-1.1-0.4-2.2-0.6-3.2c0.1,0,0.2-0.1,0.3-0.1c0.5,2.2,1.1,4.3,1.6,6.5
			C246.7,130,246.5,130.1,246.3,130.1z M247.3,122.4c0-1.9,0-3.9,0-6c0.1,2.1,0.3,4,0.4,5.9C247.6,122.3,247.4,122.4,247.3,122.4z
			 M249.4,125.3c1.4,2.9,2.9,5.7,4.3,8.6c0.4,0.9,0.7,1.8-0.4,2.6c-0.2-0.4-0.3-0.8-0.5-1.2c-0.1,0-0.2,0-0.3,0
			c0.1,0.7,0.1,1.5,0.2,2.2c-0.1,0-0.3,0-0.4,0c-0.2-1.5-0.3-2.9-0.5-4.4c-0.1,0-0.2,0-0.3,0c-0.1,1.1-0.1,2.3-0.2,3.4
			c-0.6-2.2-0.4-4.5-1.3-6.6c-0.1,0-0.2,0-0.4,0c0,0.3,0,0.7-0.1,1.1c-0.1-0.1-0.2-0.2-0.2-0.3c-0.4-1.2-0.7-2.2-0.5-3.6
			c0.2-1.6-0.3-3.2-0.2-4.9C248.9,123.4,249,124.4,249.4,125.3z M83.8,42.6c-1,1.1-0.5,2.6-1.1,3.7C81.3,45.3,81.7,43.8,83.8,42.6z
			 M99.4,55.2c0.4-0.5,0.7-0.8,1-1.2c0-0.1-0.1-0.2-0.1-0.3c-0.4,0.1-0.8,0.3-1.5,0.6c0.4-0.6,0.7-1.1,1-1.5
			c3.3,1.7,3.5,2.2,1.5,3.7c0.3-0.4,0.5-0.8,0.8-1.2c-0.1-0.1-0.1-0.2-0.2-0.2c-0.4,0.3-0.9,0.6-1.6,1c0.4-0.6,0.6-1,0.9-1.6
			C100.5,54.8,100.1,54.9,99.4,55.2z"/>
		<path d="M187.1,95.9C187.1,95.9,187.1,95.9,187.1,95.9C187.1,95.9,187.1,95.9,187.1,95.9L187.1,95.9z"/>
		<path d="M225.8,85.7C225.8,85.7,225.8,85.7,225.8,85.7C225.8,85.7,225.8,85.7,225.8,85.7L225.8,85.7z"/>
	</g>
</g>
<g>
	<path d="M128.3,168.3c0.4,0,0.8,0,1.2,0c-19.5-23-39.4-45.7-59.9-67.9c0.1,0.5,0.2,1,0.2,1.5c2.7,2.9,5.3,5.7,7.9,8.7
		C94.6,129.8,111.5,149,128.3,168.3C128.3,168.3,128.3,168.3,128.3,168.3z"/>
	<path d="M124.4,167c0.8,0.2,1.6,0.5,2.2,0.9c-18.8-21.4-37.6-42.9-56.4-64.3c0.1,0.3,0.2,0.6,0.4,0.9c0.2,0.3,0.1,0.6,0,0.8
		C88.5,125.9,106.5,146.5,124.4,167z"/>
	<path d="M49.6,79.7c-0.4,1.8-0.8,3.3-2.1,4.4c-0.4,0.4-1.2,0.6-1.7,0.4c-0.4-0.1-0.8-1-0.7-1.4c0.3-1.4,0.8-2.8,1.4-4.1
		c0.3-0.5,1.4-1.2,1.7-1.1C48.8,78.1,49.1,79,49.6,79.7z M46.7,83.5c1.6-1.2,2.2-3.9,1.1-5c-0.4,0.5-0.7,0.9-1.1,1.5
		C48.1,81.2,47.1,82.3,46.7,83.5z"/>
	<path d="M91.2,170.9c-0.5-1.9-0.9-3.8-2.2-5.2c-1.1-1.2-2.7-1.8-4.1-2.7c-0.2-0.2-0.3-0.7-0.6-1c-3.1-3.5-6.4-6.8-9.3-10.5
		c-1.6-2.1-2.5-4.7-3.7-7c1.3-1,2.5-1.9,3.6-2.8c0.7-0.6,0.9-1.2,0.3-2c-0.7-1-1.2-2.1-1.7-3.2c-0.6-1.2-1-2.5-1.6-4
		c2.9,0.1,5-0.8,6.7-2.4c-0.8-1.6-1.8-3-2.2-4.6c-0.8-3-1.5-6.1-2-9.2c-0.5-2.8-0.7-5.7-1.5-8.4h0c0,0,0,0,0-0.1
		c-0.3-1.1-0.7-2.2-1.2-3.2c-1-2.3-2.5-5.4-4.5-7.6c-0.9-1.5-1.8-2.9-2.7-4.4c1.1-1.2,2.3-2.4,3.5-3.7c1.3,1.2,2.2,1.2,3.3-0.2
		c0.4-0.5,0.7-1.2,1-1.8c0.9-2.4,0.9-4.9,0.6-7.3c-0.2-1.4-0.7-2.8-1.3-4.2c-0.2-0.5-1.2-1.1-1.5-1c-1.1,0.6-1.7,0-2.5-0.5
		c-3.5-2.3-6.9-4.9-11.5-4.7c-2.4,0.1-4.6,0.2-6.7,1.3c-0.8,0.4-1.3,1.3-1.9,2.1c-0.4,0.6-0.6,1.3-0.9,2c-0.4,0.7-0.9,1.4-1.2,2.2
		c-0.5,1.3-0.9,2.6-1.4,3.8c-0.6,1.3-0.9,1.4-2.2,0.9c-1.3-0.5-2.4,0.1-2.4,1.5c0,0.6,0.3,1.3,0.5,1.9c0.1,0.3,0.3,0.5,0.2,0.8
		c-0.1,1.6-0.2,3.1-0.3,4.7c-0.1,2.1,0.9,3.6,2.8,4.4c0.9,0.4,2,0.6,3,1c-0.3,0.5-0.5,1-0.8,1.4c-3,4.2-6.1,8.3-9.1,12.4
		c-0.8,1.1-1.5,2-3.1,1.6c-1.3-0.3-2.4,0.6-2.2,1.6c0.2,1.3-0.8,1.9-1.1,2.9c-0.4,1.3-1.3,2.6-1.3,3.9c0,1.3-0.6,2.5-0.8,3.7
		c-0.2,1.2-0.3,2.2,0.3,3.3c0.3,0.5,0.5,1.2,0.5,1.8c0.3,4.6,0.5,9.2,0.8,13.9c0.1,1.9,0.4,3.7,0.9,5.5c0.3,1.1,1,2.2,2.3,2.3
		c1.3,0.1,2.1-0.9,2.7-1.8c1.2-1.8,1.1-3.8,0.6-5.7c-1-3.3-2.2-6.6-3.3-9.9c-0.4-1.3-0.8-2.6-1.3-3.9c0.1,0,0.3,0.1,0.4,0.1
		c0.4-0.6,1.2-1.1,1.1-1.7c0-1.6-0.4-3.2-0.6-4.6h7c0,0.2,0,0.4-0.1,0.6c-0.4,1,0,1.3,1,1.4c2.4,0.4,4.9,0.8,7.3,1.4
		c1.9,0.4,2,0.6,1.6,2.6c-0.8,4-2.1,7.8-3.9,11.4c-0.6,1.2-0.3,1.6,0.7,2.1c1.3,0.6,2.5,1.2,3.9,1.8c-3.8,7.7-7.6,15.4-11.4,23.1
		c0.4,0.4,0.9,0.9,1.5,1.4c-1,0-2.1-0.3-2.5,0.1c-0.9,0.7-1.4,0.3-2.1,0c-0.5-0.2-1-0.4-1.4-0.6c-2.2-0.9-4.4-0.5-6.5,0.5
		c-1,0.5-1.6,1.3-1.7,2.5c0,0.5-0.1,1.1-0.3,1.5c-1,1.5-1,1.9,0.8,2.8c2.4,1.2,4.9,2,7.4,3c1.5,0.6,3.2,0.8,4.4,1.8
		c2,1.6,4.3,2.2,6.7,2.6c0.4,0.1,1-0.2,1.3-0.5c1.9-2,2.7-4.3,2.3-7.1c-0.2-1.2-0.2-2.3,0.5-3.6c1.3-2.2,2.2-4.7,3-7.1
		c1.9-5.8,5.1-10.8,8.8-15.5c0.3-0.4,0.6-0.8,1-1.2c0.2,0.4,0.4,0.6,0.5,0.8c2.7,4.8,5.3,9.6,9.3,13.5c1.9,1.8,3.5,3.8,5.3,5.7
		c0.5,0.5,1.3,0.6,2.2,1c0.1,1.1,0.1,1.1-1.2,1.6c-0.4,0.2-1,0.5-1,0.9c-0.2,0.8-0.7,0.8-1.3,1c-1.4,0.4-2.8,0.5-4.2,1
		c-2.7,1-3.3,4.6-1.2,6.5c0.5,0.5,1,1.1,1.3,1.8c0.4,0.9,1,1.3,2,1.1c4.4-0.8,8.4-2.5,12.2-4.7c0.4-0.2,0.8-0.3,1.2-0.4
		c0.7-0.2,1.6-0.2,2.2-0.6c0.9-0.7,1.5-1.7,2.2-2.6C91.4,173.3,91.6,172.2,91.2,170.9z M28.5,121.9c0.5,0.1,1,0,1.4,0.2
		c1.1,0.8,1.6,2,1.6,3.4c-0.1,0.1-0.2,0.2-0.3,0.3c-0.8-0.9-1.7-1.7-2.5-2.6C28.4,122.9,28.5,122.3,28.5,121.9z M32.8,147.3
		c0.3-0.6,1-1.2,1-1.7c-0.2-1.6-0.5-3.2-1.1-4.7c-0.9-2.3-1.7-4.6-1.3-7.2c0.7,1.8,1.4,3.5,1.9,5.3c0.6,2,1,4.1,1.4,6.1
		c0.2,1.3-0.3,2.5-1.2,3.5c-1,1.2-2.3,1.2-2.9-0.3c-0.5-1.3-0.8-2.7-0.9-4c-0.4-5-0.6-10-0.9-15c0-0.3,0-0.5,0-0.8
		c1.1,0,1.1,0.8,1.2,1.5c0.2,3,0.3,6.1,0.6,9.1c0.2,2.3,0.6,4.6,1,6.9C31.8,146.4,32.4,146.8,32.8,147.3z M31.7,141.2
		c0.1,0,0.2,0,0.3-0.1c0.5,1.7,1.3,3.3,1,5.1c-0.1,0-0.3,0.1-0.4,0.1C32.3,144.6,32,142.9,31.7,141.2z M30.3,127.9
		c-1.6-0.2-2.7-2.2-2.3-3.8c1.1,0.8,2.1,1.6,3,2.4c0.3,0.2,0.4,0.7,0.6,1.1C31.2,127.7,30.7,128,30.3,127.9z M74.5,152.6
		c-1.2,1.1-2.3,2.3-3.5,3.4c-0.1-0.1-0.2-0.2-0.2-0.3c1.2-1.2,2.3-2.3,3.5-3.5C74.4,152.4,74.4,152.5,74.5,152.6z M41,90.3
		c0-0.6,0-1.2,0-1.7c0.8,0.2,1.7,0.4,2.5,0.5c0.3,0,0.6-0.3,0.9-0.5c-0.3-0.1-0.5-0.3-0.8-0.4C43,88,42.5,88,41.9,87.8
		c-0.9-0.3-1.2-0.8-0.7-1.7c0.2-0.3,0-0.8-0.1-1.2c-0.1-0.4-0.5-0.8-0.5-1.3c-0.1-0.4,0-0.9,0.3-1.2c0.2-0.2,0.8,0,1.1,0.2
		c1,0.5,1.8,0.2,2.3-0.5c0.5-0.7,0.9-1.6,1.2-2.4c0.4-1.1,0.8-2.2,1.1-3c2.1-0.5,3.7,0,4.9,1.6c0.2-2.2-1.2-3.3-3.7-3.4
		c0.8-1.4,1.1-1.5,2.3-0.5c1.7,1.3,2.5,3.2,2.9,5.2c0.8,4.1,0.5,8.2-0.3,12.2c-0.1,0.4-0.5,0.8-0.9,1c-1.4,0.6-2.8,1.2-4.2,1.8
		C44.6,95.9,40.8,93.3,41,90.3z M35.3,112c3.2-4.4,6.4-8.8,9.6-13.2c0.5,1,0.3,1.7-0.3,2.4c-2.6,3.3-5.1,6.8-7.6,10.1
		C36.6,111.9,36.2,112.6,35.3,112z M37.8,111.8c2.4-3.2,5.1-6.9,7.8-10.4c1.2,0.7,1.2,1.7,1.2,2.8c0.2,4,0.5,7.9,0.8,11.9
		c0,0.3,0,0.6,0.1,1.1c-1.9-0.6-3.6-1.2-5.3-1.7c-0.5-0.1-1-0.1-1.4-0.2C39.9,114.2,38.9,113.1,37.8,111.8z M39.7,123.8
		c0.8-2.4,1.5-4.8,2.3-7.3c1.8,0.6,3.6,1.2,5.3,1.8c0.2,0.1,0.3,0.3,0.4,0.5c0.2,2.2,0.4,4.4,0.7,6.7
		C45.4,124.9,42.6,124.3,39.7,123.8z M58.3,150c-1.2,1.6-2.4,3.3-3.5,5c-1,1.5-2.2,2.5-4,2.7c-0.4,0.1-0.7,0.5-1,0.7
		c0.4,0.1,0.8,0.3,1.3,0.3c0.5,0,1-0.2,1.7-0.3c-1.8,4.5-3.6,8.8-5.4,13.3c-3.2-1.2-5.9-2.8-8.4-4.6c0-0.2,0-0.3,0-0.4
		c3.5-7,7-14,10.5-21.1c0.2-0.4,0.8-1,0.9-1c0.7,0.3,1.7,0,2,1.1c0.3,1.1,1.4,1.3,3,0.7c0.8,1,1.6,0.8,2.6,0.3
		c0.7-0.4,1.7-0.2,2.6-0.3l0.1,0.3C59.9,147.8,59,148.9,58.3,150z M62.7,135.2c1.4,0.3,1.7-0.6,1.9-1.5c0.3-2.5,0.5-5,0.9-7.5
		c1.3-7.6-0.3-15-2-22.4c-0.1-0.3-0.1-0.7-0.2-1c-0.1-0.3-0.4-0.5-0.6-0.7c-0.1,0.3-0.4,0.6-0.3,0.9c0.3,1.8,0.7,3.5,1.1,5.3
		c0.9,4.1,1.8,8.2,1.5,12.4c-0.3,4.1-0.8,8.3-1.2,12.4c-0.1,0.8-0.4,1.1-1.3,0.9c-2.3-0.5-4.5-0.9-6.8-1.3c-0.3-0.1-0.5-0.2-0.9-0.4
		c0.1-0.4,0.2-0.7,0.3-1c1.2-3.3,1.7-6.7,2-10.2c0.1-0.9,0.4-1.3,1.3-1.5c1.5-0.4,2.7-0.1,3.8,0.8c0.3,0.2,0.6,0.2,0.9,0.3
		c0.1-0.3,0.3-0.7,0.2-1c-0.1-2-2.6-3.6-4.4-2.8c-0.2,0.1-0.5,0.4-0.4,0.5c0.1,0.2,0.3,0.4,0.5,0.5c0.4,0.1,0.8,0,1.2,0
		c0.5,0.1,1,0.3,1.4,0.6h-4.6c-0.4-1.7-0.8-3.5-1.2-5.4c-0.6-2.9-1-5.8-1.6-8.7c-0.1-0.4-0.5-0.8-0.7-1.2c-0.1,0.5-0.3,0.9-0.3,1.4
		c0.8,4.4,1.5,8.7,2.5,13c0.6,2.6,0.1,5.2-0.4,7.7c-0.4,2.3-1.2,4.6-1.9,6.9c-0.1,0.3-0.6,0.6-0.9,0.8c-1.1,0.7-2.3,1.2-3.4,2
		c-0.7,0.6-1.5,1.4-1,2.5c0.5,1,1.6,1.1,2.6,1c0.2,0,0.3-0.1,0.5-0.1c-0.7,1.5-1.3,3-2.1,4.7c-1.2-0.5-2.6-1.2-3.9-1.8
		c1.1-3,2-5.8,3.1-8.5c1.4-3.6,0.9-7.3,0.6-11c-0.5-6.2-1.6-12.4-1.4-18.7c0-1,0.4-1.5,1.2-2c3.2-2,6.6-3,10.4-2.6
		c0.8,0.1,1.6,0.5,2.2,0.9c2.6,1.7,3.7,4.2,4.7,7c1.6,4.5,2,9.2,2.1,13.9c0,3.4,0.2,6.8,0.2,10.2c0,1,0.4,1.6,1.4,1.7
		c0.9,0.1,1.2,0.6,1.5,1.4c0.8,2.1,1.8,4.2,2.8,6.2c0.4,0.8,0.3,1.2-0.3,1.7c-2.7,2.3-5.9,3.4-9.4,3.8c-1,0.1-1.9,0.1-2.7,0.2
		c0.3-1.8,0.7-3.4,0.9-5.1C62.9,138.7,62.7,137.1,62.7,135.2z M77.9,167.3c-0.2,0.1-0.8,0-1-0.2c-0.7-0.6-1.5-1.2-2.1-1.9
		c-4.3-4.9-8.7-9.7-11.5-15.6c-0.3-0.7-0.8-1.3-1.1-2c-0.3-0.5-0.2-0.9,0.5-1c2.6-0.4,5.2-0.9,8.1-1.4c0.8,1.6,1.7,3.4,2.5,5.2
		c0.2,0.4,0.1,1-0.1,1.3c-0.6,0.8-1.2,1.6-1.9,2.3c-0.6,0.6-1.3,1.1-1.8,1.7c-0.2,0.3-0.2,0.8-0.3,1.2c0.4,0.1,0.8,0.3,1.2,0.2
		c2.2-0.5,3.8-1.8,4.7-3.9c2.9,3.2,5.7,6.4,8.8,9.8C81.8,164.4,79.9,165.9,77.9,167.3z"/>
	<path d="M256.7,169.4c-5.8,0-11.7-0.1-17.5-0.1c-0.5,0-0.9,0-1.4,0v-0.7c-0.6,0.1-1.1,0.2-1.7,0.3c-1.7,0.2-3.5,0.4-5.3,0.2v0.1
		H158l-11.8,0c0,0,0,0,0,0c-7.8-0.1-15.6,1-23.1-4.1c-0.8-0.5-1.2-0.2-1.1,1.1c0.2,2.1,0.2,4.4,0.9,6.2c2,5.6,5.2,8.5,9.2,8.5
		c24.8,0,94.3-0.1,119.2-0.3c1.9,0,3.8-0.8,5.2-2.8c0.9-1.2,1.7-2.9,2.1-4.6C259.1,170.8,258.3,169.4,256.7,169.4z M257.7,172.9
		c-0.3,1.3-0.8,2.9-1.5,3.6c-1.2,1.2-2.7,1.9-4.1,2.4c-1.4,0.4-2.9,0.3-4.3,0.3c-20,0.2-84.7,0.3-104.8,0.4c-3.8,0-7.7-0.2-11.5-0.3
		c-4.1-0.2-8-5.1-8.6-10.8c-0.1-0.6,0-1.2-0.1-2c1,0.5,1.7,0.9,2.5,1.4c3.5,1.9,7.1,2.6,10.7,2.6c1.9,0,4,0,6.4,0l0,0h0
		c28.2,0.1,88.5,0.2,110.7,0.4c1.1,0,2.2,0.1,3.4,0C257.6,170.8,258,171.7,257.7,172.9z"/>
</g>
</svg>
