<?xml version="1.0" encoding="utf-8"?>
<!-- Generator: Adobe Illustrator 17.1.0, SVG Export Plug-In . SVG Version: 6.00 Build 0)  -->
<!DOCTYPE svg PUBLIC "-//W3C//DTD SVG 1.1//EN" "http://www.w3.org/Graphics/SVG/1.1/DTD/svg11.dtd">
<svg version="1.1" id="Layer_1" xmlns="http://www.w3.org/2000/svg" xmlns:xlink="http://www.w3.org/1999/xlink" x="0px" y="0px"
	 viewBox="0 0 288 216" enable-background="new 0 0 288 216" xml:space="preserve">
<g>
	<path d="M203.4,69.2c-1.5,0.7-3,1.3-4.6,2c-0.2,0.1-0.4,0.1-0.6,0.2c-1.5,0.7-1.1,0.7-2.3-0.8c2.3-1,4.6-2,6.9-3
		c-0.3-0.7-0.6-1.3-1-1.9c-2.5,1.1-5,2.2-7.4,3.3c-0.5,0.2-1.1,0.2-1.9,0.3c0.3-1.2-0.2-1.4-1-1.6c-1-0.2-1.9-0.5-2.9-0.8
		c-1.6-0.5-3.2-0.9-4.8-1.4c0.2-0.2,0.5-0.3,0.7-0.3c3.5-0.8,7-1.9,10.2-3.5c3.5-1.8,6.6-3.9,8.5-7.5c0.1-0.3,0.5-0.5,0.8-0.6
		c2.9-1,4.2-3.8,3-6.6c-0.2-0.5-0.1-0.7,0.2-1.1c1-1.3,1.5-2.7,1.5-4.4c-0.1-1.5-0.1-2.9-0.2-4.4c0.3-0.1,0.6-0.1,0.9-0.2
		c1.9-0.5,2.6-1.4,2.4-3.3c-0.1-0.9-0.2-1.9-0.6-2.7c-1.2-2.7-2.3-5.4-3.7-8c-2.7-4.8-6.1-9.2-10.8-12.3c-8.8-5.8-18.4-6.8-28.5-4
		c-2.4,0.7-4.5,1.8-6.2,3.7c-0.1,0.2-0.4,0.3-0.6,0.3c-2.9-0.1-5.6,0.8-8.2,1.9c-3.6,1.5-7,3.5-9.4,6.7c-3,4.1-4.7,8.8-5.7,13.8
		c-0.5,2.8-0.7,5.6-0.2,8.4c0.5,2.8,1.9,4,4.1,3.7c0.3,1.4,0.6,2.8,1,4.2c0.7,2.6,1.7,5.1,4.2,6.5c0.2,0.1,0.3,0.5,0.3,0.7
		c0.2,2.8,2.1,4.6,4.9,4.7c0.2,0,0.3,0,0.5,0c-4,0.9-8,1.7-12,2.5c-1.3,0.3-1.5,0.6-0.8,1.8c2.7,4.6,5.3,9.2,8,13.8
		c1.2,2.1,2.4,4.1,3.6,6.2c-1.5,0.7-3,1.5-4.5,2.1c-0.5,0.2-1.1,0.3-1.6,0.3c-4.3-0.5-8.6-0.9-12.8,0.1c-6.6,1.5-11.9,5.2-16.6,9.9
		c-0.4,0.4-0.6,0.8-0.8,1.3c-0.5,1,0,1.9,1.2,2.2c0.3,0.1,0.6,0.1,1.1,0.2c-0.6,0.4-1.1,0.8-1.5,1.2c-0.8,0.8-1.7,1.6-2.5,2.4
		c-0.7,0.8-0.3,1.8,0.7,2.2c0.5,0.2,1,0.3,1.5,0.3c1.4,0,2.8,0,4.3,0c-0.1,0.1-0.1,0.2-0.2,0.3c-0.7,1.2-0.5,2,0.9,2.4
		c0.6,0.2,1.3,0.3,1.9,0.3c4.7,0.2,9.3-0.3,13.8-1.9c5.7-2,10-5.5,12.7-10.9c0.7-1.4,1.5-2.4,3-2.8c1.7-0.4,3.1-1.7,4.9-1.4
		c0.2,0,0.4-0.1,0.5-0.3c0.5-0.4,1-0.9,1.5-1.3c1.1-1,2.1-1.9,3.2-2.9c1.3,1.2,2.6,2.4,3.9,3.4c0.7,0.5,1.4,1,2.2,1.3
		c1.1,0.4,2.3-0.2,2.4-1.2c0.1-1,0.4-1.7,1.3-2.1c0,0,0,0,0.1-0.1c1.2-1.4,2.5-2.7,3.6-4.2c0.7-0.9,1-2.1,1.3-3.2
		c0.2-0.5,0.4-0.8,0.8-1.1c3.6-1.6,7.3-3.2,10.9-4.8c0.8-0.4,1.7-0.3,2.5,0.1c2.7,1.3,5.5-0.3,6-3.2c0.1-0.3,0.3-0.7,0.6-0.8
		c1.9-0.9,3.8-1.7,5.7-2.5c0.1,0,0.2-0.1,0.3-0.1C203.9,70.5,203.6,69.9,203.4,69.2z M204.1,51.7c0.2-2.5,0.3-2.9,1.4-3.6
		C206.2,49.5,205.6,51.1,204.1,51.7z M145.8,51c-1.1-3-1.5-6-1.5-9.1c0-0.6-0.2-1.1-0.9-1.2c-0.6-0.1-0.9,0.2-1.2,0.8
		c-0.3,0.6-0.6,1.2-1,2c-1-0.8-1.2-1.8-1.3-2.8c-0.5-6.3,1.1-12.1,4-17.7c2-3.7,5.2-6.1,8.9-7.9c2.1-1,4.2-1.6,6.4-2.1
		c0.9-0.2,1.8,0,2.7-0.1c0.4,0,1-0.2,1.2-0.5c1.3-1.9,3.2-2.9,5.3-3.6c7.3-2.3,14.5-1.9,21.6,0.7c5,1.9,8.9,5.2,12.2,9.3
		c2.7,3.4,4.8,7.1,6.4,11c0.5,1.1,0.8,2.3,1,3.5c0.1,0.4,0.1,1.2-0.1,1.3c-0.5,0.3-1.2,0.2-1.8,0.3c-0.1,0-0.3-0.2-0.5-0.2
		c-0.4,0-0.9-0.1-1.2,0.2c-0.2,0.2-0.3,0.7-0.2,1.1c0.6,1.8,0.7,3.6,0.8,5.5c0.1,1.9-0.8,3.3-2.1,4.6c-0.2-0.8-0.4-1.5-0.5-2.2
		c0-0.1,0-0.1,0-0.2c-1.1-2.7,0-5.5-0.2-8.2c-0.2-3.3-1.1-6.4-2.6-9.4c-0.5-0.9-1-1.1-1.7-0.7c-0.7,0.5-0.4,1.1-0.2,1.6
		c0.7,1.8,1.5,3.6,2,5.5c0.6,2.3,0.7,4.7,0.1,7c-0.3,1.3-0.9,1.6-1.8,0.6c-2.1-2.2-4.2-4.6-6.3-6.8c-1.2-1.3-2.5-2.5-3.9-3.7
		c-0.3-0.3-1-0.4-1.4-0.2c-0.2,0.1-0.5,0.8-0.4,1.1c0.2,1.4,0.5,2.7,0.6,4.1c0.1,1.1,0.3,2.3,0.3,3.4c0,0.9-0.2,1-1.1,0.8
		c-2.1-0.6-4-1.6-5.8-2.8c-2.5-1.8-4.8-3.9-6.6-6.4c-0.4-0.6-0.9-0.8-1.6-0.4c-0.7,0.5-0.4,1-0.1,1.6c1.6,2.9,1.8,6,1.1,9.2
		c-0.1,0.3-0.3,0.5-0.5,0.7c-0.2-0.2-0.5-0.3-0.6-0.5c-2.4-3.2-5.2-6.1-8.3-8.6c-2-1.6-4.2-3-6.8-3.5c-1.4-0.3-1.8-0.1-2.3,1.3
		c-1.4,3.3-2.1,6.8-2.6,10.3c-0.4,2.6-0.7,5.1-1,7.7c-0.1,0.4-0.2,0.8-0.3,1.2c-0.1,0-0.3,0.1-0.4,0.1c-0.7-1.2-1.4-2.4-1.9-3.6
		c-1.4-3-1.9-6.2-1.8-9.5c0-0.6-0.3-1-0.9-1.1c-0.7,0-1.1,0.3-1.1,1c0,1.4,0,2.8,0.2,4.1c0.4,3.2,1.4,6.2,3.1,8.9
		c0.3,0.4,0.2,1,0.3,1.5c0.2,1.5,0.4,3,0.6,4.7c-0.2,0-0.5,0-0.7-0.1C147.7,54,146.4,52.8,145.8,51z M197.1,42.3
		c-0.9-1.2-2.2-1.9-3.7-2.4c-0.2-0.1-0.4-0.2-0.6-0.3c1-1.9,0.7-2.1-2.2-2.5c-0.2-1.3-0.3-2.6-0.5-4.1c0.4,0.3,0.6,0.5,0.8,0.8
		c1.8,2,3.6,4,5.4,6c0.6,0.6,1.2,1.2,1.8,1.8c1,0.9,2,1.6,3.6,1.1c0.2,1.1,0.4,2.1,0.6,3.3c-0.8,0.2-1.5,0.3-2.3,0.4
		c-0.7,0.1-0.6-0.6-0.8-1C198.5,44.4,197.9,43.2,197.1,42.3z M192.2,56.1c-4,0.9-8.4-1.7-9.2-5.7c-1.1-3.9,1.5-8.3,5.7-9.3
		c4.1-1,8.3,1.7,9.3,5.7C199,51.2,196,55.2,192.2,56.1z M149.4,57.6c1.1,0.1,1.9,0.7,2.3,2.1C150.6,59.6,149.7,58.8,149.4,57.6z
		 M151.9,53.4c-0.2-0.7-0.3-1.3-0.4-2c1.7-0.1,2.2-0.4,2.5-2c0.5-3.1,0.9-6.2,1.4-9.3c0.5-3.1,1-6.2,2.2-9.1c0.2-0.5,0.5-0.6,1-0.5
		c2.2,0.6,4,1.9,5.7,3.3c2.8,2.3,5.3,5,7.5,7.9c0.2,0.3,0.4,0.5,0.7,0.8c1,1.2,2.4,1.1,3.3-0.2c1-1.5,1.1-3.2,1.2-4.9
		c0-0.7,0-1.4-0.1-2.1c2.2,1.6,4.4,3.1,6.5,4.7c-1.9,2-1.9,2-0.5,3c-0.5,1.4-1.1,2.7-1.6,4.1c-0.2,0.7-0.2,1.4-0.2,2.3
		c-2.7,0.4-5.4,0.8-8.2,1.2c-0.6-2.2-1.8-4.1-3.7-5.4c1.1-1.6,0.8-2.3-1-2.7c-2.9-0.7-5.8-1-8.7-0.3c-0.5,0.1-1.3,0.6-1.4,1
		c-0.1,0.5,0.4,1.1,0.6,1.8c-2.7,1.8-4.2,4.6-4.2,8.2c-0.7,0.2-1.5,0.4-2.2,0.5C152.3,53.6,152,53.5,151.9,53.4z M165.7,60.1
		c-4.4,1-8.4-1.9-9.2-5.7c-1.1-4,1.8-8.4,5.7-9.3c3.9-0.9,8.3,1.3,9.3,5.7C172.4,55.1,169.9,59.2,165.7,60.1z M147.8,96.2
		c-2.1,4.7-5.6,8.1-10.2,10.2c-2.9,1.3-6,2.1-9.2,2.3c-1.6,0.1-3.3,0.2-4.9,0.2c-0.2,0-0.4-0.1-0.6-0.1c0-0.1-0.1-0.2-0.1-0.3
		c0.7-0.4,1.3-0.8,2-1.2c0.6-0.3,1.2-0.6,1-1.4c-0.2-0.8-0.8-0.8-1.4-0.7c-2.3,0.2-4.5,0.4-6.8,0.6c-0.4,0-0.9,0-1.3,0
		c0-0.1-0.1-0.1-0.1-0.2c0.2-0.2,0.4-0.5,0.7-0.7c2.5-1.7,4.9-3.3,7.4-5c0.6-0.4,1-0.9,0.6-1.6c-0.4-0.7-1-0.6-1.7-0.4
		c-1.4,0.4-2.8,0.9-4.1,1.3c-0.3,0.1-0.6,0-1,0.1l-0.1-0.2c0.4-0.4,0.7-0.8,1.2-1.2c3.5-3,7.3-5.6,11.7-7.1c2.9-1.1,6.1-1.2,9.2-1.1
		c1.7,0.1,3.3,0.3,5,0.4c0.8,0,1.1,0.5,1.4,1.1c0.5,1.2,1.1,2.3,1.5,3.5C148,95.3,148,95.8,147.8,96.2z M150.5,94
		c-0.4,0.2-0.7,0.1-0.9-0.4c-0.5-1.2-1-2.4-1.6-3.7c0.5-0.2,0.9-0.5,1.4-0.7c0.6,1.5,1.3,2.9,1.9,4.3C151,93.8,150.7,93.9,150.5,94z
		 M153.4,92.8c-0.7-1.5-1.3-3-2-4.4c0.9-0.9,1.3-0.9,1.9,0.2c0.5,0.9,1,1.7,1.5,2.6c0.1,0.3,0.2,0.6,0.4,0.9
		C154.6,92.4,154,92.6,153.4,92.8z M174.4,85.5c-1,1.3-2.1,2.5-3.2,3.8c-0.2,0.2-0.7,0.2-0.9,0.1c-1.3-1.1-2.6-2.2-4-3.5
		c2.7-2.4,5.2-4.7,7.8-7C175.7,80.9,175.8,83.6,174.4,85.5z M163.4,64.3c-2.9-0.5-5.6-1.4-7.8-3.4c-1.7-1.5-2.7-3.5-3.3-5.7
		c0.7-0.1,1.2-0.2,1.7-0.3c0.6-0.1,0.9,0,1.1,0.6c1.1,4.1,5.6,6.8,9.8,6.3c5-0.6,8.3-5.1,8.2-9.2c0-0.5,0.3-0.6,0.7-0.7
		c1.5-0.2,3.1-0.5,4.6-0.7c1-0.1,2-0.3,3-0.4c0.3,0.7,0.5,1.4,0.8,2.1c1.9,3.7,6.2,5.7,10.2,4.8c4.3-1,7.3-4.7,7.3-8.9
		c0-0.6,0.2-0.9,0.8-0.9c0.6,0,1.1-0.2,1.8-0.3c0.1,3.1-0.6,5.9-2.7,8.1c-2,2.2-4.5,3.6-7.2,4.8c-3.5,1.6-7.3,2.5-11,3.2
		C175.4,64.8,169.4,65.4,163.4,64.3z M181.2,74.8c-1.6,0.7-3,1.3-4.5,2c0.7-1,1.3-2,2-3C179.4,74,180.2,74.4,181.2,74.8z
		 M177.3,80.6c-0.2-0.6-0.4-1-0.6-1.5c1.1-0.5,2.2-1,3.3-1.5c1-0.5,2.1-0.8,3.1-1.3c1.1-0.6,1.8,0.1,2.6,0.4c0,0.1,0,0.2,0,0.3
		C182.9,78.2,180.1,79.4,177.3,80.6z M190.5,74.9c-0.1,0.2-0.5,0.3-0.7,0.4c0-0.2-0.1-0.5,0-0.7c0.5-1.1,1-2.1,1.6-3.2
		c0.1-0.2,0.4-0.3,0.6-0.3c0.1,0,0.2,0.1,0.3,0.2c-0.1,0.2-0.1,0.4-0.2,0.5C191.5,72.8,191,73.8,190.5,74.9z M195.2,75.2
		c-0.6,1.1-1.8,1.4-3,0.6c0.6-1.2,1.2-2.4,1.8-3.6C195.3,72.8,195.8,74.1,195.2,75.2z"/>
	<path d="M178.8,61.1c-1-0.3-2.1-0.6-3.1-1c-0.2-0.1-0.3-0.5-0.2-0.7c0.1-0.2,0.5-0.4,0.7-0.3c2.1,0.2,2.6,0.1,4.5-0.6
		c0.3-0.1,0.6,0.1,0.9,0.1c-0.1,0.3-0.1,0.8-0.3,0.9C180.5,60,179.7,60.5,178.8,61.1z"/>
	<path d="M159.7,35.3c-0.3-0.7-0.5-1.2-0.7-1.7c-0.1-0.2-0.3-0.4-0.3-0.6c0-0.3,0.2-0.7,0.3-1c0.3,0.1,0.8,0.2,0.9,0.5
		c0.6,1,1,2,1.5,3c0.1,0.2,0.3,0.3,0.3,0.5c0,0.3,0.1,0.7-0.1,0.9c-0.1,0.2-0.5,0.2-0.8,0.2c-0.5,0-0.9-0.2-1.7-0.3
		c0.3,0.7,0.6,1.2,0.8,1.7c0.2,0.3,0.4,0.7,0.5,1c0,0.3-0.2,0.6-0.3,1c-0.3-0.1-0.8-0.2-0.9-0.4c-0.7-1.2-1.4-2.5-2-3.8
		c-0.1-0.2-0.2-0.7,0-0.9c0.2-0.2,0.6-0.3,0.9-0.3C158.5,35.1,159,35.2,159.7,35.3z"/>
	<path d="M186.8,48.3c-0.5-1.9,0.5-3.6,2.4-4.1c1.9-0.5,3.5,0.6,4,2.6c0.4,1.9-0.6,3.7-2.4,4.1C188.9,51.3,187.3,50.2,186.8,48.3z"
		/>
	<path d="M167.1,50.6c0.5,1.9-0.6,3.8-2.4,4.2c-1.8,0.4-3.6-0.7-4-2.6c-0.4-1.8,0.8-3.8,2.5-4.2C164.9,47.7,166.7,48.8,167.1,50.6z"
		/>
</g>
<g>
	<path d="M118.6,156c-0.6-1.6,0.3-3.3-0.2-4.9c0.7-1.1,0-2.2-0.2-3.2c-0.3-1.6-0.5-3.2-0.5-4.9c0-3.1,0.1-6.2-0.6-9.3
		c-0.1-0.7-0.2-1.4-0.3-2.1c-0.1-0.8,0-1.6-0.1-2.3c-0.1-0.8-0.4-1.5-0.6-2.3c-0.2-1.1-0.5-2.2-0.7-3.3c-0.1-0.4-0.2-0.7-0.3-1
		c-0.4-1.3-0.6-2.8-1.3-3.9c-0.9-1.4-1.1-2.8-1-4.4c0-0.3-0.1-0.6-0.2-0.8c-0.3-0.8-0.5-1.5-0.8-2.2c-0.8-2-1.5-4.1-2.3-6.1
		c-0.2-0.2-0.3-0.4-0.4-0.7c-0.1-0.5-0.2-1-0.4-1.6c-3,1.2-6.1,2.5-9.1,3.8c0.2,0.3,0.4,0.7,0.6,1c0,0,0,0,0,0.1
		c0.1-0.1,0.3-0.1,0.4-0.2c0.3,0.9,0.5,1.6,0.8,2.4c0.1-0.1,0.1-0.1,0.2-0.2c0,0.6-0.2,1.2,0,1.6c0.3,0.8,0.9,1.5,1.3,2.2
		c0.2,0.4,0.4,0.7,0.5,1.1c0.4,1.4,0.8,2.9,1.3,4.3c0.2,0.5,0.8,1,1.3,1.3c0.5,0.4,0.7,0.9,0.6,1.6c0,1.2,0.2,2.3,0.4,3.5
		c0.2,0.8,0.8,1.5,0.8,2.2c0.1,0.9,0.5,1.8-0.1,2.6c-0.1,0.1-0.1,0.4,0,0.6c0.4,1.1,0.9,2.2,1.3,3.4c0.2,0.7,0.3,1.4,0.4,2.2
		c0.8-0.1,0.9,0.4,1,1.1c0.1,1.4,0.2,2.8,0.3,4.2c0.1,1.4,0.4,2.9,0.4,4.3c0,2.4,0.5,4.9-0.3,7.1c-0.5,1.4-0.2,2.8-0.7,4.1
		c-0.3,1,0.1,2.1-0.1,3.2c-0.4,3.9-0.9,7.7-1.4,11.6c-0.3,2.2-0.8,4.5-1.1,6.7c-0.1,0.5,0,1.1-0.1,1.6c-0.1,0.6-0.3,1.1-0.4,1.5
		c0,0.6,0,1.1,0,1.5c-0.2,2.1-0.4,4.2-0.8,6.2c-0.4,2.3-1,4.6-1.5,6.9c-0.5,2.2-0.9,4.4-1.3,6.6c-0.1,0.3,0,0.6,0,0.9
		c0,0.3,0.2,0.6,0.2,0.9c-0.1,0.4-0.3,0.8-0.4,1.2c-0.3-0.1-0.6-0.2-0.8-0.4c-0.1,0.4-0.4,0.8-0.8,0.9c0.9,0.9,1.6,1.9,1.9,3.2
		c0.3,1.2,1.1,2.1,2.1,2.7c0.3,0.2,1,0.1,1.4-0.1c0.4-0.2,0.6-0.7,0.3-1.2c-1.1,0.1-1.2,0.1-1.5-0.9c-0.5-1.3-0.4-2.7,0-3.9
		c0.7-2.5,1.6-4.9,2.4-7.4c0.7-2.5,1.4-4.9,2.1-7.4c0.9-3.2,1.7-6.4,2.5-9.6c0.5-2.1,1-4.3,1.5-6.4c0.3-1.4,0.4-2.8,0.7-4.1
		c0.4-1.8,1.2-3.6,1.8-5.4c0.4-1,0.5-2,0.8-3c0.6-1.8,0.9-3.7,0.7-5.6C118.6,157.1,118.8,156.5,118.6,156z M103.4,107.5
		c-0.6-0.1-1.3,0-2.1,0c2.3-1,4.4-1.8,6.7-2.8c0,0.8,0.1,1.6,0,2.4c-0.1,0.3-0.7,0.6-1.1,0.8c-0.8,0.4-1.7,0.8-2.5,1.1
		c-0.3,0.1-0.7,0-1.2,0.1C104,108.2,104.1,107.6,103.4,107.5z M104.4,112.7c-0.3,0-0.6-0.2-1-0.3c0.7-0.8,1.6-1,1.6-1.9
		c0-0.1,0.3-0.3,0.5-0.4c0.6-0.3,1.2-0.7,1.8-1c0.2-0.1,0.6-0.1,0.8-0.1c-0.1,0.3,0,0.7-0.2,0.9c-0.5,0.7-1.2,1.2-1.7,1.9
		C105.8,112.3,105.2,112.7,104.4,112.7z M105.5,115.3c0.1-0.6,0.2-1,0.4-1.5l-0.2-0.1c1.1-1,2.3-1.9,3.4-2.9c0.6,0.6,0.7,1.4,0.4,2
		c-0.2,0.4-0.9,0.6-1.4,0.9c-0.6,0.4-1.1,0.8-1.6,1.2C106.2,115.1,106,115.6,105.5,115.3z M106.7,119.6l-0.2-0.3
		c0.4-0.1,0.7-0.3,1.1-0.4c0.7-0.5,0.2-1-0.2-1.5c-0.1-0.1-0.6,0-0.9,0.1c-0.2,0-0.5,0.1-0.7,0.2c0.1-0.2,0.1-0.5,0.3-0.6
		c0.5-0.5,0.9-0.9,1.4-1.3c0.6-0.4,1.3-0.8,1.9-1.1c0.5-0.2,1-0.2,1.3,0.5c0.1,0.4,0.5,0.6,0.9,1C110.7,118,109,119.1,106.7,119.6z
		 M116.7,158.3c-0.2,1.9-0.5,3.7-0.8,5.5c-0.3,2-0.6,4-1,6c-0.4,2-0.9,4-1.3,5.9c0,0.1-0.1,0.2-0.2,0.3c-0.1-0.9-0.2-1.7-0.2-2.6
		c0-1.1,0.2-2.1,0.3-3.1c0.1-0.4,0.2-0.8,0.3-1.2c0.7-1.7,0.9-3.4,0.9-5.2c0-1.9,0.1-3.8,0.1-5.7c0-0.1,0-0.2,0-0.2
		c1.1-1.7,0.4-3.6,0.5-5.4c0.1-2,0.1-3.9,0-5.9c-0.1-2.1-0.5-4.2-0.7-6.3c-0.1-0.5-0.5-1,0.2-1.5c0.1-0.1-0.1-0.7-0.3-1
		c-0.2-0.6-0.6-1.2-0.8-1.8c-0.1-0.3-0.1-0.7-0.3-1c-1.1-2.2-1.1-4.6-1.6-6.9c-0.5-2.3-1.2-4.7-1.8-7c0-0.1-0.1-0.2-0.1-0.2
		c-0.6-1.1-0.6-1.1,0.4-1.7c0.4-0.2,0.8-0.3,1.1-0.4c1.1,2.4,1.7,5,2,7.7c0.1,0.9,0.5,1.9,0.9,2.7c0.2,0.4,0.8,0.6,0.9,1
		c0.2,0.9,0.3,1.9,0.4,2.9c0.1,0.7,0.1,1.4,0.1,2.1c0,0.2-0.1,0.3-0.1,0.5c0,0.7-0.4,1.6,0.6,2.1c0.4,0.2,0.3,1.6-0.1,2.1
		c-0.3,0.4-0.4,0.8-0.3,1.3c0.4,2,0.6,4,0.7,6c0.2,1.8,0,3.5,0.1,5.3c0.1,1.1-0.2,2.3-0.2,3.4C116.5,156.6,116.8,157.5,116.7,158.3z
		"/>
	<path d="M31,35.8c0.1,0.2,0.2,0.5,0.2,0.7c0.1,0,0.2,0,0.3,0h0.3c0.3,0,0.6,0.1,0.8,0.2c0-0.1,0-0.1,0-0.2c0.6,0.4,1.1,0.6,1.6,0.9
		c1.2,0.8,2.5,1.5,3.3,2.8c0.1,0.1,0.3,0.3,0.3,0.3c0.9-0.3,1.4,0.5,2.1,0.8c2.3,1.3,4.6,2.6,6.9,3.9c1.8,1,3.6,2,5.3,3.1
		c1.2,0.7,2.2,1.6,3.3,2.4c0.1,0,0.1,0.2,0.2,0.2c1.7,0.4,2.7,2.1,4.2,2.7c2.2,0.8,3.8,2.6,5.8,3.7c0.9,0.5,1.7,1.5,2.5,2.2
		c0.8,0.6,1.5,1.3,2.3,1.9c1.6,1.2,3,2.6,4.2,4.1c0.7,0.8,1.5,1.6,2.2,2.4c0.8,0.9,1.4,1.9,2.2,2.7c0.9,1,1.8,2.1,2.8,3.1
		c1.2,1.2,2.6,2.4,3.8,3.7c0.3,0.3,0.4,0.6,0.7,0.9c1.6,2.1,3.2,4.2,4.8,6.4c1,1.3,1.9,2.7,2.9,4.1c1,1.6,2,3.3,3.1,4.8
		c0.7,0.9,0.6,1.8,0.4,2.8c-0.2,1.1-0.1,1.2,1,1.6c0.1,0,0.1,0,0.2,0.1c0.1,0.9,0.2,1.7,0.3,2.4c0.2,1.3,0.5,2.6,0.7,3.8
		c0.1,0.5,0,1.1,0,1.6c0.1,0,0.2,0.1,0.3,0.1c-0.2,0.1-0.3,0.2-0.5,0.3c0.2,0.2,0.4,0.5,0.5,0.8c0,0.1,0.1,0.1,0.1,0.1
		c0,0,0,0.1,0,0.1c3.1-1.3,6.3-2.5,9.4-3.8c-0.1-0.3-0.1-0.7-0.2-1c0,0,0,0,0,0c-0.1-0.8-0.2-1.3-0.4-1.9c-0.1-0.3-0.2-0.7-0.4-0.8
		c-0.7-0.4-0.7-1-0.8-1.7c-0.2-1,0.2-2.3-1.2-2.7c0.9-2,0-3.7-2.1-4c0-0.3,0.1-0.6,0-0.8c-0.4-0.7-0.9-1.3-1.4-2
		c-1-1.4-1.9-2.8-2.9-4.2c-1.7-2.3-3.5-4.5-5.2-6.8c-1.8-2.4-3.6-4.8-5.4-7.1c-1.6-1.9-3.2-3.8-4.8-5.7c-0.7-0.8-1.2-1.7-1.9-2.4
		c-0.9-0.9-1.8-1.8-2.8-2.6c-1.6-1.3-3.3-2.6-5-3.9c-2.3-1.8-4.6-3.6-7.2-4.9c-1.1-0.5-2-1.2-3.1-1.7c-1.5-0.8-3.1-1.6-4.6-2.5
		c-1.2-0.7-2.2-1.6-3.4-2.2c-2.6-1.4-5.2-2.7-7.9-4c-1.7-0.8-3.5-1.6-5.3-2.3c-1.9-0.7-3.8-1.2-5.6-2c-1.4-0.6-2.8-1.5-4.2-2.3
		c-0.1-0.1-0.2-0.2-0.3-0.4c-0.6-1.4-1.6-2.5-2.8-3.4c-0.8-0.6-1.4-0.4-1.6,0.6c-0.2,0.9,0.1,1.7,0.7,2.5C30,34,30.6,34.8,31,35.8z
		 M106.7,100.4c0.3,0.8,0.6,1.5,0.9,2.4c-1.7,0.7-3.6,1.5-5.5,2.3c0.3-0.6,0.5-1,0.7-1.4c-0.5-0.1-1-0.1-1.7-0.2
		c0-0.1,0-0.5,0.1-0.5c0.6-0.4,1.1-0.8,1.8-1.1C104.2,101.3,105.4,100.9,106.7,100.4z M105.7,99c-1.6,0.9-3.1,1.7-4.7,2.5
		c0.2-0.6,0.9-0.9,0.3-1.5c-0.2-0.2-0.7,0-1.2,0.1c0.2-0.3,0.3-0.6,0.5-0.9c0.2-0.3,0.5-0.6,0.7-0.9c1.2-0.1,2.1-0.8,3.1-1.4
		c0.3-0.2,0.9-0.2,1.3-0.1C106.2,97,106.1,98.7,105.7,99z M104.2,93c0.8-0.4,0.9,0.2,1.2,0.6c0.3,0.4,0.5,0.9-0.2,1.2
		c-1.8,0.7-3.5,1.5-5.3,2.1c-0.3,0.1-0.7-0.1-1-0.2c0.6-0.3,1.2-0.6,1.7-1c0.2-0.1,0.2-0.5,0.2-0.7c-0.3-0.1-0.7-0.3-0.8-0.2
		c-0.4,0.3-0.8,0.8-1.4,1.2c0.1-0.4,0.2-0.7,0.4-1.1c0-0.1,0.2-0.2,0.2-0.2c-0.1-0.8,0.3-1,0.9-1.1c0.5-0.1,1-0.1,1.5-0.1
		C102.5,93.4,103.4,93.4,104.2,93z M73.8,57.5c0.3,0.1,0.7,0.1,0.9,0.3c1,0.9,2,1.8,3,2.7c0.5,0.4,1.1,0.8,1.5,1.3
		c1.2,1.4,2.3,2.8,3.5,4.1c0.8,0.9,1.8,1.7,2.7,2.6c0.8,0.9,1.6,1.8,2.4,2.7c1.6,1.9,3.1,3.8,4.6,5.7c0.2,0.2,0.3,0.4,0.4,0.6
		c0.8,2.2,2.4,3.9,3.6,5.8c0.7,1.1,1.3,2.3,2,3.5c0.1,0.2,0.2,0.3,0.4,0.4c0.8,0.4,1.2,1.1,1.5,2c0.1,0.3,0.3,0.7,0.6,0.9
		c0.5,0.4,1,0.7,0.9,1.5c0,0.2,0.4,0.4,0.7,0.7c-0.9,0.1-1.6,0.1-2.1,0.1c-1.3-1-1.5-2.8-3.2-3.4c-0.4-0.1-0.7-0.6-0.9-1
		c-0.7-1.2-1.2-2.6-2-3.6c-1-1.3-1.5-2.8-2-4.3c-0.4-1-1.2-1.8-1.9-2.7c-0.5-0.7-1-1.4-1.6-2c-0.7-0.7-1.4-1.3-2.1-2
		c-0.9-0.8-1.9-1.5-2.3-2.8c-0.1-0.4-0.6-0.6-0.8-0.9c-1.3-1.5-2.5-3-3.8-4.6c-0.8-1-1.5-2-2.2-3c-0.3-0.4-0.9-0.7-1.2-1.1
		c-0.2-0.2-0.5-0.5-0.6-0.8c-0.3-1.2-1.1-1.9-2-2.6C73.7,57.7,73.8,57.6,73.8,57.5z M73.3,57.2c-0.1,0.1-0.1,0.2-0.2,0.3
		c-1.3-0.9-2.7-1.9-4-2.9C69.9,54.4,72.6,56.1,73.3,57.2z M65.2,54.8c0.8,0.5,1.5,1.1,2.3,1.6c-0.1,0.1-0.2,0.2-0.3,0.4
		c-0.7-0.5-1.5-1.1-2.2-1.6C65,55,65.1,54.9,65.2,54.8z M54,45.3c-0.8-0.3-1.6-0.5-2.5-0.8C52.6,44.2,53.6,44.6,54,45.3z"/>
	<g>
		<rect x="-24.3" y="120.8" transform="matrix(0.3835 0.9235 -0.9235 0.3835 154.4443 12.3821)" width="184.5" height="2.1"/>
	</g>
</g>
<path d="M259.4,44.1c-0.8-0.5-1.9-1-2.9-0.9c-1.4,0.1-2.3-0.2-2.9-1.6c-1.7,1.1-3.3,1.4-4.9,0.2c-0.2-0.1-0.5-0.1-0.8-0.1
	c-1.4-0.2-2.9-0.3-4.3-0.7c-5.3-1.5-10.8-2.2-16.3-2.1c-0.4,0-0.9,0.5-1.3,0.7c0.2,0.4,0.4,0.8,0.7,1.1c3,2.2,5.8,4.6,7.7,7.8
	c0.2,0.3,0.6,0.7,0.8,0.6c1.9-0.5,2.1,0.7,2.3,2.4c-12.9,5.2-25.9,10.5-39,15.8c0,0,0,0.1,0,0.1c0.1,0.6,0.3,1.3,0.4,1.9
	c7.3-2.9,14.6-5.9,21.9-8.8c2.6-1.1,5.4-1.9,8-3c1.2-0.5,2.3-1.5,3.6-2c1.4-0.6,3-0.8,4.6-1.1c0.1,0.2,0.1,0.4,0.2,0.5
	c-1.5,0.6-3,1.2-4.5,1.9c-6.8,2.8-13.7,5.6-20.5,8.5c-3.3,1.4-6.3,3.2-9.6,4.6c-1,0.4-2.1,0.8-3.2,1.1c0.1,0.7,0.3,1.4,0.5,2
	c10.8-4.2,21.5-8.5,32.3-12.9c2.8-1.1,5.6-2.3,8.7-3.6c-0.2,0.9-0.3,1.5-0.5,2c-1.9,3.7-2.8,7.8-3.4,11.9c-0.2,1.5,0.9,2.2,2.3,1.7
	c2.2-0.9,3-3.1,4.4-4.8c2.4-2.9,4.2-6.2,7.3-8.4c0.2-0.1,0.3-0.4,0.5-0.6c2.6-3.3,5.1-6.7,7.8-10C260.2,46.7,260.6,44.8,259.4,44.1z
	 M241,55.3c-0.4-0.9-0.7-1.4-1-2c0.1-0.1,0.3-0.3,0.4-0.4c0.6,0.2,1.1,0.4,1.9,0.6C241.8,54.1,241.5,54.5,241,55.3z M244.7,60.2
	c-0.3-1.1-0.5-1.6-0.7-2.3c-0.4,0.3-0.6,0.6-0.9,0.8c-0.1-0.2-0.2-0.4-0.2-0.5c0.3-1.8,0.7-3.7,1.1-5.5c0.1-0.5,0.5-1,0.9-1.2
	c3.1-1.5,6.3-2.8,9.6-4.3C251.3,51.4,248.6,56,244.7,60.2z"/>
</svg>
