<?xml version="1.0" encoding="utf-8"?>
<!-- Generator: Adobe Illustrator 17.1.0, SVG Export Plug-In . SVG Version: 6.00 Build 0)  -->
<!DOCTYPE svg PUBLIC "-//W3C//DTD SVG 1.1//EN" "http://www.w3.org/Graphics/SVG/1.1/DTD/svg11.dtd">
<svg version="1.1" id="Layer_1" xmlns="http://www.w3.org/2000/svg" xmlns:xlink="http://www.w3.org/1999/xlink" x="0px" y="0px"
	 viewBox="0 0 288 216" enable-background="new 0 0 288 216" xml:space="preserve">
<path d="M172.2,86.4l-39.6,0.3L116,115l28.4,32.1l45.9-1.8l10.8-32.2L172.2,86.4z M177,94c0.3,5.7-0.4,7-4.7,8.5
	C170.7,98.4,171.7,96.5,177,94z M168.7,96.8c2.1,3.1,2,7.1-0.2,9.7C166.1,102.6,166.3,99.9,168.7,96.8z M170.8,114
	c-1.5,0.6-3.8,0.3-3.6-0.4c0.3-1.2,0.9-2.9,1.8-3.3c2.1-0.9,4.4-1.7,7.2-1.1C174.6,111.6,172.9,113.1,170.8,114z M172.4,123.3
	c-2.3-3.1-1.6-5.7,3.4-8.9C177.3,118.8,176.3,121.4,172.4,123.3z M169.2,127.8c-3.3-4.2-2.9-6-1.4-9.7
	C170.4,120.7,171,124.9,169.2,127.8z M164.4,102.8c2.5,2.9,3,6.6,1.4,8.9c-0.8,1.1-1.5,0.8-1.9-0.1c-0.5-1-0.9-2.1-0.9-3.2
	C163.1,106.6,163.3,104.6,164.4,102.8z M156.6,104c2,4.9,1.4,7.2-2.5,9.3C151.9,109.3,152.5,106.9,156.6,104z M161,111.6
	c-0.7,4.2-3.4,6.1-7,7.1C153.9,115.5,156.9,112.4,161,111.6z M147.3,100.8c0.3,4.2-2.2,6.5-5.5,8.3
	C141.2,105.6,143.6,102,147.3,100.8z M141.6,93.9c2.8,4.3,2.5,6.9-0.8,9.7C137.9,100,138.1,97.8,141.6,93.9z M135.1,100
	c3.2,1.2,5.2,5.7,4.1,8.8C135.3,105.6,134.6,104.2,135.1,100z M134.3,107.3c4,1.8,5.5,4.6,4.5,8.3
	C135.6,115,133.8,111.7,134.3,107.3z M141.7,137.9c0,0.3-0.3,0.7-0.6,0.8c-0.3,0.1-0.9-0.1-1-0.4c-0.3-0.8-0.6-1.6-0.7-2.4
	c-1.1-5.4-1.2-10.9-0.6-16.4c0-0.3,0-0.6,0.1-0.8c0.3-0.3,0.6-0.6,1-0.7c0.2,0,0.6,0.5,0.6,0.7c0,1,0,2.1-0.1,3.1c0,1.1,0,2.3,0,3.4
	c-0.2,0-0.3,0-0.5,0c0.5,3.7,1,7.5,1.5,11.2C141.6,136.9,141.7,137.4,141.7,137.9z M143.4,115.5c-0.5,0.4-1.4,0.4-2.1,0.3
	c-0.2,0-0.3-1.1-0.4-1.7c-0.1-1.4,0.4-2.6,1.7-3.3c1.5-0.9,2.6-2.5,4.7-2.7C146.9,111.2,145.9,113.7,143.4,115.5z M147,115.5
	c4.1,4,4.6,5.7,2.8,9.3C146.8,123.3,145.7,119.8,147,115.5z M149.1,137.8c-0.1,0.3-0.8,0.8-0.9,0.8c-0.4-0.2-0.7-0.7-1-1.1
	c0.8-3.3,1.6-6.6,2.5-9.8c0.1-0.3,0.7-0.7,1-0.6c0.3,0.1,0.7,0.7,0.7,1C150.6,131.4,149.8,134.6,149.1,137.8z M149.3,108.6
	c2.7,2.4,3.8,6.5,2.3,9.4C148.5,115.1,147.6,112.3,149.3,108.6z M155.9,124.6c-0.8,0.6-2,0.8-3.1,1c-0.2,0-0.9-0.6-0.8-0.8
	c0.4-1.5,0.3-3.3,2.2-4c1.7-0.6,3.1-2.1,5.5-2C159,121.3,157.8,123.2,155.9,124.6z M160.4,135.7c-0.1,0.6,0,1.2-0.3,1.7
	c-0.2,0.5-0.8,0.8-1.2,1.2c-0.3-0.4-0.6-0.8-1-1.4c0.8-4,1.4-8,2.4-12c0.8-3.2,2.1-6.3,3.3-9.4c0.2-0.4,0.9-0.7,1.3-1
	c0.1,0.6,0.5,1.2,0.3,1.7c-1.2,3.8-2.6,7.5-3.7,11.3C161,130.5,160.8,133.1,160.4,135.7z M167,133.8c-0.1,0.2-1.2,0.2-1.3,0
	c-0.6-1-1.5-2.1-1.6-3.2c-0.2-1.9,0.1-3.9,0.2-5.8c0.4-0.1,0.7-0.1,1.1-0.2c0.9,1.9,2.1,3.7,2.7,5.7
	C168.2,131.4,167.5,132.7,167,133.8z M172.6,134.8c-0.8,0.5-2,0.6-3,0.7c-0.7,0-1.2-0.4-0.8-1.3c0.6-1.6,1.1-3.2,3.2-3.6
	c1.6-0.3,3-1.6,5-0.9C176,131.9,174.6,133.7,172.6,134.8z M171.2,128.9c0.8-3.6,3.9-6,7.7-6.4C178.2,126.1,177,127.2,171.2,128.9z
	 M170.5,107.7c1.2-3.3,5-5.5,8.5-4.9C176.9,106.8,175.8,107.3,170.5,107.7z"/>
<path d="M110.4,120.8l-46.6,1.2l-26.3,36.3l26.5,41l55.5-3.6l19.4-41.8L110.4,120.8z M117.3,138.6c0.8,0.2,1.4,1.2,2.1,1.8
	c-0.7,0.5-1.3,1.3-2,1.3c-2.2,0-4.5-0.3-6.7-0.5C112.4,138,114.8,137.9,117.3,138.6z M106.7,144.4c0.2,2.7,1.4,5.4-0.6,7.9
	c-0.5,0.6-1.2,0.9-1.9,1.3c-0.3-0.8-1-1.6-0.9-2.3c0.6-2.5,1.5-4.9,2.3-7.3C106,144.2,106.4,144.3,106.7,144.4z M113.2,188
	c-0.4,0.1-1.4-0.1-1.5-0.4c-1-3-2.8-5.8-1.8-9.1c0.1-0.2,0.5-0.3,1.3-0.8c1,3.1,2,6.1,2.9,9.1C114.2,187.1,113.6,187.9,113.2,188z
	 M119.2,163.2c-0.4,2.3-0.6,4.7-1.5,6.8c-0.5,1.2-2,2-3.1,3c-0.4,0.3-6.6,3.6-6.9,3.8c-0.2,0.1-0.5,0.2-1.4,0.4
	c-0.2-1.4-0.3-2.8-0.7-4.1c-0.2-0.7-1-1.1-1.6-1.6c-0.3,0.6-0.8,1.2-0.8,1.8c0.4,4.1,0.9,8.2,1.3,12.3c0.2,1.6,1.4,4.1-0.9,4.6
	c-2.4,0.5-2-2.3-2.3-3.8c-0.6-3.6-1.2-7.3-1.9-10.9c-0.1-0.7-1-1.2-1.5-1.8c-0.3,0.6-0.8,1.1-1,1.7c-0.4,1-0.6,2.9-0.9,2.9
	c-1.7,0-3.5-0.2-5-0.9c-1.2-0.6-1.9-2.1-3.2-3.6c-0.9,1.3-1.7,2.5-2.6,3.5c-2.6,3.2-7.2,4.1-10.2,2c-2.1-1.5-2.1-2.2-0.4-4.2
	c1.3-1.4,2.6-2.8,3.6-4.4c0.6-0.9,0.9-2.2,1.1-3.3c0.1-0.4-0.5-1-0.9-1.3c-0.2-0.1-0.8,0.2-1,0.5c-4,6.4-8.9,12.4-10.5,20
	c-0.3,1.3-0.9,2.5-1.6,3.6c-0.3,0.4-1.4,0.6-2,0.4c-0.4-0.1-0.7-1.2-0.6-1.7c0.7-4.1,1.6-8.1,2.4-12.1c0.1-0.7,0.5-1.4,0.5-2.1
	c0-0.6-0.5-1.2-0.7-1.8c-0.5,0.4-1.3,0.6-1.6,1.1c-0.4,0.7-0.6,1.6-0.9,2.5c-2.9-0.7-4.5-2.6-5.5-5c-2.6-6.3-3.2-12.9-0.8-19.4
	c0.9-2.5,2.7-4.9,4.6-6.8c2-2,4.8-3,7.7-1.8c1.8,0.7,3,0.7,4.5-1.1c2.6-3.2,5.9-3.2,8.7-0.4c1.2,1.2,1.8,1.4,3.2,0.4
	c4.7-3.2,6.2-3,10.5,1.1c2.3-2.1,4.8-4.3,8.8-2.8c-0.9,1.9-1.8,3.8-2.6,5.8c-0.4,1.1-0.8,2.2-1,3.4c-0.6,2.8,0.3,5.2,2.3,6.1
	c1.9,1,2.9,0.6,5.7-2.4c0.8,1.2,1.5,2.4,2.3,3.6c1.4,2,3.3,3.4,5.8,3.4C118.8,160.7,119.4,161.6,119.2,163.2z M119.5,157.7
	c-1.2,0.9-4,0.7-5.2-0.9c-3-3.7-5.3-7.7-4.6-12.7c3.8,0,7.4,0,11.2,0c-0.5,1.3-3.1,2.6,0,4C122.3,148.8,120.9,156.6,119.5,157.7z"/>
<g>
	<path d="M212.4,92.3c-2.2,0-4,1.7-4.2,3.9c-0.2,2.3,1.7,4.3,3.9,4.4c2.3,0.1,4.2-1.7,4.3-4C216.6,94.3,214.7,92.3,212.4,92.3z
		 M212.3,99.2c-1.3,0-2.6-1.2-2.6-2.6c-0.1-1.5,1.2-2.8,2.6-2.8c1.5,0,2.8,1.2,2.8,2.7C215,97.9,213.7,99.2,212.3,99.2z"/>
	<path d="M201.5,90c1.1,0,2.2-1,2.3-2.2c0.1-1.3-0.9-2.6-2.2-2.6c-1.2-0.1-2.2,0.9-2.3,2.2C199.3,88.8,200.3,90,201.5,90z"/>
	<path d="M221.8,90.4c-0.1-0.9-0.6-1.8-1.6-1.5c-0.6,0.2-1.1,1-2,1.8c1,0.7,1.6,1.4,2.2,1.5C221.4,92.2,221.9,91.3,221.8,90.4z"/>
	<path d="M223.2,61.1l-34.5-0.2L178.6,84l29,26.3l39.2-0.8l5.2-25.9L223.2,61.1z M233.9,80.7c-0.8-1-1.1-1.6-1.6-2
		c-1.8-1.8-3.7-1.9-5.6-0.1c-3,2.9-5.9,5.8-8.8,8.8c-0.7,0.8-1.2,1.8-1.7,2.7c-1.9-0.6-2-0.6-0.7-2c3.8-4.1,7.6-8.2,11.3-12.3
		c1-1.2,2.1-1.3,3.4-0.7C232.3,76.1,233.8,77.6,233.9,80.7z M231.2,82.8c-2,2.2-4,4.3-6.1,6.6c-1.3-1.3-2.4-2.4-3.8-3.7
		c2.1-2,4.2-4.1,6.4-6.2c1.2-1.1,2.2-1,3.3,0C232.2,80.5,232.3,81.6,231.2,82.8z M212.6,85.8c1.6-1.7,1.2-3.7-1-5.9
		c2.4,0.3,3.7,2.1,3.6,4.6c-0.1,2.5-2.1,4.4-4.6,4.5c-2.4,0.1-4.1-1.5-4.5-4C208.8,87.5,210.9,87.7,212.6,85.8z M207.5,83.2
		c0.1-1.2,1.1-2.1,2.4-2.1c1.2,0,2.2,1,2.2,2.2c0,1.2-1,2.2-2.2,2.3C208.6,85.7,207.4,84.5,207.5,83.2z M214.7,73.2
		c-0.3-1.4,0.9-2.2,1.6-2c1.3,0.4,1.3-0.3,1.9-1c1.5-1.8,3.3-3.3,5-4.9c0.3-0.3,0.9-0.2,1.6,0.1c-0.5,0.6-1,1.2-1.6,1.8
		c-2.2,2.3-4.4,4.6-6.7,7c-0.4,0.4-0.8,0.7-1,1.1c-0.1,0.3,0,0.7,0,1.1c0.3,0,0.7,0,0.9-0.1c0.5-0.3,0.9-0.8,1.3-1.2
		c2.6-2.7,5.3-5.5,7.9-8.2c1.1-1.2,1.6-1.1,2.6,0.1c1.4,1.6,1.5,3.3,0.2,4.8c-3.7,4.1-7.4,8.1-11.2,12.1c-0.1,0.1-0.3,0.1-0.6,0.2
		c-0.6-3.4-2.6-5.5-6.7-6.1c1.5-1.3,2.5-2.4,3.7-3.1C214.6,74.2,214.8,73.9,214.7,73.2z M211.5,73.4c0.2,0.2,0.3,0.4,0.5,0.6
		c-1.7,1.7-3.5,3.4-5.2,5.1c-0.7,0.8-1.4,1.7-2,2.6c-0.9,1.5-0.8,1.5-2.9,0.7C205.3,79.3,208,75.9,211.5,73.4z M201.7,84.1
		c1.7,0.1,3.2,1.6,3.2,3.3c0,1.8-1.7,3.4-3.4,3.3c-1.8-0.1-3.3-1.7-3.1-3.6C198.5,85.4,199.9,84.1,201.7,84.1z M200.9,100.3
		c-1.3-0.1-2.5-1.4-2.4-2.7c0.1-1.3,1.2-2.3,2.5-2.3c1.5,0,2.5,1.1,2.5,2.5C203.4,99.2,202.2,100.4,200.9,100.3z M204.7,100.1
		c0.5-2.9,0.3-5.2-2.6-6.1c-2.1-0.7-3.4,0.1-5.6,3.5c0.2-2.8,1.2-4.6,3.4-5c2.5-0.5,3.7-0.2,5.2,1.7
		C206.3,95.8,206.2,97.6,204.7,100.1z M205.1,90.7c1-1.6,1.3-1.6,3.5-0.2c-0.7,0.9-1.4,1.7-2.3,2.8
		C205.9,92.2,204.1,92.2,205.1,90.7z M212.5,101.8c-2.9-0.1-5.2-2.5-5.1-5.5c0-3,2.3-5.4,5.2-5.4c2.9,0,5.5,2.6,5.5,5.5
		C218.1,99.3,215.4,101.9,212.5,101.8z M218,90.3c0.1-1.5,1.2-2.6,2.6-2.6c1.5,0,2.7,1.3,2.7,2.8c-0.1,1.4-1.3,2.6-2.6,2.6
		C219.1,93.1,217.9,91.9,218,90.3z M226.2,99c-0.1,0.5-0.6,0.9-0.9,1.4c0.1-0.5,0.4-1,0.3-1.5c0-1.2-0.9-2.1-2-2.2
		c-1-0.1-1.8,0.4-2.2,1.3c-0.5,1-0.1,2.1,1,2.8c0.4,0.2,0.9,0.3,1.4,0.5c-1.6,0.5-2.6,0.2-3.4-1c-0.8-1.2-0.7-2.9,0.3-4
		c1-1.1,2.4-1.4,3.7-0.7C225.7,96.4,226.5,97.8,226.2,99z M228.1,97.6c-1.4-1.4-2.8-2.8-4.2-4.2c2.4-2.4,4.9-5,7.5-7.5
		c0.4-0.4,1.2-0.7,1.8-0.7c0.5,0,1.2,0.3,1.5,0.7c0.2,0.2-0.2,1-0.6,1.4c-1.3,1.5-2.8,2.9-4.1,4.5c-0.2,0.3-0.1,0.9-0.1,1.3
		c0.4-0.1,0.8-0.1,1.1-0.3c1.1-1.1,2.1-2.2,3.2-3.3c0.6-0.6,1.2-1.1,2-1.9C235.9,89.6,232.1,94.1,228.1,97.6z"/>
</g>
<g>
	<path d="M153.2,65.5c1.2,3.6,0.8,4.7-2.8,8.1c1.2,0.1,2.2,0.4,2.9,0.1c1.1-0.5,2.7-1.3,3-2.3c0.3-1.2-0.3-2.8-0.9-4.1
		C155,66.6,154,66.1,153.2,65.5z"/>
	<path d="M159.6,50.1c-1.8-2.4-2.1-2.5-4.9-0.9c2.8,2.9,6.6,5.1,7.6,9.5C163.3,55,161.5,52.6,159.6,50.1z"/>
	<path d="M157.3,38.2l-34.4-0.7l-14.8,20.3l23.5,23.6l39.1-0.2l10.7-22.8L157.3,38.2z M133.7,45c0.1-0.3,1-0.5,1.3-0.3
		c4,1.8,8.1,0.6,12.2,0.3c0.2,0,0.3,0.1,0.8,0.3c-0.6,0.7-1.2,1.4-1.8,2.1c-0.8,1-1.6,1.5-2.9,0.6c-0.6-0.4-1.6-0.4-2.5-0.4
		c-1.5,0-3,0.2-4.4,0.3c0.8,1.3,2.1,1.5,3.5,1.3c1.4-0.1,2,0.5,1.8,1.8c-0.4,2.3-0.9,4.5-1.2,6.4c-3.8,1-4.3-1.5-5.1-3.4
		c-0.8-1.9-1.8-3.2-4.3-2.3C130.6,48.9,132.6,47.1,133.7,45z M125.1,62c0-0.5,0.1-1,0.2-1.4c1-5.7,1.2-5.9,7.3-7
		c0.1,0.5,0.2,1.1,0.4,1.6c1.6,3.7-0.9,5.9-3.2,7.7c-0.9,0.7-2.7,0.1-4.1,0C125.4,62.9,125.2,62.3,125.1,62z M137.8,75
		c-0.1,0.5-0.8,1.1-1.3,1.2c-2.1,0.4-4.2,0.7-6.3,0.9c-0.4,0-1.2-0.1-1.3-0.4c-0.6-1.9-1.7-3.7-0.8-5.8c0.4-0.9,0.8-1.2,1.9-1.3
		c2.4,1.2,4.8,2.3,7.2,3.6C137.6,73.4,137.9,74.4,137.8,75z M138,66.7c-0.4,0-0.8,0-1,0c-0.9-0.1-1.9,0.1-2.4-0.2
		c-1-0.6-1.9-1.5-2.5-2.6c-0.2-0.3,0.6-1.4,1.1-2c0.5-0.6,1.1-1.1,1.7-1.5c2.5-1.4,3.3-1.2,4.5,1.4c0.2,0.4,0.4,0.9,0.6,1.3
		C141.2,65.5,140.5,66.6,138,66.7z M157.7,73.6c-1.3,1-3.1,1.6-4.7,1.7c-2.1,0.1-4.2-0.5-6.3-0.7c-1.7-0.1-2.5-0.8-2.2-2.6
		c0-0.3,0-0.6,0-1.1c-0.5-2.4,1.3-4.1,2.4-6.1c2.3-3.7,1.4-3.5,5.4-1.8c5,2.2,4,0.8,5.2,6.2c0.1,0.3,0.2,0.6,0.2,0.8
		C157.8,71.3,158.3,73.2,157.7,73.6z M157.5,58.6c-0.2,0.7-0.4,1.3-0.6,1.9c-0.6,1.5-1.7,2-3.2,1.4c-1.3-0.5-2.5-1-3.7-1.6
		c-1.2-0.6-2-0.3-2.7,0.8c-0.6,1.1-1.3,2.1-1.9,3.2c-0.7,1.1-1.7,1.2-2.4,0.4c-1.1-1.4-2.4-2.8-1.7-4.9c0.1-0.2,0.1-0.4,0.2-0.6
		c0.9-4.6,3.1-8.4,6.7-11.4c1.6-1.3,3.1-2.8,4.7-4.3c1.9,0.9,3.8,1.7,5.8,2.6c1.2,0.6,2.4,1.2,3.6,1.8c1.1,0.5,1.9,1.1,2.3,2.4
		c1.1,4.2,2.7,8.2,3.1,12.7c-2.9-2.3-2.9-2.3-5.3,0.6c-1,1.2-2,2.3-3.1,3.6C157.1,64.6,158.7,61.4,157.5,58.6z M167.9,69.3
		c-0.5,0.2-1.1,0.5-1.6,0.5c-1.9-0.3-3.7-0.7-6.1-1.1c1.8-2.1,3.2-3.8,4.7-5.6c1.3,1.6,2.3,2.9,3.4,4.2
		C169.1,68.1,169,68.8,167.9,69.3z"/>
</g>
<path d="M97.7,17.2l-34.2-1L44.8,34.2l18.8,21.2l38.8,0.4l15.2-20.1L97.7,17.2z M99.2,32.2c0,0.2,0.1,0.4,0.1,0.7
	c-0.7,0.3-1.5,0.7-2.2,0.9c-3.1,1-6.3,1.8-9.2,3.1c-3.2,1.5-5.9,0.4-9.1-1.1c2.2-0.7,3.9-1.5,5.8-1.9c0.9-0.2,1.9,0,2.8,0.3
	c1.5,0.6,2.9,0.5,4.4-0.1c1.7-0.7,3.4-1.2,5.2-1.7C97.6,32.1,98.4,32.2,99.2,32.2z M78.8,18.7c0.6-0.2,1.3-0.2,1.9,0
	c4.5,1.4,8.9,2.9,13.4,4.4c0.3,0.1,0.5,0.3,0.7,0.5c-3.1,1.8-6.1,2.2-9.4,0.8c-3-1.3-6.1-2.1-9.2-3.2c-0.6-0.2-1.2-0.5-2.2-1
	C75.9,19.7,77.3,19.1,78.8,18.7z M71.8,21.8c0.9,0.2,1.5,0.3,2.1,0.5c4.3,1.4,8.5,2.8,12.8,4.2c1.3,0.4,2.1,1.1,2,2.6
	c-0.1,1.1,0,2.2,0,3.7C83.1,31,78.1,29.3,73,27.6c-1-0.3-1.3-0.9-1.3-1.9C71.8,24.5,71.8,23.3,71.8,21.8z M65.9,27.8
	c1.3-0.4,2.5-0.8,4-1.3c0.1,1.7,1.3,2.2,2.6,2.7c3.1,1,6.3,2.1,9.4,3.1c0,0.2,0,0.4,0,0.6c-0.7,0.1-1.4,0.4-2,0.2
	c-4.7-1.5-9.4-3.1-14.1-4.7C65.8,28.2,65.8,28,65.9,27.8z M68,49.4c-1.9-0.6-3.8-1.1-5.6-1.9c-0.6-0.2-1-1-1.2-1.6
	c-0.2-0.7-0.1-1.5-0.1-2.3c0.1-1.9,0.2-2,2-1.5c0.4,0.1,0.7,0.2,1.1,0.4C68.8,44,68.8,44,68,49.4z M63.7,40.4c3.4-2.6,6.6-1.7,10,0
	C70.4,43.1,67.1,42.1,63.7,40.4z M75,38.5c-1-0.1-1.7-0.1-2.2-0.3c-2.6-0.8-5.2-1.8-7.9-2.6c-1.3-0.4-1.9-1-1.8-2.4
	c0.1-1.1,0-2.3,0-3.8c4.9,1.6,9.5,3.1,14.6,4.9C75.3,35,74.2,36.2,75,38.5z M76.5,41.5c-0.1-0.3,0-0.8,0-1.1
	c-0.1-3.4-0.1-3.4,3.2-2.3c0.5,0.2,0.9,0.3,1.4,0.4c2.7,0.9,2.7,0.9,2.7,3.8c0,0.5,0,1,0,1.4c0,0.9-0.5,1.2-1.3,0.9
	c-1.6-0.5-3.3-1-4.9-1.7C77.1,42.8,76.8,42,76.5,41.5z M95.1,52.6c-0.9-0.2-1.4-0.2-1.9-0.4c-4.3-1.4-8.7-2.9-13-4.4
	c-0.6-0.2-1.2-0.6-1.7-1c-0.2-0.2-0.2-0.8,0-1.1c0.1-0.2,0.7-0.5,0.9-0.4c3.4,1.6,6.6,1.4,10.2,0.2c1.4-0.5,3.4,0.9,5.1,1.5
	c0.2,0.1,0.5,0.6,0.5,1C95.2,49.5,95.1,50.9,95.1,52.6z M93,44.4c2.7-0.8,5.1-2.8,8.6-0.6C98.5,44.7,96,46.6,93,44.4z"/>
<g>
	<path d="M207.7,169.7c0.1-0.3,0.2-0.5,0.3-0.8c0.3-1,0.5-2,0.8-3c0.4-1.5,1.2-2.8,2.6-3.6c3.8-2.3,7.5-4.5,11.3-6.8
		c0.3-0.2,0.6-0.3,0.9-0.4c0.9-0.4,1.7-0.2,2.4,0.4c1.4,1.3,2.9,2.6,4.2,4c2,2.1,4,4.2,6,6.3c1.1,1.1,1.5,2.4,1.4,3.9
		c-0.2,3.2-0.5,6.3-1.1,9.4c-0.3,1.3-1,2.3-2.2,3c-4,2.2-8,4.4-12,6.5c-0.4,0.2-0.8,0.3-1.2,0.4c-0.7,0.2-1.3,0.1-1.9-0.3
		c-1.2-1-2.5-1.9-3.6-3c-2.7-2.5-5.3-5.1-7.9-7.6c-1-1-1.3-2.3-1.1-3.7c0.2-1.3,0.4-2.6,0.6-3.9c-0.1,0.2-0.2,0.3-0.2,0.5
		c-0.3,1.8-0.7,3.5-0.8,5.3c-0.1,1.6-0.5,3.2-1.4,4.5c-0.8,1.1-1.8,2.2-2.7,3.2c-0.6,0.7-1.3,1.4-1.9,2.1c-1.2,1.2-2.4,2.5-3.6,3.7
		c-0.7,0.7-1.5,0.9-2.5,0.6c-1.2-0.4-2.4-0.8-3.6-1.4c-2.9-1.4-5.8-2.9-8.7-4.4c-0.5-0.3-1-0.6-1.5-1c-1-0.7-1.6-1.7-1.6-3
		c0.1-2.4,0.1-4.9,0.3-7.3c0.1-1.5,0.3-2.9,0.5-4.4c0.1-1,0.6-1.9,1.3-2.7c2.6-2.5,5.2-5,7.9-7.6c0.3-0.2,0.6-0.4,0.9-0.6
		c0.9-0.6,1.8-0.8,2.8-0.5c1.6,0.5,3.1,1.1,4.6,1.7c2.7,1.2,5.4,2.5,8,3.8c0.5,0.3,1,0.6,1.5,1c0.8,0.6,1.2,1.4,1.2,2.4
		C207.7,167.7,207.7,168.7,207.7,169.7z M203.5,179.6c0.5,0,1,0,1.5,0c0.1,0,0.2-0.1,0.2-0.2c0.2-0.6,0.4-1.2,0.5-1.8
		c0.1-0.5-0.3-0.6-0.7-0.4C204.4,177.9,203.8,178.7,203.5,179.6c-0.4,0.6-0.5,1.2-0.3,1.9c0,0.1,0.2,0.2,0.3,0.2
		c0,0,0.2-0.1,0.2-0.1c0.1-0.5,0.2-1,0.2-1.4C203.9,180,203.7,179.8,203.5,179.6z M218.1,179.1c0.2,0.4,0.2,0.8,0.5,1.1
		c0.9,1.2,2.8,1.6,4.1,1c1.3-0.6,1.5-1.9,0.5-3c-1-1-2.9-1.3-4.1-0.6C218.6,177.9,218.2,178.3,218.1,179.1z M195.5,169.5
		c-0.4,0.2-1.1,0.3-1.6,0.7c-0.8,0.5-0.8,1.5-0.1,2.2c1,1,3.1,1.3,4.3,0.4c0.9-0.6,1-1.6,0.2-2.4
		C197.5,169.8,196.6,169.6,195.5,169.5z M194.3,167.6c0.6-0.2,1.2-0.3,1.7-0.6c0.8-0.5,0.9-1.4,0.3-2.1c-0.9-1.1-3.3-1.3-4.4-0.4
		c-0.8,0.7-0.8,1.6,0,2.2C192.7,167.3,193.4,167.5,194.3,167.6z M185.8,164.9c-1,0-1.6,0.1-2.1,0.5c-0.7,0.6-0.8,1.3-0.3,2
		c1,1.2,3.5,1.2,4.5,0.1c0.5-0.6,0.5-1.2,0-1.8C187.3,165.1,186.6,164.8,185.8,164.9z M186.3,177.8c-0.8,0-1.3,0.4-1.3,1.2
		c0,1.5,1.5,3.1,2.9,3.3c1,0.1,1.6-0.5,1.5-1.5C189.3,179.4,187.7,177.8,186.3,177.8z M202.7,166.7c0.4-0.1,0.8-0.1,1.2-0.3
		c1.2-0.4,1.4-1.7,0.5-2.5c-1-0.8-2.1-1-3.3-0.7c-0.6,0.2-1,0.5-1.1,1.2c-0.1,0.6,0.2,1.1,0.6,1.5
		C201.1,166.4,201.9,166.6,202.7,166.7z M192.9,189c0.9,0,1.4-0.6,1.3-1.5c-0.2-1.3-1.7-2.6-3-2.7c-1-0.1-1.5,0.5-1.4,1.5
		C190,187.6,191.5,188.9,192.9,189z M183.1,175.2c1,0,1.5-0.4,1.6-1.2c0.1-1.4-1.6-3.2-3-3.1c-0.6,0-1.1,0.3-1.1,0.9
		c0,0.6,0.1,1.2,0.4,1.7C181.4,174.4,182.1,175.1,183.1,175.2z M192.4,161.8c0,0,0,0.1,0.1,0.1c0.6-0.3,1.3-0.4,1.8-0.8
		c0.7-0.4,0.7-1.2,0.1-1.8c-0.9-0.9-3-1-4-0.3c-0.8,0.6-0.8,1.4-0.1,2C190.9,161.6,191.6,161.8,192.4,161.8z M235.9,176.6
		c-0.1-1.3-1.1-3.1-2.2-3.8c-0.7-0.5-1.4-0.2-1.4,0.7c0,1.5,0.6,2.8,1.8,3.8c0.3,0.2,0.8,0.3,1.1,0.2
		C235.6,177.4,235.7,177,235.9,176.6z M225.6,158.1c0.1,1.4,1.2,3.2,2.4,3.8c0.7,0.4,1.3,0.1,1.3-0.8c-0.2-1.6-0.9-2.9-2.2-3.7
		c-0.3-0.2-0.7-0.2-1-0.1C225.9,157.4,225.8,157.9,225.6,158.1z M217,163c-0.1,0-0.2,0-0.3,0c-1.6,0.6-2.7,1.7-3.2,3.4
		c-0.2,0.7,0.2,1.1,1,0.9c1.3-0.4,2.2-1.4,2.9-2.6c0.2-0.3,0.3-0.6,0.3-1C217.8,163.3,217.5,163,217,163z M209,173.9
		c0,0,0.1,0,0.2,0c1.3-0.3,2.9-2.1,3-3.4c0.1-0.6-0.3-0.9-1-0.8c-1.2,0.2-3,2.2-3.1,3.4C208.1,173.6,208.4,173.9,209,173.9z
		 M223,157.2c0-0.4-0.2-0.6-0.6-0.6c-0.3,0-0.7,0-0.9,0.2c-1.2,0.6-2.1,1.5-2.5,2.8c-0.1,0.3,0,0.7,0,1.1c0.4,0,0.8,0,1.1-0.1
		c1.1-0.5,2-1.4,2.6-2.5C222.8,157.8,222.9,157.5,223,157.2z M197.8,179c0.1,0.2,0.2,0.6,0.4,0.7c0.2,0.1,0.6-0.2,0.9-0.4
		c0.9-0.9,1.4-2.1,1.6-3.4c0-0.3-0.1-0.6-0.2-0.9c-0.3,0.1-0.7,0.1-0.9,0.3C198.5,176.3,198,177.5,197.8,179z M203.8,172.2
		c0-0.1-0.1-0.5-0.3-0.5c-0.2-0.1-0.5,0.1-0.7,0.2c-0.3,0.3-0.6,0.7-0.9,1c-0.5,0.9-1,1.8-0.9,2.9c0,0.6,0.4,0.7,0.9,0.4
		c0.1-0.1,0.2-0.2,0.3-0.3C203.2,175,203.7,173.8,203.8,172.2z M200,184.4c0.1,0.2,0.2,0.4,0.3,0.7c0.3-0.1,0.6-0.2,0.8-0.4
		c0.8-0.8,1.3-1.8,1.6-2.9c0.1-0.3,0.1-0.6,0.1-0.8c0-0.2-0.1-0.5-0.3-0.6c-0.1-0.1-0.4,0.1-0.5,0.2c-0.3,0.2-0.5,0.5-0.7,0.8
		C200.7,182.2,200.2,183.2,200,184.4z M199.3,183.8c-1.1,0.4-2.6,3-2.5,4.2c0.1,0.4,0.4,0.6,0.7,0.3c0.6-0.6,1-1.3,1.5-2
		c0.1-0.2,0.2-0.5,0.3-0.7C199.7,185.2,199.7,184.2,199.3,183.8z M204.2,172.3c0.1,0.3,0.3,0.5,0.4,0.8c0.3-0.1,0.6-0.2,0.8-0.4
		c0.9-1,1.4-2.2,1.4-3.6c0-0.2-0.1-0.5-0.2-0.5c-0.1-0.1-0.4,0-0.6,0.1C205,169.7,204.6,170.9,204.2,172.3z"/>
</g>
</svg>
