<?xml version="1.0" encoding="utf-8"?>
<!-- Generator: Adobe Illustrator 17.1.0, SVG Export Plug-In . SVG Version: 6.00 Build 0)  -->
<!DOCTYPE svg PUBLIC "-//W3C//DTD SVG 1.1//EN" "http://www.w3.org/Graphics/SVG/1.1/DTD/svg11.dtd">
<svg version="1.1" id="Layer_1" xmlns="http://www.w3.org/2000/svg" xmlns:xlink="http://www.w3.org/1999/xlink" x="0px" y="0px"
	 viewBox="0 0 288 216" enable-background="new 0 0 288 216" xml:space="preserve">
<path d="M71.2,149.8c0.7-0.2,0.7-0.2,1,0.4c0.8,1.7,1.7,3.4,2.8,4.9c0.6,0.8,1.2,1.5,1.7,2.2c0.5,0.7,1,1.3,1.4,2
	c0.2,0.3,0.3,0.7,0.4,1.1c0.1,0.6-0.1,1-0.7,1.4c-1.4,1-3.1,1.6-4.7,2.1c-2.2,0.6-4.4,0.9-6.6,0.9c-0.7,0-1.4,0.1-2.2,0.2
	c-1.1-0.1-2.2-0.2-3.4-0.4c-0.4,0-0.9-0.1-0.9-0.6c-0.1-0.5,0.3-0.9,0.8-1c1.1-0.5,2.3-0.9,3.4-1.3c0.2-0.1,0.5-0.1,0.7-0.2
	c1.1-0.4,1.1-0.6,1.2-1.8c0.1-1.1-0.1-2.2-0.3-3.4c-0.3-1.6-0.1-3.2,0.9-4.6c0.6-0.8,1.4-1.3,2.3-1.5
	C69.7,150.2,70.4,150,71.2,149.8z M70.6,94.7c1.5,1.6,3.4,2.4,5.5,3c0.3,0.1,0.8,0.3,0.9,0.6c0.1,0.4-0.3,0.7-0.7,0.8
	c-0.7,0.4-1.3,0.7-2.1,1c-3,1.2-6.1,1.9-9.3,2.2c-2.7,0.2-5.4,0.3-8,0c-0.6-0.1-1.2-0.1-1.9-0.5c1-0.5,1.8-0.5,2.7-0.6
	c1.7-0.2,3.3-0.4,5-0.6c0.3,0,0.7-0.1,1-0.2c1-0.3,1.2-0.7,1-1.7c-0.1-0.6-0.3-1.2-0.5-1.9c-0.2-0.8-0.2-0.9,0.6-1
	c1-0.2,2-0.3,3.1-0.5C68.6,95.1,69.6,94.9,70.6,94.7z M70,93c-1.3,1.5-7.5,2.1-10.3,1.4C63.2,94,66.6,93.5,70,93z M69.4,92.5
	c-0.9,0.2-1.7,0.5-2.5,0.6c-1,0.1-1.9,0.2-2.9,0.2c-0.6,0-0.8-0.3-0.8-0.8c0.1-0.7,0.2-1.3,0.3-2c0.1-0.4,0.3-0.6,0.6-0.7
	c1.2-0.2,2.3-0.5,3.5-0.7c0.4-0.1,0.7,0,0.8,0.4C68.7,90.5,69,91.4,69.4,92.5z M63.6,88.4c0.8-0.5,2-0.6,2.6-0.4
	C65.7,88.6,64.9,88.7,63.6,88.4z M59.3,60.2c0.2-0.2,0.6-0.3,0.8-0.2c0.8,0.1,1.4,0.7,1.8,1.4c0.2,0.3,0.1,0.7-0.2,0.9
	c-0.4,0.2-0.9,0.4-1.1,0.5c-0.8,0-1.6-0.5-1.8-1C58.6,61.3,58.8,60.6,59.3,60.2z M58.8,66.4c0.4-0.1,0.7-0.2,1.1-0.3
	c0.8-0.2,1.6-0.5,2-1.3c0.1-0.1,0.3-0.2,0.4-0.3c0,0,0,0,0,0c0.6,0.2,1.1,0.3,1.7,0.5c1.7,0.6,3.2,1.4,4.4,2.7
	c0.1,0.1,0.3,0.3,0.4,0.3c1-0.1,1,0.7,1.2,1.4c-0.2,0.1-0.5,0.2-0.7,0.4c-0.2-0.4-0.4-0.7-0.6-1.1c-0.2,0.4-0.4,0.6-0.5,0.9
	c-0.3,0.7-0.8,1-1.6,0.9c-1.1-0.1-2.2-0.1-3.3-0.2c-0.3,0-0.6,0-0.9,0c0.1,1.2,1,1.8,2.3,1.9c1.2,0,2-0.7,2.8-1.5
	c0.3,0.5,0.6,0.9,0.9,1.3c-0.2,0.6-0.6,1.1-1.1,1.6c-0.5,0.4-0.7,1-0.7,1.6c0,3.5,0,7,0,10.5c0,1.3-0.3,1.6-1.6,1.6
	c-0.6,0-0.7-0.1-0.8-0.7c0-0.2,0-0.5,0-0.7c0-3.4,0-6.8,0-10.2c0-0.7-0.1-1.2-0.8-1.6c-0.8-0.4-1.3-1.2-1.5-2.1
	c-0.2-0.5-0.3-0.9-0.5-1.4c-0.3-0.8-0.6-0.9-1.4-0.3c0-0.3,0-0.5,0-0.7c0-0.2-0.1-0.4-0.1-0.7c-0.2,0.2-0.3,0.3-0.4,0.4
	c-0.1,0.1-0.3,0.2-0.5,0.2c-0.5-0.1-1.2-1-1.3-1.4C57.6,67.3,58.1,66.5,58.8,66.4z M54,72.2c0.3,0.1,0.6,0.2,0.9,0.3
	c1,0.3,2,0.3,3-0.2c0.3-0.2,0.6-0.4,0.9,0.2c0.4-0.4,0.6-0.8,1-1.2c-0.6,2.3-2.9,4.1-5.4,2.8C53.7,73.7,53.6,73.2,54,72.2z
	 M40.7,159.6c0.5-1.2,1.1-2.4,1.9-3.4c3.1-3.7,5.2-7.9,6.2-12.5c0.6-2.6,1.1-5.3,1.4-7.9c0.5-4.1,0.8-8.2,1-12.3
	c0.2-4.4,0.3-8.8,0.4-13.3c0-0.3,0.1-0.5,0.1-0.8c0.7,1,1,2,1,3.2c0,4.8,0.1,9.6,0,14.4c-0.3,7-0.7,14-2.6,20.8
	c-0.7,2.6-1.8,5.2-2.8,7.7c-0.6,1.5-1.4,3-2,4.5c-0.5,1.2-3.3,2-4.2,1.1C40.7,160.8,40.5,160,40.7,159.6z M34.3,187.3
	c-1.4,0-2.7-0.9-2.8-1.8c0-0.2,0-0.5,0.2-0.7c0.1-0.1,0.5,0,0.7,0.1c0.7,0.4,1.4,0.9,2.1,1.3c0.2,0.2,0.4,0.4,0.5,0.7
	C34.7,187.1,34.4,187.2,34.3,187.3z M38.5,179.8c-1.2-0.3-2.3-0.9-3.4-1.4c-0.9-0.4-1.8-0.7-2.7-0.4c-0.8,0.2-1-0.1-1-0.9
	c0-1.8,0.6-3.3,1.8-4.6c1.2-1.3,2.6-2.4,3.9-3.6c0.1-0.1,0.3-0.2,0.7-0.4c-0.7,1.4-1.3,2.5-1.8,3.7c-0.3,0.6-0.5,1.2-0.7,1.8
	c-0.4,1.2,0,2,1.3,2.3c0.3,0.1,0.6,0.1,0.9,0.1c2,0.4,3.9,0.8,5.9,1.1c2.1,0.4,4.2,0.9,6.3,1.2c2.5,0.3,4.9,0.3,7.4,0.5
	c1.8,0.1,3.1-0.6,3.7-2.4c0.6-1.8,1.1-3.7,1.6-5.5c0.2-1,0.6-1.4,1.7-1.5c3.9-0.4,7.8-0.9,11.6-2.2c1.2-0.4,2.3-1.1,3.5-1.5
	c0.4-0.1,1-0.2,1.2,0.1c2.1,2.1,4.2,4.2,6.3,6.4c0.9,1,1.3,2.2,0.9,3.6c-0.2,0.6-0.1,1.3-0.1,2c0,0.6-0.3,1-0.9,1.3
	c-2.3,0.9-4.5,1.8-7,1.9c-3.4,0.2-6.8,0.8-10.2,1c-3.4,0.2-6.8,0-10.2-0.1c-2.3,0-4.7-0.2-7-0.3C47.4,181.5,42.9,181,38.5,179.8z
	 M88.4,184.6c-0.3,0.9-0.6,2-1,2.8c-0.3,0.5-0.9,1-1.5,1.2c-1.6,0.4-3.2,0.8-4.9,0.1c-0.3-0.1-0.6-0.1-0.9-0.1
	c-4.2,0.5-8.4,1.1-12.5,1.4c-4.3,0.3-8.7,0.2-13.1,0.2c-1.8,0-3.6-0.3-5.4-0.4c-0.4,0-0.9-0.2-1.3-0.3c0-0.1,0-0.2,0-0.4
	c0.4-0.1,0.8-0.3,1.2-0.4c2.1-0.1,4.2-0.3,6.3-0.3c3.5-0.1,7.1,0.1,10.6-0.2c3.7-0.3,7.4-1.1,11.2-1.3c2.8-0.2,5.6-0.6,8.2-1.5
	C86.3,185.2,87.3,184.9,88.4,184.6C88.4,184.6,88.5,184.6,88.4,184.6z M90.6,186.7c0-0.9,0-1.8,0-2.7c0-0.7,0-1.3-0.4-1.9
	c-0.2-0.3-0.2-0.5-0.1-0.9c0.2-0.7,0.4-1.3,0.4-2c0-1.1-0.1-2.2-0.2-3.3c-0.2-2-0.7-3.9-2.2-5.4c-0.7-0.7-1.4-1.5-2.2-2.2
	c-1.5-1.3-3-2.5-4.5-3.7c-0.4-0.4-0.6-0.7-0.6-1.3c0-1.2-0.1-2.3-0.2-3.5c-0.1-0.9-0.3-1.7-0.8-2.5c-1.9-2.7-3.6-5.6-5.3-8.6
	c-1.3-2.2-2.2-4.6-2.6-7.2c-0.4-2.8-0.8-5.6-1.1-8.4c-0.3-2.9-0.5-5.9-0.7-8.9c-0.2-2.5-0.3-5.1-0.4-7.6c-0.1-3.7-0.2-7.4-0.3-11.2
	c0-0.3,0-0.5,0.1-0.9c0.6-0.2,1.2-0.4,1.9-0.6c1.8-0.6,3.5-1.4,4.9-2.6c0.8-0.6,1.4-1.4,1.7-2.5c0.2-1.2-0.1-2.1-1.5-2.4
	c-0.6-0.1-1.2-0.3-1.8-0.4c-1.3-0.4-2.4-1.1-3.1-2.3c0.1-0.2,0.2-0.3,0.2-0.4c0.1-0.2,0.2-0.3,0.2-0.5c0.2-0.5,0.1-0.9-0.3-1.2
	c-0.2-0.1-0.4-0.3-0.6-0.3c-0.9-0.1-1.2-0.7-1.4-1.5c0-0.3-0.1-0.5-0.2-0.8c-0.2-0.5-0.2-1,0.2-1.4c0.5-0.7,0.4-1-0.2-1.5
	c-0.4-0.2-0.5-0.5-0.4-0.9c0.1-0.9,0.1-1.8,0.3-2.6c0.6-3.6,1.9-6.9,3.7-10.1c0.1-0.2,0.2-0.4,0.2-0.5c-0.7,0.2-1.1,0.7-1.5,1.1
	c-0.5,0.5-0.8,0.5-1.1-0.1c-0.2-0.4-0.4-0.9-0.2-1.4c0.9-0.2,1.5-0.9,2.1-1.4c0.6-0.6,1.1-1.3,1.9-1.8c0.1,0.4,0.1,0.6,0.2,1
	c0.5-0.4,0.8-0.8,1.3-1.2c-0.4-0.2-0.7-0.4-1-0.4c-0.5-0.1-1.1,0-1.6,0.3c-0.4,0.2-0.8,0.5-1.4,0.4c0-0.4-0.1-0.8,0-1.2
	c0.1-0.5,0.4-0.9,0.6-1.4c0.2-0.3,0.4-0.7,0.1-1.2c-0.3,0.1-0.6,0.3-0.9,0.4c-0.7,0.3-1.4,0.7-2.2,0.9c-1.1,0.4-2.2-0.1-2.2-1.6
	c0-0.4,0-0.7-0.1-1.1c-0.2-0.8-0.7-1-1.4-0.5c-0.4,0.3-0.7,0.6-1,1c-0.5,0.5-1,0.9-1.7,0.6c-0.2-0.1-0.5-0.1-0.7-0.1
	c-0.1-0.2-0.2-0.4-0.2-0.5c0-0.3,0.2-0.6,0.3-0.9c0.3-1.5-0.5-3.1-1.9-3.6c-1.4-0.5-3.1-0.1-3.8,1.6c0.1-0.1,0.3-0.1,0.4-0.2
	c0,0.9,0,1.8,0,2.7c0,0.3-0.2,0.2-0.4,0.1c0,0.2,0,0.4,0,0.6c-0.1,0.1-0.2,0.1-0.3,0.2c-1.3,0.3-2.5,0.7-3.6,1.3
	c-0.3,0.1-0.7,0.1-1,0c-0.5-0.2-0.9-0.4-1.4-0.7c-0.4-0.2-0.8-0.5-1.3-0.7c-1-0.4-1.8,0-1.8,1.1c0,0.5,0,0.9,0,1.4
	c0,1.4-0.3,1.7-1.6,1.2c-0.5-0.2-1-0.5-1.6-0.7c-0.6-0.3-1-0.1-1.2,0.5c-0.1,0.3-0.1,0.7,0.3,0.9c0.1,0,0.3-0.1,0.4-0.1
	c0.6-0.1,0.9,0,0.9,0.7c0,0.5,0.2,0.9,0.5,1.2c0.4,0.5,0.9,1,1.4,1.5c0.8,0.8,1.6,1.4,2.9,0.8c-0.2,0.5-0.6,0.8-1,0.8
	c-0.6,0.1-0.7,0.4-0.7,0.9c0,0.5,0,1,0,1.6c-0.1,1.1,0.2,2.2,0.5,3.3c0.5,1.9,0.9,3.9,1.3,5.9c0.1,0.4,0.1,0.8-0.3,1.1
	C48.6,87,48.5,87.4,49,88c0.4,0.5,0.4,1,0.3,1.5c-0.1,0.3-0.2,0.7-0.3,1.1c-0.1,0.5-0.3,0.8-0.9,0.9c-1.2,0.4-1.4,1-0.9,2.2
	c0.2,0.3,0.1,0.6-0.1,0.8c-0.5,0.4-0.9,0.9-1.4,1.1c-0.9,0.4-1.8,0.7-2.7,1.1c-0.6,0.2-1.2,0.5-1.7,0.8c-0.4,0.2-0.6,0.6-0.5,1.1
	c0.1,0.8,0.3,1.5,0.8,2.1c0.7,0.9,1.6,1.6,2.7,2c1.6,0.7,3.2,1.2,4.8,1.8c0.3,0.1,0.5,0.2,0.9,0.3c0,0.4,0,0.8,0,1.1
	c0,8.1-0.1,16.1-0.8,24.2c-0.3,3.1-0.6,6.3-0.9,9.4c-0.5,4-1.9,7.7-4.1,11.2c-1.3,2.1-2.6,4.2-3.8,6.3c-0.9,1.4-1.3,3-1.3,4.6
	c0,0.6,0,1.2,0,1.7c0.1,0.9-0.2,1.6-0.9,2.2c-1.8,1.5-3.6,3.1-5.4,4.7c-1.3,1.1-2.2,2.3-2.7,4c-0.7,2.1-0.5,4.3-0.2,6.4
	c0.1,0.7,0.3,1.3-0.1,2c-0.1,0.2-0.1,0.5-0.1,0.7c0,1.2,0,2.4,0,3.6c0,0.6,0.2,1.2,0.6,1.5c0.8,0.6,1.6,1.2,2.5,1.7
	c2,1.1,4.2,1.7,6.3,2.4c5.1,1.5,10.3,2.1,15.5,2.3c4,0.2,7.9,0.2,11.9-0.1c3.8-0.3,7.7-0.7,11.4-1.5c3.1-0.7,6-1.5,8.8-3
	c1.2-0.7,2.2-1.5,3.4-2.2C90.4,187.8,90.6,187.3,90.6,186.7z"/>
<g>
	<path d="M200.6,157.8c1.3-1.2,2.6-2,3.2-3.2c0.7-1.3,1.7-2.2,2.6-3.3c0.1-0.2,0.4-0.3,0.6-0.4c0.1,0.2,0.3,0.3,0.3,0.5
		c0,3,0,5.9-0.1,9c-1-1.1-2.1-1.1-3.2-0.6c0.1,0.7,0.2,1.4,0.3,2.1c-0.6,0-1,0-1.9,0c0.4-0.7,0.7-1.1,0.8-1.5
		c0.1-0.5,0.2-1.2,0.1-1.7c-0.1-0.3-0.6-0.5-1-0.6C201.9,157.9,201.4,157.9,200.6,157.8z"/>
	<path d="M200.9,183.4c-0.2-1.9-0.5-3.8-0.7-5.8c-0.1-0.9,0-1.9,0-2.8c-0.1,0-0.3,0-0.4,0c-0.6,1.2-1.3,2.4-1.9,3.6
		c-0.7,1.4-1.3,2.7-2,4.1C197.6,182.7,199.2,183,200.9,183.4z"/>
	<path d="M208.9,147.7c0.2-1-0.3-1.8-1.1-2.2c-0.7-0.4-0.7-0.5,0-1c1.5-1.3,2.8-2.7,4.1-4.1c0.7-0.8,1.2-1.7,1.9-2.6
		c0.1-0.2,0.4-0.2,0.7-0.3l0,0c-0.2,2-0.7,3.9-1.4,5.8c-0.3,0.7-0.2,1.6-0.2,2.3c0,0.6-0.1,1.3-0.1,2.2
		C211.3,147.2,210.1,146.9,208.9,147.7L208.9,147.7z"/>
	<path d="M203.2,162.6c0.1,0.8,0.2,1.3,0.2,1.9c0,2,0,4,0,6c0,0.7,0.3,1.4,0.5,2.3c-0.2,0-0.9,0.2-1,0c-0.8-1.2-1.5-0.6-2.1,0.2
		c-0.5-0.6-1-1.2-1.5-1.8c-0.1,0.1-0.1,0.3-0.2,0.4c-0.6,0.2-1.2,0.4-2,0.6C199.2,168.9,201.1,165.9,203.2,162.6z"/>
	<path d="M218.4,140.9c-0.1,0.8-0.3,1.8-0.5,2.7c-0.6-0.3-1.3-0.5-1.9-0.8C217.2,142.5,216.1,140.1,218.4,140.9z"/>
	<path d="M210,136.7c0.8-0.1,1.4,0.2,1.1,1.1c-0.2,0.5-0.8,1.1-1.3,1.2c-0.8,0.2-1-0.5-1-1.2C208.8,136.9,209.2,136.6,210,136.7z"/>
	<path d="M212.2,152.6c-0.2,0.7-0.4,1.4-0.6,2.1c-0.7-0.2-1.3-0.5-1.9-0.7C209.9,152.4,210.8,152.3,212.2,152.6z"/>
	<path d="M203.2,151.8c-1.3-0.6-1.8-1.2-1.2-2.6c0.6,0.2,1.3,0.3,1.9,0.5C203.7,150.4,203.5,151,203.2,151.8z"/>
	<path d="M214.4,137.5c0-0.7,0-1.4,0-2.1c1.3-0.8,1.6,0.4,2.2,0.9C216.1,137.2,215.4,137.7,214.4,137.5L214.4,137.5z"/>
	<path d="M200.4,163.1c-1,0.6-1.6,1-2.6,1.6c0-1.2,0-1.9,0-3.1C198.8,162.1,199.4,162.5,200.4,163.1z"/>
	<path d="M196.2,175c0,1.1,0,1.8,0,3c-0.8-0.4-1.5-0.7-2.1-1.1c-0.1-0.1-0.2-0.6-0.1-0.7C194.6,175.9,195.3,175.5,196.2,175z"/>
	<path d="M208.8,147.7c0,0.3,0,0.6,0.2,0.8c0.2,0.4,0.5,0.8,0.8,1.3c-2,0.6-2.8,0.3-2.4-0.8C207.5,148.5,208.3,148.2,208.8,147.7
		L208.8,147.7z"/>
	<path d="M207.6,165.9c-0.3,0.4-0.6,0.8-1,1.3c-0.2-0.3-0.5-0.9-0.8-1.5c-0.1-0.1,0.4-0.7,0.5-0.6c0.6,0.2,1.2,0.5,1.8,0.8
		C207.9,165.9,207.7,165.9,207.6,165.9z"/>
	<path d="M203.7,179.5c-0.7-0.4-1.4-0.8-2.3-1.3c0.8-0.5,1.5-1.3,1.7-1.2C203.7,177.5,204.5,178,203.7,179.5z"/>
	<path d="M147.3,134.3c1,0.8,1.9,1.7,2.9,2.4c1,0.7,2.1,1.1,3.1,1.7c0.1,0.1,0.1,0.2,0.2,0.3c-1.4,0.9-1.4,0.9-1.6,2.6
		c-1.2,0.2-2.3,0.4-3.7,0.6C146.9,139.7,147.4,137,147.3,134.3L147.3,134.3z"/>
	<path d="M157.6,154c-0.7-0.3-1.3-0.6-2.1-0.9c-0.3,0.8-0.4,1.3-0.6,1.8c-0.1,0-0.3,0-0.4-0.1c0.3-2.9-1.6-5.6-0.6-8.6
		c2,1.8,3.9,3.5,5.8,5.2C158.5,151.7,157.3,152.3,157.6,154L157.6,154z"/>
	<path d="M148.6,148.8c0.4-0.9,0.1-2,1.2-1.8c0.5,0.1,1.3,1,1.3,1.5c0,0.5-0.9,1-1.4,1.5C149.4,149.6,149,149.2,148.6,148.8z"/>
	<path d="M159.1,143.9c0,0.8,0,1.4,0,2.2c-0.8,0-1.4,0-2.2,0c0-0.7,0-1.4,0-2.2C157.6,143.9,158.3,143.9,159.1,143.9z"/>
	<path d="M157.6,154.1c0.6,0.2,1.2,0.3,1.7,0.5c0.7,0.4,1.1,1.1,0.3,1.6c-0.6,0.4-1.6,0.8-2.1-0.4c-0.1-0.2-0.5-0.2-0.5-0.2
		C157.3,154.8,157.4,154.4,157.6,154.1L157.6,154.1z"/>
	<path d="M141.8,137.8c0.8-0.3,1.2-2,2.4-0.7c0.4,0.4,1.3,0.9,0.4,1.7C143.9,139.4,143,139.1,141.8,137.8z"/>
	<path d="M153.8,144.7c-1,0-1.6-0.1-2.8-0.1c0.5-0.9,0.7-1.6,1.2-2.1c0.2-0.2,1.1-0.2,1.2,0C153.6,143,153.6,143.7,153.8,144.7z"/>
	<path d="M147.4,134.3c-1.9,0.1-2.3-0.3-2.4-2.3c0,0,0,0,0,0c0.7,0,1.5,0,2.4,0C147.3,132.8,147.3,133.6,147.4,134.3L147.4,134.3z"
		/>
	<path d="M152.2,131.4c-0.2,0.7-0.4,1.4-0.7,2c0,0.1-0.9,0.1-1-0.1c-0.3-0.5-0.5-1.1-0.7-1.7c0.6-0.2,1.3-0.4,1.9-0.6
		C152,131.1,152.1,131.2,152.2,131.4z"/>
	<path d="M164.1,178.6c0.6,0,1.3,0,2.2,0c-0.2,0.8-0.3,1.5-0.5,2.1c-0.1,0.1-0.8,0.2-0.9,0.1c-0.5-0.5-0.8-1.2-1.2-1.8
		C163.9,178.8,164,178.7,164.1,178.6z"/>
	<path d="M164.6,156.8c-1.5,1.5-1.5,1.5-2.9-0.1C163.1,155.3,163.1,155.3,164.6,156.8z"/>
	<path d="M161,184.1c-0.6-1.3,0.1-1.9,0.7-2.3c0.1-0.1,0.8,0.3,1,0.6c0.2,0.3,0.3,1.1,0.2,1.1C162.3,183.8,161.6,184,161,184.1z"/>
	<path d="M156.2,159.2c-0.9,0.6-1.6,1-2.5,1.6c0-1.2,0-1.9,0-2.6c0.1-0.1,0.2-0.2,0.3-0.3C154.7,158.2,155.3,158.6,156.2,159.2z"/>
	<path d="M170.1,181.8c0,0.7,0,1.4,0,2.1c-0.5,0-0.9,0.1-1.3,0.1C168.3,182.1,168.5,181.7,170.1,181.8z"/>
	<path d="M167.7,169.8c-0.5,0-0.9,0-1.4,0c0-0.7,0-1.4,0-2.1C167.9,167.3,168,167.6,167.7,169.8z"/>
	<path d="M194.6,99.7c0.3,0.7,0.6,1.3,0.9,2c-0.1,0.1-0.3,0.3-0.4,0.4c-0.5-0.2-1-0.3-1.5-0.6c-1.3-0.8-2,0.3-3,0.7
		c-0.2,0.1-0.3,0.4-0.4,0.4c-1.9,0.3-3.7,1.4-5.7,0.9c-0.6-0.1-1.1-0.5-1.8-0.8c0,0.6,0,1.1,0,1.6l0,0c-0.3-0.1-0.7,0-0.8-0.2
		c-0.7-1.2-1.7-1.5-3.2-1.4c0.2-1.4-0.2-2.5-1.4-3.3c-0.2-0.2-0.2-0.8-0.2-1.1c1.1-0.4,2.2-0.8,3.2-1.1c0.1,0.5,0.1,1,0.2,1.5
		c1.5-0.9,2.8-1.8,4.5-1.6c0.6,0.1,1.2,0.1,1.8,0c1.8-0.1,3.3,0.5,4.8,1.4C192.6,99.2,193.6,99.3,194.6,99.7z M184,99.7
		c-0.7,1.2-0.3,2.3,0.6,2.8c0.7,0.4,2.1,0.4,2.5-0.1c0.5-0.6,1.7-1.5,0.8-3c-0.6,1-1,1.7-1.5,2.5C184.8,102.2,184.5,101,184,99.7z"
		/>
	<path d="M178.3,95.8c-0.2-1.2,0.8-2.9,1.7-3.3c2.5-1.2,5.2-1,7.8-0.7c2.2,0.3,4.2,1.6,6.3,2.1c1.8,0.4,1.3,1.3,1.2,2.5
		C189.7,93.5,184.1,93,178.3,95.8z"/>
	<path d="M168.7,119.3c-0.1-1.6,0.4-2.3,1.8-2.3c3.1,0,6.1,0.1,9.2,0.1c0.7,0,1.4-0.1,2-0.1c0.4,1.1,0.7,2.1,1.2,3.4
		c-0.8-0.3-1.3-0.7-1.8-0.7c-1.4-0.1-2.9-0.1-4.3,0c-1,0-2.1,0.7-2.8,0.3c-1.5-0.8-2.9-0.5-4.4-0.6
		C169.2,119.4,169,119.3,168.7,119.3z"/>
	<path d="M171.8,113c1.4-0.3,0.4-1.5,1-2.3c1.3-0.3,2.7-0.4,3.8,0.9c0.5,0.6,1.3,0.9,2,1.2c0.2,0.1,0.9-0.3,0.9-0.6
		c0.2-0.9,0.7-1.9-0.6-2.6c-0.4-0.2-0.6-0.7-0.9-1.1c1.3-0.6,2.1,0.3,2.3,0.9c0.2,0.8,1.4,1.4,0.3,2.7c-0.9,1.1-2.6,2.2-4,1.4
		c-0.6-0.4-1.4-0.5-2.1-0.6c-0.4,0-0.8,0.4-1.2,0.5c-0.4,0.1-0.8,0.3-1.2,0.2C172,113.8,171.9,113.3,171.8,113L171.8,113z"/>
	<path d="M190.7,96.5c-1.2-0.2-2.6,0.3-3.6-0.8c-0.1-0.1-0.3-0.1-0.5-0.1c-1.6,0.4-3.2,0.9-4.8,1.3c-0.5,0.1-0.9,0.2-1.4,0.2
		c0.4-0.5,0.7-1.4,1.1-1.5c1.9-0.4,3.8-1.4,5.9-0.8c1,0.3,2,0.5,2.9,0.8C190.5,95.9,190.6,96.3,190.7,96.5z"/>
	<path d="M179,121.4c-0.6,0.4-1.2,1-1.8,1.1c-1.3,0.2-2.6,0.2-3.9,0c-0.8-0.1-1.6-0.6-2.4-0.9c0-0.2,0.1-0.4,0.1-0.7
		c2.6,1,5.2,1.3,7.8-0.2C178.9,120.9,178.9,121.1,179,121.4z"/>
	<path d="M201.8,114.6c-0.2-0.1-0.6-0.2-0.7-0.3c-0.8-1.5-1.6-3-2.3-4.6c-0.1-0.3,0-0.8,0.1-1.2C200.4,110.3,202.1,112,201.8,114.6
		L201.8,114.6z"/>
	<path d="M193,133.5c0-1,0-2,0-3c-0.6-0.1-1-0.1-1.7-0.2c0.3-1.1,1.1-0.7,1.7-0.7c1,0.1,1.5,0.9,1.6,1.8
		C194.8,132.5,194.3,133.4,193,133.5L193,133.5z"/>
	<path d="M171.8,113c-1,0.3-1.8-0.2-2.1-0.9c-0.2-0.4,0.2-1.2,0.3-1.8c0.1-0.4,0.1-0.8,0.2-1.1c0.2-0.3,0.5-0.6,0.8-0.9l0,0
		c0,0.4,0,0.8,0,1.2C170.9,110.7,170.7,112,171.8,113L171.8,113z"/>
	<path d="M182.8,104.4c0.1,0,0.3-0.1,0.4,0c1.2,0.9,2.4,1.8,3.6,2.8c-1.2,0.6-1.2,0.6-4.5-2.3C182.5,104.7,182.7,104.5,182.8,104.4
		L182.8,104.4z"/>
	<path d="M172.6,129.6c0-1.5,0-3,0-4.4c0.2,0,0.5,0,0.7,0c0,1.4,0,2.8,0,4.3C173.3,129.5,172.8,129.5,172.6,129.6L172.6,129.6z"/>
	<path d="M181.7,130.4c-1.4-1.3-1.7-2.2-0.7-3.1c0.4,1,0.8,2,1.2,3C182,130.3,181.9,130.3,181.7,130.4z"/>
	<path d="M170,125.9c0,1.2,0,2.4,0,3.6c-0.2,0-0.3,0-0.5,0c-0.3-1.2-0.1-2.4,0.1-3.6C169.7,125.9,169.9,125.9,170,125.9z"/>
	<path d="M188.4,125.6c-0.3-0.1-0.6-0.2-0.8-0.4c-0.2-0.2-0.1-0.5-0.2-0.7c-0.1-0.4-0.3-0.8-0.5-1.2c0.4,0.3,0.9,0.5,1.2,0.9
		C188.3,124.6,188.3,125.2,188.4,125.6L188.4,125.6z"/>
	<path d="M152.9,172.4c1.1,0,2.2,0,3.3,0C155.8,173.1,154.5,173.3,152.9,172.4z"/>
	<path d="M200.9,99.6c0.1-0.2,0.3-0.3,0.5-0.6c0.4,1.3,0.7,2.5,1.1,3.7c0.2,0.7,0.5,1.3,0.8,1.9c0.7,1.5,1.5,3,2.2,4.5
		c0.7,1.5,1.2,3.1,1.8,4.7c0.3,0.7,0.4,1.5,0.8,2.1c1.2,1.6,0.6,3.4,0.8,5.2c0.1,0.4,0.4,0.8,0.5,1.2c0.1,0.2,0.1,0.4,0,0.6
		c-0.5,1.5-0.9,3.1-1.5,4.5c-0.3,0.6-1,1-1.5,1.4c0.4-1.1,0.8-2.2,1.2-3.3c0.1-0.3,0.4-0.6,0.4-0.9c0-2,0.2-4-0.1-6
		c-0.1-1.2-0.8-2.3-1.3-3.4c-0.3-0.9-0.6-1.8-1-2.7c-0.4-0.9-0.9-1.8-1.4-2.7c-0.3-0.7-0.7-1.4-0.9-2.1c-0.6-1.8-1-3.6-1.8-5.3
		C201.1,101.4,200.9,100.6,200.9,99.6z"/>
	<path d="M199.4,94.1c0.2,0.1,0.6,0.1,0.6,0.3c0.3,1.8,0.6,3.5,1,5.3c-0.2-0.1-0.7-0.2-0.7-0.4C199.9,97.5,199.7,95.8,199.4,94.1z"
		/>
	<path d="M199.4,127.2c-1-0.2-1.1-0.9-0.1-2.3C199.3,125.7,199.3,126.5,199.4,127.2L199.4,127.2z"/>
	<path d="M208,103.6c0.3,0.1,0.7,0.2,0.7,0.3c0.6,1.5,1.1,3.1,1.8,4.6c0.9,1.9,2,3.6,2.8,5.5c0.3,0.6,0.2,1.4,0.2,2.2
		c-0.2-0.1-0.6-0.1-0.7-0.3c-1.1-2.1-2.4-4.1-3-6.4C209.3,107.5,207.6,105.8,208,103.6z"/>
	<path d="M205.7,97.2c0.3,0.1,0.6,0.2,0.7,0.5c0.3,0.4,0.5,0.9,0.7,1.4c0.4,1.5,0.7,3,1,4.5c-0.2,0-0.6,0-0.7-0.1
		c-0.3-0.9-0.7-1.9-0.9-2.9C206.2,99.5,205.9,98.4,205.7,97.2z"/>
	<path d="M204.1,92.5c0.2,0.1,0.6,0.2,0.6,0.4c0.4,1.5,0.6,2.9,1,4.4c-0.2-0.1-0.7-0.2-0.7-0.4C204.7,95.5,204.4,94,204.1,92.5z"/>
	<path d="M212.1,106.7c-0.3-0.1-0.8-0.1-0.9-0.3c-0.9-2.1-1.5-4.3-2.6-6.3c-0.5-1-0.8-1.8-0.7-2.9c0.2,0.1,0.6,0.1,0.7,0.2
		c0.4,1,0.6,2,0.9,3c0.3,0.8,0.5,1.6,0.9,2.2C211.5,103.9,212.1,105.2,212.1,106.7z"/>
	<path d="M169.4,97.3c-2.1,0-4.2,0-6.3,0c0.3-0.3,0.5-0.7,0.8-0.8c1.6-0.1,3.2-0.1,4.8,0C169,96.5,169.2,97,169.4,97.3z"/>
	<g>
		<path d="M257.1,127.4c-1.1-1.7-2.1-3.5-3.1-5.3c-0.4-0.8-0.6-1.7-1-2.6c-0.5-1.2-1.1-2.4-1.4-3.7c-0.2-0.7-0.1-1.7,0.3-2.3
			c1.4-2.2,1.2-4.1-0.2-6.3c-0.8-1.3-0.8-3.1-1-4.8c-0.1-0.4,0.4-1,0.7-1.4c0.8-1,0.7-2.2,0.9-3.4c0.1-0.3,1-0.6,1.5-0.6
			c1.9,0.2,3.6-0.3,5-1.6c1.4-1.2,1.4-4,0.7-5.7c-1.1-2.6-3.1-3-5.5-3c-0.3,0-0.8-0.3-1-0.5c-0.6-0.6-1.2-1.3-2.2-1.1
			c-0.3,0-0.6-0.2-0.9-0.4c-1.3-1.3-2.9-1.7-4.7-1.9c-1.7-0.2-3.3-1-5-0.7c-0.6,0.1-1.2,0.3-2.2,0.5c-0.5-0.3-0.8-1-0.7-1.9
			c0.1-1.3-1-2.9-2-3.3c-1.3-0.4-3.5,0.1-4.4,1c-1,1-1.7,2.1-1.7,3.7c0,0.7-0.5,1.5-0.9,2.4h-10.7l-0.2-0.3c0.8-0.8,1.6-1.5,2.3-2.3
			c1.1-1.3,2.2-2.6,3.3-3.9c2.5-2.9,5-5.7,7.5-8.6c0.9-1.1,1.7-2.3,2.8-3.2c0.2-0.2,0.5-0.4,0.7-0.6c0.4-0.9,0.9-1.7,1.4-2.5
			c-0.4,0-0.8,0-1.2,0c-25.6,0-51.2,0.1-76.8,0.2c-0.9,0-1.8,0.3-2.8,0.5c-0.3,0-0.7,0-1-0.1c-0.8,0-1.7-0.1-2.5-0.1
			c-0.6,0-1.1,0.3-1.7,0.3c-2.7,0-5.3,0-8,0c0.4,0.6,0.7,1.2,1,1.9c0,0,0,0,0,0.1c0.7,0.4,1.1,1.1,1.5,1.6c1.5,1.9,2.8,4,4.2,6
			c0.9,1.3,1.9,2.7,2.9,4c1.2,1.6,2.6,3.3,3.8,4.9c0.9,1.3,1.8,2.7,2.7,4c0.5,0.8,1,1.8,1.6,2.5c0.9,0.9,0.6,2,0.7,3.1
			c0.1,1.1,0.2,2.2,0,3.3c-0.3,1.8-0.9,3.5-1.4,5.3c-0.1,0.2-0.1,0.4-0.1,0.6c0,0.2-0.1,0.4-0.2,0.6c-0.1,0-1.7-0.2-1.7-0.2
			c-0.7,0.2-1.5,0.2-2,0.5c-0.6,0.4-1.1,1-1.5,1.6c-0.6,0.9,0.3,3.3,1.6,4.5c1.2,1.1,3.5,1.1,5.1,0c0.2,1.2,0.5,2.2-0.2,3.2
			c-0.2,0.3-0.2,0.8-0.4,1.2c-0.4,0.9-0.9,1.8-1.3,2.7c-0.6,1.5-1.4,0.4-1.7,0c-1.3-1.4-3.7-1.2-4.9,0.4c-1.2,1.5-0.9,3-0.2,4.5
			c0.5,1,0.2,3.6-0.5,4.2c-0.1,0.1-0.3,0.2-0.4,0.3c-1.3,0.3-2.6,0.5-3.8,0.9c-1.6,0.6-3.1,1.4-4.7,2c-1,0.4-2,0.7-3,1.1
			c-0.8,0.3-1.5,0.6-2.3,0.9c-0.1,0-0.1,0.4-0.1,0.6c-1.1,0.3-2.3,0.6-3.3,1c-1.9,0.9-3.8,2-5.7,3c-1.5,0.8-2.9,1.6-4.3,2.5
			c-1.2,0.7-2.4,1.5-3.6,2.3c-1.5,1.1-3,2.3-4.5,3.4c-1.4,1-2.8,1.8-4.1,2.8c-1.1,0.8-2,1.8-3,2.6c-0.6,0.5-1.1,1-1.7,1.5
			c-0.3,0.9-0.6,1.8-0.9,2.7c0.2-0.2,0.3-0.3,0.5-0.5c0.6-0.6,1.3-1.1,2-1.7c1-0.8,2-1.6,3-2.4c0.8-0.7,1.6-1.5,2.5-2.2
			c1.8-1.3,3.5-2.7,5.4-3.9c1.8-1.2,3.6-2.2,5.5-3.3c0.9-0.6,1.8-1.2,2.7-1.7c1.3-0.8,2.6-1.5,3.8-2.2c0.2-0.1,0.3-0.4,0.6-0.7
			c0.6,0.7,1.3,1.3,2,2.1c-1.7,0.8-3.4,1.6-5,2.5c-1.6,0.9-3.1,2.1-4.6,3c-0.3,0.2-0.8,0.1-1.1,0.3c-0.4,0.2-0.8,0.5-1.1,0.8
			c-0.2,0.2-0.3,0.4-0.5,0.6c-1.7,1.2-3.4,2.4-5.1,3.6c-0.4,0.3-1,0.4-1.6,0.7c0,0.3,0,0.7-0.1,0.8c-3.7,2.4-6.7,5.3-9.9,8.4
			c-0.2,1.4-0.4,2.7-0.6,4.1c0.2-0.1,0.7-0.1,1-0.1c0,0.1,0.1,0.2,0.1,0.3c-0.4,0.3-0.7,0.6-1.2,1c-0.1,1.3-0.1,2.6-0.2,3.9
			c0.1-0.2,0.2-0.4,0.5-0.6c2.3-2.1,4.3-4.4,6.6-6.5c1.4-1.3,3-2.5,4.5-3.7c1.5-1.2,2.9-2.6,4.4-3.8c1.5-1.2,3.2-2.2,4.8-3.3
			c1.3-0.8,2.5-1.6,3.9-2.4c1.5-0.9,3.1-1.6,4.7-2.5c0.7-0.4,1.4-0.8,2.1-1.3c1.8-1.4,2-1.4,4,0.3c-1.3,0.6-2.5,1.1-3.6,1.7
			c-1.3,0.7-2.5,1.5-3.8,2.2c-0.8,0.4-1.7,0.7-2.5,1.2c-1.3,0.7-2.5,1.6-3.7,2.4c-0.6,0.4-1.2,1.1-1.8,1.2c-1.5,0.1-2,1.4-2.9,2.2
			c-1.1,0.9-2.3,1.8-3.4,2.7c-1.7,1.4-3.4,2.7-5.1,4.1c-1.5,1.3-3.1,2.6-4.6,3.9c-1.3,1.2-2.6,2.4-4,3.7c0,2.3,0.1,4.6,0.3,6.8
			c0.1,2,0.4,4,1.2,5.8c1.7-1.5,3.3-3,5-4.5c0.6-0.5,1.2-1.1,1.8-1.6c2.1-1.7,4.4-2.9,6.9-4c1.4-0.6,2.6-1.7,4-2
			c1.4-0.3,2.7-1.7,4.6-0.7c-1.6,0.7-2.9,1.3-4.2,1.9c-1.5,0.7-2.9,1.5-4.3,2.3c-1.9,1.1-3.9,2.1-5.7,3.3c-1.8,1.3-3.5,3-5.2,4.4
			c-0.7,0.6-1.5,1.2-2.3,1.8c0.3,0.6,0.8,1.1,1.2,1.6c4.5-4.4,9.4-8.1,15.4-10.6v1.2c-1.4,0.9-2.7,1.7-3.9,2.5
			c-1,0.6-2.1,1.1-3.1,1.8c-2.6,1.8-5.1,3.8-7.2,6.1c0.2,0.2,0.5,0.3,0.7,0.5c0.3,0.2,0.6,0.3,0.9,0.5c1.7-1.5,3.5-2.9,5.2-4.4
			c1.9-1.7,4.1-2.9,6.4-4c2-1,2-1,3.8-0.6c-1.8,1.2-3.5,2.5-5.4,3.5c-3,1.5-5.4,3.8-7.8,6.1c-0.1,0.1-0.2,0.1-0.2,0.2
			c2,0.7,4,1,6,1.4c4.8,0.8,8.8,0.9,13.5-0.8c3.9-1.4,7.7-3.2,11.9-3.5c3.3-0.2,7.4,0.3,10.4,2.2c0.8-0.4,1.6-0.7,2.5-0.6
			c0.5,0,1-0.4,1.5-0.7c0.2,0,0.3,0.1,0.5,0.1c-0.3,0.8-0.5,1.7-0.8,2.5c0,0.1-0.2,0.3-0.3,0.3c-0.4,0.1-0.8,0.2-1.1,0.3
			c0.1,0.1,0.2,0.3,0.3,0.4c0.4,0.1,0.9,0.1,1.3,0.2h2.6c-0.3-1.4-0.9-2.8-1.2-4.3c-0.2-1.3-0.9-2.7,0.5-3.8
			c0.1-0.1,0.1-0.4,0.1-0.6c0.2,0.2,0.3,0.3,0.5,0.5c1-3.5,3.3-2,5-1.5c0.9-0.6,1.5-0.9,2-1.5c0.2-0.3,0.3-1.2,0.1-1.4
			c-1.1-0.9-1.3-2.1-1.3-3.4c0-0.6,0.3-1.3-0.6-1.6c-0.2,0-0.2-0.8-0.2-1.2c0.1-1.1-0.5-1.6-1.5-1.8c0-0.6-0.3-0.8-0.9-0.8
			c-0.7,0-1.5-0.1-2.3-0.1v-1.5c0.7,0.3,1.3,0.6,1.9,0.9c0.4-0.7,0.5-1.4,0.9-1.6c0.4-0.3,1.1-0.1,1.8-0.2c-1.8-2.2-3.4-4.2-5.1-6.3
			c-0.1,0-0.3,0.1-0.4,0.1c0,1.1,0,2.3,0,3.4c0,0.9-0.3,1.5-1.3,1.3c-1.8-0.3-3.6-0.4-5.3-0.9c-0.6-0.2-0.9-1.5-1.3-2.2
			c-0.7-1.3-1.3-2.7-2-4c-0.3-0.6-0.7-1.3-1.1-1.9c-0.8-1.2-1.5-2.5-2.3-3.7c-0.8-1.4-1.6-2.8-2.5-4c-1.1-1.6-2.4-3-3.6-4.5
			c-1.6-2-3.3-3.9-5-5.8c-0.3-0.4-0.8-0.7-1.1-1.1c-0.2-0.3-0.5-0.7-0.4-1c0-0.2,0.5-0.4,0.8-0.6c0.7-0.3,1.5-0.6,2.2-0.9
			c0.1-0.1,0-0.4,0-0.7c0.6,0.9,1.3,0,1.8-0.1c0.9-0.2,1.7-0.8,2.5-1.2c1.6,0.8,1.1,2.4,1.3,4.1c0.9-1.3,1.9-1.5,3-1.2
			c-0.1-1,0.5-1.7,1.2-2.2c0.6-0.4,0.7-0.6,0-0.9c-0.4-0.2-0.7-0.5-1-0.9c-0.1-0.1,0-0.6,0.1-0.6c0.9-0.3,1.7-0.6,2.6-0.9
			c1-0.3,2-0.5,3-0.8c1-0.3,1.5,0.5,1.9,1.1c1.2,1.8,2.3,3.6,3.2,5.5c0.7,1.4,1.3,2.8,2.3,4c0.5,0.7,0.6,1.7,1,2.5
			c0.7,1.5,1.5,2.9,2.2,4.3c0.4,0.9,0.6,1.8,1,2.7c0.4,1,0.8,1.9,1.2,2.8c0.4,0.8,0.7,1.7,1,2.5c0.4,1.1,0.6,2.2,0.9,3.3
			c0.3,1,0.8,2.1,1.2,3.1c0.1,0.2,0.2,0.4,0.3,0.6c0.3,1.5,0.5,3,0.9,4.5c0.3,1.2,0.9,2.4,1.3,3.6c0,0.1,0,0.2,0.1,0.3
			c0.3,1.7,0.6,3.4,0.9,5.1c0.3,2.3,0.3,4.8,1,7c0.6,1.7,0.3,3.4,0.6,5.1c0.2,1.2,0.4,2.4,0.5,3.6h0.6c0.9-0.5,1.8-1.1,2.7-1.6
			c5.1-2.8,10.3-3.8,16-3.6c0.2-2.1,0.9-4.1,1.3-6.2c0-0.1,0-0.3,0.1-0.4c0.3-2.1,0.5-4.3,0.9-6.3c0.3-1.5,0.9-2.8,1.4-4.3
			c0.1-0.2,0.1-0.4,0.1-0.6c0.1-1.7,0.7-3.3,1.5-4.9c0.5-1,0.6-2.1,0.9-3.1c0.4-1.1,0.9-2.1,1.4-3.1c0.1-0.2,0.1-0.5,0.2-0.8
			c0.3-1.3,0.4-2.7,0.9-4c0.5-1.4,1.4-2.6,2.1-4c0.6-1.3,1.1-2.7,1.8-4c0.9-1.7,1.8-3.3,2.8-5c0.6-1.1,1.2-2.3,1.9-3.4
			c0.2-0.4,0.7-0.8,1.1-0.8c1.1-0.1,2.3-0.1,3.4,0c0.3,0,1,0.3,0.9,0.4c0,0.4-0.3,0.8-0.4,1.2c-0.1,0.1-0.2,0.3-0.4,0.4
			c1.6,0.5,3,0.9,4.7,1.4c0.2,0.4,0.1,1.7,1.4,1.2c0.4-1.2,0.7-2.5,1.1-3.6c0.1-0.4,0.5-0.9,0.8-0.9c3.3-0.1,6.7,0,10,0
			c0,0.1,0.1,0.2,0.1,0.4c-1.1,1.2-2.2,2.4-3.3,3.6c-1.4,1.6-2.9,3.2-4.3,4.9c-1.6,2-3.2,4.1-4.7,6.3c-1,1.5-1.8,3.2-2.7,4.8
			c-0.9,1.6-1.8,3.1-2.7,4.6c-0.4,0.6-0.7,1.2-1,1.8c-0.9,2.3-1.7,4.6-2.5,6.9c-0.3,0.8-0.4,1.8-0.8,2.5c-1,1.4-1,3-1.5,4.6
			c-0.4,1.4-0.9,2.8-1.4,4.2c0,0.1-0.1,0.2-0.1,0.3c-0.3,1.4-0.7,2.7-0.8,4.1c-0.1,1.4-0.3,2.9-0.4,4.3c0.8,0.2,1.7,0.3,2.5,0.5
			c0.5-0.5,1-0.9,1.5-1.4c-0.3,0.5-0.6,1-0.9,1.5c2.1,0.4,4.2,0.8,6.4,1.1c0.1,0,0.3,0,0.4,0c1.1,0.1,2.2,0.3,3.4,0.4
			c0.7-0.9,1.4-1.9,2.1-2.9c0.1-0.2,0.5-0.2,0.7-0.3c-0.5,1.1-0.9,2.2-1.6,3.2c0,0,0,0.1-0.1,0.1c2.4,0.2,4.8,0.4,7.2,0.5
			c0.1-0.7,0.1-1.5,0-2.2c0.2-0.1,0.4-0.2,0.7-0.3c-0.1,0.9,0.1,1.7,0,2.6c2.5,0,5-0.1,7.5-0.4c0.9-0.7,1.6-1.4,2.1-2.3
			c1.8-3.3,2.3-7.1,3.5-10.7c1.4-4.5,2.8-9.7,5.5-13.8c-1.2-1.4-2.4-2.9-3.6-4.3c-0.5-0.5-1.3-0.8-2.1-1.2c1.1-0.7,2-0.2,2.8,0.5
			c1.2,1.2,2.5,2.5,3.7,3.7c0.7-0.9,1.5-1.8,2.3-2.5c1.6-1.4,3.3-2.7,4.7-4.1c-0.5-0.1-1-0.3-1.4-0.5c-0.8-0.3-1.4-0.9-2.1-1.3
			c-0.2-0.1-0.4-0.2-0.6-0.2c-1.4-0.2-2.5,0.7-3.6,1.4c-0.1,0.1-0.2,0.1-0.3,0.1c-2.1,0.3-4.2,0.7-6.3,0.8c-1.3,0.1-2.6,0.2-3.8-0.6
			c-0.8-0.5-1.1-0.8-0.9-1.6c0-0.2-0.1-0.4-0.1-0.7c2.4,1.5,5,0.7,7.5,0.7c1.3,0,2.5-0.8,3.7-1.3c0.7-0.3,1.3-0.6,2-1
			c0.4-0.2,0.7-0.5,1.1-0.6c0.4-0.1,0.9-0.2,1.2,0c1.6,1.1,3,2.2,5.1,2.3c0.3,0,0.6,0.1,0.9,0.2c1.4-1.8,2.5-3.8,2.9-6.5
			c0.7-4.8,0.3-10.1-1.4-14.7C257.6,128.2,257.3,127.8,257.1,127.4z M258,90.3c0.1,0,0.2,0,0.3,0v2.9c-0.1,0-0.2,0-0.3,0V90.3z
			 M254.9,87.7c0.5,1.5,0.8,2.6,1.2,3.6c-0.5,0.3-0.9,0.7-1.3,0.9c-0.2,0.1-0.8-0.1-0.8-0.2c0-0.7,0.1-1.5,0.2-2.4
			C252.9,88.9,254.7,88.6,254.9,87.7z M256,95.1c0,0.1,0,0.2,0,0.3h-2.8c0-0.1,0-0.2,0-0.3H256z M107.7,158.6h-1.3v-1.3
			C107.5,157.1,108,157.4,107.7,158.6z M110.9,155.7c-0.6-0.3-1-0.5-1.4-0.7c0.3-0.4,0.6-0.7,0.9-1.1c0.2,0.1,0.3,0.2,0.5,0.3V155.7
			z M114.8,152.4h-2c-0.2-0.9,0-1.3,1-1.4C114.7,150.9,115.1,151.2,114.8,152.4z M117.8,150c-0.5-0.4-0.8-0.7-1.5-1.3
			c0.9-0.3,1.9-1,2.2-0.7C119.6,149,118.1,149.3,117.8,150z M120.7,146.7c-0.3-1.3,0.4-1.4,1.5-1.2
			C121.9,146.9,121.9,146.9,120.7,146.7z M124.7,143.2c0.1-0.2,0.4-0.2,0.6-0.4c0.1-0.1,0.2-0.3,0.2-0.5c0.1,0,0.3,0,0.4,0.1
			c0,0.7,0.1,1.3,0.1,2C124.7,144.5,124.1,143.9,124.7,143.2z M128.8,142.3c-0.2-0.2-0.3-0.3-0.5-0.5c0.4-0.6,0.7-1.2,1.1-1.8
			c0.5,0.4,0.8,0.7,1.3,1.1C130.1,141.5,129.4,141.9,128.8,142.3z M105.4,171.3h-1.3V170C105.2,169.7,105.7,169.9,105.4,171.3z
			 M108.5,168c-1.1,0.3-1.4-0.1-1.2-1.2C108.4,166.5,108.8,166.8,108.5,168z M135.8,146.1c0.2,0.1,0.3,0.3,0.5,0.4
			c-0.3,0.6-0.7,1.3-1.1,2c-0.5-0.5-0.9-0.8-1.4-1.2C134.6,146.9,135.2,146.5,135.8,146.1z M130.9,149.3c0.1-0.1,0.4,0.3,0.9,0.7
			c-0.5,0.4-0.8,0.7-1.1,0.8c-0.2,0-0.5-0.4-0.7-0.6C130.3,149.8,130.6,149.5,130.9,149.3z M128.6,161.4c0.6,1.1,1,1.9,1.3,2.7
			c0.4,0.8,0.7,1.7,1,2.5c0.2,0.4,0.4,0.8,0.6,1.1c-0.4,0.1-0.8,0.3-1.3,0.4c-0.3,0.1-0.7,0-1,0c0.2-1.5,0.4-2.9-0.6-4.2
			C128.3,163.5,128.6,162.5,128.6,161.4z M123.1,153.9c0.2,0.2,0.4,0.4,0.6,0.6c-0.3,0.4-0.6,0.7-0.9,1.1c-0.2-0.2-0.5-0.4-0.7-0.7
			C122.5,154.6,122.8,154.2,123.1,153.9z M117.6,157.3c0.6,0,1.2-0.1,1.8,0.1c0.2,0.1,0.3,0.7,0.4,1.1c-0.1,0.1-0.3,0.3-0.4,0.4
			c-0.6-0.4-1.2-0.8-1.8-1.1C117.5,157.6,117.6,157.5,117.6,157.3z M114.4,159.8c0.1,0,0.3-0.1,0.4-0.1c0.4,0.6,0.7,1.2,1.3,2.1
			c-0.9,0.1-1.2,0.1-1.7,0.1V159.8z M111.2,164.8c-0.2-0.2-0.5-0.5-1-0.9c0.4-0.4,0.8-0.7,1.2-1.1c0.4,0.4,0.7,0.7,0.7,0.8
			C111.9,164,111.6,164.4,111.2,164.8z M117.5,168.2c-1.5,0.7-2.9,1.5-4.3,2.3c-0.4,0.2-0.7,0.5-1.2,0.9c0.3-2,5.4-5.4,7.7-5.4
			C119.5,167.1,118.8,167.6,117.5,168.2z M122.3,165.8c-0.6,0.3-1.2,0.4-1.9,0.6c-0.1-0.2-0.3-0.6-0.5-1.2c1,0,1.9-0.1,2.9-0.1
			C122.7,165.3,122.6,165.7,122.3,165.8z M122.9,165.1c0-0.1-0.1-0.3-0.1-0.3c0.5-0.6,2.9-1.2,3.8-1c0,0.1,0.1,0.2,0.1,0.4
			C125.4,164.4,124.2,164.8,122.9,165.1z M126.2,153.1c-0.4-1.2,0.1-1.5,1.2-1.3C127.7,152.8,127.5,153.3,126.2,153.1z M122.4,184.8
			c-1.1,1-2.2,0.8-3.4,0.5c2.3-1.1,4.2-3.1,6.7-3.7l0.2,0.4C124.8,182.9,123.5,183.7,122.4,184.8z M125.4,179.3
			c-1.2,0.8-2.6,1.5-3.8,2.3c-1.7,1.1-3.5,2.1-5,3.4c-0.9,0.8-1.5,0.5-2.2,0.4l-0.2-0.4c2-1.4,4-2.8,6-4.2c1-0.7,1.9-1.4,2.9-1.9
			c0.8-0.4,1.8-0.7,2.7-1c0.1,0,0.3,0.1,0.4,0.1C125.9,178.5,125.8,179,125.4,179.3z M127.3,173.8c0.1,0.1,0.2,0.2,0.3,0.4
			c-0.1,0.1-0.1,0.2-0.2,0.4c-0.9-0.3-1.8-0.7-2.7-1c-0.6-2.2,0.2-3.7,2.4-4.5c0.7-0.3,1.4-0.5,2-0.7c-0.6,0.7-1.2,1.4-1.8,2
			C125.5,171.9,125.4,172.2,127.3,173.8z M135.3,169.1c0,0.1,0.1,0.3,0.1,0.4c-0.2,0.1-0.5,0.1-0.7,0.2c-1.2,0.5-2.3,1-3.5,1.5
			c-0.3,0.1-0.5,0.7-0.5,1c0.1,0.3,0.5,0.5,0.8,0.8c0.3,0.2,0.5,0.5,0.7,0.7c-1.7,0.3-2.8-0.7-4-2
			C130.5,170.3,132.6,168.8,135.3,169.1z M134.7,174c-1.2,0.8-2.2,0.7-2.3-0.2C133.1,173.8,133.9,173.9,134.7,174z M128.9,176.9
			c0.1-0.2,0.3-0.4,0.3-0.6c0-1.1,0.7-1,1.7-0.7c-0.7,1.5-1.3,2.9-2,4.3C128.5,178.9,128.1,177.9,128.9,176.9z M135.2,178.2
			c-2.2,0.7-3.1,2.8-5.2,3.9c0.3-0.7,0.5-1.3,0.9-2c0.6-1,1.1-2.1,1.8-3.1c0.9-1.1,2.2-0.9,3.4-0.8
			C136.8,177.4,135.7,178,135.2,178.2z M134.8,167.3c-0.2,0-0.6,0.1-0.7-0.1c-1.2-1.1-2-2.4-2.5-3.9c0-0.1,0-0.3,0.1-0.8
			c0.9,0.8,1.5,1.4,2.2,2c0.6,0.5,1.2,0.8,1.7,1.3c0.3,0.3,0.5,0.8,0.8,1.2C135.6,167.2,135.2,167.3,134.8,167.3z M139.6,173.5
			c0.4,1.5,0.7,3.2,0.3,4.8c-1.3-0.8-2.1-1.7-2.2-3.4c0-1.8-0.6-3.5-0.9-5.3c0.1,0,0.3,0,0.4-0.1c0.1,0.2,0.1,0.4,0.2,0.6
			c0.1,0,0.2,0,0.3,0c0-0.8,0.1-1.7,0.1-2.5c0-1,0.6-1,1.3-1c0.8,0,1,0.4,0.9,1.1c-0.1,0.8-0.5,1.6-0.5,2.4
			C139.5,171.3,139.3,172.5,139.6,173.5z M157,178.5c0-0.2-0.1-0.4-0.1-0.6c0.7-0.4,1.3-0.8,2.2-1.3c0.1,0.9,0.1,1.4,0.1,1.8H157z
			 M164.9,171.8c-0.2,0.2-0.3,0.4-0.5,0.5l-2.1-1c0.4-0.5,0.7-1,1.2-1.7C164.1,170.5,164.5,171.2,164.9,171.8z M163.1,166.7
			c0.2,0.4,0.4,0.8,0.8,1.4c-0.7,0.3-1.4,0.5-2.1,0.8c-0.1-0.7-0.3-1.4-0.5-2.3C162.2,166.6,162.6,166.7,163.1,166.7z M157.3,162.8
			c1.3-0.6,2.3,0,2.6,1.4c-0.3,0-0.6,0-0.7,0.1c-0.9,1.5-1.6-0.2-2.3-0.2C157,163.7,157,163,157.3,162.8z M142.4,166.4
			c0.4-1,1-1.8,1.8-2.3c0.8-0.5,1.7-1.2,2.6-1.2c2.4-0.2,4.8-0.1,7.2-0.1c1.5,0,2,0.6,1.9,2.5h-5.3c0,0.1,0,0.2,0,0.3
			c0.1,0.1,0.2,0.2,0.4,0.3c2.6,0.3,5.2,0.6,7.8,0.9c1.4,0.1,1.9,0.6,1.9,2.2c-1.6,0.6-6.4,0.3-7.4-0.4c-0.6,1-0.5,1.4,0.6,1.4
			c2,0.1,3.9,0.1,5.9,0c0.9,0,1.6,0.1,1.9,1.2c0,0.2,0.4,0.3,0.7,0.4c0.1,1.1-0.2,1.6-1.4,1.6c-0.8,0-1.5,0.1-2.3,0.4
			c0.6,0.3,1.2,0.6,1.7,0.9c0.5-0.2,1.1-0.6,1.5-0.4c0.5,0.2,1.1,0.8,1.2,1.3c0.2,0.8-0.6,1-1.2,1c-0.7-0.1-1.5-0.2-2.5-0.4
			c-0.2,0.1-0.7,0.3-1.2,0.3c-1.8,0.1-3.6,0-5.4,0.1c-0.4,0-0.8,0.1-1.2,0.1c0,0.1,0,0.2-0.1,0.4c0.3,0.1,0.5,0.3,0.8,0.3
			c0.7,0.1,1.5,0.1,2.2,0.1c1.3,0,1.9,0.5,1.8,1.8c-0.1,0.9-0.8,1.2-1.8,1.3c-1.9,0.1-3.8,0.7-5.6,0.6c-2-0.2-4.1-0.5-5.8-1.6
			c-0.6-0.4-1-1.2-1.2-1.9c-0.4-2-0.6-4-0.8-6C140.9,169.5,141.7,168,142.4,166.4z M139.9,143.9c0.1,0.6,0.2,1.3,0.4,2.1
			c-0.6,0.1-1,0.1-1.9,0.2c0.5-0.9,0.7-1.6,1-2.2C139.6,143.9,139.8,143.9,139.9,143.9z M133.3,137.7c0.1,0,0.2-0.1,0.4-0.1l1.2,1.8
			c-0.1,0.1-0.2,0.3-0.4,0.4c-0.4,0-0.7,0-1.3,0.1C133.2,139,133.2,138.4,133.3,137.7z M250.7,87.2c1.2-0.7,1.9,0.2,2.1,0.9
			c0.2,0.8,0,1.8-0.2,2.7c0,0.2-0.3,0.4-0.5,0.5c-0.3,0.2-0.6,0.4-0.9,0.3c-0.2-0.1-0.6-0.4-0.6-0.6
			C250.6,89.7,250.7,88.4,250.7,87.2z M252.1,92.9c-0.6,0.7-0.9,1.7-2.1,1.1C250.3,92.6,250.7,92.4,252.1,92.9z M246.9,85.5
			c1.7-0.3,1.9-0.2,2.2,1.4c0.1,0.3,0.3,0.6,0.3,0.8c0,0.6,0,1.2,0,1.9c0,0.2-0.2,0.3-0.2,0.5c0,1.5-0.8,1.8-2.3,1.6V85.5z
			 M246.8,94c0.4-0.5,0.9-1,1.4-1.3c0.1,0,0.8,0.7,0.8,0.8c-0.3,0.6-0.7,1.1-1.3,1.8C247.2,94.6,246.7,94.1,246.8,94z M243.1,84.1
			c0.2-0.2,1-0.2,1.1,0c0.6,1.1,1.3,2.2,1.6,3.3c0.3,1,0.1,2.2,0.1,3.2c-0.8,0.4-1.4,0.6-2.1,0.9c-0.4-0.4-1.3-0.3-0.6-1.7
			c0.6-1.2,0.9-3.1-0.3-4.6C242.8,85,242.9,84.4,243.1,84.1z M245,92.6V94c-0.4,0-0.8,0.1-1.4,0.1C243.4,92.9,243.6,92.3,245,92.6z
			 M239.1,84.2c0.1-0.3,1.1-0.5,1.5-0.3c0.5,0.3,1.2,0.9,1.3,1.5c0.2,1.5,0.1,3,0.1,4.5c-0.8,0.4-1.4,0.7-2.4,1.1c0-1.2,0-2.4,0-3.5
			c0-0.4-0.3-0.9-0.3-1.3C239.1,85.5,238.9,84.8,239.1,84.2z M241.8,92.9c-0.7,0.2-1.3,0.3-2,0.5c0-0.1-0.1-0.3-0.1-0.5
			c0.5-0.5,0.8-1.6,1.9-1.1C241.7,92,241.8,92.9,241.8,92.9z M238.6,88.1c0.1,0.8,0.2,1.8-0.1,2.5c-0.8,1.7-0.8,2.2,0.6,3.5
			c1.4,1.3,2.6,2.8,3,4.7c0.9-0.4,0.9-1.4-0.1-3c0.6,0,1.1,0,1.6-0.1c0.6-0.1,1.1-0.4,1.7-0.6c0.3-0.1,0.8-0.2,1,0
			c0.3,0.2,0.4,0.7,0.6,1.2c-1.2,0.1-2.1,0.2-3.3,0.3c0.1,0.5,0.2,1.2,0.4,1.2c0.8,0,1.7-0.1,2.5-0.2c0.1,0,0.1-0.3,0.2-0.3
			c1.5-0.3,3.1-0.7,4.7-1c0.4,1.6,0.1,2.8-0.7,3.9c-1.1,1.6-2.5,2.6-4.5,2.6c-1.2,0-2.4,0.8-3.5,0.5c-1.9-0.5-4.1-0.1-5.7-1.4
			c-1-0.8-2.1-1.7-2-3.4c0-1-0.6-2.1-0.6-3.1c0.1-2.3,0.4-4.5,0.7-6.7c0.7-0.8,2.2,0.6,2.4-1C237.8,87.9,238.6,88,238.6,88.1z
			 M239.6,115.8c0.2,1.2,0.8,2.4,1.3,3.6c0.2,0.4,1,0.9,1.4,0.8c0.5-0.2,1-0.8,1.3-1.3c0.4-0.9,0.5-1.9,0.9-2.9
			c0.1-0.3,0.7-0.5,1.2-0.8c0.4,1.8-0.5,3-1.1,4.1c-0.7,1.3-1.4,2.5-2.3,3.8h-0.9c-1.2-2.7-2.3-5.5-3.5-8.2
			C239.2,114.5,239.4,114.9,239.6,115.8z M237.2,112.3c0.2-1.2,0.2-2.1,0.4-3c0.1-0.3,1-0.6,1.1-0.5c0.4,0.4,0.8,0.9,0.7,1.4
			c-0.1,0.6-0.4,1.3-0.8,1.8C238.5,112.2,237.9,112.1,237.2,112.3z M241,111.4c0.5-0.9-0.3-2.2,1.1-2.1c0.9,0.1,1.5,0.8,1.4,1.9
			c-0.1,0.9-0.9,2.1-1.5,1.8C241.5,112.6,241.3,111.8,241,111.4z M245.3,112.4v-3.3c0.8,0.2,1.8,0.1,1.9,0.5c0.3,0.7,0.3,1.7,0,2.4
			C247.1,112.2,246,112.2,245.3,112.4z M242.7,106.7c-1.3,0.1-2.5,0-3.8,0c-1.6,0-2.8-0.7-3.8-2.1c1.8-0.1,3.6-0.4,5.5,0.3
			c1.2,0.5,3.1,0.6,4.2,0c1.7-0.8,3.3-0.3,4.9-0.6c0.1,0.1,0.2,0.3,0.3,0.4c-0.2,0.2-0.4,0.5-0.6,0.7
			C247.4,107.5,244.9,106.4,242.7,106.7z M233.5,112c-0.2-3,0.1-3.7,2-3.5C235.9,110.5,235,112.2,233.5,112z M235.6,114.9l-3.3,5.9
			c-0.1,0-0.3-0.1-0.4-0.1c-0.1-0.2-0.2-0.4-0.2-0.6c0.7-1.7,1.5-3.4,2.3-5c0.2-0.3,0.9-0.4,1.3-0.6
			C235.5,114.7,235.5,114.8,235.6,114.9z M248.4,114.8c0.9-0.3,1.3-0.1,1.4,0.9c0,0.6,0.4,1.1,0.6,1.8c-0.1,0.2-0.4,0.6-0.6,1
			C248.9,118.1,248.2,116.3,248.4,114.8z M249.3,108.5c1.4-0.1,1.7,0.6,1.2,3C249,111.3,248.9,111.1,249.3,108.5z M236.7,84
			c1.6,0.7,1.8,1.7,0.7,3c-0.2,0.2-0.1,0.5-0.2,0.8c-0.5-0.3-0.9-0.6-1.6-1.1C236,85.9,236.3,84.9,236.7,84z M231.1,100.6
			c0-0.2,0.4-0.4,0.4-0.6c0.1-0.4,0.1-0.8,0-1.2c-0.1-1-0.4-2.1-0.5-3.1c-0.1-1.6,0.4-3.5-0.2-4.8c-1-2-0.4-3.9-0.5-5.8
			c-0.1-1.6,0.4-3.2,0.8-4.7c0.2-0.5,1-1.1,1.6-1.2c0.9-0.1,2.4,0,2.7,0.5c0.6,1.1,0.4,2.5-0.6,3.1c-1.2-0.3-2.1-0.5-2.9-0.6
			c-0.8,1.3,0.1,2,0.7,2.6c0.9,0.8,2,1.4,0.7,2.7c-0.1,0.1-0.1,0.2-0.1,0.2c-0.2,3.2-1.4,6.3-0.8,9.5c0.1,0.6,0.7,1.2,0.6,1.8
			c-0.2,1.3-0.6,2.6-1,3.8c-0.1,0.5-0.4,0.9-0.7,1.5c-0.8,0.3-1.7,0.6-2.7,0.8c-1.2,0.2-2.1-1.3-1.6-2.6c0.1-0.2,0.5-0.4,0.7-0.4
			c0.6-0.1,1.1,0,1.7,0C230.6,102.2,231.2,101.8,231.1,100.6z M222.3,86.3h6.2c-0.2,1.1-1.2,1.7-2.1,1.2c-1.6-0.8-2.5-0.2-2.5,1.5
			c0,1.4,0.1,2.8,0,4.2c-0.1,1.3,0.4,1.7,1.7,1.6c1-0.1,2,0,3,0c0.3,0,0.5,0.3,0.8,0.4c-0.2,0.2-0.5,0.4-0.7,0.5
			c-1,0.1-2.1-0.2-3,0.6c-0.2,0.1-0.8-0.3-1.3-0.4c-0.6-0.1-1.3-0.2-2-0.2V86.3z M227.9,91.7h-2.6c0.1-0.7,0.1-1.5,0.4-2.1
			c0.2-0.3,1.3-0.3,1.5,0C227.7,90.1,227.7,90.9,227.9,91.7z M220.7,86.8h-5.2C216.7,86,219.9,86.1,220.7,86.8z M212.8,93.9
			c1.6-1.8,6.4-1.8,7.7,0H212.8z M220.4,95c-0.8,1.4-2.7,1.8-6,1.3c0-0.4-0.1-0.8-0.1-1.3H220.4z M220.5,91.6h-8.3
			c0.4-1.3,1.2-1.5,2.2-1.4c1.7,0.1,3.3,0,5,0C220.4,90.2,220.8,90.6,220.5,91.6z M211.3,85.1c-0.2-0.9-0.9-0.5-1.4-0.6
			c-1.1-0.1-1.5-0.8-1.9-1.8c1.6,0.5,2.8,0.8,4,1.2c0.3,0.1,0.5,0.4,0.7,0.6c0.1,0.1-0.1,0.6-0.2,0.6
			C212.1,85.3,211.3,85.3,211.3,85.1z M220.5,89.3h-6.9c-0.1-0.1-0.1-0.3-0.2-0.4c0.7-0.4,1.3-0.9,2-1c1.3-0.2,2.7,0,4,0
			C220.5,87.8,220.8,88.3,220.5,89.3z M156.8,79.5c0.8-0.6,1.4-1,2.1-1.6c-0.4-0.7-1.1-1.5-1.2-2.4c-0.2-1.8-1.7-1.5-2.7-1.9
			c-0.7-0.2-1.1-0.3-1.5-1.1c-0.3-0.6-1.3-1.2-2-1.4c-2.1-0.4-3.3-1.6-4.3-3.4c-0.3-0.7-1-1.2-1.7-2.1h77.8c0-0.1,0-0.2,0-0.3
			c-0.5-0.1-1.1-0.2-1.6-0.3c0,0,0-0.1,0-0.1h8c0,0,0.1,0.1,0.1,0.2c0.4,1.3-0.8,1.7-1.4,2.4c-1.1,1.3-2.1,2.6-3.2,4
			c-1.1,1.3-2.9,1.6-4.3,0.7c-0.3,0.4-0.6,0.9-0.9,1.3c-0.2,0.5-0.4,1-0.6,1.5c-1.6,0.1-3.6-0.6-4.4,1.5c-0.6,1.6-0.5,3.4,1.6,4.4
			c-0.1,0.1-0.2,0.3-0.2,0.4c-0.7-0.1-1.7,0.1-2-0.3c-1.1-1.3-2.5-1.4-4-1.3c-0.8,0.1-1.5-0.1-2.4-0.3c2.1,0,3.6-0.7,3.8-2.8
			c0.1-1.2-1.6-3-2.8-3.3c-0.2-1-0.1-2.2-0.6-2.8c-0.5-0.6-1.7-0.9-2.6-0.9c-2-0.1-2.4,0.5-2.8,3c-1.6,0.2-3.4,0.4-3.8,2.5
			c-0.1,0.9-0.1,2.1,0.4,2.7c0.5,0.6,1.7,0.6,2.6,0.8c-0.8,1.4-2.1,1.3-3.3,1.1c-0.9-0.1-1.8-0.8-2.7-1.1c-0.4-0.2-1.1-0.4-1.3-0.2
			c-1.1,1-2.4,0.5-3.6,0.5c-0.7,0-1.3-0.7-2.2-1.2c2.6-0.2,4.2-1.2,4-3.9c-0.1-0.6-0.6-1.3-1.1-1.7c-0.5-0.3-1.3-0.3-2.1-0.4
			c0.3-1.6-1-2.6-2-2.9c-1.2-0.4-2.9-0.8-4,0.7c-0.3,0.3-0.4,0.8-0.4,1.3c0,0.8-0.3,1.2-1.1,1.1c-1.1-0.1-1.7,0.6-1.9,1.4
			c-0.2,0.8,0,1.8,0.2,2.6c0.1,0.4,0.3,0.9,0.7,1.2c0.4,0.3,0.9,0.4,1.4,0.5c0.4,0.1,0.9,0,1.6,0c-1.8,1.9-4.7,1.9-6.2,0.3
			c-0.2-0.2-0.7-0.3-0.8-0.3c-1.4,1.2-3,1.5-4.8,1.4c-0.2,0-0.4-0.1-0.6-0.2c-0.1,0-0.1-0.1-0.1-0.2c0.6-0.6,1.3-1.2,1.8-1.9
			c1.1-1.3,0.3-3.4-1.2-4.1c-0.6-0.2-1.1-0.9-1.5-1.4c-0.4-0.5-0.6-1.2-1-1.7c-2.1-1.9-4.3-0.7-5.3,1.5c-0.2,0.5-0.6,1.3-1,1.4
			c-1,0.3-1.3,0.8-1.7,1.7c-0.9,1.8,0.2,4.1,2.1,4.2c0.4,0,0.8,0.1,1.1,0.4c-1.3,0-2.6,0.9-3.9-0.3c-0.2-0.2-1,0.1-1.5,0.3
			C159,79.1,158.3,80.4,156.8,79.5z M206.4,75.5c-0.3,0.9-0.8,1.8-1.2,2.7c-0.3-1-0.7-2-1-3c-0.1-0.2,0.2-0.6,0.4-0.7
			c0.5-0.1,1-0.1,1.5,0C206.3,74.6,206.5,75.2,206.4,75.5z M199.4,83.3c-3,2-6.9,1.7-8.5-1.2c0.7,0.3,1.4,0.6,2.1,0.8
			c0.3,0.1,0.6,0.2,1,0.2c1.5,0,3,0,4.4,0C198.8,83.2,199.1,83.3,199.4,83.3z M186.2,75c-0.4-1.1-0.1-1.6,1.2-1.3
			C187.6,74.9,187.3,75.3,186.2,75z M183.6,81.7c-0.5,0.4-0.9,0.9-1.4,1.3c-0.3,0.3-0.7,0.5-1.1,0.7c-1.5,0.5-3,1.4-4.7,0.9
			c-0.6-0.2-1-0.7-1.5-1.1c0.4-0.1,0.7-0.3,1.1-0.2c2.4,0.2,4.7-0.4,6.8-1.6c0.2-0.1,0.4-0.1,0.6-0.2
			C183.4,81.5,183.5,81.6,183.6,81.7z M174.8,83.3c-1.2,1.1-1.4-0.5-2.3-0.7C174.2,82.1,174.6,82.3,174.8,83.3z M168.7,73.9
			l-0.4,1.9c-0.6-0.3-1.3-0.5-2.3-0.9c1-0.6,1.6-1,2.3-1.4L168.7,73.9z M160.5,82.2c0.1,0.3,0.3,0.6,0.3,0.7
			c0.9-0.2,1.5-0.3,2.1-0.6c0.7-0.3,1.2-0.8,1.9-1.1c0.4-0.2,0.9-0.2,1.3-0.3c-0.1,0.4-0.1,0.9-0.3,1.2c-1.4,1.5-3.1,1.8-5,1.6
			C159.7,83.7,159.8,83.1,160.5,82.2z M157.1,108.1c-0.6,0.2-1.9-0.7-2.3-1.3c-0.4-0.7-0.5-1.9-0.2-2.7c0.2-0.6,0.8-1.4,1.8-1.2
			c0.4,0.1,1.1,0.3,1.1,0.5c0,0.6-0.1,1.3-0.3,1.9c-0.2,0.5-0.8,0.8-1.6,1.4c1.1,0.1,1.8,0.1,2.8,0.2c0.6-2.7,1.2-5.3,1.8-7.9
			c0.1,0,0.3,0,0.4,0c0.1,0.7,0.2,1.3,0.2,2c0,0.9,0,1.8-0.1,2.6C160.6,106.1,159.4,107.5,157.1,108.1z M170.5,98.8
			c-2.6-0.8-5.3-1.2-8.1-0.2c0.2-0.4,0.5-0.9,0.7-1.3c-0.5,0-1-0.1-1.9-0.1c1-1.1,1.7-2.2,3-2.2c2.4,0,5.1-0.7,6.9,2.2
			c-0.7,0-1.2,0.1-1.8,0.1C169.7,97.7,170.1,98.2,170.5,98.8z M168.6,101.1c-0.1,0.6,0,1.1-0.3,1.4c-0.7,0.9-2.7,1.4-3.4,0.9
			c-0.8-0.5-1.1-1.1-0.8-2.2c0.8,0.6,1.4,1.5,2.1,1.5C166.9,102.7,167.6,101.8,168.6,101.1z M161.4,116.9c0,0.6,0.2,1.3,0.1,1.9
			c-0.7,2.7-3.1,4.5-6,4.5c-0.5,0-1-0.1-1.6-0.1c-1,0-1.2-0.6-1-1.6c3.8,0.4,6.8-0.8,8.1-4.8C161.1,116.9,161.3,116.9,161.4,116.9z
			 M152.2,119.6c-0.8-0.8-0.2-3.3,0.8-3.9c0.6-0.4,1.3-0.4,1.9,0.4c0.5,0.7,0.6,1.3,0,1.9c-0.4,0.4-0.9,0.7-1.5,1.2
			c2.2,0.6,4.4-0.5,5.1-2.2c0.3-0.8,0.8-1.4,1.1-2.2c0.3-0.7,0.5-1.5,0.7-2.2c0.1,0,0.3,0,0.4,0c0,1.1,0.3,2.3-0.1,3.3
			c-0.4,1.1-1.5,2-1.9,3.1c-0.6,1.7-2.3,1.5-3.4,1.9C154.5,121,153,120.3,152.2,119.6z M152.7,124.1c1.5,0,2.7-0.1,3.8,0
			c1.9,0.2,3.2-0.6,4.2-2c0.6-0.9,1.2-1.8,1.9-3c0.2,0.5,0.4,0.8,0.3,1c-0.6,2.2-1.4,4.2-3.4,5.5c-1.8,1.1-4.8,1.1-6.3-0.2
			C153,125.2,152.9,124.7,152.7,124.1z M168.3,134.2c-0.2,0.2-0.8,0-1.4,0c0.4-0.7,0.7-1.1,0.9-1.5c0.1-0.2-0.1-0.5-0.2-0.7
			c-0.2,0.1-0.5,0.1-0.6,0.3c-2,2.4-4.7,2.2-7.4,1.9c-0.5,0-0.9-0.7-1.3-1c0-0.1,0.1-0.3,0.1-0.4c0.7,0,1.3-0.1,2,0
			c2.6,0.4,4.3-1,5.9-2.8c0.8-1,1.8-1.8,1.5-3.2c-0.1-0.3-0.2-0.6-0.4-1c-0.2,2.7-2.2,4.1-4,5.3c-2.1,1.4-4.4,1.3-6.8-0.4
			c0.5-0.1,0.9-0.4,1.2-0.3c2.9,0.3,4.8-1.5,6.7-3.3c0.3-0.2,0.1-0.9,0.2-1.7c-1.7,1.4-2.5,3.4-4.7,3.4c-1.9,0.1-3.8,0.3-5.5-1.4
			c0.9-0.1,1.5-0.2,2.2-0.1c2.6,0.5,4.2-1,5.6-2.7c1.4-1.7,1.9-3.8,1.5-6c-0.1-0.9-0.7-1.6-1.1-2.5c-0.1-0.3-0.3-0.5-0.3-0.8
			c-0.3-3.4-0.5-6.9-0.8-10.3c0-0.4,0-0.9,0.1-1.5c1.7,0.3,3.2,0.8,4.8,0.8c1.5,0,3-0.5,4.6-0.5c-0.3,0.4-0.7,0.8-1,1.3
			c-0.2,0.4-0.3,0.9-0.5,1.4c0.4-0.1,0.8-0.2,1.4-0.4c0.1,0.6,0.1,1.4,0.2,2.1c0.8,0.1,0.6-0.6,0.8-1c0.9-2.6,0.5-5.3,1-7.9
			c0.2-1.2-0.2-2-0.3-3c-0.1-0.9-0.9-1.9-1.6-2.6c-0.6-0.6-1.6-1-2.5-1.1c-1.8-0.1-3.6-0.7-5.3,0.4c-0.5,0.3-1.3,0.2-1.9,0.1
			c-0.2-0.1-0.4-0.8-0.4-1.2c-0.1-2,0.4-2.3,2.4-2.6c3.7-0.4,7.5-0.4,11.1-1c4.2-0.7,8.4-0.6,12.6-0.3c2.6,0.2,5.1,0.3,7.7,0.6
			c1.3,0.1,1.4,1.4,1.6,2.3c0.4,1.8,0.5,3.7,1,5.6c0.4,1.9,1,3.7,1.6,5.5c0.7,2,1.5,3.9,2.4,5.9c0.3,0.7,0.9,1.3,1.4,1.9
			c0,0,0,0,0,0c0.5,1.4,1,2.7,1.5,4.1c0.3,0.9,0.8,1.8,0.8,2.6c0,2.1,1.7,4.2,0.3,6.4c-0.3,0.5-0.2,1.1-0.4,1.7
			c-0.2,0-0.3,0.1-0.5,0.1c-0.3-0.7-0.7-1.4-0.8-2.1c-0.1-1.1,0.1-2.2-0.1-3.3c-0.2-1.5-0.5-3-0.9-4.5c0-0.1-0.4-0.2-0.7-0.3
			c0,1.2-0.1,2.3,0.5,3.5c0.5,0.9,0.2,2.3,0.3,3.5H201c0.2-3.5-1.1-6.4-3.1-9.3c0,0.6-0.2,1.5,0,1.9c0.9,1.4,1.6,2.8,1.5,4.5
			c0,0.1,0,0.2,0,0.3c1.3,1.2,0.6,1.8-0.7,2.4c-0.4-1.9-0.7-3.9-2.3-5.2c-0.3,1.9,1.3,3.4,1.3,5.4c-0.9,0.3-1.2,0.1-1.6-0.8
			c-0.4-1.1-1.2-2-2-3c-0.1,2.3,1.8,3.9,2.1,6c-1.2,0.4-1.9-0.1-2.3-1.2c-0.3-0.7-0.8-1.2-1.1-1.8c-0.2,0.1-0.4,0.2-0.6,0.3
			c0.2,0.5,0.5,1,0.6,1.5c0.4,1.4,1.5,2.3,2.4,3.3c0.2,0.2,0,0.8,0,1.2c-0.5-0.1-1.1,0-1.4-0.2c-1.3-1.2-2.4-2.5-3.2-4.1
			c-0.1-0.1-0.2-0.2-0.4-0.4c-0.9,1.4,0.4,2.2,0.7,3.1c0.2,0.5,0.5,0.9,0.8,1.4c-1.5,0.7-1.9-0.4-2.5-0.9c-0.2-0.2-0.5-0.2-0.8-0.3
			c0.2,0.7,0.3,1.4,0.5,2.2c-0.8,0.4-0.9,0.4-2.3-1.2c-0.7-0.7-1.2-1.6-1.9-2.4c-0.7,1.3,0.2,2.1,0.9,3.1c0.7,1,1.6,1.7,2.6,2.4
			c0.1,0.1,0.1,0.4,0.2,0.7c-3.2,0.5-3.6-2.4-5.3-4.1c-0.1,0.6-0.3,1.1-0.2,1.3c1,1.3,1.4,3.2,3.3,3.7c0.7,0.2,1.5,0.4,2.2,0.8
			c0.4,0.2,0.7,0.8,1.1,1.3c-2,0.8-3.2-0.5-4.6-0.9c-0.6,0.7-0.5,1.4,0.7,1.8c1.9,0.6,3.8,1.4,5.9,0.9c0.7-0.2,1.6-0.4,1.7-1.5
			l-0.1-0.1c-0.8-0.2-1.7,0.3-2.5-0.6c-1-1-0.8-2.2-0.5-3.1c0.8-2.1,3-2.4,4.6-0.8c0.5,0.6,0.9,1.3,1.3,1.9c0.1,0.2,0.2,0.5,0.1,0.6
			c-0.8,1.7-1.3,3.6-3.5,4.4c-2,0.7-3.6,0.7-5.5,0c-3-0.9-5.2-2.7-7-5.1c-0.6-0.8-1-1.8-1.2-2.7c-0.4-1.6-2.1-2.5-3.6-1.7
			c-0.3,0.2-0.4,0.7-0.4,1.1c-0.2,1.8-0.4,2.3-2.2,3.4c-0.1-0.5-0.1-1-0.2-1.5c-0.3,0.2-0.7,0.3-0.7,0.5
			C171.4,132.1,169.5,132.9,168.3,134.2z M196.5,134.5c1-1.1,2-2.3,3-3.5c0.2,0.1,0.4,0.3,0.7,0.4c-0.2,0.4-0.3,0.9-0.6,1.2
			c-1.6,1.7-3.3,3.3-5,5c-0.3,0.3-0.7,0.4-1,0.6l-0.2-0.4C194.3,136.7,195.4,135.6,196.5,134.5z M182.7,153.1
			c-1.4,1-0.2,1.8,0.3,2.5c0.4,0.5,0.9,0.9,1.4,1.4c1.3,1.6,1.3,1.8-0.4,3.3c-0.1-0.3-0.1-0.6-0.2-0.8c-0.2-0.4-0.4-0.7-0.7-1.1
			c-0.3-0.5-0.6-1-1-1.4c-0.5-0.4-1.1-0.7-1.7-0.7c-0.5,0-1,0.5-1.5,0.8c-0.3,0.2-0.5,0.5-0.8,0.8c-0.8,1-1.8,1.8-2.4,2.9
			c-0.2,0.4,0.2,1.4,0.6,1.9c0.7,0.9,1.7,1.7,2.7,2.7c-1,1-1.8,1.9-2.7,2.9c-0.1-0.1-0.3-0.1-0.4-0.2c0.1-0.4,0-0.9,0.2-1.2
			c0.8-1.1,0.7-1.6-0.1-2.7c-0.9-1.1-2.1-1.8-3.4-2.2c0.7-0.7,1.3-1.5,2-2.2c1.7-1.7,3.4-3.5,5.1-5.2c0.9-0.9,1.8-1.7,2.7-2.5
			c0,0,0.2,0.1,0.3,0.2c0.3-1.3,1.3-1.8,2.5-2.1c-0.6,2-1.2,2.5-2.5,2.1C182.7,152.5,182.8,152.9,182.7,153.1z M170.6,165.2
			c-0.4-1.2,0.2-2.1,1.9-3.2C172.9,163.6,171.4,164.1,170.6,165.2z M197.7,151c-0.8,1.5-1,3.4-2.6,4.5c-0.7,0.5-1.5,1-2.1,1.6
			c-1.9,1.9-3.7,3.9-5.6,5.9c-0.4,0.4-0.9,0.8-1.4,1.2c-2.7,2.5-5.3,5-7.9,7.5c-0.1,0.1-0.1,0.3-0.2,0.3c-2.4,0.8-2.9,3.6-5.1,4.8
			c-1.2-2.3,0.9-3.4,2-4.9c-1.1-1.2-2.1-2.3-3.2-3.4c-0.9-0.9-0.8-1.5,0.2-2.1c0.4-0.2,0.7-0.5,1-0.7c-0.1-0.1-0.1-0.2-0.2-0.3
			c0.4,0,0.8-0.1,1.7-0.2c-0.4,0.7-0.8,1.1-0.9,1.6c-0.1,0.5-0.2,1.2,0.1,1.6c0.6,0.8,1.3,1.5,2.1,2.1c0.3,0.2,0.9,0.1,1.4,0.1
			c0-1.3,1.4-1.3,2.1-2.1c0.6-0.7,0.8-1.8,1.9-2.1c0.1,0,0.1-1.5-0.2-2c-0.6-0.9-1.6-1.6-2.3-2.4c-0.2-0.2-0.3-0.5-0.3-0.8
			c0-1,1.8-2.3,3-1.9c-0.5,0.5-1.1,0.8-1.3,1.3c-0.2,0.4-0.1,1.1,0.2,1.4c0.5,0.7,1.3,1.3,1.9,2c0.6,0.7,1.1,0.6,1.6,0
			c1.1-1.1,2.1-2.2,3.3-3.2c0.5-0.4,1.2-0.7,1.8-1.1c-0.5-2.1-2.6-3.4-4.3-5.2c1-0.5,1.2-2.3,2.6-1.9c-0.1,1.1-0.6,2.4-0.2,2.8
			c0.7,0.8,1.6,2.6,2.9,1.8c1.9-1.2,3.3-3,4.9-4.6c0.1-0.1-0.3-0.8-0.6-1.1c-1-1.1-2-2.2-3.1-3.2c2-2.5,2.4-2.8,3.5-2.5
			c-0.4,0.7-1.4,1.5-1.2,2.1c0.2,0.9,1,1.7,1.7,2.3c1.3,1.2,1.4,1.1,2.7,0C197.6,150.5,197.8,150.8,197.7,151z M200.5,143.8
			c-0.9-1-1.7-1.9-2.5-2.9c0.7-0.7,1.6-1.6,2.5-2.5c0.5,0.8,0.5,0.8-1,2.5C199.8,142,201.4,142.3,200.5,143.8z M201.9,136.4
			c-0.7-0.7-1.1-0.9-1.8,0c-1.4,1.7-2.9,3.2-4.5,5c1,1.2,2.3,2.8,3.7,4.4c-1.1,0.3-1.3,2.2-3.1,1.7c2.5-3-0.9-3.7-2-5.8
			c-2.1,2.1-4.1,4.1-6,6.1c1.4,1.5,2.5,2.7,3.6,3.9c0.6,0.6,0.7,1-0.1,1.5c-0.7,0.5-1.1,1.6-2.6,1.4c0.3-0.4,0.6-0.6,0.6-0.9
			c0.1-0.7,0.2-1.5-0.1-2.1c-0.3-0.7-1.2-1.1-1.7-1.7c-0.7-0.8-1.2-1-1.9,0c-0.1,0.1-0.5,0.1-0.8,0.1c-0.1-0.2-0.2-0.4-0.2-0.3
			c5.8-5.7,11.5-11.3,17.4-17.1c-0.1,1.8-0.2,3.5,1.8,4.3C203.1,137.6,203,137.6,201.9,136.4z M206,131c-0.3,0.1-0.6,0-1,0
			c0.5-0.8,1-1.5,1.5-2.2c-0.5,0.2-1.1,0.4-1.6,0.7c-0.8,0.5-1.4,1-2.4,1c-1.9-0.1-3.9,0.3-5-1.7c-0.5-0.9-1.6-1.8-0.6-3.2
			c0.4-0.6,0.7-1.6,1.3-2.1c0.7-0.7,2.7-0.7,3.6,0c1,0.8,1.1,2,0.8,3.2c-0.1,0.3-0.6,0.6-0.9,0.7c-0.7,0.1-1.5,0-2.2,0
			c0.2,1.1,1.9,2.1,2.8,1.4c1-0.8,2.2-1.1,3-2.6c1-2.1,1.6-4.1,1.3-6.3c-0.2-1.7-0.9-3.3-1.4-4.9c-0.3-1.1-0.6-2.3-1-3.4
			c-0.3-0.7-0.4-1.7-1.6-1.7c0.2-0.1,0.4-0.2,0.6-0.3c-0.4-0.9-0.9-1.7-1.3-2.6c-0.8-1.7-1.6-3.5-2.2-5.2c-0.4-1.2-0.6-2.5-1-3.8
			c-0.4-1.6-1-3.2-1.4-4.8c-0.2-1.2-0.2-2.5-0.2-3.7c0.2,0,0.4-0.1,0.6-0.1c0.3,1.2,0.7,2.3,1,3.5c0.1,0.5-0.2,1.3,0.8,1.3
			c-0.1-1.4-0.3-2.7-0.4-4.1c0-0.2,0.2-0.4,0.4-0.5c0.2-0.1,0.6-0.1,0.7,0c0.3,0.3,0.7,0.7,0.8,1.1c0.3,1.5,0.5,3,0.9,4.5
			c0.4,1.6,0.9,3.1,1.4,4.6c0.3,0.9,0.5,1.8,0.9,2.7c0.4,1,0.9,1.9,1.3,2.8c0.1,0.3,0.1,0.6,0.3,0.9c0.4,1,0.9,2,1.3,3
			c0.6,1.2,1.2,2.5,1.8,3.7c0.4,1,0.8,2,1.2,3.1c0.1-0.2,0.3-0.4,0.4-0.5c0.3,1.8,0.7,3.5,0.8,5.3c0.1,1.3,0.1,2.6-0.1,3.9
			c-0.1,0.8-0.5,1.5-0.8,2.2C209.4,128.8,208,130.2,206,131z M218.7,127.9c-0.1,0.3-0.4,0.5-0.4,0.8c-0.1,0.9-0.7,1-1.8,0.8
			c0.3-0.6,0.6-1.1,0.7-1.6c0.4-1.1,0.8-2.2,1-3.4c0.2-1.2,0.2-2.6,0-3.8c-0.2-1.3-0.8-2.6-1.3-3.9c-0.3-1-0.6-1.9-1-2.8
			c-0.5-1.3-1.1-2.6-1.7-3.9c-0.1-0.2-0.6-0.3-0.9-0.5c0.2,2.3,1.2,4.2,2.4,6c0.4,0.7,0.7,1.5,0.8,2.3c0.3,2,1.5,3.9,0.8,5.9
			c-0.5,1.8-1.4,3.4-2.3,5.1c-0.2,0.4-0.9,0.5-1.5,0.6c0.3-2.4,2-4.3,1.6-6.8c-0.4-2.3-0.5-4.7-0.7-7.3c-0.6,0.4-0.8,0.5-1,0.7
			c0.2,0.9,0.5,1.8,0.6,2.7c0.1,2.1,0.7,4.2-0.3,6.2c-0.5,0.9-0.6,2.1-1.1,3.1c-0.4,0.8-0.9,1.7-2.4,1.3c0.4-1,0.8-1.9,1.2-2.8
			c0.2-0.4,0.4-0.8,0.5-1.2c0.3-1.1,0.7-2.2,0.7-3.2c-0.1-1.9-0.4-3.8-1.4-5.6c-0.3-0.5,0.3-1.5-0.9-1.3c0.3-1.5-0.7-2.7-1.3-3.9
			c-0.6-1.3-1.3-2.7-1.9-4c-0.7-1.6-1.5-3.2-2.2-4.8c-0.3-0.7-0.6-1.4-0.8-2.1c-0.3-1-0.6-2.1-0.9-3.2c-0.5-1.7-1.1-3.3-1.4-5
			c-0.2-0.9,0-1.8,0-2.8c0.2,0,0.4-0.1,0.6-0.1c0.3,0.8,0.6,1.7,0.9,2.5c0.1,0.3,0.5,0.4,0.8,0.6v-2.3h1.4c0.3,1.3,0.6,2.7,1,4
			c0.2,0.9,0.5,1.7,0.8,2.6c0.1,0.2,0.5,0.3,0.7,0.4c0.5-0.8,0-1.5-0.2-2.3c-0.2-1.3-0.6-2.6-1-3.9c1.3-0.2,1.7,0.1,1.9,1.1
			c0.3,1.5,0.9,3,1.4,4.5c0.3,1,0.6,2,0.9,3c0.3,0.8,0.6,1.5,0.9,2.2c0.1,0.1,0.4,0.1,0.7,0.2c-0.2,1.6,0.5,2.8,1.3,4
			c0.4,0.6,0.7,1.3,1,1.9c0.8,1.5,1.6,3,2.2,4.5c0.4,0.9,0.6,1.9,1,2.8c0.4,1,0.8,2,1.2,3c0.1,0.4,0.3,0.7,0.3,1.1
			c0,1.9,0.1,3.9,0,5.8C219.7,126.1,219.1,127,218.7,127.9z M220.8,129.3c-0.1,0.2-0.4,0.2-0.7,0.2c-0.1,0-0.3-0.4-0.2-0.5
			c0.1-0.6,0.3-1.3,0.5-1.9c0.6-2.1,1.5-4.3,1-6.5c-0.4-1.8-0.9-3.5-1.6-5.2c-0.5-1.3-1.2-2.5-1.8-3.8c-0.7-1.4-1.4-2.9-2.1-4.3
			c-0.6-1.2-1.2-2.4-1.8-3.6c-0.3-0.7-0.5-1.4-0.8-2c-0.1,0.1-0.3,0.3-0.5,0.4c-0.3-1.3-0.6-2.6-1-3.8c-0.3-0.9-0.8-1.6-1-2.5
			c-0.5-1.5-0.8-3-1.2-4.5c0.1-0.1,0.3-0.1,0.4-0.2c0.4,0.3,1,0.6,1.1,1c0.4,1,0.6,2,0.9,3c0.4,1.1,0.9,2.2,1.3,3.3
			c0.3,0.9,0.6,1.8,1,2.7c0.7,1.5,1.4,2.9,2.1,4.3c0.6,1.3,1.2,2.6,1.8,3.8c0.7,1.4,1.4,2.7,2.1,4.1c0.3,0.6,0.6,1.2,0.9,1.8
			c1.6,3.2,2,6.6,1.6,10.1c-0.1,0.6-0.4,1.2-0.7,1.7C221.8,127.6,221.3,128.5,220.8,129.3z M226.1,126.6c-0.7,1.1-1.6,2-2.6,2.9
			c-0.2,0.2-0.8,0-1.4,0c2.1-3.2,1.9-6.6,1.6-10c-0.1-1.4-0.8-2.8-1.3-4.1c-0.6-1.4-1.2-2.8-1.8-4.1c-0.7-1.3-1.4-2.5-2.1-3.8
			c-0.6-1.3-1.2-2.6-1.8-3.9c-0.4-0.8-0.8-1.6-1.2-2.4c-0.1-0.3-0.2-0.6-0.3-0.8c-0.2-0.4-0.5-0.8-0.6-1.3c-0.1-0.4-0.2-0.9,0-1.3
			c0.2-0.3,0.7-0.4,1.1-0.4c3.8,0,7.5,0,11.3,0c0.2,0,0.4,0,0.7,0c2,0,2,0.1,1.7,1.9c-1.1,0.6-2.3,1.1-3.1,1.8
			c-1.3,1.2-1.1,3.8,0.3,4.9c1.4,1.1,2.9,1.1,4.7,0.1c0.4-0.2,0.9-0.4,1.3-0.6c0.4-0.2,0.8-0.6,1.1-0.8c1,1.4-0.2,2.3-0.6,3.4
			c-0.3,1-0.8,2-1.2,3c-0.1,0.1,0.1,0.4,0.2,0.6c0.5,1.3,0.8,2.5-0.2,3.9c-0.8,1.2-1.2,2.7-1.8,4.1c-0.6,1.3-1.4,2.6-2.1,3.8
			C227.4,124.4,226.9,125.6,226.1,126.6z M225.7,140.6c0.9,0.9,1.9,1.6,2.6,2.6c1.4,2.1,2.7,4.4,4,6.6c0.2,0.3,0.1,0.6,0.1,1
			c-0.5-0.4-1.1-0.7-1.4-1.2c-1.1-1.8-2.1-3.6-3.2-5.3c-0.5-0.8-1.3-1.4-1.9-2.2c-0.3-0.3-0.4-0.8-0.6-1.2
			C225.5,140.8,225.6,140.7,225.7,140.6z M220.4,147.1c0.3,0.1,0.8,0.2,0.9,0.4c0.7,1.3,1.1,1.4,2.2,0.5c0.6,0.2,1.2,0.3,1.7,0.5
			c0.4,0.2,0.7,0.4,1,0.7c-1.6,0-3.2,0.1-4.9-0.1c-0.5,0-1-0.7-1.3-1.2C219.9,147.9,220.3,147.4,220.4,147.1z M215.3,165.3
			c0.1,0,0.3,0,0.4,0c0.1,2.6,0.2,5.2,0,7.8c-0.1,0-0.3,0-0.4,0V165.3z M214.8,165c-0.7-1.6-1.4-3-2-4.4
			C214.8,161.7,215.4,163.2,214.8,165z M210.1,183.9c-0.2-0.2-0.5-0.3-0.7-0.5c0.9-0.8,1.7-1.7,2.6-2.5
			C212.2,182.4,210.7,182.9,210.1,183.9z M214.6,176.9c-0.5,0.7-0.6,1.6-1.1,2.3c-0.4,0.6-1,1-1.5,1.5c0.3-0.8,0.6-1.7,0.9-2.5
			c0.6-1.5,1.3-2.9,1.9-4.2C215.3,174.9,215.2,176,214.6,176.9z M218.4,181.6c-0.6,0.3-1.1,0.7-1.7,1.1c-0.4,0.2-0.8,0.4-1.4,0.7
			c0-1.3-0.1-2.4,0-3.3c0-0.4,0.5-0.8,0.8-1c0.6-0.5,1.3-0.8,2-1.2c0.2-0.1,0.5,0,0.6,0.1C219.4,178.3,219,181.3,218.4,181.6z
			 M217.8,158.1c0.6,0.3,1.1,0.5,1.4,0.8c0.3,0.3,0.6,0.7,0.7,1.1c0.1,0.5,0,1-0.1,1.4c-0.1,0.4-0.3,1.2-0.5,1.2
			c-0.6,0-1.3-0.1-1.7-0.5C216.3,161,216.5,159.7,217.8,158.1z M219.5,173.7c-1.9-3.2-1.5-2.8,0.7-6.2c0.6,1,1.2,1.9,1.8,2.8
			C221.3,171.4,220.4,172.5,219.5,173.7z M225.2,172.3c-0.6,1.9-0.2,3.9-1.3,5.7c-0.5,0.9-0.5,2-0.9,3c-0.4,0.8-0.9,1.5-1.4,2.2
			c0.3-1.3,0.7-2.5,1-3.8c0.2-0.6,0.4-1.2,0.6-1.8c1-2.1,0.5-4.5,1-6.7c0.2-0.9-0.1-1.7,0-2.3c0.2-0.9-0.3-1.6-0.2-2.5
			c0.2-2.2-0.4-4.2-1.4-6.2c-0.4-0.7-0.6-1.5-0.9-2.3c-0.8-2.5-2.1-4.6-3.9-6.4c0.1-0.1,0.1-0.2,0.2-0.4c0.4,0.2,0.8,0.3,1.2,0.6
			c1.3,1,1.9,2.4,2.4,3.8c0.6,1.5,1.6,2.9,2.2,4.4c0.5,1.3,0.6,2.7,0.9,4c0.2,1.2,0.6,2.3,0.7,3.5
			C225.4,168.9,225.7,170.8,225.2,172.3z M226.4,154.1c0.8-1.1,0.9-2.1,0.1-3.3c-0.3-0.4-0.2-1-0.2-1.5c0.7,0.5,1.5,0.9,1.4,2
			c-0.1,1.3,0.4,2.6-0.6,3.9c-0.4,0.5,0.3,1.9,0.5,2.8c0.1,0.2,0.2,0.5,0.3,0.7c-1,0.2-1.6,0-1.5-1.2c0-0.3,0-0.6-0.1-0.8
			C224.8,155.7,225.8,154.9,226.4,154.1z M229.7,179.1c-2.6,0.9-3,2.7-2.7,4.9c0,0.2,0,0.5,0,0.7c-1.5-0.6-1.7-1.1-0.9-2.4
			c0,0,0.1-0.1,0.1-0.1c0.3-1.2,0.7-2.4,1-3.6c1-0.1,1.9-0.2,2.9-0.4C229.9,178.6,229.9,179.1,229.7,179.1z M230.1,178.3
			c0.1-0.4,0.1-0.8,0.3-1.2c0.2-0.5,0.5-1,0.6-1.5c0.4-1.6-0.9-2.4-1.7-3.4c-0.3-0.4-0.6-0.9-0.7-1.4c-0.1-0.9,0.1-1.8-0.1-2.7
			c-0.2-1.1,0.5-1.7,1.2-2.2c1.5-1.2,1.8-3.4,0.4-4.7c-0.5-0.5-1.1-0.7-1.7-1c-0.4-0.2-0.9-0.2-1.3-0.3c0.2-0.4,0.5-0.8,0.7-1.3
			c0.8,0.5,1.8,0.8,2.5,1.5c0.8,0.8,1.5,1.9,2.1,2.9c0.1,0.2-0.1,0.7-0.2,1.1c0,0.1-0.3,0.2-0.3,0.3c-0.1,1.5-1.4,2-2.2,3
			c-0.6,0.8-0.5,2.7,0,3.8c0.5,1.3,1.8,2.2,2.6,3.3C232.9,175.7,231.4,178.2,230.1,178.3z M233.5,154.6c-0.2-1.3-1.4-2.3-1-3.7
			c0.2,0,0.5,0.1,0.6,0.2c0.3,1.2,0.6,2.5,1,3.8C233.9,154.8,233.5,154.7,233.5,154.6z M236.2,176.8c-0.1,0-0.2,0-0.3,0v-2
			c0.1,0,0.2,0,0.3,0V176.8z M237.1,171.7c-0.8-1-0.8-5.5,0-6.7V171.7z M235.7,160.4c0.2,0.2,0.6,0.5,0.6,0.7
			c0.2,1.1,0.3,2.1,0.4,3.2c0,0.2-0.4,0.5-0.6,0.7c-0.1,0-0.3-0.1-0.4-0.1V160.4z M235.5,157.9c0.1,0.8,0.1,1.6,0.1,2.4
			c-0.2-0.3-0.6-0.5-0.6-0.8c-0.1-0.7-0.1-1.5-0.1-2.3C235.1,157.5,235.5,157.7,235.5,157.9z M234.8,157.2c-0.2-0.2-0.6-0.4-0.6-0.6
			c-0.1-0.5-0.1-1.1-0.1-1.7C235.4,155.3,234.6,156.4,234.8,157.2z M250.1,125c-0.5-0.6-0.9-1.2-1.4-1.8c-1.1-1.2-2.1-1.1-2.8,0.3
			c-0.9,1.7-1.8,3.4-3.2,4.7c-0.6,0.6-1,0.7-1.4-0.2c-0.2-0.5-0.5-1-0.9-1.4c-1.3-1.4-2.4-3-3.2-4.6c-0.4-0.7-1-0.5-1.6,0
			c-1.6,1.4-3.2,2.8-4.9,4.1c-0.2,0.2-0.7,0.1-1.2,0.1c1.5-1.6,2.8-3.1,4.1-4.6c0.8-1,1.5-2.2,2.3-3.3c0.3-0.4,0.8-0.7,1.2-1.1
			c0.4,2.7,1.4,5,3.1,6.9c0.1,0.1,0.1,0.4,0.2,0.6c0.4,1,1.7,1.2,2.5,0.5c2-1.8,3.2-4.1,4.2-6.6c1.2,2,2.4,3.9,3.6,5.9
			C250.5,124.7,250.3,124.8,250.1,125z M250.8,120.9c-0.3-0.8-0.6-1.5-1-2.3C251.2,118.9,251.5,119.5,250.8,120.9z"/>
		<path d="M172.6,129.6C172.6,129.6,172.6,129.6,172.6,129.6C172.6,129.6,172.6,129.6,172.6,129.6L172.6,129.6z"/>
		<path d="M199.4,127.2C199.4,127.2,199.4,127.2,199.4,127.2C199.4,127.2,199.4,127.2,199.4,127.2L199.4,127.2z"/>
		<path d="M145,132C144.9,132,144.9,132,145,132C144.9,132,144.9,132,145,132L145,132z"/>
		<path d="M188.3,125.7C188.3,125.7,188.3,125.7,188.3,125.7C188.4,125.7,188.4,125.7,188.3,125.7L188.3,125.7z"/>
		<path d="M171,108.3C171,108.3,171,108.3,171,108.3C171,108.3,171,108.3,171,108.3L171,108.3z"/>
		<path d="M201.7,114.6C201.7,114.6,201.8,114.6,201.7,114.6C201.8,114.6,201.8,114.6,201.7,114.6L201.7,114.6z"/>
	</g>
</g>
<path d="M141.1,38.1c-0.3-3-1.3-5.7-3-8.4c-2-3.1-4.9-4.8-7.8-6.3c-2.2-1.1-5-1.6-7.4-1.2c-3.9,0.6-7.6,2-9.8,5.4
	c-1.5,1.2-2.8,2.6-3.1,4.8c-0.2,1.8-0.9,3.5-1.6,6c-0.6-1-1.2-1.6-1.4-2.3c-0.6-1.7-0.8-3.5-1.6-5.1c-2.1-4.3-6.2-6-10.5-6.7
	c-2.4-0.4-5.2,0.1-7.4,1.2c-2.9,1.5-5.8,3.2-7.8,6.3c-1.7,2.7-2.7,5.4-3,8.4c-0.6,5.9,0.5,11.5,3.3,16.9c1.8,3.6,3.7,7.2,5.9,10.6
	c2.3,3.4,4.6,6.8,7,10.2c1.5,2.1,3.2,4.2,4.7,6.3c1.9,2.8,3.8,5.6,5.7,8.4c1.8,2.6,3.5,5.2,5.5,8c0.4-0.2,1.1-0.4,1.4-0.8
	c0.9-1.5,1.6-3,2.5-4.5c2-3.5,4-7.1,6.2-10.6c1.3-2.1,2.7-4.1,4.1-6.1c0,0,0-0.1,0-0.1c0.7-0.9,1.4-1.9,2.1-2.8
	c2.4-3.4,4.7-6.8,7-10.2c2.3-3.4,4.1-6.9,5.9-10.6C140.6,49.6,141.7,44,141.1,38.1z"/>
</svg>
