<?xml version="1.0" encoding="utf-8"?>
<!-- Generator: Adobe Illustrator 17.1.0, SVG Export Plug-In . SVG Version: 6.00 Build 0)  -->
<!DOCTYPE svg PUBLIC "-//W3C//DTD SVG 1.1//EN" "http://www.w3.org/Graphics/SVG/1.1/DTD/svg11.dtd">
<svg version="1.1" id="Layer_1" xmlns="http://www.w3.org/2000/svg" xmlns:xlink="http://www.w3.org/1999/xlink" x="0px" y="0px"
	 viewBox="0 0 288 216" enable-background="new 0 0 288 216" xml:space="preserve">
<g>
	<path d="M58.6,160.4c-0.3-0.1-0.7-0.1-1-0.2c-2.2-0.4-3.3-1.6-3.6-3.8c-0.1-0.8-0.1-1.7-0.2-2.6c-2.9,1.2-5.6,0.2-8.3-0.8
		c-5.1-1.9-9-5.3-12.3-9.5c-4.1-5.1-6.5-10.9-7.3-17.4c-1.1-8.4,0.5-16.2,4.5-23.6c2.2-4.2,4.3-8.5,7-12.3c2.5-3.5,5.1-6.9,7.6-10.3
		c0.1-0.1,0.1-0.2,0.2-0.2c-0.5-1-1.1-2.1-1.6-3.1c-0.1,0.1-0.2,0.2-0.2,0.3c-0.4,0.5-0.8,0.4-1-0.1c-0.3-0.8-0.5-1.6-0.8-2.5
		c-0.6,0.2-0.9-0.3-1-0.8c-0.3-1.1-0.5-2.2-0.6-3.4c-0.1-1,0-1.9,0-3c-2.9,2.4-6.2,2.4-9.5,2.4c-0.8,0-0.8,0-0.9-0.9
		c-0.7,0.2-1.3,0.4-2,0.5c-0.3,0.1-0.7-0.1-1-0.2c0.1-0.3,0.3-0.6,0.4-0.9c0.1-0.1,0.2-0.2,0.3-0.3c-0.9-0.3-1.8-0.6-2.6-1
		c-3.5-1.6-6.7-3.5-9-6.6c-2.4-3.3-3.7-7-4.5-10.9C11,48,10.9,47,10.7,46.1c-0.1,0-0.1,0-0.2,0c-0.3,0.1-0.6,0.3-0.9,0.4
		c-0.1-0.4-0.3-0.8-0.3-1.1c0.1-1.1,0.3-2.2,0.5-3.2c-0.4-0.1-0.7-0.1-1.1-0.2c0-0.1,0-0.2,0-0.3c0-0.1,0.1-0.2,0.1-0.3
		c0.6-1.8,0.9-3.8,1.7-5.5c3.3-7,8.8-11.6,16.2-13.9c1-0.3,2.2-0.3,3.5-0.5c-0.4-0.3-0.7-0.5-0.9-0.7c-0.2-0.1-0.2-0.3-0.4-0.5
		c0.2-0.1,0.4-0.3,0.6-0.3c0.5,0,1,0.1,1.5,0.3c0.5,0.2,1,0.4,1.4,0.6c-0.1-0.4-0.1-0.7-0.2-1c0.4,0,0.7-0.1,1.1,0
		c0.6,0.2,1.3,0.5,1.9,0.9c1.6,1.1,3.5,1.8,5.3,2.4c3.4,1.1,6.3,2.9,8.3,6c0.4,0.6,0.6,1.3,0.9,2c3.4-4.1,8.3-5.7,13.2-7.1
		c-0.3-0.1-0.6-0.1-0.8-0.2c-0.4-0.2-0.7-0.4-1.1-0.6c0.4-0.2,0.8-0.7,1.2-0.7c1.3,0,2.6,0.2,3.9,0.4c0.9,0.2,1.5,0,2.2-0.6
		c1.1-0.9,2.3-1.7,3.6-2.5c0.2-0.1,0.5-0.1,0.8-0.1c0,0.3,0.1,0.6,0,0.9c-0.2,0.6-0.4,1.1-0.6,1.6c0.9-0.2,1.8-0.4,2.6-0.5
		c0.7-0.1,1.4-0.1,2.1-0.1c0.2,0,0.5,0.1,0.7,0.2c-0.1,0.2-0.2,0.4-0.3,0.6c-0.4,0.4-0.9,0.7-1.4,1.2c3-0.2,5.7,0.4,8.3,1.8
		c0.1-0.3,0.2-0.6,0.3-0.8c0.9-2,2.1-3.9,3.8-5.3c2.2-1.8,4.8-2.6,7.5-3.2c1.4-0.3,2.8-0.6,4.2-0.8c0-0.1,0-0.1,0-0.2
		c-0.2-0.1-0.5-0.2-0.7-0.3c-0.2-0.1-0.4-0.3-0.6-0.4c0.2-0.1,0.5-0.3,0.7-0.3c1.2,0.1,2.3,0.2,3.5,0.3c-0.1-0.3-0.9-0.6-0.2-1.1
		c0,0,0.1,0,0.1,0c1.2,0.6,2.4,1.2,3.5,1.8c0.2,0.1,0.4,0.2,0.7,0.2c2.9,0.5,5.4,1.8,7.9,3.3c2.8,1.7,5.2,3.6,6.6,6.7
		c0.1,0.2,0.3,0.4,0.5,0.8c0.1-0.3,0.1-0.4,0.1-0.5c0.1-0.2,0.2-0.5,0.3-0.7c0.2,0.2,0.6,0.3,0.7,0.6c0.3,0.8,0.7,1.7,0.8,2.6
		c0,1.3,0.4,2.5,0.7,3.7c0.4,1.2,0.5,2.4,0.7,3.6c0,0.6,0,1.2,0,1.7c-0.1,1.1-0.3,2.2-0.4,3.3c-0.5,3.9-2.4,7.2-5,10.1
		c-0.4,0.4-0.9,0.7-1.4,1.1c-0.3,0.2-0.6,0.5-0.8,0.8c0.4-0.1,0.8-0.2,1.2-0.2c0.2,0,0.5,0,0.7,0.1c-0.1,0.2-0.1,0.6-0.3,0.7
		c-0.5,0.5-1.1,0.9-1.7,1.2c-4.1,2.5-8.5,3.1-13.1,2.3c-0.1,0-0.1,0-0.3,0c0.3,1.1,0.6,2.2,0.9,3.3c1,2.9,1.4,5.8,1.1,8.8
		c0,0.4-0.1,0.9-0.2,1.3c-0.1,0.8-0.3,0.9-1.1,0.5c-0.1,0-0.2-0.1-0.3-0.1c-0.1,1-0.1,1.9-0.2,2.9c-0.1,0.5-0.3,1-0.5,1.4
		c-0.1,0.2-0.3,0.4-0.5,0.4c-0.2,0-0.3-0.2-0.4-0.4c-0.1-0.2-0.2-0.4-0.3-0.7c-0.4,0.6-0.7,1-0.9,1.5c-0.7,1.3-1.6,2.3-2.8,3.2
		c-4.2,3.4-9.1,5.4-14.4,6.4c-0.5,0.1-1.1,0.2-1.6,0.3c0.4,0.9,0.9,1.8,1.2,2.7c0.4,1,0.2,1.2-0.9,1c0.2,0.4,0.3,0.8,0.4,1.2
		c0.1,0.5,0.2,0.9,0.2,1.4c0,0.9-0.1,1-0.9,1.1c0,0.1,0,0.2,0,0.3c0,0.4,0,0.8,0,1.2c0.2-0.1,0.4-0.1,0.5-0.2
		c1.6-0.9,3.3-0.9,5.1-0.9c1.6,0.1,3.1,0.1,4.7,0.1c0.3,0,0.6,0,0.7,0c0.2-1.2,0.3-2.3,0.6-3.4c0.2-0.8,0.6-1.3,1.3-1.7
		c0.3-0.2,0.5-0.6,0.7-0.9c0.2-0.2,0.3-0.4,0.6-0.6c0.1,0.2,0.2,0.3,0.2,0.4c0.1,0.7,0.2,1.3,0.8,1.7c0.2,0.2,0.4,0.6,0.4,0.9
		c0,0.6,0.4,0.9,0.9,0.9c0.8,0,1.6-0.1,2.3-0.2c1.2-0.2,2.4-0.5,3.6-0.7c0.6-0.1,1.2-0.1,1.9-0.1c0.2,0,0.5,0.1,0.7,0.2
		c0.1,0.1,0,0.4-0.1,0.6c-0.6,0.9-1.2,1.8-1.8,2.7c1.3,0.1,2.7,0.2,4.3,0.3c-0.5,1.3-1.4,2.3-2.6,3.3c0.4,0.1,0.7,0.2,1,0.3
		c0.2,0.1,0.4,0.2,0.7,0.3c-0.1,0.2-0.2,0.4-0.3,0.6c-2,2.6-5,3.1-8,3.6c-1.3,0.2-2.6,0.3-3.8-0.1c-0.1,0-0.3,0-0.4,0.1
		c-2.2,2.5-5.1,3.9-8.2,5c-3,1.1-6,1.8-9.2,1.8c-0.4,0-0.6,0.1-0.7,0.5c-0.8,4.3-1.4,8.6-1.6,13c0,0.5,0.2,0.7,0.6,0.8
		c1.7,0.8,3.4,1.7,4.7,3.1c1.9,1.8,2.5,4.2,2.6,6.7c0.1,3.9-1,7.4-3,10.7c-0.5,0.8-1.2,1.5-1.8,2.2c1,0.2,2,0.7,2.8,1.5
		c1.1,1.2,1.2,2.7,0.1,3.9c-0.3,0.3-0.6,0.6-0.9,0.8c-1.6,1-3.1,2-4.8,2.8c-3.9,1.7-7.9,3.3-11.8,4.9c-1.6,0.7-3.3,1.2-5.1,1.3
		c-0.1,0-0.2,0.1-0.3,0.1C59.6,160.4,59.1,160.4,58.6,160.4z M62.9,136.3c0.1,0,0.1,0.1,0.2,0.1c-0.1,0.3-0.3,0.5-0.4,0.8
		c-2.4,4-4.6,8.1-6.3,12.5c-0.7,1.9-1.3,3.9-1.1,6c0.1,1.8,1,2.7,2.7,2.9c1.9,0.2,3.8,0,5.5-0.7c4.5-1.8,9.1-3.6,13.6-5.4
		c0.8-0.3,1.5-0.6,2.2-1.1c0.3-0.2,0.6-0.8,0.6-1.1c0-0.3-0.5-0.7-0.8-0.8c-0.5-0.2-1.2-0.3-1.7-0.4c-0.8-0.1-1.5-0.2-2.3-0.3
		c0-0.1,0-0.1,0-0.2c1.1-0.5,2.3-0.7,3.6-0.5c1.3,0.2,2.2,0.9,2.7,2.2c1.7-1.5,1.5-2.8-0.5-3.7c-1.4-0.6-2.8-0.2-4.1,0.3
		c-1.4,0.6-2.9,1.2-4.3,1.7c-0.2,0.1-0.4,0.1-0.7,0.1c1.2-1,2.5-1.9,3.8-2.7c0.6-0.4,1.3-0.7,2-0.9c1.1-0.2,1.8-1,2.4-1.8
		c2.2-3.2,3.5-6.6,3.6-10.5c0.1-2.9-0.5-5.6-3-7.4c-0.7-0.5-1.5-1-2.3-1.4c-5.6-3-11.7-4-18-3.9c-5.2,0.1-10.2,1.3-14.7,4
		c-2.6,1.5-5.2,3.1-6.6,6c0,0-0.1,0-0.3,0.1c0.2-0.6,0.3-1.2,0.6-1.7c1.1-2.2,2.9-3.8,4.9-5.1c4.9-3.2,10.4-4.5,16.1-4.7
		c0.8,0,1.5,0,2.1,0c-0.4-2.2-0.8-4.3-1.2-6.4c-0.7-0.3-0.8-0.3-0.6-1.2c0.2-0.8,0.4-1.5,0.5-2.3c-1.1,0.2-1.3,0-1.1-1
		c0.3-1.2,0.6-2.3,0.9-3.5c-1.9-0.8-3.7-1.9-4.8-3.8c-1.1-1.9-1.5-3.9-1.2-6.1c0.1,0.1,0.2,0.1,0.2,0.1c0,0.2,0.1,0.3,0.1,0.5
		c0.9,4,2.9,6.9,6.9,8.3c5.2,1.9,10.6,2.8,16.1,3.2c6.3,0.4,12-1.8,17.2-5.2c1.1-0.7,2.2-1,3.4-1.1c2.3,0,4.6-0.4,6.7-1.3
		c0.7-0.3,1.4-0.8,2.1-1.1c-0.8-1.4-2.2-0.5-3.3-1.3c0.6-0.2,1.1-0.3,1.5-0.5c0.7-0.3,1.3-0.6,2-0.9c0.2-0.1,0.3-0.4,0.5-0.7
		c-0.3-0.1-0.5-0.3-0.8-0.4c-0.8-0.1-1.6,0-2.4-0.1c-0.7,0-1.4-0.1-2.1-0.2c0-0.1,0-0.2-0.1-0.3c0.3-0.2,0.6-0.3,1-0.5
		c0.6-0.3,1.2-0.5,1.7-0.9c0.3-0.3,0.5-0.7,0.7-1.1c-0.4-0.1-0.9-0.3-1.3-0.2c-1.4,0.2-2.8,0.6-4.1,0.8c-1.6,0.3-2.7-0.3-3.5-1.6
		c-0.2-0.3-0.7-0.8-0.9-0.8c-0.4,0.1-0.8,0.5-0.9,0.9c-0.3,1-0.4,2.1-0.6,3.1c0,0.2-0.2,0.5-0.3,0.5c-1.7,0.8-3.5,1.1-5.4,1
		c-1.2-0.1-2.4-0.1-3.6,0c-0.9,0.1-1.7,0.4-2.6,0.6c-0.4,0.1-0.8,0.1-1.1,0c-0.5-0.3-1-0.8-1.5-1.1c-1.9-1.2-3.7-2.4-5.6-3.5
		c-3.8-2.3-7.9-3.7-12.5-3.1c-2.6,0.4-4.8,1-6.4,3.1c-0.1,0.2-0.4,0.3-0.7,0.5c0.6-1.7,1.6-3.4,4.1-4.3c-4.8-1.2-9.4-2.9-13.2-6.3
		c-0.8,1.2-1.5,2.3-2.4,3.5c-1.8,2.6-3.8,5.1-5.5,7.8c-3.1,4.8-5.9,9.8-8.1,15.1c-2.7,6.5-3.6,13.3-2.3,20.2
		c0.8,4.4,2.3,8.6,4.7,12.4c0.3,0.5,0.7,1.1,1.1,1.6c0.4,0.5,0.8,1.1,1.2,1.6c0.4,0.5,0.8,0.9,1.2,1.4c-0.9-2.9-1.3-5.7-0.4-8.6
		c0.2,0.8,0.3,1.7,0.3,2.5c0.4,3.6,1.6,6.8,4,9.5c1.7,2,4.1,3,6.6,4c2,0.8,4.1,1.3,6.3,1c1.2-0.1,1.2-0.2,1.4-1.3
		c0.1-0.3,0.1-0.7,0.2-1c1.5-4.3,3.7-8.4,6.6-11.9C61.8,137.7,62.3,137,62.9,136.3z M78.6,84.6c1.6-0.3,3.2-0.6,4.7-0.9
		c4.3-0.8,8.4-1.9,12.1-4.5c2.4-1.6,4.7-3.3,6.3-5.8c0.2-0.3,0.4-0.5,0.6-0.7c0.3-0.3,0.6-0.4,0.9,0c0.1,0.1,0.2,0.2,0.3,0.3
		c0.1,0,0.2,0,0.2,0c0-1,0-1.9,0-2.9c0-1.2,0.1-1.2,1.3-1c0,0,0.1,0,0.3-0.1c-0.1-1.6,0-3.3-0.3-4.9c-0.4-2.3-1.1-4.5-1.8-6.8
		c-0.9-2.9-1.7-5.7-2.8-8.5c-1.6-3.9-3.4-7.7-5.3-11.5c-1.8-3.5-4.2-6.5-7.6-8.7c-4-2.6-8.2-4.2-13-4.2c-0.1,0-0.3-0.1-0.3-0.1
		c0-0.1,0-0.3,0.1-0.4c0.5-0.5,1-0.9,1.4-1.3c0-0.1,0-0.1-0.1-0.2c-0.8,0.2-1.6,0.4-2.4,0.6c-0.5,0.1-0.9,0.4-1.4,0.6
		c-0.2,0.1-0.6,0.1-0.7,0c-0.1-0.1-0.1-0.5-0.1-0.7c0.1-0.5,0.3-0.9,0.4-1.3c-0.9,0.5-1.6,1-2.3,1.7c-0.9,0.9-1.9,1.1-3.1,0.8
		c-0.8-0.2-1.6-0.4-2.3-0.6c0.1,0.2,0.2,0.3,0.3,0.4c0.2,0.3,0.4,0.6,0.7,1c-0.3,0.2-0.6,0.5-0.9,0.6c-1.4,0.5-2.8,0.8-4.2,1.3
		c-3.4,1.2-6.5,2.8-8.8,5.7c-0.4,0.5-0.9,1-0.9,1.7c0,0.1-0.2,0.3-0.2,0.3c-0.6-0.2-0.6,0.3-0.8,0.6c-1.8,2.8-3,5.9-4.1,9
		c-1,3-2.3,5.9-2.7,9.1c-0.4,3.3-0.6,6.6-1,9.9c0,0.2,0,0.6,0.1,0.7c0.7,0.3,0.3,0.8,0.2,1.2c-0.1,0.3-0.2,0.6-0.2,0.9
		c0,1.8,0,3.5,0.1,5.3c0,0.5,0.2,0.9,0.2,1.4c0.8-0.5,1.1-0.4,1.3,0.4c0.1,0.4,0.1,0.7,0.1,1.1c0.1,0.6,0.1,1.1,0.2,1.8
		c0.3-0.2,0.4-0.4,0.5-0.5c0.5-0.4,0.8-0.3,0.9,0.3c0.5,2,1.7,3.5,3.2,4.8c2.2,1.9,4.7,3.1,7.4,4.1c2.5,0.9,4.9,1.8,7.6,1.7
		c3-0.1,6.1-0.3,9.1-0.4c0.9-0.1,1.8-0.3,2.6-0.4c-0.3-0.4-0.5-0.8-0.8-1.1c0-0.1,0.1-0.1,0.1-0.2c2.3,1.5,4,0.5,5.6-1.2
		c0,0.1,0.1,0.1,0.1,0.2C79.1,83.4,78.9,83.9,78.6,84.6z M10.2,45.1c1.1-0.4,1.4-0.3,1.4,0.5c0.1,2.6,0.9,5,1.7,7.4
		c1.3,3.8,3.3,7.1,6.6,9.5c2.4,1.7,5.1,2.8,7.8,3.8c0.3,0.1,0.7,0.2,0.8,0.5c0.1,0.2,0,0.6,0,0.9c2-0.6,2-0.6,2.1,0.6
		c0.6,0,1.3-0.1,1.9-0.1c2.5-0.3,4.9-0.9,6.8-2.9c0.2-0.2,0.3-0.6,0.3-0.9c0.1-1.5,0-3.1,0.2-4.6c0.6-4,1.1-8,2.2-11.9
		c1.5-5.3,3.2-10.5,6.3-15.1c0.1-0.2,0.1-0.5,0-0.7c-0.4-0.9-0.8-1.8-1.3-2.6c-1.7-2.4-4.2-3.9-6.9-4.9c-2-0.7-4-1.5-5.7-2.9
		c-0.3-0.2-0.6-0.4-1-0.6c0,0.3,0.1,0.6,0,0.7c-0.1,0.2-0.2,0.5-0.4,0.7c-0.1,0.1-0.4-0.2-0.6-0.3c-0.4-0.3-0.8-0.6-1.3-0.9
		c0.3,1.3,0,1.6-1.2,1.7c-0.2,0-0.5,0-0.7,0.1c-1,0.1-2,0.1-2.9,0.5c-6.9,2.3-12,6.7-15.3,13.2c-0.6,1.2-0.9,2.5-1.3,3.9
		c1.1-0.3,1.3-0.1,1.1,0.8C10.8,42.6,10.5,43.8,10.2,45.1z M100.9,14.6c-0.1,0-0.1,0.1-0.2,0.1c0.6,0.7,0.1,1-0.4,1.1
		c-1.6,0.4-3.2,0.9-4.8,1.2c-4.8,0.9-8.5,3.3-10.6,7.9c-0.1,0.2-0.2,0.5-0.3,0.7c2.7,1.5,5.4,3,7.5,5.4c0.3-0.9,0.5-1.7,0.8-2.5
		c1.1-3.2,3.1-5.5,6.4-6.6c4.7-1.4,9.1-0.9,13.3,1.6c2.4,1.4,3.9,3.5,4.5,6.2c-0.2-0.3-0.4-0.5-0.5-0.8c-0.5-0.7-0.9-1.5-1.4-2.1
		c-3.1-3.3-7-4.8-11.6-4.6c-2.9,0.1-5.5,0.9-7.5,3.2c-1.7,1.9-2.4,4.2-2.9,6.6c0,0.1,0,0.3,0.1,0.4c0.5,0.7,1,1.4,1.6,2.1
		c0.5-0.7,1-1.3,1.6-1.9c3.3-3.5,7.3-4.9,12.1-4c0.1,0,0.3,0.2,0.3,0.2c0,0.1-0.1,0.3-0.2,0.4c-0.1,0.1-0.3,0.1-0.5,0.1
		c-3.5,0.8-6.3,2.5-8.2,5.5c-0.8,1.4-1.4,2.9-2.1,4.4c-0.1,0.2,0,0.4-0.1,0.7c0.7-0.5,1.3-1,1.9-1.3c3-1.7,6.2-1.9,9.4-1.1
		c0.2,0.1,0.4,0.4,0.6,0.5c-0.2,0.1-0.4,0.4-0.6,0.4c-1.9,0.5-3.8,0.9-5.6,1.5c-1.5,0.5-2.8,1.4-3.8,2.7c-0.4,0.6-0.2,1.2,0.6,1.4
		c1,0.2,1.9,0.5,2.8,0.8c0.2,0.1,0.4,0.4,0.6,0.6c-0.3,0.1-0.5,0.3-0.8,0.4c-0.7,0.1-1.4,0.1-2.1,0.2c0.5,1.2,0.9,2.3,1.3,3.3
		c0.2,0.4,0.5,0.7,0.8,0.9c1.5,0.8,3,0.6,4.3-0.3c1.2-0.9,2.1-2,3.2-3c0.2-0.2,0.4-0.3,0.5-0.5c0.1,0.1,0.1,0.1,0.2,0.2
		c-0.6,1.7-1.5,3.1-3,4.2c-1.5,1.1-3.2,1.5-5.2,0.9c0.4,1.2,0.7,2.2,1,3.3c0.1,0.2,0.3,0.3,0.5,0.3c1.1,0.1,2.2,0.1,3.2,0.2
		c2,0.2,3.9,0,5.8-0.7c1.4-0.5,2.7-1.1,4-1.6c0-0.1,0-0.1-0.1-0.2c-0.1,0-0.3,0-0.4,0c-0.3-0.1-0.6-0.2-0.7-0.3
		c-0.1-0.2,0-0.6,0.2-0.8c0.3-0.3,0.6-0.7,0.9-0.9c2.3-1.4,3.6-3.6,4.8-5.9c1.7-3.1,1.9-6.5,2-9.9c0-1.8-0.2-3.5-0.9-5.1
		c-0.1-0.3-0.1-0.7-0.1-1c-0.1-0.9-0.1-1.8-0.2-2.9c-0.9,1-1,1-1.6,0.1c-0.3-0.4-0.5-0.8-0.8-1.2c-0.6-0.9-1.2-2-1.9-2.7
		c-3.2-3.2-7.1-5.3-11.5-6.4c-0.5-0.1-1-0.4-1.5-0.7c-0.6-0.3-1.2-0.7-1.8-1.1c0,0.3,0,0.3,0,0.4c0,0.3-0.1,0.5-0.1,0.8
		c-0.3-0.1-0.5-0.2-0.8-0.3C102.2,15,101.6,14.8,100.9,14.6z M75.4,121.1c0.6-4.3,1.2-8.7,1.8-13.2c-5.1-0.7-10.3-1.3-15.4-3.3
		c-0.2,0.9-0.5,1.8-0.7,2.8c0.9-0.4,1.3-0.2,1.2,0.7c-0.1,1-0.3,2.1-0.4,3.1c0.1,0,0.1,0,0.2-0.1c0.2,0.3,0.4,0.7,0.5,1
		c0.4,2.1,0.8,4.1,1.2,6.2c0.1,0.4,0.3,0.6,0.7,0.6c1.1,0.1,2.2,0.2,3.2,0.4C70.2,119.9,72.9,120.5,75.4,121.1z M81.7,93.5
		c0-0.6,0-1.1,0-1.5c0-0.3,0-0.7,0.1-0.9c0.2-0.2,0.5-0.2,0.9-0.3c-0.2-0.6-0.4-1.2-0.7-1.7c-0.5-1.1-0.5-1.2,0.8-1.3
		c0,0,0.1-0.1,0.2-0.1c-0.3-0.5-0.6-1.1-0.8-1.6c-0.2-0.5-0.5-0.6-1-0.5c-3.1,0.4-6.1,0.8-9.2,1.2c-0.7,0.1-1.5,0.1-2.2,0.2
		C74.2,88.4,77.8,91,81.7,93.5z M97.3,38.8c1.5-4.4,3.9-7.8,8.3-9.4c-0.2-0.1-0.2-0.1-0.2-0.1c-4.2,0.3-7.4,2.4-9.7,5.8
		c-0.1,0.1-0.1,0.4-0.1,0.6C96.2,36.7,96.7,37.6,97.3,38.8z M106.3,38c-0.4,0-0.9,0-1.3,0c-2.4,0.1-4.6,0.7-6.3,2.4
		c-0.2,0.2-0.3,0.5-0.3,0.6c0.1,0.4,0.3,0.7,0.5,1.1C100.8,39.8,103.5,38.9,106.3,38z"/>
	<path d="M81,54.2c0.9,2.2,2,4.4,2.8,6.7c0.7,1.9,1.3,3.9,1.6,5.9c0.2,1.4,0,3-0.7,4.3c-0.7,1.3-2,1.9-3.4,2.4
		c-3.5,1.2-7,1.2-10.5-0.4c-3.3-1.6-4.9-4.3-4.4-8c0.5-3.1,1.2-6.2,2-9.2c0.4-1.5,1-3.1,2.6-3.9c2.5-1.3,5.1-1.3,7.5,0.1
		C79.4,52.6,80.2,53.5,81,54.2L81,54.2z"/>
	<path d="M59.7,59c-2.9,0-4.5-1.2-5.2-3.2c-0.7-2,0.1-4.4,1.8-5.7c1.1-0.8,2.1-1.5,3.5-1.7c2.4-0.2,4.5,0.8,5.4,2.8
		c0.9,2,0.3,4.4-1.5,6C62.4,58.4,60.9,59,59.7,59z M64.8,53.3c0-2-1.2-3.5-3.2-3.9c-2.1-0.4-3.8,0.2-5.2,1.8c-1.1,1.2-1.4,2.7-1,4.3
		c0.4,1.5,1.5,2.4,3,2.7C61.6,58.6,64.8,56.2,64.8,53.3z"/>
	<path d="M81,54.2c-0.1-1-0.5-1.9-0.4-2.9c0.1-2.1,1.6-3.5,3.7-4c2.9-0.7,5.7,1.4,6.5,3.4c0.8,1.8,0.6,3.5-0.6,5.1
		c-1.3,1.6-3.1,1.7-4.9,1.4c-1.7-0.3-3.1-1.2-4.1-2.7C81.2,54.4,81.1,54.3,81,54.2C81,54.2,81,54.2,81,54.2z M86.3,56.5
		c1.6,0,2.9-0.4,3.6-1.7c0.7-1.4,0.7-2.9-0.1-4.2c-1.1-1.7-3.2-2.7-5.2-2.3c-2.8,0.5-4.2,3.6-2.5,6C83.1,55.7,84.6,56.4,86.3,56.5z"
		/>
	<path d="M52.4,46.5c-0.4-0.8-0.2-1.5,0.1-2.2c1.3-2.4,3.6-3.5,6.2-3.9c0.8-0.1,1.7-0.1,2.5,0c0.3,0,0.7,0.3,0.9,0.6
		c0.1,0.2-0.1,0.7-0.3,0.9c-0.3,0.2-0.7,0.2-1,0.2c-3.4-0.1-6.2,1.1-8.2,3.9C52.5,46.2,52.5,46.4,52.4,46.5z"/>
	<path d="M89.9,43.3c-0.3-0.2-0.6-0.4-0.9-0.7c-1.7-1.3-3.6-1.7-5.7-1.6c-0.5,0-0.9,0.2-1.4,0.3c-0.3,0.1-0.7,0.1-1,0.1
		c-0.5,0-0.8-0.4-0.5-0.8c0.3-0.4,0.7-0.8,1.1-1c2.7-1.1,6.3-0.1,8,2.2c0.3,0.4,0.4,0.9,0.6,1.4C90,43.2,90,43.3,89.9,43.3z"/>
	<path d="M74.8,80.7c0.4-0.9,0.7-1.9,1.2-2.8c0.3-0.5,0.8-0.8,1.4-0.6c0.7,0.2,1.2,0.5,1.3,1.3c0.2,1.2-0.2,2.4-1,3.3
		c-0.5,0.5-1.1,0.8-1.8,0.5c-0.7-0.3-0.9-0.9-0.9-1.6C74.9,80.8,74.8,80.7,74.8,80.7z"/>
	<path d="M42.6,40.1c0.2-2.6-0.5-4.8-2.1-6.7c-2.2-2.7-5.2-4.1-8.5-4.7c-4.9-1-8.8,0.8-12.3,4c-1.1,1-2.1,2.1-2.5,3.5
		c-0.1,0.2-0.2,0.4-0.4,0.7c0.3-2.3,1.4-3.9,2.9-5.3c2.2-2,4.6-3.8,7.6-4.1c5.7-0.5,10.7,0.9,14.3,5.6c1.7,2.2,2.4,4.8,1.9,7.6
		c0,0.1,0,0.3-0.1,0.3c-0.1,0.2-0.3,0.5-0.5,0.6c-0.2,0.1-0.5-0.2-0.6-0.3c-0.3-0.3-0.6-0.7-0.9-1.1c-1.9-2.1-4.5-2.7-7.2-2.7
		c1.4,0.5,2.5,1.2,3.4,2.4c1.1,1.4,1.8,3,2,4.8c0,0.2-0.1,0.5-0.2,0.7c-0.2-0.1-0.6-0.1-0.7-0.3c-1.2-1.4-2.7-2.2-4.4-2.6
		c-1.4-0.3-2.8-0.1-4.2,0.6c1.2,0.1,2.2,0,3.3,0.2c2.4,0.5,4.5,1.6,5.7,3.9c0.1,0.3,0.1,0.6,0.1,0.9c-0.3,0-0.6,0.1-0.8,0.1
		c-1.8-0.3-3.1,0.6-4.5,1.8c0.7-0.1,1.1-0.2,1.6-0.3c2.4-0.4,3.9,0.6,4.2,3.1c0.2,1.6-0.1,3.1-1,4.4c-0.6,0.9-1.4,1.8-2.1,2.6
		c-0.1,0.1-0.3,0.2-0.5,0.3c-0.1-0.1-0.1-0.1-0.2-0.2c0.1-0.2,0.3-0.3,0.4-0.5c1.2-1.6,2.3-3.2,2.6-5.2c0.1-0.4,0.1-0.9,0-1.4
		c-0.3-1.9-1.4-2.7-3.3-2.3c-1,0.2-1.9,0.5-2.8,0.7c-0.3,0.1-0.6-0.1-0.9-0.1c0.1-0.3,0.2-0.6,0.4-0.7c0.6-0.5,1.1-1,1.7-1.5
		c1.2-0.9,2.5-1.6,4.3-1.4c-0.5-0.6-0.9-1.1-1.3-1.5c-1.8-1.5-3.8-2.1-6.1-1.9c-0.9,0.1-1.9,0.1-2.8,0.1c-0.2,0-0.4-0.2-0.6-0.3
		c0.1-0.2,0.2-0.4,0.3-0.5c2.7-1.7,5.6-2.4,8.6-1c0.7,0.3,1.4,0.8,2.1,1.2c-0.8-3.5-3.2-5.4-6.6-5.5c-0.5,0-0.9,0-1.4,0
		c-0.2,0-0.4-0.2-0.6-0.3c0.1-0.2,0.3-0.4,0.4-0.5c1.7-0.7,3.5-0.9,5.4-0.6C38.7,37.1,39.1,37.3,42.6,40.1z"/>
	<path d="M60.3,51c1.5,0,2.8,1.2,2.8,2.7c0,1.6-1.2,2.8-2.8,2.8c-1.5,0-2.8-1.3-2.7-2.8C57.6,52.2,58.8,51,60.3,51z M60.7,54
		c0.5,0,1-0.4,1-1c0-0.6-0.4-1.1-1-1.1c-0.6,0-1,0.4-1,1C59.7,53.5,60.1,54,60.7,54z"/>
	<path d="M82.8,52.4c0-1.6,1.3-2.8,2.9-2.9c1.6,0,2.9,1.3,2.9,2.9c0,1.6-1.3,2.9-2.9,2.9C84,55.2,82.8,54,82.8,52.4z M86,50.5
		c-0.6,0-1,0.4-1,1.1c0,0.6,0.4,1,1,1c0.6,0,1-0.5,1-1.1C87.1,51,86.6,50.5,86,50.5z"/>
</g>
<g>
	<g>
		<path d="M113.9,178.9c0.8,0,1.3,0,1.8,0.1c28.3,4.7,52.3-3.3,71.7-24.4c33-35.9,23.5-91.3-16.8-116c-14.3-8.7-31.5-12.4-48.4-10.4
			c0.7,1,1.1,2.1,1.4,3.3c23.5-2.6,48.2,6.2,64.9,27.6c25.8,33.2,18.1,77.7-13.6,102.3c-30.2,23.6-73.4,19.5-98.8-8.3
			c-0.2,0.1-0.4,0.2-0.6,0.3c-1.1,0.3-1.9,0.7-2.8,1.1c8.9,10.3,20,17.8,33.3,22c0.3,0.1,0.5,0.2,0.8,0.3"/>
	</g>
	<g>
		<path d="M169.3,52.3c-11.7-8.2-25.8-12.9-40.3-13.5c0.2,1.1,0.3,2.3,0.5,3.4c15.4,0.7,30.6,6.2,43.1,16.8c0.9-0.6,1.8-1.2,2.6-1.9
			c0.1,0,0.1-0.1,0.2-0.1C173.5,55.4,171.4,53.8,169.3,52.3z"/>
		<path d="M94.4,162c4.1,2.3,8.4,4.2,13,5.7c0,0,0,0,0,0c1.7,1.2,6.4,2.1,8.6,2.5c0,0,0.1,0.1,0.1,0.1c0.4,0,0.8,0,1.1,0
			c0.1-1.2,0.3-2.3,0.5-3.5c-7.4-1.5-14.6-4.1-21.3-7.9C95.7,160,95.1,161,94.4,162z"/>
	</g>
</g>
<g>
	<path d="M256,188.7c1-0.6,1.9-1.1,2.8-1.7c2.3-1.3,4.8-2.2,7.5-2.6c3.6-0.5,6.9,0.4,10,2.4c1.4,1,2.7,2.2,3.9,3.5
		c0.3,0.3,0.3,0.5,0.1,0.7c-0.2,0.2-0.4,0.1-0.7-0.2c-1.5-1.7-3.2-3.2-5.3-4.3c-3-1.5-6-1.8-9.3-1c-2.9,0.7-5.5,2-8.1,3.6
		c0,0,0,0-0.1,0.1c0.6,0.5,1.2,0.9,1.7,1.4c0.2,0.2,0.4,0.3,0.6,0.5c0.6,0.6,0.7,1.4,0.2,2.1c-0.5,0.7-1.4,0.7-2.1,0.2
		c-0.9-0.7-1.7-1.5-2.6-2.2c-0.1-0.1-0.2-0.2-0.4-0.3c-1.1,0.8-2.2,1.6-3.3,2.5c-2.7,2-5.3,4.1-8.1,6c-3.6,2.5-7.7,4-12.1,4.4
		c-4.5,0.5-8.9-0.3-12.9-2.4c-5-2.7-8.5-6.7-10.4-12c-1.1-3.1-1.5-6.3-1.4-9.6c0,0,0-0.1,0-0.1c0-0.3,0.1-0.5,0.5-0.5
		c0.3,0,0.4,0.2,0.4,0.5c0,0.9,0,1.8,0,2.7c0.6,8.2,4.2,14.5,11.6,18.4c3.3,1.7,6.8,2.4,10.5,2.3c5.6-0.2,10.5-2.1,15-5.4
		c3.2-2.4,6.4-4.7,9.5-7.1c0,0,0.1-0.1,0.2-0.2c-17-14.8-34-29.6-51.1-44.4c0,0,0,0,0.1-0.1C220.4,160.1,238.2,174.4,256,188.7z
		 M254.8,190.5c1,0.9,2,1.7,3.2,2.2c0.2,0.1,0.4,0.1,0.6,0.1c-0.1-0.2-0.1-0.5-0.2-0.6c-0.5-0.6-1.1-1.3-1.7-1.9
		c-0.7-0.7-0.7-0.6-1.5-0.1C255.2,190.3,255,190.4,254.8,190.5z M255.4,189.1c-0.5-0.3-0.8-0.6-1.2-0.9c-0.5-0.3-1.1-0.6-1.7-0.9
		c-0.1-0.1-0.3,0-0.4,0c0,0.1,0,0.3,0.1,0.4c0.5,0.9,1.3,1.6,2,2.3C254.6,189.7,255,189.4,255.4,189.1z"/>
</g>
<polygon points="205.2,142.3 215.2,142.7 205.2,143.3 "/>
<polygon points="203.9,139.4 212,134.8 204.4,140.3 "/>
<polygon points="201.2,149.4 202.5,159.1 200.2,149.6 "/>
<polygon points="197,149.7 193.4,159.1 196,149.3 "/>
</svg>
