<?xml version="1.0" encoding="utf-8"?>
<!-- Generator: Adobe Illustrator 17.1.0, SVG Export Plug-In . SVG Version: 6.00 Build 0)  -->
<!DOCTYPE svg PUBLIC "-//W3C//DTD SVG 1.1//EN" "http://www.w3.org/Graphics/SVG/1.1/DTD/svg11.dtd">
<svg version="1.1" id="Layer_1" xmlns="http://www.w3.org/2000/svg" xmlns:xlink="http://www.w3.org/1999/xlink" x="0px" y="0px"
	 viewBox="0 0 288 216" enable-background="new 0 0 288 216" xml:space="preserve">
<g>
	<path d="M255.2,81.3c-0.6-2.1-1.2-4.1-1.8-6.2c-0.3-1-0.7-1.9-1.1-2.8c-0.4-0.8-0.8-1.7-1.2-2.5c-0.5-1-0.9-1.9-1.4-2.9
		c-0.7-1.2-1.5-2.4-2.2-3.6c-0.1-0.2-0.2-0.5-0.1-0.7c0.3-1.7,0.4-3.3,0.2-5c-0.2-2-0.7-3.9-1.6-5.7c-1-1.7-2.3-3.1-4-4
		c-0.7-0.4-1.4-0.6-2-1.1c-1.3-1-2.5-2-3.9-3c-2-1.5-4.1-2.9-6.1-4.4c-0.3-0.2-0.4-0.3-0.3-0.8c0.3-1,0.6-1.9,0.7-2.9
		c0.2-1.7,0.5-3.5,0.5-5.2c0-1.9,0-3.8-0.3-5.7c-0.2-1.7-0.7-3.4-1.1-5.1c0-0.1-0.1-0.2-0.1-0.3c-0.2-0.2-0.1-0.6-0.6-0.6
		c-0.4,0-0.5,0.3-0.7,0.7c-0.7,1.5-1.4,3.1-2.3,4.5c-1.2,2-2.8,3.5-4.8,4.6c-0.5,0.3-1.1,0.5-1.6,0.9c-1.1,0.8-2.1,1.7-3.1,2.6
		c-0.3,0.3-0.6,0.6-0.9,0.8c-0.6-1.7-1.1-3.3-1.8-4.9c-0.8-1.7-1.6-3.5-2.7-5.1c-1.6-2.5-3.7-4.6-6.1-6.4c-0.2-0.2-0.5-0.1-0.8-0.2
		c0,0.3-0.1,0.6,0,0.8c0.3,1.1,0.7,2.1,1,3.2c0.7,2.6,1,5.3,0.9,8c-0.1,2-0.5,3.9-1.2,5.8c-0.1,0.3-0.4,0.6-0.7,0.7
		c-0.6,0.2-1.2,0.3-1.8,0.4c-3.1,0.6-5.9,1.8-8.6,3.5c-0.4,0.3-0.8,0.6-1.2,0.9c0,0.1,0,0.3,0,0.4c0,0,0,0,0,0c0.3,0,0.5,0,0.8,0.1
		c0.1-0.1,0.2-0.1,0.3-0.2c1.2-0.7,2.5-1.4,3.8-2c0.7-0.3,1.5-0.5,2.3-0.7c1.3-0.3,2.5-0.6,3.8-0.9c0.2,0,0.3,0,0.6-0.1
		c0.3,2.2,1.4,3.7,3.5,4.4c0.1,0,0.1-0.1,0.2-0.1c-0.4-0.6-0.8-1.2-1.2-1.8c-0.9-1.1-0.8-2.4-0.5-3.7c0.3-1,0.5-2.1,0.7-3.2
		c0.2-1.1,0.3-2.3,0.4-3.4c0.1-0.6,0.1-1.1,0.1-1.7c-0.1-2.5-0.5-5-1.1-7.5c-0.1-0.3-0.2-0.5-0.3-0.8c0,0,0.1-0.1,0.1-0.1
		c0.8,0.9,1.7,1.7,2.4,2.6c0.9,1.1,1.7,2.3,2.5,3.5c0.5,0.8,0.9,1.7,1.4,2.6c0.4,0.8,0.8,1.6,1.2,2.4c0.2,0.5,0.5,1,0.6,1.6
		c0.5,2,1,4.1,1.4,6.1c0.2,1,0.1,2,0.1,3c0,0,0,0,0,0.1c0.1,0.9,0.1,1.8,0.3,2.7c0.3,1.2,0.7,2.3,1.1,3.5c0.3-0.2,0.5-0.3,0.7-0.5
		c1.1-1.6,2.7-2.1,4.4-2c1,0,2,0.4,2.9,0.7c0.7,0.2,1.4,0.5,2.1,0.8l0.1-0.1c-0.4-0.3-0.7-0.7-1.1-1c-1.3-0.9-2.7-1.6-4.3-1.8
		c-1.6-0.3-3,0.1-4.3,1.3c-0.2-0.9-0.5-1.8-0.4-2.6c0-1.4,0-2.7-0.2-4c-0.1-0.7,0.1-0.9,0.8-0.8c1.3,0.3,2.7,0.6,4,1
		c1.6,0.5,3.1,1.1,4.6,1.7c4,1.7,7.6,4.1,11.1,6.6c0.1,0.1,0.2,0.2,0.4,0.4c-1.1,0.2-2.2-0.3-3.3,0.2c0.5,0.1,1,0.3,1.4,0.4
		c3.1,0.6,5.9,1.8,8.3,3.9c1,0.8,1.7,1.9,2.1,3.2c0.3,1.2,0.8,2.5,0.9,3.7c0.1,1.3-0.1,2.7-0.2,4.1c-0.1,0.9-0.2,1.8-0.2,2.8
		c0,0.6,0,1.1,0,1.7c0,0.2,0.1,0.4,0.2,0.7c0.2-0.4,0.4-0.8,0.7-1.2c0.7,1.2,1.4,2.2,2.1,3.4c0.5,0.9,1,1.9,1.4,2.9
		c0.4,0.8,0.8,1.6,1.2,2.5c0.2,0.4,0.4,0.9,0.5,1.3c0.2,0.7,0.5,1.4,0.7,2.1c0.4,1.1,0.8,2.2,1.1,3.3c0.2,0.8,0.5,1.7,0.3,2.6
		c-0.2,0.7-0.7,1.2-1.3,1.3c-1,0.3-1.9,0.5-2.9,0.5c-1.5,0.1-2.9,0.1-4.4,0c-1.1,0-2.3-0.1-3.4-0.3c-1.8-0.3-3.6-0.9-5.2-1.6
		c-2.2-1-4.3-2.2-6-3.9c-1.3-1.2-2.6-2.6-3.5-4.1c-0.5-0.8-1-1.7-1.5-2.5c-0.2-0.4-0.4-0.9-0.6-1.3l-0.3,0.1
		c0.6,2.2,1.3,4.4,1.9,6.6c-0.7-0.3-1.3-0.8-1.7-1.4c-0.8-1.1-1.5-2.2-1.8-3.6c-0.4-1.6-0.9-3.2-1.1-4.8c-0.2-1.3,0-2.6,0.1-3.9
		c0.1-1.6,0.5-3.1,1.2-4.5c0.6-1.3,1.5-2.4,2.8-3c0.8-0.3,1.7-0.5,2.5-0.7c0.2-0.1,0.4-0.1,0.7-0.1c-0.4-0.4-0.6-0.8-0.9-1.1
		c-1.1-1.2-2.4-2.3-3.9-2.9c-1.3-0.5-2.6-1-3.9-1c-1.5,0-3.1,0.1-4.3,1.4c-0.3,0.3-0.7,0.5-1,0.7c-1.5,0.8-2.3,2.1-2.9,3.6
		c-0.5,1.2-0.8,2.5-0.7,3.8c0.1,1.3,0.1,2.7,0.3,4c0.2,1.1,0.6,2.3,1,3.4c0.3,1,0.7,1.9,1,2.9c-1.2-0.5-2.2-1.4-2.9-2.5
		c-0.4-0.7-0.8-1.4-1.2-2.1c-0.1-0.1-0.1-0.3-0.1-0.4c-0.2-1.3-0.6-2.6-0.7-3.9c-0.1-0.7,0-1.4,0-2.1c-0.2,0.4-0.4,0.7-0.7,0.9
		c-0.5,0.6-1.3,1.1-2.3,1.1c0,0.2,0,0.3,0.1,0.5c-0.3-0.2-0.6-0.4-0.8-0.6c-0.7-0.1-1.3-0.5-1.7-0.9c-1.3-0.5-2.6-1-4-1.4
		c-1.1-0.3-2.3-0.3-3.4-0.4c-1.6,0-3,0.5-4.4,1.2c-1.8,0.9-3.1,2.4-3.9,4.3c-0.7,1.6-1,3.3-0.8,5c0.1,0.9,0.1,1.8,0.3,2.6
		c0.4,1.5,1.2,2.7,2.8,3.4c2.6,1,5.2,2,7.5,3.6c1.8,1.2,3.2,2.8,4.2,4.7c0.5,0.9,0.7,1.9,1.1,2.8c0.1,0.3,0.2,0.7,0.4,1.1
		c-0.4-0.4-0.8-0.6-1-1c-1.5-1.7-3.4-2.7-5.6-3.3c-0.9-0.2-1.9-0.3-2.8-0.4c-1.5-0.3-3-0.5-4.4-0.9c-0.8-0.2-1.5-0.9-2.2-1.4
		c-0.7-0.6-1.3-1.3-2-1.8c-1.1-0.8-1.3-0.6-2,0.2c-0.5,0.7-1,1.3-1.5,2c-0.6,0.7-1.2,1.1-2.1,1.5c-2,0.8-3.9,1.9-5.3,3.6
		c-0.8,1.1-1.7,2.1-2.6,3.2c0-0.4,0-0.8,0.1-1.2c0.1-0.9,0.2-1.9,0.3-2.8c0.2-1.2,0.4-2.4,0.8-3.5c0.8-2.4,2.2-4.5,4.2-6.2
		c1-0.9,2.1-1.6,3.1-2.4c0.8-0.7,1.4-1.5,1.2-2.6c-0.1-0.7,0-1.4,0.1-2.2c0-0.5,0-1,0.1-1.5c0-1,0-2.1,0.1-3.1
		c0.1-1.2,0.2-2.4,0.4-3.6c0.2-1.1,0.4-2.3,0.5-3.4c0.3-1.9,0.9-3.8,1.5-5.6c1-2.7,2.2-5.3,3.9-7.5c0.3-0.4,0.6-0.7,0.9-1.1
		c0-0.2,0-0.3,0-0.5c-0.2,0-0.4,0-0.6-0.1c-0.4,0.4-0.8,0.8-1.1,1.3c-1.5,1.8-2.7,3.9-3.6,6c-0.6,1.6-1.2,3.3-1.7,4.9
		c-0.4,1.2-0.6,2.4-0.8,3.6c-0.2,1.4-0.3,2.7-0.4,4.1c-0.1,1.4-0.2,2.8-0.3,4.3c-0.1,1.5,0,3-0.1,4.5c-0.1,0.8-0.4,1.5-1,2
		c-0.9,0.6-1.8,1.2-2.6,1.9c-3,2.8-4.8,6.2-5.4,10.2c-0.4,2.1-0.4,4.2-0.6,6.2c0,0.4,0.1,0.8,0.2,1.1c0.5,0.1,0.8-0.2,0.9-0.6
		c0.3-0.7,0.6-1.5,1-2.2c1.7-3.1,4.4-4.9,7.5-6.4c0.6-0.3,1.3-0.6,1.9-1c0.6-0.4,0.9-1.1,1.1-1.8c0.3-0.9,1.3-1.2,2-0.6
		c0.3,0.3,0.5,0.7,0.8,1c0.8,0.9,1.7,1.8,2.9,2.1c1.6,0.4,3.2,0.6,4.9,0.8c1.6,0.2,3.1,0.5,4.6,1.2c1.6,0.7,2.8,1.8,4,3.1
		c0.5,0.5,0.9,1.1,1.4,1.7c0.2,0.2,0.5,0.3,0.7,0.3c0.1,0,0.3-0.4,0.3-0.6c-0.5-2-1.1-4.1-2.2-5.9c-1.2-2.1-2.9-3.9-4.8-5.4
		c-1.9-1.4-4-2.6-6.2-3.3c-1.9-0.6-2.9-1.9-3.3-3.7c-0.1-0.7-0.2-1.3-0.3-2c-0.1-0.4-0.2-0.8-0.1-1.1c0-0.2,0-0.3,0-0.5
		c0.1,0,0.1,0,0.2,0c0.1-0.2,0.1-0.4,0.2-0.5c0.1-0.2,0.2-0.3,0.2-0.5c0.2-1,0.4-2,0.9-3c0.7-1.5,2-2.6,3.6-2.8
		c0.1-0.1,0.2-0.2,0.4-0.3c2.5-0.7,4.9-0.4,7.3,0.2c0.3,0.1,0.6,0.2,0.6,0.6c0,1.5,0.6,2.9,1.3,4.2c0.7,1.3,1.6,2.6,2.3,3.9
		c0.6,1.1,1.2,2.2,1.6,3.4c0.6,1.8,0.9,3.6,1,5.5c0,0.5,0,1.1,0,1.6c0,0.2,0.1,0.7,0.2,0.7c0.3,0,0.6,0,0.9-0.2
		c0.2-0.1,0.3-0.4,0.4-0.6c0.9-1.4,1.2-3.1,1.4-4.7c0.2-1.6,0.1-3.1,0.1-4.7c0-0.5,0-1.1,0-1.7c0.1,0.1,0.1,0.1,0.2,0.1
		c0.4,0.6,0.8,1.2,1.4,1.8c1,1.1,2.3,1.2,3.7,0.8c0.3-0.1,0.6,0,0.9,0.1c1.5,0.7,2.9,1.4,4.5,1.8c0.4,0.1,0.9,0.3,1.1,0.6
		c0.6,1,1,2.1,1.7,3.1c0.7,1,1.6,1.7,2.9,1.9c0.6,0.1,1.2,0.2,1.7,0.5c1.8,1.1,3.5,2.3,5.2,3.3c3.5,2,7.3,3.2,11.3,3.4
		c2.2,0.1,4.3-0.1,6.5-0.6c0.7-0.2,1.4-0.4,2.1-0.7C255.3,84.1,255.6,82.9,255.2,81.3z M228.7,32.6
		C228.7,32.7,228.7,32.7,228.7,32.6c0,0.6,0,1.2-0.1,1.7c-0.1,0.5-0.3,1-0.3,1.5c0,0.6-0.3,0.9-0.7,1.1c-0.4,0.2-0.7,0.3-1.2,0
		c-0.4-0.2-0.9-0.3-1.3-0.5c-0.3-0.1-0.6-0.4-0.9-0.5c-0.8-0.3-1.6-0.6-2.4-0.9c-0.4-0.2-0.9-0.3-1.4-0.4c-0.6-0.2-1.3-0.2-1.9-0.4
		c-0.3-0.1-0.5-0.4-0.8-0.6c0.2-0.3,0.4-0.7,0.7-0.9c1.3-0.6,2.5-1.4,3.6-2.2c0.3-0.2,0.7-0.4,0.4-1c0.9,0,1.5-0.4,1.5-1
		c0.9-0.2,1.2-0.9,1.7-1.5c0.8-1,1.4-2.2,2.1-3.3c0.1-0.2,0.4-0.2,0.5-0.3c0.1,0.2,0.1,0.4,0.2,0.5c0.1,0.6,0.2,1.2,0.3,1.9
		c0.1,1.1,0.3,2.3,0.3,3.4C229,30.4,228.9,31.5,228.7,32.6z M209.9,73.7c-0.1,1-0.3,1.9-0.4,2.9c-0.1,0.5-0.2,0.9-0.3,1.4
		c-0.1,0-0.1,0-0.2,0c-0.1-0.4-0.3-0.8-0.4-1.1c-0.2-0.9-0.3-1.8-0.5-2.7c-0.4-1.4-0.8-2.8-1.4-4.2c-0.5-1.1-1.3-2.1-2-3.2
		c-0.6-1-1.3-2-1.6-3.2c-0.1-0.4-0.4-0.8-0.5-1.2c-0.1-0.2,0-0.6,0.2-0.7c0.1-0.1,0.5-0.1,0.8,0c1.8,0.6,3.2,1.7,4.3,3.2
		c0.4,0.5,0.7,1.1,1,1.6c0.7,1.6,1.1,3.3,1,5C209.9,72.3,210,73,209.9,73.7z M218.5,53.3c3,0.1,5.9,0.6,8.7,2
		c-0.5,0.3-0.9,0.6-1.3,0.8c-0.8,0.6-1.6,1.2-2.3,1.9c-0.3,0.2-0.4,0.3-0.6,0c-1-1.8-2.5-3.1-4.1-4.2c-0.2-0.1-0.3-0.2-0.5-0.3
		C218.4,53.4,218.5,53.4,218.5,53.3z M216.1,53.4c0.1-0.1,0.4-0.1,0.6-0.1c1.7,0.7,2.9,2,4.1,3.2c0.1,0.1,0.2,0.3,0.4,0.5
		c-2.6-0.4-5-0.4-7.5,0.2C214.3,55.6,214.9,54.3,216.1,53.4z M213.5,58.3c0.2,0.1,0.4,0.1,0.4,0.2c1.4,1.5,3,2.8,4.6,4.1
		c0,0,0,0.1,0.1,0.2c-1.7,0.4-3.4,0.6-5.2,0.3C213,61.5,213.2,60,213.5,58.3z M221.4,63.6c0,1.8-0.1,3.7-0.1,5.5
		c-1,0.1-6.3-3.5-6.5-4.6c1.1-0.1,2.3-0.2,3.4-0.4C219.3,64.1,220.4,63.8,221.4,63.6z M215.6,69c-0.7-0.2-1.1-0.8-1.3-1.4
		c-0.2-0.7-0.4-1.5-0.5-2.3c0,0,0.1,0,0.1,0c1.9,1.4,3.7,2.8,5.6,4.2c0,0.1,0,0.1,0,0.2c-0.9-0.1-1.8-0.1-2.6-0.3
		C216.4,69.3,216,69.1,215.6,69z M216.3,70.1c0.5,0,1,0.1,1.5,0c1-0.1,2-0.1,3-0.3c0.5-0.1,0.7,0.1,0.7,0.5c0.1,0.8,0.3,1.6,0.4,2.5
		C221.2,73.1,216.5,71.2,216.3,70.1z M221.5,63c-2.4-1.1-4.6-2.7-6.4-4.8c2.6-0.4,5.2,0.2,7.9,0.6C222.5,60.1,222,61.5,221.5,63z"/>
	<path d="M230.8,48c1.6,0.8,2.8,1.9,4.1,3.2c0.2,0.2,0.4,0.4,0.6,0.3c1.3-0.2,2.5,0,3.6,0.7c-0.9-1.8-2.3-3.2-3.6-4.7
		c0,0,0.1-0.1,0.1-0.1c0.5,0.4,1.1,0.8,1.6,1.2c1,1,2,2,3,3c0.7,0.8,1.2,1.6,1.5,2.6c0.3,0.9,0.6,1.9,0.7,2.8c0.1,0.8,0,1.7,0,2.5
		c0,0.9,0,1.9,0.1,2.8c0.1,1.1,1,1.7,1.7,2.4c0,0,0.1,0.1,0.2,0.2c-0.9,0.1-1.6-0.2-2.1-0.7c-0.5-0.5-0.8-1.2-1.2-1.8
		c-0.6,0-1.2-0.1-1.8-0.1c0,0,0,0-0.1,0c-0.6-0.3-1.2-0.7-1.5,0.5c0-0.1-0.1-0.2-0.1-0.3c0-0.2-0.1-0.5-0.1-0.7
		c-0.4-1.5-0.6-3-1.1-4.5c-0.5-1.3-1.2-2.6-2-3.8c-1-1.6-2.2-3.1-3.3-4.6c-0.2-0.3-0.4-0.6-0.5-0.9C230.7,48.1,230.8,48.1,230.8,48z
		 M238.3,59c0,0-0.1,0.1-0.1,0.1c0.2,0.2,0.3,0.5,0.5,0.7c0.4,0.5,1.5,0.9,1.9,0.7c1-0.5,1.6-2.2,0.7-3.2c-0.3-0.3-1-0.4-1.3-0.1
		c-0.4,0.4-0.6,1-0.3,1.4c0.2,0.2,0.4,0.4,0.6,0.5C239.6,59.4,239,59.3,238.3,59z M239.9,54c-0.4-0.3-0.6-0.5-0.8-0.6
		c-0.9-0.6-1.9-1-3-1c-0.6,0-0.7,0.1-0.4,0.7c0.2,0.4,0.3,0.8,0.6,1.1c0.1,0.2,0.4,0.2,0.5,0.3c0.4,0.3,0.7,0.7,1,0.7
		c0.6-0.1,0.5-0.6,0.3-1.2C238.8,53.9,239.3,53.9,239.9,54z"/>
	<path d="M174.9,83.6c0.2-1,0.9-2.1,1.5-2c-0.8-0.7,0.1-1,0.3-1.4c0.8-1.4,1.9-2.7,3.3-3.6c0.6-0.4,1.2-0.7,1.9-0.9
		c0.3-0.1,0.8,0.1,1.1,0.3c0.3,0.2,0.3,0.5,0,0.8c-0.9,1.1-2.1,1.7-3.2,2.4c-0.6,0.4-1.1,0.9-1.7,1.4c-0.2,0.2-0.6,0.2-0.7,0.4
		c-0.1,0.6-0.7,0.6-0.9,1C176,82.6,175.4,83.1,174.9,83.6z"/>
	<path d="M196.8,79.6c-0.2,0.1-0.4,0.2-0.5,0.3c0.2,0.6,0.7,0.1,1,0.2c0.5,0.1,1.2,1,1,1.4c-0.7-0.1-1.2-0.5-1.2-0.9
		c-0.7,0.2-1.4-0.2-1.6-0.8c-0.8,0.2-1.5-0.3-2.2-0.4c-0.1,0-0.2-0.1-0.3-0.1c-0.6-0.2-0.6-0.2-0.2-0.7c-1.5,0.6-2.9,0.1-4.2-0.4
		c-0.2-0.8,0.1-1.2,0.9-1.2c0.2,0,0.5-0.1,0.8-0.1c-0.1,0.1-0.2,0.3-0.2,0.4c0.9-0.5,1.6,0.1,2.4,0.2c0.1,0,0.2,0.2,0.3,0.3
		c0.1,0.1,0.1,0.1,0.2,0.1c0.4,0.1,0.9,0.1,1.3,0.2c0.4,0.1,0.7,0.5,1.1,0.7c0.3,0.2,0.7,0.3,1.1,0.5
		C196.4,79.4,196.5,79.5,196.8,79.6z"/>
	<path d="M247.5,75c0.5,0.1,1,0.2,1.7,0.3c-0.1-0.2-0.2-0.3-0.3-0.4c-0.2-0.2-0.4-0.4-0.6-0.6c-0.1-0.2-0.3-0.7-0.2-0.8
		c0.2-0.2,0.6-0.3,0.9-0.2c0.8,0.2,1.4,0.7,1.7,1.4c0.4,0.9,0.5,1.8,0.8,2.7c0,0.2,0,0.5-0.2,0.7c-0.1,0.1-0.5,0-0.6-0.1
		c-1.1-0.8-2.2-1.7-3.3-2.6C247.4,75.2,247.5,75.1,247.5,75z"/>
	<path d="M223.3,41.6c-1-0.2-2.1-0.4-3.1-0.5c-1.1-0.1-2.1-0.2-3.1,0.6c0.2-1.5,1.5-2.5,3.1-2C221.4,40.1,222.4,40.6,223.3,41.6z"/>
	<path d="M217.8,65.9c0.9,0.2,1.9,0.3,2.8,0.5c0,0.2,0,0.5,0.1,0.8c-1.1-0.1-2-0.6-2.9-1.1C217.8,66,217.8,66,217.8,65.9z"/>
	<path d="M221.6,60.6c-1.3-0.6-2.3-1.1-3.4-1.6c0,0,0-0.1,0-0.1c0.4,0,0.8,0,1.2,0.1c0.7,0.2,1.4,0.5,2.1,0.8
		C221.6,59.9,221.6,60.3,221.6,60.6z"/>
	<path d="M224.7,56.2c-0.3-0.1-0.5-0.1-0.7-0.2c-0.7-0.4-1.3-0.9-2-1.3C222.5,54.6,224.5,55.5,224.7,56.2z"/>
	<path d="M218.4,55.5c-0.9-0.2-1.9-0.4-2.9-0.6c0.2-0.3,0.3-0.5,0.8-0.4C217,54.7,217.8,54.9,218.4,55.5z"/>
	<path d="M215.8,61.8c-0.5,0.2-1.9-0.3-2.1-0.7c-0.1-0.2,0-0.5,0-0.8C214.5,60.8,215.2,61.3,215.8,61.8z"/>
	<path d="M221.3,72.2c-0.8-0.2-1.5-0.5-2.3-0.7c0-0.1,0-0.1,0-0.2c0.2,0,0.4-0.1,0.6-0.1c0.4,0,0.7,0.1,1.1,0.1
		C221.2,71.3,221.4,71.6,221.3,72.2z"/>
	<path d="M214.8,67.1c0.6,0.4,1.3,0.7,2,1.1c-0.6,0.4-1.1-0.1-1.5-0.2c-0.3-0.1-0.4-0.5-0.6-0.8C214.7,67.2,214.7,67.2,214.8,67.1z"
		/>
</g>
<g>
	<path d="M185,48.8c-2.5-2.6-5-5.2-7.3-7.9c-1.8-2.2-3-4.9-4.5-7.4c-0.7-1.2-1.7-2.2-2.6-3.3l0.4-0.4c2.1,1.3,4,2.5,5.4,5.1
		c1.8,3.5,4.6,6.5,7,9.7c0.8,1,1.5,2.1,2.3,3.1c0.2-0.3,0.4-0.6,0.6-0.8c0,0,0.1-0.1,0.1-0.1c-2.9-4-6-7.9-8.9-11.8
		c0.1-0.1,0.2-0.2,0.4-0.3c10,7,19.4,14.6,28.3,23.2c-0.7-3.7-2.3-7.2-5.5-10.4c-4.6-4.6-9.3-9-14-13.6c-2.3-2.3-4.6-4.6-6.6-7
		c-0.7-0.9-1.2-2.4-1-3.4c0.5-2.8-0.8-4.9-2.3-6.6c-2.2-2.3-4.9-4.1-7.5-6c-6.9-5-17.3-0.7-20.1,7c-3,8.2-3,16.8-2.1,25.3
		c0.4,3.9-0.3,7.3-2.3,10.4c-0.7,1.1-2.1,2-3.3,2.3c-1.6,0.4-3.5,0.1-5.2-0.2c-2.1-0.4-4.2-0.8-5.9,1c-0.2,0.2-0.7,0.3-1.1,0.4
		c-2.3,0.1-4.4,0.5-6.6,1.2c-3.2,1.1-6.6,1.3-9.8,2.3c-5.4,1.7-10.9,3.5-16.1,5.8c-6.7,3-11.9,8.1-17,13.3c-2.4,2.4-4.8,5-7,7.6
		c-4,4.8-8,9.7-12,14.5c-1.4,1.7-3.1,3.2-4.4,4.9c-0.7,0.9-1,2.1-1.5,3.2c1.2,0.3,1.9,0.5,3,0.8c-1.4,0.5-2.3,0.6-2.9,1.1
		c-2,1.8-3.9,3.7-5.6,5.6c-0.3,0.4-0.3,1.3-0.1,1.8c0.5,1.4,0.7,2.5-0.4,3.8c-4.7,5.4-9.3,10.8-13.9,16.3c-0.8,0.9-1.5,1.8-2.2,2.7
		c1.9,0.3,3.1-0.4,4.1-1.6c3.1-3.5,6.3-7,9.5-10.4c1-1.1,2.3-1.9,3.5-2.9l0.3,0.3c-5.1,5.8-10.2,11.6-15.6,17.8
		c1.9,1.2,3.6,2.3,5.3,3.3c0.3,0.2,0.8,0.1,1.2,0c2.8-0.7,5.6-1.5,8-2.2c1.2,0.6,2.5,1.5,2.7,1.3c1.9-1.7,4.2-1.4,6.4-1.8
		c0.9-0.2,1.7-1.1,2.5-1.6c2.1,1.5,2.6,1.6,4.6,0.1c2.9-2.1,5.8-4.3,8.7-6.4c0.4-0.3,0.5-0.9,0.9-1.6c-4.7,0.9-7.6,4.2-11.6,6.3
		c1.4-2.3,4.2-2.4,4.7-5.3c-3.8,0.8-6,4-9.5,5.3c0.7-1.2,1.3-2.1,1.9-3c-0.2-0.1-0.3-0.3-0.5-0.4c-1.8,1.1-3.6,2.3-5.4,3.4
		c4.6-4.8,9.5-9,15-12.3c2.8,1.5,2.9,1.4,5.2-0.7c1.1-1,2.3-1.8,3.4-2.7c2.5,2.4,2.7,2.4,5.1,0.3c1.7-1.5,3.6-2.7,5.6-4.2v3
		c1.9-1.3,3.4-2.4,4.9-3.5c3.8-2.9,6.8-6.9,12.1-7.6c2.1-0.3,4-0.2,6,0.1c0.2,0.6,0.4,1.2,0.4,1.8c0.3,3,0.7,5.9,0.7,8.9
		c0,2.6-0.4,5.2-0.8,7.7c-0.6,2.9-1.5,5.8-2.1,8.6c-0.6,2.4,0.1,4.6,1.2,6.8c0.7,1.4,1.4,2.9,1.5,4.4c0.4,3.3,0.6,6.7,0.6,10.1
		c-0.2,11.4-0.5,22.9-1.1,34.3c-0.1,2.1-1.4,4.3-2.3,6.3c-0.6,1.3-2,1.3-2.9,0.8c-2.2-1.2-5.1-1.4-6.2-3.9c0.1-1,0.3-1.9,0.2-2.8
		c-0.1-1.1-0.5-2.1-0.5-3.2c0.1-4.7,0.3-9.4,0.5-14.1c0.2-4.1,0.5-8.1,0.8-12.2c0.1-2.1,0.6-4.3,0.3-6.3c-0.2-1.8,0.3-2.9,1.2-4.3
		c1-1.4,2.6-3.2,0.1-4.8c-0.2-0.2-0.3-0.7-0.3-1.1c0.1-4.4,0-8.8,2.2-12.8c0.8-1.5,0.3-3.2-1.2-3.4c-0.8-0.1-1.7,0.6-2.7,1
		c-2.1-0.9-4.3-3.6-7.1-0.3c-1.8-3.3-5-1.3-7.4-2.3c-0.1-0.1-0.6,0.4-0.8,0.7c-1.1,1.6-2.1,3.3-3.2,4.9c-0.6,0.9-0.9,1.7,0,2.5
		c0.9,0.8,1.6,0.2,2.2-0.4c1.5-1.5,2.8-3.1,5.3-2.5c0.7,1.7,1,1.9,2.6,1.5c2.1-0.5,3,0.2,3.3,2.3c0.4,3.4-0.2,6.5-1.7,9.6
		c-0.4,0.9-0.4,2.1-0.3,3.1c0.5,4.3,1.3,8.5,1.5,12.8c0.1,3.3-0.5,6.7-0.8,10.1c-0.6,6.2-1.2,12.3-1.9,18.4
		c-0.1,0.8-0.6,1.8-1.3,2.2c-1.6,1.2-3.4,2-5.1,3.1c-0.7,0.4-1.6,0.9-1,2c0.5,0.9,2.2,1.3,2.8,0.4c0.9-1.3,2.1-1.2,3.3-1.2
		c1.8,0.1,3.6,0.3,5.4,0.6c1.7,0.3,3.3,1.1,4.9,1.1c1.6,0,2.9,0.3,4.1,1.3c1.1,1,2.3,1.1,3.7,0.4c1.5-0.7,3.2-1.2,4.8-1.8
		c0,0.4,0.1,0.6,0.1,0.8c-0.3,1.2-0.2,2.3,1.1,2.7c1.3,0.4,2-0.5,2.5-1.6c0.3-0.8,0.7-1.5,1.2-2.5c4,1.3,8,2.7,12,4
		c0.1,0,0.2,0,0.3,0c0.6,0,1.1,0.2,1.5,0.6c0.3,0.1,0.5,0.2,0.8,0.3c-0.1,0.1-0.2,0.1-0.3,0.2c0,0,0,0,0,0c0.8,0.1,1.5,0.1,2.3,0.2
		c0.6-0.2,1.3-0.1,1.8-0.3c0.6-0.2,1.2-0.7,1.8-1c-0.3-0.4-0.6-1-1-1.3c-2.9-1.4-5.8-2.7-8.8-4c-1.1-0.5-2.2-1.1-3.3-1.6
		c2.6,0.3,5.1,0.9,7.6,1.4c1.2,0.3,2.1-0.3,2.3-1.5c0.2-1.2-0.9-1.2-1.8-1.3c-2.7-0.4-5.4-1-8.1-1.3c-3.7-0.5-5.4-2.8-5.8-6.1
		c-0.4-4-0.8-7.9-0.9-11.9c-0.1-7.5,0-14.9-0.1-22.4c0-2.9-0.9-5.9-0.6-8.8c0.3-2.9,2-5.7,2.4-8.6c0.4-2.8,0-5.7-0.3-8.6
		c-0.3-2.5-1.3-5-1.3-7.6c-0.1-4.5,0.4-8.9,0.4-13.4c0-1.6,0.5-2.6,1.7-3.6c1.8-1.5,3.8-2.9,5-4.8c1.8-2.6,3-5.7,4.5-8.5
		c1-2,0.7-2.6-1.5-3.4c-1,1.3-2.1,2.7-3.2,4.1c-1.9-1.1-3.2,0.1-4.5,1.1c-1.3,1-2.5,2.6-3.9,2.9c-2.5,0.6-4.3,2.2-6.4,3.3
		c-0.8,0.4-1.8,1-2.4,0.8c-2.1-0.8-2.1,0.6-2.2,2.3c-1.3-1.4-2.4-1.9-3.8-1c-0.2,0.1-0.8,0-1.1-0.2c-1.7-1.2-3.4-1.1-5.1-0.3
		c-1.2,0.5-2.1,0.3-2.9-0.6c-0.4-0.4-1.3-0.9-1.6-0.8c-1.7,1.3-3,0.2-4.6-0.4c-1-0.4-1.4-0.8-1.8-1.6c-0.5-0.9-1.2-1.6-2.5-1.3
		c-0.4,0.1-1-0.1-1.3-0.4c-1.2-1.4-2.5-1.5-3.9-0.3c-0.4,0.3-0.9,0.5-1.6,0.9c-0.3-2-1.7-2.4-3.4-2.5c0.7-2.8,1.6-5.5,2-8.1
		c0.3-1.6,0.9-2.8,2.1-3.8c3.8-3.6,7.6-7.3,11.6-10.7c2.7-2.3,5.7-4.5,8.8-6.2c3.3-1.8,6.9-3,10.5-4.1c4.2-1.3,8.6-2.1,12.9-3.2
		c4.7-1.2,9.4-1.6,14.2-0.8c1.5,0.2,2.5,0,2.1-2.1c2.1,0.3,3.8,0.5,5.6,0.7c1.4,0.2,2-0.6,1.5-2c-0.1-0.3-0.4-0.6-0.7-1.2
		c0.8-0.6,1.6-1.1,2.3-1.6c0.6-0.5,1.6-1.1,1.7-1.8c0.3-2.3,0.8-4.8,0.4-7c-1.3-8.8-0.7-17.4,1.2-26c0.2-0.8,0.7-1.6,1-2.4
		c1-2.1,2.7-3.3,4.8-4.2c7.7-3.3,8.3-3.3,14.8,1.4c0.4,0.3,0.7,0.6,1.1,0.9c3.1,2.3,4.9,5.2,4.8,9.2c-1.2,0-2.6-0.9-3.6,0.5
		c-0.9,1.3-2,1.6-3.5,1.4c-1.6-0.2-2.5,0.7-2.1,2c0.7,1.9,0,3.3-1.2,4.3c5,4.7,9.9,9.3,14.7,13.9c0.2,0.2,0.1,0.8,0.2,1.2l0,0
		c0.8,1,1.5,2,2.2,3C184.3,50.1,184.6,49.4,185,48.8z M41.6,142.5c0.7,0.7,1.3,1.2,1.9,1.7c0.3,1.8-1.4,2-2.4,2.1
		c-0.9,0.1-1.8-0.6-3.1-1.1c4-4.1,7.6-7.8,11.1-11.5l0.5,0.5C46.9,137,44.3,139.7,41.6,142.5z M55.4,116c2.2,1.4,2.1,1.7-1,4.3
		c-0.4-0.6-0.8-1.1-1.3-1.8C53.8,117.7,54.6,116.8,55.4,116z M50.1,133.4c0.1-3,1.8-4.6,3.4-6.3c2.4-2.5,4.8-5,7.2-7.4
		c0.2,0.2,0.3,0.3,0.5,0.5C57.6,124.5,54,128.9,50.1,133.4z M66,121.9c1.5-1.7,3-3.4,4.7-5.3C70.7,118.3,69.2,120,66,121.9z
		 M97.5,200.1c-0.4,0.4-1,0.8-2,1.6c0.6-4.5,1.1-8.6,1.6-12.6c0.1,0,0.2,0,0.3,0V200.1z M97.9,186.4l-0.6,0c0.2-2.9,0.4-5.7,0.7-8.6
		c0.2,0.1,0.4,0.2,0.6,0.2L97.9,186.4z M99.3,161c0.2,1.5,0,3,0,4.5c-0.1,0-0.2,0-0.3,0c-0.6-2.6-1.5-5.2-1.8-7.8
		c-0.2-1.5,0.8-3.1,1.1-4.6c0.5-2.4,0.9-4.9,1.4-7.4c0.3-1.6,0.3-3.1-1.6-4.5c1.4,0.1,2.3,0.2,3.4,0.3c-0.1,1.2-0.3,2.3-0.4,3.4
		c-0.3,3.3-1,6.6,0.3,10c0.4,1-0.7,2.7-1.5,3.9C99.5,159.6,99.2,160.1,99.3,161z M114.2,115.2c0-0.6,0.4-1.5,0.8-1.9
		c0.8-0.7,1.9-1,3-1.6c0.1,0.6,0.2,1,0.2,1.5c-0.2,3.8-0.6,7.7-0.6,11.5c0,3.2,0.6,6.3,0.9,9.5c0.2,1.6,0.2,3.2,0.3,4.9
		c0,0.5-0.2,1-0.1,1.4c0.8,2.6-0.3,5-0.9,7.5c-0.5,1.8-1,3.4,0.2,5.5c0.9,1.6,0.1,4.1,0.1,6.3c0,1.1-0.3,2.2-0.3,3.3
		c0.1,10.1,0.2,20.1,0.4,30.2c0.1,3.2,1.5,5.7,4.2,7.8c-0.2,0.6-0.4,1.3-0.7,2.2c-2.2-0.3-4.5-0.7-6.7-1c1.4-6.7,2-13.2,1.9-19.8
		c-0.1-4.4,0.1-8.8,0-13.2c0-1.2-0.5-2.4-0.7-3.6c-0.2-0.8-0.4-1.7-0.5-2.5c-0.2-2.9-0.1-5.8-0.5-8.7c-0.3-2.1-0.9-4.2-1.7-6.1
		c-1.6-3.6-1.2-6.9,0.2-10.5c1-2.4,1.4-5.2,1.3-7.8C115.1,125,114.5,120.1,114.2,115.2z M78,121.1c2.2-2,2.2-2.2,0.9-4.9
		c0.7-0.1,1.4-0.2,2-0.4c0.6-0.2,1.1-0.6,1.7-1c1.5,1.5,3.2,2.2,5.1,0.5c0.2-0.2,0.7-0.4,0.9-0.3c1.9,1,2.8-0.5,4-1.5
		c1-0.9,1-0.8,2.4,0.5c-1.7,1-3.1,1.9-4.6,2.7c-0.4,0.2-1.1,0.3-1.5,0.1c-1.5-0.7-2.7-0.1-3.9,0.7c-3.3,2.3-6.5,4.6-10,6.7
		C75.9,123.2,76.9,122.1,78,121.1z M177,24.6C177,24.6,177,24.6,177,24.6c1,1.5,1.9,3.1,3.1,4.3c3.2,3.2,6.6,6.2,9.9,9.4
		c3.6,3.6,7.1,7.2,10.6,10.9c0.8,0.9,1.4,2,1.8,3.1c-10.6-8.2-21.2-16.4-31.8-24.6C173.1,27.8,175,26,177,24.6z M168,32.9
		c0.5-0.5,1-1.1,1.6-1.9c1.5,2.9,4.5,4.4,5.5,7.8C172.6,36.7,170.3,34.8,168,32.9z"/>
	<path d="M193,60.4c2.2,2.3,4.7,4.3,7.7,5.8c-1.3-2.6-3-4.9-4.7-7.1C195,59.6,194,60,193,60.4z"/>
	<path d="M181.7,47.8c-1-0.5-2.1-0.8-3-1.5c-1.5-1.1-2.8-2.3-4.1-3.5c-2.4-2.3-5.4-3-8.5-3.8c-0.4-0.1-1.2,0.4-1.3,0.6
		c-0.3,1.8-1,3.6,0,5.5c1.1,2.2,1.8,4.6,2.7,6.9c-0.2,0.1-0.4,0.2-0.6,0.3c-0.7-1.4-1.4-2.8-2.1-4.2c-0.2,0-0.3,0.1-0.5,0.1
		c0.2,0.9,0,2.1,0.5,2.7c1.6,1.7,1.6,3.8,2.1,5.8c1,4,1.8,8.1,2.6,12.2c0.2,0.9-0.2,2-0.2,3c-0.1,1.1-0.1,2.2,0,3.3
		c0,0.8,0.2,1.7,0.3,2.5c-0.1,0-0.3,0.1-0.4,0.1c-0.3-1-0.6-1.9-0.9-2.9c-0.1,0-0.1,0-0.2,0c0.2,2.9,0.4,5.8,0.6,8.7
		c-0.2,0-0.4,0-0.7,0.1c-0.3-1.4-0.6-2.8-1-4.1c-0.1,0-0.3,0-0.4,0c0,0.6-0.1,1.3-0.1,1.9c0,2.8,0.1,5.7,0.1,8.5
		c0,0.8,0.5,2.3-1.4,1.9c-0.1,0-0.4,0.9-0.5,1.4c-0.4,2.4-0.7,4.8-1,7.2c-0.2,0-0.4,0-0.6,0c0.2-3.1,0.4-6.2,0.6-9.3
		c-0.2,0-0.3-0.1-0.5-0.1c-0.4,1.7-0.8,3.5-1.1,5.2c-0.3,1.7-0.6,3.4-0.9,5.2c-0.2,0-0.5,0-0.7,0c-0.1-1-0.2-2-0.4-3.4
		c-0.8,1.3-1.4,2.3-2,3.3c-4.3,7.2-9.4,13.7-16.3,18.7c-3.7,2.6-7.6,4.9-11.5,7.3c-2.5,1.5-4,1.4-6.2,0.2c-0.1-1.3,0.7-1.9,1.8-2.3
		c10.9-3.9,18.9-11.6,25.8-20.5c6.3-8.2,10.1-17.7,11.9-27.9c0.7-3.9,0.6-7.9,0.5-11.9c-0.1-2.2-1.1-4.4-1.6-6.6
		c-0.3-1.6-1-3.3,0.2-5c0.2-0.2,0-0.8-0.1-1.1c-0.2-3.6-0.5-7.2-0.5-10.8c0-2.8,2.3-4.3,5-3.6c1.3,0.3,2.6,0.7,3.8,1.1
		c0.4,0.1,0.9,0.1,1.1,0.4C174.7,42.6,178.7,44.6,181.7,47.8L181.7,47.8z"/>
	<path d="M85.4,133.1c0,1.1,0.2,1.9,0,2.3c-1.4,2.2-3,4.3-4.5,6.5c-0.5,0.7-0.7,1.8-2.1,1.4c-1.2-0.3-2-0.9-1.2-2.7
		c-0.2,0-0.4,0.1-0.7,0.1c-0.7,0.5-1.4,0.9-2,1.4c-1.4,0.9-2.6,2-4.1,2.8c-1.5,0.8-2.2,0.4-2.7-1.1c2.9-1.9,5.6-3.8,8.4-5.5
		C79.3,136.6,82.2,135,85.4,133.1z"/>
	<path d="M168.8,23.3c-2.2,0.6-5.8-0.7-6.7-2.3c-0.6-1,0.1-2.3,1.5-2.1c1.1,0.1,2.4,0.5,3.2,1.2C167.6,20.8,168.1,22.1,168.8,23.3z"
		/>
	<path d="M131.3,99c1.1-2.8,2-5.2,3-7.7C136.6,93.4,135,97.6,131.3,99z"/>
	<path d="M105.3,133.9c2,0.1,3.8-2.7,6.3-0.4c-1,1-1.8,1.7-2.6,2.5c-1.2-0.5-2.4-1.1-3.6-1.6C105.3,134.2,105.3,134,105.3,133.9z"/>
</g>
</svg>
