<?xml version="1.0" encoding="utf-8"?>
<!-- Generator: Adobe Illustrator 17.1.0, SVG Export Plug-In . SVG Version: 6.00 Build 0)  -->
<!DOCTYPE svg PUBLIC "-//W3C//DTD SVG 1.1//EN" "http://www.w3.org/Graphics/SVG/1.1/DTD/svg11.dtd">
<svg version="1.1" id="Layer_1" xmlns="http://www.w3.org/2000/svg" xmlns:xlink="http://www.w3.org/1999/xlink" x="0px" y="0px"
	 viewBox="0 0 288 216" enable-background="new 0 0 288 216" xml:space="preserve">
<g>
	<path d="M194.3,130.3c-0.2-2.9-1.6-5.4-3.1-7.7c-0.3-0.4-0.6-0.9-0.8-1.3c-0.8-0.3-1.5-0.6-2.3-0.9c1,1.6,2,3.2,3,4.8
		c3.2,5.3,3,10.8,0.6,16.3c-1.5,3.3-3.2,6.5-5.9,9c-0.9,0.8-1.8,1.6-3.2,1.5c2.4-1.5,3.8-3.5,4-6.3c-0.1-0.1-0.2-0.1-0.3-0.2
		c-0.4,0.6-0.8,1.2-1.1,1.8c-0.9,1.7-2.3,2.9-4,3.7c-0.7,0.3-1.4,0.3-1.9-0.3c-0.7-0.9-1.3-1.7-1.9-2.6c-0.4-0.5-0.2-0.9,0.4-1
		c0.4-0.1,0.8-0.2,1.1-0.3c2.9-0.8,4.4-3,4.8-5.9c0-0.1,0-0.3-0.1-0.6c-0.2,0.3-0.3,0.5-0.4,0.6c-1.2,2.6-3.4,4-6,4.8
		c-0.7,0.2-1.1,0-1.3-0.7c-0.3-1-0.7-2.1-0.9-3.1c-0.3-1.6-0.1-3.1,0.9-4.4c1.2-1.4,2.3-2.8,3.6-4.1c0.5-0.5,1.3-0.5,2-0.8
		c0.3-0.2,0.6-0.5,0.9-0.7c-0.3-0.2-0.6-0.5-0.9-0.6c-1.1-0.3-2.1-0.5-3.2-0.8c0,0.5-0.2,1-0.4,1.5c0.3,0.1,0.6,0.2,0.9,0.2
		c-1,1.1-1.9,2-2.7,3c-1.5,1.6-2.6,3.5-2.5,5.6c0.3,4.2,1.9,7.8,4.9,10.8c2.3,2.4,4.7,2.5,7.2,0.3c3.4-2.8,5.6-6.5,7.3-10.4
		C194.6,138,194.6,134.2,194.3,130.3z"/>
	<path d="M200.6,52.9c0.4-0.1,0.7-0.2,1.1-0.3c0-0.2,0-0.3,0-0.4c-1.2-2.2-1.5-4.6-1.4-7.1c0.1-2.1-0.4-4.2-1.2-6.1
		c-0.3-0.8-0.3-1.5,0.1-2.3c1.4-3,2.4-6.1,2.2-9.4c-0.2-3.8-2.7-7.8-8.1-6.3c-1.9,0.5-3.8,1.4-5.6,2.3c-0.7,0.3-1.3,0.4-2,0
		c-2.5-1.5-5.1-2.1-8-1.6c-0.3,0.1-0.6,0-0.9-0.1c-3.5-0.8-7-0.6-10.5,0.4c-0.4,0.1-0.8,0.1-1.2,0c-2.3-0.5-4.6-1.2-6.9-1.5
		c-3-0.5-5.9,0.4-7.7,2.9c-1.2,1.7-2.6,2.8-4.5,3.5c-0.2,0.1-0.3,0.2-0.5,0.3c-1.8,1-3.6,1.9-5.5,2.9c-1.3,0.7-2.7,0.8-4.2,0.4
		c-1.1-0.3-2.2-0.5-3.4-0.2c0.2,0.4,0.4,0.7,0.8,1.3c-2-0.2-3.7-0.9-5.5,0.1c0.6,0.6,1.6,0.6,1.7,1.8c-1.4-0.4-2.5-0.7-3.9-1.1
		c0.1,0.7,0.1,1.1,0.2,1.6c-0.5-0.2-0.8-0.3-1.1-0.4c-1.5-0.5-3.1-1.3-4.6-1.5c-3.5-0.5-6.8-1.6-9.9-3.2c-0.2-0.1-0.3-0.1-0.6-0.2
		c-0.1,0.4-0.1,0.7-0.2,1c-0.2,0-0.2,0.1-0.3,0.1c-0.3-0.1-0.5-0.1-0.8-0.2c-5.8-1.9-11.8-2.1-17.8-1.3c-5.1,0.7-10.2,1.6-15.4,1.3
		c-0.2,0-0.3,0.1-0.6,0.2c0.4,0.5,0.8,1,1.3,1.6c-3.9,0.3-7.1,1.8-10.2,3.9c0.7,0.4,1.2,0.7,1.9,1.1c-0.5,0.3-0.9,0.6-1.4,0.8
		c-1.1,0.5-2.3,1-3.4,1.4c-2.7,1.1-4.9,2.7-6.4,5.2c-0.1,0.1-0.1,0.2-0.1,0.3c0.3,0.1,0.5,0.2,1,0.4c-0.6,0.5-1,0.9-1.4,1.2
		c-4.6,3.6-8.1,8.1-10.6,13.3c-1.2,2.6-2.5,5.2-3.8,7.7c0,0.1,0,0.1,0,0.3c0.5,0,1,0.1,1.7,0.2c-0.5,1.1-0.8,2.1-1.3,3.1
		c-2.1,4.1-3.4,8.4-3.9,13c-0.3,2.7-1.6,4.7-3.6,6.5c-0.8,0.7-1.6,1.3-2.6,2.2c1.5,0.2,2.8,0.4,4.3,0.6c-2,2.3-3.6,4.7-4.1,7.8
		c0.8-0.1,1.4-0.2,1.9-0.3c-0.4,2.2-0.8,4.4-1.1,6.5c-0.2,2-0.6,4-1.7,5.8c-2.1,3.4-4.4,6.7-6.6,10.1c-0.2,0.2-0.6,0.3-0.8,0.5
		c-1.2,0.6-2.5,1.1-3.5,1.9c-2.7,2.3-3.9,5.4-4.7,8.8c0,0.2,0.1,0.4,0.1,0.5c0.6-0.1,1.2-0.1,2-0.2c-1.2,2.9-1.2,5.6-0.5,8.3
		c1.1-0.6,1.4-0.5,1.8,0.5c0.5,1.1,0.9,2.3,1.2,3.4c1,3.3,2,6.6,3.1,9.9c0.5,1.7,1.7,2.7,3.4,3.4c4.7,1.8,9.4,2.2,14.3,1.5
		c2.9-0.4,5.7-1.4,8.2-2.8c0.8-0.5,1.1-1.1,0.9-1.9c-0.1-0.3-0.1-0.6-0.2-0.9c-0.9-3.1-2.8-5.3-6-6.1c-1.2-0.3-2.5-0.3-3.7-0.4
		c-1.1,0-1.9-0.5-2.2-1.5c-0.6-2-1.3-4.1-1.8-6.1c-0.4-1.4,0-2.6,1.3-3.5c3.1-2.2,6.1-4.5,9.2-6.8c2.9-2.1,6.1-4,8.8-6.3
		c3.8-3.2,7.3-6.8,10.3-10.8c0.6-0.8,1.2-1.5,1.8-2.3c0.3,0.2,0.5,0.3,0.6,0.4c3.1,2.5,6.1,5.2,9.3,7.6c3.5,2.8,7.2,5.3,10.7,8.1
		c1.8,1.4,2.7,3.4,2.9,5.7c0.2,2.7-0.2,5.4-1.3,8c-0.2,0.5-0.4,1-0.6,1.6c0.8,0.1,1.4,0.1,2.2,0.2c-0.3,1.2-0.5,2.2-0.8,3.3
		c-0.3,1.2-0.2,1.5,1.1,1.2c0.4-0.1,0.7-0.1,1.4-0.2c-0.3,1.3-0.6,2.4-0.9,3.5c0.5,0,0.9,0.1,1.2,0c0.8-0.3,1.3,0,1.8,0.6
		c0.9,1.2,1.8,2.3,2.7,3.5c2.2,3.1,5.2,4.6,9,4.6c3.7,0,7.4,0.2,11.1-0.5c2-0.3,3.9-0.7,5.6-1.8c1.1-0.6,1.3-1.1,0.7-2.2
		c-0.6-1.2-1.4-2.3-2.2-3.4c-1.5-2.1-3.5-3.2-6.2-2.7c-0.2,0-0.4,0-0.6,0c-2-0.1-3.6-0.9-4.6-2.7c-0.5-0.9-0.9-1.9-1.2-2.9
		c-0.8-3-0.4-6,0.1-9c0.4-2.5,1-5,0.8-7.5c-0.4-4.5-0.8-9-1.2-13.5c-0.1-0.9,0.1-1.1,0.9-1.3c2.5-0.7,5-1.5,7.5-2.3
		c0.3-0.1,0.7-0.2,1.2-0.3c-0.5,2.5-0.8,4.8-0.1,7c0.9-0.4,1.6-0.6,2.3-0.9c0.1,0.1,0.1,0.2,0.2,0.3c-0.9,2-1.4,4-1.4,6.4
		c0.9-0.7,1.6-1.2,2.4-1.7c0.1,0.1,0.2,0.1,0.4,0.2c-0.3,1.8-0.6,3.7-0.9,5.6c0.4-0.1,0.5-0.1,0.6-0.1c1.4-0.9,1.5-0.8,1.9,0.7
		c0.8,3.7,1.6,7.4,2.5,11.1c1.3,5.5,2.4,11,5.7,15.8c1.4,2.1,2.6,4.3,3.9,6.5c1.7,2.8,4.4,3.9,7.6,4c2.7,0.1,5.4,0,8.2,0
		c3.6,0,7-0.8,10.4-1.7c1-0.3,2-0.9,2.9-1.5c0.7-0.5,0.8-1.2,0.5-2.1c-1-2.9-2.9-4.9-5.8-6c-2.1-0.8-4.2-1-6.4-1
		c-0.7,0-1.5-0.1-1.9-0.5c-1-0.9-1.9-1.8-2.6-2.9c-2-3-1.6-6.5-1.3-9.8c0.3-3.3,0.6-6.5,0.9-9.7c0.3-3.5,0.6-7,0.9-10.4
		c0-0.6,0.3-0.8,0.9-1c1.4-0.5,2.8-1.1,4.2-1.6c0.2-0.1,0.4-0.2,0.7-0.1c1.1,0.1,2.3,0.3,3.5,0.5c-0.2,1.7-0.5,3.4-0.6,5
		c-0.1,1.7,0.2,3.3,1.2,4.8c0.4-0.5,0.7-0.8,1.1-1.3c1,1.3,1.5,3,3.2,3.6c0.2-0.4,0.3-0.8,0.5-1.2c1,0.8,1.9,1.5,2.8,2.3
		c0.3-0.4,0.5-0.7,0.8-1.1c0.4,0.6,0.9,1.2,1.4,1.7c0,0,0-0.1,0-0.1c-0.5-0.6-0.6-1.5-0.5-2.3c-0.3-0.4-0.6-0.9-1.1-1.7
		c-0.4,0.5-0.8,1-1.3,1.5c-1.3-0.5-1.3-1.9-1.8-2.9c-0.9,0.2-0.9,0.2-1.5,1.6c-1.1-1.1-1.2-2.4-1.1-4.1c-0.9,0.4-1.5,0.8-2.4,1.2
		c-0.3-2.2,0.1-4.2,0.9-6.1c0.8-2,2.2-3.5,3.9-4.9c-0.7-0.7-1.4-0.6-2-0.1c-0.7,0.6-1.5,1.2-2.1,1.8c-0.5,0.5-1,0.7-1.7,0.5
		c-0.3-0.1-0.5-0.1-0.8-0.1c-1.9-0.6-3.5-0.4-5.3,0.6c-2.4,1.2-2.6,0.7-2.6-1.5c0-1.2-0.1-2.3-0.2-3.5c0-0.4,0.1-1-0.6-1.1
		c-0.7-0.1-1,0.4-1,1c-0.1,2.3-0.2,4.5-0.2,6.8c-0.1,2.3,0,4.6-0.1,6.9c-0.2,4.2-0.5,8.5-0.8,12.7c-0.2,2.3-0.3,4.7-0.5,7
		c0,0.5,0,1.1,0.2,1.6c0.8,1.9,1.5,4,2.5,5.8c0.9,1.5,2.5,2.4,4.3,2.5c1.3,0.1,2.5,0.1,3.8,0.1l0.1,0.4c-0.5,0.1-1,0.3-1.5,0.4
		c0,0.1,0,0.1,0,0.2c1,0.1,2,0.2,3,0.3c2.8,0.1,4.4,1.9,5.8,4c0.4,0.6,0.3,1.2-0.3,1.5c-1,0.6-2,1-3,1.4c-0.3,0.1-0.8-0.2-1-0.5
		c-2.4-3.7-5.9-4.6-10-3.7c0.8,0.1,1.6,0.2,2.5,0.3c2.3,0.4,4.2,1.4,5.7,3.1c0.9,1,0.7,1.4-0.6,1.7c-5.5,1-10.9,1-16.4,0.2
		c-1.1-0.2-1.9-0.6-2.5-1.5c-2.6-4-5.2-8-7.7-12c-0.6-0.9-0.8-2.1-1-3.2c-1.5-6.6-3-13.1-4.4-19.7c-0.2-0.9-0.5-1.6-1.4-2
		c-0.6-0.2-0.7-0.7-0.5-1.2c0.2-0.7,0.5-1.4,0.6-2.1c0.3-1.6-0.4-2.2-1.9-1.9c-0.1,0-0.3,0-0.5,0c-0.1-1.1,0.5-1.9,1-2.8
		c0.3-0.6,1.1-1,0.4-1.8c-0.6-0.7-1.7-0.8-2.7-0.3c-0.2,0.1-0.5,0.3-0.8,0.5c-0.1-0.3-0.3-0.5-0.3-0.8c-0.1-1.8,0.1-3.6,1.3-5.1
		c0.4-0.5,0.2-1,0-1.5c-0.8-1.7-1.6-3.4-2.2-5.1c-0.8-2.2-1-4.5-0.5-6.9c-0.9,1.1-1.3,2.4-1.4,3.8c-0.2,2.7,0.3,5.2,1.4,7.6
		c0.5,1.2,0.5,1.2-0.8,1.7c-3.9,1.5-8,2.7-12.1,3.4c-2.4,0.4-4.7,1.2-6.8,2.7c-0.1,0.1-0.3,0.2-0.4,0.2c-0.1,0-0.2,0-0.4,0
		c-0.1-0.5-0.2-1.1-0.3-1.8c-2.6,0.6-5,1.6-7.3,3.4c-0.1-1-0.1-1.7-0.2-2.6c-2.3,0.1-4.5,0.7-6.8,1.6c0.2-0.7,0.4-1.3,0.7-2.1
		c-1.2,0.1-2.4,0.2-3.7,0.4c0.2-0.8,0.4-1.3,0.6-1.9c-5.8-0.8-9-5-12.4-9.3c-0.2,0.5-0.3,0.8-0.4,1.1c-1.6,6.5-5.1,12-9.6,16.9
		c-3.3,3.6-7.4,6.3-11.3,9.2c-3.5,2.6-7.1,5.1-10.6,7.6c-1.3,0.9-1.7,2-1.4,3.4c0.6,2.6,1.2,5.2,1.8,7.8c0.3,1.2,1.1,1.9,2.3,2
		c0.9,0.1,1.7,0.1,2.6,0.1c2,0,3.4,0.4,4.8,1.4c-1.7-0.1-3.2-0.2-4.7-0.2c0,0.1,0,0.1,0,0.2c0.8,0.2,1.5,0.3,2.3,0.5
		c2.4,0.4,3.6,2.1,4.6,4.1c0.3,0.6,0.1,1-0.5,1.2c-0.9,0.4-1.9,0.7-2.8,1.1c-0.6,0.2-0.9-0.3-1.2-0.7c-1.5-2.5-3.8-3.8-6.5-4.6
		c-0.3-0.1-0.7-0.1-1-0.1c0,0.1-0.1,0.2-0.1,0.2c0.7,0.3,1.3,0.7,2,1c1.8,0.7,2.9,2.1,3.7,3.7c0.5,1,0.4,1.2-0.7,1.5
		c-3.1,0.7-6.2,0.8-9.3,0.2c-1.5-0.3-2.9-0.7-4.4-1.1c-1.2-0.3-2.1-1-2.5-2.2c-1-2.8-2-5.6-2.9-8.4c-0.8-2.4-1.4-4.9-2.2-7.4
		c-0.2-0.7-0.3-1.5-1.5-1.2c-0.1,0-0.6-0.6-0.6-0.9c-0.2-1.5,0.1-2.9,0.7-4.2c0.7-1.6,0.7-1.6-1.1-1.9c-0.1,0-0.1-0.1-0.4-0.2
		c0.2-0.8,0.4-1.7,0.8-2.5c1.2-2.8,3.1-4.7,6.3-5.2c0.4-0.1,1-0.4,1.2-0.8c2.8-4.2,5.5-8.5,8.3-12.7c0.6-0.9,0.9-1.8,0.8-3
		c-0.3-2.8,0.3-5.5,1.1-8.2c0.5-1.5,0.3-1.7-1.3-1.5c-0.2,0-0.4,0-0.6,0.1c0,0-0.1,0-0.3-0.1c0.2-0.6,0.3-1.2,0.7-1.7
		c0.7-1,1.6-2,2.4-3c0.6-0.8,1.1-1.6,1.7-2.4c-0.1-0.1-0.1-0.2-0.2-0.2c-0.9,0.1-1.8,0.2-2.8,0.3c0-0.1-0.1-0.2-0.1-0.3
		c0.2-0.2,0.3-0.5,0.5-0.7c0.7-0.9,1.4-1.7,2.1-2.7c0.8-1.1,1.3-2.4,1.4-3.8c0.6-4.5,2.2-8.7,3.9-12.8c0.8-1.9,1.7-3.8,2.6-5.7
		c-0.6,0-1.1,0.1-1.9,0.1c3.5-8.7,8.2-16.2,16.2-21.7c-0.8-0.3-1.2-0.6-1.9-0.9c0.6-0.6,1.2-1.3,1.8-1.7c1.3-0.8,2.7-1.5,4.1-2.1
		c1.9-0.9,3.7-1.7,5.4-3.2c-0.6-0.3-1.1-0.5-1.8-0.9c3.2-2.2,6.6-2.6,10.2-3c-0.3-0.5-0.5-0.9-0.8-1.3c0.2-0.1,0.3-0.2,0.4-0.2
		c4.3,0.1,8.4-0.8,12.7-1.3c5.5-0.7,11-0.9,16.4,0.7c1.3,0.4,2.5,0.8,3.9,1.2c0-0.4,0.1-0.8,0.1-1.2c0.2,0.1,0.4,0.1,0.6,0.1
		c2.6,1.3,5.3,1.9,8.1,2.5c2.4,0.5,4.8,0.9,6.6,2.6c0.2-0.2,0.4-0.3,0.4-0.4c0.7-1.4,0.7-1.4,2.3-0.9c0.7,0.2,1.3,0.4,2,0.6
		c0.1,0,0.1,0,0.2-0.1c0.2-0.6,0.2-0.6-0.8-2.5c1.1-0.2,1.6-0.2,4.1,0.7v-2.1c0.7,0.1,1.2,0.2,1.7,0.4c1.7,0.7,3.3,0.4,4.8-0.4
		c1.9-1,3.8-2.1,5.8-3.1c0.6-0.3,1.3-0.5,2.2-0.9c0.1,0.7,0,1.3,0.2,1.8c0.5,1.8,1.1,3.6,1.6,5.4c0.2,0.8,0.4,1.6,0.6,2.4
		c0.1,0.3,0,0.6,0.1,0.8c0.8,1.3,0.2,2.4-0.5,3.5c-1.2,1.9-1.9,4.1-1.9,6.4c0,1.6-0.4,3.2-1.8,4.4c0.6,0.2,1,0.3,1.5,0.5
		c-1.1,1.7-2.2,3.3-2.4,5.4h3.4c-1.2,2.3-1.8,4.4-1.1,6.8c2.5-1.4,3.1-1.4,4.7,2.5c0.5-1.2,0.1-3.3-0.8-4.3c-0.7-0.8-1.2-1-2.7-0.7
		c-0.3-1.3-0.1-1.6,1.8-4.4c-0.8-1-2.1-1.2-3.5-1.4c0.7-2.2,1.8-3.8,3.6-5.1c0-0.1-0.1-0.2-0.1-0.2c-0.5,0-1.1-0.1-1.7-0.1
		c0-0.3,0.1-0.5,0.1-0.8c0.1-1.1,0.4-2.2,0.3-3.2c-0.2-2.1,0.5-4,1.8-5.5c1.2-1.5,1.8-2.9,0.9-4.9c-0.6-1.3-0.8-2.8-1.5-4.1
		c-0.4-0.9-0.7-1.8-0.9-2.8c-0.9-4.5,2.2-8,6.8-7.7c2.7,0.1,5.2,1.1,7.7,2.3c0.4,0.2,0.8,0.4,1.2,0.5c0.5,0.1,1,0.2,1-0.7
		c0-0.2,0.4-0.7,0.6-0.7c3.2-0.6,6.5-1,9.7-0.2c0.4,0.1,0.9,0.2,1.2,0.1c2.7-0.7,5.1,0.1,7.3,1.6c0.9,0.6,1.5,0.5,2.3,0.1
		c1.7-0.8,3.4-1.7,5.1-2.3c3.8-1.2,6.7,0.8,7.2,4.7c0.4,3.3-0.5,6.4-1.7,9.3c-0.5,1.2-0.5,2.3-0.1,3.6c0.5,1.3,0.7,2.6,0.8,4
		c0.1,2.8,0.5,5.6,1.4,8.3c-0.3,0.1-0.7,0.1-1.1,0.2c0.2,1.2,0.4,2.3,0.5,3.4c0.1,0.8,0.6,1.9-0.9,2c-0.1,0-0.2,0.6-0.2,0.9
		c0.1,1.3,0.2,2.5,0.3,4.1c-0.6-0.4-1.1-0.7-1.8-1.1c-0.3,1.6-0.5,3.1-0.9,4.9c-0.5-0.7-0.9-1.3-1.3-1.9c-0.2,0.1-0.3,0.1-0.5,0.2
		c-0.3,6.1-4.6,10-7.8,14.6c-0.4-0.2-0.8-0.4-1.3-0.7c-0.4,1.5-0.8,2.9-1.2,4.3c-1.4-0.6-1.4-0.6-2.3,0.5c-1.7,2.1-3.7,3.8-6.2,4.8
		c-0.4,0.1-1,0.6-0.9,0.8c0.2,0.7,0.9,0.6,1.4,0.4c0.9-0.3,1.7-0.7,2.6-1c0.3-0.1,0.7-0.3,1.3-0.7c-0.1,0.8,0,1.4-0.2,1.9
		c-0.9,2.5-1.6,5.1-2.8,7.4c-1.3,2.5-1.2,4.8,0.2,7.1c1.3,2.2,2.6,4.3,4,6.5c0.5-0.1,1-0.1,1.5-0.1c-1.5-2.5-2.9-5.1-4.3-7.7
		c-1.1-2-0.9-4,0.3-6c1.9-3.1,2.6-6.6,2.9-10.2c0.1-1.2,0.6-1.8,1.5-2.5c0.3,0.4,0.6,0.7,1,1.2c0.5-1.6,1-2.9,1.5-4.4
		c0.3,0.4,0.6,0.8,0.8,1.1c1.4-2.1,2.8-4.1,4.1-6.1c1.9-2.8,3.9-5.6,4.4-9.2c0.7,0.5,1.3,0.9,2,1.5c0-1.8-0.3-3.5,0.5-4.9
		c0.7,0.1,1.4,0.1,1.9,0.2c-0.1-1.6-0.3-3.1-0.4-4.7c0.6,0.1,1,0.2,1.6,0.3C201.1,56.6,200.8,54.8,200.6,52.9z M69.4,108.4
		c0.1-0.2,0.2-0.5,0.4-0.8c0.2,0.1,0.4,0.2,0.5,0.4c1.7,2.1,3.9,3.5,6.4,4.6c1.3,0.6,1.3,0.6,0.7,1.9c0.8,0.6,1.7,0.5,2.5,0.4
		c1.4-0.2,1.4-0.2,1.6,1.3c0,0.3,0.2,0.6,0.3,1.1c0.9-0.4,1.6-0.8,2.4-1.1c0.8-0.3,1.7-0.5,2.6-0.7c0.8-0.2,1.1,0.1,1.4,0.8
		c0.3,0.9,0.6,1.7,1.1,2.8c0.5-0.6,0.8-0.9,1-1.2c1.1-1.5,2.6-2.4,4.4-3c0.7-0.2,1.2-0.2,1.4,0.8c0.3,1.2,0.6,1.3,1.6,0.6
		c2.6-1.7,5.5-2.6,8.5-3.1c0.7-0.1,1.2,0,1.3,0.9c0.5,3.7,1.4,7.3,1.6,11c0.2,3.2-0.3,6.4-0.6,9.7c-0.2,2.8-1,5.6-0.3,8.4
		c0.3,1.3,0.8,2.6,1.4,3.7c1.5,2.4,3.8,3.2,6.5,3.1c2.9-0.1,4.7,1.5,6.2,3.7c0.4,0.6,0.6,1.2,0.1,2c-0.9-1.4-1.6-3-3.2-3.8
		c-0.8-0.4-1.7-0.6-2.6-0.9l-0.2,0.3c0.5,0.3,1,0.6,1.5,0.8c1.6,0.7,2.5,2,3.1,3.6c0.2,0.6,0.1,1-0.5,1.2c-0.4,0.1-0.7,0.3-1.1,0.4
		c-1.9,0.6-1.8,0.6-3-1c-0.7-1-1.6-1.8-2.5-2.5c-1.6-1.1-3.3-1.9-5.2-2.5l-0.2,0.3c0.3,0.3,0.6,0.6,1,0.9c0.9,0.6,1.8,1.1,2.7,1.6
		c1.3,0.8,2.2,2,2.9,3.3c0.3,0.7,0.1,1-0.8,1c-2,0.1-4,0-6.1,0c-0.5,0-1.1-0.1-1.6-0.2c-2.9-0.2-5.2-1.5-6.9-3.8
		c-1.2-1.6-2.2-3.4-3.4-5.1c-0.2-0.3-0.4-0.7-0.7-1.1c-0.6,0.4-1.1,0.8-1.8,1.4v-4.3c-0.7,0.4-1.2,0.7-1.9,1.2
		c0.5-2.1,0.8-3.9,1.3-5.9c-0.7,0.2-1.2,0.4-1.8,0.6c0.1-0.6,0.2-1,0.3-1.4c0.8-2.8,1-5.7,0.4-8.5c-0.5-2.3-1.6-4-3.5-5.3
		c-4-2.8-7.9-5.6-11.8-8.6c-2.4-1.8-4.7-3.9-7-5.9C68.7,110.1,68.8,110.1,69.4,108.4z"/>
	<path d="M183.7,64.2c-1.6-0.1-2.7-1-3.6-2.3c-0.7-1.1-0.9-2.2-0.7-3.5c0.1-0.8,0.1-1.6,0.2-2.4c0-0.2,0.1-0.4,0.2-0.7
		c1.3,1.1,2.8,1.1,4.2,1c1.4,0,2.9,0.2,4.2-1.2c0.7,1.1,1.5,2.1,2.2,3.2c0.3-1.2,0.2-2.4-0.5-3.4c-1.2-1.7-2.3-3.4-3.6-5
		c-1.3-1.7-2.2-3.5-2.8-5.5c0.1-0.1,0.3-0.2,0.4-0.3c0,0.2,0,0.3,0,0.5c1,2.8,2.8,5.1,4.6,7.4c3.1,4.1,2.8,2.9,2.7,8.4
		c0,1.4-0.2,2.9-0.6,4.3c-0.2,0.7-0.7,1.6-1.2,1.8c-2.6,1.2-5.2,2.6-8.1,2.7c-1.4,0.1-2.7-0.1-3.9-0.9c-0.7-0.5-1.4-0.6-2.2-0.5
		c-1.1,0.2-1.9-0.3-2.4-1.3c-1.1-2.4-2.1-4.9-3.1-7.3c-0.5-1.1-0.2-2.2,0.6-3.2c1.2-1.4,2.4-2.8,3.7-4.2c0.1-0.1,0.2-0.2,0.4-0.2
		c0.1,0,0.1,0.1,0.2,0.1c-0.2,0.4-0.4,0.9-0.7,1.3c-0.7,0.9-1.5,1.7-2.2,2.6c-0.9,1.2-1.4,2.5-0.8,3.9c0.7,1.7,1.5,3.4,2.4,5.1
		c0.4,0.9,1.2,1.5,2.2,1.4c2.2-0.1,4.4-0.1,6.5-0.3C182.8,65.8,183.6,65.4,183.7,64.2z M183.6,57.1c0,0,0-0.1,0-0.1
		c-0.5,0-1,0-1.5,0c-0.5,0-1,0.2-1.5,0.3c0.1,0.6,0.2,1.3,0.5,1.8c0.3,0.4,0.8,0.9,1.4,1c2.2,0.6,4.5,0.2,6.6-0.4
		c0.3-0.1,0.6-0.4,0.6-0.7c0.1-0.9-1.3-2.2-2.3-2.1C186.2,56.9,184.9,57,183.6,57.1z M190.5,60.2c-0.1,0-0.2-0.1-0.2-0.1
		c-0.9,2.2-2.6,3.3-4.7,4.1c-0.2,0.1-0.4,0.3-0.6,0.6c-0.6,0.8-0.4,1.4,0.5,1.3c1.3-0.1,2.5-0.5,3.8-0.9c0.3-0.1,0.6-0.6,0.6-0.9
		C190.2,62.9,190.4,61.5,190.5,60.2z M184.6,67.5c-1.8-0.9-3.6,0-5.4,0C180.9,68.6,182.8,68.3,184.6,67.5z M183.8,62.9
		c-0.8-0.5-1.4-0.9-2-1.2C182.1,62.5,182.6,63.1,183.8,62.9z"/>
	<path d="M67.3,66.6c1.1,0.4,2.4-0.1,3.5,1.1c-2,1.6-4.1,3-5.7,5.2c1.1,0.4,2.4-0.2,3.3,1c-1.6,1.4-3.8,2.3-4.3,4.8
		c1.2-0.3,2.2-0.5,3.2-0.8c0.1,0.1,0.1,0.2,0.2,0.3c-1.1,1.5-2.3,2.9-2.5,4.9c0.3,0,0.6,0,0.8-0.1c1.2-0.2,1.6,0.1,1.5,1.3
		c-0.1,1-0.4,1.9-0.6,2.8c-0.1,0.3-0.2,0.6-0.4,1.2c1-0.1,1.8-0.3,2.8-0.4c-1.2,3.4-2.5,6.6-2.4,10.1c-1-1-1-2.2-1.1-3.4
		c0-1.2,0-2.4,0-3.8c-0.4,0.3-0.7,0.5-1.1,0.7c-0.9-2.1-0.3-4.1,0.1-6.2c-0.3,0.2-0.6,0.4-1,0.8c-0.6-1.8-0.1-3.4,0.3-5.4
		c-0.6,0.4-1.1,0.7-1.7,1c-0.2-2.6,0.3-4.9,1.8-6.9C64,75,63.9,75,63.9,74.9c-0.5,0.2-1,0.4-1.8,0.7c0.4-1.6,1-2.9,1.9-4.1
		c0.9-1.1,1.9-2.1,2.8-3.3c-0.9,0.3-1.8,0.7-2.7,1c-0.3-2,1.4-4.1,4.7-5.5c-0.8-0.3-1.4-0.6-2.1-0.9c1.1-1,2.4-1.3,3.7-0.9
		c1,0.4,2,1.2,2.9,1.9c0.5,0.5,0.3,0.9-0.4,1C72,65,71.3,65,70.5,65C69.2,65.1,68.1,65.6,67.3,66.6z"/>
	<path d="M133.5,58c1.2-0.3,2.2-0.6,3.1-0.9c0.1,0.1,0.2,0.2,0.2,0.3c-2.3,2.6-4.1,5.5-4.8,9.2c0.7-0.2,1.3-0.3,2-0.5
		c0.1,2-0.6,3.8-0.2,5.8c0.9-0.9,1.3-2.3,2.5-2.3c-0.3,2.2-0.5,4.3-0.8,6.3c-0.2,1.6-0.9,2.9-2.7,3.5c0.4-1.5,1.5-2.7,0.7-4.3
		c-0.8,0.4-1.5,0.7-2.2,1c-0.1-0.1-0.1-0.1-0.2-0.2c0.2-0.6,0.6-1.2,0.7-1.8c0.3-1.3,0.6-2.7,0.7-4c0.1-1.6,0-1.7-1.8-1.3
		c0-0.8-0.1-1.5,0-2.1c0.4-1.7,1-3.3,1.6-5c0.1-0.4,0.3-0.8,0.5-1.3c-0.1-0.1-0.1-0.2-0.2-0.3c-0.8,0.2-1.5,0.5-2.5,0.8
		c0.2-0.5,0.2-1,0.4-1.3c0.7-1,1.4-2,2.3-3c1.7-1.9,3.5-3.7,5.3-5.6c0.2-0.2,0.4-0.5,0.6-0.8c-1-0.4-1.9-0.7-2.8-1.1
		c-0.2-0.1-0.3-0.3-0.5-0.5c1.6-1.4,3.7-2.2,4.9-4.2c-1.5-0.7-3-1.3-4.1-2.8c2.3-0.7,4.7-0.9,6.3-2.9c0.2,1-0.1,1.4-1.3,2
		c-0.8,0.4-1.6,0.8-2.4,1.2c0.6,0.8,0.6,0.8,3.8,1.2c-0.5,2.9-3.1,3.8-4.9,5.3c0,0.1,0,0.2,0,0.3c1.1,0,2.2,0.1,3.7,0.2
		C138.5,51.9,135.8,54.6,133.5,58z"/>
	<path d="M159.4,29.3c0.4,0.3,0.8,0.5,1.4,1c-1.8,0.9-2.7,2.4-2.9,4.3c-0.3-0.1-0.6,0-0.7-0.1c-1.7-1.2-3.1-2.7-3.8-4.8
		c-0.5-1.6-0.2-3.1,1.1-4.3c1.3-1.2,2.9-2,4.7-1.3c1.8,0.7,3.6,1.5,5.4,2.3c0.2,0.1,0.4,0.6,0.3,0.9c-0.1,0.5-0.3,1-1,0.9
		c-0.5-0.1-1-0.3-1.7-0.4c0,0.4,0,0.7-0.1,1.1C161.3,29,160.2,28.5,159.4,29.3z"/>
	<path d="M196.3,35.1c-0.2-1.8-1-3.2-2.6-4.2c0.5-0.3,0.9-0.5,1.2-0.7c0-0.1,0-0.2,0-0.3c-0.6-0.1-1.3-0.2-2-0.4
		c0-0.3-0.1-0.6-0.1-1.1c-0.5,0.2-0.9,0.3-1.3,0.4c-0.6,0.2-1.1,0-1.5-0.5c-0.4-0.5-0.4-0.9,0.3-1.2c1.3-0.5,2.2-1.5,3.1-2.5
		c1.3-1.6,3.3-1.4,4.6,0.2c1.1,1.5,1.3,3.2,1,4.9c-0.4,1.6-1.1,3.1-1.7,4.7c-0.1,0.2-0.3,0.4-0.4,0.7
		C196.6,35.2,196.5,35.1,196.3,35.1z"/>
	<path d="M124.8,63c-0.3,0.4-0.6,0.8-0.9,1.3c0.6,0.2,1,0.4,1.8,0.6c-1.2,1.1-2.3,2.1-3.3,3c0,0.1,0.1,0.2,0.1,0.2
		c0.5,0,1.1,0.1,1.7,0.1c-1.1,0.9-2,1.8-3,2.6c0,0.1,0.1,0.2,0.1,0.3c0.6,0.1,1.2,0.2,1.8,0.3c0,0.1,0.1,0.1,0.1,0.2
		c-1.4,0.8-2.5,1.9-3,3.7c0.8-0.2,1.5-0.3,2.3-0.6c-0.8,2-1.5,3.9-2.3,6c0.8-0.2,1.2-0.3,1.6-0.5c-0.6,1.8-1.1,3.6-1.6,5.4
		c-0.5-0.2-0.5-0.2-1.1-2.3c-0.4,0-0.8-0.1-1.4-0.1c1.2-2,2-4,2.4-6.2c-0.1-0.1-0.1-0.1-0.2-0.2c-0.5,0.3-0.9,0.5-1.5,0.9
		c-0.1-2,0.8-3.5,1.6-5.1c-0.4,0-0.6-0.1-1-0.1c0-1.3,0.8-2.2,1.7-3.2c-0.4,0-0.8,0-1.2-0.1c0.4-1.7,1.7-2.6,2.8-3.8
		c-0.5,0-1,0-1.5,0c0-0.1-0.1-0.2-0.1-0.3C121.9,64.1,123.2,63.4,124.8,63z"/>
	<path d="M155.7,101.5c0.6,0.5,1.1,0.9,1.7,1.4c0.1,0,0.2-0.1,0.3-0.1c-0.2-2.6-0.1-5.2,1.9-7.3c0.8,0.7,0.6,2,2,2.3
		c0.1-3,1.4-5.2,4.1-6.4c-0.7,1.2-1.6,2.2-2,3.4c-0.5,1.2-0.5,2.6-0.7,3.9c-0.1,1.4-0.3,1.6-1.6,1.1c-0.5-0.2-0.9-0.4-1.5-0.6
		c-1.1,2.2-0.9,4.2,0.1,6.3c-1.5,0.6-2.5-0.1-3.9-0.7c-0.2,1.5-0.4,2.8-0.6,4.2c-1.7-0.4-3-2.7-2.7-4.8c0.4,0.4,0.8,0.7,1.3,1.1
		C154.7,103.9,154.6,102.4,155.7,101.5z"/>
	<path d="M113.7,46c1.2-0.6,2.5-1.2,3.8-1.9c-0.5-0.4-1-0.7-1.6-1.1c1.4-1.2,3-1.2,4.7-1.8c-0.4-0.2-0.8-0.4-1.2-0.7
		c1.5-0.4,3,0.4,3.7,2.1c-1.5,0-3,0-4.7,0c0.9,0.9,1.6,1.6,2.3,2.4c-0.1,0.1-0.1,0.2-0.2,0.3c-0.8,0-1.6,0-2.5,0
		c0.6,1,1.2,1.9,1.8,2.8c-1.4,0.3-2.6,0.6-3.8,0.9c-0.1-0.1-0.1-0.1-0.2-0.2c0.5-0.6,1.1-1.2,1.7-1.9c-1-1.1-2.4-0.8-3.7-0.8
		C113.7,46.3,113.7,46.2,113.7,46z"/>
	<path d="M114,78.4c0.4,0.1,0.5,0.1,0.6,0.2c0.5,0.2,1,0.3,1.5,0.5c-0.3,0.4-0.5,0.9-0.8,1.3c-0.4,0.5-0.9,0.8-1.3,1.3
		c0,0.1,0,0.2,0,0.3c0.6,0.1,1.3,0.1,2,0.2c-0.3,1.2-1.6,1.7-2.4,2.8c1.1,0.1,2,0.1,2.8,0.2c0.1,0.1,0.1,0.1,0.2,0.2
		c-0.8,0.9-1.7,1.8-2.5,2.6c-0.1,0-0.2-0.1-0.3-0.1c0.2-0.6,0.4-1.3,0.6-2c-0.7-0.1-1.4-0.3-2.5-0.5c0.7-0.9,1.2-1.6,1.8-2.4
		c-0.5-0.3-1-0.6-1.6-0.9c0.8-0.7,1.6-1.3,2.3-2c0-0.1-0.1-0.2-0.1-0.3c-0.6,0-1.1,0.1-1.7,0.1c0.1-1.8,1.8-4.1,3.3-4.4
		C115.3,76.5,114.7,77.4,114,78.4z"/>
	<path d="M197,47.4c1.6,2.4-2.2,11.2-5.1,12c0.3-0.5,0.4-0.9,0.7-1.2c2.1-2,2.9-4.6,3.5-7.4c0.2-0.8,0.3-1.6,0.5-2.4
		C196.7,48.1,196.9,47.8,197,47.4z"/>
	<path d="M178.1,25.5c0.6,0,1.1-0.1,1.6,0c0.3,0,0.6,0.3,0.7,0.5c0.8,2.2,1.1,4.4,0.8,6.7C180.1,30.4,179.1,28,178.1,25.5z"/>
	<path d="M174.9,45.9c-0.7-0.3-1.2-0.4-1.6-0.6c-0.4-0.3-0.7-0.8-1-1.2c0.4-0.3,0.8-0.7,1.3-0.9c1.4-0.5,2.6,0.5,2.2,1.7
		C175.6,45.3,175.2,45.6,174.9,45.9z M174.4,44.7c0.1-0.7,0.2-1.2-0.6-1.2c-0.3,0-0.8,0.4-0.8,0.6C173,44.9,173.7,44.7,174.4,44.7z"
		/>
	<path d="M187.8,45.2c-0.8,0-1-0.4-1-1.1c0-0.9,0.4-1.4,1.2-1.4c0.7,0,1.6,0.8,1.5,1.4C189.5,44.6,188.6,45.2,187.8,45.2z
		 M189.4,43.8c-0.5-0.3-0.8-0.6-1.1-0.7c-0.2,0-0.5,0.4-0.5,0.7c0,0.1,0.4,0.5,0.6,0.5C188.7,44.4,188.9,44.1,189.4,43.8z"/>
	<path d="M179.2,48.9c0,1.9,0,3.8,0,5.7c-0.1,0-0.2,0-0.4,0C178.4,52.7,178.5,50.8,179.2,48.9z"/>
	<path d="M179.9,43.7c-0.3,1.9-1.1,3.4-2.3,4.6C178.4,46.9,179.1,45.4,179.9,43.7z"/>
	<path d="M185,40.8c-1-0.9-1-1.4-0.1-2.1C185,39.4,185,40.1,185,40.8z"/>
	<path d="M177.3,40.9c0.5-0.7,0.8-1.5,0.1-2.4C178.7,39.2,178.6,39.9,177.3,40.9z"/>
</g>
<g>
	<path d="M259.7,87.8c-2.4-1-4.8-0.8-7.2-0.2c-1.1,0.3-2.2,0.7-3.3,1.1c-0.2,0.1-0.6,0-0.8-0.1c-1-0.6-2-1.3-2.9-1.9
		c-0.7-0.5-1.4-1-2.1-1.4c-1.6-1-3.3-1-5.1-0.6c-1.2,0.3-2.5,0.6-3.7,0.8c-1,0.1-1.9-0.2-2.7-0.8c-0.5-0.4-1.1-0.6-1.8-0.5
		c-1,0.1-2.1,0.1-3.1,0.2c-0.6,0.1-1.3,0.3-1.9,0.5c-1.1,0.3-2.2,0.4-3.4,0.1c-0.8-0.2-1.5-0.4-2.3-0.5c-1.6-0.3-3.1,0.2-4.4,1.1
		c-0.7,0.5-1.4,1-2.2,1.4c-0.9,0.6-2,0.9-3.1,1.1c-1.9,0.2-3.5,1-4.6,2.5c-0.4,0.5-0.7,1.1-0.9,1.7c-0.7,2.3-2.2,3.8-4.5,4.6
		c-0.6,0.2-1.3,0.5-1.8,0.9c-1.7,1-2.4,2.4-2.1,4.4c0.2,1.2,0.4,2.3,0.6,3.5c0.1,1.1-0.1,2-0.7,3c-0.4,0.6-0.6,1.2-0.8,1.9
		c-0.1,0.3-0.2,0.4-0.6,0.4c-3.5-0.3-6.9-0.7-10.4-1c-0.8-0.1-1.7-0.2-2.5-0.2c-0.2,0-0.3,0.1-0.5,0.1c-0.3,0.4-0.6,0.8-0.8,1.2
		c0,0.1,0,0.1,0,0.2c0.3,0.1,0.6,0.1,0.9,0.2c1.8,0.2,3.6,0.4,5.5,0.5c2.4,0.2,4.8,0.6,7.2,0.7c0.9,0.1,1.6,0.1,2,1
		c0.1,0.2,0.2,0.4,0.1,0.6c-0.4,2,0.6,4.2,2.5,5c0.8,0.4,1,0.8,1.1,1.6c0,0.1,0,0.2,0,0.4c0.1,1.1,0.1,2.2,0.2,3.3
		c0.1,0.8,0.3,1.6,0.4,2.3c0,0,0,0,0,0c-0.3-1.3-0.7-2.5-1-3.8c0,0-0.1,0-0.1,0c0.2,0.8,0.3,1.6,0.5,2.4c0,0-0.1,0-0.1,0
		c-0.6-0.8-0.7-1.8-1-2.7c0.1,0.5,0.2,1.1,0.2,1.7c-1-0.6-0.6-1.6-1.1-2.4c0.1,0.6,0.1,1.1,0.2,1.6c-0.1,0-0.1,0-0.2,0.1
		c-0.1-0.2-0.2-0.4-0.3-0.6c-0.1-0.2-0.1-0.5-0.2-0.7c-0.1-0.2-0.1-0.4-0.2-0.6c-0.1,0-0.1,0-0.2,0.1c0.1,0.4,0.2,0.8,0.2,1.3
		c-0.8-0.2-0.4-0.9-0.8-1.4c0,0.4,0,0.6,0,0.9c-0.1,0-0.1,0-0.2,0.1c-0.2-0.3-0.3-0.6-0.5-1c0,0.2,0,0.4,0,0.6
		c-0.1,0-0.1,0.1-0.2,0.1c-0.2-0.3-0.4-0.7-0.7-1c0,0.2,0.1,0.4,0.1,0.6c-0.1,0-0.1,0.1-0.2,0.1c-0.2-0.3-0.4-0.5-0.6-0.8
		c0,0.1-0.1,0.2-0.1,0.5c-0.2-0.4-0.4-0.7-0.6-1.1c0,0.3,0,0.5,0,0.7c0,0-0.1,0-0.1,0.1c-0.1-0.2-0.3-0.4-0.4-0.5
		c-0.1,0.3-0.3,0.3-0.5,0.1c-0.1-0.1-0.2-0.1-0.2-0.1c-0.5,0-0.6-0.1-0.6-0.7c1.6,0.4,3.3,0.8,4.9,1.2c-0.6-0.3-1.3-0.5-2-0.8
		c-2.7-1-5.5-1.8-8.4-1.8c-2.8,0-5.5-0.1-8.2,0.7c-1.3,0.4-2.5,1-3.3,2.3c-0.1,0.1-0.1,0.2-0.2,0.5c0.3-0.2,0.5-0.3,0.7-0.5
		c0.6,0.3,1.3,0.6,1.9,0.9c0.6,0.3,0.6,0.3,0.4,1c-0.1,0-0.2-0.1-0.3-0.1c-0.5-0.2-0.9-0.5-1.4-0.7c-0.1,0-0.2,0-0.3,0.1
		c0.1,0.1,0.1,0.2,0.2,0.3c0.4,0.2,0.8,0.4,1.3,0.5c0.5,0.2,0.6,0.5,0.4,1c-0.5-0.2-1-0.5-1.5-0.7c-0.1-0.1-0.3,0-0.5,0
		c0.1,0.1,0.2,0.3,0.3,0.3c0.5,0.2,0.9,0.4,1.4,0.5c0.4,0.1,0.4,0.3,0.3,0.7c-0.4-0.2-0.8-0.3-1.2-0.5c-0.1,0-0.2,0.1-0.3,0.1
		c0.1,0.1,0.1,0.2,0.2,0.2c0.2,0.1,0.4,0.1,0.6,0.2c0.8,0.3,1,0.5,0.7,1.4c-0.4-0.2-0.8-0.4-1.2-0.6c0,0.1-0.1,0.1-0.1,0.2
		c0.1,0.1,0.2,0.2,0.4,0.3c0.3,0.1,0.6,0.2,0.8,0.4c0.2,0.1,0.3,0.3,0.4,0.5c0,0-0.1,0.1-0.1,0.1c-0.4-0.2-0.8-0.4-1.2-0.5
		c0,0.1-0.1,0.1-0.1,0.2c0.1,0.1,0.2,0.2,0.3,0.3c0.2,0.1,0.5,0.2,0.7,0.3c0.3,0.1,0.4,0.3,0.3,0.7c-0.4-0.2-0.7-0.4-1-0.5
		c0,0.1-0.1,0.2-0.1,0.2c0.3,0.2,0.5,0.4,0.8,0.5c0.6,0.2,0.6,0.6,0.6,1.2c-0.2-0.1-0.4-0.2-0.6-0.3c-0.1,0-0.2,0-0.3,0
		c0,0.1,0,0.2,0.1,0.3c0.1,0.1,0.2,0.2,0.4,0.2c0.5,0.2,0.6,0.6,0.6,1.1c-0.3-0.1-0.5-0.1-0.7-0.2c0,0.1,0,0.1-0.1,0.2
		c0.3,0.1,0.6,0.2,0.8,0.4c0.2,0.2,0.1,0.6,0.2,0.9c-0.3,0-0.5,0-0.7,0c0,0.1,0,0.1,0,0.2c0.1,0.1,0.3,0.1,0.4,0.2
		c0.2,0.1,0.4,0.3,0.4,0.5c0.1,0.5,0.1,0.9,0.2,1.4c0.3-0.5,0.9-0.9,1.5-1.1c-0.4-2.6-0.7-5.1-1.1-7.7c-0.2-1.5-0.1-3,0.4-4.4
		c0.7-1.8,0.6-1.5,2.2-1.4c4.5,0.3,8.7,1.7,12.8,3.5c1.8,0.7,3.4,1.8,4.3,3.5c0.7,1.2,1.2,2.5,1.8,3.8c0.4,1,0.8,2,0.8,3.1
		c0,1,0,2,0.1,2.9c0.1,3.2,0.2,6.4,0.3,9.7c0.1,3.5,0.1,7.1,0.1,10.6c0,1.3,0,2.5,0,3.9c-0.2-0.1-0.3-0.1-0.4-0.1
		c-1.2-0.5-2.5-1-3.7-1.4c-2.6-0.9-5.2-1.7-7.7-2.6c-2-0.7-3.8-1.7-5.2-3.2c-0.1-0.1-0.2-0.1-0.3-0.1c-0.3,0.4-0.5,0.7-0.8,1.1
		c0.1,0.2,0.2,0.4,0.3,0.5c0.7,0.6,1.4,1.2,2.2,1.7c2.1,1.4,4.6,2,7,2.8c2.8,0.9,5.5,1.9,8.3,2.8c0.3,0.1,0.5,0.3,0.5,0.6
		c0,0.9,0,1.8,0.1,2.6c0,1,0.1,1.9,0.1,2.9c0,0.1,0.2,0.3,0.2,0.4c0.1-0.1,0.2-0.2,0.3-0.4c0-0.1,0-0.2,0-0.3
		c0.1-5.7,0.3-11.3,0.4-17c0.1-3.5,0.1-6.9,0-10.4c-0.1-3-0.2-6-0.4-9c0-0.6-0.1-1.3,0-1.9c0-0.5,0.2-0.9,0.3-1.5
		c0.2,0.1,0.6,0.2,0.9,0.4c1.1,0.6,2.3,0.5,3.4-0.1c0.7-0.4,1-1,1.4-1.7c0.3-0.6,0.6-1.2,1.1-1.7c0.8-0.8,1.9-0.7,2.6,0.1
		c0.2,0.2,0.4,0.5,0.5,0.8c0.2,1,0.5,2,0.6,3c0.2,1.5,0.3,2.9,0.6,4.4c0.4,2,1.6,3.4,3.7,3.8c0.8,0.2,1.7,0.1,2.5-0.3
		c-0.4-0.3-0.8-0.6-1.2-0.8c-0.1,0-0.2-0.1-0.3-0.1c-2.3-0.8-3.3-2.6-3.6-4.9c-0.1-1.3-0.2-2.7-0.4-4c-0.1-0.9-0.5-1.7-1.1-2.4
		c-1.1-1.3-4.1-1.9-5.2,0.1c-0.3,0.4-0.5,0.9-0.7,1.3c-0.5,1.2-1.6,1.7-2.9,1.4c-1.7-0.4-3.2-2.3-3.4-4.2c-0.1-1.3-0.2-2.6-0.2-4
		c0.2,0,0.4,0,0.7,0.1c-0.9-0.7-1.9-1.3-2.7-2c-0.9-0.8-1.6-2.1-1.5-2.9c0.4,0.2,0.8,0.6,1.4,0.4c-0.4-0.4-0.8-0.8-1.1-1.3
		c-0.4-0.6-0.8-1.1-1.1-1.8c-0.6-1.4-0.4-2.7,0.6-3.9c1-1.2,1.3-2.6,0.9-4.2c-0.2-0.9-0.4-1.9-0.5-2.8c-0.2-1.5,0.4-2.5,1.8-3.2
		c0.5-0.2,0.9-0.4,1.4-0.6c2.1-0.7,3.7-2,4.6-4.1c0.2-0.4,0.4-0.8,0.6-1.2c1-2,2.5-3.2,4.8-3.4c0.9-0.1,1.8-0.2,2.6-0.6
		c1.1-0.5,2.2-1.1,3.3-1.7c1.3-0.8,2.6-1.1,4-0.7c0.3,0.1,0.6,0.1,0.9,0.2c0.9,0.2,1.8,0.3,2.7,0c0.5-0.1,1-0.3,1.5-0.4
		c1.1-0.3,2.2-0.6,3.4-0.5c1,0.1,1.8,0.2,2.6,0.7c0.5,0.3,1.1,0.4,1.7,0.5c1.3,0.2,2.6-0.1,3.8-0.6c2.1-0.8,4.2-0.9,6.1,0.3
		c1.4,0.8,2.6,1.9,4,2.9c-0.5,0.2-1,0.4-1.5,0.6c0,0.1,0,0.1,0,0.2c0.2,0,0.3,0.1,0.5,0.1c2,0,3.9-0.6,5.8-1.2
		c2.5-0.7,5-1.1,7.4,0.2l0.8-1.2C260,88,259.9,87.9,259.7,87.8z M176.9,122.7c-0.7-0.4-1.4-0.8-2.1-1.2c1-0.5,1.6,0.3,2.4,0.5
		C177.1,122.3,177,122.5,176.9,122.7z M177.4,121.6c0,0.1-0.1,0.1-0.2,0.3c-0.4-0.3-0.8-0.5-1.3-0.8c0.7-0.3,1.1,0.1,1.6,0.3
		C177.5,121.5,177.5,121.5,177.4,121.6z M177.6,121.2c-0.3-0.1-0.5-0.2-0.7-0.3c0,0,0-0.1,0-0.1c0.3-0.1,0.7-0.1,1.1-0.2
		C177.9,120.8,177.8,121,177.6,121.2z M190,120.1c0.4,0,0.8,0.1,0.7,0.7C190.1,120.7,190.1,120.7,190,120.1z"/>
	<path d="M200.5,175.5c0.5,1,0.3,2.2,0.4,3.3c0.3,3.4,1.3,6.5,3.7,9c1.6,1.6,3.6,2.8,5.6,3.9c4.3,2.2,9,3.2,13.7,3.7
		c3.3,0.4,6.5,0.7,9.8,0.6c3.2-0.1,6.4-0.5,9.5-1.4c1.7-0.5,3.5-0.9,5.2-1.4c1.9-0.6,3.7-1.2,5.6-1.9c1.7-0.6,3.5-1.2,5.1-2
		c4.5-2.3,7.2-5.9,7.7-11c0.2-2.2,0.3-4.4,0.3-6.6c-0.1-3.6-0.3-7.2-0.4-10.8c-0.1-3.3,0-6.5,0-9.8c0-2.3-0.1-4.6-0.2-7
		c0-0.6-0.1-1.3-0.1-1.9c0-0.3,0.1-0.5,0.4-0.6c0.6-0.3,1.1-0.7,1.6-1.1c0.1-0.1,0.2-0.3,0.3-0.4c-0.3-0.2-0.7-0.4-1-0.7
		c-0.1,0.1-0.2,0.1-0.3,0.2c-0.9,0.7-1.9,1.1-3,1c-2.3-0.2-3.9-1.3-3.1-4c0.1-0.4,0.3-0.8,0.4-1.2c-0.3-0.2-0.5-0.4-0.8-0.6
		c0,0-0.1,0-0.1,0c-0.4,0.6-0.9,1.3-1.3,1.9c-0.3,0.8-0.3,1.6,0,2.4c0.9,2,2.4,3,4.5,3.3c0.2,0,0.5,0,0.7,0c0,0.6,0,1.2,0,1.8
		c0,4,0.1,8,0.1,12.1c0,2.9,0.1,5.8,0.1,8.6c0,1.5,0.1,2.9,0.1,4.4c0,1.8,0,3.6-0.1,5.4c0,2-0.3,4-0.9,5.9c-0.4,1-0.8,2-1.6,3
		c0.3-1.1,0.6-2.1,0.8-3.1c0.2-1,0.3-2,0.4-3c0,0-0.1,0-0.1,0c-0.1,0.5-0.2,1.1-0.3,1.6c-0.4,2.2-1,4.4-2.6,6.2
		c0,0.1-0.1,0.1-0.1,0.2c0,0.8-0.7,0.9-1,1.2c0.3-0.8,0.6-1.6,0.8-2.5c0.2-0.9,0.4-1.8,0.6-2.6c-0.3,0.8-0.6,1.7-0.8,2.5
		c-0.3,1-0.6,2-1.6,2.7c-0.1,0.1-0.1,0.4-0.1,0.7c-0.1,0-0.3,0.1-0.6,0.3c0.5-1.3,0.8-2.6,0.8-3.9c-0.1,0.1-0.1,0.3-0.1,0.5
		c-0.2,1.3-0.5,2.5-1.2,3.6c-0.1,0.2-0.4,0.3-0.6,0.5c0.1-1.1,0.6-2,0.6-3c-0.2,0.2-0.2,0.3-0.3,0.5c-0.3,0.8-0.6,1.7-0.9,2.5
		c-0.1,0.3-0.3,0.5-0.7,0.5c0.2-0.4,0.4-0.8,0.6-1.3c0.1-0.4,0.2-0.8,0.3-1.3c0,0-0.1,0-0.1,0c0,0.1-0.1,0.1-0.1,0.2
		c-0.2,1-0.7,1.8-1.3,2.5c-0.2,0.2-0.5,0.3-0.7,0.5c0,0-0.1-0.1-0.1-0.1c0.2-0.5,0.4-1,0.7-1.5c-0.4,0.4-0.6,0.8-0.9,1.3
		c-0.3,0.6-0.8,0.6-1.4,0.7c0.1-0.4,0.1-0.7,0.2-1c0,0-0.1,0-0.1-0.1c-0.1,0.2-0.2,0.3-0.2,0.5c-0.1,0.5-0.5,0.7-1,0.8
		c-0.9,0.2-1.8,0.6-2.7,0.8c-0.3,0.1-0.5,0.2-0.8,0.3c-2.4,0.7-4.8,1.3-7.2,1.9c-2.5,0.6-5,1.1-7.6,1c-4.8-0.3-9.6-0.8-14.3-1.7
		c-4.7-0.9-9-2.9-12.6-6c-1.8-1.6-3-3.5-3.3-5.8c-0.2-1.7-0.4-3.5-0.6-5.2c-0.1-0.6-0.2-1.3-0.3-1.9
		C201.5,174.1,201,174.8,200.5,175.5z"/>
	<path d="M200.5,175.5c0.5-0.7,0.9-1.3,1.4-2c-0.1-0.5-0.1-0.9-0.2-1.4c0-0.1-0.1-0.2-0.2-0.3c-0.1,0.1-0.2,0.2-0.3,0.3
		c-0.1,0.1-0.1,0.3-0.1,0.4c-0.1,0.5-0.1,1-0.2,1.6c-0.2-0.2-0.3-0.3-0.3-0.4c-0.6-0.7-1.1-1.4-1.7-2.1c-2.7-2.6-5.7-4.5-9.3-5.5
		c-2.1-0.6-4.2-1.1-6.2-1.9c-3.2-1.2-5.8-3.1-7.3-6.4c-0.1-0.3-0.3-0.6-0.5-0.9c-1.7-3-2.8-6.3-3-9.8c-0.2-3.8-0.9-7.5-1.7-11.2
		c-0.9-4.1-1.7-8.2-2.1-12.4c-0.2-2.2-0.2-4.3,0.3-6.4c0.2-0.9,0.6-1.8,1.2-2.4c2-2,4.5-3,7.3-3.3c0.8-0.1,1.6-0.2,2.5-0.2
		c0-0.1,0-0.1,0-0.2c-0.6-0.4-1.2-0.8-1.9-1.3c-0.8,0-1.6,0-2.4,0.2c-2.7,0.5-5,1.8-6.9,3.8c-1.5,1.6-2.1,3.5-1.9,5.6
		c0.1,2.3,0.4,4.6,0.7,6.9c0.3,2.4,0.7,4.9,1.1,7.3c0.5,3.2,1.1,6.4,1.7,9.5c0.5,2.7,0.8,5.5,1.3,8.3c0.5,2.7,1.4,5.3,2.9,7.7
		c2.1,3.6,5.2,6,9.2,7.2c2.2,0.7,4.4,1.2,6.6,1.8c3.5,1,6.5,3,8.9,5.7C199.8,174.3,200.1,174.9,200.5,175.5z"/>
	<path d="M260.2,88.1c-0.3,0.4-0.5,0.8-0.8,1.2c1.9,1.1,2.7,3,3.1,5.1c0.2,1,0.3,1.9,0.6,2.9c0.4,1.8,1.6,3.1,2.9,4.2
		c-0.3-0.6-0.5-1.2-0.8-1.8c1.2,0.5,2.5,0.7,3.5,1.6c0.9,0.8,1.6,1.7,1.6,3c0,0.8-0.3,1.6-0.5,2.4c-0.4,1.5-0.5,3,0.3,4.5
		c0.5,0.8,0.4,1.6,0,2.4c-0.6,1.4-1.2,2.9-1.8,4.4c0,0-0.1,0-0.2,0.1c-0.1-0.8-0.1-1.5-0.2-2.3c-0.1,0.1-0.1,0.2-0.1,0.3
		c-0.1,0.9-0.3,1.7-0.2,2.6c0.2,1.4,0.7,2.8,1,4.3c0,0.1,0.1,0.2,0.2,0.3c0.3-0.4,0.5-0.8,0.8-1.2c0-0.5-0.1-1-0.1-1.5
		c-0.1-1.5,0.3-2.9,1-4.2c0.4-0.8,1.1-1.5,1.3-2.4c0.2-0.8,0.5-1.7-0.1-2.5c-0.2-0.3-0.5-0.6-0.7-0.9c-0.6-0.9-0.4-1.9,0.1-2.8
		c0.6-1.1,0.7-2.3,0.6-3.5c-0.2-1.9-1.2-3.3-2.9-4.2c-1.3-0.7-2.7-1.3-4-1.9c-0.4-0.2-0.6-0.4-0.6-0.8c-0.3-1.7-0.6-3.3-0.9-5
		c-0.3-1.5-1-2.7-2.3-3.6C260.8,88.4,260.5,88.3,260.2,88.1z"/>
	<path d="M269.7,121.8c-0.3,0.4-0.5,0.8-0.8,1.2c0,0.2,0,0.4,0,0.6c0.3,1.7,0.1,3.3-0.8,4.9c-0.6,1-0.9,2.1-0.7,3.3
		c0.2,1.1,0.6,2.2,1,3.2c0.6,1.5,0.4,2.8-0.6,4.1c-0.1,0.1-0.1,0.2-0.1,0.3c0.3,0.2,0.7,0.4,1,0.7c0.1-0.1,0.3-0.2,0.4-0.3
		c1.2-1.4,1.4-3,0.8-4.7c-0.3-0.9-0.7-1.8-1-2.7c-0.4-1.1-0.4-2.1,0.3-3.1c0.3-0.4,0.5-0.8,0.8-1.2c0.9-1.2,0.7-2.5,0.5-3.8
		c-0.1-0.7-0.4-1.5-0.6-2.2C269.8,122,269.7,121.9,269.7,121.8z"/>
	<path d="M178.3,109.7c0.6,0.4,1.2,0.8,1.9,1.3c0.3-0.4,0.6-0.8,0.8-1.2c-0.3-0.1-0.7-0.2-1-0.2
		C179.4,109.6,178.8,109.7,178.3,109.7z"/>
	<path d="M263.8,130.4c0.9-1.9,0.8-3.8-0.2-5.6c-2.1-3.7-5.7-5.4-9.9-4.9c-1.5,0.2-2.9,0.6-4.2,1.2c-0.1,0-0.2,0.1-0.2,0.2
		c0.5-0.1,1-0.1,1.5-0.2c0,0,0.1,0.1,0.1,0.1c-0.1,0-0.1,0.1-0.2,0.1c-2.1,1.3-2.8,3.1-2.3,5.5c0.2,1,0.4,1.9,0.4,2.9
		c0.1,1.8-0.7,2.9-2.5,3.1c-1.3,0.2-2.5,0.2-3.8,0.4c-0.5,0.1-1.1,0.2-1.6,0.3c0,0-0.1-0.1-0.1-0.1c0.3-0.4,0.6-0.8,1-1.2
		c-0.1,0-0.2,0-0.2,0c-1.7,0.8-2.9,1.9-3.2,3.8c-0.2,0.8-0.2,1.7-0.5,2.5c-0.3,0.8-0.6,1.6-1.1,2.3c-0.5,0.7-1.2,0.9-2.1,0.7
		c-1.2-0.3-2.3-0.9-3.1-1.8c-0.8-0.9-0.8-2.1-0.8-3.2c0-1.5,0.1-3-0.3-4.4c-0.4-1.4-1.1-2.5-2.4-3.3c-0.1,0-0.1-0.1-0.3-0.2
		c0.4-0.1,0.8-0.1,1.1-0.2c-1.6-0.6-3.1-0.6-4.7,0.1c-1.1,0.5-1.8,1.4-2.1,2.6c-0.2,0.9-0.4,1.7-0.7,2.6c-0.3,0.7-0.7,1.4-1.1,2.1
		c-0.4,0.6-1,0.8-1.7,0.9c-0.1,0-0.3,0.1-0.4,0.1c0.4,0.3,0.8,0.6,1.2,0.8c1.2-0.3,2.1-1.1,2.6-2.2c0.3-0.8,0.5-1.6,0.7-2.4
		c0.2-0.7,0.4-1.4,0.7-2.1c0.4-0.9,1.2-1.5,2.2-1.8c0.8-0.3,2.2,0.4,2.8,1.4c0.6,1,0.7,2.1,0.8,3.2c0.1,1.9,0.1,3.9,0.4,5.8
		c0.5,3.1,3.8,4.9,6.8,3.9c1.5-0.5,2.5-1.6,2.7-3.3c0.1-0.7,0.1-1.5,0.2-2.2c0.1-0.7,0.3-1.4,0.4-2c0.2-0.8,0.7-1.2,1.5-1.4
		c1.1-0.3,2.3-0.2,3.4-0.2c0.8,0,1.6,0,2.4-0.1c2.1-0.3,3.4-2,3.1-4.1c-0.2-1.2-0.5-2.4-0.7-3.6c-0.1-0.5-0.2-1-0.2-1.5
		c0-2,1.7-3.8,3.8-4c1.5-0.1,3-0.2,4.5,0.3c2.5,0.9,4.3,2.5,5.1,5c0.5,1.7,0.1,3.2-0.7,4.7c-0.5,0.9-1,1.9-1.4,2.8
		c-0.1,0.1,0,0.3-0.1,0.5c0.1,0.1,0.3,0.3,0.4,0.4c0,0,0.1,0,0.1,0C261.8,133.3,262.8,131.9,263.8,130.4z"/>
	<path d="M263.8,130.4c-1,1.4-1.9,2.9-2.9,4.3c0.3,0.2,0.5,0.4,0.8,0.6c0.7-1.5,1.4-2.9,2-4.4C263.8,130.8,263.8,130.6,263.8,130.4z
		"/>
	<path d="M260.8,134.7c-0.1-0.1-0.3-0.3-0.4-0.4c-0.2,0.3-0.4,0.5-0.5,0.8c-0.2,0.5-0.3,1-0.4,1.5
		C259.9,136,260.3,135.4,260.8,134.7z"/>
	<path d="M209.3,134.2c0,0.2-0.1,0.5-0.1,0.7c-0.4,6-0.9,12-1.3,18c-0.2,2.3-0.4,4.6-0.5,6.9c-0.1,2.3,0,4.6,0.1,6.9
		c0.1,1.1,0.3,2.2,0.6,3.3c0.5,1.8,1.6,3.1,3.3,4c2.2,1.1,4.6,1.5,7.1,1.3c1.1-0.1,2.1-0.5,3-1.3c0.7-0.6,1-1.4,1-2.3
		c0-3.7-0.1-7.4-0.6-11c-0.2-1.3-0.3-2.5-0.5-3.8c-0.1,0-0.1,0-0.2,0c0,0.7-0.1,1.5-0.1,2.2c0,3.2,0,6.4,0,9.6c0,0.7,0,1.4,0.1,2
		c0,1-0.5,1.7-1.3,2c-0.7,0.3-1.6,0.5-2.3,0.6c-2.2,0.1-4.2-0.6-6.1-1.7c-1-0.6-1.3-1.6-1.5-2.6c-0.2-1-0.3-2-0.3-3
		c0-3.2,0-6.5,0-9.7c0-3-0.1-6,0-9c0-2.7,0.2-5.5,0.2-8.2c0-1.3-0.1-2.7-0.2-4c0-0.2-0.1-0.5-0.1-0.7
		C209.4,134.2,209.4,134.2,209.3,134.2z"/>
	<path d="M226.1,142.2c-0.1,1-0.1,2-0.2,2.9c-0.2,5.6-0.4,11.3-0.7,16.9c-0.1,2.7-0.3,5.3-0.2,8c0.1,2,0.6,4,2.3,5.4
		c1.1,0.9,2.4,1.3,3.8,1.3c2.4,0.1,4.7-0.3,6.8-1.3c0.8-0.4,1.5-0.9,2.1-1.4c0.3-0.3,0.4-0.8,0.4-1.2c0-3.1-0.1-6.2-0.1-9.3
		c0-1.1-0.2-2.1-0.3-3.2c0-0.1-0.1-0.3-0.1-0.4c0,0-0.1,0-0.1,0c0,0.2-0.1,0.3-0.1,0.5c-0.1,1.7-0.1,3.5-0.2,5.2
		c-0.1,1.8-0.3,3.6-0.5,5.4c-0.2,1.4-1.1,2.3-2.3,2.8c-2.1,1-4.3,1.1-6.6,0.5c-1.6-0.4-2.3-1.6-2.7-3.1c-0.5-1.8-0.4-3.7-0.3-5.5
		c0.1-3.1,0.1-6.1,0.1-9.2c0-4-0.2-8-0.3-12c0-0.7-0.1-1.3-0.2-2C226.6,142.5,226.4,142.4,226.1,142.2z"/>
	<path d="M257.6,163.9c0,0.3-0.1,0.6-0.1,1c0,1.5-0.3,2.9-1.7,3.7c-0.7,0.4-1.5,0.7-2.3,0.9c-1.4,0.4-2.9,0.6-4.3,0.9
		c-1.2,0.2-2.1-0.4-2.2-1.6c-0.2-1.7-0.2-3.5-0.3-5.2c-0.1-2.6-0.1-5.2-0.1-7.8c0-3.1,0-6.2,0-9.3c0-2.8-0.2-5.5-0.3-8.3
		c0-0.1,0-0.2,0-0.3c-0.1-0.1-0.1-0.2-0.2-0.3c-0.1,0.1-0.2,0.2-0.2,0.3c-0.1,0.6-0.2,1.1-0.2,1.7c-0.2,4-0.3,7.9-0.5,11.9
		c-0.2,3.5-0.3,7-0.5,10.5c-0.1,1.9-0.2,3.8-0.2,5.6c0,1,0.3,2,0.7,3c0.4,1.1,1.4,1.8,2.5,1.9c1.1,0.1,2.3,0.2,3.4,0
		c1.9-0.2,3.7-0.8,5.4-1.7c0.6-0.3,1.1-0.7,1.4-1.2c0.3-0.4,0.5-1,0.6-1.6c0.1-1.1,0.1-2.1,0.1-3.2c0-0.1,0-0.2-0.1-0.3
		C258.2,164.3,257.9,164.1,257.6,163.9z"/>
	<path d="M257,179.9c-1.8,0.6-3.4,1.3-5.1,1.7c-2.8,0.8-5.6,1.4-8.5,2.1c-1.5,0.3-2.9,0.6-4.4,0.9c-3.9,0.9-7.9,0.9-11.8,0.4
		c-4.8-0.6-9.5-1.8-14-3.8c-1.8-0.8-3.5-1.8-5.1-3.1c-0.2-0.2-0.5-0.4-0.7-0.1c-0.3,0.3-0.1,0.5,0.1,0.8c2,2.3,4.5,3.9,7.3,4.7
		c3.5,1.1,7.1,1.9,10.6,2.7c4.5,1,9,0.6,13.5-0.3c3.6-0.7,7.1-1.4,10.6-2.5c2.5-0.8,4.9-1.9,7.2-3.1
		C256.7,180.1,256.8,180,257,179.9z"/>
	<path d="M179.6,159.9c0.2,0.2,0.3,0.5,0.5,0.6c1.8,1.5,4,2.3,6.2,3.1c2.5,0.8,4.9,1.6,7.4,2.6c1.1,0.5,2.1,1.3,3.2,1.9
		c0.6,0.4,1.2,0.8,1.8,1.1c-1.6-1.9-3.5-3.5-5.9-4.3c-2.3-0.8-4.5-1.6-6.8-2.4c-2.1-0.7-4.1-1.7-5.8-3.1c-0.1,0-0.1-0.1-0.2-0.1
		C179.8,159.6,179.7,159.8,179.6,159.9z"/>
	<path d="M257.6,163.9c0.3,0.2,0.6,0.4,0.9,0.6c0-0.7,0.1-1.3,0.1-2c0-2.7-0.1-5.4-0.1-8c0-0.2,0-0.4-0.2-0.6c0,0.2-0.1,0.3-0.1,0.5
		c-0.2,3-0.4,5.9-0.6,8.9C257.5,163.4,257.6,163.7,257.6,163.9z"/>
	<path d="M226.1,142.2c0.2,0.1,0.4,0.3,0.6,0.4c0-0.7,0-1.4-0.1-2.1c-0.1-1-0.1-2-0.3-2.9c0,0-0.1,0.1-0.1,0.1
		c-0.1,1.4-0.1,2.8-0.2,4.2C226.1,142.1,226.1,142.1,226.1,142.2z"/>
	<path d="M179.6,159.9c0.1-0.2,0.2-0.3,0.3-0.5c-0.9-0.9-1.8-1.9-2.8-2.8c0,0.2,0,0.3,0,0.3c0.7,1,1.5,1.9,2.2,2.9
		C179.4,159.9,179.5,159.9,179.6,159.9z"/>
	<path d="M205.4,180.3c-0.1,0.2-0.1,0.3-0.1,0.4c0.1,1.2,0.1,2.4,0.2,3.6c0,0.3,0.1,0.6,0.4,0.5c0.1,0,0.2-0.4,0.2-0.6
		C205.9,183,205.6,181.7,205.4,180.3z"/>
	<path d="M208.5,184.1c0,0.9,0,1.7,0.1,2.6c0,0.4,0.1,0.8,0.2,1.3c0,0.1,0.2,0.2,0.3,0.3c0.1-0.1,0.2-0.2,0.2-0.4
		c-0.2-1.3-0.4-2.6-0.5-3.8C208.7,184.1,208.6,184.1,208.5,184.1z"/>
	<path d="M207.5,182.9c0.1,1.4,0.1,2.8,0.2,4.1c0,0.1,0.2,0.2,0.3,0.3c0.1-0.1,0.2-0.3,0.2-0.4c-0.2-1.3-0.4-2.6-0.6-3.9
		C207.6,183,207.6,183,207.5,182.9z"/>
	<path d="M206.6,181.4c0,1.5,0.1,2.9,0.1,4.4c0,0.1,0.2,0.3,0.2,0.4c0.1-0.1,0.2-0.3,0.2-0.4c0-0.6-0.1-1.2-0.1-1.8
		c-0.1-0.8-0.2-1.7-0.3-2.5C206.7,181.4,206.6,181.4,206.6,181.4z"/>
	<path d="M210.9,186.1c0.1,0.8,0.1,1.5,0.2,2.3c0,0.2,0,0.4,0.1,0.6c0,0.1,0.1,0.1,0.2,0.2c0.1-0.1,0.2-0.1,0.2-0.2
		c0-0.1,0-0.2,0-0.4c-0.2-0.8-0.3-1.7-0.5-2.5C211.1,186.1,211,186.1,210.9,186.1z"/>
	<path d="M209.7,185.8c0.1,0.9,0.2,1.7,0.4,2.6c0,0.1,0.2,0.2,0.3,0.3c0-0.1,0.1-0.3,0.1-0.4c-0.2-0.9-0.4-1.7-0.6-2.5
		C209.8,185.8,209.7,185.8,209.7,185.8z"/>
	<path d="M212,187.2c0.1,0.7,0.2,1.3,0.3,2c0,0.1,0.2,0.1,0.2,0.2c0-0.1,0.1-0.2,0.1-0.4c-0.1-0.6-0.3-1.2-0.5-1.8
		C212.1,187.2,212.1,187.2,212,187.2z"/>
	<path d="M213.3,188c0,0.5,0,0.9,0,1.4c0,0.1,0.2,0.2,0.3,0.3c0.1-0.1,0.2-0.3,0.2-0.4c-0.1-0.4-0.3-0.8-0.4-1.3
		C213.3,188,213.3,188,213.3,188z"/>
	<path d="M214.6,188.4c0.1,0.5,0.2,0.9,0.3,1.4c0,0.1,0.2,0.1,0.3,0.2c0-0.1,0.1-0.3,0-0.4c-0.1-0.4-0.3-0.8-0.5-1.3
		C214.8,188.4,214.7,188.4,214.6,188.4z"/>
	<path d="M215.9,189.1c0.2,0.4,0.3,0.9,0.5,1.3c0,0.1,0.2,0.1,0.3,0.1c0-0.1,0-0.2,0-0.3c-0.2-0.4-0.4-0.8-0.6-1.1
		C216.1,189.1,216,189.1,215.9,189.1z"/>
	<path d="M217.6,190.1c-0.1,0.6,0.2,1.1,0.8,1.3C218.1,190.9,217.9,190.5,217.6,190.1z"/>
	<path d="M202.6,113.3c0.5,1.6,1.5,2.7,3.1,3.2c0.8,0.3,1.6,0.4,2.4,0.5c0.7,0,1.2,0.3,1.6,0.8c0.3,0.4,0.6,0.8,0.9,1.1
		c0.6,0.7,1.3,0.9,2.1,0.8c1.4-0.1,2.6-0.8,3.9-1.4c0.1,0,0.1-0.2,0.2-0.4c-0.1-0.1-0.3-0.2-0.4-0.2c-0.6,0.1-1.1,0.3-1.7,0.4
		c-0.7,0.1-1.5,0.2-2.2,0.2c-0.8,0-1.4-0.4-1.8-1.1c-0.5-1.2-1.5-1.6-2.7-1.6c-0.5,0-1-0.1-1.6-0.2
		C204.8,115.3,203.4,114.8,202.6,113.3z"/>
	<path d="M249.7,94.1c-0.7,0.4-1.2,0.2-1.8-0.3c-0.8-0.7-1.9-0.7-2.9-0.3c-0.1,0-0.2,0.1-0.2,0.1c0,0-0.1,0-0.2,0
		c-0.4-1.5-1.4-2.5-2.8-2.8c-1.3-0.3-2.6-0.2-3.8,0.6c0.8-0.1,1.6-0.1,2.3-0.2c1.5,0,3,1,3.4,2.2c0.1,0.3,0.1,0.5,0.1,0.8
		c0,0.2,0.1,0.4,0.3,0.4c0.2,0.1,0.4,0,0.5-0.1c0.7-0.6,2.6-0.4,3.2,0.2c0.1,0.1,0.1,0.2,0.2,0.4c0.1,0.4,0.5,0.6,0.8,0.5
		c0.6-0.3,1.1-0.6,1.6-1C250.2,94.4,249.9,94.2,249.7,94.1z"/>
	<path d="M211.2,94.4c0.3,0,0.5-0.1,0.8-0.1c1-0.1,1.7,0.1,2.3,1c0.1,0.1,0.3,0.2,0.5,0.1c0.1,0,0.3-0.2,0.3-0.4
		c0.1-0.9,0.4-1.2,1.3-1.2c0.6,0,1.2,0.2,1.5,0.7c0.3,0.4,0.6,0.4,0.8,0c1.2-2.2,3.2-2.2,5.1-1.7c0.1,0,0.1,0,0.2,0.1
		c-0.9-1.5-4.4-1.4-5.8,0.8c-1.3-1-2.6-1-3.8,0.2c-0.8-0.5-1.7-0.8-2.7-0.2c-0.2,0.1-0.4,0.3-0.6,0.4
		C211.1,94.3,211.1,94.4,211.2,94.4z"/>
	<path d="M242.4,118.4c-0.8-0.2-1.2-0.1-1.7,0.5c-0.5,0.6-1,1.1-1.6,1.6c-0.8,0.6-1.7,0.6-2.6,0c-0.6-0.4-1.2-0.8-1.8-1.2
		c-0.4-0.3-0.9-0.3-1.4-0.1c-0.5,0.2-1.1,0.4-1.7,0.6c-0.6,0.2-1.1,0-1.6-0.3c-0.1-0.1-0.3-0.1-0.4-0.1c0,0.2,0,0.4,0.1,0.5
		c0.1,0.3,0.3,0.5,0.5,0.7c0.3,0.3,0.7,0.4,1.1,0.3c0.7-0.2,1.3-0.5,2-0.7c0.6-0.2,1.2-0.2,1.7,0.2c0.5,0.4,1,0.7,1.5,1
		c1,0.7,1.8,0.6,2.7-0.1c0.6-0.5,1.2-1.2,1.8-1.7C241.5,119,242,118.7,242.4,118.4z"/>
	<path d="M227.3,104.3c0.6,0,1.2-0.1,1.8-0.1c1.3,0,2.3,0.5,2.9,1.6c0.1,0.1,0.1,0.2,0.2,0.3c0.4,0.5,0.6,0.4,1,0
		c0.6-0.5,1.2-1,1.9-1.4c1-0.6,2-0.5,3-0.1c0.3,0.1,0.6,0.2,1,0.3c-1.4-1.8-4.2-1.9-6.5,0.3c-0.7-0.9-1.5-1.6-2.7-1.6
		C229.1,103.6,228.2,103.8,227.3,104.3z"/>
	<path d="M266.1,109.5c-0.4,0.6-0.5,1.3-0.4,2.1c0.1,0.8-0.2,1.3-0.9,1.7c-0.3,0.2-0.6,0.3-0.9,0.5c-0.4,0.3-0.7,0.6-0.7,1.1
		c0,1.2-0.8,1.5-1.7,1.5c-0.2,0-0.5,0-0.7-0.1c-0.6-0.1-1,0.2-1.4,0.5c-0.1,0.1-0.1,0.2,0,0.3c0,0.1,0.2,0.1,0.3,0.1
		c0.7-0.4,1.4-0.2,2.1,0c1.1,0.2,2.1-0.5,2.1-1.6c0-0.9,0.4-1.4,1.2-1.7c1.1-0.4,1.1-1.3,1.1-2.3C266.2,111,266.1,110.2,266.1,109.5
		z"/>
	<path d="M249.7,94.1c0.2,0.2,0.5,0.3,0.7,0.5c1-0.3,2-0.3,2.9-0.1c0.1,0,0.2,0,0.3,0c0,0,0.1,0,0.1-0.1
		C252.8,93.3,251.1,93.3,249.7,94.1z"/>
	<path d="M262.7,122.2c-1-1.7-2.6-2.4-4.4-2.9c-0.1,0-0.3,0.1-0.5,0.2c0.1,0.1,0.2,0.3,0.4,0.3c0.4,0.1,0.9,0.2,1.3,0.4
		c1.1,0.3,2,0.8,2.8,1.7c0.1,0.1,0.2,0.2,0.3,0.2C262.6,122.1,262.6,122.1,262.7,122.2z"/>
</g>
</svg>
