<?xml version="1.0" encoding="utf-8"?>
<!-- Generator: Adobe Illustrator 17.1.0, SVG Export Plug-In . SVG Version: 6.00 Build 0)  -->
<!DOCTYPE svg PUBLIC "-//W3C//DTD SVG 1.1//EN" "http://www.w3.org/Graphics/SVG/1.1/DTD/svg11.dtd">
<svg version="1.1" id="Layer_1" xmlns="http://www.w3.org/2000/svg" xmlns:xlink="http://www.w3.org/1999/xlink" x="0px" y="0px"
	 viewBox="0 0 288 216" enable-background="new 0 0 288 216" xml:space="preserve">
<g>
	<path d="M32.7,96c0.2-3.9,1.7-8.7,4.3-13.2c0.4-0.6,0.9-1.2,1.4-1.8c2.7-3,7-2.7,9.1,0.8c1.6,2.7,1.9,5.6,1.4,8.6
		c-0.2,1.6-0.9,3.1-1.2,4.6c-0.2,1,0.1,2.1,0.1,3.1c0,1.8,0.2,3.7-0.1,5.5c-0.5,3-2.6,4.8-5.5,5.2c-3.2,0.5-5.7-0.4-7.4-3.2
		C33.1,103.3,32.7,100.3,32.7,96z M38.7,100.1c0.3-0.6,0.5-0.9,0.6-1.2c1-2,1.6-4,1.5-6.3c-0.1-1.1-0.4-2-1.6-2.3
		c-0.3-0.1-0.5-0.5-0.7-0.8c-0.3-0.3-0.5-0.7-0.7-1.1c-0.4,0.3-1,0.6-1.2,1c-0.5,1.1-0.8,2.3-1,3.4c-0.9,3.7-1.1,7.4,0.7,10.9
		c0.7,1.3,1.5,2.7,3.1,2.8c1,0,2.3-2.1,2.5-3.8c0.1-0.6,0-1.2,0-1.7c0-0.2,0-0.5,0-0.7c0.1,0,0.3,0,0.4,0c0.1,1.1,0.4,2.2,0.2,3.3
		c-0.1,1.1-0.7,2.2-1.1,3.2c2.5-0.5,3.9-1.9,4.1-4.1c0.1-1,0.1-2.1-0.1-3.1c-0.5-2.7-0.4-5.3,0.7-7.8c1.1-2.6,1-5.3-0.1-7.9
		c-0.6-1.3-1.5-2.3-3-2.6c-1.1-0.2-2,0.3-2.8,1.3c2.1,0.1,3.6,1.1,3.9,2.5c0.1,0.5-0.2,1-0.2,1.6c-0.6-1.9-1.4-2.8-2.8-2.8
		c-1.4,0-2.9,1.1-3.3,2.6c1.4,0.3,1.4,1.5,1.9,2.5c0.4,1,1.8,1.6,2,2.6c0.7,3.1-0.6,5.9-2.4,8.4C39.3,100,39.1,100,38.7,100.1z"/>
	<path d="M44.9,123.9c0.2,0.3,0.3,0.6,0.5,0.9c5.8,7.1,13.5,11,22.3,12.9c4.9,1.1,9.9,1.4,15,1.2c0.3,0,0.7,0.3,1,0.5
		c-0.3,0.2-0.6,0.5-0.9,0.5c-9,0.4-17.7-0.9-25.9-5c-4.6-2.4-8.6-5.5-11.9-9.5c-0.2-0.3-0.4-0.6-0.6-0.9
		C44.6,124.1,44.7,124,44.9,123.9z"/>
	<path d="M60.2,42.5c-0.5,0.2-0.9,0.5-1.4,0.7c-4.3,2.1-8.5,4.4-12.3,7.4c-3.6,2.9-6.4,6.4-7.6,10.9c-0.3,0.9-0.6,1.8-1.3,2.6
		c0-0.2-0.1-0.4,0-0.6c1.4-6.4,4.7-11.5,10.2-15c3.6-2.3,7.3-4.3,11-6.4c0.3-0.2,0.8-0.1,1.2-0.2C60.1,42.1,60.1,42.3,60.2,42.5z"/>
	<path d="M156.4,66.8c-1.8-4-4.3-7.5-8-10.1c-3.5-2.5-7.6-3.9-11.8-4.8C143.1,50.5,157.9,61.5,156.4,66.8z"/>
	<path d="M78.6,127.6c-3.2,3.1-18.3,0.3-21-3.4c3.2,1.1,6.7,2.5,10.2,3.4C71.3,128.6,75,128.2,78.6,127.6z"/>
	<path d="M60.9,131.1c7,4.1,14.4,3.8,22.1,1.6C80.4,136.6,64.4,135.2,60.9,131.1z"/>
	<path d="M166.8,60.3c-2.4-5-6.7-10.4-9.5-10.6c4.4,3,7.2,6.8,9,11.2C166.4,60.7,166.6,60.5,166.8,60.3z"/>
	<path d="M62.8,46.3c-0.4,0.2-0.7,0.6-1.1,0.7c-3.4,1.4-6.6,3-9.4,5.5c-1.4,1.2-2.6,2.7-3.9,4c-0.3,0.3-0.5,0.7-1,1.2
		c0.6-3.8,10.1-11.1,15-11.9C62.6,46,62.7,46.1,62.8,46.3z"/>
	<path d="M86,41.2c5.2-1.3,10.4-2.6,15.7-3.9c0,0.2,0.1,0.4,0.1,0.6c-5.2,1.5-10.5,2.5-15.7,3.8C86.1,41.5,86.1,41.4,86,41.2z"/>
	<path d="M53.1,56.5c2.9-1.5,5.9-3.1,8.8-4.6c0.5-0.3,1.2-0.2,1.7-0.3c0,0.1,0,0.3,0.1,0.4c-3.5,1.7-7,3.3-10.4,5
		C53.2,56.8,53.2,56.6,53.1,56.5z"/>
	<path d="M89.4,45.8c4,0,8.1,0,12.1,0c0,0.1,0,0.2,0,0.3c-4,0-8.1,0-12.1,0C89.4,46,89.4,45.9,89.4,45.8z"/>
	<path d="M152.7,42.3c-3.8,0.2-7.6,0.3-11.3,0.5c0-0.2,0-0.4,0-0.5c3.8-0.2,7.6-0.5,11.3-0.7C152.7,41.8,152.7,42,152.7,42.3z"/>
	<path d="M114.9,108.7c3.1,0.8,5.9,1.6,8.9,2.4C122.1,111.9,116.4,110.4,114.9,108.7z"/>
	<path d="M160.8,60.9c-1.2-1.4-2.3-2.9-3.6-4.1c-1.4-1.3-2.9-2.3-4.3-3.6c3.4,1.7,6.3,4,8.3,7.4C161.1,60.6,161,60.7,160.8,60.9z"/>
	<path d="M73.1,120.9c-1.5,1.6-7.4,1.1-9.5-0.8C66.6,121.4,69.8,121.4,73.1,120.9z"/>
	<path d="M128.4,40c2.9-1,5.8-2.1,8.8-3.2C136.7,38,130.8,40.2,128.4,40z"/>
	<path d="M147.3,63c-1.1-1-2.1-2.1-3.4-2.9c-1.3-0.7-2.8-1-4.1-1.5C141.7,57.5,146.3,59.9,147.3,63z"/>
	<g>
		<path d="M105.8,157.5c-0.2,0.2-0.5,0.4-0.8,0.5c2,0.9,4.1,1.8,6.1,2.6c0.3,0.1,0.7,0.1,1.1,0.1c0-0.2,0.1-0.3,0.1-0.5
			c-1.6-0.7-3.2-1.3-4.8-2C107,158.1,106.4,157.8,105.8,157.5z"/>
		<path d="M169,39c-1-0.8-2-1.6-3.2-2.5c3,0.3,5.7,0.6,8.4,0.9c0-0.2,0.1-0.4,0.1-0.5c-0.3-0.1-0.6-0.4-1-0.4
			c-2.3-0.3-4.7-0.4-7-0.8c-1.4-0.2-2.8-0.8-4.1-1.3c-3.5-1.5-6.9-3.3-10.4-4.7c-2.2-0.9-4.6-1.5-7.3-2.4c1.9-0.3,3.5-0.5,5-0.8
			c0-0.2,0-0.4-0.1-0.6c-0.9,0-1.7,0.1-2.6,0.1c-2.1,0.1-4.1,0.6-6.2,0.4c-4.5-0.5-9-1.3-13.4-1.8c-1.9-0.3-3.8-0.3-6.1-0.5
			c1.4-0.6,2.4-1.1,3.5-1.6c-0.1-0.2-0.1-0.3-0.2-0.5c-0.5,0.1-0.9,0.3-1.4,0.4c-1.8,0.6-3.6,1.5-5.4,1.6
			c-5.5,0.2-11.1,0.1-16.7,0.1c-1.5,0-3,0-4.5,0c2-1,4-1.7,6-2.7c1.9-0.9,4.1-1.3,5.8-2.7c-0.6-0.1-1.2,0-1.7,0.2
			c-3.2,1.3-6.3,2.8-9.6,4c-1.7,0.7-3.5,1.2-5.3,1.5c-3.1,0.5-6.2,0.7-9.3,1c-2.3,0.3-4.6,0.6-6.9,0.9c0-0.1,0-0.1,0-0.2
			c2.6-1.5,5.1-3,7.7-4.5c-0.1-0.2-0.2-0.3-0.2-0.5c-0.4,0.1-0.8,0.2-1.2,0.4c-2.7,1.6-5.4,3.2-8.2,4.8c-0.6,0.3-1.2,0.5-1.8,0.7
			c-4,1.1-8,2.1-11.9,3.2c-1.1,0.3-2.3,0.8-3.7,1.3c1.5-2.3,2.8-4.2,4.1-6.1l-0.5-0.4c-0.1,0.3-0.2,0.6-0.4,0.8
			c-1.2,1.7-2.3,3.4-3.5,5c-0.5,0.7-1.2,1.4-2,1.7C45.7,36,38.6,41,33.4,48.3c-9.8,13.9-13,29.5-11,46.2c1.3,10.5,4.7,20.3,10,29.4
			c4.6,7.8,10.1,14.7,17.7,19.9c0.4,0.3,0.7,0.8,0.9,1.3c1.4,3.1,3.2,5.9,5.6,8.4c0.3,0.3,0.6,0.6,0.9,0.8c0.1-0.1,0.3-0.2,0.4-0.3
			c-1-1.3-2.1-2.7-3.1-4.1c-1-1.5-1.9-3-2.8-4.6c4.7,2.4,9.3,4.4,14.2,6c0.4,0.1,0.7,0.6,1,0.9c1.2,1.5,2.3,2.9,3.5,4.4
			c0.2,0.2,0.6,0.3,1,0.4c0-0.1,0.1-0.2,0.1-0.3c-1.3-1.5-2.5-3.1-3.8-4.6c0.1-0.1,0.2-0.1,0.2-0.2c2.4,0.5,4.8,1.1,7.2,1.6
			c2.9,0.6,6.1,0.5,8.5,2.7c0,0,0.1-0.1,0.4-0.2c-0.3-0.4-0.7-0.8-0.9-1.2c5.1,0.3,10.2,0.6,15.2,0.8c1,0,1.8,0.3,2.7,0.6
			c-0.2-0.6-0.3-1.2,0-1.7c0.4-1.1,0.7-2.2,1.1-3.3c-1,0-1.9,0-2.9,0c-7.6-0.1-15.1-0.5-22.5-2c-1.8-0.4-3.6-0.6-5.4-1.1
			c-1.9-0.5-3.8-1-5.6-1.7c-14.8-4.9-25-14.9-32-28.5c-4.2-8.3-6.7-17.2-7.5-26.5c-1-12.1,0.9-23.6,6.4-34.5
			c4.2-8.2,10.6-14.4,18.7-18.8c0.1,0.4,0.2,0.7,0.3,1c0.2-0.2,0.7-0.4,0.7-0.6c0.2-1.1,1-1.5,1.8-1.9c7.5-3.5,15.4-5.5,23.6-6.8
			c9.7-1.5,19.5-2.1,29.4-2.1c0.2,0,0.3,0,0.5,0.3c-1.8,0.7-3.5,1.3-5.3,2l0,0.2c0.2,0,0.4,0,0.6,0.1c0,0,0.1,0,0.1,0
			c5.4-2.9,11.2-2.6,17-2.3c8.4,0.4,16.6,1.4,24.7,3.7c7.5,2.2,14.6,5.2,20.7,10.1c3.4,2.7,6.4,5.9,8.7,9.8c1-1,2.1-1.8,3.3-2.4
			C175.6,45.5,172.6,42,169,39z"/>
		<path d="M149.5,145.4c-3,1-6.1,1.9-9.3,2.6c-1.4-0.4-2.8-0.9-4.3-1.3c-0.1,0.2-0.1,0.3-0.2,0.5c1.1,0.3,2.2,0.7,3.3,1.1
			c-2.5,0.5-5.1,0.9-7.7,1.3c-3.8,0.5-7.6,0.9-11.4,1.1c-0.6-0.2-1.1-0.4-1.7-0.6c0.1,0.2,0.1,0.4,0.2,0.6c-2.1,0.1-4.3,0.2-6.4,0.3
			c0,0.1-0.1,0.3-0.1,0.4c-1.1,0-2.3,0-3.4,0c-0.1,0.2-0.1,0.5-0.3,0.7c-0.3,0.6-0.5,1.2-0.8,2c-0.2,0.6-0.4,1.2-0.6,1.9
			c1.5,0,3,0,4.5,0c-0.1,0.1-0.2,0.1-0.4,0.2c0,0.3-0.1,0.6-0.1,0.9c0.4-0.2,0.8-0.3,1.3-0.5c1.7-0.6,3.5-1.1,5.3-1.4
			c3.1-0.4,6.2-0.5,9.3-0.8c1.1-0.1,2.3-0.2,3.4-0.4c2.8-0.9,5.6-1.6,8.7-1.5c0,0,0,0,0.1,0c2.5-0.6,4.9-1.2,7.4-1.8
			c1.5,0.5,3.1,1,4.7,1.4c0.1-0.2,0.1-0.4,0.2-0.6c-1.2-0.4-2.4-0.8-3.6-1.1c0.6-0.2,1.3-0.3,1.9-0.5c0.8-0.2,1.7-0.5,2.6-0.9
			c0.1-0.2,0.2-0.3,0.4-0.4C151.5,147.6,150.5,146.5,149.5,145.4z"/>
		<path d="M101.7,148.2c-2.3-1.8-4.5-3.4-6.6-5c-0.1,0.1-0.2,0.2-0.3,0.3C95.6,144.6,100.7,148.4,101.7,148.2z"/>
	</g>
	<path d="M64.5,58.5c-2.5,0.9-5.1,1.7-7.6,2.6c-0.1-0.2-0.1-0.3-0.2-0.5c2.6-0.6,4.8-2.5,7.7-2.5C64.4,58.2,64.5,58.3,64.5,58.5z"/>
	<path d="M117.2,38.2c-2,0.8-4,1.7-6,2.5c-0.1-0.2-0.1-0.3-0.2-0.5c2-0.9,4-1.8,5.9-2.7C117,37.8,117.1,38,117.2,38.2z"/>
	<path d="M125.1,101.7c-1.4-0.1-2.9-0.2-4.4-0.3c0.5-0.9,3.6-0.8,4.5-0.1C125.1,101.4,125.1,101.5,125.1,101.7z"/>
	<path d="M71.2,112.9c1.6,0.1,3,0.2,4.6,0.2C74.7,114.1,72.6,114,71.2,112.9z"/>
	<path d="M96.2,51.3c1.5,0.5,2.6,0.9,3.8,1.3C99,53,97.5,52.6,96.2,51.3z"/>
	<path d="M60.7,63.3c1.2,0,2.2,0,3.2,0C63.2,64.2,62,64.2,60.7,63.3z"/>
</g>
<g>
	<path d="M192.3,96.1c-6.1,9.2-10.4,18.9-13.4,28.7c-3.5,11.7-4.7,22.5-2.7,31.9c0.2,0.2,0.3,0.6,0.3,1.1c0,0.2,0,0.5,0,0.7
		c0,0.2,0.1,0.4,0.1,0.9c0,0-0.1-0.1-0.1-0.1c0.2,2.3,0.6,4.5,1.3,6.6c0.6,0.6,1,1.4,1.5,2.1c2.3,1.7,4.6,3.3,7,4.9
		c13.8,9.1,30.7,5.1,49.9-8.7c2.8-2.7,5.3-5.8,7.9-9c-0.1-0.1-0.2-0.1-0.3-0.2c6.5-6.4,10.2-14.5,14.1-22.3c0,0,0.1,0,0.1,0
		c0.1-0.3,0.3-0.6,0.4-0.8c0,0-0.1,0-0.1-0.1c0.9-2.1,1.9-4.2,2.7-6.2c6.1-14.7,9.6-28.8,8.9-41.8c-0.7-11-4.1-19.5-11.1-24.4
		c-0.2-0.1-0.3-0.3-0.5-0.5c0.1-0.2,0.3-0.4,0.4-0.6c-3.2-1-6.8-1.1-10.3-1.7c0,0,0,0.1,0.1,0.1c-0.4,0-0.7,0.1-1,0.1
		c-5.4,0.3-10.9,1.1-16.8,4.1c-4.7,2.4-9.3,5.4-13.9,8.9C207.5,77,199.2,85.5,192.3,96.1z M190.4,101.9c5.7-9.7,12.6-18,20.5-25
		c11.8-10.5,23.6-17.6,35.5-17.8c4-0.1,7.6,0.8,10.7,2.4c3.3,1.7,5.5,4.8,7.3,8.5c4.8,10.3,4.8,23.3,0.8,38.4
		c-2.6,9.9-6.7,19.7-11.5,29.4c-1.9,3.8-3.9,7.8-6.6,11.1c-5.2,6.3-10.7,11.8-17,15.5c-1.4,0.8-2.8,1.7-4.2,2.5
		c-8.8,4.8-17.2,7.2-24.9,6.5c-5.6-0.5-10.1-3-14.1-6.4c-1.2-0.8-2.3-1.7-3.6-2.3c-3.4-1.8-5-5.4-5.7-9.9c-1-6.2-0.7-13.1,0.6-20.4
		C180.2,123.5,184.1,112.6,190.4,101.9z"/>
	<path d="M206.2,83c3.2-2.9,6.5-5.7,9.7-8.7c5.5-5.1,11.1-8.5,16.9-9.8c3.2-0.7,6.5-1.6,9.8-3.2c1.3-0.6,2.7-0.8,3.9-0.7
		c5.1,0.5,9.5,2.4,12.8,6c6.3,6.8,8.3,16.9,7.4,29.3c-0.5,6.8-3,14-5.1,21.1c-2.4,8-6.3,16-10.8,23.7c-4.5,7.7-9.8,14.3-16.5,19.2
		c-8,5.8-16,9.2-24,11.3c-7.8,2.1-14.4,1.3-19.6-2.7c-1.7-1.3-3.5-2.7-5.1-4.1c-2.8-2.5-5.2-5.5-6.1-10c-2.1-10.4-1.2-21.9,3.8-34.9
		c2.5-6.6,5.2-13.2,9.8-19.2c1.7-2.2,3.2-4.5,4.8-6.7C201.1,88.2,202.9,85.9,206.2,83z M192.7,102.2c-4.8,6.7-7.7,13.9-10.2,21.1
		c-3.6,10.6-3.9,19.8-2.7,28.4c0.7,5,2.7,8.7,5.8,11.4c2.5,2.2,5.2,4.3,8,6c4.8,2.9,10.8,3,17.4,1.1c6.6-1.8,13.2-4.8,19.9-8.9
		c7.4-4.5,13.4-11.2,18.4-19.5c5-8.2,9-16.7,11.7-25.2c2.2-6.9,4.3-13.9,4.8-20.4c1-11.7-1-21.3-6.5-28.1c-3.2-3.9-7.7-6-12.9-6.6
		c-1.6-0.2-3.3,0.3-5.1,1c-2.1,0.8-4.2,1.5-6.3,2.2c-2.9,1-5.8,1.7-8.7,2.9c-3.8,1.5-7.4,4.7-10.9,7.9c-3.3,3-6.5,6-9.7,9
		c-2.7,2.5-5.1,5.3-7,8.6c-0.4,0.7-0.9,1.5-1.4,2.2c0,0,0.1,0.1,0.1,0.1C195.9,97.6,194.3,99.9,192.7,102.2z"/>
	<path d="M217.5,135.1c-0.6,0.3-1.5,0.9-1.8,0.7c-0.8-0.4-1.3,0.2-1.9,1.1c-1.2,1.5-3.4,2.7-4.3,2.4c-1.1-0.4-1.3-1.7-0.5-4.1
		c0.6-1.7,1.4-3.4,2.2-5.2c0.2-0.6,0.5-1.2,0.8-1.7c-2.4,0-2.5-0.9-0.8-3.8c0.7-1.2,1-2.2,0.7-3.3c-0.4-1.6,0.1-2.9,1.6-4.5
		c1.6-1.6,2.3-3.3,2.5-5.2c0.1-1,0.4-2.1,0.9-3.2c1.1-2.5,2.9-3.8,4.5-3.3c0.8,0.2,1.6,0.6,2.2,1.1c0.9,0.7,1.9,0.4,3.3-0.8
		c2.3-2.2,3.1-2.3,4.8-1.1c0.9,0.6,1.4,0.5,2.6-0.7c0.6-0.6,1.2-1.4,1.8-1.7c0.5-0.3,1.2-0.2,1.6,0c0.5,0.3,0.2,1.1-0.3,1.9
		c-0.5,0.7-0.9,1.4-1.3,2.1c-1.4,2.4-1.4,3.3-0.2,4.5c0.7,0.8,1,1.9,0.3,3.4c-1.6,3.6-1.3,5.6,1.1,6.5c1.2,0.5,1,1.8-0.4,3.5
		c-0.8,0.9-1.6,1.8-2.5,2.7c-1.6,1.8-1.9,2.7-1.3,4.2c0.2,0.5,0.1,0.8-0.4,1.6c-0.6,0.8-1,1.8-1.3,2.7c-0.4,1.2-1,2-1.8,2.2
		c-0.6,0.1-1.3,0-1.7-0.4c-1-0.9-2.2-0.6-3.7,0.7c-0.9,0.8-1.8,1.6-2.7,2.2c-2.3,1.5-3.5,0.5-2.8-2.3c0.2-0.9,0.5-1.9,0.8-3.1
		C218.3,134.5,217.9,134.9,217.5,135.1z M236.3,104c0.2-0.5,0.3-1,0.5-1.5c-0.4,0.2-0.8,0.2-1.2,0.5c-0.3,0.2-0.6,0.6-0.9,0.9
		c-1.9,2.1-2.5,2.3-4,1.3c-1.5-1-1.8-0.9-3.9,1c-1.9,1.8-2.4,1.9-3.8,1c-0.8-0.5-1.5-0.9-2.4-1.2c-1.2-0.4-2.3,0.4-3,2.2
		c-0.5,1.2-0.8,2.5-0.9,3.7c-0.2,1.8-0.9,3.4-2.4,4.8c-1.6,1.6-1.9,2.3-1.5,3.9c0.3,1.3,0,2.5-1.1,4.1c-1.1,1.5-0.9,2.1,0.3,2.1
		c0.8,0,0.8,0.8,0.5,1.7c-0.3,0.9-0.9,1.7-1.2,2.6c-0.7,1.9-1.4,3.8-1.9,5.7c-0.4,1.5,0.3,1.9,1.6,1.1c0.9-0.6,1.8-1.4,2.6-2.3
		c0.8-0.9,1.4-1.4,2.3-1.2c0.6,0.1,1.4-0.4,2.2-0.8c1.1-0.7,1.6-0.6,1.5,0.6c0,0.9-0.3,1.8-0.5,2.8c-0.4,2.1,0.2,2.5,2,1.4
		c0.8-0.5,1.7-1.3,2.5-2c2.3-2,2.8-2.1,4.4-0.9c0.9,0.7,1.8,0.1,2.3-1.6c0-0.1,0-0.2,0.1-0.3c1.1-1.6,1.2-2.9,1.1-4.4
		c0-0.6,0.8-1.8,1.4-2.6c0.7-0.9,1.6-1.7,2.4-2.6c1.5-1.7,1.6-2.6,0.4-3.3c-2.3-1.4-2.4-2.4-0.9-6.4c0.6-1.4,0.8-2.6,0.1-3.5
		c-1.5-1.8-1.3-2.8,0.8-5.9C235.9,104.7,236.2,104.4,236.3,104z"/>
	<path d="M203.9,109.1c-0.1,2.8,4.9,4.7,7.6,2.8C211.7,109.5,206.3,107.6,203.9,109.1z"/>
	<path d="M198.2,143.5c-0.1,0.4-0.3,0.9-0.2,1.2c0.1,0.3,0.5,0.5,0.8,0.3c2.1-1,4.2-2.1,6-4.4c0.5-0.7,0.8-1.6,1.1-2.5
		c-0.6,0.1-1.2-0.1-1.8,0.3C202.1,139.6,200.2,141.4,198.2,143.5z"/>
	<path d="M236.2,138.5c1.1,0.7,1.9,0.6,2.6-0.4c0.7-0.9,0.8-1.8,0.2-2.7c-0.8-1.2-1.8-2.1-3.3-2.1c-0.9,0-1.3,0.5-1.2,1.4
		C234.7,136.5,235.3,137.8,236.2,138.5z"/>
	<path d="M214.3,99c-0.2-0.1-0.6-0.3-1.1-0.3c-0.2,0-0.6,0-0.9,0.3c-0.2,0.1-0.3,0.7-0.3,0.9c0.1,2.7,1.5,4,3.2,5.2
		c0.2,0.2,0.8-0.1,1.2-0.4c0.2-0.2,0.4-0.9,0.3-1.3C216.4,101.5,215.7,100.1,214.3,99z"/>
	<path d="M208,144.2c-0.5,1.1-1.1,2.2-1.5,3.3c-0.5,1.4,0.2,2,1.4,1.2c1.7-1.3,2.9-3,3.6-5.1c0.2-0.5,0-1.4-0.3-1.6
		c-0.3-0.2-1.1,0-1.6,0.4C209.1,142.8,208.6,143.5,208,144.2z"/>
	<path d="M217.4,146.1c-0.5,1.3-1,2.6-1.3,3.8c-0.1,0.6,0.1,1.4,0.6,1.6c0.4,0.1,1.3-0.4,1.8-0.9c1.4-1.3,2.3-4.2,1.8-5.5
		C219.9,143.9,218.7,144.4,217.4,146.1z"/>
	<path d="M226.4,139.6c-0.9-0.6-2.3,0.4-2.8,1.9c-0.5,1.4-0.5,2.7,0,3.6c0.5,1,1.8,0.6,2.6-0.9C227.1,142.7,227.2,140.2,226.4,139.6
		z"/>
	<path d="M234.1,93.4c-0.9,2-1.4,3.8-0.8,5.1c0.2,0.4,0.8,0.6,1.2,0.5c0.3-0.1,0.9-0.8,1.2-1.4c0.9-1.6,1-3.1,0.7-4.4
		c-0.1-0.4-0.7-0.7-1.1-0.7C234.9,92.5,234.4,93.1,234.1,93.4z"/>
	<path d="M223.9,96.6c-0.1,0.3-0.2,0.9-0.3,1.3c-0.3,2,0.1,3.4,1,4.6c0.4,0.5,0.8,0.4,1.2-0.6c0.9-2.2,1.1-4.1,0.4-5.6
		C225.7,95.4,224.5,95.5,223.9,96.6z"/>
	<path d="M199.6,132.7c-0.6,1-0.6,1.4,0.2,1.4c0.3,0,0.6,0,0.8-0.1c1.5-0.9,3-1.8,4.5-2.8c0.3-0.2,0.8-1.1,0.8-1.4
		c0-0.4-0.4-0.7-0.7-0.8C204.1,128.8,200.6,131.2,199.6,132.7z"/>
	<path d="M227.4,145.5c-1.1,1.5-1.5,4-0.7,4.9c0.3,0.3,1,0.5,1.4,0.3c0.4-0.3,1.1-1.3,1.2-1.8c0.2-1.3,0.4-2.5,0.3-3.6
		C229.4,144,228.2,144.2,227.4,145.5z"/>
	<path d="M202.7,120.8c1.6,0.4,3.2,0.3,5-0.4c0.4-0.2,1-1,1.2-1.5c0.1-0.2-0.3-0.9-0.7-0.9c-1.5,0.1-3,0.3-4.5,0.6
		c-0.4,0.1-0.9,0.7-1.4,1C202.5,120.1,202.6,120.5,202.7,120.8z"/>
	<path d="M245.2,126.4c0.4-1.3,0.1-2.1-0.4-2.8c-0.7-1-1.6-1.8-3-1.6c-0.5,0.1-0.9,0.2-0.9,1.1c0.1,1.7,2.3,3.8,3.8,3.6
		C244.9,126.7,245,126.5,245.2,126.4z"/>
	<path d="M246.8,113.8c1.1,0.6,4.1-1.1,5-2.8c0.6-1.1,0.1-1.5-0.5-1.3c-1.2,0.3-2.5,0.8-3.7,1.5C246.3,112,246,113.4,246.8,113.8z"
		/>
	<path d="M240.4,113.1c1.7,0.1,3.5-0.9,5.3-2.5c0.8-0.7,0.8-2,0.1-2.2C244.6,108,241,111.1,240.4,113.1z"/>
	<path d="M241.1,98.9c-0.1,0.7-0.2,1.5-0.3,2.3c0.7-0.3,1.4-0.4,2-0.9c0.7-0.7,1.4-1.8,1.9-2.7c0.2-0.4,0.2-1.2,0-1.3
		c-0.2-0.2-0.9,0-1.2,0.3C242.8,97,242.1,97.8,241.1,98.9z"/>
	<path d="M218.7,101.7c0.7,0.5,1.4,0,1.8-1c0.5-1.4,0.1-3.3-0.8-3.6c-0.7-0.2-1.5,0.5-1.7,1.5C217.7,100.1,218.1,101.1,218.7,101.7z
		"/>
	<path d="M229.4,93.7c0.6,0.4,1.5-0.1,1.8-1.2c0.3-1,0.3-2,0.2-2.9c0-0.3-0.7-0.4-1-0.3c-0.3,0.1-0.8,0.8-1,1.2
		C228.7,91.8,228.8,93.4,229.4,93.7z"/>
	<path d="M230.1,101.9c0.3-1.7,0.6-3,0.7-4.2c0-0.8-0.7-0.7-1.4,0c-1,0.9-1.6,3.9-0.9,4.4C228.7,102.2,229.3,102,230.1,101.9z"/>
	<path d="M247.8,108c5.3-1.7,10.6-6.3,15.9-7.6c0-0.1,0.1-0.2,0.1-0.3c-0.3,0-0.7,0-1,0.1c-1.9,0.8-3.8,1.6-5.6,2.5
		c-2.9,1.4-5.8,3-8.7,4.5c-0.2,0.1-0.4,0.3-0.7,0.5C247.8,107.8,247.8,107.9,247.8,108z"/>
	<path d="M242.7,132.4c0.1,0.1,0.2,0.3,0.4,0.2c0.5-0.1,1-0.2,1.5-0.4c0-0.5,0.2-1.2,0-1.5c-0.4-0.7-0.9-1.2-1.5-1.7
		c-0.2-0.2-0.9,0.1-1.1,0.4c-0.3,0.4-0.5,1.2-0.4,1.5c0.2,0.6,0.6,1,1,1.6C242.6,132.5,242.7,132.4,242.7,132.4z"/>
	<path d="M232.6,141.9c0.9-1.5,0.5-3.6-0.7-3.5c-0.7,0.1-1.4,0.8-1.4,1.6c0,0.9,0.2,1.7,0.5,2.4C231.3,143.1,232,142.8,232.6,141.9z
		"/>
	<path d="M240.1,106.5c-0.3,0.7-0.5,1.2-0.7,1.7c0.4,0,0.9,0.1,1.2-0.1c0.9-0.6,1.8-1.4,2.6-2.2c0.2-0.2,0.5-1.1,0.3-1.4
		c-0.2-0.3-0.7-0.4-1.1-0.2C241.6,105,240.8,105.9,240.1,106.5z"/>
	<path d="M211.9,151.5c0.2-0.3,0.5-0.6,0.5-0.8c0.2-0.7,0.5-1.9,0.2-2.1c-0.5-0.5-1.4,0.4-1.9,1.2c-0.4,0.6-0.8,1.4-0.9,2
		c-0.1,0.5,0.1,1,0.2,1.5c0.4-0.3,0.9-0.6,1.3-0.9C211.6,152.1,211.7,151.8,211.9,151.5C211.9,151.5,211.9,151.5,211.9,151.5z"/>
	<path d="M245.8,91c3.8-5,7.7-9.9,11.5-14.9c-0.1-0.1-0.2-0.2-0.2-0.2c-3.9,4.9-7.7,9.9-11.6,14.8C245.6,90.7,245.7,90.8,245.8,91z"
		/>
	<path d="M212.4,109.3c0.6-0.1,1.2-0.2,1.9-0.4c-0.1-0.7-0.1-1.6-0.4-2c-0.3-0.4-1-0.5-1.5-0.6c-0.2,0-0.6,0.2-0.8,0.4
		c-0.2,0.2-0.3,0.7-0.2,0.9C211.6,108.1,211.9,108.6,212.4,109.3z"/>
	<path d="M199.8,137.3c-0.9-0.6-3.4,1-3.8,2.1c-0.1,0.3,0.1,0.9,0.3,1c0.7,0.2,2.5-0.9,3.2-1.9C199.6,138,199.7,137.6,199.8,137.3z"
		/>
	<path d="M214.5,142.1c-0.2,0.3-0.4,0.6-0.5,0.9c-0.3,0.9-0.6,1.9,0.1,2.1c0.7,0.2,1.3-0.7,1.7-1.5c0.1-0.2,0.3-0.4,0.3-0.6
		c0.4-0.8,0.9-1.9,0.1-2c-0.4-0.1-1.2,0.6-1.8,0.9C214.5,141.8,214.5,141.9,214.5,142.1z"/>
	<path d="M203.9,144.6c-0.3,0.6-0.5,1-0.6,1.4c-0.3,0.9-0.2,1.3,0.7,0.9c0.9-0.4,2.2-1.8,2.5-2.9c0.3-0.9-0.2-1.4-1-0.9
		C204.9,143.6,204.3,144.2,203.9,144.6z"/>
	<path d="M237.7,129.8c0.5,0.1,0.8,0.3,1.1,0.2c0.2-0.1,0.7-0.6,0.8-0.8c0.3-1.2-1.1-2.8-2.1-2.4c-0.2,0.1-0.6,0.8-0.6,0.9
		C237.1,128.5,237.4,129.2,237.7,129.8z"/>
	<path d="M240.4,89.9c-1,1.5-1.3,3.5-0.8,3.5c0.4,0,1.1-0.5,1.5-0.9c0.8-1,1-2.7,0.4-2.9C241.2,89.5,240.6,89.8,240.4,89.9z"/>
	<path d="M208.4,133.8c-0.2-0.5-0.3-1.1-0.5-1c-0.9,0.4-1.8,0.8-2.7,1.4c-0.2,0.1-0.6,1-0.5,1.3c0,0.3,0.5,0.5,0.8,0.3
		C206.3,135.3,207.2,134.7,208.4,133.8z"/>
	<path d="M263.6,90.1c-3.6,2.4-7.2,4.7-10.8,7.1c0,0.1,0,0.3,0.1,0.4c3.7-2,7.2-4.9,10.8-7C263.6,90.5,263.6,90.3,263.6,90.1z"/>
	<path d="M219.4,91c-1.6-2.8-3.1-5.6-4.7-8.5c-0.1,0.2-0.3,0.3-0.4,0.5C215.9,85.8,217.1,89,219.4,91z"/>
	<path d="M243.1,119.2c0.6,0,1.1,0.3,1.6,0.1c0.4-0.1,1-0.8,1.2-1.2c0.1-0.4-0.1-1.1-0.4-1.1c-0.5-0.1-1.1,0.2-1.7,0.4
		c-0.3,0.1-0.8,0.6-0.9,0.9C242.7,118.6,243,118.9,243.1,119.2z"/>
	<path d="M201.8,153.8c-2.5,3.6-5.1,7.2-7.7,10.9C195.1,164.3,200.9,156.3,201.8,153.8z"/>
	<path d="M209.2,122.5c-0.7-0.4-2.5,0.4-2.9,1.2c-0.2,0.4-0.1,1.1,0.1,1.4c0.4,0.4,2.2-0.6,2.6-1.3
		C209.2,123.3,209.1,122.8,209.2,122.5z"/>
	<path d="M218.4,162c1-4,2-7.9,3-11.9c-0.1,0-0.3,0-0.4,0.1c-1,4-2.1,8-3.1,11.9C218,162.1,218.2,162,218.4,162z"/>
	<path d="M188,158.3c3.3-2.3,6.2-5.5,9.4-8c0-0.1-0.1-0.3-0.1-0.4c-3.1,2.7-6.3,5.4-9.4,8C188,158,188,158.1,188,158.3z"/>
	<path d="M199.2,114.2c-2.7-1.4-5.4-2.8-8.2-4.2C191.3,111.1,197.4,114.4,199.2,114.2z"/>
	<path d="M202.4,125.3c-0.7-0.4-3,0.9-3.5,1.7c-0.4,0.7-0.1,1.4,0.6,1c0.8-0.4,1.6-0.9,2.3-1.5C202.2,126.3,202.3,125.6,202.4,125.3
		z"/>
	<path d="M214.3,153c-2.2,3.7-3.1,7.6-4.6,11.3c0.1,0,0.2,0.1,0.3,0.1c0.2-0.4,0.5-0.8,0.6-1.2c0.7-2,1.4-4.1,2.2-6.1
		c0.5-1.4,1.1-2.7,1.7-4.1C214.5,153,214.4,153,214.3,153z"/>
	<path d="M248.9,100.4c0.1-0.5,0.4-1,0.3-1.2c-0.1-0.2-0.5-0.2-0.8,0c-0.6,0.3-1.3,0.7-1.8,1.3c-0.3,0.4-0.4,1.1-0.7,1.6
		c0.4,0,0.8,0.1,1.2-0.1C247.8,101.7,248.3,101,248.9,100.4z"/>
	<path d="M229.8,84.6c0.4-3.8,0.8-7.7,1.1-11.5c-0.2,0.1-0.3,0.1-0.5,0.2c-0.4,3.8-0.8,7.7-1.2,11.5
		C229.4,84.7,229.6,84.6,229.8,84.6z"/>
	<path d="M185,146.7c3-0.7,6-3.2,9-4.6C191,142.9,188,145.1,185,146.7z"/>
	<path d="M210.7,114.7c-1.1,0.2-2,0.4-3,0.5c-0.1,0.4-0.3,1-0.2,1c0.7,0.2,1.4,0.4,2.2,0.5c0.2,0,0.8-0.4,0.9-0.7
		C210.8,115.6,210.7,115.2,210.7,114.7z"/>
	<path d="M239.8,95.6c-0.3,0.2-0.8,0.4-1.2,0.9c-0.6,0.7-0.9,2.3-0.5,2.6c0.7,0.4,1.2-0.6,1.7-1.2C240.5,97,240.5,96.2,239.8,95.6z"
		/>
	<path d="M253,101.3c2.9-0.9,5.8-2.8,8.7-4c0-0.2,0-0.3,0-0.5c-2.9,1.3-5.8,2.6-8.7,3.9C253,100.9,253,101.1,253,101.3z"/>
	<path d="M187.8,117c2.3,0.5,4.6,1,6.9,1.4c0.1-0.2,0.2-0.4,0.3-0.5c-2.3-0.5-4.6-1-6.8-1.5C188,116.6,187.9,116.8,187.8,117z"/>
	<path d="M200,150.4c-2.4,2.7-4.8,5.4-7.2,8.1c0.1,0.1,0.2,0.2,0.2,0.4c2.4-2.7,4.8-5.4,7.2-8.1C200.1,150.6,200,150.5,200,150.4z"
		/>
	<path d="M249.4,90.1c2.4-2.8,4.8-5.5,7.2-8.3c-0.1-0.1-0.1-0.2-0.2-0.3c-2.4,2.8-4.8,5.5-7.2,8.3C249.2,89.9,249.3,90,249.4,90.1z"
		/>
	<path d="M194.6,121.7c-2.4,0.1-4.8,0.2-7.2,0.2c-0.1,0.2-0.1,0.4-0.2,0.6c2.4-0.1,4.8-0.2,7.2-0.3
		C194.5,122.1,194.6,121.9,194.6,121.7z"/>
	<path d="M224.2,87.1c-0.5-2.5-1-5-1.5-7.4C222.2,80.8,223,85.7,224.2,87.1z"/>
	<path d="M238.7,141.4c0.7,2.2,1.7,4.2,3.3,5.4c-1-1.9-2-3.8-3-5.7C238.9,141.2,238.8,141.3,238.7,141.4z"/>
	<path d="M239.1,81.1c1-3.1,2-6.2,2.9-9.2c-0.1,0-0.2,0-0.3,0c-1.2,3.1-2.2,6.2-3,9.2C238.9,81.1,239,81.1,239.1,81.1z"/>
	<path d="M247.6,84.9c1.7-2.4,3.3-4.7,5-7.1c-0.1-0.1-0.2-0.1-0.3-0.2c-1.7,2.3-3.4,4.6-5.1,7C247.3,84.7,247.4,84.8,247.6,84.9z"/>
	<path d="M198.7,107.7c-1.3-1.2-2.5-2.4-3.9-3.7C194.9,105.3,197.2,107.6,198.7,107.7z"/>
	<path d="M236.9,144.1c0.4,2.2,1,4.3,1.9,6.1c0.1-0.1,0.2-0.1,0.3-0.2c-0.6-2-1.2-4.1-1.8-6.1C237.1,143.9,237,144,236.9,144.1z"/>
	<path d="M214.7,163.7c0.5-2.2,1.1-4.4,1.6-6.6c-1.2,2.3-1.8,4.6-2,6.7C214.4,163.7,214.5,163.7,214.7,163.7z"/>
	<path d="M191.9,152.1c-1.8,1-3.5,2.3-5.1,3.9c0,0.1,0.1,0.2,0.1,0.4c1.7-1.3,3.4-2.6,5.1-4C192,152.2,191.9,152.2,191.9,152.1z"/>
	<path d="M251.5,130.1c-1.4-0.7-2.7-1.5-4.1-2.2c0.9,1.5,2.4,2.1,3.9,2.5C251.3,130.3,251.4,130.2,251.5,130.1z"/>
	<path d="M214.4,91.1c-1-1.1-2-2.2-3-3.3C211.8,89.7,212.9,90.7,214.4,91.1z"/>
	<path d="M227,79.5c-0.1,1.6-0.2,3.5-0.3,5.5C227.2,84.1,227.3,80,227,79.5z"/>
	<path d="M258.7,104.1c-1.6,1-3.2,2-4.7,3c0,0.2,0,0.3,0.1,0.5c1.6-1,3.1-2,4.7-3C258.8,104.4,258.8,104.2,258.7,104.1z"/>
	<path d="M243.2,75.8c0.7-2,1.5-4,2.2-6c-0.1,0-0.3,0-0.4,0c-0.8,2-1.5,4-2.3,6C242.9,75.8,243,75.8,243.2,75.8z"/>
	<path d="M186.4,143.6c1.5-1.1,3-2.1,4.5-3.2c0-0.1-0.1-0.3-0.1-0.4c-1.5,1.1-3,2.1-4.6,3.2C186.4,143.3,186.4,143.4,186.4,143.6z"
		/>
	<path d="M220.2,85.9c-0.4-1.2-0.9-2.4-1.3-3.6c-0.1,0.1-0.2,0.2-0.3,0.2c0,1.6,0.6,2.7,1.3,3.7C220.1,86,220.1,86,220.2,85.9z"/>
	<path d="M231.8,147.9c-0.5,1.6-0.3,2.9-0.2,4.4C231.6,150.8,231.7,149.3,231.8,147.9z"/>
	<path d="M199.2,167.4c0.8-1.5,1.6-3.1,2.4-4.6c-0.1,0-0.2-0.1-0.3-0.1c-0.8,1.5-1.7,3.1-2.5,4.6
		C198.9,167.3,199.1,167.4,199.2,167.4z"/>
	<path d="M241.8,138.4c0,1.5,0.7,2.4,1.4,3.3c0.1-0.1,0.2-0.2,0.3-0.2c-0.5-1.1-0.9-2.1-1.4-3.2C242,138.3,241.9,138.3,241.8,138.4z
		"/>
	<path d="M222,156.6c0.2-1.5,0.5-3,0.7-4.6c-0.1,0-0.3,0.1-0.4,0.1c-0.2,1.5-0.5,3-0.7,4.6C221.7,156.7,221.8,156.7,222,156.6z"/>
	<path d="M188.2,127.4c1.1-0.1,2.1-0.3,3.2-0.4c0-0.2,0.1-0.3,0.1-0.5c-1.1,0.1-2.1,0.3-3.2,0.4C188.3,127,188.3,127.2,188.2,127.4z
		"/>
	<path d="M248.3,77.6c-0.7,1.2-1.3,2.5-2,3.7c0.1,0,0.2,0.1,0.3,0.1c0.7-1.2,1.3-2.4,2-3.7C248.5,77.7,248.4,77.6,248.3,77.6z"/>
	<path d="M210.1,159.2c-1.1,1-1.7,2.1-1.7,3.4C209,161.5,209.6,160.3,210.1,159.2z"/>
	<path d="M188.2,151.4c1-0.6,2-1.2,2.9-1.9c0-0.1,0-0.3,0-0.4c-1,0.6-2,1.2-2.9,1.8C188.2,151.1,188.2,151.3,188.2,151.4z"/>
	<path d="M247.9,137.9c-0.6-0.5-1.1-1.1-1.7-1.6c-0.1,0.1-0.2,0.3-0.3,0.4c0.6,0.5,1.1,1.1,1.7,1.6
		C247.6,138.2,247.8,138,247.9,137.9z"/>
	<path d="M184,135.1c0.9-0.2,1.9-0.5,2.8-0.7c0-0.2,0.1-0.3,0.1-0.5c-0.9,0.2-1.9,0.5-2.8,0.7C184,134.7,184,134.9,184,135.1z"/>
	<path d="M190.1,137.4c-0.9,0.5-1.8,1-2.8,1.5c0,0.1,0,0.3,0,0.4c0.9-0.5,1.8-1,2.8-1.4C190.1,137.7,190.1,137.5,190.1,137.4z"/>
	<path d="M208.6,91.2c0.5,0.4,0.9,0.8,1.4,1.2c0.1-0.1,0.2-0.3,0.3-0.4c-0.4-0.4-0.9-0.9-1.3-1.3C208.8,90.9,208.7,91.1,208.6,91.2z
		"/>
	<path d="M254.5,93.7c0.7-0.6,1.3-1.2,2-1.8c0-0.1-0.1-0.2-0.1-0.3c-0.7,0.6-1.4,1.2-2,1.7C254.4,93.5,254.4,93.6,254.5,93.7z"/>
	<path d="M252.2,123.9c-0.5-0.2-1-0.3-1.5-0.5c-0.1,0.1-0.2,0.3-0.2,0.4c0.5,0.2,1,0.3,1.4,0.5C252,124.2,252.1,124,252.2,123.9z"/>
	<path d="M206.5,161.1c-0.5,0.8-1,1.5-1.5,2.3c0.1,0,0.1,0.1,0.2,0.1c0.5-0.8,1-1.5,1.5-2.3C206.6,161.2,206.6,161.2,206.5,161.1z"
		/>
	<path d="M232.8,80.1c0.2-0.7,0.3-1.4,0.5-2.1c-0.1,0-0.2,0-0.4,0.1c-0.2,0.7-0.4,1.4-0.6,2.1C232.6,80.1,232.7,80.1,232.8,80.1z"/>
	<path d="M203.4,93.9c-0.3-0.3-0.5-0.6-0.8-0.9c-0.1,0.1-0.2,0.3-0.3,0.4c0.3,0.3,0.5,0.6,0.8,0.9C203.2,94.2,203.3,94.1,203.4,93.9
		z"/>
</g>
<g>
	<path d="M114.7,113.9c0.6-0.6,1-1.3,1.7-1.8c0.5-0.3,1.4-0.7,1.7-0.4c0.5,0.4,0.7,1.2,0.8,1.8c0.1,0.3-0.4,0.7-0.6,1.1
		c-1.8,3-3.9,5.8-3.6,9.6c0.1,0.8-0.6,1.6-0.9,2.4c-1.7,4.9-3.3,9.8-4.9,14.8c-0.2,0.5,0.1,1.1,0.1,1.7c0.2-0.5,0.4-1,0.6-1.5
		c2-6.2,5.4-11.8,8.4-17.6c1.3-2.5,2.2-5,1.9-7.8c-0.1-1,0-2,0.1-3c0-0.3,0.5-0.7,0.8-0.7c0.7,0,3,2.6,2.8,3.3
		c-0.5,2.7-1.2,5.3-1.8,8c0,0.2-0.9,0.3-0.9,0.2c-0.4-1.2-1.2-0.7-1.3,0c-0.4,3.3-2.8,5.6-4.2,8.4c-1.2,2.3-2.8,4.4-2.4,7.3
		c0.1,0.8-0.5,1.6-0.8,2.4c-3,6.9-4.9,14.1-6.2,21.5c-1.2,6.5-2.1,13.1-2.9,19.7c-0.3,2.4-0.2,4.9-0.3,7.4c0,1.4,0.2,3-0.2,4.3
		c-0.3,1-2.1,1.4-1.2,3c0,0-0.4,0.4-0.6,0.4c-0.2,0-0.6-0.3-0.6-0.5c-0.2-1-0.2-2-0.4-3c-0.2-1.1-0.5-2.2-0.7-3.2
		c0-7.6,0-15.1,0-22.7c0.2-0.6,0.6-1.3,0.7-1.9c0.9-13,2.7-25.9,5.5-38.6c0.5-2.1,1.7-4,2.4-6c1-2.5,1.9-4.6,0.7-7.7
		c-1.2-3-3.1-6.2-2.5-9.8c0.1-0.8-0.4-1.7-0.5-2.5c-0.2-1-0.4-2-0.3-3c0.5-3,1-5.9,1.7-8.8c0.3-1.4,0.8-2.9,1.8-3.9
		c1.2-1.3,2.3-2.5,2.8-4.2c0.5-1.5,1.7-2.4,3.5-1.7c0.2,0.1,0.5-0.1,0.7-0.3c2-1.8,4-3.6,6.1-5.4c0.3-0.3,0.9-0.5,1.2-0.4
		c2.1,0.8,3.7-0.5,5.6-0.9c0.6-0.1,1.2-0.1,1.9-0.1c-0.2,0.6-0.3,1.3-0.6,1.9c-0.2,0.4-0.6,0.6-0.9,0.9c-0.6,0.3-1.2,0.6-1.7,0.9
		c-3.6,2.4-4.8,6.4-6.7,9.9c-0.3,0.6-0.4,1.4-0.7,2c-0.2,0.3-0.6,0.5-0.9,0.8c-0.1-0.4-0.5-0.9-0.4-1.1c1.3-2-0.5-3.9-0.2-5.9
		c0-0.3-0.1-0.5-0.2-0.8c-0.1,0.2-0.3,0.5-0.4,0.7c-0.3,1.4-0.6,2.8-1,4.2c-0.4,1.5-1,3-1.6,4.4c-0.1,0.3-0.7,0.5-1,0.5
		c-0.3-0.1-0.6-0.5-0.8-0.9c-0.1-0.2-0.1-0.6-0.1-0.8c-0.2-1.2-0.3-2.3-0.5-3.5c-0.1,1.1-0.2,2.3-0.2,3.4c-0.3,5,1.1,9.7,2.3,14.5
		c0.2,0.7,1,1.9-0.4,1.9c-0.8,0-2.5,0.7-2.7-1.1c-0.2-1.3-0.2-2.6-0.3-3.9c0-0.7,0.1-1.5-0.1-2.2c-0.1-0.3-0.8-0.3-1.2-0.5
		c-0.7-0.4-1-0.2-1,0.6c0,1.7-0.3,3.5,0,5.2c0.4,2.3,1.1,4.5,1.7,6.7c0.1,0.5,0.7,0.9,1.1,1.3c0.4-0.4,0.8-0.8,1.1-1.2
		c0.3-0.3,0.4-0.8,0.6-1.1c0.2-0.2,0.6-0.4,0.7-0.3c0.3,0.2,0.6,0.6,0.6,0.9C114.7,111.9,114.7,112.9,114.7,113.9
		c-1.4,2.3-3.1,4.4-4.2,6.8c-4,8.9-5.8,18.4-6.2,28.1c0,0.9,0.2,2-0.2,2.6c-2.2,2.5-1.2,5.5-1.5,8.3c-0.2,2-0.5,4-0.6,6
		c-0.2,3.3-0.2,6.7-0.2,10c0,0.4,0.2,0.8,0.3,1.2c0.1-0.4,0.2-0.8,0.3-1.3c0.3-2.9,0.7-5.7,1-8.6c0.3-3,0.3-6,0.8-9
		c2.1-14.2,5.6-28,11-41.3C115.5,115.5,115,114.8,114.7,113.9z"/>
	<path d="M147,78.3c0.7-0.7,1.4-1.4,2.1-2.1c-0.2,0-0.4,0-0.5-0.1c0.3-0.2,0.5-0.5,0.8-0.7c0.4-0.2,0.8-0.4,1.1-0.7
		c0.5-0.5,0.9-1,1.4-1.4c-1.3-0.2-2.4,0.5-3.5,1.1c-0.8,0.4-1.5,1-2.3,1.3c-0.6,0.2-1.4,0.2-1.9-0.1c-3.5-1.9-7.1-1.7-10.8-1
		c-0.6,0.1-1.5,0.6-1.6,1.1c-0.6,2.1-3.8,2.9-2.7,5.8c0.2,0.6-1.1,1.6-1.5,2.5c-0.3,0.6-0.3,1.3-0.5,2c0.5-0.3,1.2-0.5,1.4-1
		c1.7-3,4.4-4.9,7.1-7c1.4-1.1,2.9-1.8,4.8-1.6c0.9,0.1,1.7,0.1,2.6,0.2c-0.7,0.2-1.5,0.4-2.2,0.7c-0.1,0.1,0.2,0.9,0.3,1.3
		c-0.8,0.2-1.9,0.1-2.5,0.6c-2.6,1.8-5.1,3.8-7.6,5.7c-0.2,0.2-0.1,0.8-0.2,1.1c0.4,0,0.8,0,1.1-0.2c1.3-0.8,2.5-2.2,3.9-2.5
		c1.8-0.4,3-1.3,4.4-2.5C141.9,79.4,144.2,78.1,147,78.3z"/>
	<path d="M139.2,131c0.2,1,0.7,1.9,1.1,2.8c0,0,0,0,0,0c1.3-0.5,2.9-0.3,3.8,1.4c1.6,3.2,2.6,7,4.1,10.5c0.3,0.3,0.6,0.5,0.9,0.7
		c0.6,0.6,1.6,0.9,2,1.6c0.6,1.1,1.6,1.9,2.5,2.6c-2.5-4.9-5.7-9.9-6.6-15.2c-0.1-0.9,0-1.6,0.4-2.3c0-0.2,0.1-0.4,0.1-0.6
		c0.3-1.1,0.1-2.4-1-3.5c-2.3-2.2-4.3-4.6-6.5-6.8c-0.9-0.9-1.9-1.8-2.9-2.6c-0.3-0.2-0.8-0.2-1.1-0.2c0,0.3,0,0.8,0.1,1
		c1.7,2,3.4,3.9,5.1,5.9c1.5,1.9,2.9,3.9,4.3,5.9c0.2,0.3,0.1,0.8,0.1,1.2c-0.3-0.1-0.8-0.2-1-0.4c-1-1.1-1.8-2.2-2.8-3.3
		c-1.3-1.5-2.6-3.1-4.1-4.4c-0.8-0.6-2.1-0.6-3.2-0.8c-0.1,0-0.3,0.9-0.4,1.3c-0.5-0.4-1-0.8-1.5-1.2c-0.4-0.4-0.7-0.9-1.1-1.3
		c-1.7-1.8-3.9-2.4-6-1.3c-0.5,0.3-1.2,1.3-1,1.6c0.8,1.7-0.3,1.5-1.3,1.6c-0.3,0-0.6,0.5-0.9,0.8c1.3,0.8,2.7,1.6,4.1,2.3
		c0.1,0.1,0.6-0.2,0.6-0.3c0.6-2.6,1.8-0.5,2.8-0.4c0.4,0,0.8,0.1,1.2,0.1c0-0.4,0-0.8-0.1-1.1c-0.3-0.9-0.7-1.8-1.1-2.8
		c0.8,0.8,1.7,1.5,2.4,2.4c0.5,0.5,0.6,1.3,1.1,1.8c0.3,0.3,1.3,0.3,1.4,0.1c0.7-1.2,1.1-0.4,1.5,0.1c0.5,0.9,1,1.8,1.4,2.7
		C138,132.1,138.7,128.8,139.2,131z"/>
	<path d="M124.6,96.3c0.5,0.1,1,0.4,1.5,0.4c1.2,0.2,2.5,0,3.7,0.4c0.8,0.3,1.5,1.3,2.2,1.9c-0.5,0.4-1.1,0.8-1.4,1.3
		c-0.3,0.5-0.1,1.2-0.4,1.6c-0.7,1.3-1.6,2.6-3.3,2.2c-1.6-0.4-2.7-1.6-2.7-3.4c0-1.3,0-2.6-0.1-3.9
		C124.2,96.6,124.4,96.4,124.6,96.3z"/>
	<path d="M157.4,118.9c-3.5-1.8-6.9-3.7-10.4-5.5c-0.3-0.2-0.8,0-1.2-0.1c0.1,0.4,0.1,0.8,0.4,1c0.8,0.7,1.5,1.3,2.4,1.8
		c3.5,1.9,7,3.7,10.5,5.5C158.5,120.8,157.9,119.9,157.4,118.9z"/>
	<path d="M127,77.3c0.6-0.3,1.2-0.6,1.7-0.9c-1.2,3.3-2.4,6.7-3.7,9.9c-1.1,2.5-2.4,4.9-3.6,7.3c-0.2,0.3-0.8,0.5-1.2,0.7
		c0-0.4-0.2-0.8-0.1-1.2c0.9-5,3-9.4,5.8-13.6C126.3,78.9,126.6,78,127,77.3z"/>
	<path d="M152.8,113.7c-0.6,0.1-1.1,0.4-1.4,0.2c-1.5-0.6-2.9-1.3-4.3-2.1c-2.7-1.7-5.3-1.7-8.1-0.1c-1.7,1-3.7,1.6-5.6,2.3
		c-0.3,0.1-0.8-0.2-1.2-0.4c0.3-0.3,0.5-0.7,0.8-0.9c3.1-2.1,6.6-3.2,10.2-4.1c0.5-0.1,1.1-0.1,1.6,0.1c2.4,1.3,4.8,2.6,7.2,4
		C152.3,112.8,152.5,113.2,152.8,113.7z"/>
	<path d="M124,96.8c-0.2,0.5-0.3,1-0.5,1.5c-0.1,0.4-0.3,0.7-0.5,1.1c-0.2-0.3-0.6-0.6-0.6-0.9c-0.7-2.7-0.2-4.5,2.2-5.1
		c2.3-0.6,4.8-0.2,7.2-0.1c0.3,0,0.5,0.6,0.8,1c-0.3,0.2-0.7,0.5-1,0.6c-0.9,0.1-1.9,0.1-2.8,0c-1.6-0.1-3.2-0.5-4.1,1.4
		C124.4,96.4,124.2,96.6,124,96.8z"/>
	<path d="M128.3,116.4c0.3,0.2,1.2,0.7,2.1,1.2c1.1,0.6,2.3,1.2,3.4,1.9c0.3,0.2,0.4,0.7,0.6,1c-0.4,0.1-0.8,0.3-1.2,0.2
		c-2.1-0.2-4.3-0.6-6.4-0.7c-1.7-0.1-0.4-0.9-0.5-1.4C126,116.4,125.9,116.4,128.3,116.4z"/>
	<path d="M138,114.7c2.7,0.7,5.4,0.5,6.7,3.3c0.4,0.9,2.5,0.8,1.7,2.2c-0.2,0.3-2.7-0.1-3.4-0.9c-1.4-1.6-3.2-2.3-5-3
		c-0.5-0.2-0.8-0.8-1.2-1.1C137.3,115,137.7,114.8,138,114.7z"/>
</g>
<g>
	<path d="M190.9,51.4c3.8-0.9,7.3-2.3,10.9-3.3c3-0.8,5.9-1.7,8.9-2.6c-5,3.8-11.1,5.7-15.7,9.8c5.9-2.1,11.4-5,17.2-6.9
		c6-2,12.3-2.4,18.7-1.6c-4.8,1.8-9.6,3.5-14.5,4.9c-6.4,1.9-9.1,3.2-13.7,7.4c8.3-4.6,16.8-4.2,24.8-6.1c1.7-0.4,3.8-0.1,5.5,0.5
		c3.7,1.2,7.3,2.5,11,3.8c1.7,0,3.4,0.1,5.1,0.3c4.5,0.6,9.4,1.8,14,1l0-0.4c-5-1.4-10-3.1-15.1-3.9c-1.9-0.3-1.6-3.1-4.1-2.4
		c-1.9,0.6-4,0.2-6.1,0.1c-1.1,0-2.8,0.1-3.1-0.5c-1.1-2-2.4-1.2-3.9-0.8c-0.8,0.2-1.6,0-2.5,0c0-0.2-0.1-0.3-0.1-0.5
		c3.8-1.4,7.6-2.8,11.5-4.3c0-0.3-0.1-0.6-0.1-0.9h-15.9c0-0.3-0.1-0.5-0.1-0.8c2-0.7,3.9-1.3,5.9-2c-0.1-0.3-0.1-0.6-0.2-1
		c-9.1,1.4-18.2,2.8-27.2,4.2c1.6-1,3.3-1.6,5-2.2c1.5-0.6,3-1.3,4.5-1.9c-13.7,2.8-27.3,6-35.7,18.7c1.1-0.4,2-1.4,3-2
		C182.7,55.7,186.5,52.4,190.9,51.4z"/>
	<path d="M224.6,64.3c-1.8-0.3-3.6-0.8-5.5-1.6c3-2,5.7-2.8,9-1.7c0.4,0.1,0.8,0.3,1.3,0.4c1-0.5,2-1,3-1.5
		c-3.2-1.6-5.7-1.5-11.8-1.1c-2.9,4.3-7.2,3-10.4,3.7c4.2,1.2,8.5,2.1,12.9,2.9C223.6,65,224.1,64.7,224.6,64.3z"/>
	<path d="M217.7,69.8c0,0,0.1-0.1,0.1-0.1c0.4-0.4,0.8-0.7,1.2-1.1c-13-1.9-27.2-2.6-32.7-0.9c10,0.5,19.5,0.6,28.8,1.7
		C216,69.5,216.8,69.7,217.7,69.8z"/>
	<path d="M162.2,83.5c0,1.9,0,2.8,0,3.5c-4,1.7-8,3.4-12.1,5.2c0,0.3,0,0.5,0,0.8c1.2,0.3,2.3,0.5,4.2,0.9c-5.6,0-10.6,0-15.6,0
		c-0.1-0.2-0.1-0.5-0.2-0.7c3.4-0.7,6.9-1.3,10.3-2c0-0.3,0.1-0.5,0.1-0.8c-1.6-0.6-3.2-1.2-5.8-2.1c4.6,0,8.1,0,11.6,0
		c0.1-0.2,0.2-0.5,0.3-0.7c-1.1-0.8-2.2-1.6-4-2.8C155.2,85.6,158.7,87.5,162.2,83.5z"/>
	<path d="M154.7,82.6c5.8-0.2,10.4-2.4,13.4-7.3c-0.6-0.4-1.1-0.7-1.1-0.7c3.5-4,7-8.1,10.4-12.1c0.4,2.4-1.5,4.1-2.8,6.1
		c-1.5,2.3-3.3,4.5-4.6,6.9C166.8,81,161.2,83.7,154.7,82.6z"/>
	<path d="M184.7,44.1c-0.2,2.1-0.4,3.3-0.5,4.3c-4.6,4.4-9.4,8.9-14.5,13.7C173.3,54.9,178.5,49.6,184.7,44.1z"/>
	<path d="M145.3,81.8c-0.2-0.8-0.4-1.5-0.6-2.2c0.1-0.1,0.3-0.3,0.5-0.3c4,0.5,6.4-1.4,8.3-4.6c1.3-2.2,2.7-4.3,4.7-6.3
		c-0.6,1.8-1.3,3.6-2.1,5.9c1.2-0.6,1.8-1,2.5-1.4c0.3,0.7,0.6,1.4,0.9,2c-3.5,2.2-7,4.5-10.6,6.5C147.8,82.1,146.3,81.8,145.3,81.8
		z"/>
	<path d="M164.3,69.6c-0.6-8.2,1.9-14.9,8.7-19.9c0.2,0.8,0.4,1.2,0.3,1.2c-3.9,2.5-4.5,6.8-6,10.6
		C166.4,64.2,165.3,66.9,164.3,69.6z"/>
	<path d="M151.1,102.8c0.9,0,1.7,0,2.6,0c0.7,0,1.5-0.1,2.3-0.6c-3.7-1.6-6.7-4.5-11.4-3.3c-2.7,0.6-5.8-0.3-8.7-0.5
		c0-0.4,0.1-0.8,0.1-1.2c1.2,0.2,2.5,0.4,3.7,0.5c1.4,0.1,3.4,0.6,4.1-0.1c2.3-2.3,4.1-0.9,6.2,0.1c3.6,1.7,7.3,3.2,11.1,4.8
		C158.1,104.6,154.6,103.8,151.1,102.8z"/>
	<path d="M176,70.1c4-3.7,8.1-5,12.1-6.3c4.1-1.3,8.2-2.6,12.4-3.8c0,0.6-0.1,1.7-0.1,2.9c-3.7,0.7-7.8,1.2-11.8,2.4
		C184.6,66.4,180.9,68.2,176,70.1z"/>
	<path d="M175.2,91.2c5,0.6,10,1.1,15.3,1.7c-1.2,0.4-2.4,0.8-4.2,1.4c2.4,1,4.2,1.6,5.9,2.3C186.2,95.5,180,95.1,175.2,91.2z"/>
	<path d="M165.7,132.6c4,7.1,10,11.8,17.7,14.7C177.1,148,166.7,139.4,165.7,132.6z"/>
	<path d="M180.9,164.5c-6.5-2.2-11.2-6.5-14.5-12.4C171.3,156.2,176.1,160.3,180.9,164.5z"/>
	<path d="M178.1,76.3c7.4-1,14.7-2,22.1-3c0,0.3,0.1,0.7,0.1,1c-7.4,1.1-14.7,2.2-22.1,3.3C178.2,77.2,178.2,76.8,178.1,76.3z"/>
	<path d="M187.9,104.3c-6.8-1.8-13.1-3.5-19.5-5.2C172.4,98,182.1,100.5,187.9,104.3z"/>
	<path d="M167.9,114.3c-5.1-2.4-11.4-1.5-16.3-7.3c6.2,2.4,11.5,4.4,16.7,6.4C168.2,113.8,168.1,114.1,167.9,114.3z"/>
	<path d="M155.5,143.4c3.1,5.3,6.2,10.5,9.2,15.8C159.8,154.9,157.1,149.4,155.5,143.4z"/>
	<path d="M157.4,154.9c-4.7-3.8-6.7-9.2-8.6-14.7C151.7,145.1,154.6,150,157.4,154.9z"/>
	<path d="M193.8,80c-6.2,1.3-12.3,2.5-18.5,3.8C181.2,81.1,187.3,79.5,193.8,80z"/>
</g>
</svg>
