<?xml version="1.0" encoding="utf-8"?>
<!-- Generator: Adobe Illustrator 17.1.0, SVG Export Plug-In . SVG Version: 6.00 Build 0)  -->
<!DOCTYPE svg PUBLIC "-//W3C//DTD SVG 1.1//EN" "http://www.w3.org/Graphics/SVG/1.1/DTD/svg11.dtd">
<svg version="1.1" id="Layer_1" xmlns="http://www.w3.org/2000/svg" xmlns:xlink="http://www.w3.org/1999/xlink" x="0px" y="0px"
	 viewBox="0 0 288 216" enable-background="new 0 0 288 216" xml:space="preserve">
<g>
	<path d="M132.5,83.7c-0.7-0.4-1.5-0.8-2.1-1.3c-1.6-1.1-3.1-2.1-4.6-3.2c-1.2-0.9-2.5-1.7-3.7-2.6c-0.4-0.3-0.8-0.8-1.4-0.3
		c-0.1,0.1-0.4,0-0.6,0c-0.2,0-0.3,0.1-0.4,0.2c-0.9,0.9-1.9,1.8-2.8,2.6c-1.2,1.1-2.6,1.8-4.2,2c-2.6,0.4-5.2,0.6-7.6-0.5
		c-1.1-0.5-2.2-1.1-3.2-1.8c-0.8-0.6-1.5-1.3-2.1-2c-0.4-0.4-0.6-0.3-1-0.2c-1.1,0.4-2.3,0.7-3.4,1c-0.5,0.2-1.1,0.3-1.3,1.1
		c-0.1,0.7-0.4,1.5-0.9,2c-0.8,0.7-0.8,1.2-0.4,2c0.1,0.3,0.1,0.8-0.1,1c-0.7,0.9-2.1,0.7-2.7-0.2c-0.7-0.9-0.5-1.9-0.5-2.8
		c0-0.9-0.5-1.5-1.3-1.7c-1-0.3-2-0.6-3-1c-1-0.4-1.5-1.2-1.8-2.2c-0.2-0.8,0.5-1.6,1.4-1.5c0.1,0,0.3,0,0.5,0
		c-0.2-0.6-0.5-1.1-0.6-1.6c-0.2-0.6-0.2-1.2,0.4-1.6c0.5-0.4,1-0.1,1.4,0.2c0.2,0.1,0.4,0.3,0.6,0.4c0.2,0.1,0.4,0.2,0.6,0.2
		c1.3-0.3,2.4,0.1,3.5,0.7c0.9,0.5,1.7,1.2,2.4,1.7c1.4-0.5,2.8-0.9,4.3-1.5c-0.4-2.4,0.1-4.8,0.5-7.3c0.4-2.5,1.6-4.7,3.1-6.7
		c-1.2-0.7-1.7-1.7-1.6-2.9c0.1-1.3,1.1-1.9,1.9-2.7c-1.4-1.3-4.6-2.4-6.4-2.5c-0.8,0-1.7-0.2-2.2,0.7c-0.3,0.4-0.7,0.3-1.2,0.1
		c-0.5-0.2-0.7-0.6-0.7-1c0-0.5,0.1-1,0.7-1.1c0.9-0.2,1-0.2,1.6,0.7c2.3-0.1,4.5,0.3,6.6,1.4c0.1-2.1,1.4-3.1,3.4-3.1
		c-0.1-0.2-0.1-0.4-0.2-0.5c-0.6-1.5-1.3-3-1.7-4.5c-0.7-2.5-0.1-4.7,1.9-6.6c1.5-1.4,3.2-1.9,5.1-1.4c1.6,0.4,2.8,1.7,3.9,3
		c1.3,1.5,2,3.4,2.7,5.2c1.2,3.3,1.6,6.6,1.7,10.1c0,0.4,0,0.7,0,1.1c0.1,0,0.2,0,0.2,0c0.3-0.7,0.5-1.5,0.9-2.1
		c1.2-1.7,2.4-3.4,3.8-5c2.3-2.7,4.9-4.9,8.1-6.5c0.3-0.2,0.4-0.4,0.2-0.7c-0.4-1-0.5-2,0.3-2.9c0.3-0.4,0.7-0.7,1-1
		c1.1-0.9,2.2-1.6,3.2-2.5c1.3-1.3,2.2-2.9,3-4.5c0.9-1.7,1.9-3.3,3.3-4.7c1.1-1.1,3.4-0.5,3.9,1c0.4,1.3,0.5,2.6,0.5,3.9
		c0,1.9-0.5,3.7-1.4,5.3c-0.8,1.5-1.9,2.9-2.8,4.3c-0.5,0.8-1,1.6-1.7,2.2c-0.4,0.4-0.4,0.6-0.1,1.1c1.3,1.9,1.4,3.9,0.5,5.9
		c-0.7,1.5-1.6,3-2.8,4.2c-0.3,0.3-0.4,0.6-0.1,0.9c0.3,0.4,0.6,0.9,0.8,1.3c0.4,0.7,0.7,1.4,1.1,2.1c0.9-1.8,1.7-3.4,2.6-5.1
		c0.6-1.2,1.1-2.4,1.8-3.5c0.8-1.5,0.8-1.4-0.2-2.6c-0.5-0.6-0.9-1.3-1-2c-0.1-1.5,1.5-3,2.7-3.7c0.7-0.4,1.5-0.7,2-1.3
		c0.9-1.1,1.6-2.3,2.4-3.5c1.7-2.4,3.5-4.6,5.8-6.4c1.3-1,2.7-0.5,3.4,0.9c0.7,1.4,0.2,2.8,0.1,4.2c-0.1,0.9-0.6,1.7-0.9,2.5
		c-1.3,3.3-3.3,6.2-5.5,9c-1,1.3-2.1,2.6-3.1,4c-1.4,2.1-2.7,4.2-4,6.3c-1.1,1.7-2.2,3.3-3.4,4.9c-0.7,0.9-1.5,2-2.7,2.4
		c-1.2,6-5.2,9.4-10.6,11.7c2.4,1.1,4.2,2.9,6.2,4.4c0.8,0.6,1.7,1.2,2.7,1.4c2.4,0.5,4.6,1.5,6.8,2.3c0.6,0.2,1.2,0.6,1.1,1.4
		c0.2,0,0.4,0,0.6,0c0.6,0,1.2,0.2,1.4,0.8c0.2,0.6,0,1.1-0.5,1.4c-0.6,0.5-1.3,0.9-1.9,1.2c0,0,0,0,0.1,0c1.3,0.5,1.4,1.4,0.5,2.3
		c-1,1-2.3,1.4-3.7,0.7c-1.2-0.6-2.3-1.2-3.4-1.8c-1.4-0.8-2.4-0.6-3.1,0.7c-0.3,0.5-0.5,1-0.8,1.4c-0.3,0.5-0.8,0.8-1.5,0.9
		c-1.1,0.1-1.7-0.5-2.2-1.3c-0.1-0.2-0.1-0.6,0-0.8c0.3-0.4,0.6-0.7,1-0.9c0.7-0.4,1.3-1.1,1.2-1.9c0-0.9,0.3-1.7,1-2.5
		C132.9,84.1,132.7,83.9,132.5,83.7z M104,59.6c-1-0.1-1.5,0.3-1.8,1.2c-0.1,0.2-0.3,0.3-0.4,0.4c-0.1-0.2-0.2-0.5-0.1-0.7
		c0.2-0.5,0.5-0.9,0.8-1.3c-0.4-0.1-0.7-0.1-0.9,0.3c-1.3,2-2.4,4.1-2.8,6.5c-0.3,2-0.8,4.1-0.4,6.2c0.2,1.1,0.7,2.1,1.1,3.1
		c1.1,2.3,3.1,3.6,5.3,4.5c2.8,1.2,5.6,1,8.4,0.4c0.8-0.2,1.5-0.6,2.2-1c0.9-0.5,1.7-1.1,2.4-1.9c1.3-1.4,2.1-3,2.6-4.7
		c1-3,0.4-5.8-0.9-8.6c-0.8-1.9-2.2-3.3-3.7-4.7c-1.8-1.7-3.9-3-5.9-4.4c-0.9-0.6-1-0.5-1.8,0.2c-1.2,1.2-2.5,2.3-3.8,3.4
		c-0.2,0.2-0.4,0.3-0.6,0.4C103.8,59.2,103.9,59.4,104,59.6z M124.2,60c3.1-1.4,5.7-3.4,8.5-5.2c1.5-1,2.9-2.1,4-3.5
		c1.2-1.5,2.3-3.1,2.6-5c0.3-1.5-0.1-2.9-1.2-3.9c-0.5-0.5-1.4-0.9-2.2-0.9c-1.7-0.1-3.4-0.1-5.1,0.1c-0.8,0.1-1.6,0.7-2.4,1.1
		c-2.1,1.1-3.9,2.6-5.4,4.3c-1.7,1.9-3.3,3.9-4.7,6.1c-0.9,1.5-1.4,3.3-2,4.9c-0.1,0.2,0.1,0.7,0.3,0.9c0.9,1,1.9,1.9,3.1,2.9
		C121.2,61.3,122.7,60.6,124.2,60z M114.2,52.1c0.3,0.5-0.1,1.3-0.3,2.1c0.2,0.3,0.7,0.7,1.1,1.2c0.5,0.6,0.2,1.2-0.3,1.7
		c0.3,0.2,0.6,0.4,1.1,0.8c0.1-0.7,0.1-1.2,0.1-1.6c0-0.8,0-1.7-0.1-2.5c-0.2-2.2-0.5-4.4-0.8-6.5c-0.3-2.5-1.3-4.7-2.5-6.9
		c-1-1.9-2.5-3.4-4.5-4.4c-1.1-0.5-2.7-0.2-3.6,0.7c-0.5,0.5-1.1,0.9-1.5,1.5c-0.7,1-0.9,2.2-0.9,3.4c0,1.8,0.7,3.2,1.3,4.8
		c0.3,0.6,0.4,1.3,0.8,1.8c0.3,0.5,0.9,0.7,1.3,1.1c0.1-0.1,0.2-0.1,0.2-0.1c0.2-1.4,1.6-2.2,2.7-0.8c0.9,1,1.7,2.1,2.6,3.2
		c0-0.5,0-0.8,0-1.2c-0.3-1.4-0.5-2.8-1.1-4.1c-0.5-1-1.2-1.7-2.4-1.9c-0.3-0.1-0.6-0.3-0.9-0.3c-0.5-0.1-0.9-0.3-1.3,0.3
		c-0.2,0.3-1,0.2-1.4,0.1c-0.5-0.2-0.8-0.6-0.5-1.3c0.2-0.6,0.5-1.2,1.2-1.2c0.5,0,0.9,0.4,1.3,0.9c0.2,0.4,0.9,0.4,1.4,0.6
		c0.7,0.3,1.5,0.4,2.2,0.8c1.2,0.7,1.7,1.9,2,3.1c0.3,1.4,0.5,2.9,0.7,4.4C112.7,51.8,113.7,51.3,114.2,52.1z M143.7,83.8
		c0-0.1,0-0.2,0.1-0.2c-0.3-0.2-0.6-0.3-1-0.5c-1.7-0.6-3.4-1.4-5.2-1.8c-2.1-0.5-3.8-1.4-5.3-2.8c-1.9-1.6-3.9-3-6.2-3.8
		c-1.3-0.5-2.7-0.8-4.1-0.4c-0.2,0.1-0.4,0.2-0.6,0.3c0.1,0.9,0.8,1.2,1.4,1.6c1.6,1.2,3.2,2.4,4.9,3.5c1.7,1.2,3.5,2.3,5.3,3.4
		c0.8,0.5,1.2,1.2,0.8,1.6c-0.7,0.8-0.6,1.8-0.8,2.6c-0.2,0.9-0.7,1.5-1.6,1.9c-0.8,0.3-0.9,0.8-0.2,1.4c0.9,0.7,1.8,0.5,2.4-0.4
		c0.3-0.4,0.5-0.9,0.7-1.3c0.8-1.3,1.7-1.6,3.3-1c0.9,0.4,1.7,0.9,2.5,1.3c0.7,0.3,1.5,0.7,2.3,0.9c1,0.3,2.1-0.4,2.5-1.5
		c-1.3-0.5-2.6-1-3.8-1.5c-1.2-0.5-2.6-0.9-3.4-2c0-0.1,0.1-0.2,0.1-0.3c0.3,0.1,0.6,0.1,0.8,0.3c1.1,0.9,2.4,1.5,3.8,1.7
		c1.1,0.1,2.2,0.1,3.1-0.6c0.4-0.3,0.7-0.6,0.4-1c-0.2-0.3-0.6-0.4-1-0.5c-1.1-0.2-2.3-0.2-3.4-0.4c-0.7-0.1-1.4-0.6-2.1-0.9
		c0-0.1,0.1-0.2,0.1-0.3C140.9,83.3,142.2,84.5,143.7,83.8z M153.2,40c-1.5,1.5-3.2,2.6-5.1,3.4c-0.8,0.3-1.6,0.7-2.4,1.1
		c-0.9,0.4-2.3-0.1-2.9-0.9c-0.1-0.1-0.2-0.2-0.3-0.4c-0.2,0.9,0,1.5,0.8,2.4c0.4,0.5,0.9,1,1.4,1.5c0.1,0.1,0.2,0.3,0.3,0.5
		c-0.2,0-0.4-0.1-0.6-0.1c-0.1,0-0.1,0-0.3-0.1c-0.7,1.4-1.4,2.9-2.1,4.3c-1,2-2,4-3,6c-0.5,1.1-1,2.3-1.4,3.5
		c-0.1,0.3,0.1,0.7,0.1,1c0.3-0.1,0.7-0.2,1-0.4c1.7-1.7,3.1-3.7,4.4-5.7c1.7-2.6,3.3-5.2,5-7.8c0.9-1.3,2-2.3,2.9-3.6
		c1.5-2.1,2.9-4.2,4.3-6.3c0.3-0.4,0.4-0.9,0.7-1.5C155,38,154.2,39,153.2,40z M151.5,36.9c0.2,0,0.4,0.2,0.6,0.4
		c-0.2,0.1-0.4,0.2-0.6,0.2c-0.8,0.1-1.6,0.2-2.4,0.2c-0.3,0-0.6,0-1,0.1c-0.2,0-0.3,0.1-0.5,0.1c0,0.1,0,0.1,0.1,0.2
		c0.8,0,1.5-0.1,2.3-0.1c0.7,0,1.6-0.2,2.2,0.7c-0.8,0-1.5,0-2.1-0.1c-1.3-0.1-2.5-0.1-3.6,0.7c-0.5,0.3-1.1,0.4-1.6,0.8
		c-0.6,0.4-1.1,0.8-1.6,1.3c-0.5,0.5-0.3,1.2,0,1.7c0.3,0.3,0.8,0.5,1.2,0.6c1.3,0.2,2.3-0.5,3.3-1c3-1.3,5.3-3.4,7.3-6
		c1.1-1.4,1.9-2.9,2.2-4.6c0.2-0.9,0.3-1.9-0.2-2.7c-0.7-1.1-1-0.8-2-0.4c-0.4,0.2-0.7,0.5-1.1,0.8c-2.1,2.1-4,4.3-5.5,6.8
		c-0.1,0.1-0.1,0.2-0.1,0.3C149.5,36.9,150.5,36.9,151.5,36.9z M134.9,35c-0.5,0-1,0.1-1.4,0.5c-0.7,0.6-1.5,1.2-2.3,1.8
		c-0.2,0.2-0.5,0.7-0.5,0.9c0.1,0.3,0.6,0.5,0.9,0.6c3.1,0.5,5.7-0.5,7.7-2.9c1.2-1.4,2.4-2.8,3.3-4.4c0.7-1.4,1-3,1.4-4.6
		c0.1-0.5-0.3-1.2-0.5-1.7c-0.1-0.2-0.4-0.3-0.7-0.3c-1.3-0.1-2.1,0.8-2.7,1.7c-1.3,2-2.5,4.1-3.8,6.1c-0.1,0.2-0.2,0.4-0.4,0.7
		c1.2,0,2.3-0.1,3.4-0.1c0,0.1,0,0.2,0.1,0.3c-0.2,0.1-0.3,0.2-0.5,0.2c-1.1,0.1-2.3,0.1-3.5,0.1c-0.1,0-0.2,0.1-0.5,0.4
		c1.3,0.1,2.7-0.3,3.3,1.1C137.2,35,136.1,35,134.9,35z M97.8,74c-0.1-0.1-0.4-0.2-0.6-0.2c-1.4,0.1-2.7,0.7-4,1.4
		c-0.3,0.2-0.7,0.2-1.1,0.3c0-0.1-0.1-0.1-0.1-0.2c0.2-0.2,0.3-0.4,0.5-0.7c-1.3-1.2-2.9-2-4.7-2.1c0,0.1-0.1,0.1-0.1,0.2
		c0.8,0.5,1.6,1,2.4,1.6c-0.1,0.1-0.1,0.2-0.2,0.3c-0.2,0-0.3,0-0.5-0.1c-1.2-0.8-2.3-1.5-3.5-2.3c-0.3-0.2-0.7-0.2-1-0.3
		c0,0.3-0.2,0.7-0.1,1c0.5,1.5,1.4,2.6,3.1,2.8c0.2,0,0.3,0.3,0.4,0.4c-0.2,0.1-0.4,0.2-0.5,0.2c-1-0.3-1.9-0.6-2.9-0.9
		c-0.2-0.1-0.4-0.2-0.5-0.1c-0.3,0-0.7,0.1-0.9,0.3c-0.1,0.1,0,0.6,0.1,0.8c0.5,1,1.4,1.3,2.4,1.7c0.5,0.2,1,0.3,1.5,0.4
		c1.4,0.3,2.1,1.5,1.9,3c-0.1,0.6,0.2,1.4,0.5,1.9c0.2,0.5,0.9,0.7,1.3,0.4c0.5-0.3,0.5-0.9,0.3-1.4c-0.3-0.6-0.2-1,0.3-1.4
		c0.8-0.6,1.2-1.4,1.3-2.4c0.1-0.6,0.5-0.9,1-1.1c1.3-0.4,2.6-0.7,3.9-1.1c0.2-0.1,0.4-0.2,0.5-0.2C98.4,75.3,98.2,74.7,97.8,74z
		 M109.7,53.9c1.5,0.9,3,1.9,4.5,2.8c0.6-0.7,0.3-1-2.1-2.4c0.2-0.1,0.4-0.2,0.5-0.3c0.3-0.4,0.7-0.8,0.8-1.3
		c0.1-0.3-0.3-0.7-0.7-0.4c-0.3,0.2-0.7,0.5-0.9,0.8c-0.3,0.4-0.6,0.4-0.9,0c-0.6-0.8-1.2-1.7-1.8-2.6c-0.5-0.7-1-1.3-1.6-1.9
		c-0.2-0.2-0.4-0.3-0.7-0.4c-0.4,0.7-0.4,1.7,0,2.2c0.3,0.4,1.1,0.8,0.4,1.3c-0.5,0.4-0.8-0.4-1.1-0.8c-0.9-1.1-2-1.8-3.5-1.8
		c-1,0.1-1.8,0.7-1.9,1.6c-0.1,0.7,0.5,1.5,1.5,1.8c0.4,0.1,0.7,0.3,1,0.5c-0.9,0.7-1.7,1.2-2.4,1.9c-0.7,0.7-0.8,1.6-0.4,2.4
		c0.4,0.7,1.2,1.2,2.1,0.9c0.7-0.2,1.4-0.5,1.9-1c1.3-1.1,2.5-2.4,3.8-3.6c0.2-0.2,0.5-0.3,0.7-0.4
		C109.3,53.6,109.5,53.8,109.7,53.9z M121.3,64.1c1.1,0.7,1.7,1.8,2.2,2.9c0.8,1.9,1.2,3.8,1.2,5.9c0,0.2,0,0.5,0,0.7
		c0.6,0.2,1.2,0.3,1.7,0.5c0.6,0.2,1.7-0.3,2-0.9c0.3-0.7,0.6-1.5,0.6-2.2c0.2-3.1-0.5-6-2.7-8.4c-0.6-0.6-1.3-1.2-1.8-1.7
		c-1.6,0.6-3,1.2-4.5,1.7C120,63.4,120.7,63.7,121.3,64.1z M131.2,56.8c1.6,1.5,2.6,3.3,3.2,5.3c0.6,2,1.1,4,0.7,6.1
		c0.8-1,1.5-2,1.9-3.2c0.3-0.9,0.2-1.8,0-2.7c-0.1-0.6,0.1-1.2,0.1-1.8c0-0.6-0.1-1.2-0.3-1.7c-0.5-1.5-1-3-2.2-4.2
		C133.4,55.3,132.3,56,131.2,56.8z M130.6,40.5c1.4,0,2.7-0.2,4-0.1c1.3,0.1,2.5,0.5,3.9,0.8c2.6-3.6,5.8-7.1,5.7-12.2
		c-0.1,0.5-0.3,1-0.4,1.5c-0.4,1.5-1.2,2.8-2.2,3.9c-1,1.1-1.9,2.3-3,3.2c-2.2,1.7-4.7,2.4-7.5,1.6c-0.3-0.1-0.5-0.2-0.9-0.4
		C130.4,39.5,130.5,40.1,130.6,40.5z"/>
	<path d="M102.1,68.9c-1.1-0.1-2.1-0.3-3.2-0.4c0-0.1,0-0.1,0-0.2c1-0.6,2.1,0,3.2,0c-0.1-0.2-0.1-0.4-0.2-0.5c-1-1.7-0.9-3.4,0.3-5
		c0.5-0.7,1.1-1,1.8-1.1c0.8-0.1,1.4,0,1.9,0.8c0.2-0.3,0.3-0.6,0.5-0.8c0.5-0.4,0.9-0.9,1.5-1.1c1.5-0.4,2.7,0.3,3.1,1.8
		c0.4,1.6,0.8,3.2,0.2,4.9c-0.4,1-1,1.6-1.9,2.1c-0.2,0.1-0.5,0.3-0.8,0.5c-0.1-0.1-0.3-0.4-0.6-0.6c-1.6-1.1-2.7-1.5-3.8,0.4
		c-0.3,0.5-0.9,0.6-1.4,0.3c-0.3-0.2-0.7-0.3-1.1-0.3c-0.6,0-1.2,0-1.8,0c-0.3,0-0.6,0-0.9,0c0-0.1,0-0.2,0-0.2
		c1-0.7,2.1-0.3,3.2-0.3C102.1,69.1,102.1,69,102.1,68.9z M107.8,66.6c-0.6,0.4-1.2,0.3-1.7-0.3c-0.1,0.7,0.3,1.7,0.9,2
		c0.5,0.3,1,0.6,1.5,0.7c1.1,0.1,2.1-1.3,2.2-2.1c0.3-1.7-0.4-2.5-2.4-2.8C108.7,65.4,108.5,66.2,107.8,66.6z M103.8,64.6
		c0.5,0.7,0.7,1.4,0.3,2c-0.2,0.3-0.6,0.6-0.9,0.7c-0.4,0.1-0.7-0.3-0.8-0.7c0-0.2-0.1-0.3-0.3-0.7c-0.1,1,0.7,2.5,1.6,3.1
		c0.3-0.3,0.5-0.6,0.8-0.8c0.3-0.2,0.7-0.2,1-0.3c-0.1-1.3-0.3-2.6-0.4-4.1C104.8,64.1,104.3,64.4,103.8,64.6z M110.6,64.4
		c0-1-0.2-1.8-0.7-2.6c-0.4-0.7-1.6-0.9-2.2-0.4c-0.5,0.4-1,0.9-1.4,1.4C107.9,63.3,109.4,63.3,110.6,64.4z M105.5,63.1
		c-0.2-0.2-0.4-0.7-0.7-0.8c-0.8-0.2-1.6,0-2.1,0.7c-0.4,0.6-0.6,1.3-0.9,1.8C103.1,64.3,104.2,63.7,105.5,63.1z"/>
	<path d="M99.9,72c0.4-0.1,0.8-0.4,1.1-0.3c0.6,0.2,1.1,0.5,1.6,0.8c1.2,0.7,2.4,1.5,3.9,1.4c2.1-0.1,4-0.8,5.6-2.1
		c0.5-0.4,1.4-0.8,1.2-1.9c0,0,0.3-0.2,0.4-0.2c0.5,0.2,1,0.4,1.4,0.6c0,0.1-0.1,0.2-0.1,0.3c-0.2,0-0.5-0.1-0.7-0.1
		c-0.9,0.8-1.6,1.7-2.6,2.3c-0.6,0.4-0.6,0.7-0.6,1.2c0.1,1.2,0.2,2.4-0.3,3.5c-0.3,0.6-0.7,0.9-1.4,1c-1.4,0.2-4.1-1.8-4.8-3.4
		c-0.2-0.4-0.3-0.9-0.6-1.2c-0.9-0.6-1.8-1.1-2.8-1.6c-0.2-0.1-0.6,0-0.9,0c-0.2,0-0.3,0-0.5,0C100,72.2,99.9,72.1,99.9,72z
		 M108.2,77.2c-0.1,0.1,0.1,0.5,0.1,0.5c0.6,0.2,1.3,0.5,1.8,0.1c0.3-0.3,0.4-0.9,0.6-1.4c0.1-0.2,0-0.5,0-0.8
		C109.6,75.8,108.7,76.3,108.2,77.2z"/>
	<path d="M111.6,68.3c0.3,0,0.5,0.1,0.7,0c1.3-0.5,2.6-0.6,3.9-0.6c0.2,0,0.4,0,0.6-0.2c-0.2-0.1-0.4-0.4-0.6-0.4
		c-1.6-0.1-3.1,0.1-4.5,0.8C111.8,68,111.8,68.1,111.6,68.3z"/>
	<path d="M116.7,66.3c-0.5-0.1-1-0.3-1.5-0.2c-0.8,0.1-1.6,0.4-2.3,0.6c-0.2,0-0.2,0.4-0.3,0.5c1.2-0.1,2.2-0.2,3.3-0.3
		c0.3,0,0.6-0.2,0.9-0.2C116.7,66.6,116.7,66.4,116.7,66.3z"/>
	<path d="M107.2,57.7c1.1,0.2,2.1,0.5,3.2,0.7c0.3-0.6-0.3-0.7-0.6-0.9C108.6,56.9,107.7,57,107.2,57.7z"/>
</g>
<g>
	<path d="M259.6,115.8c0,1.9,0,3.8,0,5.7c-1.3,5.5-4.9,9-9.8,11.3c-2,1-4.2,1.8-6.2,2.8c-2.6,1.3-5.2,2.5-7.6,4.1
		c-3.1,2.1-3.2,4.5-0.5,7.2c1.5,1.5,3.1,2.7,4.8,3.9c3.2,2.4,6.3,4.8,8.7,8.1c4.3,5.9,4.2,12.6-0.3,18.4c-2.2,2.9-5,4.9-8.2,6.5
		c-7.4,3.9-15.5,6-23.6,7.9c-9,2.1-18.2,3.6-27.4,4.6c-5.7,0.6-11.5,1.4-17.2,1.8c-5.9,0.4-11.8,0.6-17.7,0.9
		c-0.7,0-1.5,0.2-2.2,0.3c-8.3,0-16.6,0-24.9,0c-1.3-0.1-2.6-0.2-3.9-0.3c-5.1-0.3-10.2-0.4-15.2-0.9c-6-0.6-12.1-1.4-18.1-2.2
		c-7.7-1-15.3-2.6-22.8-4.6c-8.3-2.3-16.5-5.2-23.9-9.8c-5.2-3.3-9.9-7.1-12.6-12.8c-1.1-2.4-1.7-5-2.5-7.6c0-2,0-4,0-6
		c1-2.3,1.7-4.8,3-7c2.3-4,5.9-6.8,9.8-9.2c2.7-1.7,5.7-3.2,8.6-4.8c-0.7-1.7,0-3.1,1.4-4.2c0.5-0.4,0.8-1,1.1-1.5
		c1.6-2.8,3-5.8,5-8.4c2.6-3.4,6.9-4.7,11.1-1.7c0.4,0.3,0.9,0.6,1.4,1c0.3-0.4,0.6-0.7,0.9-1.1c1.6-2.1,3.3-4,5.7-5.1
		c1.8-0.8,3.5-0.9,5.2,0c2.2,1.1,3.8,2.9,5.1,4.9c0.9,1.4,1.6,2.9,2.4,4.3c15.9-2.8,31.6-5.5,47.4-8.2c-0.7-0.6-1.5-1.2-2.1-1.9
		c-1.5-1.7-3.1-3.4-4.2-5.3c-1.9-3.3-1.1-6.8,1.7-9.4c2-1.9,4.4-2.9,6.9-3.6c4.9-1.5,10-2.3,15.1-2.7c6.7-0.5,13.4-1.3,20.1-1.4
		c10.7-0.2,21.5,0.1,32.2,1.7c1.2,0.2,2.6,0.4,3.7,0c4.4-1.5,8.8-3.2,13.2-4.8c2,0,4,0,6,0c0.3,0.1,0.7,0.3,1.1,0.3
		c3.7,0.5,7.4,1.1,11.1,1.5c1.6,0.2,2,0.9,2,2.3c0,2.9,0,5.8,0,8.5c0.7,0.3,1.2,0.5,1.5,0.7c2.8,1.8,5.8,3.3,8.4,5.3
		C256.5,107.9,258.5,111.6,259.6,115.8z M138.5,108.9c-0.9,0.4-1.8,0.9-2.8,1.3c2.3,2.3,4.6,4.6,7,7c-2.1-0.4-4-1.5-6.1-0.9
		c-2,0.6-4.1,0.9-6.3,1.4c1.5,1,3.2,1,4.1,2.6c-1.1-0.1-2.3-0.4-3.3-0.8c-2-1-4-1.5-6.3-0.9c-2.9,0.7-5.8,1.1-8.7,1.6
		c0,0.1,0,0.2,0,0.3c1.1,0.5,2.3,1,3.4,1.5c-0.1,0.2-0.2,0.4-0.2,0.6c-1.4-0.5-2.8-1-4.2-1.4c-0.7-0.2-1.5-0.5-2.1-0.4
		c-4,0.6-7.9,1.4-12.2,2.2c1.2,0.6,2.2,1,3.1,1.4c-0.1,0.2-0.1,0.4-0.2,0.5c-1.2-0.3-2.3-0.7-3.5-1c-0.9-0.2-1.9-0.4-2.7-0.3
		c-2.7,0.4-5.4,1-8.3,1.6c0.3,1.1,0.6,2,0.9,2.9c0.6-0.1,1.1-0.1,1.6-0.2c7-1.3,14-2.9,21-4c7.4-1.2,14.8-2,22.2-3.2
		c2.9-0.5,5.9-1.3,8.6-2.4c3-1.2,3-2.8,0.6-4.9C142.3,111.8,140.3,110.4,138.5,108.9c-0.6-0.4-1.1-0.9-1.6-1.4
		c-2.1-2.3-1.8-4.5,0.9-6.1c1.4-0.8,3.1-1.5,4.7-1.9c5.6-1.5,11.3-2.2,17-2.8c8.8-0.9,17.5-1.6,26.3-1.5c3.6,0,7.3,0.2,10.9,0.4
		c2.7,0.1,6-0.7,8.1-2.2c-3.8-0.3-7.5-0.6-11.3-0.9c0.4,1,0.6,1.6,0.9,2.2c-0.1,0.1-0.3,0.1-0.4,0.2c-0.3-0.3-0.7-0.6-0.9-1.1
		c-0.6-1.3-1.6-1.7-3-1.6c-2.1,0.1-4.3-0.1-6.4-0.2c-1.7,0-3.3,0-5.1,0c0.5,0.9,0.9,1.6,1.4,2.4c-0.2,0.1-0.3,0.2-0.5,0.3
		c-0.6-0.7-1.3-1.3-2-1.9c-0.4-0.4-0.9-0.8-1.4-0.8c-3.5,0.1-7,0.2-10.6,0.3c0.6,1,1,1.7,1.4,2.4c-0.1,0.1-0.2,0.2-0.3,0.3
		c-0.6-0.5-1.2-1-1.8-1.6c-0.7-0.7-1.5-1.1-2.5-0.8c-0.7,0.2-1.5,0-2.3,0.1c-2.1,0.2-4.3,0.4-6.7,0.7c1.2,1,2.1,1.8,3,2.6
		c-0.1,0.1-0.2,0.3-0.3,0.4c-1-0.7-2-1.4-3-2c-0.6-0.4-1.4-0.8-2-0.7c-3.3,0.4-6.5,1-10,1.6c0.9,1.3,2.6,1.5,3.1,3
		c-1-0.2-1.9-0.5-2.6-1.1c-1.7-1.4-3.3-1.2-5-0.2c-0.7,0.4-1.4,0.8-2.1,1.2c-1.3,0.9-2.4,2-2.7,3.7c0.7,0.4,1.3,0.7,1.9,1.1
		c0,0.1,0,0.2-0.1,0.2c-0.6,0-1.3,0-1.9,0c0.3,3.4,2.2,5.4,5.4,5.6C137.5,108.9,138,108.9,138.5,108.9z M71.4,141.5
		c-0.6,0.1-0.9,0.1-1.2,0.2c-4.2,1.7-8.4,3.2-12.5,5.1c-3.6,1.7-6.7,4.2-8.8,7.7c-2.4,3.8-2.1,6.6,1.1,9.8c3,3,6.6,4.9,10.4,6.6
		c9.8,4.2,20.2,6.3,30.6,7.9c5.6,0.8,11.3,1.5,17,2c5.9,0.5,11.9,1,17.9,1.1c12.6,0.1,25.3,0.3,37.9-0.7c4.8-0.4,9.7-0.4,14.5-0.9
		c6.2-0.6,12.5-1.4,18.7-2.2c7.3-0.9,14.6-2.4,21.7-4.6c4.2-1.3,8.3-2.9,11.8-5.6c4-3.1,4.6-7.3,1.3-11.1c-1.9-2.3-4.4-4.1-6.7-6.1
		c-2.5-2.1-5.1-4.1-7.5-6.3c-1.4-1.3-2.1-3.1-1.5-5c0.4-1.3,1.3-2.6,2.3-3.6c2.8-2.7,6.4-4.2,9.8-5.8c3.6-1.7,7.3-3.4,10.8-5.3
		c1.6-0.9,3.1-2.1,4.4-3.5c1.8-1.9,1.6-3.7-0.3-5.4c-0.7-0.6-1.4-1.1-2.1-1.6c-6.8-4.6-14.5-7.1-22.3-9.1c-1.2-0.3-2.2-0.1-3.2,0.5
		c-4.6,2.4-9.2,4.7-13.7,7c-1.7,0.9-3.3,1.1-5.2,0.7c-2.8-0.6-5.6-1-8.3-1.4c-4.2-0.7-8.4-1.5-12.6-2.3c-1.1-0.2-1.7-1.4-1.9-3.1
		c-0.1-1.2,0.5-1.7,1.5-2c2.2-0.8,4.3-1.6,6.5-2.5c0.3-0.1,0.6-0.3,1-0.5c0-0.2-0.1-0.3-0.1-0.5c-3,0-5.9-0.1-8.9,0
		c-5.1,0.2-10.2,0.5-15.2,1c-5.1,0.5-10,1.5-14.8,3.4c-1.2,0.5-2.3,1.1-3.6,1.7c0.4,0.3,0.6,0.5,0.8,0.7c1.6,1.3,3.3,2.5,4.9,3.8
		c1.1,0.9,2.3,1.9,2.4,3.5c0.1,2.6,0,5.3,0.1,7.9c0,1.1-0.5,1.7-1.4,2c-0.9,0.3-1.8,0.7-2.7,0.9c-3.7,0.8-7.5,1.6-11.2,2.2
		c-10.7,1.8-21.4,3.5-32,5.4c-3.2,0.6-6.4,1.5-9.7,2.3c0.1,0.9,0.1,1.6,0.1,2.2c0.1,2.3,0.1,4.5,0.2,6.8c0,1.1-0.3,1.7-1.5,2
		c-2.3,0.6-3.4-0.1-3.9-2.8c-3.1,0.7-6.2,1.3-9.3,2c0,1,0,1.9,0,2.8c0,0.4-0.1,1-0.4,1.2c-1.2,0.8-2.5,0.8-3.8,0.4
		c-1.2-0.4-1.2-1.4-1.2-2.4C71.4,146,71.4,143.9,71.4,141.5z M169.6,183c0.5,3.4,1.8,6.5,1.7,9.8c-1.9-2.9-1.7-6.5-3.3-9.7
		c-6.8,0.3-13.7,0.6-20.5,0.9c-1.4,3.2-1.1,7-2.9,10.1c-0.5-3.4,0.9-6.7,1.2-10.1c-7.2,0-14.1,0-21.2,0c-0.3,0.6-0.6,1.2-0.9,1.8
		c-1.1,2.2-2.3,4.3-3.5,6.5c-0.3,0.5-0.8,0.9-1.3,1.3c-0.2-0.1-0.3-0.2-0.5-0.4c1.4-3,2.8-6,4.3-9.2c-2.1-0.2-4.1-0.3-6.1-0.4
		c-5.5-0.5-11-0.9-16.5-1.4c-1-0.1-1.6,0.1-2.2,1c-1.3,1.9-2.7,3.8-4.2,5.6c-0.8,1-1.8,1.8-2.6,2.7c-0.2-0.1-0.3-0.3-0.5-0.4
		c2.1-3,4.2-6,6.4-9.1c-0.8-0.1-1.4-0.1-2-0.2c-5.7-1-11.5-2-17.2-3c-0.9-0.2-1.4,0-2,0.6c-1.4,1.4-2.8,2.9-4.3,4.3
		c-0.8,0.8-1.8,1.4-2.7,2.1c-0.1-0.1-0.2-0.3-0.3-0.4c2.1-2.3,4.2-4.7,6.4-7.1c-0.6-0.2-1-0.3-1.3-0.4c-4.8-1.6-9.5-3.1-14.2-4.8
		c-1.2-0.4-2-0.4-3,0.2c-2.8,1.6-5.6,3.1-8.4,4.6c-0.5,0.3-1.1,0.5-1.6,0.7c-0.1-0.1-0.1-0.3-0.2-0.4c3-2.6,6.6-4.4,10-6.5
		c-0.2-0.2-0.3-0.3-0.4-0.3c-3.3-1.9-6.4-3.9-8.8-6.9c-0.3-0.4-1.1-0.6-1.6-0.6c-2.2,0.1-4.4,0.4-6.6,0.6c-1.7,0.1-3.3,0-5,0
		c0-0.1,0-0.2-0.1-0.3c3.9-0.7,7.8-1.4,11.8-2c-0.9-2.3-1.4-4.5-0.9-6.9c0.7-3.1,2.3-5.7,4.4-7.9c2.9-3.2,6.4-5.6,10.2-7.7
		c3.5-1.9,7.2-3.6,10.9-5.4c-0.1-0.5-0.2-1.4-0.5-1.6c-1.2-0.6-2.6-1.3-3.9-1.1c-1.7,0.2-3.2,1.1-5,1.7c1.8,0.8,3.4,1.5,4.9,2.2
		c-0.1,0.2-0.2,0.4-0.2,0.6c-1.6-0.5-3.3-0.9-4.9-1.5c-0.8-0.3-1.3-0.3-2,0.4c-1.2,1.2-2.8,1.9-4.4,1.7c-2.4-0.3-4.2,1.1-6.4,2
		c2.3,0.8,4.3,1.6,6.3,2.3c0,0.2-0.1,0.3-0.1,0.5c-0.3,0-0.6,0.1-0.8,0c-2.1-0.5-4.3-1-6.4-1.5c-0.4-0.1-1-0.1-1.4,0.1
		c-4.3,2.3-8.1,5.1-11,9c-0.3,0.4-0.5,0.8-0.7,1.3c3.6,0.9,7.3,1,10.7,2.4c-2,0-3.9-0.2-5.8-0.4c-1.9-0.2-3.8-0.5-5.7-0.7
		c-1.9,4.3-1.7,10.4,0.4,14.5c4,7.6,10.3,12.7,18.1,16.1c12.8,5.6,26.4,8.3,40.2,10.2c6.5,0.9,13,1.5,19.5,2
		c6.9,0.5,13.8,0.9,20.7,1.1c12,0.2,24,0.2,36-0.7c5.6-0.4,11.3-0.7,16.9-1.3c6.5-0.7,13-1.5,19.4-2.6c6.9-1.2,13.8-2.5,20.6-4.2
		c6.3-1.6,12.3-4,17.6-7.9c2.9-2.1,5.2-4.7,6.2-8.3c0.7-2.6,0.6-5.1-0.9-7.4c-0.3-0.5-1.1-1.1-1.7-1.2c-2.2-0.3-4.4-0.5-6.6-0.7
		c-0.7-0.1-1.4-0.3-2.1-0.4c0-0.1,0-0.2,0.1-0.3c2.9,0,5.7,0,8.8,0c-0.9-1-1.6-2-2.4-2.8c-2.9-2.8-5.8-5.7-10.4-4.8
		c-0.1,0-0.3,0-0.4,0c-0.4-0.1-0.8-0.3-1.2-0.4c0-0.1,0.1-0.2,0.1-0.3c1.3-0.2,2.5-0.4,4.1-0.7c-2.5-1.6-4.2-3.5-5.1-6
		c-1.5,0.1-2.9,0.3-4.2,0.3c-1.3,0-2.6,0.3-3.9-0.2c0-0.2,0-0.3,0-0.5c2.6-0.2,5.1-0.4,7.4-0.6c0.6-1.9,1.2-3.6,1.8-5.4
		c-2.9-0.7-6.3-0.5-9.4-1.7c0.5-0.2,1-0.3,1.4-0.3c2.3,0.2,4.6,0.3,6.9,0.6c1.7,0.2,3.1,0.1,4.7-0.8c1.8-1.1,3.8-1.9,5.7-2.8
		c1.2-0.6,2.5-1,3.9-1.6c-2.3-1-4.8-1.1-6.5-2.8c2,0.2,4.1,0.4,5.8,1.2c2.4,1,4.2,0.4,6.1-0.9c0.9-0.6,1.9-1.3,2.7-2
		c0.7-0.6,1.2-1.3,1.9-2.1c-2.9-0.6-5.4-1.1-8-1.6c0-0.2,0.1-0.4,0.1-0.5c1.4-0.6,2.9,0,4.3,0.2c1.5,0.2,3,0.3,4.4,0.5
		c1.3-3.2,1.3-6.3,0.2-9.4c-2.8-0.1-5.5,1.3-8.2,0.5c0-0.2-0.1-0.4-0.1-0.6c2.5-0.5,5-0.9,7.7-1.4c-1.5-3.2-3.8-5.4-6.7-7.2
		c-0.5-0.3-1.3-0.2-1.9,0c-1.4,0.3-2.8,0.7-4.2,1.1c-0.1-0.2-0.1-0.3-0.2-0.5c0.9-1.4,2.8-1.1,4.2-2.1c-2.1-0.9-4-1.8-5.9-2.7
		c-2.1-1-4.1,0.6-6.1,0.5c0-0.1-0.1-0.2-0.1-0.4c0.9-0.4,1.8-0.8,2.9-1.3c-2.2-0.9-4.1-1.6-6.1-2.4c-1.4,0.7-2.8,1.4-4.2,2.2
		c2.5,1,5,1.8,7.3,2.8c3.8,1.7,7.4,3.7,10,7.2c1.9,2.5,3.1,5.4,2.8,8.6c-0.2,2.6-1.7,4.5-3.7,6.1c-3.9,2.9-8.3,4.8-12.6,6.7
		c-3.6,1.6-7.2,3-10.2,5.6c-2.8,2.3-2.9,4.5-0.3,7c1.8,1.7,3.8,3.1,5.7,4.6c2.6,2.2,5.4,4.3,7.7,6.9c3.9,4.3,3.4,9.7-0.9,13.5
		c-0.4,0.3-0.8,0.5-1.3,0.8c3.8,2.4,7.2,4.5,10.6,6.6c-0.1,0.2-0.2,0.3-0.2,0.5c-0.4-0.2-0.9-0.3-1.3-0.5c-3-1.6-6-3.2-8.9-4.8
		c-0.8-0.5-1.4-0.5-2.2,0c-3.6,2.1-7.5,3.5-11.5,4.6c-1.5,0.4-3,0.9-4.7,1.3c3,2.8,5.8,5.4,8.6,8.1c-0.1,0.2-0.2,0.3-0.4,0.5
		c-0.6-0.4-1.4-0.7-1.9-1.2c-2.3-1.9-4.5-3.9-6.7-5.8c-1-0.8-1.9-1.1-3.2-0.8c-3.9,0.8-7.9,1.4-11.8,2.1c-3,0.5-6,0.9-9.1,1.3
		c1.4,3.2,3.2,6.2,3.7,9.6c-0.6-0.5-1.1-1.2-1.4-1.8c-1-2-2-4-2.9-6.1c-0.6-1.3-1.5-1.6-2.8-1.5c-2.9,0.3-5.8,0.5-8.6,0.8
		C174.2,182.6,172.1,182.8,169.6,183z M177.2,105.8c0,0.1,0,0.2,0.1,0.3c5.7,1,11.4,2.1,17.2,3c2.1,0.3,4,0.9,6.2-0.2
		c11.4-5.6,22.9-11.1,34.3-16.6c1.4-0.7,2.7-1.3,4.4-2.1c-0.7-0.2-1.1-0.4-1.4-0.4c-3.5-0.4-7-0.7-10.4-1.2
		c-1.3-0.2-2.4-0.2-3.6,0.2c-11.7,4.3-23.5,8.6-35.2,12.9C184.8,103.1,181,104.5,177.2,105.8z M75,149.5c0.1-0.2,0.2-0.4,0.2-0.5
		c0.3-7.7-0.4-15.3-3.4-22.5c-1-2.3-2.4-4.4-4-6.3c-2-2.3-5.1-2.5-7.3-0.7c-3.2,2.6-4.9,6.3-6.2,10.1c-0.3,0.8,0,1.5,0.7,1.4
		c1.4-2.5,2.4-4.8,3.9-6.9c1.1-1.6,2.8-2.4,4.9-2.3c2.6,0.2,4.1,1.8,5.2,3.8c2,3.3,2.8,6.9,3.3,10.7c0.5,3.8,0.8,7.7,1,11.6
		C73.4,149.3,73.7,149.8,75,149.5z M71.6,123.2c0.8-1.2,1.3-2,1.9-2.7c2.5-2.9,6-3.1,8.6-0.3c0.6,0.6,1.1,1.2,1.4,2
		c1.1,2.5,2,5.1,3,7.7c0.4,1,0.4,2,1.4,2.7c0.7,0.5,1.1,1.4,0.5,2.3c-1.3,1.9-1,3.8-0.1,5.8c0.3,0.7,0.2,1.6,0.1,2.5
		c-0.1,0.7-0.4,1.5-0.5,2.2c1.6,0.6,1.7-0.2,1.7-1.1c0-6.2-0.3-12.4-2.1-18.4c-1.1-3.8-2.5-7.4-5.8-9.9c-2-1.5-4-1.6-6.1-0.3
		c-2.1,1.3-3.4,3.4-4.4,5.5C71.2,121.5,71.5,122.2,71.6,123.2z M84.7,129.4c-0.4-1.1-0.7-2-1-3.1c-3.1,0.7-6.1,1.4-9.3,2.1
		c0.4,1.3,0.8,2.5,1.2,3.7C78.7,131.1,81.6,130.3,84.7,129.4z M66.5,126.3c-1.4-2.3-3.6-2.6-5.5-0.7c-1.3,1.3-2.2,3-2.8,5.2
		C61.3,129.4,64.7,129.4,66.5,126.3z M76.9,142.3c3.1-0.8,6.1-1.5,9.2-2.2c0-0.9,0-1.8,0-2.9c-3.3,0.9-6.4,1.7-9.6,2.5
		C76.7,140.7,76.8,141.4,76.9,142.3z M82.2,123.8c-0.4-0.7-0.6-1.1-0.9-1.5c-0.2-0.4-0.5-0.7-0.8-1c-1.1-1.1-2-1.2-3.4-0.3
		c-1.6,1.1-2.7,2.6-3.5,4.8C76.6,125.1,79.3,124.5,82.2,123.8z M76.1,137.2c3.5-0.8,6.7-1.5,10-2.2c1.2-0.2,1.2-0.8,0.9-1.9
		c-3.7,0.8-7.3,1.7-11,2.5C76.1,136.1,76.1,136.6,76.1,137.2z M177.1,107.6c0,0.2-0.1,0.4-0.1,0.6c6.9,1.2,13.7,2.4,20.7,3.7
		c-0.1-0.3-0.1-0.6-0.2-0.6C190.6,110,183.9,108.8,177.1,107.6z M87.8,141.6c-0.1-0.2-0.3-0.4-0.4-0.6c-3.3,0.8-6.5,1.6-9.8,2.4
		c-0.3,0.1-0.5,0.7-0.8,1c3.6-0.4,6.9-1.1,10.1-1.9C87.2,142.4,87.5,141.9,87.8,141.6z M236.5,95.5c1,1,1.8,1.8,2.6,2.4
		c1,0.7,1.8,0.3,1.9-0.8c0.1-1.1-0.1-2.2-0.2-3.7C239.1,94.2,238,94.7,236.5,95.5z M161.6,99.4c0,0,0,0.1,0,0.1c6.6,0,13.2,0,19.9,0
		c0-0.2,0-0.3,0-0.5C174.8,99.1,168.2,99.3,161.6,99.4z M52.7,131.5c-0.6,1.3-0.6,1.5,0.3,2c1.5,0.8,3.1,0.5,4.2-1.2
		C55.2,133.5,53.9,132.3,52.7,131.5z M55.8,144.2c-0.1,0-0.1,0.1-0.2,0.1c0.2,0.2,0.3,0.5,0.5,0.7c0.1,0,0.1-0.1,0.2-0.1
		C56.1,144.7,55.9,144.4,55.8,144.2z"/>
	<path d="M236.5,95.5c1.5-0.7,2.7-1.3,4.3-2.1c0.1,1.5,0.3,2.6,0.2,3.7c-0.1,1.1-0.9,1.5-1.9,0.8C238.2,97.2,237.5,96.4,236.5,95.5z
		"/>
	<path d="M148.1,148c-5.2,1.2-10.3,0.9-15.3-1c-1.3-0.5-2.3-0.5-3.6,0c-2.4,1.1-4.9,1.8-7.6,1.8c-0.2,0-0.4-0.1-1-0.2
		c3.5-1.3,6.6-2.5,9.7-3.6c0.5-0.2,1.1,0,1.6,0.1c2.9,0.7,5.8,1.5,8.7,2c2,0.4,4,0.4,6,0.6C147.2,147.9,147.6,147.9,148.1,148z"/>
	<path d="M155.4,157.4c2.3-0.7,4.7-1.1,6.9-2c2.4-1,4.5-0.7,6.9,0.3c2.9,1.2,6.1,1.6,9.2,2.4c0.5,0.1,1,0.2,1.5,0.5
		c-2.2,1-4.5,0.6-6.6,0.2c-2.3-0.5-4.5-1.5-6.6-2.4c-0.8-0.4-1.5-0.4-2.3-0.1c-2.5,1-5.1,1.6-7.8,1.6c-0.4,0-0.7-0.1-1.1-0.1
		C155.4,157.6,155.4,157.5,155.4,157.4z"/>
	<path d="M92.4,166.6c3-0.8,5.9-1.8,8.9-2.5c1.2-0.3,2.5,0.2,3.7,0.3c3.6,0.4,7.1,0.8,10.6,1.2c0.1,0,0.3,0.2,0.8,0.6
		c-1.4,0.2-2.5,0.6-3.5,0.6c-3.1-0.2-6.2-0.5-9.3-0.9c-1.7-0.2-3.3-0.3-5,0.4c-2,0.8-4,1.2-6.2,0.8
		C92.5,166.9,92.5,166.8,92.4,166.6z"/>
	<path d="M172.3,139.1c-1.5,1.5-3.4,1.5-5.1,1.5c-3,0-6-0.3-9-0.8c-1-0.1-1.8-0.2-2.7,0.2c-2.2,1-4.5,1.4-7,1.1
		c0.4-0.2,0.8-0.4,1.2-0.6c1.6-0.6,3.3-1.1,4.9-1.8c1.3-0.6,2.6-0.7,4-0.5c3.9,0.4,7.7,0.5,11.6,0.8
		C170.9,139.2,171.6,139.1,172.3,139.1z"/>
	<path d="M210.8,154.7c-0.9,0.1-1.9,0.4-2.8,0.3c-1.9-0.2-3.7-0.6-5.5-1.1c-1.1-0.3-2-0.3-3,0.2c-2.1,1.1-4.4,1.3-6.9,0.4
		c0.7-0.2,1.4-0.4,2.2-0.6c1.2-0.3,2.5-0.5,3.6-1.1c1.8-1,3.5-0.8,5.4-0.3c1.9,0.5,3.8,0.6,5.7,0.9c0.5,0.1,1,0.3,1.4,0.5
		C210.8,154.2,210.8,154.5,210.8,154.7z"/>
	<path d="M223.3,124.7c-1.9,0.7-3.8,0-5.6-0.2c-0.2,0-0.3-0.1-0.5-0.2c-2.3-0.6-4.5-1.2-6.9,0.1c-1.6,0.8-3.6,0.9-5.4-0.2
		c0.3-0.1,0.6-0.1,0.9-0.2c1.8-0.5,3.7-0.7,5.4-1.4c1.3-0.5,2.4-0.8,3.7-0.5c2.1,0.5,4.3,0.8,6.4,1.2c0.7,0.1,1.4,0.5,2.1,0.7
		C223.4,124.3,223.3,124.5,223.3,124.7z"/>
	<path d="M200.7,131.3c-1.9,0.4-3.5,0.1-5.1-0.1c-2-0.3-3.9-0.9-5.8-1.2c-0.8-0.1-1.7,0-2.5,0.3c-1.8,0.5-3.5,1.2-5.3,1.7
		c-0.7,0.2-1.5,0.1-2.3,0.1c0-0.1-0.1-0.3-0.1-0.4c2.9-1.1,5.8-2.2,8.7-3.2c0.3-0.1,0.7-0.1,1.1,0
		C192.9,129.4,196.6,130.3,200.7,131.3z"/>
	<path d="M121,162.3c0.6-0.2,1.3-0.4,1.9-0.5c0.4-0.1,0.9-0.2,1.3-0.3c1.7-0.5,3.5-1.5,5.2-1.5c1.7,0,3.4,1.1,5.1,1.7
		c0.9,0.3,1.8,0.5,2.7,0.9c-2.5,1.1-4.9,0.7-7.1-0.5c-1-0.5-1.7-0.5-2.6-0.2C125.3,162.7,123.2,162.9,121,162.3z"/>
	<path d="M195.6,163.9c-0.6,0.2-1.1,0.6-1.7,0.7c-2.2,0.2-4.4,0-6.4-1.1c-0.6-0.3-1.4-0.2-2.1-0.1c-1.7,0.4-3.4,0.9-5.1,1.3
		c-0.6,0.1-1.2-0.1-1.8-0.1c0-0.1,0-0.3-0.1-0.4c2.6-0.8,5.2-1.7,7.9-2.3c0.9-0.2,1.9,0.5,2.8,0.7c2.1,0.4,4.2,0.6,6.2,0.9
		C195.5,163.6,195.6,163.7,195.6,163.9z"/>
	<path d="M71.4,156.2c2.8,0.3,5.1-0.3,7.4-1.3c0.5-0.2,1.1-0.3,1.6-0.2c3.1,0.4,6.2,0.8,9.5,1.3c-2,1.1-4,1.1-5.7,0.6
		c-3.3-0.8-6.4-0.1-9.5,0.7C73.6,157.5,72.5,157.4,71.4,156.2z"/>
	<path d="M159.7,120.5c0.5-0.2,0.8-0.4,1.1-0.6c1.1-0.4,2.2-0.6,3.2-1.1c1.4-0.6,2.7-0.9,4.3-0.6c2.6,0.6,5.3,0.8,8,1.2
		c0.4,0.1,0.8,0.2,1.2,0.7c-0.5,0.1-1,0.3-1.5,0.3c-2.8,0.3-5.5,0.2-8.1-0.9c-1.1-0.4-2-0.4-3,0
		C161.7,120.9,161.7,120.9,159.7,120.5z"/>
</g>
<path d="M145.5,31.8c0,0,0.4-0.4,1-1c0.7-0.7,1.7-1.6,3-2.8c2.7-2.3,6.8-5.4,12.4-8.1c2.8-1.3,6-2.5,9.7-2.9
	c3.6-0.4,7.8-0.1,11.4,1.8c3.7,1.9,6.7,5.1,8.7,8.8c2.1,3.6,3.4,7.6,4.3,11.6c0.9,4,1.5,8.1,1.8,12.1c0.4,4,0.5,7.9,0.6,11.7
	c0,3.8,0,7.5-0.2,10.9c-0.1,1.7-0.1,3.4-0.2,5.1c-0.1,1.6-0.2,3.2-0.3,4.7c-0.2,3-0.5,5.8-0.7,8.2c-0.3,2.4-0.5,4.6-0.7,6.3
	c-0.4,3.5-0.7,5.5-0.7,5.5s0.2-2,0.5-5.5c0.1-1.8,0.3-3.9,0.5-6.4c0.1-2.5,0.4-5.2,0.5-8.2c0.1-1.5,0.1-3.1,0.2-4.7
	c0.1-1.6,0.1-3.3,0.1-5c0.1-3.5,0-7.1-0.2-10.9c-0.2-3.8-0.5-7.7-1-11.6c-0.5-3.9-1.3-7.8-2.4-11.7c-1.1-3.8-2.6-7.5-4.5-10.7
	c-2-3.2-4.5-5.9-7.6-7.5c-3.1-1.6-6.5-2-9.8-1.7c-3.3,0.3-6.3,1.2-9.1,2.2c-2.8,1.1-5.2,2.3-7.4,3.4c-2.1,1.2-4,2.3-5.4,3.3
	C147.1,30.6,145.5,31.8,145.5,31.8z"/>
<path d="M145.5,19.4c0,0,0.2-0.2,0.6-0.6c0.4-0.4,1-1,1.9-1.7c0.8-0.7,1.8-1.6,3.1-2.5c1.2-0.9,2.7-1.9,4.3-2.8
	c1.6-1,3.4-1.9,5.4-2.8c1-0.4,2.1-0.8,3.1-1.2c0.5-0.2,1.1-0.3,1.7-0.5c0.6-0.2,1.1-0.3,1.7-0.4c2.3-0.6,4.9-0.8,7.5-0.8
	c2.6,0,5.2,0.6,7.7,1.6c2.5,0.9,4.7,2.5,6.7,4.1c1.9,1.8,3.6,3.7,4.9,5.7c0.7,1,1.3,2,1.8,3c0.3,0.5,0.5,1,0.8,1.5
	c0.3,0.5,0.5,1,0.7,1.5c0.4,1,0.8,2,1.2,2.9c0.3,1,0.6,1.9,0.9,2.8c0.6,1.8,0.9,3.5,1.2,5c0.4,1.5,0.5,2.8,0.7,3.9
	c0.3,2.2,0.4,3.4,0.4,3.4s-0.4-1.2-1.1-3.2c-0.2-0.5-0.3-1.1-0.5-1.7c-0.2-0.6-0.5-1.3-0.7-2c-0.5-1.4-1.1-3-1.8-4.7
	c-0.4-0.8-0.7-1.7-1.1-2.6c-0.5-0.9-0.9-1.8-1.4-2.7c-0.2-0.5-0.5-0.9-0.8-1.4c-0.3-0.5-0.6-0.9-0.8-1.4c-0.5-0.9-1.2-1.8-1.9-2.7
	c-1.3-1.8-2.9-3.4-4.6-4.9c-1.8-1.4-3.7-2.7-5.8-3.4c-2.1-0.8-4.3-1.3-6.6-1.4c-0.6-0.1-1.1,0-1.7,0c-0.6,0-1.1,0-1.7,0.1
	c-0.6,0-1.1,0.1-1.7,0.1c-0.6,0.1-1.1,0.2-1.6,0.3c-2.2,0.4-4.3,0.9-6.2,1.6c-2,0.6-3.8,1.4-5.4,2.1c-1.7,0.7-3.2,1.5-4.5,2.2
	c-1.3,0.7-2.5,1.3-3.4,1.9c-0.9,0.5-1.7,1-2.2,1.3C145.7,19.2,145.5,19.4,145.5,19.4z"/>
<path d="M160.4,38.5c0,0,0.1-0.2,0.4-0.5c0.2-0.3,0.6-0.8,1.1-1.4c0.5-0.6,1.2-1.2,2-2c0.8-0.7,1.7-1.5,2.9-2.2
	c1.1-0.7,2.4-1.5,3.9-2c1.5-0.6,3.1-1,4.9-1c1.8,0,3.7,0.4,5.3,1.3c1.7,0.8,3.1,2.1,4.3,3.5l0.9,1.1c0.3,0.4,0.5,0.8,0.7,1.1
	c0.5,0.8,0.9,1.6,1.3,2.3c0.4,0.8,0.7,1.6,1,2.4c0.3,0.8,0.6,1.6,0.8,2.4c0.5,1.6,0.9,3.1,1.2,4.6c0.3,1.5,0.5,2.9,0.7,4.2
	c0.1,1.3,0.3,2.5,0.4,3.5c0.1,1.1,0.1,2,0.2,2.7c0.1,1.5,0.1,2.4,0.1,2.4s-0.2-0.8-0.5-2.3c-0.2-0.7-0.3-1.6-0.5-2.7
	c-0.2-1-0.5-2.2-0.8-3.4c-0.3-1.2-0.7-2.6-1.1-4c-0.5-1.4-0.9-2.9-1.5-4.4c-0.3-0.7-0.6-1.5-0.9-2.2c-0.4-0.7-0.6-1.5-1.1-2.2
	c-0.4-0.7-0.8-1.5-1.3-2.1l-0.7-1l-0.8-0.9c-1.1-1.2-2.3-2.3-3.6-2.9c-1.4-0.7-2.8-1-4.3-1c-1.5,0-2.9,0.3-4.2,0.7
	c-1.3,0.4-2.6,0.9-3.7,1.5c-1.1,0.6-2.1,1.1-3,1.7c-0.9,0.5-1.6,1-2.3,1.5C161.1,37.9,160.4,38.5,160.4,38.5z"/>
</svg>
