<?xml version="1.0" encoding="utf-8"?>
<!-- Generator: Adobe Illustrator 17.1.0, SVG Export Plug-In . SVG Version: 6.00 Build 0)  -->
<!DOCTYPE svg PUBLIC "-//W3C//DTD SVG 1.1//EN" "http://www.w3.org/Graphics/SVG/1.1/DTD/svg11.dtd">
<svg version="1.1" id="Layer_1" xmlns="http://www.w3.org/2000/svg" xmlns:xlink="http://www.w3.org/1999/xlink" x="0px" y="0px"
	 viewBox="0 0 288 216" enable-background="new 0 0 288 216" xml:space="preserve">
<g>
	<path d="M94.1,93.3c0.6-0.2,1.2-0.4,1.8-0.5c2.9-0.4,5.8-0.8,8.7-1.2c0.7-0.1,1-0.4,1-1.1c0-3.5,1.5-6.6,3.1-9.6
		c0.1-0.2,0.2-0.4,0.3-0.6c0.6-3.8,2.7-6.9,5-9.9c0.6-0.7,1.1-1.5,1.6-2.3c1.9-3.2,4.7-5.6,7.9-7.6c0.3-0.2,0.6-0.5,1-0.7
		c0.1-0.1,0.2-0.2,0.4-0.3c-0.6-0.8-1.1-1.5-1.8-2.3c-0.6-0.6-1.2-0.9-2.1-0.6c-1.4,0.4-2.8,0.6-4.3,0.9c-0.3,0.1-0.6,0.1-0.9,0.1
		c0-0.1-0.1-0.2-0.1-0.3c0.3-0.2,0.5-0.4,0.9-0.5c1.5-0.4,3.1-0.8,4.6-1.2c-0.5-2.1-1.3-3.1-3.3-2.6c-1.6,0.4-3.2,0.5-4.8,0.8
		c-0.3,0-0.7,0-1-0.1c1.8-1.2,3.9-1.4,6-1.8c-0.3-0.9-0.6-1.8-1-2.6c-0.1-0.2-0.5-0.4-0.8-0.4c-2.1,0.1-4.3,0.3-6.4,0.4
		c-0.4,0-0.9,0-1.3-0.1c2.5-1.4,5.3-1.1,8.1-1.5c0.2-0.8,0-1.4-0.6-1.9c-0.2-0.2-0.4-0.7-0.4-1c0.2-1.6,0.5-3.3,0.7-4.9
		c0.1-0.9,0-1.9,0.3-2.8c0.3-1.2,0.9-2.4,1.4-3.6c0.3-0.6,0.8-1.1,1.1-1.7c0.3-0.9,0.6-1.8,0.6-2.7c0-5.7,0.1-11.3,1.3-16.9
		c0.3-1.5,1-2.9,1.5-4.4c0.1-0.3,0.6-0.5,1-0.5c1.7-0.2,3.3,0.3,4.6,1.3c3.4,2.3,6.6,4.7,9.3,7.9c0.6,0.7,1.2,1.4,1.8,2
		c0.2,0.2,0.6,0.3,1,0.3c3,0,5.9-0.1,8.9-0.1c1.9,0,3.7,0.2,5.6,0.2c0.5,0,1.1-0.1,1.5-0.4c2.4-1.6,4.6-3.4,7.1-4.7
		c2.5-1.4,5.1-2.6,7.8-3.3c3-0.8,4.4,0.7,5.1,4c0.7,3.4-0.1,6.6-0.4,9.9c-0.3,2.3-0.6,4.5-1.5,6.6c-0.2,0.5-0.1,1.2,0.1,1.8
		c0.6,2.2,1.5,4.4,2,6.6c0.6,2.5,0.3,5.1-0.2,7.6c-0.2,0.8,0.1,1,0.8,1c1.2,0.1,2.5,0.2,3.7,0.3c0.5,0.1,0.9,0.2,1.3,0.4
		c0,0.1,0,0.3,0,0.4c-0.7,0.1-1.3,0.3-2,0.3c-1.2,0-2.5-0.1-3.7-0.1c-0.3,0-0.6,0.3-0.8,0.5c-0.2,0.1-0.4,0.3-0.6,0.5
		c-0.1,0.1-0.3,0.3-0.4,0.4c0.2,0.1,0.4,0.3,0.6,0.3c1.3,0.1,2.6,0.1,3.9,0.2c1.9,0.2,3.8,0.6,5.6,1c0.1,0,0.2,0.1,0.3,0.4
		c-1.2-0.1-2.5-0.1-3.7-0.2c-2.2-0.1-4.3-0.2-6.5-0.3c-0.2,0-0.6,0.3-0.7,0.5c-0.3,0.4-0.5,0.8-0.7,1.4c3.8,0.6,7.7,0.6,11.2,2.4
		c-1.5-0.1-3-0.3-4.4-0.4c-2.1-0.2-4.2-0.4-6.3-0.7c-0.7-0.1-1.3,0.1-1.7,0.7c-0.2,0.2-0.4,0.4-0.5,0.6c-1,1.9-2.5,3.5-4.4,4.5
		c-0.7,0.3-0.7,0.9-0.5,1.6c1.1,3.2,2.3,6.2,3.9,9.2c1.5,2.6,2.4,5.5,3.6,8.3c1.4,3.5,2.7,7,4.1,10.5c0.1,0.4,0.6,0.7,1,0.8
		c1.6,0.6,3.2,1.1,4.8,1.6c5.3,1.6,10.3,3.7,15.1,6.3c1.2,0.7,2.5,1.3,3.7,2c0.4,0.2,0.7,0.3,1-0.2c0.2-0.3,0.6-0.6,0.9-0.8
		c0.7,0.7,1.4,1.4,2.1,2.1c-0.1,1.1-0.3,2.1-0.4,3.2c0,0-0.1,0-0.1,0c0-0.9,0-1.8,0-2.8c-1,0.8-1.8,7.4-1.4,11.1
		c0.3-1.7,0.6-3.4,0.8-5.1c0.1-0.4,0.2-0.9,0.3-1.3c0.3,0.4,0.5,0.7,0.8,1.1c0-0.1,0.2-0.4,0.3-0.7c0.4,0.9,0.7,1.8,0.7,2.7
		c0,1-0.2,1.9-0.3,3.1c1.3-2.5,1.4-5.2,2.1-7.8c0.2,3.4-0.4,6.7-1.2,10c0.3-0.8,0.7-1.7,1-2.5c0.3-0.3,0.6-0.5,0.9-0.8
		c0,0.4,0,0.9-0.1,1.3c0.4-0.6,0.7-1.2,1-1.8c0.3-0.5,0.7-1.1,1-1.6c0.1,0,0.1,0.1,0.2,0.1c0,0.3,0.1,0.6,0.1,1.1
		c2.4-2.5,4.6-4.9,6.8-7.2c0.1,0.1,0.2,0.1,0.3,0.2c-0.2,0.4-0.4,0.9-0.7,1.3c-1.3,1.4-2.7,2.8-4,4.3c-0.4,0.4-0.7,1-1.1,1.5
		c0,0,0.1,0.1,0.1,0.1c0.4-0.3,0.8-0.7,1.3-1c0.1,0.1,0.3,0.3,0.4,0.4c0.2,0.2,0.4,0.4,0.5,0.5c0.8,0.8,1.6,1.6,2.4,2.4
		c-0.1,0.2-0.1,0.4-0.3,0.6c-1.8,1.9-1.9,4.3-2.4,6.7c-0.5,3.2,0.2,6.2,1,9.2c0.7,2.5,0.7,4.9,0.1,7.3c-0.5,2.1-1,4.2-1.5,6.3
		c-0.1,0.5-0.3,1-0.6,1.4c-0.5,0.8-1,1.6-0.6,2.7c0.2,0.5-0.1,1.2-0.4,1.8c-1.2,2.5-2.4,4.9-4.7,6.6c-1.9,1.4-4,2.7-5.9,4.1
		c-0.5,0.3-0.9,0.9-1.3,1.2c-0.5,0.4-1,0.9-1.5,1c-2.6,0.6-5.2,1.3-7.8,1.6c-2,0.2-4.1-0.1-6.1-0.5c-2-0.4-4.2-0.9-6-1.9
		c-1.9-1-3.4-2.7-5.1-4.1c-0.4-0.3-0.7-0.6-1.1-1c-0.2,0.4-0.4,0.8-0.4,1.1c-0.7,3.9-2.5,7.4-3.8,11.1c-1.3,3.6-2.7,7.2-3.9,10.9
		c-0.5,1.5-0.4,3.1-0.6,4.7c-0.6,5.4-1.1,10.7-1.7,16.1c-0.1,1.3-0.4,2.5-0.8,3.7c-0.6,1.6-1.9,2.7-3.4,3.5c-1.2,0.6-2.5,1-3.8,0.5
		c-0.2-0.1-0.4-0.1-0.6,0c-2.1,0.8-4.1,0.6-6-0.6c-0.5-0.3-1.2-0.5-1.8-0.6c-1.7-0.3-3.5-2-3.5-4.4c0-3,1.6-5,3.9-6.6
		c0.1-0.1,0.2-0.1,0.3-0.1c1.6-0.1,1.9-1.1,2.3-2.5c0.9-3.8,1.7-7.6,1.5-11.4c-0.2-3.3-0.6-6.6-1.1-9.9c-0.2-1.3-0.8-2.8-1.7-3.7
		c-1.2-1.2-2.3-2.5-3.4-3.8c-1.7-2-3.9-3.6-4.9-6.2c-0.1-0.2-0.2-0.3-0.5-0.6c-0.3,1.3-0.7,2.4-0.9,3.6c-0.3,2.2-0.3,4.3,0.8,6.3
		c2,3.5,1.3,7,0.5,10.6c-1.4,6-3.6,11.8-5.9,17.5c-1.2,3.1-2.7,6.1-5,8.6c-1.7,1.9-3.8,2.9-6.5,2.7c-1.3-0.1-2.5-0.1-3.8,0.1
		c-1.6,0.2-2.9-0.2-4.2-1.1c-0.5-0.3-1.1-0.4-1.7-0.7c-0.4-0.2-0.9-0.3-1.2-0.6c-1.1-1.4-2-2.8-1.7-4.8c0.6-3.3,2.6-5.6,5.8-6.5
		c0.8-0.2,1.5-0.4,2.3-0.6c1.4-0.4,2.2-1.4,2.6-2.8c0.9-3.2,1.1-6.4,1.1-9.7c0-1.9-0.7-3.3-2.2-4.4c-1.6-1.2-2.6-2.9-3.5-4.6
		c-0.5-0.9-0.8-1.9-1.3-2.8c-0.4-0.8-1-1.4-1.4-2.2c-1.3-2.7-1.8-5.6-2.4-8.5c-0.1-0.4-0.5-0.8-0.7-1.2c-0.2-0.3-0.4-0.5-0.5-0.8
		c-0.7-3.4-0.8-6.9-0.3-10.4c0.1-0.8,0.2-1.6,0.4-2.5c0.1-0.7-0.5-0.7-0.9-0.8c-1.6-0.4-3.3-0.7-4.8-1.2c-4.4-1.4-8.8-2.8-13.1-4.4
		c-4.9-1.8-9.1-4.7-12.9-8.2c-2.1-1.9-4.2-3.9-5.7-6.4c-1.1-1.7-1.8-3.7-2.6-5.6c0.6-0.6,1.2-1.2,1.8-1.9c0.2-0.2,0.4-0.3,0.6-0.6
		c0.7,2.1,1.4,4,2.2,6.1c0.8-0.5,1.4-0.9,2.1-1.3c0.1,0.1,0.1,0.2,0.2,0.2c-0.6,0.5-1.3,1-2,1.5c0.2,0.3,0.3,0.5,0.5,0.7
		c1.7,2.6,4.1,4.6,6.3,6.7c1.8,1.6,3.7,3.2,5.9,4.1c3.2,1.3,6.4,2.7,9.7,3.8c4.2,1.4,8.4,2.7,12.6,3.8c4.8,1.2,9.7,1.9,14.6,2.2
		c3.3,0.2,6.5,0.8,9.8,0.9c6.2,0.2,12.3,0.5,18.5,0.1c5.7-0.3,11.4-0.2,17.1-1c4.9-0.7,9.9-1.2,14.7-2.6c2.6-0.8,5.2-1.3,7.7-2.3
		c2.7-1,5.2-2.4,7.8-3.6c0.6-0.3,1.2-0.8,1-1.5c-0.4-1.5-0.9-2.9-1.5-4.3c-0.5-1.2-1.2-2.3-1.8-3.5c0.1-0.1,0.1-0.1,0.2-0.2
		c0.1,0,0.4-0.1,0.4-0.1c-0.3-1-0.1-2.2-1.3-2.8c-0.2-0.1-0.4-0.3-0.5-0.5c0-0.1,0.1-0.1,0.1-0.2c0.4,0.2,0.8,0.3,1.3,0.5
		c0.1,0,0.1-0.1,0.2-0.1c-0.2-0.4-0.5-0.9-0.7-1.4c0.3,0,0.6,0.1,1,0.1c-0.1-0.5-0.1-0.9-0.2-1.3c-0.6-2.7-0.7-5.5,0.7-7.9
		c0.9-1.6,1.2-3.4,1.7-5.1c0.2-0.8,0.1-1.2-0.6-1.6c-2.9-1.5-5.7-3.2-8.6-4.7c-3.9-2-7.9-3.6-12.1-4.8c-0.3-0.1-0.6-0.1-1-0.2
		c0,0.3,0,0.5,0.1,0.7c2.3,5.3,5.5,9.7,10.7,12.4c1.2,0.6,2.4,1.5,3.4,2.5c1.1,1.1,1.9,2.5,1.8,4.1c0,0.8-0.3,1.6-0.3,2.5
		c0,1.3-0.5,2.3-1.6,2.9c-0.1,0-0.1,0.1-0.1,0.2c0.1,0.2,0.2,0.5,0.2,0.5c-0.8,0-1.5,0-2.3-0.1c-1.2-0.1-2.3,0.2-3.3,0.8
		c-0.6,0.4-1.4,0.6-2.2,0.2c-0.3-0.1-0.7,0-1.2,0c0.4,0.7,0.6,1.3,0.9,1.8c-0.6-0.5-1.1-1.1-1.7-1.6c-0.5-0.4-1.1-0.9-1.7-0.1
		c-0.7-0.4-1.3-0.8-1.9-1.1c0,0.1,0,0.1-0.1,0.2c0.6,1,1.1,2.1,1.7,3.1c-0.1,0-0.2,0.1-0.3,0.1c-0.2-0.3-0.3-0.7-0.5-0.9
		c-0.8-1-1.5-2-2.4-2.9c-0.9-0.8-2-1.4-3-2.2c-0.5-0.4-1-0.5-1.5-0.2c-0.9,0.4-1.7,0.9-2.6,1.1c-5.3,1.8-10.8,2.7-16.3,3
		c-4.7,0.2-9.3,0-14-0.1c-1.1,0-2.3-0.2-3.4-0.2c-0.5,0-1.1,0.1-0.8,0.8c0.7,2-0.3,3.7-0.8,5.5c0,0-0.1,0-0.2,0
		c-0.1-0.3-0.1-0.6-0.2-0.8c-1.5-0.1-1,1.4-1.7,2c0-0.3,0-0.7,0-1.2c-0.4,0.1-0.8,0-0.9,0.2c-0.5,0.6-1.1,0.3-1.7,0.4
		c-4.7,0.8-8.9-1-13.3-2.2c-0.2,0-0.3-0.2-0.5-0.3c-2.8-1.7-4.8-4-6.4-6.8c-0.4-0.7-0.9-1-1.6-1.2c-1.7-0.3-3.3-0.8-4.8-1.9
		c-2.3-1.7-2.4-4.9-0.8-6.4c0.6-0.6,1.2-1.2,1.8-1.7c0.5-0.4,0.6-0.7,0.4-1.3c-0.5-1.7-1.3-3.5-1.4-5.3c-0.2-2-0.5-4-1-5.9
		c0-0.1,0-0.2,0-0.3c0.2,0.1,0.4,0.2,0.7,0.3c0-0.5,0-0.9-0.1-1.4c-3,0.4-5.9,0.8-8.8,1.2c-1,0.1-2,0.2-3.1,0.3
		C92.9,94.5,93.5,93.9,94.1,93.3z M156,52.7c-0.2-0.2-0.5-0.5-0.7-0.7c0.9-0.2,1.8-0.5,2.8-0.5c4.1-0.2,8.2-0.3,12.3-0.4
		c0.5,0,0.9-0.1,0.9-0.7c0-0.8-0.5-0.6-1-0.6c-4.9,0.6-9.8,1.2-14.7,1.8c-0.6,0.1-1,0.1-1.2-0.5c4-1.2,8.1-2,12.2-2.3
		c0.6,0,0.7-0.3,0.6-0.8c-0.1-0.5-0.2-1-0.3-1.7c1.3,0.5,0.8,1.5,1.2,2.3c1-0.1,2-0.2,3.1-0.2c-0.2-1-0.3-1.8-0.5-2.7
		c0.1,0,0.2-0.1,0.3-0.1c0.3,0.7,0.6,1.5,0.9,2.2c0.1,0,0.2-0.1,0.3-0.1c-0.3-1.7-0.6-3.3-0.9-5c0.1,0,0.2-0.1,0.2-0.1
		c0.6,1.5,1.2,3,1.8,4.5c0.1,0,0.2-0.1,0.3-0.1c0.8-3.1-0.5-5.8-1.6-8.6c0.5,0.6,1.1,1.3,1.7,2.1c-0.3-2.6-1.4-4.5-3.1-6.2
		c0.1-0.1,0.1-0.1,0.2-0.2c0.4,0.2,0.8,0.5,1.3,0.8c-0.1-0.3-0.1-0.5-0.2-0.6c-0.8-1.5-1.6-2.9-2.4-4.4c-0.2-0.4-0.3-0.8-0.5-1.2
		c-0.4-1-2.2-0.7-2.5-2c-0.5-0.4-0.7-1.2-1.1-1.5c-0.5-0.3-1.3-0.2-2.2-0.3c0.3-0.3,0.5-0.5,0.6-0.5c1.2,0.1,2.4,0.1,3.5,0.5
		c1.2,0.4,1.8,0.2,1.9-1.1c-0.2,0.1-0.4,0.1-0.6,0.2c-0.1-0.1-0.2-0.2-0.2-0.3c0.6-0.5,1.2-1.1,1.9-1.6c0,0,0,0,0,0
		c-0.4,0.3-0.8,0.6-1.2,1c0,0-0.1-0.1-0.1-0.1c0.5-0.7,1-1.3,1.4-2c-0.1,0-0.1-0.1-0.2-0.1c-0.3,0.2-0.5,0.3-1,0.6
		c0.4-1.3,0.8-2.3,1.2-3.4c-0.8,1.1-1.5,2.1-2.2,3.2c-0.7-1.7,1-2.4,1-3.7c-1.1,1.4-2.1,2.7-3.2,4.1c-0.1,0-0.1-0.1-0.2-0.1
		c0.6-1,1.3-1.9,1.9-2.9c-1.6,0.5-2.2,1.9-3.4,2.9c0.4-0.7,0.8-1.3,1.2-2c-0.1,0-0.1-0.1-0.2-0.1c-0.7,0.9-1.4,1.8-2,2.7
		c0,0-0.1,0-0.1-0.1c0.2-0.4,0.4-0.9,0.5-1.3c-0.1-0.1-0.2-0.1-0.2-0.2c-0.8,0.8-1.6,1.6-2.4,2.4c-0.2-0.1-0.4-0.3-0.8-0.5
		c0.5-0.6,0.9-1.1,1.3-1.6c1.8-2.1,4.2-3.3,6.6-4.4c1.2-0.6,2.4-1.2,3.9-1c0.6,0.1,0.8,0.3,0.8,0.8c0,0.7-0.1,1.4-0.1,2.1
		c-0.3,3.1-0.7,6.1-2,9c-0.5,1.2-0.4,1.6,0.8,2.3c0.3-1,0.7-2,0.9-3c0.3-1.5,0.6-3,0.8-4.5c0.1-0.9,0.1-1.9,0.1-2.8
		c0-1.8,0.1-3.6,0-5.4c0-0.9-0.6-1.2-1.3-0.9c-3.7,1.5-7.4,2.8-10.7,5.2c-1.1,0.8-2.4,1.5-3.4,2.5c-0.8,0.8-2.2,1.1-2.5,2.4
		c0,0.1-0.3,0.2-0.6,0.4c0.2-0.7,0.4-1.2,0.6-1.8c-0.4,0.1-0.7,0.2-0.9,0.1c-0.9-0.6-1.1,0-1.4,0.7c-0.2,0.6-0.5,1.1-0.7,1.7
		c-0.1,0-0.2-0.1-0.3-0.1c0.1-0.5,0.3-1.1,0.4-1.6c0.1-0.5,0-0.8-0.5-0.8c-0.6-0.1-1-0.1-1,0.7c0,0.4-0.1,0.9-0.2,1.3
		c-0.1,0.6-0.3,1.2-0.4,1.8c-0.1,0-0.3,0-0.4-0.1c0.1-1.3,0.2-2.5,0.3-3.7c-1.6-0.3-1.6-0.3-1.7,1.2c0,0.5,0,1.1-0.1,1.6
		c0,0.2-0.2,0.3-0.3,0.5c-0.1,0-0.2-0.1-0.2-0.1c0-0.7,0-1.5,0-2.2c0-1.2-0.2-1.3-1.4-1c0,0.5-0.1,0.9-0.1,1.4c-0.1,0-0.2,0-0.3,0
		c-0.1-0.3-0.1-0.6-0.2-0.9c-0.1-0.9-0.8-0.5-1.3-0.6c-0.6,0-0.4,0.4-0.4,0.8c0,0.5,0,1,0,1.5c-0.1,0-0.2,0-0.3,0
		c-0.2-0.7-0.1-1.6-0.5-2c-0.4-0.4-1.3-0.2-2.1-0.2c0.2,0.7,0.4,1.1,0.4,1.5c0.1,0.4,0,0.7,0,1.3c-0.7-1.1-0.6-2.3-2-2.7
		c0.1,0.8,0.3,1.4,0.4,2c-0.1,0-0.3,0.1-0.4,0.1c-0.2-0.3-0.3-0.7-0.5-1c-0.2-0.2-0.4-0.5-0.6-0.6c-0.4-0.3-0.9-0.4-1.2-0.8
		c-1-1.3-2-2.8-3-4.1c-2.5-3.2-5.7-5.3-9.2-7.2c-0.9-0.5-1-0.4-1.3,0.6c-1.2,3.7-1.5,7.5-1.7,11.3c-0.1,2.5,0,5,0,7.6
		c0.9-0.5,1.3-1.1,1.3-2.3c0.1-4,0.3-8,0.5-12c0-0.6,0.2-1.2,0.5-1.7c0.4-0.9,1.1-1.2,2-0.9c0.7,0.3,1.3,0.7,1.9,1.1
		c2.4,1.8,3.9,4.3,5.6,6.7c0.2,0.3,0.1,0.7,0.2,1.1c-0.1,0.1-0.2,0.1-0.3,0.2c-1.1-1.2-2.3-2.4-3.4-3.7c0,0-0.1,0.1-0.1,0.1
		c0.3,0.6,0.6,1.1,1,1.7c-0.1,0-0.1,0.1-0.2,0.1c-0.6-0.7-1.1-1.3-1.7-2.1c0.1,0.4,0.1,0.7,0.2,1.3c-0.4-0.7-0.7-1.2-1-1.7
		c0,0-0.1,0.1-0.1,0.1c0.1,0.3,0.1,0.7,0.2,1c0,0-0.1,0-0.1,0c-0.3-0.5-0.6-1-0.9-1.5c0,0.3-0.1,0.5-0.1,0.9
		c-0.3-0.6-0.6-1.1-0.8-1.5c-0.1,0-0.1,0-0.2,0.1c0,0.2,0.1,0.4,0.1,0.8c-0.3-0.3-0.5-0.5-0.7-0.8c0,0-0.1,0-0.1,0.1
		c0.4,1.4,0.7,2.9,1.1,4.3c0,0-0.1,0-0.1,0.1c-0.6-1.1-1.3-2.2-2-3.4c0,2,1.8,3.3,1.3,5.3c-0.1,0.7,0.3,1.4,0.5,2.3
		c-0.3-0.3-0.5-0.4-0.7-0.6c0,0-0.1,0.1-0.1,0.1c0.1,0.3,0.3,0.6,0.5,1.1c0.7-0.5,1.4-1,2-1.3c0.5-0.3,1.1-0.5,1.7-0.7
		c0.1,0.1,0.1,0.2,0.2,0.4c-1.1,0.9-2.2,1.9-3.5,2.7c-1.1,0.7-2.3,1.3-2.7,2.8c1-0.2,2-0.4,3-0.6c0,0.1,0.1,0.2,0.1,0.3
		c-0.2,0.1-0.4,0.3-0.7,0.4c-1.1,0.4-2.2,0.7-3.3,1.2c-0.7,0.4-1.4,1-2,1.5c0.1,0.1,0.1,0.2,0.2,0.3c1.2-0.5,2.3-1.1,3.5-1.6
		c0.1,0.1,0.1,0.2,0.2,0.3c-1,0.6-2,1.1-2.9,1.8c-0.9,0.7-1.7,1.6-2.5,2.5c0.1,0.1,0.2,0.2,0.3,0.3c0.4-0.3,0.8-0.6,1.2-0.9
		c-1.5,2.5-2.6,5-3.1,7.9c0.1-0.1,0.3-0.2,0.3-0.3c1.2-2.6,3.4-4.5,5-6.8c0.1-0.1,0.2-0.2,0.3-0.2c-0.7,1.3-1.6,2.5-2.5,3.7
		c-1.7,2.2-2.7,4.6-1.7,7.5c0.3-0.6,0.6-1.1,0.9-1.6c0.1,0,0.2,0.1,0.3,0.1c-0.1,0.3-0.2,0.6-0.3,1c-0.3,1-0.7,2.1-0.9,3.1
		c-0.1,0.3,0.1,0.7,0.1,1c0.1,0,0.3,0,0.4,0c0.1-0.6,0.2-1.1,0.4-1.7c0.1-0.3,0.2-0.5,0.4-0.8c0.2-0.3,0.6-0.5,0.7-0.8
		c0.4-0.7,0.6-1.5,1-2.3c0.1,0,0.2,0.1,0.3,0.1c-0.1,0.5-0.2,0.9-0.3,1.4c-0.3,1.7-0.3,1.8,1.4,1.7c3.7-0.2,7.2,1,10.8,1.4
		c0.3,0,0.7,0.4,0.7,0.6c0,0.6-0.5,0.4-0.9,0.4c-3.2-0.4-6.4-0.8-9.5-1.2c-1-0.1-1.2,0.2-1.1,1.1c0.1,1.2,0,1.2,1.2,1.2
		c0.1,0,0.2,0,0.4,0c2.8,0.1,5.7,0.2,8.5,0.2c1.3,0,2.5,0,3.8,0.4c0.2,0.1,0.4,0,0.6-0.1c0.3,0,0.6-0.1,0.8-0.1c0,0.3,0.2,0.7,0.1,1
		c-0.2,0.8-0.8,1-1.5,0.7c-0.6-0.2-1.2-0.5-1.8-0.7c-0.1,0.6-0.2,0.9-0.3,1.4c0.9,0.1,1.7,0.2,2.5,0.2c0.6,0,0.9,0.4,0.8,0.9
		c-0.1,0.5-0.5,0.6-1.1,0.5c-0.7-0.2-1.4-0.2-2.1-0.3c0,0.1,0,0.2,0,0.4c1.3,1.2,2.7,0.1,3.8,0.2c0.2-0.7,0.3-1.2,0.5-1.8
		c0-0.1,0.7,0,0.7,0.1c0.1,0.5,0,1,0,1.5c0.1,0,0.3-0.2,0.4-0.2c0.3,0,0.8,0,0.9,0.2c0.1,0.3,0.1,0.8-0.1,1c-0.2,0.2-0.6,0.3-1,0.3
		c-1,0.1-1.9,0-2.9,0.1c0,0.1,0,0.3,0,0.4c0.6,0.1,1.2,0.2,1.8,0.4c1.3,0.4,2.4,0.1,3.5-0.6c1.3-0.8,1.8-2,2.3-3.4
		c0.4-1,0.3-1.8-0.5-2.5c-1.3,0.5-1.9,0.2-2.2-1c-0.4-1.6,0.1-3,0.9-4.4c0,0,0.1,0,0.3,0c0,0.6-0.1,1.3-0.1,1.9
		c-0.1,0.5,0.1,0.7,0.7,0.7c1.2,0,2.5,0,3.7,0c1.2,0,1.2,0.1,1.4-1.2c0-0.2,0.1-0.4,0.2-0.5c0.3,1.1,0.5,2.3,0.5,3.4
		c0,0.8-0.4,1.2-1.2,1.2c-0.5,0-1.1-0.2-1.4,0c-0.3,0.2-0.3,0.9-0.3,1.3c0.1,1,0,2.4,0.6,3.1c1.8,2.1,4.2,2.3,6.6,1.2
		c1-0.5,1.8-1.8,1.5-2.7c-0.9-0.2-1.9,0.8-3-0.5c1.8-0.3,3.4-0.7,5-0.9c0.4-0.1,0.7,0.3,1.1,0.3c2.3,0.2,4.6,0.3,6.9,0.4
		c0.7,0,1.4,0.1,1.4-1c0.2,0.3,0.2,0.7,0.4,0.8c0.2,0.1,0.5,0.1,0.7,0.1c0-0.5,0.1-1,0-1.5c0-0.1-0.6-0.2-0.9-0.2
		C163.8,52.3,160,52.9,156,52.7z M164,159c-0.1,0.1-0.1,0.1-0.2,0.2c-0.3-0.1-0.5-0.2-0.8-0.2c-0.4,0-0.7,0.2-1.1,0.3
		c-0.1-0.1-0.1-0.1-0.2-0.2c0.9-0.8,1.2-1.7,0.7-3c-0.5,1,0.1,2.4-1.2,2.7c-0.1-1-0.3-1.8-0.3-2.7c0-0.2,0.3-0.4,0.5-0.6
		c-0.2-0.8-0.4-1.7-0.6-2.7c1.5,0.4,1.2,2.2,2.6,2.7c-0.1-0.5-0.4-1-0.3-1.4c0.1-0.7,0.5-1.4,0.7-2.2c0.4,0.2,0.8,0.4,1.4,0.7
		c-0.1-0.7-0.1-1.4-0.2-2.2c0.4,0.1,0.7,0.2,0.8,0.2c0.5-0.3,0.8-0.5,1.1-0.7c0.1-0.4,0.2-0.8,0.3-1.1c0.3,0.3,0.6,0.5,0.9,0.8
		c0.2,0.2,0.2,0.4,0.3,0.6c0,0,0.1,0,0.1,0c-0.1-1.7-0.2-3.3-0.4-5.1c-0.7,0-1.2,0.1-1.7,0.1c-1.4,0.1-2.8,0.4-4.1,0.4
		c-6.7,0.1-13.4,0.2-20.1,0.2c-1.7,0-3.5-0.1-5.2-0.2c-0.8,0-1.2,0.3-1.2,1.1c0,0.6-0.3,1.2-0.4,1.9c-0.1,0-0.3-0.1-0.4-0.1
		c0.2-1,0.4-2,0.6-2.9c-0.4,0-0.8-0.1-1.2-0.1c-1.3-0.1-2.6-0.2-3.9-0.2c-0.3,0-0.8,0.4-0.9,0.7c-0.5,1.8-0.9,3.6-1.4,5.4
		c-0.1,0-0.3-0.1-0.4-0.1c0-2.1,0.8-4.1,1.6-6.1c-0.8-0.3-1.3,0-1.5,0.7c-0.2,0.6-0.3,1.1-0.5,1.7c-0.2,0.6-0.5,1.1-0.7,1.6
		c-0.1-0.1-0.3-0.1-0.4-0.2c0.5-1.3,1-2.6,1.4-4c-0.1-0.1-0.2-0.1-0.3-0.1c-4.6-0.5-9.3-1-13.9-1.5c-0.2,0-0.7,0.4-0.7,0.6
		c-0.2,1.8-0.3,3.6-0.4,5.4c0,0.6,0,1.1,0,1.7c0.1,0,0.1,0,0.2,0c0.2-1.2,0.4-2.4,0.6-3.6c0.1,0,0.3,0,0.4,0.1
		c-0.1,0.8-0.1,1.7-0.2,2.7c0.3-0.4,0.5-0.5,0.6-0.7c0.1,0,0.1,0,0.2,0c0,1.6,0,3.1,0,4.7c0.1,0,0.2,0,0.3,0c0.3-1.5,0.5-3,0.8-4.6
		c0.4,0.2,0.6,0.3,0.7,0.3c-0.1,0.9-0.2,1.8-0.3,2.6c0.5-1,0.2-2.2,1.1-3c0.4,1.6-0.1,3.2,0.1,4.8c0.2-0.3,0.4-0.6,0.4-0.9
		c0.1-0.6-0.1-1.3,0.1-1.9c0.4-1.3,1-2.6,1.5-3.9c0.2-0.4,0.5-0.7,0.8-1c0.1,0,0.2,0.1,0.3,0.1c-0.5,1.7-1.8,3.2-1.1,5.1
		c0.4-0.9,0.7-1.8,1.1-2.6c0.4-0.8,0.9-1.6,1.3-2.4c0.1,0.1,0.2,0.1,0.4,0.2c-0.1,0.4-0.2,0.7-0.3,1.1c-0.3,0.8-0.8,1.5-1,2.3
		c-0.3,1-0.4,2.1-0.6,3.2c0.1,0,0.2,0,0.3,0.1c0.3-1,0.6-2,0.9-3c0.3-0.8,0.5-0.8,1.1-0.3c0.5-0.8,0.9-1.6,1.4-2.5
		c0.1,0,0.2,0.1,0.4,0.1c-0.2,0.5-0.3,1-0.5,1.5c-0.1,0.3-0.2,0.6-0.2,0.8c0,0.4,0.1,0.8,0.1,1.1c-0.1,0.5-0.2,1-0.4,1.5
		c0,0,0.1,0,0.1,0c0.5-0.8,1-1.6,1.6-2.5c0.2,0.4,0.4,0.5,0.4,0.7c0.3-0.2,0.6-0.5,0.9-0.7c0.1,0.1,0.2,0.1,0.3,0.2
		c-0.5,1.6-0.9,3.1-1.4,4.8c-0.3-0.3-0.5-0.4-0.6-0.5c-0.4,0.4-0.9,0.8-1.2,1.3c-0.3,0.6-0.5,1.2-0.8,2c-0.4-1.2-0.6-2.2-0.9-3.3
		c-0.1,1.9-1.5,3.3-1.3,5.1c0.1,1-0.1,2-0.1,3.1c-0.1,2.4-0.3,4.8-0.4,7.2c0,0.3,0.1,0.7,0.2,1c0.2-0.4,0.2-0.8,0.2-1.2
		c0-0.4,0-1,0.2-1.1c0.7-0.3,0.5-0.9,0.6-1.4c0.1-0.9,0.2-1.8,0.3-2.8c0.1-1,0.3-1.9,0.5-2.8c0.2,2.1,0.2,4.2,0.1,6.3
		c0,0.5,0,0.9,0.6,1c0.2-0.8,0.4-1.6,0.6-2.4c1.4,0.1,1.2,1,1.2,1.9c0,1.1,0.1,2.1,0.2,3.2c0.1,0,0.2,0,0.2,0
		c0.1-1.2,0.2-2.4,0.3-3.6c0-0.3,0.1-0.6,0.3-0.9c0.1-0.4,0.4-0.7,0.5-1.1c0.4-1.6,0.7-3.2,1-4.7c0.1,0,0.2,0,0.3,0.1
		c-0.3,2.4-0.7,4.7-1,7.1c1.9-1.6,1-4.1,2.3-6c0,0.2,0,0.3,0,0.4c-0.1,1.3-0.3,2.7-0.4,4c0,0.2-0.1,0.5,0,0.5
		c0.7,0.6,0.3,1.4,0.3,2.2c0,0.5-0.1,1-0.1,1.5c0.5-2,0.2-4.1,1.2-5.9c0.1,0.6,0.1,1.2,0.1,1.8c-0.1,2.1-0.3,4.2-0.5,6.3
		c0,0.3-0.3,0.5-0.5,0.9c-0.2-0.7-0.2-1.2-0.3-1.6c-0.3,1.1-0.1,2.2-0.9,3.3c-0.1-1.5-0.1-2.8-0.2-4.1c-0.1,0-0.1,0-0.2,0
		c-0.1,2-0.3,4-0.4,6c-0.1,0-0.2,0-0.3,0c-0.1-0.3-0.3-0.6-0.4-0.9c-0.1,1.7-0.4,3.4-0.4,5c0,3.2-0.3,6.3-1.2,9.3
		c-0.1,0.5-0.3,1.1-0.6,1.5c-1.4,1.4-2.9,2.7-4.9,3.1c-0.9,0.2-1.9,0.5-2.7,1c-1.4,0.9-2.4,2.1-2.1,3.9c0.2,1.1,0.5,2.2,0.9,3.3
		c0.1,0.3,0.5,0.4,0.8,0.6c0.1-0.3,0.2-0.6,0.2-0.9c-0.1-0.9-0.2-1.8-0.2-2.7c-0.1-1,0.4-1.7,1.1-2.4c0.6-0.5,1.3-0.5,1.8,0.2
		c-1.9,1.2-1.6,3-1.3,4.8c0.3,1.3,0.9,1.7,2.3,1.6c1.5-0.2,3-0.4,4.4-0.3c1.8,0.1,3.4-0.1,4.5-1.8c0.8-1.1,1.5-2.3,2.3-3.4
		c0.1-0.2,0.3-0.7,0.2-0.8c-1-1.2-0.5-2.5-0.6-3.8c-0.1-1.1,0-2.2,0-3.3c0.1,0,0.3,0,0.4,0c0.2,1.1,0.1,2.2,0.1,3.2
		c0,1.1,0,2.2,0,3.4c0.1,0,0.2,0.1,0.3,0.1c0.2-0.3,0.6-0.5,0.7-0.9c0.5-1.2,0.9-2.4,1.3-3.7c0.2-0.7,0.1-1.4,1-1.7
		c0.1,0,0.2-0.3,0.3-0.5c0.1-1.5,0.7-2.8,0.3-4.5c-0.5-2.4-0.3-4.9-0.5-7.3c0-0.1,0.2-0.3,0.2-0.5c0.1,0,0.2,0,0.3,0.1
		c0.2,2.4,0.3,4.9,0.5,7.6c0.6-1,1.2-1.7,1.6-2.5c0.8-1.5,0.6-3.2,0.6-4.8c0-0.2,0.1-0.5,0.2-0.7c0.2,0.1,0.5,0.2,0.8,0.3
		c-0.1-0.9-0.2-1.7-0.3-2.5c-0.1-0.8-0.7-1.6-0.3-2.4c0.1,0,0.2-0.1,0.3-0.1c0.3,0.7,0.6,1.3,1,2.2c0.2-1.2,0.4-2.2,0.5-3.1
		c0.1-1.1,0-2-0.8-2.9c-0.4-0.5-0.7-1.2-0.9-1.8c-1-2.7-0.6-5.6-0.6-8.4c0-2.3,0.3-4.7,1.4-6.9c0.1-0.2,0.1-0.6,0-0.9
		c-0.2-1.1-0.5-2.1-0.7-3.2c-0.1-0.3,0.2-0.6,0.3-0.9c0.3,0.2,0.8,0.3,1,0.6c0.2,0.3,0.2,0.7,0.3,1.1c0.3,1.8,1.1,3.2,2.5,4.4
		c0-0.4,0-0.7,0-0.8c0.9,1.6,1.8,3.3,2.8,5c0.1,0,0.2-0.1,0.3-0.1c-0.3-2.3-0.6-4.5-0.9-6.8c0.4,1.2,0.8,2.4,1.1,3.6
		c0.3,1.3,0.5,2.5,0.8,3.8c0.2,0.9,0.4,1.7,1.4,1.9c-0.2-2.1-0.4-4.1-0.6-6.2c0.1,0,0.2,0,0.3-0.1c0.2,0.5,0.4,1,0.5,1.5
		c0.7,2.9,1.4,5.8,2.1,8.7c0,0.2,0.3,0.3,0.5,0.5c0.1-0.2,0.3-0.4,0.3-0.5c-0.1-0.5-0.2-1-0.3-1.5c-0.2-0.8-0.3-1.6-0.5-2.3
		c0.1,0,0.2-0.1,0.3-0.1c0.3,0.7,0.6,1.4,0.8,2.1c0.6,1.7,1.2,3.5,1.8,5.2c0.4,1,1,1.9,1.3,2.9c0.4,1.3,0.6,2.7,0.9,4.2
		c0.2-0.5,0.4-0.8,0.6-1.2c0,0,0.1,0,0.1,0c-0.2,1.5-0.4,3-0.7,4.5c0.1,0,0.2,0.1,0.3,0.1c0.5-1.1,0.9-2.3,1.4-3.4
		c0.1,0,0.2,0.1,0.3,0.1c-0.6,2.3-1.2,4.6-1.8,6.9c0.1,0,0.1,0,0.2,0c0.5-1,0.9-1.9,1.4-2.9c-0.6,3.1-1.5,6.1-2.1,9.2
		c-0.5,2.4-0.6,5-1.9,7.2c-0.3,0.6-0.6,1-1.3,1.1c-2.9,0.6-4.2,3.1-4.4,5.4c0,0.7,0.5,1.4,0.9,2.1c0.1,0.2,0.5,0.2,0.9,0.4
		c-0.1-0.4-0.1-0.5-0.2-0.7c-0.5-1.8,0.3-3.3,1.3-4.6c0.2-0.2,0.7-0.2,1.1-0.3c0,0.3,0,0.6-0.1,0.9c-0.3,0.8-0.6,1.5-0.8,2.2
		c-0.3,1.3,0.3,2.4,1.2,3.2c0.7,0.7,2.2,0.5,3.3-0.2c-0.2-1-0.9-2.1-0.1-3.4c0.3,0.5,0.6,0.9,0.8,1.3c0.2,0.4,0.3,0.8,0.4,1.2
		c0.8,1.7,2.3,2,3.6,0.7c0.7-0.7,1.3-1.5,1.7-2.4c0.6-1.3,0.9-2.7,1.3-4c0.3-0.9,0.3-1.7-0.1-2.8c-1.1-2.7-1.9-5.6-2.8-8.4
		c-0.1-0.5-0.2-1-0.2-1.4c0.2,0,0.4-0.1,0.5-0.1c0.6,3.4,1.7,6.6,3.1,9.8c0.3-1.1,0.3-2-0.1-3c-0.7-1.6-1.3-3.1-2-4.7
		c0.1-0.1,0.2-0.1,0.3-0.2c0.9,1.1,1.1,2.6,2,3.6c0.1-1.1,0.2-2.1,0.1-3.1c-0.1-1-0.5-2-0.7-3c-0.2-1-0.4-2-0.6-3c0.1,0,0.1,0,0.2,0
		c0.4,1.4,0.8,2.8,1.2,4.2c0.1,0,0.2,0,0.3-0.1c0.5-3.3-1.4-6.5-0.9-9.8c0.4,1.6,0.9,3.3,1.3,4.9c0.1,0,0.2,0,0.2,0
		c0.1-1.1,0.3-2.1,0.3-3.2c0-1.1-0.3-2.1-0.5-3.2c0.1,0,0.2,0,0.3-0.1c0.2,0.7,0.4,1.5,0.6,2.2c0.1,0,0.2,0,0.3,0
		c0.2-1.1,0.3-2.2,0.5-3.4c-0.3,0.1-0.5,0.2-0.8,0.3c0.2-0.7,0.3-1.3,0.4-2c-0.1,0-0.1-0.1-0.2-0.1c-0.4,0.4-0.8,0.9-1.2,1.3
		c-0.1,0-0.1-0.1-0.2-0.1c0.1-0.6,0.2-1.3,0.2-1.9c-0.1-0.1-0.3-0.2-0.4-0.3c-0.2,0.5-0.4,1-0.6,1.5c-0.1-0.1-0.2-0.3-0.3-0.4
		c-0.3-0.2-0.5-0.4-0.8-0.7c0.1-0.2,0.1-0.5,0.2-0.6c-0.6,0.2-1.1,0.4-1.8,0.6c0.1-0.5,0.1-0.8,0.2-1.2c-0.9,0.3-1.8,0.7-1.8-0.7
		c-0.3,0.1-0.6,0.1-0.9,0.2c0.3-1,0.6-1.9,0.9-2.8c0.1,0,0.2,0,0.2,0c0.1,0.7,0.2,1.5,0.4,2.2c0.6-0.7,0.3-1.9,1.4-2.4
		c0.1,0.5,0.1,0.8,0.2,1.1c0.1,0,0.1,0,0.2,0c0.2-0.7,0.4-1.4,0.5-2c0.5,0.1,0.8,0.2,1.2,0.2c0.1,0.5,0.1,1,0.2,1.5c0,0,0.1,0,0.1,0
		c0.2-1.2,0.4-2.3,0.6-3.5c0.1,0,0.1,0,0.2,0c0.2,0.4,0.4,0.8,0.6,1.3c0.4-1,0.8-1.8,1.2-2.7c0.2,0.4,0.4,0.7,0.6,1.2
		c0.2-0.9,0.3-1.5,0.5-2.1c0.1,0,0.2,0,0.3,0c0.7,1.4,0.1,2.9,0.3,4.4c0.7-2.4,1.5-4.8,2.2-7.1c0.4,0.8,0.9,1.7,1.4,2.6
		c0.2,0,0.3-0.1,0.5-0.1c-0.1-1-0.2-2-0.3-3c-0.1-0.6-0.4-1.3-0.3-1.9c0.5-2,0.4-4.1,0.3-6.1c-0.1-1.6-0.4-3.2-0.6-4.9
		c-0.1-0.5-0.1-0.9,0.7-0.9c0.3,0,0.7-0.4,1-0.6c0-0.1-0.1-0.2-0.1-0.3c-0.9,0.1-1.7,0.1-2.4,0.2c0.2,1.3,0.5,2.6,0.7,3.9
		c0.1,0.5,0.1,1,0.2,1.6c0.4,2.6,0.2,5.2-0.4,7.7c-0.1,0.4-0.4,0.8-0.6,1.1c-0.1,0-0.2-0.1-0.3-0.1c0.1-0.5,0.2-1.1,0.3-1.7
		c-0.6,0.6-1,0.9-1.9,0.7c-1.2-0.3-0.3-1.2-1-1.8c0,1.3,0,2.5,0,3.7c-0.1,0-0.1,0-0.2,0c-0.2-0.4-0.3-0.8-0.5-1.2
		C164.7,158.9,164.4,158.9,164,159z M129.5,124.1c0.2-0.2,0.4-0.4,0.6-0.6c0.5,0.7,1,1.4,1.6,2.2c0.2-0.1,0.6-0.2,0.9-0.3
		c0.5-0.2,0.8-0.4,0.9-1c0.2-2.2-0.4-3.4-2.4-4.6c-0.4-0.2-0.8-0.5-1.2-0.8c0.1-0.1,0.1-0.2,0.2-0.3c1.4,0.1,2.6,1.1,3.8,1.8
		c0.2-1.1-0.1-1.9-0.7-2.5c-1-1-2.1-2-3.3-2.7c-1.7-1.1-3.4-2.2-4.6-3.8c-0.2-0.2-0.5-0.3-0.7-0.5c-0.9-0.7-1.7-1.3-2.6-2
		c0.1-0.1,0.1-0.2,0.2-0.3c0.5,0.2,0.9,0.4,1.5,0.6c-0.4-1.3-1.4-2-2.2-2.8c-0.8-0.8-1.5-1.8-2.3-2.7c0,0,0.1-0.1,0.1-0.1
		c0.7,0.3,1.4,0.7,2.3,1.1c-0.8-2.6-2.6-4.3-3.6-6.5c0.4,0.3,0.8,0.5,1.2,0.8c0.1-0.1,0.2-0.1,0.3-0.2c-1.2-2.5-2.3-5-3.5-7.5
		c0.1,0,0.1-0.1,0.2-0.1c0.7,1,1.4,2,2.1,3c0.1,0,0.2-0.1,0.3-0.1c-0.6-2.3-1.3-4.6-1.9-6.9c0,0,0.1-0.1,0.1-0.1
		c0.5,0.9,1,1.8,1.6,2.9c0.2-1.7,0.3-3.2,0.6-4.6c0.3-1.4,0.9-2.6,1.4-4c0.1,0,0.2,0,0.3,0.1c0,0.2,0.1,0.3,0.1,0.5
		c-0.7,4.2-1,8.5-0.7,12.8c0.1,1.7,0.6,3.2,1.5,4.6c0.6,0.9,1.1,2,1.3,3c0.7,3.2,2.4,5.8,4.5,8.2c0.7,0.8,1.6,1.4,2.6,2.2
		c0.2-0.6,0.3-1,0.4-1.7c0.5,1.1,0,2.6,1.6,2.9c0.2-0.7,0.3-1.3,0.4-2c0.3,0.8,0.4,1.5,0.5,2.3c0,0.3,0.1,0.7,0.3,0.8
		c1.2,0.7,1.8,1.9,2.4,3.1c0.3,0.6,0.9,0.8,1.7,0.6c0-1.7,0-3.5,0-5.2c0.1,0,0.2,0,0.3,0c0.2,1.8,0.4,3.5,0.6,5.3
		c1.3,0.2,1.4,0.2,1.5-1c0-0.6,0.1-1.2,0.1-1.8c0.1,0,0.2,0,0.3,0c0.1,0.5,0.2,1,0.3,1.6c0.2,1.6,0.2,1.6,1.8,1.6c0.1,0,0.2,0,0.4,0
		c4.7-0.1,9.4-0.3,14.2-0.4c0.8,0,1-0.3,1-1c0-0.5,0.1-1,0.1-1.4c0.1,0,0.2,0,0.3,0c0.1,0.4,0.2,0.7,0.3,1.1
		c0.4,1.3,0.4,1.3,1.7,0.7c-0.1-1.7-0.3-3.5-0.4-5.3c0.3,0.1,0.3,0.1,0.4,0.2c0.6,0.9,0.2,2.3,1.4,3c0.1,0,0,0.3,0,0.3
		c-0.9,0.4-0.1,1-0.3,1.6c1.9,0.3,0.8-1.5,1.6-2c0.2,0.6,0.4,1.1,0.6,1.8c0.9-0.2,1.8-0.4,2.7-0.6c-0.8-2.6-1.5-5-2.3-7.5
		c0,0,0.1,0,0.1-0.1c0.4,0.7,0.9,1.4,1.3,2.1c0.1,0,0.1-0.1,0.2-0.1c-0.3-1.6-0.6-3.2-0.8-4.8c0.1,0,0.1-0.1,0.2-0.1
		c0.3,0.5,0.6,1,0.9,1.5c0.1,0,0.2-0.1,0.3-0.1c-1-3.3-1.9-6.6-2.9-9.9c0.1,0,0.2-0.1,0.4-0.1c0.8,1.6,1.6,3.2,2.3,4.7
		c0.1,0,0.2,0,0.2-0.1c-0.5-2.8-0.9-5.5-1.4-8.4c0.2,0.1,0.4,0.1,0.6,0.2c0.2,0.1,0.3,0.3,0.4,0.4c0.5-3.1-1.6-5.5-2.5-8.4
		c0.4,0.3,0.7,0.5,0.9,0.6c-1.3-3.5-1.7-7.1-1.9-10.7c0.3,0.7,0.6,1.3,0.8,2c0.4,1.7,0.7,3.4,1.3,5c1.1,3.6,2.5,7,2.7,10.8
		c0.1,1.4,0.9,2.9-0.2,4.3c0,0,0,0.1,0,0.2c0.4,1.7,0.7,3.4,1.1,5.1c0.2-0.4,0.1-0.7,0.1-1.1c-0.1-0.9-0.3-1.8-0.3-2.8
		c0-0.3,0.2-0.6,0.4-0.8c0.1,0,0.2,0.1,0.2,0.1c0.1,0.7,0.3,1.5,0.4,2.2c0.1,0,0.2,0,0.2,0c0-1.2,0-2.4,0-3.7c0-0.6,0.1-1.1,0.8-1.1
		c0.2-0.5,0.4-0.9,0.6-1.3c0.1,0,0.2,0.1,0.3,0.1c0,0.5,0.1,1.1,0.1,1.6c0.7-1.4,0-2.6-0.4-4.1c1.2,1.5,1.6,2.4,1.7,4
		c0,0.4,0.1,0.7,0.1,1.1c0,1,0,2,0,3.1c0,0.6-0.1,1.2,0,1.8c0.2,1.5,0.4,3,0.7,4.4c0.3,1.5,0.7,3,1.1,4.6c0,0.1,0.3,0.2,0.4,0.3
		c0.1-0.2,0.2-0.3,0.2-0.5c0-0.3,0-0.7-0.1-1c0.3,0,0.5,0,0.9,0.1c-0.2-1.7-0.5-3.3-0.7-5.2c1,1.2,0,3.2,1.9,3.6
		c0.2-1.1,0.3-2.2,0.5-3.4c0.4,0.4,0.6,0.5,0.6,0.5c0.5-0.2,1-0.4,1.4-0.6c0.2,0.5,0.4,1,0.5,1.4c0.2-0.4,0.3-0.8,0.5-1.2
		c0.1,0,0.2,0,0.3,0.1c0.1,0.6,0.4,1.1-0.2,1.7c-0.7,0.7-0.8,1.5-0.6,2.5c0.2,0.8-0.4,1.7,0.1,2.5c0,0.1-0.2,0.3-0.3,0.5
		c-0.3-0.1-0.5-0.2-0.8-0.3c0.3,1,1.5,1.4,1.3,2.8c-0.5-0.4-0.9-0.7-1.3-1c0.2,1.1,2,1.3,1.3,2.8c0.6,0.2,1.2,0.4,1.8,0.4
		c1.3,0.1,2.7,0,4,0.1c2.6,0.1,2.6-0.7,1.6-2.8c-0.4-0.8-1.1-1.3-1.7-2c0.7-0.6,1.3-0.6,1.7,0c0.6,0.9,1.3,1.8,1.7,2.7
		c0.6,1.5,0.7,1.6,2.2,0.9c0.2-0.1,0.3-0.2,0.5-0.3c1-0.6,1.3-1.4,0.6-2.4c-0.9-1.3-1.9-2.6-3-3.9c0.4-0.6,0.9-0.6,1.6,0.1
		c0.6,0.7,1.2,1.3,1.9,2c0.1,0,0.2-0.1,0.3-0.1c-0.1-0.4-0.1-0.8-0.3-1.2c-1-1.8-2.6-2.7-4.4-3.5c-2-0.8-3.9-1.9-5.4-3.4
		c-1-1-1.7-2.3-3.2-2.7c0.2,0,0.5-0.1,0.7-0.1c-1-0.5-1.9-1.1-2.8-1.6c0-0.1,0.1-0.2,0.1-0.2c0.7,0.2,1.5,0.4,2.5,0.7
		c-0.8-1.6-2.4-1.6-3.5-2.6c0.6,0.2,1.1,0.3,1.5,0.4c0.1-0.1,0.2-0.2,0.3-0.3c-1.8-2.9-3.6-5.8-5.4-8.8c1,0.8,1.8,1.5,2.7,2.3
		c0.1,0,0.1-0.1,0.2-0.1c-1.6-2.3-3.2-4.7-4.8-7c0,0,0.1-0.1,0.1-0.1c0.5,0.4,1.1,0.8,1.6,1.2c0.1-0.1,0.2-0.1,0.3-0.2
		c-0.6-1.4-1.1-2.8-1.8-4.1c-0.8-1.3-1.9-2.4-2.8-3.6c0,0,0.1-0.1,0.1-0.1c0.7,0.5,1.5,1,2.2,1.5c0.1-0.1,0.2-0.1,0.3-0.2
		c-0.5-0.9-1-1.8-1.6-2.7c-0.6-0.9-1.3-1.7-2-2.5c0.1,0,0.1-0.1,0.2-0.1c0.6,0.4,1.1,0.9,1.7,1.3c-0.5-1-1-1.9-1.7-2.8
		c-0.6-0.9-1.4-1.6-2.1-2.5c-0.7-0.8-1.3-1.6-1.9-2.4c0,0,0.1-0.1,0.1-0.1c0.6,0.5,1.2,1.1,1.8,1.7c0.1-0.2,0.1-0.3,0.1-0.3
		c-0.1-0.2-0.1-0.3-0.2-0.5c-1-2-1.8-4-2-6.2c0-0.3-0.4-0.7-0.7-0.7c-0.5,0-1.1,0.2-1.6,0.3c-0.3,0.1-0.7,0.3-1,0.4
		c-0.6,0.1-1.2,0.1-1.7,0.3c-0.6,0.3-0.9,0.2-1.2-0.5c1.7-1.3,3.4-2.8,5.8-2c0.3-0.8,0.6-1.6,0.9-2.3c0,0,0.1,0,0.1,0
		c-0.1,0.6-0.2,1.2-0.4,2c1.1-0.5,0.8-1.6,1.5-2.4c-0.1,0.6-0.1,1.1-0.2,1.9c0.5-0.4,0.9-0.7,1.3-1c0.6,0.5,0.8,0.2,1-0.5
		c0.1-0.6,0.3-1.1,0.4-1.7c0.1-0.6-0.1-0.8-0.7-0.9c-2.4-0.1-4.8-0.2-7.2-0.2c-0.5,0-0.8,0.1-1.1,0.6c-0.5,0.8-1,1.5-1.6,2.2
		c-1.5,1.8-3.7,1.6-5.7,1.9c-0.1,0-0.2-0.1-0.3-0.1c-1.4-0.7-2.9-1.4-4.5-2.2c-1.7,1.3-3.5,3.1-6.4,2.5c-2.5-0.6-4.8-1.3-5.6-4
		c-1.1,0-2,0-3,0c-0.6,0-0.8,0.3-0.7,0.8c0.1,0.4,0,0.9,0,1.3c0,0,0,0-0.1,0c-0.1-0.7-0.2-1.3-0.3-2.1c-0.6,0.1-1.1,0.2-1.7,0.2
		c0.2,1.5,0.8,2.7,1.8,3.4c1.1,0.9,2.6,1.5,3.9,2.2c0.2,0.1,0.3,0.3,0.5,0.4c0,0.1-0.1,0.1-0.1,0.2c-0.5-0.1-1-0.3-1.6-0.4
		c-1.6-0.4-3.2-0.8-4.8-1.2c-0.3-0.1-0.7,0.2-0.9,0.4c-2.1,1.8-4.2,3.6-6.3,5.4c-0.6,0.5-1.1,1.1-1.6,1.6c0,0.1,0.1,0.1,0.1,0.2
		c1.1-0.6,2.1-1.2,3.2-1.9c0.1,0.1,0.2,0.2,0.3,0.3c-0.7,0.6-1.4,1.3-2.2,1.8c-1.6,1-3.1,1.9-4.3,3.4c-0.5,0.7-1.4,1.3-1.5,1.9
		c-0.1,1.1-0.8,1.5-1.3,2.2c-0.5,0.7-1,1.4-1.5,2.2c0.1,0.1,0.2,0.2,0.3,0.2c0.8-0.6,1.6-1.3,2.4-1.9c0.1,0.1,0.1,0.1,0.2,0.2
		c-1.2,1.5-2.4,2.9-3.6,4.4c0.1,0.1,0.1,0.1,0.2,0.2c0.3-0.1,0.6-0.3,1-0.4c-1,1.5-2.2,2.9-3,4.5c-0.8,1.6-1.3,3.3-2,5
		c0.1,0,0.1,0.1,0.2,0.1c0.2-0.2,0.4-0.3,0.6-0.5c-0.5,2-1,3.9-1.6,5.8c0.1,0,0.1,0,0.2,0c0.4-0.9,0.9-1.7,1.3-2.6
		c0.1,0,0.2,0.1,0.3,0.1c-0.1,0.4-0.2,0.7-0.3,1.1c-0.5,2.1-1.1,4.2-1.7,6.2c-0.2,0.7,0,1.3,0.5,1.7c0.5-1.4,1-2.8,1.6-4.3
		c0.1,0,0.2,0.1,0.3,0.1c-0.1,0.6-0.3,1.1-0.4,1.7c-0.2,1.1-0.5,2.2-0.5,3.4c0,1,0.3,2,0.5,3c0.1,0.8,0.3,1.6,0.4,2.4
		c0.1,0,0.2,0,0.3,0c-0.1-2.7-0.9-5.3-0.3-8c0.7,0.2,1.5,0.1,1.4,1.1c0.1-0.4,0.2-0.7,0.3-1.1c0.3,0.1,0.5,0.2,0.7,0.4
		c-0.1-2,0.8-3.6,1.9-5.1c-0.3,0.8-0.7,1.5-1.1,2.3c-0.4,0.7-0.3,1.3,0.1,1.7c0.3-0.5,0.7-1.1,1.1-1.7c0.1,0,0.1,0.1,0.2,0.1
		c-0.1,0.4-0.2,0.9-0.4,1.5c0.3-0.4,0.5-0.6,0.8-1c0.1,0.5,0.2,0.9,0.3,1.2c0.1,0,0.3-0.1,0.4-0.1c-0.3,1-0.5,2-0.8,3.2
		c-0.3-0.5-0.5-0.8-0.7-1.2c-0.3,2.4-0.6,4.9-1,7.6c-0.6-2.1-0.6-2.1-1.3-2.1c0.1,0.5,0.6,1.3-0.6,1.2c0.1,0.5,0.5,1.1-0.2,1.5
		c0,0,0,0.2,0,0.4c0,0.7,0,1.4,0,2c0.1,0.8,0.3,1.5,0.5,2.3c0.1,0,0.1,0,0.2-0.1c0.1-1.4,0.3-2.8,0.4-4.3c0.5,2.3,0.8,4.7,1.1,7
		c0.1,0.5,0.3,1,0.5,1.4c0.1,0,0.2-0.1,0.2-0.1c-0.1-0.5-0.3-1-0.3-1.5c0.1-1.2-1.1-2.4,0.2-3.5c0.1-0.1,0-0.3,0-0.4
		c0.1-0.4,0-0.9,0.3-1c0.4-0.2,0.9-0.2,1.4-0.3c0.1-0.5,0.2-1.2,0.4-1.9c0.1,0,0.1,0,0.2,0c0.1,0.3,0.2,0.5,0.4,0.9
		c0.1-0.6,0.1-1.1,0.2-1.9c0.4,0.4,0.5,0.6,0.7,0.9c0-0.4,0.1-0.8,0.1-1.4c0.4,0.3,0.6,0.5,0.8,0.7c0.5-0.5,0.7-0.5,0.8,0.1
		c0.1,0.8,0.1,1.6,0.2,2.4c-0.4,0-0.7,0-1,0.1c0,0.6,0,1.2,0,1.8c-0.8-0.4-0.7,0.2-0.7,0.6c-0.1,0.5-0.2,0.9-0.2,1.4
		c-0.1,0-0.2,0-0.3,0c0.4,1.4,0.7,2.7,1.1,4.1c-0.8-0.6-0.5-2-1.9-2.3c0.2,0.6,0.3,1.1,0.4,1.6c0.3,1-0.5,0.5-0.7,0.6
		c0.1,1.8,0.9,2.9,2.4,3.6c0.1,0,0.2,0.1,0.2,0.2c0.1,0.2,0.2,0.5,0.3,0.9c0.2,0,0.4,0.1,0.8,0.1c-0.3-0.9-0.5-1.6-0.8-2.5
		c1.6,0.9,1.4,3.2,3.5,3.6c-0.3-0.9-0.6-1.6-0.9-2.4c0.1,0,0.2-0.1,0.3-0.1c0.4,0.5,1,1,1.2,1.6c0.5,1.3,1.4,1.8,2.7,1.9
		c0,0,0.1,0,0.1,0c1.3,0.2,2.7,0.3,4,0.5c0.8,0.1,0.9-0.5,0.8-1.1C129.8,125,129.6,124.6,129.5,124.1z M181.2,143.4
		c1.4,2.3,3.8,2.9,6,3.9c2.2,1,4.5,0.1,6.7-0.6c4.3-1.4,8.1-6.5,7.3-9.8C194.8,139.5,188.1,141.5,181.2,143.4z M201.6,121.5
		c-0.4-0.4-0.6-0.6-0.9-0.8c-0.3,2.4,1.3,6.5,2.9,8c0.1,0.1,0.3,0.3,0.4,0.2c1-0.3,1.3,0.5,1.7,1c1.4-0.4,1.1,1.2,2,1.7
		c0-0.6,0-1.1,0-1.8c0.5,0.3,0.9,0.6,1.2,0.8c0.2-0.2,0.3-0.4,0.5-0.6c0.1,0,0.2,0,0.3,0c0.1,1.7,0.2,3.4,0.3,5
		c0.2-1.3,0.2-2.6,0.3-3.9c0-0.6,0.2-1.3,0.4-1.9c0.3-0.9,0.6-1.9,0.8-2.8c0.5-1.8,0.9-3.7,1.3-5.5c0.1-0.6,0-1-0.5-1.3
		c-0.4-0.2-0.7-0.5-1.2-0.8c-0.9,1-1.9,2.1-2.9,3.1c0,0-0.1-0.1-0.1-0.1c0.5-0.8,0.9-1.6,1.3-2.3c-0.6-0.6-1.1-1.1-1.5-1.5
		c-0.7,0.2-1.4,0.4-2.2,0.6c0.1,0.6,0.3,1.3,0.4,2c-0.1,0-0.2,0.1-0.3,0.1c-1.1-1.7-1.4-3.9-3-5.4c-0.1,0-0.2,0.1-0.3,0.1
		c0.2,0.9,0.4,1.8,0.6,2.8c-0.1,0-0.2,0-0.2,0c-0.2-0.2-0.5-0.3-0.7-0.5c-0.4,0.9-0.6,1.7-0.1,2.5c-0.2-0.1-0.5-0.3-1-0.6
		C201.3,120.4,201.4,120.8,201.6,121.5z M190.5,157.4c0.3,0,0.7,0,1,0c1.8,0.1,3.5,0.2,5.3,0.4c1.3,0.1,2.4-0.4,3.4-1.2
		c-2.6,0.1-5.2,0.6-7.7-0.5c1.3-0.2,2.7-0.2,4-0.3c1.3,0,2.6-0.2,3.7-1.1c-1,0-2,0.1-3,0.1c-0.2,0-0.4-0.2-0.7-0.3
		c0.2-0.2,0.3-0.4,0.5-0.4c0.6-0.2,1.1-0.3,1.7-0.4c-1-0.1-0.4-0.6-0.3-1.1c-0.5,0-0.8,0-1.2,0c0-0.1,0-0.1-0.1-0.2
		c0.5-0.3,1.1-0.6,1.6-1c0-0.1-0.1-0.2-0.1-0.3c-0.9,0.5-2.4-0.3-2.9,1.3c-1.4,0.4-2.7,0.4-4.1,0.2c1.7-0.3,3.3-0.6,4.6-1.8
		c-0.1-0.1-0.3-0.2-0.4-0.2c0.4-0.6,0.7-1.1,1.1-1.7c-1.3,0.3-2.6,0.6-3.9,1c-0.8,0.2-1.9-0.3-2.2,1c0,0.1-0.4,0.1-0.6,0.2
		c-0.2,0.1-0.3,0.2-0.5,0.3c0,0.1,0,0.1,0.1,0.2c0.5,0,0.9,0,1.4,0c0,0.1,0,0.2,0,0.3c-1.2,1.1-2.7,0.4-4,0.4c0,0.1,0,0.1,0,0.2
		c0.8,0.2,1.6,0.4,2.5,0.7c0,0.4,0.1,0.9,0,1.2c-0.2,0.3-0.6,0.5-0.9,0.7c0.2,0.2,0.5,0.5,0.8,0.7c0,0.1-0.1,0.2-0.1,0.4
		c-1.3-0.1-2.7-0.2-4-0.4c0,0,0,0.1,0,0.1c1.3,0.2,2.6,0.5,3.9,0.7c0,0.1,0,0.2,0,0.3c-0.5,0.1-1,0.3-1.7,0.4
		c0.5,0.1,0.9,0.1,1.2,0.2c0.1,1.5,0,1.5-1.4,1.3c-0.7-0.1-1.5-0.2-2.3-0.4c0,0.1,0,0.2-0.1,0.2c0.9,0.3,1.8,0.6,2.7,0.9
		c0.2,0.1,0.3,0.4,0.5,0.6c-0.2,0.2-0.4,0.4-0.7,0.5c-0.2,0.1-0.6,0-0.8-0.1c-1.4-0.4-2.8-0.8-4.4-1.2c0.5,0.3,0.8,0.6,1.1,0.7
		c1.1,0.4,2.3,0.7,3.4,1.1c0.3,0.1,0.6,0.2,0.9,0.4c0.2,0.2,0.4,0.5,0.7,0.5c1.6,0.5,3.2,0.5,4.8,0.1c1.3-0.4,2.6-0.8,4-1.2
		c1.2-0.3,2.4-0.6,2.8-2c-0.8,0.1-1.5,0.7-2.4,0.1c0.3-0.2,0.5-0.4,0.7-0.6C195.7,158.7,193,158.7,190.5,157.4z M181.1,147.3
		c-0.9-1.1-1.7-2.2-2.6-3.3c-0.1-0.2-0.4-0.3-0.5-0.3c-1.4,0.2-2.8,0.4-4.3,0.6c0.4,1.7,0.7,3.3,1.1,4.8c0.1,0,0.1,0,0.2,0
		c0-0.5,0-1.1,0-1.6c0.3,0.5,0.4,1,0.5,1.5c0.3,1.9,0.4,3.8,0.8,5.7c0.1,0.6,0.5,1.1,0.8,1.6c0.1,0,0.2-0.1,0.2-0.1
		c-0.4-2.1-0.9-4.2-0.5-6.4c0.2,0.3,0.3,0.6,0.4,0.9c0.2,1.6,0.4,3.1,0.6,4.7c0.2,1.3,0.3,1.3,1.6,1.6c-0.2-1-0.4-2.1-0.6-3.1
		c0.1,0,0.2-0.1,0.3-0.1c0.5,1.4,1.1,2.8,1.6,4.2c1.1-0.5,0.4-0.9,0.2-1.2c-0.9-1-0.9-1.1,0-1.9c0.1-0.4,0.1-0.9,0.4-1.1
		c0.3-0.3,0.7-0.5,1-0.8c-0.1-0.6-0.3-1.2-0.2-1.7c0.2-0.5,0.8-0.8,1.3-1.4c-1,0-1.9,0-2.7,0c0-0.1,0-0.2-0.1-0.3
		c1-0.3,2-0.6,3.2-0.9c-0.9-0.7-1.8-0.7-2.7-0.6c-0.9,0.1-1.8,0.1-2.8,0.2c0-0.1,0-0.2,0-0.3C179.2,147.7,180.2,147.5,181.1,147.3z
		 M204.6,139.7c-1.5,2.9-2.8,5.5-4,7.9c1.2-1.5,2.7-3.1,4.1-4.8c0,0.2,0,0.4,0,0.7c0,0.6-0.1,1.2-0.1,1.8c0,0.5,0.2,1,0.2,1.5
		c-0.1,0.6-0.3,1.1-0.5,1.6c0.3-0.2,0.5-0.5,0.7-0.8c0.1-0.2,0.2-0.3,0.4-0.5c0.2,0.2,0.4,0.3,0.5,0.5c0.1,0.2,0.1,0.4,0.2,0.6
		c0.3,0,0.5-0.1,0.7-0.1c0.2,0.4,0.3,0.7,0.4,1.1c-0.2,0.4-0.5,0.8-0.8,1.3c0.1,0,0.1,0.1,0.2,0.1c0.2-0.2,0.3-0.5,0.5-0.7
		c0.2-0.2,0.4-0.5,0.6-0.4c0.2,0,0.4,0.4,0.5,0.6c0.2,0.4,0.2,0.9,0.3,1.3c1.8-1.1,3.1-3.5,2.5-4.5c-0.4,0.4-0.9,0.8-1.3,1.1
		c0,0-0.1-0.1-0.1-0.1c1.1-1.7,2.2-3.5,3.3-5.2c-0.2-0.1-0.3-0.3-0.5-0.4c-0.8,1-1.7,2-2.5,3c-0.1-0.1-0.2-0.1-0.3-0.2
		c0.5-0.8,1-1.5,1.4-2.3c0.4-0.8,1-1.7,0.5-2.9c-0.5,1-0.9,1.8-1.3,2.6c-0.1,0-0.2-0.1-0.2-0.1c0.2-1.2,0.3-2.3,0.5-3.5
		c-0.1,0-0.2-0.1-0.3-0.1c-0.4,0.8-0.8,1.7-1.2,2.5c-0.1,0-0.1,0-0.2-0.1c-0.1-0.6-0.2-1.1-0.3-1.7c-0.4,0.6-0.8,1-1.2,1.5
		c-0.1,0-0.2-0.1-0.2-0.1c0.4-1.3,0.8-2.7-0.2-4.1c-0.5,1.1-0.8,2.1-0.7,3.2c0.1,1.1,0,2.3,0,3.4c0,0.2-0.2,0.3-0.4,0.7
		c-0.1-1.4-0.2-2.6-0.2-3.7c-0.3,0.2-0.6,0.3-0.9,0.5C204.5,140.5,204.5,140.2,204.6,139.7z M125.2,52.6c0.1,0.4,0.2,0.9,0.2,1.3
		c0.1,0.8,0.5,1,1.3,0.9c1.8-0.2,3.6-0.4,5.4-0.5c1.9-0.1,1.9,0,2.4-1.8C131.5,52.6,128.4,52.6,125.2,52.6z M119.3,160.9
		c-0.3,0.2-0.6,0.3-0.6,0.4c-0.3,2.6-1,5.2-0.8,7.9c0.1,0,0.2,0,0.4,0C118.7,166.5,119,163.8,119.3,160.9z M212.2,130.2
		c0.2-1.3,1.3-2.5,0.8-4.1c-0.6,1.5-2,2.8-1.9,4.5C211.5,130.5,211.8,130.4,212.2,130.2z M204.2,106.8c0.1,0,0.1,0,0.2,0
		c0-0.7,0-1.5,0-2.3c-1.5,1.8-1.5,3.8-1.7,5.8c0.3-0.8,0.5-1.6,0.8-2.4C203.6,107.5,204,107.2,204.2,106.8z M213,135.1
		c0.1,0,0.2,0,0.3,0c0-1.6,0-3.3,0-4.9C211.7,131.8,213,133.5,213,135.1z M126.2,55.9c-0.2,1.3,0.8,1.6,1.7,1.9
		c-0.1-0.3-0.1-0.7-0.2-1C127.5,55.5,127.5,55.5,126.2,55.9z M172.2,111c0.1,0,0.2,0,0.2-0.1c-0.2-1.5-0.2-3-1.6-4.1
		C171.3,108.2,171.7,109.6,172.2,111z M117.2,165.1c0.1,0,0.2,0,0.3,0c0.2-1.6,0.3-3.1,0.5-4.7c-0.2,0-0.3,0-0.5,0
		C117.4,161.9,117.3,163.5,117.2,165.1z M202.2,148.2c0.1,0.1,0.3,0.2,0.4,0.2c0.9-0.7,0.8-2,1.2-3c-0.1,0-0.1-0.1-0.2-0.1
		C203.2,146.3,202.7,147.2,202.2,148.2z M121.7,51.9c0.1-0.9,0.2-1.8,0.2-2.6C120.9,50.6,120.9,51.1,121.7,51.9z M137.7,158.5
		c0.6-1,1.2-1.9,1-3.1c-0.1,0-0.2,0-0.3-0.1C138.1,156.3,137.9,157.4,137.7,158.5z M169.5,53.6c0.5-0.5,0.9-1,1.3-1.5
		c-0.6,0-1.1,0-1.6,0C169.4,52.7,169.4,53.1,169.5,53.6z M122.5,51.2c0.1,0,0.1,0,0.2,0.1c0.1-0.6,0.3-1.2,0.3-1.8
		c0-0.1-0.2-0.3-0.3-0.5c-0.1,0.1-0.4,0.3-0.4,0.4C122.3,50,122.4,50.6,122.5,51.2z M170.6,159.6c0.1,0,0.2,0,0.3,0
		c0-0.6,0-1.3,0-1.9C169.9,158.3,170.5,158.9,170.6,159.6z M123.2,51.4c-0.1,0-0.2,0-0.3-0.1c-0.3,0.5-0.8,1.1-0.5,1.7
		c0.1,0,0.3,0.1,0.4,0.1C123,52.5,123.1,51.9,123.2,51.4z M124.6,52.6c-1-0.1-0.8,0.4-0.8,0.8c0.1,0.2,0.3,0.4,0.4,0.6
		C124.4,53.6,124.5,53.1,124.6,52.6z"/>
	<path d="M89.6,52.8c-0.7,2.2-2.4,3.1-4.4,3.7c-0.9,0.2-1.8,0.2-2.7,0.3c-0.6,0.1-1.1,0.4-1.6,0.7c-0.4,0.3-0.7,0.8-1.1,1.3
		c-1.3,1.6-1.2,3.6,0.2,5.1c1,1,2,1.9,3.1,2.8c0.8,0.7,1.6,1.5,1.3,2.7c-0.3,1.3-1.1,2.1-2.4,2.5c-2.1,0.6-4.2,0-6.2-0.5
		c-2.1-0.5-4-1.6-5.7-3c-3.5-3.1-4.6-7.7-2.3-11.9c1.3-2.3,2.9-4.5,4.3-6.7c0.3-0.5,0.5-1.2,0.5-1.8c-0.3-3.5,1.6-5.7,4.1-7.7
		c0.1-0.1,0.2,0,0.4,0c0.4,0.4,0.7,0.8,1.1,1.3c-0.4,0.2-0.7,0.5-1.1,0.7c-2.2,1.4-3.5,4-2.8,6.4c0.7,2.7,2.5,4.6,5.1,5.6
		c1,0.4,2.2,0.9,3.3,0c0.1-0.1,0.4,0.1,0.6,0.2c0.1,0.1,0.3,0.2,0.4,0.2c1.5,0,2.8-0.4,3.9-1.4c0.1,0,0.1-0.1,0.1-0.3
		c-0.3,0.1-0.5,0.1-1,0.2c0.4-0.4,0.7-0.6,0.9-0.8c0.3-0.2,0.5-0.4,0.8-0.7C88.8,52,89.2,52.4,89.6,52.8z M75.1,52.8
		C75,52.9,75,52.9,74.9,53c-0.4-0.5-0.8-1-1.2-1.5c-0.1,0.2-0.2,0.3-0.3,0.5c-0.2-0.2-0.4-0.3-0.6-0.4c-1.2,1.2-1.6,2.7-1.4,4.3
		c0.2,1.5,1.2,2.3,2.5,2.8c1.3,0.4,2.6,0.3,3.5-0.7c0.8-0.8,1.4-1.9,2.1-2.9c-2.5-1.1-4.4-2.7-5.6-5.1c-0.1,0.1-0.2,0.1-0.2,0.2
		C74.1,51,74.6,51.9,75.1,52.8z M70,57.9c-0.1,0-0.2,0-0.4,0c-1.3,1.6-1.2,3.5-0.9,5.4c0.2,1.2,0.7,2.3,2.2,2.9
		c-0.1-0.6-0.1-1-0.3-1.2c-1.2-2-1.1-4-0.7-6.2C70.1,58.5,70,58.2,70,57.9z M77.7,63.1C77.5,64.5,81,68,82.6,68
		C81,66.1,78.6,65.4,77.7,63.1z"/>
	<path d="M78.1,41.4c-0.4-0.4-0.7-0.8-1.1-1.3c1.4-1.3,3.1-2.1,4.9-2.6c3-1,6.1-1.4,9.2-0.7c3.3,0.7,6.3,1.9,8.7,4.4
		c1.8,2,3.1,4.3,4,6.8c1.3,3.6,1.4,7.2,1.1,11c-0.3,3.5-0.8,6.9-2.2,10.1c-0.9,2-1.9,4-3.1,5.9c-1.8,2.9-3.7,5.6-5.6,8.4
		c-2,2.9-2.7,6.2-3.7,9.4c-0.1,0.3,0,0.7,0,1.1c1-0.2,1.9-0.4,2.9-0.5c0.3,0,0.6,0,0.9,0c-0.6,0.6-1.1,1.2-1.7,1.7
		c-0.4,0.1-0.7,0.3-1.1,0.4c-1.7,0.5-1.8,0.6-1.9,2.4c0,0.1-0.1,0.2-0.1,0.3c-0.1,0.1-0.2,0.2-0.3,0.2c-0.2-1-0.4-2-0.6-2.9
		c-0.1,0-0.1,0-0.2,0c0.1,1.1,0.1,2.1,0.2,3.2c-0.1,0-0.2,0-0.3,0c-0.1-1.3-0.4-2.7-0.2-4c0.4-2.4,0.9-4.9,1.8-7.2
		c0.8-2.2,1.9-4.2,3.1-6.2c1.5-2.6,3.3-5.1,4.9-7.7c0.4-0.5,1-1,1.3-1.5c0.7-1.3,1.3-2.7,1.8-4c1.5-3.9,2-8,2.1-12.2
		c0-4.4-0.9-8.5-3.8-12c-3.4-4.2-7.7-5.8-13-5C83.4,39.3,80.6,40,78.1,41.4z"/>
	<path d="M68.5,100.7c0.3-1.8,0.4-3.8,0.9-5.5c1.5-4.5,3.6-8.7,6.4-12.5c1.4-2,2.7-4.1,4.3-5.9c2.5-2.9,5.3-5.7,7.9-8.6
		c2.9-3,5-6.5,6.1-10.5c0-0.1,0.1-0.1,0.1-0.2c0.5,0.5,1,1,1.5,1.5c-0.1,0.3-0.1,0.7-0.2,1c-1.1,2.1-1.9,4.3-3.4,6.2
		c-3,3.9-6.2,7.5-9.4,11.2c-2,2.4-4.2,4.7-5.9,7.3c-1.5,2.3-2.6,4.9-3.9,7.4c-0.2,0.3-0.2,0.8-0.3,1.1c-0.3,0.8-0.9,1.6-1.1,2.5
		c-0.4,2-0.6,3.9-1,5.9c-0.1,0.3-0.4,0.6-0.5,0.9C69.6,101.9,69,101.3,68.5,100.7z"/>
	<path d="M206.3,102.6c-0.7-0.7-1.4-1.4-2.1-2.1c1.9-2.2,4.1-3.9,7.2-3.7c0.4,0,0.8,0,1.2-0.1c3.5-0.7,6.7,0,9.5,2.4
		c0.2,0.2,0.4,0.5,0.5,0.8c-0.7,0.7-1.5,1.5-2.2,2.2c-0.3-0.4-0.5-0.8-0.8-1.2c-1.2-1.6-3.9-2.5-5.8-1.8c-0.6,0.2-1.1,0.4-1.7,0
		c-0.2-0.1-0.7-0.1-1,0c-0.8,0.3-1.5,0.7-2.2,1.2c-0.3,0.2-0.6,0.7-0.8,1c-0.2,0.7-0.3,1.4-0.5,2.1c0,0-0.1,0-0.1,0
		c0-0.7,0.1-1.4,0.1-2.1c-0.1,0-0.2-0.1-0.3-0.1C207,101.7,206.6,102.1,206.3,102.6z"/>
	<path d="M220.5,102.2c0.7-0.7,1.5-1.5,2.2-2.2c0.2,0.6,0.6,1.2,0.7,1.8c0.4,2.2-0.2,4.2-1,6.2c-1,2.4-2.5,4.5-4.1,6.5
		c-0.8-0.8-1.6-1.6-2.4-2.4c0.9-0.1,1.4-0.6,1.9-1.4c0.7-1.2,1.3-2.4,2.1-3.4C221,105.7,221.4,104.1,220.5,102.2z"/>
	<path d="M68.5,100.7c0.6,0.6,1.1,1.1,1.7,1.7c0.2,0.4,0.5,0.8,0.5,1.2c0.1,1.7,0,3.5,0.2,5.2c0.3,2.1,1,4.1,1.5,6.2
		c-0.6,0.6-1.2,1.2-1.8,1.9c-0.6-2-1.2-3.9-1.7-5.9c-0.8-3.3-0.6-6.6-0.6-9.9C68.3,100.9,68.4,100.8,68.5,100.7z"/>
	<path d="M95.7,59c-0.5-0.5-1-1-1.5-1.5c0.3-1.8,0-3.4-0.9-5c-0.3-0.5-0.6-0.9-1-1.3c-0.9-1-1.7-0.8-2.2,0.5
		c-0.2,0.4-0.3,0.8-0.5,1.2c-0.4-0.4-0.8-0.8-1.3-1.3c0-0.2,0-0.4,0-0.6c0.3-1.4,0.6-2.9,0.8-4.3c0-0.1,0.1-0.3,0.1-0.4
		c0,0,0.1,0,0.1,0c0,1,0,1.9,0,2.9c0.1,0,0.1,0,0.2,0c0.1-0.7,0.2-1.5,0.3-2.2c0.2,0.4,0.2,0.8,0.2,1.2c0,0.3,0.2,0.6,0.3,0.9
		c0.2-0.2,0.6-0.4,0.7-0.7c0.2-0.5,0.4-1,0.5-1.5c0.1,0,0.2,0,0.3,0.1c0,0.4-0.1,0.8-0.1,1.1c0,0.3,0.1,0.6,0.2,0.8
		c0.6,0.6,1.4,1.1,2.2,1.7c-0.5-0.7-1-1.3-1.4-1.9c0.1-0.1,0.1-0.1,0.2-0.2c0.2,0.2,0.5,0.3,0.6,0.6c0.8,1.3,2.2,2.2,2,4
		c0.8,0.7,0.7,1.8,0.8,2.6C96.5,56.7,96,57.8,95.7,59z"/>
	<path d="M208.9,113.5c0.4-1,0.8-2.1,1.1-3.1c0.2-0.7,0.4-1.4,0.6-2.1c0.1-0.3,0.2-0.7,0.2-1c0.1,0,0.2,0,0.3,0c0,0.4,0,0.7,0.1,1.1
		c0.2,1.7-0.7,3-1.3,4.4C209.6,113,209.3,113.3,208.9,113.5z"/>
	<path d="M156,52.7c-0.7,0.3-1.5,0.5-2.2,0.8c-0.5,0.1-1,0-1-0.6c0-0.2,0.5-0.6,0.9-0.7c0.5-0.2,1.1-0.1,1.6-0.2
		C155.5,52.2,155.8,52.4,156,52.7z"/>
	<path d="M129.5,124.1c-0.7-0.6-1.4-1.2-2.1-1.8c0.8-0.4,2.1,0.2,2.6,1.2C129.9,123.7,129.7,123.9,129.5,124.1z"/>
	<path d="M164,159c0.6,1,0.7,2.2,0.2,3.1c-0.1-1-0.3-1.9-0.4-2.9C163.9,159.1,164,159.1,164,159z"/>
	<path d="M198.3,124.3c-0.7-0.8-1.4-1.5-2.2-2.3c0.1-0.1,0.2-0.2,0.3-0.3c0.7,0.8,1.3,1.6,2,2.4
		C198.5,124.2,198.4,124.2,198.3,124.3z"/>
	<path d="M214.9,111.1c0.5-0.6,1-1.2,1.4-1.8c0.1,0.1,0.2,0.1,0.3,0.2c-0.5,0.7-0.9,1.3-1.4,2C215.1,111.4,215,111.3,214.9,111.1z"
		/>
	<path d="M89.3,98.1c0.4,1.2,0.7,2.3,1.1,3.5c-0.8-0.9-1.4-1.9-1.3-3.2C89.1,98.3,89.2,98.2,89.3,98.1z"/>
	<path d="M86.1,49.4c-0.9,1.6-2.4,1.8-3.9,1.6c-1.5-0.2-2.8-1-3.4-2.5c-0.6-1.6-0.4-3.2,1-4.5c0.1-0.1,0.4-0.2,0.5-0.3
		c0.1,0.1,0.1,0.1,0.2,0.2c-0.3,0.3-0.6,0.6-0.8,1c-0.8,1.2-0.8,3.1-0.1,4.1c1,1.3,2.8,2,4.2,1.4c0.7-0.3,1.4-0.8,2-1.2
		C86,49.2,86,49.3,86.1,49.4z"/>
	<path d="M82.5,114.8c0.5-0.7,1-1.4,1.6-2c2.1-2.5,4.1-5.1,5.5-8.2c0.1-0.2,0.3-0.4,0.6-0.6c0,0.1,0,0.3-0.1,0.4
		c-1.8,3.8-4.2,7.2-7,10.3c-0.1,0.1-0.3,0.2-0.4,0.3C82.7,115,82.6,114.9,82.5,114.8z"/>
	<path d="M80.5,43.8c-0.1-0.1-0.1-0.1-0.2-0.2c1.2-0.8,3.7-1,4.8-0.3c1.3,0.8,2.1,2.7,1.7,4.4c-0.1,0.6-0.5,1.2-0.8,1.7
		c-0.1-0.1-0.1-0.1-0.2-0.2c0.5-1.3,0.7-2.7,0.1-4c-0.4-1.1-1.3-1.8-2.5-1.7c-0.8,0-1.6,0.3-2.4,0.4C80.9,43.8,80.7,43.8,80.5,43.8z
		"/>
	<path d="M82.5,114.8c0.1,0.1,0.2,0.2,0.2,0.2c0,0.1,0,0.2,0,0.3c-1.8,1.6-2.6,4-4.2,5.9c0.1-1.3,1.1-2.2,1.7-3.4
		c-0.4,0.2-0.7,0.3-1,0.4c0-0.1-0.1-0.1-0.1-0.2C80.2,117,81.4,115.9,82.5,114.8z"/>
	<path d="M179.2,122.9c-1.4-1.6-2.8-3.3-4.3-4.9C176.7,118.5,179,121,179.2,122.9z"/>
	<path d="M197.5,125.3c1.6,2,2.3,4.3,2.7,6.7c-1-2.2-2-4.4-2.9-6.6C197.3,125.3,197.4,125.3,197.5,125.3z"/>
	<path d="M74.6,89.6c1.4-2.9,3.1-5.7,5.5-8.1C78.3,84.2,76.4,86.9,74.6,89.6z"/>
	<path d="M169.3,120c1.4,1.7,2.7,3.5,2.9,5.8c-1-1.9-2.1-3.8-3.1-5.7C169.1,120.1,169.2,120.1,169.3,120z"/>
	<path d="M172,119.1c0.9,0.1,1.1,1.1,2,0.9c0.4,1,0.9,2.2,1.3,3.4c-0.1,0-0.1,0.1-0.2,0.1C174.1,122.1,173.1,120.7,172,119.1z"/>
	<path d="M104.1,127c-1,1.9-1.9,3.8-2.9,5.7c-0.1,0-0.2-0.1-0.3-0.1c0.5-2.1,1.7-3.9,2.9-5.7C103.9,126.9,104,126.9,104.1,127z"/>
	<path d="M94.8,126.9c-0.9,2-1.8,3.9-2.7,5.8C91.7,131.9,93.5,127.7,94.8,126.9z"/>
	<path d="M104.4,130.2c-0.7,1.8-1.4,3.5-2.2,5.4C101.9,134.5,103.3,130.7,104.4,130.2z"/>
	<path d="M197.1,133.8c-0.6-2-1.1-3.9-1.7-5.9C196.9,129.6,197.1,131.6,197.1,133.8z"/>
	<path d="M157.8,127c-0.4-1.6-0.8-3.2-1.2-4.8c0.1,0,0.3-0.1,0.4-0.1c1,1.4,0.9,3.2,1.1,4.8C158,127,157.9,127,157.8,127z"/>
	<path d="M88.9,131.1c-0.4-1.2,0.9-4,2.3-4.9C90.5,127.8,89.7,129.4,88.9,131.1z"/>
	<path d="M165.8,120.9c1.6,1.5,2.3,3.5,2.9,5.4c-0.1,0-0.1,0.1-0.2,0.1C167.6,124.6,166.7,122.7,165.8,120.9z"/>
	<path d="M178.8,126.5c-1-1.9-2-3.7-3-5.6C176.8,121.4,178.5,124.3,178.8,126.5z"/>
	<path d="M195,131.9c-0.7-1.7-1.3-3.4-2-5.1C194.3,127.5,195.5,130.7,195,131.9z"/>
	<path d="M81.7,125.7c1-1.8,1.6-3.8,3.1-5.3c0.1,0,0.1,0.1,0.2,0.1c-1,1.8-2,3.6-2.9,5.4C81.9,125.8,81.8,125.8,81.7,125.7z"/>
	<path d="M119.1,139.7c0.4-1.6,0.8-3.2,1.2-5.1c0.4,0.8-0.3,4.4-0.9,5.1C119.4,139.8,119.3,139.8,119.1,139.7z"/>
	<path d="M153.9,122.1c0.3,1.6,0.6,3.2,1,4.9c-0.8-0.3-1.4-3.7-1.2-4.8C153.8,122.1,153.8,122.1,153.9,122.1z"/>
	<path d="M100.7,129.7c-0.7,1.7-1.4,3.3-2.1,5c-0.1-0.1-0.3-0.1-0.4-0.2c0.7-1.7,1.4-3.3,2.1-5C100.4,129.6,100.6,129.7,100.7,129.7
		z"/>
	<path d="M170.6,127c-0.7-1.4-1.3-2.7-2.1-4.3C169.6,123,170.8,125.6,170.6,127z"/>
	<path d="M190.1,136.5c-0.1-1.5-0.2-3-0.4-4.7C190.6,132.7,190.9,135.3,190.1,136.5z"/>
	<path d="M158.7,141.7c-0.1-1.5-0.2-3.1-0.3-4.8c0.7,0.8,1,3.5,0.7,4.7C158.9,141.7,158.8,141.7,158.7,141.7z"/>
	<path d="M117.4,134.4c-0.5,1.8-1,3.4-1.5,5.2C115.4,138.7,116.5,135,117.4,134.4z"/>
	<path d="M107.5,132c-0.6,1.7-1.2,3.3-1.8,5C105.3,135.9,106.5,132.8,107.5,132z"/>
	<path d="M193.3,135.2c0-1.5,0-3,0-4.5C194,131.4,194.2,134.3,193.3,135.2z"/>
	<path d="M164.7,126.3c-0.6-1.6-1.2-3.1-1.8-4.7c0.1,0,0.2-0.1,0.3-0.1c1.1,1.4,1.3,3.1,1.9,4.7
		C164.9,126.2,164.8,126.2,164.7,126.3z"/>
	<path d="M126.5,134.2c-0.3,1.5-0.7,3-1,4.5c-0.6-0.4-0.1-3.1,0.7-4.5C126.3,134.1,126.4,134.2,126.5,134.2z"/>
	<path d="M114.1,134.1c-0.5,1.5-1.1,3-1.6,4.7C112.1,138.1,113,134.9,114.1,134.1z"/>
	<path d="M168.1,141c-0.2-1.5-0.3-3-0.5-4.6c0.1,0,0.2,0,0.3,0c0.3,1.5,0.8,3,0.5,4.6C168.3,140.9,168.2,140.9,168.1,141z"/>
	<path d="M122.6,139.9c0.2-1.5,0.5-2.9,1-4.2c0.1,0,0.3,0.1,0.4,0.1c-0.3,1.4-0.6,2.8-0.9,4.3C122.9,140,122.8,140,122.6,139.9z"/>
	<path d="M95,133.8c0.4-1.6,0.7-3.3,2.1-4.5c-0.6,1.5-1.3,3.1-1.9,4.6C95.2,133.8,95.1,133.8,95,133.8z"/>
	<path d="M159,124.2c0.9,0.5,1.5,3.8,1,4.6C159.6,127.2,159.3,125.7,159,124.2z"/>
	<path d="M110.8,132.6c-0.6,1.8-1.2,3.5-1.7,5.3c-0.2-0.1-0.3-0.1-0.5-0.2c0.7-1.7,1.3-3.5,2-5.2
		C110.6,132.5,110.7,132.6,110.8,132.6z"/>
	<path d="M78.1,85.1c1.3-1.5,2.5-3.1,3.8-4.6c0.1,0.1,0.2,0.2,0.3,0.2c-1.3,1.5-2.5,3.1-3.8,4.6C78.3,85.2,78.2,85.1,78.1,85.1z"/>
	<path d="M81.8,121.5c0.5-1.5,1.5-2.6,3-3.3c-0.9,1.2-1.8,2.3-2.7,3.5C82,121.6,81.9,121.6,81.8,121.5z"/>
	<path d="M147.5,122.4c0.5,1.5,0.4,3.1,0.5,4.7c-0.1,0-0.2,0-0.4,0c-0.2-1.6-0.3-3.1-0.5-4.7C147.2,122.4,147.3,122.4,147.5,122.4z"
		/>
	<path d="M141,135.3c-0.1,1.3-0.3,2.7-0.4,4c-0.2,0-0.3,0-0.5,0c0-1.4,0-2.7,0.5-4.1C140.7,135.2,140.9,135.2,141,135.3z"/>
	<path d="M177.2,135.6c0.2,1.5,0.3,3,0.5,4.5c-0.1,0-0.3,0-0.4,0.1c-0.2-1.5-0.4-2.9-0.6-4.4C176.9,135.6,177,135.6,177.2,135.6z"/>
	<path d="M126.7,140.5c0.3-1.5,0.6-3,1-4.7C128.1,136.8,127.5,139.8,126.7,140.5z"/>
	<path d="M155.7,137.7c0,1.4,0,2.8,0,4.1c-0.1,0-0.2,0-0.3,0c0-1.4,0-2.8,0-4.2C155.5,137.7,155.6,137.7,155.7,137.7z"/>
	<path d="M164.1,141.3c-0.2-1.4-0.3-2.8-0.5-4.2c0.1,0,0.2,0,0.3,0c0.5,1.3,0.7,2.7,0.6,4.1C164.4,141.3,164.3,141.3,164.1,141.3z"
		/>
	<path d="M188.5,134.2c-0.3-1.4-0.6-2.8-1-4.3C188.5,130.7,189.1,133.2,188.5,134.2z"/>
	<path d="M171.8,140.8c-0.1-1.4-0.3-2.8-0.5-4.4C172.2,137.1,172.5,139.7,171.8,140.8z"/>
	<path d="M100,65.9c0.5-2.2,1-4.4,1.5-6.6C101.8,60.3,100.9,64.6,100,65.9z"/>
	<path d="M145.2,141.6c0.1-1.3,0.2-2.6,0.3-4.2C146.2,138.3,146,140.9,145.2,141.6z"/>
	<path d="M152.6,124.6c0.2,1.2,0.7,2.4,0.3,3.7c-0.1,0-0.2,0-0.4,0c-0.1-1.2-0.3-2.5-0.4-3.7C152.3,124.6,152.5,124.6,152.6,124.6z"
		/>
	<path d="M84.7,127.9c0.4-1.9,1.2-3.6,2.6-5C86.4,124.6,85.6,126.2,84.7,127.9z"/>
	<path d="M89.1,71.5c1.2-1.6,2.4-3.2,3.5-4.8C91.8,68.5,90.8,70.3,89.1,71.5z"/>
	<path d="M169.7,138.3c-0.2-1.4-0.4-2.8-0.6-4.2c0.1,0,0.2,0,0.3,0c0.4,1.4,0.8,2.7,0.6,4.1C169.9,138.3,169.8,138.3,169.7,138.3z"
		/>
	<path d="M167,128c-0.5-1.4-1-2.9-1.5-4.3c0.1,0,0.2-0.1,0.3-0.1c1,1.3,1.2,2.8,1.5,4.3C167.1,128,167.1,128,167,128z"/>
	<path d="M97.7,131.7c0-1.6,0.6-3,2.2-4.1C99.1,129.1,98.4,130.4,97.7,131.7z"/>
	<path d="M144.2,135.4c-0.1,1.4-0.2,2.7-0.2,4.1c-0.2,0-0.3,0-0.5,0c0.1-1.4,0.2-2.7,0.2-4.1C143.9,135.3,144,135.4,144.2,135.4z"/>
	<path d="M174.5,126.7c-0.7-1.5-1.5-2.9-2.3-4.6C173.1,122.6,174.3,125,174.5,126.7z"/>
	<path d="M83.3,127.3c0-1.5,1.1-3.9,2.2-4.7C84.7,124.2,84,125.7,83.3,127.3z"/>
	<path d="M99.6,68.3c-0.9,1.9-1.7,3.7-2.6,5.6c-0.1,0-0.2-0.1-0.3-0.1c0.9-1.8,1.7-3.7,2.6-5.5C99.4,68.2,99.5,68.3,99.6,68.3z"/>
	<path d="M180.6,138.8c-0.2-1.4-0.3-2.9-0.5-4.3c0.1,0,0.2,0,0.3,0c0.2,1.4,0.9,2.8,0.6,4.3C180.8,138.8,180.7,138.8,180.6,138.8z"
		/>
	<path d="M142.6,124.7c0.8,0.6,0.9,2.2,0.3,3.9C142.7,127.3,142.6,126,142.6,124.7z"/>
	<path d="M75.4,113c0.7,1.6,1.3,3.3,2,4.9c-0.1,0.1-0.3,0.1-0.4,0.2c-0.6-1.6-1.3-3.3-1.9-4.9C75.2,113.1,75.3,113,75.4,113z"/>
	<path d="M94.5,99.6c-0.4-1.1-0.9-2.2-1.3-3.3C94.5,96.8,95.2,98.9,94.5,99.6z"/>
	<path d="M131.4,137.4c0.1,1.3-0.1,2.5-0.7,3.7C130.7,139.8,130.7,138.6,131.4,137.4z"/>
	<path d="M99.3,70.4c0.6-1.9,1.3-3.9,1.9-5.8c0.1,0,0.2,0.1,0.3,0.1c-0.6,1.9-1.2,3.9-1.8,5.8C99.6,70.4,99.5,70.4,99.3,70.4z"/>
	<path d="M161.9,135c0.2,1.3,0.4,2.6,0.6,3.9c-0.2,0-0.3,0-0.5,0.1c-0.2-1.3-0.4-2.6-0.5-3.9C161.6,135.1,161.8,135.1,161.9,135z"/>
	<path d="M110.6,138.5c0-1.6,0.7-3.1,1.5-4.4c-0.4,1.5-0.9,3-1.3,4.5C110.7,138.6,110.6,138.6,110.6,138.5z"/>
	<path d="M178.7,136.7c-0.2-1.3-0.4-2.5-0.6-3.8c0.1,0,0.2,0,0.2,0c0.7,1.2,0.9,2.4,0.7,3.8C178.9,136.7,178.8,136.7,178.7,136.7z"
		/>
	<path d="M106.5,129.4c-0.6,1.4-1.1,2.8-1.7,4.2c-0.1-0.1-0.3-0.1-0.4-0.2c0.5-1.4,1.1-2.8,1.6-4.2
		C106.2,129.3,106.4,129.4,106.5,129.4z"/>
	<path d="M81.7,119.5c-0.7,1.3-1.5,2.5-2.2,3.8c-0.1-1.7,1.2-2.7,2-3.9C81.5,119.4,81.6,119.4,81.7,119.5z"/>
	<path d="M196.5,126.5c1.1,0.9,1.7,2.6,1.5,4.1C197.5,129.3,197,128,196.5,126.5z"/>
	<path d="M93,98.4c0.9,1,1.1,2.6,0.5,3.4c-0.2-1.2-0.5-2.2-0.7-3.3C92.8,98.4,92.9,98.4,93,98.4z"/>
	<path d="M117.9,136.4c0.4-1.3,0.9-2.5,1.3-3.8c0.1,0,0.3,0.1,0.4,0.1c-0.4,1.3-0.8,2.5-1.2,3.8C118.2,136.5,118,136.5,117.9,136.4z
		"/>
	<path d="M136.3,139.5c0.3-1.3,0.5-2.6,0.8-4.1C137.5,136.3,137,139,136.3,139.5z"/>
	<path d="M173.3,137.8c-0.2-1.3-0.4-2.6-0.6-3.9c0.1,0,0.2,0,0.4-0.1c0.2,1.3,0.5,2.6,0.7,3.9C173.6,137.8,173.4,137.8,173.3,137.8z
		"/>
	<path d="M183.5,138.7c0.1-1.5,0.1-2.8,0.2-4.2C184.3,135.3,184.3,137.9,183.5,138.7z"/>
	<path d="M175.4,140.2c-0.1-1.3-0.2-2.6-0.4-3.9c0.1,0,0.3,0,0.4,0c0.2,1.3,0.3,2.6,0.5,3.9C175.8,140.2,175.6,140.2,175.4,140.2z"
		/>
	<path d="M150.6,125.6c-0.2-1-0.3-2.1-0.5-3.3c0.8,0.4,1.1,1.8,0.9,3.2C150.8,125.6,150.7,125.6,150.6,125.6z"/>
	<path d="M93.5,125.8c-0.7,1-1.3,2-2.1,3.2C91.3,127.9,92.5,125.9,93.5,125.8z"/>
	<path d="M141.6,141.5c0.1-1.1,0.2-2.3,0.4-3.5c0.6,0.6,0.6,2.3-0.1,3.5C141.8,141.5,141.7,141.5,141.6,141.5z"/>
	<path d="M100.6,98.8c-0.5-1.2-0.9-2.2-1.4-3.3C100.2,95.7,101.1,97.7,100.6,98.8z"/>
	<path d="M87.9,125.3c-0.6,1.2-1.3,2.5-1.9,3.7c-0.1-0.1-0.2-0.1-0.4-0.2c0.6-1.2,1.3-2.5,1.9-3.7C87.6,125.1,87.7,125.2,87.9,125.3
		z"/>
	<path d="M144.4,125.7c-0.1-1.1-0.2-2.3-0.4-3.5C144.7,122.6,144.9,124.1,144.4,125.7z"/>
	<path d="M137.8,141.5c0.2-1.2,0.4-2.3,0.6-3.5c0.1,0,0.2,0,0.3,0c0.3,1.2-0.2,2.4-0.5,3.5C138.1,141.6,138,141.5,137.8,141.5z"/>
	<path d="M135,137.8c-0.2,1.2-0.3,2.4-0.5,3.6c-0.1,0-0.3,0-0.4-0.1c0.1-1.2,0.3-2.4,0.4-3.6C134.7,137.7,134.9,137.8,135,137.8z"/>
	<path d="M187.2,133.4c0,1.4,0,2.9,0,4.3c-0.1,0-0.2,0-0.3,0c0-1.4,0-2.9,0-4.3C187,133.4,187.1,133.4,187.2,133.4z"/>
	<path d="M200.1,105.2c-1.4,0.5-2.8,0.9-4.2,1.4C197.2,105.6,198.5,104.9,200.1,105.2z"/>
	<path d="M156.9,139.3c-0.2-1.1-0.4-2.2-0.6-3.4c0.1,0,0.3-0.1,0.4-0.1c0.2,1.1,0.5,2.2,0.7,3.3
		C157.3,139.3,157.1,139.3,156.9,139.3z"/>
	<path d="M75.3,119c-0.6-1.4-1.2-2.8-1.8-4.2c0.1,0,0.2-0.1,0.3-0.1c0.6,1.4,1.2,2.8,1.8,4.2C75.5,119,75.4,119,75.3,119z"/>
	<path d="M160.6,141.6c-0.1-1.3-0.2-2.6-0.4-3.9c0.1,0,0.3,0,0.4,0c0.1,1.3,0.2,2.6,0.3,3.9C160.9,141.6,160.7,141.6,160.6,141.6z"
		/>
	<path d="M75.6,116.9c-0.6-1.2-1.3-2.3-1.5-3.6c0.1,0,0.2-0.1,0.3-0.1c0.5,1.2,1,2.4,1.5,3.6C75.8,116.8,75.7,116.9,75.6,116.9z"/>
	<path d="M88,105c-0.5-1.3-1.1-2.6-1.6-4c0.1,0,0.2-0.1,0.3-0.1c0.5,1.3,1.1,2.6,1.6,4C88.2,104.9,88.1,105,88,105z"/>
	<path d="M138.2,121.4c0,1,0,1.9,0,3c-0.7-0.7-0.7-2.1-0.2-3C138.1,121.4,138.2,121.4,138.2,121.4z"/>
	<path d="M153.9,139.6c-0.6-0.8-0.6-2.6,0-3.5C153.9,137.4,153.9,138.4,153.9,139.6z"/>
	<path d="M197.5,103.1c-1.2,0.5-2.5,1.1-3.9,1.7C194.8,103.7,196,103,197.5,103.1z"/>
	<path d="M116.2,132.5c-0.5,1.2-0.9,2.4-1.5,3.8C114.5,135.4,115.3,133.2,116.2,132.5z"/>
	<path d="M93.3,133.3c0.4-1,0.7-1.9,1.1-3c0.3,0.8-0.2,2.4-0.8,3.1C93.5,133.3,93.4,133.3,93.3,133.3z"/>
	<path d="M96.2,95.9c1,0.4,1.5,2,1,2.8C96.9,97.6,96.5,96.7,96.2,95.9z"/>
	<path d="M139.5,127.6c0-1,0-2.1,0-3.1C140,124.9,140.1,126.7,139.5,127.6z"/>
	<path d="M122.6,133.7c-0.2,1.3-0.5,2.5-0.8,3.9C121.3,137,121.8,134.8,122.6,133.7z"/>
	<path d="M141,125.5c0-1,0-2.1,0-3.1c0.1,0,0.2,0,0.3,0c0,1,0,2.1,0,3.1C141.2,125.4,141.1,125.4,141,125.5z"/>
	<path d="M97.7,42.9c0.9,1.1,1.9,2.3,2.8,3.4c-0.1,0.1-0.2,0.1-0.3,0.2c-0.9-1.1-1.9-2.3-2.8-3.4C97.5,43,97.6,42.9,97.7,42.9z"/>
	<path d="M103.1,98.4c-0.4-1.2-0.7-2.2-1-3.5C102.9,95.4,103.5,97.6,103.1,98.4z"/>
	<path d="M91.5,99.3c-0.3-0.8-0.7-1.5-1.1-2.4c1,0.3,1.5,1.2,1.4,2.3C91.7,99.2,91.6,99.2,91.5,99.3z"/>
	<path d="M148.6,141.8c0-1.1,0-2.2,0-3.3c0.1,0,0.2,0,0.3,0c0,1.1,0,2.2,0,3.3C148.8,141.8,148.7,141.8,148.6,141.8z"/>
	<path d="M156.1,124.7c0.2,1.2,0.4,2.1,0.6,3.3C155.9,127.4,155.6,125.6,156.1,124.7z"/>
	<path d="M98.1,65.5c0.5-1.2,1-2.4,1.4-3.7c0.1,0.1,0.3,0.1,0.4,0.2c-0.5,1.2-1,2.4-1.5,3.6C98.3,65.6,98.2,65.6,98.1,65.5z"/>
	<path d="M161.3,126.6c-0.3-1-0.6-2-0.9-3.1c0.1,0,0.2-0.1,0.2-0.1c0.8,0.9,0.7,2,1,3C161.5,126.5,161.4,126.5,161.3,126.6z"/>
	<path d="M188.7,102.2c0.8-1,1.6-2.1,2.9-2.4c0,0.1,0.1,0.1,0.1,0.2C190.7,100.7,189.7,101.5,188.7,102.2z"/>
	<path d="M82.5,53.4c-1.3,0-2.7-0.1-3.7-1.1C80,52.7,81.2,53,82.5,53.4z"/>
	<path d="M74.9,47.8c-0.3-2,0.5-3.6,2-4.8C75.6,44.3,74.9,45.9,74.9,47.8z"/>
	<path d="M191.7,133.5c-0.1-1.1-0.3-2.1-0.4-3.2c0.1,0,0.3,0,0.4-0.1c0.2,1,0.3,2.1,0.5,3.1C192,133.4,191.8,133.5,191.7,133.5z"/>
	<path d="M152.2,138.3c-0.1,1.2-0.1,2.3-0.2,3.4C151.4,141,151.5,139.2,152.2,138.3z"/>
	<path d="M130.1,134.6c-0.2,1-0.3,2.1-0.5,3.1c-0.1,0-0.3,0-0.4-0.1c0.1-1,0.3-2.1,0.4-3.1C129.8,134.6,130,134.6,130.1,134.6z"/>
	<path d="M109.8,130.8c-0.6,1.3-1,2.3-1.6,3.6C108,133.1,108.6,131.9,109.8,130.8z"/>
	<path d="M102.1,60.6c0.1-1.4,0.2-2.8,0.3-4.2c0.1,0,0.2,0,0.2,0c-0.1,1.4-0.1,2.8-0.2,4.1C102.3,60.6,102.2,60.6,102.1,60.6z"/>
	<path d="M101.9,51c-0.4-1.2-0.9-2.3-1.3-3.5c0.1,0,0.2-0.1,0.3-0.1c0.4,1.2,0.8,2.3,1.3,3.5C102.2,51,102.1,51,101.9,51z"/>
	<path d="M148.9,127.2c0-0.7-0.1-1.4-0.1-2.3C149.7,125.5,149.7,126.4,148.9,127.2z"/>
	<path d="M98.3,95.5c0.2,0.7,0.9,1.3,0.6,2.1c-0.1,0-0.2,0.1-0.4,0.1c-0.2-0.7-0.4-1.4-0.7-2.2C98,95.6,98.1,95.6,98.3,95.5z"/>
	<path d="M89.2,103.1c-0.5-1.2-0.9-2.4-1.4-3.7c0.1,0,0.2-0.1,0.4-0.1c0.4,1.2,0.8,2.5,1.3,3.7C89.3,103,89.3,103,89.2,103.1z"/>
	<path d="M81.6,54.1c-1.3,0-2.5-0.1-3.6-1.2C79.4,53.3,80.5,53.7,81.6,54.1z"/>
	<path d="M87.5,106.1c-0.5-1.1-1-2.1-1.4-3.2c0.1,0,0.1-0.1,0.2-0.1c0.5,1,1.1,2.1,1.6,3.1C87.8,106,87.6,106.1,87.5,106.1z"/>
	<path d="M88.4,90.9c-0.2,1.1-0.5,2.2-0.7,3.3c-0.4-1.2,0.3-2.2,0.4-3.3C88.1,90.9,88.2,90.9,88.4,90.9z"/>
	<path d="M88.2,73.5c0.8-0.9,1.7-1.8,2.5-2.7c0.1,0.1,0.2,0.1,0.2,0.2c-0.8,0.9-1.7,1.9-2.5,2.8C88.4,73.6,88.3,73.5,88.2,73.5z"/>
	<path d="M102.4,52.1c0.1,1,0.2,2.1,0.2,3.1c-0.1,0-0.2,0-0.3,0c-0.1-1-0.2-2.1-0.2-3.1C102.2,52.1,102.3,52.1,102.4,52.1z"/>
	<path d="M162.9,126.6c-0.3-0.8-0.6-1.7-0.9-2.6C162.8,124.1,162.9,124.4,162.9,126.6z"/>
	<path d="M96.3,99.9c-0.3-0.7-0.5-1.4-0.8-2.1c0.1-0.1,0.3-0.1,0.4-0.2c0.3,0.7,0.6,1.4,0.9,2.1C96.6,99.7,96.5,99.8,96.3,99.9z"/>
	<path d="M185.5,132.9c0,1,0,2,0,3c-0.1,0-0.2,0-0.2,0c0-1,0-2,0-3C185.3,132.9,185.4,132.9,185.5,132.9z"/>
	<path d="M94,41c-1.5-0.3-2.8-0.5-4.1-0.8C91.2,40.3,92.6,40.2,94,41z"/>
	<path d="M91,39.6c-1.6,0-3.2,0-4.7,0c0-0.1,0-0.1,0-0.2c1.6,0,3.2,0,4.7,0C91,39.5,91,39.6,91,39.6z"/>
	<path d="M86.1,105.7c-0.4-1.1-0.7-2.1-1.1-3.2c0.1,0,0.2-0.1,0.3-0.1c0.4,1,0.7,2.1,1.1,3.1C86.4,105.6,86.3,105.6,86.1,105.7z"/>
	<path d="M77.8,87.6c0.5-0.9,1.1-1.8,1.6-2.7c0.1,0.1,0.2,0.1,0.3,0.2c-0.6,0.9-1.1,1.8-1.7,2.6C78,87.7,77.9,87.6,77.8,87.6z"/>
	<path d="M86.5,76.4c-0.8,0.8-1.6,1.5-2.3,2.3c-0.1-0.1-0.1-0.1-0.2-0.2C84.8,77.8,85.6,77,86.5,76.4C86.5,76.3,86.5,76.3,86.5,76.4
		z"/>
	<path d="M196.7,104.4c0.8-0.3,1.6-0.6,2.4-0.8c0,0.1,0.1,0.3,0.1,0.4c-0.8,0.3-1.6,0.5-2.4,0.8
		C196.7,104.7,196.7,104.6,196.7,104.4z"/>
	<path d="M81.8,79c0.8-0.7,1.6-1.4,2.3-2.1c0.1,0.1,0.1,0.1,0.2,0.2c-0.8,0.7-1.5,1.5-2.3,2.2C82,79.2,81.9,79.1,81.8,79z"/>
	<path d="M102,99.6c-0.2-0.8-0.4-1.6-0.7-2.4c0.1,0,0.2-0.1,0.3-0.1c0.3,0.8,0.6,1.5,0.8,2.3C102.4,99.5,102.2,99.6,102,99.6z"/>
	<path d="M146,128.2c0-0.9,0-1.9,0-2.8c0.1,0,0.1,0,0.2,0c0,0.9,0,1.9,0,2.8C146.1,128.2,146,128.2,146,128.2z"/>
	<path d="M98.3,67.8c0.4-0.9,0.7-1.8,1.1-2.7c0.1,0,0.2,0.1,0.3,0.1c-0.4,0.9-0.8,1.8-1.1,2.6C98.5,67.8,98.4,67.8,98.3,67.8z"/>
	<path d="M97.1,43.5c0.7,0.8,1.3,1.7,2,2.5c-0.1,0.1-0.2,0.1-0.2,0.2c-0.7-0.8-1.3-1.7-2-2.5C97,43.7,97.1,43.6,97.1,43.5z"/>
	<path d="M76,88.9c0.5-0.9,1-1.8,1.5-2.7c0.1,0.1,0.2,0.1,0.3,0.2c-0.5,0.9-1.1,1.7-1.6,2.6C76.2,88.9,76.1,88.9,76,88.9z"/>
	<path d="M171.8,121.4c-0.4-0.5-0.8-1-1.4-1.6c1.3-0.1,1.2,0.8,1.6,1.4C171.9,121.2,171.8,121.3,171.8,121.4z"/>
	<path d="M76.8,114.3c0.4,0.9,0.8,1.9,1.2,2.8c-0.1,0-0.2,0.1-0.2,0.1c-0.4-0.9-0.8-1.9-1.3-2.8C76.6,114.4,76.7,114.4,76.8,114.3z"
		/>
	<path d="M90.1,131.7c0.3-0.6,0.5-1.3,0.8-1.9c0.1,0,0.2,0.1,0.3,0.1c-0.2,0.7-0.5,1.3-0.7,2C90.4,131.8,90.2,131.7,90.1,131.7z"/>
	<path d="M85,76.3c0.6-0.7,1.1-1.4,1.7-2.1c0.1,0.1,0.2,0.1,0.2,0.2c-0.5,0.7-1.1,1.4-1.6,2.1C85.1,76.5,85,76.4,85,76.3z"/>
	<path d="M192.9,100.7c-0.8,0.5-1.7,1-2.5,1.6c0-0.1-0.1-0.1-0.1-0.2c0.8-0.5,1.6-1.1,2.4-1.6C192.8,100.5,192.9,100.6,192.9,100.7z
		"/>
	<path d="M187.6,98.2c-0.6,0.5-1.2,1-1.8,1.6c-0.1-0.1-0.2-0.2-0.2-0.2c0.6-0.5,1.2-1.1,1.7-1.6C187.5,98,187.6,98.1,187.6,98.2z"/>
	<path d="M189.1,98.7c-0.6,0.5-1.1,0.9-1.7,1.4C187.6,99.2,188.1,98.6,189.1,98.7z"/>
	<path d="M149.3,124c-0.8-0.7-0.8-1.2-0.2-2C149.2,122.7,149.2,123.4,149.3,124z"/>
	<path d="M182.1,138.8c0.1-0.9,0.1-1.8,0.2-2.6c0,0,0.1,0,0.1,0c0,0.9,0,1.8,0,2.7C182.3,138.8,182.2,138.8,182.1,138.8z"/>
	<path d="M142.3,60.7c0.8-0.5,1.2-0.5,1.8-0.1c1.2,0.8,2.5,0.6,3.8,0.2c0.4-0.1,0.8-0.4,1.2-0.4c0.2,0,0.6,0.1,0.7,0.3
		c0.1,0.2-0.1,0.5-0.3,0.7c-1.7,1.3-3.7,1.5-5.7,0.8C143.3,62,142.9,61.3,142.3,60.7z"/>
	<path d="M132.1,70.1c-1.1,2.6-2.2,5.2-3.4,8.2c-0.1-0.5-0.4-0.9-0.3-1.1c0.3-1,0.6-2,1-3c0.5-1.3,1.1-2.5,1.7-3.7
		c0.1-0.3,0.5-0.4,0.7-0.6C131.9,69.9,132,70,132.1,70.1z"/>
	<path d="M129.1,80.8c-0.2-2.6,0.9-4.7,1.7-6.8c0.1-0.2,0.4-0.2,0.7-0.3c0.1,0.2,0.2,0.5,0.2,0.7c-0.6,2-1.3,3.9-1.9,5.9
		C129.7,80.4,129.4,80.6,129.1,80.8z"/>
	<path d="M128.4,74c0-0.3-0.1-0.6,0-0.9c0.9-1.9,1.9-3.7,2.9-5.5c0.2-0.4,0.6-0.8,1.1-0.3c-1.3,2.2-2.5,4.4-3.8,6.6
		C128.6,74,128.5,74,128.4,74z"/>
	<path d="M128.6,69.8c0-0.3-0.1-0.6,0-0.8c0.8-1.3,1.6-2.6,2.5-3.8c0.3-0.3,0.4-1.3,1.1-0.8c0.1,0.1-0.1,1-0.4,1.5
		c-0.8,1.2-1.7,2.4-2.5,3.6c-0.1,0.2-0.2,0.3-0.3,0.5C128.9,69.9,128.8,69.9,128.6,69.8z"/>
	<path d="M131.3,77.3c0.2,0.5,0.5,0.7,0.4,0.9c-0.3,1.5-0.7,2.9-1.1,4.4c-0.1,0.2-0.3,0.4-0.6,0.5C130.1,81.2,130.2,79.3,131.3,77.3
		z"/>
	<path d="M135.4,74.5c-0.5,2-1.1,4-1.6,6C132.8,79.3,133.9,74.9,135.4,74.5z"/>
	<path d="M136,96.8c0,2.4,0,4.7,0,7.2C135.1,103.1,135.1,98.4,136,96.8z"/>
	<path d="M121.8,93.4c-0.1-2.6,1.2-6.1,2.6-6.5C123.4,89.2,122.6,91.3,121.8,93.4z"/>
	<path d="M120.5,91c1.1-2.5,2.1-4.9,3.1-7.3c0.2,0,0.3,0.1,0.5,0.1c0,0.4,0,0.8-0.2,1.1c-1,2-2,3.9-3,5.9
		C120.9,90.9,120.8,90.9,120.5,91z"/>
	<path d="M125.1,85.4c-0.8-1.3,0.1-5.6,1.4-6.6C126,81,125.6,83.2,125.1,85.4z"/>
	<path d="M137.6,105.8c-1-2.5-0.6-5-0.3-7.4c0.1,0,0.2,0,0.3,0C137.6,100.8,137.6,103.2,137.6,105.8z"/>
	<path d="M128.5,98.1c-0.2,2.2-0.4,4.4-0.5,6.7c-0.1,0-0.2,0-0.2,0c-0.4-2.3-0.4-4.5,0.4-6.7C128.3,98.1,128.4,98.1,128.5,98.1z"/>
	<path d="M122,96.6c-0.2-1.5,1.4-5.9,2.7-6.5C123.7,92.4,122.8,94.5,122,96.6z"/>
	<path d="M121.9,84.4c0.7-1.3,1.5-2.5,2-3.7c0.5-1.2,0.7-2.6,1.2-3.8C124.4,79.5,124.6,82.4,121.9,84.4z"/>
	<path d="M132.1,80.6c0.8,1.1,0.4,3.4-0.7,4.7C131.3,83.6,131.5,82.2,132.1,80.6z"/>
	<path d="M157.2,83.5c-0.8-1.1-1.1-2.8-0.7-3.7C157.7,80.4,158.1,82.5,157.2,83.5z"/>
	<path d="M131,94c-0.2,1.8-0.4,3.7-0.7,5.6C129.5,98.5,129.9,95,131,94z"/>
	<path d="M155.3,87.2c-0.1-1.2-0.2-2.4-0.2-3.5c0-0.1,0.2-0.3,0.3-0.4c0.1,0,0.3,0.1,0.4,0.2c0.5,0.6,0.5,2.9,0,3.5
		C155.7,87.1,155.6,87.1,155.3,87.2z"/>
	<path d="M134.7,106.7c0.2,1.8,0.4,3.7,0.6,5.7c-0.9-0.6-1.3-3.9-0.9-5.7C134.5,106.8,134.6,106.8,134.7,106.7z"/>
	<path d="M136,77.9c-0.2,1.5-0.5,3-0.7,4.6c-0.5-1.4-0.7-2.8-0.1-4.1c0.1-0.3,0.4-0.4,0.6-0.7C135.8,77.8,135.9,77.8,136,77.9z"/>
	<path d="M133.1,83.5c1,0.8,1.1,2.9,0,3.6C132.6,85.9,132.6,84.7,133.1,83.5z"/>
	<path d="M155.8,68.1c1.8,0.5,1.9,2.1,2.8,3.2C157.8,71.5,156.5,70.1,155.8,68.1z"/>
	<path d="M140.3,85.1c-1.1-0.8-1.3-3.8-0.3-4.4C140.1,82.2,140.2,83.6,140.3,85.1z"/>
	<path d="M117.8,72.7c0.6-1.2,4.6-3.5,5.7-3.3C121.6,70.5,119.8,71.6,117.8,72.7z"/>
	<path d="M141.4,91.9c0.2-0.2,0.4-0.6,0.5-0.6c0.2,0,0.5,0.2,0.6,0.4c0.3,0.7,0.5,1.3,0.6,2c0,0.2-0.1,0.4-0.1,0.6
		c-0.2-0.1-0.6-0.1-0.6-0.2C142,93.4,141.8,92.7,141.4,91.9z"/>
	<path d="M120,75c-1.4,1.1-2.9,2.3-4.3,3.4c1.1-1.5,2.3-3,4.1-3.6C119.8,74.8,119.9,74.9,120,75z"/>
	<path d="M121.4,72.1c-1.7,1.2-3.4,2.3-4.9,3.4C116.8,74.4,120.3,71.9,121.4,72.1z"/>
	<path d="M153.3,89.9c0.1-1.2,0.1-2.5,0.2-3.7C154.5,87.1,154.4,89,153.3,89.9z"/>
	<path d="M155.7,70.5c1.7,0.2,1.7,1.9,2.7,2.8C157.3,73.4,156.2,72.1,155.7,70.5z"/>
	<path d="M109.2,91.7c0.6-1.9,1.7-3.4,3.5-4.3C111.5,88.8,110.3,90.3,109.2,91.7z"/>
	<path d="M161.8,87.9c-1.1-1.1-1.2-2.6-1.4-4.1C161.2,85,161.8,86.4,161.8,87.9z"/>
	<path d="M147.7,107.4c-0.6-1.6-0.3-3.2,0-4.8c0.1,0,0.2,0,0.2,0c0,1.6,0,3.2,0,4.8C147.9,107.4,147.8,107.4,147.7,107.4z"/>
	<path d="M146.1,101.9c0,1.3,0,2.7,0,4.1C145.3,105.1,145.2,103.1,146.1,101.9z"/>
	<path d="M141,92.8c-0.1,0.1-0.2,0.3-0.4,0.5c-0.1-0.1-0.4-0.2-0.4-0.4c-0.3-0.6-0.5-1.2-0.7-1.8c-0.1-0.2,0.1-0.5,0.2-0.8
		c0.2,0.2,0.6,0.3,0.7,0.5C140.7,91.5,140.8,92.1,141,92.8z"/>
	<path d="M153.5,101.2c-0.1,1.8-0.3,3.6-0.4,5.4c-0.1,0-0.2,0-0.3,0c-0.2-1.8,0.2-3.6,0.5-5.4C153.3,101.1,153.4,101.1,153.5,101.2z
		"/>
	<path d="M129.4,92c0.1,0.3,0.3,0.6,0.2,0.9c-0.2,1.1-0.6,2.2-0.8,3.2C128.2,95.5,128.4,93.7,129.4,92z"/>
	<path d="M126.4,86.4c-0.2-1.6,0.2-3.2,0.6-4.7c0.1,0,0.2,0,0.3,0c-0.2,1.6-0.4,3.1-0.6,4.7C126.6,86.4,126.5,86.4,126.4,86.4z"/>
	<path d="M136.9,80.7c0.8,0.5,0.8,1.1,0,3.5C136.5,83.5,136.5,82.2,136.9,80.7z"/>
	<path d="M127.6,95.1c-0.3,1.9-0.7,3.8-1,5.7c-0.1,0-0.2,0-0.4-0.1c0.3-1.9,0.7-3.8,1-5.7C127.3,95,127.5,95,127.6,95.1z"/>
	<path d="M124.7,93.9c-0.4,1.3-0.7,2.7-1.2,4.1C123.1,97.1,123.7,94.7,124.7,93.9z"/>
	<path d="M151.8,114.8c0.1-1.4,0.7-2.6,1.1-3.9c0.1,0,0.2,0,0.3,0.1c-0.3,1.3-0.6,2.6-0.9,3.9C152.2,114.9,152,114.9,151.8,114.8z"
		/>
	<path d="M150.6,115.5c-0.4-1.5,0.5-2.9,0.6-4.3c0.1,0,0.2,0,0.3,0c-0.2,1.4-0.4,2.9-0.6,4.3C150.8,115.6,150.7,115.5,150.6,115.5z"
		/>
	<path d="M158.3,79.5c-0.8-0.9-0.8-1.9-1.2-3c0.5,0.2,0.9,0.2,1,0.4C158.5,77.7,158.6,78.5,158.3,79.5z"/>
	<path d="M132.3,96.9c0,1.6,0,3,0,4.6C131.5,100.4,131.5,98,132.3,96.9z"/>
	<path d="M151.9,88.6c0.4,1.3-0.3,2.4-0.4,3.8C150.9,91.6,151.2,89.5,151.9,88.6z"/>
	<path d="M174.4,110.8c-0.9-2.1-1.4-4.1-1.2-6.3C173.6,106.5,174,108.6,174.4,110.8z"/>
	<path d="M157.7,107.7c-0.2,1.6-0.4,3.1-0.6,4.7c-0.1,0-0.3,0-0.4-0.1c0-1.6,0.5-3.1,0.7-4.6C157.4,107.7,157.6,107.7,157.7,107.7z"
		/>
	<path d="M113.5,105.9c-0.2,1.7-0.4,3.3-0.6,4.8C112.4,109.8,112.6,106.6,113.5,105.9z"/>
	<path d="M155.6,99.9c-0.1,1.7-0.2,3.3-0.3,5C154.7,103.7,154.9,100.6,155.6,99.9z"/>
	<path d="M140.2,106.2c-0.7-1.2-1-2.4-0.6-3.8C140.3,103.6,139.9,105,140.2,106.2z"/>
	<path d="M138.6,109.7c0.3,1.3,0.5,2.7,0.8,4c-0.1,0-0.2,0-0.2,0.1c-0.4-1.3-1.2-2.5-0.9-4C138.4,109.7,138.5,109.7,138.6,109.7z"/>
	<path d="M112.2,89.7c-0.9,1.4-1.8,2.7-2.8,4.1c0.7-1.5,1.1-3.2,2.5-4.3C112,89.6,112.1,89.6,112.2,89.7z"/>
	<path d="M129.6,105.4c-0.1-1.4-0.5-2.8,0.3-4.1c0,1.4,0,2.8,0,4.1C129.8,105.5,129.7,105.4,129.6,105.4z"/>
	<path d="M134.9,71.3c-0.4,1.3-0.9,2.5-1.3,3.8C133.1,74,134,71.4,134.9,71.3z"/>
	<path d="M136.9,107.8c0.3,1.9,0.5,3.7,0.8,5.6C136.8,111.6,136.7,109.7,136.9,107.8z"/>
	<path d="M145.4,111.1c-1-0.5-1.2-1.9-0.6-3.3C145.1,108.9,145.3,110,145.4,111.1z"/>
	<path d="M159.8,86.4c0.3,1.5,0.6,3,1,4.6c-0.1,0-0.2,0.1-0.4,0.1c-0.3-1.5-0.7-3-1-4.5C159.6,86.5,159.7,86.4,159.8,86.4z"/>
	<path d="M109.9,88.7c0.4-1.7,1.8-2.7,3-3.8c0.1,0.1,0.1,0.1,0.2,0.2C112,86.3,111,87.5,109.9,88.7z"/>
	<path d="M168.9,95c-0.1-1.9-0.3-3.8-0.4-5.7c0.1,0,0.2,0,0.3,0c0.2,1.9,0.3,3.8,0.5,5.6C169.1,95,169,95,168.9,95z"/>
	<path d="M143.7,89.5c-0.9-1.5-1.2-3.1-0.8-4.9C143.1,86.2,143.4,87.9,143.7,89.5z"/>
	<path d="M143.3,107.9c0.1,1,0.1,2,0.2,3.2C142.6,110.4,142.5,108.9,143.3,107.9z"/>
	<path d="M145,95.2c-0.7-0.5-1-1.3-1-2.3C145,93,145.3,93.6,145,95.2z"/>
	<path d="M153.8,82.5c-0.1-1.5-0.3-3-0.4-4.4C154.1,79.5,154.1,81,153.8,82.5z"/>
	<path d="M151.4,98.6c0.2-1.5,0.5-3,0.7-4.5c0.1,0,0.2,0,0.4,0.1c-0.3,1.5-0.5,3-0.8,4.5C151.6,98.7,151.5,98.6,151.4,98.6z"/>
	<path d="M159.6,108.1c-0.2,1.4-0.4,2.7-0.6,4.1c-0.1,0-0.3,0-0.4-0.1c0.2-1.3,0.4-2.7,0.6-4C159.4,108.1,159.5,108.1,159.6,108.1z"
		/>
	<path d="M120.9,69.2c1.1-0.7,2.3-1.4,3.4-2.1c0.1,0.1,0.1,0.3,0.2,0.4c-1.2,0.7-2.3,1.3-3.5,2C121,69.4,120.9,69.3,120.9,69.2z"/>
	<path d="M154.9,79.9c-0.4-1.4-0.8-2.8-1.3-4.4C154.8,76.9,154.9,78.4,154.9,79.9z"/>
	<path d="M150.9,95.1c-0.3,1.3-0.7,2.6-1,3.9c-0.1,0-0.2-0.1-0.3-0.1c0.3-1.3,0.6-2.6,0.9-3.9C150.7,95.1,150.8,95.1,150.9,95.1z"/>
	<path d="M164.1,74c0.9,0.9,1.8,1.7,2.8,2.6c-0.1,0.1-0.1,0.2-0.2,0.2c-0.9-0.8-1.9-1.7-2.8-2.5C163.9,74.2,164,74.1,164.1,74z"/>
	<path d="M155.3,77.5c-0.5-1.7-1-3.1-1.4-4.6C154.6,73.4,155.3,75.8,155.3,77.5z"/>
	<path d="M139.2,91.7c-1.1-0.3-1.4-1.1-1.1-2.6C138.9,89.9,138.5,90.9,139.2,91.7z"/>
	<path d="M167.4,78.9c-0.9-0.8-1.9-1.6-2.8-2.4c0.1-0.1,0.1-0.2,0.2-0.2c1.2,0.5,1.9,1.5,2.8,2.4C167.5,78.8,167.4,78.8,167.4,78.9z
		"/>
	<path d="M133.4,56.8c0.2,1.1,0.5,2.1,0.7,3.3C133.3,59.3,132.9,57.8,133.4,56.8z"/>
	<path d="M118,119.1c-0.4-1.4-0.8-2.7-1.2-4.1c0.1,0,0.2-0.1,0.3-0.1c0.4,1.4,0.8,2.7,1.1,4.1C118.2,119,118.1,119.1,118,119.1z"/>
	<path d="M141.5,83c0.2,1.7,0.3,3.5,0.5,5.2C141.3,86.5,141.4,84.7,141.5,83z"/>
	<path d="M138.3,86.1c-0.1-0.7-0.2-1.4-0.3-2.3C139.2,84.6,139.2,84.9,138.3,86.1z"/>
	<path d="M124.7,99.5c0-1.1-0.2-2.3,0.8-3.2c-0.2,1.1-0.4,2.2-0.5,3.3C124.8,99.5,124.8,99.5,124.7,99.5z"/>
	<path d="M153.8,94c-0.2,1.3-0.4,2.6-0.5,3.9c-0.1,0-0.2,0-0.3,0c0.1-1.3,0.3-2.6,0.4-3.9C153.5,94,153.7,94,153.8,94z"/>
	<path d="M134.5,95.1c-0.1,1.5-0.2,2.9-0.2,4.4c0,0-0.1,0-0.1,0c0-1.5,0-2.9,0-4.4C134.3,95,134.4,95.1,134.5,95.1z"/>
	<path d="M144.8,89.8c-0.2-1.3-0.4-2.6-0.6-3.9c0.1,0,0.3,0,0.4-0.1c0.1,1.3,0.3,2.6,0.4,4C145,89.8,144.9,89.8,144.8,89.8z"/>
	<path d="M158,67.9c-0.6-0.5-1.2-1.1-1.8-1.6c0.1-0.1,0.2-0.2,0.2-0.3c0.9,0.2,1.4,0.9,1.8,1.6C158.1,67.6,158.1,67.8,158,67.9z"/>
	<path d="M163.5,72.3c0.9,0.6,1.8,1.3,2.7,1.9c-0.1,0.1-0.1,0.2-0.2,0.2c-0.9-0.6-1.8-1.2-2.8-1.8C163.3,72.5,163.4,72.4,163.5,72.3
		z"/>
	<path d="M118.5,77.8c-0.8,0.9-1.5,1.7-2.3,2.5C116.3,79.4,117.4,78.2,118.5,77.8z"/>
	<path d="M138.7,69c0.2-1.4,0.6-2.8,1.7-3.8C139.9,66.5,139.3,67.7,138.7,69z"/>
	<path d="M140.2,68.9c0.4-1.1,0.8-2.1,1.2-3.2c0.1,0,0.2,0.1,0.4,0.1c-0.4,1.1-0.9,2.1-1.3,3.2C140.4,69,140.3,69,140.2,68.9z"/>
	<path d="M175.4,104.4c-0.4-1.1-0.9-2.3-1.3-3.4c0.1,0,0.2-0.1,0.3-0.1c0.4,1.1,0.9,2.3,1.3,3.4
		C175.6,104.4,175.5,104.4,175.4,104.4z"/>
	<path d="M159.2,100.3c-0.1-1.2-0.2-2.4-0.3-3.5c0.1,0,0.2,0,0.3,0c0.1,1.2,0.2,2.4,0.3,3.5C159.5,100.3,159.3,100.3,159.2,100.3z"
		/>
	<path d="M167.7,87.1c0.1,1.7,0.2,3.5,0.2,5.2c-0.1,0-0.2,0-0.2,0C167.7,90.5,167.7,88.8,167.7,87.1z"/>
	<path d="M161.9,107c-0.2,0.9-0.4,1.8-0.6,2.6c-0.1,0-0.2,0-0.3-0.1c0-0.9,0.3-1.8,0.6-2.6C161.7,106.9,161.8,106.9,161.9,107z"/>
	<path d="M152.5,80.2c0.2,1.1,0.4,2.3,0.6,3.4c-0.1,0-0.2,0-0.4,0.1c-0.2-1.1-0.3-2.3-0.5-3.4C152.3,80.3,152.4,80.2,152.5,80.2z"/>
	<path d="M143.1,70.4c-0.1,0.9-0.2,1.9-0.3,2.8c-0.1,0-0.2,0-0.3,0c0.1-0.9,0.1-1.9,0.2-2.8C142.9,70.4,143,70.4,143.1,70.4z"/>
	<path d="M173.6,103.7c-0.3-1.1-0.6-2.2-0.9-3.4c0.1,0,0.2,0,0.2-0.1c0.3,1.1,0.7,2.2,1,3.3C173.8,103.6,173.7,103.6,173.6,103.7z"
		/>
	<path d="M146.4,65.4c-0.1,1.1-0.2,2.1-0.2,3.4C145.6,67.5,145.9,66.4,146.4,65.4z"/>
	<path d="M139.3,64.5c-0.5,1-0.9,1.9-1.4,2.9c-0.1,0-0.2-0.1-0.3-0.1c0.5-1,0.9-1.9,1.4-2.9C139.1,64.4,139.2,64.5,139.3,64.5z"/>
	<path d="M172.8,96.8c-0.5-1.1-1.1-2.2-1.6-3.3c0.1,0,0.2-0.1,0.2-0.1c0.5,1.1,1.1,2.2,1.6,3.3C173,96.7,172.9,96.8,172.8,96.8z"/>
	<path d="M134.3,88.1c0-0.6-0.1-1.2-0.1-1.7c0.1,0,0.3,0,0.4,0c0.6,0.5,0.4,1.1,0.1,1.7C134.6,88.1,134.4,88.1,134.3,88.1z"/>
	<path d="M155.5,92.8c-0.2,1.1-0.3,2.2-0.5,3.2c-0.1,0-0.2,0-0.2,0c0.1-1.1,0.2-2.2,0.4-3.2C155.2,92.8,155.3,92.8,155.5,92.8z"/>
	<path d="M147.8,65c0.1,1,0.1,1.9,0.2,2.9c-0.1,0-0.2,0-0.3,0c-0.1-1-0.2-1.9-0.3-2.9C147.6,65,147.7,65,147.8,65z"/>
	<path d="M140.7,72.6c0.3-0.9,0.5-1.9,0.8-2.8c0.1,0,0.2,0,0.3,0.1c-0.3,0.9-0.5,1.9-0.8,2.8C140.9,72.7,140.8,72.7,140.7,72.6z"/>
	<path d="M159.1,89.5c0.1,0.8,0.2,1.7,0.3,2.5c-0.1,0-0.2,0-0.4,0c-0.1-0.8-0.2-1.7-0.3-2.5C158.9,89.6,159,89.6,159.1,89.5z"/>
	<path d="M166.6,84.3c0,1.1,0,2.1,0,3.2c-0.1,0-0.1,0-0.2,0c0-1.1,0-2.1,0-3.2C166.5,84.3,166.5,84.3,166.6,84.3z"/>
	<path d="M128.9,84.3c-0.1,0.6-0.1,1.3-0.2,1.9c-0.1,0-0.2,0-0.4,0c0-0.6,0.1-1.3,0.1-1.9C128.6,84.3,128.7,84.3,128.9,84.3z"/>
	<path d="M154.1,70.4c0.4,1,0.7,2,1.1,3c-0.1,0-0.1,0.1-0.2,0.1c-0.4-1-0.8-2-1.1-3C153.9,70.5,154,70.4,154.1,70.4z"/>
	<path d="M157.2,102.6c0-1.3,0-2.6,0-3.9c0.1,0,0.1,0,0.2,0c0,1.3,0,2.6,0,3.9C157.3,102.6,157.3,102.6,157.2,102.6z"/>
	<path d="M137.2,152.3c-0.3,3-0.7,6.1-2,8.8C135.3,158,135.5,155,137.2,152.3z"/>
	<path d="M160.5,200.2c-0.6-3.5-2.8-6.6-3.2-10.2c0.1,0,0.2-0.1,0.3-0.1c0.2,0.3,0.4,0.5,0.4,0.8c0.3,2,1.2,3.8,2.1,5.7
		c0.4,0.9,0.6,1.9,0.8,2.8c0.1,0.3-0.1,0.7-0.1,1C160.7,200.2,160.6,200.2,160.5,200.2z"/>
	<path d="M131.8,180.3c0-0.9,0-1.6,0-2.3c0.1,0,0.1,0,0.2,0c0.1,0.2,0.2,0.3,0.2,0.5c0,0.7,0.1,1.5,0.1,2.2c-0.2,2-0.5,4-0.7,5.9
		c0,0.3-0.2,0.5-0.4,0.8c-0.1,0-0.2,0-0.2-0.1c0-0.3,0-0.6,0-0.9c0-1.8,0-3.6,0-5.4C131,180.6,130.9,180.1,131.8,180.3z"/>
	<path d="M149.7,151.8c0.2,3.6,0.5,7.1,0.7,10.7c-0.1,0-0.2,0-0.3,0c-0.9-3.5-0.8-7.1-0.8-10.7C149.4,151.8,149.5,151.8,149.7,151.8
		z"/>
	<path d="M136,150.6c-1,2.7-0.8,5.5-2.1,8C133.3,157.3,134.8,151.6,136,150.6z"/>
	<path d="M151.7,164.5c-0.7-3.3-0.7-6.7-1-10c0.1,0,0.3,0,0.4,0c0.3,3.3,0.7,6.7,1,10C152,164.4,151.9,164.4,151.7,164.5z"/>
	<path d="M132.9,192.6c-0.5-2.6-0.8-5.3-0.3-8C133.1,187.3,133.2,189.9,132.9,192.6z"/>
	<path d="M148.1,150.5c0.2,3.3,0.5,6.6,0.7,10C148,159.7,147.5,153.8,148.1,150.5z"/>
	<path d="M131.8,145.7c-0.2,2.3-0.5,4.3-1.4,6.4C129.7,150.9,130.6,147,131.8,145.7z"/>
	<path d="M135.1,184.9c-0.1-2.4-0.3-4.9-0.4-7.4C135.5,177.9,136,183.9,135.1,184.9z"/>
	<path d="M129.8,190.1c0.1-2.5,0.3-4.8,0.4-7.2C131.2,184,130.8,189,129.8,190.1z"/>
	<path d="M128.3,192.4c0.3-2.6,0.5-5,0.8-7.5C129.9,186.1,129.4,191.1,128.3,192.4z"/>
	<path d="M122.5,199c-0.5,1.4-1,2.8-1.5,4.2c0,0.1-0.2,0.3-0.3,0.3c-0.1,0-0.3-0.1-0.3-0.3c-0.4-0.8,1-4,1.8-4.3
		C122.2,198.9,122.3,199,122.5,199z"/>
	<path d="M159.3,157.9c-0.2-0.6-0.4-1.1-0.7-1.8c0-0.4,0.1-1,0.2-1.6c0.1,0,0.1-0.1,0.2-0.1c0.3,0.4,0.5,0.8,0.8,1.2
		c0.1-0.1,0.4-0.3,0.6-0.5C160.7,155.9,160.2,157.3,159.3,157.9z"/>
	<path d="M126.6,194.3c0.3-2.2,0.5-4.2,0.8-6.4C128.2,188.8,127.5,193.5,126.6,194.3z"/>
	<path d="M128.1,196.3c0.7,0.6,0.4,6.1-0.4,6.8C127.9,200.9,128,198.7,128.1,196.3z"/>
	<path d="M130.9,189.3c0.8,0.5,1,5.6,0.6,6.5c-0.1,0-0.2,0-0.3,0C131.1,193.7,131,191.5,130.9,189.3z"/>
	<path d="M152.7,158.3c0.5,1.4,1.1,5.2,0.7,6.3C152.7,163.8,152.3,159.8,152.7,158.3z"/>
	<path d="M160,183.5c0.2,0.6,0.9,1.1,0.4,2c-0.2,0.3,0,0.9,0.1,1.3c0.1,0.5,0.1,1.1,0.2,1.6c-0.1,0-0.2,0.1-0.4,0.1
		c-0.2-0.8-0.6-1.6-0.7-2.5c-0.1-0.8,0-1.6,0-2.5C159.8,183.5,159.9,183.5,160,183.5z"/>
	<path d="M158.2,196.8c1,0.5,1.9,4.2,1.4,5.1C159.1,200.1,158.6,198.5,158.2,196.8z"/>
	<path d="M156.4,172.1c-0.5-1.6-1-3.2-0.5-4.9C156.4,168.7,156.6,170.4,156.4,172.1z"/>
	<path d="M156.1,165.2c0-1.8-0.2-3.7,0.1-5.5c0.1,1.9,0.7,3.7,0.4,5.5C156.4,165.2,156.2,165.2,156.1,165.2z"/>
	<path d="M132.6,174.1c-1-1.1-0.9-4.7,0-5.6C132.6,170.3,132.6,172.1,132.6,174.1z"/>
	<path d="M157.6,166.3c0-1.5,0-3.1,0-4.9C158.4,162.5,158.4,165.6,157.6,166.3z"/>
	<path d="M127.7,152.6c0.5,1.9,0,3.6-0.4,5.3c-0.1,0-0.2,0-0.3,0c0.2-1.1,0.3-2.1,0.5-3.2C126.8,154.3,126.9,153.5,127.7,152.6z"/>
	<path d="M132.9,155.8c-0.5-1.3,0.4-4.4,1.4-5.3C133.8,152.3,133.3,154.1,132.9,155.8z"/>
	<path d="M122.8,203.1c-0.1-0.3-0.2-0.6-0.2-0.9c0.1-0.7,0.3-1.4,0.5-2c0-0.1,0.3-0.2,0.5-0.3c0.1,0.2,0.3,0.3,0.3,0.5
		c-0.2,0.9-0.4,1.8-0.7,2.7C123.1,203.1,123,203.1,122.8,203.1z"/>
	<path d="M157.5,199.6c0.9,1.2,1,3.4,0.2,4.1c-0.2-1.4-0.3-2.7-0.5-4.1C157.3,199.6,157.4,199.6,157.5,199.6z"/>
	<path d="M121,198.2c0.1,1.6-1.3,2.5-1.4,3.8C118.8,201.5,119.6,199.4,121,198.2z"/>
	<path d="M157.5,196c-0.3-1.4-0.7-2.9-1.1-4.6C157.3,192,158.1,195.3,157.5,196z"/>
	<path d="M115.8,149.6c0.7-1.4,1.4-2.7,2.1-4.1c0.1,0.1,0.3,0.1,0.4,0.2c-0.6,1.4-1,2.9-2.3,4C116,149.7,115.9,149.6,115.8,149.6z"
		/>
	<path d="M130.6,162.5c-0.7-1.4-0.3-4.1,0.5-4.9C130.9,159.2,130.8,160.7,130.6,162.5z"/>
	<path d="M156.8,198.4c-0.5-1.3-0.9-2.6-1.4-4C156.3,194.8,157.3,197.4,156.8,198.4z"/>
	<path d="M126.1,154.9c-0.5-0.8,0-2.6,1.1-3.3c-0.3,1.3-0.5,2.3-0.8,3.3C126.3,154.9,126.2,154.9,126.1,154.9z"/>
	<path d="M123.6,198.9c-0.2-0.3-0.6-0.6-0.5-0.8c0.3-1,0.3-2.2,1.1-3c0.1,0,0.2,0.1,0.3,0.1C124.2,196.4,123.9,197.5,123.6,198.9z"
		/>
	<path d="M155.7,204.7c0.1-1.1,0.2-2.2,0.3-3.4C156.9,202,156.7,204.2,155.7,204.7z"/>
	<path d="M129.1,173.1c0.1-1.3-0.2-2.4,0.5-3.6C130.1,170.6,129.9,172.5,129.1,173.1z"/>
	<path d="M129.4,156.5c-0.3,1.5-0.5,2.9-0.8,4.4C128.2,159.3,128.5,157.9,129.4,156.5z"/>
	<path d="M136.1,180.1c-0.1-1.2-0.2-2.4-0.2-3.6c0.1,0,0.2,0,0.3,0c0.4,1.2,0.5,2.4,0.3,3.6C136.3,180.1,136.2,180.1,136.1,180.1z"
		/>
	<path d="M134.2,173.6c-1.2-1.3-0.1-2.5-0.3-3.6c0.1,0,0.2,0,0.3,0C134.2,171.2,134.2,172.3,134.2,173.6z"/>
	<path d="M146.4,150.5c0.1,0.8,0.3,1.6,0.4,2.4c0.1,0.6,0,1.3-0.2,1.9c-0.2-1.4-0.3-2.9-0.5-4.3
		C146.1,150.5,146.3,150.5,146.4,150.5z"/>
	<path d="M126.2,195.1c-0.3,1-0.6,1.8-0.9,2.7c0,0.1-0.1,0.1-0.2,0.1C124.7,196.7,125.3,195.3,126.2,195.1z"/>
	<path d="M123.5,158.6c-0.3-0.8,0.2-2.1,1-2.6c-0.3,1-0.5,1.9-0.7,2.7C123.8,158.7,123.6,158.6,123.5,158.6z"/>
	<path d="M116.3,145.7c-0.5,1-1,2-1.6,3c-0.1-0.1-0.2-0.1-0.4-0.2c0.5-1,1-2,1.6-3C116.1,145.6,116.2,145.6,116.3,145.7z"/>
	<path d="M125.9,192c-0.4,1-0.7,2-1.1,3C124.6,193.8,125.1,192.3,125.9,192z"/>
	<path d="M124.2,166.3c-0.2-1.3,0-2.4,0.6-3.6c-0.1,1.2-0.3,2.4-0.4,3.6C124.4,166.3,124.3,166.3,124.2,166.3z"/>
	<path d="M132.9,149.7c-0.4-1.1,0.1-2.7,0.9-3.3C133.5,147.4,133.2,148.5,132.9,149.7z"/>
	<path d="M125.6,204.2c0-1-0.1-2,0.9-2.9c-0.2,1.2-0.4,2.1-0.5,3C125.9,204.3,125.8,204.2,125.6,204.2z"/>
	<path d="M142.2,149.3c0.2,1.2,0.4,2.4,0.6,3.6c-0.1,0-0.2,0-0.3,0.1c-0.2-1.2-0.5-2.4-0.7-3.6C141.9,149.4,142.1,149.3,142.2,149.3
		z"/>
	<path d="M154.5,168.7c0.1,0.9,0.3,1.8,0.4,2.7c-0.2,0-0.3,0-0.5,0.1c-0.1-0.9-0.3-1.8-0.4-2.7C154.2,168.7,154.4,168.7,154.5,168.7
		z"/>
	<path d="M144.7,149.6c0.1,1,0.3,2,0.4,3.1c-0.1,0-0.2,0-0.3,0c-0.2-1-0.3-2-0.5-3.1C144.4,149.7,144.5,149.6,144.7,149.6z"/>
	<path d="M132.3,162.6c0-0.9,0-1.9,0-2.8c0.1,0,0.2,0,0.3,0c0,0.9,0,1.9,0,2.8C132.5,162.6,132.4,162.6,132.3,162.6z"/>
	<path d="M130.9,170.3c0.1,0.7,0.3,1.4-0.3,1.9c-0.1,0-0.2,0-0.4-0.1c0.1-0.6,0.2-1.3,0.3-1.9C130.7,170.3,130.8,170.3,130.9,170.3z
		"/>
	<path d="M136.8,46.6c-3.1-0.5-5.3-1.6-6.2-4.6c-0.5-1.7-0.2-2.8,1-3.9c1.5-1.3,3.1-2.2,5.3-1.4c2.1,0.8,3.5,1.9,3.8,4.2
		c0.1,0.8,0.5,1.5,0.7,2.3c0.1,0.5-0.1,0.9-0.6,1.2c-0.7,0.4-1.3,0.9-2,1.3C138,46.1,137.2,46.4,136.8,46.6z M133,39.2
		c-0.1-0.1-0.2-0.1-0.3-0.2c-0.4,0.4-0.9,0.7-1,1.1c-0.3,0.9,1.3,3.8,2.2,4.2c1.3,0.6,2.6,0.9,4,0.2c1.8-0.9,2.2-1.9,1-3.7
		c-0.6,1.8-1.9,2.2-3.6,1.8C133.5,42.2,133,40.8,133,39.2z M136,40.3c0.7,0,1.3-0.6,1.3-1.2c-0.1-0.6-0.3-1.1-1.1-1.1
		c-0.7,0-1.3,0.6-1.3,1.3C134.9,40,135.3,40.3,136,40.3z"/>
	<path d="M156.5,47.9c-0.6-0.3-1.6-0.5-2.4-1.1c-1.1-0.8-2.3-1.6-2.4-3.2c0-0.2-0.1-0.5,0-0.7c1-1.8,2.1-3.7,3.9-4.8
		c1-0.6,3.1-0.3,4.2,0.7c0.7,0.7,1.3,1.6,1.9,2.5c0.8,1.3,0.6,2.5-0.3,3.7C160.3,46.6,158.9,47.7,156.5,47.9z M152.4,43.9
		c0.6,0.3,1.1,0.5,1.4,0.8c1.8,1.7,3.7,2,5.6,0.9c1.3-0.7,1.8-2.5,1.1-3.3c-0.5,0.5-0.9,1.1-1.4,1.5c-1,0.8-3,0.8-3.8,0
		c-0.5-0.5-1-1.1-1.5-1.6C153.3,42.8,152.8,43.4,152.4,43.9z M158.5,40.6c0-0.8-0.5-1.4-1.3-1.4c-0.6,0-1.3,0.7-1.3,1.4
		c0,0.7,0.4,1.1,1.2,1.1C157.9,41.8,158.4,41.3,158.5,40.6z"/>
	<path d="M162.2,32.1c-1.8-0.2-3.1,0.5-4.3,1.6c-0.8,0.7-0.9,0.6-1.5-0.4c-0.3,0.4-0.5,0.7-0.8,1c-0.2,0.2-0.5,0.2-0.8,0.3
		c0-0.3-0.1-0.6,0-0.9c0.1-0.3,0.3-0.5,0.5-0.7c0.2-0.2,0.3-0.4,0.5-0.7c-1.2,0.5-1.7,1.6-2.3,2.7c-0.2,0.4-0.4,0.9-0.6,1.2
		c-0.2,0.2-0.6,0.4-1,0.6c0-0.4,0-0.5,0-0.6c1-1.5,1.9-3,2.9-4.4c0.4-0.5,1-1,1.8-0.4c0.1,0.1,0.5-0.1,0.8-0.3
		c0.7-0.3,1.3-0.7,2.1,0.1c0.2,0.2,1,0,1.5-0.1C161.6,31.1,162.1,31.1,162.2,32.1z"/>
	<path d="M165.6,43.6c-0.2-0.1-0.4-0.1-0.5-0.2c-1.4-1.4-2.8-2.8-4.1-4.3c-1.2-1.3-2.6-2.4-4.5-2c-1.7,0.3-2.9,1.4-3.8,2.7
		c-0.2,0.3-0.5,0.6-0.7,0.9c-0.1,0-0.1-0.1-0.2-0.1c0-0.2-0.1-0.4,0-0.6c0.8-2.1,4.3-5.2,7.5-3.7c1.8,0.9,3.2,2.2,4,4.1
		c0.1,0.3,0.4,0.5,0.7,0.7C164.7,41.7,165.3,42.5,165.6,43.6z"/>
	<path d="M137.3,29.8c0.8,0.3,1.4,0.4,2,0.7c0.6,0.3,1,0.8,1.6,1.3c0.6-0.6,0.9-0.1,1.1,0.7c0.2,0.8,0.5,1.6,0.8,2.5
		c0.1,0.3,0.1,0.6,0.1,0.9c0,0.2-0.3,0.4-0.4,0.6c-0.2-0.2-0.5-0.3-0.6-0.5c-0.1-0.6-0.1-1.2-0.3-1.7c-0.1-0.5-0.3-1-0.4-1.4
		c-0.1,0-0.1,0-0.2,0.1c0.1,0.7,0.3,1.3,0.3,2c0,0.2-0.1,0.5-0.2,0.7c-0.2-0.1-0.5-0.2-0.6-0.4c-0.3-0.4-0.4-1-0.7-1.4
		C139,32.5,138.2,31.3,137.3,29.8z"/>
	<path d="M136.4,33.6c-1.1-0.8-2.1-1.6-3.2-2.4c-0.1,0.1-0.1,0.2-0.2,0.3c0.3,0.3,0.6,0.5,0.8,0.8c0.2,0.3,0.2,0.6,0.3,0.9
		c-0.3,0-0.7,0-1-0.1c-0.7-0.3-1.3-0.7-2-0.9c-0.4-0.1-0.9,0.1-1.6,0.1c0.1-0.4,0-1,0.2-1.1c0.3-0.2,0.8-0.1,1.3-0.2
		c0.3,0,0.8,0,0.9-0.1c0.5-0.7,1.1-0.7,1.7-0.3c1,0.8,2,1.7,2.9,2.5c0.1,0.1,0,0.2,0,0.3C136.5,33.4,136.4,33.5,136.4,33.6z"/>
	<path d="M162,33.7c-0.6,0.1-1.1,0.3-1.5,0.2c-0.4,0-0.7-0.3-1-0.4c0.3-0.2,0.5-0.6,0.8-0.6c1-0.2,2.1-0.6,2.9,0.2
		c0.8,0.8,1.4,1.7,2.1,2.6c0.1,0.1-0.2,0.5-0.2,0.8c-0.2-0.1-0.5-0.2-0.7-0.3c-0.5-0.3-0.9-1-1.4-1C161.9,35,161.7,34.7,162,33.7z"
		/>
	<path d="M139.8,35.7c-1.3-1.7-2.6-3.3-3.9-4.9c-0.3-0.3-0.8-0.4-1.2-0.6c-0.2-0.1-0.4-0.3-0.5-0.5c-0.1-0.2,0-0.5,0.2-0.6
		c0.2-0.1,0.5-0.1,0.7,0c1.7,1,3.1,2.3,4,4C139.5,33.8,139.6,34.8,139.8,35.7z"/>
	<path d="M131.5,32.8c-0.2,0.4-0.4,0.6-0.5,0.9c-0.4,0-0.8,0-1.2,0c-0.2,0.3-0.3,0.8-0.5,0.9c-0.6,0.2-1.3,0.3-1.9,0.5
		c0-0.2-0.2-0.5-0.1-0.6c0.2-0.4,0.6-0.8,0.9-1.2c0.1-0.2,0.3-0.4,0.5-0.4C129.6,32.6,130.5,32.5,131.5,32.8z"/>
	<path d="M144.7,39c-0.3-1.1-0.5-2.3-0.8-3.5c0.3-0.1,0.5-0.1,0.9-0.2c-0.2-0.8-0.3-1.5-0.5-2.5c0.4,0.3,0.8,0.4,0.8,0.5
		c0.2,0.8,0.6,1.5,0.1,2.5c-0.3,0.5,0,1.3,0,1.9c0,0.4,0.1,0.8,0.1,1.2C145.1,38.9,144.9,38.9,144.7,39z"/>
	<path d="M161.1,26.6c-1.7,1.1-3.5,2.2-5.3,3.4C156,28.6,158,27.3,161.1,26.6z"/>
	<path d="M153.7,30.7c0-1.2,3.1-4.4,4.2-4.4C156.4,27.9,155,29.3,153.7,30.7z"/>
	<path d="M129.9,26.1c0.4-0.1,0.8-0.2,1.1-0.1c0.9,0.3,1.8,0.8,2.7,1.2c0.2,0.1,0.2,0.4,0.3,0.6c-0.2,0-0.4,0-0.6,0
		c-1-0.3-2-0.7-3-1.1c-0.2-0.1-0.4-0.1-0.6-0.2C129.9,26.4,129.9,26.3,129.9,26.1z"/>
	<path d="M158.4,29.5c0.6-1.3,3.5-2.3,4.7-1.9C161.5,28.3,159.9,28.9,158.4,29.5z"/>
	<path d="M127.2,28.1c1.1-0.7,4.3-0.1,4.8,1C130.4,28.4,128.8,28.8,127.2,28.1z"/>
	<path d="M151.9,46c1.2,0.8,2.1,1.7,2.6,3.1C153.2,48.8,151.7,47,151.9,46z"/>
	<path d="M135.8,25.2c0.5-0.1,2.7,2.2,3.1,3.3C138.2,28.5,136.1,26.3,135.8,25.2z"/>
	<path d="M168.7,47.9c-0.3-1.5-0.6-2.9-0.9-4.4C168.9,44.1,169.5,47.2,168.7,47.9z"/>
	<path d="M132.6,25.1c1.6,0.4,2.5,1.6,3.9,2.3C135.8,27.8,133.2,26.2,132.6,25.1z"/>
	<path d="M161.9,29.7c1.1-0.9,2.9-1.1,3.7-0.3c-1.3,0.2-2.5,0.4-3.7,0.6C161.9,29.9,161.9,29.8,161.9,29.7z"/>
	<path d="M168.8,41.3c1,1,1.4,2.2,1.4,3.6C169.3,43.8,169,42.5,168.8,41.3z"/>
	<path d="M154.6,26.6c-0.6,1-1.2,1.9-1.8,2.8c-0.1,0.1-0.3,0.2-0.5,0.2c-0.1,0-0.2-0.3-0.2-0.3c0.7-0.9,1.4-1.9,2.1-2.8
		C154.3,26.5,154.4,26.5,154.6,26.6z"/>
	<path d="M143.5,31.3c0-1.3,0-2.5,0-3.8C144.2,28.2,144.3,30.1,143.5,31.3z"/>
	<path d="M146,35c0.7,1.1,0.7,3.1,0,3.8C146,37.4,146,36.2,146,35z"/>
	<path d="M167.6,41c-1.1,0.2-2.4-1-2.8-2c0.1-0.1,0.1-0.1,0.2-0.2C165.9,39.5,166.8,40.3,167.6,41z"/>
	<path d="M140.4,29c-0.2-0.1-0.4-0.1-0.5-0.3c-0.5-0.8-0.9-1.5-1.4-2.3c-0.1-0.1,0-0.3,0-0.4c0.1,0,0.4-0.1,0.4,0
		c0.6,0.9,1.2,1.8,1.7,2.8C140.6,28.8,140.5,28.9,140.4,29z"/>
	<path d="M125.4,40c0.9-0.5,1.7-1.1,2.6-1.6c0.1-0.1,0.3,0.1,0.4,0.1c0,0.2,0,0.4-0.1,0.5c-0.9,0.5-1.8,1-2.7,1.4
		C125.6,40.3,125.5,40.1,125.4,40z"/>
	<path d="M166.8,42.2c-1.1,0.1-2.6-1.4-2.5-2.4C165.1,40.6,166,41.4,166.8,42.2z"/>
	<path d="M141,26.5c1.1,0.8,1.7,2.6,1,3.4C141.7,28.8,141.4,27.7,141,26.5z"/>
	<path d="M149.9,53.7c-0.4-0.5-0.7-0.7-0.7-1c-0.1-0.6,0.3-0.9,0.9-0.9c0.2,0,0.6,0.4,0.5,0.5C150.5,52.7,150.3,53.1,149.9,53.7z"/>
	<path d="M168.5,39.2c1.2,0.2,2.3,2.2,1.9,3C169.8,41.2,169.2,40.3,168.5,39.2z"/>
	<path d="M147.8,38.9c0.1-1.3,0.2-2.3,0.3-3.2C148.9,36.5,148.7,38.1,147.8,38.9z"/>
	<path d="M170.4,38.3c-0.9-0.4-1.7-0.9-2.2-1.8C169.2,36.7,170,37.3,170.4,38.3z"/>
	<path d="M128,39.9c0,1-1.4,1.9-2.6,1.7C126.3,41,127.2,40.4,128,39.9z"/>
	<path d="M149.5,38.8c-0.1-1.3,0.1-2.1,0.8-2.6C150.7,36.8,150.3,38,149.5,38.8z"/>
	<path d="M121.3,36.8c0-0.8,1.5-2.5,2.5-2.8c-1,0.8-1.9,1.6-2.9,2.4C121,36.5,121.2,36.7,121.3,36.8z"/>
	<path d="M143.4,39.6c-0.2-0.8-0.4-1.6-0.7-2.3c0.1-0.1,0.1-0.1,0.2-0.2c0.2,0.1,0.5,0.2,0.6,0.4c0.3,0.7,0.5,1.3,0.2,2
		C143.6,39.6,143.5,39.6,143.4,39.6z"/>
	<path d="M147.1,35.4c-0.2-0.8-0.3-1.6-0.5-2.6c1,0.4,1.2,1.4,0.8,2.5C147.3,35.4,147.2,35.4,147.1,35.4z"/>
	<path d="M128.2,37.1c0,0.9-1.4,1.6-2.3,1.3C126.6,38,127.4,37.6,128.2,37.1z"/>
	<path d="M149.6,33c0.8,0.8,0.4,2.3-0.6,2.8C149.2,34.9,149.4,34,149.6,33z"/>
	<path d="M147.2,30.5c-0.1-0.7-0.1-1.5-0.2-2.4c0.9,0.4,0.8,1.1,0.8,1.7c0,0.3-0.2,0.6-0.3,0.8C147.5,30.6,147.3,30.5,147.2,30.5z"
		/>
	<path d="M145.4,30.7c1.1,0.4,1.2,1.3,0.4,2.2C145.7,32.2,145.5,31.5,145.4,30.7z"/>
	<path d="M123.6,37.9c-0.7,1.1-1.5,2.1-2.2,3.2c-0.1,0-0.1-0.1-0.2-0.1c0.4-1.3,1.5-2.2,2.2-3.3C123.4,37.8,123.5,37.9,123.6,37.9z"
		/>
	<path d="M148.3,30.4c0.7,0.8,0.7,1.8,0,2.5C148.3,32,148.3,31.2,148.3,30.4z"/>
	<path d="M142.5,52.6c-0.6,0.3-0.9,0.6-1.3,0.7c-0.2,0-0.4-0.2-0.6-0.4c0.3-0.3,0.7-0.6,1-0.9C141.7,52,142,52.3,142.5,52.6z"/>
	<path d="M126.5,42.4c0.6-0.4,1.1-0.9,1.7-1.3c0,0,0.3,0.1,0.3,0.2c0,0.2,0,0.4-0.2,0.5c-0.5,0.4-1,0.7-1.6,1
		C126.7,42.6,126.6,42.5,126.5,42.4z"/>
	<path d="M123.4,40.1c-0.5,1-1,2-1.5,3C121.9,41.9,122.4,40.8,123.4,40.1z"/>
	<path d="M165.8,37.9c0.8,0.4,1.4,0.8,2.2,1.2C166.8,39.3,165.9,38.8,165.8,37.9z"/>
	<path d="M143.2,39.6c-1.1-0.5-1.5-1.2-1.3-2.2C142.8,37.8,142.7,38.7,143.2,39.6z"/>
	<path d="M124,46.1c-0.6-0.8-0.3-1.6,0.8-2.3C124.5,44.6,124.3,45.3,124,46.1z"/>
	<path d="M165.2,30.4c0.6,0,1.2,0,1.8,0c0.1,0,0.2,0.2,0.2,0.4c0,0.1-0.2,0.2-0.2,0.2c-0.6,0-1.2-0.1-1.8-0.2
		C165.2,30.7,165.2,30.6,165.2,30.4z"/>
	<path d="M126.5,36.7c0.6-0.3,1.2-0.6,1.9-1c0.1,0.2,0.2,0.3,0.2,0.5c-0.6,0.3-1.2,0.7-1.9,1C126.6,37.1,126.6,36.9,126.5,36.7z"/>
	<path d="M144.5,39.7c1.1,0.4,1.4,1.2,0.8,2C145,41.1,144.8,40.5,144.5,39.7z"/>
	<path d="M145.9,47.6c-0.2-0.7-0.5-1.4-0.2-2.1c0.1,0,0.3,0,0.4,0c0,0.7,0.1,1.4,0.1,2.1C146.1,47.6,146,47.6,145.9,47.6z"/>
	<path d="M139,47.7c-0.5-1.3,0.8-1.1,1.1-1.7C140.5,47,139.5,47.1,139,47.7z"/>
	<path d="M152.6,55.2c-0.4,0.2-0.6,0.5-0.8,0.5c-0.2,0-0.4-0.3-0.6-0.4c0.2-0.2,0.4-0.6,0.6-0.6C151.9,54.6,152.2,54.9,152.6,55.2z"
		/>
	<path d="M148.8,39.8c0,0.7-0.1,1.4-0.1,2c-0.1,0-0.2,0-0.3,0c0-0.7,0-1.4,0-2C148.5,39.8,148.6,39.8,148.8,39.8z"/>
	<path d="M149.1,41.8c0.1-0.6,0.2-1.1,0.3-1.8C150.1,40.6,150,41.3,149.1,41.8z"/>
	<path d="M145,42.9c0.5,0.5,0.7,1,0.3,1.7c-0.1,0-0.2,0-0.3,0.1c-0.1-0.6-0.2-1.1-0.3-1.7C144.8,42.9,144.9,42.9,145,42.9z"/>
	<path d="M129.6,45.8c0.4-0.3,0.9-0.6,1.4-1C131.1,45.7,130.6,46.1,129.6,45.8z"/>
	<path d="M151.5,34c0.2-0.5,0.4-1,0.6-1.7c0.5,0.7,0.4,1.1-0.3,1.8C151.6,34.1,151.5,34.1,151.5,34z"/>
	<path d="M214.6,107.9c1.2-1.5,2.5-3.1,3.7-4.6c0.1,0.1,0.2,0.1,0.3,0.2c-1.1,1.6-2.1,3.4-3.7,4.7
		C214.8,108.1,214.7,108,214.6,107.9z"/>
	<path d="M203.9,119.8c0.7,1.8,1.5,3.6,2.2,5.4c-1-0.4-2.4-3.5-2.5-5.3C203.7,119.9,203.8,119.8,203.9,119.8z"/>
	<path d="M211.1,120.6c-1,1.7-2,3.3-3.1,5c-0.1-0.1-0.2-0.1-0.3-0.2c0.7-1.8,1.7-3.5,3-4.9C210.9,120.6,211,120.6,211.1,120.6z"/>
	<path d="M210.8,123.3c-0.5,1.3-1,2.5-1.5,4C209.1,126.1,209.8,124.1,210.8,123.3z"/>
	<path d="M194.3,159.7c-1,0.6-4.5,0-5.3-0.8C190.9,159.2,192.6,159.5,194.3,159.7z"/>
	<path d="M195.2,154.6c-1.4,0.2-2.7,0.5-4.1,0C192,154,194.5,154,195.2,154.6z"/>
	<path d="M72.9,53.2c0.3,0.4,0.6,0.8,0.9,1.2c0.3,0.4,0.6,0.9,0.8,1.3c-0.1,0-0.1,0.1-0.2,0.1c-0.6-0.8-1.2-1.6-1.8-2.4
		C72.7,53.3,72.8,53.3,72.9,53.2z"/>
	<path d="M82.7,44.3c1.5,0,2.5,1,2.5,2.5c0,1.4-1.1,2.4-2.5,2.4c-1.3,0-2.5-1.1-2.5-2.2C80.2,45.3,81.1,44.3,82.7,44.3z"/>
</g>
</svg>
