<?xml version="1.0" encoding="utf-8"?>
<!-- Generator: Adobe Illustrator 17.1.0, SVG Export Plug-In . SVG Version: 6.00 Build 0)  -->
<!DOCTYPE svg PUBLIC "-//W3C//DTD SVG 1.1//EN" "http://www.w3.org/Graphics/SVG/1.1/DTD/svg11.dtd">
<svg version="1.1" id="Layer_1" xmlns="http://www.w3.org/2000/svg" xmlns:xlink="http://www.w3.org/1999/xlink" x="0px" y="0px"
	 viewBox="0 0 288 216" enable-background="new 0 0 288 216" xml:space="preserve">
<g>
	<g id="XMLID_5_">
		<g>
			<path d="M199.6,113.2c0.4,0.2,0.8,0.3,1.4,0.6c-0.3,0.4-0.5,0.6-0.8,0.8c-0.9,0.6-1.8,1.4-2.9,1.8c-0.9,0.4-2,0.8-3.1,0.8
				c-1,0-2-0.5-3.1-0.7c-0.2-0.1-0.6,0.1-0.8,0.3c-1,0.7-1.2,2-2.6,2.6c-1.7,0.8-3.1,1.1-4.9,0.3c-0.9-0.4-1.7-0.5-1.7,0.8
				c-2.1,1-4,1.9-6,2.9c-0.2-1-7.1-3.2-11.1-3.8c-0.4,0.6-0.7,1.1-1.1,1.6c-0.6,0.7-1.2,1.2-1.8,1.9c-1.8,1.9-3.5,4.1-5.5,5.8
				c-1.5,1.2-3.5,1.7-3.7,4.3c-0.1,1.3-0.2,1.9,1.4,1.9c1.2,0,2.3,0.5,2.6,1.9c0.2,1.2-0.1,2.3-1.3,2.8c-2.1,0.9-4.4,1.4-6.2,2.6
				c-3,2-5.8,4.4-8.6,6.6c-1.1,0.9-3.2,1.3-4.3,0.8c-1.4-0.7-1-1.8-0.8-3c0-0.1-0.1-0.1-0.1-0.2c-1,0.1-2,0.3-2.9,0.1
				c-0.8-0.2-1.8-0.7-2.1-1.4c-0.3-0.6,0.1-1.7,0.6-2.3c0.6-0.8,1.5-1.3,2.2-2c-0.3-0.6-0.7-1.3-1.1-2c-0.1-0.1-0.5-0.2-0.6-0.1
				c-1.3,0.7-2.7,1.3-3.9,2.1c-1.8,1.1-3.6,2.4-5.5,3.3c-0.6,0.3-1.9-0.2-2.6-0.7c-0.4-0.3-0.3-1.3-0.3-1.9c0-0.2,0-0.5,0-0.7
				c-0.3,0-0.6,0.1-0.8,0c-1-0.4-2.1-0.6-2.9-1.3c-0.3-0.3-0.1-1.6,0.3-2.1c0.9-1.1,2.2-1.7,1.9-3.6c-0.2-1,2.5-2.1,3.9-1.9
				c2.4,0.3,4.9,0.6,7.3,0.8c0.3,0,0.6-0.1,0.8-0.3c0.6-0.9,0-3.7-0.7-4.5c-1.2-1.3-2.2-2.6-3.3-3.9c-0.2-0.3-0.5-0.6-0.8-0.7
				c-3.9-1.2-7.1-3.2-9.8-6.3c-2.9-3.3-4.7-7.1-5.2-11.5c-0.2-1.3,0-2.9-0.8-3.7c-2.5-2.9-4.4-6-4.6-9.9c-0.1-2.2,0.1-4.5,0.6-6.7
				c0.4-1.7,1.4-3.3,2.3-4.9c1-1.8,2-3.5,3.2-5.2c0.8-1.1,1.8-2,3-3.2c1.2-0.2,2.2-1,2.8-2.5c0.7-1.7,1.6-3.4,2.4-5.1
				c0.6-1.4,1.3-2.8,1.9-4.2c-0.9-0.1-2,0-2.3-0.4c-0.6-0.8-0.8-1.9-1-3c-0.2-1.5-0.3-3-0.4-4.5c0-0.3,0.1-0.6,0.3-0.9
				c0.9-1.5,0.2-4-1.3-4.1c-1.6-0.1-3.3,0-4.9-0.1c-0.7,0-1.5-0.2-1-1.2c0.6-1.5,1.4-2.9,2.1-4.4c0.8-1.8,1.8-3.6,2.3-5.5
				c0.7-2.6,2.4-4.3,4.4-5.7c2.9-2,6.1-2.6,9.5-2c1.1,0.2,2.4,0.3,3,1c1,1.1,2.6,1.1,3.7,2.4c1.1,1.2,2.2,2.2,2.8,3.7
				c0.5,1.4,1,1,1.9,0.4c1.3-1,2.4-2.3,4.3-1.8c0.2,0.1,0.7-0.4,0.7-0.7c0.5-2.3,1.9-4,3.6-5.4c4.1-3.4,8.8-4.6,13.8-3.6
				c0.3,0.6,0.6,0.9,0.6,1c1.2-0.6,2.1-1.4,3.1-1.6c3.4-0.8,6.9-1.1,10.2,0.2c2.4,0.9,4.9,1.8,6.1,4.4c0.2,0.4,1,0.8,1.4,0.7
				c2.5-0.6,5-0.4,7.3,0.7c3.9,1.9,7.1,4.4,7.9,9.1c0.1,0.5,0.6,1.2,1,1.3c3.3,0.3,5.8,1.9,8,4.3c1.8,2,3.3,4.2,3.7,6.9
				c0.2,1.5,0,3.1,0,4.8c5.8,2.7,7.4,7.8,7,14c-0.1,2.1-1.3,3.7-2.8,5.2c0-0.1-0.1-0.2-0.1-0.3c-0.1-0.5-0.1-1,0-1.5
				c0.4-1.2,1.1-2.3,1.2-3.5c0.2-2.6,0.3-5.3-1.2-7.8c-0.9-1.4-1.4-2.9-3-3.8c-0.7-0.3-1.2-1-1.8-1.5c-3.1,1.9-6.4,3.9-9.5,5.8
				c1.1,2,2.7,4.1,3.4,6.4c0.7,2.3,0.5,4.8,0.6,7.2c0.2-0.1,0.6-0.4,1-0.5c1.7-0.3,3.3-0.5,5-0.8c0.8-0.1,1.5-0.2,2.3-0.3
				c0.4,0,0.8,0,1.1,0c0.1,0,0.1,0.2,0.2,0.3c0,0.1,0,0.2,0,0.3c-0.1,0.1-0.1,0.2-0.2,0.3c-0.2,0.3-0.4,0.6-0.7,0.6
				c-2.2,0.4-4.4,0.7-6.6,0.9c-1.7,0.2-2.2,0.8-1.9,2.4c0.2,0.9,0.5,1.9,0.4,2.7c-0.4,2.8-1,5.5-1.5,8.2c-0.2,0-0.3-0.1-0.5-0.1
				c-0.3,0.1-0.6,0.1-1.3,0.3c0.7,0.2,0.9,0.4,1.2,0.4c2.5,0.4,4.9,0.6,7.3,1.2c1.6,0.4,2.7,0.8,4-0.9c1.5-1.8,1.8-3.9,2.3-5.9
				c0.3-1.2-0.2-2.6-0.6-3.9c-0.4-1.3-0.7-2.6-1.6-3.6c-0.9-1-0.7-1.5,0-2.3c0.1-0.1,0.1-0.1,0.2-0.2c2.5,2.8,3.6,6.2,3.4,9.8
				c-0.2,3.6-1.7,6.6-5.5,9.1c-2.1-0.5-5-1.1-7.9-1.7c-0.4-0.1-0.9-0.1-1.3-0.2c0,0.5-0.1,1,0,1.5c0.3,1.1,0.8,2.2,1.2,3.3
				c0.8,2.4,1.5,4.9,2.4,7.2c1.1,2.8,1,5.6,0.6,8.2C204.7,114.7,202.1,113.2,199.6,113.2z M208.7,54.5c0.1-0.4,0.5-0.7,0.4-1
				c-0.5-1.8-0.8-3.7-1.7-5.2c-1-1.8-2.4-3.4-4-4.7c-1.3-1.1-3-2.2-4.9-2c-0.8,0.1-1.5,0.8-2.1,1.4c-0.7,0.7-1.1,1.7-1.7,2.4
				c-1.3,1.6-2.8,3.2-4.1,4.8c-0.5,0.6-0.9,1.5-0.7,2.1c0.1,0.4,1.1,0.8,1.8,1c2.9,0.5,4.7,2.5,6,4.9c0.5,1.1,0.6,2.4,0.9,3.6
				c3.4-2,6.8-4.1,9.8-5.9C208.6,55.4,208.6,54.9,208.7,54.5z M206,111.9c0.2,0,0.6-0.6,0.5-0.8c-0.2-2.3-0.4-4.6-0.9-6.9
				c-0.3-1.4-1.4-2.6-1.6-4c-0.3-1.9-0.9-3.5-2.2-4.9c-0.2-0.3-0.1-0.9,0.2-1.2c0.2-0.5,0.4-0.9,0.5-1.4c0-0.1-0.6-0.6-0.7-0.5
				c-0.3,0.2-0.5,0.6-1,1.1c-0.5-1.4-1-2.8-1.7-4.2c-0.2-0.4-0.7-0.6-1.2-1c0.2,2,0.5,3.8,0.5,5.7c0,1.3,0,2.7-0.5,3.8
				c-0.5,1-1.7,1.6-2.6,2.4c-1.7,1.3-3.7,1.2-5.7,1c-0.5-0.1-1.2,0.7-1.7,1.2c-2.2,2.4-4.8,3.2-8,2.5c-0.9-0.2-1.8-0.8-2.7-0.9
				c-0.5-0.1-1.2,0.3-1.7,0.7c-0.8,0.7-1.4,1.7-2.3,2.1c-1.3,0.6-2.8,0.6-4.1,1.1c-1.7,0.6-3.1,0-4.6-0.6c-0.2-0.1-0.5,0.1-0.6,0.2
				c-2.2,2.5-4.8,2.8-7.7,1.8c-0.7-0.2-1.6,0-2.3,0.3c-1.3,0.5-2.4,1.2-3.6,1.8c7,5.5,15.1,7.7,23.3,9.8c0-0.2,0.1-0.4,0.1-1
				c1.2,2.7,2.8,0.8,4.1,0.7c1.8-0.2,2.7-1.5,3-3.4c1.9,1.2,3.7,2.5,5.9,1.6c2.3-0.9,2.8-2.9,2.4-5.6c0.7,0.4,1.1,0.5,1.3,0.8
				c2,2.4,6.5,2.5,8.4,0.2c0.2-0.2,0.3-0.8,0.2-0.9c-1.4-1-0.5-2.2-0.3-3.1c1.4,0.7,2.7,1.6,4.1,2.1
				C203.8,112.5,204.9,112.1,206,111.9z M202.9,74.8c0.2-1.2,0.1-2.4,0.1-3.6c0-2.7-1.6-4.5-3.3-6.4c-1.2-1.3-2.1-0.5-3.1-0.1
				c-0.2,0.1-0.3,0.7-0.2,1c0.6,1.1,1.2,2.2,2,3.2c1.2,1.5,1.4,3.1,1.4,5c0,1.1-0.5,2.4,0.7,3.2c0.6-0.2,1.1-0.3,1.4-0.6
				C202.4,76,202.8,75.4,202.9,74.8z M201.1,90.6c2.9-4.1,3.1-8.3,1.7-12.9c-0.8,0.2-1.5,0.4-2.4,0.7c1.2,2.3,0.5,4.6,0.6,6.8
				c0,1.1-0.4,2.2-0.5,3.3C200.5,89.1,200.8,89.7,201.1,90.6z M200.2,83.1c0.1-1.4-0.3-2.8-0.7-4.1c-0.1-0.3-1.1-0.5-1.6-0.4
				c-2.2,0.9-4.3,0.7-6.4,0.2c0-0.2,0-0.3,0-0.5c1.6-0.2,3.2-0.3,4.8-0.6c0.9-0.1,2.3-0.4,2.4-0.8c0.3-1.3,0.4-2.9,0-4.2
				c-0.5-1.8-1.5-3.4-2.3-5.1c-1-2.2-1.3-2.1-3.4-0.7c-2.3,1.6-4.9,2.8-7.3,4.3c-1,0.6-1.8,1.3-2.7,1.9c1.1,0.7,2,1.5,3.1,1.8
				c2.5,0.8,3.3,3.2,5.1,4.7c1.7,1.4,3,3,4.6,4.5c1.1,1.1,2.2,2.1,3.3,3.2C199.5,85.8,200.1,84.5,200.2,83.1z M195.3,64.1
				c1-0.9,2.8-1,2.3-2.7c-0.7-2.4-1.1-5.1-4.1-6c-1.3-0.4-2.6-0.9-3.8-1.5c-0.4-0.2-0.7-0.5-1.3-0.8c-0.6,0.8-1.3,1.7-2.1,2.9
				c0.5,0.3,1.1,0.8,1.5,0.7c2.2-0.3,3.6,1.2,4.9,2.3c1.2,0.9,1.6,2.8,2.3,4.3C195.1,63.5,195.2,63.7,195.3,64.1z M196.2,97.2
				c1.8-2.7,1-5.4,0.7-8.1c-0.2-1.7-0.6-3.3-2.4-4c-0.2-0.1-0.2-0.4-0.3-0.6c-0.2,0.1-0.3,0.2-0.5,0.3c-0.3-0.4-0.5-0.9-0.8-1.3
				c-0.1-0.1-0.2-0.2-0.2-0.3c-1.8-1.9-3.5-4-5.5-5.5c-2.7-2-5.7-3.6-9-5.6c0.6,2.5,0.9,4.7-0.9,6.4c-1.8,1.7-3.8,2.2-6.1,1.9
				c-0.3,1.1-0.4,2.2-0.9,3.2c-1.1,2.5-2.8,3.4-5.4,3.2c-1-0.1-1.2,0.2-1.2,1.1c0,1.9-2.2,4.5-4,4.8c-1.3,0.2-2.6,0.2-3.7,0.7
				c-0.7,0.3-1.1,1.3-1.6,2c-1,1.4-2,2.9-3.9,3.2c-0.7,0.1-1.4,0.6-2.1,0.6c-0.7,0-1.5-0.4-2.2-0.6c-0.2-0.1-0.6-0.1-0.7,0.1
				c-1.8,2.3-4.2,2.7-7.3,2.4c0.7,0.9,1.2,1.4,1.7,1.9c0.9,0.9,1.8,1.8,2.8,2.6c1.6,1.3,3.3,2.4,5,3.6c0.9,0.6,5.5,0,5.8-0.9
				c0.7-1.7,1.2-1.4,2.5-0.6c1.9,1,4.2,1.1,6-0.5c0.8-0.7,1.2-1.7,1.8-2.5c4.5,3.9,10.6,1.5,12.2-3.5c0.2,0,0.3,0,0.4,0.1
				c1,2.3,3.4,2,5.2,2.3c1.8,0.3,4-0.3,5.3-2.3c0.5-0.8,1.4-1.3,0.7-2.5c-0.1-0.1,0.2-0.5,0.3-0.8
				C189.9,99.9,194.3,100.1,196.2,97.2z M196.3,41.1c0.2-0.3,0.4-0.7,0.3-1c-0.9-2.7-2-5.4-4.4-7.1c-2.8-2-5.9-2.9-9.4-2.4
				c-0.4,0.1-0.9,0.5-1.1,0.8c-1,2.3-2,4.6-2.8,6.9c-1.1,3.3-1.9,6.7-2.8,9.7c0.5,0.2,0.9,0.4,1.3,0.6c0.2,0.1,0.5,0.3,0.7,0.3
				c1.8-0.2,3.2,0.6,4.4,1.7c0.9,0.9,1.8,1.8,2.7,2.7c0.2,0.2,1,0.3,1,0.2c0.4-0.7,1-1.6,0.8-2.1c-1-2.4-2.8-4.2-5.3-5
				c-1.1-0.3-2.3-0.3-3.4-0.5c-0.3-0.1-0.6-0.4-0.9-0.6c0.2-0.3,0.4-0.8,0.6-0.8c1.4,0.2,2.8,0.2,4.1,0.7c1.2,0.4,2.4,1.1,3.4,2
				c0.9,0.8,1.5,2,2.2,3c0.1,0.2,0.2,0.4,0.4,0.8c0.8-0.9,1.6-1.6,2.2-2.4c0.5-0.5,0.8-1.2,1.2-1.7C193.1,44.9,194.7,43,196.3,41.1z
				 M191.9,66c0.8-0.5,1.7-0.9,2.5-1.4c-0.5-1.1-0.8-2-1.2-2.8c-0.9-2.2-2.6-3.4-4.9-3.9c-0.5-0.1-0.9-0.4-1.3-0.6
				c-1.9-0.9-2.7,0.7-3.7,1.8c-0.5,0.6-0.9,1.3-1.4,1.9c-1.8,2.3-3.5,4.5-5.3,6.8c-0.3,0.4-0.7,0.9-1,1.2c1.6,0.9,3.4,1.9,5.2,2.9
				c0.3,0.1,0.7,0.2,1,0.1c1.6-0.9,3.1-2,4.7-2.9C188.3,67.9,190.1,67,191.9,66z M180.2,60.8c1.6-1.9,3.2-3.8,4.9-5.7
				c-2-3.7-5-5.8-9.6-5.3c-1.7,5.6-3.4,11.5-5.2,17.3c1.1,0.4,2.1,0.7,3.2,1.1c0,0.1-0.1,0.3-0.2,0.5c0.1,0,0.3,0,0.3-0.1
				c1.9-2.3,3.8-4.5,5.7-6.8C179.7,61.5,179.9,61.1,180.2,60.8z M179.9,30.2c0.1-0.4-0.1-1-0.3-1.4c-1.2-1.4-2.5-2.4-4.3-3.1
				c-2.1-0.9-4.2-1.1-6.3-1.2c-1.8-0.1-3.7,0.7-5.6,1.2c-0.3,0.1-0.7,0.8-0.7,1.2c0.1,4.7,0.4,9.4,0.6,14.1c0,0.4,0,0.9,0,1.3
				c2.3-0.2,4.5-0.8,6.7-0.6c2.1,0.2,4.1,1.1,6.2,1.7C177.3,39.3,178.6,34.8,179.9,30.2z M177.4,71.9c0-0.1,0.1-0.1,0.1-0.2
				c-0.5-0.3-1.1-0.9-1.6-0.8c-1.8,0.4-2.7-1.3-4.1-1.7c-1.4-0.5-2.9-0.9-4.4-1.2c-1.7-0.4-3.3-0.7-5-0.8c-2.5-0.1-5-0.1-7.6,0
				c-1.9,0.1-3.9,0.1-5.8,0.4c-1.7,0.2-3.3,0.7-4.9,1.1c-1.7,0.4-3.5,0.7-5.1,1.4c-2.6,1.1-5.2,2.2-7.5,3.7c-1.5,1-2.2,3-2.2,5
				c0,1.8-0.1,3.5,0.1,5.3c0.2,1.3,0.8,2.5,1.3,3.7c0.8,2,1.7,4,2.5,6c1,2.4,2.6,4.2,5,5.3c2.9,1.3,5,0.5,6.4-2.7
				c0.1-0.2,0.9-0.3,1.1-0.1c2.7,2.1,6.3,1.2,7.6-2c0.4-1,0.6-2.2,0.9-3.3c1.9,1.6,4,1.2,5.9-0.2c2-1.5,2.7-3.5,2.3-6.1
				c3.3,2,7.3-0.4,7.4-4.8c1.8-0.5,3.7-0.9,5.5-1.7c1.9-0.9,2.7-3.2,1.4-5.7c-0.1-0.2-0.2-0.4-0.3-0.6
				C176.8,71.8,177.1,71.8,177.4,71.9z M174.7,47.8c0.3-1,1-2,0.8-2.6c-0.3-0.7-1.3-1.3-2.1-1.6c-1.4-0.6-3-0.9-4.5-1.3
				c-0.2-0.1-0.4,0-0.6,0.1c-1.6,0.5-3.3,1-5.1,1.5c0.1,0.6,0.1,1.5,0.2,2.6C167.4,45.7,171.3,44.6,174.7,47.8z M169.6,65.5
				c1.7-5.6,3.3-11.3,5-17c-3.7-1.8-7.3-2.6-11.2-0.1c0.2,4.1,0.4,8.4,0.6,12.6c0.1,1.2,0.1,2.4,0,3.5c0,0.9,0.3,1.2,1.2,1.2
				c1,0,1.9,0.4,2.9,0.4C168.7,66.2,169.5,65.9,169.6,65.5z M163,65.5c0-1.6,0.1-2.9,0-4.1c-0.1-2.4-0.3-4.7-0.4-7
				c-0.1-1.9,0-3.9-0.3-5.8c-0.1-0.6-1-1.5-1.7-1.5c-2.9-0.4-5.5,0.1-7.8,2.1c-0.7,0.6-1.6,1-2.6,1.5c1.8,5.1,3.7,10.3,5.6,15.5
				c0.1,0,0.3-0.1,0.4-0.1c0-0.2,0.1-0.5,0.1-0.7c0.5-0.1,1-0.2,1.6-0.4c0.1,0.3,0.2,0.6,0.2,0.7c0.8-0.1,1.5-0.2,2.3-0.2
				c0.7-0.1,1.3-0.1,2-0.2c0-0.2,0-0.3,0-0.5C162.5,64.9,162.6,65,163,65.5z M162.5,119.9c0.2-0.2,0.2-0.5,0.4-0.7
				c-1.5-0.4-2.9-0.8-4.3-1.3c0.1-0.1,0.1-0.2,0.2-0.3c-0.3-0.2-0.6-0.7-0.8-0.6c-1.8,0.2-2.8-1-4.1-1.8c-2.2-1.5-4.4-3.1-6.6-4.6
				c-2.4-1.7-5-3.3-7.2-5.3c-1.8-1.7-3.2-3.8-4.7-5.8c-0.8-1-1.7-2.1-2.4-3.2c-1-1.8-2-3.6-2.9-5.5c-0.7-1.6-1.5-3.4-1.7-5.1
				c-0.2-2.2-1.5-4.3-0.4-6.6c0.3-0.7,0.2-1.6,0.1-2.5c0-0.2-0.8-0.6-1.1-0.5c-2.6,0.7-5.2,0.6-7.6-0.6c-1.5-0.8-3-1.7-4.6-2.5
				c-0.2-0.1-0.7,0.1-1,0.3c-1.8,1.7-3.7,3.4-5.2,5.4c-1.1,1.4-1.7,3.1-2.4,4.8c-0.6,1.5-0.9,3-1.5,4.5c-0.7,1.9-0.2,3.7,0.1,5.5
				c0.5,3,1.9,5.4,4,7.5c0.4,0.4,0.8,1.2,0.8,1.8c0.1,2.8,0.5,5.6,1.8,8.1c0.8,1.6,1.7,3.2,2.8,4.6c1.3,1.6,2.9,3.2,4.5,4.4
				c1.1,0.8,2.6,1.2,3.9,1.7c0.8,0.3,1.8,0.4,2.6,0.7c0.3,0.1,0.6,0.7,0.6,1c0.1,1.7,2.2,3.9,3.8,4.2c1,0.2,1.9,0.5,2.9,0.6
				c1.8,0.2,3.1-0.9,4.6-1.6c0.3-0.2,1-0.2,1.3,0c1.6,1.5,3.5,2.5,5.6,3.2c2.8,0.9,5.4,0.6,7.9-0.3c1.7-0.6,3.3-1.8,4.6-3
				C158.7,124.3,160.5,122,162.5,119.9z M162.2,44.6c0.1-1,0-1.7-1.3-1.6c-0.9,0-1.7-0.5-2.6-0.6c-2.8,0-5.3,1.1-7.4,3
				c-0.6,0.5-1.2,1.1-1.9,1.7c0.3,0.8,0.6,1.7,1,2.6c3.7-2.4,7.3-5.4,12.3-3.3C162.2,45.7,162.2,45.1,162.2,44.6z M162.3,41.9
				c-0.4-5.6-0.8-10.9-1.1-15.9c-1-0.3-1.5-0.6-2.1-0.6c-2.2,0.2-4.5,0.3-6.7,0.9c-1.4,0.4-2.5,1.9-3.9,2.5c-2,0.9-2.8,2.7-3.6,4.5
				c-0.2,0.4-0.2,1-0.1,1.4c1.2,3.7,2.4,7.4,3.6,11.1C152.4,42.2,156.7,40.2,162.3,41.9z M153.9,138.4c0.3-0.2,0.6-0.9,0.5-1.3
				c0-0.3-0.7-0.4-1.1-0.6c-0.2-0.1-0.5,0-0.7,0c-2.3,0.1-2.7-0.4-2.2-2.8c0.2-0.8,0.2-1.5,0.3-2.3c-1.3,0-2.5,0-3.8,0
				c-0.3,0-0.8,0.5-0.8,0.7c0.1,1.2,0.3,2.4,0.6,3.5c0.2,1,0.5,1.7-1.1,1.7c-3,0-6,0.1-9,0.3c-1.3,0.1-2.9-0.1-3.7,1.8
				c1.9,0,3.6,0,5.3,0c0.1,0.2,0.1,0.4,0.2,0.5c-0.9,0.4-1.8,0.8-2.6,1.2c-1.6,0.8-3.2,1.6-4.7,2.6c-0.3,0.2-0.3,0.7-0.5,1
				c0.3,0.1,0.7,0.3,1,0.4c2.6,0.2,4.5-1.3,6.5-2.5c0.7-0.4,1.4-0.9,2-1.3c0.1,0.1,0.1,0.1,0.2,0.2c-1.1,1.3-2.2,2.6-3.2,3.9
				c-0.4,0.5-0.8,1.1-1,1.7c-0.2,0.4-0.4,1-0.2,1.2c0.2,0.3,0.8,0.5,1.2,0.4c0.8-0.3,1.7-0.6,2.4-1.2c2-1.7,3.8-3.6,5.9-5.1
				c1.4-1,3.2-1.5,4.9-2.2C151.5,139.5,152.8,139.1,153.9,138.4z M154,65.4c0-0.4,0-0.8-0.1-1.2c-1.2-3.3-2.5-6.7-3.7-10
				c-0.3-0.7-0.3-1.5-0.6-2.2c-0.2-0.3-0.9-0.6-1.2-0.5c-3,0.6-5.4,2-6.9,4.6c-0.4,0.8-0.6,1.6-1,2.5c-0.1,0.3-0.4,0.5-0.6,0.8
				c1.5,2.2,3,4.6,4.6,6.8c0.2,0.3,0.9,0.3,1.3,0.2c0.8-0.1,1.6-0.2,2.4-0.4c1.2-0.2,2.4-0.5,3.6-0.7c0.4-0.1,0.9-0.1,1.3-0.1
				C153.4,65.2,153.7,65.3,154,65.4z M148.8,50.5c-0.1-0.6-0.3-1.6-0.6-2.7c-2.2-0.3-4.5,0.6-6.5,2.4c-1.9,1.6-3.4,3.6-3.7,6.4
				c0.1,0.1,0.4,0.3,0.8,0.6c-0.1,0.1-0.2,0.2-0.3,0.5c0.4,0.2,0.8,0.3,1.2,0.5c0.1-2.1,1-3.6,2.7-4.7c1.1-0.7,2-1.8,3.1-2.3
				C146.5,50.6,147.7,50.7,148.8,50.5z M147.5,46.7c-0.4-1.1-0.8-2.2-1.2-3.3c-0.9-2.6-1.7-5.3-2.7-7.9c-0.1-0.3-1.2-0.5-1.6-0.3
				c-1,0.5-1.8,1.3-2.7,1.9c-0.4,0.3-1,0.4-1.4,0.7c-0.1-0.1-0.3-0.3-0.4-0.4c-0.1,0.5-0.3,1.1-0.3,1.6c-0.2,2.6-0.2,5.1-0.5,7.7
				c-0.1,1.1-0.8,2.1-1.3,3.2c-0.5,1-1.2,2-0.1,3.1c0.6,0.6,1,1.4,1.5,2.1C139.1,50.5,142.1,47.2,147.5,46.7z M145.3,135.7
				c0.6-1.2-0.6-4.2-1.8-4.8c-1.8-0.9-3.6-2.1-5.5-2.8c-0.6-0.2-1.9,0.5-2.3,1.1c-0.6,0.9-0.7,2.2-1.1,3.4c2,0.3,3.2,1,3.3,2.9
				c0,0.3,0.8,0.8,1.3,0.8c1.8,0,3.5-0.2,5.3-0.3C144.8,136,145.2,135.9,145.3,135.7z M143.8,66.9c-1.5-2.1-2.9-4-4.5-6.1
				c-1.9,2.2-2.6,4.5-2,7.5C139.3,67.9,141.4,67.4,143.8,66.9z M138,60.4c0.9-1.1,0.3-2,0-3c-0.1-0.2-0.8-0.4-0.8-0.3
				c-0.9,1-1.7,2-2.5,3c0.1,0.1,0.3,0.2,0.4,0.3c-0.3,0.8-0.8,1.6-0.9,2.4c-0.3,2-0.6,4-0.8,6c0,0.2,0.5,0.6,0.5,0.6
				c0.6-0.4,1.4-0.7,1.5-1.2c0.5-1.6,0.7-3.4,1.1-5.1C136.9,62.1,137.4,61.1,138,60.4z M136,136c0.3-0.1,0.5-0.4,0.8-0.6
				c-0.3-0.3-0.5-0.8-0.8-0.9c-0.5-0.2-1.1-0.3-1.6-0.2c-0.9,0.1-1.2-0.4-1-1.1c0.1-0.8,0.3-1.7,0.6-2.5c0.3-0.9,0.3-1.3-0.8-1.3
				c-0.8,0-1.6-0.2-2.4-0.1c-0.2,0-0.6,0.5-0.6,0.8c-0.1,1.3,0.3,3.5-0.3,3.8c-1.3,0.6-3,0.4-4.6,0.3c-1.6-0.1-3.2-0.6-4.8-0.8
				c-0.7-0.1-1.5,0.3-2.3,0.5c0,0.2,0,0.4,0,0.6c1.5,0.3,3,0.6,4.9,1c-2.8,1-5.2,1.9-8,3c1.7,1.5,3.1,0.9,4.4,0.6
				c1.3-0.4,2.6-1,4.3-1.7c-0.5,0.6-0.7,0.9-0.9,1.1c-1,1.1-2.1,2.3-3,3.4c-0.1,0.1,0.5,0.9,0.6,0.9c1.4-0.7,2.8-1.4,4.3-2.1
				c1.7-0.9,3.3-1.9,5-2.7C131.6,137.2,133.8,136.7,136,136z M136.1,42.7c0-1.6-0.3-3.1-0.5-4.7c-0.1-1-0.2-2-0.5-2.9
				c-0.2-0.5-0.6-1.1-1.1-1.4c-1.7-1.1-3.6-2-5.3-3.2c-1.9-1.3-4-0.8-5.9-0.5c-3.3,0.7-6.3,2-7.8,5.4c-0.1,0.2,0.2,0.9,0.5,1
				c0.5,0.3,1,0.4,1.6,0.6c0.8,0.3,1.7,0.7,2.5,0.7c1.9,0.1,3.8,1.7,4.7,3.2c1.2,2-0.4,3.6-0.2,5.3c0.2,1.3,0.1,2.8,0.6,3.9
				c1.2,2.6,0.8,4.6-1.5,6.2c-0.1,0.1-0.3,0.2-0.4,0.4c-1,1.8-2,3.5-2.9,5.3c-0.9,1.8-1.6,3.8-2.4,5.7c-0.4,1-0.8,1.9-1.2,2.9
				c-0.7,1.6,0.6,2.3,1.6,2.7c2.1,0.8,4.3,1.3,6.4,2c0.1-0.2,0.1-0.3,0.1-0.5c2,0.1,3.8,0.1,5.5-1.4c1.5-1.3,1.7-2.5,0.8-4.2
				c-0.5-0.9-0.6-2-0.7-3.1c-0.1-2-0.3-4,0-5.9c0.3-2,1-4,1.7-5.9c0.7-1.7,1.9-3.2,2.7-4.8c0.5-0.9,0.5-2.1,0.8-3.1
				C135.6,45.1,136.1,43.9,136.1,42.7z M135.6,56.5c0.5-0.7,0.4-1.1,0-1.6c-0.5-0.6-0.9-1.3-1.4-1.9c-3.3,4.1-4.2,14.2-1.5,16.8
				c0.4-2.9-0.3-5.9,0.5-8.4c0.5-0.9,0.7-1.3,0.9-1.8c0,0-0.1,0-0.1-0.1C134.5,58.5,134.9,57.4,135.6,56.5z M121.3,55.6
				c1.4-0.1,2.8-1,2.7-2.2c-0.1-1.1-0.5-2.1-0.6-3.2c-0.1-2.7,0-5.5,0-8.2c0-1.7-1.2-3.1-2.8-2.9c-2,0.2-3.4-0.7-5-1.6
				c-0.4-0.2-1.3-0.2-1.5,0.1c-0.4,0.5-0.4,1.2-0.5,1.8c0,0.1,0.4,0.4,0.5,0.4c1.8-0.3,3.6-0.3,5.3,1c0.2,0.4,0.4,1,0.7,1.5
				c0.9,1.2,0.2,2.4,0,3.6c-0.2,2-0.1,4-0.1,6c0,0.6-0.1,1.2,0,1.8C120.2,54.5,119.6,55.7,121.3,55.6z M121.6,57.6
				c0.1-0.1-0.4-0.6-0.6-0.7c-1-0.5-1.8-1-1.7-2.4c0.1-2.7,0-5.4,0-8.2c-0.9,0.3-1.9,0.5-2.9,0.8c0,0,0,0.1,0,0.1
				c1.8,1.1,0.6,2.6,0.6,3.9c0,0.8,0.3,1.5,0.4,2.1c-0.2,1.4-0.5,2.6-0.4,3.8c0.1,0.7,0.8,1.6,1.5,1.8
				C119.7,59.3,120.9,58.9,121.6,57.6z M118.6,45.2c1.2-0.3,1.4-1.9,0.6-2.9c-1.1-1.5-2.6-1.6-4.3-1.5c-2.7,0.2-3,2.6-4,4.3
				c-0.1,0.1,0.5,0.8,0.8,0.9c0.5,0.2,1.1,0,1.6,0c0,0.1,0,0.2,0,0.2C115.1,45.9,116.9,45.7,118.6,45.2z"/>
			<path d="M127.1,34.4c1.4,0,2.6,1.8,2.3,3.9c-0.1,0.8-1.4,1.7-2.3,2c-1.1,0.4-2.4-1.3-2.4-2.8C124.7,36,125.9,34.4,127.1,34.4z
				 M128.7,37.1c0-0.1,0-0.7-0.3-0.9c-0.5-0.4-1.5-1-1.7-0.8c-0.6,0.5-0.9,1.4-1.2,1.9C126.6,37.2,127.5,37.2,128.7,37.1z"/>
		</g>
	</g>
</g>
<g>
	<path d="M272.4,169.2c0-0.5-0.3-1-0.1-1.4c0.5-1.3-0.2-1.9-1-2.6c-0.7-0.6-1.2-1.4-1.5-2.3c-0.2-0.6,0-1.3,0.1-2
		c0.1-2.5-0.2-2.7-2.2-2.7c-0.9-0.8-1.6-1.3-2.2-1.8c-0.4-0.3-0.9-0.7-1.3-1c0.4-0.4,0.9-0.8,1.2-1.3c0.5-0.6,1.2-1.2,1.5-1.9
		c0.3-0.8,0.5-1.8,0.4-2.7c0-0.6-0.5-1.2-0.8-1.7c-0.2-0.3-0.8-0.4-1.2-0.6c0-0.7,0.1-1.4,0-2c-0.1-0.7-0.5-1.2-0.7-1.9
		c-0.2-0.6-0.4-1.3-0.2-1.8c0.3-1-0.1-1.6-0.7-2.3c-0.4-0.6-0.7-1.4-0.6-2c0.1-1.4,0-2.6-1.1-3.6c-0.4-0.4-0.6-1-1-1.7
		c0.6-0.1,0.9-0.1,1.2-0.1c2-0.1,2.8-0.8,3.1-2.7c0.1-0.8,0.2-1.6,0.3-2.4c0.2-1.3,0.7-1.7,2-1.1c0.9,0.4,1.6,1.2,2.4,1.8
		c0.4,0.2,0.9,0.3,1.3,0.4c0-0.5,0.3-1.1,0-1.5c-1-1.6-2.1-3-3.1-4.6c-2.1-3.1-4.9-4.1-8.5-3c-1.5,0.4-3,0.3-4,0
		c-0.7-2.3-1.3-4.3-1.8-6.1c0.3-0.8,0.6-1.5,0.9-2.2c0.3-0.8,0.6-1.5,0.9-2.3c1-2.9,0.2-4.9-2.3-5.8c-0.8-0.3-1-0.8-0.4-1.4
		c0.7-0.8,0.4-1.4-0.5-1.7c-0.9-0.3-1.8-0.4-2.7-0.6c-0.3-0.1-0.7-0.1-1.2-0.1c0.8-1.2,0.2-1.7-0.6-2.2c-1.2-0.9-2.3-1.9-3.5-2.8
		c-0.2-0.1-0.3-0.4-0.3-0.6c0.1-1.2-0.7-1.3-1.6-1.4c-2.3-0.2-3.2,0.3-4.2,2.4c-0.2,0.3-0.4,0.6-0.6,0.9c-0.7-0.3-1.3-0.6-1.9-0.8
		c-1.5-0.6-3-0.7-4.5,0c-1.5,0.7-2.9,0.8-4.5,0.2c-1.3-0.5-2.5-0.1-3.3,1.1c-0.7,1-1.4,2.3-2.4,2.9c-2.3,1.5-4.7,2.8-7.2,4.1
		c-1.1,0.6-2.3,1.2-3.6,1.6c-0.9,0.3-2,0.7-2.9,0.6c-0.7,0-1.3-0.2-2-0.3c0.1,0.5,0,1-0.1,1.5c0.7,0.1,1.3,0.3,1.9,0.5
		c1.3,0.4,2.4-0.1,3.5-0.7c1.3-0.7,2.6-1.2,3.9-1.9c2.5-1.4,5-2.7,7.4-4.2c1-0.7,1.7-2,2.5-3c0.6-0.8,1.2-1.1,2.1-0.7
		c1.6,0.8,3.2,0.6,4.9-0.2c1.6-0.7,3.1-0.5,4.6,0.3c2.1,1,2.5,0.8,3.6-1.2c0.2-0.4,0.5-1,0.8-1.2c0.4-0.2,1.3-0.4,1.6-0.1
		c1.5,1.3,2.9,2.6,4.4,4c0.2,0.2,0.4,0.6,0.5,0.9c0.3,1.5,1.1,2.1,2.6,2c0.5,0,0.9,0,1.4,0c-0.3,2.5-0.3,2.5,2,3.7
		c1.2,0.6,1.7,1.6,1.3,2.8c-0.5,1.7-0.8,3.5-2.3,4.8c-0.2,0.2-0.4,0.8-0.3,1.1c0.5,1.4,1.1,2.7,1.6,4c0.1,0.3,0.2,0.7,0.1,1
		c-0.4,1.4-0.1,2.2,1.3,2.4c1.7,0.3,3.5,0.4,5.2,0.2c4.2-0.6,5.2-0.2,7.6,3.5c-2.6,0.1-3.8,1.3-3.7,4.1c0.1,2.2-0.3,2.5-2.5,2.4
		c-0.3,0-0.6-0.1-1-0.1c-1.2-0.1-1.6,0.3-1.2,1.5c0.1,0.4,0.2,0.8,0.4,1.2c1.2,1.8,2.2,3.7,1.6,6c0,0.1,0,0.2,0.1,0.3
		c1.9,1.7,0.8,4.4,2.1,6.2c0.2,0.2,0.2,0.7,0.1,1.1c-0.2,1.4,0,2.6,1.7,2.8c0,0.2,0,0.3,0,0.4c-0.2,1.8-0.4,3.3-2.3,4.4
		c-1.4,0.9-0.8,2.8,0.8,3.6c0.9,0.4,1.4,0.8,1.8,1.8c0.2,0.6,1.4,0.8,2.2,1.1c0.1-0.1,0.2-0.2,0.3-0.3c0,0.7-0.1,1.4-0.1,2.1
		c-0.1,1.8,0.4,3.3,2,4.4c0.4,0.3,0.5,1.2,0.7,2c-2.8,0.1-4.2,2-6.1,3.8c0-0.8,0-1.2,0-1.6c0-0.2,0.2-0.4,0.3-0.6
		c0.7-1.5,0.6-2.8-0.4-3.5c-1-0.8-3.1-0.6-4.1,0.2c0,0-0.1,0.1-0.1,0.1c-1.6,2.4-3.7,1.9-5.9,0.9c-1.3-0.6-2.7-1.2-4-1.7
		c-1.4-0.5-2.8-0.6-4.1,0.5c-0.2,0.2-0.7,0.3-0.9,0.1c-1.5-0.6-2.6,0-3.4,1.1c-0.6,0.7-1,1.5-1.5,2.3c-0.2,0.3-0.7,0.5-1,0.7
		c-0.2-0.3-0.5-0.6-0.6-0.9c-0.7-2-2.2-2.9-4-1.6c-2.8,1.9-6.1,2.3-9.1,3.5c-1.3,0.5-2.9,0.5-4.2,0.4c-4.9-0.7-9.5,0.3-13.8,2.6
		c-4.2,2.3-8.8,3.5-13.5,3.7c-2.5,0.1-4.8-0.6-6.8-1.9c-0.6-0.4-1.2-0.8-1.9-1.1c-2.2-1.3-4.5-1.4-6.9-0.4c-1.9,0.7-4,1.2-5.9,1.9
		c-0.5,0.2-1.1,0.3-1.5,0.6c-2.1,2.2-4.1,0.8-6.2,0c-1.7-0.7-3.4-1.6-5.1-2.2c-1.9-0.6-2.6-0.1-3,1.8c-0.2,1-0.7,1.9-0.8,2.9
		c0,1,0.3,2.1,0.6,3.1c0.2,0.7,0.6,1.4,1.1,2.2c-0.9,0-1.6,0-2.3,0c-1.6,0.1-2.7,1.2-2.2,2.7c0.4,1.4,0.3,2.3-1.2,2.6
		c-0.3,0.1-0.5,0.4-0.7,0.5c-0.8-0.3-1.6-0.5-2.4-0.8c0.3-2-0.5-3.8-1.8-5.3c-0.8-1-0.5-1.4,0.4-2c1.6-1.3,3.3-2.6,4.7-4.1
		c1.7-1.8,1.3-3.9-0.8-5.1c-1.4-0.8-2.4-0.7-3.5,0.5c-0.8,0.9-1.6,1.5-2.9,1.4c-0.7,0-1.5,0.3-1.9,0.8c-0.2,0.3,0.3,1.2,0.4,1.9
		c-2.3,0.7-4.7,0.6-6.7-1.4c-1.1-1.1-2.3-2-3.6-2.8c-1.2-0.7-2.8-0.6-3.9,0.2c-2.2,1.7-4.3,3.5-6.3,5.4c-0.7,0.7-1,1.8-1.5,2.9
		c-0.6-1.6-1.6-1.3-2.3-0.4c-1.7,2.1-3.7,2.4-6.3,1.8c-1.3-0.3-2.7,0.3-4.1,0.5c-0.4,0-0.7-0.1-1.1-0.2c-0.8-0.1-1.6-0.4-2.3-0.2
		c-1.1,0.3-2.2,0.9-3.4,0.1c-1.5-0.9-3-1.9-3.7-3.6c-0.2-0.5-0.4-0.9-0.6-1.4c-0.7-1.7-1.9-2.8-3.4-3.8c-2.6-1.6-5.1-3.3-7.6-5.1
		c-1.8-1.3-3.9-1.5-6.1-1.8c-1.3-0.1-2.6-0.3-3.9-0.6c-1-0.2-1.7,0-2.1,1c-0.2,0.6-0.4,1.2-0.5,1.8c-0.1,0.4,0,0.8-0.1,1.1
		c-0.8,1.9-1.6,3.7-2.5,5.7c-1.4-1.5-3.4-1.3-5.1-0.5c-3.1,1.5-5.8,1.4-8.4-0.8c-0.8-0.7-2-1.1-2.8-1.9c-0.4-0.3-0.4-1.2-0.4-1.8
		c0.1-1.2,0.5-2.4,0.4-3.7c0-1.3-1.2-1.7-2.3-2c-1-0.3-1.6,0.2-1.8,1.2c-0.1,0.2-0.2,0.3-0.2,0.4c-1.5-1.5-2.9-3.1-4.6-4.4
		c-1.4-1.1-1.7-0.8-2.3,0.7c-1.4-0.9-1.5-0.9-2.1,0.7c-0.2,0.6-0.9,0.9-1.4,1.4c-0.5-0.9-0.9-1.7-1.3-2.6c0.8-0.3,1.8-0.6,2.7-0.9
		c0.8-0.3,1.6-0.4,2.3-0.9c1.2-0.8,1.1-1.9-0.3-2.2c-2.1-0.4-4.3-0.6-6.4-0.7c-2.2-0.1-4.3,0-6.8,0c0.3-0.8,0.3-1.4,0.6-1.5
		c0.3-0.1,0.9,0.1,1.1,0.4c0.7,1.1,1.6,1.2,2.6,0.6c1-0.6,1.4-1.6,0.9-2.8c-0.8-1.9-2.2-3.3-4.2-3.8c-0.1-1.4-0.2-2.7-0.3-4
		c2.8-1.4,3-6,0-7.4c-0.9-0.4-1.7-1.1-2.6-1.4c-1.1-0.4-0.6-1.3-0.9-1.9c-0.3-0.6-0.8-1.3-1.4-1.6c-0.4-0.2-1.1,0.3-1.6,0.6
		c-0.2,0.1-0.3,0.5-0.5,0.8c-0.7-0.8-1.4-1.5-1.9-2.1c0.5-0.4,1.4-0.8,1.6-1.4c0.2-0.7-0.3-1.6-0.5-2.4c-0.1-0.3-0.4-0.6-0.4-0.8
		c0-0.4,0.2-0.7,0.3-1.1c0.3,0.1,0.9,0.2,1,0.4c0.4,1.1,0.8,2.3,0.9,3.5c0.1,1.3,0.4,1.8,1.9,1.8c1.6,0,3.1,0.7,4.7,0
		c0.5-0.2,0.9-0.6,1.4-0.9c-0.4-0.4-0.8-1-1.4-1.1c-1.9-0.4-2.8-1.7-2.9-3.2c1.4-1.3,2.8-2.3,3.9-3.5c1.1-1.2,0.8-1.8-0.8-2
		c-2-0.2-2-0.4-1.4-2.2c0.2-0.5,0-1.2-0.3-1.7c-0.4-0.7-1-1.2-1.7-2c0.8-0.4,1.4-0.7,2-1c0.9-0.5,1.8-1,2.6-1.7
		c0.4-0.4,0.6-1.3,0.4-1.8c-0.2-0.5-1.1-0.9-1.6-0.8c-2.6,0.1-5.3,0.4-7.9,0.6c-0.5,0-1,0.1-1.7,0.2c0.3-0.7,0.5-1.2,0.6-1.7
		c0.3-1.4,0.8-2.9,0.9-4.4c0.1-1.1,0.5-1.7,1.6-2.1c1-0.4,1.8-1,2.8-1.6c0.5-0.3,1-0.6,1.5-0.9c0.9-0.6,1.8-1.2,2.7-1.7
		c0.6-0.3,1.3-0.6,2.1-0.7c1.3-0.2,2.6-0.2,3.8-0.6c1-0.2,1.5-0.1,1.7,0.9c0.2,1.2,1,1.7,2,1.9c1.2,0.2,2.4,0.5,3.6,0.5
		c2.3,0.1,2.9-0.9,1.8-2.9h1.2c-0.1,0.3-0.1,0.6-0.2,0.8c-0.3,1.2,0.2,2,1.4,1.8c4.1-0.7,7.8,0.3,11.6,1.6c0.5,0.2,1.1,0.1,1.6,0.1
		c1-0.2,1.5-0.9,1.5-1.8c0-1-0.6-1.3-1.5-1.5c-0.5-0.1-1-0.2-1.5-0.5c2.1-1.2,4.3-1.2,6.6-1c1.7,0.2,3.3,0.4,5,0.4
		c0.9,0,1.7-0.4,2.6-0.8c0.3-0.1,0.5-0.6,0.5-1c0-0.2-0.4-0.6-0.7-0.7c-1.6-0.3-3.3-0.5-4.9-0.8c-1-0.2-2-0.5-2.8-1.1
		c-1.1-0.8-1.8-2.1-2.8-2.9c-0.6-0.5-1.6-1-2.4-0.9c-2.1,0.4-3.9,0-5.6-1c-2.1-1.2-4.2-1.5-6.5-0.5c-0.7,0.3-1.9,0.1-2.7-0.2
		c-2.6-0.8-3.6-0.4-5.2,1.8c-0.8,1.1-2.1,1.9-3.3,2.7c-0.6,0.4-1.3,0.6-2,0.8c-0.8,0.2-1.6,0.4-2.4,0.6c-0.3-2.3-0.9-2.8-3.2-2.5
		c-1.3,0.1-2.6,0.3-3.9,0.3c-1.1,0-2-0.5-1.9-0.9c0.6-0.9,1.1-1.8,1.7-2.6c0.2-0.2,0.5-0.4,0.7-0.5c1.6-0.4,2.1-1.4,2.1-2.9
		c0-0.5,0-0.9,0-1.4c0-1.1,0.4-1.6,1.6-1.8c3-0.5,3.6-1.2,3.3-4.3c-0.1-1.4-0.2-2.9-1.6-3.9c1.4-0.4,2.5-1,2.5-2.7
		c0-0.2,0.5-0.5,0.8-0.5c0.6,0,1.2,0.1,1.7,0.3c1.4,0.3,2.4,0,3.3-1.2c0.7-1.1,2.7-0.5,3.3,0.9c0.3,0.6,0.5,1.3,0.8,1.9
		c0.7,1.2,1.6,1.5,3,1.2c1.1-0.3,2.2-0.4,3.3-0.5c0.9,0,1.3,0.4,0.8,1.4c-0.3,0.7-0.5,1.6-0.5,2.3c0,1.1,0.2,2.2,0.6,3.2
		c0.2,0.6,0.6,1.3,1.2,1.6c2.2,1.6,4.4,3.1,6.7,4.5c1.3,0.8,2.9,1.3,4.3,1.9c2.1,0.8,4.3,1.5,6.4,2.2c1.5,0.4,3,0.8,4.5,0.9
		c0.8,0.1,1.8-0.2,2.5-0.7c1.1-0.8,1.8-0.5,2.8,0.2c2.4,1.8,4.9,3.3,8,3.5c1.4,0.1,2.8-0.2,4.1-0.6c1.2-0.4,2-1.4,2.2-2.7
		c0.1-1,0.7-1.3,1.5-1.7c1.6-0.7,5.1-1.4,6.7-2.2c-0.3-0.4-0.6-0.8-0.7-1.2c-1.5,0.8-5.1,1.6-6.8,2.1c-1,0.3-1.8,0.7-2.1,1.9
		c-0.4,2-1.3,2.9-3.4,2.8c-1.6-0.1-3.3-0.4-4.9-1c-1.5-0.6-2.8-1.6-4.2-2.5c-1.1-0.7-2.3-1.2-3.4-0.3c-1.9,1.5-3.8,1.1-5.8,0.3
		c-1.6-0.6-3.2-1.5-4.8-1.8c-4-0.7-7-2.9-10.3-5c-2.1-1.3-3.6-2.7-3.6-5.2c0-0.6,0-1.2,0.3-1.7c0.9-1.5,0.3-3.3-1.5-3.5
		c-1.1-0.1-2.2,0-3.3,0.3c-1.8,0.5-1.9,0.5-2.9-1.2c-0.1-0.2-0.3-0.5-0.4-0.7c-0.6-1.9-2.3-2.1-3.9-2.4c-0.4-0.1-1.1,0.2-1.3,0.5
		c-0.9,1.7-2.4,1.3-3.8,1.1c-0.4-0.1-0.8-0.2-1.2-0.2c-1,0-1.7,0.2-1.6,1.4c0,0.9-0.4,1.6-1.4,1.6c-0.2,0-0.5,0.1-0.6,0.2
		c-0.6,0.4-1.1,0.8-1.6,1.2c0.4,0.5,0.9,1.1,1.3,1.5c0.3,0.3,0.9,0.4,0.9,0.7c0.2,1.3,0.4,2.6,0.2,3.9c-0.1,0.5-1.4,0.8-2.2,1
		c-1.8,0.4-2.5,1.3-2.6,3.1c0,0.5,0.2,1,0.1,1.5c-0.1,0.5-0.4,1.1-0.8,1.2c-1,0.2-1.6,0.7-2.1,1.6c-0.2,0.4-0.8,0.7-1.3,0.9
		c-1.2,0.5-1.5,1.1-0.9,2.3c0.8,1.8,2.6,2.7,5,2.6c1.2-0.1,2.4-0.3,3.6-0.4c-1.5,0.6-3.1,1.1-4.7,1.5c-2.1,0.5-3.1,1.7-3.4,3.9
		c-0.2,1.6-0.3,3.4-1.6,4.7c-0.2,0.3-0.4,0.8-0.3,1.1c0.2,2.2-0.7,4.2-1.5,6.2c-0.6,1.5-0.2,2.2,1.4,2.4c0.4,0.1,0.9-0.1,1.3-0.1
		c2.6-0.3,5.3-0.5,7.9-0.8c0,0.2,0.1,0.3,0.1,0.5c-0.9,0.5-1.9,0.9-2.8,1.4c-2.1,1.1-2.3,2.4-0.7,4c0.7,0.7,0.8,1.2,0.5,2.1
		c-0.6,1.5-0.1,2.4,1.3,3.1c0.3,0.1,0.6,0.3,0.9,0.4c0,0.1,0.1,0.3,0.1,0.4c-0.9,0.4-1.8,1-2.7,1.3c-1.1,0.4-1.5,1-1.2,2
		c0.5,1.4,1,2.7,1.5,4c-0.5-0.1-1.2-0.3-1.9-0.5c-0.2-1.1-0.4-2.2-0.6-3.2c-0.3-1.3-1.2-2-2.4-2c-0.7,0-1.8,0.4-1.9,0.7
		c-0.2,0.9,0.1,2,0.3,3c0.1,0.5,0.3,0.9,0.4,1.3c-0.5,0-1,0.2-1.4,0.1c-0.8-0.2-1.5-0.2-1.8,0.8c-0.3,1,0.1,1.5,0.9,2
		c0.6,0.4,1.2,0.8,1.8,1.2c0.7,0.5,1.3,1.4,2.1,1.5c0.6,0.1,1.4-0.7,2-1c0.2,0.7,0.4,1.5,0.8,2.4c0.1,0.3,0.6,0.7,0.9,0.7
		c1.5-0.3,2.3,0.9,3.3,1.7c1,0.8,0.8,1.9,0.4,3c-0.3,1-1.2,0.8-2,0.9c-0.5,0-1,0.3-1.4,0.4c0.2,0.4,0.4,1,0.7,1.3
		c1.2,1.1,1.5,2.1,0.8,3.6c-0.6,1.3-0.5,1.6,0.9,1.8c1.6,0.2,2.7,1,3.4,2.4c0.2,0.4,0.2,0.9,0.3,1.4c-1.1-0.5-1.8-1.1-2.7-1.3
		c-1.3-0.3-2.3,0.7-2.5,2.1c-0.2,1.2,0.5,2.5,1.5,2.5c1.8,0.1,3.7,0.2,5.5,0.2c2,0,3.9,0,5.9,0c0,0.2,0,0.4,0.1,0.6
		c-1.8,0.3-3.6,0.6-5.4,0.9c-1.8,0.2-3.6,0.2-5.4,0.5c-0.6,0.1-1.3,1.1-1.4,1.7c0,0.5,0.7,1.3,1.3,1.6c1.5,0.8,2.9,0.2,4.4-0.4
		c0.8-0.3,2.2-0.3,2.6,0.2c0.7,0.8-0.3,1.4-1,2c-0.3,0.2-0.5,0.7-0.4,1c0,0.2,0.5,0.5,0.8,0.6c1.3,0.2,2.5,0.1,3.4-1.3
		c0.6-0.9,1.9-1.5,3-1.7c0.9-0.1,1.8,0.2,1.9-1.6c0.7,1.2,1,2.2,1.6,2.5c1.3,0.6,1.6,1.7,2,2.9c0.3,0.9,1,1,1.6,0.3
		c0.5-0.5,0.8-1.2,1.2-1.8c0.2-0.2,0.6-0.3,1.2-0.6c-0.3,1-0.6,1.4-0.6,1.9c0,0.5,0.3,1.1,0.2,1.6c-0.4,2.4,0,3.3,2.1,4.6
		c1.5,0.9,3.1,1.7,4.6,2.7c1.3,0.8,2.5,0.9,3.9,0.4c1.3-0.5,2.6-0.9,3.9-1.3c1.3-0.4,2.3-0.3,3,1.1c0.5,1,1.3,1,1.8,0
		c0.6-1,0.9-2.2,1.3-3.4c0.2-0.5,0.1-1.1,0.4-1.4c1-1.1,1.4-2.3,1.4-3.7c0-0.4,0.3-0.8,0.3-1.1c2.1,0.2,4.1,0.2,6.1,0.6
		c1.3,0.2,2.6,0.8,3.7,1.5c2.5,1.5,4.8,3.3,7.3,4.8c1.6,1,2.8,2.2,3.4,3.9c0.9,2.7,2.9,4.3,5.4,5.3c0.9,0.4,2.1,0.3,3,0
		c1.1-0.3,2-0.4,2.8,0.5c0.6,0.7,1.2,0.7,1.8-0.1c0.2-0.3,0.8-0.6,1.2-0.6c1-0.1,2-0.2,3,0c2.3,0.5,4.3,0.4,5.8-1.8
		c0.8,1.7,1.1,1.9,2.2,0.7c0.8-0.8,1.3-1.9,2-2.9c0.3-0.4,0.3-1,0.7-1.3c1.8-1.6,3.7-3.2,5.7-4.7c0.6-0.4,1.7-0.5,2.3-0.3
		c1.1,0.5,2.2,1.3,3,2.2c2.1,2.1,4.5,3,7.5,2.4c2.2-0.4,2.7-0.8,3-2.4c1.1-0.9,2.1-1.5,2.9-2.2c1-0.9,2.2-0.9,2.6,0.3
		c0.2,0.6-0.1,1.7-0.5,2.1c-1.3,1.3-2.7,2.5-4.2,3.7c-1.7,1.4-1.9,2.6-0.6,4.3c0.4,0.5,0.7,1.1,1.1,1.6c0.7,0.9,0.6,1.7,0,2.7
		c-0.7,1.2-0.5,1.7,0.8,1.7c1.3,0.1,2.2,0.4,3.1,1.4c0.5,0.6,1.3,0.7,1.6-0.4c0.1-0.4,0.3-1,0.6-1.1c1.8-0.7,1.8-2.1,1.6-3.6
		c-0.2-1.2,0.4-1.5,1.3-1.4c0.8,0.1,1.5,0.3,2.3,0.3c1.1,0.1,1.5-0.5,1.1-1.5c-0.5-1.2-1.1-2.4-1.6-3.6c-0.2-0.5-0.5-1-0.4-1.4
		c0.3-1.3,0.8-2.6,1.2-4.1c1.5,0.6,3.2,0.9,4.5,1.8c1.8,1.2,3.8,1.7,5.9,1.8c0.8,0,1.6-0.5,2.4-0.9c0.6-0.3,1.1-0.7,1.8-0.9
		c1.8-0.6,3.7-1,5.4-1.7c2.2-0.9,4.3-1,6.3,0.4c0.7,0.5,1.4,0.8,2.1,1.3c2.3,1.4,4.8,1.9,7.4,1.8c5.1-0.3,9.9-1.6,14.4-4.1
		c3.8-2.1,8-2.8,12.4-2.2c1.1,0.2,2.4,0.3,3.4,0c3.5-1.3,7.3-1.7,10.4-3.8c1.5-1,2-0.7,2.2,1.1c0.1,1.2,0.8,1.5,1.8,1.5
		c1.1,0,2-0.4,2.6-1.4c0.4-0.7,0.9-1.4,1.3-2.1c0.5-0.8,1.1-1.1,2.1-0.7c0.5,0.2,1.4,0.2,1.8-0.1c1.3-1.3,2.5-0.9,3.9-0.3
		c1.6,0.7,3.2,1.4,4.9,2c2,0.7,4,0.5,5.4-1.4c0.2-0.3,0.5-0.6,0.8-0.7c0.5-0.1,1.2,0,1.6,0.2c0.1,0.1,0,0.9-0.1,1.3
		c-0.1,0.5-0.6,1-0.5,1.4c0.2,1,0.5,2.1,1.1,2.7c0.8,0.8,1.7,0,2.3-0.7c0.5-0.6,1.1-1.1,1.7-1.6c0.9-0.8,1.8-1.4,3.1-0.7
		c0.3,0.2,1,0.1,1.1-0.1C272.5,170.1,272.4,169.6,272.4,169.2z M35.7,98.6c2-0.7,4.1-1.4,6-2.4c1-0.5,1.8-1.6,2.5-2.6
		c0.7-1,1.5-1.5,2.5-1c2,0.9,3.9,0.8,5.9-0.1c0.7-0.3,1.7,0,2.5,0.3c1.2,0.4,2.3,1.2,3.5,1.5c1.1,0.3,2.3,0.4,3.5,0.3
		c1.1-0.1,1.8,0.1,2.4,1c0.9,1.3,2.1,2.4,3,3.5c-2.7-0.4-5.5,0.4-8.2,1.6c-0.3,0.1-0.8,0.5-0.8,0.8c0,0.3,0.3,0.7,0.6,0.9
		c1.1,0.6,2.3,1.1,3.4,1.7c-3.9-1.2-7.8-2.5-12-1.8c0.6-1.9,0.2-2.4-1.6-2.6c-0.8-0.1-1.5-0.2-2.5-0.4c0.4-0.5,0.8-0.7,0.8-0.9
		c0-0.5,0-1.3-0.3-1.4c-0.7-0.5-1.6-0.9-2.5-1c-0.6,0-1.4,0.4-1.7,0.9c-0.4,0.8-0.2,1.7,0.8,2.1c0.3,0.1,0.7,0.3,0.7,0.3
		c0.5,1.2,0.9,2.2,1.3,3.4c-1.1-0.2-2.3-0.3-3.4-0.6c-0.3-0.1-0.5-0.6-0.7-0.9c-0.7-1.8-1.7-2.2-3.6-1.8c-1.5,0.4-3.1,0.4-4.7,0.6
		c0-0.2-0.1-0.4-0.1-0.6C34,99,34.9,98.9,35.7,98.6z M28.6,99.1c0.9-0.3,1.9-0.6,2.8-0.8c0.1,0.1,0.2,0.3,0.2,0.4
		c-1,0.7-1.9,1.3-2.9,2c-1,0.7-1.9,1.5-2.8,2.2C25.9,100.2,26.1,99.9,28.6,99.1z M31.8,164.8c1.1-0.1,2.2-0.3,3.4-0.4
		C34.3,165.5,33.2,165.7,31.8,164.8z"/>
	<path d="M20.4,103.7c-0.4,0-0.8,0.1-1.1,0c-0.6-0.4-1.2-0.9-1.8-1.4c0.4-0.5,0.7-1,1.2-1.4c0.5-0.4,1.1-0.7,1.7-0.8
		c0.7-0.1,1.8,0,2.1,0.4c0.4,0.6,0.4,1.7,0.2,2.4c-0.1,0.4-1.1,0.6-1.7,0.9C20.8,103.8,20.6,103.8,20.4,103.7
		C20.4,103.8,20.4,103.8,20.4,103.7z"/>
</g>
</svg>
