<?xml version="1.0" encoding="utf-8"?>
<!-- Generator: Adobe Illustrator 17.1.0, SVG Export Plug-In . SVG Version: 6.00 Build 0)  -->
<!DOCTYPE svg PUBLIC "-//W3C//DTD SVG 1.1//EN" "http://www.w3.org/Graphics/SVG/1.1/DTD/svg11.dtd">
<svg version="1.1" id="Layer_1" xmlns="http://www.w3.org/2000/svg" xmlns:xlink="http://www.w3.org/1999/xlink" x="0px" y="0px"
	 viewBox="0 0 288 216" enable-background="new 0 0 288 216" xml:space="preserve">
<g>
	<path d="M244.8,62.1c0.8-0.4,0.8-1,0.7-1.5c-0.1-0.5-0.3-1.1-0.7-1.6c-0.2-0.2-0.4-0.3-0.6-0.5c0.4-0.1,0.8-0.4,1-0.7
		c0.2-0.5,0.2-1-0.1-1.6c-0.5-0.9-1.3-1.4-2.2-1.3c-0.7,0.1-1.4,0.2-2,0.4c-2.5,0.8-4.3,2.6-5.8,4.3l-1.3,1.5l-0.5-0.7
		c-0.6-0.9-1.2-1.7-1.8-2.5c-2.6-3.4-5.6-5.4-9.3-6.2c-2.4-0.5-4.9-0.6-7.5-0.2c-3.4,0.5-6.6,1.1-9.4,3.1c-0.8-1.8-1.5-3.7-1.5-5.6
		c0.1-1.4,0.2-2.8,0.4-4.2c0.1-0.5,0.1-1,0.2-1.5l1.6,0.2l-0.2-0.4c-0.8-2.1-0.7-4.3-0.6-6.4c0.1-1,0.1-2,0.1-3l1.6,2.8l0.2,0
		c0,0,0.1,0,0.1,0l0.3-0.1v-0.8c0-0.5-0.1-0.9-0.2-1.4c-0.2-0.8-0.4-1.6,0.1-2.4c0.1-0.1,0.1-0.2,0-0.3c-0.3-1.9-0.6-3.9-2.1-5.3
		l0.2,0c0.1,0,0.3,0,0.4,0l0.5,0l0-0.3c0-0.1,0-0.1,0-0.2c0-0.2,0-0.4-0.1-0.6c-0.4-0.9-1.2-1.5-2.5-1.6c-0.1,0-0.2,0-0.3,0l2.3-0.9
		l-0.3-0.3c-0.1,0-0.1-0.1-0.2-0.1c-0.1-0.1-0.2-0.2-0.4-0.2c-0.2,0-0.5-0.1-0.7-0.1c-0.7-0.1-1.3-0.2-2-0.2c-0.7,0-1.3,0.2-2,0.3
		c-0.4,0.1-0.9,0.2-1.3,0.3c-0.1,0-0.2-0.1-0.3-0.1c0,0,0,0,0,0c0.1-0.2,0.2-0.3,0.3-0.4c0,0,0.1-0.1,0.2-0.1c0.1,0,0.1-0.1,0.2-0.1
		l0.2-0.1l-0.1-0.2c0-0.1-0.1-0.1-0.1-0.2l-0.1-0.2l-0.5,0.1c-1.3,0.2-2.6,0.3-3.6,1.6c-0.4,0.5-0.6,0.7-1.2,0.6
		c-0.3-0.1-0.8,0.1-1.1,0.3c-0.9,0.7-1.9,0.8-3,0.8c-1.4,0.1-2.4,0.8-2.9,2.1c-0.1,0.4-0.2,0.8-0.3,1.2c0,0.2-0.1,0.4-0.1,0.6
		c0,0.2-0.1,0.5-0.2,0.7c-0.2,0.3-0.4,0.6-0.5,1c-0.3,0.5-0.6,1.1-0.9,1.7c-0.1,0.3-0.2,0.3-0.2,0.3c0,0-0.1,0-0.2-0.1
		c-0.4-0.2-0.8-0.4-1.3-0.6c-0.9-0.4-1.8-0.9-2.7-1.4c-2-1.3-3.8-1.9-5.6-2c-1.6-0.1-2.8,0.4-3.6,1.6c-0.2,0.2-0.4,0.5-0.8,0.7
		c-3.5,2-5.6,5.1-6.6,9.5c-0.2,0.8-0.3,1.7-0.3,2.6c-0.1,0.8-0.2,1.5-0.3,2.3c-0.4,1.9,0.1,3.5,1.3,5c0.4,0.5,0.7,0.9,1.1,1.4
		c0.2,0.2,0.3,0.5,0.5,0.7c0.5,0.6,0.7,0.9,1.1,0.9c0.3,0,0.6-0.2,1.1-0.6c0.9-0.6,1.7-1.3,2.6-2c0.4-0.3,0.8-0.7,1.3-1
		c1-0.8,2-1.1,3.1-1c0.5,0.1,1,0.1,1.4,0.1c0.7,0.1,1.4,0.1,2,0.2c1.4,0.2,2.6,0.3,3.7,0.3c2.4,0,4.5-0.5,6.4-1.4
		c0.1-0.1,0.4-0.1,0.5,0c0.7,0.3,1.5,0.5,2.4,0.5c0.7,0,1.5-0.1,2.1-0.2c0.4-0.1,0.7-0.1,0.9-0.1c0.2,0,0.3,0,0.4,1.2
		c0,0.1,0,0.1,0,0.2c0.1,3.2-0.4,5.9-1.4,8.4c-0.3,0.8-0.6,1.6-0.8,2.4c-1,3.5-0.3,6.3,1.9,8.6c0.1,0.1,0.2,0.5,0.2,0.7
		c0.2,2,0.6,4,2.2,5.7c0.1,0.1,0.1,0.3,0,0.5c-0.1,0.3-0.2,0.6-0.3,0.9c-0.1,0.4-0.3,0.8-0.3,1.2c-0.2,0.9-0.3,1.8-0.5,2.7
		c-0.1,0.8-0.3,1.5-0.4,2.3c0,0.2-0.1,0.3-0.3,0.5c0,0,0,0,0,0.1c0,0-0.1,0-0.1,0c-0.2-0.1-0.4-0.2-0.5-0.3
		c-0.4-0.5-0.8-1.1-1.1-1.7c-0.7-1.4-2-2.2-3.8-2.5c-1-0.2-1.9,0.1-2.6,0.8l-0.1,0l0,0c-0.1,0.1-0.1,0.1-0.2,0.2l-0.2,0.2l0.8,0.6
		c-1.3,0.3-2,1.2-2,2.3l0,0.2l0.2,0c0.9,0.1,1.8,0.1,2.8,0.2c-0.3,0.5-0.5,0.9-0.7,1.3l-0.5,0.8l0.1,0.1c0,0,0.1,0.1,0.1,0.1
		l0.1,0.1l0.1,0c0.1,0,0.1,0,0.2,0c0.1,0,0.3,0,0.5-0.1c1.1-0.5,2.1-0.4,3.4,0.7l0.4,0.3c0.2,0.2,0.4,0.4,0.7,0.5
		c1.4,1.1,3.3,2.4,5.7,2.6c0.2,0,0.5,0,0.7,0c0.1,0,0.2,0,0.3,0l0.2,0l0.1-0.6l-0.1-0.1c-0.2-0.1-0.3-0.2-0.5-0.4
		c-0.3-0.2-0.7-0.5-1-0.7c-0.5-0.4-0.8-0.7-0.7-1.3l0-0.3c0.1-1,0.2-2.1,0.2-3.2c0-1.7,0.5-3.3,1-4.9c0.1-0.4,0.3-0.8,0.4-1.3
		c0.2,0.2,0.5,0.3,0.7,0.5c0.6,0.4,1.1,0.7,1.7,1.1c3.3,2,6.4,3,9.6,3l0.3,0c3,0,6-0.6,8.9-1.8c0.2-0.1,0.3-0.1,0.4-0.1
		c0.2,0,0.3,0.1,0.5,0.4c0.6,0.8,1.2,1.7,2,2.7c1.4,1.7,1.8,3.7,1.3,6.2c-0.1,0.7-0.5,1.1-1.1,1.3c-0.3,0.1-0.5,0.3-0.7,0.5
		c-0.2,0.2-0.3,0.6-0.2,0.8c0.1,0.3,0.6,0.4,0.7,0.4c0.1,0,0.2,0,0.4,0c1.7,0,3.1-0.4,4.3-1.2c1.1-0.7,1.7-1.8,2.1-2.7
		c0.5-1.1,1.3-2.4,2.8-2.9c0.2-0.1,0.3-0.2,0.5-0.3c0.1-0.1,0.2-0.1,0.3-0.2l0.4-0.3l-0.5-0.2c-0.1,0-0.2-0.1-0.3-0.1
		c-0.2-0.1-0.3-0.1-0.5-0.1l-0.2,0c-0.7,0-1.5,0-2.2,0.1c-0.2,0-0.5,0-0.7,0c-1.1,0-1.8-0.3-2.4-0.9c-1-1.1-1.9-2.3-2.9-3.5
		c-0.3-0.4-0.7-0.9-1.1-1.3c2.7-1.6,4.9-3.5,6.8-5.8c1.8-2.2,3.2-4.7,4.3-7.7c0.1,0,0.2,0.1,0.2,0.1c0.3,0.1,0.7,0.2,1,0.4l0.3,0.2
		c2.6,1.2,5.1,2.4,6.3,5.2c0.2,0.6,0.7,0.9,1.2,0.9c0.5,0,1-0.4,1.3-0.9c0.1-0.3,0.2-0.6,0.3-1.1c0.1-0.9-0.1-1.7-0.8-2.5
		c0.4,0.1,0.7,0.1,1,0c0.5-0.2,0.8-0.9,0.9-1.4C246.6,63.7,246.1,62.8,244.8,62.1z M243.5,69.8c-1.4-3.3-4.4-4.6-7.3-5.9
		c-0.3-0.1-0.6-0.3-1-0.5c3.2,0.4,6.3,1.1,8.7,3.6c0.7,0.8,0.9,1.9,0.4,2.7C244.1,70.2,243.7,70.3,243.5,69.8z M193.5,85.7
		c-0.3-0.2-0.5-0.4-0.8-0.6c-0.3-0.3-0.7-0.6-1.1-0.8c-0.4-0.2-0.8-0.3-1.2-0.4c-0.2,0-0.4-0.1-0.6-0.1l-0.2-0.1
		c-0.2,0-0.3-0.1-0.5-0.1l0-0.1c0.1-0.2,0.2-0.4,0.3-0.6c0-0.1,0.1-0.1,0.2-0.2c0.1-0.1,0.1-0.1,0.2-0.2l0.2-0.2l-0.3-0.1
		c-0.9-0.4-1.7-0.5-2.5-0.6c-0.1-0.8-0.1-0.8,1.9-1.1l0.5-0.1l-0.8-0.7l0.3,0l0-0.3c0-0.1,0-0.3,0-0.4c0.2,0,0.3,0,0.5,0
		c1.2,0,2.5,0.7,3.1,1.6c0.2,0.3,0.4,0.6,0.6,1c0.2,0.3,0.4,0.7,0.6,1c0.2,0.3,0.4,0.6,0.7,0.8c0.3,0.3,0.6,0.4,0.9,0.4
		c0.5,0,0.8-0.3,1-0.9c0.1-0.5,0.2-1,0.3-1.4c0-0.3,0.1-0.7,0.2-1c0.3-1.5,0.6-3,1-4.5c0-0.1,0.1-0.3,0.2-0.4c0,0,0,0,0,0
		c0.7,0.3,0.7,0.4,0.5,1.1l-0.2,0.8c-0.4,1.6-0.8,3.3-1,4.9c-0.2,1.4-0.2,2.8-0.2,4.1c0,0.5,0.4,1,0.6,1.2c0.2,0.2,0.3,0.3,0.5,0.5
		c0.1,0,0.1,0.1,0.2,0.1c-0.4-0.1-0.8-0.1-1.2-0.3C195.9,87.2,194.7,86.5,193.5,85.7L193.5,85.7z M198.6,74.6
		c-1.9-1.4-2.5-3.5-2.7-5.3c0.7,0.6,1.5,1.2,2.2,1.8l0.2,0.1l0.2-0.2c0,0,0.1-0.1,0.1-0.1l0.2-0.2l-0.1-0.2
		c-0.1-0.1-0.1-0.1-0.1-0.2c-0.1-0.2-0.2-0.3-0.4-0.5c-0.6-0.6-1.2-1-1.7-1.4c-2.9-2.2-3.8-5.1-2.8-8.7c0.3-0.9,0.5-1.7,0.8-2.4
		c0.9-2.2,1.4-4.8,1.5-7.9c0-0.6-0.1-1.3-0.2-2.1c-0.1-0.3,0-0.5,0.3-0.7c4.2-2.7,6.8-6.4,7.7-11.1c0.1-0.5,0.1-1,0.1-1.5
		c0-1.7-0.7-3.1-2-4.2c-0.1-0.1-0.3-0.2-0.6-0.2h-0.4l0.2,0.4c0,0,0,0.1,0,0.1c0,0.1,0.1,0.3,0.2,0.3c2.2,1.7,1.9,4.1,1.4,6
		c-1,3.7-3.2,6.8-6.5,9.1c-1.5,1.1-3.4,1.5-5.7,1.3c-0.1,0-0.3-0.1-0.4-0.1c-0.1,0-0.1-0.1-0.2-0.1c0,0,0,0,0,0
		c2.8-1.6,4.7-4,5.8-7.2c0.4-1.2,1-1.6,2.3-1.7c0.2,0,0.5-0.1,0.7-0.1c0.1,0,0.3-0.1,0.4-0.1l0.8-0.2l-0.8-0.3
		c-0.2-0.1-0.6-0.1-0.9-0.1c-1.7,0-4.4,1-5,2.1l-0.4,0.7l0.7-0.4c0.5-0.2,0.9-0.5,1.5-0.7c-0.9,2.6-2.1,4.4-3.7,5.9
		c0.1-0.3,0.1-0.6,0.2-0.9c0.3-1.2,0.5-2.4,0.7-3.5c0.2-1.8,0.2-3.2-0.1-4.6c0.7,0.9,1.7,1.4,2.8,1.4c0.8,0,1.6-0.3,2.3-0.8
		c1.7-1.3,2.5-3.1,2.7-6l0,0l0,0c0-0.1-0.1-0.3-0.1-0.5c-0.1-0.5-0.2-1.2-0.5-1.8c-0.7-1.5-1.8-2.3-3.2-2.3c-0.3,0-0.7,0.1-1,0.2
		c0.5-0.2,0.9-0.4,1.2-0.4c0.6,0,1.2,0.3,2.1,0.9l0.1,0.1c0.5,0.4,1.1,0.7,1.6,1.1c0.5,0.3,1.1,0.2,1.6-0.3l0.2-0.2l-0.9-0.6
		c-0.5-0.3-0.9-0.7-1.4-1c-1.6-1.2-3.5-1.4-5.3-0.4c-0.8,0.4-1.6,1-2.3,1.5c-0.3,0.2-0.6,0.4-0.9,0.6c-0.1,0.1-0.1,0.2-0.2,0.3
		c0,0,0,0.1,0,0.2c-1-0.7-2-0.8-3.2-0.3c0.2-1.3,0.9-1.9,2.2-2l0.1,0c1.1-0.1,2.3-0.2,3.3-1c0,0,0.2-0.1,0.3-0.1
		c0.2,0.1,0.5,0.2,0.7,0.2c0.6,0,1-0.5,1.3-0.9c0.4-0.6,1-1,1.6-1c0.3,0.7,0.6,1.1,1.4,1.1c0.2,0,0.5,0,0.8-0.1l0.5-0.1
		c0.8-0.2,1.6-0.3,2.4-0.4c0.2,0,0.5,0,0.8,0c-0.5,0.3-1,0.7-1.3,1.4l-0.1,0.3l0.3,0c0.2,0,0.5,0,0.7,0c0.9,0,1.6,0,2.2,0.7
		c-0.1,0-0.1,0-0.2,0c-0.2,0-0.4,0-0.6,0c-0.3,0-0.7,0-1,0.3l-0.2,0l0.1,0.1c0,0,0,0-0.1,0l-0.2,0.2l0.2,0.2
		c0.2,0.2,0.5,0.4,0.7,0.5c0.5,0.4,1,0.7,1.4,1.2c0.4,0.4,0.6,1,0.8,1.6c0,0.1,0.1,0.2,0.1,0.3c-0.6-0.2-1-0.4-1.5-0.5l-0.2-0.1
		l-0.1,0.1c-0.1,0.1-0.2,0.2-0.2,0.3l-0.1,0.2l0.1,0.2c1,1.1,1.9,2.1,2.1,3.4l-1.2-1.5l-0.3,0.1c-0.1,0-0.1,0-0.2,0.1l-0.2,0.1V42
		c-0.1,0-0.2-0.1-0.3-0.1l-0.3-0.1l-0.1,0.3c0,0.1-0.1,0.2-0.1,0.3c-0.1,0.2-0.1,0.4-0.2,0.6c0,0.3-0.1,0.7-0.1,1
		c0,0.6-0.1,1.2-0.2,1.8c-0.8,2.9-0.4,5.9,1.1,9.2c0.2,0.5,0.2,0.8-0.3,1.1c-0.3,0.2-0.6,0.5-0.9,0.8c-0.1,0.1-0.3,0.2-0.4,0.4
		l-0.2,0.1l0.4,0.6l0.2-0.1c0.1,0,0.1-0.1,0.2-0.1c0.1-0.1,0.3-0.2,0.4-0.3c3.6-3.7,8.3-4.5,12.7-4.9c2.9-0.2,5.6,0.1,8,1.1
		c2.2,0.9,4,2.3,5.6,4.2c0.9,1.2,1.8,2.4,2.6,3.6c0.4,0.5,0.7,1,1.1,1.6c0.3,0.5,0.4,1,0.2,1.5c-3.5,8.8-9.9,14-18.9,15.5
		c-0.9,0.2-1.9,0.2-2.8,0.2c-3.6,0-7-1.1-10.4-3.5c-0.8-0.5-1.6-1.1-2.3-1.6L198.6,74.6z M182.4,47.9c-0.8,0-1.7-0.1-2.6-0.2
		c-1.6-0.2-3.2-0.3-4.8-0.5l-1.3-0.1c-1.8-0.1-3.3-0.9-4.6-2.5c-1.7-1.9-2.7-4.3-3.6-6.5l0-0.1c-0.1-0.2-0.1-0.5,0-0.7
		c1.3-3.2,3-5.3,5.4-6.6c0.5-0.3,0.9-0.6,1.1-0.9c0.6-0.8,1.4-1.2,2.5-1.2c0.2,0,0.4,0,0.6,0c1.7,0.2,3.3,0.8,4.8,1.8
		c2.2,1.5,4.6,2.5,7.2,2.9c-0.1,0-0.2,0-0.2,0c-0.2,0-0.4,0-0.5,0.1c-0.3,0.1-0.5,0.3-0.6,0.6c-0.1,0.3,0,0.5,0.2,0.8
		c0.4,0.4,1.1,0.6,1.7,0.6c0.2,0,0.4,0,0.6-0.1c0.4-0.2,0.6-0.4,0.6-0.7c0-0.2,0-0.5-0.5-0.7c-0.3-0.2-0.6-0.3-0.9-0.4c0,0,0,0,0,0
		c0.9,0.1,1.7,0.2,2.6,0.2c0.4,0,0.6,0.1,0.8,0.5c0.6,1.4,0.7,2.8,0.7,3.8c0,2.3-0.4,4.5-1.3,7.1c-0.1,0.2-0.3,0.5-0.6,0.7
		C187.5,47.2,185.1,47.9,182.4,47.9C182.4,47.9,182.4,47.9,182.4,47.9z M164.6,40.5c0-0.1,0-0.3,0.1-0.4c0,0.1,0.1,0.2,0.1,0.2
		c0.3,0.5,0.5,1,0.8,1.5c0.6,1.1,1.2,2.3,2,3.4c1.1,1.6,2.5,2.6,4.3,2.8l-0.9,0.7c-1,0.8-1.9,1.6-2.9,2.3c-0.3,0.2-0.6,0.4-0.7,0.4
		c-0.1,0-0.3-0.3-0.6-0.6c-0.4-0.5-0.8-1-1.1-1.5l-0.7-1c-0.9-1.1-1.1-2.3-0.9-3.6c0.2-1,0.3-2,0.4-3
		C164.5,41.5,164.5,41,164.6,40.5z M188.5,28.8c0.2-0.1,0.5-0.1,0.7-0.1c0.2,0,0.4,0,0.5,0.1c0.4,0.1,0.5,0.5,0.5,0.9l-0.5,0.1
		c-0.7,0.1-1.3,0.2-2.1,0.2C187.8,29.5,188,29,188.5,28.8z M187.5,31c0.9-0.2,1.7-0.3,2.5-0.4c0.1,0.1,0.1,0.2,0.1,0.3
		c-0.1,0.3-0.2,0.7-0.3,1c-0.1,0.2-0.1,0.4-0.2,0.6c-0.1,0.3-0.2,0.4-0.4,0.4c0,0-0.1,0-0.2,0c0.1-0.6,0.2-1.3-0.5-1.8
		c-0.2-0.1-0.5-0.1-0.6-0.1c-0.2,0-0.4,0-0.6,0.2C187.5,31,187.5,31,187.5,31z M193.4,34.2L193.4,34.2L193.4,34.2
		C193.4,34.2,193.4,34.2,193.4,34.2z M193.4,34.5L193.4,34.5c0.4,0,0.7-0.1,0.9-0.3c0.3-0.3,0.4-0.7,0.4-1.3c0-1-0.7-1.9-1.5-1.9h0
		c-0.7,0-1.2,0.6-1.3,1.4c0-0.1,0-0.2-0.1-0.3c0-1.2,0.6-1.8,2-1.8c1.6-0.1,3.2,0.4,5,1.3c0.1,0,0.2,0.3,0.1,0.3
		c-0.4,1.7-1.1,2.9-2.3,3.7c-0.5,0.4-1.1,0.6-1.7,0.6c-1,0-1.9-0.6-2.4-1.6c-0.1-0.2-0.1-0.3-0.2-0.5
		C192.6,34.3,193,34.5,193.4,34.5z M192.3,29.8c0.6-1.7,1.5-2.7,2.8-3.3c1.2-0.5,2.5-0.1,3.2,1.1c0.6,0.9,0.9,2.1,0.8,3l0,0
		c-1.5-0.6-3-1.2-4.7-1.2C193.7,29.4,193,29.5,192.3,29.8z M191.2,27.9c0.2-0.1,0.3-0.1,0.5-0.2c0.3-0.1,0.6-0.2,0.8-0.3
		c0.1-0.1,0.3-0.2,0.4-0.3c-1.3,1.6-1.9,4-1.6,6.1c-0.2-0.2-0.5-0.4-0.8-0.4c0,0,0-0.1,0-0.1c0.1-0.2,0.1-0.4,0.2-0.5
		c0-0.2,0.1-0.4,0.1-0.6c0.1-0.5,0.3-1,0.3-1.6c0.1-1-0.2-1.7-0.9-2c0.2,0,0.4,0,0.6-0.1l0,0.1L191.2,27.9z M185.8,31.5
		c0.2-0.5,0.5-1,0.9-1.5c0.1-0.1,0.2-0.3,0.3-0.4c-0.1,0.5-0.2,1.1-0.3,1.6c0,0.3-0.1,0.5-0.1,0.8c0,0.1,0,0.3,0,0.4
		c-0.1,0-0.2,0-0.2,0c-0.2,0-0.4,0-0.5-0.2C185.7,32.1,185.7,31.8,185.8,31.5z M186.6,34.3c0.4,0,0.8,0,1.1,0c0,0,0.1,0.1,0.2,0.2
		l-0.4,0.2l-0.1-0.1C187.1,34.6,186.8,34.4,186.6,34.3z M244.5,61.4c-0.1,0.1-0.3,0.1-0.6,0c-1-0.5-2.1-0.7-3.2-0.7
		c-1.6,0-3.2,0.4-4.6,0.9c-0.4,0.1-0.8,0.2-1.2,0.3c1.4-1,2.6-1.8,3.8-2.3c1-0.5,2.2-0.7,3.4-0.7c0.2,0,0.3,0,0.5,0
		c1.2,0.1,2,0.8,2,1.9C244.6,61.1,244.6,61.3,244.5,61.4z M244.3,57.6c-0.1,0.2-0.4,0.3-0.6,0.3c-3.2-0.3-5.8,1.1-8.2,2.6
		c1.8-2.2,3.8-4.1,6.7-4.8c0.1,0,0.3,0,0.4,0c0.7,0,1.3,0.4,1.6,1C244.5,57,244.5,57.3,244.3,57.6z M244.7,65.6c-2-2-4.5-2.4-7-2.7
		l-2.2-0.3c0,0,0.1,0,0.1,0c0.8-0.2,1.6-0.3,2.4-0.5c2.4-0.4,4.5-0.1,6.3,0.8c0.9,0.5,1.4,1.3,1.3,2.2
		C245.6,65.7,245.1,66,244.7,65.6z M225.9,87.4c0.2-2.4-0.3-4.3-1.7-5.9c-0.6-0.7-1.2-1.5-1.7-2.2l-0.3-0.4c0,0-0.1-0.1-0.1-0.1
		c-0.1-0.1-0.2-0.2-0.2-0.2c0,0,0,0,0.1-0.1c0.1,0,0.2-0.1,0.3-0.2c0.2-0.1,0.3-0.2,0.5-0.2c0,0,0.1,0,0.3,0.2
		c0.2,0.3,0.4,0.5,0.6,0.8c0.4,0.5,0.7,1,1.1,1.5l0.1,0.2c0.5,0.7,1.1,1.4,1.7,2.1c1,1.1,2.4,1.6,4,1.4c0.2,0,0.5,0.1,0.7,0.1
		c-0.2,0.3-0.3,0.5-0.5,0.8c-0.5,0.8-1,1.5-1.4,2.2c-1.1,2-2.9,3.1-4.9,3.1c0,0,0,0,0,0c0,0,0,0,0,0c0-0.1,0.1-0.2,0.1-0.3
		C225.6,89.5,225.8,88.4,225.9,87.4z"/>
	<path d="M209.2,70.7c0.7,0.4,1.2,0.6,1.6,0.6c0.1,0,0.2,0,0.3-0.1c0.4-0.2,0.9-0.2,1.3-0.2h0.2c0.4,0,0.9,0,1.3-0.1
		c1.9-0.6,3.6-1.6,5-2.8c0.7-0.7,1.7-1.8,1.1-3.5c0-0.1,0-0.3,0-0.4c0.1-1.2-0.4-2-1.7-2.5c-0.2-0.1-0.4-0.3-0.4-0.4
		c-0.5-1.6-1.4-2.2-3.1-1.9c-0.1,0-0.2,0-0.3,0c-0.2,0-0.3,0-0.3-0.1c-0.7-0.8-1.5-1-2.7-0.5c-0.1,0.1-0.4,0-0.5-0.1
		c-1.1-0.8-2-0.8-2.9,0.1c-0.5,0.5-0.9,1.1-1.1,1.7c-0.5,1.2-1,2.4-1.3,3.3c-0.1,0.4-0.2,0.8-0.3,1.2c0,0.2-0.1,0.4-0.1,0.6
		c0,1.3,0.5,2.4,1.4,3.2C207.5,69.5,208.3,70.2,209.2,70.7z M210.6,59.7c0.6,1.3,0.9,2.4,1.1,3.5c0.2,1,0.2,2,0.2,3
		c0,0.2,0,0.3,0,0.5c-0.3-0.7-0.5-1.3-0.8-2c-0.3-0.6-0.6-1.3-1.1-1.8c-0.4-0.5-1-1.2-2-1.2c-0.2,0-0.4,0-0.6,0.1
		c0.3-1.2,0.8-1.9,1.5-2.4C209.6,58.8,210.3,59,210.6,59.7z M212.3,59.5c0.1,0,0.2,0,0.3,0c0.2,0,0.4,0.2,0.7,0.4
		c0,0,0.1,0.1,0.1,0.1c0,0,0,0,0,0c-0.4,0.3-0.7,0.6-1.1,0.9l-0.2,0.1l-0.4-1.1C211.8,59.6,212,59.5,212.3,59.5z M216.8,60.8
		c0.3,0.3,0.2,0.5,0.2,0.5c0,0-0.1,0.2-0.5,0.2c-1.8,0.2-3,1.2-3.8,2.9c0,0,0,0,0,0c-0.1-0.8-0.2-1.5-0.3-2.2c0,0,0-0.1,0.1-0.2
		c0.4-0.9,1.9-1.8,3.1-1.8c0.2,0,0.3,0,0.5,0.1C216.3,60.4,216.6,60.6,216.8,60.8z M213,70.3L213,70.3c-0.2,0-0.3-0.1-0.4-0.2
		c-0.1-0.1-0.2-0.3-0.1-0.6c0.2-2,1-3.7,2.4-5.2c0.3-0.3,0.7-0.4,1.1-0.5c0.1,0,0.3-0.1,0.4-0.1l0,0.1l0.1,0c0.1,0,0.2,0,0.3,0
		c0.2,0,0.4,0,0.6,0.1c1,0.3,1.7,0.8,1.9,1.4c0.2,0.6-0.1,1.4-0.8,2.1c-1.4,1.4-3.1,2.3-5.1,2.9C213.2,70.3,213.1,70.3,213,70.3z
		 M219,63.6c-0.8-0.5-1.6-0.7-2.3-0.7c-1.3,0-2.4,0.6-3.2,1.8c0.6-1.2,1.6-2.1,2.7-2.3c0.2,0,0.5-0.1,0.7-0.1c0.6,0,1.1,0.2,1.6,0.5
		c0.4,0.2,0.6,0.5,0.7,1C219.1,63.7,219,63.7,219,63.6z M209.2,63.1c0.6,0.8,1.1,1.7,1.6,2.8c0.6,1.5,0.9,2.8,0.9,4.1
		c0,0.5-0.2,0.6-0.5,0.6c-0.2,0-0.4,0-0.5-0.1c-1.5-0.5-2.8-1.4-3.8-2.7c-0.3-0.3-0.4-0.8-0.6-1.3c-0.1-0.2-0.1-0.4-0.2-0.7
		c0.1-0.3,0.2-0.5,0.3-0.8c0.2-0.6,0.4-1.2,0.7-1.8C207.6,62.3,208.5,62.2,209.2,63.1z"/>
</g>
<g>
	<path d="M127.7,170.3c-0.9,1.1-1.7,2.5-2.8,3.3c-2.2,1.7-4.9,0.5-5.2-2.2c-0.3-2.4,1.4-5.5,3.6-6.6c2.2-1,4.3,0.1,4.7,2.6
		c0.1,0.5,0.1,0.9,0.2,1.4C128,169.3,127.8,169.8,127.7,170.3z M126.7,166.8c-0.5-1.3-1.7-1.7-3-1c-1.9,0.9-3.3,3.7-3,5.8
		c0.2,1.4,1.3,2.1,2.7,1.7C125.7,172.7,127.6,169,126.7,166.8z"/>
	<path d="M142,168.2c-0.6-0.2-1.1-0.4-1.5-0.5c-0.6-0.1-1.4-0.5-1.9-0.3c-0.9,0.4-1.6,1.3-1.3,2.5c0.3,1.5,1.5,2.4,2.6,3.3
		c0.2,0.1,0.4,0.3,0.6,0.4c-2.4,0.9-4.2-0.1-4.6-2.6c-0.3-1.7,0.2-3.1,1.4-4.3C138.8,165.1,140.8,165.7,142,168.2z"/>
	<path d="M130.2,162.1c-2.2,1-4.1-0.2-4.4-2.7c-0.2-2.2,1.4-4.9,3.4-5.9c2.2-1.1,4.2,0,4.5,2.5C134,158.4,132.5,161.1,130.2,162.1z
		 M129.7,154.4c-1.8,0.9-3.1,3.4-2.7,5.4c0.3,1.4,1.3,1.9,2.6,1.4c1.9-0.8,3.3-3,3.1-5C132.6,154.4,131.3,153.6,129.7,154.4z"/>
	<path d="M229.1,167c-0.9-1.4-1.8-2.8-2.7-4.1c-0.3-0.5-0.6-0.9-0.9-1.4c0.5-0.4,1.1-0.7,1.7-0.8l0.5-0.1l-0.4-0.3
		c-0.7-0.5-1.4-1-2.1-1.5l-0.1,0c-4.3-0.9-8-2.6-11.2-5.3c-4.2-3.6-8.6-7.1-12.8-10.5c-1.5-1.2-3.1-2.5-4.6-3.7
		c-0.9-0.7-1.8-1.4-2.7-2.1c-0.5-0.4-1-0.7-1.5-1.1c-2.3-1.8-4.8-2.7-7.6-2.7c-1.9,0-3.9,0.4-6.1,1.3c-3.3,1.3-6.6,2.6-9.8,3.8
		l-0.2,0.1c-0.9,0.3-1.3,0.4-1.6,0.3l-0.1,0l-0.1,0c-1,0.3-1.9,0.7-3.1,1.3l-0.1,0c-0.1,0.1-0.1,0.1-0.2,0.2l-1.8,0.9l-0.4,0.2
		c-1,0.6-2,1.1-3.1,1.6c-0.1,0-0.2,0.1-0.3,0.1c0,0,0,0,0,0l-0.1,0l-0.3,0.1c-0.3,0.2-0.7,0.3-1,0.5c-0.9,0.4-1.9,0.9-2.9,1.3
		c-1.6,0.7-3.2,1.4-4.7,2.2c-3.3,1.8-4.7,4.6-4.2,8.1c0.2,1,0.2,2,0.2,3c-0.1,1.6-0.8,2.8-2.1,3.6c-1.2-2.3-3.1-3.9-5-5.4
		c-0.3-0.3-0.7-0.5-1-0.8c-0.6-0.5-1.2-1.2-1.7-1.8c-0.3-0.4-0.6-0.7-0.9-1c-0.2-0.2-0.5-0.5-0.9-0.6c-0.8-0.3-1.5-0.6-2.3-0.8
		c-2.1-0.8-4.3-1.6-6.4-2.2c-3-0.9-5.7-1.3-8.2-1.3c-4,0-7.6,1.1-11,3.3c-5,3.3-7.5,9.2-6.3,14.9c0.2,0.9,0.4,1.7,0.7,2.6
		c0.1,0.3,0.2,0.6,0.2,0.9c-0.1,0-0.3,0-0.4-0.1c-1.5-0.3-2.9-0.6-4.4-1c-3.1-0.7-6.4-1.4-9.6-2c-5.7-1.1-11.5-2.1-17-3.1
		c-2-0.3-3.9-0.7-5.9-1c-0.3,0-0.4-0.1-0.6-0.2l0.1-0.3l-0.4-0.1l-0.1-0.2l-0.2,0.1c-0.8-0.2-1.6-0.3-2.4-0.5
		c-4.1-0.8-7.8-2.6-11.2-5.4l-0.1,0c-0.8-0.2-1.6-0.5-2.4-0.7l-0.5-0.1l0.2,0.5c0.3,0.6,0.4,1.2,0.4,1.8c-0.6,0.1-1.1,0.1-1.7,0.2
		c-1.6,0.2-3.3,0.3-4.9,0.5c-0.8,0.1-1.5,0.1-1.5,1.5c0.1,3.1,1.6,5.6,4.6,7.9c0.8,0.6,1.7,1.3,2.6,2l0.9,0.7
		c-0.1,0-0.2,0.1-0.3,0.1c-0.4,0.2-0.8,0.3-1,0.6c-0.2,0.2-0.9,1-0.8,1.8c0.1,0.5,0.8,1.2,1.4,1.3c0.8,0.2,1.7,0.2,2.5,0
		c1.6-0.4,3.3-0.3,5.2,0.3c2.7,0.9,5.4,0.8,7.9-0.5c0.6-0.3,1.2-0.5,1.7-0.7l0.2-0.1c1,0.3,2.5,0.8,4.8,2.3l0.2,0.4l1.2,0.3
		c0.8,0.2,1.6,0.4,2.4,0.7c2.3,0.7,4.5,1.5,6.8,2.2c3.7,1.2,7.6,2.5,11.4,3.7c0.4,0.1,1,0.1,1.6,0c0.2,0,0.3,0,0.5,0
		c0.6,0,1.2-0.1,1.8-0.2c1.2-0.2,2.5-0.3,3.6-0.2c1.9,0.2,3.8,0.7,5.6,1.2c0.9,0.2,1.8,0.4,2.7,0.6c3.6,0.8,5.9,0.7,8.4-0.1
		c0.2,0,0.6,0.2,0.7,0.3c1.1,1.5,2.5,2.3,4.3,2.3c0.5,0,1-0.1,1.5-0.2c1.5-0.3,3-0.8,4.4-1.3l1.3-0.4c1.5-0.5,3.1-1,4.6-1
		c0.5,0,1.1,0.1,1.6,0.2c1,0.3,1.7-0.1,2.4-0.7c0.5-0.4,1.2-0.7,1.9-0.8c0.7-0.1,1.4,0,2.1,0.2l0.1,0c0.7,0.1,1.5,0.3,2.2,0.4
		c2.2,0.4,4.5,0.8,6.7,1.3c1.1,0.3,2.3-0.2,3-1.3c0.5-0.8,0.6-1.8,0.2-2.6c-0.4-0.8-0.8-1.6-1.2-2.5l-0.3-0.7c0.2,0,0.5,0,0.8,0
		l2.6,0.2c8.3,0.6,16.5,1.2,24.8,1.9c0.4,0,1.3,0.1,1.3,0.3c0.1,0.2-0.4,0.9-0.6,1.3c-0.4,0.6-0.5,1-0.3,1.4
		c0.1,0.4,0.5,0.7,1.1,0.9c1.9,0.7,3.9,0.7,5.9-0.1c1.2-0.5,2-1.1,2.3-1.8c0.3-0.8,0.2-1.7-0.3-3c-0.1-0.2-0.1-0.3-0.2-0.5l0,0l1,0
		c1.2,0,2.4,0,3.6,0c2.7,0,5.5,0.1,8.3,0.1l0.6,0c1.1,0,2-0.4,2.6-1.1c0.5-0.7,0.7-1.8,0.3-2.9c-0.2-0.7-0.5-1.3-0.8-1.9
		c-0.1-0.2-0.2-0.5-0.4-0.7c1.7-1.9,2.5-4.1,2.3-6.7c-0.2-2.6-2.1-4.3-4.6-4.3c-0.5,0-1.1,0.1-1.6,0.3l-0.4,0.1l0.9,0.9
		c0.4,0.4,0.8,0.8,1.2,1.1c0.1,0.1,0.3,0.3,0.4,0.4c0.6,0.5,1,0.9,0.8,1.6c-0.8,2.4-0.5,4.9-0.2,7.1c0.1,1,0.2,2.1,0.4,3.1l0.1,0.9
		c-1.6,0.4-3.4,0.6-5.6,0.6c-1.3,0-2.7-0.1-4-0.1c-1.3-0.1-2.7-0.1-4.1-0.1c-1.2,0-2.3,0.1-3.3,0.2l-0.4,0l0.2,0.3
		c0.2,0.3,0.4,0.6,0.5,0.9c0.4,0.6,0.7,1.2,1,1.7c0.4,0.6,0.5,1,0.5,1.3c-0.1,0.3-0.4,0.6-1.1,0.9c-1.5,0.7-3.1,0.8-5.2,0.2
		c0-0.1,0.1-0.2,0.1-0.3c0.1-0.3,0.3-0.6,0.4-0.9c0.5-0.8,0.6-1.3,0.4-1.7c-0.2-0.4-0.6-0.7-1.3-0.8l-0.5-0.1c-2-0.5-4-1-6.1-1
		l-0.1,0c-0.8,0-1.6,0-2.4,0c-4,0-8.8-0.1-13.5-1c-0.7-0.1-1.5-0.2-2.3-0.3c-0.8-0.1-1.7-0.1-2.6-0.1c-1.7,0-3.1,0.2-4.5,0.6
		l-0.3,0.1l0.5,1.1c0.3,0.6,0.6,1.2,0.9,1.9c0.1,0.2,0.2,0.4,0.3,0.6c0.2,0.5,0.5,1,0.6,1.4c0.1,0.7,0.1,1.1,0,1.3
		c-0.2,0.2-0.6,0.4-1.3,0.4c-1.1,0.1-1.9,0.1-2.5-0.1c-1.5-0.4-3-0.8-4.5-1.3c-0.5-0.1-0.9-0.3-1.4-0.4l0.1-0.1
		c0.3-0.3,0.5-0.5,0.8-0.8c2.8-2.6,4.3-5.7,4.3-9.2c0-1.5-0.2-2.9-0.4-4.3c-0.1-0.7-0.2-1.5-0.3-2.2c-0.1-0.6,0-0.8,0-0.9
		c2.4-1.7,2.7-4.1,2.6-6.5c0-0.5,0-1.1-0.1-1.6c0-1-0.1-2,0-2.9c0-0.4,0.3-1,0.6-1.2c6.8-5.2,14.7-8.5,20.8-10.7
		c4.9-1.8,10-3.5,14.9-5.2l1.9-0.6c0.5-0.2,1.2-0.1,1.7,0.1c4.9,2.3,9.1,5.6,13,8.8c1.3,1.1,2.6,2.1,3.8,3.2
		c1.8,1.6,3.7,3.2,5.7,4.7c4.1,3.3,9,6.9,15,8.9c-0.5,0.4-0.7,0.8-0.7,1.1c0,0.4,0.4,0.8,1.1,1.3c0.1,0.1,0.2,0.1,0.3,0.2
		c0.2,0.1,0.3,0.2,0.4,0.3c0.2,0.3,0.5,0.6,0.7,0.8c-0.4-0.1-0.7-0.2-1-0.4c-0.5-0.2-1-0.6-1.4-0.9c-0.2-0.1-0.4-0.3-0.6-0.4
		l-0.7-0.4l0.3,0.7c0.7,1.5,1.9,2.3,3.1,3.1c0.6,0.4,1.2,0.7,1.7,1.2c-0.6,0.1-1.2,0.1-1.6,0c-0.5-0.2-1.1-0.5-1.6-0.8
		c-0.4-0.2-0.8-0.4-1.2-0.6c-0.5-0.2-1.1-0.4-1.6-0.5c-0.2-0.1-0.5-0.1-0.7-0.2l-0.2-0.1l-0.4,0.9l0.2,0.1c0.2,0.1,0.3,0.2,0.5,0.4
		c0.4,0.3,0.8,0.6,1.2,0.8c0.4,0.2,0.9,0.4,1.4,0.5c0.5,0.1,0.9,0.3,1.4,0.5c0.4,0.2,0.8,0.5,1.2,0.8c0,0,0,0,0,0
		c-0.4,0-0.8,0.1-1.2,0.1c-1.9,0-3.6-0.4-5.5-0.8c-1.6-0.4-3.2-0.7-4.9-0.8l-0.3,0l0.7,3c-2.6-2.3-5.2-4.9-7.1-8.1
		c-0.4-0.6-0.7-1.3-1.1-1.9c-0.8-1.4-1.6-2.9-2.6-4.3c-2.4-3.3-6.1-4.8-9.7-6.1l-0.1,0c-3.3-1.2-6.8-2.3-9.5-4.8
		c-0.2-0.2-0.6-0.2-0.8-0.2c-0.3,0-0.6,0.1-0.8,0.2c-4.2,2.7-8,5.1-11.8,7.6c-1,0.7-1.9,1.5-2.9,2.3c-0.5,0.4-0.9,0.8-1.5,1.3
		l-0.5,0.4l0.6,0c2,0.1,3.1-0.8,4.1-1.7l0.1-0.1c0.8-0.6,1.4-0.8,2.3-0.5c1.3,0.4,2.6,0.7,3.8,1.1c2.4,0.6,4.8,1.3,7.2,2.1
		c2,0.6,4,1.4,6,2.1c0.9,0.3,1.8,0.6,2.7,1l0.5,0.2l-0.2-0.5c-0.4-1.1-1.3-1.5-2.2-1.8c-0.5-0.2-1-0.4-1.4-0.8l8.6,2l0.4-1l-0.2-0.1
		c-0.2-0.1-0.3-0.3-0.5-0.4c-0.4-0.3-0.8-0.7-1.3-0.8c-2.1-0.4-4.3-0.7-6.4-1.1c-2.6-0.4-5.3-0.8-7.9-1.3c-2-0.4-3.9-0.9-5.9-1.4
		c-0.8-0.2-1.6-0.4-2.4-0.6c0,0,0-0.1,0.1-0.1c0.1-0.2,0.2-0.3,0.4-0.5c1.8-2.1,4.2-3.4,6.6-4.6c0.4-0.2,0.7-0.4,1.1-0.6
		c0,0,0.1,0,0.1,0c0.2,0,0.6,0.1,0.7,0.2c1,0.4,2.1,0.8,3.1,1.3c2,0.8,4,1.7,6.1,2.4c3.6,1.3,6.9,3.1,10.1,5.6
		c0.2,0.1,0.3,0.3,0.3,0.4c0.1,0.3,0.2,0.5,0.3,0.8c0.3,0.7,0.6,1.5,0.8,2.3c0.6,2.8,2.1,4.9,4.6,6.5c1.7,1.1,2.8,2.3,3.5,3.8
		c0.3,0.8,0.9,1.5,1.5,2c0.5,0.4,1.5,0.5,1.9,0.3c0.6-0.4,0.8-1.4,0.9-1.7c0.1-0.4,0-0.8-0.2-1.2c0-0.1,0-0.2-0.1-0.3l1.2,0.3
		c1.1,0.3,2.1,0.5,3.1,0.8c1.3,0.3,2.4,0.5,3.5,0.5c0,0,0,0,0,0c2.1,0,3.9-0.6,5.5-1.8C229.9,168.3,229.5,167.7,229.1,167z
		 M201.4,166.6c-0.1-0.5-0.1-1,0-1.5c0-1,0-2-0.5-2.9c0.4,0.3,0.7,0.6,0.9,0.9C202.1,163.8,202,164.9,201.4,166.6z M104.2,174.1
		c-2.5-3.4-3.9-6.8-4.2-10.3c-0.3-4.2,1.4-7.7,5.1-10.3c3.8-2.6,7.8-3.9,12-3.9c2.2,0,4.4,0.4,6.7,1.1c0.3,0.1,0.6,0.2,0.9,0.4
		l0.1,0.1c0,0,0,0,0.1,0c-6.4,2.9-10.2,6.8-11.8,12.1c-1.6,5.2-1,10.5,2,17.2c-0.3,0-0.6,0-0.8-0.1c-0.8-0.1-1.5-0.1-2.1-0.3
		C109.1,179.2,106.6,177.3,104.2,174.1z M134,157.9c-0.9,2.6-2.8,4.6-5.6,5.9c-0.1,0-0.2,0.1-0.2,0.1l-0.1,0l0,0
		c-0.1,0.1-0.2,0.1-0.1,0.3l0,0.2l-0.1,4.3l-0.4,1.5l0,0.1c-0.3,2.4-3.7,5.8-6.1,6c-1.5,0.1-2.1-0.2-2.2-1.8c-0.4-4.1,0.4-7,2.7-9.1
		c0.8-0.7,1.7-1.2,2.7-1.8c0.5-0.3,0.9-0.5,1.4-0.8l0.2-0.1l-0.1-0.2c0-0.1-0.1-0.2-0.1-0.3c-0.1-0.3-0.3-0.7-0.4-1.1
		c-0.9-3.2,0.6-6.5,3.7-7.9c0.6-0.3,1.2-0.4,1.8-0.4c0.9,0,1.7,0.3,2.3,0.9C134.3,154.9,134.5,156.3,134,157.9z M124.7,162.3
		c-0.1,0-0.2,0.1-0.3,0.1c-0.3,0.1-0.6,0.3-0.8,0.4c-2.9,1.1-4.7,3.3-5.3,6.4c-0.1,0.5-0.2,1-0.2,1.4c-0.2,1-0.3,2.1-0.6,3.1
		c-0.3,1.2-0.9,2.3-1.5,3.2c-2.6-5.7-2.5-11.2,0.3-16.5c2.5-4.6,6.2-7.2,11.2-7.8C124.1,155.3,123.3,158.5,124.7,162.3z
		 M117.2,181.1c4.3-2,7.5-4.5,9.9-7.7c1.9-2.6,2.6-5.1,2.2-7.8c0-0.2,0.1-0.6,0.2-0.7c3-2,4.9-4.6,5.8-7.8c2.3,1.1,4.1,2.9,5.5,5.6
		c1.9,3.7,2.5,7.2,1.6,10.7c-1,4-3.6,6.2-7.7,6.7c-1.6,0.2-2.7,0.8-3.6,2c-0.6-0.2-1.2-0.3-1.8-0.3c-1.5,0-2.9,0.5-4.3,1
		c-0.4,0.1-0.8,0.3-1.2,0.4l-0.3,0.1c-1.5,0.5-3,0.9-4.5,1.1c-1.8,0.2-3.2-0.6-4.2-2.3L117.2,181.1z M61.7,164l5.9,1.1
		c10.5,1.9,21.3,3.9,31.9,5.8c0.5,0.1,1,0.5,1.2,0.9c1.9,4.3,5,7.5,9.7,9.6c0.3,0.1,0.5,0.2,0.8,0.3c0.4,0.2,0.9,0.4,1.3,0.6
		c0.1,0,0.1,0.2,0.2,0.4c0,0,0,0,0,0.1c-0.2,0.1-0.4,0.2-0.6,0.3c-0.6-0.5-1.3-0.8-2.2-0.8c-0.5,0-1,0.1-1.5,0.2
		c-0.5,0.1-1.1,0.2-1.6,0.1c-1.9-0.1-3.8-0.4-5.6-0.8c-0.4-0.1-0.9-0.2-1.3-0.3c-1.2-0.2-2.4-0.5-3.5-0.7c-1.4-0.3-2.8-0.6-4.1-0.8
		c-0.2,0-0.5-0.1-0.8-0.1c-0.4,0-0.7,0.1-0.9,0.3c-0.2,0.2-0.3,0.6-0.3,1c-0.2,0.1-0.6,0.2-0.8,0.2c-0.1,0-0.1,0-0.2,0
		c-1.4-0.5-2.8-1-4.1-1.4c-1.6-0.6-3.3-1.2-5-1.7c-3.1-1-6.3-2-9.4-2.9l-2.2-0.7c-0.4-0.4-3.2-3.1-6.7-3.3l0-0.1l-0.2,0
		c-0.2,0-0.3,0-0.5,0.1l-0.2,0c-0.1,0-0.3,0-0.4,0.1l-0.1,0c-0.7,0.1-1.3,0.2-2,0.3c-0.7,0.1-1.4,0.3-2.2,0.4
		c-1.2,0.2-2.4,0.3-3.7,0.3c-2.4,0-4.9-0.3-7-0.7l2.8-1.3l-0.2-0.3c-1.1-1.3-2.4-2.3-3.7-3.3c-1.8-1.4-3.5-2.8-4.8-4.7c0,0,0,0,0,0
		c0.5,0.1,0.9,0.2,1.4,0.4c0.4,0.2,0.8,0.5,1.2,0.8c0.4,0.3,0.8,0.5,1.2,0.8c0.4,0.2,0.9,0.3,1.4,0.4c0.2,0,0.4,0.1,0.6,0.2l0.2,0.1
		l0.4-0.9l-0.2-0.1c-0.2-0.1-0.4-0.3-0.6-0.4c-0.4-0.3-0.9-0.6-1.4-0.9c-0.4-0.2-0.8-0.4-1.3-0.6c-0.6-0.2-1.1-0.4-1.6-0.8
		c-0.4-0.3-0.8-0.8-1-1.3c0.7,0.1,1.3,0.4,2,0.6c1,0.3,1.9,0.7,3,0.7c0.4,0,0.9-0.1,1.3-0.2l0.8-0.2l-0.8-0.3
		c-0.2-0.1-0.5-0.2-0.7-0.2c-0.5-0.2-1.1-0.3-1.6-0.6c-0.3-0.2-0.6-0.4-0.9-0.6c0.4,0,0.7,0,1.1,0c0.1,0,0.3,0.1,0.5,0.1
		c0.1,0,0.2,0.1,0.3,0.1c0.5,0.2,0.9,0.2,1.1,0.2c0.8,0,0.9-0.6,1-1.4c3.8,2.5,8.2,4.2,14.1,5.6l0.3,0.1L61.7,164z"/>
</g>
<g>
	<path d="M254.3,131c3.2-0.2,6.2-0.3,9.2,0c1.4-0.5,2.7-1,3.9-1.5c-3.2-0.6-6.7-0.9-10.4-0.5c-6.5,0.7-13,0.1-19.4-0.9
		c-8.5-1.4-17.1-2.7-26-1.7c-2.9,0.3-5.8,0.5-8.6,0.6c-7.8,0.3-15.2-0.9-22.5-2.3c-8-1.5-16.1-2.3-24.5-1.7
		c-8.6,0.6-17.1,0.1-25.4-1.2c-6.3-1-12.6-1.3-19.1-0.5c-7.4,0.8-14.8,1.1-22.2-0.2c-11.3-2-22.6-3.5-34.6-2.7
		c-6.2,0.4-12.7-0.2-19-0.2c-5.8-0.1-11.6,0-17.4,0c0.4,0.6,0.9,1.1,1.5,1.7c2,0.1,4,0.2,6,0.2c3.1,0.1,6.2-0.1,9.2-0.1
		c7.2,0.1,14.5,0.6,21.7,0.3c9.7-0.4,18.9,0.5,28.1,2.1c8,1.5,16.3,2.1,24.6,1.1c7.7-0.9,15.1-0.6,22.7,0.5
		c4.9,0.7,10.1,0.9,15.2,0.9c11.2,0,22.3-0.6,33.2,1.8c10.2,2.3,20.7,2.7,31.5,1.6c6.9-0.7,13.7-0.3,20.4,0.9
		C239.4,130.3,246.7,131.6,254.3,131z"/>
	<path d="M257.1,141.2c4,0.3,8,0.6,12,0.9c-1.8-0.3-3.6-0.6-5.3-1c-8-1.5-16-2.3-24.4-1.8C245.3,140.3,251.5,140.7,257.1,141.2z"/>
	<path d="M131.9,136.4c-5.6-0.3-11-1.5-16.2-2.8c-0.3-0.1-0.6-0.2-0.8-0.3c-4.5-0.4-9-0.4-13.6,0.1c-3.8,0.4-7.7,0.7-11.5,0.7
		c-0.7,0.2-1.5,0.4-2.5,0.3c-4.2-0.4-8.4-0.7-12.6-0.9c-1.1,0.2-2.2,0.4-3.3,0.5c1.1,0.2,2.1,0.3,3.2,0.5c8,1.5,16.3,2.1,24.6,1.1
		c7.7-0.9,15.1-0.6,22.7,0.5c3.9,0.6,8,0.8,12.1,0.9C133.2,136.9,132.6,136.7,131.9,136.4z"/>
	<path d="M72.2,149c-8.6,0.6-17.1,0.1-25.4-1.2c-6.3-1-12.6-1.3-19.1-0.5c-3.9,0.4-7.8,0.7-11.6,0.7c-2.3,0.6-4.5,1.1-6.9,1.6
		c5.4,0.5,10.8,0.6,16.3-0.1c7.7-0.9,15.1-0.6,22.7,0.5c4.9,0.7,10.1,0.9,15.2,0.9c0.4,0,0.8,0,1.3,0c0.4-0.1,0.8-0.2,1.3-0.2
		c7.6-0.5,15.3-0.7,23.1-1.1C83.5,148.9,77.9,148.7,72.2,149z"/>
	<path d="M275.2,156.8c-5.8-0.7-11.7-1.1-17.8-0.4c-2.9,0.3-5.8,0.5-8.6,0.6c-4.1,0.2-8-0.1-11.9-0.6c-2.7,0.3-5.4,0.6-8.2,0.8
		c8.4,1.6,17,2,25.7,1.4C261.3,157.7,268.3,157.3,275.2,156.8z"/>
	<path d="M124,195.3c-4.9-0.1-9.7-0.6-14.5-1.4c-6.3-1-12.6-1.3-19.1-0.5c-5.6,0.6-11.2,0.9-16.7,0.5c-3.1,0.3-6.3,0.5-9.5,0.7
		c7.8,1.4,15.9,2,23.9,1c7.7-0.9,15.1-0.6,22.7,0.5c4.9,0.7,10.1,0.9,15.2,0.9c3.3,0,6.5,0,9.8-0.1c-0.6-0.2-1.2-0.3-1.9-0.5
		C130.6,196.2,127.3,195.8,124,195.3z"/>
	<path d="M253.7,191c-4-0.1-7.9-0.5-11.8-1.2c-8.5-1.4-17.1-2.7-26-1.7c-2.9,0.3-5.8,0.5-8.6,0.6c-3.5,0.2-6.9,0-10.3-0.4
		c3.5,1,7.4,1.7,11.1,2.2c2.7-0.1,5.3-0.3,8-0.5c6.9-0.7,13.7-0.3,20.4,0.9c7.2,1.2,14.5,2.5,22.1,1.9c1-0.1,2-0.1,3-0.2
		C258.9,192.3,256.3,191.7,253.7,191z"/>
	<path d="M272.9,122.6c0.9-0.6,1.7-1.3,2.4-2c-4.5-0.4-9-0.7-13.6-1c-12.3-0.9-24.5-1.8-36.8-2.7c-9.5-0.7-18.9-1.4-28.4-2
		c-11.4-0.7-22.9-1.3-34.3-1.9c-12.9-0.7-25.8-1.5-38.8-2.1c-10.7-0.5-21.5-0.9-32.2-1.2c-16.9-0.6-33.9-1.1-50.8-1.7
		c-7.9-0.3-15.9-0.5-23.8-0.8c0.1,0.7,0.3,1.3,0.5,2c85.2,2.6,170.1,6.6,255.3,13.7C272.6,122.8,272.8,122.7,272.9,122.6z"/>
	<path d="M235.3,99.2c11.5,0.7,23.1,1.4,34.6,2.3c3.7,0.3,7.4,0.6,11.1,0.9c0.1-0.3,0.2-0.7,0.3-1c0.1-0.2,0.1-0.4,0.2-0.6
		c-6.1-0.5-12.1-1-18.2-1.5c-13.7-1.1-27.5-2-41.3-2.8c-14.4-0.8-28.7-1.6-43.1-2.2c-20.3-0.8-40.7-1.4-61-2
		c-12.5-0.3-25-0.5-37.6-0.7c-13.8-0.2-27.5-0.4-41.3-0.5c-3,0.6-6.1,1.1-8.9,1.6c18.3,0.2,36.7,0.4,55,0.7c2.2,0,4.3,0.2,6.9,0.3
		c-0.8,0.4-1.1,0.6-1.6,0.7c-5.5,1.7-10.9,3.4-16.4,5.1c-0.9,0.3-1.5,0.7-2.3,1.1l0.8,0.5c7.3-2.2,14.6-4.5,22-6.7
		c1.1-0.3,2.4-0.7,3.5-0.6c7.3,0.1,14.6,0.3,21.9,0.5c2.1,0.1,4.2,0.2,7,0.4c-7.3,2.4-14,4.6-20.6,6.9c0.2,0.1,0.3,0.3,0.5,0.4
		c0.7-0.1,1.6-0.1,2.2-0.3c4.7-1.5,9.4-3,13.9-4.5c4.6-1.6,9.2-2.9,15.1-2.3c2,0.2,4,0.2,6.1,0.3c11.3,0.4,22.5,0.7,33.8,1.2
		c11.4,0.5,22.8,1.1,34.2,1.7c6.1,0.3,12.1,0.7,18.8,1.1c-7.6,2.2-14.5,4.3-21.5,6.4c0.1,0.1,0.3,0.3,0.4,0.4
		c0.9-0.2,1.9-0.3,2.8-0.6c5.9-1.7,11.7-3.4,17.6-5C231.8,99.6,233.7,99.1,235.3,99.2z"/>
	<path d="M142.7,108.8c2.7-3.8,14.2-11.3,17.3-11.3C154.6,102.3,148.7,105.7,142.7,108.8z"/>
	<path d="M244.3,116c1.4-3.2,12-9.2,15.3-8.7C254.4,110.2,249.6,113,244.3,116z"/>
	<path d="M203.6,113.2c1.4-3.2,12-9.2,15.3-8.7C213.8,107.5,208.9,110.2,203.6,113.2z"/>
	<path d="M190.9,101c-4.8,3-9.6,6-14.8,9.3C177.3,107,186.1,101.4,190.9,101z"/>
	<path d="M58.1,94.9c-3.9,3.3-8.2,6.1-13,7.8c-0.1-0.1-0.2-0.3-0.3-0.4c4.3-2.7,8.5-5.5,12.8-8.2C57.8,94.3,58,94.6,58.1,94.9z"/>
</g>
</svg>
